%TF.GenerationSoftware,KiCad,Pcbnew,10.0.1*%
%TF.CreationDate,2026-06-09T15:04:30+02:00*%
%TF.ProjectId,Bluetooth Box V3,426c7565-746f-46f7-9468-20426f782056,rev?*%
%TF.SameCoordinates,Original*%
%TF.FileFunction,Copper,L2,Inr*%
%TF.FilePolarity,Positive*%
%FSLAX46Y46*%
G04 Gerber Fmt 4.6, Leading zero omitted, Abs format (unit mm)*
G04 Created by KiCad (PCBNEW 10.0.1) date 2026-06-09 15:04:30*
%MOMM*%
%LPD*%
G01*
G04 APERTURE LIST*
%TA.AperFunction,ComponentPad*%
%ADD10C,1.800000*%
%TD*%
%TA.AperFunction,ComponentPad*%
%ADD11R,1.700000X1.700000*%
%TD*%
%TA.AperFunction,ComponentPad*%
%ADD12O,2.100000X1.000000*%
%TD*%
%TA.AperFunction,ComponentPad*%
%ADD13O,1.600000X1.000000*%
%TD*%
%TA.AperFunction,HeatsinkPad*%
%ADD14C,0.600000*%
%TD*%
%TA.AperFunction,ViaPad*%
%ADD15C,0.250250*%
%TD*%
G04 APERTURE END LIST*
D10*
%TO.N,+5V*%
%TO.C,J2*%
X71250000Y-43790000D03*
%TO.N,GND*%
X71250000Y-38710000D03*
%TD*%
D11*
%TO.N,+5V*%
%TO.C,J10*%
X79750000Y-32250000D03*
%TD*%
D12*
%TO.N,N/C*%
%TO.C,J1*%
X71530000Y-26040000D03*
D13*
X67350000Y-26040000D03*
D12*
X71530000Y-34680000D03*
D13*
X67350000Y-34680000D03*
%TD*%
D10*
%TO.N,/Amplifier/LOUTP*%
%TO.C,J8*%
X125040000Y-49250000D03*
%TO.N,/Amplifier/LOUTN*%
X119960000Y-49250000D03*
%TD*%
D14*
%TO.N,GND*%
%TO.C,U5*%
X80650000Y-74550000D03*
X82050000Y-74550000D03*
X79950000Y-73850000D03*
X81350000Y-73850000D03*
X82750000Y-73850000D03*
X80650000Y-73175000D03*
X82050000Y-73175000D03*
X79950000Y-72450000D03*
X81350000Y-72450000D03*
X82750000Y-72450000D03*
X80650000Y-71750000D03*
X82050000Y-71750000D03*
%TD*%
D11*
%TO.N,GND*%
%TO.C,J4*%
X102000000Y-33750000D03*
%TD*%
%TO.N,+12V*%
%TO.C,J3*%
X120250000Y-37250000D03*
%TD*%
D10*
%TO.N,/Amplifier/ROUTP*%
%TO.C,J7*%
X99040000Y-49000000D03*
%TO.N,/Amplifier/ROUTN*%
X93960000Y-49000000D03*
%TD*%
%TO.N,Net-(J5-Pin_1)*%
%TO.C,J5*%
X112040000Y-33750000D03*
%TO.N,GND*%
X106960000Y-33750000D03*
%TD*%
D15*
%TO.N,/I2S_BCLK*%
X95647001Y-89939881D03*
%TO.N,+12V*%
X112983925Y-47975178D03*
%TO.N,/EN*%
X84449858Y-56840063D03*
X91549999Y-32775001D03*
%TO.N,GND*%
X73630000Y-80400000D03*
X73700329Y-63888253D03*
X74750000Y-34912500D03*
X75700000Y-60705000D03*
X75700000Y-58550000D03*
X79200000Y-56640000D03*
X92500000Y-97200000D03*
X104800000Y-42000000D03*
X106500000Y-82300000D03*
X106837500Y-86000000D03*
X107000000Y-47500000D03*
X107000000Y-51000000D03*
X106837500Y-91500000D03*
X108500000Y-42300000D03*
X109750000Y-46750000D03*
X112000000Y-47500000D03*
X112000000Y-51000000D03*
X113950000Y-79740000D03*
X115112500Y-72750000D03*
X113750000Y-84587500D03*
X115162500Y-91500000D03*
%TO.N,Net-(IC1-BSLP)*%
X112000000Y-49000000D03*
%TO.N,Net-(IC1-BSRP)*%
X107000000Y-49000000D03*
%TO.N,Net-(IC1-LINP)*%
X110250000Y-51750000D03*
%TO.N,Net-(IC1-~{SD})*%
X108250000Y-46750000D03*
%TO.N,/I2S_LRCLK*%
X105549588Y-90614363D03*
%TO.N,Net-(IC1-BSLP)*%
X112706846Y-48279799D03*
%TO.N,GND*%
X73550000Y-82500000D03*
%TO.N,/BT_I2S_DATA*%
X85060000Y-80400000D03*
%TO.N,+5V*%
X77291851Y-42297850D03*
%TO.N,Net-(IC1-~{SD})*%
X103000000Y-42162500D03*
%TO.N,Net-(IC1-BSRP)*%
X105686650Y-48456816D03*
%TO.N,Net-(Q1-E)*%
X74250000Y-54100000D03*
%TO.N,+5V*%
X73460731Y-32781679D03*
%TO.N,/EN*%
X89398526Y-54730415D03*
%TO.N,Net-(SS8050-E)*%
X88300000Y-54987500D03*
%TO.N,/SDA*%
X89864173Y-82183565D03*
%TO.N,/Mute*%
X96500000Y-62837500D03*
%TO.N,Net-(SS8050-E)*%
X74250000Y-52830000D03*
%TO.N,GND*%
X82550000Y-97250000D03*
X95481592Y-78661952D03*
X103637500Y-72750000D03*
X94500000Y-97200000D03*
X98468732Y-97712346D03*
X115950000Y-54510000D03*
X84350000Y-92900000D03*
X103087500Y-88723858D03*
%TO.N,/AUX_I2S_DATA*%
X93362500Y-91000000D03*
%TO.N,Net-(U7-SELFBOOT)*%
X104912500Y-88723858D03*
%TO.N,/EN*%
X82550001Y-32775001D03*
%TO.N,+1V8*%
X101750000Y-91100000D03*
%TO.N,/I2S_LRCLK*%
X74900000Y-62900000D03*
%TO.N,/GPIO0*%
X79315435Y-83934566D03*
%TO.N,Net-(U2-VINR1{slash}VIN2P)*%
X87637500Y-86500000D03*
X82200000Y-87750000D03*
%TO.N,/ADAU1701/PLL_LF*%
X119835772Y-86206286D03*
%TO.N,Net-(U7-~{RESET})*%
X106837500Y-88000000D03*
%TO.N,/I2S_BCLK*%
X106837500Y-90000000D03*
%TO.N,GND*%
X91390000Y-77360000D03*
X87637500Y-88000000D03*
X112500000Y-40337500D03*
X123600000Y-91100000D03*
X80300000Y-44150000D03*
X111250000Y-84587500D03*
X117450000Y-80500000D03*
X90140000Y-80400000D03*
X82500000Y-45850000D03*
X115162500Y-89000000D03*
X110750000Y-96700000D03*
X115950000Y-44000000D03*
X86225000Y-60045000D03*
X82180000Y-56755000D03*
X82650000Y-95100000D03*
X123200000Y-93250000D03*
X115950000Y-52500000D03*
X127900000Y-93500000D03*
X119450000Y-85250000D03*
X106817186Y-94952251D03*
X74750000Y-25587500D03*
%TO.N,/SCL*%
X91908256Y-82390121D03*
%TO.N,Net-(U7-~{RESET})*%
X102799339Y-86358215D03*
%TO.N,/BT_I2S_DATA*%
X106837500Y-91000000D03*
%TO.N,/SDA*%
X93362500Y-88500000D03*
%TO.N,/ADAU1701/PLL_LF*%
X116173366Y-86479600D03*
%TO.N,Net-(IC1-PL)*%
X112391747Y-42906266D03*
%TO.N,/RX_IN*%
X77440000Y-62900000D03*
X78002320Y-55009532D03*
%TO.N,Net-(Q1-E)*%
X92437500Y-56000000D03*
%TO.N,GND*%
X106837500Y-89000000D03*
%TO.N,/SDA*%
X112750000Y-92912500D03*
%TO.N,+1V8*%
X98764712Y-91650630D03*
%TO.N,Net-(IC1-PL)*%
X110750000Y-46750000D03*
%TO.N,/TX_OUT*%
X77621461Y-60089369D03*
%TO.N,GND*%
X88500000Y-97200000D03*
X125750000Y-90450000D03*
X84650000Y-45950000D03*
X110250000Y-92912500D03*
X96453094Y-65411789D03*
X93362500Y-87000000D03*
X111750000Y-92912500D03*
X78750000Y-35440000D03*
X108200000Y-97750000D03*
X85300000Y-83250000D03*
X82800000Y-42250000D03*
X101450000Y-88723858D03*
X90500000Y-97200000D03*
X103050000Y-44000000D03*
X103050000Y-54500000D03*
X115750000Y-94700000D03*
X109500000Y-55950000D03*
%TO.N,/Mute*%
X109250000Y-51750000D03*
%TO.N,Net-(IC1-RINP)*%
X108454045Y-53952742D03*
%TO.N,/GPIO0*%
X90140000Y-62900000D03*
%TO.N,/SCL*%
X91087500Y-82750000D03*
%TO.N,/I2S_BCLK*%
X94399975Y-82834298D03*
%TO.N,GND*%
X115162500Y-87500000D03*
%TO.N,Net-(IC1-RINP)*%
X107950000Y-57750000D03*
%TO.N,Net-(R26-Pad1)*%
X79650000Y-60000000D03*
%TO.N,GND*%
X113250000Y-84587500D03*
X110500000Y-42300000D03*
X106750000Y-55200000D03*
X103050000Y-46000000D03*
%TO.N,Net-(U7-SELFBOOT)*%
X107726625Y-88723858D03*
%TO.N,/I2S_LRCLK*%
X94963992Y-91179569D03*
%TO.N,Net-(R26-Pad1)*%
X82500000Y-59087500D03*
%TO.N,/DSP_IN_SELECT*%
X115162500Y-89500000D03*
%TO.N,GND*%
X121400000Y-89400000D03*
%TO.N,Net-(IC1-LINP)*%
X111050000Y-57750000D03*
%TO.N,GND*%
X72445000Y-27110000D03*
X113950000Y-81750000D03*
X80000000Y-97250000D03*
%TO.N,/DSP_IN_SELECT*%
X87447895Y-66738792D03*
%TO.N,GND*%
X104500000Y-82300000D03*
X72445000Y-33610000D03*
X115950000Y-46000000D03*
X107912500Y-62000000D03*
X111087500Y-62000000D03*
X80500000Y-94700000D03*
X78250000Y-44050000D03*
%TO.N,/SCL*%
X113250000Y-92912500D03*
%TO.N,/TX_OUT*%
X77545102Y-56065228D03*
%TO.N,GND*%
X87637500Y-90500000D03*
X107950000Y-60000000D03*
X111050000Y-60000000D03*
X96500000Y-97200000D03*
%TO.N,/AUX_I2S_DATA*%
X108466770Y-90655568D03*
%TO.N,Net-(Q1-E)*%
X88300000Y-58587500D03*
%TO.N,GND*%
X103050000Y-52500000D03*
%TO.N,/SDA*%
X96584802Y-92627511D03*
%TO.N,GND*%
X79950000Y-42250000D03*
X117450000Y-82500000D03*
X86500000Y-97200000D03*
X112250000Y-55200000D03*
X119450000Y-87500000D03*
X92429020Y-65952692D03*
%TO.N,/SCL*%
X93362500Y-88000000D03*
%TO.N,+12V*%
X114050000Y-52500000D03*
%TO.N,GND*%
X107387500Y-69225000D03*
X104800000Y-39990000D03*
X66053303Y-96003711D03*
X72683711Y-88442039D03*
X72683711Y-81428990D03*
X79099012Y-93390967D03*
X81461900Y-86919810D03*
X88961222Y-98336241D03*
X74626643Y-98696697D03*
X66053303Y-25053303D03*
X73066351Y-25053303D03*
X70897505Y-32120404D03*
X74043708Y-39172634D03*
X76854440Y-50672047D03*
X73295065Y-57528414D03*
X66255718Y-47296289D03*
X86804133Y-25053303D03*
X82233092Y-31925990D03*
X84053214Y-41320072D03*
X129446697Y-25053303D03*
X129446697Y-32066351D03*
X129446697Y-39079399D03*
X129446697Y-46092448D03*
X129446697Y-53105496D03*
X129446697Y-60118544D03*
X129446697Y-67131593D03*
X129446697Y-74144641D03*
X129446697Y-81157689D03*
X129446697Y-88170737D03*
X129446697Y-95183786D03*
X122298826Y-96787758D03*
X119567456Y-89946289D03*
X121913373Y-82445152D03*
X117867241Y-74256870D03*
X115672447Y-67764306D03*
X110248633Y-62630722D03*
X111540360Y-56006360D03*
X120175378Y-47254624D03*
X116764334Y-39113838D03*
X108408295Y-34626158D03*
X101595438Y-36182887D03*
X91323850Y-39913678D03*
X90929617Y-31977800D03*
X93968332Y-25053303D03*
X100981380Y-25053303D03*
X107994428Y-25053303D03*
X115007477Y-25053303D03*
X122020525Y-25053303D03*
X108825758Y-98696697D03*
X100110058Y-98696697D03*
X105653711Y-42214769D03*
X103302965Y-66274029D03*
X100496595Y-60472717D03*
X97352584Y-54379911D03*
X92393610Y-49420937D03*
X112821802Y-78960715D03*
X105515820Y-78549260D03*
X109928238Y-71395585D03*
X98317403Y-91479173D03*
X85957801Y-92493786D03*
X80430000Y-79296289D03*
X89867818Y-78797043D03*
X85851900Y-68509316D03*
X79514513Y-70896289D03*
X111679212Y-91823038D03*
X104664039Y-87446289D03*
X111740983Y-45381044D03*
X104103238Y-53070585D03*
X100478297Y-73812552D03*
X85577011Y-55951752D03*
X90586486Y-61796289D03*
X74519995Y-64150951D03*
X73222817Y-72900860D03*
X92417082Y-70375000D03*
X94877194Y-83995864D03*
X82115438Y-61778711D03*
%TD*%
%TA.AperFunction,Conductor*%
%TO.N,GND*%
G36*
X129689692Y-24810309D02*
G01*
X129693119Y-24818582D01*
X129693119Y-98931419D01*
X129689692Y-98939692D01*
X129681419Y-98943119D01*
X65818582Y-98943119D01*
X65810309Y-98939692D01*
X65806882Y-98931419D01*
X65806882Y-92867299D01*
X112522775Y-92867299D01*
X112522775Y-92957700D01*
X112557367Y-93041211D01*
X112557368Y-93041213D01*
X112621287Y-93105132D01*
X112673950Y-93126945D01*
X112704799Y-93139724D01*
X112704800Y-93139724D01*
X112704802Y-93139725D01*
X112704804Y-93139725D01*
X112795196Y-93139725D01*
X112795198Y-93139725D01*
X112878713Y-93105132D01*
X112942632Y-93041213D01*
X112977225Y-92957698D01*
X112977225Y-92867302D01*
X112977224Y-92867299D01*
X113022775Y-92867299D01*
X113022775Y-92957700D01*
X113057367Y-93041211D01*
X113057368Y-93041213D01*
X113121287Y-93105132D01*
X113173950Y-93126945D01*
X113204799Y-93139724D01*
X113204800Y-93139724D01*
X113204802Y-93139725D01*
X113204804Y-93139725D01*
X113295196Y-93139725D01*
X113295198Y-93139725D01*
X113378713Y-93105132D01*
X113442632Y-93041213D01*
X113477225Y-92957698D01*
X113477225Y-92867302D01*
X113442632Y-92783787D01*
X113378713Y-92719868D01*
X113378711Y-92719867D01*
X113295200Y-92685275D01*
X113295198Y-92685275D01*
X113204802Y-92685275D01*
X113204799Y-92685275D01*
X113121288Y-92719867D01*
X113057367Y-92783788D01*
X113022775Y-92867299D01*
X112977224Y-92867299D01*
X112942632Y-92783787D01*
X112878713Y-92719868D01*
X112878711Y-92719867D01*
X112795200Y-92685275D01*
X112795198Y-92685275D01*
X112704802Y-92685275D01*
X112704799Y-92685275D01*
X112621288Y-92719867D01*
X112557367Y-92783788D01*
X112522775Y-92867299D01*
X65806882Y-92867299D01*
X65806882Y-92582310D01*
X96357577Y-92582310D01*
X96357577Y-92672711D01*
X96377111Y-92719869D01*
X96392170Y-92756224D01*
X96456089Y-92820143D01*
X96508752Y-92841956D01*
X96539601Y-92854735D01*
X96539602Y-92854735D01*
X96539604Y-92854736D01*
X96539606Y-92854736D01*
X96629999Y-92854736D01*
X96630000Y-92854736D01*
X96713515Y-92820143D01*
X96777434Y-92756224D01*
X96812027Y-92672709D01*
X96812027Y-92582313D01*
X96777434Y-92498798D01*
X96713515Y-92434879D01*
X96713513Y-92434878D01*
X96630002Y-92400286D01*
X96630000Y-92400286D01*
X96539604Y-92400286D01*
X96539601Y-92400286D01*
X96456090Y-92434878D01*
X96392169Y-92498799D01*
X96357577Y-92582310D01*
X65806882Y-92582310D01*
X65806882Y-91605429D01*
X98537487Y-91605429D01*
X98537487Y-91695830D01*
X98572079Y-91779341D01*
X98572080Y-91779343D01*
X98635999Y-91843262D01*
X98688662Y-91865075D01*
X98719511Y-91877854D01*
X98719512Y-91877854D01*
X98719514Y-91877855D01*
X98719516Y-91877855D01*
X98809908Y-91877855D01*
X98809910Y-91877855D01*
X98893425Y-91843262D01*
X98957344Y-91779343D01*
X98991937Y-91695828D01*
X98991937Y-91605432D01*
X98957344Y-91521917D01*
X98893425Y-91457998D01*
X98893423Y-91457997D01*
X98809912Y-91423405D01*
X98809910Y-91423405D01*
X98719514Y-91423405D01*
X98719511Y-91423405D01*
X98636000Y-91457997D01*
X98572079Y-91521918D01*
X98537487Y-91605429D01*
X65806882Y-91605429D01*
X65806882Y-90954799D01*
X93135275Y-90954799D01*
X93135275Y-91045200D01*
X93140630Y-91058127D01*
X93169868Y-91128713D01*
X93233787Y-91192632D01*
X93286450Y-91214445D01*
X93317299Y-91227224D01*
X93317300Y-91227224D01*
X93317302Y-91227225D01*
X93317304Y-91227225D01*
X93407696Y-91227225D01*
X93407698Y-91227225D01*
X93491213Y-91192632D01*
X93549477Y-91134368D01*
X94736767Y-91134368D01*
X94736767Y-91224769D01*
X94771359Y-91308280D01*
X94771360Y-91308282D01*
X94835279Y-91372201D01*
X94887942Y-91394014D01*
X94918791Y-91406793D01*
X94918792Y-91406793D01*
X94918794Y-91406794D01*
X94918796Y-91406794D01*
X95009188Y-91406794D01*
X95009190Y-91406794D01*
X95092705Y-91372201D01*
X95156624Y-91308282D01*
X95191217Y-91224767D01*
X95191217Y-91134371D01*
X95188874Y-91128714D01*
X95159636Y-91058127D01*
X95158257Y-91054799D01*
X101522775Y-91054799D01*
X101522775Y-91145200D01*
X101557367Y-91228711D01*
X101557368Y-91228713D01*
X101621287Y-91292632D01*
X101659072Y-91308283D01*
X101704799Y-91327224D01*
X101704800Y-91327224D01*
X101704802Y-91327225D01*
X101704804Y-91327225D01*
X101795196Y-91327225D01*
X101795198Y-91327225D01*
X101878713Y-91292632D01*
X101942632Y-91228713D01*
X101977225Y-91145198D01*
X101977225Y-91054802D01*
X101942632Y-90971287D01*
X101926144Y-90954799D01*
X106610275Y-90954799D01*
X106610275Y-91045200D01*
X106615630Y-91058127D01*
X106644868Y-91128713D01*
X106708787Y-91192632D01*
X106761450Y-91214445D01*
X106792299Y-91227224D01*
X106792300Y-91227224D01*
X106792302Y-91227225D01*
X106792304Y-91227225D01*
X106882696Y-91227225D01*
X106882698Y-91227225D01*
X106966213Y-91192632D01*
X107030132Y-91128713D01*
X107064725Y-91045198D01*
X107064725Y-90954802D01*
X107030132Y-90871287D01*
X106966213Y-90807368D01*
X106966211Y-90807367D01*
X106882700Y-90772775D01*
X106882698Y-90772775D01*
X106792302Y-90772775D01*
X106792299Y-90772775D01*
X106708788Y-90807367D01*
X106644867Y-90871288D01*
X106610275Y-90954799D01*
X101926144Y-90954799D01*
X101878713Y-90907368D01*
X101878711Y-90907367D01*
X101795200Y-90872775D01*
X101795198Y-90872775D01*
X101704802Y-90872775D01*
X101704799Y-90872775D01*
X101621288Y-90907367D01*
X101557367Y-90971288D01*
X101522775Y-91054799D01*
X95158257Y-91054799D01*
X95156624Y-91050856D01*
X95092705Y-90986937D01*
X95092703Y-90986936D01*
X95009192Y-90952344D01*
X95009190Y-90952344D01*
X94918794Y-90952344D01*
X94918791Y-90952344D01*
X94835280Y-90986936D01*
X94771359Y-91050857D01*
X94736767Y-91134368D01*
X93549477Y-91134368D01*
X93555132Y-91128713D01*
X93589725Y-91045198D01*
X93589725Y-90954802D01*
X93555132Y-90871287D01*
X93491213Y-90807368D01*
X93491211Y-90807367D01*
X93407700Y-90772775D01*
X93407698Y-90772775D01*
X93317302Y-90772775D01*
X93317299Y-90772775D01*
X93233788Y-90807367D01*
X93169867Y-90871288D01*
X93135275Y-90954799D01*
X65806882Y-90954799D01*
X65806882Y-90569162D01*
X105322363Y-90569162D01*
X105322363Y-90659563D01*
X105339431Y-90700768D01*
X105356956Y-90743076D01*
X105420875Y-90806995D01*
X105473538Y-90828808D01*
X105504387Y-90841587D01*
X105504388Y-90841587D01*
X105504390Y-90841588D01*
X105504392Y-90841588D01*
X105594784Y-90841588D01*
X105594786Y-90841588D01*
X105678301Y-90806995D01*
X105742220Y-90743076D01*
X105776813Y-90659561D01*
X105776813Y-90610367D01*
X108239545Y-90610367D01*
X108239545Y-90700768D01*
X108269372Y-90772775D01*
X108274138Y-90784281D01*
X108338057Y-90848200D01*
X108390720Y-90870013D01*
X108421569Y-90882792D01*
X108421570Y-90882792D01*
X108421572Y-90882793D01*
X108421574Y-90882793D01*
X108511966Y-90882793D01*
X108511968Y-90882793D01*
X108595483Y-90848200D01*
X108659402Y-90784281D01*
X108693995Y-90700766D01*
X108693995Y-90610370D01*
X108659402Y-90526855D01*
X108595483Y-90462936D01*
X108595481Y-90462935D01*
X108511970Y-90428343D01*
X108511968Y-90428343D01*
X108421572Y-90428343D01*
X108421569Y-90428343D01*
X108338058Y-90462935D01*
X108274137Y-90526856D01*
X108239545Y-90610367D01*
X105776813Y-90610367D01*
X105776813Y-90569165D01*
X105742220Y-90485650D01*
X105678301Y-90421731D01*
X105678299Y-90421730D01*
X105594788Y-90387138D01*
X105594786Y-90387138D01*
X105504390Y-90387138D01*
X105504387Y-90387138D01*
X105420876Y-90421730D01*
X105356955Y-90485651D01*
X105322363Y-90569162D01*
X65806882Y-90569162D01*
X65806882Y-89894680D01*
X95419776Y-89894680D01*
X95419776Y-89985081D01*
X95444677Y-90045196D01*
X95454369Y-90068594D01*
X95518288Y-90132513D01*
X95570951Y-90154326D01*
X95601800Y-90167105D01*
X95601801Y-90167105D01*
X95601803Y-90167106D01*
X95601805Y-90167106D01*
X95692197Y-90167106D01*
X95692199Y-90167106D01*
X95775714Y-90132513D01*
X95839633Y-90068594D01*
X95874226Y-89985079D01*
X95874226Y-89954799D01*
X106610275Y-89954799D01*
X106610275Y-90045200D01*
X106619966Y-90068595D01*
X106644868Y-90128713D01*
X106708787Y-90192632D01*
X106761450Y-90214445D01*
X106792299Y-90227224D01*
X106792300Y-90227224D01*
X106792302Y-90227225D01*
X106792304Y-90227225D01*
X106882696Y-90227225D01*
X106882698Y-90227225D01*
X106966213Y-90192632D01*
X107030132Y-90128713D01*
X107064725Y-90045198D01*
X107064725Y-89954802D01*
X107030132Y-89871287D01*
X106966213Y-89807368D01*
X106966211Y-89807367D01*
X106882700Y-89772775D01*
X106882698Y-89772775D01*
X106792302Y-89772775D01*
X106792299Y-89772775D01*
X106708788Y-89807367D01*
X106644867Y-89871288D01*
X106610275Y-89954799D01*
X95874226Y-89954799D01*
X95874226Y-89894683D01*
X95864535Y-89871288D01*
X95839633Y-89811169D01*
X95839632Y-89811167D01*
X95775715Y-89747250D01*
X95775714Y-89747249D01*
X95775712Y-89747248D01*
X95692201Y-89712656D01*
X95692199Y-89712656D01*
X95601803Y-89712656D01*
X95601800Y-89712656D01*
X95518289Y-89747248D01*
X95454368Y-89811169D01*
X95419776Y-89894680D01*
X65806882Y-89894680D01*
X65806882Y-89454799D01*
X114935275Y-89454799D01*
X114935275Y-89545200D01*
X114969867Y-89628711D01*
X114969868Y-89628713D01*
X115033787Y-89692632D01*
X115082129Y-89712656D01*
X115117299Y-89727224D01*
X115117300Y-89727224D01*
X115117302Y-89727225D01*
X115117304Y-89727225D01*
X115207696Y-89727225D01*
X115207698Y-89727225D01*
X115291213Y-89692632D01*
X115355132Y-89628713D01*
X115389725Y-89545198D01*
X115389725Y-89454802D01*
X115355132Y-89371287D01*
X115291213Y-89307368D01*
X115291211Y-89307367D01*
X115207700Y-89272775D01*
X115207698Y-89272775D01*
X115117302Y-89272775D01*
X115117299Y-89272775D01*
X115033788Y-89307367D01*
X114969867Y-89371288D01*
X114935275Y-89454799D01*
X65806882Y-89454799D01*
X65806882Y-88454799D01*
X93135275Y-88454799D01*
X93135275Y-88545200D01*
X93155964Y-88595146D01*
X93169868Y-88628713D01*
X93233787Y-88692632D01*
X93286450Y-88714445D01*
X93317299Y-88727224D01*
X93317300Y-88727224D01*
X93317302Y-88727225D01*
X93317304Y-88727225D01*
X93407696Y-88727225D01*
X93407698Y-88727225D01*
X93491213Y-88692632D01*
X93505188Y-88678657D01*
X104685275Y-88678657D01*
X104685275Y-88769058D01*
X104719867Y-88852569D01*
X104719868Y-88852571D01*
X104783787Y-88916490D01*
X104836450Y-88938303D01*
X104867299Y-88951082D01*
X104867300Y-88951082D01*
X104867302Y-88951083D01*
X104867304Y-88951083D01*
X104957696Y-88951083D01*
X104957698Y-88951083D01*
X105041213Y-88916490D01*
X105105132Y-88852571D01*
X105139725Y-88769056D01*
X105139725Y-88678660D01*
X105139724Y-88678657D01*
X107499400Y-88678657D01*
X107499400Y-88769058D01*
X107533992Y-88852569D01*
X107533993Y-88852571D01*
X107597912Y-88916490D01*
X107650575Y-88938303D01*
X107681424Y-88951082D01*
X107681425Y-88951082D01*
X107681427Y-88951083D01*
X107681429Y-88951083D01*
X107771821Y-88951083D01*
X107771823Y-88951083D01*
X107855338Y-88916490D01*
X107919257Y-88852571D01*
X107953850Y-88769056D01*
X107953850Y-88678660D01*
X107919257Y-88595145D01*
X107855338Y-88531226D01*
X107855336Y-88531225D01*
X107771825Y-88496633D01*
X107771823Y-88496633D01*
X107681427Y-88496633D01*
X107681424Y-88496633D01*
X107597913Y-88531225D01*
X107533992Y-88595146D01*
X107499400Y-88678657D01*
X105139724Y-88678657D01*
X105105132Y-88595145D01*
X105041213Y-88531226D01*
X105041211Y-88531225D01*
X104957700Y-88496633D01*
X104957698Y-88496633D01*
X104867302Y-88496633D01*
X104867299Y-88496633D01*
X104783788Y-88531225D01*
X104719867Y-88595146D01*
X104685275Y-88678657D01*
X93505188Y-88678657D01*
X93555132Y-88628713D01*
X93589725Y-88545198D01*
X93589725Y-88454802D01*
X93555132Y-88371287D01*
X93491213Y-88307368D01*
X93491211Y-88307367D01*
X93407700Y-88272775D01*
X93407698Y-88272775D01*
X93317302Y-88272775D01*
X93317299Y-88272775D01*
X93233788Y-88307367D01*
X93169867Y-88371288D01*
X93135275Y-88454799D01*
X65806882Y-88454799D01*
X65806882Y-87704799D01*
X81972775Y-87704799D01*
X81972775Y-87795200D01*
X82004292Y-87871287D01*
X82007368Y-87878713D01*
X82071287Y-87942632D01*
X82123950Y-87964445D01*
X82154799Y-87977224D01*
X82154800Y-87977224D01*
X82154802Y-87977225D01*
X82154804Y-87977225D01*
X82245196Y-87977225D01*
X82245198Y-87977225D01*
X82299339Y-87954799D01*
X93135275Y-87954799D01*
X93135275Y-88045200D01*
X93169867Y-88128711D01*
X93169868Y-88128713D01*
X93233787Y-88192632D01*
X93286450Y-88214445D01*
X93317299Y-88227224D01*
X93317300Y-88227224D01*
X93317302Y-88227225D01*
X93317304Y-88227225D01*
X93407696Y-88227225D01*
X93407698Y-88227225D01*
X93491213Y-88192632D01*
X93555132Y-88128713D01*
X93589725Y-88045198D01*
X93589725Y-87954802D01*
X93589724Y-87954799D01*
X106610275Y-87954799D01*
X106610275Y-88045200D01*
X106644867Y-88128711D01*
X106644868Y-88128713D01*
X106708787Y-88192632D01*
X106761450Y-88214445D01*
X106792299Y-88227224D01*
X106792300Y-88227224D01*
X106792302Y-88227225D01*
X106792304Y-88227225D01*
X106882696Y-88227225D01*
X106882698Y-88227225D01*
X106966213Y-88192632D01*
X107030132Y-88128713D01*
X107064725Y-88045198D01*
X107064725Y-87954802D01*
X107030132Y-87871287D01*
X106966213Y-87807368D01*
X106966211Y-87807367D01*
X106882700Y-87772775D01*
X106882698Y-87772775D01*
X106792302Y-87772775D01*
X106792299Y-87772775D01*
X106708788Y-87807367D01*
X106644867Y-87871288D01*
X106610275Y-87954799D01*
X93589724Y-87954799D01*
X93555132Y-87871287D01*
X93491213Y-87807368D01*
X93491211Y-87807367D01*
X93407700Y-87772775D01*
X93407698Y-87772775D01*
X93317302Y-87772775D01*
X93317299Y-87772775D01*
X93233788Y-87807367D01*
X93169867Y-87871288D01*
X93135275Y-87954799D01*
X82299339Y-87954799D01*
X82328713Y-87942632D01*
X82392632Y-87878713D01*
X82427225Y-87795198D01*
X82427225Y-87704802D01*
X82392632Y-87621287D01*
X82328713Y-87557368D01*
X82328711Y-87557367D01*
X82245200Y-87522775D01*
X82245198Y-87522775D01*
X82154802Y-87522775D01*
X82154799Y-87522775D01*
X82071288Y-87557367D01*
X82007367Y-87621288D01*
X81972775Y-87704799D01*
X65806882Y-87704799D01*
X65806882Y-86454799D01*
X87410275Y-86454799D01*
X87410275Y-86545200D01*
X87436417Y-86608311D01*
X87444868Y-86628713D01*
X87508787Y-86692632D01*
X87543050Y-86706824D01*
X87592299Y-86727224D01*
X87592300Y-86727224D01*
X87592302Y-86727225D01*
X87592304Y-86727225D01*
X87682696Y-86727225D01*
X87682698Y-86727225D01*
X87766213Y-86692632D01*
X87830132Y-86628713D01*
X87864725Y-86545198D01*
X87864725Y-86454802D01*
X87856275Y-86434403D01*
X87830132Y-86371288D01*
X87830131Y-86371286D01*
X87771859Y-86313014D01*
X102572114Y-86313014D01*
X102572114Y-86403415D01*
X102593400Y-86454802D01*
X102606707Y-86486928D01*
X102670626Y-86550847D01*
X102723289Y-86572660D01*
X102754138Y-86585439D01*
X102754139Y-86585439D01*
X102754141Y-86585440D01*
X102754143Y-86585440D01*
X102844535Y-86585440D01*
X102844537Y-86585440D01*
X102928052Y-86550847D01*
X102991971Y-86486928D01*
X103013728Y-86434402D01*
X103013729Y-86434399D01*
X115946141Y-86434399D01*
X115946141Y-86524800D01*
X115980733Y-86608311D01*
X115980734Y-86608313D01*
X116044653Y-86672232D01*
X116093901Y-86692631D01*
X116128165Y-86706824D01*
X116128166Y-86706824D01*
X116128168Y-86706825D01*
X116128170Y-86706825D01*
X116218562Y-86706825D01*
X116218564Y-86706825D01*
X116302079Y-86672232D01*
X116365998Y-86608313D01*
X116400591Y-86524798D01*
X116400591Y-86434402D01*
X116398259Y-86428773D01*
X116374448Y-86371287D01*
X116365998Y-86350887D01*
X116302079Y-86286968D01*
X116302077Y-86286967D01*
X116218566Y-86252375D01*
X116218564Y-86252375D01*
X116128168Y-86252375D01*
X116128165Y-86252375D01*
X116044654Y-86286967D01*
X115980733Y-86350888D01*
X115946141Y-86434399D01*
X103013729Y-86434399D01*
X103016060Y-86428773D01*
X103026563Y-86403415D01*
X103026564Y-86403413D01*
X103026564Y-86313017D01*
X102991971Y-86229502D01*
X102928052Y-86165583D01*
X102917203Y-86161089D01*
X102917193Y-86161085D01*
X119608547Y-86161085D01*
X119608547Y-86251486D01*
X119634035Y-86313018D01*
X119643140Y-86334999D01*
X119707059Y-86398918D01*
X119759722Y-86420731D01*
X119790571Y-86433510D01*
X119790572Y-86433510D01*
X119790574Y-86433511D01*
X119790576Y-86433511D01*
X119880968Y-86433511D01*
X119880970Y-86433511D01*
X119964485Y-86398918D01*
X120028404Y-86334999D01*
X120062997Y-86251484D01*
X120062997Y-86161088D01*
X120028404Y-86077573D01*
X119964485Y-86013654D01*
X119964483Y-86013653D01*
X119880972Y-85979061D01*
X119880970Y-85979061D01*
X119790574Y-85979061D01*
X119790571Y-85979061D01*
X119707060Y-86013653D01*
X119643139Y-86077574D01*
X119608547Y-86161085D01*
X102917193Y-86161085D01*
X102844539Y-86130990D01*
X102844537Y-86130990D01*
X102754141Y-86130990D01*
X102754138Y-86130990D01*
X102670627Y-86165582D01*
X102606706Y-86229503D01*
X102572114Y-86313014D01*
X87771859Y-86313014D01*
X87766214Y-86307369D01*
X87766213Y-86307368D01*
X87766211Y-86307367D01*
X87682700Y-86272775D01*
X87682698Y-86272775D01*
X87592302Y-86272775D01*
X87592299Y-86272775D01*
X87508788Y-86307367D01*
X87444867Y-86371288D01*
X87410275Y-86454799D01*
X65806882Y-86454799D01*
X65806882Y-83889365D01*
X79088210Y-83889365D01*
X79088210Y-83979766D01*
X79122802Y-84063277D01*
X79122803Y-84063279D01*
X79186722Y-84127198D01*
X79239385Y-84149011D01*
X79270234Y-84161790D01*
X79270235Y-84161790D01*
X79270237Y-84161791D01*
X79270239Y-84161791D01*
X79360631Y-84161791D01*
X79360633Y-84161791D01*
X79444148Y-84127198D01*
X79508067Y-84063279D01*
X79542660Y-83979764D01*
X79542660Y-83889368D01*
X79508067Y-83805853D01*
X79444148Y-83741934D01*
X79444146Y-83741933D01*
X79360635Y-83707341D01*
X79360633Y-83707341D01*
X79270237Y-83707341D01*
X79270234Y-83707341D01*
X79186723Y-83741933D01*
X79122802Y-83805854D01*
X79088210Y-83889365D01*
X65806882Y-83889365D01*
X65806882Y-82704799D01*
X90860275Y-82704799D01*
X90860275Y-82795200D01*
X90894867Y-82878711D01*
X90894868Y-82878713D01*
X90958787Y-82942632D01*
X91007986Y-82963011D01*
X91042299Y-82977224D01*
X91042300Y-82977224D01*
X91042302Y-82977225D01*
X91042304Y-82977225D01*
X91132696Y-82977225D01*
X91132698Y-82977225D01*
X91216213Y-82942632D01*
X91280132Y-82878713D01*
X91314725Y-82795198D01*
X91314725Y-82789097D01*
X94172750Y-82789097D01*
X94172750Y-82879498D01*
X94207342Y-82963009D01*
X94207343Y-82963011D01*
X94271262Y-83026930D01*
X94323925Y-83048743D01*
X94354774Y-83061522D01*
X94354775Y-83061522D01*
X94354777Y-83061523D01*
X94354779Y-83061523D01*
X94445171Y-83061523D01*
X94445173Y-83061523D01*
X94528688Y-83026930D01*
X94592607Y-82963011D01*
X94627200Y-82879496D01*
X94627200Y-82789100D01*
X94592607Y-82705585D01*
X94528688Y-82641666D01*
X94528686Y-82641665D01*
X94445175Y-82607073D01*
X94445173Y-82607073D01*
X94354777Y-82607073D01*
X94354774Y-82607073D01*
X94271263Y-82641665D01*
X94207342Y-82705586D01*
X94172750Y-82789097D01*
X91314725Y-82789097D01*
X91314725Y-82704802D01*
X91280132Y-82621287D01*
X91216213Y-82557368D01*
X91216211Y-82557367D01*
X91132700Y-82522775D01*
X91132698Y-82522775D01*
X91042302Y-82522775D01*
X91042299Y-82522775D01*
X90958788Y-82557367D01*
X90894867Y-82621288D01*
X90860275Y-82704799D01*
X65806882Y-82704799D01*
X65806882Y-82138364D01*
X89636948Y-82138364D01*
X89636948Y-82228765D01*
X89650470Y-82261409D01*
X89671541Y-82312278D01*
X89735460Y-82376197D01*
X89788123Y-82398010D01*
X89818972Y-82410789D01*
X89818973Y-82410789D01*
X89818975Y-82410790D01*
X89818977Y-82410790D01*
X89909369Y-82410790D01*
X89909371Y-82410790D01*
X89992886Y-82376197D01*
X90024163Y-82344920D01*
X91681031Y-82344920D01*
X91681031Y-82435321D01*
X91715623Y-82518832D01*
X91715624Y-82518834D01*
X91779543Y-82582753D01*
X91832206Y-82604566D01*
X91863055Y-82617345D01*
X91863056Y-82617345D01*
X91863058Y-82617346D01*
X91863060Y-82617346D01*
X91953452Y-82617346D01*
X91953454Y-82617346D01*
X92036969Y-82582753D01*
X92100888Y-82518834D01*
X92135481Y-82435319D01*
X92135481Y-82344923D01*
X92100888Y-82261408D01*
X92036969Y-82197489D01*
X92036967Y-82197488D01*
X91953456Y-82162896D01*
X91953454Y-82162896D01*
X91863058Y-82162896D01*
X91863055Y-82162896D01*
X91779544Y-82197488D01*
X91715623Y-82261409D01*
X91681031Y-82344920D01*
X90024163Y-82344920D01*
X90056805Y-82312278D01*
X90091398Y-82228763D01*
X90091398Y-82138367D01*
X90056805Y-82054852D01*
X89992886Y-81990933D01*
X89992884Y-81990932D01*
X89909373Y-81956340D01*
X89909371Y-81956340D01*
X89818975Y-81956340D01*
X89818972Y-81956340D01*
X89735461Y-81990932D01*
X89671540Y-82054853D01*
X89636948Y-82138364D01*
X65806882Y-82138364D01*
X65806882Y-80354799D01*
X84832775Y-80354799D01*
X84832775Y-80445200D01*
X84867367Y-80528711D01*
X84867368Y-80528713D01*
X84931287Y-80592632D01*
X84983950Y-80614445D01*
X85014799Y-80627224D01*
X85014800Y-80627224D01*
X85014802Y-80627225D01*
X85014804Y-80627225D01*
X85105196Y-80627225D01*
X85105198Y-80627225D01*
X85188713Y-80592632D01*
X85252632Y-80528713D01*
X85287225Y-80445198D01*
X85287225Y-80354802D01*
X85252632Y-80271287D01*
X85188713Y-80207368D01*
X85188711Y-80207367D01*
X85105200Y-80172775D01*
X85105198Y-80172775D01*
X85014802Y-80172775D01*
X85014799Y-80172775D01*
X84931288Y-80207367D01*
X84867367Y-80271288D01*
X84832775Y-80354799D01*
X65806882Y-80354799D01*
X65806882Y-66693591D01*
X87220670Y-66693591D01*
X87220670Y-66783992D01*
X87255262Y-66867503D01*
X87255263Y-66867505D01*
X87319182Y-66931424D01*
X87371845Y-66953237D01*
X87402694Y-66966016D01*
X87402695Y-66966016D01*
X87402697Y-66966017D01*
X87402699Y-66966017D01*
X87493091Y-66966017D01*
X87493093Y-66966017D01*
X87576608Y-66931424D01*
X87640527Y-66867505D01*
X87675120Y-66783990D01*
X87675120Y-66693594D01*
X87640527Y-66610079D01*
X87576608Y-66546160D01*
X87576606Y-66546159D01*
X87493095Y-66511567D01*
X87493093Y-66511567D01*
X87402697Y-66511567D01*
X87402694Y-66511567D01*
X87319183Y-66546159D01*
X87255262Y-66610080D01*
X87220670Y-66693591D01*
X65806882Y-66693591D01*
X65806882Y-62854799D01*
X74672775Y-62854799D01*
X74672775Y-62945200D01*
X74707367Y-63028711D01*
X74707368Y-63028713D01*
X74771287Y-63092632D01*
X74823950Y-63114445D01*
X74854799Y-63127224D01*
X74854800Y-63127224D01*
X74854802Y-63127225D01*
X74854804Y-63127225D01*
X74945196Y-63127225D01*
X74945198Y-63127225D01*
X75028713Y-63092632D01*
X75092632Y-63028713D01*
X75127225Y-62945198D01*
X75127225Y-62854802D01*
X75127224Y-62854799D01*
X77212775Y-62854799D01*
X77212775Y-62945200D01*
X77247367Y-63028711D01*
X77247368Y-63028713D01*
X77311287Y-63092632D01*
X77363950Y-63114445D01*
X77394799Y-63127224D01*
X77394800Y-63127224D01*
X77394802Y-63127225D01*
X77394804Y-63127225D01*
X77485196Y-63127225D01*
X77485198Y-63127225D01*
X77568713Y-63092632D01*
X77632632Y-63028713D01*
X77667225Y-62945198D01*
X77667225Y-62854802D01*
X77667224Y-62854799D01*
X89912775Y-62854799D01*
X89912775Y-62945200D01*
X89947367Y-63028711D01*
X89947368Y-63028713D01*
X90011287Y-63092632D01*
X90063950Y-63114445D01*
X90094799Y-63127224D01*
X90094800Y-63127224D01*
X90094802Y-63127225D01*
X90094804Y-63127225D01*
X90185196Y-63127225D01*
X90185198Y-63127225D01*
X90268713Y-63092632D01*
X90332632Y-63028713D01*
X90367225Y-62945198D01*
X90367225Y-62854802D01*
X90341335Y-62792299D01*
X96272775Y-62792299D01*
X96272775Y-62882700D01*
X96298662Y-62945196D01*
X96307368Y-62966213D01*
X96371287Y-63030132D01*
X96423950Y-63051945D01*
X96454799Y-63064724D01*
X96454800Y-63064724D01*
X96454802Y-63064725D01*
X96454804Y-63064725D01*
X96545196Y-63064725D01*
X96545198Y-63064725D01*
X96628713Y-63030132D01*
X96692632Y-62966213D01*
X96727225Y-62882698D01*
X96727225Y-62792302D01*
X96692632Y-62708787D01*
X96628713Y-62644868D01*
X96628711Y-62644867D01*
X96545200Y-62610275D01*
X96545198Y-62610275D01*
X96454802Y-62610275D01*
X96454799Y-62610275D01*
X96371288Y-62644867D01*
X96307367Y-62708788D01*
X96272775Y-62792299D01*
X90341335Y-62792299D01*
X90332632Y-62771287D01*
X90268713Y-62707368D01*
X90268711Y-62707367D01*
X90185200Y-62672775D01*
X90185198Y-62672775D01*
X90094802Y-62672775D01*
X90094799Y-62672775D01*
X90011288Y-62707367D01*
X89947367Y-62771288D01*
X89912775Y-62854799D01*
X77667224Y-62854799D01*
X77632632Y-62771287D01*
X77568713Y-62707368D01*
X77568711Y-62707367D01*
X77485200Y-62672775D01*
X77485198Y-62672775D01*
X77394802Y-62672775D01*
X77394799Y-62672775D01*
X77311288Y-62707367D01*
X77247367Y-62771288D01*
X77212775Y-62854799D01*
X75127224Y-62854799D01*
X75092632Y-62771287D01*
X75028713Y-62707368D01*
X75028711Y-62707367D01*
X74945200Y-62672775D01*
X74945198Y-62672775D01*
X74854802Y-62672775D01*
X74854799Y-62672775D01*
X74771288Y-62707367D01*
X74707367Y-62771288D01*
X74672775Y-62854799D01*
X65806882Y-62854799D01*
X65806882Y-60044168D01*
X77394236Y-60044168D01*
X77394236Y-60134569D01*
X77418287Y-60192632D01*
X77428829Y-60218082D01*
X77492748Y-60282001D01*
X77545411Y-60303814D01*
X77576260Y-60316593D01*
X77576261Y-60316593D01*
X77576263Y-60316594D01*
X77576265Y-60316594D01*
X77666657Y-60316594D01*
X77666659Y-60316594D01*
X77750174Y-60282001D01*
X77814093Y-60218082D01*
X77848686Y-60134567D01*
X77848686Y-60044171D01*
X77814093Y-59960656D01*
X77808236Y-59954799D01*
X79422775Y-59954799D01*
X79422775Y-60045200D01*
X79457367Y-60128711D01*
X79457368Y-60128713D01*
X79521287Y-60192632D01*
X79573950Y-60214445D01*
X79604799Y-60227224D01*
X79604800Y-60227224D01*
X79604802Y-60227225D01*
X79604804Y-60227225D01*
X79695196Y-60227225D01*
X79695198Y-60227225D01*
X79778713Y-60192632D01*
X79842632Y-60128713D01*
X79877225Y-60045198D01*
X79877225Y-59954802D01*
X79842632Y-59871287D01*
X79778713Y-59807368D01*
X79778711Y-59807367D01*
X79695200Y-59772775D01*
X79695198Y-59772775D01*
X79604802Y-59772775D01*
X79604799Y-59772775D01*
X79521288Y-59807367D01*
X79457367Y-59871288D01*
X79422775Y-59954799D01*
X77808236Y-59954799D01*
X77750174Y-59896737D01*
X77750172Y-59896736D01*
X77666661Y-59862144D01*
X77666659Y-59862144D01*
X77576263Y-59862144D01*
X77576260Y-59862144D01*
X77492749Y-59896736D01*
X77428828Y-59960657D01*
X77394236Y-60044168D01*
X65806882Y-60044168D01*
X65806882Y-59042299D01*
X82272775Y-59042299D01*
X82272775Y-59132700D01*
X82307367Y-59216211D01*
X82307368Y-59216213D01*
X82371287Y-59280132D01*
X82423950Y-59301945D01*
X82454799Y-59314724D01*
X82454800Y-59314724D01*
X82454802Y-59314725D01*
X82454804Y-59314725D01*
X82545196Y-59314725D01*
X82545198Y-59314725D01*
X82628713Y-59280132D01*
X82692632Y-59216213D01*
X82727225Y-59132698D01*
X82727225Y-59042302D01*
X82692632Y-58958787D01*
X82628713Y-58894868D01*
X82628711Y-58894867D01*
X82545200Y-58860275D01*
X82545198Y-58860275D01*
X82454802Y-58860275D01*
X82454799Y-58860275D01*
X82371288Y-58894867D01*
X82307367Y-58958788D01*
X82272775Y-59042299D01*
X65806882Y-59042299D01*
X65806882Y-58542299D01*
X88072775Y-58542299D01*
X88072775Y-58632700D01*
X88107367Y-58716211D01*
X88107368Y-58716213D01*
X88171287Y-58780132D01*
X88223950Y-58801945D01*
X88254799Y-58814724D01*
X88254800Y-58814724D01*
X88254802Y-58814725D01*
X88254804Y-58814725D01*
X88345196Y-58814725D01*
X88345198Y-58814725D01*
X88428713Y-58780132D01*
X88492632Y-58716213D01*
X88527225Y-58632698D01*
X88527225Y-58542302D01*
X88492632Y-58458787D01*
X88428713Y-58394868D01*
X88428711Y-58394867D01*
X88345200Y-58360275D01*
X88345198Y-58360275D01*
X88254802Y-58360275D01*
X88254799Y-58360275D01*
X88171288Y-58394867D01*
X88107367Y-58458788D01*
X88072775Y-58542299D01*
X65806882Y-58542299D01*
X65806882Y-57704799D01*
X107722775Y-57704799D01*
X107722775Y-57795200D01*
X107757367Y-57878711D01*
X107757368Y-57878713D01*
X107821287Y-57942632D01*
X107873950Y-57964445D01*
X107904799Y-57977224D01*
X107904800Y-57977224D01*
X107904802Y-57977225D01*
X107904804Y-57977225D01*
X107995196Y-57977225D01*
X107995198Y-57977225D01*
X108078713Y-57942632D01*
X108142632Y-57878713D01*
X108177225Y-57795198D01*
X108177225Y-57704802D01*
X108177224Y-57704799D01*
X110822775Y-57704799D01*
X110822775Y-57795200D01*
X110857367Y-57878711D01*
X110857368Y-57878713D01*
X110921287Y-57942632D01*
X110973950Y-57964445D01*
X111004799Y-57977224D01*
X111004800Y-57977224D01*
X111004802Y-57977225D01*
X111004804Y-57977225D01*
X111095196Y-57977225D01*
X111095198Y-57977225D01*
X111178713Y-57942632D01*
X111242632Y-57878713D01*
X111277225Y-57795198D01*
X111277225Y-57704802D01*
X111242632Y-57621287D01*
X111178713Y-57557368D01*
X111178711Y-57557367D01*
X111095200Y-57522775D01*
X111095198Y-57522775D01*
X111004802Y-57522775D01*
X111004799Y-57522775D01*
X110921288Y-57557367D01*
X110857367Y-57621288D01*
X110822775Y-57704799D01*
X108177224Y-57704799D01*
X108142632Y-57621287D01*
X108078713Y-57557368D01*
X108078711Y-57557367D01*
X107995200Y-57522775D01*
X107995198Y-57522775D01*
X107904802Y-57522775D01*
X107904799Y-57522775D01*
X107821288Y-57557367D01*
X107757367Y-57621288D01*
X107722775Y-57704799D01*
X65806882Y-57704799D01*
X65806882Y-56794862D01*
X84222633Y-56794862D01*
X84222633Y-56885263D01*
X84257225Y-56968774D01*
X84257226Y-56968776D01*
X84321145Y-57032695D01*
X84373808Y-57054508D01*
X84404657Y-57067287D01*
X84404658Y-57067287D01*
X84404660Y-57067288D01*
X84404662Y-57067288D01*
X84495054Y-57067288D01*
X84495056Y-57067288D01*
X84578571Y-57032695D01*
X84642490Y-56968776D01*
X84677083Y-56885261D01*
X84677083Y-56794865D01*
X84642490Y-56711350D01*
X84578571Y-56647431D01*
X84578569Y-56647430D01*
X84495058Y-56612838D01*
X84495056Y-56612838D01*
X84404660Y-56612838D01*
X84404657Y-56612838D01*
X84321146Y-56647430D01*
X84257225Y-56711351D01*
X84222633Y-56794862D01*
X65806882Y-56794862D01*
X65806882Y-56020027D01*
X77317877Y-56020027D01*
X77317877Y-56110428D01*
X77351927Y-56192631D01*
X77352470Y-56193941D01*
X77416389Y-56257860D01*
X77469052Y-56279673D01*
X77499901Y-56292452D01*
X77499902Y-56292452D01*
X77499904Y-56292453D01*
X77499906Y-56292453D01*
X77590298Y-56292453D01*
X77590300Y-56292453D01*
X77673815Y-56257860D01*
X77737734Y-56193941D01*
X77772327Y-56110426D01*
X77772327Y-56020030D01*
X77745307Y-55954799D01*
X92210275Y-55954799D01*
X92210275Y-56045200D01*
X92237292Y-56110424D01*
X92244868Y-56128713D01*
X92308787Y-56192632D01*
X92361450Y-56214445D01*
X92392299Y-56227224D01*
X92392300Y-56227224D01*
X92392302Y-56227225D01*
X92392304Y-56227225D01*
X92482696Y-56227225D01*
X92482698Y-56227225D01*
X92566213Y-56192632D01*
X92630132Y-56128713D01*
X92664725Y-56045198D01*
X92664725Y-55954802D01*
X92630132Y-55871287D01*
X92566213Y-55807368D01*
X92566211Y-55807367D01*
X92482700Y-55772775D01*
X92482698Y-55772775D01*
X92392302Y-55772775D01*
X92392299Y-55772775D01*
X92308788Y-55807367D01*
X92244867Y-55871288D01*
X92210275Y-55954799D01*
X77745307Y-55954799D01*
X77737734Y-55936515D01*
X77673815Y-55872596D01*
X77673813Y-55872595D01*
X77590302Y-55838003D01*
X77590300Y-55838003D01*
X77499904Y-55838003D01*
X77499901Y-55838003D01*
X77416390Y-55872595D01*
X77352469Y-55936516D01*
X77317877Y-56020027D01*
X65806882Y-56020027D01*
X65806882Y-54964331D01*
X77775095Y-54964331D01*
X77775095Y-55054732D01*
X77800561Y-55116211D01*
X77809688Y-55138245D01*
X77873607Y-55202164D01*
X77903930Y-55214724D01*
X77957119Y-55236756D01*
X77957120Y-55236756D01*
X77957122Y-55236757D01*
X77957124Y-55236757D01*
X78047516Y-55236757D01*
X78047518Y-55236757D01*
X78131033Y-55202164D01*
X78194952Y-55138245D01*
X78229545Y-55054730D01*
X78229545Y-54964334D01*
X78229544Y-54964331D01*
X78221797Y-54945627D01*
X78220418Y-54942299D01*
X88072775Y-54942299D01*
X88072775Y-55032700D01*
X88107367Y-55116211D01*
X88107368Y-55116213D01*
X88171287Y-55180132D01*
X88223950Y-55201945D01*
X88254799Y-55214724D01*
X88254800Y-55214724D01*
X88254802Y-55214725D01*
X88254804Y-55214725D01*
X88345196Y-55214725D01*
X88345198Y-55214725D01*
X88428713Y-55180132D01*
X88492632Y-55116213D01*
X88527225Y-55032698D01*
X88527225Y-54942302D01*
X88492632Y-54858787D01*
X88428713Y-54794868D01*
X88428711Y-54794867D01*
X88345200Y-54760275D01*
X88345198Y-54760275D01*
X88254802Y-54760275D01*
X88254799Y-54760275D01*
X88171288Y-54794867D01*
X88107367Y-54858788D01*
X88072775Y-54942299D01*
X78220418Y-54942299D01*
X78194952Y-54880820D01*
X78194951Y-54880818D01*
X78131034Y-54816901D01*
X78131033Y-54816900D01*
X78131031Y-54816899D01*
X78047520Y-54782307D01*
X78047518Y-54782307D01*
X77957122Y-54782307D01*
X77957119Y-54782307D01*
X77873608Y-54816899D01*
X77809687Y-54880820D01*
X77775095Y-54964331D01*
X65806882Y-54964331D01*
X65806882Y-54685214D01*
X89171301Y-54685214D01*
X89171301Y-54775615D01*
X89188403Y-54816901D01*
X89205894Y-54859128D01*
X89269813Y-54923047D01*
X89316292Y-54942299D01*
X89353325Y-54957639D01*
X89353326Y-54957639D01*
X89353328Y-54957640D01*
X89353330Y-54957640D01*
X89443722Y-54957640D01*
X89443724Y-54957640D01*
X89527239Y-54923047D01*
X89591158Y-54859128D01*
X89625751Y-54775613D01*
X89625751Y-54685217D01*
X89591158Y-54601702D01*
X89527239Y-54537783D01*
X89527237Y-54537782D01*
X89443726Y-54503190D01*
X89443724Y-54503190D01*
X89353328Y-54503190D01*
X89353325Y-54503190D01*
X89269814Y-54537782D01*
X89205893Y-54601703D01*
X89171301Y-54685214D01*
X65806882Y-54685214D01*
X65806882Y-54054799D01*
X74022775Y-54054799D01*
X74022775Y-54145200D01*
X74057367Y-54228711D01*
X74057368Y-54228713D01*
X74121287Y-54292632D01*
X74173950Y-54314445D01*
X74204799Y-54327224D01*
X74204800Y-54327224D01*
X74204802Y-54327225D01*
X74204804Y-54327225D01*
X74295196Y-54327225D01*
X74295198Y-54327225D01*
X74378713Y-54292632D01*
X74442632Y-54228713D01*
X74477225Y-54145198D01*
X74477225Y-54054802D01*
X74442632Y-53971287D01*
X74378886Y-53907541D01*
X108226820Y-53907541D01*
X108226820Y-53997942D01*
X108250373Y-54054802D01*
X108261413Y-54081455D01*
X108325332Y-54145374D01*
X108377995Y-54167187D01*
X108408844Y-54179966D01*
X108408845Y-54179966D01*
X108408847Y-54179967D01*
X108408849Y-54179967D01*
X108499241Y-54179967D01*
X108499243Y-54179967D01*
X108582758Y-54145374D01*
X108646677Y-54081455D01*
X108681270Y-53997940D01*
X108681270Y-53907544D01*
X108646677Y-53824029D01*
X108582758Y-53760110D01*
X108582756Y-53760109D01*
X108499245Y-53725517D01*
X108499243Y-53725517D01*
X108408847Y-53725517D01*
X108408844Y-53725517D01*
X108325333Y-53760109D01*
X108261412Y-53824030D01*
X108226820Y-53907541D01*
X74378886Y-53907541D01*
X74378713Y-53907368D01*
X74378711Y-53907367D01*
X74295200Y-53872775D01*
X74295198Y-53872775D01*
X74204802Y-53872775D01*
X74204799Y-53872775D01*
X74121288Y-53907367D01*
X74057367Y-53971288D01*
X74022775Y-54054799D01*
X65806882Y-54054799D01*
X65806882Y-52784799D01*
X74022775Y-52784799D01*
X74022775Y-52875200D01*
X74057367Y-52958711D01*
X74057368Y-52958713D01*
X74121287Y-53022632D01*
X74173950Y-53044445D01*
X74204799Y-53057224D01*
X74204800Y-53057224D01*
X74204802Y-53057225D01*
X74204804Y-53057225D01*
X74295196Y-53057225D01*
X74295198Y-53057225D01*
X74378713Y-53022632D01*
X74442632Y-52958713D01*
X74477225Y-52875198D01*
X74477225Y-52784802D01*
X74442632Y-52701287D01*
X74378713Y-52637368D01*
X74378711Y-52637367D01*
X74295200Y-52602775D01*
X74295198Y-52602775D01*
X74204802Y-52602775D01*
X74204799Y-52602775D01*
X74121288Y-52637367D01*
X74057367Y-52701288D01*
X74022775Y-52784799D01*
X65806882Y-52784799D01*
X65806882Y-52454799D01*
X113822775Y-52454799D01*
X113822775Y-52545200D01*
X113846624Y-52602775D01*
X113857368Y-52628713D01*
X113921287Y-52692632D01*
X113973950Y-52714445D01*
X114004799Y-52727224D01*
X114004800Y-52727224D01*
X114004802Y-52727225D01*
X114004804Y-52727225D01*
X114095196Y-52727225D01*
X114095198Y-52727225D01*
X114178713Y-52692632D01*
X114242632Y-52628713D01*
X114277225Y-52545198D01*
X114277225Y-52454802D01*
X114242632Y-52371287D01*
X114178713Y-52307368D01*
X114178711Y-52307367D01*
X114095200Y-52272775D01*
X114095198Y-52272775D01*
X114004802Y-52272775D01*
X114004799Y-52272775D01*
X113921288Y-52307367D01*
X113857367Y-52371288D01*
X113822775Y-52454799D01*
X65806882Y-52454799D01*
X65806882Y-51704799D01*
X109022775Y-51704799D01*
X109022775Y-51795200D01*
X109057367Y-51878711D01*
X109057368Y-51878713D01*
X109121287Y-51942632D01*
X109173950Y-51964445D01*
X109204799Y-51977224D01*
X109204800Y-51977224D01*
X109204802Y-51977225D01*
X109204804Y-51977225D01*
X109295196Y-51977225D01*
X109295198Y-51977225D01*
X109378713Y-51942632D01*
X109442632Y-51878713D01*
X109477225Y-51795198D01*
X109477225Y-51704802D01*
X109477224Y-51704799D01*
X110022775Y-51704799D01*
X110022775Y-51795200D01*
X110057367Y-51878711D01*
X110057368Y-51878713D01*
X110121287Y-51942632D01*
X110173950Y-51964445D01*
X110204799Y-51977224D01*
X110204800Y-51977224D01*
X110204802Y-51977225D01*
X110204804Y-51977225D01*
X110295196Y-51977225D01*
X110295198Y-51977225D01*
X110378713Y-51942632D01*
X110442632Y-51878713D01*
X110477225Y-51795198D01*
X110477225Y-51704802D01*
X110442632Y-51621287D01*
X110378713Y-51557368D01*
X110378711Y-51557367D01*
X110295200Y-51522775D01*
X110295198Y-51522775D01*
X110204802Y-51522775D01*
X110204799Y-51522775D01*
X110121288Y-51557367D01*
X110057367Y-51621288D01*
X110022775Y-51704799D01*
X109477224Y-51704799D01*
X109442632Y-51621287D01*
X109378713Y-51557368D01*
X109378711Y-51557367D01*
X109295200Y-51522775D01*
X109295198Y-51522775D01*
X109204802Y-51522775D01*
X109204799Y-51522775D01*
X109121288Y-51557367D01*
X109057367Y-51621288D01*
X109022775Y-51704799D01*
X65806882Y-51704799D01*
X65806882Y-48901302D01*
X92957900Y-48901302D01*
X92957900Y-49098698D01*
X92996410Y-49292302D01*
X93071949Y-49474670D01*
X93071953Y-49474678D01*
X93181617Y-49638801D01*
X93181620Y-49638805D01*
X93321194Y-49778379D01*
X93321198Y-49778382D01*
X93485321Y-49888046D01*
X93485325Y-49888048D01*
X93485328Y-49888050D01*
X93667698Y-49963590D01*
X93861302Y-50002100D01*
X93861303Y-50002100D01*
X94058697Y-50002100D01*
X94058698Y-50002100D01*
X94252302Y-49963590D01*
X94434672Y-49888050D01*
X94598802Y-49778382D01*
X94738382Y-49638802D01*
X94848050Y-49474672D01*
X94923590Y-49292302D01*
X94962100Y-49098698D01*
X94962100Y-48901302D01*
X98037900Y-48901302D01*
X98037900Y-49098698D01*
X98076410Y-49292302D01*
X98151949Y-49474670D01*
X98151953Y-49474678D01*
X98261617Y-49638801D01*
X98261620Y-49638805D01*
X98401194Y-49778379D01*
X98401198Y-49778382D01*
X98565321Y-49888046D01*
X98565325Y-49888048D01*
X98565328Y-49888050D01*
X98747698Y-49963590D01*
X98941302Y-50002100D01*
X98941303Y-50002100D01*
X99138697Y-50002100D01*
X99138698Y-50002100D01*
X99332302Y-49963590D01*
X99514672Y-49888050D01*
X99678802Y-49778382D01*
X99818382Y-49638802D01*
X99928050Y-49474672D01*
X100003590Y-49292302D01*
X100042100Y-49098698D01*
X100042100Y-48954799D01*
X106772775Y-48954799D01*
X106772775Y-49045200D01*
X106794935Y-49098697D01*
X106807368Y-49128713D01*
X106871287Y-49192632D01*
X106923950Y-49214445D01*
X106954799Y-49227224D01*
X106954800Y-49227224D01*
X106954802Y-49227225D01*
X106954804Y-49227225D01*
X107045196Y-49227225D01*
X107045198Y-49227225D01*
X107128713Y-49192632D01*
X107192632Y-49128713D01*
X107227225Y-49045198D01*
X107227225Y-48954802D01*
X107227224Y-48954799D01*
X111772775Y-48954799D01*
X111772775Y-49045200D01*
X111794935Y-49098697D01*
X111807368Y-49128713D01*
X111871287Y-49192632D01*
X111923950Y-49214445D01*
X111954799Y-49227224D01*
X111954800Y-49227224D01*
X111954802Y-49227225D01*
X111954804Y-49227225D01*
X112045196Y-49227225D01*
X112045198Y-49227225D01*
X112128713Y-49192632D01*
X112170043Y-49151302D01*
X118957900Y-49151302D01*
X118957900Y-49348697D01*
X118996410Y-49542302D01*
X119071949Y-49724670D01*
X119071953Y-49724678D01*
X119181617Y-49888801D01*
X119181620Y-49888805D01*
X119321194Y-50028379D01*
X119321198Y-50028382D01*
X119485321Y-50138046D01*
X119485325Y-50138048D01*
X119485328Y-50138050D01*
X119667698Y-50213590D01*
X119861302Y-50252100D01*
X119861303Y-50252100D01*
X120058697Y-50252100D01*
X120058698Y-50252100D01*
X120252302Y-50213590D01*
X120434672Y-50138050D01*
X120598802Y-50028382D01*
X120738382Y-49888802D01*
X120848050Y-49724672D01*
X120923590Y-49542302D01*
X120962100Y-49348698D01*
X120962100Y-49151302D01*
X124037900Y-49151302D01*
X124037900Y-49348697D01*
X124076410Y-49542302D01*
X124151949Y-49724670D01*
X124151953Y-49724678D01*
X124261617Y-49888801D01*
X124261620Y-49888805D01*
X124401194Y-50028379D01*
X124401198Y-50028382D01*
X124565321Y-50138046D01*
X124565325Y-50138048D01*
X124565328Y-50138050D01*
X124747698Y-50213590D01*
X124941302Y-50252100D01*
X124941303Y-50252100D01*
X125138697Y-50252100D01*
X125138698Y-50252100D01*
X125332302Y-50213590D01*
X125514672Y-50138050D01*
X125678802Y-50028382D01*
X125818382Y-49888802D01*
X125928050Y-49724672D01*
X126003590Y-49542302D01*
X126042100Y-49348698D01*
X126042100Y-49151302D01*
X126003590Y-48957698D01*
X125928050Y-48775328D01*
X125928048Y-48775325D01*
X125928046Y-48775321D01*
X125818382Y-48611198D01*
X125818379Y-48611194D01*
X125678805Y-48471620D01*
X125678801Y-48471617D01*
X125514678Y-48361953D01*
X125514670Y-48361949D01*
X125332302Y-48286410D01*
X125138698Y-48247900D01*
X124941302Y-48247900D01*
X124859441Y-48264183D01*
X124747697Y-48286410D01*
X124565329Y-48361949D01*
X124565321Y-48361953D01*
X124401198Y-48471617D01*
X124401194Y-48471620D01*
X124261620Y-48611194D01*
X124261617Y-48611198D01*
X124151953Y-48775321D01*
X124151949Y-48775329D01*
X124076410Y-48957697D01*
X124037900Y-49151302D01*
X120962100Y-49151302D01*
X120923590Y-48957698D01*
X120848050Y-48775328D01*
X120848048Y-48775325D01*
X120848046Y-48775321D01*
X120738382Y-48611198D01*
X120738379Y-48611194D01*
X120598805Y-48471620D01*
X120598801Y-48471617D01*
X120434678Y-48361953D01*
X120434670Y-48361949D01*
X120252302Y-48286410D01*
X120058698Y-48247900D01*
X119861302Y-48247900D01*
X119779441Y-48264183D01*
X119667697Y-48286410D01*
X119485329Y-48361949D01*
X119485321Y-48361953D01*
X119321198Y-48471617D01*
X119321194Y-48471620D01*
X119181620Y-48611194D01*
X119181617Y-48611198D01*
X119071953Y-48775321D01*
X119071949Y-48775329D01*
X118996410Y-48957697D01*
X118957900Y-49151302D01*
X112170043Y-49151302D01*
X112192632Y-49128713D01*
X112227225Y-49045198D01*
X112227225Y-48954802D01*
X112192632Y-48871287D01*
X112128713Y-48807368D01*
X112128711Y-48807367D01*
X112045200Y-48772775D01*
X112045198Y-48772775D01*
X111954802Y-48772775D01*
X111954799Y-48772775D01*
X111871288Y-48807367D01*
X111807367Y-48871288D01*
X111772775Y-48954799D01*
X107227224Y-48954799D01*
X107192632Y-48871287D01*
X107128713Y-48807368D01*
X107128711Y-48807367D01*
X107045200Y-48772775D01*
X107045198Y-48772775D01*
X106954802Y-48772775D01*
X106954799Y-48772775D01*
X106871288Y-48807367D01*
X106807367Y-48871288D01*
X106772775Y-48954799D01*
X100042100Y-48954799D01*
X100042100Y-48901302D01*
X100003590Y-48707698D01*
X99928050Y-48525328D01*
X99928048Y-48525325D01*
X99928046Y-48525321D01*
X99855645Y-48416966D01*
X99852070Y-48411615D01*
X105459425Y-48411615D01*
X105459425Y-48502016D01*
X105469082Y-48525329D01*
X105494018Y-48585529D01*
X105557937Y-48649448D01*
X105610600Y-48671261D01*
X105641449Y-48684040D01*
X105641450Y-48684040D01*
X105641452Y-48684041D01*
X105641454Y-48684041D01*
X105731846Y-48684041D01*
X105731848Y-48684041D01*
X105815363Y-48649448D01*
X105879282Y-48585529D01*
X105913875Y-48502014D01*
X105913875Y-48411618D01*
X105912588Y-48408512D01*
X105879282Y-48328104D01*
X105879281Y-48328102D01*
X105815364Y-48264185D01*
X105815363Y-48264184D01*
X105815361Y-48264183D01*
X105767258Y-48244258D01*
X105743938Y-48234598D01*
X112479621Y-48234598D01*
X112479621Y-48324999D01*
X112514213Y-48408510D01*
X112514214Y-48408512D01*
X112578133Y-48472431D01*
X112630796Y-48494244D01*
X112661645Y-48507023D01*
X112661646Y-48507023D01*
X112661648Y-48507024D01*
X112661650Y-48507024D01*
X112752042Y-48507024D01*
X112752044Y-48507024D01*
X112835559Y-48472431D01*
X112899478Y-48408512D01*
X112934071Y-48324997D01*
X112934071Y-48234601D01*
X112927435Y-48218580D01*
X112927435Y-48209626D01*
X112933767Y-48203294D01*
X112938244Y-48202403D01*
X113029121Y-48202403D01*
X113029123Y-48202403D01*
X113112638Y-48167810D01*
X113176557Y-48103891D01*
X113211150Y-48020376D01*
X113211150Y-47929980D01*
X113176557Y-47846465D01*
X113112638Y-47782546D01*
X113112636Y-47782545D01*
X113029125Y-47747953D01*
X113029123Y-47747953D01*
X112938727Y-47747953D01*
X112938724Y-47747953D01*
X112855213Y-47782545D01*
X112791292Y-47846466D01*
X112756700Y-47929977D01*
X112756700Y-48020378D01*
X112763336Y-48036397D01*
X112763336Y-48045351D01*
X112757004Y-48051683D01*
X112752527Y-48052574D01*
X112661645Y-48052574D01*
X112578134Y-48087166D01*
X112514213Y-48151087D01*
X112479621Y-48234598D01*
X105743938Y-48234598D01*
X105731850Y-48229591D01*
X105731848Y-48229591D01*
X105641452Y-48229591D01*
X105641449Y-48229591D01*
X105557938Y-48264183D01*
X105494017Y-48328104D01*
X105459425Y-48411615D01*
X99852070Y-48411615D01*
X99818382Y-48361198D01*
X99818379Y-48361194D01*
X99678805Y-48221620D01*
X99678801Y-48221617D01*
X99514678Y-48111953D01*
X99514670Y-48111949D01*
X99332302Y-48036410D01*
X99251683Y-48020374D01*
X99138698Y-47997900D01*
X98941302Y-47997900D01*
X98844500Y-48017155D01*
X98747697Y-48036410D01*
X98565329Y-48111949D01*
X98565321Y-48111953D01*
X98401198Y-48221617D01*
X98401194Y-48221620D01*
X98261620Y-48361194D01*
X98261617Y-48361198D01*
X98151953Y-48525321D01*
X98151949Y-48525329D01*
X98076410Y-48707697D01*
X98043870Y-48871287D01*
X98037900Y-48901302D01*
X94962100Y-48901302D01*
X94923590Y-48707698D01*
X94848050Y-48525328D01*
X94848048Y-48525325D01*
X94848046Y-48525321D01*
X94738382Y-48361198D01*
X94738379Y-48361194D01*
X94598805Y-48221620D01*
X94598801Y-48221617D01*
X94434678Y-48111953D01*
X94434670Y-48111949D01*
X94252302Y-48036410D01*
X94171683Y-48020374D01*
X94058698Y-47997900D01*
X93861302Y-47997900D01*
X93764500Y-48017155D01*
X93667697Y-48036410D01*
X93485329Y-48111949D01*
X93485321Y-48111953D01*
X93321198Y-48221617D01*
X93321194Y-48221620D01*
X93181620Y-48361194D01*
X93181617Y-48361198D01*
X93071953Y-48525321D01*
X93071949Y-48525329D01*
X92996410Y-48707697D01*
X92963870Y-48871287D01*
X92957900Y-48901302D01*
X65806882Y-48901302D01*
X65806882Y-46704799D01*
X108022775Y-46704799D01*
X108022775Y-46795200D01*
X108057367Y-46878711D01*
X108057368Y-46878713D01*
X108121287Y-46942632D01*
X108173950Y-46964445D01*
X108204799Y-46977224D01*
X108204800Y-46977224D01*
X108204802Y-46977225D01*
X108204804Y-46977225D01*
X108295196Y-46977225D01*
X108295198Y-46977225D01*
X108378713Y-46942632D01*
X108442632Y-46878713D01*
X108477225Y-46795198D01*
X108477225Y-46704802D01*
X108477224Y-46704799D01*
X110522775Y-46704799D01*
X110522775Y-46795200D01*
X110557367Y-46878711D01*
X110557368Y-46878713D01*
X110621287Y-46942632D01*
X110673950Y-46964445D01*
X110704799Y-46977224D01*
X110704800Y-46977224D01*
X110704802Y-46977225D01*
X110704804Y-46977225D01*
X110795196Y-46977225D01*
X110795198Y-46977225D01*
X110878713Y-46942632D01*
X110942632Y-46878713D01*
X110977225Y-46795198D01*
X110977225Y-46704802D01*
X110942632Y-46621287D01*
X110878713Y-46557368D01*
X110878711Y-46557367D01*
X110795200Y-46522775D01*
X110795198Y-46522775D01*
X110704802Y-46522775D01*
X110704799Y-46522775D01*
X110621288Y-46557367D01*
X110557367Y-46621288D01*
X110522775Y-46704799D01*
X108477224Y-46704799D01*
X108442632Y-46621287D01*
X108378713Y-46557368D01*
X108378711Y-46557367D01*
X108295200Y-46522775D01*
X108295198Y-46522775D01*
X108204802Y-46522775D01*
X108204799Y-46522775D01*
X108121288Y-46557367D01*
X108057367Y-46621288D01*
X108022775Y-46704799D01*
X65806882Y-46704799D01*
X65806882Y-43691302D01*
X70247900Y-43691302D01*
X70247900Y-43888697D01*
X70286410Y-44082302D01*
X70361949Y-44264670D01*
X70361953Y-44264678D01*
X70471617Y-44428801D01*
X70471620Y-44428805D01*
X70611194Y-44568379D01*
X70611198Y-44568382D01*
X70775321Y-44678046D01*
X70775325Y-44678048D01*
X70775328Y-44678050D01*
X70957698Y-44753590D01*
X71151302Y-44792100D01*
X71151303Y-44792100D01*
X71348697Y-44792100D01*
X71348698Y-44792100D01*
X71542302Y-44753590D01*
X71724672Y-44678050D01*
X71888802Y-44568382D01*
X72028382Y-44428802D01*
X72138050Y-44264672D01*
X72213590Y-44082302D01*
X72252100Y-43888698D01*
X72252100Y-43691302D01*
X72213590Y-43497698D01*
X72138050Y-43315328D01*
X72138048Y-43315325D01*
X72138046Y-43315321D01*
X72028382Y-43151198D01*
X72028379Y-43151194D01*
X71888805Y-43011620D01*
X71888801Y-43011617D01*
X71724678Y-42901953D01*
X71724670Y-42901949D01*
X71649288Y-42870725D01*
X71625967Y-42861065D01*
X112164522Y-42861065D01*
X112164522Y-42951466D01*
X112189439Y-43011620D01*
X112199115Y-43034979D01*
X112263034Y-43098898D01*
X112315697Y-43120711D01*
X112346546Y-43133490D01*
X112346547Y-43133490D01*
X112346549Y-43133491D01*
X112346551Y-43133491D01*
X112436943Y-43133491D01*
X112436945Y-43133491D01*
X112520460Y-43098898D01*
X112584379Y-43034979D01*
X112618972Y-42951464D01*
X112618972Y-42861068D01*
X112584379Y-42777553D01*
X112520460Y-42713634D01*
X112520458Y-42713633D01*
X112436947Y-42679041D01*
X112436945Y-42679041D01*
X112346549Y-42679041D01*
X112346546Y-42679041D01*
X112263035Y-42713633D01*
X112199114Y-42777554D01*
X112164522Y-42861065D01*
X71625967Y-42861065D01*
X71542302Y-42826410D01*
X71348698Y-42787900D01*
X71151302Y-42787900D01*
X71054500Y-42807155D01*
X70957697Y-42826410D01*
X70775329Y-42901949D01*
X70775321Y-42901953D01*
X70611198Y-43011617D01*
X70611194Y-43011620D01*
X70471620Y-43151194D01*
X70471617Y-43151198D01*
X70361953Y-43315321D01*
X70361949Y-43315329D01*
X70286410Y-43497697D01*
X70247900Y-43691302D01*
X65806882Y-43691302D01*
X65806882Y-42252649D01*
X77064626Y-42252649D01*
X77064626Y-42343050D01*
X77083960Y-42389725D01*
X77099219Y-42426563D01*
X77163138Y-42490482D01*
X77215801Y-42512295D01*
X77246650Y-42525074D01*
X77246651Y-42525074D01*
X77246653Y-42525075D01*
X77246655Y-42525075D01*
X77337047Y-42525075D01*
X77337049Y-42525075D01*
X77420564Y-42490482D01*
X77484483Y-42426563D01*
X77519076Y-42343048D01*
X77519076Y-42252652D01*
X77484483Y-42169137D01*
X77432645Y-42117299D01*
X102772775Y-42117299D01*
X102772775Y-42207700D01*
X102807367Y-42291211D01*
X102807368Y-42291213D01*
X102871287Y-42355132D01*
X102923950Y-42376945D01*
X102954799Y-42389724D01*
X102954800Y-42389724D01*
X102954802Y-42389725D01*
X102954804Y-42389725D01*
X103045196Y-42389725D01*
X103045198Y-42389725D01*
X103128713Y-42355132D01*
X103192632Y-42291213D01*
X103227225Y-42207698D01*
X103227225Y-42117302D01*
X103192632Y-42033787D01*
X103128713Y-41969868D01*
X103128711Y-41969867D01*
X103045200Y-41935275D01*
X103045198Y-41935275D01*
X102954802Y-41935275D01*
X102954799Y-41935275D01*
X102871288Y-41969867D01*
X102807367Y-42033788D01*
X102772775Y-42117299D01*
X77432645Y-42117299D01*
X77420564Y-42105218D01*
X77420562Y-42105217D01*
X77337051Y-42070625D01*
X77337049Y-42070625D01*
X77246653Y-42070625D01*
X77246650Y-42070625D01*
X77163139Y-42105217D01*
X77099218Y-42169138D01*
X77064626Y-42252649D01*
X65806882Y-42252649D01*
X65806882Y-38618856D01*
X70324600Y-38618856D01*
X70324600Y-38801143D01*
X70360162Y-38979929D01*
X70429920Y-39148339D01*
X70429924Y-39148347D01*
X70531194Y-39299907D01*
X70531197Y-39299911D01*
X70559721Y-39328435D01*
X70789814Y-39098341D01*
X70861657Y-39170184D01*
X70631564Y-39400277D01*
X70660088Y-39428802D01*
X70660092Y-39428805D01*
X70811652Y-39530075D01*
X70811660Y-39530079D01*
X70980070Y-39599837D01*
X71158857Y-39635400D01*
X71341143Y-39635400D01*
X71519929Y-39599837D01*
X71688339Y-39530079D01*
X71688347Y-39530075D01*
X71839905Y-39428807D01*
X71868435Y-39400277D01*
X71638342Y-39170184D01*
X71710184Y-39098342D01*
X71940277Y-39328435D01*
X71968807Y-39299905D01*
X72070075Y-39148347D01*
X72070079Y-39148339D01*
X72139837Y-38979929D01*
X72175400Y-38801143D01*
X72175400Y-38618856D01*
X72139837Y-38440070D01*
X72070079Y-38271660D01*
X72070075Y-38271652D01*
X71968805Y-38120092D01*
X71968802Y-38120088D01*
X71940277Y-38091564D01*
X71710184Y-38321657D01*
X71638341Y-38249814D01*
X71868435Y-38019722D01*
X71868435Y-38019721D01*
X71839911Y-37991197D01*
X71839907Y-37991194D01*
X71688347Y-37889924D01*
X71688339Y-37889920D01*
X71519929Y-37820162D01*
X71341143Y-37784600D01*
X71158857Y-37784600D01*
X70980070Y-37820162D01*
X70811660Y-37889920D01*
X70811652Y-37889924D01*
X70660092Y-37991194D01*
X70660088Y-37991197D01*
X70631564Y-38019722D01*
X70861657Y-38249815D01*
X70789815Y-38321657D01*
X70559722Y-38091564D01*
X70531197Y-38120088D01*
X70531194Y-38120092D01*
X70429924Y-38271652D01*
X70429920Y-38271660D01*
X70360162Y-38440070D01*
X70324600Y-38618856D01*
X65806882Y-38618856D01*
X65806882Y-36389945D01*
X119297900Y-36389945D01*
X119297900Y-38110053D01*
X119303824Y-38139836D01*
X119303826Y-38139842D01*
X119326389Y-38173609D01*
X119326390Y-38173610D01*
X119360163Y-38196176D01*
X119389945Y-38202100D01*
X121110054Y-38202099D01*
X121139837Y-38196176D01*
X121139840Y-38196173D01*
X121139842Y-38196173D01*
X121151248Y-38188551D01*
X121173610Y-38173610D01*
X121196176Y-38139837D01*
X121202100Y-38110055D01*
X121202099Y-36389946D01*
X121196176Y-36360163D01*
X121196174Y-36360160D01*
X121196173Y-36360157D01*
X121173610Y-36326390D01*
X121173609Y-36326389D01*
X121139837Y-36303824D01*
X121110055Y-36297900D01*
X121110054Y-36297900D01*
X119389946Y-36297900D01*
X119360163Y-36303824D01*
X119360157Y-36303826D01*
X119326390Y-36326389D01*
X119326389Y-36326390D01*
X119303824Y-36360162D01*
X119297900Y-36389945D01*
X65806882Y-36389945D01*
X65806882Y-34600729D01*
X66447900Y-34600729D01*
X66447900Y-34759270D01*
X66488931Y-34912399D01*
X66488933Y-34912402D01*
X66568200Y-35049698D01*
X66680302Y-35161800D01*
X66817598Y-35241067D01*
X66817600Y-35241067D01*
X66817601Y-35241068D01*
X66817599Y-35241068D01*
X66938370Y-35273428D01*
X66970729Y-35282099D01*
X66970730Y-35282100D01*
X66970732Y-35282100D01*
X67729270Y-35282100D01*
X67729270Y-35282099D01*
X67836908Y-35253257D01*
X67882399Y-35241068D01*
X67882399Y-35241067D01*
X67882402Y-35241067D01*
X68019698Y-35161800D01*
X68131800Y-35049698D01*
X68211067Y-34912402D01*
X68252099Y-34759270D01*
X68252100Y-34759270D01*
X68252100Y-34600729D01*
X70377900Y-34600729D01*
X70377900Y-34759270D01*
X70418931Y-34912399D01*
X70418933Y-34912402D01*
X70498200Y-35049698D01*
X70610302Y-35161800D01*
X70747598Y-35241067D01*
X70747600Y-35241067D01*
X70747601Y-35241068D01*
X70747599Y-35241068D01*
X70868370Y-35273428D01*
X70900729Y-35282099D01*
X70900730Y-35282100D01*
X70900732Y-35282100D01*
X72159270Y-35282100D01*
X72159270Y-35282099D01*
X72266908Y-35253257D01*
X72312399Y-35241068D01*
X72312399Y-35241067D01*
X72312402Y-35241067D01*
X72449698Y-35161800D01*
X72561800Y-35049698D01*
X72641067Y-34912402D01*
X72682099Y-34759270D01*
X72682100Y-34759270D01*
X72682100Y-34600729D01*
X72641068Y-34447600D01*
X72607121Y-34388802D01*
X72561800Y-34310302D01*
X72449698Y-34198200D01*
X72312402Y-34118933D01*
X72312401Y-34118932D01*
X72312398Y-34118931D01*
X72312400Y-34118931D01*
X72159271Y-34077900D01*
X72159268Y-34077900D01*
X70900732Y-34077900D01*
X70900729Y-34077900D01*
X70747600Y-34118931D01*
X70610300Y-34198201D01*
X70498201Y-34310300D01*
X70418931Y-34447600D01*
X70377900Y-34600729D01*
X68252100Y-34600729D01*
X68211068Y-34447600D01*
X68177121Y-34388802D01*
X68131800Y-34310302D01*
X68019698Y-34198200D01*
X67882402Y-34118933D01*
X67882401Y-34118932D01*
X67882398Y-34118931D01*
X67882400Y-34118931D01*
X67729271Y-34077900D01*
X67729268Y-34077900D01*
X66970732Y-34077900D01*
X66970729Y-34077900D01*
X66817600Y-34118931D01*
X66680300Y-34198201D01*
X66568201Y-34310300D01*
X66488931Y-34447600D01*
X66447900Y-34600729D01*
X65806882Y-34600729D01*
X65806882Y-33193768D01*
X70572900Y-33193768D01*
X70572900Y-33306231D01*
X70602005Y-33414851D01*
X70602007Y-33414854D01*
X70658235Y-33512245D01*
X70737755Y-33591765D01*
X70835146Y-33647993D01*
X70835148Y-33647993D01*
X70835149Y-33647994D01*
X70835147Y-33647994D01*
X70920816Y-33670949D01*
X70943768Y-33677099D01*
X70943769Y-33677100D01*
X70943771Y-33677100D01*
X71056231Y-33677100D01*
X71056231Y-33677099D01*
X71146131Y-33653010D01*
X71164851Y-33647994D01*
X71164851Y-33647993D01*
X71164854Y-33647993D01*
X71262245Y-33591765D01*
X71341765Y-33512245D01*
X71397993Y-33414854D01*
X71427099Y-33306231D01*
X71427100Y-33306231D01*
X71427100Y-33193768D01*
X71397994Y-33085148D01*
X71397993Y-33085146D01*
X71341765Y-32987755D01*
X71262245Y-32908235D01*
X71164854Y-32852007D01*
X71164853Y-32852006D01*
X71164850Y-32852005D01*
X71164852Y-32852005D01*
X71056232Y-32822900D01*
X71056229Y-32822900D01*
X70943771Y-32822900D01*
X70943768Y-32822900D01*
X70835148Y-32852005D01*
X70737753Y-32908236D01*
X70658236Y-32987753D01*
X70602005Y-33085148D01*
X70572900Y-33193768D01*
X65806882Y-33193768D01*
X65806882Y-32736478D01*
X73233506Y-32736478D01*
X73233506Y-32826879D01*
X73267206Y-32908236D01*
X73268099Y-32910392D01*
X73332018Y-32974311D01*
X73364470Y-32987753D01*
X73415530Y-33008903D01*
X73415531Y-33008903D01*
X73415533Y-33008904D01*
X73415535Y-33008904D01*
X73505927Y-33008904D01*
X73505929Y-33008904D01*
X73589444Y-32974311D01*
X73653363Y-32910392D01*
X73687956Y-32826877D01*
X73687956Y-32736481D01*
X73653363Y-32652966D01*
X73589444Y-32589047D01*
X73589442Y-32589046D01*
X73505931Y-32554454D01*
X73505929Y-32554454D01*
X73415533Y-32554454D01*
X73415530Y-32554454D01*
X73332019Y-32589046D01*
X73268098Y-32652967D01*
X73233506Y-32736478D01*
X65806882Y-32736478D01*
X65806882Y-31389945D01*
X78797900Y-31389945D01*
X78797900Y-33110053D01*
X78803824Y-33139836D01*
X78803826Y-33139842D01*
X78826389Y-33173609D01*
X78826390Y-33173610D01*
X78860163Y-33196176D01*
X78889945Y-33202100D01*
X80610054Y-33202099D01*
X80639837Y-33196176D01*
X80639840Y-33196173D01*
X80639842Y-33196173D01*
X80651248Y-33188551D01*
X80673610Y-33173610D01*
X80696176Y-33139837D01*
X80702100Y-33110055D01*
X80702100Y-32729800D01*
X82322776Y-32729800D01*
X82322776Y-32820201D01*
X82348245Y-32881687D01*
X82357369Y-32903714D01*
X82421288Y-32967633D01*
X82469862Y-32987753D01*
X82504800Y-33002225D01*
X82504801Y-33002225D01*
X82504803Y-33002226D01*
X82504805Y-33002226D01*
X82595197Y-33002226D01*
X82595199Y-33002226D01*
X82678714Y-32967633D01*
X82742633Y-32903714D01*
X82777226Y-32820199D01*
X82777226Y-32729803D01*
X82777225Y-32729800D01*
X91322774Y-32729800D01*
X91322774Y-32820201D01*
X91348243Y-32881687D01*
X91357367Y-32903714D01*
X91421286Y-32967633D01*
X91469860Y-32987753D01*
X91504798Y-33002225D01*
X91504799Y-33002225D01*
X91504801Y-33002226D01*
X91504803Y-33002226D01*
X91595195Y-33002226D01*
X91595197Y-33002226D01*
X91678712Y-32967633D01*
X91742631Y-32903714D01*
X91745205Y-32897500D01*
X101124600Y-32897500D01*
X101124600Y-33699200D01*
X101500000Y-33699200D01*
X101500000Y-33800800D01*
X101124600Y-33800800D01*
X101124600Y-34602499D01*
X101126073Y-34609911D01*
X101131686Y-34618312D01*
X101131687Y-34618313D01*
X101140088Y-34623926D01*
X101147501Y-34625400D01*
X101949200Y-34625400D01*
X101949200Y-34250000D01*
X102050800Y-34250000D01*
X102050800Y-34625400D01*
X102852499Y-34625400D01*
X102859911Y-34623926D01*
X102868312Y-34618313D01*
X102868313Y-34618312D01*
X102873926Y-34609911D01*
X102875400Y-34602499D01*
X102875400Y-33800800D01*
X102500000Y-33800800D01*
X102500000Y-33699200D01*
X102875400Y-33699200D01*
X102875400Y-33658856D01*
X106034600Y-33658856D01*
X106034600Y-33841143D01*
X106070162Y-34019929D01*
X106139920Y-34188339D01*
X106139924Y-34188347D01*
X106241194Y-34339907D01*
X106241197Y-34339911D01*
X106269721Y-34368435D01*
X106499814Y-34138341D01*
X106571657Y-34210184D01*
X106341564Y-34440277D01*
X106370088Y-34468802D01*
X106370092Y-34468805D01*
X106521652Y-34570075D01*
X106521660Y-34570079D01*
X106690070Y-34639837D01*
X106868857Y-34675400D01*
X107051143Y-34675400D01*
X107229929Y-34639837D01*
X107398339Y-34570079D01*
X107398347Y-34570075D01*
X107549905Y-34468807D01*
X107578435Y-34440277D01*
X107348342Y-34210184D01*
X107420184Y-34138342D01*
X107650277Y-34368435D01*
X107678807Y-34339905D01*
X107780075Y-34188347D01*
X107780079Y-34188339D01*
X107849837Y-34019929D01*
X107885400Y-33841143D01*
X107885400Y-33658856D01*
X107884237Y-33653010D01*
X107883897Y-33651302D01*
X111037900Y-33651302D01*
X111037900Y-33848697D01*
X111076410Y-34042302D01*
X111151949Y-34224670D01*
X111151953Y-34224678D01*
X111261617Y-34388801D01*
X111261620Y-34388805D01*
X111401194Y-34528379D01*
X111401198Y-34528382D01*
X111565321Y-34638046D01*
X111565325Y-34638048D01*
X111565328Y-34638050D01*
X111747698Y-34713590D01*
X111941302Y-34752100D01*
X111941303Y-34752100D01*
X112138697Y-34752100D01*
X112138698Y-34752100D01*
X112332302Y-34713590D01*
X112514672Y-34638050D01*
X112678802Y-34528382D01*
X112818382Y-34388802D01*
X112928050Y-34224672D01*
X113003590Y-34042302D01*
X113042100Y-33848698D01*
X113042100Y-33651302D01*
X113003590Y-33457698D01*
X112928050Y-33275328D01*
X112928048Y-33275325D01*
X112928046Y-33275321D01*
X112818382Y-33111198D01*
X112818379Y-33111194D01*
X112678805Y-32971620D01*
X112678801Y-32971617D01*
X112514678Y-32861953D01*
X112514670Y-32861949D01*
X112332302Y-32786410D01*
X112138698Y-32747900D01*
X111941302Y-32747900D01*
X111844500Y-32767155D01*
X111747697Y-32786410D01*
X111565329Y-32861949D01*
X111565321Y-32861953D01*
X111401198Y-32971617D01*
X111401194Y-32971620D01*
X111261620Y-33111194D01*
X111261617Y-33111198D01*
X111151953Y-33275321D01*
X111151949Y-33275329D01*
X111076410Y-33457697D01*
X111037900Y-33651302D01*
X107883897Y-33651302D01*
X107849837Y-33480070D01*
X107780079Y-33311660D01*
X107780075Y-33311652D01*
X107678805Y-33160092D01*
X107678802Y-33160088D01*
X107650277Y-33131564D01*
X107420184Y-33361657D01*
X107348341Y-33289814D01*
X107578435Y-33059722D01*
X107578435Y-33059721D01*
X107549911Y-33031197D01*
X107549907Y-33031194D01*
X107398347Y-32929924D01*
X107398339Y-32929920D01*
X107229929Y-32860162D01*
X107051143Y-32824600D01*
X106868857Y-32824600D01*
X106690070Y-32860162D01*
X106521660Y-32929920D01*
X106521652Y-32929924D01*
X106370092Y-33031194D01*
X106370088Y-33031197D01*
X106341564Y-33059722D01*
X106571657Y-33289815D01*
X106499815Y-33361657D01*
X106269722Y-33131564D01*
X106241197Y-33160088D01*
X106241194Y-33160092D01*
X106139924Y-33311652D01*
X106139920Y-33311660D01*
X106070162Y-33480070D01*
X106034600Y-33658856D01*
X102875400Y-33658856D01*
X102875400Y-32897500D01*
X102873926Y-32890088D01*
X102868313Y-32881687D01*
X102868312Y-32881686D01*
X102859911Y-32876073D01*
X102852499Y-32874600D01*
X102050800Y-32874600D01*
X102050800Y-33250000D01*
X101949200Y-33250000D01*
X101949200Y-32874600D01*
X101147501Y-32874600D01*
X101140088Y-32876073D01*
X101131687Y-32881686D01*
X101131686Y-32881687D01*
X101126073Y-32890088D01*
X101124600Y-32897500D01*
X91745205Y-32897500D01*
X91777224Y-32820199D01*
X91777224Y-32729803D01*
X91742631Y-32646288D01*
X91678712Y-32582369D01*
X91678710Y-32582368D01*
X91595199Y-32547776D01*
X91595197Y-32547776D01*
X91504801Y-32547776D01*
X91504798Y-32547776D01*
X91421287Y-32582368D01*
X91357366Y-32646289D01*
X91322774Y-32729800D01*
X82777225Y-32729800D01*
X82742633Y-32646288D01*
X82678714Y-32582369D01*
X82678712Y-32582368D01*
X82595201Y-32547776D01*
X82595199Y-32547776D01*
X82504803Y-32547776D01*
X82504800Y-32547776D01*
X82421289Y-32582368D01*
X82357368Y-32646289D01*
X82322776Y-32729800D01*
X80702100Y-32729800D01*
X80702099Y-31389946D01*
X80696176Y-31360163D01*
X80696174Y-31360160D01*
X80696173Y-31360157D01*
X80673610Y-31326390D01*
X80673609Y-31326389D01*
X80639837Y-31303824D01*
X80610055Y-31297900D01*
X80610054Y-31297900D01*
X78889946Y-31297900D01*
X78860163Y-31303824D01*
X78860157Y-31303826D01*
X78826390Y-31326389D01*
X78826389Y-31326390D01*
X78803824Y-31360162D01*
X78797900Y-31389945D01*
X65806882Y-31389945D01*
X65806882Y-27413768D01*
X70572900Y-27413768D01*
X70572900Y-27526231D01*
X70602005Y-27634851D01*
X70602007Y-27634854D01*
X70658235Y-27732245D01*
X70737755Y-27811765D01*
X70835146Y-27867993D01*
X70835148Y-27867993D01*
X70835149Y-27867994D01*
X70835147Y-27867994D01*
X70920816Y-27890949D01*
X70943768Y-27897099D01*
X70943769Y-27897100D01*
X70943771Y-27897100D01*
X71056231Y-27897100D01*
X71056231Y-27897099D01*
X71132583Y-27876640D01*
X71164851Y-27867994D01*
X71164851Y-27867993D01*
X71164854Y-27867993D01*
X71262245Y-27811765D01*
X71341765Y-27732245D01*
X71397993Y-27634854D01*
X71427099Y-27526231D01*
X71427100Y-27526231D01*
X71427100Y-27413768D01*
X71397994Y-27305148D01*
X71397993Y-27305146D01*
X71341765Y-27207755D01*
X71262245Y-27128235D01*
X71164854Y-27072007D01*
X71164853Y-27072006D01*
X71164850Y-27072005D01*
X71164852Y-27072005D01*
X71056232Y-27042900D01*
X71056229Y-27042900D01*
X70943771Y-27042900D01*
X70943768Y-27042900D01*
X70835148Y-27072005D01*
X70737753Y-27128236D01*
X70658236Y-27207753D01*
X70602005Y-27305148D01*
X70572900Y-27413768D01*
X65806882Y-27413768D01*
X65806882Y-25960729D01*
X66447900Y-25960729D01*
X66447900Y-26119270D01*
X66488931Y-26272399D01*
X66488933Y-26272402D01*
X66568200Y-26409698D01*
X66680302Y-26521800D01*
X66817598Y-26601067D01*
X66817600Y-26601067D01*
X66817601Y-26601068D01*
X66817599Y-26601068D01*
X66938370Y-26633428D01*
X66970729Y-26642099D01*
X66970730Y-26642100D01*
X66970732Y-26642100D01*
X67729270Y-26642100D01*
X67729270Y-26642099D01*
X67836908Y-26613257D01*
X67882399Y-26601068D01*
X67882399Y-26601067D01*
X67882402Y-26601067D01*
X68019698Y-26521800D01*
X68131800Y-26409698D01*
X68211067Y-26272402D01*
X68252099Y-26119270D01*
X68252100Y-26119270D01*
X68252100Y-25960729D01*
X70377900Y-25960729D01*
X70377900Y-26119270D01*
X70418931Y-26272399D01*
X70418933Y-26272402D01*
X70498200Y-26409698D01*
X70610302Y-26521800D01*
X70747598Y-26601067D01*
X70747600Y-26601067D01*
X70747601Y-26601068D01*
X70747599Y-26601068D01*
X70868370Y-26633428D01*
X70900729Y-26642099D01*
X70900730Y-26642100D01*
X70900732Y-26642100D01*
X72159270Y-26642100D01*
X72159270Y-26642099D01*
X72266908Y-26613257D01*
X72312399Y-26601068D01*
X72312399Y-26601067D01*
X72312402Y-26601067D01*
X72449698Y-26521800D01*
X72561800Y-26409698D01*
X72641067Y-26272402D01*
X72682099Y-26119270D01*
X72682100Y-26119270D01*
X72682100Y-25960729D01*
X72641068Y-25807600D01*
X72641067Y-25807598D01*
X72561800Y-25670302D01*
X72449698Y-25558200D01*
X72312402Y-25478933D01*
X72312401Y-25478932D01*
X72312398Y-25478931D01*
X72312400Y-25478931D01*
X72159271Y-25437900D01*
X72159268Y-25437900D01*
X70900732Y-25437900D01*
X70900729Y-25437900D01*
X70747600Y-25478931D01*
X70610300Y-25558201D01*
X70498201Y-25670300D01*
X70418931Y-25807600D01*
X70377900Y-25960729D01*
X68252100Y-25960729D01*
X68211068Y-25807600D01*
X68211067Y-25807598D01*
X68131800Y-25670302D01*
X68019698Y-25558200D01*
X67882402Y-25478933D01*
X67882401Y-25478932D01*
X67882398Y-25478931D01*
X67882400Y-25478931D01*
X67729271Y-25437900D01*
X67729268Y-25437900D01*
X66970732Y-25437900D01*
X66970729Y-25437900D01*
X66817600Y-25478931D01*
X66680300Y-25558201D01*
X66568201Y-25670300D01*
X66488931Y-25807600D01*
X66447900Y-25960729D01*
X65806882Y-25960729D01*
X65806882Y-24818582D01*
X65810309Y-24810309D01*
X65818582Y-24806882D01*
X129681419Y-24806882D01*
X129689692Y-24810309D01*
G37*
%TD.AperFunction*%
%TD*%
M02*
