%TF.GenerationSoftware,KiCad,Pcbnew,10.0.1*%
%TF.CreationDate,2026-06-08T23:39:37+02:00*%
%TF.ProjectId,Bluetooth Box V3,426c7565-746f-46f7-9468-20426f782056,rev?*%
%TF.SameCoordinates,Original*%
%TF.FileFunction,Copper,L2,Bot*%
%TF.FilePolarity,Positive*%
%FSLAX46Y46*%
G04 Gerber Fmt 4.6, Leading zero omitted, Abs format (unit mm)*
G04 Created by KiCad (PCBNEW 10.0.1) date 2026-06-08 23:39:37*
%MOMM*%
%LPD*%
G01*
G04 APERTURE LIST*
%TA.AperFunction,ComponentPad*%
%ADD10C,1.800000*%
%TD*%
%TA.AperFunction,ComponentPad*%
%ADD11R,1.700000X1.700000*%
%TD*%
%TA.AperFunction,ComponentPad*%
%ADD12O,2.100000X1.000000*%
%TD*%
%TA.AperFunction,ComponentPad*%
%ADD13O,1.600000X1.000000*%
%TD*%
%TA.AperFunction,HeatsinkPad*%
%ADD14C,0.600000*%
%TD*%
%TA.AperFunction,ViaPad*%
%ADD15C,0.250000*%
%TD*%
%TA.AperFunction,ViaPad*%
%ADD16C,0.250250*%
%TD*%
%TA.AperFunction,Conductor*%
%ADD17C,0.101702*%
%TD*%
%TA.AperFunction,Conductor*%
%ADD18C,0.106680*%
%TD*%
%TA.AperFunction,Conductor*%
%ADD19C,0.209900*%
%TD*%
G04 APERTURE END LIST*
D10*
%TO.P,J2,1,Pin_1_1*%
%TO.N,+5V*%
X71250000Y-43790000D03*
%TO.P,J2,2,Pin_2_2*%
%TO.N,GND*%
X71250000Y-38710000D03*
%TD*%
D11*
%TO.P,J10,1,Pin_1_1*%
%TO.N,+5V*%
X79750000Y-32250000D03*
%TD*%
D12*
%TO.P,J1,SH*%
%TO.N,N/C*%
X71530000Y-26040000D03*
D13*
X67350000Y-26040000D03*
D12*
X71530000Y-34680000D03*
D13*
X67350000Y-34680000D03*
%TD*%
D10*
%TO.P,J8,1,Pin_1_1*%
%TO.N,/Amplifier/LOUTP*%
X125040000Y-49250000D03*
%TO.P,J8,2,Pin_2_2*%
%TO.N,/Amplifier/LOUTN*%
X119960000Y-49250000D03*
%TD*%
D14*
%TO.P,U5,39,GND_39*%
%TO.N,GND*%
X80650000Y-74550000D03*
X82050000Y-74550000D03*
X79950000Y-73850000D03*
X81350000Y-73850000D03*
X82750000Y-73850000D03*
X80650000Y-73175000D03*
X82050000Y-73175000D03*
X79950000Y-72450000D03*
X81350000Y-72450000D03*
X82750000Y-72450000D03*
X80650000Y-71750000D03*
X82050000Y-71750000D03*
%TD*%
D11*
%TO.P,J4,1,Pin_1_1*%
%TO.N,GND*%
X102000000Y-33750000D03*
%TD*%
%TO.P,J3,1,Pin_1_1*%
%TO.N,+12V*%
X120250000Y-37250000D03*
%TD*%
D10*
%TO.P,J7,1,Pin_1_1*%
%TO.N,/Amplifier/ROUTP*%
X99040000Y-49000000D03*
%TO.P,J7,2,Pin_2_2*%
%TO.N,/Amplifier/ROUTN*%
X93960000Y-49000000D03*
%TD*%
%TO.P,J5,1,Pin_1_1*%
%TO.N,Net-(J5-Pin_1)*%
X112040000Y-33750000D03*
%TO.P,J5,2,Pin_2_2*%
%TO.N,GND*%
X106960000Y-33750000D03*
%TD*%
D15*
%TO.N,GND*%
X80300000Y-46925000D03*
X104375000Y-68025000D03*
X104150000Y-87200000D03*
X116550000Y-86150000D03*
X116450000Y-91425000D03*
X113175000Y-95350000D03*
X91675000Y-89500000D03*
D16*
%TO.N,+12V*%
X105962919Y-47943700D03*
X112989145Y-47908011D03*
X112655397Y-50374484D03*
%TO.N,/Amplifier/LOUTN*%
X115215761Y-50250000D03*
%TO.N,/EN*%
X90812901Y-32740941D03*
%TO.N,/Mute*%
X109249734Y-52386500D03*
%TO.N,GND*%
X105541927Y-42000000D03*
X106653168Y-91924796D03*
X106967280Y-51388611D03*
X109829458Y-46107115D03*
X112637194Y-47262553D03*
X114139011Y-84687782D03*
%TO.N,Net-(IC1-BSLP)*%
X112653728Y-48985046D03*
%TO.N,Net-(IC1-BSRP)*%
X106344563Y-49046151D03*
%TO.N,Net-(IC1-~{SD})*%
X107987382Y-46113911D03*
%TO.N,Net-(R26-Pad1)*%
X80909836Y-59684652D03*
X81537997Y-59329241D03*
%TO.N,Net-(SS8050-B)*%
X89257057Y-60058630D03*
X89572839Y-60629091D03*
%TO.N,Net-(U2-VINL1{slash}VIN1P)*%
X82940405Y-85711177D03*
%TO.N,Net-(U7-SELFBOOT)*%
X104836175Y-87568678D03*
%TO.N,Net-(U2-VINL1{slash}VIN1P)*%
X86658858Y-85982411D03*
%TO.N,+5V*%
X77291012Y-42298006D03*
%TO.N,GND*%
X103798884Y-52419660D03*
%TO.N,+5V*%
X73463747Y-32781385D03*
%TO.N,/BT_I2S_DATA*%
X107810283Y-90890737D03*
%TO.N,/ADAU1701/Vout0*%
X109202807Y-83588628D03*
%TO.N,GND*%
X74079054Y-41024062D03*
%TO.N,+12V*%
X106315235Y-50887896D03*
%TO.N,Net-(IC1-BSRP)*%
X106257751Y-48229278D03*
%TO.N,Net-(IC1-BSLP)*%
X112705911Y-48199327D03*
%TO.N,GND*%
X117447063Y-83456277D03*
%TO.N,Net-(U7-SELFBOOT)*%
X107804285Y-88569705D03*
%TO.N,/SDA*%
X112541142Y-91953283D03*
X95646210Y-87406267D03*
%TO.N,Net-(U7-~{RESET})*%
X107804675Y-88018739D03*
%TO.N,/BT_I2S_DATA*%
X85160745Y-79420730D03*
%TO.N,/ADAU1701/Vout0*%
X108045681Y-77180000D03*
%TO.N,GND*%
X85181296Y-92753514D03*
X88604362Y-90533798D03*
X112002783Y-93857649D03*
X99421286Y-96168695D03*
%TO.N,/ADAU1701/PLL_LF*%
X116177809Y-86544827D03*
X120283228Y-87207276D03*
%TO.N,/SCL*%
X86453459Y-81379313D03*
%TO.N,Net-(IC1-PL)*%
X112463009Y-42912368D03*
%TO.N,GND*%
X75956282Y-60084130D03*
%TO.N,Net-(Q1-E)*%
X91469666Y-55930316D03*
%TO.N,GND*%
X107208458Y-92431606D03*
%TO.N,/I2S_LRCLK*%
X95306891Y-91749548D03*
%TO.N,/ADAU1701/Vout1*%
X109783204Y-83594303D03*
%TO.N,/AUX_I2S_DATA*%
X105509567Y-90674364D03*
%TO.N,/EN*%
X85346953Y-56215017D03*
%TO.N,GND*%
X75689968Y-34937044D03*
X106592621Y-96434141D03*
X118706201Y-84401079D03*
%TO.N,/DSP_IN_SELECT*%
X85919839Y-67286879D03*
%TO.N,Net-(U7-~{RESET})*%
X102750072Y-86531979D03*
%TO.N,+1V8*%
X99362561Y-91578228D03*
X98613971Y-91635255D03*
%TO.N,/AUX_I2S_DATA*%
X94386472Y-90991824D03*
%TO.N,GND*%
X86628573Y-90993422D03*
%TO.N,/GPIO0*%
X79519493Y-84239058D03*
%TO.N,GND*%
X90399525Y-79420731D03*
X91621125Y-78074300D03*
%TO.N,/I2S_LRCLK*%
X92328967Y-91920298D03*
%TO.N,Net-(U2-VINR1{slash}VIN2P)*%
X88603438Y-86669528D03*
X83727051Y-87562327D03*
%TO.N,/SDA*%
X88690135Y-81425058D03*
%TO.N,GND*%
X114760492Y-94626786D03*
X104163766Y-91746091D03*
X104013980Y-72043731D03*
%TO.N,/SCL*%
X90343037Y-82847117D03*
%TO.N,GND*%
X107867566Y-62982955D03*
%TO.N,Net-(IC1-~{SD})*%
X103931345Y-42132908D03*
%TO.N,Net-(IC1-PL)*%
X110933650Y-45981454D03*
%TO.N,GND*%
X115201485Y-46057899D03*
X77994662Y-56809688D03*
X120468586Y-89297640D03*
%TO.N,Net-(Q1-E)*%
X89232900Y-58338867D03*
%TO.N,GND*%
X81568730Y-45956821D03*
%TO.N,/SCL*%
X113104246Y-91945732D03*
%TO.N,GND*%
X88903924Y-88413883D03*
X119034019Y-88657559D03*
%TO.N,/I2S_BCLK*%
X94329265Y-91513018D03*
X105565588Y-91299025D03*
%TO.N,GND*%
X90410715Y-66010207D03*
X87049343Y-68618434D03*
%TO.N,/GPIO0*%
X89871700Y-63879268D03*
%TO.N,GND*%
X73649956Y-79420649D03*
X73781380Y-63879306D03*
%TO.N,/SDA*%
X91098362Y-85801483D03*
%TO.N,Net-(SS8050-E)*%
X87356226Y-54887241D03*
%TO.N,/Amplifier/LOUTN*%
X113039093Y-50104078D03*
%TO.N,GND*%
X78517792Y-75942279D03*
%TO.N,/SCL*%
X99365671Y-84286486D03*
%TO.N,GND*%
X82334733Y-53743386D03*
%TO.N,/DSP_IN_SELECT*%
X114176519Y-89313647D03*
%TO.N,Net-(Q1-E)*%
X87368730Y-58557572D03*
X75478479Y-54192684D03*
%TO.N,Net-(SS8050-E)*%
X75467269Y-52870918D03*
%TO.N,/Mute*%
X97431339Y-62808997D03*
%TO.N,GND*%
X107543678Y-42526132D03*
%TO.N,/I2S_LRCLK*%
X75888024Y-66753831D03*
X105323130Y-90093186D03*
%TO.N,/EN*%
X83301992Y-32903846D03*
X89515486Y-54895322D03*
%TO.N,GND*%
X77393365Y-35440000D03*
X92370365Y-87500000D03*
X108200000Y-96768365D03*
%TO.N,/ADAU1701/Vout1*%
X111000000Y-77194380D03*
%TO.N,GND*%
X107387500Y-69680635D03*
X80300000Y-45006635D03*
X66053303Y-96003711D03*
X72683711Y-88442039D03*
X72683711Y-81428990D03*
X78654562Y-91365239D03*
X82616317Y-98328711D03*
X94931854Y-98053711D03*
X66053303Y-25053303D03*
X73066351Y-25053303D03*
X70650004Y-32041307D03*
X73758154Y-42425960D03*
X73208528Y-49623415D03*
X72762782Y-60232477D03*
X66053303Y-45856056D03*
X66053303Y-38843008D03*
X86804133Y-25053303D03*
X82538357Y-31925990D03*
X83852244Y-41688238D03*
X129446697Y-25053303D03*
X129446697Y-32066351D03*
X129446697Y-39079399D03*
X129446697Y-46092448D03*
X129446697Y-53105496D03*
X129446697Y-60118544D03*
X129446697Y-67131593D03*
X129446697Y-74144641D03*
X129446697Y-81157689D03*
X129446697Y-88170737D03*
X129446697Y-95183786D03*
X122422274Y-96489729D03*
X120076196Y-90098588D03*
X120203711Y-82881530D03*
X116760048Y-76482220D03*
X114252608Y-70204562D03*
X108537552Y-66489659D03*
X115447202Y-60458323D03*
X116803069Y-53001488D03*
X122227806Y-44881126D03*
X115291569Y-45079654D03*
X120413815Y-38453711D03*
X108328340Y-41446289D03*
X106132011Y-34695027D03*
X97064808Y-39930449D03*
X90429258Y-39019086D03*
X94418807Y-25053303D03*
X101431855Y-25053303D03*
X108444903Y-25053303D03*
X115457952Y-25053303D03*
X122471000Y-25053303D03*
X113047597Y-32997123D03*
X108825758Y-98696697D03*
X101952516Y-61924309D03*
X107699485Y-56671931D03*
X97178648Y-54025513D03*
X92219674Y-49066539D03*
X102419368Y-45057190D03*
X98139724Y-91567632D03*
X86346782Y-88690620D03*
X84946676Y-81503711D03*
X80278680Y-52244504D03*
X101058536Y-71393419D03*
X104039040Y-81446931D03*
X111345438Y-82800667D03*
X111497831Y-89767180D03*
X105238621Y-92150653D03*
X78834709Y-76300169D03*
X83567235Y-71161938D03*
X90286289Y-73607966D03*
X84741665Y-64205557D03*
X75716567Y-67201140D03*
X86411925Y-54482679D03*
X96553069Y-79164039D03*
X92276772Y-86139467D03*
X92029242Y-64584839D03*
%TD*%
%TO.N,Net-(R26-Pad1)*%
D17*
X80909836Y-59684652D02*
X81265247Y-59329241D01*
X81265247Y-59329241D02*
X81537997Y-59329241D01*
%TO.N,Net-(SS8050-B)*%
X89257057Y-60058630D02*
X89572839Y-60374411D01*
X89572839Y-60374411D02*
X89572839Y-60629091D01*
%TO.N,/SCL*%
X113104246Y-91945732D02*
X105445000Y-84286486D01*
X105445000Y-84286486D02*
X99365671Y-84286486D01*
%TO.N,Net-(U7-SELFBOOT)*%
X107804285Y-88569705D02*
X105837201Y-88569705D01*
X105837201Y-88569705D02*
X104836175Y-87568678D01*
%TO.N,/DSP_IN_SELECT*%
X114176519Y-89313647D02*
X103938073Y-79075200D01*
X103938073Y-79075200D02*
X97096142Y-79075200D01*
X97096142Y-79075200D02*
X85919839Y-67898897D01*
X85919839Y-67898897D02*
X85919839Y-67286879D01*
%TO.N,/SDA*%
X112541142Y-91953283D02*
X108262530Y-91953283D01*
X108262530Y-91953283D02*
X105933781Y-89624533D01*
X105933781Y-89624533D02*
X97864476Y-89624533D01*
X97864476Y-89624533D02*
X95646210Y-87406267D01*
%TO.N,Net-(U7-~{RESET})*%
X107804675Y-88018739D02*
X106317915Y-86531979D01*
X106317915Y-86531979D02*
X102750072Y-86531979D01*
%TO.N,/BT_I2S_DATA*%
X107810283Y-90890737D02*
X106029514Y-89109968D01*
X106029514Y-89109968D02*
X103200457Y-89109968D01*
X103200457Y-89109968D02*
X95099019Y-81008531D01*
X95099019Y-81008531D02*
X88966071Y-81008531D01*
X88966071Y-81008531D02*
X87378271Y-79420730D01*
X87378271Y-79420730D02*
X85160745Y-79420730D01*
%TO.N,/EN*%
X87426338Y-34971639D02*
X85358546Y-32903846D01*
X85358546Y-32903846D02*
X83301992Y-32903846D01*
X87426338Y-34971639D02*
X88572576Y-36117877D01*
X88572576Y-36117877D02*
X88572576Y-54422582D01*
%TO.N,+1V8*%
D18*
X99362561Y-91578228D02*
X99305534Y-91635255D01*
X99305534Y-91635255D02*
X98613971Y-91635255D01*
%TO.N,/I2S_BCLK*%
D17*
X94329265Y-91513018D02*
X94851780Y-92035533D01*
X94851780Y-92035533D02*
X101982948Y-92035533D01*
X101982948Y-92035533D02*
X102719455Y-91299025D01*
X102719455Y-91299025D02*
X105565588Y-91299025D01*
%TO.N,/AUX_I2S_DATA*%
X94386472Y-90991824D02*
X94703932Y-90674364D01*
X94703932Y-90674364D02*
X105509567Y-90674364D01*
%TO.N,/ADAU1701/Vout0*%
X108045681Y-77180000D02*
X109202807Y-78337126D01*
X109202807Y-78337126D02*
X109202807Y-83588628D01*
%TO.N,/ADAU1701/Vout1*%
X109783204Y-83594303D02*
X109783204Y-78411176D01*
X109783204Y-78411176D02*
X111000000Y-77194380D01*
%TO.N,/GPIO0*%
X89871700Y-63879268D02*
X88906773Y-63879268D01*
X88906773Y-63879268D02*
X85326722Y-67459319D01*
X85326722Y-67459319D02*
X85326722Y-78431828D01*
X85326722Y-78431828D02*
X79519493Y-84239058D01*
%TO.N,Net-(U2-VINR1{slash}VIN2P)*%
X88603438Y-86669528D02*
X87710639Y-87562327D01*
X87710639Y-87562327D02*
X83727051Y-87562327D01*
%TO.N,/SDA*%
X91098362Y-85801483D02*
X88690135Y-83393256D01*
X88690135Y-83393256D02*
X88690135Y-81425058D01*
%TO.N,Net-(U2-VINL1{slash}VIN1P)*%
X86658858Y-85982411D02*
X86387625Y-85711177D01*
X86387625Y-85711177D02*
X82940405Y-85711177D01*
%TO.N,+5V*%
D18*
X71250000Y-43790000D02*
X72156000Y-43790000D01*
X72156000Y-43790000D02*
X72458514Y-43790000D01*
X72458514Y-43790000D02*
X75799018Y-43790000D01*
X75799018Y-43790000D02*
X77291012Y-42298006D01*
%TO.N,Net-(Q1-E)*%
D17*
X87368730Y-58557572D02*
X83606048Y-58557572D01*
X83606048Y-58557572D02*
X79241161Y-54192684D01*
X79241161Y-54192684D02*
X75478479Y-54192684D01*
%TO.N,/ADAU1701/PLL_LF*%
X116177809Y-86544827D02*
X116840258Y-87207276D01*
X116840258Y-87207276D02*
X120283228Y-87207276D01*
%TO.N,Net-(SS8050-E)*%
X87356226Y-54887241D02*
X80774470Y-54887241D01*
X80774470Y-54887241D02*
X78758147Y-52870918D01*
X78758147Y-52870918D02*
X75467269Y-52870918D01*
%TO.N,/EN*%
X85346953Y-56215017D02*
X86780142Y-56215017D01*
X86780142Y-56215017D02*
X88572576Y-54422582D01*
%TO.N,/SCL*%
X90343037Y-82847117D02*
X90343037Y-82670999D01*
X90343037Y-82670999D02*
X88857434Y-81185396D01*
X88857434Y-81185396D02*
X88719467Y-81139661D01*
X88719467Y-81139661D02*
X86693110Y-81139661D01*
X86693110Y-81139661D02*
X86453459Y-81379313D01*
%TO.N,/Mute*%
X97431339Y-62808997D02*
X107853836Y-52386500D01*
X107853836Y-52386500D02*
X109249734Y-52386500D01*
%TO.N,Net-(IC1-~{SD})*%
X107987382Y-46113911D02*
X104006379Y-42132908D01*
X104006379Y-42132908D02*
X103931345Y-42132908D01*
%TO.N,Net-(IC1-PL)*%
X110933650Y-45981454D02*
X112463009Y-44452096D01*
X112463009Y-44452096D02*
X112463009Y-42912368D01*
%TO.N,Net-(IC1-BSRP)*%
X106344563Y-49046151D02*
X106257751Y-48959338D01*
X106257751Y-48959338D02*
X106257751Y-48229278D01*
%TO.N,+12V*%
D18*
X105962919Y-47943700D02*
X105962919Y-50535580D01*
X105962919Y-50535580D02*
X106315235Y-50887896D01*
%TO.N,Net-(IC1-BSLP)*%
D17*
X112705911Y-48199327D02*
X112653728Y-48251510D01*
X112653728Y-48251510D02*
X112653728Y-48985046D01*
%TO.N,/Amplifier/LOUTN*%
D19*
X113039093Y-50104078D02*
X113185015Y-50250000D01*
X113185015Y-50250000D02*
X115215761Y-50250000D01*
%TO.N,+5V*%
D18*
X73463747Y-32781385D02*
X73995131Y-32250000D01*
X73995131Y-32250000D02*
X78597486Y-32250000D01*
X78597486Y-32250000D02*
X78900000Y-32250000D01*
X78900000Y-32250000D02*
X79750000Y-32250000D01*
%TO.N,/EN*%
D17*
X89515486Y-54895322D02*
X89042746Y-54422582D01*
X89042746Y-54422582D02*
X88572576Y-54422582D01*
%TO.N,Net-(Q1-E)*%
X89232900Y-58338867D02*
X91469666Y-56102101D01*
X91469666Y-56102101D02*
X91469666Y-55930316D01*
%TO.N,/I2S_LRCLK*%
X95306891Y-91749548D02*
X96046112Y-91010327D01*
X96046112Y-91010327D02*
X105649401Y-91010327D01*
X105649401Y-91010327D02*
X105864863Y-90794865D01*
X105864863Y-90794865D02*
X105864863Y-90600965D01*
X105864863Y-90600965D02*
X105357084Y-90093186D01*
X105357084Y-90093186D02*
X105323130Y-90093186D01*
X75888024Y-66753831D02*
X79239271Y-70105077D01*
X79239271Y-70105077D02*
X79239271Y-84471296D01*
X79239271Y-84471296D02*
X85429638Y-90661663D01*
X85429638Y-90661663D02*
X88220615Y-90661663D01*
X88220615Y-90661663D02*
X89479250Y-91920298D01*
X89479250Y-91920298D02*
X92328967Y-91920298D01*
%TO.N,+12V*%
D18*
X112655397Y-50374484D02*
X112655397Y-49615236D01*
X112655397Y-49615236D02*
X112989145Y-49281488D01*
X112989145Y-49281488D02*
X112989145Y-47908011D01*
%TO.N,/EN*%
D17*
X90812901Y-32740941D02*
X89657036Y-32740941D01*
X89657036Y-32740941D02*
X87426338Y-34971639D01*
%TD*%
%TA.AperFunction,Conductor*%
%TO.N,GND*%
G36*
X102618923Y-91166705D02*
G01*
X102622350Y-91174978D01*
X102618923Y-91183251D01*
X101923020Y-91879155D01*
X101914747Y-91882582D01*
X98669458Y-91882582D01*
X98661185Y-91879155D01*
X98657758Y-91870882D01*
X98661185Y-91862609D01*
X98664981Y-91860073D01*
X98690538Y-91849486D01*
X98742684Y-91827887D01*
X98776449Y-91794122D01*
X98784722Y-91790695D01*
X99274616Y-91790695D01*
X99279408Y-91790695D01*
X99283885Y-91791586D01*
X99317360Y-91805452D01*
X99317361Y-91805452D01*
X99317363Y-91805453D01*
X99317365Y-91805453D01*
X99407757Y-91805453D01*
X99407759Y-91805453D01*
X99491274Y-91770860D01*
X99555193Y-91706941D01*
X99589786Y-91623426D01*
X99589786Y-91533030D01*
X99555193Y-91449515D01*
X99491274Y-91385596D01*
X99488160Y-91384306D01*
X99407761Y-91351003D01*
X99407759Y-91351003D01*
X99317363Y-91351003D01*
X99317360Y-91351003D01*
X99233849Y-91385595D01*
X99169928Y-91449516D01*
X99160370Y-91472592D01*
X99154038Y-91478924D01*
X99149561Y-91479815D01*
X98784722Y-91479815D01*
X98776449Y-91476388D01*
X98742685Y-91442624D01*
X98742684Y-91442623D01*
X98742682Y-91442622D01*
X98659171Y-91408030D01*
X98659169Y-91408030D01*
X98568773Y-91408030D01*
X98568770Y-91408030D01*
X98485259Y-91442622D01*
X98421338Y-91506543D01*
X98386746Y-91590054D01*
X98386746Y-91680455D01*
X98419965Y-91760651D01*
X98421339Y-91763968D01*
X98485258Y-91827887D01*
X98524496Y-91844140D01*
X98562961Y-91860073D01*
X98569293Y-91866405D01*
X98569293Y-91875359D01*
X98562961Y-91881691D01*
X98558484Y-91882582D01*
X95515243Y-91882582D01*
X95506970Y-91879155D01*
X95503543Y-91870882D01*
X95504434Y-91866405D01*
X95521762Y-91824571D01*
X95534116Y-91794746D01*
X95534116Y-91743474D01*
X95537543Y-91735201D01*
X96106039Y-91166705D01*
X96114312Y-91163278D01*
X102610650Y-91163278D01*
X102618923Y-91166705D01*
G37*
%TD.AperFunction*%
%TA.AperFunction,Conductor*%
G36*
X129689692Y-24810309D02*
G01*
X129693119Y-24818582D01*
X129693119Y-98931419D01*
X129689692Y-98939692D01*
X129681419Y-98943119D01*
X65818582Y-98943119D01*
X65810309Y-98939692D01*
X65806882Y-98931419D01*
X65806882Y-95661700D01*
X65810309Y-95653427D01*
X65818582Y-95650000D01*
X72330000Y-95650000D01*
X72330000Y-66708630D01*
X75660799Y-66708630D01*
X75660799Y-66799031D01*
X75695391Y-66882542D01*
X75695392Y-66882544D01*
X75759311Y-66946463D01*
X75811974Y-66968276D01*
X75842823Y-66981055D01*
X75842824Y-66981055D01*
X75842826Y-66981056D01*
X75894097Y-66981056D01*
X75902370Y-66984483D01*
X79082893Y-70165005D01*
X79086320Y-70173278D01*
X79086320Y-84501721D01*
X79109604Y-84557934D01*
X79109605Y-84557936D01*
X85342998Y-90791329D01*
X85382749Y-90807793D01*
X85399214Y-90814614D01*
X85399215Y-90814614D01*
X85460061Y-90814614D01*
X88152414Y-90814614D01*
X88160687Y-90818041D01*
X89392611Y-92049964D01*
X89425541Y-92063603D01*
X89448826Y-92073249D01*
X89448827Y-92073249D01*
X89509673Y-92073249D01*
X92155727Y-92073249D01*
X92164000Y-92076676D01*
X92200254Y-92112930D01*
X92252917Y-92134743D01*
X92283766Y-92147522D01*
X92283767Y-92147522D01*
X92283769Y-92147523D01*
X92283771Y-92147523D01*
X92374163Y-92147523D01*
X92374165Y-92147523D01*
X92457680Y-92112930D01*
X92521599Y-92049011D01*
X92556192Y-91965496D01*
X92556192Y-91875100D01*
X92552590Y-91866405D01*
X92534973Y-91823873D01*
X92521599Y-91791585D01*
X92457680Y-91727666D01*
X92453798Y-91726058D01*
X92374167Y-91693073D01*
X92374165Y-91693073D01*
X92283769Y-91693073D01*
X92283766Y-91693073D01*
X92200255Y-91727665D01*
X92164000Y-91763920D01*
X92155727Y-91767347D01*
X89547450Y-91767347D01*
X89539177Y-91763920D01*
X89250198Y-91474941D01*
X89243074Y-91467817D01*
X94102040Y-91467817D01*
X94102040Y-91558218D01*
X94136632Y-91641729D01*
X94136633Y-91641731D01*
X94200552Y-91705650D01*
X94231592Y-91718507D01*
X94284064Y-91740242D01*
X94284065Y-91740242D01*
X94284067Y-91740243D01*
X94335338Y-91740243D01*
X94343611Y-91743670D01*
X94765140Y-92165199D01*
X94802101Y-92180508D01*
X94802102Y-92180508D01*
X94802103Y-92180509D01*
X94821353Y-92188483D01*
X94821354Y-92188483D01*
X94821356Y-92188484D01*
X94821357Y-92188484D01*
X94821358Y-92188484D01*
X102013370Y-92188484D01*
X102013371Y-92188484D01*
X102013372Y-92188484D01*
X102032627Y-92180508D01*
X102069588Y-92165199D01*
X102779383Y-91455402D01*
X102787656Y-91451976D01*
X105392348Y-91451976D01*
X105400621Y-91455403D01*
X105436875Y-91491657D01*
X105472811Y-91506542D01*
X105520387Y-91526249D01*
X105520388Y-91526249D01*
X105520390Y-91526250D01*
X105520392Y-91526250D01*
X105610784Y-91526250D01*
X105610786Y-91526250D01*
X105694301Y-91491657D01*
X105758220Y-91427738D01*
X105792813Y-91344223D01*
X105792813Y-91253827D01*
X105758220Y-91170312D01*
X105740244Y-91152336D01*
X105736817Y-91144063D01*
X105740244Y-91135790D01*
X105856586Y-91019448D01*
X105994529Y-90881505D01*
X106011048Y-90841622D01*
X106017814Y-90825289D01*
X106017814Y-90570541D01*
X106001849Y-90531998D01*
X105994529Y-90514325D01*
X105553782Y-90073578D01*
X105550355Y-90065305D01*
X105550355Y-90047989D01*
X105550354Y-90047985D01*
X105515762Y-89964474D01*
X105515761Y-89964472D01*
X105451844Y-89900555D01*
X105451843Y-89900554D01*
X105451841Y-89900553D01*
X105368330Y-89865961D01*
X105368328Y-89865961D01*
X105277932Y-89865961D01*
X105277929Y-89865961D01*
X105194418Y-89900553D01*
X105130497Y-89964474D01*
X105095905Y-90047985D01*
X105095905Y-90138386D01*
X105130497Y-90221897D01*
X105130498Y-90221899D01*
X105194417Y-90285818D01*
X105247080Y-90307631D01*
X105277929Y-90320410D01*
X105277930Y-90320410D01*
X105277932Y-90320411D01*
X105363157Y-90320411D01*
X105371430Y-90323838D01*
X105474758Y-90427166D01*
X105478185Y-90435439D01*
X105474758Y-90443712D01*
X105466485Y-90447139D01*
X105464366Y-90447139D01*
X105380855Y-90481731D01*
X105344600Y-90517986D01*
X105336327Y-90521413D01*
X94673507Y-90521413D01*
X94665275Y-90524823D01*
X94657043Y-90528233D01*
X94617293Y-90544697D01*
X94400818Y-90761172D01*
X94392545Y-90764599D01*
X94341271Y-90764599D01*
X94257760Y-90799191D01*
X94193839Y-90863112D01*
X94159247Y-90946623D01*
X94159247Y-91037024D01*
X94192773Y-91117961D01*
X94193840Y-91120537D01*
X94257759Y-91184456D01*
X94310422Y-91206269D01*
X94341271Y-91219048D01*
X94341272Y-91219048D01*
X94341274Y-91219049D01*
X94341276Y-91219049D01*
X94431668Y-91219049D01*
X94431670Y-91219049D01*
X94515185Y-91184456D01*
X94579104Y-91120537D01*
X94613697Y-91037022D01*
X94613697Y-90985751D01*
X94617124Y-90977478D01*
X94763860Y-90830742D01*
X94772133Y-90827315D01*
X105336327Y-90827315D01*
X105344600Y-90830742D01*
X105351261Y-90837403D01*
X105354688Y-90845676D01*
X105351261Y-90853949D01*
X105342988Y-90857376D01*
X96015687Y-90857376D01*
X95959472Y-90880662D01*
X95959470Y-90880663D01*
X95321237Y-91518896D01*
X95312964Y-91522323D01*
X95261690Y-91522323D01*
X95178179Y-91556915D01*
X95114258Y-91620836D01*
X95079666Y-91704347D01*
X95079666Y-91794748D01*
X95109348Y-91866405D01*
X95109348Y-91875359D01*
X95103016Y-91881691D01*
X95098539Y-91882582D01*
X94919981Y-91882582D01*
X94911708Y-91879155D01*
X94559917Y-91527364D01*
X94556490Y-91519091D01*
X94556490Y-91467821D01*
X94556489Y-91467817D01*
X94539888Y-91427739D01*
X94521897Y-91384305D01*
X94457978Y-91320386D01*
X94457976Y-91320385D01*
X94374465Y-91285793D01*
X94374463Y-91285793D01*
X94284067Y-91285793D01*
X94284064Y-91285793D01*
X94200553Y-91320385D01*
X94136632Y-91384306D01*
X94102040Y-91467817D01*
X89243074Y-91467817D01*
X88919320Y-91144063D01*
X88307255Y-90531997D01*
X88298167Y-90528233D01*
X88267503Y-90515532D01*
X88251039Y-90508712D01*
X85497839Y-90508712D01*
X85489566Y-90505285D01*
X82501407Y-87517126D01*
X83499826Y-87517126D01*
X83499826Y-87607527D01*
X83512001Y-87636919D01*
X83534419Y-87691040D01*
X83598338Y-87754959D01*
X83613671Y-87761310D01*
X83681850Y-87789551D01*
X83681851Y-87789551D01*
X83681853Y-87789552D01*
X83681855Y-87789552D01*
X83772247Y-87789552D01*
X83772249Y-87789552D01*
X83855764Y-87754959D01*
X83892018Y-87718705D01*
X83900291Y-87715278D01*
X87741061Y-87715278D01*
X87741062Y-87715278D01*
X87741063Y-87715278D01*
X87757527Y-87708457D01*
X87797279Y-87691993D01*
X88128206Y-87361066D01*
X95418985Y-87361066D01*
X95418985Y-87451467D01*
X95448815Y-87523481D01*
X95453578Y-87534980D01*
X95517497Y-87598899D01*
X95538327Y-87607527D01*
X95601009Y-87633491D01*
X95601010Y-87633491D01*
X95601012Y-87633492D01*
X95652283Y-87633492D01*
X95660556Y-87636919D01*
X97777836Y-89754199D01*
X97817587Y-89770663D01*
X97834052Y-89777484D01*
X97834053Y-89777484D01*
X97894899Y-89777484D01*
X105865580Y-89777484D01*
X105873852Y-89780910D01*
X108175890Y-92082949D01*
X108213877Y-92098683D01*
X108213878Y-92098683D01*
X108213879Y-92098684D01*
X108232103Y-92106233D01*
X108232104Y-92106233D01*
X108232106Y-92106234D01*
X108232107Y-92106234D01*
X108292953Y-92106234D01*
X112367902Y-92106234D01*
X112376175Y-92109661D01*
X112412429Y-92145915D01*
X112458980Y-92165197D01*
X112495941Y-92180507D01*
X112495942Y-92180507D01*
X112495944Y-92180508D01*
X112495946Y-92180508D01*
X112586338Y-92180508D01*
X112586340Y-92180508D01*
X112669855Y-92145915D01*
X112733774Y-92081996D01*
X112768367Y-91998481D01*
X112768367Y-91908085D01*
X112733774Y-91824570D01*
X112733771Y-91824567D01*
X112733308Y-91823873D01*
X112731562Y-91815091D01*
X112736538Y-91807645D01*
X112745320Y-91805899D01*
X112751310Y-91809101D01*
X112873594Y-91931385D01*
X112877021Y-91939658D01*
X112877021Y-91990932D01*
X112911613Y-92074443D01*
X112911614Y-92074445D01*
X112975533Y-92138364D01*
X112997645Y-92147523D01*
X113059045Y-92172956D01*
X113059046Y-92172956D01*
X113059048Y-92172957D01*
X113059050Y-92172957D01*
X113149442Y-92172957D01*
X113149444Y-92172957D01*
X113232959Y-92138364D01*
X113296878Y-92074445D01*
X113331471Y-91990930D01*
X113331471Y-91900534D01*
X113296878Y-91817019D01*
X113232959Y-91753100D01*
X113232957Y-91753099D01*
X113149446Y-91718507D01*
X113149444Y-91718507D01*
X113098172Y-91718507D01*
X113089899Y-91715080D01*
X105531640Y-84156820D01*
X105531638Y-84156819D01*
X105487883Y-84138696D01*
X105475424Y-84133535D01*
X99538911Y-84133535D01*
X99530638Y-84130108D01*
X99494385Y-84093855D01*
X99494384Y-84093854D01*
X99494382Y-84093853D01*
X99410871Y-84059261D01*
X99410869Y-84059261D01*
X99320473Y-84059261D01*
X99320470Y-84059261D01*
X99236959Y-84093853D01*
X99173038Y-84157774D01*
X99138446Y-84241285D01*
X99138446Y-84331686D01*
X99153394Y-84367772D01*
X99173039Y-84415199D01*
X99236958Y-84479118D01*
X99254191Y-84486256D01*
X99320470Y-84513710D01*
X99320471Y-84513710D01*
X99320473Y-84513711D01*
X99320475Y-84513711D01*
X99410867Y-84513711D01*
X99410869Y-84513711D01*
X99494384Y-84479118D01*
X99530638Y-84442864D01*
X99538911Y-84439437D01*
X105376799Y-84439437D01*
X105385072Y-84442864D01*
X109089661Y-88147453D01*
X112685323Y-91743114D01*
X112688750Y-91751387D01*
X112685323Y-91759660D01*
X112677050Y-91763087D01*
X112670552Y-91761117D01*
X112669852Y-91760649D01*
X112586342Y-91726058D01*
X112586340Y-91726058D01*
X112495944Y-91726058D01*
X112495941Y-91726058D01*
X112412430Y-91760650D01*
X112376175Y-91796905D01*
X112367902Y-91800332D01*
X108330731Y-91800332D01*
X108322458Y-91796905D01*
X106020421Y-89494867D01*
X106020419Y-89494866D01*
X105980669Y-89478402D01*
X105964205Y-89471582D01*
X97932677Y-89471582D01*
X97924404Y-89468155D01*
X95876862Y-87420613D01*
X95873435Y-87412340D01*
X95873435Y-87361070D01*
X95873434Y-87361066D01*
X95838842Y-87277555D01*
X95838841Y-87277553D01*
X95774924Y-87213636D01*
X95774923Y-87213635D01*
X95774921Y-87213634D01*
X95691410Y-87179042D01*
X95691408Y-87179042D01*
X95601012Y-87179042D01*
X95601009Y-87179042D01*
X95517498Y-87213634D01*
X95453577Y-87277555D01*
X95418985Y-87361066D01*
X88128206Y-87361066D01*
X88195356Y-87293916D01*
X88589091Y-86900180D01*
X88597364Y-86896753D01*
X88648634Y-86896753D01*
X88648636Y-86896753D01*
X88732151Y-86862160D01*
X88796070Y-86798241D01*
X88830663Y-86714726D01*
X88830663Y-86624330D01*
X88796070Y-86540815D01*
X88732151Y-86476896D01*
X88732149Y-86476895D01*
X88648638Y-86442303D01*
X88648636Y-86442303D01*
X88558240Y-86442303D01*
X88558237Y-86442303D01*
X88474726Y-86476895D01*
X88410805Y-86540816D01*
X88376213Y-86624327D01*
X88376213Y-86675601D01*
X88372786Y-86683874D01*
X87650711Y-87405949D01*
X87642438Y-87409376D01*
X83900291Y-87409376D01*
X83892018Y-87405949D01*
X83855765Y-87369696D01*
X83855764Y-87369695D01*
X83841180Y-87363654D01*
X83772251Y-87335102D01*
X83772249Y-87335102D01*
X83681853Y-87335102D01*
X83681850Y-87335102D01*
X83598339Y-87369694D01*
X83534418Y-87433615D01*
X83499826Y-87517126D01*
X82501407Y-87517126D01*
X80650257Y-85665976D01*
X82713180Y-85665976D01*
X82713180Y-85756377D01*
X82747772Y-85839888D01*
X82747773Y-85839890D01*
X82811692Y-85903809D01*
X82864355Y-85925622D01*
X82895204Y-85938401D01*
X82895205Y-85938401D01*
X82895207Y-85938402D01*
X82895209Y-85938402D01*
X82985601Y-85938402D01*
X82985603Y-85938402D01*
X83069118Y-85903809D01*
X83105372Y-85867555D01*
X83113645Y-85864128D01*
X86319425Y-85864128D01*
X86327698Y-85867555D01*
X86428206Y-85968063D01*
X86431633Y-85976336D01*
X86431633Y-86027611D01*
X86466225Y-86111122D01*
X86466226Y-86111124D01*
X86530145Y-86175043D01*
X86582808Y-86196856D01*
X86613657Y-86209635D01*
X86613658Y-86209635D01*
X86613660Y-86209636D01*
X86613662Y-86209636D01*
X86704054Y-86209636D01*
X86704056Y-86209636D01*
X86787571Y-86175043D01*
X86851490Y-86111124D01*
X86886083Y-86027609D01*
X86886083Y-85937213D01*
X86883176Y-85930196D01*
X86872246Y-85903808D01*
X86851490Y-85853698D01*
X86787571Y-85789779D01*
X86781193Y-85787137D01*
X86704058Y-85755186D01*
X86704056Y-85755186D01*
X86652785Y-85755186D01*
X86644512Y-85751759D01*
X86474265Y-85581511D01*
X86474263Y-85581510D01*
X86418051Y-85558226D01*
X86418049Y-85558226D01*
X83113645Y-85558226D01*
X83105372Y-85554799D01*
X83069119Y-85518546D01*
X83069118Y-85518545D01*
X83069116Y-85518544D01*
X82985605Y-85483952D01*
X82985603Y-85483952D01*
X82895207Y-85483952D01*
X82895204Y-85483952D01*
X82811693Y-85518544D01*
X82747772Y-85582465D01*
X82713180Y-85665976D01*
X80650257Y-85665976D01*
X79470537Y-84486256D01*
X79467110Y-84477983D01*
X79470537Y-84469710D01*
X79478810Y-84466283D01*
X79564689Y-84466283D01*
X79564691Y-84466283D01*
X79648206Y-84431690D01*
X79712125Y-84367771D01*
X79746718Y-84284256D01*
X79746718Y-84232983D01*
X79750144Y-84224711D01*
X84599326Y-79375529D01*
X84933520Y-79375529D01*
X84933520Y-79465930D01*
X84968112Y-79549441D01*
X84968113Y-79549443D01*
X85032032Y-79613362D01*
X85084695Y-79635175D01*
X85115544Y-79647954D01*
X85115545Y-79647954D01*
X85115547Y-79647955D01*
X85115549Y-79647955D01*
X85205941Y-79647955D01*
X85205943Y-79647955D01*
X85289458Y-79613362D01*
X85325712Y-79577108D01*
X85333985Y-79573681D01*
X87310070Y-79573681D01*
X87318343Y-79577108D01*
X88707971Y-80966737D01*
X88711398Y-80975010D01*
X88707971Y-80983283D01*
X88699698Y-80986710D01*
X86662683Y-80986710D01*
X86606473Y-81009993D01*
X86606473Y-81009994D01*
X86606472Y-81009994D01*
X86606469Y-81009996D01*
X86467806Y-81148661D01*
X86459533Y-81152088D01*
X86408258Y-81152088D01*
X86324747Y-81186680D01*
X86260826Y-81250601D01*
X86226234Y-81334112D01*
X86226234Y-81424513D01*
X86260826Y-81508024D01*
X86260827Y-81508026D01*
X86324746Y-81571945D01*
X86368395Y-81590025D01*
X86408258Y-81606537D01*
X86408259Y-81606537D01*
X86408261Y-81606538D01*
X86408263Y-81606538D01*
X86498655Y-81606538D01*
X86498657Y-81606538D01*
X86582172Y-81571945D01*
X86646091Y-81508026D01*
X86680684Y-81424511D01*
X86680684Y-81373239D01*
X86684111Y-81364966D01*
X86753038Y-81296039D01*
X86761311Y-81292612D01*
X88481539Y-81292612D01*
X88489812Y-81296039D01*
X88493239Y-81304312D01*
X88492348Y-81308789D01*
X88462910Y-81379857D01*
X88462910Y-81470258D01*
X88497502Y-81553769D01*
X88497504Y-81553772D01*
X88533757Y-81590025D01*
X88537184Y-81598298D01*
X88537184Y-83423681D01*
X88560468Y-83479894D01*
X88560470Y-83479897D01*
X90867710Y-85787137D01*
X90871137Y-85795410D01*
X90871137Y-85846683D01*
X90894800Y-85903809D01*
X90905730Y-85930196D01*
X90969649Y-85994115D01*
X91022312Y-86015928D01*
X91053161Y-86028707D01*
X91053162Y-86028707D01*
X91053164Y-86028708D01*
X91053166Y-86028708D01*
X91143558Y-86028708D01*
X91143560Y-86028708D01*
X91227075Y-85994115D01*
X91290994Y-85930196D01*
X91325587Y-85846681D01*
X91325587Y-85756285D01*
X91290994Y-85672770D01*
X91227075Y-85608851D01*
X91227073Y-85608850D01*
X91143562Y-85574258D01*
X91143560Y-85574258D01*
X91092289Y-85574258D01*
X91084016Y-85570831D01*
X88846513Y-83333328D01*
X88843086Y-83325055D01*
X88843086Y-81598298D01*
X88846513Y-81590025D01*
X88882766Y-81553772D01*
X88882767Y-81553771D01*
X88913186Y-81480331D01*
X88919518Y-81474000D01*
X88928472Y-81474000D01*
X88932268Y-81476536D01*
X90153997Y-82698265D01*
X90157424Y-82706538D01*
X90153998Y-82714810D01*
X90150406Y-82718402D01*
X90150404Y-82718405D01*
X90115812Y-82801916D01*
X90115812Y-82892317D01*
X90150404Y-82975828D01*
X90150405Y-82975830D01*
X90214324Y-83039749D01*
X90266987Y-83061562D01*
X90297836Y-83074341D01*
X90297837Y-83074341D01*
X90297839Y-83074342D01*
X90297841Y-83074342D01*
X90388233Y-83074342D01*
X90388235Y-83074342D01*
X90471750Y-83039749D01*
X90535669Y-82975830D01*
X90570262Y-82892315D01*
X90570262Y-82801919D01*
X90535669Y-82718404D01*
X90499415Y-82682150D01*
X90495988Y-82673877D01*
X90495988Y-82640576D01*
X90495987Y-82640572D01*
X90487421Y-82619892D01*
X90472703Y-82584360D01*
X90472702Y-82584358D01*
X89069799Y-81181455D01*
X89066372Y-81173182D01*
X89069799Y-81164909D01*
X89078072Y-81161482D01*
X95030818Y-81161482D01*
X95039091Y-81164909D01*
X103113817Y-89239634D01*
X103153568Y-89256098D01*
X103170033Y-89262919D01*
X103170034Y-89262919D01*
X103230880Y-89262919D01*
X105961313Y-89262919D01*
X105969586Y-89266346D01*
X107579631Y-90876390D01*
X107583058Y-90884663D01*
X107583058Y-90935937D01*
X107601685Y-90980905D01*
X107617651Y-91019450D01*
X107681570Y-91083369D01*
X107734233Y-91105182D01*
X107765082Y-91117961D01*
X107765083Y-91117961D01*
X107765085Y-91117962D01*
X107765087Y-91117962D01*
X107855479Y-91117962D01*
X107855481Y-91117962D01*
X107938996Y-91083369D01*
X108002915Y-91019450D01*
X108037508Y-90935935D01*
X108037508Y-90845539D01*
X108002915Y-90762024D01*
X107938996Y-90698105D01*
X107938994Y-90698104D01*
X107855483Y-90663512D01*
X107855481Y-90663512D01*
X107804209Y-90663512D01*
X107795936Y-90660085D01*
X106116154Y-88980302D01*
X106116152Y-88980301D01*
X106076402Y-88963837D01*
X106059938Y-88957017D01*
X103268658Y-88957017D01*
X103260385Y-88953590D01*
X101830272Y-87523477D01*
X104608950Y-87523477D01*
X104608950Y-87613878D01*
X104640912Y-87691040D01*
X104643543Y-87697391D01*
X104707462Y-87761310D01*
X104760125Y-87783123D01*
X104790974Y-87795902D01*
X104790975Y-87795902D01*
X104790977Y-87795903D01*
X104842248Y-87795903D01*
X104850521Y-87799330D01*
X105750561Y-88699370D01*
X105806777Y-88722656D01*
X105867624Y-88722656D01*
X107631045Y-88722656D01*
X107639318Y-88726083D01*
X107675572Y-88762337D01*
X107728235Y-88784150D01*
X107759084Y-88796929D01*
X107759085Y-88796929D01*
X107759087Y-88796930D01*
X107759089Y-88796930D01*
X107849481Y-88796930D01*
X107849483Y-88796930D01*
X107932998Y-88762337D01*
X107996917Y-88698418D01*
X108031510Y-88614903D01*
X108031510Y-88524507D01*
X107996917Y-88440992D01*
X107932998Y-88377073D01*
X107932996Y-88377072D01*
X107849485Y-88342480D01*
X107849483Y-88342480D01*
X107759087Y-88342480D01*
X107759084Y-88342480D01*
X107675573Y-88377072D01*
X107639318Y-88413327D01*
X107631045Y-88416754D01*
X105905402Y-88416754D01*
X105897129Y-88413327D01*
X105066827Y-87583024D01*
X105063400Y-87574751D01*
X105063400Y-87523481D01*
X105063399Y-87523477D01*
X105028807Y-87439966D01*
X105028806Y-87439964D01*
X104964889Y-87376047D01*
X104964888Y-87376046D01*
X104949558Y-87369696D01*
X104881375Y-87341453D01*
X104881373Y-87341453D01*
X104790977Y-87341453D01*
X104790974Y-87341453D01*
X104707463Y-87376045D01*
X104643542Y-87439966D01*
X104608950Y-87523477D01*
X101830272Y-87523477D01*
X100800697Y-86493902D01*
X100793577Y-86486782D01*
X102522847Y-86486782D01*
X102522847Y-86577179D01*
X102557439Y-86660690D01*
X102557440Y-86660692D01*
X102621359Y-86724611D01*
X102652377Y-86737459D01*
X102704871Y-86759203D01*
X102704872Y-86759203D01*
X102704874Y-86759204D01*
X102704876Y-86759204D01*
X102795268Y-86759204D01*
X102795270Y-86759204D01*
X102878785Y-86724611D01*
X102915039Y-86688357D01*
X102923312Y-86684930D01*
X106249714Y-86684930D01*
X106257987Y-86688357D01*
X107574023Y-88004393D01*
X107577450Y-88012666D01*
X107577450Y-88063939D01*
X107612042Y-88147450D01*
X107612043Y-88147452D01*
X107675962Y-88211371D01*
X107728625Y-88233184D01*
X107759474Y-88245963D01*
X107759475Y-88245963D01*
X107759477Y-88245964D01*
X107759479Y-88245964D01*
X107849871Y-88245964D01*
X107849873Y-88245964D01*
X107933388Y-88211371D01*
X107997307Y-88147452D01*
X108031900Y-88063937D01*
X108031900Y-87973541D01*
X107997307Y-87890026D01*
X107933388Y-87826107D01*
X107933386Y-87826106D01*
X107849875Y-87791514D01*
X107849873Y-87791514D01*
X107798602Y-87791514D01*
X107790329Y-87788087D01*
X106404556Y-86402314D01*
X106404555Y-86402313D01*
X106364803Y-86385848D01*
X106348339Y-86379028D01*
X102923312Y-86379028D01*
X102915039Y-86375601D01*
X102878786Y-86339348D01*
X102878785Y-86339347D01*
X102878783Y-86339346D01*
X102795272Y-86304754D01*
X102795270Y-86304754D01*
X102704874Y-86304754D01*
X102704871Y-86304754D01*
X102621360Y-86339346D01*
X102557439Y-86403267D01*
X102522848Y-86486777D01*
X102522847Y-86486782D01*
X100793577Y-86486782D01*
X95185660Y-80878866D01*
X95185659Y-80878865D01*
X95145907Y-80862400D01*
X95129443Y-80855580D01*
X89034272Y-80855580D01*
X89025999Y-80852153D01*
X87464911Y-79291064D01*
X87464909Y-79291063D01*
X87425159Y-79274599D01*
X87408695Y-79267779D01*
X85333985Y-79267779D01*
X85325712Y-79264352D01*
X85289459Y-79228099D01*
X85289458Y-79228098D01*
X85273119Y-79221330D01*
X85205945Y-79193505D01*
X85205943Y-79193505D01*
X85115547Y-79193505D01*
X85115544Y-79193505D01*
X85032033Y-79228097D01*
X84968112Y-79292018D01*
X84933520Y-79375529D01*
X84599326Y-79375529D01*
X85456388Y-78518467D01*
X85479673Y-78462251D01*
X85479673Y-78401405D01*
X85479673Y-67527519D01*
X85483100Y-67519246D01*
X85573452Y-67428894D01*
X85673688Y-67328657D01*
X85681960Y-67325231D01*
X85690233Y-67328658D01*
X85692769Y-67332453D01*
X85709431Y-67372678D01*
X85727207Y-67415592D01*
X85727208Y-67415593D01*
X85763461Y-67451846D01*
X85766888Y-67460119D01*
X85766888Y-67929322D01*
X85790172Y-67985535D01*
X85790173Y-67985537D01*
X97009502Y-79204866D01*
X97049253Y-79221330D01*
X97065718Y-79228151D01*
X97065719Y-79228151D01*
X97126565Y-79228151D01*
X103869872Y-79228151D01*
X103878145Y-79231578D01*
X113945867Y-89299300D01*
X113949294Y-89307573D01*
X113949294Y-89358847D01*
X113983886Y-89442358D01*
X113983887Y-89442360D01*
X114047806Y-89506279D01*
X114100469Y-89528092D01*
X114131318Y-89540871D01*
X114131319Y-89540871D01*
X114131321Y-89540872D01*
X114131323Y-89540872D01*
X114221715Y-89540872D01*
X114221717Y-89540872D01*
X114305232Y-89506279D01*
X114369151Y-89442360D01*
X114403744Y-89358845D01*
X114403744Y-89268449D01*
X114401453Y-89262919D01*
X114369151Y-89184935D01*
X114369150Y-89184933D01*
X114305233Y-89121016D01*
X114305232Y-89121015D01*
X114305230Y-89121014D01*
X114221719Y-89086422D01*
X114221717Y-89086422D01*
X114170446Y-89086422D01*
X114162173Y-89082995D01*
X111585928Y-86506750D01*
X111578804Y-86499626D01*
X115950584Y-86499626D01*
X115950584Y-86590027D01*
X115985176Y-86673538D01*
X115985177Y-86673540D01*
X116049096Y-86737459D01*
X116101591Y-86759203D01*
X116132608Y-86772051D01*
X116132609Y-86772051D01*
X116132611Y-86772052D01*
X116183882Y-86772052D01*
X116192155Y-86775479D01*
X116710593Y-87293916D01*
X116753618Y-87336941D01*
X116809834Y-87360227D01*
X120109988Y-87360227D01*
X120118261Y-87363654D01*
X120154515Y-87399908D01*
X120177373Y-87409376D01*
X120238027Y-87434500D01*
X120238028Y-87434500D01*
X120238030Y-87434501D01*
X120238032Y-87434501D01*
X120328424Y-87434501D01*
X120328426Y-87434501D01*
X120411941Y-87399908D01*
X120475860Y-87335989D01*
X120510453Y-87252474D01*
X120510453Y-87162078D01*
X120475860Y-87078563D01*
X120411941Y-87014644D01*
X120411939Y-87014643D01*
X120328428Y-86980051D01*
X120328426Y-86980051D01*
X120238030Y-86980051D01*
X120238027Y-86980051D01*
X120154516Y-87014643D01*
X120118261Y-87050898D01*
X120109988Y-87054325D01*
X116908458Y-87054325D01*
X116900185Y-87050898D01*
X116408461Y-86559173D01*
X116405034Y-86550900D01*
X116405034Y-86499630D01*
X116405033Y-86499626D01*
X116370441Y-86416115D01*
X116370440Y-86416113D01*
X116306523Y-86352196D01*
X116306522Y-86352195D01*
X116306520Y-86352194D01*
X116223009Y-86317602D01*
X116223007Y-86317602D01*
X116132611Y-86317602D01*
X116132608Y-86317602D01*
X116049097Y-86352194D01*
X115985176Y-86416115D01*
X115950584Y-86499626D01*
X111578804Y-86499626D01*
X109091011Y-84011833D01*
X104024713Y-78945534D01*
X103984961Y-78929069D01*
X103968497Y-78922249D01*
X97164343Y-78922249D01*
X97156070Y-78918822D01*
X95372047Y-77134799D01*
X107818456Y-77134799D01*
X107818456Y-77225200D01*
X107853048Y-77308711D01*
X107853049Y-77308713D01*
X107916968Y-77372632D01*
X107969631Y-77394445D01*
X108000480Y-77407224D01*
X108000481Y-77407224D01*
X108000483Y-77407225D01*
X108051754Y-77407225D01*
X108060027Y-77410652D01*
X109046429Y-78397054D01*
X109049856Y-78405327D01*
X109049856Y-83415388D01*
X109046429Y-83423661D01*
X109010174Y-83459916D01*
X108975582Y-83543427D01*
X108975582Y-83633828D01*
X108977933Y-83639503D01*
X109010175Y-83717341D01*
X109074094Y-83781260D01*
X109087795Y-83786935D01*
X109157606Y-83815852D01*
X109157607Y-83815852D01*
X109157609Y-83815853D01*
X109157611Y-83815853D01*
X109248003Y-83815853D01*
X109248005Y-83815853D01*
X109331520Y-83781260D01*
X109395439Y-83717341D01*
X109430032Y-83633826D01*
X109430032Y-83549102D01*
X109555979Y-83549102D01*
X109555979Y-83639503D01*
X109588221Y-83717341D01*
X109590572Y-83723016D01*
X109654491Y-83786935D01*
X109707154Y-83808748D01*
X109738003Y-83821527D01*
X109738004Y-83821527D01*
X109738006Y-83821528D01*
X109738008Y-83821528D01*
X109828400Y-83821528D01*
X109828402Y-83821528D01*
X109911917Y-83786935D01*
X109975836Y-83723016D01*
X110010429Y-83639501D01*
X110010429Y-83549105D01*
X110008078Y-83543430D01*
X109981762Y-83479897D01*
X109975836Y-83465590D01*
X109939582Y-83429336D01*
X109936155Y-83421063D01*
X109936155Y-78479376D01*
X109939582Y-78471103D01*
X110985653Y-77425032D01*
X110993926Y-77421605D01*
X111045196Y-77421605D01*
X111045198Y-77421605D01*
X111128713Y-77387012D01*
X111192632Y-77323093D01*
X111227225Y-77239578D01*
X111227225Y-77149182D01*
X111221267Y-77134799D01*
X111192632Y-77065668D01*
X111192631Y-77065666D01*
X111128714Y-77001749D01*
X111128713Y-77001748D01*
X111128711Y-77001747D01*
X111045200Y-76967155D01*
X111045198Y-76967155D01*
X110954802Y-76967155D01*
X110954799Y-76967155D01*
X110871288Y-77001747D01*
X110807367Y-77065668D01*
X110772775Y-77149179D01*
X110772775Y-77200453D01*
X110769348Y-77208726D01*
X109653537Y-78324537D01*
X109644984Y-78345188D01*
X109630253Y-78380749D01*
X109630253Y-83421063D01*
X109626826Y-83429336D01*
X109590571Y-83465591D01*
X109555979Y-83549102D01*
X109430032Y-83549102D01*
X109430032Y-83543430D01*
X109395439Y-83459915D01*
X109359185Y-83423661D01*
X109355758Y-83415388D01*
X109355758Y-78306703D01*
X109355758Y-78306702D01*
X109348937Y-78290237D01*
X109332473Y-78250486D01*
X108276333Y-77194346D01*
X108272906Y-77186073D01*
X108272906Y-77134803D01*
X108272905Y-77134799D01*
X108260126Y-77103950D01*
X108238313Y-77051287D01*
X108174394Y-76987368D01*
X108174392Y-76987367D01*
X108090881Y-76952775D01*
X108090879Y-76952775D01*
X108000483Y-76952775D01*
X108000480Y-76952775D01*
X107916969Y-76987367D01*
X107853048Y-77051288D01*
X107818456Y-77134799D01*
X95372047Y-77134799D01*
X86076217Y-67838969D01*
X86072790Y-67830696D01*
X86072790Y-67460119D01*
X86076217Y-67451846D01*
X86112470Y-67415593D01*
X86112471Y-67415592D01*
X86147064Y-67332077D01*
X86147064Y-67241681D01*
X86112471Y-67158166D01*
X86048552Y-67094247D01*
X85965414Y-67059810D01*
X85959082Y-67053478D01*
X85959082Y-67044524D01*
X85961615Y-67040730D01*
X88966700Y-64035645D01*
X88974973Y-64032219D01*
X89698460Y-64032219D01*
X89706733Y-64035646D01*
X89742987Y-64071900D01*
X89795650Y-64093713D01*
X89826499Y-64106492D01*
X89826500Y-64106492D01*
X89826502Y-64106493D01*
X89826504Y-64106493D01*
X89916896Y-64106493D01*
X89916898Y-64106493D01*
X90000413Y-64071900D01*
X90064332Y-64007981D01*
X90098925Y-63924466D01*
X90098925Y-63834070D01*
X90064332Y-63750555D01*
X90000413Y-63686636D01*
X90000411Y-63686635D01*
X89916900Y-63652043D01*
X89916898Y-63652043D01*
X89826502Y-63652043D01*
X89826499Y-63652043D01*
X89742988Y-63686635D01*
X89706733Y-63722890D01*
X89698460Y-63726317D01*
X88876348Y-63726317D01*
X88864706Y-63731139D01*
X88853064Y-63735962D01*
X88820135Y-63749601D01*
X88820132Y-63749603D01*
X85197056Y-67372678D01*
X85197055Y-67372680D01*
X85180591Y-67412430D01*
X85179281Y-67415593D01*
X85173771Y-67428894D01*
X85173771Y-78363628D01*
X85170344Y-78371901D01*
X79533839Y-84008406D01*
X79525566Y-84011833D01*
X79474292Y-84011833D01*
X79408399Y-84039127D01*
X79399445Y-84039127D01*
X79393113Y-84032795D01*
X79392222Y-84028318D01*
X79392222Y-70074654D01*
X79392222Y-70074653D01*
X79385401Y-70058188D01*
X79368937Y-70018437D01*
X76118676Y-66768176D01*
X76115249Y-66759903D01*
X76115249Y-66708634D01*
X76115248Y-66708630D01*
X76080656Y-66625119D01*
X76080655Y-66625117D01*
X76016738Y-66561200D01*
X76016737Y-66561199D01*
X76016735Y-66561198D01*
X75933224Y-66526606D01*
X75933222Y-66526606D01*
X75842826Y-66526606D01*
X75842823Y-66526606D01*
X75759312Y-66561198D01*
X75695391Y-66625119D01*
X75660799Y-66708630D01*
X72330000Y-66708630D01*
X72330000Y-62763796D01*
X97204114Y-62763796D01*
X97204114Y-62854197D01*
X97238706Y-62937708D01*
X97238707Y-62937710D01*
X97302626Y-63001629D01*
X97355289Y-63023442D01*
X97386138Y-63036221D01*
X97386139Y-63036221D01*
X97386141Y-63036222D01*
X97386143Y-63036222D01*
X97476535Y-63036222D01*
X97476537Y-63036222D01*
X97560052Y-63001629D01*
X97623971Y-62937710D01*
X97658564Y-62854195D01*
X97658564Y-62802923D01*
X97661991Y-62794650D01*
X107913763Y-52542878D01*
X107922036Y-52539451D01*
X109076494Y-52539451D01*
X109084767Y-52542878D01*
X109121021Y-52579132D01*
X109173684Y-52600945D01*
X109204533Y-52613724D01*
X109204534Y-52613724D01*
X109204536Y-52613725D01*
X109204538Y-52613725D01*
X109294930Y-52613725D01*
X109294932Y-52613725D01*
X109378447Y-52579132D01*
X109442366Y-52515213D01*
X109476959Y-52431698D01*
X109476959Y-52341302D01*
X109442366Y-52257787D01*
X109378447Y-52193868D01*
X109378445Y-52193867D01*
X109294934Y-52159275D01*
X109294932Y-52159275D01*
X109204536Y-52159275D01*
X109204533Y-52159275D01*
X109121022Y-52193867D01*
X109084767Y-52230122D01*
X109076494Y-52233549D01*
X107823411Y-52233549D01*
X107811769Y-52238371D01*
X107800127Y-52243194D01*
X107767198Y-52256833D01*
X107767195Y-52256835D01*
X97445685Y-62578345D01*
X97437412Y-62581772D01*
X97386138Y-62581772D01*
X97302627Y-62616364D01*
X97238706Y-62680285D01*
X97204114Y-62763796D01*
X72330000Y-62763796D01*
X72330000Y-60013429D01*
X89029832Y-60013429D01*
X89029832Y-60103830D01*
X89064424Y-60187341D01*
X89064425Y-60187343D01*
X89128344Y-60251262D01*
X89181007Y-60273075D01*
X89211856Y-60285854D01*
X89211857Y-60285854D01*
X89211859Y-60285855D01*
X89263130Y-60285855D01*
X89271403Y-60289282D01*
X89416461Y-60434339D01*
X89419888Y-60442612D01*
X89419888Y-60455851D01*
X89416461Y-60464124D01*
X89380206Y-60500379D01*
X89345614Y-60583890D01*
X89345614Y-60674291D01*
X89380206Y-60757802D01*
X89380207Y-60757804D01*
X89444126Y-60821723D01*
X89496789Y-60843536D01*
X89527638Y-60856315D01*
X89527639Y-60856315D01*
X89527641Y-60856316D01*
X89527643Y-60856316D01*
X89618035Y-60856316D01*
X89618037Y-60856316D01*
X89701552Y-60821723D01*
X89765471Y-60757804D01*
X89800064Y-60674289D01*
X89800064Y-60583893D01*
X89765471Y-60500378D01*
X89729217Y-60464124D01*
X89725790Y-60455851D01*
X89725790Y-60343988D01*
X89725790Y-60343987D01*
X89702504Y-60287771D01*
X89659479Y-60244746D01*
X89659478Y-60244745D01*
X89487709Y-60072976D01*
X89484282Y-60064703D01*
X89484282Y-60013433D01*
X89484281Y-60013429D01*
X89449689Y-59929918D01*
X89449688Y-59929916D01*
X89385771Y-59865999D01*
X89385770Y-59865998D01*
X89385768Y-59865997D01*
X89302257Y-59831405D01*
X89302255Y-59831405D01*
X89211859Y-59831405D01*
X89211856Y-59831405D01*
X89128345Y-59865997D01*
X89064424Y-59929918D01*
X89029832Y-60013429D01*
X72330000Y-60013429D01*
X72330000Y-59639451D01*
X80682611Y-59639451D01*
X80682611Y-59729852D01*
X80717203Y-59813363D01*
X80717204Y-59813365D01*
X80781123Y-59877284D01*
X80833786Y-59899097D01*
X80864635Y-59911876D01*
X80864636Y-59911876D01*
X80864638Y-59911877D01*
X80864640Y-59911877D01*
X80955032Y-59911877D01*
X80955034Y-59911877D01*
X81038549Y-59877284D01*
X81102468Y-59813365D01*
X81137061Y-59729850D01*
X81137061Y-59678579D01*
X81140488Y-59670306D01*
X81325175Y-59485619D01*
X81333448Y-59482192D01*
X81364757Y-59482192D01*
X81373030Y-59485619D01*
X81409284Y-59521873D01*
X81461947Y-59543686D01*
X81492796Y-59556465D01*
X81492797Y-59556465D01*
X81492799Y-59556466D01*
X81492801Y-59556466D01*
X81583193Y-59556466D01*
X81583195Y-59556466D01*
X81666710Y-59521873D01*
X81730629Y-59457954D01*
X81765222Y-59374439D01*
X81765222Y-59284043D01*
X81730629Y-59200528D01*
X81666710Y-59136609D01*
X81666708Y-59136608D01*
X81583197Y-59102016D01*
X81583195Y-59102016D01*
X81492799Y-59102016D01*
X81492796Y-59102016D01*
X81409285Y-59136608D01*
X81373030Y-59172863D01*
X81364757Y-59176290D01*
X81234822Y-59176290D01*
X81226590Y-59179700D01*
X81218358Y-59183110D01*
X81178608Y-59199574D01*
X80924182Y-59454000D01*
X80915909Y-59457427D01*
X80864635Y-59457427D01*
X80781124Y-59492019D01*
X80717203Y-59555940D01*
X80682611Y-59639451D01*
X72330000Y-59639451D01*
X72330000Y-54147483D01*
X75251254Y-54147483D01*
X75251254Y-54237884D01*
X75285846Y-54321395D01*
X75285847Y-54321397D01*
X75349766Y-54385316D01*
X75402429Y-54407129D01*
X75433278Y-54419908D01*
X75433279Y-54419908D01*
X75433281Y-54419909D01*
X75433283Y-54419909D01*
X75523675Y-54419909D01*
X75523677Y-54419909D01*
X75607192Y-54385316D01*
X75643446Y-54349062D01*
X75651719Y-54345635D01*
X79172960Y-54345635D01*
X79181232Y-54349061D01*
X83519408Y-58687238D01*
X83559159Y-58703702D01*
X83575624Y-58710523D01*
X83575625Y-58710523D01*
X83636471Y-58710523D01*
X87195490Y-58710523D01*
X87203763Y-58713950D01*
X87240017Y-58750204D01*
X87292680Y-58772017D01*
X87323529Y-58784796D01*
X87323530Y-58784796D01*
X87323532Y-58784797D01*
X87323534Y-58784797D01*
X87413926Y-58784797D01*
X87413928Y-58784797D01*
X87497443Y-58750204D01*
X87561362Y-58686285D01*
X87595955Y-58602770D01*
X87595955Y-58512374D01*
X87561362Y-58428859D01*
X87497443Y-58364940D01*
X87497441Y-58364939D01*
X87413930Y-58330347D01*
X87413928Y-58330347D01*
X87323532Y-58330347D01*
X87323529Y-58330347D01*
X87240018Y-58364939D01*
X87203763Y-58401194D01*
X87195490Y-58404621D01*
X83674249Y-58404621D01*
X83665976Y-58401194D01*
X83565572Y-58300790D01*
X83558448Y-58293666D01*
X89005675Y-58293666D01*
X89005675Y-58384067D01*
X89040267Y-58467578D01*
X89040268Y-58467580D01*
X89104187Y-58531499D01*
X89156850Y-58553312D01*
X89187699Y-58566091D01*
X89187700Y-58566091D01*
X89187702Y-58566092D01*
X89187704Y-58566092D01*
X89278096Y-58566092D01*
X89278098Y-58566092D01*
X89361613Y-58531499D01*
X89425532Y-58467580D01*
X89460125Y-58384065D01*
X89460125Y-58332794D01*
X89463552Y-58324521D01*
X91599331Y-56188742D01*
X91599332Y-56188741D01*
X91622617Y-56132524D01*
X91622617Y-56103556D01*
X91626044Y-56095283D01*
X91662297Y-56059030D01*
X91662298Y-56059029D01*
X91696891Y-55975514D01*
X91696891Y-55885118D01*
X91662298Y-55801603D01*
X91598379Y-55737684D01*
X91598377Y-55737683D01*
X91514866Y-55703091D01*
X91514864Y-55703091D01*
X91424468Y-55703091D01*
X91424465Y-55703091D01*
X91340954Y-55737683D01*
X91277033Y-55801604D01*
X91242441Y-55885115D01*
X91242441Y-55975516D01*
X91277033Y-56059027D01*
X91277035Y-56059030D01*
X91278460Y-56060455D01*
X91281887Y-56068728D01*
X91278460Y-56077001D01*
X89247246Y-58108215D01*
X89238973Y-58111642D01*
X89187699Y-58111642D01*
X89104188Y-58146234D01*
X89040267Y-58210155D01*
X89005675Y-58293666D01*
X83558448Y-58293666D01*
X81453524Y-56188742D01*
X79327801Y-54063018D01*
X79288049Y-54046553D01*
X79271585Y-54039733D01*
X75651719Y-54039733D01*
X75643446Y-54036306D01*
X75607193Y-54000053D01*
X75607192Y-54000052D01*
X75607190Y-54000051D01*
X75523679Y-53965459D01*
X75523677Y-53965459D01*
X75433281Y-53965459D01*
X75433278Y-53965459D01*
X75349767Y-54000051D01*
X75285846Y-54063972D01*
X75251254Y-54147483D01*
X72330000Y-54147483D01*
X72330000Y-52825717D01*
X75240044Y-52825717D01*
X75240044Y-52916118D01*
X75274636Y-52999629D01*
X75274637Y-52999631D01*
X75338556Y-53063550D01*
X75391219Y-53085363D01*
X75422068Y-53098142D01*
X75422069Y-53098142D01*
X75422071Y-53098143D01*
X75422073Y-53098143D01*
X75512465Y-53098143D01*
X75512467Y-53098143D01*
X75595982Y-53063550D01*
X75632236Y-53027296D01*
X75640509Y-53023869D01*
X78689946Y-53023869D01*
X78698219Y-53027296D01*
X79707230Y-54036306D01*
X80644805Y-54973881D01*
X80687830Y-55016906D01*
X80744046Y-55040192D01*
X87182986Y-55040192D01*
X87191259Y-55043619D01*
X87227513Y-55079873D01*
X87280176Y-55101686D01*
X87311025Y-55114465D01*
X87311026Y-55114465D01*
X87311028Y-55114466D01*
X87311030Y-55114466D01*
X87401422Y-55114466D01*
X87401424Y-55114466D01*
X87484939Y-55079873D01*
X87548858Y-55015954D01*
X87583451Y-54932439D01*
X87583451Y-54842043D01*
X87548858Y-54758528D01*
X87484939Y-54694609D01*
X87484937Y-54694608D01*
X87401426Y-54660016D01*
X87401424Y-54660016D01*
X87311028Y-54660016D01*
X87311025Y-54660016D01*
X87227514Y-54694608D01*
X87191259Y-54730863D01*
X87182986Y-54734290D01*
X80842670Y-54734290D01*
X80834397Y-54730863D01*
X78844787Y-52741252D01*
X78844785Y-52741251D01*
X78805035Y-52724787D01*
X78788571Y-52717967D01*
X75640509Y-52717967D01*
X75632236Y-52714540D01*
X75595983Y-52678287D01*
X75595982Y-52678286D01*
X75595980Y-52678285D01*
X75512469Y-52643693D01*
X75512467Y-52643693D01*
X75422071Y-52643693D01*
X75422068Y-52643693D01*
X75338557Y-52678285D01*
X75274636Y-52742206D01*
X75240044Y-52825717D01*
X72330000Y-52825717D01*
X72330000Y-47650000D01*
X65818582Y-47650000D01*
X65810309Y-47646573D01*
X65806882Y-47638300D01*
X65806882Y-43691302D01*
X70247900Y-43691302D01*
X70247900Y-43888698D01*
X70259187Y-43945440D01*
X70286410Y-44082302D01*
X70361949Y-44264670D01*
X70361953Y-44264678D01*
X70471617Y-44428801D01*
X70471620Y-44428805D01*
X70611194Y-44568379D01*
X70611198Y-44568382D01*
X70775321Y-44678046D01*
X70775325Y-44678048D01*
X70775328Y-44678050D01*
X70957698Y-44753590D01*
X71151302Y-44792100D01*
X71151303Y-44792100D01*
X71348697Y-44792100D01*
X71348698Y-44792100D01*
X71542302Y-44753590D01*
X71724672Y-44678050D01*
X71888802Y-44568382D01*
X72028382Y-44428802D01*
X72138050Y-44264672D01*
X72213590Y-44082302D01*
X72238940Y-43954857D01*
X72243915Y-43947412D01*
X72250415Y-43945440D01*
X75829935Y-43945440D01*
X75829936Y-43945440D01*
X75829937Y-43945440D01*
X75846669Y-43938508D01*
X75887068Y-43921776D01*
X77280186Y-42528658D01*
X77288459Y-42525231D01*
X77336208Y-42525231D01*
X77336210Y-42525231D01*
X77419725Y-42490638D01*
X77483644Y-42426719D01*
X77518237Y-42343204D01*
X77518237Y-42252808D01*
X77483644Y-42169293D01*
X77419725Y-42105374D01*
X77419723Y-42105373D01*
X77336212Y-42070781D01*
X77336210Y-42070781D01*
X77245814Y-42070781D01*
X77245811Y-42070781D01*
X77162300Y-42105373D01*
X77098379Y-42169294D01*
X77063787Y-42252805D01*
X77063787Y-42300559D01*
X77060360Y-42308832D01*
X75738059Y-43631133D01*
X75729786Y-43634560D01*
X72250415Y-43634560D01*
X72242142Y-43631133D01*
X72238940Y-43625143D01*
X72235630Y-43608502D01*
X72213590Y-43497698D01*
X72138050Y-43315328D01*
X72138048Y-43315325D01*
X72138046Y-43315321D01*
X72028382Y-43151198D01*
X72028379Y-43151194D01*
X71888805Y-43011620D01*
X71888801Y-43011617D01*
X71724678Y-42901953D01*
X71724670Y-42901949D01*
X71542302Y-42826410D01*
X71348698Y-42787900D01*
X71151302Y-42787900D01*
X71054500Y-42807155D01*
X70957697Y-42826410D01*
X70775329Y-42901949D01*
X70775321Y-42901953D01*
X70611198Y-43011617D01*
X70611194Y-43011620D01*
X70471620Y-43151194D01*
X70471617Y-43151198D01*
X70361953Y-43315321D01*
X70361949Y-43315329D01*
X70286410Y-43497697D01*
X70286410Y-43497698D01*
X70247900Y-43691302D01*
X65806882Y-43691302D01*
X65806882Y-38618856D01*
X70324600Y-38618856D01*
X70324600Y-38801143D01*
X70360162Y-38979929D01*
X70429920Y-39148339D01*
X70429924Y-39148347D01*
X70531194Y-39299907D01*
X70531197Y-39299911D01*
X70559721Y-39328435D01*
X70789814Y-39098341D01*
X70861657Y-39170184D01*
X70631564Y-39400277D01*
X70660088Y-39428802D01*
X70660092Y-39428805D01*
X70811652Y-39530075D01*
X70811660Y-39530079D01*
X70980070Y-39599837D01*
X71158857Y-39635400D01*
X71341143Y-39635400D01*
X71519929Y-39599837D01*
X71688339Y-39530079D01*
X71688347Y-39530075D01*
X71839905Y-39428807D01*
X71868435Y-39400277D01*
X71638342Y-39170184D01*
X71710184Y-39098342D01*
X71940277Y-39328435D01*
X71968807Y-39299905D01*
X72070075Y-39148347D01*
X72070079Y-39148339D01*
X72139837Y-38979929D01*
X72175400Y-38801143D01*
X72175400Y-38618856D01*
X72139837Y-38440070D01*
X72070079Y-38271660D01*
X72070075Y-38271652D01*
X71968805Y-38120092D01*
X71968802Y-38120088D01*
X71940277Y-38091564D01*
X71710184Y-38321657D01*
X71638341Y-38249814D01*
X71868435Y-38019722D01*
X71868435Y-38019721D01*
X71839911Y-37991197D01*
X71839907Y-37991194D01*
X71688347Y-37889924D01*
X71688339Y-37889920D01*
X71519929Y-37820162D01*
X71341143Y-37784600D01*
X71158857Y-37784600D01*
X70980070Y-37820162D01*
X70811660Y-37889920D01*
X70811652Y-37889924D01*
X70660092Y-37991194D01*
X70660088Y-37991197D01*
X70631564Y-38019722D01*
X70861657Y-38249815D01*
X70789815Y-38321657D01*
X70559722Y-38091564D01*
X70531197Y-38120088D01*
X70531194Y-38120092D01*
X70429924Y-38271652D01*
X70429920Y-38271660D01*
X70360162Y-38440070D01*
X70324600Y-38618856D01*
X65806882Y-38618856D01*
X65806882Y-34600729D01*
X66447900Y-34600729D01*
X66447900Y-34759270D01*
X66488931Y-34912399D01*
X66488933Y-34912402D01*
X66568200Y-35049698D01*
X66680302Y-35161800D01*
X66817598Y-35241067D01*
X66817600Y-35241067D01*
X66817601Y-35241068D01*
X66817599Y-35241068D01*
X66938370Y-35273428D01*
X66970729Y-35282099D01*
X66970730Y-35282100D01*
X66970732Y-35282100D01*
X67729270Y-35282100D01*
X67729270Y-35282099D01*
X67836908Y-35253257D01*
X67882399Y-35241068D01*
X67882399Y-35241067D01*
X67882402Y-35241067D01*
X68019698Y-35161800D01*
X68131800Y-35049698D01*
X68211067Y-34912402D01*
X68252099Y-34759270D01*
X68252100Y-34759270D01*
X68252100Y-34600729D01*
X70377900Y-34600729D01*
X70377900Y-34759270D01*
X70418931Y-34912399D01*
X70418933Y-34912402D01*
X70498200Y-35049698D01*
X70610302Y-35161800D01*
X70747598Y-35241067D01*
X70747600Y-35241067D01*
X70747601Y-35241068D01*
X70747599Y-35241068D01*
X70868370Y-35273428D01*
X70900729Y-35282099D01*
X70900730Y-35282100D01*
X70900732Y-35282100D01*
X72159270Y-35282100D01*
X72159270Y-35282099D01*
X72266908Y-35253257D01*
X72312399Y-35241068D01*
X72312399Y-35241067D01*
X72312402Y-35241067D01*
X72449698Y-35161800D01*
X72561800Y-35049698D01*
X72641067Y-34912402D01*
X72682099Y-34759270D01*
X72682100Y-34759270D01*
X72682100Y-34600729D01*
X72641068Y-34447600D01*
X72607121Y-34388802D01*
X72561800Y-34310302D01*
X72449698Y-34198200D01*
X72312402Y-34118933D01*
X72312401Y-34118932D01*
X72312398Y-34118931D01*
X72312400Y-34118931D01*
X72159271Y-34077900D01*
X72159268Y-34077900D01*
X70900732Y-34077900D01*
X70900729Y-34077900D01*
X70747600Y-34118931D01*
X70610300Y-34198201D01*
X70498201Y-34310300D01*
X70418931Y-34447600D01*
X70377900Y-34600729D01*
X68252100Y-34600729D01*
X68211068Y-34447600D01*
X68177121Y-34388802D01*
X68131800Y-34310302D01*
X68019698Y-34198200D01*
X67882402Y-34118933D01*
X67882401Y-34118932D01*
X67882398Y-34118931D01*
X67882400Y-34118931D01*
X67729271Y-34077900D01*
X67729268Y-34077900D01*
X66970732Y-34077900D01*
X66970729Y-34077900D01*
X66817600Y-34118931D01*
X66680300Y-34198201D01*
X66568201Y-34310300D01*
X66488931Y-34447600D01*
X66447900Y-34600729D01*
X65806882Y-34600729D01*
X65806882Y-33193768D01*
X70572900Y-33193768D01*
X70572900Y-33306231D01*
X70602005Y-33414851D01*
X70602007Y-33414854D01*
X70658235Y-33512245D01*
X70737755Y-33591765D01*
X70835146Y-33647993D01*
X70835148Y-33647993D01*
X70835149Y-33647994D01*
X70835147Y-33647994D01*
X70920816Y-33670949D01*
X70943768Y-33677099D01*
X70943769Y-33677100D01*
X70943771Y-33677100D01*
X71056231Y-33677100D01*
X71056231Y-33677099D01*
X71146131Y-33653010D01*
X71164851Y-33647994D01*
X71164851Y-33647993D01*
X71164854Y-33647993D01*
X71262245Y-33591765D01*
X71341765Y-33512245D01*
X71397993Y-33414854D01*
X71427099Y-33306231D01*
X71427100Y-33306231D01*
X71427100Y-33193768D01*
X71397994Y-33085148D01*
X71383604Y-33060224D01*
X71341765Y-32987755D01*
X71262245Y-32908235D01*
X71164854Y-32852007D01*
X71164853Y-32852006D01*
X71164850Y-32852005D01*
X71164852Y-32852005D01*
X71056232Y-32822900D01*
X71056229Y-32822900D01*
X70943771Y-32822900D01*
X70943768Y-32822900D01*
X70835148Y-32852005D01*
X70737753Y-32908236D01*
X70658236Y-32987753D01*
X70602005Y-33085148D01*
X70572900Y-33193768D01*
X65806882Y-33193768D01*
X65806882Y-32736184D01*
X73236522Y-32736184D01*
X73236522Y-32826585D01*
X73270343Y-32908235D01*
X73271115Y-32910098D01*
X73335034Y-32974017D01*
X73368196Y-32987753D01*
X73418546Y-33008609D01*
X73418547Y-33008609D01*
X73418549Y-33008610D01*
X73418551Y-33008610D01*
X73508943Y-33008610D01*
X73508945Y-33008610D01*
X73592460Y-32974017D01*
X73656379Y-32910098D01*
X73690972Y-32826583D01*
X73690972Y-32778831D01*
X73694399Y-32770558D01*
X74056090Y-32408867D01*
X74064363Y-32405440D01*
X78566567Y-32405440D01*
X78786201Y-32405440D01*
X78794474Y-32408867D01*
X78797901Y-32417140D01*
X78797901Y-33110054D01*
X78802081Y-33131070D01*
X78803824Y-33139836D01*
X78803826Y-33139842D01*
X78826389Y-33173609D01*
X78826390Y-33173610D01*
X78860163Y-33196176D01*
X78889945Y-33202100D01*
X80610054Y-33202099D01*
X80639837Y-33196176D01*
X80639840Y-33196173D01*
X80639842Y-33196173D01*
X80651248Y-33188551D01*
X80673610Y-33173610D01*
X80696176Y-33139837D01*
X80702100Y-33110055D01*
X80702100Y-32858645D01*
X83074767Y-32858645D01*
X83074767Y-32949046D01*
X83108796Y-33031197D01*
X83109360Y-33032559D01*
X83173279Y-33096478D01*
X83225942Y-33118291D01*
X83256791Y-33131070D01*
X83256792Y-33131070D01*
X83256794Y-33131071D01*
X83256796Y-33131071D01*
X83347188Y-33131071D01*
X83347190Y-33131071D01*
X83430705Y-33096478D01*
X83466959Y-33060224D01*
X83475232Y-33056797D01*
X85290345Y-33056797D01*
X85298618Y-33060224D01*
X87296671Y-35058278D01*
X87296672Y-35058279D01*
X88416198Y-36177804D01*
X88419625Y-36186077D01*
X88419625Y-54354381D01*
X88416198Y-54362654D01*
X86720214Y-56058639D01*
X86711941Y-56062066D01*
X85520193Y-56062066D01*
X85511920Y-56058639D01*
X85475667Y-56022386D01*
X85475666Y-56022385D01*
X85475664Y-56022384D01*
X85392153Y-55987792D01*
X85392151Y-55987792D01*
X85301755Y-55987792D01*
X85301752Y-55987792D01*
X85218241Y-56022384D01*
X85154320Y-56086305D01*
X85119728Y-56169816D01*
X85119728Y-56260217D01*
X85154320Y-56343728D01*
X85154321Y-56343730D01*
X85218240Y-56407649D01*
X85270903Y-56429462D01*
X85301752Y-56442241D01*
X85301753Y-56442241D01*
X85301755Y-56442242D01*
X85301757Y-56442242D01*
X85392149Y-56442242D01*
X85392151Y-56442242D01*
X85475666Y-56407649D01*
X85511920Y-56371395D01*
X85520193Y-56367968D01*
X86810564Y-56367968D01*
X86810565Y-56367968D01*
X86810566Y-56367968D01*
X86827030Y-56361147D01*
X86866782Y-56344683D01*
X88632504Y-54578959D01*
X88640777Y-54575533D01*
X88974545Y-54575533D01*
X88982818Y-54578960D01*
X89284834Y-54880975D01*
X89288261Y-54889248D01*
X89288261Y-54940522D01*
X89319901Y-55016906D01*
X89322854Y-55024035D01*
X89386773Y-55087954D01*
X89439436Y-55109767D01*
X89470285Y-55122546D01*
X89470286Y-55122546D01*
X89470288Y-55122547D01*
X89470290Y-55122547D01*
X89560682Y-55122547D01*
X89560684Y-55122547D01*
X89644199Y-55087954D01*
X89708118Y-55024035D01*
X89742711Y-54940520D01*
X89742711Y-54850124D01*
X89708118Y-54766609D01*
X89644199Y-54702690D01*
X89644197Y-54702689D01*
X89560686Y-54668097D01*
X89560684Y-54668097D01*
X89509412Y-54668097D01*
X89501139Y-54664670D01*
X89129386Y-54292916D01*
X89129384Y-54292915D01*
X89089634Y-54276451D01*
X89073170Y-54269631D01*
X88737227Y-54269631D01*
X88728954Y-54266204D01*
X88725527Y-54257931D01*
X88725527Y-48901302D01*
X92957900Y-48901302D01*
X92957900Y-49098698D01*
X92988109Y-49250570D01*
X92996410Y-49292302D01*
X93071949Y-49474670D01*
X93071953Y-49474678D01*
X93181617Y-49638801D01*
X93181620Y-49638805D01*
X93321194Y-49778379D01*
X93321198Y-49778382D01*
X93485321Y-49888046D01*
X93485325Y-49888048D01*
X93485328Y-49888050D01*
X93667698Y-49963590D01*
X93861302Y-50002100D01*
X93861303Y-50002100D01*
X94058697Y-50002100D01*
X94058698Y-50002100D01*
X94252302Y-49963590D01*
X94434672Y-49888050D01*
X94598802Y-49778382D01*
X94738382Y-49638802D01*
X94848050Y-49474672D01*
X94923590Y-49292302D01*
X94962100Y-49098698D01*
X94962100Y-48901302D01*
X98037900Y-48901302D01*
X98037900Y-49098698D01*
X98068109Y-49250570D01*
X98076410Y-49292302D01*
X98151949Y-49474670D01*
X98151953Y-49474678D01*
X98261617Y-49638801D01*
X98261620Y-49638805D01*
X98401194Y-49778379D01*
X98401198Y-49778382D01*
X98565321Y-49888046D01*
X98565325Y-49888048D01*
X98565328Y-49888050D01*
X98747698Y-49963590D01*
X98941302Y-50002100D01*
X98941303Y-50002100D01*
X99138697Y-50002100D01*
X99138698Y-50002100D01*
X99332302Y-49963590D01*
X99514672Y-49888050D01*
X99678802Y-49778382D01*
X99818382Y-49638802D01*
X99928050Y-49474672D01*
X100003590Y-49292302D01*
X100042100Y-49098698D01*
X100042100Y-48901302D01*
X100003590Y-48707698D01*
X99928050Y-48525328D01*
X99928048Y-48525325D01*
X99928046Y-48525321D01*
X99818382Y-48361198D01*
X99818379Y-48361194D01*
X99678805Y-48221620D01*
X99678801Y-48221617D01*
X99514678Y-48111953D01*
X99514670Y-48111949D01*
X99332302Y-48036410D01*
X99138698Y-47997900D01*
X98941302Y-47997900D01*
X98850402Y-48015981D01*
X98747697Y-48036410D01*
X98565329Y-48111949D01*
X98565321Y-48111953D01*
X98401198Y-48221617D01*
X98401194Y-48221620D01*
X98261620Y-48361194D01*
X98261617Y-48361198D01*
X98151953Y-48525321D01*
X98151949Y-48525329D01*
X98076410Y-48707697D01*
X98054738Y-48816652D01*
X98037900Y-48901302D01*
X94962100Y-48901302D01*
X94923590Y-48707698D01*
X94848050Y-48525328D01*
X94848048Y-48525325D01*
X94848046Y-48525321D01*
X94738382Y-48361198D01*
X94738379Y-48361194D01*
X94598805Y-48221620D01*
X94598801Y-48221617D01*
X94434678Y-48111953D01*
X94434670Y-48111949D01*
X94252302Y-48036410D01*
X94058698Y-47997900D01*
X93861302Y-47997900D01*
X93770402Y-48015981D01*
X93667697Y-48036410D01*
X93485329Y-48111949D01*
X93485321Y-48111953D01*
X93321198Y-48221617D01*
X93321194Y-48221620D01*
X93181620Y-48361194D01*
X93181617Y-48361198D01*
X93071953Y-48525321D01*
X93071949Y-48525329D01*
X92996410Y-48707697D01*
X92974738Y-48816652D01*
X92957900Y-48901302D01*
X88725527Y-48901302D01*
X88725527Y-47898499D01*
X105735694Y-47898499D01*
X105735694Y-47988900D01*
X105770286Y-48072411D01*
X105770288Y-48072414D01*
X105804052Y-48106178D01*
X105807479Y-48114451D01*
X105807479Y-50566500D01*
X105831142Y-50623628D01*
X105831144Y-50623631D01*
X106084583Y-50877070D01*
X106088010Y-50885343D01*
X106088010Y-50933096D01*
X106122602Y-51016607D01*
X106122603Y-51016609D01*
X106186522Y-51080528D01*
X106239185Y-51102341D01*
X106270034Y-51115120D01*
X106270035Y-51115120D01*
X106270037Y-51115121D01*
X106270039Y-51115121D01*
X106360431Y-51115121D01*
X106360433Y-51115121D01*
X106443948Y-51080528D01*
X106507867Y-51016609D01*
X106542460Y-50933094D01*
X106542460Y-50842698D01*
X106507867Y-50759183D01*
X106443948Y-50695264D01*
X106443946Y-50695263D01*
X106360435Y-50660671D01*
X106360433Y-50660671D01*
X106312682Y-50660671D01*
X106304409Y-50657244D01*
X106121786Y-50474621D01*
X106118359Y-50466348D01*
X106118359Y-49152632D01*
X106121786Y-49144359D01*
X106130059Y-49140932D01*
X106138332Y-49144359D01*
X106140867Y-49148154D01*
X106151931Y-49174864D01*
X106215850Y-49238783D01*
X106268513Y-49260596D01*
X106299362Y-49273375D01*
X106299363Y-49273375D01*
X106299365Y-49273376D01*
X106299367Y-49273376D01*
X106389759Y-49273376D01*
X106389761Y-49273376D01*
X106473276Y-49238783D01*
X106537195Y-49174864D01*
X106571788Y-49091349D01*
X106571788Y-49000953D01*
X106546476Y-48939845D01*
X112426503Y-48939845D01*
X112426503Y-49030246D01*
X112461095Y-49113757D01*
X112461096Y-49113759D01*
X112525015Y-49177678D01*
X112577678Y-49199491D01*
X112608527Y-49212270D01*
X112608528Y-49212270D01*
X112608530Y-49212271D01*
X112608532Y-49212271D01*
X112698924Y-49212271D01*
X112698926Y-49212271D01*
X112782441Y-49177678D01*
X112813732Y-49146387D01*
X112822005Y-49142960D01*
X112830278Y-49146387D01*
X112833705Y-49154660D01*
X112833705Y-49212256D01*
X112830278Y-49220529D01*
X112523620Y-49527186D01*
X112516095Y-49545357D01*
X112516094Y-49545357D01*
X112499957Y-49584314D01*
X112499957Y-50203733D01*
X112496530Y-50212006D01*
X112462764Y-50245772D01*
X112428172Y-50329283D01*
X112428172Y-50419684D01*
X112452007Y-50477225D01*
X112462765Y-50503197D01*
X112526684Y-50567116D01*
X112579347Y-50588929D01*
X112610196Y-50601708D01*
X112610197Y-50601708D01*
X112610199Y-50601709D01*
X112610201Y-50601709D01*
X112700593Y-50601709D01*
X112700595Y-50601709D01*
X112784110Y-50567116D01*
X112848029Y-50503197D01*
X112882622Y-50419682D01*
X112882622Y-50329286D01*
X112877485Y-50316885D01*
X112862468Y-50280630D01*
X112862468Y-50271676D01*
X112868800Y-50265344D01*
X112877754Y-50265344D01*
X112881550Y-50267880D01*
X112910380Y-50296710D01*
X112956936Y-50315994D01*
X112960732Y-50318530D01*
X113067731Y-50425529D01*
X113105780Y-50441289D01*
X113143830Y-50457050D01*
X115119530Y-50457050D01*
X115124007Y-50457941D01*
X115170560Y-50477224D01*
X115170561Y-50477224D01*
X115170563Y-50477225D01*
X115170565Y-50477225D01*
X115260957Y-50477225D01*
X115260959Y-50477225D01*
X115344474Y-50442632D01*
X115408393Y-50378713D01*
X115442986Y-50295198D01*
X115442986Y-50204802D01*
X115408393Y-50121287D01*
X115344474Y-50057368D01*
X115344472Y-50057367D01*
X115260961Y-50022775D01*
X115260959Y-50022775D01*
X115170563Y-50022775D01*
X115170560Y-50022775D01*
X115124007Y-50042059D01*
X115119530Y-50042950D01*
X113275624Y-50042950D01*
X113267351Y-50039523D01*
X113253545Y-50025717D01*
X113251009Y-50021921D01*
X113231725Y-49975366D01*
X113231724Y-49975364D01*
X113167807Y-49911447D01*
X113167806Y-49911446D01*
X113167804Y-49911445D01*
X113084293Y-49876853D01*
X113084291Y-49876853D01*
X112993895Y-49876853D01*
X112993892Y-49876853D01*
X112910381Y-49911445D01*
X112846461Y-49975365D01*
X112833346Y-50007027D01*
X112827014Y-50013358D01*
X112818059Y-50013358D01*
X112811728Y-50007026D01*
X112810837Y-50002549D01*
X112810837Y-49684468D01*
X112814264Y-49676195D01*
X113120920Y-49369539D01*
X113120921Y-49369538D01*
X113144585Y-49312406D01*
X113144585Y-49250570D01*
X113144585Y-49151302D01*
X118957900Y-49151302D01*
X118957900Y-49348697D01*
X118996410Y-49542302D01*
X119071949Y-49724670D01*
X119071953Y-49724678D01*
X119181617Y-49888801D01*
X119181620Y-49888805D01*
X119321194Y-50028379D01*
X119321198Y-50028382D01*
X119485321Y-50138046D01*
X119485325Y-50138048D01*
X119485328Y-50138050D01*
X119667698Y-50213590D01*
X119861302Y-50252100D01*
X119861303Y-50252100D01*
X120058697Y-50252100D01*
X120058698Y-50252100D01*
X120252302Y-50213590D01*
X120434672Y-50138050D01*
X120598802Y-50028382D01*
X120738382Y-49888802D01*
X120848050Y-49724672D01*
X120923590Y-49542302D01*
X120962100Y-49348698D01*
X120962100Y-49151302D01*
X124037900Y-49151302D01*
X124037900Y-49348697D01*
X124076410Y-49542302D01*
X124151949Y-49724670D01*
X124151953Y-49724678D01*
X124261617Y-49888801D01*
X124261620Y-49888805D01*
X124401194Y-50028379D01*
X124401198Y-50028382D01*
X124565321Y-50138046D01*
X124565325Y-50138048D01*
X124565328Y-50138050D01*
X124747698Y-50213590D01*
X124941302Y-50252100D01*
X124941303Y-50252100D01*
X125138697Y-50252100D01*
X125138698Y-50252100D01*
X125332302Y-50213590D01*
X125514672Y-50138050D01*
X125678802Y-50028382D01*
X125818382Y-49888802D01*
X125928050Y-49724672D01*
X126003590Y-49542302D01*
X126042100Y-49348698D01*
X126042100Y-49151302D01*
X126003590Y-48957698D01*
X125928050Y-48775328D01*
X125928048Y-48775325D01*
X125928046Y-48775321D01*
X125818382Y-48611198D01*
X125818379Y-48611194D01*
X125678805Y-48471620D01*
X125678801Y-48471617D01*
X125514678Y-48361953D01*
X125514670Y-48361949D01*
X125332302Y-48286410D01*
X125272295Y-48274474D01*
X125138698Y-48247900D01*
X124941302Y-48247900D01*
X124844500Y-48267155D01*
X124747697Y-48286410D01*
X124565329Y-48361949D01*
X124565321Y-48361953D01*
X124401198Y-48471617D01*
X124401194Y-48471620D01*
X124261620Y-48611194D01*
X124261617Y-48611198D01*
X124151953Y-48775321D01*
X124151949Y-48775329D01*
X124076410Y-48957697D01*
X124037900Y-49151302D01*
X120962100Y-49151302D01*
X120923590Y-48957698D01*
X120848050Y-48775328D01*
X120848048Y-48775325D01*
X120848046Y-48775321D01*
X120738382Y-48611198D01*
X120738379Y-48611194D01*
X120598805Y-48471620D01*
X120598801Y-48471617D01*
X120434678Y-48361953D01*
X120434670Y-48361949D01*
X120252302Y-48286410D01*
X120192295Y-48274474D01*
X120058698Y-48247900D01*
X119861302Y-48247900D01*
X119764500Y-48267155D01*
X119667697Y-48286410D01*
X119485329Y-48361949D01*
X119485321Y-48361953D01*
X119321198Y-48471617D01*
X119321194Y-48471620D01*
X119181620Y-48611194D01*
X119181617Y-48611198D01*
X119071953Y-48775321D01*
X119071949Y-48775329D01*
X118996410Y-48957697D01*
X118957900Y-49151302D01*
X113144585Y-49151302D01*
X113144585Y-48078762D01*
X113148012Y-48070489D01*
X113181776Y-48036725D01*
X113181777Y-48036724D01*
X113216370Y-47953209D01*
X113216370Y-47862813D01*
X113181777Y-47779298D01*
X113117858Y-47715379D01*
X113117856Y-47715378D01*
X113034345Y-47680786D01*
X113034343Y-47680786D01*
X112943947Y-47680786D01*
X112943944Y-47680786D01*
X112860433Y-47715378D01*
X112796512Y-47779299D01*
X112761920Y-47862810D01*
X112761920Y-47953209D01*
X112763045Y-47955924D01*
X112763046Y-47964879D01*
X112756714Y-47971211D01*
X112752236Y-47972102D01*
X112660710Y-47972102D01*
X112577199Y-48006694D01*
X112513278Y-48070615D01*
X112478686Y-48154126D01*
X112478686Y-48154129D01*
X112478686Y-48244525D01*
X112499886Y-48295707D01*
X112500777Y-48300182D01*
X112500777Y-48811806D01*
X112497350Y-48820079D01*
X112461095Y-48856334D01*
X112426503Y-48939845D01*
X106546476Y-48939845D01*
X106537195Y-48917438D01*
X106473276Y-48853519D01*
X106446758Y-48842534D01*
X106417924Y-48830591D01*
X106411593Y-48824259D01*
X106410702Y-48819782D01*
X106410702Y-48402518D01*
X106414129Y-48394245D01*
X106450382Y-48357992D01*
X106450383Y-48357991D01*
X106484976Y-48274476D01*
X106484976Y-48184080D01*
X106450383Y-48100565D01*
X106386464Y-48036646D01*
X106386462Y-48036645D01*
X106302951Y-48002053D01*
X106302949Y-48002053D01*
X106212553Y-48002053D01*
X106212552Y-48002053D01*
X106205019Y-48005173D01*
X106196065Y-48005172D01*
X106189733Y-47998839D01*
X106189733Y-47989887D01*
X106190144Y-47988898D01*
X106190144Y-47898502D01*
X106155551Y-47814987D01*
X106091632Y-47751068D01*
X106091630Y-47751067D01*
X106008119Y-47716475D01*
X106008117Y-47716475D01*
X105917721Y-47716475D01*
X105917718Y-47716475D01*
X105834207Y-47751067D01*
X105770286Y-47814988D01*
X105735694Y-47898499D01*
X88725527Y-47898499D01*
X88725527Y-42087707D01*
X103704120Y-42087707D01*
X103704120Y-42178108D01*
X103735063Y-42252809D01*
X103738713Y-42261621D01*
X103802632Y-42325540D01*
X103845272Y-42343202D01*
X103886144Y-42360132D01*
X103886145Y-42360132D01*
X103886147Y-42360133D01*
X103886149Y-42360133D01*
X103976541Y-42360133D01*
X103976543Y-42360133D01*
X103998140Y-42351186D01*
X104007092Y-42351186D01*
X104010888Y-42353723D01*
X107756730Y-46099564D01*
X107760157Y-46107837D01*
X107760157Y-46159111D01*
X107794749Y-46242622D01*
X107794750Y-46242624D01*
X107858669Y-46306543D01*
X107911332Y-46328356D01*
X107942181Y-46341135D01*
X107942182Y-46341135D01*
X107942184Y-46341136D01*
X107942186Y-46341136D01*
X108032578Y-46341136D01*
X108032580Y-46341136D01*
X108116095Y-46306543D01*
X108180014Y-46242624D01*
X108214607Y-46159109D01*
X108214607Y-46068713D01*
X108180014Y-45985198D01*
X108131069Y-45936253D01*
X110706425Y-45936253D01*
X110706425Y-46026654D01*
X110740053Y-46107837D01*
X110741018Y-46110167D01*
X110804937Y-46174086D01*
X110857600Y-46195899D01*
X110888449Y-46208678D01*
X110888450Y-46208678D01*
X110888452Y-46208679D01*
X110888454Y-46208679D01*
X110978846Y-46208679D01*
X110978848Y-46208679D01*
X111062363Y-46174086D01*
X111126282Y-46110167D01*
X111160875Y-46026652D01*
X111160875Y-45975381D01*
X111164302Y-45967108D01*
X111380608Y-45750802D01*
X112592675Y-44538735D01*
X112606314Y-44505805D01*
X112615960Y-44482520D01*
X112615960Y-43085608D01*
X112619387Y-43077335D01*
X112655640Y-43041082D01*
X112655641Y-43041081D01*
X112690234Y-42957566D01*
X112690234Y-42867170D01*
X112655641Y-42783655D01*
X112591722Y-42719736D01*
X112591720Y-42719735D01*
X112508209Y-42685143D01*
X112508207Y-42685143D01*
X112417811Y-42685143D01*
X112417808Y-42685143D01*
X112334297Y-42719735D01*
X112270376Y-42783656D01*
X112235784Y-42867167D01*
X112235784Y-42957568D01*
X112270376Y-43041079D01*
X112270378Y-43041082D01*
X112306631Y-43077335D01*
X112310058Y-43085608D01*
X112310058Y-44383894D01*
X112306631Y-44392167D01*
X110947996Y-45750802D01*
X110939723Y-45754229D01*
X110888449Y-45754229D01*
X110804938Y-45788821D01*
X110741017Y-45852742D01*
X110706425Y-45936253D01*
X108131069Y-45936253D01*
X108116095Y-45921279D01*
X108116093Y-45921278D01*
X108032582Y-45886686D01*
X108032580Y-45886686D01*
X107981308Y-45886686D01*
X107973035Y-45883259D01*
X104146838Y-42057061D01*
X104144302Y-42053265D01*
X104123977Y-42004196D01*
X104123976Y-42004194D01*
X104060059Y-41940277D01*
X104060058Y-41940276D01*
X104060056Y-41940275D01*
X103976545Y-41905683D01*
X103976543Y-41905683D01*
X103886147Y-41905683D01*
X103886144Y-41905683D01*
X103802633Y-41940275D01*
X103738712Y-42004196D01*
X103704120Y-42087707D01*
X88725527Y-42087707D01*
X88725527Y-36389945D01*
X119297900Y-36389945D01*
X119297900Y-38110053D01*
X119303824Y-38139836D01*
X119303826Y-38139842D01*
X119326389Y-38173609D01*
X119326390Y-38173610D01*
X119360163Y-38196176D01*
X119389945Y-38202100D01*
X121110054Y-38202099D01*
X121139837Y-38196176D01*
X121139840Y-38196173D01*
X121139842Y-38196173D01*
X121151248Y-38188551D01*
X121173610Y-38173610D01*
X121196176Y-38139837D01*
X121202100Y-38110055D01*
X121202099Y-36389946D01*
X121196176Y-36360163D01*
X121196174Y-36360160D01*
X121196173Y-36360157D01*
X121173610Y-36326390D01*
X121173609Y-36326389D01*
X121139837Y-36303824D01*
X121110055Y-36297900D01*
X121110054Y-36297900D01*
X119389946Y-36297900D01*
X119360163Y-36303824D01*
X119360157Y-36303826D01*
X119326390Y-36326389D01*
X119326389Y-36326390D01*
X119303824Y-36360162D01*
X119297900Y-36389945D01*
X88725527Y-36389945D01*
X88725527Y-36087454D01*
X88725527Y-36087453D01*
X88702241Y-36031237D01*
X88659216Y-35988212D01*
X87650916Y-34979912D01*
X87647489Y-34971639D01*
X87650916Y-34963366D01*
X89716963Y-32897319D01*
X89725236Y-32893892D01*
X90639661Y-32893892D01*
X90647934Y-32897319D01*
X90684188Y-32933573D01*
X90721543Y-32949046D01*
X90767700Y-32968165D01*
X90767701Y-32968165D01*
X90767703Y-32968166D01*
X90767705Y-32968166D01*
X90858097Y-32968166D01*
X90858099Y-32968166D01*
X90941614Y-32933573D01*
X90977687Y-32897500D01*
X101124600Y-32897500D01*
X101124600Y-33699200D01*
X101500000Y-33699200D01*
X101500000Y-33800800D01*
X101124600Y-33800800D01*
X101124600Y-34602499D01*
X101126073Y-34609911D01*
X101131686Y-34618312D01*
X101131687Y-34618313D01*
X101140088Y-34623926D01*
X101147501Y-34625400D01*
X101949200Y-34625400D01*
X101949200Y-34250000D01*
X102050800Y-34250000D01*
X102050800Y-34625400D01*
X102852499Y-34625400D01*
X102859911Y-34623926D01*
X102868312Y-34618313D01*
X102868313Y-34618312D01*
X102873926Y-34609911D01*
X102875400Y-34602499D01*
X102875400Y-33800800D01*
X102500000Y-33800800D01*
X102500000Y-33699200D01*
X102875400Y-33699200D01*
X102875400Y-33658856D01*
X106034600Y-33658856D01*
X106034600Y-33841143D01*
X106070162Y-34019929D01*
X106139920Y-34188339D01*
X106139924Y-34188347D01*
X106241194Y-34339907D01*
X106241197Y-34339911D01*
X106269721Y-34368435D01*
X106499814Y-34138341D01*
X106571657Y-34210184D01*
X106341564Y-34440277D01*
X106370088Y-34468802D01*
X106370092Y-34468805D01*
X106521652Y-34570075D01*
X106521660Y-34570079D01*
X106690070Y-34639837D01*
X106868857Y-34675400D01*
X107051143Y-34675400D01*
X107229929Y-34639837D01*
X107398339Y-34570079D01*
X107398347Y-34570075D01*
X107549905Y-34468807D01*
X107578435Y-34440277D01*
X107348342Y-34210184D01*
X107420184Y-34138342D01*
X107650277Y-34368435D01*
X107678807Y-34339905D01*
X107780075Y-34188347D01*
X107780079Y-34188339D01*
X107849837Y-34019929D01*
X107885400Y-33841143D01*
X107885400Y-33658856D01*
X107884237Y-33653010D01*
X107883897Y-33651302D01*
X111037900Y-33651302D01*
X111037900Y-33848697D01*
X111076410Y-34042302D01*
X111151949Y-34224670D01*
X111151953Y-34224678D01*
X111261617Y-34388801D01*
X111261620Y-34388805D01*
X111401194Y-34528379D01*
X111401198Y-34528382D01*
X111565321Y-34638046D01*
X111565325Y-34638048D01*
X111565328Y-34638050D01*
X111747698Y-34713590D01*
X111941302Y-34752100D01*
X111941303Y-34752100D01*
X112138697Y-34752100D01*
X112138698Y-34752100D01*
X112332302Y-34713590D01*
X112514672Y-34638050D01*
X112678802Y-34528382D01*
X112818382Y-34388802D01*
X112928050Y-34224672D01*
X113003590Y-34042302D01*
X113042100Y-33848698D01*
X113042100Y-33651302D01*
X113003590Y-33457698D01*
X112928050Y-33275328D01*
X112928048Y-33275325D01*
X112928046Y-33275321D01*
X112818382Y-33111198D01*
X112818379Y-33111194D01*
X112678805Y-32971620D01*
X112678801Y-32971617D01*
X112514678Y-32861953D01*
X112514670Y-32861949D01*
X112332302Y-32786410D01*
X112330930Y-32786137D01*
X112138698Y-32747900D01*
X111941302Y-32747900D01*
X111844500Y-32767155D01*
X111747697Y-32786410D01*
X111565329Y-32861949D01*
X111565321Y-32861953D01*
X111401198Y-32971617D01*
X111401194Y-32971620D01*
X111261620Y-33111194D01*
X111261617Y-33111198D01*
X111151953Y-33275321D01*
X111151949Y-33275329D01*
X111076410Y-33457697D01*
X111037900Y-33651302D01*
X107883897Y-33651302D01*
X107849837Y-33480070D01*
X107780079Y-33311660D01*
X107780075Y-33311652D01*
X107678805Y-33160092D01*
X107678802Y-33160088D01*
X107650277Y-33131564D01*
X107420184Y-33361657D01*
X107348341Y-33289814D01*
X107578435Y-33059722D01*
X107578435Y-33059721D01*
X107549911Y-33031197D01*
X107549907Y-33031194D01*
X107398347Y-32929924D01*
X107398339Y-32929920D01*
X107229929Y-32860162D01*
X107051143Y-32824600D01*
X106868857Y-32824600D01*
X106690070Y-32860162D01*
X106521660Y-32929920D01*
X106521652Y-32929924D01*
X106370092Y-33031194D01*
X106370088Y-33031197D01*
X106341564Y-33059722D01*
X106571657Y-33289815D01*
X106499815Y-33361657D01*
X106269722Y-33131564D01*
X106241197Y-33160088D01*
X106241194Y-33160092D01*
X106139924Y-33311652D01*
X106139920Y-33311660D01*
X106070162Y-33480070D01*
X106034600Y-33658856D01*
X102875400Y-33658856D01*
X102875400Y-32897500D01*
X102873926Y-32890088D01*
X102868313Y-32881687D01*
X102868312Y-32881686D01*
X102859911Y-32876073D01*
X102852499Y-32874600D01*
X102050800Y-32874600D01*
X102050800Y-33250000D01*
X101949200Y-33250000D01*
X101949200Y-32874600D01*
X101147501Y-32874600D01*
X101140088Y-32876073D01*
X101131687Y-32881686D01*
X101131686Y-32881687D01*
X101126073Y-32890088D01*
X101124600Y-32897500D01*
X90977687Y-32897500D01*
X91005533Y-32869654D01*
X91040126Y-32786139D01*
X91040126Y-32695743D01*
X91032205Y-32676621D01*
X91005533Y-32612229D01*
X91005532Y-32612227D01*
X90941615Y-32548310D01*
X90941614Y-32548309D01*
X90941612Y-32548308D01*
X90858101Y-32513716D01*
X90858099Y-32513716D01*
X90767703Y-32513716D01*
X90767700Y-32513716D01*
X90684189Y-32548308D01*
X90647934Y-32584563D01*
X90639661Y-32587990D01*
X89626611Y-32587990D01*
X89570396Y-32611276D01*
X89570394Y-32611277D01*
X87434611Y-34747059D01*
X87426338Y-34750486D01*
X87418065Y-34747059D01*
X85445187Y-32774181D01*
X85445186Y-32774180D01*
X85444715Y-32773985D01*
X85405434Y-32757715D01*
X85388970Y-32750895D01*
X83475232Y-32750895D01*
X83466959Y-32747468D01*
X83430706Y-32711215D01*
X83430705Y-32711214D01*
X83430703Y-32711213D01*
X83347192Y-32676621D01*
X83347190Y-32676621D01*
X83256794Y-32676621D01*
X83256791Y-32676621D01*
X83173280Y-32711213D01*
X83109359Y-32775134D01*
X83074767Y-32858645D01*
X80702100Y-32858645D01*
X80702099Y-31389946D01*
X80696176Y-31360163D01*
X80696174Y-31360160D01*
X80696173Y-31360157D01*
X80673610Y-31326390D01*
X80673609Y-31326389D01*
X80639837Y-31303824D01*
X80610055Y-31297900D01*
X80610054Y-31297900D01*
X78889946Y-31297900D01*
X78860163Y-31303824D01*
X78860157Y-31303826D01*
X78826390Y-31326389D01*
X78826389Y-31326390D01*
X78803824Y-31360162D01*
X78797900Y-31389945D01*
X78797900Y-32082860D01*
X78794473Y-32091133D01*
X78786200Y-32094560D01*
X73964209Y-32094560D01*
X73907082Y-32118223D01*
X73907080Y-32118224D01*
X73474573Y-32550733D01*
X73466300Y-32554160D01*
X73418546Y-32554160D01*
X73335035Y-32588752D01*
X73271114Y-32652673D01*
X73236522Y-32736184D01*
X65806882Y-32736184D01*
X65806882Y-27413768D01*
X70572900Y-27413768D01*
X70572900Y-27526231D01*
X70602005Y-27634851D01*
X70602007Y-27634854D01*
X70658235Y-27732245D01*
X70737755Y-27811765D01*
X70835146Y-27867993D01*
X70835148Y-27867993D01*
X70835149Y-27867994D01*
X70835147Y-27867994D01*
X70920816Y-27890949D01*
X70943768Y-27897099D01*
X70943769Y-27897100D01*
X70943771Y-27897100D01*
X71056231Y-27897100D01*
X71056231Y-27897099D01*
X71132583Y-27876640D01*
X71164851Y-27867994D01*
X71164851Y-27867993D01*
X71164854Y-27867993D01*
X71262245Y-27811765D01*
X71341765Y-27732245D01*
X71397993Y-27634854D01*
X71427099Y-27526231D01*
X71427100Y-27526231D01*
X71427100Y-27413768D01*
X71397994Y-27305148D01*
X71397993Y-27305146D01*
X71341765Y-27207755D01*
X71262245Y-27128235D01*
X71164854Y-27072007D01*
X71164853Y-27072006D01*
X71164850Y-27072005D01*
X71164852Y-27072005D01*
X71056232Y-27042900D01*
X71056229Y-27042900D01*
X70943771Y-27042900D01*
X70943768Y-27042900D01*
X70835148Y-27072005D01*
X70737753Y-27128236D01*
X70658236Y-27207753D01*
X70602005Y-27305148D01*
X70572900Y-27413768D01*
X65806882Y-27413768D01*
X65806882Y-25960729D01*
X66447900Y-25960729D01*
X66447900Y-26119270D01*
X66488931Y-26272399D01*
X66488933Y-26272402D01*
X66568200Y-26409698D01*
X66680302Y-26521800D01*
X66817598Y-26601067D01*
X66817600Y-26601067D01*
X66817601Y-26601068D01*
X66817599Y-26601068D01*
X66938370Y-26633428D01*
X66970729Y-26642099D01*
X66970730Y-26642100D01*
X66970732Y-26642100D01*
X67729270Y-26642100D01*
X67729270Y-26642099D01*
X67836908Y-26613257D01*
X67882399Y-26601068D01*
X67882399Y-26601067D01*
X67882402Y-26601067D01*
X68019698Y-26521800D01*
X68131800Y-26409698D01*
X68211067Y-26272402D01*
X68252099Y-26119270D01*
X68252100Y-26119270D01*
X68252100Y-25960729D01*
X70377900Y-25960729D01*
X70377900Y-26119270D01*
X70418931Y-26272399D01*
X70418933Y-26272402D01*
X70498200Y-26409698D01*
X70610302Y-26521800D01*
X70747598Y-26601067D01*
X70747600Y-26601067D01*
X70747601Y-26601068D01*
X70747599Y-26601068D01*
X70868370Y-26633428D01*
X70900729Y-26642099D01*
X70900730Y-26642100D01*
X70900732Y-26642100D01*
X72159270Y-26642100D01*
X72159270Y-26642099D01*
X72266908Y-26613257D01*
X72312399Y-26601068D01*
X72312399Y-26601067D01*
X72312402Y-26601067D01*
X72449698Y-26521800D01*
X72561800Y-26409698D01*
X72641067Y-26272402D01*
X72682099Y-26119270D01*
X72682100Y-26119270D01*
X72682100Y-25960729D01*
X72641068Y-25807600D01*
X72641067Y-25807598D01*
X72561800Y-25670302D01*
X72449698Y-25558200D01*
X72312402Y-25478933D01*
X72312401Y-25478932D01*
X72312398Y-25478931D01*
X72312400Y-25478931D01*
X72159271Y-25437900D01*
X72159268Y-25437900D01*
X70900732Y-25437900D01*
X70900729Y-25437900D01*
X70747600Y-25478931D01*
X70610300Y-25558201D01*
X70498201Y-25670300D01*
X70418931Y-25807600D01*
X70377900Y-25960729D01*
X68252100Y-25960729D01*
X68211068Y-25807600D01*
X68211067Y-25807598D01*
X68131800Y-25670302D01*
X68019698Y-25558200D01*
X67882402Y-25478933D01*
X67882401Y-25478932D01*
X67882398Y-25478931D01*
X67882400Y-25478931D01*
X67729271Y-25437900D01*
X67729268Y-25437900D01*
X66970732Y-25437900D01*
X66970729Y-25437900D01*
X66817600Y-25478931D01*
X66680300Y-25558201D01*
X66568201Y-25670300D01*
X66488931Y-25807600D01*
X66447900Y-25960729D01*
X65806882Y-25960729D01*
X65806882Y-24818582D01*
X65810309Y-24810309D01*
X65818582Y-24806882D01*
X129681419Y-24806882D01*
X129689692Y-24810309D01*
G37*
%TD.AperFunction*%
%TD*%
M02*
