%TF.GenerationSoftware,KiCad,Pcbnew,10.0.1*%
%TF.CreationDate,2026-06-07T10:21:04+02:00*%
%TF.ProjectId,Bluetooth Box V3,426c7565-746f-46f7-9468-20426f782056,rev?*%
%TF.SameCoordinates,Original*%
%TF.FileFunction,Copper,L2,Bot*%
%TF.FilePolarity,Positive*%
%FSLAX46Y46*%
G04 Gerber Fmt 4.6, Leading zero omitted, Abs format (unit mm)*
G04 Created by KiCad (PCBNEW 10.0.1) date 2026-06-07 10:21:04*
%MOMM*%
%LPD*%
G01*
G04 APERTURE LIST*
%TA.AperFunction,ComponentPad*%
%ADD10C,1.800000*%
%TD*%
%TA.AperFunction,ComponentPad*%
%ADD11R,1.700000X1.700000*%
%TD*%
%TA.AperFunction,ComponentPad*%
%ADD12O,2.100000X1.000000*%
%TD*%
%TA.AperFunction,ComponentPad*%
%ADD13O,1.600000X1.000000*%
%TD*%
%TA.AperFunction,HeatsinkPad*%
%ADD14C,0.600000*%
%TD*%
%TA.AperFunction,ViaPad*%
%ADD15C,0.600000*%
%TD*%
%TA.AperFunction,Conductor*%
%ADD16C,0.200000*%
%TD*%
G04 APERTURE END LIST*
D10*
%TO.P,J2,1,Pin_1_1*%
%TO.N,+5V*%
X71250000Y-43790000D03*
%TO.P,J2,2,Pin_2_2*%
%TO.N,GND*%
X71250000Y-38710000D03*
%TD*%
D11*
%TO.P,J10,1,Pin_1_1*%
%TO.N,+5V*%
X79750000Y-32250000D03*
%TD*%
D12*
%TO.P,J1,SH*%
%TO.N,N/C*%
X71530000Y-26040000D03*
D13*
X67350000Y-26040000D03*
D12*
X71530000Y-34680000D03*
D13*
X67350000Y-34680000D03*
%TD*%
D10*
%TO.P,J8,1,Pin_1_1*%
%TO.N,/Amplifier/LOUTP*%
X125040000Y-49250000D03*
%TO.P,J8,2,Pin_2_2*%
%TO.N,/Amplifier/LOUTN*%
X119960000Y-49250000D03*
%TD*%
D14*
%TO.P,U5,39,GND_39*%
%TO.N,GND*%
X80650000Y-74550000D03*
X82050000Y-74550000D03*
X79950000Y-73850000D03*
X81350000Y-73850000D03*
X82750000Y-73850000D03*
X80650000Y-73175000D03*
X82050000Y-73175000D03*
X79950000Y-72450000D03*
X81350000Y-72450000D03*
X82750000Y-72450000D03*
X80650000Y-71750000D03*
X82050000Y-71750000D03*
%TD*%
D11*
%TO.P,J4,1,Pin_1_1*%
%TO.N,GNDA*%
X102000000Y-33750000D03*
%TD*%
%TO.P,J3,1,Pin_1_1*%
%TO.N,+12V*%
X120250000Y-37250000D03*
%TD*%
D10*
%TO.P,J7,1,Pin_1_1*%
%TO.N,/Amplifier/ROUTP*%
X99040000Y-49000000D03*
%TO.P,J7,2,Pin_2_2*%
%TO.N,/Amplifier/ROUTN*%
X93960000Y-49000000D03*
%TD*%
%TO.P,J5,1,Pin_1_1*%
%TO.N,Net-(J5-Pin_1)*%
X112040000Y-33750000D03*
%TO.P,J5,2,Pin_2_2*%
%TO.N,GNDA*%
X106960000Y-33750000D03*
%TD*%
D15*
%TO.N,GND*%
X119375000Y-89550000D03*
X119675000Y-93175000D03*
X121550000Y-96500000D03*
%TO.N,/SCL*%
X86330000Y-80400000D03*
X89600000Y-81975000D03*
%TO.N,GND*%
X90175000Y-80375000D03*
%TO.N,/I2S_LRCLK*%
X89125000Y-70600000D03*
%TO.N,GND*%
X86100000Y-60675000D03*
X86000000Y-57800000D03*
%TO.N,/EN*%
X83730000Y-56755000D03*
X88325000Y-53575000D03*
%TO.N,Net-(Q1-B)*%
X88300000Y-56812500D03*
X90550000Y-56950000D03*
%TO.N,Net-(Q1-E)*%
X86925000Y-53900000D03*
%TO.N,Net-(SS8050-E)*%
X88300000Y-54987500D03*
X92437500Y-59600000D03*
%TO.N,Net-(SS8050-B)*%
X88300000Y-60412500D03*
X90550000Y-60550000D03*
%TO.N,/GPIO0*%
X88000000Y-67425000D03*
X78250001Y-84600001D03*
%TO.N,/EN*%
X90400000Y-53000000D03*
X90500000Y-41400000D03*
%TO.N,GND*%
X110500000Y-90750000D03*
X81250000Y-42250000D03*
X95500000Y-73500000D03*
X76250000Y-60500000D03*
X78250000Y-77750000D03*
X89000000Y-77750000D03*
X108250000Y-86750000D03*
X87100000Y-52550000D03*
X112500000Y-40337500D03*
X93750000Y-77750000D03*
X66500000Y-98250000D03*
X104800000Y-42000000D03*
X89250000Y-39750000D03*
X115750000Y-94700000D03*
X107000000Y-69500000D03*
X110750000Y-96700000D03*
X97500000Y-71250000D03*
X88774388Y-90400001D03*
X119450000Y-85250000D03*
X100000000Y-86750000D03*
X113250000Y-87500000D03*
X109500000Y-55950000D03*
X89375000Y-68700000D03*
X91750000Y-91250000D03*
X93750000Y-93000000D03*
X100250000Y-94500000D03*
X78500000Y-64500000D03*
X85500000Y-85000000D03*
X88350000Y-65075000D03*
X86750000Y-42250000D03*
X79200000Y-56640000D03*
X110750000Y-83000000D03*
X84350000Y-92900000D03*
X93362500Y-87250000D03*
X97500000Y-81000000D03*
X108500000Y-94750000D03*
X76000000Y-45750000D03*
X106750000Y-95700000D03*
X109500000Y-49250000D03*
X119450000Y-87500000D03*
X97750000Y-98250000D03*
X86500000Y-98450000D03*
X95500000Y-79412500D03*
X121400000Y-89400000D03*
X84750000Y-55250000D03*
X81750000Y-48250000D03*
X115000000Y-84750000D03*
X110250000Y-98250000D03*
X107600000Y-92312500D03*
X103000000Y-94500000D03*
X88750000Y-88000000D03*
%TO.N,+3V3*%
X84500000Y-87399265D03*
X84700000Y-42250000D03*
X82550000Y-50150000D03*
X93100000Y-82750000D03*
X96500000Y-95300000D03*
X121162500Y-83250000D03*
X98500000Y-73750000D03*
X77087500Y-82500000D03*
X111612500Y-67225000D03*
X104050000Y-97400000D03*
X125600000Y-93500000D03*
X122950000Y-87250000D03*
X95250000Y-67000000D03*
X117525000Y-85275000D03*
X94500000Y-81250000D03*
X117525000Y-87500000D03*
X94250000Y-40750000D03*
X126750000Y-87000000D03*
X101750000Y-72250000D03*
X110750000Y-94800000D03*
%TO.N,+12V*%
X114025000Y-52475000D03*
X105000000Y-46000000D03*
X114050000Y-46000000D03*
X104950000Y-52500000D03*
%TO.N,/SDA*%
X112500000Y-94250000D03*
X94568310Y-88732669D03*
%TO.N,/I2S_LRCLK*%
X97250000Y-90000000D03*
X109500000Y-89100000D03*
%TO.N,/I2S_BCLK*%
X108750000Y-89900000D03*
X91390000Y-76090000D03*
X95348529Y-90999999D03*
%TO.N,/AUX_I2S_DATA*%
X109000000Y-90750000D03*
X94500000Y-91000000D03*
%TO.N,/SCL*%
X94497910Y-87922359D03*
X113300003Y-94250000D03*
%TO.N,/Mute*%
X109150000Y-52833013D03*
X88870000Y-62900000D03*
X96500000Y-62900000D03*
%TO.N,GNDA*%
X107000000Y-51500000D03*
X109750000Y-45500000D03*
X112000000Y-47000000D03*
X107000000Y-47000000D03*
X112000000Y-51500000D03*
%TO.N,Net-(IC1-~{SD})*%
X106750000Y-45500000D03*
X103000000Y-42162500D03*
%TO.N,D+*%
X79200000Y-51560000D03*
X77000000Y-31250000D03*
%TO.N,D-*%
X79200000Y-50290000D03*
X77000000Y-29250000D03*
%TO.N,/BT_I2S_DATA*%
X108045164Y-91238145D03*
X100750000Y-92750000D03*
%TO.N,/DSP_IN_SELECT*%
X113925000Y-90012174D03*
X83790000Y-62900000D03*
%TO.N,/EN*%
X76500102Y-79550000D03*
X84600000Y-60900000D03*
%TO.N,Net-(Q1-E)*%
X76400000Y-53900000D03*
%TO.N,Net-(SS8050-E)*%
X74250000Y-52830000D03*
%TD*%
%TO.N,/EN*%
D16*
X85125000Y-56775000D02*
X88325000Y-53575000D01*
X83750000Y-56775000D02*
X85125000Y-56775000D01*
X83730000Y-56755000D02*
X83750000Y-56775000D01*
%TO.N,/SCL*%
X88025000Y-80400000D02*
X86330000Y-80400000D01*
X89600000Y-81975000D02*
X88025000Y-80400000D01*
%TO.N,/I2S_LRCLK*%
X89125000Y-70625000D02*
X89125000Y-70600000D01*
X93025000Y-74525000D02*
X89125000Y-70625000D01*
X97000000Y-89750000D02*
X97250000Y-90000000D01*
X94000000Y-89750000D02*
X97000000Y-89750000D01*
X93025000Y-76225000D02*
X92500000Y-76750000D01*
X93025000Y-74525000D02*
X93025000Y-76225000D01*
X92500000Y-76750000D02*
X92500000Y-88250000D01*
X92500000Y-88250000D02*
X94000000Y-89750000D01*
%TO.N,Net-(Q1-B)*%
X88437500Y-56950000D02*
X88300000Y-56812500D01*
X90550000Y-56950000D02*
X88437500Y-56950000D01*
%TO.N,Net-(Q1-E)*%
X76400000Y-53900000D02*
X86925000Y-53900000D01*
%TO.N,Net-(SS8050-E)*%
X86750000Y-56537500D02*
X88300000Y-54987500D01*
X86750000Y-59600000D02*
X86750000Y-56537500D01*
X86750000Y-59600000D02*
X92437500Y-59600000D01*
X86500000Y-59850000D02*
X86750000Y-59600000D01*
%TO.N,Net-(SS8050-B)*%
X88437500Y-60550000D02*
X88300000Y-60412500D01*
X90550000Y-60550000D02*
X88437500Y-60550000D01*
%TO.N,/GPIO0*%
X87925000Y-67500000D02*
X88000000Y-67425000D01*
X87925000Y-74875000D02*
X87925000Y-67500000D01*
X78250001Y-84549999D02*
X87925000Y-74875000D01*
X78250001Y-84600001D02*
X78250001Y-84549999D01*
%TO.N,/EN*%
X90400000Y-53000000D02*
X90400000Y-41500000D01*
X90400000Y-41500000D02*
X90500000Y-41400000D01*
%TO.N,+3V3*%
X86200000Y-40750000D02*
X84700000Y-42250000D01*
X110750000Y-94800000D02*
X110800000Y-94850000D01*
X117525000Y-85275000D02*
X119550000Y-83250000D01*
X122950000Y-87250000D02*
X122950000Y-85037500D01*
X77000000Y-85912500D02*
X78486765Y-87399265D01*
X77000000Y-82587500D02*
X77000000Y-85912500D01*
X122950000Y-85037500D02*
X121162500Y-83250000D01*
X117525000Y-90873532D02*
X117525000Y-87500000D01*
X96500000Y-95300000D02*
X99450000Y-98250000D01*
X94250000Y-40750000D02*
X86200000Y-40750000D01*
X94500000Y-81250000D02*
X93100000Y-82650000D01*
X80250000Y-46700000D02*
X80250000Y-47850000D01*
X125600000Y-93500000D02*
X126750000Y-92350000D01*
X78486765Y-87399265D02*
X84500000Y-87399265D01*
X99450000Y-98250000D02*
X103200000Y-98250000D01*
X80250000Y-47850000D02*
X82550000Y-50150000D01*
X117525000Y-87500000D02*
X117525000Y-85275000D01*
X126750000Y-92350000D02*
X126750000Y-87000000D01*
X106775000Y-67225000D02*
X101750000Y-72250000D01*
X103200000Y-98250000D02*
X104050000Y-97400000D01*
X93100000Y-82650000D02*
X93100000Y-82750000D01*
X111612500Y-67225000D02*
X106775000Y-67225000D01*
X113548532Y-94850000D02*
X117525000Y-90873532D01*
X77087500Y-82500000D02*
X77000000Y-82587500D01*
X110800000Y-94850000D02*
X113548532Y-94850000D01*
X119550000Y-83250000D02*
X121162500Y-83250000D01*
X95250000Y-67000000D02*
X95250000Y-70500000D01*
X84700000Y-42250000D02*
X80250000Y-46700000D01*
X95250000Y-70500000D02*
X98500000Y-73750000D01*
%TO.N,+12V*%
X105000000Y-52450000D02*
X104950000Y-52500000D01*
X114025000Y-52475000D02*
X114050000Y-52450000D01*
X114050000Y-52450000D02*
X114050000Y-46000000D01*
X105000000Y-46000000D02*
X105000000Y-52450000D01*
%TO.N,/SDA*%
X94568310Y-88732669D02*
X94800979Y-88500000D01*
X94800979Y-88500000D02*
X110000000Y-88500000D01*
X110000000Y-88500000D02*
X112500000Y-91000000D01*
X112500000Y-91000000D02*
X112500000Y-94250000D01*
%TO.N,/I2S_LRCLK*%
X109500000Y-89100000D02*
X98150000Y-89100000D01*
X98150000Y-89100000D02*
X97250000Y-90000000D01*
%TO.N,/I2S_BCLK*%
X107879981Y-89900000D02*
X107679981Y-90100000D01*
X107679981Y-90100000D02*
X106584315Y-90100000D01*
X91390000Y-88390000D02*
X91390000Y-76090000D01*
X95348529Y-90999999D02*
X94598530Y-90250000D01*
X94598530Y-90250000D02*
X93250000Y-90250000D01*
X105684315Y-90999999D02*
X95348529Y-90999999D01*
X108750000Y-89900000D02*
X107879981Y-89900000D01*
X93250000Y-90250000D02*
X91390000Y-88390000D01*
X106584315Y-90100000D02*
X105684315Y-90999999D01*
%TO.N,/AUX_I2S_DATA*%
X108750000Y-90500000D02*
X106750000Y-90500000D01*
X105500000Y-91750000D02*
X95250000Y-91750000D01*
X106750000Y-90500000D02*
X105500000Y-91750000D01*
X95250000Y-91750000D02*
X94500000Y-91000000D01*
X109000000Y-90750000D02*
X108750000Y-90500000D01*
%TO.N,/SCL*%
X110750000Y-88000000D02*
X113300003Y-90550003D01*
X94750000Y-88000000D02*
X110750000Y-88000000D01*
X94497910Y-87922359D02*
X94672359Y-87922359D01*
X94672359Y-87922359D02*
X94750000Y-88000000D01*
X113300003Y-90550003D02*
X113300003Y-94250000D01*
%TO.N,/Mute*%
X99107182Y-62900000D02*
X96500000Y-62900000D01*
X109150000Y-52857182D02*
X99107182Y-62900000D01*
X109150000Y-52833013D02*
X109150000Y-52857182D01*
X96500000Y-62900000D02*
X88870000Y-62900000D01*
%TO.N,GNDA*%
X109750000Y-45500000D02*
X109750000Y-36540000D01*
X112000000Y-51500000D02*
X112000000Y-47000000D01*
X111000000Y-45500000D02*
X109750000Y-45500000D01*
X107000000Y-51500000D02*
X107000000Y-47000000D01*
X112000000Y-46500000D02*
X111000000Y-45500000D01*
X108000000Y-45500000D02*
X109750000Y-45500000D01*
X107000000Y-47000000D02*
X107000000Y-46500000D01*
X112000000Y-47000000D02*
X112000000Y-46500000D01*
X107000000Y-46500000D02*
X108000000Y-45500000D01*
X109750000Y-36540000D02*
X106960000Y-33750000D01*
%TO.N,Net-(IC1-~{SD})*%
X106750000Y-45500000D02*
X106250000Y-45500000D01*
X106250000Y-45500000D02*
X103000000Y-42250000D01*
X103000000Y-42250000D02*
X103000000Y-42162500D01*
%TO.N,D+*%
X77000000Y-31250000D02*
X77000000Y-49360000D01*
X77000000Y-49360000D02*
X79200000Y-51560000D01*
%TO.N,D-*%
X77000000Y-29250000D02*
X77750000Y-30000000D01*
X77750000Y-48750000D02*
X79200000Y-50200000D01*
X79200000Y-50200000D02*
X79200000Y-50290000D01*
X77750000Y-30000000D02*
X77750000Y-48750000D01*
%TO.N,/BT_I2S_DATA*%
X101000000Y-92500000D02*
X100750000Y-92750000D01*
X106000000Y-92500000D02*
X101000000Y-92500000D01*
X107261855Y-91238145D02*
X106000000Y-92500000D01*
X108045164Y-91238145D02*
X107261855Y-91238145D01*
%TO.N,/DSP_IN_SELECT*%
X113762174Y-90012174D02*
X90250000Y-66500000D01*
X87390000Y-66500000D02*
X83790000Y-62900000D01*
X90250000Y-66500000D02*
X87390000Y-66500000D01*
X113925000Y-90012174D02*
X113762174Y-90012174D01*
%TO.N,/EN*%
X76500102Y-79550000D02*
X76500102Y-68999898D01*
X76500102Y-68999898D02*
X84600000Y-60900000D01*
%TO.N,Net-(SS8050-E)*%
X81270000Y-59850000D02*
X74250000Y-52830000D01*
X86500000Y-59850000D02*
X81270000Y-59850000D01*
%TD*%
%TA.AperFunction,Conductor*%
%TO.N,GND*%
G36*
X90016942Y-67120185D02*
G01*
X90037584Y-67136819D01*
X110088584Y-87187819D01*
X110122069Y-87249142D01*
X110117085Y-87318834D01*
X110075213Y-87374767D01*
X110009749Y-87399184D01*
X110000903Y-87399500D01*
X95158491Y-87399500D01*
X95091452Y-87379815D01*
X95070814Y-87363185D01*
X95008199Y-87300570D01*
X95008198Y-87300569D01*
X95008197Y-87300568D01*
X94877095Y-87212968D01*
X94877082Y-87212961D01*
X94731411Y-87152623D01*
X94731399Y-87152620D01*
X94576755Y-87121859D01*
X94576752Y-87121859D01*
X94419068Y-87121859D01*
X94419065Y-87121859D01*
X94264420Y-87152620D01*
X94264408Y-87152623D01*
X94118737Y-87212961D01*
X94118724Y-87212968D01*
X93987621Y-87300569D01*
X93987617Y-87300572D01*
X93876123Y-87412066D01*
X93876120Y-87412070D01*
X93788519Y-87543173D01*
X93788512Y-87543186D01*
X93728174Y-87688857D01*
X93728171Y-87688869D01*
X93697410Y-87843512D01*
X93697410Y-88001205D01*
X93728171Y-88155848D01*
X93728174Y-88155860D01*
X93788512Y-88301531D01*
X93788519Y-88301543D01*
X93808436Y-88331351D01*
X93810808Y-88338927D01*
X93816219Y-88344739D01*
X93821099Y-88371794D01*
X93829314Y-88398028D01*
X93827529Y-88407437D01*
X93828623Y-88413499D01*
X93819894Y-88447696D01*
X93810962Y-88469259D01*
X93767121Y-88523662D01*
X93700826Y-88545726D01*
X93633127Y-88528446D01*
X93608721Y-88509486D01*
X93136819Y-88037584D01*
X93103334Y-87976261D01*
X93100500Y-87949903D01*
X93100500Y-83667847D01*
X93120185Y-83600808D01*
X93172989Y-83555053D01*
X93200309Y-83546230D01*
X93216291Y-83543050D01*
X93333497Y-83519737D01*
X93479179Y-83459394D01*
X93610289Y-83371789D01*
X93721789Y-83260289D01*
X93809394Y-83129179D01*
X93869737Y-82983497D01*
X93900500Y-82828842D01*
X93900500Y-82750097D01*
X93920185Y-82683058D01*
X93936819Y-82662416D01*
X94178082Y-82421153D01*
X94514662Y-82084572D01*
X94575983Y-82051089D01*
X94578150Y-82050638D01*
X94636085Y-82039113D01*
X94733497Y-82019737D01*
X94879179Y-81959394D01*
X95010289Y-81871789D01*
X95121789Y-81760289D01*
X95209394Y-81629179D01*
X95214404Y-81617085D01*
X95269735Y-81483501D01*
X95269737Y-81483497D01*
X95300500Y-81328842D01*
X95300500Y-81171158D01*
X95300500Y-81171155D01*
X95300499Y-81171153D01*
X95270788Y-81021789D01*
X95269737Y-81016503D01*
X95263117Y-81000520D01*
X95209397Y-80870827D01*
X95209390Y-80870814D01*
X95121789Y-80739711D01*
X95121786Y-80739707D01*
X95010292Y-80628213D01*
X95010288Y-80628210D01*
X94879185Y-80540609D01*
X94879172Y-80540602D01*
X94733501Y-80480264D01*
X94733489Y-80480261D01*
X94578845Y-80449500D01*
X94578842Y-80449500D01*
X94421158Y-80449500D01*
X94421155Y-80449500D01*
X94266510Y-80480261D01*
X94266498Y-80480264D01*
X94120827Y-80540602D01*
X94120814Y-80540609D01*
X93989711Y-80628210D01*
X93989707Y-80628213D01*
X93878213Y-80739707D01*
X93878210Y-80739711D01*
X93790609Y-80870814D01*
X93790602Y-80870827D01*
X93730264Y-81016498D01*
X93730261Y-81016508D01*
X93699361Y-81171850D01*
X93666976Y-81233761D01*
X93665425Y-81235339D01*
X93312181Y-81588584D01*
X93250858Y-81622069D01*
X93181167Y-81617085D01*
X93125233Y-81575214D01*
X93100816Y-81509749D01*
X93100500Y-81500903D01*
X93100500Y-77050096D01*
X93120185Y-76983057D01*
X93136815Y-76962419D01*
X93383506Y-76715727D01*
X93383511Y-76715724D01*
X93393714Y-76705520D01*
X93393716Y-76705520D01*
X93505520Y-76593716D01*
X93577420Y-76469181D01*
X93577421Y-76469180D01*
X93580324Y-76464150D01*
X93584577Y-76456785D01*
X93625500Y-76304057D01*
X93625500Y-76145943D01*
X93625500Y-74614059D01*
X93625501Y-74614046D01*
X93625501Y-74445945D01*
X93625501Y-74445943D01*
X93584577Y-74293215D01*
X93548379Y-74230519D01*
X93548379Y-74230518D01*
X93505522Y-74156287D01*
X93505521Y-74156286D01*
X93505520Y-74156284D01*
X93393716Y-74044480D01*
X93393715Y-74044479D01*
X93389385Y-74040149D01*
X93389374Y-74040139D01*
X89961819Y-70612584D01*
X89928334Y-70551261D01*
X89925500Y-70524903D01*
X89925500Y-70521155D01*
X89925499Y-70521153D01*
X89894738Y-70366510D01*
X89894737Y-70366503D01*
X89862048Y-70287584D01*
X89834397Y-70220827D01*
X89834390Y-70220814D01*
X89746789Y-70089711D01*
X89746786Y-70089707D01*
X89635292Y-69978213D01*
X89635288Y-69978210D01*
X89504185Y-69890609D01*
X89504172Y-69890602D01*
X89358501Y-69830264D01*
X89358489Y-69830261D01*
X89203845Y-69799500D01*
X89203842Y-69799500D01*
X89046158Y-69799500D01*
X89046155Y-69799500D01*
X88891510Y-69830261D01*
X88891498Y-69830264D01*
X88745827Y-69890602D01*
X88745816Y-69890608D01*
X88718390Y-69908934D01*
X88651712Y-69929811D01*
X88584332Y-69911326D01*
X88537643Y-69859346D01*
X88525500Y-69805831D01*
X88525500Y-68082940D01*
X88545185Y-68015901D01*
X88561814Y-67995263D01*
X88621789Y-67935289D01*
X88709394Y-67804179D01*
X88769737Y-67658497D01*
X88800500Y-67503842D01*
X88800500Y-67346158D01*
X88800500Y-67346155D01*
X88781113Y-67248692D01*
X88787340Y-67179100D01*
X88830203Y-67123923D01*
X88896093Y-67100678D01*
X88902730Y-67100500D01*
X89949903Y-67100500D01*
X90016942Y-67120185D01*
G37*
%TD.AperFunction*%
%TA.AperFunction,Conductor*%
G36*
X86317941Y-54520185D02*
G01*
X86363696Y-54572989D01*
X86373640Y-54642147D01*
X86344615Y-54705703D01*
X86338583Y-54712181D01*
X84912584Y-56138181D01*
X84851261Y-56171666D01*
X84824903Y-56174500D01*
X84332941Y-56174500D01*
X84265902Y-56154815D01*
X84245260Y-56138181D01*
X84240292Y-56133213D01*
X84240288Y-56133210D01*
X84109185Y-56045609D01*
X84109172Y-56045602D01*
X83963501Y-55985264D01*
X83963489Y-55985261D01*
X83808845Y-55954500D01*
X83808842Y-55954500D01*
X83651158Y-55954500D01*
X83651155Y-55954500D01*
X83496510Y-55985261D01*
X83496498Y-55985264D01*
X83350827Y-56045602D01*
X83350814Y-56045609D01*
X83219711Y-56133210D01*
X83219707Y-56133213D01*
X83108213Y-56244707D01*
X83108210Y-56244711D01*
X83020609Y-56375814D01*
X83020602Y-56375827D01*
X82960264Y-56521498D01*
X82960261Y-56521510D01*
X82929500Y-56676153D01*
X82929500Y-56833846D01*
X82960261Y-56988489D01*
X82960264Y-56988501D01*
X83020602Y-57134172D01*
X83020609Y-57134185D01*
X83108210Y-57265288D01*
X83108213Y-57265292D01*
X83219707Y-57376786D01*
X83219711Y-57376789D01*
X83350814Y-57464390D01*
X83350827Y-57464397D01*
X83496498Y-57524735D01*
X83496503Y-57524737D01*
X83651153Y-57555499D01*
X83651156Y-57555500D01*
X83651158Y-57555500D01*
X83808844Y-57555500D01*
X83808845Y-57555499D01*
X83963497Y-57524737D01*
X84109179Y-57464394D01*
X84115324Y-57460288D01*
X84210943Y-57396398D01*
X84277621Y-57375520D01*
X84279834Y-57375500D01*
X85038331Y-57375500D01*
X85038347Y-57375501D01*
X85045943Y-57375501D01*
X85204054Y-57375501D01*
X85204057Y-57375501D01*
X85356785Y-57334577D01*
X85406904Y-57305639D01*
X85493716Y-57255520D01*
X85605520Y-57143716D01*
X85605520Y-57143714D01*
X85615728Y-57133507D01*
X85615729Y-57133504D01*
X85937820Y-56811414D01*
X85999142Y-56777930D01*
X86068834Y-56782914D01*
X86124767Y-56824786D01*
X86149184Y-56890250D01*
X86149500Y-56899096D01*
X86149500Y-59125500D01*
X86129815Y-59192539D01*
X86077011Y-59238294D01*
X86025500Y-59249500D01*
X81570097Y-59249500D01*
X81503058Y-59229815D01*
X81482416Y-59213181D01*
X76981416Y-54712181D01*
X76947931Y-54650858D01*
X76952915Y-54581166D01*
X76994787Y-54525233D01*
X77060251Y-54500816D01*
X77069097Y-54500500D01*
X86250902Y-54500500D01*
X86317941Y-54520185D01*
G37*
%TD.AperFunction*%
%TA.AperFunction,Conductor*%
G36*
X70393134Y-25020185D02*
G01*
X70438889Y-25072989D01*
X70448833Y-25142147D01*
X70419808Y-25205703D01*
X70394986Y-25227602D01*
X70342218Y-25262860D01*
X70342214Y-25262863D01*
X70202863Y-25402214D01*
X70202860Y-25402218D01*
X70093371Y-25566079D01*
X70093364Y-25566092D01*
X70017950Y-25748160D01*
X70017947Y-25748170D01*
X69979500Y-25941456D01*
X69979500Y-25941459D01*
X69979500Y-26138541D01*
X69979500Y-26138543D01*
X69979499Y-26138543D01*
X70017947Y-26331829D01*
X70017950Y-26331839D01*
X70093364Y-26513907D01*
X70093371Y-26513920D01*
X70202860Y-26677781D01*
X70202863Y-26677785D01*
X70342214Y-26817136D01*
X70342218Y-26817139D01*
X70511151Y-26930017D01*
X70510180Y-26931470D01*
X70554109Y-26974619D01*
X70569571Y-27042757D01*
X70545741Y-27108437D01*
X70544190Y-27110502D01*
X70539489Y-27116627D01*
X70463719Y-27247863D01*
X70424500Y-27394234D01*
X70424500Y-27545765D01*
X70463719Y-27692136D01*
X70501602Y-27757750D01*
X70539485Y-27823365D01*
X70646635Y-27930515D01*
X70777865Y-28006281D01*
X70924234Y-28045500D01*
X70924236Y-28045500D01*
X71075764Y-28045500D01*
X71075766Y-28045500D01*
X71222135Y-28006281D01*
X71353365Y-27930515D01*
X71460515Y-27823365D01*
X71536281Y-27692135D01*
X71575500Y-27545766D01*
X71575500Y-27394234D01*
X71536281Y-27247865D01*
X71536278Y-27247859D01*
X71523947Y-27226501D01*
X71507473Y-27158602D01*
X71530325Y-27092574D01*
X71585245Y-27049383D01*
X71631333Y-27040500D01*
X72178543Y-27040500D01*
X72334462Y-27009485D01*
X72371835Y-27002051D01*
X72553914Y-26926632D01*
X72717782Y-26817139D01*
X72857139Y-26677782D01*
X72966632Y-26513914D01*
X73042051Y-26331835D01*
X73080500Y-26138541D01*
X73080500Y-25941459D01*
X73080500Y-25941456D01*
X73042052Y-25748170D01*
X73042051Y-25748169D01*
X73042051Y-25748165D01*
X73042049Y-25748160D01*
X72966635Y-25566092D01*
X72966628Y-25566079D01*
X72857139Y-25402218D01*
X72857136Y-25402214D01*
X72717785Y-25262863D01*
X72717781Y-25262860D01*
X72665014Y-25227602D01*
X72620209Y-25173990D01*
X72611502Y-25104665D01*
X72641657Y-25041637D01*
X72701100Y-25004918D01*
X72733905Y-25000500D01*
X129375500Y-25000500D01*
X129442539Y-25020185D01*
X129488294Y-25072989D01*
X129499500Y-25124500D01*
X129499500Y-98625500D01*
X129479815Y-98692539D01*
X129427011Y-98738294D01*
X129375500Y-98749500D01*
X103849096Y-98749500D01*
X103782057Y-98729815D01*
X103736302Y-98677011D01*
X103726358Y-98607853D01*
X103755383Y-98544297D01*
X103761415Y-98537819D01*
X104064665Y-98234570D01*
X104125984Y-98201088D01*
X104128151Y-98200637D01*
X104128840Y-98200500D01*
X104128842Y-98200500D01*
X104283497Y-98169737D01*
X104429179Y-98109394D01*
X104560289Y-98021789D01*
X104671789Y-97910289D01*
X104759394Y-97779179D01*
X104819737Y-97633497D01*
X104850500Y-97478842D01*
X104850500Y-97321158D01*
X104850500Y-97321155D01*
X104850499Y-97321153D01*
X104819738Y-97166510D01*
X104819738Y-97166508D01*
X104819737Y-97166503D01*
X104819735Y-97166498D01*
X104759397Y-97020827D01*
X104759390Y-97020814D01*
X104671789Y-96889711D01*
X104671786Y-96889707D01*
X104560292Y-96778213D01*
X104560288Y-96778210D01*
X104429185Y-96690609D01*
X104429172Y-96690602D01*
X104283501Y-96630264D01*
X104283489Y-96630261D01*
X104128845Y-96599500D01*
X104128842Y-96599500D01*
X103971158Y-96599500D01*
X103971155Y-96599500D01*
X103816510Y-96630261D01*
X103816498Y-96630264D01*
X103670827Y-96690602D01*
X103670814Y-96690609D01*
X103539711Y-96778210D01*
X103539707Y-96778213D01*
X103428213Y-96889707D01*
X103428210Y-96889711D01*
X103340609Y-97020814D01*
X103340602Y-97020827D01*
X103280264Y-97166498D01*
X103280261Y-97166508D01*
X103249362Y-97321849D01*
X103216977Y-97383759D01*
X103215426Y-97385338D01*
X102987584Y-97613181D01*
X102926261Y-97646666D01*
X102899903Y-97649500D01*
X99750097Y-97649500D01*
X99683058Y-97629815D01*
X99662416Y-97613181D01*
X97334574Y-95285339D01*
X97301089Y-95224016D01*
X97300638Y-95221849D01*
X97269738Y-95066510D01*
X97269737Y-95066503D01*
X97256062Y-95033489D01*
X97209397Y-94920827D01*
X97209390Y-94920814D01*
X97121789Y-94789711D01*
X97121786Y-94789707D01*
X97010292Y-94678213D01*
X97010288Y-94678210D01*
X96879185Y-94590609D01*
X96879172Y-94590602D01*
X96733501Y-94530264D01*
X96733489Y-94530261D01*
X96578845Y-94499500D01*
X96578842Y-94499500D01*
X96421158Y-94499500D01*
X96421155Y-94499500D01*
X96266510Y-94530261D01*
X96266498Y-94530264D01*
X96120827Y-94590602D01*
X96120814Y-94590609D01*
X95989711Y-94678210D01*
X95989707Y-94678213D01*
X95878213Y-94789707D01*
X95878210Y-94789711D01*
X95790609Y-94920814D01*
X95790602Y-94920827D01*
X95730264Y-95066498D01*
X95730261Y-95066510D01*
X95699500Y-95221153D01*
X95699500Y-95378846D01*
X95730261Y-95533489D01*
X95730264Y-95533501D01*
X95790602Y-95679172D01*
X95790609Y-95679185D01*
X95878210Y-95810288D01*
X95878213Y-95810292D01*
X95989707Y-95921786D01*
X95989711Y-95921789D01*
X96120814Y-96009390D01*
X96120827Y-96009397D01*
X96266498Y-96069735D01*
X96266503Y-96069737D01*
X96331147Y-96082595D01*
X96421849Y-96100638D01*
X96483760Y-96133023D01*
X96485339Y-96134574D01*
X98888584Y-98537819D01*
X98922069Y-98599142D01*
X98917085Y-98668834D01*
X98875213Y-98724767D01*
X98809749Y-98749184D01*
X98800903Y-98749500D01*
X66124500Y-98749500D01*
X66057461Y-98729815D01*
X66011706Y-98677011D01*
X66000500Y-98625500D01*
X66000500Y-95774000D01*
X66020185Y-95706961D01*
X66072989Y-95661206D01*
X66124500Y-95650000D01*
X72330000Y-95650000D01*
X72330000Y-52751153D01*
X73449500Y-52751153D01*
X73449500Y-52908846D01*
X73480261Y-53063489D01*
X73480264Y-53063501D01*
X73540602Y-53209172D01*
X73540609Y-53209185D01*
X73628210Y-53340288D01*
X73628213Y-53340292D01*
X73739707Y-53451786D01*
X73739711Y-53451789D01*
X73870814Y-53539390D01*
X73870827Y-53539397D01*
X74016498Y-53599735D01*
X74016503Y-53599737D01*
X74081147Y-53612595D01*
X74171849Y-53630638D01*
X74233760Y-53663023D01*
X74235339Y-53664574D01*
X80785139Y-60214374D01*
X80785149Y-60214385D01*
X80789479Y-60218715D01*
X80789480Y-60218716D01*
X80901284Y-60330520D01*
X80988095Y-60380639D01*
X80988097Y-60380641D01*
X81038213Y-60409576D01*
X81038215Y-60409577D01*
X81190942Y-60450500D01*
X81190943Y-60450500D01*
X83734155Y-60450500D01*
X83801194Y-60470185D01*
X83846949Y-60522989D01*
X83856893Y-60592147D01*
X83854374Y-60604889D01*
X83852165Y-60613624D01*
X83830263Y-60666503D01*
X83799500Y-60821158D01*
X83799500Y-60821968D01*
X83797964Y-60828045D01*
X83781754Y-60855508D01*
X83766977Y-60883759D01*
X83765426Y-60885337D01*
X76131388Y-68519376D01*
X76019583Y-68631180D01*
X76019581Y-68631183D01*
X75969463Y-68717992D01*
X75969461Y-68717994D01*
X75940527Y-68768107D01*
X75940526Y-68768108D01*
X75940525Y-68768113D01*
X75899601Y-68920841D01*
X75899601Y-68920843D01*
X75899601Y-69088944D01*
X75899602Y-69088957D01*
X75899602Y-78970234D01*
X75879917Y-79037273D01*
X75878704Y-79039125D01*
X75790711Y-79170814D01*
X75790704Y-79170827D01*
X75730366Y-79316498D01*
X75730363Y-79316510D01*
X75699602Y-79471153D01*
X75699602Y-79628846D01*
X75730363Y-79783489D01*
X75730366Y-79783501D01*
X75790704Y-79929172D01*
X75790711Y-79929185D01*
X75878312Y-80060288D01*
X75878315Y-80060292D01*
X75989809Y-80171786D01*
X75989813Y-80171789D01*
X76120916Y-80259390D01*
X76120929Y-80259397D01*
X76266600Y-80319735D01*
X76266605Y-80319737D01*
X76421255Y-80350499D01*
X76421258Y-80350500D01*
X76421260Y-80350500D01*
X76578946Y-80350500D01*
X76578947Y-80350499D01*
X76733599Y-80319737D01*
X76879281Y-80259394D01*
X77010391Y-80171789D01*
X77121891Y-80060289D01*
X77209496Y-79929179D01*
X77269839Y-79783497D01*
X77300602Y-79628842D01*
X77300602Y-79471158D01*
X77300602Y-79471155D01*
X77300601Y-79471153D01*
X77269840Y-79316510D01*
X77269839Y-79316503D01*
X77269837Y-79316498D01*
X77209499Y-79170827D01*
X77209492Y-79170814D01*
X77121500Y-79039125D01*
X77100622Y-78972447D01*
X77100602Y-78970234D01*
X77100602Y-69299995D01*
X77120287Y-69232956D01*
X77136921Y-69212314D01*
X79971025Y-66378210D01*
X82969542Y-63379692D01*
X83030863Y-63346209D01*
X83100555Y-63351193D01*
X83156488Y-63393065D01*
X83160324Y-63398485D01*
X83168212Y-63410291D01*
X83279707Y-63521786D01*
X83279711Y-63521789D01*
X83410814Y-63609390D01*
X83410827Y-63609397D01*
X83556498Y-63669735D01*
X83556503Y-63669737D01*
X83621147Y-63682595D01*
X83711849Y-63700638D01*
X83773760Y-63733023D01*
X83775339Y-63734574D01*
X86905139Y-66864374D01*
X86905149Y-66864385D01*
X86909479Y-66868715D01*
X86909480Y-66868716D01*
X87021284Y-66980520D01*
X87108095Y-67030639D01*
X87158215Y-67059577D01*
X87160153Y-67060096D01*
X87168627Y-67064892D01*
X87187877Y-67084737D01*
X87209407Y-67102086D01*
X87211862Y-67109463D01*
X87217275Y-67115043D01*
X87222739Y-67142141D01*
X87231473Y-67168379D01*
X87230490Y-67180578D01*
X87231087Y-67183534D01*
X87230036Y-67186225D01*
X87229169Y-67196999D01*
X87199500Y-67346153D01*
X87199500Y-67503846D01*
X87230261Y-67658489D01*
X87230264Y-67658501D01*
X87290603Y-67804174D01*
X87290604Y-67804175D01*
X87290606Y-67804179D01*
X87303602Y-67823628D01*
X87324480Y-67890305D01*
X87324500Y-67892519D01*
X87324500Y-74574902D01*
X87304815Y-74641941D01*
X87288181Y-74662583D01*
X78172920Y-83777843D01*
X78111597Y-83811328D01*
X78109431Y-83811779D01*
X78016509Y-83830262D01*
X78016499Y-83830265D01*
X77870828Y-83890603D01*
X77870815Y-83890610D01*
X77793391Y-83942344D01*
X77726713Y-83963222D01*
X77659333Y-83944737D01*
X77612643Y-83892758D01*
X77600500Y-83839242D01*
X77600500Y-83170440D01*
X77620185Y-83103401D01*
X77636814Y-83082763D01*
X77709289Y-83010289D01*
X77796894Y-82879179D01*
X77800354Y-82870827D01*
X77842332Y-82769480D01*
X77857237Y-82733497D01*
X77888000Y-82578842D01*
X77888000Y-82421158D01*
X77888000Y-82421155D01*
X77887999Y-82421153D01*
X77874677Y-82354179D01*
X77857237Y-82266503D01*
X77833212Y-82208501D01*
X77796897Y-82120827D01*
X77796890Y-82120814D01*
X77709289Y-81989711D01*
X77709286Y-81989707D01*
X77597792Y-81878213D01*
X77597788Y-81878210D01*
X77466685Y-81790609D01*
X77466672Y-81790602D01*
X77321001Y-81730264D01*
X77320989Y-81730261D01*
X77166345Y-81699500D01*
X77166342Y-81699500D01*
X77008658Y-81699500D01*
X77008655Y-81699500D01*
X76854010Y-81730261D01*
X76853998Y-81730264D01*
X76708327Y-81790602D01*
X76708314Y-81790609D01*
X76577211Y-81878210D01*
X76577207Y-81878213D01*
X76465713Y-81989707D01*
X76465710Y-81989711D01*
X76378109Y-82120814D01*
X76378102Y-82120827D01*
X76317764Y-82266498D01*
X76317761Y-82266510D01*
X76287000Y-82421153D01*
X76287000Y-82578846D01*
X76317761Y-82733489D01*
X76317764Y-82733501D01*
X76378102Y-82879170D01*
X76378106Y-82879179D01*
X76378599Y-82879917D01*
X76378739Y-82880363D01*
X76380975Y-82884546D01*
X76380181Y-82884970D01*
X76399480Y-82946590D01*
X76399500Y-82948811D01*
X76399500Y-85825830D01*
X76399499Y-85825848D01*
X76399499Y-85991554D01*
X76399498Y-85991554D01*
X76440423Y-86144285D01*
X76469358Y-86194400D01*
X76469359Y-86194404D01*
X76469360Y-86194404D01*
X76519479Y-86281214D01*
X76519481Y-86281217D01*
X76638349Y-86400085D01*
X76638355Y-86400090D01*
X78001904Y-87763639D01*
X78001914Y-87763650D01*
X78006244Y-87767980D01*
X78006245Y-87767981D01*
X78118049Y-87879785D01*
X78169610Y-87909553D01*
X78204860Y-87929904D01*
X78204862Y-87929906D01*
X78254978Y-87958841D01*
X78254980Y-87958842D01*
X78407707Y-87999765D01*
X78407708Y-87999765D01*
X83920234Y-87999765D01*
X83987273Y-88019450D01*
X83989125Y-88020663D01*
X84120814Y-88108655D01*
X84120827Y-88108662D01*
X84234775Y-88155860D01*
X84266503Y-88169002D01*
X84421153Y-88199764D01*
X84421156Y-88199765D01*
X84421158Y-88199765D01*
X84578844Y-88199765D01*
X84578845Y-88199764D01*
X84733497Y-88169002D01*
X84879179Y-88108659D01*
X85010289Y-88021054D01*
X85121789Y-87909554D01*
X85209394Y-87778444D01*
X85269737Y-87632762D01*
X85300500Y-87478107D01*
X85300500Y-87320423D01*
X85300500Y-87320420D01*
X85300499Y-87320418D01*
X85289776Y-87266510D01*
X85269737Y-87165768D01*
X85264291Y-87152620D01*
X85209397Y-87020092D01*
X85209390Y-87020079D01*
X85121789Y-86888976D01*
X85121786Y-86888972D01*
X85010292Y-86777478D01*
X85010288Y-86777475D01*
X84879185Y-86689874D01*
X84879172Y-86689867D01*
X84733501Y-86629529D01*
X84733489Y-86629526D01*
X84578845Y-86598765D01*
X84578842Y-86598765D01*
X84421158Y-86598765D01*
X84421155Y-86598765D01*
X84266510Y-86629526D01*
X84266498Y-86629529D01*
X84120827Y-86689867D01*
X84120814Y-86689874D01*
X83989125Y-86777867D01*
X83922447Y-86798745D01*
X83920234Y-86798765D01*
X78786862Y-86798765D01*
X78719823Y-86779080D01*
X78699181Y-86762446D01*
X77636819Y-85700084D01*
X77603334Y-85638761D01*
X77600500Y-85612403D01*
X77600500Y-85360759D01*
X77620185Y-85293720D01*
X77672989Y-85247965D01*
X77742147Y-85238021D01*
X77793388Y-85257655D01*
X77870822Y-85309395D01*
X77870824Y-85309396D01*
X77870828Y-85309398D01*
X78016499Y-85369736D01*
X78016504Y-85369738D01*
X78171154Y-85400500D01*
X78171157Y-85400501D01*
X78171159Y-85400501D01*
X78328845Y-85400501D01*
X78328846Y-85400500D01*
X78483498Y-85369738D01*
X78629180Y-85309395D01*
X78760290Y-85221790D01*
X78871790Y-85110290D01*
X78959395Y-84979180D01*
X78967985Y-84958443D01*
X79019736Y-84833502D01*
X79019738Y-84833498D01*
X79050501Y-84678843D01*
X79050501Y-84650096D01*
X79070186Y-84583057D01*
X79086820Y-84562415D01*
X83328082Y-80321153D01*
X85529500Y-80321153D01*
X85529500Y-80478846D01*
X85560261Y-80633489D01*
X85560264Y-80633501D01*
X85620602Y-80779172D01*
X85620609Y-80779185D01*
X85708210Y-80910288D01*
X85708213Y-80910292D01*
X85819707Y-81021786D01*
X85819711Y-81021789D01*
X85950814Y-81109390D01*
X85950827Y-81109397D01*
X86096498Y-81169735D01*
X86096503Y-81169737D01*
X86251153Y-81200499D01*
X86251156Y-81200500D01*
X86251158Y-81200500D01*
X86408844Y-81200500D01*
X86408845Y-81200499D01*
X86563497Y-81169737D01*
X86709179Y-81109394D01*
X86709185Y-81109390D01*
X86840875Y-81021398D01*
X86907553Y-81000520D01*
X86909766Y-81000500D01*
X87724903Y-81000500D01*
X87791942Y-81020185D01*
X87812584Y-81036819D01*
X88765425Y-81989660D01*
X88798910Y-82050983D01*
X88799361Y-82053149D01*
X88830261Y-82208491D01*
X88830264Y-82208501D01*
X88890602Y-82354172D01*
X88890609Y-82354185D01*
X88978210Y-82485288D01*
X88978213Y-82485292D01*
X89089707Y-82596786D01*
X89089711Y-82596789D01*
X89220814Y-82684390D01*
X89220827Y-82684397D01*
X89354359Y-82739707D01*
X89366503Y-82744737D01*
X89490894Y-82769480D01*
X89521153Y-82775499D01*
X89521156Y-82775500D01*
X89521158Y-82775500D01*
X89678844Y-82775500D01*
X89678845Y-82775499D01*
X89833497Y-82744737D01*
X89979179Y-82684394D01*
X90110289Y-82596789D01*
X90221789Y-82485289D01*
X90309394Y-82354179D01*
X90369737Y-82208497D01*
X90400500Y-82053842D01*
X90400500Y-81896158D01*
X90400500Y-81896155D01*
X90400499Y-81896153D01*
X90395652Y-81871786D01*
X90369737Y-81741503D01*
X90365081Y-81730263D01*
X90309397Y-81595827D01*
X90309390Y-81595814D01*
X90221789Y-81464711D01*
X90221786Y-81464707D01*
X90110292Y-81353213D01*
X90110288Y-81353210D01*
X89979185Y-81265609D01*
X89979172Y-81265602D01*
X89833501Y-81205264D01*
X89833491Y-81205261D01*
X89678149Y-81174361D01*
X89616238Y-81141976D01*
X89614660Y-81140425D01*
X88512590Y-80038355D01*
X88512588Y-80038352D01*
X88393717Y-79919481D01*
X88393712Y-79919477D01*
X88287449Y-79858127D01*
X88287447Y-79858126D01*
X88256787Y-79840424D01*
X88256786Y-79840423D01*
X88256785Y-79840423D01*
X88104057Y-79799499D01*
X87945943Y-79799499D01*
X87938347Y-79799499D01*
X87938331Y-79799500D01*
X86909766Y-79799500D01*
X86842727Y-79779815D01*
X86840875Y-79778602D01*
X86709185Y-79690609D01*
X86709172Y-79690602D01*
X86563501Y-79630264D01*
X86563489Y-79630261D01*
X86408845Y-79599500D01*
X86408842Y-79599500D01*
X86251158Y-79599500D01*
X86251155Y-79599500D01*
X86096510Y-79630261D01*
X86096498Y-79630264D01*
X85950827Y-79690602D01*
X85950814Y-79690609D01*
X85819711Y-79778210D01*
X85819707Y-79778213D01*
X85708213Y-79889707D01*
X85708210Y-79889711D01*
X85620609Y-80020814D01*
X85620602Y-80020827D01*
X85560264Y-80166498D01*
X85560261Y-80166510D01*
X85529500Y-80321153D01*
X83328082Y-80321153D01*
X83720063Y-79929172D01*
X88405520Y-75243716D01*
X88484577Y-75106785D01*
X88525501Y-74954057D01*
X88525501Y-74795942D01*
X88525501Y-74788347D01*
X88525500Y-74788329D01*
X88525500Y-71394168D01*
X88545185Y-71327129D01*
X88597989Y-71281374D01*
X88667147Y-71271430D01*
X88718392Y-71291067D01*
X88745812Y-71309389D01*
X88745827Y-71309397D01*
X88891498Y-71369735D01*
X88891503Y-71369737D01*
X88967365Y-71384827D01*
X89015641Y-71394430D01*
X89077552Y-71426815D01*
X89079131Y-71428366D01*
X92388181Y-74737416D01*
X92421666Y-74798739D01*
X92424500Y-74825097D01*
X92424500Y-75924902D01*
X92415840Y-75954392D01*
X92409283Y-75984418D01*
X92405570Y-75989369D01*
X92404815Y-75991941D01*
X92388109Y-76012655D01*
X92387501Y-76013262D01*
X92326150Y-76046697D01*
X92256463Y-76041655D01*
X92200564Y-75999738D01*
X92178276Y-75949704D01*
X92159737Y-75856503D01*
X92159735Y-75856498D01*
X92099397Y-75710827D01*
X92099390Y-75710814D01*
X92011789Y-75579711D01*
X92011786Y-75579707D01*
X91900292Y-75468213D01*
X91900288Y-75468210D01*
X91769185Y-75380609D01*
X91769172Y-75380602D01*
X91623501Y-75320264D01*
X91623489Y-75320261D01*
X91468845Y-75289500D01*
X91468842Y-75289500D01*
X91311158Y-75289500D01*
X91311155Y-75289500D01*
X91156510Y-75320261D01*
X91156498Y-75320264D01*
X91010827Y-75380602D01*
X91010814Y-75380609D01*
X90879711Y-75468210D01*
X90879707Y-75468213D01*
X90768213Y-75579707D01*
X90768210Y-75579711D01*
X90680609Y-75710814D01*
X90680602Y-75710827D01*
X90620264Y-75856498D01*
X90620261Y-75856510D01*
X90589500Y-76011153D01*
X90589500Y-76168846D01*
X90620261Y-76323489D01*
X90620264Y-76323501D01*
X90680602Y-76469172D01*
X90680607Y-76469181D01*
X90768602Y-76600874D01*
X90789480Y-76667551D01*
X90789500Y-76669765D01*
X90789500Y-88303330D01*
X90789499Y-88303348D01*
X90789499Y-88469054D01*
X90789498Y-88469054D01*
X90830423Y-88621785D01*
X90848797Y-88653608D01*
X90848798Y-88653612D01*
X90909475Y-88758709D01*
X90909481Y-88758717D01*
X91028349Y-88877585D01*
X91028355Y-88877590D01*
X92765139Y-90614374D01*
X92765149Y-90614385D01*
X92769479Y-90618715D01*
X92769480Y-90618716D01*
X92881284Y-90730520D01*
X92968095Y-90780639D01*
X92968097Y-90780641D01*
X93018213Y-90809576D01*
X93018215Y-90809577D01*
X93170942Y-90850500D01*
X93170943Y-90850500D01*
X93575500Y-90850500D01*
X93642539Y-90870185D01*
X93688294Y-90922989D01*
X93699500Y-90974500D01*
X93699500Y-91078846D01*
X93730261Y-91233489D01*
X93730264Y-91233501D01*
X93790602Y-91379172D01*
X93790609Y-91379185D01*
X93878210Y-91510288D01*
X93878213Y-91510292D01*
X93989707Y-91621786D01*
X93989711Y-91621789D01*
X94120814Y-91709390D01*
X94120827Y-91709397D01*
X94266498Y-91769735D01*
X94266503Y-91769737D01*
X94331147Y-91782595D01*
X94421849Y-91800638D01*
X94483760Y-91833023D01*
X94485339Y-91834574D01*
X94765139Y-92114374D01*
X94765149Y-92114385D01*
X94769479Y-92118715D01*
X94769480Y-92118716D01*
X94881284Y-92230520D01*
X94946576Y-92268216D01*
X95018215Y-92309577D01*
X95170943Y-92350500D01*
X95329057Y-92350500D01*
X99863445Y-92350500D01*
X99930484Y-92370185D01*
X99976239Y-92422989D01*
X99986183Y-92492147D01*
X99981159Y-92510411D01*
X99982031Y-92510676D01*
X99980261Y-92516510D01*
X99949500Y-92671153D01*
X99949500Y-92828846D01*
X99980261Y-92983489D01*
X99980264Y-92983501D01*
X100040602Y-93129172D01*
X100040609Y-93129185D01*
X100128210Y-93260288D01*
X100128213Y-93260292D01*
X100239707Y-93371786D01*
X100239711Y-93371789D01*
X100370814Y-93459390D01*
X100370827Y-93459397D01*
X100504246Y-93514660D01*
X100516503Y-93519737D01*
X100662285Y-93548735D01*
X100671153Y-93550499D01*
X100671156Y-93550500D01*
X100671158Y-93550500D01*
X100828844Y-93550500D01*
X100828845Y-93550499D01*
X100983497Y-93519737D01*
X101102130Y-93470598D01*
X101129172Y-93459397D01*
X101129172Y-93459396D01*
X101129179Y-93459394D01*
X101260289Y-93371789D01*
X101371789Y-93260289D01*
X101441734Y-93155608D01*
X101495346Y-93110804D01*
X101544836Y-93100500D01*
X105913331Y-93100500D01*
X105913347Y-93100501D01*
X105920943Y-93100501D01*
X106079054Y-93100501D01*
X106079057Y-93100501D01*
X106231785Y-93059577D01*
X106281904Y-93030639D01*
X106368716Y-92980520D01*
X106480520Y-92868716D01*
X106480520Y-92868714D01*
X106490728Y-92858507D01*
X106490729Y-92858504D01*
X107435598Y-91913636D01*
X107496919Y-91880153D01*
X107566611Y-91885137D01*
X107592167Y-91898217D01*
X107665973Y-91947532D01*
X107665982Y-91947537D01*
X107665985Y-91947539D01*
X107665987Y-91947539D01*
X107665991Y-91947542D01*
X107811662Y-92007880D01*
X107811667Y-92007882D01*
X107966317Y-92038644D01*
X107966320Y-92038645D01*
X107966322Y-92038645D01*
X108124008Y-92038645D01*
X108124009Y-92038644D01*
X108278661Y-92007882D01*
X108424343Y-91947539D01*
X108555453Y-91859934D01*
X108666953Y-91748434D01*
X108754558Y-91617324D01*
X108754562Y-91617312D01*
X108757428Y-91611953D01*
X108758905Y-91612742D01*
X108797697Y-91564593D01*
X108863989Y-91542521D01*
X108892621Y-91544824D01*
X108921155Y-91550500D01*
X108921158Y-91550500D01*
X109078844Y-91550500D01*
X109078845Y-91550499D01*
X109233497Y-91519737D01*
X109379179Y-91459394D01*
X109510289Y-91371789D01*
X109621789Y-91260289D01*
X109709394Y-91129179D01*
X109713728Y-91118717D01*
X109769735Y-90983501D01*
X109769737Y-90983497D01*
X109800500Y-90828842D01*
X109800500Y-90671158D01*
X109800500Y-90671155D01*
X109800499Y-90671153D01*
X109769737Y-90516503D01*
X109720099Y-90396665D01*
X109709397Y-90370827D01*
X109709390Y-90370814D01*
X109621789Y-90239711D01*
X109621786Y-90239707D01*
X109565913Y-90183834D01*
X109562108Y-90176866D01*
X109555669Y-90172223D01*
X109545602Y-90146638D01*
X109532428Y-90122511D01*
X109532342Y-90112936D01*
X109530087Y-90107204D01*
X109531977Y-90071961D01*
X109549394Y-89984403D01*
X109581779Y-89922492D01*
X109642495Y-89887918D01*
X109646764Y-89886989D01*
X109733497Y-89869737D01*
X109879179Y-89809394D01*
X110010289Y-89721789D01*
X110031578Y-89700500D01*
X110103741Y-89628338D01*
X110165064Y-89594853D01*
X110234756Y-89599837D01*
X110279103Y-89628338D01*
X111863181Y-91212416D01*
X111896666Y-91273739D01*
X111899500Y-91300097D01*
X111899500Y-93670234D01*
X111879815Y-93737273D01*
X111878602Y-93739125D01*
X111790609Y-93870814D01*
X111790602Y-93870827D01*
X111730264Y-94016498D01*
X111730261Y-94016508D01*
X111703769Y-94149692D01*
X111689054Y-94177822D01*
X111675865Y-94206703D01*
X111672975Y-94208559D01*
X111671384Y-94211603D01*
X111643791Y-94227315D01*
X111617087Y-94244477D01*
X111612493Y-94245137D01*
X111610668Y-94246177D01*
X111582152Y-94249500D01*
X111382940Y-94249500D01*
X111315901Y-94229815D01*
X111295258Y-94213180D01*
X111260292Y-94178213D01*
X111260288Y-94178210D01*
X111129185Y-94090609D01*
X111129172Y-94090602D01*
X110983501Y-94030264D01*
X110983489Y-94030261D01*
X110828845Y-93999500D01*
X110828842Y-93999500D01*
X110671158Y-93999500D01*
X110671155Y-93999500D01*
X110516510Y-94030261D01*
X110516498Y-94030264D01*
X110370827Y-94090602D01*
X110370814Y-94090609D01*
X110239711Y-94178210D01*
X110239707Y-94178213D01*
X110128213Y-94289707D01*
X110128210Y-94289711D01*
X110040609Y-94420814D01*
X110040602Y-94420827D01*
X109980264Y-94566498D01*
X109980261Y-94566510D01*
X109949500Y-94721153D01*
X109949500Y-94878846D01*
X109980261Y-95033489D01*
X109980264Y-95033501D01*
X110040602Y-95179172D01*
X110040609Y-95179185D01*
X110128210Y-95310288D01*
X110128213Y-95310292D01*
X110239707Y-95421786D01*
X110239711Y-95421789D01*
X110370814Y-95509390D01*
X110370827Y-95509397D01*
X110516498Y-95569735D01*
X110516503Y-95569737D01*
X110671153Y-95600499D01*
X110671156Y-95600500D01*
X110671158Y-95600500D01*
X110828844Y-95600500D01*
X110828845Y-95600499D01*
X110983497Y-95569737D01*
X111129179Y-95509394D01*
X111186044Y-95471397D01*
X111252721Y-95450520D01*
X111254935Y-95450500D01*
X113461863Y-95450500D01*
X113461879Y-95450501D01*
X113469475Y-95450501D01*
X113627586Y-95450501D01*
X113627589Y-95450501D01*
X113780317Y-95409577D01*
X113837668Y-95376465D01*
X113917248Y-95330520D01*
X114029052Y-95218716D01*
X114029052Y-95218714D01*
X114039256Y-95208511D01*
X114039260Y-95208506D01*
X115826613Y-93421153D01*
X124799500Y-93421153D01*
X124799500Y-93578846D01*
X124830261Y-93733489D01*
X124830264Y-93733501D01*
X124890602Y-93879172D01*
X124890609Y-93879185D01*
X124978210Y-94010288D01*
X124978213Y-94010292D01*
X125089707Y-94121786D01*
X125089711Y-94121789D01*
X125220814Y-94209390D01*
X125220827Y-94209397D01*
X125317646Y-94249500D01*
X125366503Y-94269737D01*
X125521153Y-94300499D01*
X125521156Y-94300500D01*
X125521158Y-94300500D01*
X125678844Y-94300500D01*
X125678845Y-94300499D01*
X125833497Y-94269737D01*
X125979179Y-94209394D01*
X126110289Y-94121789D01*
X126221789Y-94010289D01*
X126309394Y-93879179D01*
X126312854Y-93870827D01*
X126367163Y-93739711D01*
X126369737Y-93733497D01*
X126389113Y-93636085D01*
X126400638Y-93578150D01*
X126433023Y-93516239D01*
X126434516Y-93514718D01*
X127230520Y-92718716D01*
X127309577Y-92581784D01*
X127350501Y-92429057D01*
X127350501Y-92270942D01*
X127350501Y-92263347D01*
X127350500Y-92263329D01*
X127350500Y-87579765D01*
X127370185Y-87512726D01*
X127371398Y-87510874D01*
X127431347Y-87421155D01*
X127459394Y-87379179D01*
X127461222Y-87374767D01*
X127483733Y-87320418D01*
X127519737Y-87233497D01*
X127550500Y-87078842D01*
X127550500Y-86921158D01*
X127550500Y-86921155D01*
X127550499Y-86921153D01*
X127550316Y-86920234D01*
X127519737Y-86766503D01*
X127518057Y-86762446D01*
X127459397Y-86620827D01*
X127459390Y-86620814D01*
X127371789Y-86489711D01*
X127371786Y-86489707D01*
X127260292Y-86378213D01*
X127260288Y-86378210D01*
X127129185Y-86290609D01*
X127129172Y-86290602D01*
X126983501Y-86230264D01*
X126983489Y-86230261D01*
X126828845Y-86199500D01*
X126828842Y-86199500D01*
X126671158Y-86199500D01*
X126671155Y-86199500D01*
X126516510Y-86230261D01*
X126516498Y-86230264D01*
X126370827Y-86290602D01*
X126370814Y-86290609D01*
X126239711Y-86378210D01*
X126239707Y-86378213D01*
X126128213Y-86489707D01*
X126128210Y-86489711D01*
X126040609Y-86620814D01*
X126040602Y-86620827D01*
X125980264Y-86766498D01*
X125980261Y-86766510D01*
X125949500Y-86921153D01*
X125949500Y-87078846D01*
X125980261Y-87233489D01*
X125980264Y-87233501D01*
X126040602Y-87379172D01*
X126040609Y-87379185D01*
X126128602Y-87510874D01*
X126149480Y-87577551D01*
X126149500Y-87579765D01*
X126149500Y-92049902D01*
X126129815Y-92116941D01*
X126113181Y-92137583D01*
X125585339Y-92665425D01*
X125524016Y-92698910D01*
X125521850Y-92699361D01*
X125366508Y-92730261D01*
X125366498Y-92730264D01*
X125220827Y-92790602D01*
X125220814Y-92790609D01*
X125089711Y-92878210D01*
X125089707Y-92878213D01*
X124978213Y-92989707D01*
X124978210Y-92989711D01*
X124890609Y-93120814D01*
X124890602Y-93120827D01*
X124830264Y-93266498D01*
X124830261Y-93266510D01*
X124799500Y-93421153D01*
X115826613Y-93421153D01*
X117883506Y-91364260D01*
X117883511Y-91364256D01*
X117893714Y-91354052D01*
X117893716Y-91354052D01*
X118005520Y-91242248D01*
X118076841Y-91118716D01*
X118084577Y-91105317D01*
X118125501Y-90952589D01*
X118125501Y-90794475D01*
X118125501Y-90786880D01*
X118125500Y-90786862D01*
X118125500Y-88079765D01*
X118145185Y-88012726D01*
X118146398Y-88010874D01*
X118153822Y-87999764D01*
X118234394Y-87879179D01*
X118294737Y-87733497D01*
X118325500Y-87578842D01*
X118325500Y-87421158D01*
X118325500Y-87421155D01*
X118325499Y-87421153D01*
X118316272Y-87374767D01*
X118294737Y-87266503D01*
X118272561Y-87212965D01*
X118234397Y-87120827D01*
X118234390Y-87120814D01*
X118146398Y-86989125D01*
X118125520Y-86922447D01*
X118125500Y-86920234D01*
X118125500Y-85854765D01*
X118145185Y-85787726D01*
X118146398Y-85785874D01*
X118234390Y-85654185D01*
X118234390Y-85654184D01*
X118234394Y-85654179D01*
X118294737Y-85508497D01*
X118322338Y-85369738D01*
X118325638Y-85353150D01*
X118358023Y-85291239D01*
X118359518Y-85289716D01*
X119762416Y-83886819D01*
X119823739Y-83853334D01*
X119850097Y-83850500D01*
X120582734Y-83850500D01*
X120649773Y-83870185D01*
X120651625Y-83871398D01*
X120783314Y-83959390D01*
X120783327Y-83959397D01*
X120928998Y-84019735D01*
X120929003Y-84019737D01*
X120993647Y-84032595D01*
X121084349Y-84050638D01*
X121146260Y-84083023D01*
X121147839Y-84084574D01*
X122313181Y-85249916D01*
X122346666Y-85311239D01*
X122349500Y-85337597D01*
X122349500Y-86670234D01*
X122329815Y-86737273D01*
X122328602Y-86739125D01*
X122240609Y-86870814D01*
X122240602Y-86870827D01*
X122180264Y-87016498D01*
X122180261Y-87016510D01*
X122149500Y-87171153D01*
X122149500Y-87328846D01*
X122180261Y-87483489D01*
X122180264Y-87483501D01*
X122240602Y-87629172D01*
X122240609Y-87629185D01*
X122328210Y-87760288D01*
X122328213Y-87760292D01*
X122439707Y-87871786D01*
X122439711Y-87871789D01*
X122570814Y-87959390D01*
X122570827Y-87959397D01*
X122699577Y-88012726D01*
X122716503Y-88019737D01*
X122871153Y-88050499D01*
X122871156Y-88050500D01*
X122871158Y-88050500D01*
X123028844Y-88050500D01*
X123028845Y-88050499D01*
X123183497Y-88019737D01*
X123329179Y-87959394D01*
X123460289Y-87871789D01*
X123571789Y-87760289D01*
X123659394Y-87629179D01*
X123719737Y-87483497D01*
X123750500Y-87328842D01*
X123750500Y-87171158D01*
X123750500Y-87171155D01*
X123750499Y-87171153D01*
X123746813Y-87152622D01*
X123719737Y-87016503D01*
X123719735Y-87016498D01*
X123659397Y-86870827D01*
X123659390Y-86870814D01*
X123571398Y-86739125D01*
X123550520Y-86672447D01*
X123550500Y-86670234D01*
X123550500Y-85126560D01*
X123550501Y-85126547D01*
X123550501Y-84958444D01*
X123550501Y-84958443D01*
X123509577Y-84805716D01*
X123436328Y-84678843D01*
X123430524Y-84668790D01*
X123430518Y-84668782D01*
X121997073Y-83235337D01*
X121963588Y-83174014D01*
X121963137Y-83171847D01*
X121954648Y-83129172D01*
X121932237Y-83016503D01*
X121918562Y-82983489D01*
X121871897Y-82870827D01*
X121871890Y-82870814D01*
X121784289Y-82739711D01*
X121784286Y-82739707D01*
X121672792Y-82628213D01*
X121672788Y-82628210D01*
X121541685Y-82540609D01*
X121541672Y-82540602D01*
X121396001Y-82480264D01*
X121395989Y-82480261D01*
X121241345Y-82449500D01*
X121241342Y-82449500D01*
X121083658Y-82449500D01*
X121083655Y-82449500D01*
X120929010Y-82480261D01*
X120928998Y-82480264D01*
X120783327Y-82540602D01*
X120783314Y-82540609D01*
X120651625Y-82628602D01*
X120584947Y-82649480D01*
X120582734Y-82649500D01*
X119470940Y-82649500D01*
X119430019Y-82660464D01*
X119430019Y-82660465D01*
X119392751Y-82670451D01*
X119318214Y-82690423D01*
X119318209Y-82690426D01*
X119181290Y-82769475D01*
X119181282Y-82769481D01*
X117510339Y-84440425D01*
X117449016Y-84473910D01*
X117446850Y-84474361D01*
X117291508Y-84505261D01*
X117291498Y-84505264D01*
X117145827Y-84565602D01*
X117145814Y-84565609D01*
X117014711Y-84653210D01*
X117014707Y-84653213D01*
X116903213Y-84764707D01*
X116903210Y-84764711D01*
X116815609Y-84895814D01*
X116815602Y-84895827D01*
X116755264Y-85041498D01*
X116755261Y-85041510D01*
X116724500Y-85196153D01*
X116724500Y-85353846D01*
X116755261Y-85508489D01*
X116755264Y-85508501D01*
X116815602Y-85654172D01*
X116815609Y-85654185D01*
X116903602Y-85785874D01*
X116924480Y-85852551D01*
X116924500Y-85854765D01*
X116924500Y-86920234D01*
X116904815Y-86987273D01*
X116903602Y-86989125D01*
X116815609Y-87120814D01*
X116815602Y-87120827D01*
X116755264Y-87266498D01*
X116755261Y-87266510D01*
X116724500Y-87421153D01*
X116724500Y-87578846D01*
X116755261Y-87733489D01*
X116755264Y-87733501D01*
X116815602Y-87879172D01*
X116815609Y-87879185D01*
X116903602Y-88010874D01*
X116924480Y-88077551D01*
X116924500Y-88079765D01*
X116924500Y-90573435D01*
X116904815Y-90640474D01*
X116888181Y-90661116D01*
X114112184Y-93437113D01*
X114050861Y-93470598D01*
X113981169Y-93465614D01*
X113925236Y-93423742D01*
X113900819Y-93358278D01*
X113900503Y-93349432D01*
X113900503Y-90934993D01*
X113920188Y-90867954D01*
X113972992Y-90822199D01*
X114000312Y-90813376D01*
X114003841Y-90812674D01*
X114003842Y-90812674D01*
X114158497Y-90781911D01*
X114304179Y-90721568D01*
X114435289Y-90633963D01*
X114546789Y-90522463D01*
X114634394Y-90391353D01*
X114642902Y-90370814D01*
X114651316Y-90350500D01*
X114694737Y-90245671D01*
X114725500Y-90091016D01*
X114725500Y-89933332D01*
X114725500Y-89933329D01*
X114725499Y-89933327D01*
X114718969Y-89900500D01*
X114694737Y-89778677D01*
X114675107Y-89731286D01*
X114634397Y-89633001D01*
X114634390Y-89632988D01*
X114546789Y-89501885D01*
X114546786Y-89501881D01*
X114435292Y-89390387D01*
X114435288Y-89390384D01*
X114304185Y-89302783D01*
X114304172Y-89302776D01*
X114158501Y-89242438D01*
X114158489Y-89242435D01*
X114003845Y-89211674D01*
X114003842Y-89211674D01*
X113862271Y-89211674D01*
X113795232Y-89191989D01*
X113774590Y-89175355D01*
X99078337Y-74479102D01*
X99044852Y-74417779D01*
X99049836Y-74348087D01*
X99078337Y-74303740D01*
X99121789Y-74260289D01*
X99209394Y-74129179D01*
X99269737Y-73983497D01*
X99300500Y-73828842D01*
X99300500Y-73671158D01*
X99300500Y-73671155D01*
X99300499Y-73671153D01*
X99269738Y-73516510D01*
X99269737Y-73516503D01*
X99269735Y-73516498D01*
X99209397Y-73370827D01*
X99209390Y-73370814D01*
X99121789Y-73239711D01*
X99121786Y-73239707D01*
X99010292Y-73128213D01*
X99010288Y-73128210D01*
X98879185Y-73040609D01*
X98879172Y-73040602D01*
X98733501Y-72980264D01*
X98733491Y-72980261D01*
X98578149Y-72949361D01*
X98516238Y-72916976D01*
X98514660Y-72915425D01*
X97770388Y-72171153D01*
X100949500Y-72171153D01*
X100949500Y-72328846D01*
X100980261Y-72483489D01*
X100980264Y-72483501D01*
X101040602Y-72629172D01*
X101040609Y-72629185D01*
X101128210Y-72760288D01*
X101128213Y-72760292D01*
X101239707Y-72871786D01*
X101239711Y-72871789D01*
X101370814Y-72959390D01*
X101370827Y-72959397D01*
X101516498Y-73019735D01*
X101516503Y-73019737D01*
X101671153Y-73050499D01*
X101671156Y-73050500D01*
X101671158Y-73050500D01*
X101828844Y-73050500D01*
X101828845Y-73050499D01*
X101983497Y-73019737D01*
X102129179Y-72959394D01*
X102260289Y-72871789D01*
X102371789Y-72760289D01*
X102459394Y-72629179D01*
X102519737Y-72483497D01*
X102539113Y-72386085D01*
X102550638Y-72328150D01*
X102583023Y-72266239D01*
X102584518Y-72264716D01*
X106987416Y-67861819D01*
X107048739Y-67828334D01*
X107075097Y-67825500D01*
X111032734Y-67825500D01*
X111099773Y-67845185D01*
X111101625Y-67846398D01*
X111233314Y-67934390D01*
X111233327Y-67934397D01*
X111378998Y-67994735D01*
X111379003Y-67994737D01*
X111533653Y-68025499D01*
X111533656Y-68025500D01*
X111533658Y-68025500D01*
X111691344Y-68025500D01*
X111691345Y-68025499D01*
X111845997Y-67994737D01*
X111991679Y-67934394D01*
X112122789Y-67846789D01*
X112234289Y-67735289D01*
X112321894Y-67604179D01*
X112382237Y-67458497D01*
X112413000Y-67303842D01*
X112413000Y-67146158D01*
X112413000Y-67146155D01*
X112412999Y-67146153D01*
X112401856Y-67090133D01*
X112382237Y-66991503D01*
X112377688Y-66980520D01*
X112321897Y-66845827D01*
X112321890Y-66845814D01*
X112234289Y-66714711D01*
X112234286Y-66714707D01*
X112122792Y-66603213D01*
X112122788Y-66603210D01*
X111991685Y-66515609D01*
X111991672Y-66515602D01*
X111846001Y-66455264D01*
X111845989Y-66455261D01*
X111691345Y-66424500D01*
X111691342Y-66424500D01*
X111533658Y-66424500D01*
X111533655Y-66424500D01*
X111379010Y-66455261D01*
X111378998Y-66455264D01*
X111233327Y-66515602D01*
X111233314Y-66515609D01*
X111101625Y-66603602D01*
X111034947Y-66624480D01*
X111032734Y-66624500D01*
X106695943Y-66624500D01*
X106543213Y-66665423D01*
X106497403Y-66691873D01*
X106497402Y-66691873D01*
X106406287Y-66744477D01*
X106406282Y-66744481D01*
X101735339Y-71415425D01*
X101674016Y-71448910D01*
X101671850Y-71449361D01*
X101516508Y-71480261D01*
X101516498Y-71480264D01*
X101370827Y-71540602D01*
X101370814Y-71540609D01*
X101239711Y-71628210D01*
X101239707Y-71628213D01*
X101128213Y-71739707D01*
X101128210Y-71739711D01*
X101040609Y-71870814D01*
X101040602Y-71870827D01*
X100980264Y-72016498D01*
X100980261Y-72016510D01*
X100949500Y-72171153D01*
X97770388Y-72171153D01*
X95886819Y-70287584D01*
X95853334Y-70226261D01*
X95850500Y-70199903D01*
X95850500Y-67579765D01*
X95870185Y-67512726D01*
X95871398Y-67510874D01*
X95959390Y-67379185D01*
X95959390Y-67379184D01*
X95959394Y-67379179D01*
X96019737Y-67233497D01*
X96050500Y-67078842D01*
X96050500Y-66921158D01*
X96050500Y-66921155D01*
X96050499Y-66921153D01*
X96019737Y-66766503D01*
X95998283Y-66714707D01*
X95959397Y-66620827D01*
X95959390Y-66620814D01*
X95871789Y-66489711D01*
X95871786Y-66489707D01*
X95760292Y-66378213D01*
X95760288Y-66378210D01*
X95629185Y-66290609D01*
X95629172Y-66290602D01*
X95483501Y-66230264D01*
X95483489Y-66230261D01*
X95328845Y-66199500D01*
X95328842Y-66199500D01*
X95171158Y-66199500D01*
X95171155Y-66199500D01*
X95016510Y-66230261D01*
X95016498Y-66230264D01*
X94870827Y-66290602D01*
X94870814Y-66290609D01*
X94739711Y-66378210D01*
X94739707Y-66378213D01*
X94628213Y-66489707D01*
X94628210Y-66489711D01*
X94540609Y-66620814D01*
X94540602Y-66620827D01*
X94480264Y-66766498D01*
X94480261Y-66766510D01*
X94449500Y-66921153D01*
X94449500Y-67078846D01*
X94480261Y-67233489D01*
X94480264Y-67233501D01*
X94540602Y-67379172D01*
X94540609Y-67379185D01*
X94628602Y-67510874D01*
X94649480Y-67577551D01*
X94649500Y-67579765D01*
X94649500Y-69750903D01*
X94629815Y-69817942D01*
X94577011Y-69863697D01*
X94507853Y-69873641D01*
X94444297Y-69844616D01*
X94437819Y-69838584D01*
X90737590Y-66138355D01*
X90737588Y-66138352D01*
X90618717Y-66019481D01*
X90618716Y-66019480D01*
X90531904Y-65969360D01*
X90531904Y-65969359D01*
X90531900Y-65969358D01*
X90481785Y-65940423D01*
X90329057Y-65899499D01*
X90170943Y-65899499D01*
X90163347Y-65899499D01*
X90163331Y-65899500D01*
X87690097Y-65899500D01*
X87623058Y-65879815D01*
X87602416Y-65863181D01*
X84624574Y-62885339D01*
X84591089Y-62824016D01*
X84590638Y-62821849D01*
X84590500Y-62821153D01*
X88069500Y-62821153D01*
X88069500Y-62978846D01*
X88100261Y-63133489D01*
X88100264Y-63133501D01*
X88160602Y-63279172D01*
X88160609Y-63279185D01*
X88248210Y-63410288D01*
X88248213Y-63410292D01*
X88359707Y-63521786D01*
X88359711Y-63521789D01*
X88490814Y-63609390D01*
X88490827Y-63609397D01*
X88636498Y-63669735D01*
X88636503Y-63669737D01*
X88791153Y-63700499D01*
X88791156Y-63700500D01*
X88791158Y-63700500D01*
X88948844Y-63700500D01*
X88948845Y-63700499D01*
X89103497Y-63669737D01*
X89249179Y-63609394D01*
X89249185Y-63609390D01*
X89380875Y-63521398D01*
X89447553Y-63500520D01*
X89449766Y-63500500D01*
X95920234Y-63500500D01*
X95987273Y-63520185D01*
X95989125Y-63521398D01*
X96120814Y-63609390D01*
X96120827Y-63609397D01*
X96266498Y-63669735D01*
X96266503Y-63669737D01*
X96421153Y-63700499D01*
X96421156Y-63700500D01*
X96421158Y-63700500D01*
X96578844Y-63700500D01*
X96578845Y-63700499D01*
X96733497Y-63669737D01*
X96879179Y-63609394D01*
X96879185Y-63609390D01*
X97010875Y-63521398D01*
X97077553Y-63500520D01*
X97079766Y-63500500D01*
X99020513Y-63500500D01*
X99020529Y-63500501D01*
X99028125Y-63500501D01*
X99186236Y-63500501D01*
X99186239Y-63500501D01*
X99338967Y-63459577D01*
X99389086Y-63430639D01*
X99475898Y-63380520D01*
X99587702Y-63268716D01*
X99587702Y-63268714D01*
X99597910Y-63258507D01*
X99597911Y-63258504D01*
X109194833Y-53661583D01*
X109256154Y-53628100D01*
X109258296Y-53627654D01*
X109383497Y-53602750D01*
X109529179Y-53542407D01*
X109660289Y-53454802D01*
X109771789Y-53343302D01*
X109859394Y-53212192D01*
X109866176Y-53195820D01*
X109919735Y-53066514D01*
X109919737Y-53066510D01*
X109950500Y-52911855D01*
X109950500Y-52754171D01*
X109950500Y-52754168D01*
X109950499Y-52754166D01*
X109946386Y-52733489D01*
X109919737Y-52599516D01*
X109911175Y-52578846D01*
X109859397Y-52453840D01*
X109859390Y-52453827D01*
X109820853Y-52396153D01*
X113224500Y-52396153D01*
X113224500Y-52553846D01*
X113255261Y-52708489D01*
X113255264Y-52708501D01*
X113315602Y-52854172D01*
X113315609Y-52854185D01*
X113403210Y-52985288D01*
X113403213Y-52985292D01*
X113514707Y-53096786D01*
X113514711Y-53096789D01*
X113645814Y-53184390D01*
X113645827Y-53184397D01*
X113791498Y-53244735D01*
X113791503Y-53244737D01*
X113916135Y-53269528D01*
X113946153Y-53275499D01*
X113946156Y-53275500D01*
X113946158Y-53275500D01*
X114103844Y-53275500D01*
X114103845Y-53275499D01*
X114258497Y-53244737D01*
X114376594Y-53195820D01*
X114404172Y-53184397D01*
X114404172Y-53184396D01*
X114404179Y-53184394D01*
X114535289Y-53096789D01*
X114646789Y-52985289D01*
X114734394Y-52854179D01*
X114794737Y-52708497D01*
X114825500Y-52553842D01*
X114825500Y-52396158D01*
X114825500Y-52396155D01*
X114825499Y-52396153D01*
X114812288Y-52329737D01*
X114794737Y-52241503D01*
X114781437Y-52209394D01*
X114734397Y-52095828D01*
X114734396Y-52095827D01*
X114734394Y-52095821D01*
X114671397Y-52001539D01*
X114650520Y-51934863D01*
X114650500Y-51932650D01*
X114650500Y-49139778D01*
X118559500Y-49139778D01*
X118559500Y-49360221D01*
X118593985Y-49577952D01*
X118662103Y-49787603D01*
X118662104Y-49787606D01*
X118762187Y-49984025D01*
X118891752Y-50162358D01*
X118891756Y-50162363D01*
X119047636Y-50318243D01*
X119047641Y-50318247D01*
X119160854Y-50400500D01*
X119225978Y-50447815D01*
X119354375Y-50513237D01*
X119422393Y-50547895D01*
X119422396Y-50547896D01*
X119527221Y-50581955D01*
X119632049Y-50616015D01*
X119849778Y-50650500D01*
X119849779Y-50650500D01*
X120070221Y-50650500D01*
X120070222Y-50650500D01*
X120287951Y-50616015D01*
X120497606Y-50547895D01*
X120694022Y-50447815D01*
X120872365Y-50318242D01*
X121028242Y-50162365D01*
X121157815Y-49984022D01*
X121257895Y-49787606D01*
X121326015Y-49577951D01*
X121360500Y-49360222D01*
X121360500Y-49139778D01*
X123639500Y-49139778D01*
X123639500Y-49360221D01*
X123673985Y-49577952D01*
X123742103Y-49787603D01*
X123742104Y-49787606D01*
X123842187Y-49984025D01*
X123971752Y-50162358D01*
X123971756Y-50162363D01*
X124127636Y-50318243D01*
X124127641Y-50318247D01*
X124240854Y-50400500D01*
X124305978Y-50447815D01*
X124434375Y-50513237D01*
X124502393Y-50547895D01*
X124502396Y-50547896D01*
X124607221Y-50581955D01*
X124712049Y-50616015D01*
X124929778Y-50650500D01*
X124929779Y-50650500D01*
X125150221Y-50650500D01*
X125150222Y-50650500D01*
X125367951Y-50616015D01*
X125577606Y-50547895D01*
X125774022Y-50447815D01*
X125952365Y-50318242D01*
X126108242Y-50162365D01*
X126237815Y-49984022D01*
X126337895Y-49787606D01*
X126406015Y-49577951D01*
X126440500Y-49360222D01*
X126440500Y-49139778D01*
X126406015Y-48922049D01*
X126337895Y-48712394D01*
X126337895Y-48712393D01*
X126248823Y-48537583D01*
X126237815Y-48515978D01*
X126198884Y-48462394D01*
X126108247Y-48337641D01*
X126108243Y-48337636D01*
X125952363Y-48181756D01*
X125952358Y-48181752D01*
X125774025Y-48052187D01*
X125774024Y-48052186D01*
X125774022Y-48052185D01*
X125711096Y-48020122D01*
X125577606Y-47952104D01*
X125577603Y-47952103D01*
X125367952Y-47883985D01*
X125259086Y-47866742D01*
X125150222Y-47849500D01*
X124929778Y-47849500D01*
X124857201Y-47860995D01*
X124712047Y-47883985D01*
X124502396Y-47952103D01*
X124502393Y-47952104D01*
X124305974Y-48052187D01*
X124127641Y-48181752D01*
X124127636Y-48181756D01*
X123971756Y-48337636D01*
X123971752Y-48337641D01*
X123842187Y-48515974D01*
X123742104Y-48712393D01*
X123742103Y-48712396D01*
X123673985Y-48922047D01*
X123639500Y-49139778D01*
X121360500Y-49139778D01*
X121326015Y-48922049D01*
X121257895Y-48712394D01*
X121257895Y-48712393D01*
X121168823Y-48537583D01*
X121157815Y-48515978D01*
X121118884Y-48462394D01*
X121028247Y-48337641D01*
X121028243Y-48337636D01*
X120872363Y-48181756D01*
X120872358Y-48181752D01*
X120694025Y-48052187D01*
X120694024Y-48052186D01*
X120694022Y-48052185D01*
X120631096Y-48020122D01*
X120497606Y-47952104D01*
X120497603Y-47952103D01*
X120287952Y-47883985D01*
X120179086Y-47866742D01*
X120070222Y-47849500D01*
X119849778Y-47849500D01*
X119777201Y-47860995D01*
X119632047Y-47883985D01*
X119422396Y-47952103D01*
X119422393Y-47952104D01*
X119225974Y-48052187D01*
X119047641Y-48181752D01*
X119047636Y-48181756D01*
X118891756Y-48337636D01*
X118891752Y-48337641D01*
X118762187Y-48515974D01*
X118662104Y-48712393D01*
X118662103Y-48712396D01*
X118593985Y-48922047D01*
X118559500Y-49139778D01*
X114650500Y-49139778D01*
X114650500Y-46579765D01*
X114670185Y-46512726D01*
X114671398Y-46510874D01*
X114759390Y-46379185D01*
X114759390Y-46379184D01*
X114759394Y-46379179D01*
X114819737Y-46233497D01*
X114850500Y-46078842D01*
X114850500Y-45921158D01*
X114850500Y-45921155D01*
X114850499Y-45921153D01*
X114819738Y-45766510D01*
X114819737Y-45766503D01*
X114819735Y-45766498D01*
X114759397Y-45620827D01*
X114759390Y-45620814D01*
X114671789Y-45489711D01*
X114671786Y-45489707D01*
X114560292Y-45378213D01*
X114560288Y-45378210D01*
X114429185Y-45290609D01*
X114429172Y-45290602D01*
X114283501Y-45230264D01*
X114283489Y-45230261D01*
X114128845Y-45199500D01*
X114128842Y-45199500D01*
X113971158Y-45199500D01*
X113971155Y-45199500D01*
X113816510Y-45230261D01*
X113816498Y-45230264D01*
X113670827Y-45290602D01*
X113670814Y-45290609D01*
X113539711Y-45378210D01*
X113539707Y-45378213D01*
X113428213Y-45489707D01*
X113428210Y-45489711D01*
X113340609Y-45620814D01*
X113340602Y-45620827D01*
X113280264Y-45766498D01*
X113280261Y-45766510D01*
X113249500Y-45921153D01*
X113249500Y-46078846D01*
X113280261Y-46233489D01*
X113280264Y-46233501D01*
X113340602Y-46379172D01*
X113340609Y-46379185D01*
X113428602Y-46510874D01*
X113449480Y-46577551D01*
X113449500Y-46579765D01*
X113449500Y-51867059D01*
X113429815Y-51934098D01*
X113413181Y-51954740D01*
X113403213Y-51964707D01*
X113403210Y-51964711D01*
X113315609Y-52095814D01*
X113315602Y-52095827D01*
X113255264Y-52241498D01*
X113255261Y-52241510D01*
X113224500Y-52396153D01*
X109820853Y-52396153D01*
X109771789Y-52322724D01*
X109771786Y-52322720D01*
X109660292Y-52211226D01*
X109660288Y-52211223D01*
X109529185Y-52123622D01*
X109529172Y-52123615D01*
X109383501Y-52063277D01*
X109383489Y-52063274D01*
X109228845Y-52032513D01*
X109228842Y-52032513D01*
X109071158Y-52032513D01*
X109071155Y-52032513D01*
X108916510Y-52063274D01*
X108916498Y-52063277D01*
X108770827Y-52123615D01*
X108770814Y-52123622D01*
X108639711Y-52211223D01*
X108639707Y-52211226D01*
X108528213Y-52322720D01*
X108528210Y-52322724D01*
X108440609Y-52453827D01*
X108440602Y-52453840D01*
X108380264Y-52599511D01*
X108380261Y-52599523D01*
X108349500Y-52754166D01*
X108349500Y-52757085D01*
X108349067Y-52758556D01*
X108348903Y-52760231D01*
X108348585Y-52760199D01*
X108329815Y-52824124D01*
X108313181Y-52844766D01*
X98894766Y-62263181D01*
X98833443Y-62296666D01*
X98807085Y-62299500D01*
X97079766Y-62299500D01*
X97012727Y-62279815D01*
X97010875Y-62278602D01*
X96879185Y-62190609D01*
X96879172Y-62190602D01*
X96733501Y-62130264D01*
X96733489Y-62130261D01*
X96578845Y-62099500D01*
X96578842Y-62099500D01*
X96421158Y-62099500D01*
X96421155Y-62099500D01*
X96266510Y-62130261D01*
X96266498Y-62130264D01*
X96120827Y-62190602D01*
X96120814Y-62190609D01*
X95989125Y-62278602D01*
X95922447Y-62299480D01*
X95920234Y-62299500D01*
X89449766Y-62299500D01*
X89382727Y-62279815D01*
X89380875Y-62278602D01*
X89249185Y-62190609D01*
X89249172Y-62190602D01*
X89103501Y-62130264D01*
X89103489Y-62130261D01*
X88948845Y-62099500D01*
X88948842Y-62099500D01*
X88791158Y-62099500D01*
X88791155Y-62099500D01*
X88636510Y-62130261D01*
X88636498Y-62130264D01*
X88490827Y-62190602D01*
X88490814Y-62190609D01*
X88359711Y-62278210D01*
X88359707Y-62278213D01*
X88248213Y-62389707D01*
X88248210Y-62389711D01*
X88160609Y-62520814D01*
X88160602Y-62520827D01*
X88100264Y-62666498D01*
X88100261Y-62666510D01*
X88069500Y-62821153D01*
X84590500Y-62821153D01*
X84559738Y-62666510D01*
X84559737Y-62666503D01*
X84559735Y-62666498D01*
X84499397Y-62520827D01*
X84499390Y-62520814D01*
X84411789Y-62389711D01*
X84411786Y-62389707D01*
X84300291Y-62278212D01*
X84288485Y-62270324D01*
X84243680Y-62216712D01*
X84234972Y-62147387D01*
X84265126Y-62084359D01*
X84269671Y-62079563D01*
X84614665Y-61734570D01*
X84675984Y-61701088D01*
X84678151Y-61700637D01*
X84678840Y-61700500D01*
X84678842Y-61700500D01*
X84833497Y-61669737D01*
X84979179Y-61609394D01*
X85110289Y-61521789D01*
X85221789Y-61410289D01*
X85309394Y-61279179D01*
X85369737Y-61133497D01*
X85400500Y-60978842D01*
X85400500Y-60821158D01*
X85400500Y-60821155D01*
X85400499Y-60821153D01*
X85394635Y-60791672D01*
X85369737Y-60666503D01*
X85361240Y-60645989D01*
X85351284Y-60621952D01*
X85343815Y-60552483D01*
X85375091Y-60490004D01*
X85435180Y-60454352D01*
X85465845Y-60450500D01*
X86413331Y-60450500D01*
X86413347Y-60450501D01*
X86420943Y-60450501D01*
X86579054Y-60450501D01*
X86579057Y-60450501D01*
X86731785Y-60409577D01*
X86781904Y-60380639D01*
X86868716Y-60330520D01*
X86962418Y-60236817D01*
X87023739Y-60203334D01*
X87050098Y-60200500D01*
X87375802Y-60200500D01*
X87442841Y-60220185D01*
X87488596Y-60272989D01*
X87497690Y-60327566D01*
X87499500Y-60327566D01*
X87499500Y-60491346D01*
X87530261Y-60645989D01*
X87530264Y-60646001D01*
X87590602Y-60791672D01*
X87590609Y-60791685D01*
X87678210Y-60922788D01*
X87678213Y-60922792D01*
X87789707Y-61034286D01*
X87789711Y-61034289D01*
X87920814Y-61121890D01*
X87920827Y-61121897D01*
X88040335Y-61171398D01*
X88066503Y-61182237D01*
X88221153Y-61212999D01*
X88221156Y-61213000D01*
X88221158Y-61213000D01*
X88378844Y-61213000D01*
X88378845Y-61212999D01*
X88533497Y-61182237D01*
X88587329Y-61159938D01*
X88634782Y-61150500D01*
X89970234Y-61150500D01*
X90037273Y-61170185D01*
X90039125Y-61171398D01*
X90170814Y-61259390D01*
X90170827Y-61259397D01*
X90316498Y-61319735D01*
X90316503Y-61319737D01*
X90471153Y-61350499D01*
X90471156Y-61350500D01*
X90471158Y-61350500D01*
X90628844Y-61350500D01*
X90628845Y-61350499D01*
X90783497Y-61319737D01*
X90929179Y-61259394D01*
X91060289Y-61171789D01*
X91171789Y-61060289D01*
X91259394Y-60929179D01*
X91319737Y-60783497D01*
X91350500Y-60628842D01*
X91350500Y-60471158D01*
X91350500Y-60471155D01*
X91326140Y-60348692D01*
X91332367Y-60279100D01*
X91375230Y-60223923D01*
X91441120Y-60200678D01*
X91447757Y-60200500D01*
X91857734Y-60200500D01*
X91924773Y-60220185D01*
X91926625Y-60221398D01*
X92058314Y-60309390D01*
X92058327Y-60309397D01*
X92153195Y-60348692D01*
X92204003Y-60369737D01*
X92358653Y-60400499D01*
X92358656Y-60400500D01*
X92358658Y-60400500D01*
X92516344Y-60400500D01*
X92516345Y-60400499D01*
X92670997Y-60369737D01*
X92816679Y-60309394D01*
X92947789Y-60221789D01*
X93059289Y-60110289D01*
X93146894Y-59979179D01*
X93207237Y-59833497D01*
X93238000Y-59678842D01*
X93238000Y-59521158D01*
X93238000Y-59521155D01*
X93237999Y-59521153D01*
X93207238Y-59366510D01*
X93207237Y-59366503D01*
X93207235Y-59366498D01*
X93146897Y-59220827D01*
X93146890Y-59220814D01*
X93059289Y-59089711D01*
X93059286Y-59089707D01*
X92947792Y-58978213D01*
X92947788Y-58978210D01*
X92816685Y-58890609D01*
X92816672Y-58890602D01*
X92671001Y-58830264D01*
X92670989Y-58830261D01*
X92516345Y-58799500D01*
X92516342Y-58799500D01*
X92358658Y-58799500D01*
X92358655Y-58799500D01*
X92204010Y-58830261D01*
X92203998Y-58830264D01*
X92058327Y-58890602D01*
X92058314Y-58890609D01*
X91926625Y-58978602D01*
X91859947Y-58999480D01*
X91857734Y-58999500D01*
X87474500Y-58999500D01*
X87407461Y-58979815D01*
X87361706Y-58927011D01*
X87350500Y-58875500D01*
X87350500Y-57235402D01*
X87370185Y-57168363D01*
X87422989Y-57122608D01*
X87492147Y-57112664D01*
X87555703Y-57141689D01*
X87589062Y-57187951D01*
X87590605Y-57191678D01*
X87590609Y-57191685D01*
X87678210Y-57322788D01*
X87678213Y-57322792D01*
X87789707Y-57434286D01*
X87789711Y-57434289D01*
X87920814Y-57521890D01*
X87920827Y-57521897D01*
X88040335Y-57571398D01*
X88066503Y-57582237D01*
X88221153Y-57612999D01*
X88221156Y-57613000D01*
X88221158Y-57613000D01*
X88378844Y-57613000D01*
X88378845Y-57612999D01*
X88533497Y-57582237D01*
X88587329Y-57559938D01*
X88634782Y-57550500D01*
X89970234Y-57550500D01*
X90037273Y-57570185D01*
X90039125Y-57571398D01*
X90170814Y-57659390D01*
X90170827Y-57659397D01*
X90316498Y-57719735D01*
X90316503Y-57719737D01*
X90471153Y-57750499D01*
X90471156Y-57750500D01*
X90471158Y-57750500D01*
X90628844Y-57750500D01*
X90628845Y-57750499D01*
X90783497Y-57719737D01*
X90929179Y-57659394D01*
X91060289Y-57571789D01*
X91171789Y-57460289D01*
X91259394Y-57329179D01*
X91319737Y-57183497D01*
X91350500Y-57028842D01*
X91350500Y-56871158D01*
X91350500Y-56871155D01*
X91350499Y-56871153D01*
X91338616Y-56811415D01*
X91319737Y-56716503D01*
X91278340Y-56616560D01*
X91259397Y-56570827D01*
X91259390Y-56570814D01*
X91171789Y-56439711D01*
X91171786Y-56439707D01*
X91060292Y-56328213D01*
X91060288Y-56328210D01*
X90929185Y-56240609D01*
X90929172Y-56240602D01*
X90783501Y-56180264D01*
X90783489Y-56180261D01*
X90628845Y-56149500D01*
X90628842Y-56149500D01*
X90471158Y-56149500D01*
X90471155Y-56149500D01*
X90316510Y-56180261D01*
X90316498Y-56180264D01*
X90170827Y-56240602D01*
X90170814Y-56240609D01*
X90039125Y-56328602D01*
X89972447Y-56349480D01*
X89970234Y-56349500D01*
X89019245Y-56349500D01*
X88952206Y-56329815D01*
X88923383Y-56304155D01*
X88921794Y-56302218D01*
X88921789Y-56302211D01*
X88921782Y-56302204D01*
X88921778Y-56302199D01*
X88810292Y-56190713D01*
X88810288Y-56190710D01*
X88679185Y-56103109D01*
X88679172Y-56103102D01*
X88533501Y-56042764D01*
X88533489Y-56042761D01*
X88427192Y-56021617D01*
X88365281Y-55989232D01*
X88330707Y-55928516D01*
X88334446Y-55858747D01*
X88375313Y-55802075D01*
X88427192Y-55778383D01*
X88474705Y-55768931D01*
X88533497Y-55757237D01*
X88679179Y-55696894D01*
X88810289Y-55609289D01*
X88921789Y-55497789D01*
X89009394Y-55366679D01*
X89069737Y-55220997D01*
X89100500Y-55066342D01*
X89100500Y-54908658D01*
X89100500Y-54908655D01*
X89100499Y-54908653D01*
X89069738Y-54754010D01*
X89069737Y-54754003D01*
X89049731Y-54705703D01*
X89009397Y-54608327D01*
X89009390Y-54608314D01*
X88921789Y-54477211D01*
X88921786Y-54477207D01*
X88825520Y-54380941D01*
X88792035Y-54319618D01*
X88797019Y-54249926D01*
X88831518Y-54201633D01*
X88830982Y-54201097D01*
X88834204Y-54197874D01*
X88834542Y-54197402D01*
X88835283Y-54196792D01*
X88835289Y-54196789D01*
X88946789Y-54085289D01*
X89034394Y-53954179D01*
X89094737Y-53808497D01*
X89125500Y-53653842D01*
X89125500Y-53496158D01*
X89125500Y-53496155D01*
X89125499Y-53496153D01*
X89116674Y-53451786D01*
X89094737Y-53341503D01*
X89077331Y-53299480D01*
X89034397Y-53195827D01*
X89034390Y-53195814D01*
X88946789Y-53064711D01*
X88946786Y-53064707D01*
X88835292Y-52953213D01*
X88835288Y-52953210D01*
X88704185Y-52865609D01*
X88704172Y-52865602D01*
X88558501Y-52805264D01*
X88558489Y-52805261D01*
X88403845Y-52774500D01*
X88403842Y-52774500D01*
X88246158Y-52774500D01*
X88246155Y-52774500D01*
X88091510Y-52805261D01*
X88091498Y-52805264D01*
X87945827Y-52865602D01*
X87945814Y-52865609D01*
X87814711Y-52953210D01*
X87814707Y-52953213D01*
X87703213Y-53064707D01*
X87703210Y-53064711D01*
X87615609Y-53195814D01*
X87615606Y-53195820D01*
X87607610Y-53215125D01*
X87563768Y-53269528D01*
X87497474Y-53291592D01*
X87429775Y-53274312D01*
X87424158Y-53270773D01*
X87304185Y-53190609D01*
X87304172Y-53190602D01*
X87158501Y-53130264D01*
X87158489Y-53130261D01*
X87003845Y-53099500D01*
X87003842Y-53099500D01*
X86846158Y-53099500D01*
X86846155Y-53099500D01*
X86691510Y-53130261D01*
X86691498Y-53130264D01*
X86545827Y-53190602D01*
X86545814Y-53190609D01*
X86414125Y-53278602D01*
X86347447Y-53299480D01*
X86345234Y-53299500D01*
X76979766Y-53299500D01*
X76912727Y-53279815D01*
X76910875Y-53278602D01*
X76779185Y-53190609D01*
X76779172Y-53190602D01*
X76633501Y-53130264D01*
X76633489Y-53130261D01*
X76478845Y-53099500D01*
X76478842Y-53099500D01*
X76321158Y-53099500D01*
X76321155Y-53099500D01*
X76166510Y-53130261D01*
X76166498Y-53130264D01*
X76020827Y-53190602D01*
X76020814Y-53190609D01*
X75889711Y-53278210D01*
X75889707Y-53278213D01*
X75806259Y-53361662D01*
X75744936Y-53395147D01*
X75675244Y-53390163D01*
X75630897Y-53361662D01*
X75084574Y-52815339D01*
X75051089Y-52754016D01*
X75050638Y-52751849D01*
X75024573Y-52620814D01*
X75019737Y-52596503D01*
X75012423Y-52578846D01*
X74959397Y-52450827D01*
X74959390Y-52450814D01*
X74871789Y-52319711D01*
X74871786Y-52319707D01*
X74760292Y-52208213D01*
X74760288Y-52208210D01*
X74629185Y-52120609D01*
X74629172Y-52120602D01*
X74483501Y-52060264D01*
X74483489Y-52060261D01*
X74328845Y-52029500D01*
X74328842Y-52029500D01*
X74171158Y-52029500D01*
X74171155Y-52029500D01*
X74016510Y-52060261D01*
X74016498Y-52060264D01*
X73870827Y-52120602D01*
X73870814Y-52120609D01*
X73739711Y-52208210D01*
X73739707Y-52208213D01*
X73628213Y-52319707D01*
X73628210Y-52319711D01*
X73540609Y-52450814D01*
X73540602Y-52450827D01*
X73480264Y-52596498D01*
X73480261Y-52596510D01*
X73449500Y-52751153D01*
X72330000Y-52751153D01*
X72330000Y-47650000D01*
X66124500Y-47650000D01*
X66057461Y-47630315D01*
X66011706Y-47577511D01*
X66000500Y-47526000D01*
X66000500Y-43679778D01*
X69849500Y-43679778D01*
X69849500Y-43900221D01*
X69883985Y-44117952D01*
X69952103Y-44327603D01*
X69952104Y-44327606D01*
X70052187Y-44524025D01*
X70181752Y-44702358D01*
X70181756Y-44702363D01*
X70337636Y-44858243D01*
X70337641Y-44858247D01*
X70394422Y-44899500D01*
X70515978Y-44987815D01*
X70644375Y-45053237D01*
X70712393Y-45087895D01*
X70712396Y-45087896D01*
X70813731Y-45120821D01*
X70922049Y-45156015D01*
X71139778Y-45190500D01*
X71139779Y-45190500D01*
X71360221Y-45190500D01*
X71360222Y-45190500D01*
X71577951Y-45156015D01*
X71787606Y-45087895D01*
X71984022Y-44987815D01*
X72162365Y-44858242D01*
X72318242Y-44702365D01*
X72447815Y-44524022D01*
X72547895Y-44327606D01*
X72616015Y-44117951D01*
X72650500Y-43900222D01*
X72650500Y-43679778D01*
X72616015Y-43462049D01*
X72547895Y-43252394D01*
X72547895Y-43252393D01*
X72513237Y-43184375D01*
X72447815Y-43055978D01*
X72389233Y-42975346D01*
X72318247Y-42877641D01*
X72318243Y-42877636D01*
X72162363Y-42721756D01*
X72162358Y-42721752D01*
X71984025Y-42592187D01*
X71984024Y-42592186D01*
X71984022Y-42592185D01*
X71921096Y-42560122D01*
X71787606Y-42492104D01*
X71787603Y-42492103D01*
X71577952Y-42423985D01*
X71469086Y-42406742D01*
X71360222Y-42389500D01*
X71139778Y-42389500D01*
X71067201Y-42400995D01*
X70922047Y-42423985D01*
X70712396Y-42492103D01*
X70712393Y-42492104D01*
X70515974Y-42592187D01*
X70337641Y-42721752D01*
X70337636Y-42721756D01*
X70181756Y-42877636D01*
X70181752Y-42877641D01*
X70052187Y-43055974D01*
X69952104Y-43252393D01*
X69952103Y-43252396D01*
X69883985Y-43462047D01*
X69849500Y-43679778D01*
X66000500Y-43679778D01*
X66000500Y-38599818D01*
X69850000Y-38599818D01*
X69850000Y-38820181D01*
X69884473Y-39037835D01*
X69952567Y-39247410D01*
X70052611Y-39443756D01*
X70098932Y-39507513D01*
X70685387Y-38921058D01*
X70690889Y-38941591D01*
X70769881Y-39078408D01*
X70881592Y-39190119D01*
X71018409Y-39269111D01*
X71038939Y-39274612D01*
X70452485Y-39861065D01*
X70452485Y-39861066D01*
X70516243Y-39907388D01*
X70712589Y-40007432D01*
X70922164Y-40075526D01*
X71139819Y-40110000D01*
X71360181Y-40110000D01*
X71577835Y-40075526D01*
X71787410Y-40007432D01*
X71983760Y-39907386D01*
X72047513Y-39861066D01*
X72047514Y-39861066D01*
X71461059Y-39274612D01*
X71481591Y-39269111D01*
X71618408Y-39190119D01*
X71730119Y-39078408D01*
X71809111Y-38941591D01*
X71814612Y-38921059D01*
X72401066Y-39507514D01*
X72401066Y-39507513D01*
X72447386Y-39443760D01*
X72547432Y-39247410D01*
X72615526Y-39037835D01*
X72650000Y-38820181D01*
X72650000Y-38599818D01*
X72615526Y-38382164D01*
X72547432Y-38172589D01*
X72447388Y-37976243D01*
X72401066Y-37912485D01*
X72401065Y-37912485D01*
X71814612Y-38498939D01*
X71809111Y-38478409D01*
X71730119Y-38341592D01*
X71618408Y-38229881D01*
X71481591Y-38150889D01*
X71461057Y-38145387D01*
X72047513Y-37558932D01*
X71983756Y-37512611D01*
X71787410Y-37412567D01*
X71577835Y-37344473D01*
X71360181Y-37310000D01*
X71139819Y-37310000D01*
X70922164Y-37344473D01*
X70712589Y-37412567D01*
X70516233Y-37512616D01*
X70452485Y-37558931D01*
X70452485Y-37558932D01*
X71038940Y-38145387D01*
X71018409Y-38150889D01*
X70881592Y-38229881D01*
X70769881Y-38341592D01*
X70690889Y-38478409D01*
X70685387Y-38498940D01*
X70098932Y-37912485D01*
X70098931Y-37912485D01*
X70052616Y-37976233D01*
X69952567Y-38172589D01*
X69884473Y-38382164D01*
X69850000Y-38599818D01*
X66000500Y-38599818D01*
X66000500Y-35318938D01*
X66020185Y-35251899D01*
X66072989Y-35206144D01*
X66142147Y-35196200D01*
X66205703Y-35225225D01*
X66227602Y-35250048D01*
X66272857Y-35317777D01*
X66272863Y-35317785D01*
X66412214Y-35457136D01*
X66412218Y-35457139D01*
X66576079Y-35566628D01*
X66576092Y-35566635D01*
X66758160Y-35642049D01*
X66758165Y-35642051D01*
X66758169Y-35642051D01*
X66758170Y-35642052D01*
X66951456Y-35680500D01*
X66951459Y-35680500D01*
X67748543Y-35680500D01*
X67878582Y-35654632D01*
X67941835Y-35642051D01*
X68123914Y-35566632D01*
X68287782Y-35457139D01*
X68427139Y-35317782D01*
X68536632Y-35153914D01*
X68612051Y-34971835D01*
X68624632Y-34908582D01*
X68650500Y-34778543D01*
X69979499Y-34778543D01*
X70017947Y-34971829D01*
X70017950Y-34971839D01*
X70093364Y-35153907D01*
X70093371Y-35153920D01*
X70202860Y-35317781D01*
X70202863Y-35317785D01*
X70342214Y-35457136D01*
X70342218Y-35457139D01*
X70506079Y-35566628D01*
X70506092Y-35566635D01*
X70688160Y-35642049D01*
X70688165Y-35642051D01*
X70688169Y-35642051D01*
X70688170Y-35642052D01*
X70881456Y-35680500D01*
X70881459Y-35680500D01*
X72178543Y-35680500D01*
X72308582Y-35654632D01*
X72371835Y-35642051D01*
X72553914Y-35566632D01*
X72717782Y-35457139D01*
X72857139Y-35317782D01*
X72966632Y-35153914D01*
X73042051Y-34971835D01*
X73054632Y-34908582D01*
X73080500Y-34778543D01*
X73080500Y-34581456D01*
X73042052Y-34388170D01*
X73042051Y-34388169D01*
X73042051Y-34388165D01*
X73042049Y-34388160D01*
X72966635Y-34206092D01*
X72966628Y-34206079D01*
X72857139Y-34042218D01*
X72857136Y-34042214D01*
X72717785Y-33902863D01*
X72717781Y-33902860D01*
X72553920Y-33793371D01*
X72553907Y-33793364D01*
X72371839Y-33717950D01*
X72371829Y-33717947D01*
X72178543Y-33679500D01*
X72178541Y-33679500D01*
X71631333Y-33679500D01*
X71564294Y-33659815D01*
X71518539Y-33607011D01*
X71508595Y-33537853D01*
X71523947Y-33493499D01*
X71536278Y-33472140D01*
X71536277Y-33472140D01*
X71536281Y-33472135D01*
X71575500Y-33325766D01*
X71575500Y-33174234D01*
X71536281Y-33027865D01*
X71460515Y-32896635D01*
X71353365Y-32789485D01*
X71287750Y-32751602D01*
X71222136Y-32713719D01*
X71148950Y-32694109D01*
X71075766Y-32674500D01*
X70924234Y-32674500D01*
X70777863Y-32713719D01*
X70646635Y-32789485D01*
X70646632Y-32789487D01*
X70539487Y-32896632D01*
X70539485Y-32896635D01*
X70463719Y-33027863D01*
X70424500Y-33174234D01*
X70424500Y-33325765D01*
X70463719Y-33472136D01*
X70476650Y-33494532D01*
X70539485Y-33603365D01*
X70539488Y-33603368D01*
X70544188Y-33609493D01*
X70569383Y-33674662D01*
X70555346Y-33743107D01*
X70510510Y-33789023D01*
X70511151Y-33789983D01*
X70506612Y-33793015D01*
X70506533Y-33793097D01*
X70506296Y-33793226D01*
X70342218Y-33902860D01*
X70342214Y-33902863D01*
X70202863Y-34042214D01*
X70202860Y-34042218D01*
X70093371Y-34206079D01*
X70093364Y-34206092D01*
X70017950Y-34388160D01*
X70017947Y-34388170D01*
X69979500Y-34581456D01*
X69979500Y-34581459D01*
X69979500Y-34778541D01*
X69979500Y-34778543D01*
X69979499Y-34778543D01*
X68650500Y-34778543D01*
X68650500Y-34581456D01*
X68612052Y-34388170D01*
X68612051Y-34388169D01*
X68612051Y-34388165D01*
X68612049Y-34388160D01*
X68536635Y-34206092D01*
X68536628Y-34206079D01*
X68427139Y-34042218D01*
X68427136Y-34042214D01*
X68287785Y-33902863D01*
X68287781Y-33902860D01*
X68123920Y-33793371D01*
X68123907Y-33793364D01*
X67941839Y-33717950D01*
X67941829Y-33717947D01*
X67748543Y-33679500D01*
X67748541Y-33679500D01*
X66951459Y-33679500D01*
X66951457Y-33679500D01*
X66758170Y-33717947D01*
X66758160Y-33717950D01*
X66576092Y-33793364D01*
X66576079Y-33793371D01*
X66412218Y-33902860D01*
X66412214Y-33902863D01*
X66272863Y-34042214D01*
X66272860Y-34042218D01*
X66227602Y-34109952D01*
X66173990Y-34154757D01*
X66104665Y-34163464D01*
X66041637Y-34133309D01*
X66004918Y-34073866D01*
X66000500Y-34041061D01*
X66000500Y-29171153D01*
X76199500Y-29171153D01*
X76199500Y-29328846D01*
X76230261Y-29483489D01*
X76230264Y-29483501D01*
X76290602Y-29629172D01*
X76290609Y-29629185D01*
X76378210Y-29760288D01*
X76378213Y-29760292D01*
X76489707Y-29871786D01*
X76489711Y-29871789D01*
X76620814Y-29959390D01*
X76620827Y-29959397D01*
X76766498Y-30019735D01*
X76766503Y-30019737D01*
X76831147Y-30032595D01*
X76921849Y-30050638D01*
X76938605Y-30059402D01*
X76957085Y-30063423D01*
X76982123Y-30082167D01*
X76983760Y-30083023D01*
X76985339Y-30084574D01*
X77113181Y-30212416D01*
X77146666Y-30273739D01*
X77149500Y-30300097D01*
X77149500Y-30325500D01*
X77129815Y-30392539D01*
X77077011Y-30438294D01*
X77025500Y-30449500D01*
X76921155Y-30449500D01*
X76766510Y-30480261D01*
X76766498Y-30480264D01*
X76620827Y-30540602D01*
X76620814Y-30540609D01*
X76489711Y-30628210D01*
X76489707Y-30628213D01*
X76378213Y-30739707D01*
X76378210Y-30739711D01*
X76290609Y-30870814D01*
X76290602Y-30870827D01*
X76230264Y-31016498D01*
X76230261Y-31016510D01*
X76199500Y-31171153D01*
X76199500Y-31328846D01*
X76230261Y-31483489D01*
X76230264Y-31483501D01*
X76290602Y-31629172D01*
X76290609Y-31629185D01*
X76378602Y-31760874D01*
X76399480Y-31827551D01*
X76399500Y-31829765D01*
X76399500Y-49273330D01*
X76399499Y-49273348D01*
X76399499Y-49439054D01*
X76399498Y-49439054D01*
X76440423Y-49591785D01*
X76467970Y-49639496D01*
X76467971Y-49639500D01*
X76467972Y-49639500D01*
X76519479Y-49728714D01*
X76519481Y-49728717D01*
X76638349Y-49847585D01*
X76638355Y-49847590D01*
X78365425Y-51574660D01*
X78398910Y-51635983D01*
X78399361Y-51638149D01*
X78430261Y-51793491D01*
X78430264Y-51793501D01*
X78490602Y-51939172D01*
X78490609Y-51939185D01*
X78578210Y-52070288D01*
X78578213Y-52070292D01*
X78689707Y-52181786D01*
X78689711Y-52181789D01*
X78820814Y-52269390D01*
X78820827Y-52269397D01*
X78942288Y-52319707D01*
X78966503Y-52329737D01*
X79121153Y-52360499D01*
X79121156Y-52360500D01*
X79121158Y-52360500D01*
X79278844Y-52360500D01*
X79278845Y-52360499D01*
X79433497Y-52329737D01*
X79579179Y-52269394D01*
X79710289Y-52181789D01*
X79821789Y-52070289D01*
X79909394Y-51939179D01*
X79969737Y-51793497D01*
X80000500Y-51638842D01*
X80000500Y-51481158D01*
X80000500Y-51481155D01*
X80000499Y-51481153D01*
X79988565Y-51421158D01*
X79969737Y-51326503D01*
X79969735Y-51326498D01*
X79909397Y-51180827D01*
X79909390Y-51180814D01*
X79821789Y-51049711D01*
X79821786Y-51049707D01*
X79784760Y-51012681D01*
X79751275Y-50951358D01*
X79756259Y-50881666D01*
X79784760Y-50837319D01*
X79821786Y-50800292D01*
X79821789Y-50800289D01*
X79909394Y-50669179D01*
X79969737Y-50523497D01*
X80000500Y-50368842D01*
X80000500Y-50211158D01*
X80000500Y-50211155D01*
X80000499Y-50211153D01*
X79969738Y-50056510D01*
X79969737Y-50056503D01*
X79939715Y-49984022D01*
X79909397Y-49910827D01*
X79909390Y-49910814D01*
X79821789Y-49779711D01*
X79821786Y-49779707D01*
X79710292Y-49668213D01*
X79710288Y-49668210D01*
X79579185Y-49580609D01*
X79579172Y-49580602D01*
X79433499Y-49520263D01*
X79433491Y-49520261D01*
X79390498Y-49511709D01*
X79328587Y-49479324D01*
X79327009Y-49477773D01*
X78386819Y-48537583D01*
X78353334Y-48476260D01*
X78350500Y-48449902D01*
X78350500Y-47929054D01*
X79649498Y-47929054D01*
X79690422Y-48081783D01*
X79693802Y-48087636D01*
X79693805Y-48087643D01*
X79769475Y-48218709D01*
X79769481Y-48218717D01*
X79888349Y-48337585D01*
X79888355Y-48337590D01*
X81715425Y-50164660D01*
X81748910Y-50225983D01*
X81749361Y-50228149D01*
X81780261Y-50383491D01*
X81780264Y-50383501D01*
X81840602Y-50529172D01*
X81840609Y-50529185D01*
X81928210Y-50660288D01*
X81928213Y-50660292D01*
X82039707Y-50771786D01*
X82039711Y-50771789D01*
X82170814Y-50859390D01*
X82170827Y-50859397D01*
X82316498Y-50919735D01*
X82316503Y-50919737D01*
X82471153Y-50950499D01*
X82471156Y-50950500D01*
X82471158Y-50950500D01*
X82628844Y-50950500D01*
X82628845Y-50950499D01*
X82783497Y-50919737D01*
X82929179Y-50859394D01*
X83060289Y-50771789D01*
X83171789Y-50660289D01*
X83259394Y-50529179D01*
X83319737Y-50383497D01*
X83350500Y-50228842D01*
X83350500Y-50071158D01*
X83350500Y-50071155D01*
X83350499Y-50071153D01*
X83319738Y-49916510D01*
X83319737Y-49916503D01*
X83317386Y-49910827D01*
X83259397Y-49770827D01*
X83259390Y-49770814D01*
X83171789Y-49639711D01*
X83171786Y-49639707D01*
X83060292Y-49528213D01*
X83060288Y-49528210D01*
X82929185Y-49440609D01*
X82929172Y-49440602D01*
X82783501Y-49380264D01*
X82783491Y-49380261D01*
X82628149Y-49349361D01*
X82566238Y-49316976D01*
X82564660Y-49315425D01*
X80886819Y-47637584D01*
X80853334Y-47576261D01*
X80850500Y-47549903D01*
X80850500Y-47000097D01*
X80870185Y-46933058D01*
X80886819Y-46912416D01*
X82793491Y-45005744D01*
X84714662Y-43084572D01*
X84775983Y-43051089D01*
X84778150Y-43050638D01*
X84836085Y-43039113D01*
X84933497Y-43019737D01*
X85079179Y-42959394D01*
X85210289Y-42871789D01*
X85321789Y-42760289D01*
X85409394Y-42629179D01*
X85469737Y-42483497D01*
X85500500Y-42328842D01*
X85500638Y-42328150D01*
X85533023Y-42266239D01*
X85534518Y-42264716D01*
X86412416Y-41386819D01*
X86473739Y-41353334D01*
X86500097Y-41350500D01*
X89575500Y-41350500D01*
X89642539Y-41370185D01*
X89688294Y-41422989D01*
X89699500Y-41474500D01*
X89699500Y-41478846D01*
X89730261Y-41633489D01*
X89730264Y-41633501D01*
X89790061Y-41777864D01*
X89799500Y-41825316D01*
X89799500Y-52420234D01*
X89779815Y-52487273D01*
X89778602Y-52489125D01*
X89690609Y-52620814D01*
X89690602Y-52620827D01*
X89630264Y-52766498D01*
X89630261Y-52766510D01*
X89599500Y-52921153D01*
X89599500Y-53078846D01*
X89630261Y-53233489D01*
X89630264Y-53233501D01*
X89690602Y-53379172D01*
X89690609Y-53379185D01*
X89778210Y-53510288D01*
X89778213Y-53510292D01*
X89889707Y-53621786D01*
X89889711Y-53621789D01*
X90020814Y-53709390D01*
X90020827Y-53709397D01*
X90166498Y-53769735D01*
X90166503Y-53769737D01*
X90321153Y-53800499D01*
X90321156Y-53800500D01*
X90321158Y-53800500D01*
X90478844Y-53800500D01*
X90478845Y-53800499D01*
X90633497Y-53769737D01*
X90779179Y-53709394D01*
X90910289Y-53621789D01*
X91021789Y-53510289D01*
X91109394Y-53379179D01*
X91169737Y-53233497D01*
X91200500Y-53078842D01*
X91200500Y-52921158D01*
X91200500Y-52921155D01*
X91200499Y-52921153D01*
X91198650Y-52911857D01*
X91169737Y-52766503D01*
X91145712Y-52708501D01*
X91109397Y-52620827D01*
X91109390Y-52620814D01*
X91021398Y-52489125D01*
X91000520Y-52422447D01*
X91000500Y-52420234D01*
X91000500Y-48889778D01*
X92559500Y-48889778D01*
X92559500Y-49110221D01*
X92593985Y-49327952D01*
X92662103Y-49537603D01*
X92662104Y-49537606D01*
X92728652Y-49668210D01*
X92759481Y-49728716D01*
X92762187Y-49734025D01*
X92891752Y-49912358D01*
X92891756Y-49912363D01*
X93047636Y-50068243D01*
X93047641Y-50068247D01*
X93177175Y-50162358D01*
X93225978Y-50197815D01*
X93354375Y-50263237D01*
X93422393Y-50297895D01*
X93422396Y-50297896D01*
X93485032Y-50318247D01*
X93632049Y-50366015D01*
X93849778Y-50400500D01*
X93849779Y-50400500D01*
X94070221Y-50400500D01*
X94070222Y-50400500D01*
X94287951Y-50366015D01*
X94497606Y-50297895D01*
X94694022Y-50197815D01*
X94872365Y-50068242D01*
X95028242Y-49912365D01*
X95157815Y-49734022D01*
X95257895Y-49537606D01*
X95326015Y-49327951D01*
X95360500Y-49110222D01*
X95360500Y-48889778D01*
X97639500Y-48889778D01*
X97639500Y-49110221D01*
X97673985Y-49327952D01*
X97742103Y-49537603D01*
X97742104Y-49537606D01*
X97808652Y-49668210D01*
X97839481Y-49728716D01*
X97842187Y-49734025D01*
X97971752Y-49912358D01*
X97971756Y-49912363D01*
X98127636Y-50068243D01*
X98127641Y-50068247D01*
X98257175Y-50162358D01*
X98305978Y-50197815D01*
X98434375Y-50263237D01*
X98502393Y-50297895D01*
X98502396Y-50297896D01*
X98565032Y-50318247D01*
X98712049Y-50366015D01*
X98929778Y-50400500D01*
X98929779Y-50400500D01*
X99150221Y-50400500D01*
X99150222Y-50400500D01*
X99367951Y-50366015D01*
X99577606Y-50297895D01*
X99774022Y-50197815D01*
X99952365Y-50068242D01*
X100108242Y-49912365D01*
X100237815Y-49734022D01*
X100337895Y-49537606D01*
X100406015Y-49327951D01*
X100440500Y-49110222D01*
X100440500Y-48889778D01*
X100406015Y-48672049D01*
X100355304Y-48515974D01*
X100337896Y-48462396D01*
X100337895Y-48462393D01*
X100303237Y-48394375D01*
X100237815Y-48265978D01*
X100108248Y-48087643D01*
X100108247Y-48087641D01*
X100108243Y-48087636D01*
X99952363Y-47931756D01*
X99952358Y-47931752D01*
X99774025Y-47802187D01*
X99774024Y-47802186D01*
X99774022Y-47802185D01*
X99697766Y-47763330D01*
X99577606Y-47702104D01*
X99577603Y-47702103D01*
X99367952Y-47633985D01*
X99259086Y-47616742D01*
X99150222Y-47599500D01*
X98929778Y-47599500D01*
X98857201Y-47610995D01*
X98712047Y-47633985D01*
X98502396Y-47702103D01*
X98502393Y-47702104D01*
X98305974Y-47802187D01*
X98127641Y-47931752D01*
X98127636Y-47931756D01*
X97971756Y-48087636D01*
X97971752Y-48087641D01*
X97842187Y-48265974D01*
X97742104Y-48462393D01*
X97742103Y-48462396D01*
X97673985Y-48672047D01*
X97639500Y-48889778D01*
X95360500Y-48889778D01*
X95326015Y-48672049D01*
X95275304Y-48515974D01*
X95257896Y-48462396D01*
X95257895Y-48462393D01*
X95223237Y-48394375D01*
X95157815Y-48265978D01*
X95028248Y-48087643D01*
X95028247Y-48087641D01*
X95028243Y-48087636D01*
X94872363Y-47931756D01*
X94872358Y-47931752D01*
X94694025Y-47802187D01*
X94694024Y-47802186D01*
X94694022Y-47802185D01*
X94617766Y-47763330D01*
X94497606Y-47702104D01*
X94497603Y-47702103D01*
X94287952Y-47633985D01*
X94179086Y-47616742D01*
X94070222Y-47599500D01*
X93849778Y-47599500D01*
X93777201Y-47610995D01*
X93632047Y-47633985D01*
X93422396Y-47702103D01*
X93422393Y-47702104D01*
X93225974Y-47802187D01*
X93047641Y-47931752D01*
X93047636Y-47931756D01*
X92891756Y-48087636D01*
X92891752Y-48087641D01*
X92762187Y-48265974D01*
X92662104Y-48462393D01*
X92662103Y-48462396D01*
X92593985Y-48672047D01*
X92559500Y-48889778D01*
X91000500Y-48889778D01*
X91000500Y-42083653D01*
X102199500Y-42083653D01*
X102199500Y-42241346D01*
X102230261Y-42395989D01*
X102230264Y-42396001D01*
X102290602Y-42541672D01*
X102290609Y-42541685D01*
X102378210Y-42672788D01*
X102378213Y-42672792D01*
X102489707Y-42784286D01*
X102489711Y-42784289D01*
X102620814Y-42871890D01*
X102620827Y-42871897D01*
X102766498Y-42932235D01*
X102766503Y-42932237D01*
X102812622Y-42941410D01*
X102874531Y-42973793D01*
X102876111Y-42975346D01*
X104906509Y-45005744D01*
X104939994Y-45067067D01*
X104935010Y-45136759D01*
X104893138Y-45192692D01*
X104843020Y-45215042D01*
X104766508Y-45230261D01*
X104766498Y-45230264D01*
X104620827Y-45290602D01*
X104620814Y-45290609D01*
X104489711Y-45378210D01*
X104489707Y-45378213D01*
X104378213Y-45489707D01*
X104378210Y-45489711D01*
X104290609Y-45620814D01*
X104290602Y-45620827D01*
X104230264Y-45766498D01*
X104230261Y-45766510D01*
X104199500Y-45921153D01*
X104199500Y-46078846D01*
X104230261Y-46233489D01*
X104230264Y-46233501D01*
X104290602Y-46379172D01*
X104290609Y-46379185D01*
X104378602Y-46510874D01*
X104399480Y-46577551D01*
X104399500Y-46579765D01*
X104399500Y-51867059D01*
X104379815Y-51934098D01*
X104363181Y-51954740D01*
X104328213Y-51989707D01*
X104328210Y-51989711D01*
X104240609Y-52120814D01*
X104240602Y-52120827D01*
X104180264Y-52266498D01*
X104180261Y-52266510D01*
X104149500Y-52421153D01*
X104149500Y-52578846D01*
X104180261Y-52733489D01*
X104180264Y-52733501D01*
X104240602Y-52879172D01*
X104240609Y-52879185D01*
X104328210Y-53010288D01*
X104328213Y-53010292D01*
X104439707Y-53121786D01*
X104439711Y-53121789D01*
X104570814Y-53209390D01*
X104570827Y-53209397D01*
X104715998Y-53269528D01*
X104716503Y-53269737D01*
X104826375Y-53291592D01*
X104871153Y-53300499D01*
X104871156Y-53300500D01*
X104871158Y-53300500D01*
X105028844Y-53300500D01*
X105028845Y-53300499D01*
X105183497Y-53269737D01*
X105315343Y-53215125D01*
X105329172Y-53209397D01*
X105329172Y-53209396D01*
X105329179Y-53209394D01*
X105460289Y-53121789D01*
X105571789Y-53010289D01*
X105659394Y-52879179D01*
X105719737Y-52733497D01*
X105750500Y-52578842D01*
X105750500Y-52421158D01*
X105750500Y-52421155D01*
X105750499Y-52421153D01*
X105745527Y-52396158D01*
X105719737Y-52266503D01*
X105696840Y-52211224D01*
X105659397Y-52120828D01*
X105659396Y-52120827D01*
X105659394Y-52120821D01*
X105621396Y-52063953D01*
X105600520Y-51997276D01*
X105600500Y-51995064D01*
X105600500Y-46579765D01*
X105620185Y-46512726D01*
X105621398Y-46510874D01*
X105709390Y-46379185D01*
X105709390Y-46379184D01*
X105709394Y-46379179D01*
X105769737Y-46233497D01*
X105792606Y-46118528D01*
X105824991Y-46056617D01*
X105885706Y-46022043D01*
X105955476Y-46025782D01*
X105976224Y-46035332D01*
X106018215Y-46059577D01*
X106170943Y-46100500D01*
X106170951Y-46100500D01*
X106179003Y-46101561D01*
X106178811Y-46103018D01*
X106188377Y-46105827D01*
X106207287Y-46106165D01*
X106235504Y-46119665D01*
X106237273Y-46120185D01*
X106239125Y-46121398D01*
X106369339Y-46208404D01*
X106414144Y-46262016D01*
X106422851Y-46331341D01*
X106420223Y-46343599D01*
X106399499Y-46420943D01*
X106398438Y-46429003D01*
X106396980Y-46428811D01*
X106379814Y-46487274D01*
X106378601Y-46489126D01*
X106290609Y-46620814D01*
X106290602Y-46620827D01*
X106230264Y-46766498D01*
X106230261Y-46766510D01*
X106199500Y-46921153D01*
X106199500Y-47078846D01*
X106230261Y-47233489D01*
X106230264Y-47233501D01*
X106290602Y-47379172D01*
X106290609Y-47379185D01*
X106378602Y-47510874D01*
X106399480Y-47577551D01*
X106399500Y-47579765D01*
X106399500Y-50920234D01*
X106379815Y-50987273D01*
X106378602Y-50989125D01*
X106290609Y-51120814D01*
X106290602Y-51120827D01*
X106230264Y-51266498D01*
X106230261Y-51266510D01*
X106199500Y-51421153D01*
X106199500Y-51578846D01*
X106230261Y-51733489D01*
X106230264Y-51733501D01*
X106290602Y-51879172D01*
X106290609Y-51879185D01*
X106378210Y-52010288D01*
X106378213Y-52010292D01*
X106489707Y-52121786D01*
X106489711Y-52121789D01*
X106620814Y-52209390D01*
X106620827Y-52209397D01*
X106698356Y-52241510D01*
X106766503Y-52269737D01*
X106921153Y-52300499D01*
X106921156Y-52300500D01*
X106921158Y-52300500D01*
X107078844Y-52300500D01*
X107078845Y-52300499D01*
X107233497Y-52269737D01*
X107374761Y-52211224D01*
X107379172Y-52209397D01*
X107379172Y-52209396D01*
X107379179Y-52209394D01*
X107510289Y-52121789D01*
X107621789Y-52010289D01*
X107709394Y-51879179D01*
X107769737Y-51733497D01*
X107800500Y-51578842D01*
X107800500Y-51421158D01*
X107800500Y-51421155D01*
X107800499Y-51421153D01*
X107769738Y-51266510D01*
X107769737Y-51266503D01*
X107734244Y-51180814D01*
X107709397Y-51120827D01*
X107709390Y-51120814D01*
X107621398Y-50989125D01*
X107600520Y-50922447D01*
X107600500Y-50920234D01*
X107600500Y-47579765D01*
X107620185Y-47512726D01*
X107621398Y-47510874D01*
X107709390Y-47379185D01*
X107709390Y-47379184D01*
X107709394Y-47379179D01*
X107769737Y-47233497D01*
X107800500Y-47078842D01*
X107800500Y-46921158D01*
X107800500Y-46921155D01*
X107800499Y-46921153D01*
X107798761Y-46912416D01*
X107769737Y-46766503D01*
X107746670Y-46710816D01*
X107739201Y-46641349D01*
X107770475Y-46578869D01*
X107773489Y-46575745D01*
X108212418Y-46136816D01*
X108273740Y-46103334D01*
X108300098Y-46100500D01*
X109170234Y-46100500D01*
X109237273Y-46120185D01*
X109239125Y-46121398D01*
X109370814Y-46209390D01*
X109370827Y-46209397D01*
X109512831Y-46268216D01*
X109516503Y-46269737D01*
X109671153Y-46300499D01*
X109671156Y-46300500D01*
X109671158Y-46300500D01*
X109828844Y-46300500D01*
X109828845Y-46300499D01*
X109983497Y-46269737D01*
X110129179Y-46209394D01*
X110130661Y-46208404D01*
X110260875Y-46121398D01*
X110327553Y-46100520D01*
X110329766Y-46100500D01*
X110699903Y-46100500D01*
X110766942Y-46120185D01*
X110787584Y-46136819D01*
X111226447Y-46575683D01*
X111259932Y-46637006D01*
X111254948Y-46706698D01*
X111253328Y-46710814D01*
X111230264Y-46766497D01*
X111230261Y-46766505D01*
X111199500Y-46921153D01*
X111199500Y-47078846D01*
X111230261Y-47233489D01*
X111230264Y-47233501D01*
X111290602Y-47379172D01*
X111290609Y-47379185D01*
X111378602Y-47510874D01*
X111399480Y-47577551D01*
X111399500Y-47579765D01*
X111399500Y-50920234D01*
X111379815Y-50987273D01*
X111378602Y-50989125D01*
X111290609Y-51120814D01*
X111290602Y-51120827D01*
X111230264Y-51266498D01*
X111230261Y-51266510D01*
X111199500Y-51421153D01*
X111199500Y-51578846D01*
X111230261Y-51733489D01*
X111230264Y-51733501D01*
X111290602Y-51879172D01*
X111290609Y-51879185D01*
X111378210Y-52010288D01*
X111378213Y-52010292D01*
X111489707Y-52121786D01*
X111489711Y-52121789D01*
X111620814Y-52209390D01*
X111620827Y-52209397D01*
X111698356Y-52241510D01*
X111766503Y-52269737D01*
X111921153Y-52300499D01*
X111921156Y-52300500D01*
X111921158Y-52300500D01*
X112078844Y-52300500D01*
X112078845Y-52300499D01*
X112233497Y-52269737D01*
X112374761Y-52211224D01*
X112379172Y-52209397D01*
X112379172Y-52209396D01*
X112379179Y-52209394D01*
X112510289Y-52121789D01*
X112621789Y-52010289D01*
X112709394Y-51879179D01*
X112769737Y-51733497D01*
X112800500Y-51578842D01*
X112800500Y-51421158D01*
X112800500Y-51421155D01*
X112800499Y-51421153D01*
X112769738Y-51266510D01*
X112769737Y-51266503D01*
X112734244Y-51180814D01*
X112709397Y-51120827D01*
X112709390Y-51120814D01*
X112621398Y-50989125D01*
X112600520Y-50922447D01*
X112600500Y-50920234D01*
X112600500Y-47579765D01*
X112620185Y-47512726D01*
X112621398Y-47510874D01*
X112709390Y-47379185D01*
X112709390Y-47379184D01*
X112709394Y-47379179D01*
X112769737Y-47233497D01*
X112800500Y-47078842D01*
X112800500Y-46921158D01*
X112800500Y-46921155D01*
X112800499Y-46921153D01*
X112798761Y-46912416D01*
X112769737Y-46766503D01*
X112714965Y-46634270D01*
X112709397Y-46620827D01*
X112709390Y-46620814D01*
X112621399Y-46489126D01*
X112602533Y-46428874D01*
X112601562Y-46429002D01*
X112600828Y-46423429D01*
X112600521Y-46422448D01*
X112600507Y-46420996D01*
X112600501Y-46420945D01*
X112600501Y-46420943D01*
X112559577Y-46268216D01*
X112559573Y-46268209D01*
X112480524Y-46131290D01*
X112480518Y-46131282D01*
X111487590Y-45138355D01*
X111487588Y-45138352D01*
X111368717Y-45019481D01*
X111368716Y-45019480D01*
X111281904Y-44969360D01*
X111281904Y-44969359D01*
X111281900Y-44969358D01*
X111231785Y-44940423D01*
X111079057Y-44899499D01*
X110920943Y-44899499D01*
X110913347Y-44899499D01*
X110913331Y-44899500D01*
X110474500Y-44899500D01*
X110407461Y-44879815D01*
X110361706Y-44827011D01*
X110350500Y-44775500D01*
X110350500Y-36629059D01*
X110350501Y-36629046D01*
X110350501Y-36460945D01*
X110350501Y-36460943D01*
X110321346Y-36352135D01*
X118899500Y-36352135D01*
X118899500Y-38147870D01*
X118899501Y-38147876D01*
X118905908Y-38207483D01*
X118956202Y-38342328D01*
X118956206Y-38342335D01*
X119042452Y-38457544D01*
X119042455Y-38457547D01*
X119157664Y-38543793D01*
X119157671Y-38543797D01*
X119292517Y-38594091D01*
X119292516Y-38594091D01*
X119299444Y-38594835D01*
X119352127Y-38600500D01*
X121147872Y-38600499D01*
X121207483Y-38594091D01*
X121342331Y-38543796D01*
X121457546Y-38457546D01*
X121543796Y-38342331D01*
X121594091Y-38207483D01*
X121600500Y-38147873D01*
X121600499Y-36352128D01*
X121594091Y-36292517D01*
X121548874Y-36171285D01*
X121543797Y-36157671D01*
X121543793Y-36157664D01*
X121457547Y-36042455D01*
X121457544Y-36042452D01*
X121342335Y-35956206D01*
X121342328Y-35956202D01*
X121207482Y-35905908D01*
X121207483Y-35905908D01*
X121147883Y-35899501D01*
X121147881Y-35899500D01*
X121147873Y-35899500D01*
X121147864Y-35899500D01*
X119352129Y-35899500D01*
X119352123Y-35899501D01*
X119292516Y-35905908D01*
X119157671Y-35956202D01*
X119157664Y-35956206D01*
X119042455Y-36042452D01*
X119042452Y-36042455D01*
X118956206Y-36157664D01*
X118956202Y-36157671D01*
X118905908Y-36292517D01*
X118899501Y-36352116D01*
X118899501Y-36352123D01*
X118899500Y-36352135D01*
X110321346Y-36352135D01*
X110309577Y-36308215D01*
X110275678Y-36249500D01*
X110230520Y-36171284D01*
X110118716Y-36059480D01*
X110118715Y-36059479D01*
X110114385Y-36055149D01*
X110114374Y-36055139D01*
X108333438Y-34274203D01*
X108299953Y-34212880D01*
X108303187Y-34148205D01*
X108326015Y-34077951D01*
X108360500Y-33860222D01*
X108360500Y-33639778D01*
X110639500Y-33639778D01*
X110639500Y-33860221D01*
X110673985Y-34077952D01*
X110742103Y-34287603D01*
X110742104Y-34287606D01*
X110842187Y-34484025D01*
X110971752Y-34662358D01*
X110971756Y-34662363D01*
X111127636Y-34818243D01*
X111127641Y-34818247D01*
X111160796Y-34842335D01*
X111305978Y-34947815D01*
X111434375Y-35013237D01*
X111502393Y-35047895D01*
X111502396Y-35047896D01*
X111569525Y-35069707D01*
X111712049Y-35116015D01*
X111929778Y-35150500D01*
X111929779Y-35150500D01*
X112150221Y-35150500D01*
X112150222Y-35150500D01*
X112367951Y-35116015D01*
X112577606Y-35047895D01*
X112774022Y-34947815D01*
X112952365Y-34818242D01*
X113108242Y-34662365D01*
X113237815Y-34484022D01*
X113337895Y-34287606D01*
X113406015Y-34077951D01*
X113440500Y-33860222D01*
X113440500Y-33639778D01*
X113406015Y-33422049D01*
X113337895Y-33212394D01*
X113337895Y-33212393D01*
X113303237Y-33144375D01*
X113237815Y-33015978D01*
X113118777Y-32852135D01*
X113108247Y-32837641D01*
X113108243Y-32837636D01*
X112952363Y-32681756D01*
X112952358Y-32681752D01*
X112774025Y-32552187D01*
X112774024Y-32552186D01*
X112774022Y-32552185D01*
X112711096Y-32520122D01*
X112577606Y-32452104D01*
X112577603Y-32452103D01*
X112367952Y-32383985D01*
X112259086Y-32366742D01*
X112150222Y-32349500D01*
X111929778Y-32349500D01*
X111857201Y-32360995D01*
X111712047Y-32383985D01*
X111502396Y-32452103D01*
X111502393Y-32452104D01*
X111305974Y-32552187D01*
X111127641Y-32681752D01*
X111127636Y-32681756D01*
X110971756Y-32837636D01*
X110971752Y-32837641D01*
X110842187Y-33015974D01*
X110742104Y-33212393D01*
X110742103Y-33212396D01*
X110673985Y-33422047D01*
X110639500Y-33639778D01*
X108360500Y-33639778D01*
X108326015Y-33422049D01*
X108257895Y-33212394D01*
X108257895Y-33212393D01*
X108223237Y-33144375D01*
X108157815Y-33015978D01*
X108038777Y-32852135D01*
X108028247Y-32837641D01*
X108028243Y-32837636D01*
X107872363Y-32681756D01*
X107872358Y-32681752D01*
X107694025Y-32552187D01*
X107694024Y-32552186D01*
X107694022Y-32552185D01*
X107631096Y-32520122D01*
X107497606Y-32452104D01*
X107497603Y-32452103D01*
X107287952Y-32383985D01*
X107179086Y-32366742D01*
X107070222Y-32349500D01*
X106849778Y-32349500D01*
X106777201Y-32360995D01*
X106632047Y-32383985D01*
X106422396Y-32452103D01*
X106422393Y-32452104D01*
X106225974Y-32552187D01*
X106047641Y-32681752D01*
X106047636Y-32681756D01*
X105891756Y-32837636D01*
X105891752Y-32837641D01*
X105762187Y-33015974D01*
X105662104Y-33212393D01*
X105662103Y-33212396D01*
X105593985Y-33422047D01*
X105559500Y-33639778D01*
X105559500Y-33860221D01*
X105593985Y-34077952D01*
X105662103Y-34287603D01*
X105662104Y-34287606D01*
X105762187Y-34484025D01*
X105891752Y-34662358D01*
X105891756Y-34662363D01*
X106047636Y-34818243D01*
X106047641Y-34818247D01*
X106080796Y-34842335D01*
X106225978Y-34947815D01*
X106354375Y-35013237D01*
X106422393Y-35047895D01*
X106422396Y-35047896D01*
X106489525Y-35069707D01*
X106632049Y-35116015D01*
X106849778Y-35150500D01*
X106849779Y-35150500D01*
X107070221Y-35150500D01*
X107070222Y-35150500D01*
X107287951Y-35116015D01*
X107358205Y-35093187D01*
X107428044Y-35091192D01*
X107484203Y-35123438D01*
X109113181Y-36752416D01*
X109146666Y-36813739D01*
X109149500Y-36840097D01*
X109149500Y-44775500D01*
X109129815Y-44842539D01*
X109077011Y-44888294D01*
X109025500Y-44899500D01*
X108086670Y-44899500D01*
X108086654Y-44899499D01*
X108079058Y-44899499D01*
X107920943Y-44899499D01*
X107844579Y-44919961D01*
X107768214Y-44940423D01*
X107768209Y-44940426D01*
X107631290Y-45019475D01*
X107631281Y-45019482D01*
X107594489Y-45056273D01*
X107533165Y-45089757D01*
X107463474Y-45084771D01*
X107407541Y-45042898D01*
X107403708Y-45037480D01*
X107371792Y-44989715D01*
X107371786Y-44989707D01*
X107260292Y-44878213D01*
X107260288Y-44878210D01*
X107129185Y-44790609D01*
X107129172Y-44790602D01*
X106983501Y-44730264D01*
X106983489Y-44730261D01*
X106828845Y-44699500D01*
X106828842Y-44699500D01*
X106671158Y-44699500D01*
X106671155Y-44699500D01*
X106516511Y-44730260D01*
X106516502Y-44730263D01*
X106460814Y-44753329D01*
X106391345Y-44760796D01*
X106328866Y-44729520D01*
X106325683Y-44726448D01*
X103836819Y-42237584D01*
X103803334Y-42176261D01*
X103800500Y-42149903D01*
X103800500Y-42083655D01*
X103800499Y-42083653D01*
X103788193Y-42021789D01*
X103769737Y-41929003D01*
X103769735Y-41928998D01*
X103709397Y-41783327D01*
X103709390Y-41783314D01*
X103621789Y-41652211D01*
X103621786Y-41652207D01*
X103510292Y-41540713D01*
X103510288Y-41540710D01*
X103379185Y-41453109D01*
X103379172Y-41453102D01*
X103233501Y-41392764D01*
X103233489Y-41392761D01*
X103078845Y-41362000D01*
X103078842Y-41362000D01*
X102921158Y-41362000D01*
X102921155Y-41362000D01*
X102766510Y-41392761D01*
X102766498Y-41392764D01*
X102620827Y-41453102D01*
X102620814Y-41453109D01*
X102489711Y-41540710D01*
X102489707Y-41540713D01*
X102378213Y-41652207D01*
X102378210Y-41652211D01*
X102290609Y-41783314D01*
X102290602Y-41783327D01*
X102230264Y-41928998D01*
X102230261Y-41929010D01*
X102199500Y-42083653D01*
X91000500Y-42083653D01*
X91000500Y-42082940D01*
X91007176Y-42060201D01*
X91007136Y-42059919D01*
X91007482Y-42059159D01*
X91009144Y-42053499D01*
X91015668Y-42023513D01*
X91019422Y-42018497D01*
X91020185Y-42015901D01*
X91036819Y-41995259D01*
X91121789Y-41910289D01*
X91209394Y-41779179D01*
X91269737Y-41633497D01*
X91300500Y-41478842D01*
X91300500Y-41474500D01*
X91320185Y-41407461D01*
X91372989Y-41361706D01*
X91424500Y-41350500D01*
X93670234Y-41350500D01*
X93737273Y-41370185D01*
X93739125Y-41371398D01*
X93870814Y-41459390D01*
X93870827Y-41459397D01*
X94016498Y-41519735D01*
X94016503Y-41519737D01*
X94121941Y-41540710D01*
X94171153Y-41550499D01*
X94171156Y-41550500D01*
X94171158Y-41550500D01*
X94328844Y-41550500D01*
X94328845Y-41550499D01*
X94483497Y-41519737D01*
X94629179Y-41459394D01*
X94760289Y-41371789D01*
X94871789Y-41260289D01*
X94959394Y-41129179D01*
X95019737Y-40983497D01*
X95050500Y-40828842D01*
X95050500Y-40671158D01*
X95050500Y-40671155D01*
X95050499Y-40671153D01*
X95019738Y-40516510D01*
X95019737Y-40516503D01*
X94963728Y-40381284D01*
X94959397Y-40370827D01*
X94959390Y-40370814D01*
X94871789Y-40239711D01*
X94871786Y-40239707D01*
X94760292Y-40128213D01*
X94760288Y-40128210D01*
X94629185Y-40040609D01*
X94629172Y-40040602D01*
X94483501Y-39980264D01*
X94483489Y-39980261D01*
X94328845Y-39949500D01*
X94328842Y-39949500D01*
X94171158Y-39949500D01*
X94171155Y-39949500D01*
X94016510Y-39980261D01*
X94016498Y-39980264D01*
X93870827Y-40040602D01*
X93870814Y-40040609D01*
X93739125Y-40128602D01*
X93672447Y-40149480D01*
X93670234Y-40149500D01*
X86120940Y-40149500D01*
X86080019Y-40160464D01*
X86080019Y-40160465D01*
X86042751Y-40170451D01*
X85968214Y-40190423D01*
X85968209Y-40190426D01*
X85831290Y-40269475D01*
X85831282Y-40269481D01*
X84685339Y-41415425D01*
X84624016Y-41448910D01*
X84621850Y-41449361D01*
X84466508Y-41480261D01*
X84466498Y-41480264D01*
X84320827Y-41540602D01*
X84320814Y-41540609D01*
X84189711Y-41628210D01*
X84189707Y-41628213D01*
X84078213Y-41739707D01*
X84078210Y-41739711D01*
X83990609Y-41870814D01*
X83990602Y-41870827D01*
X83930264Y-42016498D01*
X83930261Y-42016508D01*
X83899361Y-42171850D01*
X83866976Y-42233761D01*
X83865425Y-42235339D01*
X79769481Y-46331282D01*
X79769479Y-46331284D01*
X79741832Y-46379172D01*
X79730096Y-46399500D01*
X79690423Y-46468215D01*
X79649499Y-46620943D01*
X79649499Y-46779057D01*
X79649499Y-46779059D01*
X79649500Y-46789053D01*
X79649500Y-47763330D01*
X79649499Y-47763348D01*
X79649499Y-47929054D01*
X79649498Y-47929054D01*
X78350500Y-47929054D01*
X78350500Y-33561571D01*
X78370185Y-33494532D01*
X78422989Y-33448777D01*
X78492147Y-33438833D01*
X78548811Y-33462305D01*
X78657664Y-33543793D01*
X78657671Y-33543797D01*
X78792517Y-33594091D01*
X78792516Y-33594091D01*
X78799444Y-33594835D01*
X78852127Y-33600500D01*
X80647872Y-33600499D01*
X80707483Y-33594091D01*
X80842331Y-33543796D01*
X80957546Y-33457546D01*
X81043796Y-33342331D01*
X81094091Y-33207483D01*
X81100500Y-33147873D01*
X81100500Y-32852135D01*
X100649500Y-32852135D01*
X100649500Y-34647870D01*
X100649501Y-34647876D01*
X100655908Y-34707483D01*
X100706202Y-34842328D01*
X100706206Y-34842335D01*
X100792452Y-34957544D01*
X100792455Y-34957547D01*
X100907664Y-35043793D01*
X100907671Y-35043797D01*
X101042517Y-35094091D01*
X101042516Y-35094091D01*
X101049444Y-35094835D01*
X101102127Y-35100500D01*
X102897872Y-35100499D01*
X102957483Y-35094091D01*
X103092331Y-35043796D01*
X103207546Y-34957546D01*
X103293796Y-34842331D01*
X103344091Y-34707483D01*
X103350500Y-34647873D01*
X103350499Y-32852128D01*
X103344091Y-32792517D01*
X103342960Y-32789485D01*
X103293797Y-32657671D01*
X103293793Y-32657664D01*
X103207547Y-32542455D01*
X103207544Y-32542452D01*
X103092335Y-32456206D01*
X103092328Y-32456202D01*
X102957482Y-32405908D01*
X102957483Y-32405908D01*
X102897883Y-32399501D01*
X102897881Y-32399500D01*
X102897873Y-32399500D01*
X102897864Y-32399500D01*
X101102129Y-32399500D01*
X101102123Y-32399501D01*
X101042516Y-32405908D01*
X100907671Y-32456202D01*
X100907664Y-32456206D01*
X100792455Y-32542452D01*
X100792452Y-32542455D01*
X100706206Y-32657664D01*
X100706202Y-32657671D01*
X100655908Y-32792517D01*
X100651058Y-32837635D01*
X100649501Y-32852123D01*
X100649500Y-32852135D01*
X81100500Y-32852135D01*
X81100499Y-31352128D01*
X81094091Y-31292517D01*
X81043796Y-31157669D01*
X81043795Y-31157668D01*
X81043793Y-31157664D01*
X80957547Y-31042455D01*
X80957544Y-31042452D01*
X80842335Y-30956206D01*
X80842328Y-30956202D01*
X80707482Y-30905908D01*
X80707483Y-30905908D01*
X80647883Y-30899501D01*
X80647881Y-30899500D01*
X80647873Y-30899500D01*
X80647864Y-30899500D01*
X78852129Y-30899500D01*
X78852123Y-30899501D01*
X78792516Y-30905908D01*
X78657671Y-30956202D01*
X78657669Y-30956204D01*
X78548811Y-31037695D01*
X78483347Y-31062112D01*
X78415074Y-31047260D01*
X78365668Y-30997855D01*
X78350500Y-30938428D01*
X78350500Y-29920945D01*
X78350500Y-29920943D01*
X78309577Y-29768216D01*
X78309577Y-29768215D01*
X78309577Y-29768214D01*
X78280639Y-29718095D01*
X78280637Y-29718092D01*
X78230520Y-29631284D01*
X78118716Y-29519480D01*
X78118715Y-29519479D01*
X78114385Y-29515149D01*
X78114374Y-29515139D01*
X77834574Y-29235339D01*
X77801089Y-29174016D01*
X77800638Y-29171849D01*
X77769738Y-29016510D01*
X77769737Y-29016503D01*
X77769735Y-29016498D01*
X77709397Y-28870827D01*
X77709390Y-28870814D01*
X77621789Y-28739711D01*
X77621786Y-28739707D01*
X77510292Y-28628213D01*
X77510288Y-28628210D01*
X77379185Y-28540609D01*
X77379172Y-28540602D01*
X77233501Y-28480264D01*
X77233489Y-28480261D01*
X77078845Y-28449500D01*
X77078842Y-28449500D01*
X76921158Y-28449500D01*
X76921155Y-28449500D01*
X76766510Y-28480261D01*
X76766498Y-28480264D01*
X76620827Y-28540602D01*
X76620814Y-28540609D01*
X76489711Y-28628210D01*
X76489707Y-28628213D01*
X76378213Y-28739707D01*
X76378210Y-28739711D01*
X76290609Y-28870814D01*
X76290602Y-28870827D01*
X76230264Y-29016498D01*
X76230261Y-29016510D01*
X76199500Y-29171153D01*
X66000500Y-29171153D01*
X66000500Y-26678938D01*
X66020185Y-26611899D01*
X66072989Y-26566144D01*
X66142147Y-26556200D01*
X66205703Y-26585225D01*
X66227602Y-26610048D01*
X66272857Y-26677777D01*
X66272863Y-26677785D01*
X66412214Y-26817136D01*
X66412218Y-26817139D01*
X66576079Y-26926628D01*
X66576092Y-26926635D01*
X66741480Y-26995140D01*
X66758165Y-27002051D01*
X66758169Y-27002051D01*
X66758170Y-27002052D01*
X66951456Y-27040500D01*
X66951459Y-27040500D01*
X67748543Y-27040500D01*
X67904462Y-27009485D01*
X67941835Y-27002051D01*
X68123914Y-26926632D01*
X68287782Y-26817139D01*
X68427139Y-26677782D01*
X68536632Y-26513914D01*
X68612051Y-26331835D01*
X68650500Y-26138541D01*
X68650500Y-25941459D01*
X68650500Y-25941456D01*
X68612052Y-25748170D01*
X68612051Y-25748169D01*
X68612051Y-25748165D01*
X68612049Y-25748160D01*
X68536635Y-25566092D01*
X68536628Y-25566079D01*
X68427139Y-25402218D01*
X68427136Y-25402214D01*
X68287785Y-25262863D01*
X68287781Y-25262860D01*
X68235014Y-25227602D01*
X68190209Y-25173990D01*
X68181502Y-25104665D01*
X68211657Y-25041637D01*
X68271100Y-25004918D01*
X68303905Y-25000500D01*
X70326095Y-25000500D01*
X70393134Y-25020185D01*
G37*
%TD.AperFunction*%
%TD*%
M02*
