M48
; DRILL file KiCad 10.0.1 date 2026-06-07T10:21:04
; FORMAT={-:-/ absolute / inch / decimal}
; #@! TF.CreationDate,2026-06-07T10:21:04+02:00
; #@! TF.GenerationSoftware,Kicad,Pcbnew,10.0.1
; #@! TF.FileFunction,Plated,1,2,PTH
FMAT,2
INCH
; #@! TA.AperFunction,Plated,PTH,ViaDrill
T1C0.0118
; #@! TA.AperFunction,Plated,PTH,ComponentDrill
T2C0.0118
; #@! TA.AperFunction,Plated,PTH,ComponentDrill
T3C0.0236
; #@! TA.AperFunction,Plated,PTH,ComponentDrill
T4C0.0394
; #@! TA.AperFunction,Plated,PTH,ComponentDrill
T5C0.0472
%
G90
G05
T1
X2.6181Y-3.8681
X2.9232Y-2.0799
X2.9921Y-1.8012
X3.002Y-2.3819
X3.0079Y-2.122
X3.0118Y-3.1319
X3.0315Y-1.1516
X3.0315Y-1.2303
X3.0349Y-3.248
X3.0807Y-3.061
X3.0807Y-3.3307
X3.0906Y-2.5394
X3.1181Y-1.9799
X3.1181Y-2.0299
X3.1181Y-2.2299
X3.1988Y-1.6634
X3.2185Y-1.8996
X3.25Y-1.9744
X3.2965Y-2.2344
X3.2988Y-2.4764
X3.3209Y-3.6575
X3.3268Y-3.4409
X3.3307Y-2.3976
X3.3346Y-1.6634
X3.3366Y-2.1752
X3.3661Y-3.3465
X3.3858Y-2.2756
X3.3898Y-2.3888
X3.3988Y-3.1654
X3.4055Y-3.876
X3.4154Y-1.6634
X3.4222Y-2.122
X3.4291Y-2.0689
X3.4646Y-2.6545
X3.4764Y-2.1649
X3.4764Y-2.2367
X3.4764Y-2.3784
X3.4774Y-2.1093
X3.4783Y-2.562
X3.4941Y-3.4646
X3.4951Y-3.5591
X3.4988Y-2.4764
X3.5039Y-3.061
X3.5089Y-2.7795
X3.5138Y-1.565
X3.5187Y-2.7047
X3.5276Y-3.2274
X3.5502Y-3.1644
X3.5591Y-2.0866
X3.563Y-1.6299
X3.565Y-2.2421
X3.565Y-2.3839
X3.598Y-2.9957
X3.6122Y-3.5925
X3.6393Y-2.3465
X3.6654Y-3.2579
X3.6757Y-3.435
X3.6909Y-3.061
X3.6909Y-3.6614
X3.7106Y-1.6043
X3.7204Y-3.4615
X3.7205Y-3.1988
X3.7205Y-3.5827
X3.7232Y-3.4934
X3.75Y-2.6378
X3.7539Y-3.5827
X3.7598Y-2.8937
X3.7598Y-3.1265
X3.7992Y-2.4764
X3.7992Y-3.752
X3.8287Y-3.5433
X3.8386Y-2.8051
X3.8386Y-3.189
X3.8484Y-3.8681
X3.878Y-2.9035
X3.937Y-3.4154
X3.9469Y-3.7205
X3.9665Y-3.6516
X4.0059Y-2.8445
X4.0551Y-1.6599
X4.0551Y-3.7205
X4.0965Y-3.8346
X4.126Y-1.6535
X4.1319Y-2.0669
X4.1339Y-1.811
X4.2028Y-1.7913
X4.2028Y-3.7677
X4.2126Y-1.8504
X4.2126Y-2.0276
X4.2126Y-2.7362
X4.2362Y-3.6344
X4.2537Y-3.5921
X4.2618Y-3.4154
X4.2717Y-3.7303
X4.2815Y-3.5394
X4.2913Y-3.5728
X4.2972Y-2.08
X4.311Y-1.939
X4.311Y-2.2028
X4.311Y-3.5079
X4.3209Y-1.7913
X4.3406Y-3.8681
X4.3504Y-3.5728
X4.3602Y-3.2677
X4.3602Y-3.7323
X4.3602Y-3.8071
X4.3942Y-2.6467
X4.4094Y-1.8504
X4.4094Y-2.0276
X4.4291Y-1.5881
X4.4291Y-3.7106
X4.4587Y-3.4449
X4.4606Y-3.7106
X4.4852Y-3.5438
X4.4892Y-2.0659
X4.4902Y-1.811
X4.5276Y-3.3366
X4.5571Y-3.7283
X4.627Y-3.3573
X4.627Y-3.4449
X4.6998Y-3.5256
X4.7028Y-3.3563
X4.7028Y-3.4449
X4.7116Y-3.6683
X4.7702Y-3.2776
X4.7795Y-3.5197
X4.7854Y-3.7992
X4.8406Y-3.435
X4.9449Y-3.6811
X4.9902Y-3.4252
T2
X3.1476Y-2.8524
X3.1476Y-2.9075
X3.1752Y-2.8248
X3.1752Y-2.8809
X3.1752Y-2.935
X3.2028Y-2.8524
X3.2028Y-2.9075
X3.2303Y-2.8248
X3.2303Y-2.8809
X3.2303Y-2.935
X3.2579Y-2.8524
X3.2579Y-2.9075
T4
X3.1398Y-1.2697
X4.0157Y-1.3287
X4.7343Y-1.4665
T5
X2.8051Y-1.524
X2.8051Y-1.724
X3.6992Y-1.9291
X3.8992Y-1.9291
X4.211Y-1.3287
X4.411Y-1.3287
X4.7228Y-1.939
X4.9228Y-1.939
T3
G00X2.6634Y-1.0252
M15
G01X2.6398Y-1.0252
M16
G05
G00X2.6634Y-1.3654
M15
G01X2.6398Y-1.3654
M16
G05
G00X2.8378Y-1.0252
M15
G01X2.7945Y-1.0252
M16
G05
G00X2.8378Y-1.3654
M15
G01X2.7945Y-1.3654
M16
G05
M30
