M48
; DRILL file KiCad 10.0.1 date 2026-06-09T21:43:53
; FORMAT={-:-/ absolute / inch / decimal}
; #@! TF.CreationDate,2026-06-09T21:43:53+02:00
; #@! TF.GenerationSoftware,Kicad,Pcbnew,10.0.1
; #@! TF.FileFunction,Plated,1,4,PTH
FMAT,2
INCH
; #@! TA.AperFunction,Plated,PTH,ComponentDrill
T1C0.0118
; #@! TA.AperFunction,Plated,PTH,ViaDrill
T2C0.0120
; #@! TA.AperFunction,Plated,PTH,ViaDrill
T3C0.0120
; #@! TA.AperFunction,Plated,PTH,ComponentDrill
T4C0.0236
; #@! TA.AperFunction,Plated,PTH,ComponentDrill
T5C0.0394
; #@! TA.AperFunction,Plated,PTH,ComponentDrill
T6C0.0472
%
G90
G05
T1
X3.1476Y-2.8524
X3.1476Y-2.9075
X3.1752Y-2.8248
X3.1752Y-2.8809
X3.1752Y-2.935
X3.2028Y-2.8524
X3.2028Y-2.9075
X3.2303Y-2.8248
X3.2303Y-2.8809
X3.2303Y-2.935
X3.2579Y-2.8524
X3.2579Y-2.9075
T2
X3.248Y-1.7382
X3.3327Y-1.7343
X3.4764Y-2.2367
X3.5655Y-2.2421
X4.7028Y-3.3563
T3
X2.623Y-1.4123
X2.623Y-3.7959
X2.6888Y-1.0681
X2.7271Y-1.6887
X2.7804Y-1.2317
X2.8522Y-1.0673
X2.8802Y-1.3537
X2.8988Y-2.4764
X2.8988Y-3.1654
X2.8999Y-1.1842
X2.9232Y-2.0799
X2.9232Y-2.1299
X2.9367Y-3.5556
X2.9429Y-1.0074
X2.9429Y-1.3745
X2.9453Y-1.8379
X2.9506Y-1.5283
X2.9562Y-1.1516
X2.9562Y-1.2303
X2.9803Y-2.3051
X2.9803Y-2.39
X3.0223Y-3.0951
X3.031Y-3.8632
X3.0322Y-2.1993
X3.0325Y-2.1589
X3.0392Y-2.353
X3.0488Y-2.4764
X3.0554Y-3.3688
X3.0807Y-1.7343
X3.0987Y-1.1138
X3.0999Y-1.4379
X3.1181Y-2.2299
X3.1227Y-2.5335
X3.1476Y-1.6634
X3.1496Y-3.8287
X3.1693Y-3.7283
X3.2354Y-2.2344
X3.2479Y-2.044
X3.248Y-1.8051
X3.25Y-3.8287
X3.2539Y-3.7441
X3.2598Y-1.6634
X3.2861Y-3.4426
X3.2965Y-2.2344
X3.3209Y-3.6575
X3.3327Y-1.8091
X3.3484Y-1.485
X3.3488Y-3.1654
X3.3583Y-3.2776
X3.3658Y-1.0088
X3.3761Y-1.1919
X3.3884Y-2.6574
X3.3932Y-1.7419
X3.3947Y-2.364
X3.3965Y-3.4872
X3.4083Y-2.5361
X3.4183Y-2.8963
X3.4356Y-2.2738
X3.4764Y-2.1161
X3.4843Y-3.8268
X3.4943Y-3.6529
X3.4974Y-3.5545
X3.5169Y-3.2139
X3.5373Y-3.2596
X3.5467Y-3.1632
X3.5488Y-2.4764
X3.5606Y-3.3375
X3.5655Y-2.1673
X3.5655Y-2.3091
X3.5794Y-3.3953
X3.598Y-2.5957
X3.598Y-3.0457
X3.5988Y-2.5414
X3.61Y-2.4686
X3.6233Y-3.492
X3.6279Y-2.4232
X3.6285Y-3.4155
X3.6288Y-1.4532
X3.6301Y-1.1614
X3.6417Y-3.8268
X3.6511Y-3.12
X3.6577Y-2.7634
X3.6626Y-1.4999
X3.6664Y-1.7865
X3.7205Y-3.8268
X3.7317Y-2.4529
X3.757Y-3.1657
X3.762Y-3.5834
X3.7842Y-2.0845
X3.8026Y-2.5843
X3.8135Y-3.6055
X3.8477Y-3.8632
X3.872Y-3.4513
X3.9154Y-3.8346
X3.9193Y-3.0846
X3.9623Y-1.0088
X3.9941Y-3.471
X4.0039Y-3.3666
X4.0059Y-3.6755
X4.0059Y-3.8346
X4.0072Y-1.8821
X4.0231Y-1.5403
X4.037Y-3.2451
X4.0551Y-1.6599
X4.0571Y-1.811
X4.0571Y-2.0669
X4.0571Y-2.1457
X4.0575Y-1.7319
X4.0586Y-3.471
X4.0615Y-3.6954
X4.0802Y-2.8642
X4.0941Y-1.2956
X4.0971Y-2.5185
X4.1018Y-3.2526
X4.1253Y-2.2562
X4.126Y-1.5744
X4.126Y-1.6535
X4.1263Y-3.4378
X4.1319Y-1.8996
X4.146Y-3.5879
X4.1548Y-3.2049
X4.1565Y-3.5437
X4.183Y-1.9314
X4.1888Y-3.3609
X4.1966Y-3.6509
X4.1979Y-3.2351
X4.2028Y-3.6929
X4.2028Y-3.7677
X4.2052Y-1.8458
X4.2053Y-2.0329
X4.2159Y-2.1864
X4.2232Y-3.6265
X4.2279Y-2.7257
X4.2384Y-1.0088
X4.248Y-1.8064
X4.2485Y-2.4409
X4.2486Y-2.124
X4.25Y-2.2736
X4.25Y-2.3622
X4.2538Y-3.5678
X4.2542Y-3.503
X4.256Y-3.435
X4.2561Y-3.0476
X4.2598Y-3.8484
X4.2717Y-1.6654
X4.2756Y-2.072
X4.2858Y-3.5191
X4.2992Y-3.2821
X4.3106Y-3.3775
X4.311Y-2.2028
X4.3192Y-1.8053
X4.3449Y-1.5734
X4.3472Y-3.5942
X4.3489Y-2.0729
X4.3495Y-2.615
X4.3504Y-1.6654
X4.3602Y-3.8071
X4.3626Y-3.1123
X4.3671Y-1.8061
X4.3689Y-1.2783
X4.372Y-2.2736
X4.372Y-2.3622
X4.3735Y-2.4409
X4.3851Y-3.3782
X4.3992Y-3.6099
X4.3997Y-3.547
X4.4094Y-2.0394
X4.4144Y-1.8383
X4.4193Y-2.1732
X4.4205Y-3.8632
X4.4291Y-1.5881
X4.4291Y-1.6599
X4.4391Y-1.9314
X4.4446Y-3.4192
X4.4487Y-3.6037
X4.4789Y-3.5103
X4.4845Y-3.5659
X4.4862Y-3.1394
X4.4862Y-3.2185
X4.4864Y-3.4789
X4.4902Y-1.8996
X4.5087Y-3.3212
X4.5145Y-1.0088
X4.532Y-2.8642
X4.5571Y-3.6535
X4.5571Y-3.7283
X4.5612Y-2.3456
X4.565Y-1.7323
X4.565Y-1.811
X4.565Y-2.0669
X4.565Y-2.1461
X4.5832Y-3.4401
X4.6033Y-1.6701
X4.624Y-3.1693
X4.6358Y-3.7269
X4.6482Y-2.8067
X4.6794Y-1.4118
X4.685Y-3.8287
X4.6974Y-2.055
X4.7028Y-3.4449
X4.7342Y-3.2292
X4.7621Y-3.8632
X4.7795Y-3.5197
X4.7906Y-1.0088
X4.8504Y-3.6713
X4.9508Y-3.561
X4.9902Y-3.8386
X5.0354Y-3.6811
X5.0738Y-1.0088
X5.0738Y-1.2849
X5.0738Y-1.561
X5.0738Y-1.8371
X5.0738Y-2.1132
X5.0738Y-2.3894
X5.0738Y-2.6655
X5.0738Y-2.9416
X5.0738Y-3.2177
X5.0738Y-3.4938
X5.0738Y-3.8632
T5
X3.1398Y-1.2697
X4.0157Y-1.3287
X4.7343Y-1.4665
T6
X2.8051Y-1.524
X2.8051Y-1.724
X3.6992Y-1.9291
X3.8992Y-1.9291
X4.211Y-1.3287
X4.411Y-1.3287
X4.7228Y-1.939
X4.9228Y-1.939
T4
G00X2.6634Y-1.0252
M15
G01X2.6398Y-1.0252
M16
G05
G00X2.6634Y-1.3654
M15
G01X2.6398Y-1.3654
M16
G05
G00X2.8378Y-1.0252
M15
G01X2.7945Y-1.0252
M16
G05
G00X2.8378Y-1.3654
M15
G01X2.7945Y-1.3654
M16
G05
M30
