#VRML V2.0 utf8
# 3D model generated by kicad-lcsc-manager
# Based on easyeda2kicad.py v1.0.1

Shape{
    appearance Appearance {
        material  Material {
            diffuseColor 1.0 1.0 1.0
            specularColor 0.5019607843137255 0.5019607843137255 0.5019607843137255
            ambientIntensity 1.0
            transparency 0.0
            shininess 0.5
        }
    }
    geometry IndexedFaceSet {
        ccw TRUE
        solid FALSE
        coord DEF co Coordinate {
            point [
                0.4724 1.998 0.2165, 0.7283 1.998 0.2165, 0.4724 1.998 0.0, 0.7283 1.998 0.0
            ]
        }
        coordIndex [
            0,1,2,-1,2,1,3,-1,
        ]
    }
}
Shape{
    appearance Appearance {
        material  Material {
            diffuseColor 0.25098039215686274 0.25098039215686274 0.25098039215686274
            specularColor 0.12549019607843137 0.12549019607843137 0.12549019607843137
            ambientIntensity 0.251
            transparency 0.0
            shininess 0.5
        }
    }
    geometry IndexedFaceSet {
        ccw TRUE
        solid FALSE
        coord DEF co Coordinate {
            point [
                0.729 1.565 0.0197, 0.7283 1.5443 0.0197, 0.7283 1.565 0.0197, -1.3583 1.5443 0.0197, -1.3589 1.565 0.0197, -1.3583 1.565 0.0197, -1.3658 1.4735 0.8899, 0.7359 1.4735 0.8899, -1.3628 1.4893 0.7397, 0.7329 1.4893 0.7397, -1.3594 1.5167 0.479, 0.7295 1.5167 0.479, -1.3583 1.5443 0.2165, 0.7283 1.5443 0.2165, -0.2764 -0.2542 0.0197, -0.2379 -0.4192 0.0197, -0.2764 -0.451 0.0197, -0.2379 -0.4408 0.0197, -0.4012 -0.0886 0.0197, -0.3772 -0.2542 0.0197, -0.3772 -0.2758 0.0197, -0.3028 -0.2758 0.0197, -0.3028 -0.3406 0.0197, -0.382 -0.4294 0.0197, -0.382 -0.451 0.0197, -0.4012 -0.4522 0.0197, 0.5709 1.3681 0.0197, 0.7283 1.3681 0.0197, 0.5709 1.1713 0.0197, 0.6693 1.1713 0.0197, -0.3028 -0.3622 0.0197, -0.3028 -0.4294 0.0197, -0.3724 -0.3622 0.0197, -0.3724 -0.3406 0.0197, 0.9843 1.219 0.0197, 0.9843 -0.4522 0.0197, 0.9131 1.2451 0.0197, 0.6693 -0.0886 0.0197, 0.8475 1.2883 0.0197, 0.7937 1.3456 0.0197, 0.7329 1.4893 0.0197, 0.7548 1.4138 0.0197, 0.0261 -0.451 0.0197, -0.1722 -0.4522 0.0197, -0.0747 -0.451 0.0197, -0.1595 -0.4509 0.0197, -0.1404 -0.4443 0.0197, -0.1725 -0.2756 0.0197, -0.1577 -0.2809 0.0197, -0.2344 -0.4212 0.0197, -0.1441 -0.29 0.0197, -0.1322 -0.3031 0.0197, -0.1179 -0.3547 0.0197, -0.1199 -0.376 0.0197, -0.1253 -0.3929 0.0197, -0.1691 -0.4298 0.0197, -0.1874 -0.4318 0.0197, -0.1547 -0.4245 0.0197, -0.1426 -0.4163 0.0197, -0.1334 -0.4066 0.0197, -0.2135 -0.4289 0.0197, -0.1241 -0.3183 0.0197, -0.1189 -0.3394 0.0197, -0.1019 -0.306 0.0197, -0.1134 -0.2876 0.0197, -0.0003 -0.2542 0.0197, -0.1312 -0.2705 0.0197, -0.2379 -0.2596 0.0197, -0.2379 -0.286 0.0197, -0.2158 -0.2765 0.0197, -0.1918 -0.2734 0.0197, -0.1246 -0.4342 0.0197, -0.1098 -0.4187 0.0197, -0.0747 -0.4294 0.0197, -0.0993 -0.3999 0.0197, -0.0003 -0.4294 0.0197, -0.1499 -0.2598 0.0197, -0.1718 -0.2534 0.0197, -0.0934 -0.3791 0.0197, -0.0915 -0.3563 0.0197, -0.0943 -0.3283 0.0197, -0.1916 -0.2518 0.0197, -0.2152 -0.2534 0.0197, -0.4204 -0.2542 0.0197, -0.622 -0.451 0.0197, -0.5932 -0.451 0.0197, -0.7421 -0.451 0.0197, -0.7222 -0.3958 0.0197, -0.6408 -0.3958 0.0197, -0.569 -0.3971 0.0197, -0.5577 -0.4147 0.0197, -0.5415 -0.4302 0.0197, -0.521 -0.4421 0.0197, -1.2008 1.3681 0.0197, -1.2008 1.1713 0.0197, -1.2992 1.1713 0.0197, -1.3583 1.3681 0.0197, -1.3628 1.4893 0.0197, -1.3847 1.4138 0.0197, -1.6142 -0.4522 0.0197, -1.6142 1.219 0.0197, -1.2992 -0.0886 0.0197, -1.543 1.2451 0.0197, -1.4774 1.2883 0.0197, -1.4236 1.3456 0.0197, -0.4983 -0.4489 0.0197, -0.4739 -0.451 0.0197, -0.4204 -0.451 0.0197, -0.6677 -0.2542 0.0197, -0.6941 -0.2542 0.0197, -0.7709 -0.451 0.0197, -0.4759 -0.2542 0.0197, -0.5044 -0.2572 0.0197, -0.5274 -0.2653 0.0197, -0.5488 -0.2797 0.0197, -0.549 -0.2798 0.0197, -0.563 -0.2953 0.0197, -0.5721 -0.3122 0.0197, -0.5774 -0.3316 0.0197, -0.5788 -0.3501 0.0197, -0.5761 -0.3765 0.0197, -0.1971 -0.4522 0.0197, -0.1892 -0.4533 0.0197, -0.4012 -0.8108 0.0197, -0.1838 -0.4534 0.0197, 0.0261 -0.2542 0.0197, 0.9843 -0.8108 0.0197, -1.6142 -0.8108 0.0197, -0.217 -0.4494 0.0197
            ]
        }
        coordIndex [
            0,1,2,-1,3,4,5,-1,6,7,8,-1,8,7,9,-1,8,9,10,-1,10,9,11,-1,10,11,12,-1,12,11,13,-1,4,12,5,-1,14,15,16,-1,16,15,17,-1,18,19,20,-1,20,21,22,-1,23,24,25,-1,25,24,16,-1,19,18,14,-1,26,27,28,-1,28,27,29,-1,30,31,32,-1,32,31,23,-1,32,23,33,-1,34,35,36,-1,36,35,37,-1,36,37,38,-1,38,37,29,-1,38,29,39,-1,39,29,27,-1,1,40,27,-1,27,40,41,-1,27,41,39,-1,42,43,44,-1,44,43,45,-1,44,45,46,-1,47,48,49,-1,49,48,50,-1,49,50,51,-1,52,53,49,-1,49,53,54,-1,55,56,57,-1,57,56,58,-1,54,59,49,-1,49,59,58,-1,49,58,60,-1,60,58,56,-1,51,61,49,-1,49,61,62,-1,49,62,52,-1,63,64,65,-1,65,64,66,-1,18,67,14,-1,14,67,68,-1,14,68,15,-1,15,68,69,-1,15,69,49,-1,49,69,70,-1,49,70,47,-1,46,71,44,-1,44,71,72,-1,44,72,73,-1,73,72,74,-1,73,74,75,-1,76,77,18,-1,74,78,75,-1,75,78,79,-1,75,79,65,-1,65,79,80,-1,65,80,63,-1,77,81,18,-1,18,81,82,-1,18,82,67,-1,22,33,20,-1,20,33,23,-1,20,23,18,-1,18,23,25,-1,18,25,83,-1,84,85,25,-1,86,87,88,-1,89,90,85,-1,85,90,91,-1,85,91,92,-1,93,94,95,-1,3,96,97,-1,97,96,98,-1,93,95,96,-1,99,100,101,-1,101,100,102,-1,101,102,95,-1,95,102,103,-1,95,103,96,-1,96,103,104,-1,96,104,98,-1,92,105,85,-1,85,105,106,-1,85,106,25,-1,25,106,107,-1,25,107,83,-1,18,108,109,-1,88,84,86,-1,86,84,25,-1,86,25,110,-1,110,25,99,-1,110,99,109,-1,109,99,101,-1,109,101,18,-1,83,111,18,-1,18,111,112,-1,18,112,108,-1,108,112,113,-1,108,113,114,-1,114,115,108,-1,108,115,116,-1,108,116,117,-1,117,118,108,-1,108,118,119,-1,108,119,85,-1,85,119,120,-1,85,120,89,-1,121,122,123,-1,123,122,124,-1,123,124,43,-1,66,76,65,-1,65,76,18,-1,65,18,125,-1,125,18,37,-1,125,37,42,-1,42,37,35,-1,42,35,43,-1,43,35,126,-1,43,126,123,-1,127,99,123,-1,123,99,25,-1,123,25,121,-1,121,25,16,-1,121,16,128,-1,128,16,17,-1,
        ]
    }
}
Shape{
    appearance Appearance {
        material  Material {
            diffuseColor 1.0 1.0 1.0
            specularColor 0.5019607843137255 0.5019607843137255 0.5019607843137255
            ambientIntensity 1.0
            transparency 0.0
            shininess 0.5
        }
    }
    geometry IndexedFaceSet {
        ccw TRUE
        solid FALSE
        coord DEF co Coordinate {
            point [
                -1.0575 -1.1574 0.3937, -1.0575 -1.1574 0.5906, -1.0575 -1.1676 0.3924, -1.0575 -1.2186 0.5825, -1.0575 -1.1771 0.3884, -1.0575 -1.2756 0.5589, -1.0575 -1.1853 0.3822, -1.0575 -1.3245 0.5214, -1.0575 -1.1915 0.374, -1.0575 -1.362 0.4724, -1.0575 -1.3393 0.1181, -1.0575 -1.5098 0.2165, -1.0575 -1.3768 0.0692, -1.0575 -1.516 0.2084, -1.0575 -1.4258 0.0316, -1.0575 -1.5242 0.2021, -1.0575 -1.4827 0.008, -1.0575 -1.5337 0.1982, -1.0575 -1.5439 0.0, -1.0575 -1.5439 0.1969, -1.0575 -1.998 0.0, -1.0575 -1.998 0.1969, -1.3724 -0.9622 0.5906, -1.3724 -0.8418 0.5906, -1.3724 -0.9803 0.3937, -1.3724 -0.8563 0.4528, -1.3724 -0.8501 0.3937, 0.4276 -1.1574 0.5906, 0.4276 -1.1574 0.3937, 0.4276 -1.2186 0.5825, 0.4276 -1.1656 0.3928, 0.4276 -1.2756 0.5589, 0.4276 -1.998 0.0, 0.4276 -1.998 0.1969, 0.4276 -1.5439 0.0, 0.4276 -1.5439 0.1969, 0.4276 -1.4827 0.008, 0.4276 -1.5337 0.1982, 0.4276 -1.4258 0.0316, 0.4276 -1.5242 0.2021, 0.4276 -1.3768 0.0692, 0.4276 -1.516 0.2084, 0.4276 -1.3393 0.1181, 0.4276 -1.5098 0.2165, 0.4276 -1.1915 0.374, 0.4276 -1.362 0.4724, 0.4276 -1.1867 0.3807, 0.4276 -1.3245 0.5214, 0.4276 -1.1806 0.3862, 0.4276 -1.1735 0.3903, 0.4276 -0.9622 0.5906, 0.4276 -0.8418 0.5906, 0.4276 -0.9803 0.3937, 0.4276 -0.8563 0.4528, 0.4276 -0.8501 0.3937, 0.7425 -1.1574 0.3937, 0.7425 -1.1574 0.5906, 0.7425 -1.1656 0.3928, 0.7425 -1.2186 0.5825, 0.7425 -1.1735 0.3903, 0.7425 -1.2756 0.5589, 0.7425 -1.998 0.1969, 0.7425 -1.998 0.0, 0.7425 -1.5439 0.1969, 0.7425 -1.5439 0.0, 0.7425 -1.5337 0.1982, 0.7425 -1.4827 0.008, 0.7425 -1.5242 0.2021, 0.7425 -1.4258 0.0316, 0.7425 -1.516 0.2084, 0.7425 -1.3768 0.0692, 0.7425 -1.5098 0.2165, 0.7425 -1.3393 0.1181, 0.7425 -1.362 0.4724, 0.7425 -1.1915 0.374, 0.7425 -1.3245 0.5214, 0.7425 -1.1867 0.3807, 0.7425 -1.1806 0.3862, 0.7425 -0.8418 0.5906, 0.7425 -0.9622 0.5906, 0.7425 -0.8563 0.4528, 0.7425 -0.9803 0.3937, 0.7425 -0.8501 0.3937, 0.7283 1.3681 0.0, 0.7283 1.3681 0.0197, 0.5709 1.3681 0.0, 0.5709 1.3681 0.0197, -1.3583 1.3681 0.0197, -1.3583 1.3681 0.0, -1.2008 1.3681 0.0197, -1.2008 1.3681 0.0, 0.6693 1.1713 0.0197, 0.6693 1.1713 0.0, 0.5709 1.1713 0.0197, 0.5709 1.1713 0.0, -1.2992 1.1713 0.0, -1.2992 1.1713 0.0197, -1.2008 1.1713 0.0, -1.2008 1.1713 0.0197
            ]
        }
        coordIndex [
            0,1,2,-1,2,1,3,-1,2,3,4,-1,4,3,5,-1,4,5,6,-1,6,5,7,-1,6,7,8,-1,8,7,9,-1,8,9,10,-1,10,9,11,-1,10,11,12,-1,12,11,13,-1,12,13,14,-1,14,13,15,-1,14,15,16,-1,16,15,17,-1,16,17,18,-1,18,17,19,-1,18,19,20,-1,20,19,21,-1,22,23,24,-1,24,23,25,-1,24,25,26,-1,27,28,29,-1,29,28,30,-1,29,30,31,-1,32,33,34,-1,34,33,35,-1,34,35,36,-1,36,35,37,-1,36,37,38,-1,38,37,39,-1,38,39,40,-1,40,39,41,-1,40,41,42,-1,42,41,43,-1,42,43,44,-1,44,43,45,-1,44,45,46,-1,46,45,47,-1,46,47,48,-1,48,47,31,-1,48,31,49,-1,49,31,30,-1,50,51,52,-1,52,51,53,-1,52,53,54,-1,55,56,57,-1,57,56,58,-1,57,58,59,-1,59,58,60,-1,61,62,63,-1,63,62,64,-1,63,64,65,-1,65,64,66,-1,65,66,67,-1,67,66,68,-1,67,68,69,-1,69,68,70,-1,69,70,71,-1,71,70,72,-1,71,72,73,-1,73,72,74,-1,73,74,75,-1,75,74,76,-1,75,76,60,-1,60,76,77,-1,60,77,59,-1,78,79,80,-1,80,79,81,-1,80,81,82,-1,83,84,85,-1,85,84,86,-1,87,88,89,-1,89,88,90,-1,91,92,93,-1,93,92,94,-1,95,96,97,-1,97,96,98,-1,
        ]
    }
}
Shape{
    appearance Appearance {
        material  Material {
            diffuseColor 0.25098039215686274 0.25098039215686274 0.25098039215686274
            specularColor 0.12549019607843137 0.12549019607843137 0.12549019607843137
            ambientIntensity 0.251
            transparency 0.0
            shininess 0.5
        }
    }
    geometry IndexedFaceSet {
        ccw TRUE
        solid FALSE
        coord DEF co Coordinate {
            point [
                0.7283 1.5443 0.2165, 0.729 1.565 0.0197, 0.7283 1.565 0.0197, -1.3768 1.4343 0.9252, -0.5195 1.0531 0.9252, -0.482 1.1021 0.9252, -0.315 1.1713 0.9252, 0.7469 1.4343 0.9252, -0.2538 1.1632 0.9252, -0.1969 1.1396 0.9252, -0.4331 1.1396 0.9252, -0.3761 1.1632 0.9252, 0.8536 1.2832 0.9252, -0.0868 0.8739 0.9252, 0.8536 -0.7712 0.9252, -0.1104 0.8169 0.9252, -0.1479 0.768 0.9252, -0.1969 0.7305 0.9252, -0.2538 0.7069 0.9252, -1.4836 -0.7712 0.9252, -1.4236 1.3456 0.9252, -1.4774 1.2883 0.9252, -0.5431 0.9962 0.9252, -1.4836 1.2832 0.9252, -0.5512 0.935 0.9252, -0.315 0.6988 0.9252, -0.3761 0.7069 0.9252, -0.4331 0.7305 0.9252, -1.3847 1.4138 0.9252, 0.8475 1.2883 0.9252, -0.0868 0.9962 0.9252, -0.0787 0.935 0.9252, -0.482 0.768 0.9252, -0.5195 0.8169 0.9252, -0.5431 0.8739 0.9252, -0.1479 1.1021 0.9252, -0.1104 1.0531 0.9252, 0.7548 1.4138 0.9252, 0.7937 1.3456 0.9252, -1.5227 -0.8103 0.8899, -1.5687 -0.8563 0.4528, -1.3724 -0.8563 0.4528, -0.1575 -0.8418 0.5906, -0.1575 -0.8563 0.4528, 0.4276 -0.8563 0.4528, -1.3724 -0.8418 0.5906, -1.0575 -0.8418 0.5906, 0.8928 -0.8103 0.8899, 0.7425 -0.8563 0.4528, 0.9387 -0.8563 0.4528, 0.7425 -0.8418 0.5906, 0.4276 -0.8418 0.5906, -0.4724 -0.8418 0.5906, -0.4724 -0.8563 0.4528, -1.0575 -0.8563 0.4528, 0.9843 -0.8108 0.0197, 0.7425 -0.8501 0.3937, 0.4276 -0.8501 0.3937, -0.1575 -0.8501 0.3937, -0.4012 -0.8108 0.0197, -0.4724 -0.8501 0.3937, -1.6142 -0.8108 0.0197, -1.3724 -0.8501 0.3937, -1.0575 -0.8501 0.3937, 0.9131 1.2451 0.6967, 0.8928 1.2561 0.8899, 0.9303 1.2371 0.533, 0.9479 1.23 0.3653, 0.9843 -0.4522 0.0197, 0.9659 1.224 0.194, 0.9843 1.219 0.0197, -1.5227 1.2561 0.8899, -1.543 1.2451 0.6967, -1.5602 1.2371 0.533, -1.5779 1.23 0.3653, -1.5959 1.224 0.194, -1.6142 1.219 0.0197, -1.6142 -0.4522 0.0197, 0.892 -0.8096 0.8947, 0.892 1.2566 0.8947, 0.8906 -0.8082 0.8993, 0.8906 1.2574 0.8993, 0.8887 -0.8063 0.9037, 0.8887 1.2586 0.9038, 0.8863 -0.8038 0.9078, 0.8863 1.2601 0.9078, 0.88 1.2641 0.9151, 0.88 -0.7975 0.9151, 0.8721 1.2694 0.9206, 0.8721 -0.7897 0.9206, 0.8632 1.2758 0.924, 0.8632 -0.7807 0.924, 0.7438 1.4439 0.924, -1.3737 1.4439 0.924, 0.7411 1.4528 0.9206, -1.371 1.4528 0.9206, 0.739 1.4607 0.9151, -1.3689 1.4607 0.9151, 0.7374 1.467 0.9078, -1.3673 1.467 0.9078, 0.7364 1.4713 0.8993, -1.3663 1.4713 0.8993, 0.7359 1.4735 0.8899, -1.3658 1.4735 0.8899, -1.5219 -0.8096 0.8947, -1.5205 -0.8082 0.8993, -1.5186 -0.8063 0.9037, -1.5162 -0.8038 0.9078, -1.5099 -0.7975 0.9151, -1.502 -0.7897 0.9206, -1.4931 -0.7807 0.924, -1.5162 1.2601 0.9078, -1.5099 1.2641 0.9151, -1.502 1.2694 0.9206, -1.4931 1.2758 0.924, -1.5219 1.2566 0.8947, -1.5205 1.2574 0.8993, -1.5186 1.2586 0.9038
            ]
        }
        coordIndex [
            0,1,2,-1,3,4,5,-1,3,6,7,-1,7,6,8,-1,7,8,9,-1,5,10,3,-1,3,10,11,-1,3,11,6,-1,12,13,14,-1,14,13,15,-1,14,15,16,-1,16,17,14,-1,14,17,18,-1,14,18,19,-1,20,21,22,-1,22,21,23,-1,22,23,24,-1,18,25,19,-1,19,25,26,-1,19,26,27,-1,4,3,22,-1,22,3,28,-1,22,28,20,-1,29,30,12,-1,12,30,31,-1,12,31,13,-1,27,32,19,-1,19,32,33,-1,19,33,23,-1,23,33,34,-1,23,34,24,-1,9,35,7,-1,7,35,36,-1,7,36,37,-1,37,36,30,-1,37,30,38,-1,38,30,29,-1,39,40,41,-1,42,43,44,-1,41,45,39,-1,39,45,46,-1,39,46,47,-1,48,49,50,-1,50,49,47,-1,50,47,51,-1,44,51,42,-1,42,51,47,-1,42,47,52,-1,52,47,46,-1,52,46,53,-1,53,46,54,-1,49,48,55,-1,55,48,56,-1,44,43,57,-1,57,43,58,-1,56,57,55,-1,55,57,58,-1,55,58,59,-1,59,58,60,-1,59,60,61,-1,41,40,62,-1,62,40,61,-1,62,61,63,-1,63,61,60,-1,63,60,54,-1,54,60,53,-1,64,65,47,-1,64,47,66,-1,66,47,49,-1,66,49,67,-1,49,55,68,-1,67,49,69,-1,69,49,68,-1,69,68,70,-1,39,71,72,-1,39,72,40,-1,72,73,40,-1,40,73,74,-1,40,74,75,-1,75,76,40,-1,40,76,77,-1,40,77,61,-1,47,65,78,-1,78,65,79,-1,78,79,80,-1,80,79,81,-1,80,81,82,-1,82,81,83,-1,82,83,84,-1,83,85,84,-1,84,85,86,-1,84,86,87,-1,87,86,88,-1,87,88,89,-1,89,88,90,-1,89,90,91,-1,91,90,12,-1,91,12,14,-1,3,7,92,-1,3,92,93,-1,93,92,94,-1,93,94,95,-1,95,94,96,-1,95,96,97,-1,97,96,98,-1,97,98,99,-1,99,98,100,-1,99,100,101,-1,101,100,102,-1,101,102,103,-1,39,47,78,-1,39,78,104,-1,104,78,80,-1,104,80,105,-1,105,80,82,-1,105,82,106,-1,106,82,84,-1,106,84,107,-1,107,84,87,-1,107,87,108,-1,108,87,89,-1,108,89,109,-1,109,89,91,-1,109,91,110,-1,110,91,14,-1,110,14,19,-1,111,108,112,-1,112,108,109,-1,112,109,113,-1,113,109,110,-1,113,110,114,-1,114,110,19,-1,114,19,23,-1,71,39,115,-1,115,39,104,-1,115,104,116,-1,116,104,105,-1,116,105,117,-1,117,105,106,-1,117,106,111,-1,111,106,107,-1,111,107,108,-1,
        ]
    }
}
Shape{
    appearance Appearance {
        material  Material {
            diffuseColor 1.0 1.0 1.0
            specularColor 0.5019607843137255 0.5019607843137255 0.5019607843137255
            ambientIntensity 1.0
            transparency 0.0
            shininess 0.5
        }
    }
    geometry IndexedFaceSet {
        ccw TRUE
        solid FALSE
        coord DEF co Coordinate {
            point [
                -1.3583 1.565 0.0197, -1.3583 1.5443 0.2165, -1.3583 1.998 0.2165, -1.3583 1.3681 0.0197, -1.3583 1.5443 0.0197, -1.3583 1.3681 0.0, -1.3583 1.998 0.0, 0.7283 1.998 0.2165, 0.7283 1.5443 0.2165, 0.7283 1.998 0.0, 0.7283 1.565 0.0197, 0.7283 1.3681 0.0, 0.7283 1.5443 0.0197, 0.7283 1.3681 0.0197, -1.1024 1.998 0.2165, -1.1024 1.9587 0.2165, 0.4724 1.9587 0.2165, 0.4724 1.998 0.2165, -1.1024 1.998 0.0, 0.4724 1.998 0.0, 0.4724 1.9587 0.0, -1.1024 1.9587 0.0, 0.5709 1.3681 0.0, 0.6693 1.1713 0.0, 0.6693 -0.0886 0.0, 0.5709 1.1713 0.0, -1.2992 -0.0886 0.0, -1.2008 1.1713 0.0, -1.2992 1.1713 0.0, -1.2008 1.3681 0.0, -0.0589 1.3589 0.0, -0.0683 1.3628 0.0, -0.5514 1.3642 0.0, -0.5616 1.3628 0.0, -0.5711 1.3589 0.0, -0.5792 1.3526 0.0, -0.0683 1.1765 0.0, -0.0589 1.1805 0.0, -0.0507 1.1867 0.0, -0.0444 1.1949 0.0, -0.0785 1.3642 0.0, -0.5855 1.3445 0.0, -0.5894 1.335 0.0, -0.5908 1.3248 0.0, -0.5908 1.2146 0.0, -0.5894 1.2044 0.0, -0.5855 1.1949 0.0, -0.5792 1.1867 0.0, -0.5711 1.1805 0.0, -0.0405 1.335 0.0, -0.0444 1.3445 0.0, -0.0507 1.3526 0.0, -0.5616 1.1765 0.0, -0.5514 1.1752 0.0, -0.0785 1.1752 0.0, -0.0405 1.2044 0.0, -0.0392 1.2146 0.0, -0.0392 1.3248 0.0, -1.2992 1.1713 0.0197, -1.2992 -0.0886 0.0197, 0.6693 -0.0886 0.0197, 0.6693 1.1713 0.0197, -0.4012 -0.0886 0.0197, 0.5709 1.1713 0.0197, 0.5709 1.3681 0.0197, -1.2008 1.3681 0.0197, -1.2008 1.1713 0.0197, 0.4079 -1.1574 0.5906, 0.4276 -1.1574 0.5906, 0.4079 -0.9622 0.5906, 0.4276 -0.9622 0.5906, 0.7622 -1.1574 0.5906, 0.7622 -0.9622 0.5906, 0.7425 -1.1574 0.5906, 0.7425 -0.9622 0.5906, 0.7425 -0.8418 0.5906, 0.4276 -0.8418 0.5906, 0.4276 -0.8501 0.3937, 0.7425 -0.8501 0.3937, 0.4276 -0.9803 0.3937, 0.7425 -0.9803 0.3937, 0.7622 -0.9803 0.3937, 0.7622 -1.1574 0.3937, 0.7425 -1.1574 0.3937, 0.4276 -1.1574 0.3937, 0.4079 -0.9803 0.3937, 0.4079 -1.1574 0.3937, 0.4276 -1.2186 0.5825, 0.7425 -1.2186 0.5825, 0.4276 -1.2756 0.5589, 0.7425 -1.2756 0.5589, 0.4276 -1.3245 0.5214, 0.7425 -1.3245 0.5214, 0.4276 -1.362 0.4724, 0.7425 -1.362 0.4724, 0.7425 -1.5098 0.2165, 0.4276 -1.5098 0.2165, 0.7425 -1.516 0.2084, 0.4276 -1.516 0.2084, 0.7425 -1.5242 0.2021, 0.4276 -1.5242 0.2021, 0.7425 -1.5337 0.1982, 0.4276 -1.5337 0.1982, 0.7425 -1.5439 0.1969, 0.4276 -1.5439 0.1969, 0.7425 -1.998 0.1969, 0.4276 -1.998 0.1969, 0.7425 -1.998 0.0, 0.4276 -1.998 0.0, 0.7425 -1.5439 0.0, 0.4276 -1.5439 0.0, 0.4276 -1.4827 0.008, 0.7425 -1.4827 0.008, 0.4276 -1.4258 0.0316, 0.7425 -1.4258 0.0316, 0.4276 -1.3768 0.0692, 0.7425 -1.3768 0.0692, 0.4276 -1.3393 0.1181, 0.7425 -1.3393 0.1181, 0.7425 -1.1915 0.374, 0.4276 -1.1915 0.374, 0.7425 -1.1867 0.3807, 0.4276 -1.1867 0.3807, 0.7425 -1.1806 0.3862, 0.4276 -1.1806 0.3862, 0.7425 -1.1735 0.3903, 0.4276 -1.1735 0.3903, 0.7425 -1.1656 0.3928, 0.4276 -1.1656 0.3928, -1.3921 -1.1574 0.5906, -1.3724 -1.1574 0.5906, -1.3921 -0.9622 0.5906, -1.3724 -0.9622 0.5906, -1.0378 -1.1574 0.5906, -1.0378 -0.9622 0.5906, -1.0575 -1.1574 0.5906, -1.0575 -0.9622 0.5906, -1.0575 -0.8418 0.5906, -1.3724 -0.8418 0.5906, -1.0575 -0.8501 0.3937, -1.0575 -0.9803 0.3937, -1.3724 -0.8501 0.3937, -1.3724 -0.9803 0.3937, -1.0378 -0.9803 0.3937, -1.0378 -1.1574 0.3937, -1.0575 -1.1574 0.3937, -1.3724 -1.1574 0.3937, -1.3921 -0.9803 0.3937, -1.3921 -1.1574 0.3937, -1.3724 -1.998 0.0, -1.3724 -1.998 0.1969, -1.3724 -1.5439 0.0, -1.3724 -1.5439 0.1969, -1.3724 -1.4827 0.008, -1.3724 -1.5337 0.1982, -1.3724 -1.4258 0.0316, -1.3724 -1.5242 0.2021, -1.3724 -1.3768 0.0692, -1.3724 -1.516 0.2084, -1.3724 -1.3393 0.1181, -1.3724 -1.5098 0.2165, -1.3724 -1.1915 0.374, -1.3724 -1.362 0.4724, -1.3724 -1.1853 0.3822, -1.3724 -1.3245 0.5214, -1.3724 -1.1771 0.3884, -1.3724 -1.2756 0.5589, -1.3724 -1.1676 0.3924, -1.3724 -1.2186 0.5825, -1.0575 -0.8563 0.4528, -1.0575 -1.1676 0.3924, -1.0575 -1.1771 0.3884, -1.0575 -1.1853 0.3822, -1.0575 -1.1915 0.374, -1.0575 -1.3393 0.1181, -1.0575 -1.3768 0.0692, -1.0575 -1.4258 0.0316, -1.0575 -1.4827 0.008, -1.0575 -1.5439 0.0, -1.0575 -1.998 0.0, -1.0575 -1.998 0.1969, -1.0575 -1.5439 0.1969, -1.0575 -1.5337 0.1982, -1.0575 -1.5242 0.2021, -1.0575 -1.516 0.2084, -1.0575 -1.5098 0.2165, -1.0575 -1.362 0.4724, -1.0575 -1.3245 0.5214, -1.0575 -1.2756 0.5589, -1.0575 -1.2186 0.5825, -0.1575 -0.8418 0.5906, -0.1575 -0.9622 0.5906, -0.1575 -0.8563 0.4528, -0.1575 -0.9803 0.3937, -0.1575 -0.8501 0.3937, -0.4724 -0.9622 0.5906, -0.4724 -0.8418 0.5906, -0.4724 -0.9803 0.3937, -0.4724 -0.8563 0.4528, -0.4724 -0.8501 0.3937, -0.4921 -0.9803 0.3937, -0.4921 -0.9622 0.5906, -0.4921 -1.1319 0.5906, -0.4921 -1.1319 0.3937, -0.1378 -1.1319 0.5906, -0.1378 -0.9622 0.5906, -0.1378 -0.9803 0.3937, -0.1378 -1.1319 0.3937
            ]
        }
        coordIndex [
            0,1,2,-1,3,4,5,-1,5,4,0,-1,5,0,6,-1,6,0,2,-1,7,8,9,-1,9,8,10,-1,9,10,11,-1,11,10,12,-1,11,12,13,-1,14,2,15,-1,15,2,1,-1,15,1,16,-1,16,1,8,-1,16,8,17,-1,17,8,7,-1,18,6,14,-1,14,6,2,-1,19,9,20,-1,20,9,11,-1,20,11,21,-1,21,11,22,-1,23,24,25,-1,25,24,26,-1,25,26,27,-1,27,26,28,-1,6,18,5,-1,5,18,21,-1,5,21,29,-1,30,31,22,-1,32,33,21,-1,21,33,34,-1,21,34,35,-1,36,37,25,-1,25,37,38,-1,25,38,39,-1,22,31,21,-1,21,31,40,-1,21,40,32,-1,35,41,21,-1,21,41,42,-1,21,42,29,-1,29,42,43,-1,29,43,27,-1,27,43,44,-1,27,44,45,-1,45,46,27,-1,27,46,47,-1,27,47,48,-1,49,50,22,-1,22,50,51,-1,22,51,30,-1,48,52,27,-1,27,52,53,-1,27,53,25,-1,25,53,54,-1,25,54,36,-1,39,55,25,-1,25,55,56,-1,25,56,22,-1,22,56,57,-1,22,57,49,-1,28,26,58,-1,58,26,59,-1,24,23,60,-1,60,23,61,-1,59,26,62,-1,62,26,24,-1,62,24,60,-1,25,22,63,-1,63,22,64,-1,29,27,65,-1,65,27,66,-1,67,68,69,-1,69,68,70,-1,71,72,73,-1,73,72,74,-1,75,76,74,-1,74,76,70,-1,74,70,73,-1,73,70,68,-1,77,78,79,-1,79,78,80,-1,81,82,80,-1,80,82,83,-1,80,83,79,-1,79,83,84,-1,79,84,85,-1,85,84,86,-1,73,68,87,-1,73,87,88,-1,88,87,89,-1,88,89,90,-1,90,89,91,-1,90,91,92,-1,92,91,93,-1,92,93,94,-1,95,94,96,-1,96,94,93,-1,95,96,97,-1,97,96,98,-1,97,98,99,-1,99,98,100,-1,99,100,101,-1,101,100,102,-1,101,102,103,-1,103,102,104,-1,105,103,106,-1,106,103,104,-1,107,105,108,-1,108,105,106,-1,109,107,110,-1,110,107,108,-1,109,110,111,-1,109,111,112,-1,112,111,113,-1,112,113,114,-1,114,113,115,-1,114,115,116,-1,116,115,117,-1,116,117,118,-1,119,118,120,-1,120,118,117,-1,119,120,121,-1,121,120,122,-1,121,122,123,-1,123,122,124,-1,123,124,125,-1,125,124,126,-1,125,126,127,-1,127,126,128,-1,127,128,83,-1,83,128,84,-1,82,71,83,-1,83,71,73,-1,72,81,74,-1,74,81,80,-1,82,81,71,-1,71,81,72,-1,67,86,68,-1,68,86,84,-1,85,69,79,-1,79,69,70,-1,69,85,67,-1,67,85,86,-1,129,130,131,-1,131,130,132,-1,133,134,135,-1,135,134,136,-1,137,138,136,-1,136,138,132,-1,136,132,135,-1,135,132,130,-1,139,140,141,-1,141,140,142,-1,143,144,140,-1,140,144,145,-1,140,145,142,-1,142,145,146,-1,142,146,147,-1,147,146,148,-1,149,150,151,-1,151,150,152,-1,151,152,153,-1,153,152,154,-1,153,154,155,-1,155,154,156,-1,155,156,157,-1,157,156,158,-1,157,158,159,-1,159,158,160,-1,159,160,161,-1,161,160,162,-1,161,162,163,-1,163,162,164,-1,163,164,165,-1,165,164,166,-1,165,166,167,-1,167,166,168,-1,167,168,146,-1,146,168,130,-1,137,136,169,-1,169,136,140,-1,169,140,139,-1,146,145,167,-1,167,145,170,-1,167,170,165,-1,165,170,171,-1,165,171,163,-1,163,171,172,-1,163,172,161,-1,161,172,173,-1,159,161,174,-1,174,161,173,-1,159,174,175,-1,159,175,157,-1,157,175,176,-1,157,176,155,-1,155,176,177,-1,155,177,153,-1,153,177,178,-1,153,178,151,-1,149,151,179,-1,179,151,178,-1,150,149,180,-1,180,149,179,-1,152,150,181,-1,181,150,180,-1,152,181,154,-1,154,181,182,-1,154,182,156,-1,156,182,183,-1,156,183,158,-1,158,183,184,-1,158,184,160,-1,160,184,185,-1,162,160,186,-1,186,160,185,-1,162,186,187,-1,162,187,164,-1,164,187,188,-1,164,188,166,-1,166,188,189,-1,166,189,168,-1,168,189,135,-1,168,135,130,-1,147,131,142,-1,142,131,132,-1,129,148,130,-1,130,148,146,-1,147,148,131,-1,131,148,129,-1,144,133,145,-1,145,133,135,-1,134,143,136,-1,136,143,140,-1,143,134,144,-1,144,134,133,-1,190,191,192,-1,192,191,193,-1,192,193,194,-1,195,196,197,-1,197,196,198,-1,197,198,199,-1,200,201,197,-1,197,201,195,-1,201,200,202,-1,202,200,203,-1,204,205,202,-1,202,205,191,-1,201,202,195,-1,195,202,191,-1,195,191,196,-1,196,191,190,-1,193,206,207,-1,203,200,197,-1,199,194,197,-1,197,194,193,-1,197,193,203,-1,203,193,207,-1,205,206,191,-1,191,206,193,-1,206,205,207,-1,207,205,204,-1,207,204,203,-1,203,204,202,-1,
        ]
    }
}
Shape{
    appearance Appearance {
        material  Material {
            diffuseColor 0.0 0.0 0.0
            specularColor 0.0 0.0 0.0
            ambientIntensity 0.0
            transparency 0.0
            shininess 0.5
        }
    }
    geometry IndexedFaceSet {
        ccw TRUE
        solid FALSE
        coord DEF co Coordinate {
            point [
                -0.6941 -0.2542 0.0201, -0.7709 -0.451 0.0201, -0.6941 -0.2542 0.0197, -0.7709 -0.451 0.0197, -0.7421 -0.451 0.0201, -0.7421 -0.451 0.0197, -0.7222 -0.3958 0.0201, -0.7222 -0.3958 0.0197, -0.6408 -0.3958 0.0201, -0.6408 -0.3958 0.0197, -0.622 -0.451 0.0201, -0.622 -0.451 0.0197, -0.5932 -0.451 0.0201, -0.5932 -0.451 0.0197, -0.6677 -0.2542 0.0201, -0.6677 -0.2542 0.0197, -0.6475 -0.3742 0.0201, -0.7133 -0.3742 0.0201, -0.6768 -0.292 0.0201, -0.6787 -0.2852 0.0201, -0.68 -0.2782 0.0201, -0.6806 -0.2782 0.0201, -0.6819 -0.2851 0.0201, -0.6837 -0.292 0.0201, -0.6475 -0.3742 0.0197, -0.7133 -0.3742 0.0197, -0.6768 -0.292 0.0197, -0.6787 -0.2852 0.0197, -0.68 -0.2782 0.0197, -0.6806 -0.2782 0.0197, -0.6819 -0.2851 0.0197, -0.6837 -0.292 0.0197, -0.4739 -0.451 0.0201, -0.4204 -0.451 0.0201, -0.4739 -0.451 0.0197, -0.4204 -0.451 0.0197, -0.4204 -0.2542 0.0201, -0.4204 -0.2542 0.0197, -0.4759 -0.2542 0.0201, -0.4759 -0.2542 0.0197, -0.5788 -0.3501 0.0201, -0.5788 -0.3501 0.0197, -0.5774 -0.3316 0.0197, -0.5774 -0.3316 0.0201, -0.5721 -0.3122 0.0197, -0.5721 -0.3122 0.0201, -0.563 -0.2953 0.0197, -0.563 -0.2953 0.0201, -0.549 -0.2798 0.0197, -0.549 -0.2798 0.0201, -0.5488 -0.2797 0.0197, -0.5488 -0.2797 0.0201, -0.5274 -0.2653 0.0197, -0.5274 -0.2653 0.0201, -0.5044 -0.2572 0.0197, -0.5044 -0.2572 0.0201, -0.4983 -0.4489 0.0197, -0.4983 -0.4489 0.0201, -0.521 -0.4421 0.0197, -0.521 -0.4421 0.0201, -0.5415 -0.4302 0.0197, -0.5415 -0.4302 0.0201, -0.5577 -0.4147 0.0197, -0.5577 -0.4147 0.0201, -0.569 -0.3971 0.0197, -0.569 -0.3971 0.0201, -0.5761 -0.3765 0.0197, -0.5761 -0.3765 0.0201, -0.5393 -0.3034 0.0201, -0.5298 -0.2932 0.0201, -0.5154 -0.2839 0.0201, -0.4991 -0.2783 0.0201, -0.4758 -0.2758 0.0201, -0.4468 -0.2758 0.0201, -0.4468 -0.4294 0.0201, -0.4747 -0.4294 0.0201, -0.4955 -0.4275 0.0201, -0.5121 -0.4223 0.0201, -0.5255 -0.4143 0.0201, -0.5365 -0.4034 0.0201, -0.5448 -0.3899 0.0201, -0.5506 -0.3714 0.0201, -0.5524 -0.3507 0.0201, -0.5508 -0.3311 0.0201, -0.5462 -0.3155 0.0201, -0.4758 -0.2758 0.0197, -0.4468 -0.2758 0.0197, -0.4991 -0.2783 0.0197, -0.5154 -0.2839 0.0197, -0.5298 -0.2932 0.0197, -0.5393 -0.3034 0.0197, -0.5462 -0.3155 0.0197, -0.5508 -0.3311 0.0197, -0.5524 -0.3507 0.0197, -0.5506 -0.3714 0.0197, -0.5448 -0.3899 0.0197, -0.5365 -0.4034 0.0197, -0.5255 -0.4143 0.0197, -0.5121 -0.4223 0.0197, -0.4955 -0.4275 0.0197, -0.4747 -0.4294 0.0197, -0.4468 -0.4294 0.0197, -0.382 -0.4294 0.0201, -0.382 -0.451 0.0201, -0.382 -0.4294 0.0197, -0.382 -0.451 0.0197, -0.2764 -0.451 0.0201, -0.2764 -0.451 0.0197, -0.2764 -0.2542 0.0201, -0.2764 -0.2542 0.0197, -0.3772 -0.2542 0.0201, -0.3772 -0.2542 0.0197, -0.3772 -0.2758 0.0201, -0.3772 -0.2758 0.0197, -0.3028 -0.2758 0.0201, -0.3028 -0.2758 0.0197, -0.3028 -0.3406 0.0201, -0.3028 -0.3406 0.0197, -0.3724 -0.3406 0.0201, -0.3724 -0.3406 0.0197, -0.3724 -0.3622 0.0201, -0.3724 -0.3622 0.0197, -0.3028 -0.3622 0.0201, -0.3028 -0.3622 0.0197, -0.3028 -0.4294 0.0201, -0.3028 -0.4294 0.0197, -0.2379 -0.4192 0.0201, -0.2379 -0.4408 0.0201, -0.2379 -0.4192 0.0197, -0.2379 -0.4408 0.0197, -0.217 -0.4494 0.0201, -0.1838 -0.4534 0.0201, -0.1838 -0.4534 0.0197, -0.1892 -0.4533 0.0197, -0.1892 -0.4533 0.0201, -0.1971 -0.4522 0.0197, -0.217 -0.4494 0.0197, -0.1722 -0.4522 0.0197, -0.1595 -0.4509 0.0201, -0.1595 -0.4509 0.0197, -0.1404 -0.4443 0.0201, -0.1404 -0.4443 0.0197, -0.1246 -0.4342 0.0201, -0.1246 -0.4342 0.0197, -0.1098 -0.4187 0.0201, -0.1098 -0.4187 0.0197, -0.0993 -0.3999 0.0201, -0.0993 -0.3999 0.0197, -0.0934 -0.3791 0.0201, -0.0934 -0.3791 0.0197, -0.0915 -0.3563 0.0201, -0.0915 -0.3563 0.0197, -0.1916 -0.2518 0.0201, -0.1916 -0.2518 0.0197, -0.1718 -0.2534 0.0197, -0.1718 -0.2534 0.0201, -0.1499 -0.2598 0.0197, -0.1499 -0.2598 0.0201, -0.1312 -0.2705 0.0197, -0.1312 -0.2705 0.0201, -0.1134 -0.2876 0.0197, -0.1134 -0.2876 0.0201, -0.1019 -0.306 0.0197, -0.1019 -0.306 0.0201, -0.0943 -0.3283 0.0197, -0.0943 -0.3283 0.0201, -0.2379 -0.2596 0.0201, -0.2379 -0.2596 0.0197, -0.2152 -0.2534 0.0197, -0.2152 -0.2534 0.0201, -0.2379 -0.286 0.0201, -0.2379 -0.286 0.0197, -0.1918 -0.2734 0.0201, -0.1918 -0.2734 0.0197, -0.2158 -0.2765 0.0197, -0.2158 -0.2765 0.0201, -0.1179 -0.3547 0.0201, -0.1179 -0.3547 0.0197, -0.1189 -0.3394 0.0197, -0.1189 -0.3394 0.0201, -0.1241 -0.3183 0.0197, -0.1241 -0.3183 0.0201, -0.1322 -0.3031 0.0197, -0.1322 -0.3031 0.0201, -0.1441 -0.29 0.0197, -0.1441 -0.29 0.0201, -0.1577 -0.2809 0.0197, -0.1577 -0.2809 0.0201, -0.1725 -0.2756 0.0197, -0.1725 -0.2756 0.0201, -0.1874 -0.4318 0.0201, -0.1874 -0.4318 0.0197, -0.1691 -0.4298 0.0197, -0.1691 -0.4298 0.0201, -0.1547 -0.4245 0.0197, -0.1547 -0.4245 0.0201, -0.1426 -0.4163 0.0197, -0.1426 -0.4163 0.0201, -0.1334 -0.4066 0.0197, -0.1334 -0.4066 0.0201, -0.1253 -0.3929 0.0197, -0.1253 -0.3929 0.0201, -0.1199 -0.376 0.0197, -0.1199 -0.376 0.0201, -0.2344 -0.4212 0.0197, -0.2344 -0.4212 0.0201, -0.2135 -0.4289 0.0197, -0.2135 -0.4289 0.0201, -0.0747 -0.4294 0.0201, -0.0747 -0.451 0.0201, -0.0747 -0.4294 0.0197, -0.0747 -0.451 0.0197, 0.0261 -0.451 0.0201, 0.0261 -0.451 0.0197, 0.0261 -0.2542 0.0201, 0.0261 -0.2542 0.0197, -0.0003 -0.2542 0.0201, -0.0003 -0.2542 0.0197, -0.0003 -0.4294 0.0201, -0.0003 -0.4294 0.0197
            ]
        }
        coordIndex [
            0,1,2,-1,2,1,3,-1,1,4,3,-1,3,4,5,-1,4,6,5,-1,5,6,7,-1,6,8,7,-1,7,8,9,-1,8,10,9,-1,9,10,11,-1,10,12,11,-1,11,12,13,-1,12,14,13,-1,13,14,15,-1,14,0,15,-1,15,0,2,-1,16,8,17,-1,17,8,6,-1,18,14,16,-1,16,14,12,-1,16,12,8,-1,8,12,10,-1,18,19,14,-1,14,19,20,-1,14,20,0,-1,0,20,21,-1,0,21,22,-1,22,23,0,-1,0,23,17,-1,0,17,1,-1,1,17,6,-1,1,6,4,-1,16,17,24,-1,24,17,25,-1,18,16,26,-1,26,16,24,-1,18,26,27,-1,18,27,19,-1,19,27,28,-1,19,28,20,-1,21,20,29,-1,29,20,28,-1,21,29,30,-1,21,30,22,-1,22,30,31,-1,22,31,23,-1,17,23,25,-1,25,23,31,-1,32,33,34,-1,34,33,35,-1,33,36,35,-1,35,36,37,-1,36,38,37,-1,37,38,39,-1,40,41,42,-1,40,42,43,-1,43,42,44,-1,43,44,45,-1,45,44,46,-1,45,46,47,-1,47,46,48,-1,47,48,49,-1,49,48,50,-1,49,50,51,-1,51,50,52,-1,51,52,53,-1,53,52,54,-1,53,54,55,-1,55,54,39,-1,55,39,38,-1,32,34,56,-1,32,56,57,-1,57,56,58,-1,57,58,59,-1,59,58,60,-1,59,60,61,-1,61,60,62,-1,61,62,63,-1,63,62,64,-1,63,64,65,-1,65,64,66,-1,65,66,67,-1,67,66,41,-1,67,41,40,-1,45,47,68,-1,68,47,49,-1,68,49,69,-1,69,49,51,-1,69,51,70,-1,70,51,53,-1,70,53,71,-1,71,53,55,-1,71,55,72,-1,72,55,38,-1,72,38,73,-1,73,38,36,-1,73,36,74,-1,74,36,33,-1,74,33,75,-1,75,33,32,-1,75,32,76,-1,76,32,57,-1,76,57,77,-1,77,57,59,-1,77,59,78,-1,78,59,61,-1,78,61,79,-1,79,61,63,-1,79,63,80,-1,80,63,65,-1,80,65,81,-1,81,65,67,-1,81,67,82,-1,82,67,40,-1,82,40,83,-1,83,40,43,-1,83,43,84,-1,84,43,45,-1,84,45,68,-1,72,73,85,-1,85,73,86,-1,72,85,87,-1,72,87,71,-1,71,87,88,-1,71,88,70,-1,70,88,89,-1,70,89,69,-1,69,89,90,-1,69,90,68,-1,68,90,91,-1,68,91,84,-1,84,91,92,-1,84,92,83,-1,83,92,93,-1,83,93,82,-1,82,93,94,-1,82,94,81,-1,81,94,95,-1,81,95,80,-1,80,95,96,-1,80,96,79,-1,79,96,97,-1,79,97,78,-1,78,97,98,-1,78,98,77,-1,77,98,99,-1,77,99,76,-1,76,99,100,-1,76,100,75,-1,74,75,101,-1,101,75,100,-1,73,74,86,-1,86,74,101,-1,102,103,104,-1,104,103,105,-1,103,106,105,-1,105,106,107,-1,106,108,107,-1,107,108,109,-1,108,110,109,-1,109,110,111,-1,110,112,111,-1,111,112,113,-1,112,114,113,-1,113,114,115,-1,114,116,115,-1,115,116,117,-1,116,118,117,-1,117,118,119,-1,118,120,119,-1,119,120,121,-1,120,122,121,-1,121,122,123,-1,122,124,123,-1,123,124,125,-1,124,102,125,-1,125,102,104,-1,106,103,102,-1,102,124,106,-1,106,124,122,-1,106,122,108,-1,112,110,114,-1,114,110,108,-1,114,108,116,-1,116,108,122,-1,116,122,118,-1,118,122,120,-1,126,127,128,-1,128,127,129,-1,129,127,130,-1,131,132,133,-1,131,133,134,-1,134,133,135,-1,134,135,130,-1,130,135,136,-1,130,136,129,-1,132,131,137,-1,137,131,138,-1,137,138,139,-1,139,138,140,-1,139,140,141,-1,141,140,142,-1,141,142,143,-1,143,142,144,-1,143,144,145,-1,145,144,146,-1,145,146,147,-1,147,146,148,-1,147,148,149,-1,149,148,150,-1,149,150,151,-1,152,153,154,-1,152,154,155,-1,155,154,156,-1,155,156,157,-1,157,156,158,-1,157,158,159,-1,159,158,160,-1,159,160,161,-1,161,160,162,-1,161,162,163,-1,163,162,164,-1,163,164,165,-1,165,164,151,-1,165,151,150,-1,166,167,168,-1,166,168,169,-1,169,168,153,-1,169,153,152,-1,166,170,167,-1,167,170,171,-1,172,173,174,-1,172,174,175,-1,175,174,171,-1,175,171,170,-1,176,177,178,-1,176,178,179,-1,179,178,180,-1,179,180,181,-1,181,180,182,-1,181,182,183,-1,183,182,184,-1,183,184,185,-1,185,184,186,-1,185,186,187,-1,187,186,188,-1,187,188,189,-1,189,188,173,-1,189,173,172,-1,190,191,192,-1,190,192,193,-1,193,192,194,-1,193,194,195,-1,195,194,196,-1,195,196,197,-1,197,196,198,-1,197,198,199,-1,199,198,200,-1,199,200,201,-1,201,200,202,-1,201,202,203,-1,203,202,177,-1,203,177,176,-1,126,128,204,-1,126,204,205,-1,205,204,206,-1,205,206,207,-1,207,206,191,-1,207,191,190,-1,193,131,190,-1,190,131,134,-1,190,134,207,-1,207,134,130,-1,207,130,205,-1,205,130,127,-1,205,127,126,-1,170,166,175,-1,175,166,169,-1,175,169,172,-1,172,169,152,-1,172,152,189,-1,189,152,155,-1,189,155,187,-1,187,155,157,-1,187,157,185,-1,185,157,159,-1,185,159,183,-1,183,159,161,-1,183,161,181,-1,181,161,163,-1,181,163,179,-1,179,163,165,-1,179,165,176,-1,176,165,150,-1,176,150,203,-1,203,150,148,-1,203,148,201,-1,201,148,146,-1,201,146,199,-1,199,146,144,-1,199,144,197,-1,197,144,142,-1,197,142,195,-1,195,142,140,-1,195,140,193,-1,193,140,138,-1,193,138,131,-1,208,209,210,-1,210,209,211,-1,209,212,211,-1,211,212,213,-1,212,214,213,-1,213,214,215,-1,214,216,215,-1,215,216,217,-1,216,218,217,-1,217,218,219,-1,218,208,219,-1,219,208,210,-1,216,214,218,-1,218,214,212,-1,218,212,208,-1,208,212,209,-1,
        ]
    }
}
Shape{
    appearance Appearance {
        material  Material {
            diffuseColor 0.25098039215686274 0.25098039215686274 0.25098039215686274
            specularColor 0.12549019607843137 0.12549019607843137 0.12549019607843137
            ambientIntensity 0.251
            transparency 0.0
            shininess 0.5
        }
    }
    geometry IndexedFaceSet {
        ccw TRUE
        solid FALSE
        coord DEF co Coordinate {
            point [
                -0.6475 -0.3742 0.0197, -0.7133 -0.3742 0.0197, -0.6768 -0.292 0.0197, -0.6837 -0.292 0.0197, -0.6787 -0.2852 0.0197, -0.6819 -0.2851 0.0197, -0.68 -0.2782 0.0197, -0.6806 -0.2782 0.0197, -0.4468 -0.2758 0.0197, -0.4468 -0.4294 0.0197, -0.4758 -0.2758 0.0197, -0.4747 -0.4294 0.0197, -0.4955 -0.4275 0.0197, -0.5524 -0.3507 0.0197, -0.5508 -0.3311 0.0197, -0.5462 -0.3155 0.0197, -0.4991 -0.2783 0.0197, -0.5121 -0.4223 0.0197, -0.5255 -0.4143 0.0197, -0.5365 -0.4034 0.0197, -0.5448 -0.3899 0.0197, -0.5506 -0.3714 0.0197, -0.5393 -0.3034 0.0197, -0.5298 -0.2932 0.0197, -0.5154 -0.2839 0.0197, -0.0785 1.3642 0.0039, -0.0785 1.3642 0.0, -0.0683 1.3628 0.0039, -0.0683 1.3628 0.0, -0.0589 1.3589 0.0039, -0.0589 1.3589 0.0, -0.0507 1.3526 0.0039, -0.0507 1.3526 0.0, -0.0444 1.3445 0.0039, -0.0444 1.3445 0.0, -0.0405 1.335 0.0039, -0.0405 1.335 0.0, -0.0392 1.3248 0.0039, -0.0392 1.3248 0.0, -0.5514 1.3642 0.0039, -0.5514 1.3642 0.0, -0.5908 1.3248 0.0039, -0.5908 1.3248 0.0, -0.5894 1.335 0.0039, -0.5894 1.335 0.0, -0.5855 1.3445 0.0039, -0.5855 1.3445 0.0, -0.5792 1.3526 0.0039, -0.5792 1.3526 0.0, -0.5711 1.3589 0.0039, -0.5711 1.3589 0.0, -0.5616 1.3628 0.0039, -0.5616 1.3628 0.0, -0.5908 1.2146 0.0039, -0.5908 1.2146 0.0, -0.5514 1.1752 0.0039, -0.5514 1.1752 0.0, -0.5616 1.1765 0.0039, -0.5616 1.1765 0.0, -0.5711 1.1805 0.0039, -0.5711 1.1805 0.0, -0.5792 1.1867 0.0039, -0.5792 1.1867 0.0, -0.5855 1.1949 0.0039, -0.5855 1.1949 0.0, -0.5894 1.2044 0.0039, -0.5894 1.2044 0.0, -0.0785 1.1752 0.0039, -0.0785 1.1752 0.0, -0.0392 1.2146 0.0039, -0.0392 1.2146 0.0, -0.0405 1.2044 0.0039, -0.0405 1.2044 0.0, -0.0444 1.1949 0.0039, -0.0444 1.1949 0.0, -0.0507 1.1867 0.0039, -0.0507 1.1867 0.0, -0.0589 1.1805 0.0039, -0.0589 1.1805 0.0, -0.0683 1.1765 0.0039, -0.0683 1.1765 0.0, -1.3628 1.4893 0.7397, -1.3628 1.4893 0.0197, -1.3847 1.4138 0.0197, -1.3594 1.5167 0.479, -1.3583 1.5443 0.2165, -1.3583 1.5443 0.0197, -1.3589 1.565 0.0197, -1.371 1.4528 0.9206, -1.3689 1.4607 0.9151, -1.3707 1.4537 0.9076, -1.3673 1.467 0.9078, -1.3663 1.4713 0.8993, -1.3658 1.4735 0.8899, -1.4774 1.2883 0.9252, -1.4774 1.2883 0.0197, -1.543 1.2451 0.0197, -1.502 1.2694 0.9206, -1.4931 1.2758 0.924, -1.5026 1.269 0.9076, -1.4836 1.2832 0.9252, -1.5205 1.2574 0.8993, -1.5186 1.2586 0.9038, -1.5162 1.2601 0.9078, -1.5099 1.2641 0.9151, -1.6142 1.219 0.0197, -1.5959 1.224 0.194, -1.5779 1.23 0.3653, -1.5602 1.2371 0.533, -1.543 1.2451 0.6967, -1.5227 1.2561 0.8899, -1.5219 1.2566 0.8947, -1.4236 1.3456 0.0197, -1.4236 1.3456 0.9252, -1.3847 1.4138 0.9252, -1.3768 1.4343 0.9252, -1.3737 1.4439 0.924, 0.9131 1.2451 0.6967, 0.9131 1.2451 0.0197, 0.8475 1.2883 0.0197, 0.9659 1.224 0.194, 0.9843 1.219 0.0197, 0.9303 1.2371 0.533, 0.9479 1.23 0.3653, 0.8863 1.2601 0.9078, 0.8887 1.2586 0.9038, 0.8727 1.269 0.9076, 0.8906 1.2574 0.8993, 0.892 1.2566 0.8947, 0.8928 1.2561 0.8899, 0.8475 1.2883 0.9252, 0.8536 1.2832 0.9252, 0.8632 1.2758 0.924, 0.8721 1.2694 0.9206, 0.88 1.2641 0.9151, 0.7469 1.4343 0.9252, 0.7329 1.4893 0.7397, 0.7408 1.4537 0.9076, 0.7359 1.4735 0.8899, 0.739 1.4607 0.9151, 0.7411 1.4528 0.9206, 0.7438 1.4439 0.924, 0.7364 1.4713 0.8993, 0.7374 1.467 0.9078, 0.7548 1.4138 0.9252, 0.7329 1.4893 0.0197, 0.7295 1.5167 0.479, 0.7283 1.5443 0.2165, 0.7283 1.5443 0.0197, 0.729 1.565 0.0197, 0.7937 1.3456 0.9252, 0.7937 1.3456 0.0197, 0.7548 1.4138 0.0197
            ]
        }
        coordIndex [
            0,1,2,-1,2,1,3,-1,2,3,4,-1,4,3,5,-1,4,5,6,-1,6,5,7,-1,8,9,10,-1,10,9,11,-1,10,11,12,-1,13,14,10,-1,10,14,15,-1,10,15,16,-1,12,17,10,-1,10,17,18,-1,10,18,19,-1,19,20,10,-1,10,20,21,-1,10,21,13,-1,22,23,15,-1,15,23,24,-1,15,24,16,-1,25,26,27,-1,27,26,28,-1,27,28,29,-1,29,28,30,-1,29,30,31,-1,31,30,32,-1,31,32,33,-1,33,32,34,-1,33,34,35,-1,35,34,36,-1,35,36,37,-1,37,36,38,-1,25,39,26,-1,26,39,40,-1,41,42,43,-1,43,42,44,-1,43,44,45,-1,45,44,46,-1,45,46,47,-1,47,46,48,-1,47,48,49,-1,49,48,50,-1,49,50,51,-1,51,50,52,-1,51,52,39,-1,39,52,40,-1,41,53,42,-1,42,53,54,-1,55,56,57,-1,57,56,58,-1,57,58,59,-1,59,58,60,-1,59,60,61,-1,61,60,62,-1,61,62,63,-1,63,62,64,-1,63,64,65,-1,65,64,66,-1,65,66,53,-1,53,66,54,-1,55,67,56,-1,56,67,68,-1,69,70,71,-1,71,70,72,-1,71,72,73,-1,73,72,74,-1,73,74,75,-1,75,74,76,-1,75,76,77,-1,77,76,78,-1,77,78,79,-1,79,78,80,-1,79,80,67,-1,67,80,68,-1,69,37,70,-1,70,37,38,-1,37,69,67,-1,55,53,39,-1,39,53,41,-1,39,41,51,-1,41,43,45,-1,45,47,41,-1,41,47,49,-1,41,49,51,-1,55,39,67,-1,67,39,25,-1,67,25,37,-1,61,55,59,-1,59,55,57,-1,61,63,55,-1,55,63,65,-1,55,65,53,-1,73,75,71,-1,71,75,77,-1,71,77,69,-1,69,77,79,-1,69,79,67,-1,25,27,37,-1,37,27,29,-1,37,29,35,-1,35,29,31,-1,35,31,33,-1,81,82,83,-1,81,84,82,-1,82,84,85,-1,82,85,86,-1,86,85,87,-1,88,89,90,-1,90,89,91,-1,91,92,90,-1,90,92,93,-1,90,93,81,-1,94,95,96,-1,97,98,99,-1,99,98,100,-1,99,100,94,-1,101,102,99,-1,102,103,99,-1,99,103,104,-1,99,104,97,-1,105,106,96,-1,96,106,107,-1,107,108,96,-1,96,108,109,-1,96,109,94,-1,94,109,110,-1,94,110,99,-1,99,110,111,-1,99,111,101,-1,95,94,112,-1,112,94,113,-1,112,113,83,-1,83,113,114,-1,83,114,81,-1,81,114,115,-1,81,115,90,-1,90,115,116,-1,90,116,88,-1,117,118,119,-1,120,121,118,-1,117,122,118,-1,118,122,123,-1,118,123,120,-1,124,125,126,-1,125,127,126,-1,126,127,128,-1,126,128,129,-1,129,130,126,-1,126,130,131,-1,126,131,132,-1,132,133,126,-1,126,133,134,-1,126,134,124,-1,135,136,137,-1,137,136,138,-1,139,140,137,-1,137,140,141,-1,137,141,135,-1,138,142,137,-1,137,142,143,-1,137,143,139,-1,135,144,136,-1,136,144,145,-1,136,145,146,-1,146,145,147,-1,147,145,148,-1,147,148,149,-1,129,117,130,-1,130,117,119,-1,130,119,150,-1,150,119,151,-1,150,151,144,-1,144,151,152,-1,144,152,145,-1,
        ]
    }
}
Shape{
    appearance Appearance {
        material  Material {
            diffuseColor 1.0 1.0 1.0
            specularColor 0.5019607843137255 0.5019607843137255 0.5019607843137255
            ambientIntensity 1.0
            transparency 0.0
            shininess 0.5
        }
    }
    geometry IndexedFaceSet {
        ccw TRUE
        solid FALSE
        coord DEF co Coordinate {
            point [
                0.4724 1.9587 0.2165, 0.4724 1.998 0.2165, 0.4724 1.9587 0.0, 0.4724 1.998 0.0, -1.1024 1.9587 0.0, -1.1024 1.998 0.0, -1.1024 1.9587 0.2165, -1.1024 1.998 0.2165
            ]
        }
        coordIndex [
            0,1,2,-1,2,1,3,-1,4,5,6,-1,6,5,7,-1,2,4,0,-1,0,4,6,-1,
        ]
    }
}
Shape{
    appearance Appearance {
        material  Material {
            diffuseColor 0.25098039215686274 0.25098039215686274 0.25098039215686274
            specularColor 0.12549019607843137 0.12549019607843137 0.12549019607843137
            ambientIntensity 0.251
            transparency 0.0
            shininess 0.5
        }
    }
    geometry IndexedFaceSet {
        ccw TRUE
        solid FALSE
        coord DEF co Coordinate {
            point [
                -0.0787 0.935 0.8465, -0.0787 0.935 0.9252, -0.0868 0.9962 0.8465, -0.0868 0.9962 0.9252, -0.1104 1.0531 0.8465, -0.1104 1.0531 0.9252, -0.1479 1.1021 0.8465, -0.1479 1.1021 0.9252, -0.1969 1.1396 0.8465, -0.1969 1.1396 0.9252, -0.2538 1.1632 0.8465, -0.2538 1.1632 0.9252, -0.315 1.1713 0.8465, -0.315 1.1713 0.9252, -0.3761 1.1632 0.8465, -0.3761 1.1632 0.9252, -0.4331 1.1396 0.8465, -0.4331 1.1396 0.9252, -0.482 1.1021 0.8465, -0.482 1.1021 0.9252, -0.5195 1.0531 0.8465, -0.5195 1.0531 0.9252, -0.5431 0.9962 0.8465, -0.5431 0.9962 0.9252, -0.5512 0.935 0.8465, -0.5512 0.935 0.9252, -0.5431 0.8739 0.8465, -0.5431 0.8739 0.9252, -0.5195 0.8169 0.8465, -0.5195 0.8169 0.9252, -0.482 0.768 0.8465, -0.482 0.768 0.9252, -0.4331 0.7305 0.8465, -0.4331 0.7305 0.9252, -0.3761 0.7069 0.8465, -0.3761 0.7069 0.9252, -0.315 0.6988 0.8465, -0.315 0.6988 0.9252, -0.2538 0.7069 0.8465, -0.2538 0.7069 0.9252, -0.1969 0.7305 0.8465, -0.1969 0.7305 0.9252, -0.1479 0.768 0.8465, -0.1479 0.768 0.9252, -0.1104 0.8169 0.8465, -0.1104 0.8169 0.9252, -0.0868 0.8739 0.8465, -0.0868 0.8739 0.9252, -0.315 0.935 0.8465
            ]
        }
        coordIndex [
            0,1,2,-1,2,1,3,-1,2,3,4,-1,4,3,5,-1,4,5,6,-1,6,5,7,-1,6,7,8,-1,8,7,9,-1,8,9,10,-1,10,9,11,-1,10,11,12,-1,12,11,13,-1,12,13,14,-1,14,13,15,-1,14,15,16,-1,16,15,17,-1,16,17,18,-1,18,17,19,-1,18,19,20,-1,20,19,21,-1,20,21,22,-1,22,21,23,-1,22,23,24,-1,24,23,25,-1,24,25,26,-1,26,25,27,-1,26,27,28,-1,28,27,29,-1,28,29,30,-1,30,29,31,-1,30,31,32,-1,32,31,33,-1,32,33,34,-1,34,33,35,-1,34,35,36,-1,36,35,37,-1,36,37,38,-1,38,37,39,-1,38,39,40,-1,40,39,41,-1,40,41,42,-1,42,41,43,-1,42,43,44,-1,44,43,45,-1,44,45,46,-1,46,45,47,-1,46,47,0,-1,0,47,1,-1,44,46,48,-1,48,46,0,-1,48,0,2,-1,38,40,48,-1,48,40,42,-1,48,42,44,-1,32,34,48,-1,48,34,36,-1,48,36,38,-1,26,28,48,-1,48,28,30,-1,48,30,32,-1,20,22,48,-1,48,22,24,-1,48,24,26,-1,14,16,48,-1,48,16,18,-1,48,18,20,-1,8,10,48,-1,48,10,12,-1,48,12,14,-1,2,4,48,-1,48,4,6,-1,48,6,8,-1,
        ]
    }
}