#VRML V2.0 utf8
# 3D model generated by kicad-lcsc-manager
# Based on easyeda2kicad.py v1.0.1

Shape{
    appearance Appearance {
        material  Material {
            diffuseColor 0.25098039215686274 0.25098039215686274 0.25098039215686274
            specularColor 0.12549019607843137 0.12549019607843137 0.12549019607843137
            ambientIntensity 0.251
            transparency 0.0
            shininess 0.5
        }
    }
    geometry IndexedFaceSet {
        ccw TRUE
        solid FALSE
        coord DEF co Coordinate {
            point [
                0.1038 -0.9016 2.4945, 0.1005 -0.9016 2.4942, 0.1328 -0.9016 2.4942, -0.2934 -0.9016 2.7365, -0.2676 -0.9016 2.7147, -0.1775 -0.9016 2.8416, -0.1775 -0.9016 2.7059, -0.4197 -0.9016 2.8554, -0.3992 -0.9016 2.8416, -0.3774 -0.9016 2.8269, -0.346 -0.9016 2.7906, -0.3261 -0.9016 2.752, -0.3216 -0.9016 2.7504, -0.4673 -0.9016 2.8721, -0.1775 -0.9016 4.9814, -0.5064 -0.9016 2.8763, -0.7731 -0.9016 4.9814, -0.5534 -0.9016 2.8705, -0.5971 -0.9016 2.8536, -0.7564 -0.9016 2.7811, -0.7213 -0.9016 2.7948, -0.7731 -0.9016 2.8416, -0.6838 -0.9016 2.7994, -0.6165 -0.9016 2.8416, -0.6203 -0.9016 2.8393, -0.6426 -0.9016 2.8202, -0.6729 -0.9016 2.7988, -0.662 -0.9016 2.7975, -0.7929 -0.9016 2.7539, -0.7866 -0.9016 2.7599, -0.7731 -0.9016 2.7694, -3.002 -0.9016 2.7059, -3.002 -0.9016 2.6667, -0.8351 -0.9016 2.6667, -0.8158 -0.9016 2.7245, -3.002 -0.9016 2.8416, -0.8241 -0.9016 2.7059, -0.8309 -0.9016 2.6904, -0.7731 -0.9016 2.5213, -0.7977 -0.9016 2.5423, -3.002 -0.9016 2.4942, -0.8193 -0.9016 2.5731, -0.8329 -0.9016 2.6084, -0.8375 -0.9016 2.6457, -0.8373 -0.9016 2.6547, -0.7339 -0.9016 2.5003, -0.7681 -0.9016 2.5171, -0.7731 -0.9016 2.4942, -0.7218 -0.9016 2.4967, -0.6795 -0.9016 2.4449, -0.6981 -0.9016 2.4589, -0.7731 -0.9016 2.4413, -0.7122 -0.9016 2.4763, -0.7206 -0.9016 2.4942, -0.6316 -0.9016 2.4322, -0.7731 -0.9016 1.8504, -0.6086 -0.9016 2.4351, -0.1775 -0.9016 1.8504, -0.5924 -0.9016 2.4413, -0.6352 -0.9016 2.4323, -0.6576 -0.9016 2.4357, -0.6709 -0.9016 2.4413, -0.5428 -0.9016 2.4942, -0.5429 -0.9016 2.4935, -0.1775 -0.9016 2.4413, -0.5542 -0.9016 2.4724, -0.5685 -0.9016 2.4564, -0.5874 -0.9016 2.4432, -0.2366 -0.9016 2.6588, -0.2322 -0.9016 2.6277, -0.1775 -0.9016 2.6667, -0.4216 -0.9016 2.5501, -0.4151 -0.9016 2.5527, -0.4039 -0.9016 2.6068, -0.2673 -0.9016 2.5375, -0.2931 -0.9016 2.5157, -0.1775 -0.9016 2.4942, -0.5605 -0.9016 2.5907, -0.4333 -0.9016 2.6571, -0.5743 -0.9016 2.6038, -0.5939 -0.9016 2.6152, -0.4274 -0.9016 2.546, -0.2484 -0.9016 2.5639, -0.2914 -0.9016 2.6343, -0.2957 -0.9016 2.6526, -0.3031 -0.9016 2.6667, -0.7731 -0.9016 2.6667, -0.2365 -0.9016 2.5939, -0.7104 -0.9016 2.5806, -0.6947 -0.9016 2.5986, -0.6754 -0.9016 2.6121, -0.4077 -0.9016 2.5537, -0.4068 -0.9016 2.5536, -0.404 -0.9016 2.553, -0.7208 -0.9016 2.5603, -0.7416 -0.9016 2.5731, -0.7586 -0.9016 2.5906, -0.6544 -0.9016 2.6201, -0.6316 -0.9016 2.6229, -0.6165 -0.9016 2.6217, -0.4371 -0.9016 2.5242, -0.4369 -0.9016 2.528, -0.5368 -0.9016 2.5366, -0.435 -0.9016 2.5352, -0.4313 -0.9016 2.5417, -0.415 -0.9016 2.4957, -0.4212 -0.9016 2.4982, -0.4274 -0.9016 2.5025, -0.4296 -0.9016 2.5048, -0.4337 -0.9016 2.5107, -0.4362 -0.9016 2.5172, -0.5373 -0.9016 2.5169, -0.5368 -0.9016 2.5271, -0.3093 -0.9016 2.5776, -0.2992 -0.9016 2.5926, -0.2929 -0.9016 2.6097, -0.291 -0.9016 2.6267, -0.322 -0.9016 2.5015, -0.3536 -0.9016 2.4948, -0.4096 -0.9016 2.4948, -0.402 -0.9016 2.5527, -0.3593 -0.9016 2.5527, -0.3467 -0.9016 2.5547, -0.3295 -0.9016 2.5614, -0.3147 -0.9016 2.572, -0.7778 -0.9016 2.6476, -0.7766 -0.9016 2.6327, -0.7731 -0.9016 2.6209, -0.7697 -0.9016 2.6095, -0.7731 -0.9016 2.6753, -0.7749 -0.9016 2.6707, -0.7754 -0.9016 2.6667, -0.3482 -0.9016 2.6988, -0.365 -0.9016 2.7007, -0.3726 -0.9016 2.7007, -0.3044 -0.9016 2.6691, -0.3167 -0.9016 2.6827, -0.3316 -0.9016 2.6927, -0.3933 -0.9016 2.758, -0.4147 -0.9016 2.7835, -0.6326 -0.9016 2.7282, -0.4168 -0.9016 2.7854, -0.4434 -0.9016 2.8039, -0.6181 -0.9016 2.7583, -0.7569 -0.9016 2.7059, -0.639 -0.9016 2.7318, -0.7668 -0.9016 2.6918, -0.3738 -0.9016 2.7059, -0.3785 -0.9016 2.7275, -0.6602 -0.9016 2.7396, -0.6829 -0.9016 2.7425, -0.6931 -0.9016 2.7419, -0.5968 -0.9016 2.7837, -0.4732 -0.9016 2.8153, -0.5714 -0.9016 2.8022, -0.5054 -0.9016 2.8193, -0.5405 -0.9016 2.8148, -0.7165 -0.9016 2.7363, -0.7376 -0.9016 2.725, -0.7536 -0.9016 2.7107, -0.2612 -0.9016 2.7059, -0.2482 -0.9016 2.6878, -0.2398 -0.9016 2.6667, 0.1328 -0.9016 2.7671, 0.0968 -0.9016 2.7671, 0.1328 -0.9016 2.7222, 0.0968 -0.9016 2.7222, 0.1639 -0.9016 2.8416, 0.1328 -0.9016 2.8416, 0.1483 -0.9016 2.8404, 0.1328 -0.9016 2.8404, 0.1483 -0.9016 2.8251, 0.1513 -0.9016 2.7222, 0.1639 -0.9016 2.7059, 0.1513 -0.9016 2.707, 0.1328 -0.9016 2.7059, 0.1445 -0.9016 2.7671, 0.1445 -0.9016 2.7824, 0.1328 -0.9016 2.7824, 0.1328 -0.9016 2.8251, 0.0968 -0.9016 2.8251, 0.0968 -0.9016 2.7824, 0.0796 -0.9016 2.8404, 0.0718 -0.9016 2.8416, 0.0796 -0.9016 2.707, 0.0528 -0.9016 2.729, 0.0528 -0.9016 2.7125, 0.0718 -0.9016 2.7059, 0.0397 -0.9016 2.8411, 0.0528 -0.9016 2.8372, 0.0528 -0.9016 2.8192, 0.0184 -0.9016 2.7201, 0.024 -0.9016 2.7203, 0.0509 -0.9016 2.7116, 0.0367 -0.9016 2.7068, 0.0274 -0.9016 2.7059, 0.1328 -0.9016 2.707, 0.0392 -0.9016 2.723, -0.0163 -0.9016 2.8109, -0.0226 -0.9016 2.8015, -0.027 -0.9016 2.7898, 0.038 -0.9016 2.8251, 0.0214 -0.9016 2.8271, 0.0155 -0.9016 2.8269, 0.004 -0.9016 2.8245, -0.029 -0.9016 2.7722, -0.029 -0.9016 2.771, -0.0269 -0.9016 2.7546, -0.0126 -0.9016 2.731, -0.0037 -0.9016 2.725, 0.0059 -0.9016 2.7215, -0.0064 -0.9016 2.8195, -0.015 -0.9016 2.8123, -0.0227 -0.9016 2.7437, -0.0159 -0.9016 2.7342, 0.0212 -0.9016 2.8427, 0.0225 -0.9016 2.8427, 0.0718 -0.9016 4.9814, 0.0349 -0.9016 2.8416, -0.0438 -0.9016 2.7955, -0.0411 -0.9016 2.8019, -0.0411 -0.9016 2.8416, -0.0375 -0.9016 2.8103, -0.0109 -0.9016 2.8355, 0.0033 -0.9016 2.8407, -0.0278 -0.9016 2.8231, -0.024 -0.9016 2.8266, -0.0468 -0.9016 2.778, -0.0491 -0.9016 2.8416, -0.0411 -0.9016 2.7407, -0.045 -0.9016 2.7519, -0.0491 -0.9016 2.7059, -0.0471 -0.9016 2.7712, -0.0073 -0.9016 2.7084, -0.0198 -0.9016 2.7145, -0.0411 -0.9016 2.7059, -0.0299 -0.9016 2.723, -0.0324 -0.9016 2.7257, -0.04 -0.9016 2.7375, 0.004 -0.9016 2.7059, -0.0411 -0.9016 2.6667, 0.007 -0.9016 2.7052, 0.0159 -0.9016 2.7047, 0.0718 -0.9016 2.6667, 3.002 -0.9016 2.8416, 3.002 -0.9016 4.9814, 0.2889 -0.9016 4.9814, 3.002 -0.9016 6.7126, 2.0374 -0.9016 6.7126, 3.002 -0.9016 8.878, 3.002 -0.9016 9.9606, 2.0374 -0.9016 8.878, 0.2889 -0.9016 9.9606, 0.2377 -0.9016 9.9606, 0.2889 -0.9016 8.4361, 0.3543 -0.9016 8.409, 0.5011 -0.9016 8.2964, 0.6137 -0.9016 8.1496, 0.6845 -0.9016 7.9787, 0.7087 -0.9016 7.7953, 0.6845 -0.9016 7.6119, 0.6137 -0.9016 7.4409, 0.5011 -0.9016 7.2942, 0.1639 -0.9016 8.4824, 0.1834 -0.9016 8.4798, 0.2377 -0.9016 8.4573, 0.0718 -0.9016 9.9606, 0.1328 -0.9016 8.4864, 0.1328 -0.9016 9.9606, 0.1639 -0.9016 9.9606, -0.1775 -0.9016 9.9606, -0.0491 -0.9016 8.4975, -0.0491 -0.9016 9.9606, -0.0411 -0.9016 8.4985, -0.0411 -0.9016 9.9606, 0.0 -0.9016 8.5039, 0.0718 -0.9016 8.4945, -0.6137 -0.9016 8.1496, -0.5011 -0.9016 8.2964, -0.7731 -0.9016 9.9606, -0.6137 -0.9016 7.4409, -0.5011 -0.9016 7.2942, -0.3543 -0.9016 7.1816, -0.3543 -0.9016 8.409, -0.1834 -0.9016 8.4798, -0.1775 -0.9016 8.4806, -0.6845 -0.9016 7.6119, -0.7087 -0.9016 7.7953, -0.6845 -0.9016 7.9787, 0.0112 -0.9016 2.8416, -0.0411 -0.9016 4.9814, -0.0491 -0.9016 4.9814, -0.0491 -0.9016 7.0931, -0.1775 -0.9016 7.11, 0.0718 -0.9016 7.0961, 0.0 -0.9016 7.0866, -0.0411 -0.9016 7.092, 0.1639 -0.9016 4.9814, 0.1328 -0.9016 7.1041, 0.1328 -0.9016 4.9814, 0.2377 -0.9016 4.9814, 0.1834 -0.9016 7.1108, 0.1639 -0.9016 7.1082, 0.3543 -0.9016 7.1816, 0.2889 -0.9016 7.1545, 0.2377 -0.9016 7.1332, -3.002 -0.9016 2.4413, -3.002 -0.9016 1.8504, -3.002 -0.9016 4.9814, -3.002 -0.9016 6.7126, -2.0374 -0.9016 6.7126, -2.0374 -0.9016 8.878, -3.1201 -0.9016 8.878, -3.1201 -0.9016 9.9606, 0.2817 -0.9016 2.7517, 0.2752 -0.9016 2.7378, 0.2889 -0.9016 2.7059, 0.2651 -0.9016 2.7257, 0.2377 -0.9016 2.8416, 0.2377 -0.9016 2.8373, 0.2889 -0.9016 2.8416, 0.2514 -0.9016 2.8322, 0.2377 -0.9016 2.7107, 0.2377 -0.9016 2.7059, 0.2487 -0.9016 2.7145, 0.2619 -0.9016 2.723, 0.2651 -0.9016 2.8228, 0.2703 -0.9016 2.8176, 0.2784 -0.9016 2.8059, 0.2832 -0.9016 2.793, 0.2852 -0.9016 2.7754, 0.2848 -0.9016 2.7674, 0.2146 -0.9016 2.8404, 0.2353 -0.9016 2.8381, 0.2329 -0.9016 2.709, 0.2132 -0.9016 2.707, 0.1765 -0.9016 2.707, 0.1765 -0.9016 2.8404, 0.0105 -0.9016 2.4964, 0.0042 -0.9016 2.4942, 0.0247 -0.9016 2.4953, -0.0283 -0.9016 2.5408, -0.0258 -0.9016 2.5677, -0.0317 -0.9016 2.536, -0.034 -0.9016 2.5301, 0.0164 -0.9016 2.5004, -0.0149 -0.9016 2.4942, -0.0213 -0.9016 2.4966, -0.0411 -0.9016 2.4942, -0.0323 -0.9016 2.5076, -0.0343 -0.9016 2.5132, -0.0258 -0.9016 2.5839, -0.0222 -0.9016 2.586, 0.0241 -0.9016 2.5897, 0.0669 -0.9016 2.5762, 0.07 -0.9016 2.5808, -0.0232 -0.9016 2.5452, -0.016 -0.9016 2.5489, -0.0151 -0.9016 2.5745, -0.0035 -0.9016 2.5519, 0.0111 -0.9016 2.5786, 0.0054 -0.9016 2.5792, -0.0047 -0.9016 2.5781, -0.0269 -0.9016 2.5005, -0.0288 -0.9016 2.5024, 0.0247 -0.9016 2.51, 0.0243 -0.9016 2.51, 0.0217 -0.9016 2.5061, 0.0297 -0.9016 2.5866, 0.0341 -0.9016 2.5823, 0.0649 -0.9016 2.5709, 0.0375 -0.9016 2.5769, 0.0402 -0.9016 2.5693, -0.0098 -0.9016 2.5908, 0.007 -0.9016 2.5928, 0.0171 -0.9016 2.5919, -0.0351 -0.9016 2.5208, -0.0351 -0.9016 2.523, 0.0717 -0.9016 2.5469, 0.0641 -0.9016 2.5159, 0.0718 -0.9016 2.5469, 0.0706 -0.9016 2.5119, 0.0718 -0.9016 2.5114, 0.069 -0.9016 2.5498, 0.0668 -0.9016 2.5533, 0.0415 -0.9016 2.5566, 0.0649 -0.9016 2.5584, 0.0642 -0.9016 2.5649, 0.0247 -0.9016 2.5559, 0.0242 -0.9016 2.5633, 0.0224 -0.9016 2.5692, 0.0205 -0.9016 2.5727, 0.0179 -0.9016 2.5754, 0.015 -0.9016 2.5773, 0.0037 -0.9016 2.494, 0.0718 -0.9016 2.4413, -0.0411 -0.9016 2.4413, -0.0049 -0.9016 2.493, -0.0146 -0.9016 2.4942, 0.0641 -0.9016 2.4986, 0.0415 -0.9016 2.4953, 0.0718 -0.9016 2.4959, 0.0718 -0.9016 2.4942, 0.0761 -0.9016 2.4945, 0.079 -0.9016 2.4942, 0.09 -0.9016 2.493, 0.1328 -0.9016 2.4413, 0.1239 -0.9016 2.5886, 0.1239 -0.9016 2.5723, 0.0749 -0.9016 2.5852, 0.0798 -0.9016 2.5882, 0.1277 -0.9016 2.5145, 0.1256 -0.9016 2.5092, 0.1225 -0.9016 2.5048, 0.0718 -0.9016 2.5824, 0.089 -0.9016 2.5914, 0.1013 -0.9016 2.5928, 0.1328 -0.9016 2.6667, 0.1105 -0.9016 2.5922, 0.1229 -0.9016 2.537, 0.126 -0.9016 2.5324, 0.1278 -0.9016 2.5274, 0.1285 -0.9016 2.5212, 0.1177 -0.9016 2.5006, 0.1129 -0.9016 2.4977, 0.0997 -0.9016 2.5792, 0.0947 -0.9016 2.5788, 0.0814 -0.9016 2.5664, 0.0903 -0.9016 2.5777, 0.0865 -0.9016 2.5757, 0.0816 -0.9016 2.5642, 0.0823 -0.9016 2.5616, 0.0835 -0.9016 2.5593, 0.0851 -0.9016 2.5575, 0.091 -0.9016 2.5538, 0.1107 -0.9016 2.578, 0.1013 -0.9016 2.5493, 0.1201 -0.9016 2.5745, 0.1078 -0.9016 2.5467, 0.1189 -0.9016 2.5405, 0.084 -0.9016 2.5734, 0.0826 -0.9016 2.5713, 0.0817 -0.9016 2.5691, 0.0811 -0.9016 2.5079, 0.0895 -0.9016 2.5372, 0.0796 -0.9016 2.5418, 0.0916 -0.9016 2.5067, 0.0923 -0.9016 2.5067, 0.1005 -0.9016 2.5326, 0.1009 -0.9016 2.5077, 0.1113 -0.9016 2.5196, 0.1112 -0.9016 2.5217, 0.1052 -0.9016 2.5092, 0.1067 -0.9016 2.5102, 0.1087 -0.9016 2.5119, 0.1101 -0.9016 2.514, 0.111 -0.9016 2.5164, 0.1104 -0.9016 2.5243, 0.1091 -0.9016 2.5265, 0.107 -0.9016 2.5287, 0.2113 -0.9016 2.5906, 0.2287 -0.9016 2.5906, 0.2377 -0.9016 2.6667, 0.1808 -0.9016 2.519, 0.1828 -0.9016 2.5111, 0.1833 -0.9016 2.5111, 0.1639 -0.9016 2.6667, 0.1639 -0.9016 2.5674, 0.1853 -0.9016 2.5188, 0.184 -0.9016 2.5144, 0.1639 -0.9016 2.5225, 0.1372 -0.9016 2.5906, 0.1559 -0.9016 2.5906, 0.174 -0.9016 2.4942, 0.1746 -0.9016 2.4955, 0.1639 -0.9016 2.4721, 0.164 -0.9016 2.4722, 0.1639 -0.9016 2.4942, 0.1672 -0.9016 2.4782, 0.1406 -0.9016 2.4666, 0.1406 -0.9016 2.4518, 0.144 -0.9016 2.4655, 0.1501 -0.9016 2.4647, 0.1541 -0.9016 2.4652, 0.1639 -0.9016 2.4534, 0.1582 -0.9016 2.4512, 0.1639 -0.9016 2.4413, 0.1514 -0.9016 2.4504, 0.1477 -0.9016 2.4505, 0.1578 -0.9016 2.4666, 0.1608 -0.9016 2.4687, 0.1854 -0.9016 2.4809, 0.1778 -0.9016 2.4662, 0.2377 -0.9016 2.4413, 0.1906 -0.9016 2.4942, 0.1717 -0.9016 2.4588, 0.1706 -0.9016 2.4578, 0.1648 -0.9016 2.4537, 0.2889 -0.9016 2.5554, 0.2639 -0.9016 2.5554, 0.2889 -0.9016 2.5105, 0.2639 -0.9016 2.5105, 0.3804 -0.9016 2.4953, 0.3437 -0.9016 2.4953, 0.2889 -0.9016 2.4942, 0.2889 -0.9016 2.6667, 0.2889 -0.9016 2.6287, 0.3154 -0.9016 2.6287, 0.5608 -0.9016 2.4953, 0.5798 -0.9016 2.4953, 3.002 -0.9016 2.4942, 0.529 -0.9016 2.6287, 0.5471 -0.9016 2.5318, 0.4916 -0.9016 2.5318, 0.4787 -0.9016 2.4953, 0.4597 -0.9016 2.4953, 0.4 -0.9016 2.4973, 3.002 -0.9016 2.6667, 0.5105 -0.9016 2.6287, 0.2889 -0.9016 2.5707, 0.3116 -0.9016 2.5707, 0.3154 -0.9016 2.6134, 0.3437 -0.9016 2.6287, 0.3116 -0.9016 2.5554, 0.4423 -0.9016 2.5261, 0.4322 -0.9016 2.514, 0.4322 -0.9016 2.6111, 0.4374 -0.9016 2.6059, 0.4455 -0.9016 2.5942, 0.4503 -0.9016 2.5813, 0.4291 -0.9016 2.5112, 0.4158 -0.9016 2.5028, 0.3185 -0.9016 2.5105, 0.3185 -0.9016 2.4953, 0.3817 -0.9016 2.6287, 0.4025 -0.9016 2.6264, 0.4185 -0.9016 2.6205, 0.4523 -0.9016 2.5637, 0.452 -0.9016 2.5557, 0.4488 -0.9016 2.54, 0.2889 -0.9016 2.6134, 0.2639 -0.9016 2.6134, 0.2639 -0.9016 2.5707, 0.2889 -0.9016 2.4953, 0.2467 -0.9016 2.4953, 0.2377 -0.9016 2.4942, 0.2467 -0.9016 2.6287, -0.1834 -0.9016 7.1108, 0.3116 -0.9016 2.707, 0.2926 -0.9016 2.707, 0.3936 -0.9016 2.707, 0.38 -0.9016 2.7435, 0.3245 -0.9016 2.7435, 0.3434 -0.9016 2.8404, 0.3618 -0.9016 2.8404, 0.4127 -0.9016 2.707, 3.002 -0.9016 2.7059, -0.0525 -0.9016 2.7222, -0.0525 -0.9016 2.707, -0.1229 -0.9016 2.707, -0.1229 -0.9016 2.8404, -0.1057 -0.9016 2.8404, -0.1057 -0.9016 2.7222, -0.0491 -0.9016 2.6667, -0.0491 -0.9016 2.4942, -0.1229 -0.9016 2.4953, -0.0511 -0.9016 2.4953, -0.0511 -0.9016 2.5105, -0.0542 -0.9016 2.6134, -0.1229 -0.9016 2.6287, -0.0542 -0.9016 2.6287, -0.1057 -0.9016 2.5554, -0.1057 -0.9016 2.5105, -0.0579 -0.9016 2.5554, -0.0579 -0.9016 2.5707, -0.1057 -0.9016 2.5707, -0.1057 -0.9016 2.6134, 0.2889 -0.9016 2.4413, 3.002 -0.9016 2.4413, -0.0491 -0.9016 2.4413, -0.0491 -0.9016 1.8504, -0.0411 -0.9016 1.8504, 0.0718 -0.9016 1.8504, 0.1328 -0.9016 1.8504, 0.1639 -0.9016 1.8504, 0.2377 -0.9016 1.8504, 0.2889 -0.9016 1.8504, 3.002 -0.9016 1.8504
            ]
        }
        coordIndex [
            0,1,2,-1,3,4,5,-1,5,4,6,-1,7,8,5,-1,5,8,9,-1,5,9,10,-1,10,11,5,-1,5,11,12,-1,5,12,3,-1,13,14,15,-1,15,14,16,-1,15,16,17,-1,17,16,18,-1,19,20,21,-1,21,20,22,-1,18,16,23,-1,23,16,21,-1,23,21,24,-1,24,21,22,-1,24,22,25,-1,25,22,26,-1,25,26,27,-1,28,29,21,-1,21,29,30,-1,21,30,19,-1,31,32,33,-1,34,35,36,-1,36,35,31,-1,36,31,37,-1,37,31,33,-1,38,39,40,-1,40,39,41,-1,41,42,40,-1,40,42,43,-1,40,43,32,-1,32,43,44,-1,32,44,33,-1,45,46,47,-1,45,47,48,-1,49,50,51,-1,51,50,52,-1,51,52,47,-1,47,52,53,-1,47,53,48,-1,54,55,56,-1,56,55,57,-1,56,57,58,-1,54,59,55,-1,55,59,60,-1,55,60,51,-1,51,60,61,-1,51,61,49,-1,62,63,64,-1,64,63,65,-1,65,66,64,-1,64,66,67,-1,64,67,58,-1,68,69,70,-1,71,72,73,-1,74,75,76,-1,77,78,79,-1,79,78,80,-1,71,73,81,-1,74,76,82,-1,83,84,78,-1,78,84,85,-1,78,85,86,-1,70,69,76,-1,76,69,87,-1,76,87,82,-1,88,89,86,-1,86,89,90,-1,72,91,73,-1,73,91,92,-1,73,92,93,-1,94,88,95,-1,95,88,96,-1,90,97,86,-1,86,97,98,-1,86,98,78,-1,78,98,99,-1,78,99,80,-1,100,101,102,-1,102,101,103,-1,102,103,73,-1,73,103,104,-1,73,104,81,-1,105,106,62,-1,62,106,107,-1,62,107,108,-1,108,109,62,-1,62,109,110,-1,62,110,111,-1,111,110,100,-1,111,100,112,-1,112,100,102,-1,113,114,73,-1,73,114,115,-1,73,115,78,-1,78,115,116,-1,78,116,83,-1,75,117,76,-1,76,117,118,-1,76,118,62,-1,62,118,119,-1,62,119,105,-1,93,120,73,-1,73,120,121,-1,73,121,122,-1,122,123,73,-1,73,123,124,-1,73,124,113,-1,125,126,86,-1,86,126,127,-1,86,127,88,-1,88,127,128,-1,88,128,96,-1,129,130,86,-1,86,130,131,-1,86,131,125,-1,132,133,85,-1,85,133,134,-1,85,134,86,-1,135,136,85,-1,85,136,137,-1,85,137,132,-1,138,139,140,-1,139,141,140,-1,140,141,142,-1,140,142,143,-1,144,140,145,-1,129,86,146,-1,146,86,134,-1,146,134,144,-1,144,134,147,-1,144,147,140,-1,140,147,148,-1,140,148,138,-1,145,149,144,-1,144,149,150,-1,144,150,151,-1,143,142,152,-1,152,142,153,-1,152,153,154,-1,154,153,155,-1,154,155,156,-1,157,158,151,-1,151,158,159,-1,151,159,144,-1,4,160,6,-1,6,160,161,-1,6,161,70,-1,70,161,162,-1,70,162,68,-1,163,164,165,-1,165,164,166,-1,167,168,169,-1,169,168,170,-1,169,171,167,-1,167,171,172,-1,167,172,173,-1,173,172,174,-1,173,174,175,-1,163,165,176,-1,176,165,172,-1,176,172,177,-1,177,172,171,-1,177,171,178,-1,171,179,178,-1,178,179,180,-1,178,180,181,-1,170,168,182,-1,182,168,183,-1,182,183,184,-1,185,186,187,-1,188,189,183,-1,183,189,190,-1,191,192,190,-1,186,193,187,-1,187,193,194,-1,187,194,195,-1,174,196,175,-1,175,196,184,-1,175,184,187,-1,187,184,183,-1,187,183,185,-1,185,183,190,-1,185,190,197,-1,197,190,192,-1,198,199,190,-1,190,199,200,-1,201,202,190,-1,190,202,203,-1,190,203,204,-1,200,205,190,-1,190,205,206,-1,190,206,207,-1,208,209,190,-1,190,209,210,-1,190,210,191,-1,204,211,190,-1,190,211,212,-1,190,212,198,-1,207,213,190,-1,190,213,214,-1,190,214,208,-1,215,216,217,-1,217,216,218,-1,219,220,221,-1,221,220,222,-1,221,223,224,-1,222,225,221,-1,221,225,226,-1,221,226,223,-1,227,219,228,-1,229,230,231,-1,231,230,232,-1,227,228,232,-1,233,234,235,-1,234,236,235,-1,235,236,237,-1,235,237,238,-1,233,235,239,-1,239,235,240,-1,239,240,241,-1,241,240,242,-1,242,240,243,-1,242,243,195,-1,244,245,246,-1,246,245,247,-1,246,247,248,-1,249,250,251,-1,251,250,252,-1,253,254,252,-1,252,254,255,-1,252,255,251,-1,251,255,256,-1,256,257,251,-1,251,257,258,-1,251,258,248,-1,248,258,259,-1,248,259,260,-1,260,261,248,-1,248,261,262,-1,248,262,246,-1,263,264,253,-1,253,264,265,-1,253,265,254,-1,266,267,268,-1,268,267,263,-1,268,263,269,-1,269,263,253,-1,270,271,272,-1,272,271,273,-1,272,273,274,-1,274,273,275,-1,274,275,266,-1,266,275,276,-1,266,276,267,-1,277,278,279,-1,280,16,281,-1,281,16,282,-1,278,283,279,-1,279,283,284,-1,279,284,270,-1,270,284,285,-1,270,285,271,-1,280,286,16,-1,16,286,287,-1,16,287,279,-1,279,287,288,-1,279,288,277,-1,224,289,221,-1,221,289,290,-1,221,290,291,-1,291,290,292,-1,291,292,293,-1,294,295,290,-1,290,295,296,-1,290,296,292,-1,297,298,299,-1,299,298,294,-1,299,294,217,-1,217,294,290,-1,217,290,215,-1,215,290,289,-1,300,301,297,-1,297,301,302,-1,297,302,298,-1,262,303,246,-1,246,303,304,-1,246,304,305,-1,46,38,47,-1,47,38,40,-1,47,40,51,-1,51,40,306,-1,51,306,55,-1,55,306,307,-1,16,308,21,-1,21,308,35,-1,21,35,28,-1,28,35,34,-1,309,308,310,-1,310,308,16,-1,310,16,311,-1,311,16,279,-1,311,279,312,-1,312,279,313,-1,314,315,316,-1,316,315,317,-1,318,319,320,-1,320,319,321,-1,322,323,324,-1,324,323,316,-1,324,316,325,-1,325,316,317,-1,321,326,320,-1,320,326,327,-1,320,327,328,-1,328,329,320,-1,320,329,330,-1,320,330,316,-1,316,330,331,-1,316,331,314,-1,167,332,318,-1,318,332,333,-1,318,333,319,-1,322,334,323,-1,323,334,335,-1,323,335,173,-1,173,335,336,-1,173,336,167,-1,167,336,337,-1,167,337,332,-1,338,339,340,-1,341,342,343,-1,343,342,344,-1,338,340,345,-1,346,347,348,-1,348,349,350,-1,240,351,352,-1,353,354,355,-1,341,356,342,-1,342,356,357,-1,342,357,358,-1,358,357,359,-1,360,361,359,-1,359,361,362,-1,359,362,358,-1,347,363,348,-1,348,363,364,-1,348,364,349,-1,365,366,340,-1,340,366,367,-1,340,367,345,-1,353,368,354,-1,354,368,369,-1,354,369,370,-1,370,369,371,-1,370,371,372,-1,352,373,240,-1,240,373,374,-1,240,374,375,-1,350,376,348,-1,348,376,377,-1,348,377,240,-1,240,377,344,-1,240,344,351,-1,351,344,342,-1,378,379,380,-1,380,379,381,-1,380,381,382,-1,383,384,385,-1,385,384,386,-1,385,386,372,-1,372,386,387,-1,372,387,370,-1,388,389,359,-1,359,389,390,-1,359,390,391,-1,391,392,359,-1,359,392,393,-1,359,393,360,-1,339,394,395,-1,395,394,396,-1,396,394,397,-1,396,397,398,-1,378,383,379,-1,379,383,385,-1,379,385,399,-1,399,385,400,-1,399,400,401,-1,401,400,402,-1,401,402,403,-1,403,402,404,-1,405,404,395,-1,395,404,402,-1,395,402,339,-1,339,402,400,-1,339,400,340,-1,405,395,1,-1,1,395,406,-1,1,406,2,-1,407,408,2,-1,409,410,243,-1,411,412,2,-1,2,412,413,-1,375,353,240,-1,240,353,355,-1,240,355,243,-1,243,355,414,-1,243,414,409,-1,410,415,243,-1,243,415,416,-1,243,416,417,-1,417,416,418,-1,417,418,407,-1,419,420,408,-1,408,420,421,-1,408,421,2,-1,2,421,422,-1,2,422,411,-1,413,423,2,-1,2,423,424,-1,2,424,0,-1,425,426,427,-1,427,426,428,-1,427,428,429,-1,427,430,425,-1,425,430,431,-1,425,431,432,-1,432,433,425,-1,425,433,434,-1,425,434,435,-1,435,434,436,-1,435,436,437,-1,437,436,438,-1,437,438,408,-1,408,438,439,-1,408,439,419,-1,440,441,429,-1,429,441,442,-1,429,442,427,-1,443,444,382,-1,382,444,445,-1,382,445,380,-1,443,446,444,-1,444,446,447,-1,444,447,448,-1,448,447,449,-1,448,450,451,-1,449,452,448,-1,448,452,453,-1,448,453,454,-1,454,455,448,-1,448,455,456,-1,448,456,450,-1,451,457,448,-1,448,457,458,-1,448,458,459,-1,460,461,462,-1,463,464,465,-1,462,466,460,-1,460,466,467,-1,460,467,468,-1,468,467,463,-1,468,463,469,-1,469,463,465,-1,470,471,2,-1,407,2,417,-1,417,2,471,-1,417,471,466,-1,466,471,472,-1,466,472,467,-1,473,474,470,-1,475,476,477,-1,477,476,478,-1,477,478,473,-1,473,470,477,-1,477,470,2,-1,477,2,479,-1,479,2,406,-1,479,406,480,-1,479,481,477,-1,477,481,482,-1,477,482,483,-1,484,485,486,-1,486,485,487,-1,486,487,406,-1,406,487,488,-1,406,488,480,-1,483,489,477,-1,477,489,490,-1,477,490,475,-1,491,492,493,-1,491,493,494,-1,492,495,493,-1,493,495,496,-1,493,496,486,-1,486,496,497,-1,486,497,484,-1,498,499,500,-1,500,499,501,-1,502,503,504,-1,505,506,507,-1,508,504,509,-1,509,504,510,-1,509,510,511,-1,512,513,508,-1,508,513,514,-1,508,514,504,-1,504,514,515,-1,504,515,502,-1,502,515,516,-1,510,517,511,-1,511,517,505,-1,511,505,518,-1,519,520,521,-1,505,507,522,-1,522,507,521,-1,522,521,503,-1,503,521,520,-1,503,520,523,-1,515,524,525,-1,526,527,518,-1,518,527,528,-1,518,528,529,-1,525,530,515,-1,515,530,531,-1,515,531,516,-1,498,500,523,-1,523,500,532,-1,523,532,503,-1,503,532,533,-1,503,533,504,-1,522,534,505,-1,505,534,535,-1,505,535,518,-1,518,535,536,-1,518,536,526,-1,529,537,518,-1,518,537,538,-1,518,538,515,-1,515,538,539,-1,515,539,524,-1,521,540,519,-1,519,540,541,-1,519,541,542,-1,533,543,504,-1,504,543,544,-1,504,544,545,-1,545,544,546,-1,506,505,546,-1,546,505,462,-1,546,462,545,-1,545,462,461,-1,545,461,494,-1,320,300,318,-1,318,300,297,-1,318,297,167,-1,167,297,299,-1,167,299,168,-1,168,299,217,-1,168,217,183,-1,183,217,218,-1,183,218,188,-1,219,221,228,-1,228,221,291,-1,228,291,14,-1,14,291,293,-1,14,293,16,-1,16,293,547,-1,16,547,282,-1,548,549,316,-1,550,551,552,-1,316,549,320,-1,320,549,553,-1,320,553,554,-1,552,548,550,-1,550,548,316,-1,550,316,555,-1,555,316,556,-1,555,556,554,-1,554,556,244,-1,554,244,320,-1,320,244,246,-1,320,246,300,-1,300,246,305,-1,300,305,301,-1,232,228,231,-1,231,228,557,-1,231,557,558,-1,6,559,5,-1,5,559,560,-1,5,560,561,-1,562,557,561,-1,561,557,228,-1,561,228,5,-1,5,228,14,-1,5,14,7,-1,7,14,13,-1,195,243,187,-1,187,243,417,-1,187,417,175,-1,175,417,466,-1,175,466,173,-1,173,466,462,-1,173,462,323,-1,323,462,505,-1,323,505,316,-1,316,505,517,-1,316,517,556,-1,558,559,231,-1,231,559,6,-1,231,6,563,-1,563,6,70,-1,238,229,235,-1,235,229,231,-1,235,231,240,-1,240,231,563,-1,240,563,348,-1,348,563,564,-1,76,564,565,-1,565,564,566,-1,566,564,567,-1,567,564,563,-1,567,563,568,-1,76,565,70,-1,70,565,569,-1,70,569,563,-1,563,569,570,-1,563,570,568,-1,571,572,573,-1,573,572,567,-1,573,567,574,-1,574,567,568,-1,574,568,575,-1,575,568,576,-1,494,493,545,-1,545,493,577,-1,545,577,504,-1,504,577,578,-1,504,578,510,-1,62,64,76,-1,76,64,579,-1,76,579,564,-1,564,579,396,-1,564,396,348,-1,348,396,398,-1,348,398,346,-1,58,57,64,-1,64,57,580,-1,64,580,579,-1,579,580,581,-1,579,581,396,-1,396,581,582,-1,396,582,395,-1,395,582,583,-1,395,583,406,-1,406,583,584,-1,406,584,486,-1,486,584,585,-1,486,585,493,-1,493,585,586,-1,493,586,577,-1,577,586,587,-1,577,587,578,-1,
        ]
    }
}
Shape{
    appearance Appearance {
        material  Material {
            diffuseColor 0.7529411764705882 0.7529411764705882 0.7529411764705882
            specularColor 0.3764705882352941 0.3764705882352941 0.3764705882352941
            ambientIntensity 0.7529
            transparency 0.0
            shininess 0.5
        }
    }
    geometry IndexedFaceSet {
        ccw TRUE
        solid FALSE
        coord DEF co Coordinate {
            point [
                -2.2244 -0.1339 -1.9685, -2.3819 -0.1339 -1.5748, -2.2244 0.1221 -1.9685, -2.3819 0.1221 -1.5748, -2.0669 0.1221 -1.9685, -2.0669 -0.1339 -1.9685, -2.3819 0.1221 -0.0, -2.5394 0.1221 -0.0, -2.5394 0.1221 1.748, -1.752 0.1221 1.748, -1.752 0.1221 -0.0, -1.9094 0.1221 -0.0, -1.9094 0.1221 -1.5748, -1.9094 -0.1339 -1.5748, -0.0787 -0.1339 -1.9685, -0.2362 -0.1339 -1.5748, -0.0787 0.1221 -1.9685, -0.2362 0.1221 -1.5748, 0.0787 0.1221 -1.9685, 0.0787 -0.1339 -1.9685, -0.2362 0.1221 -0.0, -0.5906 0.1221 -0.0, -0.5906 0.1221 1.748, 0.5906 0.1221 1.748, 0.5906 0.1221 -0.0, 0.2362 0.1221 -0.0, 0.2362 0.1221 -1.5748, 0.2362 -0.1339 -1.5748, 2.0669 -0.1339 -1.9685, 1.9094 -0.1339 -1.5748, 2.0669 0.1221 -1.9685, 1.9094 0.1221 -1.5748, 2.2244 0.1221 -1.9685, 2.2244 -0.1339 -1.9685, 1.9094 0.1221 -0.0, 1.752 0.1221 -0.0, 1.752 0.1221 1.748, 2.5394 0.1221 1.748, 2.5394 0.1221 -0.0, 2.3819 0.1221 -0.0, 2.3819 0.1221 -1.5748, 2.3819 -0.1339 -1.5748
            ]
        }
        coordIndex [
            0,1,2,-1,2,1,3,-1,4,5,2,-1,2,5,0,-1,6,7,8,-1,9,10,11,-1,4,2,12,-1,12,2,3,-1,12,3,11,-1,11,3,6,-1,11,6,9,-1,9,6,8,-1,4,12,5,-1,5,12,13,-1,14,15,16,-1,16,15,17,-1,18,19,16,-1,16,19,14,-1,20,21,22,-1,23,24,25,-1,18,16,26,-1,26,16,17,-1,26,17,25,-1,25,17,20,-1,25,20,23,-1,23,20,22,-1,18,26,19,-1,19,26,27,-1,28,29,30,-1,30,29,31,-1,32,33,30,-1,30,33,28,-1,34,35,36,-1,37,38,39,-1,32,30,40,-1,40,30,31,-1,40,31,39,-1,39,31,34,-1,39,34,37,-1,37,34,36,-1,32,40,33,-1,33,40,41,-1,
        ]
    }
}
Shape{
    appearance Appearance {
        material  Material {
            diffuseColor 0.25098039215686274 0.25098039215686274 0.25098039215686274
            specularColor 0.12549019607843137 0.12549019607843137 0.12549019607843137
            ambientIntensity 0.251
            transparency 0.0
            shininess 0.5
        }
    }
    geometry IndexedFaceSet {
        ccw TRUE
        solid FALSE
        coord DEF co Coordinate {
            point [
                -3.1201 0.2795 8.7598, -3.1201 0.2795 10.0787, -3.002 1.0669 9.9606, -3.1201 0.2795 6.8307, -3.002 1.0669 1.8504, -3.1201 0.2795 1.7323, -3.1201 -0.9016 8.878, -3.1201 -0.9016 9.9606, 3.1201 0.2795 1.7323, 3.002 1.0669 1.8504, 3.1201 0.2795 6.8307, 3.002 1.0669 9.9606, 3.1201 0.2795 8.7598, 3.1201 0.2795 10.0787, -2.0936 1.0669 9.6976, -2.2835 1.0669 9.6189, 2.6772 1.0669 8.937, 2.6503 1.0669 9.1408, -2.4465 1.0669 9.4938, -2.5717 1.0669 9.3307, -2.6503 1.0669 9.1408, 2.5717 1.0669 9.3307, 2.4465 1.0669 9.4938, 2.2835 1.0669 9.6189, 2.0936 1.0669 9.6976, 1.8898 1.0669 9.7244, -1.8898 1.0669 9.7244, 2.6772 1.0669 3.4252, -2.6772 1.0669 3.4252, -2.6772 1.0669 8.937, -2.1555 0.2795 8.7598, -2.0374 -0.9016 8.878, -2.0374 -0.9016 6.7126, -2.1555 0.2795 6.8307, -3.002 -0.9016 6.7126, -3.002 -0.9016 1.8504, -3.002 -0.9016 2.4413, -3.002 -0.9016 2.4942, -3.002 -0.9016 2.6667, -3.002 -0.9016 2.7059, -3.002 -0.9016 2.8416, -3.002 -0.9016 4.9814, 3.002 -0.9016 2.4413, 3.002 -0.9016 1.8504, 3.002 -0.9016 2.8416, 3.002 -0.9016 2.7059, 3.002 -0.9016 2.6667, 3.002 -0.9016 2.4942, 3.002 -0.9016 4.9814, 3.002 -0.9016 6.7126, 2.1555 0.2795 6.8307, 2.0374 -0.9016 6.7126, 2.0374 -0.9016 8.878, 2.1555 0.2795 8.7598, 3.002 -0.9016 8.878, 3.002 -0.9016 9.9606, -0.7731 -0.9016 9.9606, -0.1775 -0.9016 9.9606, -0.0491 -0.9016 9.9606, -0.0411 -0.9016 9.9606, 0.0718 -0.9016 9.9606, 0.1328 -0.9016 9.9606, 0.1639 -0.9016 9.9606, 0.2377 -0.9016 9.9606, 0.2889 -0.9016 9.9606
            ]
        }
        coordIndex [
            0,1,2,-1,0,2,3,-1,3,2,4,-1,3,4,5,-1,6,7,0,-1,0,7,1,-1,8,9,10,-1,10,9,11,-1,10,11,12,-1,12,11,13,-1,13,11,1,-1,1,11,2,-1,14,15,2,-1,16,17,11,-1,15,18,2,-1,2,18,19,-1,2,19,20,-1,17,21,11,-1,11,21,22,-1,11,22,23,-1,23,24,11,-1,11,24,25,-1,11,25,2,-1,2,25,26,-1,2,26,14,-1,16,11,27,-1,27,11,9,-1,27,9,28,-1,20,29,2,-1,2,29,28,-1,2,28,4,-1,4,28,9,-1,30,31,0,-1,0,31,6,-1,32,31,33,-1,33,31,30,-1,32,33,34,-1,34,33,3,-1,35,36,5,-1,5,36,37,-1,5,37,38,-1,38,39,5,-1,5,39,40,-1,5,40,3,-1,3,40,41,-1,3,41,34,-1,42,43,8,-1,44,45,8,-1,45,46,8,-1,8,46,47,-1,8,47,42,-1,44,8,48,-1,48,8,10,-1,48,10,49,-1,50,51,10,-1,10,51,49,-1,52,51,53,-1,53,51,50,-1,52,53,54,-1,54,53,12,-1,13,55,12,-1,12,55,54,-1,7,56,1,-1,1,56,57,-1,57,58,1,-1,1,58,59,-1,1,59,13,-1,59,60,13,-1,13,60,61,-1,13,61,62,-1,62,63,13,-1,13,63,64,-1,13,64,55,-1,
        ]
    }
}
Shape{
    appearance Appearance {
        material  Material {
            diffuseColor 0.7529411764705882 0.7529411764705882 0.7529411764705882
            specularColor 0.3764705882352941 0.3764705882352941 0.3764705882352941
            ambientIntensity 0.7529
            transparency 0.0
            shininess 0.5
        }
    }
    geometry IndexedFaceSet {
        ccw TRUE
        solid FALSE
        coord DEF co Coordinate {
            point [
                1.437 1.0669 7.7953, 1.437 1.0709 7.7953, 1.4034 1.0669 7.4864, 1.4034 1.0709 7.4864, 1.3042 1.0669 7.1919, 1.3042 1.0709 7.1919, 1.144 1.0669 6.9256, 1.144 1.0709 6.9256, 0.9303 1.0669 6.7, 0.9303 1.0709 6.7, 0.6731 1.0669 6.5257, 0.6731 1.0709 6.5257, 0.3844 1.0669 6.4106, 0.3844 1.0709 6.4106, 0.0778 1.0669 6.3604, 0.0778 1.0709 6.3604, -0.2325 1.0669 6.3772, -0.2325 1.0709 6.3772, -0.5319 1.0669 6.4603, -0.5319 1.0709 6.4603, -0.8064 1.0669 6.6059, -0.8064 1.0709 6.6059, -1.0433 1.0669 6.807, -1.0433 1.0709 6.807, -1.2313 1.0669 7.0544, -1.2313 1.0709 7.0544, -1.3618 1.0669 7.3364, -1.3618 1.0709 7.3364, -1.4286 1.0669 7.6399, -1.4286 1.0709 7.6399, -1.437 1.0669 7.7953, -1.437 1.0709 7.7953, -1.4286 1.0669 7.9506, -1.4286 1.0709 7.9506, -1.3618 1.0669 8.2541, -1.3618 1.0709 8.2541, -1.2313 1.0669 8.5361, -1.2313 1.0709 8.5361, -1.0433 1.0669 8.7835, -1.0433 1.0709 8.7835, -0.8064 1.0669 8.9847, -0.8064 1.0709 8.9847, -0.5319 1.0669 9.1302, -0.5319 1.0709 9.1302, -0.2325 1.0669 9.2134, -0.2325 1.0709 9.2134, 0.0778 1.0669 9.2302, 0.0778 1.0709 9.2302, 0.3844 1.0669 9.1799, 0.3844 1.0709 9.1799, 0.6731 1.0669 9.0649, 0.6731 1.0709 9.0649, 0.9303 1.0669 8.8905, 0.9303 1.0709 8.8905, 1.144 1.0669 8.6649, 1.144 1.0709 8.6649, 1.3042 1.0669 8.3987, 1.3042 1.0709 8.3987, 1.4034 1.0669 8.1042, 1.4034 1.0709 8.1042, -2.6772 1.0709 3.4252, 2.6772 1.0709 3.4252, -2.6772 1.0669 3.4252, 2.6772 1.0669 3.4252, 2.6772 1.0709 8.937, 2.6772 1.0669 8.937, 2.6503 1.0709 9.1408, 2.6503 1.0669 9.1408, 2.5717 1.0709 9.3307, 2.5717 1.0669 9.3307, 2.4465 1.0709 9.4938, 2.4465 1.0669 9.4938, 2.2835 1.0709 9.6189, 2.2835 1.0669 9.6189, 2.0936 1.0709 9.6976, 2.0936 1.0669 9.6976, 1.8898 1.0709 9.7244, 1.8898 1.0669 9.7244, -1.8898 1.0709 9.7244, -1.8898 1.0669 9.7244, -2.0936 1.0709 9.6976, -2.0936 1.0669 9.6976, -2.2835 1.0709 9.6189, -2.2835 1.0669 9.6189, -2.4465 1.0709 9.4938, -2.4465 1.0669 9.4938, -2.5717 1.0709 9.3307, -2.5717 1.0669 9.3307, -2.6503 1.0709 9.1408, -2.6503 1.0669 9.1408, -2.6772 1.0709 8.937, -2.6772 1.0669 8.937
            ]
        }
        coordIndex [
            0,1,2,-1,2,1,3,-1,2,3,4,-1,4,3,5,-1,4,5,6,-1,6,5,7,-1,6,7,8,-1,8,7,9,-1,8,9,10,-1,10,9,11,-1,10,11,12,-1,12,11,13,-1,12,13,14,-1,14,13,15,-1,14,15,16,-1,16,15,17,-1,16,17,18,-1,18,17,19,-1,18,19,20,-1,20,19,21,-1,20,21,22,-1,22,21,23,-1,22,23,24,-1,24,23,25,-1,24,25,26,-1,26,25,27,-1,26,27,28,-1,28,27,29,-1,28,29,30,-1,30,29,31,-1,30,31,32,-1,32,31,33,-1,32,33,34,-1,34,33,35,-1,34,35,36,-1,36,35,37,-1,36,37,38,-1,38,37,39,-1,38,39,40,-1,40,39,41,-1,40,41,42,-1,42,41,43,-1,42,43,44,-1,44,43,45,-1,44,45,46,-1,46,45,47,-1,46,47,48,-1,48,47,49,-1,48,49,50,-1,50,49,51,-1,50,51,52,-1,52,51,53,-1,52,53,54,-1,54,53,55,-1,54,55,56,-1,56,55,57,-1,56,57,58,-1,58,57,59,-1,58,59,0,-1,0,59,1,-1,60,61,62,-1,62,61,63,-1,61,64,63,-1,63,64,65,-1,65,64,66,-1,65,66,67,-1,67,66,68,-1,67,68,69,-1,69,68,70,-1,69,70,71,-1,71,70,72,-1,71,72,73,-1,73,72,74,-1,73,74,75,-1,75,74,76,-1,75,76,77,-1,76,78,77,-1,77,78,79,-1,79,78,80,-1,79,80,81,-1,81,80,82,-1,81,82,83,-1,83,82,84,-1,83,84,85,-1,85,84,86,-1,85,86,87,-1,87,86,88,-1,87,88,89,-1,89,88,90,-1,89,90,91,-1,90,60,91,-1,91,60,62,-1,45,78,47,-1,47,78,76,-1,47,76,49,-1,25,23,60,-1,60,23,21,-1,13,11,61,-1,61,11,9,-1,61,9,7,-1,55,53,76,-1,76,53,51,-1,76,51,49,-1,21,19,60,-1,60,19,17,-1,60,17,61,-1,61,17,15,-1,61,15,13,-1,7,5,61,-1,61,5,3,-1,61,3,64,-1,64,3,1,-1,86,37,88,-1,88,37,35,-1,88,35,90,-1,90,35,33,-1,33,31,90,-1,90,31,29,-1,90,29,60,-1,60,29,27,-1,60,27,25,-1,45,43,78,-1,78,43,41,-1,78,41,80,-1,80,41,39,-1,80,39,82,-1,82,39,37,-1,82,37,84,-1,84,37,86,-1,76,74,55,-1,55,74,72,-1,55,72,70,-1,1,59,64,-1,64,59,57,-1,64,57,66,-1,66,57,55,-1,66,55,68,-1,68,55,70,-1,
        ]
    }
}
Shape{
    appearance Appearance {
        material  Material {
            diffuseColor 0.25098039215686274 0.25098039215686274 0.25098039215686274
            specularColor 0.12549019607843137 0.12549019607843137 0.12549019607843137
            ambientIntensity 0.251
            transparency 0.0
            shininess 0.5
        }
    }
    geometry IndexedFaceSet {
        ccw TRUE
        solid FALSE
        coord DEF co Coordinate {
            point [
                0.1834 1.0669 7.1108, 0.1834 -0.9016 7.1108, 0.2377 -0.9016 7.1332, 0.3543 1.0669 7.1816, 0.0 -0.9016 7.0866, 0.0718 -0.9016 7.0961, 0.0 1.0669 7.0866, 0.1328 -0.9016 7.1041, 0.1639 -0.9016 7.1082, -0.1775 -0.9016 7.11, -0.0491 -0.9016 7.0931, -0.0411 -0.9016 7.092, -0.1834 -0.9016 7.1108, -0.1834 1.0669 7.1108, -0.3543 -0.9016 7.1816, -0.3543 1.0669 7.1816, -0.5011 -0.9016 7.2942, -0.5011 1.0669 7.2942, -0.6137 -0.9016 7.4409, -0.6137 1.0669 7.4409, -0.6845 -0.9016 7.6119, -0.6845 1.0669 7.6119, -0.7087 -0.9016 7.7953, -0.7087 1.0669 7.7953, -0.6845 -0.9016 7.9787, -0.6845 1.0669 7.9787, -0.6137 -0.9016 8.1496, -0.6137 1.0669 8.1496, -0.5011 -0.9016 8.2964, -0.5011 1.0669 8.2964, -0.3543 -0.9016 8.409, -0.3543 1.0669 8.409, -0.1834 -0.9016 8.4798, -0.1834 1.0669 8.4798, -0.1775 -0.9016 8.4806, 0.0 1.0669 8.5039, -0.0411 -0.9016 8.4985, -0.0491 -0.9016 8.4975, 0.1834 1.0669 8.4798, 0.1834 -0.9016 8.4798, 0.1639 -0.9016 8.4824, 0.1328 -0.9016 8.4864, 0.0718 -0.9016 8.4945, 0.0 -0.9016 8.5039, 0.2377 -0.9016 8.4573, 0.3543 1.0669 8.409, 0.2889 -0.9016 8.4361, 0.2889 -0.9016 7.1545, 0.3543 -0.9016 7.1816, 0.5011 1.0669 7.2942, 0.5011 -0.9016 7.2942, 0.6137 1.0669 7.4409, 0.6137 -0.9016 7.4409, 0.6845 1.0669 7.6119, 0.6845 -0.9016 7.6119, 0.7087 1.0669 7.7953, 0.7087 -0.9016 7.7953, 0.6845 1.0669 7.9787, 0.6845 -0.9016 7.9787, 0.6137 1.0669 8.1496, 0.6137 -0.9016 8.1496, 0.5011 1.0669 8.2964, 0.5011 -0.9016 8.2964, 0.3543 -0.9016 8.409, 3.1201 0.2795 8.7598, 2.1555 0.2795 8.7598, 3.1201 0.2795 6.8307, 2.1555 0.2795 6.8307, -3.1201 0.2795 6.8307, -2.1555 0.2795 6.8307, -3.1201 0.2795 8.7598, -2.1555 0.2795 8.7598
            ]
        }
        coordIndex [
            0,1,2,-1,0,2,3,-1,4,5,6,-1,6,5,7,-1,6,7,0,-1,0,7,8,-1,0,8,1,-1,9,10,6,-1,6,10,11,-1,6,11,4,-1,9,6,12,-1,12,6,13,-1,12,13,14,-1,14,13,15,-1,14,15,16,-1,16,15,17,-1,16,17,18,-1,18,17,19,-1,18,19,20,-1,20,19,21,-1,20,21,22,-1,22,21,23,-1,22,23,24,-1,24,23,25,-1,24,25,26,-1,26,25,27,-1,26,27,28,-1,28,27,29,-1,28,29,30,-1,30,29,31,-1,30,31,32,-1,32,31,33,-1,32,33,34,-1,35,36,33,-1,33,36,37,-1,33,37,34,-1,38,39,40,-1,40,41,38,-1,38,41,42,-1,38,42,35,-1,35,42,43,-1,35,43,36,-1,39,38,44,-1,44,38,45,-1,44,45,46,-1,2,47,3,-1,3,47,48,-1,3,48,49,-1,49,48,50,-1,49,50,51,-1,51,50,52,-1,51,52,53,-1,53,52,54,-1,53,54,55,-1,55,54,56,-1,55,56,57,-1,57,56,58,-1,57,58,59,-1,59,58,60,-1,59,60,61,-1,61,60,62,-1,61,62,45,-1,45,62,63,-1,45,63,46,-1,64,65,66,-1,66,65,67,-1,68,69,70,-1,70,69,71,-1,
        ]
    }
}
Shape{
    appearance Appearance {
        material  Material {
            diffuseColor 0.7529411764705882 0.7529411764705882 0.7529411764705882
            specularColor 0.3764705882352941 0.3764705882352941 0.3764705882352941
            ambientIntensity 0.7529
            transparency 0.0
            shininess 0.5
        }
    }
    geometry IndexedFaceSet {
        ccw TRUE
        solid FALSE
        coord DEF co Coordinate {
            point [
                1.9094 -0.1339 -0.0, 1.9094 0.1221 -0.0, 1.9094 -0.1339 -1.5748, 1.9094 0.1221 -1.5748, 2.3819 0.1221 -0.0, 2.3819 -0.1339 -0.0, 2.3819 0.1221 -1.5748, 2.3819 -0.1339 -1.5748, -0.2362 -0.1339 -0.0, -0.2362 0.1221 -0.0, -0.2362 -0.1339 -1.5748, -0.2362 0.1221 -1.5748, 0.2362 0.1221 -0.0, 0.2362 -0.1339 -0.0, 0.2362 0.1221 -1.5748, 0.2362 -0.1339 -1.5748, -1.9094 0.1221 -0.0, -1.9094 -0.1339 -0.0, -1.9094 0.1221 -1.5748, -1.9094 -0.1339 -1.5748, -2.3819 -0.1339 -0.0, -2.3819 0.1221 -0.0, -2.3819 -0.1339 -1.5748, -2.3819 0.1221 -1.5748, 1.752 -0.1339 -0.0, 1.752 0.1221 -0.0, 2.5394 0.1221 -0.0, 2.5394 -0.1339 -0.0, 0.5906 0.1221 -0.0, 0.5906 -0.1339 -0.0, -1.752 0.1221 -0.0, -1.752 -0.1339 -0.0, -2.5394 -0.1339 -0.0, -2.5394 0.1221 -0.0
            ]
        }
        coordIndex [
            0,1,2,-1,2,1,3,-1,4,5,6,-1,6,5,7,-1,8,9,10,-1,10,9,11,-1,12,13,14,-1,14,13,15,-1,16,17,18,-1,18,17,19,-1,20,21,22,-1,22,21,23,-1,24,25,0,-1,0,25,1,-1,26,27,4,-1,4,27,5,-1,28,29,12,-1,12,29,13,-1,30,31,16,-1,16,31,17,-1,32,33,20,-1,20,33,21,-1,
        ]
    }
}
Shape{
    appearance Appearance {
        material  Material {
            diffuseColor 0.25098039215686274 0.25098039215686274 0.25098039215686274
            specularColor 0.12549019607843137 0.12549019607843137 0.12549019607843137
            ambientIntensity 0.251
            transparency 0.0
            shininess 0.5
        }
    }
    geometry IndexedFaceSet {
        ccw TRUE
        solid FALSE
        coord DEF co Coordinate {
            point [
                -0.5906 0.1221 1.748, -0.5906 -0.1339 1.7736, -1.752 -0.1339 1.7736, 3.1201 0.2795 1.7323, -1.752 0.1221 1.748, -3.1201 0.2795 1.7323, -2.5394 0.1221 1.748, -3.002 -0.9016 1.8504, -2.5394 -0.1339 1.7736, 3.002 -0.9016 1.8504, 0.2889 -0.9016 1.8504, 0.5906 -0.1339 1.7736, 0.2377 -0.9016 1.8504, 0.1639 -0.9016 1.8504, 0.5906 0.1221 1.748, 1.752 0.1221 1.748, 1.752 -0.1339 1.7736, 2.5394 -0.1339 1.7736, 2.5394 0.1221 1.748, 0.1328 -0.9016 1.8504, 0.0718 -0.9016 1.8504, -0.0411 -0.9016 1.8504, -0.0491 -0.9016 1.8504, -0.1775 -0.9016 1.8504, -0.7731 -0.9016 1.8504, 3.002 1.0669 1.8504, -3.002 1.0669 1.8504
            ]
        }
        coordIndex [
            0,1,2,-1,3,4,5,-1,5,4,6,-1,5,6,7,-1,7,6,8,-1,9,10,11,-1,11,10,12,-1,11,12,13,-1,2,4,0,-1,0,4,3,-1,0,3,14,-1,14,3,15,-1,14,15,11,-1,11,15,16,-1,11,16,9,-1,9,16,17,-1,9,17,3,-1,3,17,18,-1,3,18,15,-1,13,19,11,-1,11,19,20,-1,11,20,1,-1,20,21,1,-1,1,21,22,-1,1,22,23,-1,8,2,7,-1,7,2,1,-1,7,1,24,-1,24,1,23,-1,25,3,26,-1,26,3,5,-1,
        ]
    }
}
Shape{
    appearance Appearance {
        material  Material {
            diffuseColor 0.7529411764705882 0.7529411764705882 0.7529411764705882
            specularColor 0.3764705882352941 0.3764705882352941 0.3764705882352941
            ambientIntensity 0.7529
            transparency 0.0
            shininess 0.5
        }
    }
    geometry IndexedFaceSet {
        ccw TRUE
        solid FALSE
        coord DEF co Coordinate {
            point [
                0.5906 -0.1339 -0.0, 0.5906 0.1221 -0.0, 0.5906 -0.1339 1.7736, 0.5906 0.1221 1.748, 0.2362 -0.1339 -0.0, -0.5906 -0.1339 1.7736, -0.5906 -0.1339 -0.0, -0.2362 -0.1339 -0.0, -0.0787 -0.1339 -1.9685, 0.0787 -0.1339 -1.9685, -0.2362 -0.1339 -1.5748, 0.2362 -0.1339 -1.5748, 1.752 0.1221 -0.0, 1.752 -0.1339 -0.0, 1.752 0.1221 1.748, 1.752 -0.1339 1.7736, -2.5394 0.1221 -0.0, -2.5394 -0.1339 -0.0, -2.5394 0.1221 1.748, -2.5394 -0.1339 1.7736, -0.5906 0.1221 -0.0, -0.5906 0.1221 1.748, -0.2362 0.1221 -0.0, 2.5394 -0.1339 -0.0, 2.5394 0.1221 -0.0, 2.5394 -0.1339 1.7736, 2.5394 0.1221 1.748, 2.3819 -0.1339 -0.0, 1.9094 -0.1339 -0.0, 2.0669 -0.1339 -1.9685, 2.2244 -0.1339 -1.9685, 1.9094 -0.1339 -1.5748, 2.3819 -0.1339 -1.5748, -1.752 -0.1339 -0.0, -1.752 0.1221 -0.0, -1.752 -0.1339 1.7736, -1.752 0.1221 1.748, -1.9094 -0.1339 -0.0, -2.3819 -0.1339 -0.0, -2.2244 -0.1339 -1.9685, -2.0669 -0.1339 -1.9685, -2.3819 -0.1339 -1.5748, -1.9094 -0.1339 -1.5748, -1.4286 1.0669 7.6399, -0.7087 1.0669 7.7953, -0.6845 1.0669 7.6119, -0.1834 1.0669 7.1108, -0.5319 1.0669 6.4603, -0.3543 1.0669 7.1816, -0.8064 1.0669 6.6059, -0.5011 1.0669 7.2942, -1.0433 1.0669 6.807, -0.6137 1.0669 7.4409, -1.2313 1.0669 7.0544, -1.3618 1.0669 7.3364, -0.3543 1.0669 8.409, -0.5319 1.0669 9.1302, -0.1834 1.0669 8.4798, -0.2325 1.0669 9.2134, 0.0 1.0669 8.5039, 0.0778 1.0669 9.2302, 0.1834 1.0669 8.4798, 0.3844 1.0669 9.1799, 0.3543 1.0669 8.409, 0.6731 1.0669 9.0649, 0.5011 1.0669 8.2964, -1.437 1.0669 7.7953, -1.4286 1.0669 7.9506, -0.6845 1.0669 7.9787, -1.3618 1.0669 8.2541, -0.6137 1.0669 8.1496, -1.2313 1.0669 8.5361, -0.5011 1.0669 8.2964, -1.0433 1.0669 8.7835, -0.8064 1.0669 8.9847, 0.6137 1.0669 7.4409, 1.144 1.0669 6.9256, 0.5011 1.0669 7.2942, 0.9303 1.0669 6.7, 0.3543 1.0669 7.1816, 0.6731 1.0669 6.5257, 0.1834 1.0669 7.1108, 0.3844 1.0669 6.4106, 0.0 1.0669 7.0866, 0.0778 1.0669 6.3604, -0.2325 1.0669 6.3772, 0.9303 1.0669 8.8905, 1.144 1.0669 8.6649, 0.6137 1.0669 8.1496, 1.3042 1.0669 8.3987, 0.6845 1.0669 7.9787, 1.4034 1.0669 8.1042, 0.7087 1.0669 7.7953, 1.437 1.0669 7.7953, 0.6845 1.0669 7.6119, 1.4034 1.0669 7.4864, 1.3042 1.0669 7.1919
            ]
        }
        coordIndex [
            0,1,2,-1,2,1,3,-1,4,0,2,-1,5,6,7,-1,8,9,10,-1,10,9,11,-1,10,11,7,-1,7,11,4,-1,7,4,5,-1,5,4,2,-1,12,13,14,-1,14,13,15,-1,16,17,18,-1,18,17,19,-1,20,6,21,-1,21,6,5,-1,6,20,7,-1,7,20,22,-1,23,24,25,-1,25,24,26,-1,27,23,25,-1,15,13,28,-1,29,30,31,-1,31,30,32,-1,31,32,28,-1,28,32,27,-1,28,27,15,-1,15,27,25,-1,33,34,35,-1,35,34,36,-1,37,33,35,-1,19,17,38,-1,39,40,41,-1,41,40,42,-1,41,42,38,-1,38,42,37,-1,38,37,19,-1,19,37,35,-1,43,44,45,-1,46,47,48,-1,48,47,49,-1,48,49,50,-1,50,49,51,-1,50,51,52,-1,52,51,53,-1,52,53,45,-1,45,53,54,-1,45,54,43,-1,55,56,57,-1,57,56,58,-1,57,58,59,-1,59,58,60,-1,59,60,61,-1,61,60,62,-1,61,62,63,-1,63,62,64,-1,63,64,65,-1,43,66,44,-1,44,66,67,-1,44,67,68,-1,68,67,69,-1,68,69,70,-1,70,69,71,-1,70,71,72,-1,72,71,73,-1,72,73,55,-1,55,73,74,-1,55,74,56,-1,75,76,77,-1,77,76,78,-1,77,78,79,-1,79,78,80,-1,79,80,81,-1,81,80,82,-1,81,82,83,-1,83,82,84,-1,83,84,46,-1,46,84,85,-1,46,85,47,-1,64,86,65,-1,65,86,87,-1,65,87,88,-1,88,87,89,-1,88,89,90,-1,90,89,91,-1,90,91,92,-1,92,91,93,-1,92,93,94,-1,94,93,95,-1,94,95,75,-1,75,95,96,-1,75,96,76,-1,
        ]
    }
}
Shape{
    appearance Appearance {
        material  Material {
            diffuseColor 1.0 1.0 1.0
            specularColor 0.5019607843137255 0.5019607843137255 0.5019607843137255
            ambientIntensity 1.0
            transparency 0.0
            shininess 0.5
        }
    }
    geometry IndexedFaceSet {
        ccw TRUE
        solid FALSE
        coord DEF co Coordinate {
            point [
                -0.0525 -0.9055 2.7222, -0.0525 -0.9055 2.707, -0.0525 -0.9016 2.7222, -0.0525 -0.9016 2.707, -0.1057 -0.9055 2.7222, -0.1057 -0.9016 2.7222, -0.1057 -0.9055 2.8404, -0.1057 -0.9016 2.8404, -0.1229 -0.9055 2.8404, -0.1229 -0.9016 2.8404, -0.1229 -0.9055 2.707, -0.1229 -0.9016 2.707, 0.0159 -0.9055 2.7047, 0.0159 -0.9016 2.7047, 0.0367 -0.9055 2.7068, 0.0274 -0.9016 2.7059, 0.0367 -0.9016 2.7068, 0.0509 -0.9016 2.7116, 0.0509 -0.9055 2.7116, 0.0528 -0.9016 2.7125, 0.0528 -0.9055 2.7125, 0.0528 -0.9055 2.729, 0.0528 -0.9016 2.729, 0.0392 -0.9016 2.723, 0.0392 -0.9055 2.723, 0.024 -0.9016 2.7203, 0.024 -0.9055 2.7203, 0.0184 -0.9016 2.7201, 0.0184 -0.9055 2.7201, 0.0059 -0.9016 2.7215, 0.0059 -0.9055 2.7215, -0.0037 -0.9016 2.725, -0.0037 -0.9055 2.725, -0.0126 -0.9016 2.731, -0.0126 -0.9055 2.731, -0.0159 -0.9016 2.7342, -0.0159 -0.9055 2.7342, -0.0227 -0.9016 2.7437, -0.0227 -0.9055 2.7437, -0.0269 -0.9016 2.7546, -0.0269 -0.9055 2.7546, -0.029 -0.9016 2.771, -0.029 -0.9055 2.771, -0.029 -0.9016 2.7722, -0.029 -0.9055 2.7722, -0.027 -0.9016 2.7898, -0.027 -0.9055 2.7898, -0.0226 -0.9016 2.8015, -0.0226 -0.9055 2.8015, -0.0163 -0.9016 2.8109, -0.0163 -0.9055 2.8109, -0.015 -0.9016 2.8123, -0.015 -0.9055 2.8123, -0.0064 -0.9016 2.8195, -0.0064 -0.9055 2.8195, 0.004 -0.9016 2.8245, 0.004 -0.9055 2.8245, 0.0155 -0.9016 2.8269, 0.0155 -0.9055 2.8269, 0.0214 -0.9016 2.8271, 0.0214 -0.9055 2.8271, 0.038 -0.9016 2.8251, 0.038 -0.9055 2.8251, 0.0528 -0.9016 2.8192, 0.0528 -0.9055 2.8192, 0.0528 -0.9055 2.8372, 0.0528 -0.9016 2.8372, 0.0212 -0.9016 2.8427, 0.0212 -0.9055 2.8427, 0.0225 -0.9055 2.8427, 0.0397 -0.9016 2.8411, 0.0397 -0.9055 2.8411, 0.0349 -0.9016 2.8416, 0.0225 -0.9016 2.8427, 0.0033 -0.9055 2.8407, 0.0112 -0.9016 2.8416, 0.0033 -0.9016 2.8407, -0.0109 -0.9016 2.8355, -0.0109 -0.9055 2.8355, -0.024 -0.9016 2.8266, -0.024 -0.9055 2.8266, -0.0278 -0.9016 2.8231, -0.0278 -0.9055 2.8231, -0.0375 -0.9016 2.8103, -0.0411 -0.9016 2.8019, -0.0438 -0.9055 2.7955, -0.0375 -0.9055 2.8103, -0.0438 -0.9016 2.7955, -0.0468 -0.9016 2.778, -0.0468 -0.9055 2.778, -0.0471 -0.9016 2.7712, -0.0471 -0.9055 2.7712, -0.045 -0.9016 2.7519, -0.0411 -0.9016 2.7407, -0.04 -0.9055 2.7375, -0.045 -0.9055 2.7519, -0.04 -0.9016 2.7375, -0.0324 -0.9016 2.7257, -0.0324 -0.9055 2.7257, -0.0299 -0.9016 2.723, -0.0299 -0.9055 2.723, -0.0073 -0.9016 2.7084, -0.0198 -0.9055 2.7145, -0.0198 -0.9016 2.7145, 0.004 -0.9016 2.7059, 0.007 -0.9055 2.7052, -0.0073 -0.9055 2.7084, 0.007 -0.9016 2.7052, 0.1513 -0.9055 2.7222, 0.1513 -0.9055 2.707, 0.1513 -0.9016 2.7222, 0.1513 -0.9016 2.707, 0.0968 -0.9016 2.7222, 0.0968 -0.9055 2.7222, 0.1328 -0.9016 2.7222, 0.0968 -0.9055 2.7671, 0.0968 -0.9016 2.7671, 0.1445 -0.9055 2.7671, 0.1328 -0.9016 2.7671, 0.1445 -0.9016 2.7671, 0.1445 -0.9055 2.7824, 0.1445 -0.9016 2.7824, 0.0968 -0.9016 2.7824, 0.0968 -0.9055 2.7824, 0.1328 -0.9016 2.7824, 0.0968 -0.9055 2.8251, 0.0968 -0.9016 2.8251, 0.1483 -0.9016 2.8251, 0.1483 -0.9055 2.8251, 0.1328 -0.9016 2.8251, 0.1483 -0.9055 2.8404, 0.1483 -0.9016 2.8404, 0.0796 -0.9016 2.8404, 0.0796 -0.9055 2.8404, 0.1328 -0.9016 2.8404, 0.0796 -0.9055 2.707, 0.0796 -0.9016 2.707, 0.1328 -0.9016 2.707, 0.2508 -0.9055 2.7343, 0.2619 -0.9055 2.723, 0.2528 -0.9055 2.7361, 0.2651 -0.9055 2.7257, 0.2598 -0.9055 2.7449, 0.2752 -0.9055 2.7378, 0.2643 -0.9055 2.7549, 0.2817 -0.9055 2.7517, 0.2667 -0.9055 2.7674, 0.2848 -0.9055 2.7674, 0.2671 -0.9055 2.775, 0.2852 -0.9055 2.7754, 0.2651 -0.9055 2.7918, 0.2832 -0.9055 2.793, 0.2613 -0.9055 2.8015, 0.2784 -0.9055 2.8059, 0.2561 -0.9055 2.8089, 0.2703 -0.9055 2.8176, 0.2524 -0.9055 2.8125, 0.2651 -0.9055 2.8228, 0.2422 -0.9055 2.8193, 0.2514 -0.9055 2.8322, 0.2305 -0.9055 2.8233, 0.2353 -0.9055 2.8381, 0.2139 -0.9055 2.8251, 0.2146 -0.9055 2.8404, 0.1938 -0.9055 2.8251, 0.1765 -0.9055 2.8404, 0.1938 -0.9055 2.7222, 0.1765 -0.9055 2.707, 0.2131 -0.9055 2.7222, 0.2132 -0.9055 2.707, 0.2309 -0.9055 2.7242, 0.2329 -0.9055 2.709, 0.2421 -0.9055 2.7284, 0.2487 -0.9055 2.7145, 0.2132 -0.9016 2.707, 0.1765 -0.9016 2.707, 0.2329 -0.9016 2.709, 0.2377 -0.9016 2.7107, 0.2487 -0.9016 2.7145, 0.2619 -0.9016 2.723, 0.2651 -0.9016 2.7257, 0.2752 -0.9016 2.7378, 0.2817 -0.9016 2.7517, 0.2848 -0.9016 2.7674, 0.2852 -0.9016 2.7754, 0.2832 -0.9016 2.793, 0.2784 -0.9016 2.8059, 0.2703 -0.9016 2.8176, 0.2651 -0.9016 2.8228, 0.2514 -0.9016 2.8322, 0.2377 -0.9016 2.8373, 0.2353 -0.9016 2.8381, 0.2146 -0.9016 2.8404, 0.1765 -0.9016 2.8404, 0.2139 -0.9016 2.8251, 0.1938 -0.9016 2.8251, 0.1938 -0.9016 2.7222, 0.2131 -0.9016 2.7222, 0.2528 -0.9016 2.7361, 0.2508 -0.9016 2.7343, 0.2421 -0.9016 2.7284, 0.2309 -0.9016 2.7242, 0.2671 -0.9016 2.775, 0.2667 -0.9016 2.7674, 0.2643 -0.9016 2.7549, 0.2598 -0.9016 2.7449, 0.2524 -0.9016 2.8125, 0.2561 -0.9016 2.8089, 0.2613 -0.9016 2.8015, 0.2651 -0.9016 2.7918, 0.2305 -0.9016 2.8233, 0.2422 -0.9016 2.8193
            ]
        }
        coordIndex [
            0,1,2,-1,2,1,3,-1,4,0,5,-1,5,0,2,-1,6,4,7,-1,7,4,5,-1,8,6,9,-1,9,6,7,-1,10,8,11,-1,11,8,9,-1,1,10,3,-1,3,10,11,-1,6,8,4,-1,4,8,10,-1,4,10,0,-1,0,10,1,-1,12,13,14,-1,14,13,15,-1,15,16,14,-1,14,16,17,-1,14,17,18,-1,18,17,19,-1,18,19,20,-1,21,20,22,-1,22,20,19,-1,21,22,23,-1,21,23,24,-1,24,23,25,-1,24,25,26,-1,26,25,27,-1,26,27,28,-1,28,27,29,-1,28,29,30,-1,30,29,31,-1,30,31,32,-1,32,31,33,-1,32,33,34,-1,34,33,35,-1,34,35,36,-1,36,35,37,-1,36,37,38,-1,38,37,39,-1,38,39,40,-1,40,39,41,-1,40,41,42,-1,42,41,43,-1,42,43,44,-1,44,43,45,-1,44,45,46,-1,46,45,47,-1,46,47,48,-1,48,47,49,-1,48,49,50,-1,50,49,51,-1,50,51,52,-1,52,51,53,-1,52,53,54,-1,54,53,55,-1,54,55,56,-1,56,55,57,-1,56,57,58,-1,58,57,59,-1,58,59,60,-1,60,59,61,-1,60,61,62,-1,62,61,63,-1,62,63,64,-1,65,64,66,-1,66,64,63,-1,67,68,69,-1,65,66,70,-1,65,70,71,-1,71,70,72,-1,71,72,69,-1,69,72,73,-1,69,73,67,-1,68,67,74,-1,74,67,75,-1,75,76,74,-1,74,76,77,-1,74,77,78,-1,78,77,79,-1,78,79,80,-1,80,79,81,-1,80,81,82,-1,82,81,83,-1,84,85,83,-1,83,85,86,-1,83,86,82,-1,84,87,85,-1,85,87,88,-1,85,88,89,-1,89,88,90,-1,89,90,91,-1,91,90,92,-1,93,94,92,-1,92,94,95,-1,92,95,91,-1,93,96,94,-1,94,96,97,-1,94,97,98,-1,98,97,99,-1,98,99,100,-1,101,102,103,-1,103,102,100,-1,103,100,99,-1,104,105,101,-1,101,105,106,-1,101,106,102,-1,104,107,105,-1,105,107,13,-1,105,13,12,-1,38,40,95,-1,64,65,62,-1,62,65,71,-1,62,71,60,-1,60,71,69,-1,60,69,58,-1,58,69,68,-1,58,68,56,-1,56,68,74,-1,56,74,54,-1,95,40,91,-1,82,52,80,-1,80,52,54,-1,80,54,78,-1,78,54,74,-1,20,21,18,-1,18,21,24,-1,18,24,14,-1,14,24,12,-1,40,42,91,-1,91,42,44,-1,91,44,89,-1,89,44,46,-1,89,46,85,-1,85,46,86,-1,86,46,48,-1,86,48,82,-1,82,48,50,-1,82,50,52,-1,95,94,38,-1,38,94,98,-1,38,98,36,-1,36,98,100,-1,36,100,34,-1,34,100,102,-1,34,102,32,-1,32,102,106,-1,32,106,30,-1,30,106,105,-1,30,105,28,-1,28,105,12,-1,28,12,26,-1,26,12,24,-1,108,109,110,-1,110,109,111,-1,112,113,114,-1,114,113,108,-1,114,108,110,-1,115,113,116,-1,116,113,112,-1,115,116,117,-1,117,116,118,-1,117,118,119,-1,120,117,121,-1,121,117,119,-1,122,123,124,-1,124,123,120,-1,124,120,121,-1,125,123,126,-1,126,123,122,-1,127,128,129,-1,129,128,125,-1,129,125,126,-1,130,128,131,-1,131,128,127,-1,132,133,134,-1,134,133,130,-1,134,130,131,-1,135,133,136,-1,136,133,132,-1,111,109,137,-1,137,109,135,-1,137,135,136,-1,135,109,108,-1,108,113,135,-1,135,113,115,-1,135,115,133,-1,128,130,125,-1,125,130,133,-1,125,133,123,-1,123,133,115,-1,123,115,120,-1,120,115,117,-1,138,139,140,-1,140,139,141,-1,140,141,142,-1,142,141,143,-1,142,143,144,-1,144,143,145,-1,144,145,146,-1,146,145,147,-1,146,147,148,-1,148,147,149,-1,148,149,150,-1,150,149,151,-1,150,151,152,-1,152,151,153,-1,152,153,154,-1,154,153,155,-1,154,155,156,-1,156,155,157,-1,156,157,158,-1,158,157,159,-1,158,159,160,-1,160,159,161,-1,160,161,162,-1,162,161,163,-1,162,163,164,-1,164,163,165,-1,164,165,166,-1,166,165,167,-1,166,167,168,-1,168,167,169,-1,168,169,170,-1,170,169,171,-1,170,171,172,-1,172,171,173,-1,172,173,138,-1,138,173,139,-1,169,167,174,-1,174,167,175,-1,169,174,176,-1,169,176,171,-1,171,176,177,-1,171,177,173,-1,177,178,173,-1,173,178,179,-1,173,179,139,-1,139,179,180,-1,139,180,141,-1,141,180,181,-1,141,181,143,-1,143,181,182,-1,143,182,145,-1,145,182,183,-1,145,183,147,-1,147,183,184,-1,147,184,149,-1,149,184,185,-1,149,185,151,-1,151,185,186,-1,151,186,153,-1,153,186,187,-1,153,187,155,-1,155,187,188,-1,155,188,157,-1,157,188,189,-1,190,161,189,-1,189,161,159,-1,189,159,157,-1,190,191,161,-1,161,191,192,-1,161,192,163,-1,165,163,193,-1,193,163,192,-1,167,165,175,-1,175,165,193,-1,162,164,194,-1,194,164,195,-1,164,166,195,-1,195,166,196,-1,166,168,196,-1,196,168,197,-1,140,198,199,-1,140,199,138,-1,138,199,200,-1,138,200,172,-1,172,200,201,-1,172,201,170,-1,170,201,197,-1,170,197,168,-1,148,202,203,-1,148,203,146,-1,146,203,204,-1,146,204,144,-1,144,204,205,-1,144,205,142,-1,142,205,198,-1,142,198,140,-1,156,206,207,-1,156,207,154,-1,154,207,208,-1,154,208,152,-1,152,208,209,-1,152,209,150,-1,150,209,202,-1,150,202,148,-1,162,194,210,-1,162,210,160,-1,160,210,211,-1,160,211,158,-1,158,211,206,-1,158,206,156,-1,
        ]
    }
}
Shape{
    appearance Appearance {
        material  Material {
            diffuseColor 0.25098039215686274 0.25098039215686274 0.25098039215686274
            specularColor 0.12549019607843137 0.12549019607843137 0.12549019607843137
            ambientIntensity 0.251
            transparency 0.0
            shininess 0.5
        }
    }
    geometry IndexedFaceSet {
        ccw TRUE
        solid FALSE
        coord DEF co Coordinate {
            point [
                0.1938 -0.9016 2.8251, 0.1938 -0.9016 2.7222, 0.2139 -0.9016 2.8251, 0.2131 -0.9016 2.7222, 0.2508 -0.9016 2.7343, 0.2528 -0.9016 2.7361, 0.2309 -0.9016 2.7242, 0.2421 -0.9016 2.7284, 0.2598 -0.9016 2.7449, 0.2643 -0.9016 2.7549, 0.2667 -0.9016 2.7674, 0.2671 -0.9016 2.775, 0.2651 -0.9016 2.7918, 0.2613 -0.9016 2.8015, 0.2561 -0.9016 2.8089, 0.2524 -0.9016 2.8125, 0.2305 -0.9016 2.8233, 0.2422 -0.9016 2.8193
            ]
        }
        coordIndex [
            0,1,2,-1,2,1,3,-1,2,4,5,-1,3,6,2,-1,2,6,7,-1,2,7,4,-1,5,8,2,-1,2,8,9,-1,2,9,10,-1,10,11,2,-1,2,11,12,-1,2,12,13,-1,13,14,2,-1,2,14,15,-1,2,15,16,-1,16,15,17,-1,
        ]
    }
}
Shape{
    appearance Appearance {
        material  Material {
            diffuseColor 1.0 1.0 1.0
            specularColor 0.5019607843137255 0.5019607843137255 0.5019607843137255
            ambientIntensity 1.0
            transparency 0.0
            shininess 0.5
        }
    }
    geometry IndexedFaceSet {
        ccw TRUE
        solid FALSE
        coord DEF co Coordinate {
            point [
                0.3299 -0.9055 2.7586, 0.3245 -0.9055 2.7435, 0.3747 -0.9055 2.7586, 0.38 -0.9055 2.7435, 0.3499 -0.9055 2.814, 0.3434 -0.9055 2.8404, 0.2926 -0.9055 2.707, 0.3116 -0.9055 2.707, 0.351 -0.9055 2.818, 0.3521 -0.9055 2.8234, 0.3618 -0.9055 2.8404, 0.3525 -0.9055 2.8234, 0.3535 -0.9055 2.8177, 0.3545 -0.9055 2.814, 0.4127 -0.9055 2.707, 0.3936 -0.9055 2.707, 0.3618 -0.9016 2.8404, 0.4127 -0.9016 2.707, 0.3434 -0.9016 2.8404, 0.2926 -0.9016 2.707, 0.3116 -0.9016 2.707, 0.3245 -0.9016 2.7435, 0.38 -0.9016 2.7435, 0.3936 -0.9016 2.707, 0.3299 -0.9016 2.7586, 0.3747 -0.9016 2.7586, 0.3545 -0.9016 2.814, 0.3525 -0.9016 2.8234, 0.3535 -0.9016 2.8177, 0.3521 -0.9016 2.8234, 0.3499 -0.9016 2.814, 0.351 -0.9016 2.818
            ]
        }
        coordIndex [
            0,1,2,-1,2,1,3,-1,4,5,0,-1,0,5,6,-1,0,6,1,-1,1,6,7,-1,4,8,5,-1,5,8,9,-1,5,9,10,-1,10,9,11,-1,10,11,12,-1,12,13,10,-1,10,13,2,-1,10,2,14,-1,14,2,3,-1,14,3,15,-1,10,14,16,-1,16,14,17,-1,5,10,18,-1,18,10,16,-1,6,5,19,-1,19,5,18,-1,7,6,20,-1,20,6,19,-1,1,7,21,-1,21,7,20,-1,3,1,22,-1,22,1,21,-1,15,3,23,-1,23,3,22,-1,14,15,17,-1,17,15,23,-1,0,2,24,-1,24,2,25,-1,2,13,25,-1,25,13,26,-1,11,27,28,-1,11,28,12,-1,12,28,26,-1,12,26,13,-1,11,9,27,-1,27,9,29,-1,4,30,31,-1,4,31,8,-1,8,31,29,-1,8,29,9,-1,4,0,30,-1,30,0,24,-1,
        ]
    }
}
Shape{
    appearance Appearance {
        material  Material {
            diffuseColor 0.25098039215686274 0.25098039215686274 0.25098039215686274
            specularColor 0.12549019607843137 0.12549019607843137 0.12549019607843137
            ambientIntensity 0.251
            transparency 0.0
            shininess 0.5
        }
    }
    geometry IndexedFaceSet {
        ccw TRUE
        solid FALSE
        coord DEF co Coordinate {
            point [
                0.3525 -0.9016 2.8234, 0.3521 -0.9016 2.8234, 0.3535 -0.9016 2.8177, 0.351 -0.9016 2.818, 0.3545 -0.9016 2.814, 0.3499 -0.9016 2.814, 0.3747 -0.9016 2.7586, 0.3299 -0.9016 2.7586
            ]
        }
        coordIndex [
            0,1,2,-1,2,1,3,-1,2,3,4,-1,4,3,5,-1,4,5,6,-1,6,5,7,-1,
        ]
    }
}
Shape{
    appearance Appearance {
        material  Material {
            diffuseColor 1.0 1.0 1.0
            specularColor 0.5019607843137255 0.5019607843137255 0.5019607843137255
            ambientIntensity 1.0
            transparency 0.0
            shininess 0.5
        }
    }
    geometry IndexedFaceSet {
        ccw TRUE
        solid FALSE
        coord DEF co Coordinate {
            point [
                -0.0511 -0.9055 2.5105, -0.0511 -0.9055 2.4953, -0.0511 -0.9016 2.5105, -0.0511 -0.9016 2.4953, -0.1057 -0.9055 2.5105, -0.1057 -0.9016 2.5105, -0.1057 -0.9055 2.5554, -0.1057 -0.9016 2.5554, -0.0579 -0.9055 2.5554, -0.0579 -0.9016 2.5554, -0.0579 -0.9055 2.5707, -0.0579 -0.9016 2.5707, -0.1057 -0.9055 2.5707, -0.1057 -0.9016 2.5707, -0.1057 -0.9055 2.6134, -0.1057 -0.9016 2.6134, -0.0542 -0.9055 2.6134, -0.0542 -0.9016 2.6134, -0.0542 -0.9055 2.6287, -0.0542 -0.9016 2.6287, -0.1229 -0.9055 2.6287, -0.1229 -0.9016 2.6287, -0.1229 -0.9055 2.4953, -0.1229 -0.9016 2.4953, -0.016 -0.9055 2.5489, -0.0111 -0.9055 2.5362, -0.0069 -0.9055 2.5381, 0.0243 -0.9055 2.51, 0.0247 -0.9055 2.51, 0.0236 -0.9055 2.5254, 0.0247 -0.9055 2.5329, 0.0415 -0.9055 2.5566, 0.0247 -0.9055 2.534, 0.0247 -0.9055 2.5431, 0.0247 -0.9055 2.4953, 0.0415 -0.9055 2.4953, -0.0035 -0.9055 2.5519, 0.0024 -0.9055 2.5401, 0.0247 -0.9055 2.5559, 0.0242 -0.9055 2.5633, 0.0402 -0.9055 2.5693, 0.0224 -0.9055 2.5692, 0.0375 -0.9055 2.5769, 0.0205 -0.9055 2.5727, 0.0341 -0.9055 2.5823, 0.0179 -0.9055 2.5754, 0.0297 -0.9055 2.5866, 0.015 -0.9055 2.5773, 0.0241 -0.9055 2.5897, 0.0111 -0.9055 2.5786, 0.0171 -0.9055 2.5919, 0.0054 -0.9055 2.5792, 0.007 -0.9055 2.5928, -0.0047 -0.9055 2.5781, -0.0098 -0.9055 2.5908, -0.0151 -0.9055 2.5745, -0.0222 -0.9055 2.586, -0.0258 -0.9055 2.5677, -0.0258 -0.9055 2.5839, 0.0212 -0.9055 2.5194, 0.0176 -0.9055 2.5145, 0.0217 -0.9055 2.5061, 0.0155 -0.9055 2.5125, 0.0164 -0.9055 2.5004, 0.0108 -0.9055 2.5093, 0.0105 -0.9055 2.4964, 0.0057 -0.9055 2.5075, 0.0037 -0.9055 2.494, -0.0006 -0.9055 2.5068, -0.0049 -0.9055 2.493, -0.0062 -0.9055 2.5074, -0.0149 -0.9055 2.4942, -0.01 -0.9055 2.5088, -0.0213 -0.9055 2.4966, -0.0133 -0.9055 2.5111, -0.0269 -0.9055 2.5005, -0.0148 -0.9055 2.5125, -0.0137 -0.9055 2.5343, -0.0232 -0.9055 2.5452, -0.0157 -0.9055 2.5318, -0.0283 -0.9055 2.5408, -0.0172 -0.9055 2.5287, -0.0317 -0.9055 2.536, -0.018 -0.9055 2.5248, -0.034 -0.9055 2.5301, -0.0351 -0.9055 2.523, -0.0182 -0.9055 2.5222, -0.0351 -0.9055 2.5208, -0.0177 -0.9055 2.5183, -0.0343 -0.9055 2.5132, -0.0167 -0.9055 2.5153, -0.0323 -0.9055 2.5076, -0.0288 -0.9055 2.5024, 0.007 -0.9016 2.5928, -0.0098 -0.9016 2.5908, -0.0222 -0.9016 2.586, -0.0258 -0.9016 2.5839, -0.0258 -0.9016 2.5677, -0.0151 -0.9016 2.5745, -0.0047 -0.9016 2.5781, 0.0054 -0.9016 2.5792, 0.0111 -0.9016 2.5786, 0.015 -0.9016 2.5773, 0.0179 -0.9016 2.5754, 0.0205 -0.9016 2.5727, 0.0224 -0.9016 2.5692, 0.0242 -0.9016 2.5633, 0.0247 -0.9016 2.5559, -0.0035 -0.9016 2.5519, -0.016 -0.9016 2.5489, -0.0232 -0.9016 2.5452, -0.0283 -0.9016 2.5408, -0.0317 -0.9016 2.536, -0.034 -0.9016 2.5301, -0.0351 -0.9016 2.523, -0.0351 -0.9016 2.5208, -0.0343 -0.9016 2.5132, -0.0323 -0.9016 2.5076, -0.0288 -0.9016 2.5024, -0.0269 -0.9016 2.5005, -0.0049 -0.9016 2.493, -0.0146 -0.9016 2.4942, -0.0149 -0.9016 2.4942, -0.0213 -0.9016 2.4966, 0.0037 -0.9016 2.494, 0.0042 -0.9016 2.4942, 0.0105 -0.9016 2.4964, 0.0164 -0.9016 2.5004, 0.0217 -0.9016 2.5061, 0.0243 -0.9016 2.51, 0.0247 -0.9016 2.51, 0.0247 -0.9016 2.4953, 0.0415 -0.9016 2.4953, 0.0415 -0.9016 2.5566, 0.0402 -0.9016 2.5693, 0.0375 -0.9016 2.5769, 0.0341 -0.9016 2.5823, 0.0297 -0.9016 2.5866, 0.0241 -0.9016 2.5897, 0.0171 -0.9016 2.5919, -0.0137 -0.9016 2.5343, -0.0111 -0.9016 2.5362, -0.0069 -0.9016 2.5381, 0.0024 -0.9016 2.5401, -0.0182 -0.9016 2.5222, -0.018 -0.9016 2.5248, -0.0172 -0.9016 2.5287, -0.0157 -0.9016 2.5318, -0.0133 -0.9016 2.5111, -0.0148 -0.9016 2.5125, -0.0167 -0.9016 2.5153, -0.0177 -0.9016 2.5183, -0.0006 -0.9016 2.5068, -0.0062 -0.9016 2.5074, -0.01 -0.9016 2.5088, 0.0176 -0.9016 2.5145, 0.0155 -0.9016 2.5125, 0.0108 -0.9016 2.5093, 0.0057 -0.9016 2.5075, 0.0247 -0.9016 2.534, 0.0247 -0.9016 2.5329, 0.0236 -0.9016 2.5254, 0.0212 -0.9016 2.5194, 0.0247 -0.9016 2.5431
            ]
        }
        coordIndex [
            0,1,2,-1,2,1,3,-1,4,0,5,-1,5,0,2,-1,6,4,7,-1,7,4,5,-1,8,6,9,-1,9,6,7,-1,10,8,11,-1,11,8,9,-1,12,10,13,-1,13,10,11,-1,14,12,15,-1,15,12,13,-1,16,14,17,-1,17,14,15,-1,18,16,19,-1,19,16,17,-1,20,18,21,-1,21,18,19,-1,22,20,23,-1,23,20,21,-1,1,22,3,-1,3,22,23,-1,22,1,0,-1,0,4,22,-1,22,4,6,-1,22,6,20,-1,16,18,14,-1,14,18,20,-1,14,20,12,-1,12,20,6,-1,12,6,10,-1,10,6,8,-1,24,25,26,-1,27,28,29,-1,30,31,32,-1,32,31,33,-1,34,35,28,-1,28,35,31,-1,28,31,29,-1,29,31,30,-1,24,26,36,-1,36,26,37,-1,36,37,38,-1,37,33,38,-1,38,33,31,-1,38,31,39,-1,39,31,40,-1,39,40,41,-1,41,40,42,-1,41,42,43,-1,43,42,44,-1,43,44,45,-1,45,44,46,-1,45,46,47,-1,47,46,48,-1,47,48,49,-1,49,48,50,-1,49,50,51,-1,51,50,52,-1,51,52,53,-1,53,52,54,-1,53,54,55,-1,55,54,56,-1,55,56,57,-1,57,56,58,-1,29,59,27,-1,27,59,60,-1,27,60,61,-1,61,60,62,-1,61,62,63,-1,63,62,64,-1,63,64,65,-1,65,64,66,-1,65,66,67,-1,67,66,68,-1,67,68,69,-1,69,68,70,-1,69,70,71,-1,71,70,72,-1,71,72,73,-1,73,72,74,-1,73,74,75,-1,75,74,76,-1,25,24,77,-1,77,24,78,-1,77,78,79,-1,79,78,80,-1,79,80,81,-1,81,80,82,-1,81,82,83,-1,82,84,83,-1,83,84,85,-1,83,85,86,-1,86,85,87,-1,86,87,88,-1,88,87,89,-1,88,89,90,-1,90,89,91,-1,90,91,76,-1,76,91,92,-1,76,92,75,-1,52,93,94,-1,52,94,54,-1,54,94,95,-1,54,95,56,-1,56,95,96,-1,56,96,58,-1,57,58,97,-1,97,58,96,-1,57,97,98,-1,57,98,55,-1,55,98,99,-1,55,99,53,-1,53,99,100,-1,53,100,51,-1,51,100,101,-1,51,101,49,-1,49,101,102,-1,49,102,47,-1,47,102,103,-1,47,103,45,-1,45,103,104,-1,45,104,43,-1,43,104,105,-1,43,105,41,-1,41,105,106,-1,41,106,39,-1,39,106,107,-1,39,107,38,-1,36,38,108,-1,108,38,107,-1,36,108,109,-1,36,109,24,-1,24,109,110,-1,24,110,78,-1,78,110,111,-1,78,111,80,-1,80,111,112,-1,80,112,82,-1,82,112,113,-1,82,113,84,-1,84,113,114,-1,84,114,85,-1,85,114,115,-1,85,115,87,-1,87,115,116,-1,87,116,89,-1,89,116,117,-1,89,117,91,-1,91,117,118,-1,91,118,92,-1,92,118,119,-1,92,119,75,-1,120,69,121,-1,121,69,71,-1,121,71,122,-1,122,71,73,-1,122,73,123,-1,123,73,75,-1,123,75,119,-1,69,120,124,-1,69,124,67,-1,67,124,125,-1,67,125,65,-1,125,126,65,-1,65,126,127,-1,65,127,63,-1,63,127,128,-1,63,128,61,-1,61,128,129,-1,61,129,27,-1,28,27,130,-1,130,27,129,-1,34,28,131,-1,131,28,130,-1,35,34,132,-1,132,34,131,-1,31,35,133,-1,133,35,132,-1,31,133,134,-1,31,134,40,-1,40,134,135,-1,40,135,42,-1,42,135,136,-1,42,136,44,-1,44,136,137,-1,44,137,46,-1,46,137,138,-1,46,138,48,-1,48,138,139,-1,48,139,50,-1,50,139,93,-1,50,93,52,-1,77,140,141,-1,77,141,25,-1,25,141,142,-1,25,142,26,-1,26,142,143,-1,26,143,37,-1,86,144,145,-1,86,145,83,-1,83,145,146,-1,83,146,81,-1,81,146,147,-1,81,147,79,-1,79,147,140,-1,79,140,77,-1,74,148,149,-1,74,149,76,-1,76,149,150,-1,76,150,90,-1,90,150,151,-1,90,151,88,-1,88,151,144,-1,88,144,86,-1,68,152,153,-1,68,153,70,-1,70,153,154,-1,70,154,72,-1,72,154,148,-1,72,148,74,-1,60,155,156,-1,60,156,62,-1,62,156,157,-1,62,157,64,-1,64,157,158,-1,64,158,66,-1,66,158,152,-1,66,152,68,-1,32,159,160,-1,32,160,30,-1,30,160,161,-1,30,161,29,-1,29,161,162,-1,29,162,59,-1,59,162,155,-1,59,155,60,-1,32,33,159,-1,159,33,163,-1,33,37,163,-1,163,37,143,-1,
        ]
    }
}
Shape{
    appearance Appearance {
        material  Material {
            diffuseColor 0.25098039215686274 0.25098039215686274 0.25098039215686274
            specularColor 0.12549019607843137 0.12549019607843137 0.12549019607843137
            ambientIntensity 0.251
            transparency 0.0
            shininess 0.5
        }
    }
    geometry IndexedFaceSet {
        ccw TRUE
        solid FALSE
        coord DEF co Coordinate {
            point [
                0.0247 -0.9016 2.5431, 0.0024 -0.9016 2.5401, 0.0247 -0.9016 2.534, -0.0069 -0.9016 2.5381, -0.0111 -0.9016 2.5362, -0.0137 -0.9016 2.5343, 0.0247 -0.9016 2.5329, 0.0236 -0.9016 2.5254, -0.0157 -0.9016 2.5318, 0.0212 -0.9016 2.5194, -0.0148 -0.9016 2.5125, -0.0133 -0.9016 2.5111, 0.0155 -0.9016 2.5125, -0.0167 -0.9016 2.5153, 0.0108 -0.9016 2.5093, 0.0057 -0.9016 2.5075, -0.0006 -0.9016 2.5068, -0.0172 -0.9016 2.5287, -0.018 -0.9016 2.5248, 0.0176 -0.9016 2.5145, -0.0182 -0.9016 2.5222, -0.0177 -0.9016 2.5183, -0.01 -0.9016 2.5088, -0.0062 -0.9016 2.5074
            ]
        }
        coordIndex [
            0,1,2,-1,2,1,3,-1,3,4,2,-1,2,4,5,-1,2,5,6,-1,6,5,7,-1,7,5,8,-1,7,8,9,-1,10,11,12,-1,10,12,13,-1,14,12,15,-1,15,12,16,-1,8,17,9,-1,9,17,18,-1,9,18,19,-1,19,18,20,-1,19,20,12,-1,12,20,21,-1,12,21,13,-1,11,22,12,-1,12,22,23,-1,12,23,16,-1,
        ]
    }
}
Shape{
    appearance Appearance {
        material  Material {
            diffuseColor 1.0 1.0 1.0
            specularColor 0.5019607843137255 0.5019607843137255 0.5019607843137255
            ambientIntensity 1.0
            transparency 0.0
            shininess 0.5
        }
    }
    geometry IndexedFaceSet {
        ccw TRUE
        solid FALSE
        coord DEF co Coordinate {
            point [
                0.0641 -0.9016 2.5159, 0.0641 -0.9055 2.5159, 0.0706 -0.9055 2.5119, 0.0916 -0.9055 2.5067, 0.0916 -0.9016 2.5067, 0.0811 -0.9016 2.5079, 0.0811 -0.9055 2.5079, 0.0718 -0.9016 2.5114, 0.0706 -0.9016 2.5119, 0.0641 -0.9055 2.4986, 0.0641 -0.9016 2.4986, 0.0761 -0.9055 2.4945, 0.0718 -0.9016 2.4959, 0.09 -0.9016 2.493, 0.09 -0.9055 2.493, 0.079 -0.9016 2.4942, 0.0761 -0.9016 2.4945, 0.1038 -0.9055 2.4945, 0.1005 -0.9016 2.4942, 0.1038 -0.9016 2.4945, 0.1129 -0.9016 2.4977, 0.1129 -0.9055 2.4977, 0.1177 -0.9016 2.5006, 0.1177 -0.9055 2.5006, 0.1225 -0.9016 2.5048, 0.1225 -0.9055 2.5048, 0.1256 -0.9016 2.5092, 0.1256 -0.9055 2.5092, 0.1277 -0.9016 2.5145, 0.1277 -0.9055 2.5145, 0.1285 -0.9016 2.5212, 0.1285 -0.9055 2.5212, 0.1278 -0.9016 2.5274, 0.1278 -0.9055 2.5274, 0.126 -0.9016 2.5324, 0.126 -0.9055 2.5324, 0.1229 -0.9016 2.537, 0.1229 -0.9055 2.537, 0.1189 -0.9016 2.5405, 0.1189 -0.9055 2.5405, 0.1078 -0.9016 2.5467, 0.1078 -0.9055 2.5467, 0.1013 -0.9016 2.5493, 0.1013 -0.9055 2.5493, 0.091 -0.9016 2.5538, 0.091 -0.9055 2.5538, 0.0851 -0.9016 2.5575, 0.0851 -0.9055 2.5575, 0.0835 -0.9016 2.5593, 0.0835 -0.9055 2.5593, 0.0823 -0.9016 2.5616, 0.0823 -0.9055 2.5616, 0.0816 -0.9016 2.5642, 0.0816 -0.9055 2.5642, 0.0814 -0.9016 2.5664, 0.0814 -0.9055 2.5664, 0.0817 -0.9016 2.5691, 0.0817 -0.9055 2.5691, 0.0826 -0.9016 2.5713, 0.0826 -0.9055 2.5713, 0.084 -0.9016 2.5734, 0.084 -0.9055 2.5734, 0.0865 -0.9016 2.5757, 0.0865 -0.9055 2.5757, 0.0903 -0.9016 2.5777, 0.0903 -0.9055 2.5777, 0.0947 -0.9016 2.5788, 0.0947 -0.9055 2.5788, 0.0997 -0.9016 2.5792, 0.0997 -0.9055 2.5792, 0.1107 -0.9016 2.578, 0.1107 -0.9055 2.578, 0.1201 -0.9016 2.5745, 0.1201 -0.9055 2.5745, 0.1239 -0.9016 2.5723, 0.1239 -0.9055 2.5723, 0.1239 -0.9055 2.5886, 0.1239 -0.9016 2.5886, 0.1105 -0.9016 2.5922, 0.1105 -0.9055 2.5922, 0.1013 -0.9016 2.5928, 0.1013 -0.9055 2.5928, 0.089 -0.9016 2.5914, 0.089 -0.9055 2.5914, 0.0798 -0.9016 2.5882, 0.0798 -0.9055 2.5882, 0.0749 -0.9016 2.5852, 0.0749 -0.9055 2.5852, 0.07 -0.9055 2.5808, 0.0718 -0.9016 2.5824, 0.07 -0.9016 2.5808, 0.0669 -0.9016 2.5762, 0.0669 -0.9055 2.5762, 0.0649 -0.9016 2.5709, 0.0649 -0.9055 2.5709, 0.0642 -0.9016 2.5649, 0.0642 -0.9055 2.5649, 0.0649 -0.9016 2.5584, 0.0649 -0.9055 2.5584, 0.0668 -0.9016 2.5533, 0.0668 -0.9055 2.5533, 0.069 -0.9016 2.5498, 0.069 -0.9055 2.5498, 0.0895 -0.9016 2.5372, 0.0895 -0.9055 2.5372, 0.0796 -0.9055 2.5418, 0.0717 -0.9016 2.5469, 0.0717 -0.9055 2.5469, 0.0718 -0.9016 2.5469, 0.0796 -0.9016 2.5418, 0.1005 -0.9016 2.5326, 0.1005 -0.9055 2.5326, 0.107 -0.9016 2.5287, 0.107 -0.9055 2.5287, 0.1091 -0.9016 2.5265, 0.1091 -0.9055 2.5265, 0.1104 -0.9016 2.5243, 0.1104 -0.9055 2.5243, 0.1112 -0.9016 2.5217, 0.1112 -0.9055 2.5217, 0.1113 -0.9016 2.5196, 0.1113 -0.9055 2.5196, 0.111 -0.9016 2.5164, 0.111 -0.9055 2.5164, 0.1101 -0.9016 2.514, 0.1101 -0.9055 2.514, 0.1087 -0.9016 2.5119, 0.1087 -0.9055 2.5119, 0.1067 -0.9016 2.5102, 0.1067 -0.9055 2.5102, 0.1052 -0.9016 2.5092, 0.1052 -0.9055 2.5092, 0.1009 -0.9016 2.5077, 0.1009 -0.9055 2.5077, 0.0923 -0.9016 2.5067, 0.0923 -0.9055 2.5067, 0.2113 -0.9055 2.5906, 0.2287 -0.9055 2.5906, 0.2113 -0.9016 2.5906, 0.2287 -0.9016 2.5906, 0.1853 -0.9055 2.5188, 0.1853 -0.9016 2.5188, 0.184 -0.9016 2.5144, 0.184 -0.9055 2.5144, 0.1833 -0.9016 2.5111, 0.1833 -0.9055 2.5111, 0.1828 -0.9055 2.5111, 0.1828 -0.9016 2.5111, 0.1808 -0.9055 2.519, 0.1808 -0.9016 2.519, 0.1559 -0.9016 2.5906, 0.1559 -0.9055 2.5906, 0.1639 -0.9016 2.5674, 0.1372 -0.9055 2.5906, 0.1372 -0.9016 2.5906, 0.1746 -0.9016 2.4955, 0.1746 -0.9055 2.4955, 0.1639 -0.9016 2.5225, 0.1672 -0.9016 2.4782, 0.1672 -0.9055 2.4782, 0.174 -0.9016 2.4942, 0.164 -0.9016 2.4722, 0.164 -0.9055 2.4722, 0.1639 -0.9016 2.4721, 0.1608 -0.9055 2.4687, 0.1608 -0.9016 2.4687, 0.1578 -0.9016 2.4666, 0.1578 -0.9055 2.4666, 0.1541 -0.9016 2.4652, 0.1541 -0.9055 2.4652, 0.1501 -0.9016 2.4647, 0.1501 -0.9055 2.4647, 0.144 -0.9016 2.4655, 0.144 -0.9055 2.4655, 0.1406 -0.9016 2.4666, 0.1406 -0.9055 2.4666, 0.1406 -0.9055 2.4518, 0.1406 -0.9016 2.4518, 0.1477 -0.9016 2.4505, 0.1477 -0.9055 2.4505, 0.1514 -0.9016 2.4504, 0.1514 -0.9055 2.4504, 0.1582 -0.9016 2.4512, 0.1582 -0.9055 2.4512, 0.1639 -0.9016 2.4534, 0.1648 -0.9055 2.4537, 0.1648 -0.9016 2.4537, 0.1706 -0.9016 2.4578, 0.1706 -0.9055 2.4578, 0.1717 -0.9016 2.4588, 0.1717 -0.9055 2.4588, 0.1778 -0.9016 2.4662, 0.1778 -0.9055 2.4662, 0.1854 -0.9016 2.4809, 0.1854 -0.9055 2.4809, 0.1906 -0.9016 2.4942, 0.3185 -0.9055 2.5105, 0.3185 -0.9055 2.4953, 0.3185 -0.9016 2.5105, 0.3185 -0.9016 2.4953, 0.2639 -0.9016 2.5105, 0.2639 -0.9055 2.5105, 0.2889 -0.9016 2.5105, 0.2639 -0.9055 2.5554, 0.2639 -0.9016 2.5554, 0.3116 -0.9016 2.5554, 0.3116 -0.9055 2.5554, 0.2889 -0.9016 2.5554, 0.3116 -0.9055 2.5707, 0.3116 -0.9016 2.5707, 0.2639 -0.9016 2.5707, 0.2639 -0.9055 2.5707, 0.2889 -0.9016 2.5707, 0.2639 -0.9055 2.6134, 0.2639 -0.9016 2.6134, 0.3154 -0.9016 2.6134, 0.3154 -0.9055 2.6134, 0.2889 -0.9016 2.6134, 0.3154 -0.9055 2.6287, 0.3154 -0.9016 2.6287, 0.2467 -0.9016 2.6287, 0.2467 -0.9055 2.6287, 0.2889 -0.9016 2.6287, 0.2467 -0.9055 2.4953, 0.2467 -0.9016 2.4953, 0.2889 -0.9016 2.4953, 0.4179 -0.9055 2.5226, 0.4291 -0.9055 2.5112, 0.4199 -0.9055 2.5244, 0.4322 -0.9055 2.514, 0.4269 -0.9055 2.5332, 0.4423 -0.9055 2.5261, 0.4314 -0.9055 2.5432, 0.4488 -0.9055 2.54, 0.4338 -0.9055 2.5557, 0.452 -0.9055 2.5557, 0.4342 -0.9055 2.5632, 0.4523 -0.9055 2.5637, 0.4322 -0.9055 2.5801, 0.4503 -0.9055 2.5813, 0.4284 -0.9055 2.5898, 0.4455 -0.9055 2.5942, 0.4232 -0.9055 2.5972, 0.4374 -0.9055 2.6059, 0.4196 -0.9055 2.6008, 0.4322 -0.9055 2.6111, 0.4093 -0.9055 2.6076, 0.4185 -0.9055 2.6205, 0.3976 -0.9055 2.6116, 0.4025 -0.9055 2.6264, 0.381 -0.9055 2.6134, 0.3817 -0.9055 2.6287, 0.3609 -0.9055 2.6134, 0.3437 -0.9055 2.6287, 0.3609 -0.9055 2.5105, 0.3437 -0.9055 2.4953, 0.3803 -0.9055 2.5105, 0.3804 -0.9055 2.4953, 0.398 -0.9055 2.5125, 0.4 -0.9055 2.4973, 0.4092 -0.9055 2.5167, 0.4158 -0.9055 2.5028, 0.3804 -0.9016 2.4953, 0.3437 -0.9016 2.4953, 0.4 -0.9016 2.4973, 0.4158 -0.9016 2.5028, 0.4291 -0.9016 2.5112, 0.4322 -0.9016 2.514, 0.4423 -0.9016 2.5261, 0.4488 -0.9016 2.54, 0.452 -0.9016 2.5557, 0.4523 -0.9016 2.5637, 0.4503 -0.9016 2.5813, 0.4455 -0.9016 2.5942, 0.4374 -0.9016 2.6059, 0.4322 -0.9016 2.6111, 0.4185 -0.9016 2.6205, 0.4025 -0.9016 2.6264, 0.3817 -0.9016 2.6287, 0.3437 -0.9016 2.6287, 0.381 -0.9016 2.6134, 0.3609 -0.9016 2.6134, 0.3609 -0.9016 2.5105, 0.3803 -0.9016 2.5105, 0.4199 -0.9016 2.5244, 0.4179 -0.9016 2.5226, 0.4092 -0.9016 2.5167, 0.398 -0.9016 2.5125, 0.4342 -0.9016 2.5632, 0.4338 -0.9016 2.5557, 0.4314 -0.9016 2.5432, 0.4269 -0.9016 2.5332, 0.4196 -0.9016 2.6008, 0.4232 -0.9016 2.5972, 0.4284 -0.9016 2.5898, 0.4322 -0.9016 2.5801, 0.3976 -0.9016 2.6116, 0.4093 -0.9016 2.6076
            ]
        }
        coordIndex [
            0,1,2,-1,3,4,5,-1,3,5,6,-1,6,5,7,-1,6,7,2,-1,2,7,8,-1,2,8,0,-1,9,1,10,-1,10,1,0,-1,9,10,11,-1,11,10,12,-1,13,14,15,-1,15,14,11,-1,15,11,16,-1,16,11,12,-1,14,13,17,-1,17,13,18,-1,18,19,17,-1,17,19,20,-1,17,20,21,-1,21,20,22,-1,21,22,23,-1,23,22,24,-1,23,24,25,-1,25,24,26,-1,25,26,27,-1,27,26,28,-1,27,28,29,-1,29,28,30,-1,29,30,31,-1,31,30,32,-1,31,32,33,-1,33,32,34,-1,33,34,35,-1,35,34,36,-1,35,36,37,-1,37,36,38,-1,37,38,39,-1,39,38,40,-1,39,40,41,-1,41,40,42,-1,41,42,43,-1,43,42,44,-1,43,44,45,-1,45,44,46,-1,45,46,47,-1,47,46,48,-1,47,48,49,-1,49,48,50,-1,49,50,51,-1,51,50,52,-1,51,52,53,-1,53,52,54,-1,53,54,55,-1,55,54,56,-1,55,56,57,-1,57,56,58,-1,57,58,59,-1,59,58,60,-1,59,60,61,-1,61,60,62,-1,61,62,63,-1,63,62,64,-1,63,64,65,-1,65,64,66,-1,65,66,67,-1,67,66,68,-1,67,68,69,-1,69,68,70,-1,69,70,71,-1,71,70,72,-1,71,72,73,-1,73,72,74,-1,73,74,75,-1,76,75,77,-1,77,75,74,-1,76,77,78,-1,76,78,79,-1,79,78,80,-1,79,80,81,-1,81,80,82,-1,81,82,83,-1,83,82,84,-1,83,84,85,-1,85,84,86,-1,85,86,87,-1,87,86,88,-1,88,86,89,-1,89,90,88,-1,88,90,91,-1,88,91,92,-1,92,91,93,-1,92,93,94,-1,94,93,95,-1,94,95,96,-1,96,95,97,-1,96,97,98,-1,98,97,99,-1,98,99,100,-1,100,99,101,-1,100,101,102,-1,103,104,105,-1,102,101,106,-1,102,106,107,-1,107,106,108,-1,107,108,105,-1,105,108,109,-1,105,109,103,-1,104,103,110,-1,104,110,111,-1,111,110,112,-1,111,112,113,-1,113,112,114,-1,113,114,115,-1,115,114,116,-1,115,116,117,-1,117,116,118,-1,117,118,119,-1,119,118,120,-1,119,120,121,-1,121,120,122,-1,121,122,123,-1,123,122,124,-1,123,124,125,-1,125,124,126,-1,125,126,127,-1,127,126,128,-1,127,128,129,-1,129,128,130,-1,129,130,131,-1,131,130,132,-1,131,132,133,-1,133,132,134,-1,133,134,135,-1,135,134,4,-1,135,4,3,-1,61,63,85,-1,85,63,83,-1,111,43,104,-1,104,43,45,-1,21,23,127,-1,127,23,25,-1,127,25,125,-1,125,25,27,-1,125,27,123,-1,123,27,29,-1,123,29,121,-1,121,29,31,-1,121,31,119,-1,119,31,33,-1,119,33,117,-1,117,33,35,-1,117,35,115,-1,115,35,37,-1,115,37,113,-1,113,37,39,-1,113,39,111,-1,111,39,41,-1,111,41,43,-1,14,3,11,-1,11,3,6,-1,11,6,9,-1,9,6,2,-1,9,2,1,-1,63,65,83,-1,83,65,67,-1,83,67,81,-1,81,67,69,-1,81,69,79,-1,79,69,71,-1,79,71,76,-1,76,71,73,-1,76,73,75,-1,127,129,21,-1,21,129,131,-1,21,131,17,-1,17,131,133,-1,17,133,14,-1,14,133,135,-1,14,135,3,-1,85,87,61,-1,61,87,88,-1,61,88,59,-1,59,88,92,-1,59,92,57,-1,57,92,94,-1,57,94,55,-1,55,94,96,-1,55,96,53,-1,53,96,98,-1,53,98,51,-1,51,98,100,-1,51,100,49,-1,49,100,102,-1,49,102,47,-1,47,102,107,-1,47,107,45,-1,45,107,105,-1,45,105,104,-1,136,137,138,-1,138,137,139,-1,140,136,141,-1,141,136,138,-1,140,141,142,-1,140,142,143,-1,143,142,144,-1,143,144,145,-1,146,145,147,-1,147,145,144,-1,148,146,149,-1,149,146,147,-1,150,151,152,-1,152,151,148,-1,152,148,149,-1,153,151,154,-1,154,151,150,-1,155,156,157,-1,157,156,153,-1,157,153,154,-1,158,159,160,-1,160,159,156,-1,160,156,155,-1,159,158,161,-1,159,161,162,-1,162,161,163,-1,162,163,164,-1,163,165,164,-1,164,165,166,-1,164,166,167,-1,167,166,168,-1,167,168,169,-1,169,168,170,-1,169,170,171,-1,171,170,172,-1,171,172,173,-1,173,172,174,-1,173,174,175,-1,176,175,177,-1,177,175,174,-1,176,177,178,-1,176,178,179,-1,179,178,180,-1,179,180,181,-1,181,180,182,-1,181,182,183,-1,183,182,184,-1,183,184,185,-1,184,186,185,-1,185,186,187,-1,185,187,188,-1,188,187,189,-1,188,189,190,-1,190,189,191,-1,190,191,192,-1,192,191,193,-1,192,193,194,-1,139,137,195,-1,195,137,194,-1,195,194,193,-1,143,145,194,-1,137,136,194,-1,194,136,140,-1,194,140,143,-1,151,153,148,-1,148,153,156,-1,148,156,146,-1,192,162,190,-1,190,162,164,-1,175,176,173,-1,173,176,179,-1,173,179,171,-1,171,179,181,-1,171,181,169,-1,169,181,183,-1,169,183,167,-1,167,183,185,-1,167,185,164,-1,164,185,188,-1,164,188,190,-1,145,146,194,-1,194,146,156,-1,194,156,192,-1,192,156,159,-1,192,159,162,-1,196,197,198,-1,198,197,199,-1,200,201,202,-1,202,201,196,-1,202,196,198,-1,203,201,204,-1,204,201,200,-1,205,206,207,-1,207,206,203,-1,207,203,204,-1,208,206,209,-1,209,206,205,-1,210,211,212,-1,212,211,208,-1,212,208,209,-1,213,211,214,-1,214,211,210,-1,215,216,217,-1,217,216,213,-1,217,213,214,-1,218,216,219,-1,219,216,215,-1,220,221,222,-1,222,221,218,-1,222,218,219,-1,223,221,224,-1,224,221,220,-1,199,197,225,-1,225,197,223,-1,225,223,224,-1,223,197,196,-1,196,201,223,-1,223,201,203,-1,223,203,221,-1,216,218,213,-1,213,218,221,-1,213,221,211,-1,211,221,203,-1,211,203,208,-1,208,203,206,-1,226,227,228,-1,228,227,229,-1,228,229,230,-1,230,229,231,-1,230,231,232,-1,232,231,233,-1,232,233,234,-1,234,233,235,-1,234,235,236,-1,236,235,237,-1,236,237,238,-1,238,237,239,-1,238,239,240,-1,240,239,241,-1,240,241,242,-1,242,241,243,-1,242,243,244,-1,244,243,245,-1,244,245,246,-1,246,245,247,-1,246,247,248,-1,248,247,249,-1,248,249,250,-1,250,249,251,-1,250,251,252,-1,252,251,253,-1,252,253,254,-1,254,253,255,-1,254,255,256,-1,256,255,257,-1,256,257,258,-1,258,257,259,-1,258,259,260,-1,260,259,261,-1,260,261,226,-1,226,261,227,-1,257,255,262,-1,262,255,263,-1,257,262,264,-1,257,264,259,-1,259,264,265,-1,259,265,261,-1,261,265,266,-1,261,266,227,-1,227,266,267,-1,227,267,229,-1,229,267,268,-1,229,268,231,-1,231,268,269,-1,231,269,233,-1,233,269,270,-1,233,270,235,-1,235,270,271,-1,235,271,237,-1,237,271,272,-1,237,272,239,-1,239,272,273,-1,239,273,241,-1,241,273,274,-1,241,274,243,-1,243,274,275,-1,243,275,245,-1,245,275,276,-1,245,276,247,-1,247,276,277,-1,247,277,249,-1,249,277,278,-1,249,278,251,-1,253,251,279,-1,279,251,278,-1,255,253,263,-1,263,253,279,-1,250,252,280,-1,280,252,281,-1,252,254,281,-1,281,254,282,-1,254,256,282,-1,282,256,283,-1,228,284,285,-1,228,285,226,-1,226,285,286,-1,226,286,260,-1,260,286,287,-1,260,287,258,-1,258,287,283,-1,258,283,256,-1,236,288,289,-1,236,289,234,-1,234,289,290,-1,234,290,232,-1,232,290,291,-1,232,291,230,-1,230,291,284,-1,230,284,228,-1,244,292,293,-1,244,293,242,-1,242,293,294,-1,242,294,240,-1,240,294,295,-1,240,295,238,-1,238,295,288,-1,238,288,236,-1,250,280,296,-1,250,296,248,-1,248,296,297,-1,248,297,246,-1,246,297,292,-1,246,292,244,-1,
        ]
    }
}
Shape{
    appearance Appearance {
        material  Material {
            diffuseColor 0.25098039215686274 0.25098039215686274 0.25098039215686274
            specularColor 0.12549019607843137 0.12549019607843137 0.12549019607843137
            ambientIntensity 0.251
            transparency 0.0
            shininess 0.5
        }
    }
    geometry IndexedFaceSet {
        ccw TRUE
        solid FALSE
        coord DEF co Coordinate {
            point [
                0.3609 -0.9016 2.6134, 0.3609 -0.9016 2.5105, 0.381 -0.9016 2.6134, 0.3803 -0.9016 2.5105, 0.4179 -0.9016 2.5226, 0.4199 -0.9016 2.5244, 0.398 -0.9016 2.5125, 0.4092 -0.9016 2.5167, 0.4269 -0.9016 2.5332, 0.4314 -0.9016 2.5432, 0.4338 -0.9016 2.5557, 0.4342 -0.9016 2.5632, 0.4322 -0.9016 2.5801, 0.4284 -0.9016 2.5898, 0.4232 -0.9016 2.5972, 0.4196 -0.9016 2.6008, 0.3976 -0.9016 2.6116, 0.4093 -0.9016 2.6076
            ]
        }
        coordIndex [
            0,1,2,-1,2,1,3,-1,2,4,5,-1,3,6,2,-1,2,6,7,-1,2,7,4,-1,5,8,2,-1,2,8,9,-1,2,9,10,-1,10,11,2,-1,2,11,12,-1,2,12,13,-1,13,14,2,-1,2,14,15,-1,2,15,16,-1,16,15,17,-1,
        ]
    }
}
Shape{
    appearance Appearance {
        material  Material {
            diffuseColor 1.0 1.0 1.0
            specularColor 0.5019607843137255 0.5019607843137255 0.5019607843137255
            ambientIntensity 1.0
            transparency 0.0
            shininess 0.5
        }
    }
    geometry IndexedFaceSet {
        ccw TRUE
        solid FALSE
        coord DEF co Coordinate {
            point [
                0.497 -0.9055 2.5469, 0.4916 -0.9055 2.5318, 0.5418 -0.9055 2.5469, 0.5471 -0.9055 2.5318, 0.517 -0.9055 2.6023, 0.5105 -0.9055 2.6287, 0.4597 -0.9055 2.4953, 0.4787 -0.9055 2.4953, 0.5181 -0.9055 2.6063, 0.5192 -0.9055 2.6117, 0.529 -0.9055 2.6287, 0.5196 -0.9055 2.6117, 0.5207 -0.9055 2.606, 0.5217 -0.9055 2.6023, 0.5798 -0.9055 2.4953, 0.5608 -0.9055 2.4953, 0.529 -0.9016 2.6287, 0.5798 -0.9016 2.4953, 0.5105 -0.9016 2.6287, 0.4597 -0.9016 2.4953, 0.4787 -0.9016 2.4953, 0.4916 -0.9016 2.5318, 0.5471 -0.9016 2.5318, 0.5608 -0.9016 2.4953, 0.497 -0.9016 2.5469, 0.5418 -0.9016 2.5469, 0.5217 -0.9016 2.6023, 0.5196 -0.9016 2.6117, 0.5207 -0.9016 2.606, 0.5192 -0.9016 2.6117, 0.517 -0.9016 2.6023, 0.5181 -0.9016 2.6063
            ]
        }
        coordIndex [
            0,1,2,-1,2,1,3,-1,4,5,0,-1,0,5,6,-1,0,6,1,-1,1,6,7,-1,4,8,5,-1,5,8,9,-1,5,9,10,-1,10,9,11,-1,10,11,12,-1,12,13,10,-1,10,13,2,-1,10,2,14,-1,14,2,3,-1,14,3,15,-1,10,14,16,-1,16,14,17,-1,5,10,18,-1,18,10,16,-1,6,5,19,-1,19,5,18,-1,7,6,20,-1,20,6,19,-1,1,7,21,-1,21,7,20,-1,3,1,22,-1,22,1,21,-1,15,3,23,-1,23,3,22,-1,14,15,17,-1,17,15,23,-1,0,2,24,-1,24,2,25,-1,2,13,25,-1,25,13,26,-1,11,27,28,-1,11,28,12,-1,12,28,26,-1,12,26,13,-1,11,9,27,-1,27,9,29,-1,4,30,31,-1,4,31,8,-1,8,31,29,-1,8,29,9,-1,4,0,30,-1,30,0,24,-1,
        ]
    }
}
Shape{
    appearance Appearance {
        material  Material {
            diffuseColor 0.25098039215686274 0.25098039215686274 0.25098039215686274
            specularColor 0.12549019607843137 0.12549019607843137 0.12549019607843137
            ambientIntensity 0.251
            transparency 0.0
            shininess 0.5
        }
    }
    geometry IndexedFaceSet {
        ccw TRUE
        solid FALSE
        coord DEF co Coordinate {
            point [
                0.5196 -0.9016 2.6117, 0.5192 -0.9016 2.6117, 0.5207 -0.9016 2.606, 0.5181 -0.9016 2.6063, 0.5217 -0.9016 2.6023, 0.517 -0.9016 2.6023, 0.5418 -0.9016 2.5469, 0.497 -0.9016 2.5469
            ]
        }
        coordIndex [
            0,1,2,-1,2,1,3,-1,2,3,4,-1,4,3,5,-1,4,5,6,-1,6,5,7,-1,
        ]
    }
}
Shape{
    appearance Appearance {
        material  Material {
            diffuseColor 1.0 1.0 1.0
            specularColor 0.5019607843137255 0.5019607843137255 0.5019607843137255
            ambientIntensity 1.0
            transparency 0.0
            shininess 0.5
        }
    }
    geometry IndexedFaceSet {
        ccw TRUE
        solid FALSE
        coord DEF co Coordinate {
            point [
                -0.7376 -0.9055 2.725, -0.7165 -0.9055 2.7363, -0.7213 -0.9055 2.7948, -0.5542 -0.9055 2.4724, -0.5429 -0.9055 2.4935, -0.5373 -0.9055 2.5169, -0.662 -0.9055 2.7975, -0.6326 -0.9055 2.7282, -0.6181 -0.9055 2.7583, -0.6677 -0.9055 2.5145, -0.6695 -0.9055 2.5234, -0.7208 -0.9055 2.5603, -0.7218 -0.9055 2.4967, -0.7339 -0.9055 2.5003, -0.7416 -0.9055 2.5731, -0.6838 -0.9055 2.7994, -0.4039 -0.9055 2.6068, -0.4333 -0.9055 2.6571, -0.5368 -0.9055 2.5366, -0.5605 -0.9055 2.5907, -0.5368 -0.9055 2.5271, -0.5874 -0.9055 2.4432, -0.5685 -0.9055 2.4564, -0.664 -0.9055 2.5065, -0.6981 -0.9055 2.4589, -0.7122 -0.9055 2.4763, -0.3316 -0.9055 2.6927, -0.3167 -0.9055 2.6827, -0.2676 -0.9055 2.7147, -0.3044 -0.9055 2.6691, -0.2482 -0.9055 2.6878, -0.2957 -0.9055 2.6526, -0.2366 -0.9055 2.6588, -0.2322 -0.9055 2.6277, -0.6426 -0.9055 2.8202, -0.5968 -0.9055 2.7837, -0.6203 -0.9055 2.8393, -0.5714 -0.9055 2.8022, -0.5971 -0.9055 2.8536, -0.6931 -0.9055 2.7419, -0.6829 -0.9055 2.7425, -0.6729 -0.9055 2.7988, -0.6602 -0.9055 2.7396, -0.639 -0.9055 2.7318, -0.6025 -0.9055 2.5046, -0.6077 -0.9055 2.4988, -0.6149 -0.9055 2.4936, -0.6086 -0.9055 2.4351, -0.6231 -0.9055 2.4904, -0.6316 -0.9055 2.4322, -0.6326 -0.9055 2.4891, -0.6352 -0.9055 2.4323, -0.6342 -0.9055 2.4892, -0.6576 -0.9055 2.4357, -0.6427 -0.9055 2.4906, -0.6795 -0.9055 2.4449, -0.6513 -0.9055 2.4942, -0.6586 -0.9055 2.4998, -0.598 -0.9055 2.5394, -0.5958 -0.9055 2.5306, -0.5958 -0.9055 2.5219, -0.5981 -0.9055 2.5128, -0.3726 -0.9055 2.7007, -0.365 -0.9055 2.7007, -0.3261 -0.9055 2.752, -0.3482 -0.9055 2.6988, -0.3216 -0.9055 2.7504, -0.2934 -0.9055 2.7365, -0.2673 -0.9055 2.5375, -0.3147 -0.9055 2.572, -0.2931 -0.9055 2.5157, -0.3295 -0.9055 2.5614, -0.322 -0.9055 2.5015, -0.3467 -0.9055 2.5547, -0.3536 -0.9055 2.4948, -0.3593 -0.9055 2.5527, -0.4096 -0.9055 2.4948, -0.402 -0.9055 2.5527, -0.415 -0.9055 2.4957, -0.669 -0.9055 2.5327, -0.6662 -0.9055 2.5416, -0.7104 -0.9055 2.5806, -0.6613 -0.9055 2.5494, -0.6947 -0.9055 2.5986, -0.6576 -0.9055 2.5534, -0.6754 -0.9055 2.6121, -0.6502 -0.9055 2.5587, -0.6544 -0.9055 2.6201, -0.6419 -0.9055 2.562, -0.6316 -0.9055 2.6229, -0.6326 -0.9055 2.5631, -0.6165 -0.9055 2.6217, -0.6247 -0.9055 2.5623, -0.5939 -0.9055 2.6152, -0.6159 -0.9055 2.5591, -0.5743 -0.9055 2.6038, -0.6082 -0.9055 2.554, -0.6021 -0.9055 2.5472, -0.2914 -0.9055 2.6343, -0.291 -0.9055 2.6267, -0.2365 -0.9055 2.5939, -0.2929 -0.9055 2.6097, -0.2484 -0.9055 2.5639, -0.2992 -0.9055 2.5926, -0.3093 -0.9055 2.5776, -0.3774 -0.9055 2.8269, -0.4147 -0.9055 2.7835, -0.346 -0.9055 2.7906, -0.3933 -0.9055 2.758, -0.3785 -0.9055 2.7275, -0.7749 -0.9055 2.6707, -0.8373 -0.9055 2.6547, -0.7778 -0.9055 2.6476, -0.8375 -0.9055 2.6457, -0.7766 -0.9055 2.6327, -0.8329 -0.9055 2.6084, -0.7697 -0.9055 2.6095, -0.8193 -0.9055 2.5731, -0.7586 -0.9055 2.5906, -0.7977 -0.9055 2.5423, -0.7681 -0.9055 2.5171, -0.7564 -0.9055 2.7811, -0.7866 -0.9055 2.7599, -0.7536 -0.9055 2.7107, -0.7929 -0.9055 2.7539, -0.7668 -0.9055 2.6918, -0.8158 -0.9055 2.7245, -0.8309 -0.9055 2.6904, -0.5534 -0.9055 2.8705, -0.5405 -0.9055 2.8148, -0.5064 -0.9055 2.8763, -0.5054 -0.9055 2.8193, -0.4673 -0.9055 2.8721, -0.4732 -0.9055 2.8153, -0.4197 -0.9055 2.8554, -0.4434 -0.9055 2.8039, -0.4168 -0.9055 2.7854, -0.4068 -0.9055 2.5536, -0.4296 -0.9055 2.5048, -0.4274 -0.9055 2.5025, -0.404 -0.9055 2.553, -0.4212 -0.9055 2.4982, -0.4371 -0.9055 2.5242, -0.4362 -0.9055 2.5172, -0.4337 -0.9055 2.5107, -0.4151 -0.9055 2.5527, -0.4216 -0.9055 2.5501, -0.4369 -0.9055 2.528, -0.4274 -0.9055 2.546, -0.4313 -0.9055 2.5417, -0.435 -0.9055 2.5352, -0.4077 -0.9055 2.5537, -0.2612 -0.9016 2.7059, -0.2482 -0.9016 2.6878, -0.2398 -0.9016 2.6667, -0.2366 -0.9016 2.6588, -0.2322 -0.9016 2.6277, -0.2676 -0.9016 2.7147, -0.2934 -0.9016 2.7365, -0.3216 -0.9016 2.7504, -0.3261 -0.9016 2.752, -0.346 -0.9016 2.7906, -0.3774 -0.9016 2.8269, -0.3992 -0.9016 2.8416, -0.4197 -0.9016 2.8554, -0.4673 -0.9016 2.8721, -0.5064 -0.9016 2.8763, -0.5534 -0.9016 2.8705, -0.5971 -0.9016 2.8536, -0.6165 -0.9016 2.8416, -0.6203 -0.9016 2.8393, -0.6426 -0.9016 2.8202, -0.662 -0.9016 2.7975, -0.6729 -0.9016 2.7988, -0.6838 -0.9016 2.7994, -0.7929 -0.9016 2.7539, -0.7213 -0.9016 2.7948, -0.7564 -0.9016 2.7811, -0.7731 -0.9016 2.7694, -0.7866 -0.9016 2.7599, -0.8375 -0.9016 2.6457, -0.8158 -0.9016 2.7245, -0.8241 -0.9016 2.7059, -0.8309 -0.9016 2.6904, -0.8351 -0.9016 2.6667, -0.8373 -0.9016 2.6547, -0.8329 -0.9016 2.6084, -0.8193 -0.9016 2.5731, -0.7977 -0.9016 2.5423, -0.7731 -0.9016 2.5213, -0.7681 -0.9016 2.5171, -0.7339 -0.9016 2.5003, -0.7218 -0.9016 2.4967, -0.7206 -0.9016 2.4942, -0.7122 -0.9016 2.4763, -0.6981 -0.9016 2.4589, -0.6795 -0.9016 2.4449, -0.6709 -0.9016 2.4413, -0.6576 -0.9016 2.4357, -0.6352 -0.9016 2.4323, -0.6316 -0.9016 2.4322, -0.5368 -0.9016 2.5271, -0.6086 -0.9016 2.4351, -0.5924 -0.9016 2.4413, -0.5874 -0.9016 2.4432, -0.5685 -0.9016 2.4564, -0.5542 -0.9016 2.4724, -0.5429 -0.9016 2.4935, -0.5428 -0.9016 2.4942, -0.5373 -0.9016 2.5169, -0.5368 -0.9016 2.5366, -0.4039 -0.9016 2.6068, -0.4333 -0.9016 2.6571, -0.5605 -0.9016 2.5907, -0.5743 -0.9016 2.6038, -0.5939 -0.9016 2.6152, -0.6165 -0.9016 2.6217, -0.6316 -0.9016 2.6229, -0.6544 -0.9016 2.6201, -0.6754 -0.9016 2.6121, -0.6947 -0.9016 2.5986, -0.7104 -0.9016 2.5806, -0.7208 -0.9016 2.5603, -0.7778 -0.9016 2.6476, -0.7416 -0.9016 2.5731, -0.7586 -0.9016 2.5906, -0.7697 -0.9016 2.6095, -0.7731 -0.9016 2.6209, -0.7766 -0.9016 2.6327, -0.7754 -0.9016 2.6667, -0.7749 -0.9016 2.6707, -0.7731 -0.9016 2.6753, -0.7668 -0.9016 2.6918, -0.7569 -0.9016 2.7059, -0.7536 -0.9016 2.7107, -0.7376 -0.9016 2.725, -0.7165 -0.9016 2.7363, -0.6931 -0.9016 2.7419, -0.6829 -0.9016 2.7425, -0.6602 -0.9016 2.7396, -0.639 -0.9016 2.7318, -0.6326 -0.9016 2.7282, -0.6181 -0.9016 2.7583, -0.5968 -0.9016 2.7837, -0.5714 -0.9016 2.8022, -0.5405 -0.9016 2.8148, -0.5054 -0.9016 2.8193, -0.4732 -0.9016 2.8153, -0.4434 -0.9016 2.8039, -0.4168 -0.9016 2.7854, -0.4147 -0.9016 2.7835, -0.3933 -0.9016 2.758, -0.3785 -0.9016 2.7275, -0.3738 -0.9016 2.7059, -0.3726 -0.9016 2.7007, -0.365 -0.9016 2.7007, -0.3482 -0.9016 2.6988, -0.3316 -0.9016 2.6927, -0.3167 -0.9016 2.6827, -0.3044 -0.9016 2.6691, -0.3031 -0.9016 2.6667, -0.2957 -0.9016 2.6526, -0.2914 -0.9016 2.6343, -0.291 -0.9016 2.6267, -0.2929 -0.9016 2.6097, -0.2992 -0.9016 2.5926, -0.3093 -0.9016 2.5776, -0.3147 -0.9016 2.572, -0.3295 -0.9016 2.5614, -0.3467 -0.9016 2.5547, -0.3593 -0.9016 2.5527, -0.402 -0.9016 2.5527, -0.404 -0.9016 2.553, -0.4068 -0.9016 2.5536, -0.4077 -0.9016 2.5537, -0.4151 -0.9016 2.5527, -0.4216 -0.9016 2.5501, -0.4274 -0.9016 2.546, -0.4313 -0.9016 2.5417, -0.435 -0.9016 2.5352, -0.4369 -0.9016 2.528, -0.4371 -0.9016 2.5242, -0.4362 -0.9016 2.5172, -0.4337 -0.9016 2.5107, -0.4296 -0.9016 2.5048, -0.4274 -0.9016 2.5025, -0.4212 -0.9016 2.4982, -0.415 -0.9016 2.4957, -0.4096 -0.9016 2.4948, -0.3536 -0.9016 2.4948, -0.322 -0.9016 2.5015, -0.2931 -0.9016 2.5157, -0.2673 -0.9016 2.5375, -0.2484 -0.9016 2.5639, -0.2365 -0.9016 2.5939, -0.6326 -0.9016 2.5631, -0.6247 -0.9016 2.5623, -0.6159 -0.9016 2.5591, -0.6082 -0.9016 2.554, -0.6021 -0.9016 2.5472, -0.598 -0.9016 2.5394, -0.5958 -0.9016 2.5306, -0.5958 -0.9016 2.5219, -0.5981 -0.9016 2.5128, -0.6025 -0.9016 2.5046, -0.6077 -0.9016 2.4988, -0.6149 -0.9016 2.4936, -0.6231 -0.9016 2.4904, -0.6326 -0.9016 2.4891, -0.6342 -0.9016 2.4892, -0.6427 -0.9016 2.4906, -0.6513 -0.9016 2.4942, -0.6586 -0.9016 2.4998, -0.664 -0.9016 2.5065, -0.6677 -0.9016 2.5145, -0.6695 -0.9016 2.5234, -0.669 -0.9016 2.5327, -0.6662 -0.9016 2.5416, -0.6613 -0.9016 2.5494, -0.6576 -0.9016 2.5534, -0.6502 -0.9016 2.5587, -0.6419 -0.9016 2.562
            ]
        }
        coordIndex [
            0,1,2,-1,3,4,5,-1,6,7,8,-1,9,10,11,-1,12,11,13,-1,13,11,14,-1,2,1,15,-1,16,17,18,-1,18,17,19,-1,18,19,20,-1,20,19,21,-1,20,21,5,-1,5,21,22,-1,5,22,3,-1,23,9,24,-1,24,9,11,-1,24,11,25,-1,25,11,12,-1,26,27,28,-1,28,27,29,-1,28,29,30,-1,30,29,31,-1,30,31,32,-1,32,31,33,-1,6,8,34,-1,34,8,35,-1,34,35,36,-1,36,35,37,-1,36,37,38,-1,1,39,15,-1,15,39,40,-1,15,40,41,-1,41,40,42,-1,41,42,6,-1,6,42,43,-1,6,43,7,-1,44,45,21,-1,21,45,46,-1,21,46,47,-1,47,46,48,-1,47,48,49,-1,49,48,50,-1,49,50,51,-1,51,50,52,-1,51,52,53,-1,53,52,54,-1,53,54,55,-1,55,54,56,-1,55,56,24,-1,24,56,57,-1,24,57,23,-1,58,59,19,-1,19,59,60,-1,19,60,21,-1,21,60,61,-1,21,61,44,-1,62,63,64,-1,64,63,65,-1,64,65,66,-1,66,65,26,-1,66,26,67,-1,67,26,28,-1,68,69,70,-1,70,69,71,-1,70,71,72,-1,72,71,73,-1,72,73,74,-1,74,73,75,-1,74,75,76,-1,76,75,77,-1,76,77,78,-1,10,79,11,-1,11,79,80,-1,11,80,81,-1,81,80,82,-1,81,82,83,-1,83,82,84,-1,83,84,85,-1,85,84,86,-1,85,86,87,-1,87,86,88,-1,87,88,89,-1,89,88,90,-1,89,90,91,-1,91,90,92,-1,91,92,93,-1,93,92,94,-1,93,94,95,-1,95,94,96,-1,95,96,19,-1,19,96,97,-1,19,97,58,-1,31,98,33,-1,33,98,99,-1,33,99,100,-1,100,99,101,-1,100,101,102,-1,102,101,103,-1,102,103,68,-1,68,103,104,-1,68,104,69,-1,105,106,107,-1,107,106,108,-1,107,108,64,-1,64,108,109,-1,64,109,62,-1,110,111,112,-1,112,111,113,-1,112,113,114,-1,114,113,115,-1,114,115,116,-1,116,115,117,-1,116,117,118,-1,118,117,119,-1,118,119,14,-1,14,119,120,-1,14,120,13,-1,2,121,0,-1,0,121,122,-1,0,122,123,-1,123,122,124,-1,123,124,125,-1,125,124,126,-1,125,126,110,-1,110,126,127,-1,110,127,111,-1,38,37,128,-1,128,37,129,-1,128,129,130,-1,130,129,131,-1,130,131,132,-1,132,131,133,-1,132,133,134,-1,134,133,135,-1,134,135,105,-1,105,135,136,-1,105,136,106,-1,137,138,139,-1,77,140,78,-1,78,140,137,-1,78,137,141,-1,141,137,139,-1,142,143,137,-1,137,143,144,-1,137,144,138,-1,145,146,147,-1,146,148,147,-1,147,148,149,-1,147,149,150,-1,142,137,147,-1,147,137,151,-1,147,151,145,-1,152,28,153,-1,153,28,30,-1,153,30,154,-1,154,30,32,-1,154,32,155,-1,155,32,33,-1,155,33,156,-1,152,157,28,-1,28,157,158,-1,28,158,67,-1,67,158,159,-1,67,159,66,-1,66,159,160,-1,66,160,64,-1,64,160,161,-1,64,161,107,-1,107,161,162,-1,107,162,105,-1,134,105,163,-1,163,105,162,-1,163,164,134,-1,134,164,165,-1,134,165,132,-1,132,165,166,-1,132,166,130,-1,130,166,167,-1,130,167,128,-1,128,167,168,-1,128,168,38,-1,38,168,36,-1,36,168,169,-1,36,169,170,-1,36,170,171,-1,36,171,34,-1,34,171,172,-1,34,172,6,-1,6,172,173,-1,6,173,41,-1,41,173,174,-1,41,174,15,-1,175,124,122,-1,15,174,176,-1,15,176,2,-1,2,176,177,-1,2,177,121,-1,121,177,178,-1,121,178,122,-1,122,178,179,-1,122,179,175,-1,180,113,111,-1,124,175,181,-1,124,181,126,-1,126,181,182,-1,126,182,127,-1,182,183,127,-1,127,183,184,-1,127,184,111,-1,111,184,185,-1,111,185,180,-1,113,180,186,-1,113,186,115,-1,115,186,187,-1,115,187,117,-1,117,187,188,-1,117,188,119,-1,119,188,120,-1,120,188,189,-1,189,190,120,-1,120,190,191,-1,120,191,13,-1,13,191,192,-1,13,192,12,-1,12,192,193,-1,12,193,25,-1,193,194,25,-1,25,194,195,-1,25,195,24,-1,24,195,196,-1,24,196,55,-1,55,196,197,-1,55,197,53,-1,197,198,53,-1,53,198,199,-1,53,199,51,-1,51,199,200,-1,51,200,49,-1,201,20,5,-1,49,200,202,-1,203,21,202,-1,202,21,47,-1,202,47,49,-1,203,204,21,-1,21,204,205,-1,21,205,22,-1,22,205,206,-1,22,206,3,-1,3,206,207,-1,3,207,4,-1,4,207,208,-1,4,208,5,-1,5,208,209,-1,5,209,201,-1,18,20,210,-1,210,20,201,-1,16,18,211,-1,211,18,210,-1,17,16,212,-1,212,16,211,-1,19,17,213,-1,213,17,212,-1,19,213,214,-1,19,214,95,-1,95,214,215,-1,95,215,93,-1,93,215,216,-1,93,216,91,-1,91,216,217,-1,91,217,89,-1,89,217,218,-1,89,218,87,-1,87,218,219,-1,87,219,85,-1,85,219,220,-1,85,220,83,-1,83,220,221,-1,83,221,81,-1,81,221,222,-1,81,222,11,-1,223,112,114,-1,11,222,224,-1,11,224,14,-1,14,224,225,-1,14,225,118,-1,118,225,226,-1,118,226,116,-1,116,226,227,-1,116,227,114,-1,114,227,228,-1,114,228,223,-1,112,223,110,-1,110,223,229,-1,229,230,110,-1,110,230,231,-1,110,231,125,-1,125,231,232,-1,125,232,123,-1,123,232,233,-1,233,234,123,-1,123,234,235,-1,123,235,0,-1,0,235,236,-1,0,236,1,-1,1,236,237,-1,1,237,39,-1,39,237,238,-1,39,238,40,-1,40,238,239,-1,40,239,42,-1,42,239,240,-1,42,240,43,-1,43,240,241,-1,43,241,7,-1,7,241,242,-1,7,242,8,-1,8,242,243,-1,8,243,35,-1,35,243,244,-1,35,244,37,-1,37,244,245,-1,37,245,129,-1,129,245,246,-1,129,246,131,-1,131,246,247,-1,131,247,133,-1,133,247,248,-1,133,248,135,-1,135,248,249,-1,135,249,136,-1,136,249,250,-1,136,250,106,-1,106,250,251,-1,106,251,108,-1,108,251,252,-1,108,252,109,-1,109,252,62,-1,62,252,253,-1,62,253,254,-1,63,62,255,-1,255,62,254,-1,63,255,256,-1,63,256,65,-1,65,256,257,-1,65,257,26,-1,26,257,258,-1,26,258,27,-1,27,258,259,-1,27,259,29,-1,29,259,260,-1,29,260,31,-1,260,261,31,-1,31,261,262,-1,31,262,98,-1,98,262,263,-1,98,263,99,-1,99,263,264,-1,99,264,101,-1,101,264,265,-1,101,265,103,-1,103,265,266,-1,103,266,104,-1,104,266,267,-1,104,267,69,-1,69,267,268,-1,69,268,71,-1,71,268,269,-1,71,269,73,-1,73,269,270,-1,73,270,75,-1,77,75,271,-1,271,75,270,-1,77,271,272,-1,77,272,140,-1,140,272,273,-1,140,273,137,-1,137,273,274,-1,137,274,151,-1,151,274,275,-1,151,275,145,-1,145,275,276,-1,145,276,146,-1,146,276,277,-1,146,277,148,-1,148,277,278,-1,148,278,149,-1,149,278,279,-1,149,279,150,-1,150,279,280,-1,150,280,147,-1,147,280,281,-1,147,281,142,-1,142,281,282,-1,142,282,143,-1,143,282,283,-1,143,283,144,-1,144,283,284,-1,144,284,138,-1,138,284,285,-1,138,285,139,-1,139,285,286,-1,139,286,141,-1,141,286,287,-1,141,287,78,-1,78,287,288,-1,78,288,76,-1,74,76,289,-1,289,76,288,-1,74,289,290,-1,74,290,72,-1,72,290,291,-1,72,291,70,-1,70,291,292,-1,70,292,68,-1,68,292,293,-1,68,293,102,-1,102,293,294,-1,102,294,100,-1,100,294,156,-1,100,156,33,-1,90,295,296,-1,90,296,92,-1,92,296,297,-1,92,297,94,-1,94,297,298,-1,94,298,96,-1,96,298,299,-1,96,299,97,-1,97,299,300,-1,97,300,58,-1,58,300,301,-1,58,301,59,-1,59,301,302,-1,59,302,60,-1,60,302,303,-1,60,303,61,-1,61,303,304,-1,61,304,44,-1,44,304,305,-1,44,305,45,-1,45,305,306,-1,45,306,46,-1,46,306,307,-1,46,307,48,-1,48,307,308,-1,48,308,50,-1,50,308,309,-1,50,309,52,-1,52,309,310,-1,52,310,54,-1,54,310,311,-1,54,311,56,-1,56,311,312,-1,56,312,57,-1,57,312,313,-1,57,313,23,-1,23,313,314,-1,23,314,9,-1,9,314,315,-1,9,315,10,-1,10,315,316,-1,10,316,79,-1,79,316,317,-1,79,317,80,-1,80,317,318,-1,80,318,82,-1,82,318,319,-1,82,319,84,-1,84,319,320,-1,84,320,86,-1,86,320,321,-1,86,321,88,-1,88,321,295,-1,88,295,90,-1,
        ]
    }
}
Shape{
    appearance Appearance {
        material  Material {
            diffuseColor 0.25098039215686274 0.25098039215686274 0.25098039215686274
            specularColor 0.12549019607843137 0.12549019607843137 0.12549019607843137
            ambientIntensity 0.251
            transparency 0.0
            shininess 0.5
        }
    }
    geometry IndexedFaceSet {
        ccw TRUE
        solid FALSE
        coord DEF co Coordinate {
            point [
                -0.6342 -0.9016 2.4892, -0.6576 -0.9016 2.5534, -0.6613 -0.9016 2.5494, -0.6231 -0.9016 2.4904, -0.6149 -0.9016 2.4936, -0.6247 -0.9016 2.5623, -0.6326 -0.9016 2.5631, -0.6419 -0.9016 2.562, -0.6502 -0.9016 2.5587, -0.6677 -0.9016 2.5145, -0.664 -0.9016 2.5065, -0.6586 -0.9016 2.4998, -0.6326 -0.9016 2.4891, -0.6662 -0.9016 2.5416, -0.669 -0.9016 2.5327, -0.6695 -0.9016 2.5234, -0.6513 -0.9016 2.4942, -0.6427 -0.9016 2.4906, -0.6077 -0.9016 2.4988, -0.6025 -0.9016 2.5046, -0.5981 -0.9016 2.5128, -0.5958 -0.9016 2.5219, -0.5958 -0.9016 2.5306, -0.598 -0.9016 2.5394, -0.6021 -0.9016 2.5472, -0.6082 -0.9016 2.554, -0.6159 -0.9016 2.5591
            ]
        }
        coordIndex [
            0,1,2,-1,3,4,5,-1,6,7,0,-1,0,7,8,-1,0,8,1,-1,9,10,2,-1,2,10,11,-1,6,0,5,-1,5,0,12,-1,5,12,3,-1,13,14,2,-1,2,14,15,-1,2,15,9,-1,11,16,2,-1,2,16,17,-1,2,17,0,-1,4,18,5,-1,5,18,19,-1,5,19,20,-1,20,21,5,-1,5,21,22,-1,5,22,23,-1,23,24,5,-1,5,24,25,-1,5,25,26,-1,
        ]
    }
}