%TF.GenerationSoftware,KiCad,Pcbnew,10.0.6*%
%TF.CreationDate,2026-09-06T22:57:24+02:00*%
%TF.ProjectId,CH559-MASS,43483535-392d-44d4-9153-532e6b696361,rev?*%
%TF.SameCoordinates,Original*%
%TF.FileFunction,Legend,Top*%
%TF.FilePolarity,Positive*%
%FSLAX46Y46*%
G04 Gerber Fmt 4.6, Leading zero omitted, Abs format (unit mm)*
G04 Created by KiCad (PCBNEW 10.0.6) date 2026-09-06 22:57:24*
%MOMM*%
%LPD*%
G01*
G04 APERTURE LIST*
G04 Aperture macros list*
%AMRoundRect*
0 Rectangle with rounded corners*
0 $1 Rounding radius*
0 $2 $3 $4 $5 $6 $7 $8 $9 X,Y pos of 4 corners*
0 Add a 4 corners polygon primitive as box body*
4,1,4,$2,$3,$4,$5,$6,$7,$8,$9,$2,$3,0*
0 Add four circle primitives for the rounded corners*
1,1,$1+$1,$2,$3*
1,1,$1+$1,$4,$5*
1,1,$1+$1,$6,$7*
1,1,$1+$1,$8,$9*
0 Add four rect primitives between the rounded corners*
20,1,$1+$1,$2,$3,$4,$5,0*
20,1,$1+$1,$4,$5,$6,$7,0*
20,1,$1+$1,$6,$7,$8,$9,0*
20,1,$1+$1,$8,$9,$2,$3,0*%
%AMFreePoly0*
4,1,9,3.862500,-0.866500,0.737500,-0.866500,0.737500,-0.450000,-0.737500,-0.450000,-0.737500,0.450000,0.737500,0.450000,0.737500,0.866500,3.862500,0.866500,3.862500,-0.866500,3.862500,-0.866500,$1*%
G04 Aperture macros list end*
%ADD10C,0.150000*%
%ADD11C,0.120000*%
%ADD12C,0.152400*%
%ADD13C,0.250000*%
%ADD14C,0.060000*%
%ADD15C,0.000000*%
%ADD16C,0.200000*%
%ADD17C,0.400000*%
%ADD18R,1.700000X1.700000*%
%ADD19C,1.700000*%
%ADD20RoundRect,0.250000X-0.475000X0.250000X-0.475000X-0.250000X0.475000X-0.250000X0.475000X0.250000X0*%
%ADD21RoundRect,0.200000X-0.200000X-0.275000X0.200000X-0.275000X0.200000X0.275000X-0.200000X0.275000X0*%
%ADD22RoundRect,0.225000X0.225000X0.250000X-0.225000X0.250000X-0.225000X-0.250000X0.225000X-0.250000X0*%
%ADD23R,0.990600X0.990600*%
%ADD24R,1.500000X1.000000*%
%ADD25R,0.950000X1.150000*%
%ADD26RoundRect,0.250000X0.475000X-0.250000X0.475000X0.250000X-0.475000X0.250000X-0.475000X-0.250000X0*%
%ADD27RoundRect,0.150000X-0.587500X-0.150000X0.587500X-0.150000X0.587500X0.150000X-0.587500X0.150000X0*%
%ADD28RoundRect,0.225000X-0.225000X-0.250000X0.225000X-0.250000X0.225000X0.250000X-0.225000X0.250000X0*%
%ADD29RoundRect,0.225000X-0.425000X-0.225000X0.425000X-0.225000X0.425000X0.225000X-0.425000X0.225000X0*%
%ADD30FreePoly0,0.000000*%
%ADD31RoundRect,0.250000X0.250000X0.475000X-0.250000X0.475000X-0.250000X-0.475000X0.250000X-0.475000X0*%
%ADD32RoundRect,0.225000X-0.250000X0.225000X-0.250000X-0.225000X0.250000X-0.225000X0.250000X0.225000X0*%
%ADD33R,0.600000X0.900000*%
%ADD34R,3.200000X2.300000*%
%ADD35C,0.650000*%
%ADD36RoundRect,0.150000X-0.575000X0.150000X-0.575000X-0.150000X0.575000X-0.150000X0.575000X0.150000X0*%
%ADD37RoundRect,0.075000X-0.650000X0.075000X-0.650000X-0.075000X0.650000X-0.075000X0.650000X0.075000X0*%
%ADD38O,2.100000X1.000000*%
%ADD39O,1.600000X1.000000*%
%ADD40RoundRect,0.243750X-0.243750X-0.456250X0.243750X-0.456250X0.243750X0.456250X-0.243750X0.456250X0*%
%ADD41O,1.500000X0.270000*%
%ADD42O,0.270000X1.500000*%
%ADD43R,1.100000X1.200000*%
G04 APERTURE END LIST*
D10*
X154581905Y-126124819D02*
X154581905Y-125124819D01*
X154581905Y-125124819D02*
X154820000Y-125124819D01*
X154820000Y-125124819D02*
X154962857Y-125172438D01*
X154962857Y-125172438D02*
X155058095Y-125267676D01*
X155058095Y-125267676D02*
X155105714Y-125362914D01*
X155105714Y-125362914D02*
X155153333Y-125553390D01*
X155153333Y-125553390D02*
X155153333Y-125696247D01*
X155153333Y-125696247D02*
X155105714Y-125886723D01*
X155105714Y-125886723D02*
X155058095Y-125981961D01*
X155058095Y-125981961D02*
X154962857Y-126077200D01*
X154962857Y-126077200D02*
X154820000Y-126124819D01*
X154820000Y-126124819D02*
X154581905Y-126124819D01*
X156105714Y-126124819D02*
X155534286Y-126124819D01*
X155820000Y-126124819D02*
X155820000Y-125124819D01*
X155820000Y-125124819D02*
X155724762Y-125267676D01*
X155724762Y-125267676D02*
X155629524Y-125362914D01*
X155629524Y-125362914D02*
X155534286Y-125410533D01*
%TO.C,J6*%
D11*
X196834108Y-110415302D02*
X196834108Y-115715302D01*
X204564108Y-110415302D02*
X196834108Y-110415302D01*
X204564108Y-110415302D02*
X204564108Y-113065302D01*
X204564108Y-113065302D02*
X207214108Y-113065302D01*
X205834108Y-110415302D02*
X207214108Y-110415302D01*
X207214108Y-110415302D02*
X207214108Y-111795302D01*
X207214108Y-113065302D02*
X207214108Y-115715302D01*
X207214108Y-115715302D02*
X196834108Y-115715302D01*
%TO.C,C9*%
X165614700Y-126846853D02*
X165614700Y-127369357D01*
X167084700Y-126846853D02*
X167084700Y-127369357D01*
%TO.C,R2*%
X170792742Y-117137500D02*
X171267258Y-117137500D01*
X170792742Y-118182500D02*
X171267258Y-118182500D01*
%TO.C,C4*%
X170870580Y-121000000D02*
X170589420Y-121000000D01*
X170870580Y-122020000D02*
X170589420Y-122020000D01*
%TO.C,R4*%
X156632742Y-116397500D02*
X157107258Y-116397500D01*
X156632742Y-117442500D02*
X157107258Y-117442500D01*
%TO.C,SW1*%
D12*
X149954900Y-123498951D02*
X149954900Y-129747351D01*
X149954900Y-129747351D02*
X156203300Y-129747351D01*
X156203300Y-123498951D02*
X149954900Y-123498951D01*
X156203300Y-129747351D02*
X156203300Y-123498951D01*
X147398000Y-124373150D02*
G75*
G02*
X146991600Y-124373150I-203200J0D01*
G01*
X146991600Y-124373150D02*
G75*
G02*
X147398000Y-124373150I203200J0D01*
G01*
%TO.C,LED1*%
D13*
X195342500Y-117660000D02*
X200342500Y-117660000D01*
X195342500Y-117780000D02*
X195342500Y-117660000D01*
X195342500Y-120930000D02*
X195342500Y-119390000D01*
X195342500Y-122660000D02*
X195342500Y-122540000D01*
X198542500Y-122660000D02*
X199242500Y-121960000D01*
X199242500Y-121960000D02*
X199242500Y-122660000D01*
X199242500Y-122660000D02*
X198542500Y-122660000D01*
X199242500Y-122660000D02*
X199242500Y-122660000D01*
X200342500Y-117660000D02*
X200342500Y-117780000D01*
X200342500Y-119390000D02*
X200342500Y-120930000D01*
X200342500Y-122540000D02*
X200342500Y-122660000D01*
X200342500Y-122660000D02*
X195342500Y-122660000D01*
X194942500Y-117660000D02*
G75*
G02*
X194742500Y-117660000I-100000J0D01*
G01*
X194742500Y-117660000D02*
G75*
G02*
X194942500Y-117660000I100000J0D01*
G01*
D14*
X195172500Y-117660000D02*
G75*
G02*
X195112500Y-117660000I-30000J0D01*
G01*
X195112500Y-117660000D02*
G75*
G02*
X195172500Y-117660000I30000J0D01*
G01*
D13*
X199342500Y-120160000D02*
G75*
G02*
X196342500Y-120160000I-1500000J0D01*
G01*
X196342500Y-120160000D02*
G75*
G02*
X199342500Y-120160000I1500000J0D01*
G01*
D15*
G36*
X199242497Y-122560021D02*
G01*
X199142497Y-122660020D01*
X198542473Y-122660020D01*
X199242497Y-121959996D01*
X199242497Y-122560021D01*
G37*
%TO.C,D1*%
D10*
X153910000Y-120800000D02*
X153910000Y-120970000D01*
X153910000Y-122540000D02*
X153910000Y-122370000D01*
X156150000Y-122540000D02*
X156150000Y-120800000D01*
X156290000Y-122540000D02*
X156290000Y-120800000D01*
X156730000Y-120800000D02*
X153910000Y-120800000D01*
X156730000Y-120800000D02*
X156900000Y-120800000D01*
X156730000Y-120910000D02*
X156730000Y-120800000D01*
X156730000Y-122540000D02*
X153910000Y-122540000D01*
X156730000Y-122540000D02*
X156730000Y-122430000D01*
X156900000Y-120800000D02*
X156900000Y-120910000D01*
X156900000Y-120910000D02*
X156730000Y-120910000D01*
X156900000Y-122430000D02*
X156730000Y-122430000D01*
X156900000Y-122430000D02*
X156900000Y-122540000D01*
X156900000Y-122540000D02*
X156730000Y-122540000D01*
D14*
X157200000Y-120770000D02*
G75*
G02*
X157140000Y-120770000I-30000J0D01*
G01*
X157140000Y-120770000D02*
G75*
G02*
X157200000Y-120770000I30000J0D01*
G01*
%TO.C,C8*%
D11*
X170125000Y-113181252D02*
X170125000Y-112658748D01*
X171595000Y-113181252D02*
X171595000Y-112658748D01*
%TO.C,D2*%
X189880000Y-119870000D02*
X191400000Y-119870000D01*
X189880000Y-119920000D02*
X189880000Y-119870000D01*
X189880000Y-121820000D02*
X189880000Y-121040000D01*
X189880000Y-122990000D02*
X189880000Y-122940000D01*
X191400000Y-119870000D02*
X191400000Y-120870000D01*
X191400000Y-121990000D02*
X191400000Y-122990000D01*
X191400000Y-122990000D02*
X189880000Y-122990000D01*
X189340000Y-121050000D02*
X189580000Y-121380000D01*
X189100000Y-121380000D01*
X189340000Y-121050000D01*
G36*
X189580000Y-121380000D02*
G01*
X189100000Y-121380000D01*
X189340000Y-121050000D01*
X189580000Y-121380000D01*
G37*
%TO.C,C5*%
X169669420Y-125990000D02*
X169950580Y-125990000D01*
X169669420Y-127010000D02*
X169950580Y-127010000D01*
%TO.C,R1*%
X170792742Y-115607500D02*
X171267258Y-115607500D01*
X170792742Y-116652500D02*
X171267258Y-116652500D01*
%TO.C,J3*%
X183014108Y-110435302D02*
X195934108Y-110435302D01*
X183014108Y-113085302D02*
X183014108Y-110435302D01*
X183014108Y-115735302D02*
X183014108Y-114355302D01*
X184394108Y-115735302D02*
X183014108Y-115735302D01*
X185664108Y-113085302D02*
X183014108Y-113085302D01*
X185664108Y-115735302D02*
X185664108Y-113085302D01*
X185664108Y-115735302D02*
X195934108Y-115735302D01*
X195934108Y-115735302D02*
X195934108Y-110435302D01*
%TO.C,U4*%
X173560000Y-110467500D02*
X176140000Y-110467500D01*
X176140000Y-111447500D02*
X176140000Y-110467500D01*
X176140000Y-114207500D02*
X176140000Y-115187500D01*
X176140000Y-115187500D02*
X173420000Y-115187500D01*
X173010000Y-110617500D02*
X172770000Y-110287500D01*
X173250000Y-110287500D01*
X173010000Y-110617500D01*
G36*
X173010000Y-110617500D02*
G01*
X172770000Y-110287500D01*
X173250000Y-110287500D01*
X173010000Y-110617500D01*
G37*
%TO.C,R3*%
X156642742Y-113597500D02*
X157117258Y-113597500D01*
X156642742Y-114642500D02*
X157117258Y-114642500D01*
%TO.C,C1*%
X181319420Y-117290000D02*
X181600580Y-117290000D01*
X181319420Y-118310000D02*
X181600580Y-118310000D01*
%TO.C,C10*%
X173351252Y-123585000D02*
X172828748Y-123585000D01*
X173351252Y-125055000D02*
X172828748Y-125055000D01*
%TO.C,C6*%
X193060580Y-118030000D02*
X192779420Y-118030000D01*
X193060580Y-119050000D02*
X192779420Y-119050000D01*
%TO.C,C2*%
X178555580Y-117290000D02*
X178274420Y-117290000D01*
X178555580Y-118310000D02*
X178274420Y-118310000D01*
%TO.C,C3*%
X163940000Y-126649420D02*
X163940000Y-126930580D01*
X164960000Y-126649420D02*
X164960000Y-126930580D01*
%TO.C,U3*%
D10*
X159790000Y-112010000D02*
X159790000Y-124670000D01*
X159790000Y-124670000D02*
X161830000Y-124670000D01*
X161820000Y-112040000D02*
X159790000Y-112010000D01*
X166940000Y-112030000D02*
X168950000Y-112010000D01*
X167750000Y-112010000D02*
X167750000Y-112080000D01*
X167750000Y-112080000D02*
X168950000Y-113270000D01*
X168950000Y-112010000D02*
X168950000Y-124670000D01*
X168950000Y-124670000D02*
X166940000Y-124660000D01*
D16*
X167140000Y-111610000D02*
G75*
G02*
X166940000Y-111610000I-100000J0D01*
G01*
X166940000Y-111610000D02*
G75*
G02*
X167140000Y-111610000I100000J0D01*
G01*
D14*
X168900000Y-112090000D02*
G75*
G02*
X168840000Y-112090000I-30000J0D01*
G01*
X168840000Y-112090000D02*
G75*
G02*
X168900000Y-112090000I30000J0D01*
G01*
D15*
G36*
X168946191Y-113260000D02*
G01*
X167799000Y-112013825D01*
X168946191Y-112013825D01*
X168946191Y-113260000D01*
G37*
%TO.C,J1*%
D11*
X145980000Y-110650000D02*
X145980000Y-120050000D01*
X147880000Y-110650000D02*
X145980000Y-110650000D01*
X147880000Y-120050000D02*
X145980000Y-120050000D01*
X151780000Y-110650000D02*
X149780000Y-110650000D01*
X151780000Y-120050000D02*
X149780000Y-120050000D01*
%TO.C,F1*%
X156811422Y-118010000D02*
X157328578Y-118010000D01*
X156811422Y-119430000D02*
X157328578Y-119430000D01*
%TO.C,J5*%
X179404108Y-113215302D02*
X179404108Y-111835302D01*
X180784108Y-113215302D02*
X179404108Y-113215302D01*
X182054108Y-110455302D02*
X182164108Y-110455302D01*
X182054108Y-113215302D02*
X182054108Y-110455302D01*
X182054108Y-113215302D02*
X182164108Y-113215302D01*
X182164108Y-113215302D02*
X182164108Y-110455302D01*
%TO.C,U1*%
D16*
X176650000Y-120390000D02*
X183300000Y-120390000D01*
X176650000Y-127020000D02*
X176650000Y-120390000D01*
X183300000Y-120390000D02*
X183300000Y-121150000D01*
X183300000Y-120820000D02*
X183300000Y-127020000D01*
X183300000Y-127020000D02*
X176650000Y-127020000D01*
D17*
X175900000Y-120330000D02*
G75*
G02*
X175899984Y-120327452I-200000J18D01*
G01*
D14*
X175490000Y-119220000D02*
G75*
G02*
X175430000Y-119220000I-30000J0D01*
G01*
X175430000Y-119220000D02*
G75*
G02*
X175490000Y-119220000I30000J0D01*
G01*
D13*
X177300000Y-121100000D02*
G75*
G02*
X176960000Y-121100000I-170000J0D01*
G01*
X176960000Y-121100000D02*
G75*
G02*
X177300000Y-121100000I170000J0D01*
G01*
%TO.C,J2*%
D11*
X188064108Y-124255302D02*
X200984108Y-124255302D01*
X188064108Y-126905302D02*
X188064108Y-124255302D01*
X188064108Y-129555302D02*
X188064108Y-128175302D01*
X189444108Y-129555302D02*
X188064108Y-129555302D01*
X190714108Y-126905302D02*
X188064108Y-126905302D01*
X190714108Y-129555302D02*
X190714108Y-126905302D01*
X190714108Y-129555302D02*
X200984108Y-129555302D01*
X200984108Y-129555302D02*
X200984108Y-124255302D01*
%TO.C,X1*%
D10*
X171525000Y-125455000D02*
X171525000Y-127115000D01*
X171755000Y-125685000D02*
X174815000Y-125685000D01*
X171755000Y-129245000D02*
X171755000Y-125685000D01*
X173085000Y-125455000D02*
X171525000Y-125455000D01*
X174815000Y-125685000D02*
X174815000Y-129245000D01*
X174815000Y-129245000D02*
X171755000Y-129245000D01*
D14*
X172315000Y-126215000D02*
G75*
G02*
X172255000Y-126215000I-30000J0D01*
G01*
X172255000Y-126215000D02*
G75*
G02*
X172315000Y-126215000I30000J0D01*
G01*
%TO.C,J4*%
D11*
X201919108Y-116605302D02*
X203299108Y-116605302D01*
X201919108Y-117985302D02*
X201919108Y-116605302D01*
X201919108Y-119255302D02*
X201919108Y-129525302D01*
X201919108Y-119255302D02*
X204569108Y-119255302D01*
X201919108Y-129525302D02*
X207219108Y-129525302D01*
X204569108Y-116605302D02*
X207219108Y-116605302D01*
X204569108Y-119255302D02*
X204569108Y-116605302D01*
X207219108Y-116605302D02*
X207219108Y-129525302D01*
%TO.C,C7*%
X157905000Y-121731252D02*
X157905000Y-121208748D01*
X159375000Y-121731252D02*
X159375000Y-121208748D01*
%TD*%
%LPC*%
D18*
%TO.C,J6*%
X205834108Y-111795302D03*
D19*
X205834108Y-114335302D03*
X203294108Y-111795302D03*
X203294108Y-114335302D03*
X200754108Y-111795302D03*
X200754108Y-114335302D03*
X198214108Y-111795302D03*
X198214108Y-114335302D03*
%TD*%
D20*
%TO.C,C9*%
X166349700Y-126158105D03*
X166349700Y-128058105D03*
%TD*%
D21*
%TO.C,R2*%
X170205000Y-117660000D03*
X171855000Y-117660000D03*
%TD*%
D22*
%TO.C,C4*%
X171505000Y-121510000D03*
X169955000Y-121510000D03*
%TD*%
D21*
%TO.C,R4*%
X156045000Y-116920000D03*
X157695000Y-116920000D03*
%TD*%
D23*
%TO.C,SW1*%
X148579101Y-124373150D03*
X157579099Y-124373150D03*
X148579101Y-128873152D03*
X157579099Y-128873152D03*
%TD*%
D24*
%TO.C,LED1*%
X195392500Y-118510000D03*
X195392500Y-121810000D03*
X200292500Y-121810000D03*
X200292500Y-118510000D03*
%TD*%
D25*
%TO.C,D1*%
X157010000Y-121670000D03*
X153630000Y-121670000D03*
%TD*%
D26*
%TO.C,C8*%
X170860000Y-113870000D03*
X170860000Y-111970000D03*
%TD*%
D27*
%TO.C,D2*%
X189702500Y-120480000D03*
X189702500Y-122380000D03*
X191577500Y-121430000D03*
%TD*%
D28*
%TO.C,C5*%
X169035000Y-126500000D03*
X170585000Y-126500000D03*
%TD*%
D21*
%TO.C,R1*%
X170205000Y-116130000D03*
X171855000Y-116130000D03*
%TD*%
D18*
%TO.C,J3*%
X184394108Y-114355302D03*
D19*
X184394108Y-111815302D03*
X186934108Y-114355302D03*
X186934108Y-111815302D03*
X189474108Y-114355302D03*
X189474108Y-111815302D03*
X192014108Y-114355302D03*
X192014108Y-111815302D03*
X194554108Y-114355302D03*
X194554108Y-111815302D03*
%TD*%
D29*
%TO.C,U4*%
X172830000Y-111327500D03*
D30*
X172917500Y-112827500D03*
D29*
X172830000Y-114327500D03*
%TD*%
D21*
%TO.C,R3*%
X156055000Y-114120000D03*
X157705000Y-114120000D03*
%TD*%
D28*
%TO.C,C1*%
X180685000Y-117800000D03*
X182235000Y-117800000D03*
%TD*%
D31*
%TO.C,C10*%
X174040000Y-124320000D03*
X172140000Y-124320000D03*
%TD*%
D22*
%TO.C,C6*%
X193695000Y-118540000D03*
X192145000Y-118540000D03*
%TD*%
%TO.C,C2*%
X179190000Y-117800000D03*
X177640000Y-117800000D03*
%TD*%
D32*
%TO.C,C3*%
X164450000Y-126015000D03*
X164450000Y-127565000D03*
%TD*%
D33*
%TO.C,U3*%
X166270000Y-112670000D03*
X166270000Y-114920000D03*
X165000000Y-112670000D03*
X165000000Y-114920000D03*
X163740000Y-112670000D03*
X163740000Y-114920000D03*
X162470000Y-112670000D03*
X162470000Y-114920000D03*
X162470000Y-121760000D03*
X162470000Y-124010000D03*
X163740000Y-121760000D03*
X163740000Y-124010000D03*
X165000000Y-121760000D03*
X165000000Y-124010000D03*
X166270000Y-121760000D03*
X166270000Y-124010000D03*
D34*
X164370000Y-118340000D03*
%TD*%
D35*
%TO.C,J1*%
X152480000Y-112460000D03*
X152480000Y-118240000D03*
D36*
X153925000Y-112100000D03*
X153925000Y-112900000D03*
D37*
X153925000Y-114100000D03*
X153925000Y-115100000D03*
X153925000Y-115600000D03*
X153925000Y-116600000D03*
D36*
X153925000Y-117800000D03*
X153925000Y-118600000D03*
X153925000Y-118600000D03*
X153925000Y-117800000D03*
D37*
X153925000Y-117100000D03*
X153925000Y-116100000D03*
X153925000Y-114600000D03*
X153925000Y-113600000D03*
D36*
X153925000Y-112900000D03*
X153925000Y-112100000D03*
D38*
X153010000Y-111030000D03*
D39*
X148830000Y-111030000D03*
D38*
X153010000Y-119670000D03*
D39*
X148830000Y-119670000D03*
%TD*%
D40*
%TO.C,F1*%
X156132500Y-118720000D03*
X158007500Y-118720000D03*
%TD*%
D18*
%TO.C,J5*%
X180784108Y-111835302D03*
%TD*%
D41*
%TO.C,U1*%
X175710000Y-120970000D03*
X175710000Y-121470000D03*
X175710000Y-121970000D03*
X175710000Y-122470000D03*
X175710000Y-122970000D03*
X175710000Y-123470000D03*
X175710000Y-123970000D03*
X175710000Y-124470000D03*
X175710000Y-124970000D03*
X175710000Y-125470000D03*
X175710000Y-125970000D03*
X175710000Y-126470000D03*
D42*
X177210000Y-127970000D03*
X177710000Y-127970000D03*
X178210000Y-127970000D03*
X178710000Y-127970000D03*
X179210000Y-127970000D03*
X179710000Y-127970000D03*
X180210000Y-127970000D03*
X180710000Y-127970000D03*
X181210000Y-127970000D03*
X181710000Y-127970000D03*
X182210000Y-127970000D03*
X182710000Y-127970000D03*
D41*
X184210000Y-126470000D03*
X184210000Y-125970000D03*
X184210000Y-125470000D03*
X184210000Y-124970000D03*
X184210000Y-124470000D03*
X184210000Y-123970000D03*
X184210000Y-123470000D03*
X184210000Y-122970000D03*
X184210000Y-122470000D03*
X184210000Y-121970000D03*
X184210000Y-121470000D03*
X184210000Y-120970000D03*
D42*
X182710000Y-119470000D03*
X182210000Y-119470000D03*
X181710000Y-119470000D03*
X181210000Y-119470000D03*
X180710000Y-119470000D03*
X180210000Y-119470000D03*
X179710000Y-119470000D03*
X179210000Y-119470000D03*
X178710000Y-119470000D03*
X178210000Y-119470000D03*
X177710000Y-119470000D03*
X177210000Y-119470000D03*
%TD*%
D18*
%TO.C,J2*%
X189444108Y-128175302D03*
D19*
X189444108Y-125635302D03*
X191984108Y-128175302D03*
X191984108Y-125635302D03*
X194524108Y-128175302D03*
X194524108Y-125635302D03*
X197064108Y-128175302D03*
X197064108Y-125635302D03*
X199604108Y-128175302D03*
X199604108Y-125635302D03*
%TD*%
D43*
%TO.C,X1*%
X172535000Y-126515000D03*
X172535000Y-128415000D03*
X174035000Y-128415000D03*
X174035000Y-126515000D03*
%TD*%
D18*
%TO.C,J4*%
X203299108Y-117985302D03*
D19*
X205839108Y-117985302D03*
X203299108Y-120525302D03*
X205839108Y-120525302D03*
X203299108Y-123065302D03*
X205839108Y-123065302D03*
X203299108Y-125605302D03*
X205839108Y-125605302D03*
X203299108Y-128145302D03*
X205839108Y-128145302D03*
%TD*%
D26*
%TO.C,C7*%
X158640000Y-122420000D03*
X158640000Y-120520000D03*
%TD*%
%LPD*%
M02*
