#VRML V2.0 utf8
# 3D model generated by kicad-lcsc-manager
# Based on easyeda2kicad.py v1.0.1

Shape{
    appearance Appearance {
        material  Material {
            diffuseColor 0.8823529411764706 0.8823529411764706 0.8823529411764706
            specularColor 0.4392156862745098 0.4392156862745098 0.4392156862745098
            ambientIntensity 0.8824
            transparency 0.0
            shininess 0.5
        }
    }
    geometry IndexedFaceSet {
        ccw TRUE
        solid FALSE
        coord DEF co Coordinate {
            point [
                0.385 -0.2189 0.1969, 0.4238 -0.2233 0.1969, 0.2999 -0.5145 0.1969, 0.0144 -0.2237 0.1969, 0.1632 -0.2237 0.1969, 0.1632 -0.3533 0.1969, 0.024 -0.3533 0.1969, 0.024 -0.3966 0.1969, -0.0337 -0.5766 0.1969, 0.5195 -0.5406 0.1969, 0.5491 -0.5095 0.1969, 0.6193 -0.5742 0.1969, 0.4243 -0.5766 0.1969, 0.821 -0.5742 0.1969, 0.3372 -0.2251 0.1969, 0.2928 -0.5106 0.1969, 0.2928 -0.2441 0.1969, 0.0144 -0.1805 0.1969, -0.0337 1.4764 0.1969, 0.216 -0.1805 0.1969, 3.937 1.4764 0.1969, 0.821 -0.1805 0.1969, 0.7681 -0.1805 0.1969, 0.5649 -0.2842 0.1969, 0.5418 -0.2474 0.1969, 0.5063 -0.2132 0.1969, 0.4689 -0.1917 0.1969, 0.6193 -0.531 0.1969, 0.57 -0.4721 0.1969, 0.7681 -0.531 0.1969, 0.425 -0.1789 0.1969, 0.3855 -0.1757 0.1969, 0.3383 -0.179 0.1969, 0.2928 -0.1913 0.1969, 0.216 -0.5742 0.1969, 0.2928 -0.5538 0.1969, 0.4497 -0.574 0.1969, 0.4878 -0.5608 0.1969, 0.4533 -0.2339 0.1969, 0.4805 -0.2521 0.1969, 0.5043 -0.2784 0.1969, 0.5329 -0.3816 0.1969, 0.5289 -0.4242 0.1969, 0.5182 -0.458 0.1969, 0.4306 -0.5317 0.1969, 0.3939 -0.5358 0.1969, 0.4593 -0.5211 0.1969, 0.4834 -0.5048 0.1969, 0.5019 -0.4853 0.1969, 0.3416 -0.53 0.1969, 0.5819 -0.4304 0.1969, 0.5857 -0.3848 0.1969, 0.58 -0.3288 0.1969, 0.5205 -0.3088 0.1969, 0.531 -0.3509 0.1969, 0.1632 -0.3966 0.1969, 0.1632 -0.531 0.1969, 0.0048 -0.531 0.1969, 0.0048 -0.5742 0.1969, 0.3746 -0.5766 0.1969, 0.3904 -0.5788 0.1969, -0.0337 -1.4764 0.1969, 0.4012 -0.579 0.1969, 3.937 -0.5766 0.1969, 3.937 -1.4764 0.1969, -0.7154 -0.5742 0.1969, -0.773 -0.5742 0.1969, -3.937 -0.5766 0.1969, -0.6194 -0.1805 0.1969, -3.937 1.4764 0.1969, -0.5666 -0.1805 0.1969, -0.1791 -0.5742 0.1969, -0.0721 -0.5742 0.1969, -0.0721 -0.1805 0.1969, -0.1832 -0.1805 0.1969, -0.3294 -0.2318 0.1969, -0.3572 -0.2627 0.1969, -0.3755 -0.2966 0.1969, -0.4178 -0.5742 0.1969, -0.3693 -0.4663 0.1969, -0.3467 -0.5015 0.1969, -0.2401 -0.1866 0.1969, -0.2861 -0.2028 0.1969, -0.329 -0.2315 0.1969, -0.3143 -0.5325 0.1969, -0.2732 -0.5564 0.1969, -0.2278 -0.57 0.1969, -0.4754 -0.5742 0.1969, -0.513 -0.4638 0.1969, -0.6756 -0.4638 0.1969, -0.3861 -0.3354 0.1969, -0.389 -0.3724 0.1969, -0.3834 -0.4251 0.1969, 0.3348 -0.571 0.1969, -3.937 -1.4764 0.1969, 3.7996 -1.6732 3.937, 4.1339 -1.6732 3.937, 4.1339 -0.6721 3.937, -2.6417 -1.6732 3.937, -0.4956 -1.6732 3.937, -0.4956 -0.6721 3.937, 3.2079 -0.6703 3.937, 3.1913 -0.6721 3.937, 3.7996 -0.6721 3.937, 1.7154 0.5234 3.937, 1.3625 0.5234 3.937, 1.3625 -0.5353 3.937, 0.9448 0.2713 3.937, 0.9448 0.4154 3.937, 0.8295 0.5234 3.937, 1.6218 -0.5353 3.937, 1.6218 -0.6649 3.937, 1.7154 -0.6721 3.937, 0.9448 -0.6649 3.937, 0.8295 -0.6721 3.937, 0.9448 -0.5353 3.937, 1.3625 0.5306 3.937, 1.7154 1.6732 3.937, 1.3364 0.5234 3.937, 0.8295 1.6732 3.937, 3.307 -0.2368 3.937, 3.307 0.5162 3.937, 2.9613 0.5234 3.937, 3.0543 -0.6721 3.937, 3.0045 -0.6579 3.937, 2.9613 -0.6721 3.937, 3.0045 -0.5209 3.937, 3.3018 -0.3324 3.937, 3.1055 -0.5491 3.937, 3.7996 0.5234 3.937, 3.4246 -0.4747 3.937, 3.3799 -0.5552 3.937, 3.3301 -0.609 3.937, 3.275 -0.6459 3.937, 3.2756 -0.4417 3.937, 3.1224 -0.5497 3.937, 3.163 -0.5454 3.937, 3.2814 -0.4265 3.937, 3.1956 -0.5341 3.937, 3.2247 -0.5151 3.937, 3.2497 -0.4884 3.937, 3.4654 0.5162 3.937, 3.4654 -0.233 3.937, 3.4541 -0.3714 3.937, -3.3763 -0.474 3.937, -4.1339 0.5234 3.937, -3.3763 -0.6325 3.937, -4.1339 -0.6721 3.937, -3.2313 -0.6721 3.937, -3.2535 -0.6706 3.937, -3.346 -0.6468 3.937, -3.1492 -0.0743 3.937, -3.1509 -0.5491 3.937, -3.1288 -0.5497 3.937, -2.757 0.3866 3.937, -2.6417 -0.6721 3.937, -2.6417 0.5234 3.937, -3.258 -0.5298 3.937, -3.2413 -0.0777 3.937, -3.3331 -0.0849 3.937, -3.3331 0.5162 3.937, -2.757 0.5162 3.937, -2.9448 -0.126 3.937, -2.9531 -0.1205 3.937, -2.8261 -0.0193 3.937, -2.77 -0.0732 3.937, -3.0315 -0.6721 3.937, -2.9278 -0.6459 3.937, -2.8496 -0.6042 3.937, -2.894 0.0198 3.937, -3.0006 -0.0972 3.937, -3.083 -0.0781 3.937, -2.7104 -0.3986 3.937, -2.7385 -0.4762 3.937, -2.782 -0.5419 3.937, -2.8642 -0.2466 3.937, -2.8801 -0.2008 3.937, -2.9081 -0.1587 3.937, -2.9017 -0.4497 3.937, -3.0527 -0.5424 3.937, -2.9379 -0.4879 3.937, -2.9921 -0.5224 3.937, -2.8767 -0.4064 3.937, -2.8618 -0.3554 3.937, -2.8578 -0.3068 3.937, -3.1891 0.0515 3.937, -3.1397 0.054 3.937, -3.1891 0.3866 3.937, -3.0903 0.0553 3.937, -2.9806 0.0456 3.937, -2.7332 -0.1319 3.937, -2.7097 -0.2008 3.937, -2.6994 -0.298 3.937, -4.1339 -1.6732 3.937, -3.1247 -0.6793 3.937, -3.0392 -0.674 3.937, 1.809 -0.5353 3.937, 2.9181 -0.5353 3.937, 3.0522 -0.5411 3.937, 2.0914 -0.5359 3.937, 1.9582 -0.4221 3.937, 1.8799 -0.3124 3.937, 2.2851 0.5234 3.937, 2.2244 0.5177 3.937, 2.1069 0.481 3.937, 2.9181 -0.6649 3.937, 2.486 -0.6649 3.937, 1.8238 0.1276 3.937, 1.8632 0.2445 3.937, 2.6315 0.4766 3.937, 2.5112 0.5159 3.937, 2.4351 0.5234 3.937, 2.7303 0.4151 3.937, 2.8154 0.3276 3.937, 2.8753 0.2213 3.937, 2.8493 -0.3073 3.937, 2.7698 -0.4199 3.937, 2.6511 -0.5247 3.937, 2.635 -0.5359 3.937, 2.7596 -0.0239 3.937, 2.7484 0.0922 3.937, 2.1949 -0.4982 3.937, 2.1256 -0.4301 3.937, 1.9239 0.3408 3.937, 2.0014 0.4173 3.937, 2.9077 0.1079 3.937, 2.9181 -0.0172 3.937, 2.8998 -0.1747 3.937, 2.486 -0.5359 3.937, 2.2411 -0.5359 3.937, 2.2411 -0.6649 3.937, 1.809 -0.6649 3.937, 2.6328 -0.3934 3.937, 2.7028 -0.281 3.937, 2.7458 -0.1557 3.937, 1.8305 -0.1892 3.937, 1.8099 -0.0539 3.937, 1.809 -0.0187 3.937, 2.0002 0.1628 3.937, 1.9749 0.0699 3.937, 2.2614 0.3897 3.937, 2.3662 0.401 3.937, 1.9674 -0.0246 3.937, 1.9855 -0.1737 3.937, 2.0371 -0.3058 3.937, 2.6714 0.2604 3.937, 2.608 0.3236 3.937, 2.718 0.1847 3.937, 2.538 0.3662 3.937, 2.4546 0.3928 3.937, 2.179 0.3603 3.937, 2.1027 0.3087 3.937, 2.0452 0.2454 3.937, 2.3617 0.5306 3.937, 2.9613 1.6732 3.937, 0.0373 -0.474 3.937, -0.4956 0.5234 3.937, 0.0373 -0.6325 3.937, 0.0677 -0.6468 3.937, 0.2644 -0.0743 3.937, 0.2628 -0.5491 3.937, 0.2849 -0.5497 3.937, 1.2184 -0.5353 3.937, 1.2184 0.3506 3.937, 0.6567 0.3866 3.937, 0.1557 -0.5298 3.937, 0.1724 -0.0777 3.937, 0.0806 -0.0849 3.937, 0.0806 0.5162 3.937, 0.6567 0.5162 3.937, 0.4689 -0.126 3.937, 0.4606 -0.1205 3.937, 0.5875 -0.0193 3.937, 0.6436 -0.0732 3.937, 0.5641 -0.6042 3.937, 0.4859 -0.6459 3.937, 0.5197 0.0198 3.937, 0.4131 -0.0972 3.937, 0.3307 -0.0781 3.937, 0.7032 -0.3986 3.937, 0.6752 -0.4762 3.937, 0.6316 -0.5419 3.937, 0.5495 -0.2466 3.937, 0.5336 -0.2008 3.937, 0.5056 -0.1587 3.937, 0.512 -0.4497 3.937, 0.361 -0.5424 3.937, 0.4758 -0.4879 3.937, 0.4215 -0.5224 3.937, 0.537 -0.4064 3.937, 0.5518 -0.3554 3.937, 0.5559 -0.3068 3.937, 0.2246 0.0515 3.937, 0.274 0.054 3.937, 0.2246 0.3866 3.937, 0.3234 0.0553 3.937, 0.4331 0.0456 3.937, 0.6805 -0.1319 3.937, 0.7039 -0.2008 3.937, 0.7143 -0.298 3.937, 0.3821 -0.6721 3.937, 0.3745 -0.674 3.937, 0.8295 -1.6732 3.937, 0.289 -0.6793 3.937, 0.1824 -0.6721 3.937, 0.1602 -0.6706 3.937, 3.0637 -0.6747 3.937, 2.9613 -1.6732 3.937, 1.7154 -1.6732 3.937, 3.1251 -0.6793 3.937, -2.0656 -0.6649 3.937, -2.2384 -0.6649 3.937, -1.187 0.5162 3.937, -1.0285 0.5162 3.937, -1.3598 -0.6649 3.937, -1.5327 -0.6649 3.937, -2.5841 0.5162 3.937, -2.4113 0.5162 3.937, -1.4542 -0.4354 3.937, -1.4462 -0.492 3.937, -1.4377 -0.4338 3.937, -1.8136 0.2533 3.937, -1.8275 0.1933 3.937, -1.7919 0.3146 3.937, -1.8063 0.3146 3.937, -1.7857 0.2526 3.937, -1.7728 0.1917 3.937, -1.4237 -0.3766 3.937, -1.7199 0.5162 3.937, -1.8639 0.5162 3.937, -2.1261 -0.3714 3.937, -2.1709 -0.3714 3.937, -2.1419 -0.4311 3.937, -2.1584 -0.4312 3.937, -2.152 -0.492 3.937, -1.4667 -0.3795 3.937, 4.1339 0.5234 3.937, -0.4956 1.6732 3.937, -2.6417 1.6732 3.937, -4.1339 1.6732 3.937, 4.1339 1.6732 3.937, 3.7996 1.6732 3.937, 3.937 -1.4764 0.0, 4.3307 -1.8701 0.0, -3.937 -1.4764 0.0, -4.3307 -1.8701 0.0, -3.937 1.4764 0.0, -4.3307 1.8701 0.0, 3.937 1.4764 0.0, 4.3307 1.8701 0.0, 4.3307 1.8701 3.7402, -4.3307 1.8701 3.7402, -4.3307 -1.8701 3.7402, 4.3307 -1.8701 3.7402, 4.3307 -0.0346 1.7408, 4.3307 0.0 1.7362, 4.3307 0.0346 1.7408, 4.3307 -0.0669 1.7542, 4.3307 -0.0947 1.7754, 4.3307 -0.1159 1.8031, 4.3307 -0.1159 1.937, 4.3307 -0.0947 1.9647, 4.3307 0.1159 1.8031, 4.3307 0.0947 1.7754, 4.3307 0.0669 1.7542, 4.3307 -0.0669 1.986, 4.3307 -0.0346 1.9994, 4.3307 -0.0 2.0039, 4.3307 0.0346 1.9994, 4.3307 0.0669 1.986, 4.3307 0.0947 1.9647, 4.3307 0.1159 1.937, 4.3307 -0.1293 1.8354, 4.3307 -0.1339 1.8701, 4.3307 -0.1293 1.9047, 4.3307 0.1293 1.9047, 4.3307 0.1339 1.8701, 4.3307 0.1293 1.8354, -4.3307 0.0346 1.9994, -4.3307 0.0 2.0039, -4.3307 -0.1159 1.8031, -4.3307 -0.0947 1.7754, -4.3307 -0.0669 1.7542, -4.3307 -0.0346 1.7408, -4.3307 0.0 1.7362, -4.3307 0.0346 1.7408, -4.3307 0.0669 1.7542, -4.3307 0.0947 1.7754, -4.3307 -0.1159 1.937, -4.3307 -0.0947 1.9647, -4.3307 -0.0669 1.986, -4.3307 -0.0346 1.9994, -4.3307 0.1293 1.9047, -4.3307 0.1159 1.937, -4.3307 -0.1293 1.9047, -4.3307 -0.1339 1.8701, -4.3307 -0.1293 1.8354, -4.3307 0.0947 1.9647, -4.3307 0.0669 1.986, -4.3307 0.1159 1.8031, -4.3307 0.1293 1.8354, -4.3307 0.1339 1.8701
            ]
        }
        coordIndex [
            0,1,2,-1,3,4,5,-1,6,7,8,-1,9,10,11,-1,12,11,13,-1,0,2,14,-1,14,2,15,-1,14,15,16,-1,5,6,3,-1,3,6,8,-1,3,8,17,-1,17,8,18,-1,17,18,19,-1,19,18,20,-1,20,21,22,-1,23,24,22,-1,22,24,25,-1,22,25,26,-1,11,10,27,-1,27,10,28,-1,27,28,29,-1,26,30,22,-1,22,30,31,-1,22,31,20,-1,20,31,32,-1,20,32,19,-1,32,33,19,-1,19,33,16,-1,19,16,34,-1,34,16,15,-1,34,15,35,-1,12,36,11,-1,11,36,37,-1,11,37,9,-1,1,38,2,-1,2,38,39,-1,2,39,40,-1,41,42,2,-1,2,42,43,-1,44,45,46,-1,46,45,47,-1,43,48,2,-1,2,48,47,-1,2,47,49,-1,49,47,45,-1,28,50,29,-1,29,50,51,-1,29,51,22,-1,22,51,52,-1,22,52,23,-1,40,53,2,-1,2,53,54,-1,2,54,41,-1,55,56,7,-1,7,56,57,-1,7,57,8,-1,8,57,58,-1,8,58,34,-1,59,60,61,-1,61,60,62,-1,61,62,12,-1,21,20,13,-1,13,20,63,-1,13,63,12,-1,12,63,64,-1,12,64,61,-1,65,8,66,-1,66,8,67,-1,66,67,68,-1,68,67,69,-1,68,69,70,-1,70,69,18,-1,71,72,8,-1,8,72,73,-1,8,73,18,-1,18,73,74,-1,75,76,70,-1,70,76,77,-1,78,79,80,-1,74,81,18,-1,18,81,82,-1,18,82,70,-1,70,82,83,-1,70,83,75,-1,80,84,78,-1,78,84,85,-1,78,85,86,-1,86,71,78,-1,78,71,8,-1,78,8,87,-1,87,8,65,-1,87,65,88,-1,88,65,89,-1,77,90,70,-1,70,90,91,-1,70,91,78,-1,78,91,92,-1,78,92,79,-1,35,93,34,-1,34,93,59,-1,34,59,8,-1,8,59,61,-1,8,61,67,-1,67,61,94,-1,95,96,97,-1,98,99,100,-1,101,102,103,-1,104,105,106,-1,107,108,109,-1,110,111,112,-1,112,111,113,-1,112,113,114,-1,114,113,115,-1,116,117,118,-1,118,117,119,-1,120,121,122,-1,123,124,125,-1,125,124,126,-1,127,120,128,-1,122,121,129,-1,130,131,103,-1,131,132,103,-1,103,132,133,-1,103,133,101,-1,134,135,136,-1,135,134,128,-1,128,134,137,-1,128,137,127,-1,136,138,134,-1,134,138,139,-1,134,139,140,-1,141,142,103,-1,103,142,143,-1,103,143,130,-1,144,145,146,-1,146,145,147,-1,148,149,147,-1,147,149,150,-1,147,150,146,-1,151,152,153,-1,154,155,156,-1,152,151,157,-1,157,151,158,-1,157,158,144,-1,144,158,159,-1,144,159,145,-1,145,159,160,-1,145,160,156,-1,156,160,161,-1,156,161,154,-1,153,162,163,-1,164,165,154,-1,166,155,167,-1,167,155,168,-1,164,154,169,-1,163,170,153,-1,153,170,171,-1,153,171,151,-1,172,173,155,-1,155,173,174,-1,155,174,168,-1,175,176,153,-1,153,176,177,-1,153,177,162,-1,178,179,180,-1,180,179,181,-1,178,182,179,-1,179,182,183,-1,179,183,153,-1,153,183,184,-1,153,184,175,-1,185,186,187,-1,187,186,188,-1,187,188,154,-1,154,188,189,-1,154,189,169,-1,165,190,154,-1,154,190,191,-1,154,191,155,-1,155,191,192,-1,155,192,172,-1,147,193,148,-1,148,193,98,-1,148,98,194,-1,194,98,195,-1,106,110,104,-1,104,110,112,-1,104,112,196,-1,197,125,122,-1,122,125,126,-1,122,126,120,-1,120,126,198,-1,120,198,128,-1,199,200,196,-1,196,200,201,-1,202,104,203,-1,203,104,204,-1,197,205,125,-1,125,205,206,-1,125,206,112,-1,207,208,104,-1,209,122,210,-1,210,122,211,-1,209,212,122,-1,122,212,213,-1,122,213,214,-1,215,216,197,-1,197,216,217,-1,197,217,218,-1,219,220,221,-1,221,220,222,-1,208,223,104,-1,104,223,224,-1,104,224,204,-1,214,225,122,-1,122,225,226,-1,122,226,197,-1,197,226,227,-1,197,227,215,-1,228,229,206,-1,206,229,230,-1,206,230,112,-1,112,230,231,-1,112,231,196,-1,228,232,229,-1,229,232,233,-1,229,233,221,-1,221,233,234,-1,221,234,219,-1,201,235,196,-1,196,235,236,-1,196,236,104,-1,104,236,237,-1,104,237,207,-1,238,239,240,-1,240,239,241,-1,242,243,220,-1,220,243,244,-1,220,244,222,-1,245,246,239,-1,242,220,239,-1,239,220,247,-1,239,247,245,-1,246,248,239,-1,239,248,249,-1,239,249,241,-1,250,251,240,-1,240,251,252,-1,240,252,238,-1,253,254,202,-1,202,254,117,-1,202,117,104,-1,104,117,116,-1,104,116,105,-1,255,256,257,-1,257,256,100,-1,257,100,258,-1,259,260,261,-1,262,263,115,-1,115,263,107,-1,115,107,114,-1,114,107,109,-1,114,109,264,-1,260,259,265,-1,265,259,266,-1,265,266,255,-1,255,266,267,-1,255,267,256,-1,256,267,268,-1,256,268,109,-1,109,268,269,-1,109,269,264,-1,261,270,271,-1,272,273,264,-1,114,274,275,-1,272,264,276,-1,271,277,261,-1,261,277,278,-1,261,278,259,-1,279,280,114,-1,114,280,281,-1,114,281,274,-1,282,283,261,-1,261,283,284,-1,261,284,270,-1,285,286,287,-1,287,286,288,-1,285,289,286,-1,286,289,290,-1,286,290,261,-1,261,290,291,-1,261,291,282,-1,292,293,294,-1,294,293,295,-1,294,295,264,-1,264,295,296,-1,264,296,276,-1,273,297,264,-1,264,297,298,-1,264,298,114,-1,114,298,299,-1,114,299,279,-1,300,301,302,-1,302,301,303,-1,302,303,99,-1,99,303,304,-1,99,304,100,-1,100,304,305,-1,100,305,258,-1,306,123,307,-1,307,123,125,-1,307,125,308,-1,308,125,112,-1,308,112,302,-1,302,112,114,-1,302,114,300,-1,300,114,275,-1,97,103,95,-1,95,103,102,-1,95,102,307,-1,307,102,309,-1,307,309,306,-1,310,311,155,-1,156,312,256,-1,256,312,313,-1,256,313,100,-1,100,313,314,-1,100,314,315,-1,155,311,156,-1,156,311,316,-1,156,316,317,-1,318,319,320,-1,321,322,315,-1,315,322,310,-1,315,310,100,-1,100,310,155,-1,100,155,98,-1,98,155,166,-1,98,166,195,-1,323,324,325,-1,325,324,321,-1,325,321,326,-1,326,321,315,-1,327,312,328,-1,328,312,156,-1,328,156,329,-1,329,156,317,-1,329,317,330,-1,330,317,331,-1,330,331,332,-1,332,331,333,-1,332,333,334,-1,327,328,320,-1,320,328,335,-1,320,335,318,-1,97,336,103,-1,103,336,129,-1,103,129,141,-1,141,129,121,-1,108,118,109,-1,109,118,119,-1,109,119,256,-1,256,119,337,-1,256,337,156,-1,156,337,338,-1,156,338,145,-1,145,338,339,-1,336,340,129,-1,129,340,341,-1,129,341,122,-1,122,341,254,-1,122,254,211,-1,211,254,253,-1,342,343,344,-1,344,343,345,-1,344,345,346,-1,346,345,347,-1,346,347,348,-1,348,347,349,-1,348,349,342,-1,342,349,343,-1,350,349,351,-1,351,349,347,-1,352,345,353,-1,353,345,343,-1,354,343,355,-1,355,343,349,-1,355,349,356,-1,354,357,343,-1,343,357,358,-1,343,358,359,-1,353,360,361,-1,362,363,349,-1,349,363,364,-1,349,364,356,-1,361,365,353,-1,353,365,366,-1,353,366,350,-1,350,366,367,-1,350,367,368,-1,368,369,350,-1,350,369,370,-1,350,370,371,-1,359,372,343,-1,343,372,373,-1,343,373,353,-1,353,373,374,-1,353,374,360,-1,371,375,350,-1,350,375,376,-1,350,376,349,-1,349,376,377,-1,349,377,362,-1,378,379,351,-1,380,381,345,-1,345,381,382,-1,382,383,345,-1,345,383,384,-1,345,384,347,-1,384,385,347,-1,347,385,386,-1,347,386,387,-1,388,352,389,-1,389,352,390,-1,351,379,352,-1,352,379,391,-1,352,391,390,-1,351,392,393,-1,388,394,352,-1,352,394,395,-1,352,395,345,-1,345,395,396,-1,345,396,380,-1,393,397,351,-1,351,397,398,-1,351,398,378,-1,387,399,347,-1,347,399,400,-1,347,400,351,-1,351,400,401,-1,351,401,392,-1,96,95,353,-1,353,95,307,-1,353,307,308,-1,308,302,353,-1,353,302,99,-1,353,99,352,-1,352,99,98,-1,352,98,193,-1,97,96,353,-1,97,353,336,-1,336,353,350,-1,336,350,340,-1,193,147,352,-1,352,147,145,-1,352,145,351,-1,351,145,339,-1,339,338,351,-1,351,338,337,-1,351,337,350,-1,350,337,119,-1,350,119,117,-1,117,254,350,-1,350,254,341,-1,350,341,340,-1,64,342,61,-1,61,342,344,-1,61,344,94,-1,20,348,63,-1,63,348,342,-1,63,342,64,-1,69,346,18,-1,18,346,348,-1,18,348,20,-1,94,344,67,-1,67,344,346,-1,67,346,69,-1,
        ]
    }
}
Shape{
    appearance Appearance {
        material  Material {
            diffuseColor 0.6470588235294118 0.6470588235294118 0.6470588235294118
            specularColor 0.3215686274509804 0.3215686274509804 0.3215686274509804
            ambientIntensity 0.6471
            transparency 0.0
            shininess 0.5
        }
    }
    geometry IndexedFaceSet {
        ccw TRUE
        solid FALSE
        coord DEF co Coordinate {
            point [
                -6.8841 0.0669 -1.9685, -6.8707 0.0346 -1.9685, -7.0 0.0 -1.9685, -6.8661 0.0 -1.9685, -6.8707 -0.0346 -1.9685, -6.9654 0.1293 -1.9685, -6.9331 0.1159 -1.9685, -6.9053 0.0947 -1.9685, -7.0669 0.1159 -1.9685, -7.0346 0.1293 -1.9685, -7.0 0.1339 -1.9685, -7.1293 0.0346 -1.9685, -7.1159 0.0669 -1.9685, -7.0947 0.0947 -1.9685, -7.1159 -0.0669 -1.9685, -7.1293 -0.0346 -1.9685, -7.1339 0.0 -1.9685, -7.0346 -0.1293 -1.9685, -7.0669 -0.1159 -1.9685, -7.0947 -0.0947 -1.9685, -6.9331 -0.1159 -1.9685, -6.9654 -0.1293 -1.9685, -7.0 -0.1339 -1.9685, -6.8841 -0.0669 -1.9685, -6.9053 -0.0947 -1.9685, -7.1293 0.0346 1.4764, -7.1159 0.0669 1.4764, -7.0947 0.0947 1.4764, -7.0669 0.1159 1.4764, -7.0346 0.1293 1.4764, -7.0 0.1339 1.4764, -6.9654 0.1293 1.4764, -6.9331 0.1159 1.4764, -6.9053 0.0947 1.4764, -6.8841 0.0669 1.4764, -6.8707 0.0346 1.4764, -6.8661 0.0 1.4764, -6.8707 -0.0346 1.4764, -6.8841 -0.0669 1.4764, -6.9053 -0.0947 1.4764, -6.9331 -0.1159 1.4764, -6.9654 -0.1293 1.4764, -7.0 -0.1339 1.4764, -7.0346 -0.1293 1.4764, -7.0669 -0.1159 1.4764, -7.0947 -0.0947 1.4764, -7.1159 -0.0669 1.4764, -7.1293 -0.0346 1.4764, -7.1339 0.0 1.4764, -6.8573 0.0 1.5436, -6.8617 -0.0346 1.5448, -6.8746 -0.0669 1.5483, -6.8952 -0.0947 1.5538, -6.9219 -0.1159 1.561, -6.9531 -0.1293 1.5693, -6.9866 -0.1339 1.5783, -7.02 -0.1293 1.5872, -7.0512 -0.1159 1.5956, -7.078 -0.0947 1.6028, -7.0986 -0.0669 1.6083, -7.1115 -0.0346 1.6117, -7.1159 0.0 1.6129, -7.1115 0.0346 1.6117, -7.0986 0.0669 1.6083, -7.078 0.0947 1.6028, -7.0512 0.1159 1.5956, -7.02 0.1293 1.5872, -6.9866 0.1339 1.5783, -6.9531 0.1293 1.5693, -6.9219 0.1159 1.561, -6.8952 0.0947 1.5538, -6.8746 0.0669 1.5483, -6.8617 0.0346 1.5448, -6.8313 0.0 1.6063, -6.8353 -0.0346 1.6086, -6.8469 -0.0669 1.6153, -6.8653 -0.0947 1.6259, -6.8893 -0.1159 1.6398, -6.9173 -0.1293 1.6559, -6.9473 -0.1339 1.6732, -6.9773 -0.1293 1.6906, -7.0052 -0.1159 1.7067, -7.0292 -0.0947 1.7206, -7.0476 -0.0669 1.7312, -7.0592 -0.0346 1.7379, -7.0632 0.0 1.7402, -7.0592 0.0346 1.7379, -7.0476 0.0669 1.7312, -7.0292 0.0947 1.7206, -7.0052 0.1159 1.7067, -6.9773 0.1293 1.6906, -6.9473 0.1339 1.6732, -6.9173 0.1293 1.6559, -6.8893 0.1159 1.6398, -6.8653 0.0947 1.6259, -6.8469 0.0669 1.6153, -6.8353 0.0346 1.6086, -6.79 0.0 1.6601, -6.7933 -0.0346 1.6633, -6.8027 -0.0669 1.6728, -6.8178 -0.0947 1.6878, -6.8374 -0.1159 1.7074, -6.8602 -0.1293 1.7303, -6.8847 -0.1339 1.7548, -6.9092 -0.1293 1.7793, -6.932 -0.1159 1.8021, -6.9516 -0.0947 1.8217, -6.9667 -0.0669 1.8367, -6.9761 -0.0346 1.8462, -6.9793 0.0 1.8494, -6.9761 0.0346 1.8462, -6.9667 0.0669 1.8367, -6.9516 0.0947 1.8217, -6.932 0.1159 1.8021, -6.9092 0.1293 1.7793, -6.8847 0.1339 1.7548, -6.8602 0.1293 1.7303, -6.8374 0.1159 1.7074, -6.8178 0.0947 1.6878, -6.8027 0.0669 1.6728, -6.7933 0.0346 1.6633, -6.7362 0.0 1.7014, -6.7385 -0.0346 1.7054, -6.7452 -0.0669 1.7169, -6.7558 -0.0947 1.7354, -6.7697 -0.1159 1.7594, -6.7858 -0.1293 1.7873, -6.8031 -0.1339 1.8173, -6.8205 -0.1293 1.8473, -6.8366 -0.1159 1.8753, -6.8505 -0.0947 1.8993, -6.8611 -0.0669 1.9177, -6.8678 -0.0346 1.9293, -6.8701 0.0 1.9333, -6.8678 0.0346 1.9293, -6.8611 0.0669 1.9177, -6.8505 0.0947 1.8993, -6.8366 0.1159 1.8753, -6.8205 0.1293 1.8473, -6.8031 0.1339 1.8173, -6.7858 0.1293 1.7873, -6.7697 0.1159 1.7594, -6.7558 0.0947 1.7354, -6.7452 0.0669 1.7169, -6.7385 0.0346 1.7054, -6.6736 0.0 1.7274, -6.6747 -0.0346 1.7318, -6.6782 -0.0669 1.7447, -6.6837 -0.0947 1.7652, -6.6909 -0.1159 1.792, -6.6992 -0.1293 1.8232, -6.7082 -0.1339 1.8567, -6.7172 -0.1293 1.8901, -6.7255 -0.1159 1.9213, -6.7327 -0.0947 1.9481, -6.7382 -0.0669 1.9686, -6.7417 -0.0346 1.9816, -6.7428 0.0 1.986, -6.7417 0.0346 1.9816, -6.7382 0.0669 1.9686, -6.7327 0.0947 1.9481, -6.7255 0.1159 1.9213, -6.7172 0.1293 1.8901, -6.7082 0.1339 1.8567, -6.6992 0.1293 1.8232, -6.6909 0.1159 1.792, -6.6837 0.0947 1.7652, -6.6782 0.0669 1.7447, -6.6747 0.0346 1.7318, -6.6063 0.0 1.7362, -6.6063 -0.0346 1.7408, -6.6063 -0.0669 1.7542, -6.6063 -0.0947 1.7754, -6.6063 -0.1159 1.8031, -6.6063 -0.1293 1.8354, -6.6063 -0.1339 1.8701, -6.6063 -0.1293 1.9047, -6.6063 -0.1159 1.937, -6.6063 -0.0947 1.9647, -6.6063 -0.0669 1.986, -6.6063 -0.0346 1.9994, -6.6063 0.0 2.0039, -6.6063 0.0346 1.9994, -6.6063 0.0669 1.986, -6.6063 0.0947 1.9647, -6.6063 0.1159 1.937, -6.6063 0.1293 1.9047, -6.6063 0.1339 1.8701, -6.6063 0.1293 1.8354, -6.6063 0.1159 1.8031, -6.6063 0.0947 1.7754, -6.6063 0.0669 1.7542, -6.6063 0.0346 1.7408, -4.3307 0.0346 1.9994, -4.3307 0.0669 1.986, -4.3307 0.0947 1.9647, -4.3307 0.1159 1.937, -4.3307 0.1293 1.9047, -4.3307 0.1339 1.8701, -4.3307 0.1293 1.8354, -4.3307 0.1159 1.8031, -4.3307 0.0947 1.7754, -4.3307 0.0669 1.7542, -4.3307 0.0346 1.7408, -4.3307 0.0 1.7362, -4.3307 -0.0346 1.7408, -4.3307 -0.0669 1.7542, -4.3307 -0.0947 1.7754, -4.3307 -0.1159 1.8031, -4.3307 -0.1293 1.8354, -4.3307 -0.1339 1.8701, -4.3307 -0.1293 1.9047, -4.3307 -0.1159 1.937, -4.3307 -0.0947 1.9647, -4.3307 -0.0669 1.986, -4.3307 -0.0346 1.9994, -4.3307 0.0 2.0039, 4.3307 -0.0 2.0039, 6.6063 0.0346 1.9994, 4.3307 0.0346 1.9994, 6.6063 0.0669 1.986, 4.3307 0.0669 1.986, 6.6063 0.0947 1.9647, 4.3307 0.0947 1.9647, 6.6063 0.1159 1.937, 4.3307 0.1159 1.937, 6.6063 0.1293 1.9047, 4.3307 0.1293 1.9047, 6.6063 0.1339 1.8701, 4.3307 0.1339 1.8701, 6.6063 0.1293 1.8354, 4.3307 0.1293 1.8354, 6.6063 0.1159 1.8031, 4.3307 0.1159 1.8031, 6.6063 0.0947 1.7754, 4.3307 0.0947 1.7754, 6.6063 0.0669 1.7542, 4.3307 0.0669 1.7542, 6.6063 0.0346 1.7408, 4.3307 0.0346 1.7408, 6.6063 0.0 1.7362, 4.3307 0.0 1.7362, 6.6063 -0.0346 1.7408, 4.3307 -0.0346 1.7408, 6.6063 -0.0669 1.7542, 4.3307 -0.0669 1.7542, 6.6063 -0.0947 1.7754, 4.3307 -0.0947 1.7754, 6.6063 -0.1159 1.8031, 4.3307 -0.1159 1.8031, 6.6063 -0.1293 1.8354, 4.3307 -0.1293 1.8354, 6.6063 -0.1339 1.8701, 4.3307 -0.1339 1.8701, 6.6063 -0.1293 1.9047, 4.3307 -0.1293 1.9047, 6.6063 -0.1159 1.937, 4.3307 -0.1159 1.937, 6.6063 -0.0947 1.9647, 4.3307 -0.0947 1.9647, 6.6063 -0.0669 1.986, 4.3307 -0.0669 1.986, 6.6063 -0.0346 1.9994, 4.3307 -0.0346 1.9994, 6.6063 0.0 2.0039, 6.8841 -0.0669 -1.9685, 6.8707 -0.0346 -1.9685, 7.0 0.0 -1.9685, 6.8661 0.0 -1.9685, 6.8707 0.0346 -1.9685, 6.9654 -0.1293 -1.9685, 6.9331 -0.1159 -1.9685, 6.9053 -0.0947 -1.9685, 7.0669 -0.1159 -1.9685, 7.0346 -0.1293 -1.9685, 7.0 -0.1339 -1.9685, 7.1293 -0.0346 -1.9685, 7.1159 -0.0669 -1.9685, 7.0947 -0.0947 -1.9685, 7.1159 0.0669 -1.9685, 7.1293 0.0346 -1.9685, 7.1339 0.0 -1.9685, 7.0346 0.1293 -1.9685, 7.0669 0.1159 -1.9685, 7.0947 0.0947 -1.9685, 6.9331 0.1159 -1.9685, 6.9654 0.1293 -1.9685, 7.0 0.1339 -1.9685, 6.8841 0.0669 -1.9685, 6.9053 0.0947 -1.9685, 7.1339 0.0 1.4764, 7.1293 0.0346 1.4764, 7.1159 0.0669 1.4764, 7.0947 0.0947 1.4764, 7.0669 0.1159 1.4764, 7.0346 0.1293 1.4764, 7.0 0.1339 1.4764, 6.9654 0.1293 1.4764, 6.9331 0.1159 1.4764, 6.9053 0.0947 1.4764, 6.8841 0.0669 1.4764, 6.8707 0.0346 1.4764, 6.8661 0.0 1.4764, 6.8707 -0.0346 1.4764, 6.8841 -0.0669 1.4764, 6.9053 -0.0947 1.4764, 6.9331 -0.1159 1.4764, 6.9654 -0.1293 1.4764, 7.0 -0.1339 1.4764, 7.0346 -0.1293 1.4764, 7.0669 -0.1159 1.4764, 7.0947 -0.0947 1.4764, 7.1159 -0.0669 1.4764, 7.1293 -0.0346 1.4764, 6.6736 0.0 1.7274, 6.6747 -0.0346 1.7318, 6.6782 -0.0669 1.7447, 6.6837 -0.0947 1.7652, 6.6909 -0.1159 1.792, 6.6992 -0.1293 1.8232, 6.7082 -0.1339 1.8567, 6.7172 -0.1293 1.8901, 6.7255 -0.1159 1.9213, 6.7327 -0.0947 1.9481, 6.7382 -0.0669 1.9686, 6.7417 -0.0346 1.9816, 6.7428 0.0 1.986, 6.7417 0.0346 1.9816, 6.7382 0.0669 1.9686, 6.7327 0.0947 1.9481, 6.7255 0.1159 1.9213, 6.7172 0.1293 1.8901, 6.7082 0.1339 1.8567, 6.6992 0.1293 1.8232, 6.6909 0.1159 1.792, 6.6837 0.0947 1.7652, 6.6782 0.0669 1.7447, 6.6747 0.0346 1.7318, 6.7362 0.0 1.7014, 6.7385 -0.0346 1.7054, 6.7452 -0.0669 1.7169, 6.7558 -0.0947 1.7354, 6.7697 -0.1159 1.7594, 6.7858 -0.1293 1.7873, 6.8031 -0.1339 1.8173, 6.8205 -0.1293 1.8473, 6.8366 -0.1159 1.8753, 6.8505 -0.0947 1.8993, 6.8611 -0.0669 1.9177, 6.8678 -0.0346 1.9293, 6.8701 0.0 1.9333, 6.8678 0.0346 1.9293, 6.8611 0.0669 1.9177, 6.8505 0.0947 1.8993, 6.8366 0.1159 1.8753, 6.8205 0.1293 1.8473, 6.8031 0.1339 1.8173, 6.7858 0.1293 1.7873, 6.7697 0.1159 1.7594, 6.7558 0.0947 1.7354, 6.7452 0.0669 1.7169, 6.7385 0.0346 1.7054, 6.79 0.0 1.6601, 6.7933 -0.0346 1.6633, 6.8027 -0.0669 1.6728, 6.8178 -0.0947 1.6878, 6.8374 -0.1159 1.7074, 6.8602 -0.1293 1.7303, 6.8847 -0.1339 1.7548, 6.9092 -0.1293 1.7793, 6.932 -0.1159 1.8021, 6.9516 -0.0947 1.8217, 6.9667 -0.0669 1.8367, 6.9761 -0.0346 1.8462, 6.9793 0.0 1.8494, 6.9761 0.0346 1.8462, 6.9667 0.0669 1.8367, 6.9516 0.0947 1.8217, 6.932 0.1159 1.8021, 6.9092 0.1293 1.7793, 6.8847 0.1339 1.7548, 6.8602 0.1293 1.7303, 6.8374 0.1159 1.7074, 6.8178 0.0947 1.6878, 6.8027 0.0669 1.6728, 6.7933 0.0346 1.6633, 6.8313 0.0 1.6063, 6.8353 -0.0346 1.6086, 6.8469 -0.0669 1.6153, 6.8653 -0.0947 1.6259, 6.8893 -0.1159 1.6398, 6.9173 -0.1293 1.6559, 6.9473 -0.1339 1.6732, 6.9773 -0.1293 1.6906, 7.0052 -0.1159 1.7067, 7.0292 -0.0947 1.7206, 7.0476 -0.0669 1.7312, 7.0592 -0.0346 1.7379, 7.0632 0.0 1.7402, 7.0592 0.0346 1.7379, 7.0476 0.0669 1.7312, 7.0292 0.0947 1.7206, 7.0052 0.1159 1.7067, 6.9773 0.1293 1.6906, 6.9473 0.1339 1.6732, 6.9173 0.1293 1.6559, 6.8893 0.1159 1.6398, 6.8653 0.0947 1.6259, 6.8469 0.0669 1.6153, 6.8353 0.0346 1.6086, 6.8573 0.0 1.5436, 6.8617 -0.0346 1.5448, 6.8746 -0.0669 1.5483, 6.8952 -0.0947 1.5538, 6.9219 -0.1159 1.561, 6.9531 -0.1293 1.5693, 6.9866 -0.1339 1.5783, 7.02 -0.1293 1.5872, 7.0512 -0.1159 1.5956, 7.078 -0.0947 1.6028, 7.0986 -0.0669 1.6083, 7.1115 -0.0346 1.6117, 7.1159 0.0 1.6129, 7.1115 0.0346 1.6117, 7.0986 0.0669 1.6083, 7.078 0.0947 1.6028, 7.0512 0.1159 1.5956, 7.02 0.1293 1.5872, 6.9866 0.1339 1.5783, 6.9531 0.1293 1.5693, 6.9219 0.1159 1.561, 6.8952 0.0947 1.5538, 6.8746 0.0669 1.5483, 6.8617 0.0346 1.5448
            ]
        }
        coordIndex [
            0,1,2,-1,2,1,3,-1,2,3,4,-1,5,6,2,-1,2,6,7,-1,2,7,0,-1,8,9,2,-1,2,9,10,-1,2,10,5,-1,11,12,2,-1,2,12,13,-1,2,13,8,-1,14,15,2,-1,2,15,16,-1,2,16,11,-1,17,18,2,-1,2,18,19,-1,2,19,14,-1,20,21,2,-1,2,21,22,-1,2,22,17,-1,4,23,2,-1,2,23,24,-1,2,24,20,-1,16,25,11,-1,11,25,26,-1,11,26,12,-1,12,26,27,-1,12,27,13,-1,13,27,28,-1,13,28,8,-1,8,28,29,-1,8,29,9,-1,9,29,30,-1,9,30,10,-1,10,30,31,-1,10,31,5,-1,5,31,32,-1,5,32,6,-1,6,32,33,-1,6,33,7,-1,7,33,34,-1,7,34,0,-1,0,34,35,-1,0,35,1,-1,1,35,36,-1,1,36,3,-1,3,36,37,-1,3,37,4,-1,4,37,38,-1,4,38,23,-1,23,38,39,-1,23,39,24,-1,24,39,40,-1,24,40,20,-1,20,40,41,-1,20,41,21,-1,21,41,42,-1,21,42,22,-1,22,42,43,-1,22,43,17,-1,17,43,44,-1,17,44,18,-1,18,44,45,-1,18,45,19,-1,19,45,46,-1,19,46,14,-1,14,46,47,-1,14,47,15,-1,15,47,48,-1,15,48,16,-1,16,48,25,-1,36,49,37,-1,37,49,50,-1,37,50,38,-1,38,50,51,-1,38,51,39,-1,39,51,52,-1,39,52,40,-1,40,52,53,-1,40,53,41,-1,41,53,54,-1,41,54,42,-1,42,54,55,-1,42,55,43,-1,43,55,56,-1,43,56,44,-1,44,56,57,-1,44,57,45,-1,45,57,58,-1,45,58,46,-1,46,58,59,-1,46,59,47,-1,47,59,60,-1,47,60,48,-1,48,60,61,-1,48,61,25,-1,25,61,62,-1,25,62,26,-1,26,62,63,-1,26,63,27,-1,27,63,64,-1,27,64,28,-1,28,64,65,-1,28,65,29,-1,29,65,66,-1,29,66,30,-1,30,66,67,-1,30,67,31,-1,31,67,68,-1,31,68,32,-1,32,68,69,-1,32,69,33,-1,33,69,70,-1,33,70,34,-1,34,70,71,-1,34,71,35,-1,35,71,72,-1,35,72,36,-1,36,72,49,-1,49,73,50,-1,50,73,74,-1,50,74,51,-1,51,74,75,-1,51,75,52,-1,52,75,76,-1,52,76,53,-1,53,76,77,-1,53,77,54,-1,54,77,78,-1,54,78,55,-1,55,78,79,-1,55,79,56,-1,56,79,80,-1,56,80,57,-1,57,80,81,-1,57,81,58,-1,58,81,82,-1,58,82,59,-1,59,82,83,-1,59,83,60,-1,60,83,84,-1,60,84,61,-1,61,84,85,-1,61,85,62,-1,62,85,86,-1,62,86,63,-1,63,86,87,-1,63,87,64,-1,64,87,88,-1,64,88,65,-1,65,88,89,-1,65,89,66,-1,66,89,90,-1,66,90,67,-1,67,90,91,-1,67,91,68,-1,68,91,92,-1,68,92,69,-1,69,92,93,-1,69,93,70,-1,70,93,94,-1,70,94,71,-1,71,94,95,-1,71,95,72,-1,72,95,96,-1,72,96,49,-1,49,96,73,-1,73,97,74,-1,74,97,98,-1,74,98,75,-1,75,98,99,-1,75,99,76,-1,76,99,100,-1,76,100,77,-1,77,100,101,-1,77,101,78,-1,78,101,102,-1,78,102,79,-1,79,102,103,-1,79,103,80,-1,80,103,104,-1,80,104,81,-1,81,104,105,-1,81,105,82,-1,82,105,106,-1,82,106,83,-1,83,106,107,-1,83,107,84,-1,84,107,108,-1,84,108,85,-1,85,108,109,-1,85,109,86,-1,86,109,110,-1,86,110,87,-1,87,110,111,-1,87,111,88,-1,88,111,112,-1,88,112,89,-1,89,112,113,-1,89,113,90,-1,90,113,114,-1,90,114,91,-1,91,114,115,-1,91,115,92,-1,92,115,116,-1,92,116,93,-1,93,116,117,-1,93,117,94,-1,94,117,118,-1,94,118,95,-1,95,118,119,-1,95,119,96,-1,96,119,120,-1,96,120,73,-1,73,120,97,-1,97,121,98,-1,98,121,122,-1,98,122,99,-1,99,122,123,-1,99,123,100,-1,100,123,124,-1,100,124,101,-1,101,124,125,-1,101,125,102,-1,102,125,126,-1,102,126,103,-1,103,126,127,-1,103,127,104,-1,104,127,128,-1,104,128,105,-1,105,128,129,-1,105,129,106,-1,106,129,130,-1,106,130,107,-1,107,130,131,-1,107,131,108,-1,108,131,132,-1,108,132,109,-1,109,132,133,-1,109,133,110,-1,110,133,134,-1,110,134,111,-1,111,134,135,-1,111,135,112,-1,112,135,136,-1,112,136,113,-1,113,136,137,-1,113,137,114,-1,114,137,138,-1,114,138,115,-1,115,138,139,-1,115,139,116,-1,116,139,140,-1,116,140,117,-1,117,140,141,-1,117,141,118,-1,118,141,142,-1,118,142,119,-1,119,142,143,-1,119,143,120,-1,120,143,144,-1,120,144,97,-1,97,144,121,-1,121,145,122,-1,122,145,146,-1,122,146,123,-1,123,146,147,-1,123,147,124,-1,124,147,148,-1,124,148,125,-1,125,148,149,-1,125,149,126,-1,126,149,150,-1,126,150,127,-1,127,150,151,-1,127,151,128,-1,128,151,152,-1,128,152,129,-1,129,152,153,-1,129,153,130,-1,130,153,154,-1,130,154,131,-1,131,154,155,-1,131,155,132,-1,132,155,156,-1,132,156,133,-1,133,156,157,-1,133,157,134,-1,134,157,158,-1,134,158,135,-1,135,158,159,-1,135,159,136,-1,136,159,160,-1,136,160,137,-1,137,160,161,-1,137,161,138,-1,138,161,162,-1,138,162,139,-1,139,162,163,-1,139,163,140,-1,140,163,164,-1,140,164,141,-1,141,164,165,-1,141,165,142,-1,142,165,166,-1,142,166,143,-1,143,166,167,-1,143,167,144,-1,144,167,168,-1,144,168,121,-1,121,168,145,-1,145,169,146,-1,146,169,170,-1,146,170,147,-1,147,170,171,-1,147,171,148,-1,148,171,172,-1,148,172,149,-1,149,172,173,-1,149,173,150,-1,150,173,174,-1,150,174,151,-1,151,174,175,-1,151,175,152,-1,152,175,176,-1,152,176,153,-1,153,176,177,-1,153,177,154,-1,154,177,178,-1,154,178,155,-1,155,178,179,-1,155,179,156,-1,156,179,180,-1,156,180,157,-1,157,180,181,-1,157,181,158,-1,158,181,182,-1,158,182,159,-1,159,182,183,-1,159,183,160,-1,160,183,184,-1,160,184,161,-1,161,184,185,-1,161,185,162,-1,162,185,186,-1,162,186,163,-1,163,186,187,-1,163,187,164,-1,164,187,188,-1,164,188,165,-1,165,188,189,-1,165,189,166,-1,166,189,190,-1,166,190,167,-1,167,190,191,-1,167,191,168,-1,168,191,192,-1,168,192,145,-1,145,192,169,-1,181,193,182,-1,182,193,194,-1,182,194,183,-1,183,194,195,-1,183,195,184,-1,184,195,196,-1,184,196,185,-1,185,196,197,-1,185,197,186,-1,186,197,198,-1,186,198,187,-1,187,198,199,-1,187,199,188,-1,188,199,200,-1,188,200,189,-1,189,200,201,-1,189,201,190,-1,190,201,202,-1,190,202,191,-1,191,202,203,-1,191,203,192,-1,192,203,204,-1,192,204,169,-1,169,204,205,-1,169,205,170,-1,170,205,206,-1,170,206,171,-1,171,206,207,-1,171,207,172,-1,172,207,208,-1,172,208,173,-1,173,208,209,-1,173,209,174,-1,174,209,210,-1,174,210,175,-1,175,210,211,-1,175,211,176,-1,176,211,212,-1,176,212,177,-1,177,212,213,-1,177,213,178,-1,178,213,214,-1,178,214,179,-1,179,214,215,-1,179,215,180,-1,180,215,216,-1,180,216,181,-1,181,216,193,-1,217,218,219,-1,219,218,220,-1,219,220,221,-1,221,220,222,-1,221,222,223,-1,223,222,224,-1,223,224,225,-1,225,224,226,-1,225,226,227,-1,227,226,228,-1,227,228,229,-1,229,228,230,-1,229,230,231,-1,231,230,232,-1,231,232,233,-1,233,232,234,-1,233,234,235,-1,235,234,236,-1,235,236,237,-1,237,236,238,-1,237,238,239,-1,239,238,240,-1,239,240,241,-1,241,240,242,-1,241,242,243,-1,243,242,244,-1,243,244,245,-1,245,244,246,-1,245,246,247,-1,247,246,248,-1,247,248,249,-1,249,248,250,-1,249,250,251,-1,251,250,252,-1,251,252,253,-1,253,252,254,-1,253,254,255,-1,255,254,256,-1,255,256,257,-1,257,256,258,-1,257,258,259,-1,259,258,260,-1,259,260,261,-1,261,260,262,-1,261,262,263,-1,263,262,264,-1,263,264,217,-1,217,264,218,-1,265,266,267,-1,267,266,268,-1,267,268,269,-1,270,271,267,-1,267,271,272,-1,267,272,265,-1,273,274,267,-1,267,274,275,-1,267,275,270,-1,276,277,267,-1,267,277,278,-1,267,278,273,-1,279,280,267,-1,267,280,281,-1,267,281,276,-1,282,283,267,-1,267,283,284,-1,267,284,279,-1,285,286,267,-1,267,286,287,-1,267,287,282,-1,269,288,267,-1,267,288,289,-1,267,289,285,-1,290,280,291,-1,291,280,279,-1,291,279,292,-1,292,279,284,-1,292,284,293,-1,293,284,283,-1,293,283,294,-1,294,283,282,-1,294,282,295,-1,295,282,287,-1,295,287,296,-1,296,287,286,-1,296,286,297,-1,297,286,285,-1,297,285,298,-1,298,285,289,-1,298,289,299,-1,299,289,288,-1,299,288,300,-1,300,288,269,-1,300,269,301,-1,301,269,268,-1,301,268,302,-1,302,268,266,-1,302,266,303,-1,303,266,265,-1,303,265,304,-1,304,265,272,-1,304,272,305,-1,305,272,271,-1,305,271,306,-1,306,271,270,-1,306,270,307,-1,307,270,275,-1,307,275,308,-1,308,275,274,-1,308,274,309,-1,309,274,273,-1,309,273,310,-1,310,273,278,-1,310,278,311,-1,311,278,277,-1,311,277,312,-1,312,277,276,-1,312,276,313,-1,313,276,281,-1,313,281,290,-1,290,281,280,-1,240,314,242,-1,242,314,315,-1,242,315,244,-1,244,315,316,-1,244,316,246,-1,246,316,317,-1,246,317,248,-1,248,317,318,-1,248,318,250,-1,250,318,319,-1,250,319,252,-1,252,319,320,-1,252,320,254,-1,254,320,321,-1,254,321,256,-1,256,321,322,-1,256,322,258,-1,258,322,323,-1,258,323,260,-1,260,323,324,-1,260,324,262,-1,262,324,325,-1,262,325,264,-1,264,325,326,-1,264,326,218,-1,218,326,327,-1,218,327,220,-1,220,327,328,-1,220,328,222,-1,222,328,329,-1,222,329,224,-1,224,329,330,-1,224,330,226,-1,226,330,331,-1,226,331,228,-1,228,331,332,-1,228,332,230,-1,230,332,333,-1,230,333,232,-1,232,333,334,-1,232,334,234,-1,234,334,335,-1,234,335,236,-1,236,335,336,-1,236,336,238,-1,238,336,337,-1,238,337,240,-1,240,337,314,-1,314,338,315,-1,315,338,339,-1,315,339,316,-1,316,339,340,-1,316,340,317,-1,317,340,341,-1,317,341,318,-1,318,341,342,-1,318,342,319,-1,319,342,343,-1,319,343,320,-1,320,343,344,-1,320,344,321,-1,321,344,345,-1,321,345,322,-1,322,345,346,-1,322,346,323,-1,323,346,347,-1,323,347,324,-1,324,347,348,-1,324,348,325,-1,325,348,349,-1,325,349,326,-1,326,349,350,-1,326,350,327,-1,327,350,351,-1,327,351,328,-1,328,351,352,-1,328,352,329,-1,329,352,353,-1,329,353,330,-1,330,353,354,-1,330,354,331,-1,331,354,355,-1,331,355,332,-1,332,355,356,-1,332,356,333,-1,333,356,357,-1,333,357,334,-1,334,357,358,-1,334,358,335,-1,335,358,359,-1,335,359,336,-1,336,359,360,-1,336,360,337,-1,337,360,361,-1,337,361,314,-1,314,361,338,-1,338,362,339,-1,339,362,363,-1,339,363,340,-1,340,363,364,-1,340,364,341,-1,341,364,365,-1,341,365,342,-1,342,365,366,-1,342,366,343,-1,343,366,367,-1,343,367,344,-1,344,367,368,-1,344,368,345,-1,345,368,369,-1,345,369,346,-1,346,369,370,-1,346,370,347,-1,347,370,371,-1,347,371,348,-1,348,371,372,-1,348,372,349,-1,349,372,373,-1,349,373,350,-1,350,373,374,-1,350,374,351,-1,351,374,375,-1,351,375,352,-1,352,375,376,-1,352,376,353,-1,353,376,377,-1,353,377,354,-1,354,377,378,-1,354,378,355,-1,355,378,379,-1,355,379,356,-1,356,379,380,-1,356,380,357,-1,357,380,381,-1,357,381,358,-1,358,381,382,-1,358,382,359,-1,359,382,383,-1,359,383,360,-1,360,383,384,-1,360,384,361,-1,361,384,385,-1,361,385,338,-1,338,385,362,-1,362,386,363,-1,363,386,387,-1,363,387,364,-1,364,387,388,-1,364,388,365,-1,365,388,389,-1,365,389,366,-1,366,389,390,-1,366,390,367,-1,367,390,391,-1,367,391,368,-1,368,391,392,-1,368,392,369,-1,369,392,393,-1,369,393,370,-1,370,393,394,-1,370,394,371,-1,371,394,395,-1,371,395,372,-1,372,395,396,-1,372,396,373,-1,373,396,397,-1,373,397,374,-1,374,397,398,-1,374,398,375,-1,375,398,399,-1,375,399,376,-1,376,399,400,-1,376,400,377,-1,377,400,401,-1,377,401,378,-1,378,401,402,-1,378,402,379,-1,379,402,403,-1,379,403,380,-1,380,403,404,-1,380,404,381,-1,381,404,405,-1,381,405,382,-1,382,405,406,-1,382,406,383,-1,383,406,407,-1,383,407,384,-1,384,407,408,-1,384,408,385,-1,385,408,409,-1,385,409,362,-1,362,409,386,-1,386,410,387,-1,387,410,411,-1,387,411,388,-1,388,411,412,-1,388,412,389,-1,389,412,413,-1,389,413,390,-1,390,413,414,-1,390,414,391,-1,391,414,415,-1,391,415,392,-1,392,415,416,-1,392,416,393,-1,393,416,417,-1,393,417,394,-1,394,417,418,-1,394,418,395,-1,395,418,419,-1,395,419,396,-1,396,419,420,-1,396,420,397,-1,397,420,421,-1,397,421,398,-1,398,421,422,-1,398,422,399,-1,399,422,423,-1,399,423,400,-1,400,423,424,-1,400,424,401,-1,401,424,425,-1,401,425,402,-1,402,425,426,-1,402,426,403,-1,403,426,427,-1,403,427,404,-1,404,427,428,-1,404,428,405,-1,405,428,429,-1,405,429,406,-1,406,429,430,-1,406,430,407,-1,407,430,431,-1,407,431,408,-1,408,431,432,-1,408,432,409,-1,409,432,433,-1,409,433,386,-1,386,433,410,-1,410,302,411,-1,411,302,303,-1,411,303,412,-1,412,303,304,-1,412,304,413,-1,413,304,305,-1,413,305,414,-1,414,305,306,-1,414,306,415,-1,415,306,307,-1,415,307,416,-1,416,307,308,-1,416,308,417,-1,417,308,309,-1,417,309,418,-1,418,309,310,-1,418,310,419,-1,419,310,311,-1,419,311,420,-1,420,311,312,-1,420,312,421,-1,421,312,313,-1,421,313,422,-1,422,313,290,-1,422,290,423,-1,423,290,291,-1,423,291,424,-1,424,291,292,-1,424,292,425,-1,425,292,293,-1,425,293,426,-1,426,293,294,-1,426,294,427,-1,427,294,295,-1,427,295,428,-1,428,295,296,-1,428,296,429,-1,429,296,297,-1,429,297,430,-1,430,297,298,-1,430,298,431,-1,431,298,299,-1,431,299,432,-1,432,299,300,-1,432,300,433,-1,433,300,301,-1,433,301,410,-1,410,301,302,-1,
        ]
    }
}
Shape{
    appearance Appearance {
        material  Material {
            diffuseColor 0.20392156862745098 0.20392156862745098 0.20392156862745098
            specularColor 0.10196078431372549 0.10196078431372549 0.10196078431372549
            ambientIntensity 0.2039
            transparency 0.0
            shininess 0.5
        }
    }
    geometry IndexedFaceSet {
        ccw TRUE
        solid FALSE
        coord DEF co Coordinate {
            point [
                -3.3763 -0.6325 3.9331, -3.3763 -0.474 3.9331, -3.3763 -0.6325 3.937, -3.3763 -0.474 3.937, -3.1288 -0.5497 3.9331, -3.1288 -0.5497 3.937, -3.1509 -0.5491 3.937, -3.1509 -0.5491 3.9331, -3.258 -0.5298 3.937, -3.258 -0.5298 3.9331, -2.8578 -0.3068 3.9331, -2.8578 -0.3068 3.937, -2.8618 -0.3554 3.937, -2.8618 -0.3554 3.9331, -2.8767 -0.4064 3.937, -2.8767 -0.4064 3.9331, -2.9017 -0.4497 3.937, -2.9017 -0.4497 3.9331, -2.9379 -0.4879 3.937, -2.9379 -0.4879 3.9331, -2.9921 -0.5224 3.937, -2.9921 -0.5224 3.9331, -3.0527 -0.5424 3.937, -3.0527 -0.5424 3.9331, -3.1492 -0.0743 3.9331, -3.1492 -0.0743 3.937, -3.083 -0.0781 3.937, -3.083 -0.0781 3.9331, -3.0006 -0.0972 3.937, -3.0006 -0.0972 3.9331, -2.9531 -0.1205 3.937, -2.9531 -0.1205 3.9331, -2.9448 -0.126 3.937, -2.9448 -0.126 3.9331, -2.9081 -0.1587 3.937, -2.9081 -0.1587 3.9331, -2.8801 -0.2008 3.937, -2.8801 -0.2008 3.9331, -2.8642 -0.2466 3.937, -2.8642 -0.2466 3.9331, -3.3331 -0.0849 3.9331, -3.3331 -0.0849 3.937, -3.2413 -0.0777 3.937, -3.2413 -0.0777 3.9331, -3.3331 0.5162 3.9331, -3.3331 0.5162 3.937, -2.757 0.5162 3.9331, -2.757 0.5162 3.937, -2.757 0.3866 3.9331, -2.757 0.3866 3.937, -3.1891 0.3866 3.9331, -3.1891 0.3866 3.937, -3.1891 0.0515 3.9331, -3.1891 0.0515 3.937, -3.0903 0.0553 3.9331, -3.0903 0.0553 3.937, -3.1397 0.054 3.937, -3.1397 0.054 3.9331, -2.6994 -0.298 3.9331, -2.6994 -0.298 3.937, -2.7097 -0.2008 3.937, -2.7097 -0.2008 3.9331, -2.7332 -0.1319 3.937, -2.7332 -0.1319 3.9331, -2.77 -0.0732 3.937, -2.77 -0.0732 3.9331, -2.8261 -0.0193 3.937, -2.8261 -0.0193 3.9331, -2.894 0.0198 3.937, -2.894 0.0198 3.9331, -2.9806 0.0456 3.937, -2.9806 0.0456 3.9331, -3.1247 -0.6793 3.9331, -3.1247 -0.6793 3.937, -3.0392 -0.674 3.937, -3.0392 -0.674 3.9331, -3.0315 -0.6721 3.937, -2.9278 -0.6459 3.9331, -2.9278 -0.6459 3.937, -2.8496 -0.6042 3.937, -2.8496 -0.6042 3.9331, -2.782 -0.5419 3.937, -2.782 -0.5419 3.9331, -2.7385 -0.4762 3.937, -2.7385 -0.4762 3.9331, -2.7104 -0.3986 3.937, -2.7104 -0.3986 3.9331, -3.2313 -0.6721 3.937, -3.2535 -0.6706 3.9331, -3.2535 -0.6706 3.937, -3.346 -0.6468 3.9331, -3.346 -0.6468 3.937, 3.4654 0.5162 3.9331, 3.4654 -0.233 3.9331, 3.4654 0.5162 3.937, 3.4654 -0.233 3.937, 3.2079 -0.6703 3.9331, 3.1251 -0.6793 3.9331, 3.1913 -0.6721 3.937, 3.1251 -0.6793 3.937, 3.2079 -0.6703 3.937, 3.275 -0.6459 3.937, 3.275 -0.6459 3.9331, 3.3301 -0.609 3.937, 3.3301 -0.609 3.9331, 3.3799 -0.5552 3.937, 3.3799 -0.5552 3.9331, 3.4246 -0.4747 3.937, 3.4246 -0.4747 3.9331, 3.4541 -0.3714 3.937, 3.4541 -0.3714 3.9331, 3.0045 -0.6579 3.9331, 3.0045 -0.6579 3.937, 3.0637 -0.6747 3.9331, 3.0543 -0.6721 3.937, 3.0637 -0.6747 3.937, 3.0045 -0.5209 3.9331, 3.0045 -0.5209 3.937, 3.1224 -0.5497 3.9331, 3.1224 -0.5497 3.937, 3.1055 -0.5491 3.937, 3.1055 -0.5491 3.9331, 3.0522 -0.5411 3.937, 3.0522 -0.5411 3.9331, 3.307 -0.2368 3.9331, 3.307 -0.2368 3.937, 3.3018 -0.3324 3.937, 3.3018 -0.3324 3.9331, 3.2814 -0.4265 3.937, 3.2814 -0.4265 3.9331, 3.2756 -0.4417 3.937, 3.2756 -0.4417 3.9331, 3.2497 -0.4884 3.937, 3.2497 -0.4884 3.9331, 3.2247 -0.5151 3.937, 3.2247 -0.5151 3.9331, 3.1956 -0.5341 3.937, 3.1956 -0.5341 3.9331, 3.163 -0.5454 3.937, 3.163 -0.5454 3.9331, 3.307 0.5162 3.9331, 3.307 0.5162 3.937, 2.9181 -0.6649 3.9331, 2.486 -0.6649 3.9331, 2.9181 -0.6649 3.937, 2.486 -0.6649 3.937, 2.486 -0.5359 3.9331, 2.486 -0.5359 3.937, 2.7596 -0.0239 3.9331, 2.7596 -0.0239 3.937, 2.7458 -0.1557 3.937, 2.7458 -0.1557 3.9331, 2.7028 -0.281 3.937, 2.7028 -0.281 3.9331, 2.6328 -0.3934 3.937, 2.6328 -0.3934 3.9331, 2.3662 0.401 3.9331, 2.3662 0.401 3.937, 2.4546 0.3928 3.937, 2.4546 0.3928 3.9331, 2.538 0.3662 3.937, 2.538 0.3662 3.9331, 2.608 0.3236 3.937, 2.608 0.3236 3.9331, 2.6714 0.2604 3.937, 2.6714 0.2604 3.9331, 2.718 0.1847 3.937, 2.718 0.1847 3.9331, 2.7484 0.0922 3.937, 2.7484 0.0922 3.9331, 1.9674 -0.0246 3.9331, 1.9674 -0.0246 3.937, 1.9749 0.0699 3.937, 1.9749 0.0699 3.9331, 2.0002 0.1628 3.937, 2.0002 0.1628 3.9331, 2.0452 0.2454 3.937, 2.0452 0.2454 3.9331, 2.1027 0.3087 3.937, 2.1027 0.3087 3.9331, 2.179 0.3603 3.937, 2.179 0.3603 3.9331, 2.2614 0.3897 3.937, 2.2614 0.3897 3.9331, 2.2411 -0.5359 3.9331, 2.2411 -0.5359 3.937, 2.1949 -0.4982 3.937, 2.1949 -0.4982 3.9331, 2.1256 -0.4301 3.937, 2.1256 -0.4301 3.9331, 2.0371 -0.3058 3.937, 2.0371 -0.3058 3.9331, 1.9855 -0.1737 3.937, 1.9855 -0.1737 3.9331, 2.2411 -0.6649 3.9331, 2.2411 -0.6649 3.937, 1.809 -0.6649 3.9331, 1.809 -0.6649 3.937, 1.809 -0.5353 3.9331, 1.809 -0.5353 3.937, 2.0914 -0.5359 3.9331, 2.0914 -0.5359 3.937, 1.809 -0.0187 3.9331, 1.809 -0.0187 3.937, 1.8099 -0.0539 3.937, 1.8099 -0.0539 3.9331, 1.8305 -0.1892 3.937, 1.8305 -0.1892 3.9331, 1.8799 -0.3124 3.937, 1.8799 -0.3124 3.9331, 1.9582 -0.4221 3.937, 1.9582 -0.4221 3.9331, 2.2244 0.5177 3.9331, 2.3617 0.5306 3.9331, 2.2851 0.5234 3.937, 2.3617 0.5306 3.937, 2.2244 0.5177 3.937, 2.1069 0.481 3.937, 2.1069 0.481 3.9331, 2.0014 0.4173 3.937, 2.0014 0.4173 3.9331, 1.9239 0.3408 3.937, 1.9239 0.3408 3.9331, 1.8632 0.2445 3.937, 1.8632 0.2445 3.9331, 1.8238 0.1276 3.937, 1.8238 0.1276 3.9331, 2.4351 0.5234 3.937, 2.5112 0.5159 3.9331, 2.5112 0.5159 3.937, 2.6315 0.4766 3.9331, 2.6315 0.4766 3.937, 2.7303 0.4151 3.9331, 2.7303 0.4151 3.937, 2.8154 0.3276 3.9331, 2.8154 0.3276 3.937, 2.8753 0.2213 3.9331, 2.8753 0.2213 3.937, 2.9077 0.1079 3.9331, 2.9077 0.1079 3.937, 2.9181 -0.0172 3.9331, 2.9181 -0.0172 3.937, 2.635 -0.5359 3.9331, 2.635 -0.5359 3.937, 2.6511 -0.5247 3.937, 2.6511 -0.5247 3.9331, 2.7698 -0.4199 3.937, 2.7698 -0.4199 3.9331, 2.8493 -0.3073 3.937, 2.8493 -0.3073 3.9331, 2.8998 -0.1747 3.937, 2.8998 -0.1747 3.9331, 2.9181 -0.5353 3.9331, 2.9181 -0.5353 3.937, 1.6218 -0.5353 3.9331, 1.6218 -0.6649 3.9331, 1.6218 -0.5353 3.937, 1.6218 -0.6649 3.937, 0.9448 -0.6649 3.9331, 0.9448 -0.6649 3.937, 0.9448 -0.5353 3.9331, 0.9448 -0.5353 3.937, 1.2184 -0.5353 3.9331, 1.2184 -0.5353 3.937, 1.2184 0.3506 3.9331, 1.2184 0.3506 3.937, 0.9448 0.2713 3.9331, 0.9448 0.2713 3.937, 0.9448 0.4154 3.9331, 0.9448 0.4154 3.937, 1.3364 0.5234 3.937, 1.3625 0.5306 3.9331, 1.3625 0.5306 3.937, 1.3625 -0.5353 3.9331, 1.3625 -0.5353 3.937, 1.3625 0.5234 3.937, 0.0373 -0.6325 3.9331, 0.0373 -0.474 3.9331, 0.0373 -0.6325 3.937, 0.0373 -0.474 3.937, 0.2849 -0.5497 3.9331, 0.2849 -0.5497 3.937, 0.2628 -0.5491 3.937, 0.2628 -0.5491 3.9331, 0.1557 -0.5298 3.937, 0.1557 -0.5298 3.9331, 0.5559 -0.3068 3.9331, 0.5559 -0.3068 3.937, 0.5518 -0.3554 3.937, 0.5518 -0.3554 3.9331, 0.537 -0.4064 3.937, 0.537 -0.4064 3.9331, 0.512 -0.4497 3.937, 0.512 -0.4497 3.9331, 0.4758 -0.4879 3.937, 0.4758 -0.4879 3.9331, 0.4215 -0.5224 3.937, 0.4215 -0.5224 3.9331, 0.361 -0.5424 3.937, 0.361 -0.5424 3.9331, 0.2644 -0.0743 3.9331, 0.2644 -0.0743 3.937, 0.3307 -0.0781 3.937, 0.3307 -0.0781 3.9331, 0.4131 -0.0972 3.937, 0.4131 -0.0972 3.9331, 0.4606 -0.1205 3.937, 0.4606 -0.1205 3.9331, 0.4689 -0.126 3.937, 0.4689 -0.126 3.9331, 0.5056 -0.1587 3.937, 0.5056 -0.1587 3.9331, 0.5336 -0.2008 3.937, 0.5336 -0.2008 3.9331, 0.5495 -0.2466 3.937, 0.5495 -0.2466 3.9331, 0.0806 -0.0849 3.9331, 0.0806 -0.0849 3.937, 0.1724 -0.0777 3.937, 0.1724 -0.0777 3.9331, 0.0806 0.5162 3.9331, 0.0806 0.5162 3.937, 0.6567 0.5162 3.9331, 0.6567 0.5162 3.937, 0.6567 0.3866 3.9331, 0.6567 0.3866 3.937, 0.2246 0.3866 3.9331, 0.2246 0.3866 3.937, 0.2246 0.0515 3.9331, 0.2246 0.0515 3.937, 0.3234 0.0553 3.9331, 0.3234 0.0553 3.937, 0.274 0.054 3.937, 0.274 0.054 3.9331, 0.7143 -0.298 3.9331, 0.7143 -0.298 3.937, 0.7039 -0.2008 3.937, 0.7039 -0.2008 3.9331, 0.6805 -0.1319 3.937, 0.6805 -0.1319 3.9331, 0.6436 -0.0732 3.937, 0.6436 -0.0732 3.9331, 0.5875 -0.0193 3.937, 0.5875 -0.0193 3.9331, 0.5197 0.0198 3.937, 0.5197 0.0198 3.9331, 0.4331 0.0456 3.937, 0.4331 0.0456 3.9331, 0.289 -0.6793 3.9331, 0.289 -0.6793 3.937, 0.3745 -0.674 3.937, 0.3745 -0.674 3.9331, 0.3821 -0.6721 3.937, 0.4859 -0.6459 3.9331, 0.4859 -0.6459 3.937, 0.5641 -0.6042 3.937, 0.5641 -0.6042 3.9331, 0.6316 -0.5419 3.937, 0.6316 -0.5419 3.9331, 0.6752 -0.4762 3.937, 0.6752 -0.4762 3.9331, 0.7032 -0.3986 3.937, 0.7032 -0.3986 3.9331, 0.1824 -0.6721 3.937, 0.1602 -0.6706 3.9331, 0.1602 -0.6706 3.937, 0.0677 -0.6468 3.9331, 0.0677 -0.6468 3.937, -1.187 0.5162 3.9331, -1.0285 0.5162 3.9331, -1.187 0.5162 3.937, -1.0285 0.5162 3.937, -1.3598 -0.6649 3.9331, -1.3598 -0.6649 3.937, -1.5327 -0.6649 3.9331, -1.5327 -0.6649 3.937, -1.7728 0.1917 3.9331, -1.7728 0.1917 3.937, -1.7919 0.3146 3.9331, -1.7919 0.3146 3.937, -1.7857 0.2526 3.937, -1.7857 0.2526 3.9331, -1.8063 0.3146 3.9331, -1.8063 0.3146 3.937, -1.8275 0.1933 3.9331, -1.8275 0.1933 3.937, -1.8136 0.2533 3.937, -1.8136 0.2533 3.9331, -2.0656 -0.6649 3.9331, -2.0656 -0.6649 3.937, -2.2384 -0.6649 3.9331, -2.2384 -0.6649 3.937, -2.5841 0.5162 3.9331, -2.5841 0.5162 3.937, -2.4113 0.5162 3.9331, -2.4113 0.5162 3.937, -2.1709 -0.3714 3.9331, -2.1709 -0.3714 3.937, -2.152 -0.492 3.9331, -2.152 -0.492 3.937, -2.1584 -0.4312 3.937, -2.1584 -0.4312 3.9331, -2.1261 -0.3714 3.9331, -2.1261 -0.3714 3.937, -2.1419 -0.4311 3.937, -2.1419 -0.4311 3.9331, -1.8639 0.5162 3.9331, -1.8639 0.5162 3.937, -1.7199 0.5162 3.9331, -1.7199 0.5162 3.937, -1.4667 -0.3795 3.9331, -1.4667 -0.3795 3.937, -1.4462 -0.492 3.9331, -1.4462 -0.492 3.937, -1.4542 -0.4354 3.937, -1.4542 -0.4354 3.9331, -1.4237 -0.3766 3.9331, -1.4237 -0.3766 3.937, -1.4377 -0.4338 3.937, -1.4377 -0.4338 3.9331, 0.6193 -0.531 0.2008, 0.6193 -0.5742 0.2008, 0.6193 -0.531 0.1969, 0.6193 -0.5742 0.1969, 0.821 -0.5742 0.2008, 0.821 -0.5742 0.1969, 0.821 -0.1805 0.2008, 0.821 -0.1805 0.1969, 0.7681 -0.1805 0.2008, 0.7681 -0.1805 0.1969, 0.7681 -0.531 0.2008, 0.7681 -0.531 0.1969, -0.6194 -0.1805 0.2008, -0.773 -0.5742 0.2008, -0.6194 -0.1805 0.1969, -0.773 -0.5742 0.1969, -0.7154 -0.5742 0.2008, -0.7154 -0.5742 0.1969, -0.6756 -0.4638 0.2008, -0.6756 -0.4638 0.1969, -0.513 -0.4638 0.2008, -0.513 -0.4638 0.1969, -0.4754 -0.5742 0.2008, -0.4754 -0.5742 0.1969, -0.4178 -0.5742 0.2008, -0.4178 -0.5742 0.1969, -0.5666 -0.1805 0.2008, -0.5666 -0.1805 0.1969, -0.5262 -0.4206 0.2008, -0.585 -0.2561 0.2008, -0.5888 -0.2425 0.2008, -0.5913 -0.2285 0.2008, -0.5926 -0.2285 0.2008, -0.5951 -0.2424 0.2008, -0.5986 -0.2561 0.2008, -0.6579 -0.4206 0.2008, -0.5262 -0.4206 0.1969, -0.6579 -0.4206 0.1969, -0.585 -0.2561 0.1969, -0.5888 -0.2425 0.1969, -0.5913 -0.2285 0.1969, -0.5926 -0.2285 0.1969, -0.5951 -0.2424 0.1969, -0.5986 -0.2561 0.1969, -0.1791 -0.5742 0.2008, -0.0721 -0.5742 0.2008, -0.1791 -0.5742 0.1969, -0.0721 -0.5742 0.1969, -0.0721 -0.1805 0.2008, -0.0721 -0.1805 0.1969, -0.1832 -0.1805 0.2008, -0.1832 -0.1805 0.1969, -0.389 -0.3724 0.2008, -0.389 -0.3724 0.1969, -0.3861 -0.3354 0.1969, -0.3861 -0.3354 0.2008, -0.3755 -0.2966 0.1969, -0.3755 -0.2966 0.2008, -0.3572 -0.2627 0.1969, -0.3572 -0.2627 0.2008, -0.3294 -0.2318 0.1969, -0.3294 -0.2318 0.2008, -0.329 -0.2315 0.1969, -0.329 -0.2315 0.2008, -0.2861 -0.2028 0.1969, -0.2861 -0.2028 0.2008, -0.2401 -0.1866 0.1969, -0.2401 -0.1866 0.2008, -0.2278 -0.57 0.1969, -0.2278 -0.57 0.2008, -0.2732 -0.5564 0.1969, -0.2732 -0.5564 0.2008, -0.3143 -0.5325 0.1969, -0.3143 -0.5325 0.2008, -0.3467 -0.5015 0.1969, -0.3467 -0.5015 0.2008, -0.3693 -0.4663 0.1969, -0.3693 -0.4663 0.2008, -0.3834 -0.4251 0.1969, -0.3834 -0.4251 0.2008, -0.3099 -0.2789 0.2008, -0.2908 -0.2586 0.2008, -0.262 -0.24 0.2008, -0.2295 -0.2287 0.2008, -0.1829 -0.2237 0.2008, -0.1249 -0.2237 0.2008, -0.1249 -0.531 0.2008, -0.1808 -0.531 0.2008, -0.2223 -0.5271 0.2008, -0.2554 -0.5168 0.2008, -0.2823 -0.5008 0.2008, -0.3044 -0.479 0.2008, -0.321 -0.4519 0.2008, -0.3325 -0.4149 0.2008, -0.3361 -0.3735 0.2008, -0.3328 -0.3343 0.2008, -0.3236 -0.3032 0.2008, -0.1829 -0.2237 0.1969, -0.1249 -0.2237 0.1969, -0.2295 -0.2287 0.1969, -0.262 -0.24 0.1969, -0.2908 -0.2586 0.1969, -0.3099 -0.2789 0.1969, -0.3236 -0.3032 0.1969, -0.3328 -0.3343 0.1969, -0.3361 -0.3735 0.1969, -0.3325 -0.4149 0.1969, -0.321 -0.4519 0.1969, -0.3044 -0.479 0.1969, -0.2823 -0.5008 0.1969, -0.2554 -0.5168 0.1969, -0.2223 -0.5271 0.1969, -0.1808 -0.531 0.1969, -0.1249 -0.531 0.1969, 0.0048 -0.531 0.2008, 0.0048 -0.5742 0.2008, 0.0048 -0.531 0.1969, 0.0048 -0.5742 0.1969, 0.216 -0.5742 0.2008, 0.216 -0.5742 0.1969, 0.216 -0.1805 0.2008, 0.216 -0.1805 0.1969, 0.0144 -0.1805 0.2008, 0.0144 -0.1805 0.1969, 0.0144 -0.2237 0.2008, 0.0144 -0.2237 0.1969, 0.1632 -0.2237 0.2008, 0.1632 -0.2237 0.1969, 0.1632 -0.3533 0.2008, 0.1632 -0.3533 0.1969, 0.024 -0.3533 0.2008, 0.024 -0.3533 0.1969, 0.024 -0.3966 0.2008, 0.024 -0.3966 0.1969, 0.1632 -0.3966 0.2008, 0.1632 -0.3966 0.1969, 0.1632 -0.531 0.2008, 0.1632 -0.531 0.1969, 0.2928 -0.5106 0.2008, 0.2928 -0.5538 0.2008, 0.2928 -0.5106 0.1969, 0.2928 -0.5538 0.1969, 0.3348 -0.571 0.2008, 0.4012 -0.579 0.2008, 0.4012 -0.579 0.1969, 0.3904 -0.5788 0.1969, 0.3904 -0.5788 0.2008, 0.3746 -0.5766 0.1969, 0.3348 -0.571 0.1969, 0.4243 -0.5766 0.1969, 0.4497 -0.574 0.2008, 0.4497 -0.574 0.1969, 0.4878 -0.5608 0.2008, 0.4878 -0.5608 0.1969, 0.5195 -0.5406 0.2008, 0.5195 -0.5406 0.1969, 0.5491 -0.5095 0.2008, 0.5491 -0.5095 0.1969, 0.57 -0.4721 0.2008, 0.57 -0.4721 0.1969, 0.5819 -0.4304 0.2008, 0.5819 -0.4304 0.1969, 0.5857 -0.3848 0.2008, 0.5857 -0.3848 0.1969, 0.3855 -0.1757 0.2008, 0.3855 -0.1757 0.1969, 0.425 -0.1789 0.1969, 0.425 -0.1789 0.2008, 0.4689 -0.1917 0.1969, 0.4689 -0.1917 0.2008, 0.5063 -0.2132 0.1969, 0.5063 -0.2132 0.2008, 0.5418 -0.2474 0.1969, 0.5418 -0.2474 0.2008, 0.5649 -0.2842 0.1969, 0.5649 -0.2842 0.2008, 0.58 -0.3288 0.1969, 0.58 -0.3288 0.2008, 0.2928 -0.1913 0.2008, 0.2928 -0.1913 0.1969, 0.3383 -0.179 0.1969, 0.3383 -0.179 0.2008, 0.2928 -0.2441 0.2008, 0.2928 -0.2441 0.1969, 0.385 -0.2189 0.2008, 0.385 -0.2189 0.1969, 0.3372 -0.2251 0.1969, 0.3372 -0.2251 0.2008, 0.5329 -0.3816 0.2008, 0.5329 -0.3816 0.1969, 0.531 -0.3509 0.1969, 0.531 -0.3509 0.2008, 0.5205 -0.3088 0.1969, 0.5205 -0.3088 0.2008, 0.5043 -0.2784 0.1969, 0.5043 -0.2784 0.2008, 0.4805 -0.2521 0.1969, 0.4805 -0.2521 0.2008, 0.4533 -0.2339 0.1969, 0.4533 -0.2339 0.2008, 0.4238 -0.2233 0.1969, 0.4238 -0.2233 0.2008, 0.3939 -0.5358 0.2008, 0.3939 -0.5358 0.1969, 0.4306 -0.5317 0.1969, 0.4306 -0.5317 0.2008, 0.4593 -0.5211 0.1969, 0.4593 -0.5211 0.2008, 0.4834 -0.5048 0.1969, 0.4834 -0.5048 0.2008, 0.5019 -0.4853 0.1969, 0.5019 -0.4853 0.2008, 0.5182 -0.458 0.1969, 0.5182 -0.458 0.2008, 0.5289 -0.4242 0.1969, 0.5289 -0.4242 0.2008, 0.2999 -0.5145 0.1969, 0.2999 -0.5145 0.2008, 0.3416 -0.53 0.1969, 0.3416 -0.53 0.2008
            ]
        }
        coordIndex [
            0,1,2,-1,2,1,3,-1,4,5,6,-1,4,6,7,-1,7,6,8,-1,7,8,9,-1,9,8,3,-1,9,3,1,-1,10,11,12,-1,10,12,13,-1,13,12,14,-1,13,14,15,-1,15,14,16,-1,15,16,17,-1,17,16,18,-1,17,18,19,-1,19,18,20,-1,19,20,21,-1,21,20,22,-1,21,22,23,-1,23,22,5,-1,23,5,4,-1,24,25,26,-1,24,26,27,-1,27,26,28,-1,27,28,29,-1,29,28,30,-1,29,30,31,-1,31,30,32,-1,31,32,33,-1,33,32,34,-1,33,34,35,-1,35,34,36,-1,35,36,37,-1,37,36,38,-1,37,38,39,-1,39,38,11,-1,39,11,10,-1,40,41,42,-1,40,42,43,-1,43,42,25,-1,43,25,24,-1,40,44,41,-1,41,44,45,-1,44,46,45,-1,45,46,47,-1,46,48,47,-1,47,48,49,-1,48,50,49,-1,49,50,51,-1,50,52,51,-1,51,52,53,-1,54,55,56,-1,54,56,57,-1,57,56,53,-1,57,53,52,-1,58,59,60,-1,58,60,61,-1,61,60,62,-1,61,62,63,-1,63,62,64,-1,63,64,65,-1,65,64,66,-1,65,66,67,-1,67,66,68,-1,67,68,69,-1,69,68,70,-1,69,70,71,-1,71,70,55,-1,71,55,54,-1,72,73,74,-1,72,74,75,-1,75,74,76,-1,75,76,77,-1,76,78,77,-1,77,78,79,-1,77,79,80,-1,80,79,81,-1,80,81,82,-1,82,81,83,-1,82,83,84,-1,84,83,85,-1,84,85,86,-1,86,85,59,-1,86,59,58,-1,73,72,87,-1,87,72,88,-1,87,88,89,-1,89,88,90,-1,89,90,91,-1,91,90,0,-1,91,0,2,-1,9,1,0,-1,48,46,50,-1,50,46,44,-1,50,44,52,-1,72,7,88,-1,88,7,9,-1,88,9,90,-1,90,9,0,-1,44,40,52,-1,52,40,43,-1,52,43,57,-1,57,43,24,-1,57,24,54,-1,54,24,27,-1,54,27,71,-1,71,27,29,-1,71,29,69,-1,69,29,31,-1,69,31,67,-1,67,31,33,-1,67,33,65,-1,65,33,35,-1,65,35,63,-1,63,35,37,-1,63,37,61,-1,61,37,39,-1,61,39,58,-1,58,39,10,-1,58,10,86,-1,86,10,13,-1,86,13,84,-1,84,13,15,-1,84,15,82,-1,82,15,17,-1,82,17,80,-1,80,17,19,-1,80,19,77,-1,77,19,21,-1,77,21,75,-1,75,21,23,-1,75,23,72,-1,72,23,4,-1,72,4,7,-1,92,93,94,-1,94,93,95,-1,96,97,98,-1,98,97,99,-1,98,100,96,-1,96,100,101,-1,96,101,102,-1,102,101,103,-1,102,103,104,-1,104,103,105,-1,104,105,106,-1,106,105,107,-1,106,107,108,-1,108,107,109,-1,108,109,110,-1,110,109,95,-1,110,95,93,-1,111,112,113,-1,113,112,114,-1,114,115,113,-1,113,115,99,-1,113,99,97,-1,111,116,112,-1,112,116,117,-1,118,119,120,-1,118,120,121,-1,121,120,122,-1,121,122,123,-1,123,122,117,-1,123,117,116,-1,124,125,126,-1,124,126,127,-1,127,126,128,-1,127,128,129,-1,129,128,130,-1,129,130,131,-1,131,130,132,-1,131,132,133,-1,133,132,134,-1,133,134,135,-1,135,134,136,-1,135,136,137,-1,137,136,138,-1,137,138,139,-1,139,138,119,-1,139,119,118,-1,124,140,125,-1,125,140,141,-1,140,92,141,-1,141,92,94,-1,92,140,93,-1,93,140,124,-1,93,124,110,-1,110,124,127,-1,110,127,108,-1,127,129,108,-1,108,129,131,-1,108,131,106,-1,106,131,133,-1,106,133,104,-1,104,133,135,-1,104,135,102,-1,102,135,137,-1,102,137,96,-1,96,137,139,-1,96,139,97,-1,97,139,118,-1,97,118,113,-1,113,118,121,-1,113,121,111,-1,111,121,123,-1,111,123,116,-1,142,143,144,-1,144,143,145,-1,143,146,145,-1,145,146,147,-1,148,149,150,-1,148,150,151,-1,151,150,152,-1,151,152,153,-1,153,152,154,-1,153,154,155,-1,155,154,147,-1,155,147,146,-1,156,157,158,-1,156,158,159,-1,159,158,160,-1,159,160,161,-1,161,160,162,-1,161,162,163,-1,163,162,164,-1,163,164,165,-1,165,164,166,-1,165,166,167,-1,167,166,168,-1,167,168,169,-1,169,168,149,-1,169,149,148,-1,170,171,172,-1,170,172,173,-1,173,172,174,-1,173,174,175,-1,175,174,176,-1,175,176,177,-1,177,176,178,-1,177,178,179,-1,179,178,180,-1,179,180,181,-1,181,180,182,-1,181,182,183,-1,183,182,157,-1,183,157,156,-1,184,185,186,-1,184,186,187,-1,187,186,188,-1,187,188,189,-1,189,188,190,-1,189,190,191,-1,191,190,192,-1,191,192,193,-1,193,192,171,-1,193,171,170,-1,184,194,185,-1,185,194,195,-1,194,196,195,-1,195,196,197,-1,196,198,197,-1,197,198,199,-1,198,200,199,-1,199,200,201,-1,202,203,204,-1,202,204,205,-1,205,204,206,-1,205,206,207,-1,207,206,208,-1,207,208,209,-1,209,208,210,-1,209,210,211,-1,211,210,201,-1,211,201,200,-1,212,213,214,-1,214,213,215,-1,214,216,212,-1,212,216,217,-1,212,217,218,-1,218,217,219,-1,218,219,220,-1,220,219,221,-1,220,221,222,-1,222,221,223,-1,222,223,224,-1,224,223,225,-1,224,225,226,-1,226,225,203,-1,226,203,202,-1,215,213,227,-1,227,213,228,-1,227,228,229,-1,229,228,230,-1,229,230,231,-1,231,230,232,-1,231,232,233,-1,233,232,234,-1,233,234,235,-1,235,234,236,-1,235,236,237,-1,237,236,238,-1,237,238,239,-1,239,238,240,-1,239,240,241,-1,242,243,244,-1,242,244,245,-1,245,244,246,-1,245,246,247,-1,247,246,248,-1,247,248,249,-1,249,248,250,-1,249,250,251,-1,251,250,241,-1,251,241,240,-1,242,252,243,-1,243,252,253,-1,252,142,253,-1,253,142,144,-1,155,146,143,-1,153,155,242,-1,242,155,143,-1,242,143,252,-1,252,143,142,-1,198,196,200,-1,200,196,194,-1,200,194,184,-1,184,187,200,-1,200,187,189,-1,200,189,211,-1,211,189,191,-1,170,205,193,-1,193,205,207,-1,193,207,191,-1,191,207,209,-1,191,209,211,-1,153,242,151,-1,151,242,245,-1,151,245,247,-1,247,249,151,-1,151,249,251,-1,151,251,148,-1,148,251,240,-1,148,240,169,-1,169,240,238,-1,169,238,167,-1,167,238,236,-1,167,236,165,-1,165,236,234,-1,165,234,163,-1,163,234,232,-1,163,232,161,-1,161,232,230,-1,161,230,159,-1,159,230,228,-1,159,228,156,-1,156,228,213,-1,156,213,183,-1,183,213,212,-1,183,212,181,-1,181,212,218,-1,181,218,179,-1,179,218,220,-1,179,220,177,-1,177,220,222,-1,177,222,175,-1,175,222,224,-1,175,224,173,-1,173,224,226,-1,173,226,170,-1,170,226,202,-1,170,202,205,-1,254,255,256,-1,256,255,257,-1,255,258,257,-1,257,258,259,-1,258,260,259,-1,259,260,261,-1,260,262,261,-1,261,262,263,-1,262,264,263,-1,263,264,265,-1,264,266,265,-1,265,266,267,-1,266,268,267,-1,267,268,269,-1,269,268,270,-1,270,268,271,-1,270,271,272,-1,273,274,271,-1,271,274,275,-1,271,275,272,-1,273,254,274,-1,274,254,256,-1,262,260,258,-1,255,254,273,-1,268,266,271,-1,271,266,264,-1,271,264,273,-1,273,264,262,-1,273,262,255,-1,255,262,258,-1,276,277,278,-1,278,277,279,-1,280,281,282,-1,280,282,283,-1,283,282,284,-1,283,284,285,-1,285,284,279,-1,285,279,277,-1,286,287,288,-1,286,288,289,-1,289,288,290,-1,289,290,291,-1,291,290,292,-1,291,292,293,-1,293,292,294,-1,293,294,295,-1,295,294,296,-1,295,296,297,-1,297,296,298,-1,297,298,299,-1,299,298,281,-1,299,281,280,-1,300,301,302,-1,300,302,303,-1,303,302,304,-1,303,304,305,-1,305,304,306,-1,305,306,307,-1,307,306,308,-1,307,308,309,-1,309,308,310,-1,309,310,311,-1,311,310,312,-1,311,312,313,-1,313,312,314,-1,313,314,315,-1,315,314,287,-1,315,287,286,-1,316,317,318,-1,316,318,319,-1,319,318,301,-1,319,301,300,-1,316,320,317,-1,317,320,321,-1,320,322,321,-1,321,322,323,-1,322,324,323,-1,323,324,325,-1,324,326,325,-1,325,326,327,-1,326,328,327,-1,327,328,329,-1,330,331,332,-1,330,332,333,-1,333,332,329,-1,333,329,328,-1,334,335,336,-1,334,336,337,-1,337,336,338,-1,337,338,339,-1,339,338,340,-1,339,340,341,-1,341,340,342,-1,341,342,343,-1,343,342,344,-1,343,344,345,-1,345,344,346,-1,345,346,347,-1,347,346,331,-1,347,331,330,-1,348,349,350,-1,348,350,351,-1,351,350,352,-1,351,352,353,-1,352,354,353,-1,353,354,355,-1,353,355,356,-1,356,355,357,-1,356,357,358,-1,358,357,359,-1,358,359,360,-1,360,359,361,-1,360,361,362,-1,362,361,335,-1,362,335,334,-1,349,348,363,-1,363,348,364,-1,363,364,365,-1,365,364,366,-1,365,366,367,-1,367,366,276,-1,367,276,278,-1,285,277,276,-1,324,322,326,-1,326,322,320,-1,326,320,328,-1,348,283,364,-1,364,283,285,-1,364,285,366,-1,366,285,276,-1,320,316,328,-1,328,316,319,-1,328,319,333,-1,333,319,300,-1,333,300,330,-1,330,300,303,-1,330,303,347,-1,347,303,305,-1,347,305,345,-1,345,305,307,-1,345,307,343,-1,343,307,309,-1,343,309,341,-1,341,309,311,-1,341,311,339,-1,339,311,313,-1,339,313,337,-1,337,313,315,-1,337,315,334,-1,334,315,286,-1,334,286,362,-1,362,286,289,-1,362,289,360,-1,360,289,291,-1,360,291,358,-1,358,291,293,-1,358,293,356,-1,356,293,295,-1,356,295,353,-1,353,295,297,-1,353,297,351,-1,351,297,299,-1,351,299,348,-1,348,299,280,-1,348,280,283,-1,368,369,370,-1,370,369,371,-1,369,372,371,-1,371,372,373,-1,372,374,373,-1,373,374,375,-1,374,376,375,-1,375,376,377,-1,378,379,380,-1,378,380,381,-1,381,380,377,-1,381,377,376,-1,378,382,379,-1,379,382,383,-1,384,385,386,-1,384,386,387,-1,387,386,383,-1,387,383,382,-1,384,388,385,-1,385,388,389,-1,388,390,389,-1,389,390,391,-1,390,392,391,-1,391,392,393,-1,392,394,393,-1,393,394,395,-1,394,396,395,-1,395,396,397,-1,398,399,400,-1,398,400,401,-1,401,400,397,-1,401,397,396,-1,402,403,404,-1,402,404,405,-1,405,404,399,-1,405,399,398,-1,402,406,403,-1,403,406,407,-1,406,408,407,-1,407,408,409,-1,408,410,409,-1,409,410,411,-1,412,413,414,-1,412,414,415,-1,415,414,411,-1,415,411,410,-1,416,417,418,-1,416,418,419,-1,419,418,413,-1,419,413,412,-1,416,368,417,-1,417,368,370,-1,394,392,396,-1,396,392,390,-1,396,390,401,-1,369,368,372,-1,372,368,416,-1,416,419,372,-1,372,419,412,-1,372,412,374,-1,401,390,398,-1,398,390,388,-1,398,388,405,-1,412,415,374,-1,374,415,410,-1,374,410,376,-1,376,410,408,-1,376,408,381,-1,384,406,388,-1,388,406,402,-1,388,402,405,-1,384,387,406,-1,406,387,382,-1,406,382,408,-1,408,382,378,-1,408,378,381,-1,420,421,422,-1,422,421,423,-1,421,424,423,-1,423,424,425,-1,424,426,425,-1,425,426,427,-1,426,428,427,-1,427,428,429,-1,428,430,429,-1,429,430,431,-1,430,420,431,-1,431,420,422,-1,428,426,430,-1,430,426,424,-1,430,424,420,-1,420,424,421,-1,432,433,434,-1,434,433,435,-1,433,436,435,-1,435,436,437,-1,436,438,437,-1,437,438,439,-1,438,440,439,-1,439,440,441,-1,440,442,441,-1,441,442,443,-1,442,444,443,-1,443,444,445,-1,444,446,445,-1,445,446,447,-1,446,432,447,-1,447,432,434,-1,448,449,446,-1,444,442,440,-1,449,450,446,-1,446,450,451,-1,446,451,432,-1,432,451,452,-1,432,452,453,-1,453,454,432,-1,432,454,455,-1,432,455,433,-1,436,433,438,-1,438,433,455,-1,438,455,440,-1,440,455,448,-1,440,448,444,-1,444,448,446,-1,448,455,456,-1,456,455,457,-1,449,448,458,-1,458,448,456,-1,449,458,459,-1,449,459,450,-1,450,459,460,-1,450,460,451,-1,452,451,461,-1,461,451,460,-1,452,461,462,-1,452,462,453,-1,453,462,463,-1,453,463,454,-1,455,454,457,-1,457,454,463,-1,464,465,466,-1,466,465,467,-1,465,468,467,-1,467,468,469,-1,468,470,469,-1,469,470,471,-1,472,473,474,-1,472,474,475,-1,475,474,476,-1,475,476,477,-1,477,476,478,-1,477,478,479,-1,479,478,480,-1,479,480,481,-1,481,480,482,-1,481,482,483,-1,483,482,484,-1,483,484,485,-1,485,484,486,-1,485,486,487,-1,487,486,471,-1,487,471,470,-1,464,466,488,-1,464,488,489,-1,489,488,490,-1,489,490,491,-1,491,490,492,-1,491,492,493,-1,493,492,494,-1,493,494,495,-1,495,494,496,-1,495,496,497,-1,497,496,498,-1,497,498,499,-1,499,498,473,-1,499,473,472,-1,477,479,500,-1,500,479,481,-1,500,481,501,-1,501,481,483,-1,501,483,502,-1,502,483,485,-1,502,485,503,-1,503,485,487,-1,503,487,504,-1,504,487,470,-1,504,470,505,-1,505,470,468,-1,505,468,506,-1,506,468,465,-1,506,465,507,-1,507,465,464,-1,507,464,508,-1,508,464,489,-1,508,489,509,-1,509,489,491,-1,509,491,510,-1,510,491,493,-1,510,493,511,-1,511,493,495,-1,511,495,512,-1,512,495,497,-1,512,497,513,-1,513,497,499,-1,513,499,514,-1,514,499,472,-1,514,472,515,-1,515,472,475,-1,515,475,516,-1,516,475,477,-1,516,477,500,-1,504,505,517,-1,517,505,518,-1,504,517,519,-1,504,519,503,-1,503,519,520,-1,503,520,502,-1,502,520,521,-1,502,521,501,-1,501,521,522,-1,501,522,500,-1,500,522,523,-1,500,523,516,-1,516,523,524,-1,516,524,515,-1,515,524,525,-1,515,525,514,-1,514,525,526,-1,514,526,513,-1,513,526,527,-1,513,527,512,-1,512,527,528,-1,512,528,511,-1,511,528,529,-1,511,529,510,-1,510,529,530,-1,510,530,509,-1,509,530,531,-1,509,531,508,-1,508,531,532,-1,508,532,507,-1,506,507,533,-1,533,507,532,-1,505,506,518,-1,518,506,533,-1,534,535,536,-1,536,535,537,-1,535,538,537,-1,537,538,539,-1,538,540,539,-1,539,540,541,-1,540,542,541,-1,541,542,543,-1,542,544,543,-1,543,544,545,-1,544,546,545,-1,545,546,547,-1,546,548,547,-1,547,548,549,-1,548,550,549,-1,549,550,551,-1,550,552,551,-1,551,552,553,-1,552,554,553,-1,553,554,555,-1,554,556,555,-1,555,556,557,-1,556,534,557,-1,557,534,536,-1,538,535,534,-1,534,556,538,-1,538,556,554,-1,538,554,540,-1,544,542,546,-1,546,542,540,-1,546,540,548,-1,548,540,554,-1,548,554,550,-1,550,554,552,-1,558,559,560,-1,560,559,561,-1,561,559,562,-1,563,564,565,-1,563,565,566,-1,566,565,567,-1,566,567,562,-1,562,567,568,-1,562,568,561,-1,564,563,569,-1,569,563,570,-1,569,570,571,-1,571,570,572,-1,571,572,573,-1,573,572,574,-1,573,574,575,-1,575,574,576,-1,575,576,577,-1,577,576,578,-1,577,578,579,-1,579,578,580,-1,579,580,581,-1,581,580,582,-1,581,582,583,-1,584,585,586,-1,584,586,587,-1,587,586,588,-1,587,588,589,-1,589,588,590,-1,589,590,591,-1,591,590,592,-1,591,592,593,-1,593,592,594,-1,593,594,595,-1,595,594,596,-1,595,596,597,-1,597,596,583,-1,597,583,582,-1,598,599,600,-1,598,600,601,-1,601,600,585,-1,601,585,584,-1,598,602,599,-1,599,602,603,-1,604,605,606,-1,604,606,607,-1,607,606,603,-1,607,603,602,-1,608,609,610,-1,608,610,611,-1,611,610,612,-1,611,612,613,-1,613,612,614,-1,613,614,615,-1,615,614,616,-1,615,616,617,-1,617,616,618,-1,617,618,619,-1,619,618,620,-1,619,620,621,-1,621,620,605,-1,621,605,604,-1,622,623,624,-1,622,624,625,-1,625,624,626,-1,625,626,627,-1,627,626,628,-1,627,628,629,-1,629,628,630,-1,629,630,631,-1,631,630,632,-1,631,632,633,-1,633,632,634,-1,633,634,635,-1,635,634,609,-1,635,609,608,-1,558,560,636,-1,558,636,637,-1,637,636,638,-1,637,638,639,-1,639,638,623,-1,639,623,622,-1,625,563,622,-1,622,563,566,-1,622,566,639,-1,639,566,562,-1,639,562,637,-1,637,562,559,-1,637,559,558,-1,602,598,607,-1,607,598,601,-1,607,601,604,-1,604,601,584,-1,604,584,621,-1,621,584,587,-1,621,587,619,-1,619,587,589,-1,619,589,617,-1,617,589,591,-1,617,591,615,-1,615,591,593,-1,615,593,613,-1,613,593,595,-1,613,595,611,-1,611,595,597,-1,611,597,608,-1,608,597,582,-1,608,582,635,-1,635,582,580,-1,635,580,633,-1,633,580,578,-1,633,578,631,-1,631,578,576,-1,631,576,629,-1,629,576,574,-1,629,574,627,-1,627,574,572,-1,627,572,625,-1,625,572,570,-1,625,570,563,-1,
        ]
    }
}
Shape{
    appearance Appearance {
        material  Material {
            diffuseColor 0.8823529411764706 0.8823529411764706 0.8823529411764706
            specularColor 0.4392156862745098 0.4392156862745098 0.4392156862745098
            ambientIntensity 0.8824
            transparency 0.0
            shininess 0.5
        }
    }
    geometry IndexedFaceSet {
        ccw TRUE
        solid FALSE
        coord DEF co Coordinate {
            point [
                -0.5262 -0.4206 0.1969, -0.6579 -0.4206 0.1969, -0.585 -0.2561 0.1969, -0.5986 -0.2561 0.1969, -0.5888 -0.2425 0.1969, -0.5951 -0.2424 0.1969, -0.5913 -0.2285 0.1969, -0.5926 -0.2285 0.1969, -0.1249 -0.2237 0.1969, -0.1249 -0.531 0.1969, -0.1829 -0.2237 0.1969, -0.1808 -0.531 0.1969, -0.2223 -0.5271 0.1969, -0.3361 -0.3735 0.1969, -0.3328 -0.3343 0.1969, -0.3236 -0.3032 0.1969, -0.2295 -0.2287 0.1969, -0.2554 -0.5168 0.1969, -0.2823 -0.5008 0.1969, -0.3044 -0.479 0.1969, -0.321 -0.4519 0.1969, -0.3325 -0.4149 0.1969, -0.3099 -0.2789 0.1969, -0.2908 -0.2586 0.1969, -0.262 -0.24 0.1969
            ]
        }
        coordIndex [
            0,1,2,-1,2,1,3,-1,2,3,4,-1,4,3,5,-1,4,5,6,-1,6,5,7,-1,8,9,10,-1,10,9,11,-1,10,11,12,-1,13,14,10,-1,10,14,15,-1,10,15,16,-1,12,17,10,-1,10,17,18,-1,10,18,19,-1,19,20,10,-1,10,20,21,-1,10,21,13,-1,22,23,15,-1,15,23,24,-1,15,24,16,-1,
        ]
    }
}