#VRML V2.0 utf8
# 3D model generated by kicad-lcsc-manager
# Based on easyeda2kicad.py v1.0.1

Shape{
    appearance Appearance {
        material  Material {
            diffuseColor 1.0 0.9294117647058824 0.6549019607843137
            specularColor 0.5019607843137255 0.4666666666666667 0.32941176470588235
            ambientIntensity 0.9192
            transparency 0.0
            shininess 0.5
        }
    }
    geometry IndexedFaceSet {
        ccw TRUE
        solid FALSE
        coord DEF co Coordinate {
            point [
                -0.2314 0.0 2.3228, 0.2147 0.2374 2.2979, -0.2314 0.2374 2.2979, 0.2147 0.4644 2.2241, -0.2314 0.4644 2.2241, 0.2147 0.6711 2.1048, -0.2314 0.6711 2.1048, 0.2147 0.8485 1.9451, -0.2314 0.8485 1.9451, 0.2147 0.9888 1.752, -0.2314 0.9888 1.752, 0.2147 1.0859 1.5339, -0.2314 1.0859 1.5339, 0.2147 1.1355 1.3004, -0.2314 1.1355 1.3004, 0.2147 1.1355 1.0618, -0.2314 1.1355 1.0618, 0.2147 1.0859 0.8283, -0.2314 1.0859 0.8283, 0.2147 0.9888 0.6102, -0.2314 0.9888 0.6102, 0.2147 0.8485 0.4171, -0.2314 0.8485 0.4171, 0.2147 0.6711 0.2574, -0.2314 0.6711 0.2574, 0.2147 0.4644 0.1381, -0.2314 0.4644 0.1381, 0.2147 0.2374 0.0643, -0.2314 0.2374 0.0643, 0.2147 0.0 0.0394, -0.2314 0.0 0.0394, 0.2147 -0.2374 0.0643, -0.2314 -0.2374 0.0643, 0.2147 -0.4644 0.1381, -0.2314 -0.4644 0.1381, 0.2147 -0.6711 0.2574, -0.2314 -0.6711 0.2574, 0.2147 -0.8485 0.4171, -0.2314 -0.8485 0.4171, 0.2147 -0.9888 0.6102, -0.2314 -0.9888 0.6102, 0.2147 -1.0859 0.8283, -0.2314 -1.0859 0.8283, 0.2147 -1.1355 1.0618, -0.2314 -1.1355 1.0618, 0.2147 -1.1355 1.3004, -0.2314 -1.1355 1.3004, 0.2147 -1.0859 1.5339, -0.2314 -1.0859 1.5339, 0.2147 -0.9888 1.752, -0.2314 -0.9888 1.752, 0.2147 -0.8485 1.9451, -0.2314 -0.8485 1.9451, 0.2147 -0.6711 2.1048, -0.2314 -0.6711 2.1048, 0.2147 -0.4644 2.2241, -0.2314 -0.4644 2.2241, 0.2147 -0.2374 2.2979, -0.2314 -0.2374 2.2979, 0.2147 -0.0 2.3228, 0.4679 0.0 2.3228, 2.0335 0.2374 2.2979, 0.4679 0.2374 2.2979, 2.0335 0.4644 2.2241, 0.4679 0.4644 2.2241, 2.0335 0.6711 2.1048, 0.4679 0.6711 2.1048, 2.0335 0.8485 1.9451, 0.4679 0.8485 1.9451, 2.0335 0.9888 1.752, 0.4679 0.9888 1.752, 2.0335 1.0859 1.5339, 0.4679 1.0859 1.5339, 2.0335 1.1355 1.3004, 0.4679 1.1355 1.3004, 2.0335 1.1355 1.0618, 0.4679 1.1355 1.0618, 2.0335 1.0859 0.8283, 0.4679 1.0859 0.8283, 2.0335 0.9888 0.6102, 0.4679 0.9888 0.6102, 2.0335 0.8485 0.4171, 0.4679 0.8485 0.4171, 2.0335 0.6711 0.2574, 0.4679 0.6711 0.2574, 2.0335 0.4644 0.1381, 0.4679 0.4644 0.1381, 2.0335 0.2374 0.0643, 0.4679 0.2374 0.0643, 2.0335 0.0 0.0394, 0.4679 0.0 0.0394, 2.0335 -0.2374 0.0643, 0.4679 -0.2374 0.0643, 2.0335 -0.4644 0.1381, 0.4679 -0.4644 0.1381, 2.0335 -0.6711 0.2574, 0.4679 -0.6711 0.2574, 2.0335 -0.8485 0.4171, 0.4679 -0.8485 0.4171, 2.0335 -0.9888 0.6102, 0.4679 -0.9888 0.6102, 2.0335 -1.0859 0.8283, 0.4679 -1.0859 0.8283, 2.0335 -1.1355 1.0618, 0.4679 -1.1355 1.0618, 2.0335 -1.1355 1.3004, 0.4679 -1.1355 1.3004, 2.0335 -1.0859 1.5339, 0.4679 -1.0859 1.5339, 2.0335 -0.9888 1.752, 0.4679 -0.9888 1.752, 2.0335 -0.8485 1.9451, 0.4679 -0.8485 1.9451, 2.0335 -0.6711 2.1048, 0.4679 -0.6711 2.1048, 2.0335 -0.4644 2.2241, 0.4679 -0.4644 2.2241, 2.0335 -0.2374 2.2979, 0.4679 -0.2374 2.2979, 2.0335 -0.0 2.3228, -3.4449 0.0 2.3622, -2.9147 0.2456 2.3364, -3.4449 0.2456 2.3364, -2.9147 0.4804 2.2601, -3.4449 0.4804 2.2601, -2.9147 0.6942 2.1366, -3.4449 0.6942 2.1366, -2.9147 0.8777 1.9714, -3.4449 0.8777 1.9714, -2.9147 1.0229 1.7717, -3.4449 1.0229 1.7717, -2.9147 1.1233 1.5461, -3.4449 1.1233 1.5461, -2.9147 1.1746 1.3046, -3.4449 1.1746 1.3046, -2.9147 1.1746 1.0576, -3.4449 1.1746 1.0576, -2.9147 1.1233 0.8161, -3.4449 1.1233 0.8161, -2.9147 1.0229 0.5906, -3.4449 1.0229 0.5906, -2.9147 0.8777 0.3908, -3.4449 0.8777 0.3908, -2.9147 0.6942 0.2256, -3.4449 0.6942 0.2256, -2.9147 0.4804 0.1021, -3.4449 0.4804 0.1021, -2.9147 0.2456 0.0258, -3.4449 0.2456 0.0258, -2.9147 0.0 0.0, -3.4449 0.0 0.0, -2.9147 -0.2456 0.0258, -3.4449 -0.2456 0.0258, -2.9147 -0.4804 0.1021, -3.4449 -0.4804 0.1021, -2.9147 -0.6942 0.2256, -3.4449 -0.6942 0.2256, -2.9147 -0.8777 0.3908, -3.4449 -0.8777 0.3908, -2.9147 -1.0229 0.5906, -3.4449 -1.0229 0.5906, -2.9147 -1.1233 0.8161, -3.4449 -1.1233 0.8161, -2.9147 -1.1746 1.0576, -3.4449 -1.1746 1.0576, -2.9147 -1.1746 1.3046, -3.4449 -1.1746 1.3046, -2.9147 -1.1233 1.5461, -3.4449 -1.1233 1.5461, -2.9147 -1.0229 1.7717, -3.4449 -1.0229 1.7717, -2.9147 -0.8777 1.9714, -3.4449 -0.8777 1.9714, -2.9147 -0.6942 2.1366, -3.4449 -0.6942 2.1366, -2.9147 -0.4804 2.2601, -3.4449 -0.4804 2.2601, -2.9147 -0.2456 2.3364, -3.4449 -0.2456 2.3364, -2.9147 -0.0 2.3622, -3.4449 -0.1044 1.2855, -3.4449 -0.0738 1.309, -3.4449 -0.0382 1.3237, -3.4449 0.0 1.3287, -3.4449 0.0382 1.3237, -3.4449 -0.1426 1.1429, -3.4449 -0.1476 1.1811, -3.4449 -0.1426 1.2193, -3.4449 -0.1279 1.2549, -3.4449 -0.0382 1.0385, -3.4449 -0.0738 1.0532, -3.4449 -0.1044 1.0767, -3.4449 -0.1279 1.1073, -3.4449 0.1044 1.0767, -3.4449 0.0738 1.0532, -3.4449 0.0382 1.0385, -3.4449 0.0 1.0335, -3.4449 0.1426 1.2193, -3.4449 0.1476 1.1811, -3.4449 0.1426 1.1429, -3.4449 0.1279 1.1073, -3.4449 0.0738 1.309, -3.4449 0.1044 1.2855, -3.4449 0.1279 1.2549, -2.7158 0.0 2.3622, -2.6575 0.2456 2.3364, -2.7158 0.2456 2.3364, -2.6575 0.4804 2.2601, -2.7158 0.4804 2.2601, -2.6575 0.6942 2.1366, -2.7158 0.6942 2.1366, -2.6575 0.8777 1.9714, -2.7158 0.8777 1.9714, -2.6575 1.0229 1.7717, -2.7158 1.0229 1.7717, -2.6575 1.1233 1.5461, -2.7158 1.1233 1.5461, -2.6575 1.1746 1.3046, -2.7158 1.1746 1.3046, -2.6575 1.1746 1.0576, -2.7158 1.1746 1.0576, -2.6575 1.1233 0.8161, -2.7158 1.1233 0.8161, -2.6575 1.0229 0.5906, -2.7158 1.0229 0.5906, -2.6575 0.8777 0.3908, -2.7158 0.8777 0.3908, -2.6575 0.6942 0.2256, -2.7158 0.6942 0.2256, -2.6575 0.4804 0.1021, -2.7158 0.4804 0.1021, -2.6575 0.2456 0.0258, -2.7158 0.2456 0.0258, -2.6575 0.0 0.0, -2.7158 0.0 0.0, -2.6575 -0.2456 0.0258, -2.7158 -0.2456 0.0258, -2.6575 -0.4804 0.1021, -2.7158 -0.4804 0.1021, -2.6575 -0.6942 0.2256, -2.7158 -0.6942 0.2256, -2.6575 -0.8777 0.3908, -2.7158 -0.8777 0.3908, -2.6575 -1.0229 0.5906, -2.7158 -1.0229 0.5906, -2.6575 -1.1233 0.8161, -2.7158 -1.1233 0.8161, -2.6575 -1.1746 1.0576, -2.7158 -1.1746 1.0576, -2.6575 -1.1746 1.3046, -2.7158 -1.1746 1.3046, -2.6575 -1.1233 1.5461, -2.7158 -1.1233 1.5461, -2.6575 -1.0229 1.7717, -2.7158 -1.0229 1.7717, -2.6575 -0.8777 1.9714, -2.7158 -0.8777 1.9714, -2.6575 -0.6942 2.1366, -2.7158 -0.6942 2.1366, -2.6575 -0.4804 2.2601, -2.7158 -0.4804 2.2601, -2.6575 -0.2456 2.3364, -2.7158 -0.2456 2.3364, -2.6575 0.0 2.3622, -2.6181 0.2374 2.2979, -2.6181 0.4644 2.2241, -2.6181 0.6711 2.1048, -2.6181 0.8485 1.9451, -2.6181 0.9888 1.752, -2.6181 1.0859 1.5339, -2.6181 1.1355 1.3004, -2.6181 1.1355 1.0618, -2.6181 1.0859 0.8283, -2.6181 0.9888 0.6102, -2.6181 0.8485 0.4171, -2.6181 0.6711 0.2574, -2.6181 0.4644 0.1381, -2.6181 0.2374 0.0643, -2.6181 0.0 0.0394, -2.6181 -0.2374 0.0643, -2.6181 -0.4644 0.1381, -2.6181 -0.6711 0.2574, -2.6181 -0.8485 0.4171, -2.6181 -0.9888 0.6102, -2.6181 -1.0859 0.8283, -2.6181 -1.1355 1.0618, -2.6181 -1.1355 1.3004, -2.6181 -1.0859 1.5339, -2.6181 -0.9888 1.752, -2.6181 -0.8485 1.9451, -2.6181 -0.6711 2.1048, -2.6181 -0.4644 2.2241, -2.6181 -0.2374 2.2979, -2.6181 -0.0 2.3228, -1.3564 0.0 0.0394, -1.3564 -0.1179 0.0455, -1.3405 -0.1179 0.0455, -1.2257 -0.1193 0.0456, -1.2347 -0.1187 0.0456, -1.1749 -0.1179 0.0455, -1.2102 -0.1174 0.0454, -1.2039 -0.1167 0.0453, -1.1999 -0.1153 0.0452, -1.198 -0.1147 0.0451, -1.0885 0.0 0.0394, -1.0885 -0.1179 0.0455, -1.1144 -0.105 0.0442, -1.1144 -0.1179 0.0455, -1.1173 -0.0533 0.0406, -1.1173 -0.0662 0.0413, -1.1591 -0.0662 0.0413, -1.1591 -0.105 0.0442, -1.2959 -0.013 0.0394, -1.2804 -0.0289 0.0397, -1.3405 -0.013 0.0394, -1.2824 -0.0353 0.0399, -1.2842 -0.0409 0.0401, -1.2846 -0.0451 0.0403, -1.2858 -0.0568 0.0408, -1.2839 -0.0725 0.0417, -1.2834 -0.0766 0.0419, -1.2811 -0.0824 0.0424, -1.2781 -0.0898 0.0429, -1.277 -0.0913 0.043, -1.2709 -0.0999 0.0437, -1.2701 -0.1009 0.0438, -1.265 -0.1053 0.0442, -1.2596 -0.1098 0.0447, -1.2561 -0.1115 0.0448, -1.2477 -0.1158 0.0453, -1.2471 -0.1159 0.0453, -1.2375 -0.1181 0.0455, -1.0552 -0.1179 0.0455, -0.9401 -0.1179 0.0455, -1.04 -0.1158 0.0453, -1.0339 -0.1149 0.0452, -1.0296 -0.1132 0.045, -1.0209 -0.1095 0.0446, -1.0202 -0.1089 0.0446, -1.0116 -0.1024 0.044, -1.0091 -0.1005 0.0438, -1.0052 -0.0957 0.0434, -1.0012 -0.0907 0.043, -0.9409 -0.1158 0.0453, -1.0003 -0.0887 0.0428, -0.9966 -0.0806 0.0422, -0.9963 -0.0799 0.0422, -0.9949 -0.0717 0.0416, -0.9936 -0.0644 0.0412, -0.9979 -0.0366 0.04, -1.0013 -0.0287 0.0397, -0.9848 0.0 0.0394, -0.9934 -0.0605 0.041, -0.9954 -0.0458 0.0403, -0.9961 -0.0409 0.0401, -1.0018 -0.028 0.0397, -1.0079 -0.0201 0.0396, -1.0092 -0.0183 0.0395, -1.0154 -0.0133 0.0395, -1.0206 -0.0092 0.0394, -1.0241 -0.0076 0.0394, -1.0322 -0.0038 0.0394, -1.0337 -0.0035 0.0394, -1.0467 -0.0009 0.0394, -0.5566 -0.2374 0.0643, -0.9243 -0.1179 0.0455, -0.879 -0.0021 0.0394, -1.2578 -0.0047 0.0394, -1.2959 0.0 0.0394, -1.2528 -0.0028 0.0394, -1.2466 -0.0005 0.0394, -1.2603 -0.0064 0.0394, -1.2671 -0.011 0.0394, -1.2675 -0.0115 0.0394, -1.2738 -0.0183 0.0395, -1.2748 -0.0193 0.0395, -1.2788 -0.0262 0.0397, -1.198 -0.0191 0.0395, -1.198 -0.0989 0.0437, -1.2069 -0.1028 0.044, -1.21 -0.1041 0.0441, -1.2168 -0.1052 0.0442, -1.2236 -0.1064 0.0443, -1.2256 -0.1064 0.0443, -1.2352 -0.1051 0.0442, -1.2387 -0.1046 0.0442, -1.2426 -0.103 0.044, -1.2483 -0.1007 0.0438, -1.249 -0.1001 0.0438, -1.255 -0.0958 0.0434, -1.2554 -0.0955 0.0434, -1.2603 -0.0899 0.0429, -1.2614 -0.0886 0.0428, -1.2643 -0.0833 0.0424, -1.2659 -0.0805 0.0422, -1.267 -0.0762 0.0419, -1.2691 -0.0688 0.0414, -1.2693 -0.0657 0.0413, -1.2546 -0.029 0.0397, -1.2683 -0.0445 0.0402, -1.2681 -0.0427 0.0402, -1.2657 -0.0363 0.04, -1.2639 -0.0316 0.0398, -1.2625 -0.0297 0.0398, -1.2586 -0.0242 0.0396, -1.2585 -0.0241 0.0396, -1.2529 -0.0193 0.0395, -1.2514 -0.018 0.0395, -1.2469 -0.0157 0.0395, -1.2437 -0.0141 0.0395, -1.2408 -0.0135 0.0395, -1.2329 -0.0118 0.0394, -1.2321 -0.0118 0.0394, -1.2283 -0.0115 0.0394, -1.2149 -0.0131 0.0394, -1.213 -0.0133 0.0394, -1.2051 -0.0162 0.0395, -1.27 -0.0578 0.0408, -1.1995 -0.0182 0.0395, -1.198 -0.0061 0.0394, -1.1749 0.0 0.0394, -1.2073 -0.0023 0.0394, -1.2098 -0.0013 0.0394, -1.2177 -0.0001 0.0394, -1.2186 -0.0 0.0394, -1.2277 0.0014 0.0394, -0.5566 0.2374 0.0643, -0.9675 0.0 0.0394, -1.0564 0.0 0.0394, -1.0496 -0.0003 0.0394, -1.1115 0.0 0.0394, -1.1115 -0.013 0.0394, -1.1591 -0.013 0.0394, -1.1591 -0.0533 0.0406, -1.2305 0.0014 0.0394, -1.2425 -0.0 0.0394, -1.2447 -0.0003 0.0394, -0.5566 0.0 0.0394, -0.8782 0.0 0.0394, -0.8955 0.0 0.0394, -0.9074 -0.0331 0.0399, -0.9562 -0.0331 0.0399, -0.5566 0.4644 0.1381, -0.5566 0.6711 0.2574, -0.5566 0.8485 0.4171, -0.5566 0.9888 0.6102, -0.5566 1.0859 0.8283, -0.5566 1.1355 1.0618, -0.5566 1.1355 1.3004, -0.5566 1.0859 1.5339, -0.5566 0.9888 1.752, -0.5566 0.8485 1.9451, -0.5566 0.6711 2.1048, -0.5566 0.4644 2.2241, -0.5566 0.2374 2.2979, -0.5566 -0.0 2.3228, -0.5566 -0.2374 2.2979, -0.5566 -0.4644 2.2241, -0.5566 -0.6711 2.1048, -0.5566 -0.8485 1.9451, -0.5566 -0.9888 1.752, -0.5566 -1.0859 1.5339, -0.5566 -1.1355 1.3004, -0.5566 -1.1355 1.0618, -0.5566 -1.0859 0.8283, -0.5566 -0.9888 0.6102, -0.5566 -0.8485 0.4171, -0.5566 -0.6711 0.2574, -0.5566 -0.4644 0.1381, 2.6575 0.0 0.0, 2.6181 0.2374 0.0643, 2.6575 0.2456 0.0258, 2.6181 0.4644 0.1381, 2.6575 0.4804 0.1021, 2.6181 0.6711 0.2574, 2.6575 0.6942 0.2256, 2.6181 0.8485 0.4171, 2.6575 0.8777 0.3908, 2.6181 0.9888 0.6102, 2.6575 1.0229 0.5906, 2.6181 1.0859 0.8283, 2.6575 1.1233 0.8161, 2.6181 1.1355 1.0618, 2.6575 1.1746 1.0576, 2.6181 1.1355 1.3004, 2.6575 1.1746 1.3046, 2.6181 1.0859 1.5339, 2.6575 1.1233 1.5461, 2.6181 0.9888 1.752, 2.6575 1.0229 1.7717, 2.6181 0.8485 1.9451, 2.6575 0.8777 1.9714, 2.6181 0.6711 2.1048, 2.6575 0.6942 2.1366, 2.6181 0.4644 2.2241, 2.6575 0.4804 2.2601, 2.6181 0.2374 2.2979, 2.6575 0.2456 2.3364, 2.6181 0.0 2.3228, 2.6575 0.0 2.3622, 2.6181 -0.2374 2.2979, 2.6575 -0.2456 2.3364, 2.6181 -0.4644 2.2241, 2.6575 -0.4804 2.2601, 2.6181 -0.6711 2.1048, 2.6575 -0.6942 2.1366, 2.6181 -0.8485 1.9451, 2.6575 -0.8777 1.9714, 2.6181 -0.9888 1.752, 2.6575 -1.0229 1.7717, 2.6181 -1.0859 1.5339, 2.6575 -1.1233 1.5461, 2.6181 -1.1355 1.3004, 2.6575 -1.1746 1.3046, 2.6181 -1.1355 1.0618, 2.6575 -1.1746 1.0576, 2.6181 -1.0859 0.8283, 2.6575 -1.1233 0.8161, 2.6181 -0.9888 0.6102, 2.6575 -1.0229 0.5906, 2.6181 -0.8485 0.4171, 2.6575 -0.8777 0.3908, 2.6181 -0.6711 0.2574, 2.6575 -0.6942 0.2256, 2.6181 -0.4644 0.1381, 2.6575 -0.4804 0.1021, 2.6181 -0.2374 0.0643, 2.6575 -0.2456 0.0258, 2.6181 0.0 0.0394, 3.4449 0.2456 2.3364, 3.4449 0.4804 2.2601, 3.4449 0.6942 2.1366, 3.4449 0.8777 1.9714, 3.4449 1.0229 1.7717, 3.4449 1.1233 1.5461, 3.4449 1.1746 1.3046, 3.4449 1.1746 1.0576, 3.4449 1.1233 0.8161, 3.4449 1.0229 0.5906, 3.4449 0.8777 0.3908, 3.4449 0.6942 0.2256, 3.4449 0.4804 0.1021, 3.4449 0.2456 0.0258, 3.4449 0.0 0.0, 3.4449 -0.2456 0.0258, 3.4449 -0.4804 0.1021, 3.4449 -0.6942 0.2256, 3.4449 -0.8777 0.3908, 3.4449 -1.0229 0.5906, 3.4449 -1.1233 0.8161, 3.4449 -1.1746 1.0576, 3.4449 -1.1746 1.3046, 3.4449 -1.1233 1.5461, 3.4449 -1.0229 1.7717, 3.4449 -0.8777 1.9714, 3.4449 -0.6942 2.1366, 3.4449 -0.4804 2.2601, 3.4449 -0.2456 2.3364, 3.4449 -0.0 2.3622, 3.4449 -0.0738 1.0532, 3.4449 -0.0382 1.0385, 3.4449 0.0 1.0335, 3.4449 0.0382 1.0385, 3.4449 0.0738 1.0532, 3.4449 0.1044 1.0767, 3.4449 0.1279 1.1073, 3.4449 0.1426 1.1429, 3.4449 0.1476 1.1811, 3.4449 -0.0738 1.309, 3.4449 -0.1044 1.2855, 3.4449 -0.1279 1.2549, 3.4449 -0.1426 1.2193, 3.4449 -0.1476 1.1811, 3.4449 0.0738 1.309, 3.4449 0.0382 1.3237, 3.4449 0.0 1.3287, 3.4449 -0.0382 1.3237, 3.4449 0.1426 1.2193, 3.4449 0.1279 1.2549, 3.4449 0.1044 1.2855, 3.4449 -0.1426 1.1429, 3.4449 -0.1279 1.1073, 3.4449 -0.1044 1.0767
            ]
        }
        coordIndex [
            0,1,2,-1,2,1,3,-1,2,3,4,-1,4,3,5,-1,4,5,6,-1,6,5,7,-1,6,7,8,-1,8,7,9,-1,8,9,10,-1,10,9,11,-1,10,11,12,-1,12,11,13,-1,12,13,14,-1,14,13,15,-1,14,15,16,-1,16,15,17,-1,16,17,18,-1,18,17,19,-1,18,19,20,-1,20,19,21,-1,20,21,22,-1,22,21,23,-1,22,23,24,-1,24,23,25,-1,24,25,26,-1,26,25,27,-1,26,27,28,-1,28,27,29,-1,28,29,30,-1,30,29,31,-1,30,31,32,-1,32,31,33,-1,32,33,34,-1,34,33,35,-1,34,35,36,-1,36,35,37,-1,36,37,38,-1,38,37,39,-1,38,39,40,-1,40,39,41,-1,40,41,42,-1,42,41,43,-1,42,43,44,-1,44,43,45,-1,44,45,46,-1,46,45,47,-1,46,47,48,-1,48,47,49,-1,48,49,50,-1,50,49,51,-1,50,51,52,-1,52,51,53,-1,52,53,54,-1,54,53,55,-1,54,55,56,-1,56,55,57,-1,56,57,58,-1,58,57,59,-1,58,59,0,-1,0,59,1,-1,60,61,62,-1,62,61,63,-1,62,63,64,-1,64,63,65,-1,64,65,66,-1,66,65,67,-1,66,67,68,-1,68,67,69,-1,68,69,70,-1,70,69,71,-1,70,71,72,-1,72,71,73,-1,72,73,74,-1,74,73,75,-1,74,75,76,-1,76,75,77,-1,76,77,78,-1,78,77,79,-1,78,79,80,-1,80,79,81,-1,80,81,82,-1,82,81,83,-1,82,83,84,-1,84,83,85,-1,84,85,86,-1,86,85,87,-1,86,87,88,-1,88,87,89,-1,88,89,90,-1,90,89,91,-1,90,91,92,-1,92,91,93,-1,92,93,94,-1,94,93,95,-1,94,95,96,-1,96,95,97,-1,96,97,98,-1,98,97,99,-1,98,99,100,-1,100,99,101,-1,100,101,102,-1,102,101,103,-1,102,103,104,-1,104,103,105,-1,104,105,106,-1,106,105,107,-1,106,107,108,-1,108,107,109,-1,108,109,110,-1,110,109,111,-1,110,111,112,-1,112,111,113,-1,112,113,114,-1,114,113,115,-1,114,115,116,-1,116,115,117,-1,116,117,118,-1,118,117,119,-1,118,119,60,-1,60,119,61,-1,120,121,122,-1,122,121,123,-1,122,123,124,-1,124,123,125,-1,124,125,126,-1,126,125,127,-1,126,127,128,-1,128,127,129,-1,128,129,130,-1,130,129,131,-1,130,131,132,-1,132,131,133,-1,132,133,134,-1,134,133,135,-1,134,135,136,-1,136,135,137,-1,136,137,138,-1,138,137,139,-1,138,139,140,-1,140,139,141,-1,140,141,142,-1,142,141,143,-1,142,143,144,-1,144,143,145,-1,144,145,146,-1,146,145,147,-1,146,147,148,-1,148,147,149,-1,148,149,150,-1,150,149,151,-1,150,151,152,-1,152,151,153,-1,152,153,154,-1,154,153,155,-1,154,155,156,-1,156,155,157,-1,156,157,158,-1,158,157,159,-1,158,159,160,-1,160,159,161,-1,160,161,162,-1,162,161,163,-1,162,163,164,-1,164,163,165,-1,164,165,166,-1,166,165,167,-1,166,167,168,-1,168,167,169,-1,168,169,170,-1,170,169,171,-1,170,171,172,-1,172,171,173,-1,172,173,174,-1,174,173,175,-1,174,175,176,-1,176,175,177,-1,176,177,178,-1,178,177,179,-1,178,179,120,-1,120,179,121,-1,180,174,181,-1,181,174,176,-1,181,176,182,-1,182,176,178,-1,182,178,183,-1,183,178,120,-1,183,120,184,-1,185,164,186,-1,186,164,166,-1,186,166,187,-1,187,166,168,-1,187,168,188,-1,188,168,170,-1,188,170,180,-1,180,170,172,-1,180,172,174,-1,189,154,190,-1,190,154,156,-1,190,156,191,-1,191,156,158,-1,191,158,192,-1,192,158,160,-1,192,160,185,-1,185,160,162,-1,185,162,164,-1,193,144,194,-1,194,144,146,-1,194,146,195,-1,195,146,148,-1,195,148,196,-1,196,148,150,-1,196,150,189,-1,189,150,152,-1,189,152,154,-1,197,134,198,-1,198,134,136,-1,198,136,199,-1,199,136,138,-1,199,138,200,-1,200,138,140,-1,200,140,193,-1,193,140,142,-1,193,142,144,-1,120,122,184,-1,184,122,124,-1,184,124,201,-1,201,124,126,-1,201,126,202,-1,202,126,128,-1,202,128,203,-1,203,128,130,-1,203,130,197,-1,197,130,132,-1,197,132,134,-1,204,205,206,-1,206,205,207,-1,206,207,208,-1,208,207,209,-1,208,209,210,-1,210,209,211,-1,210,211,212,-1,212,211,213,-1,212,213,214,-1,214,213,215,-1,214,215,216,-1,216,215,217,-1,216,217,218,-1,218,217,219,-1,218,219,220,-1,220,219,221,-1,220,221,222,-1,222,221,223,-1,222,223,224,-1,224,223,225,-1,224,225,226,-1,226,225,227,-1,226,227,228,-1,228,227,229,-1,228,229,230,-1,230,229,231,-1,230,231,232,-1,232,231,233,-1,232,233,234,-1,234,233,235,-1,234,235,236,-1,236,235,237,-1,236,237,238,-1,238,237,239,-1,238,239,240,-1,240,239,241,-1,240,241,242,-1,242,241,243,-1,242,243,244,-1,244,243,245,-1,244,245,246,-1,246,245,247,-1,246,247,248,-1,248,247,249,-1,248,249,250,-1,250,249,251,-1,250,251,252,-1,252,251,253,-1,252,253,254,-1,254,253,255,-1,254,255,256,-1,256,255,257,-1,256,257,258,-1,258,257,259,-1,258,259,260,-1,260,259,261,-1,260,261,262,-1,262,261,263,-1,262,263,204,-1,204,263,205,-1,263,264,205,-1,205,264,265,-1,205,265,207,-1,207,265,266,-1,207,266,209,-1,209,266,267,-1,209,267,211,-1,211,267,268,-1,211,268,213,-1,213,268,269,-1,213,269,215,-1,215,269,270,-1,215,270,217,-1,217,270,271,-1,217,271,219,-1,219,271,272,-1,219,272,221,-1,221,272,273,-1,221,273,223,-1,223,273,274,-1,223,274,225,-1,225,274,275,-1,225,275,227,-1,227,275,276,-1,227,276,229,-1,229,276,277,-1,229,277,231,-1,231,277,278,-1,231,278,233,-1,233,278,279,-1,233,279,235,-1,235,279,280,-1,235,280,237,-1,237,280,281,-1,237,281,239,-1,239,281,282,-1,239,282,241,-1,241,282,283,-1,241,283,243,-1,243,283,284,-1,243,284,245,-1,245,284,285,-1,245,285,247,-1,247,285,286,-1,247,286,249,-1,249,286,287,-1,249,287,251,-1,251,287,288,-1,251,288,253,-1,253,288,289,-1,253,289,255,-1,255,289,290,-1,255,290,257,-1,257,290,291,-1,257,291,259,-1,259,291,292,-1,259,292,261,-1,261,292,293,-1,261,293,263,-1,263,293,264,-1,294,295,279,-1,279,295,296,-1,279,296,297,-1,297,296,298,-1,299,297,300,-1,300,301,299,-1,299,301,302,-1,299,302,303,-1,304,305,306,-1,306,305,307,-1,308,304,309,-1,309,304,306,-1,309,306,310,-1,310,306,311,-1,312,313,314,-1,314,313,315,-1,314,315,316,-1,316,317,314,-1,314,317,318,-1,314,318,296,-1,296,318,319,-1,296,319,320,-1,320,321,296,-1,296,321,322,-1,296,322,323,-1,323,324,296,-1,296,324,325,-1,296,325,326,-1,326,327,296,-1,296,327,328,-1,296,328,329,-1,329,330,296,-1,296,330,331,-1,296,331,298,-1,299,307,297,-1,297,307,305,-1,297,305,279,-1,279,305,332,-1,279,332,333,-1,333,332,334,-1,334,335,333,-1,333,335,336,-1,333,336,337,-1,337,338,333,-1,333,338,339,-1,333,339,340,-1,340,341,333,-1,333,341,342,-1,333,342,343,-1,343,342,344,-1,343,344,345,-1,345,346,343,-1,343,346,347,-1,343,347,348,-1,349,350,351,-1,348,352,343,-1,343,352,353,-1,343,353,351,-1,351,353,354,-1,351,354,349,-1,350,355,351,-1,351,355,356,-1,351,356,357,-1,357,358,351,-1,351,358,359,-1,351,359,360,-1,360,361,351,-1,351,361,362,-1,351,362,363,-1,364,365,366,-1,367,368,369,-1,369,368,370,-1,367,371,368,-1,368,371,372,-1,368,372,373,-1,373,374,368,-1,368,374,375,-1,368,375,312,-1,312,375,376,-1,312,376,313,-1,377,378,379,-1,379,380,377,-1,377,380,381,-1,377,381,382,-1,382,383,377,-1,377,383,384,-1,377,384,385,-1,385,386,377,-1,377,386,387,-1,377,387,388,-1,388,389,377,-1,377,389,390,-1,377,390,391,-1,391,392,377,-1,377,392,393,-1,377,393,394,-1,394,395,377,-1,377,395,396,-1,377,396,397,-1,398,399,400,-1,400,401,398,-1,398,401,402,-1,398,402,403,-1,403,404,398,-1,398,404,405,-1,398,405,406,-1,406,407,398,-1,398,407,408,-1,398,408,409,-1,409,410,398,-1,398,410,411,-1,398,411,412,-1,412,413,398,-1,398,413,414,-1,398,414,399,-1,399,414,415,-1,399,415,416,-1,397,417,377,-1,377,417,399,-1,377,399,418,-1,418,399,416,-1,419,420,377,-1,377,420,299,-1,377,299,378,-1,378,299,303,-1,419,421,420,-1,420,421,422,-1,420,422,423,-1,424,425,426,-1,427,351,426,-1,304,426,428,-1,428,426,351,-1,428,351,429,-1,429,351,363,-1,423,424,420,-1,420,424,426,-1,420,426,430,-1,430,426,304,-1,430,304,431,-1,431,304,308,-1,431,308,432,-1,432,308,433,-1,368,294,426,-1,425,434,426,-1,426,434,435,-1,426,435,368,-1,368,435,436,-1,368,436,370,-1,364,366,437,-1,437,366,438,-1,437,438,426,-1,426,438,439,-1,426,439,427,-1,427,439,440,-1,427,440,441,-1,279,278,294,-1,294,278,277,-1,294,277,426,-1,426,277,276,-1,426,276,442,-1,442,276,275,-1,442,275,443,-1,443,275,274,-1,443,274,444,-1,444,274,273,-1,444,273,445,-1,445,273,272,-1,445,272,446,-1,446,272,271,-1,446,271,447,-1,447,271,270,-1,447,270,448,-1,448,270,269,-1,448,269,449,-1,449,269,268,-1,449,268,450,-1,450,268,267,-1,450,267,451,-1,451,267,266,-1,451,266,452,-1,452,266,265,-1,452,265,453,-1,453,265,264,-1,453,264,454,-1,454,264,293,-1,454,293,455,-1,455,293,292,-1,455,292,456,-1,456,292,291,-1,456,291,457,-1,457,291,290,-1,457,290,458,-1,458,290,289,-1,458,289,459,-1,459,289,288,-1,459,288,460,-1,460,288,287,-1,460,287,461,-1,461,287,286,-1,461,286,462,-1,462,286,285,-1,462,285,463,-1,463,285,284,-1,463,284,464,-1,464,284,283,-1,464,283,465,-1,465,283,282,-1,465,282,466,-1,466,282,281,-1,466,281,467,-1,467,281,280,-1,467,280,468,-1,468,280,279,-1,468,279,364,-1,364,279,333,-1,364,333,365,-1,469,470,471,-1,471,470,472,-1,471,472,473,-1,473,472,474,-1,473,474,475,-1,475,474,476,-1,475,476,477,-1,477,476,478,-1,477,478,479,-1,479,478,480,-1,479,480,481,-1,481,480,482,-1,481,482,483,-1,483,482,484,-1,483,484,485,-1,485,484,486,-1,485,486,487,-1,487,486,488,-1,487,488,489,-1,489,488,490,-1,489,490,491,-1,491,490,492,-1,491,492,493,-1,493,492,494,-1,493,494,495,-1,495,494,496,-1,495,496,497,-1,497,496,498,-1,497,498,499,-1,499,498,500,-1,499,500,501,-1,501,500,502,-1,501,502,503,-1,503,502,504,-1,503,504,505,-1,505,504,506,-1,505,506,507,-1,507,506,508,-1,507,508,509,-1,509,508,510,-1,509,510,511,-1,511,510,512,-1,511,512,513,-1,513,512,514,-1,513,514,515,-1,515,514,516,-1,515,516,517,-1,517,516,518,-1,517,518,519,-1,519,518,520,-1,519,520,521,-1,521,520,522,-1,521,522,523,-1,523,522,524,-1,523,524,525,-1,525,524,526,-1,525,526,527,-1,527,526,528,-1,527,528,469,-1,469,528,470,-1,499,529,497,-1,497,529,530,-1,497,530,495,-1,495,530,531,-1,495,531,493,-1,493,531,532,-1,493,532,491,-1,491,532,533,-1,491,533,489,-1,489,533,534,-1,489,534,487,-1,487,534,535,-1,487,535,485,-1,485,535,536,-1,485,536,483,-1,483,536,537,-1,483,537,481,-1,481,537,538,-1,481,538,479,-1,479,538,539,-1,479,539,477,-1,477,539,540,-1,477,540,475,-1,475,540,541,-1,475,541,473,-1,473,541,542,-1,473,542,471,-1,471,542,543,-1,471,543,469,-1,469,543,544,-1,469,544,527,-1,527,544,545,-1,527,545,525,-1,525,545,546,-1,525,546,523,-1,523,546,547,-1,523,547,521,-1,521,547,548,-1,521,548,519,-1,519,548,549,-1,519,549,517,-1,517,549,550,-1,517,550,515,-1,515,550,551,-1,515,551,513,-1,513,551,552,-1,513,552,511,-1,511,552,553,-1,511,553,509,-1,509,553,554,-1,509,554,507,-1,507,554,555,-1,507,555,505,-1,505,555,556,-1,505,556,503,-1,503,556,557,-1,503,557,501,-1,501,557,558,-1,501,558,499,-1,499,558,529,-1,559,545,560,-1,560,545,544,-1,560,544,561,-1,561,544,543,-1,561,543,562,-1,543,542,562,-1,562,542,541,-1,562,541,563,-1,563,541,540,-1,563,540,564,-1,564,540,539,-1,564,539,565,-1,565,539,538,-1,565,538,566,-1,566,538,537,-1,566,537,567,-1,568,555,569,-1,569,555,554,-1,569,554,570,-1,570,554,553,-1,570,553,571,-1,571,553,552,-1,571,552,572,-1,573,530,574,-1,574,530,529,-1,574,529,575,-1,575,529,558,-1,575,558,576,-1,576,558,557,-1,576,557,568,-1,568,557,556,-1,568,556,555,-1,537,536,567,-1,567,536,535,-1,567,535,577,-1,577,535,534,-1,577,534,578,-1,578,534,533,-1,578,533,579,-1,579,533,532,-1,579,532,573,-1,573,532,531,-1,573,531,530,-1,552,551,572,-1,572,551,550,-1,572,550,580,-1,580,550,549,-1,580,549,581,-1,581,549,548,-1,581,548,582,-1,582,548,547,-1,582,547,559,-1,559,547,546,-1,559,546,545,-1,
        ]
    }
}
Shape{
    appearance Appearance {
        material  Material {
            diffuseColor 0.5607843137254902 0.054901960784313725 0.0
            specularColor 0.2784313725490196 0.027450980392156862 0.0
            ambientIntensity 0.1999
            transparency 0.0
            shininess 0.5
        }
    }
    geometry IndexedFaceSet {
        ccw TRUE
        solid FALSE
        coord DEF co Coordinate {
            point [
                -2.9147 0.6942 2.1366, -2.9147 0.6965 2.1398, -2.9147 0.8777 1.9714, -2.9147 0.8807 1.974, -2.9147 1.0229 1.7717, -2.9147 1.0263 1.7736, -2.9147 1.1233 1.5461, -2.9147 1.127 1.5473, -2.9147 1.1746 1.3046, -2.9147 1.1785 1.305, -2.9147 1.1746 1.0576, -2.9147 1.1785 1.0572, -2.9147 1.1233 0.8161, -2.9147 1.127 0.8149, -2.9147 1.0229 0.5906, -2.9147 1.0263 0.5886, -2.9147 0.8777 0.3908, -2.9147 0.8807 0.3882, -2.9147 0.6942 0.2256, -2.9147 0.6965 0.2224, -2.9147 0.4804 0.1021, -2.9147 0.482 0.0985, -2.9147 0.2456 0.0258, -2.9147 0.2464 0.022, -2.9147 0.0 0.0, -2.9147 0.0 -0.0039, -2.9147 -0.2456 0.0258, -2.9147 -0.2464 0.022, -2.9147 -0.4804 0.1021, -2.9147 -0.482 0.0985, -2.9147 -0.6942 0.2256, -2.9147 -0.6965 0.2224, -2.9147 -0.8777 0.3908, -2.9147 -0.8807 0.3882, -2.9147 -1.0229 0.5906, -2.9147 -1.0263 0.5886, -2.9147 -1.1233 0.8161, -2.9147 -1.127 0.8149, -2.9147 -1.1746 1.0576, -2.9147 -1.1785 1.0572, -2.9147 -1.1746 1.3046, -2.9147 -1.1785 1.305, -2.9147 -1.1233 1.5461, -2.9147 -1.127 1.5473, -2.9147 -1.0229 1.7717, -2.9147 -1.0263 1.7736, -2.9147 -0.8777 1.9714, -2.9147 -0.8807 1.974, -2.9147 -0.6942 2.1366, -2.9147 -0.6965 2.1398, -2.9147 -0.4804 2.2601, -2.9147 -0.482 2.2637, -2.9147 -0.2456 2.3364, -2.9147 -0.2464 2.3402, -2.9147 -0.0 2.3622, -2.9147 0.0 2.3661, -2.9147 0.2456 2.3364, -2.9147 0.2464 2.3402, -2.9147 0.4804 2.2601, -2.9147 0.482 2.2637, -2.7158 0.2464 2.3402, -2.7158 0.482 2.2637, -2.7158 0.6965 2.1398, -2.7158 0.8807 1.974, -2.7158 1.0263 1.7736, -2.7158 1.127 1.5473, -2.7158 1.1785 1.305, -2.7158 1.1785 1.0572, -2.7158 1.127 0.8149, -2.7158 1.0263 0.5886, -2.7158 0.8807 0.3882, -2.7158 0.6965 0.2224, -2.7158 0.482 0.0985, -2.7158 0.2464 0.022, -2.7158 0.0 -0.0039, -2.7158 -0.2464 0.022, -2.7158 -0.482 0.0985, -2.7158 -0.6965 0.2224, -2.7158 -0.8807 0.3882, -2.7158 -1.0263 0.5886, -2.7158 -1.127 0.8149, -2.7158 -1.1785 1.0572, -2.7158 -1.1785 1.305, -2.7158 -1.127 1.5473, -2.7158 -1.0263 1.7736, -2.7158 -0.8807 1.974, -2.7158 -0.6965 2.1398, -2.7158 -0.482 2.2637, -2.7158 -0.2464 2.3402, -2.7158 -0.0 2.3661, -2.7158 0.8777 0.3908, -2.7158 1.0229 0.5906, -2.7158 1.1233 0.8161, -2.7158 1.1746 1.0576, -2.7158 1.1746 1.3046, -2.7158 1.1233 1.5461, -2.7158 1.0229 1.7717, -2.7158 0.8777 1.9714, -2.7158 0.6942 2.1366, -2.7158 0.4804 2.2601, -2.7158 0.2456 2.3364, -2.7158 0.0 2.3622, -2.7158 -0.2456 2.3364, -2.7158 -0.4804 2.2601, -2.7158 -0.6942 2.1366, -2.7158 -0.8777 1.9714, -2.7158 -1.0229 1.7717, -2.7158 -1.1233 1.5461, -2.7158 -1.1746 1.3046, -2.7158 -1.1746 1.0576, -2.7158 -1.1233 0.8161, -2.7158 -1.0229 0.5906, -2.7158 -0.8777 0.3908, -2.7158 -0.6942 0.2256, -2.7158 -0.4804 0.1021, -2.7158 -0.2456 0.0258, -2.7158 0.0 0.0, -2.7158 0.2456 0.0258, -2.7158 0.4804 0.1021, -2.7158 0.6942 0.2256
            ]
        }
        coordIndex [
            0,1,2,-1,2,1,3,-1,2,3,4,-1,4,3,5,-1,4,5,6,-1,6,5,7,-1,6,7,8,-1,8,7,9,-1,8,9,10,-1,10,9,11,-1,10,11,12,-1,12,11,13,-1,12,13,14,-1,14,13,15,-1,14,15,16,-1,16,15,17,-1,16,17,18,-1,18,17,19,-1,18,19,20,-1,20,19,21,-1,20,21,22,-1,22,21,23,-1,22,23,24,-1,24,23,25,-1,24,25,26,-1,26,25,27,-1,26,27,28,-1,28,27,29,-1,28,29,30,-1,30,29,31,-1,30,31,32,-1,32,31,33,-1,32,33,34,-1,34,33,35,-1,34,35,36,-1,36,35,37,-1,36,37,38,-1,38,37,39,-1,38,39,40,-1,40,39,41,-1,40,41,42,-1,42,41,43,-1,42,43,44,-1,44,43,45,-1,44,45,46,-1,46,45,47,-1,46,47,48,-1,48,47,49,-1,48,49,50,-1,50,49,51,-1,50,51,52,-1,52,51,53,-1,52,53,54,-1,54,53,55,-1,54,55,56,-1,56,55,57,-1,56,57,58,-1,58,57,59,-1,58,59,0,-1,0,59,1,-1,55,60,57,-1,57,60,61,-1,57,61,59,-1,59,61,62,-1,59,62,1,-1,1,62,63,-1,1,63,3,-1,3,63,64,-1,3,64,5,-1,5,64,65,-1,5,65,7,-1,7,65,66,-1,7,66,9,-1,9,66,67,-1,9,67,11,-1,11,67,68,-1,11,68,13,-1,13,68,69,-1,13,69,15,-1,15,69,70,-1,15,70,17,-1,17,70,71,-1,17,71,19,-1,19,71,72,-1,19,72,21,-1,21,72,73,-1,21,73,23,-1,23,73,74,-1,23,74,25,-1,25,74,75,-1,25,75,27,-1,27,75,76,-1,27,76,29,-1,29,76,77,-1,29,77,31,-1,31,77,78,-1,31,78,33,-1,33,78,79,-1,33,79,35,-1,35,79,80,-1,35,80,37,-1,37,80,81,-1,37,81,39,-1,39,81,82,-1,39,82,41,-1,41,82,83,-1,41,83,43,-1,43,83,84,-1,43,84,45,-1,45,84,85,-1,45,85,47,-1,47,85,86,-1,47,86,49,-1,49,86,87,-1,49,87,51,-1,51,87,88,-1,51,88,53,-1,53,88,89,-1,53,89,55,-1,55,89,60,-1,90,70,91,-1,91,70,69,-1,91,69,92,-1,92,69,68,-1,92,68,93,-1,93,68,67,-1,93,67,94,-1,94,67,66,-1,94,66,95,-1,95,66,65,-1,95,65,96,-1,96,65,64,-1,96,64,97,-1,97,64,63,-1,97,63,98,-1,98,63,62,-1,98,62,99,-1,99,62,61,-1,99,61,100,-1,100,61,60,-1,100,60,101,-1,101,60,89,-1,101,89,102,-1,102,89,88,-1,102,88,103,-1,103,88,87,-1,103,87,104,-1,104,87,86,-1,104,86,105,-1,105,86,85,-1,105,85,106,-1,106,85,84,-1,106,84,107,-1,107,84,83,-1,107,83,108,-1,108,83,82,-1,108,82,109,-1,109,82,81,-1,109,81,110,-1,110,81,80,-1,110,80,111,-1,111,80,79,-1,111,79,112,-1,112,79,78,-1,112,78,113,-1,113,78,77,-1,113,77,114,-1,114,77,76,-1,114,76,115,-1,115,76,75,-1,115,75,116,-1,116,75,74,-1,116,74,117,-1,117,74,73,-1,117,73,118,-1,118,73,72,-1,118,72,119,-1,119,72,71,-1,119,71,90,-1,90,71,70,-1,
        ]
    }
}
Shape{
    appearance Appearance {
        material  Material {
            diffuseColor 0.20392156862745098 0.20392156862745098 0.20392156862745098
            specularColor 0.10196078431372549 0.10196078431372549 0.10196078431372549
            ambientIntensity 0.2039
            transparency 0.0
            shininess 0.5
        }
    }
    geometry IndexedFaceSet {
        ccw TRUE
        solid FALSE
        coord DEF co Coordinate {
            point [
                -0.2314 1.1355 1.3004, -0.2314 1.1394 1.3009, -0.2314 1.0859 1.5339, -0.2314 1.0896 1.5351, -0.2314 0.9888 1.752, -0.2314 0.9922 1.7539, -0.2314 0.8485 1.9451, -0.2314 0.8514 1.9477, -0.2314 0.6711 2.1048, -0.2314 0.6734 2.108, -0.2314 0.4644 2.2241, -0.2314 0.466 2.2277, -0.2314 0.2374 2.2979, -0.2314 0.2382 2.3017, -0.2314 0.0 2.3228, -0.2314 -0.0 2.3268, -0.2314 -0.2374 2.2979, -0.2314 -0.2382 2.3017, -0.2314 -0.4644 2.2241, -0.2314 -0.466 2.2277, -0.2314 -0.6711 2.1048, -0.2314 -0.6734 2.108, -0.2314 -0.8485 1.9451, -0.2314 -0.8514 1.9477, -0.2314 -0.9888 1.752, -0.2314 -0.9922 1.7539, -0.2314 -1.0859 1.5339, -0.2314 -1.0896 1.5351, -0.2314 -1.1355 1.3004, -0.2314 -1.1394 1.3009, -0.2314 -1.1355 1.0618, -0.2314 -1.1394 1.0613, -0.2314 -1.0859 0.8283, -0.2314 -1.0896 0.8271, -0.2314 -0.9888 0.6102, -0.2314 -0.9922 0.6083, -0.2314 -0.8485 0.4171, -0.2314 -0.8514 0.4145, -0.2314 -0.6711 0.2574, -0.2314 -0.6734 0.2542, -0.2314 -0.4644 0.1381, -0.2314 -0.466 0.1345, -0.2314 -0.2374 0.0643, -0.2314 -0.2382 0.0605, -0.2314 0.0 0.0394, -0.2314 0.0 0.0354, -0.2314 0.2374 0.0643, -0.2314 0.2382 0.0605, -0.2314 0.4644 0.1381, -0.2314 0.466 0.1345, -0.2314 0.6711 0.2574, -0.2314 0.6734 0.2542, -0.2314 0.8485 0.4171, -0.2314 0.8514 0.4145, -0.2314 0.9888 0.6102, -0.2314 0.9922 0.6083, -0.2314 1.0859 0.8283, -0.2314 1.0896 0.8271, -0.2314 1.1355 1.0618, -0.2314 1.1394 1.0613, -0.5566 0.0 2.3268, -0.5566 0.2382 2.3017, -0.5566 0.466 2.2277, -0.5566 0.6734 2.108, -0.5566 0.8514 1.9477, -0.5566 0.9922 1.7539, -0.5566 1.0896 1.5351, -0.5566 1.1394 1.3009, -0.5566 1.1394 1.0613, -0.5566 1.0896 0.8271, -0.5566 0.9922 0.6083, -0.5566 0.8514 0.4145, -0.5566 0.6734 0.2542, -0.5566 0.466 0.1345, -0.5566 0.2382 0.0605, -0.5566 0.0 0.0354, -0.5566 -0.2382 0.0605, -0.5566 -0.466 0.1345, -0.5566 -0.6734 0.2542, -0.5566 -0.8514 0.4145, -0.5566 -0.9922 0.6083, -0.5566 -1.0896 0.8271, -0.5566 -1.1394 1.0613, -0.5566 -1.1394 1.3009, -0.5566 -1.0896 1.5351, -0.5566 -0.9922 1.7539, -0.5566 -0.8514 1.9477, -0.5566 -0.6734 2.108, -0.5566 -0.466 2.2277, -0.5566 -0.2382 2.3017, -0.5566 0.4644 2.2241, -0.5566 0.6711 2.1048, -0.5566 0.8485 1.9451, -0.5566 0.9888 1.752, -0.5566 1.0859 1.5339, -0.5566 1.1355 1.3004, -0.5566 1.1355 1.0618, -0.5566 1.0859 0.8283, -0.5566 0.9888 0.6102, -0.5566 0.8485 0.4171, -0.5566 0.6711 0.2574, -0.5566 0.4644 0.1381, -0.5566 0.2374 0.0643, -0.5566 0.0 0.0394, -0.5566 -0.2374 0.0643, -0.5566 -0.4644 0.1381, -0.5566 -0.6711 0.2574, -0.5566 -0.8485 0.4171, -0.5566 -0.9888 0.6102, -0.5566 -1.0859 0.8283, -0.5566 -1.1355 1.0618, -0.5566 -1.1355 1.3004, -0.5566 -1.0859 1.5339, -0.5566 -0.9888 1.752, -0.5566 -0.8485 1.9451, -0.5566 -0.6711 2.1048, -0.5566 -0.4644 2.2241, -0.5566 -0.2374 2.2979, -0.5566 -0.0 2.3228, -0.5566 0.2374 2.2979
            ]
        }
        coordIndex [
            0,1,2,-1,2,1,3,-1,2,3,4,-1,4,3,5,-1,4,5,6,-1,6,5,7,-1,6,7,8,-1,8,7,9,-1,8,9,10,-1,10,9,11,-1,10,11,12,-1,12,11,13,-1,12,13,14,-1,14,13,15,-1,14,15,16,-1,16,15,17,-1,16,17,18,-1,18,17,19,-1,18,19,20,-1,20,19,21,-1,20,21,22,-1,22,21,23,-1,22,23,24,-1,24,23,25,-1,24,25,26,-1,26,25,27,-1,26,27,28,-1,28,27,29,-1,28,29,30,-1,30,29,31,-1,30,31,32,-1,32,31,33,-1,32,33,34,-1,34,33,35,-1,34,35,36,-1,36,35,37,-1,36,37,38,-1,38,37,39,-1,38,39,40,-1,40,39,41,-1,40,41,42,-1,42,41,43,-1,42,43,44,-1,44,43,45,-1,44,45,46,-1,46,45,47,-1,46,47,48,-1,48,47,49,-1,48,49,50,-1,50,49,51,-1,50,51,52,-1,52,51,53,-1,52,53,54,-1,54,53,55,-1,54,55,56,-1,56,55,57,-1,56,57,58,-1,58,57,59,-1,58,59,0,-1,0,59,1,-1,60,13,61,-1,61,13,11,-1,61,11,62,-1,62,11,9,-1,62,9,63,-1,63,9,7,-1,63,7,64,-1,64,7,5,-1,64,5,65,-1,65,5,3,-1,65,3,66,-1,66,3,1,-1,66,1,67,-1,67,1,59,-1,67,59,68,-1,68,59,57,-1,68,57,69,-1,69,57,55,-1,69,55,70,-1,70,55,53,-1,70,53,71,-1,71,53,51,-1,71,51,72,-1,72,51,49,-1,72,49,73,-1,73,49,47,-1,73,47,74,-1,74,47,45,-1,74,45,75,-1,75,45,43,-1,75,43,76,-1,76,43,41,-1,76,41,77,-1,77,41,39,-1,77,39,78,-1,78,39,37,-1,78,37,79,-1,79,37,35,-1,79,35,80,-1,80,35,33,-1,80,33,81,-1,81,33,31,-1,81,31,82,-1,82,31,29,-1,82,29,83,-1,83,29,27,-1,83,27,84,-1,84,27,25,-1,84,25,85,-1,85,25,23,-1,85,23,86,-1,86,23,21,-1,86,21,87,-1,87,21,19,-1,87,19,88,-1,88,19,17,-1,88,17,89,-1,89,17,15,-1,89,15,60,-1,60,15,13,-1,90,62,91,-1,91,62,63,-1,91,63,92,-1,92,63,64,-1,92,64,93,-1,93,64,65,-1,93,65,94,-1,94,65,66,-1,94,66,95,-1,95,66,67,-1,95,67,96,-1,96,67,68,-1,96,68,97,-1,97,68,69,-1,97,69,98,-1,98,69,70,-1,98,70,99,-1,99,70,71,-1,99,71,100,-1,100,71,72,-1,100,72,101,-1,101,72,73,-1,101,73,102,-1,102,73,74,-1,102,74,103,-1,103,74,75,-1,103,75,104,-1,104,75,76,-1,104,76,105,-1,105,76,77,-1,105,77,106,-1,106,77,78,-1,106,78,107,-1,107,78,79,-1,107,79,108,-1,108,79,80,-1,108,80,109,-1,109,80,81,-1,109,81,110,-1,110,81,82,-1,110,82,111,-1,111,82,83,-1,111,83,112,-1,112,83,84,-1,112,84,113,-1,113,84,85,-1,113,85,114,-1,114,85,86,-1,114,86,115,-1,115,86,87,-1,115,87,116,-1,116,87,88,-1,116,88,117,-1,117,88,89,-1,117,89,118,-1,118,89,60,-1,118,60,119,-1,119,60,61,-1,119,61,90,-1,90,61,62,-1,
        ]
    }
}
Shape{
    appearance Appearance {
        material  Material {
            diffuseColor 0.0 0.6862745098039216 0.3058823529411765
            specularColor 0.0 0.3411764705882353 0.15294117647058825
            ambientIntensity 0.4377
            transparency 0.0
            shininess 0.5
        }
    }
    geometry IndexedFaceSet {
        ccw TRUE
        solid FALSE
        coord DEF co Coordinate {
            point [
                0.2147 0.4644 2.2241, 0.2147 0.466 2.2277, 0.2147 0.6711 2.1048, 0.2147 0.6734 2.108, 0.2147 0.8485 1.9451, 0.2147 0.8514 1.9477, 0.2147 0.9888 1.752, 0.2147 0.9922 1.7539, 0.2147 1.0859 1.5339, 0.2147 1.0896 1.5351, 0.2147 1.1355 1.3004, 0.2147 1.1394 1.3009, 0.2147 1.1355 1.0618, 0.2147 1.1394 1.0613, 0.2147 1.0859 0.8283, 0.2147 1.0896 0.8271, 0.2147 0.9888 0.6102, 0.2147 0.9922 0.6083, 0.2147 0.8485 0.4171, 0.2147 0.8514 0.4145, 0.2147 0.6711 0.2574, 0.2147 0.6734 0.2542, 0.2147 0.4644 0.1381, 0.2147 0.466 0.1345, 0.2147 0.2374 0.0643, 0.2147 0.2382 0.0605, 0.2147 0.0 0.0394, 0.2147 0.0 0.0354, 0.2147 -0.2374 0.0643, 0.2147 -0.2382 0.0605, 0.2147 -0.4644 0.1381, 0.2147 -0.466 0.1345, 0.2147 -0.6711 0.2574, 0.2147 -0.6734 0.2542, 0.2147 -0.8485 0.4171, 0.2147 -0.8514 0.4145, 0.2147 -0.9888 0.6102, 0.2147 -0.9922 0.6083, 0.2147 -1.0859 0.8283, 0.2147 -1.0896 0.8271, 0.2147 -1.1355 1.0618, 0.2147 -1.1394 1.0613, 0.2147 -1.1355 1.3004, 0.2147 -1.1394 1.3009, 0.2147 -1.0859 1.5339, 0.2147 -1.0896 1.5351, 0.2147 -0.9888 1.752, 0.2147 -0.9922 1.7539, 0.2147 -0.8485 1.9451, 0.2147 -0.8514 1.9477, 0.2147 -0.6711 2.1048, 0.2147 -0.6734 2.108, 0.2147 -0.4644 2.2241, 0.2147 -0.466 2.2277, 0.2147 -0.2374 2.2979, 0.2147 -0.2382 2.3017, 0.2147 -0.0 2.3228, 0.2147 0.0 2.3268, 0.2147 0.2374 2.2979, 0.2147 0.2382 2.3017, 0.4679 0.2382 2.3017, 0.4679 0.466 2.2277, 0.4679 0.6734 2.108, 0.4679 0.8514 1.9477, 0.4679 0.9922 1.7539, 0.4679 1.0896 1.5351, 0.4679 1.1394 1.3009, 0.4679 1.1394 1.0613, 0.4679 1.0896 0.8271, 0.4679 0.9922 0.6083, 0.4679 0.8514 0.4145, 0.4679 0.6734 0.2542, 0.4679 0.466 0.1345, 0.4679 0.2382 0.0605, 0.4679 0.0 0.0354, 0.4679 -0.2382 0.0605, 0.4679 -0.466 0.1345, 0.4679 -0.6734 0.2542, 0.4679 -0.8514 0.4145, 0.4679 -0.9922 0.6083, 0.4679 -1.0896 0.8271, 0.4679 -1.1394 1.0613, 0.4679 -1.1394 1.3009, 0.4679 -1.0896 1.5351, 0.4679 -0.9922 1.7539, 0.4679 -0.8514 1.9477, 0.4679 -0.6734 2.108, 0.4679 -0.466 2.2277, 0.4679 -0.2382 2.3017, 0.4679 -0.0 2.3268, 0.4679 1.1355 1.3004, 0.4679 1.0859 1.5339, 0.4679 0.9888 1.752, 0.4679 0.8485 1.9451, 0.4679 0.6711 2.1048, 0.4679 0.4644 2.2241, 0.4679 0.2374 2.2979, 0.4679 0.0 2.3228, 0.4679 -0.2374 2.2979, 0.4679 -0.4644 2.2241, 0.4679 -0.6711 2.1048, 0.4679 -0.8485 1.9451, 0.4679 -0.9888 1.752, 0.4679 -1.0859 1.5339, 0.4679 -1.1355 1.3004, 0.4679 -1.1355 1.0618, 0.4679 -1.0859 0.8283, 0.4679 -0.9888 0.6102, 0.4679 -0.8485 0.4171, 0.4679 -0.6711 0.2574, 0.4679 -0.4644 0.1381, 0.4679 -0.2374 0.0643, 0.4679 0.0 0.0394, 0.4679 0.2374 0.0643, 0.4679 0.4644 0.1381, 0.4679 0.6711 0.2574, 0.4679 0.8485 0.4171, 0.4679 0.9888 0.6102, 0.4679 1.0859 0.8283, 0.4679 1.1355 1.0618
            ]
        }
        coordIndex [
            0,1,2,-1,2,1,3,-1,2,3,4,-1,4,3,5,-1,4,5,6,-1,6,5,7,-1,6,7,8,-1,8,7,9,-1,8,9,10,-1,10,9,11,-1,10,11,12,-1,12,11,13,-1,12,13,14,-1,14,13,15,-1,14,15,16,-1,16,15,17,-1,16,17,18,-1,18,17,19,-1,18,19,20,-1,20,19,21,-1,20,21,22,-1,22,21,23,-1,22,23,24,-1,24,23,25,-1,24,25,26,-1,26,25,27,-1,26,27,28,-1,28,27,29,-1,28,29,30,-1,30,29,31,-1,30,31,32,-1,32,31,33,-1,32,33,34,-1,34,33,35,-1,34,35,36,-1,36,35,37,-1,36,37,38,-1,38,37,39,-1,38,39,40,-1,40,39,41,-1,40,41,42,-1,42,41,43,-1,42,43,44,-1,44,43,45,-1,44,45,46,-1,46,45,47,-1,46,47,48,-1,48,47,49,-1,48,49,50,-1,50,49,51,-1,50,51,52,-1,52,51,53,-1,52,53,54,-1,54,53,55,-1,54,55,56,-1,56,55,57,-1,56,57,58,-1,58,57,59,-1,58,59,0,-1,0,59,1,-1,57,60,59,-1,59,60,61,-1,59,61,1,-1,1,61,62,-1,1,62,3,-1,3,62,63,-1,3,63,5,-1,5,63,64,-1,5,64,7,-1,7,64,65,-1,7,65,9,-1,9,65,66,-1,9,66,11,-1,11,66,67,-1,11,67,13,-1,13,67,68,-1,13,68,15,-1,15,68,69,-1,15,69,17,-1,17,69,70,-1,17,70,19,-1,19,70,71,-1,19,71,21,-1,21,71,72,-1,21,72,23,-1,23,72,73,-1,23,73,25,-1,25,73,74,-1,25,74,27,-1,27,74,75,-1,27,75,29,-1,29,75,76,-1,29,76,31,-1,31,76,77,-1,31,77,33,-1,33,77,78,-1,33,78,35,-1,35,78,79,-1,35,79,37,-1,37,79,80,-1,37,80,39,-1,39,80,81,-1,39,81,41,-1,41,81,82,-1,41,82,43,-1,43,82,83,-1,43,83,45,-1,45,83,84,-1,45,84,47,-1,47,84,85,-1,47,85,49,-1,49,85,86,-1,49,86,51,-1,51,86,87,-1,51,87,53,-1,53,87,88,-1,53,88,55,-1,55,88,89,-1,55,89,57,-1,57,89,60,-1,90,66,91,-1,91,66,65,-1,91,65,92,-1,92,65,64,-1,92,64,93,-1,93,64,63,-1,93,63,94,-1,94,63,62,-1,94,62,95,-1,95,62,61,-1,95,61,96,-1,96,61,60,-1,96,60,97,-1,97,60,89,-1,97,89,98,-1,98,89,88,-1,98,88,99,-1,99,88,87,-1,99,87,100,-1,100,87,86,-1,100,86,101,-1,101,86,85,-1,101,85,102,-1,102,85,84,-1,102,84,103,-1,103,84,83,-1,103,83,104,-1,104,83,82,-1,104,82,105,-1,105,82,81,-1,105,81,106,-1,106,81,80,-1,106,80,107,-1,107,80,79,-1,107,79,108,-1,108,79,78,-1,108,78,109,-1,109,78,77,-1,109,77,110,-1,110,77,76,-1,110,76,111,-1,111,76,75,-1,111,75,112,-1,112,75,74,-1,112,74,113,-1,113,74,73,-1,113,73,114,-1,114,73,72,-1,114,72,115,-1,115,72,71,-1,115,71,116,-1,116,71,70,-1,116,70,117,-1,117,70,69,-1,117,69,118,-1,118,69,68,-1,118,68,119,-1,119,68,67,-1,119,67,90,-1,90,67,66,-1,
        ]
    }
}
Shape{
    appearance Appearance {
        material  Material {
            diffuseColor 0.37254901960784315 0.28627450980392155 0.0
            specularColor 0.18823529411764706 0.1411764705882353 0.0
            ambientIntensity 0.2794
            transparency 0.0
            shininess 0.5
        }
    }
    geometry IndexedFaceSet {
        ccw TRUE
        solid FALSE
        coord DEF co Coordinate {
            point [
                2.6181 1.1355 1.0618, 2.6181 1.1394 1.0613, 2.6181 1.1355 1.3004, 2.6181 1.1394 1.3009, 2.6181 1.0859 1.5339, 2.6181 1.0896 1.5351, 2.6181 0.9888 1.752, 2.6181 0.9922 1.7539, 2.6181 0.8485 1.9451, 2.6181 0.8514 1.9477, 2.6181 0.6711 2.1048, 2.6181 0.6734 2.108, 2.6181 0.4644 2.2241, 2.6181 0.466 2.2277, 2.6181 0.2374 2.2979, 2.6181 0.2382 2.3017, 2.6181 0.0 2.3228, 2.6181 -0.0 2.3268, 2.6181 -0.2374 2.2979, 2.6181 -0.2382 2.3017, 2.6181 -0.4644 2.2241, 2.6181 -0.466 2.2277, 2.6181 -0.6711 2.1048, 2.6181 -0.6734 2.108, 2.6181 -0.8485 1.9451, 2.6181 -0.8514 1.9477, 2.6181 -0.9888 1.752, 2.6181 -0.9922 1.7539, 2.6181 -1.0859 1.5339, 2.6181 -1.0896 1.5351, 2.6181 -1.1355 1.3004, 2.6181 -1.1394 1.3009, 2.6181 -1.1355 1.0618, 2.6181 -1.1394 1.0613, 2.6181 -1.0859 0.8283, 2.6181 -1.0896 0.8271, 2.6181 -0.9888 0.6102, 2.6181 -0.9922 0.6083, 2.6181 -0.8485 0.4171, 2.6181 -0.8514 0.4145, 2.6181 -0.6711 0.2574, 2.6181 -0.6734 0.2542, 2.6181 -0.4644 0.1381, 2.6181 -0.466 0.1345, 2.6181 -0.2374 0.0643, 2.6181 -0.2382 0.0605, 2.6181 0.0 0.0394, 2.6181 0.0 0.0354, 2.6181 0.2374 0.0643, 2.6181 0.2382 0.0605, 2.6181 0.4644 0.1381, 2.6181 0.466 0.1345, 2.6181 0.6711 0.2574, 2.6181 0.6734 0.2542, 2.6181 0.8485 0.4171, 2.6181 0.8514 0.4145, 2.6181 0.9888 0.6102, 2.6181 0.9922 0.6083, 2.6181 1.0859 0.8283, 2.6181 1.0896 0.8271, 2.0335 0.0 2.3268, 2.0335 0.2382 2.3017, 2.0335 0.466 2.2277, 2.0335 0.6734 2.108, 2.0335 0.8514 1.9477, 2.0335 0.9922 1.7539, 2.0335 1.0896 1.5351, 2.0335 1.1394 1.3009, 2.0335 1.1394 1.0613, 2.0335 1.0896 0.8271, 2.0335 0.9922 0.6083, 2.0335 0.8514 0.4145, 2.0335 0.6734 0.2542, 2.0335 0.466 0.1345, 2.0335 0.2382 0.0605, 2.0335 0.0 0.0354, 2.0335 -0.2382 0.0605, 2.0335 -0.466 0.1345, 2.0335 -0.6734 0.2542, 2.0335 -0.8514 0.4145, 2.0335 -0.9922 0.6083, 2.0335 -1.0896 0.8271, 2.0335 -1.1394 1.0613, 2.0335 -1.1394 1.3009, 2.0335 -1.0896 1.5351, 2.0335 -0.9922 1.7539, 2.0335 -0.8514 1.9477, 2.0335 -0.6734 2.108, 2.0335 -0.466 2.2277, 2.0335 -0.2382 2.3017, 2.0335 0.4644 2.2241, 2.0335 0.6711 2.1048, 2.0335 0.8485 1.9451, 2.0335 0.9888 1.752, 2.0335 1.0859 1.5339, 2.0335 1.1355 1.3004, 2.0335 1.1355 1.0618, 2.0335 1.0859 0.8283, 2.0335 0.9888 0.6102, 2.0335 0.8485 0.4171, 2.0335 0.6711 0.2574, 2.0335 0.4644 0.1381, 2.0335 0.2374 0.0643, 2.0335 0.0 0.0394, 2.0335 -0.2374 0.0643, 2.0335 -0.4644 0.1381, 2.0335 -0.6711 0.2574, 2.0335 -0.8485 0.4171, 2.0335 -0.9888 0.6102, 2.0335 -1.0859 0.8283, 2.0335 -1.1355 1.0618, 2.0335 -1.1355 1.3004, 2.0335 -1.0859 1.5339, 2.0335 -0.9888 1.752, 2.0335 -0.8485 1.9451, 2.0335 -0.6711 2.1048, 2.0335 -0.4644 2.2241, 2.0335 -0.2374 2.2979, 2.0335 -0.0 2.3228, 2.0335 0.2374 2.2979
            ]
        }
        coordIndex [
            0,1,2,-1,2,1,3,-1,2,3,4,-1,4,3,5,-1,4,5,6,-1,6,5,7,-1,6,7,8,-1,8,7,9,-1,8,9,10,-1,10,9,11,-1,10,11,12,-1,12,11,13,-1,12,13,14,-1,14,13,15,-1,14,15,16,-1,16,15,17,-1,16,17,18,-1,18,17,19,-1,18,19,20,-1,20,19,21,-1,20,21,22,-1,22,21,23,-1,22,23,24,-1,24,23,25,-1,24,25,26,-1,26,25,27,-1,26,27,28,-1,28,27,29,-1,28,29,30,-1,30,29,31,-1,30,31,32,-1,32,31,33,-1,32,33,34,-1,34,33,35,-1,34,35,36,-1,36,35,37,-1,36,37,38,-1,38,37,39,-1,38,39,40,-1,40,39,41,-1,40,41,42,-1,42,41,43,-1,42,43,44,-1,44,43,45,-1,44,45,46,-1,46,45,47,-1,46,47,48,-1,48,47,49,-1,48,49,50,-1,50,49,51,-1,50,51,52,-1,52,51,53,-1,52,53,54,-1,54,53,55,-1,54,55,56,-1,56,55,57,-1,56,57,58,-1,58,57,59,-1,58,59,0,-1,0,59,1,-1,60,15,61,-1,61,15,13,-1,61,13,62,-1,62,13,11,-1,62,11,63,-1,63,11,9,-1,63,9,64,-1,64,9,7,-1,64,7,65,-1,65,7,5,-1,65,5,66,-1,66,5,3,-1,66,3,67,-1,67,3,1,-1,67,1,68,-1,68,1,59,-1,68,59,69,-1,69,59,57,-1,69,57,70,-1,70,57,55,-1,70,55,71,-1,71,55,53,-1,71,53,72,-1,72,53,51,-1,72,51,73,-1,73,51,49,-1,73,49,74,-1,74,49,47,-1,74,47,75,-1,75,47,45,-1,75,45,76,-1,76,45,43,-1,76,43,77,-1,77,43,41,-1,77,41,78,-1,78,41,39,-1,78,39,79,-1,79,39,37,-1,79,37,80,-1,80,37,35,-1,80,35,81,-1,81,35,33,-1,81,33,82,-1,82,33,31,-1,82,31,83,-1,83,31,29,-1,83,29,84,-1,84,29,27,-1,84,27,85,-1,85,27,25,-1,85,25,86,-1,86,25,23,-1,86,23,87,-1,87,23,21,-1,87,21,88,-1,88,21,19,-1,88,19,89,-1,89,19,17,-1,89,17,60,-1,60,17,15,-1,90,62,91,-1,91,62,63,-1,91,63,92,-1,92,63,64,-1,92,64,93,-1,93,64,65,-1,93,65,94,-1,94,65,66,-1,94,66,95,-1,95,66,67,-1,95,67,96,-1,96,67,68,-1,96,68,97,-1,97,68,69,-1,97,69,98,-1,98,69,70,-1,98,70,99,-1,99,70,71,-1,99,71,100,-1,100,71,72,-1,100,72,101,-1,101,72,73,-1,101,73,102,-1,102,73,74,-1,102,74,103,-1,103,74,75,-1,103,75,104,-1,104,75,76,-1,104,76,105,-1,105,76,77,-1,105,77,106,-1,106,77,78,-1,106,78,107,-1,107,78,79,-1,107,79,108,-1,108,79,80,-1,108,80,109,-1,109,80,81,-1,109,81,110,-1,110,81,82,-1,110,82,111,-1,111,82,83,-1,111,83,112,-1,112,83,84,-1,112,84,113,-1,113,84,85,-1,113,85,114,-1,114,85,86,-1,114,86,115,-1,115,86,87,-1,115,87,116,-1,116,87,88,-1,116,88,117,-1,117,88,89,-1,117,89,118,-1,118,89,60,-1,118,60,119,-1,119,60,61,-1,119,61,90,-1,90,61,62,-1,
        ]
    }
}
Shape{
    appearance Appearance {
        material  Material {
            diffuseColor 0.9686274509803922 0.9686274509803922 0.9686274509803922
            specularColor 0.48627450980392156 0.48627450980392156 0.48627450980392156
            ambientIntensity 0.9686
            transparency 0.0
            shininess 0.5
        }
    }
    geometry IndexedFaceSet {
        ccw TRUE
        solid FALSE
        coord DEF co Coordinate {
            point [
                4.3997 -0.0738 -1.9685, 4.385 -0.0382 -1.9685, 4.5276 0.0 -1.9685, 4.3799 0.0 -1.9685, 4.385 0.0382 -1.9685, 4.4893 -0.1426 -1.9685, 4.4537 -0.1279 -1.9685, 4.4232 -0.1044 -1.9685, 4.6014 -0.1279 -1.9685, 4.5658 -0.1426 -1.9685, 4.5276 -0.1476 -1.9685, 4.6702 -0.0382 -1.9685, 4.6554 -0.0738 -1.9685, 4.632 -0.1044 -1.9685, 4.6554 0.0738 -1.9685, 4.6702 0.0382 -1.9685, 4.6752 0.0 -1.9685, 4.5658 0.1426 -1.9685, 4.6014 0.1279 -1.9685, 4.632 0.1044 -1.9685, 4.4537 0.1279 -1.9685, 4.4893 0.1426 -1.9685, 4.5276 0.1476 -1.9685, 4.3997 0.0738 -1.9685, 4.4232 0.1044 -1.9685, 4.385 0.0382 0.7874, 4.3997 0.0738 0.7874, 4.4232 0.1044 0.7874, 4.4537 0.1279 0.7874, 4.4893 0.1426 0.7874, 4.5276 0.1476 0.7874, 4.5658 0.1426 0.7874, 4.6014 0.1279 0.7874, 4.632 0.1044 0.7874, 4.6554 0.0738 0.7874, 4.6702 0.0382 0.7874, 4.6752 0.0 0.7874, 4.6702 -0.0382 0.7874, 4.6554 -0.0738 0.7874, 4.632 -0.1044 0.7874, 4.6014 -0.1279 0.7874, 4.5658 -0.1426 0.7874, 4.5276 -0.1476 0.7874, 4.4893 -0.1426 0.7874, 4.4537 -0.1279 0.7874, 4.4232 -0.1044 0.7874, 4.3997 -0.0738 0.7874, 4.385 -0.0382 0.7874, 4.3799 0.0 0.7874, 4.3752 -0.0 0.8354, 4.3801 0.0382 0.8364, 4.3946 0.0738 0.8393, 4.4176 0.1044 0.8438, 4.4476 0.1279 0.8498, 4.4825 0.1426 0.8568, 4.52 0.1476 0.8642, 4.5575 0.1426 0.8717, 4.5924 0.1279 0.8786, 4.6224 0.1044 0.8846, 4.6454 0.0738 0.8892, 4.6599 0.0382 0.892, 4.6648 -0.0 0.893, 4.6599 -0.0382 0.892, 4.6454 -0.0738 0.8892, 4.6224 -0.1044 0.8846, 4.5924 -0.1279 0.8786, 4.5575 -0.1426 0.8717, 4.52 -0.1476 0.8642, 4.4825 -0.1426 0.8568, 4.4476 -0.1279 0.8498, 4.4176 -0.1044 0.8438, 4.3946 -0.0738 0.8393, 4.3801 -0.0382 0.8364, 4.3612 -0.0 0.8816, 4.3658 0.0382 0.8835, 4.3795 0.0738 0.8891, 4.4011 0.1044 0.8981, 4.4294 0.1279 0.9098, 4.4623 0.1426 0.9234, 4.4976 0.1476 0.9381, 4.5329 0.1426 0.9527, 4.5658 0.1279 0.9663, 4.594 0.1044 0.978, 4.6157 0.0738 0.987, 4.6293 0.0382 0.9926, 4.634 -0.0 0.9946, 4.6293 -0.0382 0.9926, 4.6157 -0.0738 0.987, 4.594 -0.1044 0.978, 4.5658 -0.1279 0.9663, 4.5329 -0.1426 0.9527, 4.4976 -0.1476 0.9381, 4.4623 -0.1426 0.9234, 4.4294 -0.1279 0.9098, 4.4011 -0.1044 0.8981, 4.3795 -0.0738 0.8891, 4.3658 -0.0382 0.8835, 4.3385 -0.0 0.9241, 4.3426 0.0382 0.9269, 4.3549 0.0738 0.9351, 4.3744 0.1044 0.9481, 4.3998 0.1279 0.9651, 4.4294 0.1426 0.9849, 4.4612 0.1476 1.0061, 4.493 0.1426 1.0274, 4.5226 0.1279 1.0471, 4.548 0.1044 1.0641, 4.5675 0.0738 1.0772, 4.5798 0.0382 1.0854, 4.584 -0.0 1.0882, 4.5798 -0.0382 1.0854, 4.5675 -0.0738 1.0772, 4.548 -0.1044 1.0641, 4.5226 -0.1279 1.0471, 4.493 -0.1426 1.0274, 4.4612 -0.1476 1.0061, 4.4294 -0.1426 0.9849, 4.3998 -0.1279 0.9651, 4.3744 -0.1044 0.9481, 4.3549 -0.0738 0.9351, 4.3426 -0.0382 0.9269, 4.3079 -0.0 0.9614, 4.3114 0.0382 0.965, 4.3218 0.0738 0.9754, 4.3384 0.1044 0.992, 4.36 0.1279 1.0136, 4.3852 0.1426 1.0388, 4.4122 0.1476 1.0658, 4.4393 0.1426 1.0928, 4.4644 0.1279 1.118, 4.4861 0.1044 1.1396, 4.5027 0.0738 1.1562, 4.5131 0.0382 1.1666, 4.5166 -0.0 1.1702, 4.5131 -0.0382 1.1666, 4.5027 -0.0738 1.1562, 4.4861 -0.1044 1.1396, 4.4644 -0.1279 1.118, 4.4393 -0.1426 1.0928, 4.4122 -0.1476 1.0658, 4.3852 -0.1426 1.0388, 4.36 -0.1279 1.0136, 4.3384 -0.1044 0.992, 4.3218 -0.0738 0.9754, 4.3114 -0.0382 0.965, 4.2706 -0.0 0.992, 4.2734 0.0382 0.9962, 4.2816 0.0738 1.0084, 4.2946 0.1044 1.028, 4.3116 0.1279 1.0534, 4.3314 0.1426 1.083, 4.3526 0.1476 1.1148, 4.3738 0.1426 1.1465, 4.3936 0.1279 1.1761, 4.4106 0.1044 1.2016, 4.4236 0.0738 1.2211, 4.4318 0.0382 1.2333, 4.4346 -0.0 1.2375, 4.4318 -0.0382 1.2333, 4.4236 -0.0738 1.2211, 4.4106 -0.1044 1.2016, 4.3936 -0.1279 1.1761, 4.3738 -0.1426 1.1465, 4.3526 -0.1476 1.1148, 4.3314 -0.1426 1.083, 4.3116 -0.1279 1.0534, 4.2946 -0.1044 1.028, 4.2816 -0.0738 1.0084, 4.2734 -0.0382 0.9962, 4.228 -0.0 1.0147, 4.2299 0.0382 1.0194, 4.2356 0.0738 1.033, 4.2446 0.1044 1.0547, 4.2563 0.1279 1.0829, 4.2699 0.1426 1.1158, 4.2845 0.1476 1.1511, 4.2991 0.1426 1.1864, 4.3128 0.1279 1.2193, 4.3245 0.1044 1.2476, 4.3335 0.0738 1.2693, 4.3391 0.0382 1.2829, 4.341 -0.0 1.2875, 4.3391 -0.0382 1.2829, 4.3335 -0.0738 1.2693, 4.3245 -0.1044 1.2476, 4.3128 -0.1279 1.2193, 4.2991 -0.1426 1.1864, 4.2845 -0.1476 1.1511, 4.2699 -0.1426 1.1158, 4.2563 -0.1279 1.0829, 4.2446 -0.1044 1.0547, 4.2356 -0.0738 1.033, 4.2299 -0.0382 1.0194, 4.1819 -0.0 1.0287, 4.1828 0.0382 1.0337, 4.1857 0.0738 1.0481, 4.1903 0.1044 1.0711, 4.1963 0.1279 1.1011, 4.2032 0.1426 1.1361, 4.2107 0.1476 1.1735, 4.2181 0.1426 1.211, 4.2251 0.1279 1.2459, 4.231 0.1044 1.2759, 4.2356 0.0738 1.2989, 4.2385 0.0382 1.3134, 4.2395 -0.0 1.3183, 4.2385 -0.0382 1.3134, 4.2356 -0.0738 1.2989, 4.231 -0.1044 1.2759, 4.2251 -0.1279 1.2459, 4.2181 -0.1426 1.211, 4.2107 -0.1476 1.1735, 4.2032 -0.1426 1.1361, 4.1963 -0.1279 1.1011, 4.1903 -0.1044 1.0711, 4.1857 -0.0738 1.0481, 4.1828 -0.0382 1.0337, 4.1339 -0.0 1.0335, 4.1339 0.0382 1.0385, 4.1339 0.0738 1.0532, 4.1339 0.1044 1.0767, 4.1339 0.1279 1.1073, 4.1339 0.1426 1.1429, 4.1339 0.1476 1.1811, 4.1339 0.1426 1.2193, 4.1339 0.1279 1.2549, 4.1339 0.1044 1.2855, 4.1339 0.0738 1.309, 4.1339 0.0382 1.3237, 4.1339 -0.0 1.3287, 4.1339 -0.0382 1.3237, 4.1339 -0.0738 1.309, 4.1339 -0.1044 1.2855, 4.1339 -0.1279 1.2549, 4.1339 -0.1426 1.2193, 4.1339 -0.1476 1.1811, 4.1339 -0.1426 1.1429, 4.1339 -0.1279 1.1073, 4.1339 -0.1044 1.0767, 4.1339 -0.0738 1.0532, 4.1339 -0.0382 1.0385, 3.4449 0.0382 1.0385, 3.4449 0.0738 1.0532, 3.4449 0.1044 1.0767, 3.4449 0.1279 1.1073, 3.4449 0.1426 1.1429, 3.4449 0.1476 1.1811, 3.4449 0.1426 1.2193, 3.4449 0.1279 1.2549, 3.4449 0.1044 1.2855, 3.4449 0.0738 1.309, 3.4449 0.0382 1.3237, 3.4449 0.0 1.3287, 3.4449 -0.0382 1.3237, 3.4449 -0.0738 1.309, 3.4449 -0.1044 1.2855, 3.4449 -0.1279 1.2549, 3.4449 -0.1426 1.2193, 3.4449 -0.1476 1.1811, 3.4449 -0.1426 1.1429, 3.4449 -0.1279 1.1073, 3.4449 -0.1044 1.0767, 3.4449 -0.0738 1.0532, 3.4449 -0.0382 1.0385, 3.4449 0.0 1.0335, -3.4449 0.0 1.0335, -4.1339 0.0382 1.0385, -3.4449 0.0382 1.0385, -4.1339 0.0738 1.0532, -3.4449 0.0738 1.0532, -4.1339 0.1044 1.0767, -3.4449 0.1044 1.0767, -4.1339 0.1279 1.1073, -3.4449 0.1279 1.1073, -4.1339 0.1426 1.1429, -3.4449 0.1426 1.1429, -4.1339 0.1476 1.1811, -3.4449 0.1476 1.1811, -4.1339 0.1426 1.2193, -3.4449 0.1426 1.2193, -4.1339 0.1279 1.2549, -3.4449 0.1279 1.2549, -4.1339 0.1044 1.2855, -3.4449 0.1044 1.2855, -4.1339 0.0738 1.309, -3.4449 0.0738 1.309, -4.1339 0.0382 1.3237, -3.4449 0.0382 1.3237, -4.1339 0.0 1.3287, -3.4449 0.0 1.3287, -4.1339 -0.0382 1.3237, -3.4449 -0.0382 1.3237, -4.1339 -0.0738 1.309, -3.4449 -0.0738 1.309, -4.1339 -0.1044 1.2855, -3.4449 -0.1044 1.2855, -4.1339 -0.1279 1.2549, -3.4449 -0.1279 1.2549, -4.1339 -0.1426 1.2193, -3.4449 -0.1426 1.2193, -4.1339 -0.1476 1.1811, -3.4449 -0.1476 1.1811, -4.1339 -0.1426 1.1429, -3.4449 -0.1426 1.1429, -4.1339 -0.1279 1.1073, -3.4449 -0.1279 1.1073, -4.1339 -0.1044 1.0767, -3.4449 -0.1044 1.0767, -4.1339 -0.0738 1.0532, -3.4449 -0.0738 1.0532, -4.1339 -0.0382 1.0385, -3.4449 -0.0382 1.0385, -4.1339 0.0 1.0335, -4.3997 0.0738 -1.9685, -4.385 0.0382 -1.9685, -4.5276 0.0 -1.9685, -4.3799 0.0 -1.9685, -4.385 -0.0382 -1.9685, -4.4893 0.1426 -1.9685, -4.4537 0.1279 -1.9685, -4.4232 0.1044 -1.9685, -4.6014 0.1279 -1.9685, -4.5658 0.1426 -1.9685, -4.5276 0.1476 -1.9685, -4.6702 0.0382 -1.9685, -4.6554 0.0738 -1.9685, -4.632 0.1044 -1.9685, -4.6554 -0.0738 -1.9685, -4.6702 -0.0382 -1.9685, -4.6752 0.0 -1.9685, -4.5658 -0.1426 -1.9685, -4.6014 -0.1279 -1.9685, -4.632 -0.1044 -1.9685, -4.4537 -0.1279 -1.9685, -4.4893 -0.1426 -1.9685, -4.5276 -0.1476 -1.9685, -4.3997 -0.0738 -1.9685, -4.4232 -0.1044 -1.9685, -4.3799 -0.0 0.7874, -4.385 0.0382 0.7874, -4.3997 0.0738 0.7874, -4.4232 0.1044 0.7874, -4.4537 0.1279 0.7874, -4.4893 0.1426 0.7874, -4.5276 0.1476 0.7874, -4.5658 0.1426 0.7874, -4.6014 0.1279 0.7874, -4.632 0.1044 0.7874, -4.6554 0.0738 0.7874, -4.6702 0.0382 0.7874, -4.6752 0.0 0.7874, -4.6702 -0.0382 0.7874, -4.6554 -0.0738 0.7874, -4.632 -0.1044 0.7874, -4.6014 -0.1279 0.7874, -4.5658 -0.1426 0.7874, -4.5276 -0.1476 0.7874, -4.4893 -0.1426 0.7874, -4.4537 -0.1279 0.7874, -4.4232 -0.1044 0.7874, -4.3997 -0.0738 0.7874, -4.385 -0.0382 0.7874, -4.1819 -0.0 1.0287, -4.1828 0.0382 1.0337, -4.1857 0.0738 1.0481, -4.1903 0.1044 1.0711, -4.1963 0.1279 1.1011, -4.2032 0.1426 1.1361, -4.2107 0.1476 1.1735, -4.2181 0.1426 1.211, -4.2251 0.1279 1.2459, -4.231 0.1044 1.2759, -4.2356 0.0738 1.2989, -4.2385 0.0382 1.3134, -4.2395 -0.0 1.3183, -4.2385 -0.0382 1.3134, -4.2356 -0.0738 1.2989, -4.231 -0.1044 1.2759, -4.2251 -0.1279 1.2459, -4.2181 -0.1426 1.211, -4.2107 -0.1476 1.1735, -4.2032 -0.1426 1.1361, -4.1963 -0.1279 1.1011, -4.1903 -0.1044 1.0711, -4.1857 -0.0738 1.0481, -4.1828 -0.0382 1.0337, -4.228 -0.0 1.0147, -4.2299 0.0382 1.0194, -4.2356 0.0738 1.033, -4.2446 0.1044 1.0547, -4.2563 0.1279 1.0829, -4.2699 0.1426 1.1158, -4.2845 0.1476 1.1511, -4.2991 0.1426 1.1864, -4.3128 0.1279 1.2193, -4.3245 0.1044 1.2476, -4.3335 0.0738 1.2693, -4.3391 0.0382 1.2829, -4.341 -0.0 1.2875, -4.3391 -0.0382 1.2829, -4.3335 -0.0738 1.2693, -4.3245 -0.1044 1.2476, -4.3128 -0.1279 1.2193, -4.2991 -0.1426 1.1864, -4.2845 -0.1476 1.1511, -4.2699 -0.1426 1.1158, -4.2563 -0.1279 1.0829, -4.2446 -0.1044 1.0547, -4.2356 -0.0738 1.033, -4.2299 -0.0382 1.0194, -4.2706 -0.0 0.992, -4.2734 0.0382 0.9962, -4.2816 0.0738 1.0084, -4.2946 0.1044 1.028, -4.3116 0.1279 1.0534, -4.3314 0.1426 1.083, -4.3526 0.1476 1.1148, -4.3738 0.1426 1.1465, -4.3936 0.1279 1.1761, -4.4106 0.1044 1.2016, -4.4236 0.0738 1.2211, -4.4318 0.0382 1.2333, -4.4346 -0.0 1.2375, -4.4318 -0.0382 1.2333, -4.4236 -0.0738 1.2211, -4.4106 -0.1044 1.2016, -4.3936 -0.1279 1.1761, -4.3738 -0.1426 1.1465, -4.3526 -0.1476 1.1148, -4.3314 -0.1426 1.083, -4.3116 -0.1279 1.0534, -4.2946 -0.1044 1.028, -4.2816 -0.0738 1.0084, -4.2734 -0.0382 0.9962, -4.3079 -0.0 0.9614, -4.3114 0.0382 0.965, -4.3218 0.0738 0.9754, -4.3384 0.1044 0.992, -4.36 0.1279 1.0136, -4.3852 0.1426 1.0388, -4.4122 0.1476 1.0658, -4.4393 0.1426 1.0928, -4.4644 0.1279 1.118, -4.4861 0.1044 1.1396, -4.5027 0.0738 1.1562, -4.5131 0.0382 1.1666, -4.5166 -0.0 1.1702, -4.5131 -0.0382 1.1666, -4.5027 -0.0738 1.1562, -4.4861 -0.1044 1.1396, -4.4644 -0.1279 1.118, -4.4393 -0.1426 1.0928, -4.4122 -0.1476 1.0658, -4.3852 -0.1426 1.0388, -4.36 -0.1279 1.0136, -4.3384 -0.1044 0.992, -4.3218 -0.0738 0.9754, -4.3114 -0.0382 0.965, -4.3385 -0.0 0.9241, -4.3426 0.0382 0.9269, -4.3549 0.0738 0.9351, -4.3744 0.1044 0.9481, -4.3998 0.1279 0.9651, -4.4294 0.1426 0.9849, -4.4612 0.1476 1.0061, -4.493 0.1426 1.0274, -4.5226 0.1279 1.0471, -4.548 0.1044 1.0641, -4.5675 0.0738 1.0772, -4.5798 0.0382 1.0854, -4.584 -0.0 1.0882, -4.5798 -0.0382 1.0854, -4.5675 -0.0738 1.0772, -4.548 -0.1044 1.0641, -4.5226 -0.1279 1.0471, -4.493 -0.1426 1.0274, -4.4612 -0.1476 1.0061, -4.4294 -0.1426 0.9849, -4.3998 -0.1279 0.9651, -4.3744 -0.1044 0.9481, -4.3549 -0.0738 0.9351, -4.3426 -0.0382 0.9269, -4.3612 -0.0 0.8816, -4.3658 0.0382 0.8835, -4.3795 0.0738 0.8891, -4.4011 0.1044 0.8981, -4.4294 0.1279 0.9098, -4.4623 0.1426 0.9234, -4.4976 0.1476 0.9381, -4.5329 0.1426 0.9527, -4.5658 0.1279 0.9663, -4.594 0.1044 0.978, -4.6157 0.0738 0.987, -4.6293 0.0382 0.9926, -4.634 -0.0 0.9946, -4.6293 -0.0382 0.9926, -4.6157 -0.0738 0.987, -4.594 -0.1044 0.978, -4.5658 -0.1279 0.9663, -4.5329 -0.1426 0.9527, -4.4976 -0.1476 0.9381, -4.4623 -0.1426 0.9234, -4.4294 -0.1279 0.9098, -4.4011 -0.1044 0.8981, -4.3795 -0.0738 0.8891, -4.3658 -0.0382 0.8835, -4.3752 -0.0 0.8354, -4.3801 0.0382 0.8364, -4.3946 0.0738 0.8393, -4.4176 0.1044 0.8438, -4.4476 0.1279 0.8498, -4.4825 0.1426 0.8568, -4.52 0.1476 0.8642, -4.5575 0.1426 0.8717, -4.5924 0.1279 0.8786, -4.6224 0.1044 0.8846, -4.6454 0.0738 0.8892, -4.6599 0.0382 0.892, -4.6648 -0.0 0.893, -4.6599 -0.0382 0.892, -4.6454 -0.0738 0.8892, -4.6224 -0.1044 0.8846, -4.5924 -0.1279 0.8786, -4.5575 -0.1426 0.8717, -4.52 -0.1476 0.8642, -4.4825 -0.1426 0.8568, -4.4476 -0.1279 0.8498, -4.4176 -0.1044 0.8438, -4.3946 -0.0738 0.8393, -4.3801 -0.0382 0.8364
            ]
        }
        coordIndex [
            0,1,2,-1,2,1,3,-1,2,3,4,-1,5,6,2,-1,2,6,7,-1,2,7,0,-1,8,9,2,-1,2,9,10,-1,2,10,5,-1,11,12,2,-1,2,12,13,-1,2,13,8,-1,14,15,2,-1,2,15,16,-1,2,16,11,-1,17,18,2,-1,2,18,19,-1,2,19,14,-1,20,21,2,-1,2,21,22,-1,2,22,17,-1,4,23,2,-1,2,23,24,-1,2,24,20,-1,3,25,4,-1,4,25,26,-1,4,26,23,-1,23,26,27,-1,23,27,24,-1,24,27,28,-1,24,28,20,-1,20,28,29,-1,20,29,21,-1,21,29,30,-1,21,30,22,-1,22,30,31,-1,22,31,17,-1,17,31,32,-1,17,32,18,-1,18,32,33,-1,18,33,19,-1,19,33,34,-1,19,34,14,-1,14,34,35,-1,14,35,15,-1,15,35,36,-1,15,36,16,-1,16,36,37,-1,16,37,11,-1,11,37,38,-1,11,38,12,-1,12,38,39,-1,12,39,13,-1,13,39,40,-1,13,40,8,-1,8,40,41,-1,8,41,9,-1,9,41,42,-1,9,42,10,-1,10,42,43,-1,10,43,5,-1,5,43,44,-1,5,44,6,-1,6,44,45,-1,6,45,7,-1,7,45,46,-1,7,46,0,-1,0,46,47,-1,0,47,1,-1,1,47,48,-1,1,48,3,-1,3,48,25,-1,48,49,25,-1,25,49,50,-1,25,50,26,-1,26,50,51,-1,26,51,27,-1,27,51,52,-1,27,52,28,-1,28,52,53,-1,28,53,29,-1,29,53,54,-1,29,54,30,-1,30,54,55,-1,30,55,31,-1,31,55,56,-1,31,56,32,-1,32,56,57,-1,32,57,33,-1,33,57,58,-1,33,58,34,-1,34,58,59,-1,34,59,35,-1,35,59,60,-1,35,60,36,-1,36,60,61,-1,36,61,37,-1,37,61,62,-1,37,62,38,-1,38,62,63,-1,38,63,39,-1,39,63,64,-1,39,64,40,-1,40,64,65,-1,40,65,41,-1,41,65,66,-1,41,66,42,-1,42,66,67,-1,42,67,43,-1,43,67,68,-1,43,68,44,-1,44,68,69,-1,44,69,45,-1,45,69,70,-1,45,70,46,-1,46,70,71,-1,46,71,47,-1,47,71,72,-1,47,72,48,-1,48,72,49,-1,49,73,50,-1,50,73,74,-1,50,74,51,-1,51,74,75,-1,51,75,52,-1,52,75,76,-1,52,76,53,-1,53,76,77,-1,53,77,54,-1,54,77,78,-1,54,78,55,-1,55,78,79,-1,55,79,56,-1,56,79,80,-1,56,80,57,-1,57,80,81,-1,57,81,58,-1,58,81,82,-1,58,82,59,-1,59,82,83,-1,59,83,60,-1,60,83,84,-1,60,84,61,-1,61,84,85,-1,61,85,62,-1,62,85,86,-1,62,86,63,-1,63,86,87,-1,63,87,64,-1,64,87,88,-1,64,88,65,-1,65,88,89,-1,65,89,66,-1,66,89,90,-1,66,90,67,-1,67,90,91,-1,67,91,68,-1,68,91,92,-1,68,92,69,-1,69,92,93,-1,69,93,70,-1,70,93,94,-1,70,94,71,-1,71,94,95,-1,71,95,72,-1,72,95,96,-1,72,96,49,-1,49,96,73,-1,73,97,74,-1,74,97,98,-1,74,98,75,-1,75,98,99,-1,75,99,76,-1,76,99,100,-1,76,100,77,-1,77,100,101,-1,77,101,78,-1,78,101,102,-1,78,102,79,-1,79,102,103,-1,79,103,80,-1,80,103,104,-1,80,104,81,-1,81,104,105,-1,81,105,82,-1,82,105,106,-1,82,106,83,-1,83,106,107,-1,83,107,84,-1,84,107,108,-1,84,108,85,-1,85,108,109,-1,85,109,86,-1,86,109,110,-1,86,110,87,-1,87,110,111,-1,87,111,88,-1,88,111,112,-1,88,112,89,-1,89,112,113,-1,89,113,90,-1,90,113,114,-1,90,114,91,-1,91,114,115,-1,91,115,92,-1,92,115,116,-1,92,116,93,-1,93,116,117,-1,93,117,94,-1,94,117,118,-1,94,118,95,-1,95,118,119,-1,95,119,96,-1,96,119,120,-1,96,120,73,-1,73,120,97,-1,97,121,98,-1,98,121,122,-1,98,122,99,-1,99,122,123,-1,99,123,100,-1,100,123,124,-1,100,124,101,-1,101,124,125,-1,101,125,102,-1,102,125,126,-1,102,126,103,-1,103,126,127,-1,103,127,104,-1,104,127,128,-1,104,128,105,-1,105,128,129,-1,105,129,106,-1,106,129,130,-1,106,130,107,-1,107,130,131,-1,107,131,108,-1,108,131,132,-1,108,132,109,-1,109,132,133,-1,109,133,110,-1,110,133,134,-1,110,134,111,-1,111,134,135,-1,111,135,112,-1,112,135,136,-1,112,136,113,-1,113,136,137,-1,113,137,114,-1,114,137,138,-1,114,138,115,-1,115,138,139,-1,115,139,116,-1,116,139,140,-1,116,140,117,-1,117,140,141,-1,117,141,118,-1,118,141,142,-1,118,142,119,-1,119,142,143,-1,119,143,120,-1,120,143,144,-1,120,144,97,-1,97,144,121,-1,121,145,122,-1,122,145,146,-1,122,146,123,-1,123,146,147,-1,123,147,124,-1,124,147,148,-1,124,148,125,-1,125,148,149,-1,125,149,126,-1,126,149,150,-1,126,150,127,-1,127,150,151,-1,127,151,128,-1,128,151,152,-1,128,152,129,-1,129,152,153,-1,129,153,130,-1,130,153,154,-1,130,154,131,-1,131,154,155,-1,131,155,132,-1,132,155,156,-1,132,156,133,-1,133,156,157,-1,133,157,134,-1,134,157,158,-1,134,158,135,-1,135,158,159,-1,135,159,136,-1,136,159,160,-1,136,160,137,-1,137,160,161,-1,137,161,138,-1,138,161,162,-1,138,162,139,-1,139,162,163,-1,139,163,140,-1,140,163,164,-1,140,164,141,-1,141,164,165,-1,141,165,142,-1,142,165,166,-1,142,166,143,-1,143,166,167,-1,143,167,144,-1,144,167,168,-1,144,168,121,-1,121,168,145,-1,145,169,146,-1,146,169,170,-1,146,170,147,-1,147,170,171,-1,147,171,148,-1,148,171,172,-1,148,172,149,-1,149,172,173,-1,149,173,150,-1,150,173,174,-1,150,174,151,-1,151,174,175,-1,151,175,152,-1,152,175,176,-1,152,176,153,-1,153,176,177,-1,153,177,154,-1,154,177,178,-1,154,178,155,-1,155,178,179,-1,155,179,156,-1,156,179,180,-1,156,180,157,-1,157,180,181,-1,157,181,158,-1,158,181,182,-1,158,182,159,-1,159,182,183,-1,159,183,160,-1,160,183,184,-1,160,184,161,-1,161,184,185,-1,161,185,162,-1,162,185,186,-1,162,186,163,-1,163,186,187,-1,163,187,164,-1,164,187,188,-1,164,188,165,-1,165,188,189,-1,165,189,166,-1,166,189,190,-1,166,190,167,-1,167,190,191,-1,167,191,168,-1,168,191,192,-1,168,192,145,-1,145,192,169,-1,169,193,170,-1,170,193,194,-1,170,194,171,-1,171,194,195,-1,171,195,172,-1,172,195,196,-1,172,196,173,-1,173,196,197,-1,173,197,174,-1,174,197,198,-1,174,198,175,-1,175,198,199,-1,175,199,176,-1,176,199,200,-1,176,200,177,-1,177,200,201,-1,177,201,178,-1,178,201,202,-1,178,202,179,-1,179,202,203,-1,179,203,180,-1,180,203,204,-1,180,204,181,-1,181,204,205,-1,181,205,182,-1,182,205,206,-1,182,206,183,-1,183,206,207,-1,183,207,184,-1,184,207,208,-1,184,208,185,-1,185,208,209,-1,185,209,186,-1,186,209,210,-1,186,210,187,-1,187,210,211,-1,187,211,188,-1,188,211,212,-1,188,212,189,-1,189,212,213,-1,189,213,190,-1,190,213,214,-1,190,214,191,-1,191,214,215,-1,191,215,192,-1,192,215,216,-1,192,216,169,-1,169,216,193,-1,193,217,194,-1,194,217,218,-1,194,218,195,-1,195,218,219,-1,195,219,196,-1,196,219,220,-1,196,220,197,-1,197,220,221,-1,197,221,198,-1,198,221,222,-1,198,222,199,-1,199,222,223,-1,199,223,200,-1,200,223,224,-1,200,224,201,-1,201,224,225,-1,201,225,202,-1,202,225,226,-1,202,226,203,-1,203,226,227,-1,203,227,204,-1,204,227,228,-1,204,228,205,-1,205,228,229,-1,205,229,206,-1,206,229,230,-1,206,230,207,-1,207,230,231,-1,207,231,208,-1,208,231,232,-1,208,232,209,-1,209,232,233,-1,209,233,210,-1,210,233,234,-1,210,234,211,-1,211,234,235,-1,211,235,212,-1,212,235,236,-1,212,236,213,-1,213,236,237,-1,213,237,214,-1,214,237,238,-1,214,238,215,-1,215,238,239,-1,215,239,216,-1,216,239,240,-1,216,240,193,-1,193,240,217,-1,217,241,218,-1,218,241,242,-1,218,242,219,-1,219,242,243,-1,219,243,220,-1,220,243,244,-1,220,244,221,-1,221,244,245,-1,221,245,222,-1,222,245,246,-1,222,246,223,-1,223,246,247,-1,223,247,224,-1,224,247,248,-1,224,248,225,-1,225,248,249,-1,225,249,226,-1,226,249,250,-1,226,250,227,-1,227,250,251,-1,227,251,228,-1,228,251,252,-1,228,252,229,-1,229,252,253,-1,229,253,230,-1,230,253,254,-1,230,254,231,-1,231,254,255,-1,231,255,232,-1,232,255,256,-1,232,256,233,-1,233,256,257,-1,233,257,234,-1,234,257,258,-1,234,258,235,-1,235,258,259,-1,235,259,236,-1,236,259,260,-1,236,260,237,-1,237,260,261,-1,237,261,238,-1,238,261,262,-1,238,262,239,-1,239,262,263,-1,239,263,240,-1,240,263,264,-1,240,264,217,-1,217,264,241,-1,265,266,267,-1,267,266,268,-1,267,268,269,-1,269,268,270,-1,269,270,271,-1,271,270,272,-1,271,272,273,-1,273,272,274,-1,273,274,275,-1,275,274,276,-1,275,276,277,-1,277,276,278,-1,277,278,279,-1,279,278,280,-1,279,280,281,-1,281,280,282,-1,281,282,283,-1,283,282,284,-1,283,284,285,-1,285,284,286,-1,285,286,287,-1,287,286,288,-1,287,288,289,-1,289,288,290,-1,289,290,291,-1,291,290,292,-1,291,292,293,-1,293,292,294,-1,293,294,295,-1,295,294,296,-1,295,296,297,-1,297,296,298,-1,297,298,299,-1,299,298,300,-1,299,300,301,-1,301,300,302,-1,301,302,303,-1,303,302,304,-1,303,304,305,-1,305,304,306,-1,305,306,307,-1,307,306,308,-1,307,308,309,-1,309,308,310,-1,309,310,311,-1,311,310,312,-1,311,312,265,-1,265,312,266,-1,313,314,315,-1,315,314,316,-1,315,316,317,-1,318,319,315,-1,315,319,320,-1,315,320,313,-1,321,322,315,-1,315,322,323,-1,315,323,318,-1,324,325,315,-1,315,325,326,-1,315,326,321,-1,327,328,315,-1,315,328,329,-1,315,329,324,-1,330,331,315,-1,315,331,332,-1,315,332,327,-1,333,334,315,-1,315,334,335,-1,315,335,330,-1,317,336,315,-1,315,336,337,-1,315,337,333,-1,338,314,339,-1,339,314,313,-1,339,313,340,-1,340,313,320,-1,340,320,341,-1,341,320,319,-1,341,319,342,-1,342,319,318,-1,342,318,343,-1,343,318,323,-1,343,323,344,-1,344,323,322,-1,344,322,345,-1,345,322,321,-1,345,321,346,-1,346,321,326,-1,346,326,347,-1,347,326,325,-1,347,325,348,-1,348,325,324,-1,348,324,349,-1,349,324,329,-1,349,329,350,-1,350,329,328,-1,350,328,351,-1,351,328,327,-1,351,327,352,-1,352,327,332,-1,352,332,353,-1,353,332,331,-1,353,331,354,-1,354,331,330,-1,354,330,355,-1,355,330,335,-1,355,335,356,-1,356,335,334,-1,356,334,357,-1,357,334,333,-1,357,333,358,-1,358,333,337,-1,358,337,359,-1,359,337,336,-1,359,336,360,-1,360,336,317,-1,360,317,361,-1,361,317,316,-1,361,316,338,-1,338,316,314,-1,312,362,266,-1,266,362,363,-1,266,363,268,-1,268,363,364,-1,268,364,270,-1,270,364,365,-1,270,365,272,-1,272,365,366,-1,272,366,274,-1,274,366,367,-1,274,367,276,-1,276,367,368,-1,276,368,278,-1,278,368,369,-1,278,369,280,-1,280,369,370,-1,280,370,282,-1,282,370,371,-1,282,371,284,-1,284,371,372,-1,284,372,286,-1,286,372,373,-1,286,373,288,-1,288,373,374,-1,288,374,290,-1,290,374,375,-1,290,375,292,-1,292,375,376,-1,292,376,294,-1,294,376,377,-1,294,377,296,-1,296,377,378,-1,296,378,298,-1,298,378,379,-1,298,379,300,-1,300,379,380,-1,300,380,302,-1,302,380,381,-1,302,381,304,-1,304,381,382,-1,304,382,306,-1,306,382,383,-1,306,383,308,-1,308,383,384,-1,308,384,310,-1,310,384,385,-1,310,385,312,-1,312,385,362,-1,362,386,363,-1,363,386,387,-1,363,387,364,-1,364,387,388,-1,364,388,365,-1,365,388,389,-1,365,389,366,-1,366,389,390,-1,366,390,367,-1,367,390,391,-1,367,391,368,-1,368,391,392,-1,368,392,369,-1,369,392,393,-1,369,393,370,-1,370,393,394,-1,370,394,371,-1,371,394,395,-1,371,395,372,-1,372,395,396,-1,372,396,373,-1,373,396,397,-1,373,397,374,-1,374,397,398,-1,374,398,375,-1,375,398,399,-1,375,399,376,-1,376,399,400,-1,376,400,377,-1,377,400,401,-1,377,401,378,-1,378,401,402,-1,378,402,379,-1,379,402,403,-1,379,403,380,-1,380,403,404,-1,380,404,381,-1,381,404,405,-1,381,405,382,-1,382,405,406,-1,382,406,383,-1,383,406,407,-1,383,407,384,-1,384,407,408,-1,384,408,385,-1,385,408,409,-1,385,409,362,-1,362,409,386,-1,386,410,387,-1,387,410,411,-1,387,411,388,-1,388,411,412,-1,388,412,389,-1,389,412,413,-1,389,413,390,-1,390,413,414,-1,390,414,391,-1,391,414,415,-1,391,415,392,-1,392,415,416,-1,392,416,393,-1,393,416,417,-1,393,417,394,-1,394,417,418,-1,394,418,395,-1,395,418,419,-1,395,419,396,-1,396,419,420,-1,396,420,397,-1,397,420,421,-1,397,421,398,-1,398,421,422,-1,398,422,399,-1,399,422,423,-1,399,423,400,-1,400,423,424,-1,400,424,401,-1,401,424,425,-1,401,425,402,-1,402,425,426,-1,402,426,403,-1,403,426,427,-1,403,427,404,-1,404,427,428,-1,404,428,405,-1,405,428,429,-1,405,429,406,-1,406,429,430,-1,406,430,407,-1,407,430,431,-1,407,431,408,-1,408,431,432,-1,408,432,409,-1,409,432,433,-1,409,433,386,-1,386,433,410,-1,410,434,411,-1,411,434,435,-1,411,435,412,-1,412,435,436,-1,412,436,413,-1,413,436,437,-1,413,437,414,-1,414,437,438,-1,414,438,415,-1,415,438,439,-1,415,439,416,-1,416,439,440,-1,416,440,417,-1,417,440,441,-1,417,441,418,-1,418,441,442,-1,418,442,419,-1,419,442,443,-1,419,443,420,-1,420,443,444,-1,420,444,421,-1,421,444,445,-1,421,445,422,-1,422,445,446,-1,422,446,423,-1,423,446,447,-1,423,447,424,-1,424,447,448,-1,424,448,425,-1,425,448,449,-1,425,449,426,-1,426,449,450,-1,426,450,427,-1,427,450,451,-1,427,451,428,-1,428,451,452,-1,428,452,429,-1,429,452,453,-1,429,453,430,-1,430,453,454,-1,430,454,431,-1,431,454,455,-1,431,455,432,-1,432,455,456,-1,432,456,433,-1,433,456,457,-1,433,457,410,-1,410,457,434,-1,434,458,435,-1,435,458,459,-1,435,459,436,-1,436,459,460,-1,436,460,437,-1,437,460,461,-1,437,461,438,-1,438,461,462,-1,438,462,439,-1,439,462,463,-1,439,463,440,-1,440,463,464,-1,440,464,441,-1,441,464,465,-1,441,465,442,-1,442,465,466,-1,442,466,443,-1,443,466,467,-1,443,467,444,-1,444,467,468,-1,444,468,445,-1,445,468,469,-1,445,469,446,-1,446,469,470,-1,446,470,447,-1,447,470,471,-1,447,471,448,-1,448,471,472,-1,448,472,449,-1,449,472,473,-1,449,473,450,-1,450,473,474,-1,450,474,451,-1,451,474,475,-1,451,475,452,-1,452,475,476,-1,452,476,453,-1,453,476,477,-1,453,477,454,-1,454,477,478,-1,454,478,455,-1,455,478,479,-1,455,479,456,-1,456,479,480,-1,456,480,457,-1,457,480,481,-1,457,481,434,-1,434,481,458,-1,458,482,459,-1,459,482,483,-1,459,483,460,-1,460,483,484,-1,460,484,461,-1,461,484,485,-1,461,485,462,-1,462,485,486,-1,462,486,463,-1,463,486,487,-1,463,487,464,-1,464,487,488,-1,464,488,465,-1,465,488,489,-1,465,489,466,-1,466,489,490,-1,466,490,467,-1,467,490,491,-1,467,491,468,-1,468,491,492,-1,468,492,469,-1,469,492,493,-1,469,493,470,-1,470,493,494,-1,470,494,471,-1,471,494,495,-1,471,495,472,-1,472,495,496,-1,472,496,473,-1,473,496,497,-1,473,497,474,-1,474,497,498,-1,474,498,475,-1,475,498,499,-1,475,499,476,-1,476,499,500,-1,476,500,477,-1,477,500,501,-1,477,501,478,-1,478,501,502,-1,478,502,479,-1,479,502,503,-1,479,503,480,-1,480,503,504,-1,480,504,481,-1,481,504,505,-1,481,505,458,-1,458,505,482,-1,482,506,483,-1,483,506,507,-1,483,507,484,-1,484,507,508,-1,484,508,485,-1,485,508,509,-1,485,509,486,-1,486,509,510,-1,486,510,487,-1,487,510,511,-1,487,511,488,-1,488,511,512,-1,488,512,489,-1,489,512,513,-1,489,513,490,-1,490,513,514,-1,490,514,491,-1,491,514,515,-1,491,515,492,-1,492,515,516,-1,492,516,493,-1,493,516,517,-1,493,517,494,-1,494,517,518,-1,494,518,495,-1,495,518,519,-1,495,519,496,-1,496,519,520,-1,496,520,497,-1,497,520,521,-1,497,521,498,-1,498,521,522,-1,498,522,499,-1,499,522,523,-1,499,523,500,-1,500,523,524,-1,500,524,501,-1,501,524,525,-1,501,525,502,-1,502,525,526,-1,502,526,503,-1,503,526,527,-1,503,527,504,-1,504,527,528,-1,504,528,505,-1,505,528,529,-1,505,529,482,-1,482,529,506,-1,506,338,507,-1,507,338,339,-1,507,339,508,-1,508,339,340,-1,508,340,509,-1,509,340,341,-1,509,341,510,-1,510,341,342,-1,510,342,511,-1,511,342,343,-1,511,343,512,-1,512,343,344,-1,512,344,513,-1,513,344,345,-1,513,345,514,-1,514,345,346,-1,514,346,515,-1,515,346,347,-1,515,347,516,-1,516,347,348,-1,516,348,517,-1,517,348,349,-1,517,349,518,-1,518,349,350,-1,518,350,519,-1,519,350,351,-1,519,351,520,-1,520,351,352,-1,520,352,521,-1,521,352,353,-1,521,353,522,-1,522,353,354,-1,522,354,523,-1,523,354,355,-1,523,355,524,-1,524,355,356,-1,524,356,525,-1,525,356,357,-1,525,357,526,-1,526,357,358,-1,526,358,527,-1,527,358,359,-1,527,359,528,-1,528,359,360,-1,528,360,529,-1,529,360,361,-1,529,361,506,-1,506,361,338,-1,
        ]
    }
}
Shape{
    appearance Appearance {
        material  Material {
            diffuseColor 0.792156862745098 0.8196078431372549 0.9333333333333333
            specularColor 0.396078431372549 0.4117647058823529 0.4666666666666667
            ambientIntensity 0.8244
            transparency 0.0
            shininess 0.5
        }
    }
    geometry IndexedFaceSet {
        ccw TRUE
        solid FALSE
        coord DEF co Coordinate {
            point [
                -1.3405 -0.1179 0.0455, -1.3405 -0.1187 0.0376, -1.3405 -0.013 0.0394, -1.3405 -0.0131 0.0316, -1.3564 -0.1179 0.0455, -1.3564 -0.1187 0.0376, -1.3564 0.0 0.0394, -1.3564 0.0 0.0315, -1.2959 0.0 0.0394, -1.2959 0.0 0.0315, -1.2959 -0.013 0.0394, -1.2959 -0.0131 0.0316, -1.2584 -0.0244 0.0318, -1.253 -0.0193 0.0317, -1.2529 -0.0193 0.0395, -1.2321 -0.0119 0.0316, -1.2283 -0.0116 0.0316, -1.2283 -0.0115 0.0394, -1.2321 -0.0118 0.0394, -1.2329 -0.0118 0.0394, -1.2359 -0.0123 0.0316, -1.2408 -0.0135 0.0395, -1.2514 -0.018 0.0395, -1.2526 -0.019 0.0317, -1.2469 -0.0157 0.0395, -1.2469 -0.0158 0.0316, -1.2437 -0.0141 0.0395, -1.2446 -0.0146 0.0316, -1.2408 -0.0136 0.0316, -1.2585 -0.0241 0.0396, -1.2586 -0.0242 0.0396, -1.2594 -0.0253 0.0318, -1.2625 -0.0297 0.0398, -1.27 -0.0578 0.0408, -1.27 -0.0582 0.033, -1.2683 -0.0445 0.0402, -1.2683 -0.0448 0.0324, -1.2681 -0.0427 0.0402, -1.2681 -0.043 0.0323, -1.2657 -0.0363 0.04, -1.2657 -0.0365 0.0321, -1.2639 -0.0316 0.0398, -1.2643 -0.0326 0.032, -1.2625 -0.0299 0.0319, -1.2695 -0.0654 0.0334, -1.2693 -0.0657 0.0413, -1.2694 -0.0661 0.0334, -1.2691 -0.0688 0.0414, -1.2672 -0.0768 0.0341, -1.267 -0.0762 0.0419, -1.2667 -0.0788 0.0342, -1.2659 -0.0805 0.0422, -1.2643 -0.0839 0.0346, -1.2643 -0.0833 0.0424, -1.2623 -0.0879 0.0349, -1.2614 -0.0886 0.0428, -1.2602 -0.0904 0.0351, -1.2603 -0.0899 0.0429, -1.2558 -0.0958 0.0355, -1.2554 -0.0955 0.0434, -1.2549 -0.0964 0.0355, -1.255 -0.0958 0.0434, -1.249 -0.1008 0.0359, -1.249 -0.1001 0.0438, -1.2477 -0.1017 0.036, -1.2483 -0.1007 0.0438, -1.2427 -0.1038 0.0362, -1.2426 -0.103 0.044, -1.2388 -0.1053 0.0363, -1.2387 -0.1046 0.0442, -1.2352 -0.1058 0.0364, -1.2352 -0.1051 0.0442, -1.2256 -0.1072 0.0365, -1.2256 -0.1064 0.0443, -1.2231 -0.1071 0.0365, -1.2236 -0.1064 0.0443, -1.2168 -0.106 0.0364, -1.2168 -0.1052 0.0442, -1.21 -0.1048 0.0363, -1.21 -0.1041 0.0441, -1.2069 -0.1035 0.0362, -1.2069 -0.1028 0.044, -1.198 -0.0996 0.0358, -1.198 -0.0989 0.0437, -1.198 -0.1147 0.0451, -1.198 -0.1155 0.0373, -1.1999 -0.116 0.0374, -1.1999 -0.1153 0.0452, -1.2039 -0.1167 0.0453, -1.2101 -0.1188 0.0377, -1.2102 -0.1174 0.0454, -1.2105 -0.1189 0.0377, -1.2257 -0.1193 0.0456, -1.2257 -0.1202 0.0378, -1.2332 -0.1197 0.0377, -1.2347 -0.1187 0.0456, -1.2375 -0.1188 0.0377, -1.2375 -0.1181 0.0455, -1.2464 -0.117 0.0375, -1.2471 -0.1159 0.0453, -1.247 -0.1167 0.0374, -1.2477 -0.1158 0.0453, -1.2562 -0.1124 0.037, -1.2561 -0.1115 0.0448, -1.2589 -0.111 0.0369, -1.2596 -0.1098 0.0447, -1.265 -0.106 0.0364, -1.265 -0.1053 0.0442, -1.2696 -0.1021 0.036, -1.2701 -0.1009 0.0438, -1.2708 -0.1005 0.0359, -1.2709 -0.0999 0.0437, -1.2771 -0.092 0.0352, -1.277 -0.0913 0.043, -1.2777 -0.0913 0.0351, -1.2781 -0.0898 0.0429, -1.2812 -0.083 0.0345, -1.2811 -0.0824 0.0424, -1.2829 -0.079 0.0342, -1.2834 -0.0766 0.0419, -1.2837 -0.073 0.0339, -1.2839 -0.0725 0.0417, -1.2858 -0.0572 0.0329, -1.2858 -0.0568 0.0408, -1.285 -0.0454 0.0324, -1.2846 -0.0451 0.0403, -1.285 -0.0454 0.0324, -1.2842 -0.0409 0.0401, -1.2825 -0.0355 0.0321, -1.2824 -0.0353 0.0399, -1.2818 -0.0325 0.032, -1.2804 -0.0289 0.0397, -1.2786 -0.0264 0.0318, -1.2788 -0.0262 0.0397, -1.2759 -0.0211 0.0317, -1.2748 -0.0193 0.0395, -1.2736 -0.0185 0.0317, -1.2738 -0.0183 0.0395, -1.2676 -0.0115 0.0316, -1.2675 -0.0115 0.0394, -1.2675 -0.0115 0.0316, -1.2671 -0.011 0.0394, -1.2603 -0.0065 0.0315, -1.2603 -0.0064 0.0394, -1.2571 -0.0044 0.0315, -1.2578 -0.0047 0.0394, -1.2528 -0.0028 0.0315, -1.2528 -0.0028 0.0394, -1.2466 -0.0005 0.0315, -1.2466 -0.0005 0.0394, -1.2447 -0.0003 0.0315, -1.2305 0.0014 0.0394, -1.2305 0.0015 0.0315, -1.2425 -0.0 0.0394, -1.2447 -0.0003 0.0394, -1.227 0.0013 0.0315, -1.2277 0.0014 0.0394, -1.2186 -0.0 0.0394, -1.2177 -0.0001 0.0315, -1.2177 -0.0001 0.0394, -1.2098 -0.0013 0.0315, -1.2098 -0.0013 0.0394, -1.2073 -0.0024 0.0315, -1.2073 -0.0023 0.0394, -1.198 -0.0062 0.0315, -1.198 -0.0061 0.0394, -1.198 -0.0191 0.0395, -1.198 -0.0192 0.0317, -1.2005 -0.0178 0.0316, -1.1995 -0.0182 0.0395, -1.2051 -0.0162 0.0316, -1.2051 -0.0162 0.0395, -1.2131 -0.0134 0.0316, -1.213 -0.0133 0.0394, -1.2149 -0.0131 0.0316, -1.2149 -0.0131 0.0394, -1.1591 -0.0533 0.0406, -1.1591 -0.0536 0.0327, -1.1591 -0.013 0.0394, -1.1591 -0.0131 0.0316, -1.1173 -0.0533 0.0406, -1.1173 -0.0536 0.0327, -1.1173 -0.0662 0.0413, -1.1173 -0.0667 0.0334, -1.1591 -0.0662 0.0413, -1.1591 -0.0667 0.0334, -1.1591 -0.105 0.0442, -1.1591 -0.1057 0.0364, -1.1144 -0.105 0.0442, -1.1144 -0.1057 0.0364, -1.1144 -0.1179 0.0455, -1.1144 -0.1187 0.0376, -1.1749 -0.1179 0.0455, -1.1749 -0.1187 0.0376, -1.1749 0.0 0.0394, -1.1749 0.0 0.0315, -1.1115 0.0 0.0394, -1.1115 0.0 0.0315, -1.1115 -0.013 0.0394, -1.1115 -0.0131 0.0316, -1.0552 -0.1187 0.0376, -1.0552 -0.1179 0.0455, -1.0885 -0.1187 0.0376, -1.0885 -0.1179 0.0455, -0.9934 -0.0609 0.0331, -0.9934 -0.0605 0.041, -0.9937 -0.0662 0.0334, -0.9936 -0.0644 0.0412, -0.9948 -0.0721 0.0338, -0.9949 -0.0717 0.0416, -0.9966 -0.0812 0.0344, -0.9963 -0.0799 0.0422, -0.9966 -0.0806 0.0422, -0.9966 -0.0813 0.0344, -1.0003 -0.0887 0.0428, -1.04 -0.1158 0.0453, -1.04 -0.1166 0.0374, -1.0339 -0.1149 0.0452, -1.034 -0.1158 0.0373, -1.0296 -0.1132 0.045, -1.0296 -0.1139 0.0372, -1.0209 -0.1095 0.0446, -1.0214 -0.1105 0.0368, -1.0202 -0.1089 0.0446, -1.0202 -0.1096 0.0367, -1.0116 -0.1024 0.044, -1.0115 -0.1032 0.0361, -1.0091 -0.1005 0.0438, -1.0096 -0.1017 0.036, -1.0052 -0.0957 0.0434, -1.0052 -0.0964 0.0356, -1.0012 -0.0907 0.043, -1.0019 -0.0924 0.0352, -1.0004 -0.0892 0.035, -1.0467 -0.0007 0.0315, -1.0564 0.0 0.0315, -1.0564 0.0 0.0394, -1.0496 -0.0003 0.0394, -1.0467 -0.0009 0.0394, -1.0449 -0.0009 0.0315, -1.0337 -0.0035 0.0394, -0.9954 -0.0458 0.0403, -0.9954 -0.0461 0.0325, -0.9961 -0.0409 0.0401, -0.9961 -0.0411 0.0322, -0.9979 -0.0366 0.04, -0.9979 -0.0368 0.0321, -1.0013 -0.0287 0.0397, -1.0009 -0.0296 0.0319, -1.0018 -0.028 0.0397, -1.0019 -0.0282 0.0318, -1.0079 -0.0201 0.0396, -1.0079 -0.0202 0.0317, -1.0092 -0.0183 0.0395, -1.009 -0.0187 0.0316, -1.0154 -0.0133 0.0395, -1.0154 -0.0133 0.0316, -1.0206 -0.0092 0.0394, -1.0187 -0.0105 0.0315, -1.0241 -0.0076 0.0394, -1.0241 -0.0078 0.0315, -1.0322 -0.0038 0.0394, -1.031 -0.0043 0.0315, -1.0337 -0.0036 0.0315, -1.0885 0.0 0.0315, -1.0885 0.0 0.0394, -1.0552 -0.1057 0.0364, -1.0464 -0.1049 0.0363, -1.0439 -0.1046 0.0363, -1.0376 -0.1028 0.0361, -1.0333 -0.1016 0.036, -1.0304 -0.1 0.0359, -1.0258 -0.0975 0.0356, -1.0242 -0.0961 0.0355, -1.0202 -0.0927 0.0352, -1.0199 -0.0923 0.0352, -1.0161 -0.087 0.0348, -1.0144 -0.0846 0.0346, -1.0129 -0.0807 0.0343, -1.0112 -0.0762 0.034, -1.0726 -0.1057 0.0364, -1.0726 -0.0131 0.0316, -1.0559 -0.0131 0.0316, -1.0427 -0.0147 0.0316, -1.0409 -0.0149 0.0316, -1.0346 -0.0173 0.0316, -1.031 -0.0186 0.0316, -1.0282 -0.0206 0.0317, -1.0238 -0.0235 0.0317, -1.0231 -0.0243 0.0318, -1.0182 -0.0297 0.0319, -1.0175 -0.0305 0.0319, -1.0145 -0.0361 0.0321, -1.0128 -0.0393 0.0322, -1.0119 -0.043 0.0323, -1.01 -0.051 0.0326, -1.0098 -0.0528 0.0327, -1.0093 -0.0606 0.0331, -1.0109 -0.0744 0.0339, -1.0559 -0.013 0.0394, -1.0726 -0.013 0.0394, -1.0093 -0.0602 0.041, -1.0097 -0.053 0.0406, -1.0098 -0.0525 0.0406, -1.0118 -0.0426 0.0402, -1.0123 -0.0406 0.0401, -1.0146 -0.0358 0.0399, -1.0166 -0.0316 0.0398, -1.0183 -0.0296 0.0398, -1.0227 -0.0243 0.0396, -1.023 -0.0241 0.0396, -1.0282 -0.0204 0.0396, -1.0427 -0.0146 0.0395, -1.0408 -0.0149 0.0395, -1.0346 -0.0172 0.0395, -1.0302 -0.0189 0.0395, -1.0552 -0.105 0.0442, -1.0479 -0.1045 0.0442, -1.0464 -0.1042 0.0441, -1.0376 -0.1021 0.0439, -1.0109 -0.0739 0.0418, -1.0112 -0.0756 0.0419, -1.0129 -0.0802 0.0422, -1.0145 -0.0841 0.0425, -1.0161 -0.0864 0.0427, -1.0196 -0.0915 0.043, -1.0198 -0.0917 0.0431, -1.0242 -0.0955 0.0434, -1.0259 -0.0968 0.0435, -1.0305 -0.0992 0.0437, -1.0349 -0.1015 0.0439, -1.0726 -0.105 0.0442
            ]
        }
        coordIndex [
            0,1,2,-1,2,1,3,-1,4,5,0,-1,0,5,1,-1,6,7,4,-1,4,7,5,-1,8,9,6,-1,6,9,7,-1,10,11,8,-1,8,11,9,-1,3,11,2,-1,2,11,10,-1,1,5,3,-1,3,5,7,-1,3,7,11,-1,11,7,9,-1,12,13,14,-1,15,16,17,-1,17,18,15,-1,15,18,19,-1,15,19,20,-1,20,19,21,-1,14,13,22,-1,22,13,23,-1,22,23,24,-1,24,23,25,-1,24,25,26,-1,26,25,27,-1,26,27,21,-1,21,27,28,-1,21,28,20,-1,14,29,12,-1,12,29,30,-1,12,30,31,-1,31,30,32,-1,33,34,35,-1,35,34,36,-1,35,36,37,-1,37,36,38,-1,37,38,39,-1,39,38,40,-1,39,40,41,-1,41,40,42,-1,41,42,32,-1,32,42,43,-1,32,43,31,-1,34,33,44,-1,44,33,45,-1,44,45,46,-1,46,45,47,-1,46,47,48,-1,48,47,49,-1,48,49,50,-1,50,49,51,-1,50,51,52,-1,52,51,53,-1,52,53,54,-1,54,53,55,-1,54,55,56,-1,56,55,57,-1,56,57,58,-1,58,57,59,-1,58,59,60,-1,60,59,61,-1,60,61,62,-1,62,61,63,-1,62,63,64,-1,64,63,65,-1,64,65,66,-1,66,65,67,-1,66,67,68,-1,68,67,69,-1,68,69,70,-1,70,69,71,-1,70,71,72,-1,72,71,73,-1,72,73,74,-1,74,73,75,-1,74,75,76,-1,76,75,77,-1,76,77,78,-1,78,77,79,-1,78,79,80,-1,80,79,81,-1,80,81,82,-1,82,81,83,-1,84,85,83,-1,83,85,82,-1,86,85,84,-1,84,87,86,-1,86,87,88,-1,86,88,89,-1,89,88,90,-1,89,90,91,-1,91,90,92,-1,91,92,93,-1,93,92,94,-1,94,92,95,-1,94,95,96,-1,96,95,97,-1,96,97,98,-1,98,97,99,-1,98,99,100,-1,100,99,101,-1,100,101,102,-1,102,101,103,-1,102,103,104,-1,104,103,105,-1,104,105,106,-1,106,105,107,-1,106,107,108,-1,108,107,109,-1,108,109,110,-1,110,109,111,-1,110,111,112,-1,112,111,113,-1,112,113,114,-1,114,113,115,-1,114,115,116,-1,116,115,117,-1,116,117,118,-1,118,117,119,-1,118,119,120,-1,120,119,121,-1,120,121,122,-1,122,121,123,-1,122,123,124,-1,124,123,125,-1,124,125,126,-1,126,125,127,-1,126,127,128,-1,128,127,129,-1,128,129,130,-1,130,129,131,-1,130,131,132,-1,132,131,133,-1,132,133,134,-1,134,133,135,-1,134,135,136,-1,136,135,137,-1,136,137,138,-1,138,137,139,-1,138,139,140,-1,140,139,141,-1,140,141,142,-1,142,141,143,-1,142,143,144,-1,144,143,145,-1,144,145,146,-1,146,145,147,-1,146,147,148,-1,148,147,149,-1,148,149,150,-1,151,152,153,-1,153,152,150,-1,153,150,154,-1,154,150,149,-1,155,152,151,-1,151,156,155,-1,155,156,157,-1,155,157,158,-1,158,157,159,-1,158,159,160,-1,160,159,161,-1,160,161,162,-1,162,161,163,-1,162,163,164,-1,164,163,165,-1,166,167,165,-1,165,167,164,-1,167,166,168,-1,168,166,169,-1,168,169,170,-1,170,169,171,-1,170,171,172,-1,172,171,173,-1,172,173,174,-1,174,173,175,-1,174,175,16,-1,16,175,17,-1,167,168,164,-1,164,168,170,-1,164,170,162,-1,162,170,172,-1,162,172,160,-1,160,172,158,-1,158,172,174,-1,158,174,155,-1,155,174,16,-1,155,16,152,-1,152,16,15,-1,152,15,150,-1,31,138,12,-1,12,138,140,-1,12,140,13,-1,13,140,142,-1,13,142,23,-1,23,142,144,-1,23,144,25,-1,25,144,146,-1,25,146,27,-1,27,146,148,-1,27,148,28,-1,28,148,150,-1,28,150,20,-1,20,150,15,-1,120,122,34,-1,34,122,124,-1,34,124,36,-1,36,124,126,-1,36,126,38,-1,38,126,128,-1,38,128,40,-1,40,128,130,-1,40,130,42,-1,42,130,132,-1,42,132,43,-1,43,132,134,-1,43,134,31,-1,31,134,136,-1,31,136,138,-1,34,44,120,-1,120,44,46,-1,120,46,118,-1,118,46,48,-1,118,48,116,-1,116,48,50,-1,116,50,114,-1,114,50,52,-1,114,52,112,-1,112,52,54,-1,112,54,110,-1,110,54,56,-1,110,56,108,-1,108,56,58,-1,108,58,106,-1,106,58,60,-1,106,60,104,-1,104,60,62,-1,104,62,102,-1,102,62,64,-1,102,64,100,-1,100,64,66,-1,100,66,98,-1,98,66,68,-1,98,68,96,-1,96,68,70,-1,96,70,94,-1,94,70,72,-1,94,72,93,-1,93,72,74,-1,93,74,91,-1,91,74,76,-1,91,76,89,-1,89,76,78,-1,89,78,86,-1,86,78,80,-1,86,80,85,-1,85,80,82,-1,176,177,178,-1,178,177,179,-1,180,181,176,-1,176,181,177,-1,182,183,180,-1,180,183,181,-1,184,185,182,-1,182,185,183,-1,186,187,184,-1,184,187,185,-1,188,189,186,-1,186,189,187,-1,190,191,188,-1,188,191,189,-1,192,193,190,-1,190,193,191,-1,194,195,192,-1,192,195,193,-1,196,197,194,-1,194,197,195,-1,198,199,196,-1,196,199,197,-1,179,199,178,-1,178,199,198,-1,195,197,199,-1,199,179,195,-1,195,179,177,-1,195,177,193,-1,189,191,187,-1,187,191,193,-1,187,193,185,-1,185,193,177,-1,185,177,183,-1,183,177,181,-1,200,201,202,-1,202,201,203,-1,204,205,206,-1,206,205,207,-1,206,207,208,-1,208,207,209,-1,208,209,210,-1,209,211,210,-1,210,211,212,-1,210,212,213,-1,213,212,214,-1,201,200,215,-1,215,200,216,-1,215,216,217,-1,217,216,218,-1,217,218,219,-1,219,218,220,-1,219,220,221,-1,221,220,222,-1,221,222,223,-1,223,222,224,-1,223,224,225,-1,225,224,226,-1,225,226,227,-1,227,226,228,-1,227,228,229,-1,229,228,230,-1,229,230,231,-1,231,230,232,-1,231,232,214,-1,214,232,233,-1,214,233,213,-1,234,235,236,-1,236,237,234,-1,234,237,238,-1,234,238,239,-1,239,238,240,-1,205,204,241,-1,241,204,242,-1,241,242,243,-1,243,242,244,-1,243,244,245,-1,245,244,246,-1,245,246,247,-1,247,246,248,-1,247,248,249,-1,249,248,250,-1,249,250,251,-1,251,250,252,-1,251,252,253,-1,253,252,254,-1,253,254,255,-1,255,254,256,-1,255,256,257,-1,257,256,258,-1,257,258,259,-1,259,258,260,-1,259,260,261,-1,261,260,262,-1,261,262,240,-1,240,262,263,-1,240,263,239,-1,264,265,235,-1,235,265,236,-1,203,265,202,-1,202,265,264,-1,200,266,267,-1,200,267,216,-1,216,267,268,-1,216,268,218,-1,218,268,269,-1,218,269,220,-1,220,269,270,-1,220,270,222,-1,222,270,271,-1,222,271,224,-1,271,272,224,-1,224,272,273,-1,224,273,226,-1,226,273,274,-1,226,274,228,-1,228,274,275,-1,228,275,230,-1,230,275,276,-1,230,276,232,-1,232,276,277,-1,232,277,233,-1,233,277,278,-1,233,278,213,-1,213,278,279,-1,266,200,280,-1,280,200,202,-1,280,202,281,-1,281,202,264,-1,281,264,282,-1,282,264,235,-1,282,235,283,-1,235,234,283,-1,283,234,239,-1,283,239,284,-1,284,239,263,-1,284,263,285,-1,285,263,262,-1,285,262,286,-1,286,262,260,-1,286,260,287,-1,287,260,258,-1,287,258,288,-1,288,258,256,-1,288,256,289,-1,289,256,254,-1,289,254,290,-1,290,254,252,-1,290,252,291,-1,291,252,250,-1,291,250,292,-1,292,250,248,-1,292,248,293,-1,293,248,246,-1,293,246,294,-1,294,246,244,-1,294,244,295,-1,295,244,242,-1,295,242,296,-1,296,242,204,-1,296,204,297,-1,297,204,206,-1,297,206,298,-1,298,206,208,-1,298,208,279,-1,279,208,210,-1,279,210,213,-1,282,299,281,-1,281,299,300,-1,296,297,301,-1,301,302,296,-1,296,302,303,-1,296,303,295,-1,295,303,304,-1,295,304,294,-1,294,304,293,-1,293,304,305,-1,293,305,292,-1,292,305,306,-1,292,306,291,-1,291,306,307,-1,291,307,290,-1,290,307,308,-1,290,308,289,-1,308,309,289,-1,289,309,310,-1,289,310,288,-1,288,310,311,-1,299,282,312,-1,312,282,283,-1,312,283,313,-1,313,283,284,-1,313,284,314,-1,314,284,285,-1,314,285,315,-1,315,285,286,-1,315,286,311,-1,311,286,287,-1,311,287,288,-1,267,266,316,-1,316,317,267,-1,267,317,318,-1,267,318,268,-1,268,318,319,-1,301,297,320,-1,320,297,298,-1,320,298,321,-1,321,298,279,-1,321,279,322,-1,322,279,278,-1,322,278,323,-1,323,278,277,-1,323,277,324,-1,324,277,276,-1,324,276,325,-1,325,276,275,-1,325,275,326,-1,326,275,274,-1,326,274,327,-1,327,274,273,-1,327,273,328,-1,328,273,272,-1,328,272,329,-1,329,272,271,-1,329,271,330,-1,330,271,270,-1,330,270,319,-1,319,270,269,-1,319,269,268,-1,280,331,266,-1,266,331,316,-1,280,281,331,-1,331,281,300,-1,
        ]
    }
}
Shape{
    appearance Appearance {
        material  Material {
            diffuseColor 1.0 0.9294117647058824 0.6549019607843137
            specularColor 0.5019607843137255 0.4666666666666667 0.32941176470588235
            ambientIntensity 0.9192
            transparency 0.0
            shininess 0.5
        }
    }
    geometry IndexedFaceSet {
        ccw TRUE
        solid FALSE
        coord DEF co Coordinate {
            point [
                -1.0129 -0.0802 0.0422, -1.0427 -0.0146 0.0395, -1.0408 -0.0149 0.0395, -1.0346 -0.0172 0.0395, -1.0302 -0.0189 0.0395, -1.0282 -0.0204 0.0396, -1.023 -0.0241 0.0396, -1.0227 -0.0243 0.0396, -1.0183 -0.0296 0.0398, -1.0166 -0.0316 0.0398, -1.0146 -0.0358 0.0399, -1.0118 -0.0426 0.0402, -1.0123 -0.0406 0.0401, -1.0098 -0.0525 0.0406, -1.0097 -0.053 0.0406, -1.0119 -0.077 0.042, -1.0093 -0.0602 0.041, -1.0109 -0.0739 0.0418, -1.0112 -0.0756 0.0419, -1.0145 -0.0841 0.0425, -1.0726 -0.013 0.0394, -1.0559 -0.013 0.0394, -1.0161 -0.0864 0.0427, -1.0196 -0.0915 0.043, -1.0198 -0.0917 0.0431, -1.0242 -0.0955 0.0434, -1.0259 -0.0968 0.0435, -1.0305 -0.0992 0.0437, -1.0349 -0.1015 0.0439, -1.0376 -0.1021 0.0439, -1.0464 -0.1042 0.0441, -1.0479 -0.1045 0.0442, -1.0552 -0.105 0.0442, -1.0726 -0.105 0.0442
            ]
        }
        coordIndex [
            0,1,2,-1,2,3,0,-1,0,3,4,-1,0,4,5,-1,5,6,0,-1,0,6,7,-1,0,7,8,-1,8,9,0,-1,0,9,10,-1,0,10,11,-1,11,10,12,-1,13,14,15,-1,15,14,16,-1,15,16,17,-1,17,18,15,-1,15,18,0,-1,15,0,13,-1,13,0,11,-1,19,20,0,-1,0,20,21,-1,0,21,1,-1,19,22,20,-1,20,22,23,-1,20,23,24,-1,24,25,20,-1,20,25,26,-1,20,26,27,-1,27,28,20,-1,20,28,29,-1,20,29,30,-1,30,31,20,-1,20,31,32,-1,20,32,33,-1,
        ]
    }
}
Shape{
    appearance Appearance {
        material  Material {
            diffuseColor 0.792156862745098 0.8196078431372549 0.9333333333333333
            specularColor 0.396078431372549 0.4117647058823529 0.4666666666666667
            ambientIntensity 0.8244
            transparency 0.0
            shininess 0.5
        }
    }
    geometry IndexedFaceSet {
        ccw TRUE
        solid FALSE
        coord DEF co Coordinate {
            point [
                -0.9074 -0.0334 0.032, -0.9074 -0.0331 0.0399, -0.9015 -0.0167 0.0316, -0.8955 0.0 0.0394, -0.8955 0.0 0.0315, -0.9562 -0.0334 0.032, -0.9562 -0.0331 0.0399, -0.9675 0.0 0.0394, -0.9619 -0.0167 0.0316, -0.9675 0.0 0.0315, -0.9848 0.0 0.0315, -0.9848 0.0 0.0394, -0.9401 -0.1187 0.0376, -0.9401 -0.1179 0.0455, -0.9409 -0.1158 0.0453, -0.9625 -0.0594 0.033, -0.9243 -0.1187 0.0376, -0.9243 -0.1179 0.0455, -0.8782 0.0 0.0315, -0.8782 0.0 0.0394, -0.879 -0.0021 0.0394, -0.9012 -0.0594 0.033, -0.9522 -0.0464 0.0324, -0.9127 -0.0464 0.0324, -0.9434 -0.0712 0.0337, -0.9346 -0.096 0.0355, -0.9336 -0.0997 0.0358, -0.9326 -0.1043 0.0362, -0.9314 -0.0994 0.0358, -0.9305 -0.096 0.0355, -0.9216 -0.0712 0.0337, -0.9327 -0.1036 0.0441, -0.9305 -0.0953 0.0434, -0.9346 -0.0953 0.0434, -0.9522 -0.0461 0.0403, -0.9127 -0.0461 0.0403
            ]
        }
        coordIndex [
            0,1,2,-1,2,1,3,-1,2,3,4,-1,5,6,0,-1,0,6,1,-1,6,5,7,-1,7,5,8,-1,7,8,9,-1,10,11,9,-1,9,11,7,-1,12,13,14,-1,12,14,15,-1,15,14,11,-1,15,11,10,-1,16,17,12,-1,12,17,13,-1,18,19,20,-1,18,20,21,-1,21,20,17,-1,21,17,16,-1,3,19,4,-1,4,19,18,-1,2,4,18,-1,10,9,8,-1,22,5,23,-1,23,5,0,-1,8,5,10,-1,10,5,22,-1,10,22,15,-1,15,22,24,-1,15,24,12,-1,12,24,25,-1,25,26,12,-1,12,26,27,-1,12,27,16,-1,21,23,18,-1,18,23,0,-1,18,0,2,-1,27,28,16,-1,16,28,29,-1,16,29,21,-1,21,29,30,-1,21,30,23,-1,27,31,28,-1,28,31,32,-1,28,32,29,-1,25,33,26,-1,26,33,31,-1,26,31,27,-1,22,34,24,-1,24,34,33,-1,24,33,25,-1,23,35,22,-1,22,35,34,-1,29,32,30,-1,30,32,35,-1,30,35,23,-1,
        ]
    }
}
Shape{
    appearance Appearance {
        material  Material {
            diffuseColor 1.0 0.9294117647058824 0.6549019607843137
            specularColor 0.5019607843137255 0.4666666666666667 0.32941176470588235
            ambientIntensity 0.9192
            transparency 0.0
            shininess 0.5
        }
    }
    geometry IndexedFaceSet {
        ccw TRUE
        solid FALSE
        coord DEF co Coordinate {
            point [
                -0.9522 -0.0461 0.0403, -0.9127 -0.0461 0.0403, -0.9346 -0.0953 0.0434, -0.9305 -0.0953 0.0434, -0.9327 -0.1036 0.0441
            ]
        }
        coordIndex [
            0,1,2,-1,2,1,3,-1,2,3,4,-1,
        ]
    }
}