%TF.GenerationSoftware,KiCad,Pcbnew,10.0.6*%
%TF.CreationDate,2026-09-13T21:49:22+02:00*%
%TF.ProjectId,TEA2208,54454132-3230-4382-9e6b-696361645f70,rev?*%
%TF.SameCoordinates,Original*%
%TF.FileFunction,Copper,L4,Bot*%
%TF.FilePolarity,Positive*%
%FSLAX46Y46*%
G04 Gerber Fmt 4.6, Leading zero omitted, Abs format (unit mm)*
G04 Created by KiCad (PCBNEW 10.0.6) date 2026-09-13 21:49:22*
%MOMM*%
%LPD*%
G01*
G04 APERTURE LIST*
%TA.AperFunction,ComponentPad*%
%ADD10O,2.800000X2.200000*%
%TD*%
%TA.AperFunction,ComponentPad*%
%ADD11R,2.500000X2.500000*%
%TD*%
%TA.AperFunction,ComponentPad*%
%ADD12C,2.500000*%
%TD*%
%TA.AperFunction,ComponentPad*%
%ADD13C,1.800000*%
%TD*%
%TA.AperFunction,ViaPad*%
%ADD14C,0.508000*%
%TD*%
%TA.AperFunction,Conductor*%
%ADD15C,0.200000*%
%TD*%
%TA.AperFunction,Conductor*%
%ADD16C,0.400000*%
%TD*%
%TA.AperFunction,Conductor*%
%ADD17C,1.000000*%
%TD*%
G04 APERTURE END LIST*
D10*
%TO.P,U3,1,G_1*%
%TO.N,Net-(U1-GATELL)*%
X228540000Y-118290000D03*
%TO.P,U3,2,D_2*%
%TO.N,Net-(U1-L)*%
X223100000Y-118290000D03*
%TO.P,U3,3,S_3*%
%TO.N,GND*%
X217660000Y-118290000D03*
%TD*%
D11*
%TO.P,L1,1,1_1*%
%TO.N,Net-(J1-Pin_1)*%
X204225000Y-105990000D03*
D12*
%TO.P,L1,2,2_2*%
%TO.N,Net-(U1-R)*%
X213225000Y-105990000D03*
%TO.P,L1,3,3_3*%
%TO.N,Net-(U1-L)*%
X213225000Y-113990000D03*
%TO.P,L1,4,4_4*%
%TO.N,Net-(J1-Pin_2)*%
X204225000Y-113990000D03*
%TD*%
D13*
%TO.P,J2,1,Pin_1_1*%
%TO.N,/VR*%
X261800000Y-112580000D03*
%TO.P,J2,2,Pin_2_2*%
%TO.N,GND*%
X261800000Y-107500000D03*
%TD*%
D10*
%TO.P,U4,1,G_1*%
%TO.N,Net-(U1-GATELR)*%
X234560000Y-101770000D03*
%TO.P,U4,2,D_2*%
%TO.N,Net-(U1-R)*%
X240000000Y-101770000D03*
%TO.P,U4,3,S_3*%
%TO.N,GND*%
X245440000Y-101770000D03*
%TD*%
D13*
%TO.P,J1,1,Pin_1_1*%
%TO.N,Net-(J1-Pin_1)*%
X195870000Y-107450000D03*
%TO.P,J1,2,Pin_2_2*%
%TO.N,Net-(J1-Pin_2)*%
X195870000Y-112530000D03*
%TD*%
D10*
%TO.P,U5,1,G_1*%
%TO.N,Net-(U1-GATEHR)*%
X234640000Y-118768000D03*
%TO.P,U5,2,D_2*%
%TO.N,/VR*%
X240080000Y-118768000D03*
%TO.P,U5,3,S_3*%
%TO.N,Net-(U1-R)*%
X245520000Y-118768000D03*
%TD*%
%TO.P,U2,1,G_1*%
%TO.N,Net-(U1-GATEHL)*%
X217600000Y-101718000D03*
%TO.P,U2,2,D_2*%
%TO.N,/VR*%
X223040000Y-101718000D03*
%TO.P,U2,3,S_3*%
%TO.N,Net-(U1-L)*%
X228480000Y-101718000D03*
%TD*%
D14*
%TO.N,GND*%
X226550000Y-104630000D03*
X237120000Y-109860000D03*
X233090000Y-105590000D03*
%TO.N,Net-(U1-L)*%
X229757500Y-112520000D03*
X237370000Y-111370000D03*
%TO.N,Net-(U1-GATEHL)*%
X230870000Y-111510000D03*
%TO.N,Net-(U1-GATELR)*%
X227560000Y-105490000D03*
%TO.N,Net-(U1-R)*%
X240000000Y-107970000D03*
X225370000Y-107990000D03*
%TO.N,Net-(U1-GATEHR)*%
X225390000Y-111480000D03*
%TO.N,/VR*%
X223040000Y-107380000D03*
X224360000Y-113990000D03*
%TD*%
%TO.N,Net-(U1-L)*%
D15*
X229857500Y-112620000D02*
X229757500Y-112520000D01*
D16*
X236120000Y-112620000D02*
X229857500Y-112620000D01*
X237370000Y-111370000D02*
X236120000Y-112620000D01*
%TO.N,Net-(U1-GATEHL)*%
X224516000Y-109626000D02*
X223940000Y-109050000D01*
X218650792Y-101718000D02*
X218509371Y-101718000D01*
D15*
X218509371Y-101718000D02*
X217600000Y-101718000D01*
D16*
X228041952Y-111510000D02*
X226157952Y-109626000D01*
X230870000Y-111510000D02*
X228041952Y-111510000D01*
X226157952Y-109626000D02*
X224516000Y-109626000D01*
X223940000Y-107007208D02*
X218650792Y-101718000D01*
X223940000Y-109050000D02*
X223940000Y-107007208D01*
%TO.N,Net-(U1-GATELR)*%
X231280000Y-101770000D02*
X234560000Y-101770000D01*
X227560000Y-105490000D02*
X231280000Y-101770000D01*
%TO.N,Net-(U1-R)*%
D17*
X239980000Y-107990000D02*
X240000000Y-107970000D01*
X225370000Y-107990000D02*
X239980000Y-107990000D01*
%TO.N,Net-(U1-GATEHR)*%
D16*
X234640000Y-118768000D02*
X232754368Y-118768000D01*
X225466368Y-111480000D02*
X225390000Y-111480000D01*
X232754368Y-118768000D02*
X225466368Y-111480000D01*
%TO.N,/VR*%
D17*
X246268000Y-112580000D02*
X261800000Y-112580000D01*
X225785160Y-110526000D02*
X231579160Y-116320000D01*
X231579160Y-116320000D02*
X237632000Y-116320000D01*
X223204000Y-110526000D02*
X225785160Y-110526000D01*
X223040000Y-110690000D02*
X223204000Y-110526000D01*
X223040000Y-107380000D02*
X223040000Y-110690000D01*
X240080000Y-118768000D02*
X246268000Y-112580000D01*
X223040000Y-107380000D02*
X223040000Y-112670000D01*
X237632000Y-116320000D02*
X240080000Y-118768000D01*
X223040000Y-112670000D02*
X224360000Y-113990000D01*
%TD*%
M02*
