%TF.GenerationSoftware,KiCad,Pcbnew,10.0.6*%
%TF.CreationDate,2026-09-13T21:49:22+02:00*%
%TF.ProjectId,TEA2208,54454132-3230-4382-9e6b-696361645f70,rev?*%
%TF.SameCoordinates,Original*%
%TF.FileFunction,Legend,Bot*%
%TF.FilePolarity,Positive*%
%FSLAX46Y46*%
G04 Gerber Fmt 4.6, Leading zero omitted, Abs format (unit mm)*
G04 Created by KiCad (PCBNEW 10.0.6) date 2026-09-13 21:49:22*
%MOMM*%
%LPD*%
G01*
G04 APERTURE LIST*
G04 APERTURE END LIST*
%LPC*%
G36*
X235026305Y-117671391D02*
G01*
X235196790Y-117698393D01*
X235360952Y-117751733D01*
X235514748Y-117830096D01*
X235654393Y-117931553D01*
X235776447Y-118053607D01*
X235877904Y-118193252D01*
X235956267Y-118347048D01*
X236009607Y-118511210D01*
X236036609Y-118681695D01*
X236036609Y-118854305D01*
X236009607Y-119024790D01*
X235956267Y-119188952D01*
X235877904Y-119342748D01*
X235776447Y-119482393D01*
X235654393Y-119604447D01*
X235514748Y-119705904D01*
X235360952Y-119784267D01*
X235196790Y-119837607D01*
X235026305Y-119864609D01*
X234940000Y-119868000D01*
X234939030Y-119868000D01*
X234340970Y-119868000D01*
X234340000Y-119868000D01*
X234253695Y-119864609D01*
X234083210Y-119837607D01*
X233919048Y-119784267D01*
X233765252Y-119705904D01*
X233625607Y-119604447D01*
X233503553Y-119482393D01*
X233402096Y-119342748D01*
X233323733Y-119188952D01*
X233270393Y-119024790D01*
X233243391Y-118854305D01*
X233243391Y-118681695D01*
X233270393Y-118511210D01*
X233323733Y-118347048D01*
X233402096Y-118193252D01*
X233503553Y-118053607D01*
X233625607Y-117931553D01*
X233765252Y-117830096D01*
X233919048Y-117751733D01*
X234083210Y-117698393D01*
X234253695Y-117671391D01*
X234340000Y-117668000D01*
X234940000Y-117668000D01*
X235026305Y-117671391D01*
G37*
G36*
X240466305Y-117671391D02*
G01*
X240636790Y-117698393D01*
X240800952Y-117751733D01*
X240954748Y-117830096D01*
X241094393Y-117931553D01*
X241216447Y-118053607D01*
X241317904Y-118193252D01*
X241396267Y-118347048D01*
X241449607Y-118511210D01*
X241476609Y-118681695D01*
X241476609Y-118854305D01*
X241449607Y-119024790D01*
X241396267Y-119188952D01*
X241317904Y-119342748D01*
X241216447Y-119482393D01*
X241094393Y-119604447D01*
X240954748Y-119705904D01*
X240800952Y-119784267D01*
X240636790Y-119837607D01*
X240466305Y-119864609D01*
X240380000Y-119868000D01*
X240379030Y-119868000D01*
X239780970Y-119868000D01*
X239780000Y-119868000D01*
X239693695Y-119864609D01*
X239523210Y-119837607D01*
X239359048Y-119784267D01*
X239205252Y-119705904D01*
X239065607Y-119604447D01*
X238943553Y-119482393D01*
X238842096Y-119342748D01*
X238763733Y-119188952D01*
X238710393Y-119024790D01*
X238683391Y-118854305D01*
X238683391Y-118681695D01*
X238710393Y-118511210D01*
X238763733Y-118347048D01*
X238842096Y-118193252D01*
X238943553Y-118053607D01*
X239065607Y-117931553D01*
X239205252Y-117830096D01*
X239359048Y-117751733D01*
X239523210Y-117698393D01*
X239693695Y-117671391D01*
X239780000Y-117668000D01*
X240380000Y-117668000D01*
X240466305Y-117671391D01*
G37*
G36*
X245906305Y-117671391D02*
G01*
X246076790Y-117698393D01*
X246240952Y-117751733D01*
X246394748Y-117830096D01*
X246534393Y-117931553D01*
X246656447Y-118053607D01*
X246757904Y-118193252D01*
X246836267Y-118347048D01*
X246889607Y-118511210D01*
X246916609Y-118681695D01*
X246916609Y-118854305D01*
X246889607Y-119024790D01*
X246836267Y-119188952D01*
X246757904Y-119342748D01*
X246656447Y-119482393D01*
X246534393Y-119604447D01*
X246394748Y-119705904D01*
X246240952Y-119784267D01*
X246076790Y-119837607D01*
X245906305Y-119864609D01*
X245820000Y-119868000D01*
X245819030Y-119868000D01*
X245220970Y-119868000D01*
X245220000Y-119868000D01*
X245133695Y-119864609D01*
X244963210Y-119837607D01*
X244799048Y-119784267D01*
X244645252Y-119705904D01*
X244505607Y-119604447D01*
X244383553Y-119482393D01*
X244282096Y-119342748D01*
X244203733Y-119188952D01*
X244150393Y-119024790D01*
X244123391Y-118854305D01*
X244123391Y-118681695D01*
X244150393Y-118511210D01*
X244203733Y-118347048D01*
X244282096Y-118193252D01*
X244383553Y-118053607D01*
X244505607Y-117931553D01*
X244645252Y-117830096D01*
X244799048Y-117751733D01*
X244963210Y-117698393D01*
X245133695Y-117671391D01*
X245220000Y-117668000D01*
X245820000Y-117668000D01*
X245906305Y-117671391D01*
G37*
G36*
X218046305Y-117193391D02*
G01*
X218216790Y-117220393D01*
X218380952Y-117273733D01*
X218534748Y-117352096D01*
X218674393Y-117453553D01*
X218796447Y-117575607D01*
X218897904Y-117715252D01*
X218976267Y-117869048D01*
X219029607Y-118033210D01*
X219056609Y-118203695D01*
X219056609Y-118376305D01*
X219029607Y-118546790D01*
X218976267Y-118710952D01*
X218897904Y-118864748D01*
X218796447Y-119004393D01*
X218674393Y-119126447D01*
X218534748Y-119227904D01*
X218380952Y-119306267D01*
X218216790Y-119359607D01*
X218046305Y-119386609D01*
X217960000Y-119390000D01*
X217959030Y-119390000D01*
X217360970Y-119390000D01*
X217360000Y-119390000D01*
X217273695Y-119386609D01*
X217103210Y-119359607D01*
X216939048Y-119306267D01*
X216785252Y-119227904D01*
X216645607Y-119126447D01*
X216523553Y-119004393D01*
X216422096Y-118864748D01*
X216343733Y-118710952D01*
X216290393Y-118546790D01*
X216263391Y-118376305D01*
X216263391Y-118203695D01*
X216290393Y-118033210D01*
X216343733Y-117869048D01*
X216422096Y-117715252D01*
X216523553Y-117575607D01*
X216645607Y-117453553D01*
X216785252Y-117352096D01*
X216939048Y-117273733D01*
X217103210Y-117220393D01*
X217273695Y-117193391D01*
X217360000Y-117190000D01*
X217960000Y-117190000D01*
X218046305Y-117193391D01*
G37*
G36*
X223486305Y-117193391D02*
G01*
X223656790Y-117220393D01*
X223820952Y-117273733D01*
X223974748Y-117352096D01*
X224114393Y-117453553D01*
X224236447Y-117575607D01*
X224337904Y-117715252D01*
X224416267Y-117869048D01*
X224469607Y-118033210D01*
X224496609Y-118203695D01*
X224496609Y-118376305D01*
X224469607Y-118546790D01*
X224416267Y-118710952D01*
X224337904Y-118864748D01*
X224236447Y-119004393D01*
X224114393Y-119126447D01*
X223974748Y-119227904D01*
X223820952Y-119306267D01*
X223656790Y-119359607D01*
X223486305Y-119386609D01*
X223400000Y-119390000D01*
X223399030Y-119390000D01*
X222800970Y-119390000D01*
X222800000Y-119390000D01*
X222713695Y-119386609D01*
X222543210Y-119359607D01*
X222379048Y-119306267D01*
X222225252Y-119227904D01*
X222085607Y-119126447D01*
X221963553Y-119004393D01*
X221862096Y-118864748D01*
X221783733Y-118710952D01*
X221730393Y-118546790D01*
X221703391Y-118376305D01*
X221703391Y-118203695D01*
X221730393Y-118033210D01*
X221783733Y-117869048D01*
X221862096Y-117715252D01*
X221963553Y-117575607D01*
X222085607Y-117453553D01*
X222225252Y-117352096D01*
X222379048Y-117273733D01*
X222543210Y-117220393D01*
X222713695Y-117193391D01*
X222800000Y-117190000D01*
X223400000Y-117190000D01*
X223486305Y-117193391D01*
G37*
G36*
X228926305Y-117193391D02*
G01*
X229096790Y-117220393D01*
X229260952Y-117273733D01*
X229414748Y-117352096D01*
X229554393Y-117453553D01*
X229676447Y-117575607D01*
X229777904Y-117715252D01*
X229856267Y-117869048D01*
X229909607Y-118033210D01*
X229936609Y-118203695D01*
X229936609Y-118376305D01*
X229909607Y-118546790D01*
X229856267Y-118710952D01*
X229777904Y-118864748D01*
X229676447Y-119004393D01*
X229554393Y-119126447D01*
X229414748Y-119227904D01*
X229260952Y-119306267D01*
X229096790Y-119359607D01*
X228926305Y-119386609D01*
X228840000Y-119390000D01*
X228839030Y-119390000D01*
X228240970Y-119390000D01*
X228240000Y-119390000D01*
X228153695Y-119386609D01*
X227983210Y-119359607D01*
X227819048Y-119306267D01*
X227665252Y-119227904D01*
X227525607Y-119126447D01*
X227403553Y-119004393D01*
X227302096Y-118864748D01*
X227223733Y-118710952D01*
X227170393Y-118546790D01*
X227143391Y-118376305D01*
X227143391Y-118203695D01*
X227170393Y-118033210D01*
X227223733Y-117869048D01*
X227302096Y-117715252D01*
X227403553Y-117575607D01*
X227525607Y-117453553D01*
X227665252Y-117352096D01*
X227819048Y-117273733D01*
X227983210Y-117220393D01*
X228153695Y-117193391D01*
X228240000Y-117190000D01*
X228840000Y-117190000D01*
X228926305Y-117193391D01*
G37*
G36*
X204516807Y-112774538D02*
G01*
X204703354Y-112835151D01*
X204878123Y-112924200D01*
X205036810Y-113039493D01*
X205175507Y-113178190D01*
X205290800Y-113336877D01*
X205379849Y-113511646D01*
X205440462Y-113698193D01*
X205471147Y-113891926D01*
X205471147Y-114088074D01*
X205440462Y-114281807D01*
X205379849Y-114468354D01*
X205290800Y-114643123D01*
X205175507Y-114801810D01*
X205036810Y-114940507D01*
X204878123Y-115055800D01*
X204703354Y-115144849D01*
X204516807Y-115205462D01*
X204323074Y-115236147D01*
X204126926Y-115236147D01*
X203933193Y-115205462D01*
X203746646Y-115144849D01*
X203571877Y-115055800D01*
X203413190Y-114940507D01*
X203274493Y-114801810D01*
X203159200Y-114643123D01*
X203070151Y-114468354D01*
X203009538Y-114281807D01*
X202978853Y-114088074D01*
X202978853Y-113891926D01*
X203009538Y-113698193D01*
X203070151Y-113511646D01*
X203159200Y-113336877D01*
X203274493Y-113178190D01*
X203413190Y-113039493D01*
X203571877Y-112924200D01*
X203746646Y-112835151D01*
X203933193Y-112774538D01*
X204126926Y-112743853D01*
X204323074Y-112743853D01*
X204516807Y-112774538D01*
G37*
G36*
X213516807Y-112774538D02*
G01*
X213703354Y-112835151D01*
X213878123Y-112924200D01*
X214036810Y-113039493D01*
X214175507Y-113178190D01*
X214290800Y-113336877D01*
X214379849Y-113511646D01*
X214440462Y-113698193D01*
X214471147Y-113891926D01*
X214471147Y-114088074D01*
X214440462Y-114281807D01*
X214379849Y-114468354D01*
X214290800Y-114643123D01*
X214175507Y-114801810D01*
X214036810Y-114940507D01*
X213878123Y-115055800D01*
X213703354Y-115144849D01*
X213516807Y-115205462D01*
X213323074Y-115236147D01*
X213126926Y-115236147D01*
X212933193Y-115205462D01*
X212746646Y-115144849D01*
X212571877Y-115055800D01*
X212413190Y-114940507D01*
X212274493Y-114801810D01*
X212159200Y-114643123D01*
X212070151Y-114468354D01*
X212009538Y-114281807D01*
X211978853Y-114088074D01*
X211978853Y-113891926D01*
X212009538Y-113698193D01*
X212070151Y-113511646D01*
X212159200Y-113336877D01*
X212274493Y-113178190D01*
X212413190Y-113039493D01*
X212571877Y-112924200D01*
X212746646Y-112835151D01*
X212933193Y-112774538D01*
X213126926Y-112743853D01*
X213323074Y-112743853D01*
X213516807Y-112774538D01*
G37*
G36*
X262061256Y-111718754D02*
G01*
X262224257Y-111786271D01*
X262370954Y-111884291D01*
X262495709Y-112009046D01*
X262593729Y-112155743D01*
X262661246Y-112318744D01*
X262695666Y-112491785D01*
X262695666Y-112668215D01*
X262661246Y-112841256D01*
X262593729Y-113004257D01*
X262495709Y-113150954D01*
X262370954Y-113275709D01*
X262224257Y-113373729D01*
X262061256Y-113441246D01*
X261888215Y-113475666D01*
X261711785Y-113475666D01*
X261538744Y-113441246D01*
X261375743Y-113373729D01*
X261229046Y-113275709D01*
X261104291Y-113150954D01*
X261006271Y-113004257D01*
X260938754Y-112841256D01*
X260904334Y-112668215D01*
X260904334Y-112491785D01*
X260938754Y-112318744D01*
X261006271Y-112155743D01*
X261104291Y-112009046D01*
X261229046Y-111884291D01*
X261375743Y-111786271D01*
X261538744Y-111718754D01*
X261711785Y-111684334D01*
X261888215Y-111684334D01*
X262061256Y-111718754D01*
G37*
G36*
X196131256Y-111668754D02*
G01*
X196294257Y-111736271D01*
X196440954Y-111834291D01*
X196565709Y-111959046D01*
X196663729Y-112105743D01*
X196731246Y-112268744D01*
X196765666Y-112441785D01*
X196765666Y-112618215D01*
X196731246Y-112791256D01*
X196663729Y-112954257D01*
X196565709Y-113100954D01*
X196440954Y-113225709D01*
X196294257Y-113323729D01*
X196131256Y-113391246D01*
X195958215Y-113425666D01*
X195781785Y-113425666D01*
X195608744Y-113391246D01*
X195445743Y-113323729D01*
X195299046Y-113225709D01*
X195174291Y-113100954D01*
X195076271Y-112954257D01*
X195008754Y-112791256D01*
X194974334Y-112618215D01*
X194974334Y-112441785D01*
X195008754Y-112268744D01*
X195076271Y-112105743D01*
X195174291Y-111959046D01*
X195299046Y-111834291D01*
X195445743Y-111736271D01*
X195608744Y-111668754D01*
X195781785Y-111634334D01*
X195958215Y-111634334D01*
X196131256Y-111668754D01*
G37*
G36*
X262061256Y-106638754D02*
G01*
X262224257Y-106706271D01*
X262370954Y-106804291D01*
X262495709Y-106929046D01*
X262593729Y-107075743D01*
X262661246Y-107238744D01*
X262695666Y-107411785D01*
X262695666Y-107588215D01*
X262661246Y-107761256D01*
X262593729Y-107924257D01*
X262495709Y-108070954D01*
X262370954Y-108195709D01*
X262224257Y-108293729D01*
X262061256Y-108361246D01*
X261888215Y-108395666D01*
X261711785Y-108395666D01*
X261538744Y-108361246D01*
X261375743Y-108293729D01*
X261229046Y-108195709D01*
X261104291Y-108070954D01*
X261006271Y-107924257D01*
X260938754Y-107761256D01*
X260904334Y-107588215D01*
X260904334Y-107411785D01*
X260938754Y-107238744D01*
X261006271Y-107075743D01*
X261104291Y-106929046D01*
X261229046Y-106804291D01*
X261375743Y-106706271D01*
X261538744Y-106638754D01*
X261711785Y-106604334D01*
X261888215Y-106604334D01*
X262061256Y-106638754D01*
G37*
G36*
X196131256Y-106588754D02*
G01*
X196294257Y-106656271D01*
X196440954Y-106754291D01*
X196565709Y-106879046D01*
X196663729Y-107025743D01*
X196731246Y-107188744D01*
X196765666Y-107361785D01*
X196765666Y-107538215D01*
X196731246Y-107711256D01*
X196663729Y-107874257D01*
X196565709Y-108020954D01*
X196440954Y-108145709D01*
X196294257Y-108243729D01*
X196131256Y-108311246D01*
X195958215Y-108345666D01*
X195781785Y-108345666D01*
X195608744Y-108311246D01*
X195445743Y-108243729D01*
X195299046Y-108145709D01*
X195174291Y-108020954D01*
X195076271Y-107874257D01*
X195008754Y-107711256D01*
X194974334Y-107538215D01*
X194974334Y-107361785D01*
X195008754Y-107188744D01*
X195076271Y-107025743D01*
X195174291Y-106879046D01*
X195299046Y-106754291D01*
X195445743Y-106656271D01*
X195608744Y-106588754D01*
X195781785Y-106554334D01*
X195958215Y-106554334D01*
X196131256Y-106588754D01*
G37*
G36*
X205475000Y-107240000D02*
G01*
X202975000Y-107240000D01*
X202975000Y-104740000D01*
X205475000Y-104740000D01*
X205475000Y-107240000D01*
G37*
G36*
X213516807Y-104774538D02*
G01*
X213703354Y-104835151D01*
X213878123Y-104924200D01*
X214036810Y-105039493D01*
X214175507Y-105178190D01*
X214290800Y-105336877D01*
X214379849Y-105511646D01*
X214440462Y-105698193D01*
X214471147Y-105891926D01*
X214471147Y-106088074D01*
X214440462Y-106281807D01*
X214379849Y-106468354D01*
X214290800Y-106643123D01*
X214175507Y-106801810D01*
X214036810Y-106940507D01*
X213878123Y-107055800D01*
X213703354Y-107144849D01*
X213516807Y-107205462D01*
X213323074Y-107236147D01*
X213126926Y-107236147D01*
X212933193Y-107205462D01*
X212746646Y-107144849D01*
X212571877Y-107055800D01*
X212413190Y-106940507D01*
X212274493Y-106801810D01*
X212159200Y-106643123D01*
X212070151Y-106468354D01*
X212009538Y-106281807D01*
X211978853Y-106088074D01*
X211978853Y-105891926D01*
X212009538Y-105698193D01*
X212070151Y-105511646D01*
X212159200Y-105336877D01*
X212274493Y-105178190D01*
X212413190Y-105039493D01*
X212571877Y-104924200D01*
X212746646Y-104835151D01*
X212933193Y-104774538D01*
X213126926Y-104743853D01*
X213323074Y-104743853D01*
X213516807Y-104774538D01*
G37*
G36*
X234946305Y-100673391D02*
G01*
X235116790Y-100700393D01*
X235280952Y-100753733D01*
X235434748Y-100832096D01*
X235574393Y-100933553D01*
X235696447Y-101055607D01*
X235797904Y-101195252D01*
X235876267Y-101349048D01*
X235929607Y-101513210D01*
X235956609Y-101683695D01*
X235956609Y-101856305D01*
X235929607Y-102026790D01*
X235876267Y-102190952D01*
X235797904Y-102344748D01*
X235696447Y-102484393D01*
X235574393Y-102606447D01*
X235434748Y-102707904D01*
X235280952Y-102786267D01*
X235116790Y-102839607D01*
X234946305Y-102866609D01*
X234860000Y-102870000D01*
X234859030Y-102870000D01*
X234260970Y-102870000D01*
X234260000Y-102870000D01*
X234173695Y-102866609D01*
X234003210Y-102839607D01*
X233839048Y-102786267D01*
X233685252Y-102707904D01*
X233545607Y-102606447D01*
X233423553Y-102484393D01*
X233322096Y-102344748D01*
X233243733Y-102190952D01*
X233190393Y-102026790D01*
X233163391Y-101856305D01*
X233163391Y-101683695D01*
X233190393Y-101513210D01*
X233243733Y-101349048D01*
X233322096Y-101195252D01*
X233423553Y-101055607D01*
X233545607Y-100933553D01*
X233685252Y-100832096D01*
X233839048Y-100753733D01*
X234003210Y-100700393D01*
X234173695Y-100673391D01*
X234260000Y-100670000D01*
X234860000Y-100670000D01*
X234946305Y-100673391D01*
G37*
G36*
X240386305Y-100673391D02*
G01*
X240556790Y-100700393D01*
X240720952Y-100753733D01*
X240874748Y-100832096D01*
X241014393Y-100933553D01*
X241136447Y-101055607D01*
X241237904Y-101195252D01*
X241316267Y-101349048D01*
X241369607Y-101513210D01*
X241396609Y-101683695D01*
X241396609Y-101856305D01*
X241369607Y-102026790D01*
X241316267Y-102190952D01*
X241237904Y-102344748D01*
X241136447Y-102484393D01*
X241014393Y-102606447D01*
X240874748Y-102707904D01*
X240720952Y-102786267D01*
X240556790Y-102839607D01*
X240386305Y-102866609D01*
X240300000Y-102870000D01*
X240299030Y-102870000D01*
X239700970Y-102870000D01*
X239700000Y-102870000D01*
X239613695Y-102866609D01*
X239443210Y-102839607D01*
X239279048Y-102786267D01*
X239125252Y-102707904D01*
X238985607Y-102606447D01*
X238863553Y-102484393D01*
X238762096Y-102344748D01*
X238683733Y-102190952D01*
X238630393Y-102026790D01*
X238603391Y-101856305D01*
X238603391Y-101683695D01*
X238630393Y-101513210D01*
X238683733Y-101349048D01*
X238762096Y-101195252D01*
X238863553Y-101055607D01*
X238985607Y-100933553D01*
X239125252Y-100832096D01*
X239279048Y-100753733D01*
X239443210Y-100700393D01*
X239613695Y-100673391D01*
X239700000Y-100670000D01*
X240300000Y-100670000D01*
X240386305Y-100673391D01*
G37*
G36*
X245826305Y-100673391D02*
G01*
X245996790Y-100700393D01*
X246160952Y-100753733D01*
X246314748Y-100832096D01*
X246454393Y-100933553D01*
X246576447Y-101055607D01*
X246677904Y-101195252D01*
X246756267Y-101349048D01*
X246809607Y-101513210D01*
X246836609Y-101683695D01*
X246836609Y-101856305D01*
X246809607Y-102026790D01*
X246756267Y-102190952D01*
X246677904Y-102344748D01*
X246576447Y-102484393D01*
X246454393Y-102606447D01*
X246314748Y-102707904D01*
X246160952Y-102786267D01*
X245996790Y-102839607D01*
X245826305Y-102866609D01*
X245740000Y-102870000D01*
X245739030Y-102870000D01*
X245140970Y-102870000D01*
X245140000Y-102870000D01*
X245053695Y-102866609D01*
X244883210Y-102839607D01*
X244719048Y-102786267D01*
X244565252Y-102707904D01*
X244425607Y-102606447D01*
X244303553Y-102484393D01*
X244202096Y-102344748D01*
X244123733Y-102190952D01*
X244070393Y-102026790D01*
X244043391Y-101856305D01*
X244043391Y-101683695D01*
X244070393Y-101513210D01*
X244123733Y-101349048D01*
X244202096Y-101195252D01*
X244303553Y-101055607D01*
X244425607Y-100933553D01*
X244565252Y-100832096D01*
X244719048Y-100753733D01*
X244883210Y-100700393D01*
X245053695Y-100673391D01*
X245140000Y-100670000D01*
X245740000Y-100670000D01*
X245826305Y-100673391D01*
G37*
G36*
X217986305Y-100621391D02*
G01*
X218156790Y-100648393D01*
X218320952Y-100701733D01*
X218474748Y-100780096D01*
X218614393Y-100881553D01*
X218736447Y-101003607D01*
X218837904Y-101143252D01*
X218916267Y-101297048D01*
X218969607Y-101461210D01*
X218996609Y-101631695D01*
X218996609Y-101804305D01*
X218969607Y-101974790D01*
X218916267Y-102138952D01*
X218837904Y-102292748D01*
X218736447Y-102432393D01*
X218614393Y-102554447D01*
X218474748Y-102655904D01*
X218320952Y-102734267D01*
X218156790Y-102787607D01*
X217986305Y-102814609D01*
X217900000Y-102818000D01*
X217899030Y-102818000D01*
X217300970Y-102818000D01*
X217300000Y-102818000D01*
X217213695Y-102814609D01*
X217043210Y-102787607D01*
X216879048Y-102734267D01*
X216725252Y-102655904D01*
X216585607Y-102554447D01*
X216463553Y-102432393D01*
X216362096Y-102292748D01*
X216283733Y-102138952D01*
X216230393Y-101974790D01*
X216203391Y-101804305D01*
X216203391Y-101631695D01*
X216230393Y-101461210D01*
X216283733Y-101297048D01*
X216362096Y-101143252D01*
X216463553Y-101003607D01*
X216585607Y-100881553D01*
X216725252Y-100780096D01*
X216879048Y-100701733D01*
X217043210Y-100648393D01*
X217213695Y-100621391D01*
X217300000Y-100618000D01*
X217900000Y-100618000D01*
X217986305Y-100621391D01*
G37*
G36*
X223426305Y-100621391D02*
G01*
X223596790Y-100648393D01*
X223760952Y-100701733D01*
X223914748Y-100780096D01*
X224054393Y-100881553D01*
X224176447Y-101003607D01*
X224277904Y-101143252D01*
X224356267Y-101297048D01*
X224409607Y-101461210D01*
X224436609Y-101631695D01*
X224436609Y-101804305D01*
X224409607Y-101974790D01*
X224356267Y-102138952D01*
X224277904Y-102292748D01*
X224176447Y-102432393D01*
X224054393Y-102554447D01*
X223914748Y-102655904D01*
X223760952Y-102734267D01*
X223596790Y-102787607D01*
X223426305Y-102814609D01*
X223340000Y-102818000D01*
X223339030Y-102818000D01*
X222740970Y-102818000D01*
X222740000Y-102818000D01*
X222653695Y-102814609D01*
X222483210Y-102787607D01*
X222319048Y-102734267D01*
X222165252Y-102655904D01*
X222025607Y-102554447D01*
X221903553Y-102432393D01*
X221802096Y-102292748D01*
X221723733Y-102138952D01*
X221670393Y-101974790D01*
X221643391Y-101804305D01*
X221643391Y-101631695D01*
X221670393Y-101461210D01*
X221723733Y-101297048D01*
X221802096Y-101143252D01*
X221903553Y-101003607D01*
X222025607Y-100881553D01*
X222165252Y-100780096D01*
X222319048Y-100701733D01*
X222483210Y-100648393D01*
X222653695Y-100621391D01*
X222740000Y-100618000D01*
X223340000Y-100618000D01*
X223426305Y-100621391D01*
G37*
G36*
X228866305Y-100621391D02*
G01*
X229036790Y-100648393D01*
X229200952Y-100701733D01*
X229354748Y-100780096D01*
X229494393Y-100881553D01*
X229616447Y-101003607D01*
X229717904Y-101143252D01*
X229796267Y-101297048D01*
X229849607Y-101461210D01*
X229876609Y-101631695D01*
X229876609Y-101804305D01*
X229849607Y-101974790D01*
X229796267Y-102138952D01*
X229717904Y-102292748D01*
X229616447Y-102432393D01*
X229494393Y-102554447D01*
X229354748Y-102655904D01*
X229200952Y-102734267D01*
X229036790Y-102787607D01*
X228866305Y-102814609D01*
X228780000Y-102818000D01*
X228779030Y-102818000D01*
X228180970Y-102818000D01*
X228180000Y-102818000D01*
X228093695Y-102814609D01*
X227923210Y-102787607D01*
X227759048Y-102734267D01*
X227605252Y-102655904D01*
X227465607Y-102554447D01*
X227343553Y-102432393D01*
X227242096Y-102292748D01*
X227163733Y-102138952D01*
X227110393Y-101974790D01*
X227083391Y-101804305D01*
X227083391Y-101631695D01*
X227110393Y-101461210D01*
X227163733Y-101297048D01*
X227242096Y-101143252D01*
X227343553Y-101003607D01*
X227465607Y-100881553D01*
X227605252Y-100780096D01*
X227759048Y-100701733D01*
X227923210Y-100648393D01*
X228093695Y-100621391D01*
X228180000Y-100618000D01*
X228780000Y-100618000D01*
X228866305Y-100621391D01*
G37*
%LPD*%
M02*
