%TF.GenerationSoftware,KiCad,Pcbnew,10.0.6*%
%TF.CreationDate,2026-09-13T21:49:22+02:00*%
%TF.ProjectId,TEA2208,54454132-3230-4382-9e6b-696361645f70,rev?*%
%TF.SameCoordinates,Original*%
%TF.FileFunction,Copper,L1,Top*%
%TF.FilePolarity,Positive*%
%FSLAX46Y46*%
G04 Gerber Fmt 4.6, Leading zero omitted, Abs format (unit mm)*
G04 Created by KiCad (PCBNEW 10.0.6) date 2026-09-13 21:49:22*
%MOMM*%
%LPD*%
G01*
G04 APERTURE LIST*
G04 Aperture macros list*
%AMRoundRect*
0 Rectangle with rounded corners*
0 $1 Rounding radius*
0 $2 $3 $4 $5 $6 $7 $8 $9 X,Y pos of 4 corners*
0 Add a 4 corners polygon primitive as box body*
4,1,4,$2,$3,$4,$5,$6,$7,$8,$9,$2,$3,0*
0 Add four circle primitives for the rounded corners*
1,1,$1+$1,$2,$3*
1,1,$1+$1,$4,$5*
1,1,$1+$1,$6,$7*
1,1,$1+$1,$8,$9*
0 Add four rect primitives between the rounded corners*
20,1,$1+$1,$2,$3,$4,$5,0*
20,1,$1+$1,$4,$5,$6,$7,0*
20,1,$1+$1,$6,$7,$8,$9,0*
20,1,$1+$1,$8,$9,$2,$3,0*%
G04 Aperture macros list end*
%TA.AperFunction,SMDPad,CuDef*%
%ADD10RoundRect,0.200000X-0.200000X-0.275000X0.200000X-0.275000X0.200000X0.275000X-0.200000X0.275000X0*%
%TD*%
%TA.AperFunction,ComponentPad*%
%ADD11O,2.800000X2.200000*%
%TD*%
%TA.AperFunction,SMDPad,CuDef*%
%ADD12O,1.968000X0.595000*%
%TD*%
%TA.AperFunction,SMDPad,CuDef*%
%ADD13RoundRect,0.225000X0.250000X-0.225000X0.250000X0.225000X-0.250000X0.225000X-0.250000X-0.225000X0*%
%TD*%
%TA.AperFunction,ComponentPad*%
%ADD14R,2.500000X2.500000*%
%TD*%
%TA.AperFunction,ComponentPad*%
%ADD15C,2.500000*%
%TD*%
%TA.AperFunction,ComponentPad*%
%ADD16C,1.800000*%
%TD*%
%TA.AperFunction,SMDPad,CuDef*%
%ADD17RoundRect,0.225000X-0.250000X0.225000X-0.250000X-0.225000X0.250000X-0.225000X0.250000X0.225000X0*%
%TD*%
%TA.AperFunction,SMDPad,CuDef*%
%ADD18RoundRect,0.200000X0.275000X-0.200000X0.275000X0.200000X-0.275000X0.200000X-0.275000X-0.200000X0*%
%TD*%
%TA.AperFunction,ViaPad*%
%ADD19C,0.508000*%
%TD*%
%TA.AperFunction,Conductor*%
%ADD20C,1.000000*%
%TD*%
%TA.AperFunction,Conductor*%
%ADD21C,0.400000*%
%TD*%
%TA.AperFunction,Conductor*%
%ADD22C,0.200000*%
%TD*%
%TA.AperFunction,Conductor*%
%ADD23C,0.500000*%
%TD*%
G04 APERTURE END LIST*
D10*
%TO.P,R2,1*%
%TO.N,Net-(U1-GATELL)*%
X234635000Y-109830000D03*
%TO.P,R2,2*%
%TO.N,GND*%
X236285000Y-109830000D03*
%TD*%
D11*
%TO.P,U3,1,G_1*%
%TO.N,Net-(U1-GATELL)*%
X228540000Y-118290000D03*
%TO.P,U3,2,D_2*%
%TO.N,Net-(U1-L)*%
X223100000Y-118290000D03*
%TO.P,U3,3,S_3*%
%TO.N,GND*%
X217660000Y-118290000D03*
%TD*%
D12*
%TO.P,U1,1,L_1*%
%TO.N,Net-(U1-L)*%
X232770000Y-114042500D03*
%TO.P,U1,2,VCCHL_2*%
%TO.N,/VCCHL*%
X232770000Y-112772500D03*
%TO.P,U1,3,GATEHL_3*%
%TO.N,Net-(U1-GATEHL)*%
X232770000Y-111502500D03*
%TO.P,U1,4,HVS_4*%
%TO.N,unconnected-(U1-HVS-Pad4)*%
X232770000Y-110232500D03*
%TO.P,U1,5,GATELL_5*%
%TO.N,Net-(U1-GATELL)*%
X232770000Y-108962500D03*
%TO.P,U1,6,VCC_6*%
%TO.N,Net-(U1-VCC)*%
X232770000Y-107692500D03*
%TO.P,U1,7,GND_7*%
%TO.N,GND*%
X232770000Y-106422500D03*
%TO.P,U1,8,GATELR_8*%
%TO.N,Net-(U1-GATELR)*%
X227310000Y-106422500D03*
%TO.P,U1,9,HVS_9*%
%TO.N,unconnected-(U1-HVS-Pad9)*%
X227310000Y-107692500D03*
%TO.P,U1,10,R_10*%
%TO.N,Net-(U1-R)*%
X227310000Y-108962500D03*
%TO.P,U1,11,VCCHR_11*%
%TO.N,/VCCHR*%
X227310000Y-110232500D03*
%TO.P,U1,12,GATEHR_12*%
%TO.N,Net-(U1-GATEHR)*%
X227310000Y-111502500D03*
%TO.P,U1,13,HVS_13*%
%TO.N,unconnected-(U1-HVS-Pad13)*%
X227310000Y-112772500D03*
%TO.P,U1,14,VR_14*%
%TO.N,/VR*%
X227310000Y-114042500D03*
%TD*%
D13*
%TO.P,C2,1*%
%TO.N,Net-(U1-VCC)*%
X235050000Y-107645000D03*
%TO.P,C2,2*%
%TO.N,GND*%
X235050000Y-106095000D03*
%TD*%
D10*
%TO.P,R4,1*%
%TO.N,Net-(U1-GATEHR)*%
X236750000Y-115060000D03*
%TO.P,R4,2*%
%TO.N,Net-(U1-R)*%
X238400000Y-115060000D03*
%TD*%
D14*
%TO.P,L1,1,1_1*%
%TO.N,Net-(J1-Pin_1)*%
X204225000Y-105990000D03*
D15*
%TO.P,L1,2,2_2*%
%TO.N,Net-(U1-R)*%
X213225000Y-105990000D03*
%TO.P,L1,3,3_3*%
%TO.N,Net-(U1-L)*%
X213225000Y-113990000D03*
%TO.P,L1,4,4_4*%
%TO.N,Net-(J1-Pin_2)*%
X204225000Y-113990000D03*
%TD*%
D16*
%TO.P,J2,1,Pin_1_1*%
%TO.N,/VR*%
X261800000Y-112580000D03*
%TO.P,J2,2,Pin_2_2*%
%TO.N,GND*%
X261800000Y-107500000D03*
%TD*%
D11*
%TO.P,U4,1,G_1*%
%TO.N,Net-(U1-GATELR)*%
X234560000Y-101770000D03*
%TO.P,U4,2,D_2*%
%TO.N,Net-(U1-R)*%
X240000000Y-101770000D03*
%TO.P,U4,3,S_3*%
%TO.N,GND*%
X245440000Y-101770000D03*
%TD*%
D16*
%TO.P,J1,1,Pin_1_1*%
%TO.N,Net-(J1-Pin_1)*%
X195870000Y-107450000D03*
%TO.P,J1,2,Pin_2_2*%
%TO.N,Net-(J1-Pin_2)*%
X195870000Y-112530000D03*
%TD*%
D10*
%TO.P,R1,1*%
%TO.N,Net-(U1-GATEHL)*%
X234640000Y-111360000D03*
%TO.P,R1,2*%
%TO.N,Net-(U1-L)*%
X236290000Y-111360000D03*
%TD*%
D17*
%TO.P,C1,1*%
%TO.N,/VCCHL*%
X234660000Y-112865000D03*
%TO.P,C1,2*%
%TO.N,Net-(U1-L)*%
X234660000Y-114415000D03*
%TD*%
D11*
%TO.P,U5,1,G_1*%
%TO.N,Net-(U1-GATEHR)*%
X234640000Y-118768000D03*
%TO.P,U5,2,D_2*%
%TO.N,/VR*%
X240080000Y-118768000D03*
%TO.P,U5,3,S_3*%
%TO.N,Net-(U1-R)*%
X245520000Y-118768000D03*
%TD*%
D18*
%TO.P,R3,1*%
%TO.N,Net-(U1-GATELR)*%
X225310000Y-106440000D03*
%TO.P,R3,2*%
%TO.N,GND*%
X225310000Y-104790000D03*
%TD*%
D13*
%TO.P,C3,1*%
%TO.N,/VCCHR*%
X223460000Y-111705000D03*
%TO.P,C3,2*%
%TO.N,Net-(U1-R)*%
X223460000Y-110155000D03*
%TD*%
D11*
%TO.P,U2,1,G_1*%
%TO.N,Net-(U1-GATEHL)*%
X217600000Y-101718000D03*
%TO.P,U2,2,D_2*%
%TO.N,/VR*%
X223040000Y-101718000D03*
%TO.P,U2,3,S_3*%
%TO.N,Net-(U1-L)*%
X228480000Y-101718000D03*
%TD*%
D19*
%TO.N,GND*%
X226550000Y-104630000D03*
X237120000Y-109860000D03*
X233090000Y-105590000D03*
%TO.N,Net-(U1-L)*%
X229757500Y-112520000D03*
X237370000Y-111370000D03*
%TO.N,Net-(U1-GATEHL)*%
X230870000Y-111510000D03*
%TO.N,Net-(U1-GATELR)*%
X227560000Y-105490000D03*
%TO.N,Net-(U1-R)*%
X240000000Y-107970000D03*
X225370000Y-107990000D03*
%TO.N,Net-(U1-GATEHR)*%
X225390000Y-111480000D03*
%TO.N,/VR*%
X223040000Y-107380000D03*
X224360000Y-113990000D03*
%TD*%
%TO.N,Net-(J1-Pin_2)*%
D20*
X195870000Y-112530000D02*
X202765000Y-112530000D01*
X202765000Y-112530000D02*
X204225000Y-113990000D01*
%TO.N,Net-(J1-Pin_1)*%
X197330000Y-105990000D02*
X195870000Y-107450000D01*
X204225000Y-105990000D02*
X197330000Y-105990000D01*
%TO.N,Net-(U1-GATELL)*%
D21*
X234635000Y-109830000D02*
X235480000Y-110675000D01*
X233767500Y-108962500D02*
X232770000Y-108962500D01*
X234635000Y-109830000D02*
X233767500Y-108962500D01*
D22*
X234635000Y-110025000D02*
X234635000Y-109815000D01*
D21*
X235480000Y-110675000D02*
X235480000Y-111949780D01*
D23*
X230920000Y-115910000D02*
X234600828Y-115910000D01*
X228540000Y-118290000D02*
X230920000Y-115910000D01*
D21*
X235480000Y-111949780D02*
X235660000Y-112129780D01*
D23*
X235660000Y-114850828D02*
X235660000Y-112129780D01*
X234600828Y-115910000D02*
X235660000Y-114850828D01*
%TO.N,GND*%
D21*
X234545000Y-105590000D02*
X233090000Y-105590000D01*
X232770000Y-105910000D02*
X233090000Y-105590000D01*
X236285000Y-109830000D02*
X237090000Y-109830000D01*
D22*
X226390000Y-104790000D02*
X226550000Y-104630000D01*
D21*
X232770000Y-106422500D02*
X232770000Y-105910000D01*
D22*
X237090000Y-109830000D02*
X237120000Y-109860000D01*
D21*
X235050000Y-106095000D02*
X234545000Y-105590000D01*
X225310000Y-104790000D02*
X226390000Y-104790000D01*
%TO.N,Net-(U1-L)*%
D22*
X236300000Y-111370000D02*
X236290000Y-111360000D01*
D21*
X237370000Y-111370000D02*
X236300000Y-111370000D01*
D20*
X229757500Y-114042500D02*
X232770000Y-114042500D01*
X213225000Y-113990000D02*
X218800000Y-113990000D01*
X228480000Y-101718000D02*
X229757500Y-102995500D01*
X225510000Y-118290000D02*
X229757500Y-114042500D01*
X234287500Y-114042500D02*
X234660000Y-114415000D01*
X229757500Y-102995500D02*
X229757500Y-112520000D01*
X229757500Y-112520000D02*
X229757500Y-114042500D01*
X223100000Y-118290000D02*
X225510000Y-118290000D01*
X218800000Y-113990000D02*
X223100000Y-118290000D01*
X232770000Y-114042500D02*
X234287500Y-114042500D01*
%TO.N,/VCCHL*%
X234567500Y-112772500D02*
X232770000Y-112772500D01*
X234660000Y-112865000D02*
X234567500Y-112772500D01*
%TO.N,Net-(U1-GATEHL)*%
D21*
X230870000Y-111510000D02*
X232762500Y-111510000D01*
X234640000Y-111360000D02*
X232912500Y-111360000D01*
D22*
X232912500Y-111360000D02*
X232770000Y-111502500D01*
X232762500Y-111510000D02*
X232770000Y-111502500D01*
%TO.N,Net-(U1-VCC)*%
D20*
X232770000Y-107692500D02*
X235002500Y-107692500D01*
X235002500Y-107692500D02*
X235050000Y-107645000D01*
%TO.N,Net-(U1-GATELR)*%
D21*
X227220000Y-106440000D02*
X225310000Y-106440000D01*
X227310000Y-106422500D02*
X227310000Y-105740000D01*
D22*
X227237500Y-106422500D02*
X227220000Y-106440000D01*
X227310000Y-106422500D02*
X227237500Y-106422500D01*
D21*
X227310000Y-105740000D02*
X227560000Y-105490000D01*
%TO.N,Net-(U1-R)*%
X238400000Y-114848000D02*
X240000000Y-113248000D01*
D20*
X240000000Y-113248000D02*
X245520000Y-118768000D01*
D22*
X238400000Y-115060000D02*
X238400000Y-114848000D01*
D20*
X225370000Y-108962500D02*
X225370000Y-107990000D01*
X216197500Y-108962500D02*
X223490000Y-108962500D01*
X227310000Y-108962500D02*
X225370000Y-108962500D01*
X223460000Y-110155000D02*
X223460000Y-108992500D01*
X213225000Y-105990000D02*
X216197500Y-108962500D01*
X223460000Y-108992500D02*
X223490000Y-108962500D01*
X240000000Y-101770000D02*
X240000000Y-107970000D01*
X223490000Y-108962500D02*
X225370000Y-108962500D01*
X240000000Y-107970000D02*
X240000000Y-113248000D01*
%TO.N,/VCCHR*%
X223815840Y-111705000D02*
X225288340Y-110232500D01*
X223460000Y-111705000D02*
X223815840Y-111705000D01*
X225288340Y-110232500D02*
X227310000Y-110232500D01*
%TO.N,Net-(U1-GATEHR)*%
D23*
X234640000Y-118768000D02*
X234640000Y-117170000D01*
X234640000Y-117170000D02*
X236750000Y-115060000D01*
D22*
X227287500Y-111480000D02*
X227310000Y-111502500D01*
D21*
X225390000Y-111480000D02*
X227287500Y-111480000D01*
%TO.N,/VR*%
D20*
X227257500Y-113990000D02*
X227310000Y-114042500D01*
X224360000Y-113990000D02*
X227257500Y-113990000D01*
X223040000Y-101718000D02*
X223040000Y-107380000D01*
%TO.N,Net-(J1-Pin_1)*%
X203765000Y-105530000D02*
X204225000Y-105990000D01*
%TD*%
M02*
