%TF.GenerationSoftware,KiCad,Pcbnew,10.0.6*%
%TF.CreationDate,2026-09-13T21:49:22+02:00*%
%TF.ProjectId,TEA2208,54454132-3230-4382-9e6b-696361645f70,rev?*%
%TF.SameCoordinates,Original*%
%TF.FileFunction,Copper,L3,Inr*%
%TF.FilePolarity,Positive*%
%FSLAX46Y46*%
G04 Gerber Fmt 4.6, Leading zero omitted, Abs format (unit mm)*
G04 Created by KiCad (PCBNEW 10.0.6) date 2026-09-13 21:49:22*
%MOMM*%
%LPD*%
G01*
G04 APERTURE LIST*
%TA.AperFunction,ComponentPad*%
%ADD10O,2.800000X2.200000*%
%TD*%
%TA.AperFunction,ComponentPad*%
%ADD11R,2.500000X2.500000*%
%TD*%
%TA.AperFunction,ComponentPad*%
%ADD12C,2.500000*%
%TD*%
%TA.AperFunction,ComponentPad*%
%ADD13C,1.800000*%
%TD*%
%TA.AperFunction,ViaPad*%
%ADD14C,0.508000*%
%TD*%
G04 APERTURE END LIST*
D10*
%TO.N,Net-(U1-GATELL)*%
%TO.C,U3*%
X228540000Y-118290000D03*
%TO.N,Net-(U1-L)*%
X223100000Y-118290000D03*
%TO.N,GND*%
X217660000Y-118290000D03*
%TD*%
D11*
%TO.N,Net-(J1-Pin_1)*%
%TO.C,L1*%
X204225000Y-105990000D03*
D12*
%TO.N,Net-(U1-R)*%
X213225000Y-105990000D03*
%TO.N,Net-(U1-L)*%
X213225000Y-113990000D03*
%TO.N,Net-(J1-Pin_2)*%
X204225000Y-113990000D03*
%TD*%
D13*
%TO.N,/VR*%
%TO.C,J2*%
X261800000Y-112580000D03*
%TO.N,GND*%
X261800000Y-107500000D03*
%TD*%
D10*
%TO.N,Net-(U1-GATELR)*%
%TO.C,U4*%
X234560000Y-101770000D03*
%TO.N,Net-(U1-R)*%
X240000000Y-101770000D03*
%TO.N,GND*%
X245440000Y-101770000D03*
%TD*%
D13*
%TO.N,Net-(J1-Pin_1)*%
%TO.C,J1*%
X195870000Y-107450000D03*
%TO.N,Net-(J1-Pin_2)*%
X195870000Y-112530000D03*
%TD*%
D10*
%TO.N,Net-(U1-GATEHR)*%
%TO.C,U5*%
X234640000Y-118768000D03*
%TO.N,/VR*%
X240080000Y-118768000D03*
%TO.N,Net-(U1-R)*%
X245520000Y-118768000D03*
%TD*%
%TO.N,Net-(U1-GATEHL)*%
%TO.C,U2*%
X217600000Y-101718000D03*
%TO.N,/VR*%
X223040000Y-101718000D03*
%TO.N,Net-(U1-L)*%
X228480000Y-101718000D03*
%TD*%
D14*
%TO.N,GND*%
X226550000Y-104630000D03*
X237120000Y-109860000D03*
X233090000Y-105590000D03*
%TO.N,Net-(U1-L)*%
X229757500Y-112520000D03*
X237370000Y-111370000D03*
%TO.N,Net-(U1-GATEHL)*%
X230870000Y-111510000D03*
%TO.N,Net-(U1-GATELR)*%
X227560000Y-105490000D03*
%TO.N,Net-(U1-R)*%
X240000000Y-107970000D03*
X225370000Y-107990000D03*
%TO.N,Net-(U1-GATEHR)*%
X225390000Y-111480000D03*
%TO.N,/VR*%
X223040000Y-107380000D03*
X224360000Y-113990000D03*
%TD*%
%TA.AperFunction,Conductor*%
%TO.N,GND*%
G36*
X267200442Y-99459558D02*
G01*
X267203869Y-99467831D01*
X267203869Y-120612169D01*
X267200442Y-120620442D01*
X267192169Y-120623869D01*
X190517831Y-120623869D01*
X190509558Y-120620442D01*
X190506131Y-120612169D01*
X190506131Y-118201428D01*
X216234600Y-118201428D01*
X216234600Y-118213800D01*
X216762782Y-118213800D01*
X216760002Y-118224174D01*
X216760002Y-118355826D01*
X216762782Y-118366200D01*
X216234600Y-118366200D01*
X216234600Y-118378571D01*
X216262309Y-118553524D01*
X216262313Y-118553540D01*
X216317047Y-118721995D01*
X216317049Y-118721999D01*
X216397473Y-118879839D01*
X216501592Y-119023147D01*
X216501599Y-119023155D01*
X216626844Y-119148400D01*
X216626852Y-119148407D01*
X216770160Y-119252526D01*
X216928000Y-119332950D01*
X216928004Y-119332952D01*
X217096459Y-119387686D01*
X217096475Y-119387690D01*
X217271428Y-119415400D01*
X217583800Y-119415400D01*
X217583800Y-118789999D01*
X217736200Y-118789999D01*
X217736200Y-119415400D01*
X218048571Y-119415400D01*
X218223524Y-119387690D01*
X218223540Y-119387686D01*
X218391995Y-119332952D01*
X218391999Y-119332950D01*
X218549839Y-119252526D01*
X218693147Y-119148407D01*
X218693155Y-119148400D01*
X218818400Y-119023155D01*
X218818407Y-119023147D01*
X218922526Y-118879839D01*
X219002950Y-118721999D01*
X219002952Y-118721995D01*
X219057686Y-118553540D01*
X219057690Y-118553524D01*
X219085400Y-118378571D01*
X219085400Y-118366200D01*
X218557218Y-118366200D01*
X218559998Y-118355826D01*
X218559998Y-118224174D01*
X218557218Y-118213800D01*
X219085400Y-118213800D01*
X219085400Y-118201429D01*
X219083434Y-118189019D01*
X219083434Y-118189018D01*
X219083217Y-118187647D01*
X221499500Y-118187647D01*
X221499500Y-118392352D01*
X221531521Y-118594526D01*
X221531525Y-118594542D01*
X221594776Y-118789210D01*
X221594778Y-118789214D01*
X221594780Y-118789219D01*
X221687713Y-118971610D01*
X221808034Y-119137219D01*
X221952781Y-119281966D01*
X222118390Y-119402287D01*
X222300781Y-119495220D01*
X222300786Y-119495221D01*
X222300789Y-119495223D01*
X222464512Y-119548419D01*
X222495466Y-119558477D01*
X222577758Y-119571511D01*
X222697647Y-119590500D01*
X222697648Y-119590500D01*
X223502352Y-119590500D01*
X223704534Y-119558477D01*
X223899219Y-119495220D01*
X224081610Y-119402287D01*
X224247219Y-119281966D01*
X224391966Y-119137219D01*
X224512287Y-118971610D01*
X224605220Y-118789219D01*
X224668477Y-118594534D01*
X224700500Y-118392352D01*
X224700500Y-118187648D01*
X224700500Y-118187647D01*
X226939500Y-118187647D01*
X226939500Y-118392352D01*
X226971521Y-118594526D01*
X226971525Y-118594542D01*
X227034776Y-118789210D01*
X227034778Y-118789214D01*
X227034780Y-118789219D01*
X227127713Y-118971610D01*
X227248034Y-119137219D01*
X227392781Y-119281966D01*
X227558390Y-119402287D01*
X227740781Y-119495220D01*
X227740786Y-119495221D01*
X227740789Y-119495223D01*
X227904512Y-119548419D01*
X227935466Y-119558477D01*
X228017758Y-119571511D01*
X228137647Y-119590500D01*
X228137648Y-119590500D01*
X228942352Y-119590500D01*
X229144534Y-119558477D01*
X229339219Y-119495220D01*
X229521610Y-119402287D01*
X229687219Y-119281966D01*
X229831966Y-119137219D01*
X229952287Y-118971610D01*
X230045220Y-118789219D01*
X230067061Y-118721999D01*
X230085371Y-118665647D01*
X233039500Y-118665647D01*
X233039500Y-118870352D01*
X233071521Y-119072526D01*
X233071525Y-119072542D01*
X233134776Y-119267210D01*
X233134778Y-119267214D01*
X233134780Y-119267219D01*
X233227713Y-119449610D01*
X233348034Y-119615219D01*
X233492781Y-119759966D01*
X233658390Y-119880287D01*
X233840781Y-119973220D01*
X233840786Y-119973221D01*
X233840789Y-119973223D01*
X234004512Y-120026419D01*
X234035466Y-120036477D01*
X234117758Y-120049511D01*
X234237647Y-120068500D01*
X234237648Y-120068500D01*
X235042352Y-120068500D01*
X235244534Y-120036477D01*
X235439219Y-119973220D01*
X235621610Y-119880287D01*
X235787219Y-119759966D01*
X235931966Y-119615219D01*
X236052287Y-119449610D01*
X236145220Y-119267219D01*
X236208477Y-119072534D01*
X236240500Y-118870352D01*
X236240500Y-118665648D01*
X236240500Y-118665647D01*
X238479500Y-118665647D01*
X238479500Y-118870352D01*
X238511521Y-119072526D01*
X238511525Y-119072542D01*
X238574776Y-119267210D01*
X238574778Y-119267214D01*
X238574780Y-119267219D01*
X238667713Y-119449610D01*
X238788034Y-119615219D01*
X238932781Y-119759966D01*
X239098390Y-119880287D01*
X239280781Y-119973220D01*
X239280786Y-119973221D01*
X239280789Y-119973223D01*
X239444512Y-120026419D01*
X239475466Y-120036477D01*
X239557758Y-120049511D01*
X239677647Y-120068500D01*
X239677648Y-120068500D01*
X240482352Y-120068500D01*
X240684534Y-120036477D01*
X240879219Y-119973220D01*
X241061610Y-119880287D01*
X241227219Y-119759966D01*
X241371966Y-119615219D01*
X241492287Y-119449610D01*
X241585220Y-119267219D01*
X241648477Y-119072534D01*
X241680500Y-118870352D01*
X241680500Y-118665648D01*
X241680500Y-118665647D01*
X243919500Y-118665647D01*
X243919500Y-118870352D01*
X243951521Y-119072526D01*
X243951525Y-119072542D01*
X244014776Y-119267210D01*
X244014778Y-119267214D01*
X244014780Y-119267219D01*
X244107713Y-119449610D01*
X244228034Y-119615219D01*
X244372781Y-119759966D01*
X244538390Y-119880287D01*
X244720781Y-119973220D01*
X244720786Y-119973221D01*
X244720789Y-119973223D01*
X244884512Y-120026419D01*
X244915466Y-120036477D01*
X244997758Y-120049511D01*
X245117647Y-120068500D01*
X245117648Y-120068500D01*
X245922352Y-120068500D01*
X246124534Y-120036477D01*
X246319219Y-119973220D01*
X246501610Y-119880287D01*
X246667219Y-119759966D01*
X246811966Y-119615219D01*
X246932287Y-119449610D01*
X247025220Y-119267219D01*
X247088477Y-119072534D01*
X247120500Y-118870352D01*
X247120500Y-118665648D01*
X247109236Y-118594534D01*
X247088478Y-118463473D01*
X247088477Y-118463466D01*
X247060893Y-118378571D01*
X247025223Y-118268789D01*
X247025221Y-118268785D01*
X247025220Y-118268781D01*
X246932287Y-118086390D01*
X246811966Y-117920781D01*
X246667219Y-117776034D01*
X246501610Y-117655713D01*
X246319219Y-117562780D01*
X246319216Y-117562779D01*
X246319214Y-117562778D01*
X246319210Y-117562776D01*
X246124542Y-117499525D01*
X246124526Y-117499521D01*
X245922353Y-117467500D01*
X245922352Y-117467500D01*
X245117648Y-117467500D01*
X245117647Y-117467500D01*
X244915473Y-117499521D01*
X244915457Y-117499525D01*
X244720789Y-117562776D01*
X244720785Y-117562778D01*
X244538388Y-117655714D01*
X244372782Y-117776033D01*
X244372774Y-117776040D01*
X244228040Y-117920774D01*
X244228033Y-117920782D01*
X244107714Y-118086388D01*
X244014778Y-118268785D01*
X244014776Y-118268789D01*
X243951525Y-118463457D01*
X243951521Y-118463473D01*
X243919500Y-118665647D01*
X241680500Y-118665647D01*
X241669236Y-118594534D01*
X241648478Y-118463473D01*
X241648477Y-118463466D01*
X241620893Y-118378571D01*
X241585223Y-118268789D01*
X241585221Y-118268785D01*
X241585220Y-118268781D01*
X241492287Y-118086390D01*
X241371966Y-117920781D01*
X241227219Y-117776034D01*
X241061610Y-117655713D01*
X240879219Y-117562780D01*
X240879216Y-117562779D01*
X240879214Y-117562778D01*
X240879210Y-117562776D01*
X240684542Y-117499525D01*
X240684526Y-117499521D01*
X240482353Y-117467500D01*
X240482352Y-117467500D01*
X239677648Y-117467500D01*
X239677647Y-117467500D01*
X239475473Y-117499521D01*
X239475457Y-117499525D01*
X239280789Y-117562776D01*
X239280785Y-117562778D01*
X239098388Y-117655714D01*
X238932782Y-117776033D01*
X238932774Y-117776040D01*
X238788040Y-117920774D01*
X238788033Y-117920782D01*
X238667714Y-118086388D01*
X238574778Y-118268785D01*
X238574776Y-118268789D01*
X238511525Y-118463457D01*
X238511521Y-118463473D01*
X238479500Y-118665647D01*
X236240500Y-118665647D01*
X236229236Y-118594534D01*
X236208478Y-118463473D01*
X236208477Y-118463466D01*
X236180893Y-118378571D01*
X236145223Y-118268789D01*
X236145221Y-118268785D01*
X236145220Y-118268781D01*
X236052287Y-118086390D01*
X235931966Y-117920781D01*
X235787219Y-117776034D01*
X235621610Y-117655713D01*
X235439219Y-117562780D01*
X235439216Y-117562779D01*
X235439214Y-117562778D01*
X235439210Y-117562776D01*
X235244542Y-117499525D01*
X235244526Y-117499521D01*
X235042353Y-117467500D01*
X235042352Y-117467500D01*
X234237648Y-117467500D01*
X234237647Y-117467500D01*
X234035473Y-117499521D01*
X234035457Y-117499525D01*
X233840789Y-117562776D01*
X233840785Y-117562778D01*
X233658388Y-117655714D01*
X233492782Y-117776033D01*
X233492774Y-117776040D01*
X233348040Y-117920774D01*
X233348033Y-117920782D01*
X233227714Y-118086388D01*
X233134778Y-118268785D01*
X233134776Y-118268789D01*
X233071525Y-118463457D01*
X233071521Y-118463473D01*
X233039500Y-118665647D01*
X230085371Y-118665647D01*
X230086695Y-118661573D01*
X230095923Y-118633169D01*
X230108477Y-118594534D01*
X230140500Y-118392352D01*
X230140500Y-118187648D01*
X230108477Y-117985466D01*
X230087457Y-117920774D01*
X230045223Y-117790789D01*
X230045221Y-117790785D01*
X230045220Y-117790781D01*
X229952287Y-117608390D01*
X229831966Y-117442781D01*
X229687219Y-117298034D01*
X229521610Y-117177713D01*
X229339219Y-117084780D01*
X229339216Y-117084779D01*
X229339214Y-117084778D01*
X229339210Y-117084776D01*
X229144542Y-117021525D01*
X229144526Y-117021521D01*
X228942353Y-116989500D01*
X228942352Y-116989500D01*
X228137648Y-116989500D01*
X228137647Y-116989500D01*
X227935473Y-117021521D01*
X227935457Y-117021525D01*
X227740789Y-117084776D01*
X227740785Y-117084778D01*
X227558388Y-117177714D01*
X227392782Y-117298033D01*
X227392774Y-117298040D01*
X227248040Y-117442774D01*
X227248033Y-117442782D01*
X227160852Y-117562778D01*
X227127713Y-117608390D01*
X227042295Y-117776033D01*
X227034778Y-117790785D01*
X227034776Y-117790789D01*
X226971525Y-117985457D01*
X226971521Y-117985473D01*
X226939500Y-118187647D01*
X224700500Y-118187647D01*
X224668477Y-117985466D01*
X224647457Y-117920774D01*
X224605223Y-117790789D01*
X224605221Y-117790785D01*
X224605220Y-117790781D01*
X224512287Y-117608390D01*
X224391966Y-117442781D01*
X224247219Y-117298034D01*
X224081610Y-117177713D01*
X223899219Y-117084780D01*
X223899216Y-117084779D01*
X223899214Y-117084778D01*
X223899210Y-117084776D01*
X223704542Y-117021525D01*
X223704526Y-117021521D01*
X223502353Y-116989500D01*
X223502352Y-116989500D01*
X222697648Y-116989500D01*
X222697647Y-116989500D01*
X222495473Y-117021521D01*
X222495457Y-117021525D01*
X222300789Y-117084776D01*
X222300785Y-117084778D01*
X222118388Y-117177714D01*
X221952782Y-117298033D01*
X221952774Y-117298040D01*
X221808040Y-117442774D01*
X221808033Y-117442782D01*
X221720852Y-117562778D01*
X221687713Y-117608390D01*
X221602295Y-117776033D01*
X221594778Y-117790785D01*
X221594776Y-117790789D01*
X221531525Y-117985457D01*
X221531521Y-117985473D01*
X221499500Y-118187647D01*
X219083217Y-118187647D01*
X219057690Y-118026475D01*
X219057686Y-118026459D01*
X219002952Y-117858004D01*
X219002950Y-117858000D01*
X218922526Y-117700160D01*
X218818407Y-117556852D01*
X218818400Y-117556844D01*
X218693155Y-117431599D01*
X218693147Y-117431592D01*
X218549839Y-117327473D01*
X218391999Y-117247049D01*
X218391995Y-117247047D01*
X218223540Y-117192313D01*
X218223524Y-117192309D01*
X218048572Y-117164600D01*
X217736200Y-117164600D01*
X217736200Y-117790001D01*
X217583800Y-117790001D01*
X217583800Y-117164600D01*
X217271428Y-117164600D01*
X217096475Y-117192309D01*
X217096459Y-117192313D01*
X216928004Y-117247047D01*
X216928000Y-117247049D01*
X216770160Y-117327473D01*
X216626852Y-117431592D01*
X216626844Y-117431599D01*
X216501599Y-117556844D01*
X216501592Y-117556852D01*
X216397473Y-117700160D01*
X216317049Y-117858000D01*
X216317047Y-117858004D01*
X216262313Y-118026459D01*
X216262309Y-118026475D01*
X216234600Y-118201428D01*
X190506131Y-118201428D01*
X190506131Y-113875842D01*
X202774500Y-113875842D01*
X202774500Y-114104157D01*
X202810214Y-114329652D01*
X202810218Y-114329668D01*
X202880765Y-114546790D01*
X202880767Y-114546794D01*
X202880769Y-114546799D01*
X202974629Y-114731010D01*
X202984424Y-114750234D01*
X203118613Y-114934927D01*
X203118617Y-114934931D01*
X203118621Y-114934937D01*
X203280063Y-115096379D01*
X203280068Y-115096383D01*
X203280072Y-115096386D01*
X203464765Y-115230575D01*
X203464770Y-115230577D01*
X203464772Y-115230579D01*
X203668201Y-115334231D01*
X203668206Y-115334232D01*
X203668209Y-115334234D01*
X203850820Y-115393568D01*
X203885340Y-115404784D01*
X203977113Y-115419319D01*
X204110842Y-115440500D01*
X204110843Y-115440500D01*
X204339157Y-115440500D01*
X204564660Y-115404784D01*
X204781799Y-115334231D01*
X204985228Y-115230579D01*
X205169937Y-115096379D01*
X205331379Y-114934937D01*
X205465579Y-114750228D01*
X205569231Y-114546799D01*
X205639784Y-114329660D01*
X205675500Y-114104157D01*
X205675500Y-113875843D01*
X205675500Y-113875842D01*
X211774500Y-113875842D01*
X211774500Y-114104157D01*
X211810214Y-114329652D01*
X211810218Y-114329668D01*
X211880765Y-114546790D01*
X211880767Y-114546794D01*
X211880769Y-114546799D01*
X211974629Y-114731010D01*
X211984424Y-114750234D01*
X212118613Y-114934927D01*
X212118617Y-114934931D01*
X212118621Y-114934937D01*
X212280063Y-115096379D01*
X212280068Y-115096383D01*
X212280072Y-115096386D01*
X212464765Y-115230575D01*
X212464770Y-115230577D01*
X212464772Y-115230579D01*
X212668201Y-115334231D01*
X212668206Y-115334232D01*
X212668209Y-115334234D01*
X212850820Y-115393568D01*
X212885340Y-115404784D01*
X212977113Y-115419319D01*
X213110842Y-115440500D01*
X213110843Y-115440500D01*
X213339157Y-115440500D01*
X213564660Y-115404784D01*
X213781799Y-115334231D01*
X213985228Y-115230579D01*
X214169937Y-115096379D01*
X214331379Y-114934937D01*
X214465579Y-114750228D01*
X214569231Y-114546799D01*
X214639784Y-114329660D01*
X214675500Y-114104157D01*
X214675500Y-113930161D01*
X223905500Y-113930161D01*
X223905500Y-114049838D01*
X223936471Y-114165429D01*
X223936473Y-114165433D01*
X223996306Y-114269066D01*
X223996308Y-114269069D01*
X223996309Y-114269070D01*
X224080930Y-114353691D01*
X224080931Y-114353692D01*
X224080933Y-114353693D01*
X224184566Y-114413526D01*
X224184570Y-114413528D01*
X224275732Y-114437953D01*
X224300161Y-114444499D01*
X224300163Y-114444500D01*
X224300164Y-114444500D01*
X224419837Y-114444500D01*
X224419837Y-114444499D01*
X224477633Y-114429013D01*
X224535429Y-114413528D01*
X224535433Y-114413526D01*
X224569977Y-114393581D01*
X224639070Y-114353691D01*
X224723691Y-114269070D01*
X224783527Y-114165431D01*
X224814500Y-114049836D01*
X224814500Y-113930164D01*
X224799945Y-113875842D01*
X224783528Y-113814570D01*
X224783526Y-113814566D01*
X224723693Y-113710933D01*
X224723689Y-113710928D01*
X224639071Y-113626310D01*
X224639066Y-113626306D01*
X224535433Y-113566473D01*
X224535429Y-113566471D01*
X224419838Y-113535500D01*
X224419836Y-113535500D01*
X224300164Y-113535500D01*
X224300161Y-113535500D01*
X224184570Y-113566471D01*
X224184566Y-113566473D01*
X224080933Y-113626306D01*
X224080928Y-113626310D01*
X223996310Y-113710928D01*
X223996306Y-113710933D01*
X223936473Y-113814566D01*
X223936471Y-113814570D01*
X223905500Y-113930161D01*
X214675500Y-113930161D01*
X214675500Y-113875843D01*
X214639784Y-113650340D01*
X214612533Y-113566471D01*
X214569234Y-113433209D01*
X214569232Y-113433205D01*
X214569231Y-113433201D01*
X214465579Y-113229772D01*
X214465577Y-113229770D01*
X214465575Y-113229765D01*
X214331386Y-113045072D01*
X214331383Y-113045068D01*
X214331379Y-113045063D01*
X214169937Y-112883621D01*
X214169931Y-112883617D01*
X214169927Y-112883613D01*
X213985234Y-112749424D01*
X213879262Y-112695429D01*
X213781799Y-112645769D01*
X213781796Y-112645768D01*
X213781794Y-112645767D01*
X213781790Y-112645765D01*
X213564668Y-112575218D01*
X213564652Y-112575214D01*
X213339158Y-112539500D01*
X213339157Y-112539500D01*
X213110843Y-112539500D01*
X213110842Y-112539500D01*
X212885347Y-112575214D01*
X212885331Y-112575218D01*
X212668209Y-112645765D01*
X212668205Y-112645767D01*
X212464765Y-112749424D01*
X212280072Y-112883613D01*
X212280056Y-112883627D01*
X212118627Y-113045056D01*
X212118613Y-113045072D01*
X211984424Y-113229765D01*
X211880767Y-113433205D01*
X211880765Y-113433209D01*
X211810218Y-113650331D01*
X211810214Y-113650347D01*
X211774500Y-113875842D01*
X205675500Y-113875842D01*
X205639784Y-113650340D01*
X205612533Y-113566471D01*
X205569234Y-113433209D01*
X205569232Y-113433205D01*
X205569231Y-113433201D01*
X205465579Y-113229772D01*
X205465577Y-113229770D01*
X205465575Y-113229765D01*
X205331386Y-113045072D01*
X205331383Y-113045068D01*
X205331379Y-113045063D01*
X205169937Y-112883621D01*
X205169931Y-112883617D01*
X205169927Y-112883613D01*
X204985234Y-112749424D01*
X204879262Y-112695429D01*
X204781799Y-112645769D01*
X204781796Y-112645768D01*
X204781794Y-112645767D01*
X204781790Y-112645765D01*
X204564668Y-112575218D01*
X204564652Y-112575214D01*
X204339158Y-112539500D01*
X204339157Y-112539500D01*
X204110843Y-112539500D01*
X204110842Y-112539500D01*
X203885347Y-112575214D01*
X203885331Y-112575218D01*
X203668209Y-112645765D01*
X203668205Y-112645767D01*
X203464765Y-112749424D01*
X203280072Y-112883613D01*
X203280056Y-112883627D01*
X203118627Y-113045056D01*
X203118613Y-113045072D01*
X202984424Y-113229765D01*
X202880767Y-113433205D01*
X202880765Y-113433209D01*
X202810218Y-113650331D01*
X202810214Y-113650347D01*
X202774500Y-113875842D01*
X190506131Y-113875842D01*
X190506131Y-112443388D01*
X194769500Y-112443388D01*
X194769500Y-112616611D01*
X194796596Y-112787693D01*
X194796599Y-112787705D01*
X194847229Y-112943528D01*
X194850127Y-112952445D01*
X194921341Y-113092212D01*
X194928771Y-113106794D01*
X195030578Y-113246918D01*
X195030582Y-113246922D01*
X195030586Y-113246928D01*
X195153072Y-113369414D01*
X195153077Y-113369418D01*
X195153081Y-113369421D01*
X195293205Y-113471228D01*
X195293210Y-113471230D01*
X195293212Y-113471232D01*
X195447555Y-113549873D01*
X195612299Y-113603402D01*
X195681930Y-113614430D01*
X195783388Y-113630500D01*
X195783389Y-113630500D01*
X195956611Y-113630500D01*
X196127701Y-113603402D01*
X196292445Y-113549873D01*
X196446788Y-113471232D01*
X196518100Y-113419421D01*
X196586918Y-113369421D01*
X196586928Y-113369414D01*
X196709414Y-113246928D01*
X196752679Y-113187377D01*
X196811228Y-113106794D01*
X196811228Y-113106792D01*
X196811232Y-113106788D01*
X196889873Y-112952445D01*
X196943402Y-112787701D01*
X196970500Y-112616611D01*
X196970500Y-112460161D01*
X229303000Y-112460161D01*
X229303000Y-112579838D01*
X229333971Y-112695429D01*
X229333973Y-112695433D01*
X229393806Y-112799066D01*
X229393808Y-112799069D01*
X229393809Y-112799070D01*
X229478430Y-112883691D01*
X229478431Y-112883692D01*
X229478433Y-112883693D01*
X229582066Y-112943526D01*
X229582070Y-112943528D01*
X229673232Y-112967953D01*
X229697661Y-112974499D01*
X229697663Y-112974500D01*
X229697664Y-112974500D01*
X229817337Y-112974500D01*
X229817337Y-112974499D01*
X229875133Y-112959013D01*
X229932929Y-112943528D01*
X229932933Y-112943526D01*
X229967477Y-112923581D01*
X230036570Y-112883691D01*
X230121191Y-112799070D01*
X230181027Y-112695431D01*
X230212000Y-112579836D01*
X230212000Y-112493388D01*
X260699500Y-112493388D01*
X260699500Y-112666611D01*
X260726596Y-112837693D01*
X260726599Y-112837705D01*
X260771046Y-112974499D01*
X260780127Y-113002445D01*
X260833292Y-113106788D01*
X260858771Y-113156794D01*
X260960578Y-113296918D01*
X260960582Y-113296922D01*
X260960586Y-113296928D01*
X261083072Y-113419414D01*
X261083077Y-113419418D01*
X261083081Y-113419421D01*
X261223205Y-113521228D01*
X261223210Y-113521230D01*
X261223212Y-113521232D01*
X261377555Y-113599873D01*
X261542299Y-113653402D01*
X261611930Y-113664430D01*
X261713388Y-113680500D01*
X261713389Y-113680500D01*
X261886611Y-113680500D01*
X262057701Y-113653402D01*
X262222445Y-113599873D01*
X262376788Y-113521232D01*
X262516928Y-113419414D01*
X262639414Y-113296928D01*
X262741232Y-113156788D01*
X262819873Y-113002445D01*
X262873402Y-112837701D01*
X262900500Y-112666611D01*
X262900500Y-112493389D01*
X262873402Y-112322299D01*
X262819873Y-112157555D01*
X262741232Y-112003212D01*
X262741230Y-112003210D01*
X262741228Y-112003205D01*
X262639421Y-111863081D01*
X262639418Y-111863077D01*
X262639414Y-111863072D01*
X262516928Y-111740586D01*
X262516922Y-111740582D01*
X262516918Y-111740578D01*
X262376794Y-111638771D01*
X262362212Y-111631341D01*
X262222445Y-111560127D01*
X262222442Y-111560126D01*
X262222440Y-111560125D01*
X262057705Y-111506599D01*
X262057693Y-111506596D01*
X261886612Y-111479500D01*
X261886611Y-111479500D01*
X261713389Y-111479500D01*
X261713388Y-111479500D01*
X261542306Y-111506596D01*
X261542294Y-111506599D01*
X261377559Y-111560125D01*
X261223205Y-111638771D01*
X261083081Y-111740578D01*
X261083065Y-111740592D01*
X260960592Y-111863065D01*
X260960578Y-111863081D01*
X260858771Y-112003205D01*
X260780125Y-112157559D01*
X260726599Y-112322294D01*
X260726596Y-112322306D01*
X260699500Y-112493388D01*
X230212000Y-112493388D01*
X230212000Y-112460164D01*
X230205453Y-112435732D01*
X230181028Y-112344570D01*
X230181026Y-112344566D01*
X230121193Y-112240933D01*
X230121189Y-112240928D01*
X230036571Y-112156310D01*
X230036566Y-112156306D01*
X229932933Y-112096473D01*
X229932929Y-112096471D01*
X229817338Y-112065500D01*
X229817336Y-112065500D01*
X229697664Y-112065500D01*
X229697661Y-112065500D01*
X229582070Y-112096471D01*
X229582066Y-112096473D01*
X229478433Y-112156306D01*
X229478428Y-112156310D01*
X229393810Y-112240928D01*
X229393806Y-112240933D01*
X229333973Y-112344566D01*
X229333971Y-112344570D01*
X229303000Y-112460161D01*
X196970500Y-112460161D01*
X196970500Y-112443389D01*
X196943402Y-112272299D01*
X196889873Y-112107555D01*
X196811232Y-111953212D01*
X196811230Y-111953210D01*
X196811228Y-111953205D01*
X196709421Y-111813081D01*
X196709418Y-111813077D01*
X196709414Y-111813072D01*
X196586928Y-111690586D01*
X196586922Y-111690582D01*
X196586918Y-111690578D01*
X196446794Y-111588771D01*
X196409633Y-111569837D01*
X196292445Y-111510127D01*
X196292442Y-111510126D01*
X196292440Y-111510125D01*
X196127705Y-111456599D01*
X196127693Y-111456596D01*
X195965785Y-111430953D01*
X195956612Y-111429500D01*
X195956611Y-111429500D01*
X195783389Y-111429500D01*
X195783388Y-111429500D01*
X195612306Y-111456596D01*
X195612294Y-111456599D01*
X195447559Y-111510125D01*
X195293205Y-111588771D01*
X195153081Y-111690578D01*
X195153065Y-111690592D01*
X195030592Y-111813065D01*
X195030578Y-111813081D01*
X194928771Y-111953205D01*
X194850125Y-112107559D01*
X194796599Y-112272294D01*
X194796596Y-112272306D01*
X194769500Y-112443388D01*
X190506131Y-112443388D01*
X190506131Y-111420161D01*
X224935500Y-111420161D01*
X224935500Y-111539838D01*
X224966471Y-111655429D01*
X224966473Y-111655433D01*
X225026306Y-111759066D01*
X225026308Y-111759069D01*
X225026309Y-111759070D01*
X225110930Y-111843691D01*
X225110931Y-111843692D01*
X225110933Y-111843693D01*
X225214566Y-111903526D01*
X225214570Y-111903528D01*
X225305732Y-111927953D01*
X225330161Y-111934499D01*
X225330163Y-111934500D01*
X225330164Y-111934500D01*
X225449837Y-111934500D01*
X225449837Y-111934499D01*
X225507633Y-111919013D01*
X225565429Y-111903528D01*
X225565433Y-111903526D01*
X225617112Y-111873689D01*
X225669070Y-111843691D01*
X225753691Y-111759070D01*
X225796205Y-111685433D01*
X225813526Y-111655433D01*
X225813528Y-111655429D01*
X225836461Y-111569837D01*
X225844500Y-111539836D01*
X225844500Y-111450161D01*
X230415500Y-111450161D01*
X230415500Y-111569838D01*
X230446471Y-111685429D01*
X230446473Y-111685433D01*
X230506306Y-111789066D01*
X230506308Y-111789069D01*
X230506309Y-111789070D01*
X230590930Y-111873691D01*
X230590931Y-111873692D01*
X230590933Y-111873693D01*
X230694566Y-111933526D01*
X230694570Y-111933528D01*
X230785732Y-111957953D01*
X230810161Y-111964499D01*
X230810163Y-111964500D01*
X230810164Y-111964500D01*
X230929837Y-111964500D01*
X230929837Y-111964499D01*
X230987633Y-111949013D01*
X231045429Y-111933528D01*
X231045433Y-111933526D01*
X231097391Y-111903528D01*
X231149070Y-111873691D01*
X231233691Y-111789070D01*
X231290551Y-111690586D01*
X231293526Y-111685433D01*
X231293528Y-111685429D01*
X231324499Y-111569838D01*
X231324500Y-111569837D01*
X231324500Y-111450163D01*
X231324499Y-111450161D01*
X231319352Y-111430953D01*
X231316461Y-111420161D01*
X231293528Y-111334570D01*
X231293526Y-111334566D01*
X231282372Y-111315247D01*
X231279436Y-111310161D01*
X236915500Y-111310161D01*
X236915500Y-111429838D01*
X236946471Y-111545429D01*
X236946473Y-111545433D01*
X237006306Y-111649066D01*
X237006308Y-111649069D01*
X237006309Y-111649070D01*
X237090930Y-111733691D01*
X237090931Y-111733692D01*
X237090933Y-111733693D01*
X237194566Y-111793526D01*
X237194570Y-111793528D01*
X237285732Y-111817953D01*
X237310161Y-111824499D01*
X237310163Y-111824500D01*
X237310164Y-111824500D01*
X237429837Y-111824500D01*
X237429837Y-111824499D01*
X237487633Y-111809013D01*
X237545429Y-111793528D01*
X237545433Y-111793526D01*
X237579977Y-111773581D01*
X237649070Y-111733691D01*
X237733691Y-111649070D01*
X237785042Y-111560127D01*
X237793526Y-111545433D01*
X237793528Y-111545429D01*
X237819054Y-111450161D01*
X237824500Y-111429836D01*
X237824500Y-111310164D01*
X237803270Y-111230930D01*
X237793528Y-111194570D01*
X237793526Y-111194566D01*
X237733693Y-111090933D01*
X237733689Y-111090928D01*
X237649071Y-111006310D01*
X237649066Y-111006306D01*
X237545433Y-110946473D01*
X237545429Y-110946471D01*
X237429838Y-110915500D01*
X237429836Y-110915500D01*
X237310164Y-110915500D01*
X237310161Y-110915500D01*
X237194570Y-110946471D01*
X237194566Y-110946473D01*
X237090933Y-111006306D01*
X237090928Y-111006310D01*
X237006310Y-111090928D01*
X237006306Y-111090933D01*
X236946473Y-111194566D01*
X236946471Y-111194570D01*
X236915500Y-111310161D01*
X231279436Y-111310161D01*
X231233693Y-111230933D01*
X231233689Y-111230928D01*
X231149071Y-111146310D01*
X231149066Y-111146306D01*
X231045433Y-111086473D01*
X231045429Y-111086471D01*
X230929838Y-111055500D01*
X230929836Y-111055500D01*
X230810164Y-111055500D01*
X230810161Y-111055500D01*
X230694570Y-111086471D01*
X230694566Y-111086473D01*
X230590933Y-111146306D01*
X230590928Y-111146310D01*
X230506310Y-111230928D01*
X230506306Y-111230933D01*
X230446473Y-111334566D01*
X230446471Y-111334570D01*
X230415500Y-111450161D01*
X225844500Y-111450161D01*
X225844500Y-111420164D01*
X225821566Y-111334570D01*
X225813528Y-111304570D01*
X225813526Y-111304566D01*
X225753693Y-111200933D01*
X225753689Y-111200928D01*
X225669071Y-111116310D01*
X225669066Y-111116306D01*
X225565433Y-111056473D01*
X225565429Y-111056471D01*
X225449838Y-111025500D01*
X225449836Y-111025500D01*
X225330164Y-111025500D01*
X225330161Y-111025500D01*
X225214570Y-111056471D01*
X225214566Y-111056473D01*
X225110933Y-111116306D01*
X225110928Y-111116310D01*
X225026310Y-111200928D01*
X225026306Y-111200933D01*
X224966473Y-111304566D01*
X224966471Y-111304570D01*
X224935500Y-111420161D01*
X190506131Y-111420161D01*
X190506131Y-107363388D01*
X194769500Y-107363388D01*
X194769500Y-107536611D01*
X194796596Y-107707693D01*
X194796599Y-107707705D01*
X194837797Y-107834500D01*
X194850127Y-107872445D01*
X194904989Y-107980119D01*
X194928771Y-108026794D01*
X195030578Y-108166918D01*
X195030582Y-108166922D01*
X195030586Y-108166928D01*
X195153072Y-108289414D01*
X195153077Y-108289418D01*
X195153081Y-108289421D01*
X195293205Y-108391228D01*
X195293210Y-108391230D01*
X195293212Y-108391232D01*
X195447555Y-108469873D01*
X195612299Y-108523402D01*
X195681930Y-108534430D01*
X195783388Y-108550500D01*
X195783389Y-108550500D01*
X195956611Y-108550500D01*
X196127701Y-108523402D01*
X196292445Y-108469873D01*
X196446788Y-108391232D01*
X196448709Y-108389837D01*
X196586918Y-108289421D01*
X196586928Y-108289414D01*
X196709414Y-108166928D01*
X196809017Y-108029837D01*
X196811228Y-108026794D01*
X196811228Y-108026792D01*
X196811232Y-108026788D01*
X196860465Y-107930161D01*
X224915500Y-107930161D01*
X224915500Y-108049838D01*
X224946471Y-108165429D01*
X224946473Y-108165433D01*
X225006306Y-108269066D01*
X225006308Y-108269069D01*
X225006309Y-108269070D01*
X225090930Y-108353691D01*
X225090931Y-108353692D01*
X225090933Y-108353693D01*
X225194566Y-108413526D01*
X225194570Y-108413528D01*
X225285732Y-108437953D01*
X225310161Y-108444499D01*
X225310163Y-108444500D01*
X225310164Y-108444500D01*
X225429837Y-108444500D01*
X225429837Y-108444499D01*
X225501120Y-108425400D01*
X225545429Y-108413528D01*
X225545433Y-108413526D01*
X225586463Y-108389837D01*
X225649070Y-108353691D01*
X225733691Y-108269070D01*
X225792663Y-108166928D01*
X225793526Y-108165433D01*
X225793528Y-108165429D01*
X225813764Y-108089905D01*
X225824500Y-108049836D01*
X225824500Y-107930164D01*
X225819140Y-107910161D01*
X239545500Y-107910161D01*
X239545500Y-108029838D01*
X239576471Y-108145429D01*
X239576473Y-108145433D01*
X239636306Y-108249066D01*
X239636308Y-108249069D01*
X239636309Y-108249070D01*
X239720930Y-108333691D01*
X239720931Y-108333692D01*
X239720933Y-108333693D01*
X239824566Y-108393526D01*
X239824570Y-108393528D01*
X239899211Y-108413527D01*
X239940161Y-108424499D01*
X239940163Y-108424500D01*
X239940164Y-108424500D01*
X240059837Y-108424500D01*
X240059837Y-108424499D01*
X240117633Y-108409013D01*
X240175429Y-108393528D01*
X240175433Y-108393526D01*
X240209977Y-108373581D01*
X240279070Y-108333691D01*
X240363691Y-108249070D01*
X240423527Y-108145431D01*
X240454500Y-108029836D01*
X240454500Y-107910164D01*
X240447953Y-107885732D01*
X240423528Y-107794570D01*
X240423526Y-107794566D01*
X240363693Y-107690933D01*
X240363689Y-107690928D01*
X240279071Y-107606310D01*
X240279066Y-107606306D01*
X240175433Y-107546473D01*
X240175429Y-107546471D01*
X240059838Y-107515500D01*
X240059836Y-107515500D01*
X239940164Y-107515500D01*
X239940161Y-107515500D01*
X239824570Y-107546471D01*
X239824566Y-107546473D01*
X239720933Y-107606306D01*
X239720928Y-107606310D01*
X239636310Y-107690928D01*
X239636306Y-107690933D01*
X239576473Y-107794566D01*
X239576471Y-107794570D01*
X239545500Y-107910161D01*
X225819140Y-107910161D01*
X225809035Y-107872445D01*
X225793528Y-107814570D01*
X225793526Y-107814566D01*
X225733693Y-107710933D01*
X225733689Y-107710928D01*
X225649071Y-107626310D01*
X225649066Y-107626306D01*
X225545433Y-107566473D01*
X225545429Y-107566471D01*
X225429838Y-107535500D01*
X225429836Y-107535500D01*
X225310164Y-107535500D01*
X225310161Y-107535500D01*
X225194570Y-107566471D01*
X225194566Y-107566473D01*
X225090933Y-107626306D01*
X225090928Y-107626310D01*
X225006310Y-107710928D01*
X225006306Y-107710933D01*
X224946473Y-107814566D01*
X224946471Y-107814570D01*
X224915500Y-107930161D01*
X196860465Y-107930161D01*
X196889873Y-107872445D01*
X196943402Y-107707701D01*
X196970500Y-107536611D01*
X196970500Y-107363389D01*
X196943402Y-107192299D01*
X196889873Y-107027555D01*
X196811232Y-106873212D01*
X196811230Y-106873210D01*
X196811228Y-106873205D01*
X196709421Y-106733081D01*
X196709418Y-106733077D01*
X196709414Y-106733072D01*
X196586928Y-106610586D01*
X196586922Y-106610582D01*
X196586918Y-106610578D01*
X196446794Y-106508771D01*
X196432212Y-106501341D01*
X196292445Y-106430127D01*
X196292442Y-106430126D01*
X196292440Y-106430125D01*
X196127705Y-106376599D01*
X196127693Y-106376596D01*
X195956612Y-106349500D01*
X195956611Y-106349500D01*
X195783389Y-106349500D01*
X195783388Y-106349500D01*
X195612306Y-106376596D01*
X195612294Y-106376599D01*
X195447559Y-106430125D01*
X195293205Y-106508771D01*
X195153081Y-106610578D01*
X195153065Y-106610592D01*
X195030592Y-106733065D01*
X195030578Y-106733081D01*
X194928771Y-106873205D01*
X194850125Y-107027559D01*
X194796599Y-107192294D01*
X194796596Y-107192306D01*
X194769500Y-107363388D01*
X190506131Y-107363388D01*
X190506131Y-104720252D01*
X202774500Y-104720252D01*
X202774500Y-107259748D01*
X202786133Y-107318231D01*
X202830448Y-107384552D01*
X202896769Y-107428867D01*
X202955252Y-107440500D01*
X202955253Y-107440500D01*
X205494747Y-107440500D01*
X205494748Y-107440500D01*
X205553231Y-107428867D01*
X205619552Y-107384552D01*
X205663867Y-107318231D01*
X205675500Y-107259748D01*
X205675500Y-105875842D01*
X211774500Y-105875842D01*
X211774500Y-106104157D01*
X211810214Y-106329652D01*
X211810218Y-106329668D01*
X211880765Y-106546790D01*
X211880767Y-106546794D01*
X211880769Y-106546799D01*
X211974629Y-106731010D01*
X211984424Y-106750234D01*
X212118613Y-106934927D01*
X212118617Y-106934931D01*
X212118621Y-106934937D01*
X212280063Y-107096379D01*
X212280068Y-107096383D01*
X212280072Y-107096386D01*
X212464765Y-107230575D01*
X212464770Y-107230577D01*
X212464772Y-107230579D01*
X212668201Y-107334231D01*
X212668206Y-107334232D01*
X212668209Y-107334234D01*
X212846718Y-107392235D01*
X212885340Y-107404784D01*
X212911050Y-107408856D01*
X213110842Y-107440500D01*
X213110843Y-107440500D01*
X213339157Y-107440500D01*
X213564660Y-107404784D01*
X213781799Y-107334231D01*
X213809413Y-107320161D01*
X222585500Y-107320161D01*
X222585500Y-107439838D01*
X222616471Y-107555429D01*
X222616473Y-107555433D01*
X222676306Y-107659066D01*
X222676308Y-107659069D01*
X222676309Y-107659070D01*
X222760930Y-107743691D01*
X222760931Y-107743692D01*
X222760933Y-107743693D01*
X222864566Y-107803526D01*
X222864570Y-107803528D01*
X222955732Y-107827953D01*
X222980161Y-107834499D01*
X222980163Y-107834500D01*
X222980164Y-107834500D01*
X223099837Y-107834500D01*
X223099837Y-107834499D01*
X223157633Y-107819013D01*
X223215429Y-107803528D01*
X223215433Y-107803526D01*
X223273624Y-107769929D01*
X223319070Y-107743691D01*
X223403691Y-107659070D01*
X223463527Y-107555431D01*
X223465928Y-107546473D01*
X223494499Y-107439838D01*
X223494500Y-107439837D01*
X223494500Y-107408856D01*
X260874600Y-107408856D01*
X260874600Y-107591143D01*
X260910162Y-107769929D01*
X260979920Y-107938339D01*
X260979924Y-107938347D01*
X261081194Y-108089907D01*
X261081197Y-108089911D01*
X261091760Y-108100474D01*
X261321853Y-107870380D01*
X261429618Y-107978145D01*
X261199525Y-108208238D01*
X261210088Y-108218802D01*
X261210092Y-108218805D01*
X261361652Y-108320075D01*
X261361660Y-108320079D01*
X261530070Y-108389837D01*
X261708857Y-108425400D01*
X261891143Y-108425400D01*
X262069929Y-108389837D01*
X262238339Y-108320079D01*
X262238347Y-108320075D01*
X262389905Y-108218807D01*
X262400474Y-108208238D01*
X262400474Y-108208237D01*
X262170382Y-107978145D01*
X262278145Y-107870381D01*
X262508238Y-108100474D01*
X262518807Y-108089905D01*
X262620075Y-107938347D01*
X262620079Y-107938339D01*
X262689837Y-107769929D01*
X262725400Y-107591143D01*
X262725400Y-107408856D01*
X262689837Y-107230070D01*
X262620079Y-107061660D01*
X262620075Y-107061652D01*
X262518805Y-106910092D01*
X262518802Y-106910088D01*
X262508238Y-106899525D01*
X262278144Y-107129617D01*
X262170380Y-107021853D01*
X262400474Y-106791761D01*
X262400474Y-106791760D01*
X262389911Y-106781197D01*
X262389907Y-106781194D01*
X262238347Y-106679924D01*
X262238339Y-106679920D01*
X262069929Y-106610162D01*
X261891143Y-106574600D01*
X261708857Y-106574600D01*
X261530070Y-106610162D01*
X261361660Y-106679920D01*
X261361652Y-106679924D01*
X261210096Y-106781191D01*
X261199525Y-106791761D01*
X261429618Y-107021854D01*
X261321854Y-107129618D01*
X261091761Y-106899525D01*
X261081191Y-106910096D01*
X260979924Y-107061652D01*
X260979920Y-107061660D01*
X260910162Y-107230070D01*
X260874600Y-107408856D01*
X223494500Y-107408856D01*
X223494500Y-107320163D01*
X223494499Y-107320161D01*
X223463528Y-107204570D01*
X223463526Y-107204566D01*
X223403693Y-107100933D01*
X223403689Y-107100928D01*
X223319071Y-107016310D01*
X223319066Y-107016306D01*
X223215433Y-106956473D01*
X223215429Y-106956471D01*
X223099838Y-106925500D01*
X223099836Y-106925500D01*
X222980164Y-106925500D01*
X222980161Y-106925500D01*
X222864570Y-106956471D01*
X222864566Y-106956473D01*
X222760933Y-107016306D01*
X222760928Y-107016310D01*
X222676310Y-107100928D01*
X222676306Y-107100933D01*
X222616473Y-107204566D01*
X222616471Y-107204570D01*
X222585500Y-107320161D01*
X213809413Y-107320161D01*
X213985228Y-107230579D01*
X214021028Y-107204569D01*
X214169927Y-107096386D01*
X214169937Y-107096379D01*
X214331379Y-106934937D01*
X214376230Y-106873205D01*
X214443922Y-106780037D01*
X214465575Y-106750234D01*
X214465575Y-106750232D01*
X214465579Y-106750228D01*
X214569231Y-106546799D01*
X214639784Y-106329660D01*
X214675500Y-106104157D01*
X214675500Y-105875843D01*
X214671991Y-105853691D01*
X214639785Y-105650347D01*
X214639784Y-105650340D01*
X214569231Y-105433201D01*
X214567682Y-105430161D01*
X227105500Y-105430161D01*
X227105500Y-105549838D01*
X227136471Y-105665429D01*
X227136473Y-105665433D01*
X227196306Y-105769066D01*
X227196308Y-105769069D01*
X227196309Y-105769070D01*
X227280930Y-105853691D01*
X227280931Y-105853692D01*
X227280933Y-105853693D01*
X227384566Y-105913526D01*
X227384570Y-105913528D01*
X227475732Y-105937953D01*
X227500161Y-105944499D01*
X227500163Y-105944500D01*
X227500164Y-105944500D01*
X227619837Y-105944500D01*
X227619837Y-105944499D01*
X227677633Y-105929013D01*
X227735429Y-105913528D01*
X227735433Y-105913526D01*
X227769977Y-105893581D01*
X227839070Y-105853691D01*
X227923691Y-105769070D01*
X227983527Y-105665431D01*
X228014500Y-105549836D01*
X228014500Y-105430164D01*
X228007953Y-105405732D01*
X227983528Y-105314570D01*
X227983526Y-105314566D01*
X227923693Y-105210933D01*
X227923689Y-105210928D01*
X227839071Y-105126310D01*
X227839066Y-105126306D01*
X227735433Y-105066473D01*
X227735429Y-105066471D01*
X227619838Y-105035500D01*
X227619836Y-105035500D01*
X227500164Y-105035500D01*
X227500161Y-105035500D01*
X227384570Y-105066471D01*
X227384566Y-105066473D01*
X227280933Y-105126306D01*
X227280928Y-105126310D01*
X227196310Y-105210928D01*
X227196306Y-105210933D01*
X227136473Y-105314566D01*
X227136471Y-105314570D01*
X227105500Y-105430161D01*
X214567682Y-105430161D01*
X214465579Y-105229772D01*
X214465577Y-105229770D01*
X214465575Y-105229765D01*
X214331386Y-105045072D01*
X214331383Y-105045068D01*
X214331379Y-105045063D01*
X214169937Y-104883621D01*
X214169931Y-104883617D01*
X214169927Y-104883613D01*
X213985234Y-104749424D01*
X213927980Y-104720252D01*
X213781799Y-104645769D01*
X213781796Y-104645768D01*
X213781794Y-104645767D01*
X213781790Y-104645765D01*
X213564668Y-104575218D01*
X213564652Y-104575214D01*
X213339158Y-104539500D01*
X213339157Y-104539500D01*
X213110843Y-104539500D01*
X213110842Y-104539500D01*
X212885347Y-104575214D01*
X212885331Y-104575218D01*
X212668209Y-104645765D01*
X212668205Y-104645767D01*
X212464765Y-104749424D01*
X212280072Y-104883613D01*
X212280056Y-104883627D01*
X212118627Y-105045056D01*
X212118613Y-105045072D01*
X211984424Y-105229765D01*
X211880767Y-105433205D01*
X211880765Y-105433209D01*
X211810218Y-105650331D01*
X211810214Y-105650347D01*
X211774500Y-105875842D01*
X205675500Y-105875842D01*
X205675500Y-104720252D01*
X205663867Y-104661769D01*
X205619552Y-104595448D01*
X205553231Y-104551133D01*
X205494748Y-104539500D01*
X202955252Y-104539500D01*
X202926010Y-104545316D01*
X202896768Y-104551133D01*
X202830448Y-104595447D01*
X202830447Y-104595448D01*
X202786133Y-104661768D01*
X202786133Y-104661769D01*
X202774500Y-104720252D01*
X190506131Y-104720252D01*
X190506131Y-101615647D01*
X215999500Y-101615647D01*
X215999500Y-101820352D01*
X216031521Y-102022526D01*
X216031525Y-102022542D01*
X216094776Y-102217210D01*
X216094778Y-102217214D01*
X216094780Y-102217219D01*
X216187713Y-102399610D01*
X216308034Y-102565219D01*
X216452781Y-102709966D01*
X216618390Y-102830287D01*
X216800781Y-102923220D01*
X216800786Y-102923221D01*
X216800789Y-102923223D01*
X216960824Y-102975221D01*
X216995466Y-102986477D01*
X217077758Y-102999511D01*
X217197647Y-103018500D01*
X217197648Y-103018500D01*
X218002352Y-103018500D01*
X218204534Y-102986477D01*
X218399219Y-102923220D01*
X218581610Y-102830287D01*
X218747219Y-102709966D01*
X218891966Y-102565219D01*
X219012287Y-102399610D01*
X219105220Y-102217219D01*
X219168477Y-102022534D01*
X219200500Y-101820352D01*
X219200500Y-101615648D01*
X219200500Y-101615647D01*
X221439500Y-101615647D01*
X221439500Y-101820352D01*
X221471521Y-102022526D01*
X221471525Y-102022542D01*
X221534776Y-102217210D01*
X221534778Y-102217214D01*
X221534780Y-102217219D01*
X221627713Y-102399610D01*
X221748034Y-102565219D01*
X221892781Y-102709966D01*
X222058390Y-102830287D01*
X222240781Y-102923220D01*
X222240786Y-102923221D01*
X222240789Y-102923223D01*
X222400824Y-102975221D01*
X222435466Y-102986477D01*
X222517758Y-102999511D01*
X222637647Y-103018500D01*
X222637648Y-103018500D01*
X223442352Y-103018500D01*
X223644534Y-102986477D01*
X223839219Y-102923220D01*
X224021610Y-102830287D01*
X224187219Y-102709966D01*
X224331966Y-102565219D01*
X224452287Y-102399610D01*
X224545220Y-102217219D01*
X224608477Y-102022534D01*
X224640500Y-101820352D01*
X224640500Y-101615648D01*
X224640500Y-101615647D01*
X226879500Y-101615647D01*
X226879500Y-101820352D01*
X226911521Y-102022526D01*
X226911525Y-102022542D01*
X226974776Y-102217210D01*
X226974778Y-102217214D01*
X226974780Y-102217219D01*
X227067713Y-102399610D01*
X227188034Y-102565219D01*
X227332781Y-102709966D01*
X227498390Y-102830287D01*
X227680781Y-102923220D01*
X227680786Y-102923221D01*
X227680789Y-102923223D01*
X227840824Y-102975221D01*
X227875466Y-102986477D01*
X227957758Y-102999511D01*
X228077647Y-103018500D01*
X228077648Y-103018500D01*
X228882352Y-103018500D01*
X229084534Y-102986477D01*
X229279219Y-102923220D01*
X229461610Y-102830287D01*
X229627219Y-102709966D01*
X229771966Y-102565219D01*
X229892287Y-102399610D01*
X229985220Y-102217219D01*
X230048477Y-102022534D01*
X230080500Y-101820352D01*
X230080500Y-101667647D01*
X232959500Y-101667647D01*
X232959500Y-101872352D01*
X232991521Y-102074526D01*
X232991525Y-102074542D01*
X233054776Y-102269210D01*
X233054778Y-102269214D01*
X233054780Y-102269219D01*
X233147713Y-102451610D01*
X233268034Y-102617219D01*
X233412781Y-102761966D01*
X233578390Y-102882287D01*
X233760781Y-102975220D01*
X233760786Y-102975221D01*
X233760789Y-102975223D01*
X233893983Y-103018500D01*
X233955466Y-103038477D01*
X234037758Y-103051511D01*
X234157647Y-103070500D01*
X234157648Y-103070500D01*
X234962352Y-103070500D01*
X235164534Y-103038477D01*
X235359219Y-102975220D01*
X235541610Y-102882287D01*
X235707219Y-102761966D01*
X235851966Y-102617219D01*
X235972287Y-102451610D01*
X236065220Y-102269219D01*
X236128477Y-102074534D01*
X236160500Y-101872352D01*
X236160500Y-101667648D01*
X236160500Y-101667647D01*
X238399500Y-101667647D01*
X238399500Y-101872352D01*
X238431521Y-102074526D01*
X238431525Y-102074542D01*
X238494776Y-102269210D01*
X238494778Y-102269214D01*
X238494780Y-102269219D01*
X238587713Y-102451610D01*
X238708034Y-102617219D01*
X238852781Y-102761966D01*
X239018390Y-102882287D01*
X239200781Y-102975220D01*
X239200786Y-102975221D01*
X239200789Y-102975223D01*
X239333983Y-103018500D01*
X239395466Y-103038477D01*
X239477758Y-103051511D01*
X239597647Y-103070500D01*
X239597648Y-103070500D01*
X240402352Y-103070500D01*
X240604534Y-103038477D01*
X240799219Y-102975220D01*
X240981610Y-102882287D01*
X241147219Y-102761966D01*
X241291966Y-102617219D01*
X241412287Y-102451610D01*
X241505220Y-102269219D01*
X241568477Y-102074534D01*
X241600500Y-101872352D01*
X241600500Y-101681428D01*
X244014600Y-101681428D01*
X244014600Y-101693800D01*
X244542782Y-101693800D01*
X244540002Y-101704174D01*
X244540002Y-101835826D01*
X244542782Y-101846200D01*
X244014600Y-101846200D01*
X244014600Y-101858571D01*
X244042309Y-102033524D01*
X244042313Y-102033540D01*
X244097047Y-102201995D01*
X244097049Y-102201999D01*
X244177473Y-102359839D01*
X244281592Y-102503147D01*
X244281599Y-102503155D01*
X244406844Y-102628400D01*
X244406852Y-102628407D01*
X244550160Y-102732526D01*
X244708000Y-102812950D01*
X244708004Y-102812952D01*
X244876459Y-102867686D01*
X244876475Y-102867690D01*
X245051428Y-102895400D01*
X245363800Y-102895400D01*
X245363800Y-102269999D01*
X245516200Y-102269999D01*
X245516200Y-102895400D01*
X245828571Y-102895400D01*
X246003524Y-102867690D01*
X246003540Y-102867686D01*
X246171995Y-102812952D01*
X246171999Y-102812950D01*
X246329839Y-102732526D01*
X246473147Y-102628407D01*
X246473155Y-102628400D01*
X246598400Y-102503155D01*
X246598407Y-102503147D01*
X246702526Y-102359839D01*
X246782950Y-102201999D01*
X246782952Y-102201995D01*
X246837686Y-102033540D01*
X246837690Y-102033524D01*
X246865400Y-101858571D01*
X246865400Y-101846200D01*
X246337218Y-101846200D01*
X246339998Y-101835826D01*
X246339998Y-101704174D01*
X246337218Y-101693800D01*
X246865400Y-101693800D01*
X246865400Y-101681428D01*
X246837690Y-101506475D01*
X246837686Y-101506459D01*
X246782952Y-101338004D01*
X246782950Y-101338000D01*
X246702526Y-101180160D01*
X246598407Y-101036852D01*
X246598400Y-101036844D01*
X246473155Y-100911599D01*
X246473147Y-100911592D01*
X246329839Y-100807473D01*
X246171999Y-100727049D01*
X246171995Y-100727047D01*
X246003540Y-100672313D01*
X246003524Y-100672309D01*
X245828572Y-100644600D01*
X245516200Y-100644600D01*
X245516200Y-101270001D01*
X245363800Y-101270001D01*
X245363800Y-100644600D01*
X245051428Y-100644600D01*
X244876475Y-100672309D01*
X244876459Y-100672313D01*
X244708004Y-100727047D01*
X244708000Y-100727049D01*
X244550160Y-100807473D01*
X244406852Y-100911592D01*
X244406844Y-100911599D01*
X244281599Y-101036844D01*
X244281592Y-101036852D01*
X244177473Y-101180160D01*
X244097049Y-101338000D01*
X244097047Y-101338004D01*
X244042313Y-101506459D01*
X244042309Y-101506475D01*
X244014600Y-101681428D01*
X241600500Y-101681428D01*
X241600500Y-101667648D01*
X241568477Y-101465466D01*
X241551578Y-101413457D01*
X241505223Y-101270789D01*
X241505221Y-101270785D01*
X241505220Y-101270781D01*
X241412287Y-101088390D01*
X241291966Y-100922781D01*
X241147219Y-100778034D01*
X240981610Y-100657713D01*
X240799219Y-100564780D01*
X240799216Y-100564779D01*
X240799214Y-100564778D01*
X240799210Y-100564776D01*
X240604542Y-100501525D01*
X240604526Y-100501521D01*
X240402353Y-100469500D01*
X240402352Y-100469500D01*
X239597648Y-100469500D01*
X239597647Y-100469500D01*
X239395473Y-100501521D01*
X239395457Y-100501525D01*
X239200789Y-100564776D01*
X239200785Y-100564778D01*
X239018388Y-100657714D01*
X238852782Y-100778033D01*
X238852774Y-100778040D01*
X238708040Y-100922774D01*
X238708033Y-100922782D01*
X238587714Y-101088388D01*
X238494778Y-101270785D01*
X238494776Y-101270789D01*
X238431525Y-101465457D01*
X238431521Y-101465473D01*
X238399500Y-101667647D01*
X236160500Y-101667647D01*
X236128477Y-101465466D01*
X236111578Y-101413457D01*
X236065223Y-101270789D01*
X236065221Y-101270785D01*
X236065220Y-101270781D01*
X235972287Y-101088390D01*
X235851966Y-100922781D01*
X235707219Y-100778034D01*
X235541610Y-100657713D01*
X235359219Y-100564780D01*
X235359216Y-100564779D01*
X235359214Y-100564778D01*
X235359210Y-100564776D01*
X235164542Y-100501525D01*
X235164526Y-100501521D01*
X234962353Y-100469500D01*
X234962352Y-100469500D01*
X234157648Y-100469500D01*
X234157647Y-100469500D01*
X233955473Y-100501521D01*
X233955457Y-100501525D01*
X233760789Y-100564776D01*
X233760785Y-100564778D01*
X233578388Y-100657714D01*
X233412782Y-100778033D01*
X233412774Y-100778040D01*
X233268040Y-100922774D01*
X233268033Y-100922782D01*
X233147714Y-101088388D01*
X233054778Y-101270785D01*
X233054776Y-101270789D01*
X232991525Y-101465457D01*
X232991521Y-101465473D01*
X232959500Y-101667647D01*
X230080500Y-101667647D01*
X230080500Y-101615648D01*
X230048477Y-101413466D01*
X230012934Y-101304076D01*
X229985223Y-101218789D01*
X229985221Y-101218785D01*
X229985220Y-101218781D01*
X229892287Y-101036390D01*
X229771966Y-100870781D01*
X229627219Y-100726034D01*
X229461610Y-100605713D01*
X229279219Y-100512780D01*
X229279216Y-100512779D01*
X229279214Y-100512778D01*
X229279210Y-100512776D01*
X229084542Y-100449525D01*
X229084526Y-100449521D01*
X228882353Y-100417500D01*
X228882352Y-100417500D01*
X228077648Y-100417500D01*
X228077647Y-100417500D01*
X227875473Y-100449521D01*
X227875457Y-100449525D01*
X227680789Y-100512776D01*
X227680785Y-100512778D01*
X227498388Y-100605714D01*
X227332782Y-100726033D01*
X227332774Y-100726040D01*
X227188040Y-100870774D01*
X227188033Y-100870782D01*
X227067714Y-101036388D01*
X226974778Y-101218785D01*
X226974776Y-101218789D01*
X226911525Y-101413457D01*
X226911521Y-101413473D01*
X226879500Y-101615647D01*
X224640500Y-101615647D01*
X224608477Y-101413466D01*
X224572934Y-101304076D01*
X224545223Y-101218789D01*
X224545221Y-101218785D01*
X224545220Y-101218781D01*
X224452287Y-101036390D01*
X224331966Y-100870781D01*
X224187219Y-100726034D01*
X224021610Y-100605713D01*
X223839219Y-100512780D01*
X223839216Y-100512779D01*
X223839214Y-100512778D01*
X223839210Y-100512776D01*
X223644542Y-100449525D01*
X223644526Y-100449521D01*
X223442353Y-100417500D01*
X223442352Y-100417500D01*
X222637648Y-100417500D01*
X222637647Y-100417500D01*
X222435473Y-100449521D01*
X222435457Y-100449525D01*
X222240789Y-100512776D01*
X222240785Y-100512778D01*
X222058388Y-100605714D01*
X221892782Y-100726033D01*
X221892774Y-100726040D01*
X221748040Y-100870774D01*
X221748033Y-100870782D01*
X221627714Y-101036388D01*
X221534778Y-101218785D01*
X221534776Y-101218789D01*
X221471525Y-101413457D01*
X221471521Y-101413473D01*
X221439500Y-101615647D01*
X219200500Y-101615647D01*
X219168477Y-101413466D01*
X219132934Y-101304076D01*
X219105223Y-101218789D01*
X219105221Y-101218785D01*
X219105220Y-101218781D01*
X219012287Y-101036390D01*
X218891966Y-100870781D01*
X218747219Y-100726034D01*
X218581610Y-100605713D01*
X218399219Y-100512780D01*
X218399216Y-100512779D01*
X218399214Y-100512778D01*
X218399210Y-100512776D01*
X218204542Y-100449525D01*
X218204526Y-100449521D01*
X218002353Y-100417500D01*
X218002352Y-100417500D01*
X217197648Y-100417500D01*
X217197647Y-100417500D01*
X216995473Y-100449521D01*
X216995457Y-100449525D01*
X216800789Y-100512776D01*
X216800785Y-100512778D01*
X216618388Y-100605714D01*
X216452782Y-100726033D01*
X216452774Y-100726040D01*
X216308040Y-100870774D01*
X216308033Y-100870782D01*
X216187714Y-101036388D01*
X216094778Y-101218785D01*
X216094776Y-101218789D01*
X216031525Y-101413457D01*
X216031521Y-101413473D01*
X215999500Y-101615647D01*
X190506131Y-101615647D01*
X190506131Y-99467831D01*
X190509558Y-99459558D01*
X190517831Y-99456131D01*
X267192169Y-99456131D01*
X267200442Y-99459558D01*
G37*
%TD.AperFunction*%
%TD*%
M02*
