%TF.GenerationSoftware,KiCad,Pcbnew,10.0.6*%
%TF.CreationDate,2026-09-18T17:23:18+02:00*%
%TF.ProjectId,AB-V2,41422d56-322e-46b6-9963-61645f706362,rev?*%
%TF.SameCoordinates,Original*%
%TF.FileFunction,Soldermask,Top*%
%TF.FilePolarity,Negative*%
%FSLAX46Y46*%
G04 Gerber Fmt 4.6, Leading zero omitted, Abs format (unit mm)*
G04 Created by KiCad (PCBNEW 10.0.6) date 2026-09-18 17:23:18*
%MOMM*%
%LPD*%
G01*
G04 APERTURE LIST*
G04 APERTURE END LIST*
G36*
X146678017Y-106649815D02*
G01*
X146870285Y-106688060D01*
X147051397Y-106763079D01*
X147214393Y-106871990D01*
X147353010Y-107010607D01*
X147461921Y-107173603D01*
X147536940Y-107354715D01*
X147575185Y-107546983D01*
X147575185Y-107743017D01*
X147536940Y-107935285D01*
X147461921Y-108116397D01*
X147353010Y-108279393D01*
X147214393Y-108418010D01*
X147051397Y-108526921D01*
X146870285Y-108601940D01*
X146678017Y-108640185D01*
X146580000Y-108645000D01*
X146578768Y-108645000D01*
X145781232Y-108645000D01*
X145780000Y-108645000D01*
X145681983Y-108640185D01*
X145489715Y-108601940D01*
X145308603Y-108526921D01*
X145145607Y-108418010D01*
X145006990Y-108279393D01*
X144898079Y-108116397D01*
X144823060Y-107935285D01*
X144784815Y-107743017D01*
X144784815Y-107546983D01*
X144823060Y-107354715D01*
X144898079Y-107173603D01*
X145006990Y-107010607D01*
X145145607Y-106871990D01*
X145308603Y-106763079D01*
X145489715Y-106688060D01*
X145681983Y-106649815D01*
X145780000Y-106645000D01*
X146580000Y-106645000D01*
X146678017Y-106649815D01*
G37*
G36*
X151758017Y-106649815D02*
G01*
X151950285Y-106688060D01*
X152131397Y-106763079D01*
X152294393Y-106871990D01*
X152433010Y-107010607D01*
X152541921Y-107173603D01*
X152616940Y-107354715D01*
X152655185Y-107546983D01*
X152655185Y-107743017D01*
X152616940Y-107935285D01*
X152541921Y-108116397D01*
X152433010Y-108279393D01*
X152294393Y-108418010D01*
X152131397Y-108526921D01*
X151950285Y-108601940D01*
X151758017Y-108640185D01*
X151660000Y-108645000D01*
X151658768Y-108645000D01*
X150861232Y-108645000D01*
X150860000Y-108645000D01*
X150761983Y-108640185D01*
X150569715Y-108601940D01*
X150388603Y-108526921D01*
X150225607Y-108418010D01*
X150086990Y-108279393D01*
X149978079Y-108116397D01*
X149903060Y-107935285D01*
X149864815Y-107743017D01*
X149864815Y-107546983D01*
X149903060Y-107354715D01*
X149978079Y-107173603D01*
X150086990Y-107010607D01*
X150225607Y-106871990D01*
X150388603Y-106763079D01*
X150569715Y-106688060D01*
X150761983Y-106649815D01*
X150860000Y-106645000D01*
X151660000Y-106645000D01*
X151758017Y-106649815D01*
G37*
G36*
X156838017Y-106649815D02*
G01*
X157030285Y-106688060D01*
X157211397Y-106763079D01*
X157374393Y-106871990D01*
X157513010Y-107010607D01*
X157621921Y-107173603D01*
X157696940Y-107354715D01*
X157735185Y-107546983D01*
X157735185Y-107743017D01*
X157696940Y-107935285D01*
X157621921Y-108116397D01*
X157513010Y-108279393D01*
X157374393Y-108418010D01*
X157211397Y-108526921D01*
X157030285Y-108601940D01*
X156838017Y-108640185D01*
X156740000Y-108645000D01*
X156738768Y-108645000D01*
X155941232Y-108645000D01*
X155940000Y-108645000D01*
X155841983Y-108640185D01*
X155649715Y-108601940D01*
X155468603Y-108526921D01*
X155305607Y-108418010D01*
X155166990Y-108279393D01*
X155058079Y-108116397D01*
X154983060Y-107935285D01*
X154944815Y-107743017D01*
X154944815Y-107546983D01*
X154983060Y-107354715D01*
X155058079Y-107173603D01*
X155166990Y-107010607D01*
X155305607Y-106871990D01*
X155468603Y-106763079D01*
X155649715Y-106688060D01*
X155841983Y-106649815D01*
X155940000Y-106645000D01*
X156740000Y-106645000D01*
X156838017Y-106649815D01*
G37*
G36*
X161918017Y-106649815D02*
G01*
X162110285Y-106688060D01*
X162291397Y-106763079D01*
X162454393Y-106871990D01*
X162593010Y-107010607D01*
X162701921Y-107173603D01*
X162776940Y-107354715D01*
X162815185Y-107546983D01*
X162815185Y-107743017D01*
X162776940Y-107935285D01*
X162701921Y-108116397D01*
X162593010Y-108279393D01*
X162454393Y-108418010D01*
X162291397Y-108526921D01*
X162110285Y-108601940D01*
X161918017Y-108640185D01*
X161820000Y-108645000D01*
X161818768Y-108645000D01*
X161021232Y-108645000D01*
X161020000Y-108645000D01*
X160921983Y-108640185D01*
X160729715Y-108601940D01*
X160548603Y-108526921D01*
X160385607Y-108418010D01*
X160246990Y-108279393D01*
X160138079Y-108116397D01*
X160063060Y-107935285D01*
X160024815Y-107743017D01*
X160024815Y-107546983D01*
X160063060Y-107354715D01*
X160138079Y-107173603D01*
X160246990Y-107010607D01*
X160385607Y-106871990D01*
X160548603Y-106763079D01*
X160729715Y-106688060D01*
X160921983Y-106649815D01*
X161020000Y-106645000D01*
X161820000Y-106645000D01*
X161918017Y-106649815D01*
G37*
G36*
X135910285Y-106503060D02*
G01*
X136091397Y-106578079D01*
X136254393Y-106686990D01*
X136393010Y-106825607D01*
X136501921Y-106988603D01*
X136576940Y-107169715D01*
X136615185Y-107361983D01*
X136615185Y-107558017D01*
X136576940Y-107750285D01*
X136501921Y-107931397D01*
X136393010Y-108094393D01*
X136254393Y-108233010D01*
X136091397Y-108341921D01*
X135910285Y-108416940D01*
X135718017Y-108455185D01*
X135521983Y-108455185D01*
X135329715Y-108416940D01*
X135148603Y-108341921D01*
X134985607Y-108233010D01*
X134846990Y-108094393D01*
X134738079Y-107931397D01*
X134663060Y-107750285D01*
X134624815Y-107558017D01*
X134624815Y-107361983D01*
X134663060Y-107169715D01*
X134738079Y-106988603D01*
X134846990Y-106825607D01*
X134985607Y-106686990D01*
X135148603Y-106578079D01*
X135329715Y-106503060D01*
X135521983Y-106464815D01*
X135718017Y-106464815D01*
X135910285Y-106503060D01*
G37*
G36*
X166664047Y-106245805D02*
G01*
X166715408Y-106251764D01*
X166732954Y-106259511D01*
X166755671Y-106264030D01*
X166779991Y-106280280D01*
X166800793Y-106289465D01*
X166815000Y-106303672D01*
X166836777Y-106318223D01*
X166851327Y-106339999D01*
X166865534Y-106354206D01*
X166874718Y-106375006D01*
X166890970Y-106399329D01*
X166895489Y-106422048D01*
X166903235Y-106439591D01*
X166909192Y-106490940D01*
X166910000Y-106495000D01*
X166910000Y-107445000D01*
X166909192Y-107449059D01*
X166903235Y-107500408D01*
X166895489Y-107517950D01*
X166890970Y-107540671D01*
X166874716Y-107564995D01*
X166865534Y-107585793D01*
X166851329Y-107599997D01*
X166836777Y-107621777D01*
X166814997Y-107636329D01*
X166800793Y-107650534D01*
X166779995Y-107659716D01*
X166755671Y-107675970D01*
X166732950Y-107680489D01*
X166715408Y-107688235D01*
X166664061Y-107694192D01*
X166660000Y-107695000D01*
X166160000Y-107695000D01*
X166155941Y-107694192D01*
X166104591Y-107688235D01*
X166087048Y-107680489D01*
X166064329Y-107675970D01*
X166040006Y-107659718D01*
X166019206Y-107650534D01*
X166004999Y-107636327D01*
X165983223Y-107621777D01*
X165968672Y-107600000D01*
X165954465Y-107585793D01*
X165945280Y-107564991D01*
X165929030Y-107540671D01*
X165924511Y-107517954D01*
X165916764Y-107500408D01*
X165910805Y-107449049D01*
X165910000Y-107445000D01*
X165910000Y-106495000D01*
X165910804Y-106490953D01*
X165916764Y-106439591D01*
X165924511Y-106422043D01*
X165929030Y-106399329D01*
X165945278Y-106375010D01*
X165954465Y-106354206D01*
X165968674Y-106339996D01*
X165983223Y-106318223D01*
X166004996Y-106303674D01*
X166019206Y-106289465D01*
X166040010Y-106280278D01*
X166064329Y-106264030D01*
X166087043Y-106259511D01*
X166104591Y-106251764D01*
X166155952Y-106245805D01*
X166160000Y-106245000D01*
X166660000Y-106245000D01*
X166664047Y-106245805D01*
G37*
G36*
X168564047Y-106245805D02*
G01*
X168615408Y-106251764D01*
X168632954Y-106259511D01*
X168655671Y-106264030D01*
X168679991Y-106280280D01*
X168700793Y-106289465D01*
X168715000Y-106303672D01*
X168736777Y-106318223D01*
X168751327Y-106339999D01*
X168765534Y-106354206D01*
X168774718Y-106375006D01*
X168790970Y-106399329D01*
X168795489Y-106422048D01*
X168803235Y-106439591D01*
X168809192Y-106490940D01*
X168810000Y-106495000D01*
X168810000Y-107445000D01*
X168809192Y-107449059D01*
X168803235Y-107500408D01*
X168795489Y-107517950D01*
X168790970Y-107540671D01*
X168774716Y-107564995D01*
X168765534Y-107585793D01*
X168751329Y-107599997D01*
X168736777Y-107621777D01*
X168714997Y-107636329D01*
X168700793Y-107650534D01*
X168679995Y-107659716D01*
X168655671Y-107675970D01*
X168632950Y-107680489D01*
X168615408Y-107688235D01*
X168564061Y-107694192D01*
X168560000Y-107695000D01*
X168060000Y-107695000D01*
X168055941Y-107694192D01*
X168004591Y-107688235D01*
X167987048Y-107680489D01*
X167964329Y-107675970D01*
X167940006Y-107659718D01*
X167919206Y-107650534D01*
X167904999Y-107636327D01*
X167883223Y-107621777D01*
X167868672Y-107600000D01*
X167854465Y-107585793D01*
X167845280Y-107564991D01*
X167829030Y-107540671D01*
X167824511Y-107517954D01*
X167816764Y-107500408D01*
X167810805Y-107449049D01*
X167810000Y-107445000D01*
X167810000Y-106495000D01*
X167810804Y-106490953D01*
X167816764Y-106439591D01*
X167824511Y-106422043D01*
X167829030Y-106399329D01*
X167845278Y-106375010D01*
X167854465Y-106354206D01*
X167868674Y-106339996D01*
X167883223Y-106318223D01*
X167904996Y-106303674D01*
X167919206Y-106289465D01*
X167940010Y-106280278D01*
X167964329Y-106264030D01*
X167987043Y-106259511D01*
X168004591Y-106251764D01*
X168055952Y-106245805D01*
X168060000Y-106245000D01*
X168560000Y-106245000D01*
X168564047Y-106245805D01*
G37*
G36*
X141532419Y-102459357D02*
G01*
X141583780Y-102465316D01*
X141601326Y-102473063D01*
X141624043Y-102477582D01*
X141648363Y-102493832D01*
X141669165Y-102503017D01*
X141683372Y-102517224D01*
X141705149Y-102531775D01*
X141719699Y-102553551D01*
X141733906Y-102567758D01*
X141743090Y-102588558D01*
X141759342Y-102612881D01*
X141763861Y-102635600D01*
X141771607Y-102653143D01*
X141777564Y-102704492D01*
X141778372Y-102708552D01*
X141778372Y-103608552D01*
X141777564Y-103612611D01*
X141771607Y-103663960D01*
X141763861Y-103681502D01*
X141759342Y-103704223D01*
X141743088Y-103728547D01*
X141733906Y-103749345D01*
X141719701Y-103763549D01*
X141705149Y-103785329D01*
X141683369Y-103799881D01*
X141669165Y-103814086D01*
X141648367Y-103823268D01*
X141624043Y-103839522D01*
X141601322Y-103844041D01*
X141583780Y-103851787D01*
X141532433Y-103857744D01*
X141528372Y-103858552D01*
X141003372Y-103858552D01*
X140999313Y-103857744D01*
X140947963Y-103851787D01*
X140930420Y-103844041D01*
X140907701Y-103839522D01*
X140883378Y-103823270D01*
X140862578Y-103814086D01*
X140848371Y-103799879D01*
X140826595Y-103785329D01*
X140812044Y-103763552D01*
X140797837Y-103749345D01*
X140788652Y-103728543D01*
X140772402Y-103704223D01*
X140767883Y-103681506D01*
X140760136Y-103663960D01*
X140754177Y-103612601D01*
X140753372Y-103608552D01*
X140753372Y-102708552D01*
X140754176Y-102704505D01*
X140760136Y-102653143D01*
X140767883Y-102635595D01*
X140772402Y-102612881D01*
X140788650Y-102588562D01*
X140797837Y-102567758D01*
X140812046Y-102553548D01*
X140826595Y-102531775D01*
X140848368Y-102517226D01*
X140862578Y-102503017D01*
X140883382Y-102493830D01*
X140907701Y-102477582D01*
X140930415Y-102473063D01*
X140947963Y-102465316D01*
X140999324Y-102459357D01*
X141003372Y-102458552D01*
X141528372Y-102458552D01*
X141532419Y-102459357D01*
G37*
G36*
X143357419Y-102459357D02*
G01*
X143408780Y-102465316D01*
X143426326Y-102473063D01*
X143449043Y-102477582D01*
X143473363Y-102493832D01*
X143494165Y-102503017D01*
X143508372Y-102517224D01*
X143530149Y-102531775D01*
X143544699Y-102553551D01*
X143558906Y-102567758D01*
X143568090Y-102588558D01*
X143584342Y-102612881D01*
X143588861Y-102635600D01*
X143596607Y-102653143D01*
X143602564Y-102704492D01*
X143603372Y-102708552D01*
X143603372Y-103608552D01*
X143602564Y-103612611D01*
X143596607Y-103663960D01*
X143588861Y-103681502D01*
X143584342Y-103704223D01*
X143568088Y-103728547D01*
X143558906Y-103749345D01*
X143544701Y-103763549D01*
X143530149Y-103785329D01*
X143508369Y-103799881D01*
X143494165Y-103814086D01*
X143473367Y-103823268D01*
X143449043Y-103839522D01*
X143426322Y-103844041D01*
X143408780Y-103851787D01*
X143357433Y-103857744D01*
X143353372Y-103858552D01*
X142828372Y-103858552D01*
X142824313Y-103857744D01*
X142772963Y-103851787D01*
X142755420Y-103844041D01*
X142732701Y-103839522D01*
X142708378Y-103823270D01*
X142687578Y-103814086D01*
X142673371Y-103799879D01*
X142651595Y-103785329D01*
X142637044Y-103763552D01*
X142622837Y-103749345D01*
X142613652Y-103728543D01*
X142597402Y-103704223D01*
X142592883Y-103681506D01*
X142585136Y-103663960D01*
X142579177Y-103612601D01*
X142578372Y-103608552D01*
X142578372Y-102708552D01*
X142579176Y-102704505D01*
X142585136Y-102653143D01*
X142592883Y-102635595D01*
X142597402Y-102612881D01*
X142613650Y-102588562D01*
X142622837Y-102567758D01*
X142637046Y-102553548D01*
X142651595Y-102531775D01*
X142673368Y-102517226D01*
X142687578Y-102503017D01*
X142708382Y-102493830D01*
X142732701Y-102477582D01*
X142755415Y-102473063D01*
X142772963Y-102465316D01*
X142824324Y-102459357D01*
X142828372Y-102458552D01*
X143353372Y-102458552D01*
X143357419Y-102459357D01*
G37*
G36*
X135910285Y-101423060D02*
G01*
X136091397Y-101498079D01*
X136254393Y-101606990D01*
X136393010Y-101745607D01*
X136501921Y-101908603D01*
X136576940Y-102089715D01*
X136615185Y-102281983D01*
X136615185Y-102478017D01*
X136576940Y-102670285D01*
X136501921Y-102851397D01*
X136393010Y-103014393D01*
X136254393Y-103153010D01*
X136091397Y-103261921D01*
X135910285Y-103336940D01*
X135718017Y-103375185D01*
X135521983Y-103375185D01*
X135329715Y-103336940D01*
X135148603Y-103261921D01*
X134985607Y-103153010D01*
X134846990Y-103014393D01*
X134738079Y-102851397D01*
X134663060Y-102670285D01*
X134624815Y-102478017D01*
X134624815Y-102281983D01*
X134663060Y-102089715D01*
X134738079Y-101908603D01*
X134846990Y-101745607D01*
X134985607Y-101606990D01*
X135148603Y-101498079D01*
X135329715Y-101423060D01*
X135521983Y-101384815D01*
X135718017Y-101384815D01*
X135910285Y-101423060D01*
G37*
G36*
X199342228Y-101104448D02*
G01*
X199487117Y-101164463D01*
X199617515Y-101251592D01*
X199728408Y-101362485D01*
X199815537Y-101492883D01*
X199875552Y-101637772D01*
X199906148Y-101791586D01*
X199906148Y-101948414D01*
X199875552Y-102102228D01*
X199815537Y-102247117D01*
X199728408Y-102377515D01*
X199617515Y-102488408D01*
X199487117Y-102575537D01*
X199342228Y-102635552D01*
X199188414Y-102666148D01*
X199031586Y-102666148D01*
X198877772Y-102635552D01*
X198732883Y-102575537D01*
X198602485Y-102488408D01*
X198491592Y-102377515D01*
X198404463Y-102247117D01*
X198344448Y-102102228D01*
X198313852Y-101948414D01*
X198313852Y-101791586D01*
X198344448Y-101637772D01*
X198404463Y-101492883D01*
X198491592Y-101362485D01*
X198602485Y-101251592D01*
X198732883Y-101164463D01*
X198877772Y-101104448D01*
X199031586Y-101073852D01*
X199188414Y-101073852D01*
X199342228Y-101104448D01*
G37*
G36*
X234902228Y-101104448D02*
G01*
X235047117Y-101164463D01*
X235177515Y-101251592D01*
X235288408Y-101362485D01*
X235375537Y-101492883D01*
X235435552Y-101637772D01*
X235466148Y-101791586D01*
X235466148Y-101948414D01*
X235435552Y-102102228D01*
X235375537Y-102247117D01*
X235288408Y-102377515D01*
X235177515Y-102488408D01*
X235047117Y-102575537D01*
X234902228Y-102635552D01*
X234748414Y-102666148D01*
X234591586Y-102666148D01*
X234437772Y-102635552D01*
X234292883Y-102575537D01*
X234162485Y-102488408D01*
X234051592Y-102377515D01*
X233964463Y-102247117D01*
X233904448Y-102102228D01*
X233873852Y-101948414D01*
X233873852Y-101791586D01*
X233904448Y-101637772D01*
X233964463Y-101492883D01*
X234051592Y-101362485D01*
X234162485Y-101251592D01*
X234292883Y-101164463D01*
X234437772Y-101104448D01*
X234591586Y-101073852D01*
X234748414Y-101073852D01*
X234902228Y-101104448D01*
G37*
G36*
X241631256Y-99548754D02*
G01*
X241794257Y-99616271D01*
X241940954Y-99714291D01*
X242065709Y-99839046D01*
X242163729Y-99985743D01*
X242231246Y-100148744D01*
X242265666Y-100321785D01*
X242265666Y-100498215D01*
X242231246Y-100671256D01*
X242163729Y-100834257D01*
X242065709Y-100980954D01*
X241940954Y-101105709D01*
X241794257Y-101203729D01*
X241631256Y-101271246D01*
X241458215Y-101305666D01*
X241281785Y-101305666D01*
X241108744Y-101271246D01*
X240945743Y-101203729D01*
X240799046Y-101105709D01*
X240674291Y-100980954D01*
X240576271Y-100834257D01*
X240508754Y-100671256D01*
X240474334Y-100498215D01*
X240474334Y-100321785D01*
X240508754Y-100148744D01*
X240576271Y-99985743D01*
X240674291Y-99839046D01*
X240799046Y-99714291D01*
X240945743Y-99616271D01*
X241108744Y-99548754D01*
X241281785Y-99514334D01*
X241458215Y-99514334D01*
X241631256Y-99548754D01*
G37*
G36*
X135910285Y-96343060D02*
G01*
X136091397Y-96418079D01*
X136254393Y-96526990D01*
X136393010Y-96665607D01*
X136501921Y-96828603D01*
X136576940Y-97009715D01*
X136615185Y-97201983D01*
X136615185Y-97398017D01*
X136576940Y-97590285D01*
X136501921Y-97771397D01*
X136393010Y-97934393D01*
X136254393Y-98073010D01*
X136091397Y-98181921D01*
X135910285Y-98256940D01*
X135718017Y-98295185D01*
X135521983Y-98295185D01*
X135329715Y-98256940D01*
X135148603Y-98181921D01*
X134985607Y-98073010D01*
X134846990Y-97934393D01*
X134738079Y-97771397D01*
X134663060Y-97590285D01*
X134624815Y-97398017D01*
X134624815Y-97201983D01*
X134663060Y-97009715D01*
X134738079Y-96828603D01*
X134846990Y-96665607D01*
X134985607Y-96526990D01*
X135148603Y-96418079D01*
X135329715Y-96343060D01*
X135521983Y-96304815D01*
X135718017Y-96304815D01*
X135910285Y-96343060D01*
G37*
G36*
X141564047Y-96860805D02*
G01*
X141615408Y-96866764D01*
X141632954Y-96874511D01*
X141655671Y-96879030D01*
X141679991Y-96895280D01*
X141700793Y-96904465D01*
X141715000Y-96918672D01*
X141736777Y-96933223D01*
X141751327Y-96954999D01*
X141765534Y-96969206D01*
X141774718Y-96990006D01*
X141790970Y-97014329D01*
X141795489Y-97037048D01*
X141803235Y-97054591D01*
X141809192Y-97105940D01*
X141810000Y-97110000D01*
X141810000Y-98010000D01*
X141809192Y-98014059D01*
X141803235Y-98065408D01*
X141795489Y-98082950D01*
X141790970Y-98105671D01*
X141774716Y-98129995D01*
X141765534Y-98150793D01*
X141751329Y-98164997D01*
X141736777Y-98186777D01*
X141714997Y-98201329D01*
X141700793Y-98215534D01*
X141679995Y-98224716D01*
X141655671Y-98240970D01*
X141632950Y-98245489D01*
X141615408Y-98253235D01*
X141564061Y-98259192D01*
X141560000Y-98260000D01*
X141035000Y-98260000D01*
X141030941Y-98259192D01*
X140979591Y-98253235D01*
X140962048Y-98245489D01*
X140939329Y-98240970D01*
X140915006Y-98224718D01*
X140894206Y-98215534D01*
X140879999Y-98201327D01*
X140858223Y-98186777D01*
X140843672Y-98165000D01*
X140829465Y-98150793D01*
X140820280Y-98129991D01*
X140804030Y-98105671D01*
X140799511Y-98082954D01*
X140791764Y-98065408D01*
X140785805Y-98014049D01*
X140785000Y-98010000D01*
X140785000Y-97110000D01*
X140785804Y-97105953D01*
X140791764Y-97054591D01*
X140799511Y-97037043D01*
X140804030Y-97014329D01*
X140820278Y-96990010D01*
X140829465Y-96969206D01*
X140843674Y-96954996D01*
X140858223Y-96933223D01*
X140879996Y-96918674D01*
X140894206Y-96904465D01*
X140915010Y-96895278D01*
X140939329Y-96879030D01*
X140962043Y-96874511D01*
X140979591Y-96866764D01*
X141030952Y-96860805D01*
X141035000Y-96860000D01*
X141560000Y-96860000D01*
X141564047Y-96860805D01*
G37*
G36*
X143389047Y-96860805D02*
G01*
X143440408Y-96866764D01*
X143457954Y-96874511D01*
X143480671Y-96879030D01*
X143504991Y-96895280D01*
X143525793Y-96904465D01*
X143540000Y-96918672D01*
X143561777Y-96933223D01*
X143576327Y-96954999D01*
X143590534Y-96969206D01*
X143599718Y-96990006D01*
X143615970Y-97014329D01*
X143620489Y-97037048D01*
X143628235Y-97054591D01*
X143634192Y-97105940D01*
X143635000Y-97110000D01*
X143635000Y-98010000D01*
X143634192Y-98014059D01*
X143628235Y-98065408D01*
X143620489Y-98082950D01*
X143615970Y-98105671D01*
X143599716Y-98129995D01*
X143590534Y-98150793D01*
X143576329Y-98164997D01*
X143561777Y-98186777D01*
X143539997Y-98201329D01*
X143525793Y-98215534D01*
X143504995Y-98224716D01*
X143480671Y-98240970D01*
X143457950Y-98245489D01*
X143440408Y-98253235D01*
X143389061Y-98259192D01*
X143385000Y-98260000D01*
X142860000Y-98260000D01*
X142855941Y-98259192D01*
X142804591Y-98253235D01*
X142787048Y-98245489D01*
X142764329Y-98240970D01*
X142740006Y-98224718D01*
X142719206Y-98215534D01*
X142704999Y-98201327D01*
X142683223Y-98186777D01*
X142668672Y-98165000D01*
X142654465Y-98150793D01*
X142645280Y-98129991D01*
X142629030Y-98105671D01*
X142624511Y-98082954D01*
X142616764Y-98065408D01*
X142610805Y-98014049D01*
X142610000Y-98010000D01*
X142610000Y-97110000D01*
X142610804Y-97105953D01*
X142616764Y-97054591D01*
X142624511Y-97037043D01*
X142629030Y-97014329D01*
X142645278Y-96990010D01*
X142654465Y-96969206D01*
X142668674Y-96954996D01*
X142683223Y-96933223D01*
X142704996Y-96918674D01*
X142719206Y-96904465D01*
X142740010Y-96895278D01*
X142764329Y-96879030D01*
X142787043Y-96874511D01*
X142804591Y-96866764D01*
X142855952Y-96860805D01*
X142860000Y-96860000D01*
X143385000Y-96860000D01*
X143389047Y-96860805D01*
G37*
G36*
X241631256Y-94468754D02*
G01*
X241794257Y-94536271D01*
X241940954Y-94634291D01*
X242065709Y-94759046D01*
X242163729Y-94905743D01*
X242231246Y-95068744D01*
X242265666Y-95241785D01*
X242265666Y-95418215D01*
X242231246Y-95591256D01*
X242163729Y-95754257D01*
X242065709Y-95900954D01*
X241940954Y-96025709D01*
X241794257Y-96123729D01*
X241631256Y-96191246D01*
X241458215Y-96225666D01*
X241281785Y-96225666D01*
X241108744Y-96191246D01*
X240945743Y-96123729D01*
X240799046Y-96025709D01*
X240674291Y-95900954D01*
X240576271Y-95754257D01*
X240508754Y-95591256D01*
X240474334Y-95418215D01*
X240474334Y-95241785D01*
X240508754Y-95068744D01*
X240576271Y-94905743D01*
X240674291Y-94759046D01*
X240799046Y-94634291D01*
X240945743Y-94536271D01*
X241108744Y-94468754D01*
X241281785Y-94434334D01*
X241458215Y-94434334D01*
X241631256Y-94468754D01*
G37*
G36*
X133764047Y-92845805D02*
G01*
X133815408Y-92851764D01*
X133832954Y-92859511D01*
X133855671Y-92864030D01*
X133879991Y-92880280D01*
X133900793Y-92889465D01*
X133915000Y-92903672D01*
X133936777Y-92918223D01*
X133951327Y-92939999D01*
X133965534Y-92954206D01*
X133974718Y-92975006D01*
X133990970Y-92999329D01*
X133995489Y-93022048D01*
X134003235Y-93039591D01*
X134009192Y-93090940D01*
X134010000Y-93095000D01*
X134010000Y-94045000D01*
X134009192Y-94049059D01*
X134003235Y-94100408D01*
X133995489Y-94117950D01*
X133990970Y-94140671D01*
X133974716Y-94164995D01*
X133965534Y-94185793D01*
X133951329Y-94199997D01*
X133936777Y-94221777D01*
X133914997Y-94236329D01*
X133900793Y-94250534D01*
X133879995Y-94259716D01*
X133855671Y-94275970D01*
X133832950Y-94280489D01*
X133815408Y-94288235D01*
X133764061Y-94294192D01*
X133760000Y-94295000D01*
X133260000Y-94295000D01*
X133255941Y-94294192D01*
X133204591Y-94288235D01*
X133187048Y-94280489D01*
X133164329Y-94275970D01*
X133140006Y-94259718D01*
X133119206Y-94250534D01*
X133104999Y-94236327D01*
X133083223Y-94221777D01*
X133068672Y-94200000D01*
X133054465Y-94185793D01*
X133045280Y-94164991D01*
X133029030Y-94140671D01*
X133024511Y-94117954D01*
X133016764Y-94100408D01*
X133010805Y-94049049D01*
X133010000Y-94045000D01*
X133010000Y-93095000D01*
X133010804Y-93090953D01*
X133016764Y-93039591D01*
X133024511Y-93022043D01*
X133029030Y-92999329D01*
X133045278Y-92975010D01*
X133054465Y-92954206D01*
X133068674Y-92939996D01*
X133083223Y-92918223D01*
X133104996Y-92903674D01*
X133119206Y-92889465D01*
X133140010Y-92880278D01*
X133164329Y-92864030D01*
X133187043Y-92859511D01*
X133204591Y-92851764D01*
X133255952Y-92845805D01*
X133260000Y-92845000D01*
X133760000Y-92845000D01*
X133764047Y-92845805D01*
G37*
G36*
X135664047Y-92845805D02*
G01*
X135715408Y-92851764D01*
X135732954Y-92859511D01*
X135755671Y-92864030D01*
X135779991Y-92880280D01*
X135800793Y-92889465D01*
X135815000Y-92903672D01*
X135836777Y-92918223D01*
X135851327Y-92939999D01*
X135865534Y-92954206D01*
X135874718Y-92975006D01*
X135890970Y-92999329D01*
X135895489Y-93022048D01*
X135903235Y-93039591D01*
X135909192Y-93090940D01*
X135910000Y-93095000D01*
X135910000Y-94045000D01*
X135909192Y-94049059D01*
X135903235Y-94100408D01*
X135895489Y-94117950D01*
X135890970Y-94140671D01*
X135874716Y-94164995D01*
X135865534Y-94185793D01*
X135851329Y-94199997D01*
X135836777Y-94221777D01*
X135814997Y-94236329D01*
X135800793Y-94250534D01*
X135779995Y-94259716D01*
X135755671Y-94275970D01*
X135732950Y-94280489D01*
X135715408Y-94288235D01*
X135664061Y-94294192D01*
X135660000Y-94295000D01*
X135160000Y-94295000D01*
X135155941Y-94294192D01*
X135104591Y-94288235D01*
X135087048Y-94280489D01*
X135064329Y-94275970D01*
X135040006Y-94259718D01*
X135019206Y-94250534D01*
X135004999Y-94236327D01*
X134983223Y-94221777D01*
X134968672Y-94200000D01*
X134954465Y-94185793D01*
X134945280Y-94164991D01*
X134929030Y-94140671D01*
X134924511Y-94117954D01*
X134916764Y-94100408D01*
X134910805Y-94049049D01*
X134910000Y-94045000D01*
X134910000Y-93095000D01*
X134910804Y-93090953D01*
X134916764Y-93039591D01*
X134924511Y-93022043D01*
X134929030Y-92999329D01*
X134945278Y-92975010D01*
X134954465Y-92954206D01*
X134968674Y-92939996D01*
X134983223Y-92918223D01*
X135004996Y-92903674D01*
X135019206Y-92889465D01*
X135040010Y-92880278D01*
X135064329Y-92864030D01*
X135087043Y-92859511D01*
X135104591Y-92851764D01*
X135155952Y-92845805D01*
X135160000Y-92845000D01*
X135660000Y-92845000D01*
X135664047Y-92845805D01*
G37*
G36*
X199342228Y-90644448D02*
G01*
X199487117Y-90704463D01*
X199617515Y-90791592D01*
X199728408Y-90902485D01*
X199815537Y-91032883D01*
X199875552Y-91177772D01*
X199906148Y-91331586D01*
X199906148Y-91488414D01*
X199875552Y-91642228D01*
X199815537Y-91787117D01*
X199728408Y-91917515D01*
X199617515Y-92028408D01*
X199487117Y-92115537D01*
X199342228Y-92175552D01*
X199188414Y-92206148D01*
X199031586Y-92206148D01*
X198877772Y-92175552D01*
X198732883Y-92115537D01*
X198602485Y-92028408D01*
X198491592Y-91917515D01*
X198404463Y-91787117D01*
X198344448Y-91642228D01*
X198313852Y-91488414D01*
X198313852Y-91331586D01*
X198344448Y-91177772D01*
X198404463Y-91032883D01*
X198491592Y-90902485D01*
X198602485Y-90791592D01*
X198732883Y-90704463D01*
X198877772Y-90644448D01*
X199031586Y-90613852D01*
X199188414Y-90613852D01*
X199342228Y-90644448D01*
G37*
G36*
X234902228Y-90644448D02*
G01*
X235047117Y-90704463D01*
X235177515Y-90791592D01*
X235288408Y-90902485D01*
X235375537Y-91032883D01*
X235435552Y-91177772D01*
X235466148Y-91331586D01*
X235466148Y-91488414D01*
X235435552Y-91642228D01*
X235375537Y-91787117D01*
X235288408Y-91917515D01*
X235177515Y-92028408D01*
X235047117Y-92115537D01*
X234902228Y-92175552D01*
X234748414Y-92206148D01*
X234591586Y-92206148D01*
X234437772Y-92175552D01*
X234292883Y-92115537D01*
X234162485Y-92028408D01*
X234051592Y-91917515D01*
X233964463Y-91787117D01*
X233904448Y-91642228D01*
X233873852Y-91488414D01*
X233873852Y-91331586D01*
X233904448Y-91177772D01*
X233964463Y-91032883D01*
X234051592Y-90902485D01*
X234162485Y-90791592D01*
X234292883Y-90704463D01*
X234437772Y-90644448D01*
X234591586Y-90613852D01*
X234748414Y-90613852D01*
X234902228Y-90644448D01*
G37*
G36*
X239486547Y-89270805D02*
G01*
X239537908Y-89276764D01*
X239555454Y-89284511D01*
X239578171Y-89289030D01*
X239602491Y-89305280D01*
X239623293Y-89314465D01*
X239637500Y-89328672D01*
X239659277Y-89343223D01*
X239673827Y-89364999D01*
X239688034Y-89379206D01*
X239697218Y-89400006D01*
X239713470Y-89424329D01*
X239717989Y-89447048D01*
X239725735Y-89464591D01*
X239731692Y-89515940D01*
X239732500Y-89520000D01*
X239732500Y-90420000D01*
X239731692Y-90424059D01*
X239725735Y-90475408D01*
X239717989Y-90492950D01*
X239713470Y-90515671D01*
X239697216Y-90539995D01*
X239688034Y-90560793D01*
X239673829Y-90574997D01*
X239659277Y-90596777D01*
X239637497Y-90611329D01*
X239623293Y-90625534D01*
X239602495Y-90634716D01*
X239578171Y-90650970D01*
X239555450Y-90655489D01*
X239537908Y-90663235D01*
X239486561Y-90669192D01*
X239482500Y-90670000D01*
X238957500Y-90670000D01*
X238953441Y-90669192D01*
X238902091Y-90663235D01*
X238884548Y-90655489D01*
X238861829Y-90650970D01*
X238837506Y-90634718D01*
X238816706Y-90625534D01*
X238802499Y-90611327D01*
X238780723Y-90596777D01*
X238766172Y-90575000D01*
X238751965Y-90560793D01*
X238742780Y-90539991D01*
X238726530Y-90515671D01*
X238722011Y-90492954D01*
X238714264Y-90475408D01*
X238708305Y-90424049D01*
X238707500Y-90420000D01*
X238707500Y-89520000D01*
X238708304Y-89515953D01*
X238714264Y-89464591D01*
X238722011Y-89447043D01*
X238726530Y-89424329D01*
X238742778Y-89400010D01*
X238751965Y-89379206D01*
X238766174Y-89364996D01*
X238780723Y-89343223D01*
X238802496Y-89328674D01*
X238816706Y-89314465D01*
X238837510Y-89305278D01*
X238861829Y-89289030D01*
X238884543Y-89284511D01*
X238902091Y-89276764D01*
X238953452Y-89270805D01*
X238957500Y-89270000D01*
X239482500Y-89270000D01*
X239486547Y-89270805D01*
G37*
G36*
X241311547Y-89270805D02*
G01*
X241362908Y-89276764D01*
X241380454Y-89284511D01*
X241403171Y-89289030D01*
X241427491Y-89305280D01*
X241448293Y-89314465D01*
X241462500Y-89328672D01*
X241484277Y-89343223D01*
X241498827Y-89364999D01*
X241513034Y-89379206D01*
X241522218Y-89400006D01*
X241538470Y-89424329D01*
X241542989Y-89447048D01*
X241550735Y-89464591D01*
X241556692Y-89515940D01*
X241557500Y-89520000D01*
X241557500Y-90420000D01*
X241556692Y-90424059D01*
X241550735Y-90475408D01*
X241542989Y-90492950D01*
X241538470Y-90515671D01*
X241522216Y-90539995D01*
X241513034Y-90560793D01*
X241498829Y-90574997D01*
X241484277Y-90596777D01*
X241462497Y-90611329D01*
X241448293Y-90625534D01*
X241427495Y-90634716D01*
X241403171Y-90650970D01*
X241380450Y-90655489D01*
X241362908Y-90663235D01*
X241311561Y-90669192D01*
X241307500Y-90670000D01*
X240782500Y-90670000D01*
X240778441Y-90669192D01*
X240727091Y-90663235D01*
X240709548Y-90655489D01*
X240686829Y-90650970D01*
X240662506Y-90634718D01*
X240641706Y-90625534D01*
X240627499Y-90611327D01*
X240605723Y-90596777D01*
X240591172Y-90575000D01*
X240576965Y-90560793D01*
X240567780Y-90539991D01*
X240551530Y-90515671D01*
X240547011Y-90492954D01*
X240539264Y-90475408D01*
X240533305Y-90424049D01*
X240532500Y-90420000D01*
X240532500Y-89520000D01*
X240533304Y-89515953D01*
X240539264Y-89464591D01*
X240547011Y-89447043D01*
X240551530Y-89424329D01*
X240567778Y-89400010D01*
X240576965Y-89379206D01*
X240591174Y-89364996D01*
X240605723Y-89343223D01*
X240627496Y-89328674D01*
X240641706Y-89314465D01*
X240662510Y-89305278D01*
X240686829Y-89289030D01*
X240709543Y-89284511D01*
X240727091Y-89276764D01*
X240778452Y-89270805D01*
X240782500Y-89270000D01*
X241307500Y-89270000D01*
X241311547Y-89270805D01*
G37*
G36*
X245113805Y-88749117D02*
G01*
X245278193Y-88781816D01*
X245433044Y-88845957D01*
X245572406Y-88939076D01*
X245690924Y-89057594D01*
X245784043Y-89196956D01*
X245848184Y-89351807D01*
X245880883Y-89516195D01*
X245880883Y-89683805D01*
X245848184Y-89848193D01*
X245784043Y-90003044D01*
X245690924Y-90142406D01*
X245572406Y-90260924D01*
X245433044Y-90354043D01*
X245278193Y-90418184D01*
X245113805Y-90450883D01*
X245030000Y-90455000D01*
X245028768Y-90455000D01*
X244941232Y-90455000D01*
X244940000Y-90455000D01*
X244856195Y-90450883D01*
X244691807Y-90418184D01*
X244536956Y-90354043D01*
X244397594Y-90260924D01*
X244279076Y-90142406D01*
X244185957Y-90003044D01*
X244121816Y-89848193D01*
X244089117Y-89683805D01*
X244089117Y-89516195D01*
X244121816Y-89351807D01*
X244185957Y-89196956D01*
X244279076Y-89057594D01*
X244397594Y-88939076D01*
X244536956Y-88845957D01*
X244691807Y-88781816D01*
X244856195Y-88749117D01*
X244940000Y-88745000D01*
X245030000Y-88745000D01*
X245113805Y-88749117D01*
G37*
G36*
X241304048Y-86230805D02*
G01*
X241355410Y-86236764D01*
X241372958Y-86244512D01*
X241395671Y-86249030D01*
X241419983Y-86265275D01*
X241440793Y-86274463D01*
X241455006Y-86288676D01*
X241476777Y-86303223D01*
X241491323Y-86324993D01*
X241505536Y-86339206D01*
X241514723Y-86360013D01*
X241530970Y-86384329D01*
X241535487Y-86407042D01*
X241543235Y-86424589D01*
X241549196Y-86475965D01*
X241549999Y-86480000D01*
X241549999Y-86482881D01*
X241550000Y-86482890D01*
X241550000Y-87403782D01*
X241550000Y-88180001D01*
X241549194Y-88184050D01*
X241543235Y-88235410D01*
X241535488Y-88252954D01*
X241530970Y-88275671D01*
X241514722Y-88299987D01*
X241505536Y-88320793D01*
X241491325Y-88335003D01*
X241476777Y-88356777D01*
X241455003Y-88371325D01*
X241440793Y-88385536D01*
X241419987Y-88394722D01*
X241395671Y-88410970D01*
X241372955Y-88415488D01*
X241355410Y-88423235D01*
X241304036Y-88429196D01*
X241300000Y-88429999D01*
X241297117Y-88429999D01*
X241297109Y-88430000D01*
X239602891Y-88430000D01*
X239602890Y-88429999D01*
X239599999Y-88430000D01*
X239595950Y-88429194D01*
X239544589Y-88423235D01*
X239527043Y-88415488D01*
X239504329Y-88410970D01*
X239480013Y-88394723D01*
X239459206Y-88385536D01*
X239444993Y-88371323D01*
X239423223Y-88356777D01*
X239408676Y-88335006D01*
X239394463Y-88320793D01*
X239385275Y-88299983D01*
X239369030Y-88275671D01*
X239364512Y-88252959D01*
X239356764Y-88235410D01*
X239350803Y-88184034D01*
X239350001Y-88180000D01*
X239350000Y-88177117D01*
X239350000Y-88177109D01*
X239350000Y-86482890D01*
X239350000Y-86482889D01*
X239350000Y-86479999D01*
X239350804Y-86475952D01*
X239356764Y-86424589D01*
X239364512Y-86407039D01*
X239369030Y-86384329D01*
X239385273Y-86360018D01*
X239394463Y-86339206D01*
X239408678Y-86324990D01*
X239423223Y-86303223D01*
X239444990Y-86288678D01*
X239459206Y-86274463D01*
X239480018Y-86265273D01*
X239504329Y-86249030D01*
X239527038Y-86244513D01*
X239544589Y-86236764D01*
X239595965Y-86230803D01*
X239600000Y-86230001D01*
X239602882Y-86230000D01*
X239602891Y-86230000D01*
X241297109Y-86230000D01*
X241300001Y-86230000D01*
X241304048Y-86230805D01*
G37*
G36*
X230546790Y-86260393D02*
G01*
X230710952Y-86313733D01*
X230864748Y-86392096D01*
X231004393Y-86493553D01*
X231126447Y-86615607D01*
X231227904Y-86755252D01*
X231306267Y-86909048D01*
X231359607Y-87073210D01*
X231386609Y-87243695D01*
X231386609Y-87416305D01*
X231359607Y-87586790D01*
X231306267Y-87750952D01*
X231227904Y-87904748D01*
X231126447Y-88044393D01*
X231004393Y-88166447D01*
X230864748Y-88267904D01*
X230710952Y-88346267D01*
X230546790Y-88399607D01*
X230376305Y-88426609D01*
X230203695Y-88426609D01*
X230033210Y-88399607D01*
X229869048Y-88346267D01*
X229715252Y-88267904D01*
X229575607Y-88166447D01*
X229453553Y-88044393D01*
X229352096Y-87904748D01*
X229273733Y-87750952D01*
X229220393Y-87586790D01*
X229193391Y-87416305D01*
X229193391Y-87243695D01*
X229220393Y-87073210D01*
X229273733Y-86909048D01*
X229352096Y-86755252D01*
X229453553Y-86615607D01*
X229575607Y-86493553D01*
X229715252Y-86392096D01*
X229869048Y-86313733D01*
X230033210Y-86260393D01*
X230203695Y-86233391D01*
X230376305Y-86233391D01*
X230546790Y-86260393D01*
G37*
G36*
X245113805Y-86469117D02*
G01*
X245278193Y-86501816D01*
X245433044Y-86565957D01*
X245572406Y-86659076D01*
X245690924Y-86777594D01*
X245784043Y-86916956D01*
X245848184Y-87071807D01*
X245880883Y-87236195D01*
X245880883Y-87403805D01*
X245848184Y-87568193D01*
X245784043Y-87723044D01*
X245690924Y-87862406D01*
X245572406Y-87980924D01*
X245433044Y-88074043D01*
X245278193Y-88138184D01*
X245113805Y-88170883D01*
X245030000Y-88175000D01*
X245028768Y-88175000D01*
X244941232Y-88175000D01*
X244940000Y-88175000D01*
X244856195Y-88170883D01*
X244691807Y-88138184D01*
X244536956Y-88074043D01*
X244397594Y-87980924D01*
X244279076Y-87862406D01*
X244185957Y-87723044D01*
X244121816Y-87568193D01*
X244089117Y-87403805D01*
X244089117Y-87236195D01*
X244121816Y-87071807D01*
X244185957Y-86916956D01*
X244279076Y-86777594D01*
X244397594Y-86659076D01*
X244536956Y-86565957D01*
X244691807Y-86501816D01*
X244856195Y-86469117D01*
X244940000Y-86465000D01*
X245030000Y-86465000D01*
X245113805Y-86469117D01*
G37*
G36*
X245885000Y-85895000D02*
G01*
X244085000Y-85895000D01*
X244085000Y-84185000D01*
X245885000Y-84185000D01*
X245885000Y-85895000D01*
G37*
G36*
X241294048Y-82900805D02*
G01*
X241345410Y-82906764D01*
X241362958Y-82914512D01*
X241385671Y-82919030D01*
X241409983Y-82935275D01*
X241430793Y-82944463D01*
X241445006Y-82958676D01*
X241466777Y-82973223D01*
X241481323Y-82994993D01*
X241495536Y-83009206D01*
X241504723Y-83030013D01*
X241520970Y-83054329D01*
X241525487Y-83077042D01*
X241533235Y-83094589D01*
X241539196Y-83145965D01*
X241539999Y-83150000D01*
X241539999Y-83152881D01*
X241540000Y-83152890D01*
X241540000Y-84086295D01*
X241540000Y-84850001D01*
X241539194Y-84854050D01*
X241533235Y-84905410D01*
X241525488Y-84922954D01*
X241520970Y-84945671D01*
X241504722Y-84969987D01*
X241495536Y-84990793D01*
X241481325Y-85005003D01*
X241466777Y-85026777D01*
X241445003Y-85041325D01*
X241430793Y-85055536D01*
X241409987Y-85064722D01*
X241385671Y-85080970D01*
X241362955Y-85085488D01*
X241345410Y-85093235D01*
X241294036Y-85099196D01*
X241290000Y-85099999D01*
X241287117Y-85099999D01*
X241287109Y-85100000D01*
X239592891Y-85100000D01*
X239592890Y-85099999D01*
X239589999Y-85100000D01*
X239585950Y-85099194D01*
X239534589Y-85093235D01*
X239517043Y-85085488D01*
X239494329Y-85080970D01*
X239470013Y-85064723D01*
X239449206Y-85055536D01*
X239434993Y-85041323D01*
X239413223Y-85026777D01*
X239398676Y-85005006D01*
X239384463Y-84990793D01*
X239375275Y-84969983D01*
X239359030Y-84945671D01*
X239354512Y-84922959D01*
X239346764Y-84905410D01*
X239340803Y-84854034D01*
X239340001Y-84850000D01*
X239340000Y-84847117D01*
X239340000Y-84847109D01*
X239340000Y-83152890D01*
X239340000Y-83152889D01*
X239340000Y-83149999D01*
X239340804Y-83145952D01*
X239346764Y-83094589D01*
X239354512Y-83077039D01*
X239359030Y-83054329D01*
X239375273Y-83030018D01*
X239384463Y-83009206D01*
X239398678Y-82994990D01*
X239413223Y-82973223D01*
X239434990Y-82958678D01*
X239449206Y-82944463D01*
X239470018Y-82935273D01*
X239494329Y-82919030D01*
X239517038Y-82914513D01*
X239534589Y-82906764D01*
X239585965Y-82900803D01*
X239590000Y-82900001D01*
X239592882Y-82900000D01*
X239592891Y-82900000D01*
X241287109Y-82900000D01*
X241290001Y-82900000D01*
X241294048Y-82900805D01*
G37*
G36*
X230536790Y-82930393D02*
G01*
X230700952Y-82983733D01*
X230854748Y-83062096D01*
X230994393Y-83163553D01*
X231116447Y-83285607D01*
X231217904Y-83425252D01*
X231296267Y-83579048D01*
X231349607Y-83743210D01*
X231376609Y-83913695D01*
X231376609Y-84086305D01*
X231349607Y-84256790D01*
X231296267Y-84420952D01*
X231217904Y-84574748D01*
X231116447Y-84714393D01*
X230994393Y-84836447D01*
X230854748Y-84937904D01*
X230700952Y-85016267D01*
X230536790Y-85069607D01*
X230366305Y-85096609D01*
X230193695Y-85096609D01*
X230023210Y-85069607D01*
X229859048Y-85016267D01*
X229705252Y-84937904D01*
X229565607Y-84836447D01*
X229443553Y-84714393D01*
X229342096Y-84574748D01*
X229263733Y-84420952D01*
X229210393Y-84256790D01*
X229183391Y-84086305D01*
X229183391Y-83913695D01*
X229210393Y-83743210D01*
X229263733Y-83579048D01*
X229342096Y-83425252D01*
X229443553Y-83285607D01*
X229565607Y-83163553D01*
X229705252Y-83062096D01*
X229859048Y-82983733D01*
X230023210Y-82930393D01*
X230193695Y-82903391D01*
X230366305Y-82903391D01*
X230536790Y-82930393D01*
G37*
G36*
X138361408Y-79953626D02*
G01*
X138582519Y-80012872D01*
X138794005Y-80100473D01*
X138992248Y-80214928D01*
X139173855Y-80354280D01*
X139335720Y-80516145D01*
X139475072Y-80697752D01*
X139589527Y-80895995D01*
X139677128Y-81107481D01*
X139736374Y-81328592D01*
X139766253Y-81555545D01*
X139766253Y-81784455D01*
X139736374Y-82011408D01*
X139677128Y-82232519D01*
X139589527Y-82444005D01*
X139475072Y-82642248D01*
X139335720Y-82823855D01*
X139173855Y-82985720D01*
X138992248Y-83125072D01*
X138794005Y-83239527D01*
X138582519Y-83327128D01*
X138361408Y-83386374D01*
X138134455Y-83416253D01*
X137905545Y-83416253D01*
X137678592Y-83386374D01*
X137457481Y-83327128D01*
X137245995Y-83239527D01*
X137047752Y-83125072D01*
X136866145Y-82985720D01*
X136704280Y-82823855D01*
X136564928Y-82642248D01*
X136450473Y-82444005D01*
X136362872Y-82232519D01*
X136303626Y-82011408D01*
X136273747Y-81784455D01*
X136273747Y-81555545D01*
X136303626Y-81328592D01*
X136362872Y-81107481D01*
X136450473Y-80895995D01*
X136564928Y-80697752D01*
X136704280Y-80516145D01*
X136866145Y-80354280D01*
X137047752Y-80214928D01*
X137245995Y-80100473D01*
X137457481Y-80012872D01*
X137678592Y-79953626D01*
X137905545Y-79923747D01*
X138134455Y-79923747D01*
X138361408Y-79953626D01*
G37*
G36*
X148361408Y-79953626D02*
G01*
X148582519Y-80012872D01*
X148794005Y-80100473D01*
X148992248Y-80214928D01*
X149173855Y-80354280D01*
X149335720Y-80516145D01*
X149475072Y-80697752D01*
X149589527Y-80895995D01*
X149677128Y-81107481D01*
X149736374Y-81328592D01*
X149766253Y-81555545D01*
X149766253Y-81784455D01*
X149736374Y-82011408D01*
X149677128Y-82232519D01*
X149589527Y-82444005D01*
X149475072Y-82642248D01*
X149335720Y-82823855D01*
X149173855Y-82985720D01*
X148992248Y-83125072D01*
X148794005Y-83239527D01*
X148582519Y-83327128D01*
X148361408Y-83386374D01*
X148134455Y-83416253D01*
X147905545Y-83416253D01*
X147678592Y-83386374D01*
X147457481Y-83327128D01*
X147245995Y-83239527D01*
X147047752Y-83125072D01*
X146866145Y-82985720D01*
X146704280Y-82823855D01*
X146564928Y-82642248D01*
X146450473Y-82444005D01*
X146362872Y-82232519D01*
X146303626Y-82011408D01*
X146273747Y-81784455D01*
X146273747Y-81555545D01*
X146303626Y-81328592D01*
X146362872Y-81107481D01*
X146450473Y-80895995D01*
X146564928Y-80697752D01*
X146704280Y-80516145D01*
X146866145Y-80354280D01*
X147047752Y-80214928D01*
X147245995Y-80100473D01*
X147457481Y-80012872D01*
X147678592Y-79953626D01*
X147905545Y-79923747D01*
X148134455Y-79923747D01*
X148361408Y-79953626D01*
G37*
G36*
X164211408Y-78883626D02*
G01*
X164432519Y-78942872D01*
X164644005Y-79030473D01*
X164842248Y-79144928D01*
X165023855Y-79284280D01*
X165185720Y-79446145D01*
X165325072Y-79627752D01*
X165439527Y-79825995D01*
X165527128Y-80037481D01*
X165586374Y-80258592D01*
X165616253Y-80485545D01*
X165616253Y-80714455D01*
X165586374Y-80941408D01*
X165527128Y-81162519D01*
X165439527Y-81374005D01*
X165325072Y-81572248D01*
X165185720Y-81753855D01*
X165023855Y-81915720D01*
X164842248Y-82055072D01*
X164644005Y-82169527D01*
X164432519Y-82257128D01*
X164211408Y-82316374D01*
X163984455Y-82346253D01*
X163755545Y-82346253D01*
X163528592Y-82316374D01*
X163307481Y-82257128D01*
X163095995Y-82169527D01*
X162897752Y-82055072D01*
X162716145Y-81915720D01*
X162554280Y-81753855D01*
X162414928Y-81572248D01*
X162300473Y-81374005D01*
X162212872Y-81162519D01*
X162153626Y-80941408D01*
X162123747Y-80714455D01*
X162123747Y-80485545D01*
X162153626Y-80258592D01*
X162212872Y-80037481D01*
X162300473Y-79825995D01*
X162414928Y-79627752D01*
X162554280Y-79446145D01*
X162716145Y-79284280D01*
X162897752Y-79144928D01*
X163095995Y-79030473D01*
X163307481Y-78942872D01*
X163528592Y-78883626D01*
X163755545Y-78853747D01*
X163984455Y-78853747D01*
X164211408Y-78883626D01*
G37*
G36*
X174211408Y-78883626D02*
G01*
X174432519Y-78942872D01*
X174644005Y-79030473D01*
X174842248Y-79144928D01*
X175023855Y-79284280D01*
X175185720Y-79446145D01*
X175325072Y-79627752D01*
X175439527Y-79825995D01*
X175527128Y-80037481D01*
X175586374Y-80258592D01*
X175616253Y-80485545D01*
X175616253Y-80714455D01*
X175586374Y-80941408D01*
X175527128Y-81162519D01*
X175439527Y-81374005D01*
X175325072Y-81572248D01*
X175185720Y-81753855D01*
X175023855Y-81915720D01*
X174842248Y-82055072D01*
X174644005Y-82169527D01*
X174432519Y-82257128D01*
X174211408Y-82316374D01*
X173984455Y-82346253D01*
X173755545Y-82346253D01*
X173528592Y-82316374D01*
X173307481Y-82257128D01*
X173095995Y-82169527D01*
X172897752Y-82055072D01*
X172716145Y-81915720D01*
X172554280Y-81753855D01*
X172414928Y-81572248D01*
X172300473Y-81374005D01*
X172212872Y-81162519D01*
X172153626Y-80941408D01*
X172123747Y-80714455D01*
X172123747Y-80485545D01*
X172153626Y-80258592D01*
X172212872Y-80037481D01*
X172300473Y-79825995D01*
X172414928Y-79627752D01*
X172554280Y-79446145D01*
X172716145Y-79284280D01*
X172897752Y-79144928D01*
X173095995Y-79030473D01*
X173307481Y-78942872D01*
X173528592Y-78883626D01*
X173755545Y-78853747D01*
X173984455Y-78853747D01*
X174211408Y-78883626D01*
G37*
G36*
X234824047Y-80260805D02*
G01*
X234875408Y-80266764D01*
X234892954Y-80274511D01*
X234915671Y-80279030D01*
X234939991Y-80295280D01*
X234960793Y-80304465D01*
X234975000Y-80318672D01*
X234996777Y-80333223D01*
X235011327Y-80354999D01*
X235025534Y-80369206D01*
X235034718Y-80390006D01*
X235050970Y-80414329D01*
X235055489Y-80437048D01*
X235063235Y-80454591D01*
X235069192Y-80505940D01*
X235070000Y-80510000D01*
X235070000Y-81810000D01*
X235069192Y-81814059D01*
X235063235Y-81865408D01*
X235055489Y-81882950D01*
X235050970Y-81905671D01*
X235034716Y-81929995D01*
X235025534Y-81950793D01*
X235011329Y-81964997D01*
X234996777Y-81986777D01*
X234974997Y-82001329D01*
X234960793Y-82015534D01*
X234939995Y-82024716D01*
X234915671Y-82040970D01*
X234892950Y-82045489D01*
X234875408Y-82053235D01*
X234824061Y-82059192D01*
X234820000Y-82060000D01*
X234170000Y-82060000D01*
X234165941Y-82059192D01*
X234114591Y-82053235D01*
X234097048Y-82045489D01*
X234074329Y-82040970D01*
X234050006Y-82024718D01*
X234029206Y-82015534D01*
X234014999Y-82001327D01*
X233993223Y-81986777D01*
X233978672Y-81965000D01*
X233964465Y-81950793D01*
X233955280Y-81929991D01*
X233939030Y-81905671D01*
X233934511Y-81882954D01*
X233926764Y-81865408D01*
X233920805Y-81814049D01*
X233920000Y-81810000D01*
X233920000Y-80510000D01*
X233920804Y-80505953D01*
X233926764Y-80454591D01*
X233934511Y-80437043D01*
X233939030Y-80414329D01*
X233955278Y-80390010D01*
X233964465Y-80369206D01*
X233978674Y-80354996D01*
X233993223Y-80333223D01*
X234014996Y-80318674D01*
X234029206Y-80304465D01*
X234050010Y-80295278D01*
X234074329Y-80279030D01*
X234097043Y-80274511D01*
X234114591Y-80266764D01*
X234165952Y-80260805D01*
X234170000Y-80260000D01*
X234820000Y-80260000D01*
X234824047Y-80260805D01*
G37*
G36*
X237774047Y-80260805D02*
G01*
X237825408Y-80266764D01*
X237842954Y-80274511D01*
X237865671Y-80279030D01*
X237889991Y-80295280D01*
X237910793Y-80304465D01*
X237925000Y-80318672D01*
X237946777Y-80333223D01*
X237961327Y-80354999D01*
X237975534Y-80369206D01*
X237984718Y-80390006D01*
X238000970Y-80414329D01*
X238005489Y-80437048D01*
X238013235Y-80454591D01*
X238019192Y-80505940D01*
X238020000Y-80510000D01*
X238020000Y-81810000D01*
X238019192Y-81814059D01*
X238013235Y-81865408D01*
X238005489Y-81882950D01*
X238000970Y-81905671D01*
X237984716Y-81929995D01*
X237975534Y-81950793D01*
X237961329Y-81964997D01*
X237946777Y-81986777D01*
X237924997Y-82001329D01*
X237910793Y-82015534D01*
X237889995Y-82024716D01*
X237865671Y-82040970D01*
X237842950Y-82045489D01*
X237825408Y-82053235D01*
X237774061Y-82059192D01*
X237770000Y-82060000D01*
X237120000Y-82060000D01*
X237115941Y-82059192D01*
X237064591Y-82053235D01*
X237047048Y-82045489D01*
X237024329Y-82040970D01*
X237000006Y-82024718D01*
X236979206Y-82015534D01*
X236964999Y-82001327D01*
X236943223Y-81986777D01*
X236928672Y-81965000D01*
X236914465Y-81950793D01*
X236905280Y-81929991D01*
X236889030Y-81905671D01*
X236884511Y-81882954D01*
X236876764Y-81865408D01*
X236870805Y-81814049D01*
X236870000Y-81810000D01*
X236870000Y-80510000D01*
X236870804Y-80505953D01*
X236876764Y-80454591D01*
X236884511Y-80437043D01*
X236889030Y-80414329D01*
X236905278Y-80390010D01*
X236914465Y-80369206D01*
X236928674Y-80354996D01*
X236943223Y-80333223D01*
X236964996Y-80318674D01*
X236979206Y-80304465D01*
X237000010Y-80295278D01*
X237024329Y-80279030D01*
X237047043Y-80274511D01*
X237064591Y-80266764D01*
X237115952Y-80260805D01*
X237120000Y-80260000D01*
X237770000Y-80260000D01*
X237774047Y-80260805D01*
G37*
G36*
X239424047Y-80640805D02*
G01*
X239475408Y-80646764D01*
X239492954Y-80654511D01*
X239515671Y-80659030D01*
X239539991Y-80675280D01*
X239560793Y-80684465D01*
X239575000Y-80698672D01*
X239596777Y-80713223D01*
X239611327Y-80734999D01*
X239625534Y-80749206D01*
X239634718Y-80770006D01*
X239650970Y-80794329D01*
X239655489Y-80817048D01*
X239663235Y-80834591D01*
X239669192Y-80885940D01*
X239670000Y-80890000D01*
X239670000Y-81790000D01*
X239669192Y-81794059D01*
X239663235Y-81845408D01*
X239655489Y-81862950D01*
X239650970Y-81885671D01*
X239634716Y-81909995D01*
X239625534Y-81930793D01*
X239611329Y-81944997D01*
X239596777Y-81966777D01*
X239574997Y-81981329D01*
X239560793Y-81995534D01*
X239539995Y-82004716D01*
X239515671Y-82020970D01*
X239492950Y-82025489D01*
X239475408Y-82033235D01*
X239424061Y-82039192D01*
X239420000Y-82040000D01*
X238895000Y-82040000D01*
X238890941Y-82039192D01*
X238839591Y-82033235D01*
X238822048Y-82025489D01*
X238799329Y-82020970D01*
X238775006Y-82004718D01*
X238754206Y-81995534D01*
X238739999Y-81981327D01*
X238718223Y-81966777D01*
X238703672Y-81945000D01*
X238689465Y-81930793D01*
X238680280Y-81909991D01*
X238664030Y-81885671D01*
X238659511Y-81862954D01*
X238651764Y-81845408D01*
X238645805Y-81794049D01*
X238645000Y-81790000D01*
X238645000Y-80890000D01*
X238645804Y-80885953D01*
X238651764Y-80834591D01*
X238659511Y-80817043D01*
X238664030Y-80794329D01*
X238680278Y-80770010D01*
X238689465Y-80749206D01*
X238703674Y-80734996D01*
X238718223Y-80713223D01*
X238739996Y-80698674D01*
X238754206Y-80684465D01*
X238775010Y-80675278D01*
X238799329Y-80659030D01*
X238822043Y-80654511D01*
X238839591Y-80646764D01*
X238890952Y-80640805D01*
X238895000Y-80640000D01*
X239420000Y-80640000D01*
X239424047Y-80640805D01*
G37*
G36*
X241249047Y-80640805D02*
G01*
X241300408Y-80646764D01*
X241317954Y-80654511D01*
X241340671Y-80659030D01*
X241364991Y-80675280D01*
X241385793Y-80684465D01*
X241400000Y-80698672D01*
X241421777Y-80713223D01*
X241436327Y-80734999D01*
X241450534Y-80749206D01*
X241459718Y-80770006D01*
X241475970Y-80794329D01*
X241480489Y-80817048D01*
X241488235Y-80834591D01*
X241494192Y-80885940D01*
X241495000Y-80890000D01*
X241495000Y-81790000D01*
X241494192Y-81794059D01*
X241488235Y-81845408D01*
X241480489Y-81862950D01*
X241475970Y-81885671D01*
X241459716Y-81909995D01*
X241450534Y-81930793D01*
X241436329Y-81944997D01*
X241421777Y-81966777D01*
X241399997Y-81981329D01*
X241385793Y-81995534D01*
X241364995Y-82004716D01*
X241340671Y-82020970D01*
X241317950Y-82025489D01*
X241300408Y-82033235D01*
X241249061Y-82039192D01*
X241245000Y-82040000D01*
X240720000Y-82040000D01*
X240715941Y-82039192D01*
X240664591Y-82033235D01*
X240647048Y-82025489D01*
X240624329Y-82020970D01*
X240600006Y-82004718D01*
X240579206Y-81995534D01*
X240564999Y-81981327D01*
X240543223Y-81966777D01*
X240528672Y-81945000D01*
X240514465Y-81930793D01*
X240505280Y-81909991D01*
X240489030Y-81885671D01*
X240484511Y-81862954D01*
X240476764Y-81845408D01*
X240470805Y-81794049D01*
X240470000Y-81790000D01*
X240470000Y-80890000D01*
X240470804Y-80885953D01*
X240476764Y-80834591D01*
X240484511Y-80817043D01*
X240489030Y-80794329D01*
X240505278Y-80770010D01*
X240514465Y-80749206D01*
X240528674Y-80734996D01*
X240543223Y-80713223D01*
X240564996Y-80698674D01*
X240579206Y-80684465D01*
X240600010Y-80675278D01*
X240624329Y-80659030D01*
X240647043Y-80654511D01*
X240664591Y-80646764D01*
X240715952Y-80640805D01*
X240720000Y-80640000D01*
X241245000Y-80640000D01*
X241249047Y-80640805D01*
G37*
G36*
X245073805Y-78859117D02*
G01*
X245238193Y-78891816D01*
X245393044Y-78955957D01*
X245532406Y-79049076D01*
X245650924Y-79167594D01*
X245744043Y-79306956D01*
X245808184Y-79461807D01*
X245840883Y-79626195D01*
X245840883Y-79793805D01*
X245808184Y-79958193D01*
X245744043Y-80113044D01*
X245650924Y-80252406D01*
X245532406Y-80370924D01*
X245393044Y-80464043D01*
X245238193Y-80528184D01*
X245073805Y-80560883D01*
X244990000Y-80565000D01*
X244988768Y-80565000D01*
X244901232Y-80565000D01*
X244900000Y-80565000D01*
X244816195Y-80560883D01*
X244651807Y-80528184D01*
X244496956Y-80464043D01*
X244357594Y-80370924D01*
X244239076Y-80252406D01*
X244145957Y-80113044D01*
X244081816Y-79958193D01*
X244049117Y-79793805D01*
X244049117Y-79626195D01*
X244081816Y-79461807D01*
X244145957Y-79306956D01*
X244239076Y-79167594D01*
X244357594Y-79049076D01*
X244496956Y-78955957D01*
X244651807Y-78891816D01*
X244816195Y-78859117D01*
X244900000Y-78855000D01*
X244990000Y-78855000D01*
X245073805Y-78859117D01*
G37*
G36*
X238299047Y-77850805D02*
G01*
X238350408Y-77856764D01*
X238367954Y-77864511D01*
X238390671Y-77869030D01*
X238414991Y-77885280D01*
X238435793Y-77894465D01*
X238450000Y-77908672D01*
X238471777Y-77923223D01*
X238486327Y-77944999D01*
X238500534Y-77959206D01*
X238509718Y-77980006D01*
X238525970Y-78004329D01*
X238530489Y-78027048D01*
X238538235Y-78044591D01*
X238544192Y-78095940D01*
X238545000Y-78100000D01*
X238545000Y-79400000D01*
X238544192Y-79404059D01*
X238538235Y-79455408D01*
X238530489Y-79472950D01*
X238525970Y-79495671D01*
X238509716Y-79519995D01*
X238500534Y-79540793D01*
X238486329Y-79554997D01*
X238471777Y-79576777D01*
X238449997Y-79591329D01*
X238435793Y-79605534D01*
X238414995Y-79614716D01*
X238390671Y-79630970D01*
X238367950Y-79635489D01*
X238350408Y-79643235D01*
X238299061Y-79649192D01*
X238295000Y-79650000D01*
X237645000Y-79650000D01*
X237640941Y-79649192D01*
X237589591Y-79643235D01*
X237572048Y-79635489D01*
X237549329Y-79630970D01*
X237525006Y-79614718D01*
X237504206Y-79605534D01*
X237489999Y-79591327D01*
X237468223Y-79576777D01*
X237453672Y-79555000D01*
X237439465Y-79540793D01*
X237430280Y-79519991D01*
X237414030Y-79495671D01*
X237409511Y-79472954D01*
X237401764Y-79455408D01*
X237395805Y-79404049D01*
X237395000Y-79400000D01*
X237395000Y-78100000D01*
X237395804Y-78095953D01*
X237401764Y-78044591D01*
X237409511Y-78027043D01*
X237414030Y-78004329D01*
X237430278Y-77980010D01*
X237439465Y-77959206D01*
X237453674Y-77944996D01*
X237468223Y-77923223D01*
X237489996Y-77908674D01*
X237504206Y-77894465D01*
X237525010Y-77885278D01*
X237549329Y-77869030D01*
X237572043Y-77864511D01*
X237589591Y-77856764D01*
X237640952Y-77850805D01*
X237645000Y-77850000D01*
X238295000Y-77850000D01*
X238299047Y-77850805D01*
G37*
G36*
X241249047Y-77850805D02*
G01*
X241300408Y-77856764D01*
X241317954Y-77864511D01*
X241340671Y-77869030D01*
X241364991Y-77885280D01*
X241385793Y-77894465D01*
X241400000Y-77908672D01*
X241421777Y-77923223D01*
X241436327Y-77944999D01*
X241450534Y-77959206D01*
X241459718Y-77980006D01*
X241475970Y-78004329D01*
X241480489Y-78027048D01*
X241488235Y-78044591D01*
X241494192Y-78095940D01*
X241495000Y-78100000D01*
X241495000Y-79400000D01*
X241494192Y-79404059D01*
X241488235Y-79455408D01*
X241480489Y-79472950D01*
X241475970Y-79495671D01*
X241459716Y-79519995D01*
X241450534Y-79540793D01*
X241436329Y-79554997D01*
X241421777Y-79576777D01*
X241399997Y-79591329D01*
X241385793Y-79605534D01*
X241364995Y-79614716D01*
X241340671Y-79630970D01*
X241317950Y-79635489D01*
X241300408Y-79643235D01*
X241249061Y-79649192D01*
X241245000Y-79650000D01*
X240595000Y-79650000D01*
X240590941Y-79649192D01*
X240539591Y-79643235D01*
X240522048Y-79635489D01*
X240499329Y-79630970D01*
X240475006Y-79614718D01*
X240454206Y-79605534D01*
X240439999Y-79591327D01*
X240418223Y-79576777D01*
X240403672Y-79555000D01*
X240389465Y-79540793D01*
X240380280Y-79519991D01*
X240364030Y-79495671D01*
X240359511Y-79472954D01*
X240351764Y-79455408D01*
X240345805Y-79404049D01*
X240345000Y-79400000D01*
X240345000Y-78100000D01*
X240345804Y-78095953D01*
X240351764Y-78044591D01*
X240359511Y-78027043D01*
X240364030Y-78004329D01*
X240380278Y-77980010D01*
X240389465Y-77959206D01*
X240403674Y-77944996D01*
X240418223Y-77923223D01*
X240439996Y-77908674D01*
X240454206Y-77894465D01*
X240475010Y-77885278D01*
X240499329Y-77869030D01*
X240522043Y-77864511D01*
X240539591Y-77856764D01*
X240590952Y-77850805D01*
X240595000Y-77850000D01*
X241245000Y-77850000D01*
X241249047Y-77850805D01*
G37*
G36*
X245073805Y-76579117D02*
G01*
X245238193Y-76611816D01*
X245393044Y-76675957D01*
X245532406Y-76769076D01*
X245650924Y-76887594D01*
X245744043Y-77026956D01*
X245808184Y-77181807D01*
X245840883Y-77346195D01*
X245840883Y-77513805D01*
X245808184Y-77678193D01*
X245744043Y-77833044D01*
X245650924Y-77972406D01*
X245532406Y-78090924D01*
X245393044Y-78184043D01*
X245238193Y-78248184D01*
X245073805Y-78280883D01*
X244990000Y-78285000D01*
X244988768Y-78285000D01*
X244901232Y-78285000D01*
X244900000Y-78285000D01*
X244816195Y-78280883D01*
X244651807Y-78248184D01*
X244496956Y-78184043D01*
X244357594Y-78090924D01*
X244239076Y-77972406D01*
X244145957Y-77833044D01*
X244081816Y-77678193D01*
X244049117Y-77513805D01*
X244049117Y-77346195D01*
X244081816Y-77181807D01*
X244145957Y-77026956D01*
X244239076Y-76887594D01*
X244357594Y-76769076D01*
X244496956Y-76675957D01*
X244651807Y-76611816D01*
X244816195Y-76579117D01*
X244900000Y-76575000D01*
X244990000Y-76575000D01*
X245073805Y-76579117D01*
G37*
G36*
X245845000Y-76005000D02*
G01*
X244045000Y-76005000D01*
X244045000Y-74295000D01*
X245845000Y-74295000D01*
X245845000Y-76005000D01*
G37*
G36*
X183851396Y-73330805D02*
G01*
X183902757Y-73336764D01*
X183920303Y-73344511D01*
X183943020Y-73349030D01*
X183967340Y-73365280D01*
X183988142Y-73374465D01*
X184002349Y-73388672D01*
X184024126Y-73403223D01*
X184038676Y-73424999D01*
X184052883Y-73439206D01*
X184062067Y-73460006D01*
X184078319Y-73484329D01*
X184082838Y-73507048D01*
X184090584Y-73524591D01*
X184096541Y-73575940D01*
X184097349Y-73580000D01*
X184097349Y-74680000D01*
X184096541Y-74684059D01*
X184090584Y-74735408D01*
X184082838Y-74752950D01*
X184078319Y-74775671D01*
X184062065Y-74799995D01*
X184052883Y-74820793D01*
X184038678Y-74834997D01*
X184024126Y-74856777D01*
X184002346Y-74871329D01*
X183988142Y-74885534D01*
X183967344Y-74894716D01*
X183943020Y-74910970D01*
X183920299Y-74915489D01*
X183902757Y-74923235D01*
X183851410Y-74929192D01*
X183847349Y-74930000D01*
X182747349Y-74930000D01*
X182743290Y-74929192D01*
X182691940Y-74923235D01*
X182674397Y-74915489D01*
X182651678Y-74910970D01*
X182627355Y-74894718D01*
X182606555Y-74885534D01*
X182592348Y-74871327D01*
X182570572Y-74856777D01*
X182556021Y-74835000D01*
X182541814Y-74820793D01*
X182532629Y-74799991D01*
X182516379Y-74775671D01*
X182511860Y-74752954D01*
X182504113Y-74735408D01*
X182498154Y-74684049D01*
X182497349Y-74680000D01*
X182497349Y-73580000D01*
X182498153Y-73575953D01*
X182504113Y-73524591D01*
X182511860Y-73507043D01*
X182516379Y-73484329D01*
X182532627Y-73460010D01*
X182541814Y-73439206D01*
X182556023Y-73424996D01*
X182570572Y-73403223D01*
X182592345Y-73388674D01*
X182606555Y-73374465D01*
X182627359Y-73365278D01*
X182651678Y-73349030D01*
X182674392Y-73344511D01*
X182691940Y-73336764D01*
X182743301Y-73330805D01*
X182747349Y-73330000D01*
X183847349Y-73330000D01*
X183851396Y-73330805D01*
G37*
G36*
X187029577Y-73364448D02*
G01*
X187174466Y-73424463D01*
X187304864Y-73511592D01*
X187415757Y-73622485D01*
X187502886Y-73752883D01*
X187562901Y-73897772D01*
X187593497Y-74051586D01*
X187593497Y-74208414D01*
X187562901Y-74362228D01*
X187502886Y-74507117D01*
X187415757Y-74637515D01*
X187304864Y-74748408D01*
X187174466Y-74835537D01*
X187029577Y-74895552D01*
X186875763Y-74926148D01*
X186718935Y-74926148D01*
X186565121Y-74895552D01*
X186420232Y-74835537D01*
X186289834Y-74748408D01*
X186178941Y-74637515D01*
X186091812Y-74507117D01*
X186031797Y-74362228D01*
X186001201Y-74208414D01*
X186001201Y-74051586D01*
X186031797Y-73897772D01*
X186091812Y-73752883D01*
X186178941Y-73622485D01*
X186289834Y-73511592D01*
X186420232Y-73424463D01*
X186565121Y-73364448D01*
X186718935Y-73333852D01*
X186875763Y-73333852D01*
X187029577Y-73364448D01*
G37*
G36*
X244176790Y-65770393D02*
G01*
X244340952Y-65823733D01*
X244494748Y-65902096D01*
X244634393Y-66003553D01*
X244756447Y-66125607D01*
X244857904Y-66265252D01*
X244936267Y-66419048D01*
X244989607Y-66583210D01*
X245016609Y-66753695D01*
X245016609Y-66926305D01*
X244989607Y-67096790D01*
X244936267Y-67260952D01*
X244857904Y-67414748D01*
X244756447Y-67554393D01*
X244634393Y-67676447D01*
X244494748Y-67777904D01*
X244340952Y-67856267D01*
X244176790Y-67909607D01*
X244006305Y-67936609D01*
X243833695Y-67936609D01*
X243663210Y-67909607D01*
X243499048Y-67856267D01*
X243345252Y-67777904D01*
X243205607Y-67676447D01*
X243083553Y-67554393D01*
X242982096Y-67414748D01*
X242903733Y-67260952D01*
X242850393Y-67096790D01*
X242823391Y-66926305D01*
X242823391Y-66753695D01*
X242850393Y-66583210D01*
X242903733Y-66419048D01*
X242982096Y-66265252D01*
X243083553Y-66125607D01*
X243205607Y-66003553D01*
X243345252Y-65902096D01*
X243499048Y-65823733D01*
X243663210Y-65770393D01*
X243833695Y-65743391D01*
X244006305Y-65743391D01*
X244176790Y-65770393D01*
G37*
G36*
X183110168Y-62491445D02*
G01*
X183334025Y-62564181D01*
X183543748Y-62671040D01*
X183734172Y-62809391D01*
X183900609Y-62975828D01*
X184038960Y-63166252D01*
X184145819Y-63375975D01*
X184218555Y-63599832D01*
X184255376Y-63832311D01*
X184260000Y-63950000D01*
X184260000Y-64250000D01*
X184255376Y-64367689D01*
X184218555Y-64600168D01*
X184145819Y-64824025D01*
X184038960Y-65033748D01*
X183900609Y-65224172D01*
X183734172Y-65390609D01*
X183543748Y-65528960D01*
X183334025Y-65635819D01*
X183110168Y-65708555D01*
X182877689Y-65745376D01*
X182642311Y-65745376D01*
X182409832Y-65708555D01*
X182185975Y-65635819D01*
X181976252Y-65528960D01*
X181785828Y-65390609D01*
X181619391Y-65224172D01*
X181481040Y-65033748D01*
X181374181Y-64824025D01*
X181301445Y-64600168D01*
X181264624Y-64367689D01*
X181260000Y-64250000D01*
X181260000Y-63950000D01*
X181264624Y-63832311D01*
X181301445Y-63599832D01*
X181374181Y-63375975D01*
X181481040Y-63166252D01*
X181619391Y-62975828D01*
X181785828Y-62809391D01*
X181976252Y-62671040D01*
X182185975Y-62564181D01*
X182409832Y-62491445D01*
X182642311Y-62454624D01*
X182877689Y-62454624D01*
X183110168Y-62491445D01*
G37*
G36*
X193110168Y-62491445D02*
G01*
X193334025Y-62564181D01*
X193543748Y-62671040D01*
X193734172Y-62809391D01*
X193900609Y-62975828D01*
X194038960Y-63166252D01*
X194145819Y-63375975D01*
X194218555Y-63599832D01*
X194255376Y-63832311D01*
X194260000Y-63950000D01*
X194260000Y-64250000D01*
X194255376Y-64367689D01*
X194218555Y-64600168D01*
X194145819Y-64824025D01*
X194038960Y-65033748D01*
X193900609Y-65224172D01*
X193734172Y-65390609D01*
X193543748Y-65528960D01*
X193334025Y-65635819D01*
X193110168Y-65708555D01*
X192877689Y-65745376D01*
X192642311Y-65745376D01*
X192409832Y-65708555D01*
X192185975Y-65635819D01*
X191976252Y-65528960D01*
X191785828Y-65390609D01*
X191619391Y-65224172D01*
X191481040Y-65033748D01*
X191374181Y-64824025D01*
X191301445Y-64600168D01*
X191264624Y-64367689D01*
X191260000Y-64250000D01*
X191260000Y-63950000D01*
X191264624Y-63832311D01*
X191301445Y-63599832D01*
X191374181Y-63375975D01*
X191481040Y-63166252D01*
X191619391Y-62975828D01*
X191785828Y-62809391D01*
X191976252Y-62671040D01*
X192185975Y-62564181D01*
X192409832Y-62491445D01*
X192642311Y-62454624D01*
X192877689Y-62454624D01*
X193110168Y-62491445D01*
G37*
G36*
X202562228Y-63141797D02*
G01*
X202707117Y-63201812D01*
X202837515Y-63288941D01*
X202948408Y-63399834D01*
X203035537Y-63530232D01*
X203095552Y-63675121D01*
X203126148Y-63828935D01*
X203126148Y-63985763D01*
X203095552Y-64139577D01*
X203035537Y-64284466D01*
X202948408Y-64414864D01*
X202837515Y-64525757D01*
X202707117Y-64612886D01*
X202562228Y-64672901D01*
X202408414Y-64703497D01*
X202251586Y-64703497D01*
X202097772Y-64672901D01*
X201952883Y-64612886D01*
X201822485Y-64525757D01*
X201711592Y-64414864D01*
X201624463Y-64284466D01*
X201564448Y-64139577D01*
X201533852Y-63985763D01*
X201533852Y-63828935D01*
X201564448Y-63675121D01*
X201624463Y-63530232D01*
X201711592Y-63399834D01*
X201822485Y-63288941D01*
X201952883Y-63201812D01*
X202097772Y-63141797D01*
X202251586Y-63111201D01*
X202408414Y-63111201D01*
X202562228Y-63141797D01*
G37*
G36*
X143441408Y-60893626D02*
G01*
X143662519Y-60952872D01*
X143874005Y-61040473D01*
X144072248Y-61154928D01*
X144253855Y-61294280D01*
X144415720Y-61456145D01*
X144555072Y-61637752D01*
X144669527Y-61835995D01*
X144757128Y-62047481D01*
X144816374Y-62268592D01*
X144846253Y-62495545D01*
X144846253Y-62724455D01*
X144816374Y-62951408D01*
X144757128Y-63172519D01*
X144669527Y-63384005D01*
X144555072Y-63582248D01*
X144415720Y-63763855D01*
X144253855Y-63925720D01*
X144072248Y-64065072D01*
X143874005Y-64179527D01*
X143662519Y-64267128D01*
X143441408Y-64326374D01*
X143214455Y-64356253D01*
X142985545Y-64356253D01*
X142758592Y-64326374D01*
X142537481Y-64267128D01*
X142325995Y-64179527D01*
X142127752Y-64065072D01*
X141946145Y-63925720D01*
X141784280Y-63763855D01*
X141644928Y-63582248D01*
X141530473Y-63384005D01*
X141442872Y-63172519D01*
X141383626Y-62951408D01*
X141353747Y-62724455D01*
X141353747Y-62495545D01*
X141383626Y-62268592D01*
X141442872Y-62047481D01*
X141530473Y-61835995D01*
X141644928Y-61637752D01*
X141784280Y-61456145D01*
X141946145Y-61294280D01*
X142127752Y-61154928D01*
X142325995Y-61040473D01*
X142537481Y-60952872D01*
X142758592Y-60893626D01*
X142985545Y-60863747D01*
X143214455Y-60863747D01*
X143441408Y-60893626D01*
G37*
G36*
X169281408Y-60053626D02*
G01*
X169502519Y-60112872D01*
X169714005Y-60200473D01*
X169912248Y-60314928D01*
X170093855Y-60454280D01*
X170255720Y-60616145D01*
X170395072Y-60797752D01*
X170509527Y-60995995D01*
X170597128Y-61207481D01*
X170656374Y-61428592D01*
X170686253Y-61655545D01*
X170686253Y-61884455D01*
X170656374Y-62111408D01*
X170597128Y-62332519D01*
X170509527Y-62544005D01*
X170395072Y-62742248D01*
X170255720Y-62923855D01*
X170093855Y-63085720D01*
X169912248Y-63225072D01*
X169714005Y-63339527D01*
X169502519Y-63427128D01*
X169281408Y-63486374D01*
X169054455Y-63516253D01*
X168825545Y-63516253D01*
X168598592Y-63486374D01*
X168377481Y-63427128D01*
X168165995Y-63339527D01*
X167967752Y-63225072D01*
X167786145Y-63085720D01*
X167624280Y-62923855D01*
X167484928Y-62742248D01*
X167370473Y-62544005D01*
X167282872Y-62332519D01*
X167223626Y-62111408D01*
X167193747Y-61884455D01*
X167193747Y-61655545D01*
X167223626Y-61428592D01*
X167282872Y-61207481D01*
X167370473Y-60995995D01*
X167484928Y-60797752D01*
X167624280Y-60616145D01*
X167786145Y-60454280D01*
X167967752Y-60314928D01*
X168165995Y-60200473D01*
X168377481Y-60112872D01*
X168598592Y-60053626D01*
X168825545Y-60023747D01*
X169054455Y-60023747D01*
X169281408Y-60053626D01*
G37*
G36*
X231379047Y-61900805D02*
G01*
X231430408Y-61906764D01*
X231447954Y-61914511D01*
X231470671Y-61919030D01*
X231494991Y-61935280D01*
X231515793Y-61944465D01*
X231530000Y-61958672D01*
X231551777Y-61973223D01*
X231566327Y-61994999D01*
X231580534Y-62009206D01*
X231589718Y-62030006D01*
X231605970Y-62054329D01*
X231610489Y-62077048D01*
X231618235Y-62094591D01*
X231624192Y-62145940D01*
X231625000Y-62150000D01*
X231625000Y-62775000D01*
X231624192Y-62779059D01*
X231618235Y-62830408D01*
X231610489Y-62847950D01*
X231605970Y-62870671D01*
X231589716Y-62894995D01*
X231580534Y-62915793D01*
X231566329Y-62929997D01*
X231551777Y-62951777D01*
X231529997Y-62966329D01*
X231515793Y-62980534D01*
X231494995Y-62989716D01*
X231470671Y-63005970D01*
X231447950Y-63010489D01*
X231430408Y-63018235D01*
X231379061Y-63024192D01*
X231375000Y-63025000D01*
X230125000Y-63025000D01*
X230120941Y-63024192D01*
X230069591Y-63018235D01*
X230052048Y-63010489D01*
X230029329Y-63005970D01*
X230005006Y-62989718D01*
X229984206Y-62980534D01*
X229969999Y-62966327D01*
X229948223Y-62951777D01*
X229933672Y-62930000D01*
X229919465Y-62915793D01*
X229910280Y-62894991D01*
X229894030Y-62870671D01*
X229889511Y-62847954D01*
X229881764Y-62830408D01*
X229875805Y-62779049D01*
X229875000Y-62775000D01*
X229875000Y-62150000D01*
X229875804Y-62145953D01*
X229881764Y-62094591D01*
X229889511Y-62077043D01*
X229894030Y-62054329D01*
X229910278Y-62030010D01*
X229919465Y-62009206D01*
X229933674Y-61994996D01*
X229948223Y-61973223D01*
X229969996Y-61958674D01*
X229984206Y-61944465D01*
X230005010Y-61935278D01*
X230029329Y-61919030D01*
X230052043Y-61914511D01*
X230069591Y-61906764D01*
X230120952Y-61900805D01*
X230125000Y-61900000D01*
X231375000Y-61900000D01*
X231379047Y-61900805D01*
G37*
G36*
X244176790Y-60320393D02*
G01*
X244340952Y-60373733D01*
X244494748Y-60452096D01*
X244634393Y-60553553D01*
X244756447Y-60675607D01*
X244857904Y-60815252D01*
X244936267Y-60969048D01*
X244989607Y-61133210D01*
X245016609Y-61303695D01*
X245016609Y-61476305D01*
X244989607Y-61646790D01*
X244936267Y-61810952D01*
X244857904Y-61964748D01*
X244756447Y-62104393D01*
X244634393Y-62226447D01*
X244494748Y-62327904D01*
X244340952Y-62406267D01*
X244176790Y-62459607D01*
X244006305Y-62486609D01*
X243833695Y-62486609D01*
X243663210Y-62459607D01*
X243499048Y-62406267D01*
X243345252Y-62327904D01*
X243205607Y-62226447D01*
X243083553Y-62104393D01*
X242982096Y-61964748D01*
X242903733Y-61810952D01*
X242850393Y-61646790D01*
X242823391Y-61476305D01*
X242823391Y-61303695D01*
X242850393Y-61133210D01*
X242903733Y-60969048D01*
X242982096Y-60815252D01*
X243083553Y-60675607D01*
X243205607Y-60553553D01*
X243345252Y-60452096D01*
X243499048Y-60373733D01*
X243663210Y-60320393D01*
X243833695Y-60293391D01*
X244006305Y-60293391D01*
X244176790Y-60320393D01*
G37*
G36*
X211799047Y-58290805D02*
G01*
X211850408Y-58296764D01*
X211867954Y-58304511D01*
X211890671Y-58309030D01*
X211914991Y-58325280D01*
X211935793Y-58334465D01*
X211950000Y-58348672D01*
X211971777Y-58363223D01*
X211986327Y-58384999D01*
X212000534Y-58399206D01*
X212009718Y-58420006D01*
X212025970Y-58444329D01*
X212030489Y-58467048D01*
X212038235Y-58484591D01*
X212044192Y-58535940D01*
X212045000Y-58540000D01*
X212045000Y-61365000D01*
X212044192Y-61369059D01*
X212038235Y-61420408D01*
X212030489Y-61437950D01*
X212025970Y-61460671D01*
X212009716Y-61484995D01*
X212000534Y-61505793D01*
X211986329Y-61519997D01*
X211971777Y-61541777D01*
X211949997Y-61556329D01*
X211935793Y-61570534D01*
X211914995Y-61579716D01*
X211890671Y-61595970D01*
X211867950Y-61600489D01*
X211850408Y-61608235D01*
X211799061Y-61614192D01*
X211795000Y-61615000D01*
X210695000Y-61615000D01*
X210690941Y-61614192D01*
X210639591Y-61608235D01*
X210622048Y-61600489D01*
X210599329Y-61595970D01*
X210575006Y-61579718D01*
X210554206Y-61570534D01*
X210539999Y-61556327D01*
X210518223Y-61541777D01*
X210503672Y-61520000D01*
X210489465Y-61505793D01*
X210480280Y-61484991D01*
X210464030Y-61460671D01*
X210459511Y-61437954D01*
X210451764Y-61420408D01*
X210445805Y-61369049D01*
X210445000Y-61365000D01*
X210445000Y-58540000D01*
X210445804Y-58535953D01*
X210451764Y-58484591D01*
X210459511Y-58467043D01*
X210464030Y-58444329D01*
X210480278Y-58420010D01*
X210489465Y-58399206D01*
X210503674Y-58384996D01*
X210518223Y-58363223D01*
X210539996Y-58348674D01*
X210554206Y-58334465D01*
X210575010Y-58325278D01*
X210599329Y-58309030D01*
X210622043Y-58304511D01*
X210639591Y-58296764D01*
X210690952Y-58290805D01*
X210695000Y-58290000D01*
X211795000Y-58290000D01*
X211799047Y-58290805D01*
G37*
G36*
X202884047Y-59608154D02*
G01*
X202935408Y-59614113D01*
X202952954Y-59621860D01*
X202975671Y-59626379D01*
X202999991Y-59642629D01*
X203020793Y-59651814D01*
X203035000Y-59666021D01*
X203056777Y-59680572D01*
X203071327Y-59702348D01*
X203085534Y-59716555D01*
X203094718Y-59737355D01*
X203110970Y-59761678D01*
X203115489Y-59784397D01*
X203123235Y-59801940D01*
X203129192Y-59853289D01*
X203130000Y-59857349D01*
X203130000Y-60957349D01*
X203129192Y-60961408D01*
X203123235Y-61012757D01*
X203115489Y-61030299D01*
X203110970Y-61053020D01*
X203094716Y-61077344D01*
X203085534Y-61098142D01*
X203071329Y-61112346D01*
X203056777Y-61134126D01*
X203034997Y-61148678D01*
X203020793Y-61162883D01*
X202999995Y-61172065D01*
X202975671Y-61188319D01*
X202952950Y-61192838D01*
X202935408Y-61200584D01*
X202884061Y-61206541D01*
X202880000Y-61207349D01*
X201780000Y-61207349D01*
X201775941Y-61206541D01*
X201724591Y-61200584D01*
X201707048Y-61192838D01*
X201684329Y-61188319D01*
X201660006Y-61172067D01*
X201639206Y-61162883D01*
X201624999Y-61148676D01*
X201603223Y-61134126D01*
X201588672Y-61112349D01*
X201574465Y-61098142D01*
X201565280Y-61077340D01*
X201549030Y-61053020D01*
X201544511Y-61030303D01*
X201536764Y-61012757D01*
X201530805Y-60961398D01*
X201530000Y-60957349D01*
X201530000Y-59857349D01*
X201530804Y-59853302D01*
X201536764Y-59801940D01*
X201544511Y-59784392D01*
X201549030Y-59761678D01*
X201565278Y-59737359D01*
X201574465Y-59716555D01*
X201588674Y-59702345D01*
X201603223Y-59680572D01*
X201624996Y-59666023D01*
X201639206Y-59651814D01*
X201660010Y-59642627D01*
X201684329Y-59626379D01*
X201707043Y-59621860D01*
X201724591Y-59614113D01*
X201775952Y-59608154D01*
X201780000Y-59607349D01*
X202880000Y-59607349D01*
X202884047Y-59608154D01*
G37*
G36*
X231379047Y-58975805D02*
G01*
X231430408Y-58981764D01*
X231447954Y-58989511D01*
X231470671Y-58994030D01*
X231494991Y-59010280D01*
X231515793Y-59019465D01*
X231530000Y-59033672D01*
X231551777Y-59048223D01*
X231566327Y-59069999D01*
X231580534Y-59084206D01*
X231589718Y-59105006D01*
X231605970Y-59129329D01*
X231610489Y-59152048D01*
X231618235Y-59169591D01*
X231624192Y-59220940D01*
X231625000Y-59225000D01*
X231625000Y-59850000D01*
X231624192Y-59854059D01*
X231618235Y-59905408D01*
X231610489Y-59922950D01*
X231605970Y-59945671D01*
X231589716Y-59969995D01*
X231580534Y-59990793D01*
X231566329Y-60004997D01*
X231551777Y-60026777D01*
X231529997Y-60041329D01*
X231515793Y-60055534D01*
X231494995Y-60064716D01*
X231470671Y-60080970D01*
X231447950Y-60085489D01*
X231430408Y-60093235D01*
X231379061Y-60099192D01*
X231375000Y-60100000D01*
X230125000Y-60100000D01*
X230120941Y-60099192D01*
X230069591Y-60093235D01*
X230052048Y-60085489D01*
X230029329Y-60080970D01*
X230005006Y-60064718D01*
X229984206Y-60055534D01*
X229969999Y-60041327D01*
X229948223Y-60026777D01*
X229933672Y-60005000D01*
X229919465Y-59990793D01*
X229910280Y-59969991D01*
X229894030Y-59945671D01*
X229889511Y-59922954D01*
X229881764Y-59905408D01*
X229875805Y-59854049D01*
X229875000Y-59850000D01*
X229875000Y-59225000D01*
X229875804Y-59220953D01*
X229881764Y-59169591D01*
X229889511Y-59152043D01*
X229894030Y-59129329D01*
X229910278Y-59105010D01*
X229919465Y-59084206D01*
X229933674Y-59069996D01*
X229948223Y-59048223D01*
X229969996Y-59033674D01*
X229984206Y-59019465D01*
X230005010Y-59010278D01*
X230029329Y-58994030D01*
X230052043Y-58989511D01*
X230069591Y-58981764D01*
X230120952Y-58975805D01*
X230125000Y-58975000D01*
X231375000Y-58975000D01*
X231379047Y-58975805D01*
G37*
G36*
X231389047Y-57163305D02*
G01*
X231440408Y-57169264D01*
X231457954Y-57177011D01*
X231480671Y-57181530D01*
X231504991Y-57197780D01*
X231525793Y-57206965D01*
X231540000Y-57221172D01*
X231561777Y-57235723D01*
X231576327Y-57257499D01*
X231590534Y-57271706D01*
X231599718Y-57292506D01*
X231615970Y-57316829D01*
X231620489Y-57339548D01*
X231628235Y-57357091D01*
X231634192Y-57408440D01*
X231635000Y-57412500D01*
X231635000Y-58037500D01*
X231634192Y-58041559D01*
X231628235Y-58092908D01*
X231620489Y-58110450D01*
X231615970Y-58133171D01*
X231599716Y-58157495D01*
X231590534Y-58178293D01*
X231576329Y-58192497D01*
X231561777Y-58214277D01*
X231539997Y-58228829D01*
X231525793Y-58243034D01*
X231504995Y-58252216D01*
X231480671Y-58268470D01*
X231457950Y-58272989D01*
X231440408Y-58280735D01*
X231389061Y-58286692D01*
X231385000Y-58287500D01*
X230135000Y-58287500D01*
X230130941Y-58286692D01*
X230079591Y-58280735D01*
X230062048Y-58272989D01*
X230039329Y-58268470D01*
X230015006Y-58252218D01*
X229994206Y-58243034D01*
X229979999Y-58228827D01*
X229958223Y-58214277D01*
X229943672Y-58192500D01*
X229929465Y-58178293D01*
X229920280Y-58157491D01*
X229904030Y-58133171D01*
X229899511Y-58110454D01*
X229891764Y-58092908D01*
X229885805Y-58041549D01*
X229885000Y-58037500D01*
X229885000Y-57412500D01*
X229885804Y-57408453D01*
X229891764Y-57357091D01*
X229899511Y-57339543D01*
X229904030Y-57316829D01*
X229920278Y-57292510D01*
X229929465Y-57271706D01*
X229943674Y-57257496D01*
X229958223Y-57235723D01*
X229979996Y-57221174D01*
X229994206Y-57206965D01*
X230015010Y-57197778D01*
X230039329Y-57181530D01*
X230062043Y-57177011D01*
X230079591Y-57169264D01*
X230130952Y-57163305D01*
X230135000Y-57162500D01*
X231385000Y-57162500D01*
X231389047Y-57163305D01*
G37*
G36*
X195784047Y-56190805D02*
G01*
X195835408Y-56196764D01*
X195852954Y-56204511D01*
X195875671Y-56209030D01*
X195899991Y-56225280D01*
X195920793Y-56234465D01*
X195935000Y-56248672D01*
X195956777Y-56263223D01*
X195971327Y-56284999D01*
X195985534Y-56299206D01*
X195994718Y-56320006D01*
X196010970Y-56344329D01*
X196015489Y-56367048D01*
X196023235Y-56384591D01*
X196029192Y-56435940D01*
X196030000Y-56440000D01*
X196030000Y-57740000D01*
X196029192Y-57744059D01*
X196023235Y-57795408D01*
X196015489Y-57812950D01*
X196010970Y-57835671D01*
X195994716Y-57859995D01*
X195985534Y-57880793D01*
X195971329Y-57894997D01*
X195956777Y-57916777D01*
X195934997Y-57931329D01*
X195920793Y-57945534D01*
X195899995Y-57954716D01*
X195875671Y-57970970D01*
X195852950Y-57975489D01*
X195835408Y-57983235D01*
X195784061Y-57989192D01*
X195780000Y-57990000D01*
X195130000Y-57990000D01*
X195125941Y-57989192D01*
X195074591Y-57983235D01*
X195057048Y-57975489D01*
X195034329Y-57970970D01*
X195010006Y-57954718D01*
X194989206Y-57945534D01*
X194974999Y-57931327D01*
X194953223Y-57916777D01*
X194938672Y-57895000D01*
X194924465Y-57880793D01*
X194915280Y-57859991D01*
X194899030Y-57835671D01*
X194894511Y-57812954D01*
X194886764Y-57795408D01*
X194880805Y-57744049D01*
X194880000Y-57740000D01*
X194880000Y-56440000D01*
X194880804Y-56435953D01*
X194886764Y-56384591D01*
X194894511Y-56367043D01*
X194899030Y-56344329D01*
X194915278Y-56320010D01*
X194924465Y-56299206D01*
X194938674Y-56284996D01*
X194953223Y-56263223D01*
X194974996Y-56248674D01*
X194989206Y-56234465D01*
X195010010Y-56225278D01*
X195034329Y-56209030D01*
X195057043Y-56204511D01*
X195074591Y-56196764D01*
X195125952Y-56190805D01*
X195130000Y-56190000D01*
X195780000Y-56190000D01*
X195784047Y-56190805D01*
G37*
G36*
X198734047Y-56190805D02*
G01*
X198785408Y-56196764D01*
X198802954Y-56204511D01*
X198825671Y-56209030D01*
X198849991Y-56225280D01*
X198870793Y-56234465D01*
X198885000Y-56248672D01*
X198906777Y-56263223D01*
X198921327Y-56284999D01*
X198935534Y-56299206D01*
X198944718Y-56320006D01*
X198960970Y-56344329D01*
X198965489Y-56367048D01*
X198973235Y-56384591D01*
X198979192Y-56435940D01*
X198980000Y-56440000D01*
X198980000Y-57740000D01*
X198979192Y-57744059D01*
X198973235Y-57795408D01*
X198965489Y-57812950D01*
X198960970Y-57835671D01*
X198944716Y-57859995D01*
X198935534Y-57880793D01*
X198921329Y-57894997D01*
X198906777Y-57916777D01*
X198884997Y-57931329D01*
X198870793Y-57945534D01*
X198849995Y-57954716D01*
X198825671Y-57970970D01*
X198802950Y-57975489D01*
X198785408Y-57983235D01*
X198734061Y-57989192D01*
X198730000Y-57990000D01*
X198080000Y-57990000D01*
X198075941Y-57989192D01*
X198024591Y-57983235D01*
X198007048Y-57975489D01*
X197984329Y-57970970D01*
X197960006Y-57954718D01*
X197939206Y-57945534D01*
X197924999Y-57931327D01*
X197903223Y-57916777D01*
X197888672Y-57895000D01*
X197874465Y-57880793D01*
X197865280Y-57859991D01*
X197849030Y-57835671D01*
X197844511Y-57812954D01*
X197836764Y-57795408D01*
X197830805Y-57744049D01*
X197830000Y-57740000D01*
X197830000Y-56440000D01*
X197830804Y-56435953D01*
X197836764Y-56384591D01*
X197844511Y-56367043D01*
X197849030Y-56344329D01*
X197865278Y-56320010D01*
X197874465Y-56299206D01*
X197888674Y-56284996D01*
X197903223Y-56263223D01*
X197924996Y-56248674D01*
X197939206Y-56234465D01*
X197960010Y-56225278D01*
X197984329Y-56209030D01*
X198007043Y-56204511D01*
X198024591Y-56196764D01*
X198075952Y-56190805D01*
X198080000Y-56190000D01*
X198730000Y-56190000D01*
X198734047Y-56190805D01*
G37*
G36*
X185506742Y-56286601D02*
G01*
X185660687Y-56350367D01*
X185799234Y-56442941D01*
X185917059Y-56560766D01*
X186009633Y-56699313D01*
X186073399Y-56853258D01*
X186105907Y-57016685D01*
X186105907Y-57183315D01*
X186073399Y-57346742D01*
X186009633Y-57500687D01*
X185917059Y-57639234D01*
X185799234Y-57757059D01*
X185660687Y-57849633D01*
X185506742Y-57913399D01*
X185343315Y-57945907D01*
X185176685Y-57945907D01*
X185013258Y-57913399D01*
X184859313Y-57849633D01*
X184720766Y-57757059D01*
X184602941Y-57639234D01*
X184510367Y-57500687D01*
X184446601Y-57346742D01*
X184414093Y-57183315D01*
X184414093Y-57016685D01*
X184446601Y-56853258D01*
X184510367Y-56699313D01*
X184602941Y-56560766D01*
X184720766Y-56442941D01*
X184859313Y-56350367D01*
X185013258Y-56286601D01*
X185176685Y-56254093D01*
X185343315Y-56254093D01*
X185506742Y-56286601D01*
G37*
G36*
X188006742Y-56286601D02*
G01*
X188160687Y-56350367D01*
X188299234Y-56442941D01*
X188417059Y-56560766D01*
X188509633Y-56699313D01*
X188573399Y-56853258D01*
X188605907Y-57016685D01*
X188605907Y-57183315D01*
X188573399Y-57346742D01*
X188509633Y-57500687D01*
X188417059Y-57639234D01*
X188299234Y-57757059D01*
X188160687Y-57849633D01*
X188006742Y-57913399D01*
X187843315Y-57945907D01*
X187676685Y-57945907D01*
X187513258Y-57913399D01*
X187359313Y-57849633D01*
X187220766Y-57757059D01*
X187102941Y-57639234D01*
X187010367Y-57500687D01*
X186946601Y-57346742D01*
X186914093Y-57183315D01*
X186914093Y-57016685D01*
X186946601Y-56853258D01*
X187010367Y-56699313D01*
X187102941Y-56560766D01*
X187220766Y-56442941D01*
X187359313Y-56350367D01*
X187513258Y-56286601D01*
X187676685Y-56254093D01*
X187843315Y-56254093D01*
X188006742Y-56286601D01*
G37*
G36*
X190506742Y-56286601D02*
G01*
X190660687Y-56350367D01*
X190799234Y-56442941D01*
X190917059Y-56560766D01*
X191009633Y-56699313D01*
X191073399Y-56853258D01*
X191105907Y-57016685D01*
X191105907Y-57183315D01*
X191073399Y-57346742D01*
X191009633Y-57500687D01*
X190917059Y-57639234D01*
X190799234Y-57757059D01*
X190660687Y-57849633D01*
X190506742Y-57913399D01*
X190343315Y-57945907D01*
X190176685Y-57945907D01*
X190013258Y-57913399D01*
X189859313Y-57849633D01*
X189720766Y-57757059D01*
X189602941Y-57639234D01*
X189510367Y-57500687D01*
X189446601Y-57346742D01*
X189414093Y-57183315D01*
X189414093Y-57016685D01*
X189446601Y-56853258D01*
X189510367Y-56699313D01*
X189602941Y-56560766D01*
X189720766Y-56442941D01*
X189859313Y-56350367D01*
X190013258Y-56286601D01*
X190176685Y-56254093D01*
X190343315Y-56254093D01*
X190506742Y-56286601D01*
G37*
G36*
X224764047Y-56455805D02*
G01*
X224815408Y-56461764D01*
X224832954Y-56469511D01*
X224855671Y-56474030D01*
X224879991Y-56490280D01*
X224900793Y-56499465D01*
X224915000Y-56513672D01*
X224936777Y-56528223D01*
X224951327Y-56549999D01*
X224965534Y-56564206D01*
X224974718Y-56585006D01*
X224990970Y-56609329D01*
X224995489Y-56632048D01*
X225003235Y-56649591D01*
X225009192Y-56700940D01*
X225010000Y-56705000D01*
X225010000Y-57355000D01*
X225009192Y-57359059D01*
X225003235Y-57410408D01*
X224995489Y-57427950D01*
X224990970Y-57450671D01*
X224974716Y-57474995D01*
X224965534Y-57495793D01*
X224951329Y-57509997D01*
X224936777Y-57531777D01*
X224914997Y-57546329D01*
X224900793Y-57560534D01*
X224879995Y-57569716D01*
X224855671Y-57585970D01*
X224832950Y-57590489D01*
X224815408Y-57598235D01*
X224764061Y-57604192D01*
X224760000Y-57605000D01*
X223460000Y-57605000D01*
X223455941Y-57604192D01*
X223404591Y-57598235D01*
X223387048Y-57590489D01*
X223364329Y-57585970D01*
X223340006Y-57569718D01*
X223319206Y-57560534D01*
X223304999Y-57546327D01*
X223283223Y-57531777D01*
X223268672Y-57510000D01*
X223254465Y-57495793D01*
X223245280Y-57474991D01*
X223229030Y-57450671D01*
X223224511Y-57427954D01*
X223216764Y-57410408D01*
X223210805Y-57359049D01*
X223210000Y-57355000D01*
X223210000Y-56705000D01*
X223210804Y-56700953D01*
X223216764Y-56649591D01*
X223224511Y-56632043D01*
X223229030Y-56609329D01*
X223245278Y-56585010D01*
X223254465Y-56564206D01*
X223268674Y-56549996D01*
X223283223Y-56528223D01*
X223304996Y-56513674D01*
X223319206Y-56499465D01*
X223340010Y-56490278D01*
X223364329Y-56474030D01*
X223387043Y-56469511D01*
X223404591Y-56461764D01*
X223455952Y-56455805D01*
X223460000Y-56455000D01*
X224760000Y-56455000D01*
X224764047Y-56455805D01*
G37*
G36*
X245020000Y-57040000D02*
G01*
X242820000Y-57040000D01*
X242820000Y-54840000D01*
X245020000Y-54840000D01*
X245020000Y-57040000D01*
G37*
G36*
X238654047Y-55240805D02*
G01*
X238705408Y-55246764D01*
X238722954Y-55254511D01*
X238745671Y-55259030D01*
X238769991Y-55275280D01*
X238790793Y-55284465D01*
X238805000Y-55298672D01*
X238826777Y-55313223D01*
X238841327Y-55334999D01*
X238855534Y-55349206D01*
X238864718Y-55370006D01*
X238880970Y-55394329D01*
X238885489Y-55417048D01*
X238893235Y-55434591D01*
X238899192Y-55485940D01*
X238900000Y-55490000D01*
X238900000Y-56390000D01*
X238899192Y-56394059D01*
X238893235Y-56445408D01*
X238885489Y-56462950D01*
X238880970Y-56485671D01*
X238864716Y-56509995D01*
X238855534Y-56530793D01*
X238841329Y-56544997D01*
X238826777Y-56566777D01*
X238804997Y-56581329D01*
X238790793Y-56595534D01*
X238769995Y-56604716D01*
X238745671Y-56620970D01*
X238722950Y-56625489D01*
X238705408Y-56633235D01*
X238654061Y-56639192D01*
X238650000Y-56640000D01*
X238125000Y-56640000D01*
X238120941Y-56639192D01*
X238069591Y-56633235D01*
X238052048Y-56625489D01*
X238029329Y-56620970D01*
X238005006Y-56604718D01*
X237984206Y-56595534D01*
X237969999Y-56581327D01*
X237948223Y-56566777D01*
X237933672Y-56545000D01*
X237919465Y-56530793D01*
X237910280Y-56509991D01*
X237894030Y-56485671D01*
X237889511Y-56462954D01*
X237881764Y-56445408D01*
X237875805Y-56394049D01*
X237875000Y-56390000D01*
X237875000Y-55490000D01*
X237875804Y-55485953D01*
X237881764Y-55434591D01*
X237889511Y-55417043D01*
X237894030Y-55394329D01*
X237910278Y-55370010D01*
X237919465Y-55349206D01*
X237933674Y-55334996D01*
X237948223Y-55313223D01*
X237969996Y-55298674D01*
X237984206Y-55284465D01*
X238005010Y-55275278D01*
X238029329Y-55259030D01*
X238052043Y-55254511D01*
X238069591Y-55246764D01*
X238120952Y-55240805D01*
X238125000Y-55240000D01*
X238650000Y-55240000D01*
X238654047Y-55240805D01*
G37*
G36*
X240479047Y-55240805D02*
G01*
X240530408Y-55246764D01*
X240547954Y-55254511D01*
X240570671Y-55259030D01*
X240594991Y-55275280D01*
X240615793Y-55284465D01*
X240630000Y-55298672D01*
X240651777Y-55313223D01*
X240666327Y-55334999D01*
X240680534Y-55349206D01*
X240689718Y-55370006D01*
X240705970Y-55394329D01*
X240710489Y-55417048D01*
X240718235Y-55434591D01*
X240724192Y-55485940D01*
X240725000Y-55490000D01*
X240725000Y-56390000D01*
X240724192Y-56394059D01*
X240718235Y-56445408D01*
X240710489Y-56462950D01*
X240705970Y-56485671D01*
X240689716Y-56509995D01*
X240680534Y-56530793D01*
X240666329Y-56544997D01*
X240651777Y-56566777D01*
X240629997Y-56581329D01*
X240615793Y-56595534D01*
X240594995Y-56604716D01*
X240570671Y-56620970D01*
X240547950Y-56625489D01*
X240530408Y-56633235D01*
X240479061Y-56639192D01*
X240475000Y-56640000D01*
X239950000Y-56640000D01*
X239945941Y-56639192D01*
X239894591Y-56633235D01*
X239877048Y-56625489D01*
X239854329Y-56620970D01*
X239830006Y-56604718D01*
X239809206Y-56595534D01*
X239794999Y-56581327D01*
X239773223Y-56566777D01*
X239758672Y-56545000D01*
X239744465Y-56530793D01*
X239735280Y-56509991D01*
X239719030Y-56485671D01*
X239714511Y-56462954D01*
X239706764Y-56445408D01*
X239700805Y-56394049D01*
X239700000Y-56390000D01*
X239700000Y-55490000D01*
X239700804Y-55485953D01*
X239706764Y-55434591D01*
X239714511Y-55417043D01*
X239719030Y-55394329D01*
X239735278Y-55370010D01*
X239744465Y-55349206D01*
X239758674Y-55334996D01*
X239773223Y-55313223D01*
X239794996Y-55298674D01*
X239809206Y-55284465D01*
X239830010Y-55275278D01*
X239854329Y-55259030D01*
X239877043Y-55254511D01*
X239894591Y-55246764D01*
X239945952Y-55240805D01*
X239950000Y-55240000D01*
X240475000Y-55240000D01*
X240479047Y-55240805D01*
G37*
G36*
X211799047Y-53215805D02*
G01*
X211850408Y-53221764D01*
X211867954Y-53229511D01*
X211890671Y-53234030D01*
X211914991Y-53250280D01*
X211935793Y-53259465D01*
X211950000Y-53273672D01*
X211971777Y-53288223D01*
X211986327Y-53309999D01*
X212000534Y-53324206D01*
X212009718Y-53345006D01*
X212025970Y-53369329D01*
X212030489Y-53392048D01*
X212038235Y-53409591D01*
X212044192Y-53460940D01*
X212045000Y-53465000D01*
X212045000Y-56290000D01*
X212044192Y-56294059D01*
X212038235Y-56345408D01*
X212030489Y-56362950D01*
X212025970Y-56385671D01*
X212009716Y-56409995D01*
X212000534Y-56430793D01*
X211986329Y-56444997D01*
X211971777Y-56466777D01*
X211949997Y-56481329D01*
X211935793Y-56495534D01*
X211914995Y-56504716D01*
X211890671Y-56520970D01*
X211867950Y-56525489D01*
X211850408Y-56533235D01*
X211799061Y-56539192D01*
X211795000Y-56540000D01*
X210695000Y-56540000D01*
X210690941Y-56539192D01*
X210639591Y-56533235D01*
X210622048Y-56525489D01*
X210599329Y-56520970D01*
X210575006Y-56504718D01*
X210554206Y-56495534D01*
X210539999Y-56481327D01*
X210518223Y-56466777D01*
X210503672Y-56445000D01*
X210489465Y-56430793D01*
X210480280Y-56409991D01*
X210464030Y-56385671D01*
X210459511Y-56362954D01*
X210451764Y-56345408D01*
X210445805Y-56294049D01*
X210445000Y-56290000D01*
X210445000Y-53465000D01*
X210445804Y-53460953D01*
X210451764Y-53409591D01*
X210459511Y-53392043D01*
X210464030Y-53369329D01*
X210480278Y-53345010D01*
X210489465Y-53324206D01*
X210503674Y-53309996D01*
X210518223Y-53288223D01*
X210539996Y-53273674D01*
X210554206Y-53259465D01*
X210575010Y-53250278D01*
X210599329Y-53234030D01*
X210622043Y-53229511D01*
X210639591Y-53221764D01*
X210690952Y-53215805D01*
X210695000Y-53215000D01*
X211795000Y-53215000D01*
X211799047Y-53215805D01*
G37*
G36*
X196444047Y-54440805D02*
G01*
X196495408Y-54446764D01*
X196512954Y-54454511D01*
X196535671Y-54459030D01*
X196559991Y-54475280D01*
X196580793Y-54484465D01*
X196595000Y-54498672D01*
X196616777Y-54513223D01*
X196631327Y-54534999D01*
X196645534Y-54549206D01*
X196654718Y-54570006D01*
X196670970Y-54594329D01*
X196675489Y-54617048D01*
X196683235Y-54634591D01*
X196689192Y-54685940D01*
X196690000Y-54690000D01*
X196690000Y-55340000D01*
X196689192Y-55344059D01*
X196683235Y-55395408D01*
X196675489Y-55412950D01*
X196670970Y-55435671D01*
X196654716Y-55459995D01*
X196645534Y-55480793D01*
X196631329Y-55494997D01*
X196616777Y-55516777D01*
X196594997Y-55531329D01*
X196580793Y-55545534D01*
X196559995Y-55554716D01*
X196535671Y-55570970D01*
X196512950Y-55575489D01*
X196495408Y-55583235D01*
X196444061Y-55589192D01*
X196440000Y-55590000D01*
X195140000Y-55590000D01*
X195135941Y-55589192D01*
X195084591Y-55583235D01*
X195067048Y-55575489D01*
X195044329Y-55570970D01*
X195020006Y-55554718D01*
X194999206Y-55545534D01*
X194984999Y-55531327D01*
X194963223Y-55516777D01*
X194948672Y-55495000D01*
X194934465Y-55480793D01*
X194925280Y-55459991D01*
X194909030Y-55435671D01*
X194904511Y-55412954D01*
X194896764Y-55395408D01*
X194890805Y-55344049D01*
X194890000Y-55340000D01*
X194890000Y-54690000D01*
X194890804Y-54685953D01*
X194896764Y-54634591D01*
X194904511Y-54617043D01*
X194909030Y-54594329D01*
X194925278Y-54570010D01*
X194934465Y-54549206D01*
X194948674Y-54534996D01*
X194963223Y-54513223D01*
X194984996Y-54498674D01*
X194999206Y-54484465D01*
X195020010Y-54475278D01*
X195044329Y-54459030D01*
X195067043Y-54454511D01*
X195084591Y-54446764D01*
X195135952Y-54440805D01*
X195140000Y-54440000D01*
X196440000Y-54440000D01*
X196444047Y-54440805D01*
G37*
G36*
X231389047Y-54238305D02*
G01*
X231440408Y-54244264D01*
X231457954Y-54252011D01*
X231480671Y-54256530D01*
X231504991Y-54272780D01*
X231525793Y-54281965D01*
X231540000Y-54296172D01*
X231561777Y-54310723D01*
X231576327Y-54332499D01*
X231590534Y-54346706D01*
X231599718Y-54367506D01*
X231615970Y-54391829D01*
X231620489Y-54414548D01*
X231628235Y-54432091D01*
X231634192Y-54483440D01*
X231635000Y-54487500D01*
X231635000Y-55112500D01*
X231634192Y-55116559D01*
X231628235Y-55167908D01*
X231620489Y-55185450D01*
X231615970Y-55208171D01*
X231599716Y-55232495D01*
X231590534Y-55253293D01*
X231576329Y-55267497D01*
X231561777Y-55289277D01*
X231539997Y-55303829D01*
X231525793Y-55318034D01*
X231504995Y-55327216D01*
X231480671Y-55343470D01*
X231457950Y-55347989D01*
X231440408Y-55355735D01*
X231389061Y-55361692D01*
X231385000Y-55362500D01*
X230135000Y-55362500D01*
X230130941Y-55361692D01*
X230079591Y-55355735D01*
X230062048Y-55347989D01*
X230039329Y-55343470D01*
X230015006Y-55327218D01*
X229994206Y-55318034D01*
X229979999Y-55303827D01*
X229958223Y-55289277D01*
X229943672Y-55267500D01*
X229929465Y-55253293D01*
X229920280Y-55232491D01*
X229904030Y-55208171D01*
X229899511Y-55185454D01*
X229891764Y-55167908D01*
X229885805Y-55116549D01*
X229885000Y-55112500D01*
X229885000Y-54487500D01*
X229885804Y-54483453D01*
X229891764Y-54432091D01*
X229899511Y-54414543D01*
X229904030Y-54391829D01*
X229920278Y-54367510D01*
X229929465Y-54346706D01*
X229943674Y-54332496D01*
X229958223Y-54310723D01*
X229979996Y-54296174D01*
X229994206Y-54281965D01*
X230015010Y-54272778D01*
X230039329Y-54256530D01*
X230062043Y-54252011D01*
X230079591Y-54244264D01*
X230130952Y-54238305D01*
X230135000Y-54237500D01*
X231385000Y-54237500D01*
X231389047Y-54238305D01*
G37*
G36*
X224764047Y-53505805D02*
G01*
X224815408Y-53511764D01*
X224832954Y-53519511D01*
X224855671Y-53524030D01*
X224879991Y-53540280D01*
X224900793Y-53549465D01*
X224915000Y-53563672D01*
X224936777Y-53578223D01*
X224951327Y-53599999D01*
X224965534Y-53614206D01*
X224974718Y-53635006D01*
X224990970Y-53659329D01*
X224995489Y-53682048D01*
X225003235Y-53699591D01*
X225009192Y-53750940D01*
X225010000Y-53755000D01*
X225010000Y-54405000D01*
X225009192Y-54409059D01*
X225003235Y-54460408D01*
X224995489Y-54477950D01*
X224990970Y-54500671D01*
X224974716Y-54524995D01*
X224965534Y-54545793D01*
X224951329Y-54559997D01*
X224936777Y-54581777D01*
X224914997Y-54596329D01*
X224900793Y-54610534D01*
X224879995Y-54619716D01*
X224855671Y-54635970D01*
X224832950Y-54640489D01*
X224815408Y-54648235D01*
X224764061Y-54654192D01*
X224760000Y-54655000D01*
X223460000Y-54655000D01*
X223455941Y-54654192D01*
X223404591Y-54648235D01*
X223387048Y-54640489D01*
X223364329Y-54635970D01*
X223340006Y-54619718D01*
X223319206Y-54610534D01*
X223304999Y-54596327D01*
X223283223Y-54581777D01*
X223268672Y-54560000D01*
X223254465Y-54545793D01*
X223245280Y-54524991D01*
X223229030Y-54500671D01*
X223224511Y-54477954D01*
X223216764Y-54460408D01*
X223210805Y-54409049D01*
X223210000Y-54405000D01*
X223210000Y-53755000D01*
X223210804Y-53750953D01*
X223216764Y-53699591D01*
X223224511Y-53682043D01*
X223229030Y-53659329D01*
X223245278Y-53635010D01*
X223254465Y-53614206D01*
X223268674Y-53599996D01*
X223283223Y-53578223D01*
X223304996Y-53563674D01*
X223319206Y-53549465D01*
X223340010Y-53540278D01*
X223364329Y-53524030D01*
X223387043Y-53519511D01*
X223404591Y-53511764D01*
X223455952Y-53505805D01*
X223460000Y-53505000D01*
X224760000Y-53505000D01*
X224764047Y-53505805D01*
G37*
G36*
X198764047Y-53358305D02*
G01*
X198815408Y-53364264D01*
X198832954Y-53372011D01*
X198855671Y-53376530D01*
X198879991Y-53392780D01*
X198900793Y-53401965D01*
X198915000Y-53416172D01*
X198936777Y-53430723D01*
X198951327Y-53452499D01*
X198965534Y-53466706D01*
X198974718Y-53487506D01*
X198990970Y-53511829D01*
X198995489Y-53534548D01*
X199003235Y-53552091D01*
X199009192Y-53603440D01*
X199010000Y-53607500D01*
X199010000Y-54132500D01*
X199009192Y-54136559D01*
X199003235Y-54187908D01*
X198995489Y-54205450D01*
X198990970Y-54228171D01*
X198974716Y-54252495D01*
X198965534Y-54273293D01*
X198951329Y-54287497D01*
X198936777Y-54309277D01*
X198914997Y-54323829D01*
X198900793Y-54338034D01*
X198879995Y-54347216D01*
X198855671Y-54363470D01*
X198832950Y-54367989D01*
X198815408Y-54375735D01*
X198764061Y-54381692D01*
X198760000Y-54382500D01*
X197860000Y-54382500D01*
X197855941Y-54381692D01*
X197804591Y-54375735D01*
X197787048Y-54367989D01*
X197764329Y-54363470D01*
X197740006Y-54347218D01*
X197719206Y-54338034D01*
X197704999Y-54323827D01*
X197683223Y-54309277D01*
X197668672Y-54287500D01*
X197654465Y-54273293D01*
X197645280Y-54252491D01*
X197629030Y-54228171D01*
X197624511Y-54205454D01*
X197616764Y-54187908D01*
X197610805Y-54136549D01*
X197610000Y-54132500D01*
X197610000Y-53607500D01*
X197610804Y-53603453D01*
X197616764Y-53552091D01*
X197624511Y-53534543D01*
X197629030Y-53511829D01*
X197645278Y-53487510D01*
X197654465Y-53466706D01*
X197668674Y-53452496D01*
X197683223Y-53430723D01*
X197704996Y-53416174D01*
X197719206Y-53401965D01*
X197740010Y-53392778D01*
X197764329Y-53376530D01*
X197787043Y-53372011D01*
X197804591Y-53364264D01*
X197855952Y-53358305D01*
X197860000Y-53357500D01*
X198760000Y-53357500D01*
X198764047Y-53358305D01*
G37*
G36*
X143441408Y-50893626D02*
G01*
X143662519Y-50952872D01*
X143874005Y-51040473D01*
X144072248Y-51154928D01*
X144253855Y-51294280D01*
X144415720Y-51456145D01*
X144555072Y-51637752D01*
X144669527Y-51835995D01*
X144757128Y-52047481D01*
X144816374Y-52268592D01*
X144846253Y-52495545D01*
X144846253Y-52724455D01*
X144816374Y-52951408D01*
X144757128Y-53172519D01*
X144669527Y-53384005D01*
X144555072Y-53582248D01*
X144415720Y-53763855D01*
X144253855Y-53925720D01*
X144072248Y-54065072D01*
X143874005Y-54179527D01*
X143662519Y-54267128D01*
X143441408Y-54326374D01*
X143214455Y-54356253D01*
X142985545Y-54356253D01*
X142758592Y-54326374D01*
X142537481Y-54267128D01*
X142325995Y-54179527D01*
X142127752Y-54065072D01*
X141946145Y-53925720D01*
X141784280Y-53763855D01*
X141644928Y-53582248D01*
X141530473Y-53384005D01*
X141442872Y-53172519D01*
X141383626Y-52951408D01*
X141353747Y-52724455D01*
X141353747Y-52495545D01*
X141383626Y-52268592D01*
X141442872Y-52047481D01*
X141530473Y-51835995D01*
X141644928Y-51637752D01*
X141784280Y-51456145D01*
X141946145Y-51294280D01*
X142127752Y-51154928D01*
X142325995Y-51040473D01*
X142537481Y-50952872D01*
X142758592Y-50893626D01*
X142985545Y-50863747D01*
X143214455Y-50863747D01*
X143441408Y-50893626D01*
G37*
G36*
X169281408Y-50053626D02*
G01*
X169502519Y-50112872D01*
X169714005Y-50200473D01*
X169912248Y-50314928D01*
X170093855Y-50454280D01*
X170255720Y-50616145D01*
X170395072Y-50797752D01*
X170509527Y-50995995D01*
X170597128Y-51207481D01*
X170656374Y-51428592D01*
X170686253Y-51655545D01*
X170686253Y-51884455D01*
X170656374Y-52111408D01*
X170597128Y-52332519D01*
X170509527Y-52544005D01*
X170395072Y-52742248D01*
X170255720Y-52923855D01*
X170093855Y-53085720D01*
X169912248Y-53225072D01*
X169714005Y-53339527D01*
X169502519Y-53427128D01*
X169281408Y-53486374D01*
X169054455Y-53516253D01*
X168825545Y-53516253D01*
X168598592Y-53486374D01*
X168377481Y-53427128D01*
X168165995Y-53339527D01*
X167967752Y-53225072D01*
X167786145Y-53085720D01*
X167624280Y-52923855D01*
X167484928Y-52742248D01*
X167370473Y-52544005D01*
X167282872Y-52332519D01*
X167223626Y-52111408D01*
X167193747Y-51884455D01*
X167193747Y-51655545D01*
X167223626Y-51428592D01*
X167282872Y-51207481D01*
X167370473Y-50995995D01*
X167484928Y-50797752D01*
X167624280Y-50616145D01*
X167786145Y-50454280D01*
X167967752Y-50314928D01*
X168165995Y-50200473D01*
X168377481Y-50112872D01*
X168598592Y-50053626D01*
X168825545Y-50023747D01*
X169054455Y-50023747D01*
X169281408Y-50053626D01*
G37*
G36*
X231224047Y-52410805D02*
G01*
X231275408Y-52416764D01*
X231292954Y-52424511D01*
X231315671Y-52429030D01*
X231339991Y-52445280D01*
X231360793Y-52454465D01*
X231375000Y-52468672D01*
X231396777Y-52483223D01*
X231411327Y-52504999D01*
X231425534Y-52519206D01*
X231434718Y-52540006D01*
X231450970Y-52564329D01*
X231455489Y-52587048D01*
X231463235Y-52604591D01*
X231469192Y-52655940D01*
X231470000Y-52660000D01*
X231470000Y-53185000D01*
X231469192Y-53189059D01*
X231463235Y-53240408D01*
X231455489Y-53257950D01*
X231450970Y-53280671D01*
X231434716Y-53304995D01*
X231425534Y-53325793D01*
X231411329Y-53339997D01*
X231396777Y-53361777D01*
X231374997Y-53376329D01*
X231360793Y-53390534D01*
X231339995Y-53399716D01*
X231315671Y-53415970D01*
X231292950Y-53420489D01*
X231275408Y-53428235D01*
X231224061Y-53434192D01*
X231220000Y-53435000D01*
X230320000Y-53435000D01*
X230315941Y-53434192D01*
X230264591Y-53428235D01*
X230247048Y-53420489D01*
X230224329Y-53415970D01*
X230200006Y-53399718D01*
X230179206Y-53390534D01*
X230164999Y-53376327D01*
X230143223Y-53361777D01*
X230128672Y-53340000D01*
X230114465Y-53325793D01*
X230105280Y-53304991D01*
X230089030Y-53280671D01*
X230084511Y-53257954D01*
X230076764Y-53240408D01*
X230070805Y-53189049D01*
X230070000Y-53185000D01*
X230070000Y-52660000D01*
X230070804Y-52655953D01*
X230076764Y-52604591D01*
X230084511Y-52587043D01*
X230089030Y-52564329D01*
X230105278Y-52540010D01*
X230114465Y-52519206D01*
X230128674Y-52504996D01*
X230143223Y-52483223D01*
X230164996Y-52468674D01*
X230179206Y-52454465D01*
X230200010Y-52445278D01*
X230224329Y-52429030D01*
X230247043Y-52424511D01*
X230264591Y-52416764D01*
X230315952Y-52410805D01*
X230320000Y-52410000D01*
X231220000Y-52410000D01*
X231224047Y-52410805D01*
G37*
G36*
X236674047Y-52380805D02*
G01*
X236725408Y-52386764D01*
X236742954Y-52394511D01*
X236765671Y-52399030D01*
X236789991Y-52415280D01*
X236810793Y-52424465D01*
X236825000Y-52438672D01*
X236846777Y-52453223D01*
X236861327Y-52474999D01*
X236875534Y-52489206D01*
X236884718Y-52510006D01*
X236900970Y-52534329D01*
X236905489Y-52557048D01*
X236913235Y-52574591D01*
X236919192Y-52625940D01*
X236920000Y-52630000D01*
X236920000Y-53155000D01*
X236919192Y-53159059D01*
X236913235Y-53210408D01*
X236905489Y-53227950D01*
X236900970Y-53250671D01*
X236884716Y-53274995D01*
X236875534Y-53295793D01*
X236861329Y-53309997D01*
X236846777Y-53331777D01*
X236824997Y-53346329D01*
X236810793Y-53360534D01*
X236789995Y-53369716D01*
X236765671Y-53385970D01*
X236742950Y-53390489D01*
X236725408Y-53398235D01*
X236674061Y-53404192D01*
X236670000Y-53405000D01*
X235770000Y-53405000D01*
X235765941Y-53404192D01*
X235714591Y-53398235D01*
X235697048Y-53390489D01*
X235674329Y-53385970D01*
X235650006Y-53369718D01*
X235629206Y-53360534D01*
X235614999Y-53346327D01*
X235593223Y-53331777D01*
X235578672Y-53310000D01*
X235564465Y-53295793D01*
X235555280Y-53274991D01*
X235539030Y-53250671D01*
X235534511Y-53227954D01*
X235526764Y-53210408D01*
X235520805Y-53159049D01*
X235520000Y-53155000D01*
X235520000Y-52630000D01*
X235520804Y-52625953D01*
X235526764Y-52574591D01*
X235534511Y-52557043D01*
X235539030Y-52534329D01*
X235555278Y-52510010D01*
X235564465Y-52489206D01*
X235578674Y-52474996D01*
X235593223Y-52453223D01*
X235614996Y-52438674D01*
X235629206Y-52424465D01*
X235650010Y-52415278D01*
X235674329Y-52399030D01*
X235697043Y-52394511D01*
X235714591Y-52386764D01*
X235765952Y-52380805D01*
X235770000Y-52380000D01*
X236670000Y-52380000D01*
X236674047Y-52380805D01*
G37*
G36*
X226354047Y-51930805D02*
G01*
X226405408Y-51936764D01*
X226422954Y-51944511D01*
X226445671Y-51949030D01*
X226469991Y-51965280D01*
X226490793Y-51974465D01*
X226505000Y-51988672D01*
X226526777Y-52003223D01*
X226541327Y-52024999D01*
X226555534Y-52039206D01*
X226564718Y-52060006D01*
X226580970Y-52084329D01*
X226585489Y-52107048D01*
X226593235Y-52124591D01*
X226599192Y-52175940D01*
X226600000Y-52180000D01*
X226600000Y-52705000D01*
X226599192Y-52709059D01*
X226593235Y-52760408D01*
X226585489Y-52777950D01*
X226580970Y-52800671D01*
X226564716Y-52824995D01*
X226555534Y-52845793D01*
X226541329Y-52859997D01*
X226526777Y-52881777D01*
X226504997Y-52896329D01*
X226490793Y-52910534D01*
X226469995Y-52919716D01*
X226445671Y-52935970D01*
X226422950Y-52940489D01*
X226405408Y-52948235D01*
X226354061Y-52954192D01*
X226350000Y-52955000D01*
X225450000Y-52955000D01*
X225445941Y-52954192D01*
X225394591Y-52948235D01*
X225377048Y-52940489D01*
X225354329Y-52935970D01*
X225330006Y-52919718D01*
X225309206Y-52910534D01*
X225294999Y-52896327D01*
X225273223Y-52881777D01*
X225258672Y-52860000D01*
X225244465Y-52845793D01*
X225235280Y-52824991D01*
X225219030Y-52800671D01*
X225214511Y-52777954D01*
X225206764Y-52760408D01*
X225200805Y-52709049D01*
X225200000Y-52705000D01*
X225200000Y-52180000D01*
X225200804Y-52175953D01*
X225206764Y-52124591D01*
X225214511Y-52107043D01*
X225219030Y-52084329D01*
X225235278Y-52060010D01*
X225244465Y-52039206D01*
X225258674Y-52024996D01*
X225273223Y-52003223D01*
X225294996Y-51988674D01*
X225309206Y-51974465D01*
X225330010Y-51965278D01*
X225354329Y-51949030D01*
X225377043Y-51944511D01*
X225394591Y-51936764D01*
X225445952Y-51930805D01*
X225450000Y-51930000D01*
X226350000Y-51930000D01*
X226354047Y-51930805D01*
G37*
G36*
X224374047Y-51920805D02*
G01*
X224425408Y-51926764D01*
X224442954Y-51934511D01*
X224465671Y-51939030D01*
X224489991Y-51955280D01*
X224510793Y-51964465D01*
X224525000Y-51978672D01*
X224546777Y-51993223D01*
X224561327Y-52014999D01*
X224575534Y-52029206D01*
X224584718Y-52050006D01*
X224600970Y-52074329D01*
X224605489Y-52097048D01*
X224613235Y-52114591D01*
X224619192Y-52165940D01*
X224620000Y-52170000D01*
X224620000Y-52695000D01*
X224619192Y-52699059D01*
X224613235Y-52750408D01*
X224605489Y-52767950D01*
X224600970Y-52790671D01*
X224584716Y-52814995D01*
X224575534Y-52835793D01*
X224561329Y-52849997D01*
X224546777Y-52871777D01*
X224524997Y-52886329D01*
X224510793Y-52900534D01*
X224489995Y-52909716D01*
X224465671Y-52925970D01*
X224442950Y-52930489D01*
X224425408Y-52938235D01*
X224374061Y-52944192D01*
X224370000Y-52945000D01*
X223470000Y-52945000D01*
X223465941Y-52944192D01*
X223414591Y-52938235D01*
X223397048Y-52930489D01*
X223374329Y-52925970D01*
X223350006Y-52909718D01*
X223329206Y-52900534D01*
X223314999Y-52886327D01*
X223293223Y-52871777D01*
X223278672Y-52850000D01*
X223264465Y-52835793D01*
X223255280Y-52814991D01*
X223239030Y-52790671D01*
X223234511Y-52767954D01*
X223226764Y-52750408D01*
X223220805Y-52699049D01*
X223220000Y-52695000D01*
X223220000Y-52170000D01*
X223220804Y-52165953D01*
X223226764Y-52114591D01*
X223234511Y-52097043D01*
X223239030Y-52074329D01*
X223255278Y-52050010D01*
X223264465Y-52029206D01*
X223278674Y-52014996D01*
X223293223Y-51993223D01*
X223314996Y-51978674D01*
X223329206Y-51964465D01*
X223350010Y-51955278D01*
X223374329Y-51939030D01*
X223397043Y-51934511D01*
X223414591Y-51926764D01*
X223465952Y-51920805D01*
X223470000Y-51920000D01*
X224370000Y-51920000D01*
X224374047Y-51920805D01*
G37*
G36*
X196444047Y-51490805D02*
G01*
X196495408Y-51496764D01*
X196512954Y-51504511D01*
X196535671Y-51509030D01*
X196559991Y-51525280D01*
X196580793Y-51534465D01*
X196595000Y-51548672D01*
X196616777Y-51563223D01*
X196631327Y-51584999D01*
X196645534Y-51599206D01*
X196654718Y-51620006D01*
X196670970Y-51644329D01*
X196675489Y-51667048D01*
X196683235Y-51684591D01*
X196689192Y-51735940D01*
X196690000Y-51740000D01*
X196690000Y-52390000D01*
X196689192Y-52394059D01*
X196683235Y-52445408D01*
X196675489Y-52462950D01*
X196670970Y-52485671D01*
X196654716Y-52509995D01*
X196645534Y-52530793D01*
X196631329Y-52544997D01*
X196616777Y-52566777D01*
X196594997Y-52581329D01*
X196580793Y-52595534D01*
X196559995Y-52604716D01*
X196535671Y-52620970D01*
X196512950Y-52625489D01*
X196495408Y-52633235D01*
X196444061Y-52639192D01*
X196440000Y-52640000D01*
X195140000Y-52640000D01*
X195135941Y-52639192D01*
X195084591Y-52633235D01*
X195067048Y-52625489D01*
X195044329Y-52620970D01*
X195020006Y-52604718D01*
X194999206Y-52595534D01*
X194984999Y-52581327D01*
X194963223Y-52566777D01*
X194948672Y-52545000D01*
X194934465Y-52530793D01*
X194925280Y-52509991D01*
X194909030Y-52485671D01*
X194904511Y-52462954D01*
X194896764Y-52445408D01*
X194890805Y-52394049D01*
X194890000Y-52390000D01*
X194890000Y-51740000D01*
X194890804Y-51735953D01*
X194896764Y-51684591D01*
X194904511Y-51667043D01*
X194909030Y-51644329D01*
X194925278Y-51620010D01*
X194934465Y-51599206D01*
X194948674Y-51584996D01*
X194963223Y-51563223D01*
X194984996Y-51548674D01*
X194999206Y-51534465D01*
X195020010Y-51525278D01*
X195044329Y-51509030D01*
X195067043Y-51504511D01*
X195084591Y-51496764D01*
X195135952Y-51490805D01*
X195140000Y-51490000D01*
X196440000Y-51490000D01*
X196444047Y-51490805D01*
G37*
G36*
X211674047Y-51573305D02*
G01*
X211725408Y-51579264D01*
X211742954Y-51587011D01*
X211765671Y-51591530D01*
X211789991Y-51607780D01*
X211810793Y-51616965D01*
X211825000Y-51631172D01*
X211846777Y-51645723D01*
X211861327Y-51667499D01*
X211875534Y-51681706D01*
X211884718Y-51702506D01*
X211900970Y-51726829D01*
X211905489Y-51749548D01*
X211913235Y-51767091D01*
X211919192Y-51818440D01*
X211920000Y-51822500D01*
X211920000Y-52347500D01*
X211919192Y-52351559D01*
X211913235Y-52402908D01*
X211905489Y-52420450D01*
X211900970Y-52443171D01*
X211884716Y-52467495D01*
X211875534Y-52488293D01*
X211861329Y-52502497D01*
X211846777Y-52524277D01*
X211824997Y-52538829D01*
X211810793Y-52553034D01*
X211789995Y-52562216D01*
X211765671Y-52578470D01*
X211742950Y-52582989D01*
X211725408Y-52590735D01*
X211674061Y-52596692D01*
X211670000Y-52597500D01*
X210770000Y-52597500D01*
X210765941Y-52596692D01*
X210714591Y-52590735D01*
X210697048Y-52582989D01*
X210674329Y-52578470D01*
X210650006Y-52562218D01*
X210629206Y-52553034D01*
X210614999Y-52538827D01*
X210593223Y-52524277D01*
X210578672Y-52502500D01*
X210564465Y-52488293D01*
X210555280Y-52467491D01*
X210539030Y-52443171D01*
X210534511Y-52420454D01*
X210526764Y-52402908D01*
X210520805Y-52351549D01*
X210520000Y-52347500D01*
X210520000Y-51822500D01*
X210520804Y-51818453D01*
X210526764Y-51767091D01*
X210534511Y-51749543D01*
X210539030Y-51726829D01*
X210555278Y-51702510D01*
X210564465Y-51681706D01*
X210578674Y-51667496D01*
X210593223Y-51645723D01*
X210614996Y-51631174D01*
X210629206Y-51616965D01*
X210650010Y-51607778D01*
X210674329Y-51591530D01*
X210697043Y-51587011D01*
X210714591Y-51579264D01*
X210765952Y-51573305D01*
X210770000Y-51572500D01*
X211670000Y-51572500D01*
X211674047Y-51573305D01*
G37*
G36*
X198764047Y-51533305D02*
G01*
X198815408Y-51539264D01*
X198832954Y-51547011D01*
X198855671Y-51551530D01*
X198879991Y-51567780D01*
X198900793Y-51576965D01*
X198915000Y-51591172D01*
X198936777Y-51605723D01*
X198951327Y-51627499D01*
X198965534Y-51641706D01*
X198974718Y-51662506D01*
X198990970Y-51686829D01*
X198995489Y-51709548D01*
X199003235Y-51727091D01*
X199009192Y-51778440D01*
X199010000Y-51782500D01*
X199010000Y-52307500D01*
X199009192Y-52311559D01*
X199003235Y-52362908D01*
X198995489Y-52380450D01*
X198990970Y-52403171D01*
X198974716Y-52427495D01*
X198965534Y-52448293D01*
X198951329Y-52462497D01*
X198936777Y-52484277D01*
X198914997Y-52498829D01*
X198900793Y-52513034D01*
X198879995Y-52522216D01*
X198855671Y-52538470D01*
X198832950Y-52542989D01*
X198815408Y-52550735D01*
X198764061Y-52556692D01*
X198760000Y-52557500D01*
X197860000Y-52557500D01*
X197855941Y-52556692D01*
X197804591Y-52550735D01*
X197787048Y-52542989D01*
X197764329Y-52538470D01*
X197740006Y-52522218D01*
X197719206Y-52513034D01*
X197704999Y-52498827D01*
X197683223Y-52484277D01*
X197668672Y-52462500D01*
X197654465Y-52448293D01*
X197645280Y-52427491D01*
X197629030Y-52403171D01*
X197624511Y-52380454D01*
X197616764Y-52362908D01*
X197610805Y-52311549D01*
X197610000Y-52307500D01*
X197610000Y-51782500D01*
X197610804Y-51778453D01*
X197616764Y-51727091D01*
X197624511Y-51709543D01*
X197629030Y-51686829D01*
X197645278Y-51662510D01*
X197654465Y-51641706D01*
X197668674Y-51627496D01*
X197683223Y-51605723D01*
X197704996Y-51591174D01*
X197719206Y-51576965D01*
X197740010Y-51567778D01*
X197764329Y-51551530D01*
X197787043Y-51547011D01*
X197804591Y-51539264D01*
X197855952Y-51533305D01*
X197860000Y-51532500D01*
X198760000Y-51532500D01*
X198764047Y-51533305D01*
G37*
G36*
X185511256Y-50198754D02*
G01*
X185674257Y-50266271D01*
X185820954Y-50364291D01*
X185945709Y-50489046D01*
X186043729Y-50635743D01*
X186111246Y-50798744D01*
X186145666Y-50971785D01*
X186145666Y-51148215D01*
X186111246Y-51321256D01*
X186043729Y-51484257D01*
X185945709Y-51630954D01*
X185820954Y-51755709D01*
X185674257Y-51853729D01*
X185511256Y-51921246D01*
X185338215Y-51955666D01*
X185161785Y-51955666D01*
X184988744Y-51921246D01*
X184825743Y-51853729D01*
X184679046Y-51755709D01*
X184554291Y-51630954D01*
X184456271Y-51484257D01*
X184388754Y-51321256D01*
X184354334Y-51148215D01*
X184354334Y-50971785D01*
X184388754Y-50798744D01*
X184456271Y-50635743D01*
X184554291Y-50489046D01*
X184679046Y-50364291D01*
X184825743Y-50266271D01*
X184988744Y-50198754D01*
X185161785Y-50164334D01*
X185338215Y-50164334D01*
X185511256Y-50198754D01*
G37*
G36*
X190591256Y-50198754D02*
G01*
X190754257Y-50266271D01*
X190900954Y-50364291D01*
X191025709Y-50489046D01*
X191123729Y-50635743D01*
X191191246Y-50798744D01*
X191225666Y-50971785D01*
X191225666Y-51148215D01*
X191191246Y-51321256D01*
X191123729Y-51484257D01*
X191025709Y-51630954D01*
X190900954Y-51755709D01*
X190754257Y-51853729D01*
X190591256Y-51921246D01*
X190418215Y-51955666D01*
X190241785Y-51955666D01*
X190068744Y-51921246D01*
X189905743Y-51853729D01*
X189759046Y-51755709D01*
X189634291Y-51630954D01*
X189536271Y-51484257D01*
X189468754Y-51321256D01*
X189434334Y-51148215D01*
X189434334Y-50971785D01*
X189468754Y-50798744D01*
X189536271Y-50635743D01*
X189634291Y-50489046D01*
X189759046Y-50364291D01*
X189905743Y-50266271D01*
X190068744Y-50198754D01*
X190241785Y-50164334D01*
X190418215Y-50164334D01*
X190591256Y-50198754D01*
G37*
G36*
X231224047Y-50585805D02*
G01*
X231275408Y-50591764D01*
X231292954Y-50599511D01*
X231315671Y-50604030D01*
X231339991Y-50620280D01*
X231360793Y-50629465D01*
X231375000Y-50643672D01*
X231396777Y-50658223D01*
X231411327Y-50679999D01*
X231425534Y-50694206D01*
X231434718Y-50715006D01*
X231450970Y-50739329D01*
X231455489Y-50762048D01*
X231463235Y-50779591D01*
X231469192Y-50830940D01*
X231470000Y-50835000D01*
X231470000Y-51360000D01*
X231469192Y-51364059D01*
X231463235Y-51415408D01*
X231455489Y-51432950D01*
X231450970Y-51455671D01*
X231434716Y-51479995D01*
X231425534Y-51500793D01*
X231411329Y-51514997D01*
X231396777Y-51536777D01*
X231374997Y-51551329D01*
X231360793Y-51565534D01*
X231339995Y-51574716D01*
X231315671Y-51590970D01*
X231292950Y-51595489D01*
X231275408Y-51603235D01*
X231224061Y-51609192D01*
X231220000Y-51610000D01*
X230320000Y-51610000D01*
X230315941Y-51609192D01*
X230264591Y-51603235D01*
X230247048Y-51595489D01*
X230224329Y-51590970D01*
X230200006Y-51574718D01*
X230179206Y-51565534D01*
X230164999Y-51551327D01*
X230143223Y-51536777D01*
X230128672Y-51515000D01*
X230114465Y-51500793D01*
X230105280Y-51479991D01*
X230089030Y-51455671D01*
X230084511Y-51432954D01*
X230076764Y-51415408D01*
X230070805Y-51364049D01*
X230070000Y-51360000D01*
X230070000Y-50835000D01*
X230070804Y-50830953D01*
X230076764Y-50779591D01*
X230084511Y-50762043D01*
X230089030Y-50739329D01*
X230105278Y-50715010D01*
X230114465Y-50694206D01*
X230128674Y-50679996D01*
X230143223Y-50658223D01*
X230164996Y-50643674D01*
X230179206Y-50629465D01*
X230200010Y-50620278D01*
X230224329Y-50604030D01*
X230247043Y-50599511D01*
X230264591Y-50591764D01*
X230315952Y-50585805D01*
X230320000Y-50585000D01*
X231220000Y-50585000D01*
X231224047Y-50585805D01*
G37*
G36*
X236674047Y-50555805D02*
G01*
X236725408Y-50561764D01*
X236742954Y-50569511D01*
X236765671Y-50574030D01*
X236789991Y-50590280D01*
X236810793Y-50599465D01*
X236825000Y-50613672D01*
X236846777Y-50628223D01*
X236861327Y-50649999D01*
X236875534Y-50664206D01*
X236884718Y-50685006D01*
X236900970Y-50709329D01*
X236905489Y-50732048D01*
X236913235Y-50749591D01*
X236919192Y-50800940D01*
X236920000Y-50805000D01*
X236920000Y-51330000D01*
X236919192Y-51334059D01*
X236913235Y-51385408D01*
X236905489Y-51402950D01*
X236900970Y-51425671D01*
X236884716Y-51449995D01*
X236875534Y-51470793D01*
X236861329Y-51484997D01*
X236846777Y-51506777D01*
X236824997Y-51521329D01*
X236810793Y-51535534D01*
X236789995Y-51544716D01*
X236765671Y-51560970D01*
X236742950Y-51565489D01*
X236725408Y-51573235D01*
X236674061Y-51579192D01*
X236670000Y-51580000D01*
X235770000Y-51580000D01*
X235765941Y-51579192D01*
X235714591Y-51573235D01*
X235697048Y-51565489D01*
X235674329Y-51560970D01*
X235650006Y-51544718D01*
X235629206Y-51535534D01*
X235614999Y-51521327D01*
X235593223Y-51506777D01*
X235578672Y-51485000D01*
X235564465Y-51470793D01*
X235555280Y-51449991D01*
X235539030Y-51425671D01*
X235534511Y-51402954D01*
X235526764Y-51385408D01*
X235520805Y-51334049D01*
X235520000Y-51330000D01*
X235520000Y-50805000D01*
X235520804Y-50800953D01*
X235526764Y-50749591D01*
X235534511Y-50732043D01*
X235539030Y-50709329D01*
X235555278Y-50685010D01*
X235564465Y-50664206D01*
X235578674Y-50649996D01*
X235593223Y-50628223D01*
X235614996Y-50613674D01*
X235629206Y-50599465D01*
X235650010Y-50590278D01*
X235674329Y-50574030D01*
X235697043Y-50569511D01*
X235714591Y-50561764D01*
X235765952Y-50555805D01*
X235770000Y-50555000D01*
X236670000Y-50555000D01*
X236674047Y-50555805D01*
G37*
G36*
X213314047Y-49750805D02*
G01*
X213365408Y-49756764D01*
X213382954Y-49764511D01*
X213405671Y-49769030D01*
X213429991Y-49785280D01*
X213450793Y-49794465D01*
X213465000Y-49808672D01*
X213486777Y-49823223D01*
X213501327Y-49844999D01*
X213515534Y-49859206D01*
X213524718Y-49880006D01*
X213540970Y-49904329D01*
X213545489Y-49927048D01*
X213553235Y-49944591D01*
X213559192Y-49995940D01*
X213560000Y-50000000D01*
X213560000Y-50900000D01*
X213559192Y-50904059D01*
X213553235Y-50955408D01*
X213545489Y-50972950D01*
X213540970Y-50995671D01*
X213524716Y-51019995D01*
X213515534Y-51040793D01*
X213501329Y-51054997D01*
X213486777Y-51076777D01*
X213464997Y-51091329D01*
X213450793Y-51105534D01*
X213429995Y-51114716D01*
X213405671Y-51130970D01*
X213382950Y-51135489D01*
X213365408Y-51143235D01*
X213314061Y-51149192D01*
X213310000Y-51150000D01*
X212785000Y-51150000D01*
X212780941Y-51149192D01*
X212729591Y-51143235D01*
X212712048Y-51135489D01*
X212689329Y-51130970D01*
X212665006Y-51114718D01*
X212644206Y-51105534D01*
X212629999Y-51091327D01*
X212608223Y-51076777D01*
X212593672Y-51055000D01*
X212579465Y-51040793D01*
X212570280Y-51019991D01*
X212554030Y-50995671D01*
X212549511Y-50972954D01*
X212541764Y-50955408D01*
X212535805Y-50904049D01*
X212535000Y-50900000D01*
X212535000Y-50000000D01*
X212535804Y-49995953D01*
X212541764Y-49944591D01*
X212549511Y-49927043D01*
X212554030Y-49904329D01*
X212570278Y-49880010D01*
X212579465Y-49859206D01*
X212593674Y-49844996D01*
X212608223Y-49823223D01*
X212629996Y-49808674D01*
X212644206Y-49794465D01*
X212665010Y-49785278D01*
X212689329Y-49769030D01*
X212712043Y-49764511D01*
X212729591Y-49756764D01*
X212780952Y-49750805D01*
X212785000Y-49750000D01*
X213310000Y-49750000D01*
X213314047Y-49750805D01*
G37*
G36*
X215139047Y-49750805D02*
G01*
X215190408Y-49756764D01*
X215207954Y-49764511D01*
X215230671Y-49769030D01*
X215254991Y-49785280D01*
X215275793Y-49794465D01*
X215290000Y-49808672D01*
X215311777Y-49823223D01*
X215326327Y-49844999D01*
X215340534Y-49859206D01*
X215349718Y-49880006D01*
X215365970Y-49904329D01*
X215370489Y-49927048D01*
X215378235Y-49944591D01*
X215384192Y-49995940D01*
X215385000Y-50000000D01*
X215385000Y-50900000D01*
X215384192Y-50904059D01*
X215378235Y-50955408D01*
X215370489Y-50972950D01*
X215365970Y-50995671D01*
X215349716Y-51019995D01*
X215340534Y-51040793D01*
X215326329Y-51054997D01*
X215311777Y-51076777D01*
X215289997Y-51091329D01*
X215275793Y-51105534D01*
X215254995Y-51114716D01*
X215230671Y-51130970D01*
X215207950Y-51135489D01*
X215190408Y-51143235D01*
X215139061Y-51149192D01*
X215135000Y-51150000D01*
X214610000Y-51150000D01*
X214605941Y-51149192D01*
X214554591Y-51143235D01*
X214537048Y-51135489D01*
X214514329Y-51130970D01*
X214490006Y-51114718D01*
X214469206Y-51105534D01*
X214454999Y-51091327D01*
X214433223Y-51076777D01*
X214418672Y-51055000D01*
X214404465Y-51040793D01*
X214395280Y-51019991D01*
X214379030Y-50995671D01*
X214374511Y-50972954D01*
X214366764Y-50955408D01*
X214360805Y-50904049D01*
X214360000Y-50900000D01*
X214360000Y-50000000D01*
X214360804Y-49995953D01*
X214366764Y-49944591D01*
X214374511Y-49927043D01*
X214379030Y-49904329D01*
X214395278Y-49880010D01*
X214404465Y-49859206D01*
X214418674Y-49844996D01*
X214433223Y-49823223D01*
X214454996Y-49808674D01*
X214469206Y-49794465D01*
X214490010Y-49785278D01*
X214514329Y-49769030D01*
X214537043Y-49764511D01*
X214554591Y-49756764D01*
X214605952Y-49750805D01*
X214610000Y-49750000D01*
X215135000Y-49750000D01*
X215139047Y-49750805D01*
G37*
G36*
X226354047Y-50105805D02*
G01*
X226405408Y-50111764D01*
X226422954Y-50119511D01*
X226445671Y-50124030D01*
X226469991Y-50140280D01*
X226490793Y-50149465D01*
X226505000Y-50163672D01*
X226526777Y-50178223D01*
X226541327Y-50199999D01*
X226555534Y-50214206D01*
X226564718Y-50235006D01*
X226580970Y-50259329D01*
X226585489Y-50282048D01*
X226593235Y-50299591D01*
X226599192Y-50350940D01*
X226600000Y-50355000D01*
X226600000Y-50880000D01*
X226599192Y-50884059D01*
X226593235Y-50935408D01*
X226585489Y-50952950D01*
X226580970Y-50975671D01*
X226564716Y-50999995D01*
X226555534Y-51020793D01*
X226541329Y-51034997D01*
X226526777Y-51056777D01*
X226504997Y-51071329D01*
X226490793Y-51085534D01*
X226469995Y-51094716D01*
X226445671Y-51110970D01*
X226422950Y-51115489D01*
X226405408Y-51123235D01*
X226354061Y-51129192D01*
X226350000Y-51130000D01*
X225450000Y-51130000D01*
X225445941Y-51129192D01*
X225394591Y-51123235D01*
X225377048Y-51115489D01*
X225354329Y-51110970D01*
X225330006Y-51094718D01*
X225309206Y-51085534D01*
X225294999Y-51071327D01*
X225273223Y-51056777D01*
X225258672Y-51035000D01*
X225244465Y-51020793D01*
X225235280Y-50999991D01*
X225219030Y-50975671D01*
X225214511Y-50952954D01*
X225206764Y-50935408D01*
X225200805Y-50884049D01*
X225200000Y-50880000D01*
X225200000Y-50355000D01*
X225200804Y-50350953D01*
X225206764Y-50299591D01*
X225214511Y-50282043D01*
X225219030Y-50259329D01*
X225235278Y-50235010D01*
X225244465Y-50214206D01*
X225258674Y-50199996D01*
X225273223Y-50178223D01*
X225294996Y-50163674D01*
X225309206Y-50149465D01*
X225330010Y-50140278D01*
X225354329Y-50124030D01*
X225377043Y-50119511D01*
X225394591Y-50111764D01*
X225445952Y-50105805D01*
X225450000Y-50105000D01*
X226350000Y-50105000D01*
X226354047Y-50105805D01*
G37*
G36*
X224374047Y-50095805D02*
G01*
X224425408Y-50101764D01*
X224442954Y-50109511D01*
X224465671Y-50114030D01*
X224489991Y-50130280D01*
X224510793Y-50139465D01*
X224525000Y-50153672D01*
X224546777Y-50168223D01*
X224561327Y-50189999D01*
X224575534Y-50204206D01*
X224584718Y-50225006D01*
X224600970Y-50249329D01*
X224605489Y-50272048D01*
X224613235Y-50289591D01*
X224619192Y-50340940D01*
X224620000Y-50345000D01*
X224620000Y-50870000D01*
X224619192Y-50874059D01*
X224613235Y-50925408D01*
X224605489Y-50942950D01*
X224600970Y-50965671D01*
X224584716Y-50989995D01*
X224575534Y-51010793D01*
X224561329Y-51024997D01*
X224546777Y-51046777D01*
X224524997Y-51061329D01*
X224510793Y-51075534D01*
X224489995Y-51084716D01*
X224465671Y-51100970D01*
X224442950Y-51105489D01*
X224425408Y-51113235D01*
X224374061Y-51119192D01*
X224370000Y-51120000D01*
X223470000Y-51120000D01*
X223465941Y-51119192D01*
X223414591Y-51113235D01*
X223397048Y-51105489D01*
X223374329Y-51100970D01*
X223350006Y-51084718D01*
X223329206Y-51075534D01*
X223314999Y-51061327D01*
X223293223Y-51046777D01*
X223278672Y-51025000D01*
X223264465Y-51010793D01*
X223255280Y-50989991D01*
X223239030Y-50965671D01*
X223234511Y-50942954D01*
X223226764Y-50925408D01*
X223220805Y-50874049D01*
X223220000Y-50870000D01*
X223220000Y-50345000D01*
X223220804Y-50340953D01*
X223226764Y-50289591D01*
X223234511Y-50272043D01*
X223239030Y-50249329D01*
X223255278Y-50225010D01*
X223264465Y-50204206D01*
X223278674Y-50189996D01*
X223293223Y-50168223D01*
X223314996Y-50153674D01*
X223329206Y-50139465D01*
X223350010Y-50130278D01*
X223374329Y-50114030D01*
X223397043Y-50109511D01*
X223414591Y-50101764D01*
X223465952Y-50095805D01*
X223470000Y-50095000D01*
X224370000Y-50095000D01*
X224374047Y-50095805D01*
G37*
G36*
X211674047Y-49748305D02*
G01*
X211725408Y-49754264D01*
X211742954Y-49762011D01*
X211765671Y-49766530D01*
X211789991Y-49782780D01*
X211810793Y-49791965D01*
X211825000Y-49806172D01*
X211846777Y-49820723D01*
X211861327Y-49842499D01*
X211875534Y-49856706D01*
X211884718Y-49877506D01*
X211900970Y-49901829D01*
X211905489Y-49924548D01*
X211913235Y-49942091D01*
X211919192Y-49993440D01*
X211920000Y-49997500D01*
X211920000Y-50522500D01*
X211919192Y-50526559D01*
X211913235Y-50577908D01*
X211905489Y-50595450D01*
X211900970Y-50618171D01*
X211884716Y-50642495D01*
X211875534Y-50663293D01*
X211861329Y-50677497D01*
X211846777Y-50699277D01*
X211824997Y-50713829D01*
X211810793Y-50728034D01*
X211789995Y-50737216D01*
X211765671Y-50753470D01*
X211742950Y-50757989D01*
X211725408Y-50765735D01*
X211674061Y-50771692D01*
X211670000Y-50772500D01*
X210770000Y-50772500D01*
X210765941Y-50771692D01*
X210714591Y-50765735D01*
X210697048Y-50757989D01*
X210674329Y-50753470D01*
X210650006Y-50737218D01*
X210629206Y-50728034D01*
X210614999Y-50713827D01*
X210593223Y-50699277D01*
X210578672Y-50677500D01*
X210564465Y-50663293D01*
X210555280Y-50642491D01*
X210539030Y-50618171D01*
X210534511Y-50595454D01*
X210526764Y-50577908D01*
X210520805Y-50526549D01*
X210520000Y-50522500D01*
X210520000Y-49997500D01*
X210520804Y-49993453D01*
X210526764Y-49942091D01*
X210534511Y-49924543D01*
X210539030Y-49901829D01*
X210555278Y-49877510D01*
X210564465Y-49856706D01*
X210578674Y-49842496D01*
X210593223Y-49820723D01*
X210614996Y-49806174D01*
X210629206Y-49791965D01*
X210650010Y-49782778D01*
X210674329Y-49766530D01*
X210697043Y-49762011D01*
X210714591Y-49754264D01*
X210765952Y-49748305D01*
X210770000Y-49747500D01*
X211670000Y-49747500D01*
X211674047Y-49748305D01*
G37*
G36*
X226364047Y-48385805D02*
G01*
X226415408Y-48391764D01*
X226432954Y-48399511D01*
X226455671Y-48404030D01*
X226479991Y-48420280D01*
X226500793Y-48429465D01*
X226515000Y-48443672D01*
X226536777Y-48458223D01*
X226551327Y-48479999D01*
X226565534Y-48494206D01*
X226574718Y-48515006D01*
X226590970Y-48539329D01*
X226595489Y-48562048D01*
X226603235Y-48579591D01*
X226609192Y-48630940D01*
X226610000Y-48635000D01*
X226610000Y-49285000D01*
X226609192Y-49289059D01*
X226603235Y-49340408D01*
X226595489Y-49357950D01*
X226590970Y-49380671D01*
X226574716Y-49404995D01*
X226565534Y-49425793D01*
X226551329Y-49439997D01*
X226536777Y-49461777D01*
X226514997Y-49476329D01*
X226500793Y-49490534D01*
X226479995Y-49499716D01*
X226455671Y-49515970D01*
X226432950Y-49520489D01*
X226415408Y-49528235D01*
X226364061Y-49534192D01*
X226360000Y-49535000D01*
X225060000Y-49535000D01*
X225055941Y-49534192D01*
X225004591Y-49528235D01*
X224987048Y-49520489D01*
X224964329Y-49515970D01*
X224940006Y-49499718D01*
X224919206Y-49490534D01*
X224904999Y-49476327D01*
X224883223Y-49461777D01*
X224868672Y-49440000D01*
X224854465Y-49425793D01*
X224845280Y-49404991D01*
X224829030Y-49380671D01*
X224824511Y-49357954D01*
X224816764Y-49340408D01*
X224810805Y-49289049D01*
X224810000Y-49285000D01*
X224810000Y-48635000D01*
X224810804Y-48630953D01*
X224816764Y-48579591D01*
X224824511Y-48562043D01*
X224829030Y-48539329D01*
X224845278Y-48515010D01*
X224854465Y-48494206D01*
X224868674Y-48479996D01*
X224883223Y-48458223D01*
X224904996Y-48443674D01*
X224919206Y-48429465D01*
X224940010Y-48420278D01*
X224964329Y-48404030D01*
X224987043Y-48399511D01*
X225004591Y-48391764D01*
X225055952Y-48385805D01*
X225060000Y-48385000D01*
X226360000Y-48385000D01*
X226364047Y-48385805D01*
G37*
G36*
X196885000Y-48375000D02*
G01*
X195175000Y-48375000D01*
X195175000Y-46575000D01*
X196885000Y-46575000D01*
X196885000Y-48375000D01*
G37*
G36*
X198558193Y-46611816D02*
G01*
X198713044Y-46675957D01*
X198852406Y-46769076D01*
X198970924Y-46887594D01*
X199064043Y-47026956D01*
X199128184Y-47181807D01*
X199160883Y-47346195D01*
X199165000Y-47430000D01*
X199165000Y-47520000D01*
X199160883Y-47603805D01*
X199128184Y-47768193D01*
X199064043Y-47923044D01*
X198970924Y-48062406D01*
X198852406Y-48180924D01*
X198713044Y-48274043D01*
X198558193Y-48338184D01*
X198393805Y-48370883D01*
X198226195Y-48370883D01*
X198061807Y-48338184D01*
X197906956Y-48274043D01*
X197767594Y-48180924D01*
X197649076Y-48062406D01*
X197555957Y-47923044D01*
X197491816Y-47768193D01*
X197459117Y-47603805D01*
X197455000Y-47520000D01*
X197455000Y-47430000D01*
X197459117Y-47346195D01*
X197491816Y-47181807D01*
X197555957Y-47026956D01*
X197649076Y-46887594D01*
X197767594Y-46769076D01*
X197906956Y-46675957D01*
X198061807Y-46611816D01*
X198226195Y-46579117D01*
X198393805Y-46579117D01*
X198558193Y-46611816D01*
G37*
G36*
X200838193Y-46611816D02*
G01*
X200993044Y-46675957D01*
X201132406Y-46769076D01*
X201250924Y-46887594D01*
X201344043Y-47026956D01*
X201408184Y-47181807D01*
X201440883Y-47346195D01*
X201445000Y-47430000D01*
X201445000Y-47520000D01*
X201440883Y-47603805D01*
X201408184Y-47768193D01*
X201344043Y-47923044D01*
X201250924Y-48062406D01*
X201132406Y-48180924D01*
X200993044Y-48274043D01*
X200838193Y-48338184D01*
X200673805Y-48370883D01*
X200506195Y-48370883D01*
X200341807Y-48338184D01*
X200186956Y-48274043D01*
X200047594Y-48180924D01*
X199929076Y-48062406D01*
X199835957Y-47923044D01*
X199771816Y-47768193D01*
X199739117Y-47603805D01*
X199735000Y-47520000D01*
X199735000Y-47430000D01*
X199739117Y-47346195D01*
X199771816Y-47181807D01*
X199835957Y-47026956D01*
X199929076Y-46887594D01*
X200047594Y-46769076D01*
X200186956Y-46675957D01*
X200341807Y-46611816D01*
X200506195Y-46579117D01*
X200673805Y-46579117D01*
X200838193Y-46611816D01*
G37*
G36*
X218745000Y-48325000D02*
G01*
X217035000Y-48325000D01*
X217035000Y-46525000D01*
X218745000Y-46525000D01*
X218745000Y-48325000D01*
G37*
G36*
X220418193Y-46561816D02*
G01*
X220573044Y-46625957D01*
X220712406Y-46719076D01*
X220830924Y-46837594D01*
X220924043Y-46976956D01*
X220988184Y-47131807D01*
X221020883Y-47296195D01*
X221025000Y-47380000D01*
X221025000Y-47470000D01*
X221020883Y-47553805D01*
X220988184Y-47718193D01*
X220924043Y-47873044D01*
X220830924Y-48012406D01*
X220712406Y-48130924D01*
X220573044Y-48224043D01*
X220418193Y-48288184D01*
X220253805Y-48320883D01*
X220086195Y-48320883D01*
X219921807Y-48288184D01*
X219766956Y-48224043D01*
X219627594Y-48130924D01*
X219509076Y-48012406D01*
X219415957Y-47873044D01*
X219351816Y-47718193D01*
X219319117Y-47553805D01*
X219315000Y-47470000D01*
X219315000Y-47380000D01*
X219319117Y-47296195D01*
X219351816Y-47131807D01*
X219415957Y-46976956D01*
X219509076Y-46837594D01*
X219627594Y-46719076D01*
X219766956Y-46625957D01*
X219921807Y-46561816D01*
X220086195Y-46529117D01*
X220253805Y-46529117D01*
X220418193Y-46561816D01*
G37*
G36*
X222698193Y-46561816D02*
G01*
X222853044Y-46625957D01*
X222992406Y-46719076D01*
X223110924Y-46837594D01*
X223204043Y-46976956D01*
X223268184Y-47131807D01*
X223300883Y-47296195D01*
X223305000Y-47380000D01*
X223305000Y-47470000D01*
X223300883Y-47553805D01*
X223268184Y-47718193D01*
X223204043Y-47873044D01*
X223110924Y-48012406D01*
X222992406Y-48130924D01*
X222853044Y-48224043D01*
X222698193Y-48288184D01*
X222533805Y-48320883D01*
X222366195Y-48320883D01*
X222201807Y-48288184D01*
X222046956Y-48224043D01*
X221907594Y-48130924D01*
X221789076Y-48012406D01*
X221695957Y-47873044D01*
X221631816Y-47718193D01*
X221599117Y-47553805D01*
X221595000Y-47470000D01*
X221595000Y-47380000D01*
X221599117Y-47296195D01*
X221631816Y-47131807D01*
X221695957Y-46976956D01*
X221789076Y-46837594D01*
X221907594Y-46719076D01*
X222046956Y-46625957D01*
X222201807Y-46561816D01*
X222366195Y-46529117D01*
X222533805Y-46529117D01*
X222698193Y-46561816D01*
G37*
G36*
X207505000Y-48295000D02*
G01*
X205795000Y-48295000D01*
X205795000Y-46495000D01*
X207505000Y-46495000D01*
X207505000Y-48295000D01*
G37*
G36*
X209178193Y-46531816D02*
G01*
X209333044Y-46595957D01*
X209472406Y-46689076D01*
X209590924Y-46807594D01*
X209684043Y-46946956D01*
X209748184Y-47101807D01*
X209780883Y-47266195D01*
X209785000Y-47350000D01*
X209785000Y-47440000D01*
X209780883Y-47523805D01*
X209748184Y-47688193D01*
X209684043Y-47843044D01*
X209590924Y-47982406D01*
X209472406Y-48100924D01*
X209333044Y-48194043D01*
X209178193Y-48258184D01*
X209013805Y-48290883D01*
X208846195Y-48290883D01*
X208681807Y-48258184D01*
X208526956Y-48194043D01*
X208387594Y-48100924D01*
X208269076Y-47982406D01*
X208175957Y-47843044D01*
X208111816Y-47688193D01*
X208079117Y-47523805D01*
X208075000Y-47440000D01*
X208075000Y-47350000D01*
X208079117Y-47266195D01*
X208111816Y-47101807D01*
X208175957Y-46946956D01*
X208269076Y-46807594D01*
X208387594Y-46689076D01*
X208526956Y-46595957D01*
X208681807Y-46531816D01*
X208846195Y-46499117D01*
X209013805Y-46499117D01*
X209178193Y-46531816D01*
G37*
G36*
X211458193Y-46531816D02*
G01*
X211613044Y-46595957D01*
X211752406Y-46689076D01*
X211870924Y-46807594D01*
X211964043Y-46946956D01*
X212028184Y-47101807D01*
X212060883Y-47266195D01*
X212065000Y-47350000D01*
X212065000Y-47440000D01*
X212060883Y-47523805D01*
X212028184Y-47688193D01*
X211964043Y-47843044D01*
X211870924Y-47982406D01*
X211752406Y-48100924D01*
X211613044Y-48194043D01*
X211458193Y-48258184D01*
X211293805Y-48290883D01*
X211126195Y-48290883D01*
X210961807Y-48258184D01*
X210806956Y-48194043D01*
X210667594Y-48100924D01*
X210549076Y-47982406D01*
X210455957Y-47843044D01*
X210391816Y-47688193D01*
X210359117Y-47523805D01*
X210355000Y-47440000D01*
X210355000Y-47350000D01*
X210359117Y-47266195D01*
X210391816Y-47101807D01*
X210455957Y-46946956D01*
X210549076Y-46807594D01*
X210667594Y-46689076D01*
X210806956Y-46595957D01*
X210961807Y-46531816D01*
X211126195Y-46499117D01*
X211293805Y-46499117D01*
X211458193Y-46531816D01*
G37*
G36*
X231870000Y-48120000D02*
G01*
X229670000Y-48120000D01*
X229670000Y-45920000D01*
X231870000Y-45920000D01*
X231870000Y-48120000D01*
G37*
G36*
X236476790Y-45950393D02*
G01*
X236640952Y-46003733D01*
X236794748Y-46082096D01*
X236934393Y-46183553D01*
X237056447Y-46305607D01*
X237157904Y-46445252D01*
X237236267Y-46599048D01*
X237289607Y-46763210D01*
X237316609Y-46933695D01*
X237316609Y-47106305D01*
X237289607Y-47276790D01*
X237236267Y-47440952D01*
X237157904Y-47594748D01*
X237056447Y-47734393D01*
X236934393Y-47856447D01*
X236794748Y-47957904D01*
X236640952Y-48036267D01*
X236476790Y-48089607D01*
X236306305Y-48116609D01*
X236133695Y-48116609D01*
X235963210Y-48089607D01*
X235799048Y-48036267D01*
X235645252Y-47957904D01*
X235505607Y-47856447D01*
X235383553Y-47734393D01*
X235282096Y-47594748D01*
X235203733Y-47440952D01*
X235150393Y-47276790D01*
X235123391Y-47106305D01*
X235123391Y-46933695D01*
X235150393Y-46763210D01*
X235203733Y-46599048D01*
X235282096Y-46445252D01*
X235383553Y-46305607D01*
X235505607Y-46183553D01*
X235645252Y-46082096D01*
X235799048Y-46003733D01*
X235963210Y-45950393D01*
X236133695Y-45923391D01*
X236306305Y-45923391D01*
X236476790Y-45950393D01*
G37*
G36*
X241926790Y-45950393D02*
G01*
X242090952Y-46003733D01*
X242244748Y-46082096D01*
X242384393Y-46183553D01*
X242506447Y-46305607D01*
X242607904Y-46445252D01*
X242686267Y-46599048D01*
X242739607Y-46763210D01*
X242766609Y-46933695D01*
X242766609Y-47106305D01*
X242739607Y-47276790D01*
X242686267Y-47440952D01*
X242607904Y-47594748D01*
X242506447Y-47734393D01*
X242384393Y-47856447D01*
X242244748Y-47957904D01*
X242090952Y-48036267D01*
X241926790Y-48089607D01*
X241756305Y-48116609D01*
X241583695Y-48116609D01*
X241413210Y-48089607D01*
X241249048Y-48036267D01*
X241095252Y-47957904D01*
X240955607Y-47856447D01*
X240833553Y-47734393D01*
X240732096Y-47594748D01*
X240653733Y-47440952D01*
X240600393Y-47276790D01*
X240573391Y-47106305D01*
X240573391Y-46933695D01*
X240600393Y-46763210D01*
X240653733Y-46599048D01*
X240732096Y-46445252D01*
X240833553Y-46305607D01*
X240955607Y-46183553D01*
X241095252Y-46082096D01*
X241249048Y-46003733D01*
X241413210Y-45950393D01*
X241583695Y-45923391D01*
X241756305Y-45923391D01*
X241926790Y-45950393D01*
G37*
G36*
X226364047Y-45435805D02*
G01*
X226415408Y-45441764D01*
X226432954Y-45449511D01*
X226455671Y-45454030D01*
X226479991Y-45470280D01*
X226500793Y-45479465D01*
X226515000Y-45493672D01*
X226536777Y-45508223D01*
X226551327Y-45529999D01*
X226565534Y-45544206D01*
X226574718Y-45565006D01*
X226590970Y-45589329D01*
X226595489Y-45612048D01*
X226603235Y-45629591D01*
X226609192Y-45680940D01*
X226610000Y-45685000D01*
X226610000Y-46335000D01*
X226609192Y-46339059D01*
X226603235Y-46390408D01*
X226595489Y-46407950D01*
X226590970Y-46430671D01*
X226574716Y-46454995D01*
X226565534Y-46475793D01*
X226551329Y-46489997D01*
X226536777Y-46511777D01*
X226514997Y-46526329D01*
X226500793Y-46540534D01*
X226479995Y-46549716D01*
X226455671Y-46565970D01*
X226432950Y-46570489D01*
X226415408Y-46578235D01*
X226364061Y-46584192D01*
X226360000Y-46585000D01*
X225060000Y-46585000D01*
X225055941Y-46584192D01*
X225004591Y-46578235D01*
X224987048Y-46570489D01*
X224964329Y-46565970D01*
X224940006Y-46549718D01*
X224919206Y-46540534D01*
X224904999Y-46526327D01*
X224883223Y-46511777D01*
X224868672Y-46490000D01*
X224854465Y-46475793D01*
X224845280Y-46454991D01*
X224829030Y-46430671D01*
X224824511Y-46407954D01*
X224816764Y-46390408D01*
X224810805Y-46339049D01*
X224810000Y-46335000D01*
X224810000Y-45685000D01*
X224810804Y-45680953D01*
X224816764Y-45629591D01*
X224824511Y-45612043D01*
X224829030Y-45589329D01*
X224845278Y-45565010D01*
X224854465Y-45544206D01*
X224868674Y-45529996D01*
X224883223Y-45508223D01*
X224904996Y-45493674D01*
X224919206Y-45479465D01*
X224940010Y-45470278D01*
X224964329Y-45454030D01*
X224987043Y-45449511D01*
X225004591Y-45441764D01*
X225055952Y-45435805D01*
X225060000Y-45435000D01*
X226360000Y-45435000D01*
X226364047Y-45435805D01*
G37*
M02*
