%TF.GenerationSoftware,KiCad,Pcbnew,10.0.1*%
%TF.CreationDate,2026-09-17T10:57:33+02:00*%
%TF.ProjectId,AB-V2,41422d56-322e-46b6-9963-61645f706362,rev?*%
%TF.SameCoordinates,Original*%
%TF.FileFunction,Soldermask,Bot*%
%TF.FilePolarity,Negative*%
%FSLAX46Y46*%
G04 Gerber Fmt 4.6, Leading zero omitted, Abs format (unit mm)*
G04 Created by KiCad (PCBNEW 10.0.1) date 2026-09-17 10:57:33*
%MOMM*%
%LPD*%
G01*
G04 APERTURE LIST*
G04 Aperture macros list*
%AMRoundRect*
0 Rectangle with rounded corners*
0 $1 Rounding radius*
0 $2 $3 $4 $5 $6 $7 $8 $9 X,Y pos of 4 corners*
0 Add a 4 corners polygon primitive as box body*
4,1,4,$2,$3,$4,$5,$6,$7,$8,$9,$2,$3,0*
0 Add four circle primitives for the rounded corners*
1,1,$1+$1,$2,$3*
1,1,$1+$1,$4,$5*
1,1,$1+$1,$6,$7*
1,1,$1+$1,$8,$9*
0 Add four rect primitives between the rounded corners*
20,1,$1+$1,$2,$3,$4,$5,0*
20,1,$1+$1,$4,$5,$6,$7,0*
20,1,$1+$1,$6,$7,$8,$9,0*
20,1,$1+$1,$8,$9,$2,$3,0*%
G04 Aperture macros list end*
%ADD10C,3.500000*%
%ADD11R,1.710000X1.800000*%
%ADD12O,1.710000X1.800000*%
%ADD13R,2.200000X2.200000*%
%ADD14C,2.200000*%
%ADD15RoundRect,0.250000X0.550000X0.550000X-0.550000X0.550000X-0.550000X-0.550000X0.550000X-0.550000X0*%
%ADD16C,1.600000*%
%ADD17C,1.800000*%
%ADD18O,2.800000X2.000000*%
%ADD19RoundRect,0.249999X-0.850001X0.850001X-0.850001X-0.850001X0.850001X-0.850001X0.850001X0.850001X0*%
%ADD20C,2.000000*%
%ADD21C,2.400000*%
%ADD22RoundRect,0.249999X0.850001X-0.850001X0.850001X0.850001X-0.850001X0.850001X-0.850001X-0.850001X0*%
G04 APERTURE END LIST*
D10*
%TO.C,C16*%
X168870000Y-85600000D03*
X168870000Y-75600000D03*
%TD*%
D11*
%TO.C,Q18*%
X251250000Y-107885000D03*
D12*
X248970000Y-107885000D03*
X246690000Y-107885000D03*
%TD*%
D13*
%TO.C,Q2*%
X212530000Y-41770000D03*
D14*
X217980000Y-41770000D03*
X223430000Y-41770000D03*
%TD*%
D15*
%TO.C,C5*%
X197012651Y-98430000D03*
D16*
X193512651Y-98430000D03*
%TD*%
D17*
%TO.C,J3*%
X254040000Y-82690000D03*
X254040000Y-77610000D03*
%TD*%
D11*
%TO.C,Q14*%
X196820000Y-107875000D03*
D12*
X194540000Y-107875000D03*
X192260000Y-107875000D03*
%TD*%
D11*
%TO.C,Q16*%
X208190000Y-107870000D03*
D12*
X205910000Y-107870000D03*
X203630000Y-107870000D03*
%TD*%
D11*
%TO.C,Q21*%
X240160000Y-107880000D03*
D12*
X237880000Y-107880000D03*
X235600000Y-107880000D03*
%TD*%
D18*
%TO.C,D5*%
X161420000Y-107645000D03*
X156340000Y-107645000D03*
X151260000Y-107645000D03*
X146180000Y-107645000D03*
%TD*%
D11*
%TO.C,Q13*%
X186430000Y-107890000D03*
D12*
X184150000Y-107890000D03*
X181870000Y-107890000D03*
%TD*%
D19*
%TO.C,D3*%
X227240000Y-91220000D03*
D14*
X227240000Y-101380000D03*
%TD*%
D13*
%TO.C,Q1*%
X244255000Y-41770000D03*
D14*
X249705000Y-41770000D03*
X255155000Y-41770000D03*
%TD*%
D11*
%TO.C,Q15*%
X218250000Y-107880000D03*
D12*
X215970000Y-107880000D03*
X213690000Y-107880000D03*
%TD*%
D11*
%TO.C,Q17*%
X229520000Y-107870000D03*
D12*
X227240000Y-107870000D03*
X224960000Y-107870000D03*
%TD*%
D19*
%TO.C,D4*%
X227250000Y-78280000D03*
D14*
X227250000Y-88440000D03*
%TD*%
D20*
%TO.C,P1*%
X135620000Y-97300000D03*
X135620000Y-102380000D03*
X135620000Y-107460000D03*
%TD*%
D15*
%TO.C,C2*%
X185110000Y-100060000D03*
D16*
X181610000Y-100060000D03*
%TD*%
D21*
%TO.C,R29*%
X224690000Y-72340000D03*
X224690000Y-46940000D03*
%TD*%
%TO.C,R31*%
X256080000Y-72400000D03*
X256080000Y-47000000D03*
%TD*%
D10*
%TO.C,C12*%
X143100000Y-62610000D03*
X143100000Y-52610000D03*
%TD*%
D17*
%TO.C,J1*%
X192410000Y-45820000D03*
X187330000Y-45820000D03*
%TD*%
D22*
%TO.C,D2*%
X223930000Y-101360000D03*
D14*
X223930000Y-91200000D03*
%TD*%
D10*
%TO.C,C15*%
X143020000Y-86670000D03*
X143020000Y-76670000D03*
%TD*%
%TO.C,C10*%
X168940000Y-61770000D03*
X168940000Y-51770000D03*
%TD*%
M02*
