%TF.GenerationSoftware,KiCad,Pcbnew,10.0.6*%
%TF.CreationDate,2026-09-16T22:45:33+02:00*%
%TF.ProjectId,AB-V2,41422d56-322e-46b6-9963-61645f706362,rev?*%
%TF.SameCoordinates,Original*%
%TF.FileFunction,Copper,L2,Bot*%
%TF.FilePolarity,Positive*%
%FSLAX46Y46*%
G04 Gerber Fmt 4.6, Leading zero omitted, Abs format (unit mm)*
G04 Created by KiCad (PCBNEW 10.0.6) date 2026-09-16 22:45:33*
%MOMM*%
%LPD*%
G01*
G04 APERTURE LIST*
G04 Aperture macros list*
%AMRoundRect*
0 Rectangle with rounded corners*
0 $1 Rounding radius*
0 $2 $3 $4 $5 $6 $7 $8 $9 X,Y pos of 4 corners*
0 Add a 4 corners polygon primitive as box body*
4,1,4,$2,$3,$4,$5,$6,$7,$8,$9,$2,$3,0*
0 Add four circle primitives for the rounded corners*
1,1,$1+$1,$2,$3*
1,1,$1+$1,$4,$5*
1,1,$1+$1,$6,$7*
1,1,$1+$1,$8,$9*
0 Add four rect primitives between the rounded corners*
20,1,$1+$1,$2,$3,$4,$5,0*
20,1,$1+$1,$4,$5,$6,$7,0*
20,1,$1+$1,$6,$7,$8,$9,0*
20,1,$1+$1,$8,$9,$2,$3,0*%
G04 Aperture macros list end*
%TA.AperFunction,ComponentPad*%
%ADD10R,3.500000X3.500000*%
%TD*%
%TA.AperFunction,ComponentPad*%
%ADD11C,3.500000*%
%TD*%
%TA.AperFunction,ComponentPad*%
%ADD12R,1.710000X1.800000*%
%TD*%
%TA.AperFunction,ComponentPad*%
%ADD13O,1.710000X1.800000*%
%TD*%
%TA.AperFunction,ComponentPad*%
%ADD14RoundRect,0.250000X0.550000X0.550000X-0.550000X0.550000X-0.550000X-0.550000X0.550000X-0.550000X0*%
%TD*%
%TA.AperFunction,ComponentPad*%
%ADD15C,1.600000*%
%TD*%
%TA.AperFunction,ComponentPad*%
%ADD16C,1.800000*%
%TD*%
%TA.AperFunction,ComponentPad*%
%ADD17O,2.800000X2.000000*%
%TD*%
%TA.AperFunction,ComponentPad*%
%ADD18RoundRect,0.249999X-0.850001X0.850001X-0.850001X-0.850001X0.850001X-0.850001X0.850001X0.850001X0*%
%TD*%
%TA.AperFunction,ComponentPad*%
%ADD19C,2.200000*%
%TD*%
%TA.AperFunction,ComponentPad*%
%ADD20C,2.000000*%
%TD*%
%TA.AperFunction,ComponentPad*%
%ADD21C,2.400000*%
%TD*%
%TA.AperFunction,ComponentPad*%
%ADD22RoundRect,0.249999X0.850001X-0.850001X0.850001X0.850001X-0.850001X0.850001X-0.850001X-0.850001X0*%
%TD*%
%TA.AperFunction,ViaPad*%
%ADD23C,0.610210*%
%TD*%
%TA.AperFunction,Conductor*%
%ADD24C,0.254254*%
%TD*%
G04 APERTURE END LIST*
D10*
%TO.P,Q2,1,B_1*%
%TO.N,Net-(Q2-B)*%
X244220000Y-42860000D03*
D11*
%TO.P,Q2,2,C_2*%
%TO.N,+VDC*%
X249660000Y-42860000D03*
%TO.P,Q2,3,E_3*%
%TO.N,Net-(Q2-E)*%
X255120000Y-42860000D03*
%TD*%
%TO.P,C16,1,1_1*%
%TO.N,-VDC*%
X168870000Y-85600000D03*
%TO.P,C16,2,2_2*%
%TO.N,GND*%
X168870000Y-75600000D03*
%TD*%
D12*
%TO.P,Q18,1,E_1*%
%TO.N,Net-(Q1-C)*%
X251250000Y-107885000D03*
D13*
%TO.P,Q18,2,C_2*%
%TO.N,Net-(Q1-B)*%
X248970000Y-107885000D03*
%TO.P,Q18,3,B_3*%
%TO.N,Net-(D4-K)*%
X246690000Y-107885000D03*
%TD*%
D14*
%TO.P,C5,1*%
%TO.N,GND*%
X197012651Y-98430000D03*
D15*
%TO.P,C5,2*%
%TO.N,Net-(C5-Pad2)*%
X193512651Y-98430000D03*
%TD*%
D16*
%TO.P,J3,1,Pin_1_1*%
%TO.N,/OUT*%
X254040000Y-82690000D03*
%TO.P,J3,2,Pin_2_2*%
%TO.N,GND*%
X254040000Y-77610000D03*
%TD*%
D12*
%TO.P,Q14,1,E_1*%
%TO.N,Net-(Q13-E)*%
X196820000Y-107875000D03*
D13*
%TO.P,Q14,2,C_2*%
%TO.N,Net-(Q14-C)*%
X194540000Y-107875000D03*
%TO.P,Q14,3,B_3*%
%TO.N,Net-(Q14-B)*%
X192260000Y-107875000D03*
%TD*%
D12*
%TO.P,Q16,1,E_1*%
%TO.N,Net-(Q15-E)*%
X208190000Y-107870000D03*
D13*
%TO.P,Q16,2,C_2*%
%TO.N,Net-(Q16-C)*%
X205910000Y-107870000D03*
%TO.P,Q16,3,B_3*%
%TO.N,Net-(Q14-C)*%
X203630000Y-107870000D03*
%TD*%
D12*
%TO.P,Q21,1,E_1*%
%TO.N,Net-(Q2-B)*%
X240160000Y-107880000D03*
D13*
%TO.P,Q21,2,C_2*%
%TO.N,+VDC*%
X237880000Y-107880000D03*
%TO.P,Q21,3,B_3*%
%TO.N,Net-(Q17-C)*%
X235600000Y-107880000D03*
%TD*%
D17*
%TO.P,D5,1,-_1*%
%TO.N,-VDC*%
X161420000Y-107645000D03*
%TO.P,D5,2,AC_2*%
%TO.N,Net-(D5-AC-Pad2)*%
X156340000Y-107645000D03*
%TO.P,D5,3,AC_3*%
%TO.N,Net-(D5-AC-Pad3)*%
X151260000Y-107645000D03*
%TO.P,D5,4,+_4*%
%TO.N,+VDC*%
X146180000Y-107645000D03*
%TD*%
D10*
%TO.P,Q1,1,B_1*%
%TO.N,Net-(Q1-B)*%
X212520000Y-42850000D03*
D11*
%TO.P,Q1,2,C_2*%
%TO.N,Net-(Q1-C)*%
X217960000Y-42850000D03*
%TO.P,Q1,3,E_3*%
%TO.N,Net-(Q1-E)*%
X223420000Y-42850000D03*
%TD*%
D12*
%TO.P,Q13,1,E_1*%
%TO.N,Net-(Q13-E)*%
X186430000Y-107890000D03*
D13*
%TO.P,Q13,2,C_2*%
%TO.N,Net-(Q13-C)*%
X184150000Y-107890000D03*
%TO.P,Q13,3,B_3*%
%TO.N,Net-(Q13-B)*%
X181870000Y-107890000D03*
%TD*%
D18*
%TO.P,D3,1,K_1*%
%TO.N,Net-(D3-K)*%
X227240000Y-91220000D03*
D19*
%TO.P,D3,2,A_2*%
%TO.N,Net-(D3-A)*%
X227240000Y-101380000D03*
%TD*%
D12*
%TO.P,Q15,1,E_1*%
%TO.N,Net-(Q15-E)*%
X218250000Y-107880000D03*
D13*
%TO.P,Q15,2,C_2*%
%TO.N,Net-(D4-K)*%
X215970000Y-107880000D03*
%TO.P,Q15,3,B_3*%
%TO.N,Net-(Q13-C)*%
X213690000Y-107880000D03*
%TD*%
D12*
%TO.P,Q17,1,E_1*%
%TO.N,Net-(Q17-E)*%
X229520000Y-107870000D03*
D13*
%TO.P,Q17,2,C_2*%
%TO.N,Net-(Q17-C)*%
X227240000Y-107870000D03*
%TO.P,Q17,3,B_3*%
%TO.N,Net-(D2-K)*%
X224960000Y-107870000D03*
%TD*%
D18*
%TO.P,D4,1,K_1*%
%TO.N,Net-(D4-K)*%
X227250000Y-78280000D03*
D19*
%TO.P,D4,2,A_2*%
%TO.N,Net-(D3-K)*%
X227250000Y-88440000D03*
%TD*%
D20*
%TO.P,P1,1,1_1*%
%TO.N,Net-(D5-AC-Pad2)*%
X135620000Y-97300000D03*
%TO.P,P1,2,2_2*%
%TO.N,GND*%
X135620000Y-102380000D03*
%TO.P,P1,3,3_3*%
%TO.N,Net-(D5-AC-Pad3)*%
X135620000Y-107460000D03*
%TD*%
D16*
%TO.P,D1,1,C_1*%
%TO.N,Net-(D1-C)*%
X189350000Y-101420000D03*
%TO.P,D1,2,A_2*%
%TO.N,GND*%
X189350000Y-92720000D03*
%TD*%
D14*
%TO.P,C2,1*%
%TO.N,Net-(D1-C)*%
X185110000Y-100060000D03*
D15*
%TO.P,C2,2*%
%TO.N,GND*%
X181610000Y-100060000D03*
%TD*%
D21*
%TO.P,R29,1*%
%TO.N,-VDC*%
X224690000Y-72340000D03*
%TO.P,R29,2*%
%TO.N,Net-(Q1-E)*%
X224690000Y-46940000D03*
%TD*%
%TO.P,R31,1*%
%TO.N,Net-(Q1-C)*%
X256080000Y-72400000D03*
%TO.P,R31,2*%
%TO.N,Net-(Q2-E)*%
X256080000Y-47000000D03*
%TD*%
D11*
%TO.P,C12,1,1_1*%
%TO.N,+VDC*%
X143100000Y-62610000D03*
%TO.P,C12,2,2_2*%
%TO.N,GND*%
X143100000Y-52610000D03*
%TD*%
D16*
%TO.P,J1,1,Pin_1_1*%
%TO.N,GND*%
X192410000Y-45820000D03*
%TO.P,J1,2,Pin_2_2*%
%TO.N,/IN*%
X187330000Y-45820000D03*
%TD*%
D22*
%TO.P,D2,1,K_1*%
%TO.N,Net-(D2-K)*%
X223930000Y-101360000D03*
D19*
%TO.P,D2,2,A_2*%
%TO.N,Net-(D2-A)*%
X223930000Y-91200000D03*
%TD*%
D11*
%TO.P,C15,1,1_1*%
%TO.N,+VDC*%
X143020000Y-86670000D03*
%TO.P,C15,2,2_2*%
%TO.N,GND*%
X143020000Y-76670000D03*
%TD*%
%TO.P,C10,1,1_1*%
%TO.N,-VDC*%
X168940000Y-61770000D03*
%TO.P,C10,2,2_2*%
%TO.N,GND*%
X168940000Y-51770000D03*
%TD*%
D23*
%TO.N,Net-(Q1-B)*%
X231777589Y-75084430D03*
%TO.N,Net-(Q2-B)*%
X238329437Y-105297611D03*
%TO.N,+VDC*%
X230864906Y-104048799D03*
X227856906Y-82197998D03*
X222743346Y-87385388D03*
X234414126Y-103750445D03*
%TO.N,Net-(Q13-B)*%
X186645271Y-67092000D03*
%TO.N,GND*%
X202586974Y-100225264D03*
X139744496Y-103937383D03*
X191467263Y-53747627D03*
X142535093Y-41004311D03*
X249610574Y-71506297D03*
X248766297Y-59375844D03*
X161305899Y-61129214D03*
X211525630Y-64194011D03*
X184514238Y-97298785D03*
X172322670Y-93823167D03*
X222066423Y-91331441D03*
X220495301Y-51960352D03*
X179099835Y-43730677D03*
X239374381Y-77311055D03*
X177045210Y-78245318D03*
X152789536Y-109005689D03*
X180923838Y-72337125D03*
X229304481Y-79486537D03*
X249313094Y-101183289D03*
X197597988Y-61948126D03*
X162379614Y-70373500D03*
X144591419Y-65247561D03*
X182933937Y-92487209D03*
X214686378Y-85136427D03*
X235490859Y-102170354D03*
X171830434Y-68510789D03*
X131144311Y-48911540D03*
X132701243Y-91820991D03*
X140645655Y-75835945D03*
X258815689Y-105040412D03*
X231539851Y-52335524D03*
X258815689Y-85742402D03*
X179323989Y-103962061D03*
X258815689Y-66444391D03*
X131144311Y-106805572D03*
X241747202Y-41004311D03*
X162949536Y-109005689D03*
X161833104Y-41004311D03*
X253416713Y-41004311D03*
X172417015Y-80356343D03*
X221795584Y-73970529D03*
X219778092Y-109005689D03*
X152184098Y-41004311D03*
X230294676Y-70247684D03*
X200429125Y-41004311D03*
X188748841Y-43730677D03*
X191366297Y-69055909D03*
X210043060Y-41004311D03*
X154397441Y-92612229D03*
X232740000Y-105180000D03*
X200809449Y-90199090D03*
X248291576Y-81542791D03*
X139478583Y-84962003D03*
X147959168Y-100055562D03*
X190673676Y-108259807D03*
X148990647Y-51716297D03*
X162465867Y-82143749D03*
X191366297Y-85586461D03*
X248766297Y-49726838D03*
X131144311Y-58560545D03*
X246052151Y-86030129D03*
X131144311Y-77858556D03*
X171257830Y-48188283D03*
X202812010Y-90097171D03*
X154229182Y-75776297D03*
X221706713Y-41004311D03*
X258815689Y-56795386D03*
X131144311Y-68209550D03*
X258815689Y-95391407D03*
X227686285Y-61679110D03*
X192054606Y-97853664D03*
X158446818Y-52276962D03*
X230294676Y-94632009D03*
X215997260Y-100668108D03*
X242499236Y-94352323D03*
X204702752Y-71016888D03*
X258815689Y-76093396D03*
X142366491Y-100021434D03*
X204420865Y-55125249D03*
X235096822Y-86928248D03*
%TO.N,Net-(Q1-C)*%
X234828991Y-53229226D03*
X241338176Y-103654536D03*
X240817918Y-88415565D03*
%TO.N,Net-(D4-K)*%
X217357475Y-102736777D03*
%TO.N,Net-(D1-C)*%
X156751485Y-103068358D03*
X181013700Y-101379780D03*
%TO.N,Net-(Q14-B)*%
X192260000Y-92984051D03*
X193428136Y-104772880D03*
%TO.N,Net-(Q15-E)*%
X219420628Y-105325668D03*
%TO.N,Net-(Q16-C)*%
X217942107Y-101561811D03*
%TO.N,Net-(D3-A)*%
X226079551Y-103958102D03*
%TD*%
%TO.N,Net-(Q1-B)*%
D24*
X212520000Y-42850000D02*
X212520000Y-44600000D01*
X212520000Y-44600000D02*
X212520000Y-45248938D01*
X231777589Y-64506527D02*
X231777589Y-75084430D01*
X212520000Y-45248938D02*
X231777589Y-64506527D01*
%TO.N,Net-(Q2-B)*%
X240160000Y-106356525D02*
X239101086Y-105297611D01*
X240160000Y-107880000D02*
X240160000Y-106980000D01*
X240160000Y-106980000D02*
X240160000Y-106356525D01*
X239101086Y-105297611D02*
X238329437Y-105297611D01*
%TO.N,+VDC*%
X230864906Y-104048799D02*
X231393131Y-103520574D01*
X221129131Y-88999603D02*
X221129131Y-91658035D01*
X186857480Y-66472055D02*
X186415030Y-66472055D01*
X194718832Y-74333407D02*
X186857480Y-66472055D01*
X230864906Y-104048799D02*
X230610469Y-104048799D01*
X144781091Y-86670000D02*
X143020000Y-86670000D01*
X229965337Y-103403667D02*
X229965337Y-100494241D01*
X145111986Y-67032015D02*
X143100000Y-65020029D01*
X222743346Y-87385388D02*
X221129131Y-88999603D01*
X145430029Y-86670000D02*
X144781091Y-86670000D01*
X249660000Y-44621091D02*
X249660000Y-45244566D01*
X203532281Y-91658035D02*
X194718832Y-82844585D01*
X145111986Y-82167985D02*
X145111986Y-67032015D01*
X143100000Y-64371091D02*
X143100000Y-62610000D01*
X194718832Y-82844585D02*
X194718832Y-74333407D01*
X237559886Y-107559886D02*
X236780903Y-106780903D01*
X150849983Y-81250046D02*
X145430029Y-86670000D01*
X230610469Y-104048799D02*
X229965337Y-103403667D01*
X181817540Y-71069545D02*
X181817540Y-74308463D01*
X234184255Y-103520574D02*
X234414126Y-103750445D01*
X174875958Y-81250046D02*
X150849983Y-81250046D01*
X231393131Y-103520574D02*
X234184255Y-103520574D01*
X143020000Y-84908909D02*
X143020000Y-84259971D01*
X143100000Y-65020029D02*
X143100000Y-64371091D01*
X237880000Y-107880000D02*
X237559886Y-107559886D01*
X249660000Y-42860000D02*
X249660000Y-44621091D01*
X143020000Y-84259971D02*
X145111986Y-82167985D01*
X234414126Y-104414126D02*
X234414126Y-103750445D01*
X143020000Y-86670000D02*
X143020000Y-84908909D01*
X249660000Y-60394905D02*
X227856906Y-82197998D01*
X221129131Y-91658035D02*
X203532281Y-91658035D01*
X249660000Y-45244566D02*
X249660000Y-60394905D01*
X236780903Y-106780903D02*
X234414126Y-104414126D01*
X229965337Y-100494241D02*
X221129131Y-91658035D01*
X181817540Y-74308463D02*
X174875958Y-81250046D01*
X186415030Y-66472055D02*
X181817540Y-71069545D01*
%TO.N,Net-(Q13-B)*%
X181870000Y-106335643D02*
X183827640Y-104378003D01*
X183827640Y-104378003D02*
X183827640Y-69909631D01*
X181870000Y-106984581D02*
X181870000Y-106335643D01*
X183827640Y-69909631D02*
X186645271Y-67092000D01*
X181870000Y-107890000D02*
X181870000Y-106984581D01*
%TO.N,Net-(Q1-C)*%
X219664148Y-44554148D02*
X228339226Y-53229226D01*
X218582640Y-43472640D02*
X219664148Y-44554148D01*
X241338176Y-103654536D02*
X240817918Y-103134278D01*
X240817918Y-103134278D02*
X240817918Y-88415565D01*
X217960000Y-42850000D02*
X218582640Y-43472640D01*
X251250000Y-106336062D02*
X248568474Y-103654536D01*
X248568474Y-103654536D02*
X241338176Y-103654536D01*
X228339226Y-53229226D02*
X234828991Y-53229226D01*
X251250000Y-107885000D02*
X251250000Y-106985000D01*
X251250000Y-106985000D02*
X251250000Y-106336062D01*
%TO.N,Net-(D4-K)*%
X215970000Y-104124252D02*
X215970000Y-106325643D01*
X215970000Y-106974581D02*
X215970000Y-107880000D01*
X217357475Y-102736777D02*
X215970000Y-104124252D01*
X215970000Y-106325643D02*
X215970000Y-106974581D01*
%TO.N,Net-(D1-C)*%
X181013700Y-101379780D02*
X179325122Y-103068358D01*
X179325122Y-103068358D02*
X156751485Y-103068358D01*
%TO.N,Net-(Q14-B)*%
X191939886Y-107554886D02*
X191160903Y-106775903D01*
X191160903Y-94083147D02*
X192260000Y-92984051D01*
X191160903Y-106775903D02*
X191160903Y-94083147D01*
X192260000Y-107875000D02*
X192260000Y-106969581D01*
X192260000Y-107875000D02*
X191939886Y-107554886D01*
X192260000Y-106969581D02*
X192260000Y-106320643D01*
X193428136Y-105152507D02*
X193428136Y-104772880D01*
X192260000Y-106320643D02*
X193428136Y-105152507D01*
%TO.N,Net-(Q15-E)*%
X218250000Y-106980000D02*
X218250000Y-106496575D01*
X218250000Y-106496575D02*
X219420628Y-105325946D01*
X219420628Y-105325946D02*
X219420628Y-105325668D01*
X218250000Y-107880000D02*
X218250000Y-106980000D01*
%TO.N,Net-(Q16-C)*%
X212218189Y-101561811D02*
X205910000Y-107870000D01*
X217942107Y-101561811D02*
X212218189Y-101561811D01*
%TO.N,Net-(Q17-C)*%
X234045643Y-107880000D02*
X232755165Y-106589522D01*
X234694581Y-107880000D02*
X234045643Y-107880000D01*
X227560114Y-107549886D02*
X227240000Y-107870000D01*
X228258072Y-106851928D02*
X227560114Y-107549886D01*
X232755165Y-106589522D02*
X228520478Y-106589522D01*
X235600000Y-107880000D02*
X234694581Y-107880000D01*
X228520478Y-106589522D02*
X228258072Y-106851928D01*
%TO.N,Net-(D5-AC-Pad2)*%
X137275276Y-97300000D02*
X136626338Y-97300000D01*
X154933658Y-107645000D02*
X154284720Y-107645000D01*
X136626338Y-97300000D02*
X135620000Y-97300000D01*
X154284720Y-107645000D02*
X143939720Y-97300000D01*
X156340000Y-107645000D02*
X154933658Y-107645000D01*
X143939720Y-97300000D02*
X137275276Y-97300000D01*
%TO.N,Net-(D5-AC-Pad3)*%
X147835604Y-106275884D02*
X138459392Y-106275884D01*
X138459392Y-106275884D02*
X137275276Y-107460000D01*
X151260000Y-107645000D02*
X149853658Y-107645000D01*
X137275276Y-107460000D02*
X136626338Y-107460000D01*
X136626338Y-107460000D02*
X135620000Y-107460000D01*
X149853658Y-107645000D02*
X149204720Y-107645000D01*
X149204720Y-107645000D02*
X147835604Y-106275884D01*
%TO.N,Net-(D2-K)*%
X224960000Y-107870000D02*
X224960000Y-106964581D01*
X224960000Y-106964581D02*
X224960000Y-102390000D01*
X224960000Y-102390000D02*
X223930000Y-101360000D01*
%TO.N,Net-(Q13-C)*%
X184470114Y-108210114D02*
X185222089Y-108962089D01*
X185413510Y-109153510D02*
X210862133Y-109153510D01*
X212784581Y-107880000D02*
X213690000Y-107880000D01*
X185222089Y-108962089D02*
X185413510Y-109153510D01*
X212135643Y-107880000D02*
X212784581Y-107880000D01*
X210862133Y-109153510D02*
X212135643Y-107880000D01*
X184150000Y-107890000D02*
X184470114Y-108210114D01*
%TO.N,Net-(D3-A)*%
X226848627Y-101771373D02*
X226088411Y-102531589D01*
X226088411Y-102531589D02*
X226079551Y-102540449D01*
X226079551Y-102540449D02*
X226079551Y-103958102D01*
X227240000Y-101380000D02*
X226848627Y-101771373D01*
%TD*%
%TA.AperFunction,Conductor*%
%TO.N,GND*%
G36*
X259420442Y-40399558D02*
G01*
X259423869Y-40407831D01*
X259423869Y-109602169D01*
X259420442Y-109610442D01*
X259412169Y-109613869D01*
X130547831Y-109613869D01*
X130539558Y-109610442D01*
X130536131Y-109602169D01*
X130536131Y-107369264D01*
X134467100Y-107369264D01*
X134467100Y-107550735D01*
X134495486Y-107729963D01*
X134495489Y-107729975D01*
X134540686Y-107869077D01*
X134551566Y-107902560D01*
X134618675Y-108034269D01*
X134633954Y-108064257D01*
X134740609Y-108211054D01*
X134740613Y-108211058D01*
X134740617Y-108211064D01*
X134868936Y-108339383D01*
X134868941Y-108339387D01*
X134868945Y-108339390D01*
X135015742Y-108446045D01*
X135015747Y-108446047D01*
X135015749Y-108446049D01*
X135177440Y-108528434D01*
X135350029Y-108584512D01*
X135422973Y-108596065D01*
X135529264Y-108612900D01*
X135529265Y-108612900D01*
X135710735Y-108612900D01*
X135889971Y-108584512D01*
X136062560Y-108528434D01*
X136224251Y-108446049D01*
X136270538Y-108412420D01*
X136371054Y-108339390D01*
X136371064Y-108339383D01*
X136499383Y-108211064D01*
X136606049Y-108064251D01*
X136688434Y-107902560D01*
X136738618Y-107748110D01*
X136744433Y-107741302D01*
X136749745Y-107740027D01*
X137312144Y-107740027D01*
X137312144Y-107740026D01*
X137365497Y-107725730D01*
X137383359Y-107720944D01*
X137383359Y-107720943D01*
X137383362Y-107720943D01*
X137405678Y-107708059D01*
X137447217Y-107684077D01*
X138571956Y-106559338D01*
X138580229Y-106555911D01*
X145329245Y-106555911D01*
X145337518Y-106559338D01*
X145340945Y-106567611D01*
X145337518Y-106575884D01*
X145334561Y-106578032D01*
X145236787Y-106627851D01*
X145175742Y-106658954D01*
X145028945Y-106765609D01*
X145028929Y-106765623D01*
X144900623Y-106893929D01*
X144900609Y-106893945D01*
X144793954Y-107040742D01*
X144711564Y-107202444D01*
X144655489Y-107375024D01*
X144655486Y-107375036D01*
X144627100Y-107554264D01*
X144627100Y-107735735D01*
X144655486Y-107914963D01*
X144655489Y-107914975D01*
X144694250Y-108034269D01*
X144711566Y-108087560D01*
X144750236Y-108163454D01*
X144793954Y-108249257D01*
X144900609Y-108396054D01*
X144900613Y-108396058D01*
X144900617Y-108396064D01*
X145028936Y-108524383D01*
X145028941Y-108524387D01*
X145028945Y-108524390D01*
X145175742Y-108631045D01*
X145175747Y-108631047D01*
X145175749Y-108631049D01*
X145337440Y-108713434D01*
X145510029Y-108769512D01*
X145582973Y-108781065D01*
X145689264Y-108797900D01*
X145689265Y-108797900D01*
X146670735Y-108797900D01*
X146849971Y-108769512D01*
X147022560Y-108713434D01*
X147184251Y-108631049D01*
X147331064Y-108524383D01*
X147459383Y-108396064D01*
X147566049Y-108249251D01*
X147648434Y-108087560D01*
X147704512Y-107914971D01*
X147732900Y-107735735D01*
X147732900Y-107554265D01*
X147704512Y-107375029D01*
X147648434Y-107202440D01*
X147566049Y-107040749D01*
X147566047Y-107040747D01*
X147566045Y-107040742D01*
X147459390Y-106893945D01*
X147459387Y-106893941D01*
X147459383Y-106893936D01*
X147331064Y-106765617D01*
X147331058Y-106765613D01*
X147331054Y-106765609D01*
X147184257Y-106658954D01*
X147123213Y-106627851D01*
X147025441Y-106578034D01*
X147019628Y-106571227D01*
X147020330Y-106562299D01*
X147027139Y-106556484D01*
X147030755Y-106555911D01*
X147714767Y-106555911D01*
X147723040Y-106559338D01*
X149032779Y-107869077D01*
X149032780Y-107869078D01*
X149032782Y-107869079D01*
X149096630Y-107905942D01*
X149096632Y-107905942D01*
X149096633Y-107905943D01*
X149115717Y-107911056D01*
X149130327Y-107914971D01*
X149167853Y-107925027D01*
X149167854Y-107925027D01*
X149730255Y-107925027D01*
X149738528Y-107928454D01*
X149741382Y-107933111D01*
X149771001Y-108024270D01*
X149791566Y-108087560D01*
X149830236Y-108163454D01*
X149873954Y-108249257D01*
X149980609Y-108396054D01*
X149980613Y-108396058D01*
X149980617Y-108396064D01*
X150108936Y-108524383D01*
X150108941Y-108524387D01*
X150108945Y-108524390D01*
X150255742Y-108631045D01*
X150255747Y-108631047D01*
X150255749Y-108631049D01*
X150417440Y-108713434D01*
X150590029Y-108769512D01*
X150662973Y-108781065D01*
X150769264Y-108797900D01*
X150769265Y-108797900D01*
X151750735Y-108797900D01*
X151929971Y-108769512D01*
X152102560Y-108713434D01*
X152264251Y-108631049D01*
X152411064Y-108524383D01*
X152539383Y-108396064D01*
X152646049Y-108249251D01*
X152728434Y-108087560D01*
X152784512Y-107914971D01*
X152812900Y-107735735D01*
X152812900Y-107554265D01*
X152784512Y-107375029D01*
X152728434Y-107202440D01*
X152646049Y-107040749D01*
X152646047Y-107040747D01*
X152646045Y-107040742D01*
X152539390Y-106893945D01*
X152539387Y-106893941D01*
X152539383Y-106893936D01*
X152411064Y-106765617D01*
X152411058Y-106765613D01*
X152411054Y-106765609D01*
X152264257Y-106658954D01*
X152203213Y-106627851D01*
X152102560Y-106576566D01*
X152102557Y-106576565D01*
X152102555Y-106576564D01*
X151929975Y-106520489D01*
X151929963Y-106520486D01*
X151750736Y-106492100D01*
X151750735Y-106492100D01*
X150769265Y-106492100D01*
X150769264Y-106492100D01*
X150590036Y-106520486D01*
X150590024Y-106520489D01*
X150417444Y-106576564D01*
X150255742Y-106658954D01*
X150108945Y-106765609D01*
X150108929Y-106765623D01*
X149980623Y-106893929D01*
X149980609Y-106893945D01*
X149873954Y-107040742D01*
X149791564Y-107202444D01*
X149756712Y-107309707D01*
X149742782Y-107352581D01*
X149741382Y-107356889D01*
X149735567Y-107363698D01*
X149730255Y-107364973D01*
X149325557Y-107364973D01*
X149317284Y-107361546D01*
X148007546Y-106051808D01*
X148007545Y-106051807D01*
X147943690Y-106014941D01*
X147943689Y-106014940D01*
X147943686Y-106014939D01*
X147943688Y-106014939D01*
X147872473Y-105995857D01*
X147872470Y-105995857D01*
X138422526Y-105995857D01*
X138422523Y-105995857D01*
X138351308Y-106014939D01*
X138287449Y-106051808D01*
X137162712Y-107176546D01*
X137154439Y-107179973D01*
X136749745Y-107179973D01*
X136741472Y-107176546D01*
X136738618Y-107171889D01*
X136701324Y-107057113D01*
X136688434Y-107017440D01*
X136606049Y-106855749D01*
X136606047Y-106855747D01*
X136606045Y-106855742D01*
X136499390Y-106708945D01*
X136499387Y-106708941D01*
X136499383Y-106708936D01*
X136371064Y-106580617D01*
X136371058Y-106580613D01*
X136371054Y-106580609D01*
X136224257Y-106473954D01*
X136173725Y-106448207D01*
X136062560Y-106391566D01*
X136062557Y-106391565D01*
X136062555Y-106391564D01*
X135889975Y-106335489D01*
X135889963Y-106335486D01*
X135710736Y-106307100D01*
X135710735Y-106307100D01*
X135529265Y-106307100D01*
X135529264Y-106307100D01*
X135350036Y-106335486D01*
X135350024Y-106335489D01*
X135177444Y-106391564D01*
X135015742Y-106473954D01*
X134868945Y-106580609D01*
X134868929Y-106580623D01*
X134740623Y-106708929D01*
X134740609Y-106708945D01*
X134633954Y-106855742D01*
X134551564Y-107017444D01*
X134495489Y-107190024D01*
X134495486Y-107190036D01*
X134467100Y-107369264D01*
X130536131Y-107369264D01*
X130536131Y-102279007D01*
X134594600Y-102279007D01*
X134594600Y-102480992D01*
X134634006Y-102679098D01*
X134711302Y-102865707D01*
X134711306Y-102865715D01*
X134823519Y-103033653D01*
X134823522Y-103033657D01*
X134841050Y-103051185D01*
X135108203Y-102784031D01*
X135115104Y-102794358D01*
X135205642Y-102884896D01*
X135215967Y-102891795D01*
X134948814Y-103158948D01*
X134966342Y-103176477D01*
X134966346Y-103176480D01*
X135134284Y-103288693D01*
X135134292Y-103288697D01*
X135320901Y-103365993D01*
X135519008Y-103405400D01*
X135720992Y-103405400D01*
X135919098Y-103365993D01*
X136105707Y-103288697D01*
X136105715Y-103288693D01*
X136273651Y-103176482D01*
X136291185Y-103158948D01*
X136024032Y-102891795D01*
X136034358Y-102884896D01*
X136124896Y-102794358D01*
X136131795Y-102784032D01*
X136398948Y-103051185D01*
X136416482Y-103033651D01*
X136528693Y-102865715D01*
X136528697Y-102865707D01*
X136605993Y-102679098D01*
X136645400Y-102480992D01*
X136645400Y-102279007D01*
X136605993Y-102080901D01*
X136528697Y-101894292D01*
X136528693Y-101894284D01*
X136416480Y-101726346D01*
X136416477Y-101726342D01*
X136398948Y-101708814D01*
X136131794Y-101975967D01*
X136124896Y-101965642D01*
X136034358Y-101875104D01*
X136024031Y-101868204D01*
X136291185Y-101601051D01*
X136291185Y-101601050D01*
X136273657Y-101583522D01*
X136273653Y-101583519D01*
X136105715Y-101471306D01*
X136105707Y-101471302D01*
X135919098Y-101394006D01*
X135720992Y-101354600D01*
X135519008Y-101354600D01*
X135320901Y-101394006D01*
X135134292Y-101471302D01*
X135134284Y-101471306D01*
X134966346Y-101583519D01*
X134966342Y-101583522D01*
X134948814Y-101601050D01*
X135215967Y-101868204D01*
X135205642Y-101875104D01*
X135115104Y-101965642D01*
X135108204Y-101975967D01*
X134841051Y-101708814D01*
X134841050Y-101708814D01*
X134823522Y-101726342D01*
X134823519Y-101726346D01*
X134711306Y-101894284D01*
X134711302Y-101894292D01*
X134634006Y-102080901D01*
X134594600Y-102279007D01*
X130536131Y-102279007D01*
X130536131Y-97209264D01*
X134467100Y-97209264D01*
X134467100Y-97390735D01*
X134495486Y-97569963D01*
X134495489Y-97569975D01*
X134534434Y-97689836D01*
X134551566Y-97742560D01*
X134592326Y-97822557D01*
X134633954Y-97904257D01*
X134740609Y-98051054D01*
X134740613Y-98051058D01*
X134740617Y-98051064D01*
X134868936Y-98179383D01*
X134868941Y-98179387D01*
X134868945Y-98179390D01*
X135015742Y-98286045D01*
X135015747Y-98286047D01*
X135015749Y-98286049D01*
X135177440Y-98368434D01*
X135350029Y-98424512D01*
X135422973Y-98436065D01*
X135529264Y-98452900D01*
X135529265Y-98452900D01*
X135710735Y-98452900D01*
X135889971Y-98424512D01*
X136062560Y-98368434D01*
X136224251Y-98286049D01*
X136371064Y-98179383D01*
X136499383Y-98051064D01*
X136606049Y-97904251D01*
X136688434Y-97742560D01*
X136738618Y-97588110D01*
X136744433Y-97581302D01*
X136749745Y-97580027D01*
X137238410Y-97580027D01*
X143818883Y-97580027D01*
X143827156Y-97583454D01*
X154112779Y-107869077D01*
X154112780Y-107869078D01*
X154112782Y-107869079D01*
X154170772Y-107902560D01*
X154170773Y-107902560D01*
X154176634Y-107905943D01*
X154176635Y-107905944D01*
X154232802Y-107920993D01*
X154247851Y-107925026D01*
X154247852Y-107925027D01*
X154247854Y-107925027D01*
X154810255Y-107925027D01*
X154818528Y-107928454D01*
X154821382Y-107933111D01*
X154851001Y-108024270D01*
X154871566Y-108087560D01*
X154910236Y-108163454D01*
X154953954Y-108249257D01*
X155060609Y-108396054D01*
X155060613Y-108396058D01*
X155060617Y-108396064D01*
X155188936Y-108524383D01*
X155188941Y-108524387D01*
X155188945Y-108524390D01*
X155335742Y-108631045D01*
X155335747Y-108631047D01*
X155335749Y-108631049D01*
X155497440Y-108713434D01*
X155670029Y-108769512D01*
X155742973Y-108781065D01*
X155849264Y-108797900D01*
X155849265Y-108797900D01*
X156830735Y-108797900D01*
X157009971Y-108769512D01*
X157182560Y-108713434D01*
X157344251Y-108631049D01*
X157491064Y-108524383D01*
X157619383Y-108396064D01*
X157726049Y-108249251D01*
X157808434Y-108087560D01*
X157864512Y-107914971D01*
X157892900Y-107735735D01*
X157892900Y-107554265D01*
X157892900Y-107554264D01*
X159867100Y-107554264D01*
X159867100Y-107735735D01*
X159895486Y-107914963D01*
X159895489Y-107914975D01*
X159934250Y-108034269D01*
X159951566Y-108087560D01*
X159990236Y-108163454D01*
X160033954Y-108249257D01*
X160140609Y-108396054D01*
X160140613Y-108396058D01*
X160140617Y-108396064D01*
X160268936Y-108524383D01*
X160268941Y-108524387D01*
X160268945Y-108524390D01*
X160415742Y-108631045D01*
X160415747Y-108631047D01*
X160415749Y-108631049D01*
X160577440Y-108713434D01*
X160750029Y-108769512D01*
X160822973Y-108781065D01*
X160929264Y-108797900D01*
X160929265Y-108797900D01*
X161910735Y-108797900D01*
X162089971Y-108769512D01*
X162262560Y-108713434D01*
X162424251Y-108631049D01*
X162571064Y-108524383D01*
X162699383Y-108396064D01*
X162806049Y-108249251D01*
X162888434Y-108087560D01*
X162944512Y-107914971D01*
X162972900Y-107735735D01*
X162972900Y-107554265D01*
X162944512Y-107375029D01*
X162888434Y-107202440D01*
X162806049Y-107040749D01*
X162806047Y-107040747D01*
X162806045Y-107040742D01*
X162699390Y-106893945D01*
X162699387Y-106893941D01*
X162699383Y-106893936D01*
X162571064Y-106765617D01*
X162571058Y-106765613D01*
X162571054Y-106765609D01*
X162424257Y-106658954D01*
X162363213Y-106627851D01*
X162262560Y-106576566D01*
X162262557Y-106576565D01*
X162262555Y-106576564D01*
X162089975Y-106520489D01*
X162089963Y-106520486D01*
X161910736Y-106492100D01*
X161910735Y-106492100D01*
X160929265Y-106492100D01*
X160929264Y-106492100D01*
X160750036Y-106520486D01*
X160750024Y-106520489D01*
X160577444Y-106576564D01*
X160415742Y-106658954D01*
X160268945Y-106765609D01*
X160268929Y-106765623D01*
X160140623Y-106893929D01*
X160140609Y-106893945D01*
X160033954Y-107040742D01*
X159951564Y-107202444D01*
X159895489Y-107375024D01*
X159895486Y-107375036D01*
X159867100Y-107554264D01*
X157892900Y-107554264D01*
X157864512Y-107375029D01*
X157808434Y-107202440D01*
X157726049Y-107040749D01*
X157726047Y-107040747D01*
X157726045Y-107040742D01*
X157619390Y-106893945D01*
X157619387Y-106893941D01*
X157619383Y-106893936D01*
X157491064Y-106765617D01*
X157491058Y-106765613D01*
X157491054Y-106765609D01*
X157344257Y-106658954D01*
X157283213Y-106627851D01*
X157182560Y-106576566D01*
X157182557Y-106576565D01*
X157182555Y-106576564D01*
X157009975Y-106520489D01*
X157009963Y-106520486D01*
X156830736Y-106492100D01*
X156830735Y-106492100D01*
X155849265Y-106492100D01*
X155849264Y-106492100D01*
X155670036Y-106520486D01*
X155670024Y-106520489D01*
X155497444Y-106576564D01*
X155335742Y-106658954D01*
X155188945Y-106765609D01*
X155188929Y-106765623D01*
X155060623Y-106893929D01*
X155060609Y-106893945D01*
X154953954Y-107040742D01*
X154871564Y-107202444D01*
X154836712Y-107309707D01*
X154822782Y-107352581D01*
X154821382Y-107356889D01*
X154815567Y-107363698D01*
X154810255Y-107364973D01*
X154405557Y-107364973D01*
X154397284Y-107361546D01*
X150043796Y-103008058D01*
X156293480Y-103008058D01*
X156293480Y-103128657D01*
X156324690Y-103245139D01*
X156324692Y-103245143D01*
X156384987Y-103349576D01*
X156384989Y-103349579D01*
X156384990Y-103349580D01*
X156470263Y-103434853D01*
X156470264Y-103434854D01*
X156470266Y-103434855D01*
X156574699Y-103495150D01*
X156574703Y-103495152D01*
X156666568Y-103519766D01*
X156691185Y-103526362D01*
X156691187Y-103526363D01*
X156691188Y-103526363D01*
X156811783Y-103526363D01*
X156811783Y-103526362D01*
X156870025Y-103510757D01*
X156928266Y-103495152D01*
X156928270Y-103495150D01*
X156973171Y-103469226D01*
X157032707Y-103434853D01*
X157115748Y-103351812D01*
X157124021Y-103348385D01*
X179361990Y-103348385D01*
X179361990Y-103348384D01*
X179412049Y-103334970D01*
X179433205Y-103329302D01*
X179433205Y-103329301D01*
X179433208Y-103329301D01*
X179497063Y-103292435D01*
X180948285Y-101841211D01*
X180956558Y-101837785D01*
X181073998Y-101837785D01*
X181073998Y-101837784D01*
X181132240Y-101822179D01*
X181190481Y-101806574D01*
X181190485Y-101806572D01*
X181225296Y-101786473D01*
X181294922Y-101746275D01*
X181380195Y-101661002D01*
X181440493Y-101556563D01*
X181471705Y-101440077D01*
X181471705Y-101319483D01*
X181461604Y-101281784D01*
X181440494Y-101202998D01*
X181440492Y-101202994D01*
X181380197Y-101098561D01*
X181380193Y-101098556D01*
X181294923Y-101013286D01*
X181294918Y-101013282D01*
X181190485Y-100952987D01*
X181190481Y-100952985D01*
X181073999Y-100921775D01*
X181073997Y-100921775D01*
X180953403Y-100921775D01*
X180953400Y-100921775D01*
X180836918Y-100952985D01*
X180836914Y-100952987D01*
X180732481Y-101013282D01*
X180732476Y-101013286D01*
X180647206Y-101098556D01*
X180647202Y-101098561D01*
X180586907Y-101202994D01*
X180586905Y-101202998D01*
X180555695Y-101319480D01*
X180555695Y-101436920D01*
X180552268Y-101445193D01*
X179212558Y-102784904D01*
X179204285Y-102788331D01*
X157124021Y-102788331D01*
X157115748Y-102784904D01*
X157032708Y-102701864D01*
X157032703Y-102701860D01*
X156928270Y-102641565D01*
X156928266Y-102641563D01*
X156811784Y-102610353D01*
X156811782Y-102610353D01*
X156691188Y-102610353D01*
X156691185Y-102610353D01*
X156574703Y-102641563D01*
X156574699Y-102641565D01*
X156470266Y-102701860D01*
X156470261Y-102701864D01*
X156384991Y-102787134D01*
X156384987Y-102787139D01*
X156324692Y-102891572D01*
X156324690Y-102891576D01*
X156293480Y-103008058D01*
X150043796Y-103008058D01*
X147014443Y-99978705D01*
X180784600Y-99978705D01*
X180784600Y-100141294D01*
X180816319Y-100300760D01*
X180878539Y-100450972D01*
X180878543Y-100450980D01*
X180968868Y-100586160D01*
X180972472Y-100589763D01*
X181277734Y-100284500D01*
X181289920Y-100305606D01*
X181364394Y-100380080D01*
X181385497Y-100392264D01*
X181080235Y-100697526D01*
X181083839Y-100701131D01*
X181219019Y-100791456D01*
X181219027Y-100791460D01*
X181369239Y-100853680D01*
X181528706Y-100885400D01*
X181691294Y-100885400D01*
X181850760Y-100853680D01*
X182000972Y-100791460D01*
X182000980Y-100791456D01*
X182136162Y-100701130D01*
X182136164Y-100701128D01*
X182139764Y-100697527D01*
X182139764Y-100697526D01*
X181834501Y-100392264D01*
X181855606Y-100380080D01*
X181930080Y-100305606D01*
X181942264Y-100284501D01*
X182247526Y-100589764D01*
X182247527Y-100589764D01*
X182251128Y-100586164D01*
X182251130Y-100586162D01*
X182341456Y-100450980D01*
X182341460Y-100450972D01*
X182403680Y-100300760D01*
X182435400Y-100141294D01*
X182435400Y-99978705D01*
X182403680Y-99819239D01*
X182341460Y-99669027D01*
X182341456Y-99669019D01*
X182251131Y-99533839D01*
X182247526Y-99530235D01*
X181942264Y-99835497D01*
X181930080Y-99814394D01*
X181855606Y-99739920D01*
X181834500Y-99727734D01*
X182139764Y-99422472D01*
X182136160Y-99418868D01*
X182000980Y-99328543D01*
X182000972Y-99328539D01*
X181850760Y-99266319D01*
X181691294Y-99234600D01*
X181528706Y-99234600D01*
X181369239Y-99266319D01*
X181219027Y-99328539D01*
X181219019Y-99328543D01*
X181083841Y-99418867D01*
X181083836Y-99418871D01*
X181080235Y-99422471D01*
X181385498Y-99727735D01*
X181364394Y-99739920D01*
X181289920Y-99814394D01*
X181277735Y-99835498D01*
X180972472Y-99530235D01*
X180972471Y-99530235D01*
X180968871Y-99533836D01*
X180968867Y-99533841D01*
X180878543Y-99669019D01*
X180878539Y-99669027D01*
X180816319Y-99819239D01*
X180784600Y-99978705D01*
X147014443Y-99978705D01*
X144111662Y-97075924D01*
X144111661Y-97075923D01*
X144047806Y-97039057D01*
X144047805Y-97039056D01*
X144047802Y-97039055D01*
X144047804Y-97039055D01*
X143976589Y-97019973D01*
X143976586Y-97019973D01*
X137312142Y-97019973D01*
X136749745Y-97019973D01*
X136741472Y-97016546D01*
X136738618Y-97011889D01*
X136688435Y-96857444D01*
X136688434Y-96857440D01*
X136606049Y-96695749D01*
X136606047Y-96695747D01*
X136606045Y-96695742D01*
X136499390Y-96548945D01*
X136499387Y-96548941D01*
X136499383Y-96548936D01*
X136371064Y-96420617D01*
X136371058Y-96420613D01*
X136371054Y-96420609D01*
X136224257Y-96313954D01*
X136208981Y-96306170D01*
X136062560Y-96231566D01*
X136062557Y-96231565D01*
X136062555Y-96231564D01*
X135889975Y-96175489D01*
X135889963Y-96175486D01*
X135710736Y-96147100D01*
X135710735Y-96147100D01*
X135529265Y-96147100D01*
X135529264Y-96147100D01*
X135350036Y-96175486D01*
X135350024Y-96175489D01*
X135177444Y-96231564D01*
X135015742Y-96313954D01*
X134868945Y-96420609D01*
X134868929Y-96420623D01*
X134740623Y-96548929D01*
X134740609Y-96548945D01*
X134633954Y-96695742D01*
X134551564Y-96857444D01*
X134495489Y-97030024D01*
X134495486Y-97030036D01*
X134467100Y-97209264D01*
X130536131Y-97209264D01*
X130536131Y-86545277D01*
X141117100Y-86545277D01*
X141117100Y-86794722D01*
X141149658Y-87042032D01*
X141214219Y-87282978D01*
X141214223Y-87282989D01*
X141309676Y-87513432D01*
X141309679Y-87513437D01*
X141434394Y-87729451D01*
X141434402Y-87729463D01*
X141586254Y-87927361D01*
X141762639Y-88103746D01*
X141960537Y-88255598D01*
X141960540Y-88255600D01*
X141960548Y-88255605D01*
X142091378Y-88331139D01*
X142176563Y-88380321D01*
X142176565Y-88380321D01*
X142176567Y-88380323D01*
X142407010Y-88475776D01*
X142407020Y-88475780D01*
X142647966Y-88540341D01*
X142895277Y-88572900D01*
X143144723Y-88572900D01*
X143392034Y-88540341D01*
X143632980Y-88475780D01*
X143863437Y-88380321D01*
X144079463Y-88255598D01*
X144277361Y-88103746D01*
X144453746Y-87927361D01*
X144605598Y-87729463D01*
X144730321Y-87513437D01*
X144825780Y-87282980D01*
X144890341Y-87042034D01*
X144901115Y-86960200D01*
X144905593Y-86952445D01*
X144912715Y-86950027D01*
X145466897Y-86950027D01*
X145466897Y-86950026D01*
X145516956Y-86936612D01*
X145538112Y-86930944D01*
X145538112Y-86930943D01*
X145538115Y-86930943D01*
X145544281Y-86927383D01*
X145601970Y-86894077D01*
X147020770Y-85475277D01*
X166967100Y-85475277D01*
X166967100Y-85724722D01*
X166999658Y-85972032D01*
X167064219Y-86212978D01*
X167064223Y-86212989D01*
X167159676Y-86443432D01*
X167159679Y-86443437D01*
X167284394Y-86659451D01*
X167284402Y-86659463D01*
X167436254Y-86857361D01*
X167612639Y-87033746D01*
X167810537Y-87185598D01*
X167810540Y-87185600D01*
X167810548Y-87185605D01*
X167866577Y-87217953D01*
X168026563Y-87310321D01*
X168026565Y-87310321D01*
X168026567Y-87310323D01*
X168166835Y-87368424D01*
X168257020Y-87405780D01*
X168497966Y-87470341D01*
X168745277Y-87502900D01*
X168994723Y-87502900D01*
X169242034Y-87470341D01*
X169482980Y-87405780D01*
X169713437Y-87310321D01*
X169914984Y-87193957D01*
X169929451Y-87185605D01*
X169929451Y-87185604D01*
X169929463Y-87185598D01*
X170127361Y-87033746D01*
X170303746Y-86857361D01*
X170455598Y-86659463D01*
X170580321Y-86443437D01*
X170675780Y-86212980D01*
X170740341Y-85972034D01*
X170772900Y-85724723D01*
X170772900Y-85475277D01*
X170740341Y-85227966D01*
X170675780Y-84987020D01*
X170624916Y-84864223D01*
X170580323Y-84756567D01*
X170580320Y-84756562D01*
X170455605Y-84540548D01*
X170455597Y-84540536D01*
X170303746Y-84342639D01*
X170127361Y-84166254D01*
X169929463Y-84014402D01*
X169929451Y-84014394D01*
X169713437Y-83889679D01*
X169713432Y-83889676D01*
X169482989Y-83794223D01*
X169482978Y-83794219D01*
X169242032Y-83729658D01*
X168994723Y-83697100D01*
X168745277Y-83697100D01*
X168497967Y-83729658D01*
X168257021Y-83794219D01*
X168257010Y-83794223D01*
X168026567Y-83889676D01*
X168026562Y-83889679D01*
X167810548Y-84014394D01*
X167810536Y-84014402D01*
X167612640Y-84166253D01*
X167612633Y-84166259D01*
X167436259Y-84342633D01*
X167436253Y-84342640D01*
X167284402Y-84540536D01*
X167284394Y-84540548D01*
X167159679Y-84756562D01*
X167159676Y-84756567D01*
X167064223Y-84987010D01*
X167064219Y-84987021D01*
X166999658Y-85227967D01*
X166967100Y-85475277D01*
X147020770Y-85475277D01*
X150962547Y-81533500D01*
X150970820Y-81530073D01*
X174912826Y-81530073D01*
X174912826Y-81530072D01*
X174962885Y-81516658D01*
X174984041Y-81510990D01*
X174984041Y-81510989D01*
X174984044Y-81510989D01*
X175047899Y-81474123D01*
X182041617Y-74480404D01*
X182078483Y-74416549D01*
X182097566Y-74345331D01*
X182097567Y-74345331D01*
X182097567Y-71190382D01*
X182100994Y-71182109D01*
X186167293Y-67115810D01*
X186175566Y-67112383D01*
X186183839Y-67115810D01*
X186187266Y-67124083D01*
X186187266Y-67149140D01*
X186183839Y-67157413D01*
X183603564Y-69737688D01*
X183566695Y-69801547D01*
X183547613Y-69872762D01*
X183547613Y-104257166D01*
X183544186Y-104265439D01*
X181645924Y-106163700D01*
X181645920Y-106163705D01*
X181617716Y-106212556D01*
X181617717Y-106212557D01*
X181609057Y-106227557D01*
X181609055Y-106227558D01*
X181589973Y-106298774D01*
X181589973Y-106863452D01*
X181586546Y-106871725D01*
X181580557Y-106874927D01*
X181576006Y-106875832D01*
X181392581Y-106951809D01*
X181392573Y-106951813D01*
X181227501Y-107062112D01*
X181227497Y-107062115D01*
X181087115Y-107202497D01*
X181087112Y-107202501D01*
X180976813Y-107367573D01*
X180976809Y-107367581D01*
X180900833Y-107551005D01*
X180874363Y-107684079D01*
X180862100Y-107745730D01*
X180862100Y-108034270D01*
X180875986Y-108104079D01*
X180900833Y-108228994D01*
X180976809Y-108412418D01*
X180976813Y-108412426D01*
X181087112Y-108577498D01*
X181087115Y-108577502D01*
X181227497Y-108717884D01*
X181227501Y-108717887D01*
X181392573Y-108828186D01*
X181392577Y-108828188D01*
X181392580Y-108828190D01*
X181576006Y-108904167D01*
X181770730Y-108942900D01*
X181770731Y-108942900D01*
X181969269Y-108942900D01*
X181969270Y-108942900D01*
X182163994Y-108904167D01*
X182347420Y-108828190D01*
X182512499Y-108717887D01*
X182652887Y-108577499D01*
X182763190Y-108412420D01*
X182839167Y-108228994D01*
X182877900Y-108034270D01*
X182877900Y-107745730D01*
X183142100Y-107745730D01*
X183142100Y-108034270D01*
X183155986Y-108104079D01*
X183180833Y-108228994D01*
X183256809Y-108412418D01*
X183256813Y-108412426D01*
X183367112Y-108577498D01*
X183367115Y-108577502D01*
X183507497Y-108717884D01*
X183507501Y-108717887D01*
X183672573Y-108828186D01*
X183672577Y-108828188D01*
X183672580Y-108828190D01*
X183856006Y-108904167D01*
X184050730Y-108942900D01*
X184050731Y-108942900D01*
X184249269Y-108942900D01*
X184249270Y-108942900D01*
X184443994Y-108904167D01*
X184627420Y-108828190D01*
X184658253Y-108807586D01*
X184667033Y-108805840D01*
X184673024Y-108809042D01*
X184998012Y-109134030D01*
X185241569Y-109377587D01*
X185305424Y-109414453D01*
X185305426Y-109414453D01*
X185305427Y-109414454D01*
X185305425Y-109414454D01*
X185361592Y-109429503D01*
X185376641Y-109433536D01*
X185376642Y-109433537D01*
X185376644Y-109433537D01*
X210899001Y-109433537D01*
X210899001Y-109433536D01*
X210949060Y-109420122D01*
X210970216Y-109414454D01*
X210970216Y-109414453D01*
X210970219Y-109414453D01*
X211034074Y-109377587D01*
X212248207Y-108163454D01*
X212256480Y-108160027D01*
X212699502Y-108160027D01*
X212707775Y-108163454D01*
X212710977Y-108169444D01*
X212720833Y-108218994D01*
X212796809Y-108402418D01*
X212796813Y-108402426D01*
X212907112Y-108567498D01*
X212907115Y-108567502D01*
X213047497Y-108707884D01*
X213047501Y-108707887D01*
X213212573Y-108818186D01*
X213212577Y-108818188D01*
X213212580Y-108818190D01*
X213396006Y-108894167D01*
X213590730Y-108932900D01*
X213590731Y-108932900D01*
X213789269Y-108932900D01*
X213789270Y-108932900D01*
X213983994Y-108894167D01*
X214167420Y-108818190D01*
X214332499Y-108707887D01*
X214472887Y-108567499D01*
X214583190Y-108402420D01*
X214659167Y-108218994D01*
X214697900Y-108024270D01*
X214697900Y-107735730D01*
X214962100Y-107735730D01*
X214962100Y-108024270D01*
X214985308Y-108140943D01*
X215000833Y-108218994D01*
X215076809Y-108402418D01*
X215076813Y-108402426D01*
X215187112Y-108567498D01*
X215187115Y-108567502D01*
X215327497Y-108707884D01*
X215327501Y-108707887D01*
X215492573Y-108818186D01*
X215492577Y-108818188D01*
X215492580Y-108818190D01*
X215676006Y-108894167D01*
X215870730Y-108932900D01*
X215870731Y-108932900D01*
X216069269Y-108932900D01*
X216069270Y-108932900D01*
X216263994Y-108894167D01*
X216447420Y-108818190D01*
X216612499Y-108707887D01*
X216752887Y-108567499D01*
X216863190Y-108402420D01*
X216939167Y-108218994D01*
X216977900Y-108024270D01*
X216977900Y-107735730D01*
X216939167Y-107541006D01*
X216863190Y-107357580D01*
X216863188Y-107357577D01*
X216863186Y-107357573D01*
X216752887Y-107192501D01*
X216752884Y-107192497D01*
X216612502Y-107052115D01*
X216612498Y-107052112D01*
X216495740Y-106974096D01*
X216482042Y-106964943D01*
X217242100Y-106964943D01*
X217242100Y-108795056D01*
X217250971Y-108839657D01*
X217250972Y-108839658D01*
X217278083Y-108880233D01*
X217284766Y-108890234D01*
X217335342Y-108924028D01*
X217379943Y-108932900D01*
X219120056Y-108932899D01*
X219164658Y-108924028D01*
X219215234Y-108890234D01*
X219249028Y-108839658D01*
X219257900Y-108795057D01*
X219257899Y-106964944D01*
X219256904Y-106959943D01*
X219249028Y-106920342D01*
X219249027Y-106920341D01*
X219242345Y-106910341D01*
X219215234Y-106869766D01*
X219214909Y-106869549D01*
X219164658Y-106835972D01*
X219164653Y-106835971D01*
X219120057Y-106827100D01*
X219120056Y-106827100D01*
X218541727Y-106827100D01*
X218533454Y-106823673D01*
X218530027Y-106815400D01*
X218530027Y-106617410D01*
X218533453Y-106609138D01*
X219355490Y-105787099D01*
X219363763Y-105783673D01*
X219480926Y-105783673D01*
X219480926Y-105783672D01*
X219539168Y-105768067D01*
X219597409Y-105752462D01*
X219597413Y-105752460D01*
X219646009Y-105724403D01*
X219701850Y-105692163D01*
X219787123Y-105606890D01*
X219847421Y-105502451D01*
X219854940Y-105474392D01*
X219863027Y-105444208D01*
X219878633Y-105385965D01*
X219878633Y-105265371D01*
X219858270Y-105189373D01*
X219847422Y-105148886D01*
X219847420Y-105148882D01*
X219787125Y-105044449D01*
X219787121Y-105044444D01*
X219701851Y-104959174D01*
X219701846Y-104959170D01*
X219597413Y-104898875D01*
X219597409Y-104898873D01*
X219480927Y-104867663D01*
X219480925Y-104867663D01*
X219360331Y-104867663D01*
X219360328Y-104867663D01*
X219243846Y-104898873D01*
X219243842Y-104898875D01*
X219139409Y-104959170D01*
X219139404Y-104959174D01*
X219054134Y-105044444D01*
X219054130Y-105044449D01*
X218993835Y-105148882D01*
X218993833Y-105148886D01*
X218962623Y-105265368D01*
X218962623Y-105383086D01*
X218959196Y-105391359D01*
X218025924Y-106324632D01*
X218025920Y-106324637D01*
X218002360Y-106365444D01*
X218002361Y-106365445D01*
X217989055Y-106388491D01*
X217969973Y-106459706D01*
X217969973Y-106815400D01*
X217966546Y-106823673D01*
X217958273Y-106827100D01*
X217379943Y-106827100D01*
X217335342Y-106835971D01*
X217335341Y-106835972D01*
X217284766Y-106869765D01*
X217284765Y-106869766D01*
X217250972Y-106920341D01*
X217242100Y-106964943D01*
X216482042Y-106964943D01*
X216447426Y-106941813D01*
X216447418Y-106941809D01*
X216263993Y-106865832D01*
X216259443Y-106864927D01*
X216251998Y-106859951D01*
X216250027Y-106853452D01*
X216250027Y-104245088D01*
X216253453Y-104236816D01*
X217292060Y-103198208D01*
X217300333Y-103194782D01*
X217417773Y-103194782D01*
X217417773Y-103194781D01*
X217476015Y-103179176D01*
X217534256Y-103163571D01*
X217534260Y-103163569D01*
X217594732Y-103128655D01*
X217638697Y-103103272D01*
X217723970Y-103017999D01*
X217784268Y-102913560D01*
X217791949Y-102884896D01*
X217815479Y-102797076D01*
X217815480Y-102797075D01*
X217815480Y-102676479D01*
X217815479Y-102676477D01*
X217811408Y-102661285D01*
X217795537Y-102602050D01*
X217784269Y-102559995D01*
X217784267Y-102559991D01*
X217723972Y-102455558D01*
X217723968Y-102455553D01*
X217638697Y-102370282D01*
X217638693Y-102370279D01*
X217534260Y-102309984D01*
X217534256Y-102309982D01*
X217417774Y-102278772D01*
X217417772Y-102278772D01*
X217297178Y-102278772D01*
X217297175Y-102278772D01*
X217180693Y-102309982D01*
X217180689Y-102309984D01*
X217076256Y-102370279D01*
X217076253Y-102370282D01*
X216990981Y-102455553D01*
X216990977Y-102455558D01*
X216930682Y-102559991D01*
X216930680Y-102559995D01*
X216899470Y-102676477D01*
X216899470Y-102793917D01*
X216896043Y-102802190D01*
X215745924Y-103952309D01*
X215719363Y-103998316D01*
X215709055Y-104016168D01*
X215689973Y-104087383D01*
X215689973Y-106853452D01*
X215686546Y-106861725D01*
X215680557Y-106864927D01*
X215676006Y-106865832D01*
X215492581Y-106941809D01*
X215492573Y-106941813D01*
X215327501Y-107052112D01*
X215327497Y-107052115D01*
X215187115Y-107192497D01*
X215187112Y-107192501D01*
X215076813Y-107357573D01*
X215076809Y-107357581D01*
X215000833Y-107541005D01*
X214990977Y-107590556D01*
X214962100Y-107735730D01*
X214697900Y-107735730D01*
X214659167Y-107541006D01*
X214583190Y-107357580D01*
X214583188Y-107357577D01*
X214583186Y-107357573D01*
X214472887Y-107192501D01*
X214472884Y-107192497D01*
X214332502Y-107052115D01*
X214332498Y-107052112D01*
X214167426Y-106941813D01*
X214167418Y-106941809D01*
X213983994Y-106865833D01*
X213954423Y-106859951D01*
X213789270Y-106827100D01*
X213590730Y-106827100D01*
X213540457Y-106837100D01*
X213396005Y-106865833D01*
X213212581Y-106941809D01*
X213212573Y-106941813D01*
X213047501Y-107052112D01*
X213047497Y-107052115D01*
X212907115Y-107192497D01*
X212907112Y-107192501D01*
X212796813Y-107357573D01*
X212796809Y-107357581D01*
X212720833Y-107541005D01*
X212710977Y-107590556D01*
X212706002Y-107598001D01*
X212699502Y-107599973D01*
X212098774Y-107599973D01*
X212027559Y-107619055D01*
X211963700Y-107655924D01*
X210749569Y-108870056D01*
X210741296Y-108873483D01*
X209181634Y-108873483D01*
X209173361Y-108870056D01*
X209169934Y-108861783D01*
X209171906Y-108855283D01*
X209182346Y-108839658D01*
X209189028Y-108829658D01*
X209197900Y-108785057D01*
X209197899Y-106954944D01*
X209197787Y-106954383D01*
X209189028Y-106910342D01*
X209189027Y-106910341D01*
X209155234Y-106859766D01*
X209155233Y-106859765D01*
X209104658Y-106825972D01*
X209060057Y-106817100D01*
X209060056Y-106817100D01*
X207387163Y-106817100D01*
X207378890Y-106813673D01*
X207375463Y-106805400D01*
X207378890Y-106797127D01*
X209851419Y-104324599D01*
X212330753Y-101845265D01*
X212339026Y-101841838D01*
X217569571Y-101841838D01*
X217577844Y-101845265D01*
X217660885Y-101928306D01*
X217660886Y-101928307D01*
X217660888Y-101928308D01*
X217765321Y-101988603D01*
X217765325Y-101988605D01*
X217857190Y-102013219D01*
X217881807Y-102019815D01*
X217881809Y-102019816D01*
X217881810Y-102019816D01*
X218002405Y-102019816D01*
X218002405Y-102019815D01*
X218060647Y-102004210D01*
X218118888Y-101988605D01*
X218118892Y-101988603D01*
X218158661Y-101965642D01*
X218223329Y-101928306D01*
X218308602Y-101843033D01*
X218368900Y-101738594D01*
X218371975Y-101727120D01*
X218389690Y-101661002D01*
X218400112Y-101622108D01*
X218400112Y-101501514D01*
X218383651Y-101440079D01*
X218368901Y-101385029D01*
X218368899Y-101385025D01*
X218308604Y-101280592D01*
X218308600Y-101280587D01*
X218223330Y-101195317D01*
X218223325Y-101195313D01*
X218118892Y-101135018D01*
X218118888Y-101135016D01*
X218002406Y-101103806D01*
X218002404Y-101103806D01*
X217881810Y-101103806D01*
X217881807Y-101103806D01*
X217765325Y-101135016D01*
X217765321Y-101135018D01*
X217660888Y-101195313D01*
X217660883Y-101195317D01*
X217577844Y-101278357D01*
X217569571Y-101281784D01*
X212181320Y-101281784D01*
X212129186Y-101295754D01*
X212110103Y-101300866D01*
X212110099Y-101300868D01*
X212046251Y-101337731D01*
X212046246Y-101337735D01*
X206433024Y-106950956D01*
X206424751Y-106954383D01*
X206418251Y-106952411D01*
X206387424Y-106931813D01*
X206387420Y-106931810D01*
X206383873Y-106930341D01*
X206203994Y-106855833D01*
X206141750Y-106843452D01*
X206009270Y-106817100D01*
X205810730Y-106817100D01*
X205760457Y-106827100D01*
X205616005Y-106855833D01*
X205432581Y-106931809D01*
X205432573Y-106931813D01*
X205267501Y-107042112D01*
X205267497Y-107042115D01*
X205127115Y-107182497D01*
X205127112Y-107182501D01*
X205016813Y-107347573D01*
X205016809Y-107347581D01*
X204940833Y-107531005D01*
X204915985Y-107655923D01*
X204902100Y-107725730D01*
X204902100Y-108014270D01*
X204905084Y-108029270D01*
X204940833Y-108208994D01*
X205016809Y-108392418D01*
X205016813Y-108392426D01*
X205127112Y-108557498D01*
X205127115Y-108557502D01*
X205267497Y-108697884D01*
X205267501Y-108697887D01*
X205432573Y-108808186D01*
X205432577Y-108808188D01*
X205432580Y-108808190D01*
X205508551Y-108839658D01*
X205535870Y-108850974D01*
X205542202Y-108857306D01*
X205542202Y-108866260D01*
X205535870Y-108872592D01*
X205531393Y-108873483D01*
X204008607Y-108873483D01*
X204000334Y-108870056D01*
X203996907Y-108861783D01*
X204000334Y-108853510D01*
X204004130Y-108850974D01*
X204031449Y-108839658D01*
X204107420Y-108808190D01*
X204272499Y-108697887D01*
X204412887Y-108557499D01*
X204523190Y-108392420D01*
X204599167Y-108208994D01*
X204637900Y-108014270D01*
X204637900Y-107725730D01*
X204599167Y-107531006D01*
X204523190Y-107347580D01*
X204523188Y-107347577D01*
X204523186Y-107347573D01*
X204412887Y-107182501D01*
X204412884Y-107182497D01*
X204272502Y-107042115D01*
X204272498Y-107042112D01*
X204107426Y-106931813D01*
X204107418Y-106931809D01*
X203923994Y-106855833D01*
X203861750Y-106843452D01*
X203729270Y-106817100D01*
X203530730Y-106817100D01*
X203480457Y-106827100D01*
X203336005Y-106855833D01*
X203152581Y-106931809D01*
X203152573Y-106931813D01*
X202987501Y-107042112D01*
X202987497Y-107042115D01*
X202847115Y-107182497D01*
X202847112Y-107182501D01*
X202736813Y-107347573D01*
X202736809Y-107347581D01*
X202660833Y-107531005D01*
X202635985Y-107655923D01*
X202622100Y-107725730D01*
X202622100Y-108014270D01*
X202625084Y-108029270D01*
X202660833Y-108208994D01*
X202736809Y-108392418D01*
X202736813Y-108392426D01*
X202847112Y-108557498D01*
X202847115Y-108557502D01*
X202987497Y-108697884D01*
X202987501Y-108697887D01*
X203152573Y-108808186D01*
X203152577Y-108808188D01*
X203152580Y-108808190D01*
X203228551Y-108839658D01*
X203255870Y-108850974D01*
X203262202Y-108857306D01*
X203262202Y-108866260D01*
X203255870Y-108872592D01*
X203251393Y-108873483D01*
X197814975Y-108873483D01*
X197806702Y-108870056D01*
X197803275Y-108861783D01*
X197805247Y-108855283D01*
X197812346Y-108844658D01*
X197819028Y-108834658D01*
X197827900Y-108790057D01*
X197827899Y-106959944D01*
X197826904Y-106954943D01*
X197819028Y-106915342D01*
X197819027Y-106915341D01*
X197788698Y-106869951D01*
X197785234Y-106864766D01*
X197783267Y-106863452D01*
X197734658Y-106830972D01*
X197734653Y-106830971D01*
X197690057Y-106822100D01*
X197690056Y-106822100D01*
X195949943Y-106822100D01*
X195905342Y-106830971D01*
X195905341Y-106830972D01*
X195854766Y-106864765D01*
X195854765Y-106864766D01*
X195820972Y-106915341D01*
X195812100Y-106959943D01*
X195812100Y-108790056D01*
X195820971Y-108834657D01*
X195820972Y-108834658D01*
X195834753Y-108855283D01*
X195836500Y-108864066D01*
X195831525Y-108871511D01*
X195825025Y-108873483D01*
X194930678Y-108873483D01*
X194922405Y-108870056D01*
X194918978Y-108861783D01*
X194922405Y-108853510D01*
X194926201Y-108850974D01*
X194941449Y-108844658D01*
X195017420Y-108813190D01*
X195182499Y-108702887D01*
X195322887Y-108562499D01*
X195433190Y-108397420D01*
X195509167Y-108213994D01*
X195547900Y-108019270D01*
X195547900Y-107730730D01*
X195509167Y-107536006D01*
X195433190Y-107352580D01*
X195433188Y-107352577D01*
X195433186Y-107352573D01*
X195322887Y-107187501D01*
X195322884Y-107187497D01*
X195182502Y-107047115D01*
X195182498Y-107047112D01*
X195017426Y-106936813D01*
X195017418Y-106936809D01*
X194833994Y-106860833D01*
X194804423Y-106854951D01*
X194639270Y-106822100D01*
X194440730Y-106822100D01*
X194390457Y-106832100D01*
X194246005Y-106860833D01*
X194062581Y-106936809D01*
X194062573Y-106936813D01*
X193897501Y-107047112D01*
X193897497Y-107047115D01*
X193757115Y-107187497D01*
X193757112Y-107187501D01*
X193646813Y-107352573D01*
X193646809Y-107352581D01*
X193570833Y-107536005D01*
X193554313Y-107619057D01*
X193532100Y-107730730D01*
X193532100Y-108019270D01*
X193569838Y-108208994D01*
X193570833Y-108213994D01*
X193646809Y-108397418D01*
X193646813Y-108397426D01*
X193757112Y-108562498D01*
X193757115Y-108562502D01*
X193897497Y-108702884D01*
X193897501Y-108702887D01*
X194062573Y-108813186D01*
X194062577Y-108813188D01*
X194062580Y-108813190D01*
X194138551Y-108844658D01*
X194153799Y-108850974D01*
X194160131Y-108857306D01*
X194160131Y-108866260D01*
X194153799Y-108872592D01*
X194149322Y-108873483D01*
X192650678Y-108873483D01*
X192642405Y-108870056D01*
X192638978Y-108861783D01*
X192642405Y-108853510D01*
X192646201Y-108850974D01*
X192661449Y-108844658D01*
X192737420Y-108813190D01*
X192902499Y-108702887D01*
X193042887Y-108562499D01*
X193153190Y-108397420D01*
X193229167Y-108213994D01*
X193267900Y-108019270D01*
X193267900Y-107730730D01*
X193229167Y-107536006D01*
X193153190Y-107352580D01*
X193153188Y-107352577D01*
X193153186Y-107352573D01*
X193042887Y-107187501D01*
X193042884Y-107187497D01*
X192902502Y-107047115D01*
X192902498Y-107047112D01*
X192737426Y-106936813D01*
X192737418Y-106936809D01*
X192553993Y-106860832D01*
X192549443Y-106859927D01*
X192541998Y-106854951D01*
X192540027Y-106848452D01*
X192540027Y-106441480D01*
X192543454Y-106433207D01*
X192980804Y-105995857D01*
X193652213Y-105324448D01*
X193689079Y-105260593D01*
X193689935Y-105257397D01*
X193708163Y-105189373D01*
X193708163Y-105145416D01*
X193711590Y-105137143D01*
X193751917Y-105096816D01*
X193794631Y-105054102D01*
X193849438Y-104959174D01*
X193854928Y-104949665D01*
X193854930Y-104949661D01*
X193876056Y-104870816D01*
X193886141Y-104833177D01*
X193886141Y-104712583D01*
X193879544Y-104687963D01*
X193854930Y-104596098D01*
X193854928Y-104596094D01*
X193794633Y-104491661D01*
X193794629Y-104491656D01*
X193709359Y-104406386D01*
X193709354Y-104406382D01*
X193604921Y-104346087D01*
X193604917Y-104346085D01*
X193488435Y-104314875D01*
X193488433Y-104314875D01*
X193367839Y-104314875D01*
X193367836Y-104314875D01*
X193251354Y-104346085D01*
X193251350Y-104346087D01*
X193146917Y-104406382D01*
X193146912Y-104406386D01*
X193061642Y-104491656D01*
X193061638Y-104491661D01*
X193001343Y-104596094D01*
X193001341Y-104596098D01*
X192970131Y-104712580D01*
X192970131Y-104833179D01*
X193001341Y-104949661D01*
X193001343Y-104949665D01*
X193061638Y-105054098D01*
X193061642Y-105054103D01*
X193087809Y-105080270D01*
X193091236Y-105088543D01*
X193087809Y-105096816D01*
X192035924Y-106148700D01*
X191999057Y-106212557D01*
X191999055Y-106212558D01*
X191979973Y-106283774D01*
X191979973Y-106848452D01*
X191976546Y-106856725D01*
X191970557Y-106859927D01*
X191966006Y-106860832D01*
X191782581Y-106936809D01*
X191782573Y-106936813D01*
X191751747Y-106957411D01*
X191742964Y-106959158D01*
X191736974Y-106955956D01*
X191444357Y-106663339D01*
X191440930Y-106655066D01*
X191440930Y-100478290D01*
X222677100Y-100478290D01*
X222677100Y-102241708D01*
X222692042Y-102336054D01*
X222692042Y-102336055D01*
X222692043Y-102336056D01*
X222749984Y-102449771D01*
X222840229Y-102540016D01*
X222953944Y-102597957D01*
X223048291Y-102612900D01*
X224668273Y-102612899D01*
X224676546Y-102616326D01*
X224679973Y-102624599D01*
X224679973Y-106843452D01*
X224676546Y-106851725D01*
X224670557Y-106854927D01*
X224666006Y-106855832D01*
X224482581Y-106931809D01*
X224482573Y-106931813D01*
X224317501Y-107042112D01*
X224317497Y-107042115D01*
X224177115Y-107182497D01*
X224177112Y-107182501D01*
X224066813Y-107347573D01*
X224066809Y-107347581D01*
X223990833Y-107531005D01*
X223965985Y-107655923D01*
X223952100Y-107725730D01*
X223952100Y-108014270D01*
X223955084Y-108029270D01*
X223990833Y-108208994D01*
X224066809Y-108392418D01*
X224066813Y-108392426D01*
X224177112Y-108557498D01*
X224177115Y-108557502D01*
X224317497Y-108697884D01*
X224317501Y-108697887D01*
X224482573Y-108808186D01*
X224482577Y-108808188D01*
X224482580Y-108808190D01*
X224666006Y-108884167D01*
X224860730Y-108922900D01*
X224860731Y-108922900D01*
X225059269Y-108922900D01*
X225059270Y-108922900D01*
X225253994Y-108884167D01*
X225437420Y-108808190D01*
X225602499Y-108697887D01*
X225742887Y-108557499D01*
X225853190Y-108392420D01*
X225929167Y-108208994D01*
X225967900Y-108014270D01*
X225967900Y-107725730D01*
X226232100Y-107725730D01*
X226232100Y-108014270D01*
X226235084Y-108029270D01*
X226270833Y-108208994D01*
X226346809Y-108392418D01*
X226346813Y-108392426D01*
X226457112Y-108557498D01*
X226457115Y-108557502D01*
X226597497Y-108697884D01*
X226597501Y-108697887D01*
X226762573Y-108808186D01*
X226762577Y-108808188D01*
X226762580Y-108808190D01*
X226946006Y-108884167D01*
X227140730Y-108922900D01*
X227140731Y-108922900D01*
X227339269Y-108922900D01*
X227339270Y-108922900D01*
X227533994Y-108884167D01*
X227717420Y-108808190D01*
X227882499Y-108697887D01*
X228022887Y-108557499D01*
X228133190Y-108392420D01*
X228209167Y-108208994D01*
X228247900Y-108014270D01*
X228247900Y-107725730D01*
X228209167Y-107531006D01*
X228143575Y-107372653D01*
X228143575Y-107363701D01*
X228146108Y-107359908D01*
X228482149Y-107023869D01*
X228492128Y-107013888D01*
X228500399Y-107010463D01*
X228508673Y-107013889D01*
X228512100Y-107022162D01*
X228512100Y-108785056D01*
X228520971Y-108829657D01*
X228520972Y-108829658D01*
X228549659Y-108872592D01*
X228554766Y-108880234D01*
X228605342Y-108914028D01*
X228649943Y-108922900D01*
X230390056Y-108922899D01*
X230434658Y-108914028D01*
X230485234Y-108880234D01*
X230519028Y-108829658D01*
X230527900Y-108785057D01*
X230527899Y-106954944D01*
X230527787Y-106954383D01*
X230519028Y-106910342D01*
X230519027Y-106910341D01*
X230503932Y-106887749D01*
X230502185Y-106878966D01*
X230507160Y-106871521D01*
X230513660Y-106869549D01*
X232634328Y-106869549D01*
X232642601Y-106872976D01*
X233873702Y-108104077D01*
X233873703Y-108104078D01*
X233873705Y-108104079D01*
X233937553Y-108140942D01*
X233937555Y-108140942D01*
X233937556Y-108140943D01*
X233956217Y-108145943D01*
X234008774Y-108160026D01*
X234008775Y-108160027D01*
X234008777Y-108160027D01*
X234609502Y-108160027D01*
X234617775Y-108163454D01*
X234620977Y-108169444D01*
X234630833Y-108218994D01*
X234706809Y-108402418D01*
X234706813Y-108402426D01*
X234817112Y-108567498D01*
X234817115Y-108567502D01*
X234957497Y-108707884D01*
X234957501Y-108707887D01*
X235122573Y-108818186D01*
X235122577Y-108818188D01*
X235122580Y-108818190D01*
X235306006Y-108894167D01*
X235500730Y-108932900D01*
X235500731Y-108932900D01*
X235699269Y-108932900D01*
X235699270Y-108932900D01*
X235893994Y-108894167D01*
X236077420Y-108818190D01*
X236242499Y-108707887D01*
X236382887Y-108567499D01*
X236493190Y-108402420D01*
X236569167Y-108218994D01*
X236607900Y-108024270D01*
X236607900Y-107735730D01*
X236569167Y-107541006D01*
X236493190Y-107357580D01*
X236493188Y-107357577D01*
X236493186Y-107357573D01*
X236382887Y-107192501D01*
X236382884Y-107192497D01*
X236242502Y-107052115D01*
X236242498Y-107052112D01*
X236077426Y-106941813D01*
X236077418Y-106941809D01*
X235893994Y-106865833D01*
X235864423Y-106859951D01*
X235699270Y-106827100D01*
X235500730Y-106827100D01*
X235450457Y-106837100D01*
X235306005Y-106865833D01*
X235122581Y-106941809D01*
X235122573Y-106941813D01*
X234957501Y-107052112D01*
X234957497Y-107052115D01*
X234817115Y-107192497D01*
X234817112Y-107192501D01*
X234706813Y-107357573D01*
X234706809Y-107357581D01*
X234630833Y-107541005D01*
X234620977Y-107590556D01*
X234616002Y-107598001D01*
X234609502Y-107599973D01*
X234166480Y-107599973D01*
X234158207Y-107596546D01*
X232927107Y-106365446D01*
X232927106Y-106365445D01*
X232863251Y-106328579D01*
X232863248Y-106328577D01*
X232848532Y-106324635D01*
X232792034Y-106309495D01*
X232792031Y-106309495D01*
X228483612Y-106309495D01*
X228483609Y-106309495D01*
X228427111Y-106324635D01*
X228412394Y-106328577D01*
X228348535Y-106365446D01*
X228086131Y-106627851D01*
X227763024Y-106950956D01*
X227754751Y-106954383D01*
X227748251Y-106952411D01*
X227717424Y-106931813D01*
X227717420Y-106931810D01*
X227713873Y-106930341D01*
X227533994Y-106855833D01*
X227471750Y-106843452D01*
X227339270Y-106817100D01*
X227140730Y-106817100D01*
X227090457Y-106827100D01*
X226946005Y-106855833D01*
X226762581Y-106931809D01*
X226762573Y-106931813D01*
X226597501Y-107042112D01*
X226597497Y-107042115D01*
X226457115Y-107182497D01*
X226457112Y-107182501D01*
X226346813Y-107347573D01*
X226346809Y-107347581D01*
X226270833Y-107531005D01*
X226245985Y-107655923D01*
X226232100Y-107725730D01*
X225967900Y-107725730D01*
X225929167Y-107531006D01*
X225853190Y-107347580D01*
X225853188Y-107347577D01*
X225853186Y-107347573D01*
X225742887Y-107182501D01*
X225742884Y-107182497D01*
X225602502Y-107042115D01*
X225602498Y-107042112D01*
X225437426Y-106931813D01*
X225437418Y-106931809D01*
X225253993Y-106855832D01*
X225249443Y-106854927D01*
X225241998Y-106849951D01*
X225240027Y-106843452D01*
X225240027Y-103897802D01*
X225621546Y-103897802D01*
X225621546Y-104018401D01*
X225652756Y-104134883D01*
X225652758Y-104134887D01*
X225713053Y-104239320D01*
X225713055Y-104239323D01*
X225713056Y-104239324D01*
X225798329Y-104324597D01*
X225798330Y-104324598D01*
X225798332Y-104324599D01*
X225902765Y-104384894D01*
X225902769Y-104384896D01*
X225982974Y-104406386D01*
X226019251Y-104416106D01*
X226019253Y-104416107D01*
X226019254Y-104416107D01*
X226139849Y-104416107D01*
X226139849Y-104416106D01*
X226198091Y-104400501D01*
X226256332Y-104384896D01*
X226256336Y-104384894D01*
X226323555Y-104346085D01*
X226360773Y-104324597D01*
X226446046Y-104239324D01*
X226506344Y-104134885D01*
X226511153Y-104116940D01*
X226521950Y-104076642D01*
X226537556Y-104018399D01*
X226537556Y-103897805D01*
X226519742Y-103831321D01*
X226506345Y-103781320D01*
X226506343Y-103781316D01*
X226446048Y-103676883D01*
X226446044Y-103676878D01*
X226363005Y-103593839D01*
X226359578Y-103585566D01*
X226359578Y-102661285D01*
X226363004Y-102653013D01*
X226565327Y-102450689D01*
X226573599Y-102447263D01*
X226580475Y-102449496D01*
X226583337Y-102451576D01*
X226759053Y-102541108D01*
X226759058Y-102541109D01*
X226759061Y-102541111D01*
X226846746Y-102569601D01*
X226946612Y-102602049D01*
X226999041Y-102610353D01*
X227141394Y-102632900D01*
X227141395Y-102632900D01*
X227338605Y-102632900D01*
X227533388Y-102602049D01*
X227720947Y-102541108D01*
X227896663Y-102451576D01*
X227897883Y-102450690D01*
X227995179Y-102379999D01*
X228056209Y-102335658D01*
X228195658Y-102196209D01*
X228279435Y-102080901D01*
X228311572Y-102036669D01*
X228311572Y-102036667D01*
X228311576Y-102036663D01*
X228401108Y-101860947D01*
X228462049Y-101673388D01*
X228492900Y-101478605D01*
X228492900Y-101281395D01*
X228462049Y-101086612D01*
X228418632Y-100952987D01*
X228401111Y-100899061D01*
X228401109Y-100899057D01*
X228401108Y-100899053D01*
X228311576Y-100723337D01*
X228311574Y-100723335D01*
X228311572Y-100723330D01*
X228195665Y-100563800D01*
X228195662Y-100563796D01*
X228195658Y-100563791D01*
X228056209Y-100424342D01*
X228056203Y-100424338D01*
X228056199Y-100424334D01*
X227896669Y-100308427D01*
X227821699Y-100270228D01*
X227720947Y-100218892D01*
X227720944Y-100218891D01*
X227720942Y-100218890D01*
X227720938Y-100218888D01*
X227533396Y-100157953D01*
X227533380Y-100157949D01*
X227338606Y-100127100D01*
X227338605Y-100127100D01*
X227141395Y-100127100D01*
X227141394Y-100127100D01*
X226946619Y-100157949D01*
X226946603Y-100157953D01*
X226759061Y-100218888D01*
X226759057Y-100218890D01*
X226583330Y-100308427D01*
X226423800Y-100424334D01*
X226423784Y-100424348D01*
X226284348Y-100563784D01*
X226284334Y-100563800D01*
X226168427Y-100723330D01*
X226078890Y-100899057D01*
X226078888Y-100899061D01*
X226017953Y-101086603D01*
X226017949Y-101086619D01*
X225987100Y-101281394D01*
X225987100Y-101478605D01*
X226017949Y-101673380D01*
X226017953Y-101673396D01*
X226078888Y-101860938D01*
X226078890Y-101860942D01*
X226078892Y-101860947D01*
X226159840Y-102019816D01*
X226168427Y-102036668D01*
X226170501Y-102039523D01*
X226172591Y-102048230D01*
X226169308Y-102054672D01*
X225916470Y-102307512D01*
X225855475Y-102368505D01*
X225854450Y-102370282D01*
X225818606Y-102432365D01*
X225799524Y-102503580D01*
X225799524Y-103585566D01*
X225796097Y-103593839D01*
X225713057Y-103676878D01*
X225713053Y-103676883D01*
X225652758Y-103781316D01*
X225652756Y-103781320D01*
X225621546Y-103897802D01*
X225240027Y-103897802D01*
X225240027Y-102353131D01*
X225220944Y-102281915D01*
X225220943Y-102281914D01*
X225219129Y-102278771D01*
X225219129Y-102278772D01*
X225184465Y-102218732D01*
X225182899Y-102212883D01*
X225182899Y-100478291D01*
X225167957Y-100383945D01*
X225167957Y-100383944D01*
X225110016Y-100270229D01*
X225019771Y-100179984D01*
X224906056Y-100122043D01*
X224906055Y-100122042D01*
X224906054Y-100122042D01*
X224811709Y-100107100D01*
X223048291Y-100107100D01*
X222953945Y-100122042D01*
X222840228Y-100179984D01*
X222749984Y-100270228D01*
X222692042Y-100383945D01*
X222677100Y-100478290D01*
X191440930Y-100478290D01*
X191440930Y-98336148D01*
X192559751Y-98336148D01*
X192559751Y-98523851D01*
X192596370Y-98707951D01*
X192668201Y-98881366D01*
X192668205Y-98881374D01*
X192772484Y-99037438D01*
X192772487Y-99037442D01*
X192905208Y-99170163D01*
X192905212Y-99170166D01*
X193061276Y-99274445D01*
X193061280Y-99274447D01*
X193061283Y-99274449D01*
X193234700Y-99346281D01*
X193418799Y-99382900D01*
X193418800Y-99382900D01*
X193606502Y-99382900D01*
X193606503Y-99382900D01*
X193790602Y-99346281D01*
X193964019Y-99274449D01*
X194120090Y-99170166D01*
X194252817Y-99037439D01*
X194357100Y-98881368D01*
X194428932Y-98707951D01*
X194465551Y-98523852D01*
X194465551Y-98336148D01*
X194428932Y-98152049D01*
X194357100Y-97978632D01*
X194357098Y-97978629D01*
X194357096Y-97978625D01*
X194277033Y-97858802D01*
X194273074Y-97852877D01*
X196187251Y-97852877D01*
X196187251Y-98353800D01*
X196618958Y-98353800D01*
X196612651Y-98377339D01*
X196612651Y-98482661D01*
X196618958Y-98506200D01*
X196187252Y-98506200D01*
X196187252Y-99007122D01*
X196203229Y-99087455D01*
X196203230Y-99087456D01*
X196264098Y-99178551D01*
X196264099Y-99178552D01*
X196355194Y-99239420D01*
X196435528Y-99255399D01*
X196936451Y-99255399D01*
X196936451Y-98823692D01*
X196959990Y-98830000D01*
X197065312Y-98830000D01*
X197088851Y-98823692D01*
X197088851Y-99255399D01*
X197589773Y-99255399D01*
X197670106Y-99239421D01*
X197670107Y-99239420D01*
X197761202Y-99178552D01*
X197761203Y-99178551D01*
X197822071Y-99087456D01*
X197838051Y-99007122D01*
X197838051Y-98506200D01*
X197406344Y-98506200D01*
X197412651Y-98482661D01*
X197412651Y-98377339D01*
X197406344Y-98353800D01*
X197838050Y-98353800D01*
X197838050Y-97852877D01*
X197822072Y-97772544D01*
X197822071Y-97772543D01*
X197761203Y-97681448D01*
X197761202Y-97681447D01*
X197670107Y-97620579D01*
X197589773Y-97604600D01*
X197088851Y-97604600D01*
X197088851Y-98036307D01*
X197065312Y-98030000D01*
X196959990Y-98030000D01*
X196936451Y-98036307D01*
X196936451Y-97604600D01*
X196435528Y-97604600D01*
X196355195Y-97620578D01*
X196355194Y-97620579D01*
X196264099Y-97681447D01*
X196264098Y-97681448D01*
X196203230Y-97772543D01*
X196187251Y-97852877D01*
X194273074Y-97852877D01*
X194252817Y-97822561D01*
X194252814Y-97822557D01*
X194120093Y-97689836D01*
X194120089Y-97689833D01*
X193964025Y-97585554D01*
X193964017Y-97585550D01*
X193790602Y-97513719D01*
X193606503Y-97477100D01*
X193418799Y-97477100D01*
X193326749Y-97495409D01*
X193234699Y-97513719D01*
X193061284Y-97585550D01*
X193061276Y-97585554D01*
X192905212Y-97689833D01*
X192905208Y-97689836D01*
X192772487Y-97822557D01*
X192772484Y-97822561D01*
X192668205Y-97978625D01*
X192668201Y-97978633D01*
X192596370Y-98152048D01*
X192559751Y-98336148D01*
X191440930Y-98336148D01*
X191440930Y-94203983D01*
X191444356Y-94195711D01*
X192194584Y-93445482D01*
X192202857Y-93442056D01*
X192320298Y-93442056D01*
X192320298Y-93442055D01*
X192378540Y-93426450D01*
X192436781Y-93410845D01*
X192436785Y-93410843D01*
X192471596Y-93390744D01*
X192541222Y-93350546D01*
X192626495Y-93265273D01*
X192686793Y-93160834D01*
X192687460Y-93158347D01*
X192718004Y-93044350D01*
X192718005Y-93044349D01*
X192718005Y-92923753D01*
X192718004Y-92923751D01*
X192686794Y-92807269D01*
X192686792Y-92807265D01*
X192626497Y-92702832D01*
X192626493Y-92702827D01*
X192541223Y-92617557D01*
X192541218Y-92617553D01*
X192436785Y-92557258D01*
X192436781Y-92557256D01*
X192320299Y-92526046D01*
X192320297Y-92526046D01*
X192199703Y-92526046D01*
X192199700Y-92526046D01*
X192083218Y-92557256D01*
X192083214Y-92557258D01*
X191978781Y-92617553D01*
X191978776Y-92617557D01*
X191893506Y-92702827D01*
X191893502Y-92702832D01*
X191833207Y-92807265D01*
X191833205Y-92807269D01*
X191801995Y-92923751D01*
X191801995Y-93041191D01*
X191798568Y-93049464D01*
X190936827Y-93911204D01*
X190899958Y-93975063D01*
X190880876Y-94046278D01*
X190880876Y-106812771D01*
X190894457Y-106863452D01*
X190897489Y-106874766D01*
X190899960Y-106883989D01*
X190936229Y-106946810D01*
X190936827Y-106947845D01*
X191353887Y-107364905D01*
X191357314Y-107373178D01*
X191356423Y-107377655D01*
X191290833Y-107536005D01*
X191274313Y-107619057D01*
X191252100Y-107730730D01*
X191252100Y-108019270D01*
X191289838Y-108208994D01*
X191290833Y-108213994D01*
X191366809Y-108397418D01*
X191366813Y-108397426D01*
X191477112Y-108562498D01*
X191477115Y-108562502D01*
X191617497Y-108702884D01*
X191617501Y-108702887D01*
X191782573Y-108813186D01*
X191782577Y-108813188D01*
X191782580Y-108813190D01*
X191858551Y-108844658D01*
X191873799Y-108850974D01*
X191880131Y-108857306D01*
X191880131Y-108866260D01*
X191873799Y-108872592D01*
X191869322Y-108873483D01*
X187434998Y-108873483D01*
X187426725Y-108870056D01*
X187423298Y-108861783D01*
X187425268Y-108855284D01*
X187429028Y-108849658D01*
X187437900Y-108805057D01*
X187437899Y-106974944D01*
X187437730Y-106974096D01*
X187429028Y-106930342D01*
X187429027Y-106930341D01*
X187422345Y-106920341D01*
X187395234Y-106879766D01*
X187389346Y-106875832D01*
X187344658Y-106845972D01*
X187344653Y-106845971D01*
X187300057Y-106837100D01*
X187300056Y-106837100D01*
X185559943Y-106837100D01*
X185515342Y-106845971D01*
X185515341Y-106845972D01*
X185464766Y-106879765D01*
X185464765Y-106879766D01*
X185430972Y-106930341D01*
X185422100Y-106974943D01*
X185422100Y-108737836D01*
X185418673Y-108746109D01*
X185410400Y-108749536D01*
X185402127Y-108746109D01*
X185056111Y-108400093D01*
X185052684Y-108391820D01*
X185053574Y-108387347D01*
X185119167Y-108228994D01*
X185157900Y-108034270D01*
X185157900Y-107745730D01*
X185119167Y-107551006D01*
X185043190Y-107367580D01*
X185043188Y-107367577D01*
X185043186Y-107367573D01*
X184932887Y-107202501D01*
X184932884Y-107202497D01*
X184792502Y-107062115D01*
X184792498Y-107062112D01*
X184627426Y-106951813D01*
X184627418Y-106951809D01*
X184443994Y-106875833D01*
X184412402Y-106869549D01*
X184249270Y-106837100D01*
X184050730Y-106837100D01*
X183993660Y-106848452D01*
X183856005Y-106875833D01*
X183672581Y-106951809D01*
X183672573Y-106951813D01*
X183507501Y-107062112D01*
X183507497Y-107062115D01*
X183367115Y-107202497D01*
X183367112Y-107202501D01*
X183256813Y-107367573D01*
X183256809Y-107367581D01*
X183180833Y-107551005D01*
X183154363Y-107684079D01*
X183142100Y-107745730D01*
X182877900Y-107745730D01*
X182839167Y-107551006D01*
X182763190Y-107367580D01*
X182763188Y-107367577D01*
X182763186Y-107367573D01*
X182652887Y-107202501D01*
X182652884Y-107202497D01*
X182512502Y-107062115D01*
X182512498Y-107062112D01*
X182347426Y-106951813D01*
X182347418Y-106951809D01*
X182163993Y-106875832D01*
X182159443Y-106874927D01*
X182151998Y-106869951D01*
X182150027Y-106863452D01*
X182150027Y-106456480D01*
X182153454Y-106448207D01*
X183099212Y-105502449D01*
X184051717Y-104549944D01*
X184088583Y-104486089D01*
X184093583Y-104467428D01*
X184107666Y-104414871D01*
X184107667Y-104414871D01*
X184107667Y-101316298D01*
X188297100Y-101316298D01*
X188297100Y-101523702D01*
X188303637Y-101556565D01*
X188337562Y-101727120D01*
X188416931Y-101918733D01*
X188416935Y-101918741D01*
X188532158Y-102091184D01*
X188532161Y-102091188D01*
X188678811Y-102237838D01*
X188678815Y-102237841D01*
X188851258Y-102353064D01*
X188851262Y-102353066D01*
X188851265Y-102353068D01*
X189042880Y-102432438D01*
X189246298Y-102472900D01*
X189246299Y-102472900D01*
X189453701Y-102472900D01*
X189453702Y-102472900D01*
X189657120Y-102432438D01*
X189848735Y-102353068D01*
X190021185Y-102237841D01*
X190167841Y-102091185D01*
X190283068Y-101918735D01*
X190362438Y-101727120D01*
X190402900Y-101523702D01*
X190402900Y-101316298D01*
X190362438Y-101112880D01*
X190283068Y-100921265D01*
X190283066Y-100921262D01*
X190283064Y-100921258D01*
X190167841Y-100748815D01*
X190167838Y-100748811D01*
X190021188Y-100602161D01*
X190021184Y-100602158D01*
X189848741Y-100486935D01*
X189848733Y-100486931D01*
X189657120Y-100407562D01*
X189453702Y-100367100D01*
X189246298Y-100367100D01*
X189181043Y-100380080D01*
X189042879Y-100407562D01*
X188851266Y-100486931D01*
X188851258Y-100486935D01*
X188678815Y-100602158D01*
X188678811Y-100602161D01*
X188532161Y-100748811D01*
X188532158Y-100748815D01*
X188416935Y-100921258D01*
X188416931Y-100921266D01*
X188337562Y-101112879D01*
X188304647Y-101278357D01*
X188297100Y-101316298D01*
X184107667Y-101316298D01*
X184107667Y-99478291D01*
X184157100Y-99478291D01*
X184157100Y-100641708D01*
X184172042Y-100736053D01*
X184172042Y-100736054D01*
X184172043Y-100736055D01*
X184229984Y-100849771D01*
X184320229Y-100940016D01*
X184433945Y-100997957D01*
X184481118Y-101005428D01*
X184528291Y-101012900D01*
X184528292Y-101012900D01*
X185691708Y-101012900D01*
X185786055Y-100997957D01*
X185899771Y-100940016D01*
X185990016Y-100849771D01*
X186047957Y-100736055D01*
X186062900Y-100641708D01*
X186062900Y-99478292D01*
X186047957Y-99383945D01*
X185990016Y-99270229D01*
X185899771Y-99179984D01*
X185786055Y-99122043D01*
X185786054Y-99122042D01*
X185786053Y-99122042D01*
X185691709Y-99107100D01*
X185691708Y-99107100D01*
X184528292Y-99107100D01*
X184528291Y-99107100D01*
X184433946Y-99122042D01*
X184320228Y-99179984D01*
X184229984Y-99270228D01*
X184172042Y-99383946D01*
X184157100Y-99478291D01*
X184107667Y-99478291D01*
X184107667Y-92628856D01*
X188424600Y-92628856D01*
X188424600Y-92811143D01*
X188460162Y-92989929D01*
X188529920Y-93158339D01*
X188529924Y-93158347D01*
X188631194Y-93309907D01*
X188631197Y-93309911D01*
X188641760Y-93320474D01*
X188944530Y-93017703D01*
X188949902Y-93027006D01*
X189042994Y-93120098D01*
X189052295Y-93125467D01*
X188749525Y-93428238D01*
X188760088Y-93438802D01*
X188760092Y-93438805D01*
X188911652Y-93540075D01*
X188911660Y-93540079D01*
X189080070Y-93609837D01*
X189258857Y-93645400D01*
X189441143Y-93645400D01*
X189619929Y-93609837D01*
X189788339Y-93540079D01*
X189788347Y-93540075D01*
X189939905Y-93438807D01*
X189950474Y-93428238D01*
X189950474Y-93428237D01*
X189647704Y-93125467D01*
X189657006Y-93120098D01*
X189750098Y-93027006D01*
X189755468Y-93017704D01*
X190058238Y-93320474D01*
X190068807Y-93309905D01*
X190170075Y-93158347D01*
X190170079Y-93158339D01*
X190239837Y-92989929D01*
X190275400Y-92811143D01*
X190275400Y-92628856D01*
X190239837Y-92450070D01*
X190170079Y-92281660D01*
X190170075Y-92281652D01*
X190068805Y-92130092D01*
X190068802Y-92130088D01*
X190058238Y-92119525D01*
X189755467Y-92422294D01*
X189750098Y-92412994D01*
X189657006Y-92319902D01*
X189647703Y-92314531D01*
X189950474Y-92011761D01*
X189950474Y-92011760D01*
X189939911Y-92001197D01*
X189939907Y-92001194D01*
X189788347Y-91899924D01*
X189788339Y-91899920D01*
X189619929Y-91830162D01*
X189441143Y-91794600D01*
X189258857Y-91794600D01*
X189080070Y-91830162D01*
X188911660Y-91899920D01*
X188911652Y-91899924D01*
X188760096Y-92001191D01*
X188749525Y-92011761D01*
X189052295Y-92314531D01*
X189042994Y-92319902D01*
X188949902Y-92412994D01*
X188944531Y-92422295D01*
X188641761Y-92119525D01*
X188631191Y-92130096D01*
X188529924Y-92281652D01*
X188529920Y-92281660D01*
X188460162Y-92450070D01*
X188424600Y-92628856D01*
X184107667Y-92628856D01*
X184107667Y-70030467D01*
X184111093Y-70022195D01*
X186579856Y-67553431D01*
X186588129Y-67550005D01*
X186705569Y-67550005D01*
X186705569Y-67550004D01*
X186763811Y-67534399D01*
X186822052Y-67518794D01*
X186822056Y-67518792D01*
X186856867Y-67498693D01*
X186926493Y-67458495D01*
X187011766Y-67373222D01*
X187072064Y-67268783D01*
X187103276Y-67152297D01*
X187103276Y-67142115D01*
X187106703Y-67133842D01*
X187114976Y-67130415D01*
X187123249Y-67133842D01*
X194435378Y-74445971D01*
X194438805Y-74454244D01*
X194438805Y-82881453D01*
X194457887Y-82952668D01*
X194457889Y-82952671D01*
X194494755Y-83016526D01*
X203360340Y-91882112D01*
X203360341Y-91882113D01*
X203360343Y-91882114D01*
X203396346Y-91902900D01*
X203396347Y-91902900D01*
X203424195Y-91918978D01*
X203424197Y-91918978D01*
X203424198Y-91918979D01*
X203424196Y-91918979D01*
X203480363Y-91934028D01*
X203495412Y-91938061D01*
X203495413Y-91938062D01*
X203495415Y-91938062D01*
X221008294Y-91938062D01*
X221016567Y-91941489D01*
X229681883Y-100606805D01*
X229685310Y-100615078D01*
X229685310Y-103440535D01*
X229701271Y-103500097D01*
X229704394Y-103511753D01*
X229741260Y-103575608D01*
X230438528Y-104272876D01*
X230438529Y-104272877D01*
X230438531Y-104272878D01*
X230476149Y-104294597D01*
X230480429Y-104298876D01*
X230498411Y-104330021D01*
X230583684Y-104415294D01*
X230583685Y-104415295D01*
X230583687Y-104415296D01*
X230688120Y-104475591D01*
X230688124Y-104475593D01*
X230779989Y-104500207D01*
X230804606Y-104506803D01*
X230804608Y-104506804D01*
X230804609Y-104506804D01*
X230925204Y-104506804D01*
X230925204Y-104506803D01*
X230983446Y-104491198D01*
X231041687Y-104475593D01*
X231041691Y-104475591D01*
X231084297Y-104450992D01*
X231146128Y-104415294D01*
X231231401Y-104330021D01*
X231280437Y-104245088D01*
X231291698Y-104225584D01*
X231291700Y-104225580D01*
X231316001Y-104134883D01*
X231322911Y-104109096D01*
X231322911Y-103991657D01*
X231326338Y-103983384D01*
X231505695Y-103804028D01*
X231513968Y-103800601D01*
X233944525Y-103800601D01*
X233952798Y-103804028D01*
X233955765Y-103810042D01*
X233955922Y-103810001D01*
X233987331Y-103927226D01*
X233987333Y-103927230D01*
X234047628Y-104031663D01*
X234047632Y-104031668D01*
X234130672Y-104114708D01*
X234134099Y-104122981D01*
X234134099Y-104450994D01*
X234144995Y-104491656D01*
X234150430Y-104511937D01*
X234153183Y-104522212D01*
X234190049Y-104586067D01*
X234190050Y-104586068D01*
X236973887Y-107369905D01*
X236977314Y-107378178D01*
X236976423Y-107382655D01*
X236910833Y-107541005D01*
X236900977Y-107590556D01*
X236872100Y-107735730D01*
X236872100Y-108024270D01*
X236895308Y-108140943D01*
X236910833Y-108218994D01*
X236986809Y-108402418D01*
X236986813Y-108402426D01*
X237097112Y-108567498D01*
X237097115Y-108567502D01*
X237237497Y-108707884D01*
X237237501Y-108707887D01*
X237402573Y-108818186D01*
X237402577Y-108818188D01*
X237402580Y-108818190D01*
X237586006Y-108894167D01*
X237780730Y-108932900D01*
X237780731Y-108932900D01*
X237979269Y-108932900D01*
X237979270Y-108932900D01*
X238173994Y-108894167D01*
X238357420Y-108818190D01*
X238522499Y-108707887D01*
X238662887Y-108567499D01*
X238773190Y-108402420D01*
X238849167Y-108218994D01*
X238887900Y-108024270D01*
X238887900Y-107735730D01*
X238849167Y-107541006D01*
X238773190Y-107357580D01*
X238773188Y-107357577D01*
X238773186Y-107357573D01*
X238662887Y-107192501D01*
X238662884Y-107192497D01*
X238522502Y-107052115D01*
X238522498Y-107052112D01*
X238357426Y-106941813D01*
X238357418Y-106941809D01*
X238173994Y-106865833D01*
X238144423Y-106859951D01*
X237979270Y-106827100D01*
X237780730Y-106827100D01*
X237730457Y-106837100D01*
X237586005Y-106865833D01*
X237402581Y-106941809D01*
X237402573Y-106941813D01*
X237371747Y-106962411D01*
X237362964Y-106964158D01*
X237356974Y-106960956D01*
X235633329Y-105237311D01*
X237871432Y-105237311D01*
X237871432Y-105357910D01*
X237902642Y-105474392D01*
X237902644Y-105474396D01*
X237962939Y-105578829D01*
X237962941Y-105578832D01*
X237962942Y-105578833D01*
X238048215Y-105664106D01*
X238048216Y-105664107D01*
X238048218Y-105664108D01*
X238152651Y-105724403D01*
X238152655Y-105724405D01*
X238244520Y-105749019D01*
X238269137Y-105755615D01*
X238269139Y-105755616D01*
X238269140Y-105755616D01*
X238389735Y-105755616D01*
X238389735Y-105755615D01*
X238447977Y-105740010D01*
X238506218Y-105724405D01*
X238506222Y-105724403D01*
X238562066Y-105692161D01*
X238610659Y-105664106D01*
X238693700Y-105581065D01*
X238701973Y-105577638D01*
X238980249Y-105577638D01*
X238988522Y-105581065D01*
X239876546Y-106469089D01*
X239879973Y-106477362D01*
X239879973Y-106815400D01*
X239876546Y-106823673D01*
X239868273Y-106827100D01*
X239289943Y-106827100D01*
X239245342Y-106835971D01*
X239245341Y-106835972D01*
X239194766Y-106869765D01*
X239194765Y-106869766D01*
X239160972Y-106920341D01*
X239152100Y-106964943D01*
X239152100Y-108795056D01*
X239160971Y-108839657D01*
X239160972Y-108839658D01*
X239188083Y-108880233D01*
X239194766Y-108890234D01*
X239245342Y-108924028D01*
X239289943Y-108932900D01*
X241030056Y-108932899D01*
X241074658Y-108924028D01*
X241125234Y-108890234D01*
X241159028Y-108839658D01*
X241167900Y-108795057D01*
X241167899Y-107740730D01*
X245682100Y-107740730D01*
X245682100Y-108029270D01*
X245704313Y-108140942D01*
X245720833Y-108223994D01*
X245796809Y-108407418D01*
X245796813Y-108407426D01*
X245907112Y-108572498D01*
X245907115Y-108572502D01*
X246047497Y-108712884D01*
X246047501Y-108712887D01*
X246212573Y-108823186D01*
X246212577Y-108823188D01*
X246212580Y-108823190D01*
X246396006Y-108899167D01*
X246590730Y-108937900D01*
X246590731Y-108937900D01*
X246789269Y-108937900D01*
X246789270Y-108937900D01*
X246983994Y-108899167D01*
X247167420Y-108823190D01*
X247332499Y-108712887D01*
X247472887Y-108572499D01*
X247583190Y-108407420D01*
X247659167Y-108223994D01*
X247697900Y-108029270D01*
X247697900Y-107740730D01*
X247962100Y-107740730D01*
X247962100Y-108029270D01*
X247984313Y-108140942D01*
X248000833Y-108223994D01*
X248076809Y-108407418D01*
X248076813Y-108407426D01*
X248187112Y-108572498D01*
X248187115Y-108572502D01*
X248327497Y-108712884D01*
X248327501Y-108712887D01*
X248492573Y-108823186D01*
X248492577Y-108823188D01*
X248492580Y-108823190D01*
X248676006Y-108899167D01*
X248870730Y-108937900D01*
X248870731Y-108937900D01*
X249069269Y-108937900D01*
X249069270Y-108937900D01*
X249263994Y-108899167D01*
X249447420Y-108823190D01*
X249612499Y-108712887D01*
X249752887Y-108572499D01*
X249863190Y-108407420D01*
X249939167Y-108223994D01*
X249977900Y-108029270D01*
X249977900Y-107740730D01*
X249939167Y-107546006D01*
X249863190Y-107362580D01*
X249863188Y-107362577D01*
X249863186Y-107362573D01*
X249752887Y-107197501D01*
X249752884Y-107197497D01*
X249612502Y-107057115D01*
X249612498Y-107057112D01*
X249447426Y-106946813D01*
X249447418Y-106946809D01*
X249263994Y-106870833D01*
X249238852Y-106865832D01*
X249069270Y-106832100D01*
X248870730Y-106832100D01*
X248813660Y-106843452D01*
X248676005Y-106870833D01*
X248492581Y-106946809D01*
X248492573Y-106946813D01*
X248327501Y-107057112D01*
X248327497Y-107057115D01*
X248187115Y-107197497D01*
X248187112Y-107197501D01*
X248076813Y-107362573D01*
X248076809Y-107362581D01*
X248000833Y-107546005D01*
X247990098Y-107599973D01*
X247962100Y-107740730D01*
X247697900Y-107740730D01*
X247659167Y-107546006D01*
X247583190Y-107362580D01*
X247583188Y-107362577D01*
X247583186Y-107362573D01*
X247472887Y-107197501D01*
X247472884Y-107197497D01*
X247332502Y-107057115D01*
X247332498Y-107057112D01*
X247167426Y-106946813D01*
X247167418Y-106946809D01*
X246983994Y-106870833D01*
X246958852Y-106865832D01*
X246789270Y-106832100D01*
X246590730Y-106832100D01*
X246533660Y-106843452D01*
X246396005Y-106870833D01*
X246212581Y-106946809D01*
X246212573Y-106946813D01*
X246047501Y-107057112D01*
X246047497Y-107057115D01*
X245907115Y-107197497D01*
X245907112Y-107197501D01*
X245796813Y-107362573D01*
X245796809Y-107362581D01*
X245720833Y-107546005D01*
X245710098Y-107599973D01*
X245682100Y-107740730D01*
X241167899Y-107740730D01*
X241167899Y-106964944D01*
X241166904Y-106959943D01*
X241159028Y-106920342D01*
X241159027Y-106920341D01*
X241152345Y-106910341D01*
X241125234Y-106869766D01*
X241124909Y-106869549D01*
X241074658Y-106835972D01*
X241074653Y-106835971D01*
X241030057Y-106827100D01*
X241030056Y-106827100D01*
X240451727Y-106827100D01*
X240443454Y-106823673D01*
X240440027Y-106815400D01*
X240440027Y-106319656D01*
X240420944Y-106248441D01*
X240408887Y-106227557D01*
X240384078Y-106184585D01*
X239273027Y-105073534D01*
X239209172Y-105036668D01*
X239209171Y-105036667D01*
X239209168Y-105036666D01*
X239209170Y-105036666D01*
X239137955Y-105017584D01*
X239137952Y-105017584D01*
X238701973Y-105017584D01*
X238693700Y-105014157D01*
X238610660Y-104931117D01*
X238610655Y-104931113D01*
X238506222Y-104870818D01*
X238506218Y-104870816D01*
X238389736Y-104839606D01*
X238389734Y-104839606D01*
X238269140Y-104839606D01*
X238269137Y-104839606D01*
X238152655Y-104870816D01*
X238152651Y-104870818D01*
X238048218Y-104931113D01*
X238048213Y-104931117D01*
X237962943Y-105016387D01*
X237962939Y-105016392D01*
X237902644Y-105120825D01*
X237902642Y-105120829D01*
X237871432Y-105237311D01*
X235633329Y-105237311D01*
X234697580Y-104301562D01*
X234694153Y-104293289D01*
X234694153Y-104122981D01*
X234697580Y-104114708D01*
X234730960Y-104081328D01*
X234780621Y-104031667D01*
X234840919Y-103927228D01*
X234872131Y-103810742D01*
X234872131Y-103690148D01*
X234853872Y-103622004D01*
X234840920Y-103573663D01*
X234840918Y-103573659D01*
X234780623Y-103469226D01*
X234780619Y-103469221D01*
X234695349Y-103383951D01*
X234695344Y-103383947D01*
X234590911Y-103323652D01*
X234590907Y-103323650D01*
X234474425Y-103292440D01*
X234474423Y-103292440D01*
X234353829Y-103292440D01*
X234353063Y-103292440D01*
X234353063Y-103292240D01*
X234346596Y-103290954D01*
X234341552Y-103288042D01*
X234292341Y-103259631D01*
X234292340Y-103259630D01*
X234292337Y-103259629D01*
X234292339Y-103259629D01*
X234221124Y-103240547D01*
X234221121Y-103240547D01*
X231356265Y-103240547D01*
X231356262Y-103240547D01*
X231285047Y-103259629D01*
X231221188Y-103296498D01*
X230930319Y-103587367D01*
X230922046Y-103590794D01*
X230804606Y-103590794D01*
X230688125Y-103622004D01*
X230627155Y-103657204D01*
X230618277Y-103658372D01*
X230613032Y-103655344D01*
X230248791Y-103291103D01*
X230245364Y-103282830D01*
X230245364Y-100457372D01*
X230226281Y-100386157D01*
X230225004Y-100383945D01*
X230189414Y-100322300D01*
X221412585Y-91545471D01*
X221409158Y-91537198D01*
X221409158Y-91101394D01*
X222677100Y-91101394D01*
X222677100Y-91298605D01*
X222707949Y-91493380D01*
X222707953Y-91493396D01*
X222768888Y-91680938D01*
X222768890Y-91680942D01*
X222768892Y-91680947D01*
X222826801Y-91794600D01*
X222858427Y-91856669D01*
X222974334Y-92016199D01*
X222974338Y-92016203D01*
X222974342Y-92016209D01*
X223113791Y-92155658D01*
X223113796Y-92155662D01*
X223113800Y-92155665D01*
X223273330Y-92271572D01*
X223273335Y-92271574D01*
X223273337Y-92271576D01*
X223449053Y-92361108D01*
X223449058Y-92361109D01*
X223449061Y-92361111D01*
X223606783Y-92412357D01*
X223636612Y-92422049D01*
X223715891Y-92434605D01*
X223831394Y-92452900D01*
X223831395Y-92452900D01*
X224028605Y-92452900D01*
X224223388Y-92422049D01*
X224410947Y-92361108D01*
X224586663Y-92271576D01*
X224610750Y-92254076D01*
X224746199Y-92155665D01*
X224746209Y-92155658D01*
X224885658Y-92016209D01*
X225001576Y-91856663D01*
X225091108Y-91680947D01*
X225152049Y-91493388D01*
X225182900Y-91298605D01*
X225182900Y-91101395D01*
X225152049Y-90906612D01*
X225091108Y-90719053D01*
X225001576Y-90543337D01*
X225001574Y-90543335D01*
X225001572Y-90543330D01*
X224885665Y-90383800D01*
X224885662Y-90383796D01*
X224885658Y-90383791D01*
X224840157Y-90338290D01*
X225987100Y-90338290D01*
X225987100Y-92101708D01*
X226002042Y-92196054D01*
X226002042Y-92196055D01*
X226002043Y-92196056D01*
X226059984Y-92309771D01*
X226150229Y-92400016D01*
X226263944Y-92457957D01*
X226358291Y-92472900D01*
X228121708Y-92472899D01*
X228216056Y-92457957D01*
X228329771Y-92400016D01*
X228420016Y-92309771D01*
X228477957Y-92196056D01*
X228492900Y-92101709D01*
X228492899Y-90338292D01*
X228477957Y-90243944D01*
X228420016Y-90130229D01*
X228329771Y-90039984D01*
X228216056Y-89982043D01*
X228216055Y-89982042D01*
X228216054Y-89982042D01*
X228121709Y-89967100D01*
X226358291Y-89967100D01*
X226263945Y-89982042D01*
X226150228Y-90039984D01*
X226059984Y-90130228D01*
X226002042Y-90243945D01*
X225987100Y-90338290D01*
X224840157Y-90338290D01*
X224746209Y-90244342D01*
X224746203Y-90244338D01*
X224746199Y-90244334D01*
X224586669Y-90128427D01*
X224570060Y-90119964D01*
X224410947Y-90038892D01*
X224410944Y-90038891D01*
X224410942Y-90038890D01*
X224410938Y-90038888D01*
X224223396Y-89977953D01*
X224223380Y-89977949D01*
X224028606Y-89947100D01*
X224028605Y-89947100D01*
X223831395Y-89947100D01*
X223831394Y-89947100D01*
X223636619Y-89977949D01*
X223636603Y-89977953D01*
X223449061Y-90038888D01*
X223449057Y-90038890D01*
X223273330Y-90128427D01*
X223113800Y-90244334D01*
X223113784Y-90244348D01*
X222974348Y-90383784D01*
X222974334Y-90383800D01*
X222858427Y-90543330D01*
X222768890Y-90719057D01*
X222768888Y-90719061D01*
X222707953Y-90906603D01*
X222707949Y-90906619D01*
X222677100Y-91101394D01*
X221409158Y-91101394D01*
X221409158Y-89120439D01*
X221412584Y-89112167D01*
X222183356Y-88341394D01*
X225997100Y-88341394D01*
X225997100Y-88538605D01*
X226027949Y-88733380D01*
X226027953Y-88733396D01*
X226088888Y-88920938D01*
X226088890Y-88920942D01*
X226088892Y-88920947D01*
X226169964Y-89080060D01*
X226178427Y-89096669D01*
X226294334Y-89256199D01*
X226294338Y-89256203D01*
X226294342Y-89256209D01*
X226433791Y-89395658D01*
X226433796Y-89395662D01*
X226433800Y-89395665D01*
X226593330Y-89511572D01*
X226593335Y-89511574D01*
X226593337Y-89511576D01*
X226769053Y-89601108D01*
X226769058Y-89601109D01*
X226769061Y-89601111D01*
X226926783Y-89652357D01*
X226956612Y-89662049D01*
X227035891Y-89674605D01*
X227151394Y-89692900D01*
X227151395Y-89692900D01*
X227348605Y-89692900D01*
X227543388Y-89662049D01*
X227730947Y-89601108D01*
X227906663Y-89511576D01*
X228066209Y-89395658D01*
X228205658Y-89256209D01*
X228307822Y-89115594D01*
X228321572Y-89096669D01*
X228321572Y-89096667D01*
X228321576Y-89096663D01*
X228411108Y-88920947D01*
X228472049Y-88733388D01*
X228502900Y-88538605D01*
X228502900Y-88355265D01*
X240359913Y-88355265D01*
X240359913Y-88475864D01*
X240391123Y-88592346D01*
X240391125Y-88592350D01*
X240451420Y-88696783D01*
X240451424Y-88696788D01*
X240534464Y-88779828D01*
X240537891Y-88788101D01*
X240537891Y-103171146D01*
X240556420Y-103240296D01*
X240556973Y-103242359D01*
X240556974Y-103242361D01*
X240556975Y-103242364D01*
X240588229Y-103296498D01*
X240593842Y-103306220D01*
X240876744Y-103589122D01*
X240880171Y-103597395D01*
X240880171Y-103714835D01*
X240911381Y-103831317D01*
X240911383Y-103831321D01*
X240971678Y-103935754D01*
X240971680Y-103935757D01*
X240971681Y-103935758D01*
X241056954Y-104021031D01*
X241056955Y-104021032D01*
X241056957Y-104021033D01*
X241161390Y-104081328D01*
X241161394Y-104081330D01*
X241253259Y-104105944D01*
X241277876Y-104112540D01*
X241277878Y-104112541D01*
X241277879Y-104112541D01*
X241398474Y-104112541D01*
X241398474Y-104112540D01*
X241456716Y-104096935D01*
X241514957Y-104081330D01*
X241514961Y-104081328D01*
X241600976Y-104031667D01*
X241619398Y-104021031D01*
X241702439Y-103937990D01*
X241710712Y-103934563D01*
X248447637Y-103934563D01*
X248455910Y-103937990D01*
X250966546Y-106448626D01*
X250969973Y-106456899D01*
X250969973Y-106820400D01*
X250966546Y-106828673D01*
X250958273Y-106832100D01*
X250379943Y-106832100D01*
X250335342Y-106840971D01*
X250335341Y-106840972D01*
X250284766Y-106874765D01*
X250284765Y-106874766D01*
X250250972Y-106925341D01*
X250242100Y-106969943D01*
X250242100Y-108800056D01*
X250250971Y-108844657D01*
X250250972Y-108844658D01*
X250277370Y-108884166D01*
X250284766Y-108895234D01*
X250335342Y-108929028D01*
X250379943Y-108937900D01*
X252120056Y-108937899D01*
X252164658Y-108929028D01*
X252215234Y-108895234D01*
X252249028Y-108844658D01*
X252257900Y-108800057D01*
X252257899Y-106969944D01*
X252256904Y-106964943D01*
X252249028Y-106925342D01*
X252249027Y-106925341D01*
X252242345Y-106915341D01*
X252215234Y-106874766D01*
X252212555Y-106872976D01*
X252164658Y-106840972D01*
X252164653Y-106840971D01*
X252120057Y-106832100D01*
X252120056Y-106832100D01*
X251541727Y-106832100D01*
X251533454Y-106828673D01*
X251530027Y-106820400D01*
X251530027Y-106299193D01*
X251513902Y-106239018D01*
X251510943Y-106227976D01*
X251510942Y-106227972D01*
X251474079Y-106164124D01*
X251474075Y-106164119D01*
X248740416Y-103430460D01*
X248740415Y-103430459D01*
X248676560Y-103393593D01*
X248676559Y-103393592D01*
X248676556Y-103393591D01*
X248676558Y-103393591D01*
X248605343Y-103374509D01*
X248605340Y-103374509D01*
X241710712Y-103374509D01*
X241702439Y-103371082D01*
X241619399Y-103288042D01*
X241619394Y-103288038D01*
X241514961Y-103227743D01*
X241514957Y-103227741D01*
X241398475Y-103196531D01*
X241398473Y-103196531D01*
X241281035Y-103196531D01*
X241272762Y-103193104D01*
X241101372Y-103021714D01*
X241097945Y-103013441D01*
X241097945Y-88788101D01*
X241101372Y-88779828D01*
X241184413Y-88696787D01*
X241244711Y-88592348D01*
X241275923Y-88475862D01*
X241275923Y-88355268D01*
X241249217Y-88255597D01*
X241244712Y-88238783D01*
X241244710Y-88238779D01*
X241184415Y-88134346D01*
X241184411Y-88134341D01*
X241099141Y-88049071D01*
X241099136Y-88049067D01*
X240994703Y-87988772D01*
X240994699Y-87988770D01*
X240878217Y-87957560D01*
X240878215Y-87957560D01*
X240757621Y-87957560D01*
X240757618Y-87957560D01*
X240641136Y-87988770D01*
X240641132Y-87988772D01*
X240536699Y-88049067D01*
X240536694Y-88049071D01*
X240451424Y-88134341D01*
X240451420Y-88134346D01*
X240391125Y-88238779D01*
X240391123Y-88238783D01*
X240359913Y-88355265D01*
X228502900Y-88355265D01*
X228502900Y-88341395D01*
X228486647Y-88238782D01*
X228472050Y-88146619D01*
X228472049Y-88146612D01*
X228440355Y-88049067D01*
X228411111Y-87959061D01*
X228411109Y-87959057D01*
X228411108Y-87959053D01*
X228321576Y-87783337D01*
X228321574Y-87783335D01*
X228321572Y-87783330D01*
X228205665Y-87623800D01*
X228205662Y-87623796D01*
X228205658Y-87623791D01*
X228066209Y-87484342D01*
X228066203Y-87484338D01*
X228066199Y-87484334D01*
X227906669Y-87368427D01*
X227821615Y-87325090D01*
X227730947Y-87278892D01*
X227730944Y-87278891D01*
X227730942Y-87278890D01*
X227730938Y-87278888D01*
X227543396Y-87217953D01*
X227543380Y-87217949D01*
X227348606Y-87187100D01*
X227348605Y-87187100D01*
X227151395Y-87187100D01*
X227151394Y-87187100D01*
X226956619Y-87217949D01*
X226956603Y-87217953D01*
X226769061Y-87278888D01*
X226769057Y-87278890D01*
X226593330Y-87368427D01*
X226433800Y-87484334D01*
X226433784Y-87484348D01*
X226294348Y-87623784D01*
X226294334Y-87623800D01*
X226178427Y-87783330D01*
X226088890Y-87959057D01*
X226088888Y-87959061D01*
X226027953Y-88146603D01*
X226027949Y-88146619D01*
X225997100Y-88341394D01*
X222183356Y-88341394D01*
X222677931Y-87846819D01*
X222686204Y-87843393D01*
X222803644Y-87843393D01*
X222803644Y-87843392D01*
X222861886Y-87827787D01*
X222920127Y-87812182D01*
X222920131Y-87812180D01*
X222970100Y-87783330D01*
X223024568Y-87751883D01*
X223109841Y-87666610D01*
X223170139Y-87562171D01*
X223183199Y-87513432D01*
X223190995Y-87484334D01*
X223201351Y-87445685D01*
X223201351Y-87325091D01*
X223172644Y-87217953D01*
X223170140Y-87208606D01*
X223170138Y-87208602D01*
X223109843Y-87104169D01*
X223109839Y-87104164D01*
X223024569Y-87018894D01*
X223024564Y-87018890D01*
X222920131Y-86958595D01*
X222920127Y-86958593D01*
X222803645Y-86927383D01*
X222803643Y-86927383D01*
X222683049Y-86927383D01*
X222683046Y-86927383D01*
X222566564Y-86958593D01*
X222566560Y-86958595D01*
X222462127Y-87018890D01*
X222462122Y-87018894D01*
X222376852Y-87104164D01*
X222376848Y-87104169D01*
X222316553Y-87208602D01*
X222316551Y-87208606D01*
X222285341Y-87325088D01*
X222285341Y-87442528D01*
X222281914Y-87450801D01*
X220905055Y-88827660D01*
X220878550Y-88873570D01*
X220868186Y-88891519D01*
X220849104Y-88962734D01*
X220849104Y-91366308D01*
X220845677Y-91374581D01*
X220837404Y-91378008D01*
X203653118Y-91378008D01*
X203644845Y-91374581D01*
X195002286Y-82732021D01*
X194998859Y-82723748D01*
X194998859Y-82137698D01*
X227398901Y-82137698D01*
X227398901Y-82258295D01*
X227430111Y-82374779D01*
X227430113Y-82374783D01*
X227490408Y-82479216D01*
X227490410Y-82479219D01*
X227490411Y-82479220D01*
X227575684Y-82564493D01*
X227575685Y-82564494D01*
X227575687Y-82564495D01*
X227680120Y-82624790D01*
X227680124Y-82624792D01*
X227771989Y-82649406D01*
X227796606Y-82656002D01*
X227796608Y-82656003D01*
X227796609Y-82656003D01*
X227917204Y-82656003D01*
X227917204Y-82656002D01*
X227975446Y-82640397D01*
X228033687Y-82624792D01*
X228033691Y-82624790D01*
X228061924Y-82608489D01*
X228100360Y-82586298D01*
X252987100Y-82586298D01*
X252987100Y-82793701D01*
X253027562Y-82997120D01*
X253106931Y-83188733D01*
X253106935Y-83188741D01*
X253222158Y-83361184D01*
X253222161Y-83361188D01*
X253368811Y-83507838D01*
X253368815Y-83507841D01*
X253541258Y-83623064D01*
X253541262Y-83623066D01*
X253541265Y-83623068D01*
X253732880Y-83702438D01*
X253936298Y-83742900D01*
X253936299Y-83742900D01*
X254143701Y-83742900D01*
X254143702Y-83742900D01*
X254347120Y-83702438D01*
X254538735Y-83623068D01*
X254711185Y-83507841D01*
X254857841Y-83361185D01*
X254973068Y-83188735D01*
X255052438Y-82997120D01*
X255092900Y-82793702D01*
X255092900Y-82586298D01*
X255052438Y-82382880D01*
X254973068Y-82191265D01*
X254973066Y-82191262D01*
X254973064Y-82191258D01*
X254857841Y-82018815D01*
X254857838Y-82018811D01*
X254711188Y-81872161D01*
X254711184Y-81872158D01*
X254538741Y-81756935D01*
X254538733Y-81756931D01*
X254347120Y-81677562D01*
X254143702Y-81637100D01*
X253936298Y-81637100D01*
X253834589Y-81657331D01*
X253732879Y-81677562D01*
X253541266Y-81756931D01*
X253541258Y-81756935D01*
X253368815Y-81872158D01*
X253368811Y-81872161D01*
X253222161Y-82018811D01*
X253222158Y-82018815D01*
X253106935Y-82191258D01*
X253106931Y-82191266D01*
X253027562Y-82382879D01*
X252987100Y-82586298D01*
X228100360Y-82586298D01*
X228138128Y-82564493D01*
X228223401Y-82479220D01*
X228283699Y-82374781D01*
X228293039Y-82339926D01*
X228314911Y-82258295D01*
X228314911Y-82140856D01*
X228318338Y-82132583D01*
X232932065Y-77518856D01*
X253114600Y-77518856D01*
X253114600Y-77701143D01*
X253150162Y-77879929D01*
X253219920Y-78048339D01*
X253219924Y-78048347D01*
X253321194Y-78199907D01*
X253321197Y-78199911D01*
X253331760Y-78210474D01*
X253561853Y-77980380D01*
X253669618Y-78088145D01*
X253439525Y-78318238D01*
X253450088Y-78328802D01*
X253450092Y-78328805D01*
X253601652Y-78430075D01*
X253601660Y-78430079D01*
X253770070Y-78499837D01*
X253948857Y-78535400D01*
X254131143Y-78535400D01*
X254309929Y-78499837D01*
X254478339Y-78430079D01*
X254478347Y-78430075D01*
X254629905Y-78328807D01*
X254640474Y-78318238D01*
X254640474Y-78318237D01*
X254410382Y-78088145D01*
X254518145Y-77980381D01*
X254748238Y-78210474D01*
X254758807Y-78199905D01*
X254860075Y-78048347D01*
X254860079Y-78048339D01*
X254929837Y-77879929D01*
X254965400Y-77701143D01*
X254965400Y-77518856D01*
X254929837Y-77340070D01*
X254860079Y-77171660D01*
X254860075Y-77171652D01*
X254758805Y-77020092D01*
X254758802Y-77020088D01*
X254748238Y-77009525D01*
X254518144Y-77239617D01*
X254410380Y-77131853D01*
X254640474Y-76901761D01*
X254640474Y-76901760D01*
X254629911Y-76891197D01*
X254629907Y-76891194D01*
X254478347Y-76789924D01*
X254478339Y-76789920D01*
X254309929Y-76720162D01*
X254131143Y-76684600D01*
X253948857Y-76684600D01*
X253770070Y-76720162D01*
X253601660Y-76789920D01*
X253601652Y-76789924D01*
X253450096Y-76891191D01*
X253439525Y-76901761D01*
X253669618Y-77131854D01*
X253561854Y-77239618D01*
X253331761Y-77009525D01*
X253321191Y-77020096D01*
X253219924Y-77171652D01*
X253219920Y-77171660D01*
X253150162Y-77340070D01*
X253114600Y-77518856D01*
X232932065Y-77518856D01*
X233562280Y-76888641D01*
X233729229Y-76721693D01*
X238157399Y-72293523D01*
X254727100Y-72293523D01*
X254727100Y-72506476D01*
X254760411Y-72716797D01*
X254760414Y-72716809D01*
X254806723Y-72859333D01*
X254826219Y-72919333D01*
X254913762Y-73091147D01*
X254922900Y-73109080D01*
X255048058Y-73281345D01*
X255048062Y-73281349D01*
X255048066Y-73281355D01*
X255198645Y-73431934D01*
X255198650Y-73431938D01*
X255198654Y-73431941D01*
X255370919Y-73557099D01*
X255370924Y-73557101D01*
X255370926Y-73557103D01*
X255560667Y-73653781D01*
X255763195Y-73719587D01*
X255848798Y-73733145D01*
X255973523Y-73752900D01*
X255973524Y-73752900D01*
X256186476Y-73752900D01*
X256396805Y-73719587D01*
X256599333Y-73653781D01*
X256789074Y-73557103D01*
X256961355Y-73431934D01*
X257111934Y-73281355D01*
X257237103Y-73109074D01*
X257333781Y-72919333D01*
X257399587Y-72716805D01*
X257432900Y-72506476D01*
X257432900Y-72293524D01*
X257399587Y-72083195D01*
X257333781Y-71880667D01*
X257237103Y-71690926D01*
X257237101Y-71690924D01*
X257237099Y-71690919D01*
X257111941Y-71518654D01*
X257111938Y-71518650D01*
X257111934Y-71518645D01*
X256961355Y-71368066D01*
X256961349Y-71368062D01*
X256961345Y-71368058D01*
X256789080Y-71242900D01*
X256771147Y-71233762D01*
X256599333Y-71146219D01*
X256599330Y-71146218D01*
X256599328Y-71146217D01*
X256396809Y-71080414D01*
X256396797Y-71080411D01*
X256186477Y-71047100D01*
X256186476Y-71047100D01*
X255973524Y-71047100D01*
X255973523Y-71047100D01*
X255763202Y-71080411D01*
X255763190Y-71080414D01*
X255560671Y-71146217D01*
X255370919Y-71242900D01*
X255198654Y-71368058D01*
X255198638Y-71368072D01*
X255048072Y-71518638D01*
X255048058Y-71518654D01*
X254922900Y-71690919D01*
X254826217Y-71880671D01*
X254760414Y-72083190D01*
X254760411Y-72083202D01*
X254727100Y-72293523D01*
X238157399Y-72293523D01*
X249884078Y-60566845D01*
X249920943Y-60502991D01*
X249940026Y-60431773D01*
X249940027Y-60431773D01*
X249940027Y-46893523D01*
X254727100Y-46893523D01*
X254727100Y-47106476D01*
X254760411Y-47316797D01*
X254760414Y-47316809D01*
X254806723Y-47459333D01*
X254826219Y-47519333D01*
X254913762Y-47691147D01*
X254922900Y-47709080D01*
X255048058Y-47881345D01*
X255048062Y-47881349D01*
X255048066Y-47881355D01*
X255198645Y-48031934D01*
X255198650Y-48031938D01*
X255198654Y-48031941D01*
X255370919Y-48157099D01*
X255370924Y-48157101D01*
X255370926Y-48157103D01*
X255560667Y-48253781D01*
X255763195Y-48319587D01*
X255848798Y-48333145D01*
X255973523Y-48352900D01*
X255973524Y-48352900D01*
X256186476Y-48352900D01*
X256396805Y-48319587D01*
X256599333Y-48253781D01*
X256789074Y-48157103D01*
X256961355Y-48031934D01*
X257111934Y-47881355D01*
X257237103Y-47709074D01*
X257333781Y-47519333D01*
X257399587Y-47316805D01*
X257432900Y-47106476D01*
X257432900Y-46893524D01*
X257429633Y-46872900D01*
X257399588Y-46683202D01*
X257399587Y-46683195D01*
X257333781Y-46480667D01*
X257237103Y-46290926D01*
X257237101Y-46290924D01*
X257237099Y-46290919D01*
X257111941Y-46118654D01*
X257111938Y-46118650D01*
X257111934Y-46118645D01*
X256961355Y-45968066D01*
X256961349Y-45968062D01*
X256961345Y-45968058D01*
X256789080Y-45842900D01*
X256671323Y-45782900D01*
X256599333Y-45746219D01*
X256599330Y-45746218D01*
X256599328Y-45746217D01*
X256396809Y-45680414D01*
X256396797Y-45680411D01*
X256186477Y-45647100D01*
X256186476Y-45647100D01*
X255973524Y-45647100D01*
X255973523Y-45647100D01*
X255763202Y-45680411D01*
X255763190Y-45680414D01*
X255560671Y-45746217D01*
X255370919Y-45842900D01*
X255198654Y-45968058D01*
X255198638Y-45968072D01*
X255048072Y-46118638D01*
X255048058Y-46118654D01*
X254922900Y-46290919D01*
X254826217Y-46480671D01*
X254760414Y-46683190D01*
X254760411Y-46683202D01*
X254727100Y-46893523D01*
X249940027Y-46893523D01*
X249940027Y-44752713D01*
X249943454Y-44744440D01*
X249950197Y-44741114D01*
X250032034Y-44730341D01*
X250272980Y-44665780D01*
X250503437Y-44570321D01*
X250719463Y-44445598D01*
X250917361Y-44293746D01*
X251093746Y-44117361D01*
X251245598Y-43919463D01*
X251370321Y-43703437D01*
X251465780Y-43472980D01*
X251530341Y-43232034D01*
X251562900Y-42984723D01*
X251562900Y-42735277D01*
X253217100Y-42735277D01*
X253217100Y-42984722D01*
X253249658Y-43232032D01*
X253314219Y-43472978D01*
X253314223Y-43472989D01*
X253409676Y-43703432D01*
X253409679Y-43703437D01*
X253534394Y-43919451D01*
X253534402Y-43919463D01*
X253686254Y-44117361D01*
X253862639Y-44293746D01*
X254060537Y-44445598D01*
X254060540Y-44445600D01*
X254060548Y-44445605D01*
X254191378Y-44521139D01*
X254276563Y-44570321D01*
X254276565Y-44570321D01*
X254276567Y-44570323D01*
X254492240Y-44659658D01*
X254507020Y-44665780D01*
X254747966Y-44730341D01*
X254995277Y-44762900D01*
X255244723Y-44762900D01*
X255492034Y-44730341D01*
X255732980Y-44665780D01*
X255963437Y-44570321D01*
X256179463Y-44445598D01*
X256377361Y-44293746D01*
X256553746Y-44117361D01*
X256705598Y-43919463D01*
X256830321Y-43703437D01*
X256925780Y-43472980D01*
X256990341Y-43232034D01*
X257022900Y-42984723D01*
X257022900Y-42735277D01*
X256990341Y-42487966D01*
X256925780Y-42247020D01*
X256830321Y-42016563D01*
X256781139Y-41931378D01*
X256705605Y-41800548D01*
X256705597Y-41800536D01*
X256697933Y-41790548D01*
X256553746Y-41602639D01*
X256377361Y-41426254D01*
X256179463Y-41274402D01*
X256179451Y-41274394D01*
X255963437Y-41149679D01*
X255963432Y-41149676D01*
X255732989Y-41054223D01*
X255732978Y-41054219D01*
X255492032Y-40989658D01*
X255244723Y-40957100D01*
X254995277Y-40957100D01*
X254747967Y-40989658D01*
X254507021Y-41054219D01*
X254507010Y-41054223D01*
X254276567Y-41149676D01*
X254276562Y-41149679D01*
X254060548Y-41274394D01*
X254060536Y-41274402D01*
X253862640Y-41426253D01*
X253862633Y-41426259D01*
X253686259Y-41602633D01*
X253686253Y-41602640D01*
X253534402Y-41800536D01*
X253534394Y-41800548D01*
X253409679Y-42016562D01*
X253409676Y-42016567D01*
X253314223Y-42247010D01*
X253314219Y-42247021D01*
X253249658Y-42487967D01*
X253217100Y-42735277D01*
X251562900Y-42735277D01*
X251530341Y-42487966D01*
X251465780Y-42247020D01*
X251370321Y-42016563D01*
X251321139Y-41931378D01*
X251245605Y-41800548D01*
X251245597Y-41800536D01*
X251237933Y-41790548D01*
X251093746Y-41602639D01*
X250917361Y-41426254D01*
X250719463Y-41274402D01*
X250719451Y-41274394D01*
X250503437Y-41149679D01*
X250503432Y-41149676D01*
X250272989Y-41054223D01*
X250272978Y-41054219D01*
X250032032Y-40989658D01*
X249784723Y-40957100D01*
X249535277Y-40957100D01*
X249287967Y-40989658D01*
X249047021Y-41054219D01*
X249047010Y-41054223D01*
X248816567Y-41149676D01*
X248816562Y-41149679D01*
X248600548Y-41274394D01*
X248600536Y-41274402D01*
X248402640Y-41426253D01*
X248402633Y-41426259D01*
X248226259Y-41602633D01*
X248226253Y-41602640D01*
X248074402Y-41800536D01*
X248074394Y-41800548D01*
X247949679Y-42016562D01*
X247949676Y-42016567D01*
X247854223Y-42247010D01*
X247854219Y-42247021D01*
X247789658Y-42487967D01*
X247757100Y-42735277D01*
X247757100Y-42984722D01*
X247789658Y-43232032D01*
X247854219Y-43472978D01*
X247854223Y-43472989D01*
X247949676Y-43703432D01*
X247949679Y-43703437D01*
X248074394Y-43919451D01*
X248074402Y-43919463D01*
X248226254Y-44117361D01*
X248402639Y-44293746D01*
X248600537Y-44445598D01*
X248600540Y-44445600D01*
X248600548Y-44445605D01*
X248731378Y-44521139D01*
X248816563Y-44570321D01*
X248816565Y-44570321D01*
X248816567Y-44570323D01*
X249032240Y-44659658D01*
X249047020Y-44665780D01*
X249287966Y-44730341D01*
X249369801Y-44741114D01*
X249377555Y-44745590D01*
X249379973Y-44752713D01*
X249379973Y-60274066D01*
X249376546Y-60282339D01*
X227922319Y-81736566D01*
X227914046Y-81739993D01*
X227796606Y-81739993D01*
X227680124Y-81771203D01*
X227680120Y-81771205D01*
X227575687Y-81831500D01*
X227575682Y-81831504D01*
X227490412Y-81916774D01*
X227490408Y-81916779D01*
X227430113Y-82021212D01*
X227430111Y-82021216D01*
X227398901Y-82137698D01*
X194998859Y-82137698D01*
X194998859Y-77398290D01*
X225997100Y-77398290D01*
X225997100Y-79161708D01*
X226012042Y-79256054D01*
X226012042Y-79256055D01*
X226012043Y-79256056D01*
X226069984Y-79369771D01*
X226160229Y-79460016D01*
X226273944Y-79517957D01*
X226368291Y-79532900D01*
X228131708Y-79532899D01*
X228226056Y-79517957D01*
X228339771Y-79460016D01*
X228430016Y-79369771D01*
X228487957Y-79256056D01*
X228502900Y-79161709D01*
X228502899Y-77398292D01*
X228487957Y-77303944D01*
X228430016Y-77190229D01*
X228339771Y-77099984D01*
X228226056Y-77042043D01*
X228226055Y-77042042D01*
X228226054Y-77042042D01*
X228131709Y-77027100D01*
X226368291Y-77027100D01*
X226273945Y-77042042D01*
X226160228Y-77099984D01*
X226069984Y-77190228D01*
X226012042Y-77303945D01*
X225997100Y-77398290D01*
X194998859Y-77398290D01*
X194998859Y-74296538D01*
X194979776Y-74225323D01*
X194965374Y-74200377D01*
X194965374Y-74200376D01*
X194942911Y-74161469D01*
X194942907Y-74161464D01*
X193014966Y-72233523D01*
X223337100Y-72233523D01*
X223337100Y-72446476D01*
X223370411Y-72656797D01*
X223370414Y-72656809D01*
X223389909Y-72716809D01*
X223436219Y-72859333D01*
X223466788Y-72919328D01*
X223532900Y-73049080D01*
X223658058Y-73221345D01*
X223658062Y-73221349D01*
X223658066Y-73221355D01*
X223808645Y-73371934D01*
X223808650Y-73371938D01*
X223808654Y-73371941D01*
X223980919Y-73497099D01*
X223980924Y-73497101D01*
X223980926Y-73497103D01*
X224170667Y-73593781D01*
X224373195Y-73659587D01*
X224458798Y-73673145D01*
X224583523Y-73692900D01*
X224583524Y-73692900D01*
X224796476Y-73692900D01*
X225006805Y-73659587D01*
X225209333Y-73593781D01*
X225399074Y-73497103D01*
X225571355Y-73371934D01*
X225721934Y-73221355D01*
X225847103Y-73049074D01*
X225943781Y-72859333D01*
X226009587Y-72656805D01*
X226042900Y-72446476D01*
X226042900Y-72233524D01*
X226009587Y-72023195D01*
X225943781Y-71820667D01*
X225847103Y-71630926D01*
X225847101Y-71630924D01*
X225847099Y-71630919D01*
X225721941Y-71458654D01*
X225721938Y-71458650D01*
X225721934Y-71458645D01*
X225571355Y-71308066D01*
X225571349Y-71308062D01*
X225571345Y-71308058D01*
X225399080Y-71182900D01*
X225327089Y-71146219D01*
X225209333Y-71086219D01*
X225209330Y-71086218D01*
X225209328Y-71086217D01*
X225006809Y-71020414D01*
X225006797Y-71020411D01*
X224796477Y-70987100D01*
X224796476Y-70987100D01*
X224583524Y-70987100D01*
X224583523Y-70987100D01*
X224373202Y-71020411D01*
X224373190Y-71020414D01*
X224170671Y-71086217D01*
X223980919Y-71182900D01*
X223808654Y-71308058D01*
X223808638Y-71308072D01*
X223658072Y-71458638D01*
X223658058Y-71458654D01*
X223532900Y-71630919D01*
X223436217Y-71820671D01*
X223370414Y-72023190D01*
X223370411Y-72023202D01*
X223337100Y-72233523D01*
X193014966Y-72233523D01*
X187029422Y-66247979D01*
X187029421Y-66247978D01*
X186965566Y-66211112D01*
X186965565Y-66211111D01*
X186965562Y-66211110D01*
X186965564Y-66211110D01*
X186894349Y-66192028D01*
X186894346Y-66192028D01*
X186451897Y-66192028D01*
X186378164Y-66192028D01*
X186378161Y-66192028D01*
X186306946Y-66211110D01*
X186243087Y-66247979D01*
X181593464Y-70897602D01*
X181556595Y-70961461D01*
X181537513Y-71032676D01*
X181537513Y-74187626D01*
X181534086Y-74195899D01*
X174763394Y-80966592D01*
X174755121Y-80970019D01*
X150813114Y-80970019D01*
X150760980Y-80983989D01*
X150741897Y-80989101D01*
X150741893Y-80989103D01*
X150678045Y-81025966D01*
X150678040Y-81025970D01*
X145317465Y-86386546D01*
X145309192Y-86389973D01*
X144912715Y-86389973D01*
X144904442Y-86386546D01*
X144901115Y-86379800D01*
X144890341Y-86297967D01*
X144867572Y-86212989D01*
X144825780Y-86057020D01*
X144825776Y-86057010D01*
X144730323Y-85826567D01*
X144730320Y-85826562D01*
X144605605Y-85610548D01*
X144605597Y-85610536D01*
X144453746Y-85412639D01*
X144277361Y-85236254D01*
X144079463Y-85084402D01*
X144079451Y-85084394D01*
X143863437Y-84959679D01*
X143863432Y-84959676D01*
X143632989Y-84864223D01*
X143632978Y-84864219D01*
X143392032Y-84799658D01*
X143310200Y-84788885D01*
X143302445Y-84784407D01*
X143300027Y-84777285D01*
X143300027Y-84380808D01*
X143303454Y-84372535D01*
X144314805Y-83361184D01*
X145336063Y-82339926D01*
X145372929Y-82276071D01*
X145377692Y-82258295D01*
X145392012Y-82204853D01*
X145392013Y-82204853D01*
X145392013Y-75483634D01*
X167094600Y-75483634D01*
X167094600Y-75716365D01*
X167124977Y-75947104D01*
X167185212Y-76171906D01*
X167185216Y-76171917D01*
X167274272Y-76386915D01*
X167390642Y-76588475D01*
X167390642Y-76588476D01*
X167532319Y-76773112D01*
X167532325Y-76773119D01*
X167560721Y-76801515D01*
X168002938Y-76359297D01*
X168110701Y-76467060D01*
X167668484Y-76909278D01*
X167696880Y-76937674D01*
X167696887Y-76937680D01*
X167881523Y-77079357D01*
X168083084Y-77195727D01*
X168298082Y-77284783D01*
X168298093Y-77284787D01*
X168522895Y-77345022D01*
X168753634Y-77375400D01*
X168986366Y-77375400D01*
X169217104Y-77345022D01*
X169441906Y-77284787D01*
X169441917Y-77284783D01*
X169656915Y-77195727D01*
X169858475Y-77079357D01*
X169858476Y-77079357D01*
X170043112Y-76937680D01*
X170043118Y-76937675D01*
X170071515Y-76909278D01*
X169629298Y-76467061D01*
X169737061Y-76359298D01*
X170179278Y-76801515D01*
X170207675Y-76773118D01*
X170207680Y-76773112D01*
X170349357Y-76588476D01*
X170349357Y-76588475D01*
X170465727Y-76386915D01*
X170554783Y-76171917D01*
X170554787Y-76171906D01*
X170615022Y-75947104D01*
X170645400Y-75716365D01*
X170645400Y-75483634D01*
X170615022Y-75252895D01*
X170554787Y-75028093D01*
X170554783Y-75028082D01*
X170465727Y-74813084D01*
X170349357Y-74611524D01*
X170349357Y-74611523D01*
X170207680Y-74426887D01*
X170207674Y-74426880D01*
X170179278Y-74398484D01*
X169737060Y-74840701D01*
X169629297Y-74732938D01*
X170071515Y-74290721D01*
X170043119Y-74262325D01*
X170043112Y-74262319D01*
X169858476Y-74120642D01*
X169656915Y-74004272D01*
X169441917Y-73915216D01*
X169441906Y-73915212D01*
X169217104Y-73854977D01*
X168986366Y-73824600D01*
X168753634Y-73824600D01*
X168522895Y-73854977D01*
X168298093Y-73915212D01*
X168298082Y-73915216D01*
X168083084Y-74004272D01*
X167881524Y-74120642D01*
X167881523Y-74120642D01*
X167696887Y-74262319D01*
X167696880Y-74262325D01*
X167668484Y-74290721D01*
X168110702Y-74732939D01*
X168002939Y-74840702D01*
X167560721Y-74398484D01*
X167532325Y-74426880D01*
X167532319Y-74426887D01*
X167390642Y-74611523D01*
X167390642Y-74611524D01*
X167274272Y-74813084D01*
X167185216Y-75028082D01*
X167185212Y-75028093D01*
X167124977Y-75252895D01*
X167094600Y-75483634D01*
X145392013Y-75483634D01*
X145392013Y-66995146D01*
X145372930Y-66923931D01*
X145361682Y-66904448D01*
X145361682Y-66904447D01*
X145336065Y-66860077D01*
X145336061Y-66860072D01*
X143383454Y-64907465D01*
X143380027Y-64899192D01*
X143380027Y-64502713D01*
X143383454Y-64494440D01*
X143390197Y-64491114D01*
X143472034Y-64480341D01*
X143712980Y-64415780D01*
X143943437Y-64320321D01*
X144159463Y-64195598D01*
X144357361Y-64043746D01*
X144533746Y-63867361D01*
X144685598Y-63669463D01*
X144810321Y-63453437D01*
X144905780Y-63222980D01*
X144970341Y-62982034D01*
X145002900Y-62734723D01*
X145002900Y-62485277D01*
X144970341Y-62237966D01*
X144905780Y-61997020D01*
X144810321Y-61766563D01*
X144740296Y-61645277D01*
X167037100Y-61645277D01*
X167037100Y-61894722D01*
X167069658Y-62142032D01*
X167134219Y-62382978D01*
X167134223Y-62382989D01*
X167229676Y-62613432D01*
X167229679Y-62613437D01*
X167354394Y-62829451D01*
X167354402Y-62829463D01*
X167506254Y-63027361D01*
X167682639Y-63203746D01*
X167880537Y-63355598D01*
X167880540Y-63355600D01*
X167880548Y-63355605D01*
X168011378Y-63431139D01*
X168096563Y-63480321D01*
X168096565Y-63480321D01*
X168096567Y-63480323D01*
X168327010Y-63575776D01*
X168327020Y-63575780D01*
X168567966Y-63640341D01*
X168815277Y-63672900D01*
X169064723Y-63672900D01*
X169312034Y-63640341D01*
X169552980Y-63575780D01*
X169783437Y-63480321D01*
X169999463Y-63355598D01*
X170197361Y-63203746D01*
X170373746Y-63027361D01*
X170525598Y-62829463D01*
X170650321Y-62613437D01*
X170745780Y-62382980D01*
X170810341Y-62142034D01*
X170842900Y-61894723D01*
X170842900Y-61645277D01*
X170810341Y-61397966D01*
X170745780Y-61157020D01*
X170745776Y-61157010D01*
X170650323Y-60926567D01*
X170650320Y-60926562D01*
X170634797Y-60899676D01*
X170579686Y-60804220D01*
X170525605Y-60710548D01*
X170525597Y-60710536D01*
X170373746Y-60512639D01*
X170197361Y-60336254D01*
X169999463Y-60184402D01*
X169999451Y-60184394D01*
X169783437Y-60059679D01*
X169783432Y-60059676D01*
X169552989Y-59964223D01*
X169552978Y-59964219D01*
X169312032Y-59899658D01*
X169064723Y-59867100D01*
X168815277Y-59867100D01*
X168567967Y-59899658D01*
X168327021Y-59964219D01*
X168327010Y-59964223D01*
X168096567Y-60059676D01*
X168096562Y-60059679D01*
X167880548Y-60184394D01*
X167880536Y-60184402D01*
X167682640Y-60336253D01*
X167682633Y-60336259D01*
X167506259Y-60512633D01*
X167506253Y-60512640D01*
X167354402Y-60710536D01*
X167354394Y-60710548D01*
X167229679Y-60926562D01*
X167229676Y-60926567D01*
X167134223Y-61157010D01*
X167134219Y-61157021D01*
X167069658Y-61397967D01*
X167037100Y-61645277D01*
X144740296Y-61645277D01*
X144685598Y-61550537D01*
X144533746Y-61352639D01*
X144357361Y-61176254D01*
X144159463Y-61024402D01*
X144159451Y-61024394D01*
X143943437Y-60899679D01*
X143943432Y-60899676D01*
X143712989Y-60804223D01*
X143712978Y-60804219D01*
X143472032Y-60739658D01*
X143224723Y-60707100D01*
X142975277Y-60707100D01*
X142727967Y-60739658D01*
X142487021Y-60804219D01*
X142487010Y-60804223D01*
X142256567Y-60899676D01*
X142256562Y-60899679D01*
X142040548Y-61024394D01*
X142040536Y-61024402D01*
X141842640Y-61176253D01*
X141842633Y-61176259D01*
X141666259Y-61352633D01*
X141666253Y-61352640D01*
X141514402Y-61550536D01*
X141514394Y-61550548D01*
X141389679Y-61766562D01*
X141389676Y-61766567D01*
X141294223Y-61997010D01*
X141294219Y-61997021D01*
X141229658Y-62237967D01*
X141197100Y-62485277D01*
X141197100Y-62734722D01*
X141229658Y-62982032D01*
X141294219Y-63222978D01*
X141294223Y-63222989D01*
X141389676Y-63453432D01*
X141389679Y-63453437D01*
X141514394Y-63669451D01*
X141514402Y-63669463D01*
X141666254Y-63867361D01*
X141842639Y-64043746D01*
X142040537Y-64195598D01*
X142040540Y-64195600D01*
X142040548Y-64195605D01*
X142171378Y-64271139D01*
X142256563Y-64320321D01*
X142256565Y-64320321D01*
X142256567Y-64320323D01*
X142445160Y-64398441D01*
X142487020Y-64415780D01*
X142727966Y-64480341D01*
X142809801Y-64491114D01*
X142817555Y-64495590D01*
X142819973Y-64502713D01*
X142819973Y-65056897D01*
X142839055Y-65128112D01*
X142875924Y-65191971D01*
X144828532Y-67144579D01*
X144831959Y-67152852D01*
X144831959Y-82047148D01*
X144828532Y-82055421D01*
X142795924Y-84088028D01*
X142759055Y-84151887D01*
X142739973Y-84223102D01*
X142739973Y-84777285D01*
X142736546Y-84785558D01*
X142729800Y-84788885D01*
X142647967Y-84799658D01*
X142407021Y-84864219D01*
X142407010Y-84864223D01*
X142176567Y-84959676D01*
X142176562Y-84959679D01*
X141960548Y-85084394D01*
X141960536Y-85084402D01*
X141762640Y-85236253D01*
X141762633Y-85236259D01*
X141586259Y-85412633D01*
X141586253Y-85412640D01*
X141434402Y-85610536D01*
X141434394Y-85610548D01*
X141309679Y-85826562D01*
X141309676Y-85826567D01*
X141214223Y-86057010D01*
X141214219Y-86057021D01*
X141149658Y-86297967D01*
X141117100Y-86545277D01*
X130536131Y-86545277D01*
X130536131Y-76553634D01*
X141244600Y-76553634D01*
X141244600Y-76786365D01*
X141274977Y-77017104D01*
X141335212Y-77241906D01*
X141335216Y-77241917D01*
X141424272Y-77456915D01*
X141540642Y-77658475D01*
X141540642Y-77658476D01*
X141682319Y-77843112D01*
X141682325Y-77843119D01*
X141710721Y-77871515D01*
X142152938Y-77429297D01*
X142260701Y-77537060D01*
X141818484Y-77979278D01*
X141846880Y-78007674D01*
X141846887Y-78007680D01*
X142031523Y-78149357D01*
X142233084Y-78265727D01*
X142448082Y-78354783D01*
X142448093Y-78354787D01*
X142672895Y-78415022D01*
X142903634Y-78445400D01*
X143136366Y-78445400D01*
X143367104Y-78415022D01*
X143591906Y-78354787D01*
X143591917Y-78354783D01*
X143806915Y-78265727D01*
X144008475Y-78149357D01*
X144008476Y-78149357D01*
X144193112Y-78007680D01*
X144193118Y-78007675D01*
X144221515Y-77979278D01*
X143779298Y-77537061D01*
X143887061Y-77429298D01*
X144329278Y-77871515D01*
X144357675Y-77843118D01*
X144357680Y-77843112D01*
X144499357Y-77658476D01*
X144499357Y-77658475D01*
X144615727Y-77456915D01*
X144704783Y-77241917D01*
X144704787Y-77241906D01*
X144765022Y-77017104D01*
X144795400Y-76786365D01*
X144795400Y-76553634D01*
X144765022Y-76322895D01*
X144704787Y-76098093D01*
X144704783Y-76098082D01*
X144615727Y-75883084D01*
X144499357Y-75681524D01*
X144499357Y-75681523D01*
X144357680Y-75496887D01*
X144357674Y-75496880D01*
X144329278Y-75468484D01*
X143887060Y-75910701D01*
X143779297Y-75802938D01*
X144221515Y-75360721D01*
X144193119Y-75332325D01*
X144193112Y-75332319D01*
X144008476Y-75190642D01*
X143806915Y-75074272D01*
X143591917Y-74985216D01*
X143591906Y-74985212D01*
X143367104Y-74924977D01*
X143136366Y-74894600D01*
X142903634Y-74894600D01*
X142672895Y-74924977D01*
X142448093Y-74985212D01*
X142448082Y-74985216D01*
X142233084Y-75074272D01*
X142031524Y-75190642D01*
X142031523Y-75190642D01*
X141846887Y-75332319D01*
X141846880Y-75332325D01*
X141818484Y-75360721D01*
X142260702Y-75802939D01*
X142152939Y-75910702D01*
X141710721Y-75468484D01*
X141682325Y-75496880D01*
X141682319Y-75496887D01*
X141540642Y-75681523D01*
X141540642Y-75681524D01*
X141424272Y-75883084D01*
X141335216Y-76098082D01*
X141335212Y-76098093D01*
X141274977Y-76322895D01*
X141244600Y-76553634D01*
X130536131Y-76553634D01*
X130536131Y-52493634D01*
X141324600Y-52493634D01*
X141324600Y-52726365D01*
X141354977Y-52957104D01*
X141415212Y-53181906D01*
X141415216Y-53181917D01*
X141504272Y-53396915D01*
X141620642Y-53598475D01*
X141620642Y-53598476D01*
X141762319Y-53783112D01*
X141762325Y-53783119D01*
X141790721Y-53811515D01*
X142232938Y-53369297D01*
X142340701Y-53477060D01*
X141898484Y-53919278D01*
X141926880Y-53947674D01*
X141926887Y-53947680D01*
X142111523Y-54089357D01*
X142313084Y-54205727D01*
X142528082Y-54294783D01*
X142528093Y-54294787D01*
X142752895Y-54355022D01*
X142983634Y-54385400D01*
X143216366Y-54385400D01*
X143447104Y-54355022D01*
X143671906Y-54294787D01*
X143671917Y-54294783D01*
X143886915Y-54205727D01*
X144088475Y-54089357D01*
X144088476Y-54089357D01*
X144273112Y-53947680D01*
X144273118Y-53947675D01*
X144301515Y-53919278D01*
X143859298Y-53477061D01*
X143967061Y-53369298D01*
X144409278Y-53811515D01*
X144437675Y-53783118D01*
X144437680Y-53783112D01*
X144579357Y-53598476D01*
X144579357Y-53598475D01*
X144695727Y-53396915D01*
X144784783Y-53181917D01*
X144784787Y-53181906D01*
X144814396Y-53071404D01*
X144845022Y-52957104D01*
X144875400Y-52726365D01*
X144875400Y-52493634D01*
X144845022Y-52262895D01*
X144784787Y-52038093D01*
X144784783Y-52038082D01*
X144695727Y-51823084D01*
X144601053Y-51659101D01*
X144601052Y-51659098D01*
X144597897Y-51653634D01*
X167164600Y-51653634D01*
X167164600Y-51886365D01*
X167194977Y-52117104D01*
X167255212Y-52341906D01*
X167255216Y-52341917D01*
X167344272Y-52556915D01*
X167460642Y-52758475D01*
X167460642Y-52758476D01*
X167602319Y-52943112D01*
X167602325Y-52943119D01*
X167630721Y-52971515D01*
X168072938Y-52529297D01*
X168180701Y-52637060D01*
X167738484Y-53079278D01*
X167766880Y-53107674D01*
X167766887Y-53107680D01*
X167951523Y-53249357D01*
X168153084Y-53365727D01*
X168368082Y-53454783D01*
X168368093Y-53454787D01*
X168592895Y-53515022D01*
X168823634Y-53545400D01*
X169056366Y-53545400D01*
X169287104Y-53515022D01*
X169511906Y-53454787D01*
X169511917Y-53454783D01*
X169726915Y-53365727D01*
X169928475Y-53249357D01*
X169928476Y-53249357D01*
X170113112Y-53107680D01*
X170113118Y-53107675D01*
X170141515Y-53079278D01*
X169699298Y-52637061D01*
X169807061Y-52529298D01*
X170249278Y-52971515D01*
X170277675Y-52943118D01*
X170277680Y-52943112D01*
X170419357Y-52758476D01*
X170419357Y-52758475D01*
X170535727Y-52556915D01*
X170624783Y-52341917D01*
X170624787Y-52341906D01*
X170685022Y-52117104D01*
X170715400Y-51886365D01*
X170715400Y-51653634D01*
X170685022Y-51422895D01*
X170624787Y-51198093D01*
X170624783Y-51198082D01*
X170535727Y-50983084D01*
X170419357Y-50781524D01*
X170419357Y-50781523D01*
X170277680Y-50596887D01*
X170277674Y-50596880D01*
X170249278Y-50568484D01*
X169807060Y-51010701D01*
X169699297Y-50902938D01*
X170141515Y-50460721D01*
X170113119Y-50432325D01*
X170113112Y-50432319D01*
X169928476Y-50290642D01*
X169726915Y-50174272D01*
X169511917Y-50085216D01*
X169511906Y-50085212D01*
X169287104Y-50024977D01*
X169056366Y-49994600D01*
X168823634Y-49994600D01*
X168592895Y-50024977D01*
X168368093Y-50085212D01*
X168368082Y-50085216D01*
X168153084Y-50174272D01*
X167951524Y-50290642D01*
X167951523Y-50290642D01*
X167766887Y-50432319D01*
X167766880Y-50432325D01*
X167738484Y-50460721D01*
X168180702Y-50902939D01*
X168072939Y-51010702D01*
X167630721Y-50568484D01*
X167602325Y-50596880D01*
X167602319Y-50596887D01*
X167460642Y-50781523D01*
X167460642Y-50781524D01*
X167344272Y-50983084D01*
X167255216Y-51198082D01*
X167255212Y-51198093D01*
X167194977Y-51422895D01*
X167164600Y-51653634D01*
X144597897Y-51653634D01*
X144579365Y-51621535D01*
X144579357Y-51621523D01*
X144437680Y-51436887D01*
X144437674Y-51436880D01*
X144409278Y-51408484D01*
X143967060Y-51850701D01*
X143859297Y-51742938D01*
X144301515Y-51300721D01*
X144273119Y-51272325D01*
X144273112Y-51272319D01*
X144088476Y-51130642D01*
X143886915Y-51014272D01*
X143671917Y-50925216D01*
X143671906Y-50925212D01*
X143447104Y-50864977D01*
X143216366Y-50834600D01*
X142983634Y-50834600D01*
X142752895Y-50864977D01*
X142528093Y-50925212D01*
X142528082Y-50925216D01*
X142313084Y-51014272D01*
X142111524Y-51130642D01*
X142111523Y-51130642D01*
X141926887Y-51272319D01*
X141926880Y-51272325D01*
X141898484Y-51300721D01*
X142340702Y-51742939D01*
X142232939Y-51850702D01*
X141790721Y-51408484D01*
X141762325Y-51436880D01*
X141762319Y-51436887D01*
X141620642Y-51621523D01*
X141620642Y-51621524D01*
X141504272Y-51823084D01*
X141415216Y-52038082D01*
X141415212Y-52038093D01*
X141354977Y-52262895D01*
X141324600Y-52493634D01*
X130536131Y-52493634D01*
X130536131Y-45716298D01*
X186277100Y-45716298D01*
X186277100Y-45923702D01*
X186303940Y-46058638D01*
X186317562Y-46127120D01*
X186396931Y-46318733D01*
X186396935Y-46318741D01*
X186512158Y-46491184D01*
X186512161Y-46491188D01*
X186658811Y-46637838D01*
X186658815Y-46637841D01*
X186831258Y-46753064D01*
X186831262Y-46753066D01*
X186831265Y-46753068D01*
X187022880Y-46832438D01*
X187226298Y-46872900D01*
X187226299Y-46872900D01*
X187433701Y-46872900D01*
X187433702Y-46872900D01*
X187637120Y-46832438D01*
X187828735Y-46753068D01*
X188001185Y-46637841D01*
X188015836Y-46623190D01*
X188123908Y-46515119D01*
X188147838Y-46491188D01*
X188147841Y-46491185D01*
X188263068Y-46318735D01*
X188342438Y-46127120D01*
X188382900Y-45923702D01*
X188382900Y-45728856D01*
X191484600Y-45728856D01*
X191484600Y-45911143D01*
X191520162Y-46089929D01*
X191589920Y-46258339D01*
X191589924Y-46258347D01*
X191691194Y-46409907D01*
X191691197Y-46409911D01*
X191701760Y-46420474D01*
X191931853Y-46190380D01*
X192039618Y-46298145D01*
X191809525Y-46528238D01*
X191820088Y-46538802D01*
X191820092Y-46538805D01*
X191971652Y-46640075D01*
X191971660Y-46640079D01*
X192140070Y-46709837D01*
X192318857Y-46745400D01*
X192501143Y-46745400D01*
X192679929Y-46709837D01*
X192848339Y-46640079D01*
X192848347Y-46640075D01*
X192999905Y-46538807D01*
X193010474Y-46528238D01*
X193010474Y-46528237D01*
X192780382Y-46298145D01*
X192888145Y-46190381D01*
X193118238Y-46420474D01*
X193128807Y-46409905D01*
X193230075Y-46258347D01*
X193230079Y-46258339D01*
X193299837Y-46089929D01*
X193335400Y-45911143D01*
X193335400Y-45728856D01*
X193299837Y-45550070D01*
X193230079Y-45381660D01*
X193230075Y-45381652D01*
X193128805Y-45230092D01*
X193128802Y-45230088D01*
X193118238Y-45219525D01*
X192888144Y-45449617D01*
X192780380Y-45341853D01*
X193010474Y-45111761D01*
X193010474Y-45111760D01*
X192999911Y-45101197D01*
X192999907Y-45101194D01*
X192848347Y-44999924D01*
X192848339Y-44999920D01*
X192679929Y-44930162D01*
X192501143Y-44894600D01*
X192318857Y-44894600D01*
X192140070Y-44930162D01*
X191971660Y-44999920D01*
X191971652Y-44999924D01*
X191820096Y-45101191D01*
X191809525Y-45111761D01*
X192039618Y-45341854D01*
X191931854Y-45449618D01*
X191701761Y-45219525D01*
X191691191Y-45230096D01*
X191589924Y-45381652D01*
X191589920Y-45381660D01*
X191520162Y-45550070D01*
X191484600Y-45728856D01*
X188382900Y-45728856D01*
X188382900Y-45716298D01*
X188342438Y-45512880D01*
X188263068Y-45321265D01*
X188263066Y-45321262D01*
X188263064Y-45321258D01*
X188147841Y-45148815D01*
X188147838Y-45148811D01*
X188001188Y-45002161D01*
X188001184Y-45002158D01*
X187828741Y-44886935D01*
X187828733Y-44886931D01*
X187637120Y-44807562D01*
X187433702Y-44767100D01*
X187226298Y-44767100D01*
X187124589Y-44787331D01*
X187022879Y-44807562D01*
X186831266Y-44886931D01*
X186831258Y-44886935D01*
X186658815Y-45002158D01*
X186658811Y-45002161D01*
X186512161Y-45148811D01*
X186512158Y-45148815D01*
X186396935Y-45321258D01*
X186396931Y-45321266D01*
X186317562Y-45512879D01*
X186296172Y-45620414D01*
X186277100Y-45716298D01*
X130536131Y-45716298D01*
X130536131Y-41084943D01*
X210617100Y-41084943D01*
X210617100Y-44615056D01*
X210625971Y-44659657D01*
X210625972Y-44659658D01*
X210659766Y-44710234D01*
X210710342Y-44744028D01*
X210754943Y-44752900D01*
X212228273Y-44752899D01*
X212236546Y-44756326D01*
X212239973Y-44764599D01*
X212239973Y-45285806D01*
X212259055Y-45357021D01*
X212295924Y-45420880D01*
X231494135Y-64619091D01*
X231497562Y-64627364D01*
X231497562Y-74711894D01*
X231494135Y-74720167D01*
X231411095Y-74803206D01*
X231411091Y-74803211D01*
X231350796Y-74907644D01*
X231350794Y-74907648D01*
X231319584Y-75024130D01*
X231319584Y-75144729D01*
X231350794Y-75261211D01*
X231350796Y-75261215D01*
X231411091Y-75365648D01*
X231411093Y-75365651D01*
X231411094Y-75365652D01*
X231496367Y-75450925D01*
X231496368Y-75450926D01*
X231496370Y-75450927D01*
X231600803Y-75511222D01*
X231600807Y-75511224D01*
X231692672Y-75535838D01*
X231717289Y-75542434D01*
X231717291Y-75542435D01*
X231717292Y-75542435D01*
X231837887Y-75542435D01*
X231837887Y-75542434D01*
X231896129Y-75526829D01*
X231954370Y-75511224D01*
X231954374Y-75511222D01*
X232028398Y-75468484D01*
X232058811Y-75450925D01*
X232144084Y-75365652D01*
X232204382Y-75261213D01*
X232235594Y-75144727D01*
X232235594Y-75024133D01*
X232209026Y-74924977D01*
X232204383Y-74907648D01*
X232204381Y-74907644D01*
X232144086Y-74803211D01*
X232144082Y-74803206D01*
X232061043Y-74720167D01*
X232057616Y-74711894D01*
X232057616Y-64469658D01*
X232038533Y-64398443D01*
X232038532Y-64398441D01*
X232001667Y-64334587D01*
X212803454Y-45136374D01*
X212800027Y-45128101D01*
X212800027Y-44764599D01*
X212803454Y-44756326D01*
X212811727Y-44752899D01*
X214285056Y-44752899D01*
X214329658Y-44744028D01*
X214380234Y-44710234D01*
X214414028Y-44659658D01*
X214422900Y-44615057D01*
X214422899Y-42725277D01*
X216057100Y-42725277D01*
X216057100Y-42974722D01*
X216089658Y-43222032D01*
X216154219Y-43462978D01*
X216154223Y-43462989D01*
X216249676Y-43693432D01*
X216249679Y-43693437D01*
X216374394Y-43909451D01*
X216374402Y-43909463D01*
X216526254Y-44107361D01*
X216702639Y-44283746D01*
X216900537Y-44435598D01*
X216900540Y-44435600D01*
X216900548Y-44435605D01*
X217031378Y-44511139D01*
X217116563Y-44560321D01*
X217116565Y-44560321D01*
X217116567Y-44560323D01*
X217347010Y-44655776D01*
X217347020Y-44655780D01*
X217587966Y-44720341D01*
X217835277Y-44752900D01*
X218084723Y-44752900D01*
X218332034Y-44720341D01*
X218572980Y-44655780D01*
X218803437Y-44560321D01*
X219019463Y-44435598D01*
X219084946Y-44385349D01*
X219093595Y-44383032D01*
X219100341Y-44386359D01*
X219440071Y-44726089D01*
X228167285Y-53453303D01*
X228167286Y-53453304D01*
X228167288Y-53453305D01*
X228202525Y-53473649D01*
X228202526Y-53473649D01*
X228231140Y-53490169D01*
X228231142Y-53490169D01*
X228231143Y-53490170D01*
X228231141Y-53490170D01*
X228287308Y-53505219D01*
X228302357Y-53509252D01*
X228302358Y-53509253D01*
X228302360Y-53509253D01*
X234456455Y-53509253D01*
X234464728Y-53512680D01*
X234547769Y-53595721D01*
X234547770Y-53595722D01*
X234547772Y-53595723D01*
X234652205Y-53656018D01*
X234652209Y-53656020D01*
X234725868Y-53675756D01*
X234768691Y-53687230D01*
X234768693Y-53687231D01*
X234768694Y-53687231D01*
X234889289Y-53687231D01*
X234889289Y-53687230D01*
X234947531Y-53671625D01*
X235005772Y-53656020D01*
X235005776Y-53656018D01*
X235105441Y-53598476D01*
X235110213Y-53595721D01*
X235195486Y-53510448D01*
X235255784Y-53406009D01*
X235266578Y-53365727D01*
X235286995Y-53289525D01*
X235286996Y-53289524D01*
X235286996Y-53168928D01*
X235286995Y-53168926D01*
X235255785Y-53052444D01*
X235255783Y-53052440D01*
X235195488Y-52948007D01*
X235195484Y-52948002D01*
X235110214Y-52862732D01*
X235110209Y-52862728D01*
X235005776Y-52802433D01*
X235005772Y-52802431D01*
X234889290Y-52771221D01*
X234889288Y-52771221D01*
X234768694Y-52771221D01*
X234768691Y-52771221D01*
X234652209Y-52802431D01*
X234652205Y-52802433D01*
X234547772Y-52862728D01*
X234547767Y-52862732D01*
X234464728Y-52945772D01*
X234456455Y-52949199D01*
X228460063Y-52949199D01*
X228451790Y-52945772D01*
X222339541Y-46833523D01*
X223337100Y-46833523D01*
X223337100Y-47046476D01*
X223370411Y-47256797D01*
X223370414Y-47256809D01*
X223389909Y-47316809D01*
X223436219Y-47459333D01*
X223466788Y-47519328D01*
X223532900Y-47649080D01*
X223658058Y-47821345D01*
X223658062Y-47821349D01*
X223658066Y-47821355D01*
X223808645Y-47971934D01*
X223808650Y-47971938D01*
X223808654Y-47971941D01*
X223980919Y-48097099D01*
X223980924Y-48097101D01*
X223980926Y-48097103D01*
X224170667Y-48193781D01*
X224373195Y-48259587D01*
X224458798Y-48273145D01*
X224583523Y-48292900D01*
X224583524Y-48292900D01*
X224796476Y-48292900D01*
X225006805Y-48259587D01*
X225209333Y-48193781D01*
X225399074Y-48097103D01*
X225571355Y-47971934D01*
X225721934Y-47821355D01*
X225847103Y-47649074D01*
X225943781Y-47459333D01*
X226009587Y-47256805D01*
X226042900Y-47046476D01*
X226042900Y-46833524D01*
X226028942Y-46745400D01*
X226012261Y-46640079D01*
X226009587Y-46623195D01*
X225943781Y-46420667D01*
X225847103Y-46230926D01*
X225847101Y-46230924D01*
X225847099Y-46230919D01*
X225721941Y-46058654D01*
X225721938Y-46058650D01*
X225721934Y-46058645D01*
X225571355Y-45908066D01*
X225571349Y-45908062D01*
X225571345Y-45908058D01*
X225399080Y-45782900D01*
X225327089Y-45746219D01*
X225209333Y-45686219D01*
X225209330Y-45686218D01*
X225209328Y-45686217D01*
X225006809Y-45620414D01*
X225006797Y-45620411D01*
X224796477Y-45587100D01*
X224796476Y-45587100D01*
X224583524Y-45587100D01*
X224583523Y-45587100D01*
X224373202Y-45620411D01*
X224373190Y-45620414D01*
X224170671Y-45686217D01*
X223980919Y-45782900D01*
X223808654Y-45908058D01*
X223808638Y-45908072D01*
X223658072Y-46058638D01*
X223658058Y-46058654D01*
X223532900Y-46230919D01*
X223436217Y-46420671D01*
X223370414Y-46623190D01*
X223370411Y-46623202D01*
X223337100Y-46833523D01*
X222339541Y-46833523D01*
X219496359Y-43990341D01*
X219492932Y-43982068D01*
X219495349Y-43974947D01*
X219545598Y-43909463D01*
X219670321Y-43693437D01*
X219765780Y-43462980D01*
X219830341Y-43222034D01*
X219862900Y-42974723D01*
X219862900Y-42725277D01*
X221517100Y-42725277D01*
X221517100Y-42974722D01*
X221549658Y-43222032D01*
X221614219Y-43462978D01*
X221614223Y-43462989D01*
X221709676Y-43693432D01*
X221709679Y-43693437D01*
X221834394Y-43909451D01*
X221834402Y-43909463D01*
X221986254Y-44107361D01*
X222162639Y-44283746D01*
X222360537Y-44435598D01*
X222360540Y-44435600D01*
X222360548Y-44435605D01*
X222491378Y-44511139D01*
X222576563Y-44560321D01*
X222576565Y-44560321D01*
X222576567Y-44560323D01*
X222807010Y-44655776D01*
X222807020Y-44655780D01*
X223047966Y-44720341D01*
X223295277Y-44752900D01*
X223544723Y-44752900D01*
X223792034Y-44720341D01*
X224032980Y-44655780D01*
X224263437Y-44560321D01*
X224479463Y-44435598D01*
X224677361Y-44283746D01*
X224853746Y-44107361D01*
X225005598Y-43909463D01*
X225130321Y-43693437D01*
X225225780Y-43462980D01*
X225290341Y-43222034D01*
X225322900Y-42974723D01*
X225322900Y-42725277D01*
X225290341Y-42477966D01*
X225225780Y-42237020D01*
X225130321Y-42006563D01*
X225011372Y-41800537D01*
X225005605Y-41790548D01*
X225005597Y-41790536D01*
X224853746Y-41592639D01*
X224677361Y-41416254D01*
X224479463Y-41264402D01*
X224479451Y-41264394D01*
X224263437Y-41139679D01*
X224263432Y-41139676D01*
X224180144Y-41105177D01*
X224155437Y-41094943D01*
X242317100Y-41094943D01*
X242317100Y-44625056D01*
X242325971Y-44669657D01*
X242325972Y-44669658D01*
X242353083Y-44710233D01*
X242359766Y-44720234D01*
X242410342Y-44754028D01*
X242454943Y-44762900D01*
X245985056Y-44762899D01*
X246029658Y-44754028D01*
X246080234Y-44720234D01*
X246114028Y-44669658D01*
X246122900Y-44625057D01*
X246122899Y-41094944D01*
X246114028Y-41050342D01*
X246080234Y-40999766D01*
X246065106Y-40989658D01*
X246029658Y-40965972D01*
X246029653Y-40965971D01*
X245985057Y-40957100D01*
X245985056Y-40957100D01*
X242454943Y-40957100D01*
X242410342Y-40965971D01*
X242410341Y-40965972D01*
X242359766Y-40999765D01*
X242359765Y-40999766D01*
X242325972Y-41050341D01*
X242317100Y-41094943D01*
X224155437Y-41094943D01*
X224032989Y-41044223D01*
X224032978Y-41044219D01*
X223792032Y-40979658D01*
X223544723Y-40947100D01*
X223295277Y-40947100D01*
X223047967Y-40979658D01*
X222807021Y-41044219D01*
X222807010Y-41044223D01*
X222576567Y-41139676D01*
X222576562Y-41139679D01*
X222360548Y-41264394D01*
X222360536Y-41264402D01*
X222162640Y-41416253D01*
X222162633Y-41416259D01*
X221986259Y-41592633D01*
X221986253Y-41592640D01*
X221834402Y-41790536D01*
X221834394Y-41790548D01*
X221709679Y-42006562D01*
X221709676Y-42006567D01*
X221614223Y-42237010D01*
X221614219Y-42237021D01*
X221549658Y-42477967D01*
X221517100Y-42725277D01*
X219862900Y-42725277D01*
X219830341Y-42477966D01*
X219765780Y-42237020D01*
X219670321Y-42006563D01*
X219551372Y-41800537D01*
X219545605Y-41790548D01*
X219545597Y-41790536D01*
X219393746Y-41592639D01*
X219217361Y-41416254D01*
X219019463Y-41264402D01*
X219019451Y-41264394D01*
X218803437Y-41139679D01*
X218803432Y-41139676D01*
X218572989Y-41044223D01*
X218572978Y-41044219D01*
X218332032Y-40979658D01*
X218084723Y-40947100D01*
X217835277Y-40947100D01*
X217587967Y-40979658D01*
X217347021Y-41044219D01*
X217347010Y-41044223D01*
X217116567Y-41139676D01*
X217116562Y-41139679D01*
X216900548Y-41264394D01*
X216900536Y-41264402D01*
X216702640Y-41416253D01*
X216702633Y-41416259D01*
X216526259Y-41592633D01*
X216526253Y-41592640D01*
X216374402Y-41790536D01*
X216374394Y-41790548D01*
X216249679Y-42006562D01*
X216249676Y-42006567D01*
X216154223Y-42237010D01*
X216154219Y-42237021D01*
X216089658Y-42477967D01*
X216057100Y-42725277D01*
X214422899Y-42725277D01*
X214422899Y-41084944D01*
X214414028Y-41040342D01*
X214380234Y-40989766D01*
X214380072Y-40989658D01*
X214329658Y-40955972D01*
X214329653Y-40955971D01*
X214285057Y-40947100D01*
X214285056Y-40947100D01*
X210754943Y-40947100D01*
X210710342Y-40955971D01*
X210710341Y-40955972D01*
X210659766Y-40989765D01*
X210659765Y-40989766D01*
X210625972Y-41040341D01*
X210617100Y-41084943D01*
X130536131Y-41084943D01*
X130536131Y-40407831D01*
X130539558Y-40399558D01*
X130547831Y-40396131D01*
X259412169Y-40396131D01*
X259420442Y-40399558D01*
G37*
%TD.AperFunction*%
%TD*%
M02*
