M48
; DRILL file KiCad 10.0.6 date 2026-09-18T17:23:18
; FORMAT={-:-/ absolute / inch / decimal}
; #@! TF.CreationDate,2026-09-18T17:23:18+02:00
; #@! TF.GenerationSoftware,Kicad,Pcbnew,10.0.6
; #@! TF.FileFunction,Plated,1,2,PTH
FMAT,2
INCH
; #@! TA.AperFunction,Plated,PTH,ViaDrill
T1C0.0120
; #@! TA.AperFunction,Plated,PTH,ComponentDrill
T2C0.0315
; #@! TA.AperFunction,Plated,PTH,ComponentDrill
T3C0.0394
; #@! TA.AperFunction,Plated,PTH,ComponentDrill
T4C0.0394
; #@! TA.AperFunction,Plated,PTH,ComponentDrill
T5C0.0433
; #@! TA.AperFunction,Plated,PTH,ComponentDrill
T6C0.0433
; #@! TA.AperFunction,Plated,PTH,ComponentDrill
T7C0.0472
; #@! TA.AperFunction,Plated,PTH,ComponentDrill
T8C0.0472
; #@! TA.AperFunction,Plated,PTH,ComponentDrill
T9C0.0512
; #@! TA.AperFunction,Plated,PTH,ComponentDrill
T10C0.0551
; #@! TA.AperFunction,Plated,PTH,ComponentDrill
T11C0.0787
; #@! TA.AperFunction,Plated,PTH,ComponentDrill
T12C0.0906
%
G90
G05
T1
X5.1632Y-2.1326
X5.1632Y-2.4796
X5.1632Y-2.8266
X5.1632Y-3.1736
X5.1632Y-3.5206
X5.2743Y-3.9392
X5.3732Y-4.2916
X5.4954Y-3.4542
X5.5086Y-2.654
X5.549Y-2.0202
X5.5715Y-4.1358
X5.6319Y-3.1568
X5.6405Y-3.8876
X5.6598Y-2.3691
X5.8153Y-4.2916
X5.8761Y-3.9167
X5.8831Y-3.4633
X5.8941Y-1.8226
X5.9676Y-2.4781
X6.0514Y-3.8485
X6.1663Y-3.0585
X6.2153Y-4.2916
X6.2411Y-1.8226
X6.2533Y-3.7501
X6.4958Y-3.7877
X6.5234Y-2.3399
X6.5667Y-4.2916
X6.6181Y-4.1635
X6.7144Y-3.5284
X6.7887Y-1.9584
X6.8259Y-2.8969
X6.9137Y-4.2916
X7.0307Y-3.9446
X7.0745Y-2.5846
X7.0919Y-3.4178
X7.1194Y-1.9149
X7.2396Y-2.2816
X7.2607Y-4.2916
X7.3921Y-2.9188
X7.4355Y-3.6629
X7.5244Y-3.3382
X7.5326Y-2.4437
X7.6077Y-4.2916
X7.6224Y-2.0729
X7.6585Y-1.8226
X7.7292Y-2.9426
X7.8416Y-2.3118
X7.927Y-2.0404
X7.9285Y-2.073
X7.9547Y-4.2916
X8.0228Y-2.7907
X8.0753Y-1.8226
X8.1184Y-3.9454
X8.1942Y-2.4437
X8.3017Y-4.2916
X8.3822Y-3.7375
X8.4167Y-2.076
X8.4537Y-3.0026
X8.5183Y-1.8226
X8.6486Y-4.2916
X8.6517Y-1.9974
X8.6991Y-2.7573
X8.7065Y-2.0314
X8.7094Y-2.5728
X8.7701Y-2.0751
X8.8198Y-2.6342
X8.827Y-3.7833
X8.8387Y-2.3759
X8.896Y-2.2118
X8.908Y-2.7413
X8.9291Y-2.7199
X8.9298Y-2.821
X8.976Y-2.5421
X8.9834Y-2.1431
X8.9888Y-2.8863
X8.993Y-3.4364
X8.9938Y-1.8404
X8.9956Y-4.2916
X9.0271Y-2.116
X9.0389Y-2.0721
X9.1319Y-2.0092
X9.2251Y-3.9505
X9.2261Y-3.1415
X9.2321Y-1.8226
X9.2436Y-2.9672
X9.2533Y-2.0795
X9.3277Y-3.4776
X9.33Y-2.5816
X9.3392Y-3.3648
X9.3426Y-4.2916
X9.346Y-3.0362
X9.3765Y-3.3792
X9.4028Y-2.1409
X9.4052Y-2.6476
X9.4084Y-2.5669
X9.4263Y-3.6201
X9.6896Y-1.8226
X9.6896Y-2.5166
X9.6896Y-2.8636
X9.6896Y-3.288
X9.6896Y-3.9399
X9.6896Y-4.2916
T2
X7.2164Y-2.9185
X7.3542Y-2.9185
X7.9657Y-2.3782
X7.9657Y-2.516
T3
X7.839Y-3.5988
X7.839Y-4.0106
X9.239Y-3.5988
X9.239Y-4.0106
T4
X7.7177Y-1.8691
X7.8075Y-1.8691
X7.8972Y-1.8691
X8.1358Y-1.8659
X8.2256Y-1.8659
X8.3154Y-1.8659
X8.5783Y-1.8671
X8.6681Y-1.8671
X8.7579Y-1.8671
X9.6435Y-2.9587
X9.6435Y-3.0484
X9.6435Y-3.1382
X9.6451Y-3.348
X9.6451Y-3.4378
X9.6451Y-3.5276
T5
X9.0661Y-3.3071
X9.0665Y-3.4382
X9.4661Y-3.3071
X9.4665Y-3.4382
T6
X7.2937Y-2.248
X7.3921Y-2.248
X7.4906Y-2.248
T8
X7.2933Y-2.0102
X7.4933Y-2.0102
X9.5028Y-3.7531
X9.5028Y-3.9531
T9
X5.3394Y-3.8307
X5.3394Y-4.0307
X5.3394Y-4.2307
T10
X9.0854Y-1.8512
X9.3Y-1.8512
X9.5146Y-1.8512
X9.6031Y-2.2024
X9.6031Y-2.4169
X9.6031Y-2.6315
T12
X5.4339Y-3.2154
X5.6339Y-2.0713
X5.6339Y-2.465
X5.8276Y-3.2154
X6.4516Y-3.1732
X6.6512Y-2.0382
X6.6512Y-2.4319
X6.8453Y-3.1732
T7
G00X5.7669Y-4.238
M15
G01X5.7433Y-4.238
M16
G05
G00X5.9669Y-4.238
M15
G01X5.9433Y-4.238
M16
G05
G00X6.1669Y-4.238
M15
G01X6.1433Y-4.238
M16
G05
G00X6.3669Y-4.238
M15
G01X6.3433Y-4.238
M16
G05
T11
G00X7.1953Y-2.5295
M15
G01X7.1953Y-2.5177
M16
G05
G00X7.589Y-2.5295
M15
G01X7.589Y-2.5177
M16
G05
M30
