%TF.GenerationSoftware,KiCad,Pcbnew,10.0.1*%
%TF.CreationDate,2026-07-02T12:11:46+02:00*%
%TF.ProjectId,ADR4525ARZ-R7,41445234-3532-4354-9152-5a2d52372e6b,rev?*%
%TF.SameCoordinates,Original*%
%TF.FileFunction,Paste,Top*%
%TF.FilePolarity,Positive*%
%FSLAX46Y46*%
G04 Gerber Fmt 4.6, Leading zero omitted, Abs format (unit mm)*
G04 Created by KiCad (PCBNEW 10.0.1) date 2026-07-02 12:11:46*
%MOMM*%
%LPD*%
G01*
G04 APERTURE LIST*
G04 Aperture macros list*
%AMRoundRect*
0 Rectangle with rounded corners*
0 $1 Rounding radius*
0 $2 $3 $4 $5 $6 $7 $8 $9 X,Y pos of 4 corners*
0 Add a 4 corners polygon primitive as box body*
4,1,4,$2,$3,$4,$5,$6,$7,$8,$9,$2,$3,0*
0 Add four circle primitives for the rounded corners*
1,1,$1+$1,$2,$3*
1,1,$1+$1,$4,$5*
1,1,$1+$1,$6,$7*
1,1,$1+$1,$8,$9*
0 Add four rect primitives between the rounded corners*
20,1,$1+$1,$2,$3,$4,$5,0*
20,1,$1+$1,$4,$5,$6,$7,0*
20,1,$1+$1,$6,$7,$8,$9,0*
20,1,$1+$1,$8,$9,$2,$3,0*%
G04 Aperture macros list end*
%ADD10RoundRect,0.225000X-0.225000X-0.250000X0.225000X-0.250000X0.225000X0.250000X-0.225000X0.250000X0*%
%ADD11RoundRect,0.225000X-0.250000X0.225000X-0.250000X-0.225000X0.250000X-0.225000X0.250000X0.225000X0*%
%ADD12RoundRect,0.150000X-0.587500X-0.150000X0.587500X-0.150000X0.587500X0.150000X-0.587500X0.150000X0*%
%ADD13RoundRect,0.250000X0.450000X0.350000X-0.450000X0.350000X-0.450000X-0.350000X0.450000X-0.350000X0*%
%ADD14RoundRect,0.375000X-0.625000X-0.375000X0.625000X-0.375000X0.625000X0.375000X-0.625000X0.375000X0*%
%ADD15RoundRect,0.500000X-0.500000X-1.400000X0.500000X-1.400000X0.500000X1.400000X-0.500000X1.400000X0*%
%ADD16RoundRect,0.200000X-0.275000X0.200000X-0.275000X-0.200000X0.275000X-0.200000X0.275000X0.200000X0*%
%ADD17RoundRect,0.225000X0.225000X0.250000X-0.225000X0.250000X-0.225000X-0.250000X0.225000X-0.250000X0*%
%ADD18RoundRect,0.225000X0.250000X-0.225000X0.250000X0.225000X-0.250000X0.225000X-0.250000X-0.225000X0*%
%ADD19RoundRect,0.200000X0.200000X0.275000X-0.200000X0.275000X-0.200000X-0.275000X0.200000X-0.275000X0*%
%ADD20RoundRect,0.250000X0.600000X-0.400000X0.600000X0.400000X-0.600000X0.400000X-0.600000X-0.400000X0*%
%ADD21R,1.475000X0.450000*%
%ADD22RoundRect,0.075000X-0.275000X0.390000X-0.275000X-0.390000X0.275000X-0.390000X0.275000X0.390000X0*%
%ADD23RoundRect,0.075000X-0.275000X0.075000X-0.275000X-0.075000X0.275000X-0.075000X0.275000X0.075000X0*%
%ADD24RoundRect,0.150000X0.825000X0.150000X-0.825000X0.150000X-0.825000X-0.150000X0.825000X-0.150000X0*%
%ADD25RoundRect,0.250000X-0.250000X-0.475000X0.250000X-0.475000X0.250000X0.475000X-0.250000X0.475000X0*%
G04 APERTURE END LIST*
D10*
%TO.C,C9*%
X160445000Y-104320000D03*
X161995000Y-104320000D03*
%TD*%
D11*
%TO.C,C7*%
X160945000Y-100690000D03*
X160945000Y-102240000D03*
%TD*%
D12*
%TO.C,Q1*%
X165505000Y-93270000D03*
X165505000Y-95170000D03*
X167380000Y-94220000D03*
%TD*%
D11*
%TO.C,C11*%
X148165000Y-105345000D03*
X148165000Y-106895000D03*
%TD*%
D10*
%TO.C,C18*%
X153070000Y-108150000D03*
X154620000Y-108150000D03*
%TD*%
D13*
%TO.C,Y1*%
X160425000Y-109360000D03*
X158225000Y-109360000D03*
X158225000Y-111060000D03*
X160425000Y-111060000D03*
%TD*%
D14*
%TO.C,U3*%
X164685000Y-109710000D03*
X164685000Y-112010000D03*
D15*
X170985000Y-112010000D03*
D14*
X164685000Y-114310000D03*
%TD*%
D16*
%TO.C,R1*%
X146455000Y-105335000D03*
X146455000Y-106985000D03*
%TD*%
D11*
%TO.C,C1*%
X157355000Y-103475000D03*
X157355000Y-105025000D03*
%TD*%
D17*
%TO.C,C5*%
X162170000Y-112780000D03*
X160620000Y-112780000D03*
%TD*%
D18*
%TO.C,C15*%
X158915000Y-105015000D03*
X158915000Y-103465000D03*
%TD*%
D19*
%TO.C,FB1*%
X161020000Y-95685000D03*
X159370000Y-95685000D03*
%TD*%
D20*
%TO.C,D1*%
X163110000Y-95577500D03*
X163110000Y-92077500D03*
%TD*%
D21*
%TO.C,IC1*%
X150257509Y-109640518D03*
X150257509Y-110290518D03*
X150257509Y-110940518D03*
X150257509Y-111590518D03*
X150257509Y-112240518D03*
X150257509Y-112890518D03*
X150257509Y-113540518D03*
X150257509Y-114190518D03*
X150257509Y-114840518D03*
X150257509Y-115490518D03*
X156133509Y-115490518D03*
X156133509Y-114840518D03*
X156133509Y-114190518D03*
X156133509Y-113540518D03*
X156133509Y-112890518D03*
X156133509Y-112240518D03*
X156133509Y-111590518D03*
X156133509Y-110940518D03*
X156133509Y-110290518D03*
X156133509Y-109640518D03*
%TD*%
D22*
%TO.C,D2*%
X165080000Y-96795000D03*
D23*
X165080000Y-97680000D03*
%TD*%
D11*
%TO.C,C6*%
X162565000Y-100700000D03*
X162565000Y-102250000D03*
%TD*%
D10*
%TO.C,C16*%
X146595000Y-108410000D03*
X148145000Y-108410000D03*
%TD*%
%TO.C,C8*%
X160455000Y-105930000D03*
X162005000Y-105930000D03*
%TD*%
%TO.C,C12*%
X160460000Y-107480000D03*
X162010000Y-107480000D03*
%TD*%
D17*
%TO.C,C14*%
X160975000Y-94125000D03*
X159425000Y-94125000D03*
%TD*%
%TO.C,C19*%
X158020000Y-107640000D03*
X156470000Y-107640000D03*
%TD*%
D14*
%TO.C,U4*%
X164655000Y-102270000D03*
X164655000Y-104570000D03*
D15*
X170955000Y-104570000D03*
D14*
X164655000Y-106870000D03*
%TD*%
D19*
%TO.C,R2*%
X167170000Y-91630000D03*
X165520000Y-91630000D03*
%TD*%
D10*
%TO.C,C2*%
X160635000Y-114320000D03*
X162185000Y-114320000D03*
%TD*%
%TO.C,C3*%
X160660000Y-115860000D03*
X162210000Y-115860000D03*
%TD*%
D18*
%TO.C,C10*%
X148165000Y-103775000D03*
X148165000Y-102225000D03*
%TD*%
D17*
%TO.C,C17*%
X151530000Y-108150000D03*
X149980000Y-108150000D03*
%TD*%
D18*
%TO.C,C4*%
X162605000Y-111260000D03*
X162605000Y-109710000D03*
%TD*%
D24*
%TO.C,U1*%
X155150000Y-106287500D03*
X155150000Y-105017500D03*
X155150000Y-103747500D03*
X155150000Y-102477500D03*
X150200000Y-102477500D03*
X150200000Y-103747500D03*
X150200000Y-105017500D03*
X150200000Y-106287500D03*
%TD*%
D25*
%TO.C,C13*%
X159380000Y-97615000D03*
X161280000Y-97615000D03*
%TD*%
M02*
