M48
; DRILL file KiCad 10.0.1 date 2026-07-02T12:11:46
; FORMAT={-:-/ absolute / inch / decimal}
; #@! TF.CreationDate,2026-07-02T12:11:46+02:00
; #@! TF.GenerationSoftware,Kicad,Pcbnew,10.0.1
; #@! TF.FileFunction,Plated,1,4,PTH
FMAT,2
INCH
; #@! TA.AperFunction,Plated,PTH,ViaDrill
T1C0.0079
; #@! TA.AperFunction,Plated,PTH,ComponentDrill
T2C0.0394
%
G90
G05
T1
X5.5261Y-3.6065
X5.5261Y-4.4035
X5.555Y-4.1836
X5.5613Y-4.5955
X5.5687Y-3.8021
X5.6059Y-3.9924
X5.617Y-4.957
X5.6224Y-4.7613
X5.6715Y-4.4811
X5.6985Y-4.1134
X5.7255Y-4.3123
X5.7366Y-4.2504
X5.7484Y-3.934
X5.7577Y-4.6943
X5.7764Y-4.957
X5.7832Y-3.7747
X5.792Y-3.5537
X5.8308Y-4.4811
X5.8309Y-3.9947
X5.8602Y-4.2144
X5.9326Y-4.7446
X5.9358Y-4.957
X5.9513Y-4.1102
X5.9514Y-3.5537
X5.9528Y-4.3481
X5.9657Y-4.2849
X5.9921Y-4.3195
X6.0053Y-3.7131
X6.0249Y-4.2302
X6.0453Y-4.6318
X6.0952Y-4.957
X6.105Y-4.7976
X6.1065Y-4.0136
X6.1065Y-4.4573
X6.1083Y-4.3449
X6.1107Y-3.5537
X6.1646Y-3.7131
X6.1654Y-4.2696
X6.1857Y-4.3979
X6.1936Y-4.2883
X6.201Y-4.0465
X6.2095Y-3.999
X6.2498Y-4.2436
X6.2546Y-4.957
X6.2674Y-4.0475
X6.2701Y-3.5537
X6.2753Y-4.3833
X6.2795Y-4.5988
X6.2838Y-4.1338
X6.2912Y-4.1775
X6.2951Y-4.4935
X6.2992Y-4.5614
X6.3066Y-3.9679
X6.3117Y-4.079
X6.324Y-3.7131
X6.3669Y-4.134
X6.3705Y-3.9691
X6.374Y-4.3842
X6.376Y-4.708
X6.3772Y-3.8469
X6.38Y-4.2591
X6.3846Y-4.4131
X6.4098Y-4.2031
X6.414Y-4.957
X6.4154Y-4.4371
X6.4295Y-3.5537
X6.4319Y-3.9553
X6.4361Y-4.3931
X6.4834Y-3.7131
X6.4845Y-4.0792
X6.4887Y-4.8207
X6.4941Y-3.8606
X6.5455Y-4.6266
X6.5733Y-4.957
X6.5889Y-3.5537
X6.597Y-4.0938
X6.6282Y-4.4076
X6.6834Y-4.6802
X6.684Y-4.4093
X6.7242Y-4.0339
X6.7327Y-4.957
X6.783Y-4.1551
X6.7841Y-4.3874
T2
X5.5827Y-3.8486
X5.5827Y-3.9486
X5.5827Y-4.137
X5.5827Y-4.237
X5.5827Y-4.337
X5.5827Y-4.437
X5.5827Y-4.537
X5.5827Y-4.637
X5.5827Y-4.737
X5.5827Y-4.837
X6.3339Y-4.9
X6.4339Y-4.9
X6.5339Y-4.9
X6.6339Y-4.9
X6.7323Y-3.6096
X6.7323Y-3.7096
X6.7339Y-4.9
M30
