%TF.GenerationSoftware,KiCad,Pcbnew,10.0.1*%
%TF.CreationDate,2026-09-09T14:42:14+02:00*%
%TF.ProjectId,Ch398,43683339-382e-46b6-9963-61645f706362,rev?*%
%TF.SameCoordinates,Original*%
%TF.FileFunction,Copper,L3,Inr*%
%TF.FilePolarity,Positive*%
%FSLAX46Y46*%
G04 Gerber Fmt 4.6, Leading zero omitted, Abs format (unit mm)*
G04 Created by KiCad (PCBNEW 10.0.1) date 2026-09-09 14:42:14*
%MOMM*%
%LPD*%
G01*
G04 APERTURE LIST*
%TA.AperFunction,ComponentPad*%
%ADD10C,1.300000*%
%TD*%
%TA.AperFunction,ComponentPad*%
%ADD11C,3.200000*%
%TD*%
%TA.AperFunction,ComponentPad*%
%ADD12C,3.000000*%
%TD*%
%TA.AperFunction,ComponentPad*%
%ADD13C,1.500000*%
%TD*%
%TA.AperFunction,ComponentPad*%
%ADD14O,2.200000X1.400000*%
%TD*%
%TA.AperFunction,ViaPad*%
%ADD15C,0.508508*%
%TD*%
G04 APERTURE END LIST*
D10*
%TO.N,+5V*%
%TO.C,U3*%
X254400000Y-117510000D03*
%TO.N,/HS_DM*%
X254400000Y-115010000D03*
%TO.N,/HS_DP*%
X254400000Y-113010000D03*
%TO.N,GND*%
X254400000Y-110510000D03*
%TO.N,Net-(U3-SSRX-)*%
X252900000Y-110010000D03*
%TO.N,Net-(U3-SSRX+)*%
X252900000Y-112010000D03*
%TO.N,GND*%
X252900000Y-114010000D03*
%TO.N,/SS_RXB*%
X252900000Y-116010000D03*
%TO.N,/SS_RXA*%
X252900000Y-118010000D03*
D11*
%TO.N,GND*%
X256500000Y-120580000D03*
X256500000Y-107440000D03*
%TD*%
D12*
%TO.N,*%
%TO.C,RJ1*%
X175610000Y-108570000D03*
X175610000Y-121270000D03*
D13*
%TO.N,Net-(RJ1-Pad1)*%
X178140000Y-118490000D03*
%TO.N,Net-(RJ1-Pad2)*%
X179940000Y-117470000D03*
%TO.N,Net-(RJ1-Pad3)*%
X178140000Y-116450000D03*
%TO.N,Net-(RJ1-Pad4)*%
X179940000Y-115430000D03*
%TO.N,Net-(RJ1-Pad5)*%
X178140000Y-114410000D03*
%TO.N,Net-(RJ1-Pad6)*%
X179940000Y-113390000D03*
%TO.N,Net-(RJ1-Pad7)*%
X178140000Y-112370000D03*
%TO.N,Net-(RJ1-Pad8)*%
X179940000Y-111350000D03*
D14*
%TO.N,GND*%
X179110000Y-123050000D03*
X179110000Y-106850000D03*
D13*
%TO.N,Net-(R6-Pad2)*%
X184660000Y-108060000D03*
%TO.N,GND*%
X184660000Y-110350000D03*
%TO.N,Net-(R5-Pad2)*%
X184660000Y-119490000D03*
%TO.N,GND*%
X184660000Y-121780000D03*
%TD*%
D15*
%TO.N,GND*%
X223881770Y-126962542D03*
X195325886Y-119702507D03*
X221682557Y-109327952D03*
X216522995Y-126983484D03*
X216602553Y-106296288D03*
X251639788Y-110108003D03*
X261094763Y-101032852D03*
X232526644Y-117659381D03*
X238145057Y-129117148D03*
X210452023Y-126538979D03*
X192170361Y-101032852D03*
X243446934Y-129117148D03*
X220599465Y-127397146D03*
X208075992Y-101032852D03*
X248748812Y-129117148D03*
X213164981Y-106226737D03*
X197193652Y-114243311D03*
X194377517Y-125192307D03*
X212185678Y-124121690D03*
X250491009Y-101032852D03*
X211095946Y-105457660D03*
X262087148Y-110644222D03*
X170962852Y-101032852D03*
X228493881Y-122146571D03*
X256871907Y-109625361D03*
X204981271Y-125192307D03*
X227541303Y-129117148D03*
X254050689Y-129117148D03*
X170962852Y-108080496D03*
X170962852Y-113382373D03*
X176034747Y-116904032D03*
X262087148Y-115946099D03*
X219784554Y-103739086D03*
X199909292Y-106573636D03*
X182626739Y-106040912D03*
X241899257Y-117431481D03*
X218679746Y-101032852D03*
X201213282Y-119480710D03*
X217391779Y-109980640D03*
X199679394Y-125192307D03*
X206075579Y-106497363D03*
X255792886Y-101032852D03*
X197472238Y-101032852D03*
X262087148Y-121247976D03*
X232843180Y-129117148D03*
X211103528Y-116117366D03*
X236703299Y-116377007D03*
X181737463Y-129117148D03*
X224837668Y-117559347D03*
X223981623Y-101032852D03*
X196629543Y-106560539D03*
X218914264Y-128691808D03*
X235786432Y-122108511D03*
X214335946Y-109469701D03*
X186024150Y-119421337D03*
X201553870Y-109431069D03*
X186868483Y-101032852D03*
X176435585Y-129117148D03*
X222239426Y-129117148D03*
X262087148Y-126549853D03*
X246002396Y-110050869D03*
X236298981Y-106808319D03*
X198917037Y-124120810D03*
X226188556Y-105380875D03*
X223890718Y-123924032D03*
X245189132Y-101032852D03*
X189075639Y-125192307D03*
X208297995Y-127348308D03*
X212922047Y-128589903D03*
X251209625Y-124048923D03*
X224718050Y-108018892D03*
X196578183Y-123502590D03*
X186620896Y-109686689D03*
X239887255Y-101032852D03*
X243886081Y-123741075D03*
X241529649Y-107204041D03*
X202774115Y-101032852D03*
X217337964Y-102992882D03*
X170962852Y-118684250D03*
X181304150Y-113458663D03*
X221643211Y-103381200D03*
X255508598Y-115620083D03*
X171133708Y-129117148D03*
X190833397Y-113033311D03*
X177589334Y-107534856D03*
X234585378Y-101032852D03*
X220672776Y-113678992D03*
X210954989Y-111304046D03*
X211959555Y-119820343D03*
X215384192Y-102998273D03*
X216794760Y-107502605D03*
X181566606Y-101032852D03*
X176771268Y-123036134D03*
X219536941Y-121228787D03*
X176264729Y-101032852D03*
X227491304Y-123754094D03*
X196143741Y-107279843D03*
X213377869Y-101032852D03*
X210478743Y-113961349D03*
X221515622Y-122269404D03*
X230999091Y-106663156D03*
X247095216Y-118485954D03*
X181974208Y-122517965D03*
X229283500Y-101032852D03*
%TO.N,/AVDD33*%
X225550537Y-126136221D03*
X215732509Y-128024784D03*
X219866438Y-117792456D03*
%TO.N,/AVDDK*%
X213885444Y-113428250D03*
X208896174Y-106532170D03*
%TO.N,+5V*%
X219730910Y-111682251D03*
X222732460Y-107644789D03*
%TO.N,Net-(C1-Pad1)*%
X206825730Y-114187602D03*
X206782770Y-117388853D03*
X206807298Y-111601724D03*
%TO.N,Net-(RJ1-Pad4)*%
X194000816Y-116120548D03*
%TO.N,Net-(RJ1-Pad8)*%
X200364645Y-119310357D03*
%TO.N,/LED0*%
X186064463Y-124482984D03*
X219863203Y-112854758D03*
%TO.N,Net-(R5-Pad2)*%
X182862876Y-124805192D03*
%TO.N,/SS_TXA*%
X216343632Y-119698426D03*
X216294853Y-118401787D03*
%TO.N,/HS_DM*%
X235364471Y-120594809D03*
%TO.N,/HS_DP*%
X234774420Y-120420751D03*
%TO.N,Net-(U2-VSW)*%
X227529401Y-115848862D03*
X220896258Y-114772789D03*
%TO.N,/XI*%
X217748834Y-112057873D03*
X219561511Y-108619801D03*
%TO.N,/LED1*%
X218916641Y-112133468D03*
X188136467Y-105834053D03*
%TO.N,/X0*%
X214468413Y-104312779D03*
X217123384Y-111940850D03*
%TO.N,Net-(U2-LED2)*%
X221047455Y-115945071D03*
X230584813Y-112650647D03*
%TD*%
%TA.AperFunction,Conductor*%
%TO.N,GND*%
G36*
X262589692Y-100530309D02*
G01*
X262593119Y-100538582D01*
X262593119Y-129611419D01*
X262589692Y-129619692D01*
X262581419Y-129623119D01*
X170468581Y-129623119D01*
X170460308Y-129619692D01*
X170456881Y-129611419D01*
X170456881Y-127977866D01*
X215376155Y-127977866D01*
X215376155Y-128071701D01*
X215400438Y-128162330D01*
X215400440Y-128162334D01*
X215447352Y-128243587D01*
X215447354Y-128243590D01*
X215447355Y-128243591D01*
X215513702Y-128309938D01*
X215513703Y-128309939D01*
X215513705Y-128309940D01*
X215594958Y-128356852D01*
X215594962Y-128356854D01*
X215666438Y-128376005D01*
X215685591Y-128381137D01*
X215685593Y-128381138D01*
X215685594Y-128381138D01*
X215779425Y-128381138D01*
X215779425Y-128381137D01*
X215824740Y-128368995D01*
X215870055Y-128356854D01*
X215870059Y-128356852D01*
X215897143Y-128341214D01*
X215951316Y-128309938D01*
X216017663Y-128243591D01*
X216064578Y-128162332D01*
X216088863Y-128071699D01*
X216088863Y-127977869D01*
X216083730Y-127958713D01*
X216064579Y-127887237D01*
X216064577Y-127887233D01*
X216017665Y-127805980D01*
X216017661Y-127805975D01*
X215951317Y-127739631D01*
X215951312Y-127739627D01*
X215870059Y-127692715D01*
X215870055Y-127692713D01*
X215779426Y-127668430D01*
X215779424Y-127668430D01*
X215685594Y-127668430D01*
X215685591Y-127668430D01*
X215594962Y-127692713D01*
X215594958Y-127692715D01*
X215513705Y-127739627D01*
X215513700Y-127739631D01*
X215447356Y-127805975D01*
X215447352Y-127805980D01*
X215400440Y-127887233D01*
X215400438Y-127887237D01*
X215376155Y-127977866D01*
X170456881Y-127977866D01*
X170456881Y-126089303D01*
X225194183Y-126089303D01*
X225194183Y-126183138D01*
X225218466Y-126273767D01*
X225218468Y-126273771D01*
X225265380Y-126355024D01*
X225265382Y-126355027D01*
X225265383Y-126355028D01*
X225331730Y-126421375D01*
X225331731Y-126421376D01*
X225331733Y-126421377D01*
X225412986Y-126468289D01*
X225412990Y-126468291D01*
X225484466Y-126487442D01*
X225503619Y-126492574D01*
X225503621Y-126492575D01*
X225503622Y-126492575D01*
X225597453Y-126492575D01*
X225597453Y-126492574D01*
X225642768Y-126480432D01*
X225688083Y-126468291D01*
X225688087Y-126468289D01*
X225715171Y-126452651D01*
X225769344Y-126421375D01*
X225835691Y-126355028D01*
X225882606Y-126273769D01*
X225906891Y-126183136D01*
X225906891Y-126089306D01*
X225901758Y-126070150D01*
X225882607Y-125998674D01*
X225882605Y-125998670D01*
X225835693Y-125917417D01*
X225835689Y-125917412D01*
X225769345Y-125851068D01*
X225769340Y-125851064D01*
X225688087Y-125804152D01*
X225688083Y-125804150D01*
X225597454Y-125779867D01*
X225597452Y-125779867D01*
X225503622Y-125779867D01*
X225503619Y-125779867D01*
X225412990Y-125804150D01*
X225412986Y-125804152D01*
X225331733Y-125851064D01*
X225331728Y-125851068D01*
X225265384Y-125917412D01*
X225265380Y-125917417D01*
X225218468Y-125998670D01*
X225218466Y-125998674D01*
X225194183Y-126089303D01*
X170456881Y-126089303D01*
X170456881Y-124758274D01*
X182506522Y-124758274D01*
X182506522Y-124852109D01*
X182530805Y-124942738D01*
X182530807Y-124942742D01*
X182577719Y-125023995D01*
X182577721Y-125023998D01*
X182577722Y-125023999D01*
X182644069Y-125090346D01*
X182644070Y-125090347D01*
X182644072Y-125090348D01*
X182725325Y-125137260D01*
X182725329Y-125137262D01*
X182796805Y-125156413D01*
X182815958Y-125161545D01*
X182815960Y-125161546D01*
X182815961Y-125161546D01*
X182909792Y-125161546D01*
X182909792Y-125161545D01*
X182955107Y-125149403D01*
X183000422Y-125137262D01*
X183000426Y-125137260D01*
X183027510Y-125121622D01*
X183081683Y-125090346D01*
X183148030Y-125023999D01*
X183194945Y-124942740D01*
X183219230Y-124852107D01*
X183219230Y-124758277D01*
X183204094Y-124701787D01*
X183194946Y-124667645D01*
X183194944Y-124667641D01*
X183148032Y-124586388D01*
X183148028Y-124586383D01*
X183081684Y-124520039D01*
X183081679Y-124520035D01*
X183000426Y-124473123D01*
X183000422Y-124473121D01*
X182909793Y-124448838D01*
X182909791Y-124448838D01*
X182815961Y-124448838D01*
X182815958Y-124448838D01*
X182725329Y-124473121D01*
X182725325Y-124473123D01*
X182644072Y-124520035D01*
X182644067Y-124520039D01*
X182577723Y-124586383D01*
X182577719Y-124586388D01*
X182530807Y-124667641D01*
X182530805Y-124667645D01*
X182506522Y-124758274D01*
X170456881Y-124758274D01*
X170456881Y-124436066D01*
X185708109Y-124436066D01*
X185708109Y-124529901D01*
X185732392Y-124620530D01*
X185732394Y-124620534D01*
X185779306Y-124701787D01*
X185779308Y-124701790D01*
X185779309Y-124701791D01*
X185845656Y-124768138D01*
X185845657Y-124768139D01*
X185845659Y-124768140D01*
X185926912Y-124815052D01*
X185926916Y-124815054D01*
X185998392Y-124834205D01*
X186017545Y-124839337D01*
X186017547Y-124839338D01*
X186017548Y-124839338D01*
X186111379Y-124839338D01*
X186111379Y-124839337D01*
X186156694Y-124827195D01*
X186202009Y-124815054D01*
X186202013Y-124815052D01*
X186229097Y-124799414D01*
X186283270Y-124768138D01*
X186349617Y-124701791D01*
X186396532Y-124620532D01*
X186420817Y-124529899D01*
X186420817Y-124436069D01*
X186415684Y-124416913D01*
X186396533Y-124345437D01*
X186396531Y-124345433D01*
X186349619Y-124264180D01*
X186349615Y-124264175D01*
X186283271Y-124197831D01*
X186283266Y-124197827D01*
X186202013Y-124150915D01*
X186202009Y-124150913D01*
X186111380Y-124126630D01*
X186111378Y-124126630D01*
X186017548Y-124126630D01*
X186017545Y-124126630D01*
X185926916Y-124150913D01*
X185926912Y-124150915D01*
X185845659Y-124197827D01*
X185845654Y-124197831D01*
X185779310Y-124264175D01*
X185779306Y-124264180D01*
X185732394Y-124345433D01*
X185732392Y-124345437D01*
X185708109Y-124436066D01*
X170456881Y-124436066D01*
X170456881Y-122978554D01*
X177984600Y-122978554D01*
X177984600Y-122999200D01*
X178259989Y-122999200D01*
X178259989Y-123100800D01*
X177984600Y-123100800D01*
X177984600Y-123121445D01*
X178012477Y-123261591D01*
X178067158Y-123393604D01*
X178067162Y-123393612D01*
X178146544Y-123512415D01*
X178146547Y-123512419D01*
X178247580Y-123613452D01*
X178247584Y-123613455D01*
X178366387Y-123692837D01*
X178366395Y-123692841D01*
X178498408Y-123747522D01*
X178638555Y-123775400D01*
X179059200Y-123775400D01*
X179059200Y-123500012D01*
X179160800Y-123500012D01*
X179160800Y-123775400D01*
X179581445Y-123775400D01*
X179721591Y-123747522D01*
X179853604Y-123692841D01*
X179853612Y-123692837D01*
X179972415Y-123613455D01*
X179972419Y-123613452D01*
X180073452Y-123512419D01*
X180073455Y-123512415D01*
X180152837Y-123393612D01*
X180152841Y-123393604D01*
X180207522Y-123261591D01*
X180235400Y-123121445D01*
X180235400Y-123100800D01*
X179960011Y-123100800D01*
X179960011Y-122999200D01*
X180235400Y-122999200D01*
X180235400Y-122978554D01*
X180207522Y-122838408D01*
X180152841Y-122706395D01*
X180152837Y-122706387D01*
X180073455Y-122587584D01*
X180073452Y-122587580D01*
X179972419Y-122486547D01*
X179972415Y-122486544D01*
X179853612Y-122407162D01*
X179853604Y-122407158D01*
X179764318Y-122370175D01*
X179721591Y-122352477D01*
X179581445Y-122324600D01*
X179160800Y-122324600D01*
X179160800Y-122599988D01*
X179059200Y-122599988D01*
X179059200Y-122324600D01*
X178638555Y-122324600D01*
X178498408Y-122352477D01*
X178366395Y-122407158D01*
X178366387Y-122407162D01*
X178247584Y-122486544D01*
X178247580Y-122486547D01*
X178146547Y-122587580D01*
X178146544Y-122587584D01*
X178067162Y-122706387D01*
X178067158Y-122706395D01*
X178012477Y-122838408D01*
X177984600Y-122978554D01*
X170456881Y-122978554D01*
X170456881Y-121143911D01*
X174007900Y-121143911D01*
X174007900Y-121396088D01*
X174047347Y-121645151D01*
X174047351Y-121645167D01*
X174125272Y-121884984D01*
X174125274Y-121884988D01*
X174125276Y-121884993D01*
X174168672Y-121970163D01*
X174239764Y-122109689D01*
X174387979Y-122313688D01*
X174387983Y-122313692D01*
X174387987Y-122313698D01*
X174566302Y-122492013D01*
X174566307Y-122492017D01*
X174566311Y-122492020D01*
X174770310Y-122640235D01*
X174770315Y-122640237D01*
X174770317Y-122640239D01*
X174995007Y-122754724D01*
X174995012Y-122754725D01*
X174995015Y-122754727D01*
X175196713Y-122820262D01*
X175234841Y-122832651D01*
X175336208Y-122848706D01*
X175483911Y-122872100D01*
X175483912Y-122872100D01*
X175736088Y-122872100D01*
X175985159Y-122832651D01*
X176224993Y-122754724D01*
X176449683Y-122640239D01*
X176653698Y-122492013D01*
X176832013Y-122313698D01*
X176910696Y-122205400D01*
X176980235Y-122109689D01*
X176980235Y-122109687D01*
X176980239Y-122109683D01*
X177094724Y-121884993D01*
X177105496Y-121851842D01*
X177153653Y-121703630D01*
X183884600Y-121703630D01*
X183884600Y-121856369D01*
X183914398Y-122006176D01*
X183972848Y-122147288D01*
X183972852Y-122147296D01*
X184057706Y-122274288D01*
X184057709Y-122274292D01*
X184075787Y-122292370D01*
X184270526Y-122097630D01*
X184342369Y-122169473D01*
X184147630Y-122364212D01*
X184165707Y-122382290D01*
X184165711Y-122382293D01*
X184292703Y-122467147D01*
X184292711Y-122467151D01*
X184433823Y-122525601D01*
X184583631Y-122555400D01*
X184736369Y-122555400D01*
X184886176Y-122525601D01*
X185027288Y-122467151D01*
X185027296Y-122467147D01*
X185154288Y-122382293D01*
X185154292Y-122382290D01*
X185172370Y-122364212D01*
X184977631Y-122169473D01*
X185049473Y-122097631D01*
X185244212Y-122292370D01*
X185262290Y-122274292D01*
X185262293Y-122274288D01*
X185347147Y-122147296D01*
X185347151Y-122147288D01*
X185405601Y-122006176D01*
X185435400Y-121856369D01*
X185435400Y-121703630D01*
X185405601Y-121553823D01*
X185347151Y-121412711D01*
X185347147Y-121412703D01*
X185262293Y-121285711D01*
X185262290Y-121285707D01*
X185244212Y-121267630D01*
X185049473Y-121462369D01*
X184977631Y-121390527D01*
X185172370Y-121195788D01*
X185172370Y-121195787D01*
X185154292Y-121177709D01*
X185154288Y-121177706D01*
X185027296Y-121092852D01*
X185027288Y-121092848D01*
X184886176Y-121034398D01*
X184736369Y-121004600D01*
X184583631Y-121004600D01*
X184433823Y-121034398D01*
X184292711Y-121092848D01*
X184292703Y-121092852D01*
X184165711Y-121177706D01*
X184165707Y-121177709D01*
X184147630Y-121195787D01*
X184147630Y-121195788D01*
X184342369Y-121390527D01*
X184270527Y-121462369D01*
X184075788Y-121267630D01*
X184057709Y-121285707D01*
X184057706Y-121285711D01*
X183972852Y-121412703D01*
X183972848Y-121412711D01*
X183914398Y-121553823D01*
X183884600Y-121703630D01*
X177153653Y-121703630D01*
X177155014Y-121699440D01*
X177155014Y-121699439D01*
X177156973Y-121693410D01*
X177172651Y-121645159D01*
X177212100Y-121396088D01*
X177212100Y-121143912D01*
X177172651Y-120894841D01*
X177126506Y-120752821D01*
X177094727Y-120655015D01*
X177094725Y-120655011D01*
X177094724Y-120655007D01*
X176980239Y-120430317D01*
X176980237Y-120430315D01*
X176980235Y-120430310D01*
X176943643Y-120379946D01*
X176939202Y-120373833D01*
X234418066Y-120373833D01*
X234418066Y-120467668D01*
X234442349Y-120558297D01*
X234442351Y-120558301D01*
X234489263Y-120639554D01*
X234489265Y-120639557D01*
X234489266Y-120639558D01*
X234555613Y-120705905D01*
X234555614Y-120705906D01*
X234555616Y-120705907D01*
X234636869Y-120752819D01*
X234636873Y-120752821D01*
X234708349Y-120771972D01*
X234727502Y-120777104D01*
X234727504Y-120777105D01*
X234727505Y-120777105D01*
X234821336Y-120777105D01*
X234821336Y-120777104D01*
X234866651Y-120764962D01*
X234911966Y-120752821D01*
X234911970Y-120752819D01*
X234989733Y-120707922D01*
X234993227Y-120705905D01*
X235004204Y-120694926D01*
X235012475Y-120691500D01*
X235020748Y-120694926D01*
X235023777Y-120700172D01*
X235032400Y-120732355D01*
X235032402Y-120732359D01*
X235079314Y-120813612D01*
X235079316Y-120813615D01*
X235079317Y-120813616D01*
X235145664Y-120879963D01*
X235145665Y-120879964D01*
X235145667Y-120879965D01*
X235226920Y-120926877D01*
X235226924Y-120926879D01*
X235298400Y-120946030D01*
X235317553Y-120951162D01*
X235317555Y-120951163D01*
X235317556Y-120951163D01*
X235411387Y-120951163D01*
X235411387Y-120951162D01*
X235456702Y-120939020D01*
X235502017Y-120926879D01*
X235502021Y-120926877D01*
X235557496Y-120894848D01*
X235583278Y-120879963D01*
X235649625Y-120813616D01*
X235696540Y-120732357D01*
X235703088Y-120707922D01*
X235713112Y-120670508D01*
X235720825Y-120641724D01*
X235720825Y-120547894D01*
X235710178Y-120508157D01*
X235696541Y-120457262D01*
X235696539Y-120457259D01*
X235693546Y-120452075D01*
X254874600Y-120452075D01*
X254874600Y-120707922D01*
X254914621Y-120960607D01*
X254914625Y-120960623D01*
X254993679Y-121203928D01*
X254993681Y-121203932D01*
X255109836Y-121431901D01*
X255260206Y-121638867D01*
X255260220Y-121638883D01*
X255314747Y-121693410D01*
X255650898Y-121357257D01*
X255722740Y-121429099D01*
X255386589Y-121765251D01*
X255386589Y-121765252D01*
X255441116Y-121819779D01*
X255441132Y-121819793D01*
X255648098Y-121970163D01*
X255876067Y-122086318D01*
X255876071Y-122086320D01*
X256119376Y-122165374D01*
X256119392Y-122165378D01*
X256372077Y-122205400D01*
X256627922Y-122205400D01*
X256880607Y-122165378D01*
X256880623Y-122165374D01*
X257123928Y-122086320D01*
X257123932Y-122086318D01*
X257351901Y-121970163D01*
X257558867Y-121819793D01*
X257558883Y-121819779D01*
X257613410Y-121765252D01*
X257277258Y-121429100D01*
X257349100Y-121357258D01*
X257685252Y-121693410D01*
X257739779Y-121638883D01*
X257739793Y-121638867D01*
X257890163Y-121431901D01*
X258006318Y-121203932D01*
X258006320Y-121203928D01*
X258085374Y-120960623D01*
X258085378Y-120960607D01*
X258125400Y-120707922D01*
X258125400Y-120452075D01*
X258085378Y-120199392D01*
X258085374Y-120199376D01*
X258006320Y-119956071D01*
X258006318Y-119956067D01*
X257890163Y-119728098D01*
X257739793Y-119521132D01*
X257739779Y-119521116D01*
X257685252Y-119466589D01*
X257349100Y-119802741D01*
X257277257Y-119730898D01*
X257613410Y-119394747D01*
X257558883Y-119340220D01*
X257558867Y-119340206D01*
X257351901Y-119189836D01*
X257123932Y-119073681D01*
X257123928Y-119073679D01*
X256880623Y-118994625D01*
X256880607Y-118994621D01*
X256627923Y-118954600D01*
X256372077Y-118954600D01*
X256119392Y-118994621D01*
X256119376Y-118994625D01*
X255876071Y-119073679D01*
X255876067Y-119073681D01*
X255648098Y-119189836D01*
X255441132Y-119340206D01*
X255441116Y-119340220D01*
X255386589Y-119394747D01*
X255722741Y-119730899D01*
X255650899Y-119802741D01*
X255314747Y-119466589D01*
X255260220Y-119521116D01*
X255260206Y-119521132D01*
X255109836Y-119728098D01*
X254993681Y-119956067D01*
X254993679Y-119956071D01*
X254914625Y-120199376D01*
X254914621Y-120199392D01*
X254874600Y-120452075D01*
X235693546Y-120452075D01*
X235649627Y-120376005D01*
X235649623Y-120376000D01*
X235583279Y-120309656D01*
X235583274Y-120309652D01*
X235502021Y-120262740D01*
X235502017Y-120262738D01*
X235411388Y-120238455D01*
X235411386Y-120238455D01*
X235317556Y-120238455D01*
X235317553Y-120238455D01*
X235226924Y-120262738D01*
X235226920Y-120262740D01*
X235145664Y-120309654D01*
X235134686Y-120320632D01*
X235126412Y-120324058D01*
X235118139Y-120320631D01*
X235115112Y-120315386D01*
X235113577Y-120309656D01*
X235106489Y-120283203D01*
X235106488Y-120283202D01*
X235106488Y-120283200D01*
X235059576Y-120201947D01*
X235059572Y-120201942D01*
X234993228Y-120135598D01*
X234993223Y-120135594D01*
X234911970Y-120088682D01*
X234911966Y-120088680D01*
X234821337Y-120064397D01*
X234821335Y-120064397D01*
X234727505Y-120064397D01*
X234727502Y-120064397D01*
X234636873Y-120088680D01*
X234636869Y-120088682D01*
X234555616Y-120135594D01*
X234555611Y-120135598D01*
X234489267Y-120201942D01*
X234489263Y-120201947D01*
X234442351Y-120283200D01*
X234442349Y-120283204D01*
X234418066Y-120373833D01*
X176939202Y-120373833D01*
X176832020Y-120226311D01*
X176832017Y-120226307D01*
X176832013Y-120226302D01*
X176653698Y-120047987D01*
X176653692Y-120047983D01*
X176653688Y-120047979D01*
X176449689Y-119899764D01*
X176428456Y-119888945D01*
X176224993Y-119785276D01*
X176224990Y-119785275D01*
X176224988Y-119785274D01*
X176224984Y-119785272D01*
X175985167Y-119707351D01*
X175985151Y-119707347D01*
X175736089Y-119667900D01*
X175736088Y-119667900D01*
X175483912Y-119667900D01*
X175483911Y-119667900D01*
X175234848Y-119707347D01*
X175234832Y-119707351D01*
X174995015Y-119785272D01*
X174995011Y-119785274D01*
X174770310Y-119899764D01*
X174566311Y-120047979D01*
X174566295Y-120047993D01*
X174387993Y-120226295D01*
X174387979Y-120226311D01*
X174239764Y-120430310D01*
X174125274Y-120655011D01*
X174125272Y-120655015D01*
X174047351Y-120894832D01*
X174047347Y-120894848D01*
X174007900Y-121143911D01*
X170456881Y-121143911D01*
X170456881Y-119406075D01*
X183807900Y-119406075D01*
X183807900Y-119573925D01*
X183823333Y-119651510D01*
X183840646Y-119738548D01*
X183904878Y-119893619D01*
X183904882Y-119893627D01*
X183998130Y-120033181D01*
X183998133Y-120033185D01*
X184116814Y-120151866D01*
X184116818Y-120151869D01*
X184256372Y-120245117D01*
X184256376Y-120245119D01*
X184256379Y-120245121D01*
X184411452Y-120309354D01*
X184576075Y-120342100D01*
X184576076Y-120342100D01*
X184743924Y-120342100D01*
X184743925Y-120342100D01*
X184908548Y-120309354D01*
X185063621Y-120245121D01*
X185203182Y-120151869D01*
X185321869Y-120033182D01*
X185415121Y-119893621D01*
X185479354Y-119738548D01*
X185512100Y-119573925D01*
X185512100Y-119406075D01*
X185509847Y-119394747D01*
X185484030Y-119264958D01*
X185483728Y-119263439D01*
X200008291Y-119263439D01*
X200008291Y-119357274D01*
X200032574Y-119447903D01*
X200032576Y-119447907D01*
X200079488Y-119529160D01*
X200079490Y-119529163D01*
X200079491Y-119529164D01*
X200145838Y-119595511D01*
X200145839Y-119595512D01*
X200145841Y-119595513D01*
X200227094Y-119642425D01*
X200227098Y-119642427D01*
X200298574Y-119661578D01*
X200317727Y-119666710D01*
X200317729Y-119666711D01*
X200317730Y-119666711D01*
X200411561Y-119666711D01*
X200411561Y-119666710D01*
X200456876Y-119654568D01*
X200468297Y-119651508D01*
X215987278Y-119651508D01*
X215987278Y-119745343D01*
X216011561Y-119835972D01*
X216011563Y-119835976D01*
X216058475Y-119917229D01*
X216058477Y-119917232D01*
X216058478Y-119917233D01*
X216124825Y-119983580D01*
X216124826Y-119983581D01*
X216124828Y-119983582D01*
X216206081Y-120030494D01*
X216206085Y-120030496D01*
X216277561Y-120049647D01*
X216296714Y-120054779D01*
X216296716Y-120054780D01*
X216296717Y-120054780D01*
X216390548Y-120054780D01*
X216390548Y-120054779D01*
X216435863Y-120042637D01*
X216481178Y-120030496D01*
X216481182Y-120030494D01*
X216508266Y-120014856D01*
X216562439Y-119983580D01*
X216628786Y-119917233D01*
X216675701Y-119835974D01*
X216677083Y-119830819D01*
X216689286Y-119785274D01*
X216699986Y-119745341D01*
X216699986Y-119651511D01*
X216694853Y-119632355D01*
X216675702Y-119560879D01*
X216675700Y-119560875D01*
X216628788Y-119479622D01*
X216628784Y-119479617D01*
X216562440Y-119413273D01*
X216562435Y-119413269D01*
X216539509Y-119400033D01*
X216481182Y-119366357D01*
X216481178Y-119366355D01*
X216390549Y-119342072D01*
X216390547Y-119342072D01*
X216296717Y-119342072D01*
X216296714Y-119342072D01*
X216206085Y-119366355D01*
X216206081Y-119366357D01*
X216124828Y-119413269D01*
X216124823Y-119413273D01*
X216058479Y-119479617D01*
X216058475Y-119479622D01*
X216011563Y-119560875D01*
X216011561Y-119560879D01*
X215987278Y-119651508D01*
X200468297Y-119651508D01*
X200502191Y-119642427D01*
X200502195Y-119642425D01*
X200505336Y-119640612D01*
X200581872Y-119596423D01*
X200583452Y-119595511D01*
X200649799Y-119529164D01*
X200696714Y-119447905D01*
X200701515Y-119429990D01*
X200710958Y-119394747D01*
X200720999Y-119357272D01*
X200720999Y-119263442D01*
X200715107Y-119241451D01*
X200696715Y-119172810D01*
X200696713Y-119172806D01*
X200649801Y-119091553D01*
X200649797Y-119091548D01*
X200583453Y-119025204D01*
X200583448Y-119025200D01*
X200502195Y-118978288D01*
X200502191Y-118978286D01*
X200411562Y-118954003D01*
X200411560Y-118954003D01*
X200317730Y-118954003D01*
X200317727Y-118954003D01*
X200227098Y-118978286D01*
X200227094Y-118978288D01*
X200145841Y-119025200D01*
X200145836Y-119025204D01*
X200079492Y-119091548D01*
X200079488Y-119091553D01*
X200032576Y-119172806D01*
X200032574Y-119172810D01*
X200008291Y-119263439D01*
X185483728Y-119263439D01*
X185482750Y-119258526D01*
X185479354Y-119241452D01*
X185415121Y-119086379D01*
X185415119Y-119086376D01*
X185415117Y-119086372D01*
X185321869Y-118946818D01*
X185321866Y-118946814D01*
X185203185Y-118828133D01*
X185203181Y-118828130D01*
X185063627Y-118734882D01*
X185063619Y-118734878D01*
X184908548Y-118670646D01*
X184743925Y-118637900D01*
X184576075Y-118637900D01*
X184493763Y-118654273D01*
X184411451Y-118670646D01*
X184256380Y-118734878D01*
X184256372Y-118734882D01*
X184116818Y-118828130D01*
X184116814Y-118828133D01*
X183998133Y-118946814D01*
X183998130Y-118946818D01*
X183904882Y-119086372D01*
X183904878Y-119086380D01*
X183840646Y-119241451D01*
X183810153Y-119394747D01*
X183807900Y-119406075D01*
X170456881Y-119406075D01*
X170456881Y-118406075D01*
X177287900Y-118406075D01*
X177287900Y-118573925D01*
X177300626Y-118637900D01*
X177320646Y-118738548D01*
X177384878Y-118893619D01*
X177384882Y-118893627D01*
X177478130Y-119033181D01*
X177478133Y-119033185D01*
X177596814Y-119151866D01*
X177596818Y-119151869D01*
X177736372Y-119245117D01*
X177736376Y-119245119D01*
X177736379Y-119245121D01*
X177891452Y-119309354D01*
X178056075Y-119342100D01*
X178056076Y-119342100D01*
X178223924Y-119342100D01*
X178223925Y-119342100D01*
X178388548Y-119309354D01*
X178543621Y-119245121D01*
X178683182Y-119151869D01*
X178801869Y-119033182D01*
X178895121Y-118893621D01*
X178959354Y-118738548D01*
X178992100Y-118573925D01*
X178992100Y-118406075D01*
X178981914Y-118354869D01*
X215938499Y-118354869D01*
X215938499Y-118448704D01*
X215962782Y-118539333D01*
X215962784Y-118539337D01*
X216009696Y-118620590D01*
X216009698Y-118620593D01*
X216009699Y-118620594D01*
X216076046Y-118686941D01*
X216076047Y-118686942D01*
X216076049Y-118686943D01*
X216157302Y-118733855D01*
X216157306Y-118733857D01*
X216228782Y-118753008D01*
X216247935Y-118758140D01*
X216247937Y-118758141D01*
X216247938Y-118758141D01*
X216341769Y-118758141D01*
X216341769Y-118758140D01*
X216387084Y-118745998D01*
X216432399Y-118733857D01*
X216432403Y-118733855D01*
X216459487Y-118718217D01*
X216513660Y-118686941D01*
X216580007Y-118620594D01*
X216626922Y-118539335D01*
X216651207Y-118448702D01*
X216651207Y-118354872D01*
X216633652Y-118289354D01*
X216626923Y-118264240D01*
X216626921Y-118264236D01*
X216580009Y-118182983D01*
X216580005Y-118182978D01*
X216513661Y-118116634D01*
X216513656Y-118116630D01*
X216432403Y-118069718D01*
X216432399Y-118069716D01*
X216341770Y-118045433D01*
X216341768Y-118045433D01*
X216247938Y-118045433D01*
X216247935Y-118045433D01*
X216157306Y-118069716D01*
X216157302Y-118069718D01*
X216076049Y-118116630D01*
X216076044Y-118116634D01*
X216009700Y-118182978D01*
X216009696Y-118182983D01*
X215962784Y-118264236D01*
X215962782Y-118264240D01*
X215938499Y-118354869D01*
X178981914Y-118354869D01*
X178959354Y-118241452D01*
X178895121Y-118086379D01*
X178895119Y-118086376D01*
X178895117Y-118086372D01*
X178801869Y-117946818D01*
X178801866Y-117946814D01*
X178683185Y-117828133D01*
X178683181Y-117828130D01*
X178543627Y-117734882D01*
X178543619Y-117734878D01*
X178388548Y-117670646D01*
X178223925Y-117637900D01*
X178056075Y-117637900D01*
X177976443Y-117653740D01*
X177891451Y-117670646D01*
X177736380Y-117734878D01*
X177736372Y-117734882D01*
X177596818Y-117828130D01*
X177596814Y-117828133D01*
X177478133Y-117946814D01*
X177478130Y-117946818D01*
X177384882Y-118086372D01*
X177384878Y-118086380D01*
X177320646Y-118241451D01*
X177304604Y-118322100D01*
X177287900Y-118406075D01*
X170456881Y-118406075D01*
X170456881Y-117386075D01*
X179087900Y-117386075D01*
X179087900Y-117553925D01*
X179107987Y-117654908D01*
X179120646Y-117718548D01*
X179184878Y-117873619D01*
X179184882Y-117873627D01*
X179278130Y-118013181D01*
X179278133Y-118013185D01*
X179396814Y-118131866D01*
X179396818Y-118131869D01*
X179536372Y-118225117D01*
X179536376Y-118225119D01*
X179536379Y-118225121D01*
X179691452Y-118289354D01*
X179856075Y-118322100D01*
X179856076Y-118322100D01*
X180023924Y-118322100D01*
X180023925Y-118322100D01*
X180188548Y-118289354D01*
X180343621Y-118225121D01*
X180483182Y-118131869D01*
X180601869Y-118013182D01*
X180695121Y-117873621D01*
X180748174Y-117745538D01*
X219510084Y-117745538D01*
X219510084Y-117839373D01*
X219534367Y-117930002D01*
X219534369Y-117930006D01*
X219581281Y-118011259D01*
X219581283Y-118011262D01*
X219581284Y-118011263D01*
X219647631Y-118077610D01*
X219647632Y-118077611D01*
X219647634Y-118077612D01*
X219728887Y-118124524D01*
X219728891Y-118124526D01*
X219800367Y-118143677D01*
X219819520Y-118148809D01*
X219819522Y-118148810D01*
X219819523Y-118148810D01*
X219913354Y-118148810D01*
X219913354Y-118148809D01*
X219976578Y-118131869D01*
X220003984Y-118124526D01*
X220003988Y-118124524D01*
X220031072Y-118108886D01*
X220085245Y-118077610D01*
X220151592Y-118011263D01*
X220175049Y-117970633D01*
X220195089Y-117935925D01*
X252147900Y-117935925D01*
X252147900Y-118084075D01*
X252160777Y-118148810D01*
X252176803Y-118229379D01*
X252233497Y-118366251D01*
X252233501Y-118366259D01*
X252315805Y-118489435D01*
X252315808Y-118489439D01*
X252420560Y-118594191D01*
X252420564Y-118594194D01*
X252543740Y-118676498D01*
X252543744Y-118676500D01*
X252543747Y-118676502D01*
X252680621Y-118733197D01*
X252825925Y-118762100D01*
X252825926Y-118762100D01*
X252974074Y-118762100D01*
X252974075Y-118762100D01*
X253119379Y-118733197D01*
X253256253Y-118676502D01*
X253379436Y-118594194D01*
X253484194Y-118489436D01*
X253566502Y-118366253D01*
X253623197Y-118229379D01*
X253652100Y-118084075D01*
X253652100Y-117935925D01*
X253623197Y-117790621D01*
X253566502Y-117653747D01*
X253566500Y-117653744D01*
X253566498Y-117653740D01*
X253484194Y-117530564D01*
X253484191Y-117530560D01*
X253389556Y-117435925D01*
X253647900Y-117435925D01*
X253647900Y-117584075D01*
X253652592Y-117607661D01*
X253676803Y-117729379D01*
X253733497Y-117866251D01*
X253733501Y-117866259D01*
X253815805Y-117989435D01*
X253815808Y-117989439D01*
X253920560Y-118094191D01*
X253920564Y-118094194D01*
X254043740Y-118176498D01*
X254043744Y-118176500D01*
X254043747Y-118176502D01*
X254180621Y-118233197D01*
X254325925Y-118262100D01*
X254325926Y-118262100D01*
X254474074Y-118262100D01*
X254474075Y-118262100D01*
X254619379Y-118233197D01*
X254756253Y-118176502D01*
X254879436Y-118094194D01*
X254984194Y-117989436D01*
X255066502Y-117866253D01*
X255123197Y-117729379D01*
X255152100Y-117584075D01*
X255152100Y-117435925D01*
X255123197Y-117290621D01*
X255066502Y-117153747D01*
X255066500Y-117153744D01*
X255066498Y-117153740D01*
X254984194Y-117030564D01*
X254984191Y-117030560D01*
X254879439Y-116925808D01*
X254879435Y-116925805D01*
X254756259Y-116843501D01*
X254756251Y-116843497D01*
X254619379Y-116786803D01*
X254474075Y-116757900D01*
X254325925Y-116757900D01*
X254253273Y-116772351D01*
X254180620Y-116786803D01*
X254043748Y-116843497D01*
X254043740Y-116843501D01*
X253920564Y-116925805D01*
X253920560Y-116925808D01*
X253815808Y-117030560D01*
X253815805Y-117030564D01*
X253733501Y-117153740D01*
X253733497Y-117153748D01*
X253676803Y-117290620D01*
X253666595Y-117341938D01*
X253647900Y-117435925D01*
X253389556Y-117435925D01*
X253379439Y-117425808D01*
X253379435Y-117425805D01*
X253256259Y-117343501D01*
X253256251Y-117343497D01*
X253119379Y-117286803D01*
X252974075Y-117257900D01*
X252825925Y-117257900D01*
X252753273Y-117272351D01*
X252680620Y-117286803D01*
X252543748Y-117343497D01*
X252543740Y-117343501D01*
X252420564Y-117425805D01*
X252420560Y-117425808D01*
X252315808Y-117530560D01*
X252315805Y-117530564D01*
X252233501Y-117653740D01*
X252233497Y-117653748D01*
X252176803Y-117790620D01*
X252160293Y-117873621D01*
X252147900Y-117935925D01*
X220195089Y-117935925D01*
X220198505Y-117930008D01*
X220198508Y-117930002D01*
X220215589Y-117866253D01*
X220222792Y-117839371D01*
X220222792Y-117745541D01*
X220215559Y-117718548D01*
X220198508Y-117654909D01*
X220198506Y-117654905D01*
X220151594Y-117573652D01*
X220151590Y-117573647D01*
X220085246Y-117507303D01*
X220085241Y-117507299D01*
X220003988Y-117460387D01*
X220003984Y-117460385D01*
X219913355Y-117436102D01*
X219913353Y-117436102D01*
X219819523Y-117436102D01*
X219819520Y-117436102D01*
X219728891Y-117460385D01*
X219728887Y-117460387D01*
X219647634Y-117507299D01*
X219647629Y-117507303D01*
X219581285Y-117573647D01*
X219581281Y-117573652D01*
X219534369Y-117654905D01*
X219534367Y-117654909D01*
X219510084Y-117745538D01*
X180748174Y-117745538D01*
X180759354Y-117718548D01*
X180792100Y-117553925D01*
X180792100Y-117386075D01*
X180783320Y-117341935D01*
X206426416Y-117341935D01*
X206426416Y-117435770D01*
X206450699Y-117526399D01*
X206450701Y-117526403D01*
X206497613Y-117607656D01*
X206497615Y-117607659D01*
X206497616Y-117607660D01*
X206563963Y-117674007D01*
X206563964Y-117674008D01*
X206563966Y-117674009D01*
X206645219Y-117720921D01*
X206645223Y-117720923D01*
X206716699Y-117740074D01*
X206735852Y-117745206D01*
X206735854Y-117745207D01*
X206735855Y-117745207D01*
X206829686Y-117745207D01*
X206829686Y-117745206D01*
X206849767Y-117739825D01*
X206873479Y-117733473D01*
X206920316Y-117720923D01*
X206920320Y-117720921D01*
X206947404Y-117705283D01*
X207001577Y-117674007D01*
X207067924Y-117607660D01*
X207099200Y-117553487D01*
X207114838Y-117526403D01*
X207114840Y-117526399D01*
X207132528Y-117460385D01*
X207139124Y-117435768D01*
X207139124Y-117341938D01*
X207133991Y-117322782D01*
X207114840Y-117251306D01*
X207114838Y-117251302D01*
X207067926Y-117170049D01*
X207067922Y-117170044D01*
X207001578Y-117103700D01*
X207001573Y-117103696D01*
X206920320Y-117056784D01*
X206920316Y-117056782D01*
X206829687Y-117032499D01*
X206829685Y-117032499D01*
X206735855Y-117032499D01*
X206735852Y-117032499D01*
X206645223Y-117056782D01*
X206645219Y-117056784D01*
X206563966Y-117103696D01*
X206563961Y-117103700D01*
X206497617Y-117170044D01*
X206497613Y-117170049D01*
X206450701Y-117251302D01*
X206450699Y-117251306D01*
X206426416Y-117341935D01*
X180783320Y-117341935D01*
X180759354Y-117221452D01*
X180695121Y-117066379D01*
X180695119Y-117066376D01*
X180695117Y-117066372D01*
X180601869Y-116926818D01*
X180601866Y-116926814D01*
X180483185Y-116808133D01*
X180483181Y-116808130D01*
X180343627Y-116714882D01*
X180343619Y-116714878D01*
X180188548Y-116650646D01*
X180023925Y-116617900D01*
X179856075Y-116617900D01*
X179773763Y-116634273D01*
X179691451Y-116650646D01*
X179536380Y-116714878D01*
X179536372Y-116714882D01*
X179396818Y-116808130D01*
X179396814Y-116808133D01*
X179278133Y-116926814D01*
X179278130Y-116926818D01*
X179184882Y-117066372D01*
X179184878Y-117066380D01*
X179120646Y-117221451D01*
X179096378Y-117343454D01*
X179087900Y-117386075D01*
X170456881Y-117386075D01*
X170456881Y-116366075D01*
X177287900Y-116366075D01*
X177287900Y-116533925D01*
X177304604Y-116617900D01*
X177320646Y-116698548D01*
X177384878Y-116853619D01*
X177384882Y-116853627D01*
X177478130Y-116993181D01*
X177478133Y-116993185D01*
X177596814Y-117111866D01*
X177596818Y-117111869D01*
X177736372Y-117205117D01*
X177736376Y-117205119D01*
X177736379Y-117205121D01*
X177891452Y-117269354D01*
X178056075Y-117302100D01*
X178056076Y-117302100D01*
X178223924Y-117302100D01*
X178223925Y-117302100D01*
X178388548Y-117269354D01*
X178543621Y-117205121D01*
X178683182Y-117111869D01*
X178801869Y-116993182D01*
X178895121Y-116853621D01*
X178959354Y-116698548D01*
X178992100Y-116533925D01*
X178992100Y-116366075D01*
X178959354Y-116201452D01*
X178895121Y-116046379D01*
X178895119Y-116046376D01*
X178895117Y-116046372D01*
X178801869Y-115906818D01*
X178801866Y-115906814D01*
X178683185Y-115788133D01*
X178683181Y-115788130D01*
X178543627Y-115694882D01*
X178543619Y-115694878D01*
X178388548Y-115630646D01*
X178385567Y-115630053D01*
X178223925Y-115597900D01*
X178056075Y-115597900D01*
X177980163Y-115613000D01*
X177891451Y-115630646D01*
X177736380Y-115694878D01*
X177736372Y-115694882D01*
X177596818Y-115788130D01*
X177596814Y-115788133D01*
X177478133Y-115906814D01*
X177478130Y-115906818D01*
X177384882Y-116046372D01*
X177384878Y-116046380D01*
X177320646Y-116201451D01*
X177305590Y-116277141D01*
X177287900Y-116366075D01*
X170456881Y-116366075D01*
X170456881Y-115346075D01*
X179087900Y-115346075D01*
X179087900Y-115513925D01*
X179091209Y-115530560D01*
X179120646Y-115678548D01*
X179184878Y-115833619D01*
X179184882Y-115833627D01*
X179278130Y-115973181D01*
X179278133Y-115973185D01*
X179396814Y-116091866D01*
X179396818Y-116091869D01*
X179536372Y-116185117D01*
X179536376Y-116185119D01*
X179536379Y-116185121D01*
X179691452Y-116249354D01*
X179856075Y-116282100D01*
X179856076Y-116282100D01*
X180023924Y-116282100D01*
X180023925Y-116282100D01*
X180188548Y-116249354D01*
X180343621Y-116185121D01*
X180483182Y-116091869D01*
X180492434Y-116082617D01*
X180501421Y-116073630D01*
X193644462Y-116073630D01*
X193644462Y-116167465D01*
X193668745Y-116258094D01*
X193668747Y-116258098D01*
X193715659Y-116339351D01*
X193715661Y-116339354D01*
X193715662Y-116339355D01*
X193782009Y-116405702D01*
X193782010Y-116405703D01*
X193782012Y-116405704D01*
X193863265Y-116452616D01*
X193863269Y-116452618D01*
X193934745Y-116471769D01*
X193953898Y-116476901D01*
X193953900Y-116476902D01*
X193953901Y-116476902D01*
X194047732Y-116476902D01*
X194047732Y-116476901D01*
X194093047Y-116464759D01*
X194138362Y-116452618D01*
X194138366Y-116452616D01*
X194165450Y-116436978D01*
X194219623Y-116405702D01*
X194285970Y-116339355D01*
X194321890Y-116277140D01*
X194332884Y-116258098D01*
X194332886Y-116258094D01*
X194348063Y-116201451D01*
X194357170Y-116167463D01*
X194357170Y-116073633D01*
X194349867Y-116046379D01*
X194332886Y-115983001D01*
X194332884Y-115982997D01*
X194286835Y-115903239D01*
X194286834Y-115903238D01*
X194285970Y-115901741D01*
X194282382Y-115898153D01*
X220691101Y-115898153D01*
X220691101Y-115991988D01*
X220715384Y-116082617D01*
X220715386Y-116082621D01*
X220762298Y-116163874D01*
X220762300Y-116163877D01*
X220762301Y-116163878D01*
X220828648Y-116230225D01*
X220828649Y-116230226D01*
X220828651Y-116230227D01*
X220909904Y-116277139D01*
X220909908Y-116277141D01*
X220981384Y-116296292D01*
X221000537Y-116301424D01*
X221000539Y-116301425D01*
X221000540Y-116301425D01*
X221094371Y-116301425D01*
X221094371Y-116301424D01*
X221139686Y-116289282D01*
X221185001Y-116277141D01*
X221185005Y-116277139D01*
X221217992Y-116258094D01*
X221266262Y-116230225D01*
X221332609Y-116163878D01*
X221363885Y-116109705D01*
X221379523Y-116082621D01*
X221379525Y-116082617D01*
X221403808Y-115991988D01*
X221403809Y-115991987D01*
X221403809Y-115898155D01*
X221403808Y-115898153D01*
X221403171Y-115895777D01*
X221398676Y-115879000D01*
X221379525Y-115807524D01*
X221379523Y-115807520D01*
X221379240Y-115807030D01*
X221376304Y-115801944D01*
X227173047Y-115801944D01*
X227173047Y-115895779D01*
X227197330Y-115986408D01*
X227197332Y-115986412D01*
X227244244Y-116067665D01*
X227244246Y-116067668D01*
X227244247Y-116067669D01*
X227310594Y-116134016D01*
X227310595Y-116134017D01*
X227310597Y-116134018D01*
X227391850Y-116180930D01*
X227391854Y-116180932D01*
X227463330Y-116200083D01*
X227482483Y-116205215D01*
X227482485Y-116205216D01*
X227482486Y-116205216D01*
X227576317Y-116205216D01*
X227576317Y-116205215D01*
X227621632Y-116193073D01*
X227666947Y-116180932D01*
X227666951Y-116180930D01*
X227696493Y-116163874D01*
X227748208Y-116134016D01*
X227814555Y-116067669D01*
X227861470Y-115986410D01*
X227862384Y-115983001D01*
X227874998Y-115935925D01*
X252147900Y-115935925D01*
X252147900Y-116084075D01*
X252171248Y-116201451D01*
X252176803Y-116229379D01*
X252233497Y-116366251D01*
X252233501Y-116366259D01*
X252315805Y-116489435D01*
X252315808Y-116489439D01*
X252420560Y-116594191D01*
X252420564Y-116594194D01*
X252543740Y-116676498D01*
X252543744Y-116676500D01*
X252543747Y-116676502D01*
X252680621Y-116733197D01*
X252825925Y-116762100D01*
X252825926Y-116762100D01*
X252974074Y-116762100D01*
X252974075Y-116762100D01*
X253119379Y-116733197D01*
X253256253Y-116676502D01*
X253379436Y-116594194D01*
X253484194Y-116489436D01*
X253566502Y-116366253D01*
X253623197Y-116229379D01*
X253652100Y-116084075D01*
X253652100Y-115935925D01*
X253623197Y-115790621D01*
X253566502Y-115653747D01*
X253566500Y-115653744D01*
X253566498Y-115653740D01*
X253484194Y-115530564D01*
X253484191Y-115530560D01*
X253379439Y-115425808D01*
X253379435Y-115425805D01*
X253256259Y-115343501D01*
X253256251Y-115343497D01*
X253119379Y-115286803D01*
X252974075Y-115257900D01*
X252825925Y-115257900D01*
X252753273Y-115272351D01*
X252680620Y-115286803D01*
X252543748Y-115343497D01*
X252543740Y-115343501D01*
X252420564Y-115425805D01*
X252420560Y-115425808D01*
X252315808Y-115530560D01*
X252315805Y-115530564D01*
X252233501Y-115653740D01*
X252233497Y-115653748D01*
X252176803Y-115790620D01*
X252167897Y-115835394D01*
X252147900Y-115935925D01*
X227874998Y-115935925D01*
X227875963Y-115932322D01*
X227878779Y-115921808D01*
X227885755Y-115895777D01*
X227885755Y-115801947D01*
X227867334Y-115733197D01*
X227861471Y-115711315D01*
X227861469Y-115711311D01*
X227814557Y-115630058D01*
X227814553Y-115630053D01*
X227748209Y-115563709D01*
X227748204Y-115563705D01*
X227666951Y-115516793D01*
X227666947Y-115516791D01*
X227576318Y-115492508D01*
X227576316Y-115492508D01*
X227482486Y-115492508D01*
X227482483Y-115492508D01*
X227391854Y-115516791D01*
X227391850Y-115516793D01*
X227310597Y-115563705D01*
X227310592Y-115563709D01*
X227244248Y-115630053D01*
X227244244Y-115630058D01*
X227197332Y-115711311D01*
X227197330Y-115711315D01*
X227173047Y-115801944D01*
X221376304Y-115801944D01*
X221332611Y-115726267D01*
X221332607Y-115726262D01*
X221266263Y-115659918D01*
X221266258Y-115659914D01*
X221185005Y-115613002D01*
X221185001Y-115613000D01*
X221094372Y-115588717D01*
X221094370Y-115588717D01*
X221000540Y-115588717D01*
X221000537Y-115588717D01*
X220909908Y-115613000D01*
X220909904Y-115613002D01*
X220828651Y-115659914D01*
X220828646Y-115659918D01*
X220762302Y-115726262D01*
X220762298Y-115726267D01*
X220715386Y-115807520D01*
X220715384Y-115807524D01*
X220691101Y-115898153D01*
X194282382Y-115898153D01*
X194219623Y-115835394D01*
X194219622Y-115835393D01*
X194219619Y-115835391D01*
X194138366Y-115788479D01*
X194138362Y-115788477D01*
X194047733Y-115764194D01*
X194047731Y-115764194D01*
X193953901Y-115764194D01*
X193953898Y-115764194D01*
X193863269Y-115788477D01*
X193863265Y-115788479D01*
X193782012Y-115835391D01*
X193782007Y-115835395D01*
X193715663Y-115901739D01*
X193715659Y-115901744D01*
X193668747Y-115982997D01*
X193668745Y-115983001D01*
X193644462Y-116073630D01*
X180501421Y-116073630D01*
X180510459Y-116064593D01*
X180601866Y-115973185D01*
X180601869Y-115973182D01*
X180695121Y-115833621D01*
X180759354Y-115678548D01*
X180792100Y-115513925D01*
X180792100Y-115346075D01*
X180759354Y-115181452D01*
X180695121Y-115026379D01*
X180695119Y-115026376D01*
X180695117Y-115026372D01*
X180601869Y-114886818D01*
X180601866Y-114886814D01*
X180483185Y-114768133D01*
X180483181Y-114768130D01*
X180433352Y-114734835D01*
X180419937Y-114725871D01*
X220539904Y-114725871D01*
X220539904Y-114819706D01*
X220564187Y-114910335D01*
X220564189Y-114910339D01*
X220611101Y-114991592D01*
X220611103Y-114991595D01*
X220611104Y-114991596D01*
X220677451Y-115057943D01*
X220677452Y-115057944D01*
X220677454Y-115057945D01*
X220758707Y-115104857D01*
X220758711Y-115104859D01*
X220830187Y-115124010D01*
X220849340Y-115129142D01*
X220849342Y-115129143D01*
X220849343Y-115129143D01*
X220943174Y-115129143D01*
X220943174Y-115129142D01*
X220988489Y-115117000D01*
X221033804Y-115104859D01*
X221033808Y-115104857D01*
X221069805Y-115084074D01*
X221115065Y-115057943D01*
X221181412Y-114991596D01*
X221203589Y-114953185D01*
X221213554Y-114935925D01*
X253647900Y-114935925D01*
X253647900Y-115084075D01*
X253667270Y-115181452D01*
X253676803Y-115229379D01*
X253733497Y-115366251D01*
X253733501Y-115366259D01*
X253815805Y-115489435D01*
X253815808Y-115489439D01*
X253920560Y-115594191D01*
X253920564Y-115594194D01*
X254043740Y-115676498D01*
X254043744Y-115676500D01*
X254043747Y-115676502D01*
X254180621Y-115733197D01*
X254325925Y-115762100D01*
X254325926Y-115762100D01*
X254474074Y-115762100D01*
X254474075Y-115762100D01*
X254619379Y-115733197D01*
X254756253Y-115676502D01*
X254879436Y-115594194D01*
X254984194Y-115489436D01*
X255066502Y-115366253D01*
X255123197Y-115229379D01*
X255152100Y-115084075D01*
X255152100Y-114935925D01*
X255123197Y-114790621D01*
X255066502Y-114653747D01*
X255066500Y-114653744D01*
X255066498Y-114653740D01*
X254984194Y-114530564D01*
X254984191Y-114530560D01*
X254879439Y-114425808D01*
X254879435Y-114425805D01*
X254756259Y-114343501D01*
X254756251Y-114343497D01*
X254619379Y-114286803D01*
X254474075Y-114257900D01*
X254325925Y-114257900D01*
X254253273Y-114272351D01*
X254180620Y-114286803D01*
X254043748Y-114343497D01*
X254043740Y-114343501D01*
X253920564Y-114425805D01*
X253920560Y-114425808D01*
X253815808Y-114530560D01*
X253815805Y-114530564D01*
X253733501Y-114653740D01*
X253733497Y-114653748D01*
X253676803Y-114790620D01*
X253657669Y-114886814D01*
X253647900Y-114935925D01*
X221213554Y-114935925D01*
X221217262Y-114929503D01*
X221217263Y-114929500D01*
X221228327Y-114910337D01*
X221252612Y-114819704D01*
X221252612Y-114725874D01*
X221238948Y-114674878D01*
X221228328Y-114635242D01*
X221228326Y-114635238D01*
X221181414Y-114553985D01*
X221181410Y-114553980D01*
X221115066Y-114487636D01*
X221115061Y-114487632D01*
X221033808Y-114440720D01*
X221033804Y-114440718D01*
X220943175Y-114416435D01*
X220943173Y-114416435D01*
X220849343Y-114416435D01*
X220849340Y-114416435D01*
X220758711Y-114440718D01*
X220758707Y-114440720D01*
X220677454Y-114487632D01*
X220677449Y-114487636D01*
X220611105Y-114553980D01*
X220611101Y-114553985D01*
X220564189Y-114635238D01*
X220564187Y-114635242D01*
X220539904Y-114725871D01*
X180419937Y-114725871D01*
X180343627Y-114674882D01*
X180343619Y-114674878D01*
X180188548Y-114610646D01*
X180177920Y-114608532D01*
X180023925Y-114577900D01*
X179856075Y-114577900D01*
X179773763Y-114594273D01*
X179691451Y-114610646D01*
X179536380Y-114674878D01*
X179536372Y-114674882D01*
X179396818Y-114768130D01*
X179396814Y-114768133D01*
X179278133Y-114886814D01*
X179278130Y-114886818D01*
X179184882Y-115026372D01*
X179184878Y-115026380D01*
X179120646Y-115181451D01*
X179105439Y-115257900D01*
X179087900Y-115346075D01*
X170456881Y-115346075D01*
X170456881Y-114326075D01*
X177287900Y-114326075D01*
X177287900Y-114493925D01*
X177293783Y-114523500D01*
X177320646Y-114658548D01*
X177384878Y-114813619D01*
X177384882Y-114813627D01*
X177478130Y-114953181D01*
X177478133Y-114953185D01*
X177596814Y-115071866D01*
X177596818Y-115071869D01*
X177736372Y-115165117D01*
X177736376Y-115165119D01*
X177736379Y-115165121D01*
X177891452Y-115229354D01*
X178056075Y-115262100D01*
X178056076Y-115262100D01*
X178223924Y-115262100D01*
X178223925Y-115262100D01*
X178388548Y-115229354D01*
X178543621Y-115165121D01*
X178683182Y-115071869D01*
X178801869Y-114953182D01*
X178895121Y-114813621D01*
X178959354Y-114658548D01*
X178992100Y-114493925D01*
X178992100Y-114326075D01*
X178959354Y-114161452D01*
X178895121Y-114006379D01*
X178895119Y-114006376D01*
X178895117Y-114006372D01*
X178801869Y-113866818D01*
X178801866Y-113866814D01*
X178683185Y-113748133D01*
X178683181Y-113748130D01*
X178543627Y-113654882D01*
X178543619Y-113654878D01*
X178388548Y-113590646D01*
X178332303Y-113579458D01*
X178223925Y-113557900D01*
X178056075Y-113557900D01*
X177973763Y-113574273D01*
X177891451Y-113590646D01*
X177736380Y-113654878D01*
X177736372Y-113654882D01*
X177596818Y-113748130D01*
X177596814Y-113748133D01*
X177478133Y-113866814D01*
X177478130Y-113866818D01*
X177384882Y-114006372D01*
X177384878Y-114006380D01*
X177320646Y-114161451D01*
X177308023Y-114224912D01*
X177287900Y-114326075D01*
X170456881Y-114326075D01*
X170456881Y-113306075D01*
X179087900Y-113306075D01*
X179087900Y-113473925D01*
X179090986Y-113489439D01*
X179120646Y-113638548D01*
X179184878Y-113793619D01*
X179184882Y-113793627D01*
X179278130Y-113933181D01*
X179278133Y-113933185D01*
X179396814Y-114051866D01*
X179396818Y-114051869D01*
X179536372Y-114145117D01*
X179536376Y-114145119D01*
X179536379Y-114145121D01*
X179691452Y-114209354D01*
X179856075Y-114242100D01*
X179856076Y-114242100D01*
X180023924Y-114242100D01*
X180023925Y-114242100D01*
X180188548Y-114209354D01*
X180343621Y-114145121D01*
X180350257Y-114140687D01*
X180350261Y-114140684D01*
X206469376Y-114140684D01*
X206469376Y-114234519D01*
X206493659Y-114325148D01*
X206493661Y-114325152D01*
X206540573Y-114406405D01*
X206540575Y-114406408D01*
X206540576Y-114406409D01*
X206606923Y-114472756D01*
X206606924Y-114472757D01*
X206606926Y-114472758D01*
X206688179Y-114519670D01*
X206688183Y-114519672D01*
X206759659Y-114538823D01*
X206778812Y-114543955D01*
X206778814Y-114543956D01*
X206778815Y-114543956D01*
X206872646Y-114543956D01*
X206872646Y-114543955D01*
X206922640Y-114530560D01*
X206963276Y-114519672D01*
X206963280Y-114519670D01*
X207018771Y-114487632D01*
X207044537Y-114472756D01*
X207110884Y-114406409D01*
X207157799Y-114325150D01*
X207182084Y-114234517D01*
X207182084Y-114140687D01*
X207159414Y-114056080D01*
X207157800Y-114050055D01*
X207157798Y-114050051D01*
X207110886Y-113968798D01*
X207110882Y-113968793D01*
X207085568Y-113943479D01*
X252224600Y-113943479D01*
X252224600Y-114076520D01*
X252250555Y-114207007D01*
X252301467Y-114329920D01*
X252375382Y-114440541D01*
X252375385Y-114440545D01*
X252386498Y-114451658D01*
X252617477Y-114220678D01*
X252619921Y-114224912D01*
X252685088Y-114290079D01*
X252689319Y-114292522D01*
X252458341Y-114523500D01*
X252469454Y-114534614D01*
X252469458Y-114534617D01*
X252580079Y-114608532D01*
X252702992Y-114659444D01*
X252833480Y-114685400D01*
X252966520Y-114685400D01*
X253097007Y-114659444D01*
X253219920Y-114608532D01*
X253330539Y-114534619D01*
X253341658Y-114523500D01*
X253110680Y-114292522D01*
X253114912Y-114290079D01*
X253180079Y-114224912D01*
X253182522Y-114220680D01*
X253413500Y-114451658D01*
X253424619Y-114440539D01*
X253498532Y-114329920D01*
X253549444Y-114207007D01*
X253575400Y-114076520D01*
X253575400Y-113943479D01*
X253549444Y-113812992D01*
X253498532Y-113690079D01*
X253424617Y-113579458D01*
X253424614Y-113579454D01*
X253413500Y-113568341D01*
X253182521Y-113799319D01*
X253180079Y-113795088D01*
X253114912Y-113729921D01*
X253110679Y-113727477D01*
X253341658Y-113496499D01*
X253341658Y-113496498D01*
X253330545Y-113485385D01*
X253330541Y-113485382D01*
X253219920Y-113411467D01*
X253097007Y-113360555D01*
X252966520Y-113334600D01*
X252833480Y-113334600D01*
X252702992Y-113360555D01*
X252580079Y-113411467D01*
X252469462Y-113485379D01*
X252458341Y-113496499D01*
X252689319Y-113727477D01*
X252685088Y-113729921D01*
X252619921Y-113795088D01*
X252617477Y-113799319D01*
X252386499Y-113568341D01*
X252375379Y-113579462D01*
X252301467Y-113690079D01*
X252250555Y-113812992D01*
X252224600Y-113943479D01*
X207085568Y-113943479D01*
X207044538Y-113902449D01*
X207044533Y-113902445D01*
X206963280Y-113855533D01*
X206963276Y-113855531D01*
X206872647Y-113831248D01*
X206872645Y-113831248D01*
X206778815Y-113831248D01*
X206778812Y-113831248D01*
X206688183Y-113855531D01*
X206688179Y-113855533D01*
X206606926Y-113902445D01*
X206606921Y-113902449D01*
X206540577Y-113968793D01*
X206540573Y-113968798D01*
X206493661Y-114050051D01*
X206493659Y-114050055D01*
X206469376Y-114140684D01*
X180350261Y-114140684D01*
X180365965Y-114130192D01*
X180446289Y-114076520D01*
X180483182Y-114051869D01*
X180601869Y-113933182D01*
X180695121Y-113793621D01*
X180759354Y-113638548D01*
X180792100Y-113473925D01*
X180792100Y-113381332D01*
X213529090Y-113381332D01*
X213529090Y-113475167D01*
X213553373Y-113565796D01*
X213553375Y-113565800D01*
X213600287Y-113647053D01*
X213600289Y-113647056D01*
X213600290Y-113647057D01*
X213666637Y-113713404D01*
X213666638Y-113713405D01*
X213666640Y-113713406D01*
X213747893Y-113760318D01*
X213747897Y-113760320D01*
X213819373Y-113779471D01*
X213838526Y-113784603D01*
X213838528Y-113784604D01*
X213838529Y-113784604D01*
X213932360Y-113784604D01*
X213932360Y-113784603D01*
X213977675Y-113772461D01*
X214022990Y-113760320D01*
X214022994Y-113760318D01*
X214050078Y-113744680D01*
X214104251Y-113713404D01*
X214170598Y-113647057D01*
X214217513Y-113565798D01*
X214219630Y-113557900D01*
X214238192Y-113488624D01*
X214241797Y-113475167D01*
X214241798Y-113475166D01*
X214241798Y-113381334D01*
X214241797Y-113381332D01*
X214217514Y-113290703D01*
X214217512Y-113290699D01*
X214170600Y-113209446D01*
X214170596Y-113209441D01*
X214104252Y-113143097D01*
X214104247Y-113143093D01*
X214022994Y-113096181D01*
X214022990Y-113096179D01*
X213932361Y-113071896D01*
X213932359Y-113071896D01*
X213838529Y-113071896D01*
X213838526Y-113071896D01*
X213747897Y-113096179D01*
X213747893Y-113096181D01*
X213666640Y-113143093D01*
X213666635Y-113143097D01*
X213600291Y-113209441D01*
X213600287Y-113209446D01*
X213553375Y-113290699D01*
X213553373Y-113290703D01*
X213529090Y-113381332D01*
X180792100Y-113381332D01*
X180792100Y-113306075D01*
X180759354Y-113141452D01*
X180695121Y-112986379D01*
X180695119Y-112986376D01*
X180695117Y-112986372D01*
X180601869Y-112846818D01*
X180601866Y-112846814D01*
X180562892Y-112807840D01*
X219506849Y-112807840D01*
X219506849Y-112901675D01*
X219531132Y-112992304D01*
X219531134Y-112992308D01*
X219578046Y-113073561D01*
X219578048Y-113073564D01*
X219578049Y-113073565D01*
X219644396Y-113139912D01*
X219644397Y-113139913D01*
X219644399Y-113139914D01*
X219725652Y-113186826D01*
X219725656Y-113186828D01*
X219797132Y-113205979D01*
X219816285Y-113211111D01*
X219816287Y-113211112D01*
X219816288Y-113211112D01*
X219910119Y-113211112D01*
X219910119Y-113211111D01*
X219955434Y-113198969D01*
X220000749Y-113186828D01*
X220000753Y-113186826D01*
X220076500Y-113143093D01*
X220082010Y-113139912D01*
X220148357Y-113073565D01*
X220195272Y-112992306D01*
X220196861Y-112986379D01*
X220219556Y-112901675D01*
X220219557Y-112901674D01*
X220219557Y-112807842D01*
X220219556Y-112807840D01*
X220195273Y-112717211D01*
X220195271Y-112717207D01*
X220148359Y-112635954D01*
X220148355Y-112635949D01*
X220116135Y-112603729D01*
X230228459Y-112603729D01*
X230228459Y-112697564D01*
X230252742Y-112788193D01*
X230252744Y-112788197D01*
X230299656Y-112869450D01*
X230299658Y-112869453D01*
X230299659Y-112869454D01*
X230366006Y-112935801D01*
X230366007Y-112935802D01*
X230366009Y-112935803D01*
X230447262Y-112982715D01*
X230447266Y-112982717D01*
X230518742Y-113001868D01*
X230537895Y-113007000D01*
X230537897Y-113007001D01*
X230537898Y-113007001D01*
X230631729Y-113007001D01*
X230631729Y-113007000D01*
X230686578Y-112992304D01*
X230722359Y-112982717D01*
X230722363Y-112982715D01*
X230803405Y-112935925D01*
X253647900Y-112935925D01*
X253647900Y-113084075D01*
X253672837Y-113209441D01*
X253676803Y-113229379D01*
X253733497Y-113366251D01*
X253733501Y-113366259D01*
X253815805Y-113489435D01*
X253815808Y-113489439D01*
X253920560Y-113594191D01*
X253920564Y-113594194D01*
X254043740Y-113676498D01*
X254043744Y-113676500D01*
X254043747Y-113676502D01*
X254180621Y-113733197D01*
X254325925Y-113762100D01*
X254325926Y-113762100D01*
X254474074Y-113762100D01*
X254474075Y-113762100D01*
X254619379Y-113733197D01*
X254756253Y-113676502D01*
X254879436Y-113594194D01*
X254984194Y-113489436D01*
X255066502Y-113366253D01*
X255123197Y-113229379D01*
X255152100Y-113084075D01*
X255152100Y-112935925D01*
X255123197Y-112790621D01*
X255066502Y-112653747D01*
X255066500Y-112653744D01*
X255066498Y-112653740D01*
X254984194Y-112530564D01*
X254984191Y-112530560D01*
X254879439Y-112425808D01*
X254879435Y-112425805D01*
X254756259Y-112343501D01*
X254756251Y-112343497D01*
X254619379Y-112286803D01*
X254615719Y-112286075D01*
X254474075Y-112257900D01*
X254325925Y-112257900D01*
X254259997Y-112271014D01*
X254180620Y-112286803D01*
X254043748Y-112343497D01*
X254043740Y-112343501D01*
X253920564Y-112425805D01*
X253920560Y-112425808D01*
X253815808Y-112530560D01*
X253815805Y-112530564D01*
X253733501Y-112653740D01*
X253733497Y-112653748D01*
X253676803Y-112790620D01*
X253673377Y-112807843D01*
X253647900Y-112935925D01*
X230803405Y-112935925D01*
X230803620Y-112935801D01*
X230869967Y-112869454D01*
X230916882Y-112788195D01*
X230920786Y-112773627D01*
X230931619Y-112733196D01*
X230941167Y-112697562D01*
X230941167Y-112603732D01*
X230932023Y-112569605D01*
X230916883Y-112513100D01*
X230916881Y-112513096D01*
X230869969Y-112431843D01*
X230869965Y-112431838D01*
X230803621Y-112365494D01*
X230803616Y-112365490D01*
X230722363Y-112318578D01*
X230722359Y-112318576D01*
X230631730Y-112294293D01*
X230631728Y-112294293D01*
X230537898Y-112294293D01*
X230537895Y-112294293D01*
X230447266Y-112318576D01*
X230447262Y-112318578D01*
X230366009Y-112365490D01*
X230366004Y-112365494D01*
X230299660Y-112431838D01*
X230299656Y-112431843D01*
X230252744Y-112513096D01*
X230252742Y-112513100D01*
X230228459Y-112603729D01*
X220116135Y-112603729D01*
X220082011Y-112569605D01*
X220082006Y-112569601D01*
X220000753Y-112522689D01*
X220000749Y-112522687D01*
X219910120Y-112498404D01*
X219910118Y-112498404D01*
X219816288Y-112498404D01*
X219816285Y-112498404D01*
X219725656Y-112522687D01*
X219725652Y-112522689D01*
X219644399Y-112569601D01*
X219644394Y-112569605D01*
X219578050Y-112635949D01*
X219578046Y-112635954D01*
X219531134Y-112717207D01*
X219531132Y-112717211D01*
X219506849Y-112807840D01*
X180562892Y-112807840D01*
X180483185Y-112728133D01*
X180483181Y-112728130D01*
X180343627Y-112634882D01*
X180343619Y-112634878D01*
X180188548Y-112570646D01*
X180183310Y-112569604D01*
X180023925Y-112537900D01*
X179856075Y-112537900D01*
X179773763Y-112554273D01*
X179691451Y-112570646D01*
X179536380Y-112634878D01*
X179536372Y-112634882D01*
X179396818Y-112728130D01*
X179396814Y-112728133D01*
X179278133Y-112846814D01*
X179278130Y-112846818D01*
X179184882Y-112986372D01*
X179184878Y-112986380D01*
X179120646Y-113141451D01*
X179090958Y-113290702D01*
X179087900Y-113306075D01*
X170456881Y-113306075D01*
X170456881Y-112286075D01*
X177287900Y-112286075D01*
X177287900Y-112453925D01*
X177311118Y-112570646D01*
X177320646Y-112618548D01*
X177384878Y-112773619D01*
X177384882Y-112773627D01*
X177478130Y-112913181D01*
X177478133Y-112913185D01*
X177596814Y-113031866D01*
X177596818Y-113031869D01*
X177736372Y-113125117D01*
X177736376Y-113125119D01*
X177736379Y-113125121D01*
X177891452Y-113189354D01*
X178056075Y-113222100D01*
X178056076Y-113222100D01*
X178223924Y-113222100D01*
X178223925Y-113222100D01*
X178388548Y-113189354D01*
X178543621Y-113125121D01*
X178683182Y-113031869D01*
X178801869Y-112913182D01*
X178895121Y-112773621D01*
X178959354Y-112618548D01*
X178992100Y-112453925D01*
X178992100Y-112286075D01*
X178959354Y-112121452D01*
X178895121Y-111966379D01*
X178895119Y-111966376D01*
X178895117Y-111966372D01*
X178801869Y-111826818D01*
X178801866Y-111826814D01*
X178683185Y-111708133D01*
X178683181Y-111708130D01*
X178543627Y-111614882D01*
X178543619Y-111614878D01*
X178388548Y-111550646D01*
X178287570Y-111530560D01*
X178223925Y-111517900D01*
X178056075Y-111517900D01*
X177992430Y-111530560D01*
X177891451Y-111550646D01*
X177736380Y-111614878D01*
X177736372Y-111614882D01*
X177596818Y-111708130D01*
X177596814Y-111708133D01*
X177478133Y-111826814D01*
X177478130Y-111826818D01*
X177384882Y-111966372D01*
X177384878Y-111966380D01*
X177320646Y-112121451D01*
X177308940Y-112180299D01*
X177287900Y-112286075D01*
X170456881Y-112286075D01*
X170456881Y-111266075D01*
X179087900Y-111266075D01*
X179087900Y-111433925D01*
X179111946Y-111554809D01*
X179120646Y-111598548D01*
X179184878Y-111753619D01*
X179184882Y-111753627D01*
X179278130Y-111893181D01*
X179278133Y-111893185D01*
X179396814Y-112011866D01*
X179396818Y-112011869D01*
X179536372Y-112105117D01*
X179536376Y-112105119D01*
X179536379Y-112105121D01*
X179691452Y-112169354D01*
X179856075Y-112202100D01*
X179856076Y-112202100D01*
X180023924Y-112202100D01*
X180023925Y-112202100D01*
X180188548Y-112169354D01*
X180343621Y-112105121D01*
X180483182Y-112011869D01*
X180601869Y-111893182D01*
X180695121Y-111753621D01*
X180759354Y-111598548D01*
X180768055Y-111554806D01*
X206450944Y-111554806D01*
X206450944Y-111648641D01*
X206475227Y-111739270D01*
X206475229Y-111739274D01*
X206522141Y-111820527D01*
X206522143Y-111820530D01*
X206522144Y-111820531D01*
X206588491Y-111886878D01*
X206588492Y-111886879D01*
X206588494Y-111886880D01*
X206669747Y-111933792D01*
X206669751Y-111933794D01*
X206741227Y-111952945D01*
X206760380Y-111958077D01*
X206760382Y-111958078D01*
X206760383Y-111958078D01*
X206854214Y-111958078D01*
X206854214Y-111958077D01*
X206899529Y-111945935D01*
X206944844Y-111933794D01*
X206944848Y-111933792D01*
X206977978Y-111914664D01*
X207013887Y-111893932D01*
X216767030Y-111893932D01*
X216767030Y-111987767D01*
X216791313Y-112078396D01*
X216791315Y-112078400D01*
X216838227Y-112159653D01*
X216838229Y-112159656D01*
X216838230Y-112159657D01*
X216904577Y-112226004D01*
X216904578Y-112226005D01*
X216904580Y-112226006D01*
X216985833Y-112272918D01*
X216985837Y-112272920D01*
X217057313Y-112292071D01*
X217076466Y-112297203D01*
X217076468Y-112297204D01*
X217076469Y-112297204D01*
X217170300Y-112297204D01*
X217170300Y-112297203D01*
X217215615Y-112285061D01*
X217260930Y-112272920D01*
X217260934Y-112272918D01*
X217336345Y-112229379D01*
X217342191Y-112226004D01*
X217393140Y-112175054D01*
X217401411Y-112171628D01*
X217409684Y-112175055D01*
X217412712Y-112180299D01*
X217416764Y-112195420D01*
X217416765Y-112195423D01*
X217463677Y-112276676D01*
X217463679Y-112276679D01*
X217463680Y-112276680D01*
X217530027Y-112343027D01*
X217530028Y-112343028D01*
X217530030Y-112343029D01*
X217611283Y-112389941D01*
X217611287Y-112389943D01*
X217682763Y-112409094D01*
X217701916Y-112414226D01*
X217701918Y-112414227D01*
X217701919Y-112414227D01*
X217795750Y-112414227D01*
X217795750Y-112414226D01*
X217841065Y-112402084D01*
X217886380Y-112389943D01*
X217886384Y-112389941D01*
X217951630Y-112352271D01*
X217967641Y-112343027D01*
X218033988Y-112276680D01*
X218080903Y-112195421D01*
X218080904Y-112195419D01*
X218100723Y-112121451D01*
X218105188Y-112104788D01*
X218105188Y-112086550D01*
X218560287Y-112086550D01*
X218560287Y-112180383D01*
X218584570Y-112271014D01*
X218584572Y-112271018D01*
X218631484Y-112352271D01*
X218631486Y-112352274D01*
X218631487Y-112352275D01*
X218697834Y-112418622D01*
X218697835Y-112418623D01*
X218697837Y-112418624D01*
X218779090Y-112465536D01*
X218779094Y-112465538D01*
X218850570Y-112484689D01*
X218869723Y-112489821D01*
X218869725Y-112489822D01*
X218869726Y-112489822D01*
X218963557Y-112489822D01*
X218963557Y-112489821D01*
X219008872Y-112477679D01*
X219054187Y-112465538D01*
X219054191Y-112465536D01*
X219081275Y-112449898D01*
X219135448Y-112418622D01*
X219201795Y-112352275D01*
X219248710Y-112271016D01*
X219252225Y-112257900D01*
X219272995Y-112180383D01*
X219272995Y-112086552D01*
X219272994Y-112086550D01*
X219248711Y-111995921D01*
X219248709Y-111995917D01*
X219201797Y-111914664D01*
X219201793Y-111914659D01*
X219135449Y-111848315D01*
X219135444Y-111848311D01*
X219054191Y-111801399D01*
X219054187Y-111801397D01*
X218963558Y-111777114D01*
X218963556Y-111777114D01*
X218869726Y-111777114D01*
X218869723Y-111777114D01*
X218779094Y-111801397D01*
X218779090Y-111801399D01*
X218697837Y-111848311D01*
X218697832Y-111848315D01*
X218631488Y-111914659D01*
X218631484Y-111914664D01*
X218584572Y-111995917D01*
X218584570Y-111995921D01*
X218560287Y-112086550D01*
X218105188Y-112086550D01*
X218105188Y-112010958D01*
X218098974Y-111987767D01*
X218080904Y-111920326D01*
X218080902Y-111920322D01*
X218033990Y-111839069D01*
X218033986Y-111839064D01*
X217967642Y-111772720D01*
X217967637Y-111772716D01*
X217886384Y-111725804D01*
X217886380Y-111725802D01*
X217795751Y-111701519D01*
X217795749Y-111701519D01*
X217701919Y-111701519D01*
X217701916Y-111701519D01*
X217611287Y-111725802D01*
X217611283Y-111725804D01*
X217530030Y-111772716D01*
X217530025Y-111772720D01*
X217479078Y-111823666D01*
X217470805Y-111827093D01*
X217462532Y-111823666D01*
X217459504Y-111818421D01*
X217455453Y-111803303D01*
X217455452Y-111803299D01*
X217408540Y-111722046D01*
X217408536Y-111722041D01*
X217342192Y-111655697D01*
X217342187Y-111655693D01*
X217323148Y-111644701D01*
X217306922Y-111635333D01*
X219374556Y-111635333D01*
X219374556Y-111729168D01*
X219398839Y-111819797D01*
X219398841Y-111819801D01*
X219445753Y-111901054D01*
X219445755Y-111901057D01*
X219445756Y-111901058D01*
X219512103Y-111967405D01*
X219512104Y-111967406D01*
X219512106Y-111967407D01*
X219593359Y-112014319D01*
X219593363Y-112014321D01*
X219664839Y-112033472D01*
X219683992Y-112038604D01*
X219683994Y-112038605D01*
X219683995Y-112038605D01*
X219777826Y-112038605D01*
X219777826Y-112038604D01*
X219823141Y-112026462D01*
X219868456Y-112014321D01*
X219868460Y-112014319D01*
X219914449Y-111987767D01*
X219949717Y-111967405D01*
X219981197Y-111935925D01*
X252147900Y-111935925D01*
X252147900Y-112084075D01*
X252155335Y-112121451D01*
X252176803Y-112229379D01*
X252233497Y-112366251D01*
X252233501Y-112366259D01*
X252315805Y-112489435D01*
X252315808Y-112489439D01*
X252420560Y-112594191D01*
X252420564Y-112594194D01*
X252543740Y-112676498D01*
X252543744Y-112676500D01*
X252543747Y-112676502D01*
X252680621Y-112733197D01*
X252825925Y-112762100D01*
X252825926Y-112762100D01*
X252974074Y-112762100D01*
X252974075Y-112762100D01*
X253119379Y-112733197D01*
X253256253Y-112676502D01*
X253379436Y-112594194D01*
X253484194Y-112489436D01*
X253566502Y-112366253D01*
X253623197Y-112229379D01*
X253652100Y-112084075D01*
X253652100Y-111935925D01*
X253623197Y-111790621D01*
X253566502Y-111653747D01*
X253566500Y-111653744D01*
X253566498Y-111653740D01*
X253484194Y-111530564D01*
X253484191Y-111530560D01*
X253379439Y-111425808D01*
X253379435Y-111425805D01*
X253256259Y-111343501D01*
X253256251Y-111343497D01*
X253119379Y-111286803D01*
X252974075Y-111257900D01*
X252825925Y-111257900D01*
X252784827Y-111266075D01*
X252680620Y-111286803D01*
X252543748Y-111343497D01*
X252543740Y-111343501D01*
X252420564Y-111425805D01*
X252420560Y-111425808D01*
X252315808Y-111530560D01*
X252315805Y-111530564D01*
X252233501Y-111653740D01*
X252233497Y-111653748D01*
X252176803Y-111790620D01*
X252154835Y-111901059D01*
X252147900Y-111935925D01*
X219981197Y-111935925D01*
X220016064Y-111901058D01*
X220058929Y-111826814D01*
X220062978Y-111819801D01*
X220062980Y-111819797D01*
X220075595Y-111772716D01*
X220087264Y-111729166D01*
X220087264Y-111635336D01*
X220077407Y-111598548D01*
X220062980Y-111544704D01*
X220062978Y-111544700D01*
X220016066Y-111463447D01*
X220016062Y-111463442D01*
X219949718Y-111397098D01*
X219949713Y-111397094D01*
X219868460Y-111350182D01*
X219868456Y-111350180D01*
X219777827Y-111325897D01*
X219777825Y-111325897D01*
X219683995Y-111325897D01*
X219683992Y-111325897D01*
X219593363Y-111350180D01*
X219593359Y-111350182D01*
X219512106Y-111397094D01*
X219512101Y-111397098D01*
X219445757Y-111463442D01*
X219445753Y-111463447D01*
X219398841Y-111544700D01*
X219398839Y-111544704D01*
X219374556Y-111635333D01*
X217306922Y-111635333D01*
X217260934Y-111608781D01*
X217260930Y-111608779D01*
X217170301Y-111584496D01*
X217170299Y-111584496D01*
X217076469Y-111584496D01*
X217076466Y-111584496D01*
X216985837Y-111608779D01*
X216985833Y-111608781D01*
X216904580Y-111655693D01*
X216904575Y-111655697D01*
X216838231Y-111722041D01*
X216838227Y-111722046D01*
X216791315Y-111803299D01*
X216791313Y-111803303D01*
X216767030Y-111893932D01*
X207013887Y-111893932D01*
X207026105Y-111886878D01*
X207092452Y-111820531D01*
X207139367Y-111739272D01*
X207142075Y-111729168D01*
X207151509Y-111693955D01*
X207163652Y-111648639D01*
X207163652Y-111554809D01*
X207153762Y-111517900D01*
X207139368Y-111464177D01*
X207139366Y-111464173D01*
X207092454Y-111382920D01*
X207092450Y-111382915D01*
X207026106Y-111316571D01*
X207026101Y-111316567D01*
X206944848Y-111269655D01*
X206944844Y-111269653D01*
X206854215Y-111245370D01*
X206854213Y-111245370D01*
X206760383Y-111245370D01*
X206760380Y-111245370D01*
X206669751Y-111269653D01*
X206669747Y-111269655D01*
X206588494Y-111316567D01*
X206588489Y-111316571D01*
X206522145Y-111382915D01*
X206522141Y-111382920D01*
X206475229Y-111464173D01*
X206475227Y-111464177D01*
X206450944Y-111554806D01*
X180768055Y-111554806D01*
X180792100Y-111433925D01*
X180792100Y-111266075D01*
X180759354Y-111101452D01*
X180695121Y-110946379D01*
X180695119Y-110946376D01*
X180695117Y-110946372D01*
X180688097Y-110935866D01*
X180601869Y-110806818D01*
X180601866Y-110806814D01*
X180483185Y-110688133D01*
X180483181Y-110688130D01*
X180343627Y-110594882D01*
X180343619Y-110594878D01*
X180188548Y-110530646D01*
X180023925Y-110497900D01*
X179856075Y-110497900D01*
X179795250Y-110509999D01*
X179691451Y-110530646D01*
X179536380Y-110594878D01*
X179536372Y-110594882D01*
X179396818Y-110688130D01*
X179396814Y-110688133D01*
X179278133Y-110806814D01*
X179278130Y-110806818D01*
X179184882Y-110946372D01*
X179184878Y-110946380D01*
X179120646Y-111101451D01*
X179103947Y-111185400D01*
X179087900Y-111266075D01*
X170456881Y-111266075D01*
X170456881Y-110273630D01*
X183884600Y-110273630D01*
X183884600Y-110426369D01*
X183914398Y-110576176D01*
X183972848Y-110717288D01*
X183972852Y-110717296D01*
X184057706Y-110844288D01*
X184057709Y-110844292D01*
X184075787Y-110862370D01*
X184270526Y-110667630D01*
X184342369Y-110739473D01*
X184147630Y-110934212D01*
X184165707Y-110952290D01*
X184165711Y-110952293D01*
X184292703Y-111037147D01*
X184292711Y-111037151D01*
X184433823Y-111095601D01*
X184583631Y-111125400D01*
X184736369Y-111125400D01*
X184886176Y-111095601D01*
X185027288Y-111037151D01*
X185027296Y-111037147D01*
X185069533Y-111008926D01*
X185154288Y-110952293D01*
X185154292Y-110952290D01*
X185172370Y-110934212D01*
X184977631Y-110739473D01*
X185049473Y-110667631D01*
X185244212Y-110862370D01*
X185262290Y-110844292D01*
X185262293Y-110844288D01*
X185347147Y-110717296D01*
X185347151Y-110717288D01*
X185405601Y-110576176D01*
X185435400Y-110426369D01*
X185435400Y-110273630D01*
X185405601Y-110123823D01*
X185347151Y-109982711D01*
X185347147Y-109982703D01*
X185319850Y-109941850D01*
X185315891Y-109935925D01*
X252147900Y-109935925D01*
X252147900Y-110084075D01*
X252157563Y-110132652D01*
X252176803Y-110229379D01*
X252233497Y-110366251D01*
X252233501Y-110366259D01*
X252315805Y-110489435D01*
X252315808Y-110489439D01*
X252420560Y-110594191D01*
X252420564Y-110594194D01*
X252543740Y-110676498D01*
X252543744Y-110676500D01*
X252543747Y-110676502D01*
X252680621Y-110733197D01*
X252825925Y-110762100D01*
X252825926Y-110762100D01*
X252974074Y-110762100D01*
X252974075Y-110762100D01*
X253119379Y-110733197D01*
X253256253Y-110676502D01*
X253379436Y-110594194D01*
X253484194Y-110489436D01*
X253509765Y-110451165D01*
X253514901Y-110443479D01*
X253724600Y-110443479D01*
X253724600Y-110576520D01*
X253750555Y-110707007D01*
X253801467Y-110829920D01*
X253875382Y-110940541D01*
X253875385Y-110940545D01*
X253886498Y-110951658D01*
X254117477Y-110720678D01*
X254119921Y-110724912D01*
X254185088Y-110790079D01*
X254189319Y-110792522D01*
X253958341Y-111023500D01*
X253969454Y-111034614D01*
X253969458Y-111034617D01*
X254080079Y-111108532D01*
X254202992Y-111159444D01*
X254333480Y-111185400D01*
X254466520Y-111185400D01*
X254597007Y-111159444D01*
X254719920Y-111108532D01*
X254830539Y-111034619D01*
X254841658Y-111023500D01*
X254610680Y-110792522D01*
X254614912Y-110790079D01*
X254680079Y-110724912D01*
X254682522Y-110720680D01*
X254913500Y-110951658D01*
X254924619Y-110940539D01*
X254998532Y-110829920D01*
X255049444Y-110707007D01*
X255075400Y-110576520D01*
X255075400Y-110443479D01*
X255049444Y-110312992D01*
X254998532Y-110190079D01*
X254924617Y-110079458D01*
X254924614Y-110079454D01*
X254913500Y-110068341D01*
X254682521Y-110299319D01*
X254680079Y-110295088D01*
X254614912Y-110229921D01*
X254610679Y-110227477D01*
X254841658Y-109996499D01*
X254841658Y-109996498D01*
X254830545Y-109985385D01*
X254830541Y-109985382D01*
X254719920Y-109911467D01*
X254597007Y-109860555D01*
X254466520Y-109834600D01*
X254333480Y-109834600D01*
X254202992Y-109860555D01*
X254080079Y-109911467D01*
X253969462Y-109985379D01*
X253958341Y-109996499D01*
X254189319Y-110227477D01*
X254185088Y-110229921D01*
X254119921Y-110295088D01*
X254117477Y-110299319D01*
X253886499Y-110068341D01*
X253875379Y-110079462D01*
X253801467Y-110190079D01*
X253750555Y-110312992D01*
X253724600Y-110443479D01*
X253514901Y-110443479D01*
X253519629Y-110436404D01*
X253566498Y-110366259D01*
X253566498Y-110366258D01*
X253566502Y-110366253D01*
X253623197Y-110229379D01*
X253652100Y-110084075D01*
X253652100Y-109935925D01*
X253623197Y-109790621D01*
X253566502Y-109653747D01*
X253566500Y-109653744D01*
X253566498Y-109653740D01*
X253484194Y-109530564D01*
X253484191Y-109530560D01*
X253379439Y-109425808D01*
X253379435Y-109425805D01*
X253256259Y-109343501D01*
X253256251Y-109343497D01*
X253119379Y-109286803D01*
X252974075Y-109257900D01*
X252825925Y-109257900D01*
X252753273Y-109272351D01*
X252680620Y-109286803D01*
X252543748Y-109343497D01*
X252543740Y-109343501D01*
X252420564Y-109425805D01*
X252420560Y-109425808D01*
X252315808Y-109530560D01*
X252315805Y-109530564D01*
X252233501Y-109653740D01*
X252233497Y-109653748D01*
X252176803Y-109790620D01*
X252176526Y-109792013D01*
X252147900Y-109935925D01*
X185315891Y-109935925D01*
X185262293Y-109855711D01*
X185262290Y-109855707D01*
X185244212Y-109837630D01*
X185049473Y-110032369D01*
X184977631Y-109960527D01*
X185172370Y-109765788D01*
X185172370Y-109765787D01*
X185154292Y-109747709D01*
X185154288Y-109747706D01*
X185027296Y-109662852D01*
X185027288Y-109662848D01*
X184886176Y-109604398D01*
X184736369Y-109574600D01*
X184583631Y-109574600D01*
X184433823Y-109604398D01*
X184292711Y-109662848D01*
X184292703Y-109662852D01*
X184165711Y-109747706D01*
X184165707Y-109747709D01*
X184147630Y-109765787D01*
X184147630Y-109765788D01*
X184342369Y-109960527D01*
X184270527Y-110032369D01*
X184075788Y-109837630D01*
X184057709Y-109855707D01*
X184057706Y-109855711D01*
X183972852Y-109982703D01*
X183972848Y-109982711D01*
X183914398Y-110123823D01*
X183884600Y-110273630D01*
X170456881Y-110273630D01*
X170456881Y-108443911D01*
X174007900Y-108443911D01*
X174007900Y-108696088D01*
X174047347Y-108945151D01*
X174047351Y-108945167D01*
X174125272Y-109184984D01*
X174125274Y-109184988D01*
X174125276Y-109184993D01*
X174162424Y-109257900D01*
X174239764Y-109409689D01*
X174387979Y-109613688D01*
X174387983Y-109613692D01*
X174387987Y-109613698D01*
X174566302Y-109792013D01*
X174566307Y-109792017D01*
X174566311Y-109792020D01*
X174770310Y-109940235D01*
X174770315Y-109940237D01*
X174770317Y-109940239D01*
X174995007Y-110054724D01*
X174995012Y-110054725D01*
X174995015Y-110054727D01*
X175196713Y-110120262D01*
X175234841Y-110132651D01*
X175336208Y-110148706D01*
X175483911Y-110172100D01*
X175483912Y-110172100D01*
X175736088Y-110172100D01*
X175985159Y-110132651D01*
X176224993Y-110054724D01*
X176449683Y-109940239D01*
X176653698Y-109792013D01*
X176832013Y-109613698D01*
X176894997Y-109527007D01*
X176980235Y-109409689D01*
X176980235Y-109409687D01*
X176980239Y-109409683D01*
X177094724Y-109184993D01*
X177172651Y-108945159D01*
X177212100Y-108696088D01*
X177212100Y-108443912D01*
X177205302Y-108400994D01*
X177172652Y-108194848D01*
X177172651Y-108194841D01*
X177101569Y-107976075D01*
X183807900Y-107976075D01*
X183807900Y-108143924D01*
X183840646Y-108308548D01*
X183904878Y-108463619D01*
X183904882Y-108463627D01*
X183998130Y-108603181D01*
X183998133Y-108603185D01*
X184116814Y-108721866D01*
X184116818Y-108721869D01*
X184256372Y-108815117D01*
X184256376Y-108815119D01*
X184256379Y-108815121D01*
X184411452Y-108879354D01*
X184576075Y-108912100D01*
X184576076Y-108912100D01*
X184743924Y-108912100D01*
X184743925Y-108912100D01*
X184908548Y-108879354D01*
X185063621Y-108815121D01*
X185203182Y-108721869D01*
X185321869Y-108603182D01*
X185342114Y-108572883D01*
X219205157Y-108572883D01*
X219205157Y-108666718D01*
X219229440Y-108757347D01*
X219229442Y-108757351D01*
X219276354Y-108838604D01*
X219276356Y-108838607D01*
X219276357Y-108838608D01*
X219342704Y-108904955D01*
X219342705Y-108904956D01*
X219342707Y-108904957D01*
X219423960Y-108951869D01*
X219423964Y-108951871D01*
X219495440Y-108971022D01*
X219514593Y-108976154D01*
X219514595Y-108976155D01*
X219514596Y-108976155D01*
X219608427Y-108976155D01*
X219608427Y-108976154D01*
X219653742Y-108964012D01*
X219699057Y-108951871D01*
X219699061Y-108951869D01*
X219726145Y-108936231D01*
X219780318Y-108904955D01*
X219846665Y-108838608D01*
X219893580Y-108757349D01*
X219917865Y-108666716D01*
X219917865Y-108572886D01*
X219899878Y-108505756D01*
X219893581Y-108482254D01*
X219893579Y-108482250D01*
X219846667Y-108400997D01*
X219846663Y-108400992D01*
X219780319Y-108334648D01*
X219780314Y-108334644D01*
X219699061Y-108287732D01*
X219699057Y-108287730D01*
X219608428Y-108263447D01*
X219608426Y-108263447D01*
X219514596Y-108263447D01*
X219514593Y-108263447D01*
X219423964Y-108287730D01*
X219423960Y-108287732D01*
X219342707Y-108334644D01*
X219342702Y-108334648D01*
X219276358Y-108400992D01*
X219276354Y-108400997D01*
X219229442Y-108482250D01*
X219229440Y-108482254D01*
X219205157Y-108572883D01*
X185342114Y-108572883D01*
X185415121Y-108463621D01*
X185479354Y-108308548D01*
X185512100Y-108143925D01*
X185512100Y-107976075D01*
X185479354Y-107811452D01*
X185415121Y-107656379D01*
X185415119Y-107656376D01*
X185415117Y-107656372D01*
X185379860Y-107603607D01*
X185376027Y-107597871D01*
X222376106Y-107597871D01*
X222376106Y-107691706D01*
X222400389Y-107782335D01*
X222400391Y-107782339D01*
X222447303Y-107863592D01*
X222447305Y-107863595D01*
X222447306Y-107863596D01*
X222513653Y-107929943D01*
X222513654Y-107929944D01*
X222513656Y-107929945D01*
X222594909Y-107976857D01*
X222594913Y-107976859D01*
X222666389Y-107996010D01*
X222685542Y-108001142D01*
X222685544Y-108001143D01*
X222685545Y-108001143D01*
X222779376Y-108001143D01*
X222779376Y-108001142D01*
X222824691Y-107989000D01*
X222870006Y-107976859D01*
X222870010Y-107976857D01*
X222907855Y-107955007D01*
X222951267Y-107929943D01*
X223017614Y-107863596D01*
X223064529Y-107782337D01*
X223088814Y-107691704D01*
X223088814Y-107597874D01*
X223082792Y-107575400D01*
X223064530Y-107507242D01*
X223064528Y-107507238D01*
X223017616Y-107425985D01*
X223017612Y-107425980D01*
X222951268Y-107359636D01*
X222951263Y-107359632D01*
X222885649Y-107321750D01*
X222870010Y-107312720D01*
X222870006Y-107312718D01*
X222867614Y-107312077D01*
X254874600Y-107312077D01*
X254874600Y-107567922D01*
X254914621Y-107820607D01*
X254914625Y-107820623D01*
X254993679Y-108063928D01*
X254993681Y-108063932D01*
X255109836Y-108291901D01*
X255260206Y-108498867D01*
X255260220Y-108498883D01*
X255314747Y-108553410D01*
X255650898Y-108217257D01*
X255722740Y-108289099D01*
X255386589Y-108625251D01*
X255386589Y-108625252D01*
X255441116Y-108679779D01*
X255441132Y-108679793D01*
X255648098Y-108830163D01*
X255876067Y-108946318D01*
X255876071Y-108946320D01*
X256119376Y-109025374D01*
X256119392Y-109025378D01*
X256372077Y-109065400D01*
X256627922Y-109065400D01*
X256880607Y-109025378D01*
X256880623Y-109025374D01*
X257123928Y-108946320D01*
X257123932Y-108946318D01*
X257351901Y-108830163D01*
X257558867Y-108679793D01*
X257558883Y-108679779D01*
X257613410Y-108625252D01*
X257277258Y-108289100D01*
X257349100Y-108217258D01*
X257685252Y-108553410D01*
X257739779Y-108498883D01*
X257739793Y-108498867D01*
X257890163Y-108291901D01*
X258006318Y-108063932D01*
X258006320Y-108063928D01*
X258085374Y-107820623D01*
X258085378Y-107820607D01*
X258125400Y-107567922D01*
X258125400Y-107312077D01*
X258085378Y-107059392D01*
X258085374Y-107059376D01*
X258006320Y-106816071D01*
X258006318Y-106816067D01*
X257890163Y-106588098D01*
X257739793Y-106381132D01*
X257739779Y-106381116D01*
X257685252Y-106326589D01*
X257349100Y-106662741D01*
X257277257Y-106590898D01*
X257613410Y-106254747D01*
X257558883Y-106200220D01*
X257558867Y-106200206D01*
X257351901Y-106049836D01*
X257123932Y-105933681D01*
X257123928Y-105933679D01*
X256880623Y-105854625D01*
X256880607Y-105854621D01*
X256627923Y-105814600D01*
X256372077Y-105814600D01*
X256119392Y-105854621D01*
X256119376Y-105854625D01*
X255876071Y-105933679D01*
X255876067Y-105933681D01*
X255648098Y-106049836D01*
X255441132Y-106200206D01*
X255441116Y-106200220D01*
X255386589Y-106254747D01*
X255722741Y-106590899D01*
X255650899Y-106662741D01*
X255314747Y-106326589D01*
X255260220Y-106381116D01*
X255260206Y-106381132D01*
X255109836Y-106588098D01*
X254993681Y-106816067D01*
X254993679Y-106816071D01*
X254914625Y-107059376D01*
X254914621Y-107059392D01*
X254874600Y-107312077D01*
X222867614Y-107312077D01*
X222779377Y-107288435D01*
X222779375Y-107288435D01*
X222685545Y-107288435D01*
X222685542Y-107288435D01*
X222594913Y-107312718D01*
X222594909Y-107312720D01*
X222513656Y-107359632D01*
X222513651Y-107359636D01*
X222447307Y-107425980D01*
X222447303Y-107425985D01*
X222400391Y-107507238D01*
X222400389Y-107507242D01*
X222376106Y-107597871D01*
X185376027Y-107597871D01*
X185321869Y-107516818D01*
X185321866Y-107516814D01*
X185203185Y-107398133D01*
X185203181Y-107398130D01*
X185063627Y-107304882D01*
X185063619Y-107304878D01*
X184908548Y-107240646D01*
X184743925Y-107207900D01*
X184576075Y-107207900D01*
X184493763Y-107224273D01*
X184411451Y-107240646D01*
X184256380Y-107304878D01*
X184256372Y-107304882D01*
X184116818Y-107398130D01*
X184116814Y-107398133D01*
X183998133Y-107516814D01*
X183998130Y-107516818D01*
X183904882Y-107656372D01*
X183904878Y-107656380D01*
X183840646Y-107811451D01*
X183807900Y-107976075D01*
X177101569Y-107976075D01*
X177094724Y-107955007D01*
X176980239Y-107730317D01*
X176980237Y-107730315D01*
X176980235Y-107730310D01*
X176832020Y-107526311D01*
X176832017Y-107526307D01*
X176832013Y-107526302D01*
X176653698Y-107347987D01*
X176653692Y-107347983D01*
X176653688Y-107347979D01*
X176449689Y-107199764D01*
X176392657Y-107170705D01*
X176224993Y-107085276D01*
X176224990Y-107085275D01*
X176224988Y-107085274D01*
X176224984Y-107085272D01*
X175985167Y-107007351D01*
X175985151Y-107007347D01*
X175736089Y-106967900D01*
X175736088Y-106967900D01*
X175483912Y-106967900D01*
X175483911Y-106967900D01*
X175234848Y-107007347D01*
X175234832Y-107007351D01*
X174995015Y-107085272D01*
X174995011Y-107085274D01*
X174770310Y-107199764D01*
X174566311Y-107347979D01*
X174566295Y-107347993D01*
X174387993Y-107526295D01*
X174387979Y-107526311D01*
X174239764Y-107730310D01*
X174125274Y-107955011D01*
X174125272Y-107955015D01*
X174047351Y-108194832D01*
X174047347Y-108194848D01*
X174007900Y-108443911D01*
X170456881Y-108443911D01*
X170456881Y-106778554D01*
X177984600Y-106778554D01*
X177984600Y-106799200D01*
X178259989Y-106799200D01*
X178259989Y-106900800D01*
X177984600Y-106900800D01*
X177984600Y-106921445D01*
X178012477Y-107061591D01*
X178067158Y-107193604D01*
X178067162Y-107193612D01*
X178146544Y-107312415D01*
X178146547Y-107312419D01*
X178247580Y-107413452D01*
X178247584Y-107413455D01*
X178366387Y-107492837D01*
X178366395Y-107492841D01*
X178498408Y-107547522D01*
X178638555Y-107575400D01*
X179059200Y-107575400D01*
X179059200Y-107300012D01*
X179160800Y-107300012D01*
X179160800Y-107575400D01*
X179581445Y-107575400D01*
X179721591Y-107547522D01*
X179853604Y-107492841D01*
X179853612Y-107492837D01*
X179972415Y-107413455D01*
X179972419Y-107413452D01*
X180073452Y-107312419D01*
X180073455Y-107312415D01*
X180152837Y-107193612D01*
X180152841Y-107193604D01*
X180207522Y-107061591D01*
X180235400Y-106921445D01*
X180235400Y-106900800D01*
X179960011Y-106900800D01*
X179960011Y-106799200D01*
X180235400Y-106799200D01*
X180235400Y-106778554D01*
X180207522Y-106638408D01*
X180152841Y-106506395D01*
X180152837Y-106506387D01*
X180142548Y-106490988D01*
X180138715Y-106485252D01*
X208539820Y-106485252D01*
X208539820Y-106579087D01*
X208564103Y-106669716D01*
X208564105Y-106669720D01*
X208611017Y-106750973D01*
X208611019Y-106750976D01*
X208611020Y-106750977D01*
X208677367Y-106817324D01*
X208677368Y-106817325D01*
X208677370Y-106817326D01*
X208758623Y-106864238D01*
X208758627Y-106864240D01*
X208830103Y-106883391D01*
X208849256Y-106888523D01*
X208849258Y-106888524D01*
X208849259Y-106888524D01*
X208943090Y-106888524D01*
X208943090Y-106888523D01*
X208988405Y-106876381D01*
X209033720Y-106864240D01*
X209033724Y-106864238D01*
X209080446Y-106837263D01*
X209114981Y-106817324D01*
X209181328Y-106750977D01*
X209228243Y-106669718D01*
X209236633Y-106638408D01*
X209252527Y-106579087D01*
X209252528Y-106579086D01*
X209252528Y-106485254D01*
X209252527Y-106485252D01*
X209228244Y-106394623D01*
X209228242Y-106394619D01*
X209181330Y-106313366D01*
X209181326Y-106313361D01*
X209114982Y-106247017D01*
X209114977Y-106247013D01*
X209033724Y-106200101D01*
X209033720Y-106200099D01*
X208943091Y-106175816D01*
X208943089Y-106175816D01*
X208849259Y-106175816D01*
X208849256Y-106175816D01*
X208758627Y-106200099D01*
X208758623Y-106200101D01*
X208677370Y-106247013D01*
X208677365Y-106247017D01*
X208611021Y-106313361D01*
X208611017Y-106313366D01*
X208564105Y-106394619D01*
X208564103Y-106394623D01*
X208539820Y-106485252D01*
X180138715Y-106485252D01*
X180073455Y-106387584D01*
X180073452Y-106387580D01*
X179972419Y-106286547D01*
X179972415Y-106286544D01*
X179853612Y-106207162D01*
X179853604Y-106207158D01*
X179721591Y-106152477D01*
X179581445Y-106124600D01*
X179160800Y-106124600D01*
X179160800Y-106399988D01*
X179059200Y-106399988D01*
X179059200Y-106124600D01*
X178638555Y-106124600D01*
X178498408Y-106152477D01*
X178366395Y-106207158D01*
X178366387Y-106207162D01*
X178247584Y-106286544D01*
X178247580Y-106286547D01*
X178146547Y-106387580D01*
X178146544Y-106387584D01*
X178067162Y-106506387D01*
X178067158Y-106506395D01*
X178012477Y-106638408D01*
X177984600Y-106778554D01*
X170456881Y-106778554D01*
X170456881Y-105787135D01*
X187780113Y-105787135D01*
X187780113Y-105880970D01*
X187804396Y-105971599D01*
X187804398Y-105971603D01*
X187851310Y-106052856D01*
X187851312Y-106052859D01*
X187851313Y-106052860D01*
X187917660Y-106119207D01*
X187917661Y-106119208D01*
X187917663Y-106119209D01*
X187998916Y-106166121D01*
X187998920Y-106166123D01*
X188070396Y-106185274D01*
X188089549Y-106190406D01*
X188089551Y-106190407D01*
X188089552Y-106190407D01*
X188183383Y-106190407D01*
X188183383Y-106190406D01*
X188228698Y-106178264D01*
X188274013Y-106166123D01*
X188274017Y-106166121D01*
X188345933Y-106124600D01*
X188355274Y-106119207D01*
X188421621Y-106052860D01*
X188468536Y-105971601D01*
X188492821Y-105880968D01*
X188492821Y-105787138D01*
X188487688Y-105767982D01*
X188468537Y-105696506D01*
X188468535Y-105696502D01*
X188421623Y-105615249D01*
X188421619Y-105615244D01*
X188355275Y-105548900D01*
X188355270Y-105548896D01*
X188274017Y-105501984D01*
X188274013Y-105501982D01*
X188183384Y-105477699D01*
X188183382Y-105477699D01*
X188089552Y-105477699D01*
X188089549Y-105477699D01*
X187998920Y-105501982D01*
X187998916Y-105501984D01*
X187917663Y-105548896D01*
X187917658Y-105548900D01*
X187851314Y-105615244D01*
X187851310Y-105615249D01*
X187804398Y-105696502D01*
X187804396Y-105696506D01*
X187780113Y-105787135D01*
X170456881Y-105787135D01*
X170456881Y-104265861D01*
X214112059Y-104265861D01*
X214112059Y-104359696D01*
X214136342Y-104450325D01*
X214136344Y-104450329D01*
X214183256Y-104531582D01*
X214183258Y-104531585D01*
X214183259Y-104531586D01*
X214249606Y-104597933D01*
X214249607Y-104597934D01*
X214249609Y-104597935D01*
X214330862Y-104644847D01*
X214330866Y-104644849D01*
X214402342Y-104664000D01*
X214421495Y-104669132D01*
X214421497Y-104669133D01*
X214421498Y-104669133D01*
X214515329Y-104669133D01*
X214515329Y-104669132D01*
X214560644Y-104656990D01*
X214605959Y-104644849D01*
X214605963Y-104644847D01*
X214633047Y-104629209D01*
X214687220Y-104597933D01*
X214753567Y-104531586D01*
X214800482Y-104450327D01*
X214824767Y-104359694D01*
X214824767Y-104265864D01*
X214819634Y-104246708D01*
X214800483Y-104175232D01*
X214800481Y-104175228D01*
X214753569Y-104093975D01*
X214753565Y-104093970D01*
X214687221Y-104027626D01*
X214687216Y-104027622D01*
X214605963Y-103980710D01*
X214605959Y-103980708D01*
X214515330Y-103956425D01*
X214515328Y-103956425D01*
X214421498Y-103956425D01*
X214421495Y-103956425D01*
X214330866Y-103980708D01*
X214330862Y-103980710D01*
X214249609Y-104027622D01*
X214249604Y-104027626D01*
X214183260Y-104093970D01*
X214183256Y-104093975D01*
X214136344Y-104175228D01*
X214136342Y-104175232D01*
X214112059Y-104265861D01*
X170456881Y-104265861D01*
X170456881Y-100538582D01*
X170460308Y-100530309D01*
X170468581Y-100526882D01*
X262581419Y-100526882D01*
X262589692Y-100530309D01*
G37*
%TD.AperFunction*%
%TD*%
M02*
