%TF.GenerationSoftware,KiCad,Pcbnew,10.0.1*%
%TF.CreationDate,2026-09-09T14:42:14+02:00*%
%TF.ProjectId,Ch398,43683339-382e-46b6-9963-61645f706362,rev?*%
%TF.SameCoordinates,Original*%
%TF.FileFunction,Paste,Top*%
%TF.FilePolarity,Positive*%
%FSLAX46Y46*%
G04 Gerber Fmt 4.6, Leading zero omitted, Abs format (unit mm)*
G04 Created by KiCad (PCBNEW 10.0.1) date 2026-09-09 14:42:14*
%MOMM*%
%LPD*%
G01*
G04 APERTURE LIST*
G04 Aperture macros list*
%AMRoundRect*
0 Rectangle with rounded corners*
0 $1 Rounding radius*
0 $2 $3 $4 $5 $6 $7 $8 $9 X,Y pos of 4 corners*
0 Add a 4 corners polygon primitive as box body*
4,1,4,$2,$3,$4,$5,$6,$7,$8,$9,$2,$3,0*
0 Add four circle primitives for the rounded corners*
1,1,$1+$1,$2,$3*
1,1,$1+$1,$4,$5*
1,1,$1+$1,$6,$7*
1,1,$1+$1,$8,$9*
0 Add four rect primitives between the rounded corners*
20,1,$1+$1,$2,$3,$4,$5,0*
20,1,$1+$1,$4,$5,$6,$7,0*
20,1,$1+$1,$6,$7,$8,$9,0*
20,1,$1+$1,$8,$9,$2,$3,0*%
G04 Aperture macros list end*
%ADD10RoundRect,0.200000X0.275000X-0.200000X0.275000X0.200000X-0.275000X0.200000X-0.275000X-0.200000X0*%
%ADD11RoundRect,0.250000X-0.475000X0.250000X-0.475000X-0.250000X0.475000X-0.250000X0.475000X0.250000X0*%
%ADD12RoundRect,0.225000X-0.250000X0.225000X-0.250000X-0.225000X0.250000X-0.225000X0.250000X0.225000X0*%
%ADD13RoundRect,0.225000X0.250000X-0.225000X0.250000X0.225000X-0.250000X0.225000X-0.250000X-0.225000X0*%
%ADD14RoundRect,0.250000X0.475000X-0.250000X0.475000X0.250000X-0.475000X0.250000X-0.475000X-0.250000X0*%
%ADD15RoundRect,0.200000X-0.275000X0.200000X-0.275000X-0.200000X0.275000X-0.200000X0.275000X0.200000X0*%
%ADD16R,2.200000X0.640000*%
%ADD17RoundRect,0.200000X0.200000X0.275000X-0.200000X0.275000X-0.200000X-0.275000X0.200000X-0.275000X0*%
%ADD18R,2.350000X3.500000*%
%ADD19RoundRect,0.225000X-0.225000X-0.250000X0.225000X-0.250000X0.225000X0.250000X-0.225000X0.250000X0*%
%ADD20RoundRect,0.243750X0.456250X-0.243750X0.456250X0.243750X-0.456250X0.243750X-0.456250X-0.243750X0*%
%ADD21RoundRect,0.250000X-0.450000X-0.350000X0.450000X-0.350000X0.450000X0.350000X-0.450000X0.350000X0*%
%ADD22R,0.600000X0.200000*%
%ADD23R,0.200000X0.600000*%
%ADD24R,3.500000X3.500000*%
G04 APERTURE END LIST*
D10*
%TO.C,R1*%
X197490000Y-108480000D03*
X197490000Y-106830000D03*
%TD*%
D11*
%TO.C,C10*%
X212284325Y-115607294D03*
X212284325Y-117507294D03*
%TD*%
D12*
%TO.C,C6*%
X212034325Y-111348920D03*
X212034325Y-112898920D03*
%TD*%
D13*
%TO.C,C15*%
X225840000Y-122930000D03*
X225840000Y-121380000D03*
%TD*%
D14*
%TO.C,C22*%
X221704247Y-123234523D03*
X221704247Y-121334523D03*
%TD*%
D12*
%TO.C,C18*%
X221816552Y-104189884D03*
X221816552Y-105739884D03*
%TD*%
D15*
%TO.C,R3*%
X197420000Y-121705000D03*
X197420000Y-123355000D03*
%TD*%
D13*
%TO.C,C8*%
X211309716Y-123995427D03*
X211309716Y-122445427D03*
%TD*%
D12*
%TO.C,C7*%
X224714989Y-108843258D03*
X224714989Y-110393258D03*
%TD*%
D16*
%TO.C,U1*%
X208300000Y-120580000D03*
X208300000Y-119580000D03*
X208300000Y-118580000D03*
X208300000Y-117580000D03*
X208300000Y-116580000D03*
X208300000Y-115580000D03*
X208300000Y-114580000D03*
X208300000Y-113580000D03*
X208300000Y-112580000D03*
X208300000Y-111580000D03*
X208300000Y-110580000D03*
X208300000Y-109580000D03*
X198900000Y-109580000D03*
X198900000Y-110580000D03*
X198900000Y-111580000D03*
X198900000Y-112580000D03*
X198900000Y-113580000D03*
X198900000Y-114580000D03*
X198900000Y-115580000D03*
X198900000Y-116580000D03*
X198900000Y-117580000D03*
X198900000Y-118580000D03*
X198900000Y-119580000D03*
X198900000Y-120580000D03*
%TD*%
D17*
%TO.C,R5*%
X185285000Y-124210000D03*
X183635000Y-124210000D03*
%TD*%
D13*
%TO.C,C3*%
X217741477Y-122358071D03*
X217741477Y-120808071D03*
%TD*%
%TO.C,C9*%
X215657372Y-127216993D03*
X215657372Y-125666993D03*
%TD*%
%TO.C,C20*%
X224714989Y-127216993D03*
X224714989Y-125666993D03*
%TD*%
D18*
%TO.C,L1*%
X223049407Y-115809347D03*
X229089407Y-115809347D03*
%TD*%
D13*
%TO.C,C23*%
X224180000Y-123055000D03*
X224180000Y-121505000D03*
%TD*%
D12*
%TO.C,C4*%
X218918114Y-103831933D03*
X218918114Y-105381933D03*
%TD*%
%TO.C,C13*%
X210222802Y-105621692D03*
X210222802Y-107171692D03*
%TD*%
D17*
%TO.C,R6*%
X185290000Y-105800000D03*
X183640000Y-105800000D03*
%TD*%
D13*
%TO.C,C12*%
X218555809Y-127216993D03*
X218555809Y-125666993D03*
%TD*%
D19*
%TO.C,C21*%
X211284716Y-126834041D03*
X212834716Y-126834041D03*
%TD*%
D10*
%TO.C,R2*%
X199060000Y-108485000D03*
X199060000Y-106835000D03*
%TD*%
D20*
%TO.C,D1*%
X231460000Y-117677500D03*
X231460000Y-115802500D03*
%TD*%
D12*
%TO.C,C1*%
X208048973Y-124951089D03*
X208048973Y-126501089D03*
%TD*%
D13*
%TO.C,C2*%
X215002077Y-122358071D03*
X215002077Y-120808071D03*
%TD*%
D15*
%TO.C,R4*%
X199020000Y-121705000D03*
X199020000Y-123355000D03*
%TD*%
D21*
%TO.C,Y1*%
X216296542Y-110178313D03*
X218496542Y-110178313D03*
X218496542Y-108478313D03*
X216296542Y-108478313D03*
%TD*%
D22*
%TO.C,U2*%
X215200000Y-113475000D03*
X215200000Y-113875000D03*
X215200000Y-114275000D03*
X215200000Y-114675000D03*
X215200000Y-115075000D03*
X215200000Y-115475000D03*
X215200000Y-115875000D03*
X215200000Y-116275000D03*
X215200000Y-116675000D03*
X215200000Y-117075000D03*
D23*
X215800000Y-117675000D03*
X216200000Y-117675000D03*
X216600000Y-117675000D03*
X217000000Y-117675000D03*
X217400000Y-117675000D03*
X217800000Y-117675000D03*
X218200000Y-117675000D03*
X218600000Y-117675000D03*
X219000000Y-117675000D03*
X219400000Y-117675000D03*
D22*
X220000000Y-117075000D03*
X220000000Y-116675000D03*
X220000000Y-116275000D03*
X220000000Y-115875000D03*
X220000000Y-115475000D03*
X220000000Y-115075000D03*
X220000000Y-114675000D03*
X220000000Y-114275000D03*
X220000000Y-113875000D03*
X220000000Y-113475000D03*
D23*
X219400000Y-112875000D03*
X219000000Y-112875000D03*
X218600000Y-112875000D03*
X218200000Y-112875000D03*
X217800000Y-112875000D03*
X217400000Y-112875000D03*
X217000000Y-112875000D03*
X216600000Y-112875000D03*
X216200000Y-112875000D03*
X215800000Y-112875000D03*
D24*
X217600000Y-115275000D03*
%TD*%
D13*
%TO.C,C17*%
X227613427Y-122921571D03*
X227613427Y-121371571D03*
%TD*%
D10*
%TO.C,R7*%
X231440000Y-114315000D03*
X231440000Y-112665000D03*
%TD*%
%TO.C,R8*%
X214480000Y-111920000D03*
X214480000Y-110270000D03*
%TD*%
D13*
%TO.C,C16*%
X221454247Y-127574945D03*
X221454247Y-126024945D03*
%TD*%
D12*
%TO.C,C11*%
X213121239Y-107053499D03*
X213121239Y-108603499D03*
%TD*%
%TO.C,C5*%
X217320000Y-103825000D03*
X217320000Y-105375000D03*
%TD*%
%TO.C,C14*%
X215300000Y-103831933D03*
X215300000Y-105381933D03*
%TD*%
D11*
%TO.C,C19*%
X221704247Y-108448258D03*
X221704247Y-110348258D03*
%TD*%
M02*
