%TF.GenerationSoftware,KiCad,Pcbnew,10.0.1*%
%TF.CreationDate,2026-09-09T14:42:14+02:00*%
%TF.ProjectId,Ch398,43683339-382e-46b6-9963-61645f706362,rev?*%
%TF.SameCoordinates,Original*%
%TF.FileFunction,Copper,L4,Bot*%
%TF.FilePolarity,Positive*%
%FSLAX46Y46*%
G04 Gerber Fmt 4.6, Leading zero omitted, Abs format (unit mm)*
G04 Created by KiCad (PCBNEW 10.0.1) date 2026-09-09 14:42:14*
%MOMM*%
%LPD*%
G01*
G04 APERTURE LIST*
%TA.AperFunction,ComponentPad*%
%ADD10C,1.300000*%
%TD*%
%TA.AperFunction,ComponentPad*%
%ADD11C,3.200000*%
%TD*%
%TA.AperFunction,ComponentPad*%
%ADD12C,3.000000*%
%TD*%
%TA.AperFunction,ComponentPad*%
%ADD13C,1.500000*%
%TD*%
%TA.AperFunction,ComponentPad*%
%ADD14O,2.200000X1.400000*%
%TD*%
%TA.AperFunction,ViaPad*%
%ADD15C,0.508508*%
%TD*%
%TA.AperFunction,Conductor*%
%ADD16C,0.105105*%
%TD*%
%ADD17C,0.000000*%
G04 APERTURE END LIST*
D10*
%TO.P,U3,1,VBUS_1*%
%TO.N,+5V*%
X254400000Y-117510000D03*
%TO.P,U3,2,D-_2*%
%TO.N,/HS_DM*%
X254400000Y-115010000D03*
%TO.P,U3,3,D+_3*%
%TO.N,/HS_DP*%
X254400000Y-113010000D03*
%TO.P,U3,4,GND_4*%
%TO.N,GND*%
X254400000Y-110510000D03*
%TO.P,U3,5,SSRX-_5*%
%TO.N,Net-(U3-SSRX-)*%
X252900000Y-110010000D03*
%TO.P,U3,6,SSRX+_6*%
%TO.N,Net-(U3-SSRX+)*%
X252900000Y-112010000D03*
%TO.P,U3,7,GND_DRAN_7*%
%TO.N,GND*%
X252900000Y-114010000D03*
%TO.P,U3,8,SSTX-_8*%
%TO.N,/SS_RXB*%
X252900000Y-116010000D03*
%TO.P,U3,9,SSTX+_9*%
%TO.N,/SS_RXA*%
X252900000Y-118010000D03*
D11*
%TO.P,U3,10,SH_10*%
%TO.N,GND*%
X256500000Y-120580000D03*
X256500000Y-107440000D03*
%TD*%
D12*
%TO.P,RJ1,*%
%TO.N,*%
X175610000Y-108570000D03*
X175610000Y-121270000D03*
D13*
%TO.P,RJ1,1,1_1*%
%TO.N,Net-(RJ1-Pad1)*%
X178140000Y-118490000D03*
%TO.P,RJ1,2,2_2*%
%TO.N,Net-(RJ1-Pad2)*%
X179940000Y-117470000D03*
%TO.P,RJ1,3,3_3*%
%TO.N,Net-(RJ1-Pad3)*%
X178140000Y-116450000D03*
%TO.P,RJ1,4,4_4*%
%TO.N,Net-(RJ1-Pad4)*%
X179940000Y-115430000D03*
%TO.P,RJ1,5,5_5*%
%TO.N,Net-(RJ1-Pad5)*%
X178140000Y-114410000D03*
%TO.P,RJ1,6,6_6*%
%TO.N,Net-(RJ1-Pad6)*%
X179940000Y-113390000D03*
%TO.P,RJ1,7,7_7*%
%TO.N,Net-(RJ1-Pad7)*%
X178140000Y-112370000D03*
%TO.P,RJ1,8,8_8*%
%TO.N,Net-(RJ1-Pad8)*%
X179940000Y-111350000D03*
D14*
%TO.P,RJ1,9,9_9*%
%TO.N,GND*%
X179110000Y-123050000D03*
%TO.P,RJ1,10,10_10*%
X179110000Y-106850000D03*
D13*
%TO.P,RJ1,11,+_11*%
%TO.N,Net-(R6-Pad2)*%
X184660000Y-108060000D03*
%TO.P,RJ1,12,-_12*%
%TO.N,GND*%
X184660000Y-110350000D03*
%TO.P,RJ1,13,+_13*%
%TO.N,Net-(R5-Pad2)*%
X184660000Y-119490000D03*
%TO.P,RJ1,14,-_14*%
%TO.N,GND*%
X184660000Y-121780000D03*
%TD*%
D15*
%TO.N,GND*%
X223881770Y-126962542D03*
X195325886Y-119702507D03*
X221682557Y-109327952D03*
X216522995Y-126983484D03*
X216602553Y-106296288D03*
X251639788Y-110108003D03*
X261094763Y-101032852D03*
X232526644Y-117659381D03*
X238145057Y-129117148D03*
X210452023Y-126538979D03*
X192170361Y-101032852D03*
X243446934Y-129117148D03*
X220599465Y-127397146D03*
X208075992Y-101032852D03*
X248748812Y-129117148D03*
X213164981Y-106226737D03*
X197193652Y-114243311D03*
X194377517Y-125192307D03*
X212185678Y-124121690D03*
X250491009Y-101032852D03*
X211095946Y-105457660D03*
X262087148Y-110644222D03*
X170962852Y-101032852D03*
X228493881Y-122146571D03*
X256871907Y-109625361D03*
X204981271Y-125192307D03*
X227541303Y-129117148D03*
X254050689Y-129117148D03*
X170962852Y-108080496D03*
X170962852Y-113382373D03*
X176034747Y-116904032D03*
X262087148Y-115946099D03*
X219784554Y-103739086D03*
X199909292Y-106573636D03*
X182626739Y-106040912D03*
X241899257Y-117431481D03*
X218679746Y-101032852D03*
X201213282Y-119480710D03*
X217391779Y-109980640D03*
X199679394Y-125192307D03*
X206075579Y-106497363D03*
X255792886Y-101032852D03*
X197472238Y-101032852D03*
X262087148Y-121247976D03*
X232843180Y-129117148D03*
X211103528Y-116117366D03*
X236703299Y-116377007D03*
X181737463Y-129117148D03*
X224837668Y-117559347D03*
X223981623Y-101032852D03*
X196629543Y-106560539D03*
X218914264Y-128691808D03*
X235786432Y-122108511D03*
X214335946Y-109469701D03*
X186024150Y-119421337D03*
X201553870Y-109431069D03*
X186868483Y-101032852D03*
X176435585Y-129117148D03*
X222239426Y-129117148D03*
X262087148Y-126549853D03*
X246002396Y-110050869D03*
X236298981Y-106808319D03*
X198917037Y-124120810D03*
X226188556Y-105380875D03*
X223890718Y-123924032D03*
X245189132Y-101032852D03*
X189075639Y-125192307D03*
X208297995Y-127348308D03*
X212922047Y-128589903D03*
X251209625Y-124048923D03*
X224718050Y-108018892D03*
X196578183Y-123502590D03*
X186620896Y-109686689D03*
X239887255Y-101032852D03*
X243886081Y-123741075D03*
X241529649Y-107204041D03*
X202774115Y-101032852D03*
X217337964Y-102992882D03*
X170962852Y-118684250D03*
X181304150Y-113458663D03*
X221643211Y-103381200D03*
X255508598Y-115620083D03*
X171133708Y-129117148D03*
X190833397Y-113033311D03*
X177589334Y-107534856D03*
X234585378Y-101032852D03*
X220672776Y-113678992D03*
X210954989Y-111304046D03*
X211959555Y-119820343D03*
X215384192Y-102998273D03*
X216794760Y-107502605D03*
X181566606Y-101032852D03*
X176771268Y-123036134D03*
X219536941Y-121228787D03*
X176264729Y-101032852D03*
X227491304Y-123754094D03*
X196143741Y-107279843D03*
X213377869Y-101032852D03*
X210478743Y-113961349D03*
X221515622Y-122269404D03*
X230999091Y-106663156D03*
X247095216Y-118485954D03*
X181974208Y-122517965D03*
X229283500Y-101032852D03*
%TO.N,/AVDD33*%
X225550537Y-126136221D03*
X215732509Y-128024784D03*
X219866438Y-117792456D03*
%TO.N,/AVDDK*%
X213885444Y-113428250D03*
X208896174Y-106532170D03*
%TO.N,+5V*%
X219730910Y-111682251D03*
X222732460Y-107644789D03*
%TO.N,Net-(C1-Pad1)*%
X206825730Y-114187602D03*
X206782770Y-117388853D03*
X206807298Y-111601724D03*
%TO.N,Net-(RJ1-Pad4)*%
X194000816Y-116120548D03*
%TO.N,Net-(RJ1-Pad8)*%
X200364645Y-119310357D03*
%TO.N,/LED0*%
X186064463Y-124482984D03*
X219863203Y-112854758D03*
%TO.N,Net-(R5-Pad2)*%
X182862876Y-124805192D03*
%TO.N,/SS_TXA*%
X216343632Y-119698426D03*
X216294853Y-118401787D03*
%TO.N,/HS_DM*%
X235364471Y-120594809D03*
%TO.N,/HS_DP*%
X234774420Y-120420751D03*
%TO.N,Net-(U2-VSW)*%
X227529401Y-115848862D03*
X220896258Y-114772789D03*
%TO.N,/XI*%
X217748834Y-112057873D03*
X219561511Y-108619801D03*
%TO.N,/LED1*%
X218916641Y-112133468D03*
X188136467Y-105834053D03*
%TO.N,/X0*%
X214468413Y-104312779D03*
X217123384Y-111940850D03*
%TO.N,Net-(U2-LED2)*%
X221047455Y-115945071D03*
X230584813Y-112650647D03*
%TD*%
%TO.N,/AVDD33*%
D16*
X222125936Y-120051954D02*
X219866438Y-117792456D01*
X222125936Y-122688747D02*
X222125936Y-120051954D01*
X216789899Y-128024784D02*
X222125936Y-122688747D01*
X225550537Y-124995227D02*
X223244057Y-122688747D01*
X225550537Y-126136221D02*
X225550537Y-124995227D01*
X215732509Y-128024784D02*
X216789899Y-128024784D01*
X223244057Y-122688747D02*
X222125936Y-122688747D01*
%TO.N,/AVDDK*%
X213885444Y-111521440D02*
X213885444Y-113428250D01*
X208896174Y-106532170D02*
X213885444Y-111521440D01*
%TO.N,+5V*%
X253753256Y-118302941D02*
X253753256Y-118156744D01*
X240907138Y-107601174D02*
X252131193Y-118825229D01*
X252131193Y-118825229D02*
X253230967Y-118825229D01*
X254168734Y-117741266D02*
X254400000Y-117510000D01*
X222732460Y-107644789D02*
X222776075Y-107601174D01*
X253230967Y-118825229D02*
X253753256Y-118302941D01*
X219730910Y-110646339D02*
X222732460Y-107644789D01*
X219730910Y-111682251D02*
X219730910Y-110646339D01*
X253753256Y-118156744D02*
X254168734Y-117741266D01*
X222776075Y-107601174D02*
X240907138Y-107601174D01*
%TO.N,Net-(C1-Pad1)*%
X206807298Y-114169170D02*
X206807298Y-111601724D01*
X206825730Y-114187602D02*
X206807298Y-114169170D01*
X206782770Y-117388853D02*
X206825730Y-117345893D01*
X206825730Y-117345893D02*
X206825730Y-114187602D01*
%TO.N,Net-(RJ1-Pad4)*%
X179940000Y-115430000D02*
X180694753Y-115430000D01*
X193310267Y-115430000D02*
X194000816Y-116120548D01*
X180694753Y-115430000D02*
X180984423Y-115430000D01*
X180984423Y-115430000D02*
X193310267Y-115430000D01*
%TO.N,Net-(RJ1-Pad8)*%
X192404288Y-111350000D02*
X200364645Y-119310357D01*
X180694753Y-111350000D02*
X180984423Y-111350000D01*
X180984423Y-111350000D02*
X192404288Y-111350000D01*
X179940000Y-111350000D02*
X180694753Y-111350000D01*
%TO.N,/LED0*%
X186064463Y-124482984D02*
X186110475Y-124528997D01*
X186110475Y-124528997D02*
X208188964Y-124528997D01*
X208188964Y-124528997D02*
X219863203Y-112854758D01*
%TO.N,Net-(R5-Pad2)*%
X182862876Y-121287124D02*
X182862876Y-124805192D01*
X183921481Y-120228519D02*
X182862876Y-121287124D01*
X184393154Y-119756846D02*
X183921481Y-120228519D01*
X184660000Y-119490000D02*
X184393154Y-119756846D01*
%TO.N,/SS_TXA*%
X216294853Y-119649647D02*
X216294853Y-118401787D01*
X216343632Y-119698426D02*
X216294853Y-119649647D01*
%TO.N,/HS_DM*%
X254583110Y-114730578D02*
X254400000Y-115010000D01*
X254766220Y-114451155D02*
X254583110Y-114730578D01*
D17*
X255020376Y-114160547D02*
X255020375Y-114160547D01*
X255020375Y-114160547D01*
X255020375Y-114160547D01*
X255020375Y-114160547D01*
X255020375Y-114160547D01*
X255020375Y-114160547D01*
X255020375Y-114160547D01*
X255020375Y-114160546D01*
X255020375Y-114160546D01*
X255020375Y-114160546D01*
X255020375Y-114160546D01*
X255020375Y-114160546D01*
X255020376Y-114160546D01*
X255020376Y-114160546D01*
X255020376Y-114160546D01*
X255020376Y-114160546D01*
X255020376Y-114160546D01*
X255020376Y-114160546D01*
X255020376Y-114160546D01*
X255020376Y-114160546D01*
X255020376Y-114160546D01*
X255020376Y-114160546D01*
X255020376Y-114160546D01*
X255020376Y-114160546D01*
X255020377Y-114160546D01*
X255020377Y-114160546D01*
X255020377Y-114160546D01*
X255020377Y-114160546D01*
X255020377Y-114160546D01*
X255020377Y-114160546D01*
X255020377Y-114160547D01*
X255020377Y-114160547D01*
X255020377Y-114160547D01*
X255020377Y-114160547D01*
X255020377Y-114160547D01*
X255020377Y-114160547D01*
X255020377Y-114160547D01*
X255020376Y-114160547D01*
X255020376Y-114160547D02*
X255020377Y-114160547D01*
X255020377Y-114160547D01*
X255020377Y-114160547D01*
X255020377Y-114160547D01*
X255020377Y-114160547D01*
X255020377Y-114160547D01*
X255020377Y-114160548D01*
X255020377Y-114160548D01*
X255020377Y-114160548D01*
X255020377Y-114160548D01*
X255020377Y-114160548D01*
X255020377Y-114160548D01*
X255020377Y-114160548D01*
X255020376Y-114160548D01*
X255020376Y-114160548D01*
X255020376Y-114160548D01*
X255020376Y-114160548D01*
X255020376Y-114160548D01*
X255020376Y-114160548D01*
X255020376Y-114160548D01*
X255020376Y-114160548D01*
X255020376Y-114160548D01*
X255020376Y-114160548D01*
X255020376Y-114160548D01*
X255020376Y-114160548D01*
X255020375Y-114160548D01*
X255020375Y-114160548D01*
X255020375Y-114160548D01*
X255020375Y-114160548D01*
X255020375Y-114160548D01*
X255020375Y-114160548D01*
X255020375Y-114160547D01*
X255020375Y-114160547D01*
X255020375Y-114160547D01*
X255020375Y-114160547D01*
X255020375Y-114160547D01*
X255020375Y-114160547D01*
X255020376Y-114160547D01*
D16*
X255352036Y-114160547D02*
X255020376Y-114160547D01*
X235685892Y-121170933D02*
X251922878Y-121170933D01*
X256243988Y-116849823D02*
X256243988Y-115052499D01*
X235365122Y-120851783D02*
X235685892Y-121170933D01*
X256243988Y-115052499D02*
X255352036Y-114160547D01*
X255020376Y-114160547D02*
X255020376Y-114196999D01*
X235364471Y-120594809D02*
X235365122Y-120851783D01*
X251922878Y-121170933D02*
X256243988Y-116849823D01*
X255020376Y-114196999D02*
X254766220Y-114451155D01*
%TO.N,/HS_DP*%
X254766290Y-113568775D02*
X254583145Y-113289387D01*
X234947192Y-120724750D02*
X234993595Y-120826017D01*
X235019249Y-120862817D02*
X235058732Y-120902100D01*
X256486177Y-116950141D02*
X256495760Y-116901967D01*
X255452354Y-113918358D02*
X255404180Y-113908775D01*
X256495760Y-116901967D02*
X256495760Y-115000355D01*
X234931956Y-120623774D02*
X234936070Y-120681291D01*
X255023320Y-113908775D02*
X255020376Y-113908638D01*
X256486177Y-114952181D02*
X256458889Y-114911341D01*
X256458889Y-114911341D02*
X255493194Y-113945647D01*
X252023196Y-121413122D02*
X252064036Y-121385833D01*
X256495760Y-115000355D02*
X256486177Y-114952181D01*
X252064036Y-121385833D02*
X256458889Y-116990981D01*
X255020376Y-113822861D02*
X254766290Y-113568775D01*
X256458889Y-116990981D02*
X256486177Y-116950141D01*
X254583145Y-113289387D02*
X254400000Y-113010000D01*
X235058732Y-120902100D02*
X235545146Y-121386058D01*
X251975022Y-121422704D02*
X252023196Y-121413122D01*
X235545146Y-121386058D02*
X235586055Y-121413243D01*
X255404180Y-113908775D02*
X255023320Y-113908775D01*
X234774420Y-120420751D02*
X234931956Y-120623774D01*
X255493194Y-113945647D02*
X255452354Y-113918358D01*
X235633935Y-121422704D02*
X251975022Y-121422704D01*
X234993595Y-120826017D02*
X235019249Y-120862817D01*
X255020376Y-113908638D02*
X255020376Y-113822861D01*
X234936070Y-120681291D02*
X234947192Y-120724750D01*
D17*
X235058732Y-120902100D02*
X235058731Y-120902100D01*
X235058731Y-120902100D01*
X235058731Y-120902100D01*
X235058731Y-120902100D01*
X235058731Y-120902100D01*
X235058731Y-120902100D01*
X235058731Y-120902100D01*
X235058731Y-120902099D01*
X235058731Y-120902099D01*
X235058731Y-120902099D01*
X235058731Y-120902099D01*
X235058731Y-120902099D01*
X235058732Y-120902099D01*
X235058732Y-120902099D01*
X235058732Y-120902099D01*
X235058732Y-120902099D01*
X235058732Y-120902099D01*
X235058732Y-120902099D01*
X235058732Y-120902099D01*
X235058732Y-120902099D01*
X235058732Y-120902099D01*
X235058732Y-120902099D01*
X235058732Y-120902099D01*
X235058732Y-120902099D01*
X235058733Y-120902099D01*
X235058733Y-120902099D01*
X235058733Y-120902099D01*
X235058733Y-120902099D01*
X235058733Y-120902099D01*
X235058733Y-120902099D01*
X235058733Y-120902100D01*
X235058733Y-120902100D01*
X235058733Y-120902100D01*
X235058733Y-120902100D01*
X235058733Y-120902100D01*
X235058733Y-120902100D01*
X235058733Y-120902100D01*
X235058732Y-120902100D01*
X235058732Y-120902100D02*
X235058733Y-120902100D01*
X235058733Y-120902100D01*
X235058733Y-120902100D01*
X235058733Y-120902100D01*
X235058733Y-120902100D01*
X235058733Y-120902100D01*
X235058733Y-120902101D01*
X235058733Y-120902101D01*
X235058733Y-120902101D01*
X235058733Y-120902101D01*
X235058733Y-120902101D01*
X235058733Y-120902101D01*
X235058733Y-120902101D01*
X235058732Y-120902101D01*
X235058732Y-120902101D01*
X235058732Y-120902101D01*
X235058732Y-120902101D01*
X235058732Y-120902101D01*
X235058732Y-120902101D01*
X235058732Y-120902101D01*
X235058732Y-120902101D01*
X235058732Y-120902101D01*
X235058732Y-120902101D01*
X235058732Y-120902101D01*
X235058732Y-120902101D01*
X235058731Y-120902101D01*
X235058731Y-120902101D01*
X235058731Y-120902101D01*
X235058731Y-120902101D01*
X235058731Y-120902101D01*
X235058731Y-120902101D01*
X235058731Y-120902100D01*
X235058731Y-120902100D01*
X235058731Y-120902100D01*
X235058731Y-120902100D01*
X235058731Y-120902100D01*
X235058731Y-120902100D01*
X235058732Y-120902100D01*
D16*
X235586055Y-121413243D02*
X235633935Y-121422704D01*
%TO.N,Net-(U2-VSW)*%
X220896258Y-114772789D02*
X220549069Y-115119978D01*
X220549069Y-116174013D02*
X220809449Y-116434393D01*
X220809449Y-116434393D02*
X226943869Y-116434393D01*
X220549069Y-115119978D02*
X220549069Y-116174013D01*
X226943869Y-116434393D02*
X227529401Y-115848862D01*
%TO.N,/XI*%
X217748834Y-110432477D02*
X217748834Y-112057873D01*
X219561511Y-108619801D02*
X217748834Y-110432477D01*
%TO.N,/LED1*%
X215470670Y-112502106D02*
X218548003Y-112502106D01*
X218548003Y-112502106D02*
X218916641Y-112133468D01*
X188136467Y-105834053D02*
X208802617Y-105834053D01*
X208802617Y-105834053D02*
X215470670Y-112502106D01*
%TO.N,/X0*%
X215795898Y-105640264D02*
X215795898Y-110613365D01*
X214468413Y-104312779D02*
X215795898Y-105640264D01*
X215795898Y-110613365D02*
X217123384Y-111940850D01*
%TO.N,Net-(U2-LED2)*%
X221047455Y-115945071D02*
X224341879Y-112650647D01*
X224341879Y-112650647D02*
X230584813Y-112650647D01*
%TD*%
M02*
