M48
; DRILL file KiCad 10.0.1 date 2026-09-09T14:42:14
; FORMAT={-:-/ absolute / inch / decimal}
; #@! TF.CreationDate,2026-09-09T14:42:14+02:00
; #@! TF.GenerationSoftware,Kicad,Pcbnew,10.0.1
; #@! TF.FileFunction,Plated,1,4,PTH
FMAT,2
INCH
; #@! TA.AperFunction,Plated,PTH,ViaDrill
T1C0.0080
; #@! TA.AperFunction,Plated,PTH,ComponentDrill
T2C0.0276
; #@! TA.AperFunction,Plated,PTH,ComponentDrill
T3C0.0354
; #@! TA.AperFunction,Plated,PTH,ComponentDrill
T4C0.0394
; #@! TA.AperFunction,Plated,PTH,ComponentDrill
T5C0.0906
; #@! TA.AperFunction,Plated,PTH,ComponentDrill
T6C0.1181
%
G90
G05
T1
X6.7308Y-3.9777
X6.7308Y-4.2551
X6.7308Y-4.4639
X6.7308Y-4.6726
X6.7375Y-5.0834
X6.9305Y-4.6025
X6.9396Y-3.9777
X6.9463Y-5.0834
X6.9595Y-4.8439
X6.9917Y-4.2337
X7.138Y-4.4669
X7.1483Y-3.9777
X7.155Y-5.0834
X7.1643Y-4.8235
X7.19Y-4.1748
X7.1993Y-4.9136
X7.3238Y-4.7016
X7.3254Y-4.9009
X7.3473Y-4.3184
X7.357Y-3.9777
X7.4069Y-4.1667
X7.4439Y-4.9288
X7.5131Y-4.4501
X7.5658Y-3.9777
X7.6378Y-4.5717
X7.6527Y-4.9288
X7.69Y-4.7127
X7.7222Y-4.2236
X7.7393Y-4.8623
X7.7413Y-4.1953
X7.7635Y-4.4978
X7.7745Y-3.9777
X7.8314Y-4.8866
X7.8614Y-4.9288
X7.8704Y-4.1958
X7.8884Y-4.6973
X7.9218Y-4.704
X7.9352Y-4.3083
X7.9832Y-3.9777
X8.0701Y-4.9288
X8.1132Y-4.1928
X8.1411Y-4.6216
X8.142Y-4.3938
X8.1427Y-4.4956
X8.192Y-3.9777
X8.2007Y-5.0137
X8.2243Y-4.1942
X8.2855Y-4.9818
X8.2866Y-4.4867
X8.3053Y-4.382
X8.3109Y-4.1519
X8.3112Y-4.5715
X8.3449Y-4.7173
X8.3538Y-4.8867
X8.3828Y-5.0626
X8.3923Y-4.1822
X8.4007Y-3.9777
X8.4207Y-4.4657
X8.4384Y-4.3098
X8.4436Y-4.1068
X8.4797Y-4.0551
X8.4934Y-5.0403
X8.5155Y-4.6615
X8.5175Y-4.7125
X8.5245Y-4.9993
X8.5277Y-4.1849
X8.5352Y-4.2324
X8.5482Y-4.4071
X8.5566Y-4.0548
X8.5587Y-4.3299
X8.5728Y-4.4117
X8.6094Y-3.9777
X8.6187Y-5.0666
X8.6188Y-4.4147
X8.6432Y-4.7728
X8.6442Y-4.2764
X8.6508Y-4.3969
X8.6529Y-4.0842
X8.656Y-4.4431
X8.6562Y-4.6375
X8.685Y-5.0156
X8.6879Y-4.4756
X8.6967Y-4.5186
X8.7027Y-4.5648
X8.7211Y-4.8138
X8.7261Y-4.0701
X8.7277Y-4.3043
X8.7496Y-5.0834
X8.769Y-4.238
X8.8142Y-4.9985
X8.8146Y-4.8789
X8.8182Y-3.9777
X8.8472Y-4.2527
X8.8519Y-4.6283
X8.8799Y-4.966
X8.9051Y-4.1489
X8.9564Y-4.8722
X8.9579Y-4.561
X8.9583Y-5.0834
X8.9958Y-4.8089
X9.0269Y-3.9777
X9.0781Y-4.4351
X9.0945Y-4.1993
X9.1546Y-4.6323
X9.1671Y-5.0834
X9.2356Y-3.9777
X9.2431Y-4.741
X9.2663Y-4.7478
X9.2829Y-4.8074
X9.3031Y-4.2051
X9.319Y-4.5818
X9.3758Y-5.0834
X9.4444Y-3.9777
X9.509Y-4.2206
X9.5236Y-4.6233
X9.5845Y-5.0834
X9.6018Y-4.8717
X9.6531Y-3.9777
X9.6851Y-4.3327
X9.7282Y-4.6648
X9.7933Y-5.0834
X9.8619Y-3.9777
X9.8901Y-4.8838
X9.9071Y-4.335
X10.002Y-5.0834
X10.0594Y-4.552
X10.0706Y-3.9777
X10.1131Y-4.316
X10.2793Y-3.9777
X10.3184Y-4.3561
X10.3184Y-4.5648
X10.3184Y-4.7735
X10.3184Y-4.9823
T2
X9.9567Y-4.3311
X9.9567Y-4.4098
X9.9567Y-4.4886
X9.9567Y-4.5673
X9.9567Y-4.6461
X10.0157Y-4.3508
X10.0157Y-4.4492
X10.0157Y-4.528
X10.0157Y-4.6264
T4
X7.0134Y-4.424
X7.0134Y-4.5043
X7.0134Y-4.5846
X7.0134Y-4.665
X7.0843Y-4.3839
X7.0843Y-4.4642
X7.0843Y-4.5445
X7.0843Y-4.6248
X7.2701Y-4.2543
X7.2701Y-4.3445
X7.2701Y-4.7043
X7.2701Y-4.7945
T5
X10.0984Y-4.2299
X10.0984Y-4.7472
T6
X6.9138Y-4.2744
X6.9138Y-4.7744
T3
G00X7.0673Y-4.2067
M15
G01X7.0358Y-4.2067
M16
G05
G00X7.0673Y-4.8445
M15
G01X7.0358Y-4.8445
M16
G05
M30
