%TF.GenerationSoftware,KiCad,Pcbnew,10.0.6*%
%TF.CreationDate,2026-09-25T19:28:43+02:00*%
%TF.ProjectId,Ch398,43683339-382e-46b6-9963-61645f706362,rev?*%
%TF.SameCoordinates,Original*%
%TF.FileFunction,Copper,L1,Top*%
%TF.FilePolarity,Positive*%
%FSLAX46Y46*%
G04 Gerber Fmt 4.6, Leading zero omitted, Abs format (unit mm)*
G04 Created by KiCad (PCBNEW 10.0.6) date 2026-09-25 19:28:43*
%MOMM*%
%LPD*%
G01*
G04 APERTURE LIST*
G04 Aperture macros list*
%AMRoundRect*
0 Rectangle with rounded corners*
0 $1 Rounding radius*
0 $2 $3 $4 $5 $6 $7 $8 $9 X,Y pos of 4 corners*
0 Add a 4 corners polygon primitive as box body*
4,1,4,$2,$3,$4,$5,$6,$7,$8,$9,$2,$3,0*
0 Add four circle primitives for the rounded corners*
1,1,$1+$1,$2,$3*
1,1,$1+$1,$4,$5*
1,1,$1+$1,$6,$7*
1,1,$1+$1,$8,$9*
0 Add four rect primitives between the rounded corners*
20,1,$1+$1,$2,$3,$4,$5,0*
20,1,$1+$1,$4,$5,$6,$7,0*
20,1,$1+$1,$6,$7,$8,$9,0*
20,1,$1+$1,$8,$9,$2,$3,0*%
G04 Aperture macros list end*
%TA.AperFunction,SMDPad,CuDef*%
%ADD10RoundRect,0.200000X0.275000X-0.200000X0.275000X0.200000X-0.275000X0.200000X-0.275000X-0.200000X0*%
%TD*%
%TA.AperFunction,SMDPad,CuDef*%
%ADD11RoundRect,0.250000X-0.475000X0.250000X-0.475000X-0.250000X0.475000X-0.250000X0.475000X0.250000X0*%
%TD*%
%TA.AperFunction,SMDPad,CuDef*%
%ADD12RoundRect,0.225000X-0.250000X0.225000X-0.250000X-0.225000X0.250000X-0.225000X0.250000X0.225000X0*%
%TD*%
%TA.AperFunction,SMDPad,CuDef*%
%ADD13RoundRect,0.225000X0.250000X-0.225000X0.250000X0.225000X-0.250000X0.225000X-0.250000X-0.225000X0*%
%TD*%
%TA.AperFunction,SMDPad,CuDef*%
%ADD14RoundRect,0.250000X0.475000X-0.250000X0.475000X0.250000X-0.475000X0.250000X-0.475000X-0.250000X0*%
%TD*%
%TA.AperFunction,SMDPad,CuDef*%
%ADD15RoundRect,0.200000X-0.275000X0.200000X-0.275000X-0.200000X0.275000X-0.200000X0.275000X0.200000X0*%
%TD*%
%TA.AperFunction,SMDPad,CuDef*%
%ADD16R,2.200000X0.640000*%
%TD*%
%TA.AperFunction,SMDPad,CuDef*%
%ADD17RoundRect,0.200000X0.200000X0.275000X-0.200000X0.275000X-0.200000X-0.275000X0.200000X-0.275000X0*%
%TD*%
%TA.AperFunction,SMDPad,CuDef*%
%ADD18R,2.350000X3.500000*%
%TD*%
%TA.AperFunction,ComponentPad*%
%ADD19C,3.000000*%
%TD*%
%TA.AperFunction,ComponentPad*%
%ADD20C,1.500000*%
%TD*%
%TA.AperFunction,ComponentPad*%
%ADD21O,2.200000X1.400000*%
%TD*%
%TA.AperFunction,SMDPad,CuDef*%
%ADD22R,1.900000X0.650000*%
%TD*%
%TA.AperFunction,ComponentPad*%
%ADD23O,3.300000X1.200000*%
%TD*%
%TA.AperFunction,SMDPad,CuDef*%
%ADD24RoundRect,0.243750X0.456250X-0.243750X0.456250X0.243750X-0.456250X0.243750X-0.456250X-0.243750X0*%
%TD*%
%TA.AperFunction,SMDPad,CuDef*%
%ADD25RoundRect,0.250000X-0.450000X-0.350000X0.450000X-0.350000X0.450000X0.350000X-0.450000X0.350000X0*%
%TD*%
%TA.AperFunction,SMDPad,CuDef*%
%ADD26R,0.600000X0.200000*%
%TD*%
%TA.AperFunction,SMDPad,CuDef*%
%ADD27R,0.200000X0.600000*%
%TD*%
%TA.AperFunction,SMDPad,CuDef*%
%ADD28R,3.500000X3.500000*%
%TD*%
%TA.AperFunction,ViaPad*%
%ADD29C,0.508508*%
%TD*%
%TA.AperFunction,ViaPad*%
%ADD30C,0.508000*%
%TD*%
%TA.AperFunction,Conductor*%
%ADD31C,0.105105*%
%TD*%
%TA.AperFunction,Conductor*%
%ADD32C,0.100000*%
%TD*%
%TA.AperFunction,Conductor*%
%ADD33C,0.100100*%
%TD*%
G04 APERTURE END LIST*
D10*
%TO.P,R1,1*%
%TO.N,Net-(R1-Pad1)*%
X197490000Y-108480000D03*
%TO.P,R1,2*%
%TO.N,GND*%
X197490000Y-106830000D03*
%TD*%
D11*
%TO.P,C10,1*%
%TO.N,GND*%
X212284325Y-115607294D03*
%TO.P,C10,2*%
%TO.N,/AVDD33*%
X212284325Y-117507294D03*
%TD*%
D12*
%TO.P,C6,1*%
%TO.N,GND*%
X212034325Y-111348920D03*
%TO.P,C6,2*%
%TO.N,/AVDDK*%
X212034325Y-112898920D03*
%TD*%
D13*
%TO.P,C15,1*%
%TO.N,GND*%
X225840000Y-122930000D03*
%TO.P,C15,2*%
%TO.N,/AVDDK*%
X225840000Y-121380000D03*
%TD*%
D14*
%TO.P,C22,1*%
%TO.N,GND*%
X221704247Y-123234523D03*
%TO.P,C22,2*%
%TO.N,/AVDD33*%
X221704247Y-121334523D03*
%TD*%
D12*
%TO.P,C18,1*%
%TO.N,GND*%
X221816552Y-104189884D03*
%TO.P,C18,2*%
%TO.N,+5V*%
X221816552Y-105739884D03*
%TD*%
D15*
%TO.P,R3,1*%
%TO.N,Net-(R3-Pad1)*%
X197420000Y-121705000D03*
%TO.P,R3,2*%
%TO.N,GND*%
X197420000Y-123355000D03*
%TD*%
D13*
%TO.P,C8,1*%
%TO.N,GND*%
X210360000Y-122375000D03*
%TO.P,C8,2*%
%TO.N,/AVDD33*%
X210360000Y-120825000D03*
%TD*%
D12*
%TO.P,C7,1*%
%TO.N,GND*%
X224714989Y-108843258D03*
%TO.P,C7,2*%
%TO.N,/AVDDK*%
X224714989Y-110393258D03*
%TD*%
D16*
%TO.P,U1,1,1_1*%
%TO.N,Net-(C1-Pad1)*%
X208300000Y-120580000D03*
%TO.P,U1,2,2_2*%
%TO.N,/MDI3N*%
X208300000Y-119580000D03*
%TO.P,U1,3,3_3*%
%TO.N,/MDI3P*%
X208300000Y-118580000D03*
%TO.P,U1,4,4_4*%
%TO.N,Net-(C1-Pad1)*%
X208300000Y-117580000D03*
%TO.P,U1,5,5_5*%
%TO.N,/MDI2N*%
X208300000Y-116580000D03*
%TO.P,U1,6,6_6*%
%TO.N,/MDI2P*%
X208300000Y-115580000D03*
%TO.P,U1,7,7_7*%
%TO.N,Net-(C1-Pad1)*%
X208300000Y-114580000D03*
%TO.P,U1,8,8_8*%
%TO.N,/MDI1N*%
X208300000Y-113580000D03*
%TO.P,U1,9,9_9*%
%TO.N,/MDI1P*%
X208300000Y-112580000D03*
%TO.P,U1,10,10_10*%
%TO.N,Net-(C1-Pad1)*%
X208300000Y-111580000D03*
%TO.P,U1,11,11_11*%
%TO.N,/MDI0N*%
X208300000Y-110580000D03*
%TO.P,U1,12,12_12*%
%TO.N,/MDI0P*%
X208300000Y-109580000D03*
%TO.P,U1,13,13_13*%
%TO.N,Net-(RJ1-Pad1)*%
X198900000Y-109580000D03*
%TO.P,U1,14,14_14*%
%TO.N,Net-(RJ1-Pad2)*%
X198900000Y-110580000D03*
%TO.P,U1,15,15_15*%
%TO.N,Net-(R1-Pad1)*%
X198900000Y-111580000D03*
%TO.P,U1,16,16_16*%
%TO.N,Net-(RJ1-Pad3)*%
X198900000Y-112580000D03*
%TO.P,U1,17,17_17*%
%TO.N,Net-(RJ1-Pad6)*%
X198900000Y-113580000D03*
%TO.P,U1,18,18_18*%
%TO.N,Net-(R2-Pad1)*%
X198900000Y-114580000D03*
%TO.P,U1,19,19_19*%
%TO.N,Net-(RJ1-Pad4)*%
X198900000Y-115580000D03*
%TO.P,U1,20,20_20*%
%TO.N,Net-(RJ1-Pad5)*%
X198900000Y-116580000D03*
%TO.P,U1,21,21_21*%
%TO.N,Net-(R3-Pad1)*%
X198900000Y-117580000D03*
%TO.P,U1,22,22_22*%
%TO.N,Net-(RJ1-Pad7)*%
X198900000Y-118580000D03*
%TO.P,U1,23,23_23*%
%TO.N,Net-(RJ1-Pad8)*%
X198900000Y-119580000D03*
%TO.P,U1,24,24_24*%
%TO.N,Net-(R4-Pad1)*%
X198900000Y-120580000D03*
%TD*%
D17*
%TO.P,R5,1*%
%TO.N,/LED0*%
X185285000Y-124210000D03*
%TO.P,R5,2*%
%TO.N,Net-(R5-Pad2)*%
X183635000Y-124210000D03*
%TD*%
D13*
%TO.P,C9,1*%
%TO.N,GND*%
X213470000Y-122345000D03*
%TO.P,C9,2*%
%TO.N,/AVDD33*%
X213470000Y-120795000D03*
%TD*%
%TO.P,C20,1*%
%TO.N,GND*%
X224714989Y-127216993D03*
%TO.P,C20,2*%
%TO.N,/AVDD33*%
X224714989Y-125666993D03*
%TD*%
D18*
%TO.P,L1,1,1_1*%
%TO.N,/AVDDK*%
X223049407Y-115809347D03*
%TO.P,L1,2,2_2*%
%TO.N,Net-(U2-VSW)*%
X229089407Y-115809347D03*
%TD*%
D19*
%TO.P,RJ1,*%
%TO.N,*%
X175610000Y-108570000D03*
X175610000Y-121270000D03*
D20*
%TO.P,RJ1,1,1_1*%
%TO.N,Net-(RJ1-Pad1)*%
X178140000Y-118490000D03*
%TO.P,RJ1,2,2_2*%
%TO.N,Net-(RJ1-Pad2)*%
X179940000Y-117470000D03*
%TO.P,RJ1,3,3_3*%
%TO.N,Net-(RJ1-Pad3)*%
X178140000Y-116450000D03*
%TO.P,RJ1,4,4_4*%
%TO.N,Net-(RJ1-Pad4)*%
X179940000Y-115430000D03*
%TO.P,RJ1,5,5_5*%
%TO.N,Net-(RJ1-Pad5)*%
X178140000Y-114410000D03*
%TO.P,RJ1,6,6_6*%
%TO.N,Net-(RJ1-Pad6)*%
X179940000Y-113390000D03*
%TO.P,RJ1,7,7_7*%
%TO.N,Net-(RJ1-Pad7)*%
X178140000Y-112370000D03*
%TO.P,RJ1,8,8_8*%
%TO.N,Net-(RJ1-Pad8)*%
X179940000Y-111350000D03*
D21*
%TO.P,RJ1,9,9_9*%
%TO.N,GND*%
X179110000Y-123050000D03*
%TO.P,RJ1,10,10_10*%
X179110000Y-106850000D03*
D20*
%TO.P,RJ1,11,+_11*%
%TO.N,Net-(R6-Pad2)*%
X184660000Y-108060000D03*
%TO.P,RJ1,12,-_12*%
%TO.N,GND*%
X184660000Y-110350000D03*
%TO.P,RJ1,13,+_13*%
%TO.N,Net-(R5-Pad2)*%
X184660000Y-119490000D03*
%TO.P,RJ1,14,-_14*%
%TO.N,GND*%
X184660000Y-121780000D03*
%TD*%
D13*
%TO.P,C23,1*%
%TO.N,GND*%
X224180000Y-123055000D03*
%TO.P,C23,2*%
%TO.N,/AVDD33*%
X224180000Y-121505000D03*
%TD*%
D12*
%TO.P,C4,1*%
%TO.N,GND*%
X218918114Y-103831933D03*
%TO.P,C4,2*%
%TO.N,/XI*%
X218918114Y-105381933D03*
%TD*%
%TO.P,C13,1*%
%TO.N,GND*%
X210222802Y-105621692D03*
%TO.P,C13,2*%
%TO.N,/AVDDK*%
X210222802Y-107171692D03*
%TD*%
D17*
%TO.P,R6,1*%
%TO.N,/LED1*%
X185290000Y-105800000D03*
%TO.P,R6,2*%
%TO.N,Net-(R6-Pad2)*%
X183640000Y-105800000D03*
%TD*%
D22*
%TO.P,U4,1,VBUS_1*%
%TO.N,+5V*%
X253781250Y-112100000D03*
%TO.P,U4,2,D-_2*%
%TO.N,/HS_DM*%
X253781250Y-114100000D03*
%TO.P,U4,3,D+_3*%
%TO.N,/HS_DP*%
X253781250Y-116100000D03*
%TO.P,U4,4,GND_4*%
%TO.N,GND*%
X253781250Y-118100000D03*
%TO.P,U4,5,STDA_SSRX-_5*%
%TO.N,Net-(U4-STDA_SSRX-)*%
X253781250Y-119100000D03*
%TO.P,U4,6,STDA_SSRX+_6*%
%TO.N,Net-(U4-STDA_SSRX+)*%
X253781250Y-117100000D03*
%TO.P,U4,7,GND_DRAIN_7*%
%TO.N,GND*%
X253781250Y-115100000D03*
%TO.P,U4,8,STDA_SSTX-_8*%
%TO.N,/SS_RXB*%
X253781250Y-113100000D03*
%TO.P,U4,9,STDA_SSTX+_9*%
%TO.N,/SS_RXA*%
X253781250Y-111100000D03*
D23*
%TO.P,U4,10,GND_10*%
%TO.N,GND*%
X255081250Y-120950000D03*
%TO.P,U4,11,GND_11*%
X255081250Y-109250000D03*
%TD*%
D13*
%TO.P,C12,1*%
%TO.N,GND*%
X218555809Y-127216993D03*
%TO.P,C12,2*%
%TO.N,/AVDDK*%
X218555809Y-125666993D03*
%TD*%
%TO.P,C24,1*%
%TO.N,Net-(U4-STDA_SSRX-)*%
X215030000Y-122345000D03*
%TO.P,C24,2*%
%TO.N,/SS_TXB*%
X215030000Y-120795000D03*
%TD*%
%TO.P,C21,1*%
%TO.N,GND*%
X211920000Y-122355000D03*
%TO.P,C21,2*%
%TO.N,/AVDD33*%
X211920000Y-120805000D03*
%TD*%
D10*
%TO.P,R2,1*%
%TO.N,Net-(R2-Pad1)*%
X199060000Y-108485000D03*
%TO.P,R2,2*%
%TO.N,GND*%
X199060000Y-106835000D03*
%TD*%
D24*
%TO.P,D1,1,K_1*%
%TO.N,GND*%
X231460000Y-117677500D03*
%TO.P,D1,2,A_2*%
%TO.N,Net-(D1-A)*%
X231460000Y-115802500D03*
%TD*%
D12*
%TO.P,C1,1*%
%TO.N,Net-(C1-Pad1)*%
X208048973Y-124951089D03*
%TO.P,C1,2*%
%TO.N,GND*%
X208048973Y-126501089D03*
%TD*%
D13*
%TO.P,C25,1*%
%TO.N,Net-(U4-STDA_SSRX+)*%
X216600000Y-122345000D03*
%TO.P,C25,2*%
%TO.N,/SS_TXA*%
X216600000Y-120795000D03*
%TD*%
D15*
%TO.P,R4,1*%
%TO.N,Net-(R4-Pad1)*%
X199020000Y-121705000D03*
%TO.P,R4,2*%
%TO.N,GND*%
X199020000Y-123355000D03*
%TD*%
D25*
%TO.P,Y1,1,1_1*%
%TO.N,/X0*%
X216296542Y-110178313D03*
%TO.P,Y1,2,G_2*%
%TO.N,GND*%
X218496542Y-110178313D03*
%TO.P,Y1,3,3_3*%
%TO.N,/XI*%
X218496542Y-108478313D03*
%TO.P,Y1,4,G_4*%
%TO.N,GND*%
X216296542Y-108478313D03*
%TD*%
D26*
%TO.P,U2,1,MDI0P_1*%
%TO.N,/MDI0P*%
X215200000Y-113475000D03*
%TO.P,U2,2,MDI0N_2*%
%TO.N,/MDI0N*%
X215200000Y-113875000D03*
%TO.P,U2,3,AVDDK_3*%
%TO.N,/AVDDK*%
X215200000Y-114275000D03*
%TO.P,U2,4,MDI1P_4*%
%TO.N,/MDI1P*%
X215200000Y-114675000D03*
%TO.P,U2,5,MDI1N_5*%
%TO.N,/MDI1N*%
X215200000Y-115075000D03*
%TO.P,U2,6,MDI2P_6*%
%TO.N,/MDI2P*%
X215200000Y-115475000D03*
%TO.P,U2,7,MDI2N_7*%
%TO.N,/MDI2N*%
X215200000Y-115875000D03*
%TO.P,U2,8,AVDDK_8*%
%TO.N,/AVDDK*%
X215200000Y-116275000D03*
%TO.P,U2,9,MDI3P_9*%
%TO.N,/MDI3P*%
X215200000Y-116675000D03*
%TO.P,U2,10,MDI3N_10*%
%TO.N,/MDI3N*%
X215200000Y-117075000D03*
D27*
%TO.P,U2,11,AVDD33_11*%
%TO.N,/AVDD33*%
X215800000Y-117675000D03*
%TO.P,U2,12,SS_TXB_12*%
%TO.N,/SS_TXB*%
X216200000Y-117675000D03*
%TO.P,U2,13,SS_TXA_13*%
%TO.N,/SS_TXA*%
X216600000Y-117675000D03*
%TO.P,U2,14,AVDDK_14*%
%TO.N,/AVDDK*%
X217000000Y-117675000D03*
%TO.P,U2,15,SS_RXB_15*%
%TO.N,/SS_RXB*%
X217400000Y-117675000D03*
%TO.P,U2,16,SS_RXA_16*%
%TO.N,/SS_RXA*%
X217800000Y-117675000D03*
%TO.P,U2,17,HS_DM_17*%
%TO.N,/HS_DM*%
X218200000Y-117675000D03*
%TO.P,U2,18,HS_DP_18*%
%TO.N,/HS_DP*%
X218600000Y-117675000D03*
%TO.P,U2,19,DVDDK_19*%
%TO.N,/AVDDK*%
X219000000Y-117675000D03*
%TO.P,U2,20,VDD33_20*%
%TO.N,/AVDD33*%
X219400000Y-117675000D03*
D26*
%TO.P,U2,21,NC_21*%
%TO.N,unconnected-(U2-NC-Pad21)*%
X220000000Y-117075000D03*
%TO.P,U2,22,DVDDK_22*%
%TO.N,/AVDDK*%
X220000000Y-116675000D03*
%TO.P,U2,23,NC_23*%
%TO.N,unconnected-(U2-NC-Pad23)*%
X220000000Y-116275000D03*
%TO.P,U2,24,LED2_24*%
%TO.N,Net-(U2-LED2)*%
X220000000Y-115875000D03*
%TO.P,U2,25,SUSP#/CFG_25*%
%TO.N,unconnected-(U2-SUSP#{slash}CFG-Pad25)*%
X220000000Y-115475000D03*
%TO.P,U2,26,VDD33_26*%
%TO.N,/AVDD33*%
X220000000Y-115075000D03*
%TO.P,U2,27,VDD5_27*%
%TO.N,+5V*%
X220000000Y-114675000D03*
%TO.P,U2,28,VSW_28*%
%TO.N,Net-(U2-VSW)*%
X220000000Y-114275000D03*
%TO.P,U2,29,GND_DCDC_29*%
%TO.N,GND*%
X220000000Y-113875000D03*
%TO.P,U2,30,LED1_30*%
%TO.N,/LED1*%
X220000000Y-113475000D03*
D27*
%TO.P,U2,31,NC_31*%
%TO.N,unconnected-(U2-NC-Pad31)*%
X219400000Y-112875000D03*
%TO.P,U2,32,LED0_32*%
%TO.N,/LED0*%
X219000000Y-112875000D03*
%TO.P,U2,33,VDD33_33*%
%TO.N,/AVDD33*%
X218600000Y-112875000D03*
%TO.P,U2,34,DVDDK_34*%
%TO.N,/AVDDK*%
X218200000Y-112875000D03*
%TO.P,U2,35,XI_35*%
%TO.N,/XI*%
X217800000Y-112875000D03*
%TO.P,U2,36,XO_36*%
%TO.N,/X0*%
X217400000Y-112875000D03*
%TO.P,U2,37,AVDDK_37*%
%TO.N,/AVDDK*%
X217000000Y-112875000D03*
%TO.P,U2,38,RSET_38*%
%TO.N,Net-(U2-RSET)*%
X216600000Y-112875000D03*
%TO.P,U2,39,AVDD33_39*%
%TO.N,/AVDD33*%
X216200000Y-112875000D03*
%TO.P,U2,40,AVDD33_40*%
X215800000Y-112875000D03*
D28*
%TO.P,U2,41,GND_41*%
%TO.N,GND*%
X217600000Y-115275000D03*
%TD*%
D13*
%TO.P,C17,1*%
%TO.N,GND*%
X227613427Y-122921571D03*
%TO.P,C17,2*%
%TO.N,/AVDDK*%
X227613427Y-121371571D03*
%TD*%
D10*
%TO.P,R7,1*%
%TO.N,Net-(D1-A)*%
X231440000Y-114315000D03*
%TO.P,R7,2*%
%TO.N,Net-(U2-LED2)*%
X231440000Y-112665000D03*
%TD*%
%TO.P,R8,1*%
%TO.N,Net-(U2-RSET)*%
X214480000Y-111920000D03*
%TO.P,R8,2*%
%TO.N,GND*%
X214480000Y-110270000D03*
%TD*%
D13*
%TO.P,C16,1*%
%TO.N,GND*%
X221454247Y-127574945D03*
%TO.P,C16,2*%
%TO.N,/AVDDK*%
X221454247Y-126024945D03*
%TD*%
D12*
%TO.P,C11,1*%
%TO.N,GND*%
X213121239Y-107053499D03*
%TO.P,C11,2*%
%TO.N,/AVDDK*%
X213121239Y-108603499D03*
%TD*%
%TO.P,C5,1*%
%TO.N,GND*%
X217320000Y-103825000D03*
%TO.P,C5,2*%
%TO.N,/X0*%
X217320000Y-105375000D03*
%TD*%
%TO.P,C14,1*%
%TO.N,GND*%
X215300000Y-103831933D03*
%TO.P,C14,2*%
%TO.N,/AVDDK*%
X215300000Y-105381933D03*
%TD*%
D11*
%TO.P,C19,1*%
%TO.N,GND*%
X221704247Y-108448258D03*
%TO.P,C19,2*%
%TO.N,+5V*%
X221704247Y-110348258D03*
%TD*%
D29*
%TO.N,GND*%
X223881770Y-126962542D03*
X195325886Y-119702507D03*
X221682557Y-109327952D03*
X216602553Y-106296288D03*
X251639788Y-110108003D03*
X232526644Y-117659381D03*
X238145057Y-129117148D03*
X192170361Y-101032852D03*
X243446934Y-129117148D03*
X220599465Y-127397146D03*
X208075992Y-101032852D03*
X248748812Y-129117148D03*
X213164981Y-106226737D03*
X197193652Y-114243311D03*
X194377517Y-125192307D03*
X250491009Y-101032852D03*
X211095946Y-105457660D03*
X210380000Y-123550000D03*
X170962852Y-101032852D03*
X228493881Y-122146571D03*
X204981271Y-125192307D03*
X227541303Y-129117148D03*
X254050689Y-129117148D03*
X170962852Y-108080496D03*
X170962852Y-113382373D03*
X176034747Y-116904032D03*
X219784554Y-103739086D03*
X199909292Y-106573636D03*
X182626739Y-106040912D03*
X241899257Y-117431481D03*
X218679746Y-101032852D03*
X201213282Y-119480710D03*
X217391779Y-109980640D03*
X199679394Y-125192307D03*
X206075579Y-106497363D03*
X255792886Y-101032852D03*
X197472238Y-101032852D03*
X232843180Y-129117148D03*
X211103528Y-116117366D03*
X236703299Y-116377007D03*
X181737463Y-129117148D03*
X224837668Y-117559347D03*
X223981623Y-101032852D03*
X196629543Y-106560539D03*
X218914264Y-128691808D03*
X235786432Y-122108511D03*
X214335946Y-109469701D03*
X186024150Y-119421337D03*
X201553870Y-109431069D03*
X186868483Y-101032852D03*
X176435585Y-129117148D03*
X222239426Y-129117148D03*
X246002396Y-110050869D03*
X236298981Y-106808319D03*
X198917037Y-124120810D03*
X226188556Y-105380875D03*
X223890718Y-123924032D03*
X245189132Y-101032852D03*
X189075639Y-125192307D03*
X208297995Y-127348308D03*
X212922047Y-128589903D03*
X251209625Y-124048923D03*
X224718050Y-108018892D03*
X196578183Y-123502590D03*
X213490000Y-123540000D03*
X186620896Y-109686689D03*
X239887255Y-101032852D03*
X243886081Y-123741075D03*
X241529649Y-107204041D03*
X202774115Y-101032852D03*
X217337964Y-102992882D03*
X170962852Y-118684250D03*
X181304150Y-113458663D03*
X221643211Y-103381200D03*
X171133708Y-129117148D03*
X190833397Y-113033311D03*
X177589334Y-107534856D03*
X234585378Y-101032852D03*
X220672776Y-113678992D03*
X210954989Y-111304046D03*
X215384192Y-102998273D03*
X216794760Y-107502605D03*
X181566606Y-101032852D03*
X176771268Y-123036134D03*
X219536941Y-121228787D03*
X176264729Y-101032852D03*
X227491304Y-123754094D03*
X196143741Y-107279843D03*
X213377869Y-101032852D03*
X210478743Y-113961349D03*
X221515622Y-122269404D03*
X230999091Y-106663156D03*
X247095216Y-118485954D03*
X211940000Y-123530000D03*
X181974208Y-122517965D03*
X229283500Y-101032852D03*
%TO.N,/AVDD33*%
X222130000Y-120240000D03*
X226020000Y-125480000D03*
X212020000Y-118400000D03*
X219866438Y-117792456D03*
X212440000Y-119530000D03*
%TO.N,/AVDDK*%
X227500000Y-118800000D03*
D30*
X220860513Y-124799487D03*
D29*
X227570000Y-120450000D03*
D30*
X219565435Y-126248763D03*
D29*
X213885444Y-113428250D03*
X208896174Y-106532170D03*
%TO.N,+5V*%
X219730910Y-111682251D03*
X222732460Y-107644789D03*
%TO.N,Net-(C1-Pad1)*%
X206825730Y-114187602D03*
X206782770Y-117388853D03*
X206807298Y-111601724D03*
%TO.N,Net-(RJ1-Pad4)*%
X194000816Y-116120548D03*
%TO.N,Net-(RJ1-Pad8)*%
X200364645Y-119310357D03*
%TO.N,/LED0*%
X186064463Y-124482984D03*
X219863203Y-112854758D03*
%TO.N,Net-(R5-Pad2)*%
X182862876Y-124805192D03*
%TO.N,/SS_TXA*%
X216343632Y-119698426D03*
X216294853Y-118401787D03*
%TO.N,Net-(U2-VSW)*%
X227529401Y-115848862D03*
X220896258Y-114772789D03*
%TO.N,/XI*%
X217748834Y-112057873D03*
X219561511Y-108619801D03*
%TO.N,/LED1*%
X218916641Y-112133468D03*
X188136467Y-105834053D03*
%TO.N,/X0*%
X214468413Y-104312779D03*
X217123384Y-111940850D03*
%TO.N,Net-(U2-LED2)*%
X221047455Y-115945071D03*
X230584813Y-112650647D03*
%TO.N,GND*%
X252443421Y-115101788D03*
X255106292Y-117841366D03*
%TO.N,Net-(U4-STDA_SSRX-)*%
X215681589Y-123124771D03*
X251661707Y-119301046D03*
%TO.N,Net-(U4-STDA_SSRX+)*%
X250640498Y-119888987D03*
X237498140Y-125443948D03*
%TO.N,GND*%
X170962852Y-119549517D03*
X170962852Y-111214471D03*
X170975720Y-101898119D03*
X179807852Y-101032852D03*
X188142899Y-101032852D03*
X197001674Y-101761731D03*
X205807165Y-101032852D03*
X214239524Y-101133574D03*
X202280426Y-105166840D03*
X191957036Y-105164624D03*
X182261510Y-105256422D03*
X180382493Y-110060524D03*
X175196470Y-116688287D03*
X175850676Y-123369515D03*
X182193617Y-123856868D03*
X189822016Y-125635024D03*
X198813317Y-125194810D03*
X207056270Y-127110238D03*
X213852688Y-124325713D03*
X218086835Y-128953763D03*
X195017603Y-129117148D03*
X184694212Y-129117148D03*
X171655198Y-128426304D03*
X173996191Y-107195207D03*
X223116356Y-101032852D03*
X231451402Y-101032852D03*
X240269020Y-101809378D03*
X249115668Y-101032852D03*
X257148612Y-101340837D03*
X257248136Y-106501573D03*
X250776356Y-110192952D03*
X245478049Y-112934187D03*
X241697618Y-109599522D03*
X236774506Y-108952687D03*
X231612811Y-108952687D03*
X226451116Y-108952687D03*
X257298398Y-112170775D03*
X257142760Y-129117148D03*
X248329292Y-128358804D03*
X239478494Y-129117148D03*
X249873783Y-123589859D03*
X257262227Y-122957156D03*
X228406570Y-129117148D03*
X205725718Y-112091820D03*
X205959127Y-117116079D03*
X200808933Y-118564968D03*
X211196065Y-106522176D03*
X220413081Y-107916996D03*
X209274172Y-122120939D03*
X214338816Y-119412786D03*
X219974230Y-121978574D03*
X243057787Y-123481593D03*
X237981848Y-121563424D03*
X233013299Y-123671885D03*
X225122553Y-120458712D03*
X213128219Y-113006407D03*
X250276027Y-115434187D03*
X241068477Y-117182890D03*
X232567968Y-118552861D03*
X224410825Y-113523303D03*
X229486919Y-113320220D03*
X246242340Y-118637735D03*
X190022986Y-110684187D03*
X195589171Y-120529471D03*
X190224572Y-120181909D03*
X184729337Y-113035813D03*
X196824187Y-109494628D03*
X182681612Y-118135813D03*
%TD*%
%TO.N,Net-(R1-Pad1)*%
D31*
X197490000Y-108480000D02*
X197490000Y-108881270D01*
X197490000Y-108881270D02*
X197490000Y-109170940D01*
X197490000Y-110950000D02*
X197657727Y-111117727D01*
X197490000Y-109170940D02*
X197490000Y-110950000D01*
X197657727Y-111117727D02*
X198120000Y-111580000D01*
X198120000Y-111580000D02*
X198900000Y-111580000D01*
%TO.N,GND*%
X214480000Y-109868730D02*
X214480000Y-109730716D01*
X221816552Y-103562528D02*
X221816552Y-103738456D01*
X221704247Y-109239515D02*
X221704247Y-108949845D01*
X211407084Y-115607294D02*
X211103528Y-115910850D01*
D32*
X210380000Y-123550000D02*
X210360000Y-123530000D01*
D31*
X217320000Y-103825000D02*
X217320000Y-103373572D01*
X211103528Y-115910850D02*
X211103528Y-116117366D01*
X224714989Y-108391830D02*
X224714989Y-108102160D01*
X220671936Y-113678992D02*
X220672776Y-113678992D01*
X219658936Y-103831933D02*
X219691707Y-103831933D01*
X215300000Y-103154025D02*
X215300000Y-103380505D01*
X221704247Y-109306263D02*
X221704247Y-109239515D01*
X221704247Y-122607560D02*
X221704247Y-122458029D01*
X224714989Y-108102160D02*
X224714989Y-108021953D01*
X224714989Y-108021953D02*
X224718050Y-108018892D01*
X224180000Y-123631804D02*
X224180000Y-123506428D01*
X220977819Y-127574945D02*
X220789253Y-127574945D01*
X210999863Y-111348920D02*
X210954989Y-111304046D01*
X217400215Y-109984779D02*
X217593749Y-110178313D01*
X221650734Y-103396710D02*
X221816552Y-103562528D01*
X227613427Y-123536289D02*
X227613427Y-123631971D01*
X224714989Y-108843258D02*
X224714989Y-108391830D01*
X219587262Y-113875000D02*
X219700000Y-113875000D01*
X212034325Y-111348920D02*
X211557897Y-111348920D01*
X208283143Y-127324702D02*
X208048973Y-127090531D01*
X224238561Y-127216993D02*
X224037357Y-127216993D01*
X225848429Y-122921571D02*
X227136999Y-122921571D01*
X224037357Y-127216993D02*
X223881770Y-127061406D01*
X217395919Y-109984779D02*
X217400215Y-109984779D01*
X221704247Y-108949845D02*
X221704247Y-108448258D01*
X218914264Y-128691808D02*
X218555809Y-128333352D01*
X223881770Y-127061406D02*
X223881770Y-126962542D01*
X199060000Y-106835000D02*
X199536270Y-106835000D01*
X208283143Y-127333457D02*
X208283143Y-127324702D01*
X208297995Y-127348308D02*
X208283143Y-127333457D01*
X220000000Y-113875000D02*
X220300000Y-113875000D01*
X217794953Y-110178313D02*
X218496542Y-110178313D01*
X211268227Y-111348920D02*
X210999863Y-111348920D01*
X223890718Y-123924032D02*
X223890718Y-123921086D01*
X215300000Y-103380505D02*
X215300000Y-103831933D01*
X221682557Y-109327952D02*
X221704247Y-109306263D01*
X197490000Y-106830000D02*
X197013730Y-106830000D01*
X215300000Y-103082465D02*
X215300000Y-103154025D01*
X199909292Y-106675821D02*
X199909292Y-106573636D01*
X221650734Y-103388723D02*
X221650734Y-103396710D01*
X196631531Y-106560539D02*
X196629543Y-106560539D01*
X220300000Y-113875000D02*
X220475928Y-113875000D01*
X215384192Y-102998273D02*
X215300000Y-103082465D01*
X221643211Y-103381200D02*
X221650734Y-103388723D01*
X217391779Y-109980640D02*
X217395919Y-109984779D01*
X213121239Y-106602071D02*
X213121239Y-106400867D01*
X208048973Y-127090531D02*
X208048973Y-126952517D01*
X219691707Y-103831933D02*
X219784554Y-103739086D01*
X223890718Y-123921086D02*
X224180000Y-123631804D01*
X232161549Y-117677500D02*
X232451219Y-117677500D01*
X214480000Y-110270000D02*
X214480000Y-109868730D01*
X199020000Y-123932198D02*
X199020000Y-124017847D01*
X221704247Y-122458029D02*
X221515622Y-122269404D01*
X218555809Y-127958091D02*
X218555809Y-127668421D01*
X196582297Y-123502590D02*
X196729888Y-123355000D01*
X216296542Y-108478313D02*
X216794760Y-108478313D01*
X220475928Y-113875000D02*
X220671936Y-113678992D01*
X197013730Y-106830000D02*
X196900992Y-106830000D01*
X208048973Y-126952517D02*
X208048973Y-126501089D01*
D32*
X213470000Y-123520000D02*
X213470000Y-122365000D01*
D31*
X213121239Y-106270478D02*
X213164981Y-106226737D01*
X211557736Y-115607294D02*
X211407084Y-115607294D01*
X199020000Y-124017847D02*
X198917037Y-124120810D01*
X217320000Y-103373572D02*
X217320000Y-103083902D01*
X217600000Y-115275000D02*
X218475000Y-115275000D01*
X220611454Y-127397146D02*
X220599465Y-127397146D01*
X199020000Y-123355000D02*
X199020000Y-123756270D01*
X225840000Y-122930000D02*
X225848429Y-122921571D01*
X196900992Y-106830000D02*
X196631531Y-106560539D01*
X217593749Y-110178313D02*
X217794953Y-110178313D01*
X213121239Y-107053499D02*
X213121239Y-106602071D01*
D32*
X211920000Y-123510000D02*
X211920000Y-122355000D01*
D31*
X214480000Y-109613755D02*
X214335946Y-109469701D01*
X210699230Y-105621692D02*
X210925710Y-105621692D01*
X216794760Y-108478313D02*
X216794760Y-107502605D01*
X211089742Y-105457660D02*
X211095946Y-105457660D01*
X231460000Y-117677500D02*
X232161549Y-117677500D01*
X210925710Y-105621692D02*
X211089742Y-105457660D01*
X199020000Y-123756270D02*
X199020000Y-123932198D01*
X196729888Y-123355000D02*
X196943730Y-123355000D01*
D32*
X210360000Y-123530000D02*
X210360000Y-122375000D01*
D31*
X224180000Y-123506428D02*
X224180000Y-123055000D01*
X218918114Y-103831933D02*
X219394542Y-103831933D01*
X217320000Y-103083902D02*
X217320000Y-103010847D01*
X210222802Y-105621692D02*
X210699230Y-105621692D01*
X211557897Y-111348920D02*
X211268227Y-111348920D01*
X219700000Y-113875000D02*
X220000000Y-113875000D01*
X213121239Y-106400867D02*
X213121239Y-106270478D01*
X217320000Y-103010847D02*
X217337964Y-102992882D01*
X219394542Y-103831933D02*
X219658936Y-103831933D01*
X199536270Y-106835000D02*
X199750112Y-106835000D01*
X221454247Y-127574945D02*
X220977819Y-127574945D01*
X219350000Y-115275000D02*
X219350000Y-114112262D01*
X221704247Y-122732936D02*
X221704247Y-122607560D01*
X224714989Y-127216993D02*
X224238561Y-127216993D01*
X212284325Y-115607294D02*
X211557736Y-115607294D01*
X232451219Y-117677500D02*
X232508525Y-117677500D01*
X220789253Y-127574945D02*
X220611454Y-127397146D01*
X196578183Y-123502590D02*
X196582297Y-123502590D01*
X219350000Y-114112262D02*
X219587262Y-113875000D01*
X214480000Y-109730716D02*
X214480000Y-109613755D01*
X227613427Y-123631971D02*
X227491304Y-123754094D01*
X227613427Y-123372999D02*
X227613427Y-123536289D01*
X218475000Y-115275000D02*
X219350000Y-115275000D01*
X227613427Y-122921571D02*
X227613427Y-123372999D01*
X199750112Y-106835000D02*
X199909292Y-106675821D01*
X227136999Y-122921571D02*
X227613427Y-122921571D01*
X218555809Y-128333352D02*
X218555809Y-127958091D01*
X221816552Y-103738456D02*
X221816552Y-104189884D01*
X218555809Y-127668421D02*
X218555809Y-127216993D01*
X232508525Y-117677500D02*
X232526644Y-117659381D01*
X196943730Y-123355000D02*
X197420000Y-123355000D01*
X221704247Y-123234523D02*
X221704247Y-122732936D01*
%TO.N,/AVDD33*%
D32*
X212284325Y-118135675D02*
X212284325Y-118125675D01*
D31*
X218600000Y-113338290D02*
X218593336Y-113344954D01*
X215135000Y-117675000D02*
X215800000Y-117675000D01*
X221554834Y-115132431D02*
X221554834Y-114367325D01*
X221469391Y-112783966D02*
X219913099Y-111227674D01*
X218600000Y-112875000D02*
X218600000Y-113175000D01*
X212284325Y-117507294D02*
X212284325Y-118125675D01*
D32*
X212020000Y-118400000D02*
X212284325Y-118135675D01*
D31*
X219587262Y-115226109D02*
X219587262Y-115075000D01*
X218600000Y-112575000D02*
X218600000Y-112875000D01*
X213280000Y-119530000D02*
X215135000Y-117675000D01*
X218600000Y-112399072D02*
X218600000Y-112575000D01*
X219700000Y-115075000D02*
X220000000Y-115075000D01*
X221554834Y-114367325D02*
X221469391Y-113875937D01*
D32*
X221704247Y-120665753D02*
X221704247Y-121334523D01*
D31*
X218600000Y-113175000D02*
X218600000Y-113338290D01*
X220620816Y-115521772D02*
X221165493Y-115521772D01*
X221874724Y-121505000D02*
X223703572Y-121505000D01*
X219913099Y-111227674D02*
X219145413Y-111227674D01*
X221469391Y-113875937D02*
X221469391Y-112783966D01*
X210390000Y-120795000D02*
X210360000Y-120825000D01*
X221165493Y-115521772D02*
X221554834Y-115132431D01*
X221704247Y-121334523D02*
X221874724Y-121505000D01*
X219748981Y-117675000D02*
X219650652Y-117675000D01*
X216200000Y-113300376D02*
X216200000Y-113175000D01*
X220150000Y-115075000D02*
X220300000Y-115075000D01*
X219400000Y-117375000D02*
X219400000Y-117249624D01*
X220000000Y-115075000D02*
X220150000Y-115075000D01*
X216244578Y-113344954D02*
X216200000Y-113300376D01*
X216189670Y-112875000D02*
X215900000Y-112875000D01*
X219581029Y-115232342D02*
X219587262Y-115226109D01*
X213470000Y-120795000D02*
X210390000Y-120795000D01*
X223703572Y-121505000D02*
X224180000Y-121505000D01*
X225833007Y-125666993D02*
X224714989Y-125666993D01*
X219587262Y-115075000D02*
X219700000Y-115075000D01*
X219520258Y-115444119D02*
X219581029Y-115232342D01*
D32*
X211920000Y-120805000D02*
X211920000Y-120050000D01*
D31*
X218593336Y-113344954D02*
X216244578Y-113344954D01*
X213097755Y-119530000D02*
X213280000Y-119530000D01*
X220521668Y-115422623D02*
X220620816Y-115521772D01*
X219866438Y-117792456D02*
X219748981Y-117675000D01*
X220300000Y-115075000D02*
X220521668Y-115422623D01*
X213280000Y-119530000D02*
X213470000Y-119720000D01*
X219400000Y-117249624D02*
X219520258Y-117129366D01*
X213470000Y-119720000D02*
X213470000Y-120795000D01*
D32*
X222130000Y-120240000D02*
X221704247Y-120665753D01*
D31*
X216200000Y-112875000D02*
X216189670Y-112875000D01*
X215900000Y-112875000D02*
X215800000Y-112875000D01*
X219520258Y-117129366D02*
X219520258Y-115444119D01*
X219500000Y-117675000D02*
X219400000Y-117675000D01*
X219400000Y-117675000D02*
X219400000Y-117375000D01*
X218431744Y-112230816D02*
X218600000Y-112399072D01*
D32*
X212440000Y-119530000D02*
X213097755Y-119530000D01*
D31*
X219650652Y-117675000D02*
X219500000Y-117675000D01*
X219145413Y-111227674D02*
X218431744Y-111941343D01*
X218431744Y-111941343D02*
X218431744Y-112230816D01*
D32*
X211920000Y-120050000D02*
X212440000Y-119530000D01*
D31*
X226020000Y-125480000D02*
X225833007Y-125666993D01*
X216200000Y-113175000D02*
X216200000Y-112875000D01*
%TO.N,/AVDDK*%
X219000000Y-117975000D02*
X219263382Y-118238382D01*
D32*
X218983665Y-125666993D02*
X219565435Y-126248763D01*
D31*
X217713453Y-111351118D02*
X218068784Y-110995787D01*
X209562353Y-117062826D02*
X209913531Y-116711648D01*
X214900000Y-114275000D02*
X215200000Y-114275000D01*
X209913531Y-116711648D02*
X214173682Y-116711648D01*
X211268227Y-112898920D02*
X210449307Y-112080000D01*
X210222802Y-106720264D02*
X210222802Y-106544336D01*
X206391531Y-109828511D02*
X207535535Y-108684507D01*
X214444287Y-111351118D02*
X213151308Y-110058139D01*
X223049407Y-112550386D02*
X223049407Y-113769677D01*
X219000000Y-117675000D02*
X219000000Y-117975000D01*
X220300000Y-116675000D02*
X220000000Y-116675000D01*
X206371148Y-112303101D02*
X206371148Y-116301468D01*
X216806705Y-112336705D02*
X216806705Y-112334380D01*
X215688566Y-116275000D02*
X215688566Y-117112190D01*
X206391531Y-112091820D02*
X206391531Y-109828511D01*
X223049407Y-114059347D02*
X223049407Y-115809347D01*
X213908234Y-113451041D02*
X213912751Y-113451041D01*
D32*
X227570000Y-120450000D02*
X227570000Y-121328144D01*
D31*
X224714989Y-110884804D02*
X223049407Y-112550386D01*
X217000000Y-112530000D02*
X216806705Y-112336705D01*
X206486980Y-112187269D02*
X206391531Y-112091820D01*
X219988290Y-110995787D02*
X221719980Y-112727477D01*
X213605545Y-107817487D02*
X215300000Y-106123031D01*
X209746374Y-107171692D02*
X210222802Y-107171692D01*
X223049407Y-115809347D02*
X223049407Y-115438919D01*
X213151308Y-109385417D02*
X211745980Y-109385417D01*
X210222802Y-107862238D02*
X210222802Y-107623120D01*
X220754990Y-116845421D02*
X222013333Y-116845421D01*
X210130139Y-106451673D02*
X208976671Y-106451673D01*
X223049407Y-113769677D02*
X223049407Y-114059347D01*
X215762810Y-117186434D02*
X217000000Y-117186434D01*
X220241360Y-118238382D02*
X220754990Y-117724752D01*
X217000000Y-117975000D02*
X217000000Y-118264670D01*
X213267257Y-107817487D02*
X213605545Y-107817487D01*
X222013333Y-116845421D02*
X223049407Y-115809347D01*
X227499316Y-118794586D02*
X224514077Y-115809347D01*
X215200000Y-116275000D02*
X215500000Y-116275000D01*
X218526022Y-122355622D02*
X221454247Y-125283847D01*
X220450652Y-116675000D02*
X220300000Y-116675000D01*
X207535535Y-108684507D02*
X207943888Y-108684507D01*
X213121239Y-109268769D02*
X213151308Y-109298838D01*
X215300000Y-105833361D02*
X215300000Y-105381933D01*
X207132506Y-117062826D02*
X209562353Y-117062826D01*
X214900000Y-116275000D02*
X215200000Y-116275000D01*
X221719980Y-112727477D02*
X221719980Y-114109492D01*
X216806705Y-112334380D02*
X216638423Y-112166097D01*
X217000000Y-112875000D02*
X217000000Y-112530000D01*
X213121239Y-109054927D02*
X213121239Y-109268769D01*
X216640000Y-111351118D02*
X217713453Y-111351118D01*
X215300000Y-106123031D02*
X215300000Y-105833361D01*
X220584570Y-116675000D02*
X220450652Y-116675000D01*
X209456704Y-107171692D02*
X209746374Y-107171692D01*
X210222802Y-106544336D02*
X210130139Y-106451673D01*
X218200000Y-111837665D02*
X217713453Y-111351118D01*
X206486980Y-112187269D02*
X206371148Y-112303101D01*
X207943888Y-108684507D02*
X209456704Y-107171692D01*
X220754990Y-117724752D02*
X220754990Y-116845421D01*
X214736710Y-114275000D02*
X214900000Y-114275000D01*
X218200000Y-112875000D02*
X218200000Y-111837665D01*
X213885444Y-113428250D02*
X213908234Y-113451041D01*
X210449307Y-112080000D02*
X206594249Y-112080000D01*
X224514077Y-115809347D02*
X224224407Y-115809347D01*
X217000000Y-118264670D02*
X218526022Y-119790692D01*
D32*
X218555809Y-125666993D02*
X218983665Y-125666993D01*
D31*
X213151308Y-109298838D02*
X213151308Y-109385417D01*
X217000000Y-117186434D02*
X217000000Y-117375000D01*
X220754990Y-116845421D02*
X220584570Y-116675000D01*
X221454247Y-125573517D02*
X221454247Y-126024945D01*
X218068784Y-110995787D02*
X219988290Y-110995787D01*
X213121239Y-108603499D02*
X213121239Y-109054927D01*
X214610330Y-116275000D02*
X214900000Y-116275000D01*
X213151308Y-110058139D02*
X213151308Y-109385417D01*
X211745980Y-109385417D02*
X210222802Y-107862238D01*
X213121239Y-108152071D02*
X213121239Y-107963505D01*
X224714989Y-110393258D02*
X224714989Y-110844686D01*
X216638423Y-112166097D02*
X216638423Y-111352695D01*
X212034325Y-112898920D02*
X211557897Y-112898920D01*
X225840000Y-121380000D02*
X225848429Y-121371571D01*
X206594249Y-112080000D02*
X206486980Y-112187269D01*
X224714989Y-110844686D02*
X224714989Y-110884804D01*
X213121239Y-108603499D02*
X213121239Y-108152071D01*
X216638423Y-111352695D02*
X216640000Y-111351118D01*
X210222802Y-107623120D02*
X210222802Y-107171692D01*
X225848429Y-121371571D02*
X227136999Y-121371571D01*
X227136999Y-121371571D02*
X227613427Y-121371571D01*
X218526022Y-119790692D02*
X218526022Y-122355622D01*
X217000000Y-117675000D02*
X217000000Y-117975000D01*
X219263382Y-118238382D02*
X220241360Y-118238382D01*
X211557897Y-112898920D02*
X211268227Y-112898920D01*
X210222802Y-107171692D02*
X210222802Y-106720264D01*
X217000000Y-117375000D02*
X217000000Y-117675000D01*
X216640000Y-111351118D02*
X214444287Y-111351118D01*
X223049407Y-115438919D02*
X221719980Y-114109492D01*
X224224407Y-115809347D02*
X223049407Y-115809347D01*
X215688566Y-117112190D02*
X215762810Y-117186434D01*
X215500000Y-116275000D02*
X215688566Y-116275000D01*
X214173682Y-116711648D02*
X214610330Y-116275000D01*
X221454247Y-125283847D02*
X221454247Y-125573517D01*
D32*
X227570000Y-121328144D02*
X227613427Y-121371571D01*
D31*
X213121239Y-107963505D02*
X213267257Y-107817487D01*
X213912751Y-113451041D02*
X214736710Y-114275000D01*
X206371148Y-116301468D02*
X207132506Y-117062826D01*
X208976671Y-106451673D02*
X208896174Y-106532170D01*
%TO.N,+5V*%
X221347070Y-114910210D02*
X221030927Y-115226354D01*
X221030927Y-115226354D02*
X220712657Y-115226354D01*
X220300000Y-114675000D02*
X220150000Y-114675000D01*
X221087264Y-114137986D02*
X221347070Y-114397793D01*
X220506328Y-114950677D02*
X220300000Y-114744349D01*
X221087264Y-113038605D02*
X221087264Y-114137986D01*
X221816552Y-106728881D02*
X222732460Y-107644789D01*
X222732460Y-109320045D02*
X221704247Y-110348258D01*
X220150000Y-114675000D02*
X220000000Y-114675000D01*
X222732460Y-107644789D02*
X222732460Y-109320045D01*
X219730910Y-111682251D02*
X221087264Y-113038605D01*
X221816552Y-105739884D02*
X221816552Y-106728881D01*
X220300000Y-114744349D02*
X220300000Y-114675000D01*
X221347070Y-114397793D02*
X221347070Y-114910210D01*
X220712657Y-115226354D02*
X220506328Y-114950677D01*
%TO.N,Net-(R3-Pad1)*%
X197800000Y-117580000D02*
X198900000Y-117580000D01*
X197687262Y-117580000D02*
X197800000Y-117580000D01*
X197420000Y-121014060D02*
X197420000Y-117847262D01*
X197420000Y-117847262D02*
X197687262Y-117580000D01*
X197420000Y-121705000D02*
X197420000Y-121303730D01*
X197420000Y-121303730D02*
X197420000Y-121014060D01*
%TO.N,Net-(C1-Pad1)*%
X208300000Y-117580000D02*
X207200000Y-117580000D01*
X206361167Y-117680740D02*
X206653054Y-117388853D01*
X207200000Y-111580000D02*
X208300000Y-111580000D01*
X208048973Y-124499661D02*
X208048973Y-124951089D01*
X207061986Y-114580000D02*
X206825730Y-114343744D01*
X207200000Y-117580000D02*
X206986158Y-117580000D01*
X206361167Y-120030837D02*
X206361167Y-117680740D01*
X206986158Y-117580000D02*
X206795011Y-117388853D01*
X207200000Y-114580000D02*
X207061986Y-114580000D01*
X206910330Y-111580000D02*
X207200000Y-111580000D01*
X206910330Y-120580000D02*
X206361167Y-120030837D01*
X206807298Y-111601724D02*
X206829022Y-111580000D01*
X206795011Y-117388853D02*
X206782770Y-117388853D01*
X206653054Y-117388853D02*
X206782770Y-117388853D01*
X208300000Y-120580000D02*
X208048973Y-120831027D01*
X206825730Y-114343744D02*
X206825730Y-114187602D01*
X208048973Y-120831027D02*
X208048973Y-124499661D01*
X208300000Y-114580000D02*
X207200000Y-114580000D01*
X207200000Y-120580000D02*
X206910330Y-120580000D01*
X206829022Y-111580000D02*
X206910330Y-111580000D01*
X208300000Y-120580000D02*
X207200000Y-120580000D01*
%TO.N,/MDI3N*%
X208300000Y-119580000D02*
X209490000Y-119580000D01*
X209980000Y-119090000D02*
X212863030Y-119090000D01*
X212863030Y-119090000D02*
X214952144Y-117000886D01*
X209490000Y-119580000D02*
X209980000Y-119090000D01*
X214952144Y-117000886D02*
X215200000Y-117075000D01*
%TO.N,/MDI3P*%
X208300000Y-118580000D02*
X209095293Y-118882765D01*
X209095293Y-118882765D02*
X209400000Y-118882765D01*
X212714206Y-118882765D02*
X214810985Y-116785985D01*
X214810985Y-116785985D02*
X214851826Y-116758697D01*
X214900000Y-116749114D02*
X215088828Y-116749114D01*
X215088828Y-116749114D02*
X215200000Y-116675000D01*
X214851826Y-116758697D02*
X214900000Y-116749114D01*
X209400000Y-118882765D02*
X212714206Y-118882765D01*
%TO.N,/MDI2N*%
X209098010Y-116143971D02*
X209107728Y-116142461D01*
X208652000Y-116420000D02*
X209004000Y-116260000D01*
X208300000Y-116580000D02*
X208652000Y-116420000D01*
X209107728Y-116142461D02*
X210013500Y-116142461D01*
X210061674Y-116132879D02*
X210102514Y-116105590D01*
X214031765Y-115791303D02*
X214079939Y-115800886D01*
X209004000Y-116260000D02*
X209098010Y-116165990D01*
X210013500Y-116142461D02*
X210061674Y-116132879D01*
X211463197Y-114744907D02*
X212971818Y-114744907D01*
X214900000Y-115800886D02*
X215088828Y-115800886D01*
X210102514Y-116105590D02*
X211463197Y-114744907D01*
X212971818Y-114744907D02*
X213990925Y-115764015D01*
X213990925Y-115764015D02*
X214031765Y-115791303D01*
X215088828Y-115800886D02*
X215200000Y-115875000D01*
X214079939Y-115800886D02*
X214900000Y-115800886D01*
X209098010Y-116165990D02*
X209098010Y-116143971D01*
%TO.N,/MDI2P*%
X211322039Y-114530007D02*
X211362879Y-114502719D01*
X215088828Y-115549114D02*
X215200000Y-115475000D01*
X214900000Y-115549114D02*
X215088828Y-115549114D01*
X209098010Y-115890690D02*
X209961356Y-115890690D01*
X209961356Y-115890690D02*
X211322039Y-114530007D01*
X213112976Y-114530007D02*
X214132083Y-115549114D01*
X208300000Y-115580000D02*
X208652000Y-115740000D01*
X211411054Y-114493136D02*
X213023961Y-114493136D01*
X209078688Y-115892182D02*
X209098010Y-115890690D01*
X213072135Y-114502719D02*
X213112976Y-114530007D01*
X209007274Y-115903274D02*
X209078688Y-115892182D01*
X211362879Y-114502719D02*
X211411054Y-114493136D01*
X209004000Y-115900000D02*
X209007274Y-115903274D01*
X213023961Y-114493136D02*
X213072135Y-114502719D01*
X208652000Y-115740000D02*
X209004000Y-115900000D01*
X214132083Y-115549114D02*
X214900000Y-115549114D01*
%TO.N,/MDI1N*%
X209400000Y-113274907D02*
X210762178Y-113274907D01*
X214068026Y-115000886D02*
X214900000Y-115000886D01*
X214019852Y-114991303D02*
X214068026Y-115000886D01*
X209096128Y-113274907D02*
X209400000Y-113274907D01*
X211403352Y-113902530D02*
X211451527Y-113912112D01*
X212927109Y-113912112D02*
X213979012Y-114964015D01*
X211362512Y-113875241D02*
X211403352Y-113902530D01*
X208300000Y-113580000D02*
X209096128Y-113274907D01*
X215088828Y-115000886D02*
X215200000Y-115075000D01*
X213979012Y-114964015D02*
X214019852Y-114991303D01*
X214900000Y-115000886D02*
X215088828Y-115000886D01*
X211451527Y-113912112D02*
X212927109Y-113912112D01*
X210762178Y-113274907D02*
X211362512Y-113875241D01*
%TO.N,/MDI1P*%
X214900000Y-114749114D02*
X215088828Y-114749114D01*
X213068267Y-113697212D02*
X214120170Y-114749114D01*
X215088828Y-114749114D02*
X215200000Y-114675000D01*
X213027427Y-113669924D02*
X213068267Y-113697212D01*
X210862496Y-113032718D02*
X210903336Y-113060007D01*
X209096128Y-112992128D02*
X209096128Y-113021339D01*
X210903336Y-113060007D02*
X211503670Y-113660341D01*
X209106726Y-113023136D02*
X210814321Y-113023136D01*
X209004000Y-112900000D02*
X209096128Y-112992128D01*
X209096128Y-113021339D02*
X209106726Y-113023136D01*
X214120170Y-114749114D02*
X214900000Y-114749114D01*
X208652000Y-112740000D02*
X209004000Y-112900000D01*
X208300000Y-112580000D02*
X208652000Y-112740000D01*
X210814321Y-113023136D02*
X210862496Y-113032718D01*
X211503670Y-113660341D02*
X212979253Y-113660341D01*
X212979253Y-113660341D02*
X213027427Y-113669924D01*
%TO.N,/MDI0N*%
X212143132Y-110216439D02*
X212739420Y-110812726D01*
X214236821Y-113174002D02*
X214783127Y-113720308D01*
X209107655Y-110216439D02*
X212143132Y-110216439D01*
X209104455Y-110216398D02*
X209107655Y-110216439D01*
X214783697Y-113723174D02*
X214810985Y-113764015D01*
X214208962Y-113130296D02*
X214209532Y-113133162D01*
X212776291Y-111697625D02*
X214208962Y-113130296D01*
X212739420Y-111608611D02*
X212749003Y-111656785D01*
X208652000Y-110420000D02*
X209004000Y-110260000D01*
X212739420Y-110812726D02*
X212739420Y-111608611D01*
X214851826Y-113791303D02*
X214900000Y-113800886D01*
X214810985Y-113764015D02*
X214851826Y-113791303D01*
X215088828Y-113800886D02*
X215200000Y-113875000D01*
X208300000Y-110580000D02*
X208652000Y-110420000D01*
X209049012Y-110214988D02*
X209104455Y-110216398D01*
X214900000Y-113800886D02*
X215088828Y-113800886D01*
X214209532Y-113133162D02*
X214236821Y-113174002D01*
X209004000Y-110260000D02*
X209049012Y-110214988D01*
X214783127Y-113720308D02*
X214783697Y-113723174D01*
X212749003Y-111656785D02*
X212776291Y-111697625D01*
%TO.N,/MDI0P*%
X209067608Y-109963608D02*
X209109255Y-109964667D01*
X208300000Y-109580000D02*
X208652000Y-109740000D01*
X208652000Y-109740000D02*
X209004000Y-109900000D01*
X214442138Y-113020966D02*
X214442708Y-113023832D01*
X212991191Y-110760583D02*
X212991191Y-111556467D01*
X212284290Y-110001538D02*
X212954320Y-110671568D01*
X212954320Y-110671568D02*
X212981609Y-110712409D01*
X214967991Y-113549114D02*
X215200000Y-113475000D01*
X212195276Y-109964667D02*
X212243450Y-109974250D01*
X214442708Y-113023832D02*
X214900000Y-113481123D01*
X214414850Y-112980126D02*
X214442138Y-113020966D01*
X209004000Y-109900000D02*
X209067608Y-109963608D01*
X212981609Y-110712409D02*
X212991191Y-110760583D01*
X214900000Y-113481123D02*
X214967991Y-113549114D01*
X212243450Y-109974250D02*
X212284290Y-110001538D01*
X209109255Y-109964667D02*
X212195276Y-109964667D01*
X212991191Y-111556467D02*
X214414850Y-112980126D01*
%TO.N,Net-(RJ1-Pad1)*%
X179537441Y-116450000D02*
X178860646Y-117126795D01*
X198445580Y-109046158D02*
X198241793Y-108842371D01*
X178406846Y-118223154D02*
X178140000Y-118490000D01*
X198020817Y-107877255D02*
X196927515Y-107877255D01*
X178860646Y-117769354D02*
X178406846Y-118223154D01*
X198900000Y-109260000D02*
X198900000Y-109046158D01*
X188354770Y-116450000D02*
X179537441Y-116450000D01*
X198241793Y-108842371D02*
X198241793Y-108098231D01*
X198900000Y-109046158D02*
X198445580Y-109046158D01*
X196927515Y-107877255D02*
X188354770Y-116450000D01*
X178860646Y-117126795D02*
X178860646Y-117769354D01*
X198241793Y-108098231D02*
X198020817Y-107877255D01*
X198900000Y-109580000D02*
X198900000Y-109260000D01*
%TO.N,Net-(RJ1-Pad2)*%
X200229938Y-111129938D02*
X200229938Y-112022685D01*
X200172623Y-112080000D02*
X194980383Y-112080000D01*
X180694753Y-117470000D02*
X179940000Y-117470000D01*
X198900000Y-110580000D02*
X199680000Y-110580000D01*
X200229938Y-112022685D02*
X200172623Y-112080000D01*
X189590383Y-117470000D02*
X180984423Y-117470000D01*
X194980383Y-112080000D02*
X189590383Y-117470000D01*
X180984423Y-117470000D02*
X180694753Y-117470000D01*
X199680000Y-110580000D02*
X200160146Y-111060146D01*
X200160146Y-111060146D02*
X200229938Y-111129938D01*
%TO.N,Net-(RJ1-Pad3)*%
X177181276Y-118850883D02*
X177181276Y-117408724D01*
X198900000Y-112580000D02*
X197800000Y-112580000D01*
X183367965Y-118391062D02*
X182258342Y-119500685D01*
X195283137Y-112580000D02*
X189472076Y-118391062D01*
X177831077Y-119500685D02*
X177181276Y-118850883D01*
X177873154Y-116716846D02*
X178140000Y-116450000D01*
X189472076Y-118391062D02*
X183367965Y-118391062D01*
X197800000Y-112580000D02*
X197510330Y-112580000D01*
X197510330Y-112580000D02*
X195283137Y-112580000D01*
X177464036Y-117125964D02*
X177873154Y-116716846D01*
X177181276Y-117408724D02*
X177464036Y-117125964D01*
X182258342Y-119500685D02*
X177831077Y-119500685D01*
%TO.N,Net-(RJ1-Pad6)*%
X176959238Y-116294491D02*
X177722158Y-115531572D01*
X189053275Y-120411604D02*
X178270259Y-120411604D01*
X197800000Y-113580000D02*
X197510330Y-113580000D01*
X179219354Y-114110646D02*
X179673154Y-113656846D01*
X197510330Y-113580000D02*
X195884879Y-113580000D01*
X179219354Y-114707856D02*
X179219354Y-114110646D01*
X195884879Y-113580000D02*
X189053275Y-120411604D01*
X176959238Y-119100583D02*
X176959238Y-116294491D01*
X198900000Y-113580000D02*
X197800000Y-113580000D01*
X179673154Y-113656846D02*
X179940000Y-113390000D01*
X178395638Y-115531572D02*
X179219354Y-114707856D01*
X178270259Y-120411604D02*
X176959238Y-119100583D01*
X177722158Y-115531572D02*
X178395638Y-115531572D01*
%TO.N,Net-(R2-Pad1)*%
X199536270Y-108485000D02*
X199060000Y-108485000D01*
X199737474Y-108485000D02*
X199536270Y-108485000D01*
X200454193Y-109201719D02*
X199737474Y-108485000D01*
X200454193Y-113805807D02*
X200454193Y-109201719D01*
X199680000Y-114580000D02*
X200088654Y-114171346D01*
X200088654Y-114171346D02*
X200454193Y-113805807D01*
X198900000Y-114580000D02*
X199680000Y-114580000D01*
%TO.N,Net-(RJ1-Pad4)*%
X197510330Y-115580000D02*
X197800000Y-115580000D01*
X197800000Y-115580000D02*
X198900000Y-115580000D01*
X194541364Y-115580000D02*
X197510330Y-115580000D01*
X194000816Y-116120548D02*
X194541364Y-115580000D01*
%TO.N,Net-(RJ1-Pad5)*%
X177401481Y-115148519D02*
X177873154Y-114676846D01*
X183100394Y-121507575D02*
X178933810Y-121507575D01*
X184362310Y-122769491D02*
X183100394Y-121507575D01*
X177873154Y-114676846D02*
X178140000Y-114410000D01*
X198900000Y-116580000D02*
X197800000Y-116580000D01*
X191320839Y-122769491D02*
X184362310Y-122769491D01*
X176698058Y-115851942D02*
X177401481Y-115148519D01*
X197800000Y-116580000D02*
X197510330Y-116580000D01*
X197510330Y-116580000D02*
X191320839Y-122769491D01*
X176698058Y-119271822D02*
X176698058Y-115851942D01*
X178933810Y-121507575D02*
X176698058Y-119271822D01*
%TO.N,Net-(RJ1-Pad7)*%
X179184423Y-112370000D02*
X178894753Y-112370000D01*
X200890560Y-117369440D02*
X200890560Y-109215125D01*
X196816469Y-107616357D02*
X192062826Y-112370000D01*
X200890560Y-109215125D02*
X199291791Y-107616357D01*
X200106527Y-118153473D02*
X200890560Y-117369440D01*
X199291791Y-107616357D02*
X196816469Y-107616357D01*
X192062826Y-112370000D02*
X179184423Y-112370000D01*
X198900000Y-118580000D02*
X199680000Y-118580000D01*
X178894753Y-112370000D02*
X178140000Y-112370000D01*
X199680000Y-118580000D02*
X200106527Y-118153473D01*
%TO.N,Net-(RJ1-Pad8)*%
X200364645Y-119310357D02*
X200364645Y-119416559D01*
X200364645Y-119416559D02*
X200201204Y-119580000D01*
X200201204Y-119580000D02*
X200000000Y-119580000D01*
X200000000Y-119580000D02*
X198900000Y-119580000D01*
%TO.N,Net-(R4-Pad1)*%
X198900000Y-120580000D02*
X199020000Y-120700000D01*
X199020000Y-120700000D02*
X199020000Y-121303730D01*
X199020000Y-121303730D02*
X199020000Y-121705000D01*
%TO.N,/LED0*%
X219270912Y-112363831D02*
X219059743Y-112575000D01*
X185686270Y-124210000D02*
X185900112Y-124210000D01*
X219000000Y-112725000D02*
X219000000Y-112875000D01*
X219863203Y-112646354D02*
X219580679Y-112363831D01*
X219863203Y-112854758D02*
X219863203Y-112646354D01*
X186064463Y-124374351D02*
X186064463Y-124482984D01*
X219580679Y-112363831D02*
X219270912Y-112363831D01*
X185900112Y-124210000D02*
X186064463Y-124374351D01*
X219059743Y-112575000D02*
X219000000Y-112575000D01*
X219000000Y-112575000D02*
X219000000Y-112725000D01*
X185285000Y-124210000D02*
X185686270Y-124210000D01*
%TO.N,Net-(R5-Pad2)*%
X183635000Y-124210000D02*
X183233730Y-124210000D01*
X182944060Y-124210000D02*
X182862876Y-124291184D01*
X183233730Y-124210000D02*
X182944060Y-124210000D01*
X182862876Y-124291184D02*
X182862876Y-124805192D01*
%TO.N,/SS_TXA*%
X216343632Y-120538632D02*
X216343632Y-119698426D01*
X216600000Y-118212791D02*
X216411004Y-118401787D01*
X216996358Y-120808071D02*
X216613071Y-120808071D01*
X216600000Y-117975000D02*
X216600000Y-118212791D01*
X216600000Y-117675000D02*
X216600000Y-117975000D01*
X216411004Y-118401787D02*
X216294853Y-118401787D01*
X216613071Y-120808071D02*
X216343632Y-120538632D01*
%TO.N,Net-(U2-VSW)*%
X227914407Y-115809347D02*
X229089407Y-115809347D01*
X227529401Y-115848862D02*
X227568916Y-115809347D01*
X227687927Y-115809347D02*
X227914407Y-115809347D01*
X220589670Y-114275000D02*
X220896258Y-114581588D01*
X220300000Y-114275000D02*
X220589670Y-114275000D01*
X227568916Y-115809347D02*
X227687927Y-115809347D01*
X220000000Y-114275000D02*
X220300000Y-114275000D01*
X220896258Y-114581588D02*
X220896258Y-114772789D01*
%TO.N,Net-(R6-Pad2)*%
X184660000Y-108060000D02*
X184393154Y-107793154D01*
X183640000Y-107040000D02*
X183640000Y-106565940D01*
X184393154Y-107793154D02*
X183921481Y-107321481D01*
X183640000Y-106276270D02*
X183640000Y-105800000D01*
X183921481Y-107321481D02*
X183640000Y-107040000D01*
X183640000Y-106565940D02*
X183640000Y-106276270D01*
%TO.N,/XI*%
X218496542Y-105803505D02*
X218496542Y-107876725D01*
X219420024Y-108478313D02*
X219561511Y-108619801D01*
X217748834Y-112057873D02*
X217800000Y-112109039D01*
X219310869Y-108478313D02*
X219420024Y-108478313D01*
X217800000Y-112285330D02*
X217800000Y-112575000D01*
X217800000Y-112109039D02*
X217800000Y-112285330D01*
X218496542Y-107876725D02*
X218496542Y-108478313D01*
X218918114Y-105381933D02*
X218496542Y-105803505D01*
X219198131Y-108478313D02*
X219310869Y-108478313D01*
X217800000Y-112575000D02*
X217800000Y-112875000D01*
X218496542Y-108478313D02*
X219198131Y-108478313D01*
%TO.N,/LED1*%
X185290000Y-105800000D02*
X185691270Y-105800000D01*
X220357741Y-112685219D02*
X220357741Y-113035579D01*
X220143696Y-113249624D02*
X220000000Y-113249624D01*
X220357741Y-113035579D02*
X220143696Y-113249624D01*
X188102414Y-105800000D02*
X188136467Y-105834053D01*
X219805990Y-112133468D02*
X220357741Y-112685219D01*
X185691270Y-105800000D02*
X185980940Y-105800000D01*
X185980940Y-105800000D02*
X188102414Y-105800000D01*
X220000000Y-113249624D02*
X220000000Y-113375000D01*
X218916641Y-112133468D02*
X219805990Y-112133468D01*
X220000000Y-113375000D02*
X220000000Y-113475000D01*
%TO.N,Net-(D1-A)*%
X231440000Y-115782500D02*
X231440000Y-114716270D01*
X231440000Y-114716270D02*
X231440000Y-114315000D01*
X231460000Y-115802500D02*
X231440000Y-115782500D01*
%TO.N,/SS_TXB*%
D32*
X216200000Y-117922675D02*
X216200000Y-117675000D01*
X215002077Y-120808071D02*
X215002077Y-119120598D01*
X215002077Y-119120598D02*
X216200000Y-117922675D01*
%TO.N,/X0*%
D31*
X217400000Y-112575000D02*
X217400000Y-112875000D01*
X217123384Y-111940850D02*
X217123384Y-112147732D01*
X216296542Y-109576725D02*
X216296542Y-109287055D01*
X216296542Y-109287055D02*
X216340026Y-109243572D01*
X217320000Y-105375000D02*
X216843572Y-105375000D01*
X217082686Y-109243572D02*
X217320000Y-109006258D01*
X216340026Y-109243572D02*
X217082686Y-109243572D01*
X214762634Y-104607000D02*
X214468413Y-104312779D01*
X217400000Y-112424348D02*
X217400000Y-112575000D01*
X217320000Y-105826428D02*
X217320000Y-105375000D01*
X217123384Y-112147732D02*
X217400000Y-112424348D01*
X216296542Y-110178313D02*
X216296542Y-109576725D01*
X215785902Y-104607000D02*
X214762634Y-104607000D01*
X216843572Y-105375000D02*
X216553902Y-105375000D01*
X216553902Y-105375000D02*
X215785902Y-104607000D01*
X217320000Y-109006258D02*
X217320000Y-106116098D01*
X217320000Y-106116098D02*
X217320000Y-105826428D01*
%TO.N,Net-(U2-LED2)*%
X230963730Y-112665000D02*
X231440000Y-112665000D01*
X221047455Y-115945071D02*
X220977384Y-115875000D01*
X230674060Y-112665000D02*
X230963730Y-112665000D01*
X220589670Y-115875000D02*
X220300000Y-115875000D01*
X230584813Y-112650647D02*
X230599166Y-112665000D01*
X230599166Y-112665000D02*
X230674060Y-112665000D01*
X220977384Y-115875000D02*
X220589670Y-115875000D01*
X220300000Y-115875000D02*
X220000000Y-115875000D01*
%TO.N,Net-(U2-RSET)*%
X216600000Y-112875000D02*
X216600000Y-112420000D01*
X216100000Y-111920000D02*
X214480000Y-111920000D01*
X216600000Y-112420000D02*
X216100000Y-111920000D01*
%TO.N,GND*%
D33*
X253781250Y-118100000D02*
X254731250Y-118100000D01*
X254731250Y-118100000D02*
X254843988Y-118100000D01*
X254843988Y-118100000D02*
X255102622Y-117841366D01*
X255102622Y-117841366D02*
X255106292Y-117841366D01*
%TO.N,Net-(U4-STDA_SSRX-)*%
X215681589Y-123124771D02*
X215718978Y-123087382D01*
X215718978Y-123087382D02*
X215718978Y-122394260D01*
X215718978Y-122394260D02*
X215669718Y-122345000D01*
X215669718Y-122345000D02*
X215506428Y-122345000D01*
X215506428Y-122345000D02*
X215030000Y-122345000D01*
X253781250Y-119100000D02*
X252831250Y-119100000D01*
X252831250Y-119100000D02*
X252541580Y-119100000D01*
X252541580Y-119100000D02*
X251862753Y-119100000D01*
X251862753Y-119100000D02*
X251661707Y-119301046D01*
%TO.N,Net-(U4-STDA_SSRX+)*%
X253781250Y-117100000D02*
X252831250Y-117100000D01*
X252831250Y-117100000D02*
X252541580Y-117100000D01*
X252541580Y-117100000D02*
X250640498Y-119001082D01*
X250640498Y-119001082D02*
X250640498Y-119888987D01*
%TO.N,GND*%
X253781250Y-115100000D02*
X252831250Y-115100000D01*
X252831250Y-115100000D02*
X252541580Y-115100000D01*
X252541580Y-115100000D02*
X252445210Y-115100000D01*
X252445210Y-115100000D02*
X252443421Y-115101788D01*
%TO.N,/SS_RXA*%
D31*
X253781250Y-111100000D02*
X254406250Y-111100000D01*
X254406250Y-111100000D02*
X254878831Y-111572581D01*
X254878831Y-111572581D02*
X255776566Y-112470316D01*
X255776566Y-112470316D02*
X255776566Y-118960797D01*
X255776566Y-118960797D02*
X254631872Y-120105491D01*
X254631872Y-120105491D02*
X253134498Y-120105491D01*
X253134498Y-120105491D02*
X252694305Y-120545684D01*
X252694305Y-120545684D02*
X229325587Y-120545684D01*
X229325587Y-120545684D02*
X228560053Y-119780150D01*
X228560053Y-119780150D02*
X219305783Y-119780150D01*
X219305783Y-119780150D02*
X217800000Y-118274367D01*
X217800000Y-118274367D02*
X217800000Y-117975000D01*
X217800000Y-117975000D02*
X217800000Y-117675000D01*
%TO.N,/HS_DM*%
X218200000Y-117675000D02*
X218200000Y-117975000D01*
X218200000Y-117975000D02*
X218200000Y-118248466D01*
X218200000Y-118248466D02*
X219464215Y-119512680D01*
X219464215Y-119512680D02*
X243002295Y-119512680D01*
X243002295Y-119512680D02*
X243787838Y-120298223D01*
X243787838Y-120298223D02*
X251679190Y-120298223D01*
X251679190Y-120298223D02*
X252261354Y-119716059D01*
X252261354Y-119716059D02*
X254688897Y-119716059D01*
X254688897Y-119716059D02*
X255519714Y-118885242D01*
X255519714Y-118885242D02*
X255519714Y-115213464D01*
X255519714Y-115213464D02*
X254842201Y-114535951D01*
X254842201Y-114535951D02*
X254406250Y-114100000D01*
X254406250Y-114100000D02*
X253781250Y-114100000D01*
%TO.N,/SS_RXB*%
X253781250Y-113100000D02*
X253156250Y-113100000D01*
X253156250Y-113100000D02*
X252729457Y-112673207D01*
X252729457Y-112673207D02*
X252672964Y-112616714D01*
X252672964Y-112616714D02*
X252672964Y-110677409D01*
X252672964Y-110677409D02*
X252731282Y-110619092D01*
X252731282Y-110619092D02*
X254805113Y-110619092D01*
X254805113Y-110619092D02*
X256893048Y-112707028D01*
X256893048Y-112707028D02*
X256893048Y-121626855D01*
X256893048Y-121626855D02*
X255595857Y-122924046D01*
X255595857Y-122924046D02*
X245302185Y-122924046D01*
X245302185Y-122924046D02*
X243888534Y-124337698D01*
X243888534Y-124337698D02*
X221355286Y-124337698D01*
X221355286Y-124337698D02*
X219056357Y-122038769D01*
X219056357Y-122038769D02*
X219056357Y-119930725D01*
X219056357Y-119930725D02*
X217400000Y-118274367D01*
X217400000Y-118274367D02*
X217400000Y-117975000D01*
X217400000Y-117975000D02*
X217400000Y-117675000D01*
%TO.N,Net-(U4-STDA_SSRX+)*%
D33*
X237498140Y-125443948D02*
X235103854Y-127838234D01*
X235103854Y-127838234D02*
X223207804Y-127838234D01*
X223207804Y-127838234D02*
X222231986Y-126862416D01*
X222231986Y-126862416D02*
X221049189Y-126862416D01*
X221049189Y-126862416D02*
X217780626Y-123593852D01*
X217780626Y-123593852D02*
X217107754Y-123593852D01*
X217107754Y-123593852D02*
X216600000Y-123086098D01*
X216600000Y-123086098D02*
X216600000Y-122796428D01*
X216600000Y-122796428D02*
X216600000Y-122345000D01*
%TO.N,/HS_DP*%
D31*
X253781250Y-116100000D02*
X252831250Y-116100000D01*
X252831250Y-116100000D02*
X252531883Y-116100000D01*
X252531883Y-116100000D02*
X244577055Y-116100000D01*
X244577055Y-116100000D02*
X241458380Y-119218675D01*
X241458380Y-119218675D02*
X219622012Y-119218675D01*
X219622012Y-119218675D02*
X218600000Y-118196662D01*
X218600000Y-118196662D02*
X218600000Y-117975000D01*
X218600000Y-117975000D02*
X218600000Y-117675000D01*
%TO.N,+5V*%
X222784625Y-109320000D02*
X222926618Y-109204754D01*
X222926618Y-109204754D02*
X223230629Y-109204754D01*
X223230629Y-109204754D02*
X223644375Y-109618500D01*
X223644375Y-109618500D02*
X240774994Y-109618500D01*
X240774994Y-109618500D02*
X244756494Y-113600000D01*
X244756494Y-113600000D02*
X254843042Y-113600000D01*
X254843042Y-113600000D02*
X254945334Y-113497709D01*
X254945334Y-113497709D02*
X254945334Y-112639084D01*
X254945334Y-112639084D02*
X254878831Y-112572581D01*
X254878831Y-112572581D02*
X254406250Y-112100000D01*
X254406250Y-112100000D02*
X253781250Y-112100000D01*
%TD*%
M02*
