#VRML V2.0 utf8
# 3D model generated by kicad-lcsc-manager
# Based on easyeda2kicad.py v1.0.1

Shape{
    appearance Appearance {
        material  Material {
            diffuseColor 0.2235294117647059 0.2235294117647059 0.2235294117647059
            specularColor 0.11372549019607843 0.11372549019607843 0.11372549019607843
            ambientIntensity 0.2235
            transparency 0.0
            shininess 0.5
        }
    }
    geometry IndexedFaceSet {
        ccw TRUE
        solid FALSE
        coord DEF co Coordinate {
            point [
                0.3937 -0.4768 0.1811, 0.3937 -0.4659 0.1811, 0.2917 -0.4659 0.1811, 0.2286 -0.5247 0.1811, 0.2277 -0.5248 0.1811, 0.2367 -0.5248 0.1811, -0.2586 -0.5394 0.1811, -0.2587 -0.5394 0.1811, -0.1265 -0.5394 0.1811, -0.2203 -0.4768 0.1811, -0.1265 -0.4768 0.1811, -0.1265 -0.4659 0.1811, 0.2003 -0.4286 0.1811, 0.2031 -0.4283 0.1811, 0.1884 -0.4283 0.1811, 0.2099 -0.4657 0.1811, 0.2075 -0.4659 0.1811, 0.2197 -0.4659 0.1811, 0.3091 -0.4656 0.1811, 0.3054 -0.4555 0.1811, 0.2917 -0.4555 0.1811, 0.1191 -0.458 0.1811, 0.1261 -0.4642 0.1811, 0.1505 -0.4283 0.1811, 0.1505 -0.4659 0.1811, 0.0832 -0.4244 0.1811, 0.0889 -0.4283 0.1811, 0.095 -0.4323 0.1811, 0.1036 -0.4423 0.1811, 0.1092 -0.4531 0.1811, 0.1114 -0.4539 0.1811, 0.0339 -0.4249 0.1811, 0.0461 -0.4202 0.1811, -0.1265 0.5906 0.1811, 0.1505 0.5906 0.1811, 0.0591 -0.4186 0.1811, 0.07 -0.4198 0.1811, 0.0285 -0.4283 0.1811, -0.1265 -0.4283 0.1811, 0.0275 -0.4289 0.1811, -0.0291 -0.4659 0.1811, -0.0268 -0.4608 0.1811, -0.0205 -0.4526 0.1811, -0.0006 -0.4413 0.1811, 0.0098 -0.44 0.1811, 0.0213 -0.4342 0.1811, 0.0129 -0.4401 0.1811, 0.0159 -0.4405 0.1811, -0.0187 -0.451 0.1811, -0.0103 -0.4451 0.1811, -0.0136 -0.5184 0.1811, -0.0218 -0.5114 0.1811, -0.1265 -0.5248 0.1811, -0.0041 -0.523 0.1811, -0.0278 -0.5029 0.1811, -0.0316 -0.4931 0.1811, -0.0329 -0.4827 0.1811, -0.0328 -0.4802 0.1811, -0.0322 -0.4768 0.1811, -0.031 -0.4703 0.1811, -0.0007 -0.524 0.1811, -0.0004 -0.5248 0.1811, 0.0019 -0.5297 0.1811, 0.0058 -0.5345 0.1811, 0.011 -0.5384 0.1811, -0.1265 -0.5906 0.1811, 0.0171 -0.541 0.1811, 0.0134 -0.5394 0.1811, 0.0352 -0.5394 0.1811, 0.0307 -0.5412 0.1811, 0.1505 -0.5906 0.1811, 0.0243 -0.542 0.1811, 0.0233 -0.5419 0.1811, 0.049 -0.5248 0.1811, 0.049 -0.5248 0.1811, 0.1505 -0.5394 0.1811, 0.0459 -0.5307 0.1811, 0.0418 -0.5353 0.1811, 0.0366 -0.5389 0.1811, 0.0441 -0.4979 0.1811, 0.0794 -0.4795 0.1811, 0.0395 -0.4938 0.1811, 0.0339 -0.4908 0.1811, 0.0852 -0.5245 0.1811, 0.0834 -0.5239 0.1811, 0.0816 -0.5229 0.1811, 0.0803 -0.5216 0.1811, 0.1188 -0.4857 0.1811, 0.1176 -0.4806 0.1811, 0.1156 -0.4768 0.1811, -0.0156 -0.4768 0.1811, 0.0813 -0.5102 0.1811, 0.0829 -0.5091 0.1811, 0.0876 -0.4935 0.1811, 0.0847 -0.5084 0.1811, 0.1303 -0.5063 0.1811, 0.1255 -0.5127 0.1811, 0.1505 -0.5248 0.1811, 0.1245 -0.5138 0.1811, 0.1175 -0.5193 0.1811, -0.0141 -0.4926 0.1811, -0.0109 -0.498 0.1811, 0.0025 -0.5007 0.1811, -0.0062 -0.5029 0.1811, -0.0004 -0.5064 0.1811, 0.0122 -0.492 0.1811, 0.0068 -0.4957 0.1811, -0.0163 -0.4821 0.1811, -0.0159 -0.4861 0.1811, 0.1343 -0.48 0.1811, 0.1353 -0.4877 0.1811, 0.1505 -0.4768 0.1811, 0.1352 -0.4895 0.1811, 0.1338 -0.4981 0.1811, 0.1094 -0.523 0.1811, 0.1016 -0.5246 0.1811, 0.086 -0.5246 0.1811, 0.0784 -0.5164 0.1811, 0.0784 -0.5155 0.1811, 0.0507 -0.513 0.1811, 0.0789 -0.5135 0.1811, 0.0799 -0.5117 0.1811, 0.0181 -0.4898 0.1811, 0.0243 -0.489 0.1811, 0.0276 -0.4892 0.1811, 0.0792 -0.52 0.1811, 0.0786 -0.5182 0.1811, 0.0506 -0.5183 0.1811, 0.0507 -0.5156 0.1811, 0.0865 -0.5082 0.1811, 0.0868 -0.5082 0.1811, 0.0876 -0.5084 0.1811, 0.1136 -0.5019 0.1811, 0.1165 -0.4978 0.1811, 0.1183 -0.4931 0.1811, 0.119 -0.4879 0.1811, 0.0881 -0.5085 0.1811, 0.1 -0.5085 0.1811, 0.1047 -0.5076 0.1811, 0.1093 -0.5055 0.1811, 0.1132 -0.5023 0.1811, 0.096 -0.4659 0.1811, -0.0105 -0.4659 0.1811, 0.0963 -0.4674 0.1811, -0.0132 -0.4699 0.1811, -0.0155 -0.4758 0.1811, 0.0984 -0.4674 0.1811, 0.1152 -0.4761 0.1811, 0.1121 -0.4726 0.1811, 0.108 -0.4698 0.1811, 0.1034 -0.468 0.1811, 0.0221 -0.4587 0.1811, 0.0241 -0.4597 0.1811, 0.0275 -0.4524 0.1811, 0.0831 -0.4431 0.1811, 0.0956 -0.4634 0.1811, 0.087 -0.4469 0.1811, 0.0923 -0.4545 0.1811, 0.0594 -0.4344 0.1811, 0.0576 -0.4345 0.1811, 0.0489 -0.4359 0.1811, 0.0162 -0.4565 0.1811, 0.0101 -0.4558 0.1811, 0.0074 -0.4559 0.1811, 0.0756 -0.4382 0.1811, 0.0673 -0.4353 0.1811, 0.0403 -0.4396 0.1811, 0.0331 -0.4452 0.1811, 0.0009 -0.4574 0.1811, -0.005 -0.4605 0.1811, -0.0096 -0.4646 0.1811, 0.1273 -0.4659 0.1811, 0.1313 -0.4719 0.1811, 0.1331 -0.4768 0.1811, 0.3144 -0.4656 0.1811, 0.3003 -0.4286 0.1811, 0.3937 -0.4283 0.1811, 0.2917 -0.4283 0.1811, 0.2864 -0.4656 0.1811, 0.2811 -0.4656 0.1811, 0.28 -0.4659 0.1811, 0.2899 -0.4555 0.1811, 0.28 -0.4283 0.1811, 0.2917 -0.4376 0.1811, 0.2952 -0.4286 0.1811, 0.2367 -0.4489 0.1811, 0.2267 -0.4489 0.1811, 0.2367 -0.4614 0.1811, 0.2267 -0.4614 0.1811, 0.2453 -0.4283 0.1811, 0.2367 -0.4283 0.1811, 0.241 -0.4286 0.1811, 0.2367 -0.4286 0.1811, 0.241 -0.4328 0.1811, 0.2418 -0.4614 0.1811, 0.2453 -0.4659 0.1811, 0.2418 -0.4656 0.1811, 0.2367 -0.4659 0.1811, 0.2399 -0.4489 0.1811, 0.2399 -0.4447 0.1811, 0.2367 -0.4447 0.1811, 0.2367 -0.4328 0.1811, 0.2267 -0.4328 0.1811, 0.2267 -0.4447 0.1811, 0.2219 -0.4286 0.1811, 0.2197 -0.4283 0.1811, 0.2219 -0.4656 0.1811, 0.2145 -0.4295 0.1811, 0.2106 -0.4283 0.1811, 0.2096 -0.4283 0.1811, 0.2367 -0.4656 0.1811, 0.2145 -0.4345 0.1811, 0.2138 -0.4644 0.1811, 0.2067 -0.4619 0.1811, 0.2108 -0.4611 0.1811, 0.2145 -0.4595 0.1811, 0.2145 -0.4641 0.1811, 0.1936 -0.4556 0.1811, 0.1954 -0.4581 0.1811, 0.1961 -0.4588 0.1811, 0.1985 -0.4605 0.1811, 0.2011 -0.4615 0.1811, 0.2049 -0.462 0.1811, 0.2103 -0.4328 0.1811, 0.1952 -0.4369 0.1811, 0.2141 -0.4342 0.1811, 0.1934 -0.4395 0.1811, 0.1922 -0.4428 0.1811, 0.2057 -0.4323 0.1811, 0.2043 -0.4323 0.1811, 0.1956 -0.4364 0.1811, 0.2011 -0.4329 0.1811, 0.1982 -0.4343 0.1811, 0.1917 -0.4475 0.1811, 0.1918 -0.4489 0.1811, 0.1924 -0.4526 0.1811, 0.1884 0.5906 0.1811, 0.2057 -0.4279 0.1811, 0.2197 0.5906 0.1811, 0.2058 -0.4279 0.1811, 0.1894 -0.4369 0.1811, 0.1921 -0.4334 0.1811, 0.1929 -0.4326 0.1811, 0.1964 -0.4301 0.1811, 0.1884 -0.4563 0.1811, 0.1873 -0.4533 0.1811, 0.1862 -0.4659 0.1811, 0.1867 -0.4478 0.1811, 0.1868 -0.4459 0.1811, 0.1862 -0.4283 0.1811, 0.1876 -0.441 0.1811, 0.1884 -0.4393 0.1811, 0.1884 -0.4768 0.1811, 0.201 -0.4659 0.1811, 0.1884 -0.4659 0.1811, 0.198 -0.4653 0.1811, 0.1945 -0.4637 0.1811, 0.1915 -0.4612 0.1811, 0.1909 -0.4605 0.1811, 0.1888 -0.4573 0.1811, 0.2197 -0.4768 0.1811, 0.2042 -0.4663 0.1811, 0.202 -0.4662 0.1811, -0.2202 -0.4773 0.1811, -0.2201 -0.4807 0.1811, -0.2221 -0.4963 0.1811, -0.2278 -0.5111 0.1811, -0.2389 -0.4354 0.1811, -0.2292 -0.4478 0.1811, -0.2228 -0.4624 0.1811, -0.2222 -0.4659 0.1811, -0.3937 0.5906 0.1811, -0.3937 -0.4283 0.1811, -0.3203 -0.4283 0.1811, -0.3101 -0.4222 0.1811, -0.2949 -0.4176 0.1811, -0.2791 -0.4169 0.1811, -0.2635 -0.4201 0.1811, -0.2493 -0.427 0.1811, -0.2477 -0.4283 0.1811, -0.3404 -0.4502 0.1811, -0.3312 -0.4373 0.1811, -0.3236 -0.4303 0.1811, -0.3462 -0.4649 0.1811, -0.3937 -0.4659 0.1811, -0.3464 -0.4659 0.1811, -0.3937 -0.4768 0.1811, -0.3477 -0.4768 0.1811, -0.3314 -0.524 0.1811, -0.3405 -0.5111 0.1811, -0.3937 -0.5248 0.1811, -0.3463 -0.4963 0.1811, -0.3482 -0.4807 0.1811, -0.3937 -0.5394 0.1811, -0.3194 -0.5342 0.1811, -0.3305 -0.5248 0.1811, -0.2738 -0.5439 0.1811, -0.3937 -0.5906 0.1811, -0.2897 -0.5445 0.1811, -0.3053 -0.5412 0.1811, -0.3088 -0.5394 0.1811, -0.237 -0.524 0.1811, -0.2378 -0.5248 0.1811, -0.2451 -0.5314 0.1811, 0.278 -0.4533 0.1811, 0.2762 -0.4571 0.1811, 0.2658 -0.4283 0.1811, 0.2658 -0.4295 0.1811, 0.2695 -0.4308 0.1811, 0.2658 -0.4647 0.1811, 0.2658 -0.4659 0.1811, 0.2696 -0.4632 0.1811, 0.2734 -0.4604 0.1811, 0.2734 -0.4335 0.1811, 0.2747 -0.4347 0.1811, 0.277 -0.4379 0.1811, 0.2784 -0.4415 0.1811, 0.279 -0.4466 0.1811, 0.2789 -0.449 0.1811, 0.2594 -0.4286 0.1811, 0.2651 -0.4292 0.1811, 0.2654 -0.4648 0.1811, 0.259 -0.4656 0.1811, 0.2488 -0.4656 0.1811, 0.2488 -0.4286 0.1811, 0.1919 -0.5118 0.1811, 0.1926 -0.5043 0.1811, 0.191 -0.5132 0.1811, 0.1903 -0.5148 0.1811, 0.2067 -0.5244 0.1811, 0.201 -0.5248 0.1811, 0.2113 -0.5244 0.1811, 0.2197 -0.5248 0.1811, 0.197 -0.4979 0.1811, 0.1935 -0.4993 0.1811, 0.1926 -0.4998 0.1811, 0.2067 -0.5203 0.1811, 0.2065 -0.5203 0.1811, 0.2055 -0.5219 0.1811, 0.1955 -0.5247 0.1811, 0.1937 -0.524 0.1811, 0.1884 -0.5248 0.1811, 0.1923 -0.523 0.1811, 0.1933 -0.5106 0.1811, 0.1953 -0.5096 0.1811, 0.1958 -0.5023 0.1811, 0.1988 -0.5087 0.1811, 0.1988 -0.5014 0.1811, 0.204 -0.5233 0.1811, 0.2029 -0.524 0.1811, 0.1916 -0.5223 0.1811, 0.1908 -0.521 0.1811, 0.1902 -0.5194 0.1811, 0.2067 -0.5076 0.1811, 0.2065 -0.5058 0.1811, 0.2061 -0.5041 0.1811, 0.2017 -0.4974 0.1811, 0.2045 -0.4976 0.1811, 0.2065 -0.4982 0.1811, 0.2056 -0.5031 0.1811, 0.2049 -0.5023 0.1811, 0.2041 -0.5017 0.1811, 0.2031 -0.5013 0.1811, 0.2013 -0.5011 0.1811, 0.19 -0.5174 0.1811, 0.19 -0.5168 0.1811, 0.2183 -0.502 0.1811, 0.2092 -0.5002 0.1811, 0.2178 -0.5035 0.1811, 0.2102 -0.5017 0.1811, 0.2109 -0.5038 0.1811, 0.2192 -0.5007 0.1811, 0.208 -0.4991 0.1811, 0.2197 -0.5101 0.1811, 0.2176 -0.5187 0.1811, 0.2197 -0.5101 0.1811, 0.2193 -0.5198 0.1811, 0.2197 -0.5199 0.1811, 0.2189 -0.5093 0.1811, 0.2184 -0.5084 0.1811, 0.2113 -0.5074 0.1811, 0.2178 -0.507 0.1811, 0.2176 -0.5051 0.1811, 0.1984 -0.5251 0.1811, 0.1977 -0.525 0.1811, 0.1884 -0.5394 0.1811, 0.1958 -0.5248 0.1811, 0.2176 -0.5235 0.1811, 0.2197 -0.5243 0.1811, 0.2208 -0.5247 0.1811, 0.2218 -0.5248 0.1811, 0.2248 -0.5251 0.1811, 0.2197 -0.5394 0.1811, 0.2342 -0.4985 0.1811, 0.2342 -0.503 0.1811, 0.2353 -0.519 0.1811, 0.2347 -0.5205 0.1811, 0.2339 -0.5218 0.1811, 0.2197 -0.5002 0.1811, 0.2206 -0.4995 0.1811, 0.2217 -0.4988 0.1811, 0.2339 -0.5129 0.1811, 0.2348 -0.5141 0.1811, 0.2353 -0.5154 0.1811, 0.2355 -0.5172 0.1811, 0.2242 -0.4978 0.1811, 0.2279 -0.4974 0.1811, 0.2367 -0.4768 0.1811, 0.2312 -0.4976 0.1811, 0.2325 -0.523 0.1811, 0.2312 -0.5238 0.1811, 0.2275 -0.5011 0.1811, 0.2261 -0.5012 0.1811, 0.2224 -0.5047 0.1811, 0.2249 -0.5016 0.1811, 0.2238 -0.5021 0.1811, 0.2225 -0.5053 0.1811, 0.2226 -0.506 0.1811, 0.223 -0.5067 0.1811, 0.2234 -0.5072 0.1811, 0.2251 -0.5082 0.1811, 0.2307 -0.5015 0.1811, 0.2279 -0.5094 0.1811, 0.2334 -0.5025 0.1811, 0.2297 -0.5102 0.1811, 0.2328 -0.5119 0.1811, 0.2231 -0.5027 0.1811, 0.2227 -0.5033 0.1811, 0.2225 -0.504 0.1811, 0.2222 -0.5209 0.1811, 0.2247 -0.5128 0.1811, 0.2219 -0.5115 0.1811, 0.2252 -0.5213 0.1811, 0.2254 -0.5213 0.1811, 0.2277 -0.5141 0.1811, 0.2278 -0.521 0.1811, 0.2307 -0.5177 0.1811, 0.2307 -0.5171 0.1811, 0.229 -0.5206 0.1811, 0.2294 -0.5203 0.1811, 0.23 -0.5198 0.1811, 0.2304 -0.5192 0.1811, 0.2306 -0.5186 0.1811, 0.2305 -0.5164 0.1811, 0.2301 -0.5158 0.1811, 0.2295 -0.5152 0.1811, 0.2585 -0.498 0.1811, 0.2633 -0.498 0.1811, 0.2658 -0.4768 0.1811, 0.25 -0.5179 0.1811, 0.2506 -0.52 0.1811, 0.2507 -0.52 0.1811, 0.2453 -0.4768 0.1811, 0.2453 -0.5044 0.1811, 0.2513 -0.5179 0.1811, 0.2509 -0.5191 0.1811, 0.2453 -0.5248 0.1811, 0.2453 -0.5169 0.1811, 0.2379 -0.498 0.1811, 0.2431 -0.498 0.1811, 0.2483 -0.5244 0.1811, 0.2481 -0.5248 0.1811, 0.2462 -0.5292 0.1811, 0.2367 -0.5394 0.1811, 0.2388 -0.5365 0.1811, 0.2388 -0.5324 0.1811, 0.2398 -0.5327 0.1811, 0.2415 -0.5329 0.1811, 0.2417 -0.5329 0.1811, 0.2428 -0.5327 0.1811, 0.2438 -0.5323 0.1811, 0.2444 -0.5319 0.1811, 0.2453 -0.5309 0.1811, 0.2453 -0.5308 0.1811, 0.2453 -0.5361 0.1811, 0.2437 -0.5367 0.1811, 0.2453 -0.5394 0.1811, 0.2418 -0.5369 0.1811, 0.2402 -0.5368 0.1811, 0.2513 -0.5284 0.1811, 0.2492 -0.5325 0.1811, 0.2658 -0.5394 0.1811, 0.2527 -0.5248 0.1811, 0.2475 -0.5345 0.1811, 0.2472 -0.5349 0.1811, 0.2455 -0.536 0.1811, 0.28 -0.5077 0.1811, 0.2731 -0.5077 0.1811, 0.28 -0.5202 0.1811, 0.2731 -0.5202 0.1811, 0.2874 -0.4874 0.1811, 0.2874 -0.4916 0.1811, 0.2917 -0.4768 0.1811, 0.2882 -0.5202 0.1811, 0.2917 -0.5248 0.1811, 0.2882 -0.5244 0.1811, 0.28 -0.5248 0.1811, 0.2864 -0.5077 0.1811, 0.2864 -0.5035 0.1811, 0.28 -0.5035 0.1811, 0.28 -0.4916 0.1811, 0.2731 -0.4916 0.1811, 0.2731 -0.5035 0.1811, 0.28 -0.5244 0.1811, 0.2683 -0.5244 0.1811, 0.2658 -0.5248 0.1811, 0.2683 -0.4874 0.1811, 0.28 -0.4874 0.1811, 0.28 -0.4768 0.1811, 0.2367 0.5906 0.1811, 0.2453 0.5906 0.1811, 0.2658 0.5906 0.1811, 0.28 0.5906 0.1811, 0.2917 0.5906 0.1811, 0.3937 0.5906 0.1811, 0.1862 0.5906 0.1811, 0.1852 -0.4614 0.1811, 0.1852 -0.4656 0.1811, 0.1657 -0.4656 0.1811, 0.1657 -0.4286 0.1811, 0.1704 -0.4286 0.1811, 0.1704 -0.4614 0.1811, 0.1862 -0.4768 0.1811, 0.3328 -0.5244 0.1811, 0.3275 -0.5244 0.1811, 0.3937 -0.5248 0.1811, 0.3556 -0.5244 0.1811, 0.3363 -0.5143 0.1811, 0.3518 -0.5143 0.1811, 0.3467 -0.4874 0.1811, 0.3608 -0.5244 0.1811, 0.3244 -0.5121 0.1811, 0.3253 -0.5078 0.1811, 0.3416 -0.4874 0.1811, 0.3254 -0.5054 0.1811, 0.3248 -0.5003 0.1811, 0.3226 -0.516 0.1811, 0.3198 -0.5192 0.1811, 0.316 -0.522 0.1811, 0.2952 -0.4874 0.1811, 0.2952 -0.5244 0.1811, 0.3054 -0.5244 0.1811, 0.3118 -0.5237 0.1811, 0.3198 -0.4923 0.1811, 0.3211 -0.4935 0.1811, 0.3234 -0.4967 0.1811, 0.3058 -0.4874 0.1811, 0.3115 -0.488 0.1811, 0.316 -0.4896 0.1811, 0.1862 -0.5248 0.1811, 0.1657 -0.5244 0.1811, 0.1856 -0.5244 0.1811, 0.1856 -0.5202 0.1811, 0.1847 -0.4916 0.1811, 0.1657 -0.4874 0.1811, 0.1847 -0.4874 0.1811, 0.1704 -0.5077 0.1811, 0.1704 -0.5202 0.1811, 0.1837 -0.5077 0.1811, 0.1837 -0.5035 0.1811, 0.1704 -0.5035 0.1811, 0.1704 -0.4916 0.1811, 0.28 -0.5394 0.1811, 0.2917 -0.5394 0.1811, 0.3937 -0.5394 0.1811, 0.1862 -0.5394 0.1811, 0.1862 -0.5906 0.1811, 0.1884 -0.5906 0.1811, 0.2197 -0.5906 0.1811, 0.2367 -0.5906 0.1811, 0.2453 -0.5906 0.1811, 0.2658 -0.5906 0.1811, 0.28 -0.5906 0.1811, 0.2917 -0.5906 0.1811, 0.3937 -0.5906 0.1811, 0.3937 0.4495 0.0735, 0.3937 -0.4495 0.0735, 0.3937 0.4495 0.0541, 0.3937 -0.4495 0.0541, 0.3937 0.4884 0.0541, 0.3937 0.5906 0.0118, 0.3937 0.4884 0.0735, 0.3937 -0.5906 0.0118, 0.3937 -0.4884 0.0541, 0.3937 -0.4884 0.0735, 0.3445 0.5906 0.0118, 0.3445 0.5906 0.0618, 0.2461 0.5906 0.0618, 0.0492 0.5906 0.0618, 0.0492 0.5906 0.0118, -0.0492 0.5906 0.0118, -0.0492 0.5906 0.0618, -0.1476 0.5906 0.0618, 0.1476 0.5906 0.0618, 0.1476 0.5906 0.0118, 0.2461 0.5906 0.0118, -0.3445 0.5906 0.0118, -0.3937 0.5906 0.0118, -0.3445 0.5906 0.0618, -0.2461 0.5906 0.0618, -0.2461 0.5906 0.0118, -0.1476 0.5906 0.0118, -0.3937 0.4495 0.0541, -0.3937 -0.4495 0.0541, -0.3937 0.4495 0.0735, -0.3937 -0.4495 0.0735, -0.3937 -0.4884 0.0541, -0.3937 -0.5906 0.0118, -0.3937 -0.4884 0.0735, -0.3937 0.4884 0.0541, -0.3937 0.4884 0.0735, -0.3445 -0.5906 0.0118, -0.3445 -0.5906 0.0618, -0.2461 -0.5906 0.0618, -0.0492 -0.5906 0.0118, 0.0492 -0.5906 0.0118, -0.0492 -0.5906 0.0618, 0.0492 -0.5906 0.0618, -0.2461 -0.5906 0.0118, -0.1476 -0.5906 0.0118, -0.1476 -0.5906 0.0618, 0.1476 -0.5906 0.0618, 0.3445 -0.5906 0.0118, 0.3445 -0.5906 0.0618, 0.2461 -0.5906 0.0618, 0.2461 -0.5906 0.0118, 0.1476 -0.5906 0.0118, 0.3445 0.4724 0.0118, 0.3445 -0.4724 0.0118, -0.3445 0.4724 0.0118, 0.0492 -0.4724 0.0118, -0.0492 -0.4724 0.0118, -0.2727 0.2558 0.0118, -0.2736 0.2554 0.0118, -0.2744 0.2548 0.0118, -0.2751 0.2539 0.0118, 0.2727 0.2558 0.0118, -0.2461 0.4724 0.0118, 0.2717 0.2559 0.0118, -0.2717 0.2559 0.0118, -0.1476 0.4724 0.0118, 0.2736 0.2554 0.0118, -0.1476 -0.4724 0.0118, -0.2461 -0.4724 0.0118, -0.0492 0.4724 0.0118, 0.0492 0.4724 0.0118, 0.2744 0.2548 0.0118, 0.1476 0.4724 0.0118, 0.2751 0.2539 0.0118, -0.3445 -0.4724 0.0118, 0.2461 -0.4724 0.0118, 0.1476 -0.4724 0.0118, -0.2727 -0.2558 0.0118, -0.2736 -0.2554 0.0118, -0.2744 -0.2548 0.0118, -0.2751 -0.2539 0.0118, 0.2461 0.4724 0.0118, -0.2755 0.253 0.0118, -0.2756 0.252 0.0118, -0.2756 -0.252 0.0118, -0.2755 -0.253 0.0118, 0.2755 0.253 0.0118, 0.2727 -0.2558 0.0118, 0.2717 -0.2559 0.0118, -0.2717 -0.2559 0.0118, 0.2736 -0.2554 0.0118, 0.2744 -0.2548 0.0118, 0.2751 -0.2539 0.0118, 0.2755 -0.253 0.0118, 0.2756 -0.252 0.0118, 0.2756 0.252 0.0118
            ]
        }
        coordIndex [
            0,1,2,-1,3,4,5,-1,6,7,8,-1,9,10,11,-1,12,13,14,-1,15,16,17,-1,18,19,20,-1,21,22,23,-1,23,22,24,-1,25,26,23,-1,23,26,27,-1,23,27,28,-1,28,29,23,-1,23,29,30,-1,23,30,21,-1,31,32,33,-1,33,32,34,-1,34,32,35,-1,34,35,36,-1,31,33,37,-1,37,33,38,-1,37,38,39,-1,11,40,38,-1,38,40,41,-1,38,41,42,-1,38,43,39,-1,39,43,44,-1,39,44,45,-1,45,44,46,-1,45,46,47,-1,42,48,38,-1,38,48,49,-1,38,49,43,-1,50,51,52,-1,50,52,53,-1,51,54,52,-1,52,54,55,-1,52,55,10,-1,10,55,56,-1,56,57,10,-1,10,57,58,-1,10,58,11,-1,11,58,59,-1,11,59,40,-1,60,53,61,-1,61,53,52,-1,61,52,62,-1,62,52,8,-1,62,8,63,-1,63,8,64,-1,65,66,8,-1,8,66,67,-1,8,67,64,-1,68,69,70,-1,70,69,71,-1,70,71,65,-1,65,71,72,-1,65,72,66,-1,73,74,75,-1,75,74,76,-1,76,77,75,-1,75,77,78,-1,75,78,68,-1,79,80,81,-1,81,80,82,-1,83,84,73,-1,73,84,85,-1,73,85,86,-1,87,88,80,-1,80,88,89,-1,80,89,90,-1,91,92,93,-1,93,92,94,-1,95,96,97,-1,97,96,98,-1,97,98,99,-1,100,101,102,-1,102,101,103,-1,102,103,104,-1,105,90,106,-1,106,90,107,-1,106,107,102,-1,102,107,108,-1,102,108,100,-1,109,110,111,-1,111,110,112,-1,111,112,97,-1,97,112,113,-1,97,113,95,-1,99,114,97,-1,97,114,115,-1,97,115,73,-1,73,115,116,-1,73,116,83,-1,117,118,119,-1,119,118,120,-1,119,120,93,-1,93,120,121,-1,93,121,91,-1,105,122,90,-1,90,122,123,-1,90,123,80,-1,80,123,124,-1,80,124,82,-1,86,125,73,-1,73,125,126,-1,73,126,127,-1,127,126,117,-1,127,117,128,-1,128,117,119,-1,94,129,93,-1,93,129,130,-1,93,130,131,-1,132,133,93,-1,93,133,134,-1,93,134,80,-1,80,134,135,-1,80,135,87,-1,131,136,93,-1,93,136,137,-1,93,137,138,-1,138,139,93,-1,93,139,140,-1,93,140,132,-1,141,142,143,-1,143,142,144,-1,143,144,145,-1,145,90,143,-1,143,90,89,-1,143,89,146,-1,146,89,147,-1,147,148,146,-1,146,148,149,-1,146,149,150,-1,151,142,152,-1,152,142,141,-1,152,141,153,-1,154,155,156,-1,156,155,157,-1,155,158,141,-1,141,158,159,-1,141,159,160,-1,151,161,142,-1,142,161,162,-1,142,162,163,-1,154,164,155,-1,155,164,165,-1,155,165,158,-1,160,166,141,-1,141,166,167,-1,141,167,153,-1,168,169,163,-1,163,169,170,-1,163,170,142,-1,22,171,24,-1,24,171,172,-1,24,172,111,-1,111,172,173,-1,111,173,109,-1,18,2,174,-1,174,2,1,-1,174,1,175,-1,175,1,176,-1,175,176,177,-1,178,179,180,-1,18,20,2,-1,2,20,181,-1,2,181,178,-1,180,179,182,-1,182,179,183,-1,182,183,177,-1,177,183,184,-1,177,184,175,-1,185,186,187,-1,187,186,188,-1,189,190,191,-1,191,190,192,-1,191,193,189,-1,189,193,194,-1,189,194,195,-1,195,194,196,-1,195,196,197,-1,185,187,198,-1,198,187,194,-1,198,194,199,-1,199,194,193,-1,199,193,200,-1,193,201,200,-1,200,201,202,-1,200,202,203,-1,192,190,204,-1,204,190,205,-1,204,205,206,-1,207,205,208,-1,208,205,209,-1,196,210,197,-1,197,210,206,-1,197,206,17,-1,17,206,205,-1,17,205,211,-1,211,205,207,-1,15,17,212,-1,213,214,211,-1,211,214,215,-1,211,215,17,-1,17,215,216,-1,17,216,212,-1,217,218,211,-1,211,218,219,-1,211,219,220,-1,220,221,211,-1,211,221,222,-1,211,222,213,-1,223,224,225,-1,225,224,226,-1,225,226,227,-1,223,228,224,-1,224,228,229,-1,224,229,230,-1,230,229,231,-1,230,231,232,-1,227,233,225,-1,225,233,234,-1,225,234,211,-1,211,234,235,-1,211,235,217,-1,236,237,238,-1,238,237,239,-1,238,239,209,-1,14,240,241,-1,241,242,14,-1,14,242,243,-1,14,243,12,-1,244,245,246,-1,246,245,247,-1,247,248,249,-1,249,248,250,-1,249,250,14,-1,14,250,251,-1,14,251,240,-1,252,253,254,-1,254,253,255,-1,254,255,256,-1,256,257,254,-1,254,257,258,-1,254,258,259,-1,260,261,252,-1,252,261,262,-1,252,262,253,-1,9,263,10,-1,10,263,264,-1,10,264,52,-1,52,264,265,-1,52,265,266,-1,267,268,38,-1,38,268,269,-1,38,269,11,-1,11,269,270,-1,11,270,9,-1,271,272,273,-1,273,274,271,-1,271,274,275,-1,271,275,33,-1,33,275,276,-1,276,277,33,-1,33,277,278,-1,33,278,38,-1,38,278,279,-1,38,279,267,-1,280,281,272,-1,272,281,282,-1,272,282,273,-1,280,272,283,-1,283,272,284,-1,283,284,285,-1,285,284,286,-1,285,286,287,-1,288,289,290,-1,290,289,291,-1,290,291,286,-1,286,291,292,-1,286,292,287,-1,293,294,290,-1,290,294,295,-1,290,295,288,-1,8,7,65,-1,65,7,296,-1,65,296,297,-1,296,298,297,-1,297,298,299,-1,297,299,293,-1,293,299,300,-1,293,300,294,-1,266,301,52,-1,52,301,302,-1,52,302,8,-1,8,302,303,-1,8,303,6,-1,304,305,180,-1,306,307,182,-1,182,307,308,-1,309,310,311,-1,311,310,180,-1,311,180,312,-1,312,180,305,-1,308,313,182,-1,182,313,314,-1,182,314,315,-1,315,316,182,-1,182,316,317,-1,182,317,180,-1,180,317,318,-1,180,318,304,-1,189,319,306,-1,306,319,320,-1,306,320,307,-1,309,321,310,-1,310,321,322,-1,310,322,195,-1,195,322,323,-1,195,323,189,-1,189,323,324,-1,189,324,319,-1,325,326,327,-1,327,326,328,-1,329,330,331,-1,331,330,332,-1,333,252,334,-1,334,252,335,-1,336,337,329,-1,329,337,338,-1,339,340,341,-1,341,340,342,-1,325,343,326,-1,326,343,344,-1,326,344,345,-1,345,344,346,-1,345,346,347,-1,338,348,329,-1,329,348,349,-1,329,349,330,-1,342,350,341,-1,341,350,351,-1,341,351,352,-1,353,354,346,-1,346,354,355,-1,333,356,252,-1,252,356,357,-1,252,357,358,-1,355,359,346,-1,346,359,360,-1,346,360,361,-1,361,362,346,-1,346,362,363,-1,346,363,347,-1,352,364,341,-1,341,364,365,-1,341,365,252,-1,252,365,328,-1,252,328,335,-1,335,328,326,-1,366,367,368,-1,368,367,369,-1,368,369,370,-1,260,252,371,-1,371,252,358,-1,371,358,366,-1,366,358,372,-1,366,372,367,-1,373,374,375,-1,375,374,376,-1,375,376,377,-1,378,379,380,-1,380,379,381,-1,380,381,370,-1,370,381,382,-1,370,382,368,-1,383,384,385,-1,385,384,386,-1,373,378,374,-1,374,378,380,-1,374,380,387,-1,387,380,331,-1,387,331,388,-1,388,331,332,-1,388,332,389,-1,389,332,390,-1,391,390,392,-1,392,390,332,-1,392,332,385,-1,385,332,330,-1,385,330,383,-1,393,394,5,-1,395,396,5,-1,5,396,397,-1,371,398,260,-1,260,398,399,-1,260,399,400,-1,401,402,394,-1,394,402,403,-1,394,403,5,-1,5,403,404,-1,5,404,395,-1,400,405,260,-1,260,405,406,-1,260,406,407,-1,407,406,408,-1,407,408,393,-1,397,409,5,-1,5,409,410,-1,5,410,3,-1,411,412,413,-1,413,412,414,-1,413,414,415,-1,413,416,411,-1,411,416,417,-1,411,417,418,-1,418,419,411,-1,411,419,420,-1,411,420,421,-1,421,420,422,-1,421,422,423,-1,423,422,424,-1,423,424,394,-1,394,424,425,-1,394,425,401,-1,426,427,415,-1,415,427,428,-1,415,428,413,-1,429,430,377,-1,377,430,431,-1,377,431,375,-1,429,432,430,-1,430,432,433,-1,430,433,434,-1,434,433,435,-1,434,436,437,-1,435,438,434,-1,434,438,439,-1,434,439,440,-1,440,441,434,-1,434,441,442,-1,434,442,436,-1,437,443,434,-1,434,443,444,-1,434,444,445,-1,446,447,448,-1,449,450,451,-1,448,452,446,-1,446,452,453,-1,446,453,454,-1,454,453,449,-1,454,449,455,-1,455,449,451,-1,456,457,5,-1,5,457,458,-1,393,5,407,-1,407,5,458,-1,407,458,452,-1,452,458,459,-1,452,459,453,-1,460,457,461,-1,461,457,456,-1,461,456,462,-1,463,464,465,-1,466,467,5,-1,391,392,4,-1,4,392,463,-1,4,463,5,-1,5,463,465,-1,5,465,466,-1,467,468,5,-1,5,468,469,-1,5,469,470,-1,470,471,5,-1,5,471,472,-1,5,472,456,-1,456,472,473,-1,456,473,462,-1,474,475,476,-1,476,475,477,-1,476,477,463,-1,463,477,478,-1,463,478,464,-1,479,480,481,-1,479,481,482,-1,480,483,481,-1,481,483,484,-1,481,484,476,-1,476,484,485,-1,476,485,474,-1,486,487,488,-1,488,487,489,-1,490,491,492,-1,492,491,493,-1,492,493,494,-1,494,493,495,-1,494,495,496,-1,486,488,497,-1,497,488,493,-1,497,493,498,-1,498,493,491,-1,498,491,499,-1,491,500,499,-1,499,500,501,-1,499,501,502,-1,495,503,496,-1,496,503,504,-1,496,504,505,-1,505,504,506,-1,490,492,507,-1,507,492,508,-1,507,508,506,-1,506,508,448,-1,506,448,505,-1,505,448,447,-1,505,447,482,-1,209,205,238,-1,238,205,190,-1,238,190,509,-1,509,190,189,-1,509,189,510,-1,510,189,306,-1,510,306,511,-1,511,306,182,-1,511,182,512,-1,512,182,177,-1,512,177,513,-1,513,177,176,-1,513,176,514,-1,34,249,515,-1,515,249,14,-1,515,14,236,-1,236,14,13,-1,236,13,237,-1,247,249,246,-1,246,249,516,-1,246,516,517,-1,24,518,23,-1,23,518,519,-1,23,519,520,-1,521,516,520,-1,520,516,249,-1,520,249,23,-1,23,249,34,-1,23,34,25,-1,25,34,36,-1,492,180,508,-1,508,180,310,-1,508,310,448,-1,448,310,195,-1,448,195,452,-1,452,195,197,-1,452,197,407,-1,407,197,17,-1,407,17,260,-1,260,17,16,-1,260,16,261,-1,517,518,246,-1,246,518,24,-1,246,24,522,-1,522,24,111,-1,523,524,494,-1,494,525,523,-1,523,525,526,-1,523,526,527,-1,527,526,528,-1,0,529,525,-1,525,529,530,-1,525,530,526,-1,531,524,532,-1,532,524,533,-1,532,533,534,-1,534,533,535,-1,531,536,524,-1,524,536,537,-1,524,537,538,-1,539,492,540,-1,540,492,494,-1,540,494,541,-1,541,494,524,-1,541,524,542,-1,542,524,538,-1,178,180,2,-1,2,180,492,-1,2,492,0,-1,0,492,533,-1,0,533,529,-1,543,544,533,-1,533,544,545,-1,533,545,535,-1,539,546,492,-1,492,546,547,-1,492,547,533,-1,533,547,548,-1,533,548,543,-1,259,244,254,-1,254,244,246,-1,254,246,252,-1,252,246,522,-1,252,522,341,-1,341,522,549,-1,97,549,550,-1,550,549,551,-1,551,549,552,-1,552,549,522,-1,552,522,553,-1,97,550,111,-1,111,550,554,-1,111,554,522,-1,522,554,555,-1,522,555,553,-1,556,557,558,-1,558,557,552,-1,558,552,559,-1,559,552,553,-1,559,553,560,-1,560,553,561,-1,482,481,505,-1,505,481,562,-1,505,562,496,-1,496,562,563,-1,496,563,494,-1,494,563,564,-1,494,564,525,-1,73,75,97,-1,97,75,565,-1,97,565,549,-1,549,565,385,-1,549,385,341,-1,341,385,386,-1,341,386,339,-1,68,70,75,-1,75,70,566,-1,75,566,565,-1,565,566,567,-1,565,567,385,-1,385,567,568,-1,385,568,392,-1,392,568,569,-1,392,569,463,-1,463,569,570,-1,463,570,476,-1,476,570,571,-1,476,571,481,-1,481,571,572,-1,481,572,562,-1,562,572,573,-1,562,573,563,-1,563,573,574,-1,563,574,564,-1,575,576,577,-1,577,576,578,-1,579,580,581,-1,581,580,514,-1,581,514,575,-1,575,514,574,-1,575,574,576,-1,579,577,580,-1,580,577,578,-1,580,578,582,-1,582,578,583,-1,582,583,574,-1,574,583,584,-1,574,584,576,-1,514,580,585,-1,585,586,514,-1,514,586,587,-1,514,587,271,-1,588,589,590,-1,591,592,271,-1,590,591,588,-1,588,591,271,-1,588,271,593,-1,593,271,587,-1,593,587,594,-1,594,587,595,-1,596,597,598,-1,598,597,271,-1,598,271,599,-1,599,271,592,-1,599,592,600,-1,600,592,601,-1,602,603,604,-1,604,603,605,-1,606,607,608,-1,608,607,297,-1,608,297,605,-1,605,297,271,-1,605,271,604,-1,606,603,607,-1,607,603,602,-1,607,602,597,-1,597,602,609,-1,597,609,271,-1,271,609,610,-1,271,610,604,-1,607,611,297,-1,297,611,612,-1,297,612,613,-1,614,615,616,-1,616,615,617,-1,618,619,613,-1,613,619,620,-1,613,620,297,-1,297,620,616,-1,297,616,574,-1,574,616,617,-1,574,617,621,-1,622,582,623,-1,623,582,574,-1,623,574,624,-1,624,574,621,-1,624,621,625,-1,625,621,626,-1,585,580,627,-1,627,580,582,-1,627,582,628,-1,628,582,622,-1,597,596,629,-1,615,614,630,-1,630,614,631,-1,632,633,629,-1,629,633,634,-1,629,634,635,-1,636,629,637,-1,636,638,629,-1,629,638,639,-1,629,639,632,-1,600,601,637,-1,637,601,640,-1,637,640,636,-1,636,640,641,-1,619,618,642,-1,642,618,643,-1,590,589,644,-1,644,589,645,-1,640,644,641,-1,641,644,645,-1,641,645,646,-1,646,645,647,-1,646,647,648,-1,611,607,649,-1,649,607,597,-1,625,626,650,-1,650,626,651,-1,650,651,652,-1,652,651,630,-1,652,630,653,-1,653,630,631,-1,653,631,654,-1,654,631,642,-1,654,642,655,-1,655,642,643,-1,655,643,649,-1,594,595,656,-1,635,657,629,-1,629,657,658,-1,629,658,597,-1,597,658,659,-1,597,659,649,-1,649,659,660,-1,649,660,655,-1,627,661,656,-1,656,661,648,-1,656,648,594,-1,594,648,647,-1,662,628,663,-1,663,628,650,-1,663,650,664,-1,664,650,652,-1,662,665,628,-1,628,665,666,-1,628,666,667,-1,667,668,628,-1,628,668,669,-1,628,669,627,-1,627,669,670,-1,627,670,661,-1,
        ]
    }
}
Shape{
    appearance Appearance {
        material  Material {
            diffuseColor 0.7529411764705882 0.7529411764705882 0.7529411764705882
            specularColor 0.3764705882352941 0.3764705882352941 0.3764705882352941
            ambientIntensity 0.7529
            transparency 0.0
            shininess 0.5
        }
    }
    geometry IndexedFaceSet {
        ccw TRUE
        solid FALSE
        coord DEF co Coordinate {
            point [
                -0.2221 -0.4963 0.1772, -0.2201 -0.4807 0.1811, -0.2201 -0.4807 0.1772, -0.2202 -0.4773 0.1811, -0.2202 -0.4773 0.1772, -0.2228 -0.4624 0.1811, -0.2228 -0.4624 0.1772, -0.2292 -0.4478 0.1811, -0.2292 -0.4478 0.1772, -0.2389 -0.4354 0.1811, -0.2389 -0.4354 0.1772, -0.2493 -0.427 0.1811, -0.2493 -0.427 0.1772, -0.2635 -0.4201 0.1811, -0.2635 -0.4201 0.1772, -0.2791 -0.4169 0.1811, -0.2791 -0.4169 0.1772, -0.2949 -0.4176 0.1811, -0.2949 -0.4176 0.1772, -0.3101 -0.4222 0.1811, -0.3101 -0.4222 0.1772, -0.3236 -0.4303 0.1811, -0.3236 -0.4303 0.1772, -0.3312 -0.4373 0.1811, -0.3312 -0.4373 0.1772, -0.3404 -0.4502 0.1811, -0.3404 -0.4502 0.1772, -0.3462 -0.4649 0.1811, -0.3462 -0.4649 0.1772, -0.3482 -0.4807 0.1811, -0.3482 -0.4807 0.1772, -0.3463 -0.4963 0.1811, -0.3463 -0.4963 0.1772, -0.3405 -0.5111 0.1811, -0.3405 -0.5111 0.1772, -0.3314 -0.524 0.1811, -0.3314 -0.524 0.1772, -0.3194 -0.5342 0.1811, -0.3194 -0.5342 0.1772, -0.3053 -0.5412 0.1811, -0.3053 -0.5412 0.1772, -0.2897 -0.5445 0.1811, -0.2897 -0.5445 0.1772, -0.2738 -0.5439 0.1811, -0.2738 -0.5439 0.1772, -0.2586 -0.5394 0.1811, -0.2586 -0.5394 0.1772, -0.2451 -0.5314 0.1811, -0.2451 -0.5314 0.1772, -0.237 -0.524 0.1811, -0.237 -0.524 0.1772, -0.2278 -0.5111 0.1811, -0.2278 -0.5111 0.1772, -0.2221 -0.4963 0.1811, -0.1476 -0.5945 0.0618, -0.0492 -0.5945 0.0618, -0.1476 -0.5906 0.0618, -0.0492 -0.5906 0.0618, -0.0492 -0.5906 0.0118, -0.0492 -0.5945 0.0, -0.0492 -0.4724 0.0118, -0.0492 -0.4724 0.0, -0.1476 -0.4724 0.0, -0.1476 -0.4724 0.0118, -0.1476 -0.5906 0.0118, -0.1476 -0.5945 0.0, -0.3445 -0.5906 0.0618, -0.3445 -0.5945 0.0618, -0.2461 -0.5906 0.0618, -0.2461 -0.5945 0.0618, -0.2461 -0.5906 0.0118, -0.2461 -0.5945 0.0, -0.2461 -0.4724 0.0118, -0.2461 -0.4724 0.0, -0.3445 -0.4724 0.0, -0.3445 -0.4724 0.0118, -0.3445 -0.5906 0.0118, -0.3445 -0.5945 0.0, 0.0492 -0.5906 0.0618, 0.0492 -0.5945 0.0618, 0.1476 -0.5906 0.0618, 0.1476 -0.5945 0.0618, 0.1476 -0.5906 0.0118, 0.1476 -0.5945 0.0, 0.1476 -0.4724 0.0118, 0.1476 -0.4724 0.0, 0.0492 -0.4724 0.0, 0.0492 -0.4724 0.0118, 0.0492 -0.5906 0.0118, 0.0492 -0.5945 0.0, 0.2461 -0.5906 0.0618, 0.2461 -0.5945 0.0618, 0.3445 -0.5906 0.0618, 0.3445 -0.5945 0.0618, 0.3445 -0.5906 0.0118, 0.3445 -0.5945 0.0, 0.3445 -0.4724 0.0118, 0.3445 -0.4724 0.0, 0.2461 -0.4724 0.0, 0.2461 -0.4724 0.0118, 0.2461 -0.5906 0.0118, 0.2461 -0.5945 0.0, -0.2461 0.5906 0.0618, -0.2461 0.5945 0.0618, -0.3445 0.5906 0.0618, -0.3445 0.5945 0.0618, -0.3445 0.5906 0.0118, -0.3445 0.5945 0.0, -0.3445 0.4724 0.0118, -0.3445 0.4724 0.0, -0.2461 0.4724 0.0, -0.2461 0.4724 0.0118, -0.2461 0.5906 0.0118, -0.2461 0.5945 0.0, -0.0492 0.5906 0.0618, -0.0492 0.5945 0.0618, -0.1476 0.5906 0.0618, -0.1476 0.5945 0.0618, -0.1476 0.5906 0.0118, -0.1476 0.5945 0.0, -0.1476 0.4724 0.0118, -0.1476 0.4724 0.0, -0.0492 0.4724 0.0, -0.0492 0.4724 0.0118, -0.0492 0.5906 0.0118, -0.0492 0.5945 0.0, 0.1476 0.5906 0.0618, 0.1476 0.5945 0.0618, 0.0492 0.5906 0.0618, 0.0492 0.5945 0.0618, 0.0492 0.4724 0.0, 0.1476 0.4724 0.0, 0.0492 0.4724 0.0118, 0.1476 0.4724 0.0118, 0.1476 0.5906 0.0118, 0.1476 0.5945 0.0, 0.0492 0.5906 0.0118, 0.0492 0.5945 0.0, 0.3445 0.5906 0.0618, 0.3445 0.5945 0.0618, 0.2461 0.5906 0.0618, 0.2461 0.5945 0.0618, 0.2461 0.4724 0.0, 0.3445 0.4724 0.0, 0.2461 0.4724 0.0118, 0.3445 0.4724 0.0118, 0.3445 0.5906 0.0118, 0.3445 0.5945 0.0, 0.2461 0.5906 0.0118, 0.2461 0.5945 0.0, -0.2717 0.2559 0.0118, -0.2717 0.2559 0.0, -0.2727 0.2558 0.0, -0.2727 0.2558 0.0118, -0.2736 0.2554 0.0, -0.2736 0.2554 0.0118, -0.2744 0.2548 0.0, -0.2744 0.2548 0.0118, -0.2751 0.2539 0.0, -0.2751 0.2539 0.0118, -0.2755 0.253 0.0, -0.2755 0.253 0.0118, -0.2756 0.252 0.0, -0.2756 0.252 0.0118, -0.2756 -0.252 0.0, -0.2756 -0.252 0.0118, -0.2755 -0.253 0.0, -0.2755 -0.253 0.0118, -0.2751 -0.2539 0.0, -0.2751 -0.2539 0.0118, -0.2744 -0.2548 0.0, -0.2744 -0.2548 0.0118, -0.2736 -0.2554 0.0, -0.2736 -0.2554 0.0118, -0.2727 -0.2558 0.0, -0.2727 -0.2558 0.0118, -0.2717 -0.2559 0.0, -0.2717 -0.2559 0.0118, 0.2717 -0.2559 0.0, 0.2717 -0.2559 0.0118, 0.2727 -0.2558 0.0, 0.2727 -0.2558 0.0118, 0.2736 -0.2554 0.0, 0.2736 -0.2554 0.0118, 0.2744 -0.2548 0.0, 0.2744 -0.2548 0.0118, 0.2751 -0.2539 0.0, 0.2751 -0.2539 0.0118, 0.2755 -0.253 0.0, 0.2755 -0.253 0.0118, 0.2756 -0.252 0.0, 0.2756 -0.252 0.0118, 0.2756 0.252 0.0, 0.2756 0.252 0.0118, 0.2755 0.253 0.0, 0.2755 0.253 0.0118, 0.2751 0.2539 0.0, 0.2751 0.2539 0.0118, 0.2744 0.2548 0.0, 0.2744 0.2548 0.0118, 0.2736 0.2554 0.0, 0.2736 0.2554 0.0118, 0.2727 0.2558 0.0, 0.2727 0.2558 0.0118, 0.2717 0.2559 0.0, 0.2717 0.2559 0.0118, 0.3976 0.4884 0.0541, 0.3976 0.4495 0.0541, 0.3937 0.4884 0.0541, 0.3937 0.4495 0.0541, 0.3976 0.4884 0.0735, 0.3937 0.4884 0.0735, 0.3976 0.4495 0.0735, 0.3937 0.4495 0.0735, 0.3976 -0.4884 0.0735, 0.3976 -0.4495 0.0735, 0.3937 -0.4884 0.0735, 0.3937 -0.4495 0.0735, 0.3976 -0.4884 0.0541, 0.3937 -0.4884 0.0541, 0.3976 -0.4495 0.0541, 0.3937 -0.4495 0.0541, -0.3976 0.4495 0.0541, -0.3976 0.4884 0.0541, -0.3937 0.4495 0.0541, -0.3937 0.4884 0.0541, -0.3976 0.4495 0.0735, -0.3937 0.4495 0.0735, -0.3976 0.4884 0.0735, -0.3937 0.4884 0.0735, -0.3976 -0.4495 0.0735, -0.3976 -0.4884 0.0735, -0.3937 -0.4495 0.0735, -0.3937 -0.4884 0.0735, -0.3976 -0.4495 0.0541, -0.3937 -0.4495 0.0541, -0.3976 -0.4884 0.0541, -0.3937 -0.4884 0.0541
            ]
        }
        coordIndex [
            0,1,2,-1,2,1,3,-1,2,3,4,-1,4,3,5,-1,4,5,6,-1,6,5,7,-1,6,7,8,-1,8,7,9,-1,8,9,10,-1,10,9,11,-1,10,11,12,-1,12,11,13,-1,12,13,14,-1,14,13,15,-1,14,15,16,-1,16,15,17,-1,16,17,18,-1,18,17,19,-1,18,19,20,-1,20,19,21,-1,20,21,22,-1,22,21,23,-1,22,23,24,-1,24,23,25,-1,24,25,26,-1,26,25,27,-1,26,27,28,-1,28,27,29,-1,28,29,30,-1,30,29,31,-1,30,31,32,-1,32,31,33,-1,32,33,34,-1,34,33,35,-1,34,35,36,-1,36,35,37,-1,36,37,38,-1,38,37,39,-1,38,39,40,-1,40,39,41,-1,40,41,42,-1,42,41,43,-1,42,43,44,-1,44,43,45,-1,44,45,46,-1,46,45,47,-1,46,47,48,-1,48,47,49,-1,48,49,50,-1,50,49,51,-1,50,51,52,-1,52,51,53,-1,52,53,0,-1,0,53,1,-1,48,50,32,-1,28,4,26,-1,26,4,24,-1,28,30,4,-1,4,30,32,-1,4,32,2,-1,50,52,32,-1,32,52,0,-1,32,0,2,-1,24,4,22,-1,22,4,6,-1,22,6,8,-1,16,18,20,-1,32,34,48,-1,48,34,36,-1,48,36,46,-1,46,36,38,-1,8,10,22,-1,22,10,12,-1,22,12,20,-1,20,12,14,-1,20,14,16,-1,38,40,46,-1,46,40,42,-1,46,42,44,-1,54,55,56,-1,56,55,57,-1,57,55,58,-1,58,55,59,-1,58,59,60,-1,60,59,61,-1,61,62,60,-1,60,62,63,-1,63,62,64,-1,64,62,65,-1,64,65,56,-1,56,65,54,-1,59,55,65,-1,65,55,54,-1,65,62,59,-1,59,62,61,-1,66,67,68,-1,68,67,69,-1,68,69,70,-1,70,69,71,-1,70,71,72,-1,72,71,73,-1,73,74,72,-1,72,74,75,-1,75,74,76,-1,76,74,77,-1,76,77,66,-1,66,77,67,-1,71,69,77,-1,77,69,67,-1,74,73,77,-1,77,73,71,-1,78,79,80,-1,80,79,81,-1,80,81,82,-1,82,81,83,-1,82,83,84,-1,84,83,85,-1,85,86,84,-1,84,86,87,-1,87,86,88,-1,88,86,89,-1,88,89,78,-1,78,89,79,-1,83,81,89,-1,89,81,79,-1,89,86,83,-1,83,86,85,-1,90,91,92,-1,92,91,93,-1,92,93,94,-1,94,93,95,-1,94,95,96,-1,96,95,97,-1,97,98,96,-1,96,98,99,-1,99,98,100,-1,100,98,101,-1,100,101,90,-1,90,101,91,-1,95,93,101,-1,101,93,91,-1,101,98,95,-1,95,98,97,-1,102,103,104,-1,104,103,105,-1,104,105,106,-1,106,105,107,-1,106,107,108,-1,108,107,109,-1,109,110,108,-1,108,110,111,-1,111,110,112,-1,112,110,113,-1,112,113,102,-1,102,113,103,-1,107,105,113,-1,113,105,103,-1,113,110,107,-1,107,110,109,-1,114,115,116,-1,116,115,117,-1,116,117,118,-1,118,117,119,-1,118,119,120,-1,120,119,121,-1,121,122,120,-1,120,122,123,-1,123,122,124,-1,124,122,125,-1,124,125,114,-1,114,125,115,-1,119,117,125,-1,125,117,115,-1,125,122,119,-1,119,122,121,-1,126,127,128,-1,128,127,129,-1,130,131,132,-1,132,131,133,-1,133,131,134,-1,134,131,135,-1,134,135,126,-1,126,135,127,-1,128,129,136,-1,136,129,137,-1,136,137,132,-1,132,137,130,-1,137,129,135,-1,135,129,127,-1,137,135,130,-1,130,135,131,-1,138,139,140,-1,140,139,141,-1,142,143,144,-1,144,143,145,-1,145,143,146,-1,146,143,147,-1,146,147,138,-1,138,147,139,-1,140,141,148,-1,148,141,149,-1,148,149,144,-1,144,149,142,-1,149,141,147,-1,147,141,139,-1,149,147,142,-1,142,147,143,-1,150,151,152,-1,150,152,153,-1,153,152,154,-1,153,154,155,-1,155,154,156,-1,155,156,157,-1,157,156,158,-1,157,158,159,-1,159,158,160,-1,159,160,161,-1,161,160,162,-1,161,162,163,-1,162,164,163,-1,163,164,165,-1,165,164,166,-1,165,166,167,-1,167,166,168,-1,167,168,169,-1,169,168,170,-1,169,170,171,-1,171,170,172,-1,171,172,173,-1,173,172,174,-1,173,174,175,-1,175,174,176,-1,175,176,177,-1,176,178,177,-1,177,178,179,-1,179,178,180,-1,179,180,181,-1,181,180,182,-1,181,182,183,-1,183,182,184,-1,183,184,185,-1,185,184,186,-1,185,186,187,-1,187,186,188,-1,187,188,189,-1,189,188,190,-1,189,190,191,-1,190,192,191,-1,191,192,193,-1,193,192,194,-1,193,194,195,-1,195,194,196,-1,195,196,197,-1,197,196,198,-1,197,198,199,-1,199,198,200,-1,199,200,201,-1,201,200,202,-1,201,202,203,-1,203,202,204,-1,203,204,205,-1,204,151,205,-1,205,151,150,-1,192,190,204,-1,192,204,194,-1,190,188,186,-1,178,176,164,-1,202,200,198,-1,186,184,190,-1,190,184,182,-1,190,182,180,-1,172,170,168,-1,156,154,152,-1,202,198,204,-1,204,198,196,-1,204,196,194,-1,176,174,164,-1,164,174,172,-1,164,172,166,-1,166,172,168,-1,180,178,190,-1,190,178,164,-1,190,164,204,-1,204,164,162,-1,204,162,151,-1,151,162,160,-1,151,160,152,-1,152,160,158,-1,152,158,156,-1,206,207,208,-1,208,207,209,-1,210,206,211,-1,211,206,208,-1,212,210,213,-1,213,210,211,-1,207,212,209,-1,209,212,213,-1,210,212,206,-1,206,212,207,-1,214,215,216,-1,216,215,217,-1,218,214,219,-1,219,214,216,-1,220,218,221,-1,221,218,219,-1,215,220,217,-1,217,220,221,-1,218,220,214,-1,214,220,215,-1,222,223,224,-1,224,223,225,-1,226,222,227,-1,227,222,224,-1,228,226,229,-1,229,226,227,-1,223,228,225,-1,225,228,229,-1,226,228,222,-1,222,228,223,-1,230,231,232,-1,232,231,233,-1,234,230,235,-1,235,230,232,-1,236,234,237,-1,237,234,235,-1,231,236,233,-1,233,236,237,-1,234,236,230,-1,230,236,231,-1,
        ]
    }
}
Shape{
    appearance Appearance {
        material  Material {
            diffuseColor 1.0 1.0 1.0
            specularColor 0.5019607843137255 0.5019607843137255 0.5019607843137255
            ambientIntensity 1.0
            transparency 0.0
            shininess 0.5
        }
    }
    geometry IndexedFaceSet {
        ccw TRUE
        solid FALSE
        coord DEF co Coordinate {
            point [
                0.1852 -0.4614 0.185, 0.1852 -0.4656 0.185, 0.1852 -0.4614 0.1811, 0.1852 -0.4656 0.1811, 0.1704 -0.4614 0.185, 0.1704 -0.4614 0.1811, 0.1704 -0.4286 0.185, 0.1704 -0.4286 0.1811, 0.1657 -0.4286 0.185, 0.1657 -0.4286 0.1811, 0.1657 -0.4656 0.185, 0.1657 -0.4656 0.1811, 0.2042 -0.4663 0.185, 0.2042 -0.4663 0.1811, 0.2099 -0.4657 0.185, 0.2075 -0.4659 0.1811, 0.2099 -0.4657 0.1811, 0.2138 -0.4644 0.1811, 0.2138 -0.4644 0.185, 0.2145 -0.4641 0.1811, 0.2145 -0.4641 0.185, 0.2145 -0.4595 0.185, 0.2145 -0.4595 0.1811, 0.2108 -0.4611 0.1811, 0.2108 -0.4611 0.185, 0.2067 -0.4619 0.1811, 0.2067 -0.4619 0.185, 0.2049 -0.462 0.1811, 0.2049 -0.462 0.185, 0.2011 -0.4615 0.1811, 0.2011 -0.4615 0.185, 0.1985 -0.4605 0.1811, 0.1985 -0.4605 0.185, 0.1961 -0.4588 0.1811, 0.1961 -0.4588 0.185, 0.1954 -0.4581 0.1811, 0.1954 -0.4581 0.185, 0.1936 -0.4556 0.1811, 0.1936 -0.4556 0.185, 0.1924 -0.4526 0.1811, 0.1924 -0.4526 0.185, 0.1918 -0.4489 0.1811, 0.1918 -0.4489 0.185, 0.1917 -0.4475 0.1811, 0.1917 -0.4475 0.185, 0.1922 -0.4428 0.1811, 0.1922 -0.4428 0.185, 0.1934 -0.4395 0.1811, 0.1934 -0.4395 0.185, 0.1952 -0.4369 0.1811, 0.1952 -0.4369 0.185, 0.1956 -0.4364 0.1811, 0.1956 -0.4364 0.185, 0.1982 -0.4343 0.1811, 0.1982 -0.4343 0.185, 0.2011 -0.4329 0.1811, 0.2011 -0.4329 0.185, 0.2043 -0.4323 0.1811, 0.2043 -0.4323 0.185, 0.2057 -0.4323 0.1811, 0.2057 -0.4323 0.185, 0.2103 -0.4328 0.1811, 0.2103 -0.4328 0.185, 0.2141 -0.4342 0.1811, 0.2141 -0.4342 0.185, 0.2145 -0.4345 0.1811, 0.2145 -0.4345 0.185, 0.2145 -0.4295 0.185, 0.2145 -0.4295 0.1811, 0.2057 -0.4279 0.1811, 0.2057 -0.4279 0.185, 0.2058 -0.4279 0.185, 0.2106 -0.4283 0.1811, 0.2106 -0.4283 0.185, 0.2096 -0.4283 0.1811, 0.2058 -0.4279 0.1811, 0.2031 -0.4283 0.1811, 0.2003 -0.4286 0.185, 0.2003 -0.4286 0.1811, 0.1964 -0.4301 0.1811, 0.1964 -0.4301 0.185, 0.1929 -0.4326 0.1811, 0.1929 -0.4326 0.185, 0.1921 -0.4334 0.1811, 0.1921 -0.4334 0.185, 0.1894 -0.4369 0.1811, 0.1894 -0.4369 0.185, 0.1884 -0.4393 0.1811, 0.1876 -0.441 0.185, 0.1876 -0.441 0.1811, 0.1868 -0.4459 0.1811, 0.1868 -0.4459 0.185, 0.1867 -0.4478 0.1811, 0.1867 -0.4478 0.185, 0.1873 -0.4533 0.1811, 0.1873 -0.4533 0.185, 0.1884 -0.4563 0.1811, 0.1888 -0.4573 0.185, 0.1888 -0.4573 0.1811, 0.1909 -0.4605 0.1811, 0.1909 -0.4605 0.185, 0.1915 -0.4612 0.1811, 0.1915 -0.4612 0.185, 0.202 -0.4662 0.185, 0.1945 -0.4637 0.1811, 0.1945 -0.4637 0.185, 0.198 -0.4653 0.1811, 0.198 -0.4653 0.185, 0.201 -0.4659 0.1811, 0.202 -0.4662 0.1811, 0.2418 -0.4614 0.185, 0.2418 -0.4656 0.185, 0.2418 -0.4614 0.1811, 0.2418 -0.4656 0.1811, 0.2267 -0.4614 0.1811, 0.2267 -0.4614 0.185, 0.2367 -0.4614 0.1811, 0.2267 -0.4489 0.185, 0.2267 -0.4489 0.1811, 0.2399 -0.4489 0.185, 0.2367 -0.4489 0.1811, 0.2399 -0.4489 0.1811, 0.2399 -0.4447 0.185, 0.2399 -0.4447 0.1811, 0.2267 -0.4447 0.1811, 0.2267 -0.4447 0.185, 0.2367 -0.4447 0.1811, 0.2267 -0.4328 0.185, 0.2267 -0.4328 0.1811, 0.241 -0.4328 0.185, 0.2367 -0.4328 0.1811, 0.241 -0.4328 0.1811, 0.241 -0.4286 0.185, 0.241 -0.4286 0.1811, 0.2219 -0.4286 0.1811, 0.2219 -0.4286 0.185, 0.2367 -0.4286 0.1811, 0.2219 -0.4656 0.185, 0.2219 -0.4656 0.1811, 0.2367 -0.4656 0.1811, 0.2719 -0.4553 0.185, 0.27 -0.4575 0.185, 0.2734 -0.4604 0.185, 0.2693 -0.4582 0.185, 0.2696 -0.4632 0.185, 0.2669 -0.4598 0.185, 0.2654 -0.4648 0.185, 0.2637 -0.4609 0.185, 0.259 -0.4656 0.185, 0.259 -0.4614 0.185, 0.2488 -0.4656 0.185, 0.2536 -0.4614 0.185, 0.2488 -0.4286 0.185, 0.2536 -0.4328 0.185, 0.2594 -0.4286 0.185, 0.2592 -0.4328 0.185, 0.2651 -0.4292 0.185, 0.264 -0.4334 0.185, 0.2695 -0.4308 0.185, 0.2672 -0.4345 0.185, 0.2734 -0.4335 0.185, 0.2699 -0.4363 0.185, 0.2747 -0.4347 0.185, 0.2711 -0.4375 0.185, 0.277 -0.4379 0.185, 0.2725 -0.4397 0.185, 0.2784 -0.4415 0.185, 0.2735 -0.4425 0.185, 0.279 -0.4466 0.185, 0.274 -0.4468 0.185, 0.2789 -0.449 0.185, 0.2739 -0.4491 0.185, 0.278 -0.4533 0.185, 0.2731 -0.4525 0.185, 0.2762 -0.4571 0.185, 0.259 -0.4656 0.1811, 0.2488 -0.4656 0.1811, 0.2734 -0.4604 0.1811, 0.2654 -0.4648 0.1811, 0.2658 -0.4647 0.1811, 0.2696 -0.4632 0.1811, 0.2762 -0.4571 0.1811, 0.278 -0.4533 0.1811, 0.2789 -0.449 0.1811, 0.279 -0.4466 0.1811, 0.2784 -0.4415 0.1811, 0.277 -0.4379 0.1811, 0.2747 -0.4347 0.1811, 0.2734 -0.4335 0.1811, 0.2594 -0.4286 0.1811, 0.2695 -0.4308 0.1811, 0.2658 -0.4295 0.1811, 0.2651 -0.4292 0.1811, 0.2488 -0.4286 0.1811, 0.2592 -0.4328 0.1811, 0.2536 -0.4328 0.1811, 0.2536 -0.4614 0.1811, 0.259 -0.4614 0.1811, 0.27 -0.4575 0.1811, 0.2693 -0.4582 0.1811, 0.2669 -0.4598 0.1811, 0.2637 -0.4609 0.1811, 0.274 -0.4468 0.1811, 0.2739 -0.4491 0.1811, 0.2731 -0.4525 0.1811, 0.2719 -0.4553 0.1811, 0.2699 -0.4363 0.1811, 0.2711 -0.4375 0.1811, 0.2725 -0.4397 0.1811, 0.2735 -0.4425 0.1811, 0.264 -0.4334 0.1811, 0.2672 -0.4345 0.1811
            ]
        }
        coordIndex [
            0,1,2,-1,2,1,3,-1,4,0,5,-1,5,0,2,-1,6,4,7,-1,7,4,5,-1,8,6,9,-1,9,6,7,-1,10,8,11,-1,11,8,9,-1,1,10,3,-1,3,10,11,-1,6,8,4,-1,4,8,10,-1,4,10,0,-1,0,10,1,-1,12,13,14,-1,14,13,15,-1,15,16,14,-1,14,16,17,-1,14,17,18,-1,18,17,19,-1,18,19,20,-1,21,20,22,-1,22,20,19,-1,21,22,23,-1,21,23,24,-1,24,23,25,-1,24,25,26,-1,26,25,27,-1,26,27,28,-1,28,27,29,-1,28,29,30,-1,30,29,31,-1,30,31,32,-1,32,31,33,-1,32,33,34,-1,34,33,35,-1,34,35,36,-1,36,35,37,-1,36,37,38,-1,38,37,39,-1,38,39,40,-1,40,39,41,-1,40,41,42,-1,42,41,43,-1,42,43,44,-1,44,43,45,-1,44,45,46,-1,46,45,47,-1,46,47,48,-1,48,47,49,-1,48,49,50,-1,50,49,51,-1,50,51,52,-1,52,51,53,-1,52,53,54,-1,54,53,55,-1,54,55,56,-1,56,55,57,-1,56,57,58,-1,58,57,59,-1,58,59,60,-1,60,59,61,-1,60,61,62,-1,62,61,63,-1,62,63,64,-1,64,63,65,-1,64,65,66,-1,67,66,68,-1,68,66,65,-1,69,70,71,-1,67,68,72,-1,67,72,73,-1,73,72,74,-1,73,74,71,-1,71,74,75,-1,71,75,69,-1,70,69,76,-1,70,76,77,-1,76,78,77,-1,77,78,79,-1,77,79,80,-1,80,79,81,-1,80,81,82,-1,82,81,83,-1,82,83,84,-1,84,83,85,-1,84,85,86,-1,86,85,87,-1,86,87,88,-1,87,89,88,-1,88,89,90,-1,88,90,91,-1,91,90,92,-1,91,92,93,-1,93,92,94,-1,93,94,95,-1,95,94,96,-1,95,96,97,-1,96,98,97,-1,97,98,99,-1,97,99,100,-1,100,99,101,-1,100,101,102,-1,13,12,103,-1,102,101,104,-1,102,104,105,-1,105,104,106,-1,105,106,107,-1,107,106,108,-1,107,108,103,-1,103,108,109,-1,103,109,13,-1,64,66,67,-1,46,48,86,-1,64,67,62,-1,62,67,73,-1,62,73,60,-1,60,73,71,-1,60,71,58,-1,58,71,70,-1,58,70,56,-1,56,70,77,-1,56,77,54,-1,20,21,18,-1,18,21,24,-1,18,24,14,-1,14,24,26,-1,14,26,12,-1,12,26,28,-1,12,28,103,-1,103,28,30,-1,103,30,107,-1,107,30,32,-1,107,32,105,-1,105,32,34,-1,105,34,102,-1,102,34,36,-1,102,36,100,-1,100,36,38,-1,100,38,97,-1,86,48,84,-1,77,80,54,-1,54,80,82,-1,54,82,52,-1,52,82,84,-1,52,84,50,-1,50,84,48,-1,93,44,91,-1,91,44,46,-1,91,46,88,-1,88,46,86,-1,97,38,95,-1,95,38,40,-1,95,40,93,-1,93,40,42,-1,93,42,44,-1,110,111,112,-1,112,111,113,-1,114,115,116,-1,116,115,110,-1,116,110,112,-1,117,115,118,-1,118,115,114,-1,117,118,119,-1,119,118,120,-1,119,120,121,-1,122,119,123,-1,123,119,121,-1,124,125,126,-1,126,125,122,-1,126,122,123,-1,127,125,128,-1,128,125,124,-1,127,128,129,-1,129,128,130,-1,129,130,131,-1,132,129,133,-1,133,129,131,-1,134,135,136,-1,136,135,132,-1,136,132,133,-1,137,135,138,-1,138,135,134,-1,137,138,111,-1,111,138,139,-1,111,139,113,-1,137,111,110,-1,110,115,137,-1,137,115,117,-1,137,117,135,-1,129,132,127,-1,127,132,135,-1,127,135,125,-1,125,135,117,-1,125,117,122,-1,122,117,119,-1,140,141,142,-1,142,141,143,-1,142,143,144,-1,144,143,145,-1,144,145,146,-1,146,145,147,-1,146,147,148,-1,148,147,149,-1,148,149,150,-1,150,149,151,-1,150,151,152,-1,152,151,153,-1,152,153,154,-1,154,153,155,-1,154,155,156,-1,156,155,157,-1,156,157,158,-1,158,157,159,-1,158,159,160,-1,160,159,161,-1,160,161,162,-1,162,161,163,-1,162,163,164,-1,164,163,165,-1,164,165,166,-1,166,165,167,-1,166,167,168,-1,168,167,169,-1,168,169,170,-1,170,169,171,-1,170,171,172,-1,172,171,173,-1,172,173,174,-1,174,173,140,-1,174,140,142,-1,148,150,175,-1,175,150,176,-1,177,142,144,-1,148,175,178,-1,148,178,146,-1,146,178,179,-1,146,179,144,-1,144,179,180,-1,144,180,177,-1,142,177,181,-1,142,181,174,-1,174,181,182,-1,174,182,172,-1,172,182,183,-1,172,183,170,-1,170,183,184,-1,170,184,168,-1,168,184,185,-1,168,185,166,-1,166,185,186,-1,166,186,164,-1,164,186,187,-1,164,187,162,-1,162,187,188,-1,162,188,160,-1,189,154,156,-1,160,188,190,-1,160,190,158,-1,158,190,191,-1,158,191,156,-1,156,191,192,-1,156,192,189,-1,152,154,193,-1,193,154,189,-1,150,152,176,-1,176,152,193,-1,155,153,194,-1,194,153,195,-1,153,151,195,-1,195,151,196,-1,151,149,196,-1,196,149,197,-1,141,198,199,-1,141,199,143,-1,143,199,200,-1,143,200,145,-1,145,200,201,-1,145,201,147,-1,147,201,197,-1,147,197,149,-1,169,202,203,-1,169,203,171,-1,171,203,204,-1,171,204,173,-1,173,204,205,-1,173,205,140,-1,140,205,198,-1,140,198,141,-1,161,206,207,-1,161,207,163,-1,163,207,208,-1,163,208,165,-1,165,208,209,-1,165,209,167,-1,167,209,202,-1,167,202,169,-1,155,194,210,-1,155,210,157,-1,157,210,211,-1,157,211,159,-1,159,211,206,-1,159,206,161,-1,
        ]
    }
}
Shape{
    appearance Appearance {
        material  Material {
            diffuseColor 0.2235294117647059 0.2235294117647059 0.2235294117647059
            specularColor 0.11372549019607843 0.11372549019607843 0.11372549019607843
            ambientIntensity 0.2235
            transparency 0.0
            shininess 0.5
        }
    }
    geometry IndexedFaceSet {
        ccw TRUE
        solid FALSE
        coord DEF co Coordinate {
            point [
                0.2536 -0.4328 0.1811, 0.2536 -0.4614 0.1811, 0.2592 -0.4328 0.1811, 0.259 -0.4614 0.1811, 0.2637 -0.4609 0.1811, 0.2669 -0.4598 0.1811, 0.2693 -0.4582 0.1811, 0.27 -0.4575 0.1811, 0.2719 -0.4553 0.1811, 0.2731 -0.4525 0.1811, 0.2739 -0.4491 0.1811, 0.274 -0.4468 0.1811, 0.2735 -0.4425 0.1811, 0.2725 -0.4397 0.1811, 0.2711 -0.4375 0.1811, 0.2699 -0.4363 0.1811, 0.264 -0.4334 0.1811, 0.2672 -0.4345 0.1811
            ]
        }
        coordIndex [
            0,1,2,-1,2,1,3,-1,2,3,4,-1,4,5,2,-1,2,5,6,-1,2,6,7,-1,7,8,2,-1,2,8,9,-1,2,9,10,-1,10,11,2,-1,2,11,12,-1,2,12,13,-1,13,14,2,-1,2,14,15,-1,2,15,16,-1,16,15,17,-1,
        ]
    }
}
Shape{
    appearance Appearance {
        material  Material {
            diffuseColor 1.0 1.0 1.0
            specularColor 0.5019607843137255 0.5019607843137255 0.5019607843137255
            ambientIntensity 1.0
            transparency 0.0
            shininess 0.5
        }
    }
    geometry IndexedFaceSet {
        ccw TRUE
        solid FALSE
        coord DEF co Coordinate {
            point [
                0.2914 -0.4513 0.185, 0.2899 -0.4555 0.185, 0.3039 -0.4513 0.185, 0.3054 -0.4555 0.185, 0.297 -0.4359 0.185, 0.2952 -0.4286 0.185, 0.2811 -0.4656 0.185, 0.2864 -0.4656 0.185, 0.2973 -0.4348 0.185, 0.2976 -0.4333 0.185, 0.3003 -0.4286 0.185, 0.2977 -0.4333 0.185, 0.298 -0.4349 0.185, 0.2983 -0.4359 0.185, 0.3144 -0.4656 0.185, 0.3091 -0.4656 0.185, 0.3003 -0.4286 0.1811, 0.3144 -0.4656 0.1811, 0.2952 -0.4286 0.1811, 0.2811 -0.4656 0.1811, 0.2917 -0.4376 0.1811, 0.2864 -0.4656 0.1811, 0.2899 -0.4555 0.1811, 0.3054 -0.4555 0.1811, 0.2917 -0.4555 0.1811, 0.3091 -0.4656 0.1811, 0.2914 -0.4513 0.1811, 0.3039 -0.4513 0.1811, 0.2983 -0.4359 0.1811, 0.2977 -0.4333 0.1811, 0.298 -0.4349 0.1811, 0.2976 -0.4333 0.1811, 0.297 -0.4359 0.1811, 0.2973 -0.4348 0.1811
            ]
        }
        coordIndex [
            0,1,2,-1,2,1,3,-1,4,5,0,-1,0,5,6,-1,0,6,1,-1,1,6,7,-1,4,8,5,-1,5,8,9,-1,5,9,10,-1,10,9,11,-1,10,11,12,-1,12,13,10,-1,10,13,2,-1,10,2,14,-1,14,2,3,-1,14,3,15,-1,10,14,16,-1,16,14,17,-1,5,10,18,-1,18,10,16,-1,19,6,20,-1,20,6,5,-1,20,5,18,-1,7,6,21,-1,21,6,19,-1,1,7,22,-1,22,7,21,-1,23,3,24,-1,24,3,1,-1,24,1,22,-1,15,3,25,-1,25,3,23,-1,14,15,17,-1,17,15,25,-1,0,2,26,-1,26,2,27,-1,2,13,27,-1,27,13,28,-1,11,29,30,-1,11,30,12,-1,12,30,28,-1,12,28,13,-1,11,9,29,-1,29,9,31,-1,4,32,33,-1,4,33,8,-1,8,33,31,-1,8,31,9,-1,4,0,32,-1,32,0,26,-1,
        ]
    }
}
Shape{
    appearance Appearance {
        material  Material {
            diffuseColor 0.2235294117647059 0.2235294117647059 0.2235294117647059
            specularColor 0.11372549019607843 0.11372549019607843 0.11372549019607843
            ambientIntensity 0.2235
            transparency 0.0
            shininess 0.5
        }
    }
    geometry IndexedFaceSet {
        ccw TRUE
        solid FALSE
        coord DEF co Coordinate {
            point [
                0.2977 -0.4333 0.1811, 0.2976 -0.4333 0.1811, 0.298 -0.4349 0.1811, 0.2973 -0.4348 0.1811, 0.2983 -0.4359 0.1811, 0.297 -0.4359 0.1811, 0.3039 -0.4513 0.1811, 0.2914 -0.4513 0.1811
            ]
        }
        coordIndex [
            0,1,2,-1,2,1,3,-1,2,3,4,-1,4,3,5,-1,4,5,6,-1,6,5,7,-1,
        ]
    }
}
Shape{
    appearance Appearance {
        material  Material {
            diffuseColor 1.0 1.0 1.0
            specularColor 0.5019607843137255 0.5019607843137255 0.5019607843137255
            ambientIntensity 1.0
            transparency 0.0
            shininess 0.5
        }
    }
    geometry IndexedFaceSet {
        ccw TRUE
        solid FALSE
        coord DEF co Coordinate {
            point [
                0.1856 -0.5202 0.185, 0.1856 -0.5244 0.185, 0.1856 -0.5202 0.1811, 0.1856 -0.5244 0.1811, 0.1704 -0.5202 0.185, 0.1704 -0.5202 0.1811, 0.1704 -0.5077 0.185, 0.1704 -0.5077 0.1811, 0.1837 -0.5077 0.185, 0.1837 -0.5077 0.1811, 0.1837 -0.5035 0.185, 0.1837 -0.5035 0.1811, 0.1704 -0.5035 0.185, 0.1704 -0.5035 0.1811, 0.1704 -0.4916 0.185, 0.1704 -0.4916 0.1811, 0.1847 -0.4916 0.185, 0.1847 -0.4916 0.1811, 0.1847 -0.4874 0.185, 0.1847 -0.4874 0.1811, 0.1657 -0.4874 0.185, 0.1657 -0.4874 0.1811, 0.1657 -0.5244 0.185, 0.1657 -0.5244 0.1811, 0.2005 -0.512 0.185, 0.2067 -0.5112 0.185, 0.2113 -0.5074 0.185, 0.2067 -0.5244 0.185, 0.2113 -0.5244 0.185, 0.2067 -0.5203 0.185, 0.2067 -0.5076 0.185, 0.1966 -0.5131 0.185, 0.1977 -0.5126 0.185, 0.2065 -0.5203 0.185, 0.2041 -0.5196 0.185, 0.2055 -0.5219 0.185, 0.2028 -0.5205 0.185, 0.2067 -0.5137 0.185, 0.2064 -0.516 0.185, 0.2057 -0.5177 0.185, 0.2047 -0.5191 0.185, 0.2065 -0.5058 0.185, 0.2109 -0.5038 0.185, 0.2061 -0.5041 0.185, 0.2102 -0.5017 0.185, 0.2056 -0.5031 0.185, 0.2092 -0.5002 0.185, 0.2049 -0.5023 0.185, 0.208 -0.4991 0.185, 0.2041 -0.5017 0.185, 0.2065 -0.4982 0.185, 0.2031 -0.5013 0.185, 0.2045 -0.4976 0.185, 0.2013 -0.5011 0.185, 0.2017 -0.4974 0.185, 0.1988 -0.5014 0.185, 0.197 -0.4979 0.185, 0.1958 -0.5023 0.185, 0.1935 -0.4993 0.185, 0.1926 -0.5043 0.185, 0.1926 -0.4998 0.185, 0.1952 -0.5189 0.185, 0.1916 -0.5223 0.185, 0.1957 -0.5197 0.185, 0.1923 -0.523 0.185, 0.1961 -0.5201 0.185, 0.1937 -0.524 0.185, 0.197 -0.5207 0.185, 0.1955 -0.5247 0.185, 0.1981 -0.5211 0.185, 0.1977 -0.525 0.185, 0.1996 -0.5213 0.185, 0.1984 -0.5251 0.185, 0.201 -0.5248 0.185, 0.2014 -0.521 0.185, 0.2029 -0.524 0.185, 0.204 -0.5233 0.185, 0.1948 -0.5162 0.185, 0.19 -0.5168 0.185, 0.1947 -0.517 0.185, 0.19 -0.5174 0.185, 0.1949 -0.518 0.185, 0.1902 -0.5194 0.185, 0.1908 -0.521 0.185, 0.1988 -0.5087 0.185, 0.1953 -0.5096 0.185, 0.196 -0.5136 0.185, 0.1933 -0.5106 0.185, 0.1954 -0.5143 0.185, 0.1919 -0.5118 0.185, 0.195 -0.5152 0.185, 0.191 -0.5132 0.185, 0.1903 -0.5148 0.185, 0.2017 -0.4974 0.1811, 0.197 -0.4979 0.1811, 0.1935 -0.4993 0.1811, 0.1926 -0.4998 0.1811, 0.1926 -0.5043 0.1811, 0.1958 -0.5023 0.1811, 0.1988 -0.5014 0.1811, 0.2013 -0.5011 0.1811, 0.2031 -0.5013 0.1811, 0.2041 -0.5017 0.1811, 0.2049 -0.5023 0.1811, 0.2056 -0.5031 0.1811, 0.2061 -0.5041 0.1811, 0.2065 -0.5058 0.1811, 0.2067 -0.5076 0.1811, 0.1988 -0.5087 0.1811, 0.1953 -0.5096 0.1811, 0.1933 -0.5106 0.1811, 0.1919 -0.5118 0.1811, 0.191 -0.5132 0.1811, 0.1903 -0.5148 0.1811, 0.19 -0.5168 0.1811, 0.19 -0.5174 0.1811, 0.1902 -0.5194 0.1811, 0.1908 -0.521 0.1811, 0.1916 -0.5223 0.1811, 0.1923 -0.523 0.1811, 0.1984 -0.5251 0.1811, 0.1937 -0.524 0.1811, 0.1955 -0.5247 0.1811, 0.1958 -0.5248 0.1811, 0.1977 -0.525 0.1811, 0.201 -0.5248 0.1811, 0.2029 -0.524 0.1811, 0.204 -0.5233 0.1811, 0.2055 -0.5219 0.1811, 0.2065 -0.5203 0.1811, 0.2067 -0.5203 0.1811, 0.2067 -0.5244 0.1811, 0.2113 -0.5244 0.1811, 0.2113 -0.5074 0.1811, 0.2109 -0.5038 0.1811, 0.2102 -0.5017 0.1811, 0.2092 -0.5002 0.1811, 0.208 -0.4991 0.1811, 0.2065 -0.4982 0.1811, 0.2045 -0.4976 0.1811, 0.196 -0.5136 0.1811, 0.1966 -0.5131 0.1811, 0.1977 -0.5126 0.1811, 0.2005 -0.512 0.1811, 0.1947 -0.517 0.1811, 0.1948 -0.5162 0.1811, 0.195 -0.5152 0.1811, 0.1954 -0.5143 0.1811, 0.1961 -0.5201 0.1811, 0.1957 -0.5197 0.1811, 0.1952 -0.5189 0.1811, 0.1949 -0.518 0.1811, 0.1996 -0.5213 0.1811, 0.1981 -0.5211 0.1811, 0.197 -0.5207 0.1811, 0.2047 -0.5191 0.1811, 0.2041 -0.5196 0.1811, 0.2028 -0.5205 0.1811, 0.2014 -0.521 0.1811, 0.2067 -0.5137 0.1811, 0.2064 -0.516 0.1811, 0.2057 -0.5177 0.1811, 0.2067 -0.5112 0.1811
            ]
        }
        coordIndex [
            0,1,2,-1,2,1,3,-1,4,0,5,-1,5,0,2,-1,6,4,7,-1,7,4,5,-1,8,6,9,-1,9,6,7,-1,10,8,11,-1,11,8,9,-1,12,10,13,-1,13,10,11,-1,14,12,15,-1,15,12,13,-1,16,14,17,-1,17,14,15,-1,18,16,19,-1,19,16,17,-1,20,18,21,-1,21,18,19,-1,22,20,23,-1,23,20,21,-1,1,22,3,-1,3,22,23,-1,22,1,0,-1,0,4,22,-1,22,4,6,-1,22,6,20,-1,16,18,14,-1,14,18,20,-1,14,20,12,-1,12,20,6,-1,12,6,10,-1,10,6,8,-1,24,25,26,-1,27,28,29,-1,29,28,26,-1,30,31,32,-1,33,34,35,-1,35,34,36,-1,25,37,26,-1,26,37,38,-1,26,38,29,-1,29,38,39,-1,29,39,33,-1,33,39,40,-1,33,40,34,-1,32,24,30,-1,30,24,26,-1,30,26,41,-1,41,26,42,-1,41,42,43,-1,43,42,44,-1,43,44,45,-1,45,44,46,-1,45,46,47,-1,47,46,48,-1,47,48,49,-1,49,48,50,-1,49,50,51,-1,51,50,52,-1,51,52,53,-1,53,52,54,-1,53,54,55,-1,55,54,56,-1,55,56,57,-1,57,56,58,-1,57,58,59,-1,59,58,60,-1,61,62,63,-1,63,62,64,-1,63,64,65,-1,65,64,66,-1,65,66,67,-1,67,66,68,-1,67,68,69,-1,69,68,70,-1,69,70,71,-1,70,72,71,-1,71,72,73,-1,71,73,74,-1,74,73,75,-1,74,75,36,-1,36,75,76,-1,36,76,35,-1,77,78,79,-1,79,78,80,-1,79,80,81,-1,81,80,82,-1,81,82,61,-1,61,82,83,-1,61,83,62,-1,30,84,31,-1,31,84,85,-1,31,85,86,-1,86,85,87,-1,86,87,88,-1,88,87,89,-1,88,89,90,-1,90,89,91,-1,90,91,77,-1,77,91,92,-1,77,92,78,-1,54,93,94,-1,54,94,56,-1,56,94,95,-1,56,95,58,-1,58,95,96,-1,58,96,60,-1,59,60,97,-1,97,60,96,-1,59,97,98,-1,59,98,57,-1,57,98,99,-1,57,99,55,-1,55,99,100,-1,55,100,53,-1,53,100,101,-1,53,101,51,-1,51,101,102,-1,51,102,49,-1,49,102,103,-1,49,103,47,-1,47,103,104,-1,47,104,45,-1,45,104,105,-1,45,105,43,-1,43,105,106,-1,43,106,41,-1,41,106,107,-1,41,107,30,-1,84,30,108,-1,108,30,107,-1,84,108,109,-1,84,109,85,-1,85,109,110,-1,85,110,87,-1,87,110,111,-1,87,111,89,-1,89,111,112,-1,89,112,91,-1,91,112,113,-1,91,113,92,-1,92,113,114,-1,92,114,78,-1,78,114,115,-1,78,115,80,-1,80,115,116,-1,80,116,82,-1,82,116,117,-1,82,117,83,-1,83,117,118,-1,83,118,62,-1,62,118,119,-1,62,119,64,-1,120,72,70,-1,64,119,121,-1,64,121,66,-1,66,121,122,-1,66,122,68,-1,68,122,123,-1,68,123,70,-1,70,123,124,-1,70,124,120,-1,72,120,125,-1,72,125,73,-1,73,125,126,-1,73,126,75,-1,75,126,127,-1,75,127,76,-1,76,127,128,-1,76,128,35,-1,35,128,129,-1,35,129,33,-1,29,33,130,-1,130,33,129,-1,27,29,131,-1,131,29,130,-1,28,27,132,-1,132,27,131,-1,26,28,133,-1,133,28,132,-1,26,133,134,-1,26,134,42,-1,42,134,135,-1,42,135,44,-1,44,135,136,-1,44,136,46,-1,46,136,137,-1,46,137,48,-1,48,137,138,-1,48,138,50,-1,50,138,139,-1,50,139,52,-1,52,139,93,-1,52,93,54,-1,86,140,141,-1,86,141,31,-1,31,141,142,-1,31,142,32,-1,32,142,143,-1,32,143,24,-1,79,144,145,-1,79,145,77,-1,77,145,146,-1,77,146,90,-1,90,146,147,-1,90,147,88,-1,88,147,140,-1,88,140,86,-1,65,148,149,-1,65,149,63,-1,63,149,150,-1,63,150,61,-1,61,150,151,-1,61,151,81,-1,81,151,144,-1,81,144,79,-1,71,152,153,-1,71,153,69,-1,69,153,154,-1,69,154,67,-1,67,154,148,-1,67,148,65,-1,40,155,156,-1,40,156,34,-1,34,156,157,-1,34,157,36,-1,36,157,158,-1,36,158,74,-1,74,158,152,-1,74,152,71,-1,37,159,160,-1,37,160,38,-1,38,160,161,-1,38,161,39,-1,39,161,155,-1,39,155,40,-1,37,25,159,-1,159,25,162,-1,25,24,162,-1,162,24,143,-1,
        ]
    }
}
Shape{
    appearance Appearance {
        material  Material {
            diffuseColor 0.2235294117647059 0.2235294117647059 0.2235294117647059
            specularColor 0.11372549019607843 0.11372549019607843 0.11372549019607843
            ambientIntensity 0.2235
            transparency 0.0
            shininess 0.5
        }
    }
    geometry IndexedFaceSet {
        ccw TRUE
        solid FALSE
        coord DEF co Coordinate {
            point [
                0.2041 -0.5196 0.1811, 0.2047 -0.5191 0.1811, 0.2005 -0.512 0.1811, 0.2057 -0.5177 0.1811, 0.2014 -0.521 0.1811, 0.1977 -0.5126 0.1811, 0.1966 -0.5131 0.1811, 0.2028 -0.5205 0.1811, 0.2064 -0.516 0.1811, 0.2067 -0.5137 0.1811, 0.2067 -0.5112 0.1811, 0.195 -0.5152 0.1811, 0.1948 -0.5162 0.1811, 0.1947 -0.517 0.1811, 0.1949 -0.518 0.1811, 0.197 -0.5207 0.1811, 0.1981 -0.5211 0.1811, 0.1961 -0.5201 0.1811, 0.1996 -0.5213 0.1811, 0.196 -0.5136 0.1811, 0.1954 -0.5143 0.1811, 0.1952 -0.5189 0.1811, 0.1957 -0.5197 0.1811
            ]
        }
        coordIndex [
            0,1,2,-1,2,1,3,-1,4,5,6,-1,5,4,2,-1,2,4,7,-1,2,7,0,-1,3,8,2,-1,2,8,9,-1,2,9,10,-1,11,12,4,-1,4,12,13,-1,4,13,14,-1,15,16,17,-1,17,16,18,-1,17,18,4,-1,6,19,4,-1,4,19,20,-1,4,20,11,-1,14,21,4,-1,4,21,22,-1,4,22,17,-1,
        ]
    }
}
Shape{
    appearance Appearance {
        material  Material {
            diffuseColor 1.0 1.0 1.0
            specularColor 0.5019607843137255 0.5019607843137255 0.5019607843137255
            ambientIntensity 1.0
            transparency 0.0
            shininess 0.5
        }
    }
    geometry IndexedFaceSet {
        ccw TRUE
        solid FALSE
        coord DEF co Coordinate {
            point [
                0.2176 -0.5187 0.1811, 0.2176 -0.5187 0.185, 0.2193 -0.5198 0.185, 0.2252 -0.5213 0.185, 0.2252 -0.5213 0.1811, 0.2222 -0.5209 0.1811, 0.2222 -0.5209 0.185, 0.2197 -0.5199 0.1811, 0.2193 -0.5198 0.1811, 0.2176 -0.5235 0.185, 0.2176 -0.5235 0.1811, 0.2197 -0.5243 0.1811, 0.2208 -0.5247 0.185, 0.2248 -0.5251 0.1811, 0.2248 -0.5251 0.185, 0.2218 -0.5248 0.1811, 0.2208 -0.5247 0.1811, 0.2277 -0.5248 0.1811, 0.2286 -0.5247 0.185, 0.2286 -0.5247 0.1811, 0.2312 -0.5238 0.1811, 0.2312 -0.5238 0.185, 0.2325 -0.523 0.1811, 0.2325 -0.523 0.185, 0.2339 -0.5218 0.1811, 0.2339 -0.5218 0.185, 0.2347 -0.5205 0.1811, 0.2347 -0.5205 0.185, 0.2353 -0.519 0.1811, 0.2353 -0.519 0.185, 0.2355 -0.5172 0.1811, 0.2355 -0.5172 0.185, 0.2353 -0.5154 0.1811, 0.2353 -0.5154 0.185, 0.2348 -0.5141 0.1811, 0.2348 -0.5141 0.185, 0.2339 -0.5129 0.1811, 0.2339 -0.5129 0.185, 0.2328 -0.5119 0.1811, 0.2328 -0.5119 0.185, 0.2297 -0.5102 0.1811, 0.2297 -0.5102 0.185, 0.2279 -0.5094 0.1811, 0.2279 -0.5094 0.185, 0.2251 -0.5082 0.1811, 0.2251 -0.5082 0.185, 0.2234 -0.5072 0.1811, 0.2234 -0.5072 0.185, 0.223 -0.5067 0.1811, 0.223 -0.5067 0.185, 0.2226 -0.506 0.1811, 0.2226 -0.506 0.185, 0.2225 -0.5053 0.1811, 0.2225 -0.5053 0.185, 0.2224 -0.5047 0.1811, 0.2224 -0.5047 0.185, 0.2225 -0.504 0.1811, 0.2225 -0.504 0.185, 0.2227 -0.5033 0.1811, 0.2227 -0.5033 0.185, 0.2231 -0.5027 0.1811, 0.2231 -0.5027 0.185, 0.2238 -0.5021 0.1811, 0.2238 -0.5021 0.185, 0.2249 -0.5016 0.1811, 0.2249 -0.5016 0.185, 0.2261 -0.5012 0.1811, 0.2261 -0.5012 0.185, 0.2275 -0.5011 0.1811, 0.2275 -0.5011 0.185, 0.2307 -0.5015 0.1811, 0.2307 -0.5015 0.185, 0.2334 -0.5025 0.1811, 0.2334 -0.5025 0.185, 0.2342 -0.503 0.1811, 0.2342 -0.503 0.185, 0.2342 -0.4985 0.185, 0.2342 -0.4985 0.1811, 0.2312 -0.4976 0.1811, 0.2312 -0.4976 0.185, 0.2279 -0.4974 0.1811, 0.2279 -0.4974 0.185, 0.2242 -0.4978 0.1811, 0.2242 -0.4978 0.185, 0.2217 -0.4988 0.1811, 0.2217 -0.4988 0.185, 0.2206 -0.4995 0.1811, 0.2206 -0.4995 0.185, 0.2197 -0.5002 0.1811, 0.2192 -0.5007 0.185, 0.2192 -0.5007 0.1811, 0.2183 -0.502 0.1811, 0.2183 -0.502 0.185, 0.2178 -0.5035 0.1811, 0.2178 -0.5035 0.185, 0.2176 -0.5051 0.1811, 0.2176 -0.5051 0.185, 0.2178 -0.507 0.1811, 0.2178 -0.507 0.185, 0.2184 -0.5084 0.1811, 0.2184 -0.5084 0.185, 0.2189 -0.5093 0.1811, 0.2189 -0.5093 0.185, 0.2247 -0.5128 0.1811, 0.2247 -0.5128 0.185, 0.2219 -0.5115 0.185, 0.2197 -0.5101 0.1811, 0.2197 -0.5101 0.185, 0.2197 -0.5101 0.1811, 0.2219 -0.5115 0.1811, 0.2277 -0.5141 0.1811, 0.2277 -0.5141 0.185, 0.2295 -0.5152 0.1811, 0.2295 -0.5152 0.185, 0.2301 -0.5158 0.1811, 0.2301 -0.5158 0.185, 0.2305 -0.5164 0.1811, 0.2305 -0.5164 0.185, 0.2307 -0.5171 0.1811, 0.2307 -0.5171 0.185, 0.2307 -0.5177 0.1811, 0.2307 -0.5177 0.185, 0.2306 -0.5186 0.1811, 0.2306 -0.5186 0.185, 0.2304 -0.5192 0.1811, 0.2304 -0.5192 0.185, 0.23 -0.5198 0.1811, 0.23 -0.5198 0.185, 0.2294 -0.5203 0.1811, 0.2294 -0.5203 0.185, 0.229 -0.5206 0.1811, 0.229 -0.5206 0.185, 0.2278 -0.521 0.1811, 0.2278 -0.521 0.185, 0.2254 -0.5213 0.1811, 0.2254 -0.5213 0.185, 0.2585 -0.498 0.185, 0.2633 -0.498 0.185, 0.2585 -0.498 0.1811, 0.2633 -0.498 0.1811, 0.2513 -0.5179 0.185, 0.2513 -0.5179 0.1811, 0.2509 -0.5191 0.1811, 0.2509 -0.5191 0.185, 0.2507 -0.52 0.1811, 0.2507 -0.52 0.185, 0.2506 -0.52 0.185, 0.2506 -0.52 0.1811, 0.25 -0.5179 0.185, 0.25 -0.5179 0.1811, 0.2431 -0.498 0.185, 0.2453 -0.5044 0.1811, 0.2431 -0.498 0.1811, 0.2379 -0.498 0.185, 0.2379 -0.498 0.1811, 0.2483 -0.5244 0.185, 0.2453 -0.5169 0.1811, 0.2483 -0.5244 0.1811, 0.2462 -0.5292 0.1811, 0.2462 -0.5292 0.185, 0.2481 -0.5248 0.1811, 0.2453 -0.5308 0.1811, 0.2453 -0.5309 0.185, 0.2453 -0.5309 0.1811, 0.2444 -0.5319 0.1811, 0.2444 -0.5319 0.185, 0.2438 -0.5323 0.1811, 0.2438 -0.5323 0.185, 0.2428 -0.5327 0.1811, 0.2428 -0.5327 0.185, 0.2417 -0.5329 0.1811, 0.2417 -0.5329 0.185, 0.2415 -0.5329 0.1811, 0.2415 -0.5329 0.185, 0.2398 -0.5327 0.1811, 0.2398 -0.5327 0.185, 0.2388 -0.5324 0.1811, 0.2388 -0.5324 0.185, 0.2388 -0.5365 0.185, 0.2388 -0.5365 0.1811, 0.2402 -0.5368 0.1811, 0.2402 -0.5368 0.185, 0.2418 -0.5369 0.1811, 0.2418 -0.5369 0.185, 0.2437 -0.5367 0.1811, 0.2437 -0.5367 0.185, 0.2453 -0.5361 0.1811, 0.2455 -0.536 0.185, 0.2455 -0.536 0.1811, 0.2472 -0.5349 0.1811, 0.2472 -0.5349 0.185, 0.2475 -0.5345 0.1811, 0.2475 -0.5345 0.185, 0.2492 -0.5325 0.1811, 0.2492 -0.5325 0.185, 0.2513 -0.5284 0.1811, 0.2513 -0.5284 0.185, 0.2527 -0.5248 0.1811, 0.2882 -0.5202 0.185, 0.2882 -0.5244 0.185, 0.2882 -0.5202 0.1811, 0.2882 -0.5244 0.1811, 0.2731 -0.5202 0.185, 0.28 -0.5202 0.1811, 0.2731 -0.5202 0.1811, 0.2731 -0.5077 0.185, 0.2731 -0.5077 0.1811, 0.2864 -0.5077 0.185, 0.28 -0.5077 0.1811, 0.2864 -0.5077 0.1811, 0.2864 -0.5035 0.185, 0.2864 -0.5035 0.1811, 0.2731 -0.5035 0.1811, 0.2731 -0.5035 0.185, 0.28 -0.5035 0.1811, 0.2731 -0.4916 0.185, 0.2731 -0.4916 0.1811, 0.2874 -0.4916 0.1811, 0.2874 -0.4916 0.185, 0.28 -0.4916 0.1811, 0.2874 -0.4874 0.185, 0.2874 -0.4874 0.1811, 0.2683 -0.4874 0.1811, 0.2683 -0.4874 0.185, 0.28 -0.4874 0.1811, 0.2683 -0.5244 0.185, 0.2683 -0.5244 0.1811, 0.28 -0.5244 0.1811, 0.3183 -0.5141 0.185, 0.3164 -0.5163 0.185, 0.3198 -0.5192 0.185, 0.3158 -0.517 0.185, 0.316 -0.522 0.185, 0.3133 -0.5186 0.185, 0.3118 -0.5237 0.185, 0.3101 -0.5197 0.185, 0.3054 -0.5244 0.185, 0.3054 -0.5202 0.185, 0.2952 -0.5244 0.185, 0.3 -0.5202 0.185, 0.2952 -0.4874 0.185, 0.3 -0.4916 0.185, 0.3058 -0.4874 0.185, 0.3056 -0.4916 0.185, 0.3115 -0.488 0.185, 0.3104 -0.4922 0.185, 0.316 -0.4896 0.185, 0.3136 -0.4933 0.185, 0.3198 -0.4923 0.185, 0.3163 -0.4951 0.185, 0.3211 -0.4935 0.185, 0.3176 -0.4964 0.185, 0.3234 -0.4967 0.185, 0.3189 -0.4985 0.185, 0.3248 -0.5003 0.185, 0.3199 -0.5013 0.185, 0.3254 -0.5054 0.185, 0.3204 -0.5056 0.185, 0.3253 -0.5078 0.185, 0.3203 -0.5079 0.185, 0.3244 -0.5121 0.185, 0.3196 -0.5113 0.185, 0.3226 -0.516 0.185, 0.3054 -0.5244 0.1811, 0.2952 -0.5244 0.1811, 0.3118 -0.5237 0.1811, 0.316 -0.522 0.1811, 0.3198 -0.5192 0.1811, 0.3226 -0.516 0.1811, 0.3244 -0.5121 0.1811, 0.3253 -0.5078 0.1811, 0.3254 -0.5054 0.1811, 0.3248 -0.5003 0.1811, 0.3234 -0.4967 0.1811, 0.3211 -0.4935 0.1811, 0.3198 -0.4923 0.1811, 0.316 -0.4896 0.1811, 0.3115 -0.488 0.1811, 0.3058 -0.4874 0.1811, 0.2952 -0.4874 0.1811, 0.3056 -0.4916 0.1811, 0.3 -0.4916 0.1811, 0.3 -0.5202 0.1811, 0.3054 -0.5202 0.1811, 0.3164 -0.5163 0.1811, 0.3158 -0.517 0.1811, 0.3133 -0.5186 0.1811, 0.3101 -0.5197 0.1811, 0.3204 -0.5056 0.1811, 0.3203 -0.5079 0.1811, 0.3196 -0.5113 0.1811, 0.3183 -0.5141 0.1811, 0.3163 -0.4951 0.1811, 0.3176 -0.4964 0.1811, 0.3189 -0.4985 0.1811, 0.3199 -0.5013 0.1811, 0.3104 -0.4922 0.1811, 0.3136 -0.4933 0.1811
            ]
        }
        coordIndex [
            0,1,2,-1,3,4,5,-1,3,5,6,-1,6,5,7,-1,6,7,2,-1,2,7,8,-1,2,8,0,-1,9,1,10,-1,10,1,0,-1,10,11,9,-1,9,11,12,-1,13,14,15,-1,15,14,12,-1,15,12,16,-1,16,12,11,-1,13,17,14,-1,14,17,18,-1,17,19,18,-1,18,19,20,-1,18,20,21,-1,21,20,22,-1,21,22,23,-1,23,22,24,-1,23,24,25,-1,25,24,26,-1,25,26,27,-1,27,26,28,-1,27,28,29,-1,29,28,30,-1,29,30,31,-1,31,30,32,-1,31,32,33,-1,33,32,34,-1,33,34,35,-1,35,34,36,-1,35,36,37,-1,37,36,38,-1,37,38,39,-1,39,38,40,-1,39,40,41,-1,41,40,42,-1,41,42,43,-1,43,42,44,-1,43,44,45,-1,45,44,46,-1,45,46,47,-1,47,46,48,-1,47,48,49,-1,49,48,50,-1,49,50,51,-1,51,50,52,-1,51,52,53,-1,53,52,54,-1,53,54,55,-1,55,54,56,-1,55,56,57,-1,57,56,58,-1,57,58,59,-1,59,58,60,-1,59,60,61,-1,61,60,62,-1,61,62,63,-1,63,62,64,-1,63,64,65,-1,65,64,66,-1,65,66,67,-1,67,66,68,-1,67,68,69,-1,69,68,70,-1,69,70,71,-1,71,70,72,-1,71,72,73,-1,73,72,74,-1,73,74,75,-1,76,75,77,-1,77,75,74,-1,76,77,78,-1,76,78,79,-1,79,78,80,-1,79,80,81,-1,81,80,82,-1,81,82,83,-1,83,82,84,-1,83,84,85,-1,85,84,86,-1,85,86,87,-1,86,88,87,-1,87,88,89,-1,88,90,89,-1,89,90,91,-1,89,91,92,-1,92,91,93,-1,92,93,94,-1,94,93,95,-1,94,95,96,-1,96,95,97,-1,96,97,98,-1,98,97,99,-1,98,99,100,-1,100,99,101,-1,100,101,102,-1,103,104,105,-1,102,101,106,-1,102,106,107,-1,107,106,108,-1,107,108,105,-1,105,108,109,-1,105,109,103,-1,104,103,110,-1,104,110,111,-1,111,110,112,-1,111,112,113,-1,113,112,114,-1,113,114,115,-1,115,114,116,-1,115,116,117,-1,117,116,118,-1,117,118,119,-1,119,118,120,-1,119,120,121,-1,121,120,122,-1,121,122,123,-1,123,122,124,-1,123,124,125,-1,125,124,126,-1,125,126,127,-1,127,126,128,-1,127,128,129,-1,129,128,130,-1,129,130,131,-1,131,130,132,-1,131,132,133,-1,133,132,134,-1,133,134,135,-1,135,134,4,-1,135,4,3,-1,59,61,87,-1,87,61,85,-1,85,61,63,-1,85,63,83,-1,125,25,27,-1,111,43,104,-1,104,43,45,-1,125,27,123,-1,123,27,29,-1,123,29,121,-1,121,29,31,-1,121,31,119,-1,119,31,33,-1,119,33,117,-1,117,33,35,-1,117,35,115,-1,115,35,37,-1,115,37,113,-1,113,37,39,-1,113,39,111,-1,111,39,41,-1,111,41,43,-1,25,125,23,-1,23,125,127,-1,23,127,21,-1,14,3,12,-1,12,3,6,-1,12,6,9,-1,9,6,2,-1,9,2,1,-1,63,65,83,-1,83,65,67,-1,83,67,81,-1,81,67,69,-1,81,69,79,-1,79,69,71,-1,79,71,76,-1,76,71,73,-1,76,73,75,-1,127,129,21,-1,21,129,131,-1,21,131,18,-1,18,131,133,-1,18,133,14,-1,14,133,135,-1,14,135,3,-1,87,89,59,-1,59,89,92,-1,59,92,57,-1,57,92,94,-1,57,94,55,-1,55,94,96,-1,55,96,53,-1,53,96,98,-1,53,98,51,-1,51,98,100,-1,51,100,49,-1,49,100,102,-1,49,102,47,-1,47,102,107,-1,47,107,45,-1,45,107,105,-1,45,105,104,-1,136,137,138,-1,138,137,139,-1,140,136,141,-1,141,136,138,-1,140,141,142,-1,140,142,143,-1,143,142,144,-1,143,144,145,-1,146,145,147,-1,147,145,144,-1,148,146,149,-1,149,146,147,-1,148,149,150,-1,150,149,151,-1,150,151,152,-1,153,150,154,-1,154,150,152,-1,153,154,155,-1,155,154,156,-1,155,156,157,-1,158,159,160,-1,160,159,155,-1,160,155,157,-1,158,161,159,-1,159,161,162,-1,161,163,162,-1,162,163,164,-1,162,164,165,-1,165,164,166,-1,165,166,167,-1,167,166,168,-1,167,168,169,-1,169,168,170,-1,169,170,171,-1,171,170,172,-1,171,172,173,-1,173,172,174,-1,173,174,175,-1,175,174,176,-1,175,176,177,-1,178,177,179,-1,179,177,176,-1,178,179,180,-1,178,180,181,-1,181,180,182,-1,181,182,183,-1,183,182,184,-1,183,184,185,-1,185,184,186,-1,185,186,187,-1,186,188,187,-1,187,188,189,-1,187,189,190,-1,190,189,191,-1,190,191,192,-1,192,191,193,-1,192,193,194,-1,194,193,195,-1,194,195,196,-1,139,137,197,-1,197,137,196,-1,197,196,195,-1,143,145,196,-1,137,136,196,-1,196,136,140,-1,196,140,143,-1,150,153,148,-1,148,153,155,-1,148,155,146,-1,165,167,187,-1,183,173,181,-1,181,173,175,-1,181,175,178,-1,178,175,177,-1,145,146,196,-1,196,146,155,-1,196,155,194,-1,187,167,185,-1,185,167,169,-1,185,169,183,-1,183,169,171,-1,183,171,173,-1,155,159,194,-1,194,159,162,-1,194,162,192,-1,192,162,165,-1,192,165,190,-1,190,165,187,-1,198,199,200,-1,200,199,201,-1,198,200,202,-1,202,200,203,-1,202,203,204,-1,205,202,206,-1,206,202,204,-1,205,206,207,-1,207,206,208,-1,207,208,209,-1,210,207,211,-1,211,207,209,-1,212,213,214,-1,214,213,210,-1,214,210,211,-1,215,213,216,-1,216,213,212,-1,217,218,219,-1,219,218,215,-1,219,215,216,-1,220,218,221,-1,221,218,217,-1,222,223,224,-1,224,223,220,-1,224,220,221,-1,225,223,226,-1,226,223,222,-1,225,226,199,-1,199,226,227,-1,199,227,201,-1,225,199,198,-1,198,202,225,-1,225,202,205,-1,225,205,223,-1,218,220,215,-1,215,220,223,-1,215,223,213,-1,213,223,205,-1,213,205,210,-1,210,205,207,-1,228,229,230,-1,230,229,231,-1,230,231,232,-1,232,231,233,-1,232,233,234,-1,234,233,235,-1,234,235,236,-1,236,235,237,-1,236,237,238,-1,238,237,239,-1,238,239,240,-1,240,239,241,-1,240,241,242,-1,242,241,243,-1,242,243,244,-1,244,243,245,-1,244,245,246,-1,246,245,247,-1,246,247,248,-1,248,247,249,-1,248,249,250,-1,250,249,251,-1,250,251,252,-1,252,251,253,-1,252,253,254,-1,254,253,255,-1,254,255,256,-1,256,255,257,-1,256,257,258,-1,258,257,259,-1,258,259,260,-1,260,259,261,-1,260,261,262,-1,262,261,228,-1,262,228,230,-1,236,238,263,-1,263,238,264,-1,236,263,265,-1,236,265,234,-1,234,265,266,-1,234,266,232,-1,232,266,267,-1,232,267,230,-1,230,267,268,-1,230,268,262,-1,262,268,269,-1,262,269,260,-1,260,269,270,-1,260,270,258,-1,258,270,271,-1,258,271,256,-1,256,271,272,-1,256,272,254,-1,254,272,273,-1,254,273,252,-1,252,273,274,-1,252,274,250,-1,250,274,275,-1,250,275,248,-1,248,275,276,-1,248,276,246,-1,246,276,277,-1,246,277,244,-1,244,277,278,-1,244,278,242,-1,240,242,279,-1,279,242,278,-1,238,240,264,-1,264,240,279,-1,243,241,280,-1,280,241,281,-1,241,239,281,-1,281,239,282,-1,239,237,282,-1,282,237,283,-1,229,284,285,-1,229,285,231,-1,231,285,286,-1,231,286,233,-1,233,286,287,-1,233,287,235,-1,235,287,283,-1,235,283,237,-1,257,288,289,-1,257,289,259,-1,259,289,290,-1,259,290,261,-1,261,290,291,-1,261,291,228,-1,228,291,284,-1,228,284,229,-1,249,292,293,-1,249,293,251,-1,251,293,294,-1,251,294,253,-1,253,294,295,-1,253,295,255,-1,255,295,288,-1,255,288,257,-1,243,280,296,-1,243,296,245,-1,245,296,297,-1,245,297,247,-1,247,297,292,-1,247,292,249,-1,
        ]
    }
}
Shape{
    appearance Appearance {
        material  Material {
            diffuseColor 0.2235294117647059 0.2235294117647059 0.2235294117647059
            specularColor 0.11372549019607843 0.11372549019607843 0.11372549019607843
            ambientIntensity 0.2235
            transparency 0.0
            shininess 0.5
        }
    }
    geometry IndexedFaceSet {
        ccw TRUE
        solid FALSE
        coord DEF co Coordinate {
            point [
                0.3 -0.4916 0.1811, 0.3 -0.5202 0.1811, 0.3056 -0.4916 0.1811, 0.3054 -0.5202 0.1811, 0.3101 -0.5197 0.1811, 0.3133 -0.5186 0.1811, 0.3158 -0.517 0.1811, 0.3164 -0.5163 0.1811, 0.3183 -0.5141 0.1811, 0.3196 -0.5113 0.1811, 0.3203 -0.5079 0.1811, 0.3204 -0.5056 0.1811, 0.3199 -0.5013 0.1811, 0.3189 -0.4985 0.1811, 0.3176 -0.4964 0.1811, 0.3163 -0.4951 0.1811, 0.3104 -0.4922 0.1811, 0.3136 -0.4933 0.1811
            ]
        }
        coordIndex [
            0,1,2,-1,2,1,3,-1,2,3,4,-1,4,5,2,-1,2,5,6,-1,2,6,7,-1,7,8,2,-1,2,8,9,-1,2,9,10,-1,10,11,2,-1,2,11,12,-1,2,12,13,-1,13,14,2,-1,2,14,15,-1,2,15,16,-1,16,15,17,-1,
        ]
    }
}
Shape{
    appearance Appearance {
        material  Material {
            diffuseColor 1.0 1.0 1.0
            specularColor 0.5019607843137255 0.5019607843137255 0.5019607843137255
            ambientIntensity 1.0
            transparency 0.0
            shininess 0.5
        }
    }
    geometry IndexedFaceSet {
        ccw TRUE
        solid FALSE
        coord DEF co Coordinate {
            point [
                0.3379 -0.5101 0.185, 0.3363 -0.5143 0.185, 0.3503 -0.5101 0.185, 0.3518 -0.5143 0.185, 0.3434 -0.4947 0.185, 0.3416 -0.4874 0.185, 0.3275 -0.5244 0.185, 0.3328 -0.5244 0.185, 0.3437 -0.4936 0.185, 0.344 -0.4921 0.185, 0.3467 -0.4874 0.185, 0.3441 -0.4921 0.185, 0.3444 -0.4937 0.185, 0.3447 -0.4947 0.185, 0.3608 -0.5244 0.185, 0.3556 -0.5244 0.185, 0.3467 -0.4874 0.1811, 0.3608 -0.5244 0.1811, 0.3416 -0.4874 0.1811, 0.3275 -0.5244 0.1811, 0.3328 -0.5244 0.1811, 0.3363 -0.5143 0.1811, 0.3518 -0.5143 0.1811, 0.3556 -0.5244 0.1811, 0.3379 -0.5101 0.1811, 0.3503 -0.5101 0.1811, 0.3447 -0.4947 0.1811, 0.3441 -0.4921 0.1811, 0.3444 -0.4937 0.1811, 0.344 -0.4921 0.1811, 0.3434 -0.4947 0.1811, 0.3437 -0.4936 0.1811
            ]
        }
        coordIndex [
            0,1,2,-1,2,1,3,-1,4,5,0,-1,0,5,6,-1,0,6,1,-1,1,6,7,-1,4,8,5,-1,5,8,9,-1,5,9,10,-1,10,9,11,-1,10,11,12,-1,12,13,10,-1,10,13,2,-1,10,2,14,-1,14,2,3,-1,14,3,15,-1,10,14,16,-1,16,14,17,-1,5,10,18,-1,18,10,16,-1,6,5,19,-1,19,5,18,-1,7,6,20,-1,20,6,19,-1,1,7,21,-1,21,7,20,-1,3,1,22,-1,22,1,21,-1,15,3,23,-1,23,3,22,-1,14,15,17,-1,17,15,23,-1,0,2,24,-1,24,2,25,-1,2,13,25,-1,25,13,26,-1,11,27,28,-1,11,28,12,-1,12,28,26,-1,12,26,13,-1,11,9,27,-1,27,9,29,-1,4,30,31,-1,4,31,8,-1,8,31,29,-1,8,29,9,-1,4,0,30,-1,30,0,24,-1,
        ]
    }
}
Shape{
    appearance Appearance {
        material  Material {
            diffuseColor 0.2235294117647059 0.2235294117647059 0.2235294117647059
            specularColor 0.11372549019607843 0.11372549019607843 0.11372549019607843
            ambientIntensity 0.2235
            transparency 0.0
            shininess 0.5
        }
    }
    geometry IndexedFaceSet {
        ccw TRUE
        solid FALSE
        coord DEF co Coordinate {
            point [
                0.3441 -0.4921 0.1811, 0.344 -0.4921 0.1811, 0.3444 -0.4937 0.1811, 0.3437 -0.4936 0.1811, 0.3447 -0.4947 0.1811, 0.3434 -0.4947 0.1811, 0.3503 -0.5101 0.1811, 0.3379 -0.5101 0.1811
            ]
        }
        coordIndex [
            0,1,2,-1,2,1,3,-1,2,3,4,-1,4,3,5,-1,4,5,6,-1,6,5,7,-1,
        ]
    }
}
Shape{
    appearance Appearance {
        material  Material {
            diffuseColor 1.0 1.0 1.0
            specularColor 0.5019607843137255 0.5019607843137255 0.5019607843137255
            ambientIntensity 1.0
            transparency 0.0
            shininess 0.5
        }
    }
    geometry IndexedFaceSet {
        ccw TRUE
        solid FALSE
        coord DEF co Coordinate {
            point [
                0.0019 -0.5297 0.185, 0.0058 -0.5345 0.185, -0.0004 -0.5064 0.185, -0.005 -0.4605 0.185, 0.0009 -0.4574 0.185, -0.0006 -0.4413 0.185, 0.0507 -0.5156 0.185, 0.0507 -0.513 0.185, 0.0283 -0.5065 0.185, 0.0258 -0.5057 0.185, 0.0098 -0.44 0.185, 0.0323 -0.5097 0.185, 0.0335 -0.5118 0.185, 0.0506 -0.5183 0.185, 0.0876 -0.4935 0.185, 0.0794 -0.4795 0.185, 0.0441 -0.4979 0.185, 0.0241 -0.5056 0.185, 0.0216 -0.5059 0.185, 0.0181 -0.4898 0.185, 0.0193 -0.5068 0.185, 0.0122 -0.492 0.185, 0.0172 -0.5082 0.185, 0.0068 -0.4957 0.185, 0.0159 -0.5096 0.185, 0.0025 -0.5007 0.185, 0.0146 -0.5118 0.185, 0.0139 -0.5143 0.185, 0.0339 -0.4908 0.185, 0.0276 -0.4892 0.185, 0.0243 -0.489 0.185, 0.0159 -0.4405 0.185, 0.0241 -0.4597 0.185, 0.0275 -0.4524 0.185, -0.0062 -0.5029 0.185, -0.0041 -0.523 0.185, -0.0007 -0.524 0.185, 0.0305 -0.5079 0.185, 0.0172 -0.5235 0.185, 0.0192 -0.5249 0.185, 0.011 -0.5384 0.185, 0.0217 -0.5259 0.185, 0.0213 -0.4342 0.185, 0.0331 -0.4452 0.185, 0.0275 -0.4289 0.185, 0.0403 -0.4396 0.185, 0.0339 -0.4249 0.185, 0.0074 -0.4559 0.185, 0.0101 -0.4558 0.185, 0.0129 -0.4401 0.185, 0.0162 -0.4565 0.185, 0.0221 -0.4587 0.185, 0.0395 -0.4938 0.185, 0.0963 -0.4674 0.185, 0.0984 -0.4674 0.185, 0.1092 -0.4531 0.185, 0.1034 -0.468 0.185, 0.1114 -0.4539 0.185, 0.108 -0.4698 0.185, 0.1191 -0.458 0.185, 0.1121 -0.4726 0.185, 0.1261 -0.4642 0.185, 0.1152 -0.4761 0.185, 0.1313 -0.4719 0.185, 0.1176 -0.4806 0.185, 0.1343 -0.48 0.185, 0.1188 -0.4857 0.185, 0.1353 -0.4877 0.185, 0.119 -0.4879 0.185, 0.1352 -0.4895 0.185, 0.1183 -0.4931 0.185, 0.0852 -0.5245 0.185, 0.086 -0.5246 0.185, 0.0881 -0.5085 0.185, 0.0461 -0.4202 0.185, 0.0489 -0.4359 0.185, 0.0591 -0.4186 0.185, 0.095 -0.4323 0.185, 0.087 -0.4469 0.185, 0.1036 -0.4423 0.185, 0.0923 -0.4545 0.185, 0.0956 -0.4634 0.185, -0.0155 -0.4758 0.185, -0.0328 -0.4802 0.185, -0.0163 -0.4821 0.185, -0.0329 -0.4827 0.185, -0.0159 -0.4861 0.185, -0.0316 -0.4931 0.185, -0.0141 -0.4926 0.185, -0.0278 -0.5029 0.185, -0.0109 -0.498 0.185, -0.0218 -0.5114 0.185, -0.0136 -0.5184 0.185, 0.0155 -0.5215 0.185, 0.0144 -0.5193 0.185, 0.0138 -0.5169 0.185, 0.1 -0.5085 0.185, 0.1016 -0.5246 0.185, 0.1047 -0.5076 0.185, 0.1094 -0.523 0.185, 0.1093 -0.5055 0.185, 0.1175 -0.5193 0.185, 0.1132 -0.5023 0.185, 0.1245 -0.5138 0.185, 0.1136 -0.5019 0.185, 0.1255 -0.5127 0.185, 0.1165 -0.4978 0.185, 0.1303 -0.5063 0.185, 0.1338 -0.4981 0.185, -0.0103 -0.4451 0.185, -0.0187 -0.451 0.185, -0.0096 -0.4646 0.185, -0.0205 -0.4526 0.185, -0.0132 -0.4699 0.185, -0.0268 -0.4608 0.185, -0.031 -0.4703 0.185, 0.0342 -0.5142 0.185, 0.0343 -0.5168 0.185, 0.049 -0.5248 0.185, 0.0338 -0.5193 0.185, 0.0459 -0.5307 0.185, 0.0326 -0.5216 0.185, 0.0418 -0.5353 0.185, 0.0309 -0.5235 0.185, 0.0366 -0.5389 0.185, 0.0289 -0.525 0.185, 0.0307 -0.5412 0.185, 0.0266 -0.5258 0.185, 0.0243 -0.542 0.185, 0.0241 -0.5261 0.185, 0.0233 -0.5419 0.185, 0.0171 -0.541 0.185, 0.0576 -0.4345 0.185, 0.0594 -0.4344 0.185, 0.07 -0.4198 0.185, 0.0673 -0.4353 0.185, 0.0832 -0.4244 0.185, 0.0756 -0.4382 0.185, 0.0831 -0.4431 0.185, 0.0784 -0.5155 0.185, 0.0784 -0.5164 0.185, 0.0868 -0.5082 0.185, 0.0786 -0.5182 0.185, 0.0792 -0.52 0.185, 0.0803 -0.5216 0.185, 0.0816 -0.5229 0.185, 0.0876 -0.5084 0.185, 0.0834 -0.5239 0.185, 0.0865 -0.5082 0.185, 0.0847 -0.5084 0.185, 0.0829 -0.5091 0.185, 0.0813 -0.5102 0.185, 0.0799 -0.5117 0.185, 0.0789 -0.5135 0.185, 0.1353 -0.4877 0.1811, 0.1343 -0.48 0.1811, 0.1331 -0.4768 0.1811, 0.1313 -0.4719 0.1811, 0.1273 -0.4659 0.1811, 0.1261 -0.4642 0.1811, 0.1191 -0.458 0.1811, 0.1114 -0.4539 0.1811, 0.1092 -0.4531 0.1811, 0.1036 -0.4423 0.1811, 0.095 -0.4323 0.1811, 0.0889 -0.4283 0.1811, 0.0832 -0.4244 0.1811, 0.07 -0.4198 0.1811, 0.0591 -0.4186 0.1811, 0.0275 -0.4289 0.1811, 0.0285 -0.4283 0.1811, 0.0339 -0.4249 0.1811, 0.0461 -0.4202 0.1811, 0.0213 -0.4342 0.1811, 0.0159 -0.4405 0.1811, 0.0129 -0.4401 0.1811, 0.0098 -0.44 0.1811, -0.0006 -0.4413 0.1811, -0.0103 -0.4451 0.1811, -0.0187 -0.451 0.1811, -0.0205 -0.4526 0.1811, -0.0268 -0.4608 0.1811, -0.0291 -0.4659 0.1811, -0.031 -0.4703 0.1811, -0.0322 -0.4768 0.1811, -0.0328 -0.4802 0.1811, -0.0329 -0.4827 0.1811, -0.0316 -0.4931 0.1811, -0.0278 -0.5029 0.1811, -0.0218 -0.5114 0.1811, -0.0136 -0.5184 0.1811, -0.0041 -0.523 0.1811, -0.0007 -0.524 0.1811, -0.0004 -0.5248 0.1811, 0.0019 -0.5297 0.1811, 0.0058 -0.5345 0.1811, 0.011 -0.5384 0.1811, 0.0134 -0.5394 0.1811, 0.0171 -0.541 0.1811, 0.0233 -0.5419 0.1811, 0.0243 -0.542 0.1811, 0.0507 -0.5156 0.1811, 0.0307 -0.5412 0.1811, 0.0352 -0.5394 0.1811, 0.0366 -0.5389 0.1811, 0.0418 -0.5353 0.1811, 0.0459 -0.5307 0.1811, 0.049 -0.5248 0.1811, 0.049 -0.5248 0.1811, 0.0506 -0.5183 0.1811, 0.0507 -0.513 0.1811, 0.0876 -0.4935 0.1811, 0.0794 -0.4795 0.1811, 0.0441 -0.4979 0.1811, 0.0395 -0.4938 0.1811, 0.0339 -0.4908 0.1811, 0.0276 -0.4892 0.1811, 0.0243 -0.489 0.1811, 0.0181 -0.4898 0.1811, 0.0122 -0.492 0.1811, 0.0068 -0.4957 0.1811, 0.0025 -0.5007 0.1811, -0.0004 -0.5064 0.1811, -0.0062 -0.5029 0.1811, -0.0109 -0.498 0.1811, -0.0141 -0.4926 0.1811, -0.0159 -0.4861 0.1811, -0.0163 -0.4821 0.1811, -0.0156 -0.4768 0.1811, -0.0155 -0.4758 0.1811, -0.0132 -0.4699 0.1811, -0.0105 -0.4659 0.1811, -0.0096 -0.4646 0.1811, -0.005 -0.4605 0.1811, 0.0009 -0.4574 0.1811, 0.0074 -0.4559 0.1811, 0.0101 -0.4558 0.1811, 0.0162 -0.4565 0.1811, 0.0221 -0.4587 0.1811, 0.0241 -0.4597 0.1811, 0.0275 -0.4524 0.1811, 0.0331 -0.4452 0.1811, 0.0403 -0.4396 0.1811, 0.0489 -0.4359 0.1811, 0.0576 -0.4345 0.1811, 0.0594 -0.4344 0.1811, 0.0963 -0.4674 0.1811, 0.096 -0.4659 0.1811, 0.0956 -0.4634 0.1811, 0.0923 -0.4545 0.1811, 0.087 -0.4469 0.1811, 0.0831 -0.4431 0.1811, 0.0756 -0.4382 0.1811, 0.0673 -0.4353 0.1811, 0.0984 -0.4674 0.1811, 0.1034 -0.468 0.1811, 0.108 -0.4698 0.1811, 0.1121 -0.4726 0.1811, 0.1152 -0.4761 0.1811, 0.1156 -0.4768 0.1811, 0.1176 -0.4806 0.1811, 0.1188 -0.4857 0.1811, 0.119 -0.4879 0.1811, 0.1183 -0.4931 0.1811, 0.1165 -0.4978 0.1811, 0.1136 -0.5019 0.1811, 0.1132 -0.5023 0.1811, 0.1093 -0.5055 0.1811, 0.1047 -0.5076 0.1811, 0.1 -0.5085 0.1811, 0.0881 -0.5085 0.1811, 0.0876 -0.5084 0.1811, 0.0868 -0.5082 0.1811, 0.0865 -0.5082 0.1811, 0.0847 -0.5084 0.1811, 0.0829 -0.5091 0.1811, 0.0813 -0.5102 0.1811, 0.0799 -0.5117 0.1811, 0.0789 -0.5135 0.1811, 0.0784 -0.5155 0.1811, 0.0784 -0.5164 0.1811, 0.0786 -0.5182 0.1811, 0.0792 -0.52 0.1811, 0.0803 -0.5216 0.1811, 0.0816 -0.5229 0.1811, 0.0834 -0.5239 0.1811, 0.0852 -0.5245 0.1811, 0.086 -0.5246 0.1811, 0.1016 -0.5246 0.1811, 0.1094 -0.523 0.1811, 0.1175 -0.5193 0.1811, 0.1245 -0.5138 0.1811, 0.1255 -0.5127 0.1811, 0.1303 -0.5063 0.1811, 0.1338 -0.4981 0.1811, 0.1352 -0.4895 0.1811, 0.0241 -0.5056 0.1811, 0.0258 -0.5057 0.1811, 0.0283 -0.5065 0.1811, 0.0305 -0.5079 0.1811, 0.0323 -0.5097 0.1811, 0.0335 -0.5118 0.1811, 0.0342 -0.5142 0.1811, 0.0343 -0.5168 0.1811, 0.0338 -0.5193 0.1811, 0.0326 -0.5216 0.1811, 0.0309 -0.5235 0.1811, 0.0289 -0.525 0.1811, 0.0266 -0.5258 0.1811, 0.0241 -0.5261 0.1811, 0.0217 -0.5259 0.1811, 0.0192 -0.5249 0.1811, 0.0172 -0.5235 0.1811, 0.0155 -0.5215 0.1811, 0.0144 -0.5193 0.1811, 0.0138 -0.5169 0.1811, 0.0139 -0.5143 0.1811, 0.0146 -0.5118 0.1811, 0.0159 -0.5096 0.1811, 0.0172 -0.5082 0.1811, 0.0193 -0.5068 0.1811, 0.0216 -0.5059 0.1811
            ]
        }
        coordIndex [
            0,1,2,-1,3,4,5,-1,6,7,8,-1,8,7,9,-1,5,4,10,-1,11,12,13,-1,14,15,7,-1,7,15,16,-1,7,16,9,-1,9,16,17,-1,18,19,20,-1,20,19,21,-1,20,21,22,-1,22,21,23,-1,22,23,24,-1,24,23,25,-1,24,25,26,-1,26,25,2,-1,26,2,27,-1,28,29,18,-1,18,29,30,-1,18,30,19,-1,31,32,33,-1,34,35,2,-1,2,35,36,-1,2,36,0,-1,6,8,13,-1,13,8,37,-1,13,37,11,-1,38,1,39,-1,39,1,40,-1,39,40,41,-1,31,33,42,-1,42,33,43,-1,42,43,44,-1,44,43,45,-1,44,45,46,-1,4,47,10,-1,10,47,48,-1,10,48,49,-1,49,48,50,-1,49,50,31,-1,31,50,51,-1,31,51,32,-1,17,16,18,-1,18,16,52,-1,18,52,28,-1,53,54,55,-1,55,54,56,-1,55,56,57,-1,57,56,58,-1,57,58,59,-1,59,58,60,-1,59,60,61,-1,61,60,62,-1,61,62,63,-1,63,62,64,-1,63,64,65,-1,65,64,66,-1,65,66,67,-1,67,66,68,-1,67,68,69,-1,69,68,70,-1,71,72,73,-1,46,45,74,-1,74,45,75,-1,74,75,76,-1,77,78,79,-1,79,78,80,-1,79,80,55,-1,55,80,81,-1,55,81,53,-1,82,83,84,-1,84,83,85,-1,84,85,86,-1,86,85,87,-1,86,87,88,-1,88,87,89,-1,88,89,90,-1,90,89,91,-1,90,91,34,-1,34,91,92,-1,34,92,35,-1,38,93,1,-1,1,93,94,-1,1,94,2,-1,2,94,95,-1,2,95,27,-1,73,72,96,-1,96,72,97,-1,96,97,98,-1,98,97,99,-1,98,99,100,-1,100,99,101,-1,100,101,102,-1,102,101,103,-1,102,103,104,-1,104,103,105,-1,104,105,106,-1,106,105,107,-1,106,107,70,-1,70,107,108,-1,70,108,69,-1,5,109,3,-1,3,109,110,-1,3,110,111,-1,111,110,112,-1,111,112,113,-1,113,112,114,-1,113,114,82,-1,82,114,115,-1,82,115,83,-1,12,116,13,-1,13,116,117,-1,13,117,118,-1,118,117,119,-1,118,119,120,-1,120,119,121,-1,120,121,122,-1,122,121,123,-1,122,123,124,-1,124,123,125,-1,124,125,126,-1,126,125,127,-1,126,127,128,-1,128,127,129,-1,128,129,130,-1,130,129,41,-1,130,41,131,-1,131,41,40,-1,75,132,76,-1,76,132,133,-1,76,133,134,-1,134,133,135,-1,134,135,136,-1,136,135,137,-1,136,137,77,-1,77,137,138,-1,77,138,78,-1,139,140,141,-1,141,140,142,-1,142,143,141,-1,141,143,144,-1,141,144,145,-1,73,146,71,-1,71,146,141,-1,71,141,147,-1,147,141,145,-1,141,148,139,-1,139,148,149,-1,139,149,150,-1,150,151,139,-1,139,151,152,-1,139,152,153,-1,67,154,155,-1,67,155,65,-1,65,155,156,-1,65,156,63,-1,156,157,63,-1,63,157,158,-1,63,158,61,-1,158,159,61,-1,61,159,160,-1,61,160,59,-1,59,160,161,-1,59,161,57,-1,57,161,162,-1,57,162,55,-1,55,162,163,-1,55,163,79,-1,79,163,164,-1,79,164,77,-1,77,164,136,-1,136,164,165,-1,165,166,136,-1,136,166,167,-1,136,167,134,-1,134,167,168,-1,134,168,76,-1,169,44,170,-1,170,44,46,-1,170,46,171,-1,171,46,74,-1,171,74,172,-1,172,74,76,-1,172,76,168,-1,44,169,173,-1,44,173,42,-1,42,173,174,-1,42,174,31,-1,31,174,175,-1,31,175,49,-1,49,175,176,-1,49,176,10,-1,10,176,177,-1,10,177,5,-1,5,177,178,-1,5,178,109,-1,109,178,179,-1,109,179,110,-1,110,179,180,-1,110,180,112,-1,115,114,181,-1,181,114,112,-1,181,112,180,-1,181,182,115,-1,115,182,183,-1,115,183,83,-1,83,183,184,-1,184,185,83,-1,83,185,186,-1,83,186,85,-1,85,186,187,-1,85,187,87,-1,87,187,188,-1,87,188,89,-1,89,188,189,-1,89,189,91,-1,91,189,190,-1,91,190,92,-1,92,190,191,-1,92,191,35,-1,35,191,192,-1,35,192,36,-1,36,192,193,-1,36,193,0,-1,193,194,0,-1,0,194,195,-1,0,195,1,-1,1,195,196,-1,1,196,40,-1,40,196,197,-1,40,197,131,-1,197,198,131,-1,131,198,199,-1,131,199,130,-1,130,199,200,-1,130,200,128,-1,201,6,13,-1,128,200,202,-1,128,202,126,-1,126,202,203,-1,126,203,124,-1,203,204,124,-1,124,204,205,-1,124,205,122,-1,122,205,206,-1,122,206,120,-1,120,206,207,-1,120,207,118,-1,118,207,208,-1,118,208,13,-1,13,208,209,-1,13,209,201,-1,7,6,210,-1,210,6,201,-1,14,7,211,-1,211,7,210,-1,15,14,212,-1,212,14,211,-1,16,15,213,-1,213,15,212,-1,16,213,214,-1,16,214,52,-1,52,214,215,-1,52,215,28,-1,28,215,216,-1,28,216,29,-1,29,216,217,-1,29,217,30,-1,30,217,218,-1,30,218,19,-1,19,218,219,-1,19,219,21,-1,21,219,220,-1,21,220,23,-1,23,220,221,-1,23,221,25,-1,25,221,222,-1,25,222,2,-1,2,222,223,-1,2,223,34,-1,34,223,224,-1,34,224,90,-1,90,224,225,-1,90,225,88,-1,88,225,226,-1,88,226,86,-1,86,226,227,-1,86,227,84,-1,227,228,84,-1,84,228,82,-1,228,229,82,-1,82,229,230,-1,82,230,113,-1,113,230,231,-1,113,231,111,-1,231,232,111,-1,111,232,233,-1,111,233,3,-1,3,233,234,-1,3,234,4,-1,4,234,235,-1,4,235,47,-1,47,235,236,-1,47,236,48,-1,48,236,237,-1,48,237,50,-1,50,237,238,-1,50,238,51,-1,51,238,239,-1,51,239,32,-1,32,239,240,-1,32,240,33,-1,33,240,241,-1,33,241,43,-1,43,241,242,-1,43,242,45,-1,45,242,243,-1,45,243,75,-1,75,243,244,-1,75,244,132,-1,132,244,245,-1,132,245,133,-1,246,53,247,-1,247,53,81,-1,247,81,248,-1,248,81,80,-1,248,80,249,-1,249,80,78,-1,249,78,250,-1,250,78,138,-1,250,138,251,-1,251,138,137,-1,251,137,252,-1,252,137,135,-1,252,135,253,-1,253,135,133,-1,253,133,245,-1,54,53,254,-1,254,53,246,-1,54,254,255,-1,54,255,56,-1,56,255,256,-1,56,256,58,-1,58,256,257,-1,58,257,60,-1,60,257,258,-1,60,258,62,-1,62,258,259,-1,62,259,64,-1,259,260,64,-1,64,260,261,-1,64,261,66,-1,66,261,262,-1,66,262,68,-1,68,262,263,-1,68,263,70,-1,70,263,264,-1,70,264,106,-1,106,264,265,-1,106,265,104,-1,104,265,266,-1,104,266,102,-1,102,266,267,-1,102,267,100,-1,100,267,268,-1,100,268,98,-1,98,268,269,-1,98,269,96,-1,73,96,270,-1,270,96,269,-1,73,270,271,-1,73,271,146,-1,146,271,272,-1,146,272,141,-1,141,272,273,-1,141,273,148,-1,148,273,274,-1,148,274,149,-1,149,274,275,-1,149,275,150,-1,150,275,276,-1,150,276,151,-1,151,276,277,-1,151,277,152,-1,152,277,278,-1,152,278,153,-1,153,278,279,-1,153,279,139,-1,139,279,280,-1,139,280,140,-1,140,280,281,-1,140,281,142,-1,142,281,282,-1,142,282,143,-1,143,282,283,-1,143,283,144,-1,144,283,284,-1,144,284,145,-1,145,284,285,-1,145,285,147,-1,147,285,286,-1,147,286,71,-1,71,286,287,-1,71,287,72,-1,97,72,288,-1,288,72,287,-1,97,288,289,-1,97,289,99,-1,99,289,290,-1,99,290,101,-1,101,290,291,-1,101,291,103,-1,103,291,292,-1,103,292,105,-1,105,292,293,-1,105,293,107,-1,107,293,294,-1,107,294,108,-1,108,294,295,-1,108,295,69,-1,69,295,154,-1,69,154,67,-1,17,296,297,-1,17,297,9,-1,9,297,298,-1,9,298,8,-1,8,298,299,-1,8,299,37,-1,37,299,300,-1,37,300,11,-1,11,300,301,-1,11,301,12,-1,12,301,302,-1,12,302,116,-1,116,302,303,-1,116,303,117,-1,117,303,304,-1,117,304,119,-1,119,304,305,-1,119,305,121,-1,121,305,306,-1,121,306,123,-1,123,306,307,-1,123,307,125,-1,125,307,308,-1,125,308,127,-1,127,308,309,-1,127,309,129,-1,129,309,310,-1,129,310,41,-1,41,310,311,-1,41,311,39,-1,39,311,312,-1,39,312,38,-1,38,312,313,-1,38,313,93,-1,93,313,314,-1,93,314,94,-1,94,314,315,-1,94,315,95,-1,95,315,316,-1,95,316,27,-1,27,316,317,-1,27,317,26,-1,26,317,318,-1,26,318,24,-1,24,318,319,-1,24,319,22,-1,22,319,320,-1,22,320,20,-1,20,320,321,-1,20,321,18,-1,18,321,296,-1,18,296,17,-1,
        ]
    }
}
Shape{
    appearance Appearance {
        material  Material {
            diffuseColor 0.2235294117647059 0.2235294117647059 0.2235294117647059
            specularColor 0.11372549019607843 0.11372549019607843 0.11372549019607843
            ambientIntensity 0.2235
            transparency 0.0
            shininess 0.5
        }
    }
    geometry IndexedFaceSet {
        ccw TRUE
        solid FALSE
        coord DEF co Coordinate {
            point [
                0.0241 -0.5261 0.1811, 0.0172 -0.5082 0.1811, 0.0159 -0.5096 0.1811, 0.0241 -0.5056 0.1811, 0.0258 -0.5057 0.1811, 0.0266 -0.5258 0.1811, 0.0216 -0.5059 0.1811, 0.0193 -0.5068 0.1811, 0.0309 -0.5235 0.1811, 0.0323 -0.5097 0.1811, 0.0305 -0.5079 0.1811, 0.0144 -0.5193 0.1811, 0.0155 -0.5215 0.1811, 0.0172 -0.5235 0.1811, 0.0289 -0.525 0.1811, 0.0283 -0.5065 0.1811, 0.0146 -0.5118 0.1811, 0.0139 -0.5143 0.1811, 0.0138 -0.5169 0.1811, 0.0192 -0.5249 0.1811, 0.0217 -0.5259 0.1811, 0.0338 -0.5193 0.1811, 0.0343 -0.5168 0.1811, 0.0326 -0.5216 0.1811, 0.0342 -0.5142 0.1811, 0.0335 -0.5118 0.1811
            ]
        }
        coordIndex [
            0,1,2,-1,3,0,4,-1,4,0,5,-1,3,6,0,-1,0,6,7,-1,0,7,1,-1,8,9,10,-1,11,12,2,-1,2,12,13,-1,5,14,4,-1,4,14,8,-1,4,8,15,-1,15,8,10,-1,16,17,2,-1,2,17,18,-1,2,18,11,-1,13,19,2,-1,2,19,20,-1,2,20,0,-1,21,22,23,-1,23,22,24,-1,23,24,8,-1,8,24,25,-1,8,25,9,-1,
        ]
    }
}