#VRML V2.0 utf8
# 3D model generated by kicad-lcsc-manager
# Based on easyeda2kicad.py v1.0.1

Shape{
    appearance Appearance {
        material  Material {
            diffuseColor 0.9019607843137255 0.7843137254901961 0.6862745098039216
            specularColor 0.45098039215686275 0.39215686274509803 0.3411764705882353
            ambientIntensity 0.8083
            transparency 0.0
            shininess 0.5
        }
    }
    geometry IndexedFaceSet {
        ccw TRUE
        solid FALSE
        coord DEF co Coordinate {
            point [
                -223.841 350.0503 0.0079, -223.841 350.0503 0.0, -224.089 350.0503 0.0079, -224.089 350.0503 0.0, -224.1166 349.7944 0.0, -224.1166 349.7944 0.0079, -224.1166 350.0228 0.0, -224.1166 350.0228 0.0079, -223.841 349.7944 0.0079, -223.841 349.7944 0.0, -224.1095 350.0264 0.0079, -224.103 350.0311 0.0079, -224.0974 350.0367 0.0079, -224.0927 350.0432 0.0079, -224.1095 350.0264 0.0, -224.103 350.0311 0.0, -224.0927 350.0432 0.0, -224.0974 350.0367 0.0, -223.1717 349.7944 0.0079, -223.1717 349.7944 0.0, -223.1717 350.0228 0.0079, -223.1717 350.0228 0.0, -223.4473 350.0503 0.0, -223.4473 350.0503 0.0079, -223.1993 350.0503 0.0, -223.1993 350.0503 0.0079, -223.4473 349.7944 0.0079, -223.4473 349.7944 0.0, -223.1788 350.0264 0.0079, -223.1853 350.0311 0.0079, -223.1956 350.0432 0.0079, -223.1909 350.0367 0.0079, -223.1788 350.0264 0.0, -223.1853 350.0311 0.0, -223.1909 350.0367 0.0, -223.1956 350.0432 0.0, -223.1717 349.5582 0.0, -223.1717 349.5582 0.0079, -223.1717 349.3298 0.0, -223.1717 349.3298 0.0079, -223.4473 349.3023 0.0079, -223.4473 349.3023 0.0, -223.1993 349.3023 0.0079, -223.1993 349.3023 0.0, -223.4473 349.5582 0.0079, -223.4473 349.5582 0.0, -223.1956 349.3094 0.0079, -223.1909 349.3159 0.0079, -223.1788 349.3262 0.0079, -223.1853 349.3215 0.0079, -223.1788 349.3262 0.0, -223.1956 349.3094 0.0, -223.1853 349.3215 0.0, -223.1909 349.3159 0.0, -224.1166 349.5582 0.0079, -224.1166 349.5582 0.0, -224.1166 349.3298 0.0079, -224.1166 349.3298 0.0, -223.841 349.3023 0.0, -223.841 349.3023 0.0079, -224.089 349.3023 0.0, -224.089 349.3023 0.0079, -223.914 349.5582 0.0079, -223.914 349.5582 0.0, -223.841 349.4852 0.0079, -223.841 349.4852 0.0, -224.0927 349.3094 0.0079, -224.1095 349.3262 0.0079, -224.103 349.3215 0.0079, -224.0974 349.3159 0.0079, -224.1095 349.3262 0.0, -224.0927 349.3094 0.0, -224.0974 349.3159 0.0, -224.103 349.3215 0.0
            ]
        }
        coordIndex [
            0,1,2,-1,2,1,3,-1,4,5,6,-1,6,5,7,-1,0,8,1,-1,1,8,9,-1,8,5,9,-1,9,5,4,-1,7,5,10,-1,10,5,8,-1,10,8,11,-1,11,8,12,-1,0,2,8,-1,8,2,13,-1,8,13,12,-1,4,6,9,-1,9,6,14,-1,9,14,15,-1,3,1,16,-1,16,1,9,-1,16,9,17,-1,17,9,15,-1,2,3,13,-1,13,3,16,-1,13,16,12,-1,12,16,17,-1,12,17,11,-1,11,17,15,-1,11,15,10,-1,10,15,14,-1,10,14,7,-1,7,14,6,-1,18,19,20,-1,20,19,21,-1,22,23,24,-1,24,23,25,-1,26,23,27,-1,27,23,22,-1,18,26,19,-1,19,26,27,-1,18,20,26,-1,26,20,28,-1,26,28,29,-1,25,23,30,-1,30,23,26,-1,30,26,31,-1,31,26,29,-1,21,19,32,-1,32,19,27,-1,32,27,33,-1,33,27,34,-1,22,24,27,-1,27,24,35,-1,27,35,34,-1,20,21,28,-1,28,21,32,-1,28,32,29,-1,29,32,33,-1,29,33,31,-1,31,33,34,-1,31,34,30,-1,30,34,35,-1,30,35,25,-1,25,35,24,-1,36,37,38,-1,38,37,39,-1,40,41,42,-1,42,41,43,-1,44,37,45,-1,45,37,36,-1,40,44,41,-1,41,44,45,-1,40,42,44,-1,44,42,46,-1,44,46,47,-1,39,37,48,-1,48,37,44,-1,48,44,49,-1,49,44,47,-1,36,38,45,-1,45,38,50,-1,43,41,51,-1,51,41,45,-1,50,52,45,-1,45,52,53,-1,45,53,51,-1,42,43,46,-1,46,43,51,-1,46,51,47,-1,47,51,53,-1,47,53,49,-1,49,53,52,-1,49,52,48,-1,48,52,50,-1,48,50,39,-1,39,50,38,-1,54,55,56,-1,56,55,57,-1,58,59,60,-1,60,59,61,-1,54,62,55,-1,55,62,63,-1,64,59,65,-1,65,59,58,-1,62,64,63,-1,63,64,65,-1,62,54,56,-1,61,59,66,-1,66,59,64,-1,56,67,62,-1,62,67,68,-1,62,68,64,-1,64,68,69,-1,64,69,66,-1,65,58,60,-1,57,55,70,-1,70,55,63,-1,60,71,65,-1,65,71,72,-1,65,72,63,-1,63,72,73,-1,63,73,70,-1,56,57,67,-1,67,57,70,-1,67,70,68,-1,68,70,73,-1,68,73,69,-1,69,73,72,-1,69,72,66,-1,66,72,71,-1,66,71,61,-1,61,71,60,-1,
        ]
    }
}
Shape{
    appearance Appearance {
        material  Material {
            diffuseColor 0.5098039215686274 0.5098039215686274 0.6274509803921569
            specularColor 0.2549019607843137 0.2549019607843137 0.3137254901960784
            ambientIntensity 0.5232
            transparency 0.0
            shininess 0.5
        }
    }
    geometry IndexedFaceSet {
        ccw TRUE
        solid FALSE
        coord DEF co Coordinate {
            point [
                -223.152 350.0188 0.0079, -223.152 350.0188 0.1654, -223.152 349.5975 0.0079, -223.152 349.3338 0.1654, -223.152 349.3338 0.0079, -224.0851 350.07 0.0079, -224.0851 350.07 0.1654, -223.5667 350.07 0.0079, -223.2032 350.07 0.1654, -223.2032 350.07 0.0079, -224.1363 350.0188 0.1654, -224.1363 350.0188 0.0079, -224.1363 349.3338 0.1654, -224.1363 349.5975 0.0079, -224.1363 349.3338 0.0079, -224.0851 349.2826 0.1654, -224.0851 349.2826 0.0079, -223.2032 349.2826 0.1654, -223.5667 349.2826 0.0079, -223.2032 349.2826 0.0079, -224.123 349.332 0.0079, -223.2015 349.2958 0.0079, -223.521 349.7227 0.0079, -223.5075 349.7212 0.0079, -223.5533 349.6207 0.0079, -223.5378 349.7206 0.0079, -223.3685 349.5984 0.0079, -223.5062 349.5975 0.0079, -223.439 349.5984 0.0079, -223.5001 349.5981 0.0079, -223.4861 349.6026 0.0079, -223.2015 350.0568 0.0079, -223.4693 349.6658 0.0079, -223.5508 349.6193 0.0079, -223.4705 349.6516 0.0079, -223.5362 349.6139 0.0079, -223.5179 349.6118 0.0079, -223.5533 349.7139 0.0079, -223.5533 349.7324 0.0079, -223.4972 349.7175 0.0079, -223.4876 349.7111 0.0079, -223.4793 349.702 0.0079, -223.3869 349.7362 0.0079, -223.4736 349.6913 0.0079, -223.4699 349.6766 0.0079, -223.4872 349.6221 0.0079, -223.4799 349.6297 0.0079, -223.4743 349.6393 0.0079, -223.4958 349.6166 0.0079, -223.5059 349.6131 0.0079, -223.1963 350.0444 0.0079, -223.1882 350.0338 0.0079, -223.3685 349.7362 0.0079, -223.1776 350.0257 0.0079, -223.4568 349.697 0.0079, -223.4643 349.7104 0.0079, -223.4756 349.7224 0.0079, -223.4899 349.7315 0.0079, -223.5052 349.7364 0.0079, -223.5209 349.7379 0.0079, -223.5374 349.7367 0.0079, -223.4749 349.6094 0.0079, -223.4643 349.6201 0.0079, -223.439 349.6135 0.0079, -223.4567 349.633 0.0079, -223.3869 349.6135 0.0079, -223.4523 349.6475 0.0079, -223.4508 349.6647 0.0079, -223.4522 349.6811 0.0079, -223.1963 349.3082 0.0079, -223.1653 349.332 0.0079, -223.1653 350.0206 0.0079, -223.5533 349.6055 0.0079, -223.5386 349.5995 0.0079, -223.5667 349.5975 0.0079, -223.5264 349.5975 0.0079, -223.1776 349.3269 0.0079, -223.1882 349.3188 0.0079, -223.5154 349.5967 0.0079, -223.5226 349.5969 0.0079, -223.6541 349.5984 0.0079, -223.5802 349.5984 0.0079, -223.5802 349.7362 0.0079, -223.7859 349.638 0.0079, -223.7784 349.6255 0.0079, -223.802 349.5984 0.0079, -223.7674 349.6143 0.0079, -223.6508 349.7211 0.0079, -223.5987 349.7211 0.0079, -223.5987 349.6757 0.0079, -223.7537 349.6056 0.0079, -223.7378 349.6003 0.0079, -223.7185 349.5984 0.0079, -223.681 349.7362 0.0079, -223.6474 349.6757 0.0079, -223.6474 349.6606 0.0079, -223.5987 349.6606 0.0079, -223.5987 349.6135 0.0079, -223.6541 349.6135 0.0079, -223.681 349.5984 0.0079, -223.7525 349.73 0.0079, -223.8541 349.7362 0.0079, -223.7367 349.7347 0.0079, -223.7199 349.7362 0.0079, -223.7678 349.7209 0.0079, -223.7793 349.7095 0.0079, -223.7862 349.6979 0.0079, -223.6508 349.7362 0.0079, -223.9264 349.5984 0.0079, -223.9062 349.5984 0.0079, -223.7905 349.6844 0.0079, -223.7919 349.669 0.0079, -223.7905 349.653 0.0079, -224.0868 350.0568 0.0079, -223.8726 349.7362 0.0079, -224.0919 350.0444 0.0079, -224.123 350.0206 0.0079, -224.1107 350.0257 0.0079, -224.1001 350.0338 0.0079, -223.8222 349.5984 0.0079, -224.0868 349.2958 0.0079, -224.0919 349.3082 0.0079, -224.1001 349.3188 0.0079, -224.1107 349.3269 0.0079, -223.8353 349.637 0.0079, -223.8922 349.637 0.0079, -223.1653 349.332 0.1654, -223.2047 349.3764 0.1654, -223.2027 349.3917 0.1654, -224.0856 349.9609 0.1654, -224.0836 349.9762 0.1654, -223.2015 350.0568 0.1654, -223.2465 350.0179 0.1654, -223.2015 349.2958 0.1654, -224.123 350.0206 0.1654, -224.0919 349.3082 0.1654, -224.0868 349.2958 0.1654, -224.0561 349.3406 0.1654, -224.0418 349.3347 0.1654, -224.0418 350.0179 0.1654, -224.0868 350.0568 0.1654, -224.0919 350.0444 0.1654, -224.0856 349.3917 0.1654, -224.0836 349.3764 0.1654, -224.123 349.332 0.1654, -224.1107 349.3269 0.1654, -224.0265 350.0199 0.1654, -223.2618 350.0199 0.1654, -223.1776 349.3269 0.1654, -223.2106 349.3622 0.1654, -223.1882 349.3188 0.1654, -223.22 349.3499 0.1654, -223.1963 349.3082 0.1654, -223.2322 349.3406 0.1654, -224.1107 350.0257 0.1654, -224.0777 349.9904 0.1654, -224.1001 350.0338 0.1654, -224.0683 350.0026 0.1654, -224.0561 350.012 0.1654, -223.2027 349.9609 0.1654, -223.2047 349.9762 0.1654, -223.1653 350.0206 0.1654, -223.1776 350.0257 0.1654, -224.1001 349.3188 0.1654, -224.0683 349.3499 0.1654, -224.0777 349.3622 0.1654, -223.1963 350.0444 0.1654, -223.2322 350.012 0.1654, -223.1882 350.0338 0.1654, -223.22 350.0026 0.1654, -223.2106 349.9904 0.1654, -223.2465 349.3347 0.1654, -223.2618 349.3327 0.1654, -224.0265 349.3327 0.1654
            ]
        }
        coordIndex [
            0,1,2,-1,2,1,3,-1,2,3,4,-1,5,6,7,-1,7,6,8,-1,7,8,9,-1,10,11,12,-1,12,11,13,-1,12,13,14,-1,15,16,17,-1,17,16,18,-1,17,18,19,-1,20,14,13,-1,21,19,18,-1,22,23,24,-1,22,24,25,-1,26,27,28,-1,28,27,29,-1,28,29,30,-1,7,9,31,-1,24,32,33,-1,33,32,34,-1,33,34,35,-1,35,34,36,-1,25,24,37,-1,37,24,7,-1,37,7,38,-1,23,39,24,-1,24,39,40,-1,24,40,41,-1,7,31,42,-1,41,43,24,-1,24,43,44,-1,24,44,32,-1,45,34,46,-1,46,34,47,-1,45,48,34,-1,34,48,49,-1,34,49,36,-1,31,50,42,-1,42,50,51,-1,42,51,52,-1,52,51,53,-1,54,55,42,-1,42,55,56,-1,42,56,7,-1,7,56,57,-1,7,57,58,-1,58,59,7,-1,7,59,60,-1,7,60,38,-1,30,61,28,-1,28,61,62,-1,28,62,63,-1,63,62,64,-1,63,64,65,-1,64,66,65,-1,65,66,67,-1,65,67,42,-1,42,67,68,-1,42,68,54,-1,21,18,69,-1,2,4,70,-1,53,71,52,-1,52,71,0,-1,52,0,26,-1,26,0,2,-1,26,2,27,-1,27,2,70,-1,72,73,74,-1,74,73,75,-1,74,75,69,-1,70,76,27,-1,27,76,77,-1,27,77,78,-1,78,77,69,-1,78,69,79,-1,79,69,75,-1,80,81,74,-1,74,81,82,-1,83,84,85,-1,85,84,86,-1,87,88,89,-1,86,90,85,-1,85,90,91,-1,85,91,92,-1,93,94,95,-1,96,97,95,-1,95,97,98,-1,95,98,93,-1,93,98,80,-1,93,80,99,-1,99,80,74,-1,100,101,102,-1,102,101,103,-1,100,104,101,-1,101,104,105,-1,101,105,106,-1,89,94,87,-1,87,94,93,-1,87,93,107,-1,107,93,5,-1,107,5,82,-1,82,5,7,-1,82,7,74,-1,74,7,24,-1,74,24,72,-1,11,108,13,-1,13,108,109,-1,106,110,101,-1,101,110,111,-1,101,111,85,-1,85,111,112,-1,85,112,83,-1,93,103,5,-1,5,103,101,-1,5,101,113,-1,113,101,114,-1,113,114,115,-1,11,116,108,-1,108,116,117,-1,108,117,114,-1,114,117,118,-1,114,118,115,-1,119,85,74,-1,74,85,92,-1,74,92,99,-1,120,121,74,-1,74,121,122,-1,69,18,74,-1,74,18,16,-1,74,16,120,-1,20,13,123,-1,122,123,74,-1,74,123,13,-1,74,13,119,-1,119,13,109,-1,119,109,124,-1,124,109,125,-1,126,3,127,-1,127,3,128,-1,129,130,10,-1,131,8,132,-1,15,17,133,-1,10,130,134,-1,135,136,137,-1,137,136,15,-1,137,15,138,-1,139,140,141,-1,129,10,142,-1,142,10,12,-1,142,12,143,-1,143,12,144,-1,143,144,145,-1,140,139,6,-1,6,139,146,-1,6,146,8,-1,8,146,147,-1,8,147,132,-1,126,127,148,-1,148,127,149,-1,148,149,150,-1,150,149,151,-1,150,151,152,-1,152,151,153,-1,152,153,133,-1,134,130,154,-1,154,130,155,-1,154,155,156,-1,156,155,157,-1,156,157,141,-1,141,157,158,-1,141,158,139,-1,128,3,159,-1,159,3,1,-1,159,1,160,-1,160,1,161,-1,160,161,162,-1,135,137,163,-1,163,137,164,-1,163,164,145,-1,145,164,165,-1,145,165,143,-1,131,132,166,-1,166,132,167,-1,166,167,168,-1,168,167,169,-1,168,169,162,-1,162,169,170,-1,162,170,160,-1,153,171,133,-1,133,171,172,-1,133,172,15,-1,15,172,173,-1,15,173,138,-1,
        ]
    }
}
Shape{
    appearance Appearance {
        material  Material {
            diffuseColor 0.9019607843137255 0.7843137254901961 0.6862745098039216
            specularColor 0.45098039215686275 0.39215686274509803 0.3411764705882353
            ambientIntensity 0.8083
            transparency 0.0
            shininess 0.5
        }
    }
    geometry IndexedFaceSet {
        ccw TRUE
        solid FALSE
        coord DEF co Coordinate {
            point [
                -223.2027 349.9609 0.2244, -223.2027 349.3917 0.2244, -223.2027 349.9609 0.1654, -223.2027 349.3917 0.1654, -223.2618 350.0199 0.1654, -224.0265 350.0199 0.1654, -223.2618 350.0199 0.2244, -224.0265 350.0199 0.2244, -224.0856 349.3917 0.2244, -224.0856 349.9609 0.2244, -224.0856 349.3917 0.1654, -224.0856 349.9609 0.1654, -223.2618 349.3327 0.2244, -224.0265 349.3327 0.2244, -223.2618 349.3327 0.1654, -224.0265 349.3327 0.1654
            ]
        }
        coordIndex [
            0,1,2,-1,2,1,3,-1,4,5,6,-1,6,5,7,-1,8,9,10,-1,10,9,11,-1,12,13,14,-1,14,13,15,-1,
        ]
    }
}
Shape{
    appearance Appearance {
        material  Material {
            diffuseColor 0.5098039215686274 0.5098039215686274 0.6274509803921569
            specularColor 0.2549019607843137 0.2549019607843137 0.3137254901960784
            ambientIntensity 0.5232
            transparency 0.0
            shininess 0.5
        }
    }
    geometry IndexedFaceSet {
        ccw TRUE
        solid FALSE
        coord DEF co Coordinate {
            point [
                -224.0856 349.3917 0.2244, -223.2027 349.3917 0.2244, -224.0856 349.9609 0.2244, -223.2027 349.9609 0.2244, -224.0265 349.3327 0.2244, -223.2618 349.3327 0.2244, -223.2047 349.3764 0.2244, -223.2106 349.3622 0.2244, -223.2106 349.9904 0.2244, -223.2618 350.0199 0.2244, -223.2047 349.9762 0.2244, -224.0265 350.0199 0.2244, -224.0836 349.9762 0.2244, -223.22 349.3499 0.2244, -223.2465 349.3347 0.2244, -223.2322 349.3406 0.2244, -223.22 350.0026 0.2244, -223.2322 350.012 0.2244, -223.2465 350.0179 0.2244, -224.0418 350.0179 0.2244, -224.0561 350.012 0.2244, -224.0836 349.3764 0.2244, -224.0777 349.3622 0.2244, -224.0418 349.3347 0.2244, -224.0683 349.3499 0.2244, -224.0561 349.3406 0.2244, -224.0683 350.0026 0.2244, -224.0777 349.9904 0.2244
            ]
        }
        coordIndex [
            0,1,2,-1,2,1,3,-1,0,4,1,-1,1,4,5,-1,1,5,6,-1,6,5,7,-1,8,9,10,-1,10,9,3,-1,3,9,2,-1,2,9,11,-1,2,11,12,-1,7,5,13,-1,13,5,14,-1,13,14,15,-1,8,16,9,-1,9,16,17,-1,9,17,18,-1,11,19,20,-1,0,21,4,-1,4,21,22,-1,4,22,23,-1,23,22,24,-1,23,24,25,-1,20,26,11,-1,11,26,27,-1,11,27,12,-1,
        ]
    }
}
Shape{
    appearance Appearance {
        material  Material {
            diffuseColor 0.9019607843137255 0.7843137254901961 0.6862745098039216
            specularColor 0.45098039215686275 0.39215686274509803 0.3411764705882353
            ambientIntensity 0.8083
            transparency 0.0
            shininess 0.5
        }
    }
    geometry IndexedFaceSet {
        ccw TRUE
        solid FALSE
        coord DEF co Coordinate {
            point [
                -223.2027 349.9609 0.2244, -223.2027 349.9609 0.1654, -223.2047 349.9762 0.1654, -223.2047 349.9762 0.2244, -223.2106 349.9904 0.1654, -223.2106 349.9904 0.2244, -223.22 350.0026 0.1654, -223.22 350.0026 0.2244, -223.2322 350.012 0.1654, -223.2322 350.012 0.2244, -223.2465 350.0179 0.1654, -223.2465 350.0179 0.2244, -223.2618 350.0199 0.1654, -223.2618 350.0199 0.2244, -223.2618 349.3327 0.2244, -223.2618 349.3327 0.1654, -223.2465 349.3347 0.1654, -223.2465 349.3347 0.2244, -223.2322 349.3406 0.1654, -223.2322 349.3406 0.2244, -223.22 349.3499 0.1654, -223.22 349.3499 0.2244, -223.2106 349.3622 0.1654, -223.2106 349.3622 0.2244, -223.2047 349.3764 0.1654, -223.2047 349.3764 0.2244, -223.2027 349.3917 0.1654, -223.2027 349.3917 0.2244, -224.0856 349.3917 0.2244, -224.0856 349.3917 0.1654, -224.0836 349.3764 0.1654, -224.0836 349.3764 0.2244, -224.0777 349.3622 0.1654, -224.0777 349.3622 0.2244, -224.0683 349.3499 0.1654, -224.0683 349.3499 0.2244, -224.0561 349.3406 0.1654, -224.0561 349.3406 0.2244, -224.0418 349.3347 0.1654, -224.0418 349.3347 0.2244, -224.0265 349.3327 0.1654, -224.0265 349.3327 0.2244, -224.0265 350.0199 0.2244, -224.0265 350.0199 0.1654, -224.0418 350.0179 0.1654, -224.0418 350.0179 0.2244, -224.0561 350.012 0.1654, -224.0561 350.012 0.2244, -224.0683 350.0026 0.1654, -224.0683 350.0026 0.2244, -224.0777 349.9904 0.1654, -224.0777 349.9904 0.2244, -224.0836 349.9762 0.1654, -224.0836 349.9762 0.2244, -224.0856 349.9609 0.1654, -224.0856 349.9609 0.2244
            ]
        }
        coordIndex [
            0,1,2,-1,0,2,3,-1,3,2,4,-1,3,4,5,-1,5,4,6,-1,5,6,7,-1,7,6,8,-1,7,8,9,-1,9,8,10,-1,9,10,11,-1,11,10,12,-1,11,12,13,-1,14,15,16,-1,14,16,17,-1,17,16,18,-1,17,18,19,-1,19,18,20,-1,19,20,21,-1,21,20,22,-1,21,22,23,-1,23,22,24,-1,23,24,25,-1,25,24,26,-1,25,26,27,-1,28,29,30,-1,28,30,31,-1,31,30,32,-1,31,32,33,-1,33,32,34,-1,33,34,35,-1,35,34,36,-1,35,36,37,-1,37,36,38,-1,37,38,39,-1,39,38,40,-1,39,40,41,-1,42,43,44,-1,42,44,45,-1,45,44,46,-1,45,46,47,-1,47,46,48,-1,47,48,49,-1,49,48,50,-1,49,50,51,-1,51,50,52,-1,51,52,53,-1,53,52,54,-1,53,54,55,-1,
        ]
    }
}
Shape{
    appearance Appearance {
        material  Material {
            diffuseColor 1.0 1.0 1.0
            specularColor 0.8784313725490196 0.8784313725490196 0.8784313725490196
            ambientIntensity 1.0
            transparency 0.0
            shininess 0.5
        }
    }
    geometry IndexedFaceSet {
        ccw TRUE
        solid FALSE
        coord DEF co Coordinate {
            point [
                -223.8726 349.7362 0.0118, -223.9264 349.5984 0.0118, -223.8726 349.7362 0.0079, -223.9264 349.5984 0.0079, -223.9062 349.5984 0.0118, -223.9062 349.5984 0.0079, -223.8922 349.637 0.0118, -223.8922 349.637 0.0079, -223.8353 349.637 0.0118, -223.8353 349.637 0.0079, -223.8222 349.5984 0.0118, -223.8222 349.5984 0.0079, -223.802 349.5984 0.0118, -223.802 349.5984 0.0079, -223.8541 349.7362 0.0118, -223.8541 349.7362 0.0079, -223.84 349.6522 0.0118, -223.8861 349.6522 0.0118, -223.8605 349.7097 0.0118, -223.8619 349.7145 0.0118, -223.8627 349.7194 0.0118, -223.8632 349.7194 0.0118, -223.8641 349.7145 0.0118, -223.8653 349.7097 0.0118, -223.84 349.6522 0.0079, -223.8861 349.6522 0.0079, -223.8605 349.7097 0.0079, -223.8619 349.7145 0.0079, -223.8627 349.7194 0.0079, -223.8632 349.7194 0.0079, -223.8641 349.7145 0.0079, -223.8653 349.7097 0.0079, -223.7185 349.5984 0.0118, -223.681 349.5984 0.0118, -223.7185 349.5984 0.0079, -223.681 349.5984 0.0079, -223.681 349.7362 0.0118, -223.681 349.7362 0.0079, -223.7199 349.7362 0.0118, -223.7199 349.7362 0.0079, -223.7919 349.669 0.0118, -223.7919 349.669 0.0079, -223.7905 349.6844 0.0079, -223.7905 349.6844 0.0118, -223.7862 349.6979 0.0079, -223.7862 349.6979 0.0118, -223.7793 349.7095 0.0079, -223.7793 349.7095 0.0118, -223.7678 349.7209 0.0079, -223.7678 349.7209 0.0118, -223.7525 349.73 0.0079, -223.7525 349.73 0.0118, -223.7367 349.7347 0.0079, -223.7367 349.7347 0.0118, -223.7378 349.6003 0.0079, -223.7378 349.6003 0.0118, -223.7537 349.6056 0.0079, -223.7537 349.6056 0.0118, -223.7674 349.6143 0.0079, -223.7674 349.6143 0.0118, -223.7784 349.6255 0.0079, -223.7784 349.6255 0.0118, -223.7859 349.638 0.0079, -223.7859 349.638 0.0118, -223.7905 349.653 0.0079, -223.7905 349.653 0.0118, -223.7723 349.682 0.0118, -223.7734 349.6686 0.0118, -223.7734 349.6685 0.0118, -223.7717 349.6517 0.0118, -223.768 349.6409 0.0118, -223.7622 349.6315 0.0118, -223.7544 349.6239 0.0118, -223.7449 349.6184 0.0118, -223.733 349.6147 0.0118, -223.7191 349.6135 0.0118, -223.6995 349.6135 0.0118, -223.6995 349.7211 0.0118, -223.7198 349.7211 0.0118, -223.7362 349.7193 0.0118, -223.7475 349.7153 0.0118, -223.7576 349.7088 0.0118, -223.7643 349.7017 0.0118, -223.7691 349.6932 0.0118, -223.7198 349.7211 0.0079, -223.6995 349.7211 0.0079, -223.7362 349.7193 0.0079, -223.7475 349.7153 0.0079, -223.7576 349.7088 0.0079, -223.7643 349.7017 0.0079, -223.7691 349.6932 0.0079, -223.7723 349.682 0.0079, -223.7734 349.6686 0.0079, -223.7734 349.6685 0.0079, -223.7717 349.6517 0.0079, -223.768 349.6409 0.0079, -223.7622 349.6315 0.0079, -223.7544 349.6239 0.0079, -223.7449 349.6184 0.0079, -223.733 349.6147 0.0079, -223.7191 349.6135 0.0079, -223.6995 349.6135 0.0079, -223.6541 349.6135 0.0118, -223.6541 349.5984 0.0118, -223.6541 349.6135 0.0079, -223.6541 349.5984 0.0079, -223.5802 349.5984 0.0118, -223.5802 349.5984 0.0079, -223.5802 349.7362 0.0118, -223.5802 349.7362 0.0079, -223.6508 349.7362 0.0118, -223.6508 349.7362 0.0079, -223.6508 349.7211 0.0118, -223.6508 349.7211 0.0079, -223.5987 349.7211 0.0118, -223.5987 349.7211 0.0079, -223.5987 349.6757 0.0118, -223.5987 349.6757 0.0079, -223.6474 349.6757 0.0118, -223.6474 349.6757 0.0079, -223.6474 349.6606 0.0118, -223.6474 349.6606 0.0079, -223.5987 349.6606 0.0118, -223.5987 349.6606 0.0079, -223.5987 349.6135 0.0118, -223.5987 349.6135 0.0079, -223.5533 349.6207 0.0118, -223.5533 349.6055 0.0118, -223.5533 349.6207 0.0079, -223.5533 349.6055 0.0079, -223.5386 349.5995 0.0118, -223.5154 349.5967 0.0118, -223.5154 349.5967 0.0079, -223.5226 349.5969 0.0079, -223.5226 349.5969 0.0118, -223.5264 349.5975 0.0079, -223.5386 349.5995 0.0079, -223.5062 349.5975 0.0079, -223.5001 349.5981 0.0118, -223.5001 349.5981 0.0079, -223.4861 349.6026 0.0118, -223.4861 349.6026 0.0079, -223.4749 349.6094 0.0118, -223.4749 349.6094 0.0079, -223.4643 349.6201 0.0118, -223.4643 349.6201 0.0079, -223.4567 349.633 0.0118, -223.4567 349.633 0.0079, -223.4523 349.6475 0.0118, -223.4523 349.6475 0.0079, -223.4508 349.6647 0.0118, -223.4508 349.6647 0.0079, -223.5209 349.7379 0.0118, -223.5209 349.7379 0.0079, -223.5052 349.7364 0.0079, -223.5052 349.7364 0.0118, -223.4899 349.7315 0.0079, -223.4899 349.7315 0.0118, -223.4756 349.7224 0.0079, -223.4756 349.7224 0.0118, -223.4643 349.7104 0.0079, -223.4643 349.7104 0.0118, -223.4568 349.697 0.0079, -223.4568 349.697 0.0118, -223.4522 349.6811 0.0079, -223.4522 349.6811 0.0118, -223.5533 349.7324 0.0118, -223.5533 349.7324 0.0079, -223.5374 349.7367 0.0079, -223.5374 349.7367 0.0118, -223.5533 349.7139 0.0118, -223.5533 349.7139 0.0079, -223.521 349.7227 0.0118, -223.521 349.7227 0.0079, -223.5378 349.7206 0.0079, -223.5378 349.7206 0.0118, -223.4693 349.6658 0.0118, -223.4693 349.6658 0.0079, -223.4699 349.6766 0.0079, -223.4699 349.6766 0.0118, -223.4736 349.6913 0.0079, -223.4736 349.6913 0.0118, -223.4793 349.702 0.0079, -223.4793 349.702 0.0118, -223.4876 349.7111 0.0079, -223.4876 349.7111 0.0118, -223.4972 349.7175 0.0079, -223.4972 349.7175 0.0118, -223.5075 349.7212 0.0079, -223.5075 349.7212 0.0118, -223.5179 349.6118 0.0118, -223.5179 349.6118 0.0079, -223.5059 349.6131 0.0079, -223.5059 349.6131 0.0118, -223.4958 349.6166 0.0079, -223.4958 349.6166 0.0118, -223.4872 349.6221 0.0079, -223.4872 349.6221 0.0118, -223.4799 349.6297 0.0079, -223.4799 349.6297 0.0118, -223.4743 349.6393 0.0079, -223.4743 349.6393 0.0118, -223.4705 349.6516 0.0079, -223.4705 349.6516 0.0118, -223.5508 349.6193 0.0079, -223.5508 349.6193 0.0118, -223.5362 349.6139 0.0079, -223.5362 349.6139 0.0118, -223.439 349.6135 0.0118, -223.439 349.5984 0.0118, -223.439 349.6135 0.0079, -223.439 349.5984 0.0079, -223.3685 349.5984 0.0118, -223.3685 349.5984 0.0079, -223.3685 349.7362 0.0118, -223.3685 349.7362 0.0079, -223.3869 349.7362 0.0118, -223.3869 349.7362 0.0079, -223.3869 349.6135 0.0118, -223.3869 349.6135 0.0079
            ]
        }
        coordIndex [
            0,1,2,-1,2,1,3,-1,1,4,3,-1,3,4,5,-1,4,6,5,-1,5,6,7,-1,6,8,7,-1,7,8,9,-1,8,10,9,-1,9,10,11,-1,10,12,11,-1,11,12,13,-1,12,14,13,-1,13,14,15,-1,14,0,15,-1,15,0,2,-1,16,8,17,-1,17,8,6,-1,18,14,16,-1,16,14,12,-1,16,12,8,-1,8,12,10,-1,18,19,14,-1,14,19,20,-1,14,20,0,-1,0,20,21,-1,0,21,22,-1,22,23,0,-1,0,23,17,-1,0,17,1,-1,1,17,6,-1,1,6,4,-1,16,17,24,-1,24,17,25,-1,18,16,26,-1,26,16,24,-1,18,26,27,-1,18,27,19,-1,19,27,28,-1,19,28,20,-1,21,20,29,-1,29,20,28,-1,21,29,30,-1,21,30,22,-1,22,30,31,-1,22,31,23,-1,17,23,25,-1,25,23,31,-1,32,33,34,-1,34,33,35,-1,33,36,35,-1,35,36,37,-1,36,38,37,-1,37,38,39,-1,40,41,42,-1,40,42,43,-1,43,42,44,-1,43,44,45,-1,45,44,46,-1,45,46,47,-1,47,46,48,-1,47,48,49,-1,49,48,50,-1,49,50,51,-1,51,50,52,-1,51,52,53,-1,53,52,39,-1,53,39,38,-1,32,34,54,-1,32,54,55,-1,55,54,56,-1,55,56,57,-1,57,56,58,-1,57,58,59,-1,59,58,60,-1,59,60,61,-1,61,60,62,-1,61,62,63,-1,63,62,64,-1,63,64,65,-1,65,64,41,-1,65,41,40,-1,66,67,40,-1,40,67,68,-1,40,68,65,-1,65,68,69,-1,65,69,63,-1,63,69,70,-1,63,70,61,-1,61,70,71,-1,61,71,59,-1,59,71,72,-1,59,72,57,-1,57,72,73,-1,57,73,55,-1,55,73,74,-1,55,74,32,-1,32,74,75,-1,32,75,33,-1,33,75,76,-1,33,76,36,-1,36,76,77,-1,36,77,38,-1,38,77,78,-1,38,78,53,-1,53,78,79,-1,53,79,51,-1,51,79,80,-1,51,80,49,-1,49,80,81,-1,49,81,47,-1,47,81,82,-1,47,82,45,-1,45,82,83,-1,45,83,43,-1,43,83,66,-1,43,66,40,-1,78,77,84,-1,84,77,85,-1,78,84,86,-1,78,86,79,-1,79,86,87,-1,79,87,80,-1,80,87,88,-1,80,88,81,-1,81,88,89,-1,81,89,82,-1,82,89,90,-1,82,90,83,-1,83,90,91,-1,83,91,66,-1,66,91,92,-1,66,92,67,-1,67,92,93,-1,67,93,68,-1,68,93,94,-1,68,94,69,-1,69,94,95,-1,69,95,70,-1,70,95,96,-1,70,96,71,-1,71,96,97,-1,71,97,72,-1,72,97,98,-1,72,98,73,-1,73,98,99,-1,73,99,74,-1,74,99,100,-1,74,100,75,-1,76,75,101,-1,101,75,100,-1,77,76,85,-1,85,76,101,-1,102,103,104,-1,104,103,105,-1,103,106,105,-1,105,106,107,-1,106,108,107,-1,107,108,109,-1,108,110,109,-1,109,110,111,-1,110,112,111,-1,111,112,113,-1,112,114,113,-1,113,114,115,-1,114,116,115,-1,115,116,117,-1,116,118,117,-1,117,118,119,-1,118,120,119,-1,119,120,121,-1,120,122,121,-1,121,122,123,-1,122,124,123,-1,123,124,125,-1,124,102,125,-1,125,102,104,-1,106,103,102,-1,102,124,106,-1,106,124,122,-1,106,122,108,-1,112,110,114,-1,114,110,108,-1,114,108,116,-1,116,108,122,-1,116,122,118,-1,118,122,120,-1,126,127,128,-1,128,127,129,-1,129,127,130,-1,131,132,133,-1,131,133,134,-1,134,133,135,-1,134,135,130,-1,130,135,136,-1,130,136,129,-1,132,131,137,-1,137,131,138,-1,137,138,139,-1,139,138,140,-1,139,140,141,-1,141,140,142,-1,141,142,143,-1,143,142,144,-1,143,144,145,-1,145,144,146,-1,145,146,147,-1,147,146,148,-1,147,148,149,-1,149,148,150,-1,149,150,151,-1,152,153,154,-1,152,154,155,-1,155,154,156,-1,155,156,157,-1,157,156,158,-1,157,158,159,-1,159,158,160,-1,159,160,161,-1,161,160,162,-1,161,162,163,-1,163,162,164,-1,163,164,165,-1,165,164,151,-1,165,151,150,-1,166,167,168,-1,166,168,169,-1,169,168,153,-1,169,153,152,-1,166,170,167,-1,167,170,171,-1,172,173,174,-1,172,174,175,-1,175,174,171,-1,175,171,170,-1,176,177,178,-1,176,178,179,-1,179,178,180,-1,179,180,181,-1,181,180,182,-1,181,182,183,-1,183,182,184,-1,183,184,185,-1,185,184,186,-1,185,186,187,-1,187,186,188,-1,187,188,189,-1,189,188,173,-1,189,173,172,-1,190,191,192,-1,190,192,193,-1,193,192,194,-1,193,194,195,-1,195,194,196,-1,195,196,197,-1,197,196,198,-1,197,198,199,-1,199,198,200,-1,199,200,201,-1,201,200,202,-1,201,202,203,-1,203,202,177,-1,203,177,176,-1,126,128,204,-1,126,204,205,-1,205,204,206,-1,205,206,207,-1,207,206,191,-1,207,191,190,-1,190,134,207,-1,207,134,130,-1,207,130,205,-1,205,130,127,-1,205,127,126,-1,170,166,175,-1,175,166,169,-1,175,169,172,-1,172,169,152,-1,172,152,189,-1,189,152,155,-1,189,155,187,-1,187,155,157,-1,187,157,185,-1,185,157,159,-1,185,159,183,-1,183,159,161,-1,183,161,181,-1,181,161,163,-1,181,163,179,-1,179,163,165,-1,179,165,176,-1,176,165,150,-1,176,150,203,-1,203,150,148,-1,203,148,201,-1,201,148,146,-1,201,146,199,-1,199,146,144,-1,199,144,197,-1,197,144,142,-1,197,142,195,-1,195,142,140,-1,195,140,193,-1,193,140,138,-1,193,138,190,-1,190,138,131,-1,190,131,134,-1,208,209,210,-1,210,209,211,-1,209,212,211,-1,211,212,213,-1,212,214,213,-1,213,214,215,-1,214,216,215,-1,215,216,217,-1,216,218,217,-1,217,218,219,-1,218,208,219,-1,219,208,210,-1,216,214,218,-1,218,214,212,-1,218,212,208,-1,208,212,209,-1,
        ]
    }
}
Shape{
    appearance Appearance {
        material  Material {
            diffuseColor 0.5098039215686274 0.5098039215686274 0.6274509803921569
            specularColor 0.2549019607843137 0.2549019607843137 0.3137254901960784
            ambientIntensity 0.5232
            transparency 0.0
            shininess 0.5
        }
    }
    geometry IndexedFaceSet {
        ccw TRUE
        solid FALSE
        coord DEF co Coordinate {
            point [
                -223.84 349.6522 0.0079, -223.8861 349.6522 0.0079, -223.8605 349.7097 0.0079, -223.8653 349.7097 0.0079, -223.8619 349.7145 0.0079, -223.8641 349.7145 0.0079, -223.8627 349.7194 0.0079, -223.8632 349.7194 0.0079, -223.7362 349.7193 0.0079, -223.7198 349.7211 0.0079, -223.7691 349.6932 0.0079, -223.768 349.6409 0.0079, -223.7717 349.6517 0.0079, -223.6995 349.7211 0.0079, -223.7734 349.6685 0.0079, -223.7734 349.6686 0.0079, -223.7723 349.682 0.0079, -223.6995 349.6135 0.0079, -223.7191 349.6135 0.0079, -223.733 349.6147 0.0079, -223.7449 349.6184 0.0079, -223.7544 349.6239 0.0079, -223.7622 349.6315 0.0079, -223.7643 349.7017 0.0079, -223.7576 349.7088 0.0079, -223.7475 349.7153 0.0079
            ]
        }
        coordIndex [
            0,1,2,-1,2,1,3,-1,2,3,4,-1,4,3,5,-1,4,5,6,-1,6,5,7,-1,8,9,10,-1,11,12,13,-1,12,14,13,-1,13,14,15,-1,13,15,9,-1,9,15,16,-1,9,16,10,-1,17,18,13,-1,13,18,19,-1,13,19,20,-1,20,21,13,-1,13,21,22,-1,13,22,11,-1,23,24,10,-1,10,24,25,-1,10,25,8,-1,
        ]
    }
}
Shape{
    appearance Appearance {
        material  Material {
            diffuseColor 0.9019607843137255 0.7843137254901961 0.6862745098039216
            specularColor 0.45098039215686275 0.39215686274509803 0.3411764705882353
            ambientIntensity 0.8083
            transparency 0.0
            shininess 0.5
        }
    }
    geometry IndexedFaceSet {
        ccw TRUE
        solid FALSE
        coord DEF co Coordinate {
            point [
                -223.2032 349.2826 0.1654, -223.2032 349.2826 0.0079, -223.2015 349.2958 0.1654, -223.2015 349.2958 0.0079, -223.1963 349.3082 0.1654, -223.1963 349.3082 0.0079, -223.1882 349.3188 0.1654, -223.1882 349.3188 0.0079, -223.1776 349.3269 0.1654, -223.1776 349.3269 0.0079, -223.1653 349.332 0.1654, -223.1653 349.332 0.0079, -223.152 349.3338 0.1654, -223.152 349.3338 0.0079, -224.1363 349.3338 0.1654, -224.1363 349.3338 0.0079, -224.123 349.332 0.1654, -224.123 349.332 0.0079, -224.1107 349.3269 0.1654, -224.1107 349.3269 0.0079, -224.1001 349.3188 0.1654, -224.1001 349.3188 0.0079, -224.0919 349.3082 0.1654, -224.0919 349.3082 0.0079, -224.0868 349.2958 0.1654, -224.0868 349.2958 0.0079, -224.0851 349.2826 0.1654, -224.0851 349.2826 0.0079, -224.0851 350.07 0.1654, -224.0851 350.07 0.0079, -224.0868 350.0568 0.1654, -224.0868 350.0568 0.0079, -224.0919 350.0444 0.1654, -224.0919 350.0444 0.0079, -224.1001 350.0338 0.1654, -224.1001 350.0338 0.0079, -224.1107 350.0257 0.1654, -224.1107 350.0257 0.0079, -224.123 350.0206 0.1654, -224.123 350.0206 0.0079, -224.1363 350.0188 0.1654, -224.1363 350.0188 0.0079, -223.152 350.0188 0.1654, -223.152 350.0188 0.0079, -223.1653 350.0206 0.1654, -223.1653 350.0206 0.0079, -223.1776 350.0257 0.1654, -223.1776 350.0257 0.0079, -223.1882 350.0338 0.1654, -223.1882 350.0338 0.0079, -223.1963 350.0444 0.1654, -223.1963 350.0444 0.0079, -223.2015 350.0568 0.1654, -223.2015 350.0568 0.0079, -223.2032 350.07 0.1654, -223.2032 350.07 0.0079
            ]
        }
        coordIndex [
            0,1,2,-1,2,1,3,-1,2,3,4,-1,4,3,5,-1,4,5,6,-1,6,5,7,-1,6,7,8,-1,8,7,9,-1,8,9,10,-1,10,9,11,-1,10,11,12,-1,12,11,13,-1,14,15,16,-1,16,15,17,-1,16,17,18,-1,18,17,19,-1,18,19,20,-1,20,19,21,-1,20,21,22,-1,22,21,23,-1,22,23,24,-1,24,23,25,-1,24,25,26,-1,26,25,27,-1,28,29,30,-1,30,29,31,-1,30,31,32,-1,32,31,33,-1,32,33,34,-1,34,33,35,-1,34,35,36,-1,36,35,37,-1,36,37,38,-1,38,37,39,-1,38,39,40,-1,40,39,41,-1,42,43,44,-1,44,43,45,-1,44,45,46,-1,46,45,47,-1,46,47,48,-1,48,47,49,-1,48,49,50,-1,50,49,51,-1,50,51,52,-1,52,51,53,-1,52,53,54,-1,54,53,55,-1,
        ]
    }
}