#VRML V2.0 utf8
# 3D model generated by kicad-lcsc-manager
# Based on easyeda2kicad.py v1.0.1

Shape{
    appearance Appearance {
        material  Material {
            diffuseColor 0.20784313725490197 0.20784313725490197 0.20784313725490197
            specularColor 0.01568627450980392 0.01568627450980392 0.01568627450980392
            ambientIntensity 0.298
            transparency 0.0
            shininess 0.5
        }
    }
    geometry IndexedFaceSet {
        ccw TRUE
        solid FALSE
        coord DEF co Coordinate {
            point [
                2.3077 -1.7717 0.3902, 2.4606 -1.7717 0.3902, 2.4606 -1.4935 0.3902, 2.0663 -1.7717 0.3902, 2.3077 -1.4935 0.3902, 1.977 -1.7717 0.3902, 2.0663 -1.4935 0.3902, -2.4606 -1.7717 0.3902, -0.467 -1.7717 0.3902, -0.467 -1.4935 0.3902, 1.814 -1.4557 0.3902, 1.813 -1.4558 0.3902, 1.8354 -1.4558 0.3902, 2.0663 -1.3045 0.3902, 2.0353 -1.3037 0.3902, 2.0217 -1.3037 0.3902, 2.012 -1.2777 0.3902, 1.977 -1.2777 0.3902, 1.977 -1.3045 0.3902, 1.999 -1.2084 0.3902, 2.0663 -1.2076 0.3902, 1.977 -1.2076 0.3902, 1.9723 -1.2777 0.3902, 1.9631 -1.3037 0.3902, 1.9469 -1.3045 0.3902, 1.9495 -1.3037 0.3902, 1.9469 -1.2076 0.3902, 1.977 -1.2316 0.3902, 1.9859 -1.2084 0.3902, 1.7035 -1.4558 0.3902, 1.7035 -1.455 0.3902, 1.6527 -1.455 0.3902, 1.6527 -1.3596 0.3902, 1.6137 -1.3325 0.3902, 1.6137 -1.4558 0.3902, 1.7035 -1.3325 0.3902, 1.7018 -1.3596 0.3902, 1.7018 -1.3706 0.3902, 1.665 -1.3706 0.3902, 1.665 -1.4011 0.3902, 1.665 -1.412 0.3902, 1.665 -1.4441 0.3902, 1.6991 -1.412 0.3902, 1.7035 -1.4441 0.3902, 1.6991 -1.4011 0.3902, 1.7055 -1.3325 0.3902, 1.704 -1.455 0.3902, 1.7055 -1.4558 0.3902, 1.704 -1.4441 0.3902, 1.7558 -1.2179 0.3902, 1.7515 -1.2181 0.3902, 1.7742 -1.2898 0.3902, 1.7676 -1.2193 0.3902, 1.7433 -1.2198 0.3902, 1.7359 -1.2234 0.3902, 1.7298 -1.2285 0.3902, 1.7292 -1.2292 0.3902, 1.7246 -1.2358 0.3902, 1.7214 -1.2441 0.3902, 1.7198 -1.2571 0.3902, 1.72 -1.2612 0.3902, 1.7689 -1.2922 0.3902, 1.7581 -1.2942 0.3902, 1.7537 -1.2944 0.3902, 1.7216 -1.2706 0.3902, 1.7247 -1.2782 0.3902, 1.7292 -1.2843 0.3902, 1.7318 -1.2868 0.3902, 1.7452 -1.2935 0.3902, 1.7382 -1.291 0.3902, 1.7823 -1.3045 0.3902, 1.7783 -1.2236 0.3902, 1.7783 -1.288 0.3902, 1.7772 -1.223 0.3902, 1.7742 -1.2218 0.3902, 1.7783 -1.2107 0.3902, 1.7823 -1.2076 0.3902, 1.7742 -1.2095 0.3902, 1.7742 -1.2076 0.3902, 1.7682 -1.2078 0.3902, 1.7659 -1.2076 0.3902, 1.7127 -1.2833 0.3902, 1.7088 -1.2733 0.3902, 1.7055 -1.3045 0.3902, 1.7431 -1.3045 0.3902, 1.7345 -1.3025 0.3902, 1.7256 -1.2979 0.3902, 1.7069 -1.2579 0.3902, 1.7071 -1.2529 0.3902, 1.7055 -1.2076 0.3902, 1.7092 -1.2404 0.3902, 1.7138 -1.2299 0.3902, 1.7207 -1.2208 0.3902, 1.7191 -1.2923 0.3902, 1.7183 -1.2914 0.3902, 1.7231 -1.2186 0.3902, 1.732 -1.2123 0.3902, 1.742 -1.2085 0.3902, 1.7445 -1.3049 0.3902, 1.7519 -1.3053 0.3902, 1.7742 -1.3325 0.3902, 1.7603 -1.3045 0.3902, 1.7783 -1.2998 0.3902, 1.7767 -1.3006 0.3902, 1.7742 -1.3045 0.3902, 1.7742 -1.3014 0.3902, 1.7664 -1.3039 0.3902, 1.8915 -1.3869 0.3902, 1.9039 -1.3869 0.3902, 1.9103 -1.3325 0.3902, 1.8648 -1.4558 0.3902, 1.8652 -1.4548 0.3902, 1.8385 -1.3869 0.3902, 1.8354 -1.3325 0.3902, 1.8519 -1.3869 0.3902, 1.8697 -1.438 0.3902, 1.8729 -1.4381 0.3902, 1.8711 -1.4436 0.3902, 1.8714 -1.4436 0.3902, 1.872 -1.4413 0.3902, 1.8487 -1.487 0.3902, 1.8354 -1.4935 0.3902, 1.8535 -1.4865 0.3902, 1.9103 -1.4935 0.3902, 1.846 -1.4869 0.3902, 1.841 -1.486 0.3902, 1.841 -1.4754 0.3902, 1.8554 -1.474 0.3902, 1.8576 -1.4715 0.3902, 1.86 -1.4672 0.3902, 1.8434 -1.4762 0.3902, 1.8478 -1.4768 0.3902, 1.8767 -1.4558 0.3902, 1.873 -1.4652 0.3902, 1.8676 -1.4758 0.3902, 1.8632 -1.481 0.3902, 1.8624 -1.4818 0.3902, 1.8582 -1.4847 0.3902, 1.8507 -1.4764 0.3902, 1.8533 -1.4754 0.3902, 1.8283 -1.4252 0.3902, 1.8305 -1.4285 0.3902, 1.829 -1.3999 0.3902, 1.8303 -1.445 0.3902, 1.828 -1.4482 0.3902, 1.7978 -1.3885 0.3902, 1.7918 -1.3325 0.3902, 1.7941 -1.3907 0.3902, 1.7918 -1.3927 0.3902, 1.8318 -1.432 0.3902, 1.8323 -1.4364 0.3902, 1.8317 -1.4412 0.3902, 1.8044 -1.3862 0.3902, 1.8129 -1.3853 0.3902, 1.829 -1.3883 0.3902, 1.8211 -1.386 0.3902, 1.8246 -1.4512 0.3902, 1.8207 -1.4535 0.3902, 1.8117 -1.395 0.3902, 1.8082 -1.3953 0.3902, 1.7987 -1.4042 0.3902, 1.805 -1.3961 0.3902, 1.8023 -1.3975 0.3902, 1.7988 -1.4058 0.3902, 1.7993 -1.4076 0.3902, 1.8001 -1.4092 0.3902, 1.8013 -1.4105 0.3902, 1.8055 -1.4131 0.3902, 1.8196 -1.3959 0.3902, 1.8129 -1.4164 0.3902, 1.8263 -1.3984 0.3902, 1.8175 -1.4182 0.3902, 1.8255 -1.4226 0.3902, 1.8005 -1.3991 0.3902, 1.7995 -1.4007 0.3902, 1.7989 -1.4023 0.3902, 1.7905 -1.3939 0.3902, 1.7823 -1.3325 0.3902, 1.7883 -1.3971 0.3902, 1.791 -1.4431 0.3902, 1.7918 -1.4434 0.3902, 1.7918 -1.4181 0.3902, 1.7898 -1.416 0.3902, 1.7882 -1.4135 0.3902, 1.7863 -1.4402 0.3902, 1.7869 -1.4099 0.3902, 1.7864 -1.4052 0.3902, 1.7869 -1.401 0.3902, 1.7917 -1.4181 0.3902, 1.7984 -1.4459 0.3902, 1.8045 -1.425 0.3902, 1.7974 -1.4218 0.3902, 1.806 -1.4468 0.3902, 1.8065 -1.4468 0.3902, 1.8123 -1.4283 0.3902, 1.8126 -1.4461 0.3902, 1.8201 -1.4376 0.3902, 1.8199 -1.4361 0.3902, 1.8157 -1.445 0.3902, 1.8168 -1.4443 0.3902, 1.8182 -1.4431 0.3902, 1.8192 -1.4416 0.3902, 1.8198 -1.4399 0.3902, 1.8194 -1.4343 0.3902, 1.8185 -1.4327 0.3902, 1.817 -1.4311 0.3902, 1.7863 -1.4526 0.3902, 1.7823 -1.4558 0.3902, 1.7918 -1.4546 0.3902, 1.7918 -1.4558 0.3902, 1.7938 -1.4553 0.3902, 1.7978 -1.4558 0.3902, 1.8048 -1.4566 0.3902, 1.7918 -1.4935 0.3902, 1.7301 -1.4558 0.3902, 1.7299 -1.4557 0.3902, 1.7221 -1.3916 0.3902, 1.7221 -1.4032 0.3902, 1.7701 -1.4111 0.3902, 1.7701 -1.455 0.3902, 1.7742 -1.4558 0.3902, 1.7582 -1.455 0.3902, 1.7253 -1.454 0.3902, 1.7213 -1.4512 0.3902, 1.72 -1.4499 0.3902, 1.7578 -1.3875 0.3902, 1.7618 -1.3898 0.3902, 1.7528 -1.386 0.3902, 1.7175 -1.4462 0.3902, 1.716 -1.4422 0.3902, 1.7154 -1.4367 0.3902, 1.7582 -1.4444 0.3902, 1.7579 -1.4444 0.3902, 1.756 -1.4474 0.3902, 1.7522 -1.4514 0.3902, 1.7155 -1.4351 0.3902, 1.7163 -1.43 0.3902, 1.7179 -1.4258 0.3902, 1.7204 -1.4224 0.3902, 1.7241 -1.4192 0.3902, 1.7292 -1.4166 0.3902, 1.7293 -1.3986 0.3902, 1.738 -1.4145 0.3902, 1.7485 -1.3954 0.3902, 1.7444 -1.395 0.3902, 1.7367 -1.3959 0.3902, 1.7246 -1.3902 0.3902, 1.7335 -1.3868 0.3902, 1.7455 -1.3853 0.3902, 1.7649 -1.3928 0.3902, 1.7674 -1.3967 0.3902, 1.7692 -1.4022 0.3902, 1.7582 -1.4117 0.3902, 1.7578 -1.4064 0.3902, 1.7566 -1.4021 0.3902, 1.7552 -1.3997 0.3902, 1.7533 -1.3978 0.3902, 1.7512 -1.3964 0.3902, 1.737 -1.4566 0.3902, 1.7055 -1.4935 0.3902, 1.7432 -1.4559 0.3902, 1.7742 -1.4935 0.3902, 1.7435 -1.4558 0.3902, 1.5311 -1.2827 0.3902, 1.5495 -1.2983 0.3902, 1.6137 -1.2076 0.3902, 1.6137 -1.3045 0.3902, 1.4438 -1.1993 0.3902, 1.4558 -1.2076 0.3902, 1.471 -1.2181 0.3902, 1.494 -1.2449 0.3902, 1.5076 -1.2716 0.3902, 1.5109 -1.2727 0.3902, 1.4101 -1.1865 0.3902, 1.6137 0.118 0.3902, 1.3788 -1.1828 0.3902, 1.3474 -1.1864 0.3902, 1.316 -1.198 0.3902, -0.467 0.118 0.3902, 1.3002 -1.2076 0.3902, -0.467 -1.2076 0.3902, 1.2975 -1.2093 0.3902, 1.2254 -1.241 0.3902, 1.2521 -1.2377 0.3902, 1.2815 -1.2229 0.3902, 1.2599 -1.2381 0.3902, 1.2676 -1.2391 0.3902, 1.1741 -1.2703 0.3902, 1.1787 -1.2659 0.3902, 1.2003 -1.2508 0.3902, -0.467 -1.3045 0.3902, -0.467 -1.3325 0.3902, 1.144 -1.3325 0.3902, 1.147 -1.3155 0.3902, 1.1519 -1.3045 0.3902, 1.1578 -1.2911 0.3902, 1.2164 -1.4514 0.3902, 1.1919 -1.4394 0.3902, -0.467 -1.4558 0.3902, 1.1707 -1.4214 0.3902, 1.1552 -1.3993 0.3902, 1.1455 -1.3741 0.3902, 1.1423 -1.3475 0.3902, 1.1424 -1.341 0.3902, 1.2249 -1.4539 0.3902, 1.2258 -1.4558 0.3902, 1.2317 -1.4685 0.3902, 1.2418 -1.4809 0.3902, 1.3174 -1.4935 0.3902, 1.3057 -1.498 0.3902, 1.6137 -1.7717 0.3902, 1.2893 -1.5 0.3902, 1.2867 -1.5 0.3902, 1.2707 -1.4975 0.3902, 1.2613 -1.4935 0.3902, 1.2551 -1.4909 0.3902, 1.3528 -1.4558 0.3902, 1.3528 -1.456 0.3902, 1.6137 -1.4935 0.3902, 1.3448 -1.4711 0.3902, 1.3344 -1.4828 0.3902, 1.3209 -1.4922 0.3902, 1.5716 -1.3383 0.3902, 1.5747 -1.3604 0.3902, 1.4394 -1.4158 0.3902, 1.444 -1.4139 0.3902, 1.452 -1.3753 0.3902, 1.3402 -1.3868 0.3902, 1.431 -1.3394 0.3902, 1.3283 -1.376 0.3902, 1.3139 -1.3683 0.3902, 1.4352 -1.4187 0.3902, 1.563 -1.406 0.3902, 1.5496 -1.4248 0.3902, 1.5323 -1.3551 0.3902, 1.5291 -1.3421 0.3902, 1.5239 -1.3325 0.3902, 1.1866 -1.3325 0.3902, 1.5716 -1.3846 0.3902, 1.4493 -1.4133 0.3902, 1.4499 -1.4133 0.3902, 1.452 -1.4138 0.3902, 1.1906 -1.3732 0.3902, 1.1987 -1.3869 0.3902, 1.2331 -1.394 0.3902, 1.2109 -1.3994 0.3902, 1.2256 -1.4085 0.3902, 1.2582 -1.3715 0.3902, 1.2443 -1.3811 0.3902, 1.185 -1.3462 0.3902, 1.1858 -1.3566 0.3902, 1.2731 -1.3658 0.3902, 1.2893 -1.3638 0.3902, 1.2976 -1.3643 0.3902, 1.5312 -1.4404 0.3902, 1.5105 -1.4505 0.3902, 1.4879 -1.4553 0.3902, 1.4283 -1.4343 0.3902, 1.4284 -1.4316 0.3902, 1.3571 -1.4255 0.3902, 1.4298 -1.4264 0.3902, 1.4324 -1.4218 0.3902, 1.5189 -1.3969 0.3902, 1.5263 -1.3864 0.3902, 1.531 -1.3743 0.3902, 1.5327 -1.3611 0.3902, 1.4479 -1.4553 0.3902, 1.4441 -1.4547 0.3902, 1.4396 -1.4529 0.3902, 1.4352 -1.4498 0.3902, 1.4337 -1.4482 0.3902, 1.4307 -1.4439 0.3902, 1.4289 -1.4393 0.3902, 1.3567 -1.4393 0.3902, 1.3571 -1.4322 0.3902, 1.4534 -1.4139 0.3902, 1.4839 -1.4139 0.3902, 1.496 -1.4116 0.3902, 1.508 -1.4061 0.3902, 1.518 -1.3979 0.3902, 1.4744 -1.3082 0.3902, 1.1928 -1.3146 0.3902, 1.187 -1.3298 0.3902, 1.4798 -1.3082 0.3902, 1.5228 -1.3304 0.3902, 1.515 -1.3217 0.3902, 1.5045 -1.3144 0.3902, 1.4927 -1.3098 0.3902, 1.4597 -1.2675 0.3902, 1.4445 -1.2492 0.3902, 1.2887 -1.2886 0.3902, 1.4428 -1.2477 0.3902, 1.4237 -1.2345 0.3902, 1.299 -1.2671 0.3902, 1.1998 -1.3045 0.3902, 1.2838 -1.2859 0.3902, 1.4736 -1.3045 0.3902, 1.4702 -1.2893 0.3902, 1.2686 -1.2804 0.3902, 1.2527 -1.2784 0.3902, 1.2457 -1.2788 0.3902, 1.3142 -1.249 0.3902, 1.4025 -1.2263 0.3902, 1.3324 -1.2357 0.3902, 1.3795 -1.2235 0.3902, 1.3545 -1.2267 0.3902, 1.2289 -1.2827 0.3902, 1.2138 -1.2907 0.3902, 1.2022 -1.3011 0.3902, 1.5539 -1.3045 0.3902, 1.5633 -1.3176 0.3902, 1.5693 -1.3325 0.3902, 1.9417 -1.2721 0.3902, 1.937 -1.2819 0.3902, 1.9333 -1.2243 0.3902, 1.9392 -1.2327 0.3902, 1.9299 -1.221 0.3902, 1.9427 -1.2418 0.3902, 1.9443 -1.2548 0.3902, 1.944 -1.2609 0.3902, 1.9103 -1.2076 0.3902, 1.8354 -1.2076 0.3902, 1.8465 -1.2084 0.3902, 1.8354 -1.2084 0.3902, 1.8465 -1.2194 0.3902, 1.8666 -1.3037 0.3902, 1.8666 -1.2084 0.3902, 1.8938 -1.2084 0.3902, 1.9084 -1.21 0.3902, 1.9103 -1.2107 0.3902, 1.9199 -1.2142 0.3902, 1.8354 -1.3045 0.3902, 1.9103 -1.3045 0.3902, 1.8486 -1.3037 0.3902, 1.9299 -1.2904 0.3902, 1.9199 -1.2975 0.3902, 1.9103 -1.3013 0.3902, 1.909 -1.3018 0.3902, 1.8929 -1.3037 0.3902, 1.8486 -1.2929 0.3902, 1.968 -1.4441 0.3902, 1.968 -1.455 0.3902, 1.977 -1.4558 0.3902, 1.9469 -1.4558 0.3902, 1.929 -1.412 0.3902, 1.929 -1.4441 0.3902, 1.9469 -1.412 0.3902, 1.9469 -1.4441 0.3902, 1.9631 -1.412 0.3902, 1.9631 -1.4011 0.3902, 1.929 -1.3706 0.3902, 1.929 -1.4011 0.3902, 1.9469 -1.3706 0.3902, 1.9469 -1.4011 0.3902, 1.9658 -1.3706 0.3902, 1.9469 -1.455 0.3902, 1.9167 -1.455 0.3902, 1.9103 -1.4558 0.3902, 1.9167 -1.3596 0.3902, 1.9469 -1.3325 0.3902, 1.9469 -1.3596 0.3902, 1.977 -1.3325 0.3902, 1.9658 -1.3596 0.3902, 1.8097 -1.2608 0.3902, 1.8097 -1.2929 0.3902, 1.8354 -1.2608 0.3902, 1.8354 -1.2929 0.3902, 1.8438 -1.2608 0.3902, 1.8438 -1.2499 0.3902, 1.8354 -1.2499 0.3902, 1.8354 -1.2194 0.3902, 1.8097 -1.2499 0.3902, 1.8097 -1.2194 0.3902, 1.7974 -1.2084 0.3902, 1.7918 -1.2076 0.3902, 1.7974 -1.3037 0.3902, 1.977 -1.4935 0.3902, 1.9469 -1.7717 0.3902, 1.9469 -1.4935 0.3902, 1.9103 -1.7717 0.3902, 1.8354 -1.7717 0.3902, 1.7918 -1.7717 0.3902, 1.7823 -1.7717 0.3902, 1.7823 -1.4935 0.3902, 1.7742 -1.7717 0.3902, 1.7055 -1.7717 0.3902, 1.7035 -1.7717 0.3902, 1.7035 -1.4935 0.3902, 1.7481 -1.4541 0.3902, 2.3077 -1.4558 0.3902, 2.0663 -1.4558 0.3902, 1.986 -1.455 0.3902, 2.061 -1.4233 0.3902, 2.0563 -1.4332 0.3902, 2.0493 -1.4416 0.3902, 2.0585 -1.3839 0.3902, 2.0621 -1.393 0.3902, 2.0663 -1.3325 0.3902, 2.0636 -1.4061 0.3902, 2.0633 -1.4122 0.3902, 2.0393 -1.4488 0.3902, 2.0284 -1.453 0.3902, 2.0122 -1.455 0.3902, 1.986 -1.3596 0.3902, 2.0132 -1.3596 0.3902, 2.0278 -1.3612 0.3902, 2.0393 -1.3654 0.3902, 2.0493 -1.3723 0.3902, 2.0526 -1.3756 0.3902, 2.0825 -1.455 0.3902, 2.0689 -1.455 0.3902, 2.1411 -1.455 0.3902, 2.1314 -1.4289 0.3902, 2.0917 -1.4289 0.3902, 2.1052 -1.3596 0.3902, 2.1184 -1.3596 0.3902, 1.7035 -1.3045 0.3902, 1.7918 -1.3045 0.3902, 1.703 -1.2929 0.3902, 1.703 -1.3037 0.3902, 1.6527 -1.3037 0.3902, 1.665 -1.2084 0.3902, 1.7035 -1.2076 0.3902, 1.6527 -1.2084 0.3902, 1.665 -1.2929 0.3902, 1.8354 -1.3037 0.3902, 2.1547 -1.455 0.3902, 2.3077 -1.3325 0.3902, 2.3077 -1.3045 0.3902, 2.3077 -1.2076 0.3902, 2.4606 -1.4558 0.3902, 2.4606 -1.3325 0.3902, 2.4606 -1.3045 0.3902, 2.4606 -1.2076 0.3902, 1.7491 -1.2076 0.3902, 1.7055 0.118 0.3902, 1.7035 0.118 0.3902, 2.4606 0.118 0.3902, 2.3077 0.118 0.3902, 2.0663 0.118 0.3902, 1.977 0.118 0.3902, 1.9469 0.118 0.3902, 1.9103 0.118 0.3902, 1.8354 0.118 0.3902, 1.7918 0.118 0.3902, 1.7823 0.118 0.3902, 1.7742 0.118 0.3902, 1.7557 -1.2068 0.3902, -2.1439 1.4219 0.3902, -2.1676 1.4188 0.3902, -2.4606 0.118 0.3902, -2.0793 1.4866 0.3902, -2.0884 1.4645 0.3902, -2.103 1.4456 0.3902, -2.1219 1.4311 0.3902, -2.4606 -1.4935 0.3902, -2.4606 -1.4558 0.3902, -2.4606 -1.3325 0.3902, -2.4606 -1.3045 0.3902, -2.4606 -1.2076 0.3902, -2.1912 1.4219 0.3902, -2.2133 1.4311 0.3902, -2.2322 1.4456 0.3902, -2.103 1.5748 0.3902, -2.0884 1.5559 0.3902, -0.467 1.7717 0.3902, -2.0793 1.5338 0.3902, -2.0762 1.5102 0.3902, -2.4606 1.7717 0.3902, -2.2558 1.5338 0.3902, -2.2467 1.5559 0.3902, -2.2322 1.5748 0.3902, -2.2133 1.5893 0.3902, -2.1912 1.5985 0.3902, -2.1676 1.6016 0.3902, -2.1439 1.5985 0.3902, -2.1219 1.5893 0.3902, -2.2467 1.4645 0.3902, -2.2558 1.4866 0.3902, -2.259 1.5102 0.3902, 2.4606 1.7717 0.3902, 2.3077 1.7717 0.3902, 2.0663 1.7717 0.3902, 1.977 1.7717 0.3902, 1.9469 1.7717 0.3902, 1.9103 1.7717 0.3902, 1.8354 1.7717 0.3902, 1.7918 1.7717 0.3902, 1.7823 1.7717 0.3902, 1.7742 1.7717 0.3902, 1.7055 1.7717 0.3902, 1.7035 1.7717 0.3902, 1.6137 1.7717 0.3902, -2.4606 -1.7717 0.0004, -2.4606 -1.315 0.0004, -1.7913 -1.315 0.0004, -2.0669 0.8583 0.0004, -2.4016 0.8583 0.0004, -2.4606 1.7717 0.0004, -0.8169 -0.6358 0.0004, -0.8169 -0.0 0.0004, -0.4528 -0.0 0.0004, 0.4528 0.6299 0.0004, 0.8169 0.6358 0.0004, 0.4528 -0.0 0.0004, 0.8169 -0.0 0.0004, 0.4528 -0.6299 0.0004, 0.8169 -0.6358 0.0004, -0.4528 -0.6299 0.0004, -0.4528 0.5512 0.0004, -0.8169 0.6358 0.0004, -0.374 0.6299 0.0004, -2.4606 0.6358 0.0004, -2.4016 0.6417 0.0004, -2.0669 0.6417 0.0004, -1.7913 0.6358 0.0004, -1.7913 1.7717 0.0004, -1.5157 0.6417 0.0004, -1.1811 0.6417 0.0004, -1.5157 0.8583 0.0004, -1.1811 0.8583 0.0004, -0.8169 1.7717 0.0004, 0.8169 1.7717 0.0004, 1.7913 0.6358 0.0004, 1.5157 0.6417 0.0004, 1.5157 0.8583 0.0004, 1.1811 0.6417 0.0004, 1.1811 0.8583 0.0004, 1.7913 1.7717 0.0004, 2.4311 0.6358 0.0004, 2.4016 0.6417 0.0004, 2.4016 0.8583 0.0004, 2.0669 0.6417 0.0004, 2.0669 0.8583 0.0004, 2.4311 1.7717 0.0004, -2.0669 0.1417 0.0004, -1.7913 -0.0 0.0004, -2.4016 0.1417 0.0004, -2.4606 -0.0 0.0004, -2.4016 0.3583 0.0004, -2.0669 0.3583 0.0004, -1.1811 0.1417 0.0004, -1.5157 0.1417 0.0004, -1.5157 0.3583 0.0004, -1.1811 0.3583 0.0004, 1.5157 0.3583 0.0004, 1.5157 0.1417 0.0004, 1.7913 -0.0 0.0004, 1.1811 0.1417 0.0004, 1.1811 0.3583 0.0004, 2.4311 -0.0 0.0004, 2.4016 0.1417 0.0004, 2.4016 0.3583 0.0004, 2.0669 0.1417 0.0004, 2.0669 0.3583 0.0004, -2.4016 -0.1417 0.0004, -2.4016 -0.3583 0.0004, -2.0669 -0.1417 0.0004, -2.0669 -0.3583 0.0004, -1.7913 -0.6358 0.0004, -2.4606 -0.6358 0.0004, -1.1811 -0.3583 0.0004, -1.5157 -0.3583 0.0004, -1.5157 -0.1417 0.0004, -1.1811 -0.1417 0.0004, 1.1811 -0.3583 0.0004, 1.1811 -0.1417 0.0004, 1.5157 -0.1417 0.0004, 1.5157 -0.3583 0.0004, 1.7913 -0.6358 0.0004, 2.0669 -0.3583 0.0004, 2.0669 -0.1417 0.0004, 2.4016 -0.1417 0.0004, 2.4016 -0.3583 0.0004, 2.4311 -0.6358 0.0004, -2.4016 -0.6417 0.0004, -2.4016 -0.8583 0.0004, -2.0669 -0.6417 0.0004, -2.0669 -0.8583 0.0004, -1.1811 -0.8583 0.0004, -0.8169 -1.315 0.0004, -1.5157 -0.8583 0.0004, -1.5157 -0.6417 0.0004, -1.1811 -0.6417 0.0004, 0.8169 -1.315 0.0004, 1.1811 -0.6417 0.0004, 1.1811 -0.8583 0.0004, 1.7913 -1.315 0.0004, 1.5157 -0.8583 0.0004, 1.5157 -0.6417 0.0004, 2.0669 -0.6417 0.0004, 2.0669 -0.8583 0.0004, 2.4311 -1.315 0.0004, 2.4016 -0.8583 0.0004, 2.4016 -0.6417 0.0004, 2.4606 1.7717 0.0004, 2.4606 0.6358 0.0004, 2.4606 -0.0 0.0004, 2.4606 -0.6358 0.0004, 2.4606 -1.315 0.0004, -1.7913 -1.7717 0.0004, -0.8169 -1.7717 0.0004, 0.8169 -1.7717 0.0004, 1.7913 -1.7717 0.0004, 2.4311 -1.7717 0.0004, 2.4606 -1.7717 0.0004
            ]
        }
        coordIndex [
            0,1,2,-1,3,0,4,-1,5,3,6,-1,7,8,9,-1,10,11,12,-1,13,14,15,-1,16,17,15,-1,15,17,18,-1,15,18,13,-1,14,13,19,-1,19,13,20,-1,19,20,21,-1,17,22,18,-1,18,22,23,-1,18,23,24,-1,24,23,25,-1,24,25,26,-1,26,25,27,-1,26,27,21,-1,21,27,28,-1,21,28,19,-1,29,30,31,-1,32,33,31,-1,31,33,34,-1,31,34,29,-1,35,36,37,-1,37,38,39,-1,40,41,42,-1,42,41,43,-1,42,43,44,-1,39,44,37,-1,37,44,43,-1,37,43,35,-1,35,43,45,-1,30,29,46,-1,46,29,47,-1,46,47,48,-1,49,50,51,-1,49,51,52,-1,50,53,51,-1,51,53,54,-1,51,54,55,-1,55,56,51,-1,51,56,57,-1,51,57,58,-1,58,59,51,-1,51,59,60,-1,51,60,61,-1,61,60,62,-1,62,60,63,-1,63,60,64,-1,63,64,65,-1,65,66,63,-1,63,66,67,-1,63,67,68,-1,68,67,69,-1,70,71,72,-1,72,71,73,-1,72,73,51,-1,51,73,74,-1,51,74,52,-1,75,76,77,-1,77,76,78,-1,77,78,79,-1,79,78,80,-1,81,82,83,-1,84,85,83,-1,83,85,86,-1,87,88,89,-1,88,90,89,-1,89,90,91,-1,89,91,92,-1,86,93,83,-1,83,93,94,-1,83,94,81,-1,92,95,89,-1,89,95,96,-1,89,96,97,-1,98,45,99,-1,99,45,100,-1,99,100,101,-1,72,102,70,-1,70,102,103,-1,70,103,104,-1,104,103,105,-1,104,105,106,-1,107,108,109,-1,110,111,12,-1,12,111,112,-1,12,112,113,-1,113,112,109,-1,109,112,114,-1,109,114,107,-1,107,114,115,-1,107,115,116,-1,117,118,115,-1,115,118,119,-1,115,119,116,-1,120,121,122,-1,122,121,123,-1,120,124,121,-1,121,124,125,-1,121,125,126,-1,127,128,12,-1,12,128,129,-1,12,129,110,-1,12,130,131,-1,132,133,123,-1,123,133,134,-1,123,134,135,-1,135,136,123,-1,123,136,137,-1,123,137,122,-1,131,138,12,-1,12,138,139,-1,12,139,127,-1,140,141,142,-1,12,143,144,-1,145,146,147,-1,147,146,148,-1,149,150,12,-1,12,150,151,-1,12,151,143,-1,145,152,146,-1,146,152,153,-1,146,153,113,-1,141,149,142,-1,142,149,12,-1,142,12,154,-1,154,12,113,-1,154,113,155,-1,155,113,153,-1,144,156,12,-1,12,156,157,-1,12,157,10,-1,158,159,160,-1,160,159,161,-1,160,161,162,-1,160,163,158,-1,158,163,164,-1,158,164,165,-1,165,166,158,-1,158,166,167,-1,158,167,168,-1,168,167,169,-1,168,169,170,-1,170,169,171,-1,170,171,142,-1,142,171,172,-1,142,172,140,-1,173,174,162,-1,162,174,175,-1,162,175,160,-1,148,146,176,-1,176,146,177,-1,176,177,178,-1,179,180,181,-1,182,183,184,-1,183,185,184,-1,184,185,186,-1,184,186,177,-1,177,186,187,-1,177,187,178,-1,179,181,184,-1,184,181,188,-1,184,188,182,-1,189,190,180,-1,180,190,191,-1,180,191,181,-1,189,192,190,-1,190,192,193,-1,190,193,194,-1,194,193,195,-1,194,196,197,-1,195,198,194,-1,194,198,199,-1,194,199,200,-1,200,201,194,-1,194,201,202,-1,194,202,196,-1,197,203,194,-1,194,203,204,-1,194,204,205,-1,206,207,208,-1,208,207,209,-1,208,209,210,-1,210,209,211,-1,212,213,11,-1,11,213,121,-1,11,121,12,-1,12,121,126,-1,12,126,130,-1,47,214,215,-1,43,48,45,-1,45,48,47,-1,45,47,216,-1,216,47,217,-1,218,219,220,-1,220,219,221,-1,215,222,47,-1,47,222,223,-1,47,223,224,-1,225,226,100,-1,225,100,227,-1,224,228,47,-1,47,228,229,-1,47,229,230,-1,231,232,221,-1,221,232,233,-1,221,233,234,-1,230,235,47,-1,47,235,236,-1,47,236,217,-1,217,236,237,-1,217,237,238,-1,238,239,217,-1,217,239,240,-1,217,240,241,-1,241,240,242,-1,243,244,242,-1,242,244,245,-1,242,245,241,-1,216,246,45,-1,45,246,247,-1,45,247,100,-1,100,247,248,-1,100,248,227,-1,226,249,100,-1,100,249,250,-1,100,250,251,-1,252,253,242,-1,242,253,254,-1,242,254,255,-1,255,256,242,-1,242,256,257,-1,242,257,243,-1,258,259,260,-1,260,259,261,-1,260,261,262,-1,263,264,265,-1,265,264,266,-1,267,268,265,-1,265,268,269,-1,265,269,270,-1,270,271,265,-1,265,271,272,-1,265,272,263,-1,273,274,275,-1,275,274,276,-1,276,274,277,-1,277,274,278,-1,277,278,279,-1,279,278,280,-1,279,280,281,-1,280,282,281,-1,281,282,283,-1,281,283,284,-1,284,283,285,-1,284,285,286,-1,287,288,280,-1,280,288,289,-1,280,289,282,-1,290,291,292,-1,292,293,290,-1,290,293,294,-1,290,294,280,-1,280,294,295,-1,280,295,287,-1,296,297,298,-1,298,297,299,-1,298,299,300,-1,300,301,298,-1,298,301,302,-1,298,302,291,-1,291,302,303,-1,291,303,292,-1,304,296,305,-1,305,296,298,-1,305,298,306,-1,306,298,307,-1,308,309,310,-1,309,311,310,-1,310,311,312,-1,310,312,8,-1,8,312,313,-1,8,313,9,-1,9,313,314,-1,9,314,298,-1,298,314,315,-1,298,315,307,-1,316,317,318,-1,317,319,318,-1,318,319,320,-1,318,320,321,-1,322,323,33,-1,324,325,326,-1,327,328,329,-1,329,328,330,-1,324,326,331,-1,332,333,34,-1,334,335,328,-1,328,335,336,-1,328,336,337,-1,33,323,34,-1,34,323,338,-1,34,338,332,-1,325,339,326,-1,326,339,340,-1,326,340,341,-1,342,343,344,-1,344,343,345,-1,344,345,346,-1,347,337,348,-1,348,337,349,-1,348,349,344,-1,344,349,350,-1,344,350,342,-1,347,351,337,-1,337,351,352,-1,337,352,328,-1,328,352,353,-1,328,353,330,-1,333,354,34,-1,34,354,355,-1,34,355,356,-1,357,358,359,-1,359,358,360,-1,359,360,326,-1,326,360,361,-1,326,361,331,-1,362,363,326,-1,326,363,364,-1,326,364,328,-1,328,364,365,-1,328,365,334,-1,366,367,316,-1,367,368,316,-1,316,368,369,-1,316,369,370,-1,370,371,316,-1,316,371,372,-1,316,372,373,-1,373,372,357,-1,373,357,374,-1,374,357,359,-1,341,375,326,-1,326,375,376,-1,326,376,377,-1,377,378,326,-1,326,378,379,-1,326,379,362,-1,380,381,382,-1,382,337,380,-1,380,337,336,-1,380,336,383,-1,383,336,384,-1,384,385,383,-1,383,385,386,-1,383,386,387,-1,388,389,390,-1,389,391,390,-1,390,391,392,-1,390,392,393,-1,394,390,395,-1,381,380,394,-1,394,380,396,-1,394,396,390,-1,390,396,397,-1,390,397,388,-1,395,398,394,-1,394,398,399,-1,394,399,400,-1,393,392,401,-1,401,392,402,-1,401,402,403,-1,403,402,404,-1,403,404,405,-1,406,407,400,-1,400,407,408,-1,400,408,394,-1,264,409,266,-1,266,409,410,-1,266,410,33,-1,33,410,411,-1,33,411,322,-1,412,413,24,-1,414,415,26,-1,414,26,416,-1,415,417,26,-1,26,417,418,-1,26,418,24,-1,24,418,419,-1,24,419,412,-1,420,421,422,-1,422,421,423,-1,424,425,426,-1,427,428,420,-1,420,428,429,-1,420,429,26,-1,26,429,430,-1,26,430,416,-1,427,420,426,-1,426,420,422,-1,426,422,424,-1,431,432,433,-1,413,434,24,-1,24,434,435,-1,24,435,432,-1,432,435,436,-1,432,436,437,-1,437,438,432,-1,432,438,425,-1,432,425,433,-1,433,425,439,-1,440,441,442,-1,442,441,443,-1,444,445,446,-1,446,445,447,-1,446,447,448,-1,448,447,440,-1,448,440,449,-1,450,451,452,-1,452,451,453,-1,452,453,454,-1,441,455,443,-1,443,455,456,-1,443,456,457,-1,457,456,458,-1,108,457,109,-1,109,457,458,-1,109,458,459,-1,459,458,460,-1,459,460,461,-1,461,460,462,-1,461,462,454,-1,463,464,465,-1,465,464,466,-1,465,466,467,-1,466,439,467,-1,467,439,425,-1,467,425,468,-1,468,425,424,-1,468,424,469,-1,469,424,470,-1,469,470,471,-1,471,470,472,-1,423,421,473,-1,473,421,474,-1,473,474,475,-1,5,476,477,-1,477,476,478,-1,477,478,479,-1,479,478,123,-1,479,123,480,-1,480,123,121,-1,480,121,481,-1,481,121,213,-1,481,213,482,-1,482,213,483,-1,482,483,484,-1,484,483,261,-1,484,261,485,-1,485,261,259,-1,485,259,486,-1,486,259,487,-1,486,487,310,-1,310,487,318,-1,310,318,308,-1,308,318,321,-1,258,214,259,-1,259,214,47,-1,259,47,487,-1,487,47,29,-1,487,29,318,-1,318,29,34,-1,318,34,316,-1,316,34,356,-1,316,356,366,-1,212,211,213,-1,213,211,209,-1,213,209,483,-1,483,209,207,-1,483,207,261,-1,261,207,220,-1,261,220,262,-1,262,220,221,-1,262,221,488,-1,488,221,234,-1,476,442,478,-1,478,442,443,-1,478,443,123,-1,123,443,457,-1,123,457,132,-1,132,457,108,-1,3,4,6,-1,6,4,489,-1,6,489,490,-1,206,184,207,-1,207,184,177,-1,207,177,220,-1,220,177,100,-1,220,100,218,-1,218,100,251,-1,453,449,454,-1,454,449,440,-1,454,440,461,-1,461,440,442,-1,461,442,491,-1,492,493,490,-1,490,493,494,-1,495,496,497,-1,497,496,498,-1,497,498,490,-1,490,498,499,-1,490,499,492,-1,494,500,490,-1,490,500,501,-1,490,501,502,-1,5,6,476,-1,476,6,490,-1,476,490,442,-1,442,490,502,-1,442,502,491,-1,491,503,461,-1,461,503,504,-1,461,504,497,-1,497,504,505,-1,497,505,506,-1,506,507,497,-1,497,507,508,-1,497,508,495,-1,509,510,490,-1,511,512,513,-1,490,510,497,-1,497,510,514,-1,497,514,515,-1,98,84,45,-1,45,84,83,-1,45,83,35,-1,35,83,516,-1,497,13,461,-1,461,13,18,-1,461,18,459,-1,459,18,24,-1,459,24,109,-1,109,24,432,-1,109,432,113,-1,113,432,431,-1,113,431,146,-1,146,431,517,-1,146,517,177,-1,177,517,70,-1,177,70,100,-1,100,70,104,-1,100,104,101,-1,101,104,106,-1,518,519,516,-1,516,519,520,-1,521,522,523,-1,523,522,265,-1,523,265,520,-1,520,265,266,-1,520,266,516,-1,516,266,33,-1,516,33,35,-1,35,33,32,-1,35,32,36,-1,82,87,83,-1,83,87,89,-1,83,89,516,-1,516,89,522,-1,516,522,518,-1,518,522,521,-1,518,521,524,-1,433,525,431,-1,431,525,475,-1,431,475,517,-1,517,475,474,-1,517,474,70,-1,70,474,76,-1,70,76,71,-1,71,76,75,-1,513,509,511,-1,511,509,490,-1,511,490,526,-1,526,490,489,-1,526,489,515,-1,515,489,527,-1,515,527,497,-1,497,527,528,-1,497,528,13,-1,13,528,529,-1,13,529,20,-1,0,2,4,-1,4,2,530,-1,4,530,489,-1,489,530,531,-1,489,531,527,-1,527,531,532,-1,527,532,528,-1,528,532,533,-1,528,533,529,-1,97,534,89,-1,89,534,535,-1,89,535,522,-1,522,535,536,-1,522,536,265,-1,265,536,274,-1,265,274,267,-1,267,274,273,-1,533,537,529,-1,529,537,538,-1,529,538,20,-1,20,538,539,-1,20,539,21,-1,21,539,540,-1,21,540,26,-1,26,540,541,-1,26,541,420,-1,420,541,542,-1,420,542,421,-1,421,542,543,-1,421,543,474,-1,474,543,544,-1,474,544,76,-1,76,544,545,-1,76,545,78,-1,78,545,546,-1,78,546,80,-1,80,546,535,-1,80,535,547,-1,547,535,534,-1,548,549,550,-1,551,552,278,-1,278,552,553,-1,278,553,554,-1,7,9,555,-1,555,9,298,-1,555,298,556,-1,556,298,291,-1,556,291,557,-1,557,291,290,-1,557,290,558,-1,558,290,280,-1,558,280,559,-1,559,280,278,-1,559,278,550,-1,550,278,554,-1,550,554,548,-1,549,560,550,-1,550,560,561,-1,550,561,562,-1,563,564,565,-1,565,564,566,-1,565,566,567,-1,568,569,570,-1,570,571,568,-1,568,571,572,-1,568,572,573,-1,573,574,568,-1,568,574,575,-1,568,575,565,-1,565,575,576,-1,565,576,563,-1,562,577,550,-1,550,577,578,-1,550,578,568,-1,568,578,579,-1,568,579,569,-1,537,580,538,-1,538,580,581,-1,538,581,539,-1,539,581,582,-1,539,582,540,-1,540,582,583,-1,540,583,541,-1,541,583,584,-1,541,584,542,-1,542,584,585,-1,542,585,543,-1,543,585,586,-1,543,586,544,-1,544,586,587,-1,544,587,545,-1,545,587,588,-1,545,588,546,-1,546,588,589,-1,546,589,535,-1,535,589,590,-1,535,590,536,-1,536,590,591,-1,536,591,274,-1,274,591,592,-1,274,592,278,-1,278,592,565,-1,278,565,551,-1,551,565,567,-1,593,594,595,-1,596,597,598,-1,599,600,601,-1,602,603,604,-1,604,603,605,-1,604,605,606,-1,606,605,607,-1,606,607,608,-1,601,600,609,-1,609,600,610,-1,609,610,611,-1,598,597,612,-1,597,613,612,-1,612,613,614,-1,612,614,615,-1,615,614,596,-1,615,596,616,-1,616,596,598,-1,615,617,618,-1,617,615,619,-1,619,615,616,-1,619,616,620,-1,620,616,621,-1,620,621,618,-1,618,621,610,-1,618,610,615,-1,621,622,610,-1,610,622,603,-1,610,603,611,-1,611,603,602,-1,623,624,625,-1,624,623,626,-1,626,623,603,-1,626,603,627,-1,627,603,622,-1,627,622,625,-1,625,622,628,-1,625,628,623,-1,629,630,631,-1,630,629,632,-1,632,629,623,-1,632,623,633,-1,633,623,628,-1,633,628,631,-1,631,628,634,-1,631,634,629,-1,635,636,637,-1,637,636,638,-1,637,638,639,-1,639,638,612,-1,639,612,640,-1,640,612,615,-1,640,615,635,-1,635,615,636,-1,641,600,642,-1,642,600,636,-1,642,636,643,-1,643,636,615,-1,643,615,644,-1,644,615,610,-1,644,610,641,-1,641,610,600,-1,645,623,646,-1,646,623,647,-1,646,647,648,-1,648,647,605,-1,648,605,649,-1,649,605,603,-1,649,603,645,-1,645,603,623,-1,650,651,652,-1,651,650,653,-1,653,650,647,-1,653,647,654,-1,654,647,623,-1,654,623,652,-1,652,623,629,-1,652,629,650,-1,638,655,656,-1,655,638,657,-1,657,638,636,-1,657,636,658,-1,658,636,659,-1,658,659,656,-1,656,659,660,-1,656,660,638,-1,661,599,662,-1,662,599,659,-1,662,659,663,-1,663,659,636,-1,663,636,664,-1,664,636,600,-1,664,600,661,-1,661,600,599,-1,665,607,666,-1,666,607,605,-1,666,605,667,-1,667,605,647,-1,667,647,668,-1,668,647,669,-1,668,669,665,-1,670,669,671,-1,671,669,647,-1,671,647,672,-1,672,647,650,-1,672,650,673,-1,673,650,674,-1,673,674,670,-1,660,675,676,-1,675,660,677,-1,677,660,659,-1,677,659,678,-1,678,659,595,-1,678,595,676,-1,676,595,594,-1,676,594,660,-1,679,680,681,-1,681,680,595,-1,681,595,682,-1,682,595,659,-1,682,659,683,-1,683,659,599,-1,683,599,679,-1,679,599,680,-1,601,608,599,-1,599,608,607,-1,599,607,680,-1,680,607,684,-1,665,669,607,-1,607,669,685,-1,607,685,684,-1,684,685,686,-1,684,686,687,-1,687,686,688,-1,687,688,669,-1,669,688,689,-1,669,689,685,-1,670,674,669,-1,669,674,690,-1,669,690,687,-1,687,690,691,-1,687,691,692,-1,692,691,693,-1,692,693,674,-1,674,693,694,-1,674,694,690,-1,634,695,629,-1,629,695,696,-1,629,696,650,-1,650,696,697,-1,650,697,674,-1,674,697,698,-1,674,698,692,-1,692,698,699,-1,593,595,700,-1,700,595,680,-1,700,680,701,-1,701,680,684,-1,701,684,702,-1,702,684,687,-1,702,687,703,-1,703,687,692,-1,703,692,704,-1,704,692,699,-1,704,699,705,-1,
        ]
    }
}
Shape{
    appearance Appearance {
        material  Material {
            diffuseColor 0.6666666666666666 0.6666666666666666 0.6666666666666666
            specularColor 0.4666666666666667 0.4666666666666667 0.4666666666666667
            ambientIntensity 0.6667
            transparency 0.0
            shininess 0.5
        }
    }
    geometry IndexedFaceSet {
        ccw TRUE
        solid FALSE
        coord DEF co Coordinate {
            point [
                1.1811 -0.8583 0.0, 1.1811 -0.6417 0.0, 1.5157 -0.8583 0.0, 1.5157 -0.6417 0.0, 1.1811 -0.8583 0.0004, 1.5157 -0.8583 0.0004, 1.1811 -0.6417 0.0004, 1.5157 -0.6417 0.0004, 1.1811 -0.3583 0.0, 1.1811 -0.1417 0.0, 1.5157 -0.3583 0.0, 1.5157 -0.1417 0.0, 1.1811 -0.3583 0.0004, 1.5157 -0.3583 0.0004, 1.1811 -0.1417 0.0004, 1.5157 -0.1417 0.0004, 1.1811 0.1417 0.0, 1.1811 0.3583 0.0, 1.5157 0.1417 0.0, 1.5157 0.3583 0.0, 1.1811 0.1417 0.0004, 1.5157 0.1417 0.0004, 1.1811 0.3583 0.0004, 1.5157 0.3583 0.0004, 1.1811 0.6417 0.0, 1.1811 0.8583 0.0, 1.5157 0.6417 0.0, 1.5157 0.8583 0.0, 1.1811 0.6417 0.0004, 1.5157 0.6417 0.0004, 1.1811 0.8583 0.0004, 1.5157 0.8583 0.0004, 2.0669 -0.8583 0.0, 2.0669 -0.6417 0.0, 2.4016 -0.8583 0.0, 2.4016 -0.6417 0.0, 2.0669 -0.8583 0.0004, 2.4016 -0.8583 0.0004, 2.0669 -0.6417 0.0004, 2.4016 -0.6417 0.0004, 2.0669 -0.3583 0.0, 2.0669 -0.1417 0.0, 2.4016 -0.3583 0.0, 2.4016 -0.1417 0.0, 2.0669 -0.3583 0.0004, 2.4016 -0.3583 0.0004, 2.0669 -0.1417 0.0004, 2.4016 -0.1417 0.0004
            ]
        }
        coordIndex [
            0,1,2,-1,2,1,3,-1,4,0,5,-1,5,0,2,-1,6,1,4,-1,4,1,0,-1,7,3,6,-1,6,3,1,-1,5,2,7,-1,7,2,3,-1,8,9,10,-1,10,9,11,-1,12,8,13,-1,13,8,10,-1,14,9,12,-1,12,9,8,-1,15,11,14,-1,14,11,9,-1,13,10,15,-1,15,10,11,-1,16,17,18,-1,18,17,19,-1,20,16,21,-1,21,16,18,-1,22,17,20,-1,20,17,16,-1,23,19,22,-1,22,19,17,-1,21,18,23,-1,23,18,19,-1,24,25,26,-1,26,25,27,-1,28,24,29,-1,29,24,26,-1,30,25,28,-1,28,25,24,-1,31,27,30,-1,30,27,25,-1,29,26,31,-1,31,26,27,-1,32,33,34,-1,34,33,35,-1,36,32,37,-1,37,32,34,-1,38,33,36,-1,36,33,32,-1,39,35,38,-1,38,35,33,-1,37,34,39,-1,39,34,35,-1,40,41,42,-1,42,41,43,-1,44,40,45,-1,45,40,42,-1,46,41,44,-1,44,41,40,-1,47,43,46,-1,46,43,41,-1,45,42,47,-1,47,42,43,-1,
        ]
    }
}
Shape{
    appearance Appearance {
        material  Material {
            diffuseColor 0.20784313725490197 0.20784313725490197 0.20784313725490197
            specularColor 0.01568627450980392 0.01568627450980392 0.01568627450980392
            ambientIntensity 0.298
            transparency 0.0
            shininess 0.5
        }
    }
    geometry IndexedFaceSet {
        ccw TRUE
        solid FALSE
        coord DEF co Coordinate {
            point [
                2.4606 -1.7717 0.3902, 2.4606 -1.7717 0.0004, 2.4606 -1.315 0.0004, 2.4606 -0.6358 0.0004, 2.4606 -0.0 0.0004, 2.4606 1.7717 0.3902, 2.4606 0.6358 0.0004, 2.4606 1.7717 0.0004, 2.4311 1.7717 0.0004, 1.7913 1.7717 0.0004, 0.8169 1.7717 0.0004, -0.8169 1.7717 0.0004, -2.4606 1.7717 0.3902, -1.7913 1.7717 0.0004, -2.4606 1.7717 0.0004, -2.4606 -1.315 0.0004, -2.4606 -1.7717 0.0004, -2.4606 -1.7717 0.3902, -2.4606 0.6358 0.0004, -2.4606 -0.0 0.0004, -2.4606 -0.6358 0.0004, 0.8169 -1.7717 0.0004, -0.8169 -1.7717 0.0004, -1.7913 -1.7717 0.0004, 1.7913 -1.7717 0.0004, 2.4311 -1.7717 0.0004
            ]
        }
        coordIndex [
            0,1,2,-1,2,3,0,-1,0,3,4,-1,0,4,5,-1,5,4,6,-1,5,6,7,-1,7,8,5,-1,5,8,9,-1,9,10,5,-1,5,10,11,-1,5,11,12,-1,12,11,13,-1,12,13,14,-1,15,16,17,-1,14,18,12,-1,12,18,19,-1,12,19,17,-1,17,19,20,-1,17,20,15,-1,21,0,22,-1,22,0,17,-1,22,17,23,-1,23,17,16,-1,21,24,0,-1,0,24,25,-1,0,25,1,-1,
        ]
    }
}
Shape{
    appearance Appearance {
        material  Material {
            diffuseColor 0.6666666666666666 0.6666666666666666 0.6666666666666666
            specularColor 0.4666666666666667 0.4666666666666667 0.4666666666666667
            ambientIntensity 0.6667
            transparency 0.0
            shininess 0.5
        }
    }
    geometry IndexedFaceSet {
        ccw TRUE
        solid FALSE
        coord DEF co Coordinate {
            point [
                2.4016 0.6417 0.0004, 2.4016 0.6417 0.0, 2.4016 0.8583 0.0004, 2.4016 0.8583 0.0, 2.0669 0.8583 0.0004, 2.0669 0.8583 0.0, 2.0669 0.6417 0.0004, 2.0669 0.6417 0.0, 2.4016 0.1417 0.0004, 2.4016 0.1417 0.0, 2.4016 0.3583 0.0004, 2.4016 0.3583 0.0, 2.0669 0.3583 0.0004, 2.0669 0.3583 0.0, 2.0669 0.1417 0.0004, 2.0669 0.1417 0.0, -2.4016 0.8583 0.0, -2.4016 0.6417 0.0, -2.4016 0.8583 0.0004, -2.4016 0.6417 0.0004, -2.0669 0.6417 0.0, -2.0669 0.6417 0.0004, -2.0669 0.8583 0.0, -2.0669 0.8583 0.0004, -1.5157 0.8583 0.0, -1.5157 0.6417 0.0, -1.5157 0.8583 0.0004, -1.5157 0.6417 0.0004, -1.1811 0.6417 0.0, -1.1811 0.6417 0.0004, -1.1811 0.8583 0.0, -1.1811 0.8583 0.0004, -2.4016 0.3583 0.0, -2.4016 0.1417 0.0, -2.4016 0.3583 0.0004, -2.4016 0.1417 0.0004, -2.0669 0.1417 0.0, -2.0669 0.1417 0.0004, -2.0669 0.3583 0.0, -2.0669 0.3583 0.0004, -1.5157 0.3583 0.0, -1.5157 0.1417 0.0, -1.5157 0.3583 0.0004, -1.5157 0.1417 0.0004, -1.1811 0.1417 0.0, -1.1811 0.1417 0.0004, -1.1811 0.3583 0.0, -1.1811 0.3583 0.0004, -2.4016 -0.1417 0.0, -2.4016 -0.3583 0.0, -2.4016 -0.1417 0.0004, -2.4016 -0.3583 0.0004, -2.0669 -0.3583 0.0, -2.0669 -0.3583 0.0004, -2.0669 -0.1417 0.0, -2.0669 -0.1417 0.0004, -1.5157 -0.1417 0.0, -1.5157 -0.3583 0.0, -1.5157 -0.1417 0.0004, -1.5157 -0.3583 0.0004, -1.1811 -0.3583 0.0, -1.1811 -0.3583 0.0004, -1.1811 -0.1417 0.0, -1.1811 -0.1417 0.0004, -2.4016 -0.6417 0.0, -2.4016 -0.8583 0.0, -2.4016 -0.6417 0.0004, -2.4016 -0.8583 0.0004, -2.0669 -0.8583 0.0, -2.0669 -0.8583 0.0004, -2.0669 -0.6417 0.0, -2.0669 -0.6417 0.0004, -1.5157 -0.6417 0.0, -1.5157 -0.8583 0.0, -1.5157 -0.6417 0.0004, -1.5157 -0.8583 0.0004, -1.1811 -0.8583 0.0, -1.1811 -0.8583 0.0004, -1.1811 -0.6417 0.0, -1.1811 -0.6417 0.0004, 0.4528 -0.6299 0.0004, 0.4528 -0.6299 0.0, 0.4528 -0.0 0.0004, 0.4528 0.6299 0.0, 0.4528 0.6299 0.0004, -0.4528 -0.6299 0.0, -0.4528 -0.6299 0.0004, -0.4528 0.5512 0.0004, -0.4528 0.5512 0.0, -0.4528 -0.0 0.0004, -0.374 0.6299 0.0, -0.374 0.6299 0.0004
            ]
        }
        coordIndex [
            0,1,2,-1,2,1,3,-1,2,3,4,-1,4,3,5,-1,4,5,6,-1,6,5,7,-1,6,7,0,-1,0,7,1,-1,7,5,1,-1,1,5,3,-1,8,9,10,-1,10,9,11,-1,10,11,12,-1,12,11,13,-1,12,13,14,-1,14,13,15,-1,14,15,8,-1,8,15,9,-1,15,13,9,-1,9,13,11,-1,16,17,18,-1,18,17,19,-1,17,20,19,-1,19,20,21,-1,20,22,21,-1,21,22,23,-1,22,16,23,-1,23,16,18,-1,22,20,16,-1,16,20,17,-1,24,25,26,-1,26,25,27,-1,25,28,27,-1,27,28,29,-1,28,30,29,-1,29,30,31,-1,30,24,31,-1,31,24,26,-1,30,28,24,-1,24,28,25,-1,32,33,34,-1,34,33,35,-1,33,36,35,-1,35,36,37,-1,36,38,37,-1,37,38,39,-1,38,32,39,-1,39,32,34,-1,38,36,32,-1,32,36,33,-1,40,41,42,-1,42,41,43,-1,41,44,43,-1,43,44,45,-1,44,46,45,-1,45,46,47,-1,46,40,47,-1,47,40,42,-1,46,44,40,-1,40,44,41,-1,48,49,50,-1,50,49,51,-1,49,52,51,-1,51,52,53,-1,52,54,53,-1,53,54,55,-1,54,48,55,-1,55,48,50,-1,54,52,48,-1,48,52,49,-1,56,57,58,-1,58,57,59,-1,57,60,59,-1,59,60,61,-1,60,62,61,-1,61,62,63,-1,62,56,63,-1,63,56,58,-1,62,60,56,-1,56,60,57,-1,64,65,66,-1,66,65,67,-1,65,68,67,-1,67,68,69,-1,68,70,69,-1,69,70,71,-1,70,64,71,-1,71,64,66,-1,70,68,64,-1,64,68,65,-1,72,73,74,-1,74,73,75,-1,73,76,75,-1,75,76,77,-1,76,78,77,-1,77,78,79,-1,78,72,79,-1,79,72,74,-1,78,76,72,-1,72,76,73,-1,80,81,82,-1,82,81,83,-1,82,83,84,-1,85,81,86,-1,86,81,80,-1,87,88,89,-1,89,88,85,-1,89,85,86,-1,90,88,91,-1,91,88,87,-1,83,90,84,-1,84,90,91,-1,90,83,88,-1,88,83,81,-1,88,81,85,-1,
        ]
    }
}
Shape{
    appearance Appearance {
        material  Material {
            diffuseColor 0.34901960784313724 0.34901960784313724 0.34901960784313724
            specularColor 0.023529411764705882 0.023529411764705882 0.023529411764705882
            ambientIntensity 0.498
            transparency 0.0
            shininess 0.5
        }
    }
    geometry IndexedFaceSet {
        ccw TRUE
        solid FALSE
        coord DEF co Coordinate {
            point [
                -2.0762 1.5102 0.3898, -2.0762 1.5102 0.3902, -2.0793 1.5338 0.3898, -2.0793 1.5338 0.3902, -2.0884 1.5559 0.3898, -2.0884 1.5559 0.3902, -2.103 1.5748 0.3898, -2.103 1.5748 0.3902, -2.1219 1.5893 0.3898, -2.1219 1.5893 0.3902, -2.1439 1.5985 0.3898, -2.1439 1.5985 0.3902, -2.1676 1.6016 0.3898, -2.1676 1.6016 0.3902, -2.1912 1.5985 0.3898, -2.1912 1.5985 0.3902, -2.2133 1.5893 0.3898, -2.2133 1.5893 0.3902, -2.2322 1.5748 0.3898, -2.2322 1.5748 0.3902, -2.2467 1.5559 0.3898, -2.2467 1.5559 0.3902, -2.2558 1.5338 0.3898, -2.2558 1.5338 0.3902, -2.259 1.5102 0.3898, -2.259 1.5102 0.3902, -2.2558 1.4866 0.3898, -2.2558 1.4866 0.3902, -2.2467 1.4645 0.3898, -2.2467 1.4645 0.3902, -2.2322 1.4456 0.3898, -2.2322 1.4456 0.3902, -2.2133 1.4311 0.3898, -2.2133 1.4311 0.3902, -2.1912 1.4219 0.3898, -2.1912 1.4219 0.3902, -2.1676 1.4188 0.3898, -2.1676 1.4188 0.3902, -2.1439 1.4219 0.3898, -2.1439 1.4219 0.3902, -2.1219 1.4311 0.3898, -2.1219 1.4311 0.3902, -2.103 1.4456 0.3898, -2.103 1.4456 0.3902, -2.0884 1.4645 0.3898, -2.0884 1.4645 0.3902, -2.0793 1.4866 0.3898, -2.0793 1.4866 0.3902, -2.1676 1.5102 0.3898
            ]
        }
        coordIndex [
            0,1,2,-1,2,1,3,-1,2,3,4,-1,4,3,5,-1,4,5,6,-1,6,5,7,-1,6,7,8,-1,8,7,9,-1,8,9,10,-1,10,9,11,-1,10,11,12,-1,12,11,13,-1,12,13,14,-1,14,13,15,-1,14,15,16,-1,16,15,17,-1,16,17,18,-1,18,17,19,-1,18,19,20,-1,20,19,21,-1,20,21,22,-1,22,21,23,-1,22,23,24,-1,24,23,25,-1,24,25,26,-1,26,25,27,-1,26,27,28,-1,28,27,29,-1,28,29,30,-1,30,29,31,-1,30,31,32,-1,32,31,33,-1,32,33,34,-1,34,33,35,-1,34,35,36,-1,36,35,37,-1,36,37,38,-1,38,37,39,-1,38,39,40,-1,40,39,41,-1,40,41,42,-1,42,41,43,-1,42,43,44,-1,44,43,45,-1,44,45,46,-1,46,45,47,-1,46,47,0,-1,0,47,1,-1,44,46,48,-1,48,46,0,-1,48,0,2,-1,38,40,48,-1,48,40,42,-1,48,42,44,-1,32,34,48,-1,48,34,36,-1,48,36,38,-1,26,28,48,-1,48,28,30,-1,48,30,32,-1,20,22,48,-1,48,22,24,-1,48,24,26,-1,14,16,48,-1,48,16,18,-1,48,18,20,-1,8,10,48,-1,48,10,12,-1,48,12,14,-1,2,4,48,-1,48,4,6,-1,48,6,8,-1,
        ]
    }
}
Shape{
    appearance Appearance {
        material  Material {
            diffuseColor 1.0 1.0 1.0
            specularColor 0.5019607843137255 0.5019607843137255 0.5019607843137255
            ambientIntensity 1.0
            transparency 0.0
            shininess 0.5
        }
    }
    geometry IndexedFaceSet {
        ccw TRUE
        solid FALSE
        coord DEF co Coordinate {
            point [
                2.0493 -1.4416 0.3941, 2.0394 -1.4352 0.3941, 2.0393 -1.4488 0.3941, 2.0332 -1.4395 0.3941, 2.0284 -1.453 0.3941, 2.0253 -1.4425 0.3941, 2.0122 -1.455 0.3941, 2.0122 -1.4441 0.3941, 1.986 -1.455 0.3941, 1.9983 -1.4441 0.3941, 1.986 -1.3596 0.3941, 1.9983 -1.3706 0.3941, 2.0132 -1.3596 0.3941, 2.0127 -1.3706 0.3941, 2.0134 -1.3706 0.3941, 2.0278 -1.3612 0.3941, 2.0257 -1.3721 0.3941, 2.0393 -1.3654 0.3941, 2.0338 -1.3752 0.3941, 2.0493 -1.3723 0.3941, 2.0402 -1.3796 0.3941, 2.0526 -1.3756 0.3941, 2.0429 -1.3822 0.3941, 2.0585 -1.3839 0.3941, 2.0466 -1.3876 0.3941, 2.0621 -1.393 0.3941, 2.0493 -1.3945 0.3941, 2.0636 -1.4061 0.3941, 2.0507 -1.4064 0.3941, 2.0633 -1.4122 0.3941, 2.0503 -1.4127 0.3941, 2.061 -1.4233 0.3941, 2.0485 -1.4214 0.3941, 2.0563 -1.4332 0.3941, 2.0451 -1.4284 0.3941, 2.0405 -1.4341 0.3941, 2.0493 -1.4416 0.3902, 2.0563 -1.4332 0.3902, 2.061 -1.4233 0.3902, 2.0633 -1.4122 0.3902, 2.0636 -1.4061 0.3902, 2.0621 -1.393 0.3902, 2.0585 -1.3839 0.3902, 2.0526 -1.3756 0.3902, 2.0493 -1.3723 0.3902, 2.0393 -1.3654 0.3902, 2.0278 -1.3612 0.3902, 2.0132 -1.3596 0.3902, 1.986 -1.3596 0.3902, 1.986 -1.455 0.3902, 2.0122 -1.455 0.3902, 2.0284 -1.453 0.3902, 2.0393 -1.4488 0.3902, 2.0402 -1.3796 0.3902, 2.0429 -1.3822 0.3902, 2.0466 -1.3876 0.3902, 2.0493 -1.3945 0.3902, 2.0507 -1.4064 0.3902, 2.0127 -1.3706 0.3902, 2.0134 -1.3706 0.3902, 2.0257 -1.3721 0.3902, 2.0338 -1.3752 0.3902, 1.9983 -1.3706 0.3902, 1.9983 -1.4441 0.3902, 2.0122 -1.4441 0.3902, 2.0405 -1.4341 0.3902, 2.0394 -1.4352 0.3902, 2.0332 -1.4395 0.3902, 2.0253 -1.4425 0.3902, 2.0503 -1.4127 0.3902, 2.0485 -1.4214 0.3902, 2.0451 -1.4284 0.3902
            ]
        }
        coordIndex [
            0,1,2,-1,2,1,3,-1,2,3,4,-1,4,3,5,-1,4,5,6,-1,6,5,7,-1,6,7,8,-1,8,7,9,-1,8,9,10,-1,10,9,11,-1,10,11,12,-1,11,13,12,-1,12,13,14,-1,12,14,15,-1,15,14,16,-1,15,16,17,-1,17,16,18,-1,17,18,19,-1,19,18,20,-1,19,20,21,-1,21,20,22,-1,21,22,23,-1,23,22,24,-1,23,24,25,-1,25,24,26,-1,25,26,27,-1,27,26,28,-1,27,28,29,-1,29,28,30,-1,29,30,31,-1,31,30,32,-1,31,32,33,-1,33,32,34,-1,33,34,0,-1,0,34,35,-1,0,35,1,-1,0,36,37,-1,0,37,33,-1,33,37,38,-1,33,38,31,-1,31,38,39,-1,31,39,29,-1,29,39,40,-1,29,40,27,-1,27,40,41,-1,27,41,25,-1,25,41,42,-1,25,42,23,-1,23,42,43,-1,23,43,21,-1,21,43,44,-1,21,44,19,-1,19,44,45,-1,19,45,17,-1,17,45,46,-1,17,46,15,-1,15,46,47,-1,15,47,12,-1,10,12,48,-1,48,12,47,-1,8,10,49,-1,49,10,48,-1,6,8,50,-1,50,8,49,-1,6,50,51,-1,6,51,4,-1,4,51,52,-1,4,52,2,-1,2,52,36,-1,2,36,0,-1,20,53,54,-1,20,54,22,-1,22,54,55,-1,22,55,24,-1,24,55,56,-1,24,56,26,-1,26,56,57,-1,26,57,28,-1,13,58,59,-1,13,59,14,-1,14,59,60,-1,14,60,16,-1,16,60,61,-1,16,61,18,-1,18,61,53,-1,18,53,20,-1,13,11,58,-1,58,11,62,-1,11,9,62,-1,62,9,63,-1,9,7,63,-1,63,7,64,-1,35,65,66,-1,35,66,1,-1,1,66,67,-1,1,67,3,-1,3,67,68,-1,3,68,5,-1,5,68,64,-1,5,64,7,-1,28,57,69,-1,28,69,30,-1,30,69,70,-1,30,70,32,-1,32,70,71,-1,32,71,34,-1,34,71,65,-1,34,65,35,-1,
        ]
    }
}
Shape{
    appearance Appearance {
        material  Material {
            diffuseColor 0.20784313725490197 0.20784313725490197 0.20784313725490197
            specularColor 0.01568627450980392 0.01568627450980392 0.01568627450980392
            ambientIntensity 0.298
            transparency 0.0
            shininess 0.5
        }
    }
    geometry IndexedFaceSet {
        ccw TRUE
        solid FALSE
        coord DEF co Coordinate {
            point [
                2.0332 -1.4395 0.3902, 2.0394 -1.4352 0.3902, 2.0134 -1.3706 0.3902, 1.9983 -1.3706 0.3902, 1.9983 -1.4441 0.3902, 2.0127 -1.3706 0.3902, 2.0122 -1.4441 0.3902, 2.0253 -1.4425 0.3902, 2.0405 -1.4341 0.3902, 2.0451 -1.4284 0.3902, 2.0485 -1.4214 0.3902, 2.0507 -1.4064 0.3902, 2.0402 -1.3796 0.3902, 2.0338 -1.3752 0.3902, 2.0493 -1.3945 0.3902, 2.0466 -1.3876 0.3902, 2.0429 -1.3822 0.3902, 2.0503 -1.4127 0.3902, 2.0257 -1.3721 0.3902
            ]
        }
        coordIndex [
            0,1,2,-1,3,4,5,-1,5,4,6,-1,5,6,2,-1,2,6,7,-1,2,7,0,-1,1,8,2,-1,2,8,9,-1,2,9,10,-1,11,12,13,-1,14,15,11,-1,11,15,16,-1,11,16,12,-1,10,17,2,-1,2,17,11,-1,2,11,18,-1,18,11,13,-1,
        ]
    }
}
Shape{
    appearance Appearance {
        material  Material {
            diffuseColor 1.0 1.0 1.0
            specularColor 0.5019607843137255 0.5019607843137255 0.5019607843137255
            ambientIntensity 1.0
            transparency 0.0
            shininess 0.5
        }
    }
    geometry IndexedFaceSet {
        ccw TRUE
        solid FALSE
        coord DEF co Coordinate {
            point [
                1.8729 -1.4381 0.3941, 1.8729 -1.4381 0.3902, 1.872 -1.4413 0.3902, 1.872 -1.4413 0.3941, 1.8714 -1.4436 0.3902, 1.8714 -1.4436 0.3941, 1.8711 -1.4436 0.3941, 1.8711 -1.4436 0.3902, 1.8697 -1.438 0.3941, 1.8697 -1.438 0.3902, 1.8519 -1.3869 0.3941, 1.8519 -1.3869 0.3902, 1.8385 -1.3869 0.3941, 1.8385 -1.3869 0.3902, 1.8652 -1.4548 0.3941, 1.8652 -1.4548 0.3902, 1.86 -1.4672 0.3902, 1.86 -1.4672 0.3941, 1.8648 -1.4558 0.3902, 1.8576 -1.4715 0.3902, 1.8576 -1.4715 0.3941, 1.8554 -1.474 0.3902, 1.8554 -1.474 0.3941, 1.8533 -1.4754 0.3902, 1.8533 -1.4754 0.3941, 1.8507 -1.4764 0.3902, 1.8507 -1.4764 0.3941, 1.8478 -1.4768 0.3902, 1.8478 -1.4768 0.3941, 1.8434 -1.4762 0.3902, 1.8434 -1.4762 0.3941, 1.841 -1.4754 0.3902, 1.841 -1.4754 0.3941, 1.841 -1.486 0.3941, 1.841 -1.486 0.3902, 1.846 -1.4869 0.3902, 1.846 -1.4869 0.3941, 1.8487 -1.487 0.3902, 1.8487 -1.487 0.3941, 1.8535 -1.4865 0.3902, 1.8535 -1.4865 0.3941, 1.8582 -1.4847 0.3902, 1.8582 -1.4847 0.3941, 1.8624 -1.4818 0.3902, 1.8624 -1.4818 0.3941, 1.8632 -1.481 0.3902, 1.8632 -1.481 0.3941, 1.8676 -1.4758 0.3902, 1.8676 -1.4758 0.3941, 1.873 -1.4652 0.3902, 1.873 -1.4652 0.3941, 1.9039 -1.3869 0.3902, 1.9039 -1.3869 0.3941, 1.8767 -1.4558 0.3902, 1.8915 -1.3869 0.3941, 1.8915 -1.3869 0.3902, 1.8048 -1.4566 0.3902, 1.813 -1.4558 0.3902, 1.8048 -1.4566 0.3941, 1.814 -1.4557 0.3941, 1.814 -1.4557 0.3902, 1.8207 -1.4535 0.3902, 1.8207 -1.4535 0.3941, 1.8246 -1.4512 0.3902, 1.8246 -1.4512 0.3941, 1.828 -1.4482 0.3902, 1.828 -1.4482 0.3941, 1.8303 -1.445 0.3902, 1.8303 -1.445 0.3941, 1.8317 -1.4412 0.3902, 1.8317 -1.4412 0.3941, 1.8323 -1.4364 0.3902, 1.8323 -1.4364 0.3941, 1.8318 -1.432 0.3902, 1.8318 -1.432 0.3941, 1.8305 -1.4285 0.3902, 1.8305 -1.4285 0.3941, 1.8283 -1.4252 0.3902, 1.8283 -1.4252 0.3941, 1.8255 -1.4226 0.3902, 1.8255 -1.4226 0.3941, 1.8175 -1.4182 0.3902, 1.8175 -1.4182 0.3941, 1.8129 -1.4164 0.3902, 1.8129 -1.4164 0.3941, 1.8055 -1.4131 0.3902, 1.8055 -1.4131 0.3941, 1.8013 -1.4105 0.3902, 1.8013 -1.4105 0.3941, 1.8001 -1.4092 0.3902, 1.8001 -1.4092 0.3941, 1.7993 -1.4076 0.3902, 1.7993 -1.4076 0.3941, 1.7988 -1.4058 0.3902, 1.7988 -1.4058 0.3941, 1.7987 -1.4042 0.3902, 1.7987 -1.4042 0.3941, 1.7989 -1.4023 0.3902, 1.7989 -1.4023 0.3941, 1.7995 -1.4007 0.3902, 1.7995 -1.4007 0.3941, 1.8005 -1.3991 0.3902, 1.8005 -1.3991 0.3941, 1.8023 -1.3975 0.3902, 1.8023 -1.3975 0.3941, 1.805 -1.3961 0.3902, 1.805 -1.3961 0.3941, 1.8082 -1.3953 0.3902, 1.8082 -1.3953 0.3941, 1.8117 -1.395 0.3902, 1.8117 -1.395 0.3941, 1.8196 -1.3959 0.3902, 1.8196 -1.3959 0.3941, 1.8263 -1.3984 0.3902, 1.8263 -1.3984 0.3941, 1.829 -1.3999 0.3902, 1.829 -1.3999 0.3941, 1.829 -1.3883 0.3941, 1.829 -1.3883 0.3902, 1.8211 -1.386 0.3902, 1.8211 -1.386 0.3941, 1.8129 -1.3853 0.3902, 1.8129 -1.3853 0.3941, 1.8044 -1.3862 0.3902, 1.8044 -1.3862 0.3941, 1.7978 -1.3885 0.3902, 1.7978 -1.3885 0.3941, 1.7941 -1.3907 0.3902, 1.7941 -1.3907 0.3941, 1.7918 -1.3927 0.3902, 1.7905 -1.3939 0.3941, 1.7905 -1.3939 0.3902, 1.7883 -1.3971 0.3902, 1.7883 -1.3971 0.3941, 1.7869 -1.401 0.3902, 1.7869 -1.401 0.3941, 1.7864 -1.4052 0.3902, 1.7864 -1.4052 0.3941, 1.7869 -1.4099 0.3902, 1.7869 -1.4099 0.3941, 1.7882 -1.4135 0.3902, 1.7882 -1.4135 0.3941, 1.7898 -1.416 0.3902, 1.7898 -1.416 0.3941, 1.8045 -1.425 0.3902, 1.8045 -1.425 0.3941, 1.7974 -1.4218 0.3941, 1.7917 -1.4181 0.3902, 1.7917 -1.4181 0.3941, 1.7918 -1.4181 0.3902, 1.7974 -1.4218 0.3902, 1.8123 -1.4283 0.3902, 1.8123 -1.4283 0.3941, 1.817 -1.4311 0.3902, 1.817 -1.4311 0.3941, 1.8185 -1.4327 0.3902, 1.8185 -1.4327 0.3941, 1.8194 -1.4343 0.3902, 1.8194 -1.4343 0.3941, 1.8199 -1.4361 0.3902, 1.8199 -1.4361 0.3941, 1.8201 -1.4376 0.3902, 1.8201 -1.4376 0.3941, 1.8198 -1.4399 0.3902, 1.8198 -1.4399 0.3941, 1.8192 -1.4416 0.3902, 1.8192 -1.4416 0.3941, 1.8182 -1.4431 0.3902, 1.8182 -1.4431 0.3941, 1.8168 -1.4443 0.3902, 1.8168 -1.4443 0.3941, 1.8157 -1.445 0.3902, 1.8157 -1.445 0.3941, 1.8126 -1.4461 0.3902, 1.8126 -1.4461 0.3941, 1.8065 -1.4468 0.3902, 1.8065 -1.4468 0.3941, 1.806 -1.4468 0.3902, 1.806 -1.4468 0.3941, 1.7863 -1.4402 0.3902, 1.7863 -1.4402 0.3941, 1.791 -1.4431 0.3941, 1.7984 -1.4459 0.3902, 1.7984 -1.4459 0.3941, 1.7918 -1.4434 0.3902, 1.791 -1.4431 0.3902, 1.7863 -1.4526 0.3941, 1.7863 -1.4526 0.3902, 1.7918 -1.4546 0.3902, 1.7938 -1.4553 0.3941, 1.7978 -1.4558 0.3902, 1.7938 -1.4553 0.3902, 1.7582 -1.455 0.3941, 1.7701 -1.455 0.3941, 1.7582 -1.4444 0.3941, 1.7701 -1.4111 0.3941, 1.7582 -1.4117 0.3941, 1.7322 -1.426 0.3941, 1.735 -1.4246 0.3941, 1.7579 -1.4444 0.3941, 1.7516 -1.4427 0.3941, 1.756 -1.4474 0.3941, 1.7482 -1.445 0.3941, 1.7423 -1.4229 0.3941, 1.7582 -1.4208 0.3941, 1.7582 -1.4273 0.3941, 1.7582 -1.4281 0.3941, 1.7574 -1.4334 0.3941, 1.7557 -1.4377 0.3941, 1.7531 -1.4412 0.3941, 1.7578 -1.4064 0.3941, 1.7692 -1.4022 0.3941, 1.7566 -1.4021 0.3941, 1.7674 -1.3967 0.3941, 1.7552 -1.3997 0.3941, 1.7649 -1.3928 0.3941, 1.7533 -1.3978 0.3941, 1.7618 -1.3898 0.3941, 1.7512 -1.3964 0.3941, 1.7578 -1.3875 0.3941, 1.7485 -1.3954 0.3941, 1.7528 -1.386 0.3941, 1.7444 -1.395 0.3941, 1.7455 -1.3853 0.3941, 1.7367 -1.3959 0.3941, 1.7335 -1.3868 0.3941, 1.7293 -1.3986 0.3941, 1.7246 -1.3902 0.3941, 1.7221 -1.4032 0.3941, 1.7221 -1.3916 0.3941, 1.73 -1.4427 0.3941, 1.7213 -1.4512 0.3941, 1.731 -1.4437 0.3941, 1.7253 -1.454 0.3941, 1.7334 -1.4453 0.3941, 1.7299 -1.4557 0.3941, 1.7361 -1.4463 0.3941, 1.737 -1.4566 0.3941, 1.7401 -1.4468 0.3941, 1.7432 -1.4559 0.3941, 1.7446 -1.4463 0.3941, 1.7481 -1.4541 0.3941, 1.7522 -1.4514 0.3941, 1.7277 -1.4339 0.3941, 1.7155 -1.4351 0.3941, 1.7276 -1.4358 0.3941, 1.7154 -1.4367 0.3941, 1.7279 -1.4385 0.3941, 1.716 -1.4422 0.3941, 1.7286 -1.4407 0.3941, 1.7175 -1.4462 0.3941, 1.72 -1.4499 0.3941, 1.738 -1.4145 0.3941, 1.7292 -1.4166 0.3941, 1.7307 -1.4271 0.3941, 1.7241 -1.4192 0.3941, 1.7293 -1.4289 0.3941, 1.7204 -1.4224 0.3941, 1.7282 -1.4311 0.3941, 1.7179 -1.4258 0.3941, 1.7163 -1.43 0.3941, 1.7444 -1.395 0.3902, 1.7485 -1.3954 0.3902, 1.7512 -1.3964 0.3902, 1.7533 -1.3978 0.3902, 1.7552 -1.3997 0.3902, 1.7566 -1.4021 0.3902, 1.7578 -1.4064 0.3902, 1.7582 -1.4117 0.3902, 1.738 -1.4145 0.3902, 1.7292 -1.4166 0.3902, 1.7241 -1.4192 0.3902, 1.7204 -1.4224 0.3902, 1.7179 -1.4258 0.3902, 1.7163 -1.43 0.3902, 1.7155 -1.4351 0.3902, 1.7154 -1.4367 0.3902, 1.716 -1.4422 0.3902, 1.7175 -1.4462 0.3902, 1.72 -1.4499 0.3902, 1.7213 -1.4512 0.3902, 1.737 -1.4566 0.3902, 1.7301 -1.4558 0.3902, 1.7299 -1.4557 0.3902, 1.7253 -1.454 0.3902, 1.7432 -1.4559 0.3902, 1.7435 -1.4558 0.3902, 1.7481 -1.4541 0.3902, 1.7522 -1.4514 0.3902, 1.756 -1.4474 0.3902, 1.7579 -1.4444 0.3902, 1.7582 -1.4444 0.3902, 1.7582 -1.455 0.3902, 1.7701 -1.455 0.3902, 1.7701 -1.4111 0.3902, 1.7692 -1.4022 0.3902, 1.7674 -1.3967 0.3902, 1.7649 -1.3928 0.3902, 1.7618 -1.3898 0.3902, 1.7578 -1.3875 0.3902, 1.7528 -1.386 0.3902, 1.7455 -1.3853 0.3902, 1.7335 -1.3868 0.3902, 1.7246 -1.3902 0.3902, 1.7221 -1.3916 0.3902, 1.7221 -1.4032 0.3902, 1.7293 -1.3986 0.3902, 1.7367 -1.3959 0.3902, 1.7531 -1.4412 0.3902, 1.7516 -1.4427 0.3902, 1.7482 -1.445 0.3902, 1.7446 -1.4463 0.3902, 1.7401 -1.4468 0.3902, 1.7582 -1.4273 0.3902, 1.7582 -1.4281 0.3902, 1.7574 -1.4334 0.3902, 1.7557 -1.4377 0.3902, 1.7582 -1.4208 0.3902, 1.7423 -1.4229 0.3902, 1.7307 -1.4271 0.3902, 1.7322 -1.426 0.3902, 1.735 -1.4246 0.3902, 1.7276 -1.4358 0.3902, 1.7277 -1.4339 0.3902, 1.7282 -1.4311 0.3902, 1.7293 -1.4289 0.3902, 1.731 -1.4437 0.3902, 1.73 -1.4427 0.3902, 1.7286 -1.4407 0.3902, 1.7279 -1.4385 0.3902, 1.7361 -1.4463 0.3902, 1.7334 -1.4453 0.3902
            ]
        }
        coordIndex [
            0,1,2,-1,0,2,3,-1,3,2,4,-1,3,4,5,-1,6,5,7,-1,7,5,4,-1,8,6,9,-1,9,6,7,-1,10,8,11,-1,11,8,9,-1,12,10,13,-1,13,10,11,-1,14,12,15,-1,15,12,13,-1,16,17,18,-1,18,17,14,-1,18,14,15,-1,17,16,19,-1,17,19,20,-1,20,19,21,-1,20,21,22,-1,22,21,23,-1,22,23,24,-1,24,23,25,-1,24,25,26,-1,26,25,27,-1,26,27,28,-1,28,27,29,-1,28,29,30,-1,30,29,31,-1,30,31,32,-1,33,32,34,-1,34,32,31,-1,33,34,35,-1,33,35,36,-1,36,35,37,-1,36,37,38,-1,38,37,39,-1,38,39,40,-1,40,39,41,-1,40,41,42,-1,42,41,43,-1,42,43,44,-1,44,43,45,-1,44,45,46,-1,46,45,47,-1,46,47,48,-1,48,47,49,-1,48,49,50,-1,51,52,53,-1,53,52,50,-1,53,50,49,-1,54,52,55,-1,55,52,51,-1,0,54,1,-1,1,54,55,-1,3,5,50,-1,52,54,50,-1,50,54,0,-1,50,0,3,-1,10,12,8,-1,8,12,14,-1,8,14,6,-1,32,33,30,-1,30,33,36,-1,30,36,28,-1,28,36,38,-1,28,38,26,-1,26,38,40,-1,26,40,24,-1,24,40,42,-1,24,42,22,-1,5,6,50,-1,50,6,14,-1,50,14,48,-1,14,17,48,-1,48,17,20,-1,48,20,46,-1,46,20,22,-1,46,22,44,-1,44,22,42,-1,56,57,58,-1,58,57,59,-1,57,60,59,-1,59,60,61,-1,59,61,62,-1,62,61,63,-1,62,63,64,-1,64,63,65,-1,64,65,66,-1,66,65,67,-1,66,67,68,-1,68,67,69,-1,68,69,70,-1,70,69,71,-1,70,71,72,-1,72,71,73,-1,72,73,74,-1,74,73,75,-1,74,75,76,-1,76,75,77,-1,76,77,78,-1,78,77,79,-1,78,79,80,-1,80,79,81,-1,80,81,82,-1,82,81,83,-1,82,83,84,-1,84,83,85,-1,84,85,86,-1,86,85,87,-1,86,87,88,-1,88,87,89,-1,88,89,90,-1,90,89,91,-1,90,91,92,-1,92,91,93,-1,92,93,94,-1,94,93,95,-1,94,95,96,-1,96,95,97,-1,96,97,98,-1,98,97,99,-1,98,99,100,-1,100,99,101,-1,100,101,102,-1,102,101,103,-1,102,103,104,-1,104,103,105,-1,104,105,106,-1,106,105,107,-1,106,107,108,-1,108,107,109,-1,108,109,110,-1,110,109,111,-1,110,111,112,-1,112,111,113,-1,112,113,114,-1,114,113,115,-1,114,115,116,-1,117,116,118,-1,118,116,115,-1,117,118,119,-1,117,119,120,-1,120,119,121,-1,120,121,122,-1,122,121,123,-1,122,123,124,-1,124,123,125,-1,124,125,126,-1,126,125,127,-1,126,127,128,-1,127,129,128,-1,128,129,130,-1,129,131,130,-1,130,131,132,-1,130,132,133,-1,133,132,134,-1,133,134,135,-1,135,134,136,-1,135,136,137,-1,137,136,138,-1,137,138,139,-1,139,138,140,-1,139,140,141,-1,141,140,142,-1,141,142,143,-1,144,145,146,-1,143,142,147,-1,143,147,148,-1,148,147,149,-1,148,149,146,-1,146,149,150,-1,146,150,144,-1,145,144,151,-1,145,151,152,-1,152,151,153,-1,152,153,154,-1,154,153,155,-1,154,155,156,-1,156,155,157,-1,156,157,158,-1,158,157,159,-1,158,159,160,-1,160,159,161,-1,160,161,162,-1,162,161,163,-1,162,163,164,-1,164,163,165,-1,164,165,166,-1,166,165,167,-1,166,167,168,-1,168,167,169,-1,168,169,170,-1,170,169,171,-1,170,171,172,-1,172,171,173,-1,172,173,174,-1,174,173,175,-1,174,175,176,-1,176,175,177,-1,176,177,178,-1,179,180,181,-1,178,177,182,-1,178,182,183,-1,183,182,184,-1,183,184,181,-1,181,184,185,-1,181,185,179,-1,186,180,187,-1,187,180,179,-1,187,188,186,-1,186,188,189,-1,56,58,190,-1,190,58,189,-1,190,189,191,-1,191,189,188,-1,102,104,126,-1,126,104,124,-1,86,145,84,-1,84,145,152,-1,84,152,82,-1,58,178,189,-1,189,178,183,-1,189,183,186,-1,186,183,181,-1,186,181,180,-1,104,106,124,-1,124,106,108,-1,124,108,122,-1,122,108,110,-1,122,110,120,-1,120,110,112,-1,120,112,117,-1,117,112,114,-1,117,114,116,-1,82,152,80,-1,80,152,154,-1,80,154,78,-1,78,154,156,-1,78,156,76,-1,76,156,158,-1,76,158,74,-1,74,158,160,-1,74,160,72,-1,72,160,162,-1,72,162,70,-1,70,162,164,-1,70,164,68,-1,68,164,166,-1,68,166,66,-1,66,166,168,-1,66,168,64,-1,64,168,170,-1,64,170,62,-1,62,170,172,-1,62,172,59,-1,59,172,174,-1,59,174,58,-1,58,174,176,-1,58,176,178,-1,126,128,102,-1,102,128,130,-1,102,130,100,-1,100,130,133,-1,100,133,98,-1,98,133,135,-1,98,135,96,-1,96,135,137,-1,96,137,94,-1,94,137,139,-1,94,139,92,-1,92,139,141,-1,92,141,90,-1,90,141,143,-1,90,143,88,-1,88,143,148,-1,88,148,86,-1,86,148,146,-1,86,146,145,-1,192,193,194,-1,194,193,195,-1,196,197,198,-1,199,200,201,-1,201,200,202,-1,203,204,195,-1,195,204,205,-1,205,206,195,-1,195,206,207,-1,195,207,194,-1,194,207,208,-1,194,208,199,-1,199,208,209,-1,199,209,200,-1,198,203,196,-1,196,203,195,-1,196,195,210,-1,210,195,211,-1,210,211,212,-1,212,211,213,-1,212,213,214,-1,214,213,215,-1,214,215,216,-1,216,215,217,-1,216,217,218,-1,218,217,219,-1,218,219,220,-1,220,219,221,-1,220,221,222,-1,222,221,223,-1,222,223,224,-1,224,223,225,-1,224,225,226,-1,226,225,227,-1,226,227,228,-1,228,227,229,-1,230,231,232,-1,232,231,233,-1,232,233,234,-1,234,233,235,-1,234,235,236,-1,236,235,237,-1,236,237,238,-1,238,237,239,-1,238,239,240,-1,240,239,241,-1,240,241,202,-1,202,241,242,-1,202,242,201,-1,243,244,245,-1,245,244,246,-1,245,246,247,-1,247,246,248,-1,247,248,249,-1,249,248,250,-1,249,250,230,-1,230,250,251,-1,230,251,231,-1,196,252,197,-1,197,252,253,-1,197,253,254,-1,254,253,255,-1,254,255,256,-1,256,255,257,-1,256,257,258,-1,258,257,259,-1,258,259,243,-1,243,259,260,-1,243,260,244,-1,222,261,262,-1,222,262,220,-1,220,262,263,-1,220,263,218,-1,218,263,264,-1,218,264,216,-1,216,264,265,-1,216,265,214,-1,214,265,266,-1,214,266,212,-1,212,266,267,-1,212,267,210,-1,210,267,268,-1,210,268,196,-1,252,196,269,-1,269,196,268,-1,252,269,270,-1,252,270,253,-1,253,270,271,-1,253,271,255,-1,255,271,272,-1,255,272,257,-1,257,272,273,-1,257,273,259,-1,259,273,274,-1,259,274,260,-1,260,274,275,-1,260,275,244,-1,244,275,276,-1,244,276,246,-1,246,276,277,-1,246,277,248,-1,248,277,278,-1,248,278,250,-1,250,278,279,-1,250,279,251,-1,251,279,280,-1,251,280,231,-1,281,237,282,-1,282,237,235,-1,282,235,283,-1,283,235,233,-1,283,233,284,-1,284,233,231,-1,284,231,280,-1,237,281,285,-1,237,285,239,-1,239,285,286,-1,239,286,241,-1,286,287,241,-1,241,287,288,-1,241,288,242,-1,242,288,289,-1,242,289,201,-1,201,289,290,-1,201,290,199,-1,194,199,291,-1,291,199,290,-1,192,194,292,-1,292,194,291,-1,193,192,293,-1,293,192,292,-1,195,193,294,-1,294,193,293,-1,195,294,295,-1,195,295,211,-1,211,295,296,-1,211,296,213,-1,213,296,297,-1,213,297,215,-1,215,297,298,-1,215,298,217,-1,217,298,299,-1,217,299,219,-1,219,299,300,-1,219,300,221,-1,221,300,301,-1,221,301,223,-1,223,301,302,-1,223,302,225,-1,225,302,303,-1,225,303,227,-1,227,303,304,-1,227,304,229,-1,228,229,305,-1,305,229,304,-1,228,305,306,-1,228,306,226,-1,226,306,307,-1,226,307,224,-1,224,307,261,-1,224,261,222,-1,209,308,309,-1,209,309,200,-1,200,309,310,-1,200,310,202,-1,202,310,311,-1,202,311,240,-1,240,311,312,-1,240,312,238,-1,205,313,314,-1,205,314,206,-1,206,314,315,-1,206,315,207,-1,207,315,316,-1,207,316,208,-1,208,316,308,-1,208,308,209,-1,205,204,313,-1,313,204,317,-1,204,203,317,-1,317,203,318,-1,254,319,320,-1,254,320,197,-1,197,320,321,-1,197,321,198,-1,198,321,318,-1,198,318,203,-1,245,322,323,-1,245,323,243,-1,243,323,324,-1,243,324,258,-1,258,324,325,-1,258,325,256,-1,256,325,319,-1,256,319,254,-1,232,326,327,-1,232,327,230,-1,230,327,328,-1,230,328,249,-1,249,328,329,-1,249,329,247,-1,247,329,322,-1,247,322,245,-1,238,312,330,-1,238,330,236,-1,236,330,331,-1,236,331,234,-1,234,331,326,-1,234,326,232,-1,
        ]
    }
}
Shape{
    appearance Appearance {
        material  Material {
            diffuseColor 0.20784313725490197 0.20784313725490197 0.20784313725490197
            specularColor 0.01568627450980392 0.01568627450980392 0.01568627450980392
            ambientIntensity 0.298
            transparency 0.0
            shininess 0.5
        }
    }
    geometry IndexedFaceSet {
        ccw TRUE
        solid FALSE
        coord DEF co Coordinate {
            point [
                1.7582 -1.4281 0.3902, 1.7582 -1.4273 0.3902, 1.7307 -1.4271 0.3902, 1.7582 -1.4208 0.3902, 1.7423 -1.4229 0.3902, 1.735 -1.4246 0.3902, 1.7322 -1.426 0.3902, 1.7574 -1.4334 0.3902, 1.7293 -1.4289 0.3902, 1.7557 -1.4377 0.3902, 1.73 -1.4427 0.3902, 1.731 -1.4437 0.3902, 1.7516 -1.4427 0.3902, 1.7286 -1.4407 0.3902, 1.7482 -1.445 0.3902, 1.7446 -1.4463 0.3902, 1.7401 -1.4468 0.3902, 1.7282 -1.4311 0.3902, 1.7277 -1.4339 0.3902, 1.7531 -1.4412 0.3902, 1.7276 -1.4358 0.3902, 1.7279 -1.4385 0.3902, 1.7334 -1.4453 0.3902, 1.7361 -1.4463 0.3902
            ]
        }
        coordIndex [
            0,1,2,-1,1,3,4,-1,4,5,1,-1,1,5,6,-1,1,6,2,-1,0,2,7,-1,7,2,8,-1,7,8,9,-1,10,11,12,-1,10,12,13,-1,14,12,15,-1,15,12,16,-1,8,17,9,-1,9,17,18,-1,9,18,19,-1,19,18,20,-1,19,20,12,-1,12,20,21,-1,12,21,13,-1,11,22,12,-1,12,22,23,-1,12,23,16,-1,
        ]
    }
}
Shape{
    appearance Appearance {
        material  Material {
            diffuseColor 1.0 1.0 1.0
            specularColor 0.5019607843137255 0.5019607843137255 0.5019607843137255
            ambientIntensity 1.0
            transparency 0.0
            shininess 0.5
        }
    }
    geometry IndexedFaceSet {
        ccw TRUE
        solid FALSE
        coord DEF co Coordinate {
            point [
                1.2317 -1.4685 0.3941, 1.2418 -1.4809 0.3941, 1.2256 -1.4085 0.3941, 1.2138 -1.2907 0.3941, 1.2289 -1.2827 0.3941, 1.2254 -1.241 0.3941, 1.2676 -1.2391 0.3941, 1.2887 -1.2886 0.3941, 1.299 -1.2671 0.3941, 1.3571 -1.4322 0.3941, 1.3571 -1.4255 0.3941, 1.2998 -1.409 0.3941, 1.2935 -1.4069 0.3941, 1.2109 -1.3994 0.3941, 1.2164 -1.4514 0.3941, 1.2249 -1.4539 0.3941, 1.2521 -1.2377 0.3941, 1.3099 -1.4172 0.3941, 1.313 -1.4227 0.3941, 1.3567 -1.4393 0.3941, 1.452 -1.3753 0.3941, 1.431 -1.3394 0.3941, 1.3402 -1.3868 0.3941, 1.2887 -1.4065 0.3941, 1.2821 -1.4073 0.3941, 1.2731 -1.3658 0.3941, 1.2761 -1.4097 0.3941, 1.2582 -1.3715 0.3941, 1.2708 -1.4134 0.3941, 1.2443 -1.3811 0.3941, 1.268 -1.4164 0.3941, 1.2331 -1.394 0.3941, 1.2646 -1.422 0.3941, 1.2626 -1.4284 0.3941, 1.2623 -1.435 0.3941, 1.3139 -1.3683 0.3941, 1.2976 -1.3643 0.3941, 1.2893 -1.3638 0.3941, 1.3054 -1.4125 0.3941, 1.4744 -1.3082 0.3941, 1.4798 -1.3082 0.3941, 1.5076 -1.2716 0.3941, 1.4927 -1.3098 0.3941, 1.5109 -1.2727 0.3941, 1.5045 -1.3144 0.3941, 1.5311 -1.2827 0.3941, 1.5495 -1.2983 0.3941, 1.2815 -1.2229 0.3941, 1.3142 -1.249 0.3941, 1.2975 -1.2093 0.3941, 1.3324 -1.2357 0.3941, 1.316 -1.198 0.3941, 1.2457 -1.2788 0.3941, 1.2527 -1.2784 0.3941, 1.2599 -1.2381 0.3941, 1.2686 -1.2804 0.3941, 1.2838 -1.2859 0.3941, 1.3283 -1.376 0.3941, 1.5496 -1.4248 0.3941, 1.518 -1.3979 0.3941, 1.5312 -1.4404 0.3941, 1.508 -1.4061 0.3941, 1.5105 -1.4505 0.3941, 1.496 -1.4116 0.3941, 1.4879 -1.4553 0.3941, 1.4839 -1.4139 0.3941, 1.4479 -1.4553 0.3941, 1.4534 -1.4139 0.3941, 1.4441 -1.4547 0.3941, 1.2636 -1.4414 0.3941, 1.2663 -1.447 0.3941, 1.515 -1.3217 0.3941, 1.5228 -1.3304 0.3941, 1.5633 -1.3176 0.3941, 1.5291 -1.3421 0.3941, 1.5716 -1.3383 0.3941, 1.5323 -1.3551 0.3941, 1.5747 -1.3604 0.3941, 1.5327 -1.3611 0.3941, 1.5716 -1.3846 0.3941, 1.531 -1.3743 0.3941, 1.563 -1.406 0.3941, 1.5263 -1.3864 0.3941, 1.5189 -1.3969 0.3941, 1.471 -1.2181 0.3941, 1.4445 -1.2492 0.3941, 1.494 -1.2449 0.3941, 1.4597 -1.2675 0.3941, 1.4702 -1.2893 0.3941, 1.187 -1.3298 0.3941, 1.1424 -1.341 0.3941, 1.185 -1.3462 0.3941, 1.1423 -1.3475 0.3941, 1.1858 -1.3566 0.3941, 1.1455 -1.3741 0.3941, 1.1906 -1.3732 0.3941, 1.1552 -1.3993 0.3941, 1.1987 -1.3869 0.3941, 1.1707 -1.4214 0.3941, 1.1919 -1.4394 0.3941, 1.3148 -1.4289 0.3941, 1.315 -1.4355 0.3941, 1.3528 -1.456 0.3941, 1.3135 -1.442 0.3941, 1.3448 -1.4711 0.3941, 1.3104 -1.4479 0.3941, 1.3344 -1.4828 0.3941, 1.3063 -1.4525 0.3941, 1.3209 -1.4922 0.3941, 1.3012 -1.4562 0.3941, 1.3057 -1.498 0.3941, 1.2953 -1.4585 0.3941, 1.2893 -1.5 0.3941, 1.2887 -1.4594 0.3941, 1.2867 -1.5 0.3941, 1.2875 -1.4593 0.3941, 1.2707 -1.4975 0.3941, 1.2814 -1.4583 0.3941, 1.2551 -1.4909 0.3941, 1.2753 -1.4557 0.3941, 1.2701 -1.4517 0.3941, 1.3474 -1.1864 0.3941, 1.3545 -1.2267 0.3941, 1.3788 -1.1828 0.3941, 1.3795 -1.2235 0.3941, 1.4101 -1.1865 0.3941, 1.4025 -1.2263 0.3941, 1.4438 -1.1993 0.3941, 1.4237 -1.2345 0.3941, 1.4428 -1.2477 0.3941, 1.2003 -1.2508 0.3941, 1.1787 -1.2659 0.3941, 1.2022 -1.3011 0.3941, 1.1741 -1.2703 0.3941, 1.1928 -1.3146 0.3941, 1.1578 -1.2911 0.3941, 1.147 -1.3155 0.3941, 1.4499 -1.4133 0.3941, 1.4337 -1.4482 0.3941, 1.4352 -1.4498 0.3941, 1.452 -1.4138 0.3941, 1.4396 -1.4529 0.3941, 1.4283 -1.4343 0.3941, 1.4289 -1.4393 0.3941, 1.4307 -1.4439 0.3941, 1.444 -1.4139 0.3941, 1.4394 -1.4158 0.3941, 1.4284 -1.4316 0.3941, 1.4352 -1.4187 0.3941, 1.4324 -1.4218 0.3941, 1.4298 -1.4264 0.3941, 1.4493 -1.4133 0.3941, 1.5539 -1.3045 0.3902, 1.5633 -1.3176 0.3902, 1.5693 -1.3325 0.3902, 1.5716 -1.3383 0.3902, 1.5747 -1.3604 0.3902, 1.5495 -1.2983 0.3902, 1.5311 -1.2827 0.3902, 1.5109 -1.2727 0.3902, 1.5076 -1.2716 0.3902, 1.494 -1.2449 0.3902, 1.471 -1.2181 0.3902, 1.4558 -1.2076 0.3902, 1.4438 -1.1993 0.3902, 1.4101 -1.1865 0.3902, 1.3788 -1.1828 0.3902, 1.3474 -1.1864 0.3902, 1.316 -1.198 0.3902, 1.3002 -1.2076 0.3902, 1.2975 -1.2093 0.3902, 1.2815 -1.2229 0.3902, 1.2676 -1.2391 0.3902, 1.2599 -1.2381 0.3902, 1.2521 -1.2377 0.3902, 1.2254 -1.241 0.3902, 1.2003 -1.2508 0.3902, 1.1787 -1.2659 0.3902, 1.1741 -1.2703 0.3902, 1.1578 -1.2911 0.3902, 1.1519 -1.3045 0.3902, 1.147 -1.3155 0.3902, 1.144 -1.3325 0.3902, 1.1424 -1.341 0.3902, 1.1423 -1.3475 0.3902, 1.1455 -1.3741 0.3902, 1.1552 -1.3993 0.3902, 1.1707 -1.4214 0.3902, 1.1919 -1.4394 0.3902, 1.2164 -1.4514 0.3902, 1.2249 -1.4539 0.3902, 1.2258 -1.4558 0.3902, 1.2317 -1.4685 0.3902, 1.2418 -1.4809 0.3902, 1.2551 -1.4909 0.3902, 1.2613 -1.4935 0.3902, 1.2707 -1.4975 0.3902, 1.2867 -1.5 0.3902, 1.2893 -1.5 0.3902, 1.3571 -1.4322 0.3902, 1.3057 -1.498 0.3902, 1.3174 -1.4935 0.3902, 1.3209 -1.4922 0.3902, 1.3344 -1.4828 0.3902, 1.3448 -1.4711 0.3902, 1.3528 -1.456 0.3902, 1.3528 -1.4558 0.3902, 1.3567 -1.4393 0.3902, 1.3571 -1.4255 0.3902, 1.452 -1.3753 0.3902, 1.431 -1.3394 0.3902, 1.3402 -1.3868 0.3902, 1.3283 -1.376 0.3902, 1.3139 -1.3683 0.3902, 1.2976 -1.3643 0.3902, 1.2893 -1.3638 0.3902, 1.2731 -1.3658 0.3902, 1.2582 -1.3715 0.3902, 1.2443 -1.3811 0.3902, 1.2331 -1.394 0.3902, 1.2256 -1.4085 0.3902, 1.2109 -1.3994 0.3902, 1.1987 -1.3869 0.3902, 1.1906 -1.3732 0.3902, 1.1858 -1.3566 0.3902, 1.185 -1.3462 0.3902, 1.1866 -1.3325 0.3902, 1.187 -1.3298 0.3902, 1.1928 -1.3146 0.3902, 1.1998 -1.3045 0.3902, 1.2022 -1.3011 0.3902, 1.2138 -1.2907 0.3902, 1.2289 -1.2827 0.3902, 1.2457 -1.2788 0.3902, 1.2527 -1.2784 0.3902, 1.2686 -1.2804 0.3902, 1.2838 -1.2859 0.3902, 1.2887 -1.2886 0.3902, 1.299 -1.2671 0.3902, 1.3142 -1.249 0.3902, 1.3324 -1.2357 0.3902, 1.3545 -1.2267 0.3902, 1.3795 -1.2235 0.3902, 1.4025 -1.2263 0.3902, 1.4237 -1.2345 0.3902, 1.4428 -1.2477 0.3902, 1.4445 -1.2492 0.3902, 1.4597 -1.2675 0.3902, 1.4702 -1.2893 0.3902, 1.4736 -1.3045 0.3902, 1.4744 -1.3082 0.3902, 1.4798 -1.3082 0.3902, 1.4927 -1.3098 0.3902, 1.5045 -1.3144 0.3902, 1.515 -1.3217 0.3902, 1.5228 -1.3304 0.3902, 1.5239 -1.3325 0.3902, 1.5291 -1.3421 0.3902, 1.5323 -1.3551 0.3902, 1.5327 -1.3611 0.3902, 1.531 -1.3743 0.3902, 1.5263 -1.3864 0.3902, 1.5189 -1.3969 0.3902, 1.518 -1.3979 0.3902, 1.508 -1.4061 0.3902, 1.496 -1.4116 0.3902, 1.4839 -1.4139 0.3902, 1.4534 -1.4139 0.3902, 1.452 -1.4138 0.3902, 1.4499 -1.4133 0.3902, 1.4493 -1.4133 0.3902, 1.444 -1.4139 0.3902, 1.4394 -1.4158 0.3902, 1.4352 -1.4187 0.3902, 1.4324 -1.4218 0.3902, 1.4298 -1.4264 0.3902, 1.4284 -1.4316 0.3902, 1.4283 -1.4343 0.3902, 1.4289 -1.4393 0.3902, 1.4307 -1.4439 0.3902, 1.4337 -1.4482 0.3902, 1.4352 -1.4498 0.3902, 1.4396 -1.4529 0.3902, 1.4441 -1.4547 0.3902, 1.4479 -1.4553 0.3902, 1.4879 -1.4553 0.3902, 1.5105 -1.4505 0.3902, 1.5312 -1.4404 0.3902, 1.5496 -1.4248 0.3902, 1.563 -1.406 0.3902, 1.5716 -1.3846 0.3902, 1.2887 -1.4065 0.3902, 1.2935 -1.4069 0.3902, 1.2998 -1.409 0.3902, 1.3054 -1.4125 0.3902, 1.3099 -1.4172 0.3902, 1.313 -1.4227 0.3902, 1.3148 -1.4289 0.3902, 1.315 -1.4355 0.3902, 1.3135 -1.442 0.3902, 1.3104 -1.4479 0.3902, 1.3063 -1.4525 0.3902, 1.3012 -1.4562 0.3902, 1.2953 -1.4585 0.3902, 1.2887 -1.4594 0.3902, 1.2875 -1.4593 0.3902, 1.2814 -1.4583 0.3902, 1.2753 -1.4557 0.3902, 1.2701 -1.4517 0.3902, 1.2663 -1.447 0.3902, 1.2636 -1.4414 0.3902, 1.2623 -1.435 0.3902, 1.2626 -1.4284 0.3902, 1.2646 -1.422 0.3902, 1.268 -1.4164 0.3902, 1.2708 -1.4134 0.3902, 1.2761 -1.4097 0.3902, 1.2821 -1.4073 0.3902
            ]
        }
        coordIndex [
            0,1,2,-1,3,4,5,-1,6,7,8,-1,9,10,11,-1,11,10,12,-1,13,14,2,-1,2,14,15,-1,2,15,0,-1,5,4,16,-1,17,18,19,-1,20,21,10,-1,10,21,22,-1,10,22,12,-1,12,22,23,-1,24,25,26,-1,26,25,27,-1,26,27,28,-1,28,27,29,-1,28,29,30,-1,30,29,31,-1,30,31,32,-1,32,31,2,-1,32,2,33,-1,33,2,34,-1,35,36,24,-1,24,36,37,-1,24,37,25,-1,9,11,19,-1,19,11,38,-1,19,38,17,-1,39,40,41,-1,41,40,42,-1,41,42,43,-1,43,42,44,-1,43,44,45,-1,45,44,46,-1,6,8,47,-1,47,8,48,-1,47,48,49,-1,49,48,50,-1,49,50,51,-1,4,52,16,-1,16,52,53,-1,16,53,54,-1,54,53,55,-1,54,55,6,-1,6,55,56,-1,6,56,7,-1,23,22,24,-1,24,22,57,-1,24,57,35,-1,58,59,60,-1,60,59,61,-1,60,61,62,-1,62,61,63,-1,62,63,64,-1,64,63,65,-1,64,65,66,-1,66,65,67,-1,66,67,68,-1,34,2,69,-1,69,2,1,-1,69,1,70,-1,44,71,46,-1,46,71,72,-1,46,72,73,-1,73,72,74,-1,73,74,75,-1,75,74,76,-1,75,76,77,-1,77,76,78,-1,77,78,79,-1,79,78,80,-1,79,80,81,-1,81,80,82,-1,81,82,58,-1,58,82,83,-1,58,83,59,-1,84,85,86,-1,86,85,87,-1,86,87,41,-1,41,87,88,-1,41,88,39,-1,89,90,91,-1,91,90,92,-1,91,92,93,-1,93,92,94,-1,93,94,95,-1,95,94,96,-1,95,96,97,-1,97,96,98,-1,97,98,13,-1,13,98,99,-1,13,99,14,-1,18,100,19,-1,19,100,101,-1,19,101,102,-1,102,101,103,-1,102,103,104,-1,104,103,105,-1,104,105,106,-1,106,105,107,-1,106,107,108,-1,108,107,109,-1,108,109,110,-1,110,109,111,-1,110,111,112,-1,112,111,113,-1,112,113,114,-1,114,113,115,-1,114,115,116,-1,116,115,117,-1,116,117,118,-1,118,117,119,-1,118,119,1,-1,1,119,120,-1,1,120,70,-1,51,50,121,-1,121,50,122,-1,121,122,123,-1,123,122,124,-1,123,124,125,-1,125,124,126,-1,125,126,127,-1,127,126,128,-1,127,128,84,-1,84,128,129,-1,84,129,85,-1,5,130,3,-1,3,130,131,-1,3,131,132,-1,132,131,133,-1,132,133,134,-1,134,133,135,-1,134,135,89,-1,89,135,136,-1,89,136,90,-1,137,138,139,-1,67,140,68,-1,68,140,137,-1,68,137,141,-1,141,137,139,-1,142,143,137,-1,137,143,144,-1,137,144,138,-1,145,146,147,-1,146,148,147,-1,147,148,149,-1,147,149,150,-1,142,137,147,-1,147,137,151,-1,147,151,145,-1,152,46,153,-1,153,46,73,-1,153,73,154,-1,154,73,75,-1,154,75,155,-1,155,75,77,-1,155,77,156,-1,152,157,46,-1,46,157,158,-1,46,158,45,-1,45,158,159,-1,45,159,43,-1,43,159,160,-1,43,160,41,-1,41,160,161,-1,41,161,86,-1,86,161,162,-1,86,162,84,-1,127,84,163,-1,163,84,162,-1,163,164,127,-1,127,164,165,-1,127,165,125,-1,125,165,166,-1,125,166,123,-1,123,166,167,-1,123,167,121,-1,121,167,168,-1,121,168,51,-1,51,168,49,-1,49,168,169,-1,49,169,170,-1,49,170,171,-1,49,171,47,-1,47,171,172,-1,47,172,6,-1,6,172,173,-1,6,173,54,-1,54,173,174,-1,54,174,16,-1,16,174,175,-1,16,175,5,-1,5,175,176,-1,5,176,130,-1,130,176,177,-1,130,177,131,-1,131,177,178,-1,131,178,133,-1,136,135,179,-1,179,135,133,-1,179,133,178,-1,179,180,136,-1,136,180,181,-1,136,181,90,-1,90,181,182,-1,182,183,90,-1,90,183,184,-1,90,184,92,-1,92,184,185,-1,92,185,94,-1,94,185,186,-1,94,186,96,-1,96,186,187,-1,96,187,98,-1,98,187,188,-1,98,188,99,-1,99,188,189,-1,99,189,14,-1,14,189,190,-1,14,190,15,-1,15,190,191,-1,15,191,0,-1,191,192,0,-1,0,192,193,-1,0,193,1,-1,1,193,194,-1,1,194,118,-1,118,194,195,-1,118,195,116,-1,195,196,116,-1,116,196,197,-1,116,197,114,-1,114,197,198,-1,114,198,112,-1,199,9,19,-1,112,198,200,-1,201,108,200,-1,200,108,110,-1,200,110,112,-1,201,202,108,-1,108,202,203,-1,108,203,106,-1,106,203,204,-1,106,204,104,-1,104,204,205,-1,104,205,102,-1,102,205,206,-1,102,206,19,-1,19,206,207,-1,19,207,199,-1,10,9,208,-1,208,9,199,-1,20,10,209,-1,209,10,208,-1,21,20,210,-1,210,20,209,-1,22,21,211,-1,211,21,210,-1,22,211,212,-1,22,212,57,-1,57,212,213,-1,57,213,35,-1,35,213,214,-1,35,214,36,-1,36,214,215,-1,36,215,37,-1,37,215,216,-1,37,216,25,-1,25,216,217,-1,25,217,27,-1,27,217,218,-1,27,218,29,-1,29,218,219,-1,29,219,31,-1,31,219,220,-1,31,220,2,-1,2,220,221,-1,2,221,13,-1,13,221,222,-1,13,222,97,-1,97,222,223,-1,97,223,95,-1,95,223,224,-1,95,224,93,-1,93,224,225,-1,93,225,91,-1,89,91,225,-1,225,226,89,-1,89,226,227,-1,89,227,228,-1,229,132,228,-1,228,132,134,-1,228,134,89,-1,229,230,132,-1,132,230,231,-1,132,231,3,-1,3,231,232,-1,3,232,4,-1,4,232,233,-1,4,233,52,-1,52,233,234,-1,52,234,53,-1,53,234,235,-1,53,235,55,-1,55,235,236,-1,55,236,56,-1,56,236,237,-1,56,237,7,-1,7,237,238,-1,7,238,8,-1,8,238,239,-1,8,239,48,-1,48,239,240,-1,48,240,50,-1,50,240,241,-1,50,241,122,-1,122,241,242,-1,122,242,124,-1,124,242,243,-1,124,243,126,-1,126,243,244,-1,126,244,128,-1,128,244,245,-1,128,245,129,-1,129,245,246,-1,129,246,85,-1,85,246,247,-1,85,247,87,-1,87,247,248,-1,87,248,88,-1,88,248,39,-1,39,248,249,-1,39,249,250,-1,40,39,251,-1,251,39,250,-1,40,251,252,-1,40,252,42,-1,42,252,253,-1,42,253,44,-1,44,253,254,-1,44,254,71,-1,71,254,255,-1,71,255,72,-1,72,255,256,-1,72,256,74,-1,256,257,74,-1,74,257,258,-1,74,258,76,-1,76,258,259,-1,76,259,78,-1,78,259,260,-1,78,260,80,-1,80,260,261,-1,80,261,82,-1,82,261,262,-1,82,262,83,-1,83,262,263,-1,83,263,59,-1,59,263,264,-1,59,264,61,-1,61,264,265,-1,61,265,63,-1,63,265,266,-1,63,266,65,-1,67,65,267,-1,267,65,266,-1,67,267,268,-1,67,268,140,-1,140,268,269,-1,140,269,137,-1,137,269,270,-1,137,270,151,-1,151,270,271,-1,151,271,145,-1,145,271,272,-1,145,272,146,-1,146,272,273,-1,146,273,148,-1,148,273,274,-1,148,274,149,-1,149,274,275,-1,149,275,150,-1,150,275,276,-1,150,276,147,-1,147,276,277,-1,147,277,142,-1,142,277,278,-1,142,278,143,-1,143,278,279,-1,143,279,144,-1,144,279,280,-1,144,280,138,-1,138,280,281,-1,138,281,139,-1,139,281,282,-1,139,282,141,-1,141,282,283,-1,141,283,68,-1,68,283,284,-1,68,284,66,-1,64,66,285,-1,285,66,284,-1,64,285,286,-1,64,286,62,-1,62,286,287,-1,62,287,60,-1,60,287,288,-1,60,288,58,-1,58,288,289,-1,58,289,81,-1,81,289,290,-1,81,290,79,-1,79,290,156,-1,79,156,77,-1,23,291,292,-1,23,292,12,-1,12,292,293,-1,12,293,11,-1,11,293,294,-1,11,294,38,-1,38,294,295,-1,38,295,17,-1,17,295,296,-1,17,296,18,-1,18,296,297,-1,18,297,100,-1,100,297,298,-1,100,298,101,-1,101,298,299,-1,101,299,103,-1,103,299,300,-1,103,300,105,-1,105,300,301,-1,105,301,107,-1,107,301,302,-1,107,302,109,-1,109,302,303,-1,109,303,111,-1,111,303,304,-1,111,304,113,-1,113,304,305,-1,113,305,115,-1,115,305,306,-1,115,306,117,-1,117,306,307,-1,117,307,119,-1,119,307,308,-1,119,308,120,-1,120,308,309,-1,120,309,70,-1,70,309,310,-1,70,310,69,-1,69,310,311,-1,69,311,34,-1,34,311,312,-1,34,312,33,-1,33,312,313,-1,33,313,32,-1,32,313,314,-1,32,314,30,-1,30,314,315,-1,30,315,28,-1,28,315,316,-1,28,316,26,-1,26,316,317,-1,26,317,24,-1,24,317,291,-1,24,291,23,-1,
        ]
    }
}
Shape{
    appearance Appearance {
        material  Material {
            diffuseColor 0.20784313725490197 0.20784313725490197 0.20784313725490197
            specularColor 0.01568627450980392 0.01568627450980392 0.01568627450980392
            ambientIntensity 0.298
            transparency 0.0
            shininess 0.5
        }
    }
    geometry IndexedFaceSet {
        ccw TRUE
        solid FALSE
        coord DEF co Coordinate {
            point [
                1.2875 -1.4593 0.3902, 1.2708 -1.4134 0.3902, 1.268 -1.4164 0.3902, 1.2953 -1.4585 0.3902, 1.3012 -1.4562 0.3902, 1.2935 -1.4069 0.3902, 1.2887 -1.4065 0.3902, 1.2821 -1.4073 0.3902, 1.2761 -1.4097 0.3902, 1.2636 -1.4414 0.3902, 1.2663 -1.447 0.3902, 1.2701 -1.4517 0.3902, 1.2887 -1.4594 0.3902, 1.313 -1.4227 0.3902, 1.3099 -1.4172 0.3902, 1.3104 -1.4479 0.3902, 1.3054 -1.4125 0.3902, 1.2646 -1.422 0.3902, 1.2626 -1.4284 0.3902, 1.2623 -1.435 0.3902, 1.2753 -1.4557 0.3902, 1.2814 -1.4583 0.3902, 1.3063 -1.4525 0.3902, 1.2998 -1.409 0.3902, 1.3135 -1.442 0.3902, 1.315 -1.4355 0.3902, 1.3148 -1.4289 0.3902
            ]
        }
        coordIndex [
            0,1,2,-1,3,4,5,-1,6,7,0,-1,0,7,8,-1,0,8,1,-1,9,10,2,-1,2,10,11,-1,6,0,5,-1,5,0,12,-1,5,12,3,-1,13,14,15,-1,15,14,16,-1,17,18,2,-1,2,18,19,-1,2,19,9,-1,11,20,2,-1,2,20,21,-1,2,21,0,-1,4,22,5,-1,5,22,15,-1,5,15,23,-1,23,15,16,-1,24,25,15,-1,15,25,26,-1,15,26,13,-1,
        ]
    }
}
Shape{
    appearance Appearance {
        material  Material {
            diffuseColor 1.0 1.0 1.0
            specularColor 0.5019607843137255 0.5019607843137255 0.5019607843137255
            ambientIntensity 1.0
            transparency 0.0
            shininess 0.5
        }
    }
    geometry IndexedFaceSet {
        ccw TRUE
        solid FALSE
        coord DEF co Coordinate {
            point [
                1.9299 -1.2904 0.3941, 1.92 -1.284 0.3941, 1.9199 -1.2975 0.3941, 1.9138 -1.2883 0.3941, 1.909 -1.3018 0.3941, 1.9059 -1.2913 0.3941, 1.8929 -1.3037 0.3941, 1.8928 -1.2929 0.3941, 1.8666 -1.3037 0.3941, 1.8789 -1.2929 0.3941, 1.8666 -1.2084 0.3941, 1.8789 -1.2194 0.3941, 1.8938 -1.2084 0.3941, 1.8934 -1.2194 0.3941, 1.894 -1.2194 0.3941, 1.9084 -1.21 0.3941, 1.9063 -1.2209 0.3941, 1.9199 -1.2142 0.3941, 1.9145 -1.224 0.3941, 1.9299 -1.221 0.3941, 1.9209 -1.2283 0.3941, 1.9333 -1.2243 0.3941, 1.9235 -1.231 0.3941, 1.9392 -1.2327 0.3941, 1.9272 -1.2363 0.3941, 1.9427 -1.2418 0.3941, 1.9299 -1.2433 0.3941, 1.9443 -1.2548 0.3941, 1.9313 -1.2552 0.3941, 1.944 -1.2609 0.3941, 1.931 -1.2615 0.3941, 1.9417 -1.2721 0.3941, 1.9291 -1.2702 0.3941, 1.937 -1.2819 0.3941, 1.9258 -1.2772 0.3941, 1.9211 -1.2829 0.3941, 1.9299 -1.2904 0.3902, 1.937 -1.2819 0.3902, 1.9417 -1.2721 0.3902, 1.944 -1.2609 0.3902, 1.9443 -1.2548 0.3902, 1.9427 -1.2418 0.3902, 1.9392 -1.2327 0.3902, 1.9333 -1.2243 0.3902, 1.9299 -1.221 0.3902, 1.8938 -1.2084 0.3902, 1.9199 -1.2142 0.3902, 1.9103 -1.2107 0.3902, 1.9084 -1.21 0.3902, 1.8666 -1.2084 0.3902, 1.8666 -1.3037 0.3902, 1.8929 -1.3037 0.3902, 1.909 -1.3018 0.3902, 1.9103 -1.3013 0.3902, 1.9199 -1.2975 0.3902, 1.9209 -1.2283 0.3902, 1.9235 -1.231 0.3902, 1.9272 -1.2363 0.3902, 1.9299 -1.2433 0.3902, 1.9313 -1.2552 0.3902, 1.8934 -1.2194 0.3902, 1.894 -1.2194 0.3902, 1.9063 -1.2209 0.3902, 1.9145 -1.224 0.3902, 1.8789 -1.2194 0.3902, 1.8789 -1.2929 0.3902, 1.8928 -1.2929 0.3902, 1.9211 -1.2829 0.3902, 1.92 -1.284 0.3902, 1.9138 -1.2883 0.3902, 1.9059 -1.2913 0.3902, 1.931 -1.2615 0.3902, 1.9291 -1.2702 0.3902, 1.9258 -1.2772 0.3902
            ]
        }
        coordIndex [
            0,1,2,-1,2,1,3,-1,2,3,4,-1,4,3,5,-1,4,5,6,-1,6,5,7,-1,6,7,8,-1,8,7,9,-1,8,9,10,-1,10,9,11,-1,10,11,12,-1,11,13,12,-1,12,13,14,-1,12,14,15,-1,15,14,16,-1,15,16,17,-1,17,16,18,-1,17,18,19,-1,19,18,20,-1,19,20,21,-1,21,20,22,-1,21,22,23,-1,23,22,24,-1,23,24,25,-1,25,24,26,-1,25,26,27,-1,27,26,28,-1,27,28,29,-1,29,28,30,-1,29,30,31,-1,31,30,32,-1,31,32,33,-1,33,32,34,-1,33,34,0,-1,0,34,35,-1,0,35,1,-1,0,36,37,-1,0,37,33,-1,33,37,38,-1,33,38,31,-1,31,38,39,-1,31,39,29,-1,29,39,40,-1,29,40,27,-1,27,40,41,-1,27,41,25,-1,25,41,42,-1,25,42,23,-1,23,42,43,-1,23,43,21,-1,21,43,44,-1,21,44,19,-1,45,12,15,-1,19,44,46,-1,19,46,17,-1,17,46,47,-1,17,47,15,-1,15,47,48,-1,15,48,45,-1,10,12,49,-1,49,12,45,-1,8,10,50,-1,50,10,49,-1,6,8,51,-1,51,8,50,-1,36,0,2,-1,6,51,52,-1,6,52,4,-1,4,52,53,-1,4,53,2,-1,2,53,54,-1,2,54,36,-1,20,55,56,-1,20,56,22,-1,22,56,57,-1,22,57,24,-1,24,57,58,-1,24,58,26,-1,26,58,59,-1,26,59,28,-1,13,60,61,-1,13,61,14,-1,14,61,62,-1,14,62,16,-1,16,62,63,-1,16,63,18,-1,18,63,55,-1,18,55,20,-1,13,11,60,-1,60,11,64,-1,11,9,64,-1,64,9,65,-1,9,7,65,-1,65,7,66,-1,35,67,68,-1,35,68,1,-1,1,68,69,-1,1,69,3,-1,3,69,70,-1,3,70,5,-1,5,70,66,-1,5,66,7,-1,28,59,71,-1,28,71,30,-1,30,71,72,-1,30,72,32,-1,32,72,73,-1,32,73,34,-1,34,73,67,-1,34,67,35,-1,
        ]
    }
}
Shape{
    appearance Appearance {
        material  Material {
            diffuseColor 0.20784313725490197 0.20784313725490197 0.20784313725490197
            specularColor 0.01568627450980392 0.01568627450980392 0.01568627450980392
            ambientIntensity 0.298
            transparency 0.0
            shininess 0.5
        }
    }
    geometry IndexedFaceSet {
        ccw TRUE
        solid FALSE
        coord DEF co Coordinate {
            point [
                1.9138 -1.2883 0.3902, 1.92 -1.284 0.3902, 1.894 -1.2194 0.3902, 1.8789 -1.2194 0.3902, 1.8789 -1.2929 0.3902, 1.8934 -1.2194 0.3902, 1.8928 -1.2929 0.3902, 1.9059 -1.2913 0.3902, 1.9211 -1.2829 0.3902, 1.9258 -1.2772 0.3902, 1.9291 -1.2702 0.3902, 1.9313 -1.2552 0.3902, 1.9209 -1.2283 0.3902, 1.9145 -1.224 0.3902, 1.9299 -1.2433 0.3902, 1.9272 -1.2363 0.3902, 1.9235 -1.231 0.3902, 1.931 -1.2615 0.3902, 1.9063 -1.2209 0.3902
            ]
        }
        coordIndex [
            0,1,2,-1,3,4,5,-1,5,4,6,-1,5,6,2,-1,2,6,7,-1,2,7,0,-1,1,8,2,-1,2,8,9,-1,2,9,10,-1,11,12,13,-1,14,15,11,-1,11,15,16,-1,11,16,12,-1,10,17,2,-1,2,17,11,-1,2,11,18,-1,18,11,13,-1,
        ]
    }
}
Shape{
    appearance Appearance {
        material  Material {
            diffuseColor 1.0 1.0 1.0
            specularColor 0.5019607843137255 0.5019607843137255 0.5019607843137255
            ambientIntensity 1.0
            transparency 0.0
            shininess 0.5
        }
    }
    geometry IndexedFaceSet {
        ccw TRUE
        solid FALSE
        coord DEF co Coordinate {
            point [
                1.7537 -1.2944 0.3941, 1.7537 -1.2944 0.3902, 1.7452 -1.2935 0.3902, 1.7452 -1.2935 0.3941, 1.7382 -1.291 0.3902, 1.7382 -1.291 0.3941, 1.7318 -1.2868 0.3902, 1.7318 -1.2868 0.3941, 1.7292 -1.2843 0.3902, 1.7292 -1.2843 0.3941, 1.7247 -1.2782 0.3902, 1.7247 -1.2782 0.3941, 1.7216 -1.2706 0.3902, 1.7216 -1.2706 0.3941, 1.72 -1.2612 0.3902, 1.72 -1.2612 0.3941, 1.7198 -1.2571 0.3902, 1.7198 -1.2571 0.3941, 1.7214 -1.2441 0.3902, 1.7214 -1.2441 0.3941, 1.7246 -1.2358 0.3902, 1.7246 -1.2358 0.3941, 1.7292 -1.2292 0.3902, 1.7292 -1.2292 0.3941, 1.7298 -1.2285 0.3902, 1.7298 -1.2285 0.3941, 1.7359 -1.2234 0.3902, 1.7359 -1.2234 0.3941, 1.7433 -1.2198 0.3902, 1.7433 -1.2198 0.3941, 1.7515 -1.2181 0.3902, 1.7515 -1.2181 0.3941, 1.7558 -1.2179 0.3902, 1.7558 -1.2179 0.3941, 1.7676 -1.2193 0.3902, 1.7742 -1.2218 0.3902, 1.7772 -1.223 0.3941, 1.7676 -1.2193 0.3941, 1.7772 -1.223 0.3902, 1.7783 -1.2236 0.3902, 1.7783 -1.2236 0.3941, 1.7783 -1.2107 0.3941, 1.7783 -1.2107 0.3902, 1.7742 -1.2095 0.3902, 1.7682 -1.2078 0.3941, 1.7557 -1.2068 0.3902, 1.7557 -1.2068 0.3941, 1.7659 -1.2076 0.3902, 1.7682 -1.2078 0.3902, 1.7491 -1.2076 0.3902, 1.742 -1.2085 0.3941, 1.742 -1.2085 0.3902, 1.732 -1.2123 0.3902, 1.732 -1.2123 0.3941, 1.7231 -1.2186 0.3902, 1.7231 -1.2186 0.3941, 1.7207 -1.2208 0.3902, 1.7207 -1.2208 0.3941, 1.7138 -1.2299 0.3902, 1.7138 -1.2299 0.3941, 1.7092 -1.2404 0.3902, 1.7092 -1.2404 0.3941, 1.7071 -1.2529 0.3902, 1.7071 -1.2529 0.3941, 1.7069 -1.2579 0.3902, 1.7069 -1.2579 0.3941, 1.7088 -1.2733 0.3902, 1.7088 -1.2733 0.3941, 1.7127 -1.2833 0.3902, 1.7127 -1.2833 0.3941, 1.7183 -1.2914 0.3902, 1.7183 -1.2914 0.3941, 1.7191 -1.2923 0.3902, 1.7191 -1.2923 0.3941, 1.7519 -1.3053 0.3902, 1.7519 -1.3053 0.3941, 1.7445 -1.3049 0.3941, 1.7256 -1.2979 0.3902, 1.7256 -1.2979 0.3941, 1.7345 -1.3025 0.3902, 1.7345 -1.3025 0.3941, 1.7431 -1.3045 0.3902, 1.7445 -1.3049 0.3902, 1.7664 -1.3039 0.3941, 1.7603 -1.3045 0.3902, 1.7664 -1.3039 0.3902, 1.7767 -1.3006 0.3941, 1.7742 -1.3014 0.3902, 1.7767 -1.3006 0.3902, 1.7783 -1.2998 0.3902, 1.7783 -1.2998 0.3941, 1.7783 -1.288 0.3941, 1.7783 -1.288 0.3902, 1.7742 -1.2898 0.3902, 1.7689 -1.2922 0.3941, 1.7689 -1.2922 0.3902, 1.7581 -1.2942 0.3902, 1.7581 -1.2942 0.3941, 2.0956 -1.4181 0.3941, 2.0917 -1.4289 0.3941, 2.1276 -1.4181 0.3941, 2.1314 -1.4289 0.3941, 2.1098 -1.3785 0.3941, 2.1052 -1.3596 0.3941, 2.0689 -1.455 0.3941, 2.0825 -1.455 0.3941, 2.1107 -1.3756 0.3941, 2.1114 -1.3718 0.3941, 2.1184 -1.3596 0.3941, 2.1117 -1.3718 0.3941, 2.1125 -1.3758 0.3941, 2.1132 -1.3785 0.3941, 2.1547 -1.455 0.3941, 2.1411 -1.455 0.3941, 2.1052 -1.3596 0.3902, 2.1184 -1.3596 0.3902, 2.0689 -1.455 0.3902, 2.0825 -1.455 0.3902, 2.0917 -1.4289 0.3902, 2.1314 -1.4289 0.3902, 2.1411 -1.455 0.3902, 2.1547 -1.455 0.3902, 2.1098 -1.3785 0.3902, 2.1107 -1.3756 0.3902, 2.1114 -1.3718 0.3902, 2.0956 -1.4181 0.3902, 2.1276 -1.4181 0.3902, 2.1132 -1.3785 0.3902, 2.1117 -1.3718 0.3902, 2.1125 -1.3758 0.3902
            ]
        }
        coordIndex [
            0,1,2,-1,0,2,3,-1,3,2,4,-1,3,4,5,-1,5,4,6,-1,5,6,7,-1,7,6,8,-1,7,8,9,-1,9,8,10,-1,9,10,11,-1,11,10,12,-1,11,12,13,-1,13,12,14,-1,13,14,15,-1,15,14,16,-1,15,16,17,-1,17,16,18,-1,17,18,19,-1,19,18,20,-1,19,20,21,-1,21,20,22,-1,21,22,23,-1,23,22,24,-1,23,24,25,-1,25,24,26,-1,25,26,27,-1,27,26,28,-1,27,28,29,-1,29,28,30,-1,29,30,31,-1,31,30,32,-1,31,32,33,-1,33,32,34,-1,35,36,34,-1,34,36,37,-1,34,37,33,-1,35,38,36,-1,36,38,39,-1,36,39,40,-1,41,40,42,-1,42,40,39,-1,41,42,43,-1,41,43,44,-1,45,46,47,-1,47,46,44,-1,47,44,48,-1,48,44,43,-1,46,45,49,-1,46,49,50,-1,49,51,50,-1,50,51,52,-1,50,52,53,-1,53,52,54,-1,53,54,55,-1,55,54,56,-1,55,56,57,-1,57,56,58,-1,57,58,59,-1,59,58,60,-1,59,60,61,-1,61,60,62,-1,61,62,63,-1,63,62,64,-1,63,64,65,-1,65,64,66,-1,65,66,67,-1,67,66,68,-1,67,68,69,-1,69,68,70,-1,69,70,71,-1,71,70,72,-1,71,72,73,-1,74,75,76,-1,73,72,77,-1,73,77,78,-1,78,77,79,-1,78,79,80,-1,80,79,81,-1,80,81,76,-1,76,81,82,-1,76,82,74,-1,83,75,74,-1,74,84,83,-1,83,84,85,-1,83,85,86,-1,86,85,87,-1,87,88,86,-1,86,88,89,-1,86,89,90,-1,91,90,92,-1,92,90,89,-1,91,92,93,-1,91,93,94,-1,93,95,94,-1,94,95,96,-1,94,96,97,-1,97,96,1,-1,97,1,0,-1,57,25,55,-1,55,25,27,-1,55,27,53,-1,65,17,63,-1,63,17,19,-1,63,19,61,-1,61,19,59,-1,59,19,21,-1,59,21,57,-1,57,21,23,-1,57,23,25,-1,53,27,50,-1,50,27,29,-1,50,29,46,-1,90,91,86,-1,86,91,94,-1,86,94,83,-1,83,94,97,-1,83,97,75,-1,75,97,0,-1,75,0,76,-1,76,0,3,-1,76,3,80,-1,80,3,5,-1,80,5,78,-1,78,5,7,-1,78,7,73,-1,73,7,9,-1,73,9,71,-1,71,9,11,-1,71,11,69,-1,69,11,67,-1,67,11,13,-1,67,13,65,-1,65,13,15,-1,65,15,17,-1,29,31,46,-1,46,31,33,-1,46,33,44,-1,44,33,37,-1,44,37,41,-1,41,37,36,-1,41,36,40,-1,98,99,100,-1,100,99,101,-1,102,103,98,-1,98,103,104,-1,98,104,99,-1,99,104,105,-1,102,106,103,-1,103,106,107,-1,103,107,108,-1,108,107,109,-1,108,109,110,-1,110,111,108,-1,108,111,100,-1,108,100,112,-1,112,100,101,-1,112,101,113,-1,103,108,114,-1,114,108,115,-1,104,103,116,-1,116,103,114,-1,105,104,117,-1,117,104,116,-1,99,105,118,-1,118,105,117,-1,101,99,119,-1,119,99,118,-1,113,101,120,-1,120,101,119,-1,112,113,121,-1,121,113,120,-1,108,112,115,-1,115,112,121,-1,102,122,123,-1,102,123,106,-1,106,123,124,-1,106,124,107,-1,102,98,122,-1,122,98,125,-1,98,100,125,-1,125,100,126,-1,100,111,126,-1,126,111,127,-1,109,128,129,-1,109,129,110,-1,110,129,127,-1,110,127,111,-1,109,107,128,-1,128,107,124,-1,
        ]
    }
}
Shape{
    appearance Appearance {
        material  Material {
            diffuseColor 0.20784313725490197 0.20784313725490197 0.20784313725490197
            specularColor 0.01568627450980392 0.01568627450980392 0.01568627450980392
            ambientIntensity 0.298
            transparency 0.0
            shininess 0.5
        }
    }
    geometry IndexedFaceSet {
        ccw TRUE
        solid FALSE
        coord DEF co Coordinate {
            point [
                2.1117 -1.3718 0.3902, 2.1114 -1.3718 0.3902, 2.1125 -1.3758 0.3902, 2.1107 -1.3756 0.3902, 2.1132 -1.3785 0.3902, 2.1098 -1.3785 0.3902, 2.1276 -1.4181 0.3902, 2.0956 -1.4181 0.3902
            ]
        }
        coordIndex [
            0,1,2,-1,2,1,3,-1,2,3,4,-1,4,3,5,-1,4,5,6,-1,6,5,7,-1,
        ]
    }
}
Shape{
    appearance Appearance {
        material  Material {
            diffuseColor 1.0 1.0 1.0
            specularColor 0.5019607843137255 0.5019607843137255 0.5019607843137255
            ambientIntensity 1.0
            transparency 0.0
            shininess 0.5
        }
    }
    geometry IndexedFaceSet {
        ccw TRUE
        solid FALSE
        coord DEF co Coordinate {
            point [
                1.929 -1.4441 0.3902, 1.929 -1.4441 0.3941, 1.9469 -1.4441 0.3902, 1.968 -1.4441 0.3941, 1.968 -1.4441 0.3902, 1.929 -1.412 0.3941, 1.929 -1.412 0.3902, 1.9631 -1.412 0.3902, 1.9631 -1.412 0.3941, 1.9469 -1.412 0.3902, 1.9631 -1.4011 0.3941, 1.9631 -1.4011 0.3902, 1.929 -1.4011 0.3902, 1.929 -1.4011 0.3941, 1.9469 -1.4011 0.3902, 1.929 -1.3706 0.3941, 1.929 -1.3706 0.3902, 1.9658 -1.3706 0.3902, 1.9658 -1.3706 0.3941, 1.9469 -1.3706 0.3902, 1.9658 -1.3596 0.3941, 1.9658 -1.3596 0.3902, 1.9167 -1.3596 0.3902, 1.9167 -1.3596 0.3941, 1.9469 -1.3596 0.3902, 1.9167 -1.455 0.3941, 1.9167 -1.455 0.3902, 1.968 -1.455 0.3902, 1.968 -1.455 0.3941, 1.9469 -1.455 0.3902, 1.665 -1.4441 0.3902, 1.665 -1.4441 0.3941, 1.7035 -1.4441 0.3902, 1.704 -1.4441 0.3941, 1.704 -1.4441 0.3902, 1.665 -1.412 0.3941, 1.665 -1.412 0.3902, 1.6991 -1.412 0.3941, 1.6991 -1.412 0.3902, 1.6991 -1.4011 0.3941, 1.6991 -1.4011 0.3902, 1.665 -1.4011 0.3941, 1.665 -1.4011 0.3902, 1.665 -1.3706 0.3941, 1.665 -1.3706 0.3902, 1.7018 -1.3706 0.3941, 1.7018 -1.3706 0.3902, 1.7018 -1.3596 0.3941, 1.7018 -1.3596 0.3902, 1.6527 -1.3596 0.3941, 1.6527 -1.3596 0.3902, 1.6527 -1.455 0.3941, 1.6527 -1.455 0.3902, 1.704 -1.455 0.3902, 1.704 -1.455 0.3941, 1.7035 -1.455 0.3902, 1.9762 -1.2669 0.3941, 1.9723 -1.2777 0.3941, 2.0082 -1.2669 0.3941, 2.012 -1.2777 0.3941, 1.9905 -1.2273 0.3941, 1.9859 -1.2084 0.3941, 1.9495 -1.3037 0.3941, 1.9631 -1.3037 0.3941, 1.9913 -1.2244 0.3941, 1.992 -1.2206 0.3941, 1.999 -1.2084 0.3941, 1.9923 -1.2206 0.3941, 1.9931 -1.2246 0.3941, 1.9938 -1.2273 0.3941, 2.0353 -1.3037 0.3941, 2.0217 -1.3037 0.3941, 1.9859 -1.2084 0.3902, 1.999 -1.2084 0.3902, 1.9495 -1.3037 0.3902, 1.977 -1.2316 0.3902, 1.9631 -1.3037 0.3902, 1.9723 -1.2777 0.3902, 2.012 -1.2777 0.3902, 1.977 -1.2777 0.3902, 2.0217 -1.3037 0.3902, 2.0353 -1.3037 0.3902, 1.9905 -1.2273 0.3902, 1.9913 -1.2244 0.3902, 1.992 -1.2206 0.3902, 1.9762 -1.2669 0.3902, 2.0082 -1.2669 0.3902, 1.9938 -1.2273 0.3902, 1.9923 -1.2206 0.3902, 1.9931 -1.2246 0.3902
            ]
        }
        coordIndex [
            0,1,2,-1,2,1,3,-1,2,3,4,-1,5,1,6,-1,6,1,0,-1,7,8,9,-1,9,8,5,-1,9,5,6,-1,10,8,11,-1,11,8,7,-1,12,13,14,-1,14,13,10,-1,14,10,11,-1,15,13,16,-1,16,13,12,-1,17,18,19,-1,19,18,15,-1,19,15,16,-1,20,18,21,-1,21,18,17,-1,22,23,24,-1,24,23,20,-1,24,20,21,-1,25,23,26,-1,26,23,22,-1,27,28,29,-1,29,28,25,-1,29,25,26,-1,3,28,4,-1,4,28,27,-1,25,28,3,-1,3,1,25,-1,25,1,5,-1,25,5,23,-1,18,20,15,-1,15,20,23,-1,15,23,13,-1,13,23,5,-1,13,5,10,-1,10,5,8,-1,30,31,32,-1,32,31,33,-1,32,33,34,-1,35,31,36,-1,36,31,30,-1,37,35,38,-1,38,35,36,-1,39,37,40,-1,40,37,38,-1,41,39,42,-1,42,39,40,-1,43,41,44,-1,44,41,42,-1,45,43,46,-1,46,43,44,-1,47,45,48,-1,48,45,46,-1,49,47,50,-1,50,47,48,-1,51,49,52,-1,52,49,50,-1,53,54,55,-1,55,54,51,-1,55,51,52,-1,33,54,34,-1,34,54,53,-1,51,54,33,-1,33,31,51,-1,51,31,35,-1,51,35,49,-1,45,47,43,-1,43,47,49,-1,43,49,41,-1,41,49,35,-1,41,35,39,-1,39,35,37,-1,56,57,58,-1,58,57,59,-1,60,61,56,-1,56,61,62,-1,56,62,57,-1,57,62,63,-1,60,64,61,-1,61,64,65,-1,61,65,66,-1,66,65,67,-1,66,67,68,-1,68,69,66,-1,66,69,58,-1,66,58,70,-1,70,58,59,-1,70,59,71,-1,61,66,72,-1,72,66,73,-1,74,62,75,-1,75,62,61,-1,75,61,72,-1,63,62,76,-1,76,62,74,-1,57,63,77,-1,77,63,76,-1,78,59,79,-1,79,59,57,-1,79,57,77,-1,71,59,80,-1,80,59,78,-1,70,71,81,-1,81,71,80,-1,66,70,73,-1,73,70,81,-1,60,82,83,-1,60,83,64,-1,64,83,84,-1,64,84,65,-1,60,56,82,-1,82,56,85,-1,56,58,85,-1,85,58,86,-1,58,69,86,-1,86,69,87,-1,67,88,89,-1,67,89,68,-1,68,89,87,-1,68,87,69,-1,67,65,88,-1,88,65,84,-1,
        ]
    }
}
Shape{
    appearance Appearance {
        material  Material {
            diffuseColor 0.20784313725490197 0.20784313725490197 0.20784313725490197
            specularColor 0.01568627450980392 0.01568627450980392 0.01568627450980392
            ambientIntensity 0.298
            transparency 0.0
            shininess 0.5
        }
    }
    geometry IndexedFaceSet {
        ccw TRUE
        solid FALSE
        coord DEF co Coordinate {
            point [
                1.9923 -1.2206 0.3902, 1.992 -1.2206 0.3902, 1.9931 -1.2246 0.3902, 1.9913 -1.2244 0.3902, 1.9938 -1.2273 0.3902, 1.9905 -1.2273 0.3902, 2.0082 -1.2669 0.3902, 1.9762 -1.2669 0.3902
            ]
        }
        coordIndex [
            0,1,2,-1,2,1,3,-1,2,3,4,-1,4,3,5,-1,4,5,6,-1,6,5,7,-1,
        ]
    }
}
Shape{
    appearance Appearance {
        material  Material {
            diffuseColor 1.0 1.0 1.0
            specularColor 0.5019607843137255 0.5019607843137255 0.5019607843137255
            ambientIntensity 1.0
            transparency 0.0
            shininess 0.5
        }
    }
    geometry IndexedFaceSet {
        ccw TRUE
        solid FALSE
        coord DEF co Coordinate {
            point [
                1.8097 -1.2929 0.3902, 1.8097 -1.2929 0.3941, 1.8354 -1.2929 0.3902, 1.8486 -1.2929 0.3941, 1.8486 -1.2929 0.3902, 1.8097 -1.2608 0.3941, 1.8097 -1.2608 0.3902, 1.8438 -1.2608 0.3941, 1.8354 -1.2608 0.3902, 1.8438 -1.2608 0.3902, 1.8438 -1.2499 0.3941, 1.8438 -1.2499 0.3902, 1.8097 -1.2499 0.3902, 1.8097 -1.2499 0.3941, 1.8354 -1.2499 0.3902, 1.8097 -1.2194 0.3941, 1.8097 -1.2194 0.3902, 1.8465 -1.2194 0.3941, 1.8354 -1.2194 0.3902, 1.8465 -1.2194 0.3902, 1.8465 -1.2084 0.3941, 1.8465 -1.2084 0.3902, 1.7974 -1.2084 0.3902, 1.7974 -1.2084 0.3941, 1.8354 -1.2084 0.3902, 1.7974 -1.3037 0.3941, 1.7974 -1.3037 0.3902, 1.8486 -1.3037 0.3902, 1.8486 -1.3037 0.3941, 1.8354 -1.3037 0.3902, 1.665 -1.2929 0.3941, 1.703 -1.2929 0.3941, 1.665 -1.2929 0.3902, 1.703 -1.2929 0.3902, 1.665 -1.2084 0.3941, 1.665 -1.2084 0.3902, 1.6527 -1.2084 0.3941, 1.6527 -1.2084 0.3902, 1.6527 -1.3037 0.3941, 1.6527 -1.3037 0.3902, 1.703 -1.3037 0.3941, 1.703 -1.3037 0.3902
            ]
        }
        coordIndex [
            0,1,2,-1,2,1,3,-1,2,3,4,-1,5,1,6,-1,6,1,0,-1,5,6,7,-1,7,6,8,-1,7,8,9,-1,10,7,11,-1,11,7,9,-1,12,13,14,-1,14,13,10,-1,14,10,11,-1,15,13,16,-1,16,13,12,-1,15,16,17,-1,17,16,18,-1,17,18,19,-1,20,17,21,-1,21,17,19,-1,22,23,24,-1,24,23,20,-1,24,20,21,-1,25,23,26,-1,26,23,22,-1,27,28,29,-1,29,28,25,-1,29,25,26,-1,3,28,4,-1,4,28,27,-1,25,28,3,-1,3,1,25,-1,25,1,5,-1,25,5,23,-1,17,20,15,-1,15,20,23,-1,15,23,13,-1,13,23,5,-1,13,5,10,-1,10,5,7,-1,30,31,32,-1,32,31,33,-1,34,30,35,-1,35,30,32,-1,36,34,37,-1,37,34,35,-1,38,36,39,-1,39,36,37,-1,40,38,41,-1,41,38,39,-1,31,40,33,-1,33,40,41,-1,34,36,30,-1,30,36,38,-1,30,38,31,-1,31,38,40,-1,
        ]
    }
}