#VRML V2.0 utf8
# 3D model generated by kicad-lcsc-manager
# Based on easyeda2kicad.py v1.0.1

Shape{
    appearance Appearance {
        material  Material {
            diffuseColor 0.25098039215686274 0.25098039215686274 0.25098039215686274
            specularColor 0.12549019607843137 0.12549019607843137 0.12549019607843137
            ambientIntensity 0.251
            transparency 0.0
            shininess 0.5
        }
    }
    geometry IndexedFaceSet {
        ccw TRUE
        solid FALSE
        coord DEF co Coordinate {
            point [
                -0.0188 0.2323 0.0197, -0.015 -0.0144 0.0197, -0.0188 -0.0189 0.0197, -0.015 -0.0187 0.0197, 0.0061 -0.0187 0.0197, -0.014 0.0164 0.0197, 0.0008 0.0164 0.0197, 0.0008 0.0034 0.0197, 0.0138 -0.0167 0.0197, 0.0138 -0.0123 0.0197, 0.0061 0.0207 0.0197, 0.0008 -0.0009 0.0197, 0.0008 -0.0144 0.0197, -0.0131 -0.0009 0.0197, -0.0131 0.0034 0.0197, 0.0333 -0.0174 0.0197, 0.0464 -0.0187 0.0197, 0.0295 -0.0187 0.0197, 0.0269 -0.0189 0.0197, -0.014 0.0207 0.0197, 0.041 0.0103 0.0197, 0.0387 0.014 0.0197, 0.0613 0.0207 0.0197, 0.0269 0.0164 0.0197, 0.0298 0.0153 0.0197, 0.0145 -0.0127 0.0197, 0.0326 0.0135 0.0197, 0.0349 0.0109 0.0197, 0.0378 0.0006 0.0197, 0.0374 -0.0037 0.0197, 0.0363 -0.0071 0.0197, 0.0276 -0.0144 0.0197, 0.0239 -0.0149 0.0197, 0.0304 -0.0134 0.0197, 0.0329 -0.0118 0.0197, 0.0347 -0.0098 0.0197, 0.0187 -0.0143 0.0197, 0.0366 0.0078 0.0197, 0.0376 0.0036 0.0197, 0.0351 0.0174 0.0197, 0.0666 0.0207 0.0197, 0.3799 0.2323 0.0197, 0.0666 -0.0187 0.0197, 0.3799 -0.0189 0.0197, 0.0365 -0.0153 0.0197, 0.0394 -0.0122 0.0197, 0.0464 -0.0144 0.0197, 0.0415 -0.0085 0.0197, 0.0613 -0.0144 0.0197, 0.0427 -0.0043 0.0197, 0.0431 0.0002 0.0197, 0.0425 0.0058 0.0197, 0.0314 0.0196 0.0197, 0.027 0.0208 0.0197, 0.0231 0.0212 0.0197, 0.0184 0.0208 0.0197, 0.0138 0.0196 0.0197, 0.0138 0.0143 0.0197, 0.0182 0.0162 0.0197, 0.023 0.0168 0.0197, 0.0246 -0.0192 0.0197, 0.3799 -0.2323 0.0197, 0.0236 -0.0192 0.0197, -0.0188 -0.2323 0.0197, 0.022 -0.0189 0.0197, -0.3799 -0.2323 0.0197, -0.3799 -0.0189 0.0197, 0.018 -0.0184 0.0197, -0.0573 -0.0187 0.0197, -0.0524 -0.0079 0.0197, -0.0502 -0.0114 0.0197, -0.087 -0.0187 0.0197, -0.0928 -0.0187 0.0197, -0.0774 0.0207 0.0197, -0.3799 0.2323 0.0197, -0.0721 0.0207 0.0197, -0.0469 -0.0145 0.0197, -0.0428 -0.0169 0.0197, -0.0383 -0.0183 0.0197, -0.0334 -0.0187 0.0197, -0.0227 -0.0187 0.0197, -0.0227 0.0207 0.0197, -0.0338 0.0207 0.0197, -0.0484 0.0155 0.0197, -0.0512 0.0125 0.0197, -0.053 0.0091 0.0197, -0.0395 0.0201 0.0197, -0.0441 0.0185 0.0197, -0.0484 0.0156 0.0197, -0.063 -0.0187 0.0197, -0.0668 -0.0076 0.0197, -0.083 -0.0076 0.0197, -0.0541 0.0052 0.0197, -0.0544 0.0015 0.0197, -0.0538 -0.0038 0.0197, -0.2126 0.2392 0.315, -0.2992 0.2392 0.315, -0.3799 0.2323 0.4134, -0.3937 0.2461 0.2165, 0.2126 0.243 0.2598, 0.3937 0.2461 0.2165, 0.2992 0.243 0.2598, 0.3799 0.2323 0.4134, 0.2992 0.2392 0.315, 0.2126 0.2392 0.315, -0.2992 0.243 0.2598, -0.2126 0.243 0.2598, -0.0433 0.2392 0.315, 0.0433 0.2392 0.315, 0.0433 0.243 0.2598, -0.0433 0.243 0.2598, -0.2126 -0.243 0.2598, -0.2992 -0.243 0.2598, -0.3937 -0.2461 0.2165, -0.3799 -0.2323 0.4134, 0.2126 -0.2392 0.315, 0.3799 -0.2323 0.4134, 0.2992 -0.2392 0.315, 0.3937 -0.2461 0.2165, 0.2992 -0.243 0.2598, 0.2126 -0.243 0.2598, -0.2992 -0.2392 0.315, -0.2126 -0.2392 0.315, -0.0433 -0.243 0.2598, 0.0433 -0.243 0.2598, 0.0433 -0.2392 0.315, -0.0433 -0.2392 0.315, -0.2242 -0.1354 0.4134, -0.2256 -0.1254 0.4134, -0.2294 -0.1161 0.4134, -0.2356 -0.108 0.4134, -0.2256 -0.1455 0.4134, -0.2294 -0.1548 0.4134, -0.2356 -0.1629 0.4134, -0.273 -0.1729 0.4134, -0.2824 -0.169 0.4134, -0.2904 -0.1629 0.4134, -0.2966 -0.1548 0.4134, -0.2436 -0.169 0.4134, -0.253 -0.1729 0.4134, -0.263 -0.1742 0.4134, -0.2966 -0.1161 0.4134, -0.2904 -0.108 0.4134, -0.2824 -0.1019 0.4134, -0.253 -0.098 0.4134, -0.2436 -0.1019 0.4134, -0.3005 -0.1455 0.4134, -0.3018 -0.1354 0.4134, -0.3005 -0.1254 0.4134, -0.273 -0.098 0.4134, -0.263 -0.0967 0.4134
            ]
        }
        coordIndex [
            0,1,2,-1,2,1,3,-1,2,3,4,-1,5,6,7,-1,8,4,9,-1,9,4,10,-1,11,12,13,-1,13,12,1,-1,13,1,14,-1,15,16,17,-1,17,16,18,-1,7,14,5,-1,5,14,1,-1,5,1,19,-1,19,1,0,-1,19,0,10,-1,20,21,22,-1,23,24,25,-1,25,24,26,-1,25,26,27,-1,28,29,25,-1,25,29,30,-1,31,32,33,-1,33,32,34,-1,30,35,25,-1,25,35,34,-1,25,34,36,-1,36,34,32,-1,27,37,25,-1,25,37,38,-1,25,38,28,-1,21,39,22,-1,22,39,0,-1,22,0,40,-1,40,0,41,-1,40,41,42,-1,42,41,43,-1,15,44,16,-1,16,44,45,-1,16,45,46,-1,46,45,47,-1,46,47,48,-1,47,49,48,-1,48,49,50,-1,48,50,22,-1,22,50,51,-1,22,51,20,-1,39,52,0,-1,0,52,53,-1,0,53,54,-1,54,55,0,-1,0,55,56,-1,0,56,10,-1,10,56,57,-1,10,57,9,-1,9,57,58,-1,9,58,25,-1,25,58,59,-1,25,59,23,-1,16,42,18,-1,18,42,43,-1,18,43,60,-1,60,43,61,-1,60,61,62,-1,62,61,63,-1,62,63,64,-1,65,66,63,-1,63,66,2,-1,63,2,64,-1,64,2,4,-1,64,4,67,-1,67,4,8,-1,68,69,70,-1,71,2,72,-1,72,2,66,-1,72,66,73,-1,73,66,74,-1,73,74,75,-1,75,74,0,-1,70,76,68,-1,68,76,77,-1,68,77,78,-1,79,80,2,-1,2,80,81,-1,2,81,0,-1,0,81,82,-1,83,84,75,-1,75,84,85,-1,82,86,0,-1,0,86,87,-1,0,87,75,-1,75,87,88,-1,75,88,83,-1,78,79,68,-1,68,79,2,-1,68,2,89,-1,89,2,71,-1,89,71,90,-1,90,71,91,-1,85,92,75,-1,75,92,93,-1,75,93,68,-1,68,93,94,-1,68,94,69,-1,95,96,97,-1,98,99,100,-1,100,99,101,-1,100,101,102,-1,102,101,103,-1,102,103,104,-1,97,96,98,-1,98,96,105,-1,98,105,106,-1,107,102,108,-1,108,102,104,-1,108,104,109,-1,97,102,95,-1,95,102,107,-1,95,107,106,-1,106,107,110,-1,106,110,98,-1,98,110,109,-1,98,109,99,-1,99,109,104,-1,111,112,113,-1,114,115,116,-1,116,115,117,-1,116,117,118,-1,118,117,119,-1,118,119,120,-1,113,112,114,-1,114,112,121,-1,114,121,122,-1,123,118,124,-1,124,118,120,-1,124,120,125,-1,113,118,111,-1,111,118,123,-1,111,123,122,-1,122,123,126,-1,122,126,114,-1,114,126,125,-1,114,125,115,-1,115,125,120,-1,41,100,43,-1,43,100,118,-1,43,118,61,-1,61,118,63,-1,63,118,113,-1,63,113,65,-1,98,74,113,-1,113,74,66,-1,113,66,65,-1,100,41,98,-1,98,41,0,-1,98,0,74,-1,102,116,100,-1,100,116,118,-1,114,97,113,-1,113,97,98,-1,127,116,128,-1,128,116,102,-1,128,102,129,-1,129,102,130,-1,127,131,116,-1,116,131,132,-1,116,132,133,-1,134,135,114,-1,114,135,136,-1,114,136,137,-1,133,138,116,-1,116,138,139,-1,116,139,114,-1,114,139,140,-1,114,140,134,-1,141,142,97,-1,97,142,143,-1,97,144,102,-1,102,144,145,-1,102,145,130,-1,137,146,114,-1,114,146,147,-1,114,147,97,-1,97,147,148,-1,97,148,141,-1,143,149,97,-1,97,149,150,-1,97,150,144,-1,
        ]
    }
}
Shape{
    appearance Appearance {
        material  Material {
            diffuseColor 1.0 1.0 1.0
            specularColor 0.5019607843137255 0.5019607843137255 0.5019607843137255
            ambientIntensity 1.0
            transparency 0.0
            shininess 0.5
        }
    }
    geometry IndexedFaceSet {
        ccw TRUE
        solid FALSE
        coord DEF co Coordinate {
            point [
                0.0433 -0.2559 0.2598, -0.0433 -0.2559 0.2598, 0.0433 -0.243 0.2598, -0.0433 -0.243 0.2598, -0.0433 -0.2392 0.315, -0.0433 -0.2559 0.315, 0.0433 -0.2392 0.315, 0.0433 -0.2559 0.315, 0.0433 -0.4331 0.0551, 0.0433 -0.4331 0.0, 0.0433 -0.3543 0.0551, 0.0433 -0.3543 0.0, 0.0433 -0.3491 0.0557, 0.0433 -0.334 0.0027, 0.0433 -0.3441 0.0575, 0.0433 -0.315 0.0105, 0.0433 -0.3396 0.0603, 0.0433 -0.2987 0.0231, 0.0433 -0.261 0.2592, 0.0433 -0.2753 0.3124, 0.0433 -0.2657 0.2572, 0.0433 -0.2933 0.3049, 0.0433 -0.2698 0.2541, 0.0433 -0.3088 0.2931, 0.0433 -0.273 0.25, 0.0433 -0.3207 0.2776, 0.0433 -0.2749 0.2453, 0.0433 -0.3282 0.2595, 0.0433 -0.2756 0.2402, 0.0433 -0.3307 0.2402, 0.0433 -0.2756 0.0787, 0.0433 -0.3307 0.0787, 0.0433 -0.2783 0.0584, 0.0433 -0.3313 0.0735, 0.0433 -0.2861 0.0394, 0.0433 -0.333 0.0685, 0.0433 -0.3359 0.064, -0.0433 -0.4331 0.0, -0.0433 -0.4331 0.0551, -0.0433 -0.3543 0.0, -0.0433 -0.3543 0.0551, -0.0433 -0.334 0.0027, -0.0433 -0.3491 0.0557, -0.0433 -0.315 0.0105, -0.0433 -0.3441 0.0575, -0.0433 -0.2987 0.0231, -0.0433 -0.2753 0.3124, -0.0433 -0.261 0.2592, -0.0433 -0.2933 0.3049, -0.0433 -0.2657 0.2572, -0.0433 -0.3088 0.2931, -0.0433 -0.2698 0.2541, -0.0433 -0.3207 0.2776, -0.0433 -0.273 0.25, -0.0433 -0.3282 0.2595, -0.0433 -0.2749 0.2453, -0.0433 -0.3307 0.2402, -0.0433 -0.2756 0.2402, -0.0433 -0.3307 0.0787, -0.0433 -0.2756 0.0787, -0.0433 -0.3313 0.0735, -0.0433 -0.2783 0.0584, -0.0433 -0.333 0.0685, -0.0433 -0.2861 0.0394, -0.0433 -0.3359 0.064, -0.0433 -0.3396 0.0603, 0.2992 -0.2559 0.2598, 0.2126 -0.2559 0.2598, 0.2992 -0.243 0.2598, 0.2126 -0.243 0.2598, 0.2126 -0.2392 0.315, 0.2126 -0.2559 0.315, 0.2992 -0.2392 0.315, 0.2992 -0.2559 0.315, 0.2992 -0.4331 0.0551, 0.2992 -0.4331 0.0, 0.2992 -0.3543 0.0551, 0.2992 -0.3543 0.0, 0.2992 -0.3491 0.0557, 0.2992 -0.334 0.0027, 0.2992 -0.3441 0.0575, 0.2992 -0.315 0.0105, 0.2992 -0.3396 0.0603, 0.2992 -0.2987 0.0231, 0.2992 -0.261 0.2592, 0.2992 -0.2753 0.3124, 0.2992 -0.2657 0.2572, 0.2992 -0.2933 0.3049, 0.2992 -0.2698 0.2541, 0.2992 -0.3088 0.2931, 0.2992 -0.273 0.25, 0.2992 -0.3207 0.2776, 0.2992 -0.2749 0.2453, 0.2992 -0.3282 0.2595, 0.2992 -0.2756 0.2402, 0.2992 -0.3307 0.2402, 0.2992 -0.2756 0.0787, 0.2992 -0.3307 0.0787, 0.2992 -0.2783 0.0584, 0.2992 -0.3313 0.0735, 0.2992 -0.2861 0.0394, 0.2992 -0.333 0.0685, 0.2992 -0.3359 0.064, 0.2126 -0.4331 0.0551, 0.2126 -0.3543 0.0551, 0.2126 -0.4331 0.0, 0.2126 -0.3543 0.0, 0.2126 -0.334 0.0027, 0.2126 -0.315 0.0105, 0.2126 -0.2987 0.0231, 0.2126 -0.2861 0.0394, 0.2126 -0.2783 0.0584, 0.2126 -0.2756 0.0787, 0.2126 -0.2756 0.2402, 0.2126 -0.2749 0.2453, 0.2126 -0.273 0.25, 0.2126 -0.2698 0.2541, 0.2126 -0.2657 0.2572, 0.2126 -0.261 0.2592, 0.2126 -0.3491 0.0557, 0.2126 -0.3441 0.0575, 0.2126 -0.2753 0.3124, 0.2126 -0.2933 0.3049, 0.2126 -0.3088 0.2931, 0.2126 -0.3207 0.2776, 0.2126 -0.3282 0.2595, 0.2126 -0.3307 0.2402, 0.2126 -0.3307 0.0787, 0.2126 -0.3313 0.0735, 0.2126 -0.333 0.0685, 0.2126 -0.3359 0.064, 0.2126 -0.3396 0.0603, -0.2126 -0.2559 0.2598, -0.2992 -0.2559 0.2598, -0.2126 -0.243 0.2598, -0.2992 -0.243 0.2598, -0.2992 -0.2392 0.315, -0.2992 -0.2559 0.315, -0.2126 -0.2392 0.315, -0.2126 -0.2559 0.315, -0.2126 -0.4331 0.0551, -0.2126 -0.4331 0.0, -0.2126 -0.3543 0.0551, -0.2126 -0.3543 0.0, -0.2126 -0.3491 0.0557, -0.2126 -0.334 0.0027, -0.2126 -0.3441 0.0575, -0.2126 -0.315 0.0105, -0.2126 -0.3396 0.0603, -0.2126 -0.2987 0.0231, -0.2126 -0.261 0.2592, -0.2126 -0.2753 0.3124, -0.2126 -0.2657 0.2572, -0.2126 -0.2933 0.3049, -0.2126 -0.2698 0.2541, -0.2126 -0.3088 0.2931, -0.2126 -0.273 0.25, -0.2126 -0.3207 0.2776, -0.2126 -0.2749 0.2453, -0.2126 -0.3282 0.2595, -0.2126 -0.2756 0.2402, -0.2126 -0.3307 0.2402, -0.2126 -0.2756 0.0787, -0.2126 -0.3307 0.0787, -0.2126 -0.2783 0.0584, -0.2126 -0.3313 0.0735, -0.2126 -0.2861 0.0394, -0.2126 -0.333 0.0685, -0.2126 -0.3359 0.064, -0.2992 -0.4331 0.0551, -0.2992 -0.3543 0.0551, -0.2992 -0.4331 0.0, -0.2992 -0.3543 0.0, -0.2992 -0.334 0.0027, -0.2992 -0.315 0.0105, -0.2992 -0.2987 0.0231, -0.2992 -0.2861 0.0394, -0.2992 -0.2783 0.0584, -0.2992 -0.2756 0.0787, -0.2992 -0.2756 0.2402, -0.2992 -0.2749 0.2453, -0.2992 -0.273 0.25, -0.2992 -0.2698 0.2541, -0.2992 -0.2657 0.2572, -0.2992 -0.261 0.2592, -0.2992 -0.3491 0.0557, -0.2992 -0.3441 0.0575, -0.2992 -0.2753 0.3124, -0.2992 -0.2933 0.3049, -0.2992 -0.3088 0.2931, -0.2992 -0.3207 0.2776, -0.2992 -0.3282 0.2595, -0.2992 -0.3307 0.2402, -0.2992 -0.3307 0.0787, -0.2992 -0.3313 0.0735, -0.2992 -0.333 0.0685, -0.2992 -0.3359 0.064, -0.2992 -0.3396 0.0603, -0.0433 0.2559 0.2598, 0.0433 0.2559 0.2598, -0.0433 0.243 0.2598, 0.0433 0.243 0.2598, -0.0433 0.2559 0.315, -0.0433 0.2392 0.315, 0.0433 0.2559 0.315, 0.0433 0.2392 0.315, 0.0433 0.4331 0.0, 0.0433 0.4331 0.0551, 0.0433 0.3543 0.0, 0.0433 0.3543 0.0551, 0.0433 0.334 0.0027, 0.0433 0.3491 0.0557, 0.0433 0.315 0.0105, 0.0433 0.3441 0.0575, 0.0433 0.2987 0.0231, 0.0433 0.2753 0.3124, 0.0433 0.261 0.2592, 0.0433 0.2933 0.3049, 0.0433 0.2657 0.2572, 0.0433 0.3088 0.2931, 0.0433 0.2698 0.2541, 0.0433 0.3207 0.2776, 0.0433 0.273 0.25, 0.0433 0.3282 0.2595, 0.0433 0.2749 0.2453, 0.0433 0.3307 0.2402, 0.0433 0.2756 0.2402, 0.0433 0.3307 0.0787, 0.0433 0.2756 0.0787, 0.0433 0.3313 0.0735, 0.0433 0.2783 0.0584, 0.0433 0.333 0.0685, 0.0433 0.2861 0.0394, 0.0433 0.3359 0.064, 0.0433 0.3396 0.0603, -0.0433 0.3543 0.0551, -0.0433 0.4331 0.0551, -0.0433 0.4331 0.0, -0.0433 0.3543 0.0, -0.0433 0.2756 0.0787, -0.0433 0.2783 0.0584, -0.0433 0.2861 0.0394, -0.0433 0.2987 0.0231, -0.0433 0.315 0.0105, -0.0433 0.334 0.0027, -0.0433 0.2756 0.2402, -0.0433 0.261 0.2592, -0.0433 0.2657 0.2572, -0.0433 0.2698 0.2541, -0.0433 0.273 0.25, -0.0433 0.2749 0.2453, -0.0433 0.3491 0.0557, -0.0433 0.3441 0.0575, -0.0433 0.3396 0.0603, -0.0433 0.2753 0.3124, -0.0433 0.2933 0.3049, -0.0433 0.3088 0.2931, -0.0433 0.3207 0.2776, -0.0433 0.3282 0.2595, -0.0433 0.3307 0.2402, -0.0433 0.3307 0.0787, -0.0433 0.3313 0.0735, -0.0433 0.333 0.0685, -0.0433 0.3359 0.064, 0.2126 0.2559 0.2598, 0.2992 0.2559 0.2598, 0.2126 0.243 0.2598, 0.2992 0.243 0.2598, 0.2126 0.2559 0.315, 0.2126 0.2392 0.315, 0.2992 0.2559 0.315, 0.2992 0.2392 0.315, 0.2992 0.4331 0.0, 0.2992 0.4331 0.0551, 0.2992 0.3543 0.0, 0.2992 0.3543 0.0551, 0.2992 0.334 0.0027, 0.2992 0.3491 0.0557, 0.2992 0.315 0.0105, 0.2992 0.3441 0.0575, 0.2992 0.2987 0.0231, 0.2992 0.2753 0.3124, 0.2992 0.261 0.2592, 0.2992 0.2933 0.3049, 0.2992 0.2657 0.2572, 0.2992 0.3088 0.2931, 0.2992 0.2698 0.2541, 0.2992 0.3207 0.2776, 0.2992 0.273 0.25, 0.2992 0.3282 0.2595, 0.2992 0.2749 0.2453, 0.2992 0.3307 0.2402, 0.2992 0.2756 0.2402, 0.2992 0.3307 0.0787, 0.2992 0.2756 0.0787, 0.2992 0.3313 0.0735, 0.2992 0.2783 0.0584, 0.2992 0.333 0.0685, 0.2992 0.2861 0.0394, 0.2992 0.3359 0.064, 0.2992 0.3396 0.0603, 0.2126 0.3543 0.0551, 0.2126 0.4331 0.0551, 0.2126 0.4331 0.0, 0.2126 0.3543 0.0, 0.2126 0.2756 0.0787, 0.2126 0.2783 0.0584, 0.2126 0.2861 0.0394, 0.2126 0.2987 0.0231, 0.2126 0.315 0.0105, 0.2126 0.334 0.0027, 0.2126 0.2756 0.2402, 0.2126 0.261 0.2592, 0.2126 0.2657 0.2572, 0.2126 0.2698 0.2541, 0.2126 0.273 0.25, 0.2126 0.2749 0.2453, 0.2126 0.3491 0.0557, 0.2126 0.3441 0.0575, 0.2126 0.3396 0.0603, 0.2126 0.2753 0.3124, 0.2126 0.2933 0.3049, 0.2126 0.3088 0.2931, 0.2126 0.3207 0.2776, 0.2126 0.3282 0.2595, 0.2126 0.3307 0.2402, 0.2126 0.3307 0.0787, 0.2126 0.3313 0.0735, 0.2126 0.333 0.0685, 0.2126 0.3359 0.064, -0.2992 0.2559 0.2598, -0.2126 0.2559 0.2598, -0.2992 0.243 0.2598, -0.2126 0.243 0.2598, -0.2992 0.2559 0.315, -0.2992 0.2392 0.315, -0.2126 0.2559 0.315, -0.2126 0.2392 0.315, -0.2126 0.4331 0.0, -0.2126 0.4331 0.0551, -0.2126 0.3543 0.0, -0.2126 0.3543 0.0551, -0.2126 0.334 0.0027, -0.2126 0.3491 0.0557, -0.2126 0.315 0.0105, -0.2126 0.3441 0.0575, -0.2126 0.2987 0.0231, -0.2126 0.2753 0.3124, -0.2126 0.261 0.2592, -0.2126 0.2933 0.3049, -0.2126 0.2657 0.2572, -0.2126 0.3088 0.2931, -0.2126 0.2698 0.2541, -0.2126 0.3207 0.2776, -0.2126 0.273 0.25, -0.2126 0.3282 0.2595, -0.2126 0.2749 0.2453, -0.2126 0.3307 0.2402, -0.2126 0.2756 0.2402, -0.2126 0.3307 0.0787, -0.2126 0.2756 0.0787, -0.2126 0.3313 0.0735, -0.2126 0.2783 0.0584, -0.2126 0.333 0.0685, -0.2126 0.2861 0.0394, -0.2126 0.3359 0.064, -0.2126 0.3396 0.0603, -0.2992 0.3543 0.0551, -0.2992 0.4331 0.0551, -0.2992 0.4331 0.0, -0.2992 0.3543 0.0, -0.2992 0.2756 0.0787, -0.2992 0.2783 0.0584, -0.2992 0.2861 0.0394, -0.2992 0.2987 0.0231, -0.2992 0.315 0.0105, -0.2992 0.334 0.0027, -0.2992 0.2756 0.2402, -0.2992 0.261 0.2592, -0.2992 0.2657 0.2572, -0.2992 0.2698 0.2541, -0.2992 0.273 0.25, -0.2992 0.2749 0.2453, -0.2992 0.3491 0.0557, -0.2992 0.3441 0.0575, -0.2992 0.3396 0.0603, -0.2992 0.2753 0.3124, -0.2992 0.2933 0.3049, -0.2992 0.3088 0.2931, -0.2992 0.3207 0.2776, -0.2992 0.3282 0.2595, -0.2992 0.3307 0.2402, -0.2992 0.3307 0.0787, -0.2992 0.3313 0.0735, -0.2992 0.333 0.0685, -0.2992 0.3359 0.064
            ]
        }
        coordIndex [
            0,1,2,-1,2,1,3,-1,4,5,6,-1,6,5,7,-1,8,9,10,-1,10,9,11,-1,10,11,12,-1,12,11,13,-1,12,13,14,-1,14,13,15,-1,14,15,16,-1,16,15,17,-1,2,6,0,-1,0,6,7,-1,0,7,18,-1,18,7,19,-1,18,19,20,-1,20,19,21,-1,20,21,22,-1,22,21,23,-1,22,23,24,-1,24,23,25,-1,24,25,26,-1,26,25,27,-1,26,27,28,-1,28,27,29,-1,28,29,30,-1,30,29,31,-1,30,31,32,-1,32,31,33,-1,32,33,34,-1,34,33,35,-1,34,35,17,-1,17,35,36,-1,17,36,16,-1,37,38,39,-1,39,38,40,-1,39,40,41,-1,41,40,42,-1,41,42,43,-1,43,42,44,-1,43,44,45,-1,4,3,5,-1,5,3,1,-1,5,1,46,-1,46,1,47,-1,46,47,48,-1,48,47,49,-1,48,49,50,-1,50,49,51,-1,50,51,52,-1,52,51,53,-1,52,53,54,-1,54,53,55,-1,54,55,56,-1,56,55,57,-1,56,57,58,-1,58,57,59,-1,58,59,60,-1,60,59,61,-1,60,61,62,-1,62,61,63,-1,62,63,64,-1,64,63,45,-1,64,45,65,-1,65,45,44,-1,8,10,38,-1,38,10,40,-1,9,8,37,-1,37,8,38,-1,11,9,39,-1,39,9,37,-1,11,39,41,-1,11,41,13,-1,13,41,43,-1,13,43,15,-1,15,43,45,-1,15,45,17,-1,17,45,63,-1,17,63,34,-1,34,63,61,-1,34,61,32,-1,32,61,59,-1,32,59,30,-1,28,30,57,-1,57,30,59,-1,28,57,26,-1,26,57,55,-1,26,55,24,-1,24,55,53,-1,24,53,22,-1,22,53,51,-1,22,51,20,-1,20,51,49,-1,20,49,18,-1,18,49,47,-1,18,47,0,-1,0,47,1,-1,7,5,46,-1,7,46,19,-1,19,46,48,-1,19,48,21,-1,21,48,50,-1,21,50,23,-1,23,50,52,-1,23,52,25,-1,25,52,54,-1,25,54,27,-1,27,54,56,-1,27,56,29,-1,31,29,58,-1,58,29,56,-1,31,58,33,-1,33,58,60,-1,33,60,35,-1,35,60,62,-1,35,62,36,-1,36,62,64,-1,36,64,16,-1,16,64,65,-1,16,65,14,-1,14,65,44,-1,14,44,12,-1,12,44,42,-1,12,42,10,-1,10,42,40,-1,66,67,68,-1,68,67,69,-1,70,71,72,-1,72,71,73,-1,74,75,76,-1,76,75,77,-1,76,77,78,-1,78,77,79,-1,78,79,80,-1,80,79,81,-1,80,81,82,-1,82,81,83,-1,68,72,66,-1,66,72,73,-1,66,73,84,-1,84,73,85,-1,84,85,86,-1,86,85,87,-1,86,87,88,-1,88,87,89,-1,88,89,90,-1,90,89,91,-1,90,91,92,-1,92,91,93,-1,92,93,94,-1,94,93,95,-1,94,95,96,-1,96,95,97,-1,96,97,98,-1,98,97,99,-1,98,99,100,-1,100,99,101,-1,100,101,83,-1,83,101,102,-1,83,102,82,-1,74,76,103,-1,103,76,104,-1,75,74,105,-1,105,74,103,-1,77,75,106,-1,106,75,105,-1,77,106,107,-1,77,107,79,-1,79,107,108,-1,79,108,81,-1,81,108,109,-1,81,109,83,-1,83,109,110,-1,83,110,100,-1,100,110,111,-1,100,111,98,-1,98,111,112,-1,98,112,96,-1,94,96,113,-1,113,96,112,-1,94,113,92,-1,92,113,114,-1,92,114,90,-1,90,114,115,-1,90,115,88,-1,88,115,116,-1,88,116,86,-1,86,116,117,-1,86,117,84,-1,84,117,118,-1,84,118,66,-1,66,118,67,-1,105,103,106,-1,106,103,104,-1,106,104,107,-1,107,104,119,-1,107,119,108,-1,108,119,120,-1,108,120,109,-1,70,69,71,-1,71,69,67,-1,71,67,121,-1,121,67,118,-1,121,118,122,-1,122,118,117,-1,122,117,123,-1,123,117,116,-1,123,116,124,-1,124,116,115,-1,124,115,125,-1,125,115,114,-1,125,114,126,-1,126,114,113,-1,126,113,127,-1,127,113,112,-1,127,112,128,-1,128,112,111,-1,128,111,129,-1,129,111,110,-1,129,110,130,-1,130,110,109,-1,130,109,131,-1,131,109,120,-1,73,71,121,-1,73,121,85,-1,85,121,122,-1,85,122,87,-1,87,122,123,-1,87,123,89,-1,89,123,124,-1,89,124,91,-1,91,124,125,-1,91,125,93,-1,93,125,126,-1,93,126,95,-1,97,95,127,-1,127,95,126,-1,97,127,99,-1,99,127,128,-1,99,128,101,-1,101,128,129,-1,101,129,102,-1,102,129,130,-1,102,130,82,-1,82,130,131,-1,82,131,80,-1,80,131,120,-1,80,120,78,-1,78,120,119,-1,78,119,76,-1,76,119,104,-1,132,133,134,-1,134,133,135,-1,136,137,138,-1,138,137,139,-1,140,141,142,-1,142,141,143,-1,142,143,144,-1,144,143,145,-1,144,145,146,-1,146,145,147,-1,146,147,148,-1,148,147,149,-1,134,138,132,-1,132,138,139,-1,132,139,150,-1,150,139,151,-1,150,151,152,-1,152,151,153,-1,152,153,154,-1,154,153,155,-1,154,155,156,-1,156,155,157,-1,156,157,158,-1,158,157,159,-1,158,159,160,-1,160,159,161,-1,160,161,162,-1,162,161,163,-1,162,163,164,-1,164,163,165,-1,164,165,166,-1,166,165,167,-1,166,167,149,-1,149,167,168,-1,149,168,148,-1,140,142,169,-1,169,142,170,-1,141,140,171,-1,171,140,169,-1,143,141,172,-1,172,141,171,-1,143,172,173,-1,143,173,145,-1,145,173,174,-1,145,174,147,-1,147,174,175,-1,147,175,149,-1,149,175,176,-1,149,176,166,-1,166,176,177,-1,166,177,164,-1,164,177,178,-1,164,178,162,-1,160,162,179,-1,179,162,178,-1,160,179,158,-1,158,179,180,-1,158,180,156,-1,156,180,181,-1,156,181,154,-1,154,181,182,-1,154,182,152,-1,152,182,183,-1,152,183,150,-1,150,183,184,-1,150,184,132,-1,132,184,133,-1,171,169,172,-1,172,169,170,-1,172,170,173,-1,173,170,185,-1,173,185,174,-1,174,185,186,-1,174,186,175,-1,136,135,137,-1,137,135,133,-1,137,133,187,-1,187,133,184,-1,187,184,188,-1,188,184,183,-1,188,183,189,-1,189,183,182,-1,189,182,190,-1,190,182,181,-1,190,181,191,-1,191,181,180,-1,191,180,192,-1,192,180,179,-1,192,179,193,-1,193,179,178,-1,193,178,194,-1,194,178,177,-1,194,177,195,-1,195,177,176,-1,195,176,196,-1,196,176,175,-1,196,175,197,-1,197,175,186,-1,139,137,187,-1,139,187,151,-1,151,187,188,-1,151,188,153,-1,153,188,189,-1,153,189,155,-1,155,189,190,-1,155,190,157,-1,157,190,191,-1,157,191,159,-1,159,191,192,-1,159,192,161,-1,163,161,193,-1,193,161,192,-1,163,193,165,-1,165,193,194,-1,165,194,167,-1,167,194,195,-1,167,195,168,-1,168,195,196,-1,168,196,148,-1,148,196,197,-1,148,197,146,-1,146,197,186,-1,146,186,144,-1,144,186,185,-1,144,185,142,-1,142,185,170,-1,198,199,200,-1,200,199,201,-1,202,203,204,-1,204,203,205,-1,206,207,208,-1,208,207,209,-1,208,209,210,-1,210,209,211,-1,210,211,212,-1,212,211,213,-1,212,213,214,-1,205,201,204,-1,204,201,199,-1,204,199,215,-1,215,199,216,-1,215,216,217,-1,217,216,218,-1,217,218,219,-1,219,218,220,-1,219,220,221,-1,221,220,222,-1,221,222,223,-1,223,222,224,-1,223,224,225,-1,225,224,226,-1,225,226,227,-1,227,226,228,-1,227,228,229,-1,229,228,230,-1,229,230,231,-1,231,230,232,-1,231,232,233,-1,233,232,214,-1,233,214,234,-1,234,214,213,-1,209,207,235,-1,235,207,236,-1,207,206,236,-1,236,206,237,-1,206,208,237,-1,237,208,238,-1,228,239,240,-1,228,240,230,-1,230,240,241,-1,230,241,232,-1,232,241,242,-1,232,242,214,-1,214,242,243,-1,214,243,212,-1,212,243,244,-1,212,244,210,-1,210,244,238,-1,210,238,208,-1,228,226,239,-1,239,226,245,-1,199,198,216,-1,216,198,246,-1,216,246,218,-1,218,246,247,-1,218,247,220,-1,220,247,248,-1,220,248,222,-1,222,248,249,-1,222,249,224,-1,224,249,250,-1,224,250,226,-1,226,250,245,-1,236,237,235,-1,235,237,238,-1,235,238,251,-1,251,238,244,-1,251,244,252,-1,252,244,243,-1,252,243,253,-1,253,243,242,-1,200,203,198,-1,198,203,202,-1,198,202,246,-1,246,202,254,-1,246,254,247,-1,247,254,255,-1,247,255,248,-1,248,255,256,-1,248,256,249,-1,249,256,257,-1,249,257,250,-1,250,257,258,-1,250,258,245,-1,245,258,259,-1,245,259,239,-1,239,259,260,-1,239,260,240,-1,240,260,261,-1,240,261,241,-1,241,261,262,-1,241,262,242,-1,242,262,263,-1,242,263,253,-1,225,259,258,-1,225,258,223,-1,223,258,257,-1,223,257,221,-1,221,257,256,-1,221,256,219,-1,219,256,255,-1,219,255,217,-1,217,255,254,-1,217,254,215,-1,215,254,202,-1,215,202,204,-1,225,227,259,-1,259,227,260,-1,209,235,211,-1,211,235,251,-1,211,251,213,-1,213,251,252,-1,213,252,234,-1,234,252,253,-1,234,253,233,-1,233,253,263,-1,233,263,231,-1,231,263,262,-1,231,262,229,-1,229,262,261,-1,229,261,227,-1,227,261,260,-1,264,265,266,-1,266,265,267,-1,268,269,270,-1,270,269,271,-1,272,273,274,-1,274,273,275,-1,274,275,276,-1,276,275,277,-1,276,277,278,-1,278,277,279,-1,278,279,280,-1,271,267,270,-1,270,267,265,-1,270,265,281,-1,281,265,282,-1,281,282,283,-1,283,282,284,-1,283,284,285,-1,285,284,286,-1,285,286,287,-1,287,286,288,-1,287,288,289,-1,289,288,290,-1,289,290,291,-1,291,290,292,-1,291,292,293,-1,293,292,294,-1,293,294,295,-1,295,294,296,-1,295,296,297,-1,297,296,298,-1,297,298,299,-1,299,298,280,-1,299,280,300,-1,300,280,279,-1,275,273,301,-1,301,273,302,-1,273,272,302,-1,302,272,303,-1,272,274,303,-1,303,274,304,-1,294,305,306,-1,294,306,296,-1,296,306,307,-1,296,307,298,-1,298,307,308,-1,298,308,280,-1,280,308,309,-1,280,309,278,-1,278,309,310,-1,278,310,276,-1,276,310,304,-1,276,304,274,-1,294,292,305,-1,305,292,311,-1,265,264,282,-1,282,264,312,-1,282,312,284,-1,284,312,313,-1,284,313,286,-1,286,313,314,-1,286,314,288,-1,288,314,315,-1,288,315,290,-1,290,315,316,-1,290,316,292,-1,292,316,311,-1,302,303,301,-1,301,303,304,-1,301,304,317,-1,317,304,310,-1,317,310,318,-1,318,310,309,-1,318,309,319,-1,319,309,308,-1,266,269,264,-1,264,269,268,-1,264,268,312,-1,312,268,320,-1,312,320,313,-1,313,320,321,-1,313,321,314,-1,314,321,322,-1,314,322,315,-1,315,322,323,-1,315,323,316,-1,316,323,324,-1,316,324,311,-1,311,324,325,-1,311,325,305,-1,305,325,326,-1,305,326,306,-1,306,326,327,-1,306,327,307,-1,307,327,328,-1,307,328,308,-1,308,328,329,-1,308,329,319,-1,291,325,324,-1,291,324,289,-1,289,324,323,-1,289,323,287,-1,287,323,322,-1,287,322,285,-1,285,322,321,-1,285,321,283,-1,283,321,320,-1,283,320,281,-1,281,320,268,-1,281,268,270,-1,291,293,325,-1,325,293,326,-1,275,301,277,-1,277,301,317,-1,277,317,279,-1,279,317,318,-1,279,318,300,-1,300,318,319,-1,300,319,299,-1,299,319,329,-1,299,329,297,-1,297,329,328,-1,297,328,295,-1,295,328,327,-1,295,327,293,-1,293,327,326,-1,330,331,332,-1,332,331,333,-1,334,335,336,-1,336,335,337,-1,338,339,340,-1,340,339,341,-1,340,341,342,-1,342,341,343,-1,342,343,344,-1,344,343,345,-1,344,345,346,-1,337,333,336,-1,336,333,331,-1,336,331,347,-1,347,331,348,-1,347,348,349,-1,349,348,350,-1,349,350,351,-1,351,350,352,-1,351,352,353,-1,353,352,354,-1,353,354,355,-1,355,354,356,-1,355,356,357,-1,357,356,358,-1,357,358,359,-1,359,358,360,-1,359,360,361,-1,361,360,362,-1,361,362,363,-1,363,362,364,-1,363,364,365,-1,365,364,346,-1,365,346,366,-1,366,346,345,-1,341,339,367,-1,367,339,368,-1,339,338,368,-1,368,338,369,-1,338,340,369,-1,369,340,370,-1,360,371,372,-1,360,372,362,-1,362,372,373,-1,362,373,364,-1,364,373,374,-1,364,374,346,-1,346,374,375,-1,346,375,344,-1,344,375,376,-1,344,376,342,-1,342,376,370,-1,342,370,340,-1,360,358,371,-1,371,358,377,-1,331,330,348,-1,348,330,378,-1,348,378,350,-1,350,378,379,-1,350,379,352,-1,352,379,380,-1,352,380,354,-1,354,380,381,-1,354,381,356,-1,356,381,382,-1,356,382,358,-1,358,382,377,-1,368,369,367,-1,367,369,370,-1,367,370,383,-1,383,370,376,-1,383,376,384,-1,384,376,375,-1,384,375,385,-1,385,375,374,-1,332,335,330,-1,330,335,334,-1,330,334,378,-1,378,334,386,-1,378,386,379,-1,379,386,387,-1,379,387,380,-1,380,387,388,-1,380,388,381,-1,381,388,389,-1,381,389,382,-1,382,389,390,-1,382,390,377,-1,377,390,391,-1,377,391,371,-1,371,391,392,-1,371,392,372,-1,372,392,393,-1,372,393,373,-1,373,393,394,-1,373,394,374,-1,374,394,395,-1,374,395,385,-1,357,391,390,-1,357,390,355,-1,355,390,389,-1,355,389,353,-1,353,389,388,-1,353,388,351,-1,351,388,387,-1,351,387,349,-1,349,387,386,-1,349,386,347,-1,347,386,334,-1,347,334,336,-1,357,359,391,-1,391,359,392,-1,341,367,343,-1,343,367,383,-1,343,383,345,-1,345,383,384,-1,345,384,366,-1,366,384,385,-1,366,385,365,-1,365,385,395,-1,365,395,363,-1,363,395,394,-1,363,394,361,-1,361,394,393,-1,361,393,359,-1,359,393,392,-1,
        ]
    }
}
Shape{
    appearance Appearance {
        material  Material {
            diffuseColor 0.0 0.0 0.0
            specularColor 0.0 0.0 0.0
            ambientIntensity 0.0
            transparency 0.0
            shininess 0.5
        }
    }
    geometry IndexedFaceSet {
        ccw TRUE
        solid FALSE
        coord DEF co Coordinate {
            point [
                -0.2242 -0.1354 0.413, -0.2242 -0.1354 0.4134, -0.2256 -0.1254 0.413, -0.2256 -0.1254 0.4134, -0.2294 -0.1161 0.413, -0.2294 -0.1161 0.4134, -0.2356 -0.108 0.413, -0.2356 -0.108 0.4134, -0.2436 -0.1019 0.413, -0.2436 -0.1019 0.4134, -0.253 -0.098 0.413, -0.253 -0.098 0.4134, -0.263 -0.0967 0.413, -0.263 -0.0967 0.4134, -0.273 -0.098 0.413, -0.273 -0.098 0.4134, -0.2824 -0.1019 0.413, -0.2824 -0.1019 0.4134, -0.2904 -0.108 0.413, -0.2904 -0.108 0.4134, -0.2966 -0.1161 0.413, -0.2966 -0.1161 0.4134, -0.3005 -0.1254 0.413, -0.3005 -0.1254 0.4134, -0.3018 -0.1354 0.413, -0.3018 -0.1354 0.4134, -0.3005 -0.1455 0.413, -0.3005 -0.1455 0.4134, -0.2966 -0.1548 0.413, -0.2966 -0.1548 0.4134, -0.2904 -0.1629 0.413, -0.2904 -0.1629 0.4134, -0.2824 -0.169 0.413, -0.2824 -0.169 0.4134, -0.273 -0.1729 0.413, -0.273 -0.1729 0.4134, -0.263 -0.1742 0.413, -0.263 -0.1742 0.4134, -0.253 -0.1729 0.413, -0.253 -0.1729 0.4134, -0.2436 -0.169 0.413, -0.2436 -0.169 0.4134, -0.2356 -0.1629 0.413, -0.2356 -0.1629 0.4134, -0.2294 -0.1548 0.413, -0.2294 -0.1548 0.4134, -0.2256 -0.1455 0.413, -0.2256 -0.1455 0.4134, -0.263 -0.1354 0.413, -0.0774 0.0207 0.0201, -0.0928 -0.0187 0.0201, -0.0774 0.0207 0.0197, -0.0928 -0.0187 0.0197, -0.087 -0.0187 0.0201, -0.087 -0.0187 0.0197, -0.083 -0.0076 0.0201, -0.083 -0.0076 0.0197, -0.0668 -0.0076 0.0201, -0.0668 -0.0076 0.0197, -0.063 -0.0187 0.0201, -0.063 -0.0187 0.0197, -0.0573 -0.0187 0.0201, -0.0573 -0.0187 0.0197, -0.0721 0.0207 0.0201, -0.0721 0.0207 0.0197, -0.0681 -0.0033 0.0201, -0.0813 -0.0033 0.0201, -0.074 0.0131 0.0201, -0.0744 0.0145 0.0201, -0.0746 0.0159 0.0201, -0.0747 0.0159 0.0201, -0.075 0.0145 0.0201, -0.0753 0.0131 0.0201, -0.0681 -0.0033 0.0197, -0.0813 -0.0033 0.0197, -0.074 0.0131 0.0197, -0.0744 0.0145 0.0197, -0.0746 0.0159 0.0197, -0.0747 0.0159 0.0197, -0.075 0.0145 0.0197, -0.0753 0.0131 0.0197, -0.0334 -0.0187 0.0201, -0.0227 -0.0187 0.0201, -0.0334 -0.0187 0.0197, -0.0227 -0.0187 0.0197, -0.0227 0.0207 0.0201, -0.0227 0.0207 0.0197, -0.0338 0.0207 0.0201, -0.0338 0.0207 0.0197, -0.0544 0.0015 0.0201, -0.0544 0.0015 0.0197, -0.0541 0.0052 0.0197, -0.0541 0.0052 0.0201, -0.053 0.0091 0.0197, -0.053 0.0091 0.0201, -0.0512 0.0125 0.0197, -0.0512 0.0125 0.0201, -0.0484 0.0155 0.0197, -0.0484 0.0155 0.0201, -0.0484 0.0156 0.0197, -0.0484 0.0156 0.0201, -0.0441 0.0185 0.0197, -0.0441 0.0185 0.0201, -0.0395 0.0201 0.0197, -0.0395 0.0201 0.0201, -0.0383 -0.0183 0.0197, -0.0383 -0.0183 0.0201, -0.0428 -0.0169 0.0197, -0.0428 -0.0169 0.0201, -0.0469 -0.0145 0.0197, -0.0469 -0.0145 0.0201, -0.0502 -0.0114 0.0197, -0.0502 -0.0114 0.0201, -0.0524 -0.0079 0.0197, -0.0524 -0.0079 0.0201, -0.0538 -0.0038 0.0197, -0.0538 -0.0038 0.0201, -0.0465 0.0108 0.0201, -0.0446 0.0129 0.0201, -0.0417 0.0147 0.0201, -0.0384 0.0159 0.0201, -0.0338 0.0164 0.0201, -0.028 0.0164 0.0201, -0.028 -0.0144 0.0201, -0.0336 -0.0144 0.0201, -0.0377 -0.014 0.0201, -0.041 -0.013 0.0201, -0.0437 -0.0114 0.0201, -0.0459 -0.0092 0.0201, -0.0476 -0.0065 0.0201, -0.0487 -0.0028 0.0201, -0.0491 0.0014 0.0201, -0.0488 0.0053 0.0201, -0.0478 0.0084 0.0201, -0.0338 0.0164 0.0197, -0.028 0.0164 0.0197, -0.0384 0.0159 0.0197, -0.0417 0.0147 0.0197, -0.0446 0.0129 0.0197, -0.0465 0.0108 0.0197, -0.0478 0.0084 0.0197, -0.0488 0.0053 0.0197, -0.0491 0.0014 0.0197, -0.0487 -0.0028 0.0197, -0.0476 -0.0065 0.0197, -0.0459 -0.0092 0.0197, -0.0437 -0.0114 0.0197, -0.041 -0.013 0.0197, -0.0377 -0.014 0.0197, -0.0336 -0.0144 0.0197, -0.028 -0.0144 0.0197, -0.015 -0.0144 0.0201, -0.015 -0.0187 0.0201, -0.015 -0.0144 0.0197, -0.015 -0.0187 0.0197, 0.0061 -0.0187 0.0201, 0.0061 -0.0187 0.0197, 0.0061 0.0207 0.0201, 0.0061 0.0207 0.0197, -0.014 0.0207 0.0201, -0.014 0.0207 0.0197, -0.014 0.0164 0.0201, -0.014 0.0164 0.0197, 0.0008 0.0164 0.0201, 0.0008 0.0164 0.0197, 0.0008 0.0034 0.0201, 0.0008 0.0034 0.0197, -0.0131 0.0034 0.0201, -0.0131 0.0034 0.0197, -0.0131 -0.0009 0.0201, -0.0131 -0.0009 0.0197, 0.0008 -0.0009 0.0201, 0.0008 -0.0009 0.0197, 0.0008 -0.0144 0.0201, 0.0008 -0.0144 0.0197, 0.0138 -0.0123 0.0201, 0.0138 -0.0167 0.0201, 0.0138 -0.0123 0.0197, 0.0138 -0.0167 0.0197, 0.018 -0.0184 0.0201, 0.0246 -0.0192 0.0201, 0.0246 -0.0192 0.0197, 0.0236 -0.0192 0.0197, 0.0236 -0.0192 0.0201, 0.022 -0.0189 0.0197, 0.018 -0.0184 0.0197, 0.0269 -0.0189 0.0197, 0.0295 -0.0187 0.0201, 0.0295 -0.0187 0.0197, 0.0333 -0.0174 0.0201, 0.0333 -0.0174 0.0197, 0.0365 -0.0153 0.0201, 0.0365 -0.0153 0.0197, 0.0394 -0.0122 0.0201, 0.0394 -0.0122 0.0197, 0.0415 -0.0085 0.0201, 0.0415 -0.0085 0.0197, 0.0427 -0.0043 0.0201, 0.0427 -0.0043 0.0197, 0.0431 0.0002 0.0201, 0.0431 0.0002 0.0197, 0.0231 0.0212 0.0201, 0.0231 0.0212 0.0197, 0.027 0.0208 0.0197, 0.027 0.0208 0.0201, 0.0314 0.0196 0.0197, 0.0314 0.0196 0.0201, 0.0351 0.0174 0.0197, 0.0351 0.0174 0.0201, 0.0387 0.014 0.0197, 0.0387 0.014 0.0201, 0.041 0.0103 0.0197, 0.041 0.0103 0.0201, 0.0425 0.0058 0.0197, 0.0425 0.0058 0.0201, 0.0138 0.0196 0.0201, 0.0138 0.0196 0.0197, 0.0184 0.0208 0.0197, 0.0184 0.0208 0.0201, 0.0138 0.0143 0.0201, 0.0138 0.0143 0.0197, 0.023 0.0168 0.0201, 0.023 0.0168 0.0197, 0.0182 0.0162 0.0197, 0.0182 0.0162 0.0201, 0.0378 0.0006 0.0201, 0.0378 0.0006 0.0197, 0.0376 0.0036 0.0197, 0.0376 0.0036 0.0201, 0.0366 0.0078 0.0197, 0.0366 0.0078 0.0201, 0.0349 0.0109 0.0197, 0.0349 0.0109 0.0201, 0.0326 0.0135 0.0197, 0.0326 0.0135 0.0201, 0.0298 0.0153 0.0197, 0.0298 0.0153 0.0201, 0.0269 0.0164 0.0197, 0.0269 0.0164 0.0201, 0.0239 -0.0149 0.0201, 0.0239 -0.0149 0.0197, 0.0276 -0.0144 0.0197, 0.0276 -0.0144 0.0201, 0.0304 -0.0134 0.0197, 0.0304 -0.0134 0.0201, 0.0329 -0.0118 0.0197, 0.0329 -0.0118 0.0201, 0.0347 -0.0098 0.0197, 0.0347 -0.0098 0.0201, 0.0363 -0.0071 0.0197, 0.0363 -0.0071 0.0201, 0.0374 -0.0037 0.0197, 0.0374 -0.0037 0.0201, 0.0145 -0.0127 0.0197, 0.0145 -0.0127 0.0201, 0.0187 -0.0143 0.0197, 0.0187 -0.0143 0.0201, 0.0464 -0.0144 0.0201, 0.0464 -0.0187 0.0201, 0.0464 -0.0144 0.0197, 0.0464 -0.0187 0.0197, 0.0666 -0.0187 0.0201, 0.0666 -0.0187 0.0197, 0.0666 0.0207 0.0201, 0.0666 0.0207 0.0197, 0.0613 0.0207 0.0201, 0.0613 0.0207 0.0197, 0.0613 -0.0144 0.0201, 0.0613 -0.0144 0.0197
            ]
        }
        coordIndex [
            0,1,2,-1,2,1,3,-1,2,3,4,-1,4,3,5,-1,4,5,6,-1,6,5,7,-1,6,7,8,-1,8,7,9,-1,8,9,10,-1,10,9,11,-1,10,11,12,-1,12,11,13,-1,12,13,14,-1,14,13,15,-1,14,15,16,-1,16,15,17,-1,16,17,18,-1,18,17,19,-1,18,19,20,-1,20,19,21,-1,20,21,22,-1,22,21,23,-1,22,23,24,-1,24,23,25,-1,24,25,26,-1,26,25,27,-1,26,27,28,-1,28,27,29,-1,28,29,30,-1,30,29,31,-1,30,31,32,-1,32,31,33,-1,32,33,34,-1,34,33,35,-1,34,35,36,-1,36,35,37,-1,36,37,38,-1,38,37,39,-1,38,39,40,-1,40,39,41,-1,40,41,42,-1,42,41,43,-1,42,43,44,-1,44,43,45,-1,44,45,46,-1,46,45,47,-1,46,47,0,-1,0,47,1,-1,44,46,48,-1,48,46,0,-1,48,0,2,-1,38,40,48,-1,48,40,42,-1,48,42,44,-1,32,34,48,-1,48,34,36,-1,48,36,38,-1,26,28,48,-1,48,28,30,-1,48,30,32,-1,20,22,48,-1,48,22,24,-1,48,24,26,-1,14,16,48,-1,48,16,18,-1,48,18,20,-1,8,10,48,-1,48,10,12,-1,48,12,14,-1,2,4,48,-1,48,4,6,-1,48,6,8,-1,49,50,51,-1,51,50,52,-1,50,53,52,-1,52,53,54,-1,53,55,54,-1,54,55,56,-1,55,57,56,-1,56,57,58,-1,57,59,58,-1,58,59,60,-1,59,61,60,-1,60,61,62,-1,61,63,62,-1,62,63,64,-1,63,49,64,-1,64,49,51,-1,65,57,66,-1,66,57,55,-1,67,63,65,-1,65,63,61,-1,65,61,57,-1,57,61,59,-1,67,68,63,-1,63,68,69,-1,63,69,49,-1,49,69,70,-1,49,70,71,-1,71,72,49,-1,49,72,66,-1,49,66,50,-1,50,66,55,-1,50,55,53,-1,65,66,73,-1,73,66,74,-1,67,65,75,-1,75,65,73,-1,67,75,76,-1,67,76,68,-1,68,76,77,-1,68,77,69,-1,70,69,78,-1,78,69,77,-1,70,78,79,-1,70,79,71,-1,71,79,80,-1,71,80,72,-1,66,72,74,-1,74,72,80,-1,81,82,83,-1,83,82,84,-1,82,85,84,-1,84,85,86,-1,85,87,86,-1,86,87,88,-1,89,90,91,-1,89,91,92,-1,92,91,93,-1,92,93,94,-1,94,93,95,-1,94,95,96,-1,96,95,97,-1,96,97,98,-1,98,97,99,-1,98,99,100,-1,100,99,101,-1,100,101,102,-1,102,101,103,-1,102,103,104,-1,104,103,88,-1,104,88,87,-1,81,83,105,-1,81,105,106,-1,106,105,107,-1,106,107,108,-1,108,107,109,-1,108,109,110,-1,110,109,111,-1,110,111,112,-1,112,111,113,-1,112,113,114,-1,114,113,115,-1,114,115,116,-1,116,115,90,-1,116,90,89,-1,94,96,117,-1,117,96,98,-1,117,98,118,-1,118,98,100,-1,118,100,119,-1,119,100,102,-1,119,102,120,-1,120,102,104,-1,120,104,121,-1,121,104,87,-1,121,87,122,-1,122,87,85,-1,122,85,123,-1,123,85,82,-1,123,82,124,-1,124,82,81,-1,124,81,125,-1,125,81,106,-1,125,106,126,-1,126,106,108,-1,126,108,127,-1,127,108,110,-1,127,110,128,-1,128,110,112,-1,128,112,129,-1,129,112,114,-1,129,114,130,-1,130,114,116,-1,130,116,131,-1,131,116,89,-1,131,89,132,-1,132,89,92,-1,132,92,133,-1,133,92,94,-1,133,94,117,-1,121,122,134,-1,134,122,135,-1,121,134,136,-1,121,136,120,-1,120,136,137,-1,120,137,119,-1,119,137,138,-1,119,138,118,-1,118,138,139,-1,118,139,117,-1,117,139,140,-1,117,140,133,-1,133,140,141,-1,133,141,132,-1,132,141,142,-1,132,142,131,-1,131,142,143,-1,131,143,130,-1,130,143,144,-1,130,144,129,-1,129,144,145,-1,129,145,128,-1,128,145,146,-1,128,146,127,-1,127,146,147,-1,127,147,126,-1,126,147,148,-1,126,148,125,-1,125,148,149,-1,125,149,124,-1,123,124,150,-1,150,124,149,-1,122,123,135,-1,135,123,150,-1,151,152,153,-1,153,152,154,-1,152,155,154,-1,154,155,156,-1,155,157,156,-1,156,157,158,-1,157,159,158,-1,158,159,160,-1,159,161,160,-1,160,161,162,-1,161,163,162,-1,162,163,164,-1,163,165,164,-1,164,165,166,-1,165,167,166,-1,166,167,168,-1,167,169,168,-1,168,169,170,-1,169,171,170,-1,170,171,172,-1,171,173,172,-1,172,173,174,-1,173,151,174,-1,174,151,153,-1,155,152,151,-1,151,173,155,-1,155,173,171,-1,155,171,157,-1,161,159,163,-1,163,159,157,-1,163,157,165,-1,165,157,171,-1,165,171,167,-1,167,171,169,-1,175,176,177,-1,177,176,178,-1,178,176,179,-1,180,181,182,-1,180,182,183,-1,183,182,184,-1,183,184,179,-1,179,184,185,-1,179,185,178,-1,181,180,186,-1,186,180,187,-1,186,187,188,-1,188,187,189,-1,188,189,190,-1,190,189,191,-1,190,191,192,-1,192,191,193,-1,192,193,194,-1,194,193,195,-1,194,195,196,-1,196,195,197,-1,196,197,198,-1,198,197,199,-1,198,199,200,-1,201,202,203,-1,201,203,204,-1,204,203,205,-1,204,205,206,-1,206,205,207,-1,206,207,208,-1,208,207,209,-1,208,209,210,-1,210,209,211,-1,210,211,212,-1,212,211,213,-1,212,213,214,-1,214,213,200,-1,214,200,199,-1,215,216,217,-1,215,217,218,-1,218,217,202,-1,218,202,201,-1,215,219,216,-1,216,219,220,-1,221,222,223,-1,221,223,224,-1,224,223,220,-1,224,220,219,-1,225,226,227,-1,225,227,228,-1,228,227,229,-1,228,229,230,-1,230,229,231,-1,230,231,232,-1,232,231,233,-1,232,233,234,-1,234,233,235,-1,234,235,236,-1,236,235,237,-1,236,237,238,-1,238,237,222,-1,238,222,221,-1,239,240,241,-1,239,241,242,-1,242,241,243,-1,242,243,244,-1,244,243,245,-1,244,245,246,-1,246,245,247,-1,246,247,248,-1,248,247,249,-1,248,249,250,-1,250,249,251,-1,250,251,252,-1,252,251,226,-1,252,226,225,-1,175,177,253,-1,175,253,254,-1,254,253,255,-1,254,255,256,-1,256,255,240,-1,256,240,239,-1,242,180,239,-1,239,180,183,-1,239,183,256,-1,256,183,179,-1,256,179,254,-1,254,179,176,-1,254,176,175,-1,219,215,224,-1,224,215,218,-1,224,218,221,-1,221,218,201,-1,221,201,238,-1,238,201,204,-1,238,204,236,-1,236,204,206,-1,236,206,234,-1,234,206,208,-1,234,208,232,-1,232,208,210,-1,232,210,230,-1,230,210,212,-1,230,212,228,-1,228,212,214,-1,228,214,225,-1,225,214,199,-1,225,199,252,-1,252,199,197,-1,252,197,250,-1,250,197,195,-1,250,195,248,-1,248,195,193,-1,248,193,246,-1,246,193,191,-1,246,191,244,-1,244,191,189,-1,244,189,242,-1,242,189,187,-1,242,187,180,-1,257,258,259,-1,259,258,260,-1,258,261,260,-1,260,261,262,-1,261,263,262,-1,262,263,264,-1,263,265,264,-1,264,265,266,-1,265,267,266,-1,266,267,268,-1,267,257,268,-1,268,257,259,-1,265,263,267,-1,267,263,261,-1,267,261,257,-1,257,261,258,-1,
        ]
    }
}
Shape{
    appearance Appearance {
        material  Material {
            diffuseColor 0.25098039215686274 0.25098039215686274 0.25098039215686274
            specularColor 0.12549019607843137 0.12549019607843137 0.12549019607843137
            ambientIntensity 0.251
            transparency 0.0
            shininess 0.5
        }
    }
    geometry IndexedFaceSet {
        ccw TRUE
        solid FALSE
        coord DEF co Coordinate {
            point [
                -0.0681 -0.0033 0.0197, -0.0813 -0.0033 0.0197, -0.074 0.0131 0.0197, -0.0753 0.0131 0.0197, -0.0744 0.0145 0.0197, -0.075 0.0145 0.0197, -0.0746 0.0159 0.0197, -0.0747 0.0159 0.0197, -0.028 0.0164 0.0197, -0.028 -0.0144 0.0197, -0.0338 0.0164 0.0197, -0.0336 -0.0144 0.0197, -0.0377 -0.014 0.0197, -0.0491 0.0014 0.0197, -0.0488 0.0053 0.0197, -0.0478 0.0084 0.0197, -0.0384 0.0159 0.0197, -0.041 -0.013 0.0197, -0.0437 -0.0114 0.0197, -0.0459 -0.0092 0.0197, -0.0476 -0.0065 0.0197, -0.0487 -0.0028 0.0197, -0.0465 0.0108 0.0197, -0.0446 0.0129 0.0197, -0.0417 0.0147 0.0197
            ]
        }
        coordIndex [
            0,1,2,-1,2,1,3,-1,2,3,4,-1,4,3,5,-1,4,5,6,-1,6,5,7,-1,8,9,10,-1,10,9,11,-1,10,11,12,-1,13,14,10,-1,10,14,15,-1,10,15,16,-1,12,17,10,-1,10,17,18,-1,10,18,19,-1,19,20,10,-1,10,20,21,-1,10,21,13,-1,22,23,15,-1,15,23,24,-1,15,24,16,-1,
        ]
    }
}