%TF.GenerationSoftware,KiCad,Pcbnew,10.0.1*%
%TF.CreationDate,2026-09-11T08:12:13+02:00*%
%TF.ProjectId,CH318,43483331-382e-46b6-9963-61645f706362,rev?*%
%TF.SameCoordinates,Original*%
%TF.FileFunction,Paste,Top*%
%TF.FilePolarity,Positive*%
%FSLAX46Y46*%
G04 Gerber Fmt 4.6, Leading zero omitted, Abs format (unit mm)*
G04 Created by KiCad (PCBNEW 10.0.1) date 2026-09-11 08:12:13*
%MOMM*%
%LPD*%
G01*
G04 APERTURE LIST*
G04 Aperture macros list*
%AMRoundRect*
0 Rectangle with rounded corners*
0 $1 Rounding radius*
0 $2 $3 $4 $5 $6 $7 $8 $9 X,Y pos of 4 corners*
0 Add a 4 corners polygon primitive as box body*
4,1,4,$2,$3,$4,$5,$6,$7,$8,$9,$2,$3,0*
0 Add four circle primitives for the rounded corners*
1,1,$1+$1,$2,$3*
1,1,$1+$1,$4,$5*
1,1,$1+$1,$6,$7*
1,1,$1+$1,$8,$9*
0 Add four rect primitives between the rounded corners*
20,1,$1+$1,$2,$3,$4,$5,0*
20,1,$1+$1,$4,$5,$6,$7,0*
20,1,$1+$1,$6,$7,$8,$9,0*
20,1,$1+$1,$8,$9,$2,$3,0*%
G04 Aperture macros list end*
%ADD10RoundRect,0.225000X-0.250000X0.225000X-0.250000X-0.225000X0.250000X-0.225000X0.250000X0.225000X0*%
%ADD11RoundRect,0.375000X-0.375000X0.625000X-0.375000X-0.625000X0.375000X-0.625000X0.375000X0.625000X0*%
%ADD12RoundRect,0.500000X-1.400000X0.500000X-1.400000X-0.500000X1.400000X-0.500000X1.400000X0.500000X0*%
%ADD13RoundRect,0.250000X0.475000X-0.250000X0.475000X0.250000X-0.475000X0.250000X-0.475000X-0.250000X0*%
%ADD14R,3.200000X0.550000*%
%ADD15RoundRect,0.225000X0.250000X-0.225000X0.250000X0.225000X-0.250000X0.225000X-0.250000X-0.225000X0*%
%ADD16RoundRect,0.243750X-0.456250X0.243750X-0.456250X-0.243750X0.456250X-0.243750X0.456250X0.243750X0*%
%ADD17RoundRect,0.200000X0.275000X-0.200000X0.275000X0.200000X-0.275000X0.200000X-0.275000X-0.200000X0*%
%ADD18RoundRect,0.250000X0.450000X0.350000X-0.450000X0.350000X-0.450000X-0.350000X0.450000X-0.350000X0*%
%ADD19RoundRect,0.200000X0.200000X0.275000X-0.200000X0.275000X-0.200000X-0.275000X0.200000X-0.275000X0*%
%ADD20O,0.364000X1.742000*%
%ADD21R,0.700000X1.500000*%
%ADD22R,1.000000X0.800000*%
%ADD23R,2.200000X0.640000*%
G04 APERTURE END LIST*
D10*
%TO.C,C9*%
X245385809Y-116624425D03*
X245385809Y-118174425D03*
%TD*%
D11*
%TO.C,U2*%
X253060184Y-121319425D03*
X250760184Y-121319425D03*
D12*
X250760184Y-127619425D03*
D11*
X248460184Y-121319425D03*
%TD*%
D13*
%TO.C,C2*%
X243820000Y-127540000D03*
X243820000Y-125640000D03*
%TD*%
%TO.C,C6*%
X239687919Y-114070988D03*
X239687919Y-112170988D03*
%TD*%
D14*
%TO.C,U4*%
X216000000Y-123720000D03*
X216000000Y-122700000D03*
X216000000Y-121680000D03*
X216000000Y-120660000D03*
X216000000Y-119640000D03*
X216000000Y-118620000D03*
X216000000Y-117600000D03*
X216000000Y-116580000D03*
%TD*%
D15*
%TO.C,C1*%
X241880000Y-127655000D03*
X241880000Y-126105000D03*
%TD*%
%TO.C,C8*%
X236620497Y-114115988D03*
X236620497Y-112565988D03*
%TD*%
D13*
%TO.C,C7*%
X242818388Y-114070988D03*
X242818388Y-112170988D03*
%TD*%
D16*
%TO.C,D1*%
X202980000Y-136912500D03*
X202980000Y-138787500D03*
%TD*%
D17*
%TO.C,R2*%
X202960000Y-135080000D03*
X202960000Y-133430000D03*
%TD*%
D18*
%TO.C,Y1*%
X240029637Y-126269426D03*
X237829637Y-126269426D03*
X237829637Y-127969426D03*
X240029637Y-127969426D03*
%TD*%
D13*
%TO.C,C5*%
X248453231Y-118129425D03*
X248453231Y-116229425D03*
%TD*%
D19*
%TO.C,R3*%
X209540000Y-132880000D03*
X207890000Y-132880000D03*
%TD*%
D20*
%TO.C,U1*%
X237080000Y-122950000D03*
X237730000Y-122950000D03*
X238380000Y-122950000D03*
X239030000Y-122950000D03*
X239690000Y-122950000D03*
X240340000Y-122950000D03*
X240990000Y-122950000D03*
X241640000Y-122950000D03*
X242290000Y-122950000D03*
X242940000Y-122950000D03*
X242940000Y-117210000D03*
X242290000Y-117210000D03*
X241640000Y-117210000D03*
X240990000Y-117210000D03*
X240340000Y-117210000D03*
X239690000Y-117210000D03*
X239030000Y-117210000D03*
X238380000Y-117210000D03*
X237730000Y-117210000D03*
X237080000Y-117210000D03*
%TD*%
D17*
%TO.C,R1*%
X235980000Y-129535000D03*
X235980000Y-127885000D03*
%TD*%
D21*
%TO.C,S1*%
X207910000Y-136250000D03*
X210910000Y-136250000D03*
X212410000Y-136250000D03*
D22*
X206510000Y-136900000D03*
X206510000Y-139100000D03*
X213810000Y-136900000D03*
X213810000Y-139100000D03*
%TD*%
D23*
%TO.C,U3*%
X231399683Y-124771307D03*
X231399683Y-123771307D03*
X231399683Y-122771307D03*
X231399683Y-121771307D03*
X231399683Y-120771307D03*
X231399683Y-119771307D03*
X231399683Y-118771307D03*
X231399683Y-117771307D03*
X231399683Y-116771307D03*
X231399683Y-115771307D03*
X231399683Y-114771307D03*
X231399683Y-113771307D03*
X221999683Y-113771307D03*
X221999683Y-114771307D03*
X221999683Y-115771307D03*
X221999683Y-116771307D03*
X221999683Y-117771307D03*
X221999683Y-118771307D03*
X221999683Y-119771307D03*
X221999683Y-120771307D03*
X221999683Y-121771307D03*
X221999683Y-122771307D03*
X221999683Y-123771307D03*
X221999683Y-124771307D03*
%TD*%
M02*
