%TF.GenerationSoftware,KiCad,Pcbnew,10.0.6*%
%TF.CreationDate,2026-09-10T16:28:35+02:00*%
%TF.ProjectId,CH318,43483331-382e-46b6-9963-61645f706362,rev?*%
%TF.SameCoordinates,Original*%
%TF.FileFunction,Legend,Bot*%
%TF.FilePolarity,Positive*%
%FSLAX46Y46*%
G04 Gerber Fmt 4.6, Leading zero omitted, Abs format (unit mm)*
G04 Created by KiCad (PCBNEW 10.0.6) date 2026-09-10 16:28:35*
%MOMM*%
%LPD*%
G01*
G04 APERTURE LIST*
G04 APERTURE END LIST*
%LPC*%
G36*
X269983513Y-136594208D02*
G01*
X270222293Y-136671793D01*
X270445998Y-136785776D01*
X270649117Y-136933350D01*
X270826650Y-137110883D01*
X270974224Y-137314002D01*
X271088207Y-137537707D01*
X271165792Y-137776487D01*
X271205068Y-138024465D01*
X271205068Y-138275535D01*
X271165792Y-138523513D01*
X271088207Y-138762293D01*
X270974224Y-138985998D01*
X270826650Y-139189117D01*
X270649117Y-139366650D01*
X270445998Y-139514224D01*
X270222293Y-139628207D01*
X269983513Y-139705792D01*
X269735535Y-139745068D01*
X269484465Y-139745068D01*
X269236487Y-139705792D01*
X268997707Y-139628207D01*
X268774002Y-139514224D01*
X268570883Y-139366650D01*
X268393350Y-139189117D01*
X268245776Y-138985998D01*
X268131793Y-138762293D01*
X268054208Y-138523513D01*
X268014932Y-138275535D01*
X268014932Y-138024465D01*
X268054208Y-137776487D01*
X268131793Y-137537707D01*
X268245776Y-137314002D01*
X268393350Y-137110883D01*
X268570883Y-136933350D01*
X268774002Y-136785776D01*
X268997707Y-136671793D01*
X269236487Y-136594208D01*
X269484465Y-136554932D01*
X269735535Y-136554932D01*
X269983513Y-136594208D01*
G37*
G36*
X208832208Y-137584254D02*
G01*
X208933943Y-137642991D01*
X209017009Y-137726057D01*
X209075746Y-137827792D01*
X209106150Y-137941263D01*
X209106150Y-138058737D01*
X209075746Y-138172208D01*
X209017009Y-138273943D01*
X208933943Y-138357009D01*
X208832208Y-138415746D01*
X208718737Y-138446150D01*
X208601263Y-138446150D01*
X208487792Y-138415746D01*
X208386057Y-138357009D01*
X208302991Y-138273943D01*
X208244254Y-138172208D01*
X208213850Y-138058737D01*
X208213850Y-137941263D01*
X208244254Y-137827792D01*
X208302991Y-137726057D01*
X208386057Y-137642991D01*
X208487792Y-137584254D01*
X208601263Y-137553850D01*
X208718737Y-137553850D01*
X208832208Y-137584254D01*
G37*
G36*
X211832208Y-137584254D02*
G01*
X211933943Y-137642991D01*
X212017009Y-137726057D01*
X212075746Y-137827792D01*
X212106150Y-137941263D01*
X212106150Y-138058737D01*
X212075746Y-138172208D01*
X212017009Y-138273943D01*
X211933943Y-138357009D01*
X211832208Y-138415746D01*
X211718737Y-138446150D01*
X211601263Y-138446150D01*
X211487792Y-138415746D01*
X211386057Y-138357009D01*
X211302991Y-138273943D01*
X211244254Y-138172208D01*
X211213850Y-138058737D01*
X211213850Y-137941263D01*
X211244254Y-137827792D01*
X211302991Y-137726057D01*
X211386057Y-137642991D01*
X211487792Y-137584254D01*
X211601263Y-137553850D01*
X211718737Y-137553850D01*
X211832208Y-137584254D01*
G37*
G36*
X267130616Y-134352725D02*
G01*
X267268262Y-134409740D01*
X267392139Y-134492512D01*
X267497488Y-134597861D01*
X267580260Y-134721738D01*
X267637275Y-134859384D01*
X267666340Y-135005507D01*
X267666340Y-135154493D01*
X267637275Y-135300616D01*
X267580260Y-135438262D01*
X267497488Y-135562139D01*
X267392139Y-135667488D01*
X267268262Y-135750260D01*
X267130616Y-135807275D01*
X266984493Y-135836340D01*
X266835507Y-135836340D01*
X266689384Y-135807275D01*
X266551738Y-135750260D01*
X266427861Y-135667488D01*
X266322512Y-135562139D01*
X266239740Y-135438262D01*
X266182725Y-135300616D01*
X266153660Y-135154493D01*
X266153660Y-135005507D01*
X266182725Y-134859384D01*
X266239740Y-134721738D01*
X266322512Y-134597861D01*
X266427861Y-134492512D01*
X266551738Y-134409740D01*
X266689384Y-134352725D01*
X266835507Y-134323660D01*
X266984493Y-134323660D01*
X267130616Y-134352725D01*
G37*
G36*
X267130616Y-131852725D02*
G01*
X267268262Y-131909740D01*
X267392139Y-131992512D01*
X267497488Y-132097861D01*
X267580260Y-132221738D01*
X267637275Y-132359384D01*
X267666340Y-132505507D01*
X267666340Y-132654493D01*
X267637275Y-132800616D01*
X267580260Y-132938262D01*
X267497488Y-133062139D01*
X267392139Y-133167488D01*
X267268262Y-133250260D01*
X267130616Y-133307275D01*
X266984493Y-133336340D01*
X266835507Y-133336340D01*
X266689384Y-133307275D01*
X266551738Y-133250260D01*
X266427861Y-133167488D01*
X266322512Y-133062139D01*
X266239740Y-132938262D01*
X266182725Y-132800616D01*
X266153660Y-132654493D01*
X266153660Y-132505507D01*
X266182725Y-132359384D01*
X266239740Y-132221738D01*
X266322512Y-132097861D01*
X266427861Y-131992512D01*
X266551738Y-131909740D01*
X266689384Y-131852725D01*
X266835507Y-131823660D01*
X266984493Y-131823660D01*
X267130616Y-131852725D01*
G37*
G36*
X267130616Y-129852725D02*
G01*
X267268262Y-129909740D01*
X267392139Y-129992512D01*
X267497488Y-130097861D01*
X267580260Y-130221738D01*
X267637275Y-130359384D01*
X267666340Y-130505507D01*
X267666340Y-130654493D01*
X267637275Y-130800616D01*
X267580260Y-130938262D01*
X267497488Y-131062139D01*
X267392139Y-131167488D01*
X267268262Y-131250260D01*
X267130616Y-131307275D01*
X266984493Y-131336340D01*
X266835507Y-131336340D01*
X266689384Y-131307275D01*
X266551738Y-131250260D01*
X266427861Y-131167488D01*
X266322512Y-131062139D01*
X266239740Y-130938262D01*
X266182725Y-130800616D01*
X266153660Y-130654493D01*
X266153660Y-130505507D01*
X266182725Y-130359384D01*
X266239740Y-130221738D01*
X266322512Y-130097861D01*
X266427861Y-129992512D01*
X266551738Y-129909740D01*
X266689384Y-129852725D01*
X266835507Y-129823660D01*
X266984493Y-129823660D01*
X267130616Y-129852725D01*
G37*
G36*
X267130616Y-127352725D02*
G01*
X267268262Y-127409740D01*
X267392139Y-127492512D01*
X267497488Y-127597861D01*
X267580260Y-127721738D01*
X267637275Y-127859384D01*
X267666340Y-128005507D01*
X267666340Y-128154493D01*
X267637275Y-128300616D01*
X267580260Y-128438262D01*
X267497488Y-128562139D01*
X267392139Y-128667488D01*
X267268262Y-128750260D01*
X267130616Y-128807275D01*
X266984493Y-128836340D01*
X266835507Y-128836340D01*
X266689384Y-128807275D01*
X266551738Y-128750260D01*
X266427861Y-128667488D01*
X266322512Y-128562139D01*
X266239740Y-128438262D01*
X266182725Y-128300616D01*
X266153660Y-128154493D01*
X266153660Y-128005507D01*
X266182725Y-127859384D01*
X266239740Y-127721738D01*
X266322512Y-127597861D01*
X266427861Y-127492512D01*
X266551738Y-127409740D01*
X266689384Y-127352725D01*
X266835507Y-127323660D01*
X266984493Y-127323660D01*
X267130616Y-127352725D01*
G37*
G36*
X205621062Y-126478491D02*
G01*
X205760456Y-126506218D01*
X205891763Y-126560607D01*
X206009935Y-126639567D01*
X206110433Y-126740065D01*
X206189393Y-126858237D01*
X206243782Y-126989544D01*
X206271509Y-127128938D01*
X206271509Y-127271062D01*
X206243782Y-127410456D01*
X206189393Y-127541763D01*
X206110433Y-127659935D01*
X206009935Y-127760433D01*
X205891763Y-127839393D01*
X205760456Y-127893782D01*
X205621062Y-127921509D01*
X205550000Y-127925000D01*
X205548768Y-127925000D01*
X204251232Y-127925000D01*
X204250000Y-127925000D01*
X204178938Y-127921509D01*
X204039544Y-127893782D01*
X203908237Y-127839393D01*
X203790065Y-127760433D01*
X203689567Y-127659935D01*
X203610607Y-127541763D01*
X203556218Y-127410456D01*
X203528491Y-127271062D01*
X203528491Y-127128938D01*
X203556218Y-126989544D01*
X203610607Y-126858237D01*
X203689567Y-126740065D01*
X203790065Y-126639567D01*
X203908237Y-126560607D01*
X204039544Y-126506218D01*
X204178938Y-126478491D01*
X204250000Y-126475000D01*
X205550000Y-126475000D01*
X205621062Y-126478491D01*
G37*
G36*
X211521062Y-126478491D02*
G01*
X211660456Y-126506218D01*
X211791763Y-126560607D01*
X211909935Y-126639567D01*
X212010433Y-126740065D01*
X212089393Y-126858237D01*
X212143782Y-126989544D01*
X212171509Y-127128938D01*
X212171509Y-127271062D01*
X212143782Y-127410456D01*
X212089393Y-127541763D01*
X212010433Y-127659935D01*
X211909935Y-127760433D01*
X211791763Y-127839393D01*
X211660456Y-127893782D01*
X211521062Y-127921509D01*
X211450000Y-127925000D01*
X211448768Y-127925000D01*
X210151232Y-127925000D01*
X210150000Y-127925000D01*
X210078938Y-127921509D01*
X209939544Y-127893782D01*
X209808237Y-127839393D01*
X209690065Y-127760433D01*
X209589567Y-127659935D01*
X209510607Y-127541763D01*
X209456218Y-127410456D01*
X209428491Y-127271062D01*
X209428491Y-127128938D01*
X209456218Y-126989544D01*
X209510607Y-126858237D01*
X209589567Y-126740065D01*
X209690065Y-126639567D01*
X209808237Y-126560607D01*
X209939544Y-126506218D01*
X210078938Y-126478491D01*
X210150000Y-126475000D01*
X211450000Y-126475000D01*
X211521062Y-126478491D01*
G37*
G36*
X269983513Y-123454208D02*
G01*
X270222293Y-123531793D01*
X270445998Y-123645776D01*
X270649117Y-123793350D01*
X270826650Y-123970883D01*
X270974224Y-124174002D01*
X271088207Y-124397707D01*
X271165792Y-124636487D01*
X271205068Y-124884465D01*
X271205068Y-125135535D01*
X271165792Y-125383513D01*
X271088207Y-125622293D01*
X270974224Y-125845998D01*
X270826650Y-126049117D01*
X270649117Y-126226650D01*
X270445998Y-126374224D01*
X270222293Y-126488207D01*
X269983513Y-126565792D01*
X269735535Y-126605068D01*
X269484465Y-126605068D01*
X269236487Y-126565792D01*
X268997707Y-126488207D01*
X268774002Y-126374224D01*
X268570883Y-126226650D01*
X268393350Y-126049117D01*
X268245776Y-125845998D01*
X268131793Y-125622293D01*
X268054208Y-125383513D01*
X268014932Y-125135535D01*
X268014932Y-124884465D01*
X268054208Y-124636487D01*
X268131793Y-124397707D01*
X268245776Y-124174002D01*
X268393350Y-123970883D01*
X268570883Y-123793350D01*
X268774002Y-123645776D01*
X268997707Y-123531793D01*
X269236487Y-123454208D01*
X269484465Y-123414932D01*
X269735535Y-123414932D01*
X269983513Y-123454208D01*
G37*
G36*
X212961256Y-124488754D02*
G01*
X213124257Y-124556271D01*
X213270954Y-124654291D01*
X213395709Y-124779046D01*
X213493729Y-124925743D01*
X213561246Y-125088744D01*
X213595666Y-125261785D01*
X213595666Y-125438215D01*
X213561246Y-125611256D01*
X213493729Y-125774257D01*
X213395709Y-125920954D01*
X213270954Y-126045709D01*
X213124257Y-126143729D01*
X212961256Y-126211246D01*
X212788215Y-126245666D01*
X212611785Y-126245666D01*
X212438744Y-126211246D01*
X212275743Y-126143729D01*
X212129046Y-126045709D01*
X212004291Y-125920954D01*
X211906271Y-125774257D01*
X211838754Y-125611256D01*
X211804334Y-125438215D01*
X211804334Y-125261785D01*
X211838754Y-125088744D01*
X211906271Y-124925743D01*
X212004291Y-124779046D01*
X212129046Y-124654291D01*
X212275743Y-124556271D01*
X212438744Y-124488754D01*
X212611785Y-124454334D01*
X212788215Y-124454334D01*
X212961256Y-124488754D01*
G37*
G36*
X270003513Y-113774208D02*
G01*
X270242293Y-113851793D01*
X270465998Y-113965776D01*
X270669117Y-114113350D01*
X270846650Y-114290883D01*
X270994224Y-114494002D01*
X271108207Y-114717707D01*
X271185792Y-114956487D01*
X271225068Y-115204465D01*
X271225068Y-115455535D01*
X271185792Y-115703513D01*
X271108207Y-115942293D01*
X270994224Y-116165998D01*
X270846650Y-116369117D01*
X270669117Y-116546650D01*
X270465998Y-116694224D01*
X270242293Y-116808207D01*
X270003513Y-116885792D01*
X269755535Y-116925068D01*
X269504465Y-116925068D01*
X269256487Y-116885792D01*
X269017707Y-116808207D01*
X268794002Y-116694224D01*
X268590883Y-116546650D01*
X268413350Y-116369117D01*
X268265776Y-116165998D01*
X268151793Y-115942293D01*
X268074208Y-115703513D01*
X268034932Y-115455535D01*
X268034932Y-115204465D01*
X268074208Y-114956487D01*
X268151793Y-114717707D01*
X268265776Y-114494002D01*
X268413350Y-114290883D01*
X268590883Y-114113350D01*
X268794002Y-113965776D01*
X269017707Y-113851793D01*
X269256487Y-113774208D01*
X269504465Y-113734932D01*
X269755535Y-113734932D01*
X270003513Y-113774208D01*
G37*
G36*
X212961256Y-114088754D02*
G01*
X213124257Y-114156271D01*
X213270954Y-114254291D01*
X213395709Y-114379046D01*
X213493729Y-114525743D01*
X213561246Y-114688744D01*
X213595666Y-114861785D01*
X213595666Y-115038215D01*
X213561246Y-115211256D01*
X213493729Y-115374257D01*
X213395709Y-115520954D01*
X213270954Y-115645709D01*
X213124257Y-115743729D01*
X212961256Y-115811246D01*
X212788215Y-115845666D01*
X212611785Y-115845666D01*
X212438744Y-115811246D01*
X212275743Y-115743729D01*
X212129046Y-115645709D01*
X212004291Y-115520954D01*
X211906271Y-115374257D01*
X211838754Y-115211256D01*
X211804334Y-115038215D01*
X211804334Y-114861785D01*
X211838754Y-114688744D01*
X211906271Y-114525743D01*
X212004291Y-114379046D01*
X212129046Y-114254291D01*
X212275743Y-114156271D01*
X212438744Y-114088754D01*
X212611785Y-114054334D01*
X212788215Y-114054334D01*
X212961256Y-114088754D01*
G37*
G36*
X205621062Y-112378491D02*
G01*
X205760456Y-112406218D01*
X205891763Y-112460607D01*
X206009935Y-112539567D01*
X206110433Y-112640065D01*
X206189393Y-112758237D01*
X206243782Y-112889544D01*
X206271509Y-113028938D01*
X206271509Y-113171062D01*
X206243782Y-113310456D01*
X206189393Y-113441763D01*
X206110433Y-113559935D01*
X206009935Y-113660433D01*
X205891763Y-113739393D01*
X205760456Y-113793782D01*
X205621062Y-113821509D01*
X205550000Y-113825000D01*
X205548768Y-113825000D01*
X204251232Y-113825000D01*
X204250000Y-113825000D01*
X204178938Y-113821509D01*
X204039544Y-113793782D01*
X203908237Y-113739393D01*
X203790065Y-113660433D01*
X203689567Y-113559935D01*
X203610607Y-113441763D01*
X203556218Y-113310456D01*
X203528491Y-113171062D01*
X203528491Y-113028938D01*
X203556218Y-112889544D01*
X203610607Y-112758237D01*
X203689567Y-112640065D01*
X203790065Y-112539567D01*
X203908237Y-112460607D01*
X204039544Y-112406218D01*
X204178938Y-112378491D01*
X204250000Y-112375000D01*
X205550000Y-112375000D01*
X205621062Y-112378491D01*
G37*
G36*
X211521062Y-112378491D02*
G01*
X211660456Y-112406218D01*
X211791763Y-112460607D01*
X211909935Y-112539567D01*
X212010433Y-112640065D01*
X212089393Y-112758237D01*
X212143782Y-112889544D01*
X212171509Y-113028938D01*
X212171509Y-113171062D01*
X212143782Y-113310456D01*
X212089393Y-113441763D01*
X212010433Y-113559935D01*
X211909935Y-113660433D01*
X211791763Y-113739393D01*
X211660456Y-113793782D01*
X211521062Y-113821509D01*
X211450000Y-113825000D01*
X211448768Y-113825000D01*
X210151232Y-113825000D01*
X210150000Y-113825000D01*
X210078938Y-113821509D01*
X209939544Y-113793782D01*
X209808237Y-113739393D01*
X209690065Y-113660433D01*
X209589567Y-113559935D01*
X209510607Y-113441763D01*
X209456218Y-113310456D01*
X209428491Y-113171062D01*
X209428491Y-113028938D01*
X209456218Y-112889544D01*
X209510607Y-112758237D01*
X209589567Y-112640065D01*
X209690065Y-112539567D01*
X209808237Y-112460607D01*
X209939544Y-112406218D01*
X210078938Y-112378491D01*
X210150000Y-112375000D01*
X211450000Y-112375000D01*
X211521062Y-112378491D01*
G37*
G36*
X267150616Y-111532725D02*
G01*
X267288262Y-111589740D01*
X267412139Y-111672512D01*
X267517488Y-111777861D01*
X267600260Y-111901738D01*
X267657275Y-112039384D01*
X267686340Y-112185507D01*
X267686340Y-112334493D01*
X267657275Y-112480616D01*
X267600260Y-112618262D01*
X267517488Y-112742139D01*
X267412139Y-112847488D01*
X267288262Y-112930260D01*
X267150616Y-112987275D01*
X267004493Y-113016340D01*
X266855507Y-113016340D01*
X266709384Y-112987275D01*
X266571738Y-112930260D01*
X266447861Y-112847488D01*
X266342512Y-112742139D01*
X266259740Y-112618262D01*
X266202725Y-112480616D01*
X266173660Y-112334493D01*
X266173660Y-112185507D01*
X266202725Y-112039384D01*
X266259740Y-111901738D01*
X266342512Y-111777861D01*
X266447861Y-111672512D01*
X266571738Y-111589740D01*
X266709384Y-111532725D01*
X266855507Y-111503660D01*
X267004493Y-111503660D01*
X267150616Y-111532725D01*
G37*
G36*
X267150616Y-109032725D02*
G01*
X267288262Y-109089740D01*
X267412139Y-109172512D01*
X267517488Y-109277861D01*
X267600260Y-109401738D01*
X267657275Y-109539384D01*
X267686340Y-109685507D01*
X267686340Y-109834493D01*
X267657275Y-109980616D01*
X267600260Y-110118262D01*
X267517488Y-110242139D01*
X267412139Y-110347488D01*
X267288262Y-110430260D01*
X267150616Y-110487275D01*
X267004493Y-110516340D01*
X266855507Y-110516340D01*
X266709384Y-110487275D01*
X266571738Y-110430260D01*
X266447861Y-110347488D01*
X266342512Y-110242139D01*
X266259740Y-110118262D01*
X266202725Y-109980616D01*
X266173660Y-109834493D01*
X266173660Y-109685507D01*
X266202725Y-109539384D01*
X266259740Y-109401738D01*
X266342512Y-109277861D01*
X266447861Y-109172512D01*
X266571738Y-109089740D01*
X266709384Y-109032725D01*
X266855507Y-109003660D01*
X267004493Y-109003660D01*
X267150616Y-109032725D01*
G37*
G36*
X267150616Y-107032725D02*
G01*
X267288262Y-107089740D01*
X267412139Y-107172512D01*
X267517488Y-107277861D01*
X267600260Y-107401738D01*
X267657275Y-107539384D01*
X267686340Y-107685507D01*
X267686340Y-107834493D01*
X267657275Y-107980616D01*
X267600260Y-108118262D01*
X267517488Y-108242139D01*
X267412139Y-108347488D01*
X267288262Y-108430260D01*
X267150616Y-108487275D01*
X267004493Y-108516340D01*
X266855507Y-108516340D01*
X266709384Y-108487275D01*
X266571738Y-108430260D01*
X266447861Y-108347488D01*
X266342512Y-108242139D01*
X266259740Y-108118262D01*
X266202725Y-107980616D01*
X266173660Y-107834493D01*
X266173660Y-107685507D01*
X266202725Y-107539384D01*
X266259740Y-107401738D01*
X266342512Y-107277861D01*
X266447861Y-107172512D01*
X266571738Y-107089740D01*
X266709384Y-107032725D01*
X266855507Y-107003660D01*
X267004493Y-107003660D01*
X267150616Y-107032725D01*
G37*
G36*
X267150616Y-104532725D02*
G01*
X267288262Y-104589740D01*
X267412139Y-104672512D01*
X267517488Y-104777861D01*
X267600260Y-104901738D01*
X267657275Y-105039384D01*
X267686340Y-105185507D01*
X267686340Y-105334493D01*
X267657275Y-105480616D01*
X267600260Y-105618262D01*
X267517488Y-105742139D01*
X267412139Y-105847488D01*
X267288262Y-105930260D01*
X267150616Y-105987275D01*
X267004493Y-106016340D01*
X266855507Y-106016340D01*
X266709384Y-105987275D01*
X266571738Y-105930260D01*
X266447861Y-105847488D01*
X266342512Y-105742139D01*
X266259740Y-105618262D01*
X266202725Y-105480616D01*
X266173660Y-105334493D01*
X266173660Y-105185507D01*
X266202725Y-105039384D01*
X266259740Y-104901738D01*
X266342512Y-104777861D01*
X266447861Y-104672512D01*
X266571738Y-104589740D01*
X266709384Y-104532725D01*
X266855507Y-104503660D01*
X267004493Y-104503660D01*
X267150616Y-104532725D01*
G37*
G36*
X270003513Y-100634208D02*
G01*
X270242293Y-100711793D01*
X270465998Y-100825776D01*
X270669117Y-100973350D01*
X270846650Y-101150883D01*
X270994224Y-101354002D01*
X271108207Y-101577707D01*
X271185792Y-101816487D01*
X271225068Y-102064465D01*
X271225068Y-102315535D01*
X271185792Y-102563513D01*
X271108207Y-102802293D01*
X270994224Y-103025998D01*
X270846650Y-103229117D01*
X270669117Y-103406650D01*
X270465998Y-103554224D01*
X270242293Y-103668207D01*
X270003513Y-103745792D01*
X269755535Y-103785068D01*
X269504465Y-103785068D01*
X269256487Y-103745792D01*
X269017707Y-103668207D01*
X268794002Y-103554224D01*
X268590883Y-103406650D01*
X268413350Y-103229117D01*
X268265776Y-103025998D01*
X268151793Y-102802293D01*
X268074208Y-102563513D01*
X268034932Y-102315535D01*
X268034932Y-102064465D01*
X268074208Y-101816487D01*
X268151793Y-101577707D01*
X268265776Y-101354002D01*
X268413350Y-101150883D01*
X268590883Y-100973350D01*
X268794002Y-100825776D01*
X269017707Y-100711793D01*
X269256487Y-100634208D01*
X269504465Y-100594932D01*
X269755535Y-100594932D01*
X270003513Y-100634208D01*
G37*
%LPD*%
M02*
