#VRML V2.0 utf8
# 3D model generated by kicad-lcsc-manager
# Based on easyeda2kicad.py v1.0.1

Shape{
    appearance Appearance {
        material  Material {
            diffuseColor 1.0 1.0 0.0
            specularColor 0.5019607843137255 0.5019607843137255 0.0
            ambientIntensity 0.886
            transparency 0.0
            shininess 0.5
        }
    }
    geometry IndexedFaceSet {
        ccw TRUE
        solid FALSE
        coord DEF co Coordinate {
            point [
                0.2461 0.4331 0.0079, 0.2461 0.561 0.0079, 0.2461 0.4331 0.0, 0.2461 0.561 0.0, 0.3445 0.4331 0.0079, 0.3445 0.4331 0.0, 0.3445 0.561 0.0079, 0.3445 0.561 0.0, -0.3445 0.4331 0.0079, -0.3445 0.561 0.0079, -0.3445 0.4331 0.0, -0.3445 0.561 0.0, -0.2461 0.4331 0.0079, -0.2461 0.4331 0.0, -0.2461 0.561 0.0079, -0.2461 0.561 0.0, 0.0492 0.4331 0.0079, 0.0492 0.561 0.0079, 0.0492 0.4331 0.0, 0.0492 0.561 0.0, 0.1476 0.4331 0.0079, 0.1476 0.4331 0.0, 0.1476 0.561 0.0079, 0.1476 0.561 0.0, -0.1476 0.4331 0.0079, -0.1476 0.561 0.0079, -0.1476 0.4331 0.0, -0.1476 0.561 0.0, -0.0492 0.4331 0.0079, -0.0492 0.4331 0.0, -0.0492 0.561 0.0079, -0.0492 0.561 0.0, -0.5339 0.497 0.0, -0.5337 0.5012 0.0079, -0.5337 0.5012 0.0, -0.533 0.5053 0.0079, -0.533 0.5053 0.0, -0.5318 0.5092 0.0079, -0.5318 0.5092 0.0, -0.5302 0.513 0.0079, -0.5302 0.513 0.0, -0.5281 0.5166 0.0079, -0.5281 0.5166 0.0, -0.5256 0.52 0.0079, -0.5256 0.52 0.0, -0.5228 0.523 0.0079, -0.5228 0.523 0.0, -0.5196 0.5256 0.0079, -0.5196 0.5256 0.0, -0.5161 0.5279 0.0079, -0.5161 0.5279 0.0, -0.5124 0.5298 0.0079, -0.5124 0.5298 0.0, -0.5085 0.5312 0.0079, -0.5085 0.5312 0.0, -0.5045 0.5321 0.0079, -0.5045 0.5321 0.0, -0.5004 0.5326 0.0079, -0.5004 0.5326 0.0, -0.4962 0.5326 0.0079, -0.4962 0.5326 0.0, -0.4921 0.5321 0.0079, -0.4921 0.5321 0.0, -0.4881 0.5312 0.0079, -0.4881 0.5312 0.0, -0.4842 0.5298 0.0079, -0.4842 0.5298 0.0, -0.4805 0.5279 0.0079, -0.4805 0.5279 0.0, -0.477 0.5256 0.0079, -0.477 0.5256 0.0, -0.4738 0.523 0.0079, -0.4738 0.523 0.0, -0.471 0.52 0.0079, -0.471 0.52 0.0, -0.4685 0.5166 0.0079, -0.4685 0.5166 0.0, -0.4665 0.513 0.0079, -0.4665 0.513 0.0, -0.4648 0.5092 0.0079, -0.4648 0.5092 0.0, -0.4636 0.5053 0.0079, -0.4636 0.5053 0.0, -0.4629 0.5012 0.0079, -0.4629 0.5012 0.0, -0.4627 0.497 0.0079, -0.4627 0.497 0.0, -0.4629 0.4929 0.0079, -0.4629 0.4929 0.0, -0.4636 0.4888 0.0079, -0.4636 0.4888 0.0, -0.4648 0.4849 0.0079, -0.4648 0.4849 0.0, -0.4665 0.4811 0.0079, -0.4665 0.4811 0.0, -0.4685 0.4775 0.0079, -0.4685 0.4775 0.0, -0.471 0.4741 0.0079, -0.471 0.4741 0.0, -0.4738 0.4711 0.0079, -0.4738 0.4711 0.0, -0.477 0.4685 0.0079, -0.477 0.4685 0.0, -0.4805 0.4662 0.0079, -0.4805 0.4662 0.0, -0.4842 0.4643 0.0079, -0.4842 0.4643 0.0, -0.4881 0.4629 0.0079, -0.4881 0.4629 0.0, -0.4921 0.462 0.0079, -0.4921 0.462 0.0, -0.4962 0.4615 0.0079, -0.4962 0.4615 0.0, -0.5004 0.4615 0.0079, -0.5004 0.4615 0.0, -0.5045 0.462 0.0079, -0.5045 0.462 0.0, -0.5085 0.4629 0.0079, -0.5085 0.4629 0.0, -0.5124 0.4643 0.0079, -0.5124 0.4643 0.0, -0.5161 0.4662 0.0079, -0.5161 0.4662 0.0, -0.5196 0.4685 0.0079, -0.5196 0.4685 0.0, -0.5228 0.4711 0.0079, -0.5228 0.4711 0.0, -0.5256 0.4741 0.0079, -0.5256 0.4741 0.0, -0.5281 0.4775 0.0079, -0.5281 0.4775 0.0, -0.5302 0.4811 0.0079, -0.5302 0.4811 0.0, -0.5318 0.4849 0.0079, -0.5318 0.4849 0.0, -0.533 0.4888 0.0079, -0.533 0.4888 0.0, -0.5337 0.4929 0.0079, -0.5337 0.4929 0.0, -0.5339 0.497 0.0079, -0.4983 0.497 0.0079, -0.4983 0.497 0.0
            ]
        }
        coordIndex [
            0,1,2,-1,2,1,3,-1,4,0,5,-1,5,0,2,-1,6,4,7,-1,7,4,5,-1,1,6,3,-1,3,6,7,-1,4,6,0,-1,0,6,1,-1,7,5,3,-1,3,5,2,-1,8,9,10,-1,10,9,11,-1,12,8,13,-1,13,8,10,-1,14,12,15,-1,15,12,13,-1,9,14,11,-1,11,14,15,-1,12,14,8,-1,8,14,9,-1,15,13,11,-1,11,13,10,-1,16,17,18,-1,18,17,19,-1,20,16,21,-1,21,16,18,-1,22,20,23,-1,23,20,21,-1,17,22,19,-1,19,22,23,-1,20,22,16,-1,16,22,17,-1,23,21,19,-1,19,21,18,-1,24,25,26,-1,26,25,27,-1,28,24,29,-1,29,24,26,-1,30,28,31,-1,31,28,29,-1,25,30,27,-1,27,30,31,-1,28,30,24,-1,24,30,25,-1,31,29,27,-1,27,29,26,-1,32,33,34,-1,34,33,35,-1,34,35,36,-1,36,35,37,-1,36,37,38,-1,38,37,39,-1,38,39,40,-1,40,39,41,-1,40,41,42,-1,42,41,43,-1,42,43,44,-1,44,43,45,-1,44,45,46,-1,46,45,47,-1,46,47,48,-1,48,47,49,-1,48,49,50,-1,50,49,51,-1,50,51,52,-1,52,51,53,-1,52,53,54,-1,54,53,55,-1,54,55,56,-1,56,55,57,-1,56,57,58,-1,58,57,59,-1,58,59,60,-1,60,59,61,-1,60,61,62,-1,62,61,63,-1,62,63,64,-1,64,63,65,-1,64,65,66,-1,66,65,67,-1,66,67,68,-1,68,67,69,-1,68,69,70,-1,70,69,71,-1,70,71,72,-1,72,71,73,-1,72,73,74,-1,74,73,75,-1,74,75,76,-1,76,75,77,-1,76,77,78,-1,78,77,79,-1,78,79,80,-1,80,79,81,-1,80,81,82,-1,82,81,83,-1,82,83,84,-1,84,83,85,-1,84,85,86,-1,86,85,87,-1,86,87,88,-1,88,87,89,-1,88,89,90,-1,90,89,91,-1,90,91,92,-1,92,91,93,-1,92,93,94,-1,94,93,95,-1,94,95,96,-1,96,95,97,-1,96,97,98,-1,98,97,99,-1,98,99,100,-1,100,99,101,-1,100,101,102,-1,102,101,103,-1,102,103,104,-1,104,103,105,-1,104,105,106,-1,106,105,107,-1,106,107,108,-1,108,107,109,-1,108,109,110,-1,110,109,111,-1,110,111,112,-1,112,111,113,-1,112,113,114,-1,114,113,115,-1,114,115,116,-1,116,115,117,-1,116,117,118,-1,118,117,119,-1,118,119,120,-1,120,119,121,-1,120,121,122,-1,122,121,123,-1,122,123,124,-1,124,123,125,-1,124,125,126,-1,126,125,127,-1,126,127,128,-1,128,127,129,-1,128,129,130,-1,130,129,131,-1,130,131,132,-1,132,131,133,-1,132,133,134,-1,134,133,135,-1,134,135,136,-1,136,135,137,-1,136,137,138,-1,138,137,139,-1,138,139,32,-1,32,139,33,-1,89,87,140,-1,140,87,85,-1,140,85,83,-1,95,93,140,-1,140,93,91,-1,140,91,89,-1,101,99,140,-1,140,99,97,-1,140,97,95,-1,107,105,140,-1,140,105,103,-1,140,103,101,-1,113,111,140,-1,140,111,109,-1,140,109,107,-1,119,117,140,-1,140,117,115,-1,140,115,113,-1,125,123,140,-1,140,123,121,-1,140,121,119,-1,131,129,140,-1,140,129,127,-1,140,127,125,-1,137,135,140,-1,140,135,133,-1,140,133,131,-1,35,33,140,-1,140,33,139,-1,140,139,137,-1,41,39,140,-1,140,39,37,-1,140,37,35,-1,47,45,140,-1,140,45,43,-1,140,43,41,-1,53,51,140,-1,140,51,49,-1,140,49,47,-1,59,57,140,-1,140,57,55,-1,140,55,53,-1,65,63,140,-1,140,63,61,-1,140,61,59,-1,71,69,140,-1,140,69,67,-1,140,67,65,-1,77,75,140,-1,140,75,73,-1,140,73,71,-1,83,81,140,-1,140,81,79,-1,140,79,77,-1,82,84,141,-1,141,84,86,-1,141,86,88,-1,76,78,141,-1,141,78,80,-1,141,80,82,-1,70,72,141,-1,141,72,74,-1,141,74,76,-1,64,66,141,-1,141,66,68,-1,141,68,70,-1,58,60,141,-1,141,60,62,-1,141,62,64,-1,52,54,141,-1,141,54,56,-1,141,56,58,-1,46,48,141,-1,141,48,50,-1,141,50,52,-1,40,42,141,-1,141,42,44,-1,141,44,46,-1,34,36,141,-1,141,36,38,-1,141,38,40,-1,136,138,141,-1,141,138,32,-1,141,32,34,-1,130,132,141,-1,141,132,134,-1,141,134,136,-1,124,126,141,-1,141,126,128,-1,141,128,130,-1,118,120,141,-1,141,120,122,-1,141,122,124,-1,112,114,141,-1,141,114,116,-1,141,116,118,-1,106,108,141,-1,141,108,110,-1,141,110,112,-1,100,102,141,-1,141,102,104,-1,141,104,106,-1,94,96,141,-1,141,96,98,-1,141,98,100,-1,88,90,141,-1,141,90,92,-1,141,92,94,-1,
        ]
    }
}
Shape{
    appearance Appearance {
        material  Material {
            diffuseColor 0.25098039215686274 0.25098039215686274 0.25098039215686274
            specularColor 0.12549019607843137 0.12549019607843137 0.12549019607843137
            ambientIntensity 0.251
            transparency 0.0
            shininess 0.5
        }
    }
    geometry IndexedFaceSet {
        ccw TRUE
        solid FALSE
        coord DEF co Coordinate {
            point [
                0.5626 -0.5906 0.3622, 0.5906 -0.5906 0.3622, 0.5906 -0.517 0.3622, 0.4976 -0.5906 0.3622, 0.5626 -0.517 0.3622, 0.4601 -0.5906 0.3622, 0.4976 -0.517 0.3622, -0.5906 -0.5906 0.3622, -0.1126 -0.5906 0.3622, -0.1126 -0.517 0.3622, 0.3923 -0.5009 0.3622, 0.3906 -0.5011 0.3622, 0.4006 -0.5011 0.3622, 0.1096 -0.4519 0.3622, 0.1102 -0.4493 0.3622, -0.1126 -0.4493 0.3622, 0.2733 -0.4288 0.3622, 0.2809 -0.4354 0.3622, 0.3075 -0.3969 0.3622, 0.3075 -0.4376 0.3622, 0.2348 -0.3927 0.3622, 0.241 -0.3969 0.3622, 0.2475 -0.4013 0.3622, 0.2569 -0.412 0.3622, 0.2629 -0.4238 0.3622, 0.2649 -0.4244 0.3622, 0.1816 -0.3933 0.3622, 0.1947 -0.3882 0.3622, -0.1126 -0.0259 0.3622, 0.3075 -0.0259 0.3622, 0.2088 -0.3865 0.3622, 0.2206 -0.3877 0.3622, 0.1229 -0.4232 0.3622, 0.1257 -0.4206 0.3622, -0.1126 -0.3969 0.3622, 0.1758 -0.3969 0.3622, 0.1747 -0.3976 0.3622, 0.1353 -0.4143 0.3622, 0.1459 -0.4105 0.3622, 0.1556 -0.4095 0.3622, 0.168 -0.4033 0.3622, 0.1589 -0.4097 0.3622, 0.1621 -0.4101 0.3622, -0.1126 -0.4376 0.3622, 0.112 -0.4407 0.3622, 0.1135 -0.4376 0.3622, 0.1168 -0.4307 0.3622, 0.1442 -0.5003 0.3622, 0.139 -0.4987 0.3622, -0.1126 -0.5011 0.3622, 0.1289 -0.4933 0.3622, 0.1214 -0.4867 0.3622, 0.1201 -0.4852 0.3622, 0.1142 -0.4759 0.3622, 0.1105 -0.4653 0.3622, 0.1095 -0.4556 0.3622, 0.1513 -0.5116 0.3622, 0.1471 -0.5064 0.3622, 0.1446 -0.5011 0.3622, 0.183 -0.517 0.3622, 0.1781 -0.5188 0.3622, 0.3075 -0.5906 0.3622, 0.1713 -0.5197 0.3622, 0.1701 -0.5197 0.3622, 0.1634 -0.5186 0.3622, 0.1595 -0.517 0.3622, 0.1569 -0.5158 0.3622, 0.1979 -0.5011 0.3622, 0.1979 -0.5012 0.3622, 0.3075 -0.517 0.3622, 0.1946 -0.5075 0.3622, 0.1902 -0.5125 0.3622, 0.1845 -0.5164 0.3622, 0.1926 -0.4721 0.3622, 0.2307 -0.4522 0.3622, 0.1876 -0.4676 0.3622, 0.1816 -0.4644 0.3622, 0.2911 -0.4626 0.3622, 0.2896 -0.4719 0.3622, 0.3075 -0.5011 0.3622, 0.2859 -0.4809 0.3622, 0.2722 -0.495 0.3622, 0.2635 -0.4991 0.3622, 0.2547 -0.5009 0.3622, 0.2733 -0.4589 0.3622, 0.272 -0.4534 0.3622, 0.2698 -0.4493 0.3622, 0.1281 -0.4493 0.3622, 0.2329 -0.4989 0.3622, 0.2318 -0.4978 0.3622, 0.2327 -0.4854 0.3622, 0.2344 -0.4842 0.3622, 0.2396 -0.4673 0.3622, 0.2364 -0.4835 0.3622, 0.2899 -0.4523 0.3622, 0.2911 -0.461 0.3622, 0.3075 -0.4493 0.3622, 0.2806 -0.4881 0.3622, 0.2797 -0.489 0.3622, 0.2379 -0.5009 0.3622, 0.2367 -0.5007 0.3622, 0.2348 -0.5001 0.3622, 0.1298 -0.4664 0.3622, 0.1332 -0.4722 0.3622, 0.1477 -0.4751 0.3622, 0.1383 -0.4774 0.3622, 0.1445 -0.4813 0.3622, 0.1582 -0.4657 0.3622, 0.1524 -0.4697 0.3622, 0.1274 -0.4551 0.3622, 0.1278 -0.4594 0.3622, 0.2296 -0.4921 0.3622, 0.2297 -0.4912 0.3622, 0.1997 -0.4884 0.3622, 0.2302 -0.489 0.3622, 0.2312 -0.4871 0.3622, 0.1645 -0.4633 0.3622, 0.1713 -0.4625 0.3622, 0.1747 -0.4627 0.3622, 0.2306 -0.496 0.3622, 0.2298 -0.4941 0.3622, 0.1996 -0.4941 0.3622, 0.1997 -0.4912 0.3622, 0.2384 -0.4832 0.3622, 0.2387 -0.4833 0.3622, 0.2396 -0.4835 0.3622, 0.2677 -0.4764 0.3622, 0.2708 -0.4719 0.3622, 0.2728 -0.4669 0.3622, 0.2734 -0.4613 0.3622, 0.2401 -0.4835 0.3622, 0.253 -0.4835 0.3622, 0.258 -0.4826 0.3622, 0.2631 -0.4802 0.3622, 0.2673 -0.4768 0.3622, 0.249 -0.4391 0.3622, 0.1307 -0.4418 0.3622, 0.1283 -0.4482 0.3622, 0.2512 -0.4391 0.3622, 0.2693 -0.4485 0.3622, 0.266 -0.4448 0.3622, 0.2616 -0.4417 0.3622, 0.2566 -0.4398 0.3622, 0.1337 -0.4376 0.3622, 0.171 -0.4309 0.3622, 0.1689 -0.4297 0.3622, 0.2441 -0.4242 0.3622, 0.2382 -0.4161 0.3622, 0.2351 -0.4132 0.3622, 0.227 -0.4078 0.3622, 0.218 -0.4045 0.3622, 0.1625 -0.4274 0.3622, 0.1559 -0.4266 0.3622, 0.153 -0.4268 0.3622, 0.2487 -0.4376 0.3622, 0.2479 -0.4336 0.3622, 0.2091 -0.4035 0.3622, 0.2076 -0.4036 0.3622, 0.1748 -0.4226 0.3622, 0.1982 -0.405 0.3622, 0.1811 -0.4149 0.3622, 0.1889 -0.4089 0.3622, 0.1459 -0.4284 0.3622, 0.1396 -0.4318 0.3622, 0.1346 -0.4362 0.3622, 0.2824 -0.4376 0.3622, 0.2866 -0.4436 0.3622, 0.2888 -0.4493 0.3622, 0.4563 -0.4962 0.3622, 0.4563 -0.5008 0.3622, 0.4601 -0.5011 0.3622, 0.4474 -0.5011 0.3622, 0.4399 -0.4827 0.3622, 0.4399 -0.4962 0.3622, 0.4474 -0.4827 0.3622, 0.4474 -0.4962 0.3622, 0.4542 -0.4827 0.3622, 0.4542 -0.4781 0.3622, 0.4399 -0.4653 0.3622, 0.4399 -0.4781 0.3622, 0.4474 -0.4653 0.3622, 0.4474 -0.4781 0.3622, 0.4554 -0.4653 0.3622, 0.4474 -0.5008 0.3622, 0.4348 -0.5008 0.3622, 0.4321 -0.5011 0.3622, 0.4348 -0.4607 0.3622, 0.3818 -0.4957 0.3622, 0.3823 -0.4959 0.3622, 0.3823 -0.4853 0.3622, 0.3814 -0.4844 0.3622, 0.3808 -0.4835 0.3622, 0.38 -0.4946 0.3622, 0.3783 -0.4493 0.3622, 0.3808 -0.4766 0.3622, 0.3817 -0.4752 0.3622, 0.3823 -0.4853 0.3622, 0.3823 -0.4493 0.3622, 0.3803 -0.482 0.3622, 0.38 -0.4799 0.3622, 0.3802 -0.4782 0.3622, 0.38 -0.4998 0.3622, 0.3783 -0.5011 0.3622, 0.3823 -0.5006 0.3622, 0.3823 -0.5011 0.3622, 0.3835 -0.501 0.3622, 0.3845 -0.5011 0.3622, 0.3877 -0.5014 0.3622, 0.3823 -0.517 0.3622, 0.4006 -0.517 0.3622, 0.3979 -0.4728 0.3622, 0.3979 -0.4776 0.3622, 0.3985 -0.4965 0.3622, 0.3976 -0.4978 0.3622, 0.3823 -0.4746 0.3622, 0.3832 -0.4738 0.3622, 0.3844 -0.473 0.3622, 0.3991 -0.4949 0.3622, 0.3871 -0.472 0.3622, 0.3911 -0.4715 0.3622, 0.4006 -0.4493 0.3622, 0.3947 -0.4718 0.3622, 0.3961 -0.4992 0.3622, 0.3949 -0.4999 0.3622, 0.3976 -0.4882 0.3622, 0.3985 -0.4895 0.3622, 0.399 -0.4909 0.3622, 0.3993 -0.493 0.3622, 0.3907 -0.4756 0.3622, 0.3892 -0.4757 0.3622, 0.3852 -0.4794 0.3622, 0.3878 -0.476 0.3622, 0.3867 -0.4766 0.3622, 0.3852 -0.4801 0.3622, 0.3854 -0.4809 0.3622, 0.3858 -0.4816 0.3622, 0.3863 -0.4821 0.3622, 0.388 -0.4832 0.3622, 0.3942 -0.476 0.3622, 0.3911 -0.4845 0.3622, 0.397 -0.4771 0.3622, 0.3931 -0.4853 0.3622, 0.3964 -0.4872 0.3622, 0.3859 -0.4773 0.3622, 0.3855 -0.478 0.3622, 0.3853 -0.4786 0.3622, 0.3849 -0.4969 0.3622, 0.3876 -0.4882 0.3622, 0.3846 -0.4868 0.3622, 0.3882 -0.4973 0.3622, 0.3885 -0.4973 0.3622, 0.3909 -0.4896 0.3622, 0.391 -0.497 0.3622, 0.3941 -0.4935 0.3622, 0.3941 -0.4928 0.3622, 0.3923 -0.4966 0.3622, 0.3928 -0.4963 0.3622, 0.3933 -0.4958 0.3622, 0.3938 -0.4951 0.3622, 0.394 -0.4944 0.3622, 0.3939 -0.4921 0.3622, 0.3935 -0.4914 0.3622, 0.3929 -0.4907 0.3622, 0.4976 -0.4376 0.3622, 0.4846 -0.4372 0.3622, 0.4788 -0.4372 0.3622, 0.4748 -0.4263 0.3622, 0.4601 -0.4263 0.3622, 0.4601 -0.4376 0.3622, 0.4693 -0.3972 0.3622, 0.4976 -0.3969 0.3622, 0.4601 -0.3969 0.3622, 0.4581 -0.4263 0.3622, 0.4542 -0.4372 0.3622, 0.4474 -0.4376 0.3622, 0.4485 -0.4372 0.3622, 0.4474 -0.3969 0.3622, 0.4601 -0.4069 0.3622, 0.4638 -0.3972 0.3622, 0.4137 -0.4372 0.3622, 0.4137 -0.3972 0.3622, 0.4052 -0.4018 0.3622, 0.4052 -0.3972 0.3622, 0.4251 -0.3972 0.3622, 0.4321 -0.3969 0.3622, 0.4006 -0.3969 0.3622, 0.4006 -0.3972 0.3622, 0.4006 -0.4376 0.3622, 0.4321 -0.4376 0.3622, 0.4061 -0.4372 0.3622, 0.4316 -0.4364 0.3622, 0.4247 -0.4372 0.3622, 0.4061 -0.4327 0.3622, 0.4452 -0.4239 0.3622, 0.4433 -0.4281 0.3622, 0.4416 -0.4039 0.3622, 0.4441 -0.4073 0.3622, 0.4403 -0.4316 0.3622, 0.4361 -0.4346 0.3622, 0.4321 -0.4362 0.3622, 0.4403 -0.4025 0.3622, 0.4312 -0.3979 0.3622, 0.4321 -0.3982 0.3622, 0.4361 -0.3996 0.3622, 0.4456 -0.4111 0.3622, 0.4463 -0.4167 0.3622, 0.4462 -0.4193 0.3622, 0.3898 -0.4192 0.3622, 0.3898 -0.4327 0.3622, 0.4006 -0.4192 0.3622, 0.4006 -0.4327 0.3622, 0.4041 -0.4192 0.3622, 0.4041 -0.4146 0.3622, 0.4006 -0.4146 0.3622, 0.4006 -0.4018 0.3622, 0.3898 -0.4146 0.3622, 0.3898 -0.4018 0.3622, 0.3846 -0.3972 0.3622, 0.3823 -0.3969 0.3622, 0.3846 -0.4372 0.3622, 0.3783 -0.4376 0.3622, 0.3766 -0.4036 0.3622, 0.3766 -0.4306 0.3622, 0.3762 -0.4033 0.3622, 0.3749 -0.4314 0.3622, 0.3749 -0.4029 0.3622, 0.3727 -0.4324 0.3622, 0.3682 -0.4332 0.3622, 0.354 -0.4264 0.3622, 0.356 -0.4291 0.3622, 0.3568 -0.4299 0.3622, 0.3594 -0.4317 0.3622, 0.3563 -0.4056 0.3622, 0.3541 -0.4087 0.3622, 0.359 -0.4034 0.3622, 0.3621 -0.4019 0.3622, 0.3721 -0.4018 0.3622, 0.3672 -0.4012 0.3622, 0.3521 -0.4192 0.3622, 0.3656 -0.4013 0.3622, 0.3521 -0.4177 0.3622, 0.3527 -0.4121 0.3622, 0.3622 -0.4328 0.3622, 0.3663 -0.4333 0.3622, 0.3527 -0.4232 0.3622, 0.3766 -0.3982 0.3622, 0.3783 -0.3969 0.3622, 0.3749 -0.3977 0.3622, 0.3749 -0.3969 0.3622, 0.3724 -0.397 0.3622, 0.3714 -0.3969 0.3622, 0.3672 -0.3965 0.3622, 0.3749 -0.0259 0.3622, 0.3671 -0.3965 0.3622, 0.346 -0.0259 0.3622, 0.3644 -0.3969 0.3622, 0.362 -0.4376 0.3622, 0.3588 -0.4369 0.3622, 0.346 -0.4376 0.3622, 0.355 -0.4351 0.3622, 0.3518 -0.4325 0.3622, 0.346 -0.3969 0.3622, 0.3495 -0.4062 0.3622, 0.3524 -0.4024 0.3622, 0.3511 -0.4317 0.3622, 0.3488 -0.4283 0.3622, 0.3473 -0.424 0.3622, 0.3534 -0.4015 0.3622, 0.3571 -0.3989 0.3622, 0.3613 -0.3972 0.3622, 0.3466 -0.418 0.3622, 0.3467 -0.4159 0.3622, 0.3476 -0.4107 0.3622, 0.3631 -0.4378 0.3622, 0.346 -0.4493 0.3622, 0.3655 -0.4379 0.3622, 0.3749 -0.4493 0.3622, 0.3691 -0.4376 0.3622, 0.3766 -0.4356 0.3622, 0.3759 -0.4359 0.3622, 0.3749 -0.4376 0.3622, 0.3749 -0.4363 0.3622, 0.3716 -0.4373 0.3622, 0.3454 -0.4962 0.3622, 0.3454 -0.5008 0.3622, 0.346 -0.5011 0.3622, 0.3239 -0.5008 0.3622, 0.3452 -0.5011 0.3622, 0.3452 -0.5008 0.3622, 0.3239 -0.4607 0.3622, 0.3445 -0.4607 0.3622, 0.3445 -0.4653 0.3622, 0.3452 -0.4493 0.3622, 0.3452 -0.4962 0.3622, 0.329 -0.4827 0.3622, 0.329 -0.4962 0.3622, 0.3434 -0.4827 0.3622, 0.3434 -0.4781 0.3622, 0.329 -0.4781 0.3622, 0.329 -0.4653 0.3622, 0.3564 -0.5011 0.3622, 0.3562 -0.5011 0.3622, 0.353 -0.4742 0.3622, 0.353 -0.479 0.3622, 0.3732 -0.4824 0.3622, 0.3732 -0.5008 0.3622, 0.3749 -0.5011 0.3622, 0.3682 -0.5008 0.3622, 0.3543 -0.5003 0.3622, 0.3527 -0.4992 0.3622, 0.3521 -0.4986 0.3622, 0.3679 -0.4724 0.3622, 0.3696 -0.4733 0.3622, 0.3511 -0.4971 0.3622, 0.3505 -0.4954 0.3622, 0.3502 -0.4931 0.3622, 0.3658 -0.4718 0.3622, 0.371 -0.4746 0.3622, 0.372 -0.4762 0.3622, 0.3728 -0.4785 0.3622, 0.3682 -0.4963 0.3622, 0.368 -0.4963 0.3622, 0.3672 -0.4976 0.3622, 0.3656 -0.4993 0.3622, 0.3502 -0.4925 0.3622, 0.3505 -0.4903 0.3622, 0.3512 -0.4886 0.3622, 0.3522 -0.4871 0.3622, 0.3538 -0.4858 0.3622, 0.3559 -0.4847 0.3622, 0.3565 -0.4769 0.3622, 0.3597 -0.4838 0.3622, 0.3641 -0.4758 0.3622, 0.3624 -0.4756 0.3622, 0.3596 -0.4758 0.3622, 0.354 -0.4736 0.3622, 0.3577 -0.4721 0.3622, 0.3629 -0.4715 0.3622, 0.3682 -0.4826 0.3622, 0.368 -0.4804 0.3622, 0.3675 -0.4786 0.3622, 0.3669 -0.4776 0.3622, 0.3661 -0.4768 0.3622, 0.3653 -0.4762 0.3622, 0.362 -0.5011 0.3622, 0.3617 -0.5012 0.3622, 0.3749 -0.517 0.3622, 0.346 -0.517 0.3622, 0.3593 -0.5014 0.3622, 0.3586 -0.5014 0.3622, 0.4242 -0.4722 0.3622, 0.4294 -0.4722 0.3622, 0.4321 -0.4493 0.3622, 0.4474 -0.4493 0.3622, 0.4474 -0.4607 0.3622, 0.4601 -0.4493 0.3622, 0.4554 -0.4607 0.3622, 0.413 -0.5011 0.3622, 0.4131 -0.5007 0.3622, 0.4019 -0.4722 0.3622, 0.4075 -0.4722 0.3622, 0.415 -0.4937 0.3622, 0.4163 -0.4937 0.3622, 0.4156 -0.496 0.3622, 0.4157 -0.496 0.3622, 0.416 -0.495 0.3622, 0.4321 -0.517 0.3622, 0.4083 -0.514 0.3622, 0.4062 -0.5142 0.3622, 0.405 -0.5142 0.3622, 0.4029 -0.5138 0.3622, 0.4029 -0.5094 0.3622, 0.404 -0.5097 0.3622, 0.4058 -0.5099 0.3622, 0.4139 -0.5097 0.3622, 0.4121 -0.5119 0.3622, 0.4067 -0.5098 0.3622, 0.4078 -0.5095 0.3622, 0.4088 -0.5089 0.3622, 0.412 -0.512 0.3622, 0.4102 -0.5132 0.3622, 0.4098 -0.5078 0.3622, 0.4109 -0.5059 0.3622, 0.4179 -0.5011 0.3622, 0.4164 -0.5051 0.3622, 0.4164 -0.5051 0.3622, 0.4601 -0.517 0.3622, 0.4474 -0.5906 0.3622, 0.4474 -0.517 0.3622, 0.4321 -0.5906 0.3622, 0.4006 -0.5906 0.3622, 0.3823 -0.5906 0.3622, 0.3783 -0.5906 0.3622, 0.3783 -0.517 0.3622, 0.3749 -0.5906 0.3622, 0.346 -0.5906 0.3622, 0.3452 -0.5906 0.3622, 0.3452 -0.517 0.3622, 0.3638 -0.5005 0.3622, 0.5626 -0.5011 0.3622, 0.4976 -0.5011 0.3622, 0.4638 -0.5008 0.3622, 0.4954 -0.4875 0.3622, 0.4934 -0.4916 0.3622, 0.4904 -0.4951 0.3622, 0.4943 -0.4708 0.3622, 0.4958 -0.4747 0.3622, 0.4976 -0.4493 0.3622, 0.4964 -0.4802 0.3622, 0.4963 -0.4828 0.3622, 0.4863 -0.4981 0.3622, 0.4817 -0.4999 0.3622, 0.4749 -0.5008 0.3622, 0.4638 -0.4607 0.3622, 0.4753 -0.4607 0.3622, 0.4814 -0.4614 0.3622, 0.4862 -0.4632 0.3622, 0.4904 -0.466 0.3622, 0.4918 -0.4674 0.3622, 0.5249 -0.4898 0.3622, 0.5082 -0.4898 0.3622, 0.529 -0.5008 0.3622, 0.5044 -0.5008 0.3622, 0.5347 -0.5008 0.3622, 0.4987 -0.5008 0.3622, 0.5139 -0.4607 0.3622, 0.5194 -0.4607 0.3622, 0.3452 -0.4376 0.3622, 0.3823 -0.4376 0.3622, 0.345 -0.4327 0.3622, 0.345 -0.4372 0.3622, 0.3239 -0.4372 0.3622, 0.329 -0.3972 0.3622, 0.3452 -0.3969 0.3622, 0.3239 -0.3972 0.3622, 0.329 -0.4327 0.3622, 0.4006 -0.4372 0.3622, 0.5626 -0.4493 0.3622, 0.5626 -0.4376 0.3622, 0.5626 -0.3969 0.3622, 0.5906 -0.5011 0.3622, 0.5906 -0.4493 0.3622, 0.5906 -0.4376 0.3622, 0.5906 -0.3969 0.3622, 0.3452 -0.0259 0.3622, 0.5906 -0.0259 0.3622, 0.5626 -0.0259 0.3622, 0.4976 -0.0259 0.3622, 0.4601 -0.0259 0.3622, 0.4474 -0.0259 0.3622, 0.4321 -0.0259 0.3622, 0.4006 -0.0259 0.3622, 0.3823 -0.0259 0.3622, 0.3783 -0.0259 0.3622, -0.3346 0.3937 0.3622, -0.3367 0.3784 0.3622, -0.3426 0.3642 0.3622, -0.3519 0.3519 0.3622, -0.3642 0.3426 0.3622, -0.3784 0.3367 0.3622, -0.3937 0.3346 0.3622, -0.409 0.3367 0.3622, -0.5906 -0.0259 0.3622, -0.4232 0.3426 0.3622, -0.4355 0.3519 0.3622, -0.5906 -0.517 0.3622, -0.5906 -0.5011 0.3622, -0.5906 -0.4493 0.3622, -0.5906 -0.4376 0.3622, -0.5906 -0.3969 0.3622, -0.4507 0.409 0.3622, -0.4448 0.4232 0.3622, -0.5906 0.5906 0.3622, -0.4355 0.4355 0.3622, -0.4232 0.4448 0.3622, -0.409 0.4507 0.3622, -0.3937 0.4528 0.3622, -0.1126 0.5906 0.3622, -0.3784 0.4507 0.3622, -0.3642 0.4448 0.3622, -0.3519 0.4355 0.3622, -0.3426 0.4232 0.3622, -0.3367 0.409 0.3622, -0.4448 0.3642 0.3622, -0.4507 0.3784 0.3622, -0.4528 0.3937 0.3622, 0.5906 0.5906 0.3622, 0.5626 0.5906 0.3622, 0.4976 0.5906 0.3622, 0.4601 0.5906 0.3622, 0.4474 0.5906 0.3622, 0.4321 0.5906 0.3622, 0.4006 0.5906 0.3622, 0.3823 0.5906 0.3622, 0.3783 0.5906 0.3622, 0.3749 0.5906 0.3622, 0.346 0.5906 0.3622, 0.3452 0.5906 0.3622, 0.3075 0.5906 0.3622, 0.5906 0.5906 0.0079, 0.5906 -0.5906 0.0079, -0.5906 0.5906 0.0079, -0.5906 -0.5906 0.0079
            ]
        }
        coordIndex [
            0,1,2,-1,3,0,4,-1,5,3,6,-1,7,8,9,-1,10,11,12,-1,13,14,15,-1,16,17,18,-1,18,17,19,-1,20,21,18,-1,18,21,22,-1,18,22,23,-1,23,24,18,-1,18,24,25,-1,18,25,16,-1,26,27,28,-1,28,27,29,-1,29,27,30,-1,29,30,31,-1,32,33,34,-1,26,28,35,-1,35,28,34,-1,35,34,36,-1,33,37,34,-1,34,37,38,-1,34,38,36,-1,36,38,39,-1,36,39,40,-1,40,39,41,-1,40,41,42,-1,15,14,43,-1,14,44,43,-1,43,44,45,-1,43,45,34,-1,34,45,46,-1,34,46,32,-1,47,48,49,-1,48,50,49,-1,49,50,51,-1,49,51,52,-1,52,53,49,-1,49,53,54,-1,49,54,15,-1,15,54,55,-1,15,55,13,-1,56,57,49,-1,49,57,58,-1,49,58,47,-1,59,60,61,-1,60,62,61,-1,61,62,63,-1,61,63,8,-1,8,63,64,-1,8,64,9,-1,9,64,65,-1,9,65,49,-1,49,65,66,-1,49,66,56,-1,67,68,69,-1,68,70,69,-1,69,70,71,-1,69,71,72,-1,73,74,75,-1,75,74,76,-1,77,78,79,-1,79,78,80,-1,81,82,79,-1,79,82,83,-1,84,85,74,-1,74,85,86,-1,74,86,87,-1,67,88,89,-1,90,91,92,-1,92,91,93,-1,94,95,96,-1,96,95,77,-1,80,97,79,-1,79,97,98,-1,79,98,81,-1,99,100,67,-1,67,100,101,-1,67,101,88,-1,102,103,104,-1,104,103,105,-1,104,105,106,-1,107,87,108,-1,108,87,109,-1,108,109,104,-1,104,109,110,-1,104,110,102,-1,111,112,113,-1,113,112,114,-1,113,114,92,-1,92,114,115,-1,92,115,90,-1,107,116,87,-1,87,116,117,-1,87,117,74,-1,74,117,118,-1,74,118,76,-1,89,119,67,-1,67,119,120,-1,67,120,121,-1,121,120,111,-1,121,111,122,-1,122,111,113,-1,93,123,92,-1,92,123,124,-1,92,124,125,-1,126,127,92,-1,92,127,128,-1,92,128,74,-1,74,128,129,-1,74,129,84,-1,125,130,92,-1,92,130,131,-1,92,131,132,-1,132,133,92,-1,92,133,134,-1,92,134,126,-1,135,136,137,-1,137,87,135,-1,135,87,86,-1,135,86,138,-1,138,86,139,-1,139,140,138,-1,138,140,141,-1,138,141,142,-1,143,144,145,-1,146,147,144,-1,147,148,144,-1,144,148,149,-1,144,149,150,-1,145,151,143,-1,143,151,152,-1,143,152,153,-1,136,135,143,-1,143,135,154,-1,143,154,144,-1,144,154,155,-1,144,155,146,-1,150,156,144,-1,144,156,157,-1,144,157,158,-1,158,157,159,-1,158,159,160,-1,160,159,161,-1,162,163,153,-1,153,163,164,-1,153,164,143,-1,17,165,19,-1,19,165,166,-1,19,166,96,-1,96,166,167,-1,96,167,94,-1,168,169,170,-1,170,169,171,-1,172,173,174,-1,174,173,175,-1,174,175,176,-1,176,175,168,-1,176,168,177,-1,178,179,180,-1,180,179,181,-1,180,181,182,-1,169,183,171,-1,171,183,184,-1,171,184,185,-1,185,184,186,-1,187,188,189,-1,190,191,192,-1,193,194,195,-1,187,189,192,-1,192,189,196,-1,192,196,190,-1,193,195,197,-1,191,198,192,-1,192,198,199,-1,192,199,193,-1,193,199,200,-1,193,200,194,-1,201,202,203,-1,203,202,204,-1,203,204,205,-1,205,204,206,-1,207,208,11,-1,11,208,209,-1,11,209,12,-1,210,211,12,-1,212,213,12,-1,195,214,197,-1,197,214,215,-1,197,215,216,-1,212,12,217,-1,216,218,197,-1,197,218,219,-1,197,219,220,-1,220,219,221,-1,220,221,210,-1,213,222,12,-1,12,222,223,-1,12,223,10,-1,224,225,211,-1,211,225,226,-1,211,226,12,-1,12,226,227,-1,12,227,217,-1,228,229,230,-1,230,229,231,-1,230,231,232,-1,230,233,228,-1,228,233,234,-1,228,234,235,-1,235,236,228,-1,228,236,237,-1,228,237,238,-1,238,237,239,-1,238,239,240,-1,240,239,241,-1,240,241,211,-1,211,241,242,-1,211,242,224,-1,243,244,232,-1,232,244,245,-1,232,245,230,-1,246,247,188,-1,188,247,248,-1,188,248,189,-1,246,249,247,-1,247,249,250,-1,247,250,251,-1,251,250,252,-1,251,253,254,-1,252,255,251,-1,251,255,256,-1,251,256,257,-1,257,258,251,-1,251,258,259,-1,251,259,253,-1,254,260,251,-1,251,260,261,-1,251,261,262,-1,263,264,265,-1,266,267,265,-1,265,267,268,-1,265,268,263,-1,264,263,269,-1,269,263,270,-1,269,270,271,-1,267,272,268,-1,268,272,273,-1,268,273,274,-1,274,273,275,-1,274,275,276,-1,276,275,277,-1,276,277,271,-1,271,277,278,-1,271,278,269,-1,279,280,281,-1,281,280,282,-1,283,284,280,-1,280,284,285,-1,280,285,282,-1,282,285,286,-1,287,288,289,-1,290,291,288,-1,288,291,279,-1,288,279,289,-1,289,279,292,-1,293,294,274,-1,295,296,276,-1,294,297,274,-1,274,297,298,-1,274,298,288,-1,288,298,299,-1,288,299,290,-1,295,276,300,-1,283,301,284,-1,284,301,302,-1,284,302,276,-1,276,302,303,-1,276,303,300,-1,296,304,276,-1,276,304,305,-1,276,305,274,-1,274,305,306,-1,274,306,293,-1,307,308,309,-1,309,308,310,-1,309,310,311,-1,310,292,311,-1,311,292,279,-1,311,279,312,-1,312,279,281,-1,312,281,313,-1,313,281,314,-1,313,314,315,-1,315,314,316,-1,286,285,317,-1,317,285,318,-1,317,318,319,-1,320,321,322,-1,322,321,323,-1,322,323,324,-1,324,323,325,-1,324,325,326,-1,326,325,327,-1,328,329,325,-1,325,329,330,-1,325,330,331,-1,332,333,334,-1,334,333,335,-1,336,337,338,-1,338,337,339,-1,338,339,340,-1,340,339,335,-1,340,335,341,-1,341,335,333,-1,331,342,325,-1,325,342,343,-1,325,343,327,-1,336,338,325,-1,325,338,344,-1,325,344,328,-1,345,346,347,-1,347,346,348,-1,347,348,349,-1,349,348,350,-1,351,352,353,-1,353,352,354,-1,353,354,355,-1,356,357,358,-1,358,357,359,-1,358,359,360,-1,361,362,363,-1,360,364,358,-1,358,364,365,-1,358,365,366,-1,363,367,361,-1,361,367,368,-1,361,368,369,-1,370,371,361,-1,361,371,372,-1,361,372,362,-1,373,374,375,-1,375,374,376,-1,375,376,377,-1,322,378,320,-1,320,378,379,-1,320,379,380,-1,380,379,381,-1,380,381,382,-1,383,384,385,-1,386,79,387,-1,385,384,387,-1,387,384,388,-1,387,388,386,-1,77,79,96,-1,96,79,386,-1,96,386,389,-1,390,391,392,-1,392,391,393,-1,392,393,374,-1,394,395,396,-1,396,395,393,-1,396,393,397,-1,397,393,391,-1,397,391,398,-1,398,391,399,-1,385,400,401,-1,393,383,374,-1,374,383,385,-1,374,385,402,-1,402,385,403,-1,404,405,406,-1,406,405,407,-1,401,408,385,-1,385,408,409,-1,385,409,410,-1,411,412,376,-1,410,413,385,-1,385,413,414,-1,385,414,415,-1,411,376,416,-1,412,417,376,-1,376,417,418,-1,376,418,419,-1,420,421,407,-1,407,421,422,-1,407,422,423,-1,415,424,385,-1,385,424,425,-1,385,425,403,-1,403,425,426,-1,403,426,427,-1,427,428,403,-1,403,428,429,-1,403,429,430,-1,430,429,431,-1,432,433,431,-1,431,433,434,-1,431,434,430,-1,402,435,374,-1,374,435,436,-1,374,436,376,-1,376,436,437,-1,376,437,416,-1,438,439,431,-1,431,439,440,-1,431,440,441,-1,441,442,431,-1,431,442,443,-1,431,443,432,-1,444,445,446,-1,446,445,447,-1,447,445,448,-1,447,448,449,-1,450,451,452,-1,451,185,452,-1,452,185,186,-1,452,186,453,-1,453,186,454,-1,453,454,455,-1,455,454,456,-1,455,456,182,-1,457,458,12,-1,12,458,459,-1,210,12,220,-1,220,12,459,-1,220,459,452,-1,452,459,460,-1,452,460,450,-1,450,460,461,-1,450,461,462,-1,463,464,461,-1,461,464,465,-1,461,465,462,-1,466,467,209,-1,209,467,468,-1,209,468,469,-1,469,470,209,-1,209,470,471,-1,209,471,12,-1,12,471,472,-1,12,472,473,-1,466,474,475,-1,473,476,12,-1,12,476,477,-1,12,477,478,-1,475,479,466,-1,466,479,480,-1,466,480,467,-1,478,481,12,-1,12,481,482,-1,12,482,457,-1,483,484,466,-1,466,484,485,-1,466,485,474,-1,5,486,487,-1,487,486,488,-1,487,488,489,-1,489,488,466,-1,489,466,490,-1,490,466,209,-1,490,209,491,-1,491,209,208,-1,491,208,492,-1,492,208,493,-1,492,493,494,-1,494,493,446,-1,494,446,495,-1,495,446,447,-1,495,447,496,-1,496,447,497,-1,496,497,61,-1,61,497,69,-1,61,69,59,-1,59,69,72,-1,449,400,447,-1,447,400,385,-1,447,385,497,-1,497,385,387,-1,497,387,69,-1,69,387,79,-1,69,79,67,-1,67,79,83,-1,67,83,99,-1,207,206,208,-1,208,206,204,-1,208,204,493,-1,493,204,202,-1,493,202,446,-1,446,202,406,-1,446,406,444,-1,444,406,407,-1,444,407,498,-1,498,407,423,-1,486,170,488,-1,488,170,171,-1,488,171,466,-1,466,171,185,-1,466,185,483,-1,483,185,451,-1,3,4,6,-1,6,4,499,-1,6,499,500,-1,201,192,202,-1,202,192,193,-1,202,193,406,-1,406,193,376,-1,406,376,404,-1,404,376,419,-1,181,177,182,-1,182,177,168,-1,182,168,455,-1,455,168,170,-1,455,170,501,-1,502,503,500,-1,500,503,504,-1,505,506,507,-1,507,506,508,-1,507,508,500,-1,500,508,509,-1,500,509,502,-1,504,510,500,-1,500,510,511,-1,500,511,512,-1,5,6,486,-1,486,6,500,-1,486,500,170,-1,170,500,512,-1,170,512,501,-1,501,513,455,-1,455,513,514,-1,455,514,507,-1,507,514,515,-1,507,515,516,-1,516,517,507,-1,507,517,518,-1,507,518,505,-1,519,520,521,-1,521,520,522,-1,523,521,499,-1,499,521,522,-1,499,522,500,-1,500,522,524,-1,500,524,507,-1,507,524,525,-1,507,525,526,-1,373,356,374,-1,374,356,358,-1,374,358,392,-1,392,358,527,-1,507,263,455,-1,455,263,268,-1,455,268,453,-1,453,268,274,-1,453,274,452,-1,452,274,288,-1,452,288,220,-1,220,288,287,-1,220,287,197,-1,197,287,528,-1,197,528,193,-1,193,528,320,-1,193,320,376,-1,376,320,380,-1,376,380,377,-1,377,380,382,-1,529,530,527,-1,527,530,531,-1,532,533,534,-1,534,533,18,-1,534,18,531,-1,531,18,19,-1,531,19,527,-1,527,19,96,-1,527,96,392,-1,392,96,389,-1,392,389,390,-1,366,370,358,-1,358,370,361,-1,358,361,527,-1,527,361,533,-1,527,533,529,-1,529,533,532,-1,529,532,535,-1,289,536,287,-1,287,536,319,-1,287,319,528,-1,528,319,318,-1,528,318,320,-1,320,318,346,-1,320,346,321,-1,321,346,345,-1,523,499,526,-1,526,499,537,-1,526,537,507,-1,507,537,538,-1,507,538,263,-1,263,538,539,-1,263,539,270,-1,0,2,4,-1,4,2,540,-1,4,540,499,-1,499,540,541,-1,499,541,537,-1,537,541,542,-1,537,542,538,-1,538,542,543,-1,538,543,539,-1,369,355,361,-1,361,355,354,-1,361,354,533,-1,533,354,544,-1,533,544,18,-1,18,544,29,-1,18,29,20,-1,20,29,31,-1,543,545,539,-1,539,545,546,-1,539,546,270,-1,270,546,547,-1,270,547,271,-1,271,547,548,-1,271,548,276,-1,276,548,549,-1,276,549,284,-1,284,549,550,-1,284,550,285,-1,285,550,551,-1,285,551,318,-1,318,551,552,-1,318,552,346,-1,346,552,553,-1,346,553,348,-1,348,553,352,-1,348,352,350,-1,350,352,351,-1,554,555,28,-1,28,555,556,-1,556,557,28,-1,28,557,558,-1,28,558,559,-1,560,561,562,-1,562,561,563,-1,562,563,564,-1,7,9,565,-1,565,9,49,-1,565,49,566,-1,566,49,15,-1,566,15,567,-1,567,15,43,-1,567,43,568,-1,568,43,34,-1,568,34,569,-1,569,34,28,-1,569,28,562,-1,562,28,559,-1,562,559,560,-1,570,571,572,-1,572,571,573,-1,572,573,574,-1,574,575,572,-1,572,575,576,-1,572,576,577,-1,577,576,578,-1,577,578,579,-1,579,580,577,-1,577,580,581,-1,577,581,582,-1,564,583,562,-1,562,583,584,-1,562,584,572,-1,572,584,585,-1,572,585,570,-1,545,586,546,-1,546,586,587,-1,546,587,547,-1,547,587,588,-1,547,588,548,-1,548,588,589,-1,548,589,549,-1,549,589,590,-1,549,590,550,-1,550,590,591,-1,550,591,551,-1,551,591,592,-1,551,592,552,-1,552,592,593,-1,552,593,553,-1,553,593,594,-1,553,594,352,-1,352,594,595,-1,352,595,354,-1,354,595,596,-1,354,596,544,-1,544,596,597,-1,544,597,29,-1,29,597,598,-1,29,598,28,-1,28,598,577,-1,28,577,554,-1,554,577,582,-1,586,1,599,-1,599,1,600,-1,572,586,601,-1,601,586,599,-1,7,572,602,-1,602,572,601,-1,1,7,600,-1,600,7,602,-1,602,601,600,-1,600,601,599,-1,
        ]
    }
}
Shape{
    appearance Appearance {
        material  Material {
            diffuseColor 0.6666666666666666 0.6666666666666666 0.6666666666666666
            specularColor 0.3333333333333333 0.3333333333333333 0.3333333333333333
            ambientIntensity 0.6667
            transparency 0.0
            shininess 0.5
        }
    }
    geometry IndexedFaceSet {
        ccw TRUE
        solid FALSE
        coord DEF co Coordinate {
            point [
                -0.3346 0.3937 0.3583, -0.3346 0.3937 0.3622, -0.3367 0.409 0.3583, -0.3367 0.409 0.3622, -0.3426 0.4232 0.3583, -0.3426 0.4232 0.3622, -0.3519 0.4355 0.3583, -0.3519 0.4355 0.3622, -0.3642 0.4448 0.3583, -0.3642 0.4448 0.3622, -0.3784 0.4507 0.3583, -0.3784 0.4507 0.3622, -0.3937 0.4528 0.3583, -0.3937 0.4528 0.3622, -0.409 0.4507 0.3583, -0.409 0.4507 0.3622, -0.4232 0.4448 0.3583, -0.4232 0.4448 0.3622, -0.4355 0.4355 0.3583, -0.4355 0.4355 0.3622, -0.4448 0.4232 0.3583, -0.4448 0.4232 0.3622, -0.4507 0.409 0.3583, -0.4507 0.409 0.3622, -0.4528 0.3937 0.3583, -0.4528 0.3937 0.3622, -0.4507 0.3784 0.3583, -0.4507 0.3784 0.3622, -0.4448 0.3642 0.3583, -0.4448 0.3642 0.3622, -0.4355 0.3519 0.3583, -0.4355 0.3519 0.3622, -0.4232 0.3426 0.3583, -0.4232 0.3426 0.3622, -0.409 0.3367 0.3583, -0.409 0.3367 0.3622, -0.3937 0.3346 0.3583, -0.3937 0.3346 0.3622, -0.3784 0.3367 0.3583, -0.3784 0.3367 0.3622, -0.3642 0.3426 0.3583, -0.3642 0.3426 0.3622, -0.3519 0.3519 0.3583, -0.3519 0.3519 0.3622, -0.3426 0.3642 0.3583, -0.3426 0.3642 0.3622, -0.3367 0.3784 0.3583, -0.3367 0.3784 0.3622, -0.3937 0.3937 0.3583
            ]
        }
        coordIndex [
            0,1,2,-1,2,1,3,-1,2,3,4,-1,4,3,5,-1,4,5,6,-1,6,5,7,-1,6,7,8,-1,8,7,9,-1,8,9,10,-1,10,9,11,-1,10,11,12,-1,12,11,13,-1,12,13,14,-1,14,13,15,-1,14,15,16,-1,16,15,17,-1,16,17,18,-1,18,17,19,-1,18,19,20,-1,20,19,21,-1,20,21,22,-1,22,21,23,-1,22,23,24,-1,24,23,25,-1,24,25,26,-1,26,25,27,-1,26,27,28,-1,28,27,29,-1,28,29,30,-1,30,29,31,-1,30,31,32,-1,32,31,33,-1,32,33,34,-1,34,33,35,-1,34,35,36,-1,36,35,37,-1,36,37,38,-1,38,37,39,-1,38,39,40,-1,40,39,41,-1,40,41,42,-1,42,41,43,-1,42,43,44,-1,44,43,45,-1,44,45,46,-1,46,45,47,-1,46,47,0,-1,0,47,1,-1,44,46,48,-1,48,46,0,-1,48,0,2,-1,38,40,48,-1,48,40,42,-1,48,42,44,-1,32,34,48,-1,48,34,36,-1,48,36,38,-1,26,28,48,-1,48,28,30,-1,48,30,32,-1,20,22,48,-1,48,22,24,-1,48,24,26,-1,14,16,48,-1,48,16,18,-1,48,18,20,-1,8,10,48,-1,48,10,12,-1,48,12,14,-1,2,4,48,-1,48,4,6,-1,48,6,8,-1,
        ]
    }
}
Shape{
    appearance Appearance {
        material  Material {
            diffuseColor 1.0 1.0 1.0
            specularColor 0.5019607843137255 0.5019607843137255 0.5019607843137255
            ambientIntensity 1.0
            transparency 0.0
            shininess 0.5
        }
    }
    geometry IndexedFaceSet {
        ccw TRUE
        solid FALSE
        coord DEF co Coordinate {
            point [
                0.345 -0.4327 0.3626, 0.345 -0.4372 0.3626, 0.345 -0.4327 0.3622, 0.345 -0.4372 0.3622, 0.329 -0.4327 0.3626, 0.329 -0.4327 0.3622, 0.329 -0.3972 0.3626, 0.329 -0.3972 0.3622, 0.3239 -0.3972 0.3626, 0.3239 -0.3972 0.3622, 0.3239 -0.4372 0.3626, 0.3239 -0.4372 0.3622, 0.3749 -0.4363 0.3622, 0.3759 -0.4359 0.3626, 0.3716 -0.4373 0.3622, 0.3716 -0.4373 0.3626, 0.3691 -0.4376 0.3622, 0.3655 -0.4379 0.3626, 0.3655 -0.4379 0.3622, 0.3759 -0.4359 0.3622, 0.3766 -0.4356 0.3622, 0.3766 -0.4356 0.3626, 0.3766 -0.4306 0.3626, 0.3766 -0.4306 0.3622, 0.3749 -0.4314 0.3622, 0.3727 -0.4324 0.3626, 0.3727 -0.4324 0.3622, 0.3682 -0.4332 0.3622, 0.3682 -0.4332 0.3626, 0.3663 -0.4333 0.3622, 0.3663 -0.4333 0.3626, 0.3622 -0.4328 0.3622, 0.3622 -0.4328 0.3626, 0.3594 -0.4317 0.3622, 0.3594 -0.4317 0.3626, 0.3568 -0.4299 0.3622, 0.3568 -0.4299 0.3626, 0.356 -0.4291 0.3622, 0.356 -0.4291 0.3626, 0.354 -0.4264 0.3622, 0.354 -0.4264 0.3626, 0.3527 -0.4232 0.3622, 0.3527 -0.4232 0.3626, 0.3521 -0.4192 0.3622, 0.3521 -0.4192 0.3626, 0.3521 -0.4177 0.3622, 0.3521 -0.4177 0.3626, 0.3527 -0.4121 0.3622, 0.3527 -0.4121 0.3626, 0.3541 -0.4087 0.3622, 0.3541 -0.4087 0.3626, 0.3563 -0.4056 0.3622, 0.3563 -0.4056 0.3626, 0.359 -0.4034 0.3622, 0.359 -0.4034 0.3626, 0.3621 -0.4019 0.3622, 0.3621 -0.4019 0.3626, 0.3656 -0.4013 0.3622, 0.3656 -0.4013 0.3626, 0.3672 -0.4012 0.3622, 0.3672 -0.4012 0.3626, 0.3766 -0.4036 0.3622, 0.3766 -0.4036 0.3626, 0.3762 -0.4033 0.3626, 0.3721 -0.4018 0.3622, 0.3721 -0.4018 0.3626, 0.3749 -0.4029 0.3622, 0.3762 -0.4033 0.3622, 0.3766 -0.3982 0.3626, 0.3766 -0.3982 0.3622, 0.3671 -0.3965 0.3622, 0.3671 -0.3965 0.3626, 0.3672 -0.3965 0.3626, 0.3749 -0.3977 0.3622, 0.3724 -0.397 0.3626, 0.3724 -0.397 0.3622, 0.3714 -0.3969 0.3622, 0.3672 -0.3965 0.3622, 0.3644 -0.3969 0.3622, 0.3613 -0.3972 0.3626, 0.3613 -0.3972 0.3622, 0.3571 -0.3989 0.3622, 0.3571 -0.3989 0.3626, 0.3534 -0.4015 0.3622, 0.3534 -0.4015 0.3626, 0.3524 -0.4024 0.3622, 0.3524 -0.4024 0.3626, 0.3495 -0.4062 0.3622, 0.3495 -0.4062 0.3626, 0.3476 -0.4107 0.3622, 0.3476 -0.4107 0.3626, 0.3467 -0.4159 0.3622, 0.3467 -0.4159 0.3626, 0.3466 -0.418 0.3622, 0.3466 -0.418 0.3626, 0.3473 -0.424 0.3622, 0.3473 -0.424 0.3626, 0.3488 -0.4283 0.3622, 0.3488 -0.4283 0.3626, 0.3511 -0.4317 0.3622, 0.3511 -0.4317 0.3626, 0.3518 -0.4325 0.3622, 0.3518 -0.4325 0.3626, 0.3588 -0.4369 0.3622, 0.355 -0.4351 0.3626, 0.355 -0.4351 0.3622, 0.362 -0.4376 0.3622, 0.3631 -0.4378 0.3626, 0.3588 -0.4369 0.3626, 0.3631 -0.4378 0.3622, 0.4061 -0.4327 0.3626, 0.4061 -0.4372 0.3626, 0.4061 -0.4327 0.3622, 0.4061 -0.4372 0.3622, 0.3898 -0.4327 0.3622, 0.3898 -0.4327 0.3626, 0.4006 -0.4327 0.3622, 0.3898 -0.4192 0.3626, 0.3898 -0.4192 0.3622, 0.4041 -0.4192 0.3622, 0.4041 -0.4192 0.3626, 0.4006 -0.4192 0.3622, 0.4041 -0.4146 0.3626, 0.4041 -0.4146 0.3622, 0.3898 -0.4146 0.3622, 0.3898 -0.4146 0.3626, 0.4006 -0.4146 0.3622, 0.3898 -0.4018 0.3626, 0.3898 -0.4018 0.3622, 0.4052 -0.4018 0.3622, 0.4052 -0.4018 0.3626, 0.4006 -0.4018 0.3622, 0.4052 -0.3972 0.3626, 0.4052 -0.3972 0.3622, 0.3846 -0.3972 0.3622, 0.3846 -0.3972 0.3626, 0.4006 -0.3972 0.3622, 0.3846 -0.4372 0.3626, 0.3846 -0.4372 0.3622, 0.4006 -0.4372 0.3622, 0.4386 -0.426 0.3626, 0.4366 -0.4285 0.3626, 0.4403 -0.4316 0.3626, 0.4359 -0.4292 0.3626, 0.4361 -0.4346 0.3626, 0.4332 -0.4309 0.3626, 0.4316 -0.4364 0.3626, 0.4298 -0.4321 0.3626, 0.4247 -0.4372 0.3626, 0.4247 -0.4327 0.3626, 0.4137 -0.4372 0.3626, 0.4189 -0.4327 0.3626, 0.4137 -0.3972 0.3626, 0.4189 -0.4018 0.3626, 0.4251 -0.3972 0.3626, 0.4249 -0.4018 0.3626, 0.4312 -0.3979 0.3626, 0.4301 -0.4024 0.3626, 0.4361 -0.3996 0.3626, 0.4336 -0.4036 0.3626, 0.4403 -0.4025 0.3626, 0.4365 -0.4056 0.3626, 0.4416 -0.4039 0.3626, 0.4378 -0.4069 0.3626, 0.4441 -0.4073 0.3626, 0.4393 -0.4092 0.3626, 0.4456 -0.4111 0.3626, 0.4404 -0.4122 0.3626, 0.4463 -0.4167 0.3626, 0.4409 -0.4169 0.3626, 0.4462 -0.4193 0.3626, 0.4407 -0.4194 0.3626, 0.4452 -0.4239 0.3626, 0.44 -0.4231 0.3626, 0.4433 -0.4281 0.3626, 0.4247 -0.4372 0.3622, 0.4137 -0.4372 0.3622, 0.4403 -0.4316 0.3622, 0.4316 -0.4364 0.3622, 0.4321 -0.4362 0.3622, 0.4361 -0.4346 0.3622, 0.4433 -0.4281 0.3622, 0.4452 -0.4239 0.3622, 0.4462 -0.4193 0.3622, 0.4463 -0.4167 0.3622, 0.4456 -0.4111 0.3622, 0.4441 -0.4073 0.3622, 0.4416 -0.4039 0.3622, 0.4403 -0.4025 0.3622, 0.4361 -0.3996 0.3622, 0.4321 -0.3982 0.3622, 0.4312 -0.3979 0.3622, 0.4251 -0.3972 0.3622, 0.4137 -0.3972 0.3622, 0.4249 -0.4018 0.3622, 0.4189 -0.4018 0.3622, 0.4189 -0.4327 0.3622, 0.4247 -0.4327 0.3622, 0.4366 -0.4285 0.3622, 0.4359 -0.4292 0.3622, 0.4332 -0.4309 0.3622, 0.4298 -0.4321 0.3622, 0.4409 -0.4169 0.3622, 0.4407 -0.4194 0.3622, 0.44 -0.4231 0.3622, 0.4386 -0.426 0.3622, 0.4365 -0.4056 0.3622, 0.4378 -0.4069 0.3622, 0.4393 -0.4092 0.3622, 0.4404 -0.4122 0.3622, 0.4301 -0.4024 0.3622, 0.4336 -0.4036 0.3622
            ]
        }
        coordIndex [
            0,1,2,-1,2,1,3,-1,4,0,5,-1,5,0,2,-1,6,4,7,-1,7,4,5,-1,8,6,9,-1,9,6,7,-1,10,8,11,-1,11,8,9,-1,1,10,3,-1,3,10,11,-1,6,8,4,-1,4,8,10,-1,4,10,0,-1,0,10,1,-1,12,13,14,-1,14,13,15,-1,14,15,16,-1,16,15,17,-1,16,17,18,-1,12,19,13,-1,13,19,20,-1,13,20,21,-1,22,21,23,-1,23,21,20,-1,22,23,24,-1,22,24,25,-1,24,26,25,-1,25,26,27,-1,25,27,28,-1,28,27,29,-1,28,29,30,-1,30,29,31,-1,30,31,32,-1,32,31,33,-1,32,33,34,-1,34,33,35,-1,34,35,36,-1,36,35,37,-1,36,37,38,-1,38,37,39,-1,38,39,40,-1,40,39,41,-1,40,41,42,-1,42,41,43,-1,42,43,44,-1,44,43,45,-1,44,45,46,-1,46,45,47,-1,46,47,48,-1,48,47,49,-1,48,49,50,-1,50,49,51,-1,50,51,52,-1,52,51,53,-1,52,53,54,-1,54,53,55,-1,54,55,56,-1,56,55,57,-1,56,57,58,-1,58,57,59,-1,58,59,60,-1,61,62,63,-1,60,59,64,-1,60,64,65,-1,65,64,66,-1,65,66,63,-1,63,66,67,-1,63,67,61,-1,68,62,69,-1,69,62,61,-1,70,71,72,-1,68,69,73,-1,68,73,74,-1,73,75,74,-1,74,75,76,-1,74,76,72,-1,72,76,77,-1,72,77,70,-1,71,70,78,-1,71,78,79,-1,78,80,79,-1,79,80,81,-1,79,81,82,-1,82,81,83,-1,82,83,84,-1,84,83,85,-1,84,85,86,-1,86,85,87,-1,86,87,88,-1,88,87,89,-1,88,89,90,-1,90,89,91,-1,90,91,92,-1,92,91,93,-1,92,93,94,-1,94,93,95,-1,94,95,96,-1,96,95,97,-1,96,97,98,-1,98,97,99,-1,98,99,100,-1,100,99,101,-1,100,101,102,-1,103,104,105,-1,105,104,102,-1,105,102,101,-1,106,107,103,-1,103,107,108,-1,103,108,104,-1,106,109,107,-1,107,109,18,-1,107,18,17,-1,63,62,68,-1,54,84,52,-1,52,84,86,-1,52,86,50,-1,50,86,88,-1,50,88,48,-1,63,68,65,-1,65,68,74,-1,65,74,60,-1,60,74,72,-1,60,72,58,-1,58,72,71,-1,58,71,56,-1,56,71,79,-1,56,79,54,-1,54,79,82,-1,54,82,84,-1,21,22,13,-1,13,22,25,-1,13,25,15,-1,15,25,28,-1,15,28,17,-1,17,28,30,-1,17,30,107,-1,107,30,32,-1,107,32,108,-1,108,32,34,-1,108,34,104,-1,104,34,36,-1,104,36,102,-1,102,36,38,-1,102,38,100,-1,100,38,40,-1,100,40,98,-1,94,46,92,-1,92,46,48,-1,92,48,90,-1,90,48,88,-1,98,40,96,-1,96,40,42,-1,96,42,94,-1,94,42,44,-1,94,44,46,-1,110,111,112,-1,112,111,113,-1,114,115,116,-1,116,115,110,-1,116,110,112,-1,117,115,118,-1,118,115,114,-1,119,120,121,-1,121,120,117,-1,121,117,118,-1,122,120,123,-1,123,120,119,-1,124,125,126,-1,126,125,122,-1,126,122,123,-1,127,125,128,-1,128,125,124,-1,129,130,131,-1,131,130,127,-1,131,127,128,-1,132,130,133,-1,133,130,129,-1,134,135,136,-1,136,135,132,-1,136,132,133,-1,137,135,138,-1,138,135,134,-1,113,111,139,-1,139,111,137,-1,139,137,138,-1,137,111,110,-1,110,115,137,-1,137,115,117,-1,137,117,135,-1,130,132,127,-1,127,132,135,-1,127,135,125,-1,125,135,117,-1,125,117,122,-1,122,117,120,-1,140,141,142,-1,142,141,143,-1,142,143,144,-1,144,143,145,-1,144,145,146,-1,146,145,147,-1,146,147,148,-1,148,147,149,-1,148,149,150,-1,150,149,151,-1,150,151,152,-1,152,151,153,-1,152,153,154,-1,154,153,155,-1,154,155,156,-1,156,155,157,-1,156,157,158,-1,158,157,159,-1,158,159,160,-1,160,159,161,-1,160,161,162,-1,162,161,163,-1,162,163,164,-1,164,163,165,-1,164,165,166,-1,166,165,167,-1,166,167,168,-1,168,167,169,-1,168,169,170,-1,170,169,171,-1,170,171,172,-1,172,171,173,-1,172,173,174,-1,174,173,140,-1,174,140,142,-1,148,150,175,-1,175,150,176,-1,177,142,144,-1,148,175,178,-1,148,178,146,-1,146,178,179,-1,146,179,144,-1,144,179,180,-1,144,180,177,-1,142,177,181,-1,142,181,174,-1,174,181,182,-1,174,182,172,-1,172,182,183,-1,172,183,170,-1,170,183,184,-1,170,184,168,-1,168,184,185,-1,168,185,166,-1,166,185,186,-1,166,186,164,-1,164,186,187,-1,164,187,162,-1,162,187,188,-1,162,188,160,-1,160,188,189,-1,190,156,189,-1,189,156,158,-1,189,158,160,-1,190,191,156,-1,156,191,192,-1,156,192,154,-1,152,154,193,-1,193,154,192,-1,150,152,176,-1,176,152,193,-1,155,153,194,-1,194,153,195,-1,153,151,195,-1,195,151,196,-1,151,149,196,-1,196,149,197,-1,141,198,199,-1,141,199,143,-1,143,199,200,-1,143,200,145,-1,145,200,201,-1,145,201,147,-1,147,201,197,-1,147,197,149,-1,169,202,203,-1,169,203,171,-1,171,203,204,-1,171,204,173,-1,173,204,205,-1,173,205,140,-1,140,205,198,-1,140,198,141,-1,161,206,207,-1,161,207,163,-1,163,207,208,-1,163,208,165,-1,165,208,209,-1,165,209,167,-1,167,209,202,-1,167,202,169,-1,155,194,210,-1,155,210,157,-1,157,210,211,-1,157,211,159,-1,159,211,206,-1,159,206,161,-1,
        ]
    }
}
Shape{
    appearance Appearance {
        material  Material {
            diffuseColor 0.25098039215686274 0.25098039215686274 0.25098039215686274
            specularColor 0.12549019607843137 0.12549019607843137 0.12549019607843137
            ambientIntensity 0.251
            transparency 0.0
            shininess 0.5
        }
    }
    geometry IndexedFaceSet {
        ccw TRUE
        solid FALSE
        coord DEF co Coordinate {
            point [
                0.4189 -0.4018 0.3622, 0.4189 -0.4327 0.3622, 0.4249 -0.4018 0.3622, 0.4247 -0.4327 0.3622, 0.4298 -0.4321 0.3622, 0.4332 -0.4309 0.3622, 0.4359 -0.4292 0.3622, 0.4366 -0.4285 0.3622, 0.4386 -0.426 0.3622, 0.44 -0.4231 0.3622, 0.4407 -0.4194 0.3622, 0.4409 -0.4169 0.3622, 0.4404 -0.4122 0.3622, 0.4393 -0.4092 0.3622, 0.4378 -0.4069 0.3622, 0.4365 -0.4056 0.3622, 0.4301 -0.4024 0.3622, 0.4336 -0.4036 0.3622
            ]
        }
        coordIndex [
            0,1,2,-1,2,1,3,-1,2,3,4,-1,4,5,2,-1,2,5,6,-1,2,6,7,-1,7,8,2,-1,2,8,9,-1,2,9,10,-1,10,11,2,-1,2,11,12,-1,2,12,13,-1,13,14,2,-1,2,14,15,-1,2,15,16,-1,16,15,17,-1,
        ]
    }
}
Shape{
    appearance Appearance {
        material  Material {
            diffuseColor 1.0 1.0 1.0
            specularColor 0.5019607843137255 0.5019607843137255 0.5019607843137255
            ambientIntensity 1.0
            transparency 0.0
            shininess 0.5
        }
    }
    geometry IndexedFaceSet {
        ccw TRUE
        solid FALSE
        coord DEF co Coordinate {
            point [
                0.4597 -0.4218 0.3626, 0.4581 -0.4263 0.3626, 0.4732 -0.4218 0.3626, 0.4748 -0.4263 0.3626, 0.4657 -0.4051 0.3626, 0.4638 -0.3972 0.3626, 0.4485 -0.4372 0.3626, 0.4542 -0.4372 0.3626, 0.4661 -0.4039 0.3626, 0.4664 -0.4023 0.3626, 0.4693 -0.3972 0.3626, 0.4665 -0.4023 0.3626, 0.4668 -0.404 0.3626, 0.4671 -0.4051 0.3626, 0.4846 -0.4372 0.3626, 0.4788 -0.4372 0.3626, 0.4693 -0.3972 0.3622, 0.4846 -0.4372 0.3622, 0.4638 -0.3972 0.3622, 0.4485 -0.4372 0.3622, 0.4601 -0.4069 0.3622, 0.4542 -0.4372 0.3622, 0.4581 -0.4263 0.3622, 0.4748 -0.4263 0.3622, 0.4601 -0.4263 0.3622, 0.4788 -0.4372 0.3622, 0.4597 -0.4218 0.3622, 0.4732 -0.4218 0.3622, 0.4671 -0.4051 0.3622, 0.4665 -0.4023 0.3622, 0.4668 -0.404 0.3622, 0.4664 -0.4023 0.3622, 0.4657 -0.4051 0.3622, 0.4661 -0.4039 0.3622
            ]
        }
        coordIndex [
            0,1,2,-1,2,1,3,-1,4,5,0,-1,0,5,6,-1,0,6,1,-1,1,6,7,-1,4,8,5,-1,5,8,9,-1,5,9,10,-1,10,9,11,-1,10,11,12,-1,12,13,10,-1,10,13,2,-1,10,2,14,-1,14,2,3,-1,14,3,15,-1,10,14,16,-1,16,14,17,-1,5,10,18,-1,18,10,16,-1,19,6,20,-1,20,6,5,-1,20,5,18,-1,7,6,21,-1,21,6,19,-1,1,7,22,-1,22,7,21,-1,23,3,24,-1,24,3,1,-1,24,1,22,-1,15,3,25,-1,25,3,23,-1,14,15,17,-1,17,15,25,-1,0,2,26,-1,26,2,27,-1,2,13,27,-1,27,13,28,-1,11,29,30,-1,11,30,12,-1,12,30,28,-1,12,28,13,-1,11,9,29,-1,29,9,31,-1,4,32,33,-1,4,33,8,-1,8,33,31,-1,8,31,9,-1,4,0,32,-1,32,0,26,-1,
        ]
    }
}
Shape{
    appearance Appearance {
        material  Material {
            diffuseColor 0.25098039215686274 0.25098039215686274 0.25098039215686274
            specularColor 0.12549019607843137 0.12549019607843137 0.12549019607843137
            ambientIntensity 0.251
            transparency 0.0
            shininess 0.5
        }
    }
    geometry IndexedFaceSet {
        ccw TRUE
        solid FALSE
        coord DEF co Coordinate {
            point [
                0.4665 -0.4023 0.3622, 0.4664 -0.4023 0.3622, 0.4668 -0.404 0.3622, 0.4661 -0.4039 0.3622, 0.4671 -0.4051 0.3622, 0.4657 -0.4051 0.3622, 0.4732 -0.4218 0.3622, 0.4597 -0.4218 0.3622
            ]
        }
        coordIndex [
            0,1,2,-1,2,1,3,-1,2,3,4,-1,4,3,5,-1,4,5,6,-1,6,5,7,-1,
        ]
    }
}
Shape{
    appearance Appearance {
        material  Material {
            diffuseColor 1.0 1.0 1.0
            specularColor 0.5019607843137255 0.5019607843137255 0.5019607843137255
            ambientIntensity 1.0
            transparency 0.0
            shininess 0.5
        }
    }
    geometry IndexedFaceSet {
        ccw TRUE
        solid FALSE
        coord DEF co Coordinate {
            point [
                0.3454 -0.4962 0.3626, 0.3454 -0.5008 0.3626, 0.3454 -0.4962 0.3622, 0.3454 -0.5008 0.3622, 0.329 -0.4962 0.3622, 0.329 -0.4962 0.3626, 0.3452 -0.4962 0.3622, 0.329 -0.4827 0.3626, 0.329 -0.4827 0.3622, 0.3434 -0.4827 0.3626, 0.3434 -0.4827 0.3622, 0.3434 -0.4781 0.3626, 0.3434 -0.4781 0.3622, 0.329 -0.4781 0.3626, 0.329 -0.4781 0.3622, 0.329 -0.4653 0.3626, 0.329 -0.4653 0.3622, 0.3445 -0.4653 0.3626, 0.3445 -0.4653 0.3622, 0.3445 -0.4607 0.3626, 0.3445 -0.4607 0.3622, 0.3239 -0.4607 0.3626, 0.3239 -0.4607 0.3622, 0.3239 -0.5008 0.3626, 0.3239 -0.5008 0.3622, 0.3452 -0.5008 0.3622, 0.3615 -0.4873 0.3626, 0.3682 -0.4864 0.3626, 0.3732 -0.4824 0.3626, 0.3682 -0.5008 0.3626, 0.3732 -0.5008 0.3626, 0.3682 -0.4963 0.3626, 0.3682 -0.4826 0.3626, 0.3573 -0.4886 0.3626, 0.3585 -0.488 0.3626, 0.368 -0.4963 0.3626, 0.3655 -0.4955 0.3626, 0.3672 -0.4976 0.3626, 0.3641 -0.4965 0.3626, 0.3682 -0.4891 0.3626, 0.3679 -0.4916 0.3626, 0.3672 -0.4934 0.3626, 0.366 -0.495 0.3626, 0.3589 -0.4971 0.3626, 0.3593 -0.5014 0.3626, 0.3606 -0.4973 0.3626, 0.3617 -0.5012 0.3626, 0.3626 -0.4971 0.3626, 0.3638 -0.5005 0.3626, 0.3656 -0.4993 0.3626, 0.368 -0.4804 0.3626, 0.3728 -0.4785 0.3626, 0.3675 -0.4786 0.3626, 0.372 -0.4762 0.3626, 0.3669 -0.4776 0.3626, 0.371 -0.4746 0.3626, 0.3661 -0.4768 0.3626, 0.3696 -0.4733 0.3626, 0.3653 -0.4762 0.3626, 0.3679 -0.4724 0.3626, 0.3641 -0.4758 0.3626, 0.3658 -0.4718 0.3626, 0.3624 -0.4756 0.3626, 0.3629 -0.4715 0.3626, 0.3596 -0.4758 0.3626, 0.3577 -0.4721 0.3626, 0.3565 -0.4769 0.3626, 0.354 -0.4736 0.3626, 0.353 -0.479 0.3626, 0.353 -0.4742 0.3626, 0.3563 -0.4956 0.3626, 0.3527 -0.4992 0.3626, 0.3568 -0.496 0.3626, 0.3543 -0.5003 0.3626, 0.3578 -0.4967 0.3626, 0.3562 -0.5011 0.3626, 0.3586 -0.5014 0.3626, 0.3553 -0.4919 0.3626, 0.3502 -0.4925 0.3626, 0.3553 -0.4927 0.3626, 0.3502 -0.4931 0.3626, 0.3554 -0.4938 0.3626, 0.3505 -0.4954 0.3626, 0.3558 -0.4948 0.3626, 0.3511 -0.4971 0.3626, 0.3521 -0.4986 0.3626, 0.3597 -0.4838 0.3626, 0.3559 -0.4847 0.3626, 0.3566 -0.4891 0.3626, 0.3538 -0.4858 0.3626, 0.356 -0.4898 0.3626, 0.3522 -0.4871 0.3626, 0.3556 -0.4907 0.3626, 0.3512 -0.4886 0.3626, 0.3505 -0.4903 0.3626, 0.3629 -0.4715 0.3622, 0.3577 -0.4721 0.3622, 0.354 -0.4736 0.3622, 0.353 -0.4742 0.3622, 0.353 -0.479 0.3622, 0.3565 -0.4769 0.3622, 0.3596 -0.4758 0.3622, 0.3624 -0.4756 0.3622, 0.3641 -0.4758 0.3622, 0.3653 -0.4762 0.3622, 0.3661 -0.4768 0.3622, 0.3669 -0.4776 0.3622, 0.3675 -0.4786 0.3622, 0.368 -0.4804 0.3622, 0.3682 -0.4826 0.3622, 0.3597 -0.4838 0.3622, 0.3559 -0.4847 0.3622, 0.3538 -0.4858 0.3622, 0.3522 -0.4871 0.3622, 0.3512 -0.4886 0.3622, 0.3505 -0.4903 0.3622, 0.3502 -0.4925 0.3622, 0.3502 -0.4931 0.3622, 0.3505 -0.4954 0.3622, 0.3511 -0.4971 0.3622, 0.3521 -0.4986 0.3622, 0.3527 -0.4992 0.3622, 0.3593 -0.5014 0.3622, 0.3543 -0.5003 0.3622, 0.3562 -0.5011 0.3622, 0.3564 -0.5011 0.3622, 0.3586 -0.5014 0.3622, 0.3617 -0.5012 0.3622, 0.362 -0.5011 0.3622, 0.3638 -0.5005 0.3622, 0.3656 -0.4993 0.3622, 0.3672 -0.4976 0.3622, 0.368 -0.4963 0.3622, 0.3682 -0.4963 0.3622, 0.3682 -0.5008 0.3622, 0.3732 -0.5008 0.3622, 0.3732 -0.4824 0.3622, 0.3728 -0.4785 0.3622, 0.372 -0.4762 0.3622, 0.371 -0.4746 0.3622, 0.3696 -0.4733 0.3622, 0.3679 -0.4724 0.3622, 0.3658 -0.4718 0.3622, 0.3566 -0.4891 0.3622, 0.3573 -0.4886 0.3622, 0.3585 -0.488 0.3622, 0.3615 -0.4873 0.3622, 0.3553 -0.4927 0.3622, 0.3553 -0.4919 0.3622, 0.3556 -0.4907 0.3622, 0.356 -0.4898 0.3622, 0.3568 -0.496 0.3622, 0.3563 -0.4956 0.3622, 0.3558 -0.4948 0.3622, 0.3554 -0.4938 0.3622, 0.3606 -0.4973 0.3622, 0.3589 -0.4971 0.3622, 0.3578 -0.4967 0.3622, 0.366 -0.495 0.3622, 0.3655 -0.4955 0.3622, 0.3641 -0.4965 0.3622, 0.3626 -0.4971 0.3622, 0.3682 -0.4891 0.3622, 0.3679 -0.4916 0.3622, 0.3672 -0.4934 0.3622, 0.3682 -0.4864 0.3622
            ]
        }
        coordIndex [
            0,1,2,-1,2,1,3,-1,4,5,6,-1,6,5,0,-1,6,0,2,-1,7,5,8,-1,8,5,4,-1,9,7,10,-1,10,7,8,-1,11,9,12,-1,12,9,10,-1,13,11,14,-1,14,11,12,-1,15,13,16,-1,16,13,14,-1,17,15,18,-1,18,15,16,-1,19,17,20,-1,20,17,18,-1,21,19,22,-1,22,19,20,-1,23,21,24,-1,24,21,22,-1,3,1,25,-1,25,1,23,-1,25,23,24,-1,23,1,0,-1,0,5,23,-1,23,5,7,-1,23,7,21,-1,17,19,15,-1,15,19,21,-1,15,21,13,-1,13,21,7,-1,13,7,11,-1,11,7,9,-1,26,27,28,-1,29,30,31,-1,31,30,28,-1,32,33,34,-1,35,36,37,-1,37,36,38,-1,27,39,28,-1,28,39,40,-1,28,40,31,-1,31,40,41,-1,31,41,35,-1,35,41,42,-1,35,42,36,-1,43,44,45,-1,45,44,46,-1,45,46,47,-1,47,46,48,-1,47,48,38,-1,38,48,49,-1,38,49,37,-1,34,26,32,-1,32,26,28,-1,32,28,50,-1,50,28,51,-1,50,51,52,-1,52,51,53,-1,52,53,54,-1,54,53,55,-1,54,55,56,-1,56,55,57,-1,56,57,58,-1,58,57,59,-1,58,59,60,-1,60,59,61,-1,60,61,62,-1,62,61,63,-1,62,63,64,-1,64,63,65,-1,64,65,66,-1,66,65,67,-1,66,67,68,-1,68,67,69,-1,70,71,72,-1,72,71,73,-1,72,73,74,-1,74,73,75,-1,74,75,43,-1,43,75,76,-1,43,76,44,-1,77,78,79,-1,79,78,80,-1,79,80,81,-1,81,80,82,-1,81,82,83,-1,83,82,84,-1,83,84,70,-1,70,84,85,-1,70,85,71,-1,32,86,33,-1,33,86,87,-1,33,87,88,-1,88,87,89,-1,88,89,90,-1,90,89,91,-1,90,91,92,-1,92,91,93,-1,92,93,77,-1,77,93,94,-1,77,94,78,-1,63,95,96,-1,63,96,65,-1,65,96,97,-1,65,97,67,-1,67,97,98,-1,67,98,69,-1,68,69,99,-1,99,69,98,-1,68,99,100,-1,68,100,66,-1,66,100,101,-1,66,101,64,-1,64,101,102,-1,64,102,62,-1,62,102,103,-1,62,103,60,-1,60,103,104,-1,60,104,58,-1,58,104,105,-1,58,105,56,-1,56,105,106,-1,56,106,54,-1,54,106,107,-1,54,107,52,-1,52,107,108,-1,52,108,50,-1,50,108,109,-1,50,109,32,-1,86,32,110,-1,110,32,109,-1,86,110,111,-1,86,111,87,-1,87,111,112,-1,87,112,89,-1,89,112,113,-1,89,113,91,-1,91,113,114,-1,91,114,93,-1,93,114,115,-1,93,115,94,-1,94,115,116,-1,94,116,78,-1,78,116,117,-1,78,117,80,-1,80,117,118,-1,80,118,82,-1,82,118,119,-1,82,119,84,-1,84,119,120,-1,84,120,85,-1,85,120,121,-1,85,121,71,-1,122,44,76,-1,71,121,123,-1,71,123,73,-1,73,123,124,-1,73,124,75,-1,75,124,125,-1,75,125,76,-1,76,125,126,-1,76,126,122,-1,44,122,127,-1,44,127,46,-1,46,127,128,-1,46,128,48,-1,128,129,48,-1,48,129,130,-1,48,130,49,-1,49,130,131,-1,49,131,37,-1,37,131,132,-1,37,132,35,-1,31,35,133,-1,133,35,132,-1,29,31,134,-1,134,31,133,-1,30,29,135,-1,135,29,134,-1,28,30,136,-1,136,30,135,-1,28,136,137,-1,28,137,51,-1,51,137,138,-1,51,138,53,-1,53,138,139,-1,53,139,55,-1,55,139,140,-1,55,140,57,-1,57,140,141,-1,57,141,59,-1,59,141,142,-1,59,142,61,-1,61,142,95,-1,61,95,63,-1,88,143,144,-1,88,144,33,-1,33,144,145,-1,33,145,34,-1,34,145,146,-1,34,146,26,-1,79,147,148,-1,79,148,77,-1,77,148,149,-1,77,149,92,-1,92,149,150,-1,92,150,90,-1,90,150,143,-1,90,143,88,-1,72,151,152,-1,72,152,70,-1,70,152,153,-1,70,153,83,-1,83,153,154,-1,83,154,81,-1,81,154,147,-1,81,147,79,-1,45,155,156,-1,45,156,43,-1,43,156,157,-1,43,157,74,-1,74,157,151,-1,74,151,72,-1,42,158,159,-1,42,159,36,-1,36,159,160,-1,36,160,38,-1,38,160,161,-1,38,161,47,-1,47,161,155,-1,47,155,45,-1,39,162,163,-1,39,163,40,-1,40,163,164,-1,40,164,41,-1,41,164,158,-1,41,158,42,-1,39,27,162,-1,162,27,165,-1,27,26,165,-1,165,26,146,-1,
        ]
    }
}
Shape{
    appearance Appearance {
        material  Material {
            diffuseColor 0.25098039215686274 0.25098039215686274 0.25098039215686274
            specularColor 0.12549019607843137 0.12549019607843137 0.12549019607843137
            ambientIntensity 0.251
            transparency 0.0
            shininess 0.5
        }
    }
    geometry IndexedFaceSet {
        ccw TRUE
        solid FALSE
        coord DEF co Coordinate {
            point [
                0.3682 -0.4891 0.3622, 0.3682 -0.4864 0.3622, 0.3615 -0.4873 0.3622, 0.3655 -0.4955 0.3622, 0.366 -0.495 0.3622, 0.3626 -0.4971 0.3622, 0.3585 -0.488 0.3622, 0.3573 -0.4886 0.3622, 0.3641 -0.4965 0.3622, 0.3672 -0.4934 0.3622, 0.3679 -0.4916 0.3622, 0.3556 -0.4907 0.3622, 0.3553 -0.4919 0.3622, 0.3553 -0.4927 0.3622, 0.3554 -0.4938 0.3622, 0.3578 -0.4967 0.3622, 0.3589 -0.4971 0.3622, 0.3568 -0.496 0.3622, 0.3606 -0.4973 0.3622, 0.3566 -0.4891 0.3622, 0.356 -0.4898 0.3622, 0.3558 -0.4948 0.3622, 0.3563 -0.4956 0.3622
            ]
        }
        coordIndex [
            0,1,2,-1,3,4,2,-1,5,6,7,-1,6,5,2,-1,2,5,8,-1,2,8,3,-1,4,9,2,-1,2,9,10,-1,2,10,0,-1,11,12,5,-1,5,12,13,-1,5,13,14,-1,15,16,17,-1,17,16,18,-1,17,18,5,-1,7,19,5,-1,5,19,20,-1,5,20,11,-1,14,21,5,-1,5,21,22,-1,5,22,17,-1,
        ]
    }
}
Shape{
    appearance Appearance {
        material  Material {
            diffuseColor 1.0 1.0 1.0
            specularColor 0.5019607843137255 0.5019607843137255 0.5019607843137255
            ambientIntensity 1.0
            transparency 0.0
            shininess 0.5
        }
    }
    geometry IndexedFaceSet {
        ccw TRUE
        solid FALSE
        coord DEF co Coordinate {
            point [
                0.3882 -0.4973 0.3626, 0.3882 -0.4973 0.3622, 0.3849 -0.4969 0.3622, 0.3823 -0.4959 0.3622, 0.3818 -0.4957 0.3626, 0.3849 -0.4969 0.3626, 0.3818 -0.4957 0.3622, 0.38 -0.4946 0.3622, 0.38 -0.4946 0.3626, 0.38 -0.4998 0.3626, 0.38 -0.4998 0.3622, 0.3835 -0.501 0.3626, 0.3823 -0.5006 0.3622, 0.3877 -0.5014 0.3622, 0.3877 -0.5014 0.3626, 0.3845 -0.5011 0.3622, 0.3835 -0.501 0.3622, 0.3923 -0.5009 0.3626, 0.3906 -0.5011 0.3622, 0.3923 -0.5009 0.3622, 0.3949 -0.4999 0.3622, 0.3949 -0.4999 0.3626, 0.3961 -0.4992 0.3622, 0.3961 -0.4992 0.3626, 0.3976 -0.4978 0.3622, 0.3976 -0.4978 0.3626, 0.3985 -0.4965 0.3622, 0.3985 -0.4965 0.3626, 0.3991 -0.4949 0.3622, 0.3991 -0.4949 0.3626, 0.3993 -0.493 0.3622, 0.3993 -0.493 0.3626, 0.399 -0.4909 0.3622, 0.399 -0.4909 0.3626, 0.3985 -0.4895 0.3622, 0.3985 -0.4895 0.3626, 0.3976 -0.4882 0.3622, 0.3976 -0.4882 0.3626, 0.3964 -0.4872 0.3622, 0.3964 -0.4872 0.3626, 0.3931 -0.4853 0.3622, 0.3931 -0.4853 0.3626, 0.3911 -0.4845 0.3622, 0.3911 -0.4845 0.3626, 0.388 -0.4832 0.3622, 0.388 -0.4832 0.3626, 0.3863 -0.4821 0.3622, 0.3863 -0.4821 0.3626, 0.3858 -0.4816 0.3622, 0.3858 -0.4816 0.3626, 0.3854 -0.4809 0.3622, 0.3854 -0.4809 0.3626, 0.3852 -0.4801 0.3622, 0.3852 -0.4801 0.3626, 0.3852 -0.4794 0.3622, 0.3852 -0.4794 0.3626, 0.3853 -0.4786 0.3622, 0.3853 -0.4786 0.3626, 0.3855 -0.478 0.3622, 0.3855 -0.478 0.3626, 0.3859 -0.4773 0.3622, 0.3859 -0.4773 0.3626, 0.3867 -0.4766 0.3622, 0.3867 -0.4766 0.3626, 0.3878 -0.476 0.3622, 0.3878 -0.476 0.3626, 0.3892 -0.4757 0.3622, 0.3892 -0.4757 0.3626, 0.3907 -0.4756 0.3622, 0.3907 -0.4756 0.3626, 0.3942 -0.476 0.3622, 0.3942 -0.476 0.3626, 0.397 -0.4771 0.3622, 0.397 -0.4771 0.3626, 0.3979 -0.4776 0.3622, 0.3979 -0.4776 0.3626, 0.3979 -0.4728 0.3626, 0.3979 -0.4728 0.3622, 0.3947 -0.4718 0.3622, 0.3947 -0.4718 0.3626, 0.3911 -0.4715 0.3622, 0.3911 -0.4715 0.3626, 0.3871 -0.472 0.3622, 0.3871 -0.472 0.3626, 0.3844 -0.473 0.3622, 0.3844 -0.473 0.3626, 0.3832 -0.4738 0.3622, 0.3832 -0.4738 0.3626, 0.3817 -0.4752 0.3626, 0.3823 -0.4746 0.3622, 0.3817 -0.4752 0.3622, 0.3808 -0.4766 0.3622, 0.3808 -0.4766 0.3626, 0.3802 -0.4782 0.3622, 0.3802 -0.4782 0.3626, 0.38 -0.4799 0.3622, 0.38 -0.4799 0.3626, 0.3803 -0.482 0.3622, 0.3803 -0.482 0.3626, 0.3808 -0.4835 0.3622, 0.3808 -0.4835 0.3626, 0.3814 -0.4844 0.3622, 0.3814 -0.4844 0.3626, 0.3876 -0.4882 0.3622, 0.3876 -0.4882 0.3626, 0.3846 -0.4868 0.3626, 0.3823 -0.4853 0.3622, 0.3823 -0.4853 0.3626, 0.3823 -0.4853 0.3622, 0.3846 -0.4868 0.3622, 0.3909 -0.4896 0.3622, 0.3909 -0.4896 0.3626, 0.3929 -0.4907 0.3622, 0.3929 -0.4907 0.3626, 0.3935 -0.4914 0.3622, 0.3935 -0.4914 0.3626, 0.3939 -0.4921 0.3622, 0.3939 -0.4921 0.3626, 0.3941 -0.4928 0.3622, 0.3941 -0.4928 0.3626, 0.3941 -0.4935 0.3622, 0.3941 -0.4935 0.3626, 0.394 -0.4944 0.3622, 0.394 -0.4944 0.3626, 0.3938 -0.4951 0.3622, 0.3938 -0.4951 0.3626, 0.3933 -0.4958 0.3622, 0.3933 -0.4958 0.3626, 0.3928 -0.4963 0.3622, 0.3928 -0.4963 0.3626, 0.3923 -0.4966 0.3622, 0.3923 -0.4966 0.3626, 0.391 -0.497 0.3622, 0.391 -0.497 0.3626, 0.3885 -0.4973 0.3622, 0.3885 -0.4973 0.3626, 0.4242 -0.4722 0.3626, 0.4294 -0.4722 0.3626, 0.4242 -0.4722 0.3622, 0.4294 -0.4722 0.3622, 0.4163 -0.4937 0.3626, 0.4163 -0.4937 0.3622, 0.416 -0.495 0.3622, 0.416 -0.495 0.3626, 0.4157 -0.496 0.3622, 0.4157 -0.496 0.3626, 0.4156 -0.496 0.3626, 0.4156 -0.496 0.3622, 0.415 -0.4937 0.3626, 0.415 -0.4937 0.3622, 0.4075 -0.4722 0.3626, 0.4075 -0.4722 0.3622, 0.4019 -0.4722 0.3626, 0.4019 -0.4722 0.3622, 0.4131 -0.5007 0.3626, 0.4131 -0.5007 0.3622, 0.4109 -0.5059 0.3622, 0.4109 -0.5059 0.3626, 0.413 -0.5011 0.3622, 0.4098 -0.5078 0.3622, 0.4098 -0.5078 0.3626, 0.4088 -0.5089 0.3622, 0.4088 -0.5089 0.3626, 0.4078 -0.5095 0.3622, 0.4078 -0.5095 0.3626, 0.4067 -0.5098 0.3622, 0.4067 -0.5098 0.3626, 0.4058 -0.5099 0.3622, 0.4058 -0.5099 0.3626, 0.404 -0.5097 0.3622, 0.404 -0.5097 0.3626, 0.4029 -0.5094 0.3622, 0.4029 -0.5094 0.3626, 0.4029 -0.5138 0.3626, 0.4029 -0.5138 0.3622, 0.405 -0.5142 0.3622, 0.405 -0.5142 0.3626, 0.4062 -0.5142 0.3622, 0.4062 -0.5142 0.3626, 0.4083 -0.514 0.3622, 0.4083 -0.514 0.3626, 0.4102 -0.5132 0.3622, 0.4102 -0.5132 0.3626, 0.412 -0.512 0.3622, 0.412 -0.512 0.3626, 0.4121 -0.5119 0.3622, 0.4121 -0.5119 0.3626, 0.4139 -0.5097 0.3622, 0.4139 -0.5097 0.3626, 0.4164 -0.5051 0.3622, 0.4164 -0.5051 0.3626, 0.4164 -0.5051 0.3622, 0.4164 -0.5051 0.3626, 0.4179 -0.5011 0.3622, 0.4563 -0.4962 0.3626, 0.4563 -0.5008 0.3626, 0.4563 -0.4962 0.3622, 0.4563 -0.5008 0.3622, 0.4399 -0.4962 0.3622, 0.4399 -0.4962 0.3626, 0.4474 -0.4962 0.3622, 0.4399 -0.4827 0.3626, 0.4399 -0.4827 0.3622, 0.4542 -0.4827 0.3622, 0.4542 -0.4827 0.3626, 0.4474 -0.4827 0.3622, 0.4542 -0.4781 0.3626, 0.4542 -0.4781 0.3622, 0.4399 -0.4781 0.3622, 0.4399 -0.4781 0.3626, 0.4474 -0.4781 0.3622, 0.4399 -0.4653 0.3626, 0.4399 -0.4653 0.3622, 0.4554 -0.4653 0.3622, 0.4554 -0.4653 0.3626, 0.4474 -0.4653 0.3622, 0.4554 -0.4607 0.3626, 0.4554 -0.4607 0.3622, 0.4348 -0.4607 0.3622, 0.4348 -0.4607 0.3626, 0.4474 -0.4607 0.3622, 0.4348 -0.5008 0.3626, 0.4348 -0.5008 0.3622, 0.4474 -0.5008 0.3622, 0.4887 -0.4895 0.3626, 0.4867 -0.492 0.3626, 0.4904 -0.4951 0.3626, 0.486 -0.4927 0.3626, 0.4863 -0.4981 0.3626, 0.4833 -0.4944 0.3626, 0.4817 -0.4999 0.3626, 0.4799 -0.4956 0.3626, 0.4749 -0.5008 0.3626, 0.4748 -0.4962 0.3626, 0.4638 -0.5008 0.3626, 0.469 -0.4962 0.3626, 0.4638 -0.4607 0.3626, 0.469 -0.4653 0.3626, 0.4753 -0.4607 0.3626, 0.4751 -0.4653 0.3626, 0.4814 -0.4614 0.3626, 0.4802 -0.4659 0.3626, 0.4862 -0.4632 0.3626, 0.4837 -0.4671 0.3626, 0.4904 -0.466 0.3626, 0.4866 -0.4691 0.3626, 0.4918 -0.4674 0.3626, 0.4879 -0.4704 0.3626, 0.4943 -0.4708 0.3626, 0.4894 -0.4727 0.3626, 0.4958 -0.4747 0.3626, 0.4905 -0.4758 0.3626, 0.4964 -0.4802 0.3626, 0.491 -0.4804 0.3626, 0.4963 -0.4828 0.3626, 0.4909 -0.4829 0.3626, 0.4954 -0.4875 0.3626, 0.4901 -0.4866 0.3626, 0.4934 -0.4916 0.3626, 0.4749 -0.5008 0.3622, 0.4638 -0.5008 0.3622, 0.4817 -0.4999 0.3622, 0.4863 -0.4981 0.3622, 0.4904 -0.4951 0.3622, 0.4934 -0.4916 0.3622, 0.4954 -0.4875 0.3622, 0.4963 -0.4828 0.3622, 0.4964 -0.4802 0.3622, 0.4958 -0.4747 0.3622, 0.4943 -0.4708 0.3622, 0.4918 -0.4674 0.3622, 0.4904 -0.466 0.3622, 0.4862 -0.4632 0.3622, 0.4814 -0.4614 0.3622, 0.4753 -0.4607 0.3622, 0.4638 -0.4607 0.3622, 0.4751 -0.4653 0.3622, 0.469 -0.4653 0.3622, 0.469 -0.4962 0.3622, 0.4748 -0.4962 0.3622, 0.4867 -0.492 0.3622, 0.486 -0.4927 0.3622, 0.4833 -0.4944 0.3622, 0.4799 -0.4956 0.3622, 0.491 -0.4804 0.3622, 0.4909 -0.4829 0.3622, 0.4901 -0.4866 0.3622, 0.4887 -0.4895 0.3622, 0.4866 -0.4691 0.3622, 0.4879 -0.4704 0.3622, 0.4894 -0.4727 0.3622, 0.4905 -0.4758 0.3622, 0.4802 -0.4659 0.3622, 0.4837 -0.4671 0.3622
            ]
        }
        coordIndex [
            0,1,2,-1,3,4,2,-1,2,4,5,-1,2,5,0,-1,3,6,4,-1,4,6,7,-1,4,7,8,-1,9,8,10,-1,10,8,7,-1,11,9,12,-1,12,9,10,-1,13,14,15,-1,15,14,11,-1,15,11,16,-1,16,11,12,-1,17,14,18,-1,18,14,13,-1,18,19,17,-1,17,19,20,-1,17,20,21,-1,21,20,22,-1,21,22,23,-1,23,22,24,-1,23,24,25,-1,25,24,26,-1,25,26,27,-1,27,26,28,-1,27,28,29,-1,29,28,30,-1,29,30,31,-1,31,30,32,-1,31,32,33,-1,33,32,34,-1,33,34,35,-1,35,34,36,-1,35,36,37,-1,37,36,38,-1,37,38,39,-1,39,38,40,-1,39,40,41,-1,41,40,42,-1,41,42,43,-1,43,42,44,-1,43,44,45,-1,45,44,46,-1,45,46,47,-1,47,46,48,-1,47,48,49,-1,49,48,50,-1,49,50,51,-1,51,50,52,-1,51,52,53,-1,53,52,54,-1,53,54,55,-1,55,54,56,-1,55,56,57,-1,57,56,58,-1,57,58,59,-1,59,58,60,-1,59,60,61,-1,61,60,62,-1,61,62,63,-1,63,62,64,-1,63,64,65,-1,65,64,66,-1,65,66,67,-1,67,66,68,-1,67,68,69,-1,69,68,70,-1,69,70,71,-1,71,70,72,-1,71,72,73,-1,73,72,74,-1,73,74,75,-1,76,75,77,-1,77,75,74,-1,76,77,78,-1,76,78,79,-1,79,78,80,-1,79,80,81,-1,81,80,82,-1,81,82,83,-1,83,82,84,-1,83,84,85,-1,85,84,86,-1,85,86,87,-1,87,86,88,-1,88,86,89,-1,89,90,88,-1,88,90,91,-1,88,91,92,-1,92,91,93,-1,92,93,94,-1,94,93,95,-1,94,95,96,-1,96,95,97,-1,96,97,98,-1,98,97,99,-1,98,99,100,-1,100,99,101,-1,100,101,102,-1,103,104,105,-1,102,101,106,-1,102,106,107,-1,107,106,108,-1,107,108,105,-1,105,108,109,-1,105,109,103,-1,104,103,110,-1,104,110,111,-1,111,110,112,-1,111,112,113,-1,113,112,114,-1,113,114,115,-1,115,114,116,-1,115,116,117,-1,117,116,118,-1,117,118,119,-1,119,118,120,-1,119,120,121,-1,121,120,122,-1,121,122,123,-1,123,122,124,-1,123,124,125,-1,125,124,126,-1,125,126,127,-1,127,126,128,-1,127,128,129,-1,129,128,130,-1,129,130,131,-1,131,130,132,-1,131,132,133,-1,133,132,134,-1,133,134,135,-1,135,134,1,-1,135,1,0,-1,59,61,87,-1,87,61,85,-1,85,61,63,-1,85,63,83,-1,125,25,27,-1,111,43,104,-1,104,43,45,-1,125,27,123,-1,123,27,29,-1,123,29,121,-1,121,29,31,-1,121,31,119,-1,119,31,33,-1,119,33,117,-1,117,33,35,-1,117,35,115,-1,115,35,37,-1,115,37,113,-1,113,37,39,-1,113,39,111,-1,111,39,41,-1,111,41,43,-1,25,125,23,-1,23,125,127,-1,23,127,21,-1,14,0,11,-1,11,0,5,-1,11,5,9,-1,9,5,4,-1,9,4,8,-1,63,65,83,-1,83,65,67,-1,83,67,81,-1,81,67,69,-1,81,69,79,-1,79,69,71,-1,79,71,76,-1,76,71,73,-1,76,73,75,-1,127,129,21,-1,21,129,131,-1,21,131,17,-1,17,131,133,-1,17,133,14,-1,14,133,135,-1,14,135,0,-1,87,88,59,-1,59,88,92,-1,59,92,57,-1,57,92,94,-1,57,94,55,-1,55,94,96,-1,55,96,53,-1,53,96,98,-1,53,98,51,-1,51,98,100,-1,51,100,49,-1,49,100,102,-1,49,102,47,-1,47,102,107,-1,47,107,45,-1,45,107,105,-1,45,105,104,-1,136,137,138,-1,138,137,139,-1,140,136,141,-1,141,136,138,-1,140,141,142,-1,140,142,143,-1,143,142,144,-1,143,144,145,-1,146,145,147,-1,147,145,144,-1,148,146,149,-1,149,146,147,-1,150,148,151,-1,151,148,149,-1,152,150,153,-1,153,150,151,-1,154,152,155,-1,155,152,153,-1,156,157,158,-1,158,157,154,-1,158,154,155,-1,157,156,159,-1,157,159,160,-1,160,159,161,-1,160,161,162,-1,162,161,163,-1,162,163,164,-1,164,163,165,-1,164,165,166,-1,166,165,167,-1,166,167,168,-1,168,167,169,-1,168,169,170,-1,170,169,171,-1,170,171,172,-1,173,172,174,-1,174,172,171,-1,173,174,175,-1,173,175,176,-1,176,175,177,-1,176,177,178,-1,178,177,179,-1,178,179,180,-1,180,179,181,-1,180,181,182,-1,182,181,183,-1,182,183,184,-1,184,183,185,-1,184,185,186,-1,186,185,187,-1,186,187,188,-1,188,187,189,-1,188,189,190,-1,190,189,191,-1,190,191,192,-1,139,137,193,-1,193,137,192,-1,193,192,191,-1,143,145,192,-1,137,136,192,-1,192,136,140,-1,192,140,143,-1,150,152,148,-1,148,152,154,-1,148,154,146,-1,145,146,192,-1,192,146,154,-1,192,154,190,-1,190,154,157,-1,190,157,188,-1,188,157,160,-1,188,160,186,-1,186,160,162,-1,172,173,170,-1,170,173,176,-1,170,176,168,-1,168,176,178,-1,168,178,166,-1,166,178,180,-1,166,180,164,-1,164,180,182,-1,164,182,162,-1,162,182,184,-1,162,184,186,-1,194,195,196,-1,196,195,197,-1,198,199,200,-1,200,199,194,-1,200,194,196,-1,201,199,202,-1,202,199,198,-1,203,204,205,-1,205,204,201,-1,205,201,202,-1,206,204,207,-1,207,204,203,-1,208,209,210,-1,210,209,206,-1,210,206,207,-1,211,209,212,-1,212,209,208,-1,213,214,215,-1,215,214,211,-1,215,211,212,-1,216,214,217,-1,217,214,213,-1,218,219,220,-1,220,219,216,-1,220,216,217,-1,221,219,222,-1,222,219,218,-1,197,195,223,-1,223,195,221,-1,223,221,222,-1,221,195,194,-1,194,199,221,-1,221,199,201,-1,221,201,219,-1,214,216,211,-1,211,216,219,-1,211,219,209,-1,209,219,201,-1,209,201,206,-1,206,201,204,-1,224,225,226,-1,226,225,227,-1,226,227,228,-1,228,227,229,-1,228,229,230,-1,230,229,231,-1,230,231,232,-1,232,231,233,-1,232,233,234,-1,234,233,235,-1,234,235,236,-1,236,235,237,-1,236,237,238,-1,238,237,239,-1,238,239,240,-1,240,239,241,-1,240,241,242,-1,242,241,243,-1,242,243,244,-1,244,243,245,-1,244,245,246,-1,246,245,247,-1,246,247,248,-1,248,247,249,-1,248,249,250,-1,250,249,251,-1,250,251,252,-1,252,251,253,-1,252,253,254,-1,254,253,255,-1,254,255,256,-1,256,255,257,-1,256,257,258,-1,258,257,224,-1,258,224,226,-1,232,234,259,-1,259,234,260,-1,232,259,261,-1,232,261,230,-1,230,261,262,-1,230,262,228,-1,228,262,263,-1,228,263,226,-1,226,263,264,-1,226,264,258,-1,258,264,265,-1,258,265,256,-1,256,265,266,-1,256,266,254,-1,254,266,267,-1,254,267,252,-1,252,267,268,-1,252,268,250,-1,250,268,269,-1,250,269,248,-1,248,269,270,-1,248,270,246,-1,246,270,271,-1,246,271,244,-1,244,271,272,-1,244,272,242,-1,242,272,273,-1,242,273,240,-1,240,273,274,-1,240,274,238,-1,236,238,275,-1,275,238,274,-1,234,236,260,-1,260,236,275,-1,239,237,276,-1,276,237,277,-1,237,235,277,-1,277,235,278,-1,235,233,278,-1,278,233,279,-1,225,280,281,-1,225,281,227,-1,227,281,282,-1,227,282,229,-1,229,282,283,-1,229,283,231,-1,231,283,279,-1,231,279,233,-1,253,284,285,-1,253,285,255,-1,255,285,286,-1,255,286,257,-1,257,286,287,-1,257,287,224,-1,224,287,280,-1,224,280,225,-1,245,288,289,-1,245,289,247,-1,247,289,290,-1,247,290,249,-1,249,290,291,-1,249,291,251,-1,251,291,284,-1,251,284,253,-1,239,276,292,-1,239,292,241,-1,241,292,293,-1,241,293,243,-1,243,293,288,-1,243,288,245,-1,
        ]
    }
}
Shape{
    appearance Appearance {
        material  Material {
            diffuseColor 0.25098039215686274 0.25098039215686274 0.25098039215686274
            specularColor 0.12549019607843137 0.12549019607843137 0.12549019607843137
            ambientIntensity 0.251
            transparency 0.0
            shininess 0.5
        }
    }
    geometry IndexedFaceSet {
        ccw TRUE
        solid FALSE
        coord DEF co Coordinate {
            point [
                0.469 -0.4653 0.3622, 0.469 -0.4962 0.3622, 0.4751 -0.4653 0.3622, 0.4748 -0.4962 0.3622, 0.4799 -0.4956 0.3622, 0.4833 -0.4944 0.3622, 0.486 -0.4927 0.3622, 0.4867 -0.492 0.3622, 0.4887 -0.4895 0.3622, 0.4901 -0.4866 0.3622, 0.4909 -0.4829 0.3622, 0.491 -0.4804 0.3622, 0.4905 -0.4758 0.3622, 0.4894 -0.4727 0.3622, 0.4879 -0.4704 0.3622, 0.4866 -0.4691 0.3622, 0.4802 -0.4659 0.3622, 0.4837 -0.4671 0.3622
            ]
        }
        coordIndex [
            0,1,2,-1,2,1,3,-1,2,3,4,-1,4,5,2,-1,2,5,6,-1,2,6,7,-1,7,8,2,-1,2,8,9,-1,2,9,10,-1,10,11,2,-1,2,11,12,-1,2,12,13,-1,13,14,2,-1,2,14,15,-1,2,15,16,-1,16,15,17,-1,
        ]
    }
}
Shape{
    appearance Appearance {
        material  Material {
            diffuseColor 1.0 1.0 1.0
            specularColor 0.5019607843137255 0.5019607843137255 0.5019607843137255
            ambientIntensity 1.0
            transparency 0.0
            shininess 0.5
        }
    }
    geometry IndexedFaceSet {
        ccw TRUE
        solid FALSE
        coord DEF co Coordinate {
            point [
                0.5099 -0.4853 0.3626, 0.5082 -0.4898 0.3626, 0.5233 -0.4853 0.3626, 0.5249 -0.4898 0.3626, 0.5158 -0.4686 0.3626, 0.5139 -0.4607 0.3626, 0.4987 -0.5008 0.3626, 0.5044 -0.5008 0.3626, 0.5162 -0.4674 0.3626, 0.5165 -0.4658 0.3626, 0.5194 -0.4607 0.3626, 0.5166 -0.4658 0.3626, 0.5169 -0.4675 0.3626, 0.5172 -0.4686 0.3626, 0.5347 -0.5008 0.3626, 0.529 -0.5008 0.3626, 0.5194 -0.4607 0.3622, 0.5347 -0.5008 0.3622, 0.5139 -0.4607 0.3622, 0.4987 -0.5008 0.3622, 0.5044 -0.5008 0.3622, 0.5082 -0.4898 0.3622, 0.5249 -0.4898 0.3622, 0.529 -0.5008 0.3622, 0.5099 -0.4853 0.3622, 0.5233 -0.4853 0.3622, 0.5172 -0.4686 0.3622, 0.5166 -0.4658 0.3622, 0.5169 -0.4675 0.3622, 0.5165 -0.4658 0.3622, 0.5158 -0.4686 0.3622, 0.5162 -0.4674 0.3622
            ]
        }
        coordIndex [
            0,1,2,-1,2,1,3,-1,4,5,0,-1,0,5,6,-1,0,6,1,-1,1,6,7,-1,4,8,5,-1,5,8,9,-1,5,9,10,-1,10,9,11,-1,10,11,12,-1,12,13,10,-1,10,13,2,-1,10,2,14,-1,14,2,3,-1,14,3,15,-1,10,14,16,-1,16,14,17,-1,5,10,18,-1,18,10,16,-1,6,5,19,-1,19,5,18,-1,7,6,20,-1,20,6,19,-1,1,7,21,-1,21,7,20,-1,3,1,22,-1,22,1,21,-1,15,3,23,-1,23,3,22,-1,14,15,17,-1,17,15,23,-1,0,2,24,-1,24,2,25,-1,2,13,25,-1,25,13,26,-1,11,27,28,-1,11,28,12,-1,12,28,26,-1,12,26,13,-1,11,9,27,-1,27,9,29,-1,4,30,31,-1,4,31,8,-1,8,31,29,-1,8,29,9,-1,4,0,30,-1,30,0,24,-1,
        ]
    }
}
Shape{
    appearance Appearance {
        material  Material {
            diffuseColor 0.25098039215686274 0.25098039215686274 0.25098039215686274
            specularColor 0.12549019607843137 0.12549019607843137 0.12549019607843137
            ambientIntensity 0.251
            transparency 0.0
            shininess 0.5
        }
    }
    geometry IndexedFaceSet {
        ccw TRUE
        solid FALSE
        coord DEF co Coordinate {
            point [
                0.5166 -0.4658 0.3622, 0.5165 -0.4658 0.3622, 0.5169 -0.4675 0.3622, 0.5162 -0.4674 0.3622, 0.5172 -0.4686 0.3622, 0.5158 -0.4686 0.3622, 0.5233 -0.4853 0.3622, 0.5099 -0.4853 0.3622
            ]
        }
        coordIndex [
            0,1,2,-1,2,1,3,-1,2,3,4,-1,4,3,5,-1,4,5,6,-1,6,5,7,-1,
        ]
    }
}
Shape{
    appearance Appearance {
        material  Material {
            diffuseColor 1.0 1.0 1.0
            specularColor 0.5019607843137255 0.5019607843137255 0.5019607843137255
            ambientIntensity 1.0
            transparency 0.0
            shininess 0.5
        }
    }
    geometry IndexedFaceSet {
        ccw TRUE
        solid FALSE
        coord DEF co Coordinate {
            point [
                0.1471 -0.5064 0.3626, 0.1513 -0.5116 0.3626, 0.1445 -0.4813 0.3626, 0.1997 -0.4884 0.3626, 0.1759 -0.4816 0.3626, 0.1782 -0.4831 0.3626, 0.2396 -0.4673 0.3626, 0.2307 -0.4522 0.3626, 0.1926 -0.4721 0.3626, 0.1733 -0.4806 0.3626, 0.171 -0.4804 0.3626, 0.1747 -0.4627 0.3626, 0.1713 -0.4625 0.3626, 0.1662 -0.4815 0.3626, 0.1383 -0.4774 0.3626, 0.139 -0.4987 0.3626, 0.1442 -0.5003 0.3626, 0.1636 -0.4998 0.3626, 0.1659 -0.5014 0.3626, 0.1569 -0.5158 0.3626, 0.1686 -0.5023 0.3626, 0.1816 -0.4644 0.3626, 0.1645 -0.4633 0.3626, 0.1582 -0.4657 0.3626, 0.1639 -0.483 0.3626, 0.1524 -0.4697 0.3626, 0.162 -0.485 0.3626, 0.1477 -0.4751 0.3626, 0.1606 -0.4875 0.3626, 0.1599 -0.4902 0.3626, 0.249 -0.4391 0.3626, 0.2512 -0.4391 0.3626, 0.2629 -0.4238 0.3626, 0.2566 -0.4398 0.3626, 0.2649 -0.4244 0.3626, 0.2616 -0.4417 0.3626, 0.2733 -0.4288 0.3626, 0.2809 -0.4354 0.3626, 0.1689 -0.4297 0.3626, 0.171 -0.4309 0.3626, 0.1621 -0.4101 0.3626, 0.1748 -0.4226 0.3626, 0.168 -0.4033 0.3626, 0.1811 -0.4149 0.3626, 0.1747 -0.3976 0.3626, 0.1889 -0.4089 0.3626, 0.1816 -0.3933 0.3626, 0.2367 -0.5007 0.3626, 0.2379 -0.5009 0.3626, 0.2401 -0.4835 0.3626, 0.1947 -0.3882 0.3626, 0.1982 -0.405 0.3626, 0.2088 -0.3865 0.3626, 0.2475 -0.4013 0.3626, 0.2382 -0.4161 0.3626, 0.2569 -0.412 0.3626, 0.2441 -0.4242 0.3626, 0.2479 -0.4336 0.3626, 0.1332 -0.4722 0.3626, 0.1214 -0.4867 0.3626, 0.1289 -0.4933 0.3626, 0.1283 -0.4482 0.3626, 0.1096 -0.4519 0.3626, 0.1274 -0.4551 0.3626, 0.1095 -0.4556 0.3626, 0.1278 -0.4594 0.3626, 0.1105 -0.4653 0.3626, 0.1298 -0.4664 0.3626, 0.1142 -0.4759 0.3626, 0.1201 -0.4852 0.3626, 0.1687 -0.4806 0.3626, 0.1876 -0.4676 0.3626, 0.266 -0.4448 0.3626, 0.2693 -0.4485 0.3626, 0.2866 -0.4436 0.3626, 0.272 -0.4534 0.3626, 0.2899 -0.4523 0.3626, 0.2733 -0.4589 0.3626, 0.2911 -0.461 0.3626, 0.2734 -0.4613 0.3626, 0.253 -0.4835 0.3626, 0.2547 -0.5009 0.3626, 0.258 -0.4826 0.3626, 0.2635 -0.4991 0.3626, 0.2631 -0.4802 0.3626, 0.2722 -0.495 0.3626, 0.2673 -0.4768 0.3626, 0.2797 -0.489 0.3626, 0.2677 -0.4764 0.3626, 0.2806 -0.4881 0.3626, 0.2708 -0.4719 0.3626, 0.2859 -0.4809 0.3626, 0.2728 -0.4669 0.3626, 0.2896 -0.4719 0.3626, 0.2911 -0.4626 0.3626, 0.1625 -0.4274 0.3626, 0.1589 -0.4097 0.3626, 0.1559 -0.4266 0.3626, 0.1556 -0.4095 0.3626, 0.153 -0.4268 0.3626, 0.1459 -0.4105 0.3626, 0.1459 -0.4284 0.3626, 0.1353 -0.4143 0.3626, 0.1396 -0.4318 0.3626, 0.1257 -0.4206 0.3626, 0.1346 -0.4362 0.3626, 0.1229 -0.4232 0.3626, 0.1307 -0.4418 0.3626, 0.1168 -0.4307 0.3626, 0.112 -0.4407 0.3626, 0.1618 -0.4978 0.3626, 0.1606 -0.4954 0.3626, 0.1599 -0.4928 0.3626, 0.2297 -0.4912 0.3626, 0.2296 -0.4921 0.3626, 0.2387 -0.4833 0.3626, 0.2076 -0.4036 0.3626, 0.2091 -0.4035 0.3626, 0.2206 -0.3877 0.3626, 0.218 -0.4045 0.3626, 0.2348 -0.3927 0.3626, 0.227 -0.4078 0.3626, 0.2351 -0.4132 0.3626, 0.1801 -0.4851 0.3626, 0.1813 -0.4875 0.3626, 0.1997 -0.4912 0.3626, 0.182 -0.4901 0.3626, 0.1996 -0.4941 0.3626, 0.182 -0.4929 0.3626, 0.1979 -0.5012 0.3626, 0.1813 -0.4956 0.3626, 0.1946 -0.5075 0.3626, 0.1799 -0.498 0.3626, 0.1902 -0.5125 0.3626, 0.178 -0.5001 0.3626, 0.1845 -0.5164 0.3626, 0.1758 -0.5015 0.3626, 0.1781 -0.5188 0.3626, 0.1733 -0.5024 0.3626, 0.1713 -0.5197 0.3626, 0.171 -0.5026 0.3626, 0.1701 -0.5197 0.3626, 0.1634 -0.5186 0.3626, 0.2318 -0.4978 0.3626, 0.2329 -0.4989 0.3626, 0.2298 -0.4941 0.3626, 0.2306 -0.496 0.3626, 0.2396 -0.4835 0.3626, 0.2348 -0.5001 0.3626, 0.2384 -0.4832 0.3626, 0.2364 -0.4835 0.3626, 0.2344 -0.4842 0.3626, 0.2327 -0.4854 0.3626, 0.2312 -0.4871 0.3626, 0.2302 -0.489 0.3626, 0.2911 -0.461 0.3622, 0.2899 -0.4523 0.3622, 0.2824 -0.4376 0.3622, 0.2888 -0.4493 0.3622, 0.2866 -0.4436 0.3622, 0.2809 -0.4354 0.3622, 0.2733 -0.4288 0.3622, 0.2649 -0.4244 0.3622, 0.2629 -0.4238 0.3622, 0.2569 -0.412 0.3622, 0.2475 -0.4013 0.3622, 0.241 -0.3969 0.3622, 0.2348 -0.3927 0.3622, 0.2206 -0.3877 0.3622, 0.2088 -0.3865 0.3622, 0.1747 -0.3976 0.3622, 0.1758 -0.3969 0.3622, 0.1816 -0.3933 0.3622, 0.1947 -0.3882 0.3622, 0.168 -0.4033 0.3622, 0.1621 -0.4101 0.3622, 0.1589 -0.4097 0.3622, 0.1556 -0.4095 0.3622, 0.1459 -0.4105 0.3622, 0.1353 -0.4143 0.3622, 0.1257 -0.4206 0.3622, 0.1229 -0.4232 0.3622, 0.1095 -0.4556 0.3622, 0.1168 -0.4307 0.3622, 0.1135 -0.4376 0.3622, 0.112 -0.4407 0.3622, 0.1102 -0.4493 0.3622, 0.1096 -0.4519 0.3622, 0.1105 -0.4653 0.3622, 0.1142 -0.4759 0.3622, 0.1201 -0.4852 0.3622, 0.1214 -0.4867 0.3622, 0.1289 -0.4933 0.3622, 0.139 -0.4987 0.3622, 0.1442 -0.5003 0.3622, 0.1446 -0.5011 0.3622, 0.1471 -0.5064 0.3622, 0.1513 -0.5116 0.3622, 0.1569 -0.5158 0.3622, 0.1595 -0.517 0.3622, 0.1634 -0.5186 0.3622, 0.1701 -0.5197 0.3622, 0.1713 -0.5197 0.3622, 0.1997 -0.4912 0.3622, 0.1781 -0.5188 0.3622, 0.183 -0.517 0.3622, 0.1845 -0.5164 0.3622, 0.1902 -0.5125 0.3622, 0.1946 -0.5075 0.3622, 0.1979 -0.5012 0.3622, 0.1979 -0.5011 0.3622, 0.1996 -0.4941 0.3622, 0.1997 -0.4884 0.3622, 0.2396 -0.4673 0.3622, 0.2307 -0.4522 0.3622, 0.1926 -0.4721 0.3622, 0.1876 -0.4676 0.3622, 0.1816 -0.4644 0.3622, 0.1747 -0.4627 0.3622, 0.1713 -0.4625 0.3622, 0.1645 -0.4633 0.3622, 0.1582 -0.4657 0.3622, 0.1524 -0.4697 0.3622, 0.1477 -0.4751 0.3622, 0.1445 -0.4813 0.3622, 0.1383 -0.4774 0.3622, 0.1332 -0.4722 0.3622, 0.1298 -0.4664 0.3622, 0.1278 -0.4594 0.3622, 0.1274 -0.4551 0.3622, 0.1281 -0.4493 0.3622, 0.1283 -0.4482 0.3622, 0.1307 -0.4418 0.3622, 0.1337 -0.4376 0.3622, 0.1346 -0.4362 0.3622, 0.1396 -0.4318 0.3622, 0.1459 -0.4284 0.3622, 0.153 -0.4268 0.3622, 0.1559 -0.4266 0.3622, 0.1625 -0.4274 0.3622, 0.1689 -0.4297 0.3622, 0.171 -0.4309 0.3622, 0.1748 -0.4226 0.3622, 0.1811 -0.4149 0.3622, 0.1889 -0.4089 0.3622, 0.1982 -0.405 0.3622, 0.2076 -0.4036 0.3622, 0.2091 -0.4035 0.3622, 0.249 -0.4391 0.3622, 0.2487 -0.4376 0.3622, 0.2479 -0.4336 0.3622, 0.2441 -0.4242 0.3622, 0.2382 -0.4161 0.3622, 0.2351 -0.4132 0.3622, 0.227 -0.4078 0.3622, 0.218 -0.4045 0.3622, 0.2512 -0.4391 0.3622, 0.2566 -0.4398 0.3622, 0.2616 -0.4417 0.3622, 0.266 -0.4448 0.3622, 0.2693 -0.4485 0.3622, 0.2698 -0.4493 0.3622, 0.272 -0.4534 0.3622, 0.2733 -0.4589 0.3622, 0.2734 -0.4613 0.3622, 0.2728 -0.4669 0.3622, 0.2708 -0.4719 0.3622, 0.2677 -0.4764 0.3622, 0.2673 -0.4768 0.3622, 0.2631 -0.4802 0.3622, 0.258 -0.4826 0.3622, 0.253 -0.4835 0.3622, 0.2401 -0.4835 0.3622, 0.2396 -0.4835 0.3622, 0.2387 -0.4833 0.3622, 0.2384 -0.4832 0.3622, 0.2364 -0.4835 0.3622, 0.2344 -0.4842 0.3622, 0.2327 -0.4854 0.3622, 0.2312 -0.4871 0.3622, 0.2302 -0.489 0.3622, 0.2297 -0.4912 0.3622, 0.2296 -0.4921 0.3622, 0.2298 -0.4941 0.3622, 0.2306 -0.496 0.3622, 0.2318 -0.4978 0.3622, 0.2329 -0.4989 0.3622, 0.2348 -0.5001 0.3622, 0.2367 -0.5007 0.3622, 0.2379 -0.5009 0.3622, 0.2547 -0.5009 0.3622, 0.2635 -0.4991 0.3622, 0.2722 -0.495 0.3622, 0.2797 -0.489 0.3622, 0.2806 -0.4881 0.3622, 0.2859 -0.4809 0.3622, 0.2896 -0.4719 0.3622, 0.2911 -0.4626 0.3622, 0.171 -0.4804 0.3622, 0.1733 -0.4806 0.3622, 0.1759 -0.4816 0.3622, 0.1782 -0.4831 0.3622, 0.1801 -0.4851 0.3622, 0.1813 -0.4875 0.3622, 0.182 -0.4901 0.3622, 0.182 -0.4929 0.3622, 0.1813 -0.4956 0.3622, 0.1799 -0.498 0.3622, 0.178 -0.5001 0.3622, 0.1758 -0.5015 0.3622, 0.1733 -0.5024 0.3622, 0.171 -0.5026 0.3622, 0.1686 -0.5023 0.3622, 0.1659 -0.5014 0.3622, 0.1636 -0.4998 0.3622, 0.1618 -0.4978 0.3622, 0.1606 -0.4954 0.3622, 0.1599 -0.4928 0.3622, 0.1599 -0.4902 0.3622, 0.1606 -0.4875 0.3622, 0.162 -0.485 0.3622, 0.1639 -0.483 0.3622, 0.1662 -0.4815 0.3622, 0.1687 -0.4806 0.3622
            ]
        }
        coordIndex [
            0,1,2,-1,3,4,5,-1,6,7,8,-1,4,3,9,-1,9,3,6,-1,9,6,10,-1,11,12,13,-1,14,15,2,-1,2,15,16,-1,2,16,0,-1,17,1,18,-1,18,1,19,-1,18,19,20,-1,11,13,21,-1,12,22,13,-1,13,22,23,-1,13,23,24,-1,24,23,25,-1,24,25,26,-1,26,25,27,-1,26,27,28,-1,28,27,2,-1,28,2,29,-1,30,31,32,-1,32,31,33,-1,32,33,34,-1,34,33,35,-1,34,35,36,-1,36,35,37,-1,38,39,40,-1,40,39,41,-1,40,41,42,-1,42,41,43,-1,42,43,44,-1,44,43,45,-1,44,45,46,-1,47,48,49,-1,46,45,50,-1,50,45,51,-1,50,51,52,-1,53,54,55,-1,55,54,56,-1,55,56,32,-1,32,56,57,-1,32,57,30,-1,58,59,14,-1,14,59,60,-1,14,60,15,-1,61,62,63,-1,63,62,64,-1,63,64,65,-1,65,64,66,-1,65,66,67,-1,67,66,68,-1,67,68,58,-1,58,68,69,-1,58,69,59,-1,10,6,70,-1,70,6,8,-1,70,8,13,-1,13,8,71,-1,13,71,21,-1,35,72,37,-1,37,72,73,-1,37,73,74,-1,74,73,75,-1,74,75,76,-1,76,75,77,-1,76,77,78,-1,78,77,79,-1,49,48,80,-1,80,48,81,-1,80,81,82,-1,82,81,83,-1,82,83,84,-1,84,83,85,-1,84,85,86,-1,86,85,87,-1,86,87,88,-1,88,87,89,-1,88,89,90,-1,90,89,91,-1,90,91,92,-1,92,91,93,-1,92,93,79,-1,79,93,94,-1,79,94,78,-1,38,40,95,-1,95,40,96,-1,95,96,97,-1,97,96,98,-1,97,98,99,-1,99,98,100,-1,99,100,101,-1,101,100,102,-1,101,102,103,-1,103,102,104,-1,103,104,105,-1,105,104,106,-1,105,106,107,-1,107,106,108,-1,107,108,61,-1,61,108,109,-1,61,109,62,-1,17,110,1,-1,1,110,111,-1,1,111,2,-1,2,111,112,-1,2,112,29,-1,113,114,115,-1,51,116,52,-1,52,116,117,-1,52,117,118,-1,118,117,119,-1,118,119,120,-1,120,119,121,-1,120,121,53,-1,53,121,122,-1,53,122,54,-1,5,123,3,-1,3,123,124,-1,3,124,125,-1,125,124,126,-1,125,126,127,-1,127,126,128,-1,127,128,129,-1,129,128,130,-1,129,130,131,-1,131,130,132,-1,131,132,133,-1,133,132,134,-1,133,134,135,-1,135,134,136,-1,135,136,137,-1,137,136,138,-1,137,138,139,-1,139,138,140,-1,139,140,141,-1,141,140,20,-1,141,20,142,-1,142,20,19,-1,115,143,144,-1,114,145,115,-1,115,145,146,-1,115,146,143,-1,49,147,47,-1,47,147,115,-1,47,115,148,-1,148,115,144,-1,115,149,113,-1,113,149,150,-1,113,150,151,-1,151,152,113,-1,113,152,153,-1,113,153,154,-1,78,155,156,-1,157,37,74,-1,78,156,76,-1,76,156,158,-1,76,158,74,-1,74,158,159,-1,74,159,157,-1,157,160,37,-1,37,160,161,-1,37,161,36,-1,36,161,162,-1,36,162,34,-1,34,162,163,-1,34,163,32,-1,32,163,164,-1,32,164,55,-1,55,164,165,-1,55,165,53,-1,120,53,166,-1,166,53,165,-1,166,167,120,-1,120,167,168,-1,120,168,118,-1,118,168,169,-1,118,169,52,-1,170,44,171,-1,171,44,46,-1,171,46,172,-1,172,46,50,-1,172,50,173,-1,173,50,52,-1,173,52,169,-1,44,170,174,-1,44,174,42,-1,42,174,175,-1,42,175,40,-1,40,175,176,-1,40,176,96,-1,96,176,177,-1,96,177,98,-1,98,177,178,-1,98,178,100,-1,100,178,179,-1,100,179,102,-1,102,179,180,-1,102,180,104,-1,104,180,181,-1,104,181,106,-1,182,64,62,-1,106,181,183,-1,106,183,108,-1,108,183,184,-1,108,184,109,-1,184,185,109,-1,109,185,186,-1,109,186,62,-1,62,186,187,-1,62,187,182,-1,64,182,188,-1,64,188,66,-1,66,188,189,-1,66,189,68,-1,68,189,190,-1,68,190,69,-1,69,190,191,-1,69,191,59,-1,59,191,192,-1,59,192,60,-1,60,192,193,-1,60,193,15,-1,15,193,194,-1,15,194,16,-1,16,194,195,-1,16,195,0,-1,195,196,0,-1,0,196,197,-1,0,197,1,-1,1,197,198,-1,1,198,19,-1,19,198,199,-1,19,199,142,-1,199,200,142,-1,142,200,201,-1,142,201,141,-1,141,201,202,-1,141,202,139,-1,203,125,127,-1,139,202,204,-1,139,204,137,-1,137,204,205,-1,137,205,135,-1,205,206,135,-1,135,206,207,-1,135,207,133,-1,133,207,208,-1,133,208,131,-1,131,208,209,-1,131,209,129,-1,129,209,210,-1,129,210,127,-1,127,210,211,-1,127,211,203,-1,3,125,212,-1,212,125,203,-1,6,3,213,-1,213,3,212,-1,7,6,214,-1,214,6,213,-1,8,7,215,-1,215,7,214,-1,8,215,216,-1,8,216,71,-1,71,216,217,-1,71,217,21,-1,21,217,218,-1,21,218,11,-1,11,218,219,-1,11,219,12,-1,12,219,220,-1,12,220,22,-1,22,220,221,-1,22,221,23,-1,23,221,222,-1,23,222,25,-1,25,222,223,-1,25,223,27,-1,27,223,224,-1,27,224,2,-1,2,224,225,-1,2,225,14,-1,14,225,226,-1,14,226,58,-1,58,226,227,-1,58,227,67,-1,67,227,228,-1,67,228,65,-1,65,228,229,-1,65,229,63,-1,63,229,61,-1,61,229,230,-1,230,231,61,-1,61,231,232,-1,61,232,107,-1,107,232,233,-1,107,233,105,-1,233,234,105,-1,105,234,235,-1,105,235,103,-1,103,235,236,-1,103,236,101,-1,101,236,237,-1,101,237,99,-1,99,237,238,-1,99,238,97,-1,97,238,239,-1,97,239,95,-1,95,239,240,-1,95,240,38,-1,38,240,241,-1,38,241,39,-1,39,241,242,-1,39,242,41,-1,41,242,243,-1,41,243,43,-1,43,243,244,-1,43,244,45,-1,45,244,245,-1,45,245,51,-1,51,245,246,-1,51,246,116,-1,116,246,247,-1,116,247,117,-1,248,30,249,-1,249,30,57,-1,249,57,250,-1,250,57,56,-1,250,56,251,-1,251,56,54,-1,251,54,252,-1,252,54,122,-1,252,122,253,-1,253,122,121,-1,253,121,254,-1,254,121,119,-1,254,119,255,-1,255,119,117,-1,255,117,247,-1,31,30,256,-1,256,30,248,-1,31,256,257,-1,31,257,33,-1,33,257,258,-1,33,258,35,-1,35,258,259,-1,35,259,72,-1,72,259,260,-1,72,260,73,-1,73,260,261,-1,73,261,75,-1,261,262,75,-1,75,262,263,-1,75,263,77,-1,77,263,264,-1,77,264,79,-1,79,264,265,-1,79,265,92,-1,92,265,266,-1,92,266,90,-1,90,266,267,-1,90,267,88,-1,88,267,268,-1,88,268,86,-1,86,268,269,-1,86,269,84,-1,84,269,270,-1,84,270,82,-1,82,270,271,-1,82,271,80,-1,49,80,272,-1,272,80,271,-1,49,272,273,-1,49,273,147,-1,147,273,274,-1,147,274,115,-1,115,274,275,-1,115,275,149,-1,149,275,276,-1,149,276,150,-1,150,276,277,-1,150,277,151,-1,151,277,278,-1,151,278,152,-1,152,278,279,-1,152,279,153,-1,153,279,280,-1,153,280,154,-1,154,280,281,-1,154,281,113,-1,113,281,282,-1,113,282,114,-1,114,282,283,-1,114,283,145,-1,145,283,284,-1,145,284,146,-1,146,284,285,-1,146,285,143,-1,143,285,286,-1,143,286,144,-1,144,286,287,-1,144,287,148,-1,148,287,288,-1,148,288,47,-1,47,288,289,-1,47,289,48,-1,81,48,290,-1,290,48,289,-1,81,290,291,-1,81,291,83,-1,83,291,292,-1,83,292,85,-1,85,292,293,-1,85,293,87,-1,87,293,294,-1,87,294,89,-1,89,294,295,-1,89,295,91,-1,91,295,296,-1,91,296,93,-1,93,296,297,-1,93,297,94,-1,94,297,155,-1,94,155,78,-1,10,298,299,-1,10,299,9,-1,9,299,300,-1,9,300,4,-1,4,300,301,-1,4,301,5,-1,5,301,302,-1,5,302,123,-1,123,302,303,-1,123,303,124,-1,124,303,304,-1,124,304,126,-1,126,304,305,-1,126,305,128,-1,128,305,306,-1,128,306,130,-1,130,306,307,-1,130,307,132,-1,132,307,308,-1,132,308,134,-1,134,308,309,-1,134,309,136,-1,136,309,310,-1,136,310,138,-1,138,310,311,-1,138,311,140,-1,140,311,312,-1,140,312,20,-1,20,312,313,-1,20,313,18,-1,18,313,314,-1,18,314,17,-1,17,314,315,-1,17,315,110,-1,110,315,316,-1,110,316,111,-1,111,316,317,-1,111,317,112,-1,112,317,318,-1,112,318,29,-1,29,318,319,-1,29,319,28,-1,28,319,320,-1,28,320,26,-1,26,320,321,-1,26,321,24,-1,24,321,322,-1,24,322,13,-1,13,322,323,-1,13,323,70,-1,70,323,298,-1,70,298,10,-1,
        ]
    }
}
Shape{
    appearance Appearance {
        material  Material {
            diffuseColor 0.25098039215686274 0.25098039215686274 0.25098039215686274
            specularColor 0.12549019607843137 0.12549019607843137 0.12549019607843137
            ambientIntensity 0.251
            transparency 0.0
            shininess 0.5
        }
    }
    geometry IndexedFaceSet {
        ccw TRUE
        solid FALSE
        coord DEF co Coordinate {
            point [
                0.1687 -0.4806 0.3622, 0.171 -0.5026 0.3622, 0.171 -0.4804 0.3622, 0.1733 -0.5024 0.3622, 0.1733 -0.4806 0.3622, 0.162 -0.485 0.3622, 0.1606 -0.4875 0.3622, 0.1599 -0.4902 0.3622, 0.1606 -0.4954 0.3622, 0.1618 -0.4978 0.3622, 0.1636 -0.4998 0.3622, 0.1813 -0.4875 0.3622, 0.1801 -0.4851 0.3622, 0.178 -0.5001 0.3622, 0.1782 -0.4831 0.3622, 0.1659 -0.5014 0.3622, 0.1686 -0.5023 0.3622, 0.1813 -0.4956 0.3622, 0.182 -0.4929 0.3622, 0.182 -0.4901 0.3622, 0.1758 -0.5015 0.3622, 0.1759 -0.4816 0.3622, 0.1599 -0.4928 0.3622, 0.1662 -0.4815 0.3622, 0.1639 -0.483 0.3622, 0.1799 -0.498 0.3622
            ]
        }
        coordIndex [
            0,1,2,-1,2,1,3,-1,2,3,4,-1,5,6,7,-1,8,9,0,-1,0,9,10,-1,11,12,13,-1,13,12,14,-1,10,15,0,-1,0,15,16,-1,0,16,1,-1,17,18,19,-1,3,20,4,-1,4,20,13,-1,4,13,21,-1,21,13,14,-1,8,0,22,-1,22,0,23,-1,22,23,7,-1,7,23,24,-1,7,24,5,-1,11,13,19,-1,19,13,25,-1,19,25,17,-1,
        ]
    }
}
Shape{
    appearance Appearance {
        material  Material {
            diffuseColor 1.0 1.0 0.0
            specularColor 0.5019607843137255 0.5019607843137255 0.0
            ambientIntensity 0.886
            transparency 0.0
            shininess 0.5
        }
    }
    geometry IndexedFaceSet {
        ccw TRUE
        solid FALSE
        coord DEF co Coordinate {
            point [
                0.4331 -0.3445 0.0079, 0.4331 -0.2461 0.0079, 0.4331 -0.3445 0.0, 0.4331 -0.2461 0.0, 0.561 -0.3445 0.0079, 0.561 -0.3445 0.0, 0.561 -0.2461 0.0079, 0.561 -0.2461 0.0, 0.4331 -0.1476 0.0079, 0.4331 -0.0492 0.0079, 0.4331 -0.1476 0.0, 0.4331 -0.0492 0.0, 0.561 -0.1476 0.0079, 0.561 -0.1476 0.0, 0.561 -0.0492 0.0079, 0.561 -0.0492 0.0, 0.4331 0.0492 0.0079, 0.4331 0.1476 0.0079, 0.4331 0.0492 0.0, 0.4331 0.1476 0.0, 0.561 0.0492 0.0079, 0.561 0.0492 0.0, 0.561 0.1476 0.0079, 0.561 0.1476 0.0, 0.4331 0.2461 0.0079, 0.4331 0.3445 0.0079, 0.4331 0.2461 0.0, 0.4331 0.3445 0.0, 0.561 0.2461 0.0079, 0.561 0.2461 0.0, 0.561 0.3445 0.0079, 0.561 0.3445 0.0, -0.3445 -0.4331 0.0079, -0.2461 -0.4331 0.0079, -0.3445 -0.4331 0.0, -0.2461 -0.4331 0.0, -0.3445 -0.561 0.0079, -0.3445 -0.561 0.0, -0.2461 -0.561 0.0079, -0.2461 -0.561 0.0, -0.1476 -0.4331 0.0079, -0.0492 -0.4331 0.0079, -0.1476 -0.4331 0.0, -0.0492 -0.4331 0.0, -0.1476 -0.561 0.0079, -0.1476 -0.561 0.0, -0.0492 -0.561 0.0079, -0.0492 -0.561 0.0, 0.0492 -0.4331 0.0079, 0.1476 -0.4331 0.0079, 0.0492 -0.4331 0.0, 0.1476 -0.4331 0.0, 0.0492 -0.561 0.0079, 0.0492 -0.561 0.0, 0.1476 -0.561 0.0079, 0.1476 -0.561 0.0, 0.2461 -0.4331 0.0079, 0.3445 -0.4331 0.0079, 0.2461 -0.4331 0.0, 0.3445 -0.4331 0.0, 0.2461 -0.561 0.0079, 0.2461 -0.561 0.0, 0.3445 -0.561 0.0079, 0.3445 -0.561 0.0, -0.4331 0.3445 0.0079, -0.4331 0.2461 0.0079, -0.4331 0.3445 0.0, -0.4331 0.2461 0.0, -0.561 0.3445 0.0079, -0.561 0.3445 0.0, -0.561 0.2461 0.0079, -0.561 0.2461 0.0, -0.4331 0.1476 0.0079, -0.4331 0.0492 0.0079, -0.4331 0.1476 0.0, -0.4331 0.0492 0.0, -0.561 0.1476 0.0079, -0.561 0.1476 0.0, -0.561 0.0492 0.0079, -0.561 0.0492 0.0, -0.4331 -0.0492 0.0079, -0.4331 -0.1476 0.0079, -0.4331 -0.0492 0.0, -0.4331 -0.1476 0.0, -0.561 -0.0492 0.0079, -0.561 -0.0492 0.0, -0.561 -0.1476 0.0079, -0.561 -0.1476 0.0, -0.4331 -0.2461 0.0079, -0.4331 -0.3445 0.0079, -0.4331 -0.2461 0.0, -0.4331 -0.3445 0.0, -0.561 -0.2461 0.0079, -0.561 -0.2461 0.0, -0.561 -0.3445 0.0079, -0.561 -0.3445 0.0
            ]
        }
        coordIndex [
            0,1,2,-1,2,1,3,-1,4,0,5,-1,5,0,2,-1,6,4,7,-1,7,4,5,-1,1,6,3,-1,3,6,7,-1,4,6,0,-1,0,6,1,-1,7,5,3,-1,3,5,2,-1,8,9,10,-1,10,9,11,-1,12,8,13,-1,13,8,10,-1,14,12,15,-1,15,12,13,-1,9,14,11,-1,11,14,15,-1,12,14,8,-1,8,14,9,-1,15,13,11,-1,11,13,10,-1,16,17,18,-1,18,17,19,-1,20,16,21,-1,21,16,18,-1,22,20,23,-1,23,20,21,-1,17,22,19,-1,19,22,23,-1,20,22,16,-1,16,22,17,-1,23,21,19,-1,19,21,18,-1,24,25,26,-1,26,25,27,-1,28,24,29,-1,29,24,26,-1,30,28,31,-1,31,28,29,-1,25,30,27,-1,27,30,31,-1,28,30,24,-1,24,30,25,-1,31,29,27,-1,27,29,26,-1,32,33,34,-1,34,33,35,-1,36,32,37,-1,37,32,34,-1,38,36,39,-1,39,36,37,-1,33,38,35,-1,35,38,39,-1,36,38,32,-1,32,38,33,-1,39,37,35,-1,35,37,34,-1,40,41,42,-1,42,41,43,-1,44,40,45,-1,45,40,42,-1,46,44,47,-1,47,44,45,-1,41,46,43,-1,43,46,47,-1,44,46,40,-1,40,46,41,-1,47,45,43,-1,43,45,42,-1,48,49,50,-1,50,49,51,-1,52,48,53,-1,53,48,50,-1,54,52,55,-1,55,52,53,-1,49,54,51,-1,51,54,55,-1,52,54,48,-1,48,54,49,-1,55,53,51,-1,51,53,50,-1,56,57,58,-1,58,57,59,-1,60,56,61,-1,61,56,58,-1,62,60,63,-1,63,60,61,-1,57,62,59,-1,59,62,63,-1,60,62,56,-1,56,62,57,-1,63,61,59,-1,59,61,58,-1,64,65,66,-1,66,65,67,-1,68,64,69,-1,69,64,66,-1,70,68,71,-1,71,68,69,-1,65,70,67,-1,67,70,71,-1,68,70,64,-1,64,70,65,-1,71,69,67,-1,67,69,66,-1,72,73,74,-1,74,73,75,-1,76,72,77,-1,77,72,74,-1,78,76,79,-1,79,76,77,-1,73,78,75,-1,75,78,79,-1,76,78,72,-1,72,78,73,-1,79,77,75,-1,75,77,74,-1,80,81,82,-1,82,81,83,-1,84,80,85,-1,85,80,82,-1,86,84,87,-1,87,84,85,-1,81,86,83,-1,83,86,87,-1,84,86,80,-1,80,86,81,-1,87,85,83,-1,83,85,82,-1,88,89,90,-1,90,89,91,-1,92,88,93,-1,93,88,90,-1,94,92,95,-1,95,92,93,-1,89,94,91,-1,91,94,95,-1,92,94,88,-1,88,94,89,-1,95,93,91,-1,91,93,90,-1,
        ]
    }
}