#VRML V2.0 utf8
# 3D model generated by kicad-lcsc-manager
# Based on easyeda2kicad.py v1.0.1

Shape{
    appearance Appearance {
        material  Material {
            diffuseColor 0.25098039215686274 0.25098039215686274 0.25098039215686274
            specularColor 0.12549019607843137 0.12549019607843137 0.12549019607843137
            ambientIntensity 0.251
            transparency 0.0
            shininess 0.5
        }
    }
    geometry IndexedFaceSet {
        ccw TRUE
        solid FALSE
        coord DEF co Coordinate {
            point [
                0.3937 0.3937 0.378, 0.3937 -0.3937 0.378, 0.3937 0.3937 0.0551, 0.3937 -0.3937 0.0551, -0.3937 0.3937 0.378, -0.3937 0.3937 0.0551, -0.3937 -0.3937 0.378, -0.3937 -0.3937 0.0551, -0.2514 -0.2975 0.378, -0.2526 -0.3067 0.378, -0.2562 -0.3154 0.378, -0.2618 -0.3228 0.378, -0.2964 -0.332 0.378, -0.305 -0.3285 0.378, -0.3124 -0.3228 0.378, -0.3181 -0.3154 0.378, -0.3217 -0.3067 0.378, -0.2618 -0.2722 0.378, -0.2562 -0.2796 0.378, -0.2693 -0.3285 0.378, -0.2779 -0.332 0.378, -0.2871 -0.3333 0.378, -0.2964 -0.2629 0.378, -0.305 -0.2665 0.378, -0.3124 -0.2722 0.378, -0.3229 -0.2975 0.378, -0.3217 -0.2882 0.378, -0.3181 -0.2796 0.378, -0.2526 -0.2882 0.378, -0.2871 -0.2617 0.378, -0.2779 -0.2629 0.378, -0.2693 -0.2665 0.378
            ]
        }
        coordIndex [
            0,1,2,-1,2,1,3,-1,4,0,5,-1,5,0,2,-1,6,4,7,-1,7,4,5,-1,1,6,3,-1,3,6,7,-1,8,9,1,-1,1,9,10,-1,1,10,11,-1,12,13,6,-1,13,14,6,-1,6,14,15,-1,6,15,16,-1,0,17,18,-1,11,19,1,-1,1,19,20,-1,1,20,6,-1,6,20,21,-1,6,21,12,-1,22,4,23,-1,23,4,24,-1,16,25,6,-1,6,25,26,-1,6,26,4,-1,4,26,27,-1,4,27,24,-1,0,18,1,-1,1,18,28,-1,1,28,8,-1,22,29,4,-1,4,29,30,-1,4,30,0,-1,0,30,31,-1,0,31,17,-1,7,5,3,-1,3,5,2,-1,
        ]
    }
}
Shape{
    appearance Appearance {
        material  Material {
            diffuseColor 0.7529411764705882 0.7529411764705882 0.7529411764705882
            specularColor 0.3764705882352941 0.3764705882352941 0.3764705882352941
            ambientIntensity 0.7529
            transparency 0.0
            shininess 0.5
        }
    }
    geometry IndexedFaceSet {
        ccw TRUE
        solid FALSE
        coord DEF co Coordinate {
            point [
                -0.2514 -0.2975 0.3776, -0.2514 -0.2975 0.378, -0.2526 -0.2882 0.3776, -0.2526 -0.2882 0.378, -0.2562 -0.2796 0.3776, -0.2562 -0.2796 0.378, -0.2618 -0.2722 0.3776, -0.2618 -0.2722 0.378, -0.2693 -0.2665 0.3776, -0.2693 -0.2665 0.378, -0.2779 -0.2629 0.3776, -0.2779 -0.2629 0.378, -0.2871 -0.2617 0.3776, -0.2871 -0.2617 0.378, -0.2964 -0.2629 0.3776, -0.2964 -0.2629 0.378, -0.305 -0.2665 0.3776, -0.305 -0.2665 0.378, -0.3124 -0.2722 0.3776, -0.3124 -0.2722 0.378, -0.3181 -0.2796 0.3776, -0.3181 -0.2796 0.378, -0.3217 -0.2882 0.3776, -0.3217 -0.2882 0.378, -0.3229 -0.2975 0.3776, -0.3229 -0.2975 0.378, -0.3217 -0.3067 0.3776, -0.3217 -0.3067 0.378, -0.3181 -0.3154 0.3776, -0.3181 -0.3154 0.378, -0.3124 -0.3228 0.3776, -0.3124 -0.3228 0.378, -0.305 -0.3285 0.3776, -0.305 -0.3285 0.378, -0.2964 -0.332 0.3776, -0.2964 -0.332 0.378, -0.2871 -0.3333 0.3776, -0.2871 -0.3333 0.378, -0.2779 -0.332 0.3776, -0.2779 -0.332 0.378, -0.2693 -0.3285 0.3776, -0.2693 -0.3285 0.378, -0.2618 -0.3228 0.3776, -0.2618 -0.3228 0.378, -0.2562 -0.3154 0.3776, -0.2562 -0.3154 0.378, -0.2526 -0.3067 0.3776, -0.2526 -0.3067 0.378, -0.2871 -0.2975 0.3776
            ]
        }
        coordIndex [
            0,1,2,-1,2,1,3,-1,2,3,4,-1,4,3,5,-1,4,5,6,-1,6,5,7,-1,6,7,8,-1,8,7,9,-1,8,9,10,-1,10,9,11,-1,10,11,12,-1,12,11,13,-1,12,13,14,-1,14,13,15,-1,14,15,16,-1,16,15,17,-1,16,17,18,-1,18,17,19,-1,18,19,20,-1,20,19,21,-1,20,21,22,-1,22,21,23,-1,22,23,24,-1,24,23,25,-1,24,25,26,-1,26,25,27,-1,26,27,28,-1,28,27,29,-1,28,29,30,-1,30,29,31,-1,30,31,32,-1,32,31,33,-1,32,33,34,-1,34,33,35,-1,34,35,36,-1,36,35,37,-1,36,37,38,-1,38,37,39,-1,38,39,40,-1,40,39,41,-1,40,41,42,-1,42,41,43,-1,42,43,44,-1,44,43,45,-1,44,45,46,-1,46,45,47,-1,46,47,0,-1,0,47,1,-1,44,46,48,-1,48,46,0,-1,48,0,2,-1,38,40,48,-1,48,40,42,-1,48,42,44,-1,32,34,48,-1,48,34,36,-1,48,36,38,-1,26,28,48,-1,48,28,30,-1,48,30,32,-1,20,22,48,-1,48,22,24,-1,48,24,26,-1,14,16,48,-1,48,16,18,-1,48,18,20,-1,8,10,48,-1,48,10,12,-1,48,12,14,-1,2,4,48,-1,48,4,6,-1,48,6,8,-1,
        ]
    }
}
Shape{
    appearance Appearance {
        material  Material {
            diffuseColor 1.0 1.0 0.0
            specularColor 0.5019607843137255 0.5019607843137255 0.0
            ambientIntensity 0.886
            transparency 0.0
            shininess 0.5
        }
    }
    geometry IndexedFaceSet {
        ccw TRUE
        solid FALSE
        coord DEF co Coordinate {
            point [
                0.1535 -0.3543 0.0, 0.1535 -0.2402 0.0, 0.1535 -0.3543 0.0039, 0.1535 -0.2402 0.0039, 0.0433 -0.3543 0.0, 0.0433 -0.3543 0.0039, 0.0433 -0.2402 0.0, 0.0433 -0.2402 0.0039, -0.3543 0.1535 0.0, -0.3543 0.0433 0.0, -0.3543 0.1535 0.0039, -0.3543 0.0433 0.0039, -0.2402 0.1535 0.0, -0.2402 0.1535 0.0039, -0.2402 0.0433 0.0, -0.2402 0.0433 0.0039, -0.2402 -0.1535 0.0, -0.2402 -0.0433 0.0, -0.2402 -0.1535 0.0039, -0.2402 -0.0433 0.0039, -0.3543 -0.1535 0.0, -0.3543 -0.1535 0.0039, -0.3543 -0.0433 0.0, -0.3543 -0.0433 0.0039, 0.2402 -0.1535 0.0, 0.3543 -0.1535 0.0, 0.2402 -0.1535 0.0039, 0.3543 -0.1535 0.0039, 0.2402 -0.0433 0.0, 0.2402 -0.0433 0.0039, 0.3543 -0.0433 0.0, 0.3543 -0.0433 0.0039, 0.2402 0.1535 0.0, 0.2402 0.0433 0.0, 0.2402 0.1535 0.0039, 0.2402 0.0433 0.0039, 0.3543 0.1535 0.0, 0.3543 0.1535 0.0039, 0.3543 0.0433 0.0, 0.3543 0.0433 0.0039, -0.3504 0.3543 0.0, -0.3504 0.2402 0.0, -0.3504 0.3543 0.0039, -0.3504 0.2402 0.0039, -0.2402 0.3543 0.0, -0.2402 0.3543 0.0039, -0.2402 0.2402 0.0, -0.2402 0.2402 0.0039, -0.1535 0.2402 0.0, -0.0433 0.2402 0.0, -0.1535 0.2402 0.0039, -0.0433 0.2402 0.0039, -0.1535 0.3543 0.0, -0.1535 0.3543 0.0039, -0.0433 0.3543 0.0, -0.0433 0.3543 0.0039, -0.3504 -0.3543 0.0, -0.2402 -0.3543 0.0, -0.3504 -0.3543 0.0039, -0.2402 -0.3543 0.0039, -0.3504 -0.2402 0.0, -0.3504 -0.2402 0.0039, -0.2402 -0.2402 0.0, -0.2402 -0.2402 0.0039, 0.0433 0.2402 0.0, 0.1535 0.2402 0.0, 0.0433 0.2402 0.0039, 0.1535 0.2402 0.0039, 0.0433 0.3543 0.0, 0.0433 0.3543 0.0039, 0.1535 0.3543 0.0, 0.1535 0.3543 0.0039, 0.2402 0.2402 0.0, 0.3504 0.2402 0.0, 0.2402 0.2402 0.0039, 0.3504 0.2402 0.0039, 0.2402 0.3543 0.0, 0.2402 0.3543 0.0039, 0.3504 0.3543 0.0, 0.3504 0.3543 0.0039, -0.0433 -0.3543 0.0, -0.0433 -0.2402 0.0, -0.0433 -0.3543 0.0039, -0.0433 -0.2402 0.0039, -0.1535 -0.3543 0.0, -0.1535 -0.3543 0.0039, -0.1535 -0.2402 0.0, -0.1535 -0.2402 0.0039, 0.3504 -0.3543 0.0, 0.3504 -0.2402 0.0, 0.3504 -0.3543 0.0039, 0.3504 -0.2402 0.0039, 0.2402 -0.3543 0.0, 0.2402 -0.3543 0.0039, 0.2402 -0.2402 0.0, 0.2402 -0.2402 0.0039
            ]
        }
        coordIndex [
            0,1,2,-1,2,1,3,-1,4,0,5,-1,5,0,2,-1,6,4,7,-1,7,4,5,-1,1,6,3,-1,3,6,7,-1,4,6,0,-1,0,6,1,-1,7,5,3,-1,3,5,2,-1,8,9,10,-1,10,9,11,-1,12,8,13,-1,13,8,10,-1,14,12,15,-1,15,12,13,-1,9,14,11,-1,11,14,15,-1,12,14,8,-1,8,14,9,-1,15,13,11,-1,11,13,10,-1,16,17,18,-1,18,17,19,-1,20,16,21,-1,21,16,18,-1,22,20,23,-1,23,20,21,-1,17,22,19,-1,19,22,23,-1,20,22,16,-1,16,22,17,-1,23,21,19,-1,19,21,18,-1,24,25,26,-1,26,25,27,-1,28,24,29,-1,29,24,26,-1,30,28,31,-1,31,28,29,-1,25,30,27,-1,27,30,31,-1,28,30,24,-1,24,30,25,-1,31,29,27,-1,27,29,26,-1,32,33,34,-1,34,33,35,-1,36,32,37,-1,37,32,34,-1,38,36,39,-1,39,36,37,-1,33,38,35,-1,35,38,39,-1,36,38,32,-1,32,38,33,-1,39,37,35,-1,35,37,34,-1,40,41,42,-1,42,41,43,-1,44,40,45,-1,45,40,42,-1,46,44,47,-1,47,44,45,-1,41,46,43,-1,43,46,47,-1,44,46,40,-1,40,46,41,-1,47,45,43,-1,43,45,42,-1,48,49,50,-1,50,49,51,-1,52,48,53,-1,53,48,50,-1,54,52,55,-1,55,52,53,-1,49,54,51,-1,51,54,55,-1,52,54,48,-1,48,54,49,-1,55,53,51,-1,51,53,50,-1,56,57,58,-1,58,57,59,-1,60,56,61,-1,61,56,58,-1,62,60,63,-1,63,60,61,-1,57,62,59,-1,59,62,63,-1,60,62,56,-1,56,62,57,-1,63,61,59,-1,59,61,58,-1,64,65,66,-1,66,65,67,-1,68,64,69,-1,69,64,66,-1,70,68,71,-1,71,68,69,-1,65,70,67,-1,67,70,71,-1,68,70,64,-1,64,70,65,-1,71,69,67,-1,67,69,66,-1,72,73,74,-1,74,73,75,-1,76,72,77,-1,77,72,74,-1,78,76,79,-1,79,76,77,-1,73,78,75,-1,75,78,79,-1,76,78,72,-1,72,78,73,-1,79,77,75,-1,75,77,74,-1,80,81,82,-1,82,81,83,-1,84,80,85,-1,85,80,82,-1,86,84,87,-1,87,84,85,-1,81,86,83,-1,83,86,87,-1,84,86,80,-1,80,86,81,-1,87,85,83,-1,83,85,82,-1,88,89,90,-1,90,89,91,-1,92,88,93,-1,93,88,90,-1,94,92,95,-1,95,92,93,-1,89,94,91,-1,91,94,95,-1,92,94,88,-1,88,94,89,-1,95,93,91,-1,91,93,90,-1,
        ]
    }
}
Shape{
    appearance Appearance {
        material  Material {
            diffuseColor 0.09803921568627451 0.30980392156862746 0.0
            specularColor 0.050980392156862744 0.1568627450980392 0.0
            ambientIntensity 0.2112
            transparency 0.0
            shininess 0.5
        }
    }
    geometry IndexedFaceSet {
        ccw TRUE
        solid FALSE
        coord DEF co Coordinate {
            point [
                0.0216 0.0168 0.0039, 0.0255 0.0164 0.0039, 0.0131 -0.0127 0.0039, 0.0124 -0.0123 0.0039, 0.0124 -0.0166 0.0039, 0.0085 -0.0189 0.0039, 0.0319 -0.0173 0.0039, 0.045 -0.0187 0.0039, 0.028 -0.0187 0.0039, 0.0255 -0.0189 0.0039, 0.0168 0.0162 0.0039, 0.0124 0.0143 0.0039, 0.0085 0.3937 0.0039, 0.0124 0.0196 0.0039, 0.0284 0.0153 0.0039, 0.0311 0.0135 0.0039, 0.0335 0.0109 0.0039, 0.0364 0.0006 0.0039, 0.036 -0.0037 0.0039, 0.0349 -0.0071 0.0039, 0.0261 -0.0144 0.0039, 0.0225 -0.0148 0.0039, 0.029 -0.0134 0.0039, 0.0314 -0.0117 0.0039, 0.0333 -0.0098 0.0039, 0.0172 -0.0143 0.0039, 0.0396 0.0103 0.0039, 0.0373 0.014 0.0039, 0.0599 0.0207 0.0039, 0.0652 0.0207 0.0039, 0.3937 0.3937 0.0039, 0.0652 -0.0187 0.0039, 0.3937 -0.0189 0.0039, 0.0351 0.0079 0.0039, 0.0362 0.0036 0.0039, 0.035 -0.0153 0.0039, 0.038 -0.0122 0.0039, 0.045 -0.0144 0.0039, 0.0401 -0.0085 0.0039, 0.0599 -0.0144 0.0039, 0.0337 0.0174 0.0039, 0.03 0.0196 0.0039, 0.0256 0.0208 0.0039, 0.0413 -0.0043 0.0039, 0.0416 0.0003 0.0039, 0.0411 0.0059 0.0039, 0.0216 0.0212 0.0039, 0.0169 0.0208 0.0039, 0.0166 -0.0184 0.0039, 0.0205 -0.0189 0.0039, 0.0085 -0.3937 0.0039, 0.0221 -0.0191 0.0039, 0.3937 -0.3937 0.0039, 0.0232 -0.0192 0.0039, -0.0587 -0.0187 0.0039, -0.0539 -0.0079 0.0039, -0.0516 -0.0114 0.0039, -0.0165 -0.0187 0.0039, 0.0047 -0.0187 0.0039, 0.0047 0.0207 0.0039, -0.0736 0.0207 0.0039, -0.0789 0.0207 0.0039, -0.3937 0.3937 0.0039, -0.0155 0.0164 0.0039, -0.0006 0.0164 0.0039, -0.0006 0.0034 0.0039, -0.0484 -0.0145 0.0039, -0.0442 -0.0169 0.0039, -0.0397 -0.0183 0.0039, -0.3937 -0.0189 0.0039, -0.0155 0.0207 0.0039, -0.0241 0.0207 0.0039, -0.0145 0.0034 0.0039, -0.0145 -0.0009 0.0039, -0.0006 -0.0009 0.0039, -0.0006 -0.0144 0.0039, -0.0165 -0.0144 0.0039, -0.0241 -0.0187 0.0039, -0.0348 -0.0187 0.0039, -0.0942 -0.0187 0.0039, -0.0885 -0.0187 0.0039, -0.0352 0.0207 0.0039, -0.0409 0.0201 0.0039, -0.0455 0.0185 0.0039, -0.0498 0.0156 0.0039, -0.0845 -0.0076 0.0039, -0.0682 -0.0076 0.0039, -0.0645 -0.0187 0.0039, -0.0499 0.0156 0.0039, -0.0526 0.0125 0.0039, -0.0545 0.0091 0.0039, -0.0555 0.0052 0.0039, -0.0558 0.0015 0.0039, -0.0553 -0.0038 0.0039, -0.3937 -0.3937 0.0039, -0.3937 0.3937 0.0551, 0.3937 0.3937 0.0551, 0.3937 -0.3937 0.0551, -0.3937 -0.3937 0.0551
            ]
        }
        coordIndex [
            0,1,2,-1,3,4,5,-1,6,7,8,-1,8,7,9,-1,0,2,10,-1,10,2,3,-1,10,3,11,-1,11,3,12,-1,11,12,13,-1,1,14,2,-1,2,14,15,-1,2,15,16,-1,17,18,2,-1,2,18,19,-1,20,21,22,-1,22,21,23,-1,19,24,2,-1,2,24,23,-1,2,23,25,-1,25,23,21,-1,26,27,28,-1,28,27,12,-1,28,12,29,-1,29,12,30,-1,29,30,31,-1,31,30,32,-1,16,33,2,-1,2,33,34,-1,2,34,17,-1,6,35,7,-1,7,35,36,-1,7,36,37,-1,37,36,38,-1,37,38,39,-1,27,40,12,-1,12,40,41,-1,12,41,42,-1,38,43,39,-1,39,43,44,-1,39,44,28,-1,28,44,45,-1,28,45,26,-1,42,46,12,-1,12,46,47,-1,12,47,13,-1,4,48,5,-1,5,48,49,-1,5,49,50,-1,50,49,51,-1,50,51,52,-1,52,51,53,-1,52,53,32,-1,32,53,9,-1,32,9,31,-1,31,9,7,-1,54,55,56,-1,57,58,5,-1,5,58,59,-1,60,61,62,-1,63,64,65,-1,56,66,54,-1,54,66,67,-1,54,67,68,-1,62,61,69,-1,3,5,12,-1,12,5,59,-1,12,59,62,-1,62,59,70,-1,62,70,63,-1,71,72,73,-1,74,75,73,-1,73,75,76,-1,73,76,71,-1,71,76,57,-1,71,57,77,-1,77,57,5,-1,77,5,78,-1,79,80,5,-1,65,72,63,-1,63,72,71,-1,63,71,62,-1,62,71,81,-1,81,82,62,-1,62,82,83,-1,62,83,84,-1,85,86,80,-1,80,86,87,-1,80,87,5,-1,5,87,54,-1,5,54,78,-1,78,54,68,-1,84,88,62,-1,62,88,89,-1,62,89,60,-1,60,89,90,-1,90,91,60,-1,60,91,92,-1,60,92,54,-1,54,92,93,-1,54,93,55,-1,61,79,69,-1,69,79,5,-1,69,5,94,-1,94,5,50,-1,62,95,12,-1,12,95,96,-1,12,96,30,-1,30,96,32,-1,32,96,97,-1,32,97,52,-1,52,97,50,-1,50,97,98,-1,50,98,94,-1,94,98,69,-1,69,98,95,-1,69,95,62,-1,98,97,95,-1,95,97,96,-1,
        ]
    }
}
Shape{
    appearance Appearance {
        material  Material {
            diffuseColor 0.0 0.0 0.0
            specularColor 0.0 0.0 0.0
            ambientIntensity 0.0
            transparency 0.0
            shininess 0.5
        }
    }
    geometry IndexedFaceSet {
        ccw TRUE
        solid FALSE
        coord DEF co Coordinate {
            point [
                -0.0789 0.0207 0.0043, -0.0942 -0.0187 0.0043, -0.0789 0.0207 0.0039, -0.0942 -0.0187 0.0039, -0.0885 -0.0187 0.0043, -0.0885 -0.0187 0.0039, -0.0845 -0.0076 0.0043, -0.0845 -0.0076 0.0039, -0.0682 -0.0076 0.0043, -0.0682 -0.0076 0.0039, -0.0645 -0.0187 0.0043, -0.0645 -0.0187 0.0039, -0.0587 -0.0187 0.0043, -0.0587 -0.0187 0.0039, -0.0736 0.0207 0.0043, -0.0736 0.0207 0.0039, -0.0695 -0.0033 0.0043, -0.0827 -0.0033 0.0043, -0.0754 0.0131 0.0043, -0.0758 0.0145 0.0043, -0.0761 0.0159 0.0043, -0.0762 0.0159 0.0043, -0.0764 0.0145 0.0043, -0.0768 0.0131 0.0043, -0.0695 -0.0033 0.0039, -0.0827 -0.0033 0.0039, -0.0754 0.0131 0.0039, -0.0758 0.0145 0.0039, -0.0761 0.0159 0.0039, -0.0762 0.0159 0.0039, -0.0764 0.0145 0.0039, -0.0768 0.0131 0.0039, -0.0348 -0.0187 0.0043, -0.0241 -0.0187 0.0043, -0.0348 -0.0187 0.0039, -0.0241 -0.0187 0.0039, -0.0241 0.0207 0.0043, -0.0241 0.0207 0.0039, -0.0352 0.0207 0.0043, -0.0352 0.0207 0.0039, -0.0558 0.0015 0.0043, -0.0558 0.0015 0.0039, -0.0555 0.0052 0.0039, -0.0555 0.0052 0.0043, -0.0545 0.0091 0.0039, -0.0545 0.0091 0.0043, -0.0526 0.0125 0.0039, -0.0526 0.0125 0.0043, -0.0499 0.0156 0.0039, -0.0499 0.0156 0.0043, -0.0498 0.0156 0.0039, -0.0498 0.0156 0.0043, -0.0455 0.0185 0.0039, -0.0455 0.0185 0.0043, -0.0409 0.0201 0.0039, -0.0409 0.0201 0.0043, -0.0397 -0.0183 0.0039, -0.0397 -0.0183 0.0043, -0.0442 -0.0169 0.0039, -0.0442 -0.0169 0.0043, -0.0484 -0.0145 0.0039, -0.0484 -0.0145 0.0043, -0.0516 -0.0114 0.0039, -0.0516 -0.0114 0.0043, -0.0539 -0.0079 0.0039, -0.0539 -0.0079 0.0043, -0.0553 -0.0038 0.0039, -0.0553 -0.0038 0.0043, -0.0479 0.0108 0.0043, -0.046 0.0129 0.0043, -0.0431 0.0147 0.0043, -0.0399 0.0159 0.0043, -0.0352 0.0164 0.0043, -0.0294 0.0164 0.0043, -0.0294 -0.0144 0.0043, -0.035 -0.0144 0.0043, -0.0392 -0.014 0.0043, -0.0425 -0.0129 0.0043, -0.0452 -0.0113 0.0043, -0.0474 -0.0092 0.0043, -0.049 -0.0064 0.0043, -0.0502 -0.0027 0.0043, -0.0505 0.0014 0.0043, -0.0502 0.0053 0.0043, -0.0493 0.0084 0.0043, -0.0352 0.0164 0.0039, -0.0294 0.0164 0.0039, -0.0399 0.0159 0.0039, -0.0431 0.0147 0.0039, -0.046 0.0129 0.0039, -0.0479 0.0108 0.0039, -0.0493 0.0084 0.0039, -0.0502 0.0053 0.0039, -0.0505 0.0014 0.0039, -0.0502 -0.0027 0.0039, -0.049 -0.0064 0.0039, -0.0474 -0.0092 0.0039, -0.0452 -0.0113 0.0039, -0.0425 -0.0129 0.0039, -0.0392 -0.014 0.0039, -0.035 -0.0144 0.0039, -0.0294 -0.0144 0.0039, -0.0165 -0.0144 0.0043, -0.0165 -0.0187 0.0043, -0.0165 -0.0144 0.0039, -0.0165 -0.0187 0.0039, 0.0047 -0.0187 0.0043, 0.0047 -0.0187 0.0039, 0.0047 0.0207 0.0043, 0.0047 0.0207 0.0039, -0.0155 0.0207 0.0043, -0.0155 0.0207 0.0039, -0.0155 0.0164 0.0043, -0.0155 0.0164 0.0039, -0.0006 0.0164 0.0043, -0.0006 0.0164 0.0039, -0.0006 0.0034 0.0043, -0.0006 0.0034 0.0039, -0.0145 0.0034 0.0043, -0.0145 0.0034 0.0039, -0.0145 -0.0009 0.0043, -0.0145 -0.0009 0.0039, -0.0006 -0.0009 0.0043, -0.0006 -0.0009 0.0039, -0.0006 -0.0144 0.0043, -0.0006 -0.0144 0.0039, 0.0124 -0.0123 0.0043, 0.0124 -0.0166 0.0043, 0.0124 -0.0123 0.0039, 0.0124 -0.0166 0.0039, 0.0166 -0.0184 0.0043, 0.0232 -0.0192 0.0043, 0.0232 -0.0192 0.0039, 0.0221 -0.0191 0.0039, 0.0221 -0.0191 0.0043, 0.0205 -0.0189 0.0039, 0.0166 -0.0184 0.0039, 0.0255 -0.0189 0.0039, 0.028 -0.0187 0.0043, 0.028 -0.0187 0.0039, 0.0319 -0.0173 0.0043, 0.0319 -0.0173 0.0039, 0.035 -0.0153 0.0043, 0.035 -0.0153 0.0039, 0.038 -0.0122 0.0043, 0.038 -0.0122 0.0039, 0.0401 -0.0085 0.0043, 0.0401 -0.0085 0.0039, 0.0413 -0.0043 0.0043, 0.0413 -0.0043 0.0039, 0.0416 0.0003 0.0043, 0.0416 0.0003 0.0039, 0.0216 0.0212 0.0043, 0.0216 0.0212 0.0039, 0.0256 0.0208 0.0039, 0.0256 0.0208 0.0043, 0.03 0.0196 0.0039, 0.03 0.0196 0.0043, 0.0337 0.0174 0.0039, 0.0337 0.0174 0.0043, 0.0373 0.014 0.0039, 0.0373 0.014 0.0043, 0.0396 0.0103 0.0039, 0.0396 0.0103 0.0043, 0.0411 0.0059 0.0039, 0.0411 0.0059 0.0043, 0.0124 0.0196 0.0043, 0.0124 0.0196 0.0039, 0.0169 0.0208 0.0039, 0.0169 0.0208 0.0043, 0.0124 0.0143 0.0043, 0.0124 0.0143 0.0039, 0.0216 0.0168 0.0043, 0.0216 0.0168 0.0039, 0.0168 0.0162 0.0039, 0.0168 0.0162 0.0043, 0.0364 0.0006 0.0043, 0.0364 0.0006 0.0039, 0.0362 0.0036 0.0039, 0.0362 0.0036 0.0043, 0.0351 0.0079 0.0039, 0.0351 0.0079 0.0043, 0.0335 0.0109 0.0039, 0.0335 0.0109 0.0043, 0.0311 0.0135 0.0039, 0.0311 0.0135 0.0043, 0.0284 0.0153 0.0039, 0.0284 0.0153 0.0043, 0.0255 0.0164 0.0039, 0.0255 0.0164 0.0043, 0.0225 -0.0148 0.0043, 0.0225 -0.0148 0.0039, 0.0261 -0.0144 0.0039, 0.0261 -0.0144 0.0043, 0.029 -0.0134 0.0039, 0.029 -0.0134 0.0043, 0.0314 -0.0117 0.0039, 0.0314 -0.0117 0.0043, 0.0333 -0.0098 0.0039, 0.0333 -0.0098 0.0043, 0.0349 -0.0071 0.0039, 0.0349 -0.0071 0.0043, 0.036 -0.0037 0.0039, 0.036 -0.0037 0.0043, 0.0131 -0.0127 0.0039, 0.0131 -0.0127 0.0043, 0.0172 -0.0143 0.0039, 0.0172 -0.0143 0.0043, 0.045 -0.0144 0.0043, 0.045 -0.0187 0.0043, 0.045 -0.0144 0.0039, 0.045 -0.0187 0.0039, 0.0652 -0.0187 0.0043, 0.0652 -0.0187 0.0039, 0.0652 0.0207 0.0043, 0.0652 0.0207 0.0039, 0.0599 0.0207 0.0043, 0.0599 0.0207 0.0039, 0.0599 -0.0144 0.0043, 0.0599 -0.0144 0.0039
            ]
        }
        coordIndex [
            0,1,2,-1,2,1,3,-1,1,4,3,-1,3,4,5,-1,4,6,5,-1,5,6,7,-1,6,8,7,-1,7,8,9,-1,8,10,9,-1,9,10,11,-1,10,12,11,-1,11,12,13,-1,12,14,13,-1,13,14,15,-1,14,0,15,-1,15,0,2,-1,16,8,17,-1,17,8,6,-1,18,14,16,-1,16,14,12,-1,16,12,8,-1,8,12,10,-1,18,19,14,-1,14,19,20,-1,14,20,0,-1,0,20,21,-1,0,21,22,-1,22,23,0,-1,0,23,17,-1,0,17,1,-1,1,17,6,-1,1,6,4,-1,16,17,24,-1,24,17,25,-1,18,16,26,-1,26,16,24,-1,18,26,27,-1,18,27,19,-1,19,27,28,-1,19,28,20,-1,21,20,29,-1,29,20,28,-1,21,29,30,-1,21,30,22,-1,22,30,31,-1,22,31,23,-1,17,23,25,-1,25,23,31,-1,32,33,34,-1,34,33,35,-1,33,36,35,-1,35,36,37,-1,36,38,37,-1,37,38,39,-1,40,41,42,-1,40,42,43,-1,43,42,44,-1,43,44,45,-1,45,44,46,-1,45,46,47,-1,47,46,48,-1,47,48,49,-1,49,48,50,-1,49,50,51,-1,51,50,52,-1,51,52,53,-1,53,52,54,-1,53,54,55,-1,55,54,39,-1,55,39,38,-1,32,34,56,-1,32,56,57,-1,57,56,58,-1,57,58,59,-1,59,58,60,-1,59,60,61,-1,61,60,62,-1,61,62,63,-1,63,62,64,-1,63,64,65,-1,65,64,66,-1,65,66,67,-1,67,66,41,-1,67,41,40,-1,45,47,68,-1,68,47,49,-1,68,49,69,-1,69,49,51,-1,69,51,70,-1,70,51,53,-1,70,53,71,-1,71,53,55,-1,71,55,72,-1,72,55,38,-1,72,38,73,-1,73,38,36,-1,73,36,74,-1,74,36,33,-1,74,33,75,-1,75,33,32,-1,75,32,76,-1,76,32,57,-1,76,57,77,-1,77,57,59,-1,77,59,78,-1,78,59,61,-1,78,61,79,-1,79,61,63,-1,79,63,80,-1,80,63,65,-1,80,65,81,-1,81,65,67,-1,81,67,82,-1,82,67,40,-1,82,40,83,-1,83,40,43,-1,83,43,84,-1,84,43,45,-1,84,45,68,-1,72,73,85,-1,85,73,86,-1,72,85,87,-1,72,87,71,-1,71,87,88,-1,71,88,70,-1,70,88,89,-1,70,89,69,-1,69,89,90,-1,69,90,68,-1,68,90,91,-1,68,91,84,-1,84,91,92,-1,84,92,83,-1,83,92,93,-1,83,93,82,-1,82,93,94,-1,82,94,81,-1,81,94,95,-1,81,95,80,-1,80,95,96,-1,80,96,79,-1,79,96,97,-1,79,97,78,-1,78,97,98,-1,78,98,77,-1,77,98,99,-1,77,99,76,-1,76,99,100,-1,76,100,75,-1,74,75,101,-1,101,75,100,-1,73,74,86,-1,86,74,101,-1,102,103,104,-1,104,103,105,-1,103,106,105,-1,105,106,107,-1,106,108,107,-1,107,108,109,-1,108,110,109,-1,109,110,111,-1,110,112,111,-1,111,112,113,-1,112,114,113,-1,113,114,115,-1,114,116,115,-1,115,116,117,-1,116,118,117,-1,117,118,119,-1,118,120,119,-1,119,120,121,-1,120,122,121,-1,121,122,123,-1,122,124,123,-1,123,124,125,-1,124,102,125,-1,125,102,104,-1,106,103,102,-1,102,124,106,-1,106,124,122,-1,106,122,108,-1,112,110,114,-1,114,110,108,-1,114,108,116,-1,116,108,122,-1,116,122,118,-1,118,122,120,-1,126,127,128,-1,128,127,129,-1,129,127,130,-1,131,132,133,-1,131,133,134,-1,134,133,135,-1,134,135,130,-1,130,135,136,-1,130,136,129,-1,132,131,137,-1,137,131,138,-1,137,138,139,-1,139,138,140,-1,139,140,141,-1,141,140,142,-1,141,142,143,-1,143,142,144,-1,143,144,145,-1,145,144,146,-1,145,146,147,-1,147,146,148,-1,147,148,149,-1,149,148,150,-1,149,150,151,-1,152,153,154,-1,152,154,155,-1,155,154,156,-1,155,156,157,-1,157,156,158,-1,157,158,159,-1,159,158,160,-1,159,160,161,-1,161,160,162,-1,161,162,163,-1,163,162,164,-1,163,164,165,-1,165,164,151,-1,165,151,150,-1,166,167,168,-1,166,168,169,-1,169,168,153,-1,169,153,152,-1,166,170,167,-1,167,170,171,-1,172,173,174,-1,172,174,175,-1,175,174,171,-1,175,171,170,-1,176,177,178,-1,176,178,179,-1,179,178,180,-1,179,180,181,-1,181,180,182,-1,181,182,183,-1,183,182,184,-1,183,184,185,-1,185,184,186,-1,185,186,187,-1,187,186,188,-1,187,188,189,-1,189,188,173,-1,189,173,172,-1,190,191,192,-1,190,192,193,-1,193,192,194,-1,193,194,195,-1,195,194,196,-1,195,196,197,-1,197,196,198,-1,197,198,199,-1,199,198,200,-1,199,200,201,-1,201,200,202,-1,201,202,203,-1,203,202,177,-1,203,177,176,-1,126,128,204,-1,126,204,205,-1,205,204,206,-1,205,206,207,-1,207,206,191,-1,207,191,190,-1,193,131,190,-1,190,131,134,-1,190,134,207,-1,207,134,130,-1,207,130,205,-1,205,130,127,-1,205,127,126,-1,170,166,175,-1,175,166,169,-1,175,169,172,-1,172,169,152,-1,172,152,189,-1,189,152,155,-1,189,155,187,-1,187,155,157,-1,187,157,185,-1,185,157,159,-1,185,159,183,-1,183,159,161,-1,183,161,181,-1,181,161,163,-1,181,163,179,-1,179,163,165,-1,179,165,176,-1,176,165,150,-1,176,150,203,-1,203,150,148,-1,203,148,201,-1,201,148,146,-1,201,146,199,-1,199,146,144,-1,199,144,197,-1,197,144,142,-1,197,142,195,-1,195,142,140,-1,195,140,193,-1,193,140,138,-1,193,138,131,-1,208,209,210,-1,210,209,211,-1,209,212,211,-1,211,212,213,-1,212,214,213,-1,213,214,215,-1,214,216,215,-1,215,216,217,-1,216,218,217,-1,217,218,219,-1,218,208,219,-1,219,208,210,-1,216,214,218,-1,218,214,212,-1,218,212,208,-1,208,212,209,-1,
        ]
    }
}
Shape{
    appearance Appearance {
        material  Material {
            diffuseColor 0.09803921568627451 0.30980392156862746 0.0
            specularColor 0.050980392156862744 0.1568627450980392 0.0
            ambientIntensity 0.2112
            transparency 0.0
            shininess 0.5
        }
    }
    geometry IndexedFaceSet {
        ccw TRUE
        solid FALSE
        coord DEF co Coordinate {
            point [
                -0.0695 -0.0033 0.0039, -0.0827 -0.0033 0.0039, -0.0754 0.0131 0.0039, -0.0768 0.0131 0.0039, -0.0758 0.0145 0.0039, -0.0764 0.0145 0.0039, -0.0761 0.0159 0.0039, -0.0762 0.0159 0.0039, -0.0294 0.0164 0.0039, -0.0294 -0.0144 0.0039, -0.0352 0.0164 0.0039, -0.035 -0.0144 0.0039, -0.0392 -0.014 0.0039, -0.0505 0.0014 0.0039, -0.0502 0.0053 0.0039, -0.0493 0.0084 0.0039, -0.0399 0.0159 0.0039, -0.0425 -0.0129 0.0039, -0.0452 -0.0113 0.0039, -0.0474 -0.0092 0.0039, -0.049 -0.0064 0.0039, -0.0502 -0.0027 0.0039, -0.0479 0.0108 0.0039, -0.046 0.0129 0.0039, -0.0431 0.0147 0.0039
            ]
        }
        coordIndex [
            0,1,2,-1,2,1,3,-1,2,3,4,-1,4,3,5,-1,4,5,6,-1,6,5,7,-1,8,9,10,-1,10,9,11,-1,10,11,12,-1,13,14,10,-1,10,14,15,-1,10,15,16,-1,12,17,10,-1,10,17,18,-1,10,18,19,-1,19,20,10,-1,10,20,21,-1,10,21,13,-1,22,23,15,-1,15,23,24,-1,15,24,16,-1,
        ]
    }
}