#VRML V2.0 utf8
# 3D model generated by kicad-lcsc-manager
# Based on easyeda2kicad.py v1.0.1

Shape{
    appearance Appearance {
        material  Material {
            diffuseColor 0.25098039215686274 0.25098039215686274 0.25098039215686274
            specularColor 0.12549019607843137 0.12549019607843137 0.12549019607843137
            ambientIntensity 0.251
            transparency 0.0
            shininess 0.5
        }
    }
    geometry IndexedFaceSet {
        ccw TRUE
        solid FALSE
        coord DEF co Coordinate {
            point [
                0.151 -0.2461 0.0039, 0.0964 -0.2461 0.0039, 0.0964 -0.0194 0.0039, 0.1969 0.0984 0.0039, 0.2168 0.0984 0.0039, 0.2168 0.0205 0.0039, -0.1883 0.1004 0.0039, -0.187 0.1012 0.0039, -0.187 0.0205 0.0039, -0.0787 -0.0194 0.0039, -0.187 -0.0194 0.0039, -0.0787 0.1969 0.0039, -0.187 0.2953 0.0039, 0.0787 0.1969 0.0039, 0.0964 0.2953 0.0039, -0.0651 0.0989 0.0039, -0.0717 0.0961 0.0039, -0.0651 0.1462 0.0039, -0.0717 0.149 0.0039, -0.1791 0.1096 0.0039, -0.0787 0.1499 0.0039, -0.1815 0.1058 0.0039, -0.1846 0.1027 0.0039, -0.1777 0.2012 0.0039, -0.1791 0.2054 0.0039, -0.1815 0.2091 0.0039, -0.0514 0.1226 0.0039, -0.0523 0.1155 0.0039, -0.0594 0.1419 0.0039, -0.0551 0.1362 0.0039, -0.0523 0.1296 0.0039, -0.0551 0.1089 0.0039, -0.0594 0.1032 0.0039, -0.1777 0.1137 0.0039, -0.1772 0.1181 0.0039, -0.1772 0.1969 0.0039, 0.0787 -0.0194 0.0039, 0.0787 -0.1969 0.0039, -0.0787 -0.1969 0.0039, -0.187 -0.2461 0.0039, -0.1846 -0.2122 0.0039, -0.1815 -0.2091 0.0039, -0.1791 -0.2054 0.0039, -0.1777 -0.2012 0.0039, -0.187 -0.1012 0.0039, -0.1846 -0.1027 0.0039, -0.1815 -0.1058 0.0039, -0.1791 -0.1096 0.0039, -0.1772 -0.1969 0.0039, -0.1772 -0.1181 0.0039, -0.1777 -0.1137 0.0039, -0.0787 0.0952 0.0039, -0.0787 0.0205 0.0039, -0.2953 0.0984 0.0039, -0.1969 0.0984 0.0039, -0.1925 0.0989 0.0039, -0.1883 -0.1004 0.0039, -0.1925 -0.0989 0.0039, -0.1969 -0.0984 0.0039, -0.1925 -0.216 0.0039, -0.1883 -0.2146 0.0039, -0.187 -0.2138 0.0039, -0.2953 -0.2461 0.0039, -0.2953 -0.2165 0.0039, -0.1969 -0.2165 0.0039, 0.1879 -0.2461 0.0039, 0.1879 -0.2144 0.0039, 0.1883 -0.2146 0.0039, 0.2953 -0.2165 0.0039, 0.2953 -0.2461 0.0039, 0.2516 -0.2165 0.0039, 0.2516 -0.2461 0.0039, 0.2168 -0.2165 0.0039, 0.2168 -0.2461 0.0039, 0.1969 -0.2165 0.0039, 0.1925 -0.216 0.0039, 0.1846 -0.2122 0.0039, 0.1815 -0.2091 0.0039, 0.1772 -0.1969 0.0039, 0.1777 -0.2012 0.0039, 0.1791 -0.2054 0.0039, 0.1815 -0.1058 0.0039, 0.1791 -0.1096 0.0039, 0.151 -0.0194 0.0039, 0.1777 -0.1137 0.0039, 0.1772 -0.1181 0.0039, 0.1925 -0.0989 0.0039, 0.1883 -0.1004 0.0039, 0.1879 -0.0194 0.0039, 0.1879 -0.1006 0.0039, 0.1846 -0.1027 0.0039, 0.2168 -0.0194 0.0039, 0.2168 -0.0984 0.0039, 0.1969 -0.0984 0.0039, 0.2516 0.0205 0.0039, 0.2516 0.0984 0.0039, 0.2953 0.0205 0.0039, 0.2953 0.0984 0.0039, 0.1846 0.1027 0.0039, 0.1879 0.1006 0.0039, 0.1879 0.0205 0.0039, 0.1883 0.1004 0.0039, 0.1925 0.0989 0.0039, 0.1791 0.2054 0.0039, 0.1777 0.2012 0.0039, 0.151 0.2953 0.0039, 0.1815 0.2091 0.0039, 0.151 0.0205 0.0039, 0.1815 0.1058 0.0039, 0.1791 0.1096 0.0039, 0.1772 0.1969 0.0039, 0.1772 0.1181 0.0039, 0.1777 0.1137 0.0039, 0.1925 0.216 0.0039, 0.1883 0.2146 0.0039, 0.1879 0.2953 0.0039, 0.1879 0.2144 0.0039, 0.1846 0.2122 0.0039, 0.2953 0.2953 0.0039, 0.2953 0.2165 0.0039, 0.2516 0.2953 0.0039, 0.2516 0.2165 0.0039, 0.2168 0.2953 0.0039, 0.2168 0.2165 0.0039, 0.1969 0.2165 0.0039, -0.1846 0.2122 0.0039, -0.187 0.2138 0.0039, -0.1883 0.2146 0.0039, -0.2953 0.2165 0.0039, -0.2953 0.2953 0.0039, -0.1969 0.2165 0.0039, -0.1925 0.216 0.0039, 0.2206 -0.0171 0.0039, 0.2206 -0.0128 0.0039, 0.2248 -0.0188 0.0039, 0.2288 -0.0194 0.0039, 0.2303 -0.0196 0.0039, 0.2516 -0.0984 0.0039, 0.2328 0.0205 0.0039, 0.2299 0.0207 0.0039, 0.2264 0.0205 0.0039, 0.2251 0.0204 0.0039, 0.2206 0.0192 0.0039, 0.2206 0.0139 0.0039, 0.225 0.0158 0.0039, 0.2213 -0.0132 0.0039, 0.2298 0.0164 0.0039, 0.2337 0.016 0.0039, 0.2366 0.0149 0.0039, 0.2394 0.0131 0.0039, 0.2417 0.0105 0.0039, 0.2446 0.0001 0.0039, 0.2442 -0.0041 0.0039, 0.2431 -0.0075 0.0039, 0.2344 -0.0149 0.0039, 0.2307 -0.0153 0.0039, 0.2372 -0.0138 0.0039, 0.2397 -0.0122 0.0039, 0.2415 -0.0102 0.0039, 0.2255 -0.0147 0.0039, 0.2434 0.0074 0.0039, 0.2444 0.0032 0.0039, 0.2401 -0.0178 0.0039, 0.2433 -0.0158 0.0039, 0.2516 -0.0194 0.0039, 0.2462 -0.0127 0.0039, 0.2483 -0.0089 0.0039, 0.2314 -0.0196 0.0039, 0.2337 -0.0194 0.0039, 0.2363 -0.0191 0.0039, 0.2478 0.0099 0.0039, 0.2455 0.0136 0.0039, 0.2419 0.017 0.0039, 0.2382 0.0191 0.0039, 0.2338 0.0204 0.0039, 0.2495 -0.0047 0.0039, 0.2499 -0.0002 0.0039, 0.2493 0.0054 0.0039, -0.2953 -0.2953 0.0039, -0.187 -0.2953 0.0039, 0.0964 -0.2953 0.0039, 0.151 -0.2953 0.0039, 0.1879 -0.2953 0.0039, 0.2168 -0.2953 0.0039, 0.2516 -0.2953 0.0039, 0.2953 -0.2953 0.0039, 0.2532 -0.0148 0.0039, 0.2532 -0.0191 0.0039, 0.2734 -0.0191 0.0039, 0.2681 -0.0148 0.0039, 0.2681 0.0202 0.0039, 0.2734 0.0202 0.0039, 0.2953 -0.0194 0.0039, 0.2953 -0.0984 0.0039, 0.1927 0.0202 0.0039, 0.1927 0.0159 0.0039, 0.1918 -0.0148 0.0039, 0.1918 -0.0191 0.0039, 0.2129 -0.0191 0.0039, 0.2129 0.0202 0.0039, 0.2076 -0.0014 0.0039, 0.2076 -0.0148 0.0039, 0.1937 -0.0014 0.0039, 0.1937 0.003 0.0039, 0.2076 0.003 0.0039, 0.2076 0.0159 0.0039, 0.1544 -0.0083 0.0039, 0.153 -0.0042 0.0039, 0.1524 0.001 0.0039, 0.1566 -0.0119 0.0039, 0.1599 -0.015 0.0039, 0.164 -0.0174 0.0039, 0.173 0.0202 0.0039, 0.1673 0.0196 0.0039, 0.1627 0.018 0.0039, 0.1584 0.0151 0.0039, 0.1584 0.0151 0.0039, 0.1556 0.012 0.0039, 0.1538 0.0086 0.0039, 0.1527 0.0048 0.0039, 0.1685 -0.0187 0.0039, 0.1734 -0.0191 0.0039, 0.1841 -0.0191 0.0039, 0.1841 0.0202 0.0039, 0.1438 -0.0191 0.0039, 0.1495 -0.0191 0.0039, 0.1294 0.0202 0.0039, 0.114 -0.0191 0.0039, 0.1198 -0.0191 0.0039, 0.1238 -0.0081 0.0039, 0.14 -0.0081 0.0039, 0.1347 0.0202 0.0039, 0.0964 0.0205 0.0039, 0.0787 0.0205 0.0039, -0.2953 0.0205 0.0039, -0.2953 -0.0194 0.0039, -0.2953 -0.0984 0.0039
            ]
        }
        coordIndex [
            0,1,2,-1,3,4,5,-1,6,7,8,-1,9,10,8,-1,11,12,13,-1,13,12,14,-1,15,16,17,-1,17,16,18,-1,19,20,21,-1,21,20,8,-1,21,8,22,-1,22,8,7,-1,23,24,11,-1,11,24,25,-1,11,25,12,-1,17,26,27,-1,28,29,17,-1,17,29,30,-1,17,30,26,-1,27,31,17,-1,17,31,32,-1,17,32,15,-1,19,33,20,-1,20,33,34,-1,20,34,11,-1,11,34,35,-1,11,35,23,-1,36,2,37,-1,37,2,1,-1,37,1,38,-1,38,1,39,-1,38,39,40,-1,40,41,38,-1,38,41,42,-1,38,42,43,-1,44,10,45,-1,45,10,9,-1,45,9,46,-1,46,9,47,-1,43,48,38,-1,38,48,49,-1,38,49,9,-1,9,49,50,-1,9,50,47,-1,18,16,20,-1,20,16,51,-1,20,51,8,-1,8,51,52,-1,8,52,9,-1,53,54,8,-1,8,54,55,-1,8,55,6,-1,44,56,10,-1,10,56,57,-1,10,57,58,-1,59,60,39,-1,39,60,61,-1,39,61,40,-1,62,63,39,-1,39,63,64,-1,39,64,59,-1,65,66,67,-1,68,69,70,-1,70,69,71,-1,70,71,72,-1,72,71,73,-1,72,73,74,-1,74,73,65,-1,74,65,75,-1,75,65,67,-1,66,65,76,-1,76,65,0,-1,76,0,77,-1,78,79,0,-1,0,79,80,-1,0,80,77,-1,81,82,83,-1,83,82,84,-1,83,84,85,-1,86,87,88,-1,88,87,89,-1,88,89,83,-1,83,89,90,-1,83,90,81,-1,91,92,88,-1,88,92,93,-1,88,93,86,-1,94,95,96,-1,96,95,97,-1,98,99,100,-1,100,99,101,-1,100,101,102,-1,103,104,105,-1,103,105,106,-1,98,107,108,-1,108,107,109,-1,110,111,107,-1,107,111,112,-1,107,112,109,-1,113,114,115,-1,115,114,116,-1,115,116,105,-1,105,116,117,-1,105,117,106,-1,118,119,120,-1,120,119,121,-1,120,121,122,-1,122,121,123,-1,122,123,115,-1,115,123,124,-1,115,124,113,-1,25,125,12,-1,12,125,126,-1,12,126,127,-1,128,129,130,-1,130,129,12,-1,130,12,131,-1,131,12,127,-1,132,91,133,-1,133,91,5,-1,132,134,91,-1,91,134,135,-1,91,135,92,-1,92,135,136,-1,92,136,137,-1,138,139,4,-1,4,139,140,-1,4,140,5,-1,5,140,141,-1,141,142,5,-1,5,142,143,-1,5,143,133,-1,133,143,144,-1,133,144,145,-1,145,144,146,-1,145,146,147,-1,147,148,145,-1,145,148,149,-1,145,149,150,-1,151,152,145,-1,145,152,153,-1,154,155,156,-1,156,155,157,-1,153,158,145,-1,145,158,157,-1,145,157,159,-1,159,157,155,-1,150,160,145,-1,145,160,161,-1,145,161,151,-1,162,163,164,-1,164,163,165,-1,164,165,166,-1,136,167,137,-1,137,167,168,-1,137,168,164,-1,164,168,169,-1,164,169,162,-1,170,171,94,-1,94,171,172,-1,94,172,173,-1,4,95,138,-1,138,95,94,-1,138,94,174,-1,174,94,173,-1,166,175,164,-1,164,175,176,-1,164,176,94,-1,94,176,177,-1,94,177,170,-1,178,62,179,-1,179,62,39,-1,179,39,180,-1,180,39,1,-1,180,1,181,-1,181,1,0,-1,181,0,182,-1,182,0,65,-1,182,65,183,-1,183,65,73,-1,183,73,184,-1,184,73,71,-1,184,71,185,-1,185,71,69,-1,94,186,164,-1,164,186,187,-1,164,187,188,-1,189,186,190,-1,190,186,94,-1,190,94,191,-1,191,94,96,-1,191,96,188,-1,188,96,192,-1,188,192,164,-1,164,192,193,-1,164,193,137,-1,102,3,100,-1,100,3,5,-1,100,5,194,-1,194,195,100,-1,100,195,196,-1,100,196,88,-1,88,196,197,-1,88,197,91,-1,91,197,198,-1,91,198,5,-1,5,198,199,-1,5,199,194,-1,200,201,202,-1,202,201,196,-1,202,196,203,-1,203,196,195,-1,203,195,204,-1,204,195,205,-1,206,83,207,-1,207,83,208,-1,206,209,83,-1,83,209,210,-1,83,210,211,-1,98,100,107,-1,107,100,212,-1,107,212,213,-1,213,214,107,-1,107,214,215,-1,107,215,216,-1,216,217,107,-1,107,217,218,-1,107,218,219,-1,211,220,83,-1,83,220,221,-1,83,221,88,-1,88,221,222,-1,88,222,100,-1,100,222,223,-1,100,223,212,-1,224,225,83,-1,83,225,107,-1,83,107,208,-1,208,107,219,-1,226,227,2,-1,2,227,228,-1,229,230,228,-1,228,230,224,-1,228,224,2,-1,2,224,83,-1,2,83,0,-1,0,83,85,-1,0,85,78,-1,225,231,107,-1,107,231,226,-1,107,226,232,-1,232,226,2,-1,232,2,233,-1,233,2,36,-1,53,8,234,-1,234,8,10,-1,234,10,235,-1,235,10,58,-1,235,58,236,-1,233,13,232,-1,232,13,14,-1,232,14,107,-1,107,14,105,-1,107,105,110,-1,110,105,104,-1,
        ]
    }
}
Shape{
    appearance Appearance {
        material  Material {
            diffuseColor 1.0 1.0 0.0
            specularColor 0.5019607843137255 0.5019607843137255 0.0
            ambientIntensity 0.886
            transparency 0.0
            shininess 0.5
        }
    }
    geometry IndexedFaceSet {
        ccw TRUE
        solid FALSE
        coord DEF co Coordinate {
            point [
                -0.0787 0.1969 0.0039, -0.0787 0.1969 0.0, -0.0787 0.1499 0.0039, -0.0787 0.1499 0.0
            ]
        }
        coordIndex [
            0,1,2,-1,2,1,3,-1,
        ]
    }
}
Shape{
    appearance Appearance {
        material  Material {
            diffuseColor 0.25098039215686274 0.25098039215686274 0.25098039215686274
            specularColor 0.12549019607843137 0.12549019607843137 0.12549019607843137
            ambientIntensity 0.251
            transparency 0.0
            shininess 0.5
        }
    }
    geometry IndexedFaceSet {
        ccw TRUE
        solid FALSE
        coord DEF co Coordinate {
            point [
                0.0515 0.2953 0.0704, 0.0515 0.2953 0.0469, -0.0515 0.2953 0.0469, 0.2953 0.2953 0.2165, -0.0515 0.2953 0.0704, -0.2953 0.2953 0.2165, -0.0991 0.2953 0.0704, 0.2953 0.2953 0.0039, 0.2516 0.2953 0.0039, -0.0991 0.2953 0.0469, -0.187 0.2953 0.0039, -0.2953 0.2953 0.0039, 0.2168 0.2953 0.0039, 0.1879 0.2953 0.0039, 0.151 0.2953 0.0039, 0.0991 0.2953 0.0704, 0.0991 0.2953 0.0469, 0.0964 0.2953 0.0039, 0.2953 -0.2461 0.0039, 0.2953 -0.2165 0.0039, 0.2953 -0.2165 0.0827, 0.2953 0.0205 0.0039, 0.2953 0.0984 0.0039, 0.2953 0.0984 0.0827, 0.2953 -0.0984 0.0827, 0.2953 -0.0984 0.0039, 0.2953 -0.0194 0.0039, 0.2953 0.2165 0.0039, 0.2953 0.2165 0.0827, 0.2953 -0.2953 0.0039, 0.2953 -0.2953 0.2165, -0.2953 -0.0194 0.0039, -0.2953 -0.0984 0.0039, -0.2953 -0.0984 0.0827, -0.2953 0.0984 0.0827, -0.2953 0.0984 0.0039, -0.2953 0.0205 0.0039, -0.2953 -0.2165 0.0827, -0.2953 -0.2953 0.2165, -0.2953 0.2165 0.0039, -0.2953 0.2165 0.0827, -0.2953 -0.2165 0.0039, -0.2953 -0.2461 0.0039, -0.2953 -0.2953 0.0039, -0.187 -0.2953 0.0039, -0.0515 -0.2953 0.0704, 0.0515 -0.2953 0.0469, 0.0515 -0.2953 0.0704, -0.0991 -0.2953 0.0704, 0.0991 -0.2953 0.0704, 0.0991 -0.2953 0.0469, 0.0964 -0.2953 0.0039, -0.0515 -0.2953 0.0469, -0.0991 -0.2953 0.0469, 0.2516 -0.2953 0.0039, 0.2168 -0.2953 0.0039, 0.151 -0.2953 0.0039, 0.1879 -0.2953 0.0039, -0.2163 0.2146 0.2165, -0.2215 0.2125 0.2165, -0.2271 0.2117 0.2165, -0.2119 0.2484 0.2165, -0.2085 0.2439 0.2165, -0.0408 0.1254 0.2165, -0.2063 0.2387 0.2165, -0.0562 0.1193 0.2165, -0.0707 0.1114 0.2165, -0.0562 -0.1193 0.2165, -0.0408 -0.1254 0.2165, -0.0247 -0.1296 0.2165, -0.2326 0.2125 0.2165, -0.2378 0.2146 0.2165, -0.2422 0.218 0.2165, 0.1319 0.0 0.2165, 0.1309 -0.0165 0.2165, -0.2456 0.2225 0.2165, -0.2478 0.2276 0.2165, -0.2485 0.2332 0.2165, -0.2478 0.2387 0.2165, -0.2456 0.2439 0.2165, -0.1278 -0.0328 0.2165, -0.1309 -0.0165 0.2165, -0.2056 0.2332 0.2165, -0.1319 -0.0 0.2165, -0.1309 0.0165 0.2165, 0.1278 -0.0328 0.2165, 0.1226 -0.0486 0.2165, 0.1156 -0.0635 0.2165, -0.1226 -0.0486 0.2165, 0.1067 -0.0775 0.2165, 0.0961 -0.0903 0.2165, 0.0841 -0.1016 0.2165, -0.0707 -0.1114 0.2165, -0.0841 -0.1016 0.2165, -0.0961 -0.0903 0.2165, -0.1067 -0.0775 0.2165, -0.1156 -0.0635 0.2165, -0.2063 0.2276 0.2165, -0.2085 0.2225 0.2165, -0.2119 0.218 0.2165, -0.2422 0.2484 0.2165, -0.2378 0.2518 0.2165, -0.2326 0.2539 0.2165, -0.2163 0.2518 0.2165, -0.0247 0.1296 0.2165, -0.0083 0.1316 0.2165, -0.1278 0.0328 0.2165, -0.1226 0.0486 0.2165, -0.1156 0.0635 0.2165, 0.0707 -0.1114 0.2165, 0.0562 -0.1193 0.2165, 0.0408 -0.1254 0.2165, -0.1067 0.0775 0.2165, -0.0961 0.0903 0.2165, -0.0841 0.1016 0.2165, 0.0247 -0.1296 0.2165, 0.0083 -0.1316 0.2165, -0.0083 -0.1316 0.2165, -0.2271 0.2546 0.2165, -0.2215 0.2539 0.2165, 0.0083 0.1316 0.2165, 0.0247 0.1296 0.2165, 0.0408 0.1254 0.2165, 0.0562 0.1193 0.2165, 0.0707 0.1114 0.2165, 0.0841 0.1016 0.2165, 0.0961 0.0903 0.2165, 0.1067 0.0775 0.2165, 0.1156 0.0635 0.2165, 0.1226 0.0486 0.2165, 0.1278 0.0328 0.2165, 0.1309 0.0165 0.2165
            ]
        }
        coordIndex [
            0,1,2,-1,3,4,5,-1,5,4,6,-1,3,7,8,-1,6,9,5,-1,5,9,10,-1,5,10,11,-1,8,12,3,-1,3,12,13,-1,3,13,14,-1,2,4,0,-1,0,4,3,-1,0,3,15,-1,15,3,14,-1,15,14,16,-1,16,14,17,-1,16,17,1,-1,1,17,10,-1,1,10,2,-1,2,10,9,-1,18,19,20,-1,21,22,23,-1,24,25,26,-1,27,7,28,-1,28,7,3,-1,28,3,23,-1,29,18,30,-1,30,18,20,-1,30,20,3,-1,3,20,24,-1,3,24,23,-1,23,24,26,-1,23,26,21,-1,31,32,33,-1,34,35,36,-1,33,37,38,-1,11,39,5,-1,5,39,40,-1,5,40,38,-1,38,40,34,-1,38,34,33,-1,33,34,36,-1,33,36,31,-1,37,41,38,-1,38,41,42,-1,38,42,43,-1,38,43,44,-1,45,46,47,-1,38,44,48,-1,48,45,38,-1,38,45,47,-1,38,47,30,-1,30,47,49,-1,30,49,50,-1,51,52,44,-1,44,52,53,-1,44,53,48,-1,29,30,54,-1,54,30,55,-1,45,52,46,-1,46,52,51,-1,46,51,50,-1,50,51,56,-1,50,56,30,-1,30,56,57,-1,30,57,55,-1,58,59,38,-1,38,59,60,-1,61,62,63,-1,63,62,64,-1,63,64,65,-1,65,64,66,-1,67,38,68,-1,68,38,69,-1,60,70,38,-1,38,70,71,-1,38,71,72,-1,3,73,30,-1,30,73,74,-1,72,75,38,-1,38,75,76,-1,38,76,5,-1,76,77,5,-1,5,77,78,-1,5,78,79,-1,80,81,82,-1,82,81,83,-1,82,83,84,-1,74,85,30,-1,30,85,86,-1,30,86,87,-1,38,88,80,-1,87,89,30,-1,30,89,90,-1,30,90,91,-1,67,92,38,-1,38,92,93,-1,38,93,94,-1,94,95,38,-1,38,95,96,-1,38,96,88,-1,82,97,80,-1,80,97,98,-1,80,98,38,-1,38,98,99,-1,38,99,58,-1,79,100,5,-1,5,100,101,-1,5,101,102,-1,61,63,103,-1,103,63,104,-1,103,104,105,-1,84,106,82,-1,82,106,107,-1,82,107,108,-1,91,109,30,-1,30,109,110,-1,30,110,111,-1,108,112,82,-1,82,112,113,-1,82,113,64,-1,64,113,114,-1,64,114,66,-1,111,115,30,-1,30,115,116,-1,30,116,38,-1,38,116,117,-1,38,117,69,-1,102,118,5,-1,5,118,119,-1,5,119,3,-1,3,119,103,-1,105,120,103,-1,103,120,121,-1,103,121,3,-1,3,121,122,-1,3,122,123,-1,123,124,3,-1,3,124,125,-1,3,125,126,-1,126,127,3,-1,3,127,128,-1,3,128,129,-1,129,130,3,-1,3,130,131,-1,3,131,73,-1,
        ]
    }
}
Shape{
    appearance Appearance {
        material  Material {
            diffuseColor 0.5019607843137255 0.5019607843137255 0.5019607843137255
            specularColor 0.25098039215686274 0.25098039215686274 0.25098039215686274
            ambientIntensity 0.502
            transparency 0.0
            shininess 0.5
        }
    }
    geometry IndexedFaceSet {
        ccw TRUE
        solid FALSE
        coord DEF co Coordinate {
            point [
                -0.2056 0.2332 0.2161, -0.2056 0.2332 0.2165, -0.2063 0.2387 0.2161, -0.2063 0.2387 0.2165, -0.2085 0.2439 0.2161, -0.2085 0.2439 0.2165, -0.2119 0.2484 0.2161, -0.2119 0.2484 0.2165, -0.2163 0.2518 0.2161, -0.2163 0.2518 0.2165, -0.2215 0.2539 0.2161, -0.2215 0.2539 0.2165, -0.2271 0.2546 0.2161, -0.2271 0.2546 0.2165, -0.2326 0.2539 0.2161, -0.2326 0.2539 0.2165, -0.2378 0.2518 0.2161, -0.2378 0.2518 0.2165, -0.2422 0.2484 0.2161, -0.2422 0.2484 0.2165, -0.2456 0.2439 0.2161, -0.2456 0.2439 0.2165, -0.2478 0.2387 0.2161, -0.2478 0.2387 0.2165, -0.2485 0.2332 0.2161, -0.2485 0.2332 0.2165, -0.2478 0.2276 0.2161, -0.2478 0.2276 0.2165, -0.2456 0.2225 0.2161, -0.2456 0.2225 0.2165, -0.2422 0.218 0.2161, -0.2422 0.218 0.2165, -0.2378 0.2146 0.2161, -0.2378 0.2146 0.2165, -0.2326 0.2125 0.2161, -0.2326 0.2125 0.2165, -0.2271 0.2117 0.2161, -0.2271 0.2117 0.2165, -0.2215 0.2125 0.2161, -0.2215 0.2125 0.2165, -0.2163 0.2146 0.2161, -0.2163 0.2146 0.2165, -0.2119 0.218 0.2161, -0.2119 0.218 0.2165, -0.2085 0.2225 0.2161, -0.2085 0.2225 0.2165, -0.2063 0.2276 0.2161, -0.2063 0.2276 0.2165, -0.2271 0.2332 0.2161
            ]
        }
        coordIndex [
            0,1,2,-1,2,1,3,-1,2,3,4,-1,4,3,5,-1,4,5,6,-1,6,5,7,-1,6,7,8,-1,8,7,9,-1,8,9,10,-1,10,9,11,-1,10,11,12,-1,12,11,13,-1,12,13,14,-1,14,13,15,-1,14,15,16,-1,16,15,17,-1,16,17,18,-1,18,17,19,-1,18,19,20,-1,20,19,21,-1,20,21,22,-1,22,21,23,-1,22,23,24,-1,24,23,25,-1,24,25,26,-1,26,25,27,-1,26,27,28,-1,28,27,29,-1,28,29,30,-1,30,29,31,-1,30,31,32,-1,32,31,33,-1,32,33,34,-1,34,33,35,-1,34,35,36,-1,36,35,37,-1,36,37,38,-1,38,37,39,-1,38,39,40,-1,40,39,41,-1,40,41,42,-1,42,41,43,-1,42,43,44,-1,44,43,45,-1,44,45,46,-1,46,45,47,-1,46,47,0,-1,0,47,1,-1,44,46,48,-1,48,46,0,-1,48,0,2,-1,38,40,48,-1,48,40,42,-1,48,42,44,-1,32,34,48,-1,48,34,36,-1,48,36,38,-1,26,28,48,-1,48,28,30,-1,48,30,32,-1,20,22,48,-1,48,22,24,-1,48,24,26,-1,14,16,48,-1,48,16,18,-1,48,18,20,-1,8,10,48,-1,48,10,12,-1,48,12,14,-1,2,4,48,-1,48,4,6,-1,48,6,8,-1,
        ]
    }
}
Shape{
    appearance Appearance {
        material  Material {
            diffuseColor 0.25098039215686274 0.25098039215686274 0.25098039215686274
            specularColor 0.12549019607843137 0.12549019607843137 0.12549019607843137
            ambientIntensity 0.251
            transparency 0.0
            shininess 0.5
        }
    }
    geometry IndexedFaceSet {
        ccw TRUE
        solid FALSE
        coord DEF co Coordinate {
            point [
                0.0872 -0.0349 0.1507, 0.0848 -0.0409 0.1507, 0.0994 -0.0546 0.2036, 0.0952 -0.0612 0.2036, 0.0791 -0.0508 0.1507, 0.0778 -0.053 0.1507, 0.0917 -0.0667 0.2036, 0.069 -0.064 0.1507, 0.007 -0.0939 0.1507, 0.0212 -0.1114 0.2036, 0.021 -0.0918 0.1507, 0.0267 -0.11 0.2036, 0.0222 -0.0914 0.1507, 0.035 -0.1078 0.2036, 0.0344 -0.0877 0.1507, 0.0471 -0.1031 0.2036, 0.039 -0.0854 0.1507, 0.0483 -0.1026 0.2036, 0.0471 -0.0815 0.1507, 0.0608 -0.0957 0.2036, 0.0545 -0.0765 0.1507, 0.0656 -0.0922 0.2036, 0.0587 -0.0736 0.1507, 0.0723 -0.0874 0.2036, 0.0681 -0.0649 0.1507, 0.082 -0.0782 0.2036, 0.0827 -0.0776 0.2036, -0.0471 -0.0815 0.1507, -0.0483 -0.1026 0.2036, -0.0344 -0.0877 0.1507, -0.037 -0.1071 0.2036, -0.0307 -0.0888 0.1507, -0.035 -0.1078 0.2036, -0.021 -0.0918 0.1507, -0.0212 -0.1114 0.2036, -0.0134 -0.0929 0.1507, -0.0161 -0.112 0.2036, -0.007 -0.0939 0.1507, -0.0071 -0.1132 0.2036, 0.0045 -0.0939 0.1507, 0.0054 -0.1132 0.2036, 0.0071 -0.1132 0.2036, -0.0587 -0.0736 0.1507, -0.0608 -0.0957 0.2036, -0.0566 -0.098 0.2036, -0.0931 -0.014 0.1507, -0.1098 -0.0282 0.2036, -0.0903 -0.0265 0.1507, -0.1086 -0.0319 0.2036, -0.09 -0.0278 0.1507, -0.1054 -0.0417 0.2036, -0.0848 -0.0409 0.1507, -0.1007 -0.0519 0.2036, -0.0836 -0.0431 0.1507, -0.0994 -0.0546 0.2036, -0.0778 -0.053 0.1507, -0.0917 -0.0667 0.2036, -0.0738 -0.058 0.1507, -0.089 -0.07 0.2036, -0.069 -0.064 0.1507, -0.0827 -0.0776 0.2036, -0.0615 -0.071 0.1507, -0.0742 -0.0856 0.2036, -0.0723 -0.0874 0.2036, -0.0778 0.053 0.1507, -0.0994 0.0546 0.2036, -0.0836 0.0431 0.1507, -0.1007 0.0519 0.2036, -0.0848 0.0409 0.1507, -0.1054 0.0417 0.2036, -0.09 0.0278 0.1507, -0.1086 0.0319 0.2036, -0.0903 0.0265 0.1507, -0.1098 0.0282 0.2036, -0.0931 0.014 0.1507, -0.1125 0.0142 0.2036, -0.0935 0.0089 0.1507, -0.1127 0.0108 0.2036, -0.0942 0.0 0.1507, -0.1134 -0.0 0.2036, -0.0935 -0.0089 0.1507, -0.1127 -0.0108 0.2036, -0.1125 -0.0142 0.2036, -0.0471 0.0815 0.1507, -0.0608 0.0957 0.2036, -0.0587 0.0736 0.1507, -0.0723 0.0874 0.2036, -0.0615 0.071 0.1507, -0.0742 0.0856 0.2036, -0.069 0.064 0.1507, -0.0827 0.0776 0.2036, -0.0738 0.058 0.1507, -0.089 0.07 0.2036, -0.0917 0.0667 0.2036, -0.021 0.0918 0.1507, -0.035 0.1078 0.2036, -0.0307 0.0888 0.1507, -0.037 0.1071 0.2036, -0.0344 0.0877 0.1507, -0.0483 0.1026 0.2036, -0.0566 0.098 0.2036, 0.0471 0.0815 0.1507, 0.0483 0.1026 0.2036, 0.039 0.0854 0.1507, 0.0471 0.1031 0.2036, 0.0344 0.0877 0.1507, 0.035 0.1078 0.2036, 0.0222 0.0914 0.1507, 0.0267 0.11 0.2036, 0.021 0.0918 0.1507, 0.0212 0.1114 0.2036, 0.007 0.0939 0.1507, 0.0071 0.1132 0.2036, 0.0045 0.0939 0.1507, 0.0054 0.1132 0.2036, -0.007 0.0939 0.1507, -0.0071 0.1132 0.2036, -0.0134 0.0929 0.1507, -0.0161 0.112 0.2036, -0.0212 0.1114 0.2036, 0.09 0.0278 0.1507, 0.1054 0.0417 0.2036, 0.0872 0.0349 0.1507, 0.1052 0.0421 0.2036, 0.0848 0.0409 0.1507, 0.0994 0.0546 0.2036, 0.0791 0.0508 0.1507, 0.0952 0.0612 0.2036, 0.0778 0.053 0.1507, 0.0917 0.0667 0.2036, 0.069 0.064 0.1507, 0.0827 0.0776 0.2036, 0.0681 0.0649 0.1507, 0.082 0.0782 0.2036, 0.0587 0.0736 0.1507, 0.0723 0.0874 0.2036, 0.0545 0.0765 0.1507, 0.0656 0.0922 0.2036, 0.0608 0.0957 0.2036, 0.1052 -0.0421 0.2036, 0.1054 -0.0417 0.2036, 0.09 -0.0278 0.1507, 0.1098 -0.0282 0.2036, 0.0923 -0.0178 0.1507, 0.1111 -0.0214 0.2036, 0.0931 -0.014 0.1507, 0.1125 -0.0142 0.2036, 0.0942 0.0 0.1507, 0.1134 0.0 0.2036, 0.0931 0.014 0.1507, 0.1125 0.0142 0.2036, 0.0923 0.0178 0.1507, 0.1111 0.0214 0.2036, 0.1098 0.0282 0.2036, 0.0723 -0.0223 0.1378, 0.0748 -0.0113 0.1378, 0.0 0.0 0.1378, 0.0757 -0.0 0.1378, 0.0748 0.0113 0.1378, 0.0555 -0.0515 0.1378, 0.0625 -0.0426 0.1378, 0.0682 -0.0328 0.1378, 0.0276 -0.0704 0.1378, 0.0378 -0.0655 0.1378, 0.0472 -0.0592 0.1378, -0.0057 -0.0755 0.1378, 0.0057 -0.0755 0.1378, 0.0168 -0.0738 0.1378, -0.0378 -0.0655 0.1378, -0.0276 -0.0704 0.1378, -0.0168 -0.0738 0.1378, -0.0625 -0.0426 0.1378, -0.0555 -0.0515 0.1378, -0.0472 -0.0592 0.1378, -0.0748 -0.0113 0.1378, -0.0723 -0.0223 0.1378, -0.0682 -0.0328 0.1378, -0.0723 0.0223 0.1378, -0.0748 0.0113 0.1378, -0.0757 -0.0 0.1378, -0.0555 0.0515 0.1378, -0.0625 0.0426 0.1378, -0.0682 0.0328 0.1378, -0.0276 0.0704 0.1378, -0.0378 0.0655 0.1378, -0.0472 0.0592 0.1378, 0.0057 0.0755 0.1378, -0.0057 0.0755 0.1378, -0.0168 0.0738 0.1378, 0.0378 0.0655 0.1378, 0.0276 0.0704 0.1378, 0.0168 0.0738 0.1378, 0.0625 0.0426 0.1378, 0.0555 0.0515 0.1378, 0.0472 0.0592 0.1378, 0.0723 0.0223 0.1378, 0.0682 0.0328 0.1378
            ]
        }
        coordIndex [
            0,1,2,-1,2,1,3,-1,1,4,3,-1,3,4,5,-1,3,5,6,-1,6,5,7,-1,8,9,10,-1,10,9,11,-1,10,11,12,-1,12,11,13,-1,12,13,14,-1,14,13,15,-1,14,15,16,-1,16,15,17,-1,16,17,18,-1,18,17,19,-1,18,19,20,-1,20,19,21,-1,20,21,22,-1,22,21,23,-1,22,23,24,-1,24,23,25,-1,24,25,7,-1,7,25,26,-1,7,26,6,-1,27,28,29,-1,29,28,30,-1,29,30,31,-1,31,30,32,-1,31,32,33,-1,33,32,34,-1,33,34,35,-1,35,34,36,-1,35,36,37,-1,37,36,38,-1,37,38,39,-1,39,38,40,-1,39,40,8,-1,8,40,41,-1,8,41,9,-1,42,43,27,-1,27,43,44,-1,27,44,28,-1,45,46,47,-1,47,46,48,-1,47,48,49,-1,49,48,50,-1,49,50,51,-1,51,50,52,-1,51,52,53,-1,53,52,54,-1,53,54,55,-1,55,54,56,-1,55,56,57,-1,57,56,58,-1,57,58,59,-1,59,58,60,-1,59,60,61,-1,61,60,62,-1,61,62,42,-1,42,62,63,-1,42,63,43,-1,64,65,66,-1,66,65,67,-1,66,67,68,-1,68,67,69,-1,68,69,70,-1,70,69,71,-1,70,71,72,-1,72,71,73,-1,72,73,74,-1,74,73,75,-1,74,75,76,-1,76,75,77,-1,76,77,78,-1,78,77,79,-1,78,79,80,-1,80,79,81,-1,80,81,45,-1,45,81,82,-1,45,82,46,-1,83,84,85,-1,85,84,86,-1,85,86,87,-1,87,86,88,-1,87,88,89,-1,89,88,90,-1,89,90,91,-1,91,90,92,-1,91,92,64,-1,64,92,93,-1,64,93,65,-1,94,95,96,-1,96,95,97,-1,96,97,98,-1,98,97,99,-1,98,99,83,-1,83,99,100,-1,83,100,84,-1,101,102,103,-1,103,102,104,-1,103,104,105,-1,105,104,106,-1,105,106,107,-1,107,106,108,-1,107,108,109,-1,109,108,110,-1,109,110,111,-1,111,110,112,-1,111,112,113,-1,113,112,114,-1,113,114,115,-1,115,114,116,-1,115,116,117,-1,117,116,118,-1,117,118,94,-1,94,118,119,-1,94,119,95,-1,120,121,122,-1,122,121,123,-1,122,123,124,-1,124,123,125,-1,124,125,126,-1,126,125,127,-1,126,127,128,-1,128,127,129,-1,128,129,130,-1,130,129,131,-1,130,131,132,-1,132,131,133,-1,132,133,134,-1,134,133,135,-1,134,135,136,-1,136,135,137,-1,136,137,101,-1,101,137,138,-1,101,138,102,-1,2,139,0,-1,0,139,140,-1,0,140,141,-1,141,140,142,-1,141,142,143,-1,143,142,144,-1,143,144,145,-1,145,144,146,-1,145,146,147,-1,147,146,148,-1,147,148,149,-1,149,148,150,-1,149,150,151,-1,151,150,152,-1,151,152,120,-1,120,152,153,-1,120,153,121,-1,154,155,156,-1,156,155,157,-1,156,157,158,-1,159,160,156,-1,156,160,161,-1,156,161,154,-1,162,163,156,-1,156,163,164,-1,156,164,159,-1,165,166,156,-1,156,166,167,-1,156,167,162,-1,168,169,156,-1,156,169,170,-1,156,170,165,-1,171,172,156,-1,156,172,173,-1,156,173,168,-1,174,175,156,-1,156,175,176,-1,156,176,171,-1,177,178,156,-1,156,178,179,-1,156,179,174,-1,180,181,156,-1,156,181,182,-1,156,182,177,-1,183,184,156,-1,156,184,185,-1,156,185,180,-1,186,187,156,-1,156,187,188,-1,156,188,183,-1,189,190,156,-1,156,190,191,-1,156,191,186,-1,192,193,156,-1,156,193,194,-1,156,194,189,-1,158,195,156,-1,156,195,196,-1,156,196,192,-1,
        ]
    }
}
Shape{
    appearance Appearance {
        material  Material {
            diffuseColor 1.0 1.0 0.0
            specularColor 0.5019607843137255 0.5019607843137255 0.0
            ambientIntensity 0.886
            transparency 0.0
            shininess 0.5
        }
    }
    geometry IndexedFaceSet {
        ccw TRUE
        solid FALSE
        coord DEF co Coordinate {
            point [
                0.2992 0.0984 0.0827, 0.2992 0.2165 0.0827, 0.2953 0.0984 0.0827, 0.2953 0.2165 0.0827, 0.1969 0.2165 0.0039, 0.2168 0.2165 0.0039, 0.1969 0.2165 0.0, 0.2516 0.2165 0.0039, 0.2992 0.2165 0.0, 0.2953 0.2165 0.0039, 0.1925 0.216 0.0, 0.1925 0.216 0.0039, 0.1883 0.2146 0.0, 0.1883 0.2146 0.0039, 0.1879 0.2144 0.0039, 0.1846 0.2122 0.0, 0.1846 0.2122 0.0039, 0.1815 0.2091 0.0, 0.1815 0.2091 0.0039, 0.1791 0.2054 0.0, 0.1791 0.2054 0.0039, 0.1777 0.2012 0.0, 0.1777 0.2012 0.0039, 0.1772 0.1969 0.0, 0.1772 0.1969 0.0039, 0.1772 0.1181 0.0, 0.1772 0.1181 0.0039, 0.1777 0.1137 0.0, 0.1777 0.1137 0.0039, 0.1791 0.1096 0.0, 0.1791 0.1096 0.0039, 0.1815 0.1058 0.0, 0.1815 0.1058 0.0039, 0.1846 0.1027 0.0, 0.1846 0.1027 0.0039, 0.1879 0.1006 0.0039, 0.1883 0.1004 0.0, 0.1883 0.1004 0.0039, 0.1925 0.0989 0.0, 0.1925 0.0989 0.0039, 0.1969 0.0984 0.0, 0.1969 0.0984 0.0039, 0.2992 0.0984 0.0, 0.2953 0.0984 0.0039, 0.2516 0.0984 0.0039, 0.2168 0.0984 0.0039, 0.2953 -0.2165 0.0827, 0.2992 -0.2165 0.0827, 0.2953 -0.0984 0.0827, 0.2992 -0.0984 0.0827, 0.1969 -0.0984 0.0039, 0.1969 -0.0984 0.0, 0.1925 -0.0989 0.0, 0.1925 -0.0989 0.0039, 0.1883 -0.1004 0.0, 0.1883 -0.1004 0.0039, 0.1879 -0.1006 0.0039, 0.1846 -0.1027 0.0, 0.1846 -0.1027 0.0039, 0.1815 -0.1058 0.0, 0.1815 -0.1058 0.0039, 0.1791 -0.1096 0.0, 0.1791 -0.1096 0.0039, 0.1777 -0.1137 0.0, 0.1777 -0.1137 0.0039, 0.1772 -0.1181 0.0, 0.1772 -0.1181 0.0039, 0.1772 -0.1969 0.0, 0.1772 -0.1969 0.0039, 0.1777 -0.2012 0.0, 0.1777 -0.2012 0.0039, 0.1791 -0.2054 0.0, 0.1791 -0.2054 0.0039, 0.1815 -0.2091 0.0, 0.1815 -0.2091 0.0039, 0.1846 -0.2122 0.0, 0.1846 -0.2122 0.0039, 0.1879 -0.2144 0.0039, 0.1883 -0.2146 0.0, 0.1883 -0.2146 0.0039, 0.1925 -0.216 0.0, 0.1925 -0.216 0.0039, 0.1969 -0.2165 0.0, 0.1969 -0.2165 0.0039, 0.2992 -0.2165 0.0, 0.2953 -0.2165 0.0039, 0.2516 -0.2165 0.0039, 0.2168 -0.2165 0.0039, 0.2168 -0.0984 0.0039, 0.2516 -0.0984 0.0039, 0.2992 -0.0984 0.0, 0.2953 -0.0984 0.0039, -0.2992 -0.0984 0.0827, -0.2992 -0.2165 0.0827, -0.2953 -0.0984 0.0827, -0.2953 -0.2165 0.0827, -0.1772 -0.1181 0.0039, -0.1772 -0.1181 0.0, -0.1777 -0.1137 0.0, -0.1777 -0.1137 0.0039, -0.1791 -0.1096 0.0, -0.1791 -0.1096 0.0039, -0.1815 -0.1058 0.0, -0.1815 -0.1058 0.0039, -0.1846 -0.1027 0.0, -0.1846 -0.1027 0.0039, -0.187 -0.1012 0.0039, -0.1883 -0.1004 0.0, -0.1883 -0.1004 0.0039, -0.1925 -0.0989 0.0, -0.1925 -0.0989 0.0039, -0.1969 -0.0984 0.0, -0.1969 -0.0984 0.0039, -0.2953 -0.0984 0.0039, -0.2992 -0.0984 0.0, -0.2953 -0.2165 0.0039, -0.2992 -0.2165 0.0, -0.1969 -0.2165 0.0039, -0.1969 -0.2165 0.0, -0.1925 -0.216 0.0, -0.1925 -0.216 0.0039, -0.1883 -0.2146 0.0, -0.1883 -0.2146 0.0039, -0.187 -0.2138 0.0039, -0.1846 -0.2122 0.0, -0.1846 -0.2122 0.0039, -0.1815 -0.2091 0.0, -0.1815 -0.2091 0.0039, -0.1791 -0.2054 0.0, -0.1791 -0.2054 0.0039, -0.1777 -0.2012 0.0, -0.1777 -0.2012 0.0039, -0.1772 -0.1969 0.0, -0.1772 -0.1969 0.0039, -0.2953 0.2165 0.0827, -0.2992 0.2165 0.0827, -0.2953 0.0984 0.0827, -0.2992 0.0984 0.0827, -0.1969 0.0984 0.0039, -0.1969 0.0984 0.0, -0.1925 0.0989 0.0, -0.1925 0.0989 0.0039, -0.1883 0.1004 0.0, -0.1883 0.1004 0.0039, -0.187 0.1012 0.0039, -0.1846 0.1027 0.0, -0.1846 0.1027 0.0039, -0.1815 0.1058 0.0, -0.1815 0.1058 0.0039, -0.1791 0.1096 0.0, -0.1791 0.1096 0.0039, -0.1777 0.1137 0.0, -0.1777 0.1137 0.0039, -0.1772 0.1181 0.0, -0.1772 0.1181 0.0039, -0.1772 0.1969 0.0, -0.1772 0.1969 0.0039, -0.1777 0.2012 0.0, -0.1777 0.2012 0.0039, -0.1791 0.2054 0.0, -0.1791 0.2054 0.0039, -0.1815 0.2091 0.0, -0.1815 0.2091 0.0039, -0.1846 0.2122 0.0, -0.1846 0.2122 0.0039, -0.187 0.2138 0.0039, -0.1883 0.2146 0.0, -0.1883 0.2146 0.0039, -0.1925 0.216 0.0, -0.1925 0.216 0.0039, -0.1969 0.2165 0.0, -0.1969 0.2165 0.0039, -0.2953 0.2165 0.0039, -0.2992 0.2165 0.0, -0.2953 0.0984 0.0039, -0.2992 0.0984 0.0, -0.0787 -0.1969 0.0, -0.0787 -0.1969 0.0039, -0.0787 -0.0194 0.0039, -0.0787 0.0952 0.0, -0.0787 0.0205 0.0039, -0.0787 0.0952 0.0039, 0.0787 -0.1969 0.0, 0.0787 -0.1969 0.0039, 0.0787 0.1969 0.0039, 0.0787 0.0205 0.0039, 0.0787 0.1969 0.0, 0.0787 -0.0194 0.0039, -0.0787 0.1969 0.0, -0.0787 0.1969 0.0039, -0.0717 0.0961 0.0, -0.0651 0.0989 0.0, -0.0523 0.1296 0.0, -0.0551 0.1362 0.0, -0.0514 0.1226 0.0, -0.0594 0.1419 0.0, -0.0651 0.1462 0.0, -0.0717 0.149 0.0, -0.0787 0.1499 0.0, -0.0594 0.1032 0.0, -0.0551 0.1089 0.0, -0.0523 0.1155 0.0, 0.0515 0.2992 0.0704, 0.0515 0.2992 0.0469, 0.0515 0.2953 0.0704, 0.0515 0.2953 0.0469, 0.0991 0.2992 0.0704, 0.0991 0.2953 0.0704, 0.0991 0.2992 0.0469, 0.0991 0.2953 0.0469, -0.0991 0.2992 0.0704, -0.0991 0.2992 0.0469, -0.0991 0.2953 0.0704, -0.0991 0.2953 0.0469, -0.0515 0.2992 0.0704, -0.0515 0.2953 0.0704, -0.0515 0.2992 0.0469, -0.0515 0.2953 0.0469, 0.0515 -0.2992 0.0469, 0.0515 -0.2992 0.0704, 0.0515 -0.2953 0.0469, 0.0515 -0.2953 0.0704, 0.0991 -0.2992 0.0469, 0.0991 -0.2953 0.0469, 0.0991 -0.2992 0.0704, 0.0991 -0.2953 0.0704, -0.0991 -0.2992 0.0469, -0.0991 -0.2992 0.0704, -0.0991 -0.2953 0.0469, -0.0991 -0.2953 0.0704, -0.0515 -0.2992 0.0469, -0.0515 -0.2953 0.0469, -0.0515 -0.2992 0.0704, -0.0515 -0.2953 0.0704
            ]
        }
        coordIndex [
            0,1,2,-1,2,1,3,-1,4,5,6,-1,6,5,7,-1,6,7,8,-1,8,7,9,-1,8,9,1,-1,1,9,3,-1,4,6,10,-1,4,10,11,-1,11,10,12,-1,11,12,13,-1,13,12,14,-1,14,12,15,-1,14,15,16,-1,16,15,17,-1,16,17,18,-1,18,17,19,-1,18,19,20,-1,20,19,21,-1,20,21,22,-1,22,21,23,-1,22,23,24,-1,23,25,24,-1,24,25,26,-1,26,25,27,-1,26,27,28,-1,28,27,29,-1,28,29,30,-1,30,29,31,-1,30,31,32,-1,32,31,33,-1,32,33,34,-1,34,33,35,-1,35,33,36,-1,35,36,37,-1,37,36,38,-1,37,38,39,-1,39,38,40,-1,39,40,41,-1,42,0,2,-1,2,43,42,-1,42,43,44,-1,42,44,40,-1,40,44,45,-1,40,45,41,-1,8,1,42,-1,42,1,0,-1,8,42,6,-1,6,42,40,-1,36,33,31,-1,29,40,31,-1,31,40,38,-1,31,38,36,-1,17,15,12,-1,29,27,40,-1,40,27,25,-1,40,25,6,-1,6,25,23,-1,6,23,21,-1,21,19,6,-1,6,19,17,-1,6,17,10,-1,10,17,12,-1,46,47,48,-1,48,47,49,-1,50,51,52,-1,50,52,53,-1,53,52,54,-1,53,54,55,-1,55,54,56,-1,56,54,57,-1,56,57,58,-1,58,57,59,-1,58,59,60,-1,60,59,61,-1,60,61,62,-1,62,61,63,-1,62,63,64,-1,64,63,65,-1,64,65,66,-1,65,67,66,-1,66,67,68,-1,68,67,69,-1,68,69,70,-1,70,69,71,-1,70,71,72,-1,72,71,73,-1,72,73,74,-1,74,73,75,-1,74,75,76,-1,76,75,77,-1,77,75,78,-1,77,78,79,-1,79,78,80,-1,79,80,81,-1,81,80,82,-1,81,82,83,-1,84,47,46,-1,46,85,84,-1,84,85,86,-1,84,86,82,-1,82,86,87,-1,82,87,83,-1,50,88,51,-1,51,88,89,-1,51,89,90,-1,90,89,91,-1,90,91,49,-1,49,91,48,-1,90,49,84,-1,84,49,47,-1,52,51,65,-1,65,51,67,-1,59,57,54,-1,78,75,67,-1,59,54,61,-1,90,84,51,-1,51,84,82,-1,51,82,67,-1,67,82,80,-1,67,80,78,-1,73,71,75,-1,75,71,69,-1,75,69,67,-1,52,65,54,-1,54,65,63,-1,54,63,61,-1,92,93,94,-1,94,93,95,-1,96,97,98,-1,96,98,99,-1,99,98,100,-1,99,100,101,-1,101,100,102,-1,101,102,103,-1,103,102,104,-1,103,104,105,-1,105,104,106,-1,106,104,107,-1,106,107,108,-1,108,107,109,-1,108,109,110,-1,110,109,111,-1,110,111,112,-1,112,111,113,-1,113,111,114,-1,113,114,94,-1,94,114,92,-1,95,93,115,-1,115,93,116,-1,115,116,117,-1,117,116,118,-1,117,118,119,-1,117,119,120,-1,120,119,121,-1,120,121,122,-1,122,121,123,-1,123,121,124,-1,123,124,125,-1,125,124,126,-1,125,126,127,-1,127,126,128,-1,127,128,129,-1,129,128,130,-1,129,130,131,-1,131,130,132,-1,131,132,133,-1,132,97,133,-1,133,97,96,-1,116,93,114,-1,114,93,92,-1,107,104,97,-1,97,132,118,-1,116,114,118,-1,118,114,111,-1,118,111,97,-1,97,111,109,-1,97,109,107,-1,102,100,104,-1,104,100,98,-1,104,98,97,-1,121,128,124,-1,124,128,126,-1,132,130,118,-1,118,130,128,-1,118,128,119,-1,119,128,121,-1,134,135,136,-1,136,135,137,-1,138,139,140,-1,138,140,141,-1,141,140,142,-1,141,142,143,-1,143,142,144,-1,144,142,145,-1,144,145,146,-1,146,145,147,-1,146,147,148,-1,148,147,149,-1,148,149,150,-1,150,149,151,-1,150,151,152,-1,152,151,153,-1,152,153,154,-1,153,155,154,-1,154,155,156,-1,156,155,157,-1,156,157,158,-1,158,157,159,-1,158,159,160,-1,160,159,161,-1,160,161,162,-1,162,161,163,-1,162,163,164,-1,164,163,165,-1,165,163,166,-1,165,166,167,-1,167,166,168,-1,167,168,169,-1,169,168,170,-1,169,170,171,-1,171,170,172,-1,172,170,173,-1,172,173,134,-1,134,173,135,-1,136,137,174,-1,174,137,175,-1,174,175,138,-1,138,175,139,-1,175,137,173,-1,173,137,135,-1,175,173,139,-1,139,173,170,-1,170,168,166,-1,166,163,170,-1,170,163,161,-1,170,161,159,-1,151,149,147,-1,159,157,170,-1,170,157,155,-1,170,155,139,-1,139,155,153,-1,139,153,140,-1,140,153,142,-1,151,147,153,-1,153,147,145,-1,153,145,142,-1,176,177,178,-1,176,178,179,-1,179,178,180,-1,179,180,181,-1,176,182,177,-1,177,182,183,-1,184,185,186,-1,186,185,187,-1,186,187,182,-1,182,187,183,-1,186,188,184,-1,184,188,189,-1,176,179,182,-1,182,179,190,-1,182,190,191,-1,192,193,186,-1,192,186,194,-1,193,195,186,-1,186,195,196,-1,186,196,188,-1,188,196,197,-1,188,197,198,-1,191,199,182,-1,182,199,200,-1,182,200,186,-1,186,200,201,-1,186,201,194,-1,202,203,204,-1,204,203,205,-1,206,202,207,-1,207,202,204,-1,208,206,209,-1,209,206,207,-1,203,208,205,-1,205,208,209,-1,206,208,202,-1,202,208,203,-1,210,211,212,-1,212,211,213,-1,214,210,215,-1,215,210,212,-1,216,214,217,-1,217,214,215,-1,211,216,213,-1,213,216,217,-1,214,216,210,-1,210,216,211,-1,218,219,220,-1,220,219,221,-1,222,218,223,-1,223,218,220,-1,224,222,225,-1,225,222,223,-1,219,224,221,-1,221,224,225,-1,222,224,218,-1,218,224,219,-1,226,227,228,-1,228,227,229,-1,230,226,231,-1,231,226,228,-1,232,230,233,-1,233,230,231,-1,227,232,229,-1,229,232,233,-1,230,232,226,-1,226,232,227,-1,
        ]
    }
}
Shape{
    appearance Appearance {
        material  Material {
            diffuseColor 0.5019607843137255 0.25098039215686274 0.0
            specularColor 0.44313725490196076 0.2196078431372549 0.0
            ambientIntensity 0.2974
            transparency 0.0
            shininess 0.5
        }
    }
    geometry IndexedFaceSet {
        ccw TRUE
        solid FALSE
        coord DEF co Coordinate {
            point [
                -0.0787 0.1499 0.0039, -0.0787 0.1499 0.0, -0.0717 0.149 0.0039, -0.0717 0.149 0.0, -0.0651 0.1462 0.0039, -0.0651 0.1462 0.0, -0.0594 0.1419 0.0039, -0.0594 0.1419 0.0, -0.0551 0.1362 0.0039, -0.0551 0.1362 0.0, -0.0523 0.1296 0.0039, -0.0523 0.1296 0.0, -0.0514 0.1226 0.0039, -0.0514 0.1226 0.0, -0.0523 0.1155 0.0039, -0.0523 0.1155 0.0, -0.0551 0.1089 0.0039, -0.0551 0.1089 0.0, -0.0594 0.1032 0.0039, -0.0594 0.1032 0.0, -0.0651 0.0989 0.0039, -0.0651 0.0989 0.0, -0.0717 0.0961 0.0039, -0.0717 0.0961 0.0, -0.0787 0.0952 0.0039, -0.0787 0.0952 0.0
            ]
        }
        coordIndex [
            0,1,2,-1,2,1,3,-1,2,3,4,-1,4,3,5,-1,4,5,6,-1,6,5,7,-1,6,7,8,-1,8,7,9,-1,8,9,10,-1,10,9,11,-1,10,11,12,-1,12,11,13,-1,12,13,14,-1,14,13,15,-1,14,15,16,-1,16,15,17,-1,16,17,18,-1,18,17,19,-1,18,19,20,-1,20,19,21,-1,20,21,22,-1,22,21,23,-1,22,23,24,-1,24,23,25,-1,
        ]
    }
}
Shape{
    appearance Appearance {
        material  Material {
            diffuseColor 0.25098039215686274 0.25098039215686274 0.25098039215686274
            specularColor 0.12549019607843137 0.12549019607843137 0.12549019607843137
            ambientIntensity 0.251
            transparency 0.0
            shininess 0.5
        }
    }
    geometry IndexedFaceSet {
        ccw TRUE
        solid FALSE
        coord DEF co Coordinate {
            point [
                0.1125 -0.0142 0.2036, 0.1111 -0.0214 0.2036, 0.1119 -0.0287 0.2079, 0.1098 -0.0282 0.2036, 0.1054 -0.0417 0.2036, 0.1075 -0.0425 0.2079, 0.1052 -0.0421 0.2036, 0.1013 -0.0557 0.2079, 0.0994 -0.0546 0.2036, 0.0935 -0.0679 0.2079, 0.0952 -0.0612 0.2036, 0.0917 -0.0667 0.2036, 0.0827 -0.0776 0.2036, 0.0842 -0.0791 0.2079, 0.082 -0.0782 0.2036, 0.0737 -0.0891 0.2079, 0.0723 -0.0874 0.2036, 0.0619 -0.0976 0.2079, 0.0656 -0.0922 0.2036, 0.0608 -0.0957 0.2036, 0.0483 -0.1026 0.2036, 0.0492 -0.1046 0.2079, 0.0471 -0.1031 0.2036, 0.0357 -0.1099 0.2079, 0.035 -0.1078 0.2036, 0.0217 -0.1135 0.2079, 0.0267 -0.11 0.2036, 0.0212 -0.1114 0.2036, 0.0071 -0.1132 0.2036, 0.0073 -0.1153 0.2079, 0.0054 -0.1132 0.2036, -0.0073 -0.1153 0.2079, -0.0071 -0.1132 0.2036, -0.0217 -0.1135 0.2079, -0.0161 -0.112 0.2036, -0.0212 -0.1114 0.2036, -0.035 -0.1078 0.2036, -0.0357 -0.1099 0.2079, -0.037 -0.1071 0.2036, -0.0492 -0.1046 0.2079, -0.0483 -0.1026 0.2036, -0.0619 -0.0976 0.2079, -0.0566 -0.098 0.2036, -0.0608 -0.0957 0.2036, -0.0723 -0.0874 0.2036, -0.0737 -0.0891 0.2079, -0.0742 -0.0856 0.2036, -0.0842 -0.0791 0.2079, -0.0827 -0.0776 0.2036, -0.0935 -0.0679 0.2079, -0.089 -0.07 0.2036, -0.0917 -0.0667 0.2036, -0.0994 -0.0546 0.2036, -0.1013 -0.0557 0.2079, -0.1007 -0.0519 0.2036, -0.1075 -0.0425 0.2079, -0.1054 -0.0417 0.2036, -0.1119 -0.0287 0.2079, -0.1086 -0.0319 0.2036, -0.1098 -0.0282 0.2036, -0.1125 -0.0142 0.2036, -0.1147 -0.0145 0.2079, -0.1127 -0.0108 0.2036, -0.1156 -0.0 0.2079, -0.1134 -0.0 0.2036, -0.1147 0.0145 0.2079, -0.1127 0.0108 0.2036, -0.1125 0.0142 0.2036, -0.1098 0.0282 0.2036, -0.1119 0.0287 0.2079, -0.1086 0.0319 0.2036, -0.1075 0.0425 0.2079, -0.1054 0.0417 0.2036, -0.1013 0.0557 0.2079, -0.1007 0.0519 0.2036, -0.0994 0.0546 0.2036, -0.0917 0.0667 0.2036, -0.0935 0.0679 0.2079, -0.089 0.07 0.2036, -0.0842 0.0791 0.2079, -0.0827 0.0776 0.2036, -0.0742 0.0856 0.2036, -0.0737 0.0891 0.2079, -0.0723 0.0874 0.2036, -0.0608 0.0957 0.2036, -0.0619 0.0976 0.2079, -0.0566 0.098 0.2036, -0.0492 0.1046 0.2079, -0.0483 0.1026 0.2036, -0.037 0.1071 0.2036, -0.0357 0.1099 0.2079, -0.035 0.1078 0.2036, -0.0212 0.1114 0.2036, -0.0217 0.1135 0.2079, -0.0161 0.112 0.2036, -0.0073 0.1153 0.2079, -0.0071 0.1132 0.2036, 0.0054 0.1132 0.2036, 0.0073 0.1153 0.2079, 0.0071 0.1132 0.2036, 0.0212 0.1114 0.2036, 0.0217 0.1135 0.2079, 0.0267 0.11 0.2036, 0.0357 0.1099 0.2079, 0.035 0.1078 0.2036, 0.0471 0.1031 0.2036, 0.0492 0.1046 0.2079, 0.0483 0.1026 0.2036, 0.0608 0.0957 0.2036, 0.0619 0.0976 0.2079, 0.0656 0.0922 0.2036, 0.0737 0.0891 0.2079, 0.0723 0.0874 0.2036, 0.082 0.0782 0.2036, 0.0842 0.0791 0.2079, 0.0827 0.0776 0.2036, 0.0917 0.0667 0.2036, 0.0935 0.0679 0.2079, 0.0952 0.0612 0.2036, 0.1013 0.0557 0.2079, 0.0994 0.0546 0.2036, 0.1052 0.0421 0.2036, 0.1075 0.0425 0.2079, 0.1054 0.0417 0.2036, 0.1098 0.0282 0.2036, 0.1119 0.0287 0.2079, 0.1111 0.0214 0.2036, 0.1147 0.0145 0.2079, 0.1147 -0.0145 0.2079, 0.1156 0.0 0.2079, 0.1134 0.0 0.2036, 0.1125 0.0142 0.2036, 0.1178 0.0149 0.2115, 0.115 0.0295 0.2115, 0.1104 0.0437 0.2115, 0.104 0.0572 0.2115, 0.096 0.0698 0.2115, 0.0865 0.0813 0.2115, 0.0757 0.0915 0.2115, 0.0636 0.1002 0.2115, 0.0505 0.1074 0.2115, 0.0367 0.1129 0.2115, 0.0222 0.1166 0.2115, 0.0075 0.1185 0.2115, -0.0075 0.1185 0.2115, -0.0222 0.1166 0.2115, -0.0367 0.1129 0.2115, -0.0505 0.1074 0.2115, -0.0636 0.1002 0.2115, -0.0757 0.0915 0.2115, -0.0865 0.0813 0.2115, -0.096 0.0698 0.2115, -0.104 0.0572 0.2115, -0.1104 0.0437 0.2115, -0.115 0.0295 0.2115, -0.1178 0.0149 0.2115, -0.1187 -0.0 0.2115, -0.1178 -0.0149 0.2115, -0.115 -0.0295 0.2115, -0.1104 -0.0437 0.2115, -0.104 -0.0572 0.2115, -0.096 -0.0698 0.2115, -0.0865 -0.0813 0.2115, -0.0757 -0.0915 0.2115, -0.0636 -0.1002 0.2115, -0.0505 -0.1074 0.2115, -0.0367 -0.1129 0.2115, -0.0222 -0.1166 0.2115, -0.0075 -0.1185 0.2115, 0.0075 -0.1185 0.2115, 0.0222 -0.1166 0.2115, 0.0367 -0.1129 0.2115, 0.0505 -0.1074 0.2115, 0.0636 -0.1002 0.2115, 0.0757 -0.0915 0.2115, 0.0865 -0.0813 0.2115, 0.096 -0.0698 0.2115, 0.104 -0.0572 0.2115, 0.1104 -0.0437 0.2115, 0.115 -0.0295 0.2115, 0.1178 -0.0149 0.2115, 0.1187 0.0 0.2115, 0.1217 0.0154 0.2142, 0.1188 0.0305 0.2142, 0.114 0.0452 0.2142, 0.1075 0.0591 0.2142, 0.0992 0.0721 0.2142, 0.0894 0.084 0.2142, 0.0782 0.0945 0.2142, 0.0657 0.1036 0.2142, 0.0522 0.111 0.2142, 0.0379 0.1166 0.2142, 0.023 0.1205 0.2142, 0.0077 0.1224 0.2142, -0.0077 0.1224 0.2142, -0.023 0.1205 0.2142, -0.0379 0.1166 0.2142, -0.0522 0.111 0.2142, -0.0657 0.1036 0.2142, -0.0782 0.0945 0.2142, -0.0894 0.084 0.2142, -0.0992 0.0721 0.2142, -0.1075 0.0591 0.2142, -0.114 0.0452 0.2142, -0.1188 0.0305 0.2142, -0.1217 0.0154 0.2142, -0.1227 -0.0 0.2142, -0.1217 -0.0154 0.2142, -0.1188 -0.0305 0.2142, -0.114 -0.0452 0.2142, -0.1075 -0.0591 0.2142, -0.0992 -0.0721 0.2142, -0.0894 -0.084 0.2142, -0.0782 -0.0945 0.2142, -0.0657 -0.1036 0.2142, -0.0522 -0.111 0.2142, -0.0379 -0.1166 0.2142, -0.023 -0.1205 0.2142, -0.0077 -0.1224 0.2142, 0.0077 -0.1224 0.2142, 0.023 -0.1205 0.2142, 0.0379 -0.1166 0.2142, 0.0522 -0.111 0.2142, 0.0657 -0.1036 0.2142, 0.0782 -0.0945 0.2142, 0.0894 -0.084 0.2142, 0.0992 -0.0721 0.2142, 0.1075 -0.0591 0.2142, 0.114 -0.0452 0.2142, 0.1188 -0.0305 0.2142, 0.1217 -0.0154 0.2142, 0.1227 0.0 0.2142, 0.1261 0.0159 0.216, 0.1231 0.0316 0.216, 0.1182 0.0468 0.216, 0.1114 0.0612 0.216, 0.1029 0.0747 0.216, 0.0927 0.087 0.216, 0.081 0.098 0.216, 0.0681 0.1073 0.216, 0.0541 0.115 0.216, 0.0393 0.1209 0.216, 0.0238 0.1249 0.216, 0.008 0.1269 0.216, -0.008 0.1269 0.216, -0.0238 0.1249 0.216, -0.0393 0.1209 0.216, -0.0541 0.115 0.216, -0.0681 0.1073 0.216, -0.081 0.098 0.216, -0.0927 0.087 0.216, -0.1029 0.0747 0.216, -0.1114 0.0612 0.216, -0.1182 0.0468 0.216, -0.1231 0.0316 0.216, -0.1261 0.0159 0.216, -0.1271 -0.0 0.216, -0.1261 -0.0159 0.216, -0.1231 -0.0316 0.216, -0.1182 -0.0468 0.216, -0.1114 -0.0612 0.216, -0.1029 -0.0747 0.216, -0.0927 -0.087 0.216, -0.081 -0.098 0.216, -0.0681 -0.1073 0.216, -0.0541 -0.115 0.216, -0.0393 -0.1209 0.216, -0.0238 -0.1249 0.216, -0.008 -0.1269 0.216, 0.008 -0.1269 0.216, 0.0238 -0.1249 0.216, 0.0393 -0.1209 0.216, 0.0541 -0.115 0.216, 0.0681 -0.1073 0.216, 0.081 -0.098 0.216, 0.0927 -0.087 0.216, 0.1029 -0.0747 0.216, 0.1114 -0.0612 0.216, 0.1182 -0.0468 0.216, 0.1231 -0.0316 0.216, 0.1261 -0.0159 0.216, 0.1271 0.0 0.216, 0.1309 0.0165 0.2165, 0.1278 0.0328 0.2165, 0.1226 0.0486 0.2165, 0.1156 0.0635 0.2165, 0.1067 0.0775 0.2165, 0.0961 0.0903 0.2165, 0.0841 0.1016 0.2165, 0.0707 0.1114 0.2165, 0.0562 0.1193 0.2165, 0.0408 0.1254 0.2165, 0.0247 0.1296 0.2165, 0.0083 0.1316 0.2165, -0.0083 0.1316 0.2165, -0.0247 0.1296 0.2165, -0.0408 0.1254 0.2165, -0.0562 0.1193 0.2165, -0.0707 0.1114 0.2165, -0.0841 0.1016 0.2165, -0.0961 0.0903 0.2165, -0.1067 0.0775 0.2165, -0.1156 0.0635 0.2165, -0.1226 0.0486 0.2165, -0.1278 0.0328 0.2165, -0.1309 0.0165 0.2165, -0.1319 -0.0 0.2165, -0.1309 -0.0165 0.2165, -0.1278 -0.0328 0.2165, -0.1226 -0.0486 0.2165, -0.1156 -0.0635 0.2165, -0.1067 -0.0775 0.2165, -0.0961 -0.0903 0.2165, -0.0841 -0.1016 0.2165, -0.0707 -0.1114 0.2165, -0.0562 -0.1193 0.2165, -0.0408 -0.1254 0.2165, -0.0247 -0.1296 0.2165, -0.0083 -0.1316 0.2165, 0.0083 -0.1316 0.2165, 0.0247 -0.1296 0.2165, 0.0408 -0.1254 0.2165, 0.0562 -0.1193 0.2165, 0.0707 -0.1114 0.2165, 0.0841 -0.1016 0.2165, 0.0961 -0.0903 0.2165, 0.1067 -0.0775 0.2165, 0.1156 -0.0635 0.2165, 0.1226 -0.0486 0.2165, 0.1278 -0.0328 0.2165, 0.1309 -0.0165 0.2165, 0.1319 0.0 0.2165, 0.0872 0.0349 0.1507, 0.0848 0.0409 0.1507, 0.0829 0.0399 0.1465, 0.0545 0.0765 0.1507, 0.0471 0.0815 0.1507, 0.046 0.0797 0.1465, -0.0615 0.071 0.1507, -0.069 0.064 0.1507, -0.0674 0.0626 0.1465, -0.0935 0.0089 0.1507, -0.0942 0.0 0.1507, -0.092 0.0 0.1465, -0.0307 -0.0888 0.1507, -0.021 -0.0918 0.1507, -0.0205 -0.0897 0.1465, 0.039 -0.0854 0.1507, 0.0471 -0.0815 0.1507, 0.046 -0.0797 0.1465, 0.0923 -0.0178 0.1507, 0.0931 -0.014 0.1507, 0.091 -0.0137 0.1465, 0.0501 0.0629 0.1384, 0.059 0.0547 0.1384, 0.0622 0.0578 0.1401, 0.0748 0.0113 0.1378, 0.0757 -0.0 0.1378, 0.0804 0.0 0.1384, 0.0723 0.0223 0.1378, 0.0795 0.012 0.1384, 0.0682 0.0328 0.1378, 0.0769 0.0237 0.1384, 0.0748 -0.0113 0.1378, 0.0795 -0.012 0.1384, 0.0555 0.0515 0.1378, 0.0472 0.0592 0.1378, 0.0378 0.0655 0.1378, 0.0734 0.05 0.1429, 0.0702 0.0478 0.1401, 0.0665 0.0453 0.1384, 0.0625 0.0426 0.1378, 0.08 0.0385 0.1429, 0.0765 0.0368 0.1401, 0.0725 0.0349 0.1384, 0.076 -0.0518 0.1465, 0.0829 -0.0399 0.1465, 0.08 -0.0385 0.1429, 0.0681 -0.0649 0.1507, 0.069 -0.064 0.1507, 0.0674 -0.0626 0.1465, 0.0734 -0.05 0.1429, 0.0765 -0.0368 0.1401, 0.0723 -0.0223 0.1378, 0.0682 -0.0328 0.1378, 0.0725 -0.0349 0.1384, 0.0665 -0.0453 0.1384, 0.0702 -0.0478 0.1401, 0.0622 -0.0578 0.1401, 0.0651 -0.0604 0.1429, 0.0554 -0.0695 0.1429, 0.0574 -0.0719 0.1465, 0.0625 -0.0426 0.1378, 0.0555 -0.0515 0.1378, 0.059 -0.0547 0.1384, 0.0501 -0.0629 0.1384, 0.0529 -0.0664 0.1401, 0.0425 -0.0735 0.1401, 0.0444 -0.0769 0.1429, 0.0325 -0.0827 0.1429, 0.0336 -0.0856 0.1465, 0.0205 -0.0897 0.1465, 0.0472 -0.0592 0.1378, 0.0402 -0.0697 0.1384, 0.031 -0.079 0.1401, 0.0198 -0.0866 0.1429, 0.0069 -0.0917 0.1465, 0.007 -0.0939 0.1507, 0.0045 -0.0939 0.1507, 0.0378 -0.0655 0.1378, 0.0276 -0.0704 0.1378, 0.0294 -0.0749 0.1384, 0.0179 -0.0784 0.1384, 0.0189 -0.0828 0.1401, 0.0063 -0.0847 0.1401, 0.0066 -0.0886 0.1429, -0.0066 -0.0886 0.1429, -0.0069 -0.0917 0.1465, 0.0168 -0.0738 0.1378, 0.0057 -0.0755 0.1378, 0.006 -0.0802 0.1384, -0.006 -0.0802 0.1384, -0.0063 -0.0847 0.1401, -0.0189 -0.0828 0.1401, -0.0198 -0.0866 0.1429, -0.0325 -0.0827 0.1429, -0.0336 -0.0856 0.1465, -0.046 -0.0797 0.1465, -0.0057 -0.0755 0.1378, -0.0179 -0.0784 0.1384, -0.031 -0.079 0.1401, -0.0444 -0.0769 0.1429, -0.0574 -0.0719 0.1465, -0.0276 -0.0704 0.1378, -0.0378 -0.0655 0.1378, -0.0402 -0.0697 0.1384, -0.0501 -0.0629 0.1384, -0.0529 -0.0664 0.1401, -0.0622 -0.0578 0.1401, -0.0651 -0.0604 0.1429, -0.0734 -0.05 0.1429, -0.076 -0.0518 0.1465, -0.0829 -0.0399 0.1465, -0.0472 -0.0592 0.1378, -0.059 -0.0547 0.1384, -0.0702 -0.0478 0.1401, -0.08 -0.0385 0.1429, -0.0879 -0.0271 0.1465, -0.09 -0.0278 0.1507, -0.0903 -0.0265 0.1507, -0.0555 -0.0515 0.1378, -0.0625 -0.0426 0.1378, -0.0665 -0.0453 0.1384, -0.0725 -0.0349 0.1384, -0.0765 -0.0368 0.1401, -0.0811 -0.025 0.1401, -0.0849 -0.0262 0.1429, -0.0878 -0.0132 0.1429, -0.091 -0.0137 0.1465, -0.0682 -0.0328 0.1378, -0.0723 -0.0223 0.1378, -0.0769 -0.0237 0.1384, -0.0795 -0.012 0.1384, -0.084 -0.0127 0.1401, -0.0849 0.0 0.1401, -0.0888 0.0 0.1429, -0.0878 0.0132 0.1429, -0.091 0.0137 0.1465, -0.0879 0.0271 0.1465, -0.0748 -0.0113 0.1378, -0.0804 0.0 0.1384, -0.084 0.0127 0.1401, -0.0849 0.0262 0.1429, -0.0829 0.0399 0.1465, -0.0848 0.0409 0.1507, -0.0836 0.0431 0.1507, -0.0757 -0.0 0.1378, -0.0748 0.0113 0.1378, -0.0795 0.012 0.1384, -0.0769 0.0237 0.1384, -0.0811 0.025 0.1401, -0.0765 0.0368 0.1401, -0.08 0.0385 0.1429, -0.0734 0.05 0.1429, -0.076 0.0518 0.1465, -0.0723 0.0223 0.1378, -0.0682 0.0328 0.1378, -0.0725 0.0349 0.1384, -0.0665 0.0453 0.1384, -0.0702 0.0478 0.1401, -0.0622 0.0578 0.1401, -0.0651 0.0604 0.1429, -0.0554 0.0695 0.1429, -0.0574 0.0719 0.1465, -0.046 0.0797 0.1465, -0.0625 0.0426 0.1378, -0.059 0.0547 0.1384, -0.0529 0.0664 0.1401, -0.0444 0.0769 0.1429, -0.0336 0.0856 0.1465, -0.0472 0.0592 0.1378, -0.0378 0.0655 0.1378, -0.0402 0.0697 0.1384, -0.0294 0.0749 0.1384, -0.031 0.079 0.1401, -0.0189 0.0828 0.1401, -0.0198 0.0866 0.1429, -0.0066 0.0886 0.1429, -0.0069 0.0917 0.1465, 0.0069 0.0917 0.1465, -0.0276 0.0704 0.1378, -0.0179 0.0784 0.1384, -0.0063 0.0847 0.1401, 0.0066 0.0886 0.1429, 0.0205 0.0897 0.1465, 0.021 0.0918 0.1507, 0.0222 0.0914 0.1507, -0.0168 0.0738 0.1378, -0.0057 0.0755 0.1378, -0.006 0.0802 0.1384, 0.006 0.0802 0.1384, 0.0063 0.0847 0.1401, 0.0189 0.0828 0.1401, 0.0198 0.0866 0.1429, 0.0325 0.0827 0.1429, 0.0336 0.0856 0.1465, 0.0057 0.0755 0.1378, 0.0168 0.0738 0.1378, 0.0179 0.0784 0.1384, 0.0294 0.0749 0.1384, 0.031 0.079 0.1401, 0.0425 0.0735 0.1401, 0.0444 0.0769 0.1429, 0.0554 0.0695 0.1429, 0.0574 0.0719 0.1465, 0.0674 0.0626 0.1465, 0.0276 0.0704 0.1378, 0.0402 0.0697 0.1384, 0.0529 0.0664 0.1401, 0.0651 0.0604 0.1429, 0.076 0.0518 0.1465, 0.0778 0.053 0.1507, 0.0791 0.0508 0.1507, 0.084 -0.0127 0.1401, 0.0849 0.0 0.1401, 0.0878 -0.0132 0.1429, 0.0888 0.0 0.1429, 0.092 0.0 0.1465, 0.0942 0.0 0.1507, 0.0769 -0.0237 0.1384, 0.0811 -0.025 0.1401, 0.0849 -0.0262 0.1429, 0.0879 -0.0271 0.1465, 0.09 -0.0278 0.1507, 0.0872 -0.0349 0.1507, 0.0778 -0.053 0.1507, 0.0791 -0.0508 0.1507, 0.0848 -0.0409 0.1507, 0.0587 -0.0736 0.1507, 0.0545 -0.0765 0.1507, 0.021 -0.0918 0.1507, 0.0222 -0.0914 0.1507, 0.0344 -0.0877 0.1507, -0.007 -0.0939 0.1507, -0.0134 -0.0929 0.1507, -0.0738 -0.058 0.1507, -0.069 -0.064 0.1507, -0.0674 -0.0626 0.1465, -0.0554 -0.0695 0.1429, -0.0425 -0.0735 0.1401, -0.0294 -0.0749 0.1384, -0.0168 -0.0738 0.1378, -0.0615 -0.071 0.1507, -0.0587 -0.0736 0.1507, -0.0471 -0.0815 0.1507, -0.0344 -0.0877 0.1507, -0.0848 -0.0409 0.1507, -0.0836 -0.0431 0.1507, -0.0778 -0.053 0.1507, -0.0931 -0.014 0.1507, -0.0935 -0.0089 0.1507, -0.09 0.0278 0.1507, -0.0903 0.0265 0.1507, -0.0931 0.014 0.1507, -0.0778 0.053 0.1507, -0.0738 0.058 0.1507, -0.0134 0.0929 0.1507, -0.021 0.0918 0.1507, -0.0205 0.0897 0.1465, -0.0325 0.0827 0.1429, -0.0425 0.0735 0.1401, -0.0501 0.0629 0.1384, -0.0555 0.0515 0.1378, -0.0307 0.0888 0.1507, -0.0344 0.0877 0.1507, -0.0471 0.0815 0.1507, -0.0587 0.0736 0.1507, 0.007 0.0939 0.1507, 0.0045 0.0939 0.1507, -0.007 0.0939 0.1507, 0.0344 0.0877 0.1507, 0.039 0.0854 0.1507, 0.069 0.064 0.1507, 0.0681 0.0649 0.1507, 0.0587 0.0736 0.1507, 0.0811 0.025 0.1401, 0.0849 0.0262 0.1429, 0.0879 0.0271 0.1465, 0.09 0.0278 0.1507, 0.091 0.0137 0.1465, 0.0931 0.014 0.1507, 0.0923 0.0178 0.1507, 0.084 0.0127 0.1401, 0.0878 0.0132 0.1429
            ]
        }
        coordIndex [
            0,1,2,-1,1,3,2,-1,2,3,4,-1,2,4,5,-1,5,4,6,-1,5,6,7,-1,7,6,8,-1,7,8,9,-1,9,8,10,-1,10,11,9,-1,9,11,12,-1,9,12,13,-1,13,12,14,-1,13,14,15,-1,15,14,16,-1,15,16,17,-1,17,16,18,-1,18,19,17,-1,17,19,20,-1,17,20,21,-1,21,20,22,-1,21,22,23,-1,23,22,24,-1,23,24,25,-1,25,24,26,-1,26,27,25,-1,25,27,28,-1,25,28,29,-1,29,28,30,-1,29,30,31,-1,31,30,32,-1,31,32,33,-1,33,32,34,-1,34,35,33,-1,33,35,36,-1,33,36,37,-1,37,36,38,-1,37,38,39,-1,39,38,40,-1,39,40,41,-1,41,40,42,-1,42,43,41,-1,41,43,44,-1,41,44,45,-1,45,44,46,-1,45,46,47,-1,47,46,48,-1,47,48,49,-1,49,48,50,-1,50,51,49,-1,49,51,52,-1,49,52,53,-1,53,52,54,-1,53,54,55,-1,55,54,56,-1,55,56,57,-1,57,56,58,-1,58,59,57,-1,57,59,60,-1,57,60,61,-1,61,60,62,-1,61,62,63,-1,63,62,64,-1,63,64,65,-1,65,64,66,-1,66,67,65,-1,65,67,68,-1,65,68,69,-1,69,68,70,-1,69,70,71,-1,71,70,72,-1,71,72,73,-1,73,72,74,-1,74,75,73,-1,73,75,76,-1,73,76,77,-1,77,76,78,-1,77,78,79,-1,78,80,79,-1,79,80,81,-1,79,81,82,-1,81,83,82,-1,82,83,84,-1,82,84,85,-1,85,84,86,-1,85,86,87,-1,86,88,87,-1,87,88,89,-1,87,89,90,-1,89,91,90,-1,90,91,92,-1,90,92,93,-1,93,92,94,-1,93,94,95,-1,94,96,95,-1,95,96,97,-1,95,97,98,-1,97,99,98,-1,98,99,100,-1,98,100,101,-1,101,100,102,-1,101,102,103,-1,102,104,103,-1,103,104,105,-1,103,105,106,-1,105,107,106,-1,106,107,108,-1,106,108,109,-1,109,108,110,-1,109,110,111,-1,110,112,111,-1,111,112,113,-1,111,113,114,-1,113,115,114,-1,114,115,116,-1,114,116,117,-1,117,116,118,-1,117,118,119,-1,118,120,119,-1,119,120,121,-1,119,121,122,-1,121,123,122,-1,122,123,124,-1,122,124,125,-1,125,124,126,-1,125,126,127,-1,2,128,0,-1,0,128,129,-1,0,129,130,-1,130,129,127,-1,130,127,131,-1,131,127,126,-1,129,132,127,-1,127,132,133,-1,127,133,125,-1,125,133,134,-1,125,134,122,-1,122,134,135,-1,122,135,119,-1,119,135,136,-1,119,136,117,-1,117,136,137,-1,117,137,114,-1,114,137,138,-1,114,138,111,-1,111,138,139,-1,111,139,109,-1,109,139,140,-1,109,140,106,-1,106,140,141,-1,106,141,103,-1,103,141,142,-1,103,142,101,-1,101,142,143,-1,101,143,98,-1,98,143,144,-1,98,144,95,-1,95,144,145,-1,95,145,93,-1,93,145,146,-1,93,146,90,-1,90,146,147,-1,90,147,87,-1,87,147,148,-1,87,148,85,-1,85,148,149,-1,85,149,82,-1,82,149,150,-1,82,150,79,-1,79,150,151,-1,79,151,77,-1,77,151,152,-1,77,152,73,-1,73,152,153,-1,73,153,71,-1,71,153,154,-1,71,154,69,-1,69,154,155,-1,69,155,65,-1,65,155,156,-1,65,156,63,-1,63,156,157,-1,63,157,61,-1,61,157,158,-1,61,158,57,-1,57,158,159,-1,57,159,55,-1,55,159,160,-1,55,160,53,-1,53,160,161,-1,53,161,49,-1,49,161,162,-1,49,162,47,-1,47,162,163,-1,47,163,45,-1,45,163,164,-1,45,164,41,-1,41,164,165,-1,41,165,39,-1,39,165,166,-1,39,166,37,-1,37,166,167,-1,37,167,33,-1,33,167,168,-1,33,168,31,-1,31,168,169,-1,31,169,29,-1,29,169,170,-1,29,170,25,-1,25,170,171,-1,25,171,23,-1,23,171,172,-1,23,172,21,-1,21,172,173,-1,21,173,17,-1,17,173,174,-1,17,174,15,-1,15,174,175,-1,15,175,13,-1,13,175,176,-1,13,176,9,-1,9,176,177,-1,9,177,7,-1,7,177,178,-1,7,178,5,-1,5,178,179,-1,5,179,2,-1,2,179,180,-1,2,180,128,-1,128,180,181,-1,128,181,129,-1,129,181,132,-1,181,182,132,-1,132,182,183,-1,132,183,133,-1,133,183,184,-1,133,184,134,-1,134,184,185,-1,134,185,135,-1,135,185,186,-1,135,186,136,-1,136,186,187,-1,136,187,137,-1,137,187,188,-1,137,188,138,-1,138,188,189,-1,138,189,139,-1,139,189,190,-1,139,190,140,-1,140,190,191,-1,140,191,141,-1,141,191,192,-1,141,192,142,-1,142,192,193,-1,142,193,143,-1,143,193,194,-1,143,194,144,-1,144,194,195,-1,144,195,145,-1,145,195,196,-1,145,196,146,-1,146,196,197,-1,146,197,147,-1,147,197,198,-1,147,198,148,-1,148,198,199,-1,148,199,149,-1,149,199,200,-1,149,200,150,-1,150,200,201,-1,150,201,151,-1,151,201,202,-1,151,202,152,-1,152,202,203,-1,152,203,153,-1,153,203,204,-1,153,204,154,-1,154,204,205,-1,154,205,155,-1,155,205,206,-1,155,206,156,-1,156,206,207,-1,156,207,157,-1,157,207,208,-1,157,208,158,-1,158,208,209,-1,158,209,159,-1,159,209,210,-1,159,210,160,-1,160,210,211,-1,160,211,161,-1,161,211,212,-1,161,212,162,-1,162,212,213,-1,162,213,163,-1,163,213,214,-1,163,214,164,-1,164,214,215,-1,164,215,165,-1,165,215,216,-1,165,216,166,-1,166,216,217,-1,166,217,167,-1,167,217,218,-1,167,218,168,-1,168,218,219,-1,168,219,169,-1,169,219,220,-1,169,220,170,-1,170,220,221,-1,170,221,171,-1,171,221,222,-1,171,222,172,-1,172,222,223,-1,172,223,173,-1,173,223,224,-1,173,224,174,-1,174,224,225,-1,174,225,175,-1,175,225,226,-1,175,226,176,-1,176,226,227,-1,176,227,177,-1,177,227,228,-1,177,228,178,-1,178,228,229,-1,178,229,179,-1,179,229,230,-1,179,230,180,-1,180,230,231,-1,180,231,181,-1,181,231,182,-1,231,232,182,-1,182,232,233,-1,182,233,183,-1,183,233,234,-1,183,234,184,-1,184,234,235,-1,184,235,185,-1,185,235,236,-1,185,236,186,-1,186,236,237,-1,186,237,187,-1,187,237,238,-1,187,238,188,-1,188,238,239,-1,188,239,189,-1,189,239,240,-1,189,240,190,-1,190,240,241,-1,190,241,191,-1,191,241,242,-1,191,242,192,-1,192,242,243,-1,192,243,193,-1,193,243,244,-1,193,244,194,-1,194,244,245,-1,194,245,195,-1,195,245,246,-1,195,246,196,-1,196,246,247,-1,196,247,197,-1,197,247,248,-1,197,248,198,-1,198,248,249,-1,198,249,199,-1,199,249,250,-1,199,250,200,-1,200,250,251,-1,200,251,201,-1,201,251,252,-1,201,252,202,-1,202,252,253,-1,202,253,203,-1,203,253,254,-1,203,254,204,-1,204,254,255,-1,204,255,205,-1,205,255,256,-1,205,256,206,-1,206,256,257,-1,206,257,207,-1,207,257,258,-1,207,258,208,-1,208,258,259,-1,208,259,209,-1,209,259,260,-1,209,260,210,-1,210,260,261,-1,210,261,211,-1,211,261,262,-1,211,262,212,-1,212,262,263,-1,212,263,213,-1,213,263,264,-1,213,264,214,-1,214,264,265,-1,214,265,215,-1,215,265,266,-1,215,266,216,-1,216,266,267,-1,216,267,217,-1,217,267,268,-1,217,268,218,-1,218,268,269,-1,218,269,219,-1,219,269,270,-1,219,270,220,-1,220,270,271,-1,220,271,221,-1,221,271,272,-1,221,272,222,-1,222,272,273,-1,222,273,223,-1,223,273,274,-1,223,274,224,-1,224,274,275,-1,224,275,225,-1,225,275,276,-1,225,276,226,-1,226,276,277,-1,226,277,227,-1,227,277,278,-1,227,278,228,-1,228,278,279,-1,228,279,229,-1,229,279,280,-1,229,280,230,-1,230,280,281,-1,230,281,231,-1,231,281,232,-1,281,282,232,-1,232,282,283,-1,232,283,233,-1,233,283,284,-1,233,284,234,-1,234,284,285,-1,234,285,235,-1,235,285,286,-1,235,286,236,-1,236,286,287,-1,236,287,237,-1,237,287,288,-1,237,288,238,-1,238,288,289,-1,238,289,239,-1,239,289,290,-1,239,290,240,-1,240,290,291,-1,240,291,241,-1,241,291,292,-1,241,292,242,-1,242,292,293,-1,242,293,243,-1,243,293,294,-1,243,294,244,-1,244,294,295,-1,244,295,245,-1,245,295,296,-1,245,296,246,-1,246,296,297,-1,246,297,247,-1,247,297,298,-1,247,298,248,-1,248,298,299,-1,248,299,249,-1,249,299,300,-1,249,300,250,-1,250,300,301,-1,250,301,251,-1,251,301,302,-1,251,302,252,-1,252,302,303,-1,252,303,253,-1,253,303,304,-1,253,304,254,-1,254,304,305,-1,254,305,255,-1,255,305,306,-1,255,306,256,-1,256,306,307,-1,256,307,257,-1,257,307,308,-1,257,308,258,-1,258,308,309,-1,258,309,259,-1,259,309,310,-1,259,310,260,-1,260,310,311,-1,260,311,261,-1,261,311,312,-1,261,312,262,-1,262,312,313,-1,262,313,263,-1,263,313,314,-1,263,314,264,-1,264,314,315,-1,264,315,265,-1,265,315,316,-1,265,316,266,-1,266,316,317,-1,266,317,267,-1,267,317,318,-1,267,318,268,-1,268,318,319,-1,268,319,269,-1,269,319,320,-1,269,320,270,-1,270,320,321,-1,270,321,271,-1,271,321,322,-1,271,322,272,-1,272,322,323,-1,272,323,273,-1,273,323,324,-1,273,324,274,-1,274,324,325,-1,274,325,275,-1,275,325,326,-1,275,326,276,-1,276,326,327,-1,276,327,277,-1,277,327,328,-1,277,328,278,-1,278,328,329,-1,278,329,279,-1,279,329,330,-1,279,330,280,-1,280,330,331,-1,280,331,281,-1,281,331,282,-1,332,333,334,-1,335,336,337,-1,338,339,340,-1,341,342,343,-1,344,345,346,-1,347,348,349,-1,350,351,352,-1,353,354,355,-1,356,357,358,-1,359,356,360,-1,361,359,362,-1,357,363,364,-1,365,354,366,-1,366,354,353,-1,366,353,367,-1,368,355,369,-1,369,355,354,-1,369,354,370,-1,370,354,365,-1,370,365,371,-1,334,368,372,-1,372,368,369,-1,372,369,373,-1,373,369,370,-1,373,370,374,-1,374,370,371,-1,374,371,361,-1,375,376,377,-1,378,379,380,-1,380,379,375,-1,380,375,381,-1,381,375,377,-1,381,377,382,-1,383,384,385,-1,385,384,386,-1,385,386,387,-1,387,386,388,-1,387,388,389,-1,389,388,390,-1,389,390,391,-1,391,390,349,-1,392,393,394,-1,394,393,395,-1,394,395,396,-1,396,395,397,-1,396,397,398,-1,398,397,399,-1,398,399,400,-1,400,399,401,-1,393,402,395,-1,395,402,403,-1,395,403,397,-1,397,403,404,-1,397,404,399,-1,399,404,405,-1,399,405,401,-1,401,405,406,-1,401,406,407,-1,407,406,408,-1,409,410,411,-1,411,410,412,-1,411,412,413,-1,413,412,414,-1,413,414,415,-1,415,414,416,-1,415,416,417,-1,417,416,346,-1,418,419,420,-1,420,419,421,-1,420,421,422,-1,422,421,423,-1,422,423,424,-1,424,423,425,-1,424,425,426,-1,426,425,427,-1,419,428,421,-1,421,428,429,-1,421,429,423,-1,423,429,430,-1,423,430,425,-1,425,430,431,-1,425,431,427,-1,427,431,432,-1,433,434,435,-1,435,434,436,-1,435,436,437,-1,437,436,438,-1,437,438,439,-1,439,438,440,-1,439,440,441,-1,441,440,442,-1,434,443,436,-1,436,443,444,-1,436,444,438,-1,438,444,445,-1,438,445,440,-1,440,445,446,-1,440,446,442,-1,442,446,447,-1,442,447,448,-1,448,447,449,-1,450,451,452,-1,452,451,453,-1,452,453,454,-1,454,453,455,-1,454,455,456,-1,456,455,457,-1,456,457,458,-1,458,457,343,-1,459,460,461,-1,461,460,462,-1,461,462,463,-1,463,462,464,-1,463,464,465,-1,465,464,466,-1,465,466,467,-1,467,466,468,-1,460,469,462,-1,462,469,470,-1,462,470,464,-1,464,470,471,-1,464,471,466,-1,466,471,472,-1,466,472,468,-1,468,472,473,-1,468,473,474,-1,474,473,475,-1,476,477,478,-1,478,477,479,-1,478,479,480,-1,480,479,481,-1,480,481,482,-1,482,481,483,-1,482,483,484,-1,484,483,340,-1,485,486,487,-1,487,486,488,-1,487,488,489,-1,489,488,490,-1,489,490,491,-1,491,490,492,-1,491,492,493,-1,493,492,494,-1,486,495,488,-1,488,495,496,-1,488,496,490,-1,490,496,497,-1,490,497,492,-1,492,497,498,-1,492,498,494,-1,494,498,499,-1,500,501,502,-1,502,501,503,-1,502,503,504,-1,504,503,505,-1,504,505,506,-1,506,505,507,-1,506,507,508,-1,508,507,509,-1,501,510,503,-1,503,510,511,-1,503,511,505,-1,505,511,512,-1,505,512,507,-1,507,512,513,-1,507,513,509,-1,509,513,514,-1,509,514,515,-1,515,514,516,-1,517,518,519,-1,519,518,520,-1,519,520,521,-1,521,520,522,-1,521,522,523,-1,523,522,524,-1,523,524,525,-1,525,524,337,-1,526,527,528,-1,528,527,529,-1,528,529,530,-1,530,529,531,-1,530,531,532,-1,532,531,533,-1,532,533,534,-1,534,533,535,-1,527,536,529,-1,529,536,537,-1,529,537,531,-1,531,537,538,-1,531,538,533,-1,533,538,539,-1,533,539,535,-1,535,539,540,-1,535,540,541,-1,541,540,542,-1,357,364,358,-1,358,364,543,-1,358,543,544,-1,544,543,545,-1,544,545,546,-1,546,545,352,-1,546,352,547,-1,547,352,351,-1,547,351,548,-1,363,549,364,-1,364,549,550,-1,364,550,543,-1,543,550,551,-1,543,551,545,-1,545,551,552,-1,545,552,352,-1,352,552,553,-1,352,553,350,-1,549,382,550,-1,550,382,377,-1,550,377,551,-1,551,377,376,-1,551,376,552,-1,552,376,554,-1,552,554,553,-1,379,555,375,-1,375,555,556,-1,375,556,376,-1,376,556,557,-1,376,557,554,-1,558,378,391,-1,391,378,380,-1,391,380,389,-1,389,380,381,-1,389,381,387,-1,387,381,382,-1,387,382,385,-1,385,382,549,-1,385,549,383,-1,383,549,363,-1,349,348,391,-1,391,348,559,-1,391,559,558,-1,384,392,386,-1,386,392,394,-1,386,394,388,-1,388,394,396,-1,388,396,390,-1,390,396,398,-1,390,398,349,-1,349,398,400,-1,349,400,347,-1,407,560,401,-1,401,560,561,-1,401,561,400,-1,400,561,562,-1,400,562,347,-1,563,408,417,-1,417,408,406,-1,417,406,415,-1,415,406,405,-1,415,405,413,-1,413,405,404,-1,413,404,411,-1,411,404,403,-1,411,403,409,-1,409,403,402,-1,346,345,417,-1,417,345,564,-1,417,564,563,-1,410,418,412,-1,412,418,420,-1,412,420,414,-1,414,420,422,-1,414,422,416,-1,416,422,424,-1,416,424,346,-1,346,424,426,-1,346,426,344,-1,565,566,567,-1,567,566,432,-1,567,432,568,-1,568,432,431,-1,568,431,569,-1,569,431,430,-1,569,430,570,-1,570,430,429,-1,570,429,571,-1,571,429,428,-1,566,572,432,-1,432,572,573,-1,432,573,427,-1,427,573,574,-1,427,574,426,-1,426,574,575,-1,426,575,344,-1,571,433,570,-1,570,433,435,-1,570,435,569,-1,569,435,437,-1,569,437,568,-1,568,437,439,-1,568,439,567,-1,567,439,441,-1,567,441,565,-1,448,576,442,-1,442,576,577,-1,442,577,441,-1,441,577,578,-1,441,578,565,-1,579,449,458,-1,458,449,447,-1,458,447,456,-1,456,447,446,-1,456,446,454,-1,454,446,445,-1,454,445,452,-1,452,445,444,-1,452,444,450,-1,450,444,443,-1,343,342,458,-1,458,342,580,-1,458,580,579,-1,451,459,453,-1,453,459,461,-1,453,461,455,-1,455,461,463,-1,455,463,457,-1,457,463,465,-1,457,465,343,-1,343,465,467,-1,343,467,341,-1,474,581,468,-1,468,581,582,-1,468,582,467,-1,467,582,583,-1,467,583,341,-1,584,475,484,-1,484,475,473,-1,484,473,482,-1,482,473,472,-1,482,472,480,-1,480,472,471,-1,480,471,478,-1,478,471,470,-1,478,470,476,-1,476,470,469,-1,340,339,484,-1,484,339,585,-1,484,585,584,-1,477,485,479,-1,479,485,487,-1,479,487,481,-1,481,487,489,-1,481,489,483,-1,483,489,491,-1,483,491,340,-1,340,491,493,-1,340,493,338,-1,586,587,588,-1,588,587,499,-1,588,499,589,-1,589,499,498,-1,589,498,590,-1,590,498,497,-1,590,497,591,-1,591,497,496,-1,591,496,592,-1,592,496,495,-1,587,593,499,-1,499,593,594,-1,499,594,494,-1,494,594,595,-1,494,595,493,-1,493,595,596,-1,493,596,338,-1,592,500,591,-1,591,500,502,-1,591,502,590,-1,590,502,504,-1,590,504,589,-1,589,504,506,-1,589,506,588,-1,588,506,508,-1,588,508,586,-1,515,597,509,-1,509,597,598,-1,509,598,508,-1,508,598,599,-1,508,599,586,-1,600,516,525,-1,525,516,514,-1,525,514,523,-1,523,514,513,-1,523,513,521,-1,521,513,512,-1,521,512,519,-1,519,512,511,-1,519,511,517,-1,517,511,510,-1,337,336,525,-1,525,336,601,-1,525,601,600,-1,518,526,520,-1,520,526,528,-1,520,528,522,-1,522,528,530,-1,522,530,524,-1,524,530,532,-1,524,532,337,-1,337,532,534,-1,337,534,335,-1,541,602,535,-1,535,602,603,-1,535,603,534,-1,534,603,604,-1,534,604,335,-1,333,542,334,-1,334,542,540,-1,334,540,368,-1,368,540,539,-1,368,539,355,-1,355,539,538,-1,355,538,353,-1,353,538,537,-1,353,537,367,-1,367,537,536,-1,361,362,374,-1,374,362,605,-1,374,605,373,-1,373,605,606,-1,373,606,372,-1,372,606,607,-1,372,607,334,-1,334,607,608,-1,334,608,332,-1,609,610,611,-1,359,360,362,-1,362,360,612,-1,362,612,605,-1,605,612,613,-1,605,613,606,-1,606,613,609,-1,606,609,607,-1,607,609,611,-1,607,611,608,-1,356,358,360,-1,360,358,544,-1,360,544,612,-1,612,544,546,-1,612,546,613,-1,613,546,547,-1,613,547,609,-1,609,547,548,-1,609,548,610,-1,
        ]
    }
}
Shape{
    appearance Appearance {
        material  Material {
            diffuseColor 0.0 0.0 0.0
            specularColor 0.0 0.0 0.0
            ambientIntensity 0.0
            transparency 0.0
            shininess 0.5
        }
    }
    geometry IndexedFaceSet {
        ccw TRUE
        solid FALSE
        coord DEF co Coordinate {
            point [
                0.1294 0.0202 0.0043, 0.114 -0.0191 0.0043, 0.1294 0.0202 0.0039, 0.114 -0.0191 0.0039, 0.1198 -0.0191 0.0043, 0.1198 -0.0191 0.0039, 0.1238 -0.0081 0.0043, 0.1238 -0.0081 0.0039, 0.14 -0.0081 0.0043, 0.14 -0.0081 0.0039, 0.1438 -0.0191 0.0043, 0.1438 -0.0191 0.0039, 0.1495 -0.0191 0.0043, 0.1495 -0.0191 0.0039, 0.1347 0.0202 0.0043, 0.1347 0.0202 0.0039, 0.1387 -0.0038 0.0043, 0.1255 -0.0038 0.0043, 0.1328 0.0127 0.0043, 0.1324 0.014 0.0043, 0.1322 0.0154 0.0043, 0.1321 0.0154 0.0043, 0.1318 0.014 0.0043, 0.1314 0.0127 0.0043, 0.1387 -0.0038 0.0039, 0.1255 -0.0038 0.0039, 0.1328 0.0127 0.0039, 0.1324 0.014 0.0039, 0.1322 0.0154 0.0039, 0.1321 0.0154 0.0039, 0.1318 0.014 0.0039, 0.1314 0.0127 0.0039, 0.1734 -0.0191 0.0043, 0.1841 -0.0191 0.0043, 0.1734 -0.0191 0.0039, 0.1841 -0.0191 0.0039, 0.1841 0.0202 0.0043, 0.1841 0.0202 0.0039, 0.173 0.0202 0.0043, 0.173 0.0202 0.0039, 0.1524 0.001 0.0043, 0.1524 0.001 0.0039, 0.1527 0.0048 0.0039, 0.1527 0.0048 0.0043, 0.1538 0.0086 0.0039, 0.1538 0.0086 0.0043, 0.1556 0.012 0.0039, 0.1556 0.012 0.0043, 0.1584 0.0151 0.0039, 0.1584 0.0151 0.0043, 0.1584 0.0151 0.0039, 0.1584 0.0151 0.0043, 0.1627 0.018 0.0039, 0.1627 0.018 0.0043, 0.1673 0.0196 0.0039, 0.1673 0.0196 0.0043, 0.1685 -0.0187 0.0039, 0.1685 -0.0187 0.0043, 0.164 -0.0174 0.0039, 0.164 -0.0174 0.0043, 0.1599 -0.015 0.0039, 0.1599 -0.015 0.0043, 0.1566 -0.0119 0.0039, 0.1566 -0.0119 0.0043, 0.1544 -0.0083 0.0039, 0.1544 -0.0083 0.0043, 0.153 -0.0042 0.0039, 0.153 -0.0042 0.0043, 0.1603 0.0104 0.0043, 0.1622 0.0124 0.0043, 0.1651 0.0143 0.0043, 0.1684 0.0154 0.0043, 0.173 0.0159 0.0043, 0.1788 0.0159 0.0043, 0.1788 -0.0148 0.0043, 0.1732 -0.0148 0.0043, 0.1691 -0.0144 0.0043, 0.1658 -0.0134 0.0043, 0.1631 -0.0118 0.0043, 0.1609 -0.0096 0.0043, 0.1592 -0.0069 0.0043, 0.1581 -0.0032 0.0043, 0.1577 0.0009 0.0043, 0.158 0.0049 0.0043, 0.159 0.008 0.0043, 0.173 0.0159 0.0039, 0.1788 0.0159 0.0039, 0.1684 0.0154 0.0039, 0.1651 0.0143 0.0039, 0.1622 0.0124 0.0039, 0.1603 0.0104 0.0039, 0.159 0.008 0.0039, 0.158 0.0049 0.0039, 0.1577 0.0009 0.0039, 0.1581 -0.0032 0.0039, 0.1592 -0.0069 0.0039, 0.1609 -0.0096 0.0039, 0.1631 -0.0118 0.0039, 0.1658 -0.0134 0.0039, 0.1691 -0.0144 0.0039, 0.1732 -0.0148 0.0039, 0.1788 -0.0148 0.0039, 0.1918 -0.0148 0.0043, 0.1918 -0.0191 0.0043, 0.1918 -0.0148 0.0039, 0.1918 -0.0191 0.0039, 0.2129 -0.0191 0.0043, 0.2129 -0.0191 0.0039, 0.2129 0.0202 0.0043, 0.2129 0.0202 0.0039, 0.1927 0.0202 0.0043, 0.1927 0.0202 0.0039, 0.1927 0.0159 0.0043, 0.1927 0.0159 0.0039, 0.2076 0.0159 0.0043, 0.2076 0.0159 0.0039, 0.2076 0.003 0.0043, 0.2076 0.003 0.0039, 0.1937 0.003 0.0043, 0.1937 0.003 0.0039, 0.1937 -0.0014 0.0043, 0.1937 -0.0014 0.0039, 0.2076 -0.0014 0.0043, 0.2076 -0.0014 0.0039, 0.2076 -0.0148 0.0043, 0.2076 -0.0148 0.0039, 0.2206 -0.0128 0.0043, 0.2206 -0.0171 0.0043, 0.2206 -0.0128 0.0039, 0.2206 -0.0171 0.0039, 0.2248 -0.0188 0.0043, 0.2314 -0.0196 0.0043, 0.2314 -0.0196 0.0039, 0.2303 -0.0196 0.0039, 0.2303 -0.0196 0.0043, 0.2288 -0.0194 0.0039, 0.2248 -0.0188 0.0039, 0.2337 -0.0194 0.0039, 0.2363 -0.0191 0.0043, 0.2363 -0.0191 0.0039, 0.2401 -0.0178 0.0043, 0.2401 -0.0178 0.0039, 0.2433 -0.0158 0.0043, 0.2433 -0.0158 0.0039, 0.2462 -0.0127 0.0043, 0.2462 -0.0127 0.0039, 0.2483 -0.0089 0.0043, 0.2483 -0.0089 0.0039, 0.2495 -0.0047 0.0043, 0.2495 -0.0047 0.0039, 0.2499 -0.0002 0.0043, 0.2499 -0.0002 0.0039, 0.2299 0.0207 0.0043, 0.2299 0.0207 0.0039, 0.2338 0.0204 0.0043, 0.2328 0.0205 0.0039, 0.2338 0.0204 0.0039, 0.2382 0.0191 0.0039, 0.2382 0.0191 0.0043, 0.2419 0.017 0.0039, 0.2419 0.017 0.0043, 0.2455 0.0136 0.0039, 0.2455 0.0136 0.0043, 0.2478 0.0099 0.0039, 0.2478 0.0099 0.0043, 0.2493 0.0054 0.0039, 0.2493 0.0054 0.0043, 0.2264 0.0205 0.0039, 0.2251 0.0204 0.0043, 0.2251 0.0204 0.0039, 0.2206 0.0192 0.0043, 0.2206 0.0192 0.0039, 0.2206 0.0139 0.0043, 0.2206 0.0139 0.0039, 0.2298 0.0164 0.0043, 0.2298 0.0164 0.0039, 0.225 0.0158 0.0039, 0.225 0.0158 0.0043, 0.2446 0.0001 0.0043, 0.2446 0.0001 0.0039, 0.2444 0.0032 0.0039, 0.2444 0.0032 0.0043, 0.2434 0.0074 0.0039, 0.2434 0.0074 0.0043, 0.2417 0.0105 0.0039, 0.2417 0.0105 0.0043, 0.2394 0.0131 0.0039, 0.2394 0.0131 0.0043, 0.2366 0.0149 0.0039, 0.2366 0.0149 0.0043, 0.2337 0.016 0.0039, 0.2337 0.016 0.0043, 0.2307 -0.0153 0.0043, 0.2307 -0.0153 0.0039, 0.2344 -0.0149 0.0039, 0.2344 -0.0149 0.0043, 0.2372 -0.0138 0.0039, 0.2372 -0.0138 0.0043, 0.2397 -0.0122 0.0039, 0.2397 -0.0122 0.0043, 0.2415 -0.0102 0.0039, 0.2415 -0.0102 0.0043, 0.2431 -0.0075 0.0039, 0.2431 -0.0075 0.0043, 0.2442 -0.0041 0.0039, 0.2442 -0.0041 0.0043, 0.2213 -0.0132 0.0039, 0.2213 -0.0132 0.0043, 0.2255 -0.0147 0.0039, 0.2255 -0.0147 0.0043, 0.2532 -0.0148 0.0043, 0.2532 -0.0191 0.0043, 0.2532 -0.0148 0.0039, 0.2532 -0.0191 0.0039, 0.2734 -0.0191 0.0043, 0.2734 -0.0191 0.0039, 0.2734 0.0202 0.0043, 0.2734 0.0202 0.0039, 0.2681 0.0202 0.0043, 0.2681 0.0202 0.0039, 0.2681 -0.0148 0.0043, 0.2681 -0.0148 0.0039
            ]
        }
        coordIndex [
            0,1,2,-1,2,1,3,-1,1,4,3,-1,3,4,5,-1,4,6,5,-1,5,6,7,-1,6,8,7,-1,7,8,9,-1,8,10,9,-1,9,10,11,-1,10,12,11,-1,11,12,13,-1,12,14,13,-1,13,14,15,-1,14,0,15,-1,15,0,2,-1,16,8,17,-1,17,8,6,-1,18,14,16,-1,16,14,12,-1,16,12,8,-1,8,12,10,-1,18,19,14,-1,14,19,20,-1,14,20,0,-1,0,20,21,-1,0,21,22,-1,22,23,0,-1,0,23,17,-1,0,17,1,-1,1,17,6,-1,1,6,4,-1,16,17,24,-1,24,17,25,-1,18,16,26,-1,26,16,24,-1,18,26,27,-1,18,27,19,-1,19,27,28,-1,19,28,20,-1,21,20,29,-1,29,20,28,-1,21,29,30,-1,21,30,22,-1,22,30,31,-1,22,31,23,-1,17,23,25,-1,25,23,31,-1,32,33,34,-1,34,33,35,-1,33,36,35,-1,35,36,37,-1,36,38,37,-1,37,38,39,-1,40,41,42,-1,40,42,43,-1,43,42,44,-1,43,44,45,-1,45,44,46,-1,45,46,47,-1,47,46,48,-1,47,48,49,-1,49,48,50,-1,49,50,51,-1,51,50,52,-1,51,52,53,-1,53,52,54,-1,53,54,55,-1,55,54,39,-1,55,39,38,-1,32,34,56,-1,32,56,57,-1,57,56,58,-1,57,58,59,-1,59,58,60,-1,59,60,61,-1,61,60,62,-1,61,62,63,-1,63,62,64,-1,63,64,65,-1,65,64,66,-1,65,66,67,-1,67,66,41,-1,67,41,40,-1,45,47,68,-1,68,47,49,-1,68,49,69,-1,69,49,51,-1,69,51,70,-1,70,51,53,-1,70,53,71,-1,71,53,55,-1,71,55,72,-1,72,55,38,-1,72,38,73,-1,73,38,36,-1,73,36,74,-1,74,36,33,-1,74,33,75,-1,75,33,32,-1,75,32,76,-1,76,32,57,-1,76,57,77,-1,77,57,59,-1,77,59,78,-1,78,59,61,-1,78,61,79,-1,79,61,63,-1,79,63,80,-1,80,63,65,-1,80,65,81,-1,81,65,67,-1,81,67,82,-1,82,67,40,-1,82,40,83,-1,83,40,43,-1,83,43,84,-1,84,43,45,-1,84,45,68,-1,72,73,85,-1,85,73,86,-1,72,85,87,-1,72,87,71,-1,71,87,88,-1,71,88,70,-1,70,88,89,-1,70,89,69,-1,69,89,90,-1,69,90,68,-1,68,90,91,-1,68,91,84,-1,84,91,92,-1,84,92,83,-1,83,92,93,-1,83,93,82,-1,82,93,94,-1,82,94,81,-1,81,94,95,-1,81,95,80,-1,80,95,96,-1,80,96,79,-1,79,96,97,-1,79,97,78,-1,78,97,98,-1,78,98,77,-1,77,98,99,-1,77,99,76,-1,76,99,100,-1,76,100,75,-1,74,75,101,-1,101,75,100,-1,73,74,86,-1,86,74,101,-1,102,103,104,-1,104,103,105,-1,103,106,105,-1,105,106,107,-1,106,108,107,-1,107,108,109,-1,108,110,109,-1,109,110,111,-1,110,112,111,-1,111,112,113,-1,112,114,113,-1,113,114,115,-1,114,116,115,-1,115,116,117,-1,116,118,117,-1,117,118,119,-1,118,120,119,-1,119,120,121,-1,120,122,121,-1,121,122,123,-1,122,124,123,-1,123,124,125,-1,124,102,125,-1,125,102,104,-1,106,103,102,-1,102,124,106,-1,106,124,122,-1,106,122,108,-1,112,110,114,-1,114,110,108,-1,114,108,116,-1,116,108,122,-1,116,122,118,-1,118,122,120,-1,126,127,128,-1,128,127,129,-1,129,127,130,-1,131,132,133,-1,131,133,134,-1,134,133,135,-1,134,135,130,-1,130,135,136,-1,130,136,129,-1,132,131,137,-1,137,131,138,-1,137,138,139,-1,139,138,140,-1,139,140,141,-1,141,140,142,-1,141,142,143,-1,143,142,144,-1,143,144,145,-1,145,144,146,-1,145,146,147,-1,147,146,148,-1,147,148,149,-1,149,148,150,-1,149,150,151,-1,152,153,154,-1,154,153,155,-1,155,156,154,-1,154,156,157,-1,154,157,158,-1,158,157,159,-1,158,159,160,-1,160,159,161,-1,160,161,162,-1,162,161,163,-1,162,163,164,-1,164,163,165,-1,164,165,166,-1,166,165,151,-1,166,151,150,-1,153,152,167,-1,167,152,168,-1,167,168,169,-1,169,168,170,-1,169,170,171,-1,170,172,171,-1,171,172,173,-1,174,175,176,-1,174,176,177,-1,177,176,173,-1,177,173,172,-1,178,179,180,-1,178,180,181,-1,181,180,182,-1,181,182,183,-1,183,182,184,-1,183,184,185,-1,185,184,186,-1,185,186,187,-1,187,186,188,-1,187,188,189,-1,189,188,190,-1,189,190,191,-1,191,190,175,-1,191,175,174,-1,192,193,194,-1,192,194,195,-1,195,194,196,-1,195,196,197,-1,197,196,198,-1,197,198,199,-1,199,198,200,-1,199,200,201,-1,201,200,202,-1,201,202,203,-1,203,202,204,-1,203,204,205,-1,205,204,179,-1,205,179,178,-1,126,128,206,-1,126,206,207,-1,207,206,208,-1,207,208,209,-1,209,208,193,-1,209,193,192,-1,195,131,192,-1,192,131,134,-1,192,134,209,-1,209,134,130,-1,209,130,207,-1,207,130,127,-1,207,127,126,-1,172,170,177,-1,177,170,168,-1,177,168,174,-1,174,168,152,-1,174,152,191,-1,191,152,154,-1,191,154,189,-1,189,154,158,-1,189,158,187,-1,187,158,160,-1,187,160,185,-1,185,160,162,-1,185,162,183,-1,183,162,164,-1,183,164,181,-1,181,164,166,-1,181,166,178,-1,178,166,150,-1,178,150,205,-1,205,150,148,-1,205,148,203,-1,203,148,146,-1,203,146,201,-1,201,146,144,-1,201,144,199,-1,199,144,142,-1,199,142,197,-1,197,142,140,-1,197,140,195,-1,195,140,138,-1,195,138,131,-1,210,211,212,-1,212,211,213,-1,211,214,213,-1,213,214,215,-1,214,216,215,-1,215,216,217,-1,216,218,217,-1,217,218,219,-1,218,220,219,-1,219,220,221,-1,220,210,221,-1,221,210,212,-1,218,216,220,-1,220,216,214,-1,220,214,210,-1,210,214,211,-1,
        ]
    }
}
Shape{
    appearance Appearance {
        material  Material {
            diffuseColor 0.25098039215686274 0.25098039215686274 0.25098039215686274
            specularColor 0.12549019607843137 0.12549019607843137 0.12549019607843137
            ambientIntensity 0.251
            transparency 0.0
            shininess 0.5
        }
    }
    geometry IndexedFaceSet {
        ccw TRUE
        solid FALSE
        coord DEF co Coordinate {
            point [
                0.1387 -0.0038 0.0039, 0.1255 -0.0038 0.0039, 0.1328 0.0127 0.0039, 0.1314 0.0127 0.0039, 0.1324 0.014 0.0039, 0.1318 0.014 0.0039, 0.1322 0.0154 0.0039, 0.1321 0.0154 0.0039, 0.1788 0.0159 0.0039, 0.1788 -0.0148 0.0039, 0.173 0.0159 0.0039, 0.1732 -0.0148 0.0039, 0.1691 -0.0144 0.0039, 0.1577 0.0009 0.0039, 0.158 0.0049 0.0039, 0.159 0.008 0.0039, 0.1684 0.0154 0.0039, 0.1658 -0.0134 0.0039, 0.1631 -0.0118 0.0039, 0.1609 -0.0096 0.0039, 0.1592 -0.0069 0.0039, 0.1581 -0.0032 0.0039, 0.1603 0.0104 0.0039, 0.1622 0.0124 0.0039, 0.1651 0.0143 0.0039
            ]
        }
        coordIndex [
            0,1,2,-1,2,1,3,-1,2,3,4,-1,4,3,5,-1,4,5,6,-1,6,5,7,-1,8,9,10,-1,10,9,11,-1,10,11,12,-1,13,14,10,-1,10,14,15,-1,10,15,16,-1,12,17,10,-1,10,17,18,-1,10,18,19,-1,19,20,10,-1,10,20,21,-1,10,21,13,-1,22,23,15,-1,15,23,24,-1,15,24,16,-1,
        ]
    }
}