%TF.GenerationSoftware,KiCad,Pcbnew,10.0.1*%
%TF.CreationDate,2026-07-14T07:43:41+02:00*%
%TF.ProjectId,AT1846S-breakout,41543138-3436-4532-9d62-7265616b6f75,rev?*%
%TF.SameCoordinates,Original*%
%TF.FileFunction,Legend,Top*%
%TF.FilePolarity,Positive*%
%FSLAX46Y46*%
G04 Gerber Fmt 4.6, Leading zero omitted, Abs format (unit mm)*
G04 Created by KiCad (PCBNEW 10.0.1) date 2026-07-14 07:43:41*
%MOMM*%
%LPD*%
G01*
G04 APERTURE LIST*
%ADD10C,0.120000*%
%ADD11C,0.100000*%
%ADD12C,0.000000*%
%ADD13C,0.200000*%
%ADD14C,0.063060*%
%ADD15C,0.250000*%
%ADD16C,0.127000*%
G04 APERTURE END LIST*
%TO.C,U2*%
D10*
X143080000Y-61672500D02*
X143080000Y-62932500D01*
X143080000Y-68492500D02*
X143080000Y-67232500D01*
X146840000Y-61672500D02*
X143080000Y-61672500D01*
X146840000Y-68492500D02*
X143080000Y-68492500D01*
X148360000Y-68722500D02*
X147880000Y-68722500D01*
X148120000Y-68392500D01*
X148360000Y-68722500D01*
G36*
X148360000Y-68722500D02*
G01*
X147880000Y-68722500D01*
X148120000Y-68392500D01*
X148360000Y-68722500D01*
G37*
%TO.C,U1*%
X144290000Y-70330000D02*
X146870000Y-70330000D01*
X146870000Y-71310000D02*
X146870000Y-70330000D01*
X146870000Y-74070000D02*
X146870000Y-75050000D01*
X146870000Y-75050000D02*
X144150000Y-75050000D01*
X143740000Y-70480000D02*
X143500000Y-70150000D01*
X143980000Y-70150000D01*
X143740000Y-70480000D01*
G36*
X143740000Y-70480000D02*
G01*
X143500000Y-70150000D01*
X143980000Y-70150000D01*
X143740000Y-70480000D01*
G37*
%TO.C,C17*%
X129659420Y-69180000D02*
X129940580Y-69180000D01*
X129659420Y-70200000D02*
X129940580Y-70200000D01*
%TO.C,C2*%
X117579420Y-73670000D02*
X117860580Y-73670000D01*
X117579420Y-74690000D02*
X117860580Y-74690000D01*
%TO.C,C8*%
X150280000Y-75100580D02*
X150280000Y-74819420D01*
X151300000Y-75100580D02*
X151300000Y-74819420D01*
%TO.C,C1*%
X115704420Y-67810000D02*
X115985580Y-67810000D01*
X115704420Y-68830000D02*
X115985580Y-68830000D01*
%TO.C,C16*%
X129649420Y-67590000D02*
X129930580Y-67590000D01*
X129649420Y-68610000D02*
X129930580Y-68610000D01*
%TO.C,R1*%
X125457500Y-75027742D02*
X125457500Y-75502258D01*
X126502500Y-75027742D02*
X126502500Y-75502258D01*
%TO.C,C10*%
X152550000Y-71110580D02*
X152550000Y-70829420D01*
X153570000Y-71110580D02*
X153570000Y-70829420D01*
%TO.C,J1*%
X115810000Y-63970000D02*
X115810000Y-62590000D01*
X117190000Y-63970000D02*
X115810000Y-63970000D01*
X118460000Y-61210000D02*
X136350000Y-61210000D01*
X118460000Y-63970000D02*
X118460000Y-61210000D01*
X118460000Y-63970000D02*
X136350000Y-63970000D01*
X136350000Y-63970000D02*
X136350000Y-61210000D01*
%TO.C,C20*%
X151220580Y-62270000D02*
X150939420Y-62270000D01*
X151220580Y-63290000D02*
X150939420Y-63290000D01*
%TO.C,J8*%
X163260000Y-69460000D02*
X164640000Y-69460000D01*
X163260000Y-70840000D02*
X163260000Y-69460000D01*
X163260000Y-72110000D02*
X163260000Y-72220000D01*
X163260000Y-72110000D02*
X166020000Y-72110000D01*
X163260000Y-72220000D02*
X166020000Y-72220000D01*
X166020000Y-72110000D02*
X166020000Y-72220000D01*
%TO.C,Y1*%
X115750000Y-73320000D02*
X119170000Y-73320000D01*
X119170000Y-73320000D02*
X119170000Y-69200000D01*
%TO.C,J6*%
X122980000Y-77480000D02*
X124360000Y-77480000D01*
X122980000Y-78860000D02*
X122980000Y-77480000D01*
X122980000Y-80130000D02*
X122980000Y-80240000D01*
X122980000Y-80130000D02*
X125740000Y-80130000D01*
X122980000Y-80240000D02*
X125740000Y-80240000D01*
X125740000Y-80130000D02*
X125740000Y-80240000D01*
%TO.C,C9*%
X155650580Y-68180000D02*
X155369420Y-68180000D01*
X155650580Y-69200000D02*
X155369420Y-69200000D01*
%TO.C,R4*%
X116777500Y-76167742D02*
X116777500Y-76642258D01*
X117822500Y-76167742D02*
X117822500Y-76642258D01*
%TO.C,IC2*%
D11*
D12*
X162080000Y-74190000D02*
X162079999Y-74190000D01*
X162079999Y-74190000D01*
X162079999Y-74190000D01*
X162079999Y-74190000D01*
X162079999Y-74190000D01*
X162079999Y-74190000D01*
X162079999Y-74190000D01*
X162079999Y-74189999D01*
X162079999Y-74189999D01*
X162079999Y-74189999D01*
X162079999Y-74189999D01*
X162079999Y-74189999D01*
X162080000Y-74189999D01*
X162080000Y-74189999D01*
X162080000Y-74189999D01*
X162080000Y-74189999D01*
X162080000Y-74189999D01*
X162080000Y-74189999D01*
X162080000Y-74189999D01*
X162080000Y-74189999D01*
X162080000Y-74189999D01*
X162080000Y-74189999D01*
X162080000Y-74189999D01*
X162080000Y-74189999D01*
X162080001Y-74189999D01*
X162080001Y-74189999D01*
X162080001Y-74189999D01*
X162080001Y-74189999D01*
X162080001Y-74189999D01*
X162080001Y-74189999D01*
X162080001Y-74190000D01*
X162080001Y-74190000D01*
X162080001Y-74190000D01*
X162080001Y-74190000D01*
X162080001Y-74190000D01*
X162080001Y-74190000D01*
X162080001Y-74190000D01*
X162080000Y-74190000D01*
X162080000Y-74190000D02*
X162080001Y-74190000D01*
X162080001Y-74190000D01*
X162080001Y-74190000D01*
X162080001Y-74190000D01*
X162080001Y-74190000D01*
X162080001Y-74190000D01*
X162080001Y-74190001D01*
X162080001Y-74190001D01*
X162080001Y-74190001D01*
X162080001Y-74190001D01*
X162080001Y-74190001D01*
X162080001Y-74190001D01*
X162080001Y-74190001D01*
X162080000Y-74190001D01*
X162080000Y-74190001D01*
X162080000Y-74190001D01*
X162080000Y-74190001D01*
X162080000Y-74190001D01*
X162080000Y-74190001D01*
X162080000Y-74190001D01*
X162080000Y-74190001D01*
X162080000Y-74190001D01*
X162080000Y-74190001D01*
X162080000Y-74190001D01*
X162080000Y-74190001D01*
X162079999Y-74190001D01*
X162079999Y-74190001D01*
X162079999Y-74190001D01*
X162079999Y-74190001D01*
X162079999Y-74190001D01*
X162079999Y-74190001D01*
X162079999Y-74190000D01*
X162079999Y-74190000D01*
X162079999Y-74190000D01*
X162079999Y-74190000D01*
X162079999Y-74190000D01*
X162079999Y-74190000D01*
X162080000Y-74190000D01*
D11*
D12*
X162180000Y-74190000D02*
X162179999Y-74190000D01*
X162179999Y-74190000D01*
X162179999Y-74190000D01*
X162179999Y-74190000D01*
X162179999Y-74190000D01*
X162179999Y-74190000D01*
X162179999Y-74190000D01*
X162179999Y-74189999D01*
X162179999Y-74189999D01*
X162179999Y-74189999D01*
X162179999Y-74189999D01*
X162179999Y-74189999D01*
X162180000Y-74189999D01*
X162180000Y-74189999D01*
X162180000Y-74189999D01*
X162180000Y-74189999D01*
X162180000Y-74189999D01*
X162180000Y-74189999D01*
X162180000Y-74189999D01*
X162180000Y-74189999D01*
X162180000Y-74189999D01*
X162180000Y-74189999D01*
X162180000Y-74189999D01*
X162180000Y-74189999D01*
X162180001Y-74189999D01*
X162180001Y-74189999D01*
X162180001Y-74189999D01*
X162180001Y-74189999D01*
X162180001Y-74189999D01*
X162180001Y-74189999D01*
X162180001Y-74190000D01*
X162180001Y-74190000D01*
X162180001Y-74190000D01*
X162180001Y-74190000D01*
X162180001Y-74190000D01*
X162180001Y-74190000D01*
X162180001Y-74190000D01*
X162180000Y-74190000D01*
X162180000Y-74190000D02*
X162180001Y-74190000D01*
X162180001Y-74190000D01*
X162180001Y-74190000D01*
X162180001Y-74190000D01*
X162180001Y-74190000D01*
X162180001Y-74190000D01*
X162180001Y-74190001D01*
X162180001Y-74190001D01*
X162180001Y-74190001D01*
X162180001Y-74190001D01*
X162180001Y-74190001D01*
X162180001Y-74190001D01*
X162180001Y-74190001D01*
X162180000Y-74190001D01*
X162180000Y-74190001D01*
X162180000Y-74190001D01*
X162180000Y-74190001D01*
X162180000Y-74190001D01*
X162180000Y-74190001D01*
X162180000Y-74190001D01*
X162180000Y-74190001D01*
X162180000Y-74190001D01*
X162180000Y-74190001D01*
X162180000Y-74190001D01*
X162180000Y-74190001D01*
X162179999Y-74190001D01*
X162179999Y-74190001D01*
X162179999Y-74190001D01*
X162179999Y-74190001D01*
X162179999Y-74190001D01*
X162179999Y-74190001D01*
X162179999Y-74190000D01*
X162179999Y-74190000D01*
X162179999Y-74190000D01*
X162179999Y-74190000D01*
X162179999Y-74190000D01*
X162179999Y-74190000D01*
X162180000Y-74190000D01*
D13*
X164330000Y-73740000D02*
X163630000Y-73740000D01*
X164330000Y-75940000D02*
X163630000Y-75940000D01*
D11*
X162080000Y-74190000D02*
G75*
G02*
X162180000Y-74190000I50000J0D01*
G01*
X162180000Y-74190000D02*
G75*
G02*
X162080000Y-74190000I-50000J0D01*
G01*
%TO.C,R3*%
D10*
X113997500Y-76172742D02*
X113997500Y-76647258D01*
X115042500Y-76172742D02*
X115042500Y-76647258D01*
%TO.C,C6*%
X121200000Y-75300580D02*
X121200000Y-75019420D01*
X122220000Y-75300580D02*
X122220000Y-75019420D01*
%TO.C,L1*%
X139000378Y-70630000D02*
X139799622Y-70630000D01*
X139000378Y-71750000D02*
X139799622Y-71750000D01*
%TO.C,S1*%
D14*
D12*
X108677000Y-67756000D02*
X108676999Y-67756000D01*
X108676999Y-67756000D01*
X108676999Y-67756000D01*
X108676999Y-67756000D01*
X108676999Y-67756000D01*
X108676999Y-67756000D01*
X108676999Y-67756000D01*
X108676999Y-67755999D01*
X108676999Y-67755999D01*
X108676999Y-67755999D01*
X108676999Y-67755999D01*
X108676999Y-67755999D01*
X108677000Y-67755999D01*
X108677000Y-67755999D01*
X108677000Y-67755999D01*
X108677000Y-67755999D01*
X108677000Y-67755999D01*
X108677000Y-67755999D01*
X108677000Y-67755999D01*
X108677000Y-67755999D01*
X108677000Y-67755999D01*
X108677000Y-67755999D01*
X108677000Y-67755999D01*
X108677000Y-67755999D01*
X108677001Y-67755999D01*
X108677001Y-67755999D01*
X108677001Y-67755999D01*
X108677001Y-67755999D01*
X108677001Y-67755999D01*
X108677001Y-67755999D01*
X108677001Y-67756000D01*
X108677001Y-67756000D01*
X108677001Y-67756000D01*
X108677001Y-67756000D01*
X108677001Y-67756000D01*
X108677001Y-67756000D01*
X108677001Y-67756000D01*
X108677000Y-67756000D01*
X108677000Y-67756000D02*
X108677001Y-67756000D01*
X108677001Y-67756000D01*
X108677001Y-67756000D01*
X108677001Y-67756000D01*
X108677001Y-67756000D01*
X108677001Y-67756000D01*
X108677001Y-67756001D01*
X108677001Y-67756001D01*
X108677001Y-67756001D01*
X108677001Y-67756001D01*
X108677001Y-67756001D01*
X108677001Y-67756001D01*
X108677001Y-67756001D01*
X108677000Y-67756001D01*
X108677000Y-67756001D01*
X108677000Y-67756001D01*
X108677000Y-67756001D01*
X108677000Y-67756001D01*
X108677000Y-67756001D01*
X108677000Y-67756001D01*
X108677000Y-67756001D01*
X108677000Y-67756001D01*
X108677000Y-67756001D01*
X108677000Y-67756001D01*
X108677000Y-67756001D01*
X108676999Y-67756001D01*
X108676999Y-67756001D01*
X108676999Y-67756001D01*
X108676999Y-67756001D01*
X108676999Y-67756001D01*
X108676999Y-67756001D01*
X108676999Y-67756000D01*
X108676999Y-67756000D01*
X108676999Y-67756000D01*
X108676999Y-67756000D01*
X108676999Y-67756000D01*
X108676999Y-67756000D01*
X108677000Y-67756000D01*
D14*
D12*
X108677000Y-67820000D02*
X108676999Y-67820000D01*
X108676999Y-67820000D01*
X108676999Y-67820000D01*
X108676999Y-67820000D01*
X108676999Y-67820000D01*
X108676999Y-67820000D01*
X108676999Y-67820000D01*
X108676999Y-67819999D01*
X108676999Y-67819999D01*
X108676999Y-67819999D01*
X108676999Y-67819999D01*
X108676999Y-67819999D01*
X108677000Y-67819999D01*
X108677000Y-67819999D01*
X108677000Y-67819999D01*
X108677000Y-67819999D01*
X108677000Y-67819999D01*
X108677000Y-67819999D01*
X108677000Y-67819999D01*
X108677000Y-67819999D01*
X108677000Y-67819999D01*
X108677000Y-67819999D01*
X108677000Y-67819999D01*
X108677000Y-67819999D01*
X108677001Y-67819999D01*
X108677001Y-67819999D01*
X108677001Y-67819999D01*
X108677001Y-67819999D01*
X108677001Y-67819999D01*
X108677001Y-67819999D01*
X108677001Y-67820000D01*
X108677001Y-67820000D01*
X108677001Y-67820000D01*
X108677001Y-67820000D01*
X108677001Y-67820000D01*
X108677001Y-67820000D01*
X108677001Y-67820000D01*
X108677000Y-67820000D01*
X108677000Y-67820000D02*
X108677001Y-67820000D01*
X108677001Y-67820000D01*
X108677001Y-67820000D01*
X108677001Y-67820000D01*
X108677001Y-67820000D01*
X108677001Y-67820000D01*
X108677001Y-67820001D01*
X108677001Y-67820001D01*
X108677001Y-67820001D01*
X108677001Y-67820001D01*
X108677001Y-67820001D01*
X108677001Y-67820001D01*
X108677001Y-67820001D01*
X108677000Y-67820001D01*
X108677000Y-67820001D01*
X108677000Y-67820001D01*
X108677000Y-67820001D01*
X108677000Y-67820001D01*
X108677000Y-67820001D01*
X108677000Y-67820001D01*
X108677000Y-67820001D01*
X108677000Y-67820001D01*
X108677000Y-67820001D01*
X108677000Y-67820001D01*
X108677000Y-67820001D01*
X108676999Y-67820001D01*
X108676999Y-67820001D01*
X108676999Y-67820001D01*
X108676999Y-67820001D01*
X108676999Y-67820001D01*
X108676999Y-67820001D01*
X108676999Y-67820000D01*
X108676999Y-67820000D01*
X108676999Y-67820000D01*
X108676999Y-67820000D01*
X108676999Y-67820000D01*
X108676999Y-67820000D01*
X108677000Y-67820000D01*
D13*
X111335000Y-62200000D02*
X112135000Y-62200000D01*
X111335000Y-68900000D02*
X112135000Y-68900000D01*
X113035000Y-68298000D02*
X113035000Y-62802000D01*
D14*
X108677000Y-67756000D02*
G75*
G02*
X108677000Y-67820000I0J-32000D01*
G01*
X108677000Y-67820000D02*
G75*
G02*
X108677000Y-67756000I0J32000D01*
G01*
%TO.C,J7*%
D10*
X150490000Y-65170000D02*
X151870000Y-65170000D01*
X150490000Y-66550000D02*
X150490000Y-65170000D01*
X150490000Y-67820000D02*
X150490000Y-67930000D01*
X150490000Y-67820000D02*
X153250000Y-67820000D01*
X150490000Y-67930000D02*
X153250000Y-67930000D01*
X153250000Y-67820000D02*
X153250000Y-67930000D01*
%TO.C,J3*%
X110590000Y-71670000D02*
X111970000Y-71670000D01*
X110590000Y-73050000D02*
X110590000Y-71670000D01*
X110590000Y-74320000D02*
X110590000Y-74430000D01*
X110590000Y-74320000D02*
X113350000Y-74320000D01*
X110590000Y-74430000D02*
X113350000Y-74430000D01*
X113350000Y-74320000D02*
X113350000Y-74430000D01*
%TO.C,C12*%
X158550000Y-71434420D02*
X158550000Y-71715580D01*
X159570000Y-71434420D02*
X159570000Y-71715580D01*
%TO.C,C14*%
X120335580Y-67700000D02*
X120054420Y-67700000D01*
X120335580Y-68720000D02*
X120054420Y-68720000D01*
%TO.C,JP1*%
X109890000Y-75320000D02*
X112690000Y-75320000D01*
X109890000Y-77320000D02*
X109890000Y-75320000D01*
X112690000Y-75320000D02*
X112690000Y-77320000D01*
X112690000Y-77320000D02*
X109890000Y-77320000D01*
%TO.C,L3*%
X154170000Y-71662122D02*
X154170000Y-70862878D01*
X155290000Y-71662122D02*
X155290000Y-70862878D01*
%TO.C,C5*%
X135259420Y-70680000D02*
X135540580Y-70680000D01*
X135259420Y-71700000D02*
X135540580Y-71700000D01*
%TO.C,C3*%
X123820000Y-75134420D02*
X123820000Y-75415580D01*
X124840000Y-75134420D02*
X124840000Y-75415580D01*
%TO.C,C21*%
X139280000Y-66960580D02*
X139280000Y-66679420D01*
X140300000Y-66960580D02*
X140300000Y-66679420D01*
%TO.C,IC1*%
D15*
X122325000Y-67437500D02*
G75*
G02*
X122075000Y-67437500I-125000J0D01*
G01*
X122075000Y-67437500D02*
G75*
G02*
X122325000Y-67437500I125000J0D01*
G01*
%TO.C,C13*%
D10*
X159970580Y-73680000D02*
X159689420Y-73680000D01*
X159970580Y-74700000D02*
X159689420Y-74700000D01*
%TO.C,C4*%
X131000580Y-74490000D02*
X130719420Y-74490000D01*
X131000580Y-75510000D02*
X130719420Y-75510000D01*
%TO.C,C18*%
X129699420Y-71430000D02*
X129980580Y-71430000D01*
X129699420Y-72450000D02*
X129980580Y-72450000D01*
%TO.C,R2*%
X137202742Y-64687500D02*
X137677258Y-64687500D01*
X137202742Y-65732500D02*
X137677258Y-65732500D01*
%TO.C,MK1*%
D11*
D12*
X128210000Y-81700000D02*
X128209999Y-81700000D01*
X128209999Y-81700000D01*
X128209999Y-81700000D01*
X128209999Y-81700000D01*
X128209999Y-81700000D01*
X128209999Y-81700000D01*
X128209999Y-81700000D01*
X128209999Y-81699999D01*
X128209999Y-81699999D01*
X128209999Y-81699999D01*
X128209999Y-81699999D01*
X128209999Y-81699999D01*
X128210000Y-81699999D01*
X128210000Y-81699999D01*
X128210000Y-81699999D01*
X128210000Y-81699999D01*
X128210000Y-81699999D01*
X128210000Y-81699999D01*
X128210000Y-81699999D01*
X128210000Y-81699999D01*
X128210000Y-81699999D01*
X128210000Y-81699999D01*
X128210000Y-81699999D01*
X128210000Y-81699999D01*
X128210001Y-81699999D01*
X128210001Y-81699999D01*
X128210001Y-81699999D01*
X128210001Y-81699999D01*
X128210001Y-81699999D01*
X128210001Y-81699999D01*
X128210001Y-81700000D01*
X128210001Y-81700000D01*
X128210001Y-81700000D01*
X128210001Y-81700000D01*
X128210001Y-81700000D01*
X128210001Y-81700000D01*
X128210001Y-81700000D01*
X128210000Y-81700000D01*
X128210000Y-81700000D02*
X128210001Y-81700000D01*
X128210001Y-81700000D01*
X128210001Y-81700000D01*
X128210001Y-81700000D01*
X128210001Y-81700000D01*
X128210001Y-81700000D01*
X128210001Y-81700001D01*
X128210001Y-81700001D01*
X128210001Y-81700001D01*
X128210001Y-81700001D01*
X128210001Y-81700001D01*
X128210001Y-81700001D01*
X128210001Y-81700001D01*
X128210000Y-81700001D01*
X128210000Y-81700001D01*
X128210000Y-81700001D01*
X128210000Y-81700001D01*
X128210000Y-81700001D01*
X128210000Y-81700001D01*
X128210000Y-81700001D01*
X128210000Y-81700001D01*
X128210000Y-81700001D01*
X128210000Y-81700001D01*
X128210000Y-81700001D01*
X128210000Y-81700001D01*
X128209999Y-81700001D01*
X128209999Y-81700001D01*
X128209999Y-81700001D01*
X128209999Y-81700001D01*
X128209999Y-81700001D01*
X128209999Y-81700001D01*
X128209999Y-81700000D01*
X128209999Y-81700000D01*
X128209999Y-81700000D01*
X128209999Y-81700000D01*
X128209999Y-81700000D01*
X128209999Y-81700000D01*
X128210000Y-81700000D01*
D11*
D12*
X137910000Y-81700000D02*
X137909999Y-81700000D01*
X137909999Y-81700000D01*
X137909999Y-81700000D01*
X137909999Y-81700000D01*
X137909999Y-81700000D01*
X137909999Y-81700000D01*
X137909999Y-81700000D01*
X137909999Y-81699999D01*
X137909999Y-81699999D01*
X137909999Y-81699999D01*
X137909999Y-81699999D01*
X137909999Y-81699999D01*
X137910000Y-81699999D01*
X137910000Y-81699999D01*
X137910000Y-81699999D01*
X137910000Y-81699999D01*
X137910000Y-81699999D01*
X137910000Y-81699999D01*
X137910000Y-81699999D01*
X137910000Y-81699999D01*
X137910000Y-81699999D01*
X137910000Y-81699999D01*
X137910000Y-81699999D01*
X137910000Y-81699999D01*
X137910001Y-81699999D01*
X137910001Y-81699999D01*
X137910001Y-81699999D01*
X137910001Y-81699999D01*
X137910001Y-81699999D01*
X137910001Y-81699999D01*
X137910001Y-81700000D01*
X137910001Y-81700000D01*
X137910001Y-81700000D01*
X137910001Y-81700000D01*
X137910001Y-81700000D01*
X137910001Y-81700000D01*
X137910001Y-81700000D01*
X137910000Y-81700000D01*
X137910000Y-81700000D02*
X137910001Y-81700000D01*
X137910001Y-81700000D01*
X137910001Y-81700000D01*
X137910001Y-81700000D01*
X137910001Y-81700000D01*
X137910001Y-81700000D01*
X137910001Y-81700001D01*
X137910001Y-81700001D01*
X137910001Y-81700001D01*
X137910001Y-81700001D01*
X137910001Y-81700001D01*
X137910001Y-81700001D01*
X137910001Y-81700001D01*
X137910000Y-81700001D01*
X137910000Y-81700001D01*
X137910000Y-81700001D01*
X137910000Y-81700001D01*
X137910000Y-81700001D01*
X137910000Y-81700001D01*
X137910000Y-81700001D01*
X137910000Y-81700001D01*
X137910000Y-81700001D01*
X137910000Y-81700001D01*
X137910000Y-81700001D01*
X137910000Y-81700001D01*
X137909999Y-81700001D01*
X137909999Y-81700001D01*
X137909999Y-81700001D01*
X137909999Y-81700001D01*
X137909999Y-81700001D01*
X137909999Y-81700001D01*
X137909999Y-81700000D01*
X137909999Y-81700000D01*
X137909999Y-81700000D01*
X137909999Y-81700000D01*
X137909999Y-81700000D01*
X137909999Y-81700000D01*
X137910000Y-81700000D01*
D11*
X128210000Y-81700000D02*
G75*
G02*
X137910000Y-81700000I4850000J0D01*
G01*
X137910000Y-81700000D02*
G75*
G02*
X128210000Y-81700000I-4850000J0D01*
G01*
%TO.C,J9*%
D16*
X167610000Y-73675000D02*
X167610000Y-76005000D01*
X169695000Y-71590000D02*
X172025000Y-71590000D01*
X169695000Y-78090000D02*
X172025000Y-78090000D01*
X174110000Y-73675000D02*
X174110000Y-76005000D01*
%TO.C,C19*%
D10*
X129709420Y-72970000D02*
X129990580Y-72970000D01*
X129709420Y-73990000D02*
X129990580Y-73990000D01*
%TO.C,C11*%
X156020000Y-71125580D02*
X156020000Y-70844420D01*
X157040000Y-71125580D02*
X157040000Y-70844420D01*
%TO.C,L2*%
X155390378Y-73630000D02*
X156189622Y-73630000D01*
X155390378Y-74750000D02*
X156189622Y-74750000D01*
%TO.C,J5*%
X137240000Y-61220000D02*
X138620000Y-61220000D01*
X137240000Y-62600000D02*
X137240000Y-61220000D01*
X137240000Y-63870000D02*
X137240000Y-63980000D01*
X137240000Y-63870000D02*
X140000000Y-63870000D01*
X137240000Y-63980000D02*
X140000000Y-63980000D01*
X140000000Y-63870000D02*
X140000000Y-63980000D01*
%TO.C,C7*%
X137840000Y-73840580D02*
X137840000Y-73559420D01*
X138860000Y-73840580D02*
X138860000Y-73559420D01*
%TO.C,C15*%
X164505000Y-77294420D02*
X164505000Y-77575580D01*
X165525000Y-77294420D02*
X165525000Y-77575580D01*
%TO.C,J2*%
X108020000Y-81280000D02*
X109400000Y-81280000D01*
X108020000Y-82660000D02*
X108020000Y-81280000D01*
X108020000Y-83930000D02*
X108020000Y-89120000D01*
X108020000Y-83930000D02*
X110780000Y-83930000D01*
X108020000Y-89120000D02*
X110780000Y-89120000D01*
X110780000Y-83930000D02*
X110780000Y-89120000D01*
%TO.C,J4*%
X111780000Y-79140000D02*
X121980000Y-79140000D01*
X111780000Y-89140000D02*
X111780000Y-79140000D01*
X121980000Y-79140000D02*
X121980000Y-89140000D01*
X121980000Y-89140000D02*
X111780000Y-89140000D01*
%TD*%
%LPC*%
G36*
X109646742Y-86926601D02*
G01*
X109800687Y-86990367D01*
X109939234Y-87082941D01*
X110057059Y-87200766D01*
X110149633Y-87339313D01*
X110213399Y-87493258D01*
X110245907Y-87656685D01*
X110245907Y-87823315D01*
X110213399Y-87986742D01*
X110149633Y-88140687D01*
X110057059Y-88279234D01*
X109939234Y-88397059D01*
X109800687Y-88489633D01*
X109646742Y-88553399D01*
X109483315Y-88585907D01*
X109316685Y-88585907D01*
X109153258Y-88553399D01*
X108999313Y-88489633D01*
X108860766Y-88397059D01*
X108742941Y-88279234D01*
X108650367Y-88140687D01*
X108586601Y-87986742D01*
X108554093Y-87823315D01*
X108554093Y-87656685D01*
X108586601Y-87493258D01*
X108650367Y-87339313D01*
X108742941Y-87200766D01*
X108860766Y-87082941D01*
X108999313Y-86990367D01*
X109153258Y-86926601D01*
X109316685Y-86894093D01*
X109483315Y-86894093D01*
X109646742Y-86926601D01*
G37*
G36*
X109646742Y-84386601D02*
G01*
X109800687Y-84450367D01*
X109939234Y-84542941D01*
X110057059Y-84660766D01*
X110149633Y-84799313D01*
X110213399Y-84953258D01*
X110245907Y-85116685D01*
X110245907Y-85283315D01*
X110213399Y-85446742D01*
X110149633Y-85600687D01*
X110057059Y-85739234D01*
X109939234Y-85857059D01*
X109800687Y-85949633D01*
X109646742Y-86013399D01*
X109483315Y-86045907D01*
X109316685Y-86045907D01*
X109153258Y-86013399D01*
X108999313Y-85949633D01*
X108860766Y-85857059D01*
X108742941Y-85739234D01*
X108650367Y-85600687D01*
X108586601Y-85446742D01*
X108554093Y-85283315D01*
X108554093Y-85116685D01*
X108586601Y-84953258D01*
X108650367Y-84799313D01*
X108742941Y-84660766D01*
X108860766Y-84542941D01*
X108999313Y-84450367D01*
X109153258Y-84386601D01*
X109316685Y-84354093D01*
X109483315Y-84354093D01*
X109646742Y-84386601D01*
G37*
G36*
X114601256Y-82778754D02*
G01*
X114764257Y-82846271D01*
X114910954Y-82944291D01*
X115035709Y-83069046D01*
X115133729Y-83215743D01*
X115201246Y-83378744D01*
X115235666Y-83551785D01*
X115235666Y-83728215D01*
X115201246Y-83901256D01*
X115133729Y-84064257D01*
X115035709Y-84210954D01*
X114910954Y-84335709D01*
X114764257Y-84433729D01*
X114601256Y-84501246D01*
X114428215Y-84535666D01*
X114251785Y-84535666D01*
X114078744Y-84501246D01*
X113915743Y-84433729D01*
X113769046Y-84335709D01*
X113644291Y-84210954D01*
X113546271Y-84064257D01*
X113478754Y-83901256D01*
X113444334Y-83728215D01*
X113444334Y-83551785D01*
X113478754Y-83378744D01*
X113546271Y-83215743D01*
X113644291Y-83069046D01*
X113769046Y-82944291D01*
X113915743Y-82846271D01*
X114078744Y-82778754D01*
X114251785Y-82744334D01*
X114428215Y-82744334D01*
X114601256Y-82778754D01*
G37*
G36*
X119681256Y-82778754D02*
G01*
X119844257Y-82846271D01*
X119990954Y-82944291D01*
X120115709Y-83069046D01*
X120213729Y-83215743D01*
X120281246Y-83378744D01*
X120315666Y-83551785D01*
X120315666Y-83728215D01*
X120281246Y-83901256D01*
X120213729Y-84064257D01*
X120115709Y-84210954D01*
X119990954Y-84335709D01*
X119844257Y-84433729D01*
X119681256Y-84501246D01*
X119508215Y-84535666D01*
X119331785Y-84535666D01*
X119158744Y-84501246D01*
X118995743Y-84433729D01*
X118849046Y-84335709D01*
X118724291Y-84210954D01*
X118626271Y-84064257D01*
X118558754Y-83901256D01*
X118524334Y-83728215D01*
X118524334Y-83551785D01*
X118558754Y-83378744D01*
X118626271Y-83215743D01*
X118724291Y-83069046D01*
X118849046Y-82944291D01*
X118995743Y-82846271D01*
X119158744Y-82778754D01*
X119331785Y-82744334D01*
X119508215Y-82744334D01*
X119681256Y-82778754D01*
G37*
G36*
X110250000Y-83510000D02*
G01*
X108550000Y-83510000D01*
X108550000Y-81810000D01*
X110250000Y-81810000D01*
X110250000Y-83510000D01*
G37*
G36*
X132513000Y-80423000D02*
G01*
X131067000Y-80423000D01*
X131067000Y-78977000D01*
X132513000Y-78977000D01*
X132513000Y-80423000D01*
G37*
G36*
X134539876Y-79008132D02*
G01*
X134670820Y-79062371D01*
X134788666Y-79141113D01*
X134888887Y-79241334D01*
X134967629Y-79359180D01*
X135021868Y-79490124D01*
X135049519Y-79629134D01*
X135049519Y-79770866D01*
X135021868Y-79909876D01*
X134967629Y-80040820D01*
X134888887Y-80158666D01*
X134788666Y-80258887D01*
X134670820Y-80337629D01*
X134539876Y-80391868D01*
X134400866Y-80419519D01*
X134259134Y-80419519D01*
X134120124Y-80391868D01*
X133989180Y-80337629D01*
X133871334Y-80258887D01*
X133771113Y-80158666D01*
X133692371Y-80040820D01*
X133638132Y-79909876D01*
X133610481Y-79770866D01*
X133610481Y-79629134D01*
X133638132Y-79490124D01*
X133692371Y-79359180D01*
X133771113Y-79241334D01*
X133871334Y-79141113D01*
X133989180Y-79062371D01*
X134120124Y-79008132D01*
X134259134Y-78980481D01*
X134400866Y-78980481D01*
X134539876Y-79008132D01*
G37*
G36*
X125210000Y-79710000D02*
G01*
X123510000Y-79710000D01*
X123510000Y-78010000D01*
X125210000Y-78010000D01*
X125210000Y-79710000D01*
G37*
G36*
X165351104Y-77777127D02*
G01*
X165424099Y-77825901D01*
X165472873Y-77898896D01*
X165490000Y-77985000D01*
X165490000Y-78435000D01*
X165472873Y-78521104D01*
X165424099Y-78594099D01*
X165351104Y-78642873D01*
X165265000Y-78660000D01*
X164765000Y-78660000D01*
X164678896Y-78642873D01*
X164605901Y-78594099D01*
X164557127Y-78521104D01*
X164540000Y-78435000D01*
X164540000Y-77985000D01*
X164557127Y-77898896D01*
X164605901Y-77825901D01*
X164678896Y-77777127D01*
X164765000Y-77760000D01*
X165265000Y-77760000D01*
X165351104Y-77777127D01*
G37*
G36*
X168582431Y-76255244D02*
G01*
X168756592Y-76311833D01*
X168919756Y-76394969D01*
X169067906Y-76502606D01*
X169197394Y-76632094D01*
X169305031Y-76780244D01*
X169388167Y-76943408D01*
X169444756Y-77117569D01*
X169473403Y-77298438D01*
X169473403Y-77481562D01*
X169444756Y-77662431D01*
X169388167Y-77836592D01*
X169305031Y-77999756D01*
X169197394Y-78147906D01*
X169067906Y-78277394D01*
X168919756Y-78385031D01*
X168756592Y-78468167D01*
X168582431Y-78524756D01*
X168401562Y-78553403D01*
X168218438Y-78553403D01*
X168037569Y-78524756D01*
X167863408Y-78468167D01*
X167700244Y-78385031D01*
X167552094Y-78277394D01*
X167422606Y-78147906D01*
X167314969Y-77999756D01*
X167231833Y-77836592D01*
X167175244Y-77662431D01*
X167146597Y-77481562D01*
X167146597Y-77298438D01*
X167175244Y-77117569D01*
X167231833Y-76943408D01*
X167314969Y-76780244D01*
X167422606Y-76632094D01*
X167552094Y-76502606D01*
X167700244Y-76394969D01*
X167863408Y-76311833D01*
X168037569Y-76255244D01*
X168218438Y-76226597D01*
X168401562Y-76226597D01*
X168582431Y-76255244D01*
G37*
G36*
X173682431Y-76255244D02*
G01*
X173856592Y-76311833D01*
X174019756Y-76394969D01*
X174167906Y-76502606D01*
X174297394Y-76632094D01*
X174405031Y-76780244D01*
X174488167Y-76943408D01*
X174544756Y-77117569D01*
X174573403Y-77298438D01*
X174573403Y-77481562D01*
X174544756Y-77662431D01*
X174488167Y-77836592D01*
X174405031Y-77999756D01*
X174297394Y-78147906D01*
X174167906Y-78277394D01*
X174019756Y-78385031D01*
X173856592Y-78468167D01*
X173682431Y-78524756D01*
X173501562Y-78553403D01*
X173318438Y-78553403D01*
X173137569Y-78524756D01*
X172963408Y-78468167D01*
X172800244Y-78385031D01*
X172652094Y-78277394D01*
X172522606Y-78147906D01*
X172414969Y-77999756D01*
X172331833Y-77836592D01*
X172275244Y-77662431D01*
X172246597Y-77481562D01*
X172246597Y-77298438D01*
X172275244Y-77117569D01*
X172331833Y-76943408D01*
X172414969Y-76780244D01*
X172522606Y-76632094D01*
X172652094Y-76502606D01*
X172800244Y-76394969D01*
X172963408Y-76311833D01*
X173137569Y-76255244D01*
X173318438Y-76226597D01*
X173501562Y-76226597D01*
X173682431Y-76255244D01*
G37*
G36*
X114871537Y-76850224D02*
G01*
X114936421Y-76893579D01*
X114979776Y-76958463D01*
X114995000Y-77035000D01*
X114995000Y-77435000D01*
X114979776Y-77511537D01*
X114936421Y-77576421D01*
X114871537Y-77619776D01*
X114795000Y-77635000D01*
X114245000Y-77635000D01*
X114168463Y-77619776D01*
X114103579Y-77576421D01*
X114060224Y-77511537D01*
X114045000Y-77435000D01*
X114045000Y-77035000D01*
X114060224Y-76958463D01*
X114103579Y-76893579D01*
X114168463Y-76850224D01*
X114245000Y-76835000D01*
X114795000Y-76835000D01*
X114871537Y-76850224D01*
G37*
G36*
X117651537Y-76845224D02*
G01*
X117716421Y-76888579D01*
X117759776Y-76953463D01*
X117775000Y-77030000D01*
X117775000Y-77430000D01*
X117759776Y-77506537D01*
X117716421Y-77571421D01*
X117651537Y-77614776D01*
X117575000Y-77630000D01*
X117025000Y-77630000D01*
X116948463Y-77614776D01*
X116883579Y-77571421D01*
X116840224Y-77506537D01*
X116825000Y-77430000D01*
X116825000Y-77030000D01*
X116840224Y-76953463D01*
X116883579Y-76888579D01*
X116948463Y-76845224D01*
X117025000Y-76830000D01*
X117575000Y-76830000D01*
X117651537Y-76845224D01*
G37*
G36*
X165351104Y-76227127D02*
G01*
X165424099Y-76275901D01*
X165472873Y-76348896D01*
X165490000Y-76435000D01*
X165490000Y-76885000D01*
X165472873Y-76971104D01*
X165424099Y-77044099D01*
X165351104Y-77092873D01*
X165265000Y-77110000D01*
X164765000Y-77110000D01*
X164678896Y-77092873D01*
X164605901Y-77044099D01*
X164557127Y-76971104D01*
X164540000Y-76885000D01*
X164540000Y-76435000D01*
X164557127Y-76348896D01*
X164605901Y-76275901D01*
X164678896Y-76227127D01*
X164765000Y-76210000D01*
X165265000Y-76210000D01*
X165351104Y-76227127D01*
G37*
G36*
X112440000Y-77070000D02*
G01*
X111440000Y-77070000D01*
X111142071Y-77070000D01*
X111140000Y-77070000D01*
X110140000Y-77070000D01*
X110140000Y-75570000D01*
X111140000Y-75570000D01*
X112435077Y-75570000D01*
X112440000Y-75570000D01*
X112440000Y-77070000D01*
G37*
G36*
X124666104Y-75617127D02*
G01*
X124739099Y-75665901D01*
X124787873Y-75738896D01*
X124805000Y-75825000D01*
X124805000Y-76275000D01*
X124787873Y-76361104D01*
X124739099Y-76434099D01*
X124666104Y-76482873D01*
X124580000Y-76500000D01*
X124080000Y-76500000D01*
X123993896Y-76482873D01*
X123920901Y-76434099D01*
X123872127Y-76361104D01*
X123855000Y-76275000D01*
X123855000Y-75825000D01*
X123872127Y-75738896D01*
X123920901Y-75665901D01*
X123993896Y-75617127D01*
X124080000Y-75600000D01*
X124580000Y-75600000D01*
X124666104Y-75617127D01*
G37*
G36*
X126331537Y-75705224D02*
G01*
X126396421Y-75748579D01*
X126439776Y-75813463D01*
X126455000Y-75890000D01*
X126455000Y-76290000D01*
X126439776Y-76366537D01*
X126396421Y-76431421D01*
X126331537Y-76474776D01*
X126255000Y-76490000D01*
X125705000Y-76490000D01*
X125628463Y-76474776D01*
X125563579Y-76431421D01*
X125520224Y-76366537D01*
X125505000Y-76290000D01*
X125505000Y-75890000D01*
X125520224Y-75813463D01*
X125563579Y-75748579D01*
X125628463Y-75705224D01*
X125705000Y-75690000D01*
X126255000Y-75690000D01*
X126331537Y-75705224D01*
G37*
G36*
X122046104Y-75502127D02*
G01*
X122119099Y-75550901D01*
X122167873Y-75623896D01*
X122185000Y-75710000D01*
X122185000Y-76160000D01*
X122167873Y-76246104D01*
X122119099Y-76319099D01*
X122046104Y-76367873D01*
X121960000Y-76385000D01*
X121460000Y-76385000D01*
X121373896Y-76367873D01*
X121300901Y-76319099D01*
X121252127Y-76246104D01*
X121235000Y-76160000D01*
X121235000Y-75710000D01*
X121252127Y-75623896D01*
X121300901Y-75550901D01*
X121373896Y-75502127D01*
X121460000Y-75485000D01*
X121960000Y-75485000D01*
X122046104Y-75502127D01*
G37*
G36*
X151126104Y-75302127D02*
G01*
X151199099Y-75350901D01*
X151247873Y-75423896D01*
X151265000Y-75510000D01*
X151265000Y-75960000D01*
X151247873Y-76046104D01*
X151199099Y-76119099D01*
X151126104Y-76167873D01*
X151040000Y-76185000D01*
X150540000Y-76185000D01*
X150453896Y-76167873D01*
X150380901Y-76119099D01*
X150332127Y-76046104D01*
X150315000Y-75960000D01*
X150315000Y-75510000D01*
X150332127Y-75423896D01*
X150380901Y-75350901D01*
X150453896Y-75302127D01*
X150540000Y-75285000D01*
X151040000Y-75285000D01*
X151126104Y-75302127D01*
G37*
G36*
X114871537Y-75200224D02*
G01*
X114936421Y-75243579D01*
X114979776Y-75308463D01*
X114995000Y-75385000D01*
X114995000Y-75785000D01*
X114979776Y-75861537D01*
X114936421Y-75926421D01*
X114871537Y-75969776D01*
X114795000Y-75985000D01*
X114245000Y-75985000D01*
X114168463Y-75969776D01*
X114103579Y-75926421D01*
X114060224Y-75861537D01*
X114045000Y-75785000D01*
X114045000Y-75385000D01*
X114060224Y-75308463D01*
X114103579Y-75243579D01*
X114168463Y-75200224D01*
X114245000Y-75185000D01*
X114795000Y-75185000D01*
X114871537Y-75200224D01*
G37*
G36*
X117651537Y-75195224D02*
G01*
X117716421Y-75238579D01*
X117759776Y-75303463D01*
X117775000Y-75380000D01*
X117775000Y-75780000D01*
X117759776Y-75856537D01*
X117716421Y-75921421D01*
X117651537Y-75964776D01*
X117575000Y-75980000D01*
X117025000Y-75980000D01*
X116948463Y-75964776D01*
X116883579Y-75921421D01*
X116840224Y-75856537D01*
X116825000Y-75780000D01*
X116825000Y-75380000D01*
X116840224Y-75303463D01*
X116883579Y-75238579D01*
X116948463Y-75195224D01*
X117025000Y-75180000D01*
X117575000Y-75180000D01*
X117651537Y-75195224D01*
G37*
G36*
X171129094Y-73952916D02*
G01*
X171296985Y-74022459D01*
X171448083Y-74123419D01*
X171576581Y-74251917D01*
X171677541Y-74403015D01*
X171747084Y-74570906D01*
X171782536Y-74749138D01*
X171782536Y-74930862D01*
X171747084Y-75109094D01*
X171677541Y-75276985D01*
X171576581Y-75428083D01*
X171448083Y-75556581D01*
X171296985Y-75657541D01*
X171129094Y-75727084D01*
X170950862Y-75762536D01*
X170769138Y-75762536D01*
X170590906Y-75727084D01*
X170423015Y-75657541D01*
X170271917Y-75556581D01*
X170143419Y-75428083D01*
X170042459Y-75276985D01*
X169972916Y-75109094D01*
X169937464Y-74930862D01*
X169937464Y-74749138D01*
X169972916Y-74570906D01*
X170042459Y-74403015D01*
X170143419Y-74251917D01*
X170271917Y-74123419D01*
X170423015Y-74022459D01*
X170590906Y-73952916D01*
X170769138Y-73917464D01*
X170950862Y-73917464D01*
X171129094Y-73952916D01*
G37*
G36*
X163380000Y-75740000D02*
G01*
X162580000Y-75740000D01*
X162580000Y-75240000D01*
X163380000Y-75240000D01*
X163380000Y-75740000D01*
G37*
G36*
X165380000Y-75740000D02*
G01*
X164580000Y-75740000D01*
X164580000Y-75240000D01*
X165380000Y-75240000D01*
X165380000Y-75740000D01*
G37*
G36*
X130396104Y-74542127D02*
G01*
X130469099Y-74590901D01*
X130517873Y-74663896D01*
X130535000Y-74750000D01*
X130535000Y-75250000D01*
X130517873Y-75336104D01*
X130469099Y-75409099D01*
X130396104Y-75457873D01*
X130310000Y-75475000D01*
X129860000Y-75475000D01*
X129773896Y-75457873D01*
X129700901Y-75409099D01*
X129652127Y-75336104D01*
X129635000Y-75250000D01*
X129635000Y-74750000D01*
X129652127Y-74663896D01*
X129700901Y-74590901D01*
X129773896Y-74542127D01*
X129860000Y-74525000D01*
X130310000Y-74525000D01*
X130396104Y-74542127D01*
G37*
G36*
X131946104Y-74542127D02*
G01*
X132019099Y-74590901D01*
X132067873Y-74663896D01*
X132085000Y-74750000D01*
X132085000Y-75250000D01*
X132067873Y-75336104D01*
X132019099Y-75409099D01*
X131946104Y-75457873D01*
X131860000Y-75475000D01*
X131410000Y-75475000D01*
X131323896Y-75457873D01*
X131250901Y-75409099D01*
X131202127Y-75336104D01*
X131185000Y-75250000D01*
X131185000Y-74750000D01*
X131202127Y-74663896D01*
X131250901Y-74590901D01*
X131323896Y-74542127D01*
X131410000Y-74525000D01*
X131860000Y-74525000D01*
X131946104Y-74542127D01*
G37*
G36*
X163380000Y-75090000D02*
G01*
X162580000Y-75090000D01*
X162580000Y-74590000D01*
X163380000Y-74590000D01*
X163380000Y-75090000D01*
G37*
G36*
X165380000Y-75090000D02*
G01*
X164580000Y-75090000D01*
X164580000Y-74590000D01*
X165380000Y-74590000D01*
X165380000Y-75090000D01*
G37*
G36*
X124666104Y-74067127D02*
G01*
X124739099Y-74115901D01*
X124787873Y-74188896D01*
X124805000Y-74275000D01*
X124805000Y-74725000D01*
X124787873Y-74811104D01*
X124739099Y-74884099D01*
X124666104Y-74932873D01*
X124580000Y-74950000D01*
X124080000Y-74950000D01*
X123993896Y-74932873D01*
X123920901Y-74884099D01*
X123872127Y-74811104D01*
X123855000Y-74725000D01*
X123855000Y-74275000D01*
X123872127Y-74188896D01*
X123920901Y-74115901D01*
X123993896Y-74067127D01*
X124080000Y-74050000D01*
X124580000Y-74050000D01*
X124666104Y-74067127D01*
G37*
G36*
X138686104Y-74042127D02*
G01*
X138759099Y-74090901D01*
X138807873Y-74163896D01*
X138825000Y-74250000D01*
X138825000Y-74700000D01*
X138807873Y-74786104D01*
X138759099Y-74859099D01*
X138686104Y-74907873D01*
X138600000Y-74925000D01*
X138100000Y-74925000D01*
X138013896Y-74907873D01*
X137940901Y-74859099D01*
X137892127Y-74786104D01*
X137875000Y-74700000D01*
X137875000Y-74250000D01*
X137892127Y-74163896D01*
X137940901Y-74090901D01*
X138013896Y-74042127D01*
X138100000Y-74025000D01*
X138600000Y-74025000D01*
X138686104Y-74042127D01*
G37*
G36*
X126331537Y-74055224D02*
G01*
X126396421Y-74098579D01*
X126439776Y-74163463D01*
X126455000Y-74240000D01*
X126455000Y-74640000D01*
X126439776Y-74716537D01*
X126396421Y-74781421D01*
X126331537Y-74824776D01*
X126255000Y-74840000D01*
X125705000Y-74840000D01*
X125628463Y-74824776D01*
X125563579Y-74781421D01*
X125520224Y-74716537D01*
X125505000Y-74640000D01*
X125505000Y-74240000D01*
X125520224Y-74163463D01*
X125563579Y-74098579D01*
X125628463Y-74055224D01*
X125705000Y-74040000D01*
X126255000Y-74040000D01*
X126331537Y-74055224D01*
G37*
G36*
X122046104Y-73952127D02*
G01*
X122119099Y-74000901D01*
X122167873Y-74073896D01*
X122185000Y-74160000D01*
X122185000Y-74610000D01*
X122167873Y-74696104D01*
X122119099Y-74769099D01*
X122046104Y-74817873D01*
X121960000Y-74835000D01*
X121460000Y-74835000D01*
X121373896Y-74817873D01*
X121300901Y-74769099D01*
X121252127Y-74696104D01*
X121235000Y-74610000D01*
X121235000Y-74160000D01*
X121252127Y-74073896D01*
X121300901Y-74000901D01*
X121373896Y-73952127D01*
X121460000Y-73935000D01*
X121960000Y-73935000D01*
X122046104Y-73952127D01*
G37*
G36*
X155029962Y-73606651D02*
G01*
X155100930Y-73654070D01*
X155148349Y-73725038D01*
X155165000Y-73808750D01*
X155165000Y-74571250D01*
X155148349Y-74654962D01*
X155100930Y-74725930D01*
X155029962Y-74773349D01*
X154946250Y-74790000D01*
X154508750Y-74790000D01*
X154425038Y-74773349D01*
X154354070Y-74725930D01*
X154306651Y-74654962D01*
X154290000Y-74571250D01*
X154290000Y-73808750D01*
X154306651Y-73725038D01*
X154354070Y-73654070D01*
X154425038Y-73606651D01*
X154508750Y-73590000D01*
X154946250Y-73590000D01*
X155029962Y-73606651D01*
G37*
G36*
X157154962Y-73606651D02*
G01*
X157225930Y-73654070D01*
X157273349Y-73725038D01*
X157290000Y-73808750D01*
X157290000Y-74571250D01*
X157273349Y-74654962D01*
X157225930Y-74725930D01*
X157154962Y-74773349D01*
X157071250Y-74790000D01*
X156633750Y-74790000D01*
X156550038Y-74773349D01*
X156479070Y-74725930D01*
X156431651Y-74654962D01*
X156415000Y-74571250D01*
X156415000Y-73808750D01*
X156431651Y-73725038D01*
X156479070Y-73654070D01*
X156550038Y-73606651D01*
X156633750Y-73590000D01*
X157071250Y-73590000D01*
X157154962Y-73606651D01*
G37*
G36*
X159366104Y-73732127D02*
G01*
X159439099Y-73780901D01*
X159487873Y-73853896D01*
X159505000Y-73940000D01*
X159505000Y-74440000D01*
X159487873Y-74526104D01*
X159439099Y-74599099D01*
X159366104Y-74647873D01*
X159280000Y-74665000D01*
X158830000Y-74665000D01*
X158743896Y-74647873D01*
X158670901Y-74599099D01*
X158622127Y-74526104D01*
X158605000Y-74440000D01*
X158605000Y-73940000D01*
X158622127Y-73853896D01*
X158670901Y-73780901D01*
X158743896Y-73732127D01*
X158830000Y-73715000D01*
X159280000Y-73715000D01*
X159366104Y-73732127D01*
G37*
G36*
X160916104Y-73732127D02*
G01*
X160989099Y-73780901D01*
X161037873Y-73853896D01*
X161055000Y-73940000D01*
X161055000Y-74440000D01*
X161037873Y-74526104D01*
X160989099Y-74599099D01*
X160916104Y-74647873D01*
X160830000Y-74665000D01*
X160380000Y-74665000D01*
X160293896Y-74647873D01*
X160220901Y-74599099D01*
X160172127Y-74526104D01*
X160155000Y-74440000D01*
X160155000Y-73940000D01*
X160172127Y-73853896D01*
X160220901Y-73780901D01*
X160293896Y-73732127D01*
X160380000Y-73715000D01*
X160830000Y-73715000D01*
X160916104Y-73732127D01*
G37*
G36*
X117256104Y-73722127D02*
G01*
X117329099Y-73770901D01*
X117377873Y-73843896D01*
X117395000Y-73930000D01*
X117395000Y-74430000D01*
X117377873Y-74516104D01*
X117329099Y-74589099D01*
X117256104Y-74637873D01*
X117170000Y-74655000D01*
X116720000Y-74655000D01*
X116633896Y-74637873D01*
X116560901Y-74589099D01*
X116512127Y-74516104D01*
X116495000Y-74430000D01*
X116495000Y-73930000D01*
X116512127Y-73843896D01*
X116560901Y-73770901D01*
X116633896Y-73722127D01*
X116720000Y-73705000D01*
X117170000Y-73705000D01*
X117256104Y-73722127D01*
G37*
G36*
X118806104Y-73722127D02*
G01*
X118879099Y-73770901D01*
X118927873Y-73843896D01*
X118945000Y-73930000D01*
X118945000Y-74430000D01*
X118927873Y-74516104D01*
X118879099Y-74589099D01*
X118806104Y-74637873D01*
X118720000Y-74655000D01*
X118270000Y-74655000D01*
X118183896Y-74637873D01*
X118110901Y-74589099D01*
X118062127Y-74516104D01*
X118045000Y-74430000D01*
X118045000Y-73930000D01*
X118062127Y-73843896D01*
X118110901Y-73770901D01*
X118183896Y-73722127D01*
X118270000Y-73705000D01*
X118720000Y-73705000D01*
X118806104Y-73722127D01*
G37*
G36*
X144071104Y-73757127D02*
G01*
X144144099Y-73805901D01*
X144192873Y-73878896D01*
X144210000Y-73965000D01*
X144210000Y-74415000D01*
X144192873Y-74501104D01*
X144144099Y-74574099D01*
X144071104Y-74622873D01*
X143985000Y-74640000D01*
X143135000Y-74640000D01*
X143048896Y-74622873D01*
X142975901Y-74574099D01*
X142927127Y-74501104D01*
X142910000Y-74415000D01*
X142910000Y-73965000D01*
X142927127Y-73878896D01*
X142975901Y-73805901D01*
X143048896Y-73757127D01*
X143135000Y-73740000D01*
X143985000Y-73740000D01*
X144071104Y-73757127D01*
G37*
G36*
X151126104Y-73752127D02*
G01*
X151199099Y-73800901D01*
X151247873Y-73873896D01*
X151265000Y-73960000D01*
X151265000Y-74410000D01*
X151247873Y-74496104D01*
X151199099Y-74569099D01*
X151126104Y-74617873D01*
X151040000Y-74635000D01*
X150540000Y-74635000D01*
X150453896Y-74617873D01*
X150380901Y-74569099D01*
X150332127Y-74496104D01*
X150315000Y-74410000D01*
X150315000Y-73960000D01*
X150332127Y-73873896D01*
X150380901Y-73800901D01*
X150453896Y-73752127D01*
X150540000Y-73735000D01*
X151040000Y-73735000D01*
X151126104Y-73752127D01*
G37*
G36*
X163380000Y-74440000D02*
G01*
X162580000Y-74440000D01*
X162580000Y-73940000D01*
X163380000Y-73940000D01*
X163380000Y-74440000D01*
G37*
G36*
X165380000Y-74440000D02*
G01*
X164580000Y-74440000D01*
X164580000Y-73940000D01*
X165380000Y-73940000D01*
X165380000Y-74440000D01*
G37*
G36*
X129386104Y-73022127D02*
G01*
X129459099Y-73070901D01*
X129507873Y-73143896D01*
X129525000Y-73230000D01*
X129525000Y-73730000D01*
X129507873Y-73816104D01*
X129459099Y-73889099D01*
X129386104Y-73937873D01*
X129300000Y-73955000D01*
X128850000Y-73955000D01*
X128763896Y-73937873D01*
X128690901Y-73889099D01*
X128642127Y-73816104D01*
X128625000Y-73730000D01*
X128625000Y-73230000D01*
X128642127Y-73143896D01*
X128690901Y-73070901D01*
X128763896Y-73022127D01*
X128850000Y-73005000D01*
X129300000Y-73005000D01*
X129386104Y-73022127D01*
G37*
G36*
X130936104Y-73022127D02*
G01*
X131009099Y-73070901D01*
X131057873Y-73143896D01*
X131075000Y-73230000D01*
X131075000Y-73730000D01*
X131057873Y-73816104D01*
X131009099Y-73889099D01*
X130936104Y-73937873D01*
X130850000Y-73955000D01*
X130400000Y-73955000D01*
X130313896Y-73937873D01*
X130240901Y-73889099D01*
X130192127Y-73816104D01*
X130175000Y-73730000D01*
X130175000Y-73230000D01*
X130192127Y-73143896D01*
X130240901Y-73070901D01*
X130313896Y-73022127D01*
X130400000Y-73005000D01*
X130850000Y-73005000D01*
X130936104Y-73022127D01*
G37*
G36*
X112820000Y-73900000D02*
G01*
X111120000Y-73900000D01*
X111120000Y-72200000D01*
X112820000Y-72200000D01*
X112820000Y-73900000D01*
G37*
G36*
X147513536Y-71819964D02*
G01*
X147515000Y-71823500D01*
X147515000Y-73556500D01*
X147513536Y-73560036D01*
X147510000Y-73561500D01*
X147500054Y-73561500D01*
X144394946Y-73561500D01*
X144385000Y-73561500D01*
X144381464Y-73560036D01*
X144380000Y-73556500D01*
X144380000Y-73174289D01*
X144350711Y-73145000D01*
X142910000Y-73145000D01*
X142906464Y-73143536D01*
X142905000Y-73140000D01*
X142905000Y-72240000D01*
X142906464Y-72236464D01*
X142910000Y-72235000D01*
X144350711Y-72235000D01*
X144380000Y-72205711D01*
X144380000Y-71833445D01*
X144380000Y-71823500D01*
X144381464Y-71819964D01*
X144385000Y-71818500D01*
X147510000Y-71818500D01*
X147513536Y-71819964D01*
G37*
G36*
X168582431Y-71155244D02*
G01*
X168756592Y-71211833D01*
X168919756Y-71294969D01*
X169067906Y-71402606D01*
X169197394Y-71532094D01*
X169305031Y-71680244D01*
X169388167Y-71843408D01*
X169444756Y-72017569D01*
X169473403Y-72198438D01*
X169473403Y-72381562D01*
X169444756Y-72562431D01*
X169388167Y-72736592D01*
X169305031Y-72899756D01*
X169197394Y-73047906D01*
X169067906Y-73177394D01*
X168919756Y-73285031D01*
X168756592Y-73368167D01*
X168582431Y-73424756D01*
X168401562Y-73453403D01*
X168218438Y-73453403D01*
X168037569Y-73424756D01*
X167863408Y-73368167D01*
X167700244Y-73285031D01*
X167552094Y-73177394D01*
X167422606Y-73047906D01*
X167314969Y-72899756D01*
X167231833Y-72736592D01*
X167175244Y-72562431D01*
X167146597Y-72381562D01*
X167146597Y-72198438D01*
X167175244Y-72017569D01*
X167231833Y-71843408D01*
X167314969Y-71680244D01*
X167422606Y-71532094D01*
X167552094Y-71402606D01*
X167700244Y-71294969D01*
X167863408Y-71211833D01*
X168037569Y-71155244D01*
X168218438Y-71126597D01*
X168401562Y-71126597D01*
X168582431Y-71155244D01*
G37*
G36*
X173682431Y-71155244D02*
G01*
X173856592Y-71211833D01*
X174019756Y-71294969D01*
X174167906Y-71402606D01*
X174297394Y-71532094D01*
X174405031Y-71680244D01*
X174488167Y-71843408D01*
X174544756Y-72017569D01*
X174573403Y-72198438D01*
X174573403Y-72381562D01*
X174544756Y-72562431D01*
X174488167Y-72736592D01*
X174405031Y-72899756D01*
X174297394Y-73047906D01*
X174167906Y-73177394D01*
X174019756Y-73285031D01*
X173856592Y-73368167D01*
X173682431Y-73424756D01*
X173501562Y-73453403D01*
X173318438Y-73453403D01*
X173137569Y-73424756D01*
X172963408Y-73368167D01*
X172800244Y-73285031D01*
X172652094Y-73177394D01*
X172522606Y-73047906D01*
X172414969Y-72899756D01*
X172331833Y-72736592D01*
X172275244Y-72562431D01*
X172246597Y-72381562D01*
X172246597Y-72198438D01*
X172275244Y-72017569D01*
X172331833Y-71843408D01*
X172414969Y-71680244D01*
X172522606Y-71532094D01*
X172652094Y-71402606D01*
X172800244Y-71294969D01*
X172963408Y-71211833D01*
X173137569Y-71155244D01*
X173318438Y-71126597D01*
X173501562Y-71126597D01*
X173682431Y-71155244D01*
G37*
G36*
X138686104Y-72492127D02*
G01*
X138759099Y-72540901D01*
X138807873Y-72613896D01*
X138825000Y-72700000D01*
X138825000Y-73150000D01*
X138807873Y-73236104D01*
X138759099Y-73309099D01*
X138686104Y-73357873D01*
X138600000Y-73375000D01*
X138100000Y-73375000D01*
X138013896Y-73357873D01*
X137940901Y-73309099D01*
X137892127Y-73236104D01*
X137875000Y-73150000D01*
X137875000Y-72700000D01*
X137892127Y-72613896D01*
X137940901Y-72540901D01*
X138013896Y-72492127D01*
X138100000Y-72475000D01*
X138600000Y-72475000D01*
X138686104Y-72492127D01*
G37*
G36*
X116964047Y-71660805D02*
G01*
X117015408Y-71666764D01*
X117032954Y-71674511D01*
X117055671Y-71679030D01*
X117079991Y-71695280D01*
X117100793Y-71704465D01*
X117115000Y-71718672D01*
X117136777Y-71733223D01*
X117151327Y-71754999D01*
X117165534Y-71769206D01*
X117174718Y-71790006D01*
X117190970Y-71814329D01*
X117195489Y-71837048D01*
X117203235Y-71854591D01*
X117209192Y-71905940D01*
X117210000Y-71910000D01*
X117210000Y-72810000D01*
X117209192Y-72814059D01*
X117203235Y-72865408D01*
X117195489Y-72882950D01*
X117190970Y-72905671D01*
X117174716Y-72929995D01*
X117165534Y-72950793D01*
X117151329Y-72964997D01*
X117136777Y-72986777D01*
X117114997Y-73001329D01*
X117100793Y-73015534D01*
X117079995Y-73024716D01*
X117055671Y-73040970D01*
X117032950Y-73045489D01*
X117015408Y-73053235D01*
X116964061Y-73059192D01*
X116960000Y-73060000D01*
X116260000Y-73060000D01*
X116255941Y-73059192D01*
X116204591Y-73053235D01*
X116187048Y-73045489D01*
X116164329Y-73040970D01*
X116140006Y-73024718D01*
X116119206Y-73015534D01*
X116104999Y-73001327D01*
X116083223Y-72986777D01*
X116068672Y-72965000D01*
X116054465Y-72950793D01*
X116045280Y-72929991D01*
X116029030Y-72905671D01*
X116024511Y-72882954D01*
X116016764Y-72865408D01*
X116010805Y-72814049D01*
X116010000Y-72810000D01*
X116010000Y-71910000D01*
X116010804Y-71905953D01*
X116016764Y-71854591D01*
X116024511Y-71837043D01*
X116029030Y-71814329D01*
X116045278Y-71790010D01*
X116054465Y-71769206D01*
X116068674Y-71754996D01*
X116083223Y-71733223D01*
X116104996Y-71718674D01*
X116119206Y-71704465D01*
X116140010Y-71695278D01*
X116164329Y-71679030D01*
X116187043Y-71674511D01*
X116204591Y-71666764D01*
X116255952Y-71660805D01*
X116260000Y-71660000D01*
X116960000Y-71660000D01*
X116964047Y-71660805D01*
G37*
G36*
X118664047Y-71660805D02*
G01*
X118715408Y-71666764D01*
X118732954Y-71674511D01*
X118755671Y-71679030D01*
X118779991Y-71695280D01*
X118800793Y-71704465D01*
X118815000Y-71718672D01*
X118836777Y-71733223D01*
X118851327Y-71754999D01*
X118865534Y-71769206D01*
X118874718Y-71790006D01*
X118890970Y-71814329D01*
X118895489Y-71837048D01*
X118903235Y-71854591D01*
X118909192Y-71905940D01*
X118910000Y-71910000D01*
X118910000Y-72810000D01*
X118909192Y-72814059D01*
X118903235Y-72865408D01*
X118895489Y-72882950D01*
X118890970Y-72905671D01*
X118874716Y-72929995D01*
X118865534Y-72950793D01*
X118851329Y-72964997D01*
X118836777Y-72986777D01*
X118814997Y-73001329D01*
X118800793Y-73015534D01*
X118779995Y-73024716D01*
X118755671Y-73040970D01*
X118732950Y-73045489D01*
X118715408Y-73053235D01*
X118664061Y-73059192D01*
X118660000Y-73060000D01*
X117960000Y-73060000D01*
X117955941Y-73059192D01*
X117904591Y-73053235D01*
X117887048Y-73045489D01*
X117864329Y-73040970D01*
X117840006Y-73024718D01*
X117819206Y-73015534D01*
X117804999Y-73001327D01*
X117783223Y-72986777D01*
X117768672Y-72965000D01*
X117754465Y-72950793D01*
X117745280Y-72929991D01*
X117729030Y-72905671D01*
X117724511Y-72882954D01*
X117716764Y-72865408D01*
X117710805Y-72814049D01*
X117710000Y-72810000D01*
X117710000Y-71910000D01*
X117710804Y-71905953D01*
X117716764Y-71854591D01*
X117724511Y-71837043D01*
X117729030Y-71814329D01*
X117745278Y-71790010D01*
X117754465Y-71769206D01*
X117768674Y-71754996D01*
X117783223Y-71733223D01*
X117804996Y-71718674D01*
X117819206Y-71704465D01*
X117840010Y-71695278D01*
X117864329Y-71679030D01*
X117887043Y-71674511D01*
X117904591Y-71666764D01*
X117955952Y-71660805D01*
X117960000Y-71660000D01*
X118660000Y-71660000D01*
X118664047Y-71660805D01*
G37*
G36*
X123475000Y-72812500D02*
G01*
X123175000Y-72812500D01*
X123175000Y-71962500D01*
X123475000Y-71962500D01*
X123475000Y-72812500D01*
G37*
G36*
X123975000Y-72812500D02*
G01*
X123675000Y-72812500D01*
X123675000Y-71962500D01*
X123975000Y-71962500D01*
X123975000Y-72812500D01*
G37*
G36*
X124475000Y-72812500D02*
G01*
X124175000Y-72812500D01*
X124175000Y-71962500D01*
X124475000Y-71962500D01*
X124475000Y-72812500D01*
G37*
G36*
X124975000Y-72812500D02*
G01*
X124675000Y-72812500D01*
X124675000Y-71962500D01*
X124975000Y-71962500D01*
X124975000Y-72812500D01*
G37*
G36*
X125475000Y-72812500D02*
G01*
X125175000Y-72812500D01*
X125175000Y-71962500D01*
X125475000Y-71962500D01*
X125475000Y-72812500D01*
G37*
G36*
X125975000Y-72812500D02*
G01*
X125675000Y-72812500D01*
X125675000Y-71962500D01*
X125975000Y-71962500D01*
X125975000Y-72812500D01*
G37*
G36*
X126475000Y-72812500D02*
G01*
X126175000Y-72812500D01*
X126175000Y-71962500D01*
X126475000Y-71962500D01*
X126475000Y-72812500D01*
G37*
G36*
X126975000Y-72812500D02*
G01*
X126675000Y-72812500D01*
X126675000Y-71962500D01*
X126975000Y-71962500D01*
X126975000Y-72812500D01*
G37*
G36*
X159396104Y-71917127D02*
G01*
X159469099Y-71965901D01*
X159517873Y-72038896D01*
X159535000Y-72125000D01*
X159535000Y-72575000D01*
X159517873Y-72661104D01*
X159469099Y-72734099D01*
X159396104Y-72782873D01*
X159310000Y-72800000D01*
X158810000Y-72800000D01*
X158723896Y-72782873D01*
X158650901Y-72734099D01*
X158602127Y-72661104D01*
X158585000Y-72575000D01*
X158585000Y-72125000D01*
X158602127Y-72038896D01*
X158650901Y-71965901D01*
X158723896Y-71917127D01*
X158810000Y-71900000D01*
X159310000Y-71900000D01*
X159396104Y-71917127D01*
G37*
G36*
X155194962Y-71904151D02*
G01*
X155265930Y-71951570D01*
X155313349Y-72022538D01*
X155330000Y-72106250D01*
X155330000Y-72543750D01*
X155313349Y-72627462D01*
X155265930Y-72698430D01*
X155194962Y-72745849D01*
X155111250Y-72762500D01*
X154348750Y-72762500D01*
X154265038Y-72745849D01*
X154194070Y-72698430D01*
X154146651Y-72627462D01*
X154130000Y-72543750D01*
X154130000Y-72106250D01*
X154146651Y-72022538D01*
X154194070Y-71951570D01*
X154265038Y-71904151D01*
X154348750Y-71887500D01*
X155111250Y-71887500D01*
X155194962Y-71904151D01*
G37*
G36*
X129376104Y-71482127D02*
G01*
X129449099Y-71530901D01*
X129497873Y-71603896D01*
X129515000Y-71690000D01*
X129515000Y-72190000D01*
X129497873Y-72276104D01*
X129449099Y-72349099D01*
X129376104Y-72397873D01*
X129290000Y-72415000D01*
X128840000Y-72415000D01*
X128753896Y-72397873D01*
X128680901Y-72349099D01*
X128632127Y-72276104D01*
X128615000Y-72190000D01*
X128615000Y-71690000D01*
X128632127Y-71603896D01*
X128680901Y-71530901D01*
X128753896Y-71482127D01*
X128840000Y-71465000D01*
X129290000Y-71465000D01*
X129376104Y-71482127D01*
G37*
G36*
X130926104Y-71482127D02*
G01*
X130999099Y-71530901D01*
X131047873Y-71603896D01*
X131065000Y-71690000D01*
X131065000Y-72190000D01*
X131047873Y-72276104D01*
X130999099Y-72349099D01*
X130926104Y-72397873D01*
X130840000Y-72415000D01*
X130390000Y-72415000D01*
X130303896Y-72397873D01*
X130230901Y-72349099D01*
X130182127Y-72276104D01*
X130165000Y-72190000D01*
X130165000Y-71690000D01*
X130182127Y-71603896D01*
X130230901Y-71530901D01*
X130303896Y-71482127D01*
X130390000Y-71465000D01*
X130840000Y-71465000D01*
X130926104Y-71482127D01*
G37*
G36*
X156866104Y-71327127D02*
G01*
X156939099Y-71375901D01*
X156987873Y-71448896D01*
X157005000Y-71535000D01*
X157005000Y-71985000D01*
X156987873Y-72071104D01*
X156939099Y-72144099D01*
X156866104Y-72192873D01*
X156780000Y-72210000D01*
X156280000Y-72210000D01*
X156193896Y-72192873D01*
X156120901Y-72144099D01*
X156072127Y-72071104D01*
X156055000Y-71985000D01*
X156055000Y-71535000D01*
X156072127Y-71448896D01*
X156120901Y-71375901D01*
X156193896Y-71327127D01*
X156280000Y-71310000D01*
X156780000Y-71310000D01*
X156866104Y-71327127D01*
G37*
G36*
X153396104Y-71312127D02*
G01*
X153469099Y-71360901D01*
X153517873Y-71433896D01*
X153535000Y-71520000D01*
X153535000Y-71970000D01*
X153517873Y-72056104D01*
X153469099Y-72129099D01*
X153396104Y-72177873D01*
X153310000Y-72195000D01*
X152810000Y-72195000D01*
X152723896Y-72177873D01*
X152650901Y-72129099D01*
X152602127Y-72056104D01*
X152585000Y-71970000D01*
X152585000Y-71520000D01*
X152602127Y-71433896D01*
X152650901Y-71360901D01*
X152723896Y-71312127D01*
X152810000Y-71295000D01*
X153310000Y-71295000D01*
X153396104Y-71312127D01*
G37*
G36*
X123050000Y-71837500D02*
G01*
X122200000Y-71837500D01*
X122200000Y-71537500D01*
X123050000Y-71537500D01*
X123050000Y-71837500D01*
G37*
G36*
X127950000Y-71837500D02*
G01*
X127100000Y-71837500D01*
X127100000Y-71537500D01*
X127950000Y-71537500D01*
X127950000Y-71837500D01*
G37*
G36*
X138639962Y-70606651D02*
G01*
X138710930Y-70654070D01*
X138758349Y-70725038D01*
X138775000Y-70808750D01*
X138775000Y-71571250D01*
X138758349Y-71654962D01*
X138710930Y-71725930D01*
X138639962Y-71773349D01*
X138556250Y-71790000D01*
X138118750Y-71790000D01*
X138035038Y-71773349D01*
X137964070Y-71725930D01*
X137916651Y-71654962D01*
X137900000Y-71571250D01*
X137900000Y-70808750D01*
X137916651Y-70725038D01*
X137964070Y-70654070D01*
X138035038Y-70606651D01*
X138118750Y-70590000D01*
X138556250Y-70590000D01*
X138639962Y-70606651D01*
G37*
G36*
X140764962Y-70606651D02*
G01*
X140835930Y-70654070D01*
X140883349Y-70725038D01*
X140900000Y-70808750D01*
X140900000Y-71571250D01*
X140883349Y-71654962D01*
X140835930Y-71725930D01*
X140764962Y-71773349D01*
X140681250Y-71790000D01*
X140243750Y-71790000D01*
X140160038Y-71773349D01*
X140089070Y-71725930D01*
X140041651Y-71654962D01*
X140025000Y-71571250D01*
X140025000Y-70808750D01*
X140041651Y-70725038D01*
X140089070Y-70654070D01*
X140160038Y-70606651D01*
X140243750Y-70590000D01*
X140681250Y-70590000D01*
X140764962Y-70606651D01*
G37*
G36*
X126850000Y-71712500D02*
G01*
X123300000Y-71712500D01*
X123300000Y-68162500D01*
X126850000Y-68162500D01*
X126850000Y-71712500D01*
G37*
G36*
X165490000Y-71690000D02*
G01*
X163790000Y-71690000D01*
X163790000Y-69990000D01*
X165490000Y-69990000D01*
X165490000Y-71690000D01*
G37*
G36*
X134936104Y-70732127D02*
G01*
X135009099Y-70780901D01*
X135057873Y-70853896D01*
X135075000Y-70940000D01*
X135075000Y-71440000D01*
X135057873Y-71526104D01*
X135009099Y-71599099D01*
X134936104Y-71647873D01*
X134850000Y-71665000D01*
X134400000Y-71665000D01*
X134313896Y-71647873D01*
X134240901Y-71599099D01*
X134192127Y-71526104D01*
X134175000Y-71440000D01*
X134175000Y-70940000D01*
X134192127Y-70853896D01*
X134240901Y-70780901D01*
X134313896Y-70732127D01*
X134400000Y-70715000D01*
X134850000Y-70715000D01*
X134936104Y-70732127D01*
G37*
G36*
X136486104Y-70732127D02*
G01*
X136559099Y-70780901D01*
X136607873Y-70853896D01*
X136625000Y-70940000D01*
X136625000Y-71440000D01*
X136607873Y-71526104D01*
X136559099Y-71599099D01*
X136486104Y-71647873D01*
X136400000Y-71665000D01*
X135950000Y-71665000D01*
X135863896Y-71647873D01*
X135790901Y-71599099D01*
X135742127Y-71526104D01*
X135725000Y-71440000D01*
X135725000Y-70940000D01*
X135742127Y-70853896D01*
X135790901Y-70780901D01*
X135863896Y-70732127D01*
X135950000Y-70715000D01*
X136400000Y-70715000D01*
X136486104Y-70732127D01*
G37*
G36*
X144071104Y-70757127D02*
G01*
X144144099Y-70805901D01*
X144192873Y-70878896D01*
X144210000Y-70965000D01*
X144210000Y-71415000D01*
X144192873Y-71501104D01*
X144144099Y-71574099D01*
X144071104Y-71622873D01*
X143985000Y-71640000D01*
X143135000Y-71640000D01*
X143048896Y-71622873D01*
X142975901Y-71574099D01*
X142927127Y-71501104D01*
X142910000Y-71415000D01*
X142910000Y-70965000D01*
X142927127Y-70878896D01*
X142975901Y-70805901D01*
X143048896Y-70757127D01*
X143135000Y-70740000D01*
X143985000Y-70740000D01*
X144071104Y-70757127D01*
G37*
G36*
X123050000Y-71337500D02*
G01*
X122200000Y-71337500D01*
X122200000Y-71037500D01*
X123050000Y-71037500D01*
X123050000Y-71337500D01*
G37*
G36*
X127950000Y-71337500D02*
G01*
X127100000Y-71337500D01*
X127100000Y-71037500D01*
X127950000Y-71037500D01*
X127950000Y-71337500D01*
G37*
G36*
X159396104Y-70367127D02*
G01*
X159469099Y-70415901D01*
X159517873Y-70488896D01*
X159535000Y-70575000D01*
X159535000Y-71025000D01*
X159517873Y-71111104D01*
X159469099Y-71184099D01*
X159396104Y-71232873D01*
X159310000Y-71250000D01*
X158810000Y-71250000D01*
X158723896Y-71232873D01*
X158650901Y-71184099D01*
X158602127Y-71111104D01*
X158585000Y-71025000D01*
X158585000Y-70575000D01*
X158602127Y-70488896D01*
X158650901Y-70415901D01*
X158723896Y-70367127D01*
X158810000Y-70350000D01*
X159310000Y-70350000D01*
X159396104Y-70367127D01*
G37*
G36*
X116964047Y-69460805D02*
G01*
X117015408Y-69466764D01*
X117032954Y-69474511D01*
X117055671Y-69479030D01*
X117079991Y-69495280D01*
X117100793Y-69504465D01*
X117115000Y-69518672D01*
X117136777Y-69533223D01*
X117151327Y-69554999D01*
X117165534Y-69569206D01*
X117174718Y-69590006D01*
X117190970Y-69614329D01*
X117195489Y-69637048D01*
X117203235Y-69654591D01*
X117209192Y-69705940D01*
X117210000Y-69710000D01*
X117210000Y-70610000D01*
X117209192Y-70614059D01*
X117203235Y-70665408D01*
X117195489Y-70682950D01*
X117190970Y-70705671D01*
X117174716Y-70729995D01*
X117165534Y-70750793D01*
X117151329Y-70764997D01*
X117136777Y-70786777D01*
X117114997Y-70801329D01*
X117100793Y-70815534D01*
X117079995Y-70824716D01*
X117055671Y-70840970D01*
X117032950Y-70845489D01*
X117015408Y-70853235D01*
X116964061Y-70859192D01*
X116960000Y-70860000D01*
X116260000Y-70860000D01*
X116255941Y-70859192D01*
X116204591Y-70853235D01*
X116187048Y-70845489D01*
X116164329Y-70840970D01*
X116140006Y-70824718D01*
X116119206Y-70815534D01*
X116104999Y-70801327D01*
X116083223Y-70786777D01*
X116068672Y-70765000D01*
X116054465Y-70750793D01*
X116045280Y-70729991D01*
X116029030Y-70705671D01*
X116024511Y-70682954D01*
X116016764Y-70665408D01*
X116010805Y-70614049D01*
X116010000Y-70610000D01*
X116010000Y-69710000D01*
X116010804Y-69705953D01*
X116016764Y-69654591D01*
X116024511Y-69637043D01*
X116029030Y-69614329D01*
X116045278Y-69590010D01*
X116054465Y-69569206D01*
X116068674Y-69554996D01*
X116083223Y-69533223D01*
X116104996Y-69518674D01*
X116119206Y-69504465D01*
X116140010Y-69495278D01*
X116164329Y-69479030D01*
X116187043Y-69474511D01*
X116204591Y-69466764D01*
X116255952Y-69460805D01*
X116260000Y-69460000D01*
X116960000Y-69460000D01*
X116964047Y-69460805D01*
G37*
G36*
X118664047Y-69460805D02*
G01*
X118715408Y-69466764D01*
X118732954Y-69474511D01*
X118755671Y-69479030D01*
X118779991Y-69495280D01*
X118800793Y-69504465D01*
X118815000Y-69518672D01*
X118836777Y-69533223D01*
X118851327Y-69554999D01*
X118865534Y-69569206D01*
X118874718Y-69590006D01*
X118890970Y-69614329D01*
X118895489Y-69637048D01*
X118903235Y-69654591D01*
X118909192Y-69705940D01*
X118910000Y-69710000D01*
X118910000Y-70610000D01*
X118909192Y-70614059D01*
X118903235Y-70665408D01*
X118895489Y-70682950D01*
X118890970Y-70705671D01*
X118874716Y-70729995D01*
X118865534Y-70750793D01*
X118851329Y-70764997D01*
X118836777Y-70786777D01*
X118814997Y-70801329D01*
X118800793Y-70815534D01*
X118779995Y-70824716D01*
X118755671Y-70840970D01*
X118732950Y-70845489D01*
X118715408Y-70853235D01*
X118664061Y-70859192D01*
X118660000Y-70860000D01*
X117960000Y-70860000D01*
X117955941Y-70859192D01*
X117904591Y-70853235D01*
X117887048Y-70845489D01*
X117864329Y-70840970D01*
X117840006Y-70824718D01*
X117819206Y-70815534D01*
X117804999Y-70801327D01*
X117783223Y-70786777D01*
X117768672Y-70765000D01*
X117754465Y-70750793D01*
X117745280Y-70729991D01*
X117729030Y-70705671D01*
X117724511Y-70682954D01*
X117716764Y-70665408D01*
X117710805Y-70614049D01*
X117710000Y-70610000D01*
X117710000Y-69710000D01*
X117710804Y-69705953D01*
X117716764Y-69654591D01*
X117724511Y-69637043D01*
X117729030Y-69614329D01*
X117745278Y-69590010D01*
X117754465Y-69569206D01*
X117768674Y-69554996D01*
X117783223Y-69533223D01*
X117804996Y-69518674D01*
X117819206Y-69504465D01*
X117840010Y-69495278D01*
X117864329Y-69479030D01*
X117887043Y-69474511D01*
X117904591Y-69466764D01*
X117955952Y-69460805D01*
X117960000Y-69460000D01*
X118660000Y-69460000D01*
X118664047Y-69460805D01*
G37*
G36*
X123050000Y-70837500D02*
G01*
X122200000Y-70837500D01*
X122200000Y-70537500D01*
X123050000Y-70537500D01*
X123050000Y-70837500D01*
G37*
G36*
X127950000Y-70837500D02*
G01*
X127100000Y-70837500D01*
X127100000Y-70537500D01*
X127950000Y-70537500D01*
X127950000Y-70837500D01*
G37*
G36*
X156866104Y-69777127D02*
G01*
X156939099Y-69825901D01*
X156987873Y-69898896D01*
X157005000Y-69985000D01*
X157005000Y-70435000D01*
X156987873Y-70521104D01*
X156939099Y-70594099D01*
X156866104Y-70642873D01*
X156780000Y-70660000D01*
X156280000Y-70660000D01*
X156193896Y-70642873D01*
X156120901Y-70594099D01*
X156072127Y-70521104D01*
X156055000Y-70435000D01*
X156055000Y-69985000D01*
X156072127Y-69898896D01*
X156120901Y-69825901D01*
X156193896Y-69777127D01*
X156280000Y-69760000D01*
X156780000Y-69760000D01*
X156866104Y-69777127D01*
G37*
G36*
X153396104Y-69762127D02*
G01*
X153469099Y-69810901D01*
X153517873Y-69883896D01*
X153535000Y-69970000D01*
X153535000Y-70420000D01*
X153517873Y-70506104D01*
X153469099Y-70579099D01*
X153396104Y-70627873D01*
X153310000Y-70645000D01*
X152810000Y-70645000D01*
X152723896Y-70627873D01*
X152650901Y-70579099D01*
X152602127Y-70506104D01*
X152585000Y-70420000D01*
X152585000Y-69970000D01*
X152602127Y-69883896D01*
X152650901Y-69810901D01*
X152723896Y-69762127D01*
X152810000Y-69745000D01*
X153310000Y-69745000D01*
X153396104Y-69762127D01*
G37*
G36*
X155194962Y-69779151D02*
G01*
X155265930Y-69826570D01*
X155313349Y-69897538D01*
X155330000Y-69981250D01*
X155330000Y-70418750D01*
X155313349Y-70502462D01*
X155265930Y-70573430D01*
X155194962Y-70620849D01*
X155111250Y-70637500D01*
X154348750Y-70637500D01*
X154265038Y-70620849D01*
X154194070Y-70573430D01*
X154146651Y-70502462D01*
X154130000Y-70418750D01*
X154130000Y-69981250D01*
X154146651Y-69897538D01*
X154194070Y-69826570D01*
X154265038Y-69779151D01*
X154348750Y-69762500D01*
X155111250Y-69762500D01*
X155194962Y-69779151D01*
G37*
G36*
X123050000Y-70337500D02*
G01*
X122200000Y-70337500D01*
X122200000Y-70037500D01*
X123050000Y-70037500D01*
X123050000Y-70337500D01*
G37*
G36*
X127950000Y-70337500D02*
G01*
X127100000Y-70337500D01*
X127100000Y-70037500D01*
X127950000Y-70037500D01*
X127950000Y-70337500D01*
G37*
G36*
X129336104Y-69232127D02*
G01*
X129409099Y-69280901D01*
X129457873Y-69353896D01*
X129475000Y-69440000D01*
X129475000Y-69940000D01*
X129457873Y-70026104D01*
X129409099Y-70099099D01*
X129336104Y-70147873D01*
X129250000Y-70165000D01*
X128800000Y-70165000D01*
X128713896Y-70147873D01*
X128640901Y-70099099D01*
X128592127Y-70026104D01*
X128575000Y-69940000D01*
X128575000Y-69440000D01*
X128592127Y-69353896D01*
X128640901Y-69280901D01*
X128713896Y-69232127D01*
X128800000Y-69215000D01*
X129250000Y-69215000D01*
X129336104Y-69232127D01*
G37*
G36*
X130886104Y-69232127D02*
G01*
X130959099Y-69280901D01*
X131007873Y-69353896D01*
X131025000Y-69440000D01*
X131025000Y-69940000D01*
X131007873Y-70026104D01*
X130959099Y-70099099D01*
X130886104Y-70147873D01*
X130800000Y-70165000D01*
X130350000Y-70165000D01*
X130263896Y-70147873D01*
X130190901Y-70099099D01*
X130142127Y-70026104D01*
X130125000Y-69940000D01*
X130125000Y-69440000D01*
X130142127Y-69353896D01*
X130190901Y-69280901D01*
X130263896Y-69232127D01*
X130350000Y-69215000D01*
X130800000Y-69215000D01*
X130886104Y-69232127D01*
G37*
G36*
X123050000Y-69837500D02*
G01*
X122200000Y-69837500D01*
X122200000Y-69537500D01*
X123050000Y-69537500D01*
X123050000Y-69837500D01*
G37*
G36*
X127950000Y-69837500D02*
G01*
X127100000Y-69837500D01*
X127100000Y-69537500D01*
X127950000Y-69537500D01*
X127950000Y-69837500D01*
G37*
G36*
X111035000Y-69700000D02*
G01*
X110235000Y-69700000D01*
X110235000Y-68700000D01*
X111035000Y-68700000D01*
X111035000Y-69700000D01*
G37*
G36*
X113235000Y-69700000D02*
G01*
X112435000Y-69700000D01*
X112435000Y-68700000D01*
X113235000Y-68700000D01*
X113235000Y-69700000D01*
G37*
G36*
X123050000Y-69337500D02*
G01*
X122200000Y-69337500D01*
X122200000Y-69037500D01*
X123050000Y-69037500D01*
X123050000Y-69337500D01*
G37*
G36*
X127950000Y-69337500D02*
G01*
X127100000Y-69337500D01*
X127100000Y-69037500D01*
X127950000Y-69037500D01*
X127950000Y-69337500D01*
G37*
G36*
X155046104Y-68232127D02*
G01*
X155119099Y-68280901D01*
X155167873Y-68353896D01*
X155185000Y-68440000D01*
X155185000Y-68940000D01*
X155167873Y-69026104D01*
X155119099Y-69099099D01*
X155046104Y-69147873D01*
X154960000Y-69165000D01*
X154510000Y-69165000D01*
X154423896Y-69147873D01*
X154350901Y-69099099D01*
X154302127Y-69026104D01*
X154285000Y-68940000D01*
X154285000Y-68440000D01*
X154302127Y-68353896D01*
X154350901Y-68280901D01*
X154423896Y-68232127D01*
X154510000Y-68215000D01*
X154960000Y-68215000D01*
X155046104Y-68232127D01*
G37*
G36*
X156596104Y-68232127D02*
G01*
X156669099Y-68280901D01*
X156717873Y-68353896D01*
X156735000Y-68440000D01*
X156735000Y-68940000D01*
X156717873Y-69026104D01*
X156669099Y-69099099D01*
X156596104Y-69147873D01*
X156510000Y-69165000D01*
X156060000Y-69165000D01*
X155973896Y-69147873D01*
X155900901Y-69099099D01*
X155852127Y-69026104D01*
X155835000Y-68940000D01*
X155835000Y-68440000D01*
X155852127Y-68353896D01*
X155900901Y-68280901D01*
X155973896Y-68232127D01*
X156060000Y-68215000D01*
X156510000Y-68215000D01*
X156596104Y-68232127D01*
G37*
G36*
X123050000Y-68837500D02*
G01*
X122200000Y-68837500D01*
X122200000Y-68537500D01*
X123050000Y-68537500D01*
X123050000Y-68837500D01*
G37*
G36*
X127950000Y-68837500D02*
G01*
X127100000Y-68837500D01*
X127100000Y-68537500D01*
X127950000Y-68537500D01*
X127950000Y-68837500D01*
G37*
G36*
X115381104Y-67862127D02*
G01*
X115454099Y-67910901D01*
X115502873Y-67983896D01*
X115520000Y-68070000D01*
X115520000Y-68570000D01*
X115502873Y-68656104D01*
X115454099Y-68729099D01*
X115381104Y-68777873D01*
X115295000Y-68795000D01*
X114845000Y-68795000D01*
X114758896Y-68777873D01*
X114685901Y-68729099D01*
X114637127Y-68656104D01*
X114620000Y-68570000D01*
X114620000Y-68070000D01*
X114637127Y-67983896D01*
X114685901Y-67910901D01*
X114758896Y-67862127D01*
X114845000Y-67845000D01*
X115295000Y-67845000D01*
X115381104Y-67862127D01*
G37*
G36*
X116931104Y-67862127D02*
G01*
X117004099Y-67910901D01*
X117052873Y-67983896D01*
X117070000Y-68070000D01*
X117070000Y-68570000D01*
X117052873Y-68656104D01*
X117004099Y-68729099D01*
X116931104Y-68777873D01*
X116845000Y-68795000D01*
X116395000Y-68795000D01*
X116308896Y-68777873D01*
X116235901Y-68729099D01*
X116187127Y-68656104D01*
X116170000Y-68570000D01*
X116170000Y-68070000D01*
X116187127Y-67983896D01*
X116235901Y-67910901D01*
X116308896Y-67862127D01*
X116395000Y-67845000D01*
X116845000Y-67845000D01*
X116931104Y-67862127D01*
G37*
G36*
X119731104Y-67752127D02*
G01*
X119804099Y-67800901D01*
X119852873Y-67873896D01*
X119870000Y-67960000D01*
X119870000Y-68460000D01*
X119852873Y-68546104D01*
X119804099Y-68619099D01*
X119731104Y-68667873D01*
X119645000Y-68685000D01*
X119195000Y-68685000D01*
X119108896Y-68667873D01*
X119035901Y-68619099D01*
X118987127Y-68546104D01*
X118970000Y-68460000D01*
X118970000Y-67960000D01*
X118987127Y-67873896D01*
X119035901Y-67800901D01*
X119108896Y-67752127D01*
X119195000Y-67735000D01*
X119645000Y-67735000D01*
X119731104Y-67752127D01*
G37*
G36*
X121281104Y-67752127D02*
G01*
X121354099Y-67800901D01*
X121402873Y-67873896D01*
X121420000Y-67960000D01*
X121420000Y-68460000D01*
X121402873Y-68546104D01*
X121354099Y-68619099D01*
X121281104Y-68667873D01*
X121195000Y-68685000D01*
X120745000Y-68685000D01*
X120658896Y-68667873D01*
X120585901Y-68619099D01*
X120537127Y-68546104D01*
X120520000Y-68460000D01*
X120520000Y-67960000D01*
X120537127Y-67873896D01*
X120585901Y-67800901D01*
X120658896Y-67752127D01*
X120745000Y-67735000D01*
X121195000Y-67735000D01*
X121281104Y-67752127D01*
G37*
G36*
X129326104Y-67642127D02*
G01*
X129399099Y-67690901D01*
X129447873Y-67763896D01*
X129465000Y-67850000D01*
X129465000Y-68350000D01*
X129447873Y-68436104D01*
X129399099Y-68509099D01*
X129326104Y-68557873D01*
X129240000Y-68575000D01*
X128790000Y-68575000D01*
X128703896Y-68557873D01*
X128630901Y-68509099D01*
X128582127Y-68436104D01*
X128565000Y-68350000D01*
X128565000Y-67850000D01*
X128582127Y-67763896D01*
X128630901Y-67690901D01*
X128703896Y-67642127D01*
X128790000Y-67625000D01*
X129240000Y-67625000D01*
X129326104Y-67642127D01*
G37*
G36*
X130876104Y-67642127D02*
G01*
X130949099Y-67690901D01*
X130997873Y-67763896D01*
X131015000Y-67850000D01*
X131015000Y-68350000D01*
X130997873Y-68436104D01*
X130949099Y-68509099D01*
X130876104Y-68557873D01*
X130790000Y-68575000D01*
X130340000Y-68575000D01*
X130253896Y-68557873D01*
X130180901Y-68509099D01*
X130132127Y-68436104D01*
X130115000Y-68350000D01*
X130115000Y-67850000D01*
X130132127Y-67763896D01*
X130180901Y-67690901D01*
X130253896Y-67642127D01*
X130340000Y-67625000D01*
X130790000Y-67625000D01*
X130876104Y-67642127D01*
G37*
G36*
X123050000Y-68337500D02*
G01*
X122200000Y-68337500D01*
X122200000Y-68037500D01*
X123050000Y-68037500D01*
X123050000Y-68337500D01*
G37*
G36*
X127950000Y-68337500D02*
G01*
X127100000Y-68337500D01*
X127100000Y-68037500D01*
X127950000Y-68037500D01*
X127950000Y-68337500D01*
G37*
G36*
X110735000Y-68150000D02*
G01*
X109235000Y-68150000D01*
X109235000Y-67450000D01*
X110735000Y-67450000D01*
X110735000Y-68150000D01*
G37*
G36*
X148872001Y-66648090D02*
G01*
X148877992Y-66651018D01*
X148880689Y-66651446D01*
X148923828Y-66673426D01*
X148982904Y-66702307D01*
X149070193Y-66789596D01*
X149099091Y-66848709D01*
X149121053Y-66891811D01*
X149121479Y-66894504D01*
X149124410Y-66900499D01*
X149140000Y-67007500D01*
X149140000Y-67757500D01*
X149124410Y-67864501D01*
X149121479Y-67870495D01*
X149121053Y-67873189D01*
X149099096Y-67916279D01*
X149070193Y-67975404D01*
X148982904Y-68062693D01*
X148923765Y-68091604D01*
X148880688Y-68113553D01*
X148877995Y-68113979D01*
X148872001Y-68116910D01*
X148765000Y-68132500D01*
X147515000Y-68132500D01*
X147407999Y-68116910D01*
X147402005Y-68113979D01*
X147399310Y-68113553D01*
X147356195Y-68091584D01*
X147297096Y-68062693D01*
X147209807Y-67975404D01*
X147180919Y-67916313D01*
X147158946Y-67873188D01*
X147158519Y-67870492D01*
X147155590Y-67864501D01*
X147140000Y-67757500D01*
X147140000Y-67007500D01*
X147155590Y-66900499D01*
X147158518Y-66894508D01*
X147158946Y-66891810D01*
X147180938Y-66848647D01*
X147209807Y-66789596D01*
X147297096Y-66702307D01*
X147356161Y-66673431D01*
X147399311Y-66651446D01*
X147402007Y-66651018D01*
X147407999Y-66648090D01*
X147515000Y-66632500D01*
X148765000Y-66632500D01*
X148872001Y-66648090D01*
G37*
G36*
X140126104Y-67162127D02*
G01*
X140199099Y-67210901D01*
X140247873Y-67283896D01*
X140265000Y-67370000D01*
X140265000Y-67820000D01*
X140247873Y-67906104D01*
X140199099Y-67979099D01*
X140126104Y-68027873D01*
X140040000Y-68045000D01*
X139540000Y-68045000D01*
X139453896Y-68027873D01*
X139380901Y-67979099D01*
X139332127Y-67906104D01*
X139315000Y-67820000D01*
X139315000Y-67370000D01*
X139332127Y-67283896D01*
X139380901Y-67210901D01*
X139453896Y-67162127D01*
X139540000Y-67145000D01*
X140040000Y-67145000D01*
X140126104Y-67162127D01*
G37*
G36*
X123475000Y-67912500D02*
G01*
X123175000Y-67912500D01*
X123175000Y-67062500D01*
X123475000Y-67062500D01*
X123475000Y-67912500D01*
G37*
G36*
X123975000Y-67912500D02*
G01*
X123675000Y-67912500D01*
X123675000Y-67062500D01*
X123975000Y-67062500D01*
X123975000Y-67912500D01*
G37*
G36*
X124475000Y-67912500D02*
G01*
X124175000Y-67912500D01*
X124175000Y-67062500D01*
X124475000Y-67062500D01*
X124475000Y-67912500D01*
G37*
G36*
X124975000Y-67912500D02*
G01*
X124675000Y-67912500D01*
X124675000Y-67062500D01*
X124975000Y-67062500D01*
X124975000Y-67912500D01*
G37*
G36*
X125475000Y-67912500D02*
G01*
X125175000Y-67912500D01*
X125175000Y-67062500D01*
X125475000Y-67062500D01*
X125475000Y-67912500D01*
G37*
G36*
X125975000Y-67912500D02*
G01*
X125675000Y-67912500D01*
X125675000Y-67062500D01*
X125975000Y-67062500D01*
X125975000Y-67912500D01*
G37*
G36*
X126475000Y-67912500D02*
G01*
X126175000Y-67912500D01*
X126175000Y-67062500D01*
X126475000Y-67062500D01*
X126475000Y-67912500D01*
G37*
G36*
X126975000Y-67912500D02*
G01*
X126675000Y-67912500D01*
X126675000Y-67062500D01*
X126975000Y-67062500D01*
X126975000Y-67912500D01*
G37*
G36*
X111907208Y-66634254D02*
G01*
X112008943Y-66692991D01*
X112092009Y-66776057D01*
X112150746Y-66877792D01*
X112181150Y-66991263D01*
X112181150Y-67108737D01*
X112150746Y-67222208D01*
X112092009Y-67323943D01*
X112008943Y-67407009D01*
X111907208Y-67465746D01*
X111793737Y-67496150D01*
X111676263Y-67496150D01*
X111562792Y-67465746D01*
X111461057Y-67407009D01*
X111377991Y-67323943D01*
X111319254Y-67222208D01*
X111288850Y-67108737D01*
X111288850Y-66991263D01*
X111319254Y-66877792D01*
X111377991Y-66776057D01*
X111461057Y-66692991D01*
X111562792Y-66634254D01*
X111676263Y-66603850D01*
X111793737Y-66603850D01*
X111907208Y-66634254D01*
G37*
G36*
X152720000Y-67400000D02*
G01*
X151020000Y-67400000D01*
X151020000Y-65700000D01*
X152720000Y-65700000D01*
X152720000Y-67400000D01*
G37*
G36*
X142446283Y-63193927D02*
G01*
X142452985Y-63196426D01*
X142457866Y-63197013D01*
X142515621Y-63219789D01*
X142579624Y-63243661D01*
X142583485Y-63246551D01*
X142584823Y-63247079D01*
X142633506Y-63283997D01*
X142693553Y-63328947D01*
X142738521Y-63389018D01*
X142775420Y-63437676D01*
X142775947Y-63439013D01*
X142778839Y-63442876D01*
X142802725Y-63506916D01*
X142825486Y-63564634D01*
X142826071Y-63569510D01*
X142828573Y-63576217D01*
X142840000Y-63682500D01*
X142840000Y-66482500D01*
X142828573Y-66588783D01*
X142826071Y-66595489D01*
X142825486Y-66600366D01*
X142802728Y-66658075D01*
X142778839Y-66722124D01*
X142775946Y-66725987D01*
X142775420Y-66727323D01*
X142738579Y-66775904D01*
X142693553Y-66836053D01*
X142633404Y-66881079D01*
X142584823Y-66917920D01*
X142583487Y-66918446D01*
X142579624Y-66921339D01*
X142515565Y-66945231D01*
X142457865Y-66967986D01*
X142452989Y-66968571D01*
X142446283Y-66971073D01*
X142340000Y-66982500D01*
X141340000Y-66982500D01*
X141233717Y-66971073D01*
X141227011Y-66968571D01*
X141222133Y-66967986D01*
X141164406Y-66945221D01*
X141100376Y-66921339D01*
X141096513Y-66918447D01*
X141095176Y-66917920D01*
X141046518Y-66881021D01*
X140986447Y-66836053D01*
X140941497Y-66776006D01*
X140904579Y-66727323D01*
X140904051Y-66725985D01*
X140901161Y-66722124D01*
X140877285Y-66658111D01*
X140854513Y-66600365D01*
X140853927Y-66595485D01*
X140851427Y-66588783D01*
X140840000Y-66482500D01*
X140840000Y-63682500D01*
X140851427Y-63576217D01*
X140853926Y-63569514D01*
X140854513Y-63564633D01*
X140877296Y-63506859D01*
X140901161Y-63442876D01*
X140904050Y-63439015D01*
X140904579Y-63437676D01*
X140941555Y-63388915D01*
X140986447Y-63328947D01*
X141046415Y-63284055D01*
X141095176Y-63247079D01*
X141096515Y-63246550D01*
X141100376Y-63243661D01*
X141164369Y-63219792D01*
X141222134Y-63197013D01*
X141227014Y-63196426D01*
X141233717Y-63193927D01*
X141340000Y-63182500D01*
X142340000Y-63182500D01*
X142446283Y-63193927D01*
G37*
G36*
X140126104Y-65612127D02*
G01*
X140199099Y-65660901D01*
X140247873Y-65733896D01*
X140265000Y-65820000D01*
X140265000Y-66270000D01*
X140247873Y-66356104D01*
X140199099Y-66429099D01*
X140126104Y-66477873D01*
X140040000Y-66495000D01*
X139540000Y-66495000D01*
X139453896Y-66477873D01*
X139380901Y-66429099D01*
X139332127Y-66356104D01*
X139315000Y-66270000D01*
X139315000Y-65820000D01*
X139332127Y-65733896D01*
X139380901Y-65660901D01*
X139453896Y-65612127D01*
X139540000Y-65595000D01*
X140040000Y-65595000D01*
X140126104Y-65612127D01*
G37*
G36*
X148872001Y-64348090D02*
G01*
X148877992Y-64351018D01*
X148880689Y-64351446D01*
X148923828Y-64373426D01*
X148982904Y-64402307D01*
X149070193Y-64489596D01*
X149099091Y-64548709D01*
X149121053Y-64591811D01*
X149121479Y-64594504D01*
X149124410Y-64600499D01*
X149140000Y-64707500D01*
X149140000Y-65457500D01*
X149124410Y-65564501D01*
X149121479Y-65570495D01*
X149121053Y-65573189D01*
X149099096Y-65616279D01*
X149070193Y-65675404D01*
X148982904Y-65762693D01*
X148923765Y-65791604D01*
X148880688Y-65813553D01*
X148877995Y-65813979D01*
X148872001Y-65816910D01*
X148765000Y-65832500D01*
X147515000Y-65832500D01*
X147407999Y-65816910D01*
X147402005Y-65813979D01*
X147399310Y-65813553D01*
X147356195Y-65791584D01*
X147297096Y-65762693D01*
X147209807Y-65675404D01*
X147180919Y-65616313D01*
X147158946Y-65573188D01*
X147158519Y-65570492D01*
X147155590Y-65564501D01*
X147140000Y-65457500D01*
X147140000Y-64707500D01*
X147155590Y-64600499D01*
X147158518Y-64594508D01*
X147158946Y-64591810D01*
X147180938Y-64548647D01*
X147209807Y-64489596D01*
X147297096Y-64402307D01*
X147356161Y-64373431D01*
X147399311Y-64351446D01*
X147402007Y-64351018D01*
X147407999Y-64348090D01*
X147515000Y-64332500D01*
X148765000Y-64332500D01*
X148872001Y-64348090D01*
G37*
G36*
X136891537Y-64750224D02*
G01*
X136956421Y-64793579D01*
X136999776Y-64858463D01*
X137015000Y-64935000D01*
X137015000Y-65485000D01*
X136999776Y-65561537D01*
X136956421Y-65626421D01*
X136891537Y-65669776D01*
X136815000Y-65685000D01*
X136415000Y-65685000D01*
X136338463Y-65669776D01*
X136273579Y-65626421D01*
X136230224Y-65561537D01*
X136215000Y-65485000D01*
X136215000Y-64935000D01*
X136230224Y-64858463D01*
X136273579Y-64793579D01*
X136338463Y-64750224D01*
X136415000Y-64735000D01*
X136815000Y-64735000D01*
X136891537Y-64750224D01*
G37*
G36*
X138541537Y-64750224D02*
G01*
X138606421Y-64793579D01*
X138649776Y-64858463D01*
X138665000Y-64935000D01*
X138665000Y-65485000D01*
X138649776Y-65561537D01*
X138606421Y-65626421D01*
X138541537Y-65669776D01*
X138465000Y-65685000D01*
X138065000Y-65685000D01*
X137988463Y-65669776D01*
X137923579Y-65626421D01*
X137880224Y-65561537D01*
X137865000Y-65485000D01*
X137865000Y-64935000D01*
X137880224Y-64858463D01*
X137923579Y-64793579D01*
X137988463Y-64750224D01*
X138065000Y-64735000D01*
X138465000Y-64735000D01*
X138541537Y-64750224D01*
G37*
G36*
X110735000Y-65150000D02*
G01*
X109235000Y-65150000D01*
X109235000Y-64450000D01*
X110735000Y-64450000D01*
X110735000Y-65150000D01*
G37*
G36*
X111907208Y-63634254D02*
G01*
X112008943Y-63692991D01*
X112092009Y-63776057D01*
X112150746Y-63877792D01*
X112181150Y-63991263D01*
X112181150Y-64108737D01*
X112150746Y-64222208D01*
X112092009Y-64323943D01*
X112008943Y-64407009D01*
X111907208Y-64465746D01*
X111793737Y-64496150D01*
X111676263Y-64496150D01*
X111562792Y-64465746D01*
X111461057Y-64407009D01*
X111377991Y-64323943D01*
X111319254Y-64222208D01*
X111288850Y-64108737D01*
X111288850Y-63991263D01*
X111319254Y-63877792D01*
X111377991Y-63776057D01*
X111461057Y-63692991D01*
X111562792Y-63634254D01*
X111676263Y-63603850D01*
X111793737Y-63603850D01*
X111907208Y-63634254D01*
G37*
G36*
X110735000Y-63650000D02*
G01*
X109235000Y-63650000D01*
X109235000Y-62950000D01*
X110735000Y-62950000D01*
X110735000Y-63650000D01*
G37*
G36*
X148872001Y-62048090D02*
G01*
X148877992Y-62051018D01*
X148880689Y-62051446D01*
X148923828Y-62073426D01*
X148982904Y-62102307D01*
X149070193Y-62189596D01*
X149099091Y-62248709D01*
X149121053Y-62291811D01*
X149121479Y-62294504D01*
X149124410Y-62300499D01*
X149140000Y-62407500D01*
X149140000Y-63157500D01*
X149124410Y-63264501D01*
X149121479Y-63270495D01*
X149121053Y-63273189D01*
X149099096Y-63316279D01*
X149070193Y-63375404D01*
X148982904Y-63462693D01*
X148923765Y-63491604D01*
X148880688Y-63513553D01*
X148877995Y-63513979D01*
X148872001Y-63516910D01*
X148765000Y-63532500D01*
X147515000Y-63532500D01*
X147407999Y-63516910D01*
X147402005Y-63513979D01*
X147399310Y-63513553D01*
X147356195Y-63491584D01*
X147297096Y-63462693D01*
X147209807Y-63375404D01*
X147180919Y-63316313D01*
X147158946Y-63273188D01*
X147158519Y-63270492D01*
X147155590Y-63264501D01*
X147140000Y-63157500D01*
X147140000Y-62407500D01*
X147155590Y-62300499D01*
X147158518Y-62294508D01*
X147158946Y-62291810D01*
X147180938Y-62248647D01*
X147209807Y-62189596D01*
X147297096Y-62102307D01*
X147356161Y-62073431D01*
X147399311Y-62051446D01*
X147402007Y-62051018D01*
X147407999Y-62048090D01*
X147515000Y-62032500D01*
X148765000Y-62032500D01*
X148872001Y-62048090D01*
G37*
G36*
X139470000Y-63450000D02*
G01*
X137770000Y-63450000D01*
X137770000Y-61750000D01*
X139470000Y-61750000D01*
X139470000Y-63450000D01*
G37*
G36*
X118040000Y-63440000D02*
G01*
X116340000Y-63440000D01*
X116340000Y-61740000D01*
X118040000Y-61740000D01*
X118040000Y-63440000D01*
G37*
G36*
X119976742Y-61776601D02*
G01*
X120130687Y-61840367D01*
X120269234Y-61932941D01*
X120387059Y-62050766D01*
X120479633Y-62189313D01*
X120543399Y-62343258D01*
X120575907Y-62506685D01*
X120575907Y-62673315D01*
X120543399Y-62836742D01*
X120479633Y-62990687D01*
X120387059Y-63129234D01*
X120269234Y-63247059D01*
X120130687Y-63339633D01*
X119976742Y-63403399D01*
X119813315Y-63435907D01*
X119646685Y-63435907D01*
X119483258Y-63403399D01*
X119329313Y-63339633D01*
X119190766Y-63247059D01*
X119072941Y-63129234D01*
X118980367Y-62990687D01*
X118916601Y-62836742D01*
X118884093Y-62673315D01*
X118884093Y-62506685D01*
X118916601Y-62343258D01*
X118980367Y-62189313D01*
X119072941Y-62050766D01*
X119190766Y-61932941D01*
X119329313Y-61840367D01*
X119483258Y-61776601D01*
X119646685Y-61744093D01*
X119813315Y-61744093D01*
X119976742Y-61776601D01*
G37*
G36*
X122516742Y-61776601D02*
G01*
X122670687Y-61840367D01*
X122809234Y-61932941D01*
X122927059Y-62050766D01*
X123019633Y-62189313D01*
X123083399Y-62343258D01*
X123115907Y-62506685D01*
X123115907Y-62673315D01*
X123083399Y-62836742D01*
X123019633Y-62990687D01*
X122927059Y-63129234D01*
X122809234Y-63247059D01*
X122670687Y-63339633D01*
X122516742Y-63403399D01*
X122353315Y-63435907D01*
X122186685Y-63435907D01*
X122023258Y-63403399D01*
X121869313Y-63339633D01*
X121730766Y-63247059D01*
X121612941Y-63129234D01*
X121520367Y-62990687D01*
X121456601Y-62836742D01*
X121424093Y-62673315D01*
X121424093Y-62506685D01*
X121456601Y-62343258D01*
X121520367Y-62189313D01*
X121612941Y-62050766D01*
X121730766Y-61932941D01*
X121869313Y-61840367D01*
X122023258Y-61776601D01*
X122186685Y-61744093D01*
X122353315Y-61744093D01*
X122516742Y-61776601D01*
G37*
G36*
X125056742Y-61776601D02*
G01*
X125210687Y-61840367D01*
X125349234Y-61932941D01*
X125467059Y-62050766D01*
X125559633Y-62189313D01*
X125623399Y-62343258D01*
X125655907Y-62506685D01*
X125655907Y-62673315D01*
X125623399Y-62836742D01*
X125559633Y-62990687D01*
X125467059Y-63129234D01*
X125349234Y-63247059D01*
X125210687Y-63339633D01*
X125056742Y-63403399D01*
X124893315Y-63435907D01*
X124726685Y-63435907D01*
X124563258Y-63403399D01*
X124409313Y-63339633D01*
X124270766Y-63247059D01*
X124152941Y-63129234D01*
X124060367Y-62990687D01*
X123996601Y-62836742D01*
X123964093Y-62673315D01*
X123964093Y-62506685D01*
X123996601Y-62343258D01*
X124060367Y-62189313D01*
X124152941Y-62050766D01*
X124270766Y-61932941D01*
X124409313Y-61840367D01*
X124563258Y-61776601D01*
X124726685Y-61744093D01*
X124893315Y-61744093D01*
X125056742Y-61776601D01*
G37*
G36*
X127596742Y-61776601D02*
G01*
X127750687Y-61840367D01*
X127889234Y-61932941D01*
X128007059Y-62050766D01*
X128099633Y-62189313D01*
X128163399Y-62343258D01*
X128195907Y-62506685D01*
X128195907Y-62673315D01*
X128163399Y-62836742D01*
X128099633Y-62990687D01*
X128007059Y-63129234D01*
X127889234Y-63247059D01*
X127750687Y-63339633D01*
X127596742Y-63403399D01*
X127433315Y-63435907D01*
X127266685Y-63435907D01*
X127103258Y-63403399D01*
X126949313Y-63339633D01*
X126810766Y-63247059D01*
X126692941Y-63129234D01*
X126600367Y-62990687D01*
X126536601Y-62836742D01*
X126504093Y-62673315D01*
X126504093Y-62506685D01*
X126536601Y-62343258D01*
X126600367Y-62189313D01*
X126692941Y-62050766D01*
X126810766Y-61932941D01*
X126949313Y-61840367D01*
X127103258Y-61776601D01*
X127266685Y-61744093D01*
X127433315Y-61744093D01*
X127596742Y-61776601D01*
G37*
G36*
X130136742Y-61776601D02*
G01*
X130290687Y-61840367D01*
X130429234Y-61932941D01*
X130547059Y-62050766D01*
X130639633Y-62189313D01*
X130703399Y-62343258D01*
X130735907Y-62506685D01*
X130735907Y-62673315D01*
X130703399Y-62836742D01*
X130639633Y-62990687D01*
X130547059Y-63129234D01*
X130429234Y-63247059D01*
X130290687Y-63339633D01*
X130136742Y-63403399D01*
X129973315Y-63435907D01*
X129806685Y-63435907D01*
X129643258Y-63403399D01*
X129489313Y-63339633D01*
X129350766Y-63247059D01*
X129232941Y-63129234D01*
X129140367Y-62990687D01*
X129076601Y-62836742D01*
X129044093Y-62673315D01*
X129044093Y-62506685D01*
X129076601Y-62343258D01*
X129140367Y-62189313D01*
X129232941Y-62050766D01*
X129350766Y-61932941D01*
X129489313Y-61840367D01*
X129643258Y-61776601D01*
X129806685Y-61744093D01*
X129973315Y-61744093D01*
X130136742Y-61776601D01*
G37*
G36*
X132676742Y-61776601D02*
G01*
X132830687Y-61840367D01*
X132969234Y-61932941D01*
X133087059Y-62050766D01*
X133179633Y-62189313D01*
X133243399Y-62343258D01*
X133275907Y-62506685D01*
X133275907Y-62673315D01*
X133243399Y-62836742D01*
X133179633Y-62990687D01*
X133087059Y-63129234D01*
X132969234Y-63247059D01*
X132830687Y-63339633D01*
X132676742Y-63403399D01*
X132513315Y-63435907D01*
X132346685Y-63435907D01*
X132183258Y-63403399D01*
X132029313Y-63339633D01*
X131890766Y-63247059D01*
X131772941Y-63129234D01*
X131680367Y-62990687D01*
X131616601Y-62836742D01*
X131584093Y-62673315D01*
X131584093Y-62506685D01*
X131616601Y-62343258D01*
X131680367Y-62189313D01*
X131772941Y-62050766D01*
X131890766Y-61932941D01*
X132029313Y-61840367D01*
X132183258Y-61776601D01*
X132346685Y-61744093D01*
X132513315Y-61744093D01*
X132676742Y-61776601D01*
G37*
G36*
X135216742Y-61776601D02*
G01*
X135370687Y-61840367D01*
X135509234Y-61932941D01*
X135627059Y-62050766D01*
X135719633Y-62189313D01*
X135783399Y-62343258D01*
X135815907Y-62506685D01*
X135815907Y-62673315D01*
X135783399Y-62836742D01*
X135719633Y-62990687D01*
X135627059Y-63129234D01*
X135509234Y-63247059D01*
X135370687Y-63339633D01*
X135216742Y-63403399D01*
X135053315Y-63435907D01*
X134886685Y-63435907D01*
X134723258Y-63403399D01*
X134569313Y-63339633D01*
X134430766Y-63247059D01*
X134312941Y-63129234D01*
X134220367Y-62990687D01*
X134156601Y-62836742D01*
X134124093Y-62673315D01*
X134124093Y-62506685D01*
X134156601Y-62343258D01*
X134220367Y-62189313D01*
X134312941Y-62050766D01*
X134430766Y-61932941D01*
X134569313Y-61840367D01*
X134723258Y-61776601D01*
X134886685Y-61744093D01*
X135053315Y-61744093D01*
X135216742Y-61776601D01*
G37*
G36*
X150616104Y-62322127D02*
G01*
X150689099Y-62370901D01*
X150737873Y-62443896D01*
X150755000Y-62530000D01*
X150755000Y-63030000D01*
X150737873Y-63116104D01*
X150689099Y-63189099D01*
X150616104Y-63237873D01*
X150530000Y-63255000D01*
X150080000Y-63255000D01*
X149993896Y-63237873D01*
X149920901Y-63189099D01*
X149872127Y-63116104D01*
X149855000Y-63030000D01*
X149855000Y-62530000D01*
X149872127Y-62443896D01*
X149920901Y-62370901D01*
X149993896Y-62322127D01*
X150080000Y-62305000D01*
X150530000Y-62305000D01*
X150616104Y-62322127D01*
G37*
G36*
X152166104Y-62322127D02*
G01*
X152239099Y-62370901D01*
X152287873Y-62443896D01*
X152305000Y-62530000D01*
X152305000Y-63030000D01*
X152287873Y-63116104D01*
X152239099Y-63189099D01*
X152166104Y-63237873D01*
X152080000Y-63255000D01*
X151630000Y-63255000D01*
X151543896Y-63237873D01*
X151470901Y-63189099D01*
X151422127Y-63116104D01*
X151405000Y-63030000D01*
X151405000Y-62530000D01*
X151422127Y-62443896D01*
X151470901Y-62370901D01*
X151543896Y-62322127D01*
X151630000Y-62305000D01*
X152080000Y-62305000D01*
X152166104Y-62322127D01*
G37*
G36*
X111035000Y-62400000D02*
G01*
X110235000Y-62400000D01*
X110235000Y-61400000D01*
X111035000Y-61400000D01*
X111035000Y-62400000D01*
G37*
G36*
X113235000Y-62400000D02*
G01*
X112435000Y-62400000D01*
X112435000Y-61400000D01*
X113235000Y-61400000D01*
X113235000Y-62400000D01*
G37*
%LPD*%
M02*
