%TF.GenerationSoftware,KiCad,Pcbnew,10.0.1*%
%TF.CreationDate,2026-07-14T07:43:42+02:00*%
%TF.ProjectId,AT1846S-breakout,41543138-3436-4532-9d62-7265616b6f75,rev?*%
%TF.SameCoordinates,Original*%
%TF.FileFunction,Copper,L4,Bot*%
%TF.FilePolarity,Positive*%
%FSLAX46Y46*%
G04 Gerber Fmt 4.6, Leading zero omitted, Abs format (unit mm)*
G04 Created by KiCad (PCBNEW 10.0.1) date 2026-07-14 07:43:42*
%MOMM*%
%LPD*%
G01*
G04 APERTURE LIST*
%TA.AperFunction,ComponentPad*%
%ADD10R,1.700000X1.700000*%
%TD*%
%TA.AperFunction,ComponentPad*%
%ADD11C,1.700000*%
%TD*%
%TA.AperFunction,ComponentPad*%
%ADD12R,1.446000X1.446000*%
%TD*%
%TA.AperFunction,ComponentPad*%
%ADD13C,1.446000*%
%TD*%
%TA.AperFunction,ComponentPad*%
%ADD14C,1.650000*%
%TD*%
%TA.AperFunction,ComponentPad*%
%ADD15C,2.130000*%
%TD*%
%TA.AperFunction,ComponentPad*%
%ADD16C,1.800000*%
%TD*%
%TA.AperFunction,ViaPad*%
%ADD17C,0.609600*%
%TD*%
%TA.AperFunction,Conductor*%
%ADD18C,0.152400*%
%TD*%
G04 APERTURE END LIST*
D10*
%TO.P,J1,1,Pin_1_1*%
%TO.N,Net-(IC1-GPIO0)*%
X117190000Y-62590000D03*
D11*
%TO.P,J1,2,Pin_2_2*%
%TO.N,Net-(IC1-GPIO1)*%
X119730000Y-62590000D03*
%TO.P,J1,3,Pin_3_3*%
%TO.N,Net-(IC1-GPIO2)*%
X122270000Y-62590000D03*
%TO.P,J1,4,Pin_4_4*%
%TO.N,Net-(IC1-GPIO3)*%
X124810000Y-62590000D03*
%TO.P,J1,5,Pin_5_5*%
%TO.N,Net-(IC1-GPIO4)*%
X127350000Y-62590000D03*
%TO.P,J1,6,Pin_6_6*%
%TO.N,Net-(IC1-GPIO5)*%
X129890000Y-62590000D03*
%TO.P,J1,7,Pin_7_7*%
%TO.N,Net-(IC1-GPIO6)*%
X132430000Y-62590000D03*
%TO.P,J1,8,Pin_8_8*%
%TO.N,Net-(IC1-GPIO7)*%
X134970000Y-62590000D03*
%TD*%
D10*
%TO.P,J8,1,Pin_1_1*%
%TO.N,Net-(IC2-VCTL)*%
X164640000Y-70840000D03*
%TD*%
%TO.P,J6,1,Pin_1_1*%
%TO.N,Net-(J6-Pin_1)*%
X124360000Y-78860000D03*
%TD*%
%TO.P,J7,1,Pin_1_1*%
%TO.N,+5V*%
X151870000Y-66550000D03*
%TD*%
%TO.P,J3,1,Pin_1_1*%
%TO.N,Net-(IC1-MODE)*%
X111970000Y-73050000D03*
%TD*%
D12*
%TO.P,MK1,1,+_1*%
%TO.N,Net-(J6-Pin_1)*%
X131790000Y-79700000D03*
D13*
%TO.P,MK1,2,-_2*%
%TO.N,GND*%
X134330000Y-79700000D03*
%TD*%
D14*
%TO.P,J9,1*%
%TO.N,Net-(IC2-RFC)*%
X170860000Y-74840000D03*
D15*
%TO.P,J9,2_1*%
%TO.N,GND*%
X168310000Y-72290000D03*
%TO.P,J9,2_2*%
X173410000Y-72290000D03*
%TO.P,J9,2_3*%
X173410000Y-77390000D03*
%TO.P,J9,2_4*%
X168310000Y-77390000D03*
%TD*%
D10*
%TO.P,J5,1,Pin_1_1*%
%TO.N,Net-(IC1-PDN)*%
X138620000Y-62600000D03*
%TD*%
%TO.P,J2,1,Pin_1_1*%
%TO.N,Net-(IC1-SCLK)*%
X109400000Y-82660000D03*
D11*
%TO.P,J2,2,Pin_2_2*%
%TO.N,Net-(IC1-SDIO)*%
X109400000Y-85200000D03*
%TO.P,J2,3,Pin_3_3*%
%TO.N,Net-(IC1-SENB)*%
X109400000Y-87740000D03*
%TD*%
D16*
%TO.P,J4,1,Pin_1_1*%
%TO.N,Net-(J4-Pin_1)*%
X114340000Y-83640000D03*
%TO.P,J4,2,Pin_2_2*%
%TO.N,GND*%
X119420000Y-83640000D03*
%TD*%
D17*
%TO.N,GND*%
X139660000Y-74330000D03*
X173420000Y-78970000D03*
X118200000Y-68200000D03*
X125080000Y-69950000D03*
X168300000Y-70530000D03*
X168320000Y-79050000D03*
X131780000Y-69690000D03*
X157680000Y-71580000D03*
X148220000Y-72630000D03*
X131780000Y-68090000D03*
X115050000Y-69430000D03*
X139950000Y-68840000D03*
X160230000Y-70790000D03*
X163980000Y-74830000D03*
X151980000Y-75680000D03*
X148230000Y-69180000D03*
X153010000Y-62780000D03*
X115740000Y-74150000D03*
X166150000Y-78200000D03*
X173410000Y-70710000D03*
X135850000Y-79700000D03*
X131740000Y-73450000D03*
X157350000Y-68700000D03*
X132780000Y-75040000D03*
X109880000Y-66910000D03*
X131730000Y-71930000D03*
X154140000Y-71320000D03*
X141930000Y-72630000D03*
X121080000Y-83640000D03*
X115350000Y-72370000D03*
%TO.N,+3V3*%
X151690000Y-72950000D03*
X129075000Y-73480000D03*
X164980000Y-75547202D03*
X129025000Y-69690000D03*
X129075000Y-71950000D03*
X125980000Y-74440000D03*
X120760000Y-70280000D03*
X120970000Y-68210000D03*
%TO.N,Net-(IC1-SDIO)*%
X119909878Y-69673230D03*
X116170000Y-77650000D03*
%TO.N,Net-(IC1-SCLK)*%
X119260000Y-69240000D03*
X109610000Y-80330000D03*
%TO.N,Net-(IC1-CC)*%
X130085000Y-75000000D03*
X126720000Y-75240000D03*
%TD*%
%TO.N,+3V3*%
D18*
X164980000Y-75547202D02*
X163897202Y-76630000D01*
X163897202Y-76630000D02*
X155370000Y-76630000D01*
X120760000Y-70280000D02*
X120970000Y-70070000D01*
X120970000Y-68210000D02*
X127545000Y-68210000D01*
X129075000Y-71950000D02*
X129025000Y-71900000D01*
X128115000Y-74440000D02*
X129075000Y-73480000D01*
X127545000Y-68210000D02*
X129025000Y-69690000D01*
X155370000Y-76630000D02*
X151690000Y-72950000D01*
X120970000Y-70070000D02*
X120970000Y-68210000D01*
X129025000Y-71900000D02*
X129025000Y-69690000D01*
X125980000Y-74440000D02*
X128115000Y-74440000D01*
%TO.N,Net-(IC1-SDIO)*%
X119920000Y-73900000D02*
X116170000Y-77650000D01*
X119909878Y-69673230D02*
X119920000Y-69683352D01*
X119920000Y-69683352D02*
X119920000Y-73900000D01*
%TO.N,Net-(IC1-SCLK)*%
X119260000Y-69240000D02*
X119260000Y-71440000D01*
X110370000Y-80330000D02*
X109610000Y-80330000D01*
X119260000Y-71440000D02*
X110370000Y-80330000D01*
%TO.N,Net-(IC1-CC)*%
X130085000Y-75000000D02*
X127840000Y-75000000D01*
X127840000Y-75000000D02*
X127600000Y-75240000D01*
X127600000Y-75240000D02*
X126720000Y-75240000D01*
%TD*%
M02*
