%TF.GenerationSoftware,KiCad,Pcbnew,10.0.1*%
%TF.CreationDate,2026-07-13T16:36:54+02:00*%
%TF.ProjectId,AT1846S-breakout,41543138-3436-4532-9d62-7265616b6f75,rev?*%
%TF.SameCoordinates,Original*%
%TF.FileFunction,Copper,L1,Top*%
%TF.FilePolarity,Positive*%
%FSLAX46Y46*%
G04 Gerber Fmt 4.6, Leading zero omitted, Abs format (unit mm)*
G04 Created by KiCad (PCBNEW 10.0.1) date 2026-07-13 16:36:54*
%MOMM*%
%LPD*%
G01*
G04 APERTURE LIST*
G04 Aperture macros list*
%AMRoundRect*
0 Rectangle with rounded corners*
0 $1 Rounding radius*
0 $2 $3 $4 $5 $6 $7 $8 $9 X,Y pos of 4 corners*
0 Add a 4 corners polygon primitive as box body*
4,1,4,$2,$3,$4,$5,$6,$7,$8,$9,$2,$3,0*
0 Add four circle primitives for the rounded corners*
1,1,$1+$1,$2,$3*
1,1,$1+$1,$4,$5*
1,1,$1+$1,$6,$7*
1,1,$1+$1,$8,$9*
0 Add four rect primitives between the rounded corners*
20,1,$1+$1,$2,$3,$4,$5,0*
20,1,$1+$1,$4,$5,$6,$7,0*
20,1,$1+$1,$6,$7,$8,$9,0*
20,1,$1+$1,$8,$9,$2,$3,0*%
%AMFreePoly0*
4,1,9,3.862500,-0.866500,0.737500,-0.866500,0.737500,-0.450000,-0.737500,-0.450000,-0.737500,0.450000,0.737500,0.450000,0.737500,0.866500,3.862500,0.866500,3.862500,-0.866500,3.862500,-0.866500,$1*%
G04 Aperture macros list end*
%TA.AperFunction,EtchedComponent*%
%ADD10C,0.000000*%
%TD*%
%TA.AperFunction,SMDPad,CuDef*%
%ADD11RoundRect,0.225000X-0.250000X0.225000X-0.250000X-0.225000X0.250000X-0.225000X0.250000X0.225000X0*%
%TD*%
%TA.AperFunction,SMDPad,CuDef*%
%ADD12RoundRect,0.225000X0.225000X0.250000X-0.225000X0.250000X-0.225000X-0.250000X0.225000X-0.250000X0*%
%TD*%
%TA.AperFunction,SMDPad,CuDef*%
%ADD13RoundRect,0.375000X0.625000X0.375000X-0.625000X0.375000X-0.625000X-0.375000X0.625000X-0.375000X0*%
%TD*%
%TA.AperFunction,SMDPad,CuDef*%
%ADD14RoundRect,0.500000X0.500000X1.400000X-0.500000X1.400000X-0.500000X-1.400000X0.500000X-1.400000X0*%
%TD*%
%TA.AperFunction,SMDPad,CuDef*%
%ADD15RoundRect,0.225000X-0.425000X-0.225000X0.425000X-0.225000X0.425000X0.225000X-0.425000X0.225000X0*%
%TD*%
%TA.AperFunction,SMDPad,CuDef*%
%ADD16FreePoly0,0.000000*%
%TD*%
%TA.AperFunction,SMDPad,CuDef*%
%ADD17RoundRect,0.225000X-0.225000X-0.250000X0.225000X-0.250000X0.225000X0.250000X-0.225000X0.250000X0*%
%TD*%
%TA.AperFunction,SMDPad,CuDef*%
%ADD18RoundRect,0.225000X0.250000X-0.225000X0.250000X0.225000X-0.250000X0.225000X-0.250000X-0.225000X0*%
%TD*%
%TA.AperFunction,SMDPad,CuDef*%
%ADD19RoundRect,0.200000X-0.275000X0.200000X-0.275000X-0.200000X0.275000X-0.200000X0.275000X0.200000X0*%
%TD*%
%TA.AperFunction,ComponentPad*%
%ADD20R,1.700000X1.700000*%
%TD*%
%TA.AperFunction,ComponentPad*%
%ADD21C,1.700000*%
%TD*%
%TA.AperFunction,SMDPad,CuDef*%
%ADD22RoundRect,0.250000X0.350000X-0.450000X0.350000X0.450000X-0.350000X0.450000X-0.350000X-0.450000X0*%
%TD*%
%TA.AperFunction,SMDPad,CuDef*%
%ADD23R,0.800000X0.500000*%
%TD*%
%TA.AperFunction,SMDPad,CuDef*%
%ADD24RoundRect,0.218750X-0.218750X-0.381250X0.218750X-0.381250X0.218750X0.381250X-0.218750X0.381250X0*%
%TD*%
%TA.AperFunction,SMDPad,CuDef*%
%ADD25R,1.500000X0.700000*%
%TD*%
%TA.AperFunction,SMDPad,CuDef*%
%ADD26R,0.800000X1.000000*%
%TD*%
%TA.AperFunction,SMDPad,CuDef*%
%ADD27R,1.000000X1.500000*%
%TD*%
%TA.AperFunction,SMDPad,CuDef*%
%ADD28RoundRect,0.218750X0.381250X-0.218750X0.381250X0.218750X-0.381250X0.218750X-0.381250X-0.218750X0*%
%TD*%
%TA.AperFunction,SMDPad,CuDef*%
%ADD29R,0.850000X0.300000*%
%TD*%
%TA.AperFunction,SMDPad,CuDef*%
%ADD30R,0.300000X0.850000*%
%TD*%
%TA.AperFunction,SMDPad,CuDef*%
%ADD31R,3.550000X3.550000*%
%TD*%
%TA.AperFunction,SMDPad,CuDef*%
%ADD32RoundRect,0.200000X-0.200000X-0.275000X0.200000X-0.275000X0.200000X0.275000X-0.200000X0.275000X0*%
%TD*%
%TA.AperFunction,ComponentPad*%
%ADD33R,1.446000X1.446000*%
%TD*%
%TA.AperFunction,ComponentPad*%
%ADD34C,1.446000*%
%TD*%
%TA.AperFunction,ComponentPad*%
%ADD35C,1.650000*%
%TD*%
%TA.AperFunction,ComponentPad*%
%ADD36C,2.130000*%
%TD*%
%TA.AperFunction,ComponentPad*%
%ADD37C,1.800000*%
%TD*%
%TA.AperFunction,ViaPad*%
%ADD38C,0.609600*%
%TD*%
%TA.AperFunction,Conductor*%
%ADD39C,0.152400*%
%TD*%
G04 APERTURE END LIST*
D10*
%TA.AperFunction,EtchedComponent*%
%TO.C,JP1*%
G36*
X111540000Y-76620000D02*
G01*
X111040000Y-76620000D01*
X111040000Y-76020000D01*
X111540000Y-76020000D01*
X111540000Y-76620000D01*
G37*
%TD.AperFunction*%
%TD*%
D11*
%TO.P,C15,1*%
%TO.N,+3V3*%
X165015000Y-76660000D03*
%TO.P,C15,2*%
%TO.N,GND*%
X165015000Y-78210000D03*
%TD*%
D12*
%TO.P,C4,2*%
%TO.N,Net-(IC1-CC)*%
X130085000Y-75000000D03*
%TO.P,C4,1*%
%TO.N,GND*%
X131635000Y-75000000D03*
%TD*%
D13*
%TO.P,U2,1,GND_1*%
%TO.N,GND*%
X148140000Y-67382500D03*
%TO.P,U2,2,VO_2*%
%TO.N,+3V3*%
X148140000Y-65082500D03*
D14*
X141840000Y-65082500D03*
D13*
%TO.P,U2,3,VI_3*%
%TO.N,+5V*%
X148140000Y-62782500D03*
%TD*%
D15*
%TO.P,U1,1*%
%TO.N,Net-(L1-Pad2)*%
X143560000Y-71190000D03*
D16*
%TO.P,U1,2,GND_2*%
%TO.N,GND*%
X143647500Y-72690000D03*
D15*
%TO.P,U1,3*%
%TO.N,Net-(C8-Pad2)*%
X143560000Y-74190000D03*
%TD*%
D17*
%TO.P,C17,1*%
%TO.N,+3V3*%
X129025000Y-69690000D03*
%TO.P,C17,2*%
%TO.N,GND*%
X130575000Y-69690000D03*
%TD*%
%TO.P,C2,1*%
%TO.N,GND*%
X116945000Y-74180000D03*
%TO.P,C2,2*%
%TO.N,/XTAL2*%
X118495000Y-74180000D03*
%TD*%
D18*
%TO.P,C8,1*%
%TO.N,GND*%
X150790000Y-75735000D03*
%TO.P,C8,2*%
%TO.N,Net-(C8-Pad2)*%
X150790000Y-74185000D03*
%TD*%
D17*
%TO.P,C1,1*%
%TO.N,GND*%
X115070000Y-68320000D03*
%TO.P,C1,2*%
%TO.N,/XTAL1*%
X116620000Y-68320000D03*
%TD*%
%TO.P,C16,1*%
%TO.N,+3V3*%
X129015000Y-68100000D03*
%TO.P,C16,2*%
%TO.N,GND*%
X130565000Y-68100000D03*
%TD*%
D19*
%TO.P,R1,1*%
%TO.N,+3V3*%
X125980000Y-74440000D03*
%TO.P,R1,2*%
%TO.N,Net-(J6-Pin_1)*%
X125980000Y-76090000D03*
%TD*%
D18*
%TO.P,C10,1*%
%TO.N,GND*%
X153060000Y-71745000D03*
%TO.P,C10,2*%
%TO.N,+5V*%
X153060000Y-70195000D03*
%TD*%
D20*
%TO.P,J1,1,Pin_1_1*%
%TO.N,Net-(IC1-GPIO0)*%
X117190000Y-62590000D03*
D21*
%TO.P,J1,2,Pin_2_2*%
%TO.N,Net-(IC1-GPIO1)*%
X119730000Y-62590000D03*
%TO.P,J1,3,Pin_3_3*%
%TO.N,Net-(IC1-GPIO2)*%
X122270000Y-62590000D03*
%TO.P,J1,4,Pin_4_4*%
%TO.N,Net-(IC1-GPIO3)*%
X124810000Y-62590000D03*
%TO.P,J1,5,Pin_5_5*%
%TO.N,Net-(IC1-GPIO4)*%
X127350000Y-62590000D03*
%TO.P,J1,6,Pin_6_6*%
%TO.N,Net-(IC1-GPIO5)*%
X129890000Y-62590000D03*
%TO.P,J1,7,Pin_7_7*%
%TO.N,Net-(IC1-GPIO6)*%
X132430000Y-62590000D03*
%TO.P,J1,8,Pin_8_8*%
%TO.N,Net-(IC1-GPIO7)*%
X134970000Y-62590000D03*
%TD*%
D12*
%TO.P,C20,1*%
%TO.N,GND*%
X151855000Y-62780000D03*
%TO.P,C20,2*%
%TO.N,+5V*%
X150305000Y-62780000D03*
%TD*%
D20*
%TO.P,J8,1,Pin_1_1*%
%TO.N,Net-(IC2-VCTL)*%
X164640000Y-70840000D03*
%TD*%
D22*
%TO.P,Y1,1,1_1*%
%TO.N,/XTAL2*%
X118310000Y-72360000D03*
%TO.P,Y1,2,G_2*%
%TO.N,GND*%
X118310000Y-70160000D03*
%TO.P,Y1,3,3_3*%
%TO.N,/XTAL1*%
X116610000Y-70160000D03*
%TO.P,Y1,4,G_4*%
%TO.N,GND*%
X116610000Y-72360000D03*
%TD*%
D20*
%TO.P,J6,1,Pin_1_1*%
%TO.N,Net-(J6-Pin_1)*%
X124360000Y-78860000D03*
%TD*%
D12*
%TO.P,C9,1*%
%TO.N,GND*%
X156285000Y-68690000D03*
%TO.P,C9,2*%
%TO.N,+5V*%
X154735000Y-68690000D03*
%TD*%
D19*
%TO.P,R4,1*%
%TO.N,+3V3*%
X117300000Y-75580000D03*
%TO.P,R4,2*%
%TO.N,Net-(IC1-SDIO)*%
X117300000Y-77230000D03*
%TD*%
D23*
%TO.P,IC2,1,RF2_1*%
%TO.N,Net-(IC2-RF2)*%
X162980000Y-74190000D03*
%TO.P,IC2,2,GND_2*%
%TO.N,GND*%
X162980000Y-74840000D03*
%TO.P,IC2,3,RF1_3*%
%TO.N,/RFIN*%
X162980000Y-75490000D03*
%TO.P,IC2,4,VDD_4*%
%TO.N,+3V3*%
X164980000Y-75490000D03*
%TO.P,IC2,5,RFC_5*%
%TO.N,Net-(IC2-RFC)*%
X164980000Y-74840000D03*
%TO.P,IC2,6,VCTL_6*%
%TO.N,Net-(IC2-VCTL)*%
X164980000Y-74190000D03*
%TD*%
D19*
%TO.P,R3,1*%
%TO.N,+3V3*%
X114520000Y-75585000D03*
%TO.P,R3,2*%
%TO.N,Net-(IC1-SCLK)*%
X114520000Y-77235000D03*
%TD*%
D18*
%TO.P,C6,1*%
%TO.N,Net-(J4-Pin_1)*%
X121710000Y-75935000D03*
%TO.P,C6,2*%
%TO.N,Net-(IC1-AFOUT)*%
X121710000Y-74385000D03*
%TD*%
D24*
%TO.P,L1,1,1_1*%
%TO.N,Net-(C5-Pad2)*%
X138337500Y-71190000D03*
%TO.P,L1,2,2_2*%
%TO.N,Net-(L1-Pad2)*%
X140462500Y-71190000D03*
%TD*%
D25*
%TO.P,S1,1,1_1*%
%TO.N,GND*%
X109985000Y-67800000D03*
%TO.P,S1,2,2_2*%
%TO.N,Net-(JP1-A)*%
X109985000Y-64800000D03*
%TO.P,S1,3,3_3*%
%TO.N,+3V3*%
X109985000Y-63300000D03*
D26*
%TO.P,S1,4,4_4*%
%TO.N,unconnected-(S1-Pad4)*%
X110635000Y-69200000D03*
%TO.P,S1,5,5_5*%
%TO.N,unconnected-(S1-Pad5)*%
X112835000Y-69200000D03*
%TO.P,S1,6,6_6*%
%TO.N,unconnected-(S1-Pad6)*%
X110635000Y-61900000D03*
%TO.P,S1,7,7_7*%
%TO.N,unconnected-(S1-Pad7)*%
X112835000Y-61900000D03*
%TD*%
D20*
%TO.P,J7,1,Pin_1_1*%
%TO.N,+5V*%
X151870000Y-66550000D03*
%TD*%
%TO.P,J3,1,Pin_1_1*%
%TO.N,Net-(IC1-MODE)*%
X111970000Y-73050000D03*
%TD*%
D11*
%TO.P,C12,1*%
%TO.N,GND*%
X159060000Y-70800000D03*
%TO.P,C12,2*%
%TO.N,Net-(C12-Pad2)*%
X159060000Y-72350000D03*
%TD*%
D12*
%TO.P,C14,1*%
%TO.N,+3V3*%
X120970000Y-68210000D03*
%TO.P,C14,2*%
%TO.N,GND*%
X119420000Y-68210000D03*
%TD*%
D27*
%TO.P,JP1,1,A_1*%
%TO.N,Net-(JP1-A)*%
X110640000Y-76320000D03*
%TO.P,JP1,2,B_2*%
%TO.N,Net-(IC1-MODE)*%
X111940000Y-76320000D03*
%TD*%
D28*
%TO.P,L3,1,1_1*%
%TO.N,Net-(C8-Pad2)*%
X154730000Y-72325000D03*
%TO.P,L3,2,2_2*%
%TO.N,+5V*%
X154730000Y-70200000D03*
%TD*%
D17*
%TO.P,C5,1*%
%TO.N,Net-(IC1-RFOUT)*%
X134625000Y-71190000D03*
%TO.P,C5,2*%
%TO.N,Net-(C5-Pad2)*%
X136175000Y-71190000D03*
%TD*%
D11*
%TO.P,C3,1*%
%TO.N,Net-(IC1-MIC_IN)*%
X124330000Y-74500000D03*
%TO.P,C3,2*%
%TO.N,Net-(J6-Pin_1)*%
X124330000Y-76050000D03*
%TD*%
D18*
%TO.P,C21,1*%
%TO.N,GND*%
X139790000Y-67595000D03*
%TO.P,C21,2*%
%TO.N,+3V3*%
X139790000Y-66045000D03*
%TD*%
D29*
%TO.P,IC1,1,AVDD_1_1*%
%TO.N,+3V3*%
X122625000Y-68187500D03*
%TO.P,IC1,2,SCLK_2*%
%TO.N,Net-(IC1-SCLK)*%
X122625000Y-68687500D03*
%TO.P,IC1,3,SDIO_3*%
%TO.N,Net-(IC1-SDIO)*%
X122625000Y-69187500D03*
%TO.P,IC1,4,AVDD_2_4*%
%TO.N,+3V3*%
X122625000Y-69687500D03*
%TO.P,IC1,5,XTAL1_5*%
%TO.N,/XTAL1*%
X122625000Y-70187500D03*
%TO.P,IC1,6,XTAL2_6*%
%TO.N,/XTAL2*%
X122625000Y-70687500D03*
%TO.P,IC1,7,MODE_7*%
%TO.N,Net-(IC1-MODE)*%
X122625000Y-71187500D03*
%TO.P,IC1,8,SENB_8*%
%TO.N,Net-(IC1-SENB)*%
X122625000Y-71687500D03*
D30*
%TO.P,IC1,9,AFOUT_9*%
%TO.N,Net-(IC1-AFOUT)*%
X123325000Y-72387500D03*
%TO.P,IC1,10,NC_1_10*%
%TO.N,unconnected-(IC1-NC_1-Pad10)*%
X123825000Y-72387500D03*
%TO.P,IC1,11,MIC_IN_11*%
%TO.N,Net-(IC1-MIC_IN)*%
X124325000Y-72387500D03*
%TO.P,IC1,12,CC_12*%
%TO.N,Net-(IC1-CC)*%
X124825000Y-72387500D03*
%TO.P,IC1,13,AVDD_3_13*%
%TO.N,+3V3*%
X125325000Y-72387500D03*
%TO.P,IC1,14,NC_2_14*%
%TO.N,unconnected-(IC1-NC_2-Pad14)*%
X125825000Y-72387500D03*
%TO.P,IC1,15,RFIN_15*%
%TO.N,/RFIN*%
X126325000Y-72387500D03*
%TO.P,IC1,16,AVDD_4_16*%
%TO.N,+3V3*%
X126825000Y-72387500D03*
D29*
%TO.P,IC1,17,NC_3_17*%
%TO.N,unconnected-(IC1-NC_3-Pad17)*%
X127525000Y-71687500D03*
%TO.P,IC1,18,RFOUT_18*%
%TO.N,Net-(IC1-RFOUT)*%
X127525000Y-71187500D03*
%TO.P,IC1,19,NC_4_19*%
%TO.N,unconnected-(IC1-NC_4-Pad19)*%
X127525000Y-70687500D03*
%TO.P,IC1,20,NC_5_20*%
%TO.N,unconnected-(IC1-NC_5-Pad20)*%
X127525000Y-70187500D03*
%TO.P,IC1,21,AVDD_5_21*%
%TO.N,+3V3*%
X127525000Y-69687500D03*
%TO.P,IC1,22,PABIAS_22*%
%TO.N,unconnected-(IC1-PABIAS-Pad22)*%
X127525000Y-69187500D03*
%TO.P,IC1,23,AVDD_6_23*%
%TO.N,+3V3*%
X127525000Y-68687500D03*
%TO.P,IC1,24,PDN_24*%
%TO.N,Net-(IC1-PDN)*%
X127525000Y-68187500D03*
D30*
%TO.P,IC1,25,GPIO7_25*%
%TO.N,Net-(IC1-GPIO7)*%
X126825000Y-67487500D03*
%TO.P,IC1,26,GPIO6_26*%
%TO.N,Net-(IC1-GPIO6)*%
X126325000Y-67487500D03*
%TO.P,IC1,27,GPIO5_27*%
%TO.N,Net-(IC1-GPIO5)*%
X125825000Y-67487500D03*
%TO.P,IC1,28,GPIO4_28*%
%TO.N,Net-(IC1-GPIO4)*%
X125325000Y-67487500D03*
%TO.P,IC1,29,GPIO3_29*%
%TO.N,Net-(IC1-GPIO3)*%
X124825000Y-67487500D03*
%TO.P,IC1,30,GPIO2_30*%
%TO.N,Net-(IC1-GPIO2)*%
X124325000Y-67487500D03*
%TO.P,IC1,31,GPIO1_31*%
%TO.N,Net-(IC1-GPIO1)*%
X123825000Y-67487500D03*
%TO.P,IC1,32,GPIO0_32*%
%TO.N,Net-(IC1-GPIO0)*%
X123325000Y-67487500D03*
D31*
%TO.P,IC1,33,GND_33*%
%TO.N,GND*%
X125075000Y-69937500D03*
%TD*%
D12*
%TO.P,C13,1*%
%TO.N,Net-(IC2-RF2)*%
X160605000Y-74190000D03*
%TO.P,C13,2*%
%TO.N,Net-(C12-Pad2)*%
X159055000Y-74190000D03*
%TD*%
D17*
%TO.P,C18,1*%
%TO.N,+3V3*%
X129065000Y-71940000D03*
%TO.P,C18,2*%
%TO.N,GND*%
X130615000Y-71940000D03*
%TD*%
D32*
%TO.P,R2,1*%
%TO.N,Net-(IC1-PDN)*%
X136615000Y-65210000D03*
%TO.P,R2,2*%
%TO.N,+3V3*%
X138265000Y-65210000D03*
%TD*%
D33*
%TO.P,MK1,1,+_1*%
%TO.N,Net-(J6-Pin_1)*%
X131790000Y-79700000D03*
D34*
%TO.P,MK1,2,-_2*%
%TO.N,GND*%
X134330000Y-79700000D03*
%TD*%
D35*
%TO.P,J9,1*%
%TO.N,Net-(IC2-RFC)*%
X170860000Y-74840000D03*
D36*
%TO.P,J9,2_1*%
%TO.N,GND*%
X168310000Y-72290000D03*
%TO.P,J9,2_2*%
X173410000Y-72290000D03*
%TO.P,J9,2_3*%
X173410000Y-77390000D03*
%TO.P,J9,2_4*%
X168310000Y-77390000D03*
%TD*%
D17*
%TO.P,C19,1*%
%TO.N,+3V3*%
X129075000Y-73480000D03*
%TO.P,C19,2*%
%TO.N,GND*%
X130625000Y-73480000D03*
%TD*%
D18*
%TO.P,C11,1*%
%TO.N,GND*%
X156530000Y-71760000D03*
%TO.P,C11,2*%
%TO.N,+5V*%
X156530000Y-70210000D03*
%TD*%
D24*
%TO.P,L2,1,1_1*%
%TO.N,Net-(C8-Pad2)*%
X154727500Y-74190000D03*
%TO.P,L2,2,2_2*%
%TO.N,Net-(C12-Pad2)*%
X156852500Y-74190000D03*
%TD*%
D20*
%TO.P,J5,1,Pin_1_1*%
%TO.N,Net-(IC1-PDN)*%
X138620000Y-62600000D03*
%TD*%
D18*
%TO.P,C7,1*%
%TO.N,GND*%
X138350000Y-74475000D03*
%TO.P,C7,2*%
%TO.N,Net-(C5-Pad2)*%
X138350000Y-72925000D03*
%TD*%
D20*
%TO.P,J2,1,Pin_1_1*%
%TO.N,Net-(IC1-SCLK)*%
X109400000Y-82660000D03*
D21*
%TO.P,J2,2,Pin_2_2*%
%TO.N,Net-(IC1-SDIO)*%
X109400000Y-85200000D03*
%TO.P,J2,3,Pin_3_3*%
%TO.N,Net-(IC1-SENB)*%
X109400000Y-87740000D03*
%TD*%
D37*
%TO.P,J4,1,Pin_1_1*%
%TO.N,Net-(J4-Pin_1)*%
X114340000Y-83640000D03*
%TO.P,J4,2,Pin_2_2*%
%TO.N,GND*%
X119420000Y-83640000D03*
%TD*%
D38*
%TO.N,GND*%
X139950000Y-68840000D03*
X166150000Y-78200000D03*
X153010000Y-62780000D03*
%TO.N,+3V3*%
X164980000Y-75547202D03*
X151690000Y-72950000D03*
%TO.N,GND*%
X148230000Y-69180000D03*
%TO.N,+3V3*%
X120760000Y-70280000D03*
%TO.N,Net-(IC1-SDIO)*%
X119909878Y-69673230D03*
X116170000Y-77650000D03*
%TO.N,Net-(IC1-SCLK)*%
X109610000Y-80330000D03*
X119260000Y-69240000D03*
%TO.N,GND*%
X109880000Y-66910000D03*
X115740000Y-74150000D03*
X115050000Y-69430000D03*
X115350000Y-72370000D03*
%TO.N,+3V3*%
X120970000Y-68210000D03*
%TO.N,GND*%
X132780000Y-75040000D03*
X131740000Y-73450000D03*
X131730000Y-71930000D03*
X131780000Y-69690000D03*
X131780000Y-68090000D03*
X118200000Y-68200000D03*
%TO.N,+3V3*%
X129025000Y-69690000D03*
X129075000Y-71950000D03*
X129075000Y-73480000D03*
X125980000Y-74440000D03*
%TO.N,Net-(IC1-CC)*%
X126720000Y-75240000D03*
X130085000Y-75000000D03*
%TO.N,GND*%
X121080000Y-83640000D03*
X125080000Y-69950000D03*
X135850000Y-79700000D03*
X139660000Y-74330000D03*
X151980000Y-75680000D03*
X141930000Y-72630000D03*
X148220000Y-72630000D03*
X157680000Y-71580000D03*
X160230000Y-70790000D03*
X157350000Y-68700000D03*
X154140000Y-71320000D03*
X163980000Y-74830000D03*
X168300000Y-70530000D03*
X173410000Y-70710000D03*
X173420000Y-78970000D03*
X168320000Y-79050000D03*
%TD*%
%TO.N,+3V3*%
D39*
X138265000Y-66077500D02*
X138270000Y-66082500D01*
X138265000Y-65210000D02*
X138265000Y-66077500D01*
X138270000Y-66082500D02*
X131032500Y-66082500D01*
%TO.N,Net-(IC1-PDN)*%
X127703552Y-68187500D02*
X127525000Y-68187500D01*
X136510200Y-65314800D02*
X130576252Y-65314800D01*
X130576252Y-65314800D02*
X127703552Y-68187500D01*
X136615000Y-65210000D02*
X136510200Y-65314800D01*
X136615000Y-64605000D02*
X138620000Y-62600000D01*
X136615000Y-65210000D02*
X136615000Y-64605000D01*
%TO.N,GND*%
X139790000Y-68680000D02*
X139950000Y-68840000D01*
X139790000Y-67595000D02*
X139790000Y-68680000D01*
X166140000Y-78210000D02*
X166150000Y-78200000D01*
X165015000Y-78210000D02*
X166140000Y-78210000D01*
%TO.N,+3V3*%
X165015000Y-76660000D02*
X165015000Y-75582202D01*
X165015000Y-75582202D02*
X164980000Y-75547202D01*
%TO.N,GND*%
X151855000Y-62780000D02*
X153010000Y-62780000D01*
%TO.N,+5V*%
X150305000Y-62780000D02*
X148142500Y-62780000D01*
X148142500Y-62780000D02*
X148140000Y-62782500D01*
%TO.N,+3V3*%
X164980000Y-75547202D02*
X164980000Y-75490000D01*
X151690000Y-68632500D02*
X151690000Y-72950000D01*
X148140000Y-65082500D02*
X151690000Y-68632500D01*
%TO.N,+5V*%
X148140000Y-62820000D02*
X148140000Y-62782500D01*
X151870000Y-66550000D02*
X148140000Y-62820000D01*
X154010000Y-68690000D02*
X151870000Y-66550000D01*
X154735000Y-68690000D02*
X154010000Y-68690000D01*
%TO.N,GND*%
X148140000Y-69090000D02*
X148230000Y-69180000D01*
X148140000Y-67382500D02*
X148140000Y-69090000D01*
%TO.N,+3V3*%
X131032500Y-66082500D02*
X129015000Y-68100000D01*
X141840000Y-65082500D02*
X140840000Y-66082500D01*
X140840000Y-66082500D02*
X138270000Y-66082500D01*
X148140000Y-65082500D02*
X141840000Y-65082500D01*
%TO.N,Net-(IC1-SCLK)*%
X112705000Y-77235000D02*
X109610000Y-80330000D01*
X114520000Y-77235000D02*
X112705000Y-77235000D01*
%TO.N,+3V3*%
X114520000Y-75585000D02*
X114520000Y-73684342D01*
X114520000Y-73684342D02*
X113465000Y-72629342D01*
X116410658Y-75585000D02*
X116415658Y-75580000D01*
X114520000Y-75585000D02*
X116410658Y-75585000D01*
X113465000Y-72629342D02*
X113465000Y-66780000D01*
X117300000Y-75580000D02*
X116415658Y-75580000D01*
%TO.N,Net-(IC1-SDIO)*%
X116590000Y-77230000D02*
X116170000Y-77650000D01*
X117300000Y-77230000D02*
X116590000Y-77230000D01*
%TO.N,+3V3*%
X121352500Y-69687500D02*
X120760000Y-70280000D01*
X122625000Y-69687500D02*
X121352500Y-69687500D01*
%TO.N,/XTAL1*%
X122032500Y-70187500D02*
X122625000Y-70187500D01*
X117574474Y-71124474D02*
X119114474Y-71124474D01*
X119114474Y-71124474D02*
X119213748Y-71025200D01*
X121194800Y-71025200D02*
X122032500Y-70187500D01*
X116610000Y-70160000D02*
X117574474Y-71124474D01*
X119213748Y-71025200D02*
X121194800Y-71025200D01*
%TO.N,/XTAL2*%
X122116548Y-70687500D02*
X122625000Y-70687500D01*
X121474048Y-71330000D02*
X122116548Y-70687500D01*
X119340000Y-71330000D02*
X121474048Y-71330000D01*
X118310000Y-72360000D02*
X119340000Y-71330000D01*
%TO.N,Net-(IC1-SDIO)*%
X122092800Y-69187500D02*
X122625000Y-69187500D01*
X121950300Y-69330000D02*
X122092800Y-69187500D01*
X121796252Y-69334800D02*
X121801052Y-69330000D01*
X119909878Y-69673230D02*
X120248308Y-69334800D01*
X120248308Y-69334800D02*
X121796252Y-69334800D01*
X121801052Y-69330000D02*
X121950300Y-69330000D01*
%TO.N,Net-(IC1-SCLK)*%
X122012500Y-68687500D02*
X122625000Y-68687500D01*
X121670000Y-69030000D02*
X122012500Y-68687500D01*
X119470000Y-69030000D02*
X121670000Y-69030000D01*
X119260000Y-69240000D02*
X119470000Y-69030000D01*
%TO.N,Net-(IC1-SENB)*%
X120310000Y-75500522D02*
X120310000Y-74002500D01*
X111060000Y-84750522D02*
X120310000Y-75500522D01*
X120310000Y-74002500D02*
X122625000Y-71687500D01*
X111060000Y-86080000D02*
X111060000Y-84750522D01*
X109400000Y-87740000D02*
X111060000Y-86080000D01*
%TO.N,Net-(IC1-SDIO)*%
X116170000Y-78430000D02*
X116170000Y-77650000D01*
X109400000Y-85200000D02*
X116170000Y-78430000D01*
%TO.N,Net-(IC1-SCLK)*%
X109400000Y-80540000D02*
X109610000Y-80330000D01*
X109400000Y-82660000D02*
X109400000Y-80540000D01*
%TO.N,+3V3*%
X119540000Y-66780000D02*
X120970000Y-68210000D01*
X113465000Y-66780000D02*
X119540000Y-66780000D01*
X109985000Y-63300000D02*
X113465000Y-66780000D01*
%TO.N,GND*%
X109985000Y-67015000D02*
X109880000Y-66910000D01*
X109985000Y-67800000D02*
X109985000Y-67015000D01*
%TO.N,Net-(JP1-A)*%
X108900000Y-64800000D02*
X109985000Y-64800000D01*
X108280000Y-73960000D02*
X108280000Y-65420000D01*
X108280000Y-65420000D02*
X108900000Y-64800000D01*
X110640000Y-76320000D02*
X108280000Y-73960000D01*
%TO.N,Net-(IC1-MODE)*%
X111940000Y-73080000D02*
X111970000Y-73050000D01*
X111940000Y-76320000D02*
X111940000Y-73080000D01*
X119510000Y-74970000D02*
X118160000Y-76320000D01*
X119510000Y-73725100D02*
X119510000Y-74970000D01*
X122047600Y-71187500D02*
X119510000Y-73725100D01*
X118160000Y-76320000D02*
X111940000Y-76320000D01*
X122625000Y-71187500D02*
X122047600Y-71187500D01*
%TO.N,GND*%
X115770000Y-74180000D02*
X115740000Y-74150000D01*
X116945000Y-74180000D02*
X115770000Y-74180000D01*
%TO.N,/XTAL2*%
X118495000Y-72545000D02*
X118310000Y-72360000D01*
X118495000Y-74180000D02*
X118495000Y-72545000D01*
%TO.N,GND*%
X116600000Y-72370000D02*
X116610000Y-72360000D01*
X115350000Y-72370000D02*
X116600000Y-72370000D01*
X115070000Y-69410000D02*
X115050000Y-69430000D01*
X115070000Y-68320000D02*
X115070000Y-69410000D01*
%TO.N,/XTAL1*%
X116620000Y-70070000D02*
X116620000Y-68320000D01*
X116610000Y-70080000D02*
X116620000Y-70070000D01*
X116610000Y-70160000D02*
X116610000Y-70080000D01*
%TO.N,GND*%
X118310000Y-68310000D02*
X118200000Y-68200000D01*
X118310000Y-70160000D02*
X118310000Y-68310000D01*
%TO.N,Net-(IC1-GPIO7)*%
X132550000Y-65010000D02*
X134970000Y-62590000D01*
X130450000Y-65010000D02*
X132550000Y-65010000D01*
X127972500Y-67487500D02*
X130450000Y-65010000D01*
X126825000Y-67487500D02*
X127972500Y-67487500D01*
%TO.N,Net-(IC1-GPIO6)*%
X128815100Y-64420000D02*
X130600000Y-64420000D01*
X130600000Y-64420000D02*
X132430000Y-62590000D01*
X126325000Y-66910100D02*
X128815100Y-64420000D01*
X126325000Y-67487500D02*
X126325000Y-66910100D01*
%TO.N,Net-(IC1-GPIO5)*%
X125825000Y-66655000D02*
X129890000Y-62590000D01*
X125825000Y-67487500D02*
X125825000Y-66655000D01*
%TO.N,Net-(IC1-GPIO4)*%
X125325000Y-64615000D02*
X127350000Y-62590000D01*
X125325000Y-67487500D02*
X125325000Y-64615000D01*
%TO.N,Net-(IC1-GPIO3)*%
X124810000Y-64900000D02*
X124810000Y-62590000D01*
X124825000Y-64915000D02*
X124810000Y-64900000D01*
X124825000Y-67487500D02*
X124825000Y-64915000D01*
%TO.N,Net-(IC1-GPIO2)*%
X124325000Y-64645000D02*
X122270000Y-62590000D01*
X124325000Y-67487500D02*
X124325000Y-64645000D01*
%TO.N,Net-(IC1-GPIO1)*%
X123825000Y-66685000D02*
X119730000Y-62590000D01*
X123825000Y-67487500D02*
X123825000Y-66685000D01*
%TO.N,Net-(IC1-GPIO0)*%
X122087500Y-67487500D02*
X117190000Y-62590000D01*
X123325000Y-67487500D02*
X122087500Y-67487500D01*
%TO.N,GND*%
X132740000Y-75000000D02*
X132780000Y-75040000D01*
X131635000Y-75000000D02*
X132740000Y-75000000D01*
X131710000Y-73480000D02*
X131740000Y-73450000D01*
X130625000Y-73480000D02*
X131710000Y-73480000D01*
X131720000Y-71940000D02*
X131730000Y-71930000D01*
X130615000Y-71940000D02*
X131720000Y-71940000D01*
X130575000Y-69690000D02*
X131780000Y-69690000D01*
X131770000Y-68100000D02*
X131780000Y-68090000D01*
X130565000Y-68100000D02*
X131770000Y-68100000D01*
X118210000Y-68210000D02*
X118200000Y-68200000D01*
X119420000Y-68210000D02*
X118210000Y-68210000D01*
%TO.N,+3V3*%
X120992500Y-68187500D02*
X120970000Y-68210000D01*
X122625000Y-68187500D02*
X120992500Y-68187500D01*
X129015000Y-69405000D02*
X129015000Y-68100000D01*
X129025000Y-69415000D02*
X129015000Y-69405000D01*
X129025000Y-69690000D02*
X129025000Y-69415000D01*
X128427500Y-68687500D02*
X129015000Y-68100000D01*
X127525000Y-68687500D02*
X128427500Y-68687500D01*
X127527500Y-69690000D02*
X127525000Y-69687500D01*
X129025000Y-69690000D02*
X127527500Y-69690000D01*
X129075000Y-71950000D02*
X129065000Y-71940000D01*
X129075000Y-73480000D02*
X129075000Y-71950000D01*
X128617500Y-72387500D02*
X126825000Y-72387500D01*
X129065000Y-71940000D02*
X128617500Y-72387500D01*
%TO.N,Net-(IC1-CC)*%
X124825000Y-73738808D02*
X124825000Y-72387500D01*
X125693326Y-75240000D02*
X125276400Y-74823074D01*
X125276400Y-74823074D02*
X125276400Y-74190208D01*
X126720000Y-75240000D02*
X125693326Y-75240000D01*
X125276400Y-74190208D02*
X124825000Y-73738808D01*
%TO.N,GND*%
X119420000Y-83640000D02*
X121080000Y-83640000D01*
%TO.N,Net-(J4-Pin_1)*%
X121710000Y-76270000D02*
X114340000Y-83640000D01*
X121710000Y-75935000D02*
X121710000Y-76270000D01*
%TO.N,Net-(IC1-AFOUT)*%
X123325000Y-72770000D02*
X121710000Y-74385000D01*
X123325000Y-72387500D02*
X123325000Y-72770000D01*
%TO.N,GND*%
X125075000Y-69945000D02*
X125080000Y-69950000D01*
X125075000Y-69937500D02*
X125075000Y-69945000D01*
%TO.N,Net-(J6-Pin_1)*%
X124370000Y-76090000D02*
X124330000Y-76050000D01*
X125980000Y-76090000D02*
X124370000Y-76090000D01*
%TO.N,+3V3*%
X125325000Y-73785000D02*
X125325000Y-72387500D01*
X125980000Y-74440000D02*
X125325000Y-73785000D01*
%TO.N,Net-(J6-Pin_1)*%
X124850000Y-79350000D02*
X124360000Y-78860000D01*
X131440000Y-79350000D02*
X124850000Y-79350000D01*
X131790000Y-79700000D02*
X131440000Y-79350000D01*
%TO.N,GND*%
X134330000Y-79700000D02*
X135850000Y-79700000D01*
%TO.N,Net-(J6-Pin_1)*%
X124330000Y-76050000D02*
X124330000Y-78830000D01*
X124330000Y-78830000D02*
X124360000Y-78860000D01*
%TO.N,Net-(IC1-MIC_IN)*%
X124330000Y-74500000D02*
X124330000Y-72392500D01*
X124330000Y-72392500D02*
X124325000Y-72387500D01*
%TO.N,/RFIN*%
X160490000Y-77980000D02*
X162980000Y-75490000D01*
X131340100Y-77980000D02*
X160490000Y-77980000D01*
X126325000Y-72964900D02*
X131340100Y-77980000D01*
X126325000Y-72387500D02*
X126325000Y-72964900D01*
%TO.N,GND*%
X139515000Y-74475000D02*
X139660000Y-74330000D01*
X138350000Y-74475000D02*
X139515000Y-74475000D01*
%TO.N,Net-(C5-Pad2)*%
X138350000Y-71202500D02*
X138337500Y-71190000D01*
X138350000Y-72925000D02*
X138350000Y-71202500D01*
%TO.N,Net-(IC1-RFOUT)*%
X127527500Y-71190000D02*
X127525000Y-71187500D01*
X134625000Y-71190000D02*
X127527500Y-71190000D01*
%TO.N,Net-(C5-Pad2)*%
X138337500Y-71190000D02*
X136175000Y-71190000D01*
%TO.N,Net-(L1-Pad2)*%
X143560000Y-71190000D02*
X140462500Y-71190000D01*
%TO.N,GND*%
X151925000Y-75735000D02*
X151980000Y-75680000D01*
X150790000Y-75735000D02*
X151925000Y-75735000D01*
X141990000Y-72690000D02*
X141930000Y-72630000D01*
X143647500Y-72690000D02*
X141990000Y-72690000D01*
X148160000Y-72690000D02*
X148220000Y-72630000D01*
X143647500Y-72690000D02*
X148160000Y-72690000D01*
%TO.N,Net-(C8-Pad2)*%
X143560000Y-74190000D02*
X154727500Y-74190000D01*
%TO.N,+5V*%
X154740000Y-70210000D02*
X154730000Y-70200000D01*
X156530000Y-70210000D02*
X154740000Y-70210000D01*
%TO.N,GND*%
X157500000Y-71760000D02*
X157680000Y-71580000D01*
X156530000Y-71760000D02*
X157500000Y-71760000D01*
X160220000Y-70800000D02*
X160230000Y-70790000D01*
X159060000Y-70800000D02*
X160220000Y-70800000D01*
X157340000Y-68690000D02*
X157350000Y-68700000D01*
X156285000Y-68690000D02*
X157340000Y-68690000D01*
X153715000Y-71745000D02*
X154140000Y-71320000D01*
X153060000Y-71745000D02*
X153715000Y-71745000D01*
%TO.N,+5V*%
X153065000Y-70200000D02*
X153060000Y-70195000D01*
X154730000Y-70200000D02*
X153065000Y-70200000D01*
X154730000Y-68695000D02*
X154735000Y-68690000D01*
X154730000Y-70200000D02*
X154730000Y-68695000D01*
%TO.N,Net-(C8-Pad2)*%
X154727500Y-72327500D02*
X154730000Y-72325000D01*
X154727500Y-74190000D02*
X154727500Y-72327500D01*
%TO.N,Net-(C12-Pad2)*%
X159055000Y-72355000D02*
X159060000Y-72350000D01*
X159055000Y-74190000D02*
X159055000Y-72355000D01*
X159055000Y-74190000D02*
X156852500Y-74190000D01*
%TO.N,Net-(IC2-RF2)*%
X162980000Y-74190000D02*
X160605000Y-74190000D01*
%TO.N,GND*%
X163970000Y-74840000D02*
X163980000Y-74830000D01*
X162980000Y-74840000D02*
X163970000Y-74840000D01*
%TO.N,Net-(IC2-VCTL)*%
X164980000Y-71180000D02*
X164640000Y-70840000D01*
X164980000Y-74190000D02*
X164980000Y-71180000D01*
%TO.N,GND*%
X168310000Y-70540000D02*
X168300000Y-70530000D01*
X168310000Y-72290000D02*
X168310000Y-70540000D01*
X173410000Y-72290000D02*
X173410000Y-70710000D01*
X173410000Y-78960000D02*
X173420000Y-78970000D01*
X173410000Y-77390000D02*
X173410000Y-78960000D01*
X168310000Y-79040000D02*
X168320000Y-79050000D01*
X168310000Y-77390000D02*
X168310000Y-79040000D01*
X173410000Y-77390000D02*
X168310000Y-77390000D01*
X173410000Y-72290000D02*
X173410000Y-77390000D01*
X168310000Y-72290000D02*
X173410000Y-72290000D01*
%TO.N,Net-(IC2-RFC)*%
X170860000Y-74840000D02*
X164980000Y-74840000D01*
%TD*%
M02*
