M48
; DRILL file KiCad 10.0.1 date 2026-06-05T13:28:45
; FORMAT={-:-/ absolute / inch / decimal}
; #@! TF.CreationDate,2026-06-05T13:28:45+02:00
; #@! TF.GenerationSoftware,Kicad,Pcbnew,10.0.1
; #@! TF.FileFunction,Plated,1,2,PTH
FMAT,2
INCH
; #@! TA.AperFunction,Plated,PTH,ViaDrill
T1C0.0059
; #@! TA.AperFunction,Plated,PTH,ViaDrill
T2C0.0059
; #@! TA.AperFunction,Plated,PTH,ViaDrill
T3C0.0163
; #@! TA.AperFunction,Plated,PTH,ComponentDrill
T4C0.0236
; #@! TA.AperFunction,Plated,PTH,ComponentDrill
T5C0.0472
%
G90
G05
T1
X5.0831Y-1.5362
X5.0831Y-1.7984
X5.0984Y-1.7303
X5.2083Y-1.8776
X5.2331Y-1.5362
X5.3323Y-1.7283
X5.365Y-1.8665
X5.6344Y-1.6564
X5.687Y-1.3614
X5.7453Y-1.1492
X5.8429Y-1.3303
X5.9358Y-1.3457
X5.9374Y-1.3256
X6.0069Y-1.4567
X6.0732Y-1.5044
X6.0984Y-1.8445
X6.1407Y-1.9262
X6.1693Y-1.8396
X6.2608Y-1.5846
X6.2948Y-1.942
X6.2982Y-1.7215
X6.3218Y-1.6955
X6.3398Y-1.2805
X6.3584Y-1.8157
X6.3642Y-1.4705
X6.3868Y-1.9872
X6.3986Y-1.7087
X6.5433Y-1.9439
X6.6289Y-1.6592
X7.001Y-2.0522
X7.0748Y-1.3825
T2
X4.9391Y-1.1527
X4.9391Y-1.3567
X4.9391Y-1.5607
X4.9391Y-1.7647
X5.0627Y-2.2421
X5.1626Y-1.3563
X5.1846Y-1.0691
X5.207Y-2.0978
X5.2682Y-1.7469
X5.3417Y-1.1826
X5.3512Y-1.9536
X5.4814Y-2.2155
X5.4955Y-1.8093
X5.6055Y-1.5283
X5.6105Y-1.008
X5.705Y-2.2135
X5.7974Y-1.495
X5.8145Y-1.008
X5.8217Y-1.8574
X5.8723Y-2.129
X5.8801Y-1.057
X5.9266Y-2.3424
X5.9361Y-1.6537
X5.9994Y-1.1249
X6.0434Y-2.0345
X6.0678Y-1.8101
X6.1306Y-2.3424
X6.197Y-2.1604
X6.2225Y-1.008
X6.2367Y-1.3933
X6.2461Y-1.7107
X6.2503Y-1.8156
X6.2582Y-1.6487
X6.2675Y-1.9808
X6.2707Y-1.6673
X6.2762Y-1.6544
X6.2769Y-1.7672
X6.2881Y-1.8419
X6.3022Y-1.5981
X6.324Y-1.9469
X6.3346Y-2.3424
X6.3395Y-1.3746
X6.3471Y-1.5795
X6.349Y-1.7881
X6.3534Y-1.8893
X6.3597Y-1.978
X6.3607Y-1.6368
X6.3643Y-1.6675
X6.3712Y-1.7863
X6.3723Y-1.7278
X6.3879Y-1.7706
X6.3901Y-1.5777
X6.396Y-1.6508
X6.4055Y-1.7854
X6.4219Y-1.7225
X6.4265Y-1.008
X6.4498Y-1.9045
X6.4596Y-1.8702
X6.4597Y-2.0883
X6.4735Y-1.6752
X6.4768Y-1.3367
X6.4873Y-1.7404
X6.4875Y-1.8792
X6.4955Y-1.6115
X6.5309Y-1.8463
X6.5386Y-2.3424
X6.5416Y-1.443
X6.5443Y-1.6682
X6.6249Y-1.4496
X6.6305Y-1.008
X6.6625Y-1.2908
X6.6667Y-1.566
X6.6718Y-1.6276
X6.7077Y-1.7884
X6.7426Y-2.3424
X6.8345Y-1.008
X6.8526Y-1.8746
X6.8534Y-2.1681
X6.8665Y-1.2908
X6.936Y-1.51
X6.9466Y-2.3424
X7.0118Y-1.6839
X7.0287Y-2.0278
X7.0385Y-1.008
X7.1506Y-2.3424
X7.1994Y-1.5862
X7.2029Y-1.2863
X7.2381Y-2.1459
X7.2425Y-1.008
X7.3546Y-2.3424
X7.4022Y-1.5568
X7.4387Y-2.154
X7.4465Y-1.008
X7.464Y-1.8238
X7.5586Y-2.3424
X7.5999Y-1.2806
X7.6258Y-1.9965
X7.6888Y-1.0918
X7.8562Y-1.008
X7.8562Y-1.212
X7.8562Y-1.416
X7.8562Y-1.62
X7.8562Y-1.824
X7.8562Y-2.028
X7.8562Y-2.232
T3
X5.8819Y-1.815
X6.2906Y-1.8131
X6.3408Y-1.6687
X6.3525Y-1.8575
T5
X5.1535Y-1.1077
X5.1535Y-1.3077
X7.6417Y-1.1067
X7.6417Y-1.3067
X7.6417Y-2.0437
X7.6417Y-2.2437
T4
G00X4.9768Y-1.9803
M15
G01X4.9531Y-1.9803
M16
G05
G00X4.9768Y-2.3205
M15
G01X4.9531Y-2.3205
M16
G05
G00X5.1512Y-1.9803
M15
G01X5.1079Y-1.9803
M16
G05
G00X5.1512Y-2.3205
M15
G01X5.1079Y-2.3205
M16
G05
M30
