%TF.GenerationSoftware,KiCad,Pcbnew,10.0.1*%
%TF.CreationDate,2026-06-05T13:28:45+02:00*%
%TF.ProjectId,BQ25798,42513235-3739-4382-9e6b-696361645f70,rev?*%
%TF.SameCoordinates,Original*%
%TF.FileFunction,Copper,L2,Bot*%
%TF.FilePolarity,Positive*%
%FSLAX46Y46*%
G04 Gerber Fmt 4.6, Leading zero omitted, Abs format (unit mm)*
G04 Created by KiCad (PCBNEW 10.0.1) date 2026-06-05 13:28:45*
%MOMM*%
%LPD*%
G01*
G04 APERTURE LIST*
%TA.AperFunction,ComponentPad*%
%ADD10C,1.800000*%
%TD*%
%TA.AperFunction,ComponentPad*%
%ADD11O,2.100000X1.000000*%
%TD*%
%TA.AperFunction,ComponentPad*%
%ADD12O,1.600000X1.000000*%
%TD*%
%TA.AperFunction,ViaPad*%
%ADD13C,0.250250*%
%TD*%
%TA.AperFunction,ViaPad*%
%ADD14C,0.250000*%
%TD*%
%TA.AperFunction,ViaPad*%
%ADD15C,0.513080*%
%TD*%
%TA.AperFunction,Conductor*%
%ADD16C,0.101702*%
%TD*%
%TA.AperFunction,Conductor*%
%ADD17C,0.101600*%
%TD*%
%TA.AperFunction,Conductor*%
%ADD18C,0.350000*%
%TD*%
%TA.AperFunction,Conductor*%
%ADD19C,0.513080*%
%TD*%
%TA.AperFunction,Conductor*%
%ADD20C,0.250000*%
%TD*%
%TA.AperFunction,Conductor*%
%ADD21C,0.482800*%
%TD*%
G04 APERTURE END LIST*
D10*
%TO.P,J5,1,Pin_1_1*%
%TO.N,Net-(J5-Pin_1)*%
X194100000Y-56990000D03*
%TO.P,J5,2,Pin_2_2*%
%TO.N,GND*%
X194100000Y-51910000D03*
%TD*%
%TO.P,J2,1,Pin_1_1*%
%TO.N,/VIN*%
X130900000Y-28135000D03*
%TO.P,J2,2,Pin_2_2*%
%TO.N,GND*%
X130900000Y-33215000D03*
%TD*%
D11*
%TO.P,J6,SH*%
%TO.N,N/C*%
X130290000Y-50300000D03*
D12*
X126110000Y-50300000D03*
D11*
X130290000Y-58940000D03*
D12*
X126110000Y-58940000D03*
%TD*%
D10*
%TO.P,J3,1,Pin_1_1*%
%TO.N,Net-(J3-Pin_1)*%
X194100000Y-33190000D03*
%TO.P,J3,2,Pin_2_2*%
%TO.N,GND*%
X194100000Y-28110000D03*
%TD*%
D13*
%TO.N,Net-(U1-SW1)*%
X161561912Y-41574485D03*
X161215140Y-40119449D03*
X161022791Y-34915433D03*
X161375379Y-47989150D03*
%TO.N,Net-(U1-SW2)*%
X162457258Y-41930182D03*
X162307598Y-40074451D03*
X163824560Y-48374245D03*
X166156743Y-36651658D03*
D14*
%TO.N,Net-(U1-TS)*%
X168375000Y-42143657D03*
D13*
X164777177Y-44205903D03*
%TO.N,/REGN*%
X160628872Y-49450198D03*
D14*
X155975000Y-48925000D03*
X154900000Y-46850000D03*
X159887500Y-49327000D03*
X156700000Y-46725000D03*
D13*
X170375000Y-45425000D03*
D14*
X162225000Y-50475000D03*
D13*
%TO.N,GND*%
X131129930Y-34450737D03*
X169333737Y-39775770D03*
X153503249Y-51676613D03*
X199546697Y-51511329D03*
X182865200Y-40289587D03*
X154122011Y-45977342D03*
X163232032Y-25603303D03*
X149355643Y-26848420D03*
X189140058Y-25603303D03*
X174056836Y-47615134D03*
X169226450Y-32785438D03*
X132257128Y-53285370D03*
X195296032Y-27732147D03*
X125453303Y-34459019D03*
X199546697Y-35966513D03*
X183847817Y-54506534D03*
X183958453Y-25603303D03*
X174076516Y-55070887D03*
X128593180Y-56949319D03*
X142380529Y-38818422D03*
X188944173Y-54712342D03*
X135921076Y-49621422D03*
X158958333Y-41878118D03*
X169463708Y-41340332D03*
X168413638Y-25603303D03*
X176442435Y-59496697D03*
X125453303Y-29277414D03*
X158412782Y-35389313D03*
D14*
X162525000Y-43400000D03*
D13*
X152385905Y-28571539D03*
X199546697Y-56692934D03*
X135680049Y-30036880D03*
X188015338Y-39541608D03*
X164075151Y-53043306D03*
X147871038Y-47177254D03*
X150534409Y-59496697D03*
X182952411Y-32671604D03*
X158757266Y-46116056D03*
X186805645Y-59496697D03*
X199546697Y-46329723D03*
X139228218Y-56274012D03*
X147687217Y-25603303D03*
D14*
X132290000Y-47690000D03*
D13*
X139585024Y-45957474D03*
X144907987Y-56222915D03*
X178528908Y-51505438D03*
X178776848Y-25603303D03*
X131687678Y-27155156D03*
X125453303Y-39640625D03*
X173595243Y-25603303D03*
X159193365Y-50313568D03*
X166225024Y-42372182D03*
X164510489Y-33953339D03*
X191987250Y-59496697D03*
D14*
X159025000Y-40250000D03*
D13*
X147254559Y-37972756D03*
X199546697Y-41148118D03*
X160897620Y-59496697D03*
X150777285Y-42003902D03*
D14*
X136270000Y-47410000D03*
D13*
X189586715Y-46323833D03*
X125453303Y-44822230D03*
X159432460Y-44886579D03*
X155716014Y-59496697D03*
X133812845Y-44370972D03*
X157403934Y-54875208D03*
X193695438Y-50711131D03*
X199546697Y-25603303D03*
X193036525Y-32526052D03*
X142505612Y-25603303D03*
X164783243Y-47732547D03*
X159718633Y-46783831D03*
X165885142Y-46897167D03*
X199546697Y-30784908D03*
X176175097Y-38355100D03*
X149155380Y-54075845D03*
X178099506Y-42770604D03*
X174408055Y-32785438D03*
X181624040Y-59496697D03*
X166079225Y-59496697D03*
X158050427Y-25603303D03*
X171260830Y-59496697D03*
D14*
%TO.N,Net-(Q3-G)*%
X179698700Y-35115467D03*
D13*
X164986368Y-40931237D03*
D15*
%TO.N,/VIN*%
X149400000Y-46100000D03*
X161353022Y-47180435D03*
D14*
X161503961Y-46118500D03*
D13*
%TO.N,Net-(U1-ILIM_HIZ)*%
X163117187Y-43752624D03*
X164072749Y-47503116D03*
D14*
%TO.N,+3V3*%
X145930000Y-29190000D03*
X150770000Y-34180000D03*
X144450000Y-34580000D03*
D13*
%TO.N,Net-(D1-K)*%
X160076000Y-40592500D03*
%TO.N,Net-(D1-A)*%
X161535700Y-50241250D03*
D14*
X166200000Y-49375000D03*
%TO.N,Net-(J3-Pin_1)*%
X161650000Y-37350000D03*
%TO.N,Net-(D2-K)*%
X152575000Y-37000000D03*
X143113700Y-42072133D03*
%TO.N,Net-(Q2-D)*%
X159975000Y-43725000D03*
D15*
X159781200Y-46052133D03*
X161056439Y-42383991D03*
D14*
%TO.N,Net-(U2-RST)*%
X148410000Y-33790000D03*
X150810000Y-33670000D03*
%TO.N,Net-(U1-ACDRV1)*%
X154260500Y-38210500D03*
X160573299Y-43066524D03*
D13*
%TO.N,Net-(U1-BTST2)*%
X164426984Y-42549592D03*
X168272271Y-36820910D03*
D14*
%TO.N,Net-(U1-~{CE})*%
X129110000Y-39020000D03*
D13*
X162251630Y-44973801D03*
%TO.N,Net-(U1-~{QON})*%
X161828838Y-45371383D03*
X161855973Y-43887081D03*
D14*
X135440000Y-43900000D03*
D13*
X161264288Y-45417088D03*
D14*
%TO.N,Net-(U1-~{INT})*%
X129500000Y-43950000D03*
D13*
X161653522Y-42353296D03*
X159275000Y-42350000D03*
X158650567Y-43451987D03*
%TO.N,Net-(U1-SDA)*%
X162699960Y-45348201D03*
D14*
X129110000Y-45680000D03*
%TO.N,Net-(U1-BTST1)*%
X161030000Y-32525000D03*
D13*
X159414955Y-42022961D03*
D14*
%TO.N,Net-(U2-P1.6)*%
X132920000Y-39020000D03*
X177825000Y-52125000D03*
%TD*%
%TO.N,Net-(U1-SW1)*%
D16*
X161781412Y-45805218D02*
X161781412Y-47583117D01*
X161950212Y-41962784D02*
X161950212Y-43609505D01*
X161578397Y-43772105D02*
X161578397Y-44002057D01*
X161781412Y-47583117D02*
X161375379Y-47989150D01*
X161950212Y-43609505D02*
X161740997Y-43609505D01*
X161713862Y-45648959D02*
X161937671Y-45648959D01*
X161561912Y-41574485D02*
X161950212Y-41962784D01*
X161551262Y-45486359D02*
X161713862Y-45648959D01*
X161578397Y-44002057D02*
X161625536Y-44049196D01*
X161740997Y-43609505D02*
X161578397Y-43772105D01*
X161625536Y-45182133D02*
X161551262Y-45256407D01*
X161022791Y-39927100D02*
X161022791Y-34915433D01*
X161551262Y-45256407D02*
X161551262Y-45486359D01*
X161215140Y-40119449D02*
X161022791Y-39927100D01*
X161937671Y-45648959D02*
X161781412Y-45805218D01*
X161625536Y-44049196D02*
X161625536Y-45182133D01*
%TO.N,Net-(U1-SW2)*%
X164378681Y-45230685D02*
X164378681Y-47820124D01*
X162307598Y-40074451D02*
X165730391Y-36651658D01*
X165730391Y-36651658D02*
X166156743Y-36651658D01*
X162457258Y-41930182D02*
X163477936Y-42950859D01*
X164378681Y-47820124D02*
X163824560Y-48374245D01*
X163477936Y-42950859D02*
X163477936Y-44329940D01*
X163477936Y-44329940D02*
X164378681Y-45230685D01*
%TO.N,Net-(U1-TS)*%
X164777177Y-44205903D02*
X166206336Y-42776744D01*
X166206336Y-42776744D02*
X167741913Y-42776744D01*
X167741913Y-42776744D02*
X168375000Y-42143657D01*
%TO.N,/REGN*%
D17*
X162225000Y-50475000D02*
X162181225Y-50518775D01*
X156575000Y-46850000D02*
X156700000Y-46725000D01*
X154900000Y-46850000D02*
X156575000Y-46850000D01*
D16*
X168952448Y-46847552D02*
X167949217Y-46847552D01*
D17*
X160628872Y-49728872D02*
X160628872Y-49450198D01*
X159887500Y-49327000D02*
X156377000Y-49327000D01*
X156377000Y-49327000D02*
X155975000Y-48925000D01*
X161418775Y-50518775D02*
X160628872Y-49728872D01*
X162181225Y-50518775D02*
X161418775Y-50518775D01*
D16*
X170375000Y-45425000D02*
X168952448Y-46847552D01*
X165346571Y-49450198D02*
X160628872Y-49450198D01*
X167949217Y-46847552D02*
X165346571Y-49450198D01*
%TO.N,Net-(Q3-G)*%
D18*
X164986368Y-40931237D02*
X165797187Y-41742057D01*
X165797187Y-41742057D02*
X172216003Y-41742057D01*
X178842593Y-35115467D02*
X179698700Y-35115467D01*
X172216003Y-41742057D02*
X178842593Y-35115467D01*
%TO.N,/VIN*%
D19*
X161033275Y-47500182D02*
X161353022Y-47180435D01*
X151896936Y-46100000D02*
X153297118Y-47500182D01*
X153297118Y-47500182D02*
X161033275Y-47500182D01*
X149400000Y-46100000D02*
X151896936Y-46100000D01*
%TO.N,Net-(U1-ILIM_HIZ)*%
D16*
X163274634Y-43910071D02*
X163274635Y-44414151D01*
X163117187Y-43752624D02*
X163274634Y-43910071D01*
X164072749Y-45212265D02*
X164072749Y-47503116D01*
X163274635Y-44414151D02*
X164072749Y-45212265D01*
%TO.N,+3V3*%
D19*
X144450000Y-34580000D02*
X144450000Y-34559825D01*
X148160000Y-34190000D02*
X150230000Y-34190000D01*
X147016561Y-33079825D02*
X148143368Y-34206632D01*
X145930000Y-33079825D02*
X147016561Y-33079825D01*
D17*
X148160000Y-34190000D02*
X148130000Y-34160000D01*
D19*
X145930000Y-33079825D02*
X145930000Y-29190000D01*
X150240000Y-34180000D02*
X150770000Y-34180000D01*
X144450000Y-34559825D02*
X145930000Y-33079825D01*
X150230000Y-34190000D02*
X150240000Y-34180000D01*
%TO.N,Net-(D1-K)*%
D16*
X161529939Y-40592500D02*
X160076000Y-40592500D01*
X163729253Y-42791813D02*
X161529939Y-40592500D01*
X163729253Y-43869468D02*
X163729253Y-42791813D01*
X165325472Y-45465688D02*
X163729253Y-43869468D01*
X165427406Y-48372967D02*
X165325472Y-48271033D01*
%TO.N,Net-(D1-A)*%
X164574617Y-49979068D02*
X161797881Y-49979068D01*
X164605685Y-49948000D02*
X165627000Y-49948000D01*
X164605685Y-49948000D02*
X164574617Y-49979068D01*
X161797881Y-49979068D02*
X161535700Y-50241250D01*
X165627000Y-49948000D02*
X166200000Y-49375000D01*
%TO.N,Net-(J3-Pin_1)*%
D20*
X194100000Y-33190000D02*
X165845965Y-33190000D01*
X161667888Y-37367888D02*
X161650000Y-37350000D01*
X161667888Y-37368077D02*
X161667888Y-37367888D01*
X165845965Y-33190000D02*
X161667888Y-37368077D01*
%TO.N,Net-(D2-K)*%
D21*
X150375000Y-37000000D02*
X145302867Y-42072133D01*
X145302867Y-42072133D02*
X143113700Y-42072133D01*
X152575000Y-37000000D02*
X150375000Y-37000000D01*
%TO.N,Net-(Q2-D)*%
D19*
X161170257Y-42497809D02*
X161170257Y-42553471D01*
X160635513Y-44780031D02*
X161056439Y-44359105D01*
X161056439Y-44359105D02*
X161056439Y-43700000D01*
X161170257Y-42553471D02*
X161400000Y-42783214D01*
X161400000Y-42783214D02*
X161400000Y-43356439D01*
X161056439Y-43700000D02*
X161001079Y-43755360D01*
X160635513Y-45197820D02*
X160635513Y-44780031D01*
X161001079Y-43755360D02*
X160005360Y-43755360D01*
X161400000Y-43356439D02*
X161056439Y-43700000D01*
X161056439Y-42383991D02*
X161170257Y-42497809D01*
X160005360Y-43755360D02*
X159975000Y-43725000D01*
X159781200Y-46052133D02*
X160635513Y-45197820D01*
%TO.N,Net-(U2-RST)*%
D17*
X148530000Y-33670000D02*
X148410000Y-33790000D01*
X150810000Y-33670000D02*
X148530000Y-33670000D01*
%TO.N,Net-(U1-ACDRV1)*%
D18*
X159116524Y-43066524D02*
X154260500Y-38210500D01*
X160573299Y-43066524D02*
X159116524Y-43066524D01*
%TO.N,Net-(U1-BTST2)*%
D16*
X164426984Y-40666197D02*
X168272271Y-36820910D01*
X164426984Y-42549592D02*
X164426984Y-40666197D01*
%TO.N,Net-(U1-~{CE})*%
X161590898Y-48524681D02*
X131562306Y-48524681D01*
X163007806Y-45225760D02*
X163007806Y-47107774D01*
X162755846Y-44973801D02*
X163007806Y-45225760D01*
X131562306Y-48524681D02*
X128832549Y-45794924D01*
X128832549Y-39297451D02*
X129110000Y-39020000D01*
X128832549Y-45794924D02*
X128832549Y-39297451D01*
X162251630Y-44973801D02*
X162755846Y-44973801D01*
X163007806Y-47107774D02*
X161590898Y-48524681D01*
%TO.N,Net-(U1-~{QON})*%
X161044504Y-46039902D02*
X160804923Y-46279483D01*
X161240341Y-45441035D02*
X161240341Y-45834659D01*
X161044504Y-46030496D02*
X161044504Y-46039902D01*
X160795517Y-46279483D02*
X159992628Y-47082372D01*
X156290536Y-45572780D02*
X137112780Y-45572780D01*
X161855973Y-43887081D02*
X161828838Y-43914216D01*
X161828838Y-43914216D02*
X161828838Y-45371383D01*
X161240341Y-45834659D02*
X161044504Y-46030496D01*
X137112780Y-45572780D02*
X135440000Y-43900000D01*
X157800128Y-47082372D02*
X156290536Y-45572780D01*
X160804923Y-46279483D02*
X160795517Y-46279483D01*
X161264288Y-45417088D02*
X161240341Y-45441035D01*
X159992628Y-47082372D02*
X157800128Y-47082372D01*
%TO.N,Net-(U1-~{INT})*%
X159275000Y-42350000D02*
X159324463Y-42300537D01*
X159692531Y-41975000D02*
X161275226Y-41975000D01*
X159529931Y-42300537D02*
X159692531Y-42137937D01*
X159324463Y-42300537D02*
X159529931Y-42300537D01*
X159692531Y-42137937D02*
X159692531Y-41975000D01*
X161275226Y-41975000D02*
X161653522Y-42353296D01*
X158650567Y-43451987D02*
X129998013Y-43451987D01*
X129998013Y-43451987D02*
X129500000Y-43950000D01*
%TO.N,Net-(U1-SDA)*%
X161450999Y-48314474D02*
X131744474Y-48314474D01*
X162699960Y-47065513D02*
X161450999Y-48314474D01*
X131744474Y-48314474D02*
X129110000Y-45680000D01*
X162699960Y-45348201D02*
X162699960Y-47065513D01*
%TO.N,Net-(U1-BTST1)*%
X159414955Y-42022961D02*
X159460660Y-41977256D01*
X159460660Y-41977256D02*
X159460660Y-34922902D01*
X161030000Y-33353562D02*
X161030000Y-32525000D01*
X159460660Y-34922902D02*
X161030000Y-33353562D01*
%TO.N,Net-(U2-P1.6)*%
D17*
X128629298Y-45879113D02*
X128629298Y-39108399D01*
X128995097Y-38742600D02*
X132642600Y-38742600D01*
X167800000Y-52650000D02*
X164588755Y-55861245D01*
X177300000Y-52650000D02*
X167800000Y-52650000D01*
X138611430Y-55861245D02*
X128629298Y-45879113D01*
X164588755Y-55861245D02*
X138611430Y-55861245D01*
X177825000Y-52125000D02*
X177300000Y-52650000D01*
X132642600Y-38742600D02*
X132920000Y-39020000D01*
X128629298Y-39108399D02*
X128995097Y-38742600D01*
%TD*%
%TA.AperFunction,Conductor*%
%TO.N,GND*%
G36*
X156230608Y-45729158D02*
G01*
X157623020Y-47121569D01*
X157626447Y-47129842D01*
X157623020Y-47138115D01*
X157614747Y-47141542D01*
X153450517Y-47141542D01*
X153442244Y-47138115D01*
X153116077Y-46811948D01*
X153108953Y-46804824D01*
X154672900Y-46804824D01*
X154672900Y-46895175D01*
X154696480Y-46952100D01*
X154707474Y-46978642D01*
X154771358Y-47042526D01*
X154823992Y-47064327D01*
X154854824Y-47077099D01*
X154854825Y-47077099D01*
X154854827Y-47077100D01*
X154854829Y-47077100D01*
X154945171Y-47077100D01*
X154945173Y-47077100D01*
X155028642Y-47042526D01*
X155064841Y-47006327D01*
X155073114Y-47002900D01*
X156605412Y-47002900D01*
X156605413Y-47002900D01*
X156605414Y-47002900D01*
X156622719Y-46995732D01*
X156661611Y-46979623D01*
X156685707Y-46955527D01*
X156693980Y-46952100D01*
X156745171Y-46952100D01*
X156745173Y-46952100D01*
X156828642Y-46917526D01*
X156892526Y-46853642D01*
X156927100Y-46770173D01*
X156927100Y-46679827D01*
X156917841Y-46657475D01*
X156892526Y-46596359D01*
X156892525Y-46596357D01*
X156828643Y-46532475D01*
X156828642Y-46532474D01*
X156828640Y-46532473D01*
X156745175Y-46497900D01*
X156745173Y-46497900D01*
X156654827Y-46497900D01*
X156654824Y-46497900D01*
X156571359Y-46532473D01*
X156507473Y-46596359D01*
X156472900Y-46679824D01*
X156472900Y-46685400D01*
X156469473Y-46693673D01*
X156461200Y-46697100D01*
X155073114Y-46697100D01*
X155064841Y-46693673D01*
X155028643Y-46657475D01*
X155028642Y-46657474D01*
X155028640Y-46657473D01*
X154945175Y-46622900D01*
X154945173Y-46622900D01*
X154854827Y-46622900D01*
X154854824Y-46622900D01*
X154771359Y-46657473D01*
X154707473Y-46721359D01*
X154672900Y-46804824D01*
X153108953Y-46804824D01*
X152766196Y-46462067D01*
X152117146Y-45813016D01*
X152117145Y-45813015D01*
X152117142Y-45813013D01*
X152035368Y-45765800D01*
X152035364Y-45765798D01*
X151971667Y-45748732D01*
X151964563Y-45743281D01*
X151963394Y-45734403D01*
X151968845Y-45727299D01*
X151974695Y-45725731D01*
X156222335Y-45725731D01*
X156230608Y-45729158D01*
G37*
%TD.AperFunction*%
%TA.AperFunction,Conductor*%
G36*
X199789692Y-25360309D02*
G01*
X199793119Y-25368582D01*
X199793119Y-59731418D01*
X199789692Y-59739691D01*
X199781419Y-59743118D01*
X125218582Y-59743118D01*
X125210309Y-59739691D01*
X125206882Y-59731418D01*
X125206882Y-59104338D01*
X125210309Y-59096065D01*
X125218582Y-59092638D01*
X125226855Y-59096065D01*
X125229883Y-59101310D01*
X125248931Y-59172399D01*
X125248933Y-59172402D01*
X125328200Y-59309698D01*
X125440302Y-59421800D01*
X125577598Y-59501067D01*
X125577600Y-59501067D01*
X125577601Y-59501068D01*
X125577599Y-59501068D01*
X125698370Y-59533428D01*
X125730729Y-59542099D01*
X125730730Y-59542100D01*
X125730732Y-59542100D01*
X126489270Y-59542100D01*
X126489270Y-59542099D01*
X126596908Y-59513257D01*
X126642399Y-59501068D01*
X126642399Y-59501067D01*
X126642402Y-59501067D01*
X126779698Y-59421800D01*
X126891800Y-59309698D01*
X126971067Y-59172402D01*
X127012099Y-59019270D01*
X127012100Y-59019270D01*
X127012100Y-58860729D01*
X129137900Y-58860729D01*
X129137900Y-59019270D01*
X129178931Y-59172399D01*
X129178933Y-59172402D01*
X129258200Y-59309698D01*
X129370302Y-59421800D01*
X129507598Y-59501067D01*
X129507600Y-59501067D01*
X129507601Y-59501068D01*
X129507599Y-59501068D01*
X129628370Y-59533428D01*
X129660729Y-59542099D01*
X129660730Y-59542100D01*
X129660732Y-59542100D01*
X130919270Y-59542100D01*
X130919270Y-59542099D01*
X131026908Y-59513257D01*
X131072399Y-59501068D01*
X131072399Y-59501067D01*
X131072402Y-59501067D01*
X131209698Y-59421800D01*
X131321800Y-59309698D01*
X131401067Y-59172402D01*
X131442099Y-59019270D01*
X131442100Y-59019270D01*
X131442100Y-58860729D01*
X131401068Y-58707600D01*
X131401067Y-58707598D01*
X131321800Y-58570302D01*
X131209698Y-58458200D01*
X131072402Y-58378933D01*
X131072401Y-58378932D01*
X131072398Y-58378931D01*
X131072400Y-58378931D01*
X130919271Y-58337900D01*
X130919268Y-58337900D01*
X129660732Y-58337900D01*
X129660729Y-58337900D01*
X129507600Y-58378931D01*
X129370300Y-58458201D01*
X129258201Y-58570300D01*
X129178931Y-58707600D01*
X129137900Y-58860729D01*
X127012100Y-58860729D01*
X126971068Y-58707600D01*
X126971067Y-58707598D01*
X126891800Y-58570302D01*
X126779698Y-58458200D01*
X126642402Y-58378933D01*
X126642401Y-58378932D01*
X126642398Y-58378931D01*
X126642400Y-58378931D01*
X126489271Y-58337900D01*
X126489268Y-58337900D01*
X125730732Y-58337900D01*
X125730729Y-58337900D01*
X125577600Y-58378931D01*
X125440300Y-58458201D01*
X125328201Y-58570300D01*
X125248931Y-58707600D01*
X125229883Y-58778689D01*
X125224432Y-58785794D01*
X125215554Y-58786962D01*
X125208449Y-58781511D01*
X125206882Y-58775661D01*
X125206882Y-57453768D01*
X129332900Y-57453768D01*
X129332900Y-57566231D01*
X129362005Y-57674851D01*
X129362007Y-57674854D01*
X129418235Y-57772245D01*
X129497755Y-57851765D01*
X129595146Y-57907993D01*
X129595148Y-57907993D01*
X129595149Y-57907994D01*
X129595147Y-57907994D01*
X129680816Y-57930949D01*
X129703768Y-57937099D01*
X129703769Y-57937100D01*
X129703771Y-57937100D01*
X129816231Y-57937100D01*
X129816231Y-57937099D01*
X129892583Y-57916640D01*
X129924851Y-57907994D01*
X129924851Y-57907993D01*
X129924854Y-57907993D01*
X130022245Y-57851765D01*
X130101765Y-57772245D01*
X130157993Y-57674854D01*
X130187099Y-57566231D01*
X130187100Y-57566231D01*
X130187100Y-57453768D01*
X130157994Y-57345148D01*
X130121710Y-57282302D01*
X130101765Y-57247755D01*
X130022245Y-57168235D01*
X129924854Y-57112007D01*
X129924853Y-57112006D01*
X129924850Y-57112005D01*
X129924852Y-57112005D01*
X129816232Y-57082900D01*
X129816229Y-57082900D01*
X129703771Y-57082900D01*
X129703768Y-57082900D01*
X129595148Y-57112005D01*
X129497753Y-57168236D01*
X129418236Y-57247753D01*
X129362005Y-57345148D01*
X129332900Y-57453768D01*
X125206882Y-57453768D01*
X125206882Y-56891302D01*
X193097900Y-56891302D01*
X193097900Y-57088698D01*
X193113721Y-57168235D01*
X193136410Y-57282302D01*
X193211949Y-57464670D01*
X193211953Y-57464678D01*
X193321617Y-57628801D01*
X193321620Y-57628805D01*
X193461194Y-57768379D01*
X193461198Y-57768382D01*
X193625321Y-57878046D01*
X193625325Y-57878048D01*
X193625328Y-57878050D01*
X193807698Y-57953590D01*
X194001302Y-57992100D01*
X194001303Y-57992100D01*
X194198697Y-57992100D01*
X194198698Y-57992100D01*
X194392302Y-57953590D01*
X194574672Y-57878050D01*
X194738802Y-57768382D01*
X194878382Y-57628802D01*
X194988050Y-57464672D01*
X195063590Y-57282302D01*
X195102100Y-57088698D01*
X195102100Y-56891302D01*
X195063590Y-56697698D01*
X194988050Y-56515328D01*
X194988048Y-56515325D01*
X194988046Y-56515321D01*
X194878382Y-56351198D01*
X194878379Y-56351194D01*
X194738805Y-56211620D01*
X194738801Y-56211617D01*
X194574678Y-56101953D01*
X194574670Y-56101949D01*
X194392302Y-56026410D01*
X194330636Y-56014144D01*
X194198698Y-55987900D01*
X194001302Y-55987900D01*
X193904500Y-56007155D01*
X193807697Y-56026410D01*
X193625329Y-56101949D01*
X193625321Y-56101953D01*
X193461198Y-56211617D01*
X193461194Y-56211620D01*
X193321620Y-56351194D01*
X193321617Y-56351198D01*
X193211953Y-56515321D01*
X193211949Y-56515329D01*
X193136410Y-56697697D01*
X193136410Y-56697698D01*
X193097900Y-56891302D01*
X125206882Y-56891302D01*
X125206882Y-51673768D01*
X129332900Y-51673768D01*
X129332900Y-51786231D01*
X129362005Y-51894851D01*
X129370751Y-51909999D01*
X129418235Y-51992245D01*
X129497755Y-52071765D01*
X129595146Y-52127993D01*
X129595148Y-52127993D01*
X129595149Y-52127994D01*
X129595147Y-52127994D01*
X129680816Y-52150949D01*
X129703768Y-52157099D01*
X129703769Y-52157100D01*
X129703771Y-52157100D01*
X129816231Y-52157100D01*
X129816231Y-52157099D01*
X129895473Y-52135866D01*
X129924851Y-52127994D01*
X129924851Y-52127993D01*
X129924854Y-52127993D01*
X130022245Y-52071765D01*
X130101765Y-51992245D01*
X130157993Y-51894854D01*
X130187099Y-51786231D01*
X130187100Y-51786231D01*
X130187100Y-51673768D01*
X130157994Y-51565148D01*
X130144394Y-51541592D01*
X130101765Y-51467755D01*
X130022245Y-51388235D01*
X129924854Y-51332007D01*
X129924853Y-51332006D01*
X129924850Y-51332005D01*
X129924852Y-51332005D01*
X129816232Y-51302900D01*
X129816229Y-51302900D01*
X129703771Y-51302900D01*
X129703768Y-51302900D01*
X129595148Y-51332005D01*
X129497753Y-51388236D01*
X129418236Y-51467753D01*
X129362005Y-51565148D01*
X129332900Y-51673768D01*
X125206882Y-51673768D01*
X125206882Y-50464338D01*
X125210309Y-50456065D01*
X125218582Y-50452638D01*
X125226855Y-50456065D01*
X125229883Y-50461310D01*
X125248931Y-50532399D01*
X125248933Y-50532402D01*
X125328200Y-50669698D01*
X125440302Y-50781800D01*
X125577598Y-50861067D01*
X125577600Y-50861067D01*
X125577601Y-50861068D01*
X125577599Y-50861068D01*
X125698370Y-50893428D01*
X125730729Y-50902099D01*
X125730730Y-50902100D01*
X125730732Y-50902100D01*
X126489270Y-50902100D01*
X126489270Y-50902099D01*
X126596908Y-50873257D01*
X126642399Y-50861068D01*
X126642399Y-50861067D01*
X126642402Y-50861067D01*
X126779698Y-50781800D01*
X126891800Y-50669698D01*
X126971067Y-50532402D01*
X127012099Y-50379270D01*
X127012100Y-50379270D01*
X127012100Y-50220729D01*
X129137900Y-50220729D01*
X129137900Y-50379270D01*
X129178931Y-50532399D01*
X129178933Y-50532402D01*
X129258200Y-50669698D01*
X129370302Y-50781800D01*
X129507598Y-50861067D01*
X129507600Y-50861067D01*
X129507601Y-50861068D01*
X129507599Y-50861068D01*
X129628370Y-50893428D01*
X129660729Y-50902099D01*
X129660730Y-50902100D01*
X129660732Y-50902100D01*
X130919270Y-50902100D01*
X130919270Y-50902099D01*
X131026908Y-50873257D01*
X131072399Y-50861068D01*
X131072399Y-50861067D01*
X131072402Y-50861067D01*
X131209698Y-50781800D01*
X131321800Y-50669698D01*
X131401067Y-50532402D01*
X131442099Y-50379270D01*
X131442100Y-50379270D01*
X131442100Y-50220729D01*
X131401068Y-50067600D01*
X131368158Y-50010598D01*
X131321800Y-49930302D01*
X131209698Y-49818200D01*
X131072402Y-49738933D01*
X131072401Y-49738932D01*
X131072398Y-49738931D01*
X131072400Y-49738931D01*
X130919271Y-49697900D01*
X130919268Y-49697900D01*
X129660732Y-49697900D01*
X129660729Y-49697900D01*
X129507600Y-49738931D01*
X129370300Y-49818201D01*
X129258201Y-49930300D01*
X129178931Y-50067600D01*
X129137900Y-50220729D01*
X127012100Y-50220729D01*
X126971068Y-50067600D01*
X126938158Y-50010598D01*
X126891800Y-49930302D01*
X126779698Y-49818200D01*
X126642402Y-49738933D01*
X126642401Y-49738932D01*
X126642398Y-49738931D01*
X126642400Y-49738931D01*
X126489271Y-49697900D01*
X126489268Y-49697900D01*
X125730732Y-49697900D01*
X125730729Y-49697900D01*
X125577600Y-49738931D01*
X125440300Y-49818201D01*
X125328201Y-49930300D01*
X125248931Y-50067600D01*
X125229883Y-50138689D01*
X125224432Y-50145794D01*
X125215554Y-50146962D01*
X125208449Y-50141511D01*
X125206882Y-50135661D01*
X125206882Y-39077982D01*
X128476398Y-39077982D01*
X128476398Y-45909528D01*
X128497950Y-45961559D01*
X128499675Y-45965724D01*
X138481808Y-55947856D01*
X138524819Y-55990867D01*
X138560254Y-56005545D01*
X138581013Y-56014144D01*
X138581014Y-56014144D01*
X138581016Y-56014145D01*
X138581018Y-56014145D01*
X164619167Y-56014145D01*
X164619168Y-56014145D01*
X164619169Y-56014145D01*
X164635628Y-56007327D01*
X164675366Y-55990868D01*
X167859906Y-52806326D01*
X167868179Y-52802900D01*
X177330412Y-52802900D01*
X177330413Y-52802900D01*
X177330414Y-52802900D01*
X177346873Y-52796082D01*
X177386611Y-52779623D01*
X177637799Y-52528435D01*
X177810706Y-52355527D01*
X177818979Y-52352100D01*
X177870171Y-52352100D01*
X177870173Y-52352100D01*
X177953642Y-52317526D01*
X178017526Y-52253642D01*
X178052100Y-52170173D01*
X178052100Y-52079827D01*
X178017526Y-51996358D01*
X177953642Y-51932474D01*
X177953640Y-51932473D01*
X177870175Y-51897900D01*
X177870173Y-51897900D01*
X177779827Y-51897900D01*
X177779824Y-51897900D01*
X177696359Y-51932473D01*
X177632473Y-51996359D01*
X177597900Y-52079824D01*
X177597900Y-52131020D01*
X177594473Y-52139293D01*
X177240093Y-52493673D01*
X177231820Y-52497100D01*
X167769583Y-52497100D01*
X167713390Y-52520377D01*
X167713387Y-52520379D01*
X164528848Y-55704918D01*
X164520575Y-55708345D01*
X138679609Y-55708345D01*
X138671336Y-55704918D01*
X134792973Y-51826554D01*
X134785275Y-51818856D01*
X193174600Y-51818856D01*
X193174600Y-52001143D01*
X193210162Y-52179929D01*
X193279920Y-52348339D01*
X193279924Y-52348347D01*
X193381194Y-52499907D01*
X193381197Y-52499911D01*
X193409721Y-52528435D01*
X193639814Y-52298341D01*
X193711657Y-52370184D01*
X193481564Y-52600277D01*
X193510088Y-52628802D01*
X193510092Y-52628805D01*
X193661652Y-52730075D01*
X193661660Y-52730079D01*
X193830070Y-52799837D01*
X194008857Y-52835400D01*
X194191143Y-52835400D01*
X194369929Y-52799837D01*
X194538339Y-52730079D01*
X194538347Y-52730075D01*
X194689905Y-52628807D01*
X194718435Y-52600277D01*
X194488342Y-52370184D01*
X194560184Y-52298342D01*
X194790277Y-52528435D01*
X194818807Y-52499905D01*
X194920075Y-52348347D01*
X194920079Y-52348339D01*
X194989837Y-52179929D01*
X195025400Y-52001143D01*
X195025400Y-51818856D01*
X194989837Y-51640070D01*
X194920079Y-51471660D01*
X194920075Y-51471652D01*
X194818805Y-51320092D01*
X194818802Y-51320088D01*
X194790277Y-51291564D01*
X194560184Y-51521657D01*
X194488341Y-51449814D01*
X194718435Y-51219722D01*
X194718435Y-51219721D01*
X194689911Y-51191197D01*
X194689907Y-51191194D01*
X194538347Y-51089924D01*
X194538339Y-51089920D01*
X194369929Y-51020162D01*
X194191143Y-50984600D01*
X194008857Y-50984600D01*
X193830070Y-51020162D01*
X193661660Y-51089920D01*
X193661652Y-51089924D01*
X193510092Y-51191194D01*
X193510088Y-51191197D01*
X193481564Y-51219722D01*
X193711657Y-51449815D01*
X193639815Y-51521657D01*
X193409722Y-51291564D01*
X193381197Y-51320088D01*
X193381194Y-51320092D01*
X193279924Y-51471652D01*
X193279920Y-51471660D01*
X193210162Y-51640070D01*
X193174600Y-51818856D01*
X134785275Y-51818856D01*
X131664024Y-48697605D01*
X131660597Y-48689332D01*
X131664024Y-48681059D01*
X131672297Y-48677632D01*
X155919939Y-48677632D01*
X155928212Y-48681059D01*
X155931639Y-48689332D01*
X155928212Y-48697605D01*
X155924416Y-48700141D01*
X155846359Y-48732473D01*
X155782473Y-48796359D01*
X155747900Y-48879824D01*
X155747900Y-48970175D01*
X155782473Y-49053640D01*
X155782474Y-49053642D01*
X155846358Y-49117526D01*
X155898992Y-49139327D01*
X155929824Y-49152099D01*
X155929825Y-49152099D01*
X155929827Y-49152100D01*
X155981020Y-49152100D01*
X155989293Y-49155527D01*
X156290389Y-49456623D01*
X156330126Y-49473082D01*
X156346586Y-49479900D01*
X156346587Y-49479900D01*
X156407413Y-49479900D01*
X159714386Y-49479900D01*
X159722659Y-49483327D01*
X159758858Y-49519526D01*
X159811492Y-49541327D01*
X159842324Y-49554099D01*
X159842325Y-49554099D01*
X159842327Y-49554100D01*
X159842329Y-49554100D01*
X159932671Y-49554100D01*
X159932673Y-49554100D01*
X160016142Y-49519526D01*
X160080026Y-49455642D01*
X160101004Y-49404997D01*
X160401647Y-49404997D01*
X160401647Y-49495398D01*
X160436239Y-49578909D01*
X160436241Y-49578912D01*
X160472545Y-49615216D01*
X160475972Y-49623489D01*
X160475972Y-49759287D01*
X160499248Y-49815481D01*
X160499249Y-49815483D01*
X161332163Y-50648396D01*
X161332165Y-50648398D01*
X161365084Y-50662033D01*
X161365085Y-50662033D01*
X161365086Y-50662034D01*
X161388358Y-50671674D01*
X161388359Y-50671674D01*
X161388361Y-50671675D01*
X161388362Y-50671675D01*
X161449189Y-50671675D01*
X162104049Y-50671675D01*
X162108526Y-50672566D01*
X162179824Y-50702099D01*
X162179825Y-50702099D01*
X162179827Y-50702100D01*
X162179829Y-50702100D01*
X162270171Y-50702100D01*
X162270173Y-50702100D01*
X162353642Y-50667526D01*
X162417526Y-50603642D01*
X162452100Y-50520173D01*
X162452100Y-50429827D01*
X162417526Y-50346358D01*
X162353642Y-50282474D01*
X162353640Y-50282473D01*
X162270175Y-50247900D01*
X162270173Y-50247900D01*
X162179827Y-50247900D01*
X162179824Y-50247900D01*
X162096359Y-50282473D01*
X162096357Y-50282475D01*
X162032475Y-50346356D01*
X162032474Y-50346357D01*
X162032474Y-50346358D01*
X162027380Y-50358654D01*
X162021051Y-50364984D01*
X162016573Y-50365875D01*
X161747535Y-50365875D01*
X161739262Y-50362448D01*
X161735835Y-50354175D01*
X161736726Y-50349698D01*
X161762924Y-50286450D01*
X161762925Y-50286448D01*
X161762925Y-50235175D01*
X161766351Y-50226903D01*
X161857808Y-50135445D01*
X161866081Y-50132019D01*
X164605039Y-50132019D01*
X164605040Y-50132019D01*
X164605041Y-50132019D01*
X164621505Y-50125198D01*
X164661257Y-50108734D01*
X164665613Y-50104378D01*
X164673886Y-50100951D01*
X165657422Y-50100951D01*
X165657423Y-50100951D01*
X165657424Y-50100951D01*
X165673888Y-50094130D01*
X165713640Y-50077666D01*
X166185778Y-49605526D01*
X166194051Y-49602100D01*
X166245171Y-49602100D01*
X166245173Y-49602100D01*
X166328642Y-49567526D01*
X166392526Y-49503642D01*
X166427100Y-49420173D01*
X166427100Y-49329827D01*
X166392526Y-49246358D01*
X166328642Y-49182474D01*
X166328640Y-49182473D01*
X166245175Y-49147900D01*
X166245173Y-49147900D01*
X166154827Y-49147900D01*
X166154824Y-49147900D01*
X166071359Y-49182473D01*
X166007473Y-49246359D01*
X165972900Y-49329824D01*
X165972900Y-49380948D01*
X165969473Y-49389221D01*
X165567072Y-49791622D01*
X165558799Y-49795049D01*
X164575260Y-49795049D01*
X164567028Y-49798459D01*
X164558796Y-49801869D01*
X164519046Y-49818333D01*
X164514689Y-49822690D01*
X164506416Y-49826117D01*
X161767456Y-49826117D01*
X161759224Y-49829527D01*
X161750992Y-49832937D01*
X161711242Y-49849401D01*
X161711240Y-49849402D01*
X161550046Y-50010598D01*
X161541773Y-50014025D01*
X161490499Y-50014025D01*
X161406988Y-50048617D01*
X161343068Y-50112537D01*
X161316291Y-50177180D01*
X161309959Y-50183511D01*
X161301004Y-50183511D01*
X161297209Y-50180975D01*
X160785199Y-49668965D01*
X160781772Y-49660692D01*
X160781772Y-49623489D01*
X160785199Y-49615216D01*
X160793839Y-49606576D01*
X160802112Y-49603149D01*
X165376993Y-49603149D01*
X165376994Y-49603149D01*
X165376995Y-49603149D01*
X165393459Y-49596328D01*
X165433211Y-49579864D01*
X168009145Y-47003930D01*
X168017418Y-47000503D01*
X168982870Y-47000503D01*
X168982871Y-47000503D01*
X168982872Y-47000503D01*
X169005920Y-46990956D01*
X169039088Y-46977218D01*
X170360653Y-45655651D01*
X170368926Y-45652225D01*
X170420196Y-45652225D01*
X170420198Y-45652225D01*
X170503713Y-45617632D01*
X170567632Y-45553713D01*
X170602225Y-45470198D01*
X170602225Y-45379802D01*
X170567632Y-45296287D01*
X170503713Y-45232368D01*
X170503711Y-45232367D01*
X170420200Y-45197775D01*
X170420198Y-45197775D01*
X170329802Y-45197775D01*
X170329799Y-45197775D01*
X170246288Y-45232367D01*
X170182367Y-45296288D01*
X170147775Y-45379799D01*
X170147775Y-45431073D01*
X170144348Y-45439346D01*
X168892520Y-46691174D01*
X168884247Y-46694601D01*
X167918792Y-46694601D01*
X167912760Y-46697100D01*
X167906092Y-46699862D01*
X167862578Y-46717885D01*
X165286643Y-49293820D01*
X165278370Y-49297247D01*
X160802112Y-49297247D01*
X160793839Y-49293820D01*
X160757586Y-49257567D01*
X160757585Y-49257566D01*
X160757583Y-49257565D01*
X160674072Y-49222973D01*
X160674070Y-49222973D01*
X160583674Y-49222973D01*
X160583671Y-49222973D01*
X160500160Y-49257565D01*
X160436239Y-49321486D01*
X160401647Y-49404997D01*
X160101004Y-49404997D01*
X160114600Y-49372173D01*
X160114600Y-49281827D01*
X160080026Y-49198358D01*
X160016142Y-49134474D01*
X160016140Y-49134473D01*
X159932675Y-49099900D01*
X159932673Y-49099900D01*
X159842327Y-49099900D01*
X159842324Y-49099900D01*
X159758859Y-49134473D01*
X159722659Y-49170673D01*
X159714386Y-49174100D01*
X156445180Y-49174100D01*
X156436907Y-49170673D01*
X156205527Y-48939293D01*
X156202100Y-48931020D01*
X156202100Y-48879828D01*
X156202099Y-48879824D01*
X156167526Y-48796359D01*
X156167525Y-48796357D01*
X156103643Y-48732475D01*
X156103642Y-48732474D01*
X156103640Y-48732473D01*
X156025584Y-48700141D01*
X156019252Y-48693809D01*
X156019252Y-48684855D01*
X156025584Y-48678523D01*
X156030061Y-48677632D01*
X161621320Y-48677632D01*
X161621321Y-48677632D01*
X161621322Y-48677632D01*
X161637786Y-48670811D01*
X161677538Y-48654347D01*
X163137472Y-47194414D01*
X163153936Y-47154662D01*
X163160757Y-47138198D01*
X163160757Y-45195336D01*
X163144285Y-45155569D01*
X163137472Y-45139120D01*
X162842485Y-44844135D01*
X162801713Y-44827247D01*
X162801712Y-44827246D01*
X162786272Y-44820850D01*
X162786270Y-44820850D01*
X162424870Y-44820850D01*
X162416597Y-44817423D01*
X162380344Y-44781170D01*
X162380343Y-44781169D01*
X162380341Y-44781168D01*
X162296830Y-44746576D01*
X162296828Y-44746576D01*
X162206432Y-44746576D01*
X162206429Y-44746576D01*
X162122918Y-44781168D01*
X162058997Y-44845089D01*
X162024405Y-44928600D01*
X162024405Y-45019001D01*
X162038361Y-45052693D01*
X162058998Y-45102514D01*
X162122917Y-45166433D01*
X162175580Y-45188246D01*
X162206429Y-45201025D01*
X162206430Y-45201025D01*
X162206432Y-45201026D01*
X162206434Y-45201026D01*
X162296826Y-45201026D01*
X162296828Y-45201026D01*
X162380343Y-45166433D01*
X162416597Y-45130179D01*
X162424870Y-45126752D01*
X162581999Y-45126752D01*
X162590272Y-45130179D01*
X162593699Y-45138452D01*
X162590272Y-45146725D01*
X162586476Y-45149261D01*
X162571248Y-45155568D01*
X162507327Y-45219489D01*
X162472735Y-45303000D01*
X162472735Y-45393401D01*
X162507327Y-45476912D01*
X162507329Y-45476915D01*
X162543582Y-45513168D01*
X162547009Y-45521441D01*
X162547009Y-46997311D01*
X162543582Y-47005584D01*
X161954336Y-47594830D01*
X161946063Y-47598257D01*
X161937790Y-47594830D01*
X161934363Y-47586557D01*
X161934363Y-45873418D01*
X161937790Y-45865145D01*
X162067336Y-45735599D01*
X162067337Y-45735598D01*
X162081069Y-45702445D01*
X162084777Y-45693494D01*
X162084777Y-45693493D01*
X162087902Y-45685948D01*
X162090622Y-45679383D01*
X162090622Y-45618535D01*
X162090248Y-45617631D01*
X162084271Y-45603202D01*
X162067337Y-45562320D01*
X162067336Y-45562318D01*
X162024312Y-45519294D01*
X162023354Y-45518654D01*
X162023620Y-45518254D01*
X162018573Y-45513209D01*
X162018572Y-45504254D01*
X162021110Y-45500455D01*
X162021470Y-45500096D01*
X162056063Y-45416581D01*
X162056063Y-45326185D01*
X162046459Y-45303000D01*
X162033698Y-45272192D01*
X162021470Y-45242670D01*
X161985216Y-45206416D01*
X161981789Y-45198143D01*
X161981789Y-44087456D01*
X161985216Y-44079183D01*
X162048604Y-44015795D01*
X162048605Y-44015794D01*
X162083198Y-43932279D01*
X162083198Y-43841883D01*
X162048605Y-43758368D01*
X162041402Y-43751165D01*
X162037975Y-43742892D01*
X162041401Y-43734620D01*
X162079877Y-43696145D01*
X162103163Y-43639929D01*
X162103163Y-41932360D01*
X162079877Y-41876144D01*
X162036852Y-41833119D01*
X161792564Y-41588831D01*
X161789137Y-41580558D01*
X161789137Y-41529288D01*
X161789136Y-41529284D01*
X161776357Y-41498435D01*
X161754544Y-41445772D01*
X161690625Y-41381853D01*
X161690623Y-41381852D01*
X161607112Y-41347260D01*
X161607110Y-41347260D01*
X161516714Y-41347260D01*
X161516711Y-41347260D01*
X161433200Y-41381852D01*
X161369279Y-41445773D01*
X161334687Y-41529284D01*
X161334687Y-41619685D01*
X161362592Y-41687052D01*
X161369280Y-41703198D01*
X161433199Y-41767117D01*
X161485862Y-41788930D01*
X161516711Y-41801709D01*
X161516712Y-41801709D01*
X161516714Y-41801710D01*
X161567985Y-41801710D01*
X161576258Y-41805137D01*
X161793834Y-42022712D01*
X161797261Y-42030985D01*
X161797261Y-42149378D01*
X161793834Y-42157651D01*
X161785561Y-42161078D01*
X161781084Y-42160187D01*
X161698722Y-42126071D01*
X161698720Y-42126071D01*
X161647448Y-42126071D01*
X161639175Y-42122644D01*
X161361866Y-41845334D01*
X161361864Y-41845333D01*
X161311096Y-41824305D01*
X161311095Y-41824304D01*
X161305652Y-41822049D01*
X161305650Y-41822049D01*
X159722955Y-41822049D01*
X159662107Y-41822049D01*
X159662104Y-41822049D01*
X159629788Y-41835436D01*
X159620834Y-41835436D01*
X159614502Y-41829104D01*
X159613611Y-41824627D01*
X159613611Y-40547299D01*
X159848775Y-40547299D01*
X159848775Y-40637700D01*
X159883367Y-40721211D01*
X159883368Y-40721213D01*
X159947287Y-40785132D01*
X159999950Y-40806945D01*
X160030799Y-40819724D01*
X160030800Y-40819724D01*
X160030802Y-40819725D01*
X160030804Y-40819725D01*
X160121196Y-40819725D01*
X160121198Y-40819725D01*
X160204713Y-40785132D01*
X160240967Y-40748878D01*
X160249240Y-40745451D01*
X161461738Y-40745451D01*
X161470011Y-40748878D01*
X162408185Y-41687052D01*
X162411612Y-41695325D01*
X162408185Y-41703598D01*
X162404389Y-41706134D01*
X162328546Y-41737549D01*
X162264625Y-41801470D01*
X162230033Y-41884981D01*
X162230033Y-41975382D01*
X162264625Y-42058893D01*
X162264626Y-42058895D01*
X162328545Y-42122814D01*
X162369193Y-42139651D01*
X162412057Y-42157406D01*
X162412058Y-42157406D01*
X162412060Y-42157407D01*
X162463331Y-42157407D01*
X162471604Y-42160834D01*
X163321558Y-43010787D01*
X163324985Y-43019060D01*
X163324985Y-43610831D01*
X163321558Y-43619104D01*
X163313285Y-43622531D01*
X163305012Y-43619104D01*
X163245901Y-43559993D01*
X163245900Y-43559992D01*
X163245898Y-43559991D01*
X163162387Y-43525399D01*
X163162385Y-43525399D01*
X163071989Y-43525399D01*
X163071986Y-43525399D01*
X162988475Y-43559991D01*
X162924554Y-43623912D01*
X162889962Y-43707423D01*
X162889962Y-43797824D01*
X162924554Y-43881335D01*
X162924555Y-43881337D01*
X162988474Y-43945256D01*
X163041137Y-43967069D01*
X163071986Y-43979848D01*
X163071987Y-43979848D01*
X163071989Y-43979849D01*
X163109983Y-43979849D01*
X163118256Y-43983276D01*
X163121683Y-43991549D01*
X163121683Y-44444573D01*
X163121684Y-44444575D01*
X163127910Y-44459605D01*
X163127910Y-44459606D01*
X163144968Y-44500789D01*
X163144969Y-44500791D01*
X163916371Y-45272192D01*
X163919798Y-45280465D01*
X163919798Y-47329876D01*
X163916371Y-47338149D01*
X163880116Y-47374404D01*
X163845524Y-47457915D01*
X163845524Y-47548316D01*
X163866211Y-47598257D01*
X163880117Y-47631829D01*
X163944036Y-47695748D01*
X163996699Y-47717561D01*
X164027548Y-47730340D01*
X164027549Y-47730340D01*
X164027551Y-47730341D01*
X164027553Y-47730341D01*
X164117945Y-47730341D01*
X164117947Y-47730341D01*
X164201462Y-47695748D01*
X164205757Y-47691453D01*
X164214030Y-47688026D01*
X164222303Y-47691453D01*
X164225730Y-47699726D01*
X164225730Y-47751923D01*
X164222303Y-47760196D01*
X163838906Y-48143593D01*
X163830633Y-48147020D01*
X163779359Y-48147020D01*
X163695848Y-48181612D01*
X163631927Y-48245533D01*
X163597335Y-48329044D01*
X163597335Y-48419445D01*
X163631793Y-48502632D01*
X163631928Y-48502958D01*
X163695847Y-48566877D01*
X163748510Y-48588690D01*
X163779359Y-48601469D01*
X163779360Y-48601469D01*
X163779362Y-48601470D01*
X163779364Y-48601470D01*
X163869756Y-48601470D01*
X163869758Y-48601470D01*
X163953273Y-48566877D01*
X164017192Y-48502958D01*
X164051785Y-48419443D01*
X164051785Y-48368171D01*
X164055212Y-48359898D01*
X164174503Y-48240607D01*
X165172521Y-48240607D01*
X165172521Y-48301458D01*
X165195805Y-48357671D01*
X165195806Y-48357673D01*
X165340766Y-48502632D01*
X165376215Y-48517315D01*
X165396979Y-48525916D01*
X165396980Y-48525916D01*
X165396982Y-48525917D01*
X165396984Y-48525917D01*
X165457827Y-48525917D01*
X165457829Y-48525917D01*
X165514045Y-48502632D01*
X165557071Y-48459606D01*
X165580356Y-48403390D01*
X165580356Y-48342543D01*
X165557071Y-48286327D01*
X165412112Y-48141367D01*
X165412110Y-48141366D01*
X165355897Y-48118082D01*
X165355895Y-48118082D01*
X165295049Y-48118082D01*
X165295046Y-48118082D01*
X165238833Y-48141366D01*
X165195805Y-48184394D01*
X165172521Y-48240607D01*
X164174503Y-48240607D01*
X164508345Y-47906765D01*
X164508346Y-47906764D01*
X164515792Y-47888788D01*
X164531632Y-47850548D01*
X164531632Y-45200261D01*
X164529592Y-45195337D01*
X164513120Y-45155569D01*
X164508347Y-45144045D01*
X163634314Y-44270012D01*
X163630887Y-44261739D01*
X163630887Y-44015654D01*
X163634314Y-44007381D01*
X163642587Y-44003954D01*
X163650860Y-44007381D01*
X165238832Y-45595353D01*
X165295048Y-45618639D01*
X165295050Y-45618639D01*
X165355893Y-45618639D01*
X165355895Y-45618639D01*
X165412111Y-45595354D01*
X165455137Y-45552328D01*
X165478423Y-45496111D01*
X165478423Y-45435265D01*
X165455138Y-45379048D01*
X164857258Y-44781168D01*
X164243917Y-44167826D01*
X164236793Y-44160702D01*
X164549952Y-44160702D01*
X164549952Y-44251103D01*
X164557785Y-44270012D01*
X164584545Y-44334616D01*
X164648464Y-44398535D01*
X164701127Y-44420348D01*
X164731976Y-44433127D01*
X164731977Y-44433127D01*
X164731979Y-44433128D01*
X164731981Y-44433128D01*
X164822373Y-44433128D01*
X164822375Y-44433128D01*
X164905890Y-44398535D01*
X164969809Y-44334616D01*
X165004402Y-44251101D01*
X165004402Y-44199830D01*
X165007829Y-44191557D01*
X166266264Y-42933122D01*
X166274537Y-42929695D01*
X167772335Y-42929695D01*
X167772336Y-42929695D01*
X167772337Y-42929695D01*
X167794692Y-42920435D01*
X167828553Y-42906410D01*
X168360779Y-42374184D01*
X168369052Y-42370757D01*
X168420171Y-42370757D01*
X168420173Y-42370757D01*
X168503642Y-42336183D01*
X168567526Y-42272299D01*
X168602100Y-42188830D01*
X168602100Y-42098484D01*
X168589539Y-42068159D01*
X168575943Y-42035334D01*
X168575943Y-42026380D01*
X168582275Y-42020048D01*
X168586752Y-42019157D01*
X172252485Y-42019157D01*
X172252485Y-42019156D01*
X172287722Y-42009715D01*
X172322958Y-42000274D01*
X172322962Y-42000272D01*
X172366075Y-41975380D01*
X172386146Y-41963792D01*
X172437738Y-41912200D01*
X172437737Y-41912200D01*
X178953945Y-35395994D01*
X178962218Y-35392567D01*
X179735182Y-35392567D01*
X179735182Y-35392566D01*
X179770419Y-35383125D01*
X179805655Y-35373684D01*
X179805659Y-35373682D01*
X179826719Y-35361522D01*
X179868843Y-35337202D01*
X179920435Y-35285610D01*
X179956916Y-35222424D01*
X179975800Y-35151948D01*
X179975800Y-35078986D01*
X179966464Y-35044144D01*
X179956917Y-35008511D01*
X179956915Y-35008507D01*
X179920437Y-34945327D01*
X179920433Y-34945322D01*
X179868844Y-34893733D01*
X179868839Y-34893729D01*
X179805659Y-34857251D01*
X179805655Y-34857249D01*
X179735183Y-34838367D01*
X179735181Y-34838367D01*
X178806112Y-34838367D01*
X178806109Y-34838367D01*
X178735637Y-34857249D01*
X178735633Y-34857251D01*
X178672452Y-34893729D01*
X178672447Y-34893733D01*
X172104652Y-41461530D01*
X172096379Y-41464957D01*
X165916811Y-41464957D01*
X165908538Y-41461530D01*
X165156512Y-40709503D01*
X165156507Y-40709499D01*
X165093326Y-40673021D01*
X165093322Y-40673019D01*
X165022851Y-40654137D01*
X165022849Y-40654137D01*
X164949887Y-40654137D01*
X164949884Y-40654137D01*
X164879413Y-40673019D01*
X164879409Y-40673021D01*
X164816228Y-40709499D01*
X164816223Y-40709503D01*
X164764634Y-40761092D01*
X164764630Y-40761097D01*
X164728152Y-40824278D01*
X164728150Y-40824282D01*
X164709268Y-40894753D01*
X164709268Y-40967720D01*
X164728150Y-41038191D01*
X164728152Y-41038195D01*
X164764630Y-41101376D01*
X164764632Y-41101379D01*
X164764633Y-41101380D01*
X165575451Y-41912199D01*
X165575452Y-41912200D01*
X165627044Y-41963792D01*
X165627045Y-41963793D01*
X165627047Y-41963794D01*
X165690227Y-42000272D01*
X165690231Y-42000274D01*
X165745810Y-42015165D01*
X165760703Y-42019156D01*
X165760705Y-42019157D01*
X165760706Y-42019157D01*
X168163248Y-42019157D01*
X168171521Y-42022584D01*
X168174948Y-42030857D01*
X168174057Y-42035334D01*
X168147900Y-42098481D01*
X168147900Y-42149605D01*
X168144473Y-42157878D01*
X167681985Y-42620366D01*
X167673712Y-42623793D01*
X166175911Y-42623793D01*
X166167679Y-42627203D01*
X166159447Y-42630613D01*
X166119697Y-42647077D01*
X164791523Y-43975251D01*
X164783250Y-43978678D01*
X164731976Y-43978678D01*
X164648465Y-44013270D01*
X164584544Y-44077191D01*
X164549952Y-44160702D01*
X164236793Y-44160702D01*
X163885631Y-43809540D01*
X163882204Y-43801267D01*
X163882204Y-42761390D01*
X163882204Y-42761389D01*
X163874265Y-42742224D01*
X163858919Y-42705173D01*
X163658137Y-42504391D01*
X164199759Y-42504391D01*
X164199759Y-42594792D01*
X164229300Y-42666108D01*
X164234352Y-42678305D01*
X164298271Y-42742224D01*
X164344542Y-42761390D01*
X164381783Y-42776816D01*
X164381784Y-42776816D01*
X164381786Y-42776817D01*
X164381788Y-42776817D01*
X164472180Y-42776817D01*
X164472182Y-42776817D01*
X164555697Y-42742224D01*
X164619616Y-42678305D01*
X164654209Y-42594790D01*
X164654209Y-42504394D01*
X164619616Y-42420879D01*
X164583362Y-42384625D01*
X164579935Y-42376352D01*
X164579935Y-40734398D01*
X164583362Y-40726125D01*
X168257925Y-37051562D01*
X168266198Y-37048135D01*
X168317467Y-37048135D01*
X168317469Y-37048135D01*
X168400984Y-37013542D01*
X168464903Y-36949623D01*
X168499496Y-36866108D01*
X168499496Y-36775712D01*
X168464903Y-36692197D01*
X168400984Y-36628278D01*
X168400982Y-36628277D01*
X168317471Y-36593685D01*
X168317469Y-36593685D01*
X168227073Y-36593685D01*
X168227070Y-36593685D01*
X168143559Y-36628277D01*
X168079638Y-36692198D01*
X168045046Y-36775709D01*
X168045046Y-36826983D01*
X168041619Y-36835256D01*
X164297317Y-40579558D01*
X164280853Y-40619308D01*
X164280853Y-40619309D01*
X164274033Y-40635772D01*
X164274033Y-42376352D01*
X164270606Y-42384625D01*
X164234351Y-42420880D01*
X164199759Y-42504391D01*
X163658137Y-42504391D01*
X162734303Y-41580558D01*
X161616580Y-40462835D01*
X161616579Y-40462834D01*
X161576827Y-40446369D01*
X161560363Y-40439549D01*
X160249240Y-40439549D01*
X160240967Y-40436122D01*
X160204714Y-40399869D01*
X160204713Y-40399868D01*
X160204711Y-40399867D01*
X160121200Y-40365275D01*
X160121198Y-40365275D01*
X160030802Y-40365275D01*
X160030799Y-40365275D01*
X159947288Y-40399867D01*
X159883367Y-40463788D01*
X159848775Y-40547299D01*
X159613611Y-40547299D01*
X159613611Y-34991103D01*
X159617038Y-34982830D01*
X159729636Y-34870232D01*
X160795566Y-34870232D01*
X160795566Y-34960633D01*
X160830158Y-35044144D01*
X160830160Y-35044147D01*
X160866413Y-35080400D01*
X160869840Y-35088673D01*
X160869840Y-39957525D01*
X160883597Y-39990737D01*
X160893125Y-40013740D01*
X160939490Y-40060105D01*
X160984488Y-40105102D01*
X160987915Y-40113375D01*
X160987915Y-40164649D01*
X161022507Y-40248160D01*
X161022508Y-40248162D01*
X161086427Y-40312081D01*
X161139090Y-40333894D01*
X161169939Y-40346673D01*
X161169940Y-40346673D01*
X161169942Y-40346674D01*
X161169944Y-40346674D01*
X161260336Y-40346674D01*
X161260338Y-40346674D01*
X161343853Y-40312081D01*
X161407772Y-40248162D01*
X161442365Y-40164647D01*
X161442365Y-40074251D01*
X161442364Y-40074248D01*
X161425104Y-40032578D01*
X161423725Y-40029250D01*
X162080373Y-40029250D01*
X162080373Y-40119651D01*
X162114965Y-40203162D01*
X162114966Y-40203164D01*
X162178885Y-40267083D01*
X162231548Y-40288896D01*
X162262397Y-40301675D01*
X162262398Y-40301675D01*
X162262400Y-40301676D01*
X162262402Y-40301676D01*
X162352794Y-40301676D01*
X162352796Y-40301676D01*
X162436311Y-40267083D01*
X162500230Y-40203164D01*
X162534823Y-40119649D01*
X162534823Y-40068378D01*
X162538250Y-40060105D01*
X165790319Y-36808036D01*
X165798592Y-36804609D01*
X165983503Y-36804609D01*
X165991776Y-36808036D01*
X166028030Y-36844290D01*
X166080693Y-36866103D01*
X166111542Y-36878882D01*
X166111543Y-36878882D01*
X166111545Y-36878883D01*
X166111547Y-36878883D01*
X166201939Y-36878883D01*
X166201941Y-36878883D01*
X166285456Y-36844290D01*
X166349375Y-36780371D01*
X166383968Y-36696856D01*
X166383968Y-36606460D01*
X166378676Y-36593685D01*
X166349375Y-36522946D01*
X166349374Y-36522944D01*
X166285457Y-36459027D01*
X166285456Y-36459026D01*
X166285454Y-36459025D01*
X166201943Y-36424433D01*
X166201941Y-36424433D01*
X166111545Y-36424433D01*
X166111542Y-36424433D01*
X166028031Y-36459025D01*
X165991776Y-36495280D01*
X165983503Y-36498707D01*
X165699966Y-36498707D01*
X165691734Y-36502117D01*
X165683502Y-36505527D01*
X165643752Y-36521991D01*
X162321944Y-39843799D01*
X162313671Y-39847226D01*
X162262397Y-39847226D01*
X162178886Y-39881818D01*
X162114965Y-39945739D01*
X162080373Y-40029250D01*
X161423725Y-40029250D01*
X161407772Y-39990737D01*
X161407771Y-39990735D01*
X161343854Y-39926818D01*
X161343853Y-39926817D01*
X161343851Y-39926816D01*
X161260340Y-39892224D01*
X161260338Y-39892224D01*
X161209067Y-39892224D01*
X161200794Y-39888797D01*
X161179169Y-39867172D01*
X161175742Y-39858899D01*
X161175742Y-37304824D01*
X161422900Y-37304824D01*
X161422900Y-37395175D01*
X161457473Y-37478640D01*
X161457475Y-37478643D01*
X161474166Y-37495334D01*
X161475033Y-37496390D01*
X161475362Y-37496719D01*
X161539246Y-37560603D01*
X161591880Y-37582404D01*
X161622712Y-37595176D01*
X161622713Y-37595176D01*
X161622715Y-37595177D01*
X161622717Y-37595177D01*
X161713059Y-37595177D01*
X161713061Y-37595177D01*
X161796530Y-37560603D01*
X165936606Y-33420527D01*
X165944879Y-33417100D01*
X193113839Y-33417100D01*
X193122112Y-33420527D01*
X193125314Y-33426518D01*
X193136409Y-33482301D01*
X193211949Y-33664670D01*
X193211953Y-33664678D01*
X193321617Y-33828801D01*
X193321620Y-33828805D01*
X193461194Y-33968379D01*
X193461198Y-33968382D01*
X193625321Y-34078046D01*
X193625325Y-34078048D01*
X193625328Y-34078050D01*
X193807698Y-34153590D01*
X194001302Y-34192100D01*
X194001303Y-34192100D01*
X194198697Y-34192100D01*
X194198698Y-34192100D01*
X194392302Y-34153590D01*
X194574672Y-34078050D01*
X194738802Y-33968382D01*
X194878382Y-33828802D01*
X194988050Y-33664672D01*
X195063590Y-33482302D01*
X195102100Y-33288698D01*
X195102100Y-33091302D01*
X195063590Y-32897698D01*
X194988050Y-32715328D01*
X194988048Y-32715325D01*
X194988046Y-32715321D01*
X194878382Y-32551198D01*
X194878379Y-32551194D01*
X194738805Y-32411620D01*
X194738801Y-32411617D01*
X194574678Y-32301953D01*
X194574670Y-32301949D01*
X194392302Y-32226410D01*
X194198698Y-32187900D01*
X194001302Y-32187900D01*
X193904500Y-32207155D01*
X193807697Y-32226410D01*
X193625329Y-32301949D01*
X193625321Y-32301953D01*
X193461198Y-32411617D01*
X193461194Y-32411620D01*
X193321620Y-32551194D01*
X193321617Y-32551198D01*
X193211953Y-32715321D01*
X193211949Y-32715329D01*
X193136409Y-32897698D01*
X193125314Y-32953482D01*
X193120339Y-32960928D01*
X193113839Y-32962900D01*
X165800789Y-32962900D01*
X165717324Y-32997473D01*
X165717321Y-32997475D01*
X161584399Y-37130396D01*
X161580604Y-37132932D01*
X161521358Y-37157474D01*
X161457473Y-37221359D01*
X161422900Y-37304824D01*
X161175742Y-37304824D01*
X161175742Y-35088673D01*
X161179169Y-35080400D01*
X161215422Y-35044147D01*
X161215423Y-35044146D01*
X161250016Y-34960631D01*
X161250016Y-34870235D01*
X161248669Y-34866984D01*
X161221011Y-34800211D01*
X161215423Y-34786720D01*
X161151504Y-34722801D01*
X161151502Y-34722800D01*
X161067991Y-34688208D01*
X161067989Y-34688208D01*
X160977593Y-34688208D01*
X160977590Y-34688208D01*
X160894079Y-34722800D01*
X160830158Y-34786721D01*
X160795566Y-34870232D01*
X159729636Y-34870232D01*
X161159665Y-33440203D01*
X161159666Y-33440202D01*
X161182951Y-33383985D01*
X161182951Y-33323139D01*
X161182951Y-32698063D01*
X161186378Y-32689790D01*
X161222525Y-32653643D01*
X161222526Y-32653642D01*
X161257100Y-32570173D01*
X161257100Y-32479827D01*
X161222526Y-32396358D01*
X161158642Y-32332474D01*
X161158640Y-32332473D01*
X161075175Y-32297900D01*
X161075173Y-32297900D01*
X160984827Y-32297900D01*
X160984824Y-32297900D01*
X160901359Y-32332473D01*
X160837473Y-32396359D01*
X160802900Y-32479824D01*
X160802900Y-32570175D01*
X160837473Y-32653640D01*
X160837475Y-32653643D01*
X160873622Y-32689790D01*
X160877049Y-32698063D01*
X160877049Y-33285361D01*
X160873622Y-33293634D01*
X159330993Y-34836263D01*
X159314529Y-34876013D01*
X159314529Y-34876014D01*
X159307709Y-34892477D01*
X159307709Y-41813619D01*
X159304282Y-41821892D01*
X159300487Y-41824428D01*
X159286242Y-41830329D01*
X159222322Y-41894249D01*
X159187730Y-41977760D01*
X159187730Y-42068161D01*
X159208722Y-42118842D01*
X159208722Y-42127797D01*
X159202391Y-42134128D01*
X159146287Y-42157368D01*
X159082367Y-42221288D01*
X159047775Y-42304799D01*
X159047775Y-42395200D01*
X159074911Y-42460711D01*
X159082368Y-42478713D01*
X159146287Y-42542632D01*
X159181489Y-42557213D01*
X159229799Y-42577224D01*
X159229800Y-42577224D01*
X159229802Y-42577225D01*
X159229804Y-42577225D01*
X159320196Y-42577225D01*
X159320198Y-42577225D01*
X159403713Y-42542632D01*
X159467632Y-42478713D01*
X159475089Y-42460710D01*
X159481421Y-42454379D01*
X159485898Y-42453488D01*
X159560353Y-42453488D01*
X159560354Y-42453488D01*
X159560355Y-42453488D01*
X159576819Y-42446667D01*
X159616571Y-42430203D01*
X159822197Y-42224577D01*
X159837003Y-42188832D01*
X159841123Y-42178885D01*
X159845481Y-42168363D01*
X159845482Y-42168361D01*
X159845482Y-42139651D01*
X159848909Y-42131378D01*
X159857182Y-42127951D01*
X160777039Y-42127951D01*
X160785312Y-42131378D01*
X160788739Y-42139651D01*
X160785312Y-42147924D01*
X160769456Y-42163779D01*
X160769452Y-42163784D01*
X160722239Y-42245558D01*
X160722237Y-42245562D01*
X160697799Y-42336772D01*
X160697799Y-42431209D01*
X160722237Y-42522419D01*
X160722239Y-42522423D01*
X160769452Y-42604197D01*
X160769456Y-42604202D01*
X160826117Y-42660863D01*
X160829145Y-42666108D01*
X160836055Y-42691899D01*
X160836057Y-42691903D01*
X160883270Y-42773677D01*
X160883274Y-42773682D01*
X161037933Y-42928341D01*
X161041360Y-42936614D01*
X161041360Y-43203039D01*
X161037933Y-43211312D01*
X160855952Y-43393293D01*
X160847679Y-43396720D01*
X160126820Y-43396720D01*
X160120971Y-43395153D01*
X160113429Y-43390799D01*
X160113428Y-43390798D01*
X160023207Y-43366625D01*
X160016103Y-43361174D01*
X160014934Y-43352296D01*
X160020385Y-43345192D01*
X160026235Y-43343624D01*
X160609781Y-43343624D01*
X160609781Y-43343623D01*
X160645018Y-43334182D01*
X160680254Y-43324741D01*
X160680258Y-43324739D01*
X160701318Y-43312579D01*
X160743442Y-43288259D01*
X160795034Y-43236667D01*
X160831515Y-43173481D01*
X160850399Y-43103005D01*
X160850399Y-43030043D01*
X160845239Y-43010787D01*
X160831516Y-42959568D01*
X160831514Y-42959564D01*
X160795036Y-42896384D01*
X160795032Y-42896379D01*
X160743443Y-42844790D01*
X160743438Y-42844786D01*
X160680258Y-42808308D01*
X160680254Y-42808306D01*
X160609782Y-42789424D01*
X160609780Y-42789424D01*
X159236148Y-42789424D01*
X159227875Y-42785997D01*
X154430644Y-37988766D01*
X154430639Y-37988762D01*
X154367458Y-37952284D01*
X154367454Y-37952282D01*
X154296983Y-37933400D01*
X154296981Y-37933400D01*
X154224019Y-37933400D01*
X154224016Y-37933400D01*
X154153545Y-37952282D01*
X154153541Y-37952284D01*
X154090360Y-37988762D01*
X154090355Y-37988766D01*
X154038766Y-38040355D01*
X154038762Y-38040360D01*
X154002284Y-38103541D01*
X154002282Y-38103545D01*
X153983400Y-38174016D01*
X153983400Y-38246983D01*
X154002282Y-38317454D01*
X154002284Y-38317458D01*
X154038762Y-38380639D01*
X154038764Y-38380642D01*
X154038765Y-38380643D01*
X158894789Y-43236667D01*
X158946381Y-43288259D01*
X158946382Y-43288260D01*
X158946384Y-43288261D01*
X159009564Y-43324739D01*
X159009568Y-43324741D01*
X159065147Y-43339632D01*
X159080040Y-43343623D01*
X159080042Y-43343624D01*
X159923765Y-43343624D01*
X159932038Y-43347051D01*
X159935465Y-43355324D01*
X159932038Y-43363597D01*
X159926793Y-43366625D01*
X159836571Y-43390798D01*
X159836567Y-43390800D01*
X159754793Y-43438013D01*
X159754788Y-43438017D01*
X159688017Y-43504788D01*
X159688013Y-43504793D01*
X159640800Y-43586567D01*
X159640798Y-43586571D01*
X159616360Y-43677781D01*
X159616360Y-43772218D01*
X159640798Y-43863428D01*
X159640800Y-43863432D01*
X159688013Y-43945206D01*
X159688015Y-43945209D01*
X159688016Y-43945210D01*
X159785150Y-44042344D01*
X159785151Y-44042345D01*
X159785153Y-44042346D01*
X159866927Y-44089559D01*
X159866931Y-44089561D01*
X159938866Y-44108835D01*
X159958141Y-44114000D01*
X159958143Y-44114001D01*
X159958144Y-44114001D01*
X160053286Y-44114001D01*
X160053302Y-44114000D01*
X160686099Y-44114000D01*
X160694372Y-44117427D01*
X160697799Y-44125700D01*
X160697799Y-44205704D01*
X160694372Y-44213977D01*
X160413657Y-44494691D01*
X160413655Y-44494694D01*
X160348530Y-44559819D01*
X160348526Y-44559824D01*
X160301313Y-44641598D01*
X160301311Y-44641602D01*
X160276873Y-44732812D01*
X160276873Y-45044420D01*
X160273446Y-45052693D01*
X159494217Y-45831921D01*
X159494213Y-45831926D01*
X159447000Y-45913700D01*
X159446998Y-45913704D01*
X159422560Y-46004914D01*
X159422560Y-46099351D01*
X159446998Y-46190561D01*
X159447000Y-46190565D01*
X159494213Y-46272339D01*
X159494215Y-46272342D01*
X159494216Y-46272343D01*
X159560990Y-46339117D01*
X159560991Y-46339118D01*
X159560993Y-46339119D01*
X159642767Y-46386332D01*
X159642771Y-46386334D01*
X159714704Y-46405607D01*
X159733981Y-46410772D01*
X159733983Y-46410773D01*
X159733984Y-46410773D01*
X159828417Y-46410773D01*
X159828417Y-46410772D01*
X159874023Y-46398553D01*
X159919628Y-46386334D01*
X159919632Y-46386332D01*
X159990181Y-46345600D01*
X160001410Y-46339117D01*
X160922497Y-45418030D01*
X160969713Y-45336250D01*
X160980421Y-45296288D01*
X160984660Y-45280465D01*
X160994153Y-45245036D01*
X160994153Y-45150604D01*
X160994153Y-44933429D01*
X160997579Y-44925157D01*
X161275685Y-44647050D01*
X161275690Y-44647047D01*
X161276647Y-44646089D01*
X161276649Y-44646089D01*
X161343423Y-44579315D01*
X161390639Y-44497535D01*
X161404829Y-44444575D01*
X161415079Y-44406322D01*
X161415079Y-44311889D01*
X161415079Y-44066271D01*
X161418506Y-44057998D01*
X161426779Y-44054571D01*
X161435052Y-44057998D01*
X161437588Y-44061794D01*
X161448730Y-44088695D01*
X161448731Y-44088697D01*
X161469158Y-44109123D01*
X161472585Y-44117396D01*
X161472585Y-45113932D01*
X161469158Y-45122205D01*
X161421595Y-45169768D01*
X161408965Y-45200261D01*
X161408965Y-45200262D01*
X161406416Y-45206416D01*
X161402550Y-45215748D01*
X161396218Y-45222080D01*
X161387263Y-45222079D01*
X161387262Y-45222078D01*
X161309488Y-45189863D01*
X161309486Y-45189863D01*
X161219090Y-45189863D01*
X161219087Y-45189863D01*
X161135576Y-45224455D01*
X161071655Y-45288376D01*
X161037063Y-45371887D01*
X161037063Y-45462288D01*
X161071655Y-45545799D01*
X161071657Y-45545802D01*
X161083963Y-45558108D01*
X161087390Y-45566381D01*
X161087390Y-45766458D01*
X161083963Y-45774731D01*
X160914839Y-45943855D01*
X160914837Y-45943856D01*
X160909076Y-45957764D01*
X160906540Y-45961559D01*
X160726578Y-46141520D01*
X160722783Y-46144056D01*
X160708878Y-46149816D01*
X159932700Y-46925994D01*
X159924427Y-46929421D01*
X157868328Y-46929421D01*
X157860055Y-46925994D01*
X156377176Y-45443114D01*
X156377174Y-45443113D01*
X156337424Y-45426649D01*
X156320960Y-45419829D01*
X137180981Y-45419829D01*
X137172708Y-45416402D01*
X135670527Y-43914221D01*
X135667100Y-43905948D01*
X135667100Y-43854828D01*
X135667099Y-43854824D01*
X135653237Y-43821358D01*
X135632526Y-43771358D01*
X135568642Y-43707474D01*
X135568640Y-43707473D01*
X135485175Y-43672900D01*
X135485173Y-43672900D01*
X135394827Y-43672900D01*
X135394824Y-43672900D01*
X135311359Y-43707473D01*
X135247473Y-43771359D01*
X135212900Y-43854824D01*
X135212900Y-43945175D01*
X135247473Y-44028640D01*
X135247474Y-44028642D01*
X135311358Y-44092526D01*
X135351427Y-44109123D01*
X135394824Y-44127099D01*
X135394825Y-44127099D01*
X135394827Y-44127100D01*
X135445948Y-44127100D01*
X135454221Y-44130527D01*
X137026140Y-45702446D01*
X137063530Y-45717933D01*
X137082356Y-45725731D01*
X137082357Y-45725731D01*
X137143203Y-45725731D01*
X149322241Y-45725731D01*
X149330514Y-45729158D01*
X149333941Y-45737431D01*
X149330514Y-45745704D01*
X149325269Y-45748732D01*
X149261571Y-45765798D01*
X149261567Y-45765800D01*
X149179793Y-45813013D01*
X149179788Y-45813017D01*
X149113017Y-45879788D01*
X149113013Y-45879793D01*
X149065800Y-45961567D01*
X149065798Y-45961571D01*
X149041360Y-46052781D01*
X149041360Y-46147218D01*
X149065798Y-46238428D01*
X149065800Y-46238432D01*
X149113013Y-46320206D01*
X149113015Y-46320209D01*
X149113016Y-46320210D01*
X149179790Y-46386984D01*
X149179791Y-46386985D01*
X149179793Y-46386986D01*
X149261567Y-46434199D01*
X149261571Y-46434201D01*
X149333504Y-46453474D01*
X149352781Y-46458639D01*
X149352783Y-46458640D01*
X149352784Y-46458640D01*
X151743536Y-46458640D01*
X151751809Y-46462067D01*
X153009715Y-47719972D01*
X153009736Y-47719995D01*
X153046460Y-47756718D01*
X153076908Y-47787166D01*
X153119878Y-47811975D01*
X153158685Y-47834381D01*
X153158688Y-47834383D01*
X153230621Y-47853656D01*
X153249898Y-47858821D01*
X153249900Y-47858822D01*
X153249901Y-47858822D01*
X161080492Y-47858822D01*
X161080492Y-47858821D01*
X161126307Y-47846546D01*
X161171703Y-47834383D01*
X161171705Y-47834382D01*
X161182515Y-47828140D01*
X161191391Y-47826971D01*
X161198496Y-47832422D01*
X161199666Y-47841300D01*
X161196637Y-47846546D01*
X161182748Y-47860435D01*
X161182746Y-47860438D01*
X161148154Y-47943949D01*
X161148154Y-48034350D01*
X161182746Y-48117861D01*
X161182748Y-48117864D01*
X161206434Y-48141550D01*
X161209861Y-48149823D01*
X161206434Y-48158096D01*
X161198161Y-48161523D01*
X131812675Y-48161523D01*
X131804402Y-48158096D01*
X129340527Y-45694221D01*
X129337100Y-45685948D01*
X129337100Y-45634828D01*
X129337099Y-45634824D01*
X129313173Y-45577062D01*
X129302526Y-45551358D01*
X129238642Y-45487474D01*
X129238640Y-45487473D01*
X129155175Y-45452900D01*
X129155173Y-45452900D01*
X129064827Y-45452900D01*
X129064824Y-45452900D01*
X129001677Y-45479057D01*
X128992723Y-45479057D01*
X128986391Y-45472725D01*
X128985500Y-45468248D01*
X128985500Y-43904824D01*
X129272900Y-43904824D01*
X129272900Y-43995175D01*
X129306873Y-44077191D01*
X129307474Y-44078642D01*
X129371358Y-44142526D01*
X129415239Y-44160702D01*
X129454824Y-44177099D01*
X129454825Y-44177099D01*
X129454827Y-44177100D01*
X129454829Y-44177100D01*
X129545171Y-44177100D01*
X129545173Y-44177100D01*
X129628642Y-44142526D01*
X129692526Y-44078642D01*
X129727100Y-43995173D01*
X129727100Y-43944051D01*
X129730527Y-43935778D01*
X130057940Y-43608365D01*
X130066213Y-43604938D01*
X158477327Y-43604938D01*
X158485600Y-43608365D01*
X158521854Y-43644619D01*
X158560255Y-43660525D01*
X158605366Y-43679211D01*
X158605367Y-43679211D01*
X158605369Y-43679212D01*
X158605371Y-43679212D01*
X158695763Y-43679212D01*
X158695765Y-43679212D01*
X158779280Y-43644619D01*
X158843199Y-43580700D01*
X158877792Y-43497185D01*
X158877792Y-43406789D01*
X158843199Y-43323274D01*
X158779280Y-43259355D01*
X158779278Y-43259354D01*
X158695767Y-43224762D01*
X158695765Y-43224762D01*
X158605369Y-43224762D01*
X158605366Y-43224762D01*
X158521855Y-43259354D01*
X158485600Y-43295609D01*
X158477327Y-43299036D01*
X129967588Y-43299036D01*
X129955946Y-43303858D01*
X129944304Y-43308681D01*
X129911375Y-43322320D01*
X129911372Y-43322322D01*
X129514221Y-43719473D01*
X129505948Y-43722900D01*
X129454824Y-43722900D01*
X129371359Y-43757473D01*
X129307473Y-43821359D01*
X129272900Y-43904824D01*
X128985500Y-43904824D01*
X128985500Y-42026907D01*
X142770200Y-42026907D01*
X142770200Y-42117358D01*
X142793607Y-42204717D01*
X142793609Y-42204721D01*
X142838829Y-42283043D01*
X142838831Y-42283046D01*
X142838832Y-42283047D01*
X142902786Y-42347001D01*
X142902787Y-42347002D01*
X142902789Y-42347003D01*
X142981111Y-42392223D01*
X142981115Y-42392225D01*
X143050013Y-42410685D01*
X143068474Y-42415632D01*
X143068476Y-42415633D01*
X143068477Y-42415633D01*
X145348091Y-42415633D01*
X145348091Y-42415632D01*
X145409497Y-42399178D01*
X145435450Y-42392225D01*
X145435450Y-42392224D01*
X145435453Y-42392224D01*
X145455893Y-42380423D01*
X145513781Y-42347002D01*
X150513855Y-37346926D01*
X150522128Y-37343500D01*
X152620224Y-37343500D01*
X152620224Y-37343499D01*
X152663904Y-37331795D01*
X152707584Y-37320092D01*
X152707588Y-37320090D01*
X152734029Y-37304824D01*
X152785914Y-37274868D01*
X152849868Y-37210914D01*
X152895091Y-37132586D01*
X152918500Y-37045223D01*
X152918500Y-36954777D01*
X152913552Y-36936313D01*
X152895092Y-36867415D01*
X152895090Y-36867411D01*
X152849870Y-36789089D01*
X152849866Y-36789084D01*
X152785915Y-36725133D01*
X152785910Y-36725129D01*
X152707588Y-36679909D01*
X152707584Y-36679907D01*
X152620225Y-36656500D01*
X152620223Y-36656500D01*
X150420222Y-36656500D01*
X150329777Y-36656500D01*
X150329774Y-36656500D01*
X150242415Y-36679907D01*
X150242411Y-36679909D01*
X150164089Y-36725129D01*
X150164084Y-36725133D01*
X145164011Y-41725206D01*
X145155738Y-41728633D01*
X143068474Y-41728633D01*
X142981115Y-41752040D01*
X142981111Y-41752042D01*
X142902789Y-41797262D01*
X142902784Y-41797266D01*
X142838833Y-41861217D01*
X142838829Y-41861222D01*
X142793609Y-41939544D01*
X142793607Y-41939548D01*
X142770200Y-42026907D01*
X128985500Y-42026907D01*
X128985500Y-39365652D01*
X128988927Y-39357379D01*
X129095779Y-39250527D01*
X129104052Y-39247100D01*
X129155171Y-39247100D01*
X129155173Y-39247100D01*
X129238642Y-39212526D01*
X129302526Y-39148642D01*
X129337100Y-39065173D01*
X129337100Y-38974827D01*
X129310943Y-38911677D01*
X129310943Y-38902723D01*
X129317275Y-38896391D01*
X129321752Y-38895500D01*
X132574420Y-38895500D01*
X132582693Y-38898927D01*
X132689473Y-39005707D01*
X132692900Y-39013980D01*
X132692900Y-39065175D01*
X132727473Y-39148640D01*
X132727474Y-39148642D01*
X132791358Y-39212526D01*
X132843992Y-39234327D01*
X132874824Y-39247099D01*
X132874825Y-39247099D01*
X132874827Y-39247100D01*
X132874829Y-39247100D01*
X132965171Y-39247100D01*
X132965173Y-39247100D01*
X133048642Y-39212526D01*
X133112526Y-39148642D01*
X133147100Y-39065173D01*
X133147100Y-38974827D01*
X133112526Y-38891358D01*
X133048642Y-38827474D01*
X133048640Y-38827473D01*
X132965175Y-38792900D01*
X132965173Y-38792900D01*
X132913980Y-38792900D01*
X132905707Y-38789473D01*
X132729212Y-38612978D01*
X132729211Y-38612977D01*
X132689473Y-38596517D01*
X132673016Y-38589700D01*
X132673014Y-38589700D01*
X128964683Y-38589700D01*
X128948223Y-38596517D01*
X128908487Y-38612976D01*
X128908485Y-38612978D01*
X128499674Y-39021788D01*
X128490941Y-39042873D01*
X128485825Y-39055226D01*
X128476398Y-39077982D01*
X125206882Y-39077982D01*
X125206882Y-34512606D01*
X144091360Y-34512606D01*
X144091360Y-34627218D01*
X144115798Y-34718428D01*
X144115800Y-34718432D01*
X144163013Y-34800206D01*
X144163015Y-34800209D01*
X144163016Y-34800210D01*
X144229790Y-34866984D01*
X144229791Y-34866985D01*
X144229793Y-34866986D01*
X144311567Y-34914199D01*
X144311571Y-34914201D01*
X144383504Y-34933474D01*
X144402781Y-34938639D01*
X144402783Y-34938640D01*
X144402784Y-34938640D01*
X144497217Y-34938640D01*
X144497217Y-34938639D01*
X144542823Y-34926420D01*
X144588428Y-34914201D01*
X144588432Y-34914199D01*
X144626055Y-34892477D01*
X144670210Y-34866984D01*
X144736984Y-34800210D01*
X144763777Y-34753800D01*
X144765630Y-34751387D01*
X146075126Y-33441892D01*
X146083399Y-33438465D01*
X146863161Y-33438465D01*
X146871434Y-33441892D01*
X147923158Y-34493616D01*
X147923159Y-34493617D01*
X147923161Y-34493618D01*
X148004935Y-34540831D01*
X148004939Y-34540833D01*
X148076872Y-34560106D01*
X148096149Y-34565271D01*
X148096151Y-34565272D01*
X148096152Y-34565272D01*
X148190586Y-34565272D01*
X148190586Y-34565271D01*
X148251169Y-34549039D01*
X148254197Y-34548640D01*
X150277217Y-34548640D01*
X150277217Y-34548639D01*
X150313049Y-34539039D01*
X150316077Y-34538640D01*
X150817217Y-34538640D01*
X150817217Y-34538639D01*
X150862823Y-34526420D01*
X150908428Y-34514201D01*
X150908432Y-34514199D01*
X150944086Y-34493614D01*
X150990210Y-34466984D01*
X151056984Y-34400210D01*
X151104200Y-34318430D01*
X151128640Y-34227216D01*
X151128640Y-34132784D01*
X151121152Y-34104837D01*
X151104201Y-34041571D01*
X151104199Y-34041567D01*
X151056986Y-33959793D01*
X151056982Y-33959788D01*
X150990211Y-33893017D01*
X150990210Y-33893016D01*
X150951389Y-33870602D01*
X150945940Y-33863500D01*
X150947108Y-33854622D01*
X150948964Y-33852203D01*
X151002526Y-33798642D01*
X151037100Y-33715173D01*
X151037100Y-33624827D01*
X151002526Y-33541358D01*
X150938642Y-33477474D01*
X150938640Y-33477473D01*
X150855175Y-33442900D01*
X150855173Y-33442900D01*
X150764827Y-33442900D01*
X150764824Y-33442900D01*
X150681359Y-33477473D01*
X150645159Y-33513673D01*
X150636886Y-33517100D01*
X148499585Y-33517100D01*
X148492984Y-33519834D01*
X148486383Y-33522569D01*
X148443391Y-33540376D01*
X148424294Y-33559473D01*
X148416021Y-33562900D01*
X148364824Y-33562900D01*
X148281359Y-33597473D01*
X148217474Y-33661358D01*
X148191315Y-33724508D01*
X148184983Y-33730839D01*
X148176028Y-33730839D01*
X148172233Y-33728303D01*
X147236772Y-32792842D01*
X147236767Y-32792838D01*
X147154993Y-32745625D01*
X147154989Y-32745623D01*
X147063779Y-32721185D01*
X147063777Y-32721185D01*
X146300340Y-32721185D01*
X146292067Y-32717758D01*
X146288640Y-32709485D01*
X146288640Y-29142783D01*
X146288639Y-29142781D01*
X146264201Y-29051571D01*
X146264199Y-29051567D01*
X146216986Y-28969793D01*
X146216982Y-28969788D01*
X146150211Y-28903017D01*
X146150206Y-28903013D01*
X146068432Y-28855800D01*
X146068428Y-28855798D01*
X145977218Y-28831360D01*
X145977216Y-28831360D01*
X145882784Y-28831360D01*
X145882781Y-28831360D01*
X145791571Y-28855798D01*
X145791567Y-28855800D01*
X145709793Y-28903013D01*
X145709788Y-28903017D01*
X145643017Y-28969788D01*
X145643013Y-28969793D01*
X145595800Y-29051567D01*
X145595798Y-29051571D01*
X145571360Y-29142781D01*
X145571360Y-32926424D01*
X145567933Y-32934697D01*
X144228144Y-34274485D01*
X144228142Y-34274488D01*
X144163017Y-34339613D01*
X144163013Y-34339618D01*
X144115800Y-34421392D01*
X144115798Y-34421396D01*
X144091360Y-34512606D01*
X125206882Y-34512606D01*
X125206882Y-33123856D01*
X129974600Y-33123856D01*
X129974600Y-33306143D01*
X130010162Y-33484929D01*
X130079920Y-33653339D01*
X130079924Y-33653347D01*
X130181194Y-33804907D01*
X130181197Y-33804911D01*
X130209721Y-33833435D01*
X130439814Y-33603341D01*
X130511657Y-33675184D01*
X130281564Y-33905277D01*
X130310088Y-33933802D01*
X130310092Y-33933805D01*
X130461652Y-34035075D01*
X130461660Y-34035079D01*
X130630070Y-34104837D01*
X130808857Y-34140400D01*
X130991143Y-34140400D01*
X131169929Y-34104837D01*
X131338339Y-34035079D01*
X131338347Y-34035075D01*
X131489905Y-33933807D01*
X131518435Y-33905277D01*
X131288342Y-33675184D01*
X131360184Y-33603342D01*
X131590277Y-33833435D01*
X131618807Y-33804905D01*
X131720075Y-33653347D01*
X131720079Y-33653339D01*
X131789837Y-33484929D01*
X131825400Y-33306143D01*
X131825400Y-33123856D01*
X131789837Y-32945070D01*
X131720079Y-32776660D01*
X131720075Y-32776652D01*
X131618805Y-32625092D01*
X131618802Y-32625088D01*
X131590277Y-32596564D01*
X131360184Y-32826657D01*
X131288341Y-32754814D01*
X131518435Y-32524722D01*
X131518435Y-32524721D01*
X131489911Y-32496197D01*
X131489907Y-32496194D01*
X131338347Y-32394924D01*
X131338339Y-32394920D01*
X131169929Y-32325162D01*
X130991143Y-32289600D01*
X130808857Y-32289600D01*
X130630070Y-32325162D01*
X130461660Y-32394920D01*
X130461652Y-32394924D01*
X130310092Y-32496194D01*
X130310088Y-32496197D01*
X130281564Y-32524722D01*
X130511657Y-32754815D01*
X130439815Y-32826657D01*
X130209722Y-32596564D01*
X130181197Y-32625088D01*
X130181194Y-32625092D01*
X130079924Y-32776652D01*
X130079920Y-32776660D01*
X130010162Y-32945070D01*
X129974600Y-33123856D01*
X125206882Y-33123856D01*
X125206882Y-28036302D01*
X129897900Y-28036302D01*
X129897900Y-28233697D01*
X129936410Y-28427302D01*
X130011949Y-28609670D01*
X130011953Y-28609678D01*
X130121617Y-28773801D01*
X130121620Y-28773805D01*
X130261194Y-28913379D01*
X130261198Y-28913382D01*
X130425321Y-29023046D01*
X130425325Y-29023048D01*
X130425328Y-29023050D01*
X130607698Y-29098590D01*
X130801302Y-29137100D01*
X130801303Y-29137100D01*
X130998697Y-29137100D01*
X130998698Y-29137100D01*
X131192302Y-29098590D01*
X131374672Y-29023050D01*
X131538802Y-28913382D01*
X131596386Y-28855798D01*
X131665027Y-28787158D01*
X131678379Y-28773805D01*
X131678382Y-28773802D01*
X131788050Y-28609672D01*
X131863590Y-28427302D01*
X131902100Y-28233698D01*
X131902100Y-28036302D01*
X131898630Y-28018856D01*
X193174600Y-28018856D01*
X193174600Y-28201143D01*
X193210162Y-28379929D01*
X193279920Y-28548339D01*
X193279924Y-28548347D01*
X193381194Y-28699907D01*
X193381197Y-28699911D01*
X193409721Y-28728435D01*
X193639814Y-28498341D01*
X193711657Y-28570184D01*
X193481564Y-28800277D01*
X193510088Y-28828802D01*
X193510092Y-28828805D01*
X193661652Y-28930075D01*
X193661660Y-28930079D01*
X193830070Y-28999837D01*
X194008857Y-29035400D01*
X194191143Y-29035400D01*
X194369929Y-28999837D01*
X194538339Y-28930079D01*
X194538347Y-28930075D01*
X194689905Y-28828807D01*
X194718435Y-28800277D01*
X194488342Y-28570184D01*
X194560184Y-28498342D01*
X194790277Y-28728435D01*
X194818807Y-28699905D01*
X194920075Y-28548347D01*
X194920079Y-28548339D01*
X194989837Y-28379929D01*
X195025400Y-28201143D01*
X195025400Y-28018856D01*
X194989837Y-27840070D01*
X194920079Y-27671660D01*
X194920075Y-27671652D01*
X194818805Y-27520092D01*
X194818802Y-27520088D01*
X194790277Y-27491564D01*
X194560184Y-27721657D01*
X194488341Y-27649814D01*
X194718435Y-27419722D01*
X194718435Y-27419721D01*
X194689911Y-27391197D01*
X194689907Y-27391194D01*
X194538347Y-27289924D01*
X194538339Y-27289920D01*
X194369929Y-27220162D01*
X194191143Y-27184600D01*
X194008857Y-27184600D01*
X193830070Y-27220162D01*
X193661660Y-27289920D01*
X193661652Y-27289924D01*
X193510092Y-27391194D01*
X193510088Y-27391197D01*
X193481564Y-27419722D01*
X193711657Y-27649815D01*
X193639815Y-27721657D01*
X193409722Y-27491564D01*
X193381197Y-27520088D01*
X193381194Y-27520092D01*
X193279924Y-27671652D01*
X193279920Y-27671660D01*
X193210162Y-27840070D01*
X193174600Y-28018856D01*
X131898630Y-28018856D01*
X131863590Y-27842698D01*
X131788050Y-27660328D01*
X131788048Y-27660325D01*
X131788046Y-27660321D01*
X131678382Y-27496198D01*
X131678379Y-27496194D01*
X131538805Y-27356620D01*
X131538801Y-27356617D01*
X131374678Y-27246953D01*
X131374670Y-27246949D01*
X131192302Y-27171410D01*
X130998698Y-27132900D01*
X130801302Y-27132900D01*
X130704500Y-27152155D01*
X130607697Y-27171410D01*
X130425329Y-27246949D01*
X130425321Y-27246953D01*
X130261198Y-27356617D01*
X130261194Y-27356620D01*
X130121620Y-27496194D01*
X130121617Y-27496198D01*
X130011953Y-27660321D01*
X130011949Y-27660329D01*
X129936410Y-27842697D01*
X129897900Y-28036302D01*
X125206882Y-28036302D01*
X125206882Y-25368582D01*
X125210309Y-25360309D01*
X125218582Y-25356882D01*
X199781419Y-25356882D01*
X199789692Y-25360309D01*
G37*
%TD.AperFunction*%
%TD*%
M02*
