M48
; DRILL file KiCad 10.0.1 date 2026-06-14T21:55:07
; FORMAT={-:-/ absolute / inch / decimal}
; #@! TF.CreationDate,2026-06-14T21:55:07+02:00
; #@! TF.GenerationSoftware,Kicad,Pcbnew,10.0.1
; #@! TF.FileFunction,Plated,1,2,PTH
FMAT,2
INCH
; #@! TA.AperFunction,Plated,PTH,ViaDrill
T1C0.0059
; #@! TA.AperFunction,Plated,PTH,ViaDrill
T2C0.0098
; #@! TA.AperFunction,Plated,PTH,ViaDrill
T3C0.0120
; #@! TA.AperFunction,Plated,PTH,ViaDrill
T4C0.0120
; #@! TA.AperFunction,Plated,PTH,ComponentDrill
T5C0.0280
; #@! TA.AperFunction,Plated,PTH,ComponentDrill
T6C0.0394
; #@! TA.AperFunction,Plated,PTH,ComponentDrill
T7C0.0472
%
G90
G05
T1
X7.2362Y-4.3453
T2
X7.3043Y-4.4642
X7.7205Y-4.2323
T3
X7.176Y-4.3756
X7.1799Y-4.5409
X7.3173Y-4.0858
X7.7364Y-4.8539
X7.7791Y-4.6433
X7.7913Y-4.5165
X7.798Y-4.8
X8.0997Y-4.0874
X8.1415Y-4.5742
X8.2178Y-4.0874
T4
X6.7407Y-3.975
X6.7407Y-4.513
X6.7407Y-4.7331
X6.7407Y-4.9021
X6.7407Y-5.0711
X6.8957Y-4.2018
X6.8957Y-4.3708
X6.9045Y-4.0181
X6.9354Y-3.9865
X6.9878Y-4.8344
X7.0236Y-4.438
X7.0444Y-5.0423
X7.0647Y-4.3312
X7.0659Y-4.2776
X7.1301Y-4.2491
X7.1302Y-4.689
X7.1533Y-4.0354
X7.1641Y-4.2511
X7.1714Y-4.4104
X7.1759Y-4.5083
X7.1792Y-4.5769
X7.2431Y-4.275
X7.2433Y-4.3092
X7.2454Y-4.5899
X7.2477Y-4.9224
X7.2847Y-4.1714
X7.3024Y-4.6012
X7.3153Y-4.0134
X7.3519Y-4.2995
X7.3575Y-5.0711
X7.3608Y-4.1407
X7.3754Y-4.1119
X7.3859Y-4.358
X7.3871Y-4.2465
X7.4043Y-4.8149
X7.4133Y-4.4032
X7.4519Y-4.0955
X7.4536Y-4.5078
X7.4589Y-4.337
X7.5158Y-4.4059
X7.5315Y-4.2598
X7.5692Y-3.975
X7.5793Y-4.8084
X7.6091Y-4.5791
X7.6331Y-4.4332
X7.6359Y-4.6335
X7.6504Y-4.9824
X7.6759Y-4.6521
X7.7001Y-4.3098
X7.7124Y-4.7242
X7.7315Y-4.4376
X7.7382Y-3.975
X7.8745Y-4.691
X7.9004Y-4.4376
X7.9072Y-3.975
X7.9273Y-5.0711
X7.9808Y-4.8049
X8.0166Y-4.284
X8.0607Y-4.9184
X8.0762Y-3.975
X8.0762Y-4.6264
X8.0986Y-5.0711
X8.172Y-4.2331
X8.1824Y-4.806
X8.2251Y-4.4413
X8.2452Y-3.975
X8.32Y-4.2875
X8.3209Y-5.0162
X8.4142Y-3.975
X8.4395Y-4.407
X8.4579Y-4.6504
X8.5723Y-4.144
X8.5832Y-3.975
X8.5856Y-4.936
X8.6193Y-4.6809
X8.6294Y-5.0711
X8.6712Y-4.832
X8.6761Y-4.4995
X8.7306Y-4.8973
X8.7522Y-3.975
X8.8132Y-4.3663
X8.8137Y-5.0616
X8.8263Y-4.5712
X8.8536Y-4.8545
X8.9212Y-3.975
X9.0156Y-4.2186
X9.0156Y-4.3876
X9.0156Y-4.5566
X9.0156Y-4.7256
X9.0156Y-4.8946
X9.0156Y-5.0636
T5
X6.8122Y-4.2236
X6.8122Y-4.3236
X6.8122Y-4.4236
T6
X8.2647Y-4.96
X8.3647Y-4.96
T7
X6.9295Y-4.8
X6.9295Y-5.0
X7.3056Y-4.829
X7.5025Y-4.829
X8.7555Y-4.3116
X8.7555Y-4.5085
X8.8224Y-4.7945
X8.8224Y-4.9945
M30
