M48
; DRILL file KiCad 10.0.1 date 2026-08-13T08:00:12
; FORMAT={-:-/ absolute / inch / decimal}
; #@! TF.CreationDate,2026-08-13T08:00:12+02:00
; #@! TF.GenerationSoftware,Kicad,Pcbnew,10.0.1
; #@! TF.FileFunction,Plated,1,2,PTH
FMAT,2
INCH
; #@! TA.AperFunction,Plated,PTH,ViaDrill
T1C0.0079
; #@! TA.AperFunction,Plated,PTH,ComponentDrill
T2C0.0079
; #@! TA.AperFunction,Plated,PTH,ComponentDrill
T3C0.0394
; #@! TA.AperFunction,Plated,PTH,ComponentDrill
T4C0.0472
; #@! TA.AperFunction,Plated,PTH,ComponentDrill
T5C0.0551
%
G90
G05
T1
X7.5036Y-3.1724
X7.5036Y-3.3732
X7.5036Y-3.722
X7.5808Y-3.9121
X7.6419Y-3.3052
X7.6982Y-3.4292
X7.7014Y-3.7517
X7.7549Y-3.183
X7.7803Y-3.6291
X7.7816Y-3.9121
X7.8741Y-3.0839
X7.9042Y-3.5621
X7.9468Y-3.3353
X7.9613Y-3.3048
X7.988Y-3.8717
X8.0311Y-3.1682
X8.0421Y-3.3092
X8.1121Y-3.3484
X8.1125Y-3.1595
X8.1428Y-3.5764
X8.1478Y-3.8682
X8.1735Y-3.2316
X8.2027Y-3.6964
X8.2164Y-3.179
X8.22Y-3.3639
X8.292Y-3.3446
X8.3216Y-3.2059
X8.3347Y-3.4357
X8.3591Y-3.6242
X8.3668Y-3.7102
X8.3858Y-3.8714
X8.3893Y-3.4666
X8.4024Y-3.4273
X8.4478Y-3.2726
X8.4542Y-3.0839
X8.5027Y-3.4868
X8.5198Y-3.4866
X8.5217Y-3.6765
X8.5331Y-3.5405
X8.5339Y-3.3868
X8.5392Y-3.7418
X8.5607Y-3.5886
X8.561Y-3.4488
X8.5678Y-3.3372
X8.5764Y-3.9121
X8.5813Y-3.2427
X8.5813Y-3.4295
X8.5992Y-3.0839
X8.6087Y-3.6205
X8.6141Y-3.4122
X8.6635Y-3.6253
X8.6757Y-3.7589
X8.6989Y-3.803
X8.7142Y-3.4318
X8.7263Y-3.2427
X8.7323Y-3.625
X8.7409Y-3.5441
X8.7418Y-3.4809
X8.7422Y-3.5236
X8.7442Y-3.0839
X8.7464Y-3.6714
X8.7797Y-3.5658
X8.8017Y-3.6379
X8.8062Y-3.5777
X8.8102Y-3.4592
X8.8188Y-3.9121
X8.8195Y-3.6177
X8.8334Y-3.6598
X8.8461Y-3.5633
X8.8477Y-3.6736
X8.8493Y-3.5801
X8.8541Y-3.5075
X8.8968Y-3.6554
X8.9412Y-3.3643
X8.9415Y-3.0839
X8.9949Y-3.9121
X8.9976Y-3.2427
X9.0085Y-3.4815
X9.0401Y-3.3958
X9.0553Y-3.6465
X9.075Y-3.6703
X9.1204Y-3.4015
X9.1273Y-3.0839
X9.1949Y-3.9121
X9.1962Y-3.555
X9.2099Y-3.7224
X9.2654Y-3.4015
X9.2986Y-3.2427
X9.3041Y-3.7614
X9.3066Y-3.0839
X9.3253Y-3.6004
X9.3445Y-3.9121
X9.3985Y-3.4302
X9.4337Y-3.2988
X9.4516Y-3.0839
X9.4926Y-3.2882
X9.5011Y-3.5327
X9.5589Y-3.8008
X9.5643Y-3.4026
X9.5709Y-3.6486
X9.6566Y-3.1524
X9.822Y-3.1486
X9.822Y-3.2936
X9.822Y-3.4386
X9.822Y-3.5836
X9.822Y-3.7286
X9.822Y-3.8736
T2
X8.5959Y-3.4758
X8.5959Y-3.5585
X8.6785Y-3.4758
X8.6785Y-3.5585
T3
X8.637Y-3.8642
X8.7799Y-3.8638
X8.8799Y-3.8638
X8.9799Y-3.8638
X8.9803Y-3.1323
X9.0799Y-3.8638
X9.0803Y-3.1323
X9.1799Y-3.8638
X9.1803Y-3.1323
X9.2799Y-3.8638
X9.2803Y-3.1323
T4
X9.6114Y-3.1791
X9.6114Y-3.3791
X9.613Y-3.6169
X9.613Y-3.8169
T5
X7.5358Y-3.6709
X7.5358Y-3.8717
X7.5402Y-3.124
X7.5402Y-3.3248
X7.6362Y-3.7713
X7.6406Y-3.2244
X7.7366Y-3.6709
X7.7366Y-3.8717
X7.7409Y-3.124
X7.7409Y-3.3248
M30
