%TF.GenerationSoftware,KiCad,Pcbnew,10.0.1*%
%TF.CreationDate,2026-08-13T08:00:12+02:00*%
%TF.ProjectId,si4463,73693434-3633-42e6-9b69-6361645f7063,rev?*%
%TF.SameCoordinates,Original*%
%TF.FileFunction,Paste,Top*%
%TF.FilePolarity,Positive*%
%FSLAX46Y46*%
G04 Gerber Fmt 4.6, Leading zero omitted, Abs format (unit mm)*
G04 Created by KiCad (PCBNEW 10.0.1) date 2026-08-13 08:00:12*
%MOMM*%
%LPD*%
G01*
G04 APERTURE LIST*
G04 Aperture macros list*
%AMRoundRect*
0 Rectangle with rounded corners*
0 $1 Rounding radius*
0 $2 $3 $4 $5 $6 $7 $8 $9 X,Y pos of 4 corners*
0 Add a 4 corners polygon primitive as box body*
4,1,4,$2,$3,$4,$5,$6,$7,$8,$9,$2,$3,0*
0 Add four circle primitives for the rounded corners*
1,1,$1+$1,$2,$3*
1,1,$1+$1,$4,$5*
1,1,$1+$1,$6,$7*
1,1,$1+$1,$8,$9*
0 Add four rect primitives between the rounded corners*
20,1,$1+$1,$2,$3,$4,$5,0*
20,1,$1+$1,$4,$5,$6,$7,0*
20,1,$1+$1,$6,$7,$8,$9,0*
20,1,$1+$1,$8,$9,$2,$3,0*%
%AMFreePoly0*
4,1,9,3.862500,-0.866500,0.737500,-0.866500,0.737500,-0.450000,-0.737500,-0.450000,-0.737500,0.450000,0.737500,0.450000,0.737500,0.866500,3.862500,0.866500,3.862500,-0.866500,3.862500,-0.866500,$1*%
G04 Aperture macros list end*
%ADD10RoundRect,0.218750X-0.218750X-0.381250X0.218750X-0.381250X0.218750X0.381250X-0.218750X0.381250X0*%
%ADD11RoundRect,0.250000X-0.315000X-0.315000X0.315000X-0.315000X0.315000X0.315000X-0.315000X0.315000X0*%
%ADD12RoundRect,0.062500X-0.362500X-0.062500X0.362500X-0.062500X0.362500X0.062500X-0.362500X0.062500X0*%
%ADD13RoundRect,0.062500X-0.062500X-0.362500X0.062500X-0.362500X0.062500X0.362500X-0.062500X0.362500X0*%
%ADD14RoundRect,0.225000X-0.250000X0.225000X-0.250000X-0.225000X0.250000X-0.225000X0.250000X0.225000X0*%
%ADD15RoundRect,0.225000X-0.225000X-0.250000X0.225000X-0.250000X0.225000X0.250000X-0.225000X0.250000X0*%
%ADD16RoundRect,0.225000X0.225000X0.250000X-0.225000X0.250000X-0.225000X-0.250000X0.225000X-0.250000X0*%
%ADD17RoundRect,0.225000X-0.225000X0.425000X-0.225000X-0.425000X0.225000X-0.425000X0.225000X0.425000X0*%
%ADD18FreePoly0,270.000000*%
%ADD19RoundRect,0.225000X0.250000X-0.225000X0.250000X0.225000X-0.250000X0.225000X-0.250000X-0.225000X0*%
%ADD20RoundRect,0.218750X-0.381250X0.218750X-0.381250X-0.218750X0.381250X-0.218750X0.381250X0.218750X0*%
%ADD21RoundRect,0.218750X0.381250X-0.218750X0.381250X0.218750X-0.381250X0.218750X-0.381250X-0.218750X0*%
%ADD22RoundRect,0.218750X0.218750X0.381250X-0.218750X0.381250X-0.218750X-0.381250X0.218750X-0.381250X0*%
%ADD23RoundRect,0.250000X0.450000X0.350000X-0.450000X0.350000X-0.450000X-0.350000X0.450000X-0.350000X0*%
G04 APERTURE END LIST*
D10*
%TO.C,L0*%
X207969427Y-92875458D03*
X210094427Y-92875458D03*
%TD*%
D11*
%TO.C,U1*%
X218735000Y-88685000D03*
X218735000Y-89985000D03*
X220035000Y-88685000D03*
X220035000Y-89985000D03*
D12*
X217460000Y-88335000D03*
X217460000Y-88835000D03*
X217460000Y-89335000D03*
X217460000Y-89835000D03*
X217460000Y-90335000D03*
D13*
X218385000Y-91260000D03*
X218885000Y-91260000D03*
X219385000Y-91260000D03*
X219885000Y-91260000D03*
X220385000Y-91260000D03*
D12*
X221310000Y-90335000D03*
X221310000Y-89835000D03*
X221310000Y-89335000D03*
X221310000Y-88835000D03*
X221310000Y-88335000D03*
D13*
X220385000Y-87410000D03*
X219885000Y-87410000D03*
X219385000Y-87410000D03*
X218885000Y-87410000D03*
X218385000Y-87410000D03*
%TD*%
D14*
%TO.C,C9*%
X212465794Y-87271721D03*
X212465794Y-88821721D03*
%TD*%
D15*
%TO.C,CR1*%
X199313606Y-80865774D03*
X200863606Y-80865774D03*
%TD*%
D14*
%TO.C,CR2*%
X206839856Y-80507089D03*
X206839856Y-82057089D03*
%TD*%
D15*
%TO.C,CC1*%
X202595403Y-84831247D03*
X204145403Y-84831247D03*
%TD*%
D16*
%TO.C,CM9*%
X202973333Y-89729774D03*
X201423333Y-89729774D03*
%TD*%
D10*
%TO.C,L1*%
X207735013Y-94974826D03*
X209860013Y-94974826D03*
%TD*%
D17*
%TO.C,U2*%
X203546263Y-93957458D03*
D18*
X202046263Y-94044958D03*
D17*
X200546263Y-93957458D03*
%TD*%
D19*
%TO.C,CM4*%
X216450833Y-94186774D03*
X216450833Y-92636774D03*
%TD*%
D20*
%TO.C,LC1*%
X212351380Y-90679695D03*
X212351380Y-92804695D03*
%TD*%
D14*
%TO.C,CM3*%
X218326145Y-93103300D03*
X218326145Y-94653300D03*
%TD*%
D21*
%TO.C,LR1*%
X202740403Y-83007642D03*
X202740403Y-80882642D03*
%TD*%
D15*
%TO.C,C1*%
X222989427Y-87863668D03*
X224539427Y-87863668D03*
%TD*%
D16*
%TO.C,CM1*%
X213287552Y-94861563D03*
X211737552Y-94861563D03*
%TD*%
D20*
%TO.C,CM5*%
X207897513Y-85547905D03*
X207897513Y-87672905D03*
%TD*%
D16*
%TO.C,CM2*%
X213287552Y-97427458D03*
X211737552Y-97427458D03*
%TD*%
D19*
%TO.C,C0*%
X208011927Y-90921089D03*
X208011927Y-89371089D03*
%TD*%
D22*
%TO.C,L2*%
X209860013Y-97540721D03*
X207735013Y-97540721D03*
%TD*%
D14*
%TO.C,CM7*%
X199573020Y-86338668D03*
X199573020Y-87888668D03*
%TD*%
D21*
%TO.C,CM6*%
X199458606Y-91871642D03*
X199458606Y-89746642D03*
%TD*%
D23*
%TO.C,Y1*%
X222090000Y-83980000D03*
X219890000Y-83980000D03*
X219890000Y-85680000D03*
X222090000Y-85680000D03*
%TD*%
D20*
%TO.C,L3*%
X205787786Y-93245589D03*
X205787786Y-95370589D03*
%TD*%
D21*
%TO.C,LR2*%
X210476067Y-81608063D03*
X210476067Y-79483063D03*
%TD*%
D14*
%TO.C,C2*%
X217622903Y-84006037D03*
X217622903Y-85556037D03*
%TD*%
D15*
%TO.C,CM8*%
X196031809Y-89729774D03*
X197581809Y-89729774D03*
%TD*%
M02*
