%TF.GenerationSoftware,KiCad,Pcbnew,10.0.1*%
%TF.CreationDate,2026-06-28T20:08:25+02:00*%
%TF.ProjectId,adau1701-breakout,61646175-3137-4303-912d-627265616b6f,rev?*%
%TF.SameCoordinates,Original*%
%TF.FileFunction,Legend,Top*%
%TF.FilePolarity,Positive*%
%FSLAX46Y46*%
G04 Gerber Fmt 4.6, Leading zero omitted, Abs format (unit mm)*
G04 Created by KiCad (PCBNEW 10.0.1) date 2026-06-28 20:08:25*
%MOMM*%
%LPD*%
G01*
G04 APERTURE LIST*
G04 Aperture macros list*
%AMRoundRect*
0 Rectangle with rounded corners*
0 $1 Rounding radius*
0 $2 $3 $4 $5 $6 $7 $8 $9 X,Y pos of 4 corners*
0 Add a 4 corners polygon primitive as box body*
4,1,4,$2,$3,$4,$5,$6,$7,$8,$9,$2,$3,0*
0 Add four circle primitives for the rounded corners*
1,1,$1+$1,$2,$3*
1,1,$1+$1,$4,$5*
1,1,$1+$1,$6,$7*
1,1,$1+$1,$8,$9*
0 Add four rect primitives between the rounded corners*
20,1,$1+$1,$2,$3,$4,$5,0*
20,1,$1+$1,$4,$5,$6,$7,0*
20,1,$1+$1,$6,$7,$8,$9,0*
20,1,$1+$1,$8,$9,$2,$3,0*%
%AMFreePoly0*
4,1,23,0.500000,-0.750000,0.000000,-0.750000,0.000000,-0.745722,-0.065263,-0.745722,-0.191342,-0.711940,-0.304381,-0.646677,-0.396677,-0.554381,-0.461940,-0.441342,-0.495722,-0.315263,-0.495722,-0.250000,-0.500000,-0.250000,-0.500000,0.250000,-0.495722,0.250000,-0.495722,0.315263,-0.461940,0.441342,-0.396677,0.554381,-0.304381,0.646677,-0.191342,0.711940,-0.065263,0.745722,0.000000,0.745722,
0.000000,0.750000,0.500000,0.750000,0.500000,-0.750000,0.500000,-0.750000,$1*%
%AMFreePoly1*
4,1,23,0.000000,0.745722,0.065263,0.745722,0.191342,0.711940,0.304381,0.646677,0.396677,0.554381,0.461940,0.441342,0.495722,0.315263,0.495722,0.250000,0.500000,0.250000,0.500000,-0.250000,0.495722,-0.250000,0.495722,-0.315263,0.461940,-0.441342,0.396677,-0.554381,0.304381,-0.646677,0.191342,-0.711940,0.065263,-0.745722,0.000000,-0.745722,0.000000,-0.750000,-0.500000,-0.750000,
-0.500000,0.750000,0.000000,0.750000,0.000000,0.745722,0.000000,0.745722,$1*%
G04 Aperture macros list end*
%ADD10C,0.150000*%
%ADD11C,0.120000*%
%ADD12C,0.152400*%
%ADD13RoundRect,0.100000X-0.637500X-0.100000X0.637500X-0.100000X0.637500X0.100000X-0.637500X0.100000X0*%
%ADD14RoundRect,0.200000X-0.275000X0.200000X-0.275000X-0.200000X0.275000X-0.200000X0.275000X0.200000X0*%
%ADD15RoundRect,0.250000X-1.500000X-0.550000X1.500000X-0.550000X1.500000X0.550000X-1.500000X0.550000X0*%
%ADD16RoundRect,0.250000X-0.457500X-0.445000X0.457500X-0.445000X0.457500X0.445000X-0.457500X0.445000X0*%
%ADD17RoundRect,0.225000X-0.250000X0.225000X-0.250000X-0.225000X0.250000X-0.225000X0.250000X0.225000X0*%
%ADD18RoundRect,0.250000X-0.250000X-0.475000X0.250000X-0.475000X0.250000X0.475000X-0.250000X0.475000X0*%
%ADD19RoundRect,0.200000X-0.200000X-0.275000X0.200000X-0.275000X0.200000X0.275000X-0.200000X0.275000X0*%
%ADD20RoundRect,0.150000X0.825000X0.150000X-0.825000X0.150000X-0.825000X-0.150000X0.825000X-0.150000X0*%
%ADD21RoundRect,0.250000X1.500000X0.550000X-1.500000X0.550000X-1.500000X-0.550000X1.500000X-0.550000X0*%
%ADD22RoundRect,0.225000X0.250000X-0.225000X0.250000X0.225000X-0.250000X0.225000X-0.250000X-0.225000X0*%
%ADD23R,1.700000X1.700000*%
%ADD24C,1.700000*%
%ADD25RoundRect,0.150000X-0.825000X-0.150000X0.825000X-0.150000X0.825000X0.150000X-0.825000X0.150000X0*%
%ADD26RoundRect,0.225000X-0.225000X-0.250000X0.225000X-0.250000X0.225000X0.250000X-0.225000X0.250000X0*%
%ADD27RoundRect,0.200000X0.200000X0.275000X-0.200000X0.275000X-0.200000X-0.275000X0.200000X-0.275000X0*%
%ADD28RoundRect,0.225000X0.225000X0.250000X-0.225000X0.250000X-0.225000X-0.250000X0.225000X-0.250000X0*%
%ADD29RoundRect,0.135000X-0.185000X0.135000X-0.185000X-0.135000X0.185000X-0.135000X0.185000X0.135000X0*%
%ADD30RoundRect,0.375000X-0.625000X-0.375000X0.625000X-0.375000X0.625000X0.375000X-0.625000X0.375000X0*%
%ADD31RoundRect,0.500000X-0.500000X-1.400000X0.500000X-1.400000X0.500000X1.400000X-0.500000X1.400000X0*%
%ADD32RoundRect,0.150000X0.587500X0.150000X-0.587500X0.150000X-0.587500X-0.150000X0.587500X-0.150000X0*%
%ADD33RoundRect,0.075000X-0.662500X-0.075000X0.662500X-0.075000X0.662500X0.075000X-0.662500X0.075000X0*%
%ADD34RoundRect,0.075000X-0.075000X-0.662500X0.075000X-0.662500X0.075000X0.662500X-0.075000X0.662500X0*%
%ADD35FreePoly0,90.000000*%
%ADD36FreePoly1,90.000000*%
%ADD37RoundRect,0.250000X-0.400000X-0.600000X0.400000X-0.600000X0.400000X0.600000X-0.400000X0.600000X0*%
%ADD38RoundRect,0.243750X-0.243750X-0.456250X0.243750X-0.456250X0.243750X0.456250X-0.243750X0.456250X0*%
%ADD39RoundRect,0.250000X-0.650000X-0.750000X0.650000X-0.750000X0.650000X0.750000X-0.650000X0.750000X0*%
%ADD40R,0.990600X0.990600*%
%ADD41RoundRect,0.135000X-0.135000X-0.185000X0.135000X-0.185000X0.135000X0.185000X-0.135000X0.185000X0*%
%ADD42RoundRect,0.200000X0.275000X-0.200000X0.275000X0.200000X-0.275000X0.200000X-0.275000X-0.200000X0*%
G04 APERTURE END LIST*
D10*
X157327142Y-29539580D02*
X157279523Y-29587200D01*
X157279523Y-29587200D02*
X157136666Y-29634819D01*
X157136666Y-29634819D02*
X157041428Y-29634819D01*
X157041428Y-29634819D02*
X156898571Y-29587200D01*
X156898571Y-29587200D02*
X156803333Y-29491961D01*
X156803333Y-29491961D02*
X156755714Y-29396723D01*
X156755714Y-29396723D02*
X156708095Y-29206247D01*
X156708095Y-29206247D02*
X156708095Y-29063390D01*
X156708095Y-29063390D02*
X156755714Y-28872914D01*
X156755714Y-28872914D02*
X156803333Y-28777676D01*
X156803333Y-28777676D02*
X156898571Y-28682438D01*
X156898571Y-28682438D02*
X157041428Y-28634819D01*
X157041428Y-28634819D02*
X157136666Y-28634819D01*
X157136666Y-28634819D02*
X157279523Y-28682438D01*
X157279523Y-28682438D02*
X157327142Y-28730057D01*
X158184285Y-28968152D02*
X158184285Y-29634819D01*
X157946190Y-28587200D02*
X157708095Y-29301485D01*
X157708095Y-29301485D02*
X158327142Y-29301485D01*
X159184285Y-28634819D02*
X158708095Y-28634819D01*
X158708095Y-28634819D02*
X158660476Y-29111009D01*
X158660476Y-29111009D02*
X158708095Y-29063390D01*
X158708095Y-29063390D02*
X158803333Y-29015771D01*
X158803333Y-29015771D02*
X159041428Y-29015771D01*
X159041428Y-29015771D02*
X159136666Y-29063390D01*
X159136666Y-29063390D02*
X159184285Y-29111009D01*
X159184285Y-29111009D02*
X159231904Y-29206247D01*
X159231904Y-29206247D02*
X159231904Y-29444342D01*
X159231904Y-29444342D02*
X159184285Y-29539580D01*
X159184285Y-29539580D02*
X159136666Y-29587200D01*
X159136666Y-29587200D02*
X159041428Y-29634819D01*
X159041428Y-29634819D02*
X158803333Y-29634819D01*
X158803333Y-29634819D02*
X158708095Y-29587200D01*
X158708095Y-29587200D02*
X158660476Y-29539580D01*
X157317142Y-51089580D02*
X157269523Y-51137200D01*
X157269523Y-51137200D02*
X157126666Y-51184819D01*
X157126666Y-51184819D02*
X157031428Y-51184819D01*
X157031428Y-51184819D02*
X156888571Y-51137200D01*
X156888571Y-51137200D02*
X156793333Y-51041961D01*
X156793333Y-51041961D02*
X156745714Y-50946723D01*
X156745714Y-50946723D02*
X156698095Y-50756247D01*
X156698095Y-50756247D02*
X156698095Y-50613390D01*
X156698095Y-50613390D02*
X156745714Y-50422914D01*
X156745714Y-50422914D02*
X156793333Y-50327676D01*
X156793333Y-50327676D02*
X156888571Y-50232438D01*
X156888571Y-50232438D02*
X157031428Y-50184819D01*
X157031428Y-50184819D02*
X157126666Y-50184819D01*
X157126666Y-50184819D02*
X157269523Y-50232438D01*
X157269523Y-50232438D02*
X157317142Y-50280057D01*
X157650476Y-50184819D02*
X158269523Y-50184819D01*
X158269523Y-50184819D02*
X157936190Y-50565771D01*
X157936190Y-50565771D02*
X158079047Y-50565771D01*
X158079047Y-50565771D02*
X158174285Y-50613390D01*
X158174285Y-50613390D02*
X158221904Y-50661009D01*
X158221904Y-50661009D02*
X158269523Y-50756247D01*
X158269523Y-50756247D02*
X158269523Y-50994342D01*
X158269523Y-50994342D02*
X158221904Y-51089580D01*
X158221904Y-51089580D02*
X158174285Y-51137200D01*
X158174285Y-51137200D02*
X158079047Y-51184819D01*
X158079047Y-51184819D02*
X157793333Y-51184819D01*
X157793333Y-51184819D02*
X157698095Y-51137200D01*
X157698095Y-51137200D02*
X157650476Y-51089580D01*
X159126666Y-50184819D02*
X158936190Y-50184819D01*
X158936190Y-50184819D02*
X158840952Y-50232438D01*
X158840952Y-50232438D02*
X158793333Y-50280057D01*
X158793333Y-50280057D02*
X158698095Y-50422914D01*
X158698095Y-50422914D02*
X158650476Y-50613390D01*
X158650476Y-50613390D02*
X158650476Y-50994342D01*
X158650476Y-50994342D02*
X158698095Y-51089580D01*
X158698095Y-51089580D02*
X158745714Y-51137200D01*
X158745714Y-51137200D02*
X158840952Y-51184819D01*
X158840952Y-51184819D02*
X159031428Y-51184819D01*
X159031428Y-51184819D02*
X159126666Y-51137200D01*
X159126666Y-51137200D02*
X159174285Y-51089580D01*
X159174285Y-51089580D02*
X159221904Y-50994342D01*
X159221904Y-50994342D02*
X159221904Y-50756247D01*
X159221904Y-50756247D02*
X159174285Y-50661009D01*
X159174285Y-50661009D02*
X159126666Y-50613390D01*
X159126666Y-50613390D02*
X159031428Y-50565771D01*
X159031428Y-50565771D02*
X158840952Y-50565771D01*
X158840952Y-50565771D02*
X158745714Y-50613390D01*
X158745714Y-50613390D02*
X158698095Y-50661009D01*
X158698095Y-50661009D02*
X158650476Y-50756247D01*
X116687142Y-59609580D02*
X116639523Y-59657200D01*
X116639523Y-59657200D02*
X116496666Y-59704819D01*
X116496666Y-59704819D02*
X116401428Y-59704819D01*
X116401428Y-59704819D02*
X116258571Y-59657200D01*
X116258571Y-59657200D02*
X116163333Y-59561961D01*
X116163333Y-59561961D02*
X116115714Y-59466723D01*
X116115714Y-59466723D02*
X116068095Y-59276247D01*
X116068095Y-59276247D02*
X116068095Y-59133390D01*
X116068095Y-59133390D02*
X116115714Y-58942914D01*
X116115714Y-58942914D02*
X116163333Y-58847676D01*
X116163333Y-58847676D02*
X116258571Y-58752438D01*
X116258571Y-58752438D02*
X116401428Y-58704819D01*
X116401428Y-58704819D02*
X116496666Y-58704819D01*
X116496666Y-58704819D02*
X116639523Y-58752438D01*
X116639523Y-58752438D02*
X116687142Y-58800057D01*
X117068095Y-58800057D02*
X117115714Y-58752438D01*
X117115714Y-58752438D02*
X117210952Y-58704819D01*
X117210952Y-58704819D02*
X117449047Y-58704819D01*
X117449047Y-58704819D02*
X117544285Y-58752438D01*
X117544285Y-58752438D02*
X117591904Y-58800057D01*
X117591904Y-58800057D02*
X117639523Y-58895295D01*
X117639523Y-58895295D02*
X117639523Y-58990533D01*
X117639523Y-58990533D02*
X117591904Y-59133390D01*
X117591904Y-59133390D02*
X117020476Y-59704819D01*
X117020476Y-59704819D02*
X117639523Y-59704819D01*
X117972857Y-58704819D02*
X118591904Y-58704819D01*
X118591904Y-58704819D02*
X118258571Y-59085771D01*
X118258571Y-59085771D02*
X118401428Y-59085771D01*
X118401428Y-59085771D02*
X118496666Y-59133390D01*
X118496666Y-59133390D02*
X118544285Y-59181009D01*
X118544285Y-59181009D02*
X118591904Y-59276247D01*
X118591904Y-59276247D02*
X118591904Y-59514342D01*
X118591904Y-59514342D02*
X118544285Y-59609580D01*
X118544285Y-59609580D02*
X118496666Y-59657200D01*
X118496666Y-59657200D02*
X118401428Y-59704819D01*
X118401428Y-59704819D02*
X118115714Y-59704819D01*
X118115714Y-59704819D02*
X118020476Y-59657200D01*
X118020476Y-59657200D02*
X117972857Y-59609580D01*
X116687142Y-52399580D02*
X116639523Y-52447200D01*
X116639523Y-52447200D02*
X116496666Y-52494819D01*
X116496666Y-52494819D02*
X116401428Y-52494819D01*
X116401428Y-52494819D02*
X116258571Y-52447200D01*
X116258571Y-52447200D02*
X116163333Y-52351961D01*
X116163333Y-52351961D02*
X116115714Y-52256723D01*
X116115714Y-52256723D02*
X116068095Y-52066247D01*
X116068095Y-52066247D02*
X116068095Y-51923390D01*
X116068095Y-51923390D02*
X116115714Y-51732914D01*
X116115714Y-51732914D02*
X116163333Y-51637676D01*
X116163333Y-51637676D02*
X116258571Y-51542438D01*
X116258571Y-51542438D02*
X116401428Y-51494819D01*
X116401428Y-51494819D02*
X116496666Y-51494819D01*
X116496666Y-51494819D02*
X116639523Y-51542438D01*
X116639523Y-51542438D02*
X116687142Y-51590057D01*
X117068095Y-51590057D02*
X117115714Y-51542438D01*
X117115714Y-51542438D02*
X117210952Y-51494819D01*
X117210952Y-51494819D02*
X117449047Y-51494819D01*
X117449047Y-51494819D02*
X117544285Y-51542438D01*
X117544285Y-51542438D02*
X117591904Y-51590057D01*
X117591904Y-51590057D02*
X117639523Y-51685295D01*
X117639523Y-51685295D02*
X117639523Y-51780533D01*
X117639523Y-51780533D02*
X117591904Y-51923390D01*
X117591904Y-51923390D02*
X117020476Y-52494819D01*
X117020476Y-52494819D02*
X117639523Y-52494819D01*
X118020476Y-51590057D02*
X118068095Y-51542438D01*
X118068095Y-51542438D02*
X118163333Y-51494819D01*
X118163333Y-51494819D02*
X118401428Y-51494819D01*
X118401428Y-51494819D02*
X118496666Y-51542438D01*
X118496666Y-51542438D02*
X118544285Y-51590057D01*
X118544285Y-51590057D02*
X118591904Y-51685295D01*
X118591904Y-51685295D02*
X118591904Y-51780533D01*
X118591904Y-51780533D02*
X118544285Y-51923390D01*
X118544285Y-51923390D02*
X117972857Y-52494819D01*
X117972857Y-52494819D02*
X118591904Y-52494819D01*
X102061009Y-33783333D02*
X102061009Y-34116666D01*
X102584819Y-34116666D02*
X101584819Y-34116666D01*
X101584819Y-34116666D02*
X101584819Y-33640476D01*
X102061009Y-32926190D02*
X102108628Y-32783333D01*
X102108628Y-32783333D02*
X102156247Y-32735714D01*
X102156247Y-32735714D02*
X102251485Y-32688095D01*
X102251485Y-32688095D02*
X102394342Y-32688095D01*
X102394342Y-32688095D02*
X102489580Y-32735714D01*
X102489580Y-32735714D02*
X102537200Y-32783333D01*
X102537200Y-32783333D02*
X102584819Y-32878571D01*
X102584819Y-32878571D02*
X102584819Y-33259523D01*
X102584819Y-33259523D02*
X101584819Y-33259523D01*
X101584819Y-33259523D02*
X101584819Y-32926190D01*
X101584819Y-32926190D02*
X101632438Y-32830952D01*
X101632438Y-32830952D02*
X101680057Y-32783333D01*
X101680057Y-32783333D02*
X101775295Y-32735714D01*
X101775295Y-32735714D02*
X101870533Y-32735714D01*
X101870533Y-32735714D02*
X101965771Y-32783333D01*
X101965771Y-32783333D02*
X102013390Y-32830952D01*
X102013390Y-32830952D02*
X102061009Y-32926190D01*
X102061009Y-32926190D02*
X102061009Y-33259523D01*
X102584819Y-31735714D02*
X102584819Y-32307142D01*
X102584819Y-32021428D02*
X101584819Y-32021428D01*
X101584819Y-32021428D02*
X101727676Y-32116666D01*
X101727676Y-32116666D02*
X101822914Y-32211904D01*
X101822914Y-32211904D02*
X101870533Y-32307142D01*
X157317142Y-43889580D02*
X157269523Y-43937200D01*
X157269523Y-43937200D02*
X157126666Y-43984819D01*
X157126666Y-43984819D02*
X157031428Y-43984819D01*
X157031428Y-43984819D02*
X156888571Y-43937200D01*
X156888571Y-43937200D02*
X156793333Y-43841961D01*
X156793333Y-43841961D02*
X156745714Y-43746723D01*
X156745714Y-43746723D02*
X156698095Y-43556247D01*
X156698095Y-43556247D02*
X156698095Y-43413390D01*
X156698095Y-43413390D02*
X156745714Y-43222914D01*
X156745714Y-43222914D02*
X156793333Y-43127676D01*
X156793333Y-43127676D02*
X156888571Y-43032438D01*
X156888571Y-43032438D02*
X157031428Y-42984819D01*
X157031428Y-42984819D02*
X157126666Y-42984819D01*
X157126666Y-42984819D02*
X157269523Y-43032438D01*
X157269523Y-43032438D02*
X157317142Y-43080057D01*
X157650476Y-42984819D02*
X158269523Y-42984819D01*
X158269523Y-42984819D02*
X157936190Y-43365771D01*
X157936190Y-43365771D02*
X158079047Y-43365771D01*
X158079047Y-43365771D02*
X158174285Y-43413390D01*
X158174285Y-43413390D02*
X158221904Y-43461009D01*
X158221904Y-43461009D02*
X158269523Y-43556247D01*
X158269523Y-43556247D02*
X158269523Y-43794342D01*
X158269523Y-43794342D02*
X158221904Y-43889580D01*
X158221904Y-43889580D02*
X158174285Y-43937200D01*
X158174285Y-43937200D02*
X158079047Y-43984819D01*
X158079047Y-43984819D02*
X157793333Y-43984819D01*
X157793333Y-43984819D02*
X157698095Y-43937200D01*
X157698095Y-43937200D02*
X157650476Y-43889580D01*
X158602857Y-42984819D02*
X159269523Y-42984819D01*
X159269523Y-42984819D02*
X158840952Y-43984819D01*
X94946667Y-67037200D02*
X95089524Y-67084819D01*
X95089524Y-67084819D02*
X95327619Y-67084819D01*
X95327619Y-67084819D02*
X95422857Y-67037200D01*
X95422857Y-67037200D02*
X95470476Y-66989580D01*
X95470476Y-66989580D02*
X95518095Y-66894342D01*
X95518095Y-66894342D02*
X95518095Y-66799104D01*
X95518095Y-66799104D02*
X95470476Y-66703866D01*
X95470476Y-66703866D02*
X95422857Y-66656247D01*
X95422857Y-66656247D02*
X95327619Y-66608628D01*
X95327619Y-66608628D02*
X95137143Y-66561009D01*
X95137143Y-66561009D02*
X95041905Y-66513390D01*
X95041905Y-66513390D02*
X94994286Y-66465771D01*
X94994286Y-66465771D02*
X94946667Y-66370533D01*
X94946667Y-66370533D02*
X94946667Y-66275295D01*
X94946667Y-66275295D02*
X94994286Y-66180057D01*
X94994286Y-66180057D02*
X95041905Y-66132438D01*
X95041905Y-66132438D02*
X95137143Y-66084819D01*
X95137143Y-66084819D02*
X95375238Y-66084819D01*
X95375238Y-66084819D02*
X95518095Y-66132438D01*
X95851429Y-66084819D02*
X96089524Y-67084819D01*
X96089524Y-67084819D02*
X96280000Y-66370533D01*
X96280000Y-66370533D02*
X96470476Y-67084819D01*
X96470476Y-67084819D02*
X96708572Y-66084819D01*
X97041905Y-66180057D02*
X97089524Y-66132438D01*
X97089524Y-66132438D02*
X97184762Y-66084819D01*
X97184762Y-66084819D02*
X97422857Y-66084819D01*
X97422857Y-66084819D02*
X97518095Y-66132438D01*
X97518095Y-66132438D02*
X97565714Y-66180057D01*
X97565714Y-66180057D02*
X97613333Y-66275295D01*
X97613333Y-66275295D02*
X97613333Y-66370533D01*
X97613333Y-66370533D02*
X97565714Y-66513390D01*
X97565714Y-66513390D02*
X96994286Y-67084819D01*
X96994286Y-67084819D02*
X97613333Y-67084819D01*
X113094819Y-68583333D02*
X113809104Y-68583333D01*
X113809104Y-68583333D02*
X113951961Y-68630952D01*
X113951961Y-68630952D02*
X114047200Y-68726190D01*
X114047200Y-68726190D02*
X114094819Y-68869047D01*
X114094819Y-68869047D02*
X114094819Y-68964285D01*
X113190057Y-68154761D02*
X113142438Y-68107142D01*
X113142438Y-68107142D02*
X113094819Y-68011904D01*
X113094819Y-68011904D02*
X113094819Y-67773809D01*
X113094819Y-67773809D02*
X113142438Y-67678571D01*
X113142438Y-67678571D02*
X113190057Y-67630952D01*
X113190057Y-67630952D02*
X113285295Y-67583333D01*
X113285295Y-67583333D02*
X113380533Y-67583333D01*
X113380533Y-67583333D02*
X113523390Y-67630952D01*
X113523390Y-67630952D02*
X114094819Y-68202380D01*
X114094819Y-68202380D02*
X114094819Y-67583333D01*
X157337142Y-36699580D02*
X157289523Y-36747200D01*
X157289523Y-36747200D02*
X157146666Y-36794819D01*
X157146666Y-36794819D02*
X157051428Y-36794819D01*
X157051428Y-36794819D02*
X156908571Y-36747200D01*
X156908571Y-36747200D02*
X156813333Y-36651961D01*
X156813333Y-36651961D02*
X156765714Y-36556723D01*
X156765714Y-36556723D02*
X156718095Y-36366247D01*
X156718095Y-36366247D02*
X156718095Y-36223390D01*
X156718095Y-36223390D02*
X156765714Y-36032914D01*
X156765714Y-36032914D02*
X156813333Y-35937676D01*
X156813333Y-35937676D02*
X156908571Y-35842438D01*
X156908571Y-35842438D02*
X157051428Y-35794819D01*
X157051428Y-35794819D02*
X157146666Y-35794819D01*
X157146666Y-35794819D02*
X157289523Y-35842438D01*
X157289523Y-35842438D02*
X157337142Y-35890057D01*
X158194285Y-36128152D02*
X158194285Y-36794819D01*
X157956190Y-35747200D02*
X157718095Y-36461485D01*
X157718095Y-36461485D02*
X158337142Y-36461485D01*
X159146666Y-36128152D02*
X159146666Y-36794819D01*
X158908571Y-35747200D02*
X158670476Y-36461485D01*
X158670476Y-36461485D02*
X159289523Y-36461485D01*
%TO.C,U3*%
D11*
X156890000Y-61125000D02*
X161510000Y-61125000D01*
X161510000Y-66595000D02*
X156890000Y-66595000D01*
X155340000Y-61580000D02*
X155010000Y-61820000D01*
X155010000Y-61340000D01*
X155340000Y-61580000D01*
G36*
X155340000Y-61580000D02*
G01*
X155010000Y-61820000D01*
X155010000Y-61340000D01*
X155340000Y-61580000D01*
G37*
%TO.C,R31*%
X168737500Y-36082742D02*
X168737500Y-36557258D01*
X169782500Y-36082742D02*
X169782500Y-36557258D01*
%TO.C,C45*%
X153532500Y-31682500D02*
X154320000Y-31682500D01*
X153926250Y-31288750D02*
X153926250Y-32076250D01*
X154560000Y-31184437D02*
X154560000Y-32470000D01*
X154560000Y-31184437D02*
X155624437Y-30120000D01*
X154560000Y-35875563D02*
X154560000Y-34590000D01*
X154560000Y-35875563D02*
X155624437Y-36940000D01*
X155624437Y-30120000D02*
X161380000Y-30120000D01*
X155624437Y-36940000D02*
X161380000Y-36940000D01*
X161380000Y-30120000D02*
X161380000Y-32470000D01*
X161380000Y-36940000D02*
X161380000Y-34590000D01*
%TO.C,C25*%
X101642500Y-32165000D02*
X101642500Y-34075000D01*
X101642500Y-34075000D02*
X105562500Y-34075000D01*
X105562500Y-32165000D02*
X101642500Y-32165000D01*
%TO.C,C47*%
X168720000Y-33089420D02*
X168720000Y-33370580D01*
X169740000Y-33089420D02*
X169740000Y-33370580D01*
%TO.C,C24*%
X101628748Y-30215000D02*
X102151252Y-30215000D01*
X101628748Y-31685000D02*
X102151252Y-31685000D01*
%TO.C,C36*%
X153522500Y-53232500D02*
X154310000Y-53232500D01*
X153916250Y-52838750D02*
X153916250Y-53626250D01*
X154550000Y-52734437D02*
X154550000Y-54020000D01*
X154550000Y-52734437D02*
X155614437Y-51670000D01*
X154550000Y-57425563D02*
X154550000Y-56140000D01*
X154550000Y-57425563D02*
X155614437Y-58490000D01*
X155614437Y-51670000D02*
X161370000Y-51670000D01*
X155614437Y-58490000D02*
X161370000Y-58490000D01*
X161370000Y-51670000D02*
X161370000Y-54020000D01*
X161370000Y-58490000D02*
X161370000Y-56140000D01*
%TO.C,C41*%
X141960000Y-41019420D02*
X141960000Y-41300580D01*
X142980000Y-41019420D02*
X142980000Y-41300580D01*
%TO.C,R28*%
X164212742Y-42497500D02*
X164687258Y-42497500D01*
X164212742Y-43542500D02*
X164687258Y-43542500D01*
%TO.C,R6*%
X134557500Y-54967742D02*
X134557500Y-55442258D01*
X135602500Y-54967742D02*
X135602500Y-55442258D01*
%TO.C,U2*%
X135690000Y-57040000D02*
X139810000Y-57040000D01*
X135690000Y-57135000D02*
X135690000Y-57040000D01*
X135690000Y-62160000D02*
X135690000Y-62065000D01*
X139810000Y-57040000D02*
X139810000Y-57135000D01*
X139810000Y-62065000D02*
X139810000Y-62160000D01*
X139810000Y-62160000D02*
X135690000Y-62160000D01*
X140590000Y-62400000D02*
X140110000Y-62400000D01*
X140350000Y-62070000D01*
X140590000Y-62400000D01*
G36*
X140590000Y-62400000D02*
G01*
X140110000Y-62400000D01*
X140350000Y-62070000D01*
X140590000Y-62400000D01*
G37*
%TO.C,C3*%
X135450000Y-50699420D02*
X135450000Y-50980580D01*
X136470000Y-50699420D02*
X136470000Y-50980580D01*
%TO.C,R16*%
X138372742Y-49487500D02*
X138847258Y-49487500D01*
X138372742Y-50532500D02*
X138847258Y-50532500D01*
%TO.C,C42*%
X143610000Y-41019420D02*
X143610000Y-41300580D01*
X144630000Y-41019420D02*
X144630000Y-41300580D01*
%TO.C,C23*%
X113920000Y-51490000D02*
X113920000Y-53840000D01*
X113920000Y-58310000D02*
X113920000Y-55960000D01*
X119675563Y-51490000D02*
X113920000Y-51490000D01*
X119675563Y-58310000D02*
X113920000Y-58310000D01*
X120740000Y-52554437D02*
X119675563Y-51490000D01*
X120740000Y-52554437D02*
X120740000Y-53840000D01*
X120740000Y-57245563D02*
X119675563Y-58310000D01*
X120740000Y-57245563D02*
X120740000Y-55960000D01*
X121373750Y-57141250D02*
X121373750Y-56353750D01*
X121767500Y-56747500D02*
X120980000Y-56747500D01*
%TO.C,C2*%
X133960000Y-43820580D02*
X133960000Y-43539420D01*
X134980000Y-43820580D02*
X134980000Y-43539420D01*
%TO.C,C22*%
X113920000Y-44280000D02*
X113920000Y-46630000D01*
X113920000Y-51100000D02*
X113920000Y-48750000D01*
X119675563Y-44280000D02*
X113920000Y-44280000D01*
X119675563Y-51100000D02*
X113920000Y-51100000D01*
X120740000Y-45344437D02*
X119675563Y-44280000D01*
X120740000Y-45344437D02*
X120740000Y-46630000D01*
X120740000Y-50035563D02*
X119675563Y-51100000D01*
X120740000Y-50035563D02*
X120740000Y-48750000D01*
X121373750Y-49931250D02*
X121373750Y-49143750D01*
X121767500Y-49537500D02*
X120980000Y-49537500D01*
%TO.C,C14*%
X129290000Y-41410580D02*
X129290000Y-41129420D01*
X130310000Y-41410580D02*
X130310000Y-41129420D01*
%TO.C,R30*%
X167187500Y-36082742D02*
X167187500Y-36557258D01*
X168232500Y-36082742D02*
X168232500Y-36557258D01*
%TO.C,R19*%
X142362742Y-51427500D02*
X142837258Y-51427500D01*
X142362742Y-52472500D02*
X142837258Y-52472500D01*
%TO.C,J8*%
X90460000Y-30135000D02*
X91840000Y-30135000D01*
X90460000Y-31515000D02*
X90460000Y-30135000D01*
X90460000Y-32785000D02*
X90460000Y-35435000D01*
X90460000Y-32785000D02*
X93220000Y-32785000D01*
X90460000Y-35435000D02*
X93220000Y-35435000D01*
X93220000Y-32785000D02*
X93220000Y-35435000D01*
%TO.C,C17*%
X137030000Y-41280580D02*
X137030000Y-40999420D01*
X138050000Y-41280580D02*
X138050000Y-40999420D01*
%TO.C,C19*%
X155000000Y-68280580D02*
X155000000Y-67999420D01*
X156020000Y-68280580D02*
X156020000Y-67999420D01*
%TO.C,C33*%
X142370000Y-54480580D02*
X142370000Y-54199420D01*
X143390000Y-54480580D02*
X143390000Y-54199420D01*
%TO.C,C39*%
X165650000Y-33089420D02*
X165650000Y-33370580D01*
X166670000Y-33089420D02*
X166670000Y-33370580D01*
%TO.C,C10*%
X126130000Y-41994420D02*
X126130000Y-42275580D01*
X127150000Y-41994420D02*
X127150000Y-42275580D01*
%TO.C,R4*%
X100297500Y-61767742D02*
X100297500Y-62242258D01*
X101342500Y-61767742D02*
X101342500Y-62242258D01*
%TO.C,J5*%
X166900000Y-66960000D02*
X166900000Y-51610000D01*
X169660000Y-51610000D02*
X166900000Y-51610000D01*
X169660000Y-66960000D02*
X166900000Y-66960000D01*
X169660000Y-66960000D02*
X169660000Y-51610000D01*
X169660000Y-68230000D02*
X169660000Y-69610000D01*
X169660000Y-69610000D02*
X168280000Y-69610000D01*
%TO.C,R26*%
X142392742Y-45457500D02*
X142867258Y-45457500D01*
X142392742Y-46502500D02*
X142867258Y-46502500D01*
%TO.C,C26*%
X110690000Y-35614420D02*
X110690000Y-35895580D01*
X111710000Y-35614420D02*
X111710000Y-35895580D01*
%TO.C,R27*%
X142387742Y-43687500D02*
X142862258Y-43687500D01*
X142387742Y-44732500D02*
X142862258Y-44732500D01*
%TO.C,U5*%
X146550000Y-47640000D02*
X150670000Y-47640000D01*
X146550000Y-47735000D02*
X146550000Y-47640000D01*
X146550000Y-52760000D02*
X146550000Y-52665000D01*
X150670000Y-47640000D02*
X150670000Y-47735000D01*
X150670000Y-52665000D02*
X150670000Y-52760000D01*
X150670000Y-52760000D02*
X146550000Y-52760000D01*
X146010000Y-47730000D02*
X145770000Y-47400000D01*
X146250000Y-47400000D01*
X146010000Y-47730000D01*
G36*
X146010000Y-47730000D02*
G01*
X145770000Y-47400000D01*
X146250000Y-47400000D01*
X146010000Y-47730000D01*
G37*
%TO.C,C12*%
X98364420Y-61990000D02*
X98645580Y-61990000D01*
X98364420Y-63010000D02*
X98645580Y-63010000D01*
%TO.C,U6*%
X146550000Y-42180000D02*
X150670000Y-42180000D01*
X146550000Y-42275000D02*
X146550000Y-42180000D01*
X146550000Y-47300000D02*
X146550000Y-47205000D01*
X150670000Y-42180000D02*
X150670000Y-42275000D01*
X150670000Y-47205000D02*
X150670000Y-47300000D01*
X150670000Y-47300000D02*
X146550000Y-47300000D01*
X146010000Y-42270000D02*
X145770000Y-41940000D01*
X146250000Y-41940000D01*
X146010000Y-42270000D01*
G36*
X146010000Y-42270000D02*
G01*
X145770000Y-41940000D01*
X146250000Y-41940000D01*
X146010000Y-42270000D01*
G37*
%TO.C,C46*%
X167190000Y-33094420D02*
X167190000Y-33375580D01*
X168210000Y-33094420D02*
X168210000Y-33375580D01*
%TO.C,C15*%
X130630000Y-41385580D02*
X130630000Y-41104420D01*
X131650000Y-41385580D02*
X131650000Y-41104420D01*
%TO.C,R8*%
X92877258Y-60687500D02*
X92402742Y-60687500D01*
X92877258Y-61732500D02*
X92402742Y-61732500D01*
%TO.C,C7*%
X124970000Y-54444420D02*
X124970000Y-54725580D01*
X125990000Y-54444420D02*
X125990000Y-54725580D01*
%TO.C,C13*%
X122790580Y-44420000D02*
X122509420Y-44420000D01*
X122790580Y-45440000D02*
X122509420Y-45440000D01*
%TO.C,FB1*%
X100580000Y-32796359D02*
X100580000Y-33103641D01*
X101340000Y-32796359D02*
X101340000Y-33103641D01*
%TO.C,R24*%
X138362742Y-45467500D02*
X138837258Y-45467500D01*
X138362742Y-46512500D02*
X138837258Y-46512500D01*
%TO.C,C6*%
X130830000Y-56779420D02*
X130830000Y-57060580D01*
X131850000Y-56779420D02*
X131850000Y-57060580D01*
%TO.C,C8*%
X126490000Y-56439420D02*
X126490000Y-56720580D01*
X127510000Y-56439420D02*
X127510000Y-56720580D01*
%TO.C,C37*%
X153522500Y-46032500D02*
X154310000Y-46032500D01*
X153916250Y-45638750D02*
X153916250Y-46426250D01*
X154550000Y-45534437D02*
X154550000Y-46820000D01*
X154550000Y-45534437D02*
X155614437Y-44470000D01*
X154550000Y-50225563D02*
X154550000Y-48940000D01*
X154550000Y-50225563D02*
X155614437Y-51290000D01*
X155614437Y-44470000D02*
X161370000Y-44470000D01*
X155614437Y-51290000D02*
X161370000Y-51290000D01*
X161370000Y-44470000D02*
X161370000Y-46820000D01*
X161370000Y-51290000D02*
X161370000Y-48940000D01*
%TO.C,R21*%
X164172742Y-45017500D02*
X164647258Y-45017500D01*
X164172742Y-46062500D02*
X164647258Y-46062500D01*
%TO.C,J6*%
X90460000Y-52090000D02*
X91840000Y-52090000D01*
X90460000Y-53470000D02*
X90460000Y-52090000D01*
X90460000Y-54740000D02*
X90460000Y-59930000D01*
X90460000Y-54740000D02*
X93220000Y-54740000D01*
X90460000Y-59930000D02*
X93220000Y-59930000D01*
X93220000Y-54740000D02*
X93220000Y-59930000D01*
%TO.C,C43*%
X139649420Y-42000000D02*
X139930580Y-42000000D01*
X139649420Y-43020000D02*
X139930580Y-43020000D01*
%TO.C,U4*%
X114550000Y-30197500D02*
X118310000Y-30197500D01*
X114550000Y-37017500D02*
X118310000Y-37017500D01*
X118310000Y-30197500D02*
X118310000Y-31457500D01*
X118310000Y-37017500D02*
X118310000Y-35757500D01*
X113270000Y-30297500D02*
X113030000Y-29967500D01*
X113510000Y-29967500D01*
X113270000Y-30297500D01*
G36*
X113270000Y-30297500D02*
G01*
X113030000Y-29967500D01*
X113510000Y-29967500D01*
X113270000Y-30297500D01*
G37*
%TO.C,J1*%
X90470000Y-37410000D02*
X91850000Y-37410000D01*
X90470000Y-38790000D02*
X90470000Y-37410000D01*
X90470000Y-40060000D02*
X90470000Y-42710000D01*
X90470000Y-40060000D02*
X93230000Y-40060000D01*
X90470000Y-42710000D02*
X93230000Y-42710000D01*
X93230000Y-40060000D02*
X93230000Y-42710000D01*
%TO.C,Q2*%
X96910000Y-29980000D02*
X98430000Y-29980000D01*
X96910000Y-30980000D02*
X96910000Y-29980000D01*
X96910000Y-33100000D02*
X96910000Y-32100000D01*
X98430000Y-29980000D02*
X98430000Y-30030000D01*
X98430000Y-31150000D02*
X98430000Y-31930000D01*
X98430000Y-33050000D02*
X98430000Y-33100000D01*
X98430000Y-33100000D02*
X96910000Y-33100000D01*
X98970000Y-31920000D02*
X98730000Y-31590000D01*
X99210000Y-31590000D01*
X98970000Y-31920000D01*
G36*
X98970000Y-31920000D02*
G01*
X98730000Y-31590000D01*
X99210000Y-31590000D01*
X98970000Y-31920000D01*
G37*
%TO.C,U1*%
X126445000Y-46270000D02*
X126895000Y-46270000D01*
X126445000Y-46720000D02*
X126445000Y-46270000D01*
X126445000Y-53490000D02*
X126445000Y-53040000D01*
X126895000Y-53490000D02*
X126445000Y-53490000D01*
X133215000Y-46270000D02*
X133665000Y-46270000D01*
X133665000Y-46270000D02*
X133665000Y-46720000D01*
X133665000Y-53040000D02*
X133665000Y-53490000D01*
X133665000Y-53490000D02*
X133215000Y-53490000D01*
X125805000Y-46720000D02*
X125465000Y-46250000D01*
X126145000Y-46250000D01*
X125805000Y-46720000D01*
G36*
X125805000Y-46720000D02*
G01*
X125465000Y-46250000D01*
X126145000Y-46250000D01*
X125805000Y-46720000D01*
G37*
%TO.C,R25*%
X138357742Y-43567500D02*
X138832258Y-43567500D01*
X138357742Y-44612500D02*
X138832258Y-44612500D01*
%TO.C,C4*%
X137234420Y-52990000D02*
X137515580Y-52990000D01*
X137234420Y-54010000D02*
X137515580Y-54010000D01*
%TO.C,C18*%
X132680000Y-60349420D02*
X132680000Y-60630580D01*
X133700000Y-60349420D02*
X133700000Y-60630580D01*
%TO.C,JP1*%
X122430000Y-55130000D02*
X122430000Y-53730000D01*
X123130000Y-53030000D02*
X123730000Y-53030000D01*
X123730000Y-55830000D02*
X123130000Y-55830000D01*
X124430000Y-53730000D02*
X124430000Y-55130000D01*
X122430000Y-53730000D02*
G75*
G02*
X123130000Y-53030000I700000J0D01*
G01*
X123130000Y-55830000D02*
G75*
G02*
X122430000Y-55130000I-1J699999D01*
G01*
X123730000Y-53030000D02*
G75*
G02*
X124430000Y-53730000I0J-700000D01*
G01*
X124430000Y-55130000D02*
G75*
G02*
X123730000Y-55830000I-699999J-1D01*
G01*
%TO.C,C20*%
X156550000Y-68275580D02*
X156550000Y-67994420D01*
X157570000Y-68275580D02*
X157570000Y-67994420D01*
%TO.C,C34*%
X144010000Y-54490580D02*
X144010000Y-54209420D01*
X145030000Y-54490580D02*
X145030000Y-54209420D01*
%TO.C,C21*%
X144909420Y-61100000D02*
X145190580Y-61100000D01*
X144909420Y-62120000D02*
X145190580Y-62120000D01*
%TO.C,C32*%
X142749420Y-47930000D02*
X143030580Y-47930000D01*
X142749420Y-48950000D02*
X143030580Y-48950000D01*
%TO.C,R20*%
X164182742Y-47577500D02*
X164657258Y-47577500D01*
X164182742Y-48622500D02*
X164657258Y-48622500D01*
%TO.C,R22*%
X164087500Y-36077742D02*
X164087500Y-36552258D01*
X165132500Y-36077742D02*
X165132500Y-36552258D01*
%TO.C,C16*%
X135520000Y-41280580D02*
X135520000Y-40999420D01*
X136540000Y-41280580D02*
X136540000Y-40999420D01*
%TO.C,D1*%
X94220000Y-33330000D02*
X94220000Y-35550000D01*
X94220000Y-35550000D02*
X98630000Y-35550000D01*
X98630000Y-33330000D02*
X94220000Y-33330000D01*
%TO.C,R18*%
X142337742Y-49477500D02*
X142812258Y-49477500D01*
X142337742Y-50522500D02*
X142812258Y-50522500D01*
%TO.C,F1*%
X101641422Y-34560000D02*
X102158578Y-34560000D01*
X101641422Y-35980000D02*
X102158578Y-35980000D01*
%TO.C,Y1*%
X146900000Y-60817500D02*
X146960000Y-60817500D01*
X146900000Y-66417500D02*
X146900000Y-60817500D01*
X146960000Y-66417500D02*
X146900000Y-66417500D01*
X146960000Y-66877500D02*
X146960000Y-66417500D01*
X149280000Y-60817500D02*
X152040000Y-60817500D01*
X149280000Y-66417500D02*
X149280000Y-66877500D01*
X152040000Y-66417500D02*
X149280000Y-66417500D01*
X154360000Y-60817500D02*
X154420000Y-60817500D01*
X154420000Y-60817500D02*
X154420000Y-66417500D01*
X154420000Y-66417500D02*
X154360000Y-66417500D01*
%TO.C,R3*%
X127232742Y-39217500D02*
X127707258Y-39217500D01*
X127232742Y-40262500D02*
X127707258Y-40262500D01*
%TO.C,R29*%
X164202742Y-39977500D02*
X164677258Y-39977500D01*
X164202742Y-41022500D02*
X164677258Y-41022500D01*
%TO.C,C35*%
X140279420Y-52990000D02*
X140560580Y-52990000D01*
X140279420Y-54010000D02*
X140560580Y-54010000D01*
%TO.C,SW2*%
D12*
X93155800Y-63505800D02*
X93155800Y-69754200D01*
X93155800Y-69754200D02*
X99404200Y-69754200D01*
X99404200Y-63505800D02*
X93155800Y-63505800D01*
X99404200Y-69754200D02*
X99404200Y-63505800D01*
X90598900Y-64379999D02*
G75*
G02*
X90192500Y-64379999I-203200J0D01*
G01*
X90192500Y-64379999D02*
G75*
G02*
X90598900Y-64379999I203200J0D01*
G01*
%TO.C,C1*%
D11*
X132430000Y-42180580D02*
X132430000Y-41899420D01*
X133450000Y-42180580D02*
X133450000Y-41899420D01*
%TO.C,J2*%
X114640000Y-69630000D02*
X114640000Y-68250000D01*
X116020000Y-69630000D02*
X114640000Y-69630000D01*
X117290000Y-66870000D02*
X145340000Y-66870000D01*
X117290000Y-69630000D02*
X117290000Y-66870000D01*
X117290000Y-69630000D02*
X145340000Y-69630000D01*
X145340000Y-69630000D02*
X145340000Y-66870000D01*
%TO.C,R7*%
X137612258Y-55407500D02*
X137137742Y-55407500D01*
X137612258Y-56452500D02*
X137137742Y-56452500D01*
%TO.C,J3*%
X90460000Y-44760000D02*
X91840000Y-44760000D01*
X90460000Y-46140000D02*
X90460000Y-44760000D01*
X90460000Y-47410000D02*
X90460000Y-50060000D01*
X90460000Y-47410000D02*
X93220000Y-47410000D01*
X90460000Y-50060000D02*
X93220000Y-50060000D01*
X93220000Y-47410000D02*
X93220000Y-50060000D01*
%TO.C,C44*%
X153542500Y-38842500D02*
X154330000Y-38842500D01*
X153936250Y-38448750D02*
X153936250Y-39236250D01*
X154570000Y-38344437D02*
X154570000Y-39630000D01*
X154570000Y-38344437D02*
X155634437Y-37280000D01*
X154570000Y-43035563D02*
X154570000Y-41750000D01*
X154570000Y-43035563D02*
X155634437Y-44100000D01*
X155634437Y-37280000D02*
X161390000Y-37280000D01*
X155634437Y-44100000D02*
X161390000Y-44100000D01*
X161390000Y-37280000D02*
X161390000Y-39630000D01*
X161390000Y-44100000D02*
X161390000Y-41750000D01*
%TO.C,R17*%
X138382742Y-51457500D02*
X138857258Y-51457500D01*
X138382742Y-52502500D02*
X138857258Y-52502500D01*
%TO.C,C40*%
X139639420Y-47060000D02*
X139920580Y-47060000D01*
X139639420Y-48080000D02*
X139920580Y-48080000D01*
%TO.C,R2*%
X122857500Y-47052742D02*
X122857500Y-47527258D01*
X123902500Y-47052742D02*
X123902500Y-47527258D01*
%TO.C,R13*%
X97966359Y-35750000D02*
X98273641Y-35750000D01*
X97966359Y-36510000D02*
X98273641Y-36510000D01*
%TO.C,J4*%
X166890000Y-46800000D02*
X166890000Y-39070000D01*
X169650000Y-39070000D02*
X166890000Y-39070000D01*
X169650000Y-46800000D02*
X166890000Y-46800000D01*
X169650000Y-46800000D02*
X169650000Y-39070000D01*
X169650000Y-48070000D02*
X169650000Y-49450000D01*
X169650000Y-49450000D02*
X168270000Y-49450000D01*
%TO.C,R23*%
X165647500Y-36077742D02*
X165647500Y-36552258D01*
X166692500Y-36077742D02*
X166692500Y-36552258D01*
%TO.C,C27*%
X121110000Y-32940580D02*
X121110000Y-32659420D01*
X122130000Y-32940580D02*
X122130000Y-32659420D01*
%TO.C,C38*%
X164100000Y-33089420D02*
X164100000Y-33370580D01*
X165120000Y-33089420D02*
X165120000Y-33370580D01*
%TO.C,C9*%
X127730000Y-41989420D02*
X127730000Y-42270580D01*
X128750000Y-41989420D02*
X128750000Y-42270580D01*
%TO.C,R1*%
X122387500Y-57912258D02*
X122387500Y-57437742D01*
X123432500Y-57912258D02*
X123432500Y-57437742D01*
%TO.C,C5*%
X129300000Y-56779420D02*
X129300000Y-57060580D01*
X130320000Y-56779420D02*
X130320000Y-57060580D01*
%TO.C,C11*%
X122775580Y-42880000D02*
X122494420Y-42880000D01*
X122775580Y-43900000D02*
X122494420Y-43900000D01*
%TD*%
%LPC*%
%TO.C,JP1*%
G36*
X122680000Y-54280000D02*
G01*
X124180000Y-54280000D01*
X124180000Y-54580000D01*
X122680000Y-54580000D01*
X122680000Y-54280000D01*
G37*
%TD*%
D13*
%TO.C,U3*%
X156337500Y-61585000D03*
X156337500Y-62235000D03*
X156337500Y-62885000D03*
X156337500Y-63535000D03*
X156337500Y-64185000D03*
X156337500Y-64835000D03*
X156337500Y-65485000D03*
X156337500Y-66135000D03*
X162062500Y-66135000D03*
X162062500Y-65485000D03*
X162062500Y-64835000D03*
X162062500Y-64185000D03*
X162062500Y-63535000D03*
X162062500Y-62885000D03*
X162062500Y-62235000D03*
X162062500Y-61585000D03*
%TD*%
D14*
%TO.C,R31*%
X169260000Y-35495000D03*
X169260000Y-37145000D03*
%TD*%
D15*
%TO.C,C45*%
X155170000Y-33530000D03*
X160770000Y-33530000D03*
%TD*%
D16*
%TO.C,C25*%
X102610000Y-33120000D03*
X105315000Y-33120000D03*
%TD*%
D17*
%TO.C,C47*%
X169230000Y-32455000D03*
X169230000Y-34005000D03*
%TD*%
D18*
%TO.C,C24*%
X100940000Y-30950000D03*
X102840000Y-30950000D03*
%TD*%
D15*
%TO.C,C36*%
X155160000Y-55080000D03*
X160760000Y-55080000D03*
%TD*%
D17*
%TO.C,C41*%
X142470000Y-40385000D03*
X142470000Y-41935000D03*
%TD*%
D19*
%TO.C,R28*%
X163625000Y-43020000D03*
X165275000Y-43020000D03*
%TD*%
D14*
%TO.C,R6*%
X135080000Y-54380000D03*
X135080000Y-56030000D03*
%TD*%
D20*
%TO.C,U2*%
X140225000Y-61505000D03*
X140225000Y-60235000D03*
X140225000Y-58965000D03*
X140225000Y-57695000D03*
X135275000Y-57695000D03*
X135275000Y-58965000D03*
X135275000Y-60235000D03*
X135275000Y-61505000D03*
%TD*%
D17*
%TO.C,C3*%
X135960000Y-50065000D03*
X135960000Y-51615000D03*
%TD*%
D19*
%TO.C,R16*%
X137785000Y-50010000D03*
X139435000Y-50010000D03*
%TD*%
D17*
%TO.C,C42*%
X144120000Y-40385000D03*
X144120000Y-41935000D03*
%TD*%
D21*
%TO.C,C23*%
X120130000Y-54900000D03*
X114530000Y-54900000D03*
%TD*%
D22*
%TO.C,C2*%
X134470000Y-44455000D03*
X134470000Y-42905000D03*
%TD*%
D21*
%TO.C,C22*%
X120130000Y-47690000D03*
X114530000Y-47690000D03*
%TD*%
D22*
%TO.C,C14*%
X129800000Y-42045000D03*
X129800000Y-40495000D03*
%TD*%
D14*
%TO.C,R30*%
X167710000Y-35495000D03*
X167710000Y-37145000D03*
%TD*%
D19*
%TO.C,R19*%
X141775000Y-51950000D03*
X143425000Y-51950000D03*
%TD*%
D23*
%TO.C,J8*%
X91840000Y-31515000D03*
D24*
X91840000Y-34055000D03*
%TD*%
D22*
%TO.C,C17*%
X137540000Y-41915000D03*
X137540000Y-40365000D03*
%TD*%
%TO.C,C19*%
X155510000Y-68915000D03*
X155510000Y-67365000D03*
%TD*%
%TO.C,C33*%
X142880000Y-55115000D03*
X142880000Y-53565000D03*
%TD*%
D17*
%TO.C,C39*%
X166160000Y-32455000D03*
X166160000Y-34005000D03*
%TD*%
%TO.C,C10*%
X126640000Y-41360000D03*
X126640000Y-42910000D03*
%TD*%
D14*
%TO.C,R4*%
X100820000Y-61180000D03*
X100820000Y-62830000D03*
%TD*%
D23*
%TO.C,J5*%
X168280000Y-68230000D03*
D24*
X168280000Y-65690000D03*
X168280000Y-63150000D03*
X168280000Y-60610000D03*
X168280000Y-58070000D03*
X168280000Y-55530000D03*
X168280000Y-52990000D03*
%TD*%
D19*
%TO.C,R26*%
X141805000Y-45980000D03*
X143455000Y-45980000D03*
%TD*%
D17*
%TO.C,C26*%
X111200000Y-34980000D03*
X111200000Y-36530000D03*
%TD*%
D19*
%TO.C,R27*%
X141800000Y-44210000D03*
X143450000Y-44210000D03*
%TD*%
D25*
%TO.C,U5*%
X146135000Y-48295000D03*
X146135000Y-49565000D03*
X146135000Y-50835000D03*
X146135000Y-52105000D03*
X151085000Y-52105000D03*
X151085000Y-50835000D03*
X151085000Y-49565000D03*
X151085000Y-48295000D03*
%TD*%
D26*
%TO.C,C12*%
X97730000Y-62500000D03*
X99280000Y-62500000D03*
%TD*%
D25*
%TO.C,U6*%
X146135000Y-42835000D03*
X146135000Y-44105000D03*
X146135000Y-45375000D03*
X146135000Y-46645000D03*
X151085000Y-46645000D03*
X151085000Y-45375000D03*
X151085000Y-44105000D03*
X151085000Y-42835000D03*
%TD*%
D17*
%TO.C,C46*%
X167700000Y-32460000D03*
X167700000Y-34010000D03*
%TD*%
D22*
%TO.C,C15*%
X131140000Y-42020000D03*
X131140000Y-40470000D03*
%TD*%
D27*
%TO.C,R8*%
X93465000Y-61210000D03*
X91815000Y-61210000D03*
%TD*%
D17*
%TO.C,C7*%
X125480000Y-53810000D03*
X125480000Y-55360000D03*
%TD*%
D28*
%TO.C,C13*%
X123425000Y-44930000D03*
X121875000Y-44930000D03*
%TD*%
D29*
%TO.C,FB1*%
X100960000Y-32440000D03*
X100960000Y-33460000D03*
%TD*%
D19*
%TO.C,R24*%
X137775000Y-45990000D03*
X139425000Y-45990000D03*
%TD*%
D17*
%TO.C,C6*%
X131340000Y-56145000D03*
X131340000Y-57695000D03*
%TD*%
%TO.C,C8*%
X127000000Y-55805000D03*
X127000000Y-57355000D03*
%TD*%
D15*
%TO.C,C37*%
X155160000Y-47880000D03*
X160760000Y-47880000D03*
%TD*%
D19*
%TO.C,R21*%
X163585000Y-45540000D03*
X165235000Y-45540000D03*
%TD*%
D23*
%TO.C,J6*%
X91840000Y-53470000D03*
D24*
X91840000Y-56010000D03*
X91840000Y-58550000D03*
%TD*%
D26*
%TO.C,C43*%
X139015000Y-42510000D03*
X140565000Y-42510000D03*
%TD*%
D30*
%TO.C,U4*%
X113250000Y-31307500D03*
X113250000Y-33607500D03*
D31*
X119550000Y-33607500D03*
D30*
X113250000Y-35907500D03*
%TD*%
D23*
%TO.C,J1*%
X91850000Y-38790000D03*
D24*
X91850000Y-41330000D03*
%TD*%
D32*
%TO.C,Q2*%
X98607500Y-32490000D03*
X98607500Y-30590000D03*
X96732500Y-31540000D03*
%TD*%
D33*
%TO.C,U1*%
X125892500Y-47130000D03*
X125892500Y-47630000D03*
X125892500Y-48130000D03*
X125892500Y-48630000D03*
X125892500Y-49130000D03*
X125892500Y-49630000D03*
X125892500Y-50130000D03*
X125892500Y-50630000D03*
X125892500Y-51130000D03*
X125892500Y-51630000D03*
X125892500Y-52130000D03*
X125892500Y-52630000D03*
D34*
X127305000Y-54042500D03*
X127805000Y-54042500D03*
X128305000Y-54042500D03*
X128805000Y-54042500D03*
X129305000Y-54042500D03*
X129805000Y-54042500D03*
X130305000Y-54042500D03*
X130805000Y-54042500D03*
X131305000Y-54042500D03*
X131805000Y-54042500D03*
X132305000Y-54042500D03*
X132805000Y-54042500D03*
D33*
X134217500Y-52630000D03*
X134217500Y-52130000D03*
X134217500Y-51630000D03*
X134217500Y-51130000D03*
X134217500Y-50630000D03*
X134217500Y-50130000D03*
X134217500Y-49630000D03*
X134217500Y-49130000D03*
X134217500Y-48630000D03*
X134217500Y-48130000D03*
X134217500Y-47630000D03*
X134217500Y-47130000D03*
D34*
X132805000Y-45717500D03*
X132305000Y-45717500D03*
X131805000Y-45717500D03*
X131305000Y-45717500D03*
X130805000Y-45717500D03*
X130305000Y-45717500D03*
X129805000Y-45717500D03*
X129305000Y-45717500D03*
X128805000Y-45717500D03*
X128305000Y-45717500D03*
X127805000Y-45717500D03*
X127305000Y-45717500D03*
%TD*%
D19*
%TO.C,R25*%
X137770000Y-44090000D03*
X139420000Y-44090000D03*
%TD*%
D26*
%TO.C,C4*%
X136600000Y-53500000D03*
X138150000Y-53500000D03*
%TD*%
D17*
%TO.C,C18*%
X133190000Y-59715000D03*
X133190000Y-61265000D03*
%TD*%
D35*
%TO.C,JP1*%
X123430000Y-55080000D03*
D36*
X123430000Y-53780000D03*
%TD*%
D22*
%TO.C,C20*%
X157060000Y-68910000D03*
X157060000Y-67360000D03*
%TD*%
%TO.C,C34*%
X144520000Y-55125000D03*
X144520000Y-53575000D03*
%TD*%
D26*
%TO.C,C21*%
X144275000Y-61610000D03*
X145825000Y-61610000D03*
%TD*%
%TO.C,C32*%
X142115000Y-48440000D03*
X143665000Y-48440000D03*
%TD*%
D19*
%TO.C,R20*%
X163595000Y-48100000D03*
X165245000Y-48100000D03*
%TD*%
D14*
%TO.C,R22*%
X164610000Y-35490000D03*
X164610000Y-37140000D03*
%TD*%
D22*
%TO.C,C16*%
X136030000Y-41915000D03*
X136030000Y-40365000D03*
%TD*%
D37*
%TO.C,D1*%
X95130000Y-34440000D03*
X98630000Y-34440000D03*
%TD*%
D19*
%TO.C,R18*%
X141750000Y-50000000D03*
X143400000Y-50000000D03*
%TD*%
D38*
%TO.C,F1*%
X100962500Y-35270000D03*
X102837500Y-35270000D03*
%TD*%
D39*
%TO.C,Y1*%
X148120000Y-65617500D03*
X153200000Y-65617500D03*
X153200000Y-61617500D03*
X148120000Y-61617500D03*
%TD*%
D19*
%TO.C,R3*%
X126645000Y-39740000D03*
X128295000Y-39740000D03*
%TD*%
%TO.C,R29*%
X163615000Y-40500000D03*
X165265000Y-40500000D03*
%TD*%
D26*
%TO.C,C35*%
X139645000Y-53500000D03*
X141195000Y-53500000D03*
%TD*%
D40*
%TO.C,SW2*%
X91780001Y-64379999D03*
X100779999Y-64379999D03*
X91780001Y-68880001D03*
X100779999Y-68880001D03*
%TD*%
D22*
%TO.C,C1*%
X132940000Y-42815000D03*
X132940000Y-41265000D03*
%TD*%
D23*
%TO.C,J2*%
X116020000Y-68250000D03*
D24*
X118560000Y-68250000D03*
X121100000Y-68250000D03*
X123640000Y-68250000D03*
X126180000Y-68250000D03*
X128720000Y-68250000D03*
X131260000Y-68250000D03*
X133800000Y-68250000D03*
X136340000Y-68250000D03*
X138880000Y-68250000D03*
X141420000Y-68250000D03*
X143960000Y-68250000D03*
%TD*%
D27*
%TO.C,R7*%
X138200000Y-55930000D03*
X136550000Y-55930000D03*
%TD*%
D23*
%TO.C,J3*%
X91840000Y-46140000D03*
D24*
X91840000Y-48680000D03*
%TD*%
D15*
%TO.C,C44*%
X155180000Y-40690000D03*
X160780000Y-40690000D03*
%TD*%
D19*
%TO.C,R17*%
X137795000Y-51980000D03*
X139445000Y-51980000D03*
%TD*%
D26*
%TO.C,C40*%
X139005000Y-47570000D03*
X140555000Y-47570000D03*
%TD*%
D14*
%TO.C,R2*%
X123380000Y-46465000D03*
X123380000Y-48115000D03*
%TD*%
D41*
%TO.C,R13*%
X97610000Y-36130000D03*
X98630000Y-36130000D03*
%TD*%
D23*
%TO.C,J4*%
X168270000Y-48070000D03*
D24*
X168270000Y-45530000D03*
X168270000Y-42990000D03*
X168270000Y-40450000D03*
%TD*%
D14*
%TO.C,R23*%
X166170000Y-35490000D03*
X166170000Y-37140000D03*
%TD*%
D22*
%TO.C,C27*%
X121620000Y-33575000D03*
X121620000Y-32025000D03*
%TD*%
D17*
%TO.C,C38*%
X164610000Y-32455000D03*
X164610000Y-34005000D03*
%TD*%
%TO.C,C9*%
X128240000Y-41355000D03*
X128240000Y-42905000D03*
%TD*%
D42*
%TO.C,R1*%
X122910000Y-58500000D03*
X122910000Y-56850000D03*
%TD*%
D17*
%TO.C,C5*%
X129810000Y-56145000D03*
X129810000Y-57695000D03*
%TD*%
D28*
%TO.C,C11*%
X123410000Y-43390000D03*
X121860000Y-43390000D03*
%TD*%
%LPD*%
M02*
