M48
; DRILL file KiCad 10.0.1 date 2026-06-28T20:08:25
; FORMAT={-:-/ absolute / inch / decimal}
; #@! TF.CreationDate,2026-06-28T20:08:25+02:00
; #@! TF.GenerationSoftware,Kicad,Pcbnew,10.0.1
; #@! TF.FileFunction,Plated,1,2,PTH
FMAT,2
INCH
; #@! TA.AperFunction,Plated,PTH,ViaDrill
T1C0.0059
; #@! TA.AperFunction,Plated,PTH,ViaDrill
T2C0.0059
; #@! TA.AperFunction,Plated,PTH,ComponentDrill
T3C0.0394
%
G90
G05
T1
X3.9693Y-1.863
X3.9693Y-2.3744
X4.5677Y-2.6024
X4.6677Y-2.6102
X4.7067Y-1.452
X4.7067Y-1.5114
X4.7677Y-2.6114
X4.7854Y-2.215
X4.7886Y-2.0839
X4.85Y-2.0531
X4.8677Y-2.6067
X4.8799Y-2.0386
X4.8953Y-1.7043
X4.9079Y-1.7791
X4.9102Y-2.0957
X4.9437Y-1.7811
X4.9681Y-2.2201
X4.9681Y-2.2528
X4.9693Y-2.1575
X4.9815Y-2.1327
X4.9854Y-1.7205
X5.0252Y-1.9929
X5.0268Y-1.752
X5.0268Y-2.2217
X5.0315Y-1.837
X5.0335Y-2.2456
X5.0398Y-2.1819
X5.0461Y-2.2209
X5.0472Y-1.9449
X5.0476Y-2.2535
X5.052Y-2.013
X5.0669Y-2.2205
X5.0669Y-2.2508
X5.0677Y-2.1917
X5.0744Y-1.865
X5.0815Y-2.2764
X5.0823Y-2.174
X5.0882Y-1.9949
X5.0907Y-1.8398
X5.0972Y-2.0843
X5.1063Y-1.7382
X5.1311Y-2.0472
X5.1319Y-2.1694
X5.139Y-2.1945
X5.1417Y-2.2327
X5.1531Y-2.1689
X5.1583Y-1.7343
X5.163Y-1.689
X5.1691Y-2.1758
X5.1732Y-1.8406
X5.1776Y-2.0843
X5.1921Y-2.0142
X5.1941Y-1.7382
X5.2087Y-1.752
X5.2114Y-2.035
X5.2114Y-2.239
X5.2193Y-1.961
X5.226Y-2.0516
X5.2354Y-1.9941
X5.2394Y-2.0764
X5.2402Y-1.8764
X5.2984Y-2.2992
X5.3181Y-2.2303
X5.3258Y-2.2715
X5.335Y-1.7303
X5.3386Y-1.9343
X5.3516Y-1.687
X5.3874Y-1.7303
X5.3874Y-1.8457
X5.3894Y-2.6091
X5.3933Y-2.2909
X5.5694Y-1.6383
X5.6874Y-1.8378
X5.6878Y-1.7358
X5.8169Y-2.1256
X5.8583Y-1.8098
X5.8764Y-2.1063
X5.8783Y-1.5965
X5.8846Y-2.0051
X5.9386Y-2.1614
X5.95Y-2.0925
X5.998Y-2.4843
X6.0087Y-1.8114
X6.0114Y-1.9134
X6.0252Y-1.7047
X6.1921Y-2.5961
X6.2024Y-2.5114
X6.2094Y-2.537
X6.2465Y-2.5394
X6.2732Y-2.4531
X6.3319Y-2.6028
X6.4268Y-2.4283
X6.4354Y-2.5531
X6.4421Y-2.5209
X6.5374Y-1.522
X6.5484Y-1.5028
X6.5553Y-2.3561
X6.5606Y-1.8087
X6.5669Y-1.7102
X6.6453Y-1.5287
X6.6685Y-1.5039
T2
X3.5678Y-1.1923
X3.5678Y-2.5116
X3.5922Y-2.2496
X3.6452Y-2.7353
X3.6569Y-1.8802
X3.6666Y-1.4142
X3.7337Y-1.6769
X3.7936Y-1.1923
X3.8405Y-2.1188
X3.875Y-2.4668
X3.8753Y-1.4594
X3.8778Y-1.8935
X3.9089Y-2.6376
X3.925Y-2.6276
X3.9534Y-2.3139
X3.9594Y-1.6769
X4.0638Y-1.6398
X4.0963Y-1.4296
X4.1071Y-1.1923
X4.1847Y-1.8935
X4.1893Y-2.1773
X4.219Y-2.7277
X4.2403Y-2.4895
X4.2488Y-1.3623
X4.3143Y-1.449
X4.3499Y-1.4346
X4.4104Y-1.8935
X4.415Y-2.1773
X4.421Y-1.1923
X4.4341Y-2.7003
X4.5736Y-1.7088
X4.613Y-2.5214
X4.6802Y-1.2167
X4.7234Y-1.4434
X4.7352Y-2.7215
X4.7584Y-1.8076
X4.7816Y-2.0378
X4.7836Y-2.3609
X4.8501Y-1.6155
X4.8673Y-2.307
X4.9138Y-1.8642
X4.9179Y-2.534
X4.9422Y-2.1501
X4.9443Y-2.2165
X4.9749Y-1.1923
X4.9979Y-1.8871
X4.9983Y-1.9648
X4.9993Y-2.2859
X5.0123Y-2.2996
X5.0717Y-1.5362
X5.0829Y-2.2169
X5.1034Y-2.2439
X5.1317Y-1.838
X5.1378Y-1.7409
X5.1419Y-2.7353
X5.1519Y-1.9271
X5.1636Y-2.2407
X5.2006Y-1.1923
X5.2047Y-1.9449
X5.2061Y-1.6263
X5.2272Y-1.7618
X5.2484Y-2.1079
X5.2499Y-1.7661
X5.2502Y-2.3782
X5.2597Y-2.4569
X5.2834Y-2.1048
X5.3258Y-2.3928
X5.351Y-1.5575
X5.3634Y-2.0592
X5.3688Y-2.1741
X5.4113Y-2.1002
X5.4264Y-1.1923
X5.4528Y-1.8282
X5.4688Y-2.3118
X5.5288Y-2.088
X5.5419Y-2.7353
X5.6521Y-1.1923
X5.6793Y-2.4545
X5.7177Y-2.1654
X5.741Y-2.4704
X5.7445Y-1.5272
X5.745Y-1.8579
X5.7533Y-2.0291
X5.7577Y-2.073
X5.7761Y-1.8756
X5.8329Y-2.0904
X5.8708Y-2.7353
X5.9042Y-1.3676
X5.9734Y-2.4371
X5.9867Y-2.5796
X6.0263Y-2.195
X6.0273Y-1.9718
X6.0868Y-1.2618
X6.0943Y-1.743
X6.2003Y-1.5605
X6.2212Y-2.7353
X6.2477Y-2.4761
X6.3125Y-1.2618
X6.3823Y-2.3066
X6.4256Y-1.5057
X6.447Y-2.7353
X6.4567Y-1.9638
X6.492Y-1.7252
X6.6018Y-1.423
X6.6464Y-1.5502
X6.6617Y-1.4228
X6.6727Y-1.1923
X6.6727Y-2.0846
X6.6727Y-2.3846
X6.6727Y-2.7353
T3
X3.6157Y-1.2407
X3.6157Y-1.3407
X3.6157Y-1.8165
X3.6157Y-1.9165
X3.6157Y-2.1051
X3.6157Y-2.2051
X3.6157Y-2.3051
X3.6161Y-1.5272
X3.6161Y-1.6272
X4.5677Y-2.687
X4.6677Y-2.687
X4.7677Y-2.687
X4.8677Y-2.687
X4.9677Y-2.687
X5.0677Y-2.687
X5.1677Y-2.687
X5.2677Y-2.687
X5.3677Y-2.687
X5.4677Y-2.687
X5.5677Y-2.687
X5.6677Y-2.687
X6.6248Y-1.5925
X6.6248Y-1.6925
X6.6248Y-1.7925
X6.6248Y-1.8925
X6.6252Y-2.0862
X6.6252Y-2.1862
X6.6252Y-2.2862
X6.6252Y-2.3862
X6.6252Y-2.4862
X6.6252Y-2.5862
X6.6252Y-2.6862
M30
