%TF.GenerationSoftware,KiCad,Pcbnew,10.0.1*%
%TF.CreationDate,2026-06-28T20:08:25+02:00*%
%TF.ProjectId,adau1701-breakout,61646175-3137-4303-912d-627265616b6f,rev?*%
%TF.SameCoordinates,Original*%
%TF.FileFunction,Copper,L2,Bot*%
%TF.FilePolarity,Positive*%
%FSLAX46Y46*%
G04 Gerber Fmt 4.6, Leading zero omitted, Abs format (unit mm)*
G04 Created by KiCad (PCBNEW 10.0.1) date 2026-06-28 20:08:25*
%MOMM*%
%LPD*%
G01*
G04 APERTURE LIST*
%TA.AperFunction,ComponentPad*%
%ADD10R,1.700000X1.700000*%
%TD*%
%TA.AperFunction,ComponentPad*%
%ADD11C,1.700000*%
%TD*%
%TA.AperFunction,ViaPad*%
%ADD12C,0.250000*%
%TD*%
%TA.AperFunction,ViaPad*%
%ADD13C,0.250250*%
%TD*%
%TA.AperFunction,Conductor*%
%ADD14C,0.101600*%
%TD*%
%TA.AperFunction,Conductor*%
%ADD15C,0.101702*%
%TD*%
G04 APERTURE END LIST*
D10*
%TO.P,J8,1,Pin_1_1*%
%TO.N,Net-(J8-Pin_1)*%
X91840000Y-31515000D03*
D11*
%TO.P,J8,2,Pin_2_2*%
%TO.N,GND*%
X91840000Y-34055000D03*
%TD*%
D10*
%TO.P,J5,1,Pin_1_1*%
%TO.N,Net-(J5-Pin_1)*%
X168280000Y-68230000D03*
D11*
%TO.P,J5,2,Pin_2_2*%
%TO.N,Net-(J5-Pin_2)*%
X168280000Y-65690000D03*
%TO.P,J5,3,Pin_3_3*%
%TO.N,Net-(J5-Pin_3)*%
X168280000Y-63150000D03*
%TO.P,J5,4,Pin_4_4*%
%TO.N,Net-(J5-Pin_4)*%
X168280000Y-60610000D03*
%TO.P,J5,5,Pin_5_5*%
%TO.N,Net-(J5-Pin_5)*%
X168280000Y-58070000D03*
%TO.P,J5,6,Pin_6_6*%
%TO.N,Net-(J5-Pin_6)*%
X168280000Y-55530000D03*
%TO.P,J5,7,Pin_7_7*%
%TO.N,Net-(J5-Pin_7)*%
X168280000Y-52990000D03*
%TD*%
D10*
%TO.P,J6,1,Pin_1_1*%
%TO.N,/RST*%
X91840000Y-53470000D03*
D11*
%TO.P,J6,2,Pin_2_2*%
%TO.N,/SLF_BOOT*%
X91840000Y-56010000D03*
%TO.P,J6,3,Pin_3_3*%
%TO.N,/WP*%
X91840000Y-58550000D03*
%TD*%
D10*
%TO.P,J1,1,Pin_1_1*%
%TO.N,/SCL*%
X91850000Y-38790000D03*
D11*
%TO.P,J1,2,Pin_2_2*%
%TO.N,/SDA*%
X91850000Y-41330000D03*
%TD*%
D10*
%TO.P,J2,1,Pin_1_1*%
%TO.N,Net-(J2-Pin_1)*%
X116020000Y-68250000D03*
D11*
%TO.P,J2,2,Pin_2_2*%
%TO.N,Net-(J2-Pin_2)*%
X118560000Y-68250000D03*
%TO.P,J2,3,Pin_3_3*%
%TO.N,Net-(J2-Pin_3)*%
X121100000Y-68250000D03*
%TO.P,J2,4,Pin_4_4*%
%TO.N,Net-(J2-Pin_4)*%
X123640000Y-68250000D03*
%TO.P,J2,5,Pin_5_5*%
%TO.N,Net-(J2-Pin_5)*%
X126180000Y-68250000D03*
%TO.P,J2,6,Pin_6_6*%
%TO.N,Net-(J2-Pin_6)*%
X128720000Y-68250000D03*
%TO.P,J2,7,Pin_7_7*%
%TO.N,Net-(J2-Pin_7)*%
X131260000Y-68250000D03*
%TO.P,J2,8,Pin_8_8*%
%TO.N,Net-(J2-Pin_8)*%
X133800000Y-68250000D03*
%TO.P,J2,9,Pin_9_9*%
%TO.N,Net-(J2-Pin_9)*%
X136340000Y-68250000D03*
%TO.P,J2,10,Pin_10_10*%
%TO.N,Net-(J2-Pin_10)*%
X138880000Y-68250000D03*
%TO.P,J2,11,Pin_11_11*%
%TO.N,Net-(J2-Pin_11)*%
X141420000Y-68250000D03*
%TO.P,J2,12,Pin_12_12*%
%TO.N,Net-(J2-Pin_12)*%
X143960000Y-68250000D03*
%TD*%
D10*
%TO.P,J3,1,Pin_1_1*%
%TO.N,Net-(J3-Pin_1)*%
X91840000Y-46140000D03*
D11*
%TO.P,J3,2,Pin_2_2*%
%TO.N,Net-(J3-Pin_2)*%
X91840000Y-48680000D03*
%TD*%
D10*
%TO.P,J4,1,Pin_1_1*%
%TO.N,/adc_filt/VOUT0*%
X168270000Y-48070000D03*
D11*
%TO.P,J4,2,Pin_2_2*%
%TO.N,/adc_filt/VOUT1*%
X168270000Y-45530000D03*
%TO.P,J4,3,Pin_3_3*%
%TO.N,/adc_filt/VOUT2*%
X168270000Y-42990000D03*
%TO.P,J4,4,Pin_4_4*%
%TO.N,/adc_filt/VOUT3*%
X168270000Y-40450000D03*
%TD*%
D12*
%TO.N,+3V3*%
X150840000Y-54900000D03*
X152690000Y-48600000D03*
X158660000Y-64500000D03*
X100820000Y-60310000D03*
X127680000Y-44500000D03*
X100820000Y-47320000D03*
X157540000Y-63790000D03*
X132300000Y-44500000D03*
X149310000Y-40550000D03*
%TO.N,/MCLK0*%
X135600000Y-49130000D03*
X152350000Y-63100000D03*
D13*
%TO.N,GND*%
X131156285Y-56914130D03*
X99287299Y-66994636D03*
X133597650Y-62405584D03*
X151723367Y-61901301D03*
X133348423Y-44859511D03*
X145911264Y-38790467D03*
X146135000Y-51538169D03*
X163752965Y-69476697D03*
X112293221Y-30283303D03*
X129627387Y-56994039D03*
X126983428Y-58062081D03*
D12*
X128010000Y-55420000D03*
D13*
X118877486Y-30902938D03*
X135275000Y-60777891D03*
X154795834Y-44272240D03*
X98432265Y-37067646D03*
X132096338Y-30283303D03*
X90623303Y-30283303D03*
X163210489Y-38244863D03*
X130605368Y-69476697D03*
X140432137Y-53034935D03*
X100569117Y-42594413D03*
X169486697Y-30283303D03*
X107920624Y-34602791D03*
X154605034Y-32050438D03*
X96357035Y-30283303D03*
X169486697Y-52948902D03*
D12*
X128200000Y-49400000D03*
D13*
X149117250Y-69476697D03*
X92884509Y-47756574D03*
X169486697Y-60568902D03*
D12*
X128890000Y-47370000D03*
D13*
X162110907Y-58587027D03*
X137830071Y-30283303D03*
D12*
X121630000Y-52930000D03*
D13*
X132233935Y-41307780D03*
X120863067Y-45913973D03*
X148154511Y-53095489D03*
X137446390Y-53346100D03*
D12*
X132570000Y-49810000D03*
D13*
X133308711Y-53540777D03*
X164897120Y-43819388D03*
X140765368Y-69476697D03*
X120273328Y-69125633D03*
X146711684Y-47641289D03*
X126956862Y-49905429D03*
D12*
X130330000Y-52000000D03*
X125570000Y-45240000D03*
D13*
X138906469Y-58719373D03*
X116169190Y-43403537D03*
X107162254Y-69284562D03*
X90623303Y-63795366D03*
D12*
X131930000Y-44150000D03*
D13*
X128822199Y-39018935D03*
X145230777Y-55000825D03*
X157486911Y-39635631D03*
X112625288Y-68587981D03*
X158019232Y-69476697D03*
D12*
X130890000Y-55090000D03*
D13*
X107702422Y-63234511D03*
X123192705Y-41033139D03*
X133355743Y-60405608D03*
X97549520Y-53817454D03*
X160338767Y-32050438D03*
X153094511Y-50084941D03*
X168817786Y-39374280D03*
X117169597Y-64043672D03*
X119975432Y-36663406D03*
D12*
X129700000Y-44150000D03*
D13*
X143563804Y-30283303D03*
D12*
X134580000Y-58400000D03*
D13*
X145923208Y-47190897D03*
X125532107Y-54611537D03*
X109584247Y-36803872D03*
X169207115Y-36138274D03*
X129104730Y-56308311D03*
X163999511Y-49879654D03*
X121453299Y-51759636D03*
X94835395Y-42594388D03*
X135915143Y-39561289D03*
X106407267Y-55304511D03*
X149965625Y-34736106D03*
X99694052Y-66741966D03*
X123629135Y-58597534D03*
X121504511Y-59966791D03*
X100415489Y-58774146D03*
X98495820Y-48094511D03*
X104047022Y-36312011D03*
X144254353Y-62343508D03*
X158691803Y-62894109D03*
X106291000Y-48094511D03*
X145821721Y-62748071D03*
X152061391Y-65521193D03*
X91242111Y-57140566D03*
X130499686Y-44219732D03*
X126947325Y-47932601D03*
X126362605Y-30283303D03*
X169486697Y-69476697D03*
X146244850Y-52654888D03*
X104320361Y-30283303D03*
X153069213Y-55751761D03*
X130345908Y-46684305D03*
X110487300Y-36439525D03*
X112024732Y-48094511D03*
X93132310Y-35919447D03*
X92587013Y-69476697D03*
X167685297Y-36143898D03*
X132770918Y-44749862D03*
X112141000Y-55304511D03*
X125584924Y-56300265D03*
X124915406Y-64362528D03*
X138501833Y-46435894D03*
X127312048Y-58410638D03*
X136230413Y-52303796D03*
X98424000Y-62657970D03*
D12*
%TO.N,Net-(J5-Pin_6)*%
X157718989Y-64438989D03*
X157280000Y-65940000D03*
%TO.N,Net-(J5-Pin_7)*%
X159340000Y-62310000D03*
X160830000Y-66110000D03*
%TO.N,Net-(J5-Pin_5)*%
X163460000Y-64850000D03*
X166505000Y-59845000D03*
%TO.N,Net-(J5-Pin_1)*%
X163240000Y-61680000D03*
X163630000Y-64030000D03*
%TO.N,/adc_filt/VOUT3*%
X168790000Y-38830000D03*
X169380000Y-38200000D03*
%TO.N,Net-(U6B--)*%
X153040000Y-43300000D03*
X141462500Y-41612500D03*
%TO.N,/SDA*%
X135275000Y-57695000D03*
D13*
X134198709Y-53462326D03*
D12*
X135080000Y-56650000D03*
D13*
%TO.N,/SCL*%
X103220750Y-41651234D03*
X132199872Y-49399365D03*
X124811677Y-47349735D03*
X136368277Y-55221979D03*
X130858421Y-48949310D03*
D12*
%TO.N,Net-(U6B-+)*%
X152620000Y-46010000D03*
X148800000Y-45970000D03*
%TO.N,Net-(U1-FILTD)*%
X131020000Y-44050600D03*
X131140000Y-42900000D03*
%TO.N,Net-(U5B-+)*%
X151130000Y-53150000D03*
X149260000Y-53500000D03*
%TO.N,Net-(U1-CM)*%
X135930000Y-42850000D03*
X131400000Y-46750000D03*
%TO.N,/adc_filt/VOUT1*%
X166800000Y-43440000D03*
X166330000Y-38170000D03*
%TO.N,Net-(U1-PLL_LF)*%
X133100000Y-47660000D03*
X126630000Y-43700000D03*
%TO.N,Net-(U5B--)*%
X149470000Y-50930000D03*
X147750000Y-53990000D03*
%TO.N,Net-(U6A--)*%
X144470000Y-44090000D03*
X144460000Y-46680000D03*
%TO.N,/WP*%
X131295000Y-55265000D03*
X121550000Y-56260000D03*
%TO.N,+1V8*%
X119550000Y-36880000D03*
X129470000Y-52940000D03*
X124340000Y-43290000D03*
X131510000Y-52940000D03*
X119550000Y-38390000D03*
X126530000Y-54170000D03*
%TO.N,Net-(U1-FILTA)*%
X127800000Y-46660000D03*
X124660000Y-45190000D03*
%TO.N,/adc_filt/IN3*%
X136840000Y-46880000D03*
X129305000Y-46730000D03*
%TO.N,Net-(J2-Pin_5)*%
X126190000Y-57220000D03*
X126220000Y-54800000D03*
X126190000Y-56390000D03*
X127640000Y-50620000D03*
%TO.N,Net-(J2-Pin_6)*%
X128700000Y-56400000D03*
X128720000Y-55670000D03*
X128700000Y-57170000D03*
X128320000Y-51130000D03*
%TO.N,Net-(J2-Pin_2)*%
X118560000Y-66300000D03*
X123950000Y-51780000D03*
%TO.N,Net-(J2-Pin_1)*%
X116020000Y-66100000D03*
X123190000Y-52150000D03*
%TO.N,Net-(J2-Pin_8)*%
X127850000Y-57037400D03*
X129070000Y-57820000D03*
X127680000Y-56430000D03*
%TO.N,Net-(J2-Pin_7)*%
X128170000Y-56410000D03*
X128210000Y-57240000D03*
%TO.N,Net-(J2-Pin_11)*%
X130350000Y-55102600D03*
X130530000Y-55740000D03*
X129090000Y-55220000D03*
X130600000Y-56710000D03*
%TO.N,Net-(J2-Pin_12)*%
X136990000Y-58190000D03*
X133080000Y-52740000D03*
%TO.N,Net-(J2-Pin_10)*%
X136890000Y-66270000D03*
X132740000Y-52110000D03*
%TO.N,Net-(J2-Pin_9)*%
X132370000Y-56870000D03*
X132370000Y-51690000D03*
%TO.N,Net-(J2-Pin_4)*%
X123640000Y-66210000D03*
X131880000Y-51160000D03*
%TO.N,Net-(J2-Pin_3)*%
X124720000Y-53230000D03*
X121100000Y-66330000D03*
X129240000Y-50670000D03*
X132980000Y-50650000D03*
%TO.N,/adc_filt/IN4*%
X136840000Y-43950000D03*
X135510000Y-43950000D03*
%TO.N,/adc_filt/VOUT0*%
X166640000Y-45940000D03*
X166050000Y-38660000D03*
%TD*%
%TO.N,+3V3*%
D14*
X158660000Y-64500000D02*
X157950000Y-63790000D01*
X136250000Y-40550000D02*
X133825000Y-42975000D01*
X133825000Y-42975000D02*
X132300000Y-44500000D01*
X150840000Y-54900000D02*
X152690000Y-53050000D01*
X149310000Y-40550000D02*
X136250000Y-40550000D01*
X100820000Y-60310000D02*
X100820000Y-47320000D01*
X127680000Y-44500000D02*
X132300000Y-44500000D01*
X152690000Y-53050000D02*
X152690000Y-48600000D01*
X157950000Y-63790000D02*
X157540000Y-63790000D01*
%TO.N,/MCLK0*%
X135630000Y-49160000D02*
X138410000Y-49160000D01*
X138410000Y-49160000D02*
X152350000Y-63100000D01*
X135600000Y-49130000D02*
X135630000Y-49160000D01*
%TO.N,Net-(J5-Pin_6)*%
X157718989Y-65501011D02*
X157280000Y-65940000D01*
X157718989Y-64438989D02*
X157718989Y-65501011D01*
%TO.N,Net-(J5-Pin_7)*%
X159340000Y-62310000D02*
X159340000Y-64620000D01*
X159340000Y-64620000D02*
X160830000Y-66110000D01*
%TO.N,Net-(J5-Pin_5)*%
X166505000Y-59845000D02*
X165870000Y-60480000D01*
X165870000Y-60480000D02*
X165870000Y-62440000D01*
X165870000Y-62440000D02*
X163460000Y-64850000D01*
%TO.N,Net-(J5-Pin_1)*%
X163630000Y-62070000D02*
X163240000Y-61680000D01*
X163630000Y-64030000D02*
X163630000Y-62070000D01*
%TO.N,/adc_filt/VOUT3*%
X168790000Y-38830000D02*
X168790000Y-38790000D01*
X168790000Y-38790000D02*
X169380000Y-38200000D01*
%TO.N,Net-(U6B--)*%
X141462500Y-41612500D02*
X141915000Y-41160000D01*
X150900000Y-41160000D02*
X153040000Y-43300000D01*
X141915000Y-41160000D02*
X150900000Y-41160000D01*
%TO.N,/SDA*%
D15*
X133017269Y-50229549D02*
X134198709Y-51410990D01*
X94667844Y-42998975D02*
X124562702Y-42998975D01*
X92998869Y-41330000D02*
X94667844Y-42998975D01*
X128581355Y-47536227D02*
X129052353Y-48007224D01*
X91850000Y-41330000D02*
X92706000Y-41330000D01*
X132579852Y-50229549D02*
X133017269Y-50229549D01*
X92706000Y-41330000D02*
X92998869Y-41330000D01*
X130357527Y-48007224D02*
X132579852Y-50229549D01*
D14*
X135275000Y-57695000D02*
X135080000Y-57500000D01*
D15*
X129052353Y-48007224D02*
X130357527Y-48007224D01*
D14*
X135080000Y-57500000D02*
X135080000Y-56650000D01*
D15*
X134198709Y-51410990D02*
X134198709Y-53462326D01*
X124562702Y-42998975D02*
X128581355Y-47017629D01*
X128581355Y-47017629D02*
X128581355Y-47536227D01*
%TO.N,/SCL*%
X132590820Y-49399365D02*
X132199872Y-49399365D01*
X100359516Y-38790000D02*
X103220750Y-41651234D01*
X127532961Y-47349735D02*
X124811677Y-47349735D01*
X136368277Y-53176823D02*
X132590820Y-49399365D01*
X92992869Y-38790000D02*
X100359516Y-38790000D01*
X136368277Y-55221979D02*
X136368277Y-53176823D01*
X92700000Y-38790000D02*
X92992869Y-38790000D01*
X130858421Y-48949310D02*
X129132536Y-48949310D01*
X129132536Y-48949310D02*
X127532961Y-47349735D01*
X91850000Y-38790000D02*
X92700000Y-38790000D01*
%TO.N,Net-(U6B-+)*%
D14*
X148800000Y-45970000D02*
X152580000Y-45970000D01*
X152580000Y-45970000D02*
X152620000Y-46010000D01*
%TO.N,Net-(U1-FILTD)*%
X131140000Y-43930600D02*
X131020000Y-44050600D01*
X131140000Y-42900000D02*
X131140000Y-43930600D01*
%TO.N,Net-(U5B-+)*%
X150780000Y-53500000D02*
X151130000Y-53150000D01*
X149260000Y-53500000D02*
X150780000Y-53500000D01*
%TO.N,Net-(U1-CM)*%
X131400000Y-46750000D02*
X132030000Y-46750000D01*
X132030000Y-46750000D02*
X135930000Y-42850000D01*
%TO.N,/adc_filt/VOUT1*%
X166800000Y-43440000D02*
X166800000Y-38640000D01*
X166800000Y-38640000D02*
X166330000Y-38170000D01*
%TO.N,Net-(U1-PLL_LF)*%
X129842697Y-47660000D02*
X133100000Y-47660000D01*
X126630000Y-43700000D02*
X126630000Y-44447303D01*
X126630000Y-44447303D02*
X129842697Y-47660000D01*
%TO.N,Net-(U5B--)*%
X147750000Y-52650000D02*
X149470000Y-50930000D01*
X147750000Y-53990000D02*
X147750000Y-52650000D01*
%TO.N,Net-(U6A--)*%
X144460000Y-46680000D02*
X144460000Y-44100000D01*
X144460000Y-44100000D02*
X144470000Y-44090000D01*
%TO.N,/WP*%
X131180000Y-55380000D02*
X129590000Y-55380000D01*
X129590000Y-55380000D02*
X128950000Y-56020000D01*
X131295000Y-55265000D02*
X131180000Y-55380000D01*
X128950000Y-56020000D02*
X121790000Y-56020000D01*
X121790000Y-56020000D02*
X121550000Y-56260000D01*
%TO.N,+1V8*%
X119550000Y-36880000D02*
X119550000Y-38390000D01*
X124340000Y-43290000D02*
X124340000Y-51980000D01*
X131510000Y-52940000D02*
X129470000Y-52940000D01*
X124340000Y-51980000D02*
X126530000Y-54170000D01*
%TO.N,Net-(U1-FILTA)*%
X127800000Y-46660000D02*
X126130000Y-46660000D01*
X126130000Y-46660000D02*
X124660000Y-45190000D01*
%TO.N,/adc_filt/IN3*%
X129755000Y-47180000D02*
X136540000Y-47180000D01*
X136540000Y-47180000D02*
X136840000Y-46880000D01*
X129305000Y-46730000D02*
X129755000Y-47180000D01*
%TO.N,Net-(J2-Pin_5)*%
X126190000Y-57220000D02*
X126190000Y-56390000D01*
X126220000Y-54800000D02*
X126300000Y-54800000D01*
X126300000Y-54800000D02*
X127640000Y-53460000D01*
X127640000Y-53460000D02*
X127640000Y-50620000D01*
%TO.N,Net-(J2-Pin_6)*%
X128720000Y-55670000D02*
X128720000Y-51530000D01*
X128700000Y-57170000D02*
X128700000Y-56400000D01*
X128720000Y-51530000D02*
X128320000Y-51130000D01*
%TO.N,Net-(J2-Pin_2)*%
X118560000Y-57172303D02*
X123950000Y-51782303D01*
X118560000Y-66300000D02*
X118560000Y-57172303D01*
X123950000Y-51782303D02*
X123950000Y-51780000D01*
%TO.N,Net-(J2-Pin_1)*%
X116020000Y-59320000D02*
X123190000Y-52150000D01*
X116020000Y-66100000D02*
X116020000Y-59320000D01*
%TO.N,Net-(J2-Pin_8)*%
X129070000Y-57820000D02*
X128397697Y-57820000D01*
X127850000Y-56600000D02*
X127680000Y-56430000D01*
X128397697Y-57820000D02*
X127850000Y-57272303D01*
X127850000Y-57272303D02*
X127850000Y-57037400D01*
X127850000Y-57037400D02*
X127850000Y-56600000D01*
%TO.N,Net-(J2-Pin_7)*%
X128210000Y-57240000D02*
X128210000Y-56450000D01*
X128210000Y-56450000D02*
X128170000Y-56410000D01*
%TO.N,Net-(J2-Pin_11)*%
X129207400Y-55102600D02*
X129090000Y-55220000D01*
X130600000Y-56710000D02*
X130600000Y-55810000D01*
X130350000Y-55102600D02*
X129207400Y-55102600D01*
X130600000Y-55810000D02*
X130530000Y-55740000D01*
%TO.N,Net-(J2-Pin_12)*%
X136990000Y-58190000D02*
X136990000Y-56650000D01*
X136990000Y-56650000D02*
X133080000Y-52740000D01*
%TO.N,Net-(J2-Pin_10)*%
X132730000Y-62110000D02*
X132730000Y-52120000D01*
X132730000Y-52120000D02*
X132740000Y-52110000D01*
X136890000Y-66270000D02*
X132730000Y-62110000D01*
%TO.N,Net-(J2-Pin_9)*%
X132370000Y-56870000D02*
X132370000Y-51690000D01*
%TO.N,Net-(J2-Pin_4)*%
X131880000Y-57970000D02*
X131880000Y-51160000D01*
X123640000Y-66210000D02*
X131880000Y-57970000D01*
%TO.N,Net-(J2-Pin_3)*%
X122916800Y-53230000D02*
X124720000Y-53230000D01*
X129240000Y-50670000D02*
X132960000Y-50670000D01*
X121100000Y-55046800D02*
X122916800Y-53230000D01*
X132960000Y-50670000D02*
X132980000Y-50650000D01*
X121100000Y-66330000D02*
X121100000Y-55046800D01*
%TO.N,/adc_filt/IN4*%
X136840000Y-43950000D02*
X135510000Y-43950000D01*
%TO.N,/adc_filt/VOUT0*%
X166640000Y-45940000D02*
X166050000Y-45350000D01*
X166050000Y-45350000D02*
X166050000Y-38660000D01*
%TD*%
%TA.AperFunction,Conductor*%
%TO.N,GND*%
G36*
X132530892Y-49555743D02*
G01*
X133031774Y-50056625D01*
X133035201Y-50064898D01*
X133031774Y-50073171D01*
X133023501Y-50076598D01*
X132648053Y-50076598D01*
X132639780Y-50073171D01*
X132213172Y-49646563D01*
X132209745Y-49638290D01*
X132213172Y-49630017D01*
X132221445Y-49626590D01*
X132245068Y-49626590D01*
X132245070Y-49626590D01*
X132328585Y-49591997D01*
X132364839Y-49555743D01*
X132373112Y-49552316D01*
X132522619Y-49552316D01*
X132530892Y-49555743D01*
G37*
%TD.AperFunction*%
%TA.AperFunction,Conductor*%
G36*
X124587073Y-43239652D02*
G01*
X127760613Y-46413192D01*
X127764040Y-46421465D01*
X127760613Y-46429738D01*
X127755825Y-46432299D01*
X127755891Y-46432459D01*
X127671359Y-46467473D01*
X127635159Y-46503673D01*
X127626886Y-46507100D01*
X126198180Y-46507100D01*
X126189907Y-46503673D01*
X124890527Y-45204293D01*
X124887100Y-45196020D01*
X124887100Y-45144828D01*
X124887099Y-45144824D01*
X124874327Y-45113992D01*
X124852526Y-45061358D01*
X124788642Y-44997474D01*
X124788640Y-44997473D01*
X124705175Y-44962900D01*
X124705173Y-44962900D01*
X124614827Y-44962900D01*
X124614824Y-44962900D01*
X124531359Y-44997473D01*
X124512873Y-45015959D01*
X124504600Y-45019386D01*
X124496327Y-45015959D01*
X124492900Y-45007686D01*
X124492900Y-43463114D01*
X124496327Y-43454841D01*
X124532525Y-43418643D01*
X124532526Y-43418642D01*
X124567100Y-43335173D01*
X124567100Y-43247925D01*
X124570527Y-43239652D01*
X124578800Y-43236225D01*
X124587073Y-43239652D01*
G37*
%TD.AperFunction*%
%TA.AperFunction,Conductor*%
G36*
X169729692Y-30040309D02*
G01*
X169733119Y-30048582D01*
X169733119Y-69711419D01*
X169729692Y-69719692D01*
X169721419Y-69723119D01*
X90388582Y-69723119D01*
X90380309Y-69719692D01*
X90376882Y-69711419D01*
X90376882Y-67389945D01*
X115067900Y-67389945D01*
X115067900Y-69110053D01*
X115073824Y-69139836D01*
X115073826Y-69139842D01*
X115090979Y-69165512D01*
X115096390Y-69173610D01*
X115130163Y-69196176D01*
X115159945Y-69202100D01*
X116880054Y-69202099D01*
X116909837Y-69196176D01*
X116909840Y-69196173D01*
X116909842Y-69196173D01*
X116921248Y-69188551D01*
X116943610Y-69173610D01*
X116966176Y-69139837D01*
X116972100Y-69110055D01*
X116972099Y-68156226D01*
X117607900Y-68156226D01*
X117607900Y-68343773D01*
X117644488Y-68527717D01*
X117716259Y-68700987D01*
X117716263Y-68700995D01*
X117820454Y-68856927D01*
X117820457Y-68856931D01*
X117953068Y-68989542D01*
X117953072Y-68989545D01*
X118109004Y-69093736D01*
X118109008Y-69093738D01*
X118109011Y-69093740D01*
X118282283Y-69165512D01*
X118466226Y-69202100D01*
X118466227Y-69202100D01*
X118653773Y-69202100D01*
X118653774Y-69202100D01*
X118837717Y-69165512D01*
X119010989Y-69093740D01*
X119166928Y-68989545D01*
X119299545Y-68856928D01*
X119403740Y-68700989D01*
X119475512Y-68527717D01*
X119512100Y-68343774D01*
X119512100Y-68156226D01*
X120147900Y-68156226D01*
X120147900Y-68343773D01*
X120184488Y-68527717D01*
X120256259Y-68700987D01*
X120256263Y-68700995D01*
X120360454Y-68856927D01*
X120360457Y-68856931D01*
X120493068Y-68989542D01*
X120493072Y-68989545D01*
X120649004Y-69093736D01*
X120649008Y-69093738D01*
X120649011Y-69093740D01*
X120822283Y-69165512D01*
X121006226Y-69202100D01*
X121006227Y-69202100D01*
X121193773Y-69202100D01*
X121193774Y-69202100D01*
X121377717Y-69165512D01*
X121550989Y-69093740D01*
X121706928Y-68989545D01*
X121839545Y-68856928D01*
X121943740Y-68700989D01*
X122015512Y-68527717D01*
X122052100Y-68343774D01*
X122052100Y-68156226D01*
X122687900Y-68156226D01*
X122687900Y-68343773D01*
X122724488Y-68527717D01*
X122796259Y-68700987D01*
X122796263Y-68700995D01*
X122900454Y-68856927D01*
X122900457Y-68856931D01*
X123033068Y-68989542D01*
X123033072Y-68989545D01*
X123189004Y-69093736D01*
X123189008Y-69093738D01*
X123189011Y-69093740D01*
X123362283Y-69165512D01*
X123546226Y-69202100D01*
X123546227Y-69202100D01*
X123733773Y-69202100D01*
X123733774Y-69202100D01*
X123917717Y-69165512D01*
X124090989Y-69093740D01*
X124246928Y-68989545D01*
X124379545Y-68856928D01*
X124483740Y-68700989D01*
X124555512Y-68527717D01*
X124592100Y-68343774D01*
X124592100Y-68156226D01*
X125227900Y-68156226D01*
X125227900Y-68343773D01*
X125264488Y-68527717D01*
X125336259Y-68700987D01*
X125336263Y-68700995D01*
X125440454Y-68856927D01*
X125440457Y-68856931D01*
X125573068Y-68989542D01*
X125573072Y-68989545D01*
X125729004Y-69093736D01*
X125729008Y-69093738D01*
X125729011Y-69093740D01*
X125902283Y-69165512D01*
X126086226Y-69202100D01*
X126086227Y-69202100D01*
X126273773Y-69202100D01*
X126273774Y-69202100D01*
X126457717Y-69165512D01*
X126630989Y-69093740D01*
X126786928Y-68989545D01*
X126919545Y-68856928D01*
X127023740Y-68700989D01*
X127095512Y-68527717D01*
X127132100Y-68343774D01*
X127132100Y-68156226D01*
X127767900Y-68156226D01*
X127767900Y-68343773D01*
X127804488Y-68527717D01*
X127876259Y-68700987D01*
X127876263Y-68700995D01*
X127980454Y-68856927D01*
X127980457Y-68856931D01*
X128113068Y-68989542D01*
X128113072Y-68989545D01*
X128269004Y-69093736D01*
X128269008Y-69093738D01*
X128269011Y-69093740D01*
X128442283Y-69165512D01*
X128626226Y-69202100D01*
X128626227Y-69202100D01*
X128813773Y-69202100D01*
X128813774Y-69202100D01*
X128997717Y-69165512D01*
X129170989Y-69093740D01*
X129326928Y-68989545D01*
X129459545Y-68856928D01*
X129563740Y-68700989D01*
X129635512Y-68527717D01*
X129672100Y-68343774D01*
X129672100Y-68156226D01*
X130307900Y-68156226D01*
X130307900Y-68343773D01*
X130344488Y-68527717D01*
X130416259Y-68700987D01*
X130416263Y-68700995D01*
X130520454Y-68856927D01*
X130520457Y-68856931D01*
X130653068Y-68989542D01*
X130653072Y-68989545D01*
X130809004Y-69093736D01*
X130809008Y-69093738D01*
X130809011Y-69093740D01*
X130982283Y-69165512D01*
X131166226Y-69202100D01*
X131166227Y-69202100D01*
X131353773Y-69202100D01*
X131353774Y-69202100D01*
X131537717Y-69165512D01*
X131710989Y-69093740D01*
X131866928Y-68989545D01*
X131999545Y-68856928D01*
X132103740Y-68700989D01*
X132175512Y-68527717D01*
X132212100Y-68343774D01*
X132212100Y-68156226D01*
X132847900Y-68156226D01*
X132847900Y-68343773D01*
X132884488Y-68527717D01*
X132956259Y-68700987D01*
X132956263Y-68700995D01*
X133060454Y-68856927D01*
X133060457Y-68856931D01*
X133193068Y-68989542D01*
X133193072Y-68989545D01*
X133349004Y-69093736D01*
X133349008Y-69093738D01*
X133349011Y-69093740D01*
X133522283Y-69165512D01*
X133706226Y-69202100D01*
X133706227Y-69202100D01*
X133893773Y-69202100D01*
X133893774Y-69202100D01*
X134077717Y-69165512D01*
X134250989Y-69093740D01*
X134406928Y-68989545D01*
X134539545Y-68856928D01*
X134643740Y-68700989D01*
X134715512Y-68527717D01*
X134752100Y-68343774D01*
X134752100Y-68156226D01*
X135387900Y-68156226D01*
X135387900Y-68343773D01*
X135424488Y-68527717D01*
X135496259Y-68700987D01*
X135496263Y-68700995D01*
X135600454Y-68856927D01*
X135600457Y-68856931D01*
X135733068Y-68989542D01*
X135733072Y-68989545D01*
X135889004Y-69093736D01*
X135889008Y-69093738D01*
X135889011Y-69093740D01*
X136062283Y-69165512D01*
X136246226Y-69202100D01*
X136246227Y-69202100D01*
X136433773Y-69202100D01*
X136433774Y-69202100D01*
X136617717Y-69165512D01*
X136790989Y-69093740D01*
X136946928Y-68989545D01*
X137079545Y-68856928D01*
X137183740Y-68700989D01*
X137255512Y-68527717D01*
X137292100Y-68343774D01*
X137292100Y-68156226D01*
X137927900Y-68156226D01*
X137927900Y-68343773D01*
X137964488Y-68527717D01*
X138036259Y-68700987D01*
X138036263Y-68700995D01*
X138140454Y-68856927D01*
X138140457Y-68856931D01*
X138273068Y-68989542D01*
X138273072Y-68989545D01*
X138429004Y-69093736D01*
X138429008Y-69093738D01*
X138429011Y-69093740D01*
X138602283Y-69165512D01*
X138786226Y-69202100D01*
X138786227Y-69202100D01*
X138973773Y-69202100D01*
X138973774Y-69202100D01*
X139157717Y-69165512D01*
X139330989Y-69093740D01*
X139486928Y-68989545D01*
X139619545Y-68856928D01*
X139723740Y-68700989D01*
X139795512Y-68527717D01*
X139832100Y-68343774D01*
X139832100Y-68156226D01*
X140467900Y-68156226D01*
X140467900Y-68343773D01*
X140504488Y-68527717D01*
X140576259Y-68700987D01*
X140576263Y-68700995D01*
X140680454Y-68856927D01*
X140680457Y-68856931D01*
X140813068Y-68989542D01*
X140813072Y-68989545D01*
X140969004Y-69093736D01*
X140969008Y-69093738D01*
X140969011Y-69093740D01*
X141142283Y-69165512D01*
X141326226Y-69202100D01*
X141326227Y-69202100D01*
X141513773Y-69202100D01*
X141513774Y-69202100D01*
X141697717Y-69165512D01*
X141870989Y-69093740D01*
X142026928Y-68989545D01*
X142159545Y-68856928D01*
X142263740Y-68700989D01*
X142335512Y-68527717D01*
X142372100Y-68343774D01*
X142372100Y-68156226D01*
X143007900Y-68156226D01*
X143007900Y-68343773D01*
X143044488Y-68527717D01*
X143116259Y-68700987D01*
X143116263Y-68700995D01*
X143220454Y-68856927D01*
X143220457Y-68856931D01*
X143353068Y-68989542D01*
X143353072Y-68989545D01*
X143509004Y-69093736D01*
X143509008Y-69093738D01*
X143509011Y-69093740D01*
X143682283Y-69165512D01*
X143866226Y-69202100D01*
X143866227Y-69202100D01*
X144053773Y-69202100D01*
X144053774Y-69202100D01*
X144237717Y-69165512D01*
X144410989Y-69093740D01*
X144566928Y-68989545D01*
X144699545Y-68856928D01*
X144803740Y-68700989D01*
X144875512Y-68527717D01*
X144912100Y-68343774D01*
X144912100Y-68156226D01*
X144875512Y-67972283D01*
X144803740Y-67799011D01*
X144803738Y-67799008D01*
X144803736Y-67799004D01*
X144699545Y-67643072D01*
X144699542Y-67643068D01*
X144566931Y-67510457D01*
X144566927Y-67510454D01*
X144410995Y-67406263D01*
X144410987Y-67406259D01*
X144348024Y-67380179D01*
X144323317Y-67369945D01*
X167327900Y-67369945D01*
X167327900Y-69090053D01*
X167333824Y-69119836D01*
X167333826Y-69119842D01*
X167356389Y-69153609D01*
X167356390Y-69153610D01*
X167390163Y-69176176D01*
X167419945Y-69182100D01*
X169140054Y-69182099D01*
X169169837Y-69176176D01*
X169169840Y-69176173D01*
X169169842Y-69176173D01*
X169185797Y-69165512D01*
X169203610Y-69153610D01*
X169226176Y-69119837D01*
X169232100Y-69090055D01*
X169232099Y-67369946D01*
X169226176Y-67340163D01*
X169226174Y-67340160D01*
X169226173Y-67340157D01*
X169203610Y-67306390D01*
X169203609Y-67306389D01*
X169169837Y-67283824D01*
X169140055Y-67277900D01*
X169140054Y-67277900D01*
X167419946Y-67277900D01*
X167390163Y-67283824D01*
X167390157Y-67283826D01*
X167356390Y-67306389D01*
X167356389Y-67306390D01*
X167333824Y-67340162D01*
X167327900Y-67369945D01*
X144323317Y-67369945D01*
X144299701Y-67360163D01*
X144237717Y-67334488D01*
X144053774Y-67297900D01*
X143866226Y-67297900D01*
X143774254Y-67316194D01*
X143682282Y-67334488D01*
X143509012Y-67406259D01*
X143509004Y-67406263D01*
X143353072Y-67510454D01*
X143353068Y-67510457D01*
X143220457Y-67643068D01*
X143220454Y-67643072D01*
X143116263Y-67799004D01*
X143116259Y-67799012D01*
X143044488Y-67972282D01*
X143007900Y-68156226D01*
X142372100Y-68156226D01*
X142335512Y-67972283D01*
X142263740Y-67799011D01*
X142263738Y-67799008D01*
X142263736Y-67799004D01*
X142159545Y-67643072D01*
X142159542Y-67643068D01*
X142026931Y-67510457D01*
X142026927Y-67510454D01*
X141870995Y-67406263D01*
X141870987Y-67406259D01*
X141697717Y-67334488D01*
X141657000Y-67326389D01*
X141513774Y-67297900D01*
X141326226Y-67297900D01*
X141234254Y-67316194D01*
X141142282Y-67334488D01*
X140969012Y-67406259D01*
X140969004Y-67406263D01*
X140813072Y-67510454D01*
X140813068Y-67510457D01*
X140680457Y-67643068D01*
X140680454Y-67643072D01*
X140576263Y-67799004D01*
X140576259Y-67799012D01*
X140504488Y-67972282D01*
X140467900Y-68156226D01*
X139832100Y-68156226D01*
X139795512Y-67972283D01*
X139723740Y-67799011D01*
X139723738Y-67799008D01*
X139723736Y-67799004D01*
X139619545Y-67643072D01*
X139619542Y-67643068D01*
X139486931Y-67510457D01*
X139486927Y-67510454D01*
X139330995Y-67406263D01*
X139330987Y-67406259D01*
X139157717Y-67334488D01*
X139117000Y-67326389D01*
X138973774Y-67297900D01*
X138786226Y-67297900D01*
X138694254Y-67316194D01*
X138602282Y-67334488D01*
X138429012Y-67406259D01*
X138429004Y-67406263D01*
X138273072Y-67510454D01*
X138273068Y-67510457D01*
X138140457Y-67643068D01*
X138140454Y-67643072D01*
X138036263Y-67799004D01*
X138036259Y-67799012D01*
X137964488Y-67972282D01*
X137927900Y-68156226D01*
X137292100Y-68156226D01*
X137255512Y-67972283D01*
X137183740Y-67799011D01*
X137183738Y-67799008D01*
X137183736Y-67799004D01*
X137079545Y-67643072D01*
X137079542Y-67643068D01*
X136946931Y-67510457D01*
X136946927Y-67510454D01*
X136790995Y-67406263D01*
X136790987Y-67406259D01*
X136617717Y-67334488D01*
X136577000Y-67326389D01*
X136433774Y-67297900D01*
X136246226Y-67297900D01*
X136154254Y-67316194D01*
X136062282Y-67334488D01*
X135889012Y-67406259D01*
X135889004Y-67406263D01*
X135733072Y-67510454D01*
X135733068Y-67510457D01*
X135600457Y-67643068D01*
X135600454Y-67643072D01*
X135496263Y-67799004D01*
X135496259Y-67799012D01*
X135424488Y-67972282D01*
X135387900Y-68156226D01*
X134752100Y-68156226D01*
X134715512Y-67972283D01*
X134643740Y-67799011D01*
X134643738Y-67799008D01*
X134643736Y-67799004D01*
X134539545Y-67643072D01*
X134539542Y-67643068D01*
X134406931Y-67510457D01*
X134406927Y-67510454D01*
X134250995Y-67406263D01*
X134250987Y-67406259D01*
X134077717Y-67334488D01*
X134037000Y-67326389D01*
X133893774Y-67297900D01*
X133706226Y-67297900D01*
X133614254Y-67316194D01*
X133522282Y-67334488D01*
X133349012Y-67406259D01*
X133349004Y-67406263D01*
X133193072Y-67510454D01*
X133193068Y-67510457D01*
X133060457Y-67643068D01*
X133060454Y-67643072D01*
X132956263Y-67799004D01*
X132956259Y-67799012D01*
X132884488Y-67972282D01*
X132847900Y-68156226D01*
X132212100Y-68156226D01*
X132175512Y-67972283D01*
X132103740Y-67799011D01*
X132103738Y-67799008D01*
X132103736Y-67799004D01*
X131999545Y-67643072D01*
X131999542Y-67643068D01*
X131866931Y-67510457D01*
X131866927Y-67510454D01*
X131710995Y-67406263D01*
X131710987Y-67406259D01*
X131537717Y-67334488D01*
X131497000Y-67326389D01*
X131353774Y-67297900D01*
X131166226Y-67297900D01*
X131074254Y-67316194D01*
X130982282Y-67334488D01*
X130809012Y-67406259D01*
X130809004Y-67406263D01*
X130653072Y-67510454D01*
X130653068Y-67510457D01*
X130520457Y-67643068D01*
X130520454Y-67643072D01*
X130416263Y-67799004D01*
X130416259Y-67799012D01*
X130344488Y-67972282D01*
X130307900Y-68156226D01*
X129672100Y-68156226D01*
X129635512Y-67972283D01*
X129563740Y-67799011D01*
X129563738Y-67799008D01*
X129563736Y-67799004D01*
X129459545Y-67643072D01*
X129459542Y-67643068D01*
X129326931Y-67510457D01*
X129326927Y-67510454D01*
X129170995Y-67406263D01*
X129170987Y-67406259D01*
X128997717Y-67334488D01*
X128957000Y-67326389D01*
X128813774Y-67297900D01*
X128626226Y-67297900D01*
X128534254Y-67316194D01*
X128442282Y-67334488D01*
X128269012Y-67406259D01*
X128269004Y-67406263D01*
X128113072Y-67510454D01*
X128113068Y-67510457D01*
X127980457Y-67643068D01*
X127980454Y-67643072D01*
X127876263Y-67799004D01*
X127876259Y-67799012D01*
X127804488Y-67972282D01*
X127767900Y-68156226D01*
X127132100Y-68156226D01*
X127095512Y-67972283D01*
X127023740Y-67799011D01*
X127023738Y-67799008D01*
X127023736Y-67799004D01*
X126919545Y-67643072D01*
X126919542Y-67643068D01*
X126786931Y-67510457D01*
X126786927Y-67510454D01*
X126630995Y-67406263D01*
X126630987Y-67406259D01*
X126457717Y-67334488D01*
X126417000Y-67326389D01*
X126273774Y-67297900D01*
X126086226Y-67297900D01*
X125994254Y-67316194D01*
X125902282Y-67334488D01*
X125729012Y-67406259D01*
X125729004Y-67406263D01*
X125573072Y-67510454D01*
X125573068Y-67510457D01*
X125440457Y-67643068D01*
X125440454Y-67643072D01*
X125336263Y-67799004D01*
X125336259Y-67799012D01*
X125264488Y-67972282D01*
X125227900Y-68156226D01*
X124592100Y-68156226D01*
X124555512Y-67972283D01*
X124483740Y-67799011D01*
X124483738Y-67799008D01*
X124483736Y-67799004D01*
X124379545Y-67643072D01*
X124379542Y-67643068D01*
X124246931Y-67510457D01*
X124246927Y-67510454D01*
X124090995Y-67406263D01*
X124090987Y-67406259D01*
X123917717Y-67334488D01*
X123877000Y-67326389D01*
X123733774Y-67297900D01*
X123546226Y-67297900D01*
X123454254Y-67316194D01*
X123362282Y-67334488D01*
X123189012Y-67406259D01*
X123189004Y-67406263D01*
X123033072Y-67510454D01*
X123033068Y-67510457D01*
X122900457Y-67643068D01*
X122900454Y-67643072D01*
X122796263Y-67799004D01*
X122796259Y-67799012D01*
X122724488Y-67972282D01*
X122687900Y-68156226D01*
X122052100Y-68156226D01*
X122015512Y-67972283D01*
X121943740Y-67799011D01*
X121943738Y-67799008D01*
X121943736Y-67799004D01*
X121839545Y-67643072D01*
X121839542Y-67643068D01*
X121706931Y-67510457D01*
X121706927Y-67510454D01*
X121550995Y-67406263D01*
X121550987Y-67406259D01*
X121377717Y-67334488D01*
X121337000Y-67326389D01*
X121193774Y-67297900D01*
X121006226Y-67297900D01*
X120914254Y-67316194D01*
X120822282Y-67334488D01*
X120649012Y-67406259D01*
X120649004Y-67406263D01*
X120493072Y-67510454D01*
X120493068Y-67510457D01*
X120360457Y-67643068D01*
X120360454Y-67643072D01*
X120256263Y-67799004D01*
X120256259Y-67799012D01*
X120184488Y-67972282D01*
X120147900Y-68156226D01*
X119512100Y-68156226D01*
X119475512Y-67972283D01*
X119403740Y-67799011D01*
X119403738Y-67799008D01*
X119403736Y-67799004D01*
X119299545Y-67643072D01*
X119299542Y-67643068D01*
X119166931Y-67510457D01*
X119166927Y-67510454D01*
X119010995Y-67406263D01*
X119010987Y-67406259D01*
X118837717Y-67334488D01*
X118797000Y-67326389D01*
X118653774Y-67297900D01*
X118466226Y-67297900D01*
X118374254Y-67316194D01*
X118282282Y-67334488D01*
X118109012Y-67406259D01*
X118109004Y-67406263D01*
X117953072Y-67510454D01*
X117953068Y-67510457D01*
X117820457Y-67643068D01*
X117820454Y-67643072D01*
X117716263Y-67799004D01*
X117716259Y-67799012D01*
X117644488Y-67972282D01*
X117607900Y-68156226D01*
X116972099Y-68156226D01*
X116972099Y-67389946D01*
X116966176Y-67360163D01*
X116966174Y-67360160D01*
X116966173Y-67360157D01*
X116943610Y-67326390D01*
X116943609Y-67326389D01*
X116909837Y-67303824D01*
X116880055Y-67297900D01*
X116880054Y-67297900D01*
X115159946Y-67297900D01*
X115130163Y-67303824D01*
X115130157Y-67303826D01*
X115096390Y-67326389D01*
X115096389Y-67326390D01*
X115073824Y-67360162D01*
X115067900Y-67389945D01*
X90376882Y-67389945D01*
X90376882Y-58456226D01*
X90887900Y-58456226D01*
X90887900Y-58643774D01*
X90894495Y-58676928D01*
X90924488Y-58827717D01*
X90996259Y-59000987D01*
X90996263Y-59000995D01*
X91100454Y-59156927D01*
X91100457Y-59156931D01*
X91233068Y-59289542D01*
X91233072Y-59289545D01*
X91389004Y-59393736D01*
X91389008Y-59393738D01*
X91389011Y-59393740D01*
X91562283Y-59465512D01*
X91746226Y-59502100D01*
X91746227Y-59502100D01*
X91933773Y-59502100D01*
X91933774Y-59502100D01*
X92117717Y-59465512D01*
X92290989Y-59393740D01*
X92446928Y-59289545D01*
X92579545Y-59156928D01*
X92683740Y-59000989D01*
X92755512Y-58827717D01*
X92792100Y-58643774D01*
X92792100Y-58456226D01*
X92755512Y-58272283D01*
X92683740Y-58099011D01*
X92683738Y-58099008D01*
X92683736Y-58099004D01*
X92579545Y-57943072D01*
X92579542Y-57943068D01*
X92446931Y-57810457D01*
X92446927Y-57810454D01*
X92290995Y-57706263D01*
X92290987Y-57706259D01*
X92117717Y-57634488D01*
X92082450Y-57627473D01*
X91933774Y-57597900D01*
X91746226Y-57597900D01*
X91654254Y-57616194D01*
X91562282Y-57634488D01*
X91389012Y-57706259D01*
X91389004Y-57706263D01*
X91233072Y-57810454D01*
X91233068Y-57810457D01*
X91100457Y-57943068D01*
X91100454Y-57943072D01*
X90996263Y-58099004D01*
X90996259Y-58099012D01*
X90924488Y-58272282D01*
X90887900Y-58456226D01*
X90376882Y-58456226D01*
X90376882Y-55916226D01*
X90887900Y-55916226D01*
X90887900Y-56103774D01*
X90910516Y-56217473D01*
X90924488Y-56287717D01*
X90996259Y-56460987D01*
X90996263Y-56460995D01*
X91100454Y-56616927D01*
X91100457Y-56616931D01*
X91233068Y-56749542D01*
X91233072Y-56749545D01*
X91389004Y-56853736D01*
X91389008Y-56853738D01*
X91389011Y-56853740D01*
X91562283Y-56925512D01*
X91746226Y-56962100D01*
X91746227Y-56962100D01*
X91933773Y-56962100D01*
X91933774Y-56962100D01*
X92117717Y-56925512D01*
X92290989Y-56853740D01*
X92446928Y-56749545D01*
X92579545Y-56616928D01*
X92683740Y-56460989D01*
X92755512Y-56287717D01*
X92792100Y-56103774D01*
X92792100Y-55916226D01*
X92755512Y-55732283D01*
X92683740Y-55559011D01*
X92683738Y-55559008D01*
X92683736Y-55559004D01*
X92579545Y-55403072D01*
X92579542Y-55403068D01*
X92446931Y-55270457D01*
X92446927Y-55270454D01*
X92290995Y-55166263D01*
X92290987Y-55166259D01*
X92117717Y-55094488D01*
X91933774Y-55057900D01*
X91746226Y-55057900D01*
X91654254Y-55076194D01*
X91562282Y-55094488D01*
X91389012Y-55166259D01*
X91389004Y-55166263D01*
X91233072Y-55270454D01*
X91233068Y-55270457D01*
X91100457Y-55403068D01*
X91100454Y-55403072D01*
X90996263Y-55559004D01*
X90996259Y-55559012D01*
X90924488Y-55732282D01*
X90911288Y-55798643D01*
X90887900Y-55916226D01*
X90376882Y-55916226D01*
X90376882Y-52609945D01*
X90887900Y-52609945D01*
X90887900Y-54330053D01*
X90893824Y-54359836D01*
X90893826Y-54359842D01*
X90914604Y-54390937D01*
X90916390Y-54393610D01*
X90950163Y-54416176D01*
X90979945Y-54422100D01*
X92700054Y-54422099D01*
X92729837Y-54416176D01*
X92729840Y-54416173D01*
X92729842Y-54416173D01*
X92744733Y-54406223D01*
X92763610Y-54393610D01*
X92786176Y-54359837D01*
X92792100Y-54330055D01*
X92792099Y-52609946D01*
X92786176Y-52580163D01*
X92786174Y-52580160D01*
X92786173Y-52580157D01*
X92763610Y-52546390D01*
X92763609Y-52546389D01*
X92729837Y-52523824D01*
X92700055Y-52517900D01*
X92700054Y-52517900D01*
X90979946Y-52517900D01*
X90950163Y-52523824D01*
X90950157Y-52523826D01*
X90916390Y-52546389D01*
X90916389Y-52546390D01*
X90893824Y-52580162D01*
X90887900Y-52609945D01*
X90376882Y-52609945D01*
X90376882Y-48586226D01*
X90887900Y-48586226D01*
X90887900Y-48773774D01*
X90913584Y-48902900D01*
X90924488Y-48957717D01*
X90996259Y-49130987D01*
X90996263Y-49130995D01*
X91100454Y-49286927D01*
X91100457Y-49286931D01*
X91233068Y-49419542D01*
X91233072Y-49419545D01*
X91389004Y-49523736D01*
X91389008Y-49523738D01*
X91389011Y-49523740D01*
X91562283Y-49595512D01*
X91746226Y-49632100D01*
X91746227Y-49632100D01*
X91933773Y-49632100D01*
X91933774Y-49632100D01*
X92117717Y-49595512D01*
X92290989Y-49523740D01*
X92446928Y-49419545D01*
X92579545Y-49286928D01*
X92683740Y-49130989D01*
X92755512Y-48957717D01*
X92792100Y-48773774D01*
X92792100Y-48586226D01*
X92755512Y-48402283D01*
X92683740Y-48229011D01*
X92683738Y-48229008D01*
X92683736Y-48229004D01*
X92579545Y-48073072D01*
X92579542Y-48073068D01*
X92446931Y-47940457D01*
X92446927Y-47940454D01*
X92290995Y-47836263D01*
X92290987Y-47836259D01*
X92117717Y-47764488D01*
X91933774Y-47727900D01*
X91746226Y-47727900D01*
X91654254Y-47746194D01*
X91562282Y-47764488D01*
X91389012Y-47836259D01*
X91389004Y-47836263D01*
X91233072Y-47940454D01*
X91233068Y-47940457D01*
X91100457Y-48073068D01*
X91100454Y-48073072D01*
X90996263Y-48229004D01*
X90996259Y-48229012D01*
X90924488Y-48402282D01*
X90910748Y-48471358D01*
X90887900Y-48586226D01*
X90376882Y-48586226D01*
X90376882Y-47274824D01*
X100592900Y-47274824D01*
X100592900Y-47365175D01*
X100627473Y-47448640D01*
X100627475Y-47448643D01*
X100663673Y-47484841D01*
X100667100Y-47493114D01*
X100667100Y-60136886D01*
X100663673Y-60145159D01*
X100627473Y-60181359D01*
X100592900Y-60264824D01*
X100592900Y-60355175D01*
X100615742Y-60410319D01*
X100627474Y-60438642D01*
X100691358Y-60502526D01*
X100724433Y-60516226D01*
X100774824Y-60537099D01*
X100774825Y-60537099D01*
X100774827Y-60537100D01*
X100774829Y-60537100D01*
X100865171Y-60537100D01*
X100865173Y-60537100D01*
X100948642Y-60502526D01*
X101012526Y-60438642D01*
X101047100Y-60355173D01*
X101047100Y-60264827D01*
X101012526Y-60181358D01*
X100976327Y-60145159D01*
X100972900Y-60136886D01*
X100972900Y-47493114D01*
X100976327Y-47484841D01*
X101012525Y-47448643D01*
X101012526Y-47448642D01*
X101047100Y-47365173D01*
X101047100Y-47274827D01*
X101012526Y-47191358D01*
X100948642Y-47127474D01*
X100948640Y-47127473D01*
X100865175Y-47092900D01*
X100865173Y-47092900D01*
X100774827Y-47092900D01*
X100774824Y-47092900D01*
X100691359Y-47127473D01*
X100627473Y-47191359D01*
X100592900Y-47274824D01*
X90376882Y-47274824D01*
X90376882Y-45279945D01*
X90887900Y-45279945D01*
X90887900Y-47000053D01*
X90893824Y-47029836D01*
X90893826Y-47029842D01*
X90916389Y-47063609D01*
X90916390Y-47063610D01*
X90950163Y-47086176D01*
X90979945Y-47092100D01*
X92700054Y-47092099D01*
X92729837Y-47086176D01*
X92729840Y-47086173D01*
X92729842Y-47086173D01*
X92750266Y-47072526D01*
X92763610Y-47063610D01*
X92786176Y-47029837D01*
X92792100Y-47000055D01*
X92792099Y-45279946D01*
X92786176Y-45250163D01*
X92786174Y-45250160D01*
X92786173Y-45250157D01*
X92763610Y-45216390D01*
X92763609Y-45216389D01*
X92729837Y-45193824D01*
X92700055Y-45187900D01*
X92700054Y-45187900D01*
X90979946Y-45187900D01*
X90950163Y-45193824D01*
X90950157Y-45193826D01*
X90916390Y-45216389D01*
X90916389Y-45216390D01*
X90893824Y-45250162D01*
X90887900Y-45279945D01*
X90376882Y-45279945D01*
X90376882Y-41236226D01*
X90897900Y-41236226D01*
X90897900Y-41423774D01*
X90910063Y-41484923D01*
X90934488Y-41607717D01*
X91006259Y-41780987D01*
X91006263Y-41780995D01*
X91110454Y-41936927D01*
X91110457Y-41936931D01*
X91243068Y-42069542D01*
X91243072Y-42069545D01*
X91399004Y-42173736D01*
X91399008Y-42173738D01*
X91399011Y-42173740D01*
X91572283Y-42245512D01*
X91756226Y-42282100D01*
X91756227Y-42282100D01*
X91943773Y-42282100D01*
X91943774Y-42282100D01*
X92127717Y-42245512D01*
X92300989Y-42173740D01*
X92456928Y-42069545D01*
X92589545Y-41936928D01*
X92693740Y-41780989D01*
X92765512Y-41607717D01*
X92788456Y-41492368D01*
X92793431Y-41484923D01*
X92799931Y-41482951D01*
X92930668Y-41482951D01*
X92938941Y-41486378D01*
X94581204Y-43128641D01*
X94620955Y-43145105D01*
X94637420Y-43151926D01*
X94637421Y-43151926D01*
X94698267Y-43151926D01*
X124133871Y-43151926D01*
X124142144Y-43155353D01*
X124145571Y-43163626D01*
X124144680Y-43168103D01*
X124112900Y-43244824D01*
X124112900Y-43335175D01*
X124147473Y-43418640D01*
X124147475Y-43418643D01*
X124183673Y-43454841D01*
X124187100Y-43463114D01*
X124187100Y-51700150D01*
X124183673Y-51708423D01*
X124175400Y-51711850D01*
X124167127Y-51708423D01*
X124164591Y-51704627D01*
X124142526Y-51651359D01*
X124142525Y-51651357D01*
X124078643Y-51587475D01*
X124078642Y-51587474D01*
X124078640Y-51587473D01*
X123995175Y-51552900D01*
X123995173Y-51552900D01*
X123904827Y-51552900D01*
X123904824Y-51552900D01*
X123821359Y-51587473D01*
X123757473Y-51651359D01*
X123722900Y-51734824D01*
X123722900Y-51788322D01*
X123719473Y-51796595D01*
X123427765Y-52088302D01*
X123419492Y-52091729D01*
X123411219Y-52088302D01*
X123408683Y-52084506D01*
X123400532Y-52064828D01*
X123382526Y-52021358D01*
X123318642Y-51957474D01*
X123318640Y-51957473D01*
X123235175Y-51922900D01*
X123235173Y-51922900D01*
X123144827Y-51922900D01*
X123144824Y-51922900D01*
X123061359Y-51957473D01*
X122997473Y-52021359D01*
X122962900Y-52104824D01*
X122962900Y-52156020D01*
X122959473Y-52164293D01*
X115890376Y-59233390D01*
X115873917Y-59273125D01*
X115873917Y-59273126D01*
X115867100Y-59289586D01*
X115867100Y-59289588D01*
X115867100Y-65926886D01*
X115863673Y-65935159D01*
X115827473Y-65971359D01*
X115792900Y-66054824D01*
X115792900Y-66145175D01*
X115825894Y-66224827D01*
X115827474Y-66228642D01*
X115891358Y-66292526D01*
X115943992Y-66314327D01*
X115974824Y-66327099D01*
X115974825Y-66327099D01*
X115974827Y-66327100D01*
X115974829Y-66327100D01*
X116065171Y-66327100D01*
X116065173Y-66327100D01*
X116148642Y-66292526D01*
X116212526Y-66228642D01*
X116247100Y-66145173D01*
X116247100Y-66054827D01*
X116212526Y-65971358D01*
X116176327Y-65935159D01*
X116172900Y-65926886D01*
X116172900Y-59388179D01*
X116176327Y-59379906D01*
X118387127Y-57169106D01*
X118395400Y-57165679D01*
X118403673Y-57169106D01*
X118407100Y-57177379D01*
X118407100Y-66126886D01*
X118403673Y-66135159D01*
X118367473Y-66171359D01*
X118332900Y-66254824D01*
X118332900Y-66345175D01*
X118355048Y-66398643D01*
X118367474Y-66428642D01*
X118431358Y-66492526D01*
X118442401Y-66497100D01*
X118514824Y-66527099D01*
X118514825Y-66527099D01*
X118514827Y-66527100D01*
X118514829Y-66527100D01*
X118605171Y-66527100D01*
X118605173Y-66527100D01*
X118688642Y-66492526D01*
X118752526Y-66428642D01*
X118787100Y-66345173D01*
X118787100Y-66254827D01*
X118752526Y-66171358D01*
X118716327Y-66135159D01*
X118712900Y-66126886D01*
X118712900Y-57240482D01*
X118716326Y-57232210D01*
X120927127Y-55021408D01*
X120935400Y-55017982D01*
X120943673Y-55021409D01*
X120947100Y-55029682D01*
X120947100Y-66156886D01*
X120943673Y-66165159D01*
X120907473Y-66201359D01*
X120872900Y-66284824D01*
X120872900Y-66375175D01*
X120898551Y-66437100D01*
X120907474Y-66458642D01*
X120971358Y-66522526D01*
X120998431Y-66533740D01*
X121054824Y-66557099D01*
X121054825Y-66557099D01*
X121054827Y-66557100D01*
X121054829Y-66557100D01*
X121145171Y-66557100D01*
X121145173Y-66557100D01*
X121228642Y-66522526D01*
X121292526Y-66458642D01*
X121327100Y-66375173D01*
X121327100Y-66284827D01*
X121318464Y-66263979D01*
X121307970Y-66238643D01*
X121292526Y-66201358D01*
X121256327Y-66165159D01*
X121256188Y-66164824D01*
X123412900Y-66164824D01*
X123412900Y-66255175D01*
X123442693Y-66327100D01*
X123447474Y-66338642D01*
X123511358Y-66402526D01*
X123563992Y-66424327D01*
X123594824Y-66437099D01*
X123594825Y-66437099D01*
X123594827Y-66437100D01*
X123594829Y-66437100D01*
X123685171Y-66437100D01*
X123685173Y-66437100D01*
X123768642Y-66402526D01*
X123832526Y-66338642D01*
X123867100Y-66255173D01*
X123867100Y-66203980D01*
X123870527Y-66195707D01*
X132009622Y-58056612D01*
X132009623Y-58056611D01*
X132032900Y-58000413D01*
X132032900Y-57939586D01*
X132032900Y-51333114D01*
X132036327Y-51324841D01*
X132072525Y-51288643D01*
X132072526Y-51288642D01*
X132107100Y-51205173D01*
X132107100Y-51114827D01*
X132072526Y-51031358D01*
X132008642Y-50967474D01*
X132008640Y-50967473D01*
X131925175Y-50932900D01*
X131925173Y-50932900D01*
X131834827Y-50932900D01*
X131834824Y-50932900D01*
X131751359Y-50967473D01*
X131687473Y-51031359D01*
X131652900Y-51114824D01*
X131652900Y-51205175D01*
X131687473Y-51288640D01*
X131687475Y-51288643D01*
X131723673Y-51324841D01*
X131727100Y-51333114D01*
X131727100Y-52811865D01*
X131723673Y-52820138D01*
X131715400Y-52823565D01*
X131707127Y-52820138D01*
X131704591Y-52816343D01*
X131702526Y-52811358D01*
X131638643Y-52747475D01*
X131638642Y-52747474D01*
X131635132Y-52746020D01*
X131555175Y-52712900D01*
X131555173Y-52712900D01*
X131464827Y-52712900D01*
X131464824Y-52712900D01*
X131381359Y-52747473D01*
X131345159Y-52783673D01*
X131336886Y-52787100D01*
X129643114Y-52787100D01*
X129634841Y-52783673D01*
X129598643Y-52747475D01*
X129598642Y-52747474D01*
X129595132Y-52746020D01*
X129515175Y-52712900D01*
X129515173Y-52712900D01*
X129424827Y-52712900D01*
X129424824Y-52712900D01*
X129341359Y-52747473D01*
X129277473Y-52811359D01*
X129242900Y-52894824D01*
X129242900Y-52985175D01*
X129272786Y-53057324D01*
X129277474Y-53068642D01*
X129341358Y-53132526D01*
X129374853Y-53146400D01*
X129424824Y-53167099D01*
X129424825Y-53167099D01*
X129424827Y-53167100D01*
X129424829Y-53167100D01*
X129515171Y-53167100D01*
X129515173Y-53167100D01*
X129598642Y-53132526D01*
X129634841Y-53096327D01*
X129643114Y-53092900D01*
X131336886Y-53092900D01*
X131345159Y-53096327D01*
X131381358Y-53132526D01*
X131414853Y-53146400D01*
X131464824Y-53167099D01*
X131464825Y-53167099D01*
X131464827Y-53167100D01*
X131464829Y-53167100D01*
X131555171Y-53167100D01*
X131555173Y-53167100D01*
X131638642Y-53132526D01*
X131702526Y-53068642D01*
X131704592Y-53063653D01*
X131710922Y-53057324D01*
X131719877Y-53057323D01*
X131726209Y-53063655D01*
X131727100Y-53068133D01*
X131727100Y-57901820D01*
X131723673Y-57910093D01*
X123654293Y-65979473D01*
X123646020Y-65982900D01*
X123594824Y-65982900D01*
X123511359Y-66017473D01*
X123447473Y-66081359D01*
X123412900Y-66164824D01*
X121256188Y-66164824D01*
X121252900Y-66156886D01*
X121252900Y-56214824D01*
X121322900Y-56214824D01*
X121322900Y-56305175D01*
X121355894Y-56384827D01*
X121357474Y-56388642D01*
X121421358Y-56452526D01*
X121464457Y-56470378D01*
X121504824Y-56487099D01*
X121504825Y-56487099D01*
X121504827Y-56487100D01*
X121504829Y-56487100D01*
X121595171Y-56487100D01*
X121595173Y-56487100D01*
X121678642Y-56452526D01*
X121742526Y-56388642D01*
X121777100Y-56305173D01*
X121777100Y-56253979D01*
X121780527Y-56245706D01*
X121849906Y-56176327D01*
X121858179Y-56172900D01*
X126061866Y-56172900D01*
X126070139Y-56176327D01*
X126073566Y-56184600D01*
X126070139Y-56192873D01*
X126066343Y-56195409D01*
X126061359Y-56197473D01*
X125997473Y-56261359D01*
X125962900Y-56344824D01*
X125962900Y-56435175D01*
X125997473Y-56518640D01*
X125997475Y-56518643D01*
X126033673Y-56554841D01*
X126037100Y-56563114D01*
X126037100Y-57046886D01*
X126033673Y-57055159D01*
X125997473Y-57091359D01*
X125962900Y-57174824D01*
X125962900Y-57265175D01*
X125997473Y-57348640D01*
X125997474Y-57348642D01*
X126061358Y-57412526D01*
X126107938Y-57431820D01*
X126144824Y-57447099D01*
X126144825Y-57447099D01*
X126144827Y-57447100D01*
X126144829Y-57447100D01*
X126235171Y-57447100D01*
X126235173Y-57447100D01*
X126318642Y-57412526D01*
X126382526Y-57348642D01*
X126417100Y-57265173D01*
X126417100Y-57174827D01*
X126382526Y-57091358D01*
X126346327Y-57055159D01*
X126342900Y-57046886D01*
X126342900Y-56563114D01*
X126346327Y-56554841D01*
X126382525Y-56518643D01*
X126382526Y-56518642D01*
X126417100Y-56435173D01*
X126417100Y-56344827D01*
X126382526Y-56261358D01*
X126318642Y-56197474D01*
X126313657Y-56195409D01*
X126307325Y-56189077D01*
X126307325Y-56180123D01*
X126313657Y-56173791D01*
X126318134Y-56172900D01*
X128090150Y-56172900D01*
X128098423Y-56176327D01*
X128101850Y-56184600D01*
X128098423Y-56192873D01*
X128094627Y-56195409D01*
X128041359Y-56217473D01*
X127977473Y-56281359D01*
X127942900Y-56364824D01*
X127942900Y-56448420D01*
X127939473Y-56456693D01*
X127931200Y-56460120D01*
X127922927Y-56456693D01*
X127910527Y-56444293D01*
X127907100Y-56436020D01*
X127907100Y-56384828D01*
X127907099Y-56384824D01*
X127872526Y-56301359D01*
X127872525Y-56301357D01*
X127808643Y-56237475D01*
X127808642Y-56237474D01*
X127808640Y-56237473D01*
X127725175Y-56202900D01*
X127725173Y-56202900D01*
X127634827Y-56202900D01*
X127634824Y-56202900D01*
X127551359Y-56237473D01*
X127487473Y-56301359D01*
X127452900Y-56384824D01*
X127452900Y-56475175D01*
X127487319Y-56558268D01*
X127487474Y-56558642D01*
X127551358Y-56622526D01*
X127603992Y-56644327D01*
X127634824Y-56657099D01*
X127634825Y-56657099D01*
X127634827Y-56657100D01*
X127685400Y-56657100D01*
X127693673Y-56660527D01*
X127697100Y-56668800D01*
X127697100Y-56864286D01*
X127693673Y-56872559D01*
X127657473Y-56908759D01*
X127622900Y-56992224D01*
X127622900Y-57082575D01*
X127657473Y-57166040D01*
X127657475Y-57166043D01*
X127693673Y-57202241D01*
X127697100Y-57210514D01*
X127697100Y-57302718D01*
X127720376Y-57358912D01*
X127720377Y-57358914D01*
X128311087Y-57949623D01*
X128343141Y-57962900D01*
X128367283Y-57972900D01*
X128367284Y-57972900D01*
X128428111Y-57972900D01*
X128896886Y-57972900D01*
X128905159Y-57976327D01*
X128941358Y-58012526D01*
X128971857Y-58025159D01*
X129024824Y-58047099D01*
X129024825Y-58047099D01*
X129024827Y-58047100D01*
X129024829Y-58047100D01*
X129115171Y-58047100D01*
X129115173Y-58047100D01*
X129198642Y-58012526D01*
X129262526Y-57948642D01*
X129297100Y-57865173D01*
X129297100Y-57774827D01*
X129262526Y-57691358D01*
X129198642Y-57627474D01*
X129198640Y-57627473D01*
X129115175Y-57592900D01*
X129115173Y-57592900D01*
X129024827Y-57592900D01*
X129024824Y-57592900D01*
X128941359Y-57627473D01*
X128905159Y-57663673D01*
X128896886Y-57667100D01*
X128465876Y-57667100D01*
X128457603Y-57663673D01*
X128271695Y-57477765D01*
X128268268Y-57469492D01*
X128271695Y-57461219D01*
X128275489Y-57458684D01*
X128338642Y-57432526D01*
X128402526Y-57368642D01*
X128437100Y-57285173D01*
X128437100Y-57194827D01*
X128428814Y-57174824D01*
X128408105Y-57124827D01*
X128402526Y-57111358D01*
X128366327Y-57075159D01*
X128362900Y-57066886D01*
X128362900Y-56540064D01*
X128363791Y-56535587D01*
X128366668Y-56528643D01*
X128397100Y-56455173D01*
X128397100Y-56364827D01*
X128388814Y-56344824D01*
X128372390Y-56305173D01*
X128362526Y-56281358D01*
X128298642Y-56217474D01*
X128292252Y-56214827D01*
X128245373Y-56195409D01*
X128239041Y-56189077D01*
X128239041Y-56180123D01*
X128245373Y-56173791D01*
X128249850Y-56172900D01*
X128596008Y-56172900D01*
X128604281Y-56176327D01*
X128607708Y-56184600D01*
X128604281Y-56192873D01*
X128600485Y-56195409D01*
X128571359Y-56207473D01*
X128507473Y-56271359D01*
X128472900Y-56354824D01*
X128472900Y-56445175D01*
X128507473Y-56528640D01*
X128507475Y-56528643D01*
X128543673Y-56564841D01*
X128547100Y-56573114D01*
X128547100Y-56996886D01*
X128543673Y-57005159D01*
X128507473Y-57041359D01*
X128472900Y-57124824D01*
X128472900Y-57215175D01*
X128501894Y-57285171D01*
X128507474Y-57298642D01*
X128571358Y-57362526D01*
X128586126Y-57368643D01*
X128654824Y-57397099D01*
X128654825Y-57397099D01*
X128654827Y-57397100D01*
X128654829Y-57397100D01*
X128745171Y-57397100D01*
X128745173Y-57397100D01*
X128828642Y-57362526D01*
X128892526Y-57298642D01*
X128927100Y-57215173D01*
X128927100Y-57124827D01*
X128921521Y-57111359D01*
X128901294Y-57062526D01*
X128892526Y-57041358D01*
X128856327Y-57005159D01*
X128852900Y-56996886D01*
X128852900Y-56573114D01*
X128856327Y-56564841D01*
X128892525Y-56528643D01*
X128892526Y-56528642D01*
X128927100Y-56445173D01*
X128927100Y-56354827D01*
X128892526Y-56271358D01*
X128828642Y-56207474D01*
X128828640Y-56207473D01*
X128799515Y-56195409D01*
X128793183Y-56189077D01*
X128793183Y-56180123D01*
X128799515Y-56173791D01*
X128803992Y-56172900D01*
X128980412Y-56172900D01*
X128980413Y-56172900D01*
X128980414Y-56172900D01*
X129004556Y-56162900D01*
X129036611Y-56149623D01*
X129649906Y-55536326D01*
X129658179Y-55532900D01*
X130387686Y-55532900D01*
X130395959Y-55536327D01*
X130399386Y-55544600D01*
X130395959Y-55552873D01*
X130337473Y-55611359D01*
X130302900Y-55694824D01*
X130302900Y-55785175D01*
X130335416Y-55863673D01*
X130337474Y-55868642D01*
X130401358Y-55932526D01*
X130439879Y-55948481D01*
X130446209Y-55954811D01*
X130447100Y-55959289D01*
X130447100Y-56536886D01*
X130443673Y-56545159D01*
X130407473Y-56581359D01*
X130372900Y-56664824D01*
X130372900Y-56755175D01*
X130407473Y-56838640D01*
X130407474Y-56838642D01*
X130471358Y-56902526D01*
X130523992Y-56924327D01*
X130554824Y-56937099D01*
X130554825Y-56937099D01*
X130554827Y-56937100D01*
X130554829Y-56937100D01*
X130645171Y-56937100D01*
X130645173Y-56937100D01*
X130728642Y-56902526D01*
X130792526Y-56838642D01*
X130827100Y-56755173D01*
X130827100Y-56664827D01*
X130823899Y-56657100D01*
X130808361Y-56619587D01*
X130792526Y-56581358D01*
X130756327Y-56545159D01*
X130752900Y-56536886D01*
X130752900Y-55797639D01*
X130753791Y-55793161D01*
X130757100Y-55785173D01*
X130757100Y-55694827D01*
X130722526Y-55611358D01*
X130664041Y-55552873D01*
X130660614Y-55544600D01*
X130664041Y-55536327D01*
X130672314Y-55532900D01*
X131210412Y-55532900D01*
X131210413Y-55532900D01*
X131210414Y-55532900D01*
X131226873Y-55526082D01*
X131266611Y-55509623D01*
X131280707Y-55495527D01*
X131288980Y-55492100D01*
X131340171Y-55492100D01*
X131340173Y-55492100D01*
X131423642Y-55457526D01*
X131487526Y-55393642D01*
X131522100Y-55310173D01*
X131522100Y-55219827D01*
X131487526Y-55136358D01*
X131423642Y-55072474D01*
X131423640Y-55072473D01*
X131340175Y-55037900D01*
X131340173Y-55037900D01*
X131249827Y-55037900D01*
X131249824Y-55037900D01*
X131166359Y-55072473D01*
X131102473Y-55136359D01*
X131067879Y-55219877D01*
X131061547Y-55226209D01*
X131057070Y-55227100D01*
X130561752Y-55227100D01*
X130553479Y-55223673D01*
X130550052Y-55215400D01*
X130550943Y-55210923D01*
X130569441Y-55166263D01*
X130577100Y-55147773D01*
X130577100Y-55057427D01*
X130542526Y-54973958D01*
X130478642Y-54910074D01*
X130478640Y-54910073D01*
X130395175Y-54875500D01*
X130395173Y-54875500D01*
X130304827Y-54875500D01*
X130304824Y-54875500D01*
X130221359Y-54910073D01*
X130185159Y-54946273D01*
X130176886Y-54949700D01*
X129176983Y-54949700D01*
X129169260Y-54952900D01*
X129120791Y-54972976D01*
X129104294Y-54989473D01*
X129096021Y-54992900D01*
X129044824Y-54992900D01*
X128961359Y-55027473D01*
X128897475Y-55091357D01*
X128897473Y-55091358D01*
X128895409Y-55096343D01*
X128889077Y-55102675D01*
X128880122Y-55102674D01*
X128873790Y-55096342D01*
X128872900Y-55091865D01*
X128872900Y-51499587D01*
X128872899Y-51499583D01*
X128849622Y-51443390D01*
X128849621Y-51443388D01*
X128806611Y-51400378D01*
X128550527Y-51144293D01*
X128547100Y-51136020D01*
X128547100Y-51084828D01*
X128547099Y-51084824D01*
X128512526Y-51001359D01*
X128512525Y-51001357D01*
X128448643Y-50937475D01*
X128448642Y-50937474D01*
X128445132Y-50936020D01*
X128365175Y-50902900D01*
X128365173Y-50902900D01*
X128274827Y-50902900D01*
X128274824Y-50902900D01*
X128191359Y-50937473D01*
X128127473Y-51001359D01*
X128092900Y-51084824D01*
X128092900Y-51175175D01*
X128105326Y-51205173D01*
X128127474Y-51258642D01*
X128191358Y-51322526D01*
X128216920Y-51333114D01*
X128274824Y-51357099D01*
X128274825Y-51357099D01*
X128274827Y-51357100D01*
X128326020Y-51357100D01*
X128334293Y-51360527D01*
X128563673Y-51589906D01*
X128567100Y-51598179D01*
X128567100Y-55496886D01*
X128563673Y-55505159D01*
X128527473Y-55541359D01*
X128492900Y-55624824D01*
X128492900Y-55715175D01*
X128527473Y-55798640D01*
X128527475Y-55798643D01*
X128575959Y-55847127D01*
X128579386Y-55855400D01*
X128575959Y-55863673D01*
X128567686Y-55867100D01*
X121759583Y-55867100D01*
X121703390Y-55890377D01*
X121703387Y-55890379D01*
X121564293Y-56029473D01*
X121556020Y-56032900D01*
X121504824Y-56032900D01*
X121421359Y-56067473D01*
X121357473Y-56131359D01*
X121322900Y-56214824D01*
X121252900Y-56214824D01*
X121252900Y-55114979D01*
X121256327Y-55106706D01*
X122976706Y-53386327D01*
X122984979Y-53382900D01*
X124546886Y-53382900D01*
X124555159Y-53386327D01*
X124591358Y-53422526D01*
X124635927Y-53440987D01*
X124674824Y-53457099D01*
X124674825Y-53457099D01*
X124674827Y-53457100D01*
X124674829Y-53457100D01*
X124765171Y-53457100D01*
X124765173Y-53457100D01*
X124848642Y-53422526D01*
X124912526Y-53358642D01*
X124947100Y-53275173D01*
X124947100Y-53184827D01*
X124912526Y-53101358D01*
X124848642Y-53037474D01*
X124848640Y-53037473D01*
X124765175Y-53002900D01*
X124765173Y-53002900D01*
X124674827Y-53002900D01*
X124674824Y-53002900D01*
X124591359Y-53037473D01*
X124555159Y-53073673D01*
X124546886Y-53077100D01*
X122899682Y-53077100D01*
X122891409Y-53073673D01*
X122887982Y-53065400D01*
X122891409Y-53057127D01*
X123402147Y-52546390D01*
X123938010Y-52010527D01*
X123946283Y-52007100D01*
X123995171Y-52007100D01*
X123995173Y-52007100D01*
X124078642Y-51972526D01*
X124142526Y-51908642D01*
X124164591Y-51855371D01*
X124170923Y-51849040D01*
X124179877Y-51849040D01*
X124186209Y-51855372D01*
X124187100Y-51859849D01*
X124187100Y-52010415D01*
X124210376Y-52066609D01*
X124210377Y-52066611D01*
X126299473Y-54155706D01*
X126302900Y-54163979D01*
X126302900Y-54215175D01*
X126337473Y-54298640D01*
X126337474Y-54298642D01*
X126401358Y-54362526D01*
X126469949Y-54390937D01*
X126476281Y-54397269D01*
X126476281Y-54406223D01*
X126473745Y-54410019D01*
X126303009Y-54580755D01*
X126294736Y-54584182D01*
X126290259Y-54583291D01*
X126265173Y-54572900D01*
X126174827Y-54572900D01*
X126174824Y-54572900D01*
X126091359Y-54607473D01*
X126027473Y-54671359D01*
X125992900Y-54754824D01*
X125992900Y-54845175D01*
X126019782Y-54910073D01*
X126027474Y-54928642D01*
X126091358Y-54992526D01*
X126143992Y-55014327D01*
X126174824Y-55027099D01*
X126174825Y-55027099D01*
X126174827Y-55027100D01*
X126174829Y-55027100D01*
X126265171Y-55027100D01*
X126265173Y-55027100D01*
X126348642Y-54992526D01*
X126412526Y-54928642D01*
X126429267Y-54888224D01*
X126431799Y-54884433D01*
X127769622Y-53546611D01*
X127776331Y-53530414D01*
X127792900Y-53490414D01*
X127792900Y-50793114D01*
X127796327Y-50784841D01*
X127832525Y-50748643D01*
X127832526Y-50748642D01*
X127867100Y-50665173D01*
X127867100Y-50574827D01*
X127832526Y-50491358D01*
X127768642Y-50427474D01*
X127768640Y-50427473D01*
X127685175Y-50392900D01*
X127685173Y-50392900D01*
X127594827Y-50392900D01*
X127594824Y-50392900D01*
X127511359Y-50427473D01*
X127447473Y-50491359D01*
X127412900Y-50574824D01*
X127412900Y-50665175D01*
X127447473Y-50748640D01*
X127447475Y-50748643D01*
X127483673Y-50784841D01*
X127487100Y-50793114D01*
X127487100Y-53391820D01*
X127483673Y-53400093D01*
X126770019Y-54113746D01*
X126761746Y-54117173D01*
X126753473Y-54113746D01*
X126750938Y-54109952D01*
X126722526Y-54041358D01*
X126658642Y-53977474D01*
X126658640Y-53977473D01*
X126575175Y-53942900D01*
X126575173Y-53942900D01*
X126523979Y-53942900D01*
X126515706Y-53939473D01*
X124496327Y-51920093D01*
X124492900Y-51911820D01*
X124492900Y-45372314D01*
X124496327Y-45364041D01*
X124504600Y-45360614D01*
X124512873Y-45364041D01*
X124531358Y-45382526D01*
X124583992Y-45404327D01*
X124614824Y-45417099D01*
X124614825Y-45417099D01*
X124614827Y-45417100D01*
X124666020Y-45417100D01*
X124674293Y-45420527D01*
X126043389Y-46789623D01*
X126083126Y-46806082D01*
X126099586Y-46812900D01*
X126099587Y-46812900D01*
X126160413Y-46812900D01*
X127626886Y-46812900D01*
X127635159Y-46816327D01*
X127671358Y-46852526D01*
X127719640Y-46872525D01*
X127754824Y-46887099D01*
X127754825Y-46887099D01*
X127754827Y-46887100D01*
X127754829Y-46887100D01*
X127845171Y-46887100D01*
X127845173Y-46887100D01*
X127928642Y-46852526D01*
X127992526Y-46788642D01*
X128027100Y-46705173D01*
X128027541Y-46704109D01*
X128027827Y-46704227D01*
X128032030Y-46697933D01*
X128040812Y-46696183D01*
X128046807Y-46699386D01*
X128424977Y-47077556D01*
X128428404Y-47085829D01*
X128428404Y-47566651D01*
X128432674Y-47576959D01*
X128432674Y-47576960D01*
X128448357Y-47614824D01*
X128451689Y-47622867D01*
X128965713Y-48136890D01*
X129005464Y-48153354D01*
X129021929Y-48160175D01*
X129021930Y-48160175D01*
X129082776Y-48160175D01*
X130289326Y-48160175D01*
X130297599Y-48163602D01*
X130836109Y-48702112D01*
X130839536Y-48710385D01*
X130836109Y-48718658D01*
X130827836Y-48722085D01*
X130813220Y-48722085D01*
X130729709Y-48756677D01*
X130693454Y-48792932D01*
X130685181Y-48796359D01*
X129200736Y-48796359D01*
X129192463Y-48792932D01*
X127619601Y-47220069D01*
X127619599Y-47220068D01*
X127579849Y-47203604D01*
X127563385Y-47196784D01*
X124984917Y-47196784D01*
X124976644Y-47193357D01*
X124940391Y-47157104D01*
X124940390Y-47157103D01*
X124940388Y-47157102D01*
X124856877Y-47122510D01*
X124856875Y-47122510D01*
X124766479Y-47122510D01*
X124766476Y-47122510D01*
X124682965Y-47157102D01*
X124619044Y-47221023D01*
X124584452Y-47304534D01*
X124584452Y-47394935D01*
X124616735Y-47472871D01*
X124619045Y-47478448D01*
X124682964Y-47542367D01*
X124735627Y-47564180D01*
X124766476Y-47576959D01*
X124766477Y-47576959D01*
X124766479Y-47576960D01*
X124766481Y-47576960D01*
X124856873Y-47576960D01*
X124856875Y-47576960D01*
X124940390Y-47542367D01*
X124976644Y-47506113D01*
X124984917Y-47502686D01*
X127464760Y-47502686D01*
X127473033Y-47506113D01*
X129045897Y-49078976D01*
X129078827Y-49092615D01*
X129102112Y-49102261D01*
X129102113Y-49102261D01*
X129162960Y-49102261D01*
X130685181Y-49102261D01*
X130693454Y-49105688D01*
X130729708Y-49141942D01*
X130782371Y-49163755D01*
X130813220Y-49176534D01*
X130813221Y-49176534D01*
X130813223Y-49176535D01*
X130813225Y-49176535D01*
X130903617Y-49176535D01*
X130903619Y-49176535D01*
X130987134Y-49141942D01*
X131051053Y-49078023D01*
X131085646Y-48994508D01*
X131085646Y-48979895D01*
X131089073Y-48971622D01*
X131097346Y-48968195D01*
X131105619Y-48971622D01*
X132493212Y-50359215D01*
X132532963Y-50375679D01*
X132549428Y-50382500D01*
X132549429Y-50382500D01*
X132610275Y-50382500D01*
X132949068Y-50382500D01*
X132957341Y-50385927D01*
X132974341Y-50402927D01*
X132977768Y-50411200D01*
X132974341Y-50419473D01*
X132966068Y-50422900D01*
X132934824Y-50422900D01*
X132851359Y-50457473D01*
X132795159Y-50513673D01*
X132786886Y-50517100D01*
X129413114Y-50517100D01*
X129404841Y-50513673D01*
X129368643Y-50477475D01*
X129368642Y-50477474D01*
X129368640Y-50477473D01*
X129285175Y-50442900D01*
X129285173Y-50442900D01*
X129194827Y-50442900D01*
X129194824Y-50442900D01*
X129111359Y-50477473D01*
X129047473Y-50541359D01*
X129012900Y-50624824D01*
X129012900Y-50715175D01*
X129039190Y-50778643D01*
X129047474Y-50798642D01*
X129111358Y-50862526D01*
X129146543Y-50877100D01*
X129194824Y-50897099D01*
X129194825Y-50897099D01*
X129194827Y-50897100D01*
X129194829Y-50897100D01*
X129285171Y-50897100D01*
X129285173Y-50897100D01*
X129368642Y-50862526D01*
X129404841Y-50826327D01*
X129413114Y-50822900D01*
X132826886Y-50822900D01*
X132835159Y-50826327D01*
X132851358Y-50842526D01*
X132899640Y-50862525D01*
X132934824Y-50877099D01*
X132934825Y-50877099D01*
X132934827Y-50877100D01*
X132934829Y-50877100D01*
X133025171Y-50877100D01*
X133025173Y-50877100D01*
X133108642Y-50842526D01*
X133172526Y-50778642D01*
X133207100Y-50695173D01*
X133207100Y-50663932D01*
X133210527Y-50655659D01*
X133218800Y-50652232D01*
X133227073Y-50655659D01*
X134042331Y-51470917D01*
X134045758Y-51479190D01*
X134045758Y-53289086D01*
X134042331Y-53297359D01*
X134006077Y-53333613D01*
X133978734Y-53399623D01*
X133972402Y-53405954D01*
X133963447Y-53405954D01*
X133959652Y-53403418D01*
X133310527Y-52754293D01*
X133307100Y-52746020D01*
X133307100Y-52694828D01*
X133307099Y-52694824D01*
X133294327Y-52663992D01*
X133272526Y-52611358D01*
X133208642Y-52547474D01*
X133206023Y-52546389D01*
X133125175Y-52512900D01*
X133125173Y-52512900D01*
X133034827Y-52512900D01*
X133034824Y-52512900D01*
X132951359Y-52547473D01*
X132902873Y-52595959D01*
X132894600Y-52599386D01*
X132886327Y-52595959D01*
X132882900Y-52587686D01*
X132882900Y-52293114D01*
X132886327Y-52284841D01*
X132932525Y-52238643D01*
X132932526Y-52238642D01*
X132967100Y-52155173D01*
X132967100Y-52064827D01*
X132932526Y-51981358D01*
X132868642Y-51917474D01*
X132868640Y-51917473D01*
X132785175Y-51882900D01*
X132785173Y-51882900D01*
X132694827Y-51882900D01*
X132694824Y-51882900D01*
X132611359Y-51917473D01*
X132547475Y-51981357D01*
X132547473Y-51981358D01*
X132545409Y-51986343D01*
X132539077Y-51992675D01*
X132530122Y-51992674D01*
X132523790Y-51986342D01*
X132522900Y-51981865D01*
X132522900Y-51863114D01*
X132526327Y-51854841D01*
X132562525Y-51818643D01*
X132562526Y-51818642D01*
X132597100Y-51735173D01*
X132597100Y-51644827D01*
X132562526Y-51561358D01*
X132498642Y-51497474D01*
X132498640Y-51497473D01*
X132415175Y-51462900D01*
X132415173Y-51462900D01*
X132324827Y-51462900D01*
X132324824Y-51462900D01*
X132241359Y-51497473D01*
X132177473Y-51561359D01*
X132142900Y-51644824D01*
X132142900Y-51735175D01*
X132177473Y-51818640D01*
X132177475Y-51818643D01*
X132213673Y-51854841D01*
X132217100Y-51863114D01*
X132217100Y-56696886D01*
X132213673Y-56705159D01*
X132177473Y-56741359D01*
X132142900Y-56824824D01*
X132142900Y-56915175D01*
X132177473Y-56998640D01*
X132177474Y-56998642D01*
X132241358Y-57062526D01*
X132271857Y-57075159D01*
X132324824Y-57097099D01*
X132324825Y-57097099D01*
X132324827Y-57097100D01*
X132324829Y-57097100D01*
X132415171Y-57097100D01*
X132415173Y-57097100D01*
X132498642Y-57062526D01*
X132557127Y-57004041D01*
X132565400Y-57000614D01*
X132573673Y-57004041D01*
X132577100Y-57012314D01*
X132577100Y-62140415D01*
X132600376Y-62196609D01*
X132600377Y-62196611D01*
X136659473Y-66255706D01*
X136662900Y-66263979D01*
X136662900Y-66315175D01*
X136697473Y-66398640D01*
X136697474Y-66398642D01*
X136761358Y-66462526D01*
X136813992Y-66484327D01*
X136844824Y-66497099D01*
X136844825Y-66497099D01*
X136844827Y-66497100D01*
X136844829Y-66497100D01*
X136935171Y-66497100D01*
X136935173Y-66497100D01*
X137018642Y-66462526D01*
X137082526Y-66398642D01*
X137117100Y-66315173D01*
X137117100Y-66224827D01*
X137082526Y-66141358D01*
X137018642Y-66077474D01*
X137018640Y-66077473D01*
X136935175Y-66042900D01*
X136935173Y-66042900D01*
X136883979Y-66042900D01*
X136875706Y-66039473D01*
X136738181Y-65901948D01*
X136731057Y-65894824D01*
X157052900Y-65894824D01*
X157052900Y-65985175D01*
X157085894Y-66064827D01*
X157087474Y-66068642D01*
X157151358Y-66132526D01*
X157203992Y-66154327D01*
X157234824Y-66167099D01*
X157234825Y-66167099D01*
X157234827Y-66167100D01*
X157234829Y-66167100D01*
X157325171Y-66167100D01*
X157325173Y-66167100D01*
X157408642Y-66132526D01*
X157472526Y-66068642D01*
X157507100Y-65985173D01*
X157507100Y-65933979D01*
X157510527Y-65925706D01*
X157848610Y-65587623D01*
X157848611Y-65587622D01*
X157871889Y-65531425D01*
X157871889Y-65470598D01*
X157871889Y-64612103D01*
X157875316Y-64603830D01*
X157911514Y-64567632D01*
X157911515Y-64567631D01*
X157946089Y-64484162D01*
X157946089Y-64393816D01*
X157911515Y-64310347D01*
X157847631Y-64246463D01*
X157847629Y-64246462D01*
X157764164Y-64211889D01*
X157764162Y-64211889D01*
X157673816Y-64211889D01*
X157673813Y-64211889D01*
X157590348Y-64246462D01*
X157526462Y-64310348D01*
X157491889Y-64393813D01*
X157491889Y-64484164D01*
X157526462Y-64567629D01*
X157526464Y-64567632D01*
X157562662Y-64603830D01*
X157566089Y-64612103D01*
X157566089Y-65432831D01*
X157562662Y-65441104D01*
X157294293Y-65709473D01*
X157286020Y-65712900D01*
X157234824Y-65712900D01*
X157151359Y-65747473D01*
X157087473Y-65811359D01*
X157052900Y-65894824D01*
X136731057Y-65894824D01*
X134588182Y-63751948D01*
X134581058Y-63744824D01*
X157312900Y-63744824D01*
X157312900Y-63835175D01*
X157340315Y-63901359D01*
X157347474Y-63918642D01*
X157411358Y-63982526D01*
X157438431Y-63993740D01*
X157494824Y-64017099D01*
X157494825Y-64017099D01*
X157494827Y-64017100D01*
X157494829Y-64017100D01*
X157585171Y-64017100D01*
X157585173Y-64017100D01*
X157668642Y-63982526D01*
X157704841Y-63946327D01*
X157713114Y-63942900D01*
X157881820Y-63942900D01*
X157890093Y-63946327D01*
X158429473Y-64485706D01*
X158432900Y-64493979D01*
X158432900Y-64545175D01*
X158467473Y-64628640D01*
X158467474Y-64628642D01*
X158531358Y-64692526D01*
X158583992Y-64714327D01*
X158614824Y-64727099D01*
X158614825Y-64727099D01*
X158614827Y-64727100D01*
X158614829Y-64727100D01*
X158705171Y-64727100D01*
X158705173Y-64727100D01*
X158788642Y-64692526D01*
X158852526Y-64628642D01*
X158887100Y-64545173D01*
X158887100Y-64454827D01*
X158852526Y-64371358D01*
X158788642Y-64307474D01*
X158788640Y-64307473D01*
X158705175Y-64272900D01*
X158705173Y-64272900D01*
X158653979Y-64272900D01*
X158645706Y-64269473D01*
X158036611Y-63660377D01*
X158036609Y-63660376D01*
X157996873Y-63643917D01*
X157980416Y-63637100D01*
X157980414Y-63637100D01*
X157713114Y-63637100D01*
X157704841Y-63633673D01*
X157668643Y-63597475D01*
X157668642Y-63597474D01*
X157668640Y-63597473D01*
X157585175Y-63562900D01*
X157585173Y-63562900D01*
X157494827Y-63562900D01*
X157494824Y-63562900D01*
X157411359Y-63597473D01*
X157347473Y-63661359D01*
X157312900Y-63744824D01*
X134581058Y-63744824D01*
X132886327Y-62050093D01*
X132882900Y-62041820D01*
X132882900Y-56604824D01*
X134852900Y-56604824D01*
X134852900Y-56695175D01*
X134887473Y-56778640D01*
X134887475Y-56778643D01*
X134923673Y-56814841D01*
X134927100Y-56823114D01*
X134927100Y-57530415D01*
X134950376Y-57586609D01*
X134950377Y-57586611D01*
X134998254Y-57634488D01*
X135044473Y-57680706D01*
X135047900Y-57688979D01*
X135047900Y-57740175D01*
X135082473Y-57823640D01*
X135082474Y-57823642D01*
X135146358Y-57887526D01*
X135180867Y-57901820D01*
X135229824Y-57922099D01*
X135229825Y-57922099D01*
X135229827Y-57922100D01*
X135229829Y-57922100D01*
X135320171Y-57922100D01*
X135320173Y-57922100D01*
X135403642Y-57887526D01*
X135467526Y-57823642D01*
X135502100Y-57740173D01*
X135502100Y-57649827D01*
X135492841Y-57627475D01*
X135467526Y-57566359D01*
X135467525Y-57566357D01*
X135403643Y-57502475D01*
X135403642Y-57502474D01*
X135403640Y-57502473D01*
X135320175Y-57467900D01*
X135320173Y-57467900D01*
X135268980Y-57467900D01*
X135260707Y-57464473D01*
X135236327Y-57440093D01*
X135232900Y-57431820D01*
X135232900Y-56823114D01*
X135236327Y-56814841D01*
X135272525Y-56778643D01*
X135272526Y-56778642D01*
X135307100Y-56695173D01*
X135307100Y-56604827D01*
X135272526Y-56521358D01*
X135208642Y-56457474D01*
X135208640Y-56457473D01*
X135125175Y-56422900D01*
X135125173Y-56422900D01*
X135034827Y-56422900D01*
X135034824Y-56422900D01*
X134951359Y-56457473D01*
X134887473Y-56521359D01*
X134852900Y-56604824D01*
X132882900Y-56604824D01*
X132882900Y-52892314D01*
X132886327Y-52884041D01*
X132894600Y-52880614D01*
X132902873Y-52884041D01*
X132951358Y-52932526D01*
X133003992Y-52954327D01*
X133034824Y-52967099D01*
X133034825Y-52967099D01*
X133034827Y-52967100D01*
X133086020Y-52967100D01*
X133094293Y-52970527D01*
X136833673Y-56709907D01*
X136837100Y-56718180D01*
X136837100Y-58016886D01*
X136833673Y-58025159D01*
X136797473Y-58061359D01*
X136762900Y-58144824D01*
X136762900Y-58235175D01*
X136778271Y-58272282D01*
X136797474Y-58318642D01*
X136861358Y-58382526D01*
X136913992Y-58404327D01*
X136944824Y-58417099D01*
X136944825Y-58417099D01*
X136944827Y-58417100D01*
X136944829Y-58417100D01*
X137035171Y-58417100D01*
X137035173Y-58417100D01*
X137118642Y-58382526D01*
X137182526Y-58318642D01*
X137217100Y-58235173D01*
X137217100Y-58144827D01*
X137182526Y-58061358D01*
X137146327Y-58025159D01*
X137142900Y-58016886D01*
X137142900Y-56619587D01*
X137142900Y-56619586D01*
X137127549Y-56582526D01*
X137119623Y-56563389D01*
X134257615Y-53701381D01*
X134254188Y-53693108D01*
X134257615Y-53684835D01*
X134261408Y-53682300D01*
X134327422Y-53654958D01*
X134391341Y-53591039D01*
X134425934Y-53507524D01*
X134425934Y-53417128D01*
X134391341Y-53333613D01*
X134355087Y-53297359D01*
X134351660Y-53289086D01*
X134351660Y-51404757D01*
X134355087Y-51396484D01*
X134363360Y-51393057D01*
X134371633Y-51396484D01*
X136211899Y-53236750D01*
X136215326Y-53245023D01*
X136215326Y-55048739D01*
X136211899Y-55057012D01*
X136175644Y-55093267D01*
X136141052Y-55176778D01*
X136141052Y-55267179D01*
X136174585Y-55348133D01*
X136175645Y-55350692D01*
X136239564Y-55414611D01*
X136291747Y-55436226D01*
X136323076Y-55449203D01*
X136323077Y-55449203D01*
X136323079Y-55449204D01*
X136323081Y-55449204D01*
X136413473Y-55449204D01*
X136413475Y-55449204D01*
X136496990Y-55414611D01*
X136560909Y-55350692D01*
X136595502Y-55267177D01*
X136595502Y-55176781D01*
X136560909Y-55093266D01*
X136524655Y-55057012D01*
X136521228Y-55048739D01*
X136521228Y-53146400D01*
X136521227Y-53146396D01*
X136502134Y-53100302D01*
X136497943Y-53090184D01*
X132677460Y-49269699D01*
X132637708Y-49253234D01*
X132621244Y-49246414D01*
X132373112Y-49246414D01*
X132364839Y-49242987D01*
X132328586Y-49206734D01*
X132328585Y-49206733D01*
X132328583Y-49206732D01*
X132245072Y-49172140D01*
X132245070Y-49172140D01*
X132154674Y-49172140D01*
X132154671Y-49172140D01*
X132071160Y-49206732D01*
X132007239Y-49270653D01*
X131972647Y-49354164D01*
X131972647Y-49377792D01*
X131969220Y-49386065D01*
X131960947Y-49389492D01*
X131952674Y-49386065D01*
X131651433Y-49084824D01*
X135372900Y-49084824D01*
X135372900Y-49175175D01*
X135400989Y-49242987D01*
X135407474Y-49258642D01*
X135471358Y-49322526D01*
X135523992Y-49344327D01*
X135554824Y-49357099D01*
X135554825Y-49357099D01*
X135554827Y-49357100D01*
X135554829Y-49357100D01*
X135645171Y-49357100D01*
X135645173Y-49357100D01*
X135728642Y-49322526D01*
X135734841Y-49316327D01*
X135743114Y-49312900D01*
X138341820Y-49312900D01*
X138350093Y-49316327D01*
X152119473Y-63085707D01*
X152122900Y-63093980D01*
X152122900Y-63145175D01*
X152157473Y-63228640D01*
X152157474Y-63228642D01*
X152221358Y-63292526D01*
X152273992Y-63314327D01*
X152304824Y-63327099D01*
X152304825Y-63327099D01*
X152304827Y-63327100D01*
X152304829Y-63327100D01*
X152395171Y-63327100D01*
X152395173Y-63327100D01*
X152478642Y-63292526D01*
X152542526Y-63228642D01*
X152577100Y-63145173D01*
X152577100Y-63054827D01*
X152542526Y-62971358D01*
X152478642Y-62907474D01*
X152478640Y-62907473D01*
X152395175Y-62872900D01*
X152395173Y-62872900D01*
X152343980Y-62872900D01*
X152335707Y-62869473D01*
X151731058Y-62264824D01*
X159112900Y-62264824D01*
X159112900Y-62355175D01*
X159147473Y-62438640D01*
X159147475Y-62438643D01*
X159183673Y-62474841D01*
X159187100Y-62483114D01*
X159187100Y-64650416D01*
X159193593Y-64666090D01*
X159210376Y-64706609D01*
X159210377Y-64706611D01*
X160599473Y-66095706D01*
X160602900Y-66103979D01*
X160602900Y-66155175D01*
X160631752Y-66224828D01*
X160637474Y-66238642D01*
X160701358Y-66302526D01*
X160753992Y-66324327D01*
X160784824Y-66337099D01*
X160784825Y-66337099D01*
X160784827Y-66337100D01*
X160784829Y-66337100D01*
X160875171Y-66337100D01*
X160875173Y-66337100D01*
X160958642Y-66302526D01*
X161022526Y-66238642D01*
X161057100Y-66155173D01*
X161057100Y-66064827D01*
X161022526Y-65981358D01*
X160958642Y-65917474D01*
X160958640Y-65917473D01*
X160875175Y-65882900D01*
X160875173Y-65882900D01*
X160823979Y-65882900D01*
X160815706Y-65879473D01*
X160540157Y-65603924D01*
X160532459Y-65596226D01*
X167327900Y-65596226D01*
X167327900Y-65783774D01*
X167351406Y-65901948D01*
X167364488Y-65967717D01*
X167436259Y-66140987D01*
X167436263Y-66140995D01*
X167540454Y-66296927D01*
X167540457Y-66296931D01*
X167673068Y-66429542D01*
X167673072Y-66429545D01*
X167829004Y-66533736D01*
X167829008Y-66533738D01*
X167829011Y-66533740D01*
X168002283Y-66605512D01*
X168186226Y-66642100D01*
X168186227Y-66642100D01*
X168373773Y-66642100D01*
X168373774Y-66642100D01*
X168557717Y-66605512D01*
X168730989Y-66533740D01*
X168886928Y-66429545D01*
X169019545Y-66296928D01*
X169123740Y-66140989D01*
X169195512Y-65967717D01*
X169232100Y-65783774D01*
X169232100Y-65596226D01*
X169195512Y-65412283D01*
X169123740Y-65239011D01*
X169123738Y-65239008D01*
X169123736Y-65239004D01*
X169019545Y-65083072D01*
X169019542Y-65083068D01*
X168886931Y-64950457D01*
X168886927Y-64950454D01*
X168730995Y-64846263D01*
X168730987Y-64846259D01*
X168557717Y-64774488D01*
X168373774Y-64737900D01*
X168186226Y-64737900D01*
X168094254Y-64756194D01*
X168002282Y-64774488D01*
X167829012Y-64846259D01*
X167829004Y-64846263D01*
X167673072Y-64950454D01*
X167673068Y-64950457D01*
X167540457Y-65083068D01*
X167540454Y-65083072D01*
X167436263Y-65239004D01*
X167436259Y-65239012D01*
X167364488Y-65412282D01*
X167340789Y-65531427D01*
X167327900Y-65596226D01*
X160532459Y-65596226D01*
X159748182Y-64811948D01*
X159741058Y-64804824D01*
X163232900Y-64804824D01*
X163232900Y-64895175D01*
X163255799Y-64950457D01*
X163267474Y-64978642D01*
X163331358Y-65042526D01*
X163383992Y-65064327D01*
X163414824Y-65077099D01*
X163414825Y-65077099D01*
X163414827Y-65077100D01*
X163414829Y-65077100D01*
X163505171Y-65077100D01*
X163505173Y-65077100D01*
X163588642Y-65042526D01*
X163652526Y-64978642D01*
X163687100Y-64895173D01*
X163687100Y-64843979D01*
X163690527Y-64835706D01*
X165470007Y-63056226D01*
X167327900Y-63056226D01*
X167327900Y-63243773D01*
X167364488Y-63427717D01*
X167436259Y-63600987D01*
X167436263Y-63600995D01*
X167540454Y-63756927D01*
X167540457Y-63756931D01*
X167673068Y-63889542D01*
X167673072Y-63889545D01*
X167829004Y-63993736D01*
X167829008Y-63993738D01*
X167829011Y-63993740D01*
X168002283Y-64065512D01*
X168186226Y-64102100D01*
X168186227Y-64102100D01*
X168373773Y-64102100D01*
X168373774Y-64102100D01*
X168557717Y-64065512D01*
X168730989Y-63993740D01*
X168886928Y-63889545D01*
X169019545Y-63756928D01*
X169123740Y-63600989D01*
X169195512Y-63427717D01*
X169232100Y-63243774D01*
X169232100Y-63056226D01*
X169195512Y-62872283D01*
X169123740Y-62699011D01*
X169123738Y-62699008D01*
X169123736Y-62699004D01*
X169019545Y-62543072D01*
X169019542Y-62543068D01*
X168886931Y-62410457D01*
X168886927Y-62410454D01*
X168730995Y-62306263D01*
X168730987Y-62306259D01*
X168557717Y-62234488D01*
X168373774Y-62197900D01*
X168186226Y-62197900D01*
X168094254Y-62216194D01*
X168002282Y-62234488D01*
X167829012Y-62306259D01*
X167829004Y-62306263D01*
X167673072Y-62410454D01*
X167673068Y-62410457D01*
X167540457Y-62543068D01*
X167540454Y-62543072D01*
X167436263Y-62699004D01*
X167436259Y-62699012D01*
X167364488Y-62872282D01*
X167327900Y-63056226D01*
X165470007Y-63056226D01*
X165999622Y-62526611D01*
X165999623Y-62526610D01*
X166022900Y-62470413D01*
X166022900Y-62409586D01*
X166022900Y-60548179D01*
X166026327Y-60539906D01*
X166050007Y-60516226D01*
X167327900Y-60516226D01*
X167327900Y-60703773D01*
X167364488Y-60887717D01*
X167436259Y-61060987D01*
X167436263Y-61060995D01*
X167540454Y-61216927D01*
X167540457Y-61216931D01*
X167673068Y-61349542D01*
X167673072Y-61349545D01*
X167829004Y-61453736D01*
X167829008Y-61453738D01*
X167829011Y-61453740D01*
X168002283Y-61525512D01*
X168186226Y-61562100D01*
X168186227Y-61562100D01*
X168373773Y-61562100D01*
X168373774Y-61562100D01*
X168557717Y-61525512D01*
X168730989Y-61453740D01*
X168886928Y-61349545D01*
X169019545Y-61216928D01*
X169123740Y-61060989D01*
X169195512Y-60887717D01*
X169232100Y-60703774D01*
X169232100Y-60516226D01*
X169195512Y-60332283D01*
X169123740Y-60159011D01*
X169123738Y-60159008D01*
X169123736Y-60159004D01*
X169019545Y-60003072D01*
X169019542Y-60003068D01*
X168886931Y-59870457D01*
X168886927Y-59870454D01*
X168730995Y-59766263D01*
X168730987Y-59766259D01*
X168557717Y-59694488D01*
X168373774Y-59657900D01*
X168186226Y-59657900D01*
X168094254Y-59676194D01*
X168002282Y-59694488D01*
X167829012Y-59766259D01*
X167829004Y-59766263D01*
X167673072Y-59870454D01*
X167673068Y-59870457D01*
X167540457Y-60003068D01*
X167540454Y-60003072D01*
X167436263Y-60159004D01*
X167436259Y-60159012D01*
X167364488Y-60332282D01*
X167327900Y-60516226D01*
X166050007Y-60516226D01*
X166490706Y-60075527D01*
X166498979Y-60072100D01*
X166550171Y-60072100D01*
X166550173Y-60072100D01*
X166633642Y-60037526D01*
X166697526Y-59973642D01*
X166732100Y-59890173D01*
X166732100Y-59799827D01*
X166697526Y-59716358D01*
X166633642Y-59652474D01*
X166633640Y-59652473D01*
X166550175Y-59617900D01*
X166550173Y-59617900D01*
X166459827Y-59617900D01*
X166459824Y-59617900D01*
X166376359Y-59652473D01*
X166312473Y-59716359D01*
X166277900Y-59799824D01*
X166277900Y-59851020D01*
X166274473Y-59859293D01*
X165740376Y-60393389D01*
X165733365Y-60410319D01*
X165733364Y-60410319D01*
X165717100Y-60449583D01*
X165717100Y-62371820D01*
X165713673Y-62380093D01*
X163474293Y-64619473D01*
X163466020Y-64622900D01*
X163414824Y-64622900D01*
X163331359Y-64657473D01*
X163267473Y-64721359D01*
X163232900Y-64804824D01*
X159741058Y-64804824D01*
X159496327Y-64560093D01*
X159492900Y-64551820D01*
X159492900Y-62483114D01*
X159496327Y-62474841D01*
X159532525Y-62438643D01*
X159532526Y-62438642D01*
X159567100Y-62355173D01*
X159567100Y-62264827D01*
X159532526Y-62181358D01*
X159468642Y-62117474D01*
X159468640Y-62117473D01*
X159385175Y-62082900D01*
X159385173Y-62082900D01*
X159294827Y-62082900D01*
X159294824Y-62082900D01*
X159211359Y-62117473D01*
X159147473Y-62181359D01*
X159112900Y-62264824D01*
X151731058Y-62264824D01*
X151101058Y-61634824D01*
X163012900Y-61634824D01*
X163012900Y-61725175D01*
X163047473Y-61808640D01*
X163047474Y-61808642D01*
X163111358Y-61872526D01*
X163163992Y-61894327D01*
X163194824Y-61907099D01*
X163194825Y-61907099D01*
X163194827Y-61907100D01*
X163246020Y-61907100D01*
X163254293Y-61910527D01*
X163473673Y-62129906D01*
X163477100Y-62138179D01*
X163477100Y-63856886D01*
X163473673Y-63865159D01*
X163437473Y-63901359D01*
X163402900Y-63984824D01*
X163402900Y-64075175D01*
X163437473Y-64158640D01*
X163437474Y-64158642D01*
X163501358Y-64222526D01*
X163553992Y-64244327D01*
X163584824Y-64257099D01*
X163584825Y-64257099D01*
X163584827Y-64257100D01*
X163584829Y-64257100D01*
X163675171Y-64257100D01*
X163675173Y-64257100D01*
X163758642Y-64222526D01*
X163822526Y-64158642D01*
X163857100Y-64075173D01*
X163857100Y-63984827D01*
X163856146Y-63982525D01*
X163839733Y-63942900D01*
X163822526Y-63901358D01*
X163786327Y-63865159D01*
X163782900Y-63856886D01*
X163782900Y-62039587D01*
X163782899Y-62039583D01*
X163759622Y-61983390D01*
X163759621Y-61983388D01*
X163716611Y-61940378D01*
X163470527Y-61694293D01*
X163467100Y-61686020D01*
X163467100Y-61634828D01*
X163467099Y-61634824D01*
X163432526Y-61551359D01*
X163432525Y-61551357D01*
X163368643Y-61487475D01*
X163368642Y-61487474D01*
X163368640Y-61487473D01*
X163285175Y-61452900D01*
X163285173Y-61452900D01*
X163194827Y-61452900D01*
X163194824Y-61452900D01*
X163111359Y-61487473D01*
X163047473Y-61551359D01*
X163012900Y-61634824D01*
X151101058Y-61634824D01*
X147442460Y-57976226D01*
X167327900Y-57976226D01*
X167327900Y-58163774D01*
X167358704Y-58318640D01*
X167364488Y-58347717D01*
X167436259Y-58520987D01*
X167436263Y-58520995D01*
X167540454Y-58676927D01*
X167540457Y-58676931D01*
X167673068Y-58809542D01*
X167673072Y-58809545D01*
X167829004Y-58913736D01*
X167829008Y-58913738D01*
X167829011Y-58913740D01*
X168002283Y-58985512D01*
X168186226Y-59022100D01*
X168186227Y-59022100D01*
X168373773Y-59022100D01*
X168373774Y-59022100D01*
X168557717Y-58985512D01*
X168730989Y-58913740D01*
X168886928Y-58809545D01*
X169019545Y-58676928D01*
X169123740Y-58520989D01*
X169195512Y-58347717D01*
X169232100Y-58163774D01*
X169232100Y-57976226D01*
X169195512Y-57792283D01*
X169123740Y-57619011D01*
X169123738Y-57619008D01*
X169123736Y-57619004D01*
X169019545Y-57463072D01*
X169019542Y-57463068D01*
X168886931Y-57330457D01*
X168886927Y-57330454D01*
X168730995Y-57226263D01*
X168730987Y-57226259D01*
X168557717Y-57154488D01*
X168530795Y-57149133D01*
X168373774Y-57117900D01*
X168186226Y-57117900D01*
X168094254Y-57136194D01*
X168002282Y-57154488D01*
X167829012Y-57226259D01*
X167829004Y-57226263D01*
X167673072Y-57330454D01*
X167673068Y-57330457D01*
X167540457Y-57463068D01*
X167540454Y-57463072D01*
X167436263Y-57619004D01*
X167436259Y-57619012D01*
X167364488Y-57792282D01*
X167333192Y-57949621D01*
X167327900Y-57976226D01*
X147442460Y-57976226D01*
X144902460Y-55436226D01*
X167327900Y-55436226D01*
X167327900Y-55623774D01*
X167362683Y-55798642D01*
X167364488Y-55807717D01*
X167436259Y-55980987D01*
X167436263Y-55980995D01*
X167540454Y-56136927D01*
X167540457Y-56136931D01*
X167673068Y-56269542D01*
X167673072Y-56269545D01*
X167829004Y-56373736D01*
X167829008Y-56373738D01*
X167829011Y-56373740D01*
X168002283Y-56445512D01*
X168186226Y-56482100D01*
X168186227Y-56482100D01*
X168373773Y-56482100D01*
X168373774Y-56482100D01*
X168557717Y-56445512D01*
X168730989Y-56373740D01*
X168886928Y-56269545D01*
X169019545Y-56136928D01*
X169123740Y-55980989D01*
X169195512Y-55807717D01*
X169232100Y-55623774D01*
X169232100Y-55436226D01*
X169195512Y-55252283D01*
X169123740Y-55079011D01*
X169123738Y-55079008D01*
X169123736Y-55079004D01*
X169019545Y-54923072D01*
X169019542Y-54923068D01*
X168886931Y-54790457D01*
X168886927Y-54790454D01*
X168730995Y-54686263D01*
X168730987Y-54686259D01*
X168557717Y-54614488D01*
X168522450Y-54607473D01*
X168373774Y-54577900D01*
X168186226Y-54577900D01*
X168094254Y-54596194D01*
X168002282Y-54614488D01*
X167829012Y-54686259D01*
X167829004Y-54686263D01*
X167673072Y-54790454D01*
X167673068Y-54790457D01*
X167540457Y-54923068D01*
X167540454Y-54923072D01*
X167436263Y-55079004D01*
X167436259Y-55079012D01*
X167364488Y-55252282D01*
X167344913Y-55350693D01*
X167327900Y-55436226D01*
X144902460Y-55436226D01*
X144321058Y-54854824D01*
X150612900Y-54854824D01*
X150612900Y-54945175D01*
X150632514Y-54992526D01*
X150647474Y-55028642D01*
X150711358Y-55092526D01*
X150735860Y-55102675D01*
X150794824Y-55127099D01*
X150794825Y-55127099D01*
X150794827Y-55127100D01*
X150794829Y-55127100D01*
X150885171Y-55127100D01*
X150885173Y-55127100D01*
X150968642Y-55092526D01*
X151032526Y-55028642D01*
X151067100Y-54945173D01*
X151067100Y-54893980D01*
X151070527Y-54885707D01*
X152819622Y-53136612D01*
X152819623Y-53136611D01*
X152842900Y-53080413D01*
X152842900Y-53019587D01*
X152842900Y-52896226D01*
X167327900Y-52896226D01*
X167327900Y-53083774D01*
X167343234Y-53160866D01*
X167364488Y-53267717D01*
X167436259Y-53440987D01*
X167436263Y-53440995D01*
X167540454Y-53596927D01*
X167540457Y-53596931D01*
X167673068Y-53729542D01*
X167673072Y-53729545D01*
X167829004Y-53833736D01*
X167829008Y-53833738D01*
X167829011Y-53833740D01*
X168002283Y-53905512D01*
X168186226Y-53942100D01*
X168186227Y-53942100D01*
X168373773Y-53942100D01*
X168373774Y-53942100D01*
X168557717Y-53905512D01*
X168730989Y-53833740D01*
X168886928Y-53729545D01*
X169019545Y-53596928D01*
X169123740Y-53440989D01*
X169195512Y-53267717D01*
X169232100Y-53083774D01*
X169232100Y-52896226D01*
X169195512Y-52712283D01*
X169123740Y-52539011D01*
X169123738Y-52539008D01*
X169123736Y-52539004D01*
X169019545Y-52383072D01*
X169019542Y-52383068D01*
X168886931Y-52250457D01*
X168886927Y-52250454D01*
X168730995Y-52146263D01*
X168730987Y-52146259D01*
X168557717Y-52074488D01*
X168509132Y-52064824D01*
X168373774Y-52037900D01*
X168186226Y-52037900D01*
X168094254Y-52056194D01*
X168002282Y-52074488D01*
X167829012Y-52146259D01*
X167829004Y-52146263D01*
X167673072Y-52250454D01*
X167673068Y-52250457D01*
X167540457Y-52383068D01*
X167540454Y-52383072D01*
X167436263Y-52539004D01*
X167436259Y-52539012D01*
X167364488Y-52712282D01*
X167364488Y-52712283D01*
X167327900Y-52896226D01*
X152842900Y-52896226D01*
X152842900Y-48773114D01*
X152846327Y-48764841D01*
X152882525Y-48728643D01*
X152882526Y-48728642D01*
X152917100Y-48645173D01*
X152917100Y-48554827D01*
X152882526Y-48471358D01*
X152818642Y-48407474D01*
X152806110Y-48402283D01*
X152735175Y-48372900D01*
X152735173Y-48372900D01*
X152644827Y-48372900D01*
X152644824Y-48372900D01*
X152561359Y-48407473D01*
X152497473Y-48471359D01*
X152462900Y-48554824D01*
X152462900Y-48645175D01*
X152497473Y-48728640D01*
X152497475Y-48728643D01*
X152533673Y-48764841D01*
X152537100Y-48773114D01*
X152537100Y-52981820D01*
X152533673Y-52990093D01*
X150854293Y-54669473D01*
X150846020Y-54672900D01*
X150794824Y-54672900D01*
X150711359Y-54707473D01*
X150647473Y-54771359D01*
X150612900Y-54854824D01*
X144321058Y-54854824D01*
X143411058Y-53944824D01*
X147522900Y-53944824D01*
X147522900Y-54035175D01*
X147557473Y-54118640D01*
X147557474Y-54118642D01*
X147621358Y-54182526D01*
X147673992Y-54204327D01*
X147704824Y-54217099D01*
X147704825Y-54217099D01*
X147704827Y-54217100D01*
X147704829Y-54217100D01*
X147795171Y-54217100D01*
X147795173Y-54217100D01*
X147878642Y-54182526D01*
X147942526Y-54118642D01*
X147977100Y-54035173D01*
X147977100Y-53944827D01*
X147975970Y-53942100D01*
X147942526Y-53861359D01*
X147942525Y-53861357D01*
X147906327Y-53825159D01*
X147902900Y-53816886D01*
X147902900Y-53454824D01*
X149032900Y-53454824D01*
X149032900Y-53545175D01*
X149067473Y-53628640D01*
X149067474Y-53628642D01*
X149131358Y-53692526D01*
X149152736Y-53701381D01*
X149214824Y-53727099D01*
X149214825Y-53727099D01*
X149214827Y-53727100D01*
X149214829Y-53727100D01*
X149305171Y-53727100D01*
X149305173Y-53727100D01*
X149388642Y-53692526D01*
X149424841Y-53656327D01*
X149433114Y-53652900D01*
X150810412Y-53652900D01*
X150810413Y-53652900D01*
X150810414Y-53652900D01*
X150826873Y-53646082D01*
X150866611Y-53629623D01*
X151115707Y-53380527D01*
X151123980Y-53377100D01*
X151175171Y-53377100D01*
X151175173Y-53377100D01*
X151258642Y-53342526D01*
X151322526Y-53278642D01*
X151357100Y-53195173D01*
X151357100Y-53104827D01*
X151322526Y-53021358D01*
X151258642Y-52957474D01*
X151258640Y-52957473D01*
X151175175Y-52922900D01*
X151175173Y-52922900D01*
X151084827Y-52922900D01*
X151084824Y-52922900D01*
X151001359Y-52957473D01*
X150937473Y-53021359D01*
X150902900Y-53104824D01*
X150902900Y-53156020D01*
X150899473Y-53164293D01*
X150720093Y-53343673D01*
X150711820Y-53347100D01*
X149433114Y-53347100D01*
X149424841Y-53343673D01*
X149388643Y-53307475D01*
X149388642Y-53307474D01*
X149388640Y-53307473D01*
X149305175Y-53272900D01*
X149305173Y-53272900D01*
X149214827Y-53272900D01*
X149214824Y-53272900D01*
X149131359Y-53307473D01*
X149067473Y-53371359D01*
X149032900Y-53454824D01*
X147902900Y-53454824D01*
X147902900Y-52718179D01*
X147906327Y-52709906D01*
X149455706Y-51160527D01*
X149463979Y-51157100D01*
X149515171Y-51157100D01*
X149515173Y-51157100D01*
X149598642Y-51122526D01*
X149662526Y-51058642D01*
X149697100Y-50975173D01*
X149697100Y-50884827D01*
X149693899Y-50877100D01*
X149679578Y-50842525D01*
X149662526Y-50801358D01*
X149598642Y-50737474D01*
X149598640Y-50737473D01*
X149515175Y-50702900D01*
X149515173Y-50702900D01*
X149424827Y-50702900D01*
X149424824Y-50702900D01*
X149341359Y-50737473D01*
X149277473Y-50801359D01*
X149242900Y-50884824D01*
X149242900Y-50936020D01*
X149239473Y-50944293D01*
X147620376Y-52563390D01*
X147610556Y-52587100D01*
X147597100Y-52619583D01*
X147597100Y-53816886D01*
X147593673Y-53825159D01*
X147557473Y-53861359D01*
X147522900Y-53944824D01*
X143411058Y-53944824D01*
X138496612Y-49030378D01*
X138496611Y-49030377D01*
X138462319Y-49016173D01*
X138456873Y-49013917D01*
X138440416Y-49007100D01*
X138440414Y-49007100D01*
X135802617Y-49007100D01*
X135794344Y-49003673D01*
X135792891Y-49001903D01*
X135792527Y-49001359D01*
X135728643Y-48937475D01*
X135728642Y-48937474D01*
X135728640Y-48937473D01*
X135645175Y-48902900D01*
X135645173Y-48902900D01*
X135554827Y-48902900D01*
X135554824Y-48902900D01*
X135471359Y-48937473D01*
X135407473Y-49001359D01*
X135372900Y-49084824D01*
X131651433Y-49084824D01*
X130444168Y-47877559D01*
X130444167Y-47877558D01*
X130404415Y-47861093D01*
X130387951Y-47854273D01*
X129120554Y-47854273D01*
X129112281Y-47850846D01*
X128737733Y-47476298D01*
X128734306Y-47468025D01*
X128734306Y-46987206D01*
X128734306Y-46987205D01*
X128727485Y-46970740D01*
X128711021Y-46930989D01*
X127099619Y-45319587D01*
X125441981Y-43661948D01*
X125434857Y-43654824D01*
X126402900Y-43654824D01*
X126402900Y-43745175D01*
X126437473Y-43828640D01*
X126437475Y-43828643D01*
X126473673Y-43864841D01*
X126477100Y-43873114D01*
X126477100Y-44477718D01*
X126500376Y-44533912D01*
X126500377Y-44533914D01*
X129756085Y-47789621D01*
X129756087Y-47789623D01*
X129789006Y-47803258D01*
X129789007Y-47803258D01*
X129789008Y-47803259D01*
X129812280Y-47812899D01*
X129812281Y-47812899D01*
X129812283Y-47812900D01*
X129812284Y-47812900D01*
X129873111Y-47812900D01*
X132926886Y-47812900D01*
X132935159Y-47816327D01*
X132971358Y-47852526D01*
X132992041Y-47861093D01*
X133054824Y-47887099D01*
X133054825Y-47887099D01*
X133054827Y-47887100D01*
X133054829Y-47887100D01*
X133145171Y-47887100D01*
X133145173Y-47887100D01*
X133228642Y-47852526D01*
X133292526Y-47788642D01*
X133327100Y-47705173D01*
X133327100Y-47614827D01*
X133292526Y-47531358D01*
X133228642Y-47467474D01*
X133228640Y-47467473D01*
X133145175Y-47432900D01*
X133145173Y-47432900D01*
X133054827Y-47432900D01*
X133054824Y-47432900D01*
X132971359Y-47467473D01*
X132935159Y-47503673D01*
X132926886Y-47507100D01*
X129910876Y-47507100D01*
X129902603Y-47503673D01*
X129751803Y-47352873D01*
X129748376Y-47344600D01*
X129751803Y-47336327D01*
X129760076Y-47332900D01*
X136570412Y-47332900D01*
X136570413Y-47332900D01*
X136570414Y-47332900D01*
X136586873Y-47326082D01*
X136626611Y-47309623D01*
X136726289Y-47209945D01*
X167317900Y-47209945D01*
X167317900Y-48930053D01*
X167322196Y-48951649D01*
X167323402Y-48957717D01*
X167323824Y-48959836D01*
X167323826Y-48959842D01*
X167346389Y-48993609D01*
X167346390Y-48993610D01*
X167380163Y-49016176D01*
X167409945Y-49022100D01*
X169130054Y-49022099D01*
X169159837Y-49016176D01*
X169159840Y-49016173D01*
X169159842Y-49016173D01*
X169181198Y-49001903D01*
X169193610Y-48993610D01*
X169216176Y-48959837D01*
X169222100Y-48930055D01*
X169222099Y-47209946D01*
X169216176Y-47180163D01*
X169216174Y-47180160D01*
X169216173Y-47180157D01*
X169193610Y-47146390D01*
X169193609Y-47146389D01*
X169159837Y-47123824D01*
X169153231Y-47122510D01*
X169130055Y-47117900D01*
X169130054Y-47117900D01*
X167409946Y-47117900D01*
X167380163Y-47123824D01*
X167380157Y-47123826D01*
X167346390Y-47146389D01*
X167346389Y-47146390D01*
X167323824Y-47180162D01*
X167317900Y-47209945D01*
X136726289Y-47209945D01*
X136825707Y-47110527D01*
X136833980Y-47107100D01*
X136885171Y-47107100D01*
X136885173Y-47107100D01*
X136968642Y-47072526D01*
X137032526Y-47008642D01*
X137067100Y-46925173D01*
X137067100Y-46834827D01*
X137032526Y-46751358D01*
X136968642Y-46687474D01*
X136968640Y-46687473D01*
X136885175Y-46652900D01*
X136885173Y-46652900D01*
X136794827Y-46652900D01*
X136794824Y-46652900D01*
X136711359Y-46687473D01*
X136647473Y-46751359D01*
X136612900Y-46834824D01*
X136612900Y-46886020D01*
X136609473Y-46894293D01*
X136480093Y-47023673D01*
X136471820Y-47027100D01*
X129823179Y-47027100D01*
X129814906Y-47023673D01*
X129535527Y-46744293D01*
X129532100Y-46736020D01*
X129532100Y-46704824D01*
X131172900Y-46704824D01*
X131172900Y-46795175D01*
X131207473Y-46878640D01*
X131207474Y-46878642D01*
X131271358Y-46942526D01*
X131323992Y-46964327D01*
X131354824Y-46977099D01*
X131354825Y-46977099D01*
X131354827Y-46977100D01*
X131354829Y-46977100D01*
X131445171Y-46977100D01*
X131445173Y-46977100D01*
X131528642Y-46942526D01*
X131564841Y-46906327D01*
X131573114Y-46902900D01*
X132060412Y-46902900D01*
X132060413Y-46902900D01*
X132060414Y-46902900D01*
X132076873Y-46896082D01*
X132116611Y-46879623D01*
X132361410Y-46634824D01*
X144232900Y-46634824D01*
X144232900Y-46725175D01*
X144267473Y-46808640D01*
X144267474Y-46808642D01*
X144331358Y-46872526D01*
X144366543Y-46887100D01*
X144414824Y-46907099D01*
X144414825Y-46907099D01*
X144414827Y-46907100D01*
X144414829Y-46907100D01*
X144505171Y-46907100D01*
X144505173Y-46907100D01*
X144588642Y-46872526D01*
X144652526Y-46808642D01*
X144687100Y-46725173D01*
X144687100Y-46634827D01*
X144681521Y-46621359D01*
X144670053Y-46593673D01*
X144652526Y-46551358D01*
X144616327Y-46515159D01*
X144612900Y-46506886D01*
X144612900Y-45924824D01*
X148572900Y-45924824D01*
X148572900Y-46015175D01*
X148595048Y-46068643D01*
X148607474Y-46098642D01*
X148671358Y-46162526D01*
X148682401Y-46167100D01*
X148754824Y-46197099D01*
X148754825Y-46197099D01*
X148754827Y-46197100D01*
X148754829Y-46197100D01*
X148845171Y-46197100D01*
X148845173Y-46197100D01*
X148928642Y-46162526D01*
X148964841Y-46126327D01*
X148973114Y-46122900D01*
X152413136Y-46122900D01*
X152421409Y-46126327D01*
X152423944Y-46130120D01*
X152427474Y-46138642D01*
X152491358Y-46202526D01*
X152543992Y-46224327D01*
X152574824Y-46237099D01*
X152574825Y-46237099D01*
X152574827Y-46237100D01*
X152574829Y-46237100D01*
X152665171Y-46237100D01*
X152665173Y-46237100D01*
X152748642Y-46202526D01*
X152812526Y-46138642D01*
X152847100Y-46055173D01*
X152847100Y-45964827D01*
X152812526Y-45881358D01*
X152748642Y-45817474D01*
X152748640Y-45817473D01*
X152665175Y-45782900D01*
X152665173Y-45782900D01*
X152574827Y-45782900D01*
X152574824Y-45782900D01*
X152494412Y-45816209D01*
X152489935Y-45817100D01*
X148973114Y-45817100D01*
X148964841Y-45813673D01*
X148928643Y-45777475D01*
X148928642Y-45777474D01*
X148928640Y-45777473D01*
X148845175Y-45742900D01*
X148845173Y-45742900D01*
X148754827Y-45742900D01*
X148754824Y-45742900D01*
X148671359Y-45777473D01*
X148607473Y-45841359D01*
X148572900Y-45924824D01*
X144612900Y-45924824D01*
X144612900Y-44273114D01*
X144616327Y-44264841D01*
X144662525Y-44218643D01*
X144662526Y-44218642D01*
X144697100Y-44135173D01*
X144697100Y-44044827D01*
X144696997Y-44044579D01*
X144676533Y-43995175D01*
X144662526Y-43961358D01*
X144598642Y-43897474D01*
X144598640Y-43897473D01*
X144515175Y-43862900D01*
X144515173Y-43862900D01*
X144424827Y-43862900D01*
X144424824Y-43862900D01*
X144341359Y-43897473D01*
X144277473Y-43961359D01*
X144242900Y-44044824D01*
X144242900Y-44135175D01*
X144277473Y-44218640D01*
X144277475Y-44218643D01*
X144303673Y-44244841D01*
X144307100Y-44253114D01*
X144307100Y-46506886D01*
X144303673Y-46515159D01*
X144267473Y-46551359D01*
X144232900Y-46634824D01*
X132361410Y-46634824D01*
X135091410Y-43904824D01*
X135282900Y-43904824D01*
X135282900Y-43995175D01*
X135317473Y-44078640D01*
X135317474Y-44078642D01*
X135381358Y-44142526D01*
X135433992Y-44164327D01*
X135464824Y-44177099D01*
X135464825Y-44177099D01*
X135464827Y-44177100D01*
X135464829Y-44177100D01*
X135555171Y-44177100D01*
X135555173Y-44177100D01*
X135638642Y-44142526D01*
X135674841Y-44106327D01*
X135683114Y-44102900D01*
X136666886Y-44102900D01*
X136675159Y-44106327D01*
X136711358Y-44142526D01*
X136763992Y-44164327D01*
X136794824Y-44177099D01*
X136794825Y-44177099D01*
X136794827Y-44177100D01*
X136794829Y-44177100D01*
X136885171Y-44177100D01*
X136885173Y-44177100D01*
X136968642Y-44142526D01*
X137032526Y-44078642D01*
X137067100Y-43995173D01*
X137067100Y-43904827D01*
X137032526Y-43821358D01*
X136968642Y-43757474D01*
X136968640Y-43757473D01*
X136885175Y-43722900D01*
X136885173Y-43722900D01*
X136794827Y-43722900D01*
X136794824Y-43722900D01*
X136711359Y-43757473D01*
X136675159Y-43793673D01*
X136666886Y-43797100D01*
X135683114Y-43797100D01*
X135674841Y-43793673D01*
X135638643Y-43757475D01*
X135638642Y-43757474D01*
X135638640Y-43757473D01*
X135555175Y-43722900D01*
X135555173Y-43722900D01*
X135464827Y-43722900D01*
X135464824Y-43722900D01*
X135381359Y-43757473D01*
X135317473Y-43821359D01*
X135282900Y-43904824D01*
X135091410Y-43904824D01*
X135915707Y-43080527D01*
X135923980Y-43077100D01*
X135975171Y-43077100D01*
X135975173Y-43077100D01*
X136058642Y-43042526D01*
X136122526Y-42978642D01*
X136157100Y-42895173D01*
X136157100Y-42804827D01*
X136122526Y-42721358D01*
X136058642Y-42657474D01*
X136058640Y-42657473D01*
X135975175Y-42622900D01*
X135975173Y-42622900D01*
X135884827Y-42622900D01*
X135884824Y-42622900D01*
X135801359Y-42657473D01*
X135737473Y-42721359D01*
X135702900Y-42804824D01*
X135702900Y-42856020D01*
X135699473Y-42864293D01*
X131970093Y-46593673D01*
X131961820Y-46597100D01*
X131573114Y-46597100D01*
X131564841Y-46593673D01*
X131528643Y-46557475D01*
X131528642Y-46557474D01*
X131528640Y-46557473D01*
X131445175Y-46522900D01*
X131445173Y-46522900D01*
X131354827Y-46522900D01*
X131354824Y-46522900D01*
X131271359Y-46557473D01*
X131207473Y-46621359D01*
X131172900Y-46704824D01*
X129532100Y-46704824D01*
X129532100Y-46684828D01*
X129532099Y-46684824D01*
X129507485Y-46625402D01*
X129497526Y-46601358D01*
X129433642Y-46537474D01*
X129433640Y-46537473D01*
X129350175Y-46502900D01*
X129350173Y-46502900D01*
X129259827Y-46502900D01*
X129259824Y-46502900D01*
X129176359Y-46537473D01*
X129112474Y-46601358D01*
X129086315Y-46664508D01*
X129079983Y-46670839D01*
X129071028Y-46670839D01*
X129067233Y-46668303D01*
X126860879Y-44461948D01*
X126853755Y-44454824D01*
X127452900Y-44454824D01*
X127452900Y-44545175D01*
X127481611Y-44614488D01*
X127487474Y-44628642D01*
X127551358Y-44692526D01*
X127603992Y-44714327D01*
X127634824Y-44727099D01*
X127634825Y-44727099D01*
X127634827Y-44727100D01*
X127634829Y-44727100D01*
X127725171Y-44727100D01*
X127725173Y-44727100D01*
X127808642Y-44692526D01*
X127844841Y-44656327D01*
X127853114Y-44652900D01*
X132126886Y-44652900D01*
X132135159Y-44656327D01*
X132171358Y-44692526D01*
X132223992Y-44714327D01*
X132254824Y-44727099D01*
X132254825Y-44727099D01*
X132254827Y-44727100D01*
X132254829Y-44727100D01*
X132345171Y-44727100D01*
X132345173Y-44727100D01*
X132428642Y-44692526D01*
X132492526Y-44628642D01*
X132527100Y-44545173D01*
X132527100Y-44493978D01*
X132530526Y-44485706D01*
X133909963Y-43106268D01*
X133909970Y-43106264D01*
X135448910Y-41567324D01*
X141235400Y-41567324D01*
X141235400Y-41657675D01*
X141251455Y-41696434D01*
X141269974Y-41741142D01*
X141333858Y-41805026D01*
X141386492Y-41826827D01*
X141417324Y-41839599D01*
X141417325Y-41839599D01*
X141417327Y-41839600D01*
X141417329Y-41839600D01*
X141507671Y-41839600D01*
X141507673Y-41839600D01*
X141591142Y-41805026D01*
X141655026Y-41741142D01*
X141689600Y-41657673D01*
X141689600Y-41606479D01*
X141693027Y-41598206D01*
X141974906Y-41316327D01*
X141983179Y-41312900D01*
X150831820Y-41312900D01*
X150840093Y-41316327D01*
X152809473Y-43285707D01*
X152812900Y-43293980D01*
X152812900Y-43345175D01*
X152843331Y-43418640D01*
X152847474Y-43428642D01*
X152911358Y-43492526D01*
X152947446Y-43507474D01*
X152994824Y-43527099D01*
X152994825Y-43527099D01*
X152994827Y-43527100D01*
X152994829Y-43527100D01*
X153085171Y-43527100D01*
X153085173Y-43527100D01*
X153168642Y-43492526D01*
X153232526Y-43428642D01*
X153267100Y-43345173D01*
X153267100Y-43254827D01*
X153232526Y-43171358D01*
X153168642Y-43107474D01*
X153165721Y-43106264D01*
X153085175Y-43072900D01*
X153085173Y-43072900D01*
X153033980Y-43072900D01*
X153025707Y-43069473D01*
X150986612Y-41030378D01*
X150986611Y-41030377D01*
X150939991Y-41011067D01*
X150930414Y-41007100D01*
X141884586Y-41007100D01*
X141884583Y-41007100D01*
X141861309Y-41016741D01*
X141828391Y-41030376D01*
X141828388Y-41030378D01*
X141476793Y-41381973D01*
X141468520Y-41385400D01*
X141417324Y-41385400D01*
X141333859Y-41419973D01*
X141269973Y-41483859D01*
X141235400Y-41567324D01*
X135448910Y-41567324D01*
X136309907Y-40706327D01*
X136318180Y-40702900D01*
X149136886Y-40702900D01*
X149145159Y-40706327D01*
X149181358Y-40742526D01*
X149233992Y-40764327D01*
X149264824Y-40777099D01*
X149264825Y-40777099D01*
X149264827Y-40777100D01*
X149264829Y-40777100D01*
X149355171Y-40777100D01*
X149355173Y-40777100D01*
X149438642Y-40742526D01*
X149502526Y-40678642D01*
X149537100Y-40595173D01*
X149537100Y-40504827D01*
X149502526Y-40421358D01*
X149438642Y-40357474D01*
X149438640Y-40357473D01*
X149355175Y-40322900D01*
X149355173Y-40322900D01*
X149264827Y-40322900D01*
X149264824Y-40322900D01*
X149181359Y-40357473D01*
X149145159Y-40393673D01*
X149136886Y-40397100D01*
X136219586Y-40397100D01*
X136203126Y-40403917D01*
X136163390Y-40420376D01*
X132314293Y-44269473D01*
X132306020Y-44272900D01*
X132254824Y-44272900D01*
X132171359Y-44307473D01*
X132135159Y-44343673D01*
X132126886Y-44347100D01*
X127853114Y-44347100D01*
X127844841Y-44343673D01*
X127808643Y-44307475D01*
X127808642Y-44307474D01*
X127808640Y-44307473D01*
X127725175Y-44272900D01*
X127725173Y-44272900D01*
X127634827Y-44272900D01*
X127634824Y-44272900D01*
X127551359Y-44307473D01*
X127487473Y-44371359D01*
X127452900Y-44454824D01*
X126853755Y-44454824D01*
X126786327Y-44387396D01*
X126782900Y-44379123D01*
X126782900Y-44005424D01*
X130792900Y-44005424D01*
X130792900Y-44095775D01*
X130826586Y-44177099D01*
X130827474Y-44179242D01*
X130891358Y-44243126D01*
X130943783Y-44264841D01*
X130974824Y-44277699D01*
X130974825Y-44277699D01*
X130974827Y-44277700D01*
X130974829Y-44277700D01*
X131065171Y-44277700D01*
X131065173Y-44277700D01*
X131148642Y-44243126D01*
X131212526Y-44179242D01*
X131247100Y-44095773D01*
X131247100Y-44044579D01*
X131250527Y-44036306D01*
X131269622Y-44017211D01*
X131269623Y-44017210D01*
X131289021Y-43970378D01*
X131292900Y-43961014D01*
X131292900Y-43073114D01*
X131296327Y-43064841D01*
X131332525Y-43028643D01*
X131332526Y-43028642D01*
X131367100Y-42945173D01*
X131367100Y-42854827D01*
X131332526Y-42771358D01*
X131268642Y-42707474D01*
X131268640Y-42707473D01*
X131185175Y-42672900D01*
X131185173Y-42672900D01*
X131094827Y-42672900D01*
X131094824Y-42672900D01*
X131011359Y-42707473D01*
X130947473Y-42771359D01*
X130912900Y-42854824D01*
X130912900Y-42945175D01*
X130947473Y-43028640D01*
X130947475Y-43028643D01*
X130983673Y-43064841D01*
X130987100Y-43073114D01*
X130987100Y-43811800D01*
X130983673Y-43820073D01*
X130975957Y-43823268D01*
X130975959Y-43823275D01*
X130975928Y-43823281D01*
X130975400Y-43823500D01*
X130974824Y-43823500D01*
X130891359Y-43858073D01*
X130827473Y-43921959D01*
X130792900Y-44005424D01*
X126782900Y-44005424D01*
X126782900Y-43873114D01*
X126786327Y-43864841D01*
X126822525Y-43828643D01*
X126822526Y-43828642D01*
X126857100Y-43745173D01*
X126857100Y-43654827D01*
X126822526Y-43571358D01*
X126758642Y-43507474D01*
X126758640Y-43507473D01*
X126675175Y-43472900D01*
X126675173Y-43472900D01*
X126584827Y-43472900D01*
X126584824Y-43472900D01*
X126501359Y-43507473D01*
X126437473Y-43571359D01*
X126402900Y-43654824D01*
X125434857Y-43654824D01*
X124649343Y-42869310D01*
X124649342Y-42869309D01*
X124609590Y-42852844D01*
X124593126Y-42846024D01*
X94736045Y-42846024D01*
X94727772Y-42842597D01*
X93085510Y-41200335D01*
X93085509Y-41200334D01*
X93045757Y-41183869D01*
X93029293Y-41177049D01*
X92799931Y-41177049D01*
X92791658Y-41173622D01*
X92788456Y-41167632D01*
X92785466Y-41152604D01*
X92765512Y-41052283D01*
X92693740Y-40879011D01*
X92693738Y-40879008D01*
X92693736Y-40879004D01*
X92589545Y-40723072D01*
X92589542Y-40723068D01*
X92456931Y-40590457D01*
X92456927Y-40590454D01*
X92300995Y-40486263D01*
X92300987Y-40486259D01*
X92127717Y-40414488D01*
X92023071Y-40393673D01*
X91943774Y-40377900D01*
X91756226Y-40377900D01*
X91676929Y-40393673D01*
X91572282Y-40414488D01*
X91399012Y-40486259D01*
X91399004Y-40486263D01*
X91243072Y-40590454D01*
X91243068Y-40590457D01*
X91110457Y-40723068D01*
X91110454Y-40723072D01*
X91006263Y-40879004D01*
X91006259Y-40879012D01*
X90934488Y-41052282D01*
X90909671Y-41177049D01*
X90897900Y-41236226D01*
X90376882Y-41236226D01*
X90376882Y-37929945D01*
X90897900Y-37929945D01*
X90897900Y-39650053D01*
X90903824Y-39679836D01*
X90903826Y-39679842D01*
X90924281Y-39710454D01*
X90926390Y-39713610D01*
X90960163Y-39736176D01*
X90989945Y-39742100D01*
X92710054Y-39742099D01*
X92739837Y-39736176D01*
X92739840Y-39736173D01*
X92739842Y-39736173D01*
X92751248Y-39728551D01*
X92773610Y-39713610D01*
X92796176Y-39679837D01*
X92802100Y-39650055D01*
X92802100Y-38954651D01*
X92805527Y-38946378D01*
X92813800Y-38942951D01*
X92962445Y-38942951D01*
X100291315Y-38942951D01*
X100299588Y-38946378D01*
X102990098Y-41636888D01*
X102993525Y-41645161D01*
X102993525Y-41696434D01*
X103028117Y-41779945D01*
X103028118Y-41779947D01*
X103092037Y-41843866D01*
X103144700Y-41865679D01*
X103175549Y-41878458D01*
X103175550Y-41878458D01*
X103175552Y-41878459D01*
X103175554Y-41878459D01*
X103265946Y-41878459D01*
X103265948Y-41878459D01*
X103349463Y-41843866D01*
X103413382Y-41779947D01*
X103447975Y-41696432D01*
X103447975Y-41606036D01*
X103413382Y-41522521D01*
X103349463Y-41458602D01*
X103349461Y-41458601D01*
X103265950Y-41424009D01*
X103265948Y-41424009D01*
X103214677Y-41424009D01*
X103206404Y-41420582D01*
X100446157Y-38660335D01*
X100446156Y-38660334D01*
X100406404Y-38643869D01*
X100389940Y-38637049D01*
X92813799Y-38637049D01*
X92805526Y-38633622D01*
X92802099Y-38625349D01*
X92802099Y-37929946D01*
X92802099Y-37929945D01*
X92796176Y-37900163D01*
X92796174Y-37900160D01*
X92796173Y-37900157D01*
X92773610Y-37866390D01*
X92773609Y-37866389D01*
X92739837Y-37843824D01*
X92710055Y-37837900D01*
X92710054Y-37837900D01*
X90989946Y-37837900D01*
X90960163Y-37843824D01*
X90960157Y-37843826D01*
X90926390Y-37866389D01*
X90926389Y-37866390D01*
X90903824Y-37900162D01*
X90897900Y-37929945D01*
X90376882Y-37929945D01*
X90376882Y-36834824D01*
X119322900Y-36834824D01*
X119322900Y-36925175D01*
X119357473Y-37008640D01*
X119357475Y-37008643D01*
X119393673Y-37044841D01*
X119397100Y-37053114D01*
X119397100Y-38216886D01*
X119393673Y-38225159D01*
X119357473Y-38261359D01*
X119322900Y-38344824D01*
X119322900Y-38435175D01*
X119354051Y-38510378D01*
X119357474Y-38518642D01*
X119421358Y-38582526D01*
X119462272Y-38599473D01*
X119504824Y-38617099D01*
X119504825Y-38617099D01*
X119504827Y-38617100D01*
X119504829Y-38617100D01*
X119595171Y-38617100D01*
X119595173Y-38617100D01*
X119600668Y-38614824D01*
X165822900Y-38614824D01*
X165822900Y-38705175D01*
X165857473Y-38788640D01*
X165857475Y-38788643D01*
X165893673Y-38824841D01*
X165897100Y-38833114D01*
X165897100Y-45380415D01*
X165920376Y-45436609D01*
X165920378Y-45436612D01*
X166409473Y-45925707D01*
X166412900Y-45933980D01*
X166412900Y-45985175D01*
X166425326Y-46015173D01*
X166447474Y-46068642D01*
X166511358Y-46132526D01*
X166526126Y-46138643D01*
X166594824Y-46167099D01*
X166594825Y-46167099D01*
X166594827Y-46167100D01*
X166594829Y-46167100D01*
X166685171Y-46167100D01*
X166685173Y-46167100D01*
X166768642Y-46132526D01*
X166832526Y-46068642D01*
X166867100Y-45985173D01*
X166867100Y-45894827D01*
X166861521Y-45881359D01*
X166844952Y-45841358D01*
X166832526Y-45811358D01*
X166768642Y-45747474D01*
X166768640Y-45747473D01*
X166685175Y-45712900D01*
X166685173Y-45712900D01*
X166633980Y-45712900D01*
X166625707Y-45709473D01*
X166352460Y-45436226D01*
X167317900Y-45436226D01*
X167317900Y-45623773D01*
X167354488Y-45807717D01*
X167426259Y-45980987D01*
X167426263Y-45980995D01*
X167530454Y-46136927D01*
X167530457Y-46136931D01*
X167663068Y-46269542D01*
X167663072Y-46269545D01*
X167819004Y-46373736D01*
X167819008Y-46373738D01*
X167819011Y-46373740D01*
X167992283Y-46445512D01*
X168176226Y-46482100D01*
X168176227Y-46482100D01*
X168363773Y-46482100D01*
X168363774Y-46482100D01*
X168547717Y-46445512D01*
X168720989Y-46373740D01*
X168876928Y-46269545D01*
X169009545Y-46136928D01*
X169113740Y-45980989D01*
X169185512Y-45807717D01*
X169222100Y-45623774D01*
X169222100Y-45436226D01*
X169185512Y-45252283D01*
X169113740Y-45079011D01*
X169113738Y-45079008D01*
X169113736Y-45079004D01*
X169009545Y-44923072D01*
X169009542Y-44923068D01*
X168876931Y-44790457D01*
X168876927Y-44790454D01*
X168720995Y-44686263D01*
X168720987Y-44686259D01*
X168547717Y-44614488D01*
X168363774Y-44577900D01*
X168176226Y-44577900D01*
X168084254Y-44596194D01*
X167992282Y-44614488D01*
X167819012Y-44686259D01*
X167819004Y-44686263D01*
X167663072Y-44790454D01*
X167663068Y-44790457D01*
X167530457Y-44923068D01*
X167530454Y-44923072D01*
X167426263Y-45079004D01*
X167426259Y-45079012D01*
X167354488Y-45252282D01*
X167317900Y-45436226D01*
X166352460Y-45436226D01*
X166206327Y-45290093D01*
X166202900Y-45281820D01*
X166202900Y-38833114D01*
X166206327Y-38824841D01*
X166242525Y-38788643D01*
X166242526Y-38788642D01*
X166277100Y-38705173D01*
X166277100Y-38614827D01*
X166242526Y-38531358D01*
X166178642Y-38467474D01*
X166178640Y-38467473D01*
X166095175Y-38432900D01*
X166095173Y-38432900D01*
X166004827Y-38432900D01*
X166004824Y-38432900D01*
X165921359Y-38467473D01*
X165857473Y-38531359D01*
X165822900Y-38614824D01*
X119600668Y-38614824D01*
X119678642Y-38582526D01*
X119742526Y-38518642D01*
X119777100Y-38435173D01*
X119777100Y-38344827D01*
X119742526Y-38261358D01*
X119706327Y-38225159D01*
X119702900Y-38216886D01*
X119702900Y-38124824D01*
X166102900Y-38124824D01*
X166102900Y-38215175D01*
X166137473Y-38298640D01*
X166137474Y-38298642D01*
X166201358Y-38362526D01*
X166253992Y-38384327D01*
X166284824Y-38397099D01*
X166284825Y-38397099D01*
X166284827Y-38397100D01*
X166336020Y-38397100D01*
X166344293Y-38400527D01*
X166643673Y-38699906D01*
X166647100Y-38708179D01*
X166647100Y-43266886D01*
X166643673Y-43275159D01*
X166607473Y-43311359D01*
X166572900Y-43394824D01*
X166572900Y-43485175D01*
X166607473Y-43568640D01*
X166607474Y-43568642D01*
X166671358Y-43632526D01*
X166723992Y-43654327D01*
X166754824Y-43667099D01*
X166754825Y-43667099D01*
X166754827Y-43667100D01*
X166754829Y-43667100D01*
X166845171Y-43667100D01*
X166845173Y-43667100D01*
X166928642Y-43632526D01*
X166992526Y-43568642D01*
X167027100Y-43485173D01*
X167027100Y-43394827D01*
X166992526Y-43311358D01*
X166956327Y-43275159D01*
X166952900Y-43266886D01*
X166952900Y-42896226D01*
X167317900Y-42896226D01*
X167317900Y-43083774D01*
X167341396Y-43201896D01*
X167354488Y-43267717D01*
X167426259Y-43440987D01*
X167426263Y-43440995D01*
X167530454Y-43596927D01*
X167530457Y-43596931D01*
X167663068Y-43729542D01*
X167663072Y-43729545D01*
X167819004Y-43833736D01*
X167819008Y-43833738D01*
X167819011Y-43833740D01*
X167992283Y-43905512D01*
X168176226Y-43942100D01*
X168176227Y-43942100D01*
X168363773Y-43942100D01*
X168363774Y-43942100D01*
X168547717Y-43905512D01*
X168720989Y-43833740D01*
X168876928Y-43729545D01*
X169009545Y-43596928D01*
X169113740Y-43440989D01*
X169185512Y-43267717D01*
X169222100Y-43083774D01*
X169222100Y-42896226D01*
X169185512Y-42712283D01*
X169113740Y-42539011D01*
X169113738Y-42539008D01*
X169113736Y-42539004D01*
X169009545Y-42383072D01*
X169009542Y-42383068D01*
X168876931Y-42250457D01*
X168876927Y-42250454D01*
X168720995Y-42146263D01*
X168720987Y-42146259D01*
X168547717Y-42074488D01*
X168522851Y-42069542D01*
X168363774Y-42037900D01*
X168176226Y-42037900D01*
X168084254Y-42056194D01*
X167992282Y-42074488D01*
X167819012Y-42146259D01*
X167819004Y-42146263D01*
X167663072Y-42250454D01*
X167663068Y-42250457D01*
X167530457Y-42383068D01*
X167530454Y-42383072D01*
X167426263Y-42539004D01*
X167426259Y-42539012D01*
X167354488Y-42712282D01*
X167342737Y-42771358D01*
X167317900Y-42896226D01*
X166952900Y-42896226D01*
X166952900Y-40356226D01*
X167317900Y-40356226D01*
X167317900Y-40543773D01*
X167354488Y-40727717D01*
X167426259Y-40900987D01*
X167426263Y-40900995D01*
X167530454Y-41056927D01*
X167530457Y-41056931D01*
X167663068Y-41189542D01*
X167663072Y-41189545D01*
X167819004Y-41293736D01*
X167819008Y-41293738D01*
X167819011Y-41293740D01*
X167992283Y-41365512D01*
X168176226Y-41402100D01*
X168176227Y-41402100D01*
X168363773Y-41402100D01*
X168363774Y-41402100D01*
X168547717Y-41365512D01*
X168720989Y-41293740D01*
X168876928Y-41189545D01*
X169009545Y-41056928D01*
X169113740Y-40900989D01*
X169185512Y-40727717D01*
X169222100Y-40543774D01*
X169222100Y-40356226D01*
X169185512Y-40172283D01*
X169113740Y-39999011D01*
X169113738Y-39999008D01*
X169113736Y-39999004D01*
X169009545Y-39843072D01*
X169009542Y-39843068D01*
X168876931Y-39710457D01*
X168876927Y-39710454D01*
X168720995Y-39606263D01*
X168720987Y-39606259D01*
X168547717Y-39534488D01*
X168363774Y-39497900D01*
X168176226Y-39497900D01*
X168084254Y-39516194D01*
X167992282Y-39534488D01*
X167819012Y-39606259D01*
X167819004Y-39606263D01*
X167663072Y-39710454D01*
X167663068Y-39710457D01*
X167530457Y-39843068D01*
X167530454Y-39843072D01*
X167426263Y-39999004D01*
X167426259Y-39999012D01*
X167354488Y-40172282D01*
X167317900Y-40356226D01*
X166952900Y-40356226D01*
X166952900Y-38784824D01*
X168562900Y-38784824D01*
X168562900Y-38875175D01*
X168592394Y-38946378D01*
X168597474Y-38958642D01*
X168661358Y-39022526D01*
X168713992Y-39044327D01*
X168744824Y-39057099D01*
X168744825Y-39057099D01*
X168744827Y-39057100D01*
X168744829Y-39057100D01*
X168835171Y-39057100D01*
X168835173Y-39057100D01*
X168918642Y-39022526D01*
X168982526Y-38958642D01*
X169017100Y-38875173D01*
X169017100Y-38784827D01*
X169017100Y-38783979D01*
X169020527Y-38775706D01*
X169365707Y-38430527D01*
X169373980Y-38427100D01*
X169425171Y-38427100D01*
X169425173Y-38427100D01*
X169508642Y-38392526D01*
X169572526Y-38328642D01*
X169607100Y-38245173D01*
X169607100Y-38154827D01*
X169572526Y-38071358D01*
X169508642Y-38007474D01*
X169508640Y-38007473D01*
X169425175Y-37972900D01*
X169425173Y-37972900D01*
X169334827Y-37972900D01*
X169334824Y-37972900D01*
X169251359Y-38007473D01*
X169187473Y-38071359D01*
X169152900Y-38154824D01*
X169152900Y-38206020D01*
X169149473Y-38214293D01*
X168764293Y-38599473D01*
X168756020Y-38602900D01*
X168744824Y-38602900D01*
X168661359Y-38637473D01*
X168597473Y-38701359D01*
X168562900Y-38784824D01*
X166952900Y-38784824D01*
X166952900Y-38609587D01*
X166952899Y-38609583D01*
X166929622Y-38553390D01*
X166929621Y-38553388D01*
X166886611Y-38510378D01*
X166560527Y-38184293D01*
X166557100Y-38176020D01*
X166557100Y-38124828D01*
X166557099Y-38124824D01*
X166522526Y-38041359D01*
X166522525Y-38041357D01*
X166458643Y-37977475D01*
X166458642Y-37977474D01*
X166458640Y-37977473D01*
X166375175Y-37942900D01*
X166375173Y-37942900D01*
X166284827Y-37942900D01*
X166284824Y-37942900D01*
X166201359Y-37977473D01*
X166137473Y-38041359D01*
X166102900Y-38124824D01*
X119702900Y-38124824D01*
X119702900Y-37053114D01*
X119706327Y-37044841D01*
X119742525Y-37008643D01*
X119742526Y-37008642D01*
X119777100Y-36925173D01*
X119777100Y-36834827D01*
X119742526Y-36751358D01*
X119678642Y-36687474D01*
X119678640Y-36687473D01*
X119595175Y-36652900D01*
X119595173Y-36652900D01*
X119504827Y-36652900D01*
X119504824Y-36652900D01*
X119421359Y-36687473D01*
X119357473Y-36751359D01*
X119322900Y-36834824D01*
X90376882Y-36834824D01*
X90376882Y-33968781D01*
X90964600Y-33968781D01*
X90964600Y-34141218D01*
X90998241Y-34310345D01*
X91064229Y-34469656D01*
X91064233Y-34469664D01*
X91160031Y-34613034D01*
X91160034Y-34613038D01*
X91185076Y-34638080D01*
X91450525Y-34372631D01*
X91522367Y-34444473D01*
X91256919Y-34709922D01*
X91281961Y-34734965D01*
X91281965Y-34734968D01*
X91425335Y-34830766D01*
X91425343Y-34830770D01*
X91584654Y-34896758D01*
X91753782Y-34930400D01*
X91926218Y-34930400D01*
X92095345Y-34896758D01*
X92254656Y-34830770D01*
X92254664Y-34830766D01*
X92398032Y-34734970D01*
X92423080Y-34709922D01*
X92157632Y-34444474D01*
X92229474Y-34372632D01*
X92494922Y-34638080D01*
X92519970Y-34613032D01*
X92615766Y-34469664D01*
X92615770Y-34469656D01*
X92681758Y-34310345D01*
X92715400Y-34141218D01*
X92715400Y-33968781D01*
X92681758Y-33799654D01*
X92615770Y-33640343D01*
X92615766Y-33640335D01*
X92519968Y-33496965D01*
X92519965Y-33496961D01*
X92494922Y-33471919D01*
X92229473Y-33737367D01*
X92157631Y-33665525D01*
X92423080Y-33400077D01*
X92423080Y-33400076D01*
X92398038Y-33375034D01*
X92398034Y-33375031D01*
X92254664Y-33279233D01*
X92254656Y-33279229D01*
X92095345Y-33213241D01*
X91926218Y-33179600D01*
X91753782Y-33179600D01*
X91584654Y-33213241D01*
X91425343Y-33279229D01*
X91425335Y-33279233D01*
X91281965Y-33375031D01*
X91281961Y-33375034D01*
X91256919Y-33400077D01*
X91522368Y-33665526D01*
X91450526Y-33737368D01*
X91185077Y-33471919D01*
X91160034Y-33496961D01*
X91160031Y-33496965D01*
X91064233Y-33640335D01*
X91064229Y-33640343D01*
X90998241Y-33799654D01*
X90964600Y-33968781D01*
X90376882Y-33968781D01*
X90376882Y-30654945D01*
X90887900Y-30654945D01*
X90887900Y-32375053D01*
X90893824Y-32404836D01*
X90893826Y-32404842D01*
X90916389Y-32438609D01*
X90916390Y-32438610D01*
X90950163Y-32461176D01*
X90979945Y-32467100D01*
X92700054Y-32467099D01*
X92729837Y-32461176D01*
X92729840Y-32461173D01*
X92729842Y-32461173D01*
X92741248Y-32453551D01*
X92763610Y-32438610D01*
X92786176Y-32404837D01*
X92792100Y-32375055D01*
X92792099Y-30654946D01*
X92786176Y-30625163D01*
X92786174Y-30625160D01*
X92786173Y-30625157D01*
X92763610Y-30591390D01*
X92763609Y-30591389D01*
X92729837Y-30568824D01*
X92700055Y-30562900D01*
X92700054Y-30562900D01*
X90979946Y-30562900D01*
X90950163Y-30568824D01*
X90950157Y-30568826D01*
X90916390Y-30591389D01*
X90916389Y-30591390D01*
X90893824Y-30625162D01*
X90887900Y-30654945D01*
X90376882Y-30654945D01*
X90376882Y-30048582D01*
X90380309Y-30040309D01*
X90388582Y-30036882D01*
X169721419Y-30036882D01*
X169729692Y-30040309D01*
G37*
%TD.AperFunction*%
%TD*%
M02*
