M48
; DRILL file KiCad 10.0.1 date 2026-06-02T21:22:15
; FORMAT={-:-/ absolute / inch / decimal}
; #@! TF.CreationDate,2026-06-02T21:22:15+02:00
; #@! TF.GenerationSoftware,Kicad,Pcbnew,10.0.1
; #@! TF.FileFunction,Plated,1,4,PTH
FMAT,2
INCH
; #@! TA.AperFunction,Plated,PTH,ViaDrill
T1C0.0059
; #@! TA.AperFunction,Plated,PTH,ViaDrill
T2C0.0059
; #@! TA.AperFunction,Plated,PTH,ComponentDrill
T3C0.0236
; #@! TA.AperFunction,Plated,PTH,ComponentDrill
T4C0.0394
; #@! TA.AperFunction,Plated,PTH,ComponentDrill
T5C0.0472
; #@! TA.AperFunction,Plated,PTH,ComponentDrill
T6C0.0551
%
G90
G05
T1
X6.8209Y-5.4431
X7.0729Y-5.5275
X7.1558Y-5.5976
T2
X6.1301Y-3.8604
X6.1301Y-5.2023
X6.1534Y-4.6426
X6.1748Y-4.9485
X6.1986Y-5.5667
X6.2036Y-4.0727
X6.2324Y-4.2989
X6.3246Y-4.512
X6.3328Y-3.8604
X6.3638Y-4.9177
X6.3757Y-4.419
X6.3923Y-5.6162
X6.4046Y-5.1316
X6.4208Y-5.2948
X6.4211Y-5.6513
X6.4236Y-4.7101
X6.4245Y-5.1403
X6.4367Y-5.3713
X6.4486Y-4.0678
X6.4744Y-5.3838
X6.52Y-5.229
X6.5304Y-5.0681
X6.5356Y-3.8604
X6.5423Y-4.8573
X6.5615Y-4.5804
X6.5644Y-5.294
X6.565Y-5.4431
X6.5856Y-4.4311
X6.5877Y-4.5015
X6.5877Y-4.7465
X6.5878Y-4.1496
X6.5883Y-4.2639
X6.6058Y-5.0549
X6.6205Y-4.3515
X6.6248Y-5.0996
X6.6288Y-4.5491
X6.6383Y-4.6128
X6.639Y-4.9525
X6.6417Y-4.3832
X6.6521Y-4.4887
X6.6529Y-4.4291
X6.6531Y-4.2516
X6.6543Y-4.1918
X6.6669Y-5.3618
X6.6735Y-4.9464
X6.6822Y-4.3085
X6.6865Y-4.7836
X6.69Y-4.1289
X6.6916Y-4.3749
X6.6932Y-4.1032
X6.6933Y-5.4031
X6.7024Y-5.3883
X6.703Y-4.6105
X6.705Y-4.3645
X6.7076Y-4.3976
X6.7137Y-4.9226
X6.7236Y-5.0471
X6.7273Y-5.6596
X6.7287Y-4.1201
X6.7307Y-5.1566
X6.7369Y-5.3836
X6.7384Y-3.8604
X6.7443Y-4.8797
X6.7456Y-4.3115
X6.746Y-4.5478
X6.7507Y-4.9339
X6.7514Y-4.7208
X6.7563Y-4.2313
X6.7571Y-4.2017
X6.7586Y-4.2566
X6.7588Y-4.4928
X6.759Y-4.4359
X6.7622Y-4.4066
X6.7655Y-4.6082
X6.7672Y-4.4643
X6.7708Y-4.5198
X6.7719Y-4.2845
X6.7752Y-5.2008
X6.779Y-5.2368
X6.7819Y-4.703
X6.7849Y-4.1274
X6.8107Y-4.2787
X6.8155Y-4.3172
X6.8229Y-4.8008
X6.8267Y-4.295
X6.8272Y-4.6089
X6.8297Y-4.4281
X6.8303Y-4.1925
X6.8306Y-4.3427
X6.8404Y-5.3339
X6.8472Y-4.9115
X6.8484Y-4.125
X6.863Y-4.3693
X6.8687Y-4.4984
X6.876Y-4.0537
X6.8785Y-5.4114
X6.8852Y-4.5804
X6.8853Y-4.4643
X6.8876Y-4.3996
X6.8877Y-5.046
X6.8897Y-4.3112
X6.8966Y-5.3796
X6.9046Y-4.6591
X6.9065Y-4.122
X6.9345Y-4.2017
X6.9358Y-4.2566
X6.9362Y-4.7213
X6.9411Y-3.8604
X6.9414Y-4.6229
X6.9422Y-5.158
X6.9464Y-4.2825
X6.9466Y-4.4587
X6.9477Y-4.3692
X6.9488Y-4.2283
X6.9492Y-4.3109
X6.9511Y-4.485
X6.9543Y-5.6186
X6.9617Y-4.6001
X6.9696Y-5.4924
X6.9771Y-5.5361
X6.9779Y-4.9301
X6.9862Y-4.128
X7.0038Y-4.427
X7.0041Y-4.6978
X7.006Y-4.3115
X7.0083Y-4.2497
X7.0089Y-4.186
X7.024Y-4.1273
X7.0274Y-5.6849
X7.0324Y-5.2012
X7.0406Y-5.3925
X7.0563Y-4.7357
X7.0637Y-5.2963
X7.0643Y-4.1937
X7.0643Y-4.2527
X7.0651Y-5.6205
X7.066Y-4.3099
X7.0742Y-4.8866
X7.077Y-4.1206
X7.0792Y-5.3356
X7.0898Y-4.2344
X7.1056Y-4.8026
X7.1234Y-4.2527
X7.1256Y-4.1925
X7.1307Y-5.6007
X7.1399Y-5.0766
X7.1438Y-4.1277
X7.1439Y-3.8604
X7.1581Y-5.1697
X7.1584Y-5.3001
X7.1653Y-4.7028
X7.1783Y-4.8687
X7.182Y-4.1343
X7.2109Y-4.0739
X7.2227Y-4.3194
X7.2241Y-4.4476
X7.2301Y-5.6849
X7.2347Y-4.6364
X7.2356Y-5.1063
X7.2477Y-4.5537
X7.261Y-5.043
X7.2645Y-4.7758
X7.2861Y-4.7041
X7.3023Y-4.7964
X7.3036Y-4.4242
X7.3141Y-4.7256
X7.3233Y-4.3429
X7.3302Y-4.3192
X7.3303Y-4.1682
X7.3386Y-4.1398
X7.3466Y-3.8604
X7.3764Y-4.5348
X7.3823Y-4.6753
X7.3944Y-4.6004
X7.3964Y-5.2584
X7.4078Y-3.979
X7.408Y-3.9038
X7.408Y-4.0386
X7.4218Y-4.0515
X7.4329Y-5.6849
X7.4638Y-4.6522
X7.4719Y-4.7076
X7.4797Y-4.9331
X7.4852Y-4.178
X7.5188Y-4.1285
X7.5375Y-4.2049
X7.5401Y-5.4821
X7.5482Y-4.514
X7.5494Y-3.8604
X7.5613Y-3.9892
X7.5669Y-4.6244
X7.6007Y-4.4775
X7.6061Y-4.3761
X7.6118Y-3.9138
X7.623Y-5.0765
X7.6327Y-4.4457
X7.6357Y-5.6849
X7.643Y-4.72
X7.6463Y-4.799
X7.6726Y-4.4242
X7.6801Y-4.176
X7.6801Y-4.2707
X7.7194Y-4.0923
X7.7308Y-4.5925
X7.7369Y-4.1026
X7.7374Y-3.9852
X7.7429Y-5.4821
X7.743Y-4.7564
X7.7443Y-4.892
X7.7522Y-3.8604
X7.7537Y-4.5929
X7.7664Y-5.2199
X7.78Y-4.293
X7.7954Y-4.9933
X7.8384Y-5.6849
X7.9239Y-5.3309
X7.942Y-4.1471
X7.9549Y-3.8604
X7.9563Y-4.7955
X8.0082Y-4.5613
X8.0279Y-5.1682
X8.0412Y-5.6849
X8.1248Y-4.9785
X8.1577Y-3.8604
X8.1688Y-4.9763
X8.244Y-4.1797
X8.244Y-4.3824
X8.244Y-4.5852
X8.244Y-4.7879
X8.244Y-5.1851
X8.244Y-5.3859
X8.244Y-5.6849
T4
X6.1831Y-3.9157
X6.1831Y-4.0157
X6.1831Y-4.1157
X6.1831Y-4.2157
X6.1831Y-4.3157
X6.1831Y-4.5055
X6.1831Y-4.6055
X6.1831Y-4.8018
X6.1831Y-4.9018
T5
X8.0295Y-3.963
X8.0295Y-4.163
X8.0295Y-4.4059
X8.0295Y-4.6059
T6
X7.9941Y-5.2146
X7.9941Y-5.4154
X8.0945Y-5.315
X8.1949Y-5.2146
X8.1949Y-5.4154
T3
G00X6.5228Y-5.4575
M15
G01X6.5228Y-5.5008
M16
G05
G00X6.5228Y-5.6319
M15
G01X6.5228Y-5.6555
M16
G05
G00X6.863Y-5.4575
M15
G01X6.863Y-5.5008
M16
G05
G00X6.863Y-5.6319
M15
G01X6.863Y-5.6555
M16
G05
M30
