%TF.GenerationSoftware,KiCad,Pcbnew,10.0.1*%
%TF.CreationDate,2026-06-13T11:22:50+02:00*%
%TF.ProjectId,USB-PD-CH224K,5553422d-5044-42d4-9348-3232344b2e6b,rev?*%
%TF.SameCoordinates,Original*%
%TF.FileFunction,Copper,L1,Top*%
%TF.FilePolarity,Positive*%
%FSLAX46Y46*%
G04 Gerber Fmt 4.6, Leading zero omitted, Abs format (unit mm)*
G04 Created by KiCad (PCBNEW 10.0.1) date 2026-06-13 11:22:50*
%MOMM*%
%LPD*%
G01*
G04 APERTURE LIST*
G04 Aperture macros list*
%AMRoundRect*
0 Rectangle with rounded corners*
0 $1 Rounding radius*
0 $2 $3 $4 $5 $6 $7 $8 $9 X,Y pos of 4 corners*
0 Add a 4 corners polygon primitive as box body*
4,1,4,$2,$3,$4,$5,$6,$7,$8,$9,$2,$3,0*
0 Add four circle primitives for the rounded corners*
1,1,$1+$1,$2,$3*
1,1,$1+$1,$4,$5*
1,1,$1+$1,$6,$7*
1,1,$1+$1,$8,$9*
0 Add four rect primitives between the rounded corners*
20,1,$1+$1,$2,$3,$4,$5,0*
20,1,$1+$1,$4,$5,$6,$7,0*
20,1,$1+$1,$6,$7,$8,$9,0*
20,1,$1+$1,$8,$9,$2,$3,0*%
G04 Aperture macros list end*
%TA.AperFunction,SMDPad,CuDef*%
%ADD10RoundRect,0.200000X-0.200000X-0.275000X0.200000X-0.275000X0.200000X0.275000X-0.200000X0.275000X0*%
%TD*%
%TA.AperFunction,SMDPad,CuDef*%
%ADD11RoundRect,0.200000X0.275000X-0.200000X0.275000X0.200000X-0.275000X0.200000X-0.275000X-0.200000X0*%
%TD*%
%TA.AperFunction,SMDPad,CuDef*%
%ADD12RoundRect,0.150000X0.687500X0.150000X-0.687500X0.150000X-0.687500X-0.150000X0.687500X-0.150000X0*%
%TD*%
%TA.AperFunction,HeatsinkPad*%
%ADD13R,2.100000X3.300000*%
%TD*%
%TA.AperFunction,SMDPad,CuDef*%
%ADD14RoundRect,0.250000X0.970000X0.310000X-0.970000X0.310000X-0.970000X-0.310000X0.970000X-0.310000X0*%
%TD*%
%TA.AperFunction,SMDPad,CuDef*%
%ADD15RoundRect,0.225000X-0.225000X-0.375000X0.225000X-0.375000X0.225000X0.375000X-0.225000X0.375000X0*%
%TD*%
%TA.AperFunction,SMDPad,CuDef*%
%ADD16RoundRect,0.200000X0.200000X0.275000X-0.200000X0.275000X-0.200000X-0.275000X0.200000X-0.275000X0*%
%TD*%
%TA.AperFunction,SMDPad,CuDef*%
%ADD17RoundRect,0.150000X-0.575000X0.150000X-0.575000X-0.150000X0.575000X-0.150000X0.575000X0.150000X0*%
%TD*%
%TA.AperFunction,SMDPad,CuDef*%
%ADD18RoundRect,0.075000X-0.650000X0.075000X-0.650000X-0.075000X0.650000X-0.075000X0.650000X0.075000X0*%
%TD*%
%TA.AperFunction,ComponentPad*%
%ADD19O,2.100000X1.000000*%
%TD*%
%TA.AperFunction,ComponentPad*%
%ADD20O,1.600000X1.000000*%
%TD*%
%TA.AperFunction,SMDPad,CuDef*%
%ADD21RoundRect,0.225000X-0.250000X0.225000X-0.250000X-0.225000X0.250000X-0.225000X0.250000X0.225000X0*%
%TD*%
%TA.AperFunction,ViaPad*%
%ADD22C,0.250250*%
%TD*%
%TA.AperFunction,ViaPad*%
%ADD23C,0.250000*%
%TD*%
%TA.AperFunction,ViaPad*%
%ADD24C,0.513080*%
%TD*%
%TA.AperFunction,Conductor*%
%ADD25C,0.101702*%
%TD*%
%TA.AperFunction,Conductor*%
%ADD26C,0.101600*%
%TD*%
%TA.AperFunction,Conductor*%
%ADD27C,0.483600*%
%TD*%
%TA.AperFunction,Conductor*%
%ADD28C,0.513080*%
%TD*%
%TA.AperFunction,Conductor*%
%ADD29C,0.209900*%
%TD*%
%TA.AperFunction,Conductor*%
%ADD30C,0.106680*%
%TD*%
G04 APERTURE END LIST*
D10*
%TO.P,R6,1*%
%TO.N,GND*%
X123184727Y-101682713D03*
%TO.P,R6,2*%
%TO.N,Net-(U1-CFG2)*%
X124834727Y-101682713D03*
%TD*%
D11*
%TO.P,R2,1*%
%TO.N,VBUS*%
X131451133Y-107576734D03*
%TO.P,R2,2*%
%TO.N,Net-(U1-VDD)*%
X131451133Y-105926734D03*
%TD*%
D12*
%TO.P,U1,1,VDD_1*%
%TO.N,Net-(U1-VDD)*%
X129033750Y-107396408D03*
%TO.P,U1,2,CFG2_2*%
%TO.N,Net-(U1-CFG2)*%
X129033750Y-106396408D03*
%TO.P,U1,3,CFG3_3*%
%TO.N,Net-(U1-CFG3)*%
X129033750Y-105396408D03*
%TO.P,U1,4,DP_4*%
%TO.N,Net-(U1-DP)*%
X129033750Y-104396408D03*
%TO.P,U1,5,DM_5*%
%TO.N,Net-(U1-DM)*%
X129033750Y-103396408D03*
%TO.P,U1,6,CC2_6*%
%TO.N,Net-(J1-CC2)*%
X123758750Y-103396408D03*
%TO.P,U1,7,CC1_7*%
%TO.N,Net-(J1-CC1)*%
X123758750Y-104396408D03*
%TO.P,U1,8,VBUS_8*%
%TO.N,Net-(U1-VBUS)*%
X123758750Y-105396408D03*
%TO.P,U1,9,CFG1_9*%
%TO.N,Net-(U1-CFG1)*%
X123758750Y-106396408D03*
%TO.P,U1,10,PG_10*%
%TO.N,unconnected-(U1-PG-Pad10)*%
X123758750Y-107396408D03*
D13*
%TO.P,U1,11,GND_11*%
%TO.N,GND*%
X126396250Y-105396408D03*
%TD*%
D14*
%TO.P,SW1,1*%
%TO.N,Net-(U1-CFG1)*%
X120873711Y-108165000D03*
%TO.P,SW1,2*%
%TO.N,Net-(U1-CFG2)*%
X120873711Y-105625000D03*
%TO.P,SW1,3*%
%TO.N,Net-(U1-CFG3)*%
X120873711Y-103085000D03*
%TO.P,SW1,4*%
%TO.N,+3V3*%
X112263711Y-103085000D03*
%TO.P,SW1,5*%
X112263711Y-105625000D03*
%TO.P,SW1,6*%
X112263711Y-108165000D03*
%TD*%
D15*
%TO.P,D1,1,K_1*%
%TO.N,+3V3*%
X124752500Y-111355000D03*
%TO.P,D1,2,A_2*%
%TO.N,GND*%
X128052500Y-111355000D03*
%TD*%
D16*
%TO.P,R5,1*%
%TO.N,GND*%
X127974766Y-101682713D03*
%TO.P,R5,2*%
%TO.N,Net-(U1-CFG1)*%
X126324766Y-101682713D03*
%TD*%
D11*
%TO.P,R1,1*%
%TO.N,VBUS*%
X131041563Y-104464234D03*
%TO.P,R1,2*%
%TO.N,Net-(U1-VBUS)*%
X131041563Y-102814234D03*
%TD*%
D10*
%TO.P,R10,1*%
%TO.N,VBUS*%
X121150000Y-111490000D03*
%TO.P,R10,2*%
%TO.N,+3V3*%
X122800000Y-111490000D03*
%TD*%
D17*
%TO.P,J1,A1,GND_A1*%
%TO.N,GND*%
X106485000Y-102925000D03*
%TO.P,J1,A4,VBUS_A4*%
%TO.N,VBUS*%
X106485000Y-103725000D03*
D18*
%TO.P,J1,A5,CC1_A5*%
%TO.N,Net-(J1-CC1)*%
X106485000Y-104925000D03*
%TO.P,J1,A6,D+_A6*%
%TO.N,Net-(J1-D+-PadA6)*%
X106485000Y-105925000D03*
%TO.P,J1,A7,D-_A7*%
%TO.N,Net-(J1-D--PadA7)*%
X106485000Y-106425000D03*
%TO.P,J1,A8,SBU1_A8*%
%TO.N,unconnected-(J1-SBU1-PadA8)*%
X106485000Y-107425000D03*
D17*
%TO.P,J1,A9,VBUS_A9*%
%TO.N,VBUS*%
X106485000Y-108625000D03*
%TO.P,J1,A12,GND_A12*%
%TO.N,GND*%
X106485000Y-109425000D03*
%TO.P,J1,B1,GND_B1*%
X106485000Y-109425000D03*
%TO.P,J1,B4,VBUS_B4*%
%TO.N,VBUS*%
X106485000Y-108625000D03*
D18*
%TO.P,J1,B5,CC2_B5*%
%TO.N,Net-(J1-CC2)*%
X106485000Y-107925000D03*
%TO.P,J1,B6,D+_B6*%
%TO.N,Net-(J1-D+-PadA6)*%
X106485000Y-106925000D03*
%TO.P,J1,B7,D-_B7*%
%TO.N,Net-(J1-D--PadA7)*%
X106485000Y-105425000D03*
%TO.P,J1,B8,SBU2_B8*%
%TO.N,unconnected-(J1-SBU2-PadB8)*%
X106485000Y-104425000D03*
D17*
%TO.P,J1,B9,VBUS_B9*%
%TO.N,VBUS*%
X106485000Y-103725000D03*
%TO.P,J1,B12,GND_B12*%
%TO.N,GND*%
X106485000Y-102925000D03*
D19*
%TO.P,J1,SH,SHIELD_SH*%
X105570000Y-101855000D03*
D20*
X101390000Y-101855000D03*
D19*
X105570000Y-110495000D03*
D20*
X101390000Y-110495000D03*
%TD*%
D10*
%TO.P,R7,1*%
%TO.N,Net-(U1-CFG3)*%
X129377355Y-101403043D03*
%TO.P,R7,2*%
%TO.N,GND*%
X131027355Y-101403043D03*
%TD*%
%TO.P,R9,1*%
%TO.N,Net-(U1-DP)*%
X108380000Y-107740000D03*
%TO.P,R9,2*%
%TO.N,Net-(J1-D+-PadA6)*%
X110030000Y-107740000D03*
%TD*%
D21*
%TO.P,C1,1*%
%TO.N,Net-(U1-VDD)*%
X130520000Y-109040000D03*
%TO.P,C1,2*%
%TO.N,GND*%
X130520000Y-110590000D03*
%TD*%
D10*
%TO.P,R8,1*%
%TO.N,Net-(J1-D--PadA7)*%
X108380000Y-105230000D03*
%TO.P,R8,2*%
%TO.N,Net-(U1-DM)*%
X110030000Y-105230000D03*
%TD*%
D22*
%TO.N,GND*%
X123393118Y-110703924D03*
X106430800Y-111290714D03*
X123181174Y-100553303D03*
X100653303Y-100553303D03*
X113180127Y-110556423D03*
X117037209Y-100553303D03*
X100653303Y-111228857D03*
X119085197Y-100553303D03*
X121768181Y-104209048D03*
X120729967Y-106538711D03*
X100653303Y-102588857D03*
X126527519Y-111417259D03*
X129408132Y-111172293D03*
X115415770Y-102804444D03*
X111132139Y-110556423D03*
X104749279Y-100553303D03*
X128711094Y-108606218D03*
X113779320Y-108731963D03*
X121133185Y-100553303D03*
X124939731Y-104150562D03*
X132480000Y-110180000D03*
X116805762Y-106140768D03*
X127809597Y-106041774D03*
X114757773Y-106140768D03*
X108645579Y-106520438D03*
X110690000Y-102895357D03*
X118853750Y-106140768D03*
X130682174Y-103561941D03*
X108192565Y-103659668D03*
X105467504Y-108220933D03*
X117276104Y-110556423D03*
X104500542Y-102873159D03*
X125229162Y-100553303D03*
X110893244Y-100553303D03*
X100985438Y-108492245D03*
X104446079Y-111128409D03*
X109091388Y-110504293D03*
X106797268Y-100553303D03*
X122882296Y-108692949D03*
X102701291Y-100553303D03*
X105084609Y-105845810D03*
X119720193Y-104209048D03*
X117672204Y-104209048D03*
X124841050Y-108446502D03*
X115228115Y-110556423D03*
X131714901Y-105173023D03*
X131229602Y-100553303D03*
X110612596Y-105905470D03*
X119324092Y-110556423D03*
X100985438Y-106444257D03*
X121355567Y-110645941D03*
D23*
X115250000Y-104375000D03*
D22*
X132210345Y-105594649D03*
X108845256Y-100553303D03*
D23*
X125400000Y-103375000D03*
D22*
X127277150Y-100553303D03*
X112941232Y-100553303D03*
X114989221Y-100553303D03*
%TO.N,Net-(U1-CFG2)*%
X122379878Y-104985612D03*
X124834500Y-102439124D03*
D24*
%TO.N,VBUS*%
X108635590Y-109247586D03*
X131591577Y-103704234D03*
X130586669Y-107518707D03*
X128221176Y-110047948D03*
X107582313Y-103446721D03*
D22*
%TO.N,Net-(U1-CFG3)*%
X122350824Y-102979858D03*
X129623548Y-102112292D03*
X127966180Y-105344791D03*
%TO.N,Net-(U1-DP)*%
X127834191Y-104529447D03*
X113099538Y-106716818D03*
%TO.N,Net-(J1-CC1)*%
X122574870Y-104289210D03*
X109457618Y-104062608D03*
D24*
%TO.N,Net-(U1-VBUS)*%
X124977145Y-105076398D03*
X127662802Y-102816056D03*
D22*
%TO.N,Net-(U1-CFG1)*%
X122665032Y-106275388D03*
X126272487Y-102410813D03*
X122690861Y-105316975D03*
X122310676Y-107523862D03*
%TO.N,+3V3*%
X112399338Y-106416266D03*
X112653423Y-103900615D03*
D23*
X124660000Y-109100000D03*
D22*
X113055940Y-107353624D03*
D23*
X124730000Y-111355000D03*
X124660000Y-109100000D03*
X131440000Y-110010000D03*
D22*
X112667796Y-104651542D03*
%TO.N,Net-(J1-D+-PadA6)*%
X109378709Y-107745971D03*
X108754212Y-107033633D03*
%TD*%
%TO.N,Net-(U1-CFG2)*%
D25*
X127331414Y-107404091D02*
X127924366Y-106811139D01*
X121533500Y-105625000D02*
X120874000Y-105625000D01*
X122846957Y-106939625D02*
X124691125Y-106939625D01*
X122212472Y-104946028D02*
X121533500Y-105625000D01*
X124691125Y-106939625D02*
X125155591Y-107404091D01*
X128195500Y-106396000D02*
X129034000Y-106396000D01*
X122375624Y-106468292D02*
X122846957Y-106939625D01*
X122375624Y-106160740D02*
X122375624Y-106468292D01*
X125155591Y-107404091D02*
X127331414Y-107404091D01*
X120874000Y-105625000D02*
X122095500Y-105625000D01*
X122340293Y-104946028D02*
X122212472Y-104946028D01*
X127924366Y-106476221D02*
X128004587Y-106396000D01*
X128004587Y-106396000D02*
X128195500Y-106396000D01*
X122375624Y-105625000D02*
X122413507Y-105662883D01*
X122413507Y-106122857D02*
X122375624Y-106160740D01*
X122379878Y-104985612D02*
X122340293Y-104946028D01*
X124834500Y-101682500D02*
X124834500Y-102439124D01*
X122095500Y-105625000D02*
X122375624Y-105625000D01*
X127924366Y-106811139D02*
X127924366Y-106476221D01*
X122413507Y-105662883D02*
X122413507Y-106122857D01*
%TO.N,VBUS*%
D26*
X120952827Y-111292827D02*
X120952827Y-109946171D01*
D27*
X106847750Y-103725000D02*
X106485000Y-103725000D01*
X121056655Y-110050000D02*
X120952827Y-109946171D01*
X107304034Y-103725000D02*
X107210500Y-103725000D01*
D28*
X131133500Y-107175000D02*
X130565500Y-106607000D01*
X130565500Y-106607000D02*
X130565500Y-104464000D01*
D27*
X108635590Y-109247586D02*
X107833086Y-109247586D01*
D28*
X127412000Y-110050000D02*
X128219124Y-110050000D01*
X130565500Y-104464000D02*
X130803500Y-104464000D01*
D26*
X121150000Y-111490000D02*
X120952827Y-111292827D01*
D28*
X131041500Y-104063000D02*
X131041500Y-104263500D01*
X128219124Y-110050000D02*
X128221176Y-110047948D01*
X131041500Y-104263500D02*
X131041500Y-104464000D01*
X131292250Y-107375750D02*
X131133500Y-107175000D01*
X130974500Y-107576500D02*
X130916707Y-107518707D01*
X130916707Y-107518707D02*
X130586669Y-107518707D01*
D27*
X107210500Y-103725000D02*
X106847750Y-103725000D01*
D28*
X131212750Y-107576500D02*
X130974500Y-107576500D01*
X131451000Y-107576500D02*
X131212750Y-107576500D01*
X131232811Y-104063000D02*
X131041500Y-104063000D01*
D27*
X106847750Y-108625000D02*
X106485000Y-108625000D01*
X127412000Y-110050000D02*
X121056655Y-110050000D01*
X107582313Y-103446721D02*
X107304034Y-103725000D01*
X107833086Y-109247586D02*
X107210500Y-108625000D01*
D28*
X131591577Y-103704234D02*
X131232811Y-104063000D01*
X131451000Y-107576500D02*
X131292250Y-107375750D01*
X130803500Y-104464000D02*
X131041500Y-104464000D01*
X109334175Y-109946171D02*
X120952827Y-109946171D01*
D27*
X107210500Y-108625000D02*
X106847750Y-108625000D01*
D28*
X108635590Y-109247586D02*
X109334175Y-109946171D01*
%TO.N,Net-(U1-VDD)*%
D25*
X132195449Y-107969308D02*
X132195449Y-107212384D01*
X131451000Y-106328000D02*
X131451000Y-105926500D01*
D26*
X130520000Y-108882658D02*
X130520000Y-109040000D01*
D25*
X131451000Y-106467935D02*
X131451000Y-106328000D01*
D26*
X130520000Y-109040000D02*
X131124757Y-109040000D01*
D25*
X132195449Y-107212384D02*
X131451000Y-106467935D01*
D26*
X131124757Y-109040000D02*
X132195449Y-107969308D01*
X129033750Y-107396408D02*
X130520000Y-108882658D01*
%TO.N,Net-(U1-CFG3)*%
D25*
X128195500Y-105396000D02*
X129034000Y-105396000D01*
X120874000Y-103085000D02*
X122095500Y-103085000D01*
X129623548Y-102112292D02*
X129623548Y-101403000D01*
X122095500Y-103085000D02*
X122235435Y-103085000D01*
X122340577Y-102979858D02*
X122350824Y-102979858D01*
X128055565Y-105396000D02*
X128195500Y-105396000D01*
X122235435Y-103085000D02*
X122340577Y-102979858D01*
X129623548Y-101403000D02*
X129377500Y-101403000D01*
X127966180Y-105344791D02*
X128017390Y-105396000D01*
X128017390Y-105396000D02*
X128055565Y-105396000D01*
%TO.N,Net-(U1-DP)*%
D29*
X113018592Y-106797764D02*
X109792489Y-106797764D01*
X129034000Y-104396000D02*
X128195500Y-104396000D01*
X113099538Y-106716818D02*
X113018592Y-106797764D01*
X127834191Y-104488888D02*
X127834191Y-104529447D01*
X109030414Y-107740000D02*
X108781500Y-107740000D01*
X127927079Y-104396000D02*
X127834191Y-104488888D01*
X109792489Y-106797764D02*
X109030414Y-107559839D01*
X128195500Y-104396000D02*
X127927079Y-104396000D01*
X109030414Y-107559839D02*
X109030414Y-107740000D01*
X108781500Y-107740000D02*
X108380000Y-107740000D01*
%TO.N,Net-(U1-DM)*%
X127692996Y-103396000D02*
X126856111Y-103396000D01*
X114564916Y-104303943D02*
X111476150Y-104303943D01*
X116556054Y-102312805D02*
X114564916Y-104303943D01*
X126343452Y-102883341D02*
X122905122Y-102883341D01*
X110431500Y-105230000D02*
X110030000Y-105230000D01*
X126856111Y-103396000D02*
X126343452Y-102883341D01*
X110699921Y-105230000D02*
X110431500Y-105230000D01*
X122334586Y-102312805D02*
X116556054Y-102312805D01*
X111476150Y-104303943D02*
X110699921Y-105080172D01*
X128195500Y-103396000D02*
X127692996Y-103396000D01*
X129034000Y-103396000D02*
X128195500Y-103396000D01*
X110699921Y-105080172D02*
X110699921Y-105230000D01*
X122905122Y-102883341D02*
X122334586Y-102312805D01*
%TO.N,Net-(J1-CC2)*%
D25*
X110642223Y-107675901D02*
X110642223Y-108245355D01*
X122627631Y-103396000D02*
X122219145Y-103804486D01*
X107465135Y-107925000D02*
X107210500Y-107925000D01*
X110642223Y-108245355D02*
X110428838Y-108458740D01*
X112648459Y-107140144D02*
X111177980Y-107140144D01*
X107998875Y-108458740D02*
X107465135Y-107925000D01*
X107210500Y-107925000D02*
X106485000Y-107925000D01*
X113242264Y-107036500D02*
X112648459Y-107140144D01*
X123759000Y-103396000D02*
X122920500Y-103396000D01*
X116474277Y-103804486D02*
X113242264Y-107036500D01*
X110428838Y-108458740D02*
X107998875Y-108458740D01*
X122920500Y-103396000D02*
X122627631Y-103396000D01*
X122219145Y-103804486D02*
X116474277Y-103804486D01*
X111177980Y-107140144D02*
X110642223Y-107675901D01*
%TO.N,Net-(J1-CC1)*%
X122920500Y-104396000D02*
X122767820Y-104396000D01*
X109457618Y-104062608D02*
X108225571Y-104062608D01*
X123759000Y-104396000D02*
X122920500Y-104396000D01*
X122767820Y-104396000D02*
X122681660Y-104396000D01*
X107363180Y-104925000D02*
X107210500Y-104925000D01*
X122681660Y-104396000D02*
X122574870Y-104289210D01*
X108225571Y-104062608D02*
X107363180Y-104925000D01*
X107210500Y-104925000D02*
X106485000Y-104925000D01*
%TO.N,Net-(U1-VBUS)*%
D27*
X124977145Y-105076398D02*
X124658715Y-105394827D01*
D28*
X130466965Y-102715465D02*
X130565500Y-102814000D01*
D27*
X124597500Y-105394827D02*
X124178250Y-105395414D01*
X124658715Y-105394827D02*
X124597500Y-105394827D01*
D28*
X130803500Y-102814000D02*
X131041500Y-102814000D01*
X127662802Y-102816056D02*
X127763394Y-102715465D01*
X127763394Y-102715465D02*
X130466965Y-102715465D01*
D27*
X124178250Y-105395414D02*
X123759000Y-105396000D01*
D28*
X130565500Y-102814000D02*
X130803500Y-102814000D01*
%TO.N,Net-(U1-CFG1)*%
D25*
X122690861Y-105865361D02*
X122821551Y-105996051D01*
X122793309Y-106396000D02*
X122785643Y-106396000D01*
X122785643Y-106396000D02*
X122665032Y-106275388D01*
X122310676Y-107523862D02*
X122290865Y-107504051D01*
X122290865Y-107504051D02*
X122194449Y-107504051D01*
X122821551Y-105996051D02*
X123221500Y-106396000D01*
X121533500Y-108165000D02*
X120874000Y-108165000D01*
X122690861Y-105316975D02*
X122690861Y-105865361D01*
X126325000Y-102358300D02*
X126325000Y-102311680D01*
X123759000Y-106396000D02*
X122920500Y-106396000D01*
X123221500Y-106396000D02*
X123759000Y-106396000D01*
X126272487Y-102410813D02*
X126325000Y-102358300D01*
X126325000Y-102311680D02*
X126325000Y-102159000D01*
X122920500Y-106396000D02*
X122793309Y-106396000D01*
X122194449Y-107504051D02*
X121533500Y-108165000D01*
X126325000Y-102159000D02*
X126325000Y-101682500D01*
%TO.N,+3V3*%
D30*
X112347419Y-106416266D02*
X112399338Y-106416266D01*
D26*
X124635000Y-111355000D02*
X124500000Y-111490000D01*
D30*
X126438014Y-109100000D02*
X124660000Y-109100000D01*
X112653423Y-103085000D02*
X112653423Y-103900615D01*
X114723014Y-109100000D02*
X113788014Y-108165000D01*
X112264000Y-105063000D02*
X112264000Y-105625000D01*
X112264000Y-104891042D02*
X112264000Y-105063000D01*
X112264000Y-103085000D02*
X112653423Y-103085000D01*
X131380000Y-109950000D02*
X129297106Y-109950000D01*
D26*
X124500000Y-111490000D02*
X122800000Y-111490000D01*
D30*
X112264000Y-108165000D02*
X113055940Y-108165000D01*
X112264000Y-106187000D02*
X112264000Y-106332847D01*
X129297106Y-109950000D02*
X128317596Y-108970490D01*
X124660000Y-109100000D02*
X114723014Y-109100000D01*
X113788014Y-108165000D02*
X112264000Y-108165000D01*
X112503500Y-104651542D02*
X112264000Y-104891042D01*
X131440000Y-110010000D02*
X131380000Y-109950000D01*
X128317596Y-108970490D02*
X126567525Y-108970490D01*
X112264000Y-105625000D02*
X112264000Y-106187000D01*
X112264000Y-106332847D02*
X112347419Y-106416266D01*
X112667796Y-104651542D02*
X112503500Y-104651542D01*
X113055940Y-108165000D02*
X113055940Y-107353624D01*
X126567525Y-108970490D02*
X126438014Y-109100000D01*
D26*
X124730000Y-111355000D02*
X124635000Y-111355000D01*
%TO.N,Net-(J1-D+-PadA6)*%
D25*
X105759500Y-105925000D02*
X105530354Y-105925000D01*
X105632309Y-106925000D02*
X105759500Y-106925000D01*
X109384680Y-107740000D02*
X109412098Y-107740000D01*
X106485000Y-106925000D02*
X107210500Y-106925000D01*
X105759500Y-106925000D02*
X106485000Y-106925000D01*
X109628500Y-107740000D02*
X110030000Y-107740000D01*
X109412098Y-107740000D02*
X109628500Y-107740000D01*
X107503369Y-106925000D02*
X108645579Y-106925000D01*
X107210500Y-106925000D02*
X107503369Y-106925000D01*
X108645579Y-106925000D02*
X108754212Y-107033633D01*
X109378709Y-107745971D02*
X109384680Y-107740000D01*
X105530354Y-105925000D02*
X105457810Y-105997543D01*
X105457810Y-105997543D02*
X105457810Y-106750501D01*
X106485000Y-105925000D02*
X105759500Y-105925000D01*
X105457810Y-106750501D02*
X105632309Y-106925000D01*
%TO.N,Net-(J1-D--PadA7)*%
X106485000Y-105425000D02*
X108185000Y-105425000D01*
X107503369Y-106425000D02*
X107864657Y-106425000D01*
X108380000Y-105909657D02*
X108380000Y-105706000D01*
X108185000Y-105425000D02*
X108380000Y-105230000D01*
X107864657Y-106425000D02*
X108380000Y-105909657D01*
X106485000Y-106425000D02*
X107210500Y-106425000D01*
X107210500Y-106425000D02*
X107503369Y-106425000D01*
X108380000Y-105706000D02*
X108380000Y-105230000D01*
%TD*%
%TA.AperFunction,Conductor*%
%TO.N,GND*%
G36*
X119640938Y-102523282D02*
G01*
X119644365Y-102531555D01*
X119640938Y-102539828D01*
X119613193Y-102567571D01*
X119613192Y-102567572D01*
X119561581Y-102673145D01*
X119551611Y-102741578D01*
X119551611Y-103428414D01*
X119551612Y-103428420D01*
X119561581Y-103496854D01*
X119613192Y-103602427D01*
X119613193Y-103602428D01*
X119642328Y-103631562D01*
X119645755Y-103639835D01*
X119642328Y-103648108D01*
X119634055Y-103651535D01*
X116443850Y-103651535D01*
X116406684Y-103666930D01*
X116406685Y-103666931D01*
X116387637Y-103674821D01*
X113346736Y-106715722D01*
X113338463Y-106719149D01*
X113330190Y-106715722D01*
X113326763Y-106707449D01*
X113326763Y-106671621D01*
X113326762Y-106671617D01*
X113308563Y-106627681D01*
X113292170Y-106588105D01*
X113228251Y-106524186D01*
X113228249Y-106524185D01*
X113144738Y-106489593D01*
X113144736Y-106489593D01*
X113054340Y-106489593D01*
X113054337Y-106489593D01*
X112970826Y-106524185D01*
X112970823Y-106524187D01*
X112907723Y-106587287D01*
X112899450Y-106590714D01*
X112574481Y-106590714D01*
X112566208Y-106587287D01*
X112562781Y-106579014D01*
X112566208Y-106570741D01*
X112591969Y-106544980D01*
X112591970Y-106544979D01*
X112626563Y-106461464D01*
X112626563Y-106371068D01*
X112626562Y-106371065D01*
X112598483Y-106303276D01*
X112598483Y-106294322D01*
X112604815Y-106287990D01*
X112609292Y-106287099D01*
X113267126Y-106287099D01*
X113267129Y-106287099D01*
X113335567Y-106277129D01*
X113441137Y-106225519D01*
X113441138Y-106225518D01*
X113441140Y-106225517D01*
X113524228Y-106142429D01*
X113524229Y-106142427D01*
X113524230Y-106142426D01*
X113575840Y-106036856D01*
X113585811Y-105968419D01*
X113585810Y-105281582D01*
X113575840Y-105213144D01*
X113524230Y-105107574D01*
X113524229Y-105107573D01*
X113524229Y-105107572D01*
X113441138Y-105024481D01*
X113335565Y-104972870D01*
X113267132Y-104962900D01*
X113267130Y-104962900D01*
X112440214Y-104962900D01*
X112431941Y-104959473D01*
X112428514Y-104951200D01*
X112431941Y-104942927D01*
X112447934Y-104926934D01*
X112527623Y-104847243D01*
X112535895Y-104843817D01*
X112540372Y-104844708D01*
X112622595Y-104878766D01*
X112622596Y-104878766D01*
X112622598Y-104878767D01*
X112622600Y-104878767D01*
X112712992Y-104878767D01*
X112712994Y-104878767D01*
X112796509Y-104844174D01*
X112860428Y-104780255D01*
X112895021Y-104696740D01*
X112895021Y-104606344D01*
X112879594Y-104569101D01*
X112862226Y-104527170D01*
X112862226Y-104518216D01*
X112868558Y-104511884D01*
X112873035Y-104510993D01*
X114606099Y-104510993D01*
X114606101Y-104510993D01*
X114646630Y-104494205D01*
X114682200Y-104479472D01*
X116638390Y-102523282D01*
X116646663Y-102519855D01*
X119632665Y-102519855D01*
X119640938Y-102523282D01*
G37*
%TD.AperFunction*%
%TA.AperFunction,Conductor*%
G36*
X132814692Y-100310309D02*
G01*
X132818119Y-100318582D01*
X132818119Y-112131419D01*
X132814692Y-112139692D01*
X132806419Y-112143119D01*
X100418582Y-112143119D01*
X100410309Y-112139692D01*
X100406882Y-112131419D01*
X100406882Y-110425827D01*
X100564600Y-110425827D01*
X100564600Y-110444200D01*
X100793029Y-110444200D01*
X100790000Y-110455504D01*
X100790000Y-110534496D01*
X100793029Y-110545800D01*
X100564600Y-110545800D01*
X100564600Y-110564172D01*
X100600403Y-110697795D01*
X100600405Y-110697799D01*
X100669572Y-110817599D01*
X100669576Y-110817604D01*
X100767395Y-110915423D01*
X100767400Y-110915427D01*
X100887200Y-110984594D01*
X100887204Y-110984596D01*
X101020827Y-111020399D01*
X101020829Y-111020400D01*
X101339200Y-111020400D01*
X101339200Y-110795000D01*
X101440800Y-110795000D01*
X101440800Y-111020400D01*
X101759171Y-111020400D01*
X101759172Y-111020399D01*
X101892795Y-110984596D01*
X101892799Y-110984594D01*
X102012599Y-110915427D01*
X102012604Y-110915423D01*
X102110423Y-110817604D01*
X102110427Y-110817599D01*
X102179594Y-110697799D01*
X102179596Y-110697795D01*
X102215399Y-110564172D01*
X102215400Y-110564171D01*
X102215400Y-110545800D01*
X101986971Y-110545800D01*
X101990000Y-110534496D01*
X101990000Y-110455504D01*
X101986971Y-110444200D01*
X102215400Y-110444200D01*
X102215400Y-110425829D01*
X102215399Y-110425827D01*
X104494600Y-110425827D01*
X104494600Y-110444200D01*
X104723029Y-110444200D01*
X104720000Y-110455504D01*
X104720000Y-110534496D01*
X104723029Y-110545800D01*
X104494600Y-110545800D01*
X104494600Y-110564172D01*
X104530403Y-110697795D01*
X104530405Y-110697799D01*
X104599572Y-110817599D01*
X104599576Y-110817604D01*
X104697395Y-110915423D01*
X104697400Y-110915427D01*
X104817200Y-110984594D01*
X104817204Y-110984596D01*
X104950827Y-111020399D01*
X104950829Y-111020400D01*
X105519200Y-111020400D01*
X105519200Y-110795000D01*
X105620800Y-110795000D01*
X105620800Y-111020400D01*
X106189171Y-111020400D01*
X106189172Y-111020399D01*
X106322795Y-110984596D01*
X106322799Y-110984594D01*
X106442599Y-110915427D01*
X106442604Y-110915423D01*
X106540423Y-110817604D01*
X106540427Y-110817599D01*
X106609594Y-110697799D01*
X106609596Y-110697795D01*
X106645399Y-110564172D01*
X106645400Y-110564171D01*
X106645400Y-110545800D01*
X106416971Y-110545800D01*
X106420000Y-110534496D01*
X106420000Y-110455504D01*
X106416971Y-110444200D01*
X106645400Y-110444200D01*
X106645400Y-110425829D01*
X106645399Y-110425827D01*
X106609596Y-110292204D01*
X106609594Y-110292200D01*
X106540427Y-110172400D01*
X106540423Y-110172395D01*
X106442604Y-110074576D01*
X106442599Y-110074572D01*
X106322799Y-110005405D01*
X106322795Y-110005403D01*
X106189172Y-109969600D01*
X105620800Y-109969600D01*
X105620800Y-110195000D01*
X105519200Y-110195000D01*
X105519200Y-109969600D01*
X104950827Y-109969600D01*
X104817204Y-110005403D01*
X104817200Y-110005405D01*
X104697400Y-110074572D01*
X104697395Y-110074576D01*
X104599576Y-110172395D01*
X104599572Y-110172400D01*
X104530405Y-110292200D01*
X104530403Y-110292204D01*
X104494600Y-110425827D01*
X102215399Y-110425827D01*
X102179596Y-110292204D01*
X102179594Y-110292200D01*
X102110427Y-110172400D01*
X102110423Y-110172395D01*
X102012604Y-110074576D01*
X102012599Y-110074572D01*
X101892799Y-110005405D01*
X101892795Y-110005403D01*
X101759172Y-109969600D01*
X101440800Y-109969600D01*
X101440800Y-110195000D01*
X101339200Y-110195000D01*
X101339200Y-109969600D01*
X101020827Y-109969600D01*
X100887204Y-110005403D01*
X100887200Y-110005405D01*
X100767400Y-110074572D01*
X100767395Y-110074576D01*
X100669576Y-110172395D01*
X100669572Y-110172400D01*
X100600405Y-110292200D01*
X100600403Y-110292204D01*
X100564600Y-110425827D01*
X100406882Y-110425827D01*
X100406882Y-109592273D01*
X105734600Y-109592273D01*
X105744777Y-109643438D01*
X105783543Y-109701455D01*
X105783544Y-109701456D01*
X105841561Y-109740222D01*
X105892727Y-109750400D01*
X106434200Y-109750400D01*
X106535800Y-109750400D01*
X107077273Y-109750400D01*
X107128438Y-109740222D01*
X107186455Y-109701456D01*
X107186456Y-109701455D01*
X107225222Y-109643438D01*
X107235400Y-109592273D01*
X107235400Y-109475800D01*
X106535800Y-109475800D01*
X106535800Y-109750400D01*
X106434200Y-109750400D01*
X106434200Y-109475800D01*
X105734600Y-109475800D01*
X105734600Y-109592273D01*
X100406882Y-109592273D01*
X100406882Y-109008768D01*
X104612900Y-109008768D01*
X104612900Y-109121231D01*
X104642005Y-109229851D01*
X104651119Y-109245637D01*
X104698235Y-109327245D01*
X104777755Y-109406765D01*
X104875146Y-109462993D01*
X104875148Y-109462993D01*
X104875149Y-109462994D01*
X104875147Y-109462994D01*
X104960816Y-109485949D01*
X104983768Y-109492099D01*
X104983769Y-109492100D01*
X104983771Y-109492100D01*
X105096231Y-109492100D01*
X105096231Y-109492099D01*
X105150541Y-109477546D01*
X105204852Y-109462994D01*
X105204854Y-109462993D01*
X105302245Y-109406765D01*
X105381765Y-109327245D01*
X105421901Y-109257726D01*
X105734600Y-109257726D01*
X105734600Y-109374200D01*
X106434200Y-109374200D01*
X106535800Y-109374200D01*
X107235400Y-109374200D01*
X107235400Y-109257726D01*
X107225222Y-109206561D01*
X107186456Y-109148544D01*
X107186455Y-109148543D01*
X107128438Y-109109777D01*
X107077273Y-109099600D01*
X106535800Y-109099600D01*
X106535800Y-109374200D01*
X106434200Y-109374200D01*
X106434200Y-109099600D01*
X105892727Y-109099600D01*
X105841561Y-109109777D01*
X105783544Y-109148543D01*
X105783543Y-109148544D01*
X105744777Y-109206561D01*
X105734600Y-109257726D01*
X105421901Y-109257726D01*
X105437993Y-109229854D01*
X105447896Y-109192899D01*
X105454132Y-109169623D01*
X105467099Y-109121231D01*
X105467100Y-109121231D01*
X105467100Y-109008768D01*
X105437994Y-108900148D01*
X105422531Y-108873365D01*
X105381765Y-108802755D01*
X105302245Y-108723235D01*
X105204854Y-108667007D01*
X105204853Y-108667006D01*
X105204850Y-108667005D01*
X105204852Y-108667005D01*
X105096232Y-108637900D01*
X105096229Y-108637900D01*
X104983771Y-108637900D01*
X104983768Y-108637900D01*
X104875148Y-108667005D01*
X104777753Y-108723236D01*
X104698236Y-108802753D01*
X104642005Y-108900148D01*
X104612900Y-109008768D01*
X100406882Y-109008768D01*
X100406882Y-108450170D01*
X105657900Y-108450170D01*
X105657900Y-108799830D01*
X105672435Y-108872900D01*
X105672527Y-108873365D01*
X105690421Y-108900146D01*
X105728246Y-108956754D01*
X105811635Y-109012473D01*
X105885170Y-109027100D01*
X105885171Y-109027100D01*
X107084829Y-109027100D01*
X107084830Y-109027100D01*
X107113245Y-109021447D01*
X107122028Y-109023194D01*
X107123801Y-109024649D01*
X107621927Y-109522775D01*
X107700346Y-109568049D01*
X107700348Y-109568049D01*
X107700349Y-109568050D01*
X107700347Y-109568050D01*
X107760262Y-109584104D01*
X107787808Y-109591485D01*
X107787809Y-109591486D01*
X107787811Y-109591486D01*
X107878362Y-109591486D01*
X108467450Y-109591486D01*
X108475723Y-109594913D01*
X109046772Y-110165961D01*
X109046793Y-110165984D01*
X109083335Y-110202525D01*
X109113965Y-110233155D01*
X109162469Y-110261159D01*
X109195742Y-110280370D01*
X109195745Y-110280372D01*
X109267678Y-110299645D01*
X109286955Y-110304810D01*
X109286957Y-110304811D01*
X109286958Y-110304811D01*
X109286959Y-110304811D01*
X120788227Y-110304811D01*
X120796500Y-110308238D01*
X120799927Y-110316511D01*
X120799927Y-110943401D01*
X120796500Y-110951674D01*
X120792953Y-110954104D01*
X120776314Y-110961451D01*
X120776312Y-110961452D01*
X120696452Y-111041312D01*
X120696451Y-111041314D01*
X120650829Y-111144635D01*
X120647901Y-111169881D01*
X120647900Y-111169900D01*
X120647900Y-111810099D01*
X120647901Y-111810118D01*
X120650829Y-111835364D01*
X120696451Y-111938685D01*
X120696452Y-111938687D01*
X120776312Y-112018547D01*
X120776314Y-112018548D01*
X120776315Y-112018549D01*
X120834014Y-112044025D01*
X120879635Y-112064170D01*
X120883122Y-112064574D01*
X120904892Y-112067100D01*
X120904900Y-112067100D01*
X121395100Y-112067100D01*
X121395108Y-112067100D01*
X121420364Y-112064170D01*
X121523685Y-112018549D01*
X121603549Y-111938685D01*
X121649170Y-111835364D01*
X121652100Y-111810108D01*
X121652100Y-111169900D01*
X122297900Y-111169900D01*
X122297900Y-111810099D01*
X122297901Y-111810118D01*
X122300829Y-111835364D01*
X122346451Y-111938685D01*
X122346452Y-111938687D01*
X122426312Y-112018547D01*
X122426314Y-112018548D01*
X122426315Y-112018549D01*
X122484014Y-112044025D01*
X122529635Y-112064170D01*
X122533122Y-112064574D01*
X122554892Y-112067100D01*
X122554900Y-112067100D01*
X123045100Y-112067100D01*
X123045108Y-112067100D01*
X123070364Y-112064170D01*
X123173685Y-112018549D01*
X123253549Y-111938685D01*
X123299170Y-111835364D01*
X123302100Y-111810108D01*
X123302100Y-111654600D01*
X123305527Y-111646327D01*
X123313800Y-111642900D01*
X124188701Y-111642900D01*
X124196974Y-111646327D01*
X124200401Y-111654600D01*
X124200401Y-111768325D01*
X124206671Y-111815963D01*
X124206672Y-111815966D01*
X124255422Y-111920511D01*
X124336989Y-112002078D01*
X124441534Y-112050828D01*
X124489173Y-112057100D01*
X125015826Y-112057099D01*
X125063466Y-112050828D01*
X125168011Y-112002078D01*
X125249578Y-111920511D01*
X125298328Y-111815966D01*
X125304600Y-111768327D01*
X125304600Y-111754663D01*
X127577100Y-111754663D01*
X127591628Y-111827701D01*
X127646970Y-111910528D01*
X127646971Y-111910529D01*
X127729798Y-111965871D01*
X127802837Y-111980400D01*
X128001700Y-111980400D01*
X128103300Y-111980400D01*
X128302163Y-111980400D01*
X128375201Y-111965871D01*
X128458028Y-111910529D01*
X128458029Y-111910528D01*
X128513371Y-111827701D01*
X128527900Y-111754663D01*
X128527900Y-111405800D01*
X128103300Y-111405800D01*
X128103300Y-111980400D01*
X128001700Y-111980400D01*
X128001700Y-111405800D01*
X127577100Y-111405800D01*
X127577100Y-111754663D01*
X125304600Y-111754663D01*
X125304599Y-111337100D01*
X125304599Y-110955336D01*
X127577100Y-110955336D01*
X127577100Y-111304200D01*
X128001700Y-111304200D01*
X128103300Y-111304200D01*
X128527900Y-111304200D01*
X128527900Y-110955336D01*
X128513371Y-110882298D01*
X128484884Y-110839663D01*
X130019600Y-110839663D01*
X130034128Y-110912701D01*
X130089470Y-110995528D01*
X130089471Y-110995529D01*
X130172298Y-111050871D01*
X130245337Y-111065400D01*
X130469200Y-111065400D01*
X130570800Y-111065400D01*
X130794663Y-111065400D01*
X130867701Y-111050871D01*
X130950528Y-110995529D01*
X130950529Y-110995528D01*
X131005871Y-110912701D01*
X131020400Y-110839663D01*
X131020400Y-110640800D01*
X130570800Y-110640800D01*
X130570800Y-111065400D01*
X130469200Y-111065400D01*
X130469200Y-110640800D01*
X130019600Y-110640800D01*
X130019600Y-110839663D01*
X128484884Y-110839663D01*
X128458029Y-110799471D01*
X128458028Y-110799470D01*
X128375201Y-110744128D01*
X128302163Y-110729600D01*
X128103300Y-110729600D01*
X128103300Y-111304200D01*
X128001700Y-111304200D01*
X128001700Y-110729600D01*
X127802837Y-110729600D01*
X127729798Y-110744128D01*
X127646971Y-110799470D01*
X127646970Y-110799471D01*
X127591628Y-110882298D01*
X127577100Y-110955336D01*
X125304599Y-110955336D01*
X125304599Y-110954761D01*
X125304599Y-110941674D01*
X125301143Y-110915423D01*
X125298328Y-110894034D01*
X125249578Y-110789489D01*
X125168011Y-110707922D01*
X125063466Y-110659172D01*
X125063464Y-110659171D01*
X125023048Y-110653850D01*
X125015827Y-110652900D01*
X125015826Y-110652900D01*
X124489174Y-110652900D01*
X124441536Y-110659171D01*
X124441533Y-110659172D01*
X124336988Y-110707922D01*
X124255422Y-110789488D01*
X124206671Y-110894035D01*
X124200400Y-110941673D01*
X124200400Y-111325400D01*
X124196973Y-111333673D01*
X124188700Y-111337100D01*
X123313800Y-111337100D01*
X123305527Y-111333673D01*
X123302100Y-111325400D01*
X123302100Y-111169900D01*
X123302100Y-111169892D01*
X123299170Y-111144636D01*
X123253549Y-111041315D01*
X123253548Y-111041314D01*
X123253547Y-111041312D01*
X123173687Y-110961452D01*
X123173685Y-110961451D01*
X123070364Y-110915829D01*
X123045118Y-110912901D01*
X123045115Y-110912900D01*
X123045108Y-110912900D01*
X122554892Y-110912900D01*
X122554885Y-110912900D01*
X122554881Y-110912901D01*
X122529635Y-110915829D01*
X122426314Y-110961451D01*
X122426312Y-110961452D01*
X122346452Y-111041312D01*
X122346451Y-111041314D01*
X122300829Y-111144635D01*
X122297901Y-111169881D01*
X122297900Y-111169900D01*
X121652100Y-111169900D01*
X121652100Y-111169892D01*
X121649170Y-111144636D01*
X121603549Y-111041315D01*
X121603548Y-111041314D01*
X121603547Y-111041312D01*
X121523687Y-110961452D01*
X121523685Y-110961451D01*
X121420364Y-110915829D01*
X121395118Y-110912901D01*
X121395115Y-110912900D01*
X121395108Y-110912900D01*
X121395100Y-110912900D01*
X121117427Y-110912900D01*
X121109154Y-110909473D01*
X121105727Y-110901200D01*
X121105727Y-110405600D01*
X121109154Y-110397327D01*
X121117427Y-110393900D01*
X127308233Y-110393900D01*
X127311261Y-110394299D01*
X127364781Y-110408639D01*
X127364783Y-110408640D01*
X127364784Y-110408640D01*
X128266341Y-110408640D01*
X128266341Y-110408639D01*
X128321352Y-110393900D01*
X128357552Y-110384201D01*
X128357556Y-110384199D01*
X128433528Y-110340336D01*
X128439334Y-110336984D01*
X128508160Y-110268158D01*
X128546053Y-110202526D01*
X128555375Y-110186380D01*
X128555377Y-110186376D01*
X128572186Y-110123640D01*
X128579816Y-110095164D01*
X128579816Y-110000732D01*
X128574650Y-109981452D01*
X128555377Y-109909519D01*
X128555375Y-109909515D01*
X128508162Y-109827741D01*
X128508158Y-109827736D01*
X128441387Y-109760965D01*
X128441382Y-109760961D01*
X128359608Y-109713748D01*
X128359604Y-109713746D01*
X128268394Y-109689308D01*
X128268392Y-109689308D01*
X128173960Y-109689308D01*
X128173959Y-109689308D01*
X128170787Y-109690158D01*
X128167790Y-109690961D01*
X128164763Y-109691360D01*
X127364781Y-109691360D01*
X127311261Y-109705701D01*
X127308233Y-109706100D01*
X121224796Y-109706100D01*
X121216523Y-109702673D01*
X121173038Y-109659188D01*
X121173033Y-109659184D01*
X121091259Y-109611971D01*
X121091255Y-109611969D01*
X121000045Y-109587531D01*
X121000043Y-109587531D01*
X109487574Y-109587531D01*
X109479301Y-109584104D01*
X108855801Y-108960603D01*
X108855796Y-108960599D01*
X108774022Y-108913386D01*
X108774018Y-108913384D01*
X108682808Y-108888946D01*
X108682806Y-108888946D01*
X108588374Y-108888946D01*
X108588371Y-108888946D01*
X108534851Y-108903287D01*
X108531823Y-108903686D01*
X107980380Y-108903686D01*
X107972107Y-108900259D01*
X107421661Y-108349813D01*
X107421660Y-108349812D01*
X107343240Y-108304537D01*
X107343239Y-108304536D01*
X107343236Y-108304535D01*
X107343238Y-108304535D01*
X107255778Y-108281100D01*
X107255775Y-108281100D01*
X107227125Y-108281100D01*
X107220625Y-108279128D01*
X107158365Y-108237527D01*
X107084830Y-108222900D01*
X105885170Y-108222900D01*
X105848402Y-108230213D01*
X105811634Y-108237527D01*
X105728246Y-108293245D01*
X105728245Y-108293246D01*
X105672527Y-108376634D01*
X105672527Y-108376635D01*
X105657900Y-108450170D01*
X100406882Y-108450170D01*
X100406882Y-105967116D01*
X105304859Y-105967116D01*
X105304859Y-106780925D01*
X105310828Y-106795334D01*
X105310828Y-106795335D01*
X105324031Y-106827211D01*
X105328144Y-106837141D01*
X105545669Y-107054666D01*
X105580976Y-107069290D01*
X105601885Y-107077951D01*
X105601886Y-107077951D01*
X105662732Y-107077951D01*
X105667835Y-107077951D01*
X105676108Y-107081378D01*
X105677560Y-107083148D01*
X105686150Y-107096003D01*
X105707317Y-107127681D01*
X105707318Y-107127682D01*
X105763574Y-107165272D01*
X105768549Y-107172718D01*
X105766802Y-107181500D01*
X105763574Y-107184728D01*
X105707318Y-107222317D01*
X105707317Y-107222318D01*
X105668175Y-107280898D01*
X105657900Y-107332555D01*
X105657900Y-107517444D01*
X105668174Y-107569100D01*
X105668175Y-107569101D01*
X105707317Y-107627681D01*
X105707318Y-107627682D01*
X105763574Y-107665272D01*
X105768549Y-107672718D01*
X105766802Y-107681500D01*
X105763574Y-107684728D01*
X105707318Y-107722317D01*
X105707317Y-107722318D01*
X105668175Y-107780898D01*
X105657900Y-107832555D01*
X105657900Y-108017444D01*
X105668174Y-108069100D01*
X105668175Y-108069101D01*
X105697924Y-108113624D01*
X105707318Y-108127682D01*
X105765899Y-108166825D01*
X105817555Y-108177100D01*
X107152444Y-108177099D01*
X107204101Y-108166825D01*
X107262682Y-108127682D01*
X107292437Y-108083150D01*
X107299882Y-108078176D01*
X107302165Y-108077951D01*
X107396934Y-108077951D01*
X107405207Y-108081378D01*
X107869210Y-108545380D01*
X107912235Y-108588405D01*
X107968451Y-108611691D01*
X107968453Y-108611691D01*
X110459260Y-108611691D01*
X110459261Y-108611691D01*
X110459262Y-108611691D01*
X110475726Y-108604870D01*
X110515478Y-108588406D01*
X110771889Y-108331995D01*
X110788353Y-108292243D01*
X110795174Y-108275779D01*
X110795174Y-107744102D01*
X110798601Y-107735829D01*
X111237908Y-107296522D01*
X111246181Y-107293095D01*
X112630284Y-107293095D01*
X112632836Y-107293376D01*
X112644785Y-107296047D01*
X112644786Y-107296048D01*
X112644786Y-107296047D01*
X112644787Y-107296048D01*
X112660709Y-107293268D01*
X112662721Y-107293095D01*
X112678881Y-107293095D01*
X112678883Y-107293095D01*
X112690199Y-107288406D01*
X112692658Y-107287691D01*
X112827610Y-107264137D01*
X112836348Y-107266091D01*
X112841147Y-107273651D01*
X112840430Y-107280140D01*
X112828717Y-107308423D01*
X112828715Y-107308427D01*
X112828715Y-107398824D01*
X112863307Y-107482335D01*
X112863309Y-107482338D01*
X112863898Y-107482927D01*
X112867325Y-107491200D01*
X112863898Y-107499473D01*
X112855625Y-107502900D01*
X111260296Y-107502900D01*
X111260290Y-107502901D01*
X111191856Y-107512870D01*
X111086283Y-107564481D01*
X111086282Y-107564483D01*
X111003194Y-107647571D01*
X111003192Y-107647572D01*
X110951581Y-107753145D01*
X110941611Y-107821578D01*
X110941611Y-108508414D01*
X110941612Y-108508420D01*
X110951581Y-108576854D01*
X111003192Y-108682427D01*
X111086283Y-108765518D01*
X111086284Y-108765518D01*
X111086285Y-108765519D01*
X111191855Y-108817129D01*
X111260292Y-108827100D01*
X113267129Y-108827099D01*
X113335567Y-108817129D01*
X113441137Y-108765519D01*
X113441138Y-108765518D01*
X113441140Y-108765517D01*
X113524228Y-108682429D01*
X113524229Y-108682427D01*
X113524230Y-108682426D01*
X113575840Y-108576856D01*
X113585811Y-108508419D01*
X113585811Y-108332140D01*
X113589238Y-108323867D01*
X113597511Y-108320440D01*
X113718782Y-108320440D01*
X113727055Y-108323867D01*
X114203018Y-108799829D01*
X114634965Y-109231776D01*
X114668431Y-109245637D01*
X114692095Y-109255440D01*
X114692096Y-109255440D01*
X114753932Y-109255440D01*
X124489426Y-109255440D01*
X124497699Y-109258867D01*
X124531358Y-109292526D01*
X124557432Y-109303326D01*
X124614824Y-109327099D01*
X124614825Y-109327099D01*
X124614827Y-109327100D01*
X124614829Y-109327100D01*
X124705171Y-109327100D01*
X124705173Y-109327100D01*
X124788642Y-109292526D01*
X124822301Y-109258867D01*
X124830574Y-109255440D01*
X126468931Y-109255440D01*
X126468932Y-109255440D01*
X126468933Y-109255440D01*
X126492597Y-109245637D01*
X126526063Y-109231776D01*
X126628483Y-109129357D01*
X126636756Y-109125930D01*
X128248364Y-109125930D01*
X128256637Y-109129357D01*
X129165331Y-110038050D01*
X129209056Y-110081775D01*
X129266187Y-110105440D01*
X129266188Y-110105440D01*
X129328024Y-110105440D01*
X130172596Y-110105440D01*
X130180869Y-110108867D01*
X130184296Y-110117140D01*
X130180869Y-110125413D01*
X130174879Y-110128615D01*
X130172298Y-110129128D01*
X130089471Y-110184470D01*
X130089470Y-110184471D01*
X130034128Y-110267298D01*
X130019600Y-110340336D01*
X130019600Y-110539200D01*
X131020400Y-110539200D01*
X131020400Y-110340336D01*
X131005871Y-110267298D01*
X130950529Y-110184471D01*
X130950528Y-110184470D01*
X130867701Y-110129128D01*
X130865121Y-110128615D01*
X130857676Y-110123640D01*
X130855929Y-110114857D01*
X130860904Y-110107412D01*
X130867404Y-110105440D01*
X131225904Y-110105440D01*
X131234177Y-110108867D01*
X131236712Y-110112662D01*
X131247474Y-110138642D01*
X131311358Y-110202526D01*
X131342545Y-110215444D01*
X131394824Y-110237099D01*
X131394825Y-110237099D01*
X131394827Y-110237100D01*
X131394829Y-110237100D01*
X131485171Y-110237100D01*
X131485173Y-110237100D01*
X131568642Y-110202526D01*
X131632526Y-110138642D01*
X131667100Y-110055173D01*
X131667100Y-109964827D01*
X131632526Y-109881358D01*
X131568642Y-109817474D01*
X131568640Y-109817473D01*
X131485175Y-109782900D01*
X131485173Y-109782900D01*
X131394827Y-109782900D01*
X131394824Y-109782900D01*
X131368828Y-109793669D01*
X131364351Y-109794560D01*
X129366337Y-109794560D01*
X129358064Y-109791133D01*
X128405646Y-108838714D01*
X128405644Y-108838713D01*
X128365247Y-108821981D01*
X128348515Y-108815050D01*
X126536606Y-108815050D01*
X126536603Y-108815050D01*
X126503140Y-108828912D01*
X126479477Y-108838713D01*
X126479474Y-108838715D01*
X126377056Y-108941133D01*
X126368783Y-108944560D01*
X124830574Y-108944560D01*
X124822301Y-108941133D01*
X124788643Y-108907475D01*
X124788642Y-108907474D01*
X124788640Y-108907473D01*
X124705175Y-108872900D01*
X124705173Y-108872900D01*
X124614827Y-108872900D01*
X124614824Y-108872900D01*
X124531359Y-108907473D01*
X124497699Y-108941133D01*
X124489426Y-108944560D01*
X114792245Y-108944560D01*
X114783972Y-108941133D01*
X114330739Y-108487900D01*
X113876064Y-108033224D01*
X113868963Y-108030283D01*
X113835665Y-108016491D01*
X113818933Y-108009560D01*
X113597510Y-108009560D01*
X113589237Y-108006133D01*
X113585810Y-107997860D01*
X113585810Y-107821585D01*
X113585809Y-107821581D01*
X113585809Y-107821578D01*
X119551611Y-107821578D01*
X119551611Y-108508414D01*
X119551612Y-108508420D01*
X119561581Y-108576854D01*
X119613192Y-108682427D01*
X119696283Y-108765518D01*
X119696284Y-108765518D01*
X119696285Y-108765519D01*
X119801855Y-108817129D01*
X119870292Y-108827100D01*
X121877129Y-108827099D01*
X121945567Y-108817129D01*
X122051137Y-108765519D01*
X122051138Y-108765518D01*
X122051140Y-108765517D01*
X122134228Y-108682429D01*
X122134229Y-108682427D01*
X122134230Y-108682426D01*
X122185840Y-108576856D01*
X122195811Y-108508419D01*
X122195810Y-107821582D01*
X122185840Y-107753144D01*
X122181568Y-107744406D01*
X122181403Y-107741740D01*
X122180380Y-107739270D01*
X122181136Y-107737443D01*
X122181014Y-107735471D01*
X122183805Y-107730999D01*
X122187996Y-107726808D01*
X122196268Y-107723382D01*
X122200741Y-107724272D01*
X122265478Y-107751087D01*
X122265480Y-107751087D01*
X122355872Y-107751087D01*
X122355874Y-107751087D01*
X122439389Y-107716494D01*
X122503308Y-107652575D01*
X122537901Y-107569060D01*
X122537901Y-107478664D01*
X122503308Y-107395149D01*
X122439389Y-107331230D01*
X122439387Y-107331229D01*
X122355876Y-107296637D01*
X122355874Y-107296637D01*
X122265478Y-107296637D01*
X122265475Y-107296637D01*
X122181964Y-107331229D01*
X122162371Y-107350821D01*
X122158577Y-107353356D01*
X122155420Y-107354663D01*
X122151496Y-107356290D01*
X122151494Y-107356290D01*
X122107810Y-107374384D01*
X122107807Y-107374386D01*
X121967428Y-107514764D01*
X121959155Y-107518191D01*
X121954017Y-107517002D01*
X121945567Y-107512871D01*
X121945565Y-107512870D01*
X121888800Y-107504600D01*
X121877130Y-107502900D01*
X121877129Y-107502900D01*
X119870296Y-107502900D01*
X119870290Y-107502901D01*
X119801856Y-107512870D01*
X119696283Y-107564481D01*
X119696282Y-107564483D01*
X119613194Y-107647571D01*
X119613192Y-107647572D01*
X119561581Y-107753145D01*
X119551611Y-107821578D01*
X113585809Y-107821578D01*
X113575840Y-107753144D01*
X113524230Y-107647574D01*
X113524229Y-107647573D01*
X113524229Y-107647572D01*
X113441138Y-107564481D01*
X113335565Y-107512870D01*
X113267132Y-107502900D01*
X113267130Y-107502900D01*
X113256255Y-107502900D01*
X113247982Y-107499473D01*
X113244555Y-107491200D01*
X113247982Y-107482927D01*
X113248571Y-107482338D01*
X113248571Y-107482337D01*
X113248572Y-107482337D01*
X113283165Y-107398822D01*
X113283165Y-107308426D01*
X113282313Y-107306370D01*
X113263015Y-107259779D01*
X113248572Y-107224911D01*
X113235338Y-107211677D01*
X113233983Y-107208406D01*
X113232085Y-107205415D01*
X113232316Y-107204381D01*
X113231911Y-107203404D01*
X113233266Y-107200132D01*
X113234039Y-107196676D01*
X113234933Y-107196108D01*
X113235338Y-107195131D01*
X113241597Y-107191879D01*
X113254515Y-107189625D01*
X113256526Y-107189451D01*
X113272685Y-107189451D01*
X113272687Y-107189451D01*
X113284003Y-107184762D01*
X113286463Y-107184047D01*
X113298533Y-107181942D01*
X113312175Y-107173282D01*
X113313967Y-107172352D01*
X113316957Y-107171113D01*
X113328904Y-107166166D01*
X113337567Y-107157501D01*
X113339565Y-107155899D01*
X113349908Y-107149337D01*
X113359204Y-107136109D01*
X113360493Y-107134575D01*
X115213489Y-105281578D01*
X119551611Y-105281578D01*
X119551611Y-105968414D01*
X119551612Y-105968420D01*
X119561581Y-106036854D01*
X119613192Y-106142427D01*
X119696283Y-106225518D01*
X119696284Y-106225518D01*
X119696285Y-106225519D01*
X119801855Y-106277129D01*
X119870292Y-106287100D01*
X121877129Y-106287099D01*
X121945567Y-106277129D01*
X122051137Y-106225519D01*
X122051138Y-106225518D01*
X122051140Y-106225517D01*
X122134228Y-106142429D01*
X122134229Y-106142427D01*
X122134230Y-106142426D01*
X122185840Y-106036856D01*
X122195811Y-105968419D01*
X122195811Y-105789651D01*
X122199238Y-105781378D01*
X122207511Y-105777951D01*
X122248856Y-105777951D01*
X122257129Y-105781378D01*
X122260556Y-105789651D01*
X122260556Y-106054656D01*
X122257129Y-106062929D01*
X122245957Y-106074101D01*
X122229493Y-106113851D01*
X122229493Y-106113852D01*
X122222673Y-106130315D01*
X122222673Y-106498716D01*
X122229493Y-106515180D01*
X122229493Y-106515181D01*
X122245848Y-106554666D01*
X122245958Y-106554932D01*
X122760318Y-107069291D01*
X122783350Y-107078831D01*
X122816533Y-107092576D01*
X122816534Y-107092576D01*
X122848950Y-107092576D01*
X122857223Y-107096003D01*
X122860650Y-107104276D01*
X122858678Y-107110776D01*
X122833777Y-107148042D01*
X122819150Y-107221578D01*
X122819150Y-107571237D01*
X122833777Y-107644773D01*
X122881699Y-107716494D01*
X122889496Y-107728162D01*
X122972885Y-107783881D01*
X123046420Y-107798508D01*
X123046421Y-107798508D01*
X124471079Y-107798508D01*
X124471080Y-107798508D01*
X124544615Y-107783881D01*
X124628004Y-107728162D01*
X124683723Y-107644773D01*
X124698350Y-107571238D01*
X124698350Y-107221578D01*
X124691367Y-107186475D01*
X124693114Y-107177694D01*
X124700559Y-107172719D01*
X124709342Y-107174466D01*
X124711115Y-107175921D01*
X125068951Y-107533757D01*
X125108702Y-107550221D01*
X125125167Y-107557042D01*
X125125168Y-107557042D01*
X125125169Y-107557042D01*
X127361836Y-107557042D01*
X127361837Y-107557042D01*
X127361838Y-107557042D01*
X127378302Y-107550221D01*
X127418054Y-107533757D01*
X127730233Y-107221578D01*
X128094150Y-107221578D01*
X128094150Y-107571237D01*
X128108777Y-107644773D01*
X128156699Y-107716494D01*
X128164496Y-107728162D01*
X128247885Y-107783881D01*
X128321420Y-107798508D01*
X129214770Y-107798508D01*
X129223043Y-107801935D01*
X130013486Y-108592378D01*
X130016913Y-108600651D01*
X130013486Y-108608924D01*
X129997922Y-108624488D01*
X129949171Y-108729035D01*
X129942900Y-108776673D01*
X129942900Y-109303325D01*
X129949171Y-109350963D01*
X129949172Y-109350966D01*
X129997922Y-109455511D01*
X130079489Y-109537078D01*
X130184034Y-109585828D01*
X130231673Y-109592100D01*
X130808326Y-109592099D01*
X130855966Y-109585828D01*
X130960511Y-109537078D01*
X131042078Y-109455511D01*
X131090828Y-109350966D01*
X131097100Y-109303327D01*
X131097100Y-109204600D01*
X131100527Y-109196327D01*
X131108800Y-109192900D01*
X131155169Y-109192900D01*
X131155170Y-109192900D01*
X131155171Y-109192900D01*
X131171630Y-109186082D01*
X131211368Y-109169623D01*
X132281046Y-108099942D01*
X132281447Y-108099615D01*
X132303111Y-108077951D01*
X132325114Y-108055948D01*
X132348400Y-107999732D01*
X132348400Y-107181960D01*
X132348209Y-107181500D01*
X132339715Y-107160992D01*
X132334602Y-107148649D01*
X132325115Y-107125744D01*
X131648178Y-106448807D01*
X131644751Y-106440534D01*
X131648178Y-106432261D01*
X131656451Y-106428834D01*
X131771233Y-106428834D01*
X131771241Y-106428834D01*
X131796497Y-106425904D01*
X131899818Y-106380283D01*
X131979682Y-106300419D01*
X132025303Y-106197098D01*
X132028233Y-106171842D01*
X132028233Y-105681626D01*
X132025303Y-105656370D01*
X132020182Y-105644773D01*
X132005158Y-105610748D01*
X131979682Y-105553049D01*
X131979681Y-105553048D01*
X131979680Y-105553046D01*
X131899820Y-105473186D01*
X131899818Y-105473185D01*
X131796497Y-105427563D01*
X131771251Y-105424635D01*
X131771248Y-105424634D01*
X131771241Y-105424634D01*
X131131025Y-105424634D01*
X131131018Y-105424634D01*
X131131014Y-105424635D01*
X131105768Y-105427563D01*
X131002447Y-105473185D01*
X131002445Y-105473186D01*
X130944113Y-105531519D01*
X130935840Y-105534946D01*
X130927567Y-105531519D01*
X130924140Y-105523246D01*
X130924140Y-104978034D01*
X130927567Y-104969761D01*
X130935840Y-104966334D01*
X131361663Y-104966334D01*
X131361671Y-104966334D01*
X131386927Y-104963404D01*
X131490248Y-104917783D01*
X131570112Y-104837919D01*
X131615733Y-104734598D01*
X131618663Y-104709342D01*
X131618663Y-104219126D01*
X131615733Y-104193870D01*
X131615699Y-104193576D01*
X131618150Y-104184963D01*
X131619039Y-104183964D01*
X131878561Y-103924444D01*
X131910038Y-103869924D01*
X131925776Y-103842666D01*
X131925778Y-103842662D01*
X131943635Y-103776016D01*
X131950217Y-103751450D01*
X131950217Y-103657017D01*
X131945051Y-103637738D01*
X131925778Y-103565805D01*
X131925776Y-103565801D01*
X131878563Y-103484027D01*
X131878559Y-103484022D01*
X131811788Y-103417251D01*
X131811783Y-103417247D01*
X131730009Y-103370034D01*
X131730005Y-103370032D01*
X131638796Y-103345594D01*
X131638794Y-103345594D01*
X131544361Y-103345594D01*
X131544358Y-103345594D01*
X131453148Y-103370032D01*
X131453144Y-103370034D01*
X131371370Y-103417247D01*
X131371365Y-103417251D01*
X131087684Y-103700933D01*
X131079411Y-103704360D01*
X130994281Y-103704360D01*
X130903071Y-103728798D01*
X130903067Y-103728800D01*
X130821293Y-103776013D01*
X130821288Y-103776017D01*
X130754517Y-103842788D01*
X130754513Y-103842793D01*
X130707300Y-103924567D01*
X130707298Y-103924571D01*
X130697933Y-103959526D01*
X130692482Y-103966630D01*
X130691358Y-103967201D01*
X130592877Y-104010685D01*
X130592875Y-104010686D01*
X130513015Y-104090546D01*
X130513014Y-104090548D01*
X130507152Y-104103823D01*
X130500675Y-104110007D01*
X130499477Y-104110398D01*
X130427071Y-104129798D01*
X130427067Y-104129800D01*
X130345293Y-104177013D01*
X130345288Y-104177017D01*
X130278517Y-104243788D01*
X130278513Y-104243793D01*
X130231300Y-104325567D01*
X130231298Y-104325571D01*
X130206860Y-104416781D01*
X130206860Y-106654218D01*
X130231298Y-106745428D01*
X130231300Y-106745432D01*
X130278513Y-106827206D01*
X130278515Y-106827209D01*
X130278516Y-106827210D01*
X130439742Y-106988436D01*
X130591401Y-107140094D01*
X130594828Y-107148367D01*
X130591401Y-107156640D01*
X130583128Y-107160067D01*
X130539450Y-107160067D01*
X130448240Y-107184505D01*
X130448236Y-107184507D01*
X130366462Y-107231720D01*
X130366457Y-107231724D01*
X130299686Y-107298495D01*
X130299682Y-107298500D01*
X130252469Y-107380274D01*
X130252467Y-107380278D01*
X130228029Y-107471488D01*
X130228029Y-107565925D01*
X130252467Y-107657135D01*
X130252469Y-107657139D01*
X130299682Y-107738913D01*
X130299684Y-107738916D01*
X130299685Y-107738917D01*
X130366459Y-107805691D01*
X130366460Y-107805692D01*
X130366462Y-107805693D01*
X130448236Y-107852906D01*
X130448240Y-107852908D01*
X130520173Y-107872181D01*
X130539450Y-107877346D01*
X130539452Y-107877347D01*
X130539453Y-107877347D01*
X130633885Y-107877347D01*
X130775167Y-107877347D01*
X130781017Y-107878915D01*
X130836067Y-107910699D01*
X130836069Y-107910699D01*
X130836070Y-107910700D01*
X130908890Y-107930211D01*
X130915993Y-107935662D01*
X130916564Y-107936786D01*
X130922584Y-107950419D01*
X130922585Y-107950421D01*
X131002445Y-108030281D01*
X131002447Y-108030282D01*
X131002448Y-108030283D01*
X131040254Y-108046976D01*
X131105768Y-108075904D01*
X131109255Y-108076308D01*
X131131025Y-108078834D01*
X131131033Y-108078834D01*
X131771233Y-108078834D01*
X131771241Y-108078834D01*
X131796497Y-108075904D01*
X131875548Y-108040998D01*
X131884500Y-108040792D01*
X131890977Y-108046976D01*
X131891184Y-108055928D01*
X131888547Y-108059975D01*
X131117072Y-108831450D01*
X131108799Y-108834877D01*
X131100526Y-108831450D01*
X131097099Y-108823177D01*
X131097099Y-108776674D01*
X131095631Y-108765519D01*
X131090828Y-108729034D01*
X131042078Y-108624489D01*
X130960511Y-108542922D01*
X130855966Y-108494172D01*
X130855964Y-108494171D01*
X130808327Y-108487900D01*
X130346322Y-108487900D01*
X130338049Y-108484473D01*
X129672057Y-107818481D01*
X129668630Y-107810208D01*
X129672057Y-107801935D01*
X129680330Y-107798508D01*
X129746079Y-107798508D01*
X129746080Y-107798508D01*
X129819615Y-107783881D01*
X129903004Y-107728162D01*
X129958723Y-107644773D01*
X129973350Y-107571238D01*
X129973350Y-107221578D01*
X129958723Y-107148043D01*
X129903004Y-107064654D01*
X129888054Y-107054665D01*
X129819615Y-107008935D01*
X129798897Y-107004814D01*
X129746080Y-106994308D01*
X128321420Y-106994308D01*
X128284652Y-107001621D01*
X128247884Y-107008935D01*
X128164496Y-107064653D01*
X128164495Y-107064654D01*
X128108777Y-107148042D01*
X128094150Y-107221578D01*
X127730233Y-107221578D01*
X128054032Y-106897779D01*
X128077317Y-106841562D01*
X128077317Y-106780716D01*
X128077317Y-106605403D01*
X128080744Y-106597130D01*
X128089017Y-106593703D01*
X128097290Y-106597130D01*
X128100491Y-106603119D01*
X128108777Y-106644773D01*
X128158473Y-106719149D01*
X128164496Y-106728162D01*
X128247885Y-106783881D01*
X128321420Y-106798508D01*
X128321421Y-106798508D01*
X129746079Y-106798508D01*
X129746080Y-106798508D01*
X129819615Y-106783881D01*
X129903004Y-106728162D01*
X129958723Y-106644773D01*
X129973350Y-106571238D01*
X129973350Y-106221578D01*
X129958723Y-106148043D01*
X129903004Y-106064654D01*
X129901383Y-106063571D01*
X129819615Y-106008935D01*
X129756079Y-105996297D01*
X129746080Y-105994308D01*
X128321420Y-105994308D01*
X128311431Y-105996295D01*
X128247884Y-106008935D01*
X128164496Y-106064653D01*
X128164495Y-106064654D01*
X128108777Y-106148042D01*
X128094150Y-106221578D01*
X128094150Y-106231349D01*
X128090723Y-106239622D01*
X128082450Y-106243049D01*
X127974160Y-106243049D01*
X127951293Y-106252522D01*
X127917949Y-106266333D01*
X127917946Y-106266335D01*
X127794701Y-106389579D01*
X127794700Y-106389580D01*
X127794700Y-106389581D01*
X127788686Y-106404101D01*
X127771415Y-106445794D01*
X127771415Y-106742938D01*
X127767988Y-106751211D01*
X127271486Y-107247713D01*
X127263213Y-107251140D01*
X125223792Y-107251140D01*
X125215519Y-107247713D01*
X124777766Y-106809960D01*
X124777765Y-106809959D01*
X124750118Y-106798508D01*
X124738013Y-106793494D01*
X124721549Y-106786674D01*
X124579004Y-106786674D01*
X124570731Y-106783247D01*
X124567304Y-106774974D01*
X124570731Y-106766701D01*
X124572504Y-106765246D01*
X124581680Y-106759115D01*
X124628004Y-106728162D01*
X124683723Y-106644773D01*
X124698350Y-106571238D01*
X124698350Y-106221578D01*
X124683723Y-106148043D01*
X124628004Y-106064654D01*
X124626383Y-106063571D01*
X124544615Y-106008935D01*
X124481079Y-105996297D01*
X124471080Y-105994308D01*
X123046420Y-105994308D01*
X123045817Y-105994427D01*
X123043952Y-105994798D01*
X123035170Y-105993047D01*
X123033401Y-105991595D01*
X122907527Y-105865721D01*
X122907520Y-105865715D01*
X122847239Y-105805433D01*
X122843812Y-105797160D01*
X122843812Y-105698360D01*
X122847239Y-105690087D01*
X122855512Y-105686660D01*
X122863785Y-105690087D01*
X122865238Y-105691858D01*
X122889496Y-105728162D01*
X122972885Y-105783881D01*
X123046420Y-105798508D01*
X123046421Y-105798508D01*
X124471079Y-105798508D01*
X124471080Y-105798508D01*
X124544615Y-105783881D01*
X124609241Y-105740699D01*
X124615741Y-105738727D01*
X124703992Y-105738727D01*
X124703992Y-105738726D01*
X124765470Y-105722252D01*
X124791452Y-105715291D01*
X124791452Y-105715290D01*
X124791455Y-105715290D01*
X124797777Y-105711640D01*
X124869874Y-105670016D01*
X125146944Y-105392944D01*
X125149357Y-105391092D01*
X125197355Y-105363382D01*
X125261147Y-105299590D01*
X127738955Y-105299590D01*
X127738955Y-105389991D01*
X127768099Y-105460349D01*
X127773548Y-105473504D01*
X127837467Y-105537423D01*
X127875189Y-105553048D01*
X127920979Y-105572015D01*
X127920980Y-105572015D01*
X127920982Y-105572016D01*
X127920984Y-105572016D01*
X128011376Y-105572016D01*
X128011378Y-105572016D01*
X128064269Y-105550108D01*
X128064911Y-105549842D01*
X128069388Y-105548951D01*
X128082450Y-105548951D01*
X128090723Y-105552378D01*
X128094150Y-105560651D01*
X128094150Y-105571237D01*
X128108777Y-105644773D01*
X128140239Y-105691860D01*
X128164496Y-105728162D01*
X128247885Y-105783881D01*
X128321420Y-105798508D01*
X128321421Y-105798508D01*
X129746079Y-105798508D01*
X129746080Y-105798508D01*
X129819615Y-105783881D01*
X129903004Y-105728162D01*
X129958723Y-105644773D01*
X129973350Y-105571238D01*
X129973350Y-105221578D01*
X129958723Y-105148043D01*
X129903004Y-105064654D01*
X129819615Y-105008935D01*
X129746080Y-104994308D01*
X128321420Y-104994308D01*
X128284652Y-105001621D01*
X128247884Y-105008935D01*
X128164496Y-105064653D01*
X128164495Y-105064654D01*
X128108947Y-105147787D01*
X128101501Y-105152762D01*
X128094742Y-105152096D01*
X128011380Y-105117566D01*
X128011378Y-105117566D01*
X127920982Y-105117566D01*
X127920979Y-105117566D01*
X127837468Y-105152158D01*
X127773547Y-105216079D01*
X127738955Y-105299590D01*
X125261147Y-105299590D01*
X125264129Y-105296608D01*
X125266449Y-105292590D01*
X125266450Y-105292589D01*
X125311344Y-105214830D01*
X125311346Y-105214826D01*
X125326246Y-105159214D01*
X125335785Y-105123614D01*
X125335785Y-105029182D01*
X125322787Y-104980671D01*
X125311346Y-104937969D01*
X125311344Y-104937965D01*
X125264131Y-104856191D01*
X125264127Y-104856186D01*
X125197356Y-104789415D01*
X125197351Y-104789411D01*
X125115577Y-104742198D01*
X125115573Y-104742196D01*
X125024363Y-104717758D01*
X125024361Y-104717758D01*
X124929929Y-104717758D01*
X124929926Y-104717758D01*
X124838716Y-104742196D01*
X124838712Y-104742198D01*
X124756938Y-104789411D01*
X124756933Y-104789415D01*
X124690162Y-104856186D01*
X124690158Y-104856192D01*
X124662454Y-104904174D01*
X124660595Y-104906597D01*
X124559583Y-105007610D01*
X124551310Y-105011037D01*
X124545695Y-105009334D01*
X124545679Y-105009376D01*
X124545263Y-105009203D01*
X124544813Y-105009067D01*
X124544615Y-105008935D01*
X124471080Y-104994308D01*
X123046420Y-104994308D01*
X123009652Y-105001621D01*
X122972884Y-105008935D01*
X122889496Y-105064653D01*
X122889495Y-105064654D01*
X122845500Y-105130495D01*
X122838054Y-105135470D01*
X122829272Y-105133723D01*
X122827499Y-105132268D01*
X122819575Y-105124344D01*
X122819574Y-105124343D01*
X122817819Y-105123616D01*
X122736061Y-105089750D01*
X122736059Y-105089750D01*
X122645663Y-105089750D01*
X122645660Y-105089750D01*
X122595742Y-105110427D01*
X122586787Y-105110427D01*
X122580456Y-105104095D01*
X122580456Y-105095141D01*
X122585423Y-105083151D01*
X122607103Y-105030810D01*
X122607103Y-104940414D01*
X122601519Y-104926934D01*
X122583999Y-104884636D01*
X122572510Y-104856899D01*
X122508591Y-104792980D01*
X122508589Y-104792979D01*
X122425078Y-104758387D01*
X122425076Y-104758387D01*
X122334680Y-104758387D01*
X122334677Y-104758387D01*
X122253082Y-104792186D01*
X122248605Y-104793077D01*
X122182045Y-104793077D01*
X122144966Y-104808436D01*
X122144967Y-104808437D01*
X122125832Y-104816363D01*
X122125830Y-104816364D01*
X121967429Y-104974764D01*
X121959156Y-104978191D01*
X121954018Y-104977002D01*
X121945567Y-104972871D01*
X121924221Y-104969761D01*
X121877130Y-104962900D01*
X121877129Y-104962900D01*
X119870296Y-104962900D01*
X119870290Y-104962901D01*
X119801856Y-104972870D01*
X119696283Y-105024481D01*
X119696282Y-105024483D01*
X119613194Y-105107571D01*
X119613192Y-105107572D01*
X119561581Y-105213145D01*
X119551611Y-105281578D01*
X115213489Y-105281578D01*
X116251058Y-104244009D01*
X122347645Y-104244009D01*
X122347645Y-104334410D01*
X122381765Y-104416781D01*
X122382238Y-104417923D01*
X122446157Y-104481842D01*
X122476004Y-104494205D01*
X122529669Y-104516434D01*
X122529670Y-104516434D01*
X122529672Y-104516435D01*
X122580943Y-104516435D01*
X122589216Y-104519862D01*
X122595020Y-104525666D01*
X122634771Y-104542130D01*
X122651236Y-104548951D01*
X122651237Y-104548951D01*
X122712083Y-104548951D01*
X122737396Y-104548951D01*
X122807450Y-104548951D01*
X122815723Y-104552378D01*
X122819150Y-104560651D01*
X122819150Y-104571238D01*
X122826915Y-104610273D01*
X122833777Y-104644773D01*
X122885430Y-104722078D01*
X122889496Y-104728162D01*
X122972885Y-104783881D01*
X123046420Y-104798508D01*
X123046421Y-104798508D01*
X124471079Y-104798508D01*
X124471080Y-104798508D01*
X124544615Y-104783881D01*
X124628004Y-104728162D01*
X124683723Y-104644773D01*
X124698350Y-104571238D01*
X124698350Y-104484246D01*
X127606966Y-104484246D01*
X127606966Y-104574647D01*
X127640593Y-104655829D01*
X127641559Y-104658160D01*
X127705478Y-104722079D01*
X127720164Y-104728162D01*
X127788990Y-104756671D01*
X127788991Y-104756671D01*
X127788993Y-104756672D01*
X127788995Y-104756672D01*
X127879387Y-104756672D01*
X127879389Y-104756672D01*
X127962904Y-104722079D01*
X128026823Y-104658160D01*
X128046658Y-104610272D01*
X128052989Y-104603941D01*
X128057467Y-104603050D01*
X128090876Y-104603050D01*
X128099149Y-104606477D01*
X128102351Y-104612467D01*
X128108777Y-104644773D01*
X128160430Y-104722078D01*
X128164496Y-104728162D01*
X128247885Y-104783881D01*
X128321420Y-104798508D01*
X128321421Y-104798508D01*
X129746079Y-104798508D01*
X129746080Y-104798508D01*
X129819615Y-104783881D01*
X129903004Y-104728162D01*
X129958723Y-104644773D01*
X129973350Y-104571238D01*
X129973350Y-104221578D01*
X129958723Y-104148043D01*
X129903004Y-104064654D01*
X129891179Y-104056753D01*
X129819615Y-104008935D01*
X129746080Y-103994308D01*
X128321420Y-103994308D01*
X128291869Y-104000186D01*
X128247884Y-104008935D01*
X128164496Y-104064653D01*
X128164495Y-104064654D01*
X128108777Y-104148042D01*
X128102513Y-104179533D01*
X128097538Y-104186978D01*
X128091038Y-104188950D01*
X127885891Y-104188950D01*
X127832083Y-104211238D01*
X127832083Y-104211239D01*
X127813381Y-104218986D01*
X127809794Y-104220472D01*
X127658662Y-104371604D01*
X127651049Y-104389982D01*
X127648515Y-104393776D01*
X127641558Y-104400735D01*
X127606966Y-104484246D01*
X124698350Y-104484246D01*
X124698350Y-104221578D01*
X124683723Y-104148043D01*
X124628004Y-104064654D01*
X124616179Y-104056753D01*
X124544615Y-104008935D01*
X124471080Y-103994308D01*
X123046420Y-103994308D01*
X123016869Y-104000186D01*
X122972884Y-104008935D01*
X122889496Y-104064653D01*
X122889495Y-104064654D01*
X122833777Y-104148042D01*
X122819150Y-104221578D01*
X122819150Y-104226368D01*
X122815723Y-104234641D01*
X122807450Y-104238068D01*
X122799177Y-104234641D01*
X122796641Y-104230845D01*
X122788520Y-104211239D01*
X122767502Y-104160497D01*
X122703583Y-104096578D01*
X122703581Y-104096577D01*
X122620070Y-104061985D01*
X122620068Y-104061985D01*
X122529672Y-104061985D01*
X122529669Y-104061985D01*
X122446158Y-104096577D01*
X122382237Y-104160498D01*
X122347645Y-104244009D01*
X116251058Y-104244009D01*
X116534204Y-103960863D01*
X116542477Y-103957437D01*
X122249567Y-103957437D01*
X122249568Y-103957437D01*
X122249569Y-103957437D01*
X122266033Y-103950616D01*
X122305785Y-103934152D01*
X122687558Y-103552377D01*
X122695831Y-103548951D01*
X122807450Y-103548951D01*
X122815723Y-103552378D01*
X122819150Y-103560651D01*
X122819150Y-103571238D01*
X122827351Y-103612467D01*
X122833777Y-103644773D01*
X122878763Y-103712100D01*
X122889496Y-103728162D01*
X122972885Y-103783881D01*
X123046420Y-103798508D01*
X123046421Y-103798508D01*
X124471079Y-103798508D01*
X124471080Y-103798508D01*
X124544615Y-103783881D01*
X124628004Y-103728162D01*
X124683723Y-103644773D01*
X124698350Y-103571238D01*
X124698350Y-103221578D01*
X124683723Y-103148043D01*
X124657362Y-103108591D01*
X124655615Y-103099808D01*
X124660590Y-103092363D01*
X124667090Y-103090391D01*
X126252843Y-103090391D01*
X126261116Y-103093818D01*
X126680583Y-103513284D01*
X126738827Y-103571528D01*
X126814926Y-103603050D01*
X127651811Y-103603050D01*
X128090876Y-103603050D01*
X128099149Y-103606477D01*
X128102351Y-103612467D01*
X128108777Y-103644773D01*
X128153763Y-103712100D01*
X128164496Y-103728162D01*
X128247885Y-103783881D01*
X128321420Y-103798508D01*
X128321421Y-103798508D01*
X129746079Y-103798508D01*
X129746080Y-103798508D01*
X129819615Y-103783881D01*
X129903004Y-103728162D01*
X129958723Y-103644773D01*
X129973350Y-103571238D01*
X129973350Y-103221578D01*
X129958723Y-103148043D01*
X129928654Y-103103042D01*
X129921480Y-103092305D01*
X129919733Y-103083522D01*
X129924708Y-103076077D01*
X129931208Y-103074105D01*
X130313565Y-103074105D01*
X130321838Y-103077532D01*
X130345290Y-103100984D01*
X130345291Y-103100985D01*
X130345293Y-103100986D01*
X130427067Y-103148199D01*
X130427069Y-103148199D01*
X130427070Y-103148200D01*
X130499244Y-103167539D01*
X130506347Y-103172989D01*
X130506915Y-103174107D01*
X130512777Y-103187383D01*
X130513014Y-103187919D01*
X130513015Y-103187921D01*
X130592875Y-103267781D01*
X130592877Y-103267782D01*
X130592878Y-103267783D01*
X130650577Y-103293259D01*
X130696198Y-103313404D01*
X130699685Y-103313808D01*
X130721455Y-103316334D01*
X130721463Y-103316334D01*
X131361663Y-103316334D01*
X131361671Y-103316334D01*
X131386927Y-103313404D01*
X131490248Y-103267783D01*
X131570112Y-103187919D01*
X131615733Y-103084598D01*
X131618663Y-103059342D01*
X131618663Y-102569126D01*
X131615733Y-102543870D01*
X131613948Y-102539828D01*
X131576938Y-102456009D01*
X131570112Y-102440549D01*
X131570111Y-102440548D01*
X131570110Y-102440546D01*
X131490250Y-102360686D01*
X131490248Y-102360685D01*
X131386927Y-102315063D01*
X131361681Y-102312135D01*
X131361678Y-102312134D01*
X131361671Y-102312134D01*
X130721455Y-102312134D01*
X130721448Y-102312134D01*
X130721444Y-102312135D01*
X130696198Y-102315063D01*
X130592878Y-102360684D01*
X130592876Y-102360685D01*
X130584067Y-102369494D01*
X130575794Y-102372920D01*
X130572767Y-102372521D01*
X130514183Y-102356825D01*
X130514181Y-102356825D01*
X129685780Y-102356825D01*
X129677507Y-102353398D01*
X129674080Y-102345125D01*
X129677507Y-102336852D01*
X129681303Y-102334316D01*
X129698882Y-102327034D01*
X129752261Y-102304924D01*
X129816180Y-102241005D01*
X129850773Y-102157490D01*
X129850773Y-102067094D01*
X129816180Y-101983579D01*
X129779926Y-101947325D01*
X129776499Y-101939052D01*
X129776499Y-101910979D01*
X129779926Y-101902706D01*
X129830902Y-101851730D01*
X129830904Y-101851728D01*
X129876525Y-101748407D01*
X129879455Y-101723151D01*
X129879455Y-101700242D01*
X130601955Y-101700242D01*
X130615033Y-101765990D01*
X130664850Y-101840546D01*
X130664851Y-101840547D01*
X130739407Y-101890364D01*
X130805156Y-101903443D01*
X130976555Y-101903443D01*
X131078155Y-101903443D01*
X131249554Y-101903443D01*
X131315302Y-101890364D01*
X131389858Y-101840547D01*
X131389859Y-101840546D01*
X131439676Y-101765990D01*
X131452755Y-101700242D01*
X131452755Y-101453843D01*
X131078155Y-101453843D01*
X131078155Y-101903443D01*
X130976555Y-101903443D01*
X130976555Y-101453843D01*
X130601955Y-101453843D01*
X130601955Y-101700242D01*
X129879455Y-101700242D01*
X129879455Y-101105843D01*
X130601955Y-101105843D01*
X130601955Y-101352243D01*
X130976555Y-101352243D01*
X131078155Y-101352243D01*
X131452755Y-101352243D01*
X131452755Y-101105843D01*
X131439676Y-101040095D01*
X131389859Y-100965539D01*
X131389858Y-100965538D01*
X131315302Y-100915721D01*
X131249554Y-100902643D01*
X131078155Y-100902643D01*
X131078155Y-101352243D01*
X130976555Y-101352243D01*
X130976555Y-100902643D01*
X130805156Y-100902643D01*
X130739407Y-100915721D01*
X130664851Y-100965538D01*
X130664850Y-100965539D01*
X130615033Y-101040095D01*
X130601955Y-101105843D01*
X129879455Y-101105843D01*
X129879455Y-101082935D01*
X129876525Y-101057679D01*
X129830904Y-100954358D01*
X129830903Y-100954357D01*
X129830902Y-100954355D01*
X129751042Y-100874495D01*
X129751040Y-100874494D01*
X129647719Y-100828872D01*
X129622473Y-100825944D01*
X129622470Y-100825943D01*
X129622463Y-100825943D01*
X129132247Y-100825943D01*
X129132240Y-100825943D01*
X129132236Y-100825944D01*
X129106990Y-100828872D01*
X129003669Y-100874494D01*
X129003667Y-100874495D01*
X128923807Y-100954355D01*
X128923806Y-100954357D01*
X128878184Y-101057678D01*
X128875256Y-101082924D01*
X128875255Y-101082943D01*
X128875255Y-101723142D01*
X128875256Y-101723161D01*
X128878184Y-101748407D01*
X128923806Y-101851728D01*
X128923807Y-101851730D01*
X129003667Y-101931590D01*
X129003669Y-101931591D01*
X129003670Y-101931592D01*
X129039302Y-101947325D01*
X129106990Y-101977213D01*
X129110477Y-101977617D01*
X129132247Y-101980143D01*
X129414829Y-101980143D01*
X129423102Y-101983570D01*
X129426529Y-101991843D01*
X129425638Y-101996320D01*
X129396323Y-102067091D01*
X129396323Y-102157492D01*
X129418596Y-102211262D01*
X129430916Y-102241005D01*
X129494835Y-102304924D01*
X129519716Y-102315230D01*
X129565793Y-102334316D01*
X129572125Y-102340648D01*
X129572125Y-102349602D01*
X129565793Y-102355934D01*
X129561316Y-102356825D01*
X127810612Y-102356825D01*
X127716180Y-102356824D01*
X127716179Y-102356824D01*
X127716178Y-102356824D01*
X127716177Y-102356824D01*
X127624966Y-102381263D01*
X127624963Y-102381264D01*
X127595424Y-102398320D01*
X127552851Y-102422900D01*
X127543182Y-102428482D01*
X127476409Y-102495256D01*
X127443011Y-102528653D01*
X127442989Y-102528673D01*
X127375819Y-102595844D01*
X127375818Y-102595846D01*
X127335113Y-102666349D01*
X127333543Y-102669068D01*
X127328601Y-102677625D01*
X127304162Y-102768835D01*
X127304161Y-102768835D01*
X127304161Y-102863273D01*
X127328599Y-102954483D01*
X127328601Y-102954487D01*
X127369345Y-103025055D01*
X127369345Y-103025056D01*
X127375815Y-103036261D01*
X127375818Y-103036266D01*
X127442592Y-103103040D01*
X127442593Y-103103041D01*
X127442595Y-103103042D01*
X127524369Y-103150255D01*
X127524371Y-103150255D01*
X127524372Y-103150256D01*
X127557607Y-103159161D01*
X127582939Y-103165949D01*
X127590044Y-103171400D01*
X127591212Y-103180278D01*
X127585761Y-103187383D01*
X127579911Y-103188950D01*
X126946719Y-103188950D01*
X126938446Y-103185523D01*
X126460736Y-102707812D01*
X126460734Y-102707811D01*
X126422686Y-102692052D01*
X126384637Y-102676291D01*
X124914515Y-102676291D01*
X124906242Y-102672864D01*
X124902815Y-102664591D01*
X124906242Y-102656318D01*
X124910038Y-102653782D01*
X124922683Y-102648544D01*
X124963213Y-102631756D01*
X125027132Y-102567837D01*
X125061725Y-102484322D01*
X125061725Y-102393926D01*
X125027132Y-102310411D01*
X124996507Y-102279786D01*
X124993080Y-102271513D01*
X124996507Y-102263240D01*
X125004780Y-102259813D01*
X125079827Y-102259813D01*
X125079835Y-102259813D01*
X125105091Y-102256883D01*
X125208412Y-102211262D01*
X125288276Y-102131398D01*
X125333897Y-102028077D01*
X125336827Y-102002821D01*
X125336827Y-101362613D01*
X125822666Y-101362613D01*
X125822666Y-102002812D01*
X125822667Y-102002831D01*
X125825595Y-102028077D01*
X125871217Y-102131398D01*
X125871218Y-102131400D01*
X125951078Y-102211260D01*
X125951080Y-102211261D01*
X125951081Y-102211262D01*
X126008780Y-102236738D01*
X126054401Y-102256883D01*
X126062855Y-102257863D01*
X126075772Y-102259362D01*
X126083595Y-102263719D01*
X126086046Y-102272332D01*
X126082698Y-102279256D01*
X126079856Y-102282098D01*
X126079854Y-102282101D01*
X126045262Y-102365612D01*
X126045262Y-102456013D01*
X126075524Y-102529070D01*
X126079855Y-102539526D01*
X126143774Y-102603445D01*
X126196437Y-102625258D01*
X126227286Y-102638037D01*
X126227287Y-102638037D01*
X126227289Y-102638038D01*
X126227291Y-102638038D01*
X126317683Y-102638038D01*
X126317685Y-102638038D01*
X126401200Y-102603445D01*
X126465119Y-102539526D01*
X126499712Y-102456011D01*
X126499712Y-102365615D01*
X126497670Y-102360686D01*
X126478842Y-102315230D01*
X126477951Y-102310753D01*
X126477951Y-102271513D01*
X126481378Y-102263240D01*
X126489651Y-102259813D01*
X126569866Y-102259813D01*
X126569874Y-102259813D01*
X126595130Y-102256883D01*
X126698451Y-102211262D01*
X126778315Y-102131398D01*
X126823936Y-102028077D01*
X126826866Y-102002821D01*
X126826866Y-101979912D01*
X127549366Y-101979912D01*
X127562444Y-102045660D01*
X127612261Y-102120216D01*
X127612262Y-102120217D01*
X127686818Y-102170034D01*
X127752567Y-102183113D01*
X127923966Y-102183113D01*
X128025566Y-102183113D01*
X128196965Y-102183113D01*
X128262713Y-102170034D01*
X128337269Y-102120217D01*
X128337270Y-102120216D01*
X128387087Y-102045660D01*
X128400166Y-101979912D01*
X128400166Y-101733513D01*
X128025566Y-101733513D01*
X128025566Y-102183113D01*
X127923966Y-102183113D01*
X127923966Y-101733513D01*
X127549366Y-101733513D01*
X127549366Y-101979912D01*
X126826866Y-101979912D01*
X126826866Y-101385513D01*
X127549366Y-101385513D01*
X127549366Y-101631913D01*
X127923966Y-101631913D01*
X128025566Y-101631913D01*
X128400166Y-101631913D01*
X128400166Y-101385513D01*
X128387087Y-101319765D01*
X128337270Y-101245209D01*
X128337269Y-101245208D01*
X128262713Y-101195391D01*
X128196965Y-101182313D01*
X128025566Y-101182313D01*
X128025566Y-101631913D01*
X127923966Y-101631913D01*
X127923966Y-101182313D01*
X127752567Y-101182313D01*
X127686818Y-101195391D01*
X127612262Y-101245208D01*
X127612261Y-101245209D01*
X127562444Y-101319765D01*
X127549366Y-101385513D01*
X126826866Y-101385513D01*
X126826866Y-101362605D01*
X126823936Y-101337349D01*
X126820514Y-101329600D01*
X126803791Y-101291727D01*
X126778315Y-101234028D01*
X126778314Y-101234027D01*
X126778313Y-101234025D01*
X126698453Y-101154165D01*
X126698451Y-101154164D01*
X126595130Y-101108542D01*
X126569884Y-101105614D01*
X126569881Y-101105613D01*
X126569874Y-101105613D01*
X126079658Y-101105613D01*
X126079651Y-101105613D01*
X126079647Y-101105614D01*
X126054401Y-101108542D01*
X125951080Y-101154164D01*
X125951078Y-101154165D01*
X125871218Y-101234025D01*
X125871217Y-101234027D01*
X125825595Y-101337348D01*
X125822667Y-101362594D01*
X125822666Y-101362613D01*
X125336827Y-101362613D01*
X125336827Y-101362605D01*
X125333897Y-101337349D01*
X125330475Y-101329600D01*
X125313752Y-101291727D01*
X125288276Y-101234028D01*
X125288275Y-101234027D01*
X125288274Y-101234025D01*
X125208414Y-101154165D01*
X125208412Y-101154164D01*
X125105091Y-101108542D01*
X125079845Y-101105614D01*
X125079842Y-101105613D01*
X125079835Y-101105613D01*
X124589619Y-101105613D01*
X124589612Y-101105613D01*
X124589608Y-101105614D01*
X124564362Y-101108542D01*
X124461041Y-101154164D01*
X124461039Y-101154165D01*
X124381179Y-101234025D01*
X124381178Y-101234027D01*
X124335556Y-101337348D01*
X124332628Y-101362594D01*
X124332627Y-101362613D01*
X124332627Y-102002812D01*
X124332628Y-102002831D01*
X124335556Y-102028077D01*
X124381178Y-102131398D01*
X124381179Y-102131400D01*
X124461039Y-102211260D01*
X124461041Y-102211261D01*
X124461042Y-102211262D01*
X124518741Y-102236738D01*
X124564362Y-102256883D01*
X124567849Y-102257287D01*
X124589619Y-102259813D01*
X124664220Y-102259813D01*
X124672493Y-102263240D01*
X124675920Y-102271513D01*
X124672493Y-102279786D01*
X124641867Y-102310412D01*
X124607275Y-102393923D01*
X124607275Y-102484324D01*
X124641758Y-102567571D01*
X124641868Y-102567837D01*
X124705787Y-102631756D01*
X124740358Y-102646076D01*
X124758962Y-102653782D01*
X124765294Y-102660114D01*
X124765294Y-102669068D01*
X124758962Y-102675400D01*
X124754485Y-102676291D01*
X122995731Y-102676291D01*
X122987458Y-102672864D01*
X122451871Y-102137277D01*
X122451870Y-102137276D01*
X122437683Y-102131400D01*
X122413820Y-102121516D01*
X122375771Y-102105755D01*
X116514869Y-102105755D01*
X116514866Y-102105755D01*
X116461058Y-102128043D01*
X116461058Y-102128044D01*
X116445338Y-102134556D01*
X116438769Y-102137277D01*
X114482580Y-104093466D01*
X114474307Y-104096893D01*
X112806736Y-104096893D01*
X112798463Y-104093466D01*
X112795036Y-104085193D01*
X112798463Y-104076920D01*
X112846054Y-104029329D01*
X112846055Y-104029328D01*
X112880648Y-103945813D01*
X112880648Y-103855417D01*
X112875366Y-103842666D01*
X112867868Y-103824565D01*
X112846055Y-103771902D01*
X112841225Y-103767072D01*
X112837798Y-103758799D01*
X112841225Y-103750526D01*
X112849498Y-103747099D01*
X113267126Y-103747099D01*
X113267129Y-103747099D01*
X113335567Y-103737129D01*
X113441137Y-103685519D01*
X113441138Y-103685518D01*
X113441140Y-103685517D01*
X113524228Y-103602429D01*
X113524229Y-103602427D01*
X113524230Y-103602426D01*
X113575840Y-103496856D01*
X113585811Y-103428419D01*
X113585810Y-102741582D01*
X113575840Y-102673144D01*
X113524230Y-102567574D01*
X113524229Y-102567573D01*
X113524229Y-102567572D01*
X113441138Y-102484481D01*
X113335565Y-102432870D01*
X113278800Y-102424600D01*
X113267130Y-102422900D01*
X113267129Y-102422900D01*
X111260296Y-102422900D01*
X111260290Y-102422901D01*
X111191856Y-102432870D01*
X111086283Y-102484481D01*
X111086282Y-102484483D01*
X111003194Y-102567571D01*
X111003192Y-102567572D01*
X110951581Y-102673145D01*
X110941611Y-102741578D01*
X110941611Y-103428414D01*
X110941612Y-103428420D01*
X110951581Y-103496854D01*
X111003192Y-103602427D01*
X111086283Y-103685518D01*
X111086284Y-103685518D01*
X111086285Y-103685519D01*
X111191855Y-103737129D01*
X111260292Y-103747100D01*
X112457347Y-103747099D01*
X112465620Y-103750526D01*
X112469047Y-103758799D01*
X112465621Y-103767071D01*
X112460792Y-103771900D01*
X112460790Y-103771903D01*
X112426198Y-103855414D01*
X112426198Y-103945815D01*
X112460790Y-104029326D01*
X112460792Y-104029329D01*
X112508383Y-104076920D01*
X112511810Y-104085193D01*
X112508383Y-104093466D01*
X112500110Y-104096893D01*
X111434964Y-104096893D01*
X111424744Y-104101126D01*
X111414524Y-104105360D01*
X111358867Y-104128413D01*
X110552073Y-104935207D01*
X110543800Y-104938634D01*
X110535527Y-104935207D01*
X110532100Y-104926934D01*
X110532100Y-104909900D01*
X110532100Y-104909892D01*
X110529170Y-104884636D01*
X110526578Y-104878766D01*
X110499024Y-104816363D01*
X110483549Y-104781315D01*
X110483548Y-104781314D01*
X110483547Y-104781312D01*
X110403687Y-104701452D01*
X110403685Y-104701451D01*
X110300364Y-104655829D01*
X110275118Y-104652901D01*
X110275115Y-104652900D01*
X110275108Y-104652900D01*
X109784892Y-104652900D01*
X109784885Y-104652900D01*
X109784881Y-104652901D01*
X109759635Y-104655829D01*
X109656314Y-104701451D01*
X109656312Y-104701452D01*
X109576452Y-104781312D01*
X109576451Y-104781314D01*
X109530829Y-104884635D01*
X109527901Y-104909881D01*
X109527900Y-104909900D01*
X109527900Y-105550099D01*
X109527901Y-105550118D01*
X109530829Y-105575364D01*
X109576451Y-105678685D01*
X109576452Y-105678687D01*
X109656312Y-105758547D01*
X109656314Y-105758548D01*
X109656315Y-105758549D01*
X109713684Y-105783880D01*
X109759635Y-105804170D01*
X109763122Y-105804574D01*
X109784892Y-105807100D01*
X109784900Y-105807100D01*
X110275100Y-105807100D01*
X110275108Y-105807100D01*
X110300364Y-105804170D01*
X110403685Y-105758549D01*
X110483549Y-105678685D01*
X110529170Y-105575364D01*
X110532100Y-105550108D01*
X110532100Y-105448750D01*
X110535527Y-105440477D01*
X110543800Y-105437050D01*
X110741104Y-105437050D01*
X110741106Y-105437050D01*
X110817205Y-105405528D01*
X110875449Y-105347284D01*
X110906971Y-105271185D01*
X110906971Y-105170781D01*
X110910398Y-105162508D01*
X111558486Y-104514420D01*
X111566759Y-104510993D01*
X112395977Y-104510993D01*
X112404250Y-104514420D01*
X112407677Y-104522693D01*
X112404250Y-104530966D01*
X112132223Y-104802993D01*
X112119979Y-104832555D01*
X112108560Y-104860120D01*
X112108560Y-104951200D01*
X112105133Y-104959473D01*
X112096860Y-104962900D01*
X111260296Y-104962900D01*
X111260290Y-104962901D01*
X111191856Y-104972870D01*
X111086283Y-105024481D01*
X111086282Y-105024483D01*
X111003194Y-105107571D01*
X111003192Y-105107572D01*
X110951581Y-105213145D01*
X110941611Y-105281578D01*
X110941611Y-105968414D01*
X110941612Y-105968420D01*
X110951581Y-106036854D01*
X111003192Y-106142427D01*
X111086283Y-106225518D01*
X111086284Y-106225518D01*
X111086285Y-106225519D01*
X111191855Y-106277129D01*
X111260292Y-106287100D01*
X112096860Y-106287099D01*
X112105133Y-106290526D01*
X112108560Y-106298799D01*
X112108560Y-106363766D01*
X112111585Y-106371068D01*
X112111585Y-106371069D01*
X112132223Y-106420895D01*
X112132225Y-106420898D01*
X112169988Y-106458661D01*
X112172524Y-106462457D01*
X112206705Y-106544977D01*
X112206707Y-106544980D01*
X112232468Y-106570741D01*
X112235895Y-106579014D01*
X112232468Y-106587287D01*
X112224195Y-106590714D01*
X109751303Y-106590714D01*
X109735815Y-106597130D01*
X109714674Y-106605887D01*
X109675206Y-106622234D01*
X109675203Y-106622236D01*
X108898486Y-107398952D01*
X108890213Y-107402379D01*
X108881940Y-107398952D01*
X108879510Y-107395405D01*
X108845646Y-107318712D01*
X108833549Y-107291315D01*
X108833548Y-107291314D01*
X108833547Y-107291312D01*
X108814394Y-107272160D01*
X108810967Y-107263887D01*
X108814394Y-107255614D01*
X108818188Y-107253079D01*
X108882925Y-107226265D01*
X108946844Y-107162346D01*
X108981437Y-107078831D01*
X108981437Y-106988435D01*
X108975061Y-106973043D01*
X108959566Y-106935634D01*
X108946844Y-106904920D01*
X108882925Y-106841001D01*
X108873609Y-106837142D01*
X108799412Y-106806408D01*
X108799410Y-106806408D01*
X108748139Y-106806408D01*
X108739866Y-106802981D01*
X108732219Y-106795334D01*
X108732217Y-106795333D01*
X108692467Y-106778869D01*
X108676003Y-106772049D01*
X107533793Y-106772049D01*
X107302165Y-106772049D01*
X107293892Y-106768622D01*
X107292437Y-106766849D01*
X107287269Y-106759115D01*
X107262682Y-106722318D01*
X107257939Y-106719149D01*
X107206425Y-106684728D01*
X107201450Y-106677283D01*
X107203197Y-106668500D01*
X107206425Y-106665272D01*
X107262682Y-106627682D01*
X107292437Y-106583150D01*
X107299882Y-106578176D01*
X107302165Y-106577951D01*
X107895079Y-106577951D01*
X107895080Y-106577951D01*
X107895081Y-106577951D01*
X107911545Y-106571130D01*
X107951297Y-106554666D01*
X108509666Y-105996297D01*
X108532951Y-105940080D01*
X108532951Y-105879234D01*
X108532951Y-105818800D01*
X108536378Y-105810527D01*
X108544651Y-105807100D01*
X108625100Y-105807100D01*
X108625108Y-105807100D01*
X108650364Y-105804170D01*
X108753685Y-105758549D01*
X108833549Y-105678685D01*
X108879170Y-105575364D01*
X108882100Y-105550108D01*
X108882100Y-104909892D01*
X108879170Y-104884636D01*
X108876578Y-104878766D01*
X108849024Y-104816363D01*
X108833549Y-104781315D01*
X108833548Y-104781314D01*
X108833547Y-104781312D01*
X108753687Y-104701452D01*
X108753685Y-104701451D01*
X108650364Y-104655829D01*
X108625118Y-104652901D01*
X108625115Y-104652900D01*
X108625108Y-104652900D01*
X108134892Y-104652900D01*
X108134885Y-104652900D01*
X108134881Y-104652901D01*
X108109635Y-104655829D01*
X108006314Y-104701451D01*
X108006312Y-104701452D01*
X107926452Y-104781312D01*
X107926451Y-104781314D01*
X107880829Y-104884635D01*
X107877901Y-104909881D01*
X107877900Y-104909900D01*
X107877900Y-105260349D01*
X107874473Y-105268622D01*
X107866200Y-105272049D01*
X107302165Y-105272049D01*
X107293892Y-105268622D01*
X107292437Y-105266849D01*
X107262682Y-105222318D01*
X107262681Y-105222317D01*
X107206425Y-105184728D01*
X107201450Y-105177283D01*
X107203197Y-105168500D01*
X107206425Y-105165272D01*
X107262682Y-105127682D01*
X107292437Y-105083150D01*
X107299882Y-105078176D01*
X107302165Y-105077951D01*
X107393602Y-105077951D01*
X107393603Y-105077951D01*
X107393604Y-105077951D01*
X107410068Y-105071130D01*
X107449820Y-105054666D01*
X108285498Y-104218985D01*
X108293771Y-104215559D01*
X109284378Y-104215559D01*
X109292651Y-104218986D01*
X109328905Y-104255240D01*
X109381568Y-104277053D01*
X109412417Y-104289832D01*
X109412418Y-104289832D01*
X109412420Y-104289833D01*
X109412422Y-104289833D01*
X109502814Y-104289833D01*
X109502816Y-104289833D01*
X109586331Y-104255240D01*
X109650250Y-104191321D01*
X109684843Y-104107806D01*
X109684843Y-104017410D01*
X109682057Y-104010685D01*
X109663809Y-103966630D01*
X109650250Y-103933895D01*
X109586331Y-103869976D01*
X109586329Y-103869975D01*
X109502818Y-103835383D01*
X109502816Y-103835383D01*
X109412420Y-103835383D01*
X109412417Y-103835383D01*
X109328906Y-103869975D01*
X109292651Y-103906230D01*
X109284378Y-103909657D01*
X108195146Y-103909657D01*
X108186914Y-103913067D01*
X108178682Y-103916477D01*
X108138932Y-103932941D01*
X107307559Y-104764314D01*
X107299286Y-104767741D01*
X107291013Y-104764314D01*
X107289562Y-104762546D01*
X107262682Y-104722318D01*
X107262324Y-104722079D01*
X107206425Y-104684728D01*
X107201450Y-104677283D01*
X107203197Y-104668500D01*
X107206425Y-104665272D01*
X107220557Y-104655829D01*
X107262682Y-104627682D01*
X107301825Y-104569101D01*
X107312100Y-104517445D01*
X107312099Y-104332556D01*
X107301825Y-104280899D01*
X107262682Y-104222318D01*
X107259919Y-104220472D01*
X107204101Y-104183175D01*
X107185791Y-104179533D01*
X107152445Y-104172900D01*
X107152444Y-104172900D01*
X105817555Y-104172900D01*
X105765899Y-104183174D01*
X105765898Y-104183175D01*
X105707318Y-104222317D01*
X105707317Y-104222318D01*
X105668175Y-104280898D01*
X105657900Y-104332555D01*
X105657900Y-104517444D01*
X105668174Y-104569100D01*
X105668175Y-104569101D01*
X105707317Y-104627681D01*
X105707318Y-104627682D01*
X105763574Y-104665272D01*
X105768549Y-104672718D01*
X105766802Y-104681500D01*
X105763574Y-104684728D01*
X105707318Y-104722317D01*
X105707317Y-104722318D01*
X105668175Y-104780898D01*
X105657900Y-104832555D01*
X105657900Y-105017444D01*
X105668174Y-105069100D01*
X105668175Y-105069101D01*
X105707317Y-105127681D01*
X105707318Y-105127682D01*
X105763574Y-105165272D01*
X105768549Y-105172718D01*
X105766802Y-105181500D01*
X105763574Y-105184728D01*
X105707318Y-105222317D01*
X105707317Y-105222318D01*
X105668175Y-105280898D01*
X105657900Y-105332555D01*
X105657900Y-105517444D01*
X105668174Y-105569100D01*
X105668175Y-105569101D01*
X105707317Y-105627681D01*
X105707318Y-105627682D01*
X105763574Y-105665272D01*
X105768549Y-105672718D01*
X105766802Y-105681500D01*
X105763574Y-105684728D01*
X105707318Y-105722317D01*
X105707317Y-105722318D01*
X105677563Y-105766849D01*
X105670118Y-105771824D01*
X105667835Y-105772049D01*
X105499927Y-105772049D01*
X105478564Y-105780899D01*
X105443716Y-105795333D01*
X105443713Y-105795335D01*
X105328145Y-105910900D01*
X105327255Y-105913051D01*
X105327254Y-105913050D01*
X105327254Y-105913053D01*
X105304859Y-105967116D01*
X100406882Y-105967116D01*
X100406882Y-103228768D01*
X104612900Y-103228768D01*
X104612900Y-103341231D01*
X104642005Y-103449851D01*
X104642007Y-103449854D01*
X104698235Y-103547245D01*
X104777755Y-103626765D01*
X104875146Y-103682993D01*
X104875148Y-103682993D01*
X104875149Y-103682994D01*
X104875147Y-103682994D01*
X104954886Y-103704360D01*
X104983768Y-103712099D01*
X104983769Y-103712100D01*
X104983771Y-103712100D01*
X105096231Y-103712100D01*
X105096231Y-103712099D01*
X105172583Y-103691640D01*
X105204851Y-103682994D01*
X105204851Y-103682993D01*
X105204854Y-103682993D01*
X105302245Y-103626765D01*
X105378840Y-103550170D01*
X105657900Y-103550170D01*
X105657900Y-103899830D01*
X105662821Y-103924570D01*
X105672527Y-103973365D01*
X105720701Y-104045463D01*
X105728246Y-104056754D01*
X105811635Y-104112473D01*
X105885170Y-104127100D01*
X105885171Y-104127100D01*
X107084829Y-104127100D01*
X107084830Y-104127100D01*
X107158365Y-104112473D01*
X107220625Y-104070872D01*
X107227125Y-104068900D01*
X107349311Y-104068900D01*
X107349311Y-104068899D01*
X107410789Y-104052425D01*
X107436771Y-104045464D01*
X107436771Y-104045463D01*
X107436774Y-104045463D01*
X107448949Y-104038434D01*
X107515194Y-104000188D01*
X107752113Y-103763267D01*
X107754526Y-103761414D01*
X107802523Y-103733705D01*
X107869297Y-103666931D01*
X107906180Y-103603049D01*
X107916512Y-103585153D01*
X107916514Y-103585149D01*
X107935769Y-103513284D01*
X107940953Y-103493937D01*
X107940953Y-103399505D01*
X107929369Y-103356270D01*
X107916514Y-103308292D01*
X107916512Y-103308288D01*
X107869299Y-103226514D01*
X107869295Y-103226509D01*
X107802524Y-103159738D01*
X107802519Y-103159734D01*
X107720745Y-103112521D01*
X107720741Y-103112519D01*
X107629531Y-103088081D01*
X107629529Y-103088081D01*
X107535097Y-103088081D01*
X107535094Y-103088081D01*
X107443884Y-103112519D01*
X107443880Y-103112521D01*
X107362106Y-103159734D01*
X107362101Y-103159738D01*
X107295330Y-103226509D01*
X107295326Y-103226515D01*
X107267622Y-103274498D01*
X107265763Y-103276921D01*
X107193204Y-103349480D01*
X107184931Y-103352907D01*
X107178431Y-103350935D01*
X107158365Y-103337527D01*
X107084830Y-103322900D01*
X105885170Y-103322900D01*
X105848402Y-103330213D01*
X105811634Y-103337527D01*
X105728246Y-103393245D01*
X105728245Y-103393246D01*
X105672527Y-103476634D01*
X105669085Y-103493937D01*
X105657900Y-103550170D01*
X105378840Y-103550170D01*
X105381765Y-103547245D01*
X105437993Y-103449854D01*
X105467099Y-103341231D01*
X105467100Y-103341231D01*
X105467100Y-103228768D01*
X105437994Y-103120148D01*
X105433591Y-103112521D01*
X105421901Y-103092273D01*
X105734600Y-103092273D01*
X105744777Y-103143438D01*
X105783543Y-103201455D01*
X105783544Y-103201456D01*
X105841561Y-103240222D01*
X105892727Y-103250400D01*
X106434200Y-103250400D01*
X106535800Y-103250400D01*
X107077273Y-103250400D01*
X107128438Y-103240222D01*
X107186455Y-103201456D01*
X107186456Y-103201455D01*
X107225222Y-103143438D01*
X107235400Y-103092273D01*
X107235400Y-102975800D01*
X106535800Y-102975800D01*
X106535800Y-103250400D01*
X106434200Y-103250400D01*
X106434200Y-102975800D01*
X105734600Y-102975800D01*
X105734600Y-103092273D01*
X105421901Y-103092273D01*
X105381765Y-103022755D01*
X105302245Y-102943235D01*
X105204854Y-102887007D01*
X105204853Y-102887006D01*
X105204850Y-102887005D01*
X105204852Y-102887005D01*
X105096232Y-102857900D01*
X105096229Y-102857900D01*
X104983771Y-102857900D01*
X104983768Y-102857900D01*
X104875148Y-102887005D01*
X104777753Y-102943236D01*
X104698236Y-103022753D01*
X104642005Y-103120148D01*
X104612900Y-103228768D01*
X100406882Y-103228768D01*
X100406882Y-102757726D01*
X105734600Y-102757726D01*
X105734600Y-102874200D01*
X106434200Y-102874200D01*
X106535800Y-102874200D01*
X107235400Y-102874200D01*
X107235400Y-102757726D01*
X107225222Y-102706561D01*
X107186456Y-102648544D01*
X107186455Y-102648543D01*
X107128438Y-102609777D01*
X107077273Y-102599600D01*
X106535800Y-102599600D01*
X106535800Y-102874200D01*
X106434200Y-102874200D01*
X106434200Y-102599600D01*
X105892727Y-102599600D01*
X105841561Y-102609777D01*
X105783544Y-102648543D01*
X105783543Y-102648544D01*
X105744777Y-102706561D01*
X105734600Y-102757726D01*
X100406882Y-102757726D01*
X100406882Y-101785827D01*
X100564600Y-101785827D01*
X100564600Y-101804200D01*
X100793029Y-101804200D01*
X100790000Y-101815504D01*
X100790000Y-101894496D01*
X100793029Y-101905800D01*
X100564600Y-101905800D01*
X100564600Y-101924172D01*
X100600403Y-102057795D01*
X100600405Y-102057799D01*
X100669572Y-102177599D01*
X100669576Y-102177604D01*
X100767395Y-102275423D01*
X100767400Y-102275427D01*
X100887200Y-102344594D01*
X100887204Y-102344596D01*
X101020827Y-102380399D01*
X101020829Y-102380400D01*
X101339200Y-102380400D01*
X101339200Y-102155000D01*
X101440800Y-102155000D01*
X101440800Y-102380400D01*
X101759171Y-102380400D01*
X101759172Y-102380399D01*
X101892795Y-102344596D01*
X101892799Y-102344594D01*
X102012599Y-102275427D01*
X102012604Y-102275423D01*
X102110423Y-102177604D01*
X102110427Y-102177599D01*
X102179594Y-102057799D01*
X102179596Y-102057795D01*
X102215399Y-101924172D01*
X102215400Y-101924171D01*
X102215400Y-101905800D01*
X101986971Y-101905800D01*
X101990000Y-101894496D01*
X101990000Y-101815504D01*
X101986971Y-101804200D01*
X102215400Y-101804200D01*
X102215400Y-101785829D01*
X102215399Y-101785827D01*
X104494600Y-101785827D01*
X104494600Y-101804200D01*
X104723029Y-101804200D01*
X104720000Y-101815504D01*
X104720000Y-101894496D01*
X104723029Y-101905800D01*
X104494600Y-101905800D01*
X104494600Y-101924172D01*
X104530403Y-102057795D01*
X104530405Y-102057799D01*
X104599572Y-102177599D01*
X104599576Y-102177604D01*
X104697395Y-102275423D01*
X104697400Y-102275427D01*
X104817200Y-102344594D01*
X104817204Y-102344596D01*
X104950827Y-102380399D01*
X104950829Y-102380400D01*
X105519200Y-102380400D01*
X105519200Y-102155000D01*
X105620800Y-102155000D01*
X105620800Y-102380400D01*
X106189171Y-102380400D01*
X106189172Y-102380399D01*
X106322795Y-102344596D01*
X106322799Y-102344594D01*
X106442599Y-102275427D01*
X106442604Y-102275423D01*
X106540423Y-102177604D01*
X106540427Y-102177599D01*
X106609594Y-102057799D01*
X106609596Y-102057795D01*
X106630464Y-101979912D01*
X122759327Y-101979912D01*
X122772405Y-102045660D01*
X122822222Y-102120216D01*
X122822223Y-102120217D01*
X122896779Y-102170034D01*
X122962528Y-102183113D01*
X123133927Y-102183113D01*
X123235527Y-102183113D01*
X123406926Y-102183113D01*
X123472674Y-102170034D01*
X123547230Y-102120217D01*
X123547231Y-102120216D01*
X123597048Y-102045660D01*
X123610127Y-101979912D01*
X123610127Y-101733513D01*
X123235527Y-101733513D01*
X123235527Y-102183113D01*
X123133927Y-102183113D01*
X123133927Y-101733513D01*
X122759327Y-101733513D01*
X122759327Y-101979912D01*
X106630464Y-101979912D01*
X106645399Y-101924172D01*
X106645400Y-101924171D01*
X106645400Y-101905800D01*
X106416971Y-101905800D01*
X106420000Y-101894496D01*
X106420000Y-101815504D01*
X106416971Y-101804200D01*
X106645400Y-101804200D01*
X106645400Y-101785829D01*
X106645399Y-101785827D01*
X106630895Y-101731695D01*
X106609596Y-101652204D01*
X106609594Y-101652200D01*
X106540427Y-101532400D01*
X106540423Y-101532395D01*
X106442604Y-101434576D01*
X106442599Y-101434572D01*
X106374179Y-101395070D01*
X106357626Y-101385513D01*
X122759327Y-101385513D01*
X122759327Y-101631913D01*
X123133927Y-101631913D01*
X123235527Y-101631913D01*
X123610127Y-101631913D01*
X123610127Y-101385513D01*
X123597048Y-101319765D01*
X123547231Y-101245209D01*
X123547230Y-101245208D01*
X123472674Y-101195391D01*
X123406926Y-101182313D01*
X123235527Y-101182313D01*
X123235527Y-101631913D01*
X123133927Y-101631913D01*
X123133927Y-101182313D01*
X122962528Y-101182313D01*
X122896779Y-101195391D01*
X122822223Y-101245208D01*
X122822222Y-101245209D01*
X122772405Y-101319765D01*
X122759327Y-101385513D01*
X106357626Y-101385513D01*
X106322799Y-101365405D01*
X106322795Y-101365403D01*
X106189172Y-101329600D01*
X105620800Y-101329600D01*
X105620800Y-101555000D01*
X105519200Y-101555000D01*
X105519200Y-101329600D01*
X104950827Y-101329600D01*
X104817204Y-101365403D01*
X104817200Y-101365405D01*
X104697400Y-101434572D01*
X104697395Y-101434576D01*
X104599576Y-101532395D01*
X104599572Y-101532400D01*
X104530405Y-101652200D01*
X104530403Y-101652204D01*
X104494600Y-101785827D01*
X102215399Y-101785827D01*
X102179596Y-101652204D01*
X102179594Y-101652200D01*
X102110427Y-101532400D01*
X102110423Y-101532395D01*
X102012604Y-101434576D01*
X102012599Y-101434572D01*
X101892799Y-101365405D01*
X101892795Y-101365403D01*
X101759172Y-101329600D01*
X101440800Y-101329600D01*
X101440800Y-101555000D01*
X101339200Y-101555000D01*
X101339200Y-101329600D01*
X101020827Y-101329600D01*
X100887204Y-101365403D01*
X100887200Y-101365405D01*
X100767400Y-101434572D01*
X100767395Y-101434576D01*
X100669576Y-101532395D01*
X100669572Y-101532400D01*
X100600405Y-101652200D01*
X100600403Y-101652204D01*
X100564600Y-101785827D01*
X100406882Y-101785827D01*
X100406882Y-100318582D01*
X100410309Y-100310309D01*
X100418582Y-100306882D01*
X132806419Y-100306882D01*
X132814692Y-100310309D01*
G37*
%TD.AperFunction*%
%TD*%
M02*
