%TF.GenerationSoftware,KiCad,Pcbnew,10.0.1*%
%TF.CreationDate,2026-06-17T10:12:15+02:00*%
%TF.ProjectId,USB-PD-CH224K,5553422d-5044-42d4-9348-3232344b2e6b,rev?*%
%TF.SameCoordinates,Original*%
%TF.FileFunction,Paste,Top*%
%TF.FilePolarity,Positive*%
%FSLAX46Y46*%
G04 Gerber Fmt 4.6, Leading zero omitted, Abs format (unit mm)*
G04 Created by KiCad (PCBNEW 10.0.1) date 2026-06-17 10:12:15*
%MOMM*%
%LPD*%
G01*
G04 APERTURE LIST*
G04 Aperture macros list*
%AMRoundRect*
0 Rectangle with rounded corners*
0 $1 Rounding radius*
0 $2 $3 $4 $5 $6 $7 $8 $9 X,Y pos of 4 corners*
0 Add a 4 corners polygon primitive as box body*
4,1,4,$2,$3,$4,$5,$6,$7,$8,$9,$2,$3,0*
0 Add four circle primitives for the rounded corners*
1,1,$1+$1,$2,$3*
1,1,$1+$1,$4,$5*
1,1,$1+$1,$6,$7*
1,1,$1+$1,$8,$9*
0 Add four rect primitives between the rounded corners*
20,1,$1+$1,$2,$3,$4,$5,0*
20,1,$1+$1,$4,$5,$6,$7,0*
20,1,$1+$1,$6,$7,$8,$9,0*
20,1,$1+$1,$8,$9,$2,$3,0*%
G04 Aperture macros list end*
%ADD10RoundRect,0.200000X-0.200000X-0.275000X0.200000X-0.275000X0.200000X0.275000X-0.200000X0.275000X0*%
%ADD11RoundRect,0.200000X0.275000X-0.200000X0.275000X0.200000X-0.275000X0.200000X-0.275000X-0.200000X0*%
%ADD12RoundRect,0.218750X-0.218750X-0.256250X0.218750X-0.256250X0.218750X0.256250X-0.218750X0.256250X0*%
%ADD13RoundRect,0.150000X0.687500X0.150000X-0.687500X0.150000X-0.687500X-0.150000X0.687500X-0.150000X0*%
%ADD14RoundRect,0.250000X0.595000X1.080000X-0.595000X1.080000X-0.595000X-1.080000X0.595000X-1.080000X0*%
%ADD15RoundRect,0.250000X0.970000X0.310000X-0.970000X0.310000X-0.970000X-0.310000X0.970000X-0.310000X0*%
%ADD16RoundRect,0.218750X0.218750X0.256250X-0.218750X0.256250X-0.218750X-0.256250X0.218750X-0.256250X0*%
%ADD17RoundRect,0.225000X-0.225000X-0.375000X0.225000X-0.375000X0.225000X0.375000X-0.225000X0.375000X0*%
%ADD18RoundRect,0.200000X0.200000X0.275000X-0.200000X0.275000X-0.200000X-0.275000X0.200000X-0.275000X0*%
%ADD19RoundRect,0.150000X-0.575000X0.150000X-0.575000X-0.150000X0.575000X-0.150000X0.575000X0.150000X0*%
%ADD20RoundRect,0.075000X-0.650000X0.075000X-0.650000X-0.075000X0.650000X-0.075000X0.650000X0.075000X0*%
%ADD21RoundRect,0.087500X-0.425000X-0.087500X0.425000X-0.087500X0.425000X0.087500X-0.425000X0.087500X0*%
%ADD22RoundRect,0.112500X-0.187500X-0.112500X0.187500X-0.112500X0.187500X0.112500X-0.187500X0.112500X0*%
%ADD23RoundRect,0.225000X-0.225000X-0.250000X0.225000X-0.250000X0.225000X0.250000X-0.225000X0.250000X0*%
%ADD24RoundRect,0.225000X-0.250000X0.225000X-0.250000X-0.225000X0.250000X-0.225000X0.250000X0.225000X0*%
G04 APERTURE END LIST*
D10*
%TO.C,R6*%
X124834727Y-101682713D03*
X123184727Y-101682713D03*
%TD*%
D11*
%TO.C,R2*%
X131451133Y-105926734D03*
X131451133Y-107576734D03*
%TD*%
D12*
%TO.C,F2*%
X110052500Y-109855000D03*
X108477500Y-109855000D03*
%TD*%
D13*
%TO.C,U1*%
X123758750Y-107396408D03*
X123758750Y-106396408D03*
X123758750Y-105396408D03*
X123758750Y-104396408D03*
X123758750Y-103396408D03*
X129033750Y-103396408D03*
X129033750Y-104396408D03*
X129033750Y-105396408D03*
X129033750Y-106396408D03*
X129033750Y-107396408D03*
D14*
X126396250Y-105396408D03*
%TD*%
D15*
%TO.C,SW1*%
X112263711Y-108165000D03*
X112263711Y-105625000D03*
X112263711Y-103085000D03*
X120873711Y-103085000D03*
X120873711Y-105625000D03*
X120873711Y-108165000D03*
%TD*%
D16*
%TO.C,D2*%
X117982500Y-111480000D03*
X119557500Y-111480000D03*
%TD*%
D17*
%TO.C,D1*%
X128052500Y-111355000D03*
X124752500Y-111355000D03*
%TD*%
D18*
%TO.C,R5*%
X126324766Y-101682713D03*
X127974766Y-101682713D03*
%TD*%
D11*
%TO.C,R1*%
X131041563Y-102814234D03*
X131041563Y-104464234D03*
%TD*%
D10*
%TO.C,R10*%
X122800000Y-111490000D03*
X121150000Y-111490000D03*
%TD*%
D19*
%TO.C,J1*%
X106485000Y-102925000D03*
X106485000Y-103725000D03*
D20*
X106485000Y-104425000D03*
X106485000Y-105425000D03*
X106485000Y-106925000D03*
X106485000Y-107925000D03*
D19*
X106485000Y-108625000D03*
X106485000Y-109425000D03*
X106485000Y-109425000D03*
X106485000Y-108625000D03*
D20*
X106485000Y-107425000D03*
X106485000Y-106425000D03*
X106485000Y-105925000D03*
X106485000Y-104925000D03*
D19*
X106485000Y-103725000D03*
X106485000Y-102925000D03*
%TD*%
D21*
%TO.C,D4*%
X110060000Y-101550000D03*
X110060000Y-102850000D03*
X108385000Y-102850000D03*
X108385000Y-102200000D03*
X108385000Y-101550000D03*
%TD*%
D18*
%TO.C,R3*%
X114845000Y-111480000D03*
X116495000Y-111480000D03*
%TD*%
D10*
%TO.C,R7*%
X131027355Y-101403043D03*
X129377355Y-101403043D03*
%TD*%
%TO.C,R9*%
X110030000Y-107740000D03*
X108380000Y-107740000D03*
%TD*%
D22*
%TO.C,D3*%
X110430000Y-111530000D03*
X108330000Y-111530000D03*
%TD*%
D23*
%TO.C,C2*%
X113365000Y-111470000D03*
X111815000Y-111470000D03*
%TD*%
D24*
%TO.C,C1*%
X130520000Y-110590000D03*
X130520000Y-109040000D03*
%TD*%
D10*
%TO.C,R8*%
X110030000Y-105230000D03*
X108380000Y-105230000D03*
%TD*%
M02*
