%TF.GenerationSoftware,KiCad,Pcbnew,10.0.1*%
%TF.CreationDate,2026-06-14T10:20:21+02:00*%
%TF.ProjectId,USB-PD-CH224K,5553422d-5044-42d4-9348-3232344b2e6b,rev?*%
%TF.SameCoordinates,Original*%
%TF.FileFunction,Copper,L1,Top*%
%TF.FilePolarity,Positive*%
%FSLAX46Y46*%
G04 Gerber Fmt 4.6, Leading zero omitted, Abs format (unit mm)*
G04 Created by KiCad (PCBNEW 10.0.1) date 2026-06-14 10:20:21*
%MOMM*%
%LPD*%
G01*
G04 APERTURE LIST*
G04 Aperture macros list*
%AMRoundRect*
0 Rectangle with rounded corners*
0 $1 Rounding radius*
0 $2 $3 $4 $5 $6 $7 $8 $9 X,Y pos of 4 corners*
0 Add a 4 corners polygon primitive as box body*
4,1,4,$2,$3,$4,$5,$6,$7,$8,$9,$2,$3,0*
0 Add four circle primitives for the rounded corners*
1,1,$1+$1,$2,$3*
1,1,$1+$1,$4,$5*
1,1,$1+$1,$6,$7*
1,1,$1+$1,$8,$9*
0 Add four rect primitives between the rounded corners*
20,1,$1+$1,$2,$3,$4,$5,0*
20,1,$1+$1,$4,$5,$6,$7,0*
20,1,$1+$1,$6,$7,$8,$9,0*
20,1,$1+$1,$8,$9,$2,$3,0*%
G04 Aperture macros list end*
%TA.AperFunction,SMDPad,CuDef*%
%ADD10RoundRect,0.200000X-0.200000X-0.275000X0.200000X-0.275000X0.200000X0.275000X-0.200000X0.275000X0*%
%TD*%
%TA.AperFunction,SMDPad,CuDef*%
%ADD11RoundRect,0.200000X0.275000X-0.200000X0.275000X0.200000X-0.275000X0.200000X-0.275000X-0.200000X0*%
%TD*%
%TA.AperFunction,SMDPad,CuDef*%
%ADD12RoundRect,0.218750X-0.218750X-0.256250X0.218750X-0.256250X0.218750X0.256250X-0.218750X0.256250X0*%
%TD*%
%TA.AperFunction,SMDPad,CuDef*%
%ADD13RoundRect,0.150000X0.687500X0.150000X-0.687500X0.150000X-0.687500X-0.150000X0.687500X-0.150000X0*%
%TD*%
%TA.AperFunction,HeatsinkPad*%
%ADD14R,2.100000X3.300000*%
%TD*%
%TA.AperFunction,SMDPad,CuDef*%
%ADD15RoundRect,0.250000X0.970000X0.310000X-0.970000X0.310000X-0.970000X-0.310000X0.970000X-0.310000X0*%
%TD*%
%TA.AperFunction,SMDPad,CuDef*%
%ADD16RoundRect,0.218750X0.218750X0.256250X-0.218750X0.256250X-0.218750X-0.256250X0.218750X-0.256250X0*%
%TD*%
%TA.AperFunction,SMDPad,CuDef*%
%ADD17RoundRect,0.225000X-0.225000X-0.375000X0.225000X-0.375000X0.225000X0.375000X-0.225000X0.375000X0*%
%TD*%
%TA.AperFunction,SMDPad,CuDef*%
%ADD18RoundRect,0.200000X0.200000X0.275000X-0.200000X0.275000X-0.200000X-0.275000X0.200000X-0.275000X0*%
%TD*%
%TA.AperFunction,SMDPad,CuDef*%
%ADD19RoundRect,0.150000X-0.575000X0.150000X-0.575000X-0.150000X0.575000X-0.150000X0.575000X0.150000X0*%
%TD*%
%TA.AperFunction,SMDPad,CuDef*%
%ADD20RoundRect,0.075000X-0.650000X0.075000X-0.650000X-0.075000X0.650000X-0.075000X0.650000X0.075000X0*%
%TD*%
%TA.AperFunction,ComponentPad*%
%ADD21O,2.100000X1.000000*%
%TD*%
%TA.AperFunction,ComponentPad*%
%ADD22O,1.600000X1.000000*%
%TD*%
%TA.AperFunction,SMDPad,CuDef*%
%ADD23RoundRect,0.087500X-0.425000X-0.087500X0.425000X-0.087500X0.425000X0.087500X-0.425000X0.087500X0*%
%TD*%
%TA.AperFunction,SMDPad,CuDef*%
%ADD24RoundRect,0.112500X-0.187500X-0.112500X0.187500X-0.112500X0.187500X0.112500X-0.187500X0.112500X0*%
%TD*%
%TA.AperFunction,SMDPad,CuDef*%
%ADD25RoundRect,0.225000X-0.225000X-0.250000X0.225000X-0.250000X0.225000X0.250000X-0.225000X0.250000X0*%
%TD*%
%TA.AperFunction,SMDPad,CuDef*%
%ADD26RoundRect,0.225000X-0.250000X0.225000X-0.250000X-0.225000X0.250000X-0.225000X0.250000X0.225000X0*%
%TD*%
%TA.AperFunction,ViaPad*%
%ADD27C,0.250250*%
%TD*%
%TA.AperFunction,ViaPad*%
%ADD28C,0.250000*%
%TD*%
%TA.AperFunction,ViaPad*%
%ADD29C,0.513080*%
%TD*%
%TA.AperFunction,Conductor*%
%ADD30C,0.101702*%
%TD*%
%TA.AperFunction,Conductor*%
%ADD31C,0.513080*%
%TD*%
%TA.AperFunction,Conductor*%
%ADD32C,0.101600*%
%TD*%
%TA.AperFunction,Conductor*%
%ADD33C,0.209900*%
%TD*%
%TA.AperFunction,Conductor*%
%ADD34C,0.483600*%
%TD*%
%TA.AperFunction,Conductor*%
%ADD35C,0.106680*%
%TD*%
G04 APERTURE END LIST*
D10*
%TO.P,R6,1*%
%TO.N,GND*%
X123184727Y-101682713D03*
%TO.P,R6,2*%
%TO.N,Net-(U1-CFG2)*%
X124834727Y-101682713D03*
%TD*%
D11*
%TO.P,R2,1*%
%TO.N,VBUS*%
X131451133Y-107576734D03*
%TO.P,R2,2*%
%TO.N,Net-(U1-VDD)*%
X131451133Y-105926734D03*
%TD*%
D12*
%TO.P,F2,1*%
%TO.N,Net-(F2-Pad1)*%
X108477500Y-109855000D03*
%TO.P,F2,2*%
%TO.N,VBUS*%
X110052500Y-109855000D03*
%TD*%
D13*
%TO.P,U1,1,VDD_1*%
%TO.N,Net-(U1-VDD)*%
X129033750Y-107396408D03*
%TO.P,U1,2,CFG2_2*%
%TO.N,Net-(U1-CFG2)*%
X129033750Y-106396408D03*
%TO.P,U1,3,CFG3_3*%
%TO.N,Net-(U1-CFG3)*%
X129033750Y-105396408D03*
%TO.P,U1,4,DP_4*%
%TO.N,Net-(D4B-K2)*%
X129033750Y-104396408D03*
%TO.P,U1,5,DM_5*%
%TO.N,Net-(D4A-K1)*%
X129033750Y-103396408D03*
%TO.P,U1,6,CC2_6*%
%TO.N,Net-(D4D-K4)*%
X123758750Y-103396408D03*
%TO.P,U1,7,CC1_7*%
%TO.N,Net-(D4C-K3)*%
X123758750Y-104396408D03*
%TO.P,U1,8,VBUS_8*%
%TO.N,Net-(U1-VBUS)*%
X123758750Y-105396408D03*
%TO.P,U1,9,CFG1_9*%
%TO.N,Net-(U1-CFG1)*%
X123758750Y-106396408D03*
%TO.P,U1,10,PG_10*%
%TO.N,/PG*%
X123758750Y-107396408D03*
D14*
%TO.P,U1,11,GND_11*%
%TO.N,GND*%
X126396250Y-105396408D03*
%TD*%
D15*
%TO.P,SW1,1*%
%TO.N,Net-(U1-CFG1)*%
X120873711Y-108165000D03*
%TO.P,SW1,2*%
%TO.N,Net-(U1-CFG2)*%
X120873711Y-105625000D03*
%TO.P,SW1,3*%
%TO.N,Net-(U1-CFG3)*%
X120873711Y-103085000D03*
%TO.P,SW1,4*%
%TO.N,+3V3*%
X112263711Y-103085000D03*
%TO.P,SW1,5*%
X112263711Y-105625000D03*
%TO.P,SW1,6*%
X112263711Y-108165000D03*
%TD*%
D16*
%TO.P,D2,1,K_1*%
%TO.N,/PG*%
X119557500Y-111480000D03*
%TO.P,D2,2,A_2*%
%TO.N,Net-(D2-A)*%
X117982500Y-111480000D03*
%TD*%
D17*
%TO.P,D1,1,K_1*%
%TO.N,+3V3*%
X124752500Y-111355000D03*
%TO.P,D1,2,A_2*%
%TO.N,GND*%
X128052500Y-111355000D03*
%TD*%
D18*
%TO.P,R5,1*%
%TO.N,GND*%
X127974766Y-101682713D03*
%TO.P,R5,2*%
%TO.N,Net-(U1-CFG1)*%
X126324766Y-101682713D03*
%TD*%
D11*
%TO.P,R1,1*%
%TO.N,VBUS*%
X131041563Y-104464234D03*
%TO.P,R1,2*%
%TO.N,Net-(U1-VBUS)*%
X131041563Y-102814234D03*
%TD*%
D10*
%TO.P,R10,1*%
%TO.N,VBUS*%
X121150000Y-111490000D03*
%TO.P,R10,2*%
%TO.N,+3V3*%
X122800000Y-111490000D03*
%TD*%
D19*
%TO.P,J1,A1,GND_A1*%
%TO.N,GND*%
X106485000Y-102925000D03*
%TO.P,J1,A4,VBUS_A4*%
%TO.N,Net-(F2-Pad1)*%
X106485000Y-103725000D03*
D20*
%TO.P,J1,A5,CC1_A5*%
%TO.N,Net-(D4C-K3)*%
X106485000Y-104925000D03*
%TO.P,J1,A6,D+_A6*%
%TO.N,Net-(J1-D+-PadA6)*%
X106485000Y-105925000D03*
%TO.P,J1,A7,D-_A7*%
%TO.N,Net-(J1-D--PadA7)*%
X106485000Y-106425000D03*
%TO.P,J1,A8,SBU1_A8*%
%TO.N,unconnected-(J1-SBU1-PadA8)*%
X106485000Y-107425000D03*
D19*
%TO.P,J1,A9,VBUS_A9*%
%TO.N,Net-(F2-Pad1)*%
X106485000Y-108625000D03*
%TO.P,J1,A12,GND_A12*%
%TO.N,GND*%
X106485000Y-109425000D03*
%TO.P,J1,B1,GND_B1*%
X106485000Y-109425000D03*
%TO.P,J1,B4,VBUS_B4*%
%TO.N,Net-(F2-Pad1)*%
X106485000Y-108625000D03*
D20*
%TO.P,J1,B5,CC2_B5*%
%TO.N,Net-(D4D-K4)*%
X106485000Y-107925000D03*
%TO.P,J1,B6,D+_B6*%
%TO.N,Net-(J1-D+-PadA6)*%
X106485000Y-106925000D03*
%TO.P,J1,B7,D-_B7*%
%TO.N,Net-(J1-D--PadA7)*%
X106485000Y-105425000D03*
%TO.P,J1,B8,SBU2_B8*%
%TO.N,unconnected-(J1-SBU2-PadB8)*%
X106485000Y-104425000D03*
D19*
%TO.P,J1,B9,VBUS_B9*%
%TO.N,Net-(F2-Pad1)*%
X106485000Y-103725000D03*
%TO.P,J1,B12,GND_B12*%
%TO.N,GND*%
X106485000Y-102925000D03*
D21*
%TO.P,J1,SH,SHIELD_SH*%
X105570000Y-101855000D03*
D22*
X101390000Y-101855000D03*
D21*
X105570000Y-110495000D03*
D22*
X101390000Y-110495000D03*
%TD*%
D23*
%TO.P,D4,1,K1_1*%
%TO.N,Net-(D4A-K1)*%
X108385000Y-101550000D03*
%TO.P,D4,2,A_2*%
%TO.N,GND*%
X108385000Y-102200000D03*
%TO.P,D4,3,K2_3*%
%TO.N,Net-(D4B-K2)*%
X108385000Y-102850000D03*
%TO.P,D4,4,K3_4*%
%TO.N,Net-(D4C-K3)*%
X110060000Y-102850000D03*
%TO.P,D4,5,K4_5*%
%TO.N,Net-(D4D-K4)*%
X110060000Y-101550000D03*
%TD*%
D18*
%TO.P,R3,1*%
%TO.N,Net-(D2-A)*%
X116495000Y-111480000D03*
%TO.P,R3,2*%
%TO.N,+3V3*%
X114845000Y-111480000D03*
%TD*%
D10*
%TO.P,R7,1*%
%TO.N,Net-(U1-CFG3)*%
X129377355Y-101403043D03*
%TO.P,R7,2*%
%TO.N,GND*%
X131027355Y-101403043D03*
%TD*%
%TO.P,R9,1*%
%TO.N,Net-(D4B-K2)*%
X108380000Y-107740000D03*
%TO.P,R9,2*%
%TO.N,Net-(J1-D+-PadA6)*%
X110030000Y-107740000D03*
%TD*%
D24*
%TO.P,D3,1,A1_1*%
%TO.N,VBUS*%
X108330000Y-111530000D03*
%TO.P,D3,2,A2_2*%
%TO.N,GND*%
X110430000Y-111530000D03*
%TD*%
D25*
%TO.P,C2,1*%
%TO.N,VBUS*%
X111815000Y-111470000D03*
%TO.P,C2,2*%
%TO.N,GND*%
X113365000Y-111470000D03*
%TD*%
D26*
%TO.P,C1,1*%
%TO.N,Net-(U1-VDD)*%
X130520000Y-109040000D03*
%TO.P,C1,2*%
%TO.N,GND*%
X130520000Y-110590000D03*
%TD*%
D10*
%TO.P,R8,1*%
%TO.N,Net-(J1-D--PadA7)*%
X108380000Y-105230000D03*
%TO.P,R8,2*%
%TO.N,Net-(D4A-K1)*%
X110030000Y-105230000D03*
%TD*%
D27*
%TO.N,GND*%
X123393118Y-110703924D03*
X106430800Y-111290714D03*
X123370000Y-100750000D03*
X100950000Y-100710000D03*
X113180127Y-110556423D03*
X117070000Y-100830000D03*
X101050000Y-111340000D03*
X119270000Y-100700000D03*
X121768181Y-104209048D03*
X120729967Y-106538711D03*
X101020000Y-102740000D03*
X126527519Y-111417259D03*
X129408132Y-111172293D03*
X115415770Y-102804444D03*
X111132139Y-110556423D03*
X104770000Y-100750000D03*
X128711094Y-108606218D03*
X113779320Y-108731963D03*
X121210000Y-100720000D03*
X124939731Y-104150562D03*
D28*
X111510000Y-107140000D03*
D27*
X132480000Y-110180000D03*
X116805762Y-106140768D03*
X127809597Y-106041774D03*
X114757773Y-106140768D03*
X108645579Y-106520438D03*
X118853750Y-106140768D03*
X130682174Y-103561941D03*
X108192565Y-103659668D03*
X105467504Y-108220933D03*
X117276104Y-110556423D03*
X104500542Y-102873159D03*
X125400000Y-100720000D03*
X110950000Y-100750000D03*
X100985438Y-108492245D03*
X104446079Y-111128409D03*
X106840000Y-100770000D03*
X122882296Y-108692949D03*
X102800000Y-100740000D03*
X105084609Y-105845810D03*
X119720193Y-104209048D03*
X117672204Y-104209048D03*
X124841050Y-108446502D03*
X115228115Y-110556423D03*
X130500000Y-105490000D03*
X130430000Y-100790000D03*
X110612596Y-105905470D03*
X119324092Y-110556423D03*
X100985438Y-106444257D03*
X121355567Y-110645941D03*
D28*
X115250000Y-104375000D03*
D27*
X132320000Y-104990000D03*
X108990000Y-100720000D03*
D28*
X125400000Y-103375000D03*
D27*
X127400000Y-100760000D03*
X113000000Y-100760000D03*
X114960000Y-100760000D03*
%TO.N,Net-(U1-CFG2)*%
X122379878Y-104985612D03*
X124834500Y-102439124D03*
D28*
%TO.N,VBUS*%
X110052500Y-109855000D03*
X121080000Y-109910000D03*
D29*
X131041563Y-104464234D03*
X131451133Y-107576734D03*
%TO.N,Net-(F2-Pad1)*%
X106485000Y-108625000D03*
D28*
X108477500Y-109855000D03*
D29*
X106485000Y-103725000D03*
D27*
%TO.N,Net-(U1-CFG3)*%
X120873711Y-103085000D03*
X129377355Y-101403043D03*
X129033750Y-105396408D03*
%TO.N,Net-(D4B-K2)*%
X128020000Y-104396000D03*
D28*
X108380000Y-107740000D03*
X108385000Y-102850000D03*
%TO.N,Net-(D4A-K1)*%
X108385000Y-101550000D03*
X109510000Y-104030000D03*
%TO.N,Net-(D4D-K4)*%
X110600000Y-103800000D03*
X110813934Y-105617068D03*
D27*
%TO.N,Net-(D4C-K3)*%
X122574870Y-104289210D03*
X110060000Y-102850000D03*
D29*
%TO.N,Net-(U1-VBUS)*%
X124977145Y-105076398D03*
X127662802Y-102816056D03*
D27*
%TO.N,Net-(U1-CFG1)*%
X123758750Y-106396408D03*
X126272487Y-102410813D03*
X122690861Y-105316975D03*
X120873711Y-108165000D03*
D28*
%TO.N,/PG*%
X121730000Y-109390000D03*
X123758750Y-107396408D03*
%TO.N,+3V3*%
X112260000Y-107140000D03*
D27*
X112653423Y-103900615D03*
X112263711Y-108165000D03*
D28*
X132052355Y-111428043D03*
D27*
X112263711Y-105625000D03*
%TD*%
%TO.N,Net-(U1-CFG2)*%
D30*
X127331414Y-107404091D02*
X127924366Y-106811139D01*
X121533500Y-105625000D02*
X120874000Y-105625000D01*
X122846957Y-106939625D02*
X124691125Y-106939625D01*
X122212472Y-104946028D02*
X121533500Y-105625000D01*
X124691125Y-106939625D02*
X125155591Y-107404091D01*
X128195500Y-106396000D02*
X129034000Y-106396000D01*
X122375624Y-106468292D02*
X122846957Y-106939625D01*
X122375624Y-106160740D02*
X122375624Y-106468292D01*
X125155591Y-107404091D02*
X127331414Y-107404091D01*
X120874000Y-105625000D02*
X122095500Y-105625000D01*
X122340293Y-104946028D02*
X122212472Y-104946028D01*
X127924366Y-106476221D02*
X128004587Y-106396000D01*
X128004587Y-106396000D02*
X128195500Y-106396000D01*
X122375624Y-105625000D02*
X122413507Y-105662883D01*
X122413507Y-106122857D02*
X122375624Y-106160740D01*
X122379878Y-104985612D02*
X122340293Y-104946028D01*
X124834500Y-101682500D02*
X124834500Y-102439124D01*
X122095500Y-105625000D02*
X122375624Y-105625000D01*
X127924366Y-106811139D02*
X127924366Y-106476221D01*
X122413507Y-105662883D02*
X122413507Y-106122857D01*
%TO.N,VBUS*%
D31*
X110052500Y-110160224D02*
X111362276Y-111470000D01*
X110052500Y-109855000D02*
X110052500Y-110160224D01*
X131451000Y-107576500D02*
X131451000Y-107576601D01*
X110052500Y-109855000D02*
X110005000Y-109855000D01*
D32*
X121078042Y-111418042D02*
X121078042Y-109911958D01*
X121150000Y-111490000D02*
X120952827Y-111292827D01*
X121150000Y-111490000D02*
X121078042Y-111418042D01*
D31*
X131451000Y-107576601D02*
X131451133Y-107576734D01*
X131041563Y-104464234D02*
X131041329Y-104464000D01*
D32*
X121078042Y-109911958D02*
X121080000Y-109910000D01*
D31*
X110005000Y-109855000D02*
X108330000Y-111530000D01*
X111362276Y-111470000D02*
X111815000Y-111470000D01*
%TO.N,Net-(U1-VDD)*%
D30*
X132195449Y-107969308D02*
X132195449Y-107212384D01*
X131451000Y-106328000D02*
X131451000Y-105926500D01*
D32*
X130520000Y-108882658D02*
X130520000Y-109040000D01*
D30*
X131451000Y-106467935D02*
X131451000Y-106328000D01*
D32*
X130520000Y-109040000D02*
X131124757Y-109040000D01*
D30*
X132195449Y-107212384D02*
X131451000Y-106467935D01*
D32*
X131124757Y-109040000D02*
X132195449Y-107969308D01*
X129033750Y-107396408D02*
X130520000Y-108882658D01*
%TO.N,Net-(U1-CFG3)*%
D30*
X129033750Y-105396250D02*
X129034000Y-105396000D01*
X129377398Y-101403000D02*
X129377500Y-101403000D01*
X129377355Y-101403043D02*
X129377398Y-101403000D01*
X120873711Y-103085000D02*
X120874000Y-103085000D01*
X129033750Y-105396408D02*
X129033750Y-105396250D01*
%TO.N,Net-(D4B-K2)*%
D33*
X128020000Y-104396000D02*
X129034000Y-104396000D01*
%TO.N,Net-(D4A-K1)*%
X110030000Y-104550000D02*
X109510000Y-104030000D01*
X127692996Y-103396000D02*
X126856111Y-103396000D01*
X114564916Y-104303943D02*
X111476150Y-104303943D01*
X116556054Y-102312805D02*
X114564916Y-104303943D01*
X126343452Y-102883341D02*
X122905122Y-102883341D01*
X110030000Y-105230000D02*
X110030000Y-104550000D01*
X110431500Y-105230000D02*
X110030000Y-105230000D01*
X126856111Y-103396000D02*
X126343452Y-102883341D01*
X110699921Y-105230000D02*
X110431500Y-105230000D01*
X122334586Y-102312805D02*
X116556054Y-102312805D01*
X111476150Y-104303943D02*
X110699921Y-105080172D01*
X128195500Y-103396000D02*
X127692996Y-103396000D01*
X129034000Y-103396000D02*
X128195500Y-103396000D01*
X110699921Y-105080172D02*
X110699921Y-105230000D01*
X122905122Y-102883341D02*
X122334586Y-102312805D01*
%TO.N,Net-(D4D-K4)*%
D30*
X113242264Y-107036500D02*
X112826214Y-107452549D01*
X122627631Y-103396000D02*
X122219145Y-103804486D01*
X110858124Y-107460000D02*
X110642223Y-107675901D01*
X111120082Y-107452549D02*
X111112631Y-107460000D01*
X110858124Y-107460000D02*
X110890172Y-107427952D01*
X110724951Y-102214951D02*
X110060000Y-101550000D01*
X107465135Y-107925000D02*
X106485000Y-107925000D01*
X123759000Y-103396000D02*
X122627631Y-103396000D01*
X110890172Y-105693306D02*
X110813934Y-105617068D01*
X110600000Y-103800000D02*
X110724951Y-103675049D01*
X107998875Y-108458740D02*
X107465135Y-107925000D01*
X110890172Y-107427952D02*
X110890172Y-105693306D01*
X110642223Y-108245355D02*
X110428838Y-108458740D01*
X112826214Y-107452549D02*
X111120082Y-107452549D01*
X110642223Y-107675901D02*
X110642223Y-108245355D01*
X111112631Y-107460000D02*
X110858124Y-107460000D01*
X122219145Y-103804486D02*
X116474277Y-103804486D01*
X116474277Y-103804486D02*
X113242264Y-107036500D01*
X110724951Y-103675049D02*
X110724951Y-102214951D01*
X110428838Y-108458740D02*
X107998875Y-108458740D01*
%TO.N,Net-(D4C-K3)*%
X122920500Y-104396000D02*
X122767820Y-104396000D01*
X107363180Y-104925000D02*
X106485000Y-104925000D01*
X123759000Y-104396000D02*
X122920500Y-104396000D01*
X110060000Y-102850000D02*
X108847392Y-104062608D01*
X122767820Y-104396000D02*
X122681660Y-104396000D01*
X108225571Y-104062608D02*
X107363180Y-104925000D01*
X108847392Y-104062608D02*
X108225571Y-104062608D01*
X122681660Y-104396000D02*
X122574870Y-104289210D01*
%TO.N,Net-(U1-VBUS)*%
D34*
X124977145Y-105076398D02*
X124658715Y-105394827D01*
D31*
X130466965Y-102715465D02*
X130565500Y-102814000D01*
D34*
X124597500Y-105394827D02*
X124178250Y-105395414D01*
X124658715Y-105394827D02*
X124597500Y-105394827D01*
D31*
X130803500Y-102814000D02*
X131041500Y-102814000D01*
X127662802Y-102816056D02*
X127763394Y-102715465D01*
X127763394Y-102715465D02*
X130466965Y-102715465D01*
D34*
X124178250Y-105395414D02*
X123759000Y-105396000D01*
D31*
X130565500Y-102814000D02*
X130803500Y-102814000D01*
%TO.N,Net-(U1-CFG1)*%
D30*
X120873711Y-108165000D02*
X120874000Y-108165000D01*
X123758750Y-106396408D02*
X123758342Y-106396000D01*
X123758342Y-106396000D02*
X123221500Y-106396000D01*
X122690861Y-105865361D02*
X122690861Y-105316975D01*
X126325000Y-102358300D02*
X126325000Y-102311680D01*
X126272487Y-102410813D02*
X126325000Y-102358300D01*
X126325000Y-102311680D02*
X126325000Y-102159000D01*
X123221500Y-106396000D02*
X122690861Y-105865361D01*
X126325000Y-102159000D02*
X126325000Y-101682500D01*
%TO.N,/PG*%
D32*
X121172501Y-109390000D02*
X121260000Y-109390000D01*
X121207697Y-109390000D02*
X121730000Y-109390000D01*
X119557500Y-111005001D02*
X121172501Y-109390000D01*
X119245000Y-111480000D02*
X119245000Y-111352697D01*
X119557500Y-111480000D02*
X119557500Y-111005001D01*
%TO.N,+3V3*%
X124635000Y-111355000D02*
X124500000Y-111490000D01*
D35*
X112653423Y-103085000D02*
X112653423Y-103900615D01*
X113788014Y-108165000D02*
X114723014Y-109100000D01*
X112264000Y-103085000D02*
X112653423Y-103085000D01*
X114723014Y-109100000D02*
X114723014Y-109156986D01*
D32*
X124500000Y-111490000D02*
X122800000Y-111490000D01*
D35*
X112263711Y-108165000D02*
X113788014Y-108165000D01*
D32*
X124752500Y-111355000D02*
X124752500Y-109122500D01*
D35*
X112260000Y-107140000D02*
X112263711Y-107136289D01*
X126438014Y-109100000D02*
X124730000Y-109100000D01*
X128317596Y-108970490D02*
X126567525Y-108970490D01*
X114845000Y-109278972D02*
X114845000Y-111480000D01*
X124660000Y-109100000D02*
X114723014Y-109100000D01*
X126567525Y-108970490D02*
X126438014Y-109100000D01*
X112263711Y-107136289D02*
X112263711Y-105625000D01*
X132052355Y-110622355D02*
X131380000Y-109950000D01*
X132052355Y-111428043D02*
X132052355Y-110622355D01*
D32*
X124752500Y-109122500D02*
X124730000Y-109100000D01*
D35*
X131380000Y-109950000D02*
X129297106Y-109950000D01*
X114723014Y-109156986D02*
X114845000Y-109278972D01*
X129297106Y-109950000D02*
X128317596Y-108970490D01*
X124730000Y-109100000D02*
X124660000Y-109100000D01*
D32*
X124730000Y-111355000D02*
X124635000Y-111355000D01*
%TO.N,Net-(D2-A)*%
X116495000Y-111480000D02*
X117982500Y-111480000D01*
X117660000Y-111470000D02*
X117670000Y-111480000D01*
%TO.N,Net-(J1-D+-PadA6)*%
D33*
X105759500Y-105925000D02*
X105530354Y-105925000D01*
X105632309Y-106925000D02*
X105759500Y-106925000D01*
X106485000Y-106925000D02*
X108645579Y-106925000D01*
X108645579Y-106925000D02*
X109460579Y-107740000D01*
X105759500Y-106925000D02*
X106485000Y-106925000D01*
X109460579Y-107740000D02*
X110030000Y-107740000D01*
X105530354Y-105925000D02*
X105457810Y-105997543D01*
X105457810Y-105997543D02*
X105457810Y-106750501D01*
X106485000Y-105925000D02*
X105759500Y-105925000D01*
X105457810Y-106750501D02*
X105632309Y-106925000D01*
%TO.N,Net-(J1-D--PadA7)*%
X106485000Y-105425000D02*
X108185000Y-105425000D01*
X107503369Y-106425000D02*
X107864657Y-106425000D01*
X108380000Y-105909657D02*
X108380000Y-105706000D01*
D30*
X108185000Y-105425000D02*
X108380000Y-105230000D01*
D33*
X107864657Y-106425000D02*
X108380000Y-105909657D01*
X106485000Y-106425000D02*
X107210500Y-106425000D01*
X107210500Y-106425000D02*
X107503369Y-106425000D01*
X108380000Y-105706000D02*
X108380000Y-105230000D01*
%TD*%
%TA.AperFunction,Conductor*%
%TO.N,GND*%
G36*
X132621073Y-100503927D02*
G01*
X132624500Y-100512200D01*
X132624500Y-111937800D01*
X132621073Y-111946073D01*
X132612800Y-111949500D01*
X128438274Y-111949500D01*
X128430001Y-111946073D01*
X128426574Y-111937800D01*
X128430001Y-111929527D01*
X128431774Y-111928072D01*
X128458028Y-111910529D01*
X128458029Y-111910528D01*
X128513371Y-111827701D01*
X128527900Y-111754663D01*
X128527900Y-111405800D01*
X127577100Y-111405800D01*
X127577100Y-111754663D01*
X127591628Y-111827701D01*
X127646970Y-111910528D01*
X127646971Y-111910529D01*
X127673226Y-111928072D01*
X127678201Y-111935517D01*
X127676454Y-111944300D01*
X127669009Y-111949275D01*
X127666726Y-111949500D01*
X125362302Y-111949500D01*
X125354029Y-111946073D01*
X125350602Y-111937800D01*
X125351877Y-111932488D01*
X125354127Y-111928072D01*
X125387219Y-111863126D01*
X125403000Y-111763488D01*
X125403000Y-110955336D01*
X127577100Y-110955336D01*
X127577100Y-111304200D01*
X128001700Y-111304200D01*
X128103300Y-111304200D01*
X128527900Y-111304200D01*
X128527900Y-110955336D01*
X128513371Y-110882298D01*
X128484884Y-110839663D01*
X130019600Y-110839663D01*
X130034128Y-110912701D01*
X130089470Y-110995528D01*
X130089471Y-110995529D01*
X130172298Y-111050871D01*
X130245337Y-111065400D01*
X130469200Y-111065400D01*
X130570800Y-111065400D01*
X130794663Y-111065400D01*
X130867701Y-111050871D01*
X130950528Y-110995529D01*
X130950529Y-110995528D01*
X131005871Y-110912701D01*
X131020400Y-110839663D01*
X131020400Y-110640800D01*
X130570800Y-110640800D01*
X130570800Y-111065400D01*
X130469200Y-111065400D01*
X130469200Y-110640800D01*
X130019600Y-110640800D01*
X130019600Y-110839663D01*
X128484884Y-110839663D01*
X128458029Y-110799471D01*
X128458028Y-110799470D01*
X128375201Y-110744128D01*
X128302163Y-110729600D01*
X128103300Y-110729600D01*
X128103300Y-111304200D01*
X128001700Y-111304200D01*
X128001700Y-110729600D01*
X127802837Y-110729600D01*
X127729798Y-110744128D01*
X127646971Y-110799470D01*
X127646970Y-110799471D01*
X127591628Y-110882298D01*
X127577100Y-110955336D01*
X125403000Y-110955336D01*
X125403000Y-110946512D01*
X125387219Y-110846874D01*
X125326028Y-110726780D01*
X125230720Y-110631472D01*
X125110626Y-110570281D01*
X125110625Y-110570280D01*
X125110624Y-110570280D01*
X125013670Y-110554924D01*
X125006034Y-110550245D01*
X125003800Y-110543368D01*
X125003800Y-109365540D01*
X125007227Y-109357267D01*
X125015500Y-109353840D01*
X126488504Y-109353840D01*
X126488505Y-109353840D01*
X126488506Y-109353840D01*
X126532681Y-109335542D01*
X126581802Y-109315196D01*
X126669241Y-109227757D01*
X126677514Y-109224330D01*
X128207606Y-109224330D01*
X128215879Y-109227757D01*
X129153317Y-110165195D01*
X129212148Y-110189563D01*
X129246611Y-110203839D01*
X129246612Y-110203839D01*
X129246614Y-110203840D01*
X129347597Y-110203840D01*
X130054640Y-110203840D01*
X130062913Y-110207267D01*
X130066340Y-110215540D01*
X130064368Y-110222040D01*
X130034128Y-110267298D01*
X130019600Y-110340336D01*
X130019600Y-110539200D01*
X131020400Y-110539200D01*
X131020400Y-110340336D01*
X131005871Y-110267298D01*
X130975632Y-110222040D01*
X130973885Y-110213257D01*
X130978860Y-110205812D01*
X130985360Y-110203840D01*
X131270010Y-110203840D01*
X131278283Y-110207267D01*
X131795088Y-110724072D01*
X131798515Y-110732345D01*
X131798515Y-111216710D01*
X131795088Y-111224983D01*
X131791891Y-111228179D01*
X131791887Y-111228184D01*
X131749037Y-111302402D01*
X131749035Y-111302406D01*
X131726855Y-111385187D01*
X131726855Y-111470898D01*
X131749035Y-111553679D01*
X131749037Y-111553683D01*
X131791887Y-111627901D01*
X131791889Y-111627904D01*
X131791890Y-111627905D01*
X131852493Y-111688508D01*
X131852494Y-111688509D01*
X131852496Y-111688510D01*
X131926714Y-111731360D01*
X131926718Y-111731362D01*
X131992004Y-111748854D01*
X132009499Y-111753542D01*
X132009501Y-111753543D01*
X132009502Y-111753543D01*
X132095209Y-111753543D01*
X132095209Y-111753542D01*
X132140900Y-111741300D01*
X132177991Y-111731362D01*
X132177995Y-111731360D01*
X132238710Y-111696306D01*
X132252217Y-111688508D01*
X132312820Y-111627905D01*
X132355673Y-111553681D01*
X132377855Y-111470896D01*
X132377855Y-111385190D01*
X132372095Y-111363693D01*
X132355674Y-111302406D01*
X132355672Y-111302402D01*
X132312822Y-111228184D01*
X132312818Y-111228179D01*
X132309622Y-111224983D01*
X132306195Y-111216710D01*
X132306195Y-110571864D01*
X132306194Y-110571860D01*
X132282621Y-110514951D01*
X132267551Y-110478568D01*
X132267550Y-110478566D01*
X131523790Y-109734806D01*
X131523789Y-109734805D01*
X131523787Y-109734804D01*
X131430494Y-109696160D01*
X131430492Y-109696160D01*
X130909780Y-109696160D01*
X130901507Y-109692733D01*
X130898080Y-109684460D01*
X130901507Y-109676187D01*
X130904468Y-109674035D01*
X131023220Y-109613528D01*
X131118528Y-109518220D01*
X131179719Y-109398126D01*
X131195500Y-109298488D01*
X131195500Y-109290519D01*
X131198927Y-109282246D01*
X131202723Y-109279710D01*
X131267107Y-109253042D01*
X132336785Y-108183362D01*
X132337186Y-108183035D01*
X132357841Y-108162380D01*
X132408534Y-108111687D01*
X132446800Y-108019305D01*
X132446800Y-107162387D01*
X132436860Y-107138391D01*
X132432663Y-107128259D01*
X132408534Y-107070005D01*
X132337828Y-106999299D01*
X131862473Y-106523944D01*
X131859046Y-106515671D01*
X131862473Y-106507398D01*
X131865424Y-106505253D01*
X131964475Y-106454784D01*
X132054183Y-106365076D01*
X132111779Y-106252038D01*
X132126633Y-106158253D01*
X132126632Y-105695216D01*
X132124313Y-105680576D01*
X132114649Y-105619550D01*
X132111779Y-105601430D01*
X132054183Y-105488392D01*
X131964475Y-105398684D01*
X131851437Y-105341088D01*
X131851436Y-105341087D01*
X131851435Y-105341087D01*
X131757652Y-105326234D01*
X131144614Y-105326234D01*
X131050830Y-105341087D01*
X130937790Y-105398684D01*
X130848083Y-105488391D01*
X130790486Y-105601431D01*
X130775633Y-105695214D01*
X130775633Y-106158252D01*
X130790486Y-106252036D01*
X130790486Y-106252037D01*
X130790487Y-106252038D01*
X130848083Y-106365076D01*
X130937791Y-106454784D01*
X131050829Y-106512380D01*
X131144614Y-106527234D01*
X131195683Y-106527233D01*
X131203956Y-106530660D01*
X131206492Y-106534455D01*
X131223880Y-106576431D01*
X131237915Y-106610314D01*
X131237916Y-106610315D01*
X131583862Y-106956261D01*
X131587289Y-106964534D01*
X131583862Y-106972807D01*
X131575589Y-106976234D01*
X131144614Y-106976234D01*
X131050830Y-106991087D01*
X130937790Y-107048684D01*
X130848083Y-107138391D01*
X130790486Y-107251431D01*
X130775633Y-107345214D01*
X130775633Y-107808252D01*
X130790486Y-107902036D01*
X130790486Y-107902037D01*
X130790487Y-107902038D01*
X130848083Y-108015076D01*
X130937791Y-108104784D01*
X131050829Y-108162380D01*
X131144614Y-108177234D01*
X131603884Y-108177233D01*
X131612157Y-108180660D01*
X131615584Y-108188933D01*
X131612157Y-108197206D01*
X131173476Y-108635887D01*
X131165203Y-108639314D01*
X131156930Y-108635887D01*
X131154778Y-108632926D01*
X131148627Y-108620853D01*
X131118528Y-108561780D01*
X131023220Y-108466472D01*
X130903126Y-108405281D01*
X130903125Y-108405280D01*
X130903124Y-108405280D01*
X130803489Y-108389500D01*
X130803488Y-108389500D01*
X130387080Y-108389500D01*
X130378807Y-108386073D01*
X129872562Y-107879828D01*
X129869135Y-107871555D01*
X129872562Y-107863282D01*
X129875697Y-107861044D01*
X129927733Y-107835606D01*
X129962605Y-107800734D01*
X130010446Y-107752894D01*
X130010447Y-107752892D01*
X130010448Y-107752891D01*
X130061823Y-107647801D01*
X130071750Y-107579668D01*
X130071750Y-107213148D01*
X130061823Y-107145015D01*
X130010448Y-107039925D01*
X130010447Y-107039924D01*
X130010447Y-107039923D01*
X129927734Y-106957210D01*
X129874113Y-106930997D01*
X129824857Y-106906917D01*
X129818932Y-106900207D01*
X129819487Y-106891269D01*
X129824857Y-106885898D01*
X129927733Y-106835606D01*
X129927734Y-106835605D01*
X129927736Y-106835604D01*
X130010446Y-106752894D01*
X130010447Y-106752892D01*
X130010448Y-106752891D01*
X130061823Y-106647801D01*
X130071750Y-106579668D01*
X130071750Y-106213148D01*
X130061823Y-106145015D01*
X130010448Y-106039925D01*
X130010447Y-106039924D01*
X130010447Y-106039923D01*
X129927734Y-105957210D01*
X129884389Y-105936020D01*
X129824857Y-105906917D01*
X129818932Y-105900207D01*
X129819487Y-105891269D01*
X129824857Y-105885898D01*
X129927733Y-105835606D01*
X129927734Y-105835605D01*
X129927736Y-105835604D01*
X130010446Y-105752894D01*
X130010447Y-105752892D01*
X130010448Y-105752891D01*
X130061823Y-105647801D01*
X130071750Y-105579668D01*
X130071750Y-105213148D01*
X130061823Y-105145015D01*
X130010448Y-105039925D01*
X130010447Y-105039924D01*
X130010447Y-105039923D01*
X129927734Y-104957210D01*
X129884389Y-104936020D01*
X129824857Y-104906917D01*
X129818932Y-104900207D01*
X129819487Y-104891269D01*
X129824857Y-104885898D01*
X129927733Y-104835606D01*
X129927734Y-104835605D01*
X129927736Y-104835604D01*
X130010446Y-104752894D01*
X130010447Y-104752892D01*
X130010448Y-104752891D01*
X130061823Y-104647801D01*
X130071750Y-104579668D01*
X130071750Y-104232714D01*
X130366063Y-104232714D01*
X130366063Y-104695752D01*
X130380916Y-104789536D01*
X130380916Y-104789537D01*
X130380917Y-104789538D01*
X130438513Y-104902576D01*
X130528221Y-104992284D01*
X130641259Y-105049880D01*
X130735044Y-105064734D01*
X131348081Y-105064733D01*
X131441867Y-105049880D01*
X131554905Y-104992284D01*
X131644613Y-104902576D01*
X131702209Y-104789538D01*
X131717063Y-104695753D01*
X131717062Y-104232716D01*
X131716609Y-104229858D01*
X131702209Y-104138931D01*
X131702209Y-104138930D01*
X131644613Y-104025892D01*
X131554905Y-103936184D01*
X131441867Y-103878588D01*
X131441866Y-103878587D01*
X131441865Y-103878587D01*
X131348082Y-103863734D01*
X130735044Y-103863734D01*
X130641260Y-103878587D01*
X130528220Y-103936184D01*
X130438513Y-104025891D01*
X130380916Y-104138931D01*
X130366063Y-104232714D01*
X130071750Y-104232714D01*
X130071750Y-104213148D01*
X130061823Y-104145015D01*
X130010448Y-104039925D01*
X130010447Y-104039924D01*
X130010447Y-104039923D01*
X129927734Y-103957210D01*
X129863155Y-103925640D01*
X129824857Y-103906917D01*
X129818932Y-103900207D01*
X129819487Y-103891269D01*
X129824857Y-103885898D01*
X129927733Y-103835606D01*
X129927734Y-103835605D01*
X129927736Y-103835604D01*
X130010446Y-103752894D01*
X130010447Y-103752892D01*
X130010448Y-103752891D01*
X130061823Y-103647801D01*
X130071750Y-103579668D01*
X130071750Y-103213148D01*
X130068887Y-103193497D01*
X130067779Y-103185892D01*
X130069978Y-103177211D01*
X130077670Y-103172627D01*
X130079357Y-103172505D01*
X130272807Y-103172505D01*
X130281080Y-103175932D01*
X130284871Y-103179723D01*
X130284872Y-103179724D01*
X130284874Y-103179725D01*
X130389086Y-103239893D01*
X130389088Y-103239893D01*
X130389089Y-103239894D01*
X130436251Y-103252530D01*
X130441495Y-103255558D01*
X130528221Y-103342284D01*
X130641259Y-103399880D01*
X130735044Y-103414734D01*
X131348081Y-103414733D01*
X131441867Y-103399880D01*
X131554905Y-103342284D01*
X131644613Y-103252576D01*
X131702209Y-103139538D01*
X131717063Y-103045753D01*
X131717062Y-102582716D01*
X131715371Y-102572041D01*
X131702209Y-102488931D01*
X131702209Y-102488930D01*
X131644613Y-102375892D01*
X131554905Y-102286184D01*
X131441867Y-102228588D01*
X131441866Y-102228587D01*
X131441865Y-102228587D01*
X131348082Y-102213734D01*
X130735044Y-102213734D01*
X130641260Y-102228587D01*
X130567552Y-102266143D01*
X130559212Y-102267019D01*
X130527138Y-102258425D01*
X130527136Y-102258425D01*
X130527135Y-102258425D01*
X127703224Y-102258425D01*
X127703221Y-102258425D01*
X127650351Y-102272592D01*
X127589220Y-102288971D01*
X127589218Y-102288971D01*
X127586985Y-102289570D01*
X127586983Y-102289570D01*
X127586983Y-102289571D01*
X127584986Y-102290723D01*
X127584976Y-102290728D01*
X127566531Y-102301379D01*
X127513699Y-102331882D01*
X127482764Y-102349742D01*
X127382174Y-102450332D01*
X127297080Y-102535425D01*
X127296458Y-102536502D01*
X127253590Y-102610752D01*
X127237991Y-102637768D01*
X127237989Y-102637772D01*
X127237327Y-102638920D01*
X127236908Y-102639645D01*
X127233542Y-102652209D01*
X127233486Y-102652416D01*
X127233485Y-102652421D01*
X127205762Y-102755880D01*
X127205762Y-102876228D01*
X127222452Y-102938516D01*
X127236906Y-102992463D01*
X127236907Y-102992467D01*
X127283404Y-103073000D01*
X127284573Y-103081878D01*
X127279122Y-103088982D01*
X127273272Y-103090550D01*
X126987478Y-103090550D01*
X126979205Y-103087123D01*
X126531004Y-102638921D01*
X126531003Y-102638920D01*
X126527647Y-102636982D01*
X126522196Y-102629877D01*
X126523366Y-102620999D01*
X126525220Y-102618582D01*
X126533052Y-102610752D01*
X126575921Y-102536500D01*
X126598112Y-102453682D01*
X126598112Y-102367944D01*
X126598112Y-102367942D01*
X126597271Y-102364805D01*
X126598439Y-102355927D01*
X126605543Y-102350475D01*
X126606733Y-102350221D01*
X126650070Y-102343359D01*
X126763108Y-102285763D01*
X126852816Y-102196055D01*
X126910412Y-102083017D01*
X126925266Y-101989232D01*
X126925266Y-101979912D01*
X127549366Y-101979912D01*
X127562444Y-102045660D01*
X127612261Y-102120216D01*
X127612262Y-102120217D01*
X127686818Y-102170034D01*
X127752567Y-102183113D01*
X127923966Y-102183113D01*
X128025566Y-102183113D01*
X128196965Y-102183113D01*
X128262713Y-102170034D01*
X128337269Y-102120217D01*
X128337270Y-102120216D01*
X128387087Y-102045660D01*
X128400166Y-101979912D01*
X128400166Y-101733513D01*
X128025566Y-101733513D01*
X128025566Y-102183113D01*
X127923966Y-102183113D01*
X127923966Y-101733513D01*
X127549366Y-101733513D01*
X127549366Y-101979912D01*
X126925266Y-101979912D01*
X126925265Y-101680515D01*
X126925265Y-101385513D01*
X127549366Y-101385513D01*
X127549366Y-101631913D01*
X127923966Y-101631913D01*
X128025566Y-101631913D01*
X128400166Y-101631913D01*
X128400166Y-101385513D01*
X128387087Y-101319765D01*
X128337270Y-101245209D01*
X128337269Y-101245208D01*
X128262713Y-101195391D01*
X128196965Y-101182313D01*
X128025566Y-101182313D01*
X128025566Y-101631913D01*
X127923966Y-101631913D01*
X127923966Y-101182313D01*
X127752567Y-101182313D01*
X127686818Y-101195391D01*
X127612262Y-101245208D01*
X127612261Y-101245209D01*
X127562444Y-101319765D01*
X127549366Y-101385513D01*
X126925265Y-101385513D01*
X126925265Y-101384938D01*
X126925265Y-101376194D01*
X126910412Y-101282410D01*
X126910412Y-101282409D01*
X126852816Y-101169371D01*
X126779968Y-101096523D01*
X128776855Y-101096523D01*
X128776855Y-101709561D01*
X128791708Y-101803345D01*
X128791708Y-101803346D01*
X128791709Y-101803347D01*
X128849305Y-101916385D01*
X128939013Y-102006093D01*
X129052051Y-102063689D01*
X129145836Y-102078543D01*
X129608873Y-102078542D01*
X129702659Y-102063689D01*
X129815697Y-102006093D01*
X129905405Y-101916385D01*
X129963001Y-101803347D01*
X129977855Y-101709562D01*
X129977855Y-101700242D01*
X130601955Y-101700242D01*
X130615033Y-101765990D01*
X130664850Y-101840546D01*
X130664851Y-101840547D01*
X130739407Y-101890364D01*
X130805156Y-101903443D01*
X130976555Y-101903443D01*
X131078155Y-101903443D01*
X131249554Y-101903443D01*
X131315302Y-101890364D01*
X131389858Y-101840547D01*
X131389859Y-101840546D01*
X131439676Y-101765990D01*
X131452755Y-101700242D01*
X131452755Y-101453843D01*
X131078155Y-101453843D01*
X131078155Y-101903443D01*
X130976555Y-101903443D01*
X130976555Y-101453843D01*
X130601955Y-101453843D01*
X130601955Y-101700242D01*
X129977855Y-101700242D01*
X129977854Y-101395420D01*
X129977854Y-101105843D01*
X130601955Y-101105843D01*
X130601955Y-101352243D01*
X130976555Y-101352243D01*
X131078155Y-101352243D01*
X131452755Y-101352243D01*
X131452755Y-101105843D01*
X131439676Y-101040095D01*
X131389859Y-100965539D01*
X131389858Y-100965538D01*
X131315302Y-100915721D01*
X131249554Y-100902643D01*
X131078155Y-100902643D01*
X131078155Y-101352243D01*
X130976555Y-101352243D01*
X130976555Y-100902643D01*
X130805156Y-100902643D01*
X130739407Y-100915721D01*
X130664851Y-100965538D01*
X130664850Y-100965539D01*
X130615033Y-101040095D01*
X130601955Y-101105843D01*
X129977854Y-101105843D01*
X129977854Y-101105268D01*
X129977854Y-101096524D01*
X129963710Y-101007214D01*
X129963001Y-101002739D01*
X129905405Y-100889701D01*
X129815697Y-100799993D01*
X129702659Y-100742397D01*
X129702658Y-100742396D01*
X129702657Y-100742396D01*
X129608874Y-100727543D01*
X129145836Y-100727543D01*
X129052052Y-100742396D01*
X128939012Y-100799993D01*
X128849305Y-100889700D01*
X128791708Y-101002740D01*
X128776855Y-101096523D01*
X126779968Y-101096523D01*
X126763108Y-101079663D01*
X126650070Y-101022067D01*
X126650069Y-101022066D01*
X126650068Y-101022066D01*
X126556285Y-101007213D01*
X126093247Y-101007213D01*
X125999463Y-101022066D01*
X125886423Y-101079663D01*
X125796716Y-101169370D01*
X125739119Y-101282410D01*
X125724266Y-101376193D01*
X125724266Y-101989231D01*
X125739119Y-102083015D01*
X125739119Y-102083016D01*
X125739120Y-102083017D01*
X125796716Y-102196055D01*
X125886424Y-102285763D01*
X125917072Y-102301379D01*
X125950534Y-102318429D01*
X125956349Y-102325239D01*
X125956523Y-102331882D01*
X125946862Y-102367941D01*
X125946862Y-102453684D01*
X125969051Y-102536498D01*
X125969053Y-102536502D01*
X125982817Y-102560341D01*
X125983986Y-102569219D01*
X125978535Y-102576323D01*
X125972685Y-102577891D01*
X125149677Y-102577891D01*
X125141404Y-102574464D01*
X125137977Y-102566191D01*
X125138376Y-102563163D01*
X125160124Y-102481995D01*
X125160125Y-102481994D01*
X125160125Y-102396253D01*
X125152794Y-102368896D01*
X125149887Y-102358048D01*
X125151055Y-102349171D01*
X125158159Y-102343720D01*
X125159348Y-102343467D01*
X125160031Y-102343359D01*
X125273069Y-102285763D01*
X125362777Y-102196055D01*
X125420373Y-102083017D01*
X125435227Y-101989232D01*
X125435226Y-101376195D01*
X125420373Y-101282409D01*
X125362777Y-101169371D01*
X125273069Y-101079663D01*
X125160031Y-101022067D01*
X125160030Y-101022066D01*
X125160029Y-101022066D01*
X125066246Y-101007213D01*
X124603208Y-101007213D01*
X124509424Y-101022066D01*
X124396384Y-101079663D01*
X124306677Y-101169370D01*
X124249080Y-101282410D01*
X124234227Y-101376193D01*
X124234227Y-101989231D01*
X124249080Y-102083015D01*
X124249080Y-102083016D01*
X124249081Y-102083017D01*
X124306677Y-102196055D01*
X124396385Y-102285763D01*
X124509423Y-102343359D01*
X124509512Y-102343373D01*
X124509655Y-102343396D01*
X124509789Y-102343478D01*
X124510299Y-102343644D01*
X124510259Y-102343766D01*
X124517291Y-102348072D01*
X124519384Y-102356779D01*
X124519129Y-102357980D01*
X124508875Y-102396252D01*
X124508875Y-102481995D01*
X124530624Y-102563163D01*
X124529455Y-102572041D01*
X124522351Y-102577492D01*
X124519323Y-102577891D01*
X123036490Y-102577891D01*
X123028217Y-102574464D01*
X122522138Y-102068385D01*
X122522137Y-102068384D01*
X122452485Y-102028171D01*
X122452484Y-102028170D01*
X122452481Y-102028169D01*
X122452483Y-102028169D01*
X122374801Y-102007355D01*
X122374799Y-102007355D01*
X116596267Y-102007355D01*
X116515841Y-102007355D01*
X116515838Y-102007355D01*
X116438156Y-102028169D01*
X116412660Y-102042890D01*
X116412659Y-102042889D01*
X116368506Y-102068381D01*
X116368501Y-102068385D01*
X114441821Y-103995066D01*
X114433548Y-103998493D01*
X112979556Y-103998493D01*
X112971283Y-103995066D01*
X112967856Y-103986793D01*
X112968255Y-103983765D01*
X112979047Y-103943486D01*
X112979048Y-103943486D01*
X112979048Y-103857200D01*
X112982475Y-103848927D01*
X112990748Y-103845500D01*
X113287967Y-103845500D01*
X113287977Y-103845500D01*
X113318410Y-103842646D01*
X113318413Y-103842645D01*
X113318417Y-103842644D01*
X113446588Y-103797795D01*
X113446588Y-103797794D01*
X113446593Y-103797793D01*
X113555861Y-103717150D01*
X113636504Y-103607882D01*
X113639214Y-103600138D01*
X113681355Y-103479706D01*
X113681356Y-103479702D01*
X113681356Y-103479701D01*
X113681357Y-103479699D01*
X113684211Y-103449266D01*
X113684211Y-102720734D01*
X113681357Y-102690301D01*
X113681356Y-102690297D01*
X113681355Y-102690293D01*
X113636506Y-102562122D01*
X113636504Y-102562120D01*
X113636504Y-102562118D01*
X113555861Y-102452850D01*
X113446593Y-102372207D01*
X113446591Y-102372206D01*
X113446588Y-102372204D01*
X113318417Y-102327355D01*
X113318413Y-102327354D01*
X113295585Y-102325213D01*
X113287977Y-102324500D01*
X111239445Y-102324500D01*
X111209008Y-102327354D01*
X111209004Y-102327355D01*
X111080833Y-102372204D01*
X110994950Y-102435588D01*
X110986258Y-102437743D01*
X110978588Y-102433122D01*
X110976302Y-102426174D01*
X110976302Y-102164955D01*
X110976301Y-102164951D01*
X110957771Y-102120216D01*
X110938036Y-102072572D01*
X110867330Y-102001866D01*
X110845376Y-101979912D01*
X122759327Y-101979912D01*
X122772405Y-102045660D01*
X122822222Y-102120216D01*
X122822223Y-102120217D01*
X122896779Y-102170034D01*
X122962528Y-102183113D01*
X123133927Y-102183113D01*
X123235527Y-102183113D01*
X123406926Y-102183113D01*
X123472674Y-102170034D01*
X123547230Y-102120217D01*
X123547231Y-102120216D01*
X123597048Y-102045660D01*
X123610127Y-101979912D01*
X123610127Y-101733513D01*
X123235527Y-101733513D01*
X123235527Y-102183113D01*
X123133927Y-102183113D01*
X123133927Y-101733513D01*
X122759327Y-101733513D01*
X122759327Y-101979912D01*
X110845376Y-101979912D01*
X110705902Y-101840438D01*
X110702475Y-101832165D01*
X110705902Y-101823892D01*
X110726713Y-101803081D01*
X110726715Y-101803079D01*
X110757432Y-101733513D01*
X110761659Y-101723941D01*
X110770207Y-101704580D01*
X110770710Y-101700242D01*
X110773000Y-101680505D01*
X110772999Y-101419496D01*
X110770207Y-101395420D01*
X110770207Y-101395419D01*
X110767666Y-101389664D01*
X110765833Y-101385513D01*
X122759327Y-101385513D01*
X122759327Y-101631913D01*
X123133927Y-101631913D01*
X123235527Y-101631913D01*
X123610127Y-101631913D01*
X123610127Y-101385513D01*
X123597048Y-101319765D01*
X123547231Y-101245209D01*
X123547230Y-101245208D01*
X123472674Y-101195391D01*
X123406926Y-101182313D01*
X123235527Y-101182313D01*
X123235527Y-101631913D01*
X123133927Y-101631913D01*
X123133927Y-101182313D01*
X122962528Y-101182313D01*
X122896779Y-101195391D01*
X122822223Y-101245208D01*
X122822222Y-101245209D01*
X122772405Y-101319765D01*
X122759327Y-101385513D01*
X110765833Y-101385513D01*
X110741144Y-101329600D01*
X110726715Y-101296921D01*
X110726714Y-101296920D01*
X110726713Y-101296918D01*
X110650581Y-101220786D01*
X110650579Y-101220785D01*
X110552080Y-101177292D01*
X110528015Y-101174501D01*
X110528012Y-101174500D01*
X110528005Y-101174500D01*
X110527996Y-101174500D01*
X109591995Y-101174500D01*
X109567919Y-101177292D01*
X109469420Y-101220785D01*
X109469418Y-101220786D01*
X109393286Y-101296918D01*
X109393285Y-101296920D01*
X109349792Y-101395419D01*
X109347001Y-101419484D01*
X109347000Y-101419503D01*
X109347000Y-101680504D01*
X109349792Y-101704580D01*
X109393285Y-101803079D01*
X109393286Y-101803081D01*
X109469418Y-101879213D01*
X109469420Y-101879214D01*
X109469421Y-101879215D01*
X109504029Y-101894496D01*
X109567919Y-101922707D01*
X109571243Y-101923092D01*
X109591995Y-101925500D01*
X110075189Y-101925499D01*
X110083462Y-101928926D01*
X110470173Y-102315637D01*
X110473600Y-102323910D01*
X110473600Y-102462800D01*
X110470173Y-102471073D01*
X110461900Y-102474500D01*
X109591995Y-102474500D01*
X109567919Y-102477292D01*
X109469420Y-102520785D01*
X109469418Y-102520786D01*
X109393286Y-102596918D01*
X109393285Y-102596920D01*
X109349792Y-102695419D01*
X109347001Y-102719484D01*
X109347000Y-102719503D01*
X109347000Y-102980504D01*
X109349792Y-103004580D01*
X109393285Y-103103079D01*
X109393286Y-103103081D01*
X109414097Y-103123892D01*
X109417524Y-103132165D01*
X109414097Y-103140438D01*
X108746706Y-103807830D01*
X108738433Y-103811257D01*
X108175571Y-103811257D01*
X108083193Y-103849522D01*
X108083190Y-103849524D01*
X107430472Y-104502242D01*
X107422199Y-104505669D01*
X107413926Y-104502242D01*
X107410499Y-104493969D01*
X107410499Y-104322867D01*
X107394515Y-104242505D01*
X107394514Y-104242504D01*
X107333624Y-104151376D01*
X107333623Y-104151375D01*
X107312915Y-104137538D01*
X107307940Y-104130092D01*
X107309687Y-104121310D01*
X107311136Y-104119543D01*
X107349198Y-104081483D01*
X107400573Y-103976393D01*
X107410500Y-103908260D01*
X107410500Y-103541740D01*
X107400573Y-103473607D01*
X107349198Y-103368517D01*
X107349197Y-103368516D01*
X107349197Y-103368515D01*
X107266484Y-103285802D01*
X107165648Y-103236507D01*
X107159721Y-103229795D01*
X107160276Y-103220857D01*
X107164287Y-103216268D01*
X107186455Y-103201456D01*
X107186456Y-103201455D01*
X107225222Y-103143438D01*
X107235400Y-103092273D01*
X107235400Y-102975800D01*
X105734600Y-102975800D01*
X105734600Y-103092273D01*
X105744777Y-103143438D01*
X105783543Y-103201455D01*
X105783544Y-103201456D01*
X105805712Y-103216268D01*
X105810687Y-103223713D01*
X105808940Y-103232496D01*
X105804351Y-103236507D01*
X105703515Y-103285802D01*
X105703514Y-103285804D01*
X105635473Y-103353845D01*
X105627200Y-103357272D01*
X105618927Y-103353845D01*
X105615500Y-103345572D01*
X105615500Y-103209233D01*
X105615499Y-103209231D01*
X105576282Y-103062866D01*
X105576280Y-103062862D01*
X105500517Y-102931638D01*
X105500513Y-102931633D01*
X105393366Y-102824486D01*
X105393361Y-102824482D01*
X105294293Y-102767284D01*
X105294290Y-102767284D01*
X105277735Y-102757726D01*
X105734600Y-102757726D01*
X105734600Y-102874200D01*
X106434200Y-102874200D01*
X106535800Y-102874200D01*
X107235400Y-102874200D01*
X107235400Y-102757726D01*
X107228182Y-102721440D01*
X107228182Y-102721439D01*
X107227797Y-102719503D01*
X107672000Y-102719503D01*
X107672000Y-102980504D01*
X107674792Y-103004580D01*
X107718285Y-103103079D01*
X107718286Y-103103081D01*
X107794418Y-103179213D01*
X107794420Y-103179214D01*
X107794421Y-103179215D01*
X107844789Y-103201455D01*
X107892919Y-103222707D01*
X107896243Y-103223092D01*
X107916995Y-103225500D01*
X108853004Y-103225499D01*
X108877080Y-103222707D01*
X108975579Y-103179215D01*
X109051715Y-103103079D01*
X109095207Y-103004580D01*
X109098000Y-102980505D01*
X109097999Y-102719496D01*
X109095207Y-102695420D01*
X109092943Y-102690293D01*
X109070260Y-102638921D01*
X109051715Y-102596921D01*
X109051714Y-102596920D01*
X109051713Y-102596918D01*
X108975581Y-102520786D01*
X108975579Y-102520785D01*
X108877080Y-102477292D01*
X108853015Y-102474501D01*
X108853012Y-102474500D01*
X108853005Y-102474500D01*
X108852996Y-102474500D01*
X107916995Y-102474500D01*
X107892919Y-102477292D01*
X107794420Y-102520785D01*
X107794418Y-102520786D01*
X107718286Y-102596918D01*
X107718285Y-102596920D01*
X107674792Y-102695419D01*
X107672001Y-102719484D01*
X107672000Y-102719503D01*
X107227797Y-102719503D01*
X107225223Y-102706562D01*
X107225222Y-102706561D01*
X107186456Y-102648544D01*
X107186455Y-102648543D01*
X107128438Y-102609777D01*
X107077273Y-102599600D01*
X106535800Y-102599600D01*
X106535800Y-102874200D01*
X106434200Y-102874200D01*
X106434200Y-102599600D01*
X105892727Y-102599600D01*
X105841561Y-102609777D01*
X105783544Y-102648543D01*
X105783543Y-102648544D01*
X105744777Y-102706561D01*
X105734600Y-102757726D01*
X105277735Y-102757726D01*
X105262135Y-102748719D01*
X105262134Y-102748718D01*
X105262131Y-102748717D01*
X105262133Y-102748717D01*
X105115768Y-102709500D01*
X105115766Y-102709500D01*
X104964234Y-102709500D01*
X104964231Y-102709500D01*
X104817866Y-102748717D01*
X104817862Y-102748719D01*
X104686638Y-102824482D01*
X104686633Y-102824486D01*
X104579486Y-102931633D01*
X104579482Y-102931638D01*
X104503719Y-103062862D01*
X104503717Y-103062866D01*
X104464500Y-103209231D01*
X104464500Y-103360768D01*
X104503717Y-103507133D01*
X104503719Y-103507137D01*
X104579482Y-103638361D01*
X104579484Y-103638364D01*
X104579485Y-103638365D01*
X104686635Y-103745515D01*
X104686636Y-103745516D01*
X104686638Y-103745517D01*
X104817862Y-103821280D01*
X104817866Y-103821282D01*
X104933299Y-103852211D01*
X104964231Y-103860499D01*
X104964233Y-103860500D01*
X104964234Y-103860500D01*
X105115767Y-103860500D01*
X105115767Y-103860499D01*
X105208673Y-103835606D01*
X105262133Y-103821282D01*
X105262137Y-103821280D01*
X105305878Y-103796025D01*
X105393365Y-103745515D01*
X105500515Y-103638365D01*
X105537668Y-103574013D01*
X105544772Y-103568563D01*
X105553650Y-103569731D01*
X105559101Y-103576836D01*
X105559500Y-103579864D01*
X105559500Y-103908262D01*
X105569426Y-103976391D01*
X105620802Y-104081484D01*
X105620803Y-104081485D01*
X105658856Y-104119537D01*
X105662283Y-104127810D01*
X105658856Y-104136083D01*
X105657084Y-104137538D01*
X105636378Y-104151374D01*
X105636374Y-104151377D01*
X105575485Y-104242504D01*
X105559500Y-104322867D01*
X105559500Y-104527132D01*
X105575484Y-104607494D01*
X105575485Y-104607495D01*
X105616246Y-104668500D01*
X105617993Y-104677283D01*
X105616246Y-104681500D01*
X105575485Y-104742504D01*
X105559500Y-104822867D01*
X105559500Y-105027132D01*
X105575484Y-105107494D01*
X105575485Y-105107495D01*
X105616246Y-105168500D01*
X105617993Y-105177283D01*
X105616246Y-105181500D01*
X105575485Y-105242504D01*
X105559500Y-105322867D01*
X105559500Y-105527132D01*
X105575101Y-105605567D01*
X105573354Y-105614349D01*
X105565908Y-105619324D01*
X105563626Y-105619549D01*
X105490140Y-105619549D01*
X105414685Y-105639767D01*
X105414678Y-105639769D01*
X105412457Y-105640365D01*
X105412455Y-105640365D01*
X105412455Y-105640366D01*
X105410467Y-105641513D01*
X105410454Y-105641519D01*
X105342806Y-105680576D01*
X105342801Y-105680580D01*
X105309967Y-105713415D01*
X105270261Y-105753120D01*
X105213390Y-105809990D01*
X105173176Y-105879643D01*
X105173176Y-105879644D01*
X105171210Y-105886981D01*
X105152360Y-105957325D01*
X105152359Y-105957325D01*
X105152359Y-106038690D01*
X105152360Y-106038703D01*
X105152360Y-106790716D01*
X105173174Y-106868397D01*
X105173176Y-106868400D01*
X105213389Y-106938052D01*
X105444758Y-107169421D01*
X105514410Y-107209634D01*
X105514412Y-107209635D01*
X105569067Y-107224279D01*
X105576171Y-107229730D01*
X105577340Y-107238608D01*
X105575771Y-107242075D01*
X105575486Y-107242500D01*
X105575485Y-107242504D01*
X105559500Y-107322867D01*
X105559500Y-107527132D01*
X105575484Y-107607494D01*
X105575485Y-107607495D01*
X105616246Y-107668500D01*
X105617993Y-107677283D01*
X105616246Y-107681500D01*
X105575485Y-107742504D01*
X105559500Y-107822867D01*
X105559500Y-108027132D01*
X105575484Y-108107494D01*
X105575485Y-108107495D01*
X105635428Y-108197206D01*
X105636376Y-108198624D01*
X105649493Y-108207389D01*
X105657083Y-108212460D01*
X105662058Y-108219905D01*
X105660311Y-108228688D01*
X105658856Y-108230461D01*
X105620802Y-108268515D01*
X105569426Y-108373608D01*
X105559500Y-108441737D01*
X105559500Y-108770135D01*
X105556073Y-108778408D01*
X105547800Y-108781835D01*
X105539527Y-108778408D01*
X105537668Y-108775985D01*
X105500517Y-108711638D01*
X105500513Y-108711633D01*
X105393366Y-108604486D01*
X105393361Y-108604482D01*
X105262137Y-108528719D01*
X105262133Y-108528717D01*
X105115768Y-108489500D01*
X105115766Y-108489500D01*
X104964234Y-108489500D01*
X104964231Y-108489500D01*
X104817866Y-108528717D01*
X104817862Y-108528719D01*
X104686638Y-108604482D01*
X104686633Y-108604486D01*
X104579486Y-108711633D01*
X104579482Y-108711638D01*
X104503719Y-108842862D01*
X104503717Y-108842866D01*
X104464500Y-108989231D01*
X104464500Y-109140768D01*
X104503717Y-109287133D01*
X104503719Y-109287137D01*
X104579482Y-109418361D01*
X104579484Y-109418364D01*
X104579485Y-109418365D01*
X104686635Y-109525515D01*
X104686636Y-109525516D01*
X104686638Y-109525517D01*
X104817862Y-109601280D01*
X104817866Y-109601282D01*
X104933299Y-109632211D01*
X104964231Y-109640499D01*
X104964233Y-109640500D01*
X104964234Y-109640500D01*
X105115767Y-109640500D01*
X105115767Y-109640499D01*
X105188950Y-109620890D01*
X105262133Y-109601282D01*
X105262137Y-109601280D01*
X105277737Y-109592273D01*
X105734600Y-109592273D01*
X105744777Y-109643438D01*
X105783543Y-109701455D01*
X105783544Y-109701456D01*
X105841561Y-109740222D01*
X105892727Y-109750400D01*
X106434200Y-109750400D01*
X106535800Y-109750400D01*
X107077273Y-109750400D01*
X107128438Y-109740222D01*
X107186455Y-109701456D01*
X107186456Y-109701455D01*
X107225222Y-109643438D01*
X107235400Y-109592273D01*
X107235400Y-109475800D01*
X106535800Y-109475800D01*
X106535800Y-109750400D01*
X106434200Y-109750400D01*
X106434200Y-109475800D01*
X105734600Y-109475800D01*
X105734600Y-109592273D01*
X105277737Y-109592273D01*
X105323671Y-109565753D01*
X105393365Y-109525515D01*
X105500515Y-109418365D01*
X105560080Y-109315196D01*
X105576280Y-109287137D01*
X105576282Y-109287133D01*
X105615499Y-109140768D01*
X105615500Y-109140767D01*
X105615500Y-109004428D01*
X105618927Y-108996155D01*
X105627200Y-108992728D01*
X105635473Y-108996155D01*
X105703515Y-109064197D01*
X105703516Y-109064197D01*
X105703517Y-109064198D01*
X105804351Y-109113492D01*
X105810278Y-109120204D01*
X105809723Y-109129142D01*
X105805712Y-109133731D01*
X105783544Y-109148543D01*
X105783543Y-109148544D01*
X105744777Y-109206561D01*
X105734600Y-109257726D01*
X105734600Y-109374200D01*
X107235400Y-109374200D01*
X107235400Y-109257726D01*
X107225222Y-109206561D01*
X107186456Y-109148544D01*
X107186455Y-109148543D01*
X107164287Y-109133731D01*
X107159312Y-109126286D01*
X107161059Y-109117503D01*
X107165645Y-109113493D01*
X107266483Y-109064198D01*
X107266484Y-109064197D01*
X107266486Y-109064196D01*
X107349196Y-108981486D01*
X107349197Y-108981484D01*
X107349198Y-108981483D01*
X107400573Y-108876393D01*
X107410500Y-108808260D01*
X107410500Y-108441740D01*
X107400573Y-108373607D01*
X107349198Y-108268517D01*
X107349197Y-108268516D01*
X107349197Y-108268515D01*
X107349196Y-108268514D01*
X107311142Y-108230461D01*
X107307715Y-108222188D01*
X107311142Y-108213915D01*
X107312907Y-108212466D01*
X107333624Y-108198624D01*
X107345032Y-108181551D01*
X107346028Y-108180885D01*
X107346487Y-108179778D01*
X107349639Y-108178472D01*
X107352477Y-108176576D01*
X107354760Y-108176351D01*
X107356176Y-108176351D01*
X107364449Y-108179778D01*
X107785790Y-108601119D01*
X107856496Y-108671825D01*
X107895249Y-108687877D01*
X107948875Y-108710090D01*
X107948876Y-108710090D01*
X107948878Y-108710091D01*
X107948880Y-108710091D01*
X110478833Y-108710091D01*
X110478835Y-108710091D01*
X110571217Y-108671825D01*
X110823238Y-108419804D01*
X110831511Y-108416377D01*
X110839784Y-108419804D01*
X110843211Y-108428077D01*
X110843211Y-108529265D01*
X110846065Y-108559702D01*
X110846066Y-108559706D01*
X110890915Y-108687877D01*
X110890917Y-108687880D01*
X110890918Y-108687882D01*
X110971561Y-108797150D01*
X111080829Y-108877793D01*
X111080831Y-108877793D01*
X111080833Y-108877795D01*
X111209004Y-108922644D01*
X111209008Y-108922645D01*
X111209009Y-108922645D01*
X111209012Y-108922646D01*
X111239445Y-108925500D01*
X111239455Y-108925500D01*
X113287967Y-108925500D01*
X113287977Y-108925500D01*
X113318410Y-108922646D01*
X113318413Y-108922645D01*
X113318417Y-108922644D01*
X113446588Y-108877795D01*
X113446588Y-108877794D01*
X113446593Y-108877793D01*
X113555861Y-108797150D01*
X113636504Y-108687882D01*
X113636506Y-108687877D01*
X113681355Y-108559706D01*
X113681356Y-108559702D01*
X113681356Y-108559701D01*
X113681357Y-108559699D01*
X113684211Y-108529266D01*
X113684211Y-108448427D01*
X113687638Y-108440154D01*
X113695911Y-108436727D01*
X113704184Y-108440154D01*
X114466084Y-109202054D01*
X114468475Y-109206520D01*
X114468733Y-109206414D01*
X114507818Y-109300773D01*
X114507820Y-109300776D01*
X114587733Y-109380689D01*
X114591160Y-109388962D01*
X114591160Y-110798043D01*
X114587733Y-110806316D01*
X114581290Y-110809599D01*
X114519697Y-110819353D01*
X114406657Y-110876950D01*
X114316950Y-110966657D01*
X114259353Y-111079697D01*
X114244500Y-111173480D01*
X114244500Y-111786518D01*
X114259353Y-111880302D01*
X114285943Y-111932488D01*
X114286645Y-111941416D01*
X114280830Y-111948225D01*
X114275518Y-111949500D01*
X113735808Y-111949500D01*
X113727535Y-111946073D01*
X113724108Y-111937800D01*
X113727535Y-111929527D01*
X113729308Y-111928072D01*
X113770528Y-111900529D01*
X113770529Y-111900528D01*
X113825871Y-111817701D01*
X113840400Y-111744663D01*
X113840400Y-111520800D01*
X112889600Y-111520800D01*
X112889600Y-111744663D01*
X112904128Y-111817701D01*
X112959470Y-111900528D01*
X112959471Y-111900529D01*
X113000692Y-111928072D01*
X113005667Y-111935517D01*
X113003920Y-111944300D01*
X112996475Y-111949275D01*
X112994192Y-111949500D01*
X112419707Y-111949500D01*
X112411434Y-111946073D01*
X112408007Y-111937800D01*
X112409282Y-111932488D01*
X112411978Y-111927196D01*
X112449719Y-111853126D01*
X112465500Y-111753488D01*
X112465500Y-111195336D01*
X112889600Y-111195336D01*
X112889600Y-111419200D01*
X113314200Y-111419200D01*
X113415800Y-111419200D01*
X113840400Y-111419200D01*
X113840400Y-111195336D01*
X113825871Y-111122298D01*
X113770529Y-111039471D01*
X113770528Y-111039470D01*
X113687701Y-110984128D01*
X113614663Y-110969600D01*
X113415800Y-110969600D01*
X113415800Y-111419200D01*
X113314200Y-111419200D01*
X113314200Y-110969600D01*
X113115337Y-110969600D01*
X113042298Y-110984128D01*
X112959471Y-111039470D01*
X112959470Y-111039471D01*
X112904128Y-111122298D01*
X112889600Y-111195336D01*
X112465500Y-111195336D01*
X112465500Y-111186512D01*
X112449719Y-111086874D01*
X112388528Y-110966780D01*
X112293220Y-110871472D01*
X112173126Y-110810281D01*
X112173125Y-110810280D01*
X112173124Y-110810280D01*
X112073489Y-110794500D01*
X112073488Y-110794500D01*
X111556512Y-110794500D01*
X111556511Y-110794500D01*
X111456873Y-110810280D01*
X111392923Y-110842863D01*
X111383996Y-110843565D01*
X111379339Y-110840711D01*
X110693672Y-110155044D01*
X110690245Y-110146771D01*
X110690390Y-110144938D01*
X110690500Y-110144246D01*
X110690500Y-109565754D01*
X110674951Y-109467580D01*
X110614658Y-109349249D01*
X110520751Y-109255342D01*
X110402420Y-109195049D01*
X110402419Y-109195048D01*
X110402418Y-109195048D01*
X110304247Y-109179500D01*
X110304246Y-109179500D01*
X109800754Y-109179500D01*
X109800753Y-109179500D01*
X109702581Y-109195048D01*
X109584248Y-109255342D01*
X109490342Y-109349248D01*
X109430048Y-109467581D01*
X109414500Y-109565753D01*
X109414500Y-109794302D01*
X109411073Y-109802575D01*
X109135473Y-110078175D01*
X109127200Y-110081602D01*
X109118927Y-110078175D01*
X109115500Y-110069902D01*
X109115500Y-109565753D01*
X109099951Y-109467581D01*
X109099951Y-109467580D01*
X109039658Y-109349249D01*
X108945751Y-109255342D01*
X108827420Y-109195049D01*
X108827419Y-109195048D01*
X108827418Y-109195048D01*
X108729247Y-109179500D01*
X108729246Y-109179500D01*
X108225754Y-109179500D01*
X108225753Y-109179500D01*
X108127581Y-109195048D01*
X108009248Y-109255342D01*
X107915342Y-109349248D01*
X107855048Y-109467581D01*
X107839500Y-109565753D01*
X107839500Y-110144246D01*
X107855048Y-110242418D01*
X107855048Y-110242419D01*
X107855049Y-110242420D01*
X107915342Y-110360751D01*
X108009249Y-110454658D01*
X108127580Y-110514951D01*
X108176667Y-110522725D01*
X108225753Y-110530500D01*
X108225754Y-110530500D01*
X108654902Y-110530500D01*
X108663175Y-110533927D01*
X108666602Y-110542200D01*
X108663175Y-110550473D01*
X108112458Y-111101188D01*
X108105712Y-111104515D01*
X108060242Y-111110500D01*
X108060239Y-111110501D01*
X107960200Y-111157150D01*
X107882150Y-111235200D01*
X107835500Y-111335241D01*
X107829500Y-111380821D01*
X107829500Y-111679177D01*
X107835500Y-111724757D01*
X107835501Y-111724760D01*
X107882150Y-111824799D01*
X107960201Y-111902850D01*
X108012412Y-111927196D01*
X108018461Y-111933798D01*
X108018071Y-111942745D01*
X108011469Y-111948794D01*
X108007467Y-111949500D01*
X100612200Y-111949500D01*
X100603927Y-111946073D01*
X100600500Y-111937800D01*
X100600500Y-110741626D01*
X100603927Y-110733353D01*
X100612200Y-110729926D01*
X100620473Y-110733353D01*
X100622333Y-110735776D01*
X100669576Y-110817604D01*
X100767395Y-110915423D01*
X100767400Y-110915427D01*
X100887200Y-110984594D01*
X100887204Y-110984596D01*
X101020827Y-111020399D01*
X101020829Y-111020400D01*
X101339200Y-111020400D01*
X101339200Y-110795000D01*
X101440800Y-110795000D01*
X101440800Y-111020400D01*
X101759171Y-111020400D01*
X101759172Y-111020399D01*
X101892795Y-110984596D01*
X101892799Y-110984594D01*
X102012599Y-110915427D01*
X102012604Y-110915423D01*
X102110423Y-110817604D01*
X102110427Y-110817599D01*
X102179594Y-110697799D01*
X102179596Y-110697795D01*
X102215399Y-110564172D01*
X102215400Y-110564171D01*
X102215400Y-110545800D01*
X101986971Y-110545800D01*
X101990000Y-110534496D01*
X101990000Y-110455504D01*
X101986971Y-110444200D01*
X102215400Y-110444200D01*
X102215400Y-110425829D01*
X102215399Y-110425827D01*
X104494600Y-110425827D01*
X104494600Y-110444200D01*
X104723029Y-110444200D01*
X104720000Y-110455504D01*
X104720000Y-110534496D01*
X104723029Y-110545800D01*
X104494600Y-110545800D01*
X104494600Y-110564172D01*
X104530403Y-110697795D01*
X104530405Y-110697799D01*
X104599572Y-110817599D01*
X104599576Y-110817604D01*
X104697395Y-110915423D01*
X104697400Y-110915427D01*
X104817200Y-110984594D01*
X104817204Y-110984596D01*
X104950827Y-111020399D01*
X104950829Y-111020400D01*
X105519200Y-111020400D01*
X105519200Y-110795000D01*
X105620800Y-110795000D01*
X105620800Y-111020400D01*
X106189171Y-111020400D01*
X106189172Y-111020399D01*
X106322795Y-110984596D01*
X106322799Y-110984594D01*
X106442599Y-110915427D01*
X106442604Y-110915423D01*
X106540423Y-110817604D01*
X106540427Y-110817599D01*
X106609594Y-110697799D01*
X106609596Y-110697795D01*
X106645399Y-110564172D01*
X106645400Y-110564171D01*
X106645400Y-110545800D01*
X106416971Y-110545800D01*
X106420000Y-110534496D01*
X106420000Y-110455504D01*
X106416971Y-110444200D01*
X106645400Y-110444200D01*
X106645400Y-110425829D01*
X106645399Y-110425827D01*
X106609596Y-110292204D01*
X106609594Y-110292200D01*
X106540427Y-110172400D01*
X106540423Y-110172395D01*
X106442604Y-110074576D01*
X106442599Y-110074572D01*
X106322799Y-110005405D01*
X106322795Y-110005403D01*
X106189172Y-109969600D01*
X105620800Y-109969600D01*
X105620800Y-110195000D01*
X105519200Y-110195000D01*
X105519200Y-109969600D01*
X104950827Y-109969600D01*
X104817204Y-110005403D01*
X104817200Y-110005405D01*
X104697400Y-110074572D01*
X104697395Y-110074576D01*
X104599576Y-110172395D01*
X104599572Y-110172400D01*
X104530405Y-110292200D01*
X104530403Y-110292204D01*
X104494600Y-110425827D01*
X102215399Y-110425827D01*
X102179596Y-110292204D01*
X102179594Y-110292200D01*
X102110427Y-110172400D01*
X102110423Y-110172395D01*
X102012604Y-110074576D01*
X102012599Y-110074572D01*
X101892799Y-110005405D01*
X101892795Y-110005403D01*
X101759172Y-109969600D01*
X101440800Y-109969600D01*
X101440800Y-110195000D01*
X101339200Y-110195000D01*
X101339200Y-109969600D01*
X101020827Y-109969600D01*
X100887204Y-110005403D01*
X100887200Y-110005405D01*
X100767400Y-110074572D01*
X100767395Y-110074576D01*
X100669576Y-110172395D01*
X100669572Y-110172400D01*
X100622332Y-110254223D01*
X100615228Y-110259674D01*
X100606350Y-110258505D01*
X100600899Y-110251401D01*
X100600500Y-110248373D01*
X100600500Y-102101626D01*
X100603927Y-102093353D01*
X100612200Y-102089926D01*
X100620473Y-102093353D01*
X100622333Y-102095776D01*
X100669576Y-102177604D01*
X100767395Y-102275423D01*
X100767400Y-102275427D01*
X100887200Y-102344594D01*
X100887204Y-102344596D01*
X101020827Y-102380399D01*
X101020829Y-102380400D01*
X101339200Y-102380400D01*
X101339200Y-102155000D01*
X101440800Y-102155000D01*
X101440800Y-102380400D01*
X101759171Y-102380400D01*
X101759172Y-102380399D01*
X101892795Y-102344596D01*
X101892799Y-102344594D01*
X102012599Y-102275427D01*
X102012604Y-102275423D01*
X102110423Y-102177604D01*
X102110427Y-102177599D01*
X102179594Y-102057799D01*
X102179596Y-102057795D01*
X102215399Y-101924172D01*
X102215400Y-101924171D01*
X102215400Y-101905800D01*
X101986971Y-101905800D01*
X101990000Y-101894496D01*
X101990000Y-101815504D01*
X101986971Y-101804200D01*
X102215400Y-101804200D01*
X102215400Y-101785829D01*
X102215399Y-101785827D01*
X104494600Y-101785827D01*
X104494600Y-101804200D01*
X104723029Y-101804200D01*
X104720000Y-101815504D01*
X104720000Y-101894496D01*
X104723029Y-101905800D01*
X104494600Y-101905800D01*
X104494600Y-101924172D01*
X104530403Y-102057795D01*
X104530405Y-102057799D01*
X104599572Y-102177599D01*
X104599576Y-102177604D01*
X104697395Y-102275423D01*
X104697400Y-102275427D01*
X104817200Y-102344594D01*
X104817204Y-102344596D01*
X104950827Y-102380399D01*
X104950829Y-102380400D01*
X105519200Y-102380400D01*
X105519200Y-102155000D01*
X105620800Y-102155000D01*
X105620800Y-102380400D01*
X106189171Y-102380400D01*
X106189172Y-102380399D01*
X106322795Y-102344596D01*
X106322799Y-102344594D01*
X106402430Y-102298619D01*
X107847101Y-102298619D01*
X107853649Y-102331549D01*
X107853651Y-102331552D01*
X107878603Y-102368895D01*
X107878604Y-102368896D01*
X107915948Y-102393849D01*
X107948879Y-102400399D01*
X108334200Y-102400399D01*
X108435800Y-102400399D01*
X108821119Y-102400399D01*
X108854049Y-102393850D01*
X108854052Y-102393848D01*
X108891395Y-102368896D01*
X108891396Y-102368895D01*
X108916349Y-102331551D01*
X108922900Y-102298620D01*
X108922900Y-102250800D01*
X108435800Y-102250800D01*
X108435800Y-102400399D01*
X108334200Y-102400399D01*
X108334200Y-102250800D01*
X107847101Y-102250800D01*
X107847101Y-102298619D01*
X106402430Y-102298619D01*
X106442599Y-102275427D01*
X106442604Y-102275423D01*
X106480347Y-102237681D01*
X106540423Y-102177604D01*
X106540427Y-102177599D01*
X106584433Y-102101379D01*
X107847100Y-102101379D01*
X107847100Y-102149200D01*
X108334200Y-102149200D01*
X108435800Y-102149200D01*
X108922899Y-102149200D01*
X108922899Y-102101380D01*
X108916350Y-102068450D01*
X108916348Y-102068447D01*
X108891396Y-102031104D01*
X108891395Y-102031103D01*
X108854051Y-102006150D01*
X108821120Y-101999600D01*
X108435800Y-101999600D01*
X108435800Y-102149200D01*
X108334200Y-102149200D01*
X108334200Y-101999600D01*
X107948880Y-101999600D01*
X107915950Y-102006149D01*
X107915947Y-102006151D01*
X107878604Y-102031103D01*
X107878603Y-102031104D01*
X107853650Y-102068448D01*
X107847100Y-102101379D01*
X106584433Y-102101379D01*
X106588143Y-102094954D01*
X106609594Y-102057799D01*
X106609596Y-102057795D01*
X106645399Y-101924172D01*
X106645400Y-101924171D01*
X106645400Y-101905800D01*
X106416971Y-101905800D01*
X106420000Y-101894496D01*
X106420000Y-101815504D01*
X106416971Y-101804200D01*
X106645400Y-101804200D01*
X106645400Y-101785829D01*
X106645399Y-101785827D01*
X106609596Y-101652204D01*
X106609594Y-101652200D01*
X106540427Y-101532400D01*
X106540423Y-101532395D01*
X106442604Y-101434576D01*
X106442599Y-101434572D01*
X106433448Y-101429289D01*
X106416498Y-101419503D01*
X107672000Y-101419503D01*
X107672000Y-101680504D01*
X107674792Y-101704580D01*
X107718285Y-101803079D01*
X107718286Y-101803081D01*
X107794418Y-101879213D01*
X107794420Y-101879214D01*
X107794421Y-101879215D01*
X107829029Y-101894496D01*
X107892919Y-101922707D01*
X107896243Y-101923092D01*
X107916995Y-101925500D01*
X108853004Y-101925499D01*
X108877080Y-101922707D01*
X108975579Y-101879215D01*
X109051715Y-101803079D01*
X109095207Y-101704580D01*
X109098000Y-101680505D01*
X109097999Y-101419496D01*
X109095207Y-101395420D01*
X109092665Y-101389664D01*
X109066144Y-101329600D01*
X109051715Y-101296921D01*
X109051714Y-101296920D01*
X109051713Y-101296918D01*
X108975581Y-101220786D01*
X108975579Y-101220785D01*
X108877080Y-101177292D01*
X108853015Y-101174501D01*
X108853012Y-101174500D01*
X108853005Y-101174500D01*
X108852996Y-101174500D01*
X107916995Y-101174500D01*
X107892919Y-101177292D01*
X107794420Y-101220785D01*
X107794418Y-101220786D01*
X107718286Y-101296918D01*
X107718285Y-101296920D01*
X107674792Y-101395419D01*
X107672001Y-101419484D01*
X107672000Y-101419503D01*
X106416498Y-101419503D01*
X106322799Y-101365405D01*
X106322795Y-101365403D01*
X106189172Y-101329600D01*
X105620800Y-101329600D01*
X105620800Y-101555000D01*
X105519200Y-101555000D01*
X105519200Y-101329600D01*
X104950827Y-101329600D01*
X104817204Y-101365403D01*
X104817200Y-101365405D01*
X104697400Y-101434572D01*
X104697395Y-101434576D01*
X104599576Y-101532395D01*
X104599572Y-101532400D01*
X104530405Y-101652200D01*
X104530403Y-101652204D01*
X104494600Y-101785827D01*
X102215399Y-101785827D01*
X102179596Y-101652204D01*
X102179594Y-101652200D01*
X102110427Y-101532400D01*
X102110423Y-101532395D01*
X102012604Y-101434576D01*
X102012599Y-101434572D01*
X101892799Y-101365405D01*
X101892795Y-101365403D01*
X101759172Y-101329600D01*
X101440800Y-101329600D01*
X101440800Y-101555000D01*
X101339200Y-101555000D01*
X101339200Y-101329600D01*
X101020827Y-101329600D01*
X100887204Y-101365403D01*
X100887200Y-101365405D01*
X100767400Y-101434572D01*
X100767395Y-101434576D01*
X100669576Y-101532395D01*
X100669572Y-101532400D01*
X100622332Y-101614223D01*
X100615228Y-101619674D01*
X100606350Y-101618505D01*
X100600899Y-101611401D01*
X100600500Y-101608373D01*
X100600500Y-100512200D01*
X100603927Y-100503927D01*
X100612200Y-100500500D01*
X132612800Y-100500500D01*
X132621073Y-100503927D01*
G37*
%TD.AperFunction*%
%TA.AperFunction,Conductor*%
G36*
X109884410Y-110638486D02*
G01*
X110505551Y-111259627D01*
X110508978Y-111267900D01*
X110505551Y-111276173D01*
X110497278Y-111279600D01*
X110480800Y-111279600D01*
X110480800Y-111479200D01*
X110720278Y-111479200D01*
X110728551Y-111482627D01*
X111081647Y-111835723D01*
X111081648Y-111835724D01*
X111081650Y-111835725D01*
X111185862Y-111895893D01*
X111185864Y-111895893D01*
X111185865Y-111895894D01*
X111199602Y-111899574D01*
X111206705Y-111905024D01*
X111206998Y-111905563D01*
X111220718Y-111932488D01*
X111221420Y-111941415D01*
X111215605Y-111948225D01*
X111210293Y-111949500D01*
X108652533Y-111949500D01*
X108644260Y-111946073D01*
X108640833Y-111937800D01*
X108644260Y-111929527D01*
X108647586Y-111927197D01*
X108699799Y-111902850D01*
X108777850Y-111824799D01*
X108824499Y-111724760D01*
X108830486Y-111679282D01*
X108833812Y-111672538D01*
X108850268Y-111656082D01*
X110104601Y-111656082D01*
X110112601Y-111696306D01*
X110112602Y-111696309D01*
X110143078Y-111741920D01*
X110143079Y-111741921D01*
X110188693Y-111772398D01*
X110228917Y-111780399D01*
X110379200Y-111780399D01*
X110480800Y-111780399D01*
X110631082Y-111780399D01*
X110671306Y-111772398D01*
X110671309Y-111772397D01*
X110716920Y-111741921D01*
X110716921Y-111741920D01*
X110747398Y-111696306D01*
X110755400Y-111656082D01*
X110755400Y-111580800D01*
X110480800Y-111580800D01*
X110480800Y-111780399D01*
X110379200Y-111780399D01*
X110379200Y-111580800D01*
X110104601Y-111580800D01*
X110104601Y-111656082D01*
X108850268Y-111656082D01*
X109102433Y-111403917D01*
X110104600Y-111403917D01*
X110104600Y-111479200D01*
X110379200Y-111479200D01*
X110379200Y-111279600D01*
X110228917Y-111279600D01*
X110188693Y-111287601D01*
X110188690Y-111287602D01*
X110143079Y-111318078D01*
X110143078Y-111318079D01*
X110112601Y-111363693D01*
X110104600Y-111403917D01*
X109102433Y-111403917D01*
X109867867Y-110638484D01*
X109876137Y-110635059D01*
X109884410Y-110638486D01*
G37*
%TD.AperFunction*%
%TA.AperFunction,Conductor*%
G36*
X120833296Y-109357267D02*
G01*
X120836723Y-109365540D01*
X120833296Y-109373813D01*
X119406036Y-110801073D01*
X119397763Y-110804500D01*
X119305753Y-110804500D01*
X119207581Y-110820048D01*
X119089248Y-110880342D01*
X118995342Y-110974248D01*
X118935048Y-111092581D01*
X118919500Y-111190753D01*
X118919500Y-111769246D01*
X118935048Y-111867418D01*
X118968203Y-111932488D01*
X118968905Y-111941416D01*
X118963090Y-111948225D01*
X118957778Y-111949500D01*
X118582222Y-111949500D01*
X118573949Y-111946073D01*
X118570522Y-111937800D01*
X118571797Y-111932488D01*
X118574493Y-111927196D01*
X118604951Y-111867420D01*
X118620500Y-111769246D01*
X118620500Y-111190754D01*
X118617764Y-111173482D01*
X118604951Y-111092581D01*
X118604951Y-111092580D01*
X118544658Y-110974249D01*
X118450751Y-110880342D01*
X118332420Y-110820049D01*
X118332419Y-110820048D01*
X118332418Y-110820048D01*
X118234247Y-110804500D01*
X118234246Y-110804500D01*
X117730754Y-110804500D01*
X117730753Y-110804500D01*
X117632581Y-110820048D01*
X117514248Y-110880342D01*
X117420342Y-110974248D01*
X117360048Y-111092581D01*
X117344500Y-111190753D01*
X117344500Y-111217000D01*
X117341073Y-111225273D01*
X117332800Y-111228700D01*
X117107199Y-111228700D01*
X117098926Y-111225273D01*
X117095499Y-111217000D01*
X117095499Y-111173481D01*
X117084050Y-111101188D01*
X117080646Y-111079696D01*
X117023050Y-110966658D01*
X116933342Y-110876950D01*
X116820304Y-110819354D01*
X116820303Y-110819353D01*
X116820302Y-110819353D01*
X116726519Y-110804500D01*
X116263481Y-110804500D01*
X116169697Y-110819353D01*
X116056657Y-110876950D01*
X115966950Y-110966657D01*
X115909353Y-111079697D01*
X115894500Y-111173480D01*
X115894500Y-111786518D01*
X115909353Y-111880302D01*
X115935943Y-111932488D01*
X115936645Y-111941416D01*
X115930830Y-111948225D01*
X115925518Y-111949500D01*
X115414482Y-111949500D01*
X115406209Y-111946073D01*
X115402782Y-111937800D01*
X115404057Y-111932488D01*
X115406753Y-111927196D01*
X115430646Y-111880304D01*
X115445500Y-111786519D01*
X115445499Y-111173482D01*
X115442912Y-111157150D01*
X115434050Y-111101188D01*
X115430646Y-111079696D01*
X115373050Y-110966658D01*
X115283342Y-110876950D01*
X115170304Y-110819354D01*
X115170303Y-110819353D01*
X115170302Y-110819353D01*
X115108710Y-110809598D01*
X115101074Y-110804919D01*
X115098840Y-110798042D01*
X115098840Y-109365540D01*
X115102267Y-109357267D01*
X115110540Y-109353840D01*
X120825023Y-109353840D01*
X120833296Y-109357267D01*
G37*
%TD.AperFunction*%
%TA.AperFunction,Conductor*%
G36*
X124497773Y-109357267D02*
G01*
X124501200Y-109365540D01*
X124501200Y-110543368D01*
X124497773Y-110551641D01*
X124491330Y-110554924D01*
X124394375Y-110570280D01*
X124274279Y-110631472D01*
X124178972Y-110726779D01*
X124117780Y-110846875D01*
X124102000Y-110946511D01*
X124102000Y-111227000D01*
X124098573Y-111235273D01*
X124090300Y-111238700D01*
X123412199Y-111238700D01*
X123403926Y-111235273D01*
X123400499Y-111227000D01*
X123400499Y-111183481D01*
X123387991Y-111104501D01*
X123385646Y-111089696D01*
X123328050Y-110976658D01*
X123238342Y-110886950D01*
X123125304Y-110829354D01*
X123125303Y-110829353D01*
X123125302Y-110829353D01*
X123031519Y-110814500D01*
X122568481Y-110814500D01*
X122474697Y-110829353D01*
X122361657Y-110886950D01*
X122271950Y-110976657D01*
X122214353Y-111089697D01*
X122199500Y-111183480D01*
X122199500Y-111796518D01*
X122214353Y-111890302D01*
X122214353Y-111890303D01*
X122214354Y-111890304D01*
X122233151Y-111927196D01*
X122235848Y-111932488D01*
X122236550Y-111941416D01*
X122230735Y-111948225D01*
X122225423Y-111949500D01*
X121724577Y-111949500D01*
X121716304Y-111946073D01*
X121712877Y-111937800D01*
X121714152Y-111932488D01*
X121716402Y-111928072D01*
X121735646Y-111890304D01*
X121750500Y-111796519D01*
X121750499Y-111183482D01*
X121735646Y-111089696D01*
X121678050Y-110976658D01*
X121588342Y-110886950D01*
X121475304Y-110829354D01*
X121475303Y-110829353D01*
X121475302Y-110829353D01*
X121381520Y-110814500D01*
X121381519Y-110814500D01*
X121341042Y-110814500D01*
X121332769Y-110811073D01*
X121329342Y-110802800D01*
X121329342Y-110125831D01*
X121332769Y-110117558D01*
X121333258Y-110117069D01*
X121340465Y-110109862D01*
X121383318Y-110035638D01*
X121391420Y-110005403D01*
X121394409Y-109994245D01*
X121405500Y-109952853D01*
X121405500Y-109867147D01*
X121400811Y-109849649D01*
X121383319Y-109784363D01*
X121383317Y-109784359D01*
X121340467Y-109710141D01*
X121340463Y-109710136D01*
X121291600Y-109661273D01*
X121288173Y-109653000D01*
X121291600Y-109644727D01*
X121299873Y-109641300D01*
X121516127Y-109641300D01*
X121524400Y-109644727D01*
X121530138Y-109650465D01*
X121530139Y-109650466D01*
X121530141Y-109650467D01*
X121604359Y-109693317D01*
X121604363Y-109693319D01*
X121667147Y-109710141D01*
X121687144Y-109715499D01*
X121687146Y-109715500D01*
X121687147Y-109715500D01*
X121772854Y-109715500D01*
X121772854Y-109715499D01*
X121814245Y-109704409D01*
X121855636Y-109693319D01*
X121855640Y-109693317D01*
X121925471Y-109653000D01*
X121929862Y-109650465D01*
X121990465Y-109589862D01*
X122033318Y-109515638D01*
X122055500Y-109432853D01*
X122055500Y-109365540D01*
X122058927Y-109357267D01*
X122067200Y-109353840D01*
X124489500Y-109353840D01*
X124497773Y-109357267D01*
G37*
%TD.AperFunction*%
%TA.AperFunction,Conductor*%
G36*
X122364260Y-104029101D02*
G01*
X122364260Y-104038055D01*
X122361724Y-104041851D01*
X122314306Y-104089269D01*
X122271434Y-104163525D01*
X122249245Y-104246338D01*
X122249245Y-104332081D01*
X122271434Y-104414894D01*
X122271436Y-104414897D01*
X122314305Y-104489149D01*
X122374931Y-104549775D01*
X122449183Y-104592644D01*
X122449185Y-104592644D01*
X122449186Y-104592645D01*
X122449184Y-104592645D01*
X122511687Y-104609392D01*
X122531998Y-104614834D01*
X122532000Y-104614835D01*
X122532001Y-104614835D01*
X122550837Y-104614835D01*
X122555314Y-104615726D01*
X122631660Y-104647350D01*
X122631661Y-104647350D01*
X122631663Y-104647351D01*
X122717823Y-104647351D01*
X122723153Y-104647351D01*
X122731426Y-104650778D01*
X122733664Y-104653912D01*
X122782052Y-104752892D01*
X122864765Y-104835605D01*
X122864766Y-104835605D01*
X122864767Y-104835606D01*
X122923124Y-104864135D01*
X122967640Y-104885897D01*
X122973567Y-104892609D01*
X122973012Y-104901547D01*
X122967640Y-104906919D01*
X122864765Y-104957210D01*
X122814926Y-105007049D01*
X122806653Y-105010476D01*
X122803625Y-105010077D01*
X122733732Y-104991350D01*
X122733730Y-104991350D01*
X122717203Y-104991350D01*
X122708930Y-104987923D01*
X122705503Y-104979650D01*
X122705503Y-104942742D01*
X122705502Y-104942740D01*
X122683313Y-104859927D01*
X122674422Y-104844527D01*
X122640443Y-104785673D01*
X122579817Y-104725047D01*
X122505565Y-104682178D01*
X122505564Y-104682177D01*
X122505561Y-104682176D01*
X122505563Y-104682176D01*
X122422749Y-104659987D01*
X122422747Y-104659987D01*
X122337009Y-104659987D01*
X122337006Y-104659987D01*
X122254193Y-104682176D01*
X122235256Y-104693110D01*
X122229406Y-104694677D01*
X122162472Y-104694677D01*
X122070094Y-104732942D01*
X122070091Y-104732944D01*
X121938899Y-104864135D01*
X121930626Y-104867562D01*
X121929120Y-104867400D01*
X121929119Y-104867421D01*
X121928411Y-104867354D01*
X121928410Y-104867354D01*
X121897977Y-104864500D01*
X119849445Y-104864500D01*
X119819008Y-104867354D01*
X119819004Y-104867355D01*
X119690833Y-104912204D01*
X119581561Y-104992850D01*
X119500915Y-105102122D01*
X119456066Y-105230293D01*
X119456065Y-105230297D01*
X119453211Y-105260734D01*
X119453211Y-105989265D01*
X119456065Y-106019702D01*
X119456066Y-106019706D01*
X119500915Y-106147877D01*
X119500917Y-106147880D01*
X119500918Y-106147882D01*
X119581561Y-106257150D01*
X119690829Y-106337793D01*
X119690831Y-106337793D01*
X119690833Y-106337795D01*
X119819004Y-106382644D01*
X119819008Y-106382645D01*
X119819009Y-106382645D01*
X119819012Y-106382646D01*
X119849445Y-106385500D01*
X119849455Y-106385500D01*
X121897967Y-106385500D01*
X121897977Y-106385500D01*
X121928410Y-106382646D01*
X121928413Y-106382645D01*
X121928417Y-106382644D01*
X122056588Y-106337795D01*
X122056588Y-106337794D01*
X122056593Y-106337793D01*
X122105626Y-106301604D01*
X122114317Y-106299450D01*
X122121987Y-106304071D01*
X122124273Y-106311019D01*
X122124273Y-106518291D01*
X122162538Y-106610669D01*
X122162540Y-106610672D01*
X122704581Y-107152713D01*
X122719719Y-107158983D01*
X122726051Y-107165314D01*
X122726820Y-107171479D01*
X122720750Y-107213145D01*
X122720750Y-107579670D01*
X122730676Y-107647799D01*
X122782052Y-107752892D01*
X122864765Y-107835605D01*
X122864766Y-107835605D01*
X122864767Y-107835606D01*
X122969857Y-107886981D01*
X123037990Y-107896908D01*
X123037993Y-107896908D01*
X124479507Y-107896908D01*
X124479510Y-107896908D01*
X124547643Y-107886981D01*
X124652733Y-107835606D01*
X124652734Y-107835605D01*
X124652736Y-107835604D01*
X124735446Y-107752894D01*
X124735447Y-107752892D01*
X124735448Y-107752891D01*
X124786823Y-107647801D01*
X124796750Y-107579668D01*
X124796750Y-107428960D01*
X124800177Y-107420687D01*
X124808450Y-107417260D01*
X124816723Y-107420687D01*
X124942506Y-107546470D01*
X125013212Y-107617176D01*
X125071466Y-107641305D01*
X125105591Y-107655441D01*
X125105592Y-107655441D01*
X125105594Y-107655442D01*
X125105596Y-107655442D01*
X127381409Y-107655442D01*
X127381411Y-107655442D01*
X127473793Y-107617176D01*
X128013222Y-107077746D01*
X128021494Y-107074320D01*
X128029767Y-107077747D01*
X128033194Y-107086020D01*
X128032005Y-107091158D01*
X128005677Y-107145014D01*
X127995750Y-107213145D01*
X127995750Y-107579670D01*
X128005676Y-107647799D01*
X128057052Y-107752892D01*
X128139765Y-107835605D01*
X128139766Y-107835605D01*
X128139767Y-107835606D01*
X128244857Y-107886981D01*
X128312990Y-107896908D01*
X129174012Y-107896908D01*
X129182285Y-107900335D01*
X129889219Y-108607269D01*
X129892646Y-108615542D01*
X129891371Y-108620853D01*
X129860280Y-108681873D01*
X129844500Y-108781511D01*
X129844500Y-109298488D01*
X129860280Y-109398124D01*
X129860280Y-109398125D01*
X129860281Y-109398126D01*
X129921472Y-109518220D01*
X130016780Y-109613528D01*
X130110485Y-109661273D01*
X130135532Y-109674035D01*
X130141347Y-109680845D01*
X130140645Y-109689772D01*
X130133835Y-109695587D01*
X130130220Y-109696160D01*
X129407096Y-109696160D01*
X129398823Y-109692733D01*
X128461386Y-108755296D01*
X128461385Y-108755295D01*
X128461383Y-108755294D01*
X128368090Y-108716650D01*
X128368088Y-108716650D01*
X126618018Y-108716650D01*
X126517036Y-108716649D01*
X126517032Y-108716649D01*
X126423738Y-108755293D01*
X126423735Y-108755295D01*
X126336297Y-108842733D01*
X126328024Y-108846160D01*
X122135010Y-108846160D01*
X122126737Y-108842733D01*
X122123310Y-108834460D01*
X122126737Y-108826187D01*
X122128057Y-108825050D01*
X122165861Y-108797150D01*
X122246504Y-108687882D01*
X122246506Y-108687877D01*
X122291355Y-108559706D01*
X122291356Y-108559702D01*
X122291356Y-108559701D01*
X122291357Y-108559699D01*
X122294211Y-108529266D01*
X122294211Y-107800734D01*
X122291357Y-107770301D01*
X122291356Y-107770297D01*
X122291355Y-107770293D01*
X122246506Y-107642122D01*
X122246504Y-107642120D01*
X122246504Y-107642118D01*
X122165861Y-107532850D01*
X122056593Y-107452207D01*
X122056591Y-107452206D01*
X122056588Y-107452204D01*
X121928417Y-107407355D01*
X121928413Y-107407354D01*
X121905585Y-107405213D01*
X121897977Y-107404500D01*
X119849445Y-107404500D01*
X119819008Y-107407354D01*
X119819004Y-107407355D01*
X119690833Y-107452204D01*
X119581561Y-107532850D01*
X119500915Y-107642122D01*
X119456066Y-107770293D01*
X119456065Y-107770297D01*
X119453211Y-107800734D01*
X119453211Y-108529265D01*
X119456065Y-108559702D01*
X119456066Y-108559706D01*
X119500915Y-108687877D01*
X119500917Y-108687880D01*
X119500918Y-108687882D01*
X119581561Y-108797150D01*
X119619360Y-108825047D01*
X119623981Y-108832716D01*
X119621826Y-108841408D01*
X119614156Y-108846029D01*
X119612412Y-108846160D01*
X114833004Y-108846160D01*
X114824731Y-108842733D01*
X113931804Y-107949806D01*
X113931803Y-107949805D01*
X113931801Y-107949804D01*
X113838508Y-107911160D01*
X113838506Y-107911160D01*
X113695911Y-107911160D01*
X113687638Y-107907733D01*
X113684211Y-107899460D01*
X113684211Y-107800744D01*
X113684211Y-107800734D01*
X113681357Y-107770301D01*
X113681356Y-107770297D01*
X113681355Y-107770293D01*
X113636506Y-107642122D01*
X113636504Y-107642120D01*
X113636504Y-107642118D01*
X113555861Y-107532850D01*
X113446593Y-107452207D01*
X113446591Y-107452206D01*
X113446588Y-107452204D01*
X113318417Y-107407355D01*
X113318413Y-107407354D01*
X113295585Y-107405213D01*
X113287977Y-107404500D01*
X113287976Y-107404500D01*
X113257974Y-107404500D01*
X113249701Y-107401073D01*
X113246274Y-107392800D01*
X113249701Y-107384527D01*
X113456992Y-107177236D01*
X113456994Y-107177233D01*
X116574963Y-104059264D01*
X116583236Y-104055837D01*
X122269140Y-104055837D01*
X122269142Y-104055837D01*
X122348975Y-104022769D01*
X122357928Y-104022769D01*
X122364260Y-104029101D01*
G37*
%TD.AperFunction*%
%TA.AperFunction,Conductor*%
G36*
X109188430Y-104093578D02*
G01*
X109191458Y-104098823D01*
X109206680Y-104155636D01*
X109206682Y-104155640D01*
X109249532Y-104229858D01*
X109249534Y-104229861D01*
X109249535Y-104229862D01*
X109310138Y-104290465D01*
X109310139Y-104290466D01*
X109310141Y-104290467D01*
X109375893Y-104328429D01*
X109378316Y-104330288D01*
X109635466Y-104587438D01*
X109638893Y-104595711D01*
X109635466Y-104603984D01*
X109632505Y-104606136D01*
X109591657Y-104626950D01*
X109501950Y-104716657D01*
X109444353Y-104829697D01*
X109429500Y-104923480D01*
X109429500Y-105536518D01*
X109444353Y-105630302D01*
X109444353Y-105630303D01*
X109444354Y-105630304D01*
X109501950Y-105743342D01*
X109591658Y-105833050D01*
X109704696Y-105890646D01*
X109798481Y-105905500D01*
X110261518Y-105905499D01*
X110355304Y-105890646D01*
X110468342Y-105833050D01*
X110517430Y-105783961D01*
X110525701Y-105780535D01*
X110533974Y-105783962D01*
X110535833Y-105786385D01*
X110553466Y-105816926D01*
X110553468Y-105816929D01*
X110553469Y-105816930D01*
X110614072Y-105877533D01*
X110632971Y-105888444D01*
X110638422Y-105895548D01*
X110638821Y-105898576D01*
X110638821Y-107318993D01*
X110637454Y-107322292D01*
X110635394Y-107327265D01*
X110635393Y-107327266D01*
X110629501Y-107333157D01*
X110621228Y-107336583D01*
X110612955Y-107333155D01*
X110610807Y-107330199D01*
X110558050Y-107226658D01*
X110468342Y-107136950D01*
X110355304Y-107079354D01*
X110355303Y-107079353D01*
X110355302Y-107079353D01*
X110261519Y-107064500D01*
X109798481Y-107064500D01*
X109704697Y-107079353D01*
X109591657Y-107136950D01*
X109501950Y-107226657D01*
X109467829Y-107293619D01*
X109461019Y-107299434D01*
X109452092Y-107298732D01*
X109449131Y-107296580D01*
X108833131Y-106680580D01*
X108833130Y-106680579D01*
X108763478Y-106640366D01*
X108763477Y-106640365D01*
X108763474Y-106640364D01*
X108763476Y-106640364D01*
X108685794Y-106619550D01*
X108685792Y-106619550D01*
X108130325Y-106619550D01*
X108122052Y-106616123D01*
X108118625Y-106607850D01*
X108122052Y-106599577D01*
X108362599Y-106359030D01*
X108624421Y-106097208D01*
X108664634Y-106027556D01*
X108664748Y-106027133D01*
X108674894Y-105989265D01*
X108685450Y-105949870D01*
X108685450Y-105903783D01*
X108688877Y-105895510D01*
X108695320Y-105892227D01*
X108705304Y-105890646D01*
X108818342Y-105833050D01*
X108908050Y-105743342D01*
X108965646Y-105630304D01*
X108980500Y-105536519D01*
X108980499Y-104923482D01*
X108965646Y-104829696D01*
X108908050Y-104716658D01*
X108818342Y-104626950D01*
X108705304Y-104569354D01*
X108705303Y-104569353D01*
X108705302Y-104569353D01*
X108611519Y-104554500D01*
X108148481Y-104554500D01*
X108113539Y-104560034D01*
X108104832Y-104557943D01*
X108100153Y-104550308D01*
X108102244Y-104541601D01*
X108103430Y-104540211D01*
X108326256Y-104317386D01*
X108334529Y-104313959D01*
X108897387Y-104313959D01*
X108897389Y-104313959D01*
X108989771Y-104275693D01*
X109171885Y-104093577D01*
X109180157Y-104090151D01*
X109188430Y-104093578D01*
G37*
%TD.AperFunction*%
%TA.AperFunction,Conductor*%
G36*
X111157084Y-106364475D02*
G01*
X111209007Y-106382644D01*
X111209008Y-106382645D01*
X111209009Y-106382645D01*
X111209012Y-106382646D01*
X111239445Y-106385500D01*
X111998171Y-106385500D01*
X112006444Y-106388927D01*
X112009871Y-106397200D01*
X112009871Y-106924956D01*
X112006444Y-106933229D01*
X111999536Y-106940136D01*
X111999532Y-106940141D01*
X111956682Y-107014359D01*
X111956680Y-107014363D01*
X111934500Y-107097144D01*
X111934500Y-107182853D01*
X111935469Y-107186469D01*
X111934301Y-107195347D01*
X111927197Y-107200799D01*
X111924168Y-107201198D01*
X111153223Y-107201198D01*
X111144950Y-107197771D01*
X111141523Y-107189498D01*
X111141523Y-106375519D01*
X111144950Y-106367246D01*
X111153223Y-106363819D01*
X111157084Y-106364475D01*
G37*
%TD.AperFunction*%
%TA.AperFunction,Conductor*%
G36*
X119473059Y-102621682D02*
G01*
X119476486Y-102629955D01*
X119475829Y-102633819D01*
X119456066Y-102690293D01*
X119456065Y-102690297D01*
X119453211Y-102720734D01*
X119453211Y-103449265D01*
X119456065Y-103479702D01*
X119456066Y-103479706D01*
X119476315Y-103537571D01*
X119475813Y-103546511D01*
X119469136Y-103552478D01*
X119465272Y-103553135D01*
X116424277Y-103553135D01*
X116331899Y-103591400D01*
X116331897Y-103591401D01*
X113029179Y-106894121D01*
X113029178Y-106894122D01*
X112725528Y-107197771D01*
X112717255Y-107201198D01*
X112595832Y-107201198D01*
X112587559Y-107197771D01*
X112584132Y-107189498D01*
X112584531Y-107186469D01*
X112585500Y-107182853D01*
X112585500Y-107097146D01*
X112585499Y-107097144D01*
X112582518Y-107086020D01*
X112576753Y-107064501D01*
X112563319Y-107014363D01*
X112563317Y-107014359D01*
X112520467Y-106940141D01*
X112519998Y-106939530D01*
X112520389Y-106939229D01*
X112517551Y-106932378D01*
X112517551Y-106397200D01*
X112520978Y-106388927D01*
X112529251Y-106385500D01*
X113287967Y-106385500D01*
X113287977Y-106385500D01*
X113318410Y-106382646D01*
X113318413Y-106382645D01*
X113318417Y-106382644D01*
X113446588Y-106337795D01*
X113446588Y-106337794D01*
X113446593Y-106337793D01*
X113555861Y-106257150D01*
X113636504Y-106147882D01*
X113637507Y-106145015D01*
X113681355Y-106019706D01*
X113681356Y-106019702D01*
X113681356Y-106019701D01*
X113681357Y-106019699D01*
X113684211Y-105989266D01*
X113684211Y-105260734D01*
X113681357Y-105230301D01*
X113681356Y-105230297D01*
X113681355Y-105230293D01*
X113636506Y-105102122D01*
X113636504Y-105102120D01*
X113636504Y-105102118D01*
X113555861Y-104992850D01*
X113446593Y-104912207D01*
X113446591Y-104912206D01*
X113446588Y-104912204D01*
X113318417Y-104867355D01*
X113318413Y-104867354D01*
X113295585Y-104865213D01*
X113287977Y-104864500D01*
X113287976Y-104864500D01*
X111375811Y-104864500D01*
X111367538Y-104861073D01*
X111364111Y-104852800D01*
X111367538Y-104844527D01*
X111599245Y-104612820D01*
X111607518Y-104609393D01*
X114605130Y-104609393D01*
X114605130Y-104609392D01*
X114667637Y-104592644D01*
X114682812Y-104588578D01*
X114682812Y-104588577D01*
X114682815Y-104588577D01*
X114752467Y-104548364D01*
X116679148Y-102621681D01*
X116687421Y-102618255D01*
X119464786Y-102618255D01*
X119473059Y-102621682D01*
G37*
%TD.AperFunction*%
%TA.AperFunction,Conductor*%
G36*
X126220357Y-103192218D02*
G01*
X126611271Y-103583131D01*
X126611292Y-103583154D01*
X126666500Y-103638361D01*
X126668560Y-103640421D01*
X126668561Y-103640422D01*
X126668563Y-103640423D01*
X126698348Y-103657620D01*
X126698352Y-103657621D01*
X126738208Y-103680633D01*
X126738212Y-103680635D01*
X126799478Y-103697050D01*
X126815895Y-103701449D01*
X126815897Y-103701450D01*
X126815898Y-103701450D01*
X126896324Y-103701450D01*
X127652783Y-103701450D01*
X128024601Y-103701450D01*
X128032874Y-103704877D01*
X128035110Y-103708008D01*
X128044238Y-103726680D01*
X128057052Y-103752892D01*
X128139765Y-103835605D01*
X128139766Y-103835605D01*
X128139767Y-103835606D01*
X128185055Y-103857746D01*
X128242640Y-103885897D01*
X128248567Y-103892609D01*
X128248012Y-103901547D01*
X128242640Y-103906918D01*
X128226453Y-103914831D01*
X128139765Y-103957210D01*
X128139764Y-103957212D01*
X128057054Y-104039922D01*
X128057052Y-104039923D01*
X128045373Y-104063814D01*
X128038661Y-104069741D01*
X128034862Y-104070375D01*
X127977128Y-104070375D01*
X127894315Y-104092564D01*
X127820059Y-104135436D01*
X127759436Y-104196059D01*
X127716564Y-104270315D01*
X127694375Y-104353128D01*
X127694375Y-104438871D01*
X127716564Y-104521684D01*
X127727257Y-104540205D01*
X127759435Y-104595939D01*
X127820061Y-104656565D01*
X127894313Y-104699434D01*
X127894315Y-104699434D01*
X127894316Y-104699435D01*
X127894314Y-104699435D01*
X127958590Y-104716657D01*
X127977128Y-104721624D01*
X127977130Y-104721625D01*
X127977131Y-104721625D01*
X128034464Y-104721625D01*
X128042737Y-104725052D01*
X128044975Y-104728187D01*
X128057051Y-104752890D01*
X128057054Y-104752894D01*
X128139765Y-104835605D01*
X128139766Y-104835605D01*
X128139767Y-104835606D01*
X128198124Y-104864135D01*
X128242640Y-104885897D01*
X128248567Y-104892609D01*
X128248012Y-104901547D01*
X128242640Y-104906919D01*
X128139765Y-104957210D01*
X128139764Y-104957212D01*
X128057054Y-105039922D01*
X128057052Y-105039923D01*
X128005676Y-105145016D01*
X127995750Y-105213145D01*
X127995750Y-105579670D01*
X128005676Y-105647799D01*
X128057052Y-105752892D01*
X128139765Y-105835605D01*
X128139766Y-105835605D01*
X128139767Y-105835606D01*
X128190805Y-105860557D01*
X128242640Y-105885897D01*
X128248567Y-105892609D01*
X128248012Y-105901547D01*
X128242640Y-105906919D01*
X128139765Y-105957210D01*
X128139764Y-105957212D01*
X128057054Y-106039922D01*
X128057052Y-106039923D01*
X128009063Y-106138088D01*
X128002351Y-106144015D01*
X127998552Y-106144649D01*
X127954587Y-106144649D01*
X127867848Y-106180578D01*
X127867848Y-106180579D01*
X127862208Y-106182914D01*
X127711282Y-106333841D01*
X127711280Y-106333843D01*
X127673015Y-106426221D01*
X127673015Y-106702180D01*
X127669588Y-106710453D01*
X127230728Y-107149313D01*
X127222455Y-107152740D01*
X125264550Y-107152740D01*
X125256277Y-107149313D01*
X124833505Y-106726541D01*
X124833504Y-106726540D01*
X124794668Y-106710453D01*
X124774173Y-106701963D01*
X124767842Y-106695631D01*
X124767842Y-106686676D01*
X124768127Y-106686043D01*
X124786823Y-106647801D01*
X124796750Y-106579668D01*
X124796750Y-106213148D01*
X124786823Y-106145015D01*
X124735448Y-106039925D01*
X124735447Y-106039924D01*
X124735447Y-106039923D01*
X124652734Y-105957210D01*
X124609389Y-105936020D01*
X124549857Y-105906917D01*
X124543932Y-105900207D01*
X124544487Y-105891269D01*
X124549860Y-105885897D01*
X124647191Y-105838316D01*
X124652329Y-105837127D01*
X124716945Y-105837127D01*
X124758118Y-105826094D01*
X124829432Y-105806987D01*
X124829432Y-105806986D01*
X124829435Y-105806986D01*
X124930293Y-105748756D01*
X125207365Y-105471683D01*
X125209778Y-105469830D01*
X125257774Y-105442121D01*
X125342868Y-105357027D01*
X125398458Y-105260744D01*
X125403038Y-105252811D01*
X125403040Y-105252807D01*
X125431921Y-105145016D01*
X125434185Y-105136568D01*
X125434185Y-105016228D01*
X125418372Y-104957210D01*
X125403040Y-104899988D01*
X125403038Y-104899984D01*
X125342870Y-104795772D01*
X125342866Y-104795767D01*
X125257775Y-104710676D01*
X125257770Y-104710672D01*
X125153558Y-104650504D01*
X125153554Y-104650502D01*
X125037317Y-104619358D01*
X125037315Y-104619358D01*
X124916975Y-104619358D01*
X124916972Y-104619358D01*
X124803016Y-104649891D01*
X124794138Y-104648722D01*
X124788687Y-104641618D01*
X124788410Y-104636907D01*
X124796750Y-104579668D01*
X124796750Y-104213148D01*
X124786823Y-104145015D01*
X124735448Y-104039925D01*
X124735447Y-104039924D01*
X124735447Y-104039923D01*
X124652734Y-103957210D01*
X124588155Y-103925640D01*
X124549857Y-103906917D01*
X124543932Y-103900207D01*
X124544487Y-103891269D01*
X124549857Y-103885898D01*
X124652733Y-103835606D01*
X124652734Y-103835605D01*
X124652736Y-103835604D01*
X124735446Y-103752894D01*
X124735447Y-103752892D01*
X124735448Y-103752891D01*
X124786823Y-103647801D01*
X124796750Y-103579668D01*
X124796750Y-103213148D01*
X124795152Y-103202178D01*
X124797351Y-103193497D01*
X124805043Y-103188913D01*
X124806730Y-103188791D01*
X126212084Y-103188791D01*
X126220357Y-103192218D01*
G37*
%TD.AperFunction*%
%TD*%
M02*
