%TF.GenerationSoftware,KiCad,Pcbnew,10.0.1*%
%TF.CreationDate,2026-06-13T11:22:50+02:00*%
%TF.ProjectId,USB-PD-CH224K,5553422d-5044-42d4-9348-3232344b2e6b,rev?*%
%TF.SameCoordinates,Original*%
%TF.FileFunction,Copper,L2,Bot*%
%TF.FilePolarity,Positive*%
%FSLAX46Y46*%
G04 Gerber Fmt 4.6, Leading zero omitted, Abs format (unit mm)*
G04 Created by KiCad (PCBNEW 10.0.1) date 2026-06-13 11:22:50*
%MOMM*%
%LPD*%
G01*
G04 APERTURE LIST*
%TA.AperFunction,ComponentPad*%
%ADD10O,2.100000X1.000000*%
%TD*%
%TA.AperFunction,ComponentPad*%
%ADD11O,1.600000X1.000000*%
%TD*%
%TA.AperFunction,SMDPad,CuDef*%
%ADD12R,1.000000X1.000000*%
%TD*%
%TA.AperFunction,ViaPad*%
%ADD13C,0.250250*%
%TD*%
%TA.AperFunction,ViaPad*%
%ADD14C,0.250000*%
%TD*%
%TA.AperFunction,ViaPad*%
%ADD15C,0.513080*%
%TD*%
%TA.AperFunction,Conductor*%
%ADD16C,0.101702*%
%TD*%
%TA.AperFunction,Conductor*%
%ADD17C,0.513080*%
%TD*%
%TA.AperFunction,Conductor*%
%ADD18C,0.209900*%
%TD*%
%TA.AperFunction,Conductor*%
%ADD19C,0.106680*%
%TD*%
%TA.AperFunction,Conductor*%
%ADD20C,0.101600*%
%TD*%
G04 APERTURE END LIST*
D10*
%TO.P,J1,SH,SHIELD_SH*%
%TO.N,GND*%
X105570000Y-101855000D03*
D11*
X101390000Y-101855000D03*
D10*
X105570000Y-110495000D03*
D11*
X101390000Y-110495000D03*
%TD*%
D12*
%TO.P,TP3,1,1_1*%
%TO.N,+3V3*%
X132052355Y-111428043D03*
%TD*%
%TO.P,TP2,1,1_1*%
%TO.N,GND*%
X132027355Y-106328043D03*
%TD*%
%TO.P,TP1,1,1_1*%
%TO.N,VBUS*%
X132052355Y-101128043D03*
%TD*%
D13*
%TO.N,GND*%
X123393118Y-110703924D03*
X106430800Y-111290714D03*
X123181174Y-100553303D03*
X100653303Y-100553303D03*
X113180127Y-110556423D03*
X117037209Y-100553303D03*
X100653303Y-111228857D03*
X119085197Y-100553303D03*
X121768181Y-104209048D03*
X120729967Y-106538711D03*
X100653303Y-102588857D03*
X126527519Y-111417259D03*
X129408132Y-111172293D03*
X115415770Y-102804444D03*
X111132139Y-110556423D03*
X104749279Y-100553303D03*
X128711094Y-108606218D03*
X113779320Y-108731963D03*
X121133185Y-100553303D03*
X124939731Y-104150562D03*
X132480000Y-110180000D03*
X116805762Y-106140768D03*
X127809597Y-106041774D03*
X114757773Y-106140768D03*
X108645579Y-106520438D03*
X110690000Y-102895357D03*
X118853750Y-106140768D03*
X130682174Y-103561941D03*
X108192565Y-103659668D03*
X105467504Y-108220933D03*
X117276104Y-110556423D03*
X104500542Y-102873159D03*
X125229162Y-100553303D03*
X110893244Y-100553303D03*
X100985438Y-108492245D03*
X104446079Y-111128409D03*
X109091388Y-110504293D03*
X106797268Y-100553303D03*
X122882296Y-108692949D03*
X102701291Y-100553303D03*
X105084609Y-105845810D03*
X119720193Y-104209048D03*
X117672204Y-104209048D03*
X124841050Y-108446502D03*
X115228115Y-110556423D03*
X131714901Y-105173023D03*
X131229602Y-100553303D03*
X110612596Y-105905470D03*
X119324092Y-110556423D03*
X100985438Y-106444257D03*
X121355567Y-110645941D03*
D14*
X115250000Y-104375000D03*
D13*
X132210345Y-105594649D03*
X108845256Y-100553303D03*
D14*
X125400000Y-103375000D03*
D13*
X127277150Y-100553303D03*
X112941232Y-100553303D03*
X114989221Y-100553303D03*
%TO.N,Net-(U1-CFG2)*%
X122379878Y-104985612D03*
X124834500Y-102439124D03*
D15*
%TO.N,VBUS*%
X108635590Y-109247586D03*
X131591577Y-103704234D03*
X130586669Y-107518707D03*
X128221176Y-110047948D03*
X107582313Y-103446721D03*
D13*
%TO.N,Net-(U1-CFG3)*%
X122350824Y-102979858D03*
X129623548Y-102112292D03*
X127966180Y-105344791D03*
%TO.N,Net-(U1-DP)*%
X127834191Y-104529447D03*
X113099538Y-106716818D03*
%TO.N,Net-(J1-CC1)*%
X122574870Y-104289210D03*
X109457618Y-104062608D03*
D15*
%TO.N,Net-(U1-VBUS)*%
X124977145Y-105076398D03*
X127662802Y-102816056D03*
D13*
%TO.N,Net-(U1-CFG1)*%
X122665032Y-106275388D03*
X126272487Y-102410813D03*
X122690861Y-105316975D03*
X122310676Y-107523862D03*
%TO.N,+3V3*%
X112399338Y-106416266D03*
X112653423Y-103900615D03*
D14*
X124660000Y-109100000D03*
D13*
X113055940Y-107353624D03*
D14*
X124730000Y-111355000D03*
X124660000Y-109100000D03*
X131440000Y-110010000D03*
D13*
X112667796Y-104651542D03*
%TO.N,Net-(J1-D+-PadA6)*%
X109378709Y-107745971D03*
X108754212Y-107033633D03*
%TD*%
%TO.N,Net-(U1-CFG2)*%
D16*
X122379878Y-104893747D02*
X124834500Y-102439124D01*
X122379878Y-104985612D02*
X122379878Y-104893747D01*
%TO.N,VBUS*%
D17*
X132052500Y-101128000D02*
X132052500Y-101628000D01*
X128221176Y-110047948D02*
X130586669Y-107682455D01*
X108635590Y-109247586D02*
X107582313Y-108194309D01*
X132052500Y-101628000D02*
X132052500Y-102737143D01*
X132052500Y-102737143D02*
X132052500Y-103243311D01*
X132052500Y-103243311D02*
X131591577Y-103704234D01*
X130586669Y-107682455D02*
X130586669Y-107518707D01*
X107582313Y-108194309D02*
X107582313Y-103446721D01*
%TO.N,Net-(U1-CFG3)*%
D16*
X128345908Y-104965063D02*
X127966180Y-105344791D01*
X123202880Y-102127803D02*
X127737805Y-102127803D01*
X128345908Y-102735906D02*
X128969522Y-102112292D01*
X127737805Y-102127803D02*
X128345908Y-102735906D01*
X128969522Y-102112292D02*
X129623548Y-102112292D01*
X122350824Y-102979858D02*
X123202880Y-102127803D01*
X128345908Y-102735906D02*
X128345908Y-104965063D01*
%TO.N,Net-(U1-DP)*%
D18*
X113099538Y-106716818D02*
X114134250Y-105682106D01*
X114134250Y-105682106D02*
X126681531Y-105682106D01*
X126681531Y-105682106D02*
X127834191Y-104529447D01*
%TO.N,Net-(J1-CC1)*%
D16*
X121901713Y-103616053D02*
X122574870Y-104289210D01*
X109457618Y-104062608D02*
X109904174Y-103616053D01*
X109904174Y-103616053D02*
X121901713Y-103616053D01*
%TO.N,Net-(U1-VBUS)*%
D17*
X127662802Y-102816056D02*
X125402461Y-105076398D01*
X125402461Y-105076398D02*
X124977145Y-105076398D01*
%TO.N,Net-(U1-CFG1)*%
D16*
X122690861Y-105316975D02*
X124261836Y-103746000D01*
X122310676Y-107523862D02*
X122665032Y-107169506D01*
X124261836Y-103746000D02*
X125798350Y-103746000D01*
X125798350Y-103746000D02*
X126272487Y-103271863D01*
X122665032Y-107169506D02*
X122665032Y-106275388D01*
X126272487Y-103271863D02*
X126272487Y-102410813D01*
%TO.N,+3V3*%
D19*
X131438783Y-110011769D02*
X131438783Y-110011217D01*
D20*
X124730000Y-111355000D02*
X124730000Y-109170000D01*
X124730000Y-109170000D02*
X124660000Y-109100000D01*
D19*
X132052500Y-110625486D02*
X131438783Y-110011769D01*
X131438783Y-110011217D02*
X131440000Y-110010000D01*
X112653423Y-104637169D02*
X112653423Y-103900615D01*
X112667796Y-104651542D02*
X112653423Y-104637169D01*
D20*
X124630000Y-109130000D02*
X124660000Y-109100000D01*
D19*
X132052500Y-111428000D02*
X132052500Y-110625486D01*
X113055940Y-107353624D02*
X112399338Y-106697022D01*
X112399338Y-106697022D02*
X112399338Y-106416266D01*
%TO.N,Net-(J1-D+-PadA6)*%
D16*
X108754212Y-107033633D02*
X109378709Y-107658130D01*
X109378709Y-107658130D02*
X109378709Y-107745971D01*
%TD*%
%TA.AperFunction,Conductor*%
%TO.N,GND*%
G36*
X126071176Y-102284181D02*
G01*
X126074603Y-102292454D01*
X126073712Y-102296930D01*
X126070401Y-102304923D01*
X126045262Y-102365612D01*
X126045262Y-102456013D01*
X126079854Y-102539524D01*
X126079856Y-102539527D01*
X126116109Y-102575780D01*
X126119536Y-102584053D01*
X126119536Y-103203662D01*
X126116109Y-103211935D01*
X125738422Y-103589622D01*
X125730149Y-103593049D01*
X124231411Y-103593049D01*
X124223179Y-103596459D01*
X124214947Y-103599869D01*
X124175197Y-103616333D01*
X122705207Y-105086323D01*
X122696934Y-105089750D01*
X122645660Y-105089750D01*
X122595742Y-105110427D01*
X122586787Y-105110427D01*
X122580456Y-105104095D01*
X122580456Y-105095141D01*
X122607103Y-105030810D01*
X122607103Y-104940415D01*
X122607103Y-104940414D01*
X122593227Y-104906914D01*
X122593227Y-104897962D01*
X122595760Y-104894169D01*
X124820153Y-102669775D01*
X124828426Y-102666349D01*
X124879696Y-102666349D01*
X124879698Y-102666349D01*
X124963213Y-102631756D01*
X125027132Y-102567837D01*
X125061725Y-102484322D01*
X125061725Y-102393926D01*
X125027132Y-102310411D01*
X125017448Y-102300727D01*
X125014021Y-102292454D01*
X125017448Y-102284181D01*
X125025721Y-102280754D01*
X126062903Y-102280754D01*
X126071176Y-102284181D01*
G37*
%TD.AperFunction*%
%TA.AperFunction,Conductor*%
G36*
X132814692Y-100310309D02*
G01*
X132818119Y-100318582D01*
X132818119Y-112131419D01*
X132814692Y-112139692D01*
X132806419Y-112143119D01*
X100418582Y-112143119D01*
X100410309Y-112139692D01*
X100406882Y-112131419D01*
X100406882Y-110425827D01*
X100564600Y-110425827D01*
X100564600Y-110444200D01*
X100793029Y-110444200D01*
X100790000Y-110455504D01*
X100790000Y-110534496D01*
X100793029Y-110545800D01*
X100564600Y-110545800D01*
X100564600Y-110564172D01*
X100600403Y-110697795D01*
X100600405Y-110697799D01*
X100669572Y-110817599D01*
X100669576Y-110817604D01*
X100767395Y-110915423D01*
X100767400Y-110915427D01*
X100887200Y-110984594D01*
X100887204Y-110984596D01*
X101020827Y-111020399D01*
X101020829Y-111020400D01*
X101339200Y-111020400D01*
X101339200Y-110795000D01*
X101440800Y-110795000D01*
X101440800Y-111020400D01*
X101759171Y-111020400D01*
X101759172Y-111020399D01*
X101892795Y-110984596D01*
X101892799Y-110984594D01*
X102012599Y-110915427D01*
X102012604Y-110915423D01*
X102110423Y-110817604D01*
X102110427Y-110817599D01*
X102179594Y-110697799D01*
X102179596Y-110697795D01*
X102215399Y-110564172D01*
X102215400Y-110564171D01*
X102215400Y-110545800D01*
X101986971Y-110545800D01*
X101990000Y-110534496D01*
X101990000Y-110455504D01*
X101986971Y-110444200D01*
X102215400Y-110444200D01*
X102215400Y-110425829D01*
X102215399Y-110425827D01*
X104494600Y-110425827D01*
X104494600Y-110444200D01*
X104723029Y-110444200D01*
X104720000Y-110455504D01*
X104720000Y-110534496D01*
X104723029Y-110545800D01*
X104494600Y-110545800D01*
X104494600Y-110564172D01*
X104530403Y-110697795D01*
X104530405Y-110697799D01*
X104599572Y-110817599D01*
X104599576Y-110817604D01*
X104697395Y-110915423D01*
X104697400Y-110915427D01*
X104817200Y-110984594D01*
X104817204Y-110984596D01*
X104950827Y-111020399D01*
X104950829Y-111020400D01*
X105519200Y-111020400D01*
X105519200Y-110795000D01*
X105620800Y-110795000D01*
X105620800Y-111020400D01*
X106189171Y-111020400D01*
X106189172Y-111020399D01*
X106322795Y-110984596D01*
X106322799Y-110984594D01*
X106442599Y-110915427D01*
X106442604Y-110915423D01*
X106540423Y-110817604D01*
X106540427Y-110817599D01*
X106609594Y-110697799D01*
X106609596Y-110697795D01*
X106645399Y-110564172D01*
X106645400Y-110564171D01*
X106645400Y-110545800D01*
X106416971Y-110545800D01*
X106420000Y-110534496D01*
X106420000Y-110455504D01*
X106416971Y-110444200D01*
X106645400Y-110444200D01*
X106645400Y-110425829D01*
X106645399Y-110425827D01*
X106609596Y-110292204D01*
X106609594Y-110292200D01*
X106540427Y-110172400D01*
X106540423Y-110172395D01*
X106442604Y-110074576D01*
X106442599Y-110074572D01*
X106322799Y-110005405D01*
X106322795Y-110005403D01*
X106189172Y-109969600D01*
X105620800Y-109969600D01*
X105620800Y-110195000D01*
X105519200Y-110195000D01*
X105519200Y-109969600D01*
X104950827Y-109969600D01*
X104817204Y-110005403D01*
X104817200Y-110005405D01*
X104697400Y-110074572D01*
X104697395Y-110074576D01*
X104599576Y-110172395D01*
X104599572Y-110172400D01*
X104530405Y-110292200D01*
X104530403Y-110292204D01*
X104494600Y-110425827D01*
X102215399Y-110425827D01*
X102179596Y-110292204D01*
X102179594Y-110292200D01*
X102110427Y-110172400D01*
X102110423Y-110172395D01*
X102012604Y-110074576D01*
X102012599Y-110074572D01*
X101892799Y-110005405D01*
X101892795Y-110005403D01*
X101759172Y-109969600D01*
X101440800Y-109969600D01*
X101440800Y-110195000D01*
X101339200Y-110195000D01*
X101339200Y-109969600D01*
X101020827Y-109969600D01*
X100887204Y-110005403D01*
X100887200Y-110005405D01*
X100767400Y-110074572D01*
X100767395Y-110074576D01*
X100669576Y-110172395D01*
X100669572Y-110172400D01*
X100600405Y-110292200D01*
X100600403Y-110292204D01*
X100564600Y-110425827D01*
X100406882Y-110425827D01*
X100406882Y-109008768D01*
X104612900Y-109008768D01*
X104612900Y-109121231D01*
X104642005Y-109229851D01*
X104642007Y-109229854D01*
X104698235Y-109327245D01*
X104777755Y-109406765D01*
X104875146Y-109462993D01*
X104875148Y-109462993D01*
X104875149Y-109462994D01*
X104875147Y-109462994D01*
X104960816Y-109485949D01*
X104983768Y-109492099D01*
X104983769Y-109492100D01*
X104983771Y-109492100D01*
X105096231Y-109492100D01*
X105096231Y-109492099D01*
X105186945Y-109467792D01*
X105204851Y-109462994D01*
X105204851Y-109462993D01*
X105204854Y-109462993D01*
X105302245Y-109406765D01*
X105381765Y-109327245D01*
X105437993Y-109229854D01*
X105438318Y-109228643D01*
X105446640Y-109197583D01*
X105467099Y-109121231D01*
X105467100Y-109121231D01*
X105467100Y-109008768D01*
X105437994Y-108900148D01*
X105437993Y-108900146D01*
X105381765Y-108802755D01*
X105302245Y-108723235D01*
X105204854Y-108667007D01*
X105204853Y-108667006D01*
X105204850Y-108667005D01*
X105204852Y-108667005D01*
X105096232Y-108637900D01*
X105096229Y-108637900D01*
X104983771Y-108637900D01*
X104983768Y-108637900D01*
X104875148Y-108667005D01*
X104777753Y-108723236D01*
X104698236Y-108802753D01*
X104642005Y-108900148D01*
X104612900Y-109008768D01*
X100406882Y-109008768D01*
X100406882Y-103228768D01*
X104612900Y-103228768D01*
X104612900Y-103341231D01*
X104642005Y-103449851D01*
X104649898Y-103463522D01*
X104698235Y-103547245D01*
X104777755Y-103626765D01*
X104875146Y-103682993D01*
X104875148Y-103682993D01*
X104875149Y-103682994D01*
X104875147Y-103682994D01*
X104960816Y-103705949D01*
X104983768Y-103712099D01*
X104983769Y-103712100D01*
X104983771Y-103712100D01*
X105096231Y-103712100D01*
X105096231Y-103712099D01*
X105172583Y-103691640D01*
X105204851Y-103682994D01*
X105204851Y-103682993D01*
X105204854Y-103682993D01*
X105302245Y-103626765D01*
X105381765Y-103547245D01*
X105437993Y-103449854D01*
X105437994Y-103449851D01*
X105451486Y-103399502D01*
X107223673Y-103399502D01*
X107223673Y-108241527D01*
X107248111Y-108332737D01*
X107248113Y-108332741D01*
X107295326Y-108414515D01*
X107295328Y-108414518D01*
X107295329Y-108414519D01*
X108415380Y-109534570D01*
X108415381Y-109534571D01*
X108415383Y-109534572D01*
X108497157Y-109581785D01*
X108497161Y-109581787D01*
X108569096Y-109601061D01*
X108588371Y-109606226D01*
X108588373Y-109606227D01*
X108588374Y-109606227D01*
X108682808Y-109606227D01*
X108682808Y-109606226D01*
X108728414Y-109594006D01*
X108774019Y-109581787D01*
X108774023Y-109581785D01*
X108801280Y-109566047D01*
X108855800Y-109534570D01*
X108922574Y-109467796D01*
X108969790Y-109386017D01*
X108994231Y-109294803D01*
X108994231Y-109200370D01*
X108982158Y-109155312D01*
X108969791Y-109109157D01*
X108969789Y-109109153D01*
X108941136Y-109059525D01*
X108938422Y-109054824D01*
X124432900Y-109054824D01*
X124432900Y-109145175D01*
X124455762Y-109200367D01*
X124467474Y-109228642D01*
X124531358Y-109292526D01*
X124569879Y-109308481D01*
X124576209Y-109314811D01*
X124577100Y-109319289D01*
X124577100Y-111181886D01*
X124573673Y-111190159D01*
X124537473Y-111226359D01*
X124502900Y-111309824D01*
X124502900Y-111400175D01*
X124537473Y-111483640D01*
X124537474Y-111483642D01*
X124601358Y-111547526D01*
X124653992Y-111569327D01*
X124684824Y-111582099D01*
X124684825Y-111582099D01*
X124684827Y-111582100D01*
X124684829Y-111582100D01*
X124775171Y-111582100D01*
X124775173Y-111582100D01*
X124858642Y-111547526D01*
X124922526Y-111483642D01*
X124957100Y-111400173D01*
X124957100Y-111309827D01*
X124922526Y-111226358D01*
X124886327Y-111190159D01*
X124882900Y-111181886D01*
X124882900Y-110000729D01*
X127862536Y-110000729D01*
X127862536Y-110095166D01*
X127886974Y-110186376D01*
X127886976Y-110186380D01*
X127934189Y-110268154D01*
X127934191Y-110268157D01*
X127934192Y-110268158D01*
X128000966Y-110334932D01*
X128000967Y-110334933D01*
X128000969Y-110334934D01*
X128082743Y-110382147D01*
X128082747Y-110382149D01*
X128154680Y-110401422D01*
X128173957Y-110406587D01*
X128173959Y-110406588D01*
X128173960Y-110406588D01*
X128268393Y-110406588D01*
X128268393Y-110406587D01*
X128313999Y-110394368D01*
X128359604Y-110382149D01*
X128359608Y-110382147D01*
X128386866Y-110366409D01*
X128441386Y-110334932D01*
X128811494Y-109964824D01*
X131212900Y-109964824D01*
X131212900Y-110055175D01*
X131247473Y-110138640D01*
X131247474Y-110138642D01*
X131311358Y-110202526D01*
X131342545Y-110215444D01*
X131394824Y-110237099D01*
X131394825Y-110237099D01*
X131394827Y-110237100D01*
X131439442Y-110237100D01*
X131447715Y-110240527D01*
X131893633Y-110686445D01*
X131897060Y-110694718D01*
X131897060Y-110814243D01*
X131893633Y-110822516D01*
X131885360Y-110825943D01*
X131542301Y-110825943D01*
X131512518Y-110831867D01*
X131512512Y-110831869D01*
X131478745Y-110854432D01*
X131478744Y-110854433D01*
X131456179Y-110888205D01*
X131450255Y-110917988D01*
X131450255Y-111938096D01*
X131456179Y-111967879D01*
X131456181Y-111967885D01*
X131478744Y-112001652D01*
X131478745Y-112001653D01*
X131512518Y-112024219D01*
X131542300Y-112030143D01*
X132562409Y-112030142D01*
X132592192Y-112024219D01*
X132592195Y-112024216D01*
X132592197Y-112024216D01*
X132603603Y-112016594D01*
X132625965Y-112001653D01*
X132648531Y-111967880D01*
X132654455Y-111938098D01*
X132654454Y-110917989D01*
X132648531Y-110888206D01*
X132648529Y-110888203D01*
X132648528Y-110888200D01*
X132625965Y-110854433D01*
X132625964Y-110854432D01*
X132592192Y-110831867D01*
X132562410Y-110825943D01*
X132562409Y-110825943D01*
X132219640Y-110825943D01*
X132211367Y-110822516D01*
X132207940Y-110814243D01*
X132207940Y-110594568D01*
X132207940Y-110594567D01*
X132201008Y-110577834D01*
X132184276Y-110537436D01*
X131670527Y-110023687D01*
X131667100Y-110015414D01*
X131667100Y-109964828D01*
X131667099Y-109964824D01*
X131654327Y-109933992D01*
X131632526Y-109881358D01*
X131568642Y-109817474D01*
X131568640Y-109817473D01*
X131485175Y-109782900D01*
X131485173Y-109782900D01*
X131394827Y-109782900D01*
X131394824Y-109782900D01*
X131311359Y-109817473D01*
X131247473Y-109881359D01*
X131212900Y-109964824D01*
X128811494Y-109964824D01*
X130805915Y-107970400D01*
X130805920Y-107970397D01*
X130806877Y-107969439D01*
X130806879Y-107969439D01*
X130873653Y-107902665D01*
X130920869Y-107820885D01*
X130939571Y-107751087D01*
X130945309Y-107729672D01*
X130945309Y-107635239D01*
X130945309Y-107471491D01*
X130925839Y-107398824D01*
X130920870Y-107380278D01*
X130920868Y-107380274D01*
X130873655Y-107298500D01*
X130873651Y-107298495D01*
X130806880Y-107231724D01*
X130806875Y-107231720D01*
X130725101Y-107184507D01*
X130725097Y-107184505D01*
X130633887Y-107160067D01*
X130633885Y-107160067D01*
X130539453Y-107160067D01*
X130539450Y-107160067D01*
X130448240Y-107184505D01*
X130448236Y-107184507D01*
X130366462Y-107231720D01*
X130366457Y-107231724D01*
X130299686Y-107298495D01*
X130299682Y-107298500D01*
X130252469Y-107380274D01*
X130252467Y-107380278D01*
X130228029Y-107471488D01*
X130228029Y-107529055D01*
X130224602Y-107537328D01*
X127934193Y-109827736D01*
X127934189Y-109827741D01*
X127886976Y-109909515D01*
X127886974Y-109909519D01*
X127862536Y-110000729D01*
X124882900Y-110000729D01*
X124882900Y-109157639D01*
X124883791Y-109153161D01*
X124887100Y-109145173D01*
X124887100Y-109054827D01*
X124852526Y-108971358D01*
X124788642Y-108907474D01*
X124788640Y-108907473D01*
X124705175Y-108872900D01*
X124705173Y-108872900D01*
X124614827Y-108872900D01*
X124614824Y-108872900D01*
X124531359Y-108907473D01*
X124467473Y-108971359D01*
X124432900Y-109054824D01*
X108938422Y-109054824D01*
X108922576Y-109027379D01*
X108922572Y-109027374D01*
X107944380Y-108049182D01*
X107940953Y-108040909D01*
X107940953Y-106988432D01*
X108526987Y-106988432D01*
X108526987Y-107078833D01*
X108561579Y-107162344D01*
X108561580Y-107162346D01*
X108625499Y-107226265D01*
X108678162Y-107248078D01*
X108709011Y-107260857D01*
X108709012Y-107260857D01*
X108709014Y-107260858D01*
X108760285Y-107260858D01*
X108768558Y-107264285D01*
X109161642Y-107657369D01*
X109165069Y-107665642D01*
X109164179Y-107670119D01*
X109154703Y-107693000D01*
X109151486Y-107700770D01*
X109151484Y-107700774D01*
X109151484Y-107791171D01*
X109186076Y-107874682D01*
X109186077Y-107874684D01*
X109249996Y-107938603D01*
X109302659Y-107960416D01*
X109333508Y-107973195D01*
X109333509Y-107973195D01*
X109333511Y-107973196D01*
X109333513Y-107973196D01*
X109423905Y-107973196D01*
X109423907Y-107973196D01*
X109507422Y-107938603D01*
X109571341Y-107874684D01*
X109605934Y-107791169D01*
X109605934Y-107700773D01*
X109571341Y-107617258D01*
X109507422Y-107553339D01*
X109480212Y-107542068D01*
X109476417Y-107539532D01*
X108984864Y-107047979D01*
X108981437Y-107039706D01*
X108981437Y-106988436D01*
X108981436Y-106988432D01*
X108946844Y-106904921D01*
X108946843Y-106904919D01*
X108882926Y-106841002D01*
X108882925Y-106841001D01*
X108875569Y-106837954D01*
X108799412Y-106806408D01*
X108799410Y-106806408D01*
X108709014Y-106806408D01*
X108709011Y-106806408D01*
X108625500Y-106841000D01*
X108561579Y-106904921D01*
X108526987Y-106988432D01*
X107940953Y-106988432D01*
X107940953Y-106371065D01*
X112172113Y-106371065D01*
X112172113Y-106461466D01*
X112206705Y-106544977D01*
X112206707Y-106544980D01*
X112240471Y-106578744D01*
X112243898Y-106587017D01*
X112243898Y-106727942D01*
X112267561Y-106785070D01*
X112267562Y-106785072D01*
X112825288Y-107342797D01*
X112828715Y-107351070D01*
X112828715Y-107398824D01*
X112863307Y-107482335D01*
X112863308Y-107482337D01*
X112927227Y-107546256D01*
X112979890Y-107568069D01*
X113010739Y-107580848D01*
X113010740Y-107580848D01*
X113010742Y-107580849D01*
X113010744Y-107580849D01*
X113101136Y-107580849D01*
X113101138Y-107580849D01*
X113184653Y-107546256D01*
X113248572Y-107482337D01*
X113250095Y-107478661D01*
X122083451Y-107478661D01*
X122083451Y-107569062D01*
X122110863Y-107635239D01*
X122118044Y-107652575D01*
X122181963Y-107716494D01*
X122234626Y-107738307D01*
X122265475Y-107751086D01*
X122265476Y-107751086D01*
X122265478Y-107751087D01*
X122265480Y-107751087D01*
X122355872Y-107751087D01*
X122355874Y-107751087D01*
X122439389Y-107716494D01*
X122503308Y-107652575D01*
X122537901Y-107569060D01*
X122537901Y-107517789D01*
X122541328Y-107509516D01*
X122794697Y-107256147D01*
X122794698Y-107256146D01*
X122813763Y-107210117D01*
X122817983Y-107199930D01*
X122817983Y-106830542D01*
X131501955Y-106830542D01*
X131503428Y-106837954D01*
X131509041Y-106846355D01*
X131509042Y-106846356D01*
X131517443Y-106851969D01*
X131524856Y-106853443D01*
X131976555Y-106853443D01*
X132078155Y-106853443D01*
X132529854Y-106853443D01*
X132537266Y-106851969D01*
X132545667Y-106846356D01*
X132545668Y-106846355D01*
X132551281Y-106837954D01*
X132552755Y-106830542D01*
X132552755Y-106378843D01*
X132078155Y-106378843D01*
X132078155Y-106853443D01*
X131976555Y-106853443D01*
X131976555Y-106378843D01*
X131501955Y-106378843D01*
X131501955Y-106830542D01*
X122817983Y-106830542D01*
X122817983Y-106448628D01*
X122821410Y-106440355D01*
X122857663Y-106404102D01*
X122857664Y-106404101D01*
X122892257Y-106320586D01*
X122892257Y-106230190D01*
X122889541Y-106223634D01*
X122879477Y-106199338D01*
X122857664Y-106146675D01*
X122793745Y-106082756D01*
X122793743Y-106082755D01*
X122710232Y-106048163D01*
X122710230Y-106048163D01*
X122619834Y-106048163D01*
X122619831Y-106048163D01*
X122536320Y-106082755D01*
X122472399Y-106146676D01*
X122437807Y-106230187D01*
X122437807Y-106320588D01*
X122472399Y-106404099D01*
X122472401Y-106404102D01*
X122508654Y-106440355D01*
X122512081Y-106448628D01*
X122512081Y-107101305D01*
X122508654Y-107109578D01*
X122325022Y-107293210D01*
X122316749Y-107296637D01*
X122265475Y-107296637D01*
X122181964Y-107331229D01*
X122118043Y-107395150D01*
X122083451Y-107478661D01*
X113250095Y-107478661D01*
X113283165Y-107398822D01*
X113283165Y-107308426D01*
X113279051Y-107298495D01*
X113251394Y-107231724D01*
X113248572Y-107224911D01*
X113184653Y-107160992D01*
X113182420Y-107160067D01*
X113101140Y-107126399D01*
X113101138Y-107126399D01*
X113053386Y-107126399D01*
X113045113Y-107122972D01*
X112558205Y-106636063D01*
X112554778Y-106627790D01*
X112554778Y-106587017D01*
X112558205Y-106578744D01*
X112591969Y-106544980D01*
X112591970Y-106544979D01*
X112626563Y-106461464D01*
X112626563Y-106371068D01*
X112591970Y-106287553D01*
X112528051Y-106223634D01*
X112528049Y-106223633D01*
X112444538Y-106189041D01*
X112444536Y-106189041D01*
X112354140Y-106189041D01*
X112354137Y-106189041D01*
X112270626Y-106223633D01*
X112206705Y-106287554D01*
X112172113Y-106371065D01*
X107940953Y-106371065D01*
X107940953Y-104017407D01*
X109230393Y-104017407D01*
X109230393Y-104107808D01*
X109264985Y-104191319D01*
X109264986Y-104191321D01*
X109328905Y-104255240D01*
X109376282Y-104274864D01*
X109412417Y-104289832D01*
X109412418Y-104289832D01*
X109412420Y-104289833D01*
X109412422Y-104289833D01*
X109502814Y-104289833D01*
X109502816Y-104289833D01*
X109586331Y-104255240D01*
X109650250Y-104191321D01*
X109684843Y-104107806D01*
X109684843Y-104056535D01*
X109688270Y-104048262D01*
X109964102Y-103772431D01*
X109972375Y-103769004D01*
X112444482Y-103769004D01*
X112452755Y-103772431D01*
X112456182Y-103780704D01*
X112455291Y-103785181D01*
X112426198Y-103855414D01*
X112426198Y-103945815D01*
X112460790Y-104029326D01*
X112460792Y-104029329D01*
X112494556Y-104063093D01*
X112497983Y-104071366D01*
X112497983Y-104495164D01*
X112494556Y-104503437D01*
X112475163Y-104522830D01*
X112440571Y-104606341D01*
X112440571Y-104696742D01*
X112475163Y-104780253D01*
X112475164Y-104780255D01*
X112539083Y-104844174D01*
X112591746Y-104865987D01*
X112622595Y-104878766D01*
X112622596Y-104878766D01*
X112622598Y-104878767D01*
X112622600Y-104878767D01*
X112712992Y-104878767D01*
X112712994Y-104878767D01*
X112796509Y-104844174D01*
X112860428Y-104780255D01*
X112895021Y-104696740D01*
X112895021Y-104606344D01*
X112860428Y-104522829D01*
X112812290Y-104474691D01*
X112808863Y-104466418D01*
X112808863Y-104071366D01*
X112812290Y-104063093D01*
X112846054Y-104029329D01*
X112846055Y-104029328D01*
X112880648Y-103945813D01*
X112880648Y-103855417D01*
X112875366Y-103842666D01*
X112851555Y-103785181D01*
X112851555Y-103776227D01*
X112857887Y-103769895D01*
X112862364Y-103769004D01*
X121833512Y-103769004D01*
X121841785Y-103772431D01*
X122344218Y-104274864D01*
X122347645Y-104283137D01*
X122347645Y-104334410D01*
X122382237Y-104417921D01*
X122382238Y-104417923D01*
X122446157Y-104481842D01*
X122492578Y-104501070D01*
X122521422Y-104513018D01*
X122527754Y-104519350D01*
X122527754Y-104528304D01*
X122525218Y-104532100D01*
X122275299Y-104782018D01*
X122271504Y-104784554D01*
X122251165Y-104792979D01*
X122251164Y-104792981D01*
X122187245Y-104856900D01*
X122152653Y-104940411D01*
X122152653Y-105030810D01*
X122183008Y-105104095D01*
X122187246Y-105114325D01*
X122251165Y-105178244D01*
X122300041Y-105198489D01*
X122334677Y-105212836D01*
X122334678Y-105212836D01*
X122334680Y-105212837D01*
X122334682Y-105212837D01*
X122425074Y-105212837D01*
X122425076Y-105212837D01*
X122474999Y-105192158D01*
X122483951Y-105192158D01*
X122490283Y-105198489D01*
X122490283Y-105207444D01*
X122463636Y-105271774D01*
X122463636Y-105362175D01*
X122498228Y-105445686D01*
X122498230Y-105445689D01*
X122507624Y-105455083D01*
X122511051Y-105463356D01*
X122507624Y-105471629D01*
X122499351Y-105475056D01*
X114093062Y-105475056D01*
X114016967Y-105506576D01*
X114016964Y-105506578D01*
X113021177Y-106502364D01*
X113017382Y-106504900D01*
X112970825Y-106524186D01*
X112906905Y-106588106D01*
X112872313Y-106671617D01*
X112872313Y-106762018D01*
X112905030Y-106841002D01*
X112906906Y-106845531D01*
X112970825Y-106909450D01*
X113023488Y-106931263D01*
X113054337Y-106944042D01*
X113054338Y-106944042D01*
X113054340Y-106944043D01*
X113054342Y-106944043D01*
X113144734Y-106944043D01*
X113144736Y-106944043D01*
X113228251Y-106909450D01*
X113292170Y-106845531D01*
X113311455Y-106798971D01*
X113313987Y-106795180D01*
X114216586Y-105892583D01*
X114224859Y-105889156D01*
X126722714Y-105889156D01*
X126722716Y-105889156D01*
X126760765Y-105873395D01*
X126798815Y-105857635D01*
X126830907Y-105825543D01*
X131501955Y-105825543D01*
X131501955Y-106277243D01*
X131976555Y-106277243D01*
X132078155Y-106277243D01*
X132552755Y-106277243D01*
X132552755Y-105825543D01*
X132551281Y-105818131D01*
X132545668Y-105809730D01*
X132545667Y-105809729D01*
X132537266Y-105804116D01*
X132529854Y-105802643D01*
X132078155Y-105802643D01*
X132078155Y-106277243D01*
X131976555Y-106277243D01*
X131976555Y-105802643D01*
X131524856Y-105802643D01*
X131517443Y-105804116D01*
X131509042Y-105809729D01*
X131509041Y-105809730D01*
X131503428Y-105818131D01*
X131501955Y-105825543D01*
X126830907Y-105825543D01*
X127912553Y-104743896D01*
X127916344Y-104741364D01*
X127962904Y-104722079D01*
X128026823Y-104658160D01*
X128061416Y-104574645D01*
X128061416Y-104484249D01*
X128056037Y-104471264D01*
X128026823Y-104400735D01*
X128026822Y-104400733D01*
X127962905Y-104336816D01*
X127962904Y-104336815D01*
X127957098Y-104334410D01*
X127879391Y-104302222D01*
X127879389Y-104302222D01*
X127788993Y-104302222D01*
X127788990Y-104302222D01*
X127705479Y-104336814D01*
X127641559Y-104400734D01*
X127622273Y-104447290D01*
X127619737Y-104451085D01*
X126599195Y-105471629D01*
X126590922Y-105475056D01*
X122882371Y-105475056D01*
X122874098Y-105471629D01*
X122870671Y-105463356D01*
X122874098Y-105455083D01*
X122883492Y-105445689D01*
X122883493Y-105445688D01*
X122918086Y-105362173D01*
X122918086Y-105310902D01*
X122921513Y-105302629D01*
X123194963Y-105029179D01*
X124618505Y-105029179D01*
X124618505Y-105123616D01*
X124642943Y-105214826D01*
X124642945Y-105214830D01*
X124690158Y-105296604D01*
X124690159Y-105296605D01*
X124690161Y-105296608D01*
X124756935Y-105363382D01*
X124756936Y-105363383D01*
X124756938Y-105363384D01*
X124838712Y-105410597D01*
X124838716Y-105410599D01*
X124910649Y-105429872D01*
X124929926Y-105435037D01*
X124929928Y-105435038D01*
X124929929Y-105435038D01*
X125449678Y-105435038D01*
X125449678Y-105435037D01*
X125495284Y-105422818D01*
X125540889Y-105410599D01*
X125540891Y-105410598D01*
X125552986Y-105403615D01*
X125622671Y-105363382D01*
X125689445Y-105296608D01*
X125689445Y-105296606D01*
X125690403Y-105295649D01*
X125690406Y-105295644D01*
X127949786Y-103036266D01*
X127997002Y-102954486D01*
X128000017Y-102943236D01*
X128015083Y-102887007D01*
X128021443Y-102863272D01*
X128021443Y-102768839D01*
X128016182Y-102749206D01*
X127997003Y-102677626D01*
X127997001Y-102677622D01*
X127949788Y-102595849D01*
X127949784Y-102595844D01*
X127883013Y-102529073D01*
X127883008Y-102529069D01*
X127801235Y-102481856D01*
X127801231Y-102481854D01*
X127710021Y-102457415D01*
X127710019Y-102457415D01*
X127615586Y-102457415D01*
X127615583Y-102457415D01*
X127524373Y-102481854D01*
X127524369Y-102481856D01*
X127442595Y-102529069D01*
X127442590Y-102529073D01*
X125257334Y-104714331D01*
X125249061Y-104717758D01*
X124929926Y-104717758D01*
X124838716Y-104742196D01*
X124838712Y-104742198D01*
X124756938Y-104789411D01*
X124756933Y-104789415D01*
X124690162Y-104856186D01*
X124690158Y-104856191D01*
X124642945Y-104937965D01*
X124642943Y-104937969D01*
X124618505Y-105029179D01*
X123194963Y-105029179D01*
X124321764Y-103902378D01*
X124330037Y-103898951D01*
X125828772Y-103898951D01*
X125828773Y-103898951D01*
X125828774Y-103898951D01*
X125845238Y-103892130D01*
X125884990Y-103875666D01*
X126402153Y-103358503D01*
X126425438Y-103302286D01*
X126425438Y-103241440D01*
X126425438Y-102584053D01*
X126428865Y-102575780D01*
X126465118Y-102539527D01*
X126465119Y-102539526D01*
X126499712Y-102456011D01*
X126499712Y-102365615D01*
X126488901Y-102339516D01*
X126474573Y-102304924D01*
X126471262Y-102296930D01*
X126471262Y-102287977D01*
X126477594Y-102281645D01*
X126482071Y-102280754D01*
X127669604Y-102280754D01*
X127677877Y-102284181D01*
X128189530Y-102795833D01*
X128192957Y-102804106D01*
X128192957Y-104896862D01*
X128189530Y-104905135D01*
X127980526Y-105114139D01*
X127972253Y-105117566D01*
X127920979Y-105117566D01*
X127837468Y-105152158D01*
X127773547Y-105216079D01*
X127738955Y-105299590D01*
X127738955Y-105389991D01*
X127772771Y-105471629D01*
X127773548Y-105473504D01*
X127837467Y-105537423D01*
X127890130Y-105559236D01*
X127920979Y-105572015D01*
X127920980Y-105572015D01*
X127920982Y-105572016D01*
X127920984Y-105572016D01*
X128011376Y-105572016D01*
X128011378Y-105572016D01*
X128094893Y-105537423D01*
X128158812Y-105473504D01*
X128193405Y-105389989D01*
X128193405Y-105338717D01*
X128196832Y-105330444D01*
X128475572Y-105051704D01*
X128475573Y-105051703D01*
X128484227Y-105030810D01*
X128498859Y-104995487D01*
X128498859Y-103657015D01*
X131232937Y-103657015D01*
X131232937Y-103751452D01*
X131257375Y-103842662D01*
X131257377Y-103842666D01*
X131304590Y-103924440D01*
X131304592Y-103924443D01*
X131304593Y-103924444D01*
X131371367Y-103991218D01*
X131371368Y-103991219D01*
X131371370Y-103991220D01*
X131453144Y-104038433D01*
X131453148Y-104038435D01*
X131520703Y-104056535D01*
X131544358Y-104062873D01*
X131544360Y-104062874D01*
X131544361Y-104062874D01*
X131638794Y-104062874D01*
X131638794Y-104062873D01*
X131684400Y-104050654D01*
X131730005Y-104038435D01*
X131730009Y-104038433D01*
X131766427Y-104017407D01*
X131811787Y-103991218D01*
X132339484Y-103463521D01*
X132376444Y-103399505D01*
X132386699Y-103381743D01*
X132386701Y-103381739D01*
X132406382Y-103308288D01*
X132411141Y-103290527D01*
X132411141Y-103196094D01*
X132411141Y-103195377D01*
X132411140Y-103195368D01*
X132411140Y-101741842D01*
X132414567Y-101733569D01*
X132422840Y-101730142D01*
X132562408Y-101730142D01*
X132562409Y-101730142D01*
X132592192Y-101724219D01*
X132592195Y-101724216D01*
X132592197Y-101724216D01*
X132603603Y-101716594D01*
X132625965Y-101701653D01*
X132648531Y-101667880D01*
X132654455Y-101638098D01*
X132654454Y-100617989D01*
X132648531Y-100588206D01*
X132648529Y-100588203D01*
X132648528Y-100588200D01*
X132625965Y-100554433D01*
X132625964Y-100554432D01*
X132592192Y-100531867D01*
X132562410Y-100525943D01*
X132562409Y-100525943D01*
X131542301Y-100525943D01*
X131512518Y-100531867D01*
X131512512Y-100531869D01*
X131478745Y-100554432D01*
X131478744Y-100554433D01*
X131456179Y-100588205D01*
X131450255Y-100617988D01*
X131450255Y-101638096D01*
X131456179Y-101667879D01*
X131456181Y-101667885D01*
X131478744Y-101701652D01*
X131478745Y-101701653D01*
X131512518Y-101724219D01*
X131542300Y-101730143D01*
X131682160Y-101730142D01*
X131690433Y-101733569D01*
X131693860Y-101741842D01*
X131693860Y-103089911D01*
X131690433Y-103098184D01*
X131304594Y-103484022D01*
X131304590Y-103484027D01*
X131257377Y-103565801D01*
X131257375Y-103565805D01*
X131232937Y-103657015D01*
X128498859Y-103657015D01*
X128498859Y-102804106D01*
X128502286Y-102795833D01*
X129029449Y-102268670D01*
X129037722Y-102265243D01*
X129450308Y-102265243D01*
X129458581Y-102268670D01*
X129494835Y-102304924D01*
X129547498Y-102326737D01*
X129578347Y-102339516D01*
X129578348Y-102339516D01*
X129578350Y-102339517D01*
X129578352Y-102339517D01*
X129668744Y-102339517D01*
X129668746Y-102339517D01*
X129752261Y-102304924D01*
X129816180Y-102241005D01*
X129850773Y-102157490D01*
X129850773Y-102067094D01*
X129816180Y-101983579D01*
X129752261Y-101919660D01*
X129752259Y-101919659D01*
X129668748Y-101885067D01*
X129668746Y-101885067D01*
X129578350Y-101885067D01*
X129578347Y-101885067D01*
X129494836Y-101919659D01*
X129458581Y-101955914D01*
X129450308Y-101959341D01*
X128939095Y-101959341D01*
X128901649Y-101974852D01*
X128901650Y-101974853D01*
X128882882Y-101982627D01*
X128882880Y-101982628D01*
X128354180Y-102511327D01*
X128345907Y-102514754D01*
X128337634Y-102511327D01*
X127824445Y-101998137D01*
X127824443Y-101998136D01*
X127784693Y-101981672D01*
X127768229Y-101974852D01*
X123172456Y-101974852D01*
X123172453Y-101974852D01*
X123116243Y-101998135D01*
X123116243Y-101998136D01*
X123116242Y-101998136D01*
X123116239Y-101998138D01*
X122365170Y-102749206D01*
X122356897Y-102752633D01*
X122305623Y-102752633D01*
X122222112Y-102787225D01*
X122158191Y-102851146D01*
X122123599Y-102934657D01*
X122123599Y-103025058D01*
X122158191Y-103108569D01*
X122158192Y-103108571D01*
X122222111Y-103172490D01*
X122274774Y-103194303D01*
X122305623Y-103207082D01*
X122305624Y-103207082D01*
X122305626Y-103207083D01*
X122305628Y-103207083D01*
X122396020Y-103207083D01*
X122396022Y-103207083D01*
X122479537Y-103172490D01*
X122543456Y-103108571D01*
X122578049Y-103025056D01*
X122578049Y-102973785D01*
X122581476Y-102965512D01*
X123262807Y-102284181D01*
X123271080Y-102280754D01*
X124643279Y-102280754D01*
X124651552Y-102284181D01*
X124654979Y-102292454D01*
X124651552Y-102300727D01*
X124641867Y-102310412D01*
X124607275Y-102393923D01*
X124607275Y-102445198D01*
X124603848Y-102453471D01*
X122817760Y-104239558D01*
X122809487Y-104242985D01*
X122801214Y-104239558D01*
X122798678Y-104235762D01*
X122767502Y-104160498D01*
X122767501Y-104160496D01*
X122703584Y-104096579D01*
X122703583Y-104096578D01*
X122703581Y-104096577D01*
X122620070Y-104061985D01*
X122620068Y-104061985D01*
X122568797Y-104061985D01*
X122560524Y-104058558D01*
X121988354Y-103486388D01*
X121988353Y-103486387D01*
X121982655Y-103484027D01*
X121948601Y-103469922D01*
X121932137Y-103463102D01*
X109873750Y-103463102D01*
X109873749Y-103463102D01*
X109862107Y-103467924D01*
X109850465Y-103472747D01*
X109817536Y-103486386D01*
X109817533Y-103486388D01*
X109471965Y-103831956D01*
X109463692Y-103835383D01*
X109412417Y-103835383D01*
X109328906Y-103869975D01*
X109264985Y-103933896D01*
X109230393Y-104017407D01*
X107940953Y-104017407D01*
X107940953Y-103399504D01*
X107940952Y-103399502D01*
X107916514Y-103308292D01*
X107916512Y-103308288D01*
X107869299Y-103226514D01*
X107869295Y-103226509D01*
X107802524Y-103159738D01*
X107802519Y-103159734D01*
X107720745Y-103112521D01*
X107720741Y-103112519D01*
X107629531Y-103088081D01*
X107629529Y-103088081D01*
X107535097Y-103088081D01*
X107535094Y-103088081D01*
X107443884Y-103112519D01*
X107443880Y-103112521D01*
X107362106Y-103159734D01*
X107362101Y-103159738D01*
X107295330Y-103226509D01*
X107295326Y-103226514D01*
X107248113Y-103308288D01*
X107248111Y-103308292D01*
X107223673Y-103399502D01*
X105451486Y-103399502D01*
X105452502Y-103395710D01*
X105467099Y-103341231D01*
X105467100Y-103341231D01*
X105467100Y-103228768D01*
X105437994Y-103120148D01*
X105433591Y-103112521D01*
X105381765Y-103022755D01*
X105302245Y-102943235D01*
X105204854Y-102887007D01*
X105204853Y-102887006D01*
X105204850Y-102887005D01*
X105204852Y-102887005D01*
X105096232Y-102857900D01*
X105096229Y-102857900D01*
X104983771Y-102857900D01*
X104983768Y-102857900D01*
X104875148Y-102887005D01*
X104777753Y-102943236D01*
X104698236Y-103022753D01*
X104642005Y-103120148D01*
X104612900Y-103228768D01*
X100406882Y-103228768D01*
X100406882Y-101785827D01*
X100564600Y-101785827D01*
X100564600Y-101804200D01*
X100793029Y-101804200D01*
X100790000Y-101815504D01*
X100790000Y-101894496D01*
X100793029Y-101905800D01*
X100564600Y-101905800D01*
X100564600Y-101924172D01*
X100600403Y-102057795D01*
X100600405Y-102057799D01*
X100669572Y-102177599D01*
X100669576Y-102177604D01*
X100767395Y-102275423D01*
X100767400Y-102275427D01*
X100887200Y-102344594D01*
X100887204Y-102344596D01*
X101020827Y-102380399D01*
X101020829Y-102380400D01*
X101339200Y-102380400D01*
X101339200Y-102155000D01*
X101440800Y-102155000D01*
X101440800Y-102380400D01*
X101759171Y-102380400D01*
X101759172Y-102380399D01*
X101892795Y-102344596D01*
X101892799Y-102344594D01*
X102012599Y-102275427D01*
X102012604Y-102275423D01*
X102110423Y-102177604D01*
X102110427Y-102177599D01*
X102179594Y-102057799D01*
X102179596Y-102057795D01*
X102215399Y-101924172D01*
X102215400Y-101924171D01*
X102215400Y-101905800D01*
X101986971Y-101905800D01*
X101990000Y-101894496D01*
X101990000Y-101815504D01*
X101986971Y-101804200D01*
X102215400Y-101804200D01*
X102215400Y-101785829D01*
X102215399Y-101785827D01*
X104494600Y-101785827D01*
X104494600Y-101804200D01*
X104723029Y-101804200D01*
X104720000Y-101815504D01*
X104720000Y-101894496D01*
X104723029Y-101905800D01*
X104494600Y-101905800D01*
X104494600Y-101924172D01*
X104530403Y-102057795D01*
X104530405Y-102057799D01*
X104599572Y-102177599D01*
X104599576Y-102177604D01*
X104697395Y-102275423D01*
X104697400Y-102275427D01*
X104817200Y-102344594D01*
X104817204Y-102344596D01*
X104950827Y-102380399D01*
X104950829Y-102380400D01*
X105519200Y-102380400D01*
X105519200Y-102155000D01*
X105620800Y-102155000D01*
X105620800Y-102380400D01*
X106189171Y-102380400D01*
X106189172Y-102380399D01*
X106322795Y-102344596D01*
X106322799Y-102344594D01*
X106442599Y-102275427D01*
X106442604Y-102275423D01*
X106540423Y-102177604D01*
X106540427Y-102177599D01*
X106609594Y-102057799D01*
X106609596Y-102057795D01*
X106645399Y-101924172D01*
X106645400Y-101924171D01*
X106645400Y-101905800D01*
X106416971Y-101905800D01*
X106420000Y-101894496D01*
X106420000Y-101815504D01*
X106416971Y-101804200D01*
X106645400Y-101804200D01*
X106645400Y-101785829D01*
X106645399Y-101785827D01*
X106609596Y-101652204D01*
X106609594Y-101652200D01*
X106540427Y-101532400D01*
X106540423Y-101532395D01*
X106442604Y-101434576D01*
X106442599Y-101434572D01*
X106322799Y-101365405D01*
X106322795Y-101365403D01*
X106189172Y-101329600D01*
X105620800Y-101329600D01*
X105620800Y-101555000D01*
X105519200Y-101555000D01*
X105519200Y-101329600D01*
X104950827Y-101329600D01*
X104817204Y-101365403D01*
X104817200Y-101365405D01*
X104697400Y-101434572D01*
X104697395Y-101434576D01*
X104599576Y-101532395D01*
X104599572Y-101532400D01*
X104530405Y-101652200D01*
X104530403Y-101652204D01*
X104494600Y-101785827D01*
X102215399Y-101785827D01*
X102179596Y-101652204D01*
X102179594Y-101652200D01*
X102110427Y-101532400D01*
X102110423Y-101532395D01*
X102012604Y-101434576D01*
X102012599Y-101434572D01*
X101892799Y-101365405D01*
X101892795Y-101365403D01*
X101759172Y-101329600D01*
X101440800Y-101329600D01*
X101440800Y-101555000D01*
X101339200Y-101555000D01*
X101339200Y-101329600D01*
X101020827Y-101329600D01*
X100887204Y-101365403D01*
X100887200Y-101365405D01*
X100767400Y-101434572D01*
X100767395Y-101434576D01*
X100669576Y-101532395D01*
X100669572Y-101532400D01*
X100600405Y-101652200D01*
X100600403Y-101652204D01*
X100564600Y-101785827D01*
X100406882Y-101785827D01*
X100406882Y-100318582D01*
X100410309Y-100310309D01*
X100418582Y-100306882D01*
X132806419Y-100306882D01*
X132814692Y-100310309D01*
G37*
%TD.AperFunction*%
%TD*%
M02*
