%TF.GenerationSoftware,KiCad,Pcbnew,10.0.1*%
%TF.CreationDate,2026-06-17T09:00:59+02:00*%
%TF.ProjectId,USB-PD-CH224K,5553422d-5044-42d4-9348-3232344b2e6b,rev?*%
%TF.SameCoordinates,Original*%
%TF.FileFunction,Copper,L2,Bot*%
%TF.FilePolarity,Positive*%
%FSLAX46Y46*%
G04 Gerber Fmt 4.6, Leading zero omitted, Abs format (unit mm)*
G04 Created by KiCad (PCBNEW 10.0.1) date 2026-06-17 09:00:59*
%MOMM*%
%LPD*%
G01*
G04 APERTURE LIST*
%TA.AperFunction,ComponentPad*%
%ADD10O,2.100000X1.000000*%
%TD*%
%TA.AperFunction,ComponentPad*%
%ADD11O,1.600000X1.000000*%
%TD*%
%TA.AperFunction,SMDPad,CuDef*%
%ADD12R,1.000000X1.000000*%
%TD*%
%TA.AperFunction,ViaPad*%
%ADD13C,0.250250*%
%TD*%
%TA.AperFunction,ViaPad*%
%ADD14C,0.250000*%
%TD*%
%TA.AperFunction,ViaPad*%
%ADD15C,0.513080*%
%TD*%
%TA.AperFunction,Conductor*%
%ADD16C,0.106680*%
%TD*%
%TA.AperFunction,Conductor*%
%ADD17C,0.513080*%
%TD*%
%TA.AperFunction,Conductor*%
%ADD18C,0.101702*%
%TD*%
%TA.AperFunction,Conductor*%
%ADD19C,0.209900*%
%TD*%
%TA.AperFunction,Conductor*%
%ADD20C,0.101600*%
%TD*%
G04 APERTURE END LIST*
D10*
%TO.P,J1,SH,SHIELD_SH*%
%TO.N,GND*%
X105570000Y-101855000D03*
D11*
X101390000Y-101855000D03*
D10*
X105570000Y-110495000D03*
D11*
X101390000Y-110495000D03*
%TD*%
D12*
%TO.P,TP3,1,1_1*%
%TO.N,+3V3*%
X132052355Y-111428043D03*
%TD*%
%TO.P,TP2,1,1_1*%
%TO.N,GND*%
X132027355Y-106328043D03*
%TD*%
%TO.P,TP1,1,1_1*%
%TO.N,VBUS*%
X132052355Y-101128043D03*
%TD*%
D13*
%TO.N,GND*%
X123393118Y-110703924D03*
X106430800Y-111290714D03*
X123370000Y-100750000D03*
X100950000Y-100710000D03*
X113180127Y-110556423D03*
X117070000Y-100830000D03*
X101050000Y-111340000D03*
X119270000Y-100700000D03*
X121768181Y-104209048D03*
X120729967Y-106538711D03*
X101020000Y-102740000D03*
X126527519Y-111417259D03*
X129408132Y-111172293D03*
X115415770Y-102804444D03*
X111132139Y-110556423D03*
X104770000Y-100750000D03*
X128711094Y-108606218D03*
X113779320Y-108731963D03*
X121210000Y-100720000D03*
X124939731Y-104150562D03*
D14*
X111510000Y-107140000D03*
D13*
X132480000Y-110180000D03*
X116805762Y-106140768D03*
X127809597Y-106041774D03*
X114757773Y-106140768D03*
X108645579Y-106520438D03*
X118853750Y-106140768D03*
X130682174Y-103561941D03*
X108192565Y-103659668D03*
X105467504Y-108220933D03*
X117276104Y-110556423D03*
X104500542Y-102873159D03*
X125400000Y-100720000D03*
X110950000Y-100750000D03*
X100985438Y-108492245D03*
X104446079Y-111128409D03*
X106840000Y-100770000D03*
X122882296Y-108692949D03*
X102800000Y-100740000D03*
X105084609Y-105845810D03*
X119720193Y-104209048D03*
X117672204Y-104209048D03*
X124841050Y-108446502D03*
X115228115Y-110556423D03*
D14*
X110075000Y-103825000D03*
D13*
X130500000Y-105490000D03*
X130430000Y-100790000D03*
X110612596Y-105905470D03*
X119324092Y-110556423D03*
X100985438Y-106444257D03*
X121355567Y-110645941D03*
D14*
X115250000Y-104375000D03*
D13*
X132320000Y-104990000D03*
X108990000Y-100720000D03*
D14*
X125400000Y-103375000D03*
D13*
X127400000Y-100760000D03*
X113000000Y-100760000D03*
X114960000Y-100760000D03*
%TO.N,Net-(U1-CFG2)*%
X122379878Y-104985612D03*
X124834500Y-102439124D03*
D14*
%TO.N,VBUS*%
X110950000Y-109910000D03*
X121080000Y-109910000D03*
D15*
X132050000Y-104450000D03*
X130586669Y-107682455D03*
%TO.N,Net-(F2-Pad1)*%
X107628367Y-108666633D03*
X107580000Y-103670000D03*
D13*
%TO.N,Net-(U1-CFG3)*%
X122270341Y-103060341D03*
X128780000Y-101430000D03*
X128345908Y-104965063D03*
%TO.N,Net-(D4B-K2)*%
X128020000Y-104396000D03*
D14*
X109060000Y-108050000D03*
X108385000Y-103220000D03*
%TO.N,Net-(D4A-K1)*%
X109170000Y-101560000D03*
X109510000Y-104030000D03*
%TO.N,Net-(D4D-K4)*%
X110600000Y-103800000D03*
X110813934Y-105617068D03*
D13*
%TO.N,Net-(D4C-K3)*%
X122574870Y-104289210D03*
X110130000Y-103350000D03*
D15*
%TO.N,Net-(U1-VBUS)*%
X124977145Y-105076398D03*
X127662802Y-102816056D03*
D13*
%TO.N,Net-(U1-CFG1)*%
X123758750Y-106396408D03*
X126272487Y-102410813D03*
X122690861Y-105316975D03*
X121380000Y-107180000D03*
D14*
%TO.N,/PG*%
X121730000Y-109390000D03*
X123758750Y-107396408D03*
%TO.N,+3V3*%
X112260000Y-107140000D03*
D13*
X112653423Y-103900615D03*
X113788014Y-108165000D03*
D14*
X132000000Y-110570000D03*
D13*
X112263711Y-106385143D03*
%TD*%
%TO.N,+3V3*%
D16*
X132052500Y-110622500D02*
X132052500Y-111428000D01*
X132000000Y-110570000D02*
X132052500Y-110622500D01*
%TO.N,VBUS*%
D17*
X132052500Y-103243311D02*
X132052500Y-101128000D01*
X132050000Y-103245811D02*
X132052500Y-103243311D01*
X132050000Y-104450000D02*
X132050000Y-103245811D01*
X131041563Y-106978437D02*
X130586669Y-107433331D01*
X130586669Y-107433331D02*
X130586669Y-107682455D01*
X132050000Y-104450000D02*
X131041563Y-105458437D01*
X131041563Y-105458437D02*
X131041563Y-106978437D01*
%TO.N,Net-(U1-CFG3)*%
D18*
X128780000Y-102301814D02*
X128345908Y-102735906D01*
X128780000Y-101430000D02*
X128780000Y-102301814D01*
X128345908Y-104965063D02*
X128345908Y-102735906D01*
X123202880Y-102127803D02*
X127737805Y-102127803D01*
X122270341Y-103060341D02*
X123202880Y-102127803D01*
X127737805Y-102127803D02*
X128345908Y-102735906D01*
%TO.N,Net-(U1-CFG1)*%
X122985652Y-107169506D02*
X123758750Y-106396408D01*
X122665032Y-107169506D02*
X122985652Y-107169506D01*
X122654538Y-107180000D02*
X122665032Y-107169506D01*
X121380000Y-107180000D02*
X122654538Y-107180000D01*
%TO.N,VBUS*%
D17*
X110950000Y-109910000D02*
X121080000Y-109910000D01*
%TO.N,Net-(F2-Pad1)*%
X107670000Y-108625000D02*
X107628367Y-108666633D01*
%TO.N,+3V3*%
D16*
X112263711Y-107143711D02*
X112260000Y-107140000D01*
X112766725Y-107143711D02*
X112263711Y-107143711D01*
X113788014Y-108165000D02*
X112766725Y-107143711D01*
X112653423Y-104637169D02*
X112653423Y-103900615D01*
X112263711Y-106385143D02*
X112263711Y-105026881D01*
X112263711Y-105026881D02*
X112653423Y-104637169D01*
%TO.N,Net-(D4C-K3)*%
D18*
X121901713Y-103616053D02*
X122574870Y-104289210D01*
X110826053Y-103616053D02*
X121901713Y-103616053D01*
X110130000Y-103350000D02*
X110560000Y-103350000D01*
X110560000Y-103350000D02*
X110826053Y-103616053D01*
%TO.N,Net-(D4A-K1)*%
D19*
X109510000Y-102675000D02*
X109510000Y-104030000D01*
X109170000Y-101560000D02*
X109170000Y-102335000D01*
X109170000Y-102335000D02*
X109510000Y-102675000D01*
%TO.N,Net-(D4B-K2)*%
X108385000Y-103383043D02*
X109403182Y-104401225D01*
X108385000Y-103220000D02*
X108385000Y-103383043D01*
X109403182Y-104401225D02*
X109403182Y-106716818D01*
%TO.N,Net-(F2-Pad1)*%
D17*
X107582313Y-108194309D02*
X107628367Y-108240363D01*
X107582313Y-104822313D02*
X107582313Y-108194309D01*
X107580000Y-104820000D02*
X107582313Y-104822313D01*
X107580000Y-103670000D02*
X107580000Y-104820000D01*
X107628367Y-108240363D02*
X107628367Y-108666633D01*
%TO.N,Net-(D4B-K2)*%
D19*
X109403182Y-106716818D02*
X109060000Y-107060000D01*
X109060000Y-107060000D02*
X109060000Y-108050000D01*
%TO.N,Net-(U1-CFG2)*%
D18*
X122379878Y-104893747D02*
X124834500Y-102439124D01*
X122379878Y-104985612D02*
X122379878Y-104893747D01*
%TO.N,VBUS*%
D17*
X128133228Y-109960000D02*
X128083228Y-109910000D01*
X128133228Y-109960000D02*
X128309124Y-109960000D01*
X128309124Y-109960000D02*
X130586669Y-107682455D01*
X128083228Y-109910000D02*
X121080000Y-109910000D01*
%TO.N,Net-(D4B-K2)*%
D19*
X128020000Y-104396000D02*
X127967637Y-104396000D01*
X126681531Y-105682106D02*
X114134250Y-105682106D01*
X127967637Y-104396000D02*
X126681531Y-105682106D01*
X114134250Y-105682106D02*
X113099538Y-106716818D01*
X113099538Y-106716818D02*
X109403182Y-106716818D01*
%TO.N,Net-(D4D-K4)*%
D18*
X110813934Y-104013934D02*
X110600000Y-103800000D01*
X110813934Y-105617068D02*
X110813934Y-104013934D01*
%TO.N,Net-(U1-VBUS)*%
D17*
X127662802Y-102816056D02*
X125402461Y-105076398D01*
X125402461Y-105076398D02*
X124977145Y-105076398D01*
%TO.N,Net-(U1-CFG1)*%
D18*
X122690861Y-105316975D02*
X124261836Y-103746000D01*
X124261836Y-103746000D02*
X125798350Y-103746000D01*
X125798350Y-103746000D02*
X126272487Y-103271863D01*
X126272487Y-103271863D02*
X126272487Y-102410813D01*
%TO.N,/PG*%
D20*
X121765158Y-109390000D02*
X123758750Y-107396408D01*
X121730000Y-109390000D02*
X121765158Y-109390000D01*
%TD*%
%TA.AperFunction,Conductor*%
%TO.N,GND*%
G36*
X121841785Y-103772431D02*
G01*
X122344218Y-104274864D01*
X122347645Y-104283137D01*
X122347645Y-104334410D01*
X122375967Y-104402784D01*
X122382238Y-104417923D01*
X122446157Y-104481842D01*
X122492578Y-104501070D01*
X122521422Y-104513018D01*
X122527754Y-104519350D01*
X122527754Y-104528304D01*
X122525218Y-104532100D01*
X122275299Y-104782018D01*
X122271504Y-104784554D01*
X122251165Y-104792979D01*
X122251164Y-104792981D01*
X122187245Y-104856900D01*
X122152653Y-104940411D01*
X122152653Y-105030812D01*
X122185631Y-105110427D01*
X122187246Y-105114325D01*
X122251165Y-105178244D01*
X122300041Y-105198489D01*
X122334677Y-105212836D01*
X122334678Y-105212836D01*
X122334680Y-105212837D01*
X122334682Y-105212837D01*
X122425074Y-105212837D01*
X122425076Y-105212837D01*
X122474999Y-105192158D01*
X122483951Y-105192158D01*
X122490283Y-105198489D01*
X122490283Y-105207444D01*
X122463636Y-105271774D01*
X122463636Y-105362175D01*
X122498228Y-105445686D01*
X122498230Y-105445689D01*
X122507624Y-105455083D01*
X122511051Y-105463356D01*
X122507624Y-105471629D01*
X122499351Y-105475056D01*
X114093062Y-105475056D01*
X114016967Y-105506576D01*
X113017202Y-106506341D01*
X113008929Y-106509768D01*
X112475546Y-106509768D01*
X112467273Y-106506341D01*
X112463846Y-106498068D01*
X112464737Y-106493591D01*
X112490935Y-106430343D01*
X112490936Y-106430341D01*
X112490936Y-106339945D01*
X112456343Y-106256430D01*
X112422578Y-106222665D01*
X112419151Y-106214392D01*
X112419151Y-105096113D01*
X112422578Y-105087840D01*
X112785198Y-104725220D01*
X112785199Y-104725219D01*
X112808863Y-104668087D01*
X112808863Y-104606251D01*
X112808863Y-104071366D01*
X112812290Y-104063093D01*
X112846054Y-104029329D01*
X112846055Y-104029328D01*
X112880648Y-103945813D01*
X112880648Y-103855417D01*
X112851555Y-103785180D01*
X112851555Y-103776227D01*
X112857887Y-103769895D01*
X112862364Y-103769004D01*
X121833512Y-103769004D01*
X121841785Y-103772431D01*
G37*
%TD.AperFunction*%
%TA.AperFunction,Conductor*%
G36*
X127677877Y-102284181D02*
G01*
X128189530Y-102795833D01*
X128192957Y-102804106D01*
X128192957Y-104219366D01*
X128189530Y-104227639D01*
X128181257Y-104231066D01*
X128172984Y-104227639D01*
X128148714Y-104203369D01*
X128148713Y-104203368D01*
X128148711Y-104203367D01*
X128065200Y-104168775D01*
X128065198Y-104168775D01*
X127974802Y-104168775D01*
X127974799Y-104168775D01*
X127890885Y-104203533D01*
X127889641Y-104204197D01*
X127850353Y-104220471D01*
X126599195Y-105471629D01*
X126590922Y-105475056D01*
X122882371Y-105475056D01*
X122874098Y-105471629D01*
X122870671Y-105463356D01*
X122874098Y-105455083D01*
X122883492Y-105445689D01*
X122883493Y-105445688D01*
X122918086Y-105362173D01*
X122918086Y-105310902D01*
X122921513Y-105302629D01*
X123194963Y-105029179D01*
X124618505Y-105029179D01*
X124618505Y-105123616D01*
X124642943Y-105214826D01*
X124642945Y-105214830D01*
X124690158Y-105296604D01*
X124690159Y-105296605D01*
X124690161Y-105296608D01*
X124756935Y-105363382D01*
X124756936Y-105363383D01*
X124756938Y-105363384D01*
X124838712Y-105410597D01*
X124838716Y-105410599D01*
X124910649Y-105429872D01*
X124929926Y-105435037D01*
X124929928Y-105435038D01*
X124929929Y-105435038D01*
X125449678Y-105435038D01*
X125449678Y-105435037D01*
X125495284Y-105422818D01*
X125540889Y-105410599D01*
X125540891Y-105410598D01*
X125552986Y-105403615D01*
X125622671Y-105363382D01*
X125689445Y-105296608D01*
X125689445Y-105296606D01*
X125690403Y-105295649D01*
X125690406Y-105295644D01*
X127949786Y-103036266D01*
X127997002Y-102954486D01*
X128000017Y-102943236D01*
X128015083Y-102887007D01*
X128021443Y-102863272D01*
X128021443Y-102768839D01*
X128016277Y-102749561D01*
X127997003Y-102677626D01*
X127997001Y-102677622D01*
X127949788Y-102595849D01*
X127949784Y-102595844D01*
X127883013Y-102529073D01*
X127883008Y-102529069D01*
X127801235Y-102481856D01*
X127801231Y-102481854D01*
X127710021Y-102457415D01*
X127710019Y-102457415D01*
X127615586Y-102457415D01*
X127615583Y-102457415D01*
X127524373Y-102481854D01*
X127524369Y-102481856D01*
X127442595Y-102529069D01*
X127442590Y-102529073D01*
X125257334Y-104714331D01*
X125249061Y-104717758D01*
X124929926Y-104717758D01*
X124838716Y-104742196D01*
X124838712Y-104742198D01*
X124756938Y-104789411D01*
X124756933Y-104789415D01*
X124690162Y-104856186D01*
X124690158Y-104856191D01*
X124642945Y-104937965D01*
X124642943Y-104937969D01*
X124618505Y-105029179D01*
X123194963Y-105029179D01*
X124321764Y-103902378D01*
X124330037Y-103898951D01*
X125828772Y-103898951D01*
X125828773Y-103898951D01*
X125828774Y-103898951D01*
X125858495Y-103886640D01*
X125884990Y-103875666D01*
X126402153Y-103358503D01*
X126425438Y-103302286D01*
X126425438Y-103241440D01*
X126425438Y-102584053D01*
X126428865Y-102575780D01*
X126465118Y-102539527D01*
X126465119Y-102539526D01*
X126499712Y-102456011D01*
X126499712Y-102365615D01*
X126492706Y-102348702D01*
X126476845Y-102310410D01*
X126471262Y-102296930D01*
X126471262Y-102287977D01*
X126477594Y-102281645D01*
X126482071Y-102280754D01*
X127669604Y-102280754D01*
X127677877Y-102284181D01*
G37*
%TD.AperFunction*%
%TA.AperFunction,Conductor*%
G36*
X126071176Y-102284181D02*
G01*
X126074603Y-102292454D01*
X126073712Y-102296930D01*
X126069883Y-102306173D01*
X126045262Y-102365612D01*
X126045262Y-102456013D01*
X126079854Y-102539524D01*
X126079856Y-102539527D01*
X126116109Y-102575780D01*
X126119536Y-102584053D01*
X126119536Y-103203662D01*
X126116109Y-103211935D01*
X125738422Y-103589622D01*
X125730149Y-103593049D01*
X124231411Y-103593049D01*
X124223179Y-103596459D01*
X124214947Y-103599869D01*
X124175197Y-103616333D01*
X122705207Y-105086323D01*
X122696934Y-105089750D01*
X122645660Y-105089750D01*
X122595742Y-105110427D01*
X122586787Y-105110427D01*
X122580456Y-105104095D01*
X122580456Y-105095141D01*
X122581022Y-105093776D01*
X122607103Y-105030810D01*
X122607103Y-104940414D01*
X122593227Y-104906914D01*
X122593227Y-104897962D01*
X122595760Y-104894169D01*
X124820153Y-102669775D01*
X124828426Y-102666349D01*
X124879696Y-102666349D01*
X124879698Y-102666349D01*
X124963213Y-102631756D01*
X125027132Y-102567837D01*
X125061725Y-102484322D01*
X125061725Y-102393926D01*
X125059458Y-102388454D01*
X125027132Y-102310412D01*
X125027131Y-102310410D01*
X125017448Y-102300727D01*
X125014021Y-102292454D01*
X125017448Y-102284181D01*
X125025721Y-102280754D01*
X126062903Y-102280754D01*
X126071176Y-102284181D01*
G37*
%TD.AperFunction*%
%TA.AperFunction,Conductor*%
G36*
X132814692Y-100310309D02*
G01*
X132818119Y-100318582D01*
X132818119Y-112131419D01*
X132814692Y-112139692D01*
X132806419Y-112143119D01*
X100418582Y-112143119D01*
X100410309Y-112139692D01*
X100406882Y-112131419D01*
X100406882Y-110425827D01*
X100564600Y-110425827D01*
X100564600Y-110444200D01*
X100793029Y-110444200D01*
X100790000Y-110455504D01*
X100790000Y-110534496D01*
X100793029Y-110545800D01*
X100564600Y-110545800D01*
X100564600Y-110564172D01*
X100600403Y-110697795D01*
X100600405Y-110697799D01*
X100669572Y-110817599D01*
X100669576Y-110817604D01*
X100767395Y-110915423D01*
X100767400Y-110915427D01*
X100887200Y-110984594D01*
X100887204Y-110984596D01*
X101020827Y-111020399D01*
X101020829Y-111020400D01*
X101339200Y-111020400D01*
X101339200Y-110795000D01*
X101440800Y-110795000D01*
X101440800Y-111020400D01*
X101759171Y-111020400D01*
X101759172Y-111020399D01*
X101892795Y-110984596D01*
X101892799Y-110984594D01*
X102012599Y-110915427D01*
X102012604Y-110915423D01*
X102110423Y-110817604D01*
X102110427Y-110817599D01*
X102179594Y-110697799D01*
X102179596Y-110697795D01*
X102215399Y-110564172D01*
X102215400Y-110564171D01*
X102215400Y-110545800D01*
X101986971Y-110545800D01*
X101990000Y-110534496D01*
X101990000Y-110455504D01*
X101986971Y-110444200D01*
X102215400Y-110444200D01*
X102215400Y-110425829D01*
X102215399Y-110425827D01*
X104494600Y-110425827D01*
X104494600Y-110444200D01*
X104723029Y-110444200D01*
X104720000Y-110455504D01*
X104720000Y-110534496D01*
X104723029Y-110545800D01*
X104494600Y-110545800D01*
X104494600Y-110564172D01*
X104530403Y-110697795D01*
X104530405Y-110697799D01*
X104599572Y-110817599D01*
X104599576Y-110817604D01*
X104697395Y-110915423D01*
X104697400Y-110915427D01*
X104817200Y-110984594D01*
X104817204Y-110984596D01*
X104950827Y-111020399D01*
X104950829Y-111020400D01*
X105519200Y-111020400D01*
X105519200Y-110795000D01*
X105620800Y-110795000D01*
X105620800Y-111020400D01*
X106189171Y-111020400D01*
X106189172Y-111020399D01*
X106322795Y-110984596D01*
X106322799Y-110984594D01*
X106438163Y-110917988D01*
X131450255Y-110917988D01*
X131450255Y-111938096D01*
X131456179Y-111967879D01*
X131456181Y-111967885D01*
X131478744Y-112001652D01*
X131478745Y-112001653D01*
X131512518Y-112024219D01*
X131542300Y-112030143D01*
X132562409Y-112030142D01*
X132592192Y-112024219D01*
X132592195Y-112024216D01*
X132592197Y-112024216D01*
X132603603Y-112016594D01*
X132625965Y-112001653D01*
X132648531Y-111967880D01*
X132654455Y-111938098D01*
X132654454Y-110917989D01*
X132648531Y-110888206D01*
X132648529Y-110888203D01*
X132648528Y-110888200D01*
X132625965Y-110854433D01*
X132625964Y-110854432D01*
X132592192Y-110831867D01*
X132562410Y-110825943D01*
X132562409Y-110825943D01*
X132219640Y-110825943D01*
X132211367Y-110822516D01*
X132207940Y-110814243D01*
X132207940Y-110663754D01*
X132208830Y-110659279D01*
X132227100Y-110615173D01*
X132227100Y-110524827D01*
X132192526Y-110441358D01*
X132128642Y-110377474D01*
X132128640Y-110377473D01*
X132045175Y-110342900D01*
X132045173Y-110342900D01*
X131954827Y-110342900D01*
X131954824Y-110342900D01*
X131871359Y-110377473D01*
X131807473Y-110441359D01*
X131772900Y-110524824D01*
X131772900Y-110615175D01*
X131799423Y-110679205D01*
X131807474Y-110698642D01*
X131871358Y-110762526D01*
X131889837Y-110770180D01*
X131896169Y-110776511D01*
X131897060Y-110780989D01*
X131897060Y-110814243D01*
X131893633Y-110822516D01*
X131885360Y-110825943D01*
X131542301Y-110825943D01*
X131512518Y-110831867D01*
X131512512Y-110831869D01*
X131478745Y-110854432D01*
X131478744Y-110854433D01*
X131456179Y-110888205D01*
X131450255Y-110917988D01*
X106438163Y-110917988D01*
X106442599Y-110915427D01*
X106442604Y-110915423D01*
X106448888Y-110909140D01*
X106540423Y-110817604D01*
X106540427Y-110817599D01*
X106609594Y-110697799D01*
X106609596Y-110697795D01*
X106645399Y-110564172D01*
X106645400Y-110564171D01*
X106645400Y-110545800D01*
X106416971Y-110545800D01*
X106420000Y-110534496D01*
X106420000Y-110455504D01*
X106416971Y-110444200D01*
X106645400Y-110444200D01*
X106645400Y-110425829D01*
X106645399Y-110425827D01*
X106609596Y-110292204D01*
X106609594Y-110292200D01*
X106540427Y-110172400D01*
X106540423Y-110172395D01*
X106442604Y-110074576D01*
X106442599Y-110074572D01*
X106322799Y-110005405D01*
X106322795Y-110005403D01*
X106189172Y-109969600D01*
X105620800Y-109969600D01*
X105620800Y-110195000D01*
X105519200Y-110195000D01*
X105519200Y-109969600D01*
X104950827Y-109969600D01*
X104817204Y-110005403D01*
X104817200Y-110005405D01*
X104697400Y-110074572D01*
X104697395Y-110074576D01*
X104599576Y-110172395D01*
X104599572Y-110172400D01*
X104530405Y-110292200D01*
X104530403Y-110292204D01*
X104494600Y-110425827D01*
X102215399Y-110425827D01*
X102179596Y-110292204D01*
X102179594Y-110292200D01*
X102110427Y-110172400D01*
X102110423Y-110172395D01*
X102012604Y-110074576D01*
X102012599Y-110074572D01*
X101892799Y-110005405D01*
X101892795Y-110005403D01*
X101759172Y-109969600D01*
X101440800Y-109969600D01*
X101440800Y-110195000D01*
X101339200Y-110195000D01*
X101339200Y-109969600D01*
X101020827Y-109969600D01*
X100887204Y-110005403D01*
X100887200Y-110005405D01*
X100767400Y-110074572D01*
X100767395Y-110074576D01*
X100669576Y-110172395D01*
X100669572Y-110172400D01*
X100600405Y-110292200D01*
X100600403Y-110292204D01*
X100564600Y-110425827D01*
X100406882Y-110425827D01*
X100406882Y-109862781D01*
X110591360Y-109862781D01*
X110591360Y-109957218D01*
X110615798Y-110048428D01*
X110615800Y-110048432D01*
X110663013Y-110130206D01*
X110663015Y-110130209D01*
X110663016Y-110130210D01*
X110729790Y-110196984D01*
X110729791Y-110196985D01*
X110729793Y-110196986D01*
X110811567Y-110244199D01*
X110811571Y-110244201D01*
X110883504Y-110263474D01*
X110902781Y-110268639D01*
X110902783Y-110268640D01*
X110902784Y-110268640D01*
X121032784Y-110268640D01*
X127947393Y-110268640D01*
X127953243Y-110270208D01*
X127994795Y-110294199D01*
X127994799Y-110294201D01*
X128066734Y-110313475D01*
X128086009Y-110318640D01*
X128086011Y-110318641D01*
X128086012Y-110318641D01*
X128181154Y-110318641D01*
X128181170Y-110318640D01*
X128356341Y-110318640D01*
X128356341Y-110318639D01*
X128401947Y-110306420D01*
X128447552Y-110294201D01*
X128447556Y-110294199D01*
X128491827Y-110268639D01*
X128529334Y-110246984D01*
X130873653Y-107902665D01*
X130920869Y-107820885D01*
X130945309Y-107729671D01*
X130945309Y-107635239D01*
X130945309Y-107586729D01*
X130948735Y-107578457D01*
X131260809Y-107266382D01*
X131260814Y-107266379D01*
X131261771Y-107265421D01*
X131261773Y-107265421D01*
X131328547Y-107198647D01*
X131375763Y-107116867D01*
X131377849Y-107109082D01*
X131400203Y-107025654D01*
X131400203Y-106931221D01*
X131400203Y-106830542D01*
X131501955Y-106830542D01*
X131503428Y-106837954D01*
X131509041Y-106846355D01*
X131509042Y-106846356D01*
X131517443Y-106851969D01*
X131524856Y-106853443D01*
X131976555Y-106853443D01*
X132078155Y-106853443D01*
X132529854Y-106853443D01*
X132537266Y-106851969D01*
X132545667Y-106846356D01*
X132545668Y-106846355D01*
X132551281Y-106837954D01*
X132552755Y-106830542D01*
X132552755Y-106378843D01*
X132078155Y-106378843D01*
X132078155Y-106853443D01*
X131976555Y-106853443D01*
X131976555Y-106378843D01*
X131501955Y-106378843D01*
X131501955Y-106830542D01*
X131400203Y-106830542D01*
X131400203Y-105825543D01*
X131501955Y-105825543D01*
X131501955Y-106277243D01*
X131976555Y-106277243D01*
X132078155Y-106277243D01*
X132552755Y-106277243D01*
X132552755Y-105825543D01*
X132551281Y-105818131D01*
X132545668Y-105809730D01*
X132545667Y-105809729D01*
X132537266Y-105804116D01*
X132529854Y-105802643D01*
X132078155Y-105802643D01*
X132078155Y-106277243D01*
X131976555Y-106277243D01*
X131976555Y-105802643D01*
X131524856Y-105802643D01*
X131517443Y-105804116D01*
X131509042Y-105809729D01*
X131509041Y-105809730D01*
X131503428Y-105818131D01*
X131501955Y-105825543D01*
X131400203Y-105825543D01*
X131400203Y-105611835D01*
X131403629Y-105603563D01*
X132269246Y-104737945D01*
X132269251Y-104737942D01*
X132270208Y-104736984D01*
X132270210Y-104736984D01*
X132336984Y-104670210D01*
X132373911Y-104606251D01*
X132384199Y-104588432D01*
X132384201Y-104588428D01*
X132400310Y-104528304D01*
X132408640Y-104497217D01*
X132408640Y-104402784D01*
X132408640Y-103301399D01*
X132409039Y-103298370D01*
X132411141Y-103290528D01*
X132411141Y-103195377D01*
X132411140Y-103195368D01*
X132411140Y-101741842D01*
X132414567Y-101733569D01*
X132422840Y-101730142D01*
X132562408Y-101730142D01*
X132562409Y-101730142D01*
X132592192Y-101724219D01*
X132592195Y-101724216D01*
X132592197Y-101724216D01*
X132603603Y-101716594D01*
X132625965Y-101701653D01*
X132648531Y-101667880D01*
X132654455Y-101638098D01*
X132654454Y-100617989D01*
X132648531Y-100588206D01*
X132648529Y-100588203D01*
X132648528Y-100588200D01*
X132625965Y-100554433D01*
X132625964Y-100554432D01*
X132592192Y-100531867D01*
X132562410Y-100525943D01*
X132562409Y-100525943D01*
X131542301Y-100525943D01*
X131512518Y-100531867D01*
X131512512Y-100531869D01*
X131478745Y-100554432D01*
X131478744Y-100554433D01*
X131456179Y-100588205D01*
X131450255Y-100617988D01*
X131450255Y-101638096D01*
X131456179Y-101667879D01*
X131456181Y-101667885D01*
X131478744Y-101701652D01*
X131478745Y-101701653D01*
X131512518Y-101724219D01*
X131542300Y-101730143D01*
X131682160Y-101730142D01*
X131690433Y-101733569D01*
X131693860Y-101741842D01*
X131693860Y-103187724D01*
X131693461Y-103190752D01*
X131691360Y-103198592D01*
X131691360Y-104296599D01*
X131687933Y-104304872D01*
X130819707Y-105173097D01*
X130819705Y-105173100D01*
X130754580Y-105238225D01*
X130754576Y-105238230D01*
X130707363Y-105320004D01*
X130707361Y-105320008D01*
X130682923Y-105411218D01*
X130682923Y-106825036D01*
X130679496Y-106833309D01*
X130364813Y-107147991D01*
X130364811Y-107147994D01*
X130299686Y-107213119D01*
X130299682Y-107213124D01*
X130252469Y-107294898D01*
X130252467Y-107294902D01*
X130228029Y-107386112D01*
X130228029Y-107529054D01*
X130224602Y-107537327D01*
X128198413Y-109563515D01*
X128190140Y-109566942D01*
X128187112Y-109566543D01*
X128130446Y-109551360D01*
X128130444Y-109551360D01*
X121918054Y-109551360D01*
X121909781Y-109547933D01*
X121906354Y-109539660D01*
X121909781Y-109531387D01*
X121922525Y-109518643D01*
X121922526Y-109518642D01*
X121957100Y-109435173D01*
X121957100Y-109419138D01*
X121960527Y-109410865D01*
X123744457Y-107626935D01*
X123752730Y-107623508D01*
X123803921Y-107623508D01*
X123803923Y-107623508D01*
X123887392Y-107588934D01*
X123951276Y-107525050D01*
X123985850Y-107441581D01*
X123985850Y-107351235D01*
X123978100Y-107332526D01*
X123968236Y-107308711D01*
X123951276Y-107267766D01*
X123887392Y-107203882D01*
X123887390Y-107203881D01*
X123803925Y-107169308D01*
X123803923Y-107169308D01*
X123713577Y-107169308D01*
X123713574Y-107169308D01*
X123630109Y-107203881D01*
X123566223Y-107267767D01*
X123531650Y-107351232D01*
X123531650Y-107402427D01*
X123528223Y-107410700D01*
X121779450Y-109159473D01*
X121771177Y-109162900D01*
X121684824Y-109162900D01*
X121601359Y-109197473D01*
X121537473Y-109261359D01*
X121502900Y-109344824D01*
X121502900Y-109435175D01*
X121537473Y-109518640D01*
X121537475Y-109518643D01*
X121550219Y-109531387D01*
X121553646Y-109539660D01*
X121550219Y-109547933D01*
X121541946Y-109551360D01*
X110902781Y-109551360D01*
X110811571Y-109575798D01*
X110811567Y-109575800D01*
X110729793Y-109623013D01*
X110729788Y-109623017D01*
X110663017Y-109689788D01*
X110663013Y-109689793D01*
X110615800Y-109771567D01*
X110615798Y-109771571D01*
X110591360Y-109862781D01*
X100406882Y-109862781D01*
X100406882Y-109008768D01*
X104612900Y-109008768D01*
X104612900Y-109121231D01*
X104642005Y-109229851D01*
X104642007Y-109229854D01*
X104698235Y-109327245D01*
X104777755Y-109406765D01*
X104875146Y-109462993D01*
X104875148Y-109462993D01*
X104875149Y-109462994D01*
X104875147Y-109462994D01*
X104960816Y-109485949D01*
X104983768Y-109492099D01*
X104983769Y-109492100D01*
X104983771Y-109492100D01*
X105096231Y-109492100D01*
X105096231Y-109492099D01*
X105172583Y-109471640D01*
X105204851Y-109462994D01*
X105204851Y-109462993D01*
X105204854Y-109462993D01*
X105302245Y-109406765D01*
X105381765Y-109327245D01*
X105437993Y-109229854D01*
X105467099Y-109121231D01*
X105467100Y-109121231D01*
X105467100Y-109008768D01*
X105437994Y-108900148D01*
X105430313Y-108886844D01*
X105381765Y-108802755D01*
X105302245Y-108723235D01*
X105204854Y-108667007D01*
X105204853Y-108667006D01*
X105204850Y-108667005D01*
X105204852Y-108667005D01*
X105096232Y-108637900D01*
X105096229Y-108637900D01*
X104983771Y-108637900D01*
X104983768Y-108637900D01*
X104875148Y-108667005D01*
X104777753Y-108723236D01*
X104698236Y-108802753D01*
X104642005Y-108900148D01*
X104612900Y-109008768D01*
X100406882Y-109008768D01*
X100406882Y-103228768D01*
X104612900Y-103228768D01*
X104612900Y-103341231D01*
X104642005Y-103449851D01*
X104658669Y-103478714D01*
X104698235Y-103547245D01*
X104777755Y-103626765D01*
X104875146Y-103682993D01*
X104875148Y-103682993D01*
X104875149Y-103682994D01*
X104875147Y-103682994D01*
X104960816Y-103705949D01*
X104983768Y-103712099D01*
X104983769Y-103712100D01*
X104983771Y-103712100D01*
X105096231Y-103712100D01*
X105096231Y-103712099D01*
X105172583Y-103691640D01*
X105204851Y-103682994D01*
X105204851Y-103682993D01*
X105204854Y-103682993D01*
X105302245Y-103626765D01*
X105306229Y-103622781D01*
X107221360Y-103622781D01*
X107221360Y-104867217D01*
X107223274Y-104874358D01*
X107223673Y-104877387D01*
X107223673Y-108241527D01*
X107248111Y-108332737D01*
X107248113Y-108332741D01*
X107268159Y-108367459D01*
X107269727Y-108373309D01*
X107269727Y-108713851D01*
X107294165Y-108805061D01*
X107294167Y-108805065D01*
X107341380Y-108886839D01*
X107341382Y-108886842D01*
X107341383Y-108886843D01*
X107408157Y-108953617D01*
X107408158Y-108953618D01*
X107408160Y-108953619D01*
X107489934Y-109000832D01*
X107489938Y-109000834D01*
X107561871Y-109020107D01*
X107581148Y-109025272D01*
X107581150Y-109025273D01*
X107581151Y-109025273D01*
X107675584Y-109025273D01*
X107675584Y-109025272D01*
X107721190Y-109013053D01*
X107766795Y-109000834D01*
X107766799Y-109000832D01*
X107794057Y-108985094D01*
X107848577Y-108953617D01*
X107915351Y-108886843D01*
X107956984Y-108845210D01*
X108004200Y-108763430D01*
X108028640Y-108672216D01*
X108028640Y-108577784D01*
X108023474Y-108558504D01*
X108004201Y-108486571D01*
X108004199Y-108486567D01*
X107988575Y-108459506D01*
X107987007Y-108453656D01*
X107987007Y-108193146D01*
X107987006Y-108193144D01*
X107983120Y-108178642D01*
X107978781Y-108162446D01*
X107962568Y-108101935D01*
X107942520Y-108067210D01*
X107940953Y-108061360D01*
X107940953Y-104775096D01*
X107940952Y-104775094D01*
X107939039Y-104767952D01*
X107938640Y-104764924D01*
X107938640Y-103622783D01*
X107938639Y-103622781D01*
X107936911Y-103616333D01*
X107926146Y-103576154D01*
X107914201Y-103531571D01*
X107914199Y-103531567D01*
X107866986Y-103449793D01*
X107866982Y-103449788D01*
X107800211Y-103383017D01*
X107800206Y-103383013D01*
X107718432Y-103335800D01*
X107718428Y-103335798D01*
X107627218Y-103311360D01*
X107627216Y-103311360D01*
X107532784Y-103311360D01*
X107532781Y-103311360D01*
X107441571Y-103335798D01*
X107441567Y-103335800D01*
X107359793Y-103383013D01*
X107359788Y-103383017D01*
X107293017Y-103449788D01*
X107293013Y-103449793D01*
X107245800Y-103531567D01*
X107245798Y-103531571D01*
X107221360Y-103622781D01*
X105306229Y-103622781D01*
X105381765Y-103547245D01*
X105437993Y-103449854D01*
X105438010Y-103449793D01*
X105452638Y-103395200D01*
X105467099Y-103341231D01*
X105467100Y-103341231D01*
X105467100Y-103228768D01*
X105453149Y-103176703D01*
X105452645Y-103174824D01*
X108157900Y-103174824D01*
X108157900Y-103174827D01*
X108157900Y-103265173D01*
X108174315Y-103304802D01*
X108177059Y-103311425D01*
X108177950Y-103315903D01*
X108177950Y-103424228D01*
X108193711Y-103462277D01*
X108193711Y-103462278D01*
X108209470Y-103500325D01*
X108209472Y-103500328D01*
X109192705Y-104483561D01*
X109196132Y-104491834D01*
X109196132Y-106626209D01*
X109192705Y-106634482D01*
X108884470Y-106942716D01*
X108880305Y-106952775D01*
X108880304Y-106952775D01*
X108852950Y-107018812D01*
X108852950Y-107954096D01*
X108852059Y-107958573D01*
X108832900Y-108004824D01*
X108832900Y-108095175D01*
X108858758Y-108157600D01*
X108867474Y-108178642D01*
X108931358Y-108242526D01*
X108983992Y-108264327D01*
X109014824Y-108277099D01*
X109014825Y-108277099D01*
X109014827Y-108277100D01*
X109014829Y-108277100D01*
X109105171Y-108277100D01*
X109105173Y-108277100D01*
X109188642Y-108242526D01*
X109252526Y-108178642D01*
X109287100Y-108095173D01*
X109287100Y-108004827D01*
X109273655Y-107972369D01*
X109267941Y-107958573D01*
X109267050Y-107954096D01*
X109267050Y-107150609D01*
X109270477Y-107142336D01*
X109485518Y-106927295D01*
X109493791Y-106923868D01*
X112129529Y-106923868D01*
X112137802Y-106927295D01*
X112141229Y-106935568D01*
X112137802Y-106943841D01*
X112134006Y-106946377D01*
X112131359Y-106947473D01*
X112067473Y-107011359D01*
X112032900Y-107094824D01*
X112032900Y-107185175D01*
X112067473Y-107268640D01*
X112067474Y-107268642D01*
X112131358Y-107332526D01*
X112140658Y-107336378D01*
X112214824Y-107367099D01*
X112214825Y-107367099D01*
X112214827Y-107367100D01*
X112214829Y-107367100D01*
X112305171Y-107367100D01*
X112305173Y-107367100D01*
X112388642Y-107332526D01*
X112418590Y-107302578D01*
X112426863Y-107299151D01*
X112697493Y-107299151D01*
X112705766Y-107302578D01*
X113557362Y-108154173D01*
X113560789Y-108162446D01*
X113560789Y-108210200D01*
X113595381Y-108293711D01*
X113595382Y-108293713D01*
X113659301Y-108357632D01*
X113683026Y-108367459D01*
X113742813Y-108392224D01*
X113742814Y-108392224D01*
X113742816Y-108392225D01*
X113742818Y-108392225D01*
X113833210Y-108392225D01*
X113833212Y-108392225D01*
X113916727Y-108357632D01*
X113980646Y-108293713D01*
X114015239Y-108210198D01*
X114015239Y-108119802D01*
X114007837Y-108101933D01*
X113993455Y-108067210D01*
X113980646Y-108036287D01*
X113916727Y-107972368D01*
X113916725Y-107972367D01*
X113833214Y-107937775D01*
X113833212Y-107937775D01*
X113785460Y-107937775D01*
X113777187Y-107934348D01*
X112984763Y-107141923D01*
X112977639Y-107134799D01*
X121152775Y-107134799D01*
X121152775Y-107225200D01*
X121183416Y-107299172D01*
X121187368Y-107308713D01*
X121251287Y-107372632D01*
X121283831Y-107386112D01*
X121334799Y-107407224D01*
X121334800Y-107407224D01*
X121334802Y-107407225D01*
X121334804Y-107407225D01*
X121425196Y-107407225D01*
X121425198Y-107407225D01*
X121508713Y-107372632D01*
X121544967Y-107336378D01*
X121553240Y-107332951D01*
X122684960Y-107332951D01*
X122684961Y-107332951D01*
X122684962Y-107332951D01*
X122707018Y-107323815D01*
X122708153Y-107323344D01*
X122708156Y-107323344D01*
X122708163Y-107323344D01*
X122712625Y-107322457D01*
X123016074Y-107322457D01*
X123016075Y-107322457D01*
X123016076Y-107322457D01*
X123039783Y-107312637D01*
X123072292Y-107299172D01*
X123744403Y-106627059D01*
X123752676Y-106623633D01*
X123803946Y-106623633D01*
X123803948Y-106623633D01*
X123887463Y-106589040D01*
X123951382Y-106525121D01*
X123985975Y-106441606D01*
X123985975Y-106351210D01*
X123951382Y-106267695D01*
X123887463Y-106203776D01*
X123887461Y-106203775D01*
X123803950Y-106169183D01*
X123803948Y-106169183D01*
X123713552Y-106169183D01*
X123713549Y-106169183D01*
X123630038Y-106203775D01*
X123566117Y-106267696D01*
X123531525Y-106351207D01*
X123531525Y-106402481D01*
X123528098Y-106410754D01*
X122925724Y-107013128D01*
X122917451Y-107016555D01*
X122634607Y-107016555D01*
X122629159Y-107018812D01*
X122618143Y-107023375D01*
X122611424Y-107026158D01*
X122606947Y-107027049D01*
X121553240Y-107027049D01*
X121544967Y-107023622D01*
X121508714Y-106987369D01*
X121508713Y-106987368D01*
X121502620Y-106984844D01*
X121425200Y-106952775D01*
X121425198Y-106952775D01*
X121334802Y-106952775D01*
X121334799Y-106952775D01*
X121251288Y-106987367D01*
X121187367Y-107051288D01*
X121152775Y-107134799D01*
X112977639Y-107134799D01*
X112854776Y-107011936D01*
X112854775Y-107011935D01*
X112853384Y-107011359D01*
X112814376Y-106995202D01*
X112797644Y-106988271D01*
X112434285Y-106988271D01*
X112426012Y-106984844D01*
X112388643Y-106947475D01*
X112388642Y-106947474D01*
X112385994Y-106946377D01*
X112379662Y-106940045D01*
X112379662Y-106931091D01*
X112385994Y-106924759D01*
X112390471Y-106923868D01*
X113140721Y-106923868D01*
X113140723Y-106923868D01*
X113178772Y-106908107D01*
X113216822Y-106892347D01*
X114216586Y-105892583D01*
X114224859Y-105889156D01*
X126722714Y-105889156D01*
X126722716Y-105889156D01*
X126760765Y-105873395D01*
X126798815Y-105857635D01*
X128029798Y-104626652D01*
X128038071Y-104623225D01*
X128065196Y-104623225D01*
X128065198Y-104623225D01*
X128148713Y-104588632D01*
X128172984Y-104564361D01*
X128181257Y-104560934D01*
X128189530Y-104564361D01*
X128192957Y-104572634D01*
X128192957Y-104791823D01*
X128189530Y-104800096D01*
X128153275Y-104836351D01*
X128118683Y-104919862D01*
X128118683Y-105010263D01*
X128127195Y-105030812D01*
X128153276Y-105093776D01*
X128217195Y-105157695D01*
X128250410Y-105171453D01*
X128300707Y-105192287D01*
X128300708Y-105192287D01*
X128300710Y-105192288D01*
X128300712Y-105192288D01*
X128391104Y-105192288D01*
X128391106Y-105192288D01*
X128474621Y-105157695D01*
X128538540Y-105093776D01*
X128573133Y-105010261D01*
X128573133Y-104919865D01*
X128564060Y-104897962D01*
X128555538Y-104877387D01*
X128538540Y-104836350D01*
X128502286Y-104800096D01*
X128498859Y-104791823D01*
X128498859Y-102804107D01*
X128502286Y-102795834D01*
X128702276Y-102595844D01*
X128909666Y-102388454D01*
X128926130Y-102348702D01*
X128932951Y-102332238D01*
X128932951Y-101603240D01*
X128936378Y-101594967D01*
X128972631Y-101558714D01*
X128972632Y-101558713D01*
X129007225Y-101475198D01*
X129007225Y-101384802D01*
X128972632Y-101301287D01*
X128908713Y-101237368D01*
X128908711Y-101237367D01*
X128825200Y-101202775D01*
X128825198Y-101202775D01*
X128734802Y-101202775D01*
X128734799Y-101202775D01*
X128651288Y-101237367D01*
X128587367Y-101301288D01*
X128552775Y-101384799D01*
X128552775Y-101475200D01*
X128587367Y-101558711D01*
X128587369Y-101558714D01*
X128623622Y-101594967D01*
X128627049Y-101603240D01*
X128627049Y-102233612D01*
X128623622Y-102241885D01*
X128354180Y-102511327D01*
X128345907Y-102514754D01*
X128337634Y-102511327D01*
X127824445Y-101998137D01*
X127824443Y-101998136D01*
X127784693Y-101981672D01*
X127768229Y-101974852D01*
X123172456Y-101974852D01*
X123172455Y-101974852D01*
X123160813Y-101979674D01*
X123149171Y-101984497D01*
X123116242Y-101998136D01*
X123116239Y-101998138D01*
X122284687Y-102829689D01*
X122276414Y-102833116D01*
X122225140Y-102833116D01*
X122141629Y-102867708D01*
X122077708Y-102931629D01*
X122043116Y-103015140D01*
X122043116Y-103105541D01*
X122071816Y-103174827D01*
X122077709Y-103189054D01*
X122141628Y-103252973D01*
X122194291Y-103274786D01*
X122225140Y-103287565D01*
X122225141Y-103287565D01*
X122225143Y-103287566D01*
X122225145Y-103287566D01*
X122315537Y-103287566D01*
X122315539Y-103287566D01*
X122399054Y-103252973D01*
X122462973Y-103189054D01*
X122497566Y-103105539D01*
X122497566Y-103054268D01*
X122500993Y-103045995D01*
X123262807Y-102284181D01*
X123271080Y-102280754D01*
X124643279Y-102280754D01*
X124651552Y-102284181D01*
X124654979Y-102292454D01*
X124651552Y-102300727D01*
X124641867Y-102310412D01*
X124607275Y-102393923D01*
X124607275Y-102445198D01*
X124603848Y-102453471D01*
X122817760Y-104239558D01*
X122809487Y-104242985D01*
X122801214Y-104239558D01*
X122798678Y-104235762D01*
X122767502Y-104160498D01*
X122767501Y-104160496D01*
X122703584Y-104096579D01*
X122703583Y-104096578D01*
X122703581Y-104096577D01*
X122620070Y-104061985D01*
X122620068Y-104061985D01*
X122568797Y-104061985D01*
X122560524Y-104058558D01*
X121988354Y-103486388D01*
X121988353Y-103486387D01*
X121969825Y-103478713D01*
X121948601Y-103469922D01*
X121932137Y-103463102D01*
X110894254Y-103463102D01*
X110885981Y-103459675D01*
X110646641Y-103220335D01*
X110646640Y-103220334D01*
X110606888Y-103203869D01*
X110590424Y-103197049D01*
X110303240Y-103197049D01*
X110294967Y-103193622D01*
X110258714Y-103157369D01*
X110258713Y-103157368D01*
X110258711Y-103157367D01*
X110175200Y-103122775D01*
X110175198Y-103122775D01*
X110084802Y-103122775D01*
X110084799Y-103122775D01*
X110001288Y-103157367D01*
X109937367Y-103221288D01*
X109902775Y-103304799D01*
X109902775Y-103395200D01*
X109937367Y-103478711D01*
X109937368Y-103478713D01*
X110001287Y-103542632D01*
X110053950Y-103564445D01*
X110084799Y-103577224D01*
X110084800Y-103577224D01*
X110084802Y-103577225D01*
X110084804Y-103577225D01*
X110175196Y-103577225D01*
X110175198Y-103577225D01*
X110258713Y-103542632D01*
X110294967Y-103506378D01*
X110303240Y-103502951D01*
X110491799Y-103502951D01*
X110500072Y-103506378D01*
X110550766Y-103557072D01*
X110554193Y-103565345D01*
X110550766Y-103573618D01*
X110546970Y-103576154D01*
X110471359Y-103607473D01*
X110407473Y-103671359D01*
X110372900Y-103754824D01*
X110372900Y-103845175D01*
X110407473Y-103928640D01*
X110407474Y-103928642D01*
X110471358Y-103992526D01*
X110523992Y-104014327D01*
X110554824Y-104027099D01*
X110554825Y-104027099D01*
X110554827Y-104027100D01*
X110605949Y-104027100D01*
X110614222Y-104030527D01*
X110657556Y-104073861D01*
X110660983Y-104082134D01*
X110660983Y-105444005D01*
X110657556Y-105452278D01*
X110621407Y-105488427D01*
X110586834Y-105571892D01*
X110586834Y-105662243D01*
X110621407Y-105745708D01*
X110621408Y-105745710D01*
X110685292Y-105809594D01*
X110737926Y-105831395D01*
X110768758Y-105844167D01*
X110768759Y-105844167D01*
X110768761Y-105844168D01*
X110768763Y-105844168D01*
X110859105Y-105844168D01*
X110859107Y-105844168D01*
X110942576Y-105809594D01*
X111006460Y-105745710D01*
X111041034Y-105662241D01*
X111041034Y-105571895D01*
X111006460Y-105488426D01*
X110970312Y-105452278D01*
X110966885Y-105444005D01*
X110966885Y-103983511D01*
X110966885Y-103983510D01*
X110943599Y-103927294D01*
X110900574Y-103884269D01*
X110830527Y-103814221D01*
X110827100Y-103805948D01*
X110827100Y-103780704D01*
X110830527Y-103772431D01*
X110838800Y-103769004D01*
X110856476Y-103769004D01*
X112444482Y-103769004D01*
X112452755Y-103772431D01*
X112456182Y-103780704D01*
X112455291Y-103785181D01*
X112426198Y-103855414D01*
X112426198Y-103945815D01*
X112460790Y-104029326D01*
X112460792Y-104029329D01*
X112494556Y-104063093D01*
X112497983Y-104071366D01*
X112497983Y-104567937D01*
X112494556Y-104576210D01*
X112131934Y-104938832D01*
X112115202Y-104979229D01*
X112115202Y-104979230D01*
X112108271Y-104995961D01*
X112108271Y-106214392D01*
X112104844Y-106222665D01*
X112071078Y-106256431D01*
X112036486Y-106339942D01*
X112036486Y-106430343D01*
X112062685Y-106493591D01*
X112062685Y-106502545D01*
X112056353Y-106508877D01*
X112051876Y-106509768D01*
X109621932Y-106509768D01*
X109613659Y-106506341D01*
X109610232Y-106498068D01*
X109610232Y-104360041D01*
X109610232Y-104360040D01*
X109594471Y-104321990D01*
X109578711Y-104283941D01*
X109565218Y-104270448D01*
X109561791Y-104262175D01*
X109565218Y-104253902D01*
X109569010Y-104251368D01*
X109638642Y-104222526D01*
X109702526Y-104158642D01*
X109737100Y-104075173D01*
X109737100Y-103984827D01*
X109736554Y-103983510D01*
X109717941Y-103938573D01*
X109717050Y-103934096D01*
X109717050Y-102633816D01*
X109717050Y-102633815D01*
X109704470Y-102603445D01*
X109685529Y-102557716D01*
X109380477Y-102252664D01*
X109377050Y-102244391D01*
X109377050Y-101655903D01*
X109377941Y-101651425D01*
X109397100Y-101605173D01*
X109397100Y-101514827D01*
X109362526Y-101431358D01*
X109298642Y-101367474D01*
X109298640Y-101367473D01*
X109215175Y-101332900D01*
X109215173Y-101332900D01*
X109124827Y-101332900D01*
X109124824Y-101332900D01*
X109041359Y-101367473D01*
X108977473Y-101431359D01*
X108942900Y-101514824D01*
X108942900Y-101514827D01*
X108942900Y-101605173D01*
X108956538Y-101638098D01*
X108962059Y-101651425D01*
X108962950Y-101655903D01*
X108962950Y-102376185D01*
X108970299Y-102393926D01*
X108970299Y-102393927D01*
X108994470Y-102452282D01*
X108994472Y-102452285D01*
X109299523Y-102757336D01*
X109302950Y-102765609D01*
X109302950Y-103934096D01*
X109302059Y-103938572D01*
X109291963Y-103962944D01*
X109288633Y-103970986D01*
X109282301Y-103977317D01*
X109273346Y-103977317D01*
X109269551Y-103974781D01*
X108602350Y-103307580D01*
X108598923Y-103299307D01*
X108599812Y-103294835D01*
X108612100Y-103265173D01*
X108612100Y-103174827D01*
X108577526Y-103091358D01*
X108513642Y-103027474D01*
X108513640Y-103027473D01*
X108430175Y-102992900D01*
X108430173Y-102992900D01*
X108339827Y-102992900D01*
X108339824Y-102992900D01*
X108256359Y-103027473D01*
X108192473Y-103091359D01*
X108157900Y-103174824D01*
X105452645Y-103174824D01*
X105437994Y-103120148D01*
X105429561Y-103105541D01*
X105381765Y-103022755D01*
X105302245Y-102943235D01*
X105204854Y-102887007D01*
X105204853Y-102887006D01*
X105204850Y-102887005D01*
X105204852Y-102887005D01*
X105096232Y-102857900D01*
X105096229Y-102857900D01*
X104983771Y-102857900D01*
X104983768Y-102857900D01*
X104875148Y-102887005D01*
X104777753Y-102943236D01*
X104698236Y-103022753D01*
X104642005Y-103120148D01*
X104612900Y-103228768D01*
X100406882Y-103228768D01*
X100406882Y-101785827D01*
X100564600Y-101785827D01*
X100564600Y-101804200D01*
X100793029Y-101804200D01*
X100790000Y-101815504D01*
X100790000Y-101894496D01*
X100793029Y-101905800D01*
X100564600Y-101905800D01*
X100564600Y-101924172D01*
X100600403Y-102057795D01*
X100600405Y-102057799D01*
X100669572Y-102177599D01*
X100669576Y-102177604D01*
X100767395Y-102275423D01*
X100767400Y-102275427D01*
X100887200Y-102344594D01*
X100887204Y-102344596D01*
X101020827Y-102380399D01*
X101020829Y-102380400D01*
X101339200Y-102380400D01*
X101339200Y-102155000D01*
X101440800Y-102155000D01*
X101440800Y-102380400D01*
X101759171Y-102380400D01*
X101759172Y-102380399D01*
X101892795Y-102344596D01*
X101892799Y-102344594D01*
X102012599Y-102275427D01*
X102012604Y-102275423D01*
X102110423Y-102177604D01*
X102110427Y-102177599D01*
X102179594Y-102057799D01*
X102179596Y-102057795D01*
X102215399Y-101924172D01*
X102215400Y-101924171D01*
X102215400Y-101905800D01*
X101986971Y-101905800D01*
X101990000Y-101894496D01*
X101990000Y-101815504D01*
X101986971Y-101804200D01*
X102215400Y-101804200D01*
X102215400Y-101785829D01*
X102215399Y-101785827D01*
X104494600Y-101785827D01*
X104494600Y-101804200D01*
X104723029Y-101804200D01*
X104720000Y-101815504D01*
X104720000Y-101894496D01*
X104723029Y-101905800D01*
X104494600Y-101905800D01*
X104494600Y-101924172D01*
X104530403Y-102057795D01*
X104530405Y-102057799D01*
X104599572Y-102177599D01*
X104599576Y-102177604D01*
X104697395Y-102275423D01*
X104697400Y-102275427D01*
X104817200Y-102344594D01*
X104817204Y-102344596D01*
X104950827Y-102380399D01*
X104950829Y-102380400D01*
X105519200Y-102380400D01*
X105519200Y-102155000D01*
X105620800Y-102155000D01*
X105620800Y-102380400D01*
X106189171Y-102380400D01*
X106189172Y-102380399D01*
X106322795Y-102344596D01*
X106322799Y-102344594D01*
X106442599Y-102275427D01*
X106442604Y-102275423D01*
X106540423Y-102177604D01*
X106540427Y-102177599D01*
X106609594Y-102057799D01*
X106609596Y-102057795D01*
X106645399Y-101924172D01*
X106645400Y-101924171D01*
X106645400Y-101905800D01*
X106416971Y-101905800D01*
X106420000Y-101894496D01*
X106420000Y-101815504D01*
X106416971Y-101804200D01*
X106645400Y-101804200D01*
X106645400Y-101785829D01*
X106645399Y-101785827D01*
X106609596Y-101652204D01*
X106609594Y-101652200D01*
X106540427Y-101532400D01*
X106540423Y-101532395D01*
X106442604Y-101434576D01*
X106442599Y-101434572D01*
X106322799Y-101365405D01*
X106322795Y-101365403D01*
X106189172Y-101329600D01*
X105620800Y-101329600D01*
X105620800Y-101555000D01*
X105519200Y-101555000D01*
X105519200Y-101329600D01*
X104950827Y-101329600D01*
X104817204Y-101365403D01*
X104817200Y-101365405D01*
X104697400Y-101434572D01*
X104697395Y-101434576D01*
X104599576Y-101532395D01*
X104599572Y-101532400D01*
X104530405Y-101652200D01*
X104530403Y-101652204D01*
X104494600Y-101785827D01*
X102215399Y-101785827D01*
X102179596Y-101652204D01*
X102179594Y-101652200D01*
X102110427Y-101532400D01*
X102110423Y-101532395D01*
X102012604Y-101434576D01*
X102012599Y-101434572D01*
X101892799Y-101365405D01*
X101892795Y-101365403D01*
X101759172Y-101329600D01*
X101440800Y-101329600D01*
X101440800Y-101555000D01*
X101339200Y-101555000D01*
X101339200Y-101329600D01*
X101020827Y-101329600D01*
X100887204Y-101365403D01*
X100887200Y-101365405D01*
X100767400Y-101434572D01*
X100767395Y-101434576D01*
X100669576Y-101532395D01*
X100669572Y-101532400D01*
X100600405Y-101652200D01*
X100600403Y-101652204D01*
X100564600Y-101785827D01*
X100406882Y-101785827D01*
X100406882Y-100318582D01*
X100410309Y-100310309D01*
X100418582Y-100306882D01*
X132806419Y-100306882D01*
X132814692Y-100310309D01*
G37*
%TD.AperFunction*%
%TD*%
M02*
