M48
; DRILL file KiCad 10.0.1 date 2026-06-14T10:20:21
; FORMAT={-:-/ absolute / inch / decimal}
; #@! TF.CreationDate,2026-06-14T10:20:21+02:00
; #@! TF.GenerationSoftware,Kicad,Pcbnew,10.0.1
; #@! TF.FileFunction,Plated,1,2,PTH
FMAT,2
INCH
; #@! TA.AperFunction,Plated,PTH,ViaDrill
T1C0.0059
; #@! TA.AperFunction,Plated,PTH,ViaDrill
T2C0.0059
; #@! TA.AperFunction,Plated,PTH,ViaDrill
T3C0.0163
; #@! TA.AperFunction,Plated,PTH,ComponentDrill
T4C0.0236
%
G90
G05
T1
X4.2669Y-4.2417
X4.2671Y-3.998
X4.2671Y-4.0492
X4.2708Y-4.325
X4.3114Y-4.0957
X4.3328Y-4.325
X4.3543Y-4.0866
X4.3628Y-4.1582
X4.3902Y-4.2181
X4.4197Y-4.2181
X4.5374Y-4.1093
X4.7669Y-4.3272
X4.7925Y-4.3067
X4.8724Y-4.2282
X4.937Y-4.0699
X5.1989Y-4.3869
T2
X3.9744Y-3.965
X3.9758Y-4.1907
X3.9758Y-4.2713
X3.9772Y-4.0449
X3.9783Y-4.3835
X4.0472Y-3.9661
X4.1121Y-4.3751
X4.1142Y-4.0501
X4.1248Y-3.9665
X4.1372Y-4.1672
X4.1523Y-4.2607
X4.1902Y-4.3815
X4.2063Y-3.9673
X4.2595Y-4.0811
X4.2774Y-4.1937
X4.2909Y-3.9654
X4.3331Y-4.0492
X4.3548Y-4.1695
X4.3681Y-3.9665
X4.3753Y-4.3526
X4.4198Y-4.1585
X4.4198Y-4.2585
X4.4352Y-4.0906
X4.4488Y-3.9669
X4.4559Y-4.3526
X4.4795Y-4.2808
X4.518Y-4.1788
X4.526Y-3.9669
X4.5365Y-4.3526
X4.5439Y-4.0474
X4.5987Y-4.1788
X4.6091Y-3.9697
X4.6172Y-4.3526
X4.6328Y-4.1027
X4.6793Y-4.1788
X4.6957Y-3.9646
X4.6978Y-4.3526
X4.7134Y-4.1027
X4.7531Y-4.1944
X4.7588Y-4.0585
X4.7588Y-4.2585
X4.772Y-3.9654
X4.7778Y-4.3561
X4.794Y-4.1027
X4.8181Y-4.1333
X4.8258Y-4.1059
X4.8303Y-4.1463
X4.8379Y-4.2792
X4.8571Y-3.9665
X4.858Y-4.3584
X4.8724Y-4.1888
X4.9147Y-4.033
X4.915Y-4.2695
X4.9189Y-4.1004
X4.937Y-3.9654
X4.9714Y-4.0319
X4.9814Y-4.3865
X5.0157Y-3.9669
X5.0319Y-4.1749
X5.0402Y-4.1101
X5.0674Y-4.2758
X5.0801Y-4.1495
X5.0936Y-3.9922
X5.0948Y-4.3769
X5.135Y-3.9681
X5.1378Y-4.1531
X5.145Y-4.0772
X5.2094Y-4.1335
X5.2157Y-4.3378
T3
X4.1923Y-4.0837
X4.1923Y-4.2766
X4.9204Y-4.1369
X5.0261Y-4.0479
X5.1591Y-4.1128
X5.1752Y-4.2353
T4
G00X4.0035Y-4.01
M15
G01X3.9799Y-4.01
M16
G05
G00X4.0035Y-4.3502
M15
G01X3.9799Y-4.3502
M16
G05
G00X4.178Y-4.01
M15
G01X4.1346Y-4.01
M16
G05
G00X4.178Y-4.3502
M15
G01X4.1346Y-4.3502
M16
G05
M30
