%TF.GenerationSoftware,KiCad,Pcbnew,10.0.1*%
%TF.CreationDate,2026-06-14T10:20:21+02:00*%
%TF.ProjectId,USB-PD-CH224K,5553422d-5044-42d4-9348-3232344b2e6b,rev?*%
%TF.SameCoordinates,Original*%
%TF.FileFunction,Copper,L2,Bot*%
%TF.FilePolarity,Positive*%
%FSLAX46Y46*%
G04 Gerber Fmt 4.6, Leading zero omitted, Abs format (unit mm)*
G04 Created by KiCad (PCBNEW 10.0.1) date 2026-06-14 10:20:21*
%MOMM*%
%LPD*%
G01*
G04 APERTURE LIST*
%TA.AperFunction,ComponentPad*%
%ADD10O,2.100000X1.000000*%
%TD*%
%TA.AperFunction,ComponentPad*%
%ADD11O,1.600000X1.000000*%
%TD*%
%TA.AperFunction,SMDPad,CuDef*%
%ADD12R,1.000000X1.000000*%
%TD*%
%TA.AperFunction,ViaPad*%
%ADD13C,0.250250*%
%TD*%
%TA.AperFunction,ViaPad*%
%ADD14C,0.250000*%
%TD*%
%TA.AperFunction,ViaPad*%
%ADD15C,0.513080*%
%TD*%
%TA.AperFunction,Conductor*%
%ADD16C,0.101702*%
%TD*%
%TA.AperFunction,Conductor*%
%ADD17C,0.513080*%
%TD*%
%TA.AperFunction,Conductor*%
%ADD18C,0.209900*%
%TD*%
%TA.AperFunction,Conductor*%
%ADD19C,0.101600*%
%TD*%
%TA.AperFunction,Conductor*%
%ADD20C,0.106680*%
%TD*%
G04 APERTURE END LIST*
D10*
%TO.P,J1,SH,SHIELD_SH*%
%TO.N,GND*%
X105570000Y-101855000D03*
D11*
X101390000Y-101855000D03*
D10*
X105570000Y-110495000D03*
D11*
X101390000Y-110495000D03*
%TD*%
D12*
%TO.P,TP3,1,1_1*%
%TO.N,+3V3*%
X132052355Y-111428043D03*
%TD*%
%TO.P,TP2,1,1_1*%
%TO.N,GND*%
X132027355Y-106328043D03*
%TD*%
%TO.P,TP1,1,1_1*%
%TO.N,VBUS*%
X132052355Y-101128043D03*
%TD*%
D13*
%TO.N,GND*%
X123393118Y-110703924D03*
X106430800Y-111290714D03*
X123370000Y-100750000D03*
X100950000Y-100710000D03*
X113180127Y-110556423D03*
X117070000Y-100830000D03*
X101050000Y-111340000D03*
X119270000Y-100700000D03*
X121768181Y-104209048D03*
X120729967Y-106538711D03*
X101020000Y-102740000D03*
X126527519Y-111417259D03*
X129408132Y-111172293D03*
X115415770Y-102804444D03*
X111132139Y-110556423D03*
X104770000Y-100750000D03*
X128711094Y-108606218D03*
X113779320Y-108731963D03*
X121210000Y-100720000D03*
X124939731Y-104150562D03*
D14*
X111510000Y-107140000D03*
D13*
X132480000Y-110180000D03*
X116805762Y-106140768D03*
X127809597Y-106041774D03*
X114757773Y-106140768D03*
X108645579Y-106520438D03*
X118853750Y-106140768D03*
X130682174Y-103561941D03*
X108192565Y-103659668D03*
X105467504Y-108220933D03*
X117276104Y-110556423D03*
X104500542Y-102873159D03*
X125400000Y-100720000D03*
X110950000Y-100750000D03*
X100985438Y-108492245D03*
X104446079Y-111128409D03*
X106840000Y-100770000D03*
X122882296Y-108692949D03*
X102800000Y-100740000D03*
X105084609Y-105845810D03*
X119720193Y-104209048D03*
X117672204Y-104209048D03*
X124841050Y-108446502D03*
X115228115Y-110556423D03*
X130500000Y-105490000D03*
X130430000Y-100790000D03*
X110612596Y-105905470D03*
X119324092Y-110556423D03*
X100985438Y-106444257D03*
X121355567Y-110645941D03*
D14*
X115250000Y-104375000D03*
D13*
X132320000Y-104990000D03*
X108990000Y-100720000D03*
D14*
X125400000Y-103375000D03*
D13*
X127400000Y-100760000D03*
X113000000Y-100760000D03*
X114960000Y-100760000D03*
%TO.N,Net-(U1-CFG2)*%
X122379878Y-104985612D03*
X124834500Y-102439124D03*
D14*
%TO.N,VBUS*%
X110052500Y-109855000D03*
X121080000Y-109910000D03*
D15*
X131041563Y-104464234D03*
X131451133Y-107576734D03*
%TO.N,Net-(F2-Pad1)*%
X106485000Y-108625000D03*
D14*
X108477500Y-109855000D03*
D15*
X106485000Y-103725000D03*
D13*
%TO.N,Net-(U1-CFG3)*%
X120873711Y-103085000D03*
X129377355Y-101403043D03*
X129033750Y-105396408D03*
%TO.N,Net-(D4B-K2)*%
X128020000Y-104396000D03*
D14*
X108380000Y-107740000D03*
X108385000Y-102850000D03*
%TO.N,Net-(D4A-K1)*%
X108385000Y-101550000D03*
X109510000Y-104030000D03*
%TO.N,Net-(D4D-K4)*%
X110600000Y-103800000D03*
X110813934Y-105617068D03*
D13*
%TO.N,Net-(D4C-K3)*%
X122574870Y-104289210D03*
X110060000Y-102850000D03*
D15*
%TO.N,Net-(U1-VBUS)*%
X124977145Y-105076398D03*
X127662802Y-102816056D03*
D13*
%TO.N,Net-(U1-CFG1)*%
X123758750Y-106396408D03*
X126272487Y-102410813D03*
X122690861Y-105316975D03*
X120873711Y-108165000D03*
D14*
%TO.N,/PG*%
X121730000Y-109390000D03*
X123758750Y-107396408D03*
%TO.N,+3V3*%
X112260000Y-107140000D03*
D13*
X112653423Y-103900615D03*
X112263711Y-108165000D03*
D14*
X132052355Y-111428043D03*
D13*
X112263711Y-105625000D03*
%TD*%
%TO.N,Net-(U1-CFG2)*%
D16*
X122379878Y-104893747D02*
X124834500Y-102439124D01*
X122379878Y-104985612D02*
X122379878Y-104893747D01*
%TO.N,VBUS*%
D17*
X131041563Y-106978437D02*
X131041563Y-104464234D01*
X130586669Y-107682455D02*
X131345412Y-107682455D01*
X130586669Y-107433331D02*
X131041563Y-106978437D01*
X131345412Y-107682455D02*
X131451133Y-107576734D01*
X110052500Y-109855000D02*
X110052500Y-109905000D01*
X128133228Y-109960000D02*
X128083228Y-109910000D01*
X110057500Y-109910000D02*
X121080000Y-109910000D01*
X130586669Y-107682455D02*
X130586669Y-107433331D01*
X128133228Y-109960000D02*
X128309124Y-109960000D01*
X131041563Y-104254248D02*
X132052500Y-103243311D01*
X131041563Y-104464234D02*
X131041563Y-104254248D01*
X128309124Y-109960000D02*
X130586669Y-107682455D01*
X132052500Y-103243311D02*
X132052500Y-101128000D01*
X110052500Y-109905000D02*
X110057500Y-109910000D01*
X128083228Y-109910000D02*
X121080000Y-109910000D01*
%TO.N,Net-(F2-Pad1)*%
X108015000Y-108625000D02*
X106485000Y-108625000D01*
X107582313Y-104822313D02*
X106485000Y-103725000D01*
X108452500Y-109062500D02*
X108015000Y-108625000D01*
X108452500Y-109830000D02*
X108452500Y-109062500D01*
X107151622Y-108625000D02*
X107582313Y-108194309D01*
X107582313Y-108194309D02*
X107582313Y-104822313D01*
X108477500Y-109855000D02*
X108452500Y-109830000D01*
X106485000Y-108625000D02*
X107151622Y-108625000D01*
%TO.N,Net-(U1-CFG3)*%
D16*
X128969522Y-101810876D02*
X128969522Y-102112292D01*
X128969522Y-102112292D02*
X128345908Y-102735906D01*
X123202880Y-102127803D02*
X127737805Y-102127803D01*
X120873711Y-103085000D02*
X122245683Y-103085000D01*
X129033750Y-105396408D02*
X128777253Y-105396408D01*
X129377355Y-101403043D02*
X128969522Y-101810876D01*
X127737805Y-102127803D02*
X128345908Y-102735906D01*
X128777253Y-105396408D02*
X128345908Y-104965063D01*
X122245683Y-103085000D02*
X123202880Y-102127803D01*
X128345908Y-104965063D02*
X128345908Y-102735906D01*
%TO.N,Net-(D4B-K2)*%
D18*
X109403182Y-106716818D02*
X108380000Y-107740000D01*
X128020000Y-104396000D02*
X127967637Y-104396000D01*
X126681531Y-105682106D02*
X114134250Y-105682106D01*
X127967637Y-104396000D02*
X126681531Y-105682106D01*
X114134250Y-105682106D02*
X113099538Y-106716818D01*
X109403182Y-104401225D02*
X108385000Y-103383043D01*
X108385000Y-103383043D02*
X108385000Y-102850000D01*
X109403182Y-106716818D02*
X109403182Y-104401225D01*
X113099538Y-106716818D02*
X109403182Y-106716818D01*
%TO.N,Net-(D4A-K1)*%
X109510000Y-104030000D02*
X109510000Y-102675000D01*
X109510000Y-102675000D02*
X108385000Y-101550000D01*
%TO.N,Net-(D4D-K4)*%
D16*
X110813934Y-104013934D02*
X110600000Y-103800000D01*
X110813934Y-105617068D02*
X110813934Y-104013934D01*
%TO.N,Net-(D4C-K3)*%
X121901713Y-103616053D02*
X122574870Y-104289210D01*
X110826053Y-103616053D02*
X121901713Y-103616053D01*
X110060000Y-102850000D02*
X110826053Y-103616053D01*
%TO.N,Net-(U1-VBUS)*%
D17*
X127662802Y-102816056D02*
X125402461Y-105076398D01*
X125402461Y-105076398D02*
X124977145Y-105076398D01*
%TO.N,Net-(U1-CFG1)*%
D16*
X121669538Y-108165000D02*
X122665032Y-107169506D01*
X122665032Y-107169506D02*
X122985652Y-107169506D01*
X122690861Y-105316975D02*
X124261836Y-103746000D01*
X120873711Y-108165000D02*
X121669538Y-108165000D01*
X124261836Y-103746000D02*
X125798350Y-103746000D01*
X122985652Y-107169506D02*
X123758750Y-106396408D01*
X125798350Y-103746000D02*
X126272487Y-103271863D01*
X126272487Y-103271863D02*
X126272487Y-102410813D01*
%TO.N,/PG*%
D19*
X121765158Y-109390000D02*
X123758750Y-107396408D01*
X121730000Y-109390000D02*
X121765158Y-109390000D01*
%TO.N,+3V3*%
D20*
X132052355Y-111428043D02*
X132052457Y-111428043D01*
X112263711Y-105625000D02*
X112263711Y-105026881D01*
X112653423Y-104637169D02*
X112653423Y-103900615D01*
X112263711Y-107143711D02*
X112260000Y-107140000D01*
X112263711Y-105026881D02*
X112653423Y-104637169D01*
X112263711Y-108165000D02*
X112263711Y-107143711D01*
X132052457Y-111428043D02*
X132052500Y-111428000D01*
%TD*%
%TA.AperFunction,Conductor*%
%TO.N,GND*%
G36*
X109835423Y-103085927D02*
G01*
X109860061Y-103110565D01*
X109934313Y-103153434D01*
X109934315Y-103153434D01*
X109934316Y-103153435D01*
X109934314Y-103153435D01*
X109987741Y-103167750D01*
X110017128Y-103175624D01*
X110017130Y-103175625D01*
X110017131Y-103175625D01*
X110025315Y-103175625D01*
X110033588Y-103179052D01*
X110388831Y-103534295D01*
X110392258Y-103542568D01*
X110388831Y-103550841D01*
X110339536Y-103600136D01*
X110339532Y-103600141D01*
X110296682Y-103674359D01*
X110296680Y-103674363D01*
X110274500Y-103757144D01*
X110274500Y-103842855D01*
X110296680Y-103925636D01*
X110296682Y-103925640D01*
X110339532Y-103999858D01*
X110339534Y-103999861D01*
X110339535Y-103999862D01*
X110400138Y-104060465D01*
X110400139Y-104060466D01*
X110400141Y-104060467D01*
X110474359Y-104103317D01*
X110474363Y-104103319D01*
X110553911Y-104124633D01*
X110561015Y-104130084D01*
X110562583Y-104135934D01*
X110562583Y-105403246D01*
X110559156Y-105411519D01*
X110553470Y-105417204D01*
X110553466Y-105417209D01*
X110510616Y-105491427D01*
X110510614Y-105491431D01*
X110488434Y-105574212D01*
X110488434Y-105659923D01*
X110510614Y-105742704D01*
X110510616Y-105742708D01*
X110553466Y-105816926D01*
X110553468Y-105816929D01*
X110553469Y-105816930D01*
X110614072Y-105877533D01*
X110614073Y-105877534D01*
X110614075Y-105877535D01*
X110688293Y-105920385D01*
X110688297Y-105920387D01*
X110753583Y-105937879D01*
X110771078Y-105942567D01*
X110771080Y-105942568D01*
X110771081Y-105942568D01*
X110856788Y-105942568D01*
X110856788Y-105942567D01*
X110898179Y-105931477D01*
X110939570Y-105920387D01*
X110939574Y-105920385D01*
X110999884Y-105885565D01*
X111013796Y-105877533D01*
X111074399Y-105816930D01*
X111117252Y-105742706D01*
X111122792Y-105722033D01*
X111128737Y-105699842D01*
X111139434Y-105659921D01*
X111139434Y-105574215D01*
X111119365Y-105499315D01*
X111117253Y-105491431D01*
X111117251Y-105491427D01*
X111074401Y-105417209D01*
X111074397Y-105417204D01*
X111068712Y-105411519D01*
X111065285Y-105403246D01*
X111065285Y-103963938D01*
X111065284Y-103963934D01*
X111032001Y-103883581D01*
X111032001Y-103874627D01*
X111038333Y-103868295D01*
X111042810Y-103867404D01*
X112316098Y-103867404D01*
X112324371Y-103870831D01*
X112327798Y-103879104D01*
X112327798Y-103943486D01*
X112349987Y-104026299D01*
X112351342Y-104028646D01*
X112388246Y-104092566D01*
X112392859Y-104100555D01*
X112396156Y-104103852D01*
X112399583Y-104112125D01*
X112399583Y-104527179D01*
X112396156Y-104535452D01*
X112048515Y-104883093D01*
X112009871Y-104976386D01*
X112009871Y-105413490D01*
X112006444Y-105421763D01*
X112003147Y-105425059D01*
X111960275Y-105499315D01*
X111938086Y-105582128D01*
X111938086Y-105667871D01*
X111960275Y-105750684D01*
X111960277Y-105750687D01*
X112003146Y-105824939D01*
X112063772Y-105885565D01*
X112138024Y-105928434D01*
X112138026Y-105928434D01*
X112138027Y-105928435D01*
X112138025Y-105928435D01*
X112203338Y-105945934D01*
X112220839Y-105950624D01*
X112220841Y-105950625D01*
X112220842Y-105950625D01*
X112306581Y-105950625D01*
X112306581Y-105950624D01*
X112364792Y-105935027D01*
X112389395Y-105928435D01*
X112389395Y-105928434D01*
X112389398Y-105928434D01*
X112463650Y-105885565D01*
X112524276Y-105824939D01*
X112567145Y-105750687D01*
X112589336Y-105667869D01*
X112589336Y-105582131D01*
X112582742Y-105557525D01*
X112567146Y-105499315D01*
X112562592Y-105491427D01*
X112524276Y-105425061D01*
X112520978Y-105421763D01*
X112517551Y-105413490D01*
X112517551Y-105136871D01*
X112520978Y-105128598D01*
X112868617Y-104780959D01*
X112868618Y-104780958D01*
X112907263Y-104687661D01*
X112907263Y-104586677D01*
X112907263Y-104112125D01*
X112910690Y-104103852D01*
X112911225Y-104103317D01*
X112913988Y-104100554D01*
X112956857Y-104026302D01*
X112979048Y-103943484D01*
X112979048Y-103879104D01*
X112982475Y-103870831D01*
X112990748Y-103867404D01*
X121792754Y-103867404D01*
X121801027Y-103870831D01*
X122245818Y-104315622D01*
X122249245Y-104323895D01*
X122249245Y-104332081D01*
X122271434Y-104414894D01*
X122314306Y-104489150D01*
X122363385Y-104538229D01*
X122366812Y-104546502D01*
X122363385Y-104554775D01*
X122237499Y-104680662D01*
X122212198Y-104705961D01*
X122209775Y-104707820D01*
X122179943Y-104725044D01*
X122179937Y-104725048D01*
X122119314Y-104785671D01*
X122076442Y-104859927D01*
X122054253Y-104942740D01*
X122054253Y-105028483D01*
X122076442Y-105111296D01*
X122082512Y-105121809D01*
X122119313Y-105185551D01*
X122179939Y-105246177D01*
X122254191Y-105289046D01*
X122254193Y-105289046D01*
X122254194Y-105289047D01*
X122254192Y-105289047D01*
X122319505Y-105306546D01*
X122337006Y-105311236D01*
X122337008Y-105311237D01*
X122337009Y-105311237D01*
X122353536Y-105311237D01*
X122361809Y-105314664D01*
X122365236Y-105322937D01*
X122365236Y-105359845D01*
X122365794Y-105361927D01*
X122364626Y-105370805D01*
X122357522Y-105376257D01*
X122354493Y-105376656D01*
X114175188Y-105376656D01*
X114175172Y-105376655D01*
X114174463Y-105376655D01*
X114094037Y-105376655D01*
X114094034Y-105376655D01*
X114016353Y-105397470D01*
X113946697Y-105437686D01*
X112976443Y-106407941D01*
X112968170Y-106411368D01*
X109720332Y-106411368D01*
X109712059Y-106407941D01*
X109708632Y-106399668D01*
X109708632Y-104361011D01*
X109708631Y-104361009D01*
X109694749Y-104309201D01*
X109695917Y-104300325D01*
X109700200Y-104296042D01*
X109709862Y-104290465D01*
X109770465Y-104229862D01*
X109813318Y-104155638D01*
X109814406Y-104151580D01*
X109828077Y-104100555D01*
X109835500Y-104072853D01*
X109835500Y-103987147D01*
X109815849Y-103913807D01*
X109815450Y-103910779D01*
X109815450Y-103094200D01*
X109818877Y-103085927D01*
X109827150Y-103082500D01*
X109835423Y-103085927D01*
G37*
%TD.AperFunction*%
%TA.AperFunction,Conductor*%
G36*
X125815183Y-104000778D02*
G01*
X125818610Y-104009051D01*
X125815183Y-104017324D01*
X125216576Y-104615931D01*
X125208303Y-104619358D01*
X124916972Y-104619358D01*
X124800735Y-104650502D01*
X124800731Y-104650504D01*
X124696519Y-104710672D01*
X124696514Y-104710676D01*
X124611423Y-104795767D01*
X124611419Y-104795772D01*
X124551251Y-104899984D01*
X124551249Y-104899988D01*
X124520105Y-105016225D01*
X124520105Y-105136570D01*
X124551249Y-105252807D01*
X124551251Y-105252811D01*
X124611419Y-105357023D01*
X124611889Y-105357635D01*
X124611572Y-105357877D01*
X124614505Y-105364956D01*
X124611078Y-105373229D01*
X124602805Y-105376656D01*
X123027229Y-105376656D01*
X123018956Y-105373229D01*
X123015529Y-105364956D01*
X123015559Y-105364116D01*
X123015638Y-105363005D01*
X123016486Y-105359844D01*
X123016486Y-105351236D01*
X123016516Y-105350820D01*
X123018349Y-105347160D01*
X123019913Y-105343387D01*
X124362522Y-104000778D01*
X124370795Y-103997351D01*
X125748353Y-103997351D01*
X125806910Y-103997351D01*
X125815183Y-104000778D01*
G37*
%TD.AperFunction*%
%TA.AperFunction,Conductor*%
G36*
X125943435Y-102382581D02*
G01*
X125946862Y-102390854D01*
X125946862Y-102453684D01*
X125969051Y-102536497D01*
X125980946Y-102557100D01*
X125999672Y-102589535D01*
X126011923Y-102610753D01*
X126017709Y-102616539D01*
X126021136Y-102624812D01*
X126021136Y-103162904D01*
X126017709Y-103171177D01*
X125697664Y-103491222D01*
X125689391Y-103494649D01*
X124211836Y-103494649D01*
X124134049Y-103526870D01*
X124125095Y-103526870D01*
X124118763Y-103520538D01*
X124118763Y-103511584D01*
X124121296Y-103507791D01*
X124860912Y-102768176D01*
X124869185Y-102764749D01*
X124877370Y-102764749D01*
X124877370Y-102764748D01*
X124937201Y-102748717D01*
X124960184Y-102742559D01*
X124960184Y-102742558D01*
X124960187Y-102742558D01*
X125034439Y-102699689D01*
X125095065Y-102639063D01*
X125137934Y-102564811D01*
X125160125Y-102481993D01*
X125160125Y-102396255D01*
X125159489Y-102393881D01*
X125160659Y-102385003D01*
X125167764Y-102379552D01*
X125170791Y-102379154D01*
X125935162Y-102379154D01*
X125943435Y-102382581D01*
G37*
%TD.AperFunction*%
%TA.AperFunction,Conductor*%
G36*
X131382822Y-100503927D02*
G01*
X131386249Y-100512200D01*
X131384277Y-100518700D01*
X131363488Y-100549811D01*
X131351855Y-100608295D01*
X131351855Y-101647790D01*
X131363488Y-101706274D01*
X131392613Y-101749863D01*
X131407803Y-101772595D01*
X131474124Y-101816910D01*
X131532607Y-101828543D01*
X131583760Y-101828543D01*
X131592033Y-101831970D01*
X131595460Y-101840243D01*
X131595460Y-103049153D01*
X131592033Y-103057426D01*
X130675841Y-103973617D01*
X130675837Y-103973622D01*
X130615669Y-104077834D01*
X130615668Y-104077838D01*
X130587749Y-104182039D01*
X130587749Y-104182040D01*
X130584523Y-104194076D01*
X130584523Y-106784278D01*
X130581096Y-106792551D01*
X130220947Y-107152700D01*
X130220943Y-107152705D01*
X130160775Y-107256917D01*
X130160774Y-107256921D01*
X130133449Y-107358906D01*
X130133449Y-107358907D01*
X130129629Y-107373159D01*
X130129629Y-107488296D01*
X130126202Y-107496569D01*
X128169006Y-109453764D01*
X128160733Y-109457191D01*
X128157705Y-109456792D01*
X128143401Y-109452960D01*
X128143399Y-109452960D01*
X128143398Y-109452960D01*
X122085836Y-109452960D01*
X122077563Y-109449533D01*
X122074136Y-109441260D01*
X122077563Y-109432987D01*
X123785215Y-107725335D01*
X123793488Y-107721908D01*
X123801604Y-107721908D01*
X123801604Y-107721907D01*
X123842995Y-107710817D01*
X123884386Y-107699727D01*
X123884390Y-107699725D01*
X123927324Y-107674937D01*
X123958612Y-107656873D01*
X124019215Y-107596270D01*
X124062068Y-107522046D01*
X124063538Y-107516563D01*
X124073459Y-107479535D01*
X124084250Y-107439261D01*
X124084250Y-107353555D01*
X124079561Y-107336057D01*
X124062069Y-107270771D01*
X124062067Y-107270767D01*
X124019217Y-107196549D01*
X124019213Y-107196544D01*
X123958613Y-107135944D01*
X123958608Y-107135940D01*
X123884390Y-107093090D01*
X123884386Y-107093088D01*
X123801605Y-107070908D01*
X123801603Y-107070908D01*
X123715897Y-107070908D01*
X123715894Y-107070908D01*
X123633113Y-107093088D01*
X123633109Y-107093090D01*
X123558891Y-107135940D01*
X123558886Y-107135944D01*
X123498286Y-107196544D01*
X123498282Y-107196549D01*
X123455432Y-107270767D01*
X123455430Y-107270771D01*
X123433250Y-107353552D01*
X123433250Y-107361670D01*
X123429823Y-107369943D01*
X121738693Y-109061073D01*
X121730420Y-109064500D01*
X121687144Y-109064500D01*
X121604363Y-109086680D01*
X121604359Y-109086682D01*
X121530141Y-109129532D01*
X121530136Y-109129536D01*
X121469536Y-109190136D01*
X121469532Y-109190141D01*
X121426682Y-109264359D01*
X121426680Y-109264363D01*
X121404500Y-109347144D01*
X121404500Y-109432854D01*
X121405941Y-109438231D01*
X121404773Y-109447109D01*
X121397669Y-109452561D01*
X121394640Y-109452960D01*
X110273361Y-109452960D01*
X110267511Y-109451392D01*
X110228913Y-109429106D01*
X110228909Y-109429104D01*
X110112672Y-109397960D01*
X110112670Y-109397960D01*
X109992330Y-109397960D01*
X109992327Y-109397960D01*
X109876090Y-109429104D01*
X109876086Y-109429106D01*
X109771874Y-109489274D01*
X109771869Y-109489278D01*
X109686778Y-109574369D01*
X109686774Y-109574374D01*
X109626606Y-109678586D01*
X109626604Y-109678590D01*
X109595460Y-109794827D01*
X109595460Y-109965173D01*
X109626604Y-110081409D01*
X109626606Y-110081413D01*
X109686774Y-110185625D01*
X109686776Y-110185628D01*
X109686777Y-110185629D01*
X109776870Y-110275723D01*
X109776871Y-110275724D01*
X109776873Y-110275725D01*
X109881086Y-110335893D01*
X109881090Y-110335895D01*
X109972761Y-110360457D01*
X109997326Y-110367039D01*
X109997328Y-110367040D01*
X109997329Y-110367040D01*
X109997330Y-110367040D01*
X121019830Y-110367040D01*
X127921027Y-110367040D01*
X127926877Y-110368608D01*
X127956814Y-110385893D01*
X127956818Y-110385895D01*
X128048489Y-110410457D01*
X128073055Y-110417039D01*
X128073057Y-110417040D01*
X128073058Y-110417040D01*
X128369296Y-110417040D01*
X128369296Y-110417039D01*
X128427415Y-110401467D01*
X128485533Y-110385895D01*
X128485537Y-110385893D01*
X128520274Y-110365837D01*
X128589753Y-110325723D01*
X130772554Y-108142922D01*
X130780827Y-108139495D01*
X131405584Y-108139495D01*
X131405584Y-108139494D01*
X131470391Y-108122130D01*
X131521821Y-108108350D01*
X131521825Y-108108348D01*
X131556562Y-108088292D01*
X131626041Y-108048178D01*
X131816856Y-107857364D01*
X131877027Y-107753145D01*
X131908173Y-107636905D01*
X131908173Y-107516564D01*
X131898251Y-107479532D01*
X131877028Y-107400324D01*
X131877026Y-107400320D01*
X131816858Y-107296108D01*
X131816854Y-107296103D01*
X131731763Y-107211012D01*
X131731758Y-107211008D01*
X131627546Y-107150840D01*
X131627542Y-107150838D01*
X131511305Y-107119694D01*
X131511303Y-107119694D01*
X131492123Y-107119694D01*
X131483850Y-107116267D01*
X131480423Y-107107994D01*
X131480822Y-107104966D01*
X131482917Y-107097147D01*
X131498603Y-107038608D01*
X131498603Y-106918267D01*
X131498603Y-106861269D01*
X131502030Y-106852996D01*
X131510303Y-106849569D01*
X131516806Y-106851542D01*
X131517446Y-106851970D01*
X131524856Y-106853443D01*
X131976555Y-106853443D01*
X132078155Y-106853443D01*
X132529854Y-106853443D01*
X132537266Y-106851969D01*
X132545667Y-106846356D01*
X132545668Y-106846355D01*
X132551281Y-106837954D01*
X132552755Y-106830542D01*
X132552755Y-106378843D01*
X132078155Y-106378843D01*
X132078155Y-106853443D01*
X131976555Y-106853443D01*
X131976555Y-106277243D01*
X132078155Y-106277243D01*
X132552755Y-106277243D01*
X132552755Y-105825543D01*
X132551281Y-105818131D01*
X132545668Y-105809730D01*
X132545667Y-105809729D01*
X132537266Y-105804116D01*
X132529854Y-105802643D01*
X132078155Y-105802643D01*
X132078155Y-106277243D01*
X131976555Y-106277243D01*
X131976555Y-105802643D01*
X131524856Y-105802643D01*
X131517443Y-105804116D01*
X131517441Y-105804117D01*
X131516801Y-105804545D01*
X131508018Y-105806291D01*
X131500574Y-105801314D01*
X131498603Y-105794816D01*
X131498603Y-104448406D01*
X131502030Y-104440133D01*
X131956389Y-103985774D01*
X132418223Y-103523940D01*
X132464164Y-103444369D01*
X132478393Y-103419724D01*
X132478395Y-103419720D01*
X132509539Y-103303483D01*
X132509540Y-103303482D01*
X132509540Y-101840243D01*
X132512967Y-101831970D01*
X132521240Y-101828543D01*
X132572102Y-101828543D01*
X132572103Y-101828543D01*
X132610518Y-101820901D01*
X132619300Y-101822648D01*
X132624275Y-101830093D01*
X132624500Y-101832376D01*
X132624500Y-110723708D01*
X132621073Y-110731981D01*
X132612800Y-110735408D01*
X132610518Y-110735183D01*
X132572103Y-110727543D01*
X131532607Y-110727543D01*
X131520627Y-110729926D01*
X131474123Y-110739176D01*
X131407803Y-110783490D01*
X131407802Y-110783491D01*
X131363488Y-110849811D01*
X131351855Y-110908295D01*
X131351855Y-111937800D01*
X131348428Y-111946073D01*
X131340155Y-111949500D01*
X100612200Y-111949500D01*
X100603927Y-111946073D01*
X100600500Y-111937800D01*
X100600500Y-110741626D01*
X100603927Y-110733353D01*
X100612200Y-110729926D01*
X100620473Y-110733353D01*
X100622333Y-110735776D01*
X100669576Y-110817604D01*
X100767395Y-110915423D01*
X100767400Y-110915427D01*
X100887200Y-110984594D01*
X100887204Y-110984596D01*
X101020827Y-111020399D01*
X101020829Y-111020400D01*
X101339200Y-111020400D01*
X101339200Y-110795000D01*
X101440800Y-110795000D01*
X101440800Y-111020400D01*
X101759171Y-111020400D01*
X101759172Y-111020399D01*
X101892795Y-110984596D01*
X101892799Y-110984594D01*
X102012599Y-110915427D01*
X102012604Y-110915423D01*
X102110423Y-110817604D01*
X102110427Y-110817599D01*
X102179594Y-110697799D01*
X102179596Y-110697795D01*
X102215399Y-110564172D01*
X102215400Y-110564171D01*
X102215400Y-110545800D01*
X101986971Y-110545800D01*
X101990000Y-110534496D01*
X101990000Y-110455504D01*
X101986971Y-110444200D01*
X102215400Y-110444200D01*
X102215400Y-110425829D01*
X102215399Y-110425827D01*
X104494600Y-110425827D01*
X104494600Y-110444200D01*
X104723029Y-110444200D01*
X104720000Y-110455504D01*
X104720000Y-110534496D01*
X104723029Y-110545800D01*
X104494600Y-110545800D01*
X104494600Y-110564172D01*
X104530403Y-110697795D01*
X104530405Y-110697799D01*
X104599572Y-110817599D01*
X104599576Y-110817604D01*
X104697395Y-110915423D01*
X104697400Y-110915427D01*
X104817200Y-110984594D01*
X104817204Y-110984596D01*
X104950827Y-111020399D01*
X104950829Y-111020400D01*
X105519200Y-111020400D01*
X105519200Y-110795000D01*
X105620800Y-110795000D01*
X105620800Y-111020400D01*
X106189171Y-111020400D01*
X106189172Y-111020399D01*
X106322795Y-110984596D01*
X106322799Y-110984594D01*
X106442599Y-110915427D01*
X106442604Y-110915423D01*
X106540423Y-110817604D01*
X106540427Y-110817599D01*
X106609594Y-110697799D01*
X106609596Y-110697795D01*
X106645399Y-110564172D01*
X106645400Y-110564171D01*
X106645400Y-110545800D01*
X106416971Y-110545800D01*
X106420000Y-110534496D01*
X106420000Y-110455504D01*
X106416971Y-110444200D01*
X106645400Y-110444200D01*
X106645400Y-110425829D01*
X106645399Y-110425827D01*
X106609596Y-110292204D01*
X106609594Y-110292200D01*
X106540427Y-110172400D01*
X106540423Y-110172395D01*
X106442604Y-110074576D01*
X106442599Y-110074572D01*
X106322799Y-110005405D01*
X106322795Y-110005403D01*
X106189172Y-109969600D01*
X105620800Y-109969600D01*
X105620800Y-110195000D01*
X105519200Y-110195000D01*
X105519200Y-109969600D01*
X104950827Y-109969600D01*
X104817204Y-110005403D01*
X104817200Y-110005405D01*
X104697400Y-110074572D01*
X104697395Y-110074576D01*
X104599576Y-110172395D01*
X104599572Y-110172400D01*
X104530405Y-110292200D01*
X104530403Y-110292204D01*
X104494600Y-110425827D01*
X102215399Y-110425827D01*
X102179596Y-110292204D01*
X102179594Y-110292200D01*
X102110427Y-110172400D01*
X102110423Y-110172395D01*
X102012604Y-110074576D01*
X102012599Y-110074572D01*
X101892799Y-110005405D01*
X101892795Y-110005403D01*
X101759172Y-109969600D01*
X101440800Y-109969600D01*
X101440800Y-110195000D01*
X101339200Y-110195000D01*
X101339200Y-109969600D01*
X101020827Y-109969600D01*
X100887204Y-110005403D01*
X100887200Y-110005405D01*
X100767400Y-110074572D01*
X100767395Y-110074576D01*
X100669576Y-110172395D01*
X100669572Y-110172400D01*
X100622332Y-110254223D01*
X100615228Y-110259674D01*
X100606350Y-110258505D01*
X100600899Y-110251401D01*
X100600500Y-110248373D01*
X100600500Y-108989231D01*
X104464500Y-108989231D01*
X104464500Y-109140768D01*
X104503717Y-109287133D01*
X104503719Y-109287137D01*
X104579482Y-109418361D01*
X104579484Y-109418364D01*
X104579485Y-109418365D01*
X104686635Y-109525515D01*
X104686636Y-109525516D01*
X104686638Y-109525517D01*
X104817862Y-109601280D01*
X104817866Y-109601282D01*
X104933299Y-109632211D01*
X104964231Y-109640499D01*
X104964233Y-109640500D01*
X104964234Y-109640500D01*
X105115767Y-109640500D01*
X105115767Y-109640499D01*
X105188950Y-109620890D01*
X105262133Y-109601282D01*
X105262137Y-109601280D01*
X105308748Y-109574369D01*
X105393365Y-109525515D01*
X105500515Y-109418365D01*
X105576281Y-109287135D01*
X105615500Y-109140766D01*
X105615500Y-108989234D01*
X105593099Y-108905630D01*
X105576282Y-108842866D01*
X105576280Y-108842862D01*
X105500517Y-108711638D01*
X105500513Y-108711633D01*
X105393366Y-108604486D01*
X105393361Y-108604482D01*
X105262137Y-108528719D01*
X105262133Y-108528717D01*
X105115768Y-108489500D01*
X105115766Y-108489500D01*
X104964234Y-108489500D01*
X104964231Y-108489500D01*
X104817866Y-108528717D01*
X104817862Y-108528719D01*
X104686638Y-108604482D01*
X104686633Y-108604486D01*
X104579486Y-108711633D01*
X104579482Y-108711638D01*
X104503719Y-108842862D01*
X104503717Y-108842866D01*
X104464500Y-108989231D01*
X100600500Y-108989231D01*
X100600500Y-103209231D01*
X104464500Y-103209231D01*
X104464500Y-103360768D01*
X104503717Y-103507133D01*
X104503719Y-103507137D01*
X104579482Y-103638361D01*
X104579484Y-103638364D01*
X104579485Y-103638365D01*
X104686635Y-103745515D01*
X104686636Y-103745516D01*
X104686638Y-103745517D01*
X104817862Y-103821280D01*
X104817866Y-103821282D01*
X104933299Y-103852211D01*
X104964231Y-103860499D01*
X104964233Y-103860500D01*
X104964234Y-103860500D01*
X105115767Y-103860500D01*
X105115767Y-103860499D01*
X105188950Y-103840890D01*
X105262133Y-103821282D01*
X105262137Y-103821280D01*
X105349880Y-103770621D01*
X105393365Y-103745515D01*
X105474054Y-103664826D01*
X106027960Y-103664826D01*
X106027960Y-103785173D01*
X106059104Y-103901409D01*
X106059106Y-103901413D01*
X106119274Y-104005625D01*
X106119278Y-104005630D01*
X107121846Y-105008198D01*
X107125273Y-105016471D01*
X107125273Y-108000150D01*
X107121846Y-108008423D01*
X106965737Y-108164533D01*
X106957464Y-108167960D01*
X106424827Y-108167960D01*
X106308590Y-108199104D01*
X106308586Y-108199106D01*
X106204374Y-108259274D01*
X106204369Y-108259278D01*
X106119278Y-108344369D01*
X106119274Y-108344374D01*
X106059106Y-108448586D01*
X106059104Y-108448590D01*
X106027960Y-108564827D01*
X106027960Y-108685172D01*
X106059104Y-108801409D01*
X106059106Y-108801413D01*
X106119274Y-108905625D01*
X106119276Y-108905628D01*
X106119277Y-108905629D01*
X106204371Y-108990723D01*
X106204372Y-108990724D01*
X106204374Y-108990725D01*
X106308586Y-109050893D01*
X106308590Y-109050895D01*
X106400261Y-109075457D01*
X106424827Y-109082039D01*
X106424829Y-109082040D01*
X106424830Y-109082040D01*
X107091451Y-109082040D01*
X107211793Y-109082040D01*
X107820842Y-109082040D01*
X107829115Y-109085467D01*
X107992033Y-109248385D01*
X107995460Y-109256658D01*
X107995460Y-109890173D01*
X108026604Y-110006409D01*
X108026606Y-110006413D01*
X108086774Y-110110625D01*
X108086776Y-110110628D01*
X108086777Y-110110629D01*
X108196870Y-110220722D01*
X108196871Y-110220723D01*
X108196873Y-110220724D01*
X108301086Y-110280893D01*
X108301090Y-110280895D01*
X108392761Y-110305457D01*
X108417326Y-110312039D01*
X108417328Y-110312040D01*
X108417329Y-110312040D01*
X108537671Y-110312040D01*
X108537671Y-110312039D01*
X108611716Y-110292200D01*
X108653909Y-110280895D01*
X108653913Y-110280893D01*
X108710237Y-110248373D01*
X108758129Y-110220722D01*
X108843222Y-110135629D01*
X108903394Y-110031411D01*
X108934540Y-109915170D01*
X108934540Y-109794829D01*
X108934539Y-109794827D01*
X108934539Y-109794826D01*
X108909939Y-109703015D01*
X108909540Y-109699987D01*
X108909540Y-109002328D01*
X108906430Y-108990725D01*
X108906419Y-108990683D01*
X108878394Y-108886089D01*
X108878393Y-108886088D01*
X108878393Y-108886086D01*
X108853438Y-108842865D01*
X108818223Y-108781871D01*
X108733129Y-108696777D01*
X108295629Y-108259277D01*
X108295628Y-108259276D01*
X108295625Y-108259274D01*
X108191413Y-108199106D01*
X108191409Y-108199104D01*
X108075173Y-108167960D01*
X108075171Y-108167960D01*
X108075170Y-108167960D01*
X108051053Y-108167960D01*
X108042780Y-108164533D01*
X108039353Y-108156260D01*
X108039353Y-107815194D01*
X108042780Y-107806921D01*
X108051053Y-107803494D01*
X108059326Y-107806921D01*
X108062354Y-107812166D01*
X108076680Y-107865636D01*
X108076682Y-107865640D01*
X108119532Y-107939858D01*
X108119534Y-107939861D01*
X108119535Y-107939862D01*
X108180138Y-108000465D01*
X108180139Y-108000466D01*
X108180141Y-108000467D01*
X108254359Y-108043317D01*
X108254363Y-108043319D01*
X108319649Y-108060811D01*
X108337144Y-108065499D01*
X108337146Y-108065500D01*
X108337147Y-108065500D01*
X108422854Y-108065500D01*
X108422854Y-108065499D01*
X108464245Y-108054409D01*
X108505636Y-108043319D01*
X108505640Y-108043317D01*
X108572014Y-108004996D01*
X108579862Y-108000465D01*
X108640465Y-107939862D01*
X108678431Y-107874099D01*
X108680284Y-107871686D01*
X109526277Y-107025695D01*
X109534550Y-107022268D01*
X111939317Y-107022268D01*
X111947590Y-107025695D01*
X111951017Y-107033968D01*
X111950618Y-107036993D01*
X111950185Y-107038610D01*
X111934500Y-107097144D01*
X111934500Y-107182855D01*
X111956680Y-107265636D01*
X111956682Y-107265640D01*
X111999532Y-107339858D01*
X111999536Y-107339863D01*
X112006444Y-107346771D01*
X112009871Y-107355044D01*
X112009871Y-107953490D01*
X112006444Y-107961763D01*
X112003147Y-107965059D01*
X111960275Y-108039315D01*
X111938086Y-108122128D01*
X111938086Y-108207871D01*
X111960275Y-108290684D01*
X111960277Y-108290687D01*
X112003146Y-108364939D01*
X112063772Y-108425565D01*
X112138024Y-108468434D01*
X112138026Y-108468434D01*
X112138027Y-108468435D01*
X112138025Y-108468435D01*
X112203338Y-108485934D01*
X112220839Y-108490624D01*
X112220841Y-108490625D01*
X112220842Y-108490625D01*
X112306581Y-108490625D01*
X112306581Y-108490624D01*
X112364792Y-108475027D01*
X112389395Y-108468435D01*
X112389395Y-108468434D01*
X112389398Y-108468434D01*
X112463650Y-108425565D01*
X112524276Y-108364939D01*
X112567145Y-108290687D01*
X112589336Y-108207869D01*
X112589336Y-108122131D01*
X112589335Y-108122128D01*
X120548086Y-108122128D01*
X120548086Y-108207871D01*
X120570275Y-108290684D01*
X120570277Y-108290687D01*
X120613146Y-108364939D01*
X120673772Y-108425565D01*
X120748024Y-108468434D01*
X120748026Y-108468434D01*
X120748027Y-108468435D01*
X120748025Y-108468435D01*
X120813338Y-108485934D01*
X120830839Y-108490624D01*
X120830841Y-108490625D01*
X120830842Y-108490625D01*
X120916581Y-108490625D01*
X120916581Y-108490624D01*
X120974792Y-108475027D01*
X120999395Y-108468435D01*
X120999395Y-108468434D01*
X120999398Y-108468434D01*
X121073650Y-108425565D01*
X121079437Y-108419778D01*
X121087710Y-108416351D01*
X121719533Y-108416351D01*
X121719535Y-108416351D01*
X121811917Y-108378085D01*
X122765718Y-107424284D01*
X122773991Y-107420857D01*
X123035647Y-107420857D01*
X123035649Y-107420857D01*
X123128031Y-107382591D01*
X123785162Y-106725460D01*
X123793435Y-106722033D01*
X123801620Y-106722033D01*
X123801620Y-106722032D01*
X123859831Y-106706435D01*
X123884434Y-106699843D01*
X123884434Y-106699842D01*
X123884437Y-106699842D01*
X123958689Y-106656973D01*
X124019315Y-106596347D01*
X124062184Y-106522095D01*
X124084375Y-106439277D01*
X124084375Y-106353539D01*
X124062184Y-106270721D01*
X124019315Y-106196469D01*
X123958689Y-106135843D01*
X123884437Y-106092974D01*
X123884436Y-106092973D01*
X123884433Y-106092972D01*
X123884435Y-106092972D01*
X123801621Y-106070783D01*
X123801619Y-106070783D01*
X123715881Y-106070783D01*
X123715878Y-106070783D01*
X123633065Y-106092972D01*
X123558809Y-106135844D01*
X123498186Y-106196467D01*
X123455314Y-106270723D01*
X123433125Y-106353536D01*
X123433125Y-106361723D01*
X123429698Y-106369996D01*
X122884966Y-106914728D01*
X122876693Y-106918155D01*
X122615032Y-106918155D01*
X122522654Y-106956420D01*
X121568852Y-107910222D01*
X121560579Y-107913649D01*
X121087710Y-107913649D01*
X121079437Y-107910222D01*
X121073651Y-107904436D01*
X121073650Y-107904435D01*
X120999398Y-107861566D01*
X120999397Y-107861565D01*
X120999394Y-107861564D01*
X120999396Y-107861564D01*
X120916582Y-107839375D01*
X120916580Y-107839375D01*
X120830842Y-107839375D01*
X120830839Y-107839375D01*
X120748026Y-107861564D01*
X120673770Y-107904436D01*
X120613147Y-107965059D01*
X120570275Y-108039315D01*
X120548086Y-108122128D01*
X112589335Y-108122128D01*
X112569521Y-108048180D01*
X112567146Y-108039315D01*
X112567145Y-108039313D01*
X112524276Y-107965061D01*
X112520978Y-107961763D01*
X112517551Y-107953490D01*
X112517551Y-107347622D01*
X112520389Y-107340770D01*
X112519998Y-107340470D01*
X112520460Y-107339866D01*
X112520465Y-107339862D01*
X112549033Y-107290379D01*
X112563317Y-107265640D01*
X112563319Y-107265636D01*
X112581831Y-107196546D01*
X112585500Y-107182853D01*
X112585500Y-107097147D01*
X112569382Y-107036994D01*
X112570550Y-107028118D01*
X112577655Y-107022667D01*
X112580683Y-107022268D01*
X113139752Y-107022268D01*
X113139752Y-107022267D01*
X113194356Y-107007636D01*
X113217434Y-107001453D01*
X113217434Y-107001452D01*
X113217437Y-107001452D01*
X113287089Y-106961239D01*
X114257345Y-105990983D01*
X114265618Y-105987556D01*
X126721745Y-105987556D01*
X126721745Y-105987555D01*
X126776349Y-105972924D01*
X126799427Y-105966741D01*
X126799427Y-105966740D01*
X126799430Y-105966740D01*
X126869082Y-105926527D01*
X128074584Y-104721023D01*
X128082857Y-104717597D01*
X128091130Y-104721024D01*
X128094557Y-104729297D01*
X128094557Y-105015062D01*
X128117638Y-105070783D01*
X128132823Y-105107442D01*
X128634874Y-105609493D01*
X128693128Y-105633622D01*
X128727253Y-105647758D01*
X128727254Y-105647758D01*
X128727256Y-105647759D01*
X128819751Y-105647759D01*
X128828024Y-105651186D01*
X128833811Y-105656973D01*
X128908063Y-105699842D01*
X128908065Y-105699842D01*
X128908066Y-105699843D01*
X128908064Y-105699843D01*
X128973377Y-105717342D01*
X128990878Y-105722032D01*
X128990880Y-105722033D01*
X128990881Y-105722033D01*
X129076620Y-105722033D01*
X129076620Y-105722032D01*
X129134831Y-105706435D01*
X129159434Y-105699843D01*
X129159434Y-105699842D01*
X129159437Y-105699842D01*
X129233689Y-105656973D01*
X129294315Y-105596347D01*
X129337184Y-105522095D01*
X129359375Y-105439277D01*
X129359375Y-105353539D01*
X129351175Y-105322937D01*
X129337185Y-105270723D01*
X129337184Y-105270721D01*
X129294315Y-105196469D01*
X129233689Y-105135843D01*
X129159437Y-105092974D01*
X129159436Y-105092973D01*
X129159433Y-105092972D01*
X129159435Y-105092972D01*
X129076621Y-105070783D01*
X129076619Y-105070783D01*
X128990881Y-105070783D01*
X128990878Y-105070783D01*
X128908065Y-105092972D01*
X128865892Y-105117320D01*
X128857013Y-105118488D01*
X128851769Y-105115460D01*
X128600686Y-104864377D01*
X128597259Y-104856104D01*
X128597259Y-102844865D01*
X128600686Y-102836592D01*
X129182606Y-102254672D01*
X129182607Y-102254671D01*
X129220873Y-102162289D01*
X129220873Y-102062296D01*
X129220873Y-101919835D01*
X129224300Y-101911562D01*
X129403767Y-101732095D01*
X129412040Y-101728668D01*
X129420225Y-101728668D01*
X129420225Y-101728667D01*
X129478436Y-101713070D01*
X129503039Y-101706478D01*
X129503039Y-101706477D01*
X129503042Y-101706477D01*
X129577294Y-101663608D01*
X129637920Y-101602982D01*
X129680789Y-101528730D01*
X129702980Y-101445912D01*
X129702980Y-101360174D01*
X129684053Y-101289536D01*
X129680790Y-101277358D01*
X129680789Y-101277356D01*
X129637920Y-101203104D01*
X129577294Y-101142478D01*
X129503042Y-101099609D01*
X129503041Y-101099608D01*
X129503038Y-101099607D01*
X129503040Y-101099607D01*
X129420226Y-101077418D01*
X129420224Y-101077418D01*
X129334486Y-101077418D01*
X129334483Y-101077418D01*
X129251670Y-101099607D01*
X129177414Y-101142479D01*
X129116791Y-101203102D01*
X129073919Y-101277358D01*
X129051730Y-101360171D01*
X129051730Y-101368358D01*
X129048303Y-101376631D01*
X128756436Y-101668498D01*
X128718171Y-101760876D01*
X128718171Y-102003333D01*
X128714744Y-102011606D01*
X128354181Y-102372169D01*
X128345908Y-102375596D01*
X128337635Y-102372169D01*
X127880185Y-101914719D01*
X127880184Y-101914718D01*
X127872565Y-101911562D01*
X127787804Y-101876452D01*
X127787802Y-101876452D01*
X123252877Y-101876452D01*
X123152883Y-101876452D01*
X123152880Y-101876452D01*
X123060502Y-101914717D01*
X122144997Y-102830222D01*
X122136724Y-102833649D01*
X121087710Y-102833649D01*
X121079437Y-102830222D01*
X121073651Y-102824436D01*
X121073650Y-102824435D01*
X120999398Y-102781566D01*
X120999397Y-102781565D01*
X120999394Y-102781564D01*
X120999396Y-102781564D01*
X120916582Y-102759375D01*
X120916580Y-102759375D01*
X120830842Y-102759375D01*
X120830839Y-102759375D01*
X120748026Y-102781564D01*
X120673770Y-102824436D01*
X120613147Y-102885059D01*
X120570275Y-102959315D01*
X120548086Y-103042128D01*
X120548086Y-103127871D01*
X120570275Y-103210684D01*
X120570277Y-103210687D01*
X120610538Y-103280422D01*
X120613147Y-103284940D01*
X120672936Y-103344729D01*
X120676363Y-103353002D01*
X120672936Y-103361275D01*
X120664663Y-103364702D01*
X110935012Y-103364702D01*
X110926739Y-103361275D01*
X110389052Y-102823588D01*
X110385625Y-102815315D01*
X110385625Y-102807130D01*
X110385624Y-102807128D01*
X110383203Y-102798094D01*
X110368323Y-102742558D01*
X110363435Y-102724315D01*
X110349216Y-102699687D01*
X110320565Y-102650061D01*
X110259939Y-102589435D01*
X110185687Y-102546566D01*
X110185686Y-102546565D01*
X110185683Y-102546564D01*
X110185685Y-102546564D01*
X110102871Y-102524375D01*
X110102869Y-102524375D01*
X110017131Y-102524375D01*
X110017128Y-102524375D01*
X109934315Y-102546564D01*
X109860059Y-102589436D01*
X109829622Y-102619872D01*
X109821349Y-102623299D01*
X109813076Y-102619872D01*
X109810048Y-102614627D01*
X109804395Y-102593528D01*
X109794634Y-102557101D01*
X109794633Y-102557097D01*
X109774843Y-102522821D01*
X109774842Y-102522818D01*
X109754423Y-102487452D01*
X109754419Y-102487447D01*
X109697154Y-102430181D01*
X109697131Y-102430160D01*
X108685288Y-101418316D01*
X108683429Y-101415893D01*
X108645467Y-101350141D01*
X108645463Y-101350136D01*
X108584863Y-101289536D01*
X108584858Y-101289532D01*
X108510640Y-101246682D01*
X108510636Y-101246680D01*
X108427855Y-101224500D01*
X108427853Y-101224500D01*
X108342147Y-101224500D01*
X108342144Y-101224500D01*
X108259363Y-101246680D01*
X108259359Y-101246682D01*
X108185141Y-101289532D01*
X108185136Y-101289536D01*
X108124536Y-101350136D01*
X108124532Y-101350141D01*
X108081682Y-101424359D01*
X108081680Y-101424363D01*
X108059500Y-101507144D01*
X108059500Y-101592855D01*
X108081680Y-101675636D01*
X108081682Y-101675640D01*
X108124532Y-101749858D01*
X108124534Y-101749861D01*
X108124535Y-101749862D01*
X108185138Y-101810465D01*
X108185139Y-101810466D01*
X108185141Y-101810467D01*
X108250893Y-101848429D01*
X108253316Y-101850288D01*
X109201123Y-102798094D01*
X109204550Y-102806367D01*
X109204550Y-103742375D01*
X109201123Y-103750648D01*
X109192850Y-103754075D01*
X109184577Y-103750648D01*
X108693877Y-103259948D01*
X108690450Y-103251675D01*
X108690450Y-102969219D01*
X108690849Y-102966191D01*
X108710500Y-102892853D01*
X108710500Y-102807147D01*
X108699140Y-102764749D01*
X108688319Y-102724363D01*
X108688317Y-102724359D01*
X108645467Y-102650141D01*
X108645463Y-102650136D01*
X108584863Y-102589536D01*
X108584858Y-102589532D01*
X108510640Y-102546682D01*
X108510636Y-102546680D01*
X108427855Y-102524500D01*
X108427853Y-102524500D01*
X108342147Y-102524500D01*
X108342144Y-102524500D01*
X108259363Y-102546680D01*
X108259359Y-102546682D01*
X108185141Y-102589532D01*
X108185136Y-102589536D01*
X108124536Y-102650136D01*
X108124532Y-102650141D01*
X108081682Y-102724359D01*
X108081680Y-102724363D01*
X108059500Y-102807144D01*
X108059500Y-102892855D01*
X108069892Y-102931638D01*
X108077308Y-102959315D01*
X108079151Y-102966191D01*
X108079550Y-102969219D01*
X108079550Y-103423258D01*
X108100364Y-103500939D01*
X108104318Y-103507788D01*
X108124398Y-103542568D01*
X108140580Y-103570595D01*
X109094305Y-104524320D01*
X109097732Y-104532593D01*
X109097732Y-106585449D01*
X109094305Y-106593722D01*
X108248314Y-107439712D01*
X108245891Y-107441571D01*
X108180141Y-107479532D01*
X108180136Y-107479536D01*
X108119536Y-107540136D01*
X108119532Y-107540141D01*
X108076682Y-107614359D01*
X108076680Y-107614363D01*
X108062354Y-107667833D01*
X108056903Y-107674937D01*
X108048025Y-107676106D01*
X108040921Y-107670655D01*
X108039353Y-107664805D01*
X108039353Y-104762142D01*
X108039352Y-104762140D01*
X108008208Y-104645903D01*
X108008206Y-104645899D01*
X107948038Y-104541687D01*
X107948034Y-104541682D01*
X106765630Y-103359278D01*
X106765625Y-103359274D01*
X106661413Y-103299106D01*
X106661409Y-103299104D01*
X106545173Y-103267960D01*
X106545171Y-103267960D01*
X106424829Y-103267960D01*
X106424826Y-103267960D01*
X106308590Y-103299104D01*
X106308586Y-103299106D01*
X106204374Y-103359274D01*
X106204369Y-103359278D01*
X106119278Y-103444369D01*
X106119274Y-103444374D01*
X106059106Y-103548586D01*
X106059104Y-103548590D01*
X106027960Y-103664826D01*
X105474054Y-103664826D01*
X105500515Y-103638365D01*
X105576281Y-103507135D01*
X105577941Y-103500942D01*
X105595890Y-103433950D01*
X105615500Y-103360766D01*
X105615500Y-103209234D01*
X105589062Y-103110565D01*
X105576282Y-103062866D01*
X105576280Y-103062862D01*
X105500517Y-102931638D01*
X105500513Y-102931633D01*
X105393366Y-102824486D01*
X105393361Y-102824482D01*
X105262137Y-102748719D01*
X105262133Y-102748717D01*
X105115768Y-102709500D01*
X105115766Y-102709500D01*
X104964234Y-102709500D01*
X104964231Y-102709500D01*
X104817866Y-102748717D01*
X104817862Y-102748719D01*
X104686638Y-102824482D01*
X104686633Y-102824486D01*
X104579486Y-102931633D01*
X104579482Y-102931638D01*
X104503719Y-103062862D01*
X104503717Y-103062866D01*
X104464500Y-103209231D01*
X100600500Y-103209231D01*
X100600500Y-102101626D01*
X100603927Y-102093353D01*
X100612200Y-102089926D01*
X100620473Y-102093353D01*
X100622333Y-102095776D01*
X100669576Y-102177604D01*
X100767395Y-102275423D01*
X100767400Y-102275427D01*
X100887200Y-102344594D01*
X100887204Y-102344596D01*
X101020827Y-102380399D01*
X101020829Y-102380400D01*
X101339200Y-102380400D01*
X101339200Y-102155000D01*
X101440800Y-102155000D01*
X101440800Y-102380400D01*
X101759171Y-102380400D01*
X101759172Y-102380399D01*
X101892795Y-102344596D01*
X101892799Y-102344594D01*
X102012599Y-102275427D01*
X102012604Y-102275423D01*
X102110423Y-102177604D01*
X102110427Y-102177599D01*
X102179594Y-102057799D01*
X102179596Y-102057795D01*
X102215399Y-101924172D01*
X102215400Y-101924171D01*
X102215400Y-101905800D01*
X101986971Y-101905800D01*
X101990000Y-101894496D01*
X101990000Y-101815504D01*
X101986971Y-101804200D01*
X102215400Y-101804200D01*
X102215400Y-101785829D01*
X102215399Y-101785827D01*
X104494600Y-101785827D01*
X104494600Y-101804200D01*
X104723029Y-101804200D01*
X104720000Y-101815504D01*
X104720000Y-101894496D01*
X104723029Y-101905800D01*
X104494600Y-101905800D01*
X104494600Y-101924172D01*
X104530403Y-102057795D01*
X104530405Y-102057799D01*
X104599572Y-102177599D01*
X104599576Y-102177604D01*
X104697395Y-102275423D01*
X104697400Y-102275427D01*
X104817200Y-102344594D01*
X104817204Y-102344596D01*
X104950827Y-102380399D01*
X104950829Y-102380400D01*
X105519200Y-102380400D01*
X105519200Y-102155000D01*
X105620800Y-102155000D01*
X105620800Y-102380400D01*
X106189171Y-102380400D01*
X106189172Y-102380399D01*
X106322795Y-102344596D01*
X106322799Y-102344594D01*
X106442599Y-102275427D01*
X106442604Y-102275423D01*
X106540423Y-102177604D01*
X106540427Y-102177599D01*
X106609594Y-102057799D01*
X106609596Y-102057795D01*
X106645399Y-101924172D01*
X106645400Y-101924171D01*
X106645400Y-101905800D01*
X106416971Y-101905800D01*
X106420000Y-101894496D01*
X106420000Y-101815504D01*
X106416971Y-101804200D01*
X106645400Y-101804200D01*
X106645400Y-101785829D01*
X106645399Y-101785827D01*
X106609596Y-101652204D01*
X106609594Y-101652200D01*
X106540427Y-101532400D01*
X106540423Y-101532395D01*
X106442604Y-101434576D01*
X106442599Y-101434572D01*
X106322799Y-101365405D01*
X106322795Y-101365403D01*
X106189172Y-101329600D01*
X105620800Y-101329600D01*
X105620800Y-101555000D01*
X105519200Y-101555000D01*
X105519200Y-101329600D01*
X104950827Y-101329600D01*
X104817204Y-101365403D01*
X104817200Y-101365405D01*
X104697400Y-101434572D01*
X104697395Y-101434576D01*
X104599576Y-101532395D01*
X104599572Y-101532400D01*
X104530405Y-101652200D01*
X104530403Y-101652204D01*
X104494600Y-101785827D01*
X102215399Y-101785827D01*
X102179596Y-101652204D01*
X102179594Y-101652200D01*
X102110427Y-101532400D01*
X102110423Y-101532395D01*
X102012604Y-101434576D01*
X102012599Y-101434572D01*
X101892799Y-101365405D01*
X101892795Y-101365403D01*
X101759172Y-101329600D01*
X101440800Y-101329600D01*
X101440800Y-101555000D01*
X101339200Y-101555000D01*
X101339200Y-101329600D01*
X101020827Y-101329600D01*
X100887204Y-101365403D01*
X100887200Y-101365405D01*
X100767400Y-101434572D01*
X100767395Y-101434576D01*
X100669576Y-101532395D01*
X100669572Y-101532400D01*
X100622332Y-101614223D01*
X100615228Y-101619674D01*
X100606350Y-101618505D01*
X100600899Y-101611401D01*
X100600500Y-101608373D01*
X100600500Y-100512200D01*
X100603927Y-100503927D01*
X100612200Y-100500500D01*
X131374549Y-100500500D01*
X131382822Y-100503927D01*
G37*
%TD.AperFunction*%
%TD*%
M02*
