%TF.GenerationSoftware,KiCad,Pcbnew,10.0.1*%
%TF.CreationDate,2026-06-17T10:12:15+02:00*%
%TF.ProjectId,USB-PD-CH224K,5553422d-5044-42d4-9348-3232344b2e6b,rev?*%
%TF.SameCoordinates,Original*%
%TF.FileFunction,Copper,L2,Bot*%
%TF.FilePolarity,Positive*%
%FSLAX46Y46*%
G04 Gerber Fmt 4.6, Leading zero omitted, Abs format (unit mm)*
G04 Created by KiCad (PCBNEW 10.0.1) date 2026-06-17 10:12:15*
%MOMM*%
%LPD*%
G01*
G04 APERTURE LIST*
%TA.AperFunction,SMDPad,CuDef*%
%ADD10R,1.000000X1.000000*%
%TD*%
%TA.AperFunction,ComponentPad*%
%ADD11O,1.600000X1.000000*%
%TD*%
%TA.AperFunction,ComponentPad*%
%ADD12O,2.100000X1.000000*%
%TD*%
%TA.AperFunction,ViaPad*%
%ADD13C,0.300000*%
%TD*%
%TA.AperFunction,ViaPad*%
%ADD14C,0.513080*%
%TD*%
%TA.AperFunction,Conductor*%
%ADD15C,0.209900*%
%TD*%
%TA.AperFunction,Conductor*%
%ADD16C,0.101600*%
%TD*%
%TA.AperFunction,Conductor*%
%ADD17C,0.106680*%
%TD*%
%TA.AperFunction,Conductor*%
%ADD18C,0.101702*%
%TD*%
%TA.AperFunction,Conductor*%
%ADD19C,0.513080*%
%TD*%
G04 APERTURE END LIST*
D10*
%TO.P,TP3,1,1_1*%
%TO.N,+3V3*%
X132052355Y-111428043D03*
%TD*%
D11*
%TO.P,J1,SH,SHIELD_SH*%
%TO.N,GND*%
X101390000Y-110495000D03*
D12*
X105570000Y-110495000D03*
D11*
X101390000Y-101855000D03*
D12*
X105570000Y-101855000D03*
%TD*%
D10*
%TO.P,TP2,1,1_1*%
%TO.N,GND*%
X132027355Y-106328043D03*
%TD*%
%TO.P,TP1,1,1_1*%
%TO.N,VBUS*%
X132052355Y-101128043D03*
%TD*%
D13*
%TO.N,GND*%
X118770000Y-104730000D03*
X117290000Y-107130000D03*
X123550000Y-108430000D03*
X129580000Y-111570000D03*
X126170000Y-108380000D03*
X132130000Y-108590000D03*
X125660000Y-100760000D03*
X125230000Y-103350000D03*
X127850000Y-103890000D03*
X124980000Y-104440000D03*
X118360000Y-100560000D03*
X109230000Y-100900000D03*
X101310000Y-100490000D03*
X102220000Y-104970000D03*
X102250000Y-106390000D03*
X102304069Y-107962198D03*
X101110000Y-111830000D03*
X106700000Y-111840000D03*
X103400000Y-111920000D03*
X115050000Y-104620000D03*
X111400000Y-107120000D03*
X116650000Y-102850000D03*
D14*
%TO.N,Net-(F2-Pad1)*%
X107628367Y-108666633D03*
D13*
%TO.N,Net-(D4B-K2)*%
X108390000Y-103230000D03*
%TO.N,Net-(U1-CFG2)*%
X122390000Y-104990000D03*
%TO.N,+3V3*%
X112650000Y-103930000D03*
%TO.N,/PG*%
X121600000Y-109194940D03*
%TO.N,Net-(D4A-K1)*%
X109520000Y-104020000D03*
D14*
%TO.N,Net-(U1-VBUS)*%
X124977145Y-105076398D03*
%TO.N,VBUS*%
X132050000Y-104450000D03*
D13*
%TO.N,+3V3*%
X113790000Y-108160000D03*
%TO.N,Net-(D4C-K3)*%
X110130000Y-103370000D03*
D14*
%TO.N,VBUS*%
X130586669Y-107682455D03*
D13*
%TO.N,Net-(U1-CFG1)*%
X122700000Y-105330000D03*
%TO.N,Net-(D4C-K3)*%
X122570000Y-104290000D03*
%TO.N,Net-(D4A-K1)*%
X109150000Y-101580000D03*
%TO.N,Net-(U1-CFG3)*%
X128780000Y-101450000D03*
%TO.N,Net-(D4D-K4)*%
X110810000Y-105630000D03*
%TO.N,+3V3*%
X131940000Y-110510000D03*
%TO.N,/PG*%
X123760000Y-107430000D03*
%TO.N,+3V3*%
X112260000Y-106370000D03*
%TO.N,Net-(U1-CFG1)*%
X126270000Y-102430000D03*
X123760000Y-106410000D03*
D14*
%TO.N,Net-(U1-VBUS)*%
X127662802Y-102816056D03*
D13*
%TO.N,Net-(D4D-K4)*%
X110600000Y-103820000D03*
%TO.N,+3V3*%
X112270000Y-107140000D03*
%TO.N,Net-(U1-CFG2)*%
X124840000Y-102470000D03*
%TO.N,VBUS*%
X121080000Y-109910000D03*
%TO.N,Net-(U1-CFG3)*%
X127970000Y-105030000D03*
%TO.N,Net-(D4B-K2)*%
X128000000Y-104410000D03*
D14*
%TO.N,VBUS*%
X110950000Y-109910000D03*
D13*
%TO.N,Net-(U1-CFG3)*%
X122280000Y-103060000D03*
%TO.N,Net-(D4B-K2)*%
X109070000Y-108050000D03*
D14*
%TO.N,Net-(F2-Pad1)*%
X107580000Y-103670000D03*
D13*
%TO.N,Net-(U1-CFG1)*%
X121380000Y-107180000D03*
%TD*%
%TO.N,Net-(D4B-K2)*%
D15*
X108385000Y-103383043D02*
X109403182Y-104401225D01*
%TO.N,/PG*%
D16*
X121960218Y-109194940D02*
X123758750Y-107396408D01*
%TO.N,+3V3*%
D17*
X112263711Y-106385143D02*
X112263711Y-105026881D01*
%TO.N,Net-(U1-CFG2)*%
D18*
X122379878Y-104893747D02*
X124834500Y-102439124D01*
%TO.N,Net-(D4B-K2)*%
D15*
X128020000Y-104396000D02*
X127967637Y-104396000D01*
%TO.N,Net-(U1-CFG1)*%
D18*
X121380000Y-107180000D02*
X122654538Y-107180000D01*
%TO.N,+3V3*%
D17*
X112653423Y-104637169D02*
X112653423Y-103900615D01*
%TO.N,Net-(U1-CFG1)*%
D18*
X122654538Y-107180000D02*
X122665032Y-107169506D01*
%TO.N,Net-(F2-Pad1)*%
D19*
X107628367Y-108240363D02*
X107628367Y-108666633D01*
%TO.N,Net-(D4B-K2)*%
D15*
X109403182Y-106716818D02*
X109060000Y-107060000D01*
%TO.N,Net-(U1-CFG1)*%
D18*
X122690861Y-105316975D02*
X124261836Y-103746000D01*
%TO.N,Net-(F2-Pad1)*%
D19*
X107582313Y-108194309D02*
X107628367Y-108240363D01*
%TO.N,Net-(D4B-K2)*%
D15*
X126681531Y-105682106D02*
X114134250Y-105682106D01*
%TO.N,+3V3*%
D17*
X112263711Y-107143711D02*
X112260000Y-107140000D01*
%TO.N,Net-(U1-VBUS)*%
D19*
X127662802Y-102816056D02*
X125402461Y-105076398D01*
%TO.N,VBUS*%
X130586669Y-107433331D02*
X130586669Y-107682455D01*
%TO.N,Net-(U1-CFG3)*%
D18*
X127737805Y-102127803D02*
X128345908Y-102735906D01*
%TO.N,+3V3*%
D17*
X112766725Y-107143711D02*
X112263711Y-107143711D01*
%TO.N,Net-(U1-CFG3)*%
D18*
X123202880Y-102127803D02*
X127737805Y-102127803D01*
%TO.N,VBUS*%
D19*
X128133228Y-109960000D02*
X128083228Y-109910000D01*
%TO.N,Net-(U1-CFG3)*%
D18*
X128780000Y-101430000D02*
X128780000Y-102301814D01*
%TO.N,VBUS*%
D19*
X132052500Y-103243311D02*
X132052500Y-101128000D01*
%TO.N,Net-(D4A-K1)*%
D15*
X109510000Y-102675000D02*
X109510000Y-104030000D01*
%TO.N,Net-(U1-CFG1)*%
D18*
X124261836Y-103746000D02*
X125798350Y-103746000D01*
%TO.N,VBUS*%
D19*
X131041563Y-106978437D02*
X130586669Y-107433331D01*
%TO.N,Net-(U1-CFG3)*%
D18*
X128345908Y-104654092D02*
X128345908Y-102735906D01*
%TO.N,Net-(D4C-K3)*%
X110826053Y-103616053D02*
X121901713Y-103616053D01*
%TO.N,Net-(D4A-K1)*%
D15*
X109170000Y-101560000D02*
X109170000Y-102335000D01*
%TO.N,VBUS*%
D19*
X128133228Y-109960000D02*
X128309124Y-109960000D01*
%TO.N,Net-(D4D-K4)*%
D18*
X110813934Y-104013934D02*
X110600000Y-103800000D01*
%TO.N,Net-(U1-CFG1)*%
X125798350Y-103746000D02*
X126272487Y-103271863D01*
%TO.N,Net-(U1-VBUS)*%
D19*
X125402461Y-105076398D02*
X124977145Y-105076398D01*
%TO.N,+3V3*%
D17*
X113788014Y-108165000D02*
X112766725Y-107143711D01*
%TO.N,Net-(F2-Pad1)*%
D19*
X107580000Y-104820000D02*
X107582313Y-104822313D01*
%TO.N,Net-(D4B-K2)*%
D15*
X127967637Y-104396000D02*
X126681531Y-105682106D01*
%TO.N,Net-(F2-Pad1)*%
D19*
X107582313Y-104822313D02*
X107582313Y-108194309D01*
%TO.N,Net-(U1-CFG1)*%
D18*
X122665032Y-107169506D02*
X122985652Y-107169506D01*
%TO.N,Net-(D4A-K1)*%
D15*
X109170000Y-102335000D02*
X109510000Y-102675000D01*
%TO.N,Net-(D4B-K2)*%
X108385000Y-103220000D02*
X108385000Y-103383043D01*
%TO.N,+3V3*%
D17*
X132052500Y-110622500D02*
X132052500Y-111428000D01*
%TO.N,Net-(F2-Pad1)*%
D19*
X107670000Y-108625000D02*
X107628367Y-108666633D01*
%TO.N,VBUS*%
X131041563Y-105458437D02*
X131041563Y-106978437D01*
%TO.N,Net-(D4D-K4)*%
D18*
X110813934Y-105617068D02*
X110813934Y-104013934D01*
%TO.N,VBUS*%
D19*
X110950000Y-109910000D02*
X121080000Y-109910000D01*
%TO.N,Net-(D4B-K2)*%
D15*
X114134250Y-105682106D02*
X113099538Y-106716818D01*
X109060000Y-107060000D02*
X109060000Y-108050000D01*
%TO.N,Net-(D4C-K3)*%
D18*
X110560000Y-103350000D02*
X110826053Y-103616053D01*
%TO.N,Net-(F2-Pad1)*%
D19*
X107580000Y-103670000D02*
X107580000Y-104820000D01*
%TO.N,VBUS*%
X132050000Y-104450000D02*
X132050000Y-103245811D01*
X128309124Y-109960000D02*
X130586669Y-107682455D01*
%TO.N,Net-(D4C-K3)*%
D18*
X110130000Y-103350000D02*
X110560000Y-103350000D01*
%TO.N,Net-(U1-CFG1)*%
X122985652Y-107169506D02*
X123758750Y-106396408D01*
%TO.N,VBUS*%
D19*
X128083228Y-109910000D02*
X121080000Y-109910000D01*
%TO.N,Net-(D4C-K3)*%
D18*
X121901713Y-103616053D02*
X122574870Y-104289210D01*
%TO.N,Net-(D4B-K2)*%
D15*
X109403182Y-104401225D02*
X109403182Y-106716818D01*
%TO.N,Net-(U1-CFG3)*%
D18*
X122270341Y-103060341D02*
X123202880Y-102127803D01*
%TO.N,VBUS*%
D19*
X132050000Y-104450000D02*
X131041563Y-105458437D01*
%TO.N,/PG*%
D16*
X121600000Y-109194940D02*
X121960218Y-109194940D01*
%TO.N,+3V3*%
D17*
X131940000Y-110510000D02*
X132052500Y-110622500D01*
%TO.N,Net-(D4B-K2)*%
D15*
X113099538Y-106716818D02*
X109403182Y-106716818D01*
%TO.N,Net-(U1-CFG2)*%
D18*
X122379878Y-104985612D02*
X122379878Y-104893747D01*
%TO.N,+3V3*%
D17*
X112263711Y-105026881D02*
X112653423Y-104637169D01*
%TO.N,Net-(U1-CFG3)*%
D18*
X127970000Y-105030000D02*
X128345908Y-104654092D01*
%TO.N,Net-(U1-CFG1)*%
X126272487Y-103271863D02*
X126272487Y-102410813D01*
%TO.N,Net-(U1-CFG3)*%
X128780000Y-102301814D02*
X128345908Y-102735906D01*
%TO.N,VBUS*%
D19*
X132050000Y-103245811D02*
X132052500Y-103243311D01*
%TD*%
%TA.AperFunction,Conductor*%
%TO.N,GND*%
G36*
X121841785Y-103772431D02*
G01*
X122314473Y-104245119D01*
X122317900Y-104253392D01*
X122317900Y-104340148D01*
X122356279Y-104432801D01*
X122356280Y-104432803D01*
X122427197Y-104503720D01*
X122481118Y-104526055D01*
X122500398Y-104534041D01*
X122506730Y-104540373D01*
X122506730Y-104549327D01*
X122504194Y-104553123D01*
X122306614Y-104750703D01*
X122302819Y-104753239D01*
X122247197Y-104776280D01*
X122176279Y-104847198D01*
X122137900Y-104939851D01*
X122137900Y-105040148D01*
X122176279Y-105132801D01*
X122176280Y-105132803D01*
X122247197Y-105203720D01*
X122274014Y-105214828D01*
X122339851Y-105242099D01*
X122339852Y-105242099D01*
X122339854Y-105242100D01*
X122339856Y-105242100D01*
X122440144Y-105242100D01*
X122440146Y-105242100D01*
X122442287Y-105241212D01*
X122451240Y-105241212D01*
X122457573Y-105247543D01*
X122457574Y-105256498D01*
X122457573Y-105256499D01*
X122447900Y-105279851D01*
X122447900Y-105380148D01*
X122480512Y-105458879D01*
X122480512Y-105467833D01*
X122474180Y-105474165D01*
X122469703Y-105475056D01*
X114093062Y-105475056D01*
X114016967Y-105506576D01*
X113017202Y-106506341D01*
X113008929Y-106509768D01*
X112492487Y-106509768D01*
X112484214Y-106506341D01*
X112480787Y-106498068D01*
X112481678Y-106493591D01*
X112512099Y-106420148D01*
X112512100Y-106420146D01*
X112512100Y-106319854D01*
X112473720Y-106227197D01*
X112422578Y-106176055D01*
X112419151Y-106167782D01*
X112419151Y-105096113D01*
X112422578Y-105087840D01*
X112785198Y-104725220D01*
X112785199Y-104725219D01*
X112808863Y-104668087D01*
X112808863Y-104606251D01*
X112808863Y-104132506D01*
X112812290Y-104124233D01*
X112863719Y-104072804D01*
X112863720Y-104072803D01*
X112902100Y-103980146D01*
X112902100Y-103879854D01*
X112900999Y-103877197D01*
X112863279Y-103786132D01*
X112863493Y-103786043D01*
X112861979Y-103778418D01*
X112866956Y-103770974D01*
X112873453Y-103769004D01*
X121833512Y-103769004D01*
X121841785Y-103772431D01*
G37*
%TD.AperFunction*%
%TA.AperFunction,Conductor*%
G36*
X127677877Y-102284181D02*
G01*
X128189530Y-102795833D01*
X128192957Y-102804106D01*
X128192957Y-104218188D01*
X128189530Y-104226461D01*
X128181257Y-104229888D01*
X128172984Y-104226461D01*
X128142804Y-104196281D01*
X128142803Y-104196280D01*
X128142801Y-104196279D01*
X128050148Y-104157900D01*
X128050146Y-104157900D01*
X127949854Y-104157900D01*
X127949851Y-104157900D01*
X127857198Y-104196279D01*
X127786280Y-104267197D01*
X127774903Y-104294660D01*
X127772367Y-104298455D01*
X126599195Y-105471629D01*
X126590922Y-105475056D01*
X122930297Y-105475056D01*
X122922024Y-105471629D01*
X122918597Y-105463356D01*
X122919488Y-105458879D01*
X122952099Y-105380148D01*
X122952100Y-105380146D01*
X122952100Y-105279854D01*
X122952098Y-105279850D01*
X122952024Y-105279478D01*
X122952100Y-105279094D01*
X122952100Y-105278701D01*
X122952178Y-105278701D01*
X122953765Y-105270694D01*
X122955220Y-105268920D01*
X123194961Y-105029179D01*
X124618505Y-105029179D01*
X124618505Y-105123616D01*
X124642943Y-105214826D01*
X124642945Y-105214830D01*
X124690158Y-105296604D01*
X124690159Y-105296605D01*
X124690161Y-105296608D01*
X124756935Y-105363382D01*
X124756936Y-105363383D01*
X124756938Y-105363384D01*
X124838712Y-105410597D01*
X124838716Y-105410599D01*
X124910649Y-105429872D01*
X124929926Y-105435037D01*
X124929928Y-105435038D01*
X124929929Y-105435038D01*
X125449678Y-105435038D01*
X125449678Y-105435037D01*
X125496493Y-105422494D01*
X125540889Y-105410599D01*
X125540891Y-105410598D01*
X125552986Y-105403615D01*
X125622671Y-105363382D01*
X125689445Y-105296608D01*
X125689445Y-105296606D01*
X125690403Y-105295649D01*
X125690406Y-105295644D01*
X127949786Y-103036266D01*
X127997002Y-102954486D01*
X128000017Y-102943236D01*
X128015083Y-102887007D01*
X128021443Y-102863272D01*
X128021443Y-102768839D01*
X128007992Y-102718640D01*
X127997003Y-102677626D01*
X127997001Y-102677622D01*
X127949788Y-102595849D01*
X127949784Y-102595844D01*
X127883013Y-102529073D01*
X127883008Y-102529069D01*
X127801235Y-102481856D01*
X127801231Y-102481854D01*
X127710021Y-102457415D01*
X127710019Y-102457415D01*
X127615586Y-102457415D01*
X127615583Y-102457415D01*
X127524373Y-102481854D01*
X127524369Y-102481856D01*
X127442595Y-102529069D01*
X127442590Y-102529073D01*
X125257334Y-104714331D01*
X125249061Y-104717758D01*
X124929926Y-104717758D01*
X124838716Y-104742196D01*
X124838712Y-104742198D01*
X124756938Y-104789411D01*
X124756933Y-104789415D01*
X124690162Y-104856186D01*
X124690158Y-104856191D01*
X124642945Y-104937965D01*
X124642943Y-104937969D01*
X124618505Y-105029179D01*
X123194961Y-105029179D01*
X124321764Y-103902378D01*
X124330037Y-103898951D01*
X125828772Y-103898951D01*
X125828773Y-103898951D01*
X125828774Y-103898951D01*
X125858495Y-103886640D01*
X125884990Y-103875666D01*
X126402153Y-103358503D01*
X126425438Y-103302286D01*
X126425438Y-103241440D01*
X126425438Y-102635931D01*
X126428865Y-102627658D01*
X126483719Y-102572804D01*
X126483720Y-102572803D01*
X126522100Y-102480146D01*
X126522100Y-102379854D01*
X126502375Y-102332235D01*
X126487752Y-102296931D01*
X126487752Y-102287977D01*
X126494084Y-102281645D01*
X126498561Y-102280754D01*
X127669604Y-102280754D01*
X127677877Y-102284181D01*
G37*
%TD.AperFunction*%
%TA.AperFunction,Conductor*%
G36*
X126049712Y-102284181D02*
G01*
X126053139Y-102292454D01*
X126052248Y-102296931D01*
X126017900Y-102379851D01*
X126017900Y-102480148D01*
X126056279Y-102572801D01*
X126056281Y-102572804D01*
X126116109Y-102632632D01*
X126119536Y-102640905D01*
X126119536Y-103203662D01*
X126116109Y-103211935D01*
X125738422Y-103589622D01*
X125730149Y-103593049D01*
X124231411Y-103593049D01*
X124223179Y-103596459D01*
X124214947Y-103599869D01*
X124175197Y-103616333D01*
X122717057Y-105074473D01*
X122708784Y-105077900D01*
X122649853Y-105077900D01*
X122647710Y-105078788D01*
X122638756Y-105078787D01*
X122632424Y-105072454D01*
X122632424Y-105063502D01*
X122642100Y-105040146D01*
X122642100Y-104939854D01*
X122618137Y-104882003D01*
X122618137Y-104873051D01*
X122620670Y-104869258D01*
X124768753Y-102721175D01*
X124777025Y-102717749D01*
X124781498Y-102718639D01*
X124789854Y-102722100D01*
X124789856Y-102722100D01*
X124890144Y-102722100D01*
X124890146Y-102722100D01*
X124982803Y-102683720D01*
X125053720Y-102612803D01*
X125092100Y-102520146D01*
X125092100Y-102419854D01*
X125053720Y-102327197D01*
X125027250Y-102300727D01*
X125023823Y-102292454D01*
X125027250Y-102284181D01*
X125035523Y-102280754D01*
X126041439Y-102280754D01*
X126049712Y-102284181D01*
G37*
%TD.AperFunction*%
%TA.AperFunction,Conductor*%
G36*
X132814692Y-100310309D02*
G01*
X132818119Y-100318582D01*
X132818119Y-112131419D01*
X132814692Y-112139692D01*
X132806419Y-112143119D01*
X100418582Y-112143119D01*
X100410309Y-112139692D01*
X100406882Y-112131419D01*
X100406882Y-110425827D01*
X100564600Y-110425827D01*
X100564600Y-110444200D01*
X100793029Y-110444200D01*
X100790000Y-110455504D01*
X100790000Y-110534496D01*
X100793029Y-110545800D01*
X100564600Y-110545800D01*
X100564600Y-110564172D01*
X100600403Y-110697795D01*
X100600405Y-110697799D01*
X100669572Y-110817599D01*
X100669576Y-110817604D01*
X100767395Y-110915423D01*
X100767400Y-110915427D01*
X100887200Y-110984594D01*
X100887204Y-110984596D01*
X101020827Y-111020399D01*
X101020829Y-111020400D01*
X101339200Y-111020400D01*
X101339200Y-110795000D01*
X101440800Y-110795000D01*
X101440800Y-111020400D01*
X101759171Y-111020400D01*
X101759172Y-111020399D01*
X101892795Y-110984596D01*
X101892799Y-110984594D01*
X102012599Y-110915427D01*
X102012604Y-110915423D01*
X102110423Y-110817604D01*
X102110427Y-110817599D01*
X102179594Y-110697799D01*
X102179596Y-110697795D01*
X102215399Y-110564172D01*
X102215400Y-110564171D01*
X102215400Y-110545800D01*
X101986971Y-110545800D01*
X101990000Y-110534496D01*
X101990000Y-110455504D01*
X101986971Y-110444200D01*
X102215400Y-110444200D01*
X102215400Y-110425829D01*
X102215399Y-110425827D01*
X104494600Y-110425827D01*
X104494600Y-110444200D01*
X104723029Y-110444200D01*
X104720000Y-110455504D01*
X104720000Y-110534496D01*
X104723029Y-110545800D01*
X104494600Y-110545800D01*
X104494600Y-110564172D01*
X104530403Y-110697795D01*
X104530405Y-110697799D01*
X104599572Y-110817599D01*
X104599576Y-110817604D01*
X104697395Y-110915423D01*
X104697400Y-110915427D01*
X104817200Y-110984594D01*
X104817204Y-110984596D01*
X104950827Y-111020399D01*
X104950829Y-111020400D01*
X105519200Y-111020400D01*
X105519200Y-110795000D01*
X105620800Y-110795000D01*
X105620800Y-111020400D01*
X106189171Y-111020400D01*
X106189172Y-111020399D01*
X106322795Y-110984596D01*
X106322799Y-110984594D01*
X106438163Y-110917988D01*
X131450255Y-110917988D01*
X131450255Y-111938096D01*
X131456179Y-111967879D01*
X131456181Y-111967885D01*
X131478744Y-112001652D01*
X131478745Y-112001653D01*
X131512518Y-112024219D01*
X131542300Y-112030143D01*
X132562409Y-112030142D01*
X132592192Y-112024219D01*
X132592195Y-112024216D01*
X132592197Y-112024216D01*
X132603603Y-112016594D01*
X132625965Y-112001653D01*
X132648531Y-111967880D01*
X132654455Y-111938098D01*
X132654454Y-110917989D01*
X132648531Y-110888206D01*
X132648529Y-110888203D01*
X132648528Y-110888200D01*
X132625965Y-110854433D01*
X132625964Y-110854432D01*
X132592192Y-110831867D01*
X132562410Y-110825943D01*
X132562409Y-110825943D01*
X132219640Y-110825943D01*
X132211367Y-110822516D01*
X132207940Y-110814243D01*
X132207940Y-110591582D01*
X132207940Y-110591581D01*
X132194919Y-110560146D01*
X132192989Y-110555485D01*
X132192989Y-110555482D01*
X132192100Y-110551011D01*
X132192100Y-110459855D01*
X132192099Y-110459851D01*
X132153720Y-110367198D01*
X132153719Y-110367196D01*
X132082804Y-110296281D01*
X132082803Y-110296280D01*
X132077784Y-110294201D01*
X131990148Y-110257900D01*
X131990146Y-110257900D01*
X131889854Y-110257900D01*
X131889851Y-110257900D01*
X131797198Y-110296279D01*
X131726279Y-110367198D01*
X131687900Y-110459851D01*
X131687900Y-110459854D01*
X131687900Y-110560146D01*
X131726280Y-110652803D01*
X131797197Y-110723720D01*
X131881369Y-110758585D01*
X131889837Y-110762093D01*
X131896169Y-110768425D01*
X131897060Y-110772902D01*
X131897060Y-110814243D01*
X131893633Y-110822516D01*
X131885360Y-110825943D01*
X131542301Y-110825943D01*
X131512518Y-110831867D01*
X131512512Y-110831869D01*
X131478745Y-110854432D01*
X131478744Y-110854433D01*
X131456179Y-110888205D01*
X131450255Y-110917988D01*
X106438163Y-110917988D01*
X106442599Y-110915427D01*
X106442604Y-110915423D01*
X106448888Y-110909140D01*
X106540423Y-110817604D01*
X106540427Y-110817599D01*
X106609594Y-110697799D01*
X106609596Y-110697795D01*
X106645399Y-110564172D01*
X106645400Y-110564171D01*
X106645400Y-110545800D01*
X106416971Y-110545800D01*
X106420000Y-110534496D01*
X106420000Y-110455504D01*
X106416971Y-110444200D01*
X106645400Y-110444200D01*
X106645400Y-110425829D01*
X106645399Y-110425827D01*
X106609596Y-110292204D01*
X106609594Y-110292200D01*
X106540427Y-110172400D01*
X106540423Y-110172395D01*
X106442604Y-110074576D01*
X106442599Y-110074572D01*
X106322799Y-110005405D01*
X106322795Y-110005403D01*
X106189172Y-109969600D01*
X105620800Y-109969600D01*
X105620800Y-110195000D01*
X105519200Y-110195000D01*
X105519200Y-109969600D01*
X104950827Y-109969600D01*
X104817204Y-110005403D01*
X104817200Y-110005405D01*
X104697400Y-110074572D01*
X104697395Y-110074576D01*
X104599576Y-110172395D01*
X104599572Y-110172400D01*
X104530405Y-110292200D01*
X104530403Y-110292204D01*
X104494600Y-110425827D01*
X102215399Y-110425827D01*
X102179596Y-110292204D01*
X102179594Y-110292200D01*
X102110427Y-110172400D01*
X102110423Y-110172395D01*
X102012604Y-110074576D01*
X102012599Y-110074572D01*
X101892799Y-110005405D01*
X101892795Y-110005403D01*
X101759172Y-109969600D01*
X101440800Y-109969600D01*
X101440800Y-110195000D01*
X101339200Y-110195000D01*
X101339200Y-109969600D01*
X101020827Y-109969600D01*
X100887204Y-110005403D01*
X100887200Y-110005405D01*
X100767400Y-110074572D01*
X100767395Y-110074576D01*
X100669576Y-110172395D01*
X100669572Y-110172400D01*
X100600405Y-110292200D01*
X100600403Y-110292204D01*
X100564600Y-110425827D01*
X100406882Y-110425827D01*
X100406882Y-109862781D01*
X110591360Y-109862781D01*
X110591360Y-109957218D01*
X110615798Y-110048428D01*
X110615800Y-110048432D01*
X110663013Y-110130206D01*
X110663015Y-110130209D01*
X110663016Y-110130210D01*
X110729790Y-110196984D01*
X110729791Y-110196985D01*
X110729793Y-110196986D01*
X110811567Y-110244199D01*
X110811571Y-110244201D01*
X110883504Y-110263474D01*
X110902781Y-110268639D01*
X110902783Y-110268640D01*
X110902784Y-110268640D01*
X110997216Y-110268640D01*
X121032784Y-110268640D01*
X127947393Y-110268640D01*
X127953243Y-110270208D01*
X127994795Y-110294199D01*
X127994799Y-110294201D01*
X128066734Y-110313475D01*
X128086009Y-110318640D01*
X128086011Y-110318641D01*
X128086012Y-110318641D01*
X128181154Y-110318641D01*
X128181170Y-110318640D01*
X128356341Y-110318640D01*
X128356341Y-110318639D01*
X128401947Y-110306420D01*
X128447552Y-110294201D01*
X128447556Y-110294199D01*
X128510427Y-110257900D01*
X128529334Y-110246984D01*
X130873653Y-107902665D01*
X130920869Y-107820885D01*
X130945309Y-107729671D01*
X130945309Y-107635239D01*
X130945309Y-107586729D01*
X130948735Y-107578457D01*
X131260809Y-107266382D01*
X131260814Y-107266379D01*
X131261771Y-107265421D01*
X131261773Y-107265421D01*
X131328547Y-107198647D01*
X131375763Y-107116867D01*
X131380515Y-107099131D01*
X131400203Y-107025654D01*
X131400203Y-106931221D01*
X131400203Y-106830542D01*
X131501955Y-106830542D01*
X131503428Y-106837954D01*
X131509041Y-106846355D01*
X131509042Y-106846356D01*
X131517443Y-106851969D01*
X131524856Y-106853443D01*
X131976555Y-106853443D01*
X132078155Y-106853443D01*
X132529854Y-106853443D01*
X132537266Y-106851969D01*
X132545667Y-106846356D01*
X132545668Y-106846355D01*
X132551281Y-106837954D01*
X132552755Y-106830542D01*
X132552755Y-106378843D01*
X132078155Y-106378843D01*
X132078155Y-106853443D01*
X131976555Y-106853443D01*
X131976555Y-106378843D01*
X131501955Y-106378843D01*
X131501955Y-106830542D01*
X131400203Y-106830542D01*
X131400203Y-105825543D01*
X131501955Y-105825543D01*
X131501955Y-106277243D01*
X131976555Y-106277243D01*
X132078155Y-106277243D01*
X132552755Y-106277243D01*
X132552755Y-105825543D01*
X132551281Y-105818131D01*
X132545668Y-105809730D01*
X132545667Y-105809729D01*
X132537266Y-105804116D01*
X132529854Y-105802643D01*
X132078155Y-105802643D01*
X132078155Y-106277243D01*
X131976555Y-106277243D01*
X131976555Y-105802643D01*
X131524856Y-105802643D01*
X131517443Y-105804116D01*
X131509042Y-105809729D01*
X131509041Y-105809730D01*
X131503428Y-105818131D01*
X131501955Y-105825543D01*
X131400203Y-105825543D01*
X131400203Y-105611835D01*
X131403629Y-105603563D01*
X132269246Y-104737945D01*
X132269251Y-104737942D01*
X132270208Y-104736984D01*
X132270210Y-104736984D01*
X132336984Y-104670210D01*
X132384200Y-104588430D01*
X132386102Y-104581332D01*
X132408640Y-104497217D01*
X132408640Y-104402784D01*
X132408640Y-103301399D01*
X132409039Y-103298370D01*
X132411141Y-103290528D01*
X132411141Y-103195377D01*
X132411140Y-103195368D01*
X132411140Y-101741842D01*
X132414567Y-101733569D01*
X132422840Y-101730142D01*
X132562408Y-101730142D01*
X132562409Y-101730142D01*
X132592192Y-101724219D01*
X132592195Y-101724216D01*
X132592197Y-101724216D01*
X132603603Y-101716594D01*
X132625965Y-101701653D01*
X132648531Y-101667880D01*
X132654455Y-101638098D01*
X132654454Y-100617989D01*
X132648531Y-100588206D01*
X132648529Y-100588203D01*
X132648528Y-100588200D01*
X132625965Y-100554433D01*
X132625964Y-100554432D01*
X132592192Y-100531867D01*
X132562410Y-100525943D01*
X132562409Y-100525943D01*
X131542301Y-100525943D01*
X131512518Y-100531867D01*
X131512512Y-100531869D01*
X131478745Y-100554432D01*
X131478744Y-100554433D01*
X131456179Y-100588205D01*
X131450255Y-100617988D01*
X131450255Y-101638096D01*
X131456179Y-101667879D01*
X131456181Y-101667885D01*
X131472927Y-101692946D01*
X131478745Y-101701653D01*
X131512518Y-101724219D01*
X131542300Y-101730143D01*
X131682160Y-101730142D01*
X131690433Y-101733569D01*
X131693860Y-101741842D01*
X131693860Y-103187724D01*
X131693461Y-103190752D01*
X131691360Y-103198592D01*
X131691360Y-104296599D01*
X131687933Y-104304872D01*
X130819707Y-105173097D01*
X130819705Y-105173100D01*
X130754580Y-105238225D01*
X130754576Y-105238230D01*
X130707363Y-105320004D01*
X130707361Y-105320008D01*
X130682923Y-105411218D01*
X130682923Y-106825036D01*
X130679496Y-106833309D01*
X130364813Y-107147991D01*
X130364811Y-107147994D01*
X130299686Y-107213119D01*
X130299682Y-107213124D01*
X130252469Y-107294898D01*
X130252467Y-107294902D01*
X130228029Y-107386112D01*
X130228029Y-107529054D01*
X130224602Y-107537327D01*
X128198413Y-109563515D01*
X128190140Y-109566942D01*
X128187112Y-109566543D01*
X128130446Y-109551360D01*
X128130444Y-109551360D01*
X121127216Y-109551360D01*
X110997216Y-109551360D01*
X110902784Y-109551360D01*
X110902781Y-109551360D01*
X110811571Y-109575798D01*
X110811567Y-109575800D01*
X110729793Y-109623013D01*
X110729788Y-109623017D01*
X110663017Y-109689788D01*
X110663013Y-109689793D01*
X110615800Y-109771567D01*
X110615798Y-109771571D01*
X110591360Y-109862781D01*
X100406882Y-109862781D01*
X100406882Y-109008768D01*
X104612900Y-109008768D01*
X104612900Y-109121231D01*
X104642005Y-109229851D01*
X104642007Y-109229854D01*
X104698235Y-109327245D01*
X104777755Y-109406765D01*
X104875146Y-109462993D01*
X104875148Y-109462993D01*
X104875149Y-109462994D01*
X104875147Y-109462994D01*
X104960816Y-109485949D01*
X104983768Y-109492099D01*
X104983769Y-109492100D01*
X104983771Y-109492100D01*
X105096231Y-109492100D01*
X105096231Y-109492099D01*
X105172583Y-109471640D01*
X105204851Y-109462994D01*
X105204851Y-109462993D01*
X105204854Y-109462993D01*
X105302245Y-109406765D01*
X105381765Y-109327245D01*
X105437993Y-109229854D01*
X105460786Y-109144794D01*
X105460787Y-109144791D01*
X121347900Y-109144791D01*
X121347900Y-109245088D01*
X121381932Y-109327246D01*
X121386280Y-109337743D01*
X121457197Y-109408660D01*
X121515624Y-109432861D01*
X121549851Y-109447039D01*
X121549852Y-109447039D01*
X121549854Y-109447040D01*
X121549856Y-109447040D01*
X121650144Y-109447040D01*
X121650146Y-109447040D01*
X121742803Y-109408660D01*
X121800196Y-109351267D01*
X121808469Y-109347840D01*
X121990630Y-109347840D01*
X121990631Y-109347840D01*
X121990632Y-109347840D01*
X122015008Y-109337743D01*
X122046829Y-109324563D01*
X123689786Y-107681603D01*
X123698058Y-107678177D01*
X123702532Y-107679067D01*
X123709854Y-107682100D01*
X123709856Y-107682100D01*
X123810144Y-107682100D01*
X123810146Y-107682100D01*
X123902803Y-107643720D01*
X123973720Y-107572803D01*
X124012100Y-107480146D01*
X124012100Y-107379854D01*
X124001274Y-107353719D01*
X123997921Y-107345624D01*
X123973720Y-107287197D01*
X123902803Y-107216280D01*
X123895172Y-107213119D01*
X123810148Y-107177900D01*
X123810146Y-107177900D01*
X123709854Y-107177900D01*
X123709851Y-107177900D01*
X123617198Y-107216279D01*
X123546279Y-107287198D01*
X123507900Y-107379851D01*
X123507900Y-107426178D01*
X123504473Y-107434451D01*
X121900311Y-109038613D01*
X121892038Y-109042040D01*
X121808469Y-109042040D01*
X121800196Y-109038613D01*
X121742804Y-108981221D01*
X121742803Y-108981220D01*
X121742801Y-108981219D01*
X121650148Y-108942840D01*
X121650146Y-108942840D01*
X121549854Y-108942840D01*
X121549851Y-108942840D01*
X121457198Y-108981219D01*
X121386279Y-109052138D01*
X121347900Y-109144791D01*
X105460787Y-109144791D01*
X105461906Y-109140614D01*
X105467099Y-109121231D01*
X105467100Y-109121231D01*
X105467100Y-109008768D01*
X105437994Y-108900148D01*
X105430313Y-108886844D01*
X105381765Y-108802755D01*
X105302245Y-108723235D01*
X105204854Y-108667007D01*
X105204853Y-108667006D01*
X105204850Y-108667005D01*
X105204852Y-108667005D01*
X105096232Y-108637900D01*
X105096229Y-108637900D01*
X104983771Y-108637900D01*
X104983768Y-108637900D01*
X104875148Y-108667005D01*
X104777753Y-108723236D01*
X104698236Y-108802753D01*
X104642005Y-108900148D01*
X104612900Y-109008768D01*
X100406882Y-109008768D01*
X100406882Y-103228768D01*
X104612900Y-103228768D01*
X104612900Y-103341231D01*
X104642005Y-103449851D01*
X104653593Y-103469922D01*
X104698235Y-103547245D01*
X104777755Y-103626765D01*
X104875146Y-103682993D01*
X104875148Y-103682993D01*
X104875149Y-103682994D01*
X104875147Y-103682994D01*
X104960816Y-103705949D01*
X104983768Y-103712099D01*
X104983769Y-103712100D01*
X104983771Y-103712100D01*
X105096231Y-103712100D01*
X105096231Y-103712099D01*
X105172583Y-103691640D01*
X105204851Y-103682994D01*
X105204851Y-103682993D01*
X105204854Y-103682993D01*
X105302245Y-103626765D01*
X105306229Y-103622781D01*
X107221360Y-103622781D01*
X107221360Y-104867217D01*
X107223274Y-104874358D01*
X107223673Y-104877387D01*
X107223673Y-108241527D01*
X107248111Y-108332737D01*
X107248113Y-108332741D01*
X107268159Y-108367459D01*
X107269727Y-108373309D01*
X107269727Y-108713851D01*
X107294165Y-108805061D01*
X107294167Y-108805065D01*
X107341380Y-108886839D01*
X107341382Y-108886842D01*
X107341383Y-108886843D01*
X107408157Y-108953617D01*
X107408158Y-108953618D01*
X107408160Y-108953619D01*
X107489934Y-109000832D01*
X107489938Y-109000834D01*
X107561871Y-109020107D01*
X107581148Y-109025272D01*
X107581150Y-109025273D01*
X107581151Y-109025273D01*
X107675584Y-109025273D01*
X107675584Y-109025272D01*
X107721190Y-109013053D01*
X107766795Y-109000834D01*
X107766799Y-109000832D01*
X107800766Y-108981221D01*
X107848577Y-108953617D01*
X107956984Y-108845210D01*
X108004200Y-108763430D01*
X108028640Y-108672216D01*
X108028640Y-108577784D01*
X108023474Y-108558504D01*
X108004201Y-108486571D01*
X108004199Y-108486567D01*
X107988575Y-108459506D01*
X107987007Y-108453656D01*
X107987007Y-108193146D01*
X107987006Y-108193144D01*
X107962568Y-108101935D01*
X107942520Y-108067210D01*
X107940953Y-108061360D01*
X107940953Y-104775096D01*
X107940952Y-104775094D01*
X107939039Y-104767952D01*
X107938640Y-104764924D01*
X107938640Y-103622783D01*
X107938639Y-103622781D01*
X107936911Y-103616333D01*
X107928173Y-103583719D01*
X107914201Y-103531571D01*
X107914199Y-103531567D01*
X107866986Y-103449793D01*
X107866982Y-103449788D01*
X107800211Y-103383017D01*
X107800206Y-103383013D01*
X107718432Y-103335800D01*
X107718428Y-103335798D01*
X107627218Y-103311360D01*
X107627216Y-103311360D01*
X107532784Y-103311360D01*
X107532781Y-103311360D01*
X107441571Y-103335798D01*
X107441567Y-103335800D01*
X107359793Y-103383013D01*
X107359788Y-103383017D01*
X107293017Y-103449788D01*
X107293013Y-103449793D01*
X107245800Y-103531567D01*
X107245798Y-103531571D01*
X107221360Y-103622781D01*
X105306229Y-103622781D01*
X105381765Y-103547245D01*
X105437993Y-103449854D01*
X105438010Y-103449793D01*
X105446640Y-103417583D01*
X105467099Y-103341231D01*
X105467100Y-103341231D01*
X105467100Y-103228768D01*
X105454496Y-103181730D01*
X105453992Y-103179851D01*
X108137900Y-103179851D01*
X108137900Y-103280148D01*
X108176721Y-103373868D01*
X108176468Y-103373972D01*
X108177950Y-103378850D01*
X108177950Y-103424230D01*
X108188565Y-103449855D01*
X108209470Y-103500325D01*
X108209472Y-103500328D01*
X109192705Y-104483561D01*
X109196132Y-104491834D01*
X109196132Y-106626209D01*
X109192705Y-106634482D01*
X108884470Y-106942717D01*
X108874711Y-106966280D01*
X108852950Y-107018812D01*
X108852950Y-107912910D01*
X108852059Y-107917387D01*
X108817900Y-107999851D01*
X108817900Y-108100148D01*
X108856279Y-108192801D01*
X108856280Y-108192803D01*
X108927197Y-108263720D01*
X108985624Y-108287921D01*
X109019851Y-108302099D01*
X109019852Y-108302099D01*
X109019854Y-108302100D01*
X109019856Y-108302100D01*
X109120144Y-108302100D01*
X109120146Y-108302100D01*
X109212803Y-108263720D01*
X109283720Y-108192803D01*
X109322100Y-108100146D01*
X109322100Y-107999854D01*
X109283720Y-107907197D01*
X109270477Y-107893954D01*
X109267050Y-107885681D01*
X109267050Y-107150609D01*
X109270477Y-107142336D01*
X109485518Y-106927295D01*
X109493791Y-106923868D01*
X112101363Y-106923868D01*
X112109636Y-106927295D01*
X112113063Y-106935568D01*
X112109636Y-106943841D01*
X112056279Y-106997198D01*
X112017900Y-107089851D01*
X112017900Y-107190148D01*
X112049477Y-107266379D01*
X112056280Y-107282803D01*
X112127197Y-107353720D01*
X112185624Y-107377921D01*
X112219851Y-107392099D01*
X112219852Y-107392099D01*
X112219854Y-107392100D01*
X112219856Y-107392100D01*
X112320144Y-107392100D01*
X112320146Y-107392100D01*
X112412803Y-107353720D01*
X112463945Y-107302578D01*
X112472218Y-107299151D01*
X112697493Y-107299151D01*
X112705766Y-107302578D01*
X113534473Y-108131284D01*
X113537900Y-108139557D01*
X113537900Y-108210148D01*
X113560091Y-108263720D01*
X113576280Y-108302803D01*
X113647197Y-108373720D01*
X113705624Y-108397921D01*
X113739851Y-108412099D01*
X113739852Y-108412099D01*
X113739854Y-108412100D01*
X113739856Y-108412100D01*
X113840144Y-108412100D01*
X113840146Y-108412100D01*
X113932803Y-108373720D01*
X114003720Y-108302803D01*
X114042100Y-108210146D01*
X114042100Y-108109854D01*
X114003720Y-108017197D01*
X113932803Y-107946280D01*
X113932801Y-107946279D01*
X113840148Y-107907900D01*
X113840146Y-107907900D01*
X113755585Y-107907900D01*
X113747312Y-107904473D01*
X112979815Y-107136975D01*
X112972691Y-107129851D01*
X121127900Y-107129851D01*
X121127900Y-107230148D01*
X121157902Y-107302578D01*
X121166280Y-107322803D01*
X121237197Y-107393720D01*
X121295624Y-107417921D01*
X121329851Y-107432099D01*
X121329852Y-107432099D01*
X121329854Y-107432100D01*
X121329856Y-107432100D01*
X121430144Y-107432100D01*
X121430146Y-107432100D01*
X121522803Y-107393720D01*
X121580145Y-107336378D01*
X121588418Y-107332951D01*
X122684960Y-107332951D01*
X122684961Y-107332951D01*
X122684962Y-107332951D01*
X122708146Y-107323347D01*
X122712622Y-107322457D01*
X123016074Y-107322457D01*
X123016075Y-107322457D01*
X123016076Y-107322457D01*
X123039783Y-107312637D01*
X123072292Y-107299172D01*
X123705935Y-106665526D01*
X123714208Y-106662100D01*
X123810144Y-106662100D01*
X123810146Y-106662100D01*
X123902803Y-106623720D01*
X123973720Y-106552803D01*
X124012100Y-106460146D01*
X124012100Y-106359854D01*
X123973720Y-106267197D01*
X123902803Y-106196280D01*
X123902801Y-106196279D01*
X123810148Y-106157900D01*
X123810146Y-106157900D01*
X123709854Y-106157900D01*
X123709851Y-106157900D01*
X123617198Y-106196279D01*
X123546279Y-106267198D01*
X123507900Y-106359851D01*
X123507900Y-106426106D01*
X123504473Y-106434379D01*
X122925724Y-107013128D01*
X122917451Y-107016555D01*
X122634607Y-107016555D01*
X122629159Y-107018812D01*
X122618143Y-107023375D01*
X122611424Y-107026158D01*
X122606947Y-107027049D01*
X121588418Y-107027049D01*
X121580145Y-107023622D01*
X121522803Y-106966280D01*
X121522801Y-106966279D01*
X121430148Y-106927900D01*
X121430146Y-106927900D01*
X121329854Y-106927900D01*
X121329851Y-106927900D01*
X121237198Y-106966279D01*
X121166279Y-107037198D01*
X121127900Y-107129851D01*
X112972691Y-107129851D01*
X112854776Y-107011936D01*
X112854775Y-107011935D01*
X112814376Y-106995202D01*
X112797644Y-106988271D01*
X112479640Y-106988271D01*
X112471367Y-106984844D01*
X112430364Y-106943841D01*
X112426937Y-106935568D01*
X112430364Y-106927295D01*
X112438637Y-106923868D01*
X113140721Y-106923868D01*
X113140723Y-106923868D01*
X113178772Y-106908107D01*
X113216822Y-106892347D01*
X114216586Y-105892583D01*
X114224859Y-105889156D01*
X126722714Y-105889156D01*
X126722716Y-105889156D01*
X126760765Y-105873395D01*
X126798815Y-105857635D01*
X127705516Y-104950932D01*
X127713788Y-104947506D01*
X127722061Y-104950933D01*
X127725488Y-104959206D01*
X127724597Y-104963683D01*
X127718159Y-104979230D01*
X127717900Y-104979855D01*
X127717900Y-105080148D01*
X127755720Y-105171452D01*
X127756280Y-105172803D01*
X127827197Y-105243720D01*
X127885624Y-105267921D01*
X127919851Y-105282099D01*
X127919852Y-105282099D01*
X127919854Y-105282100D01*
X127919856Y-105282100D01*
X128020144Y-105282100D01*
X128020146Y-105282100D01*
X128112803Y-105243720D01*
X128183720Y-105172803D01*
X128222100Y-105080146D01*
X128222100Y-104999052D01*
X128225527Y-104990779D01*
X128475573Y-104740733D01*
X128475574Y-104740732D01*
X128498859Y-104684515D01*
X128498859Y-104623669D01*
X128498859Y-102804106D01*
X128502286Y-102795834D01*
X128909665Y-102388455D01*
X128909666Y-102388454D01*
X128932951Y-102332237D01*
X128932951Y-102271391D01*
X128932951Y-101658418D01*
X128936378Y-101650145D01*
X128993719Y-101592804D01*
X128993720Y-101592803D01*
X129032100Y-101500146D01*
X129032100Y-101399854D01*
X128993720Y-101307197D01*
X128922803Y-101236280D01*
X128922801Y-101236279D01*
X128830148Y-101197900D01*
X128830146Y-101197900D01*
X128729854Y-101197900D01*
X128729851Y-101197900D01*
X128637198Y-101236279D01*
X128566279Y-101307198D01*
X128527900Y-101399851D01*
X128527900Y-101500148D01*
X128566279Y-101592801D01*
X128566281Y-101592804D01*
X128623622Y-101650145D01*
X128627049Y-101658418D01*
X128627049Y-102233612D01*
X128623622Y-102241885D01*
X128354180Y-102511327D01*
X128345907Y-102514754D01*
X128337634Y-102511327D01*
X127824445Y-101998137D01*
X127824443Y-101998136D01*
X127784693Y-101981672D01*
X127768229Y-101974852D01*
X123172456Y-101974852D01*
X123172455Y-101974852D01*
X123160813Y-101979674D01*
X123149171Y-101984497D01*
X123116242Y-101998136D01*
X123116239Y-101998138D01*
X122309903Y-102804473D01*
X122301630Y-102807900D01*
X122229851Y-102807900D01*
X122137198Y-102846279D01*
X122066279Y-102917198D01*
X122027900Y-103009851D01*
X122027900Y-103110148D01*
X122064536Y-103198592D01*
X122066280Y-103202803D01*
X122137197Y-103273720D01*
X122177775Y-103290528D01*
X122229851Y-103312099D01*
X122229852Y-103312099D01*
X122229854Y-103312100D01*
X122229856Y-103312100D01*
X122330144Y-103312100D01*
X122330146Y-103312100D01*
X122422803Y-103273720D01*
X122493720Y-103202803D01*
X122532100Y-103110146D01*
X122532100Y-103019734D01*
X122535527Y-103011461D01*
X123262807Y-102284181D01*
X123271080Y-102280754D01*
X124644477Y-102280754D01*
X124652750Y-102284181D01*
X124656177Y-102292454D01*
X124652750Y-102300727D01*
X124626279Y-102327198D01*
X124587900Y-102419851D01*
X124587900Y-102464572D01*
X124584473Y-102472845D01*
X122833123Y-104224194D01*
X122824850Y-104227621D01*
X122816577Y-104224194D01*
X122814041Y-104220398D01*
X122804050Y-104196279D01*
X122783720Y-104147197D01*
X122712803Y-104076280D01*
X122712801Y-104076279D01*
X122620148Y-104037900D01*
X122620146Y-104037900D01*
X122544712Y-104037900D01*
X122536439Y-104034473D01*
X121988354Y-103486388D01*
X121988353Y-103486387D01*
X121948601Y-103469922D01*
X121932137Y-103463102D01*
X110894254Y-103463102D01*
X110885981Y-103459675D01*
X110646641Y-103220335D01*
X110646640Y-103220334D01*
X110626362Y-103211935D01*
X110604315Y-103202803D01*
X110604314Y-103202802D01*
X110590426Y-103197049D01*
X110590424Y-103197049D01*
X110318418Y-103197049D01*
X110310145Y-103193622D01*
X110272804Y-103156281D01*
X110272803Y-103156280D01*
X110272801Y-103156279D01*
X110180148Y-103117900D01*
X110180146Y-103117900D01*
X110079854Y-103117900D01*
X110079851Y-103117900D01*
X109987198Y-103156279D01*
X109916279Y-103227198D01*
X109877900Y-103319851D01*
X109877900Y-103420148D01*
X109915191Y-103510174D01*
X109916280Y-103512803D01*
X109987197Y-103583720D01*
X110026184Y-103599869D01*
X110079851Y-103622099D01*
X110079852Y-103622099D01*
X110079854Y-103622100D01*
X110079856Y-103622100D01*
X110180144Y-103622100D01*
X110180146Y-103622100D01*
X110272803Y-103583720D01*
X110343720Y-103512803D01*
X110344809Y-103510173D01*
X110351140Y-103503842D01*
X110355618Y-103502951D01*
X110491799Y-103502951D01*
X110500072Y-103506378D01*
X110545774Y-103552080D01*
X110549201Y-103560353D01*
X110545774Y-103568626D01*
X110541978Y-103571162D01*
X110457198Y-103606279D01*
X110386279Y-103677198D01*
X110347900Y-103769851D01*
X110347900Y-103870148D01*
X110386082Y-103962325D01*
X110386280Y-103962803D01*
X110457197Y-104033720D01*
X110515624Y-104057921D01*
X110549851Y-104072099D01*
X110549852Y-104072099D01*
X110549854Y-104072100D01*
X110549856Y-104072100D01*
X110649283Y-104072100D01*
X110657556Y-104075527D01*
X110660983Y-104083800D01*
X110660983Y-105417648D01*
X110657556Y-105425921D01*
X110596279Y-105487198D01*
X110557900Y-105579851D01*
X110557900Y-105680148D01*
X110596279Y-105772801D01*
X110596280Y-105772803D01*
X110667197Y-105843720D01*
X110700786Y-105857633D01*
X110759851Y-105882099D01*
X110759852Y-105882099D01*
X110759854Y-105882100D01*
X110759856Y-105882100D01*
X110860144Y-105882100D01*
X110860146Y-105882100D01*
X110952803Y-105843720D01*
X111023720Y-105772803D01*
X111062100Y-105680146D01*
X111062100Y-105579854D01*
X111023720Y-105487197D01*
X110970312Y-105433789D01*
X110966885Y-105425516D01*
X110966885Y-103983511D01*
X110966885Y-103983510D01*
X110943599Y-103927294D01*
X110900574Y-103884269D01*
X110880259Y-103863954D01*
X110855527Y-103839221D01*
X110852100Y-103830948D01*
X110852100Y-103780704D01*
X110855527Y-103772431D01*
X110863800Y-103769004D01*
X112426547Y-103769004D01*
X112434820Y-103772431D01*
X112438247Y-103780704D01*
X112436614Y-103786087D01*
X112436721Y-103786132D01*
X112397900Y-103879851D01*
X112397900Y-103980148D01*
X112436279Y-104072801D01*
X112436281Y-104072804D01*
X112494556Y-104131079D01*
X112497983Y-104139352D01*
X112497983Y-104567937D01*
X112494556Y-104576210D01*
X112131934Y-104938832D01*
X112121641Y-104963683D01*
X112115202Y-104979229D01*
X112114943Y-104979855D01*
X112108271Y-104995961D01*
X112108271Y-106160360D01*
X112104844Y-106168633D01*
X112046279Y-106227198D01*
X112007900Y-106319851D01*
X112007900Y-106420148D01*
X112038322Y-106493591D01*
X112038322Y-106502545D01*
X112031990Y-106508877D01*
X112027513Y-106509768D01*
X109621932Y-106509768D01*
X109613659Y-106506341D01*
X109610232Y-106498068D01*
X109610232Y-104360041D01*
X109610232Y-104360040D01*
X109594471Y-104321990D01*
X109578711Y-104283941D01*
X109578708Y-104283938D01*
X109578578Y-104283743D01*
X109578530Y-104283505D01*
X109578270Y-104282876D01*
X109578395Y-104282824D01*
X109576829Y-104274960D01*
X109581803Y-104267514D01*
X109583822Y-104266435D01*
X109662803Y-104233720D01*
X109733720Y-104162803D01*
X109772100Y-104070146D01*
X109772100Y-103969854D01*
X109769179Y-103962803D01*
X109754471Y-103927294D01*
X109733720Y-103877197D01*
X109720477Y-103863954D01*
X109717050Y-103855681D01*
X109717050Y-102633816D01*
X109717050Y-102633815D01*
X109703595Y-102601332D01*
X109685529Y-102557716D01*
X109380477Y-102252664D01*
X109377050Y-102244391D01*
X109377050Y-101692946D01*
X109377940Y-101688471D01*
X109402100Y-101630146D01*
X109402100Y-101529854D01*
X109389794Y-101500146D01*
X109363720Y-101437198D01*
X109363719Y-101437196D01*
X109292804Y-101366281D01*
X109292803Y-101366280D01*
X109290686Y-101365403D01*
X109200148Y-101327900D01*
X109200146Y-101327900D01*
X109099854Y-101327900D01*
X109099851Y-101327900D01*
X109007198Y-101366279D01*
X108936279Y-101437198D01*
X108897900Y-101529851D01*
X108897900Y-101630148D01*
X108936279Y-101722801D01*
X108936281Y-101722804D01*
X108959523Y-101746046D01*
X108962950Y-101754319D01*
X108962950Y-102376185D01*
X108968590Y-102389800D01*
X108968590Y-102389801D01*
X108994470Y-102452282D01*
X108994472Y-102452285D01*
X109299523Y-102757336D01*
X109302950Y-102765609D01*
X109302950Y-103882910D01*
X109302059Y-103887387D01*
X109273641Y-103955993D01*
X109267309Y-103962325D01*
X109258355Y-103962325D01*
X109254559Y-103959789D01*
X108627949Y-103333179D01*
X108624522Y-103324906D01*
X108625411Y-103320434D01*
X108642100Y-103280146D01*
X108642100Y-103179854D01*
X108603720Y-103087197D01*
X108532803Y-103016280D01*
X108532801Y-103016279D01*
X108440148Y-102977900D01*
X108440146Y-102977900D01*
X108339854Y-102977900D01*
X108339851Y-102977900D01*
X108247198Y-103016279D01*
X108176279Y-103087198D01*
X108137900Y-103179851D01*
X105453992Y-103179851D01*
X105437994Y-103120148D01*
X105432221Y-103110148D01*
X105381765Y-103022755D01*
X105302245Y-102943235D01*
X105204854Y-102887007D01*
X105204853Y-102887006D01*
X105204850Y-102887005D01*
X105204852Y-102887005D01*
X105096232Y-102857900D01*
X105096229Y-102857900D01*
X104983771Y-102857900D01*
X104983768Y-102857900D01*
X104875148Y-102887005D01*
X104777753Y-102943236D01*
X104698236Y-103022753D01*
X104642005Y-103120148D01*
X104612900Y-103228768D01*
X100406882Y-103228768D01*
X100406882Y-101785827D01*
X100564600Y-101785827D01*
X100564600Y-101804200D01*
X100793029Y-101804200D01*
X100790000Y-101815504D01*
X100790000Y-101894496D01*
X100793029Y-101905800D01*
X100564600Y-101905800D01*
X100564600Y-101924172D01*
X100600403Y-102057795D01*
X100600405Y-102057799D01*
X100669572Y-102177599D01*
X100669576Y-102177604D01*
X100767395Y-102275423D01*
X100767400Y-102275427D01*
X100887200Y-102344594D01*
X100887204Y-102344596D01*
X101020827Y-102380399D01*
X101020829Y-102380400D01*
X101339200Y-102380400D01*
X101339200Y-102155000D01*
X101440800Y-102155000D01*
X101440800Y-102380400D01*
X101759171Y-102380400D01*
X101759172Y-102380399D01*
X101892795Y-102344596D01*
X101892799Y-102344594D01*
X102012599Y-102275427D01*
X102012604Y-102275423D01*
X102110423Y-102177604D01*
X102110427Y-102177599D01*
X102179594Y-102057799D01*
X102179596Y-102057795D01*
X102215399Y-101924172D01*
X102215400Y-101924171D01*
X102215400Y-101905800D01*
X101986971Y-101905800D01*
X101990000Y-101894496D01*
X101990000Y-101815504D01*
X101986971Y-101804200D01*
X102215400Y-101804200D01*
X102215400Y-101785829D01*
X102215399Y-101785827D01*
X104494600Y-101785827D01*
X104494600Y-101804200D01*
X104723029Y-101804200D01*
X104720000Y-101815504D01*
X104720000Y-101894496D01*
X104723029Y-101905800D01*
X104494600Y-101905800D01*
X104494600Y-101924172D01*
X104530403Y-102057795D01*
X104530405Y-102057799D01*
X104599572Y-102177599D01*
X104599576Y-102177604D01*
X104697395Y-102275423D01*
X104697400Y-102275427D01*
X104817200Y-102344594D01*
X104817204Y-102344596D01*
X104950827Y-102380399D01*
X104950829Y-102380400D01*
X105519200Y-102380400D01*
X105519200Y-102155000D01*
X105620800Y-102155000D01*
X105620800Y-102380400D01*
X106189171Y-102380400D01*
X106189172Y-102380399D01*
X106322795Y-102344596D01*
X106322799Y-102344594D01*
X106442599Y-102275427D01*
X106442604Y-102275423D01*
X106540423Y-102177604D01*
X106540427Y-102177599D01*
X106609594Y-102057799D01*
X106609596Y-102057795D01*
X106645399Y-101924172D01*
X106645400Y-101924171D01*
X106645400Y-101905800D01*
X106416971Y-101905800D01*
X106420000Y-101894496D01*
X106420000Y-101815504D01*
X106416971Y-101804200D01*
X106645400Y-101804200D01*
X106645400Y-101785829D01*
X106645399Y-101785827D01*
X106609596Y-101652204D01*
X106609594Y-101652200D01*
X106540427Y-101532400D01*
X106540423Y-101532395D01*
X106442604Y-101434576D01*
X106442599Y-101434572D01*
X106322799Y-101365405D01*
X106322795Y-101365403D01*
X106189172Y-101329600D01*
X105620800Y-101329600D01*
X105620800Y-101555000D01*
X105519200Y-101555000D01*
X105519200Y-101329600D01*
X104950827Y-101329600D01*
X104817204Y-101365403D01*
X104817200Y-101365405D01*
X104697400Y-101434572D01*
X104697395Y-101434576D01*
X104599576Y-101532395D01*
X104599572Y-101532400D01*
X104530405Y-101652200D01*
X104530403Y-101652204D01*
X104494600Y-101785827D01*
X102215399Y-101785827D01*
X102179596Y-101652204D01*
X102179594Y-101652200D01*
X102110427Y-101532400D01*
X102110423Y-101532395D01*
X102012604Y-101434576D01*
X102012599Y-101434572D01*
X101892799Y-101365405D01*
X101892795Y-101365403D01*
X101759172Y-101329600D01*
X101440800Y-101329600D01*
X101440800Y-101555000D01*
X101339200Y-101555000D01*
X101339200Y-101329600D01*
X101020827Y-101329600D01*
X100887204Y-101365403D01*
X100887200Y-101365405D01*
X100767400Y-101434572D01*
X100767395Y-101434576D01*
X100669576Y-101532395D01*
X100669572Y-101532400D01*
X100600405Y-101652200D01*
X100600403Y-101652204D01*
X100564600Y-101785827D01*
X100406882Y-101785827D01*
X100406882Y-100318582D01*
X100410309Y-100310309D01*
X100418582Y-100306882D01*
X132806419Y-100306882D01*
X132814692Y-100310309D01*
G37*
%TD.AperFunction*%
%TD*%
M02*
