%TF.GenerationSoftware,KiCad,Pcbnew,10.0.1*%
%TF.CreationDate,2026-06-17T10:12:15+02:00*%
%TF.ProjectId,USB-PD-CH224K,5553422d-5044-42d4-9348-3232344b2e6b,rev?*%
%TF.SameCoordinates,Original*%
%TF.FileFunction,Legend,Top*%
%TF.FilePolarity,Positive*%
%FSLAX46Y46*%
G04 Gerber Fmt 4.6, Leading zero omitted, Abs format (unit mm)*
G04 Created by KiCad (PCBNEW 10.0.1) date 2026-06-17 10:12:15*
%MOMM*%
%LPD*%
G01*
G04 APERTURE LIST*
G04 Aperture macros list*
%AMRoundRect*
0 Rectangle with rounded corners*
0 $1 Rounding radius*
0 $2 $3 $4 $5 $6 $7 $8 $9 X,Y pos of 4 corners*
0 Add a 4 corners polygon primitive as box body*
4,1,4,$2,$3,$4,$5,$6,$7,$8,$9,$2,$3,0*
0 Add four circle primitives for the rounded corners*
1,1,$1+$1,$2,$3*
1,1,$1+$1,$4,$5*
1,1,$1+$1,$6,$7*
1,1,$1+$1,$8,$9*
0 Add four rect primitives between the rounded corners*
20,1,$1+$1,$2,$3,$4,$5,0*
20,1,$1+$1,$4,$5,$6,$7,0*
20,1,$1+$1,$6,$7,$8,$9,0*
20,1,$1+$1,$8,$9,$2,$3,0*%
G04 Aperture macros list end*
%ADD10C,0.120000*%
%ADD11RoundRect,0.200000X-0.200000X-0.275000X0.200000X-0.275000X0.200000X0.275000X-0.200000X0.275000X0*%
%ADD12RoundRect,0.200000X0.275000X-0.200000X0.275000X0.200000X-0.275000X0.200000X-0.275000X-0.200000X0*%
%ADD13RoundRect,0.218750X-0.218750X-0.256250X0.218750X-0.256250X0.218750X0.256250X-0.218750X0.256250X0*%
%ADD14R,2.100000X3.300000*%
%ADD15RoundRect,0.150000X0.687500X0.150000X-0.687500X0.150000X-0.687500X-0.150000X0.687500X-0.150000X0*%
%ADD16RoundRect,0.250000X0.970000X0.310000X-0.970000X0.310000X-0.970000X-0.310000X0.970000X-0.310000X0*%
%ADD17RoundRect,0.218750X0.218750X0.256250X-0.218750X0.256250X-0.218750X-0.256250X0.218750X-0.256250X0*%
%ADD18RoundRect,0.225000X-0.225000X-0.375000X0.225000X-0.375000X0.225000X0.375000X-0.225000X0.375000X0*%
%ADD19RoundRect,0.200000X0.200000X0.275000X-0.200000X0.275000X-0.200000X-0.275000X0.200000X-0.275000X0*%
%ADD20O,1.600000X1.000000*%
%ADD21O,2.100000X1.000000*%
%ADD22RoundRect,0.150000X-0.575000X0.150000X-0.575000X-0.150000X0.575000X-0.150000X0.575000X0.150000X0*%
%ADD23RoundRect,0.075000X-0.650000X0.075000X-0.650000X-0.075000X0.650000X-0.075000X0.650000X0.075000X0*%
%ADD24C,0.650000*%
%ADD25RoundRect,0.087500X-0.425000X-0.087500X0.425000X-0.087500X0.425000X0.087500X-0.425000X0.087500X0*%
%ADD26RoundRect,0.112500X-0.187500X-0.112500X0.187500X-0.112500X0.187500X0.112500X-0.187500X0.112500X0*%
%ADD27RoundRect,0.225000X-0.225000X-0.250000X0.225000X-0.250000X0.225000X0.250000X-0.225000X0.250000X0*%
%ADD28RoundRect,0.225000X-0.250000X0.225000X-0.250000X-0.225000X0.250000X-0.225000X0.250000X0.225000X0*%
G04 APERTURE END LIST*
%TO.C,R6*%
D10*
X123772469Y-102205213D02*
X124246985Y-102205213D01*
X123772469Y-101160213D02*
X124246985Y-101160213D01*
%TO.C,R2*%
X131973633Y-106988992D02*
X131973633Y-106514476D01*
X130928633Y-106988992D02*
X130928633Y-106514476D01*
%TO.C,F2*%
X109102221Y-110365000D02*
X109427779Y-110365000D01*
X109102221Y-109345000D02*
X109427779Y-109345000D01*
%TO.C,U1*%
X130466250Y-107636408D02*
X130136250Y-107396408D01*
X130466250Y-107156408D01*
X130466250Y-107636408D01*
G36*
X130466250Y-107636408D02*
G01*
X130136250Y-107396408D01*
X130466250Y-107156408D01*
X130466250Y-107636408D01*
G37*
X128456250Y-107956408D02*
X124336250Y-107956408D01*
X124336250Y-102836408D02*
X128456250Y-102836408D01*
%TO.C,SW1*%
X117172044Y-107530000D02*
X118378711Y-107530000D01*
X118378711Y-108800000D01*
X117172044Y-108800000D01*
X117172044Y-107530000D01*
G36*
X117172044Y-107530000D02*
G01*
X118378711Y-107530000D01*
X118378711Y-108800000D01*
X117172044Y-108800000D01*
X117172044Y-107530000D01*
G37*
X114758711Y-107530000D02*
X118378711Y-107530000D01*
X118378711Y-108800000D01*
X114758711Y-108800000D01*
X114758711Y-107530000D01*
X117172044Y-104990000D02*
X118378711Y-104990000D01*
X118378711Y-106260000D01*
X117172044Y-106260000D01*
X117172044Y-104990000D01*
G36*
X117172044Y-104990000D02*
G01*
X118378711Y-104990000D01*
X118378711Y-106260000D01*
X117172044Y-106260000D01*
X117172044Y-104990000D01*
G37*
X114758711Y-104990000D02*
X118378711Y-104990000D01*
X118378711Y-106260000D01*
X114758711Y-106260000D01*
X114758711Y-104990000D01*
X117172044Y-102450000D02*
X118378711Y-102450000D01*
X118378711Y-103720000D01*
X117172044Y-103720000D01*
X117172044Y-102450000D01*
G36*
X117172044Y-102450000D02*
G01*
X118378711Y-102450000D01*
X118378711Y-103720000D01*
X117172044Y-103720000D01*
X117172044Y-102450000D01*
G37*
X114758711Y-102450000D02*
X118378711Y-102450000D01*
X118378711Y-103720000D01*
X114758711Y-103720000D01*
X114758711Y-102450000D01*
X120218711Y-110515000D02*
X120218711Y-109132000D01*
X120218711Y-110515000D02*
X118835711Y-110515000D01*
X119978711Y-110275000D02*
X119978711Y-108965000D01*
X119978711Y-110275000D02*
X113158711Y-110275000D01*
X119978711Y-107365000D02*
X119978711Y-106425000D01*
X119978711Y-104825000D02*
X119978711Y-103885000D01*
X119978711Y-102285000D02*
X119978711Y-100975000D01*
X119978711Y-100975000D02*
X113158711Y-100975000D01*
X117172044Y-108800000D02*
X117172044Y-107530000D01*
X117172044Y-106260000D02*
X117172044Y-104990000D01*
X117172044Y-103720000D02*
X117172044Y-102450000D01*
X113158711Y-110275000D02*
X113158711Y-108965000D01*
X113158711Y-107365000D02*
X113158711Y-106425000D01*
X113158711Y-104825000D02*
X113158711Y-103885000D01*
X113158711Y-102285000D02*
X113158711Y-100975000D01*
%TO.C,D2*%
X120255000Y-112215000D02*
X120255000Y-110745000D01*
X120255000Y-110745000D02*
X117970000Y-110745000D01*
X117970000Y-112215000D02*
X120255000Y-112215000D01*
%TO.C,D1*%
X124042500Y-112355000D02*
X128052500Y-112355000D01*
X124042500Y-110355000D02*
X128052500Y-110355000D01*
X124042500Y-110355000D02*
X124042500Y-112355000D01*
%TO.C,R5*%
X127387024Y-102205213D02*
X126912508Y-102205213D01*
X127387024Y-101160213D02*
X126912508Y-101160213D01*
%TO.C,R1*%
X131564063Y-103876492D02*
X131564063Y-103401976D01*
X130519063Y-103876492D02*
X130519063Y-103401976D01*
%TO.C,R10*%
X121737742Y-112012500D02*
X122212258Y-112012500D01*
X121737742Y-110967500D02*
X122212258Y-110967500D01*
%TO.C,J1*%
X104340000Y-110875000D02*
X102340000Y-110875000D01*
X104340000Y-101475000D02*
X102340000Y-101475000D01*
X100440000Y-110875000D02*
X98540000Y-110875000D01*
X100440000Y-101475000D02*
X98540000Y-101475000D01*
X98540000Y-101475000D02*
X98540000Y-110875000D01*
%TO.C,D4*%
X108042500Y-101110000D02*
X107902500Y-100920000D01*
X108182500Y-100920000D01*
X108042500Y-101110000D01*
G36*
X108042500Y-101110000D02*
G01*
X107902500Y-100920000D01*
X108182500Y-100920000D01*
X108042500Y-101110000D01*
G37*
X109957500Y-103310000D02*
X108487500Y-103310000D01*
X109957500Y-103285000D02*
X109957500Y-103310000D01*
X109957500Y-101985000D02*
X109957500Y-102415000D01*
X109957500Y-101090000D02*
X109957500Y-101115000D01*
X108487500Y-103310000D02*
X108487500Y-103285000D01*
X108487500Y-101115000D02*
X108487500Y-101090000D01*
X108487500Y-101090000D02*
X109957500Y-101090000D01*
%TO.C,R3*%
X115907258Y-112002500D02*
X115432742Y-112002500D01*
X115907258Y-110957500D02*
X115432742Y-110957500D01*
%TO.C,R7*%
X129965097Y-101925543D02*
X130439613Y-101925543D01*
X129965097Y-100880543D02*
X130439613Y-100880543D01*
%TO.C,R9*%
X108967742Y-108262500D02*
X109442258Y-108262500D01*
X108967742Y-107217500D02*
X109442258Y-107217500D01*
%TO.C,D3*%
X107770000Y-112380000D02*
X110430000Y-112380000D01*
X107770000Y-110680000D02*
X110430000Y-110680000D01*
X107770000Y-110680000D02*
X107770000Y-112380000D01*
%TO.C,C2*%
X112449420Y-111980000D02*
X112730580Y-111980000D01*
X112449420Y-110960000D02*
X112730580Y-110960000D01*
%TO.C,C1*%
X131030000Y-109674420D02*
X131030000Y-109955580D01*
X130010000Y-109674420D02*
X130010000Y-109955580D01*
%TO.C,R8*%
X108967742Y-105752500D02*
X109442258Y-105752500D01*
X108967742Y-104707500D02*
X109442258Y-104707500D01*
%TD*%
%LPC*%
D11*
%TO.C,R6*%
X124834727Y-101682713D03*
X123184727Y-101682713D03*
%TD*%
D12*
%TO.C,R2*%
X131451133Y-105926734D03*
X131451133Y-107576734D03*
%TD*%
D13*
%TO.C,F2*%
X110052500Y-109855000D03*
X108477500Y-109855000D03*
%TD*%
D14*
%TO.C,U1*%
X126396250Y-105396408D03*
D15*
X123758750Y-107396408D03*
X123758750Y-106396408D03*
X123758750Y-105396408D03*
X123758750Y-104396408D03*
X123758750Y-103396408D03*
X129033750Y-103396408D03*
X129033750Y-104396408D03*
X129033750Y-105396408D03*
X129033750Y-106396408D03*
X129033750Y-107396408D03*
%TD*%
D16*
%TO.C,SW1*%
X112263711Y-108165000D03*
X112263711Y-105625000D03*
X112263711Y-103085000D03*
X120873711Y-103085000D03*
X120873711Y-105625000D03*
X120873711Y-108165000D03*
%TD*%
D17*
%TO.C,D2*%
X117982500Y-111480000D03*
X119557500Y-111480000D03*
%TD*%
D18*
%TO.C,D1*%
X128052500Y-111355000D03*
X124752500Y-111355000D03*
%TD*%
D19*
%TO.C,R5*%
X126324766Y-101682713D03*
X127974766Y-101682713D03*
%TD*%
D12*
%TO.C,R1*%
X131041563Y-102814234D03*
X131041563Y-104464234D03*
%TD*%
D11*
%TO.C,R10*%
X122800000Y-111490000D03*
X121150000Y-111490000D03*
%TD*%
D20*
%TO.C,J1*%
X101390000Y-110495000D03*
D21*
X105570000Y-110495000D03*
D20*
X101390000Y-101855000D03*
D21*
X105570000Y-101855000D03*
D22*
X106485000Y-102925000D03*
X106485000Y-103725000D03*
D23*
X106485000Y-104425000D03*
X106485000Y-105425000D03*
X106485000Y-106925000D03*
X106485000Y-107925000D03*
D22*
X106485000Y-108625000D03*
X106485000Y-109425000D03*
X106485000Y-109425000D03*
X106485000Y-108625000D03*
D23*
X106485000Y-107425000D03*
X106485000Y-106425000D03*
X106485000Y-105925000D03*
X106485000Y-104925000D03*
D22*
X106485000Y-103725000D03*
X106485000Y-102925000D03*
D24*
X105040000Y-109065000D03*
X105040000Y-103285000D03*
%TD*%
D25*
%TO.C,D4*%
X110060000Y-101550000D03*
X110060000Y-102850000D03*
X108385000Y-102850000D03*
X108385000Y-102200000D03*
X108385000Y-101550000D03*
%TD*%
D19*
%TO.C,R3*%
X114845000Y-111480000D03*
X116495000Y-111480000D03*
%TD*%
D11*
%TO.C,R7*%
X131027355Y-101403043D03*
X129377355Y-101403043D03*
%TD*%
%TO.C,R9*%
X110030000Y-107740000D03*
X108380000Y-107740000D03*
%TD*%
D26*
%TO.C,D3*%
X110430000Y-111530000D03*
X108330000Y-111530000D03*
%TD*%
D27*
%TO.C,C2*%
X113365000Y-111470000D03*
X111815000Y-111470000D03*
%TD*%
D28*
%TO.C,C1*%
X130520000Y-110590000D03*
X130520000Y-109040000D03*
%TD*%
D11*
%TO.C,R8*%
X110030000Y-105230000D03*
X108380000Y-105230000D03*
%TD*%
%LPD*%
M02*
