%TF.GenerationSoftware,KiCad,Pcbnew,9.0.7*%
%TF.CreationDate,2026-03-14T23:31:40+01:00*%
%TF.ProjectId,Bluetooth Box V3,426c7565-746f-46f7-9468-20426f782056,rev?*%
%TF.SameCoordinates,Original*%
%TF.FileFunction,Paste,Top*%
%TF.FilePolarity,Positive*%
%FSLAX46Y46*%
G04 Gerber Fmt 4.6, Leading zero omitted, Abs format (unit mm)*
G04 Created by KiCad (PCBNEW 9.0.7) date 2026-03-14 23:31:40*
%MOMM*%
%LPD*%
G01*
G04 APERTURE LIST*
G04 Aperture macros list*
%AMRoundRect*
0 Rectangle with rounded corners*
0 $1 Rounding radius*
0 $2 $3 $4 $5 $6 $7 $8 $9 X,Y pos of 4 corners*
0 Add a 4 corners polygon primitive as box body*
4,1,4,$2,$3,$4,$5,$6,$7,$8,$9,$2,$3,0*
0 Add four circle primitives for the rounded corners*
1,1,$1+$1,$2,$3*
1,1,$1+$1,$4,$5*
1,1,$1+$1,$6,$7*
1,1,$1+$1,$8,$9*
0 Add four rect primitives between the rounded corners*
20,1,$1+$1,$2,$3,$4,$5,0*
20,1,$1+$1,$4,$5,$6,$7,0*
20,1,$1+$1,$6,$7,$8,$9,0*
20,1,$1+$1,$8,$9,$2,$3,0*%
%AMOutline5P*
0 Free polygon, 5 corners , with rotation*
0 The origin of the aperture is its center*
0 number of corners: always 5*
0 $1 to $10 corner X, Y*
0 $11 Rotation angle, in degrees counterclockwise*
0 create outline with 5 corners*
4,1,5,$1,$2,$3,$4,$5,$6,$7,$8,$9,$10,$1,$2,$11*%
%AMOutline6P*
0 Free polygon, 6 corners , with rotation*
0 The origin of the aperture is its center*
0 number of corners: always 6*
0 $1 to $12 corner X, Y*
0 $13 Rotation angle, in degrees counterclockwise*
0 create outline with 6 corners*
4,1,6,$1,$2,$3,$4,$5,$6,$7,$8,$9,$10,$11,$12,$1,$2,$13*%
%AMOutline7P*
0 Free polygon, 7 corners , with rotation*
0 The origin of the aperture is its center*
0 number of corners: always 7*
0 $1 to $14 corner X, Y*
0 $15 Rotation angle, in degrees counterclockwise*
0 create outline with 7 corners*
4,1,7,$1,$2,$3,$4,$5,$6,$7,$8,$9,$10,$11,$12,$13,$14,$1,$2,$15*%
%AMOutline8P*
0 Free polygon, 8 corners , with rotation*
0 The origin of the aperture is its center*
0 number of corners: always 8*
0 $1 to $16 corner X, Y*
0 $17 Rotation angle, in degrees counterclockwise*
0 create outline with 8 corners*
4,1,8,$1,$2,$3,$4,$5,$6,$7,$8,$9,$10,$11,$12,$13,$14,$15,$16,$1,$2,$17*%
G04 Aperture macros list end*
%ADD10C,0.000000*%
%ADD11R,1.800000X1.200000*%
%ADD12RoundRect,0.250000X-0.475000X0.250000X-0.475000X-0.250000X0.475000X-0.250000X0.475000X0.250000X0*%
%ADD13RoundRect,0.250000X0.475000X-0.250000X0.475000X0.250000X-0.475000X0.250000X-0.475000X-0.250000X0*%
%ADD14RoundRect,0.250000X0.250000X0.475000X-0.250000X0.475000X-0.250000X-0.475000X0.250000X-0.475000X0*%
%ADD15RoundRect,0.250000X-0.250000X-0.475000X0.250000X-0.475000X0.250000X0.475000X-0.250000X0.475000X0*%
%ADD16R,0.800000X0.400000*%
%ADD17R,0.400000X0.800000*%
%ADD18Outline5P,-0.600000X0.204000X-0.204000X0.600000X0.600000X0.600000X0.600000X-0.600000X-0.600000X-0.600000X0.000000*%
%ADD19R,1.200000X1.200000*%
%ADD20R,0.800000X0.800000*%
%ADD21RoundRect,0.250000X-0.262500X-0.450000X0.262500X-0.450000X0.262500X0.450000X-0.262500X0.450000X0*%
%ADD22R,0.254000X0.762000*%
%ADD23R,0.762000X0.254000*%
%ADD24R,3.759200X3.759200*%
%ADD25RoundRect,0.250000X-0.550000X1.500000X-0.550000X-1.500000X0.550000X-1.500000X0.550000X1.500000X0*%
%ADD26RoundRect,0.237500X-0.300000X-0.237500X0.300000X-0.237500X0.300000X0.237500X-0.300000X0.237500X0*%
%ADD27RoundRect,0.250000X-0.450000X0.262500X-0.450000X-0.262500X0.450000X-0.262500X0.450000X0.262500X0*%
%ADD28RoundRect,0.250000X0.262500X0.450000X-0.262500X0.450000X-0.262500X-0.450000X0.262500X-0.450000X0*%
%ADD29R,1.450000X0.600000*%
%ADD30R,1.450000X0.300000*%
%ADD31R,2.997200X0.990600*%
%ADD32R,8.712200X10.337800*%
%ADD33RoundRect,0.180000X-0.180000X-0.315000X0.180000X-0.315000X0.180000X0.315000X-0.180000X0.315000X0*%
%ADD34RoundRect,0.087500X-0.587500X-0.087500X0.587500X-0.087500X0.587500X0.087500X-0.587500X0.087500X0*%
%ADD35RoundRect,0.250000X0.450000X-0.262500X0.450000X0.262500X-0.450000X0.262500X-0.450000X-0.262500X0*%
%ADD36RoundRect,0.075000X0.662500X0.075000X-0.662500X0.075000X-0.662500X-0.075000X0.662500X-0.075000X0*%
%ADD37R,1.500000X0.700000*%
%ADD38R,0.800000X1.000000*%
%ADD39RoundRect,0.100000X-0.100000X0.712500X-0.100000X-0.712500X0.100000X-0.712500X0.100000X0.712500X0*%
%ADD40R,0.990600X0.990600*%
%ADD41RoundRect,0.250000X1.000000X0.750000X-1.000000X0.750000X-1.000000X-0.750000X1.000000X-0.750000X0*%
%ADD42RoundRect,0.075000X0.075000X0.662500X-0.075000X0.662500X-0.075000X-0.662500X0.075000X-0.662500X0*%
%ADD43RoundRect,0.237500X0.300000X0.237500X-0.300000X0.237500X-0.300000X-0.237500X0.300000X-0.237500X0*%
G04 APERTURE END LIST*
D10*
%TO.C,U5*%
G36*
X90650000Y-86312500D02*
G01*
X88970400Y-86312500D01*
X88970400Y-84632900D01*
X90650000Y-84632900D01*
X90650000Y-86312500D01*
G37*
G36*
X90650000Y-88192100D02*
G01*
X88970400Y-88192100D01*
X88970400Y-86512500D01*
X90650000Y-86512500D01*
X90650000Y-88192100D01*
G37*
G36*
X92529600Y-86312500D02*
G01*
X90850000Y-86312500D01*
X90850000Y-84632900D01*
X92529600Y-84632900D01*
X92529600Y-86312500D01*
G37*
G36*
X92529600Y-88192100D02*
G01*
X90850000Y-88192100D01*
X90850000Y-86512500D01*
X92529600Y-86512500D01*
X92529600Y-88192100D01*
G37*
%TD*%
D11*
%TO.C,Y2*%
X117750000Y-57050000D03*
X121750000Y-57050000D03*
X121750000Y-59450000D03*
X117750000Y-59450000D03*
%TD*%
D12*
%TO.C,C58*%
X114000000Y-67450000D03*
X114000000Y-65550000D03*
%TD*%
%TO.C,C57*%
X110750000Y-67450000D03*
X110750000Y-65550000D03*
%TD*%
%TO.C,C56*%
X122500000Y-53550000D03*
X122500000Y-55450000D03*
%TD*%
D13*
%TO.C,C55*%
X120250000Y-55450000D03*
X120250000Y-53550000D03*
%TD*%
D14*
%TO.C,C54*%
X125950000Y-57250000D03*
X124050000Y-57250000D03*
%TD*%
D13*
%TO.C,C53*%
X113500000Y-55450000D03*
X113500000Y-53550000D03*
%TD*%
D12*
%TO.C,C52*%
X118500000Y-61300000D03*
X118500000Y-63200000D03*
%TD*%
D14*
%TO.C,C51*%
X116450000Y-61500000D03*
X114550000Y-61500000D03*
%TD*%
%TO.C,C3*%
X125950000Y-59500000D03*
X124050000Y-59500000D03*
%TD*%
D13*
%TO.C,C30*%
X101250000Y-92112500D03*
X101250000Y-90212500D03*
%TD*%
D12*
%TO.C,C26*%
X87500000Y-93212500D03*
X87500000Y-95112500D03*
%TD*%
D15*
%TO.C,C24*%
X95300000Y-88162500D03*
X97200000Y-88162500D03*
%TD*%
D13*
%TO.C,C35*%
X153500000Y-53450000D03*
X153500000Y-51550000D03*
%TD*%
D16*
%TO.C,U1*%
X112250000Y-33550000D03*
X112250000Y-34400000D03*
X112250000Y-35250000D03*
X112250000Y-36100000D03*
X112250000Y-36950000D03*
X112250000Y-37800000D03*
X112250000Y-38650000D03*
X112250000Y-39500000D03*
X112250000Y-40350000D03*
X112250000Y-41200000D03*
X112250000Y-42050000D03*
X112250000Y-42900000D03*
X112250000Y-43750000D03*
X112250000Y-44600000D03*
X112250000Y-45450000D03*
D17*
X113300000Y-46500000D03*
X114150000Y-46500000D03*
X115000000Y-46500000D03*
X115850000Y-46500000D03*
X116700000Y-46500000D03*
X117550000Y-46500000D03*
X118400000Y-46500000D03*
X119250000Y-46500000D03*
X120100000Y-46500000D03*
X120950000Y-46500000D03*
X121800000Y-46500000D03*
X122650000Y-46500000D03*
X123500000Y-46500000D03*
X124350000Y-46500000D03*
X125200000Y-46500000D03*
D16*
X126250000Y-45450000D03*
X126250000Y-44600000D03*
X126250000Y-43750000D03*
X126250000Y-42900000D03*
X126250000Y-42050000D03*
X126250000Y-41200000D03*
X126250000Y-40350000D03*
X126250000Y-39500000D03*
X126250000Y-38650000D03*
X126250000Y-37800000D03*
X126250000Y-36950000D03*
X126250000Y-36100000D03*
X126250000Y-35250000D03*
X126250000Y-34400000D03*
X126250000Y-33550000D03*
D17*
X125200000Y-32500000D03*
X124350000Y-32500000D03*
X123500000Y-32500000D03*
X122650000Y-32500000D03*
X121800000Y-32500000D03*
X120950000Y-32500000D03*
X120100000Y-32500000D03*
X119250000Y-32500000D03*
X118400000Y-32500000D03*
X117550000Y-32500000D03*
X116700000Y-32500000D03*
X115850000Y-32500000D03*
X115000000Y-32500000D03*
X114150000Y-32500000D03*
X113300000Y-32500000D03*
D18*
X117600000Y-37850000D03*
D19*
X117600000Y-39500000D03*
X117600000Y-41150000D03*
X119250000Y-37850000D03*
X119250000Y-39500000D03*
X119250000Y-41150000D03*
X120900000Y-37850000D03*
X120900000Y-39500000D03*
X120900000Y-41150000D03*
D20*
X112250000Y-32500000D03*
X112250000Y-46500000D03*
X126250000Y-46500000D03*
X126250000Y-32500000D03*
%TD*%
D21*
%TO.C,R20*%
X69337500Y-56762500D03*
X71162500Y-56762500D03*
%TD*%
%TO.C,R13*%
X82087500Y-74250000D03*
X83912500Y-74250000D03*
%TD*%
%TO.C,R17*%
X86337500Y-91412500D03*
X88162500Y-91412500D03*
%TD*%
D22*
%TO.C,U5*%
X92499999Y-83961400D03*
X92000000Y-83961400D03*
X91500001Y-83961400D03*
X91000000Y-83961400D03*
X90500000Y-83961400D03*
X89999999Y-83961400D03*
X89500000Y-83961400D03*
X89000001Y-83961400D03*
D23*
X88298900Y-84662501D03*
X88298900Y-85162500D03*
X88298900Y-85662499D03*
X88298900Y-86162500D03*
X88298900Y-86662500D03*
X88298900Y-87162501D03*
X88298900Y-87662500D03*
X88298900Y-88162499D03*
D22*
X89000001Y-88863600D03*
X89500000Y-88863600D03*
X89999999Y-88863600D03*
X90500000Y-88863600D03*
X91000000Y-88863600D03*
X91500001Y-88863600D03*
X92000000Y-88863600D03*
X92499999Y-88863600D03*
D23*
X93201100Y-88162499D03*
X93201100Y-87662500D03*
X93201100Y-87162501D03*
X93201100Y-86662500D03*
X93201100Y-86162500D03*
X93201100Y-85662499D03*
X93201100Y-85162500D03*
X93201100Y-84662501D03*
D24*
X90750000Y-86412500D03*
%TD*%
D25*
%TO.C,C10*%
X81000000Y-64950000D03*
X81000000Y-70550000D03*
%TD*%
D26*
%TO.C,C8*%
X88637500Y-59750000D03*
X90362500Y-59750000D03*
%TD*%
D12*
%TO.C,C41*%
X89500000Y-52625000D03*
X89500000Y-54525000D03*
%TD*%
%TO.C,C50*%
X74500000Y-56212500D03*
X74500000Y-58112500D03*
%TD*%
D15*
%TO.C,C21*%
X84300000Y-85412500D03*
X86200000Y-85412500D03*
%TD*%
D27*
%TO.C,R2*%
X75250000Y-32337500D03*
X75250000Y-34162500D03*
%TD*%
D28*
%TO.C,R5*%
X130412500Y-33750000D03*
X128587500Y-33750000D03*
%TD*%
D15*
%TO.C,C36*%
X152550000Y-55250000D03*
X154450000Y-55250000D03*
%TD*%
D12*
%TO.C,C9*%
X83500000Y-60462500D03*
X83500000Y-62362500D03*
%TD*%
D13*
%TO.C,C14*%
X80250000Y-83362500D03*
X80250000Y-81462500D03*
%TD*%
D21*
%TO.C,R3*%
X77337500Y-28500000D03*
X79162500Y-28500000D03*
%TD*%
D27*
%TO.C,R11*%
X86750000Y-57000000D03*
X86750000Y-58825000D03*
%TD*%
D21*
%TO.C,R24*%
X75837500Y-54412500D03*
X77662500Y-54412500D03*
%TD*%
D12*
%TO.C,C31*%
X96260000Y-94212500D03*
X96260000Y-96112500D03*
%TD*%
D28*
%TO.C,R25*%
X89500000Y-50162500D03*
X87675000Y-50162500D03*
%TD*%
D29*
%TO.C,J1*%
X72045000Y-27250000D03*
X72045000Y-28050000D03*
D30*
X72045000Y-29250000D03*
X72045000Y-30250000D03*
X72045000Y-30750000D03*
X72045000Y-31750000D03*
D29*
X72045000Y-32950000D03*
X72045000Y-33750000D03*
X72045000Y-33750000D03*
X72045000Y-32950000D03*
D30*
X72045000Y-32250000D03*
X72045000Y-31250000D03*
X72045000Y-29750000D03*
X72045000Y-28750000D03*
D29*
X72045000Y-28050000D03*
X72045000Y-27250000D03*
%TD*%
D31*
%TO.C,CR1*%
X146489100Y-42460000D03*
X146489100Y-47540000D03*
D32*
X157500000Y-45000000D03*
%TD*%
D15*
%TO.C,C11*%
X86550000Y-75250000D03*
X88450000Y-75250000D03*
%TD*%
D12*
%TO.C,C48*%
X80587500Y-56212500D03*
X80587500Y-58112500D03*
%TD*%
D14*
%TO.C,C18*%
X98200000Y-78912500D03*
X96300000Y-78912500D03*
%TD*%
%TO.C,C7*%
X93950000Y-71750000D03*
X92050000Y-71750000D03*
%TD*%
D28*
%TO.C,R15*%
X102162500Y-78912500D03*
X100337500Y-78912500D03*
%TD*%
D12*
%TO.C,C32*%
X93250000Y-94212500D03*
X93250000Y-96112500D03*
%TD*%
D13*
%TO.C,C27*%
X99750000Y-83612500D03*
X99750000Y-81712500D03*
%TD*%
D12*
%TO.C,C49*%
X77587500Y-56212500D03*
X77587500Y-58112500D03*
%TD*%
D13*
%TO.C,C28*%
X98250000Y-92112500D03*
X98250000Y-90212500D03*
%TD*%
D12*
%TO.C,C25*%
X90750000Y-90712500D03*
X90750000Y-92612500D03*
%TD*%
%TO.C,C42*%
X92500000Y-52675000D03*
X92500000Y-54575000D03*
%TD*%
D33*
%TO.C,U6*%
X148140000Y-54500000D03*
X148140000Y-55680000D03*
X149000000Y-54500000D03*
X149000000Y-55680000D03*
D34*
X146395000Y-54115000D03*
X146395000Y-54765000D03*
X146395000Y-55415000D03*
X146395000Y-56065000D03*
X150745000Y-56065000D03*
X150745000Y-55415000D03*
X150745000Y-54765000D03*
X150745000Y-54115000D03*
%TD*%
D13*
%TO.C,C37*%
X67750000Y-50362500D03*
X67750000Y-48462500D03*
%TD*%
D11*
%TO.C,Y1*%
X67750000Y-46612500D03*
X71750000Y-46612500D03*
X71750000Y-44212500D03*
X67750000Y-44212500D03*
%TD*%
D21*
%TO.C,R14*%
X86637500Y-72250000D03*
X88462500Y-72250000D03*
%TD*%
D13*
%TO.C,C13*%
X83250000Y-92362500D03*
X83250000Y-90462500D03*
%TD*%
D27*
%TO.C,R8*%
X92250000Y-60337500D03*
X92250000Y-62162500D03*
%TD*%
D12*
%TO.C,C19*%
X93500000Y-78462500D03*
X93500000Y-80362500D03*
%TD*%
D13*
%TO.C,C46*%
X84750000Y-41862500D03*
X84750000Y-39962500D03*
%TD*%
D35*
%TO.C,R19*%
X146500000Y-59912500D03*
X146500000Y-58087500D03*
%TD*%
D36*
%TO.C,U2*%
X112612500Y-63750000D03*
X112612500Y-63250000D03*
X112612500Y-62750000D03*
X112612500Y-62250000D03*
X112612500Y-61750000D03*
X112612500Y-61250000D03*
X112612500Y-60750000D03*
X112612500Y-60250000D03*
X112612500Y-59750000D03*
X112612500Y-59250000D03*
X112612500Y-58750000D03*
X112612500Y-58250000D03*
X112612500Y-57750000D03*
X112612500Y-57250000D03*
X112612500Y-56750000D03*
X106887500Y-56750000D03*
X106887500Y-57250000D03*
X106887500Y-57750000D03*
X106887500Y-58250000D03*
X106887500Y-58750000D03*
X106887500Y-59250000D03*
X106887500Y-59750000D03*
X106887500Y-60250000D03*
X106887500Y-60750000D03*
X106887500Y-61250000D03*
X106887500Y-61750000D03*
X106887500Y-62250000D03*
X106887500Y-62750000D03*
X106887500Y-63250000D03*
X106887500Y-63750000D03*
%TD*%
D37*
%TO.C,S1*%
X106250000Y-37250000D03*
X106250000Y-40250000D03*
X106250000Y-41750000D03*
D38*
X105600000Y-35850000D03*
X103400000Y-35850000D03*
X105600000Y-43150000D03*
X103400000Y-43150000D03*
%TD*%
D12*
%TO.C,C16*%
X90500000Y-78462500D03*
X90500000Y-80362500D03*
%TD*%
%TO.C,C2*%
X115750000Y-53550000D03*
X115750000Y-55450000D03*
%TD*%
D13*
%TO.C,C15*%
X80250000Y-92362500D03*
X80250000Y-90462500D03*
%TD*%
D21*
%TO.C,R23*%
X75337500Y-38412500D03*
X77162500Y-38412500D03*
%TD*%
D14*
%TO.C,C44*%
X73700000Y-48912500D03*
X71800000Y-48912500D03*
%TD*%
D15*
%TO.C,C20*%
X86800000Y-78912500D03*
X88700000Y-78912500D03*
%TD*%
D25*
%TO.C,C6*%
X99500000Y-63450000D03*
X99500000Y-69050000D03*
%TD*%
D21*
%TO.C,R6*%
X128587500Y-37750000D03*
X130412500Y-37750000D03*
%TD*%
D39*
%TO.C,U3*%
X93475000Y-64637500D03*
X92825000Y-64637500D03*
X92175000Y-64637500D03*
X91525000Y-64637500D03*
X91525000Y-68862500D03*
X92175000Y-68862500D03*
X92825000Y-68862500D03*
X93475000Y-68862500D03*
%TD*%
D28*
%TO.C,R10*%
X93912500Y-74750000D03*
X92087500Y-74750000D03*
%TD*%
D35*
%TO.C,R18*%
X150500000Y-59912500D03*
X150500000Y-58087500D03*
%TD*%
D40*
%TO.C,SW1*%
X101087499Y-50412501D03*
X92087501Y-50412501D03*
X101087499Y-45912499D03*
X92087501Y-45912499D03*
%TD*%
D41*
%TO.C,RV1*%
X98325000Y-37600000D03*
X89675000Y-39750000D03*
X98325000Y-41900000D03*
%TD*%
D27*
%TO.C,R12*%
X86750000Y-60500000D03*
X86750000Y-62325000D03*
%TD*%
%TO.C,R16*%
X93750000Y-90500000D03*
X93750000Y-92325000D03*
%TD*%
D12*
%TO.C,C39*%
X72750000Y-52012500D03*
X72750000Y-53912500D03*
%TD*%
D36*
%TO.C,U7*%
X85412500Y-50662500D03*
X85412500Y-50162500D03*
X85412500Y-49662500D03*
X85412500Y-49162500D03*
X85412500Y-48662500D03*
X85412500Y-48162500D03*
X85412500Y-47662500D03*
X85412500Y-47162500D03*
X85412500Y-46662500D03*
X85412500Y-46162500D03*
X85412500Y-45662500D03*
X85412500Y-45162500D03*
D42*
X84000000Y-43750000D03*
X83500000Y-43750000D03*
X83000000Y-43750000D03*
X82500000Y-43750000D03*
X82000000Y-43750000D03*
X81500000Y-43750000D03*
X81000000Y-43750000D03*
X80500000Y-43750000D03*
X80000000Y-43750000D03*
X79500000Y-43750000D03*
X79000000Y-43750000D03*
X78500000Y-43750000D03*
D36*
X77087500Y-45162500D03*
X77087500Y-45662500D03*
X77087500Y-46162500D03*
X77087500Y-46662500D03*
X77087500Y-47162500D03*
X77087500Y-47662500D03*
X77087500Y-48162500D03*
X77087500Y-48662500D03*
X77087500Y-49162500D03*
X77087500Y-49662500D03*
X77087500Y-50162500D03*
X77087500Y-50662500D03*
D42*
X78500000Y-52075000D03*
X79000000Y-52075000D03*
X79500000Y-52075000D03*
X80000000Y-52075000D03*
X80500000Y-52075000D03*
X81000000Y-52075000D03*
X81500000Y-52075000D03*
X82000000Y-52075000D03*
X82500000Y-52075000D03*
X83000000Y-52075000D03*
X83500000Y-52075000D03*
X84000000Y-52075000D03*
%TD*%
D15*
%TO.C,C43*%
X74800000Y-52412500D03*
X76700000Y-52412500D03*
%TD*%
D28*
%TO.C,R9*%
X97912500Y-72250000D03*
X96087500Y-72250000D03*
%TD*%
D12*
%TO.C,C47*%
X83587500Y-56212500D03*
X83587500Y-58112500D03*
%TD*%
D43*
%TO.C,C4*%
X90362500Y-62750000D03*
X88637500Y-62750000D03*
%TD*%
D13*
%TO.C,C29*%
X103000000Y-83612500D03*
X103000000Y-81712500D03*
%TD*%
D21*
%TO.C,R26*%
X106587500Y-46000000D03*
X108412500Y-46000000D03*
%TD*%
D13*
%TO.C,C45*%
X81250000Y-41862500D03*
X81250000Y-39962500D03*
%TD*%
D39*
%TO.C,U4*%
X88225000Y-64800000D03*
X87575000Y-64800000D03*
X86925000Y-64800000D03*
X86275000Y-64800000D03*
X86275000Y-69025000D03*
X86925000Y-69025000D03*
X87575000Y-69025000D03*
X88225000Y-69025000D03*
%TD*%
D15*
%TO.C,C17*%
X85300000Y-81912500D03*
X87200000Y-81912500D03*
%TD*%
%TO.C,C23*%
X95300000Y-85162500D03*
X97200000Y-85162500D03*
%TD*%
D27*
%TO.C,R21*%
X73750000Y-44500000D03*
X73750000Y-46325000D03*
%TD*%
D14*
%TO.C,C33*%
X149950000Y-35000000D03*
X148050000Y-35000000D03*
%TD*%
D27*
%TO.C,R7*%
X92250000Y-56837500D03*
X92250000Y-58662500D03*
%TD*%
D21*
%TO.C,R22*%
X75337500Y-41412500D03*
X77162500Y-41412500D03*
%TD*%
D28*
%TO.C,R1*%
X76162500Y-26250000D03*
X74337500Y-26250000D03*
%TD*%
D15*
%TO.C,C40*%
X69800000Y-42412500D03*
X71700000Y-42412500D03*
%TD*%
D14*
%TO.C,C34*%
X148450000Y-51000000D03*
X146550000Y-51000000D03*
%TD*%
D12*
%TO.C,C38*%
X69750000Y-52012500D03*
X69750000Y-53912500D03*
%TD*%
%TO.C,C5*%
X95500000Y-60300000D03*
X95500000Y-62200000D03*
%TD*%
D15*
%TO.C,C22*%
X84300000Y-88412500D03*
X86200000Y-88412500D03*
%TD*%
D21*
%TO.C,R4*%
X77337500Y-31750000D03*
X79162500Y-31750000D03*
%TD*%
D13*
%TO.C,C12*%
X83250000Y-83362500D03*
X83250000Y-81462500D03*
%TD*%
D40*
%TO.C,SW2*%
X142830899Y-37206851D03*
X133830901Y-37206851D03*
X142830899Y-32706849D03*
X133830901Y-32706849D03*
%TD*%
D13*
%TO.C,C1*%
X123000000Y-63200000D03*
X123000000Y-61300000D03*
%TD*%
M02*
