%TF.GenerationSoftware,KiCad,Pcbnew,10.0.1*%
%TF.CreationDate,2026-09-22T11:34:16+02:00*%
%TF.ProjectId,USB-PD-CH224A,5553422d-5044-42d4-9348-323234412e6b,rev?*%
%TF.SameCoordinates,Original*%
%TF.FileFunction,Soldermask,Top*%
%TF.FilePolarity,Negative*%
%FSLAX46Y46*%
G04 Gerber Fmt 4.6, Leading zero omitted, Abs format (unit mm)*
G04 Created by KiCad (PCBNEW 10.0.1) date 2026-09-22 11:34:16*
%MOMM*%
%LPD*%
G01*
G04 APERTURE LIST*
G04 APERTURE END LIST*
G36*
X168070000Y-149180000D02*
G01*
X166270000Y-149180000D01*
X166270000Y-148080000D01*
X168070000Y-148080000D01*
X168070000Y-149180000D01*
G37*
G36*
X176670000Y-149180000D02*
G01*
X174870000Y-149180000D01*
X174870000Y-148080000D01*
X176670000Y-148080000D01*
X176670000Y-149180000D01*
G37*
G36*
X200144047Y-146430805D02*
G01*
X200195408Y-146436764D01*
X200212954Y-146444511D01*
X200235671Y-146449030D01*
X200259991Y-146465280D01*
X200280793Y-146474465D01*
X200295000Y-146488672D01*
X200316777Y-146503223D01*
X200331327Y-146524999D01*
X200345534Y-146539206D01*
X200354718Y-146560006D01*
X200370970Y-146584329D01*
X200375489Y-146607048D01*
X200383235Y-146624591D01*
X200389192Y-146675940D01*
X200390000Y-146680000D01*
X200390000Y-147580000D01*
X200389192Y-147584059D01*
X200383235Y-147635408D01*
X200375489Y-147652950D01*
X200370970Y-147675671D01*
X200354716Y-147699995D01*
X200345534Y-147720793D01*
X200331329Y-147734997D01*
X200316777Y-147756777D01*
X200294997Y-147771329D01*
X200280793Y-147785534D01*
X200259995Y-147794716D01*
X200235671Y-147810970D01*
X200212950Y-147815489D01*
X200195408Y-147823235D01*
X200144061Y-147829192D01*
X200140000Y-147830000D01*
X199615000Y-147830000D01*
X199610941Y-147829192D01*
X199559591Y-147823235D01*
X199542048Y-147815489D01*
X199519329Y-147810970D01*
X199495006Y-147794718D01*
X199474206Y-147785534D01*
X199459999Y-147771327D01*
X199438223Y-147756777D01*
X199423672Y-147735000D01*
X199409465Y-147720793D01*
X199400280Y-147699991D01*
X199384030Y-147675671D01*
X199379511Y-147652954D01*
X199371764Y-147635408D01*
X199365805Y-147584049D01*
X199365000Y-147580000D01*
X199365000Y-146680000D01*
X199365804Y-146675953D01*
X199371764Y-146624591D01*
X199379511Y-146607043D01*
X199384030Y-146584329D01*
X199400278Y-146560010D01*
X199409465Y-146539206D01*
X199423674Y-146524996D01*
X199438223Y-146503223D01*
X199459996Y-146488674D01*
X199474206Y-146474465D01*
X199495010Y-146465278D01*
X199519329Y-146449030D01*
X199542043Y-146444511D01*
X199559591Y-146436764D01*
X199610952Y-146430805D01*
X199615000Y-146430000D01*
X200140000Y-146430000D01*
X200144047Y-146430805D01*
G37*
G36*
X201969047Y-146430805D02*
G01*
X202020408Y-146436764D01*
X202037954Y-146444511D01*
X202060671Y-146449030D01*
X202084991Y-146465280D01*
X202105793Y-146474465D01*
X202120000Y-146488672D01*
X202141777Y-146503223D01*
X202156327Y-146524999D01*
X202170534Y-146539206D01*
X202179718Y-146560006D01*
X202195970Y-146584329D01*
X202200489Y-146607048D01*
X202208235Y-146624591D01*
X202214192Y-146675940D01*
X202215000Y-146680000D01*
X202215000Y-147580000D01*
X202214192Y-147584059D01*
X202208235Y-147635408D01*
X202200489Y-147652950D01*
X202195970Y-147675671D01*
X202179716Y-147699995D01*
X202170534Y-147720793D01*
X202156329Y-147734997D01*
X202141777Y-147756777D01*
X202119997Y-147771329D01*
X202105793Y-147785534D01*
X202084995Y-147794716D01*
X202060671Y-147810970D01*
X202037950Y-147815489D01*
X202020408Y-147823235D01*
X201969061Y-147829192D01*
X201965000Y-147830000D01*
X201440000Y-147830000D01*
X201435941Y-147829192D01*
X201384591Y-147823235D01*
X201367048Y-147815489D01*
X201344329Y-147810970D01*
X201320006Y-147794718D01*
X201299206Y-147785534D01*
X201284999Y-147771327D01*
X201263223Y-147756777D01*
X201248672Y-147735000D01*
X201234465Y-147720793D01*
X201225280Y-147699991D01*
X201209030Y-147675671D01*
X201204511Y-147652954D01*
X201196764Y-147635408D01*
X201190805Y-147584049D01*
X201190000Y-147580000D01*
X201190000Y-146680000D01*
X201190804Y-146675953D01*
X201196764Y-146624591D01*
X201204511Y-146607043D01*
X201209030Y-146584329D01*
X201225278Y-146560010D01*
X201234465Y-146539206D01*
X201248674Y-146524996D01*
X201263223Y-146503223D01*
X201284996Y-146488674D01*
X201299206Y-146474465D01*
X201320010Y-146465278D01*
X201344329Y-146449030D01*
X201367043Y-146444511D01*
X201384591Y-146436764D01*
X201435952Y-146430805D01*
X201440000Y-146430000D01*
X201965000Y-146430000D01*
X201969047Y-146430805D01*
G37*
G36*
X196674047Y-146420805D02*
G01*
X196725408Y-146426764D01*
X196742954Y-146434511D01*
X196765671Y-146439030D01*
X196789991Y-146455280D01*
X196810793Y-146464465D01*
X196825000Y-146478672D01*
X196846777Y-146493223D01*
X196861327Y-146514999D01*
X196875534Y-146529206D01*
X196884718Y-146550006D01*
X196900970Y-146574329D01*
X196905489Y-146597048D01*
X196913235Y-146614591D01*
X196919192Y-146665940D01*
X196920000Y-146670000D01*
X196920000Y-147570000D01*
X196919192Y-147574059D01*
X196913235Y-147625408D01*
X196905489Y-147642950D01*
X196900970Y-147665671D01*
X196884716Y-147689995D01*
X196875534Y-147710793D01*
X196861329Y-147724997D01*
X196846777Y-147746777D01*
X196824997Y-147761329D01*
X196810793Y-147775534D01*
X196789995Y-147784716D01*
X196765671Y-147800970D01*
X196742950Y-147805489D01*
X196725408Y-147813235D01*
X196674061Y-147819192D01*
X196670000Y-147820000D01*
X196145000Y-147820000D01*
X196140941Y-147819192D01*
X196089591Y-147813235D01*
X196072048Y-147805489D01*
X196049329Y-147800970D01*
X196025006Y-147784718D01*
X196004206Y-147775534D01*
X195989999Y-147761327D01*
X195968223Y-147746777D01*
X195953672Y-147725000D01*
X195939465Y-147710793D01*
X195930280Y-147689991D01*
X195914030Y-147665671D01*
X195909511Y-147642954D01*
X195901764Y-147625408D01*
X195895805Y-147574049D01*
X195895000Y-147570000D01*
X195895000Y-146670000D01*
X195895804Y-146665953D01*
X195901764Y-146614591D01*
X195909511Y-146597043D01*
X195914030Y-146574329D01*
X195930278Y-146550010D01*
X195939465Y-146529206D01*
X195953674Y-146514996D01*
X195968223Y-146493223D01*
X195989996Y-146478674D01*
X196004206Y-146464465D01*
X196025010Y-146455278D01*
X196049329Y-146439030D01*
X196072043Y-146434511D01*
X196089591Y-146426764D01*
X196140952Y-146420805D01*
X196145000Y-146420000D01*
X196670000Y-146420000D01*
X196674047Y-146420805D01*
G37*
G36*
X198499047Y-146420805D02*
G01*
X198550408Y-146426764D01*
X198567954Y-146434511D01*
X198590671Y-146439030D01*
X198614991Y-146455280D01*
X198635793Y-146464465D01*
X198650000Y-146478672D01*
X198671777Y-146493223D01*
X198686327Y-146514999D01*
X198700534Y-146529206D01*
X198709718Y-146550006D01*
X198725970Y-146574329D01*
X198730489Y-146597048D01*
X198738235Y-146614591D01*
X198744192Y-146665940D01*
X198745000Y-146670000D01*
X198745000Y-147570000D01*
X198744192Y-147574059D01*
X198738235Y-147625408D01*
X198730489Y-147642950D01*
X198725970Y-147665671D01*
X198709716Y-147689995D01*
X198700534Y-147710793D01*
X198686329Y-147724997D01*
X198671777Y-147746777D01*
X198649997Y-147761329D01*
X198635793Y-147775534D01*
X198614995Y-147784716D01*
X198590671Y-147800970D01*
X198567950Y-147805489D01*
X198550408Y-147813235D01*
X198499061Y-147819192D01*
X198495000Y-147820000D01*
X197970000Y-147820000D01*
X197965941Y-147819192D01*
X197914591Y-147813235D01*
X197897048Y-147805489D01*
X197874329Y-147800970D01*
X197850006Y-147784718D01*
X197829206Y-147775534D01*
X197814999Y-147761327D01*
X197793223Y-147746777D01*
X197778672Y-147725000D01*
X197764465Y-147710793D01*
X197755280Y-147689991D01*
X197739030Y-147665671D01*
X197734511Y-147642954D01*
X197726764Y-147625408D01*
X197720805Y-147574049D01*
X197720000Y-147570000D01*
X197720000Y-146670000D01*
X197720804Y-146665953D01*
X197726764Y-146614591D01*
X197734511Y-146597043D01*
X197739030Y-146574329D01*
X197755278Y-146550010D01*
X197764465Y-146529206D01*
X197778674Y-146514996D01*
X197793223Y-146493223D01*
X197814996Y-146478674D01*
X197829206Y-146464465D01*
X197850010Y-146455278D01*
X197874329Y-146439030D01*
X197897043Y-146434511D01*
X197914591Y-146426764D01*
X197965952Y-146420805D01*
X197970000Y-146420000D01*
X198495000Y-146420000D01*
X198499047Y-146420805D01*
G37*
G36*
X168070000Y-146640000D02*
G01*
X166270000Y-146640000D01*
X166270000Y-145540000D01*
X168070000Y-145540000D01*
X168070000Y-146640000D01*
G37*
G36*
X176670000Y-146640000D02*
G01*
X174870000Y-146640000D01*
X174870000Y-145540000D01*
X176670000Y-145540000D01*
X176670000Y-146640000D01*
G37*
G36*
X193984047Y-143380805D02*
G01*
X194035408Y-143386764D01*
X194052954Y-143394511D01*
X194075671Y-143399030D01*
X194099991Y-143415280D01*
X194120793Y-143424465D01*
X194135000Y-143438672D01*
X194156777Y-143453223D01*
X194171327Y-143474999D01*
X194185534Y-143489206D01*
X194194718Y-143510006D01*
X194210970Y-143534329D01*
X194215489Y-143557048D01*
X194223235Y-143574591D01*
X194229192Y-143625940D01*
X194230000Y-143630000D01*
X194230000Y-145630000D01*
X194229192Y-145634059D01*
X194223235Y-145685408D01*
X194215489Y-145702950D01*
X194210970Y-145725671D01*
X194194716Y-145749995D01*
X194185534Y-145770793D01*
X194171329Y-145784997D01*
X194156777Y-145806777D01*
X194134997Y-145821329D01*
X194120793Y-145835534D01*
X194099995Y-145844716D01*
X194075671Y-145860970D01*
X194052950Y-145865489D01*
X194035408Y-145873235D01*
X193984061Y-145879192D01*
X193980000Y-145880000D01*
X192680000Y-145880000D01*
X192675941Y-145879192D01*
X192624591Y-145873235D01*
X192607048Y-145865489D01*
X192584329Y-145860970D01*
X192560006Y-145844718D01*
X192539206Y-145835534D01*
X192524999Y-145821327D01*
X192503223Y-145806777D01*
X192488672Y-145785000D01*
X192474465Y-145770793D01*
X192465280Y-145749991D01*
X192449030Y-145725671D01*
X192444511Y-145702954D01*
X192436764Y-145685408D01*
X192430805Y-145634049D01*
X192430000Y-145630000D01*
X192430000Y-143630000D01*
X192430804Y-143625953D01*
X192436764Y-143574591D01*
X192444511Y-143557043D01*
X192449030Y-143534329D01*
X192465278Y-143510010D01*
X192474465Y-143489206D01*
X192488674Y-143474996D01*
X192503223Y-143453223D01*
X192524996Y-143438674D01*
X192539206Y-143424465D01*
X192560010Y-143415278D01*
X192584329Y-143399030D01*
X192607043Y-143394511D01*
X192624591Y-143386764D01*
X192675952Y-143380805D01*
X192680000Y-143380000D01*
X193980000Y-143380000D01*
X193984047Y-143380805D01*
G37*
G36*
X198919903Y-144921418D02*
G01*
X198968566Y-144953934D01*
X199001082Y-145002597D01*
X199012500Y-145060000D01*
X199012500Y-145360000D01*
X199001082Y-145417403D01*
X198968566Y-145466066D01*
X198919903Y-145498582D01*
X198862500Y-145510000D01*
X197687500Y-145510000D01*
X197630097Y-145498582D01*
X197581434Y-145466066D01*
X197548918Y-145417403D01*
X197537500Y-145360000D01*
X197537500Y-145060000D01*
X197548918Y-145002597D01*
X197581434Y-144953934D01*
X197630097Y-144921418D01*
X197687500Y-144910000D01*
X198862500Y-144910000D01*
X198919903Y-144921418D01*
G37*
G36*
X156945263Y-143844278D02*
G01*
X157071342Y-143878060D01*
X157184381Y-143943323D01*
X157276677Y-144035619D01*
X157341940Y-144148658D01*
X157375722Y-144274737D01*
X157375722Y-144405263D01*
X157341940Y-144531342D01*
X157276677Y-144644381D01*
X157184381Y-144736677D01*
X157071342Y-144801940D01*
X156945263Y-144835722D01*
X156880000Y-144840000D01*
X156878363Y-144840000D01*
X156281637Y-144840000D01*
X156280000Y-144840000D01*
X156214737Y-144835722D01*
X156088658Y-144801940D01*
X155975619Y-144736677D01*
X155883323Y-144644381D01*
X155818060Y-144531342D01*
X155784278Y-144405263D01*
X155784278Y-144274737D01*
X155818060Y-144148658D01*
X155883323Y-144035619D01*
X155975619Y-143943323D01*
X156088658Y-143878060D01*
X156214737Y-143844278D01*
X156280000Y-143840000D01*
X156880000Y-143840000D01*
X156945263Y-143844278D01*
G37*
G36*
X161375263Y-143844278D02*
G01*
X161501342Y-143878060D01*
X161614381Y-143943323D01*
X161706677Y-144035619D01*
X161771940Y-144148658D01*
X161805722Y-144274737D01*
X161805722Y-144405263D01*
X161771940Y-144531342D01*
X161706677Y-144644381D01*
X161614381Y-144736677D01*
X161501342Y-144801940D01*
X161375263Y-144835722D01*
X161310000Y-144840000D01*
X161308363Y-144840000D01*
X160211637Y-144840000D01*
X160210000Y-144840000D01*
X160144737Y-144835722D01*
X160018658Y-144801940D01*
X159905619Y-144736677D01*
X159813323Y-144644381D01*
X159748060Y-144531342D01*
X159714278Y-144405263D01*
X159714278Y-144274737D01*
X159748060Y-144148658D01*
X159813323Y-144035619D01*
X159905619Y-143943323D01*
X160018658Y-143878060D01*
X160144737Y-143844278D01*
X160210000Y-143840000D01*
X161310000Y-143840000D01*
X161375263Y-143844278D01*
G37*
G36*
X197044903Y-143971418D02*
G01*
X197093566Y-144003934D01*
X197126082Y-144052597D01*
X197137500Y-144110000D01*
X197137500Y-144410000D01*
X197126082Y-144467403D01*
X197093566Y-144516066D01*
X197044903Y-144548582D01*
X196987500Y-144560000D01*
X195812500Y-144560000D01*
X195755097Y-144548582D01*
X195706434Y-144516066D01*
X195673918Y-144467403D01*
X195662500Y-144410000D01*
X195662500Y-144110000D01*
X195673918Y-144052597D01*
X195706434Y-144003934D01*
X195755097Y-143971418D01*
X195812500Y-143960000D01*
X196987500Y-143960000D01*
X197044903Y-143971418D01*
G37*
G36*
X168070000Y-144100000D02*
G01*
X166270000Y-144100000D01*
X166270000Y-143000000D01*
X168070000Y-143000000D01*
X168070000Y-144100000D01*
G37*
G36*
X176670000Y-144100000D02*
G01*
X174870000Y-144100000D01*
X174870000Y-143000000D01*
X176670000Y-143000000D01*
X176670000Y-144100000D01*
G37*
G36*
X198919903Y-143021418D02*
G01*
X198968566Y-143053934D01*
X199001082Y-143102597D01*
X199012500Y-143160000D01*
X199012500Y-143460000D01*
X199001082Y-143517403D01*
X198968566Y-143566066D01*
X198919903Y-143598582D01*
X198862500Y-143610000D01*
X197687500Y-143610000D01*
X197630097Y-143598582D01*
X197581434Y-143566066D01*
X197548918Y-143517403D01*
X197537500Y-143460000D01*
X197537500Y-143160000D01*
X197548918Y-143102597D01*
X197581434Y-143053934D01*
X197630097Y-143021418D01*
X197687500Y-143010000D01*
X198862500Y-143010000D01*
X198919903Y-143021418D01*
G37*
G36*
X162307403Y-142981418D02*
G01*
X162356066Y-143013934D01*
X162388582Y-143062597D01*
X162400000Y-143120000D01*
X162400000Y-143420000D01*
X162388582Y-143477403D01*
X162356066Y-143526066D01*
X162307403Y-143558582D01*
X162250000Y-143570000D01*
X161100000Y-143570000D01*
X161042597Y-143558582D01*
X160993934Y-143526066D01*
X160961418Y-143477403D01*
X160950000Y-143420000D01*
X160950000Y-143120000D01*
X160961418Y-143062597D01*
X160993934Y-143013934D01*
X161042597Y-142981418D01*
X161100000Y-142970000D01*
X162250000Y-142970000D01*
X162307403Y-142981418D01*
G37*
G36*
X214371256Y-141708754D02*
G01*
X214534257Y-141776271D01*
X214680954Y-141874291D01*
X214805709Y-141999046D01*
X214903729Y-142145743D01*
X214971246Y-142308744D01*
X215005666Y-142481785D01*
X215005666Y-142658215D01*
X214971246Y-142831256D01*
X214903729Y-142994257D01*
X214805709Y-143140954D01*
X214680954Y-143265709D01*
X214534257Y-143363729D01*
X214371256Y-143431246D01*
X214198215Y-143465666D01*
X214021785Y-143465666D01*
X213848744Y-143431246D01*
X213685743Y-143363729D01*
X213539046Y-143265709D01*
X213414291Y-143140954D01*
X213316271Y-142994257D01*
X213248754Y-142831256D01*
X213214334Y-142658215D01*
X213214334Y-142481785D01*
X213248754Y-142308744D01*
X213316271Y-142145743D01*
X213414291Y-141999046D01*
X213539046Y-141874291D01*
X213685743Y-141776271D01*
X213848744Y-141708754D01*
X214021785Y-141674334D01*
X214198215Y-141674334D01*
X214371256Y-141708754D01*
G37*
G36*
X160354372Y-142609739D02*
G01*
X160427847Y-142652160D01*
X160487840Y-142712153D01*
X160530261Y-142785628D01*
X160552220Y-142867579D01*
X160552220Y-142952421D01*
X160530261Y-143034372D01*
X160487840Y-143107847D01*
X160427847Y-143167840D01*
X160354372Y-143210261D01*
X160272421Y-143232220D01*
X160187579Y-143232220D01*
X160105628Y-143210261D01*
X160032153Y-143167840D01*
X159972160Y-143107847D01*
X159929739Y-143034372D01*
X159907780Y-142952421D01*
X159907780Y-142867579D01*
X159929739Y-142785628D01*
X159972160Y-142712153D01*
X160032153Y-142652160D01*
X160105628Y-142609739D01*
X160187579Y-142587780D01*
X160272421Y-142587780D01*
X160354372Y-142609739D01*
G37*
G36*
X162307403Y-142181418D02*
G01*
X162356066Y-142213934D01*
X162388582Y-142262597D01*
X162400000Y-142320000D01*
X162400000Y-142620000D01*
X162388582Y-142677403D01*
X162356066Y-142726066D01*
X162307403Y-142758582D01*
X162250000Y-142770000D01*
X161100000Y-142770000D01*
X161042597Y-142758582D01*
X160993934Y-142726066D01*
X160961418Y-142677403D01*
X160950000Y-142620000D01*
X160950000Y-142320000D01*
X160961418Y-142262597D01*
X160993934Y-142213934D01*
X161042597Y-142181418D01*
X161100000Y-142170000D01*
X162250000Y-142170000D01*
X162307403Y-142181418D01*
G37*
G36*
X182755000Y-142300000D02*
G01*
X181255000Y-142300000D01*
X181255000Y-141700000D01*
X182755000Y-141700000D01*
X182755000Y-142300000D01*
G37*
G36*
X188755000Y-142300000D02*
G01*
X187255000Y-142300000D01*
X187255000Y-141700000D01*
X188755000Y-141700000D01*
X188755000Y-142300000D01*
G37*
G36*
X198548461Y-141605455D02*
G01*
X198620830Y-141624847D01*
X198685715Y-141662308D01*
X198738692Y-141715285D01*
X198776153Y-141780170D01*
X198795545Y-141852539D01*
X198795545Y-141927461D01*
X198776153Y-141999830D01*
X198738692Y-142064715D01*
X198685715Y-142117692D01*
X198620830Y-142155153D01*
X198548461Y-142174545D01*
X198511000Y-142177000D01*
X198509363Y-142177000D01*
X197050637Y-142177000D01*
X197049000Y-142177000D01*
X197011539Y-142174545D01*
X196939170Y-142155153D01*
X196874285Y-142117692D01*
X196821308Y-142064715D01*
X196783847Y-141999830D01*
X196764455Y-141927461D01*
X196764455Y-141852539D01*
X196783847Y-141780170D01*
X196821308Y-141715285D01*
X196874285Y-141662308D01*
X196939170Y-141624847D01*
X197011539Y-141605455D01*
X197049000Y-141603000D01*
X198511000Y-141603000D01*
X198548461Y-141605455D01*
G37*
G36*
X204088461Y-141605455D02*
G01*
X204160830Y-141624847D01*
X204225715Y-141662308D01*
X204278692Y-141715285D01*
X204316153Y-141780170D01*
X204335545Y-141852539D01*
X204335545Y-141927461D01*
X204316153Y-141999830D01*
X204278692Y-142064715D01*
X204225715Y-142117692D01*
X204160830Y-142155153D01*
X204088461Y-142174545D01*
X204051000Y-142177000D01*
X204049363Y-142177000D01*
X202590637Y-142177000D01*
X202589000Y-142177000D01*
X202551539Y-142174545D01*
X202479170Y-142155153D01*
X202414285Y-142117692D01*
X202361308Y-142064715D01*
X202323847Y-141999830D01*
X202304455Y-141927461D01*
X202304455Y-141852539D01*
X202323847Y-141780170D01*
X202361308Y-141715285D01*
X202414285Y-141662308D01*
X202479170Y-141624847D01*
X202551539Y-141605455D01*
X202589000Y-141603000D01*
X204051000Y-141603000D01*
X204088461Y-141605455D01*
G37*
G36*
X162353701Y-141625709D02*
G01*
X162378033Y-141641967D01*
X162394291Y-141666299D01*
X162400000Y-141695000D01*
X162400000Y-141845000D01*
X162394291Y-141873701D01*
X162378033Y-141898033D01*
X162353701Y-141914291D01*
X162325000Y-141920000D01*
X161025000Y-141920000D01*
X160996299Y-141914291D01*
X160971967Y-141898033D01*
X160955709Y-141873701D01*
X160950000Y-141845000D01*
X160950000Y-141695000D01*
X160955709Y-141666299D01*
X160971967Y-141641967D01*
X160996299Y-141625709D01*
X161025000Y-141620000D01*
X162325000Y-141620000D01*
X162353701Y-141625709D01*
G37*
G36*
X193984047Y-139380805D02*
G01*
X194035408Y-139386764D01*
X194052954Y-139394511D01*
X194075671Y-139399030D01*
X194099991Y-139415280D01*
X194120793Y-139424465D01*
X194135000Y-139438672D01*
X194156777Y-139453223D01*
X194171327Y-139474999D01*
X194185534Y-139489206D01*
X194194718Y-139510006D01*
X194210970Y-139534329D01*
X194215489Y-139557048D01*
X194223235Y-139574591D01*
X194229192Y-139625940D01*
X194230000Y-139630000D01*
X194230000Y-141630000D01*
X194229192Y-141634059D01*
X194223235Y-141685408D01*
X194215489Y-141702950D01*
X194210970Y-141725671D01*
X194194716Y-141749995D01*
X194185534Y-141770793D01*
X194171329Y-141784997D01*
X194156777Y-141806777D01*
X194134997Y-141821329D01*
X194120793Y-141835534D01*
X194099995Y-141844716D01*
X194075671Y-141860970D01*
X194052950Y-141865489D01*
X194035408Y-141873235D01*
X193984061Y-141879192D01*
X193980000Y-141880000D01*
X192680000Y-141880000D01*
X192675941Y-141879192D01*
X192624591Y-141873235D01*
X192607048Y-141865489D01*
X192584329Y-141860970D01*
X192560006Y-141844718D01*
X192539206Y-141835534D01*
X192524999Y-141821327D01*
X192503223Y-141806777D01*
X192488672Y-141785000D01*
X192474465Y-141770793D01*
X192465280Y-141749991D01*
X192449030Y-141725671D01*
X192444511Y-141702954D01*
X192436764Y-141685408D01*
X192430805Y-141634049D01*
X192430000Y-141630000D01*
X192430000Y-139630000D01*
X192430804Y-139625953D01*
X192436764Y-139574591D01*
X192444511Y-139557043D01*
X192449030Y-139534329D01*
X192465278Y-139510010D01*
X192474465Y-139489206D01*
X192488674Y-139474996D01*
X192503223Y-139453223D01*
X192524996Y-139438674D01*
X192539206Y-139424465D01*
X192560010Y-139415278D01*
X192584329Y-139399030D01*
X192607043Y-139394511D01*
X192624591Y-139386764D01*
X192675952Y-139380805D01*
X192680000Y-139380000D01*
X193980000Y-139380000D01*
X193984047Y-139380805D01*
G37*
G36*
X186055000Y-141650000D02*
G01*
X183955000Y-141650000D01*
X183955000Y-138350000D01*
X186055000Y-138350000D01*
X186055000Y-141650000D01*
G37*
G36*
X162353701Y-141125709D02*
G01*
X162378033Y-141141967D01*
X162394291Y-141166299D01*
X162400000Y-141195000D01*
X162400000Y-141345000D01*
X162394291Y-141373701D01*
X162378033Y-141398033D01*
X162353701Y-141414291D01*
X162325000Y-141420000D01*
X161025000Y-141420000D01*
X160996299Y-141414291D01*
X160971967Y-141398033D01*
X160955709Y-141373701D01*
X160950000Y-141345000D01*
X160950000Y-141195000D01*
X160955709Y-141166299D01*
X160971967Y-141141967D01*
X160996299Y-141125709D01*
X161025000Y-141120000D01*
X162325000Y-141120000D01*
X162353701Y-141125709D01*
G37*
G36*
X182755000Y-141300000D02*
G01*
X181255000Y-141300000D01*
X181255000Y-140700000D01*
X182755000Y-140700000D01*
X182755000Y-141300000D01*
G37*
G36*
X188755000Y-141300000D02*
G01*
X187255000Y-141300000D01*
X187255000Y-140700000D01*
X188755000Y-140700000D01*
X188755000Y-141300000D01*
G37*
G36*
X162353701Y-140625709D02*
G01*
X162378033Y-140641967D01*
X162394291Y-140666299D01*
X162400000Y-140695000D01*
X162400000Y-140845000D01*
X162394291Y-140873701D01*
X162378033Y-140898033D01*
X162353701Y-140914291D01*
X162325000Y-140920000D01*
X161025000Y-140920000D01*
X160996299Y-140914291D01*
X160971967Y-140898033D01*
X160955709Y-140873701D01*
X160950000Y-140845000D01*
X160950000Y-140695000D01*
X160955709Y-140666299D01*
X160971967Y-140641967D01*
X160996299Y-140625709D01*
X161025000Y-140620000D01*
X162325000Y-140620000D01*
X162353701Y-140625709D01*
G37*
G36*
X198548461Y-140335455D02*
G01*
X198620830Y-140354847D01*
X198685715Y-140392308D01*
X198738692Y-140445285D01*
X198776153Y-140510170D01*
X198795545Y-140582539D01*
X198795545Y-140657461D01*
X198776153Y-140729830D01*
X198738692Y-140794715D01*
X198685715Y-140847692D01*
X198620830Y-140885153D01*
X198548461Y-140904545D01*
X198511000Y-140907000D01*
X198509363Y-140907000D01*
X197050637Y-140907000D01*
X197049000Y-140907000D01*
X197011539Y-140904545D01*
X196939170Y-140885153D01*
X196874285Y-140847692D01*
X196821308Y-140794715D01*
X196783847Y-140729830D01*
X196764455Y-140657461D01*
X196764455Y-140582539D01*
X196783847Y-140510170D01*
X196821308Y-140445285D01*
X196874285Y-140392308D01*
X196939170Y-140354847D01*
X197011539Y-140335455D01*
X197049000Y-140333000D01*
X198511000Y-140333000D01*
X198548461Y-140335455D01*
G37*
G36*
X204088461Y-140335455D02*
G01*
X204160830Y-140354847D01*
X204225715Y-140392308D01*
X204278692Y-140445285D01*
X204316153Y-140510170D01*
X204335545Y-140582539D01*
X204335545Y-140657461D01*
X204316153Y-140729830D01*
X204278692Y-140794715D01*
X204225715Y-140847692D01*
X204160830Y-140885153D01*
X204088461Y-140904545D01*
X204051000Y-140907000D01*
X204049363Y-140907000D01*
X202590637Y-140907000D01*
X202589000Y-140907000D01*
X202551539Y-140904545D01*
X202479170Y-140885153D01*
X202414285Y-140847692D01*
X202361308Y-140794715D01*
X202323847Y-140729830D01*
X202304455Y-140657461D01*
X202304455Y-140582539D01*
X202323847Y-140510170D01*
X202361308Y-140445285D01*
X202414285Y-140392308D01*
X202479170Y-140354847D01*
X202551539Y-140335455D01*
X202589000Y-140333000D01*
X204051000Y-140333000D01*
X204088461Y-140335455D01*
G37*
G36*
X162353701Y-140125709D02*
G01*
X162378033Y-140141967D01*
X162394291Y-140166299D01*
X162400000Y-140195000D01*
X162400000Y-140345000D01*
X162394291Y-140373701D01*
X162378033Y-140398033D01*
X162353701Y-140414291D01*
X162325000Y-140420000D01*
X161025000Y-140420000D01*
X160996299Y-140414291D01*
X160971967Y-140398033D01*
X160955709Y-140373701D01*
X160950000Y-140345000D01*
X160950000Y-140195000D01*
X160955709Y-140166299D01*
X160971967Y-140141967D01*
X160996299Y-140125709D01*
X161025000Y-140120000D01*
X162325000Y-140120000D01*
X162353701Y-140125709D01*
G37*
G36*
X182755000Y-140300000D02*
G01*
X181255000Y-140300000D01*
X181255000Y-139700000D01*
X182755000Y-139700000D01*
X182755000Y-140300000D01*
G37*
G36*
X188755000Y-140300000D02*
G01*
X187255000Y-140300000D01*
X187255000Y-139700000D01*
X188755000Y-139700000D01*
X188755000Y-140300000D01*
G37*
G36*
X162353701Y-139625709D02*
G01*
X162378033Y-139641967D01*
X162394291Y-139666299D01*
X162400000Y-139695000D01*
X162400000Y-139845000D01*
X162394291Y-139873701D01*
X162378033Y-139898033D01*
X162353701Y-139914291D01*
X162325000Y-139920000D01*
X161025000Y-139920000D01*
X160996299Y-139914291D01*
X160971967Y-139898033D01*
X160955709Y-139873701D01*
X160950000Y-139845000D01*
X160950000Y-139695000D01*
X160955709Y-139666299D01*
X160971967Y-139641967D01*
X160996299Y-139625709D01*
X161025000Y-139620000D01*
X162325000Y-139620000D01*
X162353701Y-139625709D01*
G37*
G36*
X198548461Y-139075455D02*
G01*
X198620830Y-139094847D01*
X198685715Y-139132308D01*
X198738692Y-139185285D01*
X198776153Y-139250170D01*
X198795545Y-139322539D01*
X198795545Y-139397461D01*
X198776153Y-139469830D01*
X198738692Y-139534715D01*
X198685715Y-139587692D01*
X198620830Y-139625153D01*
X198548461Y-139644545D01*
X198511000Y-139647000D01*
X198509363Y-139647000D01*
X197050637Y-139647000D01*
X197049000Y-139647000D01*
X197011539Y-139644545D01*
X196939170Y-139625153D01*
X196874285Y-139587692D01*
X196821308Y-139534715D01*
X196783847Y-139469830D01*
X196764455Y-139397461D01*
X196764455Y-139322539D01*
X196783847Y-139250170D01*
X196821308Y-139185285D01*
X196874285Y-139132308D01*
X196939170Y-139094847D01*
X197011539Y-139075455D01*
X197049000Y-139073000D01*
X198511000Y-139073000D01*
X198548461Y-139075455D01*
G37*
G36*
X204088461Y-139075455D02*
G01*
X204160830Y-139094847D01*
X204225715Y-139132308D01*
X204278692Y-139185285D01*
X204316153Y-139250170D01*
X204335545Y-139322539D01*
X204335545Y-139397461D01*
X204316153Y-139469830D01*
X204278692Y-139534715D01*
X204225715Y-139587692D01*
X204160830Y-139625153D01*
X204088461Y-139644545D01*
X204051000Y-139647000D01*
X204049363Y-139647000D01*
X202590637Y-139647000D01*
X202589000Y-139647000D01*
X202551539Y-139644545D01*
X202479170Y-139625153D01*
X202414285Y-139587692D01*
X202361308Y-139534715D01*
X202323847Y-139469830D01*
X202304455Y-139397461D01*
X202304455Y-139322539D01*
X202323847Y-139250170D01*
X202361308Y-139185285D01*
X202414285Y-139132308D01*
X202479170Y-139094847D01*
X202551539Y-139075455D01*
X202589000Y-139073000D01*
X204051000Y-139073000D01*
X204088461Y-139075455D01*
G37*
G36*
X162353701Y-139125709D02*
G01*
X162378033Y-139141967D01*
X162394291Y-139166299D01*
X162400000Y-139195000D01*
X162400000Y-139345000D01*
X162394291Y-139373701D01*
X162378033Y-139398033D01*
X162353701Y-139414291D01*
X162325000Y-139420000D01*
X161025000Y-139420000D01*
X160996299Y-139414291D01*
X160971967Y-139398033D01*
X160955709Y-139373701D01*
X160950000Y-139345000D01*
X160950000Y-139195000D01*
X160955709Y-139166299D01*
X160971967Y-139141967D01*
X160996299Y-139125709D01*
X161025000Y-139120000D01*
X162325000Y-139120000D01*
X162353701Y-139125709D01*
G37*
G36*
X182755000Y-139300000D02*
G01*
X181255000Y-139300000D01*
X181255000Y-138700000D01*
X182755000Y-138700000D01*
X182755000Y-139300000D01*
G37*
G36*
X188755000Y-139300000D02*
G01*
X187255000Y-139300000D01*
X187255000Y-138700000D01*
X188755000Y-138700000D01*
X188755000Y-139300000D01*
G37*
G36*
X162353701Y-138625709D02*
G01*
X162378033Y-138641967D01*
X162394291Y-138666299D01*
X162400000Y-138695000D01*
X162400000Y-138845000D01*
X162394291Y-138873701D01*
X162378033Y-138898033D01*
X162353701Y-138914291D01*
X162325000Y-138920000D01*
X161025000Y-138920000D01*
X160996299Y-138914291D01*
X160971967Y-138898033D01*
X160955709Y-138873701D01*
X160950000Y-138845000D01*
X160950000Y-138695000D01*
X160955709Y-138666299D01*
X160971967Y-138641967D01*
X160996299Y-138625709D01*
X161025000Y-138620000D01*
X162325000Y-138620000D01*
X162353701Y-138625709D01*
G37*
G36*
X162353701Y-138125709D02*
G01*
X162378033Y-138141967D01*
X162394291Y-138166299D01*
X162400000Y-138195000D01*
X162400000Y-138345000D01*
X162394291Y-138373701D01*
X162378033Y-138398033D01*
X162353701Y-138414291D01*
X162325000Y-138420000D01*
X161025000Y-138420000D01*
X160996299Y-138414291D01*
X160971967Y-138398033D01*
X160955709Y-138373701D01*
X160950000Y-138345000D01*
X160950000Y-138195000D01*
X160955709Y-138166299D01*
X160971967Y-138141967D01*
X160996299Y-138125709D01*
X161025000Y-138120000D01*
X162325000Y-138120000D01*
X162353701Y-138125709D01*
G37*
G36*
X214371256Y-136628754D02*
G01*
X214534257Y-136696271D01*
X214680954Y-136794291D01*
X214805709Y-136919046D01*
X214903729Y-137065743D01*
X214971246Y-137228744D01*
X215005666Y-137401785D01*
X215005666Y-137578215D01*
X214971246Y-137751256D01*
X214903729Y-137914257D01*
X214805709Y-138060954D01*
X214680954Y-138185709D01*
X214534257Y-138283729D01*
X214371256Y-138351246D01*
X214198215Y-138385666D01*
X214021785Y-138385666D01*
X213848744Y-138351246D01*
X213685743Y-138283729D01*
X213539046Y-138185709D01*
X213414291Y-138060954D01*
X213316271Y-137914257D01*
X213248754Y-137751256D01*
X213214334Y-137578215D01*
X213214334Y-137401785D01*
X213248754Y-137228744D01*
X213316271Y-137065743D01*
X213414291Y-136919046D01*
X213539046Y-136794291D01*
X213685743Y-136696271D01*
X213848744Y-136628754D01*
X214021785Y-136594334D01*
X214198215Y-136594334D01*
X214371256Y-136628754D01*
G37*
G36*
X198548461Y-137805455D02*
G01*
X198620830Y-137824847D01*
X198685715Y-137862308D01*
X198738692Y-137915285D01*
X198776153Y-137980170D01*
X198795545Y-138052539D01*
X198795545Y-138127461D01*
X198776153Y-138199830D01*
X198738692Y-138264715D01*
X198685715Y-138317692D01*
X198620830Y-138355153D01*
X198548461Y-138374545D01*
X198511000Y-138377000D01*
X198509363Y-138377000D01*
X197050637Y-138377000D01*
X197049000Y-138377000D01*
X197011539Y-138374545D01*
X196939170Y-138355153D01*
X196874285Y-138317692D01*
X196821308Y-138264715D01*
X196783847Y-138199830D01*
X196764455Y-138127461D01*
X196764455Y-138052539D01*
X196783847Y-137980170D01*
X196821308Y-137915285D01*
X196874285Y-137862308D01*
X196939170Y-137824847D01*
X197011539Y-137805455D01*
X197049000Y-137803000D01*
X198511000Y-137803000D01*
X198548461Y-137805455D01*
G37*
G36*
X204088461Y-137805455D02*
G01*
X204160830Y-137824847D01*
X204225715Y-137862308D01*
X204278692Y-137915285D01*
X204316153Y-137980170D01*
X204335545Y-138052539D01*
X204335545Y-138127461D01*
X204316153Y-138199830D01*
X204278692Y-138264715D01*
X204225715Y-138317692D01*
X204160830Y-138355153D01*
X204088461Y-138374545D01*
X204051000Y-138377000D01*
X204049363Y-138377000D01*
X202590637Y-138377000D01*
X202589000Y-138377000D01*
X202551539Y-138374545D01*
X202479170Y-138355153D01*
X202414285Y-138317692D01*
X202361308Y-138264715D01*
X202323847Y-138199830D01*
X202304455Y-138127461D01*
X202304455Y-138052539D01*
X202323847Y-137980170D01*
X202361308Y-137915285D01*
X202414285Y-137862308D01*
X202479170Y-137824847D01*
X202551539Y-137805455D01*
X202589000Y-137803000D01*
X204051000Y-137803000D01*
X204088461Y-137805455D01*
G37*
G36*
X182755000Y-138300000D02*
G01*
X181255000Y-138300000D01*
X181255000Y-137700000D01*
X182755000Y-137700000D01*
X182755000Y-138300000D01*
G37*
G36*
X188755000Y-138300000D02*
G01*
X187255000Y-138300000D01*
X187255000Y-137700000D01*
X188755000Y-137700000D01*
X188755000Y-138300000D01*
G37*
G36*
X162307403Y-137281418D02*
G01*
X162356066Y-137313934D01*
X162388582Y-137362597D01*
X162400000Y-137420000D01*
X162400000Y-137720000D01*
X162388582Y-137777403D01*
X162356066Y-137826066D01*
X162307403Y-137858582D01*
X162250000Y-137870000D01*
X161100000Y-137870000D01*
X161042597Y-137858582D01*
X160993934Y-137826066D01*
X160961418Y-137777403D01*
X160950000Y-137720000D01*
X160950000Y-137420000D01*
X160961418Y-137362597D01*
X160993934Y-137313934D01*
X161042597Y-137281418D01*
X161100000Y-137270000D01*
X162250000Y-137270000D01*
X162307403Y-137281418D01*
G37*
G36*
X160354372Y-136829739D02*
G01*
X160427847Y-136872160D01*
X160487840Y-136932153D01*
X160530261Y-137005628D01*
X160552220Y-137087579D01*
X160552220Y-137172421D01*
X160530261Y-137254372D01*
X160487840Y-137327847D01*
X160427847Y-137387840D01*
X160354372Y-137430261D01*
X160272421Y-137452220D01*
X160187579Y-137452220D01*
X160105628Y-137430261D01*
X160032153Y-137387840D01*
X159972160Y-137327847D01*
X159929739Y-137254372D01*
X159907780Y-137172421D01*
X159907780Y-137087579D01*
X159929739Y-137005628D01*
X159972160Y-136932153D01*
X160032153Y-136872160D01*
X160105628Y-136829739D01*
X160187579Y-136807780D01*
X160272421Y-136807780D01*
X160354372Y-136829739D01*
G37*
G36*
X203809047Y-136120805D02*
G01*
X203860408Y-136126764D01*
X203877954Y-136134511D01*
X203900671Y-136139030D01*
X203924991Y-136155280D01*
X203945793Y-136164465D01*
X203960000Y-136178672D01*
X203981777Y-136193223D01*
X203996327Y-136214999D01*
X204010534Y-136229206D01*
X204019718Y-136250006D01*
X204035970Y-136274329D01*
X204040489Y-136297048D01*
X204048235Y-136314591D01*
X204054192Y-136365940D01*
X204055000Y-136370000D01*
X204055000Y-136870000D01*
X204054192Y-136874059D01*
X204048235Y-136925408D01*
X204040489Y-136942950D01*
X204035970Y-136965671D01*
X204019716Y-136989995D01*
X204010534Y-137010793D01*
X203996329Y-137024997D01*
X203981777Y-137046777D01*
X203959997Y-137061329D01*
X203945793Y-137075534D01*
X203924995Y-137084716D01*
X203900671Y-137100970D01*
X203877950Y-137105489D01*
X203860408Y-137113235D01*
X203809061Y-137119192D01*
X203805000Y-137120000D01*
X202855000Y-137120000D01*
X202850941Y-137119192D01*
X202799591Y-137113235D01*
X202782048Y-137105489D01*
X202759329Y-137100970D01*
X202735006Y-137084718D01*
X202714206Y-137075534D01*
X202699999Y-137061327D01*
X202678223Y-137046777D01*
X202663672Y-137025000D01*
X202649465Y-137010793D01*
X202640280Y-136989991D01*
X202624030Y-136965671D01*
X202619511Y-136942954D01*
X202611764Y-136925408D01*
X202605805Y-136874049D01*
X202605000Y-136870000D01*
X202605000Y-136370000D01*
X202605804Y-136365953D01*
X202611764Y-136314591D01*
X202619511Y-136297043D01*
X202624030Y-136274329D01*
X202640278Y-136250010D01*
X202649465Y-136229206D01*
X202663674Y-136214996D01*
X202678223Y-136193223D01*
X202699996Y-136178674D01*
X202714206Y-136164465D01*
X202735010Y-136155278D01*
X202759329Y-136139030D01*
X202782043Y-136134511D01*
X202799591Y-136126764D01*
X202850952Y-136120805D01*
X202855000Y-136120000D01*
X203805000Y-136120000D01*
X203809047Y-136120805D01*
G37*
G36*
X205899047Y-136110805D02*
G01*
X205950408Y-136116764D01*
X205967954Y-136124511D01*
X205990671Y-136129030D01*
X206014991Y-136145280D01*
X206035793Y-136154465D01*
X206050000Y-136168672D01*
X206071777Y-136183223D01*
X206086327Y-136204999D01*
X206100534Y-136219206D01*
X206109718Y-136240006D01*
X206125970Y-136264329D01*
X206130489Y-136287048D01*
X206138235Y-136304591D01*
X206144192Y-136355940D01*
X206145000Y-136360000D01*
X206145000Y-136860000D01*
X206144192Y-136864059D01*
X206138235Y-136915408D01*
X206130489Y-136932950D01*
X206125970Y-136955671D01*
X206109716Y-136979995D01*
X206100534Y-137000793D01*
X206086329Y-137014997D01*
X206071777Y-137036777D01*
X206049997Y-137051329D01*
X206035793Y-137065534D01*
X206014995Y-137074716D01*
X205990671Y-137090970D01*
X205967950Y-137095489D01*
X205950408Y-137103235D01*
X205899061Y-137109192D01*
X205895000Y-137110000D01*
X204945000Y-137110000D01*
X204940941Y-137109192D01*
X204889591Y-137103235D01*
X204872048Y-137095489D01*
X204849329Y-137090970D01*
X204825006Y-137074718D01*
X204804206Y-137065534D01*
X204789999Y-137051327D01*
X204768223Y-137036777D01*
X204753672Y-137015000D01*
X204739465Y-137000793D01*
X204730280Y-136979991D01*
X204714030Y-136955671D01*
X204709511Y-136932954D01*
X204701764Y-136915408D01*
X204695805Y-136864049D01*
X204695000Y-136860000D01*
X204695000Y-136360000D01*
X204695804Y-136355953D01*
X204701764Y-136304591D01*
X204709511Y-136287043D01*
X204714030Y-136264329D01*
X204730278Y-136240010D01*
X204739465Y-136219206D01*
X204753674Y-136204996D01*
X204768223Y-136183223D01*
X204789996Y-136168674D01*
X204804206Y-136154465D01*
X204825010Y-136145278D01*
X204849329Y-136129030D01*
X204872043Y-136124511D01*
X204889591Y-136116764D01*
X204940952Y-136110805D01*
X204945000Y-136110000D01*
X205895000Y-136110000D01*
X205899047Y-136110805D01*
G37*
G36*
X162307403Y-136481418D02*
G01*
X162356066Y-136513934D01*
X162388582Y-136562597D01*
X162400000Y-136620000D01*
X162400000Y-136920000D01*
X162388582Y-136977403D01*
X162356066Y-137026066D01*
X162307403Y-137058582D01*
X162250000Y-137070000D01*
X161100000Y-137070000D01*
X161042597Y-137058582D01*
X160993934Y-137026066D01*
X160961418Y-136977403D01*
X160950000Y-136920000D01*
X160950000Y-136620000D01*
X160961418Y-136562597D01*
X160993934Y-136513934D01*
X161042597Y-136481418D01*
X161100000Y-136470000D01*
X162250000Y-136470000D01*
X162307403Y-136481418D01*
G37*
G36*
X182489047Y-135460805D02*
G01*
X182540408Y-135466764D01*
X182557954Y-135474511D01*
X182580671Y-135479030D01*
X182604991Y-135495280D01*
X182625793Y-135504465D01*
X182640000Y-135518672D01*
X182661777Y-135533223D01*
X182676327Y-135554999D01*
X182690534Y-135569206D01*
X182699718Y-135590006D01*
X182715970Y-135614329D01*
X182720489Y-135637048D01*
X182728235Y-135654591D01*
X182734192Y-135705940D01*
X182735000Y-135710000D01*
X182735000Y-136210000D01*
X182734192Y-136214059D01*
X182728235Y-136265408D01*
X182720489Y-136282950D01*
X182715970Y-136305671D01*
X182699716Y-136329995D01*
X182690534Y-136350793D01*
X182676329Y-136364997D01*
X182661777Y-136386777D01*
X182639997Y-136401329D01*
X182625793Y-136415534D01*
X182604995Y-136424716D01*
X182580671Y-136440970D01*
X182557950Y-136445489D01*
X182540408Y-136453235D01*
X182489061Y-136459192D01*
X182485000Y-136460000D01*
X181535000Y-136460000D01*
X181530941Y-136459192D01*
X181479591Y-136453235D01*
X181462048Y-136445489D01*
X181439329Y-136440970D01*
X181415006Y-136424718D01*
X181394206Y-136415534D01*
X181379999Y-136401327D01*
X181358223Y-136386777D01*
X181343672Y-136365000D01*
X181329465Y-136350793D01*
X181320280Y-136329991D01*
X181304030Y-136305671D01*
X181299511Y-136282954D01*
X181291764Y-136265408D01*
X181285805Y-136214049D01*
X181285000Y-136210000D01*
X181285000Y-135710000D01*
X181285804Y-135705953D01*
X181291764Y-135654591D01*
X181299511Y-135637043D01*
X181304030Y-135614329D01*
X181320278Y-135590010D01*
X181329465Y-135569206D01*
X181343674Y-135554996D01*
X181358223Y-135533223D01*
X181379996Y-135518674D01*
X181394206Y-135504465D01*
X181415010Y-135495278D01*
X181439329Y-135479030D01*
X181462043Y-135474511D01*
X181479591Y-135466764D01*
X181530952Y-135460805D01*
X181535000Y-135460000D01*
X182485000Y-135460000D01*
X182489047Y-135460805D01*
G37*
G36*
X188454047Y-135428305D02*
G01*
X188505408Y-135434264D01*
X188522954Y-135442011D01*
X188545671Y-135446530D01*
X188569991Y-135462780D01*
X188590793Y-135471965D01*
X188605000Y-135486172D01*
X188626777Y-135500723D01*
X188641327Y-135522499D01*
X188655534Y-135536706D01*
X188664718Y-135557506D01*
X188680970Y-135581829D01*
X188685489Y-135604548D01*
X188693235Y-135622091D01*
X188699192Y-135673440D01*
X188700000Y-135677500D01*
X188700000Y-136202500D01*
X188699192Y-136206559D01*
X188693235Y-136257908D01*
X188685489Y-136275450D01*
X188680970Y-136298171D01*
X188664716Y-136322495D01*
X188655534Y-136343293D01*
X188641329Y-136357497D01*
X188626777Y-136379277D01*
X188604997Y-136393829D01*
X188590793Y-136408034D01*
X188569995Y-136417216D01*
X188545671Y-136433470D01*
X188522950Y-136437989D01*
X188505408Y-136445735D01*
X188454061Y-136451692D01*
X188450000Y-136452500D01*
X187550000Y-136452500D01*
X187545941Y-136451692D01*
X187494591Y-136445735D01*
X187477048Y-136437989D01*
X187454329Y-136433470D01*
X187430006Y-136417218D01*
X187409206Y-136408034D01*
X187394999Y-136393827D01*
X187373223Y-136379277D01*
X187358672Y-136357500D01*
X187344465Y-136343293D01*
X187335280Y-136322491D01*
X187319030Y-136298171D01*
X187314511Y-136275454D01*
X187306764Y-136257908D01*
X187300805Y-136206549D01*
X187300000Y-136202500D01*
X187300000Y-135677500D01*
X187300804Y-135673453D01*
X187306764Y-135622091D01*
X187314511Y-135604543D01*
X187319030Y-135581829D01*
X187335278Y-135557510D01*
X187344465Y-135536706D01*
X187358674Y-135522496D01*
X187373223Y-135500723D01*
X187394996Y-135486174D01*
X187409206Y-135471965D01*
X187430010Y-135462778D01*
X187454329Y-135446530D01*
X187477043Y-135442011D01*
X187494591Y-135434264D01*
X187545952Y-135428305D01*
X187550000Y-135427500D01*
X188450000Y-135427500D01*
X188454047Y-135428305D01*
G37*
G36*
X156945263Y-135204278D02*
G01*
X157071342Y-135238060D01*
X157184381Y-135303323D01*
X157276677Y-135395619D01*
X157341940Y-135508658D01*
X157375722Y-135634737D01*
X157375722Y-135765263D01*
X157341940Y-135891342D01*
X157276677Y-136004381D01*
X157184381Y-136096677D01*
X157071342Y-136161940D01*
X156945263Y-136195722D01*
X156880000Y-136200000D01*
X156878363Y-136200000D01*
X156281637Y-136200000D01*
X156280000Y-136200000D01*
X156214737Y-136195722D01*
X156088658Y-136161940D01*
X155975619Y-136096677D01*
X155883323Y-136004381D01*
X155818060Y-135891342D01*
X155784278Y-135765263D01*
X155784278Y-135634737D01*
X155818060Y-135508658D01*
X155883323Y-135395619D01*
X155975619Y-135303323D01*
X156088658Y-135238060D01*
X156214737Y-135204278D01*
X156280000Y-135200000D01*
X156880000Y-135200000D01*
X156945263Y-135204278D01*
G37*
G36*
X161375263Y-135204278D02*
G01*
X161501342Y-135238060D01*
X161614381Y-135303323D01*
X161706677Y-135395619D01*
X161771940Y-135508658D01*
X161805722Y-135634737D01*
X161805722Y-135765263D01*
X161771940Y-135891342D01*
X161706677Y-136004381D01*
X161614381Y-136096677D01*
X161501342Y-136161940D01*
X161375263Y-136195722D01*
X161310000Y-136200000D01*
X161308363Y-136200000D01*
X160211637Y-136200000D01*
X160210000Y-136200000D01*
X160144737Y-136195722D01*
X160018658Y-136161940D01*
X159905619Y-136096677D01*
X159813323Y-136004381D01*
X159748060Y-135891342D01*
X159714278Y-135765263D01*
X159714278Y-135634737D01*
X159748060Y-135508658D01*
X159813323Y-135395619D01*
X159905619Y-135303323D01*
X160018658Y-135238060D01*
X160144737Y-135204278D01*
X160210000Y-135200000D01*
X161310000Y-135200000D01*
X161375263Y-135204278D01*
G37*
G36*
X169248685Y-134467989D02*
G01*
X169366408Y-134516751D01*
X169472356Y-134587543D01*
X169562457Y-134677644D01*
X169633249Y-134783592D01*
X169682011Y-134901315D01*
X169706870Y-135026289D01*
X169706870Y-135153711D01*
X169682011Y-135278685D01*
X169633249Y-135396408D01*
X169562457Y-135502356D01*
X169472356Y-135592457D01*
X169366408Y-135663249D01*
X169248685Y-135712011D01*
X169123711Y-135736870D01*
X168996289Y-135736870D01*
X168871315Y-135712011D01*
X168753592Y-135663249D01*
X168647644Y-135592457D01*
X168557543Y-135502356D01*
X168486751Y-135396408D01*
X168437989Y-135278685D01*
X168413130Y-135153711D01*
X168413130Y-135026289D01*
X168437989Y-134901315D01*
X168486751Y-134783592D01*
X168557543Y-134677644D01*
X168647644Y-134587543D01*
X168753592Y-134516751D01*
X168871315Y-134467989D01*
X168996289Y-134443130D01*
X169123711Y-134443130D01*
X169248685Y-134467989D01*
G37*
G36*
X173748685Y-134467989D02*
G01*
X173866408Y-134516751D01*
X173972356Y-134587543D01*
X174062457Y-134677644D01*
X174133249Y-134783592D01*
X174182011Y-134901315D01*
X174206870Y-135026289D01*
X174206870Y-135153711D01*
X174182011Y-135278685D01*
X174133249Y-135396408D01*
X174062457Y-135502356D01*
X173972356Y-135592457D01*
X173866408Y-135663249D01*
X173748685Y-135712011D01*
X173623711Y-135736870D01*
X173496289Y-135736870D01*
X173371315Y-135712011D01*
X173253592Y-135663249D01*
X173147644Y-135592457D01*
X173057543Y-135502356D01*
X172986751Y-135396408D01*
X172937989Y-135278685D01*
X172913130Y-135153711D01*
X172913130Y-135026289D01*
X172937989Y-134901315D01*
X172986751Y-134783592D01*
X173057543Y-134677644D01*
X173147644Y-134587543D01*
X173253592Y-134516751D01*
X173371315Y-134467989D01*
X173496289Y-134443130D01*
X173623711Y-134443130D01*
X173748685Y-134467989D01*
G37*
G36*
X203809047Y-134220805D02*
G01*
X203860408Y-134226764D01*
X203877954Y-134234511D01*
X203900671Y-134239030D01*
X203924991Y-134255280D01*
X203945793Y-134264465D01*
X203960000Y-134278672D01*
X203981777Y-134293223D01*
X203996327Y-134314999D01*
X204010534Y-134329206D01*
X204019718Y-134350006D01*
X204035970Y-134374329D01*
X204040489Y-134397048D01*
X204048235Y-134414591D01*
X204054192Y-134465940D01*
X204055000Y-134470000D01*
X204055000Y-134970000D01*
X204054192Y-134974059D01*
X204048235Y-135025408D01*
X204040489Y-135042950D01*
X204035970Y-135065671D01*
X204019716Y-135089995D01*
X204010534Y-135110793D01*
X203996329Y-135124997D01*
X203981777Y-135146777D01*
X203959997Y-135161329D01*
X203945793Y-135175534D01*
X203924995Y-135184716D01*
X203900671Y-135200970D01*
X203877950Y-135205489D01*
X203860408Y-135213235D01*
X203809061Y-135219192D01*
X203805000Y-135220000D01*
X202855000Y-135220000D01*
X202850941Y-135219192D01*
X202799591Y-135213235D01*
X202782048Y-135205489D01*
X202759329Y-135200970D01*
X202735006Y-135184718D01*
X202714206Y-135175534D01*
X202699999Y-135161327D01*
X202678223Y-135146777D01*
X202663672Y-135125000D01*
X202649465Y-135110793D01*
X202640280Y-135089991D01*
X202624030Y-135065671D01*
X202619511Y-135042954D01*
X202611764Y-135025408D01*
X202605805Y-134974049D01*
X202605000Y-134970000D01*
X202605000Y-134470000D01*
X202605804Y-134465953D01*
X202611764Y-134414591D01*
X202619511Y-134397043D01*
X202624030Y-134374329D01*
X202640278Y-134350010D01*
X202649465Y-134329206D01*
X202663674Y-134314996D01*
X202678223Y-134293223D01*
X202699996Y-134278674D01*
X202714206Y-134264465D01*
X202735010Y-134255278D01*
X202759329Y-134239030D01*
X202782043Y-134234511D01*
X202799591Y-134226764D01*
X202850952Y-134220805D01*
X202855000Y-134220000D01*
X203805000Y-134220000D01*
X203809047Y-134220805D01*
G37*
G36*
X205899047Y-134210805D02*
G01*
X205950408Y-134216764D01*
X205967954Y-134224511D01*
X205990671Y-134229030D01*
X206014991Y-134245280D01*
X206035793Y-134254465D01*
X206050000Y-134268672D01*
X206071777Y-134283223D01*
X206086327Y-134304999D01*
X206100534Y-134319206D01*
X206109718Y-134340006D01*
X206125970Y-134364329D01*
X206130489Y-134387048D01*
X206138235Y-134404591D01*
X206144192Y-134455940D01*
X206145000Y-134460000D01*
X206145000Y-134960000D01*
X206144192Y-134964059D01*
X206138235Y-135015408D01*
X206130489Y-135032950D01*
X206125970Y-135055671D01*
X206109716Y-135079995D01*
X206100534Y-135100793D01*
X206086329Y-135114997D01*
X206071777Y-135136777D01*
X206049997Y-135151329D01*
X206035793Y-135165534D01*
X206014995Y-135174716D01*
X205990671Y-135190970D01*
X205967950Y-135195489D01*
X205950408Y-135203235D01*
X205899061Y-135209192D01*
X205895000Y-135210000D01*
X204945000Y-135210000D01*
X204940941Y-135209192D01*
X204889591Y-135203235D01*
X204872048Y-135195489D01*
X204849329Y-135190970D01*
X204825006Y-135174718D01*
X204804206Y-135165534D01*
X204789999Y-135151327D01*
X204768223Y-135136777D01*
X204753672Y-135115000D01*
X204739465Y-135100793D01*
X204730280Y-135079991D01*
X204714030Y-135055671D01*
X204709511Y-135032954D01*
X204701764Y-135015408D01*
X204695805Y-134964049D01*
X204695000Y-134960000D01*
X204695000Y-134460000D01*
X204695804Y-134455953D01*
X204701764Y-134404591D01*
X204709511Y-134387043D01*
X204714030Y-134364329D01*
X204730278Y-134340010D01*
X204739465Y-134319206D01*
X204753674Y-134304996D01*
X204768223Y-134283223D01*
X204789996Y-134268674D01*
X204804206Y-134254465D01*
X204825010Y-134245278D01*
X204849329Y-134229030D01*
X204872043Y-134224511D01*
X204889591Y-134216764D01*
X204940952Y-134210805D01*
X204945000Y-134210000D01*
X205895000Y-134210000D01*
X205899047Y-134210805D01*
G37*
G36*
X188454047Y-133603305D02*
G01*
X188505408Y-133609264D01*
X188522954Y-133617011D01*
X188545671Y-133621530D01*
X188569991Y-133637780D01*
X188590793Y-133646965D01*
X188605000Y-133661172D01*
X188626777Y-133675723D01*
X188641327Y-133697499D01*
X188655534Y-133711706D01*
X188664718Y-133732506D01*
X188680970Y-133756829D01*
X188685489Y-133779548D01*
X188693235Y-133797091D01*
X188699192Y-133848440D01*
X188700000Y-133852500D01*
X188700000Y-134377500D01*
X188699192Y-134381559D01*
X188693235Y-134432908D01*
X188685489Y-134450450D01*
X188680970Y-134473171D01*
X188664716Y-134497495D01*
X188655534Y-134518293D01*
X188641329Y-134532497D01*
X188626777Y-134554277D01*
X188604997Y-134568829D01*
X188590793Y-134583034D01*
X188569995Y-134592216D01*
X188545671Y-134608470D01*
X188522950Y-134612989D01*
X188505408Y-134620735D01*
X188454061Y-134626692D01*
X188450000Y-134627500D01*
X187550000Y-134627500D01*
X187545941Y-134626692D01*
X187494591Y-134620735D01*
X187477048Y-134612989D01*
X187454329Y-134608470D01*
X187430006Y-134592218D01*
X187409206Y-134583034D01*
X187394999Y-134568827D01*
X187373223Y-134554277D01*
X187358672Y-134532500D01*
X187344465Y-134518293D01*
X187335280Y-134497491D01*
X187319030Y-134473171D01*
X187314511Y-134450454D01*
X187306764Y-134432908D01*
X187300805Y-134381549D01*
X187300000Y-134377500D01*
X187300000Y-133852500D01*
X187300804Y-133848453D01*
X187306764Y-133797091D01*
X187314511Y-133779543D01*
X187319030Y-133756829D01*
X187335278Y-133732510D01*
X187344465Y-133711706D01*
X187358674Y-133697496D01*
X187373223Y-133675723D01*
X187394996Y-133661174D01*
X187409206Y-133646965D01*
X187430010Y-133637778D01*
X187454329Y-133621530D01*
X187477043Y-133617011D01*
X187494591Y-133609264D01*
X187545952Y-133603305D01*
X187550000Y-133602500D01*
X188450000Y-133602500D01*
X188454047Y-133603305D01*
G37*
G36*
X182489047Y-133560805D02*
G01*
X182540408Y-133566764D01*
X182557954Y-133574511D01*
X182580671Y-133579030D01*
X182604991Y-133595280D01*
X182625793Y-133604465D01*
X182640000Y-133618672D01*
X182661777Y-133633223D01*
X182676327Y-133654999D01*
X182690534Y-133669206D01*
X182699718Y-133690006D01*
X182715970Y-133714329D01*
X182720489Y-133737048D01*
X182728235Y-133754591D01*
X182734192Y-133805940D01*
X182735000Y-133810000D01*
X182735000Y-134310000D01*
X182734192Y-134314059D01*
X182728235Y-134365408D01*
X182720489Y-134382950D01*
X182715970Y-134405671D01*
X182699716Y-134429995D01*
X182690534Y-134450793D01*
X182676329Y-134464997D01*
X182661777Y-134486777D01*
X182639997Y-134501329D01*
X182625793Y-134515534D01*
X182604995Y-134524716D01*
X182580671Y-134540970D01*
X182557950Y-134545489D01*
X182540408Y-134553235D01*
X182489061Y-134559192D01*
X182485000Y-134560000D01*
X181535000Y-134560000D01*
X181530941Y-134559192D01*
X181479591Y-134553235D01*
X181462048Y-134545489D01*
X181439329Y-134540970D01*
X181415006Y-134524718D01*
X181394206Y-134515534D01*
X181379999Y-134501327D01*
X181358223Y-134486777D01*
X181343672Y-134465000D01*
X181329465Y-134450793D01*
X181320280Y-134429991D01*
X181304030Y-134405671D01*
X181299511Y-134382954D01*
X181291764Y-134365408D01*
X181285805Y-134314049D01*
X181285000Y-134310000D01*
X181285000Y-133810000D01*
X181285804Y-133805953D01*
X181291764Y-133754591D01*
X181299511Y-133737043D01*
X181304030Y-133714329D01*
X181320278Y-133690010D01*
X181329465Y-133669206D01*
X181343674Y-133654996D01*
X181358223Y-133633223D01*
X181379996Y-133618674D01*
X181394206Y-133604465D01*
X181415010Y-133595278D01*
X181439329Y-133579030D01*
X181462043Y-133574511D01*
X181479591Y-133566764D01*
X181530952Y-133560805D01*
X181535000Y-133560000D01*
X182485000Y-133560000D01*
X182489047Y-133560805D01*
G37*
G36*
X169248685Y-132467989D02*
G01*
X169366408Y-132516751D01*
X169472356Y-132587543D01*
X169562457Y-132677644D01*
X169633249Y-132783592D01*
X169682011Y-132901315D01*
X169706870Y-133026289D01*
X169706870Y-133153711D01*
X169682011Y-133278685D01*
X169633249Y-133396408D01*
X169562457Y-133502356D01*
X169472356Y-133592457D01*
X169366408Y-133663249D01*
X169248685Y-133712011D01*
X169123711Y-133736870D01*
X168996289Y-133736870D01*
X168871315Y-133712011D01*
X168753592Y-133663249D01*
X168647644Y-133592457D01*
X168557543Y-133502356D01*
X168486751Y-133396408D01*
X168437989Y-133278685D01*
X168413130Y-133153711D01*
X168413130Y-133026289D01*
X168437989Y-132901315D01*
X168486751Y-132783592D01*
X168557543Y-132677644D01*
X168647644Y-132587543D01*
X168753592Y-132516751D01*
X168871315Y-132467989D01*
X168996289Y-132443130D01*
X169123711Y-132443130D01*
X169248685Y-132467989D01*
G37*
G36*
X173748685Y-132467989D02*
G01*
X173866408Y-132516751D01*
X173972356Y-132587543D01*
X174062457Y-132677644D01*
X174133249Y-132783592D01*
X174182011Y-132901315D01*
X174206870Y-133026289D01*
X174206870Y-133153711D01*
X174182011Y-133278685D01*
X174133249Y-133396408D01*
X174062457Y-133502356D01*
X173972356Y-133592457D01*
X173866408Y-133663249D01*
X173748685Y-133712011D01*
X173623711Y-133736870D01*
X173496289Y-133736870D01*
X173371315Y-133712011D01*
X173253592Y-133663249D01*
X173147644Y-133592457D01*
X173057543Y-133502356D01*
X172986751Y-133396408D01*
X172937989Y-133278685D01*
X172913130Y-133153711D01*
X172913130Y-133026289D01*
X172937989Y-132901315D01*
X172986751Y-132783592D01*
X173057543Y-132677644D01*
X173147644Y-132587543D01*
X173253592Y-132516751D01*
X173371315Y-132467989D01*
X173496289Y-132443130D01*
X173623711Y-132443130D01*
X173748685Y-132467989D01*
G37*
G36*
X174210000Y-131740000D02*
G01*
X172910000Y-131740000D01*
X172910000Y-130440000D01*
X174210000Y-130440000D01*
X174210000Y-131740000D01*
G37*
G36*
X169248685Y-130467989D02*
G01*
X169366408Y-130516751D01*
X169472356Y-130587543D01*
X169562457Y-130677644D01*
X169633249Y-130783592D01*
X169682011Y-130901315D01*
X169706870Y-131026289D01*
X169706870Y-131153711D01*
X169682011Y-131278685D01*
X169633249Y-131396408D01*
X169562457Y-131502356D01*
X169472356Y-131592457D01*
X169366408Y-131663249D01*
X169248685Y-131712011D01*
X169123711Y-131736870D01*
X168996289Y-131736870D01*
X168871315Y-131712011D01*
X168753592Y-131663249D01*
X168647644Y-131592457D01*
X168557543Y-131502356D01*
X168486751Y-131396408D01*
X168437989Y-131278685D01*
X168413130Y-131153711D01*
X168413130Y-131026289D01*
X168437989Y-130901315D01*
X168486751Y-130783592D01*
X168557543Y-130677644D01*
X168647644Y-130587543D01*
X168753592Y-130516751D01*
X168871315Y-130467989D01*
X168996289Y-130443130D01*
X169123711Y-130443130D01*
X169248685Y-130467989D01*
G37*
M02*
