%TF.GenerationSoftware,KiCad,Pcbnew,10.0.1*%
%TF.CreationDate,2026-09-07T14:50:36+02:00*%
%TF.ProjectId,190V-PSU-ONLY,31393056-2d50-4535-952d-4f4e4c592e6b,rev?*%
%TF.SameCoordinates,Original*%
%TF.FileFunction,Soldermask,Top*%
%TF.FilePolarity,Negative*%
%FSLAX46Y46*%
G04 Gerber Fmt 4.6, Leading zero omitted, Abs format (unit mm)*
G04 Created by KiCad (PCBNEW 10.0.1) date 2026-09-07 14:50:36*
%MOMM*%
%LPD*%
G01*
G04 APERTURE LIST*
G04 APERTURE END LIST*
G36*
X202738604Y-115210505D02*
G01*
X202789965Y-115216464D01*
X202807511Y-115224211D01*
X202830228Y-115228730D01*
X202854545Y-115244978D01*
X202875351Y-115254165D01*
X202889562Y-115268376D01*
X202911334Y-115282924D01*
X202925881Y-115304695D01*
X202940092Y-115318906D01*
X202949277Y-115339710D01*
X202965528Y-115364030D01*
X202970046Y-115386747D01*
X202977793Y-115404292D01*
X202983754Y-115455666D01*
X202984557Y-115459702D01*
X202984557Y-115462583D01*
X202984558Y-115462592D01*
X202984558Y-118072407D01*
X202984558Y-119559699D01*
X202983752Y-119563748D01*
X202977793Y-119615107D01*
X202970047Y-119632649D01*
X202965528Y-119655370D01*
X202949276Y-119679691D01*
X202940092Y-119700493D01*
X202925883Y-119714701D01*
X202911334Y-119736476D01*
X202889559Y-119751025D01*
X202875351Y-119765234D01*
X202854549Y-119774418D01*
X202830228Y-119790670D01*
X202807508Y-119795188D01*
X202789965Y-119802935D01*
X202738592Y-119808896D01*
X202734556Y-119809699D01*
X202731673Y-119809699D01*
X202731665Y-119809700D01*
X201137451Y-119809700D01*
X201137450Y-119809699D01*
X201134559Y-119809700D01*
X201130509Y-119808894D01*
X201079150Y-119802935D01*
X201061606Y-119795188D01*
X201038888Y-119790670D01*
X201014568Y-119774419D01*
X200993764Y-119765234D01*
X200979553Y-119751023D01*
X200957782Y-119736476D01*
X200943234Y-119714704D01*
X200929023Y-119700493D01*
X200919836Y-119679687D01*
X200903588Y-119655370D01*
X200899069Y-119632654D01*
X200891322Y-119615107D01*
X200885361Y-119563733D01*
X200884559Y-119559698D01*
X200884558Y-119556815D01*
X200884558Y-119556807D01*
X200884558Y-115462592D01*
X200884558Y-115462591D01*
X200884558Y-115459701D01*
X200885362Y-115455654D01*
X200891322Y-115404292D01*
X200899069Y-115386744D01*
X200903588Y-115364030D01*
X200919835Y-115339714D01*
X200929023Y-115318906D01*
X200943236Y-115304692D01*
X200957782Y-115282924D01*
X200979550Y-115268378D01*
X200993764Y-115254165D01*
X201014572Y-115244977D01*
X201038888Y-115228730D01*
X201061601Y-115224212D01*
X201079150Y-115216464D01*
X201130525Y-115210503D01*
X201134560Y-115209701D01*
X201137442Y-115209700D01*
X201137451Y-115209700D01*
X202731665Y-115209700D01*
X202734557Y-115209700D01*
X202738604Y-115210505D01*
G37*
G36*
X177391950Y-116486105D02*
G01*
X177443311Y-116492064D01*
X177460857Y-116499811D01*
X177483574Y-116504330D01*
X177507894Y-116520580D01*
X177528696Y-116529765D01*
X177542903Y-116543972D01*
X177564680Y-116558523D01*
X177579230Y-116580299D01*
X177593437Y-116594506D01*
X177602621Y-116615306D01*
X177618873Y-116639629D01*
X177623392Y-116662348D01*
X177631138Y-116679891D01*
X177637095Y-116731240D01*
X177637903Y-116735300D01*
X177637903Y-118885300D01*
X177637095Y-118889359D01*
X177631138Y-118940708D01*
X177623392Y-118958250D01*
X177618873Y-118980971D01*
X177602619Y-119005295D01*
X177593437Y-119026093D01*
X177579232Y-119040297D01*
X177564680Y-119062077D01*
X177542900Y-119076629D01*
X177528696Y-119090834D01*
X177507898Y-119100016D01*
X177483574Y-119116270D01*
X177460853Y-119120789D01*
X177443311Y-119128535D01*
X177391964Y-119134492D01*
X177387903Y-119135300D01*
X176762903Y-119135300D01*
X176758844Y-119134492D01*
X176707494Y-119128535D01*
X176689951Y-119120789D01*
X176667232Y-119116270D01*
X176642909Y-119100018D01*
X176622109Y-119090834D01*
X176607902Y-119076627D01*
X176586126Y-119062077D01*
X176571575Y-119040300D01*
X176557368Y-119026093D01*
X176548183Y-119005291D01*
X176531933Y-118980971D01*
X176527414Y-118958254D01*
X176519667Y-118940708D01*
X176513708Y-118889349D01*
X176512903Y-118885300D01*
X176512903Y-116735300D01*
X176513707Y-116731253D01*
X176519667Y-116679891D01*
X176527414Y-116662343D01*
X176531933Y-116639629D01*
X176548181Y-116615310D01*
X176557368Y-116594506D01*
X176571577Y-116580296D01*
X176586126Y-116558523D01*
X176607899Y-116543974D01*
X176622109Y-116529765D01*
X176642913Y-116520578D01*
X176667232Y-116504330D01*
X176689946Y-116499811D01*
X176707494Y-116492064D01*
X176758855Y-116486105D01*
X176762903Y-116485300D01*
X177387903Y-116485300D01*
X177391950Y-116486105D01*
G37*
G36*
X180316950Y-116486105D02*
G01*
X180368311Y-116492064D01*
X180385857Y-116499811D01*
X180408574Y-116504330D01*
X180432894Y-116520580D01*
X180453696Y-116529765D01*
X180467903Y-116543972D01*
X180489680Y-116558523D01*
X180504230Y-116580299D01*
X180518437Y-116594506D01*
X180527621Y-116615306D01*
X180543873Y-116639629D01*
X180548392Y-116662348D01*
X180556138Y-116679891D01*
X180562095Y-116731240D01*
X180562903Y-116735300D01*
X180562903Y-118885300D01*
X180562095Y-118889359D01*
X180556138Y-118940708D01*
X180548392Y-118958250D01*
X180543873Y-118980971D01*
X180527619Y-119005295D01*
X180518437Y-119026093D01*
X180504232Y-119040297D01*
X180489680Y-119062077D01*
X180467900Y-119076629D01*
X180453696Y-119090834D01*
X180432898Y-119100016D01*
X180408574Y-119116270D01*
X180385853Y-119120789D01*
X180368311Y-119128535D01*
X180316964Y-119134492D01*
X180312903Y-119135300D01*
X179687903Y-119135300D01*
X179683844Y-119134492D01*
X179632494Y-119128535D01*
X179614951Y-119120789D01*
X179592232Y-119116270D01*
X179567909Y-119100018D01*
X179547109Y-119090834D01*
X179532902Y-119076627D01*
X179511126Y-119062077D01*
X179496575Y-119040300D01*
X179482368Y-119026093D01*
X179473183Y-119005291D01*
X179456933Y-118980971D01*
X179452414Y-118958254D01*
X179444667Y-118940708D01*
X179438708Y-118889349D01*
X179437903Y-118885300D01*
X179437903Y-116735300D01*
X179438707Y-116731253D01*
X179444667Y-116679891D01*
X179452414Y-116662343D01*
X179456933Y-116639629D01*
X179473181Y-116615310D01*
X179482368Y-116594506D01*
X179496577Y-116580296D01*
X179511126Y-116558523D01*
X179532899Y-116543974D01*
X179547109Y-116529765D01*
X179567913Y-116520578D01*
X179592232Y-116504330D01*
X179614946Y-116499811D01*
X179632494Y-116492064D01*
X179683855Y-116486105D01*
X179687903Y-116485300D01*
X180312903Y-116485300D01*
X180316950Y-116486105D01*
G37*
G36*
X215694141Y-118390000D02*
G01*
X208994141Y-118390000D01*
X208994141Y-111690000D01*
X215694141Y-111690000D01*
X215694141Y-118390000D01*
G37*
G36*
X173158630Y-116876105D02*
G01*
X173209991Y-116882064D01*
X173227537Y-116889811D01*
X173250254Y-116894330D01*
X173274574Y-116910580D01*
X173295376Y-116919765D01*
X173309583Y-116933972D01*
X173331360Y-116948523D01*
X173345910Y-116970299D01*
X173360117Y-116984506D01*
X173369301Y-117005306D01*
X173385553Y-117029629D01*
X173390072Y-117052348D01*
X173397818Y-117069891D01*
X173403775Y-117121240D01*
X173404583Y-117125300D01*
X173404583Y-118075300D01*
X173403775Y-118079359D01*
X173397818Y-118130708D01*
X173390072Y-118148250D01*
X173385553Y-118170971D01*
X173369299Y-118195295D01*
X173360117Y-118216093D01*
X173345912Y-118230297D01*
X173331360Y-118252077D01*
X173309580Y-118266629D01*
X173295376Y-118280834D01*
X173274578Y-118290016D01*
X173250254Y-118306270D01*
X173227533Y-118310789D01*
X173209991Y-118318535D01*
X173158644Y-118324492D01*
X173154583Y-118325300D01*
X172654583Y-118325300D01*
X172650524Y-118324492D01*
X172599174Y-118318535D01*
X172581631Y-118310789D01*
X172558912Y-118306270D01*
X172534589Y-118290018D01*
X172513789Y-118280834D01*
X172499582Y-118266627D01*
X172477806Y-118252077D01*
X172463255Y-118230300D01*
X172449048Y-118216093D01*
X172439863Y-118195291D01*
X172423613Y-118170971D01*
X172419094Y-118148254D01*
X172411347Y-118130708D01*
X172405388Y-118079349D01*
X172404583Y-118075300D01*
X172404583Y-117125300D01*
X172405387Y-117121253D01*
X172411347Y-117069891D01*
X172419094Y-117052343D01*
X172423613Y-117029629D01*
X172439861Y-117005310D01*
X172449048Y-116984506D01*
X172463257Y-116970296D01*
X172477806Y-116948523D01*
X172499579Y-116933974D01*
X172513789Y-116919765D01*
X172534593Y-116910578D01*
X172558912Y-116894330D01*
X172581626Y-116889811D01*
X172599174Y-116882064D01*
X172650535Y-116876105D01*
X172654583Y-116875300D01*
X173154583Y-116875300D01*
X173158630Y-116876105D01*
G37*
G36*
X175058630Y-116876105D02*
G01*
X175109991Y-116882064D01*
X175127537Y-116889811D01*
X175150254Y-116894330D01*
X175174574Y-116910580D01*
X175195376Y-116919765D01*
X175209583Y-116933972D01*
X175231360Y-116948523D01*
X175245910Y-116970299D01*
X175260117Y-116984506D01*
X175269301Y-117005306D01*
X175285553Y-117029629D01*
X175290072Y-117052348D01*
X175297818Y-117069891D01*
X175303775Y-117121240D01*
X175304583Y-117125300D01*
X175304583Y-118075300D01*
X175303775Y-118079359D01*
X175297818Y-118130708D01*
X175290072Y-118148250D01*
X175285553Y-118170971D01*
X175269299Y-118195295D01*
X175260117Y-118216093D01*
X175245912Y-118230297D01*
X175231360Y-118252077D01*
X175209580Y-118266629D01*
X175195376Y-118280834D01*
X175174578Y-118290016D01*
X175150254Y-118306270D01*
X175127533Y-118310789D01*
X175109991Y-118318535D01*
X175058644Y-118324492D01*
X175054583Y-118325300D01*
X174554583Y-118325300D01*
X174550524Y-118324492D01*
X174499174Y-118318535D01*
X174481631Y-118310789D01*
X174458912Y-118306270D01*
X174434589Y-118290018D01*
X174413789Y-118280834D01*
X174399582Y-118266627D01*
X174377806Y-118252077D01*
X174363255Y-118230300D01*
X174349048Y-118216093D01*
X174339863Y-118195291D01*
X174323613Y-118170971D01*
X174319094Y-118148254D01*
X174311347Y-118130708D01*
X174305388Y-118079349D01*
X174304583Y-118075300D01*
X174304583Y-117125300D01*
X174305387Y-117121253D01*
X174311347Y-117069891D01*
X174319094Y-117052343D01*
X174323613Y-117029629D01*
X174339861Y-117005310D01*
X174349048Y-116984506D01*
X174363257Y-116970296D01*
X174377806Y-116948523D01*
X174399579Y-116933974D01*
X174413789Y-116919765D01*
X174434593Y-116910578D01*
X174458912Y-116894330D01*
X174481626Y-116889811D01*
X174499174Y-116882064D01*
X174550535Y-116876105D01*
X174554583Y-116875300D01*
X175054583Y-116875300D01*
X175058630Y-116876105D01*
G37*
G36*
X221694141Y-118126000D02*
G01*
X218694141Y-118126000D01*
X218694141Y-116526000D01*
X221694141Y-116526000D01*
X221694141Y-118126000D01*
G37*
G36*
X224189802Y-114101105D02*
G01*
X224241163Y-114107064D01*
X224258709Y-114114811D01*
X224281426Y-114119330D01*
X224305746Y-114135580D01*
X224326548Y-114144765D01*
X224340755Y-114158972D01*
X224362532Y-114173523D01*
X224377082Y-114195299D01*
X224391289Y-114209506D01*
X224400473Y-114230306D01*
X224416725Y-114254629D01*
X224421244Y-114277348D01*
X224428990Y-114294891D01*
X224434947Y-114346240D01*
X224435755Y-114350300D01*
X224435755Y-115650300D01*
X224434947Y-115654359D01*
X224428990Y-115705708D01*
X224421244Y-115723250D01*
X224416725Y-115745971D01*
X224400471Y-115770295D01*
X224391289Y-115791093D01*
X224377084Y-115805297D01*
X224362532Y-115827077D01*
X224340752Y-115841629D01*
X224326548Y-115855834D01*
X224305750Y-115865016D01*
X224281426Y-115881270D01*
X224258705Y-115885789D01*
X224241163Y-115893535D01*
X224189816Y-115899492D01*
X224185755Y-115900300D01*
X223535755Y-115900300D01*
X223531696Y-115899492D01*
X223480346Y-115893535D01*
X223462803Y-115885789D01*
X223440084Y-115881270D01*
X223415761Y-115865018D01*
X223394961Y-115855834D01*
X223380754Y-115841627D01*
X223358978Y-115827077D01*
X223344427Y-115805300D01*
X223330220Y-115791093D01*
X223321035Y-115770291D01*
X223304785Y-115745971D01*
X223300266Y-115723254D01*
X223292519Y-115705708D01*
X223286560Y-115654349D01*
X223285755Y-115650300D01*
X223285755Y-114350300D01*
X223286559Y-114346253D01*
X223292519Y-114294891D01*
X223300266Y-114277343D01*
X223304785Y-114254629D01*
X223321033Y-114230310D01*
X223330220Y-114209506D01*
X223344429Y-114195296D01*
X223358978Y-114173523D01*
X223380751Y-114158974D01*
X223394961Y-114144765D01*
X223415765Y-114135578D01*
X223440084Y-114119330D01*
X223462798Y-114114811D01*
X223480346Y-114107064D01*
X223531707Y-114101105D01*
X223535755Y-114100300D01*
X224185755Y-114100300D01*
X224189802Y-114101105D01*
G37*
G36*
X227139802Y-114101105D02*
G01*
X227191163Y-114107064D01*
X227208709Y-114114811D01*
X227231426Y-114119330D01*
X227255746Y-114135580D01*
X227276548Y-114144765D01*
X227290755Y-114158972D01*
X227312532Y-114173523D01*
X227327082Y-114195299D01*
X227341289Y-114209506D01*
X227350473Y-114230306D01*
X227366725Y-114254629D01*
X227371244Y-114277348D01*
X227378990Y-114294891D01*
X227384947Y-114346240D01*
X227385755Y-114350300D01*
X227385755Y-115650300D01*
X227384947Y-115654359D01*
X227378990Y-115705708D01*
X227371244Y-115723250D01*
X227366725Y-115745971D01*
X227350471Y-115770295D01*
X227341289Y-115791093D01*
X227327084Y-115805297D01*
X227312532Y-115827077D01*
X227290752Y-115841629D01*
X227276548Y-115855834D01*
X227255750Y-115865016D01*
X227231426Y-115881270D01*
X227208705Y-115885789D01*
X227191163Y-115893535D01*
X227139816Y-115899492D01*
X227135755Y-115900300D01*
X226485755Y-115900300D01*
X226481696Y-115899492D01*
X226430346Y-115893535D01*
X226412803Y-115885789D01*
X226390084Y-115881270D01*
X226365761Y-115865018D01*
X226344961Y-115855834D01*
X226330754Y-115841627D01*
X226308978Y-115827077D01*
X226294427Y-115805300D01*
X226280220Y-115791093D01*
X226271035Y-115770291D01*
X226254785Y-115745971D01*
X226250266Y-115723254D01*
X226242519Y-115705708D01*
X226236560Y-115654349D01*
X226235755Y-115650300D01*
X226235755Y-114350300D01*
X226236559Y-114346253D01*
X226242519Y-114294891D01*
X226250266Y-114277343D01*
X226254785Y-114254629D01*
X226271033Y-114230310D01*
X226280220Y-114209506D01*
X226294429Y-114195296D01*
X226308978Y-114173523D01*
X226330751Y-114158974D01*
X226344961Y-114144765D01*
X226365765Y-114135578D01*
X226390084Y-114119330D01*
X226412798Y-114114811D01*
X226430346Y-114107064D01*
X226481707Y-114101105D01*
X226485755Y-114100300D01*
X227135755Y-114100300D01*
X227139802Y-114101105D01*
G37*
G36*
X185430000Y-115690000D02*
G01*
X182530000Y-115690000D01*
X182530000Y-110290000D01*
X185430000Y-110290000D01*
X185430000Y-115690000D01*
G37*
G36*
X195330000Y-115690000D02*
G01*
X192430000Y-115690000D01*
X192430000Y-110290000D01*
X195330000Y-110290000D01*
X195330000Y-115690000D01*
G37*
G36*
X176271256Y-111848754D02*
G01*
X176434257Y-111916271D01*
X176580954Y-112014291D01*
X176705709Y-112139046D01*
X176803729Y-112285743D01*
X176871246Y-112448744D01*
X176905666Y-112621785D01*
X176905666Y-112798215D01*
X176871246Y-112971256D01*
X176803729Y-113134257D01*
X176705709Y-113280954D01*
X176580954Y-113405709D01*
X176434257Y-113503729D01*
X176271256Y-113571246D01*
X176098215Y-113605666D01*
X175921785Y-113605666D01*
X175748744Y-113571246D01*
X175585743Y-113503729D01*
X175439046Y-113405709D01*
X175314291Y-113280954D01*
X175216271Y-113134257D01*
X175148754Y-112971256D01*
X175114334Y-112798215D01*
X175114334Y-112621785D01*
X175148754Y-112448744D01*
X175216271Y-112285743D01*
X175314291Y-112139046D01*
X175439046Y-112014291D01*
X175585743Y-111916271D01*
X175748744Y-111848754D01*
X175921785Y-111814334D01*
X176098215Y-111814334D01*
X176271256Y-111848754D01*
G37*
G36*
X221694141Y-113554000D02*
G01*
X218694141Y-113554000D01*
X218694141Y-111954000D01*
X221694141Y-111954000D01*
X221694141Y-113554000D01*
G37*
G36*
X224169802Y-111446105D02*
G01*
X224221163Y-111452064D01*
X224238709Y-111459811D01*
X224261426Y-111464330D01*
X224285746Y-111480580D01*
X224306548Y-111489765D01*
X224320755Y-111503972D01*
X224342532Y-111518523D01*
X224357082Y-111540299D01*
X224371289Y-111554506D01*
X224380473Y-111575306D01*
X224396725Y-111599629D01*
X224401244Y-111622348D01*
X224408990Y-111639891D01*
X224414947Y-111691240D01*
X224415755Y-111695300D01*
X224415755Y-112945300D01*
X224414947Y-112949359D01*
X224408990Y-113000708D01*
X224401244Y-113018250D01*
X224396725Y-113040971D01*
X224380471Y-113065295D01*
X224371289Y-113086093D01*
X224357084Y-113100297D01*
X224342532Y-113122077D01*
X224320752Y-113136629D01*
X224306548Y-113150834D01*
X224285750Y-113160016D01*
X224261426Y-113176270D01*
X224238705Y-113180789D01*
X224221163Y-113188535D01*
X224169816Y-113194492D01*
X224165755Y-113195300D01*
X223540755Y-113195300D01*
X223536696Y-113194492D01*
X223485346Y-113188535D01*
X223467803Y-113180789D01*
X223445084Y-113176270D01*
X223420761Y-113160018D01*
X223399961Y-113150834D01*
X223385754Y-113136627D01*
X223363978Y-113122077D01*
X223349427Y-113100300D01*
X223335220Y-113086093D01*
X223326035Y-113065291D01*
X223309785Y-113040971D01*
X223305266Y-113018254D01*
X223297519Y-113000708D01*
X223291560Y-112949349D01*
X223290755Y-112945300D01*
X223290755Y-111695300D01*
X223291559Y-111691253D01*
X223297519Y-111639891D01*
X223305266Y-111622343D01*
X223309785Y-111599629D01*
X223326033Y-111575310D01*
X223335220Y-111554506D01*
X223349429Y-111540296D01*
X223363978Y-111518523D01*
X223385751Y-111503974D01*
X223399961Y-111489765D01*
X223420765Y-111480578D01*
X223445084Y-111464330D01*
X223467798Y-111459811D01*
X223485346Y-111452064D01*
X223536707Y-111446105D01*
X223540755Y-111445300D01*
X224165755Y-111445300D01*
X224169802Y-111446105D01*
G37*
G36*
X227094802Y-111446105D02*
G01*
X227146163Y-111452064D01*
X227163709Y-111459811D01*
X227186426Y-111464330D01*
X227210746Y-111480580D01*
X227231548Y-111489765D01*
X227245755Y-111503972D01*
X227267532Y-111518523D01*
X227282082Y-111540299D01*
X227296289Y-111554506D01*
X227305473Y-111575306D01*
X227321725Y-111599629D01*
X227326244Y-111622348D01*
X227333990Y-111639891D01*
X227339947Y-111691240D01*
X227340755Y-111695300D01*
X227340755Y-112945300D01*
X227339947Y-112949359D01*
X227333990Y-113000708D01*
X227326244Y-113018250D01*
X227321725Y-113040971D01*
X227305471Y-113065295D01*
X227296289Y-113086093D01*
X227282084Y-113100297D01*
X227267532Y-113122077D01*
X227245752Y-113136629D01*
X227231548Y-113150834D01*
X227210750Y-113160016D01*
X227186426Y-113176270D01*
X227163705Y-113180789D01*
X227146163Y-113188535D01*
X227094816Y-113194492D01*
X227090755Y-113195300D01*
X226465755Y-113195300D01*
X226461696Y-113194492D01*
X226410346Y-113188535D01*
X226392803Y-113180789D01*
X226370084Y-113176270D01*
X226345761Y-113160018D01*
X226324961Y-113150834D01*
X226310754Y-113136627D01*
X226288978Y-113122077D01*
X226274427Y-113100300D01*
X226260220Y-113086093D01*
X226251035Y-113065291D01*
X226234785Y-113040971D01*
X226230266Y-113018254D01*
X226222519Y-113000708D01*
X226216560Y-112949349D01*
X226215755Y-112945300D01*
X226215755Y-111695300D01*
X226216559Y-111691253D01*
X226222519Y-111639891D01*
X226230266Y-111622343D01*
X226234785Y-111599629D01*
X226251033Y-111575310D01*
X226260220Y-111554506D01*
X226274429Y-111540296D01*
X226288978Y-111518523D01*
X226310751Y-111503974D01*
X226324961Y-111489765D01*
X226345765Y-111480578D01*
X226370084Y-111464330D01*
X226392798Y-111459811D01*
X226410346Y-111452064D01*
X226461707Y-111446105D01*
X226465755Y-111445300D01*
X227090755Y-111445300D01*
X227094802Y-111446105D01*
G37*
G36*
X236386742Y-110596601D02*
G01*
X236540687Y-110660367D01*
X236679234Y-110752941D01*
X236797059Y-110870766D01*
X236889633Y-111009313D01*
X236953399Y-111163258D01*
X236985907Y-111326685D01*
X236985907Y-111493315D01*
X236953399Y-111656742D01*
X236889633Y-111810687D01*
X236797059Y-111949234D01*
X236679234Y-112067059D01*
X236540687Y-112159633D01*
X236386742Y-112223399D01*
X236223315Y-112255907D01*
X236056685Y-112255907D01*
X235893258Y-112223399D01*
X235739313Y-112159633D01*
X235600766Y-112067059D01*
X235482941Y-111949234D01*
X235390367Y-111810687D01*
X235326601Y-111656742D01*
X235294093Y-111493315D01*
X235294093Y-111326685D01*
X235326601Y-111163258D01*
X235390367Y-111009313D01*
X235482941Y-110870766D01*
X235600766Y-110752941D01*
X235739313Y-110660367D01*
X235893258Y-110596601D01*
X236056685Y-110564093D01*
X236223315Y-110564093D01*
X236386742Y-110596601D01*
G37*
G36*
X202738604Y-106410505D02*
G01*
X202789965Y-106416464D01*
X202807511Y-106424211D01*
X202830228Y-106428730D01*
X202854545Y-106444978D01*
X202875351Y-106454165D01*
X202889562Y-106468376D01*
X202911334Y-106482924D01*
X202925881Y-106504695D01*
X202940092Y-106518906D01*
X202949277Y-106539710D01*
X202965528Y-106564030D01*
X202970046Y-106586747D01*
X202977793Y-106604292D01*
X202983754Y-106655666D01*
X202984557Y-106659702D01*
X202984557Y-106662583D01*
X202984558Y-106662592D01*
X202984558Y-108810300D01*
X202984558Y-110759699D01*
X202983752Y-110763748D01*
X202977793Y-110815107D01*
X202970047Y-110832649D01*
X202965528Y-110855370D01*
X202949276Y-110879691D01*
X202940092Y-110900493D01*
X202925883Y-110914701D01*
X202911334Y-110936476D01*
X202889559Y-110951025D01*
X202875351Y-110965234D01*
X202854549Y-110974418D01*
X202830228Y-110990670D01*
X202807508Y-110995188D01*
X202789965Y-111002935D01*
X202738592Y-111008896D01*
X202734556Y-111009699D01*
X202731673Y-111009699D01*
X202731665Y-111009700D01*
X201137451Y-111009700D01*
X201137450Y-111009699D01*
X201134559Y-111009700D01*
X201130509Y-111008894D01*
X201079150Y-111002935D01*
X201061606Y-110995188D01*
X201038888Y-110990670D01*
X201014568Y-110974419D01*
X200993764Y-110965234D01*
X200979553Y-110951023D01*
X200957782Y-110936476D01*
X200943234Y-110914704D01*
X200929023Y-110900493D01*
X200919836Y-110879687D01*
X200903588Y-110855370D01*
X200899069Y-110832654D01*
X200891322Y-110815107D01*
X200885361Y-110763733D01*
X200884559Y-110759698D01*
X200884558Y-110756815D01*
X200884558Y-110756807D01*
X200884558Y-106662592D01*
X200884558Y-106662591D01*
X200884558Y-106659701D01*
X200885362Y-106655654D01*
X200891322Y-106604292D01*
X200899069Y-106586744D01*
X200903588Y-106564030D01*
X200919835Y-106539714D01*
X200929023Y-106518906D01*
X200943236Y-106504692D01*
X200957782Y-106482924D01*
X200979550Y-106468378D01*
X200993764Y-106454165D01*
X201014572Y-106444977D01*
X201038888Y-106428730D01*
X201061601Y-106424212D01*
X201079150Y-106416464D01*
X201130525Y-106410503D01*
X201134560Y-106409701D01*
X201137442Y-106409700D01*
X201137451Y-106409700D01*
X202731665Y-106409700D01*
X202734557Y-106409700D01*
X202738604Y-106410505D01*
G37*
G36*
X223198474Y-108811105D02*
G01*
X223249835Y-108817064D01*
X223267381Y-108824811D01*
X223290098Y-108829330D01*
X223314418Y-108845580D01*
X223335220Y-108854765D01*
X223349427Y-108868972D01*
X223371204Y-108883523D01*
X223385754Y-108905299D01*
X223399961Y-108919506D01*
X223409145Y-108940306D01*
X223425397Y-108964629D01*
X223429916Y-108987348D01*
X223437662Y-109004891D01*
X223443619Y-109056240D01*
X223444427Y-109060300D01*
X223444427Y-109710300D01*
X223443619Y-109714359D01*
X223437662Y-109765708D01*
X223429916Y-109783250D01*
X223425397Y-109805971D01*
X223409143Y-109830295D01*
X223399961Y-109851093D01*
X223385756Y-109865297D01*
X223371204Y-109887077D01*
X223349424Y-109901629D01*
X223335220Y-109915834D01*
X223314422Y-109925016D01*
X223290098Y-109941270D01*
X223267377Y-109945789D01*
X223249835Y-109953535D01*
X223198488Y-109959492D01*
X223194427Y-109960300D01*
X221894427Y-109960300D01*
X221890368Y-109959492D01*
X221839018Y-109953535D01*
X221821475Y-109945789D01*
X221798756Y-109941270D01*
X221774433Y-109925018D01*
X221753633Y-109915834D01*
X221739426Y-109901627D01*
X221717650Y-109887077D01*
X221703099Y-109865300D01*
X221688892Y-109851093D01*
X221679707Y-109830291D01*
X221663457Y-109805971D01*
X221658938Y-109783254D01*
X221651191Y-109765708D01*
X221645232Y-109714349D01*
X221644427Y-109710300D01*
X221644427Y-109060300D01*
X221645231Y-109056253D01*
X221651191Y-109004891D01*
X221658938Y-108987343D01*
X221663457Y-108964629D01*
X221679705Y-108940310D01*
X221688892Y-108919506D01*
X221703101Y-108905296D01*
X221717650Y-108883523D01*
X221739423Y-108868974D01*
X221753633Y-108854765D01*
X221774437Y-108845578D01*
X221798756Y-108829330D01*
X221821470Y-108824811D01*
X221839018Y-108817064D01*
X221890379Y-108811105D01*
X221894427Y-108810300D01*
X223194427Y-108810300D01*
X223198474Y-108811105D01*
G37*
G36*
X236990000Y-109720000D02*
G01*
X235290000Y-109720000D01*
X235290000Y-108020000D01*
X236990000Y-108020000D01*
X236990000Y-109720000D01*
G37*
G36*
X176271256Y-106768754D02*
G01*
X176434257Y-106836271D01*
X176580954Y-106934291D01*
X176705709Y-107059046D01*
X176803729Y-107205743D01*
X176871246Y-107368744D01*
X176905666Y-107541785D01*
X176905666Y-107718215D01*
X176871246Y-107891256D01*
X176803729Y-108054257D01*
X176705709Y-108200954D01*
X176580954Y-108325709D01*
X176434257Y-108423729D01*
X176271256Y-108491246D01*
X176098215Y-108525666D01*
X175921785Y-108525666D01*
X175748744Y-108491246D01*
X175585743Y-108423729D01*
X175439046Y-108325709D01*
X175314291Y-108200954D01*
X175216271Y-108054257D01*
X175148754Y-107891256D01*
X175114334Y-107718215D01*
X175114334Y-107541785D01*
X175148754Y-107368744D01*
X175216271Y-107205743D01*
X175314291Y-107059046D01*
X175439046Y-106934291D01*
X175585743Y-106836271D01*
X175748744Y-106768754D01*
X175921785Y-106734334D01*
X176098215Y-106734334D01*
X176271256Y-106768754D01*
G37*
G36*
X211970000Y-108430000D02*
G01*
X208970000Y-108430000D01*
X208970000Y-107030000D01*
X211970000Y-107030000D01*
X211970000Y-108430000D01*
G37*
G36*
X219970000Y-108430000D02*
G01*
X213470000Y-108430000D01*
X213470000Y-102430000D01*
X219970000Y-102430000D01*
X219970000Y-108430000D01*
G37*
G36*
X223198474Y-105861105D02*
G01*
X223249835Y-105867064D01*
X223267381Y-105874811D01*
X223290098Y-105879330D01*
X223314418Y-105895580D01*
X223335220Y-105904765D01*
X223349427Y-105918972D01*
X223371204Y-105933523D01*
X223385754Y-105955299D01*
X223399961Y-105969506D01*
X223409145Y-105990306D01*
X223425397Y-106014629D01*
X223429916Y-106037348D01*
X223437662Y-106054891D01*
X223443619Y-106106240D01*
X223444427Y-106110300D01*
X223444427Y-106760300D01*
X223443619Y-106764359D01*
X223437662Y-106815708D01*
X223429916Y-106833250D01*
X223425397Y-106855971D01*
X223409143Y-106880295D01*
X223399961Y-106901093D01*
X223385756Y-106915297D01*
X223371204Y-106937077D01*
X223349424Y-106951629D01*
X223335220Y-106965834D01*
X223314422Y-106975016D01*
X223290098Y-106991270D01*
X223267377Y-106995789D01*
X223249835Y-107003535D01*
X223198488Y-107009492D01*
X223194427Y-107010300D01*
X221894427Y-107010300D01*
X221890368Y-107009492D01*
X221839018Y-107003535D01*
X221821475Y-106995789D01*
X221798756Y-106991270D01*
X221774433Y-106975018D01*
X221753633Y-106965834D01*
X221739426Y-106951627D01*
X221717650Y-106937077D01*
X221703099Y-106915300D01*
X221688892Y-106901093D01*
X221679707Y-106880291D01*
X221663457Y-106855971D01*
X221658938Y-106833254D01*
X221651191Y-106815708D01*
X221645232Y-106764349D01*
X221644427Y-106760300D01*
X221644427Y-106110300D01*
X221645231Y-106106253D01*
X221651191Y-106054891D01*
X221658938Y-106037343D01*
X221663457Y-106014629D01*
X221679705Y-105990310D01*
X221688892Y-105969506D01*
X221703101Y-105955296D01*
X221717650Y-105933523D01*
X221739423Y-105918974D01*
X221753633Y-105904765D01*
X221774437Y-105895578D01*
X221798756Y-105879330D01*
X221821470Y-105874811D01*
X221839018Y-105867064D01*
X221890379Y-105861105D01*
X221894427Y-105860300D01*
X223194427Y-105860300D01*
X223198474Y-105861105D01*
G37*
G36*
X197231442Y-105536105D02*
G01*
X197282803Y-105542064D01*
X197300349Y-105549811D01*
X197323066Y-105554330D01*
X197347386Y-105570580D01*
X197368188Y-105579765D01*
X197382395Y-105593972D01*
X197404172Y-105608523D01*
X197418722Y-105630299D01*
X197432929Y-105644506D01*
X197442113Y-105665306D01*
X197458365Y-105689629D01*
X197462884Y-105712348D01*
X197470630Y-105729891D01*
X197476587Y-105781240D01*
X197477395Y-105785300D01*
X197477395Y-106735300D01*
X197476587Y-106739359D01*
X197470630Y-106790708D01*
X197462884Y-106808250D01*
X197458365Y-106830971D01*
X197442111Y-106855295D01*
X197432929Y-106876093D01*
X197418724Y-106890297D01*
X197404172Y-106912077D01*
X197382392Y-106926629D01*
X197368188Y-106940834D01*
X197347390Y-106950016D01*
X197323066Y-106966270D01*
X197300345Y-106970789D01*
X197282803Y-106978535D01*
X197231456Y-106984492D01*
X197227395Y-106985300D01*
X196727395Y-106985300D01*
X196723336Y-106984492D01*
X196671986Y-106978535D01*
X196654443Y-106970789D01*
X196631724Y-106966270D01*
X196607401Y-106950018D01*
X196586601Y-106940834D01*
X196572394Y-106926627D01*
X196550618Y-106912077D01*
X196536067Y-106890300D01*
X196521860Y-106876093D01*
X196512675Y-106855291D01*
X196496425Y-106830971D01*
X196491906Y-106808254D01*
X196484159Y-106790708D01*
X196478200Y-106739349D01*
X196477395Y-106735300D01*
X196477395Y-105785300D01*
X196478199Y-105781253D01*
X196484159Y-105729891D01*
X196491906Y-105712343D01*
X196496425Y-105689629D01*
X196512673Y-105665310D01*
X196521860Y-105644506D01*
X196536069Y-105630296D01*
X196550618Y-105608523D01*
X196572391Y-105593974D01*
X196586601Y-105579765D01*
X196607405Y-105570578D01*
X196631724Y-105554330D01*
X196654438Y-105549811D01*
X196671986Y-105542064D01*
X196723347Y-105536105D01*
X196727395Y-105535300D01*
X197227395Y-105535300D01*
X197231442Y-105536105D01*
G37*
G36*
X199131442Y-105536105D02*
G01*
X199182803Y-105542064D01*
X199200349Y-105549811D01*
X199223066Y-105554330D01*
X199247386Y-105570580D01*
X199268188Y-105579765D01*
X199282395Y-105593972D01*
X199304172Y-105608523D01*
X199318722Y-105630299D01*
X199332929Y-105644506D01*
X199342113Y-105665306D01*
X199358365Y-105689629D01*
X199362884Y-105712348D01*
X199370630Y-105729891D01*
X199376587Y-105781240D01*
X199377395Y-105785300D01*
X199377395Y-106735300D01*
X199376587Y-106739359D01*
X199370630Y-106790708D01*
X199362884Y-106808250D01*
X199358365Y-106830971D01*
X199342111Y-106855295D01*
X199332929Y-106876093D01*
X199318724Y-106890297D01*
X199304172Y-106912077D01*
X199282392Y-106926629D01*
X199268188Y-106940834D01*
X199247390Y-106950016D01*
X199223066Y-106966270D01*
X199200345Y-106970789D01*
X199182803Y-106978535D01*
X199131456Y-106984492D01*
X199127395Y-106985300D01*
X198627395Y-106985300D01*
X198623336Y-106984492D01*
X198571986Y-106978535D01*
X198554443Y-106970789D01*
X198531724Y-106966270D01*
X198507401Y-106950018D01*
X198486601Y-106940834D01*
X198472394Y-106926627D01*
X198450618Y-106912077D01*
X198436067Y-106890300D01*
X198421860Y-106876093D01*
X198412675Y-106855291D01*
X198396425Y-106830971D01*
X198391906Y-106808254D01*
X198384159Y-106790708D01*
X198378200Y-106739349D01*
X198377395Y-106735300D01*
X198377395Y-105785300D01*
X198378199Y-105781253D01*
X198384159Y-105729891D01*
X198391906Y-105712343D01*
X198396425Y-105689629D01*
X198412673Y-105665310D01*
X198421860Y-105644506D01*
X198436069Y-105630296D01*
X198450618Y-105608523D01*
X198472391Y-105593974D01*
X198486601Y-105579765D01*
X198507405Y-105570578D01*
X198531724Y-105554330D01*
X198554438Y-105549811D01*
X198571986Y-105542064D01*
X198623347Y-105536105D01*
X198627395Y-105535300D01*
X199127395Y-105535300D01*
X199131442Y-105536105D01*
G37*
G36*
X206932302Y-105961105D02*
G01*
X206983663Y-105967064D01*
X207001209Y-105974811D01*
X207023926Y-105979330D01*
X207048246Y-105995580D01*
X207069048Y-106004765D01*
X207083255Y-106018972D01*
X207105032Y-106033523D01*
X207119582Y-106055299D01*
X207133789Y-106069506D01*
X207142973Y-106090306D01*
X207159225Y-106114629D01*
X207163744Y-106137348D01*
X207171490Y-106154891D01*
X207177447Y-106206240D01*
X207178255Y-106210300D01*
X207178255Y-106735300D01*
X207177447Y-106739359D01*
X207171490Y-106790708D01*
X207163744Y-106808250D01*
X207159225Y-106830971D01*
X207142971Y-106855295D01*
X207133789Y-106876093D01*
X207119584Y-106890297D01*
X207105032Y-106912077D01*
X207083252Y-106926629D01*
X207069048Y-106940834D01*
X207048250Y-106950016D01*
X207023926Y-106966270D01*
X207001205Y-106970789D01*
X206983663Y-106978535D01*
X206932316Y-106984492D01*
X206928255Y-106985300D01*
X206028255Y-106985300D01*
X206024196Y-106984492D01*
X205972846Y-106978535D01*
X205955303Y-106970789D01*
X205932584Y-106966270D01*
X205908261Y-106950018D01*
X205887461Y-106940834D01*
X205873254Y-106926627D01*
X205851478Y-106912077D01*
X205836927Y-106890300D01*
X205822720Y-106876093D01*
X205813535Y-106855291D01*
X205797285Y-106830971D01*
X205792766Y-106808254D01*
X205785019Y-106790708D01*
X205779060Y-106739349D01*
X205778255Y-106735300D01*
X205778255Y-106210300D01*
X205779059Y-106206253D01*
X205785019Y-106154891D01*
X205792766Y-106137343D01*
X205797285Y-106114629D01*
X205813533Y-106090310D01*
X205822720Y-106069506D01*
X205836929Y-106055296D01*
X205851478Y-106033523D01*
X205873251Y-106018974D01*
X205887461Y-106004765D01*
X205908265Y-105995578D01*
X205932584Y-105979330D01*
X205955298Y-105974811D01*
X205972846Y-105967064D01*
X206024207Y-105961105D01*
X206028255Y-105960300D01*
X206928255Y-105960300D01*
X206932302Y-105961105D01*
G37*
G36*
X193583122Y-104911105D02*
G01*
X193634483Y-104917064D01*
X193652029Y-104924811D01*
X193674746Y-104929330D01*
X193699066Y-104945580D01*
X193719868Y-104954765D01*
X193734075Y-104968972D01*
X193755852Y-104983523D01*
X193770402Y-105005299D01*
X193784609Y-105019506D01*
X193793793Y-105040306D01*
X193810045Y-105064629D01*
X193814564Y-105087348D01*
X193822310Y-105104891D01*
X193828267Y-105156240D01*
X193829075Y-105160300D01*
X193829075Y-105660300D01*
X193828267Y-105664359D01*
X193822310Y-105715708D01*
X193814564Y-105733250D01*
X193810045Y-105755971D01*
X193793791Y-105780295D01*
X193784609Y-105801093D01*
X193770404Y-105815297D01*
X193755852Y-105837077D01*
X193734072Y-105851629D01*
X193719868Y-105865834D01*
X193699070Y-105875016D01*
X193674746Y-105891270D01*
X193652025Y-105895789D01*
X193634483Y-105903535D01*
X193583136Y-105909492D01*
X193579075Y-105910300D01*
X192629075Y-105910300D01*
X192625016Y-105909492D01*
X192573666Y-105903535D01*
X192556123Y-105895789D01*
X192533404Y-105891270D01*
X192509081Y-105875018D01*
X192488281Y-105865834D01*
X192474074Y-105851627D01*
X192452298Y-105837077D01*
X192437747Y-105815300D01*
X192423540Y-105801093D01*
X192414355Y-105780291D01*
X192398105Y-105755971D01*
X192393586Y-105733254D01*
X192385839Y-105715708D01*
X192379880Y-105664349D01*
X192379075Y-105660300D01*
X192379075Y-105160300D01*
X192379879Y-105156253D01*
X192385839Y-105104891D01*
X192393586Y-105087343D01*
X192398105Y-105064629D01*
X192414353Y-105040310D01*
X192423540Y-105019506D01*
X192437749Y-105005296D01*
X192452298Y-104983523D01*
X192474071Y-104968974D01*
X192488281Y-104954765D01*
X192509085Y-104945578D01*
X192533404Y-104929330D01*
X192556118Y-104924811D01*
X192573666Y-104917064D01*
X192625027Y-104911105D01*
X192629075Y-104910300D01*
X193579075Y-104910300D01*
X193583122Y-104911105D01*
G37*
G36*
X185321481Y-104881105D02*
G01*
X185372842Y-104887064D01*
X185390388Y-104894811D01*
X185413105Y-104899330D01*
X185437425Y-104915580D01*
X185458227Y-104924765D01*
X185472434Y-104938972D01*
X185494211Y-104953523D01*
X185508761Y-104975299D01*
X185522968Y-104989506D01*
X185532152Y-105010306D01*
X185548404Y-105034629D01*
X185552923Y-105057348D01*
X185560669Y-105074891D01*
X185566626Y-105126240D01*
X185567434Y-105130300D01*
X185567434Y-105655300D01*
X185566626Y-105659359D01*
X185560669Y-105710708D01*
X185552923Y-105728250D01*
X185548404Y-105750971D01*
X185532150Y-105775295D01*
X185522968Y-105796093D01*
X185508763Y-105810297D01*
X185494211Y-105832077D01*
X185472431Y-105846629D01*
X185458227Y-105860834D01*
X185437429Y-105870016D01*
X185413105Y-105886270D01*
X185390384Y-105890789D01*
X185372842Y-105898535D01*
X185321495Y-105904492D01*
X185317434Y-105905300D01*
X184417434Y-105905300D01*
X184413375Y-105904492D01*
X184362025Y-105898535D01*
X184344482Y-105890789D01*
X184321763Y-105886270D01*
X184297440Y-105870018D01*
X184276640Y-105860834D01*
X184262433Y-105846627D01*
X184240657Y-105832077D01*
X184226106Y-105810300D01*
X184211899Y-105796093D01*
X184202714Y-105775291D01*
X184186464Y-105750971D01*
X184181945Y-105728254D01*
X184174198Y-105710708D01*
X184168239Y-105659349D01*
X184167434Y-105655300D01*
X184167434Y-105130300D01*
X184168238Y-105126253D01*
X184174198Y-105074891D01*
X184181945Y-105057343D01*
X184186464Y-105034629D01*
X184202712Y-105010310D01*
X184211899Y-104989506D01*
X184226108Y-104975296D01*
X184240657Y-104953523D01*
X184262430Y-104938974D01*
X184276640Y-104924765D01*
X184297444Y-104915578D01*
X184321763Y-104899330D01*
X184344477Y-104894811D01*
X184362025Y-104887064D01*
X184413386Y-104881105D01*
X184417434Y-104880300D01*
X185317434Y-104880300D01*
X185321481Y-104881105D01*
G37*
G36*
X187509919Y-104881105D02*
G01*
X187561280Y-104887064D01*
X187578826Y-104894811D01*
X187601543Y-104899330D01*
X187625863Y-104915580D01*
X187646665Y-104924765D01*
X187660872Y-104938972D01*
X187682649Y-104953523D01*
X187697199Y-104975299D01*
X187711406Y-104989506D01*
X187720590Y-105010306D01*
X187736842Y-105034629D01*
X187741361Y-105057348D01*
X187749107Y-105074891D01*
X187755064Y-105126240D01*
X187755872Y-105130300D01*
X187755872Y-105655300D01*
X187755064Y-105659359D01*
X187749107Y-105710708D01*
X187741361Y-105728250D01*
X187736842Y-105750971D01*
X187720588Y-105775295D01*
X187711406Y-105796093D01*
X187697201Y-105810297D01*
X187682649Y-105832077D01*
X187660869Y-105846629D01*
X187646665Y-105860834D01*
X187625867Y-105870016D01*
X187601543Y-105886270D01*
X187578822Y-105890789D01*
X187561280Y-105898535D01*
X187509933Y-105904492D01*
X187505872Y-105905300D01*
X186605872Y-105905300D01*
X186601813Y-105904492D01*
X186550463Y-105898535D01*
X186532920Y-105890789D01*
X186510201Y-105886270D01*
X186485878Y-105870018D01*
X186465078Y-105860834D01*
X186450871Y-105846627D01*
X186429095Y-105832077D01*
X186414544Y-105810300D01*
X186400337Y-105796093D01*
X186391152Y-105775291D01*
X186374902Y-105750971D01*
X186370383Y-105728254D01*
X186362636Y-105710708D01*
X186356677Y-105659349D01*
X186355872Y-105655300D01*
X186355872Y-105130300D01*
X186356676Y-105126253D01*
X186362636Y-105074891D01*
X186370383Y-105057343D01*
X186374902Y-105034629D01*
X186391150Y-105010310D01*
X186400337Y-104989506D01*
X186414546Y-104975296D01*
X186429095Y-104953523D01*
X186450868Y-104938974D01*
X186465078Y-104924765D01*
X186485882Y-104915578D01*
X186510201Y-104899330D01*
X186532915Y-104894811D01*
X186550463Y-104887064D01*
X186601824Y-104881105D01*
X186605872Y-104880300D01*
X187505872Y-104880300D01*
X187509919Y-104881105D01*
G37*
G36*
X206932302Y-104136105D02*
G01*
X206983663Y-104142064D01*
X207001209Y-104149811D01*
X207023926Y-104154330D01*
X207048246Y-104170580D01*
X207069048Y-104179765D01*
X207083255Y-104193972D01*
X207105032Y-104208523D01*
X207119582Y-104230299D01*
X207133789Y-104244506D01*
X207142973Y-104265306D01*
X207159225Y-104289629D01*
X207163744Y-104312348D01*
X207171490Y-104329891D01*
X207177447Y-104381240D01*
X207178255Y-104385300D01*
X207178255Y-104910300D01*
X207177447Y-104914359D01*
X207171490Y-104965708D01*
X207163744Y-104983250D01*
X207159225Y-105005971D01*
X207142971Y-105030295D01*
X207133789Y-105051093D01*
X207119584Y-105065297D01*
X207105032Y-105087077D01*
X207083252Y-105101629D01*
X207069048Y-105115834D01*
X207048250Y-105125016D01*
X207023926Y-105141270D01*
X207001205Y-105145789D01*
X206983663Y-105153535D01*
X206932316Y-105159492D01*
X206928255Y-105160300D01*
X206028255Y-105160300D01*
X206024196Y-105159492D01*
X205972846Y-105153535D01*
X205955303Y-105145789D01*
X205932584Y-105141270D01*
X205908261Y-105125018D01*
X205887461Y-105115834D01*
X205873254Y-105101627D01*
X205851478Y-105087077D01*
X205836927Y-105065300D01*
X205822720Y-105051093D01*
X205813535Y-105030291D01*
X205797285Y-105005971D01*
X205792766Y-104983254D01*
X205785019Y-104965708D01*
X205779060Y-104914349D01*
X205778255Y-104910300D01*
X205778255Y-104385300D01*
X205779059Y-104381253D01*
X205785019Y-104329891D01*
X205792766Y-104312343D01*
X205797285Y-104289629D01*
X205813533Y-104265310D01*
X205822720Y-104244506D01*
X205836929Y-104230296D01*
X205851478Y-104208523D01*
X205873251Y-104193974D01*
X205887461Y-104179765D01*
X205908265Y-104170578D01*
X205932584Y-104154330D01*
X205955298Y-104149811D01*
X205972846Y-104142064D01*
X206024207Y-104136105D01*
X206028255Y-104135300D01*
X206928255Y-104135300D01*
X206932302Y-104136105D01*
G37*
G36*
X222428474Y-103431105D02*
G01*
X222479835Y-103437064D01*
X222497381Y-103444811D01*
X222520098Y-103449330D01*
X222544418Y-103465580D01*
X222565220Y-103474765D01*
X222579427Y-103488972D01*
X222601204Y-103503523D01*
X222615754Y-103525299D01*
X222629961Y-103539506D01*
X222639145Y-103560306D01*
X222655397Y-103584629D01*
X222659916Y-103607348D01*
X222667662Y-103624891D01*
X222673619Y-103676240D01*
X222674427Y-103680300D01*
X222674427Y-104580300D01*
X222673619Y-104584359D01*
X222667662Y-104635708D01*
X222659916Y-104653250D01*
X222655397Y-104675971D01*
X222639143Y-104700295D01*
X222629961Y-104721093D01*
X222615756Y-104735297D01*
X222601204Y-104757077D01*
X222579424Y-104771629D01*
X222565220Y-104785834D01*
X222544422Y-104795016D01*
X222520098Y-104811270D01*
X222497377Y-104815789D01*
X222479835Y-104823535D01*
X222428488Y-104829492D01*
X222424427Y-104830300D01*
X221899427Y-104830300D01*
X221895368Y-104829492D01*
X221844018Y-104823535D01*
X221826475Y-104815789D01*
X221803756Y-104811270D01*
X221779433Y-104795018D01*
X221758633Y-104785834D01*
X221744426Y-104771627D01*
X221722650Y-104757077D01*
X221708099Y-104735300D01*
X221693892Y-104721093D01*
X221684707Y-104700291D01*
X221668457Y-104675971D01*
X221663938Y-104653254D01*
X221656191Y-104635708D01*
X221650232Y-104584349D01*
X221649427Y-104580300D01*
X221649427Y-103680300D01*
X221650231Y-103676253D01*
X221656191Y-103624891D01*
X221663938Y-103607343D01*
X221668457Y-103584629D01*
X221684705Y-103560310D01*
X221693892Y-103539506D01*
X221708101Y-103525296D01*
X221722650Y-103503523D01*
X221744423Y-103488974D01*
X221758633Y-103474765D01*
X221779437Y-103465578D01*
X221803756Y-103449330D01*
X221826470Y-103444811D01*
X221844018Y-103437064D01*
X221895379Y-103431105D01*
X221899427Y-103430300D01*
X222424427Y-103430300D01*
X222428474Y-103431105D01*
G37*
G36*
X224253474Y-103431105D02*
G01*
X224304835Y-103437064D01*
X224322381Y-103444811D01*
X224345098Y-103449330D01*
X224369418Y-103465580D01*
X224390220Y-103474765D01*
X224404427Y-103488972D01*
X224426204Y-103503523D01*
X224440754Y-103525299D01*
X224454961Y-103539506D01*
X224464145Y-103560306D01*
X224480397Y-103584629D01*
X224484916Y-103607348D01*
X224492662Y-103624891D01*
X224498619Y-103676240D01*
X224499427Y-103680300D01*
X224499427Y-104580300D01*
X224498619Y-104584359D01*
X224492662Y-104635708D01*
X224484916Y-104653250D01*
X224480397Y-104675971D01*
X224464143Y-104700295D01*
X224454961Y-104721093D01*
X224440756Y-104735297D01*
X224426204Y-104757077D01*
X224404424Y-104771629D01*
X224390220Y-104785834D01*
X224369422Y-104795016D01*
X224345098Y-104811270D01*
X224322377Y-104815789D01*
X224304835Y-104823535D01*
X224253488Y-104829492D01*
X224249427Y-104830300D01*
X223724427Y-104830300D01*
X223720368Y-104829492D01*
X223669018Y-104823535D01*
X223651475Y-104815789D01*
X223628756Y-104811270D01*
X223604433Y-104795018D01*
X223583633Y-104785834D01*
X223569426Y-104771627D01*
X223547650Y-104757077D01*
X223533099Y-104735300D01*
X223518892Y-104721093D01*
X223509707Y-104700291D01*
X223493457Y-104675971D01*
X223488938Y-104653254D01*
X223481191Y-104635708D01*
X223475232Y-104584349D01*
X223474427Y-104580300D01*
X223474427Y-103680300D01*
X223475231Y-103676253D01*
X223481191Y-103624891D01*
X223488938Y-103607343D01*
X223493457Y-103584629D01*
X223509705Y-103560310D01*
X223518892Y-103539506D01*
X223533101Y-103525296D01*
X223547650Y-103503523D01*
X223569423Y-103488974D01*
X223583633Y-103474765D01*
X223604437Y-103465578D01*
X223628756Y-103449330D01*
X223651470Y-103444811D01*
X223669018Y-103437064D01*
X223720379Y-103431105D01*
X223724427Y-103430300D01*
X224249427Y-103430300D01*
X224253474Y-103431105D01*
G37*
G36*
X190847575Y-103561105D02*
G01*
X190898936Y-103567064D01*
X190916482Y-103574811D01*
X190939199Y-103579330D01*
X190963519Y-103595580D01*
X190984321Y-103604765D01*
X190998528Y-103618972D01*
X191020305Y-103633523D01*
X191034855Y-103655299D01*
X191049062Y-103669506D01*
X191058246Y-103690306D01*
X191074498Y-103714629D01*
X191079017Y-103737348D01*
X191086763Y-103754891D01*
X191092720Y-103806240D01*
X191093528Y-103810300D01*
X191093528Y-104310300D01*
X191092720Y-104314359D01*
X191086763Y-104365708D01*
X191079017Y-104383250D01*
X191074498Y-104405971D01*
X191058244Y-104430295D01*
X191049062Y-104451093D01*
X191034857Y-104465297D01*
X191020305Y-104487077D01*
X190998525Y-104501629D01*
X190984321Y-104515834D01*
X190963523Y-104525016D01*
X190939199Y-104541270D01*
X190916478Y-104545789D01*
X190898936Y-104553535D01*
X190847589Y-104559492D01*
X190843528Y-104560300D01*
X189893528Y-104560300D01*
X189889469Y-104559492D01*
X189838119Y-104553535D01*
X189820576Y-104545789D01*
X189797857Y-104541270D01*
X189773534Y-104525018D01*
X189752734Y-104515834D01*
X189738527Y-104501627D01*
X189716751Y-104487077D01*
X189702200Y-104465300D01*
X189687993Y-104451093D01*
X189678808Y-104430291D01*
X189662558Y-104405971D01*
X189658039Y-104383254D01*
X189650292Y-104365708D01*
X189644333Y-104314349D01*
X189643528Y-104310300D01*
X189643528Y-103810300D01*
X189644332Y-103806253D01*
X189650292Y-103754891D01*
X189658039Y-103737343D01*
X189662558Y-103714629D01*
X189678806Y-103690310D01*
X189687993Y-103669506D01*
X189702202Y-103655296D01*
X189716751Y-103633523D01*
X189738524Y-103618974D01*
X189752734Y-103604765D01*
X189773538Y-103595578D01*
X189797857Y-103579330D01*
X189820571Y-103574811D01*
X189838119Y-103567064D01*
X189889480Y-103561105D01*
X189893528Y-103560300D01*
X190843528Y-103560300D01*
X190847575Y-103561105D01*
G37*
G36*
X195590114Y-103106105D02*
G01*
X195641475Y-103112064D01*
X195659021Y-103119811D01*
X195681738Y-103124330D01*
X195706058Y-103140580D01*
X195726860Y-103149765D01*
X195741067Y-103163972D01*
X195762844Y-103178523D01*
X195777394Y-103200299D01*
X195791601Y-103214506D01*
X195800785Y-103235306D01*
X195817037Y-103259629D01*
X195821556Y-103282348D01*
X195829302Y-103299891D01*
X195835259Y-103351240D01*
X195836067Y-103355300D01*
X195836067Y-104305300D01*
X195835259Y-104309359D01*
X195829302Y-104360708D01*
X195821556Y-104378250D01*
X195817037Y-104400971D01*
X195800783Y-104425295D01*
X195791601Y-104446093D01*
X195777396Y-104460297D01*
X195762844Y-104482077D01*
X195741064Y-104496629D01*
X195726860Y-104510834D01*
X195706062Y-104520016D01*
X195681738Y-104536270D01*
X195659017Y-104540789D01*
X195641475Y-104548535D01*
X195590128Y-104554492D01*
X195586067Y-104555300D01*
X195086067Y-104555300D01*
X195082008Y-104554492D01*
X195030658Y-104548535D01*
X195013115Y-104540789D01*
X194990396Y-104536270D01*
X194966073Y-104520018D01*
X194945273Y-104510834D01*
X194931066Y-104496627D01*
X194909290Y-104482077D01*
X194894739Y-104460300D01*
X194880532Y-104446093D01*
X194871347Y-104425291D01*
X194855097Y-104400971D01*
X194850578Y-104378254D01*
X194842831Y-104360708D01*
X194836872Y-104309349D01*
X194836067Y-104305300D01*
X194836067Y-103355300D01*
X194836871Y-103351253D01*
X194842831Y-103299891D01*
X194850578Y-103282343D01*
X194855097Y-103259629D01*
X194871345Y-103235310D01*
X194880532Y-103214506D01*
X194894741Y-103200296D01*
X194909290Y-103178523D01*
X194931063Y-103163974D01*
X194945273Y-103149765D01*
X194966077Y-103140578D01*
X194990396Y-103124330D01*
X195013110Y-103119811D01*
X195030658Y-103112064D01*
X195082019Y-103106105D01*
X195086067Y-103105300D01*
X195586067Y-103105300D01*
X195590114Y-103106105D01*
G37*
G36*
X197490114Y-103106105D02*
G01*
X197541475Y-103112064D01*
X197559021Y-103119811D01*
X197581738Y-103124330D01*
X197606058Y-103140580D01*
X197626860Y-103149765D01*
X197641067Y-103163972D01*
X197662844Y-103178523D01*
X197677394Y-103200299D01*
X197691601Y-103214506D01*
X197700785Y-103235306D01*
X197717037Y-103259629D01*
X197721556Y-103282348D01*
X197729302Y-103299891D01*
X197735259Y-103351240D01*
X197736067Y-103355300D01*
X197736067Y-104305300D01*
X197735259Y-104309359D01*
X197729302Y-104360708D01*
X197721556Y-104378250D01*
X197717037Y-104400971D01*
X197700783Y-104425295D01*
X197691601Y-104446093D01*
X197677396Y-104460297D01*
X197662844Y-104482077D01*
X197641064Y-104496629D01*
X197626860Y-104510834D01*
X197606062Y-104520016D01*
X197581738Y-104536270D01*
X197559017Y-104540789D01*
X197541475Y-104548535D01*
X197490128Y-104554492D01*
X197486067Y-104555300D01*
X196986067Y-104555300D01*
X196982008Y-104554492D01*
X196930658Y-104548535D01*
X196913115Y-104540789D01*
X196890396Y-104536270D01*
X196866073Y-104520018D01*
X196845273Y-104510834D01*
X196831066Y-104496627D01*
X196809290Y-104482077D01*
X196794739Y-104460300D01*
X196780532Y-104446093D01*
X196771347Y-104425291D01*
X196755097Y-104400971D01*
X196750578Y-104378254D01*
X196742831Y-104360708D01*
X196736872Y-104309349D01*
X196736067Y-104305300D01*
X196736067Y-103355300D01*
X196736871Y-103351253D01*
X196742831Y-103299891D01*
X196750578Y-103282343D01*
X196755097Y-103259629D01*
X196771345Y-103235310D01*
X196780532Y-103214506D01*
X196794741Y-103200296D01*
X196809290Y-103178523D01*
X196831063Y-103163974D01*
X196845273Y-103149765D01*
X196866077Y-103140578D01*
X196890396Y-103124330D01*
X196913110Y-103119811D01*
X196930658Y-103112064D01*
X196982019Y-103106105D01*
X196986067Y-103105300D01*
X197486067Y-103105300D01*
X197490114Y-103106105D01*
G37*
G36*
X200452835Y-103914515D02*
G01*
X200493388Y-103941612D01*
X200520485Y-103982165D01*
X200530000Y-104030000D01*
X200530000Y-104280000D01*
X200520485Y-104327835D01*
X200493388Y-104368388D01*
X200452835Y-104395485D01*
X200405000Y-104405000D01*
X199030000Y-104405000D01*
X198982165Y-104395485D01*
X198941612Y-104368388D01*
X198914515Y-104327835D01*
X198905000Y-104280000D01*
X198905000Y-104030000D01*
X198914515Y-103982165D01*
X198941612Y-103941612D01*
X198982165Y-103914515D01*
X199030000Y-103905000D01*
X200405000Y-103905000D01*
X200452835Y-103914515D01*
G37*
G36*
X204677835Y-103914515D02*
G01*
X204718388Y-103941612D01*
X204745485Y-103982165D01*
X204755000Y-104030000D01*
X204755000Y-104280000D01*
X204745485Y-104327835D01*
X204718388Y-104368388D01*
X204677835Y-104395485D01*
X204630000Y-104405000D01*
X203255000Y-104405000D01*
X203207165Y-104395485D01*
X203166612Y-104368388D01*
X203139515Y-104327835D01*
X203130000Y-104280000D01*
X203130000Y-104030000D01*
X203139515Y-103982165D01*
X203166612Y-103941612D01*
X203207165Y-103914515D01*
X203255000Y-103905000D01*
X204630000Y-103905000D01*
X204677835Y-103914515D01*
G37*
G36*
X177709047Y-102775805D02*
G01*
X177760408Y-102781764D01*
X177777954Y-102789511D01*
X177800671Y-102794030D01*
X177824991Y-102810280D01*
X177845793Y-102819465D01*
X177860000Y-102833672D01*
X177881777Y-102848223D01*
X177896327Y-102869999D01*
X177910534Y-102884206D01*
X177919718Y-102905006D01*
X177935970Y-102929329D01*
X177940489Y-102952048D01*
X177948235Y-102969591D01*
X177954192Y-103020940D01*
X177955000Y-103025000D01*
X177955000Y-103915000D01*
X177954192Y-103919059D01*
X177948235Y-103970408D01*
X177940489Y-103987950D01*
X177935970Y-104010671D01*
X177919716Y-104034995D01*
X177910534Y-104055793D01*
X177896329Y-104069997D01*
X177881777Y-104091777D01*
X177859997Y-104106329D01*
X177845793Y-104120534D01*
X177824995Y-104129716D01*
X177800671Y-104145970D01*
X177777950Y-104150489D01*
X177760408Y-104158235D01*
X177709061Y-104164192D01*
X177705000Y-104165000D01*
X176790000Y-104165000D01*
X176785941Y-104164192D01*
X176734591Y-104158235D01*
X176717048Y-104150489D01*
X176694329Y-104145970D01*
X176670006Y-104129718D01*
X176649206Y-104120534D01*
X176634999Y-104106327D01*
X176613223Y-104091777D01*
X176598672Y-104070000D01*
X176584465Y-104055793D01*
X176575280Y-104034991D01*
X176559030Y-104010671D01*
X176554511Y-103987954D01*
X176546764Y-103970408D01*
X176540805Y-103919049D01*
X176540000Y-103915000D01*
X176540000Y-103025000D01*
X176540804Y-103020953D01*
X176546764Y-102969591D01*
X176554511Y-102952043D01*
X176559030Y-102929329D01*
X176575278Y-102905010D01*
X176584465Y-102884206D01*
X176598674Y-102869996D01*
X176613223Y-102848223D01*
X176634996Y-102833674D01*
X176649206Y-102819465D01*
X176670010Y-102810278D01*
X176694329Y-102794030D01*
X176717043Y-102789511D01*
X176734591Y-102781764D01*
X176785952Y-102775805D01*
X176790000Y-102775000D01*
X177705000Y-102775000D01*
X177709047Y-102775805D01*
G37*
G36*
X180414047Y-102775805D02*
G01*
X180465408Y-102781764D01*
X180482954Y-102789511D01*
X180505671Y-102794030D01*
X180529991Y-102810280D01*
X180550793Y-102819465D01*
X180565000Y-102833672D01*
X180586777Y-102848223D01*
X180601327Y-102869999D01*
X180615534Y-102884206D01*
X180624718Y-102905006D01*
X180640970Y-102929329D01*
X180645489Y-102952048D01*
X180653235Y-102969591D01*
X180659192Y-103020940D01*
X180660000Y-103025000D01*
X180660000Y-103915000D01*
X180659192Y-103919059D01*
X180653235Y-103970408D01*
X180645489Y-103987950D01*
X180640970Y-104010671D01*
X180624716Y-104034995D01*
X180615534Y-104055793D01*
X180601329Y-104069997D01*
X180586777Y-104091777D01*
X180564997Y-104106329D01*
X180550793Y-104120534D01*
X180529995Y-104129716D01*
X180505671Y-104145970D01*
X180482950Y-104150489D01*
X180465408Y-104158235D01*
X180414061Y-104164192D01*
X180410000Y-104165000D01*
X179495000Y-104165000D01*
X179490941Y-104164192D01*
X179439591Y-104158235D01*
X179422048Y-104150489D01*
X179399329Y-104145970D01*
X179375006Y-104129718D01*
X179354206Y-104120534D01*
X179339999Y-104106327D01*
X179318223Y-104091777D01*
X179303672Y-104070000D01*
X179289465Y-104055793D01*
X179280280Y-104034991D01*
X179264030Y-104010671D01*
X179259511Y-103987954D01*
X179251764Y-103970408D01*
X179245805Y-103919049D01*
X179245000Y-103915000D01*
X179245000Y-103025000D01*
X179245804Y-103020953D01*
X179251764Y-102969591D01*
X179259511Y-102952043D01*
X179264030Y-102929329D01*
X179280278Y-102905010D01*
X179289465Y-102884206D01*
X179303674Y-102869996D01*
X179318223Y-102848223D01*
X179339996Y-102833674D01*
X179354206Y-102819465D01*
X179375010Y-102810278D01*
X179399329Y-102794030D01*
X179422043Y-102789511D01*
X179439591Y-102781764D01*
X179490952Y-102775805D01*
X179495000Y-102775000D01*
X180410000Y-102775000D01*
X180414047Y-102775805D01*
G37*
G36*
X185321481Y-103056105D02*
G01*
X185372842Y-103062064D01*
X185390388Y-103069811D01*
X185413105Y-103074330D01*
X185437425Y-103090580D01*
X185458227Y-103099765D01*
X185472434Y-103113972D01*
X185494211Y-103128523D01*
X185508761Y-103150299D01*
X185522968Y-103164506D01*
X185532152Y-103185306D01*
X185548404Y-103209629D01*
X185552923Y-103232348D01*
X185560669Y-103249891D01*
X185566626Y-103301240D01*
X185567434Y-103305300D01*
X185567434Y-103830300D01*
X185566626Y-103834359D01*
X185560669Y-103885708D01*
X185552923Y-103903250D01*
X185548404Y-103925971D01*
X185532150Y-103950295D01*
X185522968Y-103971093D01*
X185508763Y-103985297D01*
X185494211Y-104007077D01*
X185472431Y-104021629D01*
X185458227Y-104035834D01*
X185437429Y-104045016D01*
X185413105Y-104061270D01*
X185390384Y-104065789D01*
X185372842Y-104073535D01*
X185321495Y-104079492D01*
X185317434Y-104080300D01*
X184417434Y-104080300D01*
X184413375Y-104079492D01*
X184362025Y-104073535D01*
X184344482Y-104065789D01*
X184321763Y-104061270D01*
X184297440Y-104045018D01*
X184276640Y-104035834D01*
X184262433Y-104021627D01*
X184240657Y-104007077D01*
X184226106Y-103985300D01*
X184211899Y-103971093D01*
X184202714Y-103950291D01*
X184186464Y-103925971D01*
X184181945Y-103903254D01*
X184174198Y-103885708D01*
X184168239Y-103834349D01*
X184167434Y-103830300D01*
X184167434Y-103305300D01*
X184168238Y-103301253D01*
X184174198Y-103249891D01*
X184181945Y-103232343D01*
X184186464Y-103209629D01*
X184202712Y-103185310D01*
X184211899Y-103164506D01*
X184226108Y-103150296D01*
X184240657Y-103128523D01*
X184262430Y-103113974D01*
X184276640Y-103099765D01*
X184297444Y-103090578D01*
X184321763Y-103074330D01*
X184344477Y-103069811D01*
X184362025Y-103062064D01*
X184413386Y-103056105D01*
X184417434Y-103055300D01*
X185317434Y-103055300D01*
X185321481Y-103056105D01*
G37*
G36*
X187509919Y-103056105D02*
G01*
X187561280Y-103062064D01*
X187578826Y-103069811D01*
X187601543Y-103074330D01*
X187625863Y-103090580D01*
X187646665Y-103099765D01*
X187660872Y-103113972D01*
X187682649Y-103128523D01*
X187697199Y-103150299D01*
X187711406Y-103164506D01*
X187720590Y-103185306D01*
X187736842Y-103209629D01*
X187741361Y-103232348D01*
X187749107Y-103249891D01*
X187755064Y-103301240D01*
X187755872Y-103305300D01*
X187755872Y-103830300D01*
X187755064Y-103834359D01*
X187749107Y-103885708D01*
X187741361Y-103903250D01*
X187736842Y-103925971D01*
X187720588Y-103950295D01*
X187711406Y-103971093D01*
X187697201Y-103985297D01*
X187682649Y-104007077D01*
X187660869Y-104021629D01*
X187646665Y-104035834D01*
X187625867Y-104045016D01*
X187601543Y-104061270D01*
X187578822Y-104065789D01*
X187561280Y-104073535D01*
X187509933Y-104079492D01*
X187505872Y-104080300D01*
X186605872Y-104080300D01*
X186601813Y-104079492D01*
X186550463Y-104073535D01*
X186532920Y-104065789D01*
X186510201Y-104061270D01*
X186485878Y-104045018D01*
X186465078Y-104035834D01*
X186450871Y-104021627D01*
X186429095Y-104007077D01*
X186414544Y-103985300D01*
X186400337Y-103971093D01*
X186391152Y-103950291D01*
X186374902Y-103925971D01*
X186370383Y-103903254D01*
X186362636Y-103885708D01*
X186356677Y-103834349D01*
X186355872Y-103830300D01*
X186355872Y-103305300D01*
X186356676Y-103301253D01*
X186362636Y-103249891D01*
X186370383Y-103232343D01*
X186374902Y-103209629D01*
X186391150Y-103185310D01*
X186400337Y-103164506D01*
X186414546Y-103150296D01*
X186429095Y-103128523D01*
X186450868Y-103113974D01*
X186465078Y-103099765D01*
X186485882Y-103090578D01*
X186510201Y-103074330D01*
X186532915Y-103069811D01*
X186550463Y-103062064D01*
X186601824Y-103056105D01*
X186605872Y-103055300D01*
X187505872Y-103055300D01*
X187509919Y-103056105D01*
G37*
G36*
X193583122Y-103011105D02*
G01*
X193634483Y-103017064D01*
X193652029Y-103024811D01*
X193674746Y-103029330D01*
X193699066Y-103045580D01*
X193719868Y-103054765D01*
X193734075Y-103068972D01*
X193755852Y-103083523D01*
X193770402Y-103105299D01*
X193784609Y-103119506D01*
X193793793Y-103140306D01*
X193810045Y-103164629D01*
X193814564Y-103187348D01*
X193822310Y-103204891D01*
X193828267Y-103256240D01*
X193829075Y-103260300D01*
X193829075Y-103760300D01*
X193828267Y-103764359D01*
X193822310Y-103815708D01*
X193814564Y-103833250D01*
X193810045Y-103855971D01*
X193793791Y-103880295D01*
X193784609Y-103901093D01*
X193770404Y-103915297D01*
X193755852Y-103937077D01*
X193734072Y-103951629D01*
X193719868Y-103965834D01*
X193699070Y-103975016D01*
X193674746Y-103991270D01*
X193652025Y-103995789D01*
X193634483Y-104003535D01*
X193583136Y-104009492D01*
X193579075Y-104010300D01*
X192629075Y-104010300D01*
X192625016Y-104009492D01*
X192573666Y-104003535D01*
X192556123Y-103995789D01*
X192533404Y-103991270D01*
X192509081Y-103975018D01*
X192488281Y-103965834D01*
X192474074Y-103951627D01*
X192452298Y-103937077D01*
X192437747Y-103915300D01*
X192423540Y-103901093D01*
X192414355Y-103880291D01*
X192398105Y-103855971D01*
X192393586Y-103833254D01*
X192385839Y-103815708D01*
X192379880Y-103764349D01*
X192379075Y-103760300D01*
X192379075Y-103260300D01*
X192379879Y-103256253D01*
X192385839Y-103204891D01*
X192393586Y-103187343D01*
X192398105Y-103164629D01*
X192414353Y-103140310D01*
X192423540Y-103119506D01*
X192437749Y-103105296D01*
X192452298Y-103083523D01*
X192474071Y-103068974D01*
X192488281Y-103054765D01*
X192509085Y-103045578D01*
X192533404Y-103029330D01*
X192556118Y-103024811D01*
X192573666Y-103017064D01*
X192625027Y-103011105D01*
X192629075Y-103010300D01*
X193579075Y-103010300D01*
X193583122Y-103011105D01*
G37*
G36*
X211970000Y-103830000D02*
G01*
X208970000Y-103830000D01*
X208970000Y-102430000D01*
X211970000Y-102430000D01*
X211970000Y-103830000D01*
G37*
G36*
X200452835Y-103264515D02*
G01*
X200493388Y-103291612D01*
X200520485Y-103332165D01*
X200530000Y-103380000D01*
X200530000Y-103630000D01*
X200520485Y-103677835D01*
X200493388Y-103718388D01*
X200452835Y-103745485D01*
X200405000Y-103755000D01*
X199030000Y-103755000D01*
X198982165Y-103745485D01*
X198941612Y-103718388D01*
X198914515Y-103677835D01*
X198905000Y-103630000D01*
X198905000Y-103380000D01*
X198914515Y-103332165D01*
X198941612Y-103291612D01*
X198982165Y-103264515D01*
X199030000Y-103255000D01*
X200405000Y-103255000D01*
X200452835Y-103264515D01*
G37*
G36*
X204677835Y-103264515D02*
G01*
X204718388Y-103291612D01*
X204745485Y-103332165D01*
X204755000Y-103380000D01*
X204755000Y-103630000D01*
X204745485Y-103677835D01*
X204718388Y-103718388D01*
X204677835Y-103745485D01*
X204630000Y-103755000D01*
X203255000Y-103755000D01*
X203207165Y-103745485D01*
X203166612Y-103718388D01*
X203139515Y-103677835D01*
X203130000Y-103630000D01*
X203130000Y-103380000D01*
X203139515Y-103332165D01*
X203166612Y-103291612D01*
X203207165Y-103264515D01*
X203255000Y-103255000D01*
X204630000Y-103255000D01*
X204677835Y-103264515D01*
G37*
G36*
X200452835Y-102614515D02*
G01*
X200493388Y-102641612D01*
X200520485Y-102682165D01*
X200530000Y-102730000D01*
X200530000Y-102980000D01*
X200520485Y-103027835D01*
X200493388Y-103068388D01*
X200452835Y-103095485D01*
X200405000Y-103105000D01*
X199030000Y-103105000D01*
X198982165Y-103095485D01*
X198941612Y-103068388D01*
X198914515Y-103027835D01*
X198905000Y-102980000D01*
X198905000Y-102730000D01*
X198914515Y-102682165D01*
X198941612Y-102641612D01*
X198982165Y-102614515D01*
X199030000Y-102605000D01*
X200405000Y-102605000D01*
X200452835Y-102614515D01*
G37*
G36*
X204677835Y-102614515D02*
G01*
X204718388Y-102641612D01*
X204745485Y-102682165D01*
X204755000Y-102730000D01*
X204755000Y-102980000D01*
X204745485Y-103027835D01*
X204718388Y-103068388D01*
X204677835Y-103095485D01*
X204630000Y-103105000D01*
X203255000Y-103105000D01*
X203207165Y-103095485D01*
X203166612Y-103068388D01*
X203139515Y-103027835D01*
X203130000Y-102980000D01*
X203130000Y-102730000D01*
X203139515Y-102682165D01*
X203166612Y-102641612D01*
X203207165Y-102614515D01*
X203255000Y-102605000D01*
X204630000Y-102605000D01*
X204677835Y-102614515D01*
G37*
G36*
X190847575Y-101661105D02*
G01*
X190898936Y-101667064D01*
X190916482Y-101674811D01*
X190939199Y-101679330D01*
X190963519Y-101695580D01*
X190984321Y-101704765D01*
X190998528Y-101718972D01*
X191020305Y-101733523D01*
X191034855Y-101755299D01*
X191049062Y-101769506D01*
X191058246Y-101790306D01*
X191074498Y-101814629D01*
X191079017Y-101837348D01*
X191086763Y-101854891D01*
X191092720Y-101906240D01*
X191093528Y-101910300D01*
X191093528Y-102410300D01*
X191092720Y-102414359D01*
X191086763Y-102465708D01*
X191079017Y-102483250D01*
X191074498Y-102505971D01*
X191058244Y-102530295D01*
X191049062Y-102551093D01*
X191034857Y-102565297D01*
X191020305Y-102587077D01*
X190998525Y-102601629D01*
X190984321Y-102615834D01*
X190963523Y-102625016D01*
X190939199Y-102641270D01*
X190916478Y-102645789D01*
X190898936Y-102653535D01*
X190847589Y-102659492D01*
X190843528Y-102660300D01*
X189893528Y-102660300D01*
X189889469Y-102659492D01*
X189838119Y-102653535D01*
X189820576Y-102645789D01*
X189797857Y-102641270D01*
X189773534Y-102625018D01*
X189752734Y-102615834D01*
X189738527Y-102601627D01*
X189716751Y-102587077D01*
X189702200Y-102565300D01*
X189687993Y-102551093D01*
X189678808Y-102530291D01*
X189662558Y-102505971D01*
X189658039Y-102483254D01*
X189650292Y-102465708D01*
X189644333Y-102414349D01*
X189643528Y-102410300D01*
X189643528Y-101910300D01*
X189644332Y-101906253D01*
X189650292Y-101854891D01*
X189658039Y-101837343D01*
X189662558Y-101814629D01*
X189678806Y-101790310D01*
X189687993Y-101769506D01*
X189702202Y-101755296D01*
X189716751Y-101733523D01*
X189738524Y-101718974D01*
X189752734Y-101704765D01*
X189773538Y-101695578D01*
X189797857Y-101679330D01*
X189820571Y-101674811D01*
X189838119Y-101667064D01*
X189889480Y-101661105D01*
X189893528Y-101660300D01*
X190843528Y-101660300D01*
X190847575Y-101661105D01*
G37*
G36*
X200452835Y-101964515D02*
G01*
X200493388Y-101991612D01*
X200520485Y-102032165D01*
X200530000Y-102080000D01*
X200530000Y-102330000D01*
X200520485Y-102377835D01*
X200493388Y-102418388D01*
X200452835Y-102445485D01*
X200405000Y-102455000D01*
X199030000Y-102455000D01*
X198982165Y-102445485D01*
X198941612Y-102418388D01*
X198914515Y-102377835D01*
X198905000Y-102330000D01*
X198905000Y-102080000D01*
X198914515Y-102032165D01*
X198941612Y-101991612D01*
X198982165Y-101964515D01*
X199030000Y-101955000D01*
X200405000Y-101955000D01*
X200452835Y-101964515D01*
G37*
G36*
X204677835Y-101964515D02*
G01*
X204718388Y-101991612D01*
X204745485Y-102032165D01*
X204755000Y-102080000D01*
X204755000Y-102330000D01*
X204745485Y-102377835D01*
X204718388Y-102418388D01*
X204677835Y-102445485D01*
X204630000Y-102455000D01*
X203255000Y-102455000D01*
X203207165Y-102445485D01*
X203166612Y-102418388D01*
X203139515Y-102377835D01*
X203130000Y-102330000D01*
X203130000Y-102080000D01*
X203139515Y-102032165D01*
X203166612Y-101991612D01*
X203207165Y-101964515D01*
X203255000Y-101955000D01*
X204630000Y-101955000D01*
X204677835Y-101964515D01*
G37*
M02*
