%TF.GenerationSoftware,KiCad,Pcbnew,10.0.1*%
%TF.CreationDate,2026-09-07T14:50:36+02:00*%
%TF.ProjectId,190V-PSU-ONLY,31393056-2d50-4535-952d-4f4e4c592e6b,rev?*%
%TF.SameCoordinates,Original*%
%TF.FileFunction,Legend,Bot*%
%TF.FilePolarity,Positive*%
%FSLAX46Y46*%
G04 Gerber Fmt 4.6, Leading zero omitted, Abs format (unit mm)*
G04 Created by KiCad (PCBNEW 10.0.1) date 2026-09-07 14:50:36*
%MOMM*%
%LPD*%
G01*
G04 APERTURE LIST*
G04 APERTURE END LIST*
%LPC*%
G36*
X176271256Y-111848754D02*
G01*
X176434257Y-111916271D01*
X176580954Y-112014291D01*
X176705709Y-112139046D01*
X176803729Y-112285743D01*
X176871246Y-112448744D01*
X176905666Y-112621785D01*
X176905666Y-112798215D01*
X176871246Y-112971256D01*
X176803729Y-113134257D01*
X176705709Y-113280954D01*
X176580954Y-113405709D01*
X176434257Y-113503729D01*
X176271256Y-113571246D01*
X176098215Y-113605666D01*
X175921785Y-113605666D01*
X175748744Y-113571246D01*
X175585743Y-113503729D01*
X175439046Y-113405709D01*
X175314291Y-113280954D01*
X175216271Y-113134257D01*
X175148754Y-112971256D01*
X175114334Y-112798215D01*
X175114334Y-112621785D01*
X175148754Y-112448744D01*
X175216271Y-112285743D01*
X175314291Y-112139046D01*
X175439046Y-112014291D01*
X175585743Y-111916271D01*
X175748744Y-111848754D01*
X175921785Y-111814334D01*
X176098215Y-111814334D01*
X176271256Y-111848754D01*
G37*
G36*
X236386742Y-110596601D02*
G01*
X236540687Y-110660367D01*
X236679234Y-110752941D01*
X236797059Y-110870766D01*
X236889633Y-111009313D01*
X236953399Y-111163258D01*
X236985907Y-111326685D01*
X236985907Y-111493315D01*
X236953399Y-111656742D01*
X236889633Y-111810687D01*
X236797059Y-111949234D01*
X236679234Y-112067059D01*
X236540687Y-112159633D01*
X236386742Y-112223399D01*
X236223315Y-112255907D01*
X236056685Y-112255907D01*
X235893258Y-112223399D01*
X235739313Y-112159633D01*
X235600766Y-112067059D01*
X235482941Y-111949234D01*
X235390367Y-111810687D01*
X235326601Y-111656742D01*
X235294093Y-111493315D01*
X235294093Y-111326685D01*
X235326601Y-111163258D01*
X235390367Y-111009313D01*
X235482941Y-110870766D01*
X235600766Y-110752941D01*
X235739313Y-110660367D01*
X235893258Y-110596601D01*
X236056685Y-110564093D01*
X236223315Y-110564093D01*
X236386742Y-110596601D01*
G37*
G36*
X236990000Y-109720000D02*
G01*
X235290000Y-109720000D01*
X235290000Y-108020000D01*
X236990000Y-108020000D01*
X236990000Y-109720000D01*
G37*
G36*
X176271256Y-106768754D02*
G01*
X176434257Y-106836271D01*
X176580954Y-106934291D01*
X176705709Y-107059046D01*
X176803729Y-107205743D01*
X176871246Y-107368744D01*
X176905666Y-107541785D01*
X176905666Y-107718215D01*
X176871246Y-107891256D01*
X176803729Y-108054257D01*
X176705709Y-108200954D01*
X176580954Y-108325709D01*
X176434257Y-108423729D01*
X176271256Y-108491246D01*
X176098215Y-108525666D01*
X175921785Y-108525666D01*
X175748744Y-108491246D01*
X175585743Y-108423729D01*
X175439046Y-108325709D01*
X175314291Y-108200954D01*
X175216271Y-108054257D01*
X175148754Y-107891256D01*
X175114334Y-107718215D01*
X175114334Y-107541785D01*
X175148754Y-107368744D01*
X175216271Y-107205743D01*
X175314291Y-107059046D01*
X175439046Y-106934291D01*
X175585743Y-106836271D01*
X175748744Y-106768754D01*
X175921785Y-106734334D01*
X176098215Y-106734334D01*
X176271256Y-106768754D01*
G37*
%LPD*%
M02*
