%TF.GenerationSoftware,KiCad,Pcbnew,10.0.1*%
%TF.CreationDate,2026-09-07T14:50:36+02:00*%
%TF.ProjectId,190V-PSU-ONLY,31393056-2d50-4535-952d-4f4e4c592e6b,rev?*%
%TF.SameCoordinates,Original*%
%TF.FileFunction,Paste,Top*%
%TF.FilePolarity,Positive*%
%FSLAX46Y46*%
G04 Gerber Fmt 4.6, Leading zero omitted, Abs format (unit mm)*
G04 Created by KiCad (PCBNEW 10.0.1) date 2026-09-07 14:50:36*
%MOMM*%
%LPD*%
G01*
G04 APERTURE LIST*
G04 Aperture macros list*
%AMRoundRect*
0 Rectangle with rounded corners*
0 $1 Rounding radius*
0 $2 $3 $4 $5 $6 $7 $8 $9 X,Y pos of 4 corners*
0 Add a 4 corners polygon primitive as box body*
4,1,4,$2,$3,$4,$5,$6,$7,$8,$9,$2,$3,0*
0 Add four circle primitives for the rounded corners*
1,1,$1+$1,$2,$3*
1,1,$1+$1,$4,$5*
1,1,$1+$1,$6,$7*
1,1,$1+$1,$8,$9*
0 Add four rect primitives between the rounded corners*
20,1,$1+$1,$2,$3,$4,$5,0*
20,1,$1+$1,$4,$5,$6,$7,0*
20,1,$1+$1,$6,$7,$8,$9,0*
20,1,$1+$1,$8,$9,$2,$3,0*%
G04 Aperture macros list end*
%ADD10RoundRect,0.250000X0.250000X0.475000X-0.250000X0.475000X-0.250000X-0.475000X0.250000X-0.475000X0*%
%ADD11RoundRect,0.250000X0.312500X1.075000X-0.312500X1.075000X-0.312500X-1.075000X0.312500X-1.075000X0*%
%ADD12R,3.000000X1.400000*%
%ADD13R,6.500000X6.000000*%
%ADD14RoundRect,0.250000X-0.250000X-0.475000X0.250000X-0.475000X0.250000X0.475000X-0.250000X0.475000X0*%
%ADD15RoundRect,0.250001X-0.799999X2.049999X-0.799999X-2.049999X0.799999X-2.049999X0.799999X2.049999X0*%
%ADD16RoundRect,0.250000X0.457500X0.445000X-0.457500X0.445000X-0.457500X-0.445000X0.457500X-0.445000X0*%
%ADD17R,2.900000X5.400000*%
%ADD18RoundRect,0.250000X-0.450000X0.262500X-0.450000X-0.262500X0.450000X-0.262500X0.450000X0.262500X0*%
%ADD19RoundRect,0.250000X0.450000X-0.262500X0.450000X0.262500X-0.450000X0.262500X-0.450000X-0.262500X0*%
%ADD20RoundRect,0.250000X-0.262500X-0.450000X0.262500X-0.450000X0.262500X0.450000X-0.262500X0.450000X0*%
%ADD21RoundRect,0.250000X0.475000X-0.250000X0.475000X0.250000X-0.475000X0.250000X-0.475000X-0.250000X0*%
%ADD22RoundRect,0.125000X0.687500X0.125000X-0.687500X0.125000X-0.687500X-0.125000X0.687500X-0.125000X0*%
%ADD23RoundRect,0.250000X0.650000X-0.325000X0.650000X0.325000X-0.650000X0.325000X-0.650000X-0.325000X0*%
%ADD24RoundRect,0.250000X-0.475000X0.250000X-0.475000X-0.250000X0.475000X-0.250000X0.475000X0.250000X0*%
%ADD25RoundRect,0.250000X-0.312500X-0.625000X0.312500X-0.625000X0.312500X0.625000X-0.312500X0.625000X0*%
%ADD26R,3.000000X1.600000*%
%ADD27R,6.700000X6.700000*%
%ADD28RoundRect,0.250000X-0.325000X-0.650000X0.325000X-0.650000X0.325000X0.650000X-0.325000X0.650000X0*%
G04 APERTURE END LIST*
D10*
%TO.C,Cfilt1*%
X197236067Y-103830300D03*
X195336067Y-103830300D03*
%TD*%
D11*
%TO.C,RSense1*%
X180000403Y-117810300D03*
X177075403Y-117810300D03*
%TD*%
D12*
%TO.C,Q1*%
X210470000Y-103130000D03*
D13*
X216720000Y-105430000D03*
D12*
X210470000Y-107730000D03*
%TD*%
D14*
%TO.C,Cbyp1*%
X172904583Y-117600300D03*
X174804583Y-117600300D03*
%TD*%
D10*
%TO.C,Ccomp1*%
X198877395Y-106260300D03*
X196977395Y-106260300D03*
%TD*%
D15*
%TO.C,C6*%
X201934558Y-108709700D03*
X201934558Y-117509700D03*
%TD*%
D16*
%TO.C,C11*%
X179952500Y-103470000D03*
X177247500Y-103470000D03*
%TD*%
D17*
%TO.C,L1*%
X183980000Y-112990000D03*
X193880000Y-112990000D03*
%TD*%
D18*
%TO.C,Rcomp1*%
X187055872Y-103567800D03*
X187055872Y-105392800D03*
%TD*%
D19*
%TO.C,RFilt1*%
X206478255Y-106472800D03*
X206478255Y-104647800D03*
%TD*%
D20*
%TO.C,Rfb1*%
X222161927Y-104130300D03*
X223986927Y-104130300D03*
%TD*%
D21*
%TO.C,Ccomp2*%
X193104075Y-105410300D03*
X193104075Y-103510300D03*
%TD*%
D22*
%TO.C,U1*%
X203942500Y-104155000D03*
X203942500Y-103505000D03*
X203942500Y-102855000D03*
X203942500Y-102205000D03*
X199717500Y-102205000D03*
X199717500Y-102855000D03*
X199717500Y-103505000D03*
X199717500Y-104155000D03*
%TD*%
D23*
%TO.C,C4*%
X222544427Y-109385300D03*
X222544427Y-106435300D03*
%TD*%
D24*
%TO.C,Ccomp3*%
X190368528Y-102160300D03*
X190368528Y-104060300D03*
%TD*%
D25*
%TO.C,Rfb2*%
X223853255Y-112320300D03*
X226778255Y-112320300D03*
%TD*%
D19*
%TO.C,Rfadj1*%
X184867434Y-105392800D03*
X184867434Y-103567800D03*
%TD*%
D26*
%TO.C,D1*%
X220194141Y-117326000D03*
D27*
X212344141Y-115040000D03*
D26*
X220194141Y-112754000D03*
%TD*%
D28*
%TO.C,C2*%
X223860755Y-115000300D03*
X226810755Y-115000300D03*
%TD*%
M02*
