%TF.GenerationSoftware,KiCad,Pcbnew,10.0.1*%
%TF.CreationDate,2026-06-18T15:04:04+02:00*%
%TF.ProjectId,STM32H743,53544d33-3248-4373-9433-2e6b69636164,rev?*%
%TF.SameCoordinates,Original*%
%TF.FileFunction,Soldermask,Top*%
%TF.FilePolarity,Negative*%
%FSLAX46Y46*%
G04 Gerber Fmt 4.6, Leading zero omitted, Abs format (unit mm)*
G04 Created by KiCad (PCBNEW 10.0.1) date 2026-06-18 15:04:04*
%MOMM*%
%LPD*%
G01*
G04 APERTURE LIST*
G04 Aperture macros list*
%AMRoundRect*
0 Rectangle with rounded corners*
0 $1 Rounding radius*
0 $2 $3 $4 $5 $6 $7 $8 $9 X,Y pos of 4 corners*
0 Add a 4 corners polygon primitive as box body*
4,1,4,$2,$3,$4,$5,$6,$7,$8,$9,$2,$3,0*
0 Add four circle primitives for the rounded corners*
1,1,$1+$1,$2,$3*
1,1,$1+$1,$4,$5*
1,1,$1+$1,$6,$7*
1,1,$1+$1,$8,$9*
0 Add four rect primitives between the rounded corners*
20,1,$1+$1,$2,$3,$4,$5,0*
20,1,$1+$1,$4,$5,$6,$7,0*
20,1,$1+$1,$6,$7,$8,$9,0*
20,1,$1+$1,$8,$9,$2,$3,0*%
G04 Aperture macros list end*
%ADD10RoundRect,0.135000X0.185000X-0.135000X0.185000X0.135000X-0.185000X0.135000X-0.185000X-0.135000X0*%
%ADD11RoundRect,0.140000X-0.140000X-0.170000X0.140000X-0.170000X0.140000X0.170000X-0.140000X0.170000X0*%
%ADD12RoundRect,0.075000X-0.650000X-0.075000X0.650000X-0.075000X0.650000X0.075000X-0.650000X0.075000X0*%
%ADD13R,0.990600X0.990600*%
%ADD14RoundRect,0.140000X0.170000X-0.140000X0.170000X0.140000X-0.170000X0.140000X-0.170000X-0.140000X0*%
%ADD15RoundRect,0.250000X0.450000X-0.262500X0.450000X0.262500X-0.450000X0.262500X-0.450000X-0.262500X0*%
%ADD16RoundRect,0.150000X-0.825000X-0.150000X0.825000X-0.150000X0.825000X0.150000X-0.825000X0.150000X0*%
%ADD17RoundRect,0.200000X0.200000X0.275000X-0.200000X0.275000X-0.200000X-0.275000X0.200000X-0.275000X0*%
%ADD18R,1.700000X1.700000*%
%ADD19C,1.700000*%
%ADD20RoundRect,0.140000X0.140000X0.170000X-0.140000X0.170000X-0.140000X-0.170000X0.140000X-0.170000X0*%
%ADD21R,1.600000X1.600000*%
%ADD22C,1.600000*%
%ADD23C,4.000000*%
%ADD24RoundRect,0.250000X0.350000X-0.450000X0.350000X0.450000X-0.350000X0.450000X-0.350000X-0.450000X0*%
%ADD25RoundRect,0.150000X-0.150000X-0.575000X0.150000X-0.575000X0.150000X0.575000X-0.150000X0.575000X0*%
%ADD26RoundRect,0.075000X-0.075000X-0.650000X0.075000X-0.650000X0.075000X0.650000X-0.075000X0.650000X0*%
%ADD27O,1.000000X2.100000*%
%ADD28O,1.000000X1.600000*%
%ADD29RoundRect,0.375000X0.625000X0.375000X-0.625000X0.375000X-0.625000X-0.375000X0.625000X-0.375000X0*%
%ADD30RoundRect,0.500000X0.500000X1.400000X-0.500000X1.400000X-0.500000X-1.400000X0.500000X-1.400000X0*%
%ADD31RoundRect,0.200000X-0.200000X-0.275000X0.200000X-0.275000X0.200000X0.275000X-0.200000X0.275000X0*%
%ADD32RoundRect,0.102000X-0.750000X-0.450000X0.750000X-0.450000X0.750000X0.450000X-0.750000X0.450000X0*%
%ADD33RoundRect,0.135000X-0.135000X-0.185000X0.135000X-0.185000X0.135000X0.185000X-0.135000X0.185000X0*%
%ADD34RoundRect,0.150000X-0.512500X-0.150000X0.512500X-0.150000X0.512500X0.150000X-0.512500X0.150000X0*%
%ADD35R,2.000000X4.000000*%
%ADD36O,2.000000X3.300000*%
%ADD37O,3.500000X2.000000*%
%ADD38RoundRect,0.140000X-0.170000X0.140000X-0.170000X-0.140000X0.170000X-0.140000X0.170000X0.140000X0*%
%ADD39RoundRect,0.250000X0.600000X-0.400000X0.600000X0.400000X-0.600000X0.400000X-0.600000X-0.400000X0*%
%ADD40RoundRect,0.250000X0.250000X0.475000X-0.250000X0.475000X-0.250000X-0.475000X0.250000X-0.475000X0*%
%ADD41RoundRect,0.250000X-0.450000X0.262500X-0.450000X-0.262500X0.450000X-0.262500X0.450000X0.262500X0*%
%ADD42RoundRect,0.250000X-0.850000X-0.350000X0.850000X-0.350000X0.850000X0.350000X-0.850000X0.350000X0*%
%ADD43RoundRect,0.249997X-2.950003X-2.650003X2.950003X-2.650003X2.950003X2.650003X-2.950003X2.650003X0*%
%ADD44RoundRect,0.250000X0.325000X0.650000X-0.325000X0.650000X-0.325000X-0.650000X0.325000X-0.650000X0*%
%ADD45RoundRect,0.102000X0.750000X0.450000X-0.750000X0.450000X-0.750000X-0.450000X0.750000X-0.450000X0*%
%ADD46RoundRect,0.250000X-0.250000X-0.475000X0.250000X-0.475000X0.250000X0.475000X-0.250000X0.475000X0*%
%ADD47RoundRect,0.075000X-0.662500X-0.075000X0.662500X-0.075000X0.662500X0.075000X-0.662500X0.075000X0*%
%ADD48RoundRect,0.075000X-0.075000X-0.662500X0.075000X-0.662500X0.075000X0.662500X-0.075000X0.662500X0*%
%ADD49RoundRect,0.250000X0.450000X0.350000X-0.450000X0.350000X-0.450000X-0.350000X0.450000X-0.350000X0*%
%ADD50RoundRect,0.250000X0.475000X-0.250000X0.475000X0.250000X-0.475000X0.250000X-0.475000X-0.250000X0*%
%ADD51RoundRect,0.162500X-0.650000X-0.162500X0.650000X-0.162500X0.650000X0.162500X-0.650000X0.162500X0*%
%ADD52RoundRect,0.218750X0.218750X0.381250X-0.218750X0.381250X-0.218750X-0.381250X0.218750X-0.381250X0*%
%ADD53R,3.000000X3.000000*%
%ADD54C,3.000000*%
G04 APERTURE END LIST*
D10*
%TO.C,R1*%
X164800000Y-122410000D03*
X164800000Y-121390000D03*
%TD*%
D11*
%TO.C,C35*%
X193195000Y-124105000D03*
X194155000Y-124105000D03*
%TD*%
D12*
%TO.C,U3*%
X158740000Y-106000000D03*
X158740000Y-106500000D03*
X158740000Y-107000000D03*
X158740000Y-107500000D03*
X158740000Y-108000000D03*
X163040000Y-108000000D03*
X163040000Y-107500000D03*
X163040000Y-107000000D03*
X163040000Y-106500000D03*
X163040000Y-106000000D03*
%TD*%
D13*
%TO.C,SW1*%
X158739999Y-130649999D03*
X158739999Y-121650001D03*
X163240001Y-130649999D03*
X163240001Y-121650001D03*
%TD*%
D14*
%TO.C,C16*%
X235500000Y-127630000D03*
X235500000Y-126670000D03*
%TD*%
D11*
%TO.C,C13*%
X216550000Y-135650000D03*
X217510000Y-135650000D03*
%TD*%
D15*
%TO.C,R5*%
X160380000Y-139352500D03*
X160380000Y-137527500D03*
%TD*%
D14*
%TO.C,C3*%
X216420000Y-138460000D03*
X216420000Y-137500000D03*
%TD*%
D16*
%TO.C,U8*%
X190350000Y-136540000D03*
X190350000Y-137810000D03*
X190350000Y-139080000D03*
X190350000Y-140350000D03*
X195300000Y-140350000D03*
X195300000Y-139080000D03*
X195300000Y-137810000D03*
X195300000Y-136540000D03*
%TD*%
D17*
%TO.C,R16*%
X252255000Y-136180000D03*
X250605000Y-136180000D03*
%TD*%
D18*
%TO.C,J7*%
X261920000Y-101500000D03*
D19*
X259380000Y-101500000D03*
X256840000Y-101500000D03*
X254300000Y-101500000D03*
X251760000Y-101500000D03*
X249220000Y-101500000D03*
X246680000Y-101500000D03*
X244140000Y-101500000D03*
X241600000Y-101500000D03*
X239060000Y-101500000D03*
X236520000Y-101500000D03*
X233980000Y-101500000D03*
X231440000Y-101500000D03*
X228900000Y-101500000D03*
X226360000Y-101500000D03*
X223820000Y-101500000D03*
%TD*%
D11*
%TO.C,C7*%
X193194886Y-128265114D03*
X194154886Y-128265114D03*
%TD*%
D20*
%TO.C,C15*%
X194154886Y-118548447D03*
X193194886Y-118548447D03*
%TD*%
D21*
%TO.C,J2*%
X256330000Y-138405000D03*
D22*
X256330000Y-136115000D03*
X256330000Y-133825000D03*
X256330000Y-131535000D03*
X256330000Y-129245000D03*
X258230000Y-139550000D03*
X258230000Y-137260000D03*
X258230000Y-134970000D03*
X258230000Y-132680000D03*
X258230000Y-130390000D03*
X260130000Y-138405000D03*
X260130000Y-136115000D03*
X260130000Y-133825000D03*
X260130000Y-131535000D03*
X260130000Y-129245000D03*
D23*
X258220000Y-146590000D03*
X258220000Y-121590000D03*
%TD*%
D20*
%TO.C,C14*%
X194154886Y-117223447D03*
X193194886Y-117223447D03*
%TD*%
D14*
%TO.C,C30*%
X204620000Y-112710000D03*
X204620000Y-111750000D03*
%TD*%
D17*
%TO.C,R15*%
X252255362Y-142369533D03*
X250605362Y-142369533D03*
%TD*%
D24*
%TO.C,Y1*%
X191320000Y-128770000D03*
X191320000Y-126570000D03*
X189620000Y-126570000D03*
X189620000Y-128770000D03*
%TD*%
D17*
%TO.C,R20*%
X252265000Y-122200000D03*
X250615000Y-122200000D03*
%TD*%
D14*
%TO.C,C10*%
X217860000Y-115080000D03*
X217860000Y-114120000D03*
%TD*%
D10*
%TO.C,R2*%
X164760000Y-120160000D03*
X164760000Y-119140000D03*
%TD*%
D17*
%TO.C,R11*%
X252275362Y-140819533D03*
X250625362Y-140819533D03*
%TD*%
%TO.C,R17*%
X252265000Y-128420000D03*
X250615000Y-128420000D03*
%TD*%
D25*
%TO.C,J1*%
X158120000Y-143625000D03*
X158920000Y-143625000D03*
D26*
X160120000Y-143625000D03*
X161120000Y-143625000D03*
X161620000Y-143625000D03*
X162620000Y-143625000D03*
D25*
X163820000Y-143625000D03*
X164620000Y-143625000D03*
X164620000Y-143625000D03*
X163820000Y-143625000D03*
D26*
X163120000Y-143625000D03*
X162120000Y-143625000D03*
X160620000Y-143625000D03*
X159620000Y-143625000D03*
D25*
X158920000Y-143625000D03*
X158120000Y-143625000D03*
D27*
X157050000Y-144540000D03*
D28*
X157050000Y-148720000D03*
D27*
X165690000Y-144540000D03*
D28*
X165690000Y-148720000D03*
%TD*%
D29*
%TO.C,U2*%
X243600000Y-129910000D03*
X243600000Y-127610000D03*
D30*
X237300000Y-127610000D03*
D29*
X243600000Y-125310000D03*
%TD*%
D31*
%TO.C,R25*%
X241725888Y-116982133D03*
X243375888Y-116982133D03*
%TD*%
D32*
%TO.C,U11*%
X177752500Y-121500000D03*
X177752500Y-124800000D03*
X182652500Y-124800000D03*
X182652500Y-121500000D03*
%TD*%
D31*
%TO.C,R9*%
X250615000Y-137740000D03*
X252265000Y-137740000D03*
%TD*%
D20*
%TO.C,C25*%
X194154886Y-132240114D03*
X193194886Y-132240114D03*
%TD*%
D11*
%TO.C,C23*%
X233104261Y-122081781D03*
X234064261Y-122081781D03*
%TD*%
D18*
%TO.C,J8*%
X152090000Y-109930000D03*
D19*
X152090000Y-112470000D03*
X152090000Y-115010000D03*
X152090000Y-117550000D03*
X152090000Y-120090000D03*
X152090000Y-122630000D03*
X152090000Y-125170000D03*
X152090000Y-127710000D03*
X152090000Y-130250000D03*
X152090000Y-132790000D03*
X152090000Y-135330000D03*
X152090000Y-137870000D03*
X152090000Y-140410000D03*
X152090000Y-142950000D03*
X152090000Y-145490000D03*
X152090000Y-148030000D03*
%TD*%
D32*
%TO.C,U12*%
X170712500Y-121540000D03*
X170712500Y-124840000D03*
X175612500Y-124840000D03*
X175612500Y-121540000D03*
%TD*%
D11*
%TO.C,C9*%
X193194886Y-125615114D03*
X194154886Y-125615114D03*
%TD*%
%TO.C,C32*%
X199110000Y-137410000D03*
X200070000Y-137410000D03*
%TD*%
D33*
%TO.C,R21*%
X189470000Y-134960000D03*
X190490000Y-134960000D03*
%TD*%
D20*
%TO.C,C6*%
X220317698Y-115898447D03*
X219357698Y-115898447D03*
%TD*%
D34*
%TO.C,U5*%
X239532500Y-118860000D03*
X239532500Y-119810000D03*
X239532500Y-120760000D03*
X241807500Y-120760000D03*
X241807500Y-119810000D03*
X241807500Y-118860000D03*
%TD*%
D35*
%TO.C,J4*%
X251380000Y-112050000D03*
D36*
X257380000Y-112050000D03*
D37*
X258380000Y-116550000D03*
X258380000Y-107550000D03*
%TD*%
D15*
%TO.C,R6*%
X162440000Y-139375000D03*
X162440000Y-137550000D03*
%TD*%
D20*
%TO.C,C19*%
X165774886Y-107065114D03*
X164814886Y-107065114D03*
%TD*%
D11*
%TO.C,C34*%
X193205000Y-129895000D03*
X194165000Y-129895000D03*
%TD*%
D14*
%TO.C,C31*%
X198620000Y-112700000D03*
X198620000Y-111740000D03*
%TD*%
%TO.C,C11*%
X209600000Y-112710000D03*
X209600000Y-111750000D03*
%TD*%
D38*
%TO.C,C17*%
X245390000Y-125310000D03*
X245390000Y-126270000D03*
%TD*%
D11*
%TO.C,C33*%
X205590000Y-137410000D03*
X206550000Y-137410000D03*
%TD*%
D18*
%TO.C,J10*%
X168195000Y-101505000D03*
D19*
X170735000Y-101505000D03*
X173275000Y-101505000D03*
X175815000Y-101505000D03*
X178355000Y-101505000D03*
%TD*%
D17*
%TO.C,R8*%
X252285000Y-123770000D03*
X250635000Y-123770000D03*
%TD*%
D33*
%TO.C,R22*%
X189460000Y-133880000D03*
X190480000Y-133880000D03*
%TD*%
D39*
%TO.C,D1*%
X234696407Y-114981605D03*
X234696407Y-111481605D03*
%TD*%
D20*
%TO.C,C26*%
X194154886Y-130915114D03*
X193194886Y-130915114D03*
%TD*%
D16*
%TO.C,U6*%
X168010000Y-129640000D03*
X168010000Y-130910000D03*
X168010000Y-132180000D03*
X168010000Y-133450000D03*
X168010000Y-134720000D03*
X168010000Y-135990000D03*
X168010000Y-137260000D03*
X168010000Y-138530000D03*
X172960000Y-138530000D03*
X172960000Y-137260000D03*
X172960000Y-135990000D03*
X172960000Y-134720000D03*
X172960000Y-133450000D03*
X172960000Y-132180000D03*
X172960000Y-130910000D03*
X172960000Y-129640000D03*
%TD*%
D40*
%TO.C,C79*%
X175530000Y-127940000D03*
X173630000Y-127940000D03*
%TD*%
D14*
%TO.C,C4*%
X215396761Y-138453447D03*
X215396761Y-137493447D03*
%TD*%
D31*
%TO.C,FB1*%
X190325000Y-131560000D03*
X191975000Y-131560000D03*
%TD*%
D41*
%TO.C,R3*%
X157000000Y-139737500D03*
X157000000Y-141562500D03*
%TD*%
D42*
%TO.C,Q2*%
X239430000Y-109802500D03*
D43*
X245730000Y-112082500D03*
D42*
X239430000Y-114362500D03*
%TD*%
D17*
%TO.C,R7*%
X252245000Y-134650000D03*
X250595000Y-134650000D03*
%TD*%
D32*
%TO.C,U9*%
X170680000Y-115930000D03*
X170680000Y-119230000D03*
X175580000Y-119230000D03*
X175580000Y-115930000D03*
%TD*%
D31*
%TO.C,R24*%
X235515000Y-122380000D03*
X237165000Y-122380000D03*
%TD*%
D44*
%TO.C,C28*%
X235685000Y-120090000D03*
X232735000Y-120090000D03*
%TD*%
D20*
%TO.C,C5*%
X220317698Y-117223447D03*
X219357698Y-117223447D03*
%TD*%
D45*
%TO.C,U10*%
X182622500Y-119230000D03*
X182622500Y-115930000D03*
X177722500Y-115930000D03*
X177722500Y-119230000D03*
%TD*%
D17*
%TO.C,R10*%
X252275000Y-125300000D03*
X250625000Y-125300000D03*
%TD*%
D15*
%TO.C,R4*%
X165750000Y-141562500D03*
X165750000Y-139737500D03*
%TD*%
D11*
%TO.C,C29*%
X219010000Y-128100000D03*
X219970000Y-128100000D03*
%TD*%
D46*
%TO.C,C59*%
X163332450Y-135282133D03*
X165232450Y-135282133D03*
%TD*%
D17*
%TO.C,R18*%
X252255000Y-131550000D03*
X250605000Y-131550000D03*
%TD*%
D47*
%TO.C,U1*%
X196187500Y-116105000D03*
X196187500Y-116605000D03*
X196187500Y-117105000D03*
X196187500Y-117605000D03*
X196187500Y-118105000D03*
X196187500Y-118605000D03*
X196187500Y-119105000D03*
X196187500Y-119605000D03*
X196187500Y-120105000D03*
X196187500Y-120605000D03*
X196187500Y-121105000D03*
X196187500Y-121605000D03*
X196187500Y-122105000D03*
X196187500Y-122605000D03*
X196187500Y-123105000D03*
X196187500Y-123605000D03*
X196187500Y-124105000D03*
X196187500Y-124605000D03*
X196187500Y-125105000D03*
X196187500Y-125605000D03*
X196187500Y-126105000D03*
X196187500Y-126605000D03*
X196187500Y-127105000D03*
X196187500Y-127605000D03*
X196187500Y-128105000D03*
X196187500Y-128605000D03*
X196187500Y-129105000D03*
X196187500Y-129605000D03*
X196187500Y-130105000D03*
X196187500Y-130605000D03*
X196187500Y-131105000D03*
X196187500Y-131605000D03*
X196187500Y-132105000D03*
X196187500Y-132605000D03*
X196187500Y-133105000D03*
X196187500Y-133605000D03*
D48*
X198100000Y-135517500D03*
X198600000Y-135517500D03*
X199100000Y-135517500D03*
X199600000Y-135517500D03*
X200100000Y-135517500D03*
X200600000Y-135517500D03*
X201100000Y-135517500D03*
X201600000Y-135517500D03*
X202100000Y-135517500D03*
X202600000Y-135517500D03*
X203100000Y-135517500D03*
X203600000Y-135517500D03*
X204100000Y-135517500D03*
X204600000Y-135517500D03*
X205100000Y-135517500D03*
X205600000Y-135517500D03*
X206100000Y-135517500D03*
X206600000Y-135517500D03*
X207100000Y-135517500D03*
X207600000Y-135517500D03*
X208100000Y-135517500D03*
X208600000Y-135517500D03*
X209100000Y-135517500D03*
X209600000Y-135517500D03*
X210100000Y-135517500D03*
X210600000Y-135517500D03*
X211100000Y-135517500D03*
X211600000Y-135517500D03*
X212100000Y-135517500D03*
X212600000Y-135517500D03*
X213100000Y-135517500D03*
X213600000Y-135517500D03*
X214100000Y-135517500D03*
X214600000Y-135517500D03*
X215100000Y-135517500D03*
X215600000Y-135517500D03*
D47*
X217512500Y-133605000D03*
X217512500Y-133105000D03*
X217512500Y-132605000D03*
X217512500Y-132105000D03*
X217512500Y-131605000D03*
X217512500Y-131105000D03*
X217512500Y-130605000D03*
X217512500Y-130105000D03*
X217512500Y-129605000D03*
X217512500Y-129105000D03*
X217512500Y-128605000D03*
X217512500Y-128105000D03*
X217512500Y-127605000D03*
X217512500Y-127105000D03*
X217512500Y-126605000D03*
X217512500Y-126105000D03*
X217512500Y-125605000D03*
X217512500Y-125105000D03*
X217512500Y-124605000D03*
X217512500Y-124105000D03*
X217512500Y-123605000D03*
X217512500Y-123105000D03*
X217512500Y-122605000D03*
X217512500Y-122105000D03*
X217512500Y-121605000D03*
X217512500Y-121105000D03*
X217512500Y-120605000D03*
X217512500Y-120105000D03*
X217512500Y-119605000D03*
X217512500Y-119105000D03*
X217512500Y-118605000D03*
X217512500Y-118105000D03*
X217512500Y-117605000D03*
X217512500Y-117105000D03*
X217512500Y-116605000D03*
X217512500Y-116105000D03*
D48*
X215600000Y-114192500D03*
X215100000Y-114192500D03*
X214600000Y-114192500D03*
X214100000Y-114192500D03*
X213600000Y-114192500D03*
X213100000Y-114192500D03*
X212600000Y-114192500D03*
X212100000Y-114192500D03*
X211600000Y-114192500D03*
X211100000Y-114192500D03*
X210600000Y-114192500D03*
X210100000Y-114192500D03*
X209600000Y-114192500D03*
X209100000Y-114192500D03*
X208600000Y-114192500D03*
X208100000Y-114192500D03*
X207600000Y-114192500D03*
X207100000Y-114192500D03*
X206600000Y-114192500D03*
X206100000Y-114192500D03*
X205600000Y-114192500D03*
X205100000Y-114192500D03*
X204600000Y-114192500D03*
X204100000Y-114192500D03*
X203600000Y-114192500D03*
X203100000Y-114192500D03*
X202600000Y-114192500D03*
X202100000Y-114192500D03*
X201600000Y-114192500D03*
X201100000Y-114192500D03*
X200600000Y-114192500D03*
X200100000Y-114192500D03*
X199600000Y-114192500D03*
X199100000Y-114192500D03*
X198600000Y-114192500D03*
X198100000Y-114192500D03*
%TD*%
D31*
%TO.C,R23*%
X234187450Y-109473800D03*
X235837450Y-109473800D03*
%TD*%
D17*
%TO.C,R12*%
X252265000Y-130000000D03*
X250615000Y-130000000D03*
%TD*%
D20*
%TO.C,C21*%
X239828948Y-122523447D03*
X238868948Y-122523447D03*
%TD*%
D18*
%TO.C,J9*%
X214120000Y-148270000D03*
D19*
X216660000Y-148270000D03*
X219200000Y-148270000D03*
X221740000Y-148270000D03*
X224280000Y-148270000D03*
X226820000Y-148270000D03*
X229360000Y-148270000D03*
X231900000Y-148270000D03*
X234440000Y-148270000D03*
X236980000Y-148270000D03*
X239520000Y-148270000D03*
X242060000Y-148270000D03*
X244600000Y-148270000D03*
X247140000Y-148270000D03*
X249680000Y-148270000D03*
X252220000Y-148270000D03*
%TD*%
D49*
%TO.C,Y3*%
X170360000Y-140250000D03*
X168160000Y-140250000D03*
X168160000Y-141950000D03*
X170360000Y-141950000D03*
%TD*%
D20*
%TO.C,C22*%
X244440000Y-123460000D03*
X243480000Y-123460000D03*
%TD*%
D18*
%TO.C,J5*%
X172320000Y-148220000D03*
D19*
X174860000Y-148220000D03*
X177400000Y-148220000D03*
X179940000Y-148220000D03*
X182480000Y-148220000D03*
X185020000Y-148220000D03*
X187560000Y-148220000D03*
X190100000Y-148220000D03*
X192640000Y-148220000D03*
X195180000Y-148220000D03*
X197720000Y-148220000D03*
X200260000Y-148220000D03*
X202800000Y-148220000D03*
X205340000Y-148220000D03*
X207880000Y-148220000D03*
X210420000Y-148220000D03*
%TD*%
D17*
%TO.C,R13*%
X252245000Y-133100000D03*
X250595000Y-133100000D03*
%TD*%
D11*
%TO.C,C8*%
X193194886Y-126940114D03*
X194154886Y-126940114D03*
%TD*%
D40*
%TO.C,C82*%
X165232450Y-133073800D03*
X163332450Y-133073800D03*
%TD*%
D13*
%TO.C,SW2*%
X158710000Y-119769998D03*
X158710000Y-110770000D03*
X163210002Y-119769998D03*
X163210002Y-110770000D03*
%TD*%
D17*
%TO.C,R19*%
X252265000Y-139290000D03*
X250615000Y-139290000D03*
%TD*%
D50*
%TO.C,C20*%
X237568636Y-120815114D03*
X237568636Y-118915114D03*
%TD*%
D20*
%TO.C,C24*%
X233620823Y-117665114D03*
X232660823Y-117665114D03*
%TD*%
D51*
%TO.C,U7*%
X199602500Y-138925000D03*
X199602500Y-140195000D03*
X199602500Y-141465000D03*
X199602500Y-142735000D03*
X206777500Y-142735000D03*
X206777500Y-141465000D03*
X206777500Y-140195000D03*
X206777500Y-138925000D03*
%TD*%
D11*
%TO.C,C18*%
X164814886Y-137098447D03*
X165774886Y-137098447D03*
%TD*%
D52*
%TO.C,L1*%
X237092500Y-117150000D03*
X234967500Y-117150000D03*
%TD*%
D17*
%TO.C,R14*%
X252275000Y-126850000D03*
X250625000Y-126850000D03*
%TD*%
D18*
%TO.C,J6*%
X220120000Y-101480000D03*
D19*
X217580000Y-101480000D03*
X215040000Y-101480000D03*
X212500000Y-101480000D03*
X209960000Y-101480000D03*
X207420000Y-101480000D03*
X204880000Y-101480000D03*
X202340000Y-101480000D03*
X199800000Y-101480000D03*
X197260000Y-101480000D03*
X194720000Y-101480000D03*
X192180000Y-101480000D03*
X189640000Y-101480000D03*
X187100000Y-101480000D03*
X184560000Y-101480000D03*
X182020000Y-101480000D03*
%TD*%
D18*
%TO.C,J3*%
X156870000Y-101490000D03*
D19*
X159410000Y-101490000D03*
X161950000Y-101490000D03*
X164490000Y-101490000D03*
%TD*%
D38*
%TO.C,C12*%
X210600000Y-137060000D03*
X210600000Y-138020000D03*
%TD*%
D11*
%TO.C,C27*%
X208400000Y-138930000D03*
X209360000Y-138930000D03*
%TD*%
D53*
%TO.C,BT1*%
X177770000Y-109920000D03*
D54*
X177770000Y-130410000D03*
%TD*%
M02*
