M48
; DRILL file KiCad 10.0.1 date 2026-06-18T15:04:04
; FORMAT={-:-/ absolute / inch / decimal}
; #@! TF.CreationDate,2026-06-18T15:04:04+02:00
; #@! TF.GenerationSoftware,Kicad,Pcbnew,10.0.1
; #@! TF.FileFunction,Plated,1,4,PTH
FMAT,2
INCH
; #@! TA.AperFunction,Plated,PTH,ViaDrill
T1C0.0100
; #@! TA.AperFunction,Plated,PTH,ViaDrill
T2C0.0100
; #@! TA.AperFunction,Plated,PTH,ComponentDrill
T3C0.0236
; #@! TA.AperFunction,Plated,PTH,ComponentDrill
T4C0.0394
; #@! TA.AperFunction,Plated,PTH,ComponentDrill
T5C0.0591
; #@! TA.AperFunction,Plated,PTH,ComponentDrill
T6C0.1260
%
G90
G05
T1
X9.1551Y-4.5472
X9.1693Y-4.6094
X9.2989Y-4.6713
X9.3799Y-4.6413
X9.3831Y-4.6012
T2
X5.9282Y-3.9435
X5.9282Y-5.3067
X5.9282Y-5.6073
X5.9363Y-4.6391
X6.0089Y-4.9763
X6.0662Y-4.2621
X6.1756Y-5.8052
X6.2005Y-5.3695
X6.2026Y-5.4585
X6.2098Y-4.7213
X6.2293Y-5.6136
X6.2419Y-4.6833
X6.2484Y-4.3291
X6.2692Y-3.9435
X6.2894Y-4.1792
X6.2895Y-4.2051
X6.3968Y-5.2268
X6.4012Y-5.3157
X6.4589Y-4.1834
X6.4628Y-4.3839
X6.4756Y-5.6145
X6.4783Y-5.1551
X6.5034Y-5.4206
X6.513Y-4.7914
X6.5305Y-5.4688
X6.5493Y-4.2201
X6.5561Y-5.8876
X6.5639Y-4.8132
X6.5812Y-5.532
X6.5847Y-4.0473
X6.6045Y-4.7707
X6.6511Y-4.1546
X6.6641Y-5.1079
X6.6991Y-5.6247
X6.7008Y-5.1577
X6.7197Y-4.7256
X6.7272Y-5.6392
X6.7749Y-4.802
X6.797Y-5.0193
X6.8035Y-4.9507
X6.8385Y-4.6841
X6.8491Y-4.8444
X6.8558Y-4.7362
X6.8598Y-4.9438
X6.8705Y-4.9205
X6.8913Y-5.2789
X6.893Y-4.0966
X6.896Y-4.9796
X6.9157Y-4.6607
X6.9405Y-5.5276
X6.9438Y-5.0272
X6.9681Y-5.3928
X6.9899Y-4.8328
X6.991Y-5.8876
X6.9993Y-4.8157
X7.0069Y-4.5348
X7.0288Y-4.6239
X7.0422Y-4.4057
X7.047Y-5.5463
X7.0605Y-4.942
X7.0729Y-5.5543
X7.0872Y-4.9418
X7.088Y-4.9875
X7.1331Y-4.925
X7.1562Y-3.9435
X7.1788Y-5.625
X7.2391Y-4.9016
X7.2531Y-5.3988
X7.2629Y-4.6656
X7.2826Y-5.1664
X7.285Y-5.6409
X7.316Y-5.1622
X7.3243Y-4.2695
X7.3296Y-5.0559
X7.3335Y-5.4588
X7.3584Y-4.3659
X7.3806Y-4.1203
X7.3944Y-4.8447
X7.4203Y-4.2438
X7.4247Y-4.6758
X7.4303Y-5.0626
X7.4562Y-3.9435
X7.461Y-4.3044
X7.4833Y-4.3468
X7.491Y-5.8876
X7.4934Y-4.8771
X7.5061Y-5.216
X7.5111Y-5.1459
X7.5202Y-4.881
X7.522Y-5.2848
X7.5272Y-5.2637
X7.5357Y-4.4434
X7.5357Y-4.7825
X7.5437Y-5.4794
X7.5493Y-5.3029
X7.5629Y-5.2784
X7.5663Y-4.9885
X7.5702Y-5.296
X7.5739Y-5.2222
X7.5804Y-5.1325
X7.5828Y-4.6181
X7.5831Y-4.9469
X7.5932Y-4.4783
X7.6016Y-5.0736
X7.6043Y-4.6913
X7.6076Y-5.2916
X7.6282Y-5.2531
X7.6344Y-5.4136
X7.6373Y-5.0752
X7.6376Y-5.641
X7.6393Y-5.4654
X7.6394Y-5.5185
X7.6421Y-5.2662
X7.6426Y-5.2396
X7.6494Y-5.3037
X7.6658Y-5.2686
X7.6664Y-5.3413
X7.6716Y-5.3052
X7.6719Y-5.167
X7.6733Y-5.1911
X7.6761Y-5.1378
X7.6801Y-4.9622
X7.681Y-5.0647
X7.6811Y-4.9173
X7.6841Y-4.9369
X7.7105Y-5.3018
X7.7562Y-3.9435
X7.7641Y-4.6685
X7.7646Y-4.7014
X7.765Y-5.1065
X7.7659Y-4.1516
X7.7742Y-4.4754
X7.7864Y-5.1291
X7.7889Y-4.5957
X7.7909Y-5.4233
X7.7978Y-5.3755
X7.7985Y-5.0579
X7.8012Y-4.8686
X7.8107Y-4.7899
X7.8144Y-5.6192
X7.8154Y-5.383
X7.827Y-5.0833
X7.8469Y-4.561
X7.8832Y-4.3988
X7.8852Y-5.1497
X7.8943Y-4.8521
X7.8966Y-4.3832
X7.8969Y-5.2683
X7.8979Y-5.2952
X7.9168Y-4.3066
X7.9216Y-4.9076
X7.9217Y-5.4251
X7.9217Y-5.1707
X7.9372Y-5.2944
X7.9417Y-5.8665
X7.9472Y-5.1433
X7.9477Y-4.3996
X7.9482Y-5.1971
X7.9484Y-5.4854
X7.9751Y-4.4033
X7.9756Y-4.6153
X7.9764Y-4.8086
X7.9844Y-5.6548
X7.9857Y-4.83
X7.9861Y-5.5133
X7.9896Y-5.3883
X7.9943Y-5.0912
X7.9953Y-4.8059
X7.996Y-5.5385
X8.0023Y-4.37
X8.005Y-5.375
X8.0151Y-4.4415
X8.0163Y-5.4168
X8.0207Y-4.8741
X8.0283Y-5.402
X8.0288Y-4.4549
X8.0292Y-5.3829
X8.0297Y-4.3996
X8.0338Y-5.2445
X8.0341Y-5.6987
X8.0451Y-4.7072
X8.0493Y-4.7409
X8.0529Y-5.2439
X8.0559Y-4.7229
X8.0562Y-3.9435
X8.0656Y-5.6794
X8.0668Y-4.9093
X8.0695Y-4.701
X8.0732Y-4.7452
X8.0753Y-5.502
X8.0855Y-4.4545
X8.0877Y-4.5675
X8.0926Y-5.7102
X8.093Y-5.2948
X8.1122Y-5.2724
X8.118Y-4.3947
X8.1195Y-5.7071
X8.1197Y-5.0629
X8.12Y-4.4489
X8.1556Y-5.2316
X8.1635Y-5.405
X8.1694Y-5.2949
X8.1736Y-5.4326
X8.1772Y-5.2479
X8.189Y-4.4505
X8.1938Y-4.54
X8.195Y-5.4304
X8.1999Y-5.3767
X8.2022Y-4.4304
X8.2137Y-4.3659
X8.2184Y-4.3932
X8.2233Y-4.4365
X8.2278Y-5.3763
X8.2302Y-4.4543
X8.2358Y-5.6672
X8.2376Y-5.494
X8.2414Y-4.1167
X8.2417Y-5.8665
X8.2473Y-5.2952
X8.2487Y-5.3779
X8.268Y-5.3757
X8.2713Y-4.5374
X8.2819Y-5.522
X8.2859Y-5.5033
X8.2889Y-5.2939
X8.2909Y-4.748
X8.2957Y-5.5497
X8.3157Y-5.4262
X8.3194Y-5.0412
X8.327Y-4.4354
X8.3401Y-5.0696
X8.3509Y-5.3859
X8.351Y-5.1925
X8.3518Y-5.475
X8.3521Y-5.4394
X8.3562Y-3.9435
X8.3616Y-4.1192
X8.3617Y-4.4365
X8.3619Y-4.4556
X8.3722Y-5.0144
X8.3806Y-4.4064
X8.3893Y-5.4456
X8.4001Y-5.0166
X8.4039Y-5.3762
X8.4081Y-5.571
X8.4125Y-5.4035
X8.4133Y-5.1171
X8.4139Y-4.3189
X8.421Y-4.7909
X8.4233Y-4.4329
X8.4254Y-4.9528
X8.4319Y-5.5475
X8.4445Y-5.5231
X8.4448Y-5.459
X8.4541Y-4.8139
X8.4549Y-4.4504
X8.4599Y-4.7499
X8.4661Y-5.2099
X8.4725Y-4.7175
X8.473Y-4.5362
X8.4799Y-4.4149
X8.4859Y-5.0707
X8.4963Y-5.631
X8.5Y-4.9668
X8.5446Y-5.5365
X8.5492Y-5.4314
X8.5579Y-5.5509
X8.6036Y-4.8045
X8.6036Y-4.5833
X8.6037Y-4.8353
X8.6039Y-5.1081
X8.6039Y-4.9963
X8.6044Y-4.8778
X8.6045Y-4.7831
X8.6071Y-4.4949
X8.6092Y-5.3447
X8.61Y-4.932
X8.6106Y-4.9511
X8.6169Y-5.078
X8.6365Y-4.6487
X8.6457Y-5.8876
X8.6544Y-4.7112
X8.6591Y-4.6825
X8.6628Y-4.9055
X8.6691Y-4.535
X8.6726Y-5.0889
X8.6751Y-4.0983
X8.6796Y-4.7537
X8.6869Y-5.5106
X8.688Y-4.9951
X8.6921Y-4.9101
X8.693Y-4.7778
X8.7024Y-4.6146
X8.712Y-4.2953
X8.7228Y-4.4696
X8.7302Y-4.2341
X8.7312Y-4.8324
X8.7711Y-4.9427
X8.7733Y-3.9435
X8.7758Y-4.86
X8.781Y-4.9649
X8.8181Y-4.2364
X8.8413Y-5.5914
X8.8557Y-4.8702
X8.865Y-4.3281
X8.8666Y-5.6012
X8.868Y-5.2298
X8.8895Y-4.8044
X8.8971Y-4.3943
X8.9015Y-4.3224
X8.9023Y-5.54
X8.9249Y-4.4112
X8.9457Y-5.8876
X8.962Y-5.4512
X8.9664Y-4.3722
X8.9736Y-4.3379
X8.9753Y-5.2437
X8.9928Y-4.378
X8.9939Y-5.248
X8.9961Y-5.4666
X8.9986Y-5.7359
X9.0111Y-5.1434
X9.0366Y-5.1981
X9.0623Y-5.4572
X9.0842Y-4.6626
X9.0847Y-5.4309
X9.09Y-5.2878
X9.1515Y-3.9614
X9.1599Y-4.6563
X9.1697Y-5.3807
X9.1773Y-4.8374
X9.2081Y-4.7602
X9.2109Y-5.5028
X9.2197Y-4.8668
X9.2277Y-4.7321
X9.2421Y-4.7087
X9.2457Y-5.8876
X9.2476Y-5.0649
X9.2503Y-5.3293
X9.2542Y-5.4738
X9.2717Y-4.9626
X9.2761Y-4.2793
X9.3114Y-4.643
X9.3329Y-4.3069
X9.3939Y-5.5686
X9.4147Y-4.8485
X9.428Y-4.6535
X9.44Y-5.6206
X9.4583Y-5.2136
X9.4611Y-3.9776
X9.5021Y-5.3087
X9.5161Y-4.8354
X9.5267Y-5.1744
X9.5728Y-4.5679
X9.609Y-4.6071
X9.6229Y-5.3398
X9.6411Y-5.1005
X9.6457Y-5.8876
X9.6468Y-4.8645
X9.6844Y-4.971
X9.719Y-5.3376
X9.7236Y-4.8815
X9.73Y-5.3887
X9.7561Y-3.9678
X9.7566Y-5.5496
X9.8284Y-5.2756
X9.8458Y-4.2655
X9.8674Y-4.5865
X9.9457Y-5.8876
X9.9562Y-5.4504
X9.9646Y-5.5659
X10.0188Y-5.3989
X10.0418Y-5.2779
X10.0515Y-3.9614
X10.3293Y-4.0486
X10.3293Y-4.3493
X10.3293Y-4.6499
X10.3293Y-4.9505
X10.3425Y-5.454
T4
X5.9878Y-4.328
X5.9878Y-4.428
X5.9878Y-4.528
X5.9878Y-4.628
X5.9878Y-4.728
X5.9878Y-4.828
X5.9878Y-4.928
X5.9878Y-5.028
X5.9878Y-5.128
X5.9878Y-5.228
X5.9878Y-5.328
X5.9878Y-5.428
X5.9878Y-5.528
X5.9878Y-5.628
X5.9878Y-5.728
X5.9878Y-5.828
X6.176Y-3.9957
X6.276Y-3.9957
X6.376Y-3.9957
X6.476Y-3.9957
X6.6219Y-3.9963
X6.7219Y-3.9963
X6.7843Y-5.8354
X6.8219Y-3.9963
X6.8843Y-5.8354
X6.9219Y-3.9963
X6.9843Y-5.8354
X7.0219Y-3.9963
X7.0843Y-5.8354
X7.1661Y-3.9953
X7.1843Y-5.8354
X7.2661Y-3.9953
X7.2843Y-5.8354
X7.3661Y-3.9953
X7.3843Y-5.8354
X7.4661Y-3.9953
X7.4843Y-5.8354
X7.5661Y-3.9953
X7.5843Y-5.8354
X7.6661Y-3.9953
X7.6843Y-5.8354
X7.7661Y-3.9953
X7.7843Y-5.8354
X7.8661Y-3.9953
X7.8843Y-5.8354
X7.9661Y-3.9953
X7.9843Y-5.8354
X8.0661Y-3.9953
X8.0843Y-5.8354
X8.1661Y-3.9953
X8.1843Y-5.8354
X8.2661Y-3.9953
X8.2843Y-5.8354
X8.3661Y-3.9953
X8.4299Y-5.8374
X8.4661Y-3.9953
X8.5299Y-5.8374
X8.5661Y-3.9953
X8.6299Y-5.8374
X8.6661Y-3.9953
X8.7299Y-5.8374
X8.8118Y-3.9961
X8.8299Y-5.8374
X8.9118Y-3.9961
X8.9299Y-5.8374
X9.0118Y-3.9961
X9.0299Y-5.8374
X9.1118Y-3.9961
X9.1299Y-5.8374
X9.2118Y-3.9961
X9.2299Y-5.8374
X9.3118Y-3.9961
X9.3299Y-5.8374
X9.4118Y-3.9961
X9.4299Y-5.8374
X9.5118Y-3.9961
X9.5299Y-5.8374
X9.6118Y-3.9961
X9.6299Y-5.8374
X9.7118Y-3.9961
X9.7299Y-5.8374
X9.8118Y-3.9961
X9.8299Y-5.8374
X9.9118Y-3.9961
X9.9299Y-5.8374
X10.0118Y-3.9961
X10.0917Y-5.0884
X10.0917Y-5.1785
X10.0917Y-5.2687
X10.0917Y-5.3589
X10.0917Y-5.449
X10.1118Y-3.9961
X10.1665Y-5.1335
X10.1665Y-5.2236
X10.1665Y-5.3138
X10.1665Y-5.4039
X10.1665Y-5.4941
X10.2118Y-3.9961
X10.2413Y-5.0884
X10.2413Y-5.1785
X10.2413Y-5.2687
X10.2413Y-5.3589
X10.2413Y-5.449
X10.3118Y-3.9961
T5
X6.9988Y-4.3276
X6.9988Y-5.1343
T6
X10.1661Y-4.787
X10.1661Y-5.7713
T3
G00X6.1831Y-5.6689
M15
G01X6.1831Y-5.7122
M16
G05
G00X6.1831Y-5.8433
M15
G01X6.1831Y-5.8669
M16
G05
G00X6.5232Y-5.6689
M15
G01X6.5232Y-5.7122
M16
G05
G00X6.5232Y-5.8433
M15
G01X6.5232Y-5.8669
M16
G05
T4
G00X9.8969Y-4.4508
M15
G01X9.8969Y-4.372
M16
G05
G00X10.1331Y-4.437
M15
G01X10.1331Y-4.3858
M16
G05
G00X10.1429Y-4.2343
M15
G01X10.202Y-4.2343
M16
G05
G00X10.1429Y-4.5886
M15
G01X10.202Y-4.5886
M16
G05
M30
