%TF.GenerationSoftware,KiCad,Pcbnew,10.0.1*%
%TF.CreationDate,2026-06-18T15:04:04+02:00*%
%TF.ProjectId,STM32H743,53544d33-3248-4373-9433-2e6b69636164,rev?*%
%TF.SameCoordinates,Original*%
%TF.FileFunction,Copper,L1,Top*%
%TF.FilePolarity,Positive*%
%FSLAX46Y46*%
G04 Gerber Fmt 4.6, Leading zero omitted, Abs format (unit mm)*
G04 Created by KiCad (PCBNEW 10.0.1) date 2026-06-18 15:04:04*
%MOMM*%
%LPD*%
G01*
G04 APERTURE LIST*
G04 Aperture macros list*
%AMRoundRect*
0 Rectangle with rounded corners*
0 $1 Rounding radius*
0 $2 $3 $4 $5 $6 $7 $8 $9 X,Y pos of 4 corners*
0 Add a 4 corners polygon primitive as box body*
4,1,4,$2,$3,$4,$5,$6,$7,$8,$9,$2,$3,0*
0 Add four circle primitives for the rounded corners*
1,1,$1+$1,$2,$3*
1,1,$1+$1,$4,$5*
1,1,$1+$1,$6,$7*
1,1,$1+$1,$8,$9*
0 Add four rect primitives between the rounded corners*
20,1,$1+$1,$2,$3,$4,$5,0*
20,1,$1+$1,$4,$5,$6,$7,0*
20,1,$1+$1,$6,$7,$8,$9,0*
20,1,$1+$1,$8,$9,$2,$3,0*%
G04 Aperture macros list end*
%TA.AperFunction,SMDPad,CuDef*%
%ADD10RoundRect,0.135000X0.185000X-0.135000X0.185000X0.135000X-0.185000X0.135000X-0.185000X-0.135000X0*%
%TD*%
%TA.AperFunction,SMDPad,CuDef*%
%ADD11RoundRect,0.140000X-0.140000X-0.170000X0.140000X-0.170000X0.140000X0.170000X-0.140000X0.170000X0*%
%TD*%
%TA.AperFunction,SMDPad,CuDef*%
%ADD12RoundRect,0.075000X-0.650000X-0.075000X0.650000X-0.075000X0.650000X0.075000X-0.650000X0.075000X0*%
%TD*%
%TA.AperFunction,SMDPad,CuDef*%
%ADD13R,0.990600X0.990600*%
%TD*%
%TA.AperFunction,SMDPad,CuDef*%
%ADD14RoundRect,0.140000X0.170000X-0.140000X0.170000X0.140000X-0.170000X0.140000X-0.170000X-0.140000X0*%
%TD*%
%TA.AperFunction,SMDPad,CuDef*%
%ADD15RoundRect,0.250000X0.450000X-0.262500X0.450000X0.262500X-0.450000X0.262500X-0.450000X-0.262500X0*%
%TD*%
%TA.AperFunction,SMDPad,CuDef*%
%ADD16RoundRect,0.150000X-0.825000X-0.150000X0.825000X-0.150000X0.825000X0.150000X-0.825000X0.150000X0*%
%TD*%
%TA.AperFunction,SMDPad,CuDef*%
%ADD17RoundRect,0.200000X0.200000X0.275000X-0.200000X0.275000X-0.200000X-0.275000X0.200000X-0.275000X0*%
%TD*%
%TA.AperFunction,ComponentPad*%
%ADD18R,1.700000X1.700000*%
%TD*%
%TA.AperFunction,ComponentPad*%
%ADD19C,1.700000*%
%TD*%
%TA.AperFunction,SMDPad,CuDef*%
%ADD20RoundRect,0.140000X0.140000X0.170000X-0.140000X0.170000X-0.140000X-0.170000X0.140000X-0.170000X0*%
%TD*%
%TA.AperFunction,ComponentPad*%
%ADD21R,1.600000X1.600000*%
%TD*%
%TA.AperFunction,ComponentPad*%
%ADD22C,1.600000*%
%TD*%
%TA.AperFunction,ComponentPad*%
%ADD23C,4.000000*%
%TD*%
%TA.AperFunction,SMDPad,CuDef*%
%ADD24RoundRect,0.250000X0.350000X-0.450000X0.350000X0.450000X-0.350000X0.450000X-0.350000X-0.450000X0*%
%TD*%
%TA.AperFunction,SMDPad,CuDef*%
%ADD25RoundRect,0.150000X-0.150000X-0.575000X0.150000X-0.575000X0.150000X0.575000X-0.150000X0.575000X0*%
%TD*%
%TA.AperFunction,SMDPad,CuDef*%
%ADD26RoundRect,0.075000X-0.075000X-0.650000X0.075000X-0.650000X0.075000X0.650000X-0.075000X0.650000X0*%
%TD*%
%TA.AperFunction,ComponentPad*%
%ADD27O,1.000000X2.100000*%
%TD*%
%TA.AperFunction,ComponentPad*%
%ADD28O,1.000000X1.600000*%
%TD*%
%TA.AperFunction,SMDPad,CuDef*%
%ADD29RoundRect,0.375000X0.625000X0.375000X-0.625000X0.375000X-0.625000X-0.375000X0.625000X-0.375000X0*%
%TD*%
%TA.AperFunction,SMDPad,CuDef*%
%ADD30RoundRect,0.500000X0.500000X1.400000X-0.500000X1.400000X-0.500000X-1.400000X0.500000X-1.400000X0*%
%TD*%
%TA.AperFunction,SMDPad,CuDef*%
%ADD31RoundRect,0.200000X-0.200000X-0.275000X0.200000X-0.275000X0.200000X0.275000X-0.200000X0.275000X0*%
%TD*%
%TA.AperFunction,SMDPad,CuDef*%
%ADD32R,1.500000X0.900000*%
%TD*%
%TA.AperFunction,SMDPad,CuDef*%
%ADD33RoundRect,0.135000X-0.135000X-0.185000X0.135000X-0.185000X0.135000X0.185000X-0.135000X0.185000X0*%
%TD*%
%TA.AperFunction,SMDPad,CuDef*%
%ADD34RoundRect,0.150000X-0.512500X-0.150000X0.512500X-0.150000X0.512500X0.150000X-0.512500X0.150000X0*%
%TD*%
%TA.AperFunction,ComponentPad*%
%ADD35R,2.000000X4.000000*%
%TD*%
%TA.AperFunction,ComponentPad*%
%ADD36O,2.000000X3.300000*%
%TD*%
%TA.AperFunction,ComponentPad*%
%ADD37O,3.500000X2.000000*%
%TD*%
%TA.AperFunction,SMDPad,CuDef*%
%ADD38RoundRect,0.140000X-0.170000X0.140000X-0.170000X-0.140000X0.170000X-0.140000X0.170000X0.140000X0*%
%TD*%
%TA.AperFunction,SMDPad,CuDef*%
%ADD39RoundRect,0.250000X0.600000X-0.400000X0.600000X0.400000X-0.600000X0.400000X-0.600000X-0.400000X0*%
%TD*%
%TA.AperFunction,SMDPad,CuDef*%
%ADD40RoundRect,0.250000X0.250000X0.475000X-0.250000X0.475000X-0.250000X-0.475000X0.250000X-0.475000X0*%
%TD*%
%TA.AperFunction,SMDPad,CuDef*%
%ADD41RoundRect,0.250000X-0.450000X0.262500X-0.450000X-0.262500X0.450000X-0.262500X0.450000X0.262500X0*%
%TD*%
%TA.AperFunction,SMDPad,CuDef*%
%ADD42RoundRect,0.250000X-0.850000X-0.350000X0.850000X-0.350000X0.850000X0.350000X-0.850000X0.350000X0*%
%TD*%
%TA.AperFunction,SMDPad,CuDef*%
%ADD43RoundRect,0.249997X-2.950003X-2.650003X2.950003X-2.650003X2.950003X2.650003X-2.950003X2.650003X0*%
%TD*%
%TA.AperFunction,SMDPad,CuDef*%
%ADD44RoundRect,0.250000X0.325000X0.650000X-0.325000X0.650000X-0.325000X-0.650000X0.325000X-0.650000X0*%
%TD*%
%TA.AperFunction,SMDPad,CuDef*%
%ADD45RoundRect,0.250000X-0.250000X-0.475000X0.250000X-0.475000X0.250000X0.475000X-0.250000X0.475000X0*%
%TD*%
%TA.AperFunction,SMDPad,CuDef*%
%ADD46RoundRect,0.075000X-0.662500X-0.075000X0.662500X-0.075000X0.662500X0.075000X-0.662500X0.075000X0*%
%TD*%
%TA.AperFunction,SMDPad,CuDef*%
%ADD47RoundRect,0.075000X-0.075000X-0.662500X0.075000X-0.662500X0.075000X0.662500X-0.075000X0.662500X0*%
%TD*%
%TA.AperFunction,SMDPad,CuDef*%
%ADD48RoundRect,0.250000X0.450000X0.350000X-0.450000X0.350000X-0.450000X-0.350000X0.450000X-0.350000X0*%
%TD*%
%TA.AperFunction,SMDPad,CuDef*%
%ADD49RoundRect,0.250000X0.475000X-0.250000X0.475000X0.250000X-0.475000X0.250000X-0.475000X-0.250000X0*%
%TD*%
%TA.AperFunction,SMDPad,CuDef*%
%ADD50RoundRect,0.162500X-0.650000X-0.162500X0.650000X-0.162500X0.650000X0.162500X-0.650000X0.162500X0*%
%TD*%
%TA.AperFunction,SMDPad,CuDef*%
%ADD51RoundRect,0.218750X0.218750X0.381250X-0.218750X0.381250X-0.218750X-0.381250X0.218750X-0.381250X0*%
%TD*%
%TA.AperFunction,ComponentPad*%
%ADD52R,3.000000X3.000000*%
%TD*%
%TA.AperFunction,ComponentPad*%
%ADD53C,3.000000*%
%TD*%
%TA.AperFunction,ViaPad*%
%ADD54C,0.406806*%
%TD*%
%TA.AperFunction,ViaPad*%
%ADD55C,0.406400*%
%TD*%
%TA.AperFunction,Conductor*%
%ADD56C,0.076276*%
%TD*%
%TA.AperFunction,Conductor*%
%ADD57C,0.076200*%
%TD*%
%TA.AperFunction,Conductor*%
%ADD58C,0.080010*%
%TD*%
%ADD59C,0.000000*%
G04 APERTURE END LIST*
D10*
%TO.P,R1,1*%
%TO.N,Net-(R1-Pad1)*%
X164800000Y-122410000D03*
%TO.P,R1,2*%
%TO.N,GND*%
X164800000Y-121390000D03*
%TD*%
D11*
%TO.P,C35,1*%
%TO.N,GND*%
X193195000Y-124105000D03*
%TO.P,C35,2*%
%TO.N,+3V3*%
X194155000Y-124105000D03*
%TD*%
D12*
%TO.P,U3,1,ADDR_1*%
%TO.N,GND*%
X158740000Y-106000000D03*
%TO.P,U3,2,ALERT/RDY_2*%
%TO.N,unconnected-(U3-ALERT{slash}RDY-Pad2)*%
X158740000Y-106500000D03*
%TO.P,U3,3,GND_3*%
%TO.N,GND*%
X158740000Y-107000000D03*
%TO.P,U3,4,AIN0_4*%
%TO.N,Net-(J3-Pin_1)*%
X158740000Y-107500000D03*
%TO.P,U3,5,AIN1_5*%
%TO.N,Net-(J3-Pin_2)*%
X158740000Y-108000000D03*
%TO.P,U3,6,AIN2_6*%
%TO.N,Net-(J3-Pin_3)*%
X163040000Y-108000000D03*
%TO.P,U3,7,AIN3_7*%
%TO.N,Net-(J3-Pin_4)*%
X163040000Y-107500000D03*
%TO.P,U3,8,VDD_8*%
%TO.N,+5V*%
X163040000Y-107000000D03*
%TO.P,U3,9,SDA_9*%
%TO.N,/SDA*%
X163040000Y-106500000D03*
%TO.P,U3,10,SCL_10*%
%TO.N,/SCL*%
X163040000Y-106000000D03*
%TD*%
D13*
%TO.P,SW1,A,A_A*%
%TO.N,+3V3*%
X158739999Y-130649999D03*
%TO.P,SW1,B,B_B*%
X158739999Y-121650001D03*
%TO.P,SW1,C,C_C*%
%TO.N,Net-(R1-Pad1)*%
X163240001Y-130649999D03*
%TO.P,SW1,D,D_D*%
%TO.N,Net-(U1-BOOT0)*%
X163240001Y-121650001D03*
%TD*%
D14*
%TO.P,C16,1*%
%TO.N,+3V3*%
X235500000Y-127630000D03*
%TO.P,C16,2*%
%TO.N,GND*%
X235500000Y-126670000D03*
%TD*%
D11*
%TO.P,C13,1*%
%TO.N,+3V3*%
X216550000Y-135650000D03*
%TO.P,C13,2*%
%TO.N,GND*%
X217510000Y-135650000D03*
%TD*%
D15*
%TO.P,R5,1*%
%TO.N,Net-(J1-D--PadA7)*%
X160380000Y-139352500D03*
%TO.P,R5,2*%
%TO.N,D-*%
X160380000Y-137527500D03*
%TD*%
D14*
%TO.P,C3,1*%
%TO.N,GND*%
X216420000Y-138460000D03*
%TO.P,C3,2*%
%TO.N,Net-(C3-Pad2)*%
X216420000Y-137500000D03*
%TD*%
D16*
%TO.P,U8,1,SDA_1*%
%TO.N,/SDA*%
X190350000Y-136540000D03*
%TO.P,U8,2,SCL_2*%
%TO.N,/SCL*%
X190350000Y-137810000D03*
%TO.P,U8,3,O.S._3*%
%TO.N,unconnected-(U8-O.S.-Pad3)*%
X190350000Y-139080000D03*
%TO.P,U8,4,GND_4*%
%TO.N,GND*%
X190350000Y-140350000D03*
%TO.P,U8,5,A2_5*%
X195300000Y-140350000D03*
%TO.P,U8,6,A1_6*%
X195300000Y-139080000D03*
%TO.P,U8,7,A0_7*%
X195300000Y-137810000D03*
%TO.P,U8,8,+Vs_8*%
%TO.N,+5V*%
X195300000Y-136540000D03*
%TD*%
D17*
%TO.P,R16,1*%
%TO.N,Net-(J2-Pad1)*%
X252255000Y-136180000D03*
%TO.P,R16,2*%
%TO.N,Net-(U1-PF0)*%
X250605000Y-136180000D03*
%TD*%
D18*
%TO.P,J7,1,Pin_1_1*%
%TO.N,Net-(J7-Pin_1)*%
X261920000Y-101500000D03*
D19*
%TO.P,J7,2,Pin_2_2*%
%TO.N,Net-(J7-Pin_2)*%
X259380000Y-101500000D03*
%TO.P,J7,3,Pin_3_3*%
%TO.N,Net-(J7-Pin_3)*%
X256840000Y-101500000D03*
%TO.P,J7,4,Pin_4_4*%
%TO.N,Net-(J7-Pin_4)*%
X254300000Y-101500000D03*
%TO.P,J7,5,Pin_5_5*%
%TO.N,Net-(J7-Pin_5)*%
X251760000Y-101500000D03*
%TO.P,J7,6,Pin_6_6*%
%TO.N,Net-(J7-Pin_6)*%
X249220000Y-101500000D03*
%TO.P,J7,7,Pin_7_7*%
%TO.N,Net-(J7-Pin_7)*%
X246680000Y-101500000D03*
%TO.P,J7,8,Pin_8_8*%
%TO.N,Net-(J7-Pin_8)*%
X244140000Y-101500000D03*
%TO.P,J7,9,Pin_9_9*%
%TO.N,Net-(J7-Pin_9)*%
X241600000Y-101500000D03*
%TO.P,J7,10,Pin_10_10*%
%TO.N,Net-(J7-Pin_10)*%
X239060000Y-101500000D03*
%TO.P,J7,11,Pin_11_11*%
%TO.N,Net-(J7-Pin_11)*%
X236520000Y-101500000D03*
%TO.P,J7,12,Pin_12_12*%
%TO.N,Net-(J7-Pin_12)*%
X233980000Y-101500000D03*
%TO.P,J7,13,Pin_13_13*%
%TO.N,Net-(J7-Pin_13)*%
X231440000Y-101500000D03*
%TO.P,J7,14,Pin_14_14*%
%TO.N,Net-(J7-Pin_14)*%
X228900000Y-101500000D03*
%TO.P,J7,15,Pin_15_15*%
%TO.N,Net-(J7-Pin_15)*%
X226360000Y-101500000D03*
%TO.P,J7,16,Pin_16_16*%
%TO.N,Net-(J7-Pin_16)*%
X223820000Y-101500000D03*
%TD*%
D11*
%TO.P,C7,1*%
%TO.N,GND*%
X193194886Y-128265114D03*
%TO.P,C7,2*%
%TO.N,/NRST*%
X194154886Y-128265114D03*
%TD*%
D20*
%TO.P,C15,1*%
%TO.N,Net-(BT1-+)*%
X194154886Y-118548447D03*
%TO.P,C15,2*%
%TO.N,GND*%
X193194886Y-118548447D03*
%TD*%
D21*
%TO.P,J2,1*%
%TO.N,Net-(J2-Pad1)*%
X256330000Y-138405000D03*
D22*
%TO.P,J2,2*%
%TO.N,Net-(J2-Pad2)*%
X256330000Y-136115000D03*
%TO.P,J2,3*%
%TO.N,Net-(J2-Pad3)*%
X256330000Y-133825000D03*
%TO.P,J2,4*%
%TO.N,unconnected-(J2-Pad4)*%
X256330000Y-131535000D03*
%TO.P,J2,5*%
%TO.N,GND*%
X256330000Y-129245000D03*
%TO.P,J2,6*%
X258230000Y-139550000D03*
%TO.P,J2,7*%
X258230000Y-137260000D03*
%TO.P,J2,8*%
X258230000Y-134970000D03*
%TO.P,J2,9*%
%TO.N,unconnected-(J2-Pad9)*%
X258230000Y-132680000D03*
%TO.P,J2,10*%
%TO.N,unconnected-(J2-Pad10)*%
X258230000Y-130390000D03*
%TO.P,J2,11*%
%TO.N,unconnected-(J2-Pad11)*%
X260130000Y-138405000D03*
%TO.P,J2,12*%
%TO.N,unconnected-(J2-Pad12)*%
X260130000Y-136115000D03*
%TO.P,J2,13*%
%TO.N,Net-(J2-Pad13)*%
X260130000Y-133825000D03*
%TO.P,J2,14*%
%TO.N,Net-(J2-Pad14)*%
X260130000Y-131535000D03*
%TO.P,J2,15*%
%TO.N,unconnected-(J2-Pad15)*%
X260130000Y-129245000D03*
D23*
%TO.P,J2,SH*%
%TO.N,N/C*%
X258220000Y-146590000D03*
X258220000Y-121590000D03*
%TD*%
D20*
%TO.P,C14,1*%
%TO.N,Net-(BT1-+)*%
X194154886Y-117223447D03*
%TO.P,C14,2*%
%TO.N,GND*%
X193194886Y-117223447D03*
%TD*%
D14*
%TO.P,C30,1*%
%TO.N,+3V3*%
X204620000Y-112710000D03*
%TO.P,C30,2*%
%TO.N,GND*%
X204620000Y-111750000D03*
%TD*%
D17*
%TO.P,R15,1*%
%TO.N,Net-(J2-Pad3)*%
X252255362Y-142369533D03*
%TO.P,R15,2*%
%TO.N,Net-(U1-PF9)*%
X250605362Y-142369533D03*
%TD*%
D24*
%TO.P,Y1,1,1_1*%
%TO.N,Net-(U1-PH1)*%
X191320000Y-128770000D03*
%TO.P,Y1,2,G_2*%
%TO.N,GND*%
X191320000Y-126570000D03*
%TO.P,Y1,3,3_3*%
%TO.N,Net-(U1-PH0)*%
X189620000Y-126570000D03*
%TO.P,Y1,4,G_4*%
%TO.N,GND*%
X189620000Y-128770000D03*
%TD*%
D17*
%TO.P,R20,1*%
%TO.N,Net-(J2-Pad14)*%
X252265000Y-122200000D03*
%TO.P,R20,2*%
%TO.N,Net-(U1-PF13)*%
X250615000Y-122200000D03*
%TD*%
D14*
%TO.P,C10,1*%
%TO.N,+3V3*%
X217860000Y-115080000D03*
%TO.P,C10,2*%
%TO.N,GND*%
X217860000Y-114120000D03*
%TD*%
D10*
%TO.P,R2,1*%
%TO.N,Net-(R2-Pad1)*%
X164760000Y-120160000D03*
%TO.P,R2,2*%
%TO.N,+3V3*%
X164760000Y-119140000D03*
%TD*%
D17*
%TO.P,R11,1*%
%TO.N,Net-(J2-Pad3)*%
X252275362Y-140819533D03*
%TO.P,R11,2*%
%TO.N,Net-(U1-PF11)*%
X250625362Y-140819533D03*
%TD*%
%TO.P,R17,1*%
%TO.N,Net-(J2-Pad2)*%
X252265000Y-128420000D03*
%TO.P,R17,2*%
%TO.N,Net-(U1-PF4)*%
X250615000Y-128420000D03*
%TD*%
D25*
%TO.P,J1,A1,GND_A1*%
%TO.N,GND*%
X158120000Y-143625000D03*
%TO.P,J1,A4,VBUS_A4*%
%TO.N,+5V*%
X158920000Y-143625000D03*
D26*
%TO.P,J1,A5,CC1_A5*%
%TO.N,Net-(J1-CC1)*%
X160120000Y-143625000D03*
%TO.P,J1,A6,D+_A6*%
%TO.N,Net-(J1-D+-PadA6)*%
X161120000Y-143625000D03*
%TO.P,J1,A7,D-_A7*%
%TO.N,Net-(J1-D--PadA7)*%
X161620000Y-143625000D03*
%TO.P,J1,A8,SBU1_A8*%
%TO.N,unconnected-(J1-SBU1-PadA8)*%
X162620000Y-143625000D03*
D25*
%TO.P,J1,A9,VBUS_A9*%
%TO.N,+5V*%
X163820000Y-143625000D03*
%TO.P,J1,A12,GND_A12*%
%TO.N,GND*%
X164620000Y-143625000D03*
%TO.P,J1,B1,GND_B1*%
X164620000Y-143625000D03*
%TO.P,J1,B4,VBUS_B4*%
%TO.N,+5V*%
X163820000Y-143625000D03*
D26*
%TO.P,J1,B5,CC2_B5*%
%TO.N,Net-(J1-CC2)*%
X163120000Y-143625000D03*
%TO.P,J1,B6,D+_B6*%
%TO.N,Net-(J1-D+-PadA6)*%
X162120000Y-143625000D03*
%TO.P,J1,B7,D-_B7*%
%TO.N,Net-(J1-D--PadA7)*%
X160620000Y-143625000D03*
%TO.P,J1,B8,SBU2_B8*%
%TO.N,unconnected-(J1-SBU2-PadB8)*%
X159620000Y-143625000D03*
D25*
%TO.P,J1,B9,VBUS_B9*%
%TO.N,+5V*%
X158920000Y-143625000D03*
%TO.P,J1,B12,GND_B12*%
%TO.N,GND*%
X158120000Y-143625000D03*
D27*
%TO.P,J1,SH*%
%TO.N,N/C*%
X157050000Y-144540000D03*
D28*
X157050000Y-148720000D03*
D27*
X165690000Y-144540000D03*
D28*
X165690000Y-148720000D03*
%TD*%
D29*
%TO.P,U2,1,GND_1*%
%TO.N,GND*%
X243600000Y-129910000D03*
%TO.P,U2,2,VO_2*%
%TO.N,+3V3*%
X243600000Y-127610000D03*
D30*
X237300000Y-127610000D03*
D29*
%TO.P,U2,3,VI_3*%
%TO.N,+5V*%
X243600000Y-125310000D03*
%TD*%
D31*
%TO.P,R25,1*%
%TO.N,Net-(U5-FB)*%
X241725888Y-116982133D03*
%TO.P,R25,2*%
%TO.N,GND*%
X243375888Y-116982133D03*
%TD*%
D32*
%TO.P,U11,1,VDD_1*%
%TO.N,+5V*%
X177752500Y-121500000D03*
%TO.P,U11,2,DOUT_2*%
%TO.N,Net-(U11-DOUT)*%
X177752500Y-124800000D03*
%TO.P,U11,3,VSS_3*%
%TO.N,GND*%
X182652500Y-124800000D03*
%TO.P,U11,4,DIN_4*%
%TO.N,Net-(U10-DOUT)*%
X182652500Y-121500000D03*
%TD*%
D31*
%TO.P,R9,1*%
%TO.N,Net-(J2-Pad1)*%
X250615000Y-137740000D03*
%TO.P,R9,2*%
%TO.N,Net-(U1-PF2)*%
X252265000Y-137740000D03*
%TD*%
D20*
%TO.P,C25,1*%
%TO.N,Net-(U1-VDDA)*%
X194154886Y-132240114D03*
%TO.P,C25,2*%
%TO.N,GND*%
X193194886Y-132240114D03*
%TD*%
D11*
%TO.P,C23,1*%
%TO.N,GND*%
X233104261Y-122081781D03*
%TO.P,C23,2*%
%TO.N,+5V*%
X234064261Y-122081781D03*
%TD*%
D18*
%TO.P,J8,1,Pin_1_1*%
%TO.N,Net-(J8-Pin_1)*%
X152090000Y-109930000D03*
D19*
%TO.P,J8,2,Pin_2_2*%
%TO.N,Net-(J8-Pin_2)*%
X152090000Y-112470000D03*
%TO.P,J8,3,Pin_3_3*%
%TO.N,Net-(J8-Pin_3)*%
X152090000Y-115010000D03*
%TO.P,J8,4,Pin_4_4*%
%TO.N,Net-(J8-Pin_4)*%
X152090000Y-117550000D03*
%TO.P,J8,5,Pin_5_5*%
%TO.N,Net-(J8-Pin_5)*%
X152090000Y-120090000D03*
%TO.P,J8,6,Pin_6_6*%
%TO.N,Net-(J8-Pin_6)*%
X152090000Y-122630000D03*
%TO.P,J8,7,Pin_7_7*%
%TO.N,Net-(J8-Pin_7)*%
X152090000Y-125170000D03*
%TO.P,J8,8,Pin_8_8*%
%TO.N,Net-(J8-Pin_8)*%
X152090000Y-127710000D03*
%TO.P,J8,9,Pin_9_9*%
%TO.N,Net-(J8-Pin_9)*%
X152090000Y-130250000D03*
%TO.P,J8,10,Pin_10_10*%
%TO.N,Net-(J8-Pin_10)*%
X152090000Y-132790000D03*
%TO.P,J8,11,Pin_11_11*%
%TO.N,Net-(J8-Pin_11)*%
X152090000Y-135330000D03*
%TO.P,J8,12,Pin_12_12*%
%TO.N,Net-(J8-Pin_12)*%
X152090000Y-137870000D03*
%TO.P,J8,13,Pin_13_13*%
%TO.N,Net-(J8-Pin_13)*%
X152090000Y-140410000D03*
%TO.P,J8,14,Pin_14_14*%
%TO.N,Net-(J8-Pin_14)*%
X152090000Y-142950000D03*
%TO.P,J8,15,Pin_15_15*%
%TO.N,Net-(J8-Pin_15)*%
X152090000Y-145490000D03*
%TO.P,J8,16,Pin_16_16*%
%TO.N,Net-(J8-Pin_16)*%
X152090000Y-148030000D03*
%TD*%
D32*
%TO.P,U12,1,VDD_1*%
%TO.N,+5V*%
X170712500Y-121540000D03*
%TO.P,U12,2,DOUT_2*%
%TO.N,unconnected-(U12-DOUT-Pad2)*%
X170712500Y-124840000D03*
%TO.P,U12,3,VSS_3*%
%TO.N,GND*%
X175612500Y-124840000D03*
%TO.P,U12,4,DIN_4*%
%TO.N,Net-(U11-DOUT)*%
X175612500Y-121540000D03*
%TD*%
D11*
%TO.P,C9,1*%
%TO.N,GND*%
X193194886Y-125615114D03*
%TO.P,C9,2*%
%TO.N,Net-(U1-PH1)*%
X194154886Y-125615114D03*
%TD*%
%TO.P,C32,1*%
%TO.N,+3V3*%
X199110000Y-137410000D03*
%TO.P,C32,2*%
%TO.N,GND*%
X200070000Y-137410000D03*
%TD*%
D33*
%TO.P,R21,1*%
%TO.N,+3V3*%
X189470000Y-134960000D03*
%TO.P,R21,2*%
%TO.N,/SCL*%
X190490000Y-134960000D03*
%TD*%
D20*
%TO.P,C6,1*%
%TO.N,GND*%
X220317698Y-115898447D03*
%TO.P,C6,2*%
%TO.N,Net-(C5-Pad2)*%
X219357698Y-115898447D03*
%TD*%
D34*
%TO.P,U5,1,GND_1*%
%TO.N,GND*%
X239532500Y-118860000D03*
%TO.P,U5,2,SW_2*%
%TO.N,Net-(U5-SW)*%
X239532500Y-119810000D03*
%TO.P,U5,3,VIN_3*%
%TO.N,VCC*%
X239532500Y-120760000D03*
%TO.P,U5,4,FB_4*%
%TO.N,Net-(U5-FB)*%
X241807500Y-120760000D03*
%TO.P,U5,5,EN_5*%
%TO.N,unconnected-(U5-EN-Pad5)*%
X241807500Y-119810000D03*
%TO.P,U5,6,BOOT_6*%
%TO.N,Net-(U5-BOOT)*%
X241807500Y-118860000D03*
%TD*%
D35*
%TO.P,J4,1*%
%TO.N,Net-(Q2-D)*%
X251380000Y-112050000D03*
D36*
%TO.P,J4,2*%
%TO.N,GND*%
X257380000Y-112050000D03*
D37*
%TO.P,J4,MP*%
%TO.N,N/C*%
X258380000Y-116550000D03*
X258380000Y-107550000D03*
%TD*%
D15*
%TO.P,R6,1*%
%TO.N,Net-(J1-D+-PadA6)*%
X162440000Y-139375000D03*
%TO.P,R6,2*%
%TO.N,D+*%
X162440000Y-137550000D03*
%TD*%
D20*
%TO.P,C19,1*%
%TO.N,GND*%
X165774886Y-107065114D03*
%TO.P,C19,2*%
%TO.N,+5V*%
X164814886Y-107065114D03*
%TD*%
D11*
%TO.P,C34,1*%
%TO.N,GND*%
X193205000Y-129895000D03*
%TO.P,C34,2*%
%TO.N,+3V3*%
X194165000Y-129895000D03*
%TD*%
D14*
%TO.P,C31,1*%
%TO.N,+3V3*%
X198620000Y-112700000D03*
%TO.P,C31,2*%
%TO.N,GND*%
X198620000Y-111740000D03*
%TD*%
%TO.P,C11,1*%
%TO.N,+3V3*%
X209600000Y-112710000D03*
%TO.P,C11,2*%
%TO.N,GND*%
X209600000Y-111750000D03*
%TD*%
D38*
%TO.P,C17,1*%
%TO.N,+5V*%
X245390000Y-125310000D03*
%TO.P,C17,2*%
%TO.N,GND*%
X245390000Y-126270000D03*
%TD*%
D11*
%TO.P,C33,1*%
%TO.N,+3V3*%
X205590000Y-137410000D03*
%TO.P,C33,2*%
%TO.N,GND*%
X206550000Y-137410000D03*
%TD*%
D18*
%TO.P,J10,1,Pin_1_1*%
%TO.N,Net-(J10-Pin_1)*%
X168195000Y-101505000D03*
D19*
%TO.P,J10,2,Pin_2_2*%
%TO.N,Net-(J10-Pin_2)*%
X170735000Y-101505000D03*
%TO.P,J10,3,Pin_3_3*%
%TO.N,/NRST*%
X173275000Y-101505000D03*
%TO.P,J10,4,Pin_4_4*%
%TO.N,+3V3*%
X175815000Y-101505000D03*
%TO.P,J10,5,Pin_5_5*%
%TO.N,GND*%
X178355000Y-101505000D03*
%TD*%
D17*
%TO.P,R8,1*%
%TO.N,Net-(J2-Pad2)*%
X252285000Y-123770000D03*
%TO.P,R8,2*%
%TO.N,Net-(U1-PF7)*%
X250635000Y-123770000D03*
%TD*%
D33*
%TO.P,R22,1*%
%TO.N,+3V3*%
X189460000Y-133880000D03*
%TO.P,R22,2*%
%TO.N,/SDA*%
X190480000Y-133880000D03*
%TD*%
D39*
%TO.P,D1,1,K_1*%
%TO.N,VCC*%
X234696407Y-114981605D03*
%TO.P,D1,2,A_2*%
%TO.N,Net-(D1-A)*%
X234696407Y-111481605D03*
%TD*%
D20*
%TO.P,C26,1*%
%TO.N,Net-(U1-VDDA)*%
X194154886Y-130915114D03*
%TO.P,C26,2*%
%TO.N,GND*%
X193194886Y-130915114D03*
%TD*%
D16*
%TO.P,U6,1,GND_1*%
%TO.N,GND*%
X168010000Y-129640000D03*
%TO.P,U6,2,TXD_2*%
%TO.N,/RX*%
X168010000Y-130910000D03*
%TO.P,U6,3,RXD_3*%
%TO.N,/TX*%
X168010000Y-132180000D03*
%TO.P,U6,4,V3_4*%
%TO.N,+3V3*%
X168010000Y-133450000D03*
%TO.P,U6,5,UD+_5*%
%TO.N,D+*%
X168010000Y-134720000D03*
%TO.P,U6,6,UD-_6*%
%TO.N,D-*%
X168010000Y-135990000D03*
%TO.P,U6,7,XI_7*%
%TO.N,Net-(U6-XI)*%
X168010000Y-137260000D03*
%TO.P,U6,8,XO_8*%
%TO.N,Net-(U6-XO)*%
X168010000Y-138530000D03*
%TO.P,U6,9,~{CTS}_9*%
%TO.N,unconnected-(U6-~{CTS}-Pad9)*%
X172960000Y-138530000D03*
%TO.P,U6,10,~{DSR}_10*%
%TO.N,unconnected-(U6-~{DSR}-Pad10)*%
X172960000Y-137260000D03*
%TO.P,U6,11,~{RI}_11*%
%TO.N,unconnected-(U6-~{RI}-Pad11)*%
X172960000Y-135990000D03*
%TO.P,U6,12,~{DCD}_12*%
%TO.N,unconnected-(U6-~{DCD}-Pad12)*%
X172960000Y-134720000D03*
%TO.P,U6,13,~{DTR}_13*%
%TO.N,unconnected-(U6-~{DTR}-Pad13)*%
X172960000Y-133450000D03*
%TO.P,U6,14,~{RTS}_14*%
%TO.N,unconnected-(U6-~{RTS}-Pad14)*%
X172960000Y-132180000D03*
%TO.P,U6,15,R232_15*%
%TO.N,unconnected-(U6-R232-Pad15)*%
X172960000Y-130910000D03*
%TO.P,U6,16,VCC_16*%
%TO.N,+3V3*%
X172960000Y-129640000D03*
%TD*%
D40*
%TO.P,C79,1*%
%TO.N,GND*%
X175530000Y-127940000D03*
%TO.P,C79,2*%
%TO.N,+3V3*%
X173630000Y-127940000D03*
%TD*%
D14*
%TO.P,C4,1*%
%TO.N,GND*%
X215396761Y-138453447D03*
%TO.P,C4,2*%
%TO.N,Net-(C3-Pad2)*%
X215396761Y-137493447D03*
%TD*%
D31*
%TO.P,FB1,1*%
%TO.N,+3V3*%
X190325000Y-131560000D03*
%TO.P,FB1,2*%
%TO.N,Net-(U1-VDDA)*%
X191975000Y-131560000D03*
%TD*%
D41*
%TO.P,R3,1*%
%TO.N,GND*%
X157000000Y-139737500D03*
%TO.P,R3,2*%
%TO.N,Net-(J1-CC1)*%
X157000000Y-141562500D03*
%TD*%
D42*
%TO.P,Q2,1,G_1*%
%TO.N,Net-(D1-A)*%
X239430000Y-109802500D03*
D43*
%TO.P,Q2,2,D_2*%
%TO.N,Net-(Q2-D)*%
X245730000Y-112082500D03*
D42*
%TO.P,Q2,3,S_3*%
%TO.N,VCC*%
X239430000Y-114362500D03*
%TD*%
D17*
%TO.P,R7,1*%
%TO.N,Net-(J2-Pad1)*%
X252245000Y-134650000D03*
%TO.P,R7,2*%
%TO.N,Net-(U1-PF3)*%
X250595000Y-134650000D03*
%TD*%
D32*
%TO.P,U9,1,VDD_1*%
%TO.N,+5V*%
X170680000Y-115930000D03*
%TO.P,U9,2,DOUT_2*%
%TO.N,Net-(U10-DIN)*%
X170680000Y-119230000D03*
%TO.P,U9,3,VSS_3*%
%TO.N,GND*%
X175580000Y-119230000D03*
%TO.P,U9,4,DIN_4*%
%TO.N,/LED_DIN*%
X175580000Y-115930000D03*
%TD*%
D31*
%TO.P,R24,1*%
%TO.N,+5V*%
X235515000Y-122380000D03*
%TO.P,R24,2*%
%TO.N,Net-(U5-FB)*%
X237165000Y-122380000D03*
%TD*%
D44*
%TO.P,C28,1*%
%TO.N,GND*%
X235685000Y-120090000D03*
%TO.P,C28,2*%
%TO.N,+5V*%
X232735000Y-120090000D03*
%TD*%
D20*
%TO.P,C5,1*%
%TO.N,GND*%
X220317698Y-117223447D03*
%TO.P,C5,2*%
%TO.N,Net-(C5-Pad2)*%
X219357698Y-117223447D03*
%TD*%
D32*
%TO.P,U10,1,VDD_1*%
%TO.N,+5V*%
X182622500Y-119230000D03*
%TO.P,U10,2,DOUT_2*%
%TO.N,Net-(U10-DOUT)*%
X182622500Y-115930000D03*
%TO.P,U10,3,VSS_3*%
%TO.N,GND*%
X177722500Y-115930000D03*
%TO.P,U10,4,DIN_4*%
%TO.N,Net-(U10-DIN)*%
X177722500Y-119230000D03*
%TD*%
D17*
%TO.P,R10,1*%
%TO.N,Net-(J2-Pad2)*%
X252275000Y-125300000D03*
%TO.P,R10,2*%
%TO.N,Net-(U1-PF6)*%
X250625000Y-125300000D03*
%TD*%
D15*
%TO.P,R4,1*%
%TO.N,Net-(J1-CC2)*%
X165750000Y-141562500D03*
%TO.P,R4,2*%
%TO.N,GND*%
X165750000Y-139737500D03*
%TD*%
D11*
%TO.P,C29,1*%
%TO.N,+3V3*%
X219010000Y-128100000D03*
%TO.P,C29,2*%
%TO.N,GND*%
X219970000Y-128100000D03*
%TD*%
D45*
%TO.P,C59,1*%
%TO.N,GND*%
X163332450Y-135282133D03*
%TO.P,C59,2*%
%TO.N,Net-(U6-XO)*%
X165232450Y-135282133D03*
%TD*%
D17*
%TO.P,R18,1*%
%TO.N,Net-(J2-Pad3)*%
X252255000Y-131550000D03*
%TO.P,R18,2*%
%TO.N,Net-(U1-PF8)*%
X250605000Y-131550000D03*
%TD*%
D46*
%TO.P,U1,1,PE2_1*%
%TO.N,Net-(J8-Pin_3)*%
X196187500Y-116105000D03*
%TO.P,U1,2,PE3_2*%
%TO.N,Net-(J8-Pin_4)*%
X196187500Y-116605000D03*
%TO.P,U1,3,PE4_3*%
%TO.N,Net-(J8-Pin_5)*%
X196187500Y-117105000D03*
%TO.P,U1,4,PE5_4*%
%TO.N,Net-(J8-Pin_6)*%
X196187500Y-117605000D03*
%TO.P,U1,5,PE6_5*%
%TO.N,Net-(J8-Pin_7)*%
X196187500Y-118105000D03*
%TO.P,U1,6,VBAT_6*%
%TO.N,Net-(BT1-+)*%
X196187500Y-118605000D03*
%TO.P,U1,7,PC13_7*%
%TO.N,Net-(J5-Pin_14)*%
X196187500Y-119105000D03*
%TO.P,U1,8,PC14_8*%
%TO.N,Net-(J5-Pin_15)*%
X196187500Y-119605000D03*
%TO.P,U1,9,PC15_9*%
%TO.N,Net-(J5-Pin_16)*%
X196187500Y-120105000D03*
%TO.P,U1,10,PF0_10*%
%TO.N,Net-(U1-PF0)*%
X196187500Y-120605000D03*
%TO.P,U1,11,PF1_11*%
%TO.N,Net-(U1-PF1)*%
X196187500Y-121105000D03*
%TO.P,U1,12,PF2_12*%
%TO.N,Net-(U1-PF2)*%
X196187500Y-121605000D03*
%TO.P,U1,13,PF3_13*%
%TO.N,Net-(U1-PF3)*%
X196187500Y-122105000D03*
%TO.P,U1,14,PF4_14*%
%TO.N,Net-(U1-PF4)*%
X196187500Y-122605000D03*
%TO.P,U1,15,PF5_15*%
%TO.N,Net-(U1-PF5)*%
X196187500Y-123105000D03*
%TO.P,U1,16,VSS_16*%
%TO.N,GND*%
X196187500Y-123605000D03*
%TO.P,U1,17,VDD_17*%
%TO.N,+3V3*%
X196187500Y-124105000D03*
%TO.P,U1,18,PF6_18*%
%TO.N,Net-(U1-PF6)*%
X196187500Y-124605000D03*
%TO.P,U1,19,PF7_19*%
%TO.N,Net-(U1-PF7)*%
X196187500Y-125105000D03*
%TO.P,U1,20,PF8_20*%
%TO.N,Net-(U1-PF8)*%
X196187500Y-125605000D03*
%TO.P,U1,21,PF9_21*%
%TO.N,Net-(U1-PF9)*%
X196187500Y-126105000D03*
%TO.P,U1,22,PF10_22*%
%TO.N,Net-(U1-PF10)*%
X196187500Y-126605000D03*
%TO.P,U1,23,PH0_23*%
%TO.N,Net-(U1-PH0)*%
X196187500Y-127105000D03*
%TO.P,U1,24,PH1_24*%
%TO.N,Net-(U1-PH1)*%
X196187500Y-127605000D03*
%TO.P,U1,25,NRST_25*%
%TO.N,/NRST*%
X196187500Y-128105000D03*
%TO.P,U1,26,PC0_26*%
%TO.N,Net-(J5-Pin_1)*%
X196187500Y-128605000D03*
%TO.P,U1,27,PC1_27*%
%TO.N,Net-(J5-Pin_2)*%
X196187500Y-129105000D03*
%TO.P,U1,28,PC2_C_28*%
%TO.N,Net-(J5-Pin_3)*%
X196187500Y-129605000D03*
%TO.P,U1,29,PC3_C_29*%
%TO.N,Net-(J5-Pin_4)*%
X196187500Y-130105000D03*
%TO.P,U1,30,VDD_30*%
%TO.N,+3V3*%
X196187500Y-130605000D03*
%TO.P,U1,31,VSSA_31*%
%TO.N,GND*%
X196187500Y-131105000D03*
%TO.P,U1,32,VREF+_32*%
%TO.N,+3V3*%
X196187500Y-131605000D03*
%TO.P,U1,33,VDDA_33*%
%TO.N,Net-(U1-VDDA)*%
X196187500Y-132105000D03*
%TO.P,U1,34,PA0_34*%
%TO.N,/SCL*%
X196187500Y-132605000D03*
%TO.P,U1,35,PA1_35*%
%TO.N,/SDA*%
X196187500Y-133105000D03*
%TO.P,U1,36,PA2_36*%
%TO.N,/LED_DIN*%
X196187500Y-133605000D03*
D47*
%TO.P,U1,37,PA3_37*%
%TO.N,unconnected-(U1-PA3-Pad37)*%
X198100000Y-135517500D03*
%TO.P,U1,38,VSS_38*%
%TO.N,GND*%
X198600000Y-135517500D03*
%TO.P,U1,39,VDD_39*%
%TO.N,+3V3*%
X199100000Y-135517500D03*
%TO.P,U1,40,PA4_40*%
%TO.N,Net-(U1-PA4)*%
X199600000Y-135517500D03*
%TO.P,U1,41,PA5_41*%
%TO.N,Net-(U1-PA5)*%
X200100000Y-135517500D03*
%TO.P,U1,42,PA6_42*%
%TO.N,Net-(U1-PA6)*%
X200600000Y-135517500D03*
%TO.P,U1,43,PA7_43*%
%TO.N,Net-(U1-PA7)*%
X201100000Y-135517500D03*
%TO.P,U1,44,PC4_44*%
%TO.N,Net-(J5-Pin_5)*%
X201600000Y-135517500D03*
%TO.P,U1,45,PC5_45*%
%TO.N,Net-(J5-Pin_6)*%
X202100000Y-135517500D03*
%TO.P,U1,46,PB0_46*%
%TO.N,Net-(J6-Pin_1)*%
X202600000Y-135517500D03*
%TO.P,U1,47,PB1_47*%
%TO.N,Net-(J6-Pin_2)*%
X203100000Y-135517500D03*
%TO.P,U1,48,PB2_48*%
%TO.N,Net-(J6-Pin_3)*%
X203600000Y-135517500D03*
%TO.P,U1,49,PF11_49*%
%TO.N,Net-(U1-PF11)*%
X204100000Y-135517500D03*
%TO.P,U1,50,PF12_50*%
%TO.N,Net-(U1-PF12)*%
X204600000Y-135517500D03*
%TO.P,U1,51,VSS_51*%
%TO.N,GND*%
X205100000Y-135517500D03*
%TO.P,U1,52,VDD_52*%
%TO.N,+3V3*%
X205600000Y-135517500D03*
%TO.P,U1,53,PF13_53*%
%TO.N,Net-(U1-PF13)*%
X206100000Y-135517500D03*
%TO.P,U1,54,PF14_54*%
%TO.N,unconnected-(U1-PF14-Pad54)*%
X206600000Y-135517500D03*
%TO.P,U1,55,PF15_55*%
%TO.N,unconnected-(U1-PF15-Pad55)*%
X207100000Y-135517500D03*
%TO.P,U1,56,PG0_56*%
%TO.N,Net-(J9-Pin_1)*%
X207600000Y-135517500D03*
%TO.P,U1,57,PG1_57*%
%TO.N,Net-(J9-Pin_2)*%
X208100000Y-135517500D03*
%TO.P,U1,58,PE7_58*%
%TO.N,Net-(J8-Pin_8)*%
X208600000Y-135517500D03*
%TO.P,U1,59,PE8_59*%
%TO.N,Net-(J8-Pin_9)*%
X209100000Y-135517500D03*
%TO.P,U1,60,PE9_60*%
%TO.N,Net-(J8-Pin_10)*%
X209600000Y-135517500D03*
%TO.P,U1,61,VSS_61*%
%TO.N,GND*%
X210100000Y-135517500D03*
%TO.P,U1,62,VDD_62*%
%TO.N,+3V3*%
X210600000Y-135517500D03*
%TO.P,U1,63,PE10_63*%
%TO.N,Net-(J8-Pin_11)*%
X211100000Y-135517500D03*
%TO.P,U1,64,PE11_64*%
%TO.N,Net-(J8-Pin_12)*%
X211600000Y-135517500D03*
%TO.P,U1,65,PE12_65*%
%TO.N,Net-(J8-Pin_13)*%
X212100000Y-135517500D03*
%TO.P,U1,66,PE13_66*%
%TO.N,Net-(J8-Pin_14)*%
X212600000Y-135517500D03*
%TO.P,U1,67,PE14_67*%
%TO.N,Net-(J8-Pin_15)*%
X213100000Y-135517500D03*
%TO.P,U1,68,PE15_68*%
%TO.N,Net-(J8-Pin_16)*%
X213600000Y-135517500D03*
%TO.P,U1,69,PB10_69*%
%TO.N,Net-(J6-Pin_11)*%
X214100000Y-135517500D03*
%TO.P,U1,70,PB11_70*%
%TO.N,Net-(J6-Pin_12)*%
X214600000Y-135517500D03*
%TO.P,U1,71,VCAP_71*%
%TO.N,Net-(C3-Pad2)*%
X215100000Y-135517500D03*
%TO.P,U1,72,VDD_72*%
%TO.N,+3V3*%
X215600000Y-135517500D03*
D46*
%TO.P,U1,73,PB12_73*%
%TO.N,Net-(J6-Pin_13)*%
X217512500Y-133605000D03*
%TO.P,U1,74,PB13_74*%
%TO.N,Net-(J6-Pin_14)*%
X217512500Y-133105000D03*
%TO.P,U1,75,PB14_75*%
%TO.N,Net-(J6-Pin_15)*%
X217512500Y-132605000D03*
%TO.P,U1,76,PB15_76*%
%TO.N,Net-(J6-Pin_16)*%
X217512500Y-132105000D03*
%TO.P,U1,77,PD8_77*%
%TO.N,Net-(J7-Pin_9)*%
X217512500Y-131605000D03*
%TO.P,U1,78,PD9_78*%
%TO.N,Net-(J7-Pin_10)*%
X217512500Y-131105000D03*
%TO.P,U1,79,PD10_79*%
%TO.N,Net-(J7-Pin_11)*%
X217512500Y-130605000D03*
%TO.P,U1,80,PD11_80*%
%TO.N,Net-(J7-Pin_12)*%
X217512500Y-130105000D03*
%TO.P,U1,81,PD12_81*%
%TO.N,Net-(J7-Pin_13)*%
X217512500Y-129605000D03*
%TO.P,U1,82,PD13_82*%
%TO.N,Net-(J7-Pin_14)*%
X217512500Y-129105000D03*
%TO.P,U1,83,VSS_83*%
%TO.N,GND*%
X217512500Y-128605000D03*
%TO.P,U1,84,VDD_84*%
%TO.N,+3V3*%
X217512500Y-128105000D03*
%TO.P,U1,85,PD14_85*%
%TO.N,Net-(J7-Pin_15)*%
X217512500Y-127605000D03*
%TO.P,U1,86,PD15_86*%
%TO.N,Net-(J7-Pin_16)*%
X217512500Y-127105000D03*
%TO.P,U1,87,PG2_87*%
%TO.N,Net-(J9-Pin_3)*%
X217512500Y-126605000D03*
%TO.P,U1,88,PG3_88*%
%TO.N,Net-(J9-Pin_4)*%
X217512500Y-126105000D03*
%TO.P,U1,89,PG4_89*%
%TO.N,Net-(J9-Pin_5)*%
X217512500Y-125605000D03*
%TO.P,U1,90,PG5_90*%
%TO.N,Net-(J9-Pin_6)*%
X217512500Y-125105000D03*
%TO.P,U1,91,PG6_91*%
%TO.N,Net-(J9-Pin_7)*%
X217512500Y-124605000D03*
%TO.P,U1,92,PG7_92*%
%TO.N,Net-(J9-Pin_8)*%
X217512500Y-124105000D03*
%TO.P,U1,93,PG8_93*%
%TO.N,Net-(J9-Pin_9)*%
X217512500Y-123605000D03*
%TO.P,U1,94,VSS_94*%
%TO.N,GND*%
X217512500Y-123105000D03*
%TO.P,U1,95,VDD33_USB_95*%
%TO.N,unconnected-(U1-VDD33_USB-Pad95)*%
X217512500Y-122605000D03*
%TO.P,U1,96,PC6_96*%
%TO.N,Net-(J5-Pin_7)*%
X217512500Y-122105000D03*
%TO.P,U1,97,PC7_97*%
%TO.N,Net-(J5-Pin_8)*%
X217512500Y-121605000D03*
%TO.P,U1,98,PC8_98*%
%TO.N,Net-(J5-Pin_9)*%
X217512500Y-121105000D03*
%TO.P,U1,99,PC9_99*%
%TO.N,Net-(J5-Pin_10)*%
X217512500Y-120605000D03*
%TO.P,U1,100,PA8_100*%
%TO.N,Net-(U1-PA8)*%
X217512500Y-120105000D03*
%TO.P,U1,101,PA9_101*%
%TO.N,/TX*%
X217512500Y-119605000D03*
%TO.P,U1,102,PA10_102*%
%TO.N,/RX*%
X217512500Y-119105000D03*
%TO.P,U1,103,PA11_103*%
%TO.N,unconnected-(U1-PA11-Pad103)*%
X217512500Y-118605000D03*
%TO.P,U1,104,PA12_104*%
%TO.N,unconnected-(U1-PA12-Pad104)*%
X217512500Y-118105000D03*
%TO.P,U1,105,PA13_105*%
%TO.N,Net-(J10-Pin_1)*%
X217512500Y-117605000D03*
%TO.P,U1,106,VCAP_106*%
%TO.N,Net-(C5-Pad2)*%
X217512500Y-117105000D03*
%TO.P,U1,107,VSS_107*%
%TO.N,GND*%
X217512500Y-116605000D03*
%TO.P,U1,108,VDD_108*%
%TO.N,+3V3*%
X217512500Y-116105000D03*
D47*
%TO.P,U1,109,PA14_109*%
%TO.N,Net-(J10-Pin_2)*%
X215600000Y-114192500D03*
%TO.P,U1,110,PA15_110*%
%TO.N,unconnected-(U1-PA15-Pad110)*%
X215100000Y-114192500D03*
%TO.P,U1,111,PC10_111*%
%TO.N,Net-(J5-Pin_11)*%
X214600000Y-114192500D03*
%TO.P,U1,112,PC11_112*%
%TO.N,Net-(J5-Pin_12)*%
X214100000Y-114192500D03*
%TO.P,U1,113,PC12_113*%
%TO.N,Net-(J5-Pin_13)*%
X213600000Y-114192500D03*
%TO.P,U1,114,PD0_114*%
%TO.N,Net-(J7-Pin_1)*%
X213100000Y-114192500D03*
%TO.P,U1,115,PD1_115*%
%TO.N,Net-(J7-Pin_2)*%
X212600000Y-114192500D03*
%TO.P,U1,116,PD2_116*%
%TO.N,Net-(J7-Pin_3)*%
X212100000Y-114192500D03*
%TO.P,U1,117,PD3_117*%
%TO.N,Net-(J7-Pin_4)*%
X211600000Y-114192500D03*
%TO.P,U1,118,PD4_118*%
%TO.N,Net-(J7-Pin_5)*%
X211100000Y-114192500D03*
%TO.P,U1,119,PD5_119*%
%TO.N,Net-(J7-Pin_6)*%
X210600000Y-114192500D03*
%TO.P,U1,120,VSS_120*%
%TO.N,GND*%
X210100000Y-114192500D03*
%TO.P,U1,121,VDD_121*%
%TO.N,+3V3*%
X209600000Y-114192500D03*
%TO.P,U1,122,PD6_122*%
%TO.N,Net-(J7-Pin_7)*%
X209100000Y-114192500D03*
%TO.P,U1,123,PD7_123*%
%TO.N,Net-(J7-Pin_8)*%
X208600000Y-114192500D03*
%TO.P,U1,124,PG9_124*%
%TO.N,Net-(J9-Pin_10)*%
X208100000Y-114192500D03*
%TO.P,U1,125,PG10_125*%
%TO.N,Net-(J9-Pin_11)*%
X207600000Y-114192500D03*
%TO.P,U1,126,PG11_126*%
%TO.N,Net-(J9-Pin_12)*%
X207100000Y-114192500D03*
%TO.P,U1,127,PG12_127*%
%TO.N,Net-(J9-Pin_13)*%
X206600000Y-114192500D03*
%TO.P,U1,128,PG13_128*%
%TO.N,Net-(J9-Pin_14)*%
X206100000Y-114192500D03*
%TO.P,U1,129,PG14_129*%
%TO.N,Net-(J9-Pin_15)*%
X205600000Y-114192500D03*
%TO.P,U1,130,VSS_130*%
%TO.N,GND*%
X205100000Y-114192500D03*
%TO.P,U1,131,VDD_131*%
%TO.N,+3V3*%
X204600000Y-114192500D03*
%TO.P,U1,132,PG15_132*%
%TO.N,Net-(J9-Pin_16)*%
X204100000Y-114192500D03*
%TO.P,U1,133,PB3_133*%
%TO.N,Net-(J6-Pin_4)*%
X203600000Y-114192500D03*
%TO.P,U1,134,PB4_134*%
%TO.N,Net-(J6-Pin_5)*%
X203100000Y-114192500D03*
%TO.P,U1,135,PB5_135*%
%TO.N,Net-(J6-Pin_6)*%
X202600000Y-114192500D03*
%TO.P,U1,136,PB6_136*%
%TO.N,Net-(J6-Pin_7)*%
X202100000Y-114192500D03*
%TO.P,U1,137,PB7_137*%
%TO.N,Net-(J6-Pin_8)*%
X201600000Y-114192500D03*
%TO.P,U1,138,BOOT0_138*%
%TO.N,Net-(U1-BOOT0)*%
X201100000Y-114192500D03*
%TO.P,U1,139,PB8_139*%
%TO.N,Net-(J6-Pin_9)*%
X200600000Y-114192500D03*
%TO.P,U1,140,PB9_140*%
%TO.N,Net-(J6-Pin_10)*%
X200100000Y-114192500D03*
%TO.P,U1,141,PE0_141*%
%TO.N,Net-(J8-Pin_1)*%
X199600000Y-114192500D03*
%TO.P,U1,142,PE1_142*%
%TO.N,Net-(J8-Pin_2)*%
X199100000Y-114192500D03*
%TO.P,U1,143,PDR_ON_143*%
%TO.N,+3V3*%
X198600000Y-114192500D03*
%TO.P,U1,144,VDD_144*%
X198100000Y-114192500D03*
%TD*%
D31*
%TO.P,R23,1*%
%TO.N,Net-(D1-A)*%
X234187450Y-109473800D03*
%TO.P,R23,2*%
%TO.N,GND*%
X235837450Y-109473800D03*
%TD*%
D17*
%TO.P,R12,1*%
%TO.N,Net-(J2-Pad3)*%
X252265000Y-130000000D03*
%TO.P,R12,2*%
%TO.N,Net-(U1-PF10)*%
X250615000Y-130000000D03*
%TD*%
D20*
%TO.P,C21,1*%
%TO.N,Net-(U5-BOOT)*%
X239828948Y-122523447D03*
%TO.P,C21,2*%
%TO.N,Net-(U5-SW)*%
X238868948Y-122523447D03*
%TD*%
D18*
%TO.P,J9,1,Pin_1_1*%
%TO.N,Net-(J9-Pin_1)*%
X214120000Y-148270000D03*
D19*
%TO.P,J9,2,Pin_2_2*%
%TO.N,Net-(J9-Pin_2)*%
X216660000Y-148270000D03*
%TO.P,J9,3,Pin_3_3*%
%TO.N,Net-(J9-Pin_3)*%
X219200000Y-148270000D03*
%TO.P,J9,4,Pin_4_4*%
%TO.N,Net-(J9-Pin_4)*%
X221740000Y-148270000D03*
%TO.P,J9,5,Pin_5_5*%
%TO.N,Net-(J9-Pin_5)*%
X224280000Y-148270000D03*
%TO.P,J9,6,Pin_6_6*%
%TO.N,Net-(J9-Pin_6)*%
X226820000Y-148270000D03*
%TO.P,J9,7,Pin_7_7*%
%TO.N,Net-(J9-Pin_7)*%
X229360000Y-148270000D03*
%TO.P,J9,8,Pin_8_8*%
%TO.N,Net-(J9-Pin_8)*%
X231900000Y-148270000D03*
%TO.P,J9,9,Pin_9_9*%
%TO.N,Net-(J9-Pin_9)*%
X234440000Y-148270000D03*
%TO.P,J9,10,Pin_10_10*%
%TO.N,Net-(J9-Pin_10)*%
X236980000Y-148270000D03*
%TO.P,J9,11,Pin_11_11*%
%TO.N,Net-(J9-Pin_11)*%
X239520000Y-148270000D03*
%TO.P,J9,12,Pin_12_12*%
%TO.N,Net-(J9-Pin_12)*%
X242060000Y-148270000D03*
%TO.P,J9,13,Pin_13_13*%
%TO.N,Net-(J9-Pin_13)*%
X244600000Y-148270000D03*
%TO.P,J9,14,Pin_14_14*%
%TO.N,Net-(J9-Pin_14)*%
X247140000Y-148270000D03*
%TO.P,J9,15,Pin_15_15*%
%TO.N,Net-(J9-Pin_15)*%
X249680000Y-148270000D03*
%TO.P,J9,16,Pin_16_16*%
%TO.N,Net-(J9-Pin_16)*%
X252220000Y-148270000D03*
%TD*%
D48*
%TO.P,Y3,1,1_1*%
%TO.N,Net-(U6-XI)*%
X170360000Y-140250000D03*
%TO.P,Y3,2,G_2*%
%TO.N,GND*%
X168160000Y-140250000D03*
%TO.P,Y3,3,3_3*%
%TO.N,Net-(U6-XO)*%
X168160000Y-141950000D03*
%TO.P,Y3,4,G_4*%
%TO.N,GND*%
X170360000Y-141950000D03*
%TD*%
D20*
%TO.P,C22,1*%
%TO.N,GND*%
X244440000Y-123460000D03*
%TO.P,C22,2*%
%TO.N,+5V*%
X243480000Y-123460000D03*
%TD*%
D18*
%TO.P,J5,1,Pin_1_1*%
%TO.N,Net-(J5-Pin_1)*%
X172320000Y-148220000D03*
D19*
%TO.P,J5,2,Pin_2_2*%
%TO.N,Net-(J5-Pin_2)*%
X174860000Y-148220000D03*
%TO.P,J5,3,Pin_3_3*%
%TO.N,Net-(J5-Pin_3)*%
X177400000Y-148220000D03*
%TO.P,J5,4,Pin_4_4*%
%TO.N,Net-(J5-Pin_4)*%
X179940000Y-148220000D03*
%TO.P,J5,5,Pin_5_5*%
%TO.N,Net-(J5-Pin_5)*%
X182480000Y-148220000D03*
%TO.P,J5,6,Pin_6_6*%
%TO.N,Net-(J5-Pin_6)*%
X185020000Y-148220000D03*
%TO.P,J5,7,Pin_7_7*%
%TO.N,Net-(J5-Pin_7)*%
X187560000Y-148220000D03*
%TO.P,J5,8,Pin_8_8*%
%TO.N,Net-(J5-Pin_8)*%
X190100000Y-148220000D03*
%TO.P,J5,9,Pin_9_9*%
%TO.N,Net-(J5-Pin_9)*%
X192640000Y-148220000D03*
%TO.P,J5,10,Pin_10_10*%
%TO.N,Net-(J5-Pin_10)*%
X195180000Y-148220000D03*
%TO.P,J5,11,Pin_11_11*%
%TO.N,Net-(J5-Pin_11)*%
X197720000Y-148220000D03*
%TO.P,J5,12,Pin_12_12*%
%TO.N,Net-(J5-Pin_12)*%
X200260000Y-148220000D03*
%TO.P,J5,13,Pin_13_13*%
%TO.N,Net-(J5-Pin_13)*%
X202800000Y-148220000D03*
%TO.P,J5,14,Pin_14_14*%
%TO.N,Net-(J5-Pin_14)*%
X205340000Y-148220000D03*
%TO.P,J5,15,Pin_15_15*%
%TO.N,Net-(J5-Pin_15)*%
X207880000Y-148220000D03*
%TO.P,J5,16,Pin_16_16*%
%TO.N,Net-(J5-Pin_16)*%
X210420000Y-148220000D03*
%TD*%
D17*
%TO.P,R13,1*%
%TO.N,Net-(J2-Pad1)*%
X252245000Y-133100000D03*
%TO.P,R13,2*%
%TO.N,Net-(U1-PF1)*%
X250595000Y-133100000D03*
%TD*%
D11*
%TO.P,C8,1*%
%TO.N,GND*%
X193194886Y-126940114D03*
%TO.P,C8,2*%
%TO.N,Net-(U1-PH0)*%
X194154886Y-126940114D03*
%TD*%
D40*
%TO.P,C82,1*%
%TO.N,+3V3*%
X165232450Y-133073800D03*
%TO.P,C82,2*%
%TO.N,GND*%
X163332450Y-133073800D03*
%TD*%
D13*
%TO.P,SW2,A,A_A*%
%TO.N,GND*%
X158710000Y-119769998D03*
%TO.P,SW2,B,B_B*%
X158710000Y-110770000D03*
%TO.P,SW2,C,C_C*%
%TO.N,Net-(R2-Pad1)*%
X163210002Y-119769998D03*
%TO.P,SW2,D,D_D*%
%TO.N,/NRST*%
X163210002Y-110770000D03*
%TD*%
D17*
%TO.P,R19,1*%
%TO.N,Net-(J2-Pad13)*%
X252265000Y-139290000D03*
%TO.P,R19,2*%
%TO.N,Net-(U1-PF12)*%
X250615000Y-139290000D03*
%TD*%
D49*
%TO.P,C20,1*%
%TO.N,VCC*%
X237568636Y-120815114D03*
%TO.P,C20,2*%
%TO.N,GND*%
X237568636Y-118915114D03*
%TD*%
D20*
%TO.P,C24,1*%
%TO.N,+5V*%
X233620823Y-117665114D03*
%TO.P,C24,2*%
%TO.N,GND*%
X232660823Y-117665114D03*
%TD*%
D50*
%TO.P,U7,1,~{CS}_1*%
%TO.N,Net-(U1-PA4)*%
X199602500Y-138925000D03*
%TO.P,U7,2,DO/IO_{1}_2*%
%TO.N,Net-(U1-PA7)*%
X199602500Y-140195000D03*
%TO.P,U7,3,~{WP}/IO_{2}_3*%
%TO.N,+3V3*%
X199602500Y-141465000D03*
%TO.P,U7,4,GND_4*%
%TO.N,GND*%
X199602500Y-142735000D03*
%TO.P,U7,5,DI/IO_{0}_5*%
%TO.N,Net-(U1-PA6)*%
X206777500Y-142735000D03*
%TO.P,U7,6,CLK_6*%
%TO.N,Net-(U1-PA5)*%
X206777500Y-141465000D03*
%TO.P,U7,7,~{HOLD}/~{RESET}/IO_{3}_7*%
%TO.N,Net-(U1-PA8)*%
X206777500Y-140195000D03*
%TO.P,U7,8,VCC_8*%
%TO.N,+3V3*%
X206777500Y-138925000D03*
%TD*%
D11*
%TO.P,C18,1*%
%TO.N,GND*%
X164814886Y-137098447D03*
%TO.P,C18,2*%
%TO.N,Net-(U6-XI)*%
X165774886Y-137098447D03*
%TD*%
D51*
%TO.P,L1,1*%
%TO.N,Net-(U5-SW)*%
X237092500Y-117150000D03*
%TO.P,L1,2*%
%TO.N,+5V*%
X234967500Y-117150000D03*
%TD*%
D17*
%TO.P,R14,1*%
%TO.N,Net-(J2-Pad2)*%
X252275000Y-126850000D03*
%TO.P,R14,2*%
%TO.N,Net-(U1-PF5)*%
X250625000Y-126850000D03*
%TD*%
D18*
%TO.P,J6,1,Pin_1_1*%
%TO.N,Net-(J6-Pin_1)*%
X220120000Y-101480000D03*
D19*
%TO.P,J6,2,Pin_2_2*%
%TO.N,Net-(J6-Pin_2)*%
X217580000Y-101480000D03*
%TO.P,J6,3,Pin_3_3*%
%TO.N,Net-(J6-Pin_3)*%
X215040000Y-101480000D03*
%TO.P,J6,4,Pin_4_4*%
%TO.N,Net-(J6-Pin_4)*%
X212500000Y-101480000D03*
%TO.P,J6,5,Pin_5_5*%
%TO.N,Net-(J6-Pin_5)*%
X209960000Y-101480000D03*
%TO.P,J6,6,Pin_6_6*%
%TO.N,Net-(J6-Pin_6)*%
X207420000Y-101480000D03*
%TO.P,J6,7,Pin_7_7*%
%TO.N,Net-(J6-Pin_7)*%
X204880000Y-101480000D03*
%TO.P,J6,8,Pin_8_8*%
%TO.N,Net-(J6-Pin_8)*%
X202340000Y-101480000D03*
%TO.P,J6,9,Pin_9_9*%
%TO.N,Net-(J6-Pin_9)*%
X199800000Y-101480000D03*
%TO.P,J6,10,Pin_10_10*%
%TO.N,Net-(J6-Pin_10)*%
X197260000Y-101480000D03*
%TO.P,J6,11,Pin_11_11*%
%TO.N,Net-(J6-Pin_11)*%
X194720000Y-101480000D03*
%TO.P,J6,12,Pin_12_12*%
%TO.N,Net-(J6-Pin_12)*%
X192180000Y-101480000D03*
%TO.P,J6,13,Pin_13_13*%
%TO.N,Net-(J6-Pin_13)*%
X189640000Y-101480000D03*
%TO.P,J6,14,Pin_14_14*%
%TO.N,Net-(J6-Pin_14)*%
X187100000Y-101480000D03*
%TO.P,J6,15,Pin_15_15*%
%TO.N,Net-(J6-Pin_15)*%
X184560000Y-101480000D03*
%TO.P,J6,16,Pin_16_16*%
%TO.N,Net-(J6-Pin_16)*%
X182020000Y-101480000D03*
%TD*%
D18*
%TO.P,J3,1,Pin_1_1*%
%TO.N,Net-(J3-Pin_1)*%
X156870000Y-101490000D03*
D19*
%TO.P,J3,2,Pin_2_2*%
%TO.N,Net-(J3-Pin_2)*%
X159410000Y-101490000D03*
%TO.P,J3,3,Pin_3_3*%
%TO.N,Net-(J3-Pin_3)*%
X161950000Y-101490000D03*
%TO.P,J3,4,Pin_4_4*%
%TO.N,Net-(J3-Pin_4)*%
X164490000Y-101490000D03*
%TD*%
D38*
%TO.P,C12,1*%
%TO.N,+3V3*%
X210600000Y-137060000D03*
%TO.P,C12,2*%
%TO.N,GND*%
X210600000Y-138020000D03*
%TD*%
D11*
%TO.P,C27,1*%
%TO.N,+3V3*%
X208400000Y-138930000D03*
%TO.P,C27,2*%
%TO.N,GND*%
X209360000Y-138930000D03*
%TD*%
D52*
%TO.P,BT1,1,+_1*%
%TO.N,Net-(BT1-+)*%
X177770000Y-109920000D03*
D53*
%TO.P,BT1,2,-_2*%
%TO.N,GND*%
X177770000Y-130410000D03*
%TD*%
D54*
%TO.N,GND*%
X192182750Y-126707245D03*
X222841519Y-100165498D03*
X250632934Y-116496255D03*
X201718909Y-149009637D03*
X200285277Y-130803402D03*
X212655004Y-127365231D03*
X225210741Y-142269482D03*
X192603644Y-117300252D03*
X167250866Y-102801506D03*
X240310697Y-101030743D03*
X154082153Y-108257407D03*
X255062677Y-134058502D03*
X262364359Y-118107195D03*
X252621227Y-149544502D03*
X165875520Y-138907183D03*
X232449340Y-100620660D03*
X170156209Y-142866347D03*
X243148610Y-116023422D03*
X221746338Y-107546922D03*
X192610000Y-125650000D03*
X228881494Y-130643021D03*
X220284093Y-129258417D03*
X194041797Y-140170241D03*
X239777000Y-142764404D03*
X150575498Y-134790522D03*
X245001227Y-149544502D03*
X156861241Y-147452127D03*
X193233277Y-134405907D03*
X177975637Y-115184834D03*
X184228449Y-137129674D03*
X234750000Y-119600000D03*
X177572592Y-149544502D03*
X165429751Y-121700840D03*
X197007084Y-100165498D03*
X210090000Y-115250000D03*
X211218852Y-137825669D03*
X219366350Y-118077788D03*
X181180445Y-125095232D03*
X235614199Y-108694788D03*
X198151695Y-123662717D03*
X241977330Y-131429157D03*
X150575498Y-142426370D03*
X237055197Y-109395253D03*
X191013934Y-123977339D03*
X220674453Y-126874453D03*
X194038088Y-138822049D03*
X178993195Y-140874917D03*
X233104000Y-122870000D03*
X198485707Y-142728750D03*
X201210282Y-137797944D03*
X186036965Y-108446432D03*
X159752852Y-106809199D03*
X220194621Y-115189891D03*
X184478369Y-118506645D03*
X183873695Y-124500173D03*
X201086276Y-109387610D03*
X207609537Y-137988761D03*
X188728729Y-128590358D03*
X227221227Y-149544502D03*
X244883513Y-129553471D03*
X218531870Y-116415945D03*
X209234588Y-139547682D03*
X157491606Y-136384980D03*
X228416625Y-111201947D03*
X150575498Y-100165498D03*
X234957527Y-135364812D03*
X218533156Y-122815909D03*
X209338909Y-149009637D03*
X200607590Y-134497714D03*
X218672482Y-135754163D03*
X235500000Y-126050000D03*
X193080000Y-128870000D03*
X158225410Y-142584170D03*
X232661000Y-118270000D03*
X239470000Y-118200000D03*
X217150389Y-137958797D03*
X175082867Y-104053400D03*
X170871312Y-143236334D03*
X262364359Y-125743043D03*
X152624947Y-126397256D03*
X158708439Y-109958149D03*
X197464451Y-113676204D03*
X245984258Y-126263563D03*
X159237408Y-100165498D03*
X186270709Y-138652541D03*
X193756914Y-133429169D03*
X193995930Y-143280849D03*
X202847302Y-140036970D03*
X225793160Y-122031692D03*
X184979146Y-131227698D03*
X150782208Y-117832315D03*
X175657551Y-118382450D03*
X205371421Y-113145212D03*
X221040000Y-117210000D03*
X244067760Y-117019892D03*
X207701166Y-133295959D03*
X175037918Y-134084762D03*
D55*
X236191354Y-118650000D03*
D54*
X157545401Y-138644958D03*
X219601227Y-149544502D03*
X210588591Y-120600340D03*
X208747739Y-111587173D03*
X164155591Y-111350301D03*
X234841227Y-149544502D03*
X190272592Y-149544502D03*
X253100189Y-141372858D03*
X215806568Y-143027803D03*
X162477812Y-132761921D03*
X167163501Y-140513866D03*
X194903087Y-131853676D03*
X159751241Y-106152832D03*
X234179364Y-123617549D03*
X212247084Y-100165498D03*
X157729202Y-119920987D03*
X192542875Y-130365657D03*
X218868979Y-128982317D03*
X164549847Y-130938700D03*
X262364359Y-102835498D03*
X250084278Y-108342879D03*
X247806009Y-100781850D03*
X214498765Y-138657454D03*
X173697026Y-118976420D03*
X204627084Y-100165498D03*
X262698932Y-138531602D03*
X203726626Y-123802201D03*
X166351390Y-107189397D03*
X193150000Y-119160000D03*
X169267509Y-129740998D03*
X166723866Y-122254421D03*
X245028771Y-123558642D03*
X162590000Y-135020000D03*
X218620000Y-114170000D03*
X255309340Y-100620660D03*
X206198276Y-111626355D03*
X165185953Y-137684121D03*
X181767084Y-100165498D03*
X262364359Y-110471347D03*
X172644502Y-127489772D03*
X166524329Y-149544502D03*
X205562140Y-134488075D03*
X178872685Y-111905498D03*
X193914457Y-137506283D03*
X246979152Y-123989991D03*
X164480853Y-142607364D03*
X174510000Y-124980000D03*
X176372867Y-127691252D03*
X210007180Y-136542961D03*
X189387084Y-100165498D03*
X203953860Y-111750000D03*
X158544605Y-118957087D03*
X190331930Y-123877433D03*
D55*
%TO.N,+5V*%
X232900000Y-117080000D03*
D54*
X172082813Y-121969662D03*
X173967943Y-123048221D03*
D55*
X232540000Y-115500000D03*
D54*
%TO.N,/SDA*%
X191058770Y-134233023D03*
X194109508Y-133762060D03*
X192283472Y-134518657D03*
X164054992Y-106259435D03*
%TO.N,/SCL*%
X168936788Y-105525675D03*
X191190393Y-133698806D03*
X194121005Y-133086389D03*
X192096468Y-134070952D03*
%TO.N,Net-(U1-BOOT0)*%
X167755390Y-121174995D03*
X177544010Y-122753075D03*
%TO.N,Net-(U1-PF0)*%
X204345590Y-119562254D03*
X246863307Y-135574601D03*
%TO.N,Net-(J7-Pin_1)*%
X215389345Y-112138068D03*
%TO.N,Net-(J7-Pin_2)*%
X213951330Y-112596518D03*
%TO.N,Net-(J7-Pin_3)*%
X212392597Y-113173121D03*
%TO.N,Net-(J7-Pin_4)*%
X212386180Y-112688244D03*
%TO.N,Net-(J7-Pin_5)*%
X211506452Y-112659908D03*
%TO.N,Net-(J7-Pin_6)*%
X212866729Y-111921990D03*
%TO.N,Net-(J7-Pin_7)*%
X209046307Y-113139859D03*
%TO.N,Net-(J7-Pin_8)*%
X208122251Y-115316568D03*
X227929974Y-110182884D03*
%TO.N,Net-(J7-Pin_9)*%
X227745707Y-111053470D03*
X213893882Y-121688987D03*
%TO.N,Net-(J7-Pin_10)*%
X214734270Y-122272805D03*
X225987046Y-111614306D03*
%TO.N,Net-(J7-Pin_11)*%
X226099291Y-109789751D03*
X214880991Y-120647269D03*
%TO.N,Net-(J7-Pin_12)*%
X215899150Y-126157925D03*
X226692017Y-112045620D03*
%TO.N,Net-(J7-Pin_13)*%
X218539838Y-129745993D03*
%TO.N,Net-(J7-Pin_14)*%
X225171483Y-109934468D03*
X215202310Y-119825424D03*
%TO.N,Net-(J7-Pin_15)*%
X221284903Y-109101231D03*
X223979780Y-107605051D03*
%TO.N,Net-(J7-Pin_16)*%
X218540113Y-126906681D03*
X220348712Y-104097501D03*
%TO.N,/NRST*%
X193987068Y-128910005D03*
%TO.N,Net-(BT1-+)*%
X188587005Y-118764167D03*
%TO.N,Net-(J2-Pad3)*%
X254478000Y-137131543D03*
%TO.N,Net-(U1-PF9)*%
X195175383Y-125397124D03*
X233956670Y-139771772D03*
%TO.N,Net-(U1-PF13)*%
X227635835Y-138461186D03*
X207503887Y-134491568D03*
%TO.N,Net-(U1-PF11)*%
X206048623Y-133919398D03*
X247818385Y-140960401D03*
%TO.N,Net-(U1-PF4)*%
X205058195Y-120527004D03*
X240241728Y-132424226D03*
%TO.N,Net-(U1-PF2)*%
X198390840Y-121662545D03*
X252887070Y-138441152D03*
%TO.N,Net-(J8-Pin_1)*%
X191407202Y-112862244D03*
%TO.N,Net-(J8-Pin_2)*%
X177780980Y-122319841D03*
%TO.N,Net-(J8-Pin_3)*%
X179337817Y-125526443D03*
%TO.N,Net-(J8-Pin_4)*%
X180014252Y-125520892D03*
%TO.N,Net-(J8-Pin_5)*%
X175159469Y-126481737D03*
%TO.N,Net-(J8-Pin_6)*%
X180035884Y-126683096D03*
%TO.N,Net-(J8-Pin_7)*%
X197208646Y-118580435D03*
%TO.N,Net-(J8-Pin_8)*%
X208278556Y-136569344D03*
%TO.N,Net-(J8-Pin_9)*%
X208985567Y-136558378D03*
%TO.N,Net-(J8-Pin_10)*%
X209516128Y-136597648D03*
%TO.N,Net-(J8-Pin_11)*%
X200580008Y-133815296D03*
%TO.N,Net-(J8-Pin_12)*%
X198063556Y-136536603D03*
%TO.N,Net-(J8-Pin_13)*%
X212143024Y-138161458D03*
X212112338Y-136801735D03*
X208152241Y-137932757D03*
%TO.N,Net-(J8-Pin_14)*%
X213677726Y-137248049D03*
X213088329Y-138316990D03*
X210461067Y-139783055D03*
%TO.N,Net-(J8-Pin_15)*%
X213459328Y-136556702D03*
X210360182Y-140258073D03*
X212136394Y-139064697D03*
%TO.N,Net-(J8-Pin_16)*%
X176289486Y-140401312D03*
X198510127Y-136728345D03*
%TO.N,Net-(U5-SW)*%
X239133644Y-123151685D03*
X236508892Y-117932861D03*
D55*
%TO.N,VCC*%
X238330000Y-116870000D03*
X238250000Y-117890000D03*
D54*
%TO.N,Net-(J10-Pin_1)*%
X204897367Y-124695951D03*
%TO.N,Net-(J10-Pin_2)*%
X197839183Y-116730770D03*
%TO.N,Net-(U1-PF7)*%
X232911037Y-136670768D03*
X195100244Y-124900630D03*
%TO.N,/RX*%
X185827116Y-131120262D03*
X203054050Y-129317719D03*
X170200056Y-131004654D03*
X195097769Y-128642242D03*
%TO.N,/TX*%
X204964262Y-119405073D03*
X174240000Y-125571509D03*
X219821116Y-119664079D03*
X172807942Y-125747355D03*
%TO.N,Net-(U1-PF3)*%
X244422082Y-135629795D03*
X204451968Y-120417780D03*
%TO.N,Net-(U10-DIN)*%
X174138081Y-120299004D03*
X170680000Y-120030000D03*
%TO.N,/LED_DIN*%
X194711818Y-133822908D03*
X190781382Y-130706091D03*
X178531364Y-117447387D03*
X192378128Y-132644623D03*
%TO.N,Net-(U1-PF6)*%
X195075151Y-126039466D03*
X230752353Y-137943875D03*
%TO.N,Net-(U1-PF8)*%
X198806465Y-129116775D03*
X230182814Y-138613681D03*
%TO.N,Net-(J5-Pin_14)*%
X204066421Y-144746040D03*
X197220361Y-119414453D03*
X194294040Y-134715057D03*
%TO.N,Net-(J5-Pin_15)*%
X186172339Y-128419184D03*
X205553184Y-145039379D03*
X187818346Y-123054255D03*
%TO.N,Net-(J5-Pin_16)*%
X206235397Y-144959614D03*
X191407594Y-121476459D03*
X190654134Y-132486886D03*
%TO.N,Net-(U1-PF1)*%
X249642414Y-134000454D03*
X204619944Y-119962104D03*
%TO.N,Net-(U1-PF5)*%
X241353903Y-134841176D03*
X200514644Y-123242253D03*
%TO.N,Net-(U1-PF10)*%
X198082252Y-128469528D03*
X235055915Y-139033441D03*
%TO.N,Net-(J5-Pin_1)*%
X194972054Y-130499158D03*
X202802880Y-143631631D03*
X194857383Y-134751879D03*
%TO.N,Net-(J5-Pin_2)*%
X194867400Y-131241641D03*
X191609149Y-139176177D03*
X191752831Y-134693883D03*
X179651652Y-141077989D03*
%TO.N,Net-(J5-Pin_3)*%
X197232159Y-129705471D03*
X176988910Y-136978174D03*
X195847336Y-134665810D03*
X194726382Y-135670089D03*
%TO.N,Net-(J5-Pin_4)*%
X226119583Y-140716653D03*
X197775746Y-130279766D03*
%TO.N,Net-(U1-PA4)*%
X203613532Y-137586854D03*
X201889031Y-139328824D03*
%TO.N,Net-(U1-PA5)*%
X205112916Y-139749642D03*
X203919807Y-137210847D03*
%TO.N,Net-(U1-PA6)*%
X203098191Y-140678811D03*
X203940792Y-136726371D03*
%TO.N,Net-(U1-PA7)*%
X201603882Y-134478018D03*
X197889244Y-137752623D03*
%TO.N,Net-(J5-Pin_5)*%
X202935019Y-136863754D03*
X185038374Y-143279456D03*
%TO.N,Net-(J5-Pin_6)*%
X203328263Y-136525618D03*
X182342237Y-142874026D03*
%TO.N,Net-(J6-Pin_1)*%
X204058722Y-133209670D03*
X201884068Y-132005637D03*
X203081468Y-122070864D03*
%TO.N,Net-(J6-Pin_2)*%
X201211856Y-131336685D03*
X204543419Y-133195260D03*
X202601464Y-122139679D03*
%TO.N,Net-(J6-Pin_3)*%
X201859176Y-130638735D03*
X202836099Y-122682753D03*
X207151798Y-132882764D03*
%TO.N,Net-(U1-PF12)*%
X228501848Y-138850851D03*
X210539215Y-134466325D03*
%TO.N,Net-(J9-Pin_1)*%
X207353808Y-137288155D03*
%TO.N,Net-(J9-Pin_2)*%
X209481722Y-134498488D03*
X224568068Y-142020320D03*
%TO.N,Net-(J6-Pin_11)*%
X211312970Y-128045541D03*
%TO.N,Net-(J6-Pin_12)*%
X212115218Y-131888687D03*
X189510183Y-109331884D03*
%TO.N,Net-(J6-Pin_13)*%
X215039068Y-132330298D03*
X188474636Y-107792801D03*
%TO.N,Net-(J6-Pin_14)*%
X211839396Y-128767508D03*
%TO.N,Net-(J6-Pin_15)*%
X213698296Y-129973330D03*
X187466566Y-104656007D03*
%TO.N,Net-(J6-Pin_16)*%
X206240033Y-128597205D03*
X186902862Y-110894106D03*
%TO.N,Net-(J9-Pin_3)*%
X220034815Y-124599548D03*
X220779482Y-124715901D03*
X214489319Y-140286643D03*
%TO.N,Net-(J9-Pin_4)*%
X218709878Y-125757439D03*
X223038335Y-126107418D03*
X217370060Y-140993576D03*
%TO.N,Net-(J9-Pin_5)*%
X218695049Y-125272701D03*
X222785962Y-125544048D03*
X217031898Y-140627250D03*
%TO.N,Net-(J9-Pin_6)*%
X229530386Y-132032446D03*
X214006129Y-125800386D03*
%TO.N,Net-(J9-Pin_7)*%
X220801383Y-121357236D03*
X234888545Y-128647813D03*
%TO.N,Net-(J9-Pin_8)*%
X228565672Y-145692290D03*
X220648043Y-139969567D03*
X218552646Y-123895975D03*
X224934524Y-123703953D03*
%TO.N,Net-(J9-Pin_9)*%
X220461841Y-120744861D03*
%TO.N,Net-(J5-Pin_7)*%
X210711616Y-140962326D03*
X218531565Y-122033235D03*
X222905627Y-123444890D03*
%TO.N,Net-(J5-Pin_8)*%
X221772629Y-122743185D03*
X218554876Y-121491128D03*
X214171325Y-140905854D03*
%TO.N,Net-(J5-Pin_9)*%
X215542341Y-128796433D03*
X227972392Y-133190273D03*
%TO.N,Net-(J5-Pin_10)*%
X213362078Y-127421934D03*
X204865957Y-144256149D03*
X225246165Y-132837272D03*
%TO.N,Net-(U1-PA8)*%
X219942250Y-118935399D03*
X233885515Y-120908735D03*
%TO.N,Net-(J5-Pin_11)*%
X215213919Y-115219187D03*
X221558572Y-113527677D03*
X213566090Y-141502849D03*
%TO.N,Net-(J5-Pin_12)*%
X202579199Y-117227875D03*
X228445282Y-133298227D03*
%TO.N,Net-(J5-Pin_13)*%
X209189672Y-143946922D03*
X234383829Y-120196203D03*
X214753907Y-113039898D03*
%TO.N,Net-(J9-Pin_10)*%
X208872470Y-112687108D03*
%TO.N,Net-(J9-Pin_11)*%
X208001546Y-113042914D03*
%TO.N,Net-(J9-Pin_12)*%
X208335797Y-112532073D03*
X213712698Y-109699452D03*
X241708445Y-122820229D03*
%TO.N,Net-(J9-Pin_13)*%
X205426803Y-116014812D03*
X230884947Y-134309683D03*
%TO.N,Net-(J9-Pin_14)*%
X206248739Y-113002390D03*
X230739257Y-118428790D03*
X208627140Y-110893545D03*
X247142420Y-136873105D03*
%TO.N,Net-(J9-Pin_15)*%
X238604391Y-141442336D03*
X201209413Y-124652648D03*
%TO.N,Net-(J9-Pin_16)*%
X203930666Y-113153432D03*
%TO.N,Net-(J6-Pin_4)*%
X212384697Y-104628430D03*
X203583527Y-112814334D03*
%TO.N,Net-(J6-Pin_5)*%
X209331141Y-104563628D03*
X201872383Y-111751039D03*
%TO.N,Net-(J6-Pin_6)*%
X200573080Y-111334146D03*
%TO.N,Net-(J6-Pin_7)*%
X200233853Y-111728535D03*
%TO.N,Net-(J6-Pin_8)*%
X199311812Y-115848764D03*
%TO.N,Net-(J6-Pin_9)*%
X192866066Y-113747783D03*
X190074833Y-110407777D03*
%TO.N,Net-(J6-Pin_10)*%
X203259622Y-110998930D03*
X202566370Y-111843340D03*
X197252853Y-105450174D03*
%TD*%
%TO.N,Net-(R1-Pad1)*%
D56*
X163240000Y-129944907D02*
X163240000Y-130155000D01*
X163240000Y-130155000D02*
X163240000Y-130650000D01*
X164800000Y-122891093D02*
X163240000Y-124451093D01*
X164800000Y-122410000D02*
X164800000Y-122681000D01*
X163240000Y-124451093D02*
X163240000Y-129944907D01*
X164800000Y-122681000D02*
X164800000Y-122891093D01*
%TO.N,GND*%
X244029869Y-116982000D02*
X243910626Y-116982000D01*
X167163501Y-140513866D02*
X167163501Y-140410872D01*
X218381093Y-114120000D02*
X217860000Y-114120000D01*
X159465000Y-106000000D02*
X159579510Y-106000000D01*
X211200724Y-137825669D02*
X211218852Y-137825669D01*
X176372867Y-127691252D02*
X176372867Y-127790109D01*
X165750000Y-139737500D02*
X165750000Y-139223000D01*
D57*
X237303522Y-118650000D02*
X236191354Y-118650000D01*
D56*
X218868979Y-128982317D02*
X218819690Y-128933028D01*
X206607668Y-137988761D02*
X207609537Y-137988761D01*
X192924000Y-129895000D02*
X192828607Y-129895000D01*
X192914000Y-124105000D02*
X192703907Y-124105000D01*
X216420000Y-138460000D02*
X216731000Y-138460000D01*
X176222977Y-127940000D02*
X176032000Y-127940000D01*
X214702720Y-138453500D02*
X214498765Y-138657454D01*
X206550000Y-137721000D02*
X206550000Y-137931093D01*
X183873695Y-124500173D02*
X183873687Y-124500173D01*
X158710000Y-119141374D02*
X158544605Y-118975979D01*
X158710000Y-109959709D02*
X158710000Y-110064907D01*
X193195000Y-119011743D02*
X193195000Y-118548500D01*
X169166511Y-129640000D02*
X169267509Y-129740998D01*
X157000000Y-139737500D02*
X157000000Y-139223000D01*
X157000000Y-139223000D02*
X157000000Y-139012907D01*
X192610000Y-125650000D02*
X192726257Y-125650000D01*
X164620000Y-142899000D02*
X164620000Y-143625000D01*
X185943581Y-137129674D02*
X184228449Y-137129674D01*
X194324000Y-137810000D02*
X195300000Y-137810000D01*
X193195000Y-124105000D02*
X192914000Y-124105000D01*
X192162222Y-126707245D02*
X192024977Y-126570000D01*
X165775000Y-107065000D02*
X166056000Y-107065000D01*
X218250000Y-123105000D02*
X218364510Y-123105000D01*
X205100000Y-114192500D02*
X205100000Y-113455000D01*
X176372867Y-127790109D02*
X176222977Y-127940000D01*
X217512500Y-116605000D02*
X218250000Y-116605000D01*
X165235510Y-121390000D02*
X165121000Y-121390000D01*
X192828607Y-129895000D02*
X192542875Y-130180732D01*
X193195000Y-132761093D02*
X193195000Y-132551000D01*
X220318000Y-115588000D02*
X220318000Y-115454374D01*
X170360000Y-142552000D02*
X170360000Y-142647393D01*
X218568319Y-135650000D02*
X218672482Y-135754163D01*
X244067760Y-117019892D02*
X244029869Y-116982000D01*
X200522860Y-137410000D02*
X200351000Y-137410000D01*
X220318000Y-115898500D02*
X220318000Y-115588000D01*
X243600000Y-129553471D02*
X243600000Y-129910000D01*
X210100000Y-136255000D02*
X210100000Y-135517500D01*
X201086276Y-109387610D02*
X201086276Y-109794817D01*
X209360000Y-139412860D02*
X209234588Y-139538272D01*
X174510000Y-124980000D02*
X174511907Y-124980000D01*
X193914457Y-137506283D02*
X193926740Y-137518566D01*
X215397000Y-138453500D02*
X215086000Y-138453500D01*
X193937173Y-137518566D02*
X194228607Y-137810000D01*
X192742140Y-117223500D02*
X192680396Y-117223500D01*
X177722000Y-115480000D02*
X177722000Y-115346374D01*
X218250000Y-128605000D02*
X217512500Y-128605000D01*
X158544605Y-118975979D02*
X158544605Y-118957087D01*
X177883540Y-115184834D02*
X177975637Y-115184834D01*
X158708439Y-109958149D02*
X158710000Y-109959709D01*
X198600000Y-134780000D02*
X198600000Y-135517500D01*
X194048848Y-140170241D02*
X194041797Y-140170241D01*
X163332500Y-133073500D02*
X162831000Y-133073500D01*
X170360000Y-141950000D02*
X170360000Y-142552000D01*
X205100000Y-134780000D02*
X205100000Y-134569907D01*
X220331500Y-117210000D02*
X220318000Y-117223500D01*
X189620000Y-128770000D02*
X189018000Y-128770000D01*
X195450000Y-131105000D02*
X196187500Y-131105000D01*
X206550000Y-137410000D02*
X206550000Y-137721000D01*
X218605990Y-114155990D02*
X218417083Y-114155990D01*
X164498066Y-142643439D02*
X164620000Y-142765374D01*
X166333140Y-107189397D02*
X166351390Y-107189397D01*
X205181832Y-134488075D02*
X205562140Y-134488075D01*
X209360000Y-138930000D02*
X209360000Y-139241000D01*
X192761257Y-125615000D02*
X193195000Y-125615000D01*
X198600000Y-134569907D02*
X198600000Y-134780000D01*
X200351000Y-137410000D02*
X200070000Y-137410000D01*
X165750000Y-139223000D02*
X165750000Y-139012907D01*
X194903087Y-131853676D02*
X195274444Y-131482319D01*
X218460093Y-128605000D02*
X218250000Y-128605000D01*
X189374000Y-140350000D02*
X189163907Y-140350000D01*
X193195000Y-128747860D02*
X193195000Y-128265000D01*
X183402000Y-124800000D02*
X182652000Y-124800000D01*
X193080000Y-128862860D02*
X193195000Y-128747860D01*
X194228607Y-137810000D02*
X194324000Y-137810000D01*
X168010000Y-129640000D02*
X168986000Y-129640000D01*
X157367949Y-138644958D02*
X157545401Y-138644958D01*
X191141594Y-124105000D02*
X191013934Y-123977339D01*
X195335490Y-131105000D02*
X195450000Y-131105000D01*
X210090000Y-115150093D02*
X210100000Y-115140093D01*
X193205000Y-130905000D02*
X193205000Y-129895000D01*
X244883513Y-129553471D02*
X243600000Y-129553471D01*
X208910566Y-111750000D02*
X208747739Y-111587173D01*
X205100000Y-135517500D02*
X205100000Y-134780000D01*
X159560393Y-107000000D02*
X159751194Y-106809199D01*
X193150000Y-119056743D02*
X193195000Y-119011743D01*
X210100000Y-136450141D02*
X210100000Y-136369510D01*
X166208743Y-107065000D02*
X166333140Y-107189397D01*
X243777000Y-116982000D02*
X243376000Y-116982000D01*
X235837500Y-108998000D02*
X235837500Y-108826140D01*
X167163501Y-140410872D02*
X167324374Y-140250000D01*
X168986000Y-129640000D02*
X169081393Y-129640000D01*
X164815000Y-137098500D02*
X164815000Y-137409000D01*
X205100000Y-113302257D02*
X205257045Y-113145212D01*
X158710000Y-119770000D02*
X158710000Y-119275000D01*
X162620907Y-135282500D02*
X163332500Y-135282500D01*
X164480853Y-142607364D02*
X164498066Y-142624577D01*
X198491957Y-142735000D02*
X198485707Y-142728750D01*
X158120000Y-142784490D02*
X158120000Y-142899000D01*
X164815000Y-137619093D02*
X164880028Y-137684121D01*
X193195000Y-125615000D02*
X193195000Y-126940000D01*
X209289000Y-111750000D02*
X209078907Y-111750000D01*
X165750000Y-138995168D02*
X165837985Y-138907183D01*
X197135093Y-123605000D02*
X198093978Y-123605000D01*
X209360000Y-139241000D02*
X209360000Y-139412860D01*
X201086276Y-109794817D02*
X199141093Y-111740000D01*
X233104000Y-122870000D02*
X233104000Y-122082000D01*
X183573860Y-124800000D02*
X183402000Y-124800000D01*
X217510000Y-135650000D02*
X217791000Y-135650000D01*
X175657551Y-118382450D02*
X175613521Y-118382450D01*
X235837500Y-109474000D02*
X235837500Y-108998000D01*
X198931000Y-111740000D02*
X198620000Y-111740000D01*
X189018000Y-128770000D02*
X188922607Y-128770000D01*
X218620000Y-114170000D02*
X218605990Y-114155990D01*
X220674453Y-126874453D02*
X219970000Y-127578907D01*
X165121000Y-121390000D02*
X164800000Y-121390000D01*
X209234588Y-139538272D02*
X209234588Y-139547682D01*
X193568288Y-133240543D02*
X193568288Y-133134381D01*
X169081393Y-129640000D02*
X169166511Y-129640000D01*
X164880028Y-137684121D02*
X165185953Y-137684121D01*
X193568288Y-133134381D02*
X193195000Y-132761093D01*
X165837985Y-138907183D02*
X165875520Y-138907183D01*
X158740000Y-107000000D02*
X159465000Y-107000000D01*
X232661000Y-118270000D02*
X232661000Y-117665000D01*
X192024977Y-126570000D02*
X191320000Y-126570000D01*
X158740000Y-106000000D02*
X159465000Y-106000000D01*
X218417083Y-114155990D02*
X218381093Y-114120000D01*
X159732342Y-106152832D02*
X159751241Y-106152832D01*
X218819690Y-128933028D02*
X218788121Y-128933028D01*
X174651907Y-124840000D02*
X175612000Y-124840000D01*
X220318000Y-115313270D02*
X220194621Y-115189891D01*
X205100000Y-113455000D02*
X205100000Y-113302257D01*
X211006393Y-138020000D02*
X211200724Y-137825669D01*
X234750000Y-119600000D02*
X235046230Y-119896230D01*
X239470000Y-118200000D02*
X239532500Y-118262500D01*
X193080000Y-128870000D02*
X193080000Y-128862860D01*
X162831000Y-133073500D02*
X162659140Y-133073500D01*
X200607590Y-134497714D02*
X198672192Y-134497714D01*
X159579510Y-106000000D02*
X159732342Y-106152832D01*
X218531870Y-116494989D02*
X218531870Y-116415945D01*
X243910626Y-116982000D02*
X243777000Y-116982000D01*
X235046230Y-119896230D02*
X235048987Y-119896230D01*
X189163907Y-140350000D02*
X185943581Y-137129674D01*
X159751194Y-106809199D02*
X159752852Y-106809199D01*
X218788121Y-128933028D02*
X218460093Y-128605000D01*
X245984258Y-126263563D02*
X245977821Y-126270000D01*
X170156209Y-142851184D02*
X170156209Y-142866347D01*
X245028771Y-123558642D02*
X244930129Y-123460000D01*
X192542875Y-130180732D02*
X192542875Y-130365657D01*
X188922607Y-128770000D02*
X188742966Y-128590358D01*
X210100000Y-115140093D02*
X210100000Y-114192500D01*
X165429751Y-121700840D02*
X165429751Y-121584242D01*
X158710000Y-110275000D02*
X158710000Y-110770000D01*
X157000000Y-139012907D02*
X157367949Y-138644958D01*
X244854626Y-123460000D02*
X244721000Y-123460000D01*
X164498066Y-142624577D02*
X164498066Y-142643439D01*
X205100000Y-134569907D02*
X205181832Y-134488075D01*
X158225410Y-142584170D02*
X158120000Y-142689580D01*
X164620000Y-142765374D02*
X164620000Y-142899000D01*
X192703907Y-124105000D02*
X191141594Y-124105000D01*
X167458000Y-140250000D02*
X168160000Y-140250000D01*
X239532500Y-118262500D02*
X239532500Y-118860000D01*
X195300000Y-140350000D02*
X194324000Y-140350000D01*
X192914000Y-117223500D02*
X192742140Y-117223500D01*
X162590000Y-135251593D02*
X162620907Y-135282500D01*
X235048987Y-119896230D02*
X235248257Y-120095500D01*
X217150389Y-138155121D02*
X217150389Y-137958797D01*
X165429751Y-121584242D02*
X165235510Y-121390000D01*
X158710000Y-110064907D02*
X158710000Y-110275000D01*
X162590000Y-135020000D02*
X162590000Y-135251593D01*
X176032000Y-127940000D02*
X175530000Y-127940000D01*
X190350000Y-140350000D02*
X189374000Y-140350000D01*
X220318000Y-115454374D02*
X220318000Y-115313270D01*
X193205000Y-129895000D02*
X192924000Y-129895000D01*
X183873687Y-124500173D02*
X183573860Y-124800000D01*
X162659140Y-133073500D02*
X162477812Y-132892172D01*
X209078907Y-111750000D02*
X208910566Y-111750000D01*
X218001093Y-135650000D02*
X218568319Y-135650000D01*
X218533156Y-122936353D02*
X218533156Y-122815909D01*
X192182750Y-126707245D02*
X192162222Y-126707245D01*
X194324000Y-139080000D02*
X194190374Y-139080000D01*
X215086000Y-138453500D02*
X214875907Y-138453500D01*
X235248257Y-120095500D02*
X235977500Y-120095500D01*
X198672192Y-134497714D02*
X198600000Y-134569907D01*
X177722000Y-115346374D02*
X177883540Y-115184834D01*
X216845510Y-138460000D02*
X217150389Y-138155121D01*
X244721000Y-123460000D02*
X244440000Y-123460000D01*
X216731000Y-138460000D02*
X216845510Y-138460000D01*
X158120000Y-142899000D02*
X158120000Y-143625000D01*
X195274444Y-131482319D02*
X195274444Y-131166047D01*
X217791000Y-135650000D02*
X218001093Y-135650000D01*
X245911093Y-126270000D02*
X245701000Y-126270000D01*
X188742966Y-128590358D02*
X188728729Y-128590358D01*
X170360000Y-142647393D02*
X170156209Y-142851184D01*
X206550000Y-137931093D02*
X206607668Y-137988761D01*
X201210282Y-137797944D02*
X200822338Y-137410000D01*
X192680396Y-117223500D02*
X192603644Y-117300252D01*
X209600000Y-111750000D02*
X209289000Y-111750000D01*
X198789000Y-142735000D02*
X198578907Y-142735000D01*
X193195000Y-132551000D02*
X193195000Y-132240000D01*
X195274444Y-131166047D02*
X195335490Y-131105000D01*
X200822338Y-137410000D02*
X200522860Y-137410000D01*
X218364510Y-123105000D02*
X218533156Y-122936353D01*
X194324000Y-140350000D02*
X194228607Y-140350000D01*
X194190374Y-139080000D02*
X194038088Y-138927715D01*
X199141093Y-111740000D02*
X198931000Y-111740000D01*
D57*
X237568636Y-118915114D02*
X237303522Y-118650000D01*
D56*
X218250000Y-116605000D02*
X218421860Y-116605000D01*
X203953860Y-111750000D02*
X204620000Y-111750000D01*
X165750000Y-139012907D02*
X165750000Y-138995168D01*
X235500000Y-126050000D02*
X235500000Y-126670000D01*
X193926740Y-137518566D02*
X193937173Y-137518566D01*
X158120000Y-142689580D02*
X158120000Y-142784490D01*
X177722000Y-115930000D02*
X177722000Y-115480000D01*
X175613521Y-118382450D02*
X175580000Y-118415971D01*
X167324374Y-140250000D02*
X167458000Y-140250000D01*
X198578907Y-142735000D02*
X198491957Y-142735000D01*
X175580000Y-118415971D02*
X175580000Y-119230000D01*
X235706148Y-108694788D02*
X235614199Y-108694788D01*
X166056000Y-107065000D02*
X166208743Y-107065000D01*
X158710000Y-119275000D02*
X158710000Y-119141374D01*
X210007180Y-136542961D02*
X210100000Y-136450141D01*
X245977821Y-126270000D02*
X245911093Y-126270000D01*
X221040000Y-117210000D02*
X220331500Y-117210000D01*
X193195000Y-117223500D02*
X192914000Y-117223500D01*
X210600000Y-138020000D02*
X210911000Y-138020000D01*
X192726257Y-125650000D02*
X192761257Y-125615000D01*
X210911000Y-138020000D02*
X211006393Y-138020000D01*
X199602500Y-142735000D02*
X198789000Y-142735000D01*
X159465000Y-107000000D02*
X159560393Y-107000000D01*
X217512500Y-123105000D02*
X218250000Y-123105000D01*
X244930129Y-123460000D02*
X244854626Y-123460000D01*
X210100000Y-136369510D02*
X210100000Y-136255000D01*
X195300000Y-139080000D02*
X194324000Y-139080000D01*
X245701000Y-126270000D02*
X245390000Y-126270000D01*
X164815000Y-137409000D02*
X164815000Y-137619093D01*
X198093978Y-123605000D02*
X198151695Y-123662717D01*
X235837500Y-108826140D02*
X235706148Y-108694788D01*
X214875907Y-138453500D02*
X214702720Y-138453500D01*
X162477812Y-132892172D02*
X162477812Y-132761921D01*
X193756914Y-133429169D02*
X193568288Y-133240543D01*
X205257045Y-113145212D02*
X205371421Y-113145212D01*
X218421860Y-116605000D02*
X218531870Y-116494989D01*
X196187500Y-123605000D02*
X196925000Y-123605000D01*
X174511907Y-124980000D02*
X174651907Y-124840000D01*
X193195000Y-130915000D02*
X193205000Y-130905000D01*
X196925000Y-123605000D02*
X197135093Y-123605000D01*
X210090000Y-115250000D02*
X210090000Y-115150093D01*
X194228607Y-140350000D02*
X194048848Y-140170241D01*
X193150000Y-119160000D02*
X193150000Y-119056743D01*
X194038088Y-138927715D02*
X194038088Y-138822049D01*
X219970000Y-127578907D02*
X219970000Y-128100000D01*
%TO.N,+3V3*%
D58*
X192615695Y-132934444D02*
X192441965Y-133108175D01*
X216417500Y-135517500D02*
X215600000Y-135517500D01*
X158740000Y-122145000D02*
X158740000Y-122362094D01*
X235500000Y-127630000D02*
X235189000Y-127630000D01*
X205600000Y-136105000D02*
X205600000Y-135517500D01*
X197309530Y-136546416D02*
X197818653Y-137055539D01*
X217512500Y-116105000D02*
X217512500Y-115955000D01*
X174713931Y-127291996D02*
X174713931Y-127575163D01*
X197042120Y-131663362D02*
X197197233Y-131508249D01*
X197197233Y-130758057D02*
X197044177Y-130605000D01*
X216417596Y-115514509D02*
X217395491Y-115514509D01*
X198600000Y-112720000D02*
X198600000Y-114192500D01*
X192688910Y-132934444D02*
X192773796Y-132849558D01*
X199084178Y-136954001D02*
X199110000Y-136979823D01*
X197009271Y-123870729D02*
X197329297Y-123870729D01*
X158740000Y-122362094D02*
X158740000Y-129937906D01*
X196925000Y-131605000D02*
X197024593Y-131605000D01*
X219285556Y-132894641D02*
X217537909Y-134642288D01*
X210600000Y-136779000D02*
X210600000Y-136561906D01*
X193315279Y-131563962D02*
X193730491Y-131148749D01*
X216802578Y-137951750D02*
X216881350Y-137686019D01*
X194010261Y-134372097D02*
X193540862Y-134841496D01*
X160764209Y-131962115D02*
X159452094Y-130650000D01*
X189765733Y-132812362D02*
X190325000Y-132253094D01*
X197329297Y-123870729D02*
X198460759Y-125002191D01*
X182483778Y-140787447D02*
X174179442Y-132483111D01*
X206782500Y-138930000D02*
X208400000Y-138930000D01*
X164760000Y-119549760D02*
X164760000Y-119411000D01*
X202141320Y-124227601D02*
X202141320Y-122135219D01*
X194143531Y-139518354D02*
X196625260Y-139518354D01*
X205706236Y-112151858D02*
X209539952Y-112151858D01*
X194155000Y-124105000D02*
X194155000Y-124135000D01*
X164371681Y-119612632D02*
X164697128Y-119612632D01*
X197197233Y-130838773D02*
X197197233Y-130758057D01*
X199132661Y-129515838D02*
X199132661Y-126095567D01*
X194436000Y-124105000D02*
X194653094Y-124105000D01*
X198671388Y-137055539D02*
X198891968Y-136834959D01*
X192441965Y-133108175D02*
X192063669Y-133108175D01*
X201041259Y-137368984D02*
X200652099Y-136979823D01*
X193720491Y-124569509D02*
X186938868Y-124569509D01*
X238303000Y-127610000D02*
X237300000Y-127610000D01*
X173171523Y-105221571D02*
X173171523Y-126537429D01*
X174713931Y-127575163D02*
X174349094Y-127940000D01*
X169684185Y-132968910D02*
X173693644Y-132968910D01*
X207502380Y-137672013D02*
X207201204Y-137672013D01*
X204309000Y-112710000D02*
X204091906Y-112710000D01*
X204620000Y-112710000D02*
X204309000Y-112710000D01*
X197781816Y-137080311D02*
X198282217Y-137080311D01*
X219010000Y-128411000D02*
X219010000Y-128569344D01*
X197197233Y-131508249D02*
X197197233Y-130838773D01*
X208114393Y-137060000D02*
X207502380Y-137672013D01*
X173292119Y-128938799D02*
X172960000Y-129270919D01*
X210289000Y-137060000D02*
X210071906Y-137060000D01*
X235520000Y-127610000D02*
X237300000Y-127610000D01*
X216550000Y-135121906D02*
X216550000Y-135339000D01*
X220417454Y-141886181D02*
X219586265Y-141886181D01*
X211238260Y-111599834D02*
X215427379Y-111599834D01*
X194010261Y-134372097D02*
X194119981Y-134262377D01*
X210600000Y-137060000D02*
X210289000Y-137060000D01*
X198460759Y-125002191D02*
X201366729Y-125002191D01*
X193078360Y-131563962D02*
X193315279Y-131563962D01*
X202141320Y-122135219D02*
X202804467Y-121472072D01*
X190325000Y-132253094D02*
X190325000Y-132036000D01*
X186938868Y-124569509D02*
X184394902Y-127113475D01*
X168010000Y-133450000D02*
X168986000Y-133450000D01*
X173171523Y-126537429D02*
X173630000Y-126995906D01*
X198250000Y-114192500D02*
X198100000Y-114192500D01*
X194165000Y-129925000D02*
X194165000Y-129895000D01*
X235189000Y-127630000D02*
X234971906Y-127630000D01*
X217395491Y-115514509D02*
X217830000Y-115080000D01*
X216780954Y-137973375D02*
X216802578Y-137951750D01*
X217860000Y-115390406D02*
X217860000Y-115361000D01*
X204620000Y-112710000D02*
X204600000Y-112730000D01*
X243600000Y-127610000D02*
X242598000Y-127610000D01*
X197309530Y-131930771D02*
X197309530Y-136546416D01*
X179292854Y-126986031D02*
X175019896Y-126986031D01*
X163872247Y-131962115D02*
X160764209Y-131962115D01*
X192773796Y-132849558D02*
X192773796Y-131868525D01*
X209600000Y-113208094D02*
X209600000Y-113237906D01*
X193730491Y-130359509D02*
X194165000Y-129925000D01*
X164731000Y-133073500D02*
X164513906Y-133073500D01*
X174179442Y-132483111D02*
X174179442Y-130323490D01*
X209600000Y-112211906D02*
X209600000Y-112429000D01*
X196187500Y-124105000D02*
X196775000Y-124105000D01*
X216881350Y-137686019D02*
X216881350Y-136431111D01*
X158740000Y-130155000D02*
X158740000Y-130650000D01*
X174349094Y-127940000D02*
X174132000Y-127940000D01*
X163989983Y-120201968D02*
X163989983Y-119994330D01*
X204600000Y-112730000D02*
X204600000Y-114192500D01*
X210460033Y-121472072D02*
X216417596Y-115514509D01*
X195930438Y-134262377D02*
X196935348Y-135267286D01*
X192063669Y-133108175D02*
X190994552Y-132039057D01*
X199100000Y-136472094D02*
X199100000Y-136819137D01*
X190994552Y-131611458D02*
X190943094Y-131560000D01*
X160670100Y-120431994D02*
X163759956Y-120431994D01*
X200326116Y-110802225D02*
X199092315Y-112036025D01*
X205600000Y-137400000D02*
X205600000Y-135517500D01*
X217549000Y-115080000D02*
X217860000Y-115080000D01*
X158740000Y-121650000D02*
X158740000Y-122145000D01*
X212520942Y-137973375D02*
X216780954Y-137973375D01*
X206970247Y-137067887D02*
X206706628Y-136804267D01*
X196935348Y-136233842D02*
X197781816Y-137080311D01*
X174085473Y-130229521D02*
X173031427Y-130229521D01*
X198467094Y-114192500D02*
X198250000Y-114192500D01*
X184394902Y-127113475D02*
X179420298Y-127113475D01*
X190325000Y-132036000D02*
X190325000Y-131560000D01*
X165609000Y-133450000D02*
X165232500Y-133073500D01*
X219010000Y-128569344D02*
X219285556Y-128844900D01*
X211607568Y-137060000D02*
X212520942Y-137973375D01*
X159452094Y-121650000D02*
X160670100Y-120431994D01*
X193540862Y-138915686D02*
X194143531Y-139518354D01*
X197818653Y-137055539D02*
X198671388Y-137055539D01*
X197024593Y-131605000D02*
X197042120Y-131622527D01*
X205590000Y-137410000D02*
X205600000Y-137400000D01*
X196625260Y-139518354D02*
X198571906Y-141465000D01*
X196935348Y-135267286D02*
X196935348Y-136233842D01*
X175815000Y-102361000D02*
X175815000Y-102578094D01*
X216550000Y-135961000D02*
X216550000Y-135650000D01*
X209600000Y-112710000D02*
X209600000Y-112991000D01*
X163962992Y-132522586D02*
X163962992Y-132052859D01*
X216550000Y-136099760D02*
X216550000Y-135961000D01*
X172960000Y-129941000D02*
X172960000Y-129640000D01*
X215427379Y-111599834D02*
X216954382Y-113126838D01*
X189460000Y-133880000D02*
X189470000Y-133890000D01*
X205091906Y-137410000D02*
X204552127Y-137949779D01*
X198891968Y-136834959D02*
X199084178Y-136834959D01*
X173031427Y-130229521D02*
X172960000Y-130158094D01*
X197044177Y-130605000D02*
X196925000Y-130605000D01*
X206299267Y-136804267D02*
X205903509Y-136408509D01*
X216954382Y-113126838D02*
X216954382Y-114663310D01*
X197142094Y-124105000D02*
X196925000Y-124105000D01*
X217029618Y-134642288D02*
X216550000Y-135121906D01*
X199110000Y-137721000D02*
X199110000Y-137410000D01*
X168986000Y-133450000D02*
X169203094Y-133450000D01*
X242598000Y-127610000D02*
X242380906Y-127610000D01*
X194155000Y-124135000D02*
X193720491Y-124569509D01*
X202804467Y-121472072D02*
X210460033Y-121472072D01*
X223632675Y-138670960D02*
X220417454Y-141886181D01*
X189470000Y-133890000D02*
X189470000Y-134960000D01*
X198282217Y-137080311D02*
X198611906Y-137410000D01*
X192773796Y-131868525D02*
X193078360Y-131563962D01*
X223632675Y-137073720D02*
X223632675Y-138670960D01*
X199084178Y-136834959D02*
X199084178Y-136954001D01*
X205590000Y-137410000D02*
X205309000Y-137410000D01*
X217512500Y-115955000D02*
X217512500Y-115737906D01*
X196187500Y-131605000D02*
X196925000Y-131605000D01*
X199110000Y-137410000D02*
X199110000Y-137099000D01*
X206777500Y-138925000D02*
X205964000Y-138925000D01*
X164760000Y-119411000D02*
X164760000Y-119140000D01*
X210600000Y-136472094D02*
X210600000Y-136255000D01*
X190994552Y-132039057D02*
X190994552Y-131611458D01*
X190726000Y-131560000D02*
X190325000Y-131560000D01*
X199092315Y-112657862D02*
X199050177Y-112700000D01*
X164513906Y-133073500D02*
X163962992Y-132522586D01*
X235500000Y-127630000D02*
X235520000Y-127610000D01*
X198600000Y-114192500D02*
X198467094Y-114192500D01*
X217860000Y-115361000D02*
X217860000Y-115080000D01*
X194029564Y-145440773D02*
X189376238Y-140787447D01*
X194155000Y-124105000D02*
X194436000Y-124105000D01*
X209600000Y-113455000D02*
X209600000Y-114192500D01*
X193540862Y-134841496D02*
X193540862Y-138915686D01*
X159235000Y-130650000D02*
X158740000Y-130650000D01*
X199132661Y-126095567D02*
X197142094Y-124105000D01*
X198571906Y-141465000D02*
X198789000Y-141465000D01*
X189765733Y-133036173D02*
X189765733Y-132812362D01*
X198829000Y-137410000D02*
X199110000Y-137410000D01*
X238520094Y-127610000D02*
X238303000Y-127610000D01*
X189376238Y-140787447D02*
X182483778Y-140787447D01*
X194010261Y-134372097D02*
X192688910Y-133050745D01*
X217371073Y-115080000D02*
X217549000Y-115080000D01*
X198789000Y-141465000D02*
X199602500Y-141465000D01*
X194119981Y-134262377D02*
X195930438Y-134262377D01*
X219005000Y-128105000D02*
X217512500Y-128105000D01*
X198931000Y-112700000D02*
X198620000Y-112700000D01*
X169203094Y-133450000D02*
X169684185Y-132968910D01*
X172960000Y-129270919D02*
X172960000Y-129339000D01*
X211128094Y-137060000D02*
X211607568Y-137060000D01*
X194653094Y-124105000D02*
X195232906Y-124105000D01*
X205309000Y-137410000D02*
X205091906Y-137410000D01*
X201366729Y-125002191D02*
X202141320Y-124227601D01*
X206777500Y-138925000D02*
X206782500Y-138930000D01*
X216881350Y-136431111D02*
X216550000Y-136099760D01*
X189460000Y-133880000D02*
X189460000Y-133559000D01*
X197042120Y-131663362D02*
X197309530Y-131930771D01*
X168010000Y-133450000D02*
X165609000Y-133450000D01*
X173575295Y-128938799D02*
X173292119Y-128938799D01*
X206706628Y-136804267D02*
X206299267Y-136804267D01*
X209911000Y-112710000D02*
X210128094Y-112710000D01*
X179420298Y-127113475D02*
X179292854Y-126986031D01*
X234971906Y-127630000D02*
X233076394Y-127630000D01*
X210600000Y-136255000D02*
X210600000Y-135517500D01*
X217537909Y-134642288D02*
X217029618Y-134642288D01*
X199110000Y-137099000D02*
X199110000Y-136979823D01*
X196925000Y-130605000D02*
X196187500Y-130605000D01*
X173630000Y-128884094D02*
X173575295Y-128938799D01*
X198620000Y-112700000D02*
X198600000Y-112720000D01*
X209600000Y-112991000D02*
X209600000Y-113208094D01*
X199092315Y-112036025D02*
X199092315Y-112657862D01*
X192688910Y-132934444D02*
X192615695Y-132934444D01*
X210911000Y-137060000D02*
X211128094Y-137060000D01*
X165232500Y-133073500D02*
X164731000Y-133073500D01*
X219586265Y-141886181D02*
X216031673Y-145440773D01*
X216954382Y-114663310D02*
X217371073Y-115080000D01*
X199308950Y-138137044D02*
X199110000Y-137938094D01*
X193730491Y-131148749D02*
X193730491Y-130359509D01*
X158740000Y-121650000D02*
X159235000Y-121650000D01*
X195232906Y-124105000D02*
X195450000Y-124105000D01*
X163759956Y-120431994D02*
X163989983Y-120201968D01*
X163962992Y-132052859D02*
X163872247Y-131962115D01*
X209539952Y-112151858D02*
X209600000Y-112211906D01*
X206970247Y-137441056D02*
X206970247Y-137067887D01*
X217512500Y-115737906D02*
X217860000Y-115390406D01*
X202184130Y-110802225D02*
X200326116Y-110802225D01*
X199100000Y-136819137D02*
X199084178Y-136834959D01*
X210128094Y-112710000D02*
X211238260Y-111599834D01*
X217830000Y-115080000D02*
X217860000Y-115080000D01*
X198611906Y-137410000D02*
X198829000Y-137410000D01*
X192688910Y-133050745D02*
X192688910Y-132934444D01*
X175815000Y-101505000D02*
X175815000Y-102361000D01*
X216031673Y-145440773D02*
X194029564Y-145440773D01*
X209600000Y-112429000D02*
X209600000Y-112710000D01*
X159235000Y-121650000D02*
X159452094Y-121650000D01*
X197197233Y-130838773D02*
X197809727Y-130838773D01*
X204931000Y-112710000D02*
X205148094Y-112710000D01*
X209600000Y-112710000D02*
X209911000Y-112710000D01*
X173630000Y-127213000D02*
X173630000Y-127940000D01*
X219010000Y-128100000D02*
X219005000Y-128105000D01*
X200652099Y-136979823D02*
X199110000Y-136979823D01*
X210600000Y-137060000D02*
X210911000Y-137060000D01*
X205903509Y-136408509D02*
X205600000Y-136105000D01*
X174179442Y-130323490D02*
X174085473Y-130229521D01*
X210071906Y-137060000D02*
X208114393Y-137060000D01*
X189460000Y-133559000D02*
X189460000Y-133341906D01*
X205746906Y-138925000D02*
X204958950Y-138137044D01*
X219285556Y-128844900D02*
X219285556Y-132894641D01*
X164697128Y-119612632D02*
X164760000Y-119549760D01*
X195450000Y-124105000D02*
X196187500Y-124105000D01*
X219010000Y-128100000D02*
X219010000Y-128411000D01*
X172960000Y-129339000D02*
X172960000Y-129640000D01*
X173630000Y-127940000D02*
X173630000Y-128667000D01*
X216550000Y-135339000D02*
X216550000Y-135650000D01*
X189460000Y-133341906D02*
X189765733Y-133036173D01*
X204620000Y-112710000D02*
X204931000Y-112710000D01*
X205148094Y-112710000D02*
X205706236Y-112151858D01*
X207201204Y-137672013D02*
X206970247Y-137441056D01*
X199100000Y-135517500D02*
X199100000Y-136255000D01*
X158740000Y-129937906D02*
X158740000Y-130155000D01*
X175019896Y-126986031D02*
X174713931Y-127291996D01*
X204091906Y-112710000D02*
X202184130Y-110802225D01*
X172960000Y-130158094D02*
X172960000Y-129941000D01*
X197809727Y-130838773D02*
X199132661Y-129515838D01*
X173693644Y-132968910D02*
X174179442Y-132483111D01*
X216550000Y-135650000D02*
X216417500Y-135517500D01*
X201855232Y-137949779D02*
X201274436Y-137368984D01*
X190943094Y-131560000D02*
X190726000Y-131560000D01*
X175815000Y-102578094D02*
X173171523Y-105221571D01*
X233076394Y-127630000D02*
X223632675Y-137073720D01*
X199110000Y-137938094D02*
X199110000Y-137721000D01*
X204552127Y-137949779D02*
X201855232Y-137949779D01*
X173630000Y-128667000D02*
X173630000Y-128884094D01*
X210600000Y-137060000D02*
X210600000Y-136779000D01*
X163989983Y-119994330D02*
X164371681Y-119612632D01*
X204958950Y-138137044D02*
X199308950Y-138137044D01*
X201274436Y-137368984D02*
X201041259Y-137368984D01*
X242380906Y-127610000D02*
X238520094Y-127610000D01*
X199100000Y-136255000D02*
X199100000Y-136472094D01*
X174132000Y-127940000D02*
X173630000Y-127940000D01*
X196775000Y-124105000D02*
X197009271Y-123870729D01*
X196925000Y-124105000D02*
X196187500Y-124105000D01*
X199050177Y-112700000D02*
X198931000Y-112700000D01*
X159452094Y-130650000D02*
X159235000Y-130650000D01*
X210600000Y-136561906D02*
X210600000Y-136472094D01*
X173630000Y-126995906D02*
X173630000Y-127213000D01*
X197042120Y-131622527D02*
X197042120Y-131663362D01*
X209600000Y-113237906D02*
X209600000Y-113455000D01*
X205964000Y-138925000D02*
X205746906Y-138925000D01*
%TO.N,Net-(J3-Pin_1)*%
D56*
X158015000Y-107500000D02*
X157804907Y-107500000D01*
X156870000Y-106565093D02*
X156870000Y-102550093D01*
X158740000Y-107500000D02*
X158015000Y-107500000D01*
X156870000Y-102550093D02*
X156870000Y-102340000D01*
X156870000Y-102340000D02*
X156870000Y-101490000D01*
X157804907Y-107500000D02*
X156870000Y-106565093D01*
%TO.N,Net-(J3-Pin_2)*%
X159410000Y-102556093D02*
X159410000Y-102346000D01*
X159675093Y-108000000D02*
X160077365Y-107597729D01*
X160077365Y-107597729D02*
X160077365Y-103223458D01*
X159465000Y-108000000D02*
X159675093Y-108000000D01*
X160077365Y-103223458D02*
X159410000Y-102556093D01*
X159410000Y-102346000D02*
X159410000Y-101490000D01*
X158740000Y-108000000D02*
X159465000Y-108000000D01*
%TO.N,Net-(J3-Pin_3)*%
X162206994Y-107741994D02*
X161950000Y-107485000D01*
X161950000Y-102556093D02*
X161950000Y-102346000D01*
X161950000Y-107485000D02*
X161950000Y-102556093D01*
X163040000Y-108000000D02*
X162465000Y-108000000D01*
X161950000Y-102346000D02*
X161950000Y-101490000D01*
X162465000Y-108000000D02*
X162206994Y-107741994D01*
%TO.N,Net-(J3-Pin_4)*%
X163040000Y-107500000D02*
X162465000Y-107500000D01*
X162179959Y-107214959D02*
X162179959Y-103800041D01*
X162465000Y-107500000D02*
X162179959Y-107214959D01*
X163736442Y-102243558D02*
X164187500Y-101792500D01*
X162179959Y-103800041D02*
X163736442Y-102243558D01*
X164187500Y-101792500D02*
X164490000Y-101490000D01*
%TO.N,+5V*%
D58*
X234842202Y-120913608D02*
X235517500Y-121588906D01*
X164815000Y-107065000D02*
X164750000Y-107000000D01*
X232900000Y-117080000D02*
X233035709Y-117080000D01*
X176784906Y-121500000D02*
X178719094Y-121500000D01*
X171653151Y-121540000D02*
X172082813Y-121969662D01*
X234842202Y-120162709D02*
X234842202Y-120913608D01*
X222267573Y-139088447D02*
X222267573Y-135195578D01*
X158920000Y-144050000D02*
X159319118Y-144449118D01*
X233621000Y-117665000D02*
X233621000Y-117976000D01*
D57*
X234190000Y-117150000D02*
X232540000Y-115500000D01*
D58*
X228958136Y-115501894D02*
X232538106Y-115501894D01*
X169712906Y-115930000D02*
X163709164Y-115930000D01*
X170680000Y-113458094D02*
X164815000Y-107593094D01*
X158920000Y-142899000D02*
X158920000Y-143625000D01*
X197125628Y-137250868D02*
X197924224Y-137250868D01*
X196414760Y-136540000D02*
X197125628Y-137250868D01*
X170680000Y-116597094D02*
X171860000Y-117777094D01*
X158374905Y-120846553D02*
X158017109Y-121204348D01*
X163709164Y-115930000D02*
X158792611Y-120846553D01*
X240720822Y-122581217D02*
X239774252Y-121634647D01*
X170712000Y-120872906D02*
X170712000Y-121540000D01*
X235517500Y-121588906D02*
X235517500Y-122282000D01*
X169930000Y-115930000D02*
X169712906Y-115930000D01*
X232735000Y-120090000D02*
X233027500Y-119797500D01*
X220643638Y-140569089D02*
X220974984Y-140381036D01*
X224658007Y-132805144D02*
X224658007Y-129505254D01*
X243480000Y-125190000D02*
X243480000Y-123460000D01*
X245079000Y-125310000D02*
X245390000Y-125310000D01*
X170680000Y-115480000D02*
X170680000Y-115262906D01*
X158792611Y-120846553D02*
X158374905Y-120846553D01*
X170680000Y-115262906D02*
X170680000Y-113458094D01*
X183937042Y-118109826D02*
X196926776Y-105120093D01*
X233910000Y-119230507D02*
X234842202Y-120162709D01*
X240720822Y-123649916D02*
X240720822Y-122581217D01*
X183937042Y-118882052D02*
X183937042Y-118109826D01*
X197924224Y-137250868D02*
X199060206Y-138386850D01*
X173967943Y-123048221D02*
X175942024Y-123048221D01*
X232735000Y-121428261D02*
X232735000Y-120090000D01*
X164815000Y-107593094D02*
X164815000Y-107376000D01*
X195300000Y-136540000D02*
X196414760Y-136540000D01*
X205351560Y-139490415D02*
X208701103Y-139490415D01*
X244861906Y-125310000D02*
X245079000Y-125310000D01*
X208701103Y-139490415D02*
X211045819Y-141835132D01*
X180989094Y-119230000D02*
X183589094Y-119230000D01*
X163820000Y-144351000D02*
X163820000Y-143625000D01*
X218576335Y-105120093D02*
X228958136Y-115501894D01*
X158920000Y-142681906D02*
X158920000Y-142899000D01*
X243600000Y-125310000D02*
X244602000Y-125310000D01*
X163820000Y-144568094D02*
X163820000Y-144351000D01*
X175942024Y-123048221D02*
X176749578Y-122240668D01*
X235517500Y-122282000D02*
X235317500Y-122082000D01*
X171860000Y-117777094D02*
X171860000Y-119724906D01*
X170680000Y-115930000D02*
X170680000Y-115480000D01*
X176749578Y-121535328D02*
X176784906Y-121500000D01*
X158017109Y-121204348D02*
X158017109Y-141779015D01*
X183589094Y-119230000D02*
X183937042Y-118882052D01*
X233035709Y-117080000D02*
X233620823Y-117665114D01*
X243600000Y-125310000D02*
X243480000Y-125190000D01*
X178719094Y-121500000D02*
X180989094Y-119230000D01*
X243600000Y-125310000D02*
X242380906Y-125310000D01*
X244819094Y-125310000D02*
X244861906Y-125310000D01*
X244602000Y-125310000D02*
X244819094Y-125310000D01*
X233621000Y-118588399D02*
X233621000Y-118153927D01*
X219048057Y-140569089D02*
X220643638Y-140569089D01*
X235317500Y-122082000D02*
X234064000Y-122082000D01*
X204247995Y-138386850D02*
X205351560Y-139490415D01*
X233621000Y-117976000D02*
X233621000Y-118153927D01*
D57*
X234967500Y-117150000D02*
X234190000Y-117150000D01*
D58*
X242380906Y-125310000D02*
X240720822Y-123649916D01*
X233628053Y-118588399D02*
X233621000Y-118588399D01*
X233027500Y-119181899D02*
X233621000Y-118588399D01*
X164815000Y-107376000D02*
X164815000Y-107065000D01*
X164750000Y-107000000D02*
X163040000Y-107000000D01*
X220974984Y-140381036D02*
X222267573Y-139088447D01*
X233027500Y-119797500D02*
X233027500Y-119181899D01*
X159319118Y-144449118D02*
X159724181Y-144854181D01*
X224658007Y-129505254D02*
X232735000Y-121428261D01*
X159724181Y-144854181D02*
X163533913Y-144854181D01*
X199060206Y-138386850D02*
X204247995Y-138386850D01*
X235615500Y-122380000D02*
X235517500Y-122282000D01*
X163533913Y-144854181D02*
X163820000Y-144568094D01*
X217782015Y-141835132D02*
X219048057Y-140569089D01*
X170680000Y-115930000D02*
X169930000Y-115930000D01*
X211045819Y-141835132D02*
X217782015Y-141835132D01*
X239774252Y-121634647D02*
X236763864Y-121634647D01*
X170680000Y-115930000D02*
X170680000Y-116597094D01*
X171860000Y-119724906D02*
X170712000Y-120872906D01*
X232538106Y-115501894D02*
X232540000Y-115500000D01*
X233910000Y-118877399D02*
X233910000Y-119230507D01*
X158920000Y-143625000D02*
X158920000Y-144050000D01*
X170712000Y-121540000D02*
X171653151Y-121540000D01*
X233621000Y-118588399D02*
X233910000Y-118877399D01*
X196926776Y-105120093D02*
X218576335Y-105120093D01*
X176749578Y-122240668D02*
X176749578Y-121535328D01*
X236763864Y-121634647D02*
X236018511Y-122380000D01*
X158017109Y-141779015D02*
X158920000Y-142681906D01*
X236018511Y-122380000D02*
X235615500Y-122380000D01*
X222267573Y-135195578D02*
X224658007Y-132805144D01*
%TO.N,/SDA*%
D56*
X192459367Y-133944740D02*
X192459367Y-134342762D01*
X163040000Y-106500000D02*
X163765000Y-106500000D01*
X189967554Y-134578947D02*
X190148908Y-134397593D01*
X190148908Y-134397593D02*
X190436150Y-134397593D01*
X195450000Y-133105000D02*
X196187500Y-133105000D01*
X194766568Y-133105000D02*
X195259023Y-133105000D01*
X191680672Y-133634555D02*
X192149181Y-133634555D01*
X163765000Y-106500000D02*
X163898626Y-106500000D01*
X190350000Y-136239000D02*
X190350000Y-136028907D01*
X190751000Y-133880000D02*
X190846393Y-133880000D01*
X189967554Y-135646461D02*
X189967554Y-134578947D01*
X190436150Y-134397593D02*
X190480000Y-134353743D01*
X195259023Y-133105000D02*
X195450000Y-133105000D01*
X190480000Y-133348907D02*
X190519491Y-133309416D01*
X190519491Y-133309416D02*
X191355534Y-133309416D01*
X192149181Y-133634555D02*
X192459367Y-133944740D01*
X190480000Y-134201000D02*
X190480000Y-133880000D01*
X190480000Y-133559000D02*
X190480000Y-133348907D01*
X191355534Y-133309416D02*
X191680672Y-133634555D01*
X191058770Y-134092377D02*
X191058770Y-134233023D01*
X190350000Y-136540000D02*
X190350000Y-136239000D01*
X192459367Y-134342762D02*
X192283472Y-134518657D01*
X194109508Y-133762060D02*
X194766568Y-133105000D01*
X190480000Y-133880000D02*
X190751000Y-133880000D01*
X190480000Y-133880000D02*
X190480000Y-133559000D01*
X164054992Y-106343634D02*
X164054992Y-106259435D01*
X163898626Y-106500000D02*
X164054992Y-106343634D01*
X190350000Y-136028907D02*
X189967554Y-135646461D01*
X190846393Y-133880000D02*
X191058770Y-134092377D01*
X190480000Y-134353743D02*
X190480000Y-134201000D01*
%TO.N,/SCL*%
X195239907Y-132605000D02*
X195450000Y-132605000D01*
X163860393Y-106000000D02*
X163765000Y-106000000D01*
X190350000Y-137509000D02*
X190350000Y-137298907D01*
X191475058Y-137052654D02*
X191475058Y-136205042D01*
X190490000Y-135281000D02*
X190490000Y-134960000D01*
X190827656Y-135828749D02*
X190490000Y-135491093D01*
X194602393Y-132605000D02*
X195239907Y-132605000D01*
X191562540Y-134070952D02*
X192096468Y-134070952D01*
X190350000Y-137810000D02*
X190350000Y-137509000D01*
X190350000Y-137298907D02*
X190422376Y-137226530D01*
X191583873Y-134347220D02*
X190971093Y-134960000D01*
X195450000Y-132605000D02*
X196187500Y-132605000D01*
X191190393Y-133698806D02*
X191562540Y-134070952D01*
X163765000Y-106000000D02*
X163040000Y-106000000D01*
X191820200Y-134347220D02*
X191583873Y-134347220D01*
X190490000Y-135491093D02*
X190490000Y-135281000D01*
X194121005Y-133086389D02*
X194602393Y-132605000D01*
X191098764Y-135828749D02*
X190827656Y-135828749D01*
X190971093Y-134960000D02*
X190761000Y-134960000D01*
X191475058Y-136205042D02*
X191098764Y-135828749D01*
X191301181Y-137226530D02*
X191475058Y-137052654D01*
X192096468Y-134070952D02*
X191820200Y-134347220D01*
X168936788Y-105525675D02*
X164334717Y-105525675D01*
X190422376Y-137226530D02*
X191301181Y-137226530D01*
X190761000Y-134960000D02*
X190490000Y-134960000D01*
X164334717Y-105525675D02*
X163860393Y-106000000D01*
%TO.N,Net-(U1-BOOT0)*%
X184198357Y-120452936D02*
X182068614Y-120452936D01*
X163830393Y-121650000D02*
X163735000Y-121650000D01*
X163901467Y-121350083D02*
X163901467Y-121578926D01*
X200412075Y-115467925D02*
X199563441Y-115467925D01*
X200855512Y-115024488D02*
X200412075Y-115467925D01*
X163735000Y-121650000D02*
X163240000Y-121650000D01*
X201100000Y-114780000D02*
X200855512Y-115024488D01*
X201100000Y-114192500D02*
X201100000Y-114780000D01*
X163901467Y-121578926D02*
X163830393Y-121650000D01*
X179768474Y-122753075D02*
X177544010Y-122753075D01*
X197205485Y-115468800D02*
X189182492Y-115468800D01*
X167458393Y-120877998D02*
X164373552Y-120877998D01*
X164373552Y-120877998D02*
X163901467Y-121350083D01*
X167755390Y-121174995D02*
X167458393Y-120877998D01*
X189182492Y-115468800D02*
X184198357Y-120452936D01*
X182068614Y-120452936D02*
X179768474Y-122753075D01*
X197372331Y-115635646D02*
X197205485Y-115468800D01*
X199563441Y-115467925D02*
X198752428Y-115635646D01*
X198752428Y-115635646D02*
X197372331Y-115635646D01*
%TO.N,Net-(J1-D--PadA7)*%
X160620000Y-142709023D02*
X160620000Y-142900000D01*
X160620000Y-143625000D02*
X160620000Y-139592500D01*
X161620000Y-142900000D02*
X161620000Y-142747257D01*
X161620000Y-143625000D02*
X161620000Y-142900000D01*
X161620000Y-142747257D02*
X161549390Y-142676647D01*
X160620000Y-142900000D02*
X160620000Y-143625000D01*
X161549390Y-142676647D02*
X160652376Y-142676647D01*
X160652376Y-142676647D02*
X160620000Y-142709023D01*
X160620000Y-139592500D02*
X160380000Y-139352500D01*
%TO.N,D-*%
D58*
X163890910Y-137745687D02*
X163287184Y-138349414D01*
X164652580Y-136482370D02*
X163915475Y-137219475D01*
X161650949Y-138373979D02*
X161618854Y-138367594D01*
X167034000Y-135438870D02*
X167016190Y-135436957D01*
X167162909Y-135438870D02*
X167034000Y-135438870D01*
X161311651Y-138034680D02*
X161311651Y-137620258D01*
X165753787Y-136482370D02*
X164652580Y-136482370D01*
X161618854Y-138367594D02*
X161591644Y-138349414D01*
X161336216Y-138093985D02*
X161318035Y-138066776D01*
X161318035Y-138066776D02*
X161311651Y-138034680D01*
X165813093Y-136457805D02*
X165785883Y-136475986D01*
X166067141Y-135611824D02*
X166067141Y-136169016D01*
D59*
X161306260Y-137215513D02*
X161306259Y-137215513D01*
X161306259Y-137215513D01*
X161306259Y-137215513D01*
X161306259Y-137215513D01*
X161306259Y-137215513D01*
X161306259Y-137215513D01*
X161306259Y-137215513D01*
X161306259Y-137215512D01*
X161306259Y-137215512D01*
X161306259Y-137215512D01*
X161306259Y-137215512D01*
X161306259Y-137215512D01*
X161306260Y-137215512D01*
X161306260Y-137215512D01*
X161306260Y-137215512D01*
X161306260Y-137215512D01*
X161306260Y-137215512D01*
X161306260Y-137215512D01*
X161306260Y-137215512D01*
X161306260Y-137215512D01*
X161306260Y-137215512D01*
X161306260Y-137215512D01*
X161306260Y-137215512D01*
X161306260Y-137215512D01*
X161306261Y-137215512D01*
X161306261Y-137215512D01*
X161306261Y-137215512D01*
X161306261Y-137215512D01*
X161306261Y-137215512D01*
X161306261Y-137215512D01*
X161306261Y-137215513D01*
X161306261Y-137215513D01*
X161306261Y-137215513D01*
X161306261Y-137215513D01*
X161306261Y-137215513D01*
X161306261Y-137215513D01*
X161306261Y-137215513D01*
X161306260Y-137215513D01*
X161306260Y-137215513D02*
X161306261Y-137215513D01*
X161306261Y-137215513D01*
X161306261Y-137215513D01*
X161306261Y-137215513D01*
X161306261Y-137215513D01*
X161306261Y-137215513D01*
X161306261Y-137215514D01*
X161306261Y-137215514D01*
X161306261Y-137215514D01*
X161306261Y-137215514D01*
X161306261Y-137215514D01*
X161306261Y-137215514D01*
X161306261Y-137215514D01*
X161306260Y-137215514D01*
X161306260Y-137215514D01*
X161306260Y-137215514D01*
X161306260Y-137215514D01*
X161306260Y-137215514D01*
X161306260Y-137215514D01*
X161306260Y-137215514D01*
X161306260Y-137215514D01*
X161306260Y-137215514D01*
X161306260Y-137215514D01*
X161306260Y-137215514D01*
X161306260Y-137215514D01*
X161306259Y-137215514D01*
X161306259Y-137215514D01*
X161306259Y-137215514D01*
X161306259Y-137215514D01*
X161306259Y-137215514D01*
X161306259Y-137215514D01*
X161306259Y-137215513D01*
X161306259Y-137215513D01*
X161306259Y-137215513D01*
X161306259Y-137215513D01*
X161306259Y-137215513D01*
X161306259Y-137215513D01*
X161306260Y-137215513D01*
D58*
X163915475Y-137219475D02*
X163915475Y-137686382D01*
X166067141Y-136169016D02*
X166060757Y-136201112D01*
X161591644Y-138349414D02*
X161336216Y-138093985D01*
X167243785Y-135491489D02*
X167162909Y-135438870D01*
X168010000Y-135990000D02*
X168010000Y-135689000D01*
X161082000Y-137184679D02*
X160731000Y-137356089D01*
X161303356Y-137250390D02*
X161303766Y-137240019D01*
X161311651Y-137620258D02*
X161303356Y-137250390D01*
X163287184Y-138349414D02*
X163259974Y-138367594D01*
X168010000Y-135491489D02*
X167243785Y-135491489D01*
X166042576Y-136228321D02*
X165813093Y-136457805D01*
X166820229Y-135394372D02*
X166380215Y-135298750D01*
X166060757Y-136201112D02*
X166042576Y-136228321D01*
X168010000Y-135689000D02*
X168010000Y-135491489D01*
X163915475Y-137686382D02*
X163909091Y-137718478D01*
X160731000Y-137356089D02*
X160380000Y-137527500D01*
X167016190Y-135436957D02*
X166820229Y-135394372D01*
X161303766Y-137240019D02*
X161306260Y-137215513D01*
X163227879Y-138373979D02*
X161650949Y-138373979D01*
X163259974Y-138367594D02*
X163227879Y-138373979D01*
X166380215Y-135298750D02*
X166067141Y-135611824D01*
X161321288Y-137067822D02*
X161082000Y-137184679D01*
X163909091Y-137718478D02*
X163890910Y-137745687D01*
X165785883Y-136475986D02*
X165753787Y-136482370D01*
X161306260Y-137215513D02*
X161321288Y-137067822D01*
%TO.N,Net-(C3-Pad2)*%
D56*
X215100000Y-136445977D02*
X215137806Y-136483782D01*
X215100000Y-136255000D02*
X215100000Y-136445977D01*
X215695703Y-136483782D02*
X216420000Y-137208079D01*
X216420000Y-137219000D02*
X216420000Y-137500000D01*
X216420000Y-137208079D02*
X216420000Y-137219000D01*
X215137806Y-136483782D02*
X215695703Y-136483782D01*
X215397000Y-137493500D02*
X215403500Y-137500000D01*
X215403500Y-137500000D02*
X216420000Y-137500000D01*
X215100000Y-135517500D02*
X215100000Y-136255000D01*
%TO.N,Net-(J2-Pad1)*%
X254866189Y-137012398D02*
X254033792Y-136180000D01*
X255319907Y-138405000D02*
X254866189Y-137951283D01*
X251803825Y-130926407D02*
X251370110Y-131360122D01*
X256330000Y-138405000D02*
X255530000Y-138405000D01*
X252245000Y-133786093D02*
X252245000Y-133576000D01*
X252245000Y-133963907D02*
X252245000Y-133786093D01*
X254866189Y-137951283D02*
X254866189Y-137012398D01*
X253063014Y-132873962D02*
X253063014Y-131294943D01*
X252245000Y-133100000D02*
X252646000Y-133100000D01*
X252694478Y-130926407D02*
X251803825Y-130926407D01*
X250615000Y-137053907D02*
X250615000Y-137264000D01*
X252646000Y-133100000D02*
X252836977Y-133100000D01*
X252836977Y-133100000D02*
X253063014Y-132873962D01*
X252245000Y-134650000D02*
X252245000Y-134174000D01*
X250615000Y-137264000D02*
X250615000Y-137740000D01*
X252866093Y-136180000D02*
X252656000Y-136180000D01*
X255530000Y-138405000D02*
X255319907Y-138405000D01*
X252245000Y-133576000D02*
X252245000Y-133100000D01*
X252245000Y-134174000D02*
X252245000Y-133963907D01*
X252245000Y-134650000D02*
X252255000Y-134660000D01*
X252656000Y-136180000D02*
X252255000Y-136180000D01*
X253063014Y-131294943D02*
X252694478Y-130926407D01*
X252255000Y-134660000D02*
X252255000Y-136180000D01*
X251370110Y-136588869D02*
X250971505Y-136987474D01*
X251370110Y-131360122D02*
X251370110Y-136588869D01*
X250971505Y-136987474D02*
X250681433Y-136987474D01*
X254033792Y-136180000D02*
X252866093Y-136180000D01*
X250681433Y-136987474D02*
X250615000Y-137053907D01*
%TO.N,Net-(U1-PF0)*%
X198177839Y-119562254D02*
X204345590Y-119562254D01*
X197135093Y-120605000D02*
X198177839Y-119562254D01*
X249993907Y-136180000D02*
X250204000Y-136180000D01*
X196187500Y-120605000D02*
X196925000Y-120605000D01*
X247468706Y-136180000D02*
X249993907Y-136180000D01*
X250204000Y-136180000D02*
X250605000Y-136180000D01*
X196925000Y-120605000D02*
X197135093Y-120605000D01*
X246863307Y-135574601D02*
X247468706Y-136180000D01*
%TO.N,Net-(J7-Pin_1)*%
X213100000Y-113605000D02*
X213398558Y-113306442D01*
X213100000Y-114192500D02*
X213100000Y-113605000D01*
X213398558Y-113306442D02*
X213638775Y-113066225D01*
X214978138Y-112138068D02*
X215389345Y-112138068D01*
X213912913Y-113066225D02*
X214098544Y-112880594D01*
X214098544Y-112880594D02*
X214235613Y-112880594D01*
X214235613Y-112880594D02*
X214978138Y-112138068D01*
X213638775Y-113066225D02*
X213912913Y-113066225D01*
%TO.N,Net-(J7-Pin_2)*%
X212898558Y-113306442D02*
X212600000Y-113605000D01*
X213951330Y-112596518D02*
X213608482Y-112596518D01*
X212600000Y-113605000D02*
X212600000Y-114192500D01*
X213608482Y-112596518D02*
X212898558Y-113306442D01*
%TO.N,Net-(J7-Pin_3)*%
X212100000Y-113455000D02*
X212100000Y-113359607D01*
X212100000Y-114192500D02*
X212100000Y-113455000D01*
X212286486Y-113173121D02*
X212392597Y-113173121D01*
X212100000Y-113359607D02*
X212286486Y-113173121D01*
%TO.N,Net-(J7-Pin_4)*%
X211600000Y-113455000D02*
X211600000Y-113244907D01*
X212156663Y-112688244D02*
X212386180Y-112688244D01*
X211600000Y-114192500D02*
X211600000Y-113455000D01*
X211600000Y-113244907D02*
X212156663Y-112688244D01*
%TO.N,Net-(J7-Pin_5)*%
X211319722Y-112846638D02*
X211319722Y-113025185D01*
X211100000Y-113455000D02*
X211100000Y-114192500D01*
X211100000Y-113244907D02*
X211100000Y-113455000D01*
X211319722Y-113025185D02*
X211100000Y-113244907D01*
X211506452Y-112659908D02*
X211319722Y-112846638D01*
%TO.N,Net-(J7-Pin_6)*%
X210600000Y-113244907D02*
X211003465Y-112841442D01*
X210600000Y-114192500D02*
X210600000Y-113455000D01*
X211003465Y-112841442D02*
X211003465Y-112691822D01*
X211773297Y-111921990D02*
X212866729Y-111921990D01*
X211003465Y-112691822D02*
X211773297Y-111921990D01*
X210600000Y-113455000D02*
X210600000Y-113244907D01*
%TO.N,Net-(J7-Pin_7)*%
X209100000Y-113340490D02*
X209100000Y-113193552D01*
X209100000Y-113193552D02*
X209046307Y-113139859D01*
X209100000Y-113455000D02*
X209100000Y-113340490D01*
X209100000Y-114192500D02*
X209100000Y-113455000D01*
%TO.N,Net-(J7-Pin_8)*%
X231588504Y-110182884D02*
X235514719Y-106256669D01*
X243386442Y-102253558D02*
X243837500Y-101802500D01*
X208600000Y-115025393D02*
X208600000Y-114930000D01*
X235514719Y-106256669D02*
X239383331Y-106256669D01*
X208600000Y-114930000D02*
X208600000Y-114192500D01*
X208122251Y-115316568D02*
X208308825Y-115316568D01*
X227929974Y-110182884D02*
X231588504Y-110182884D01*
X208308825Y-115316568D02*
X208600000Y-115025393D01*
X239383331Y-106256669D02*
X243386442Y-102253558D01*
X243837500Y-101802500D02*
X244140000Y-101500000D01*
%TO.N,Net-(J7-Pin_9)*%
X235733075Y-104328703D02*
X238771297Y-104328703D01*
X213329664Y-126393402D02*
X213329664Y-122253206D01*
X216564907Y-131605000D02*
X214262075Y-129302168D01*
X240846442Y-102253558D02*
X241297500Y-101802500D01*
X231049691Y-109012087D02*
X235733075Y-104328703D01*
X227745707Y-111053470D02*
X227578887Y-110886650D01*
X214262075Y-129302168D02*
X214262075Y-127325813D01*
X213329664Y-122253206D02*
X213893882Y-121688987D01*
X241297500Y-101802500D02*
X241600000Y-101500000D01*
X227578887Y-110025050D02*
X228591850Y-109012087D01*
X228591850Y-109012087D02*
X231049691Y-109012087D01*
X227578887Y-110886650D02*
X227578887Y-110025050D01*
X238771297Y-104328703D02*
X240846442Y-102253558D01*
X217512500Y-131605000D02*
X216775000Y-131605000D01*
X216775000Y-131605000D02*
X216564907Y-131605000D01*
X214262075Y-127325813D02*
X213329664Y-126393402D01*
%TO.N,Net-(J7-Pin_10)*%
X237387387Y-102253558D02*
X238306442Y-102253558D01*
X232574543Y-107066402D02*
X237387387Y-102253558D01*
X238757500Y-101802500D02*
X239060000Y-101500000D01*
X238306442Y-102253558D02*
X238757500Y-101802500D01*
X216775000Y-131105000D02*
X217512500Y-131105000D01*
X215869388Y-128416179D02*
X215869388Y-130409482D01*
X214931393Y-127478184D02*
X215869388Y-128416179D01*
X214931393Y-122469928D02*
X214931393Y-127478184D01*
X225987046Y-111333597D02*
X230254242Y-107066402D01*
X215869388Y-130409482D02*
X216564907Y-131105000D01*
X225987046Y-111614306D02*
X225987046Y-111333597D01*
X216564907Y-131105000D02*
X216775000Y-131105000D01*
X230254242Y-107066402D02*
X232574543Y-107066402D01*
X214734270Y-122272805D02*
X214931393Y-122469928D01*
%TO.N,Net-(J7-Pin_11)*%
X215148455Y-120914733D02*
X215148455Y-127164852D01*
X216925000Y-130605000D02*
X217512500Y-130605000D01*
X216653477Y-130333477D02*
X216925000Y-130605000D01*
X215148455Y-127164852D02*
X216071484Y-128087881D01*
X236217500Y-101802500D02*
X236520000Y-101500000D01*
X229822094Y-106066948D02*
X231953052Y-106066948D01*
X231953052Y-106066948D02*
X235766442Y-102253558D01*
X214880991Y-120647269D02*
X215148455Y-120914733D01*
X216071484Y-128087881D02*
X216071484Y-129751484D01*
X216071484Y-129751484D02*
X216653477Y-130333477D01*
X235766442Y-102253558D02*
X236217500Y-101802500D01*
X226099291Y-109789751D02*
X229822094Y-106066948D01*
%TO.N,Net-(J7-Pin_12)*%
X216339924Y-129519924D02*
X216680512Y-129860512D01*
X225832496Y-112045620D02*
X225612438Y-111825562D01*
X232943875Y-102253558D02*
X233226442Y-102253558D01*
X216925000Y-130105000D02*
X217512500Y-130105000D01*
X225612438Y-109584996D02*
X232943875Y-102253558D01*
X225612438Y-111825562D02*
X225612438Y-109584996D01*
X216680512Y-129860512D02*
X216925000Y-130105000D01*
X233677500Y-101802500D02*
X233980000Y-101500000D01*
X233226442Y-102253558D02*
X233677500Y-101802500D01*
X215899150Y-126157925D02*
X216339924Y-126598699D01*
X216339924Y-126598699D02*
X216339924Y-129519924D01*
X226692017Y-112045620D02*
X225832496Y-112045620D01*
%TO.N,Net-(J7-Pin_13)*%
X218510203Y-129731577D02*
X218383626Y-129605000D01*
X218539838Y-129745993D02*
X218525422Y-129731577D01*
X218525422Y-129731577D02*
X218510203Y-129731577D01*
X218250000Y-129605000D02*
X217512500Y-129605000D01*
X218383626Y-129605000D02*
X218250000Y-129605000D01*
%TO.N,Net-(J7-Pin_14)*%
X215445145Y-120068259D02*
X215445145Y-125106183D01*
X216925000Y-129105000D02*
X217512500Y-129105000D01*
X228146442Y-102253558D02*
X228597500Y-101802500D01*
X215202310Y-119825424D02*
X215445145Y-120068259D01*
X216666994Y-128846994D02*
X216925000Y-129105000D01*
X215445145Y-125106183D02*
X216578375Y-126239413D01*
X225171483Y-109934468D02*
X225171483Y-105228517D01*
X216578375Y-128758375D02*
X216666994Y-128846994D01*
X216578375Y-126239413D02*
X216578375Y-128758375D01*
X225171483Y-105228517D02*
X228146442Y-102253558D01*
X228597500Y-101802500D02*
X228900000Y-101500000D01*
%TO.N,Net-(J7-Pin_15)*%
X219940443Y-116787122D02*
X220203071Y-116787122D01*
X221167287Y-119156393D02*
X219838000Y-117827105D01*
X221167287Y-123719603D02*
X221167287Y-119156393D01*
X218250000Y-127605000D02*
X218345393Y-127605000D01*
X218345393Y-127605000D02*
X220332710Y-125617683D01*
X220332710Y-124720206D02*
X220487456Y-124565461D01*
X220203071Y-116787122D02*
X220722412Y-116267781D01*
X223979780Y-107605051D02*
X223979780Y-103880220D01*
X225606442Y-102253558D02*
X226057500Y-101802500D01*
X219838000Y-116889565D02*
X219940443Y-116787122D01*
X220487456Y-124399435D02*
X221167287Y-123719603D01*
X220722412Y-109663722D02*
X221284903Y-109101231D01*
X220487456Y-124565461D02*
X220487456Y-124399435D01*
X219838000Y-117827105D02*
X219838000Y-116889565D01*
X220722412Y-116267781D02*
X220722412Y-109663722D01*
X223979780Y-103880220D02*
X225606442Y-102253558D01*
X226057500Y-101802500D02*
X226360000Y-101500000D01*
X220332710Y-125617683D02*
X220332710Y-124720206D01*
X217512500Y-127605000D02*
X218250000Y-127605000D01*
%TO.N,Net-(J7-Pin_16)*%
X221222499Y-104097501D02*
X223066442Y-102253558D01*
X218250000Y-127105000D02*
X218421860Y-127105000D01*
X220348712Y-104097501D02*
X221222499Y-104097501D01*
X223066442Y-102253558D02*
X223517500Y-101802500D01*
X217512500Y-127105000D02*
X218250000Y-127105000D01*
X218540113Y-126986747D02*
X218540113Y-126906681D01*
X218421860Y-127105000D02*
X218540113Y-126986747D01*
X223517500Y-101802500D02*
X223820000Y-101500000D01*
%TO.N,/NRST*%
X172521442Y-100751442D02*
X172972500Y-101202500D01*
X194155000Y-128671393D02*
X194155000Y-128742073D01*
X172192254Y-100422254D02*
X172521442Y-100751442D01*
X163210000Y-110275000D02*
X163210000Y-110064907D01*
X160951098Y-101090619D02*
X161619463Y-100422254D01*
X163210000Y-110064907D02*
X160951098Y-107806005D01*
X161619463Y-100422254D02*
X172192254Y-100422254D01*
X196187500Y-128105000D02*
X194315000Y-128105000D01*
X160951098Y-107806005D02*
X160951098Y-101090619D01*
X194155000Y-128265000D02*
X194155000Y-128576000D01*
X194155000Y-128576000D02*
X194155000Y-128671393D01*
X194315000Y-128105000D02*
X194155000Y-128265000D01*
X172972500Y-101202500D02*
X173275000Y-101505000D01*
X163210000Y-110770000D02*
X163210000Y-110275000D01*
X194155000Y-128742073D02*
X193987068Y-128910005D01*
%TO.N,Net-(BT1-+)*%
X196131000Y-118548500D02*
X194155000Y-118548500D01*
X188587005Y-118764167D02*
X189668613Y-117682558D01*
X193725442Y-117682558D02*
X194155000Y-117253000D01*
X196187500Y-118605000D02*
X196131000Y-118548500D01*
X194155000Y-117253000D02*
X194155000Y-117223500D01*
X189668613Y-117682558D02*
X193725442Y-117682558D01*
X194155000Y-118027907D02*
X194155000Y-117744093D01*
X194155000Y-118548500D02*
X194155000Y-118238000D01*
X194155000Y-117534000D02*
X194155000Y-117223500D01*
X194155000Y-117744093D02*
X194155000Y-117534000D01*
X194155000Y-118238000D02*
X194155000Y-118027907D01*
%TO.N,Net-(J2-Pad2)*%
X252275000Y-125986093D02*
X252275000Y-126163907D01*
X252265000Y-129106093D02*
X252265000Y-128896000D01*
X253295449Y-133080449D02*
X253295449Y-130514096D01*
X251663907Y-126850000D02*
X251874000Y-126850000D01*
X252275000Y-126374000D02*
X252275000Y-126850000D01*
X251907993Y-130685460D02*
X251535199Y-130312666D01*
X252285000Y-123770000D02*
X252275000Y-123780000D01*
X253295449Y-130514096D02*
X253295449Y-129826007D01*
X253295449Y-130514096D02*
X253176823Y-130514096D01*
X252265000Y-128896000D02*
X252265000Y-128420000D01*
X252275000Y-125776000D02*
X252275000Y-125986093D01*
X251535199Y-130312666D02*
X251535199Y-126978708D01*
X253005459Y-130685460D02*
X251907993Y-130685460D01*
X252275000Y-125300000D02*
X252275000Y-125776000D01*
X256045250Y-135830250D02*
X255611942Y-135396942D01*
X253295449Y-129826007D02*
X252575536Y-129106093D01*
X256330000Y-136115000D02*
X256045250Y-135830250D01*
X251535199Y-126978708D02*
X251663907Y-126850000D01*
X253176823Y-130514096D02*
X253005459Y-130685460D01*
X255611942Y-135396942D02*
X253295449Y-133080449D01*
X252575536Y-129106093D02*
X252265000Y-129106093D01*
X252275000Y-126163907D02*
X252275000Y-126374000D01*
X251874000Y-126850000D02*
X252275000Y-126850000D01*
X252275000Y-123780000D02*
X252275000Y-125300000D01*
%TO.N,Net-(J2-Pad3)*%
X252275500Y-140343000D02*
X252275500Y-140152023D01*
X256045250Y-133540250D02*
X255611942Y-133106942D01*
X251886805Y-127682655D02*
X251722588Y-127846872D01*
X251722588Y-129052851D02*
X251938959Y-129269222D01*
X252265000Y-129524000D02*
X252265000Y-130000000D01*
X252255000Y-131550000D02*
X252255000Y-132026000D01*
X251903786Y-132292441D02*
X251594302Y-132601925D01*
X251938959Y-129269222D02*
X252220315Y-129269222D01*
X254286499Y-136940042D02*
X251845031Y-136940042D01*
X252275500Y-140819500D02*
X252275500Y-140343000D01*
X256330000Y-133825000D02*
X256045250Y-133540250D01*
X252275500Y-142349500D02*
X252275500Y-140819500D01*
X252219046Y-140095570D02*
X251925462Y-140095570D01*
X255611942Y-133106942D02*
X254177550Y-131672550D01*
X252255000Y-132236093D02*
X252198652Y-132292441D01*
X251594302Y-136689313D02*
X251845031Y-136940042D01*
X252275500Y-140152023D02*
X252219046Y-140095570D01*
X254478000Y-137131543D02*
X254286499Y-136940042D01*
X251594302Y-132601925D02*
X251594302Y-136689313D01*
X254177550Y-129252788D02*
X252607417Y-127682655D01*
X252255000Y-132026000D02*
X252255000Y-132236093D01*
X252220315Y-129269222D02*
X252265000Y-129313907D01*
X252607417Y-127682655D02*
X251886805Y-127682655D01*
X251925462Y-140095570D02*
X251614299Y-139784407D01*
X252265000Y-129313907D02*
X252265000Y-129524000D01*
X251614299Y-137170774D02*
X251845031Y-136940042D01*
X251614299Y-139784407D02*
X251614299Y-137170774D01*
X252255500Y-142369500D02*
X252275500Y-142349500D01*
X254177550Y-131672550D02*
X254177550Y-129252788D01*
X252198652Y-132292441D02*
X251903786Y-132292441D01*
X251722588Y-127846872D02*
X251722588Y-129052851D01*
%TO.N,Net-(J2-Pad13)*%
X257257819Y-136853557D02*
X257870001Y-136241375D01*
X252876093Y-139290000D02*
X253074178Y-139488085D01*
X257257819Y-139251828D02*
X257257819Y-136853557D01*
X258270256Y-136241375D02*
X259411942Y-135099689D01*
X252265000Y-139290000D02*
X252666000Y-139290000D01*
X257021562Y-139488085D02*
X257257819Y-139251828D01*
X259845250Y-134109750D02*
X260130000Y-133825000D01*
X253074178Y-139488085D02*
X257021562Y-139488085D01*
X259411942Y-135099689D02*
X259411942Y-134543058D01*
X257870001Y-136241375D02*
X258270256Y-136241375D01*
X252666000Y-139290000D02*
X252876093Y-139290000D01*
X259411942Y-134543058D02*
X259845250Y-134109750D01*
%TO.N,Net-(J2-Pad14)*%
X259411942Y-130816942D02*
X259845250Y-131250250D01*
X252666000Y-122200000D02*
X252876093Y-122200000D01*
X252876093Y-122200000D02*
X258740491Y-128064398D01*
X259411942Y-129939082D02*
X259411942Y-130816942D01*
X258740491Y-129267632D02*
X259411942Y-129939082D01*
X259845250Y-131250250D02*
X260130000Y-131535000D01*
X252265000Y-122200000D02*
X252666000Y-122200000D01*
X258740491Y-128064398D02*
X258740491Y-129267632D01*
%TO.N,Net-(U1-PF9)*%
X249993907Y-142369500D02*
X250204000Y-142369500D01*
X195600000Y-126105000D02*
X196187500Y-126105000D01*
X247105987Y-142369500D02*
X249993907Y-142369500D01*
X250204000Y-142369500D02*
X250605500Y-142369500D01*
X195175383Y-125397124D02*
X195175383Y-125680383D01*
X195175383Y-125680383D02*
X195355512Y-125860512D01*
X244508259Y-139771772D02*
X247105987Y-142369500D01*
X233956670Y-139771772D02*
X244508259Y-139771772D01*
X195355512Y-125860512D02*
X195600000Y-126105000D01*
%TO.N,Net-(U1-PH1)*%
X196187500Y-127605000D02*
X195450000Y-127605000D01*
X191922000Y-128770000D02*
X192132093Y-128770000D01*
X192132093Y-128770000D02*
X192551980Y-128350113D01*
X194155000Y-126136093D02*
X194155000Y-125926000D01*
X195239907Y-127605000D02*
X193998181Y-127605000D01*
X194155000Y-125926000D02*
X194155000Y-125615000D01*
X192551980Y-128350113D02*
X192551980Y-128042735D01*
X192923962Y-127670753D02*
X193319970Y-127670753D01*
X193691952Y-126599141D02*
X194155000Y-126136093D01*
X193691952Y-127298771D02*
X193691952Y-126599141D01*
X193998181Y-127605000D02*
X193691952Y-127298771D01*
X195450000Y-127605000D02*
X195239907Y-127605000D01*
X192551980Y-128042735D02*
X192923962Y-127670753D01*
X191320000Y-128770000D02*
X191922000Y-128770000D01*
X193319970Y-127670753D02*
X193691952Y-127298771D01*
%TO.N,Net-(U1-PH0)*%
X196187500Y-127105000D02*
X194320000Y-127105000D01*
X194571041Y-125255375D02*
X194571041Y-126493959D01*
X190432093Y-126570000D02*
X190600496Y-126401597D01*
X190600496Y-125813590D02*
X191228056Y-125186031D01*
X190600496Y-126401597D02*
X190600496Y-125813590D01*
X194501697Y-125186031D02*
X194571041Y-125255375D01*
X191228056Y-125186031D02*
X194501697Y-125186031D01*
X194320000Y-127105000D02*
X194155000Y-126940000D01*
X190222000Y-126570000D02*
X190432093Y-126570000D01*
X194155000Y-126910000D02*
X194155000Y-126940000D01*
X194571041Y-126493959D02*
X194155000Y-126910000D01*
X189620000Y-126570000D02*
X190222000Y-126570000D01*
%TO.N,Net-(U1-PF13)*%
X206100000Y-134569907D02*
X206100000Y-134780000D01*
X244560659Y-128573994D02*
X249986001Y-123148652D01*
X240045088Y-128573994D02*
X244560659Y-128573994D01*
X232488658Y-133608363D02*
X235010719Y-133608363D01*
X250615000Y-122676000D02*
X250615000Y-122200000D01*
X249986001Y-123148652D02*
X250413603Y-123148652D01*
X207503887Y-134491568D02*
X206178339Y-134491568D01*
X250615000Y-122947254D02*
X250615000Y-122886093D01*
X250413603Y-123148652D02*
X250615000Y-122947254D01*
X206178339Y-134491568D02*
X206100000Y-134569907D01*
X235010719Y-133608363D02*
X240045088Y-128573994D01*
X250615000Y-122886093D02*
X250615000Y-122676000D01*
X206100000Y-134780000D02*
X206100000Y-135517500D01*
X227635835Y-138461186D02*
X232488658Y-133608363D01*
%TO.N,Net-(R2-Pad1)*%
X165229558Y-118828912D02*
X165229558Y-119740442D01*
X163210000Y-119064907D02*
X163642816Y-118632091D01*
X163642816Y-118632091D02*
X165032737Y-118632091D01*
X164810000Y-120160000D02*
X164760000Y-120160000D01*
X163210000Y-119275000D02*
X163210000Y-119064907D01*
X163210000Y-119770000D02*
X163210000Y-119275000D01*
X165032737Y-118632091D02*
X165229558Y-118828912D01*
X165229558Y-119740442D02*
X164810000Y-120160000D01*
%TO.N,Net-(U1-PF11)*%
X247959286Y-140819500D02*
X250013907Y-140819500D01*
X204638778Y-134145829D02*
X205033191Y-134145829D01*
X250013907Y-140819500D02*
X250224000Y-140819500D01*
X247818385Y-140960401D02*
X247959286Y-140819500D01*
X205033191Y-134145829D02*
X205259621Y-133919398D01*
X204100000Y-134780000D02*
X204100000Y-134684607D01*
X204100000Y-135517500D02*
X204100000Y-134780000D01*
X205259621Y-133919398D02*
X206048623Y-133919398D01*
X250224000Y-140819500D02*
X250625500Y-140819500D01*
X204100000Y-134684607D02*
X204638778Y-134145829D01*
%TO.N,Net-(U1-PF4)*%
X250003907Y-128420000D02*
X250214000Y-128420000D01*
X241878224Y-130787730D02*
X241878224Y-129696716D01*
X245169348Y-128420000D02*
X250003907Y-128420000D01*
X196925000Y-122605000D02*
X196187500Y-122605000D01*
X205058195Y-120527004D02*
X204757740Y-120827459D01*
X241878224Y-129696716D02*
X242562678Y-129012263D01*
X244577085Y-129012263D02*
X245169348Y-128420000D01*
X250214000Y-128420000D02*
X250615000Y-128420000D01*
X242562678Y-129012263D02*
X244577085Y-129012263D01*
X204757740Y-120827459D02*
X202252457Y-120827459D01*
X197135093Y-122605000D02*
X196925000Y-122605000D01*
X240241728Y-132424226D02*
X241878224Y-130787730D01*
X200474917Y-122605000D02*
X197135093Y-122605000D01*
X202252457Y-120827459D02*
X200474917Y-122605000D01*
%TO.N,Net-(J1-CC1)*%
X163193816Y-144686570D02*
X163394500Y-144485887D01*
X160350971Y-144430971D02*
X160606570Y-144686570D01*
X157686000Y-142973093D02*
X157000000Y-142287093D01*
X158980503Y-144510571D02*
X157751071Y-144510571D01*
X163965400Y-142255230D02*
X164832023Y-142255230D01*
X160120000Y-144200000D02*
X160350971Y-144430971D01*
X163394500Y-142826130D02*
X163965400Y-142255230D01*
X165016500Y-144470125D02*
X164201860Y-144470125D01*
X157686000Y-144445500D02*
X157686000Y-142973093D01*
X160120000Y-143625000D02*
X160120000Y-144200000D01*
X163658531Y-145013454D02*
X159483386Y-145013454D01*
X160606570Y-144686570D02*
X163193816Y-144686570D01*
X159483386Y-145013454D02*
X158980503Y-144510571D01*
X157751071Y-144510571D02*
X157686000Y-144445500D01*
X164201860Y-144470125D02*
X163658531Y-145013454D01*
X165051955Y-142475162D02*
X165051955Y-144434670D01*
X165051955Y-144434670D02*
X165016500Y-144470125D01*
X157000000Y-142287093D02*
X157000000Y-142077000D01*
X157000000Y-142077000D02*
X157000000Y-141562500D01*
X163394500Y-144485887D02*
X163394500Y-142826130D01*
X164832023Y-142255230D02*
X165051955Y-142475162D01*
%TO.N,Net-(J1-D+-PadA6)*%
X161364488Y-144444488D02*
X161120000Y-144200000D01*
X161120000Y-144200000D02*
X161120000Y-143625000D01*
X162120000Y-144200000D02*
X161834959Y-144485041D01*
X162440000Y-139375000D02*
X162120000Y-139695000D01*
X161405041Y-144485041D02*
X161364488Y-144444488D01*
X161834959Y-144485041D02*
X161405041Y-144485041D01*
X162120000Y-139695000D02*
X162120000Y-143625000D01*
X162120000Y-143625000D02*
X162120000Y-144200000D01*
%TO.N,Net-(J1-CC2)*%
X163120000Y-142804607D02*
X164362107Y-141562500D01*
X164837907Y-141562500D02*
X165048000Y-141562500D01*
X164362107Y-141562500D02*
X164837907Y-141562500D01*
X165048000Y-141562500D02*
X165750000Y-141562500D01*
X163120000Y-142900000D02*
X163120000Y-142804607D01*
X163120000Y-143625000D02*
X163120000Y-142900000D01*
%TO.N,Net-(U5-FB)*%
X244902418Y-125939107D02*
X244902418Y-126258121D01*
X237779093Y-122282000D02*
X237569000Y-122282000D01*
X246455516Y-125258557D02*
X245844512Y-125869560D01*
X242681093Y-120760000D02*
X243244005Y-120760000D01*
X244902418Y-126258121D02*
X244651816Y-126508723D01*
X241726000Y-117458000D02*
X241726000Y-116982000D01*
X241807500Y-120760000D02*
X242471000Y-120760000D01*
X237569000Y-122282000D02*
X237167500Y-122282000D01*
X241726000Y-117668093D02*
X241726000Y-117458000D01*
X241063029Y-120378029D02*
X241001222Y-120316222D01*
X242471000Y-120760000D02*
X242681093Y-120760000D01*
X241445000Y-120760000D02*
X241063029Y-120378029D01*
X243244005Y-120760000D02*
X246455516Y-123971510D01*
X242005817Y-126508723D02*
X237779093Y-122282000D01*
X241807500Y-120760000D02*
X241445000Y-120760000D01*
X241001222Y-120316222D02*
X241001222Y-118392871D01*
X241001222Y-118392871D02*
X241726000Y-117668093D01*
X246455516Y-123971510D02*
X246455516Y-125258557D01*
X244651816Y-126508723D02*
X242005817Y-126508723D01*
X245844512Y-125869560D02*
X244971965Y-125869560D01*
X244971965Y-125869560D02*
X244902418Y-125939107D01*
%TO.N,Net-(U11-DOUT)*%
X176750000Y-124070000D02*
X176750000Y-124758093D01*
X173692747Y-123580747D02*
X176260747Y-123580747D01*
X173370740Y-123258740D02*
X173692747Y-123580747D01*
X176750000Y-124758093D02*
X176791907Y-124800000D01*
X174728374Y-121540000D02*
X173370740Y-122897634D01*
X176791907Y-124800000D02*
X177752000Y-124800000D01*
X173370740Y-122897634D02*
X173370740Y-123258740D01*
X176260747Y-123580747D02*
X176750000Y-124070000D01*
X175612000Y-121540000D02*
X174728374Y-121540000D01*
%TO.N,Net-(U10-DOUT)*%
X182652000Y-121500000D02*
X181691907Y-121500000D01*
X176550514Y-122129486D02*
X176550514Y-121149486D01*
X176950000Y-120750000D02*
X178462093Y-120750000D01*
X176550514Y-121149486D02*
X176950000Y-120750000D01*
X178462093Y-120750000D02*
X182622000Y-116590093D01*
X182622000Y-116590093D02*
X182622000Y-115930000D01*
X174085772Y-122477492D02*
X176202508Y-122477492D01*
X173832213Y-123370935D02*
X173541482Y-123080205D01*
X179820972Y-123370935D02*
X173832213Y-123370935D01*
X173541482Y-123080205D02*
X173541482Y-123021782D01*
X173541482Y-123021782D02*
X174085772Y-122477492D01*
X181691907Y-121500000D02*
X179820972Y-123370935D01*
X176202508Y-122477492D02*
X176550514Y-122129486D01*
%TO.N,Net-(U1-PF2)*%
X196925000Y-121605000D02*
X196187500Y-121605000D01*
X197135093Y-121605000D02*
X196925000Y-121605000D01*
X252923952Y-137787859D02*
X252923952Y-138404269D01*
X252876093Y-137740000D02*
X252923952Y-137787859D01*
X252265000Y-137740000D02*
X252666000Y-137740000D01*
X198333295Y-121605000D02*
X197135093Y-121605000D01*
X252666000Y-137740000D02*
X252876093Y-137740000D01*
X252923952Y-138404269D02*
X252887070Y-138441152D01*
X198390840Y-121662545D02*
X198333295Y-121605000D01*
%TO.N,Net-(U1-VDDA)*%
X196052500Y-132240000D02*
X196187500Y-132105000D01*
X192788399Y-129426413D02*
X191975000Y-130239812D01*
X191975000Y-130239812D02*
X191975000Y-130873907D01*
X194155000Y-131436093D02*
X194155000Y-131718907D01*
X194571041Y-130468959D02*
X194571041Y-129481480D01*
X194155000Y-131226000D02*
X194155000Y-131436093D01*
X194155000Y-130915000D02*
X194155000Y-131226000D01*
X191975000Y-130873907D02*
X191975000Y-131084000D01*
X191975000Y-131084000D02*
X191975000Y-131560000D01*
X194155000Y-130915000D02*
X194155000Y-130885000D01*
X194155000Y-131929000D02*
X194155000Y-132240000D01*
X194155000Y-130885000D02*
X194571041Y-130468959D01*
X194515974Y-129426413D02*
X192788399Y-129426413D01*
X194155000Y-132240000D02*
X196052500Y-132240000D01*
X194155000Y-131718907D02*
X194155000Y-131929000D01*
X194571041Y-129481480D02*
X194515974Y-129426413D01*
%TO.N,Net-(J8-Pin_1)*%
X199230158Y-115149842D02*
X199179328Y-115149842D01*
X198771460Y-115262908D02*
X197844037Y-115262908D01*
X199179328Y-115149842D02*
X198774702Y-115266151D01*
X197486435Y-115129538D02*
X195219141Y-112862244D01*
X197844037Y-115262908D02*
X197486435Y-115129538D01*
X199600000Y-114780000D02*
X199301442Y-115078558D01*
X198774702Y-115266151D02*
X198771460Y-115262908D01*
X199600000Y-114192500D02*
X199600000Y-114780000D01*
X199301442Y-115078558D02*
X199230158Y-115149842D01*
X195219141Y-112862244D02*
X191407202Y-112862244D01*
%TO.N,Net-(J8-Pin_2)*%
X198006467Y-115083725D02*
X197645886Y-114943382D01*
X178852079Y-122319841D02*
X177780980Y-122319841D01*
X183762342Y-119963204D02*
X181208715Y-119963204D01*
X198841994Y-115038006D02*
X198796275Y-115083725D01*
X199100000Y-114192500D02*
X199100000Y-114780000D01*
X195244100Y-112541596D02*
X191183950Y-112541596D01*
X198796275Y-115083725D02*
X198006467Y-115083725D01*
X191183950Y-112541596D02*
X183762342Y-119963204D01*
X181208715Y-119963204D02*
X178852079Y-122319841D01*
X197645886Y-114943382D02*
X195244100Y-112541596D01*
X199100000Y-114780000D02*
X198841994Y-115038006D01*
%TO.N,Net-(J8-Pin_3)*%
X182967064Y-123317430D02*
X190179494Y-116105000D01*
X179337817Y-125526443D02*
X181546829Y-123317430D01*
X195450000Y-116105000D02*
X196187500Y-116105000D01*
X195239907Y-116105000D02*
X195450000Y-116105000D01*
X190179494Y-116105000D02*
X195239907Y-116105000D01*
X181546829Y-123317430D02*
X182967064Y-123317430D01*
%TO.N,Net-(J8-Pin_4)*%
X195450000Y-116605000D02*
X196187500Y-116605000D01*
X180014252Y-125520892D02*
X181739292Y-123795852D01*
X190038871Y-116605000D02*
X195239907Y-116605000D01*
X181739292Y-123795852D02*
X182848019Y-123795852D01*
X195239907Y-116605000D02*
X195450000Y-116605000D01*
X182848019Y-123795852D02*
X190038871Y-116605000D01*
%TO.N,Net-(J8-Pin_5)*%
X181708902Y-122651087D02*
X177878252Y-126481737D01*
X196988779Y-115836655D02*
X190215654Y-115836655D01*
X196925000Y-117105000D02*
X197077743Y-117105000D01*
X177878252Y-126481737D02*
X175159469Y-126481737D01*
X183401223Y-122651087D02*
X181708902Y-122651087D01*
X197105739Y-117077004D02*
X197105739Y-115953616D01*
X197077743Y-117105000D02*
X197105739Y-117077004D01*
X196187500Y-117105000D02*
X196925000Y-117105000D01*
X197105739Y-115953616D02*
X196988779Y-115836655D01*
X190215654Y-115836655D02*
X183401223Y-122651087D01*
%TO.N,Net-(J8-Pin_6)*%
X180035884Y-126683096D02*
X182237290Y-126683096D01*
X195297257Y-117605000D02*
X195450000Y-117605000D01*
X195450000Y-117605000D02*
X196187500Y-117605000D01*
X190135802Y-116759515D02*
X194451772Y-116759515D01*
X182237290Y-126683096D02*
X186113333Y-122807054D01*
X194451772Y-116759515D02*
X195297257Y-117605000D01*
X186113333Y-120781985D02*
X190135802Y-116759515D01*
X186113333Y-122807054D02*
X186113333Y-120781985D01*
%TO.N,Net-(J8-Pin_7)*%
X197208646Y-118580435D02*
X197208646Y-118178553D01*
X197208646Y-118178553D02*
X197135093Y-118105000D01*
X197135093Y-118105000D02*
X196925000Y-118105000D01*
X196925000Y-118105000D02*
X196187500Y-118105000D01*
%TO.N,Net-(J8-Pin_8)*%
X208278556Y-136569344D02*
X208400165Y-136569344D01*
X208600000Y-136255000D02*
X208600000Y-135517500D01*
X208400165Y-136569344D02*
X208600000Y-136369510D01*
X208600000Y-136369510D02*
X208600000Y-136255000D01*
%TO.N,Net-(J8-Pin_9)*%
X209100000Y-136350393D02*
X209100000Y-136443945D01*
X209100000Y-136443945D02*
X208985567Y-136558378D01*
X209100000Y-136255000D02*
X209100000Y-136350393D01*
X209100000Y-135517500D02*
X209100000Y-136255000D01*
%TO.N,Net-(J8-Pin_10)*%
X209600000Y-136255000D02*
X209600000Y-135517500D01*
X209600000Y-136513776D02*
X209600000Y-136445977D01*
X209600000Y-136445977D02*
X209600000Y-136255000D01*
X209516128Y-136597648D02*
X209600000Y-136513776D01*
%TO.N,Net-(J8-Pin_11)*%
X201556274Y-132839031D02*
X205300767Y-132839031D01*
X205611769Y-132528029D02*
X209101478Y-132528029D01*
X205300767Y-132839031D02*
X205611769Y-132528029D01*
X209101478Y-132528029D02*
X211100000Y-134526551D01*
X211100000Y-134526551D02*
X211100000Y-134684607D01*
X200580008Y-133815296D02*
X201556274Y-132839031D01*
X211100000Y-134780000D02*
X211100000Y-135517500D01*
X211100000Y-134684607D02*
X211100000Y-134780000D01*
%TO.N,Net-(J8-Pin_12)*%
X211600000Y-134780000D02*
X211600000Y-134569907D01*
X209329806Y-132299712D02*
X205334371Y-132299712D01*
X205076619Y-132557464D02*
X200003316Y-132557464D01*
X211600000Y-134569907D02*
X209329806Y-132299712D01*
X200003316Y-132557464D02*
X197821790Y-134738990D01*
X205334371Y-132299712D02*
X205076619Y-132557464D01*
X211600000Y-135517500D02*
X211600000Y-134780000D01*
X197821790Y-134738990D02*
X197821790Y-136406461D01*
X197951932Y-136536603D02*
X198063556Y-136536603D01*
X197821790Y-136406461D02*
X197951932Y-136536603D01*
%TO.N,Net-(J8-Pin_13)*%
X208604648Y-137480351D02*
X208152241Y-137932757D01*
X212100000Y-136789397D02*
X212112338Y-136801735D01*
X212100000Y-136465093D02*
X212100000Y-136789397D01*
X211461916Y-137480351D02*
X208604648Y-137480351D01*
X212143024Y-138161458D02*
X211461916Y-137480351D01*
X212100000Y-136255000D02*
X212100000Y-136465093D01*
X212100000Y-135517500D02*
X212100000Y-136255000D01*
%TO.N,Net-(J8-Pin_14)*%
X213382956Y-137248049D02*
X212600000Y-136465093D01*
X212600000Y-136465093D02*
X212600000Y-136255000D01*
X212600000Y-136255000D02*
X212600000Y-135517500D01*
X213088329Y-138316990D02*
X212778092Y-138627227D01*
X211616895Y-138627227D02*
X210461067Y-139783055D01*
X212778092Y-138627227D02*
X211616895Y-138627227D01*
X213677726Y-137248049D02*
X213382956Y-137248049D01*
%TO.N,Net-(J8-Pin_15)*%
X212136394Y-139064697D02*
X210943018Y-140258073D01*
X213191609Y-136556702D02*
X213459328Y-136556702D01*
X213100000Y-136255000D02*
X213100000Y-136465093D01*
X210943018Y-140258073D02*
X210360182Y-140258073D01*
X213100000Y-135517500D02*
X213100000Y-136255000D01*
X213100000Y-136465093D02*
X213191609Y-136556702D01*
%TO.N,Net-(J8-Pin_16)*%
X211091077Y-132060984D02*
X202612942Y-132060984D01*
X197899386Y-136898707D02*
X198339765Y-136898707D01*
X197651002Y-134634146D02*
X197651002Y-136650323D01*
X170516711Y-146174087D02*
X155012006Y-146174087D01*
X155012006Y-146174087D02*
X153156093Y-148030000D01*
X213600000Y-134780000D02*
X213600000Y-134569907D01*
X213600000Y-134569907D02*
X211091077Y-132060984D01*
X202316044Y-132357882D02*
X199927266Y-132357882D01*
X153156093Y-148030000D02*
X152946000Y-148030000D01*
X198339765Y-136898707D02*
X198510127Y-136728345D01*
X202612942Y-132060984D02*
X202316044Y-132357882D01*
X197651002Y-136650323D02*
X197899386Y-136898707D01*
X213600000Y-135517500D02*
X213600000Y-134780000D01*
X199927266Y-132357882D02*
X197651002Y-134634146D01*
X152946000Y-148030000D02*
X152090000Y-148030000D01*
X176289486Y-140401312D02*
X170516711Y-146174087D01*
%TO.N,Net-(C5-Pad2)*%
X217512500Y-117105000D02*
X217631000Y-117223500D01*
X219358000Y-116702907D02*
X219358000Y-116913000D01*
X219358000Y-116913000D02*
X219358000Y-117223500D01*
X219358000Y-116209000D02*
X219358000Y-116419093D01*
X217631000Y-117223500D02*
X219358000Y-117223500D01*
X219358000Y-116419093D02*
X219358000Y-116702907D01*
X219358000Y-115898500D02*
X219358000Y-116209000D01*
%TO.N,Net-(U5-SW)*%
X239033942Y-123151685D02*
X239133644Y-123151685D01*
X239170000Y-119810000D02*
X239532500Y-119810000D01*
X238869000Y-122523500D02*
X238869000Y-122834000D01*
X237293107Y-117150000D02*
X238100000Y-117150000D01*
X236510246Y-117932861D02*
X237293107Y-117150000D01*
X238750000Y-119390000D02*
X239170000Y-119810000D01*
X238869000Y-122834000D02*
X238869000Y-122986743D01*
X236508892Y-117932861D02*
X236510246Y-117932861D01*
X238750000Y-117800000D02*
X238750000Y-119390000D01*
X238100000Y-117150000D02*
X238750000Y-117800000D01*
X238869000Y-122986743D02*
X239033942Y-123151685D01*
%TO.N,VCC*%
D58*
X234696500Y-114981500D02*
X237491906Y-114981500D01*
D57*
X238250000Y-117890000D02*
X238407936Y-118047936D01*
D58*
X238869000Y-120760000D02*
X238815895Y-120760000D01*
X239532500Y-120760000D02*
X238869000Y-120760000D01*
D57*
X238330000Y-116870000D02*
X237491906Y-116031906D01*
X238407936Y-120337959D02*
X238400895Y-120345000D01*
D58*
X237491906Y-114981500D02*
X238110906Y-114362500D01*
D57*
X238407936Y-118047936D02*
X238407936Y-120337959D01*
X237491906Y-116031906D02*
X237491906Y-114981500D01*
D58*
X237554000Y-120360000D02*
X237539000Y-120345000D01*
X237029369Y-121249369D02*
X236924614Y-121144614D01*
X238110906Y-114362500D02*
X239430000Y-114362500D01*
X238815895Y-120760000D02*
X238400895Y-120345000D01*
X237569000Y-120345000D02*
X237554000Y-120360000D01*
X238400895Y-120345000D02*
X237569000Y-120345000D01*
%TO.N,Net-(U5-BOOT)*%
D56*
X242619558Y-116796950D02*
X242619558Y-118410442D01*
X242619558Y-118410442D02*
X242170000Y-118860000D01*
X239829000Y-123044093D02*
X241647954Y-124863047D01*
X239829000Y-122523500D02*
X239829000Y-122834000D01*
X240737642Y-120868417D02*
X240737642Y-116917691D01*
X245821902Y-125659819D02*
X245821902Y-123879576D01*
X244768112Y-125710440D02*
X245771282Y-125710440D01*
X241059658Y-121190433D02*
X240737642Y-120868417D01*
X244737383Y-125741169D02*
X244768112Y-125710440D01*
X244737383Y-126178242D02*
X244737383Y-125741169D01*
X240737642Y-116917691D02*
X241313074Y-116342259D01*
X242170000Y-118860000D02*
X241807500Y-118860000D01*
X242545146Y-126197881D02*
X244717744Y-126197881D01*
X245821902Y-123879576D02*
X243132759Y-121190433D01*
X243132759Y-121190433D02*
X241059658Y-121190433D01*
X239829000Y-122834000D02*
X239829000Y-123044093D01*
X241313074Y-116342259D02*
X242164868Y-116342259D01*
X244717744Y-126197881D02*
X244737383Y-126178242D01*
X241647954Y-124863047D02*
X241647954Y-125300689D01*
X242164868Y-116342259D02*
X242619558Y-116796950D01*
X241647954Y-125300689D02*
X242545146Y-126197881D01*
X245771282Y-125710440D02*
X245821902Y-125659819D01*
%TO.N,Net-(Q2-D)*%
X251380000Y-112050000D02*
X251347500Y-112082500D01*
X251347500Y-112082500D02*
X245730000Y-112082500D01*
%TO.N,D+*%
D58*
X167162909Y-135271130D02*
X167043008Y-135271130D01*
X161473138Y-137232494D02*
X161490142Y-137065388D01*
X165899401Y-135577084D02*
X165899401Y-136134276D01*
X161479370Y-137617437D02*
X161471171Y-137251827D01*
X163754119Y-137152639D02*
X163747735Y-137184735D01*
X164617840Y-136314630D02*
X164585744Y-136321014D01*
X163747735Y-137651642D02*
X163193139Y-138206238D01*
X161471171Y-137251827D02*
X161473138Y-137232494D01*
X166293979Y-135147765D02*
X165923966Y-135517779D01*
X161685689Y-138206238D02*
X161479391Y-137999940D01*
X166338376Y-135124536D02*
X166307926Y-135136524D01*
X164558535Y-136339195D02*
X163772300Y-137125430D01*
X163772300Y-137125430D02*
X163754119Y-137152639D01*
X168010000Y-135021000D02*
X168010000Y-135218511D01*
X161479391Y-137999940D02*
X161479391Y-137619317D01*
X165719047Y-136314630D02*
X164617840Y-136314630D01*
X165899401Y-136134276D02*
X165719047Y-136314630D01*
X167043008Y-135271130D02*
X166855850Y-135230458D01*
X168010000Y-134720000D02*
X168010000Y-135021000D01*
X162089000Y-137370922D02*
X162440000Y-137550000D01*
X168010000Y-135218511D02*
X167243785Y-135218511D01*
X161738000Y-137191844D02*
X162089000Y-137370922D01*
X163747735Y-137184735D02*
X163747735Y-137651642D01*
X165905785Y-135544988D02*
X165899401Y-135577084D01*
X166855850Y-135230458D02*
X166371095Y-135125113D01*
X165923966Y-135517779D02*
X165905785Y-135544988D01*
X163193139Y-138206238D02*
X161685689Y-138206238D01*
X167243785Y-135218511D02*
X167162909Y-135271130D01*
X161490142Y-137065388D02*
X161738000Y-137191844D01*
X166371095Y-135125113D02*
X166338376Y-135124536D01*
X164585744Y-136321014D02*
X164558535Y-136339195D01*
X161479391Y-137619317D02*
X161479370Y-137617437D01*
D59*
X161473138Y-137232494D02*
X161473137Y-137232494D01*
X161473137Y-137232494D01*
X161473137Y-137232494D01*
X161473137Y-137232494D01*
X161473137Y-137232494D01*
X161473137Y-137232494D01*
X161473137Y-137232494D01*
X161473137Y-137232493D01*
X161473137Y-137232493D01*
X161473137Y-137232493D01*
X161473137Y-137232493D01*
X161473137Y-137232493D01*
X161473138Y-137232493D01*
X161473138Y-137232493D01*
X161473138Y-137232493D01*
X161473138Y-137232493D01*
X161473138Y-137232493D01*
X161473138Y-137232493D01*
X161473138Y-137232493D01*
X161473138Y-137232493D01*
X161473138Y-137232493D01*
X161473138Y-137232493D01*
X161473138Y-137232493D01*
X161473138Y-137232493D01*
X161473139Y-137232493D01*
X161473139Y-137232493D01*
X161473139Y-137232493D01*
X161473139Y-137232493D01*
X161473139Y-137232493D01*
X161473139Y-137232493D01*
X161473139Y-137232494D01*
X161473139Y-137232494D01*
X161473139Y-137232494D01*
X161473139Y-137232494D01*
X161473139Y-137232494D01*
X161473139Y-137232494D01*
X161473139Y-137232494D01*
X161473138Y-137232494D01*
X161473138Y-137232494D02*
X161473139Y-137232494D01*
X161473139Y-137232494D01*
X161473139Y-137232494D01*
X161473139Y-137232494D01*
X161473139Y-137232494D01*
X161473139Y-137232494D01*
X161473139Y-137232495D01*
X161473139Y-137232495D01*
X161473139Y-137232495D01*
X161473139Y-137232495D01*
X161473139Y-137232495D01*
X161473139Y-137232495D01*
X161473139Y-137232495D01*
X161473138Y-137232495D01*
X161473138Y-137232495D01*
X161473138Y-137232495D01*
X161473138Y-137232495D01*
X161473138Y-137232495D01*
X161473138Y-137232495D01*
X161473138Y-137232495D01*
X161473138Y-137232495D01*
X161473138Y-137232495D01*
X161473138Y-137232495D01*
X161473138Y-137232495D01*
X161473138Y-137232495D01*
X161473137Y-137232495D01*
X161473137Y-137232495D01*
X161473137Y-137232495D01*
X161473137Y-137232495D01*
X161473137Y-137232495D01*
X161473137Y-137232495D01*
X161473137Y-137232494D01*
X161473137Y-137232494D01*
X161473137Y-137232494D01*
X161473137Y-137232494D01*
X161473137Y-137232494D01*
X161473137Y-137232494D01*
X161473138Y-137232494D01*
D58*
X166307926Y-135136524D02*
X166293979Y-135147765D01*
%TO.N,Net-(J10-Pin_1)*%
D56*
X216584023Y-117605000D02*
X216775000Y-117605000D01*
X208050550Y-124695951D02*
X215141501Y-117605000D01*
X204897367Y-124695951D02*
X208050550Y-124695951D01*
X216775000Y-117605000D02*
X217512500Y-117605000D01*
X215141501Y-117605000D02*
X216584023Y-117605000D01*
%TO.N,Net-(J10-Pin_2)*%
X197839183Y-116730770D02*
X198673123Y-117564710D01*
X198673123Y-117564710D02*
X213367547Y-117564710D01*
X215600000Y-114930000D02*
X215600000Y-114192500D01*
X215600000Y-115332256D02*
X215600000Y-115140093D01*
X213367547Y-117564710D02*
X215600000Y-115332256D01*
X215600000Y-115140093D02*
X215600000Y-114930000D01*
%TO.N,Net-(U1-PF7)*%
X195128535Y-124917161D02*
X195316374Y-125105000D01*
X195116775Y-124917161D02*
X195128535Y-124917161D01*
X250234000Y-123770000D02*
X250635000Y-123770000D01*
X248390939Y-125402968D02*
X250023907Y-123770000D01*
X195316374Y-125105000D02*
X195450000Y-125105000D01*
X195100244Y-124900630D02*
X195116775Y-124917161D01*
X247959032Y-125402968D02*
X248390939Y-125402968D01*
X250023907Y-123770000D02*
X250234000Y-123770000D01*
X240738515Y-128843290D02*
X244518710Y-128843290D01*
X244518710Y-128843290D02*
X247959032Y-125402968D01*
X195450000Y-125105000D02*
X196187500Y-125105000D01*
X232911037Y-136670768D02*
X240738515Y-128843290D01*
%TO.N,Net-(D1-A)*%
X235758093Y-111481500D02*
X235548000Y-111481500D01*
X238328000Y-109802500D02*
X238117907Y-109802500D01*
X239430000Y-109802500D02*
X238328000Y-109802500D01*
X234187500Y-109950000D02*
X234187500Y-109474000D01*
X234696500Y-110619907D02*
X234696500Y-110573510D01*
X234696500Y-110573510D02*
X234187500Y-110064510D01*
X236438907Y-111481500D02*
X235758093Y-111481500D01*
X234187500Y-110064510D02*
X234187500Y-109950000D01*
X234696500Y-111481500D02*
X234696500Y-110830000D01*
X238117907Y-109802500D02*
X236438907Y-111481500D01*
X235548000Y-111481500D02*
X234696500Y-111481500D01*
X234696500Y-110830000D02*
X234696500Y-110619907D01*
%TO.N,/RX*%
X191556432Y-130351412D02*
X192669162Y-129238682D01*
X168010000Y-130910000D02*
X168986000Y-130910000D01*
X168986000Y-130910000D02*
X169196093Y-130910000D01*
X194501329Y-129238682D02*
X195097769Y-128642242D01*
X203054050Y-129317719D02*
X204189319Y-129317719D01*
X214753397Y-118753641D02*
X216213548Y-118753641D01*
X204189319Y-129317719D02*
X214753397Y-118753641D01*
X216775000Y-119105000D02*
X217512500Y-119105000D01*
X185827116Y-131120262D02*
X186595966Y-130351412D01*
X216213548Y-118753641D02*
X216564907Y-119105000D01*
X216564907Y-119105000D02*
X216775000Y-119105000D01*
X170105401Y-130910000D02*
X170200056Y-131004654D01*
X192669162Y-129238682D02*
X194501329Y-129238682D01*
X169196093Y-130910000D02*
X170105401Y-130910000D01*
X186595966Y-130351412D02*
X191556432Y-130351412D01*
%TO.N,/TX*%
X168986000Y-132180000D02*
X169100510Y-132180000D01*
X190054990Y-115624755D02*
X197105757Y-115624755D01*
X168010000Y-132180000D02*
X168986000Y-132180000D01*
X178488491Y-125571509D02*
X181909363Y-122150637D01*
X171639717Y-130072412D02*
X171639717Y-126915579D01*
X197274010Y-116900334D02*
X198784034Y-118410358D01*
X181909363Y-122150637D02*
X183529108Y-122150637D01*
X171639717Y-126915579D02*
X172807942Y-125747355D01*
X174240000Y-125571509D02*
X178488491Y-125571509D01*
X183529108Y-122150637D02*
X190054990Y-115624755D01*
X197274010Y-115793008D02*
X197274010Y-116900334D01*
X219821116Y-119664079D02*
X220332210Y-119152985D01*
X219478003Y-118587090D02*
X218460093Y-119605000D01*
X198784034Y-118410358D02*
X203969546Y-118410358D01*
X218250000Y-119605000D02*
X217512500Y-119605000D01*
X169100510Y-132180000D02*
X169532129Y-132180000D01*
X220135296Y-118587090D02*
X219478003Y-118587090D01*
X169532129Y-132180000D02*
X171639717Y-130072412D01*
X220332210Y-118784004D02*
X220135296Y-118587090D01*
X203969546Y-118410358D02*
X204964262Y-119405073D01*
X197105757Y-115624755D02*
X197274010Y-115793008D01*
X220332210Y-119152985D02*
X220332210Y-118784004D01*
X218460093Y-119605000D02*
X218250000Y-119605000D01*
%TO.N,Net-(U6-XI)*%
X165775000Y-137409000D02*
X165775000Y-137098500D01*
X168750896Y-139356582D02*
X167373093Y-139356582D01*
X167373093Y-139356582D02*
X166824849Y-138808339D01*
X169658000Y-140250000D02*
X169447907Y-140250000D01*
X165775000Y-137619093D02*
X165775000Y-137409000D01*
X170360000Y-140250000D02*
X169658000Y-140250000D01*
X166824849Y-138808339D02*
X166824849Y-138668942D01*
X166824849Y-138668942D02*
X165775000Y-137619093D01*
X168010000Y-137260000D02*
X167848500Y-137098500D01*
X169447907Y-140250000D02*
X169179610Y-139981703D01*
X169179610Y-139785296D02*
X168750896Y-139356582D01*
X167848500Y-137098500D02*
X165775000Y-137098500D01*
X169179610Y-139981703D02*
X169179610Y-139785296D01*
%TO.N,Net-(U6-XO)*%
X165734000Y-135282500D02*
X165232500Y-135282500D01*
X169196093Y-138530000D02*
X169631841Y-138094253D01*
X170993461Y-138094253D02*
X171228518Y-138329309D01*
X168010000Y-138018907D02*
X168242733Y-137786173D01*
X169555500Y-141086660D02*
X169054636Y-141587524D01*
X169631841Y-138094253D02*
X170993461Y-138094253D01*
X169054636Y-141871874D02*
X168976510Y-141950000D01*
X171228518Y-140898844D02*
X171040702Y-141086660D01*
X168976510Y-141950000D02*
X168862000Y-141950000D01*
X170492261Y-135742553D02*
X169048788Y-134299081D01*
X165924977Y-135282500D02*
X165734000Y-135282500D01*
X169054636Y-141587524D02*
X169054636Y-141871874D01*
X171228518Y-138329309D02*
X171228518Y-140898844D01*
X168986000Y-138530000D02*
X169196093Y-138530000D01*
X168010000Y-138530000D02*
X168010000Y-138229000D01*
X168010000Y-138530000D02*
X168986000Y-138530000D01*
X168242733Y-137786173D02*
X169256612Y-137786173D01*
X170492261Y-136550525D02*
X170492261Y-135742553D01*
X166908396Y-134299081D02*
X165924977Y-135282500D01*
X168010000Y-138229000D02*
X168010000Y-138018907D01*
X169048788Y-134299081D02*
X166908396Y-134299081D01*
X171040702Y-141086660D02*
X169555500Y-141086660D01*
X169256612Y-137786173D02*
X170492261Y-136550525D01*
X168862000Y-141950000D02*
X168160000Y-141950000D01*
%TO.N,Net-(U1-PF3)*%
X200224600Y-120417780D02*
X198537380Y-122105000D01*
X196925000Y-122105000D02*
X196187500Y-122105000D01*
X197135093Y-122105000D02*
X196925000Y-122105000D01*
X204451968Y-120417780D02*
X200224600Y-120417780D01*
X198537380Y-122105000D02*
X197135093Y-122105000D01*
X249665172Y-134968735D02*
X249983907Y-134650000D01*
X249983907Y-134650000D02*
X250194000Y-134650000D01*
X250194000Y-134650000D02*
X250595000Y-134650000D01*
X244422082Y-135629795D02*
X245083143Y-134968735D01*
X245083143Y-134968735D02*
X249665172Y-134968735D01*
%TO.N,Net-(U10-DIN)*%
X176761907Y-119230000D02*
X177722000Y-119230000D01*
X176590000Y-119401907D02*
X176761907Y-119230000D01*
X176190996Y-120299004D02*
X176590000Y-119900000D01*
X176590000Y-119900000D02*
X176590000Y-119401907D01*
X174138081Y-120299004D02*
X176190996Y-120299004D01*
X170680000Y-120030000D02*
X170680000Y-119230000D01*
%TO.N,/LED_DIN*%
X192378128Y-132644623D02*
X191970131Y-132236626D01*
X177753977Y-116670000D02*
X176810000Y-116670000D01*
X195239907Y-133605000D02*
X195450000Y-133605000D01*
X176570000Y-116430000D02*
X176570000Y-115959907D01*
X176570000Y-115959907D02*
X176540093Y-115930000D01*
X194711818Y-133822908D02*
X194929726Y-133605000D01*
X195450000Y-133605000D02*
X196187500Y-133605000D01*
X191970131Y-132236626D02*
X191548608Y-132236626D01*
X176540093Y-115930000D02*
X175580000Y-115930000D01*
X191220772Y-131908790D02*
X191220772Y-131145481D01*
X176810000Y-116670000D02*
X176570000Y-116430000D01*
X178531364Y-117447387D02*
X177753977Y-116670000D01*
X194929726Y-133605000D02*
X195239907Y-133605000D01*
X191220772Y-131145481D02*
X190781382Y-130706091D01*
X191548608Y-132236626D02*
X191220772Y-131908790D01*
%TO.N,Net-(U1-PF6)*%
X250142531Y-126252821D02*
X250419288Y-126252821D01*
X250099386Y-127380023D02*
X250099386Y-126295966D01*
X250625000Y-125986093D02*
X250625000Y-125776000D01*
X195450000Y-124605000D02*
X196187500Y-124605000D01*
X250099386Y-126295966D02*
X250142531Y-126252821D01*
X195210208Y-124575301D02*
X195239907Y-124605000D01*
X250426833Y-127707470D02*
X250099386Y-127380023D01*
X251157412Y-127840992D02*
X251023889Y-127707470D01*
X194763777Y-125819487D02*
X194763777Y-124756528D01*
X251157412Y-129014889D02*
X251157412Y-127840992D01*
X251023889Y-127707470D02*
X250426833Y-127707470D01*
X237411797Y-137943875D02*
X243903489Y-131452183D01*
X230752353Y-137943875D02*
X237411797Y-137943875D01*
X247626322Y-129095259D02*
X251077042Y-129095259D01*
X195075151Y-126039466D02*
X194983756Y-126039466D01*
X195239907Y-124605000D02*
X195450000Y-124605000D01*
X245269397Y-131452183D02*
X247626322Y-129095259D01*
X194945004Y-124575301D02*
X195210208Y-124575301D01*
X250419288Y-126252821D02*
X250625000Y-126047109D01*
X251077042Y-129095259D02*
X251157412Y-129014889D01*
X250625000Y-125776000D02*
X250625000Y-125300000D01*
X194763777Y-124756528D02*
X194945004Y-124575301D01*
X194983756Y-126039466D02*
X194763777Y-125819487D01*
X243903489Y-131452183D02*
X245269397Y-131452183D01*
X250625000Y-126047109D02*
X250625000Y-125986093D01*
%TO.N,Net-(U1-PF8)*%
X197135093Y-125605000D02*
X198806465Y-127276372D01*
X237926718Y-139359171D02*
X242488745Y-134797143D01*
X196925000Y-125605000D02*
X197135093Y-125605000D01*
X246746763Y-134797143D02*
X249993907Y-131550000D01*
X198806465Y-127276372D02*
X198806465Y-129116775D01*
X234069561Y-138613681D02*
X234815051Y-139359171D01*
X234815051Y-139359171D02*
X237926718Y-139359171D01*
X242488745Y-134797143D02*
X246746763Y-134797143D01*
X196187500Y-125605000D02*
X196925000Y-125605000D01*
X230182814Y-138613681D02*
X234069561Y-138613681D01*
X250204000Y-131550000D02*
X250605000Y-131550000D01*
X249993907Y-131550000D02*
X250204000Y-131550000D01*
%TO.N,Net-(J5-Pin_14)*%
X198789657Y-140952069D02*
X200416000Y-140952069D01*
X197039510Y-119105000D02*
X196925000Y-119105000D01*
X197220361Y-119414453D02*
X197220361Y-119285851D01*
X194027588Y-134981509D02*
X194027588Y-137077966D01*
X194329150Y-137379528D02*
X196323892Y-137379528D01*
X200416000Y-140952069D02*
X200970490Y-141506559D01*
X196925000Y-119105000D02*
X196187500Y-119105000D01*
X197220361Y-119285851D02*
X197039510Y-119105000D01*
X200970490Y-141506559D02*
X200970490Y-142303164D01*
X197027451Y-138083087D02*
X197027451Y-139189863D01*
X197027451Y-139189863D02*
X198789657Y-140952069D01*
X203413367Y-144746040D02*
X204066421Y-144746040D01*
X196323892Y-137379528D02*
X197027451Y-138083087D01*
X194027588Y-137077966D02*
X194329150Y-137379528D01*
X200970490Y-142303164D02*
X203413367Y-144746040D01*
X194294040Y-134715057D02*
X194027588Y-134981509D01*
%TO.N,Net-(J5-Pin_15)*%
X189483828Y-139688706D02*
X191144320Y-139688706D01*
X185502782Y-129088741D02*
X185502782Y-135707660D01*
X195239907Y-119605000D02*
X191267602Y-119605000D01*
X191144320Y-139688706D02*
X196708095Y-145252481D01*
X196187500Y-119605000D02*
X195450000Y-119605000D01*
X195450000Y-119605000D02*
X195239907Y-119605000D01*
X191267602Y-119605000D02*
X187818346Y-123054255D01*
X205340082Y-145252481D02*
X205553184Y-145039379D01*
X186172339Y-128419184D02*
X185502782Y-129088741D01*
X185502782Y-135707660D02*
X189483828Y-139688706D01*
X196708095Y-145252481D02*
X205340082Y-145252481D01*
%TO.N,Net-(J5-Pin_16)*%
X191748921Y-133276344D02*
X190959463Y-132486886D01*
X192054250Y-133276344D02*
X191748921Y-133276344D01*
X204421756Y-145095591D02*
X198498151Y-145095591D01*
X204857704Y-144659643D02*
X204421756Y-145095591D01*
X196187500Y-120105000D02*
X195450000Y-120105000D01*
X205935426Y-144659643D02*
X204857704Y-144659643D01*
X192626095Y-139223535D02*
X192626095Y-133848190D01*
X198498151Y-145095591D02*
X192626095Y-139223535D01*
X192626095Y-133848190D02*
X192054250Y-133276344D01*
X206235397Y-144959614D02*
X205935426Y-144659643D01*
X195450000Y-120105000D02*
X195239907Y-120105000D01*
X190959463Y-132486886D02*
X190654134Y-132486886D01*
X195239907Y-120105000D02*
X192779053Y-120105000D01*
X192779053Y-120105000D02*
X191407594Y-121476459D01*
%TO.N,Net-(U1-PF1)*%
X250194000Y-133100000D02*
X250595000Y-133100000D01*
X249642414Y-134000454D02*
X249642414Y-133441493D01*
X196925000Y-121105000D02*
X197135093Y-121105000D01*
X249983907Y-133100000D02*
X250194000Y-133100000D01*
X197135093Y-121105000D02*
X198277989Y-119962104D01*
X196187500Y-121105000D02*
X196925000Y-121105000D01*
X198277989Y-119962104D02*
X204619944Y-119962104D01*
X249642414Y-133441493D02*
X249983907Y-133100000D01*
%TO.N,Net-(U1-PF5)*%
X243189717Y-133005362D02*
X245424821Y-133005362D01*
X251345804Y-127645804D02*
X251134006Y-127434006D01*
X200377392Y-123105000D02*
X197135093Y-123105000D01*
X196925000Y-123105000D02*
X196187500Y-123105000D01*
X249047566Y-129382617D02*
X251078202Y-129382617D01*
X241353903Y-134841176D02*
X243189717Y-133005362D01*
X250625000Y-126925000D02*
X250625000Y-126850000D01*
X251345804Y-129115016D02*
X251345804Y-127645804D01*
X200514644Y-123242253D02*
X200377392Y-123105000D01*
X251134006Y-127434006D02*
X250625000Y-126925000D01*
X245424821Y-133005362D02*
X249047566Y-129382617D01*
X197135093Y-123105000D02*
X196925000Y-123105000D01*
X251078202Y-129382617D02*
X251345804Y-129115016D01*
%TO.N,Net-(U1-PF10)*%
X242518327Y-134516721D02*
X245487186Y-134516721D01*
X250003907Y-130000000D02*
X250214000Y-130000000D01*
X250214000Y-130000000D02*
X250615000Y-130000000D01*
X196925000Y-126605000D02*
X197135093Y-126605000D01*
X198082252Y-127552159D02*
X198082252Y-128469528D01*
X238001606Y-139033441D02*
X242518327Y-134516721D01*
X245487186Y-134516721D02*
X250003907Y-130000000D01*
X196187500Y-126605000D02*
X196925000Y-126605000D01*
X197135093Y-126605000D02*
X198082252Y-127552159D01*
X235055915Y-139033441D02*
X238001606Y-139033441D01*
%TO.N,Net-(J5-Pin_1)*%
X194972054Y-129232946D02*
X194972054Y-130499158D01*
X194195597Y-136939636D02*
X194234559Y-136978598D01*
X194857383Y-134751879D02*
X194195597Y-135413665D01*
X200376197Y-140668128D02*
X202802880Y-143094811D01*
X195600000Y-128605000D02*
X195369029Y-128835971D01*
X202802880Y-143094811D02*
X202802880Y-143631631D01*
X196187500Y-128605000D02*
X195600000Y-128605000D01*
X198744686Y-140668128D02*
X200376197Y-140668128D01*
X197597230Y-139520672D02*
X198744686Y-140668128D01*
X197597230Y-138402253D02*
X197597230Y-139520672D01*
X196173576Y-136978598D02*
X197597230Y-138402253D01*
X194234559Y-136978598D02*
X196173576Y-136978598D01*
X195369029Y-128835971D02*
X194972054Y-129232946D01*
X194195597Y-135413665D02*
X194195597Y-136939636D01*
%TO.N,Net-(J5-Pin_2)*%
X175613558Y-145116082D02*
X175613558Y-147466442D01*
X195600000Y-129105000D02*
X195355512Y-129349488D01*
X196187500Y-129105000D02*
X195600000Y-129105000D01*
X191752831Y-134693883D02*
X191752831Y-139032494D01*
X191752831Y-139032494D02*
X191609149Y-139176177D01*
X179651652Y-141077989D02*
X175613558Y-145116082D01*
X175162500Y-147917500D02*
X174860000Y-148220000D01*
X175613558Y-147466442D02*
X175162500Y-147917500D01*
X195355512Y-129349488D02*
X195293333Y-129411667D01*
X195293333Y-129411667D02*
X195293333Y-130815707D01*
X195293333Y-130815707D02*
X194867400Y-131241641D01*
%TO.N,Net-(J5-Pin_3)*%
X178153558Y-143419746D02*
X178153558Y-147466442D01*
X197039510Y-129605000D02*
X196925000Y-129605000D01*
X177702500Y-147917500D02*
X177400000Y-148220000D01*
X196925000Y-129605000D02*
X196187500Y-129605000D01*
X176988910Y-136978174D02*
X179974439Y-139963703D01*
X179974439Y-141598865D02*
X178153558Y-143419746D01*
X179974439Y-139963703D02*
X179974439Y-141598865D01*
X197232159Y-129705471D02*
X197131687Y-129605000D01*
X195730661Y-134665810D02*
X195847336Y-134665810D01*
X197131687Y-129605000D02*
X197039510Y-129605000D01*
X194726382Y-135670089D02*
X195730661Y-134665810D01*
X178153558Y-147466442D02*
X177702500Y-147917500D01*
%TO.N,Net-(J5-Pin_4)*%
X221552050Y-142074089D02*
X219947001Y-142074089D01*
X219947001Y-142074089D02*
X216400180Y-145620910D01*
X226119583Y-140716653D02*
X222909486Y-140716653D01*
X196187500Y-130105000D02*
X196925000Y-130105000D01*
X197600980Y-130105000D02*
X197775746Y-130279766D01*
X222909486Y-140716653D02*
X221552050Y-142074089D01*
X182539090Y-145620910D02*
X180693558Y-147466442D01*
X216400180Y-145620910D02*
X182539090Y-145620910D01*
X180242500Y-147917500D02*
X179940000Y-148220000D01*
X197115977Y-130105000D02*
X197600980Y-130105000D01*
X180693558Y-147466442D02*
X180242500Y-147917500D01*
X196925000Y-130105000D02*
X197115977Y-130105000D01*
%TO.N,Net-(U1-PA4)*%
X199600000Y-136465093D02*
X199600000Y-136255000D01*
X200626093Y-138925000D02*
X200416000Y-138925000D01*
X203613532Y-137586854D02*
X201845290Y-137586854D01*
X201889031Y-139328824D02*
X201485207Y-138925000D01*
X201221353Y-136962917D02*
X200900178Y-136962917D01*
X201485207Y-138925000D02*
X200626093Y-138925000D01*
X200526811Y-136589549D02*
X199724456Y-136589549D01*
X200416000Y-138925000D02*
X199602500Y-138925000D01*
X200900178Y-136962917D02*
X200526811Y-136589549D01*
X199724456Y-136589549D02*
X199600000Y-136465093D01*
X199600000Y-136255000D02*
X199600000Y-135517500D01*
X201845290Y-137586854D02*
X201221353Y-136962917D01*
%TO.N,Net-(U1-PA5)*%
X206742803Y-140894210D02*
X206777500Y-140928907D01*
X200358006Y-136363006D02*
X200100000Y-136105000D01*
X203258123Y-137431551D02*
X201980388Y-137431551D01*
X206777500Y-141139000D02*
X206777500Y-141465000D01*
X205347527Y-139984253D02*
X205347527Y-140179113D01*
X206062624Y-140894210D02*
X206742803Y-140894210D01*
X203919807Y-137210847D02*
X203478828Y-137210847D01*
X205112916Y-139749642D02*
X205347527Y-139984253D01*
X201980388Y-137431551D02*
X201246088Y-136697251D01*
X203478828Y-137210847D02*
X203258123Y-137431551D01*
X200609845Y-136430233D02*
X200425233Y-136430233D01*
X200100000Y-136105000D02*
X200100000Y-135517500D01*
X201246088Y-136697251D02*
X200876863Y-136697251D01*
X205347527Y-140179113D02*
X206062624Y-140894210D01*
X200425233Y-136430233D02*
X200358006Y-136363006D01*
X200876863Y-136697251D02*
X200609845Y-136430233D01*
X206777500Y-140928907D02*
X206777500Y-141139000D01*
%TO.N,Net-(U1-PA6)*%
X205154380Y-142735000D02*
X205849490Y-142735000D01*
X202167998Y-137245313D02*
X201576894Y-136654210D01*
X203282837Y-136985842D02*
X203023366Y-137245313D01*
X203940792Y-136726371D02*
X203681321Y-136985842D01*
X200853658Y-136358658D02*
X200844488Y-136349488D01*
X201576894Y-136654210D02*
X200853658Y-136358658D01*
X205849490Y-142735000D02*
X205964000Y-142735000D01*
X200844488Y-136349488D02*
X200600000Y-136105000D01*
X203098191Y-140678811D02*
X205154380Y-142735000D01*
X200600000Y-136105000D02*
X200600000Y-135517500D01*
X203681321Y-136985842D02*
X203282837Y-136985842D01*
X203023366Y-137245313D02*
X202167998Y-137245313D01*
X205964000Y-142735000D02*
X206777500Y-142735000D01*
%TO.N,Net-(U1-PA7)*%
X198640442Y-139720442D02*
X199115000Y-140195000D01*
X199115000Y-140195000D02*
X199602500Y-140195000D01*
X201100000Y-134780000D02*
X201100000Y-134569907D01*
X201100000Y-135517500D02*
X201100000Y-134780000D01*
X201100000Y-134569907D02*
X201191889Y-134478018D01*
X197889244Y-138969244D02*
X198640442Y-139720442D01*
X197889244Y-137752623D02*
X197889244Y-138969244D01*
X201191889Y-134478018D02*
X201603882Y-134478018D01*
%TO.N,Net-(J5-Pin_5)*%
X182177500Y-148522500D02*
X182480000Y-148220000D01*
X201631222Y-136496315D02*
X202091963Y-136496315D01*
X202091963Y-136496315D02*
X202459403Y-136863754D01*
X178880887Y-147736779D02*
X178880887Y-148696447D01*
X185038374Y-143279456D02*
X183338210Y-143279456D01*
X179389767Y-149205326D02*
X181494674Y-149205326D01*
X201600000Y-135517500D02*
X201600000Y-136255000D01*
X201600000Y-136255000D02*
X201600000Y-136465093D01*
X201600000Y-136465093D02*
X201631222Y-136496315D01*
X181726442Y-148973558D02*
X182177500Y-148522500D01*
X202459403Y-136863754D02*
X202935019Y-136863754D01*
X181494674Y-149205326D02*
X181726442Y-148973558D01*
X183338210Y-143279456D02*
X178880887Y-147736779D01*
X178880887Y-148696447D02*
X179389767Y-149205326D01*
%TO.N,Net-(J5-Pin_6)*%
X184717500Y-148522500D02*
X185020000Y-148220000D01*
X202371523Y-136376523D02*
X203179168Y-136376523D01*
X203179168Y-136376523D02*
X203328263Y-136525618D01*
X178569479Y-146646784D02*
X178569479Y-148739683D01*
X202100000Y-135517500D02*
X202100000Y-136105000D01*
X202100000Y-136105000D02*
X202371523Y-136376523D01*
X182342237Y-142874026D02*
X178569479Y-146646784D01*
X179244294Y-149414497D02*
X183825503Y-149414497D01*
X184266442Y-148973558D02*
X184717500Y-148522500D01*
X183825503Y-149414497D02*
X184266442Y-148973558D01*
X178569479Y-148739683D02*
X179244294Y-149414497D01*
%TO.N,Net-(J6-Pin_1)*%
X204058722Y-133225885D02*
X204058722Y-133209670D01*
X202180425Y-131709280D02*
X201884068Y-132005637D01*
X202600000Y-134780000D02*
X202600000Y-134684607D01*
X202600000Y-134684607D02*
X204058722Y-133225885D01*
X203081468Y-122070864D02*
X203202399Y-122191794D01*
X202180425Y-127364397D02*
X202180425Y-131709280D01*
X203202399Y-126342423D02*
X202180425Y-127364397D01*
X202600000Y-135517500D02*
X202600000Y-134780000D01*
X203202399Y-122191794D02*
X203202399Y-126342423D01*
%TO.N,Net-(J6-Pin_2)*%
X202356026Y-122385117D02*
X202356026Y-124608061D01*
X203100000Y-134780000D02*
X203100000Y-134646374D01*
X204543419Y-133202954D02*
X204543419Y-133195260D01*
X202356026Y-124608061D02*
X201211856Y-125752231D01*
X203100000Y-135517500D02*
X203100000Y-134780000D01*
X202601464Y-122139679D02*
X202356026Y-122385117D01*
X201211856Y-125752231D02*
X201211856Y-131336685D01*
X203100000Y-134646374D02*
X204543419Y-133202954D01*
%TO.N,Net-(J6-Pin_3)*%
X207151798Y-132882764D02*
X205978226Y-132882764D01*
X205978226Y-132882764D02*
X204910048Y-133950942D01*
X201859176Y-127149205D02*
X202836099Y-126172282D01*
X203600000Y-134569907D02*
X203600000Y-134780000D01*
X201859176Y-130638735D02*
X201859176Y-127149205D01*
X202836099Y-126172282D02*
X202836099Y-122682753D01*
X204218964Y-133950942D02*
X203600000Y-134569907D01*
X203600000Y-134780000D02*
X203600000Y-135517500D01*
X204910048Y-133950942D02*
X204218964Y-133950942D01*
%TO.N,Net-(U1-PF12)*%
X204850935Y-134357205D02*
X204600000Y-134608140D01*
X205673124Y-134090843D02*
X205362227Y-134090843D01*
X229060293Y-139409297D02*
X234135841Y-139409297D01*
X205095865Y-134357205D02*
X204850935Y-134357205D01*
X210120350Y-134047460D02*
X207054055Y-134047460D01*
X249779449Y-139514458D02*
X250003907Y-139290000D01*
X234241003Y-139514458D02*
X249779449Y-139514458D01*
X204600000Y-134780000D02*
X204600000Y-135517500D01*
X204600000Y-134608140D02*
X204600000Y-134780000D01*
X250214000Y-139290000D02*
X250615000Y-139290000D01*
X234135841Y-139409297D02*
X234241003Y-139514458D01*
X206794406Y-134307109D02*
X205889390Y-134307109D01*
X205362227Y-134090843D02*
X205095865Y-134357205D01*
X205889390Y-134307109D02*
X205673124Y-134090843D01*
X207054055Y-134047460D02*
X206794406Y-134307109D01*
X228501848Y-138850851D02*
X229060293Y-139409297D01*
X250003907Y-139290000D02*
X250214000Y-139290000D01*
X210539215Y-134466325D02*
X210120350Y-134047460D01*
%TO.N,Net-(J9-Pin_1)*%
X207600000Y-135517500D02*
X207600000Y-136255000D01*
X207600000Y-137041963D02*
X207353808Y-137288155D01*
X207600000Y-136350393D02*
X207600000Y-137041963D01*
X207600000Y-136255000D02*
X207600000Y-136350393D01*
%TO.N,Net-(J9-Pin_2)*%
X208100000Y-135517500D02*
X208100000Y-134780000D01*
X208100000Y-134780000D02*
X208100000Y-134569907D01*
X216962500Y-147967500D02*
X216660000Y-148270000D01*
X217413558Y-147516442D02*
X216962500Y-147967500D01*
X224568068Y-142020320D02*
X221869802Y-144718586D01*
X208100000Y-134569907D02*
X208171419Y-134498488D01*
X221869802Y-144718586D02*
X220211414Y-144718586D01*
X220211414Y-144718586D02*
X217413558Y-147516442D01*
X208171419Y-134498488D02*
X209481722Y-134498488D01*
%TO.N,Net-(J6-Pin_11)*%
X214100000Y-135517500D02*
X214100000Y-134780000D01*
X211312970Y-131782877D02*
X211312970Y-128045541D01*
X214100000Y-134569907D02*
X211312970Y-131782877D01*
X214100000Y-134780000D02*
X214100000Y-134569907D01*
%TO.N,Net-(J6-Pin_12)*%
X214600000Y-134569907D02*
X214600000Y-134780000D01*
X192180000Y-102336000D02*
X192180000Y-102546093D01*
X192180000Y-106662067D02*
X189510183Y-109331884D01*
X213432943Y-133206412D02*
X213432943Y-133402850D01*
X192180000Y-101480000D02*
X192180000Y-102336000D01*
X192180000Y-102546093D02*
X192180000Y-106662067D01*
X212115218Y-131888687D02*
X213432943Y-133206412D01*
X214600000Y-134780000D02*
X214600000Y-135517500D01*
X213432943Y-133402850D02*
X214600000Y-134569907D01*
%TO.N,Net-(J6-Pin_13)*%
X215923970Y-132964063D02*
X216564907Y-133605000D01*
X215039068Y-132330298D02*
X215672833Y-132964063D01*
X189640000Y-101480000D02*
X189640000Y-102336000D01*
X216775000Y-133605000D02*
X217512500Y-133605000D01*
X215672833Y-132964063D02*
X215923970Y-132964063D01*
X189640000Y-106627437D02*
X188474636Y-107792801D01*
X189640000Y-102336000D02*
X189640000Y-102546093D01*
X216564907Y-133605000D02*
X216775000Y-133605000D01*
X189640000Y-102546093D02*
X189640000Y-106627437D01*
%TO.N,Net-(J6-Pin_14)*%
X216564907Y-133105000D02*
X215041317Y-131581410D01*
X214653298Y-131581410D02*
X211839396Y-128767508D01*
X217512500Y-133105000D02*
X216775000Y-133105000D01*
X215041317Y-131581410D02*
X214653298Y-131581410D01*
X216775000Y-133105000D02*
X216564907Y-133105000D01*
%TO.N,Net-(J6-Pin_15)*%
X213933237Y-129973330D02*
X213698296Y-129973330D01*
X187466566Y-104656007D02*
X187466566Y-104386566D01*
X184862500Y-101782500D02*
X184560000Y-101480000D01*
X217512500Y-132605000D02*
X216775000Y-132605000D01*
X185313558Y-102233558D02*
X184862500Y-101782500D01*
X216564907Y-132605000D02*
X213933237Y-129973330D01*
X187466566Y-104386566D02*
X185313558Y-102233558D01*
X216775000Y-132605000D02*
X216564907Y-132605000D01*
%TO.N,Net-(J6-Pin_16)*%
X182322500Y-101782500D02*
X182020000Y-101480000D01*
X207178880Y-127658358D02*
X206240033Y-128597205D01*
X212118265Y-127658358D02*
X207178880Y-127658358D01*
X182773558Y-102233558D02*
X182322500Y-101782500D01*
X217512500Y-132105000D02*
X216775000Y-132105000D01*
X186902862Y-110894106D02*
X186902862Y-106362862D01*
X216775000Y-132105000D02*
X216564907Y-132105000D01*
X216564907Y-132105000D02*
X212118265Y-127658358D01*
X186902862Y-106362862D02*
X182773558Y-102233558D01*
%TO.N,Net-(J9-Pin_3)*%
X220034815Y-124599548D02*
X219724537Y-124909826D01*
X219490547Y-136224085D02*
X215427990Y-140286643D01*
X215427990Y-140286643D02*
X214489319Y-140286643D01*
X218421860Y-126605000D02*
X218250000Y-126605000D01*
X219724537Y-125302323D02*
X218421860Y-126605000D01*
X218250000Y-126605000D02*
X217512500Y-126605000D01*
X219490547Y-127277116D02*
X219490547Y-136224085D01*
X220779482Y-125988181D02*
X219490547Y-127277116D01*
X220779482Y-124715901D02*
X220779482Y-125988181D01*
X219724537Y-124909826D02*
X219724537Y-125302323D01*
%TO.N,Net-(J9-Pin_4)*%
X221853483Y-127292270D02*
X221853483Y-131507775D01*
X218250000Y-126105000D02*
X218345393Y-126105000D01*
X221853483Y-131507775D02*
X220273681Y-133087578D01*
X220273681Y-133087578D02*
X220273681Y-138089956D01*
X217512500Y-126105000D02*
X218250000Y-126105000D01*
X220273681Y-138089956D02*
X217370060Y-140993576D01*
X223038335Y-126107418D02*
X221853483Y-127292270D01*
X218692954Y-125757439D02*
X218709878Y-125757439D01*
X218345393Y-126105000D02*
X218692954Y-125757439D01*
%TO.N,Net-(J9-Pin_5)*%
X221640948Y-126689062D02*
X221640948Y-128995068D01*
X218695049Y-125272701D02*
X218643894Y-125323856D01*
X218626537Y-125323856D02*
X218345393Y-125605000D01*
X221640948Y-128995068D02*
X220114262Y-130521753D01*
X218250000Y-125605000D02*
X217512500Y-125605000D01*
X222785962Y-125544048D02*
X221640948Y-126689062D01*
X220114262Y-137544887D02*
X217031898Y-140627250D01*
X218345393Y-125605000D02*
X218250000Y-125605000D01*
X218643894Y-125323856D02*
X218626537Y-125323856D01*
X220114262Y-130521753D02*
X220114262Y-137544887D01*
%TO.N,Net-(J9-Pin_6)*%
X214515080Y-121720354D02*
X214515080Y-119988057D01*
X226820000Y-137465767D02*
X226820000Y-147203907D01*
X215684830Y-120150564D02*
X215684830Y-124224923D01*
X226820000Y-147203907D02*
X226820000Y-147414000D01*
X216564907Y-125105000D02*
X216775000Y-125105000D01*
X215348335Y-119397996D02*
X215535231Y-119584891D01*
X229530386Y-134755381D02*
X226820000Y-137465767D01*
X214515080Y-119988057D02*
X215105142Y-119397996D01*
X216775000Y-125105000D02*
X217512500Y-125105000D01*
X215535231Y-119584891D02*
X215535231Y-119792928D01*
X226820000Y-147414000D02*
X226820000Y-148270000D01*
X214413269Y-125393246D02*
X214413269Y-121822166D01*
X215535231Y-119792928D02*
X215684830Y-120150564D01*
X229530386Y-132032446D02*
X229530386Y-134755381D01*
X214006129Y-125800386D02*
X214413269Y-125393246D01*
X215105142Y-119397996D02*
X215348335Y-119397996D01*
X215684830Y-124224923D02*
X216564907Y-125105000D01*
X214413269Y-121822166D02*
X214515080Y-121720354D01*
%TO.N,Net-(J9-Pin_7)*%
X227066973Y-145976973D02*
X228606442Y-147516442D01*
X229797505Y-133738854D02*
X229797505Y-135347461D01*
X229797505Y-135347461D02*
X227066973Y-138077992D01*
X228606442Y-147516442D02*
X229057500Y-147967500D01*
X229057500Y-147967500D02*
X229360000Y-148270000D01*
X218402743Y-124605000D02*
X218250000Y-124605000D01*
X234888545Y-128647813D02*
X229797505Y-133738854D01*
X220801383Y-122206360D02*
X218402743Y-124605000D01*
X218250000Y-124605000D02*
X217512500Y-124605000D01*
X227066973Y-138077992D02*
X227066973Y-145976973D01*
X220801383Y-121357236D02*
X220801383Y-122206360D01*
%TO.N,Net-(J9-Pin_8)*%
X218250000Y-124105000D02*
X218421860Y-124105000D01*
X228565672Y-145692290D02*
X229322290Y-145692290D01*
X218552646Y-123974213D02*
X218552646Y-123895975D01*
X231146442Y-147516442D02*
X231597500Y-147967500D01*
X222791284Y-127843716D02*
X222791284Y-131836760D01*
X218421860Y-124105000D02*
X218552646Y-123974213D01*
X221362457Y-139255154D02*
X220648043Y-139969567D01*
X229322290Y-145692290D02*
X231146442Y-147516442D01*
X224934524Y-125700476D02*
X222791284Y-127843716D01*
X224934524Y-123703953D02*
X224934524Y-125700476D01*
X217512500Y-124105000D02*
X218250000Y-124105000D01*
X221362457Y-133265587D02*
X221362457Y-139255154D01*
X231597500Y-147967500D02*
X231900000Y-148270000D01*
X222791284Y-131836760D02*
X221362457Y-133265587D01*
%TO.N,Net-(J9-Pin_9)*%
X218250000Y-123605000D02*
X217512500Y-123605000D01*
X220461841Y-121545903D02*
X218402743Y-123605000D01*
X220461841Y-120744861D02*
X220461841Y-121545903D01*
X218402743Y-123605000D02*
X218250000Y-123605000D01*
%TO.N,Net-(J5-Pin_7)*%
X222011008Y-127657446D02*
X222011008Y-132232082D01*
X220630206Y-138189322D02*
X217486077Y-141333450D01*
X218459800Y-122105000D02*
X218402743Y-122105000D01*
X223391809Y-126276644D02*
X222011008Y-127657446D01*
X223391809Y-123931072D02*
X223391809Y-126276644D01*
X220630206Y-133612884D02*
X220630206Y-138189322D01*
X222011008Y-132232082D02*
X220630206Y-133612884D01*
X222905627Y-123444890D02*
X223391809Y-123931072D01*
X213732935Y-140962326D02*
X210711616Y-140962326D01*
X218250000Y-122105000D02*
X217512500Y-122105000D01*
X218531565Y-122033235D02*
X218459800Y-122105000D01*
X214104059Y-141333450D02*
X213732935Y-140962326D01*
X218402743Y-122105000D02*
X218250000Y-122105000D01*
X217486077Y-141333450D02*
X214104059Y-141333450D01*
%TO.N,Net-(J5-Pin_8)*%
X222621205Y-125158223D02*
X221396862Y-126382565D01*
X221396862Y-126382565D02*
X221396862Y-128886181D01*
X218441004Y-121605000D02*
X218345393Y-121605000D01*
X222621205Y-123591761D02*
X222621205Y-125158223D01*
X219934716Y-136008172D02*
X215037034Y-140905854D01*
X218345393Y-121605000D02*
X218250000Y-121605000D01*
X218554876Y-121491128D02*
X218441004Y-121605000D01*
X221772629Y-122743185D02*
X222621205Y-123591761D01*
X215037034Y-140905854D02*
X214171325Y-140905854D01*
X221396862Y-128886181D02*
X219934716Y-130348328D01*
X218250000Y-121605000D02*
X217512500Y-121605000D01*
X219934716Y-130348328D02*
X219934716Y-136008172D01*
%TO.N,Net-(J5-Pin_9)*%
X192942500Y-147917500D02*
X192640000Y-148220000D01*
X216477168Y-146223211D02*
X194636789Y-146223211D01*
X225966591Y-141400697D02*
X223166445Y-141400697D01*
X216564907Y-121105000D02*
X216775000Y-121105000D01*
X214280365Y-121673064D02*
X214280365Y-119947536D01*
X216443659Y-120512150D02*
X216443659Y-120983752D01*
X226447470Y-134715195D02*
X226447470Y-140919818D01*
X215542341Y-128796433D02*
X214607230Y-127861323D01*
X226447470Y-140919818D02*
X225966591Y-141400697D01*
X213563194Y-126124573D02*
X213563194Y-125677502D01*
X214208648Y-125032048D02*
X214208648Y-121744781D01*
X222278986Y-142288156D02*
X220412223Y-142288156D01*
X214988665Y-119239236D02*
X215411867Y-119239236D01*
X216775000Y-121105000D02*
X217512500Y-121105000D01*
X214607230Y-127168609D02*
X213563194Y-126124573D01*
X213563194Y-125677502D02*
X214208648Y-125032048D01*
X214607230Y-127861323D02*
X214607230Y-127168609D01*
X215411867Y-119239236D02*
X215717379Y-119544748D01*
X194636789Y-146223211D02*
X193393558Y-147466442D01*
X223166445Y-141400697D02*
X222278986Y-142288156D01*
X216443659Y-120983752D02*
X216564907Y-121105000D01*
X215717379Y-119785869D02*
X216443659Y-120512150D01*
X227972392Y-133190273D02*
X226447470Y-134715195D01*
X220412223Y-142288156D02*
X216477168Y-146223211D01*
X215717379Y-119544748D02*
X215717379Y-119785869D01*
X214208648Y-121744781D02*
X214280365Y-121673064D01*
X214280365Y-119947536D02*
X214988665Y-119239236D01*
X193393558Y-147466442D02*
X192942500Y-147917500D01*
%TO.N,Net-(J5-Pin_10)*%
X213157002Y-120844019D02*
X213157002Y-127216858D01*
X213157002Y-127216858D02*
X213362078Y-127421934D01*
X225246165Y-134760507D02*
X223072105Y-136934566D01*
X220018544Y-141233674D02*
X219261111Y-141564210D01*
X205570667Y-143551439D02*
X204865957Y-144256149D01*
X217512500Y-120605000D02*
X216925000Y-120605000D01*
X220579401Y-141233674D02*
X220018544Y-141233674D01*
X216146110Y-119826110D02*
X216146110Y-119679322D01*
X214977255Y-119023765D02*
X213157002Y-120844019D01*
X216146110Y-119679322D02*
X215490553Y-119023765D01*
X225246165Y-132837272D02*
X225246165Y-134760507D01*
X223072105Y-138740969D02*
X220579401Y-141233674D01*
X215490553Y-119023765D02*
X214977255Y-119023765D01*
X217273882Y-143551439D02*
X205570667Y-143551439D01*
X223072105Y-136934566D02*
X223072105Y-138740969D01*
X216626442Y-120306442D02*
X216146110Y-119826110D01*
X216925000Y-120605000D02*
X216626442Y-120306442D01*
X219261111Y-141564210D02*
X217273882Y-143551439D01*
%TO.N,Net-(U1-PA8)*%
X219629694Y-118935399D02*
X219942250Y-118935399D01*
X219553102Y-141261922D02*
X220683432Y-140771590D01*
X218250000Y-120105000D02*
X218460093Y-120105000D01*
X217512500Y-120105000D02*
X218250000Y-120105000D01*
X206777500Y-140195000D02*
X207591000Y-140195000D01*
X221051029Y-140537840D02*
X222435587Y-139153282D01*
X218261311Y-142036777D02*
X219036166Y-141261922D01*
X222435587Y-136960352D02*
X224872740Y-134523198D01*
X233325476Y-121468773D02*
X233885515Y-120908735D01*
X209642870Y-142036777D02*
X218261311Y-142036777D01*
X207591000Y-140195000D02*
X207801093Y-140195000D01*
X224872740Y-134523198D02*
X224872740Y-129529767D01*
X222435587Y-139153282D02*
X222435587Y-136960352D01*
X232933734Y-121468773D02*
X233325476Y-121468773D01*
X220683432Y-140771590D02*
X221051029Y-140537840D01*
X219036166Y-141261922D02*
X219553102Y-141261922D01*
X224872740Y-129529767D02*
X232933734Y-121468773D01*
X207801093Y-140195000D02*
X209642870Y-142036777D01*
X218460093Y-120105000D02*
X219629694Y-118935399D01*
%TO.N,Net-(J5-Pin_11)*%
X218756670Y-140392743D02*
X220583266Y-140392743D01*
X223103985Y-134011194D02*
X223103985Y-130019767D01*
X217646564Y-141502849D02*
X218756670Y-140392743D01*
X225269524Y-127854228D02*
X225269524Y-117238629D01*
X214600000Y-114192500D02*
X214600000Y-114930000D01*
X221660292Y-139446314D02*
X221660292Y-135454887D01*
X220583266Y-140392743D02*
X220938446Y-140168160D01*
X214679094Y-115219187D02*
X215213919Y-115219187D01*
X220938446Y-140168160D02*
X221660292Y-139446314D01*
X214600000Y-115140093D02*
X214679094Y-115219187D01*
X225269524Y-117238629D02*
X221558572Y-113527677D01*
X214600000Y-114930000D02*
X214600000Y-115140093D01*
X223103985Y-130019767D02*
X225269524Y-127854228D01*
X221660292Y-135454887D02*
X223103985Y-134011194D01*
X213566090Y-141502849D02*
X217646564Y-141502849D01*
%TO.N,Net-(J5-Pin_12)*%
X216973370Y-146432504D02*
X202047496Y-146432504D01*
X214100000Y-114192500D02*
X214100000Y-114930000D01*
X202047496Y-146432504D02*
X201013558Y-147466442D01*
X224364968Y-141569169D02*
X223292737Y-142641400D01*
X220764474Y-142641400D02*
X216973370Y-146432504D01*
X226659783Y-135083726D02*
X226659783Y-141016930D01*
X200562500Y-147917500D02*
X200260000Y-148220000D01*
X223292737Y-142641400D02*
X220764474Y-142641400D01*
X214100000Y-114930000D02*
X214100000Y-115025393D01*
X226107544Y-141569169D02*
X224364968Y-141569169D01*
X228445282Y-133298227D02*
X226659783Y-135083726D01*
X226659783Y-141016930D02*
X226107544Y-141569169D01*
X214100000Y-115025393D02*
X211897518Y-117227875D01*
X201013558Y-147466442D02*
X200562500Y-147917500D01*
X211897518Y-117227875D02*
X202579199Y-117227875D01*
%TO.N,Net-(J5-Pin_13)*%
X223369161Y-138671815D02*
X223369161Y-136895887D01*
X213830971Y-113374029D02*
X214165102Y-113039898D01*
X223369161Y-136895887D02*
X233655728Y-126609321D01*
X213600000Y-114192500D02*
X213600000Y-113605000D01*
X219554958Y-141678679D02*
X220362297Y-141678679D01*
X214165102Y-113039898D02*
X214753907Y-113039898D01*
X234383829Y-120965769D02*
X234383829Y-120196203D01*
X217286715Y-143946922D02*
X219554958Y-141678679D01*
X233655728Y-126609321D02*
X233655728Y-121693870D01*
X209189672Y-143946922D02*
X217286715Y-143946922D01*
X233655728Y-121693870D02*
X234383829Y-120965769D01*
X220362297Y-141678679D02*
X223369161Y-138671815D01*
X213600000Y-113605000D02*
X213830971Y-113374029D01*
%TO.N,Net-(J9-Pin_10)*%
X208869248Y-112687108D02*
X208872470Y-112687108D01*
X208196750Y-113359607D02*
X208869248Y-112687108D01*
X208100000Y-114192500D02*
X208100000Y-113455000D01*
X208100000Y-113455000D02*
X208100000Y-113359607D01*
X208100000Y-113359607D02*
X208196750Y-113359607D01*
%TO.N,Net-(J9-Pin_11)*%
X207600000Y-114192500D02*
X207600000Y-113455000D01*
X207840226Y-113042914D02*
X208001546Y-113042914D01*
X207600000Y-113283140D02*
X207840226Y-113042914D01*
X207600000Y-113455000D02*
X207600000Y-113283140D01*
%TO.N,Net-(J9-Pin_12)*%
X221477971Y-108503288D02*
X229730698Y-116756015D01*
X207100000Y-114192500D02*
X207100000Y-113455000D01*
X240343767Y-121455551D02*
X241708445Y-122820229D01*
X207100000Y-113244907D02*
X207812834Y-112532073D01*
X234077366Y-117323001D02*
X234077366Y-118601583D01*
X214908862Y-108503288D02*
X221477971Y-108503288D01*
X207812834Y-112532073D02*
X208335797Y-112532073D01*
X236795551Y-121455551D02*
X240343767Y-121455551D01*
X234077366Y-118601583D02*
X234530800Y-119055017D01*
X234530800Y-119055017D02*
X236593217Y-119055017D01*
X236593217Y-119055017D02*
X236695993Y-119157793D01*
X236695993Y-121355993D02*
X236795551Y-121455551D01*
X233510380Y-116756015D02*
X234077366Y-117323001D01*
X213712698Y-109699452D02*
X214908862Y-108503288D01*
X207100000Y-113455000D02*
X207100000Y-113244907D01*
X229730698Y-116756015D02*
X233510380Y-116756015D01*
X236695993Y-119157793D02*
X236695993Y-121355993D01*
%TO.N,Net-(J9-Pin_13)*%
X227259608Y-138221449D02*
X227259608Y-138602977D01*
X230884947Y-134309683D02*
X230884947Y-134596110D01*
X227259608Y-138602977D02*
X235191712Y-146535082D01*
X243846442Y-147516442D02*
X244297500Y-147967500D01*
X206600000Y-115140093D02*
X205725281Y-116014812D01*
X206600000Y-114192500D02*
X206600000Y-114930000D01*
X244297500Y-147967500D02*
X244600000Y-148270000D01*
X235191712Y-146535082D02*
X242865082Y-146535082D01*
X242865082Y-146535082D02*
X243846442Y-147516442D01*
X230884947Y-134596110D02*
X227259608Y-138221449D01*
X205725281Y-116014812D02*
X205426803Y-116014812D01*
X206600000Y-114930000D02*
X206600000Y-115140093D01*
%TO.N,Net-(J9-Pin_14)*%
X206100000Y-113264023D02*
X206100000Y-113455000D01*
X213905446Y-110893545D02*
X216080943Y-108718048D01*
X250725635Y-138336076D02*
X251282130Y-138892571D01*
X251282130Y-138892571D02*
X251282130Y-144127870D01*
X216080943Y-108718048D02*
X221359249Y-108718048D01*
X221359249Y-108718048D02*
X230739257Y-118098056D01*
X206100000Y-113151129D02*
X206100000Y-113264023D01*
X206248739Y-113002390D02*
X206100000Y-113151129D01*
X247142420Y-136873105D02*
X248605391Y-138336076D01*
X208627140Y-110893545D02*
X213905446Y-110893545D01*
X230739257Y-118098056D02*
X230739257Y-118428790D01*
X251282130Y-144127870D02*
X247893558Y-147516442D01*
X248605391Y-138336076D02*
X250725635Y-138336076D01*
X247442500Y-147967500D02*
X247140000Y-148270000D01*
X247893558Y-147516442D02*
X247442500Y-147967500D01*
X206100000Y-113455000D02*
X206100000Y-114192500D01*
%TO.N,Net-(J9-Pin_15)*%
X202957636Y-120983977D02*
X201209413Y-122732199D01*
X205522018Y-120557183D02*
X205095224Y-120983977D01*
X205095224Y-120983977D02*
X202957636Y-120983977D01*
X197512630Y-116875804D02*
X198687938Y-118051111D01*
X249377500Y-148572500D02*
X249680000Y-148270000D01*
X245730332Y-147977203D02*
X245730332Y-148286731D01*
X239195465Y-141442336D02*
X245730332Y-147977203D01*
X248648303Y-149301697D02*
X249007547Y-148942453D01*
X204365940Y-116374154D02*
X197613932Y-116374154D01*
X197512630Y-116475455D02*
X197512630Y-116875804D01*
X198687938Y-118051111D02*
X204134692Y-118051111D01*
X204134692Y-118051111D02*
X205522018Y-119438437D01*
X205522018Y-119438437D02*
X205522018Y-120557183D01*
X201209413Y-122732199D02*
X201209413Y-124652648D01*
X249007547Y-148942453D02*
X249377500Y-148572500D01*
X205600000Y-114930000D02*
X205600000Y-115140093D01*
X246745298Y-149301697D02*
X248648303Y-149301697D01*
X245730332Y-148286731D02*
X246745298Y-149301697D01*
X205600000Y-115140093D02*
X204365940Y-116374154D01*
X197613932Y-116374154D02*
X197512630Y-116475455D01*
X205600000Y-114192500D02*
X205600000Y-114930000D01*
X238604391Y-141442336D02*
X239195465Y-141442336D01*
%TO.N,Net-(J9-Pin_16)*%
X203953363Y-113176129D02*
X203953363Y-113193853D01*
X203930666Y-113153432D02*
X203953363Y-113176129D01*
X204100000Y-113455000D02*
X204100000Y-114192500D01*
X204100000Y-113340490D02*
X204100000Y-113455000D01*
X203953363Y-113193853D02*
X204100000Y-113340490D01*
%TO.N,Net-(J6-Pin_4)*%
X212500000Y-102546093D02*
X212500000Y-102336000D01*
X203600000Y-112830806D02*
X203600000Y-113244907D01*
X212500000Y-102336000D02*
X212500000Y-101480000D01*
X203600000Y-113455000D02*
X203600000Y-114192500D01*
X212500000Y-104513127D02*
X212500000Y-102546093D01*
X203583527Y-112814334D02*
X203600000Y-112830806D01*
X203600000Y-113244907D02*
X203600000Y-113455000D01*
X212384697Y-104628430D02*
X212500000Y-104513127D01*
%TO.N,Net-(J6-Pin_5)*%
X203100000Y-113244907D02*
X201872383Y-112017290D01*
X209960000Y-102546093D02*
X209960000Y-103934770D01*
X209960000Y-101480000D02*
X209960000Y-102336000D01*
X203100000Y-113455000D02*
X203100000Y-113244907D01*
X209960000Y-102336000D02*
X209960000Y-102546093D01*
X209960000Y-103934770D02*
X209331141Y-104563628D01*
X201872383Y-112017290D02*
X201872383Y-111751039D01*
X203100000Y-114192500D02*
X203100000Y-113455000D01*
%TO.N,Net-(J6-Pin_6)*%
X202600000Y-113455000D02*
X202600000Y-113244907D01*
X200689240Y-111334146D02*
X200573080Y-111334146D01*
X202600000Y-114192500D02*
X202600000Y-113455000D01*
X202600000Y-113244907D02*
X200689240Y-111334146D01*
%TO.N,Net-(J6-Pin_7)*%
X200583629Y-111728535D02*
X200233853Y-111728535D01*
X202100000Y-114192500D02*
X202100000Y-113455000D01*
X202100000Y-113455000D02*
X202100000Y-113244907D01*
X202100000Y-113244907D02*
X200583629Y-111728535D01*
%TO.N,Net-(J6-Pin_8)*%
X200891329Y-115848764D02*
X199311812Y-115848764D01*
X201600000Y-114930000D02*
X201600000Y-115140093D01*
X201600000Y-115140093D02*
X200891329Y-115848764D01*
X201600000Y-114192500D02*
X201600000Y-114930000D01*
%TO.N,Net-(J6-Pin_9)*%
X199453788Y-115212196D02*
X199339459Y-115326526D01*
X200600000Y-114192500D02*
X200600000Y-114780000D01*
X190872223Y-110407777D02*
X199046442Y-102233558D01*
X197633658Y-115440855D02*
X197531570Y-115338767D01*
X190074833Y-110407777D02*
X190872223Y-110407777D01*
X199339459Y-115326526D02*
X198925245Y-115440855D01*
X197107433Y-115194132D02*
X194312415Y-115194132D01*
X194312415Y-115194132D02*
X192866066Y-113747783D01*
X200600000Y-114780000D02*
X200355512Y-115024488D01*
X200355512Y-115024488D02*
X200167804Y-115212196D01*
X200167804Y-115212196D02*
X199453788Y-115212196D01*
X198925245Y-115440855D02*
X197633658Y-115440855D01*
X199046442Y-102233558D02*
X199497500Y-101782500D01*
X199497500Y-101782500D02*
X199800000Y-101480000D01*
X197531570Y-115338767D02*
X197107433Y-115194132D01*
%TO.N,Net-(J6-Pin_10)*%
X200100000Y-114192500D02*
X200100000Y-113455000D01*
X200100000Y-113244907D02*
X199908042Y-113052949D01*
X200415692Y-110969890D02*
X201692919Y-110969890D01*
X197252853Y-105450174D02*
X197710866Y-105450174D01*
X199908042Y-113052949D02*
X199908042Y-111477540D01*
X201692919Y-110969890D02*
X202566370Y-111843340D01*
X200100000Y-113455000D02*
X200100000Y-113244907D01*
X199908042Y-111477540D02*
X200415692Y-110969890D01*
X197710866Y-105450174D02*
X203259622Y-110998930D01*
%TD*%
M02*
