%TF.GenerationSoftware,KiCad,Pcbnew,10.0.1*%
%TF.CreationDate,2026-07-22T19:21:52+02:00*%
%TF.ProjectId,TPA3116D2DADR,54504133-3131-4364-9432-444144522e6b,rev?*%
%TF.SameCoordinates,Original*%
%TF.FileFunction,Soldermask,Top*%
%TF.FilePolarity,Negative*%
%FSLAX46Y46*%
G04 Gerber Fmt 4.6, Leading zero omitted, Abs format (unit mm)*
G04 Created by KiCad (PCBNEW 10.0.1) date 2026-07-22 19:21:52*
%MOMM*%
%LPD*%
G01*
G04 APERTURE LIST*
G04 Aperture macros list*
%AMRoundRect*
0 Rectangle with rounded corners*
0 $1 Rounding radius*
0 $2 $3 $4 $5 $6 $7 $8 $9 X,Y pos of 4 corners*
0 Add a 4 corners polygon primitive as box body*
4,1,4,$2,$3,$4,$5,$6,$7,$8,$9,$2,$3,0*
0 Add four circle primitives for the rounded corners*
1,1,$1+$1,$2,$3*
1,1,$1+$1,$4,$5*
1,1,$1+$1,$6,$7*
1,1,$1+$1,$8,$9*
0 Add four rect primitives between the rounded corners*
20,1,$1+$1,$2,$3,$4,$5,0*
20,1,$1+$1,$4,$5,$6,$7,0*
20,1,$1+$1,$6,$7,$8,$9,0*
20,1,$1+$1,$8,$9,$2,$3,0*%
G04 Aperture macros list end*
%ADD10C,1.800000*%
%ADD11RoundRect,0.200000X-0.275000X0.200000X-0.275000X-0.200000X0.275000X-0.200000X0.275000X0.200000X0*%
%ADD12RoundRect,0.200000X-0.200000X-0.275000X0.200000X-0.275000X0.200000X0.275000X-0.200000X0.275000X0*%
%ADD13RoundRect,0.225000X-0.225000X-0.250000X0.225000X-0.250000X0.225000X0.250000X-0.225000X0.250000X0*%
%ADD14RoundRect,0.225000X0.225000X0.250000X-0.225000X0.250000X-0.225000X-0.250000X0.225000X-0.250000X0*%
%ADD15RoundRect,0.225000X-0.250000X0.225000X-0.250000X-0.225000X0.250000X-0.225000X0.250000X0.225000X0*%
%ADD16RoundRect,0.225000X0.250000X-0.225000X0.250000X0.225000X-0.250000X0.225000X-0.250000X-0.225000X0*%
%ADD17RoundRect,0.250000X-1.750000X-1.000000X1.750000X-1.000000X1.750000X1.000000X-1.750000X1.000000X0*%
%ADD18RoundRect,0.200000X0.275000X-0.200000X0.275000X0.200000X-0.275000X0.200000X-0.275000X-0.200000X0*%
%ADD19RoundRect,0.250000X1.750000X1.000000X-1.750000X1.000000X-1.750000X-1.000000X1.750000X-1.000000X0*%
%ADD20R,1.500000X2.400000*%
%ADD21R,1.475000X0.450000*%
%ADD22R,3.040000X3.740000*%
%ADD23R,1.500000X1.000000*%
%ADD24RoundRect,0.200000X0.200000X0.275000X-0.200000X0.275000X-0.200000X-0.275000X0.200000X-0.275000X0*%
%ADD25R,1.000000X1.500000*%
G04 APERTURE END LIST*
%TO.C,JP2*%
G36*
X165670000Y-122600000D02*
G01*
X167170000Y-122600000D01*
X167170000Y-122900000D01*
X165670000Y-122900000D01*
X165670000Y-122600000D01*
G37*
%TO.C,JP1*%
G36*
X165210000Y-108680000D02*
G01*
X165510000Y-108680000D01*
X165510000Y-110180000D01*
X165210000Y-110180000D01*
X165210000Y-108680000D01*
G37*
%TD*%
D10*
%TO.C,J4*%
X206070000Y-130210000D03*
X206070000Y-125130000D03*
%TD*%
%TO.C,J1*%
X141390000Y-103020000D03*
X141390000Y-108100000D03*
%TD*%
D11*
%TO.C,R8*%
X196280000Y-110285000D03*
X196280000Y-111935000D03*
%TD*%
D10*
%TO.C,J3*%
X206070000Y-108070000D03*
X206070000Y-102990000D03*
%TD*%
D12*
%TO.C,R3*%
X164560000Y-117230000D03*
X166210000Y-117230000D03*
%TD*%
D13*
%TO.C,C11*%
X180675000Y-109140000D03*
X182225000Y-109140000D03*
%TD*%
D14*
%TO.C,C8*%
X182605000Y-123970000D03*
X181055000Y-123970000D03*
%TD*%
D15*
%TO.C,C14*%
X183960000Y-106490000D03*
X183960000Y-108040000D03*
%TD*%
D11*
%TO.C,R10*%
X196380000Y-124030000D03*
X196380000Y-125680000D03*
%TD*%
D13*
%TO.C,C3*%
X147475000Y-125160000D03*
X149025000Y-125160000D03*
%TD*%
D11*
%TO.C,R12*%
X168490000Y-123095000D03*
X168490000Y-124745000D03*
%TD*%
D16*
%TO.C,C25*%
X193170000Y-125625000D03*
X193170000Y-124075000D03*
%TD*%
D17*
%TO.C,C30*%
X150680000Y-118390000D03*
X158680000Y-118390000D03*
%TD*%
D14*
%TO.C,C16*%
X182865000Y-117400000D03*
X181315000Y-117400000D03*
%TD*%
D16*
%TO.C,C21*%
X194780000Y-104905000D03*
X194780000Y-103355000D03*
%TD*%
D18*
%TO.C,R6*%
X168150000Y-109405000D03*
X168150000Y-107755000D03*
%TD*%
D13*
%TO.C,C1*%
X147480000Y-103070000D03*
X149030000Y-103070000D03*
%TD*%
D16*
%TO.C,C28*%
X197860000Y-117935000D03*
X197860000Y-116385000D03*
%TD*%
D13*
%TO.C,C5*%
X167840000Y-115330000D03*
X169390000Y-115330000D03*
%TD*%
D19*
%TO.C,C13*%
X178820000Y-127800000D03*
X170820000Y-127800000D03*
%TD*%
D10*
%TO.C,J2*%
X141380000Y-125160000D03*
X141380000Y-130240000D03*
%TD*%
D18*
%TO.C,R9*%
X196280000Y-117995000D03*
X196280000Y-116345000D03*
%TD*%
D16*
%TO.C,C29*%
X197960000Y-125625000D03*
X197960000Y-124075000D03*
%TD*%
D13*
%TO.C,C12*%
X180680000Y-107600000D03*
X182230000Y-107600000D03*
%TD*%
D15*
%TO.C,C19*%
X193120000Y-103355000D03*
X193120000Y-104905000D03*
%TD*%
D14*
%TO.C,C15*%
X182135000Y-115840000D03*
X180585000Y-115840000D03*
%TD*%
D20*
%TO.C,L4*%
X185810000Y-127730000D03*
X191310000Y-127730000D03*
%TD*%
D13*
%TO.C,C4*%
X147475000Y-130240000D03*
X149025000Y-130240000D03*
%TD*%
%TO.C,C2*%
X147470000Y-108100000D03*
X149020000Y-108100000D03*
%TD*%
D16*
%TO.C,C22*%
X197930000Y-104905000D03*
X197930000Y-103355000D03*
%TD*%
%TO.C,C26*%
X194710000Y-117950000D03*
X194710000Y-116400000D03*
%TD*%
%TO.C,C17*%
X180650000Y-122455000D03*
X180650000Y-120905000D03*
%TD*%
D15*
%TO.C,C24*%
X193110000Y-116405000D03*
X193110000Y-117955000D03*
%TD*%
D20*
%TO.C,L3*%
X185790000Y-120850000D03*
X191290000Y-120850000D03*
%TD*%
D21*
%TO.C,IC1*%
X171237000Y-111730000D03*
X171237000Y-112380000D03*
X171237000Y-113030000D03*
X171237000Y-113680000D03*
X171237000Y-114330000D03*
X171237000Y-114980000D03*
X171237000Y-115630000D03*
X171237000Y-116280000D03*
X171237000Y-116930000D03*
X171237000Y-117580000D03*
X171237000Y-118230000D03*
X171237000Y-118880000D03*
X171237000Y-119530000D03*
X171237000Y-120180000D03*
X171237000Y-120830000D03*
X171237000Y-121480000D03*
X178813000Y-121480000D03*
X178813000Y-120830000D03*
X178813000Y-120180000D03*
X178813000Y-119530000D03*
X178813000Y-118880000D03*
X178813000Y-118230000D03*
X178813000Y-117580000D03*
X178813000Y-116930000D03*
X178813000Y-116280000D03*
X178813000Y-115630000D03*
X178813000Y-114980000D03*
X178813000Y-114330000D03*
X178813000Y-113680000D03*
X178813000Y-113030000D03*
X178813000Y-112380000D03*
X178813000Y-111730000D03*
D22*
X175025000Y-116605000D03*
%TD*%
D18*
%TO.C,R7*%
X196330000Y-104950000D03*
X196330000Y-103300000D03*
%TD*%
D20*
%TO.C,L1*%
X185790000Y-107080000D03*
X191290000Y-107080000D03*
%TD*%
D23*
%TO.C,JP2*%
X166420000Y-123400000D03*
X166420000Y-122100000D03*
%TD*%
D15*
%TO.C,C20*%
X194710000Y-110335000D03*
X194710000Y-111885000D03*
%TD*%
D16*
%TO.C,C18*%
X193120000Y-111890000D03*
X193120000Y-110340000D03*
%TD*%
D19*
%TO.C,C10*%
X178400000Y-105290000D03*
X170400000Y-105290000D03*
%TD*%
D16*
%TO.C,C23*%
X197840000Y-111880000D03*
X197840000Y-110330000D03*
%TD*%
D24*
%TO.C,R5*%
X169325000Y-112380000D03*
X167675000Y-112380000D03*
%TD*%
D10*
%TO.C,J7*%
X141390000Y-114090000D03*
X141390000Y-119170000D03*
%TD*%
D12*
%TO.C,R4*%
X164555000Y-115620000D03*
X166205000Y-115620000D03*
%TD*%
D18*
%TO.C,R1*%
X169360000Y-121685000D03*
X169360000Y-120035000D03*
%TD*%
D15*
%TO.C,C27*%
X194770000Y-124085000D03*
X194770000Y-125635000D03*
%TD*%
D20*
%TO.C,L2*%
X185790000Y-113960000D03*
X191290000Y-113960000D03*
%TD*%
D25*
%TO.C,JP1*%
X164710000Y-109430000D03*
X166010000Y-109430000D03*
%TD*%
D14*
%TO.C,C9*%
X182605000Y-125510000D03*
X181055000Y-125510000D03*
%TD*%
M02*
