%TF.GenerationSoftware,KiCad,Pcbnew,10.0.1*%
%TF.CreationDate,2026-07-03T19:26:25+02:00*%
%TF.ProjectId,TPA3116D2DADR,54504133-3131-4364-9432-444144522e6b,rev?*%
%TF.SameCoordinates,Original*%
%TF.FileFunction,Paste,Top*%
%TF.FilePolarity,Positive*%
%FSLAX46Y46*%
G04 Gerber Fmt 4.6, Leading zero omitted, Abs format (unit mm)*
G04 Created by KiCad (PCBNEW 10.0.1) date 2026-07-03 19:26:25*
%MOMM*%
%LPD*%
G01*
G04 APERTURE LIST*
G04 Aperture macros list*
%AMRoundRect*
0 Rectangle with rounded corners*
0 $1 Rounding radius*
0 $2 $3 $4 $5 $6 $7 $8 $9 X,Y pos of 4 corners*
0 Add a 4 corners polygon primitive as box body*
4,1,4,$2,$3,$4,$5,$6,$7,$8,$9,$2,$3,0*
0 Add four circle primitives for the rounded corners*
1,1,$1+$1,$2,$3*
1,1,$1+$1,$4,$5*
1,1,$1+$1,$6,$7*
1,1,$1+$1,$8,$9*
0 Add four rect primitives between the rounded corners*
20,1,$1+$1,$2,$3,$4,$5,0*
20,1,$1+$1,$4,$5,$6,$7,0*
20,1,$1+$1,$6,$7,$8,$9,0*
20,1,$1+$1,$8,$9,$2,$3,0*%
G04 Aperture macros list end*
%ADD10RoundRect,0.135000X-0.200000X-0.135000X0.200000X-0.135000X0.200000X0.135000X-0.200000X0.135000X0*%
%ADD11RoundRect,0.062500X-0.350000X-0.062500X0.350000X-0.062500X0.350000X0.062500X-0.350000X0.062500X0*%
%ADD12RoundRect,0.200000X-0.275000X0.200000X-0.275000X-0.200000X0.275000X-0.200000X0.275000X0.200000X0*%
%ADD13RoundRect,0.200000X-0.200000X-0.275000X0.200000X-0.275000X0.200000X0.275000X-0.200000X0.275000X0*%
%ADD14RoundRect,0.225000X-0.225000X-0.250000X0.225000X-0.250000X0.225000X0.250000X-0.225000X0.250000X0*%
%ADD15RoundRect,0.225000X0.225000X0.250000X-0.225000X0.250000X-0.225000X-0.250000X0.225000X-0.250000X0*%
%ADD16RoundRect,0.225000X-0.250000X0.225000X-0.250000X-0.225000X0.250000X-0.225000X0.250000X0.225000X0*%
%ADD17RoundRect,0.250000X-1.750000X-1.000000X1.750000X-1.000000X1.750000X1.000000X-1.750000X1.000000X0*%
%ADD18RoundRect,0.225000X0.250000X-0.225000X0.250000X0.225000X-0.250000X0.225000X-0.250000X-0.225000X0*%
%ADD19RoundRect,0.200000X0.275000X-0.200000X0.275000X0.200000X-0.275000X0.200000X-0.275000X-0.200000X0*%
%ADD20RoundRect,0.250000X-1.000000X-0.650000X1.000000X-0.650000X1.000000X0.650000X-1.000000X0.650000X0*%
%ADD21RoundRect,0.375000X-0.375000X-0.375000X0.375000X-0.375000X0.375000X0.375000X-0.375000X0.375000X0*%
%ADD22RoundRect,0.125000X-0.250000X-0.125000X0.250000X-0.125000X0.250000X0.125000X-0.250000X0.125000X0*%
%ADD23RoundRect,0.100000X-0.275000X-0.100000X0.275000X-0.100000X0.275000X0.100000X-0.275000X0.100000X0*%
%ADD24R,2.350000X1.550000*%
%ADD25R,1.500000X2.400000*%
%ADD26RoundRect,0.250000X1.750000X1.000000X-1.750000X1.000000X-1.750000X-1.000000X1.750000X-1.000000X0*%
%ADD27R,1.475000X0.450000*%
%ADD28R,3.040000X3.740000*%
%ADD29RoundRect,0.375000X-0.625000X-0.375000X0.625000X-0.375000X0.625000X0.375000X-0.625000X0.375000X0*%
%ADD30RoundRect,0.500000X-0.500000X-1.400000X0.500000X-1.400000X0.500000X1.400000X-0.500000X1.400000X0*%
%ADD31RoundRect,0.200000X0.200000X0.275000X-0.200000X0.275000X-0.200000X-0.275000X0.200000X-0.275000X0*%
G04 APERTURE END LIST*
D10*
%TO.C,U2*%
X147530000Y-122010000D03*
X147530000Y-122690000D03*
X148350000Y-122010000D03*
X148350000Y-122690000D03*
D11*
X146502500Y-121850000D03*
X146502500Y-122350000D03*
X146502500Y-122850000D03*
X149377500Y-122850000D03*
X149377500Y-122350000D03*
X149377500Y-121850000D03*
%TD*%
D12*
%TO.C,R8*%
X196280000Y-110285000D03*
X196280000Y-111935000D03*
%TD*%
D13*
%TO.C,R3*%
X164560000Y-117230000D03*
X166210000Y-117230000D03*
%TD*%
D14*
%TO.C,C11*%
X180675000Y-109140000D03*
X182225000Y-109140000D03*
%TD*%
D15*
%TO.C,C8*%
X182605000Y-123970000D03*
X181055000Y-123970000D03*
%TD*%
D16*
%TO.C,C14*%
X183960000Y-106490000D03*
X183960000Y-108040000D03*
%TD*%
D12*
%TO.C,R10*%
X196380000Y-124030000D03*
X196380000Y-125680000D03*
%TD*%
D14*
%TO.C,C3*%
X142025000Y-125140000D03*
X143575000Y-125140000D03*
%TD*%
D17*
%TO.C,C13*%
X170400000Y-105310000D03*
X178400000Y-105310000D03*
%TD*%
D18*
%TO.C,C25*%
X193170000Y-125625000D03*
X193170000Y-124075000D03*
%TD*%
D14*
%TO.C,C30*%
X143430000Y-122920000D03*
X144980000Y-122920000D03*
%TD*%
D15*
%TO.C,C16*%
X182865000Y-117400000D03*
X181315000Y-117400000D03*
%TD*%
D18*
%TO.C,C21*%
X194780000Y-104905000D03*
X194780000Y-103355000D03*
%TD*%
D19*
%TO.C,R6*%
X168150000Y-109405000D03*
X168150000Y-107755000D03*
%TD*%
%TO.C,R11*%
X145130000Y-126240000D03*
X145130000Y-124590000D03*
%TD*%
D20*
%TO.C,D2*%
X152100000Y-122790000D03*
X156100000Y-122790000D03*
%TD*%
D14*
%TO.C,C1*%
X142030000Y-103050000D03*
X143580000Y-103050000D03*
%TD*%
D18*
%TO.C,C28*%
X197860000Y-117935000D03*
X197860000Y-116385000D03*
%TD*%
D14*
%TO.C,C5*%
X167840000Y-115330000D03*
X169390000Y-115330000D03*
%TD*%
D19*
%TO.C,R9*%
X196280000Y-117995000D03*
X196280000Y-116345000D03*
%TD*%
D16*
%TO.C,C7*%
X164450000Y-105830000D03*
X164450000Y-107380000D03*
%TD*%
D21*
%TO.C,Q1*%
X147180000Y-116985000D03*
X147180000Y-118685000D03*
X148880000Y-116985000D03*
X148880000Y-118685000D03*
D22*
X150285000Y-115930000D03*
X150285000Y-117200000D03*
X150285000Y-118470000D03*
X150285000Y-119740000D03*
D23*
X144480000Y-115930000D03*
X144480000Y-117200000D03*
X144480000Y-118470000D03*
X144480000Y-119740000D03*
%TD*%
D24*
%TO.C,D1*%
X152520000Y-119030000D03*
X156820000Y-119030000D03*
%TD*%
D18*
%TO.C,C29*%
X197960000Y-125625000D03*
X197960000Y-124075000D03*
%TD*%
D14*
%TO.C,C12*%
X180680000Y-107600000D03*
X182230000Y-107600000D03*
%TD*%
D16*
%TO.C,C19*%
X193120000Y-103355000D03*
X193120000Y-104905000D03*
%TD*%
D15*
%TO.C,C15*%
X182135000Y-115840000D03*
X180585000Y-115840000D03*
%TD*%
D25*
%TO.C,L4*%
X185810000Y-127730000D03*
X191310000Y-127730000D03*
%TD*%
D14*
%TO.C,C4*%
X142025000Y-130220000D03*
X143575000Y-130220000D03*
%TD*%
%TO.C,C2*%
X142020000Y-108080000D03*
X143570000Y-108080000D03*
%TD*%
D18*
%TO.C,C22*%
X197930000Y-104905000D03*
X197930000Y-103355000D03*
%TD*%
%TO.C,C26*%
X194710000Y-117950000D03*
X194710000Y-116400000D03*
%TD*%
%TO.C,C17*%
X180650000Y-122455000D03*
X180650000Y-120905000D03*
%TD*%
D16*
%TO.C,C24*%
X193110000Y-116405000D03*
X193110000Y-117955000D03*
%TD*%
D26*
%TO.C,C10*%
X178850000Y-127820000D03*
X170850000Y-127820000D03*
%TD*%
D25*
%TO.C,L3*%
X185790000Y-120850000D03*
X191290000Y-120850000D03*
%TD*%
D14*
%TO.C,C6*%
X154080000Y-110950000D03*
X155630000Y-110950000D03*
%TD*%
D27*
%TO.C,IC1*%
X171237000Y-111730000D03*
X171237000Y-112380000D03*
X171237000Y-113030000D03*
X171237000Y-113680000D03*
X171237000Y-114330000D03*
X171237000Y-114980000D03*
X171237000Y-115630000D03*
X171237000Y-116280000D03*
X171237000Y-116930000D03*
X171237000Y-117580000D03*
X171237000Y-118230000D03*
X171237000Y-118880000D03*
X171237000Y-119530000D03*
X171237000Y-120180000D03*
X171237000Y-120830000D03*
X171237000Y-121480000D03*
X178813000Y-121480000D03*
X178813000Y-120830000D03*
X178813000Y-120180000D03*
X178813000Y-119530000D03*
X178813000Y-118880000D03*
X178813000Y-118230000D03*
X178813000Y-117580000D03*
X178813000Y-116930000D03*
X178813000Y-116280000D03*
X178813000Y-115630000D03*
X178813000Y-114980000D03*
X178813000Y-114330000D03*
X178813000Y-113680000D03*
X178813000Y-113030000D03*
X178813000Y-112380000D03*
X178813000Y-111730000D03*
D28*
X175025000Y-116605000D03*
%TD*%
D19*
%TO.C,R7*%
X196330000Y-104950000D03*
X196330000Y-103300000D03*
%TD*%
D25*
%TO.C,L1*%
X185790000Y-107080000D03*
X191290000Y-107080000D03*
%TD*%
D16*
%TO.C,C20*%
X194710000Y-110335000D03*
X194710000Y-111885000D03*
%TD*%
D29*
%TO.C,U1*%
X155280000Y-104260000D03*
X155280000Y-106560000D03*
D30*
X161580000Y-106560000D03*
D29*
X155280000Y-108860000D03*
%TD*%
D18*
%TO.C,C18*%
X193120000Y-111890000D03*
X193120000Y-110340000D03*
%TD*%
%TO.C,C23*%
X197840000Y-111880000D03*
X197840000Y-110330000D03*
%TD*%
D31*
%TO.C,R5*%
X169325000Y-112380000D03*
X167675000Y-112380000D03*
%TD*%
%TO.C,R4*%
X166205000Y-115620000D03*
X164555000Y-115620000D03*
%TD*%
D19*
%TO.C,R1*%
X169360000Y-121685000D03*
X169360000Y-120035000D03*
%TD*%
D16*
%TO.C,C27*%
X194770000Y-124085000D03*
X194770000Y-125635000D03*
%TD*%
D25*
%TO.C,L2*%
X185790000Y-113960000D03*
X191290000Y-113960000D03*
%TD*%
D15*
%TO.C,C9*%
X182605000Y-125510000D03*
X181055000Y-125510000D03*
%TD*%
M02*
