M48
; DRILL file KiCad 10.0.1 date 2026-07-22T19:21:52
; FORMAT={-:-/ absolute / inch / decimal}
; #@! TF.CreationDate,2026-07-22T19:21:52+02:00
; #@! TF.GenerationSoftware,Kicad,Pcbnew,10.0.1
; #@! TF.FileFunction,Plated,1,2,PTH
FMAT,2
INCH
; #@! TA.AperFunction,Plated,PTH,ViaDrill
T1C0.0118
; #@! TA.AperFunction,Plated,PTH,ComponentDrill
T2C0.0472
%
G90
G05
T1
X5.9213Y-4.4917
X6.4846Y-4.424
X6.4874Y-4.8583
X6.6323Y-4.7907
X6.8075Y-4.5469
X6.8102Y-4.5933
X6.8102Y-4.6358
X6.8169Y-4.4988
X6.8177Y-4.6823
X6.8906Y-4.4933
X6.8906Y-4.6807
X6.9441Y-4.6843
X6.948Y-4.4957
T2
X5.5661Y-4.9276
X5.5661Y-5.1276
X5.5665Y-4.0559
X5.5665Y-4.2559
X5.5665Y-4.4917
X5.5665Y-4.6917
X8.113Y-4.0547
X8.113Y-4.2547
X8.113Y-4.9264
X8.113Y-5.1264
M30
