%TF.GenerationSoftware,KiCad,Pcbnew,10.0.1*%
%TF.CreationDate,2026-07-04T10:23:00+02:00*%
%TF.ProjectId,TPA3116D2DADR,54504133-3131-4364-9432-444144522e6b,rev?*%
%TF.SameCoordinates,Original*%
%TF.FileFunction,Legend,Top*%
%TF.FilePolarity,Positive*%
%FSLAX46Y46*%
G04 Gerber Fmt 4.6, Leading zero omitted, Abs format (unit mm)*
G04 Created by KiCad (PCBNEW 10.0.1) date 2026-07-04 10:23:00*
%MOMM*%
%LPD*%
G01*
G04 APERTURE LIST*
G04 Aperture macros list*
%AMRoundRect*
0 Rectangle with rounded corners*
0 $1 Rounding radius*
0 $2 $3 $4 $5 $6 $7 $8 $9 X,Y pos of 4 corners*
0 Add a 4 corners polygon primitive as box body*
4,1,4,$2,$3,$4,$5,$6,$7,$8,$9,$2,$3,0*
0 Add four circle primitives for the rounded corners*
1,1,$1+$1,$2,$3*
1,1,$1+$1,$4,$5*
1,1,$1+$1,$6,$7*
1,1,$1+$1,$8,$9*
0 Add four rect primitives between the rounded corners*
20,1,$1+$1,$2,$3,$4,$5,0*
20,1,$1+$1,$4,$5,$6,$7,0*
20,1,$1+$1,$6,$7,$8,$9,0*
20,1,$1+$1,$8,$9,$2,$3,0*%
%AMFreePoly0*
4,1,17,2.675000,1.605000,1.875000,1.605000,1.875000,0.935000,2.675000,0.935000,2.675000,0.335000,1.875000,0.335000,1.875000,-0.335000,2.675000,-0.335000,2.675000,-0.935000,1.875000,-0.935000,1.875000,-1.605000,2.675000,-1.605000,2.675000,-2.205000,-1.875000,-2.205000,-1.875000,2.205000,2.675000,2.205000,2.675000,1.605000,2.675000,1.605000,$1*%
G04 Aperture macros list end*
%ADD10C,0.120000*%
%ADD11C,0.200000*%
%ADD12RoundRect,0.062500X-0.350000X-0.062500X0.350000X-0.062500X0.350000X0.062500X-0.350000X0.062500X0*%
%ADD13R,1.650000X1.350000*%
%ADD14C,1.800000*%
%ADD15RoundRect,0.200000X-0.275000X0.200000X-0.275000X-0.200000X0.275000X-0.200000X0.275000X0.200000X0*%
%ADD16RoundRect,0.200000X-0.200000X-0.275000X0.200000X-0.275000X0.200000X0.275000X-0.200000X0.275000X0*%
%ADD17RoundRect,0.225000X-0.225000X-0.250000X0.225000X-0.250000X0.225000X0.250000X-0.225000X0.250000X0*%
%ADD18RoundRect,0.225000X0.225000X0.250000X-0.225000X0.250000X-0.225000X-0.250000X0.225000X-0.250000X0*%
%ADD19RoundRect,0.225000X-0.250000X0.225000X-0.250000X-0.225000X0.250000X-0.225000X0.250000X0.225000X0*%
%ADD20RoundRect,0.225000X0.250000X-0.225000X0.250000X0.225000X-0.250000X0.225000X-0.250000X-0.225000X0*%
%ADD21RoundRect,0.200000X0.275000X-0.200000X0.275000X0.200000X-0.275000X0.200000X-0.275000X-0.200000X0*%
%ADD22RoundRect,0.250000X-1.000000X-0.650000X1.000000X-0.650000X1.000000X0.650000X-1.000000X0.650000X0*%
%ADD23RoundRect,0.250000X1.750000X1.000000X-1.750000X1.000000X-1.750000X-1.000000X1.750000X-1.000000X0*%
%ADD24FreePoly0,0.000000*%
%ADD25RoundRect,0.125000X-0.300000X-0.125000X0.300000X-0.125000X0.300000X0.125000X-0.300000X0.125000X0*%
%ADD26R,2.350000X1.550000*%
%ADD27R,1.500000X2.400000*%
%ADD28R,1.475000X0.450000*%
%ADD29R,3.040000X3.740000*%
%ADD30R,1.500000X1.000000*%
%ADD31RoundRect,0.375000X-0.625000X-0.375000X0.625000X-0.375000X0.625000X0.375000X-0.625000X0.375000X0*%
%ADD32RoundRect,0.500000X-0.500000X-1.400000X0.500000X-1.400000X0.500000X1.400000X-0.500000X1.400000X0*%
%ADD33RoundRect,0.200000X0.200000X0.275000X-0.200000X0.275000X-0.200000X-0.275000X0.200000X-0.275000X0*%
%ADD34R,1.000000X1.500000*%
G04 APERTURE END LIST*
%TO.C,U2*%
D10*
X146330000Y-123460000D02*
X146330000Y-123235000D01*
X146573741Y-121240000D02*
X149550000Y-121240000D01*
X149550000Y-121240000D02*
X149550000Y-121465000D01*
X149550000Y-123235000D02*
X149550000Y-123460000D01*
X149550000Y-123460000D02*
X146330000Y-123460000D01*
X146180000Y-121460000D02*
X146040000Y-121270000D01*
X146320000Y-121270000D01*
X146180000Y-121460000D01*
G36*
X146180000Y-121460000D02*
G01*
X146040000Y-121270000D01*
X146320000Y-121270000D01*
X146180000Y-121460000D01*
G37*
%TO.C,J4*%
X209600000Y-122590000D02*
X219600000Y-122590000D01*
X209600000Y-132790000D02*
X209600000Y-122590000D01*
X219600000Y-122590000D02*
X219600000Y-132790000D01*
X219600000Y-132790000D02*
X209600000Y-132790000D01*
%TO.C,J1*%
X130440000Y-100440000D02*
X140440000Y-100440000D01*
X130440000Y-110640000D02*
X130440000Y-100440000D01*
X140440000Y-100440000D02*
X140440000Y-110640000D01*
X140440000Y-110640000D02*
X130440000Y-110640000D01*
%TO.C,R8*%
X195757500Y-110872742D02*
X195757500Y-111347258D01*
X196802500Y-110872742D02*
X196802500Y-111347258D01*
%TO.C,J3*%
X209600000Y-100450000D02*
X219600000Y-100450000D01*
X209600000Y-110650000D02*
X209600000Y-100450000D01*
X219600000Y-100450000D02*
X219600000Y-110650000D01*
X219600000Y-110650000D02*
X209600000Y-110650000D01*
%TO.C,R3*%
X165147742Y-116707500D02*
X165622258Y-116707500D01*
X165147742Y-117752500D02*
X165622258Y-117752500D01*
%TO.C,C11*%
X181309420Y-108630000D02*
X181590580Y-108630000D01*
X181309420Y-109650000D02*
X181590580Y-109650000D01*
%TO.C,C8*%
X181970580Y-123460000D02*
X181689420Y-123460000D01*
X181970580Y-124480000D02*
X181689420Y-124480000D01*
%TO.C,C14*%
X183450000Y-107124420D02*
X183450000Y-107405580D01*
X184470000Y-107124420D02*
X184470000Y-107405580D01*
%TO.C,R10*%
X195857500Y-124617742D02*
X195857500Y-125092258D01*
X196902500Y-124617742D02*
X196902500Y-125092258D01*
%TO.C,C3*%
X142659420Y-124630000D02*
X142940580Y-124630000D01*
X142659420Y-125650000D02*
X142940580Y-125650000D01*
%TO.C,R12*%
X167967500Y-123682742D02*
X167967500Y-124157258D01*
X169012500Y-123682742D02*
X169012500Y-124157258D01*
%TO.C,C25*%
X192660000Y-124990580D02*
X192660000Y-124709420D01*
X193680000Y-124990580D02*
X193680000Y-124709420D01*
%TO.C,C30*%
X144064420Y-122410000D02*
X144345580Y-122410000D01*
X144064420Y-123430000D02*
X144345580Y-123430000D01*
%TO.C,C16*%
X182230580Y-116890000D02*
X181949420Y-116890000D01*
X182230580Y-117910000D02*
X181949420Y-117910000D01*
%TO.C,C21*%
X194270000Y-104270580D02*
X194270000Y-103989420D01*
X195290000Y-104270580D02*
X195290000Y-103989420D01*
%TO.C,R6*%
X167627500Y-108817258D02*
X167627500Y-108342742D01*
X168672500Y-108817258D02*
X168672500Y-108342742D01*
%TO.C,R11*%
X144607500Y-125652258D02*
X144607500Y-125177742D01*
X145652500Y-125652258D02*
X145652500Y-125177742D01*
%TO.C,D2*%
X150590000Y-121140000D02*
X150590000Y-124440000D01*
X150590000Y-121140000D02*
X156100000Y-121140000D01*
X150590000Y-124440000D02*
X156100000Y-124440000D01*
%TO.C,C1*%
X142664420Y-102540000D02*
X142945580Y-102540000D01*
X142664420Y-103560000D02*
X142945580Y-103560000D01*
%TO.C,C28*%
X197350000Y-117300580D02*
X197350000Y-117019420D01*
X198370000Y-117300580D02*
X198370000Y-117019420D01*
%TO.C,C5*%
X168474420Y-114820000D02*
X168755580Y-114820000D01*
X168474420Y-115840000D02*
X168755580Y-115840000D01*
%TO.C,C13*%
X169560000Y-122540000D02*
X169560000Y-126290000D01*
X169560000Y-133060000D02*
X169560000Y-129310000D01*
X179015563Y-122540000D02*
X169560000Y-122540000D01*
X179015563Y-133060000D02*
X169560000Y-133060000D01*
X180080000Y-123604437D02*
X179015563Y-122540000D01*
X180080000Y-123604437D02*
X180080000Y-126290000D01*
X180080000Y-131995563D02*
X179015563Y-133060000D01*
X180080000Y-131995563D02*
X180080000Y-129310000D01*
X180945000Y-131185000D02*
X180945000Y-129935000D01*
X181570000Y-130560000D02*
X180320000Y-130560000D01*
%TO.C,J2*%
X130430000Y-122580000D02*
X140430000Y-122580000D01*
X130430000Y-132780000D02*
X130430000Y-122580000D01*
X140430000Y-122580000D02*
X140430000Y-132780000D01*
X140430000Y-132780000D02*
X130430000Y-132780000D01*
%TO.C,R9*%
X195757500Y-117407258D02*
X195757500Y-116932742D01*
X196802500Y-117407258D02*
X196802500Y-116932742D01*
%TO.C,C7*%
X163940000Y-106464420D02*
X163940000Y-106745580D01*
X164960000Y-106464420D02*
X164960000Y-106745580D01*
%TO.C,Q1*%
X150440000Y-115150000D02*
X144760000Y-115150000D01*
X150440000Y-120520000D02*
X144320000Y-120520000D01*
X144248378Y-115414730D02*
X144008378Y-115084730D01*
X144488378Y-115084730D01*
X144248378Y-115414730D01*
G36*
X144248378Y-115414730D02*
G01*
X144008378Y-115084730D01*
X144488378Y-115084730D01*
X144248378Y-115414730D01*
G37*
%TO.C,D1*%
D11*
X152072000Y-120332000D02*
X157268000Y-120332000D01*
X157268000Y-117728000D02*
X151745000Y-117728000D01*
%TO.C,C29*%
D10*
X197450000Y-124990580D02*
X197450000Y-124709420D01*
X198470000Y-124990580D02*
X198470000Y-124709420D01*
%TO.C,C12*%
X181314420Y-107090000D02*
X181595580Y-107090000D01*
X181314420Y-108110000D02*
X181595580Y-108110000D01*
%TO.C,C19*%
X192610000Y-103989420D02*
X192610000Y-104270580D01*
X193630000Y-103989420D02*
X193630000Y-104270580D01*
%TO.C,C15*%
X181500580Y-115330000D02*
X181219420Y-115330000D01*
X181500580Y-116350000D02*
X181219420Y-116350000D01*
%TO.C,L4*%
X185260000Y-124530000D02*
X191860000Y-124530000D01*
X185260000Y-126230000D02*
X185260000Y-124530000D01*
X185260000Y-130930000D02*
X185260000Y-129230000D01*
X191860000Y-124530000D02*
X191860000Y-126230000D01*
X191860000Y-129230000D02*
X191860000Y-130930000D01*
X191860000Y-130930000D02*
X185260000Y-130930000D01*
%TO.C,C4*%
X142659420Y-129710000D02*
X142940580Y-129710000D01*
X142659420Y-130730000D02*
X142940580Y-130730000D01*
%TO.C,C2*%
X142654420Y-107570000D02*
X142935580Y-107570000D01*
X142654420Y-108590000D02*
X142935580Y-108590000D01*
%TO.C,C22*%
X197420000Y-104270580D02*
X197420000Y-103989420D01*
X198440000Y-104270580D02*
X198440000Y-103989420D01*
%TO.C,C26*%
X194200000Y-117315580D02*
X194200000Y-117034420D01*
X195220000Y-117315580D02*
X195220000Y-117034420D01*
%TO.C,C17*%
X180140000Y-121820580D02*
X180140000Y-121539420D01*
X181160000Y-121820580D02*
X181160000Y-121539420D01*
%TO.C,C24*%
X192600000Y-117039420D02*
X192600000Y-117320580D01*
X193620000Y-117039420D02*
X193620000Y-117320580D01*
%TO.C,L3*%
X185240000Y-117650000D02*
X191840000Y-117650000D01*
X185240000Y-119350000D02*
X185240000Y-117650000D01*
X185240000Y-124050000D02*
X185240000Y-122350000D01*
X191840000Y-117650000D02*
X191840000Y-119350000D01*
X191840000Y-122350000D02*
X191840000Y-124050000D01*
X191840000Y-124050000D02*
X185240000Y-124050000D01*
%TO.C,C6*%
X154714420Y-110440000D02*
X154995580Y-110440000D01*
X154714420Y-111460000D02*
X154995580Y-111460000D01*
%TO.C,IC1*%
D11*
X170500000Y-111155000D02*
X171975000Y-111155000D01*
%TO.C,R7*%
D10*
X195807500Y-104362258D02*
X195807500Y-103887742D01*
X196852500Y-104362258D02*
X196852500Y-103887742D01*
%TO.C,L1*%
X185240000Y-103880000D02*
X191840000Y-103880000D01*
X185240000Y-105580000D02*
X185240000Y-103880000D01*
X185240000Y-110280000D02*
X185240000Y-108580000D01*
X191840000Y-103880000D02*
X191840000Y-105580000D01*
X191840000Y-108580000D02*
X191840000Y-110280000D01*
X191840000Y-110280000D02*
X185240000Y-110280000D01*
%TO.C,JP2*%
X165420000Y-121350000D02*
X167420000Y-121350000D01*
X165420000Y-124150000D02*
X165420000Y-121350000D01*
X167420000Y-121350000D02*
X167420000Y-124150000D01*
X167420000Y-124150000D02*
X165420000Y-124150000D01*
%TO.C,C20*%
X194200000Y-110969420D02*
X194200000Y-111250580D01*
X195220000Y-110969420D02*
X195220000Y-111250580D01*
%TO.C,U1*%
X156580000Y-103150000D02*
X160340000Y-103150000D01*
X156580000Y-109970000D02*
X160340000Y-109970000D01*
X160340000Y-103150000D02*
X160340000Y-104410000D01*
X160340000Y-109970000D02*
X160340000Y-108710000D01*
X155300000Y-103250000D02*
X155060000Y-102920000D01*
X155540000Y-102920000D01*
X155300000Y-103250000D01*
G36*
X155300000Y-103250000D02*
G01*
X155060000Y-102920000D01*
X155540000Y-102920000D01*
X155300000Y-103250000D01*
G37*
%TO.C,C18*%
X192610000Y-111255580D02*
X192610000Y-110974420D01*
X193630000Y-111255580D02*
X193630000Y-110974420D01*
%TO.C,C10*%
X169140000Y-100030000D02*
X169140000Y-103780000D01*
X169140000Y-110550000D02*
X169140000Y-106800000D01*
X178595563Y-100030000D02*
X169140000Y-100030000D01*
X178595563Y-110550000D02*
X169140000Y-110550000D01*
X179660000Y-101094437D02*
X178595563Y-100030000D01*
X179660000Y-101094437D02*
X179660000Y-103780000D01*
X179660000Y-109485563D02*
X178595563Y-110550000D01*
X179660000Y-109485563D02*
X179660000Y-106800000D01*
X180525000Y-108675000D02*
X180525000Y-107425000D01*
X181150000Y-108050000D02*
X179900000Y-108050000D01*
%TO.C,C23*%
X197330000Y-111245580D02*
X197330000Y-110964420D01*
X198350000Y-111245580D02*
X198350000Y-110964420D01*
%TO.C,R5*%
X168737258Y-111857500D02*
X168262742Y-111857500D01*
X168737258Y-112902500D02*
X168262742Y-112902500D01*
%TO.C,J7*%
X130440000Y-111510000D02*
X140440000Y-111510000D01*
X130440000Y-121710000D02*
X130440000Y-111510000D01*
X140440000Y-111510000D02*
X140440000Y-121710000D01*
X140440000Y-121710000D02*
X130440000Y-121710000D01*
%TO.C,R4*%
X165617258Y-115097500D02*
X165142742Y-115097500D01*
X165617258Y-116142500D02*
X165142742Y-116142500D01*
%TO.C,R1*%
X168837500Y-121097258D02*
X168837500Y-120622742D01*
X169882500Y-121097258D02*
X169882500Y-120622742D01*
%TO.C,C27*%
X194260000Y-124719420D02*
X194260000Y-125000580D01*
X195280000Y-124719420D02*
X195280000Y-125000580D01*
%TO.C,L2*%
X185240000Y-110760000D02*
X191840000Y-110760000D01*
X185240000Y-112460000D02*
X185240000Y-110760000D01*
X185240000Y-117160000D02*
X185240000Y-115460000D01*
X191840000Y-110760000D02*
X191840000Y-112460000D01*
X191840000Y-115460000D02*
X191840000Y-117160000D01*
X191840000Y-117160000D02*
X185240000Y-117160000D01*
%TO.C,JP1*%
X163960000Y-108430000D02*
X166760000Y-108430000D01*
X163960000Y-110430000D02*
X163960000Y-108430000D01*
X166760000Y-108430000D02*
X166760000Y-110430000D01*
X166760000Y-110430000D02*
X163960000Y-110430000D01*
%TO.C,C9*%
X181970580Y-125000000D02*
X181689420Y-125000000D01*
X181970580Y-126020000D02*
X181689420Y-126020000D01*
%TD*%
%LPC*%
%TO.C,JP2*%
G36*
X165670000Y-122600000D02*
G01*
X167170000Y-122600000D01*
X167170000Y-122900000D01*
X165670000Y-122900000D01*
X165670000Y-122600000D01*
G37*
%TO.C,JP1*%
G36*
X165210000Y-108680000D02*
G01*
X165510000Y-108680000D01*
X165510000Y-110180000D01*
X165210000Y-110180000D01*
X165210000Y-108680000D01*
G37*
%TD*%
D12*
%TO.C,U2*%
X146502500Y-121850000D03*
X146502500Y-122350000D03*
X146502500Y-122850000D03*
X149377500Y-122850000D03*
X149377500Y-122350000D03*
X149377500Y-121850000D03*
D13*
X147940000Y-122350000D03*
%TD*%
D14*
%TO.C,J4*%
X214100000Y-130230000D03*
X214100000Y-125150000D03*
%TD*%
%TO.C,J1*%
X135940000Y-103000000D03*
X135940000Y-108080000D03*
%TD*%
D15*
%TO.C,R8*%
X196280000Y-110285000D03*
X196280000Y-111935000D03*
%TD*%
D14*
%TO.C,J3*%
X214100000Y-108090000D03*
X214100000Y-103010000D03*
%TD*%
D16*
%TO.C,R3*%
X164560000Y-117230000D03*
X166210000Y-117230000D03*
%TD*%
D17*
%TO.C,C11*%
X180675000Y-109140000D03*
X182225000Y-109140000D03*
%TD*%
D18*
%TO.C,C8*%
X182605000Y-123970000D03*
X181055000Y-123970000D03*
%TD*%
D19*
%TO.C,C14*%
X183960000Y-106490000D03*
X183960000Y-108040000D03*
%TD*%
D15*
%TO.C,R10*%
X196380000Y-124030000D03*
X196380000Y-125680000D03*
%TD*%
D17*
%TO.C,C3*%
X142025000Y-125140000D03*
X143575000Y-125140000D03*
%TD*%
D15*
%TO.C,R12*%
X168490000Y-123095000D03*
X168490000Y-124745000D03*
%TD*%
D20*
%TO.C,C25*%
X193170000Y-125625000D03*
X193170000Y-124075000D03*
%TD*%
D17*
%TO.C,C30*%
X143430000Y-122920000D03*
X144980000Y-122920000D03*
%TD*%
D18*
%TO.C,C16*%
X182865000Y-117400000D03*
X181315000Y-117400000D03*
%TD*%
D20*
%TO.C,C21*%
X194780000Y-104905000D03*
X194780000Y-103355000D03*
%TD*%
D21*
%TO.C,R6*%
X168150000Y-109405000D03*
X168150000Y-107755000D03*
%TD*%
%TO.C,R11*%
X145130000Y-126240000D03*
X145130000Y-124590000D03*
%TD*%
D22*
%TO.C,D2*%
X152100000Y-122790000D03*
X156100000Y-122790000D03*
%TD*%
D17*
%TO.C,C1*%
X142030000Y-103050000D03*
X143580000Y-103050000D03*
%TD*%
D20*
%TO.C,C28*%
X197860000Y-117935000D03*
X197860000Y-116385000D03*
%TD*%
D17*
%TO.C,C5*%
X167840000Y-115330000D03*
X169390000Y-115330000D03*
%TD*%
D23*
%TO.C,C13*%
X178820000Y-127800000D03*
X170820000Y-127800000D03*
%TD*%
D14*
%TO.C,J2*%
X135930000Y-125140000D03*
X135930000Y-130220000D03*
%TD*%
D21*
%TO.C,R9*%
X196280000Y-117995000D03*
X196280000Y-116345000D03*
%TD*%
D19*
%TO.C,C7*%
X164450000Y-105830000D03*
X164450000Y-107380000D03*
%TD*%
D24*
%TO.C,Q1*%
X148030000Y-117835000D03*
D25*
X144480000Y-115930000D03*
X144480000Y-117200000D03*
X144480000Y-118470000D03*
X144480000Y-119740000D03*
%TD*%
D26*
%TO.C,D1*%
X152520000Y-119030000D03*
X156820000Y-119030000D03*
%TD*%
D20*
%TO.C,C29*%
X197960000Y-125625000D03*
X197960000Y-124075000D03*
%TD*%
D17*
%TO.C,C12*%
X180680000Y-107600000D03*
X182230000Y-107600000D03*
%TD*%
D19*
%TO.C,C19*%
X193120000Y-103355000D03*
X193120000Y-104905000D03*
%TD*%
D18*
%TO.C,C15*%
X182135000Y-115840000D03*
X180585000Y-115840000D03*
%TD*%
D27*
%TO.C,L4*%
X185810000Y-127730000D03*
X191310000Y-127730000D03*
%TD*%
D17*
%TO.C,C4*%
X142025000Y-130220000D03*
X143575000Y-130220000D03*
%TD*%
%TO.C,C2*%
X142020000Y-108080000D03*
X143570000Y-108080000D03*
%TD*%
D20*
%TO.C,C22*%
X197930000Y-104905000D03*
X197930000Y-103355000D03*
%TD*%
%TO.C,C26*%
X194710000Y-117950000D03*
X194710000Y-116400000D03*
%TD*%
%TO.C,C17*%
X180650000Y-122455000D03*
X180650000Y-120905000D03*
%TD*%
D19*
%TO.C,C24*%
X193110000Y-116405000D03*
X193110000Y-117955000D03*
%TD*%
D27*
%TO.C,L3*%
X185790000Y-120850000D03*
X191290000Y-120850000D03*
%TD*%
D17*
%TO.C,C6*%
X154080000Y-110950000D03*
X155630000Y-110950000D03*
%TD*%
D28*
%TO.C,IC1*%
X171237000Y-111730000D03*
X171237000Y-112380000D03*
X171237000Y-113030000D03*
X171237000Y-113680000D03*
X171237000Y-114330000D03*
X171237000Y-114980000D03*
X171237000Y-115630000D03*
X171237000Y-116280000D03*
X171237000Y-116930000D03*
X171237000Y-117580000D03*
X171237000Y-118230000D03*
X171237000Y-118880000D03*
X171237000Y-119530000D03*
X171237000Y-120180000D03*
X171237000Y-120830000D03*
X171237000Y-121480000D03*
X178813000Y-121480000D03*
X178813000Y-120830000D03*
X178813000Y-120180000D03*
X178813000Y-119530000D03*
X178813000Y-118880000D03*
X178813000Y-118230000D03*
X178813000Y-117580000D03*
X178813000Y-116930000D03*
X178813000Y-116280000D03*
X178813000Y-115630000D03*
X178813000Y-114980000D03*
X178813000Y-114330000D03*
X178813000Y-113680000D03*
X178813000Y-113030000D03*
X178813000Y-112380000D03*
X178813000Y-111730000D03*
D29*
X175025000Y-116605000D03*
%TD*%
D21*
%TO.C,R7*%
X196330000Y-104950000D03*
X196330000Y-103300000D03*
%TD*%
D27*
%TO.C,L1*%
X185790000Y-107080000D03*
X191290000Y-107080000D03*
%TD*%
D30*
%TO.C,JP2*%
X166420000Y-123400000D03*
X166420000Y-122100000D03*
%TD*%
D19*
%TO.C,C20*%
X194710000Y-110335000D03*
X194710000Y-111885000D03*
%TD*%
D31*
%TO.C,U1*%
X155280000Y-104260000D03*
X155280000Y-106560000D03*
D32*
X161580000Y-106560000D03*
D31*
X155280000Y-108860000D03*
%TD*%
D20*
%TO.C,C18*%
X193120000Y-111890000D03*
X193120000Y-110340000D03*
%TD*%
D23*
%TO.C,C10*%
X178400000Y-105290000D03*
X170400000Y-105290000D03*
%TD*%
D20*
%TO.C,C23*%
X197840000Y-111880000D03*
X197840000Y-110330000D03*
%TD*%
D33*
%TO.C,R5*%
X169325000Y-112380000D03*
X167675000Y-112380000D03*
%TD*%
D14*
%TO.C,J7*%
X135940000Y-114070000D03*
X135940000Y-119150000D03*
%TD*%
D33*
%TO.C,R4*%
X166205000Y-115620000D03*
X164555000Y-115620000D03*
%TD*%
D21*
%TO.C,R1*%
X169360000Y-121685000D03*
X169360000Y-120035000D03*
%TD*%
D19*
%TO.C,C27*%
X194770000Y-124085000D03*
X194770000Y-125635000D03*
%TD*%
D27*
%TO.C,L2*%
X185790000Y-113960000D03*
X191290000Y-113960000D03*
%TD*%
D34*
%TO.C,JP1*%
X164710000Y-109430000D03*
X166010000Y-109430000D03*
%TD*%
D18*
%TO.C,C9*%
X182605000Y-125510000D03*
X181055000Y-125510000D03*
%TD*%
%LPD*%
M02*
