%TF.GenerationSoftware,KiCad,Pcbnew,10.0.6*%
%TF.CreationDate,2026-09-08T21:38:04+02:00*%
%TF.ProjectId,CH397,43483339-372e-46b6-9963-61645f706362,rev?*%
%TF.SameCoordinates,Original*%
%TF.FileFunction,Legend,Top*%
%TF.FilePolarity,Positive*%
%FSLAX46Y46*%
G04 Gerber Fmt 4.6, Leading zero omitted, Abs format (unit mm)*
G04 Created by KiCad (PCBNEW 10.0.6) date 2026-09-08 21:38:04*
%MOMM*%
%LPD*%
G01*
G04 APERTURE LIST*
G04 Aperture macros list*
%AMRoundRect*
0 Rectangle with rounded corners*
0 $1 Rounding radius*
0 $2 $3 $4 $5 $6 $7 $8 $9 X,Y pos of 4 corners*
0 Add a 4 corners polygon primitive as box body*
4,1,4,$2,$3,$4,$5,$6,$7,$8,$9,$2,$3,0*
0 Add four circle primitives for the rounded corners*
1,1,$1+$1,$2,$3*
1,1,$1+$1,$4,$5*
1,1,$1+$1,$6,$7*
1,1,$1+$1,$8,$9*
0 Add four rect primitives between the rounded corners*
20,1,$1+$1,$2,$3,$4,$5,0*
20,1,$1+$1,$4,$5,$6,$7,0*
20,1,$1+$1,$6,$7,$8,$9,0*
20,1,$1+$1,$8,$9,$2,$3,0*%
G04 Aperture macros list end*
%ADD10C,0.120000*%
%ADD11C,0.250000*%
%ADD12C,0.060000*%
%ADD13C,0.200000*%
%ADD14C,0.100000*%
%ADD15C,0.000000*%
%ADD16C,0.510000*%
%ADD17RoundRect,0.225000X0.225000X0.250000X-0.225000X0.250000X-0.225000X-0.250000X0.225000X-0.250000X0*%
%ADD18RoundRect,0.225000X-0.225000X-0.250000X0.225000X-0.250000X0.225000X0.250000X-0.225000X0.250000X0*%
%ADD19C,3.000000*%
%ADD20C,1.500000*%
%ADD21O,2.200000X1.400000*%
%ADD22RoundRect,0.250000X-0.450000X-0.350000X0.450000X-0.350000X0.450000X0.350000X-0.450000X0.350000X0*%
%ADD23RoundRect,0.200000X0.200000X0.275000X-0.200000X0.275000X-0.200000X-0.275000X0.200000X-0.275000X0*%
%ADD24RoundRect,0.200000X-0.275000X0.200000X-0.275000X-0.200000X0.275000X-0.200000X0.275000X0.200000X0*%
%ADD25C,0.650000*%
%ADD26RoundRect,0.150000X0.575000X-0.150000X0.575000X0.150000X-0.575000X0.150000X-0.575000X-0.150000X0*%
%ADD27RoundRect,0.075000X0.650000X-0.075000X0.650000X0.075000X-0.650000X0.075000X-0.650000X-0.075000X0*%
%ADD28O,2.100000X1.000000*%
%ADD29O,1.600000X1.000000*%
%ADD30O,0.700000X0.280000*%
%ADD31O,0.280000X0.700000*%
%ADD32R,2.800000X2.800000*%
%ADD33RoundRect,0.200000X0.275000X-0.200000X0.275000X0.200000X-0.275000X0.200000X-0.275000X-0.200000X0*%
%ADD34RoundRect,0.200000X-0.200000X-0.275000X0.200000X-0.275000X0.200000X0.275000X-0.200000X0.275000X0*%
%ADD35R,2.100000X0.650000*%
%ADD36RoundRect,0.225000X0.250000X-0.225000X0.250000X0.225000X-0.250000X0.225000X-0.250000X-0.225000X0*%
%ADD37RoundRect,0.225000X-0.250000X0.225000X-0.250000X-0.225000X0.250000X-0.225000X0.250000X0.225000X0*%
G04 APERTURE END LIST*
%TO.C,C9*%
D10*
X172212468Y-121540990D02*
X171931308Y-121540990D01*
X172212468Y-122560990D02*
X171931308Y-122560990D01*
%TO.C,C1*%
X170317479Y-113273403D02*
X170598639Y-113273403D01*
X170317479Y-114293403D02*
X170598639Y-114293403D01*
%TO.C,C12*%
X180692089Y-117407197D02*
X180973249Y-117407197D01*
X180692089Y-118427197D02*
X180973249Y-118427197D01*
%TO.C,RJ1*%
D11*
X140120000Y-128180000D02*
X140120000Y-111780000D01*
X147540000Y-111780000D02*
X140120000Y-111780000D01*
X147540000Y-128180000D02*
X140120000Y-128180000D01*
X155620000Y-111780000D02*
X150190000Y-111780000D01*
X155620000Y-111780000D02*
X155620000Y-128180000D01*
X155620000Y-128180000D02*
X150190000Y-128180000D01*
D12*
X140150000Y-128330000D02*
G75*
G02*
X140090000Y-128330000I-30000J0D01*
G01*
X140090000Y-128330000D02*
G75*
G02*
X140150000Y-128330000I30000J0D01*
G01*
%TO.C,Y1*%
D10*
X174558051Y-114018975D02*
X174558051Y-117438975D01*
X174558051Y-117438975D02*
X178678051Y-117438975D01*
%TO.C,R3*%
X158937427Y-127729179D02*
X158462911Y-127729179D01*
X158937427Y-128774179D02*
X158462911Y-128774179D01*
%TO.C,R1*%
X156274934Y-113485111D02*
X156274934Y-113959627D01*
X157319934Y-113485111D02*
X157319934Y-113959627D01*
%TO.C,J3*%
X194845000Y-115290000D02*
X196845000Y-115290000D01*
X194845000Y-124690000D02*
X196845000Y-124690000D01*
X198745000Y-115290000D02*
X200645000Y-115290000D01*
X198745000Y-124690000D02*
X200645000Y-124690000D01*
X200645000Y-124690000D02*
X200645000Y-115290000D01*
%TO.C,C3*%
X170086933Y-123378231D02*
X170368093Y-123378231D01*
X170086933Y-124398231D02*
X170368093Y-124398231D01*
%TO.C,U1*%
D13*
X174492406Y-118150000D02*
X174892406Y-118150000D01*
X174492406Y-118550000D02*
X174492406Y-118150000D01*
X174492406Y-122450000D02*
X174492406Y-122050000D01*
X174892406Y-122450000D02*
X174492406Y-122450000D01*
X178392406Y-118150000D02*
X178792406Y-118150000D01*
X178392406Y-122450000D02*
X178792406Y-122450000D01*
X178792406Y-118150000D02*
X178792406Y-118550000D01*
X178792406Y-122450000D02*
X178792406Y-122050000D01*
D14*
X174692406Y-118290000D02*
G75*
G02*
X174592406Y-118290000I-50000J0D01*
G01*
X174592406Y-118290000D02*
G75*
G02*
X174692406Y-118290000I50000J0D01*
G01*
D15*
%TO.C,R10*%
D10*
X189519231Y-118772386D02*
X189519231Y-118297870D01*
X190564231Y-118772386D02*
X190564231Y-118297870D01*
%TO.C,R2*%
X159629067Y-112571938D02*
X159154551Y-112571938D01*
X159629067Y-113616938D02*
X159154551Y-113616938D01*
%TO.C,R13*%
X163548364Y-111423662D02*
X163073848Y-111423662D01*
X163548364Y-112468662D02*
X163073848Y-112468662D01*
%TO.C,R4*%
X168606973Y-111423662D02*
X169081489Y-111423662D01*
X168606973Y-112468662D02*
X169081489Y-112468662D01*
%TO.C,C8*%
X181203796Y-121540990D02*
X180922636Y-121540990D01*
X181203796Y-122560990D02*
X180922636Y-122560990D01*
%TO.C,L1*%
D11*
X159190000Y-127010000D02*
X159190000Y-114310000D01*
X161830000Y-127010000D02*
X159200000Y-127010000D01*
X165890000Y-114310000D02*
X159190000Y-114310000D01*
X165890000Y-127010000D02*
X163260000Y-127010000D01*
X165890000Y-127010000D02*
X165890000Y-114310000D01*
X161840000Y-127000000D02*
G75*
G02*
X163260000Y-127000000I710000J0D01*
G01*
D16*
X167210000Y-126270000D02*
G75*
G02*
X166710000Y-126270000I-250000J0D01*
G01*
X166710000Y-126270000D02*
G75*
G02*
X167210000Y-126270000I250000J0D01*
G01*
D12*
X167330000Y-127010000D02*
G75*
G02*
X167270000Y-127010000I-30000J0D01*
G01*
X167270000Y-127010000D02*
G75*
G02*
X167330000Y-127010000I30000J0D01*
G01*
%TO.C,C14*%
D10*
X179342122Y-115470535D02*
X179342122Y-115189375D01*
X180362122Y-115470535D02*
X180362122Y-115189375D01*
%TO.C,C10*%
X180922636Y-119703748D02*
X181203796Y-119703748D01*
X180922636Y-120723748D02*
X181203796Y-120723748D01*
%TO.C,R9*%
X189597742Y-120767500D02*
X190072258Y-120767500D01*
X189597742Y-121812500D02*
X190072258Y-121812500D01*
%TO.C,R14*%
X164470552Y-127958834D02*
X163996036Y-127958834D01*
X164470552Y-129003834D02*
X163996036Y-129003834D01*
%TO.C,C5*%
X177053952Y-112354783D02*
X176772792Y-112354783D01*
X177053952Y-113374783D02*
X176772792Y-113374783D01*
%TO.C,C4*%
X172673561Y-115340300D02*
X172392401Y-115340300D01*
X172673561Y-116360300D02*
X172392401Y-116360300D01*
%TO.C,C7*%
X178650481Y-124886397D02*
X178650481Y-124605237D01*
X179670481Y-124886397D02*
X179670481Y-124605237D01*
%TO.C,C2*%
X170086933Y-117177541D02*
X170368093Y-117177541D01*
X170086933Y-118197541D02*
X170368093Y-118197541D01*
%TO.C,R12*%
X175957469Y-125200925D02*
X175957469Y-125675441D01*
X177002469Y-125200925D02*
X177002469Y-125675441D01*
%TO.C,C6*%
X171931308Y-119014783D02*
X172212468Y-119014783D01*
X171931308Y-120034783D02*
X172212468Y-120034783D01*
%TO.C,C11*%
X181614276Y-123378231D02*
X181895436Y-123378231D01*
X181614276Y-124398231D02*
X181895436Y-124398231D01*
%TO.C,C13*%
X168967513Y-120241789D02*
X168967513Y-120522949D01*
X169987513Y-120241789D02*
X169987513Y-120522949D01*
%TO.C,R11*%
X174116469Y-125200925D02*
X174116469Y-125675441D01*
X175161469Y-125200925D02*
X175161469Y-125675441D01*
%TD*%
%LPC*%
D17*
%TO.C,C9*%
X172846888Y-122050990D03*
X171296888Y-122050990D03*
%TD*%
D18*
%TO.C,C1*%
X169683059Y-113783403D03*
X171233059Y-113783403D03*
%TD*%
%TO.C,C12*%
X180057669Y-117917197D03*
X181607669Y-117917197D03*
%TD*%
D19*
%TO.C,RJ1*%
X145370000Y-113600000D03*
X145370000Y-126300000D03*
D20*
X147900000Y-123520000D03*
X149700000Y-122500000D03*
X147900000Y-121480000D03*
X149700000Y-120460000D03*
X147900000Y-119440000D03*
X149700000Y-118420000D03*
X147900000Y-117400000D03*
X149700000Y-116380000D03*
D21*
X148870000Y-128080000D03*
X148870000Y-111880000D03*
D20*
X154420000Y-113090000D03*
X154420000Y-115380000D03*
X154420000Y-124520000D03*
X154420000Y-126810000D03*
%TD*%
D22*
%TO.C,Y1*%
X175518051Y-116578975D03*
X177718051Y-116578975D03*
X177718051Y-114878975D03*
X175518051Y-114878975D03*
%TD*%
D23*
%TO.C,R3*%
X159525169Y-128251679D03*
X157875169Y-128251679D03*
%TD*%
D24*
%TO.C,R1*%
X156797434Y-112897369D03*
X156797434Y-114547369D03*
%TD*%
D25*
%TO.C,J3*%
X194145000Y-122880000D03*
X194145000Y-117100000D03*
D26*
X192700000Y-123240000D03*
X192700000Y-122440000D03*
D27*
X192700000Y-121240000D03*
X192700000Y-120240000D03*
X192700000Y-119740000D03*
X192700000Y-118740000D03*
D26*
X192700000Y-117540000D03*
X192700000Y-116740000D03*
X192700000Y-116740000D03*
X192700000Y-117540000D03*
D27*
X192700000Y-118240000D03*
X192700000Y-119240000D03*
X192700000Y-120740000D03*
X192700000Y-121740000D03*
D26*
X192700000Y-122440000D03*
X192700000Y-123240000D03*
D28*
X193615000Y-124310000D03*
D29*
X197795000Y-124310000D03*
D28*
X193615000Y-115670000D03*
D29*
X197795000Y-115670000D03*
%TD*%
D18*
%TO.C,C3*%
X169452513Y-123888231D03*
X171002513Y-123888231D03*
%TD*%
D30*
%TO.C,U1*%
X174642406Y-119040000D03*
X174642406Y-119540000D03*
X174642406Y-120040000D03*
X174642406Y-120540000D03*
X174642406Y-121040000D03*
X174642406Y-121540000D03*
D31*
X175392406Y-122290000D03*
X175892406Y-122290000D03*
X176392406Y-122290000D03*
X176892406Y-122290000D03*
X177392406Y-122290000D03*
X177892406Y-122290000D03*
D30*
X178642406Y-121540000D03*
X178642406Y-121040000D03*
X178642406Y-120540000D03*
X178642406Y-120040000D03*
X178642406Y-119540000D03*
X178642406Y-119040000D03*
D31*
X177892406Y-118290000D03*
X177392406Y-118290000D03*
X176892406Y-118290000D03*
X176392406Y-118290000D03*
X175892406Y-118290000D03*
X175392406Y-118290000D03*
D32*
X176642406Y-120300000D03*
%TD*%
D33*
%TO.C,R10*%
X190041731Y-119360128D03*
X190041731Y-117710128D03*
%TD*%
D23*
%TO.C,R2*%
X160216809Y-113094438D03*
X158566809Y-113094438D03*
%TD*%
%TO.C,R13*%
X164136106Y-111946162D03*
X162486106Y-111946162D03*
%TD*%
D34*
%TO.C,R4*%
X168019231Y-111946162D03*
X169669231Y-111946162D03*
%TD*%
D17*
%TO.C,C8*%
X181838216Y-122050990D03*
X180288216Y-122050990D03*
%TD*%
D35*
%TO.C,L1*%
X167240000Y-125100000D03*
X167240000Y-123830000D03*
X167240000Y-122560000D03*
X167240000Y-121290000D03*
X167240000Y-120030000D03*
X167240000Y-118760000D03*
X167240000Y-117480000D03*
X167240000Y-116210000D03*
X157840000Y-116210000D03*
X157840000Y-117480000D03*
X157840000Y-118760000D03*
X157840000Y-120030000D03*
X157840000Y-121290000D03*
X157840000Y-122560000D03*
X157840000Y-123830000D03*
X157840000Y-125100000D03*
%TD*%
D36*
%TO.C,C14*%
X179852122Y-116104955D03*
X179852122Y-114554955D03*
%TD*%
D18*
%TO.C,C10*%
X180288216Y-120213748D03*
X181838216Y-120213748D03*
%TD*%
D34*
%TO.C,R9*%
X189010000Y-121290000D03*
X190660000Y-121290000D03*
%TD*%
D23*
%TO.C,R14*%
X165058294Y-128481334D03*
X163408294Y-128481334D03*
%TD*%
D17*
%TO.C,C5*%
X177688372Y-112864783D03*
X176138372Y-112864783D03*
%TD*%
%TO.C,C4*%
X173307981Y-115850300D03*
X171757981Y-115850300D03*
%TD*%
D36*
%TO.C,C7*%
X179160481Y-125520817D03*
X179160481Y-123970817D03*
%TD*%
D18*
%TO.C,C2*%
X169452513Y-117687541D03*
X171002513Y-117687541D03*
%TD*%
D24*
%TO.C,R12*%
X176479969Y-124613183D03*
X176479969Y-126263183D03*
%TD*%
D18*
%TO.C,C6*%
X171296888Y-119524783D03*
X172846888Y-119524783D03*
%TD*%
%TO.C,C11*%
X180979856Y-123888231D03*
X182529856Y-123888231D03*
%TD*%
D37*
%TO.C,C13*%
X169477513Y-119607369D03*
X169477513Y-121157369D03*
%TD*%
D24*
%TO.C,R11*%
X174638969Y-124613183D03*
X174638969Y-126263183D03*
%TD*%
%LPD*%
M02*
