%TF.GenerationSoftware,KiCad,Pcbnew,10.0.1*%
%TF.CreationDate,2026-06-17T00:02:37+02:00*%
%TF.ProjectId,QPL9547TR7,51504c39-3534-4375-9452-372e6b696361,rev?*%
%TF.SameCoordinates,Original*%
%TF.FileFunction,Soldermask,Bot*%
%TF.FilePolarity,Negative*%
%FSLAX46Y46*%
G04 Gerber Fmt 4.6, Leading zero omitted, Abs format (unit mm)*
G04 Created by KiCad (PCBNEW 10.0.1) date 2026-06-17 00:02:37*
%MOMM*%
%LPD*%
G01*
G04 APERTURE LIST*
G04 APERTURE END LIST*
G36*
X176881790Y-122305393D02*
G01*
X177045952Y-122358733D01*
X177199748Y-122437096D01*
X177339393Y-122538553D01*
X177461447Y-122660607D01*
X177562904Y-122800252D01*
X177641267Y-122954048D01*
X177694607Y-123118210D01*
X177721609Y-123288695D01*
X177721609Y-123461305D01*
X177694607Y-123631790D01*
X177641267Y-123795952D01*
X177562904Y-123949748D01*
X177461447Y-124089393D01*
X177339393Y-124211447D01*
X177199748Y-124312904D01*
X177045952Y-124391267D01*
X176881790Y-124444607D01*
X176711305Y-124471609D01*
X176538695Y-124471609D01*
X176368210Y-124444607D01*
X176204048Y-124391267D01*
X176050252Y-124312904D01*
X175910607Y-124211447D01*
X175788553Y-124089393D01*
X175687096Y-123949748D01*
X175608733Y-123795952D01*
X175555393Y-123631790D01*
X175528391Y-123461305D01*
X175528391Y-123288695D01*
X175555393Y-123118210D01*
X175608733Y-122954048D01*
X175687096Y-122800252D01*
X175788553Y-122660607D01*
X175910607Y-122538553D01*
X176050252Y-122437096D01*
X176204048Y-122358733D01*
X176368210Y-122305393D01*
X176538695Y-122278391D01*
X176711305Y-122278391D01*
X176881790Y-122305393D01*
G37*
G36*
X181981790Y-122305393D02*
G01*
X182145952Y-122358733D01*
X182299748Y-122437096D01*
X182439393Y-122538553D01*
X182561447Y-122660607D01*
X182662904Y-122800252D01*
X182741267Y-122954048D01*
X182794607Y-123118210D01*
X182821609Y-123288695D01*
X182821609Y-123461305D01*
X182794607Y-123631790D01*
X182741267Y-123795952D01*
X182662904Y-123949748D01*
X182561447Y-124089393D01*
X182439393Y-124211447D01*
X182299748Y-124312904D01*
X182145952Y-124391267D01*
X181981790Y-124444607D01*
X181811305Y-124471609D01*
X181638695Y-124471609D01*
X181468210Y-124444607D01*
X181304048Y-124391267D01*
X181150252Y-124312904D01*
X181010607Y-124211447D01*
X180888553Y-124089393D01*
X180787096Y-123949748D01*
X180708733Y-123795952D01*
X180655393Y-123631790D01*
X180628391Y-123461305D01*
X180628391Y-123288695D01*
X180655393Y-123118210D01*
X180708733Y-122954048D01*
X180787096Y-122800252D01*
X180888553Y-122660607D01*
X181010607Y-122538553D01*
X181150252Y-122437096D01*
X181304048Y-122358733D01*
X181468210Y-122305393D01*
X181638695Y-122278391D01*
X181811305Y-122278391D01*
X181981790Y-122305393D01*
G37*
G36*
X243931790Y-122305393D02*
G01*
X244095952Y-122358733D01*
X244249748Y-122437096D01*
X244389393Y-122538553D01*
X244511447Y-122660607D01*
X244612904Y-122800252D01*
X244691267Y-122954048D01*
X244744607Y-123118210D01*
X244771609Y-123288695D01*
X244771609Y-123461305D01*
X244744607Y-123631790D01*
X244691267Y-123795952D01*
X244612904Y-123949748D01*
X244511447Y-124089393D01*
X244389393Y-124211447D01*
X244249748Y-124312904D01*
X244095952Y-124391267D01*
X243931790Y-124444607D01*
X243761305Y-124471609D01*
X243588695Y-124471609D01*
X243418210Y-124444607D01*
X243254048Y-124391267D01*
X243100252Y-124312904D01*
X242960607Y-124211447D01*
X242838553Y-124089393D01*
X242737096Y-123949748D01*
X242658733Y-123795952D01*
X242605393Y-123631790D01*
X242578391Y-123461305D01*
X242578391Y-123288695D01*
X242605393Y-123118210D01*
X242658733Y-122954048D01*
X242737096Y-122800252D01*
X242838553Y-122660607D01*
X242960607Y-122538553D01*
X243100252Y-122437096D01*
X243254048Y-122358733D01*
X243418210Y-122305393D01*
X243588695Y-122278391D01*
X243761305Y-122278391D01*
X243931790Y-122305393D01*
G37*
G36*
X249031790Y-122305393D02*
G01*
X249195952Y-122358733D01*
X249349748Y-122437096D01*
X249489393Y-122538553D01*
X249611447Y-122660607D01*
X249712904Y-122800252D01*
X249791267Y-122954048D01*
X249844607Y-123118210D01*
X249871609Y-123288695D01*
X249871609Y-123461305D01*
X249844607Y-123631790D01*
X249791267Y-123795952D01*
X249712904Y-123949748D01*
X249611447Y-124089393D01*
X249489393Y-124211447D01*
X249349748Y-124312904D01*
X249195952Y-124391267D01*
X249031790Y-124444607D01*
X248861305Y-124471609D01*
X248688695Y-124471609D01*
X248518210Y-124444607D01*
X248354048Y-124391267D01*
X248200252Y-124312904D01*
X248060607Y-124211447D01*
X247938553Y-124089393D01*
X247837096Y-123949748D01*
X247758733Y-123795952D01*
X247705393Y-123631790D01*
X247678391Y-123461305D01*
X247678391Y-123288695D01*
X247705393Y-123118210D01*
X247758733Y-122954048D01*
X247837096Y-122800252D01*
X247938553Y-122660607D01*
X248060607Y-122538553D01*
X248200252Y-122437096D01*
X248354048Y-122358733D01*
X248518210Y-122305393D01*
X248688695Y-122278391D01*
X248861305Y-122278391D01*
X249031790Y-122305393D01*
G37*
G36*
X180201475Y-119690232D02*
G01*
X180266392Y-119733608D01*
X180309768Y-119798525D01*
X180325000Y-119875100D01*
X180325000Y-121774900D01*
X180309768Y-121851475D01*
X180266392Y-121916392D01*
X180201475Y-121959768D01*
X180124900Y-121975000D01*
X178225100Y-121975000D01*
X178148525Y-121959768D01*
X178083608Y-121916392D01*
X178040232Y-121851475D01*
X178025000Y-121774900D01*
X178025000Y-119875100D01*
X178040232Y-119798525D01*
X178083608Y-119733608D01*
X178148525Y-119690232D01*
X178225100Y-119675000D01*
X180124900Y-119675000D01*
X180201475Y-119690232D01*
G37*
G36*
X247251475Y-119690232D02*
G01*
X247316392Y-119733608D01*
X247359768Y-119798525D01*
X247375000Y-119875100D01*
X247375000Y-121774900D01*
X247359768Y-121851475D01*
X247316392Y-121916392D01*
X247251475Y-121959768D01*
X247174900Y-121975000D01*
X245275100Y-121975000D01*
X245198525Y-121959768D01*
X245133608Y-121916392D01*
X245090232Y-121851475D01*
X245075000Y-121774900D01*
X245075000Y-119875100D01*
X245090232Y-119798525D01*
X245133608Y-119733608D01*
X245198525Y-119690232D01*
X245275100Y-119675000D01*
X247174900Y-119675000D01*
X247251475Y-119690232D01*
G37*
G36*
X176881790Y-117205393D02*
G01*
X177045952Y-117258733D01*
X177199748Y-117337096D01*
X177339393Y-117438553D01*
X177461447Y-117560607D01*
X177562904Y-117700252D01*
X177641267Y-117854048D01*
X177694607Y-118018210D01*
X177721609Y-118188695D01*
X177721609Y-118361305D01*
X177694607Y-118531790D01*
X177641267Y-118695952D01*
X177562904Y-118849748D01*
X177461447Y-118989393D01*
X177339393Y-119111447D01*
X177199748Y-119212904D01*
X177045952Y-119291267D01*
X176881790Y-119344607D01*
X176711305Y-119371609D01*
X176538695Y-119371609D01*
X176368210Y-119344607D01*
X176204048Y-119291267D01*
X176050252Y-119212904D01*
X175910607Y-119111447D01*
X175788553Y-118989393D01*
X175687096Y-118849748D01*
X175608733Y-118695952D01*
X175555393Y-118531790D01*
X175528391Y-118361305D01*
X175528391Y-118188695D01*
X175555393Y-118018210D01*
X175608733Y-117854048D01*
X175687096Y-117700252D01*
X175788553Y-117560607D01*
X175910607Y-117438553D01*
X176050252Y-117337096D01*
X176204048Y-117258733D01*
X176368210Y-117205393D01*
X176538695Y-117178391D01*
X176711305Y-117178391D01*
X176881790Y-117205393D01*
G37*
G36*
X181981790Y-117205393D02*
G01*
X182145952Y-117258733D01*
X182299748Y-117337096D01*
X182439393Y-117438553D01*
X182561447Y-117560607D01*
X182662904Y-117700252D01*
X182741267Y-117854048D01*
X182794607Y-118018210D01*
X182821609Y-118188695D01*
X182821609Y-118361305D01*
X182794607Y-118531790D01*
X182741267Y-118695952D01*
X182662904Y-118849748D01*
X182561447Y-118989393D01*
X182439393Y-119111447D01*
X182299748Y-119212904D01*
X182145952Y-119291267D01*
X181981790Y-119344607D01*
X181811305Y-119371609D01*
X181638695Y-119371609D01*
X181468210Y-119344607D01*
X181304048Y-119291267D01*
X181150252Y-119212904D01*
X181010607Y-119111447D01*
X180888553Y-118989393D01*
X180787096Y-118849748D01*
X180708733Y-118695952D01*
X180655393Y-118531790D01*
X180628391Y-118361305D01*
X180628391Y-118188695D01*
X180655393Y-118018210D01*
X180708733Y-117854048D01*
X180787096Y-117700252D01*
X180888553Y-117560607D01*
X181010607Y-117438553D01*
X181150252Y-117337096D01*
X181304048Y-117258733D01*
X181468210Y-117205393D01*
X181638695Y-117178391D01*
X181811305Y-117178391D01*
X181981790Y-117205393D01*
G37*
G36*
X243931790Y-117205393D02*
G01*
X244095952Y-117258733D01*
X244249748Y-117337096D01*
X244389393Y-117438553D01*
X244511447Y-117560607D01*
X244612904Y-117700252D01*
X244691267Y-117854048D01*
X244744607Y-118018210D01*
X244771609Y-118188695D01*
X244771609Y-118361305D01*
X244744607Y-118531790D01*
X244691267Y-118695952D01*
X244612904Y-118849748D01*
X244511447Y-118989393D01*
X244389393Y-119111447D01*
X244249748Y-119212904D01*
X244095952Y-119291267D01*
X243931790Y-119344607D01*
X243761305Y-119371609D01*
X243588695Y-119371609D01*
X243418210Y-119344607D01*
X243254048Y-119291267D01*
X243100252Y-119212904D01*
X242960607Y-119111447D01*
X242838553Y-118989393D01*
X242737096Y-118849748D01*
X242658733Y-118695952D01*
X242605393Y-118531790D01*
X242578391Y-118361305D01*
X242578391Y-118188695D01*
X242605393Y-118018210D01*
X242658733Y-117854048D01*
X242737096Y-117700252D01*
X242838553Y-117560607D01*
X242960607Y-117438553D01*
X243100252Y-117337096D01*
X243254048Y-117258733D01*
X243418210Y-117205393D01*
X243588695Y-117178391D01*
X243761305Y-117178391D01*
X243931790Y-117205393D01*
G37*
G36*
X249031790Y-117205393D02*
G01*
X249195952Y-117258733D01*
X249349748Y-117337096D01*
X249489393Y-117438553D01*
X249611447Y-117560607D01*
X249712904Y-117700252D01*
X249791267Y-117854048D01*
X249844607Y-118018210D01*
X249871609Y-118188695D01*
X249871609Y-118361305D01*
X249844607Y-118531790D01*
X249791267Y-118695952D01*
X249712904Y-118849748D01*
X249611447Y-118989393D01*
X249489393Y-119111447D01*
X249349748Y-119212904D01*
X249195952Y-119291267D01*
X249031790Y-119344607D01*
X248861305Y-119371609D01*
X248688695Y-119371609D01*
X248518210Y-119344607D01*
X248354048Y-119291267D01*
X248200252Y-119212904D01*
X248060607Y-119111447D01*
X247938553Y-118989393D01*
X247837096Y-118849748D01*
X247758733Y-118695952D01*
X247705393Y-118531790D01*
X247678391Y-118361305D01*
X247678391Y-118188695D01*
X247705393Y-118018210D01*
X247758733Y-117854048D01*
X247837096Y-117700252D01*
X247938553Y-117560607D01*
X248060607Y-117438553D01*
X248200252Y-117337096D01*
X248354048Y-117258733D01*
X248518210Y-117205393D01*
X248688695Y-117178391D01*
X248861305Y-117178391D01*
X249031790Y-117205393D01*
G37*
G36*
X181386256Y-107078754D02*
G01*
X181549257Y-107146271D01*
X181695954Y-107244291D01*
X181820709Y-107369046D01*
X181918729Y-107515743D01*
X181986246Y-107678744D01*
X182020666Y-107851785D01*
X182020666Y-108028215D01*
X181986246Y-108201256D01*
X181918729Y-108364257D01*
X181820709Y-108510954D01*
X181695954Y-108635709D01*
X181549257Y-108733729D01*
X181386256Y-108801246D01*
X181213215Y-108835666D01*
X181036785Y-108835666D01*
X180863744Y-108801246D01*
X180700743Y-108733729D01*
X180554046Y-108635709D01*
X180429291Y-108510954D01*
X180331271Y-108364257D01*
X180263754Y-108201256D01*
X180229334Y-108028215D01*
X180229334Y-107851785D01*
X180263754Y-107678744D01*
X180331271Y-107515743D01*
X180429291Y-107369046D01*
X180554046Y-107244291D01*
X180700743Y-107146271D01*
X180863744Y-107078754D01*
X181036785Y-107044334D01*
X181213215Y-107044334D01*
X181386256Y-107078754D01*
G37*
G36*
X181386256Y-101998754D02*
G01*
X181549257Y-102066271D01*
X181695954Y-102164291D01*
X181820709Y-102289046D01*
X181918729Y-102435743D01*
X181986246Y-102598744D01*
X182020666Y-102771785D01*
X182020666Y-102948215D01*
X181986246Y-103121256D01*
X181918729Y-103284257D01*
X181820709Y-103430954D01*
X181695954Y-103555709D01*
X181549257Y-103653729D01*
X181386256Y-103721246D01*
X181213215Y-103755666D01*
X181036785Y-103755666D01*
X180863744Y-103721246D01*
X180700743Y-103653729D01*
X180554046Y-103555709D01*
X180429291Y-103430954D01*
X180331271Y-103284257D01*
X180263754Y-103121256D01*
X180229334Y-102948215D01*
X180229334Y-102771785D01*
X180263754Y-102598744D01*
X180331271Y-102435743D01*
X180429291Y-102289046D01*
X180554046Y-102164291D01*
X180700743Y-102066271D01*
X180863744Y-101998754D01*
X181036785Y-101964334D01*
X181213215Y-101964334D01*
X181386256Y-101998754D01*
G37*
M02*
