%TF.GenerationSoftware,KiCad,Pcbnew,10.0.1*%
%TF.CreationDate,2026-06-17T00:02:37+02:00*%
%TF.ProjectId,QPL9547TR7,51504c39-3534-4375-9452-372e6b696361,rev?*%
%TF.SameCoordinates,Original*%
%TF.FileFunction,Copper,L4,Bot*%
%TF.FilePolarity,Positive*%
%FSLAX46Y46*%
G04 Gerber Fmt 4.6, Leading zero omitted, Abs format (unit mm)*
G04 Created by KiCad (PCBNEW 10.0.1) date 2026-06-17 00:02:37*
%MOMM*%
%LPD*%
G01*
G04 APERTURE LIST*
G04 Aperture macros list*
%AMRoundRect*
0 Rectangle with rounded corners*
0 $1 Rounding radius*
0 $2 $3 $4 $5 $6 $7 $8 $9 X,Y pos of 4 corners*
0 Add a 4 corners polygon primitive as box body*
4,1,4,$2,$3,$4,$5,$6,$7,$8,$9,$2,$3,0*
0 Add four circle primitives for the rounded corners*
1,1,$1+$1,$2,$3*
1,1,$1+$1,$4,$5*
1,1,$1+$1,$6,$7*
1,1,$1+$1,$8,$9*
0 Add four rect primitives between the rounded corners*
20,1,$1+$1,$2,$3,$4,$5,0*
20,1,$1+$1,$4,$5,$6,$7,0*
20,1,$1+$1,$6,$7,$8,$9,0*
20,1,$1+$1,$8,$9,$2,$3,0*%
G04 Aperture macros list end*
%TA.AperFunction,ComponentPad*%
%ADD10C,1.800000*%
%TD*%
%TA.AperFunction,ComponentPad*%
%ADD11RoundRect,0.200100X-0.949900X0.949900X-0.949900X-0.949900X0.949900X-0.949900X0.949900X0.949900X0*%
%TD*%
%TA.AperFunction,ComponentPad*%
%ADD12C,2.200000*%
%TD*%
%TA.AperFunction,ComponentPad*%
%ADD13RoundRect,0.200100X0.949900X-0.949900X0.949900X0.949900X-0.949900X0.949900X-0.949900X-0.949900X0*%
%TD*%
%TA.AperFunction,ViaPad*%
%ADD14C,0.250250*%
%TD*%
G04 APERTURE END LIST*
D10*
%TO.P,J3,1,Pin_1_1*%
%TO.N,Net-(J3-Pin_1)*%
X181125000Y-102860000D03*
%TO.P,J3,2,Pin_2_2*%
%TO.N,GND*%
X181125000Y-107940000D03*
%TD*%
D11*
%TO.P,J1,1,In_1*%
%TO.N,Net-(J1-In)*%
X246225000Y-120825000D03*
D12*
%TO.P,J1,2,Ext_2*%
%TO.N,GND*%
X248775000Y-118275000D03*
X243675000Y-118275000D03*
X248775000Y-123375000D03*
X243675000Y-123375000D03*
%TD*%
D13*
%TO.P,J2,1,In_1*%
%TO.N,Net-(J2-In)*%
X179175000Y-120825000D03*
D12*
%TO.P,J2,2,Ext_2*%
%TO.N,GND*%
X176625000Y-123375000D03*
X181725000Y-123375000D03*
X176625000Y-118275000D03*
X181725000Y-118275000D03*
%TD*%
D14*
%TO.N,GND*%
X213120000Y-110180000D03*
X211650000Y-113175000D03*
X211700000Y-112650000D03*
X213624502Y-112660513D03*
X213662500Y-113162500D03*
X188652880Y-102841765D03*
X232846923Y-112482753D03*
X213662500Y-111662500D03*
X229565868Y-109496998D03*
X212662500Y-112412500D03*
X244684161Y-124421697D03*
X245174409Y-119331011D03*
X182734161Y-124421697D03*
X187224427Y-121357361D03*
X190984976Y-119799948D03*
X197338919Y-116325602D03*
X201721075Y-116325602D03*
X206103230Y-116325602D03*
X209659719Y-114275545D03*
X220936555Y-115300083D03*
X225318710Y-115300083D03*
X231538565Y-117105361D03*
X234722997Y-119996920D03*
X238565134Y-121357361D03*
X233511966Y-124421697D03*
X229129811Y-124421697D03*
X224747655Y-124421697D03*
X220365500Y-124421697D03*
X215983344Y-124421697D03*
X211601189Y-124421697D03*
X207219033Y-124421697D03*
X202836878Y-124421697D03*
X198454722Y-124421697D03*
X194072567Y-124421697D03*
X177634161Y-124421697D03*
X175753303Y-119444142D03*
X175753303Y-100403303D03*
X180135458Y-100403303D03*
X184517614Y-100403303D03*
X188899769Y-100403303D03*
X193281925Y-100403303D03*
X197664080Y-100403303D03*
X202046236Y-100403303D03*
X206428391Y-100403303D03*
X210810547Y-100403303D03*
X215192702Y-100403303D03*
X219574858Y-100403303D03*
X223957013Y-100403303D03*
X228339169Y-100403303D03*
X232721324Y-100403303D03*
X237103480Y-100403303D03*
X241485635Y-100403303D03*
X245867791Y-100403303D03*
X249571697Y-105463707D03*
X249571697Y-109845863D03*
X249571697Y-114228018D03*
X243074241Y-113454815D03*
X239975589Y-110356163D03*
X233415011Y-108570692D03*
X229059993Y-108570692D03*
X225363813Y-106914600D03*
X221169498Y-106417376D03*
X216787343Y-106417376D03*
X212792226Y-107395506D03*
X187556076Y-104410504D03*
X183142156Y-107535438D03*
X180720438Y-111964055D03*
X180720438Y-116346211D03*
X175753303Y-111172116D03*
X175753303Y-106789960D03*
X249571697Y-122158733D03*
X218401451Y-111078973D03*
X235149320Y-112887562D03*
X188299185Y-109533169D03*
X192643814Y-109495643D03*
X197025970Y-109495643D03*
X201408125Y-109495643D03*
X205790281Y-109495643D03*
X206137140Y-104629146D03*
X187059867Y-115910484D03*
X236678626Y-104785458D03*
X241060781Y-104785458D03*
X245155462Y-109338733D03*
X212484301Y-117993528D03*
X216380146Y-119682238D03*
X220762302Y-119682238D03*
X225073937Y-119818743D03*
X216554399Y-115300083D03*
%TD*%
M02*
