M48
; DRILL file KiCad 10.0.1 date 2026-06-17T00:02:37
; FORMAT={-:-/ absolute / inch / decimal}
; #@! TF.CreationDate,2026-06-17T00:02:37+02:00
; #@! TF.GenerationSoftware,Kicad,Pcbnew,10.0.1
; #@! TF.FileFunction,Plated,1,4,PTH
FMAT,2
INCH
; #@! TA.AperFunction,Plated,PTH,ViaDrill
T1C0.0059
; #@! TA.AperFunction,Plated,PTH,ComponentDrill
T2C0.0472
; #@! TA.AperFunction,Plated,PTH,ComponentDrill
T3C0.0551
%
G90
G05
T1
X6.9194Y-3.9529
X6.9194Y-4.2043
X6.9194Y-4.3769
X6.9194Y-4.7025
X6.9935Y-4.8985
X7.0919Y-3.9529
X7.115Y-4.408
X7.115Y-4.5806
X7.1943Y-4.8985
X7.2103Y-4.2337
X7.2645Y-3.9529
X7.3646Y-4.5634
X7.371Y-4.7778
X7.3841Y-4.1106
X7.4134Y-4.3123
X7.4273Y-4.0489
X7.437Y-3.9529
X7.5191Y-4.7165
X7.5844Y-4.3109
X7.6095Y-3.9529
X7.6407Y-4.8985
X7.7569Y-4.3109
X7.7692Y-4.5797
X7.7821Y-3.9529
X7.8132Y-4.8985
X7.9295Y-4.3109
X7.9418Y-4.5797
X7.9546Y-3.9529
X7.9857Y-4.8985
X8.102Y-4.3109
X8.1143Y-4.5797
X8.1156Y-4.1193
X8.1271Y-3.9529
X8.1582Y-4.8985
X8.2543Y-4.499
X8.2996Y-3.9529
X8.3308Y-4.8985
X8.3327Y-4.4557
X8.3346Y-4.435
X8.3655Y-4.6454
X8.3725Y-4.4257
X8.3776Y-4.2282
X8.3906Y-4.3378
X8.4104Y-4.4355
X8.4119Y-4.3962
X8.4119Y-4.4552
X8.4722Y-3.9529
X8.5033Y-4.8985
X8.5189Y-4.7119
X8.5258Y-4.5394
X8.5349Y-4.1897
X8.5985Y-4.3732
X8.6447Y-3.9529
X8.6758Y-4.8985
X8.6914Y-4.7119
X8.6983Y-4.5394
X8.7075Y-4.1897
X8.8172Y-3.9529
X8.8483Y-4.8985
X8.8612Y-4.7173
X8.8708Y-4.5394
X8.8726Y-4.2092
X8.9897Y-3.9529
X9.0181Y-4.2744
X9.0209Y-4.8985
X9.038Y-4.3109
X9.1157Y-4.6104
X9.1623Y-3.9529
X9.1672Y-4.4285
X9.1896Y-4.2744
X9.1934Y-4.8985
X9.2411Y-4.7243
X9.2578Y-4.4444
X9.3181Y-4.1254
X9.3348Y-3.9529
X9.3923Y-4.7778
X9.4479Y-4.3447
X9.4906Y-4.1254
X9.5073Y-3.9529
X9.5699Y-4.4667
X9.6332Y-4.8985
X9.6518Y-4.3047
X9.6525Y-4.6981
X9.6798Y-3.9529
X9.8257Y-4.1521
X9.8257Y-4.3246
X9.8257Y-4.4972
X9.8257Y-4.8094
T2
X7.1309Y-4.0496
X7.1309Y-4.2496
T3
X6.9537Y-4.6565
X6.9537Y-4.8573
X7.0541Y-4.7569
X7.1545Y-4.6565
X7.1545Y-4.8573
X9.5935Y-4.6565
X9.5935Y-4.8573
X9.6939Y-4.7569
X9.7943Y-4.6565
X9.7943Y-4.8573
M30
