%TF.GenerationSoftware,KiCad,Pcbnew,10.0.1*%
%TF.CreationDate,2026-06-17T00:02:37+02:00*%
%TF.ProjectId,QPL9547TR7,51504c39-3534-4375-9452-372e6b696361,rev?*%
%TF.SameCoordinates,Original*%
%TF.FileFunction,Copper,L3,Inr*%
%TF.FilePolarity,Positive*%
%FSLAX46Y46*%
G04 Gerber Fmt 4.6, Leading zero omitted, Abs format (unit mm)*
G04 Created by KiCad (PCBNEW 10.0.1) date 2026-06-17 00:02:37*
%MOMM*%
%LPD*%
G01*
G04 APERTURE LIST*
%TA.AperFunction,ComponentPad*%
%ADD10C,1.800000*%
%TD*%
%TA.AperFunction,ViaPad*%
%ADD11C,0.250250*%
%TD*%
G04 APERTURE END LIST*
D10*
%TO.N,Net-(J3-Pin_1)*%
%TO.C,J3*%
X181125000Y-102860000D03*
%TO.N,GND*%
X181125000Y-107940000D03*
%TD*%
D11*
%TO.N,GND*%
X213120000Y-110180000D03*
X211650000Y-113175000D03*
X211700000Y-112650000D03*
X213624502Y-112660513D03*
X213662500Y-113162500D03*
X188652880Y-102841765D03*
X232846923Y-112482753D03*
X213662500Y-111662500D03*
X229565868Y-109496998D03*
X212662500Y-112412500D03*
X244684161Y-124421697D03*
X245174409Y-119331011D03*
X182734161Y-124421697D03*
X187224427Y-121357361D03*
X190984976Y-119799948D03*
X197338919Y-116325602D03*
X201721075Y-116325602D03*
X206103230Y-116325602D03*
X209659719Y-114275545D03*
X220936555Y-115300083D03*
X225318710Y-115300083D03*
X231538565Y-117105361D03*
X234722997Y-119996920D03*
X238565134Y-121357361D03*
X233511966Y-124421697D03*
X229129811Y-124421697D03*
X224747655Y-124421697D03*
X220365500Y-124421697D03*
X215983344Y-124421697D03*
X211601189Y-124421697D03*
X207219033Y-124421697D03*
X202836878Y-124421697D03*
X198454722Y-124421697D03*
X194072567Y-124421697D03*
X177634161Y-124421697D03*
X175753303Y-119444142D03*
X175753303Y-100403303D03*
X180135458Y-100403303D03*
X184517614Y-100403303D03*
X188899769Y-100403303D03*
X193281925Y-100403303D03*
X197664080Y-100403303D03*
X202046236Y-100403303D03*
X206428391Y-100403303D03*
X210810547Y-100403303D03*
X215192702Y-100403303D03*
X219574858Y-100403303D03*
X223957013Y-100403303D03*
X228339169Y-100403303D03*
X232721324Y-100403303D03*
X237103480Y-100403303D03*
X241485635Y-100403303D03*
X245867791Y-100403303D03*
X249571697Y-105463707D03*
X249571697Y-109845863D03*
X249571697Y-114228018D03*
X243074241Y-113454815D03*
X239975589Y-110356163D03*
X233415011Y-108570692D03*
X229059993Y-108570692D03*
X225363813Y-106914600D03*
X221169498Y-106417376D03*
X216787343Y-106417376D03*
X212792226Y-107395506D03*
X187556076Y-104410504D03*
X183142156Y-107535438D03*
X180720438Y-111964055D03*
X180720438Y-116346211D03*
X175753303Y-111172116D03*
X175753303Y-106789960D03*
X249571697Y-122158733D03*
X218401451Y-111078973D03*
X235149320Y-112887562D03*
X188299185Y-109533169D03*
X192643814Y-109495643D03*
X197025970Y-109495643D03*
X201408125Y-109495643D03*
X205790281Y-109495643D03*
X206137140Y-104629146D03*
X187059867Y-115910484D03*
X236678626Y-104785458D03*
X241060781Y-104785458D03*
X245155462Y-109338733D03*
X212484301Y-117993528D03*
X216380146Y-119682238D03*
X220762302Y-119682238D03*
X225073937Y-119818743D03*
X216554399Y-115300083D03*
%TD*%
%TA.AperFunction,Conductor*%
%TO.N,GND*%
G36*
X176165946Y-123905896D02*
G01*
X175865143Y-124206699D01*
X175891844Y-124233400D01*
X175891852Y-124233407D01*
X176035160Y-124337526D01*
X176193000Y-124417950D01*
X176193004Y-124417952D01*
X176296787Y-124451673D01*
X176303597Y-124457488D01*
X176304299Y-124466415D01*
X176298484Y-124473225D01*
X176293172Y-124474500D01*
X175712200Y-124474500D01*
X175703927Y-124471073D01*
X175700500Y-124462800D01*
X175700500Y-124053188D01*
X175703927Y-124044915D01*
X175712200Y-124041488D01*
X175720473Y-124044915D01*
X175721666Y-124046311D01*
X175766592Y-124108147D01*
X175766599Y-124108155D01*
X175793301Y-124134857D01*
X176094104Y-123834054D01*
X176165946Y-123905896D01*
G37*
%TD.AperFunction*%
%TA.AperFunction,Conductor*%
G36*
X249621073Y-100353927D02*
G01*
X249624500Y-100362200D01*
X249624500Y-117504698D01*
X249621073Y-117512971D01*
X249612800Y-117516398D01*
X249609770Y-117515143D01*
X249606699Y-117515143D01*
X249305896Y-117815946D01*
X249234054Y-117744104D01*
X249534857Y-117443301D01*
X249508155Y-117416599D01*
X249508147Y-117416592D01*
X249364839Y-117312473D01*
X249206999Y-117232049D01*
X249206995Y-117232047D01*
X249038540Y-117177313D01*
X249038524Y-117177309D01*
X248863572Y-117149600D01*
X248686428Y-117149600D01*
X248511475Y-117177309D01*
X248511459Y-117177313D01*
X248343004Y-117232047D01*
X248343000Y-117232049D01*
X248185160Y-117312473D01*
X248041852Y-117416592D01*
X248041844Y-117416599D01*
X248015143Y-117443301D01*
X248315946Y-117744104D01*
X248244104Y-117815946D01*
X247943301Y-117515143D01*
X247916599Y-117541844D01*
X247916592Y-117541852D01*
X247812473Y-117685160D01*
X247732049Y-117843000D01*
X247732047Y-117843004D01*
X247677313Y-118011459D01*
X247677309Y-118011475D01*
X247649600Y-118186428D01*
X247649600Y-118363571D01*
X247677309Y-118538524D01*
X247677313Y-118538540D01*
X247732047Y-118706995D01*
X247732049Y-118706999D01*
X247812473Y-118864839D01*
X247916592Y-119008147D01*
X247916599Y-119008155D01*
X247943301Y-119034857D01*
X248244104Y-118734054D01*
X248315946Y-118805896D01*
X248015143Y-119106699D01*
X248041844Y-119133400D01*
X248041852Y-119133407D01*
X248185160Y-119237526D01*
X248343000Y-119317950D01*
X248343004Y-119317952D01*
X248511459Y-119372686D01*
X248511475Y-119372690D01*
X248686428Y-119400400D01*
X248863571Y-119400400D01*
X249038524Y-119372690D01*
X249038540Y-119372686D01*
X249206995Y-119317952D01*
X249206999Y-119317950D01*
X249364839Y-119237526D01*
X249508147Y-119133407D01*
X249508155Y-119133400D01*
X249534857Y-119106699D01*
X249234054Y-118805896D01*
X249305896Y-118734054D01*
X249606699Y-119034857D01*
X249609770Y-119034857D01*
X249612800Y-119033602D01*
X249621073Y-119037029D01*
X249624500Y-119045302D01*
X249624500Y-122604698D01*
X249621073Y-122612971D01*
X249612800Y-122616398D01*
X249609770Y-122615143D01*
X249606699Y-122615143D01*
X249305896Y-122915946D01*
X249234054Y-122844104D01*
X249534857Y-122543301D01*
X249508155Y-122516599D01*
X249508147Y-122516592D01*
X249364839Y-122412473D01*
X249206999Y-122332049D01*
X249206995Y-122332047D01*
X249038540Y-122277313D01*
X249038524Y-122277309D01*
X248863572Y-122249600D01*
X248686428Y-122249600D01*
X248511475Y-122277309D01*
X248511459Y-122277313D01*
X248343004Y-122332047D01*
X248343000Y-122332049D01*
X248185160Y-122412473D01*
X248041852Y-122516592D01*
X248041844Y-122516599D01*
X248015143Y-122543301D01*
X248315946Y-122844104D01*
X248244104Y-122915946D01*
X247943301Y-122615143D01*
X247916599Y-122641844D01*
X247916592Y-122641852D01*
X247812473Y-122785160D01*
X247732049Y-122943000D01*
X247732047Y-122943004D01*
X247677313Y-123111459D01*
X247677309Y-123111475D01*
X247649600Y-123286428D01*
X247649600Y-123463571D01*
X247677309Y-123638524D01*
X247677313Y-123638540D01*
X247732047Y-123806995D01*
X247732049Y-123806999D01*
X247812473Y-123964839D01*
X247916592Y-124108147D01*
X247916599Y-124108155D01*
X247943301Y-124134857D01*
X248244104Y-123834054D01*
X248315946Y-123905896D01*
X248015143Y-124206699D01*
X248041844Y-124233400D01*
X248041852Y-124233407D01*
X248185160Y-124337526D01*
X248343000Y-124417950D01*
X248343004Y-124417952D01*
X248446787Y-124451673D01*
X248453597Y-124457488D01*
X248454299Y-124466415D01*
X248448484Y-124473225D01*
X248443172Y-124474500D01*
X244006828Y-124474500D01*
X243998555Y-124471073D01*
X243995128Y-124462800D01*
X243998555Y-124454527D01*
X244003213Y-124451673D01*
X244106995Y-124417952D01*
X244106999Y-124417950D01*
X244264839Y-124337526D01*
X244408147Y-124233407D01*
X244408155Y-124233400D01*
X244434857Y-124206699D01*
X244134054Y-123905896D01*
X244205896Y-123834054D01*
X244506699Y-124134857D01*
X244533400Y-124108155D01*
X244533407Y-124108147D01*
X244637526Y-123964839D01*
X244717950Y-123806999D01*
X244717952Y-123806995D01*
X244772686Y-123638540D01*
X244772690Y-123638524D01*
X244800400Y-123463571D01*
X244800400Y-123286428D01*
X244772690Y-123111475D01*
X244772686Y-123111459D01*
X244717952Y-122943004D01*
X244717950Y-122943000D01*
X244637526Y-122785160D01*
X244533407Y-122641852D01*
X244533400Y-122641844D01*
X244506699Y-122615143D01*
X244205896Y-122915946D01*
X244134054Y-122844104D01*
X244434857Y-122543301D01*
X244408155Y-122516599D01*
X244408147Y-122516592D01*
X244264839Y-122412473D01*
X244106999Y-122332049D01*
X244106995Y-122332047D01*
X243938540Y-122277313D01*
X243938524Y-122277309D01*
X243763572Y-122249600D01*
X243586428Y-122249600D01*
X243411475Y-122277309D01*
X243411459Y-122277313D01*
X243243004Y-122332047D01*
X243243000Y-122332049D01*
X243085160Y-122412473D01*
X242941852Y-122516592D01*
X242941844Y-122516599D01*
X242915143Y-122543301D01*
X243215946Y-122844104D01*
X243144104Y-122915946D01*
X242843301Y-122615143D01*
X242816599Y-122641844D01*
X242816592Y-122641852D01*
X242712473Y-122785160D01*
X242632049Y-122943000D01*
X242632047Y-122943004D01*
X242577313Y-123111459D01*
X242577309Y-123111475D01*
X242549600Y-123286428D01*
X242549600Y-123463571D01*
X242577309Y-123638524D01*
X242577313Y-123638540D01*
X242632047Y-123806995D01*
X242632049Y-123806999D01*
X242712473Y-123964839D01*
X242816592Y-124108147D01*
X242816599Y-124108155D01*
X242843301Y-124134857D01*
X243144104Y-123834054D01*
X243215946Y-123905896D01*
X242915143Y-124206699D01*
X242941844Y-124233400D01*
X242941852Y-124233407D01*
X243085160Y-124337526D01*
X243243000Y-124417950D01*
X243243004Y-124417952D01*
X243346787Y-124451673D01*
X243353597Y-124457488D01*
X243354299Y-124466415D01*
X243348484Y-124473225D01*
X243343172Y-124474500D01*
X182056828Y-124474500D01*
X182048555Y-124471073D01*
X182045128Y-124462800D01*
X182048555Y-124454527D01*
X182053213Y-124451673D01*
X182156995Y-124417952D01*
X182156999Y-124417950D01*
X182314839Y-124337526D01*
X182458147Y-124233407D01*
X182458155Y-124233400D01*
X182484857Y-124206699D01*
X182184054Y-123905896D01*
X182255896Y-123834054D01*
X182556699Y-124134857D01*
X182583400Y-124108155D01*
X182583407Y-124108147D01*
X182687526Y-123964839D01*
X182767950Y-123806999D01*
X182767952Y-123806995D01*
X182822686Y-123638540D01*
X182822690Y-123638524D01*
X182850400Y-123463571D01*
X182850400Y-123286428D01*
X182822690Y-123111475D01*
X182822686Y-123111459D01*
X182767952Y-122943004D01*
X182767950Y-122943000D01*
X182687526Y-122785160D01*
X182583407Y-122641852D01*
X182583400Y-122641844D01*
X182556699Y-122615143D01*
X182255896Y-122915946D01*
X182184054Y-122844104D01*
X182484857Y-122543301D01*
X182458155Y-122516599D01*
X182458147Y-122516592D01*
X182314839Y-122412473D01*
X182156999Y-122332049D01*
X182156995Y-122332047D01*
X181988540Y-122277313D01*
X181988524Y-122277309D01*
X181813572Y-122249600D01*
X181636428Y-122249600D01*
X181461475Y-122277309D01*
X181461459Y-122277313D01*
X181293004Y-122332047D01*
X181293000Y-122332049D01*
X181135160Y-122412473D01*
X180991852Y-122516592D01*
X180991844Y-122516599D01*
X180965143Y-122543301D01*
X181265946Y-122844104D01*
X181194104Y-122915946D01*
X180893301Y-122615143D01*
X180866599Y-122641844D01*
X180866592Y-122641852D01*
X180762473Y-122785160D01*
X180682049Y-122943000D01*
X180682047Y-122943004D01*
X180627313Y-123111459D01*
X180627309Y-123111475D01*
X180599600Y-123286428D01*
X180599600Y-123463571D01*
X180627309Y-123638524D01*
X180627313Y-123638540D01*
X180682047Y-123806995D01*
X180682049Y-123806999D01*
X180762473Y-123964839D01*
X180866592Y-124108147D01*
X180866599Y-124108155D01*
X180893301Y-124134857D01*
X181194104Y-123834054D01*
X181265946Y-123905896D01*
X180965143Y-124206699D01*
X180991844Y-124233400D01*
X180991852Y-124233407D01*
X181135160Y-124337526D01*
X181293000Y-124417950D01*
X181293004Y-124417952D01*
X181396787Y-124451673D01*
X181403597Y-124457488D01*
X181404299Y-124466415D01*
X181398484Y-124473225D01*
X181393172Y-124474500D01*
X176956828Y-124474500D01*
X176948555Y-124471073D01*
X176945128Y-124462800D01*
X176948555Y-124454527D01*
X176953213Y-124451673D01*
X177056995Y-124417952D01*
X177056999Y-124417950D01*
X177214839Y-124337526D01*
X177358147Y-124233407D01*
X177358155Y-124233400D01*
X177384857Y-124206699D01*
X177084054Y-123905896D01*
X177155896Y-123834054D01*
X177456699Y-124134857D01*
X177483400Y-124108155D01*
X177483407Y-124108147D01*
X177587526Y-123964839D01*
X177667950Y-123806999D01*
X177667952Y-123806995D01*
X177722686Y-123638540D01*
X177722690Y-123638524D01*
X177750400Y-123463571D01*
X177750400Y-123286428D01*
X177722690Y-123111475D01*
X177722686Y-123111459D01*
X177667952Y-122943004D01*
X177667950Y-122943000D01*
X177587526Y-122785160D01*
X177483407Y-122641852D01*
X177483400Y-122641844D01*
X177456699Y-122615143D01*
X177155896Y-122915946D01*
X177084054Y-122844104D01*
X177384857Y-122543301D01*
X177358155Y-122516599D01*
X177358147Y-122516592D01*
X177214839Y-122412473D01*
X177056999Y-122332049D01*
X177056995Y-122332047D01*
X176888540Y-122277313D01*
X176888524Y-122277309D01*
X176713572Y-122249600D01*
X176536428Y-122249600D01*
X176361475Y-122277309D01*
X176361459Y-122277313D01*
X176193004Y-122332047D01*
X176193000Y-122332049D01*
X176035160Y-122412473D01*
X175891852Y-122516592D01*
X175891844Y-122516599D01*
X175865143Y-122543301D01*
X176165946Y-122844104D01*
X176094104Y-122915946D01*
X175793301Y-122615143D01*
X175766599Y-122641844D01*
X175766585Y-122641860D01*
X175721665Y-122703688D01*
X175714030Y-122708367D01*
X175705323Y-122706276D01*
X175700644Y-122698641D01*
X175700500Y-122696811D01*
X175700500Y-120731384D01*
X178224500Y-120731384D01*
X178224500Y-120918615D01*
X178261027Y-121102251D01*
X178332677Y-121275229D01*
X178332681Y-121275237D01*
X178436697Y-121430907D01*
X178436700Y-121430911D01*
X178569088Y-121563299D01*
X178569092Y-121563302D01*
X178724762Y-121667318D01*
X178724766Y-121667320D01*
X178724769Y-121667322D01*
X178897749Y-121738973D01*
X179081384Y-121775500D01*
X179081385Y-121775500D01*
X179268615Y-121775500D01*
X179268616Y-121775500D01*
X179452251Y-121738973D01*
X179625231Y-121667322D01*
X179780908Y-121563302D01*
X179913302Y-121430908D01*
X180017322Y-121275231D01*
X180088973Y-121102251D01*
X180125500Y-120918616D01*
X180125500Y-120731384D01*
X245274500Y-120731384D01*
X245274500Y-120918615D01*
X245311027Y-121102251D01*
X245382677Y-121275229D01*
X245382681Y-121275237D01*
X245486697Y-121430907D01*
X245486700Y-121430911D01*
X245619088Y-121563299D01*
X245619092Y-121563302D01*
X245774762Y-121667318D01*
X245774766Y-121667320D01*
X245774769Y-121667322D01*
X245947749Y-121738973D01*
X246131384Y-121775500D01*
X246131385Y-121775500D01*
X246318615Y-121775500D01*
X246318616Y-121775500D01*
X246502251Y-121738973D01*
X246675231Y-121667322D01*
X246830908Y-121563302D01*
X246963302Y-121430908D01*
X247067322Y-121275231D01*
X247138973Y-121102251D01*
X247175500Y-120918616D01*
X247175500Y-120731384D01*
X247138973Y-120547749D01*
X247067322Y-120374769D01*
X247067320Y-120374766D01*
X247067318Y-120374762D01*
X246963302Y-120219092D01*
X246963299Y-120219088D01*
X246830911Y-120086700D01*
X246830907Y-120086697D01*
X246675237Y-119982681D01*
X246675229Y-119982677D01*
X246502251Y-119911027D01*
X246318616Y-119874500D01*
X246131384Y-119874500D01*
X246039566Y-119892763D01*
X245947748Y-119911027D01*
X245774770Y-119982677D01*
X245774762Y-119982681D01*
X245619092Y-120086697D01*
X245619088Y-120086700D01*
X245486700Y-120219088D01*
X245486697Y-120219092D01*
X245382681Y-120374762D01*
X245382677Y-120374770D01*
X245311027Y-120547748D01*
X245274500Y-120731384D01*
X180125500Y-120731384D01*
X180088973Y-120547749D01*
X180017322Y-120374769D01*
X180017320Y-120374766D01*
X180017318Y-120374762D01*
X179913302Y-120219092D01*
X179913299Y-120219088D01*
X179780911Y-120086700D01*
X179780907Y-120086697D01*
X179625237Y-119982681D01*
X179625229Y-119982677D01*
X179452251Y-119911027D01*
X179268616Y-119874500D01*
X179081384Y-119874500D01*
X178989566Y-119892763D01*
X178897748Y-119911027D01*
X178724770Y-119982677D01*
X178724762Y-119982681D01*
X178569092Y-120086697D01*
X178569088Y-120086700D01*
X178436700Y-120219088D01*
X178436697Y-120219092D01*
X178332681Y-120374762D01*
X178332677Y-120374770D01*
X178261027Y-120547748D01*
X178224500Y-120731384D01*
X175700500Y-120731384D01*
X175700500Y-118953188D01*
X175703927Y-118944915D01*
X175712200Y-118941488D01*
X175720473Y-118944915D01*
X175721666Y-118946311D01*
X175766592Y-119008147D01*
X175766599Y-119008155D01*
X175793301Y-119034857D01*
X176094104Y-118734054D01*
X176165946Y-118805896D01*
X175865143Y-119106699D01*
X175891844Y-119133400D01*
X175891852Y-119133407D01*
X176035160Y-119237526D01*
X176193000Y-119317950D01*
X176193004Y-119317952D01*
X176361459Y-119372686D01*
X176361475Y-119372690D01*
X176536428Y-119400400D01*
X176713571Y-119400400D01*
X176888524Y-119372690D01*
X176888540Y-119372686D01*
X177056995Y-119317952D01*
X177056999Y-119317950D01*
X177214839Y-119237526D01*
X177358147Y-119133407D01*
X177358155Y-119133400D01*
X177384857Y-119106699D01*
X177084054Y-118805896D01*
X177155896Y-118734054D01*
X177456699Y-119034857D01*
X177483400Y-119008155D01*
X177483407Y-119008147D01*
X177587526Y-118864839D01*
X177667950Y-118706999D01*
X177667952Y-118706995D01*
X177722686Y-118538540D01*
X177722690Y-118538524D01*
X177750400Y-118363571D01*
X177750400Y-118186428D01*
X180599600Y-118186428D01*
X180599600Y-118363571D01*
X180627309Y-118538524D01*
X180627313Y-118538540D01*
X180682047Y-118706995D01*
X180682049Y-118706999D01*
X180762473Y-118864839D01*
X180866592Y-119008147D01*
X180866599Y-119008155D01*
X180893301Y-119034857D01*
X181194104Y-118734054D01*
X181265946Y-118805896D01*
X180965143Y-119106699D01*
X180991844Y-119133400D01*
X180991852Y-119133407D01*
X181135160Y-119237526D01*
X181293000Y-119317950D01*
X181293004Y-119317952D01*
X181461459Y-119372686D01*
X181461475Y-119372690D01*
X181636428Y-119400400D01*
X181813571Y-119400400D01*
X181988524Y-119372690D01*
X181988540Y-119372686D01*
X182156995Y-119317952D01*
X182156999Y-119317950D01*
X182314839Y-119237526D01*
X182458147Y-119133407D01*
X182458155Y-119133400D01*
X182484857Y-119106699D01*
X182184054Y-118805896D01*
X182255896Y-118734054D01*
X182556699Y-119034857D01*
X182583400Y-119008155D01*
X182583407Y-119008147D01*
X182687526Y-118864839D01*
X182767950Y-118706999D01*
X182767952Y-118706995D01*
X182822686Y-118538540D01*
X182822690Y-118538524D01*
X182850400Y-118363571D01*
X182850400Y-118186428D01*
X242549600Y-118186428D01*
X242549600Y-118363571D01*
X242577309Y-118538524D01*
X242577313Y-118538540D01*
X242632047Y-118706995D01*
X242632049Y-118706999D01*
X242712473Y-118864839D01*
X242816592Y-119008147D01*
X242816599Y-119008155D01*
X242843301Y-119034857D01*
X243144104Y-118734054D01*
X243215946Y-118805896D01*
X242915143Y-119106699D01*
X242941844Y-119133400D01*
X242941852Y-119133407D01*
X243085160Y-119237526D01*
X243243000Y-119317950D01*
X243243004Y-119317952D01*
X243411459Y-119372686D01*
X243411475Y-119372690D01*
X243586428Y-119400400D01*
X243763571Y-119400400D01*
X243938524Y-119372690D01*
X243938540Y-119372686D01*
X244106995Y-119317952D01*
X244106999Y-119317950D01*
X244264839Y-119237526D01*
X244408147Y-119133407D01*
X244408155Y-119133400D01*
X244434857Y-119106699D01*
X244134054Y-118805896D01*
X244205896Y-118734054D01*
X244506699Y-119034857D01*
X244533400Y-119008155D01*
X244533407Y-119008147D01*
X244637526Y-118864839D01*
X244717950Y-118706999D01*
X244717952Y-118706995D01*
X244772686Y-118538540D01*
X244772690Y-118538524D01*
X244800400Y-118363571D01*
X244800400Y-118186428D01*
X244772690Y-118011475D01*
X244772686Y-118011459D01*
X244717952Y-117843004D01*
X244717950Y-117843000D01*
X244637526Y-117685160D01*
X244533407Y-117541852D01*
X244533400Y-117541844D01*
X244506699Y-117515143D01*
X244205896Y-117815946D01*
X244134054Y-117744104D01*
X244434857Y-117443301D01*
X244408155Y-117416599D01*
X244408147Y-117416592D01*
X244264839Y-117312473D01*
X244106999Y-117232049D01*
X244106995Y-117232047D01*
X243938540Y-117177313D01*
X243938524Y-117177309D01*
X243763572Y-117149600D01*
X243586428Y-117149600D01*
X243411475Y-117177309D01*
X243411459Y-117177313D01*
X243243004Y-117232047D01*
X243243000Y-117232049D01*
X243085160Y-117312473D01*
X242941852Y-117416592D01*
X242941844Y-117416599D01*
X242915143Y-117443301D01*
X243215946Y-117744104D01*
X243144104Y-117815946D01*
X242843301Y-117515143D01*
X242816599Y-117541844D01*
X242816592Y-117541852D01*
X242712473Y-117685160D01*
X242632049Y-117843000D01*
X242632047Y-117843004D01*
X242577313Y-118011459D01*
X242577309Y-118011475D01*
X242549600Y-118186428D01*
X182850400Y-118186428D01*
X182822690Y-118011475D01*
X182822686Y-118011459D01*
X182767952Y-117843004D01*
X182767950Y-117843000D01*
X182687526Y-117685160D01*
X182583407Y-117541852D01*
X182583400Y-117541844D01*
X182556699Y-117515143D01*
X182255896Y-117815946D01*
X182184054Y-117744104D01*
X182484857Y-117443301D01*
X182458155Y-117416599D01*
X182458147Y-117416592D01*
X182314839Y-117312473D01*
X182156999Y-117232049D01*
X182156995Y-117232047D01*
X181988540Y-117177313D01*
X181988524Y-117177309D01*
X181813572Y-117149600D01*
X181636428Y-117149600D01*
X181461475Y-117177309D01*
X181461459Y-117177313D01*
X181293004Y-117232047D01*
X181293000Y-117232049D01*
X181135160Y-117312473D01*
X180991852Y-117416592D01*
X180991844Y-117416599D01*
X180965143Y-117443301D01*
X181265946Y-117744104D01*
X181194104Y-117815946D01*
X180893301Y-117515143D01*
X180866599Y-117541844D01*
X180866592Y-117541852D01*
X180762473Y-117685160D01*
X180682049Y-117843000D01*
X180682047Y-117843004D01*
X180627313Y-118011459D01*
X180627309Y-118011475D01*
X180599600Y-118186428D01*
X177750400Y-118186428D01*
X177722690Y-118011475D01*
X177722686Y-118011459D01*
X177667952Y-117843004D01*
X177667950Y-117843000D01*
X177587526Y-117685160D01*
X177483407Y-117541852D01*
X177483400Y-117541844D01*
X177456699Y-117515143D01*
X177155896Y-117815946D01*
X177084054Y-117744104D01*
X177384857Y-117443301D01*
X177358155Y-117416599D01*
X177358147Y-117416592D01*
X177214839Y-117312473D01*
X177056999Y-117232049D01*
X177056995Y-117232047D01*
X176888540Y-117177313D01*
X176888524Y-117177309D01*
X176713572Y-117149600D01*
X176536428Y-117149600D01*
X176361475Y-117177309D01*
X176361459Y-117177313D01*
X176193004Y-117232047D01*
X176193000Y-117232049D01*
X176035160Y-117312473D01*
X175891852Y-117416592D01*
X175891844Y-117416599D01*
X175865143Y-117443301D01*
X176165946Y-117744104D01*
X176094104Y-117815946D01*
X175793301Y-117515143D01*
X175766599Y-117541844D01*
X175766585Y-117541860D01*
X175721665Y-117603688D01*
X175714030Y-117608367D01*
X175705323Y-117606276D01*
X175700644Y-117598641D01*
X175700500Y-117596811D01*
X175700500Y-107848856D01*
X180199600Y-107848856D01*
X180199600Y-108031143D01*
X180235162Y-108209929D01*
X180304920Y-108378339D01*
X180304924Y-108378347D01*
X180406194Y-108529907D01*
X180406197Y-108529911D01*
X180434721Y-108558435D01*
X180664814Y-108328341D01*
X180736657Y-108400184D01*
X180506564Y-108630277D01*
X180535088Y-108658802D01*
X180535092Y-108658805D01*
X180686652Y-108760075D01*
X180686660Y-108760079D01*
X180855070Y-108829837D01*
X181033857Y-108865400D01*
X181216143Y-108865400D01*
X181394929Y-108829837D01*
X181563339Y-108760079D01*
X181563347Y-108760075D01*
X181714905Y-108658807D01*
X181743435Y-108630277D01*
X181513342Y-108400184D01*
X181585184Y-108328342D01*
X181815277Y-108558435D01*
X181843807Y-108529905D01*
X181945075Y-108378347D01*
X181945079Y-108378339D01*
X182014837Y-108209929D01*
X182050400Y-108031143D01*
X182050400Y-107848856D01*
X182014837Y-107670070D01*
X181945079Y-107501660D01*
X181945075Y-107501652D01*
X181843805Y-107350092D01*
X181843802Y-107350088D01*
X181815277Y-107321564D01*
X181585184Y-107551657D01*
X181513341Y-107479814D01*
X181743435Y-107249722D01*
X181743435Y-107249721D01*
X181714911Y-107221197D01*
X181714907Y-107221194D01*
X181563347Y-107119924D01*
X181563339Y-107119920D01*
X181394929Y-107050162D01*
X181216143Y-107014600D01*
X181033857Y-107014600D01*
X180855070Y-107050162D01*
X180686660Y-107119920D01*
X180686652Y-107119924D01*
X180535092Y-107221194D01*
X180535088Y-107221197D01*
X180506564Y-107249722D01*
X180736657Y-107479815D01*
X180664815Y-107551657D01*
X180434722Y-107321564D01*
X180406197Y-107350088D01*
X180406194Y-107350092D01*
X180304924Y-107501652D01*
X180304920Y-107501660D01*
X180235162Y-107670070D01*
X180199600Y-107848856D01*
X175700500Y-107848856D01*
X175700500Y-102773388D01*
X180024500Y-102773388D01*
X180024500Y-102946611D01*
X180051596Y-103117693D01*
X180051598Y-103117701D01*
X180105127Y-103282445D01*
X180176341Y-103422212D01*
X180183771Y-103436794D01*
X180285578Y-103576918D01*
X180285582Y-103576922D01*
X180285586Y-103576928D01*
X180408072Y-103699414D01*
X180408077Y-103699418D01*
X180408081Y-103699421D01*
X180548205Y-103801228D01*
X180548210Y-103801230D01*
X180548212Y-103801232D01*
X180702555Y-103879873D01*
X180867299Y-103933402D01*
X180936930Y-103944430D01*
X181038388Y-103960500D01*
X181038389Y-103960500D01*
X181211611Y-103960500D01*
X181382701Y-103933402D01*
X181547445Y-103879873D01*
X181701788Y-103801232D01*
X181841928Y-103699414D01*
X181964414Y-103576928D01*
X182066232Y-103436788D01*
X182144873Y-103282445D01*
X182198402Y-103117701D01*
X182225500Y-102946611D01*
X182225500Y-102773389D01*
X182198402Y-102602299D01*
X182144873Y-102437555D01*
X182066232Y-102283212D01*
X182066230Y-102283210D01*
X182066228Y-102283205D01*
X181964421Y-102143081D01*
X181964418Y-102143077D01*
X181964414Y-102143072D01*
X181841928Y-102020586D01*
X181841922Y-102020582D01*
X181841918Y-102020578D01*
X181701794Y-101918771D01*
X181687212Y-101911341D01*
X181547445Y-101840127D01*
X181547442Y-101840126D01*
X181547440Y-101840125D01*
X181382705Y-101786599D01*
X181382693Y-101786596D01*
X181211612Y-101759500D01*
X181211611Y-101759500D01*
X181038389Y-101759500D01*
X181038388Y-101759500D01*
X180867306Y-101786596D01*
X180867294Y-101786599D01*
X180702559Y-101840125D01*
X180548205Y-101918771D01*
X180408081Y-102020578D01*
X180408065Y-102020592D01*
X180285592Y-102143065D01*
X180285578Y-102143081D01*
X180183771Y-102283205D01*
X180105125Y-102437559D01*
X180051599Y-102602294D01*
X180051596Y-102602306D01*
X180024500Y-102773388D01*
X175700500Y-102773388D01*
X175700500Y-100362200D01*
X175703927Y-100353927D01*
X175712200Y-100350500D01*
X249612800Y-100350500D01*
X249621073Y-100353927D01*
G37*
%TD.AperFunction*%
%TA.AperFunction,Conductor*%
G36*
X249606699Y-124134857D02*
G01*
X249609770Y-124134857D01*
X249612800Y-124133602D01*
X249621073Y-124137029D01*
X249624500Y-124145302D01*
X249624500Y-124462800D01*
X249621073Y-124471073D01*
X249612800Y-124474500D01*
X249106828Y-124474500D01*
X249098555Y-124471073D01*
X249095128Y-124462800D01*
X249098555Y-124454527D01*
X249103213Y-124451673D01*
X249206995Y-124417952D01*
X249206999Y-124417950D01*
X249364839Y-124337526D01*
X249508147Y-124233407D01*
X249508155Y-124233400D01*
X249534857Y-124206699D01*
X249234054Y-123905896D01*
X249305896Y-123834054D01*
X249606699Y-124134857D01*
G37*
%TD.AperFunction*%
%TD*%
M02*
