M48
; DRILL file KiCad 10.0.1 date 2026-06-16T20:08:50
; FORMAT={-:-/ absolute / inch / decimal}
; #@! TF.CreationDate,2026-06-16T20:08:50+02:00
; #@! TF.GenerationSoftware,Kicad,Pcbnew,10.0.1
; #@! TF.FileFunction,Plated,1,4,PTH
FMAT,2
INCH
; #@! TA.AperFunction,Plated,PTH,ViaDrill
T1C0.0059
; #@! TA.AperFunction,Plated,PTH,ViaDrill
T2C0.0059
; #@! TA.AperFunction,Plated,PTH,ComponentDrill
T3C0.0236
; #@! TA.AperFunction,Plated,PTH,ComponentDrill
T4C0.0394
; #@! TA.AperFunction,Plated,PTH,ComponentDrill
T5C0.0472
; #@! TA.AperFunction,Plated,PTH,ComponentDrill
T6C0.0551
%
G90
G05
T1
X8.9728Y-2.8102
X9.3062Y-2.5817
X9.3296Y-2.4951
X9.3749Y-2.4498
X9.3809Y-2.4951
X9.5374Y-2.4999
T2
X7.8958Y-2.0001
X7.8958Y-2.6581
X7.931Y-5.4373
X7.9457Y-3.4288
X7.9488Y-3.9785
X7.9519Y-4.2584
X7.9547Y-4.702
X7.9637Y-4.3864
X7.9744Y-4.9752
X7.9753Y-3.0604
X7.9753Y-3.1018
X7.9753Y-3.1352
X7.9753Y-3.1687
X7.9753Y-3.2022
X7.9753Y-3.2356
X7.9753Y-3.2691
X7.9753Y-3.3026
X7.9753Y-3.336
X7.9753Y-3.3695
X7.9753Y-3.4029
X7.9753Y-3.4364
X7.9753Y-3.4699
X7.9753Y-3.5033
X7.9753Y-3.5368
X7.9753Y-3.5703
X7.9753Y-3.6116
X7.9854Y-2.2623
X8.0148Y-4.5381
X8.0148Y-4.5971
X8.0179Y-2.6697
X8.0236Y-3.6185
X8.0325Y-3.7099
X8.0453Y-3.8204
X8.0501Y-3.0604
X8.0501Y-3.6116
X8.0835Y-5.7249
X8.0836Y-3.0604
X8.0957Y-5.2062
X8.1006Y-3.6703
X8.1016Y-2.9685
X8.1089Y-3.4328
X8.1171Y-3.0604
X8.1171Y-3.6116
X8.119Y-3.8947
X8.1494Y-4.3126
X8.1657Y-4.3864
X8.1736Y-5.7869
X8.1764Y-2.0001
X8.1799Y-3.7582
X8.186Y-3.2711
X8.186Y-3.336
X8.186Y-3.401
X8.2021Y-2.6678
X8.2059Y-5.5573
X8.2166Y-5.4472
X8.2175Y-3.0604
X8.2326Y-5.3205
X8.2412Y-4.5663
X8.2509Y-3.2711
X8.2509Y-3.336
X8.2509Y-3.401
X8.2725Y-2.3235
X8.2799Y-3.4363
X8.2813Y-5.7879
X8.3159Y-3.2711
X8.3159Y-3.336
X8.3159Y-3.401
X8.3513Y-3.0604
X8.3599Y-5.6843
X8.3623Y-5.1555
X8.3703Y-3.9864
X8.3703Y-4.3368
X8.3703Y-5.1725
X8.3711Y-2.415
X8.3848Y-3.0604
X8.3996Y-4.5984
X8.4022Y-4.8222
X8.4231Y-5.4824
X8.4268Y-3.539
X8.4418Y-5.2663
X8.4518Y-3.6504
X8.455Y-2.679
X8.4569Y-2.0001
X8.468Y-5.592
X8.4692Y-2.3316
X8.4729Y-3.5547
X8.4968Y-3.1608
X8.4969Y-5.1686
X8.505Y-2.4841
X8.5168Y-5.5566
X8.5168Y-5.8097
X8.5217Y-2.7706
X8.5234Y-5.177
X8.5265Y-3.0604
X8.5265Y-3.4364
X8.5265Y-3.5368
X8.5265Y-3.6116
X8.545Y-2.6315
X8.5453Y-2.6067
X8.5454Y-2.3316
X8.5524Y-2.6816
X8.5593Y-4.5825
X8.565Y-3.3888
X8.5871Y-4.5984
X8.5887Y-2.2649
X8.5918Y-3.2563
X8.605Y-2.7335
X8.6058Y-3.4613
X8.6147Y-5.3541
X8.616Y-5.0885
X8.6162Y-4.2528
X8.618Y-4.4676
X8.6181Y-4.8047
X8.6181Y-5.0247
X8.6199Y-2.9188
X8.6381Y-2.2717
X8.6399Y-3.1535
X8.6467Y-3.3061
X8.6506Y-2.7274
X8.6657Y-5.6027
X8.6867Y-4.0787
X8.6871Y-3.7812
X8.6909Y-2.5936
X8.6915Y-3.7629
X8.6977Y-3.482
X8.7115Y-3.8964
X8.7129Y-2.8518
X8.7375Y-2.0001
X8.7398Y-5.8588
X8.7446Y-5.6063
X8.755Y-2.4841
X8.755Y-2.679
X8.76Y-2.9399
X8.7657Y-3.9004
X8.7684Y-4.7581
X8.7688Y-3.9343
X8.7867Y-3.5325
X8.7882Y-2.3916
X8.7924Y-2.6191
X8.805Y-2.679
X8.8203Y-5.6064
X8.8379Y-3.5484
X8.8554Y-4.8823
X8.8584Y-4.4192
X8.8586Y-5.4693
X8.8626Y-3.9317
X8.8755Y-2.8257
X8.8759Y-3.8325
X8.8794Y-2.4837
X8.8809Y-5.5148
X8.8868Y-3.5825
X8.8868Y-3.6325
X8.8868Y-3.6825
X8.8868Y-3.7825
X8.8908Y-5.6063
X8.9087Y-3.2412
X8.9163Y-2.2334
X8.9349Y-4.3587
X8.9363Y-3.7311
X8.9405Y-2.4837
X8.9405Y-2.5604
X8.9405Y-2.6678
X8.9413Y-3.2385
X8.948Y-5.4846
X8.9582Y-4.8855
X8.9739Y-4.0921
X8.9748Y-2.8506
X8.9775Y-4.1836
X8.9783Y-5.7357
X8.9849Y-4.397
X9.0053Y-5.6815
X9.0102Y-2.8182
X9.0102Y-2.8506
X9.0207Y-4.498
X9.0291Y-4.0722
X9.0327Y-2.5307
X9.0376Y-5.3485
X9.0421Y-2.9994
X9.0512Y-4.2917
X9.0528Y-4.8256
X9.0559Y-4.193
X9.0659Y-2.7143
X9.0832Y-3.8328
X9.0964Y-4.1127
X9.0964Y-2.9205
X9.1059Y-5.3324
X9.1079Y-3.0974
X9.1139Y-2.488
X9.1184Y-2.4609
X9.1272Y-2.9835
X9.1282Y-2.9195
X9.1418Y-3.853
X9.158Y-3.9509
X9.1677Y-4.8799
X9.1688Y-2.5757
X9.1692Y-2.758
X9.1712Y-4.4856
X9.1739Y-3.4879
X9.175Y-3.1687
X9.182Y-2.9582
X9.185Y-2.7014
X9.2036Y-3.8801
X9.208Y-5.8604
X9.2097Y-3.0949
X9.2166Y-2.1048
X9.2182Y-3.1391
X9.228Y-2.7943
X9.2558Y-3.0793
X9.2612Y-2.3312
X9.2612Y-2.9453
X9.2649Y-2.6819
X9.2817Y-5.4881
X9.2943Y-3.0991
X9.2981Y-3.1333
X9.3179Y-2.6658
X9.3232Y-2.6329
X9.3241Y-2.9753
X9.3279Y-2.4052
X9.3325Y-4.9953
X9.3373Y-2.7649
X9.3439Y-4.8799
X9.3525Y-2.2702
X9.3584Y-4.6788
X9.3592Y-5.0619
X9.3661Y-4.3135
X9.3933Y-4.6664
X9.4145Y-3.6345
X9.4179Y-3.2873
X9.4251Y-3.1187
X9.4317Y-2.9483
X9.436Y-2.5879
X9.4362Y-2.3761
X9.4384Y-2.5217
X9.442Y-3.6141
X9.4578Y-2.5256
X9.458Y-2.5682
X9.458Y-2.6469
X9.4582Y-2.4683
X9.4591Y-2.8069
X9.4738Y-2.6823
X9.4748Y-2.9149
X9.4887Y-2.6777
X9.4921Y-4.4693
X9.4928Y-5.8847
X9.494Y-4.2544
X9.5048Y-2.9453
X9.5374Y-2.943
X9.5406Y-5.3818
X9.5515Y-3.3732
X9.5538Y-3.9284
X9.5538Y-4.209
X9.5544Y-2.5308
X9.5544Y-2.6843
X9.5649Y-3.1895
X9.5681Y-4.8906
X9.5786Y-3.2749
X9.5992Y-2.7005
X9.6115Y-2.6272
X9.6115Y-2.6469
X9.6247Y-3.0962
X9.6562Y-2.4683
X9.6859Y-4.6443
X9.7348Y-3.418
X9.7476Y-2.5604
X9.7738Y-4.4878
X9.7777Y-4.6468
X9.8168Y-2.0001
X9.8168Y-2.2807
X9.8168Y-2.5613
X9.8168Y-2.8419
X9.8168Y-3.1224
X9.8168Y-3.403
X9.8168Y-3.6836
X9.8168Y-3.9642
X9.8168Y-4.2447
X9.8168Y-4.5253
X9.8168Y-4.8059
X9.8168Y-5.0865
X9.8168Y-5.367
X9.8168Y-5.6476
T4
X8.0076Y-3.9533
X8.0076Y-4.0533
X8.0076Y-4.1533
X8.0076Y-4.2533
X8.3274Y-3.8697
X8.4274Y-3.8697
X8.5274Y-3.8697
X8.6274Y-3.8697
T5
X7.9921Y-2.2134
X8.1921Y-2.2134
X9.5205Y-2.2142
X9.7205Y-2.2142
T6
X8.7705Y-2.0488
X8.7705Y-2.2496
X8.8709Y-2.1492
X8.9713Y-2.0488
X8.9713Y-2.2496
T3
G00X8.7063Y-5.6583
M15
G01X8.7063Y-5.7016
M16
G05
G00X8.7063Y-5.8327
M15
G01X8.7063Y-5.8563
M16
G05
G00X9.0465Y-5.6583
M15
G01X9.0465Y-5.7016
M16
G05
G00X9.0465Y-5.8327
M15
G01X9.0465Y-5.8563
M16
G05
T4
G00X9.2618Y-5.5335
M15
G01X9.2224Y-5.5335
M16
G05
G00X9.2618Y-5.75
M15
G01X9.2224Y-5.75
M16
G05
G00X9.3406Y-5.8445
M15
G01X9.3012Y-5.8445
M16
G05
M30
