%TF.GenerationSoftware,KiCad,Pcbnew,10.0.1*%
%TF.CreationDate,2026-06-16T20:08:50+02:00*%
%TF.ProjectId,WK-1,574b2d31-2e6b-4696-9361-645f70636258,rev?*%
%TF.SameCoordinates,Original*%
%TF.FileFunction,Legend,Top*%
%TF.FilePolarity,Positive*%
%FSLAX46Y46*%
G04 Gerber Fmt 4.6, Leading zero omitted, Abs format (unit mm)*
G04 Created by KiCad (PCBNEW 10.0.1) date 2026-06-16 20:08:50*
%MOMM*%
%LPD*%
G01*
G04 APERTURE LIST*
G04 Aperture macros list*
%AMRoundRect*
0 Rectangle with rounded corners*
0 $1 Rounding radius*
0 $2 $3 $4 $5 $6 $7 $8 $9 X,Y pos of 4 corners*
0 Add a 4 corners polygon primitive as box body*
4,1,4,$2,$3,$4,$5,$6,$7,$8,$9,$2,$3,0*
0 Add four circle primitives for the rounded corners*
1,1,$1+$1,$2,$3*
1,1,$1+$1,$4,$5*
1,1,$1+$1,$6,$7*
1,1,$1+$1,$8,$9*
0 Add four rect primitives between the rounded corners*
20,1,$1+$1,$2,$3,$4,$5,0*
20,1,$1+$1,$4,$5,$6,$7,0*
20,1,$1+$1,$6,$7,$8,$9,0*
20,1,$1+$1,$8,$9,$2,$3,0*%
%AMOutline5P*
0 Free polygon, 5 corners , with rotation*
0 The origin of the aperture is its center*
0 number of corners: always 5*
0 $1 to $10 corner X, Y*
0 $11 Rotation angle, in degrees counterclockwise*
0 create outline with 5 corners*
4,1,5,$1,$2,$3,$4,$5,$6,$7,$8,$9,$10,$1,$2,$11*%
%AMOutline6P*
0 Free polygon, 6 corners , with rotation*
0 The origin of the aperture is its center*
0 number of corners: always 6*
0 $1 to $12 corner X, Y*
0 $13 Rotation angle, in degrees counterclockwise*
0 create outline with 6 corners*
4,1,6,$1,$2,$3,$4,$5,$6,$7,$8,$9,$10,$11,$12,$1,$2,$13*%
%AMOutline7P*
0 Free polygon, 7 corners , with rotation*
0 The origin of the aperture is its center*
0 number of corners: always 7*
0 $1 to $14 corner X, Y*
0 $15 Rotation angle, in degrees counterclockwise*
0 create outline with 7 corners*
4,1,7,$1,$2,$3,$4,$5,$6,$7,$8,$9,$10,$11,$12,$13,$14,$1,$2,$15*%
%AMOutline8P*
0 Free polygon, 8 corners , with rotation*
0 The origin of the aperture is its center*
0 number of corners: always 8*
0 $1 to $16 corner X, Y*
0 $17 Rotation angle, in degrees counterclockwise*
0 create outline with 8 corners*
4,1,8,$1,$2,$3,$4,$5,$6,$7,$8,$9,$10,$11,$12,$13,$14,$15,$16,$1,$2,$17*%
%AMFreePoly0*
4,1,64,0.235856,1.440014,0.383010,1.379061,0.515445,1.290571,0.628071,1.177945,0.716561,1.045510,0.777514,0.898356,0.808588,0.742139,0.808588,0.582861,0.777514,0.426644,0.716561,0.279490,0.628071,0.147055,0.515445,0.034429,0.383010,-0.054061,0.235856,-0.115014,0.079639,-0.146088,0.031751,-0.146088,0.029264,-0.147118,-0.029264,-0.147118,-0.031751,-0.146088,-0.079639,-0.146088,
-0.235856,-0.115014,-0.383010,-0.054061,-0.515445,0.034429,-0.628071,0.147055,-0.716561,0.279490,-0.777514,0.426644,-0.808588,0.582861,-0.808588,0.729972,-0.512500,0.729972,-0.512500,0.595028,-0.477574,0.464683,-0.410102,0.347818,-0.314682,0.252398,-0.197817,0.184926,-0.067472,0.150000,0.067472,0.150000,0.197817,0.184926,0.314682,0.252398,0.410102,0.347818,0.477574,0.464683,
0.512500,0.595028,0.512500,0.729972,0.477574,0.860317,0.410102,0.977182,0.314682,1.072602,0.197817,1.140074,0.067472,1.175000,-0.067472,1.175000,-0.197817,1.140074,-0.314682,1.072602,-0.410102,0.977182,-0.477574,0.860317,-0.512500,0.729972,-0.808588,0.729972,-0.808588,0.742139,-0.777514,0.898356,-0.716561,1.045510,-0.628071,1.177945,-0.515445,1.290571,-0.383010,1.379061,
-0.235856,1.440014,-0.079639,1.471088,0.079639,1.471088,0.235856,1.440014,0.235856,1.440014,$1*%
G04 Aperture macros list end*
%ADD10C,0.120000*%
%ADD11C,0.250000*%
%ADD12C,0.152400*%
%ADD13C,0.127000*%
%ADD14C,0.200000*%
%ADD15C,0.063060*%
%ADD16C,0.000000*%
%ADD17RoundRect,0.225000X0.225000X0.250000X-0.225000X0.250000X-0.225000X-0.250000X0.225000X-0.250000X0*%
%ADD18RoundRect,0.200000X0.275000X-0.200000X0.275000X0.200000X-0.275000X0.200000X-0.275000X-0.200000X0*%
%ADD19C,1.800000*%
%ADD20RoundRect,0.250000X0.350000X-0.450000X0.350000X0.450000X-0.350000X0.450000X-0.350000X-0.450000X0*%
%ADD21R,0.900000X0.300000*%
%ADD22R,0.300000X0.900000*%
%ADD23R,2.500000X2.500000*%
%ADD24R,0.990600X0.990600*%
%ADD25RoundRect,0.200000X-0.275000X0.200000X-0.275000X-0.200000X0.275000X-0.200000X0.275000X0.200000X0*%
%ADD26RoundRect,0.150000X0.512500X0.150000X-0.512500X0.150000X-0.512500X-0.150000X0.512500X-0.150000X0*%
%ADD27R,0.400000X0.800000*%
%ADD28R,0.800000X0.400000*%
%ADD29Outline5P,-0.600000X0.204000X-0.204000X0.600000X0.600000X0.600000X0.600000X-0.600000X-0.600000X-0.600000X90.000000*%
%ADD30R,1.200000X1.200000*%
%ADD31R,0.800000X0.800000*%
%ADD32RoundRect,0.102000X-0.750000X-0.450000X0.750000X-0.450000X0.750000X0.450000X-0.750000X0.450000X0*%
%ADD33RoundRect,0.225000X0.250000X-0.225000X0.250000X0.225000X-0.250000X0.225000X-0.250000X-0.225000X0*%
%ADD34RoundRect,0.218750X0.381250X-0.218750X0.381250X0.218750X-0.381250X0.218750X-0.381250X-0.218750X0*%
%ADD35RoundRect,0.225000X-0.225000X-0.250000X0.225000X-0.250000X0.225000X0.250000X-0.225000X0.250000X0*%
%ADD36RoundRect,0.225000X-0.250000X0.225000X-0.250000X-0.225000X0.250000X-0.225000X0.250000X0.225000X0*%
%ADD37R,1.700000X1.700000*%
%ADD38C,1.700000*%
%ADD39RoundRect,0.200100X-0.949900X-0.949900X0.949900X-0.949900X0.949900X0.949900X-0.949900X0.949900X0*%
%ADD40C,2.200000*%
%ADD41RoundRect,0.150000X-0.150000X0.825000X-0.150000X-0.825000X0.150000X-0.825000X0.150000X0.825000X0*%
%ADD42RoundRect,0.075000X-0.650000X-0.075000X0.650000X-0.075000X0.650000X0.075000X-0.650000X0.075000X0*%
%ADD43C,0.650000*%
%ADD44RoundRect,0.150000X-0.150000X-0.575000X0.150000X-0.575000X0.150000X0.575000X-0.150000X0.575000X0*%
%ADD45RoundRect,0.075000X-0.075000X-0.650000X0.075000X-0.650000X0.075000X0.650000X-0.075000X0.650000X0*%
%ADD46O,1.000000X2.100000*%
%ADD47O,1.000000X1.600000*%
%ADD48RoundRect,0.218750X0.218750X0.381250X-0.218750X0.381250X-0.218750X-0.381250X0.218750X-0.381250X0*%
%ADD49RoundRect,0.250000X-0.650000X0.325000X-0.650000X-0.325000X0.650000X-0.325000X0.650000X0.325000X0*%
%ADD50RoundRect,0.200000X-0.200000X-0.275000X0.200000X-0.275000X0.200000X0.275000X-0.200000X0.275000X0*%
%ADD51C,0.500000*%
%ADD52R,0.600000X0.522000*%
%ADD53FreePoly0,270.000000*%
%ADD54RoundRect,0.250000X1.950000X1.000000X-1.950000X1.000000X-1.950000X-1.000000X1.950000X-1.000000X0*%
%ADD55RoundRect,0.250000X0.550000X-1.500000X0.550000X1.500000X-0.550000X1.500000X-0.550000X-1.500000X0*%
%ADD56RoundRect,0.250000X-0.375000X-0.625000X0.375000X-0.625000X0.375000X0.625000X-0.375000X0.625000X0*%
%ADD57RoundRect,0.150000X-0.875000X-0.150000X0.875000X-0.150000X0.875000X0.150000X-0.875000X0.150000X0*%
%ADD58RoundRect,0.250000X0.325000X0.650000X-0.325000X0.650000X-0.325000X-0.650000X0.325000X-0.650000X0*%
%ADD59RoundRect,0.200000X0.200000X0.275000X-0.200000X0.275000X-0.200000X-0.275000X0.200000X-0.275000X0*%
%ADD60O,2.800000X1.800000*%
%ADD61RoundRect,0.250000X-0.325000X-0.650000X0.325000X-0.650000X0.325000X0.650000X-0.325000X0.650000X0*%
%ADD62RoundRect,0.175000X-0.325000X0.175000X-0.325000X-0.175000X0.325000X-0.175000X0.325000X0.175000X0*%
%ADD63RoundRect,0.150000X-0.150000X0.200000X-0.150000X-0.200000X0.150000X-0.200000X0.150000X0.200000X0*%
%ADD64C,0.900000*%
%ADD65R,1.500000X0.700000*%
%ADD66R,0.800000X1.000000*%
%ADD67RoundRect,0.250000X0.650000X-0.325000X0.650000X0.325000X-0.650000X0.325000X-0.650000X-0.325000X0*%
G04 APERTURE END LIST*
%TO.C,C10*%
D10*
X232255695Y-78164757D02*
X231974535Y-78164757D01*
X232255695Y-79184757D02*
X231974535Y-79184757D01*
%TO.C,R14*%
X208020134Y-99208304D02*
X208020134Y-98733788D01*
X209065134Y-99208304D02*
X209065134Y-98733788D01*
%TO.C,J3*%
X200440000Y-50720000D02*
X210640000Y-50720000D01*
X200440000Y-60720000D02*
X200440000Y-50720000D01*
X210640000Y-50720000D02*
X210640000Y-60720000D01*
X210640000Y-60720000D02*
X200440000Y-60720000D01*
%TO.C,Y1*%
X235715000Y-66535000D02*
X239135000Y-66535000D01*
X239135000Y-66535000D02*
X239135000Y-62415000D01*
%TO.C,R3*%
X205699204Y-99987796D02*
X205699204Y-99513280D01*
X206744204Y-99987796D02*
X206744204Y-99513280D01*
%TO.C,IC1*%
D11*
X244707014Y-67981612D02*
G75*
G02*
X244457014Y-67981612I-125000J0D01*
G01*
X244457014Y-67981612D02*
G75*
G02*
X244707014Y-67981612I125000J0D01*
G01*
%TO.C,SW5*%
D12*
X222225802Y-108875801D02*
X222225802Y-115124201D01*
X222225802Y-115124201D02*
X228474202Y-115124201D01*
X228474202Y-108875801D02*
X222225802Y-108875801D01*
X228474202Y-115124201D02*
X228474202Y-108875801D01*
X219668902Y-109750000D02*
G75*
G02*
X219262502Y-109750000I-203200J0D01*
G01*
X219262502Y-109750000D02*
G75*
G02*
X219668902Y-109750000I203200J0D01*
G01*
%TO.C,R2*%
D10*
X206472847Y-108477440D02*
X206472847Y-108951956D01*
X207517847Y-108477440D02*
X207517847Y-108951956D01*
%TO.C,U5*%
X245313874Y-112251144D02*
X247133874Y-112251144D01*
X245313874Y-112301144D02*
X245313874Y-112251144D01*
X245313874Y-114201144D02*
X245313874Y-113421144D01*
X245313874Y-115371144D02*
X245313874Y-115321144D01*
X247133874Y-112251144D02*
X247133874Y-112301144D01*
X247133874Y-115321144D02*
X247133874Y-115371144D01*
X247133874Y-115371144D02*
X245313874Y-115371144D01*
X247913874Y-115651144D02*
X247433874Y-115651144D01*
X247673874Y-115321144D01*
X247913874Y-115651144D01*
G36*
X247913874Y-115651144D02*
G01*
X247433874Y-115651144D01*
X247673874Y-115321144D01*
X247913874Y-115651144D01*
G37*
%TO.C,U1*%
X201773487Y-76934870D02*
X217373487Y-76934870D01*
X201773487Y-92534870D02*
X201773487Y-76934870D01*
X217373487Y-76934870D02*
X217373487Y-92534870D01*
X217373487Y-92534870D02*
X201773487Y-92534870D01*
X203863487Y-93045870D02*
X203383487Y-93045870D01*
X203623487Y-92709870D01*
X203863487Y-93045870D01*
G36*
X203863487Y-93045870D02*
G01*
X203383487Y-93045870D01*
X203623487Y-92709870D01*
X203863487Y-93045870D01*
G37*
%TO.C,U8*%
D13*
X215397500Y-137000000D02*
X210397500Y-137000000D01*
X215397500Y-142000000D02*
X210397500Y-142000000D01*
D14*
X209027500Y-137550000D02*
G75*
G02*
X208827500Y-137550000I-100000J0D01*
G01*
X208827500Y-137550000D02*
G75*
G02*
X209027500Y-137550000I100000J0D01*
G01*
%TO.C,C5*%
D10*
X216542712Y-60137017D02*
X216542712Y-59855857D01*
X217562712Y-60137017D02*
X217562712Y-59855857D01*
%TO.C,C27*%
X226453369Y-62574913D02*
X226172209Y-62574913D01*
X226453369Y-63594913D02*
X226172209Y-63594913D01*
%TO.C,L16*%
X234406510Y-55449106D02*
X234406510Y-54649862D01*
X235526510Y-55449106D02*
X235526510Y-54649862D01*
%TO.C,C42*%
X246954920Y-64523644D02*
X246673760Y-64523644D01*
X246954920Y-65543644D02*
X246673760Y-65543644D01*
%TO.C,C41*%
X244352829Y-62185167D02*
X244633989Y-62185167D01*
X244352829Y-63205167D02*
X244633989Y-63205167D01*
%TO.C,SW8*%
D12*
X222225802Y-115925801D02*
X222225802Y-122174201D01*
X222225802Y-122174201D02*
X228474202Y-122174201D01*
X228474202Y-115925801D02*
X222225802Y-115925801D01*
X228474202Y-122174201D02*
X228474202Y-115925801D01*
X219668902Y-116800000D02*
G75*
G02*
X219262502Y-116800000I-203200J0D01*
G01*
X219262502Y-116800000D02*
G75*
G02*
X219668902Y-116800000I203200J0D01*
G01*
%TO.C,U7*%
D13*
X215397500Y-143550000D02*
X210397500Y-143550000D01*
X215397500Y-148550000D02*
X210397500Y-148550000D01*
D14*
X209027500Y-144100000D02*
G75*
G02*
X208827500Y-144100000I-100000J0D01*
G01*
X208827500Y-144100000D02*
G75*
G02*
X209027500Y-144100000I100000J0D01*
G01*
%TO.C,C7*%
D10*
X238978371Y-75726860D02*
X238978371Y-75445700D01*
X239998371Y-75726860D02*
X239998371Y-75445700D01*
%TO.C,C46*%
X228921006Y-63363572D02*
X228921006Y-63644732D01*
X229941006Y-63363572D02*
X229941006Y-63644732D01*
%TO.C,R8*%
X220572564Y-80056402D02*
X220572564Y-80530918D01*
X221617564Y-80056402D02*
X221617564Y-80530918D01*
%TO.C,C44*%
X234723332Y-58296872D02*
X234723332Y-58578032D01*
X235743332Y-58296872D02*
X235743332Y-58578032D01*
%TO.C,R12*%
X236644940Y-74264554D02*
X236644940Y-73790038D01*
X237689940Y-74264554D02*
X237689940Y-73790038D01*
%TO.C,J9*%
X202063487Y-106764952D02*
X202063487Y-99084952D01*
X202063487Y-109364952D02*
X202063487Y-108034952D01*
X203393487Y-109364952D02*
X202063487Y-109364952D01*
X204723487Y-99084952D02*
X202063487Y-99084952D01*
X204723487Y-106764952D02*
X202063487Y-106764952D01*
X204723487Y-106764952D02*
X204723487Y-99084952D01*
%TO.C,C9*%
X242031899Y-80503234D02*
X242313059Y-80503234D01*
X242031899Y-81523234D02*
X242313059Y-81523234D01*
%TO.C,J10*%
X221435000Y-55090000D02*
X221935000Y-54590000D01*
X221935000Y-54590000D02*
X221435000Y-54090000D01*
X221410000Y-50680000D02*
X229230000Y-50680000D01*
X229230000Y-58500000D01*
X221410000Y-58500000D01*
X221410000Y-50680000D01*
%TO.C,U6*%
X214141781Y-63511359D02*
X214196781Y-63511359D01*
X214141781Y-67631359D02*
X214141781Y-63511359D01*
X214196781Y-67631359D02*
X214141781Y-67631359D01*
X224206781Y-63511359D02*
X224261781Y-63511359D01*
X224261781Y-63511359D02*
X224261781Y-67631359D01*
X224261781Y-67631359D02*
X224206781Y-67631359D01*
X224541781Y-63211359D02*
X224211781Y-62971359D01*
X224541781Y-62731359D01*
X224541781Y-63211359D01*
G36*
X224541781Y-63211359D02*
G01*
X224211781Y-62971359D01*
X224541781Y-62731359D01*
X224541781Y-63211359D01*
G37*
%TO.C,U2*%
X235636510Y-77603741D02*
X238856510Y-77603741D01*
X235636510Y-77803741D02*
X235636510Y-77603741D01*
X235636510Y-80823741D02*
X235636510Y-80623741D01*
X238856510Y-77603741D02*
X238856510Y-77803741D01*
X238856510Y-80623741D02*
X238856510Y-80823741D01*
X238856510Y-80823741D02*
X235636510Y-80823741D01*
X235086510Y-77803741D02*
X234846510Y-77473741D01*
X235326510Y-77473741D01*
X235086510Y-77803741D01*
G36*
X235086510Y-77803741D02*
G01*
X234846510Y-77473741D01*
X235326510Y-77473741D01*
X235086510Y-77803741D01*
G37*
%TO.C,J2*%
X220760000Y-145500000D02*
X220760000Y-147500000D01*
X220760000Y-149400000D02*
X220760000Y-151300000D01*
X220760000Y-151300000D02*
X230160000Y-151300000D01*
X230160000Y-145500000D02*
X230160000Y-147500000D01*
X230160000Y-149400000D02*
X230160000Y-151300000D01*
%TO.C,C38*%
X247101626Y-117148533D02*
X247101626Y-117429693D01*
X248121626Y-117148533D02*
X248121626Y-117429693D01*
%TO.C,SW4*%
D12*
X211275800Y-108875801D02*
X211275800Y-115124201D01*
X211275800Y-115124201D02*
X217524200Y-115124201D01*
X217524200Y-108875801D02*
X211275800Y-108875801D01*
X217524200Y-115124201D02*
X217524200Y-108875801D01*
X208718900Y-109750000D02*
G75*
G02*
X208312500Y-109750000I-203200J0D01*
G01*
X208312500Y-109750000D02*
G75*
G02*
X208718900Y-109750000I203200J0D01*
G01*
%TO.C,C36*%
D10*
X247488448Y-85968845D02*
X247488448Y-86250005D01*
X248508448Y-85968845D02*
X248508448Y-86250005D01*
%TO.C,L19*%
X228529698Y-60456183D02*
X227730454Y-60456183D01*
X228529698Y-61576183D02*
X227730454Y-61576183D01*
%TO.C,SW12*%
D12*
X233475801Y-123075800D02*
X233475801Y-129324200D01*
X233475801Y-129324200D02*
X239724201Y-129324200D01*
X239724201Y-123075800D02*
X233475801Y-123075800D01*
X239724201Y-129324200D02*
X239724201Y-123075800D01*
X230918901Y-123949999D02*
G75*
G02*
X230512501Y-123949999I-203200J0D01*
G01*
X230512501Y-123949999D02*
G75*
G02*
X230918901Y-123949999I203200J0D01*
G01*
%TO.C,SW11*%
X222225802Y-123025799D02*
X222225802Y-129274199D01*
X222225802Y-129274199D02*
X228474202Y-129274199D01*
X228474202Y-123025799D02*
X222225802Y-123025799D01*
X228474202Y-129274199D02*
X228474202Y-123025799D01*
X219668902Y-123899998D02*
G75*
G02*
X219262502Y-123899998I-203200J0D01*
G01*
X219262502Y-123899998D02*
G75*
G02*
X219668902Y-123899998I203200J0D01*
G01*
%TO.C,C25*%
D10*
X204571239Y-95101318D02*
X204571239Y-96523822D01*
X206391239Y-95101318D02*
X206391239Y-96523822D01*
%TO.C,L17*%
X236266132Y-60456183D02*
X235466888Y-60456183D01*
X236266132Y-61576183D02*
X235466888Y-61576183D01*
%TO.C,R6*%
X202866229Y-110890929D02*
X203340745Y-110890929D01*
X202866229Y-111935929D02*
X203340745Y-111935929D01*
%TO.C,C39*%
X241152594Y-62185167D02*
X240871434Y-62185167D01*
X241152594Y-63205167D02*
X240871434Y-63205167D01*
%TO.C,MK1*%
X226535076Y-69190518D02*
X229385076Y-69190518D01*
X226535076Y-72890518D02*
X226535076Y-69190518D01*
X229085076Y-72890518D02*
X226535076Y-72890518D01*
X229385076Y-69190518D02*
X229385076Y-72590518D01*
X229385076Y-73170518D02*
X229385076Y-72890518D01*
X229665076Y-72890518D01*
X229385076Y-73170518D01*
G36*
X229385076Y-73170518D02*
G01*
X229385076Y-72890518D01*
X229665076Y-72890518D01*
X229385076Y-73170518D01*
G37*
%TO.C,C37*%
X236657440Y-70768747D02*
X236657440Y-71049907D01*
X237677440Y-70768747D02*
X237677440Y-71049907D01*
%TO.C,R11*%
X238067004Y-91793370D02*
X238541520Y-91793370D01*
X238067004Y-92838370D02*
X238541520Y-92838370D01*
%TO.C,C8*%
X203026665Y-61970343D02*
X203026665Y-64820343D01*
X203026665Y-70690343D02*
X203026665Y-67840343D01*
X210682228Y-61970343D02*
X203026665Y-61970343D01*
X210682228Y-70690343D02*
X203026665Y-70690343D01*
X211746665Y-63034780D02*
X210682228Y-61970343D01*
X211746665Y-63034780D02*
X211746665Y-64820343D01*
X211746665Y-69625906D02*
X210682228Y-70690343D01*
X211746665Y-69625906D02*
X211746665Y-67840343D01*
X212486665Y-69340343D02*
X212486665Y-68340343D01*
X212986665Y-68840343D02*
X211986665Y-68840343D01*
%TO.C,J8*%
X210186743Y-96961300D02*
X211516743Y-96961300D01*
X210186743Y-98291300D02*
X210186743Y-96961300D01*
X212786743Y-96961300D02*
X220466743Y-96961300D01*
X212786743Y-99621300D02*
X212786743Y-96961300D01*
X212786743Y-99621300D02*
X220466743Y-99621300D01*
X220466743Y-99621300D02*
X220466743Y-96961300D01*
%TO.C,SW10*%
D12*
X211275801Y-123025800D02*
X211275801Y-129274200D01*
X211275801Y-129274200D02*
X217524201Y-129274200D01*
X217524201Y-123025800D02*
X211275801Y-123025800D01*
X217524201Y-129274200D02*
X217524201Y-123025800D01*
X208718901Y-123899999D02*
G75*
G02*
X208312501Y-123899999I-203200J0D01*
G01*
X208312501Y-123899999D02*
G75*
G02*
X208718901Y-123899999I203200J0D01*
G01*
%TO.C,R10*%
D10*
X226587576Y-81669730D02*
X226587576Y-81195214D01*
X227632576Y-81669730D02*
X227632576Y-81195214D01*
%TO.C,C31*%
X235803797Y-82887140D02*
X238153797Y-82887140D01*
X235803797Y-88642703D02*
X235803797Y-82887140D01*
X236868234Y-89707140D02*
X235803797Y-88642703D01*
X236868234Y-89707140D02*
X238153797Y-89707140D01*
X236972547Y-90340890D02*
X237760047Y-90340890D01*
X237366297Y-90734640D02*
X237366297Y-89947140D01*
X241559360Y-89707140D02*
X240273797Y-89707140D01*
X241559360Y-89707140D02*
X242623797Y-88642703D01*
X242623797Y-82887140D02*
X240273797Y-82887140D01*
X242623797Y-88642703D02*
X242623797Y-82887140D01*
%TO.C,U9*%
D13*
X207500000Y-137000000D02*
X202500000Y-137000000D01*
X207500000Y-142000000D02*
X202500000Y-142000000D01*
D14*
X201130000Y-137550000D02*
G75*
G02*
X200930000Y-137550000I-100000J0D01*
G01*
X200930000Y-137550000D02*
G75*
G02*
X201130000Y-137550000I100000J0D01*
G01*
%TO.C,R13*%
D10*
X245029795Y-85167687D02*
X245504311Y-85167687D01*
X245029795Y-86212687D02*
X245504311Y-86212687D01*
%TO.C,C4*%
X228454184Y-81328155D02*
X230804184Y-81328155D01*
X228454184Y-87083718D02*
X228454184Y-81328155D01*
X229518621Y-88148155D02*
X228454184Y-87083718D01*
X229518621Y-88148155D02*
X230804184Y-88148155D01*
X229622934Y-88781905D02*
X230410434Y-88781905D01*
X230016684Y-89175655D02*
X230016684Y-88388155D01*
X234209747Y-88148155D02*
X232924184Y-88148155D01*
X234209747Y-88148155D02*
X235274184Y-87083718D01*
X235274184Y-81328155D02*
X232924184Y-81328155D01*
X235274184Y-87083718D02*
X235274184Y-81328155D01*
%TO.C,L18*%
X232397915Y-60456183D02*
X231598671Y-60456183D01*
X232397915Y-61576183D02*
X231598671Y-61576183D01*
%TO.C,C34*%
X240912479Y-75726860D02*
X240912479Y-75445700D01*
X241932479Y-75726860D02*
X241932479Y-75445700D01*
%TO.C,C35*%
X234723332Y-75726860D02*
X234723332Y-75445700D01*
X235743332Y-75726860D02*
X235743332Y-75445700D01*
%TO.C,F1*%
X219547934Y-89836632D02*
X220752062Y-89836632D01*
X219547934Y-91656632D02*
X220752062Y-91656632D01*
%TO.C,SW9*%
D12*
X233475801Y-115875800D02*
X233475801Y-122124200D01*
X233475801Y-122124200D02*
X239724201Y-122124200D01*
X239724201Y-115875800D02*
X233475801Y-115875800D01*
X239724201Y-122124200D02*
X239724201Y-115875800D01*
X230918901Y-116749999D02*
G75*
G02*
X230512501Y-116749999I-203200J0D01*
G01*
X230512501Y-116749999D02*
G75*
G02*
X230918901Y-116749999I203200J0D01*
G01*
%TO.C,J1*%
D10*
X239260000Y-50740000D02*
X249460000Y-50740000D01*
X239260000Y-60740000D02*
X239260000Y-50740000D01*
X249460000Y-50740000D02*
X249460000Y-60740000D01*
X249460000Y-60740000D02*
X239260000Y-60740000D01*
%TO.C,C12*%
X233521822Y-64913390D02*
X233802982Y-64913390D01*
X233521822Y-65933390D02*
X233802982Y-65933390D01*
%TO.C,U11*%
X226515967Y-90180792D02*
X234235967Y-90180792D01*
X226515967Y-90435792D02*
X226515967Y-90180792D01*
X226515967Y-100700792D02*
X226515967Y-100445792D01*
X234235967Y-90180792D02*
X234235967Y-90435792D01*
X234235967Y-100445792D02*
X234235967Y-100700792D01*
X234235967Y-100700792D02*
X226515967Y-100700792D01*
X225725967Y-90430792D02*
X225385967Y-89960792D01*
X226065967Y-89960792D01*
X225725967Y-90430792D01*
G36*
X225725967Y-90430792D02*
G01*
X225385967Y-89960792D01*
X226065967Y-89960792D01*
X225725967Y-90430792D01*
G37*
%TO.C,SW3*%
D12*
X233525802Y-101925801D02*
X233525802Y-108174201D01*
X233525802Y-108174201D02*
X239774202Y-108174201D01*
X239774202Y-101925801D02*
X233525802Y-101925801D01*
X239774202Y-108174201D02*
X239774202Y-101925801D01*
X230968902Y-102800000D02*
G75*
G02*
X230562502Y-102800000I-203200J0D01*
G01*
X230562502Y-102800000D02*
G75*
G02*
X230968902Y-102800000I203200J0D01*
G01*
%TO.C,C32*%
D10*
X237514584Y-67211359D02*
X236092080Y-67211359D01*
X237514584Y-69031359D02*
X236092080Y-69031359D01*
%TO.C,C28*%
X220797750Y-70768747D02*
X220797750Y-71049907D01*
X221817750Y-70768747D02*
X221817750Y-71049907D01*
%TO.C,Rbias1*%
X232776723Y-68028617D02*
X232776723Y-67554101D01*
X233821723Y-68028617D02*
X233821723Y-67554101D01*
%TO.C,C6*%
X214608603Y-60137017D02*
X214608603Y-59855857D01*
X215628603Y-60137017D02*
X215628603Y-59855857D01*
%TO.C,R5*%
X207595784Y-75034288D02*
X207121268Y-75034288D01*
X207595784Y-76079288D02*
X207121268Y-76079288D01*
%TO.C,J4*%
X232430000Y-135530000D02*
X240870000Y-135530000D01*
X232430000Y-149770000D02*
X232430000Y-135530000D01*
X232730000Y-149770000D02*
X232430000Y-149770000D01*
X232730000Y-153770000D02*
X232730000Y-149770000D01*
X238970000Y-149770000D02*
X238970000Y-153770000D01*
X238970000Y-153770000D02*
X232730000Y-153770000D01*
X240870000Y-135530000D02*
X240870000Y-149770000D01*
X240870000Y-149770000D02*
X238970000Y-149770000D01*
%TO.C,C3*%
X207258991Y-94543259D02*
X207258991Y-94824419D01*
X208278991Y-94543259D02*
X208278991Y-94824419D01*
%TO.C,C29*%
X226453369Y-64523644D02*
X226172209Y-64523644D01*
X226453369Y-65543644D02*
X226172209Y-65543644D01*
%TO.C,C33*%
X242281227Y-77734503D02*
X243703731Y-77734503D01*
X242281227Y-79554503D02*
X243703731Y-79554503D01*
%TO.C,C30*%
X226172209Y-67251866D02*
X226453369Y-67251866D01*
X226172209Y-68271866D02*
X226453369Y-68271866D01*
%TO.C,SW2*%
D12*
X222375802Y-101875799D02*
X222375802Y-108124199D01*
X222375802Y-108124199D02*
X228624202Y-108124199D01*
X228624202Y-101875799D02*
X222375802Y-101875799D01*
X228624202Y-108124199D02*
X228624202Y-101875799D01*
X219818902Y-102749998D02*
G75*
G02*
X219412502Y-102749998I-203200J0D01*
G01*
X219412502Y-102749998D02*
G75*
G02*
X219818902Y-102749998I203200J0D01*
G01*
%TO.C,C43*%
D10*
X239752014Y-70660161D02*
X239752014Y-70379001D01*
X240772014Y-70660161D02*
X240772014Y-70379001D01*
%TO.C,U10*%
D13*
X207500000Y-143550000D02*
X202500000Y-143550000D01*
X207500000Y-148550000D02*
X202500000Y-148550000D01*
D14*
X201130000Y-144100000D02*
G75*
G02*
X200930000Y-144100000I-100000J0D01*
G01*
X200930000Y-144100000D02*
G75*
G02*
X201130000Y-144100000I100000J0D01*
G01*
%TO.C,C47*%
D10*
X224665967Y-60526763D02*
X224665967Y-60245603D01*
X225685967Y-60526763D02*
X225685967Y-60245603D01*
%TO.C,U4*%
X218009998Y-83780441D02*
X218009998Y-85080441D01*
X221129998Y-85080441D02*
X221129998Y-83810441D01*
X221409998Y-83670441D02*
X221079998Y-83430441D01*
X221409998Y-83190441D01*
X221409998Y-83670441D01*
G36*
X221409998Y-83670441D02*
G01*
X221079998Y-83430441D01*
X221409998Y-83190441D01*
X221409998Y-83670441D01*
G37*
%TO.C,C45*%
X232789223Y-58296872D02*
X232789223Y-58578032D01*
X233809223Y-58296872D02*
X233809223Y-58578032D01*
%TO.C,S1*%
D15*
D16*
X202268665Y-119722573D02*
X202268664Y-119722573D01*
X202268664Y-119722573D01*
X202268664Y-119722573D01*
X202268664Y-119722573D01*
X202268664Y-119722573D01*
X202268664Y-119722573D01*
X202268664Y-119722573D01*
X202268664Y-119722572D01*
X202268664Y-119722572D01*
X202268664Y-119722572D01*
X202268664Y-119722572D01*
X202268664Y-119722572D01*
X202268665Y-119722572D01*
X202268665Y-119722572D01*
X202268665Y-119722572D01*
X202268665Y-119722572D01*
X202268665Y-119722572D01*
X202268665Y-119722572D01*
X202268665Y-119722572D01*
X202268665Y-119722572D01*
X202268665Y-119722572D01*
X202268665Y-119722572D01*
X202268665Y-119722572D01*
X202268665Y-119722572D01*
X202268666Y-119722572D01*
X202268666Y-119722572D01*
X202268666Y-119722572D01*
X202268666Y-119722572D01*
X202268666Y-119722572D01*
X202268666Y-119722572D01*
X202268666Y-119722573D01*
X202268666Y-119722573D01*
X202268666Y-119722573D01*
X202268666Y-119722573D01*
X202268666Y-119722573D01*
X202268666Y-119722573D01*
X202268666Y-119722573D01*
X202268665Y-119722573D01*
X202268665Y-119722573D02*
X202268666Y-119722573D01*
X202268666Y-119722573D01*
X202268666Y-119722573D01*
X202268666Y-119722573D01*
X202268666Y-119722573D01*
X202268666Y-119722573D01*
X202268666Y-119722574D01*
X202268666Y-119722574D01*
X202268666Y-119722574D01*
X202268666Y-119722574D01*
X202268666Y-119722574D01*
X202268666Y-119722574D01*
X202268666Y-119722574D01*
X202268665Y-119722574D01*
X202268665Y-119722574D01*
X202268665Y-119722574D01*
X202268665Y-119722574D01*
X202268665Y-119722574D01*
X202268665Y-119722574D01*
X202268665Y-119722574D01*
X202268665Y-119722574D01*
X202268665Y-119722574D01*
X202268665Y-119722574D01*
X202268665Y-119722574D01*
X202268665Y-119722574D01*
X202268664Y-119722574D01*
X202268664Y-119722574D01*
X202268664Y-119722574D01*
X202268664Y-119722574D01*
X202268664Y-119722574D01*
X202268664Y-119722574D01*
X202268664Y-119722573D01*
X202268664Y-119722573D01*
X202268664Y-119722573D01*
X202268664Y-119722573D01*
X202268664Y-119722573D01*
X202268664Y-119722573D01*
X202268665Y-119722573D01*
D15*
D16*
X202268665Y-119786573D02*
X202268664Y-119786573D01*
X202268664Y-119786573D01*
X202268664Y-119786573D01*
X202268664Y-119786573D01*
X202268664Y-119786573D01*
X202268664Y-119786573D01*
X202268664Y-119786573D01*
X202268664Y-119786572D01*
X202268664Y-119786572D01*
X202268664Y-119786572D01*
X202268664Y-119786572D01*
X202268664Y-119786572D01*
X202268665Y-119786572D01*
X202268665Y-119786572D01*
X202268665Y-119786572D01*
X202268665Y-119786572D01*
X202268665Y-119786572D01*
X202268665Y-119786572D01*
X202268665Y-119786572D01*
X202268665Y-119786572D01*
X202268665Y-119786572D01*
X202268665Y-119786572D01*
X202268665Y-119786572D01*
X202268665Y-119786572D01*
X202268666Y-119786572D01*
X202268666Y-119786572D01*
X202268666Y-119786572D01*
X202268666Y-119786572D01*
X202268666Y-119786572D01*
X202268666Y-119786572D01*
X202268666Y-119786573D01*
X202268666Y-119786573D01*
X202268666Y-119786573D01*
X202268666Y-119786573D01*
X202268666Y-119786573D01*
X202268666Y-119786573D01*
X202268666Y-119786573D01*
X202268665Y-119786573D01*
X202268665Y-119786573D02*
X202268666Y-119786573D01*
X202268666Y-119786573D01*
X202268666Y-119786573D01*
X202268666Y-119786573D01*
X202268666Y-119786573D01*
X202268666Y-119786573D01*
X202268666Y-119786574D01*
X202268666Y-119786574D01*
X202268666Y-119786574D01*
X202268666Y-119786574D01*
X202268666Y-119786574D01*
X202268666Y-119786574D01*
X202268666Y-119786574D01*
X202268665Y-119786574D01*
X202268665Y-119786574D01*
X202268665Y-119786574D01*
X202268665Y-119786574D01*
X202268665Y-119786574D01*
X202268665Y-119786574D01*
X202268665Y-119786574D01*
X202268665Y-119786574D01*
X202268665Y-119786574D01*
X202268665Y-119786574D01*
X202268665Y-119786574D01*
X202268665Y-119786574D01*
X202268664Y-119786574D01*
X202268664Y-119786574D01*
X202268664Y-119786574D01*
X202268664Y-119786574D01*
X202268664Y-119786574D01*
X202268664Y-119786574D01*
X202268664Y-119786573D01*
X202268664Y-119786573D01*
X202268664Y-119786573D01*
X202268664Y-119786573D01*
X202268664Y-119786573D01*
X202268664Y-119786573D01*
X202268665Y-119786573D01*
D14*
X204926665Y-114166573D02*
X205726665Y-114166573D01*
X204926665Y-120866573D02*
X205726665Y-120866573D01*
X206626665Y-120264573D02*
X206626665Y-114768573D01*
D15*
X202268665Y-119722573D02*
G75*
G02*
X202268665Y-119786573I0J-32000D01*
G01*
X202268665Y-119786573D02*
G75*
G02*
X202268665Y-119722573I0J32000D01*
G01*
%TO.C,C23*%
D10*
X222303992Y-60236437D02*
X222585152Y-60236437D01*
X222303992Y-61256437D02*
X222585152Y-61256437D01*
%TO.C,SW6*%
D12*
X233475800Y-108875801D02*
X233475800Y-115124201D01*
X233475800Y-115124201D02*
X239724200Y-115124201D01*
X239724200Y-108875801D02*
X233475800Y-108875801D01*
X239724200Y-115124201D02*
X239724200Y-108875801D01*
X230918900Y-109750000D02*
G75*
G02*
X230512500Y-109750000I-203200J0D01*
G01*
X230512500Y-109750000D02*
G75*
G02*
X230918900Y-109750000I203200J0D01*
G01*
%TO.C,C21*%
D10*
X212287673Y-62085747D02*
X212287673Y-61804587D01*
X213307673Y-62085747D02*
X213307673Y-61804587D01*
%TO.C,C22*%
X220410929Y-87527829D02*
X220410929Y-87808989D01*
X221430929Y-87527829D02*
X221430929Y-87808989D01*
%TO.C,C11*%
X237044262Y-58296872D02*
X237044262Y-58578032D01*
X238064262Y-58296872D02*
X238064262Y-58578032D01*
%TO.C,R7*%
X206347624Y-110890929D02*
X206822140Y-110890929D01*
X206347624Y-111935929D02*
X206822140Y-111935929D01*
%TO.C,R9*%
X218858564Y-80056402D02*
X218858564Y-80530918D01*
X219903564Y-80056402D02*
X219903564Y-80530918D01*
%TO.C,SW1*%
D12*
X211225801Y-101875801D02*
X211225801Y-108124201D01*
X211225801Y-108124201D02*
X217474201Y-108124201D01*
X217474201Y-101875801D02*
X211225801Y-101875801D01*
X217474201Y-108124201D02*
X217474201Y-101875801D01*
X208668901Y-102750000D02*
G75*
G02*
X208262501Y-102750000I-203200J0D01*
G01*
X208262501Y-102750000D02*
G75*
G02*
X208668901Y-102750000I203200J0D01*
G01*
%TO.C,C40*%
D10*
X244780696Y-117148533D02*
X244780696Y-117429693D01*
X245800696Y-117148533D02*
X245800696Y-117429693D01*
%TO.C,SW7*%
D12*
X211275801Y-115925799D02*
X211275801Y-122174199D01*
X211275801Y-122174199D02*
X217524201Y-122174199D01*
X217524201Y-115925799D02*
X211275801Y-115925799D01*
X217524201Y-122174199D02*
X217524201Y-115925799D01*
X208718901Y-116799998D02*
G75*
G02*
X208312501Y-116799998I-203200J0D01*
G01*
X208312501Y-116799998D02*
G75*
G02*
X208718901Y-116799998I203200J0D01*
G01*
%TO.C,C26*%
D10*
X218496820Y-59887689D02*
X218496820Y-58465185D01*
X220316820Y-59887689D02*
X220316820Y-58465185D01*
%TD*%
%LPC*%
D17*
%TO.C,C10*%
X232890115Y-78674757D03*
X231340115Y-78674757D03*
%TD*%
D18*
%TO.C,R14*%
X208542634Y-99796046D03*
X208542634Y-98146046D03*
%TD*%
D19*
%TO.C,J3*%
X208080000Y-56220000D03*
X203000000Y-56220000D03*
%TD*%
D20*
%TO.C,Y1*%
X238275000Y-65575000D03*
X238275000Y-63375000D03*
X236575000Y-63375000D03*
X236575000Y-65575000D03*
%TD*%
D18*
%TO.C,R3*%
X206221704Y-100575538D03*
X206221704Y-98925538D03*
%TD*%
D21*
%TO.C,IC1*%
X244132014Y-67231612D03*
X244132014Y-66731612D03*
X244132014Y-66231612D03*
X244132014Y-65731612D03*
X244132014Y-65231612D03*
D22*
X243182014Y-64281612D03*
X242682014Y-64281612D03*
X242182014Y-64281612D03*
X241682014Y-64281612D03*
X241182014Y-64281612D03*
D21*
X240232014Y-65231612D03*
X240232014Y-65731612D03*
X240232014Y-66231612D03*
X240232014Y-66731612D03*
X240232014Y-67231612D03*
D22*
X241182014Y-68181612D03*
X241682014Y-68181612D03*
X242182014Y-68181612D03*
X242682014Y-68181612D03*
X243182014Y-68181612D03*
D23*
X242182014Y-66231612D03*
%TD*%
D24*
%TO.C,SW5*%
X220850003Y-109750000D03*
X229850001Y-109750000D03*
X220850003Y-114250002D03*
X229850001Y-114250002D03*
%TD*%
D25*
%TO.C,R2*%
X206995347Y-107889698D03*
X206995347Y-109539698D03*
%TD*%
D26*
%TO.C,U5*%
X247361374Y-114761144D03*
X247361374Y-113811144D03*
X247361374Y-112861144D03*
X245086374Y-112861144D03*
X245086374Y-114761144D03*
%TD*%
D27*
%TO.C,U1*%
X203623487Y-91734870D03*
X204473487Y-91734870D03*
X205323487Y-91734870D03*
X206173487Y-91734870D03*
X207023487Y-91734870D03*
X207873487Y-91734870D03*
X208723487Y-91734870D03*
X209573487Y-91734870D03*
X210423487Y-91734870D03*
X211273487Y-91734870D03*
X212123487Y-91734870D03*
X212973487Y-91734870D03*
X213823487Y-91734870D03*
X214673487Y-91734870D03*
X215523487Y-91734870D03*
D28*
X216573487Y-90684870D03*
X216573487Y-89834870D03*
X216573487Y-88984870D03*
X216573487Y-88134870D03*
X216573487Y-87284870D03*
X216573487Y-86434870D03*
X216573487Y-85584870D03*
X216573487Y-84734870D03*
X216573487Y-83884870D03*
X216573487Y-83034870D03*
X216573487Y-82184870D03*
X216573487Y-81334870D03*
X216573487Y-80484870D03*
X216573487Y-79634870D03*
X216573487Y-78784870D03*
D27*
X215523487Y-77734870D03*
X214673487Y-77734870D03*
X213823487Y-77734870D03*
X212973487Y-77734870D03*
X212123487Y-77734870D03*
X211273487Y-77734870D03*
X210423487Y-77734870D03*
X209573487Y-77734870D03*
X208723487Y-77734870D03*
X207873487Y-77734870D03*
X207023487Y-77734870D03*
X206173487Y-77734870D03*
X205323487Y-77734870D03*
X204473487Y-77734870D03*
X203623487Y-77734870D03*
D28*
X202573487Y-78784870D03*
X202573487Y-79634870D03*
X202573487Y-80484870D03*
X202573487Y-81334870D03*
X202573487Y-82184870D03*
X202573487Y-83034870D03*
X202573487Y-83884870D03*
X202573487Y-84734870D03*
X202573487Y-85584870D03*
X202573487Y-86434870D03*
X202573487Y-87284870D03*
X202573487Y-88134870D03*
X202573487Y-88984870D03*
X202573487Y-89834870D03*
X202573487Y-90684870D03*
D29*
X207923487Y-86384870D03*
D30*
X209573487Y-86384870D03*
X211223487Y-86384870D03*
X207923487Y-84734870D03*
X209573487Y-84734870D03*
X211223487Y-84734870D03*
X207923487Y-83084870D03*
X209573487Y-83084870D03*
X211223487Y-83084870D03*
D31*
X202573487Y-91734870D03*
X216573487Y-91734870D03*
X216573487Y-77734870D03*
X202573487Y-77734870D03*
%TD*%
D32*
%TO.C,U8*%
X210447500Y-137850000D03*
X210447500Y-141150000D03*
X215347500Y-141150000D03*
X215347500Y-137850000D03*
%TD*%
D33*
%TO.C,C5*%
X217052712Y-60771437D03*
X217052712Y-59221437D03*
%TD*%
D17*
%TO.C,C27*%
X227087789Y-63084913D03*
X225537789Y-63084913D03*
%TD*%
D34*
%TO.C,L16*%
X234966510Y-56111984D03*
X234966510Y-53986984D03*
%TD*%
D17*
%TO.C,C42*%
X247589340Y-65033644D03*
X246039340Y-65033644D03*
%TD*%
D35*
%TO.C,C41*%
X243718409Y-62695167D03*
X245268409Y-62695167D03*
%TD*%
D24*
%TO.C,SW8*%
X220850003Y-116800000D03*
X229850001Y-116800000D03*
X220850003Y-121300002D03*
X229850001Y-121300002D03*
%TD*%
D32*
%TO.C,U7*%
X210447500Y-144400000D03*
X210447500Y-147700000D03*
X215347500Y-147700000D03*
X215347500Y-144400000D03*
%TD*%
D33*
%TO.C,C7*%
X239488371Y-76361280D03*
X239488371Y-74811280D03*
%TD*%
D36*
%TO.C,C46*%
X229431006Y-62729152D03*
X229431006Y-64279152D03*
%TD*%
D25*
%TO.C,R8*%
X221095064Y-79468660D03*
X221095064Y-81118660D03*
%TD*%
D36*
%TO.C,C44*%
X235233332Y-57662452D03*
X235233332Y-59212452D03*
%TD*%
D18*
%TO.C,R12*%
X237167440Y-74852296D03*
X237167440Y-73202296D03*
%TD*%
D37*
%TO.C,J9*%
X203393487Y-108034952D03*
D38*
X203393487Y-105494952D03*
X203393487Y-102954952D03*
X203393487Y-100414952D03*
%TD*%
D35*
%TO.C,C9*%
X241397479Y-81013234D03*
X242947479Y-81013234D03*
%TD*%
D39*
%TO.C,J10*%
X225320000Y-54590000D03*
D40*
X222770000Y-52040000D03*
X222770000Y-57140000D03*
X227870000Y-52040000D03*
X227870000Y-57140000D03*
%TD*%
D41*
%TO.C,U6*%
X223646781Y-63096359D03*
X222376781Y-63096359D03*
X221106781Y-63096359D03*
X219836781Y-63096359D03*
X218566781Y-63096359D03*
X217296781Y-63096359D03*
X216026781Y-63096359D03*
X214756781Y-63096359D03*
X214756781Y-68046359D03*
X216026781Y-68046359D03*
X217296781Y-68046359D03*
X218566781Y-68046359D03*
X219836781Y-68046359D03*
X221106781Y-68046359D03*
X222376781Y-68046359D03*
X223646781Y-68046359D03*
%TD*%
D42*
%TO.C,U2*%
X235096510Y-78213741D03*
X235096510Y-78713741D03*
X235096510Y-79213741D03*
X235096510Y-79713741D03*
X235096510Y-80213741D03*
X239396510Y-80213741D03*
X239396510Y-79713741D03*
X239396510Y-79213741D03*
X239396510Y-78713741D03*
X239396510Y-78213741D03*
%TD*%
D43*
%TO.C,J2*%
X222570000Y-144800000D03*
X228350000Y-144800000D03*
D44*
X222210000Y-143355000D03*
X223010000Y-143355000D03*
D45*
X224210000Y-143355000D03*
X225210000Y-143355000D03*
X225710000Y-143355000D03*
X226710000Y-143355000D03*
D44*
X227910000Y-143355000D03*
X228710000Y-143355000D03*
X228710000Y-143355000D03*
X227910000Y-143355000D03*
D45*
X227210000Y-143355000D03*
X226210000Y-143355000D03*
X224710000Y-143355000D03*
X223710000Y-143355000D03*
D44*
X223010000Y-143355000D03*
X222210000Y-143355000D03*
D46*
X221140000Y-144270000D03*
D47*
X221140000Y-148450000D03*
D46*
X229780000Y-144270000D03*
D47*
X229780000Y-148450000D03*
%TD*%
D36*
%TO.C,C38*%
X247611626Y-116514113D03*
X247611626Y-118064113D03*
%TD*%
D24*
%TO.C,SW4*%
X209900001Y-109750000D03*
X218899999Y-109750000D03*
X209900001Y-114250002D03*
X218899999Y-114250002D03*
%TD*%
D36*
%TO.C,C36*%
X247998448Y-85334425D03*
X247998448Y-86884425D03*
%TD*%
D48*
%TO.C,L19*%
X229192576Y-61016183D03*
X227067576Y-61016183D03*
%TD*%
D24*
%TO.C,SW12*%
X232100002Y-123949999D03*
X241100000Y-123949999D03*
X232100002Y-128450001D03*
X241100000Y-128450001D03*
%TD*%
%TO.C,SW11*%
X220850003Y-123899998D03*
X229850001Y-123899998D03*
X220850003Y-128400000D03*
X229850001Y-128400000D03*
%TD*%
D49*
%TO.C,C25*%
X205481239Y-94337570D03*
X205481239Y-97287570D03*
%TD*%
D48*
%TO.C,L17*%
X236929010Y-61016183D03*
X234804010Y-61016183D03*
%TD*%
D50*
%TO.C,R6*%
X202278487Y-111413429D03*
X203928487Y-111413429D03*
%TD*%
D17*
%TO.C,C39*%
X241787014Y-62695167D03*
X240237014Y-62695167D03*
%TD*%
D51*
%TO.C,MK1*%
X227960076Y-70330518D03*
D52*
X228860076Y-72404518D03*
X228860076Y-71582518D03*
D53*
X227297576Y-70330518D03*
D52*
X227060076Y-71582518D03*
X227060076Y-72404518D03*
X227960076Y-72404518D03*
%TD*%
D36*
%TO.C,C37*%
X237167440Y-70134327D03*
X237167440Y-71684327D03*
%TD*%
D50*
%TO.C,R11*%
X237479262Y-92315870D03*
X239129262Y-92315870D03*
%TD*%
D54*
%TO.C,C8*%
X211086665Y-66330343D03*
X203686665Y-66330343D03*
%TD*%
D37*
%TO.C,J8*%
X211516743Y-98291300D03*
D38*
X214056743Y-98291300D03*
X216596743Y-98291300D03*
X219136743Y-98291300D03*
%TD*%
D24*
%TO.C,SW10*%
X209900002Y-123899999D03*
X218900000Y-123899999D03*
X209900002Y-128400001D03*
X218900000Y-128400001D03*
%TD*%
D18*
%TO.C,R10*%
X227110076Y-82257472D03*
X227110076Y-80607472D03*
%TD*%
D55*
%TO.C,C31*%
X239213797Y-89097140D03*
X239213797Y-83497140D03*
%TD*%
D32*
%TO.C,U9*%
X202550000Y-137850000D03*
X202550000Y-141150000D03*
X207450000Y-141150000D03*
X207450000Y-137850000D03*
%TD*%
D50*
%TO.C,R13*%
X244442053Y-85690187D03*
X246092053Y-85690187D03*
%TD*%
D55*
%TO.C,C4*%
X231864184Y-87538155D03*
X231864184Y-81938155D03*
%TD*%
D48*
%TO.C,L18*%
X233060793Y-61016183D03*
X230935793Y-61016183D03*
%TD*%
D33*
%TO.C,C34*%
X241422479Y-76361280D03*
X241422479Y-74811280D03*
%TD*%
%TO.C,C35*%
X235233332Y-76361280D03*
X235233332Y-74811280D03*
%TD*%
D56*
%TO.C,F1*%
X218749998Y-90746632D03*
X221549998Y-90746632D03*
%TD*%
D24*
%TO.C,SW9*%
X232100002Y-116749999D03*
X241100000Y-116749999D03*
X232100002Y-121250001D03*
X241100000Y-121250001D03*
%TD*%
D19*
%TO.C,J1*%
X246900000Y-56240000D03*
X241820000Y-56240000D03*
%TD*%
D35*
%TO.C,C12*%
X232887402Y-65423390D03*
X234437402Y-65423390D03*
%TD*%
D57*
%TO.C,U11*%
X225725967Y-90995792D03*
X225725967Y-92265792D03*
X225725967Y-93535792D03*
X225725967Y-94805792D03*
X225725967Y-96075792D03*
X225725967Y-97345792D03*
X225725967Y-98615792D03*
X225725967Y-99885792D03*
X235025967Y-99885792D03*
X235025967Y-98615792D03*
X235025967Y-97345792D03*
X235025967Y-96075792D03*
X235025967Y-94805792D03*
X235025967Y-93535792D03*
X235025967Y-92265792D03*
X235025967Y-90995792D03*
%TD*%
D24*
%TO.C,SW3*%
X232150003Y-102800000D03*
X241150001Y-102800000D03*
X232150003Y-107300002D03*
X241150001Y-107300002D03*
%TD*%
D58*
%TO.C,C32*%
X238278332Y-68121359D03*
X235328332Y-68121359D03*
%TD*%
D36*
%TO.C,C28*%
X221307750Y-70134327D03*
X221307750Y-71684327D03*
%TD*%
D18*
%TO.C,Rbias1*%
X233299223Y-68616359D03*
X233299223Y-66966359D03*
%TD*%
D33*
%TO.C,C6*%
X215118603Y-60771437D03*
X215118603Y-59221437D03*
%TD*%
D59*
%TO.C,R5*%
X208183526Y-75556788D03*
X206533526Y-75556788D03*
%TD*%
D60*
%TO.C,J4*%
X234750000Y-140550000D03*
X236750000Y-148450000D03*
X234750000Y-146050000D03*
%TD*%
D36*
%TO.C,C3*%
X207768991Y-93908839D03*
X207768991Y-95458839D03*
%TD*%
D17*
%TO.C,C29*%
X227087789Y-65033644D03*
X225537789Y-65033644D03*
%TD*%
D61*
%TO.C,C33*%
X241517479Y-78644503D03*
X244467479Y-78644503D03*
%TD*%
D35*
%TO.C,C30*%
X225537789Y-67761866D03*
X227087789Y-67761866D03*
%TD*%
D24*
%TO.C,SW2*%
X221000003Y-102749998D03*
X230000001Y-102749998D03*
X221000003Y-107250000D03*
X230000001Y-107250000D03*
%TD*%
D33*
%TO.C,C43*%
X240262014Y-71294581D03*
X240262014Y-69744581D03*
%TD*%
D32*
%TO.C,U10*%
X202550000Y-144400000D03*
X202550000Y-147700000D03*
X207450000Y-147700000D03*
X207450000Y-144400000D03*
%TD*%
D33*
%TO.C,C47*%
X225175967Y-61161183D03*
X225175967Y-59611183D03*
%TD*%
D62*
%TO.C,U4*%
X220319998Y-83430441D03*
D63*
X218619998Y-83430441D03*
X218619998Y-85430441D03*
X220519998Y-85430441D03*
%TD*%
D36*
%TO.C,C45*%
X233299223Y-57662452D03*
X233299223Y-59212452D03*
%TD*%
D64*
%TO.C,S1*%
X205326665Y-119016573D03*
X205326665Y-116016573D03*
D65*
X203576665Y-119766573D03*
X203576665Y-116766573D03*
X203576665Y-115266573D03*
D66*
X204226665Y-121166573D03*
X206426665Y-121166573D03*
X204226665Y-113866573D03*
X206426665Y-113866573D03*
%TD*%
D35*
%TO.C,C23*%
X221669572Y-60746437D03*
X223219572Y-60746437D03*
%TD*%
D24*
%TO.C,SW6*%
X232100001Y-109750000D03*
X241099999Y-109750000D03*
X232100001Y-114250002D03*
X241099999Y-114250002D03*
%TD*%
D33*
%TO.C,C21*%
X212797673Y-62720167D03*
X212797673Y-61170167D03*
%TD*%
D36*
%TO.C,C22*%
X220920929Y-86893409D03*
X220920929Y-88443409D03*
%TD*%
%TO.C,C11*%
X237554262Y-57662452D03*
X237554262Y-59212452D03*
%TD*%
D50*
%TO.C,R7*%
X205759882Y-111413429D03*
X207409882Y-111413429D03*
%TD*%
D25*
%TO.C,R9*%
X219381064Y-79468660D03*
X219381064Y-81118660D03*
%TD*%
D24*
%TO.C,SW1*%
X209850002Y-102750000D03*
X218850000Y-102750000D03*
X209850002Y-107250002D03*
X218850000Y-107250002D03*
%TD*%
D36*
%TO.C,C40*%
X245290696Y-116514113D03*
X245290696Y-118064113D03*
%TD*%
D24*
%TO.C,SW7*%
X209900002Y-116799998D03*
X218900000Y-116799998D03*
X209900002Y-121300000D03*
X218900000Y-121300000D03*
%TD*%
D67*
%TO.C,C26*%
X219406820Y-60651437D03*
X219406820Y-57701437D03*
%TD*%
%LPD*%
M02*
