%TF.GenerationSoftware,KiCad,Pcbnew,10.0.1*%
%TF.CreationDate,2026-09-10T11:04:05+02:00*%
%TF.ProjectId,USBGA,55534247-412e-46b6-9963-61645f706362,rev?*%
%TF.SameCoordinates,Original*%
%TF.FileFunction,Legend,Top*%
%TF.FilePolarity,Positive*%
%FSLAX46Y46*%
G04 Gerber Fmt 4.6, Leading zero omitted, Abs format (unit mm)*
G04 Created by KiCad (PCBNEW 10.0.1) date 2026-09-10 11:04:05*
%MOMM*%
%LPD*%
G01*
G04 APERTURE LIST*
%ADD10C,0.150000*%
%ADD11C,0.250000*%
%ADD12C,0.060000*%
G04 APERTURE END LIST*
D10*
X225099819Y-134303094D02*
X225909342Y-134303094D01*
X225909342Y-134303094D02*
X226004580Y-134255475D01*
X226004580Y-134255475D02*
X226052200Y-134207856D01*
X226052200Y-134207856D02*
X226099819Y-134112618D01*
X226099819Y-134112618D02*
X226099819Y-133922142D01*
X226099819Y-133922142D02*
X226052200Y-133826904D01*
X226052200Y-133826904D02*
X226004580Y-133779285D01*
X226004580Y-133779285D02*
X225909342Y-133731666D01*
X225909342Y-133731666D02*
X225099819Y-133731666D01*
X226052200Y-133303094D02*
X226099819Y-133160237D01*
X226099819Y-133160237D02*
X226099819Y-132922142D01*
X226099819Y-132922142D02*
X226052200Y-132826904D01*
X226052200Y-132826904D02*
X226004580Y-132779285D01*
X226004580Y-132779285D02*
X225909342Y-132731666D01*
X225909342Y-132731666D02*
X225814104Y-132731666D01*
X225814104Y-132731666D02*
X225718866Y-132779285D01*
X225718866Y-132779285D02*
X225671247Y-132826904D01*
X225671247Y-132826904D02*
X225623628Y-132922142D01*
X225623628Y-132922142D02*
X225576009Y-133112618D01*
X225576009Y-133112618D02*
X225528390Y-133207856D01*
X225528390Y-133207856D02*
X225480771Y-133255475D01*
X225480771Y-133255475D02*
X225385533Y-133303094D01*
X225385533Y-133303094D02*
X225290295Y-133303094D01*
X225290295Y-133303094D02*
X225195057Y-133255475D01*
X225195057Y-133255475D02*
X225147438Y-133207856D01*
X225147438Y-133207856D02*
X225099819Y-133112618D01*
X225099819Y-133112618D02*
X225099819Y-132874523D01*
X225099819Y-132874523D02*
X225147438Y-132731666D01*
X225576009Y-131969761D02*
X225623628Y-131826904D01*
X225623628Y-131826904D02*
X225671247Y-131779285D01*
X225671247Y-131779285D02*
X225766485Y-131731666D01*
X225766485Y-131731666D02*
X225909342Y-131731666D01*
X225909342Y-131731666D02*
X226004580Y-131779285D01*
X226004580Y-131779285D02*
X226052200Y-131826904D01*
X226052200Y-131826904D02*
X226099819Y-131922142D01*
X226099819Y-131922142D02*
X226099819Y-132303094D01*
X226099819Y-132303094D02*
X225099819Y-132303094D01*
X225099819Y-132303094D02*
X225099819Y-131969761D01*
X225099819Y-131969761D02*
X225147438Y-131874523D01*
X225147438Y-131874523D02*
X225195057Y-131826904D01*
X225195057Y-131826904D02*
X225290295Y-131779285D01*
X225290295Y-131779285D02*
X225385533Y-131779285D01*
X225385533Y-131779285D02*
X225480771Y-131826904D01*
X225480771Y-131826904D02*
X225528390Y-131874523D01*
X225528390Y-131874523D02*
X225576009Y-131969761D01*
X225576009Y-131969761D02*
X225576009Y-132303094D01*
X226099819Y-130779285D02*
X226099819Y-131350713D01*
X226099819Y-131064999D02*
X225099819Y-131064999D01*
X225099819Y-131064999D02*
X225242676Y-131160237D01*
X225242676Y-131160237D02*
X225337914Y-131255475D01*
X225337914Y-131255475D02*
X225385533Y-131350713D01*
X233584819Y-133009047D02*
X232584819Y-133009047D01*
X232584819Y-133009047D02*
X232584819Y-132770952D01*
X232584819Y-132770952D02*
X232632438Y-132628095D01*
X232632438Y-132628095D02*
X232727676Y-132532857D01*
X232727676Y-132532857D02*
X232822914Y-132485238D01*
X232822914Y-132485238D02*
X233013390Y-132437619D01*
X233013390Y-132437619D02*
X233156247Y-132437619D01*
X233156247Y-132437619D02*
X233346723Y-132485238D01*
X233346723Y-132485238D02*
X233441961Y-132532857D01*
X233441961Y-132532857D02*
X233537200Y-132628095D01*
X233537200Y-132628095D02*
X233584819Y-132770952D01*
X233584819Y-132770952D02*
X233584819Y-133009047D01*
X233537200Y-132056666D02*
X233584819Y-131913809D01*
X233584819Y-131913809D02*
X233584819Y-131675714D01*
X233584819Y-131675714D02*
X233537200Y-131580476D01*
X233537200Y-131580476D02*
X233489580Y-131532857D01*
X233489580Y-131532857D02*
X233394342Y-131485238D01*
X233394342Y-131485238D02*
X233299104Y-131485238D01*
X233299104Y-131485238D02*
X233203866Y-131532857D01*
X233203866Y-131532857D02*
X233156247Y-131580476D01*
X233156247Y-131580476D02*
X233108628Y-131675714D01*
X233108628Y-131675714D02*
X233061009Y-131866190D01*
X233061009Y-131866190D02*
X233013390Y-131961428D01*
X233013390Y-131961428D02*
X232965771Y-132009047D01*
X232965771Y-132009047D02*
X232870533Y-132056666D01*
X232870533Y-132056666D02*
X232775295Y-132056666D01*
X232775295Y-132056666D02*
X232680057Y-132009047D01*
X232680057Y-132009047D02*
X232632438Y-131961428D01*
X232632438Y-131961428D02*
X232584819Y-131866190D01*
X232584819Y-131866190D02*
X232584819Y-131628095D01*
X232584819Y-131628095D02*
X232632438Y-131485238D01*
X232918152Y-130628095D02*
X233584819Y-130628095D01*
X232918152Y-131056666D02*
X233441961Y-131056666D01*
X233441961Y-131056666D02*
X233537200Y-131009047D01*
X233537200Y-131009047D02*
X233584819Y-130913809D01*
X233584819Y-130913809D02*
X233584819Y-130770952D01*
X233584819Y-130770952D02*
X233537200Y-130675714D01*
X233537200Y-130675714D02*
X233489580Y-130628095D01*
X233584819Y-130151904D02*
X232584819Y-130151904D01*
X232965771Y-130151904D02*
X232918152Y-130056666D01*
X232918152Y-130056666D02*
X232918152Y-129866190D01*
X232918152Y-129866190D02*
X232965771Y-129770952D01*
X232965771Y-129770952D02*
X233013390Y-129723333D01*
X233013390Y-129723333D02*
X233108628Y-129675714D01*
X233108628Y-129675714D02*
X233394342Y-129675714D01*
X233394342Y-129675714D02*
X233489580Y-129723333D01*
X233489580Y-129723333D02*
X233537200Y-129770952D01*
X233537200Y-129770952D02*
X233584819Y-129866190D01*
X233584819Y-129866190D02*
X233584819Y-130056666D01*
X233584819Y-130056666D02*
X233537200Y-130151904D01*
X233584819Y-128723333D02*
X233584819Y-129294761D01*
X233584819Y-129009047D02*
X232584819Y-129009047D01*
X232584819Y-129009047D02*
X232727676Y-129104285D01*
X232727676Y-129104285D02*
X232822914Y-129199523D01*
X232822914Y-129199523D02*
X232870533Y-129294761D01*
%TO.C,USB1*%
D11*
X222745000Y-125395000D02*
X222745000Y-139795000D01*
X214495000Y-131785000D02*
X214705000Y-132565000D01*
X214705000Y-132565000D02*
X214875000Y-133265000D01*
X214875000Y-133265000D02*
X211945000Y-133265000D01*
X211945000Y-133265000D02*
X212285000Y-131815000D01*
X212285000Y-131815000D02*
X212025000Y-131815000D01*
X215905000Y-138965000D02*
X210165000Y-138615000D01*
X210165000Y-138615000D02*
X210175000Y-135735000D01*
X210175000Y-135735000D02*
X215905000Y-135235000D01*
X215905000Y-135235000D02*
X215905000Y-135745000D01*
X215905000Y-135745000D02*
X211365000Y-136255000D01*
X211365000Y-136255000D02*
X210685000Y-136335000D01*
X210685000Y-136335000D02*
X210695000Y-138085000D01*
X210695000Y-138085000D02*
X215475000Y-138555000D01*
X215475000Y-138555000D02*
X215905000Y-138585000D01*
X215905000Y-138585000D02*
X215905000Y-138965000D01*
X215855000Y-129865000D02*
X210105000Y-129515000D01*
X210105000Y-129515000D02*
X210115000Y-126625000D01*
X210115000Y-126625000D02*
X215855000Y-126135000D01*
X215855000Y-126135000D02*
X215845000Y-126645000D01*
X215845000Y-126645000D02*
X211305000Y-127155000D01*
X211305000Y-127155000D02*
X210635000Y-127225000D01*
X210635000Y-127225000D02*
X210645000Y-128975000D01*
X210645000Y-128975000D02*
X215425000Y-129455000D01*
X215425000Y-129455000D02*
X215855000Y-129485000D01*
X215855000Y-129485000D02*
X215855000Y-129865000D01*
X213195000Y-136045000D02*
X213195000Y-138305000D01*
X211985000Y-136185000D02*
X211985000Y-138215000D01*
X213175000Y-126945000D02*
X213175000Y-129205000D01*
X211965000Y-127085000D02*
X211965000Y-129115000D01*
X208645000Y-125385000D02*
X208645000Y-139785000D01*
X214485000Y-131765000D02*
X216365000Y-131765000D01*
X216365000Y-131765000D02*
X216035000Y-132565000D01*
X216035000Y-132565000D02*
X218485000Y-132565000D01*
X212005000Y-131815000D02*
X210285000Y-131815000D01*
X210285000Y-131815000D02*
X210645000Y-132555000D01*
X210645000Y-132555000D02*
X208645000Y-132555000D01*
X218435000Y-129895000D02*
X217755000Y-129895000D01*
X217755000Y-129895000D02*
X217755000Y-130825000D01*
X217755000Y-130825000D02*
X218425000Y-130825000D01*
X218415000Y-134525000D02*
X217735000Y-134525000D01*
X217735000Y-134525000D02*
X217735000Y-135455000D01*
X217735000Y-135455000D02*
X218405000Y-135455000D01*
X218495000Y-127835000D02*
X218495000Y-137295000D01*
X222755000Y-125385000D02*
X220625000Y-125385000D01*
X217225000Y-125385000D02*
X208645000Y-125385000D01*
X208645000Y-139785000D02*
X217235000Y-139785000D01*
X220615000Y-139785000D02*
X222745000Y-139785000D01*
D12*
X222575000Y-139715000D02*
G75*
G02*
X222515000Y-139715000I-30000J0D01*
G01*
X222515000Y-139715000D02*
G75*
G02*
X222575000Y-139715000I30000J0D01*
G01*
%TO.C,DSub1*%
D11*
X234670000Y-146390000D02*
X234670000Y-115390000D01*
X250670000Y-115390000D02*
X234670000Y-115390000D01*
X250670000Y-115680000D02*
X255270000Y-115680000D01*
X250670000Y-121070000D02*
X255270000Y-121070000D01*
X250670000Y-122140000D02*
X256370000Y-122790000D01*
X250670000Y-139640000D02*
X256370000Y-138990000D01*
X250670000Y-140690000D02*
X255270000Y-140690000D01*
X250670000Y-146080000D02*
X255270000Y-146080000D01*
X250670000Y-146390000D02*
X234670000Y-146390000D01*
X250670000Y-146390000D02*
X250670000Y-115390000D01*
X255270000Y-121070000D02*
X255270000Y-115670000D01*
X255270000Y-146080000D02*
X255270000Y-140680000D01*
X256370000Y-138990000D02*
X256370000Y-122790000D01*
D12*
X234700000Y-115390000D02*
G75*
G02*
X234640000Y-115390000I-30000J0D01*
G01*
X234640000Y-115390000D02*
G75*
G02*
X234700000Y-115390000I30000J0D01*
G01*
%TD*%
%LPC*%
G36*
X240021065Y-141625077D02*
G01*
X240248430Y-141685999D01*
X240465898Y-141776078D01*
X240669749Y-141893770D01*
X240856493Y-142037064D01*
X241022936Y-142203507D01*
X241166230Y-142390251D01*
X241283922Y-142594102D01*
X241374001Y-142811570D01*
X241434923Y-143038935D01*
X241465647Y-143272307D01*
X241465647Y-143507693D01*
X241434923Y-143741065D01*
X241374001Y-143968430D01*
X241283922Y-144185898D01*
X241166230Y-144389749D01*
X241022936Y-144576493D01*
X240856493Y-144742936D01*
X240669749Y-144886230D01*
X240465898Y-145003922D01*
X240248430Y-145094001D01*
X240021065Y-145154923D01*
X239787693Y-145185647D01*
X239552307Y-145185647D01*
X239318935Y-145154923D01*
X239091570Y-145094001D01*
X238874102Y-145003922D01*
X238670251Y-144886230D01*
X238483507Y-144742936D01*
X238317064Y-144576493D01*
X238173770Y-144389749D01*
X238056078Y-144185898D01*
X237965999Y-143968430D01*
X237905077Y-143741065D01*
X237874353Y-143507693D01*
X237874353Y-143272307D01*
X237905077Y-143038935D01*
X237965999Y-142811570D01*
X238056078Y-142594102D01*
X238173770Y-142390251D01*
X238317064Y-142203507D01*
X238483507Y-142037064D01*
X238670251Y-141893770D01*
X238874102Y-141776078D01*
X239091570Y-141685999D01*
X239318935Y-141625077D01*
X239552307Y-141594353D01*
X239787693Y-141594353D01*
X240021065Y-141625077D01*
G37*
G36*
X219748513Y-138328611D02*
G01*
X219892714Y-138357295D01*
X220028548Y-138413559D01*
X220150795Y-138495242D01*
X220254758Y-138599205D01*
X220336441Y-138721452D01*
X220392705Y-138857286D01*
X220421389Y-139001487D01*
X220421389Y-139148513D01*
X220392705Y-139292714D01*
X220336441Y-139428548D01*
X220254758Y-139550795D01*
X220150795Y-139654758D01*
X220028548Y-139736441D01*
X219892714Y-139792705D01*
X219748513Y-139821389D01*
X219675000Y-139825000D01*
X219673768Y-139825000D01*
X218176232Y-139825000D01*
X218175000Y-139825000D01*
X218101487Y-139821389D01*
X217957286Y-139792705D01*
X217821452Y-139736441D01*
X217699205Y-139654758D01*
X217595242Y-139550795D01*
X217513559Y-139428548D01*
X217457295Y-139292714D01*
X217428611Y-139148513D01*
X217428611Y-139001487D01*
X217457295Y-138857286D01*
X217513559Y-138721452D01*
X217595242Y-138599205D01*
X217699205Y-138495242D01*
X217821452Y-138413559D01*
X217957286Y-138357295D01*
X218101487Y-138328611D01*
X218175000Y-138325000D01*
X219675000Y-138325000D01*
X219748513Y-138328611D01*
G37*
G36*
X221891742Y-135251601D02*
G01*
X222045687Y-135315367D01*
X222184234Y-135407941D01*
X222302059Y-135525766D01*
X222394633Y-135664313D01*
X222458399Y-135818258D01*
X222490907Y-135981685D01*
X222490907Y-136148315D01*
X222458399Y-136311742D01*
X222394633Y-136465687D01*
X222302059Y-136604234D01*
X222184234Y-136722059D01*
X222045687Y-136814633D01*
X221891742Y-136878399D01*
X221728315Y-136910907D01*
X221561685Y-136910907D01*
X221398258Y-136878399D01*
X221244313Y-136814633D01*
X221105766Y-136722059D01*
X220987941Y-136604234D01*
X220895367Y-136465687D01*
X220831601Y-136311742D01*
X220799093Y-136148315D01*
X220799093Y-135981685D01*
X220831601Y-135818258D01*
X220895367Y-135664313D01*
X220987941Y-135525766D01*
X221105766Y-135407941D01*
X221244313Y-135315367D01*
X221398258Y-135251601D01*
X221561685Y-135219093D01*
X221728315Y-135219093D01*
X221891742Y-135251601D01*
G37*
G36*
X237361212Y-135187797D02*
G01*
X237505468Y-135247550D01*
X237635294Y-135334297D01*
X237745703Y-135444706D01*
X237832450Y-135574532D01*
X237892203Y-135718788D01*
X237922665Y-135871929D01*
X237922665Y-136028071D01*
X237892203Y-136181212D01*
X237832450Y-136325468D01*
X237745703Y-136455294D01*
X237635294Y-136565703D01*
X237505468Y-136652450D01*
X237361212Y-136712203D01*
X237208071Y-136742665D01*
X237051929Y-136742665D01*
X236898788Y-136712203D01*
X236754532Y-136652450D01*
X236624706Y-136565703D01*
X236514297Y-136455294D01*
X236427550Y-136325468D01*
X236367797Y-136181212D01*
X236337335Y-136028071D01*
X236337335Y-135871929D01*
X236367797Y-135718788D01*
X236427550Y-135574532D01*
X236514297Y-135444706D01*
X236624706Y-135334297D01*
X236754532Y-135247550D01*
X236898788Y-135187797D01*
X237051929Y-135157335D01*
X237208071Y-135157335D01*
X237361212Y-135187797D01*
G37*
G36*
X242441212Y-135187797D02*
G01*
X242585468Y-135247550D01*
X242715294Y-135334297D01*
X242825703Y-135444706D01*
X242912450Y-135574532D01*
X242972203Y-135718788D01*
X243002665Y-135871929D01*
X243002665Y-136028071D01*
X242972203Y-136181212D01*
X242912450Y-136325468D01*
X242825703Y-136455294D01*
X242715294Y-136565703D01*
X242585468Y-136652450D01*
X242441212Y-136712203D01*
X242288071Y-136742665D01*
X242131929Y-136742665D01*
X241978788Y-136712203D01*
X241834532Y-136652450D01*
X241704706Y-136565703D01*
X241594297Y-136455294D01*
X241507550Y-136325468D01*
X241447797Y-136181212D01*
X241417335Y-136028071D01*
X241417335Y-135871929D01*
X241447797Y-135718788D01*
X241507550Y-135574532D01*
X241594297Y-135444706D01*
X241704706Y-135334297D01*
X241834532Y-135247550D01*
X241978788Y-135187797D01*
X242131929Y-135157335D01*
X242288071Y-135157335D01*
X242441212Y-135187797D01*
G37*
G36*
X239901212Y-134067797D02*
G01*
X240045468Y-134127550D01*
X240175294Y-134214297D01*
X240285703Y-134324706D01*
X240372450Y-134454532D01*
X240432203Y-134598788D01*
X240462665Y-134751929D01*
X240462665Y-134908071D01*
X240432203Y-135061212D01*
X240372450Y-135205468D01*
X240285703Y-135335294D01*
X240175294Y-135445703D01*
X240045468Y-135532450D01*
X239901212Y-135592203D01*
X239748071Y-135622665D01*
X239591929Y-135622665D01*
X239438788Y-135592203D01*
X239294532Y-135532450D01*
X239164706Y-135445703D01*
X239054297Y-135335294D01*
X238967550Y-135205468D01*
X238907797Y-135061212D01*
X238877335Y-134908071D01*
X238877335Y-134751929D01*
X238907797Y-134598788D01*
X238967550Y-134454532D01*
X239054297Y-134324706D01*
X239164706Y-134214297D01*
X239294532Y-134127550D01*
X239438788Y-134067797D01*
X239591929Y-134037335D01*
X239748071Y-134037335D01*
X239901212Y-134067797D01*
G37*
G36*
X237361212Y-132937797D02*
G01*
X237505468Y-132997550D01*
X237635294Y-133084297D01*
X237745703Y-133194706D01*
X237832450Y-133324532D01*
X237892203Y-133468788D01*
X237922665Y-133621929D01*
X237922665Y-133778071D01*
X237892203Y-133931212D01*
X237832450Y-134075468D01*
X237745703Y-134205294D01*
X237635294Y-134315703D01*
X237505468Y-134402450D01*
X237361212Y-134462203D01*
X237208071Y-134492665D01*
X237051929Y-134492665D01*
X236898788Y-134462203D01*
X236754532Y-134402450D01*
X236624706Y-134315703D01*
X236514297Y-134205294D01*
X236427550Y-134075468D01*
X236367797Y-133931212D01*
X236337335Y-133778071D01*
X236337335Y-133621929D01*
X236367797Y-133468788D01*
X236427550Y-133324532D01*
X236514297Y-133194706D01*
X236624706Y-133084297D01*
X236754532Y-132997550D01*
X236898788Y-132937797D01*
X237051929Y-132907335D01*
X237208071Y-132907335D01*
X237361212Y-132937797D01*
G37*
G36*
X242441212Y-132937797D02*
G01*
X242585468Y-132997550D01*
X242715294Y-133084297D01*
X242825703Y-133194706D01*
X242912450Y-133324532D01*
X242972203Y-133468788D01*
X243002665Y-133621929D01*
X243002665Y-133778071D01*
X242972203Y-133931212D01*
X242912450Y-134075468D01*
X242825703Y-134205294D01*
X242715294Y-134315703D01*
X242585468Y-134402450D01*
X242441212Y-134462203D01*
X242288071Y-134492665D01*
X242131929Y-134492665D01*
X241978788Y-134462203D01*
X241834532Y-134402450D01*
X241704706Y-134315703D01*
X241594297Y-134205294D01*
X241507550Y-134075468D01*
X241447797Y-133931212D01*
X241417335Y-133778071D01*
X241417335Y-133621929D01*
X241447797Y-133468788D01*
X241507550Y-133324532D01*
X241594297Y-133194706D01*
X241704706Y-133084297D01*
X241834532Y-132997550D01*
X241978788Y-132937797D01*
X242131929Y-132907335D01*
X242288071Y-132907335D01*
X242441212Y-132937797D01*
G37*
G36*
X221891742Y-132751601D02*
G01*
X222045687Y-132815367D01*
X222184234Y-132907941D01*
X222302059Y-133025766D01*
X222394633Y-133164313D01*
X222458399Y-133318258D01*
X222490907Y-133481685D01*
X222490907Y-133648315D01*
X222458399Y-133811742D01*
X222394633Y-133965687D01*
X222302059Y-134104234D01*
X222184234Y-134222059D01*
X222045687Y-134314633D01*
X221891742Y-134378399D01*
X221728315Y-134410907D01*
X221561685Y-134410907D01*
X221398258Y-134378399D01*
X221244313Y-134314633D01*
X221105766Y-134222059D01*
X220987941Y-134104234D01*
X220895367Y-133965687D01*
X220831601Y-133811742D01*
X220799093Y-133648315D01*
X220799093Y-133481685D01*
X220831601Y-133318258D01*
X220895367Y-133164313D01*
X220987941Y-133025766D01*
X221105766Y-132907941D01*
X221244313Y-132815367D01*
X221398258Y-132751601D01*
X221561685Y-132719093D01*
X221728315Y-132719093D01*
X221891742Y-132751601D01*
G37*
G36*
X239901212Y-131817797D02*
G01*
X240045468Y-131877550D01*
X240175294Y-131964297D01*
X240285703Y-132074706D01*
X240372450Y-132204532D01*
X240432203Y-132348788D01*
X240462665Y-132501929D01*
X240462665Y-132658071D01*
X240432203Y-132811212D01*
X240372450Y-132955468D01*
X240285703Y-133085294D01*
X240175294Y-133195703D01*
X240045468Y-133282450D01*
X239901212Y-133342203D01*
X239748071Y-133372665D01*
X239591929Y-133372665D01*
X239438788Y-133342203D01*
X239294532Y-133282450D01*
X239164706Y-133195703D01*
X239054297Y-133085294D01*
X238967550Y-132955468D01*
X238907797Y-132811212D01*
X238877335Y-132658071D01*
X238877335Y-132501929D01*
X238907797Y-132348788D01*
X238967550Y-132204532D01*
X239054297Y-132074706D01*
X239164706Y-131964297D01*
X239294532Y-131877550D01*
X239438788Y-131817797D01*
X239591929Y-131787335D01*
X239748071Y-131787335D01*
X239901212Y-131817797D01*
G37*
G36*
X221891742Y-130751601D02*
G01*
X222045687Y-130815367D01*
X222184234Y-130907941D01*
X222302059Y-131025766D01*
X222394633Y-131164313D01*
X222458399Y-131318258D01*
X222490907Y-131481685D01*
X222490907Y-131648315D01*
X222458399Y-131811742D01*
X222394633Y-131965687D01*
X222302059Y-132104234D01*
X222184234Y-132222059D01*
X222045687Y-132314633D01*
X221891742Y-132378399D01*
X221728315Y-132410907D01*
X221561685Y-132410907D01*
X221398258Y-132378399D01*
X221244313Y-132314633D01*
X221105766Y-132222059D01*
X220987941Y-132104234D01*
X220895367Y-131965687D01*
X220831601Y-131811742D01*
X220799093Y-131648315D01*
X220799093Y-131481685D01*
X220831601Y-131318258D01*
X220895367Y-131164313D01*
X220987941Y-131025766D01*
X221105766Y-130907941D01*
X221244313Y-130815367D01*
X221398258Y-130751601D01*
X221561685Y-130719093D01*
X221728315Y-130719093D01*
X221891742Y-130751601D01*
G37*
G36*
X237361212Y-130687797D02*
G01*
X237505468Y-130747550D01*
X237635294Y-130834297D01*
X237745703Y-130944706D01*
X237832450Y-131074532D01*
X237892203Y-131218788D01*
X237922665Y-131371929D01*
X237922665Y-131528071D01*
X237892203Y-131681212D01*
X237832450Y-131825468D01*
X237745703Y-131955294D01*
X237635294Y-132065703D01*
X237505468Y-132152450D01*
X237361212Y-132212203D01*
X237208071Y-132242665D01*
X237051929Y-132242665D01*
X236898788Y-132212203D01*
X236754532Y-132152450D01*
X236624706Y-132065703D01*
X236514297Y-131955294D01*
X236427550Y-131825468D01*
X236367797Y-131681212D01*
X236337335Y-131528071D01*
X236337335Y-131371929D01*
X236367797Y-131218788D01*
X236427550Y-131074532D01*
X236514297Y-130944706D01*
X236624706Y-130834297D01*
X236754532Y-130747550D01*
X236898788Y-130687797D01*
X237051929Y-130657335D01*
X237208071Y-130657335D01*
X237361212Y-130687797D01*
G37*
G36*
X242441212Y-130687797D02*
G01*
X242585468Y-130747550D01*
X242715294Y-130834297D01*
X242825703Y-130944706D01*
X242912450Y-131074532D01*
X242972203Y-131218788D01*
X243002665Y-131371929D01*
X243002665Y-131528071D01*
X242972203Y-131681212D01*
X242912450Y-131825468D01*
X242825703Y-131955294D01*
X242715294Y-132065703D01*
X242585468Y-132152450D01*
X242441212Y-132212203D01*
X242288071Y-132242665D01*
X242131929Y-132242665D01*
X241978788Y-132212203D01*
X241834532Y-132152450D01*
X241704706Y-132065703D01*
X241594297Y-131955294D01*
X241507550Y-131825468D01*
X241447797Y-131681212D01*
X241417335Y-131528071D01*
X241417335Y-131371929D01*
X241447797Y-131218788D01*
X241507550Y-131074532D01*
X241594297Y-130944706D01*
X241704706Y-130834297D01*
X241834532Y-130747550D01*
X241978788Y-130687797D01*
X242131929Y-130657335D01*
X242288071Y-130657335D01*
X242441212Y-130687797D01*
G37*
G36*
X239901212Y-129567797D02*
G01*
X240045468Y-129627550D01*
X240175294Y-129714297D01*
X240285703Y-129824706D01*
X240372450Y-129954532D01*
X240432203Y-130098788D01*
X240462665Y-130251929D01*
X240462665Y-130408071D01*
X240432203Y-130561212D01*
X240372450Y-130705468D01*
X240285703Y-130835294D01*
X240175294Y-130945703D01*
X240045468Y-131032450D01*
X239901212Y-131092203D01*
X239748071Y-131122665D01*
X239591929Y-131122665D01*
X239438788Y-131092203D01*
X239294532Y-131032450D01*
X239164706Y-130945703D01*
X239054297Y-130835294D01*
X238967550Y-130705468D01*
X238907797Y-130561212D01*
X238877335Y-130408071D01*
X238877335Y-130251929D01*
X238907797Y-130098788D01*
X238967550Y-129954532D01*
X239054297Y-129824706D01*
X239164706Y-129714297D01*
X239294532Y-129627550D01*
X239438788Y-129567797D01*
X239591929Y-129537335D01*
X239748071Y-129537335D01*
X239901212Y-129567797D01*
G37*
G36*
X237361212Y-128437797D02*
G01*
X237505468Y-128497550D01*
X237635294Y-128584297D01*
X237745703Y-128694706D01*
X237832450Y-128824532D01*
X237892203Y-128968788D01*
X237922665Y-129121929D01*
X237922665Y-129278071D01*
X237892203Y-129431212D01*
X237832450Y-129575468D01*
X237745703Y-129705294D01*
X237635294Y-129815703D01*
X237505468Y-129902450D01*
X237361212Y-129962203D01*
X237208071Y-129992665D01*
X237051929Y-129992665D01*
X236898788Y-129962203D01*
X236754532Y-129902450D01*
X236624706Y-129815703D01*
X236514297Y-129705294D01*
X236427550Y-129575468D01*
X236367797Y-129431212D01*
X236337335Y-129278071D01*
X236337335Y-129121929D01*
X236367797Y-128968788D01*
X236427550Y-128824532D01*
X236514297Y-128694706D01*
X236624706Y-128584297D01*
X236754532Y-128497550D01*
X236898788Y-128437797D01*
X237051929Y-128407335D01*
X237208071Y-128407335D01*
X237361212Y-128437797D01*
G37*
G36*
X242441212Y-128437797D02*
G01*
X242585468Y-128497550D01*
X242715294Y-128584297D01*
X242825703Y-128694706D01*
X242912450Y-128824532D01*
X242972203Y-128968788D01*
X243002665Y-129121929D01*
X243002665Y-129278071D01*
X242972203Y-129431212D01*
X242912450Y-129575468D01*
X242825703Y-129705294D01*
X242715294Y-129815703D01*
X242585468Y-129902450D01*
X242441212Y-129962203D01*
X242288071Y-129992665D01*
X242131929Y-129992665D01*
X241978788Y-129962203D01*
X241834532Y-129902450D01*
X241704706Y-129815703D01*
X241594297Y-129705294D01*
X241507550Y-129575468D01*
X241447797Y-129431212D01*
X241417335Y-129278071D01*
X241417335Y-129121929D01*
X241447797Y-128968788D01*
X241507550Y-128824532D01*
X241594297Y-128694706D01*
X241704706Y-128584297D01*
X241834532Y-128497550D01*
X241978788Y-128437797D01*
X242131929Y-128407335D01*
X242288071Y-128407335D01*
X242441212Y-128437797D01*
G37*
G36*
X221891742Y-128251601D02*
G01*
X222045687Y-128315367D01*
X222184234Y-128407941D01*
X222302059Y-128525766D01*
X222394633Y-128664313D01*
X222458399Y-128818258D01*
X222490907Y-128981685D01*
X222490907Y-129148315D01*
X222458399Y-129311742D01*
X222394633Y-129465687D01*
X222302059Y-129604234D01*
X222184234Y-129722059D01*
X222045687Y-129814633D01*
X221891742Y-129878399D01*
X221728315Y-129910907D01*
X221561685Y-129910907D01*
X221398258Y-129878399D01*
X221244313Y-129814633D01*
X221105766Y-129722059D01*
X220987941Y-129604234D01*
X220895367Y-129465687D01*
X220831601Y-129311742D01*
X220799093Y-129148315D01*
X220799093Y-128981685D01*
X220831601Y-128818258D01*
X220895367Y-128664313D01*
X220987941Y-128525766D01*
X221105766Y-128407941D01*
X221244313Y-128315367D01*
X221398258Y-128251601D01*
X221561685Y-128219093D01*
X221728315Y-128219093D01*
X221891742Y-128251601D01*
G37*
G36*
X239901212Y-127317797D02*
G01*
X240045468Y-127377550D01*
X240175294Y-127464297D01*
X240285703Y-127574706D01*
X240372450Y-127704532D01*
X240432203Y-127848788D01*
X240462665Y-128001929D01*
X240462665Y-128158071D01*
X240432203Y-128311212D01*
X240372450Y-128455468D01*
X240285703Y-128585294D01*
X240175294Y-128695703D01*
X240045468Y-128782450D01*
X239901212Y-128842203D01*
X239748071Y-128872665D01*
X239591929Y-128872665D01*
X239438788Y-128842203D01*
X239294532Y-128782450D01*
X239164706Y-128695703D01*
X239054297Y-128585294D01*
X238967550Y-128455468D01*
X238907797Y-128311212D01*
X238877335Y-128158071D01*
X238877335Y-128001929D01*
X238907797Y-127848788D01*
X238967550Y-127704532D01*
X239054297Y-127574706D01*
X239164706Y-127464297D01*
X239294532Y-127377550D01*
X239438788Y-127317797D01*
X239591929Y-127287335D01*
X239748071Y-127287335D01*
X239901212Y-127317797D01*
G37*
G36*
X237361212Y-126187797D02*
G01*
X237505468Y-126247550D01*
X237635294Y-126334297D01*
X237745703Y-126444706D01*
X237832450Y-126574532D01*
X237892203Y-126718788D01*
X237922665Y-126871929D01*
X237922665Y-127028071D01*
X237892203Y-127181212D01*
X237832450Y-127325468D01*
X237745703Y-127455294D01*
X237635294Y-127565703D01*
X237505468Y-127652450D01*
X237361212Y-127712203D01*
X237208071Y-127742665D01*
X237051929Y-127742665D01*
X236898788Y-127712203D01*
X236754532Y-127652450D01*
X236624706Y-127565703D01*
X236514297Y-127455294D01*
X236427550Y-127325468D01*
X236367797Y-127181212D01*
X236337335Y-127028071D01*
X236337335Y-126871929D01*
X236367797Y-126718788D01*
X236427550Y-126574532D01*
X236514297Y-126444706D01*
X236624706Y-126334297D01*
X236754532Y-126247550D01*
X236898788Y-126187797D01*
X237051929Y-126157335D01*
X237208071Y-126157335D01*
X237361212Y-126187797D01*
G37*
G36*
X242441212Y-126187797D02*
G01*
X242585468Y-126247550D01*
X242715294Y-126334297D01*
X242825703Y-126444706D01*
X242912450Y-126574532D01*
X242972203Y-126718788D01*
X243002665Y-126871929D01*
X243002665Y-127028071D01*
X242972203Y-127181212D01*
X242912450Y-127325468D01*
X242825703Y-127455294D01*
X242715294Y-127565703D01*
X242585468Y-127652450D01*
X242441212Y-127712203D01*
X242288071Y-127742665D01*
X242131929Y-127742665D01*
X241978788Y-127712203D01*
X241834532Y-127652450D01*
X241704706Y-127565703D01*
X241594297Y-127455294D01*
X241507550Y-127325468D01*
X241447797Y-127181212D01*
X241417335Y-127028071D01*
X241417335Y-126871929D01*
X241447797Y-126718788D01*
X241507550Y-126574532D01*
X241594297Y-126444706D01*
X241704706Y-126334297D01*
X241834532Y-126247550D01*
X241978788Y-126187797D01*
X242131929Y-126157335D01*
X242288071Y-126157335D01*
X242441212Y-126187797D01*
G37*
G36*
X219748513Y-125308611D02*
G01*
X219892714Y-125337295D01*
X220028548Y-125393559D01*
X220150795Y-125475242D01*
X220254758Y-125579205D01*
X220336441Y-125701452D01*
X220392705Y-125837286D01*
X220421389Y-125981487D01*
X220421389Y-126128513D01*
X220392705Y-126272714D01*
X220336441Y-126408548D01*
X220254758Y-126530795D01*
X220150795Y-126634758D01*
X220028548Y-126716441D01*
X219892714Y-126772705D01*
X219748513Y-126801389D01*
X219675000Y-126805000D01*
X219673768Y-126805000D01*
X218176232Y-126805000D01*
X218175000Y-126805000D01*
X218101487Y-126801389D01*
X217957286Y-126772705D01*
X217821452Y-126716441D01*
X217699205Y-126634758D01*
X217595242Y-126530795D01*
X217513559Y-126408548D01*
X217457295Y-126272714D01*
X217428611Y-126128513D01*
X217428611Y-125981487D01*
X217457295Y-125837286D01*
X217513559Y-125701452D01*
X217595242Y-125579205D01*
X217699205Y-125475242D01*
X217821452Y-125393559D01*
X217957286Y-125337295D01*
X218101487Y-125308611D01*
X218175000Y-125305000D01*
X219675000Y-125305000D01*
X219748513Y-125308611D01*
G37*
G36*
X239901212Y-125067797D02*
G01*
X240045468Y-125127550D01*
X240175294Y-125214297D01*
X240285703Y-125324706D01*
X240372450Y-125454532D01*
X240432203Y-125598788D01*
X240462665Y-125751929D01*
X240462665Y-125908071D01*
X240432203Y-126061212D01*
X240372450Y-126205468D01*
X240285703Y-126335294D01*
X240175294Y-126445703D01*
X240045468Y-126532450D01*
X239901212Y-126592203D01*
X239748071Y-126622665D01*
X239591929Y-126622665D01*
X239438788Y-126592203D01*
X239294532Y-126532450D01*
X239164706Y-126445703D01*
X239054297Y-126335294D01*
X238967550Y-126205468D01*
X238907797Y-126061212D01*
X238877335Y-125908071D01*
X238877335Y-125751929D01*
X238907797Y-125598788D01*
X238967550Y-125454532D01*
X239054297Y-125324706D01*
X239164706Y-125214297D01*
X239294532Y-125127550D01*
X239438788Y-125067797D01*
X239591929Y-125037335D01*
X239748071Y-125037335D01*
X239901212Y-125067797D01*
G37*
G36*
X240021065Y-116625077D02*
G01*
X240248430Y-116685999D01*
X240465898Y-116776078D01*
X240669749Y-116893770D01*
X240856493Y-117037064D01*
X241022936Y-117203507D01*
X241166230Y-117390251D01*
X241283922Y-117594102D01*
X241374001Y-117811570D01*
X241434923Y-118038935D01*
X241465647Y-118272307D01*
X241465647Y-118507693D01*
X241434923Y-118741065D01*
X241374001Y-118968430D01*
X241283922Y-119185898D01*
X241166230Y-119389749D01*
X241022936Y-119576493D01*
X240856493Y-119742936D01*
X240669749Y-119886230D01*
X240465898Y-120003922D01*
X240248430Y-120094001D01*
X240021065Y-120154923D01*
X239787693Y-120185647D01*
X239552307Y-120185647D01*
X239318935Y-120154923D01*
X239091570Y-120094001D01*
X238874102Y-120003922D01*
X238670251Y-119886230D01*
X238483507Y-119742936D01*
X238317064Y-119576493D01*
X238173770Y-119389749D01*
X238056078Y-119185898D01*
X237965999Y-118968430D01*
X237905077Y-118741065D01*
X237874353Y-118507693D01*
X237874353Y-118272307D01*
X237905077Y-118038935D01*
X237965999Y-117811570D01*
X238056078Y-117594102D01*
X238173770Y-117390251D01*
X238317064Y-117203507D01*
X238483507Y-117037064D01*
X238670251Y-116893770D01*
X238874102Y-116776078D01*
X239091570Y-116685999D01*
X239318935Y-116625077D01*
X239552307Y-116594353D01*
X239787693Y-116594353D01*
X240021065Y-116625077D01*
G37*
%LPD*%
M02*
