M48
; DRILL file KiCad 10.0.1 date 2026-09-10T11:04:05
; FORMAT={-:-/ absolute / inch / decimal}
; #@! TF.CreationDate,2026-09-10T11:04:05+02:00
; #@! TF.GenerationSoftware,Kicad,Pcbnew,10.0.1
; #@! TF.FileFunction,Plated,1,2,PTH
FMAT,2
INCH
; #@! TA.AperFunction,Plated,PTH,ViaDrill
T1C0.0120
; #@! TA.AperFunction,Plated,PTH,ComponentDrill
T2C0.0315
; #@! TA.AperFunction,Plated,PTH,ComponentDrill
T3C0.0433
; #@! TA.AperFunction,Plated,PTH,ComponentDrill
T4C0.0470
; #@! TA.AperFunction,Plated,PTH,ComponentDrill
T5C0.1260
%
G90
G05
T1
X8.5651Y-4.5872
X8.5651Y-5.0583
X8.5651Y-5.3491
X8.5651Y-5.5189
X8.6043Y-4.8941
X8.6418Y-5.2316
X8.6731Y-5.7227
X8.6937Y-4.5872
X8.6937Y-4.7704
X8.7152Y-4.9379
X8.7239Y-5.4177
X8.8017Y-5.7227
X8.8222Y-4.5872
X8.8248Y-5.2084
X8.8291Y-5.5573
X8.8476Y-5.4288
X8.8534Y-4.8364
X8.8634Y-4.9648
X8.8961Y-4.7157
X8.9302Y-5.7227
X8.9507Y-4.5872
X8.9533Y-5.2084
X8.9576Y-5.5573
X8.9761Y-5.4288
X8.9819Y-4.8363
X8.9919Y-4.9648
X9.0246Y-4.7157
X9.0588Y-5.7227
X9.0793Y-4.5872
X9.0819Y-5.2084
X9.0862Y-5.5573
X9.1047Y-5.4288
X9.1104Y-4.8363
X9.1205Y-4.9648
X9.1531Y-4.7157
X9.1873Y-5.7227
X9.2078Y-4.5872
X9.2104Y-5.2084
X9.2147Y-5.5573
X9.2179Y-5.0781
X9.2332Y-5.4288
X9.3026Y-4.8792
X9.3158Y-5.7227
X9.3364Y-4.5872
X9.3639Y-4.7746
X9.3846Y-5.5523
X9.436Y-5.4288
X9.5214Y-5.7227
X9.5371Y-4.6597
X9.5586Y-5.4096
X9.5819Y-4.9571
X9.5957Y-5.1894
X9.6018Y-4.8197
X9.6499Y-5.7227
X9.6675Y-4.7157
X9.6713Y-5.4857
X9.7998Y-4.5872
X9.7998Y-4.7157
X9.7998Y-4.8443
X9.7998Y-4.9728
X9.7998Y-5.1013
X9.7998Y-5.2299
X9.7998Y-5.3584
X9.7998Y-5.4869
X9.7998Y-5.6155
T3
X8.7262Y-5.0813
X8.7262Y-5.1797
X8.7262Y-5.2585
X8.7262Y-5.3569
T4
X9.3358Y-4.998
X9.3358Y-5.0866
X9.3358Y-5.1752
X9.3358Y-5.2638
X9.3358Y-5.3524
X9.4358Y-4.9539
X9.4358Y-5.0425
X9.4358Y-5.1311
X9.4358Y-5.2197
X9.4358Y-5.3083
X9.5358Y-4.998
X9.5358Y-5.0866
X9.5358Y-5.1752
X9.5358Y-5.2638
X9.5358Y-5.3524
T5
X9.4358Y-4.661
X9.4358Y-5.6453
T2
G00X8.5876Y-4.9628
M15
G01X8.6506Y-4.9628
M16
G05
G00X8.5876Y-5.4754
M15
G01X8.6506Y-5.4754
M16
G05
M30
