%TF.GenerationSoftware,KiCad,Pcbnew,10.0.1*%
%TF.CreationDate,2026-06-18T22:01:11+02:00*%
%TF.ProjectId,ADS1293CISQ,41445331-3239-4334-9349-53512e6b6963,rev?*%
%TF.SameCoordinates,Original*%
%TF.FileFunction,Copper,L1,Top*%
%TF.FilePolarity,Positive*%
%FSLAX46Y46*%
G04 Gerber Fmt 4.6, Leading zero omitted, Abs format (unit mm)*
G04 Created by KiCad (PCBNEW 10.0.1) date 2026-06-18 22:01:11*
%MOMM*%
%LPD*%
G01*
G04 APERTURE LIST*
G04 Aperture macros list*
%AMRoundRect*
0 Rectangle with rounded corners*
0 $1 Rounding radius*
0 $2 $3 $4 $5 $6 $7 $8 $9 X,Y pos of 4 corners*
0 Add a 4 corners polygon primitive as box body*
4,1,4,$2,$3,$4,$5,$6,$7,$8,$9,$2,$3,0*
0 Add four circle primitives for the rounded corners*
1,1,$1+$1,$2,$3*
1,1,$1+$1,$4,$5*
1,1,$1+$1,$6,$7*
1,1,$1+$1,$8,$9*
0 Add four rect primitives between the rounded corners*
20,1,$1+$1,$2,$3,$4,$5,0*
20,1,$1+$1,$4,$5,$6,$7,0*
20,1,$1+$1,$6,$7,$8,$9,0*
20,1,$1+$1,$8,$9,$2,$3,0*%
G04 Aperture macros list end*
%TA.AperFunction,SMDPad,CuDef*%
%ADD10R,2.200000X2.100000*%
%TD*%
%TA.AperFunction,SMDPad,CuDef*%
%ADD11R,2.700000X2.100000*%
%TD*%
%TA.AperFunction,SMDPad,CuDef*%
%ADD12R,2.000000X2.100000*%
%TD*%
%TA.AperFunction,SMDPad,CuDef*%
%ADD13R,2.600000X2.700000*%
%TD*%
%TA.AperFunction,ComponentPad*%
%ADD14R,1.700000X1.700000*%
%TD*%
%TA.AperFunction,SMDPad,CuDef*%
%ADD15RoundRect,0.140000X-0.170000X0.140000X-0.170000X-0.140000X0.170000X-0.140000X0.170000X0.140000X0*%
%TD*%
%TA.AperFunction,SMDPad,CuDef*%
%ADD16RoundRect,0.135000X-0.135000X-0.185000X0.135000X-0.185000X0.135000X0.185000X-0.135000X0.185000X0*%
%TD*%
%TA.AperFunction,SMDPad,CuDef*%
%ADD17R,1.000000X1.500000*%
%TD*%
%TA.AperFunction,ComponentPad*%
%ADD18C,1.700000*%
%TD*%
%TA.AperFunction,SMDPad,CuDef*%
%ADD19RoundRect,0.150000X0.150000X-0.587500X0.150000X0.587500X-0.150000X0.587500X-0.150000X-0.587500X0*%
%TD*%
%TA.AperFunction,SMDPad,CuDef*%
%ADD20RoundRect,0.250000X0.450000X0.350000X-0.450000X0.350000X-0.450000X-0.350000X0.450000X-0.350000X0*%
%TD*%
%TA.AperFunction,SMDPad,CuDef*%
%ADD21RoundRect,0.140000X0.140000X0.170000X-0.140000X0.170000X-0.140000X-0.170000X0.140000X-0.170000X0*%
%TD*%
%TA.AperFunction,SMDPad,CuDef*%
%ADD22RoundRect,0.135000X-0.185000X0.135000X-0.185000X-0.135000X0.185000X-0.135000X0.185000X0.135000X0*%
%TD*%
%TA.AperFunction,SMDPad,CuDef*%
%ADD23RoundRect,0.135000X0.185000X-0.135000X0.185000X0.135000X-0.185000X0.135000X-0.185000X-0.135000X0*%
%TD*%
%TA.AperFunction,SMDPad,CuDef*%
%ADD24RoundRect,0.250000X0.400000X0.600000X-0.400000X0.600000X-0.400000X-0.600000X0.400000X-0.600000X0*%
%TD*%
%TA.AperFunction,SMDPad,CuDef*%
%ADD25R,0.800000X0.300000*%
%TD*%
%TA.AperFunction,SMDPad,CuDef*%
%ADD26R,0.300000X0.800000*%
%TD*%
%TA.AperFunction,SMDPad,CuDef*%
%ADD27R,3.750000X3.750000*%
%TD*%
%TA.AperFunction,SMDPad,CuDef*%
%ADD28RoundRect,0.140000X-0.140000X-0.170000X0.140000X-0.170000X0.140000X0.170000X-0.140000X0.170000X0*%
%TD*%
%TA.AperFunction,SMDPad,CuDef*%
%ADD29RoundRect,0.140000X0.170000X-0.140000X0.170000X0.140000X-0.170000X0.140000X-0.170000X-0.140000X0*%
%TD*%
%TA.AperFunction,ViaPad*%
%ADD30C,0.406806*%
%TD*%
%TA.AperFunction,ViaPad*%
%ADD31C,0.406400*%
%TD*%
%TA.AperFunction,Conductor*%
%ADD32C,0.365073*%
%TD*%
%TA.AperFunction,Conductor*%
%ADD33C,0.076200*%
%TD*%
%TA.AperFunction,Conductor*%
%ADD34C,0.076276*%
%TD*%
%TA.AperFunction,Conductor*%
%ADD35C,0.080010*%
%TD*%
%TA.AperFunction,Conductor*%
%ADD36C,0.242000*%
%TD*%
G04 APERTURE END LIST*
D10*
%TO.P,J8,1,SLEEVE_1*%
%TO.N,/V1*%
X142410000Y-127960000D03*
%TO.P,J8,2,RING_2*%
%TO.N,/LL*%
X144310000Y-119860000D03*
D11*
%TO.P,J8,3,TIP_3*%
%TO.N,/IN6*%
X151710000Y-127960000D03*
D12*
%TO.P,J8,4,RING_SWITCH_4*%
%TO.N,unconnected-(J8-RING_SWITCH-Pad4)*%
X141610000Y-119860000D03*
D13*
%TO.P,J8,5,TIP_SWITCH_5*%
%TO.N,unconnected-(J8-TIP_SWITCH-Pad5)*%
X155810000Y-123160000D03*
%TD*%
D14*
%TO.P,J3,1,Pin_1_1*%
%TO.N,/DRDYB*%
X186390000Y-109710000D03*
%TD*%
D15*
%TO.P,C2,1*%
%TO.N,GND*%
X166562542Y-112844352D03*
%TO.P,C2,2*%
%TO.N,+3V3*%
X166562542Y-113804352D03*
%TD*%
D16*
%TO.P,R4,1*%
%TO.N,/SYNCB*%
X181082823Y-123600384D03*
%TO.P,R4,2*%
%TO.N,+3V3*%
X182102823Y-123600384D03*
%TD*%
%TO.P,R11,1*%
%TO.N,/RL*%
X159280000Y-117900000D03*
%TO.P,R11,2*%
%TO.N,Net-(IC1-IN4)*%
X160300000Y-117900000D03*
%TD*%
D17*
%TO.P,JP2,1,A_1*%
%TO.N,/ADS_WCT*%
X167480000Y-122230000D03*
%TO.P,JP2,2,B_2*%
%TO.N,Net-(IC1-IN6)*%
X166180000Y-122230000D03*
%TD*%
D14*
%TO.P,J6,1,Pin_1_1*%
%TO.N,Net-(J6-Pin_1)*%
X182695000Y-107170000D03*
D18*
%TO.P,J6,2,Pin_2_2*%
%TO.N,GND*%
X180155000Y-107170000D03*
%TD*%
D19*
%TO.P,Q1,1,G_1*%
%TO.N,Net-(D1-A)*%
X181710000Y-111887500D03*
%TO.P,Q1,2,S_2*%
%TO.N,+3V3*%
X183610000Y-111887500D03*
%TO.P,Q1,3,D_3*%
%TO.N,Net-(J6-Pin_1)*%
X182660000Y-110012500D03*
%TD*%
D20*
%TO.P,Y1,1,1_1*%
%TO.N,/XTAL1*%
X172690000Y-111240000D03*
%TO.P,Y1,2,G_2*%
%TO.N,GND*%
X170490000Y-111240000D03*
%TO.P,Y1,3,3_3*%
%TO.N,/XTAL2*%
X170490000Y-112940000D03*
%TO.P,Y1,4,G_4*%
%TO.N,GND*%
X172690000Y-112940000D03*
%TD*%
D16*
%TO.P,R8,1*%
%TO.N,/RA*%
X158890000Y-114820000D03*
%TO.P,R8,2*%
%TO.N,Net-(IC1-IN1)*%
X159910000Y-114820000D03*
%TD*%
D21*
%TO.P,C4,1*%
%TO.N,/VCREF*%
X165480000Y-113640000D03*
%TO.P,C4,2*%
%TO.N,GND*%
X164520000Y-113640000D03*
%TD*%
D22*
%TO.P,R7,1*%
%TO.N,Net-(C6-Pad2)*%
X177610167Y-121693622D03*
%TO.P,R7,2*%
%TO.N,/CMOUT*%
X177610167Y-122713622D03*
%TD*%
%TO.P,R6,1*%
%TO.N,/RLDOUT*%
X179019229Y-116307241D03*
%TO.P,R6,2*%
%TO.N,Net-(C6-Pad2)*%
X179019229Y-117327241D03*
%TD*%
D14*
%TO.P,J5,1,Pin_1_1*%
%TO.N,/SYNCB*%
X186400000Y-116920000D03*
%TD*%
D15*
%TO.P,C6,1*%
%TO.N,/RLDOUT*%
X178069886Y-118464924D03*
%TO.P,C6,2*%
%TO.N,Net-(C6-Pad2)*%
X178069886Y-119424924D03*
%TD*%
D23*
%TO.P,R5,1*%
%TO.N,/RLDINV*%
X179150000Y-120300000D03*
%TO.P,R5,2*%
%TO.N,Net-(C6-Pad2)*%
X179150000Y-119280000D03*
%TD*%
D10*
%TO.P,J1,1,SLEEVE_1*%
%TO.N,/RL*%
X142400000Y-115630000D03*
%TO.P,J1,2,RING_2*%
%TO.N,/RA*%
X144300000Y-107530000D03*
D11*
%TO.P,J1,3,TIP_3*%
%TO.N,/LA*%
X151700000Y-115630000D03*
D12*
%TO.P,J1,4,RING_SWITCH_4*%
%TO.N,unconnected-(J1-RING_SWITCH-Pad4)*%
X141600000Y-107530000D03*
D13*
%TO.P,J1,5,TIP_SWITCH_5*%
%TO.N,unconnected-(J1-TIP_SWITCH-Pad5)*%
X155800000Y-110830000D03*
%TD*%
D24*
%TO.P,D1,1,K_1*%
%TO.N,+3V3*%
X183497500Y-114120000D03*
%TO.P,D1,2,A_2*%
%TO.N,Net-(D1-A)*%
X179997500Y-114120000D03*
%TD*%
D15*
%TO.P,C1,1*%
%TO.N,GND*%
X167736761Y-112844352D03*
%TO.P,C1,2*%
%TO.N,+3V3*%
X167736761Y-113804352D03*
%TD*%
D16*
%TO.P,R10,1*%
%TO.N,/LL*%
X158690000Y-116870000D03*
%TO.P,R10,2*%
%TO.N,Net-(IC1-IN3)*%
X159710000Y-116870000D03*
%TD*%
D25*
%TO.P,IC1,1,IN1_1*%
%TO.N,Net-(IC1-IN1)*%
X167490000Y-116235000D03*
%TO.P,IC1,2,IN2_2*%
%TO.N,Net-(IC1-IN2)*%
X167490000Y-116735000D03*
%TO.P,IC1,3,IN3_3*%
%TO.N,Net-(IC1-IN3)*%
X167490000Y-117235000D03*
%TO.P,IC1,4,IN4_4*%
%TO.N,Net-(IC1-IN4)*%
X167490000Y-117735000D03*
%TO.P,IC1,5,IN5_5*%
%TO.N,Net-(IC1-IN5)*%
X167490000Y-118235000D03*
%TO.P,IC1,6,IN6_6*%
%TO.N,Net-(IC1-IN6)*%
X167490000Y-118735000D03*
%TO.P,IC1,7,WCT_7*%
%TO.N,/ADS_WCT*%
X167490000Y-119235000D03*
D26*
%TO.P,IC1,8,CMOUT_8*%
%TO.N,/CMOUT*%
X168490000Y-120235000D03*
%TO.P,IC1,9,RLDOUT_9*%
%TO.N,/RLDOUT*%
X168990000Y-120235000D03*
%TO.P,IC1,10,RLDINV_10*%
%TO.N,/RLDINV*%
X169490000Y-120235000D03*
%TO.P,IC1,11,RLDIN_11*%
%TO.N,/RLDIN*%
X169990000Y-120235000D03*
%TO.P,IC1,12,RLDREF_12*%
X170490000Y-120235000D03*
%TO.P,IC1,13,SYNCB_13*%
%TO.N,/SYNCB*%
X170990000Y-120235000D03*
%TO.P,IC1,14,VSSIO_14*%
%TO.N,GND*%
X171490000Y-120235000D03*
D25*
%TO.P,IC1,15,ALARMB_15*%
%TO.N,/ALARMB*%
X172490000Y-119235000D03*
%TO.P,IC1,16,CSB_16*%
%TO.N,Net-(IC1-CSB)*%
X172490000Y-118735000D03*
%TO.P,IC1,17,SCLK_17*%
%TO.N,Net-(IC1-SCLK)*%
X172490000Y-118235000D03*
%TO.P,IC1,18,SDI_18*%
%TO.N,Net-(IC1-SDI)*%
X172490000Y-117735000D03*
%TO.P,IC1,19,SDO_19*%
%TO.N,Net-(IC1-SDO)*%
X172490000Y-117235000D03*
%TO.P,IC1,20,DRDYB_20*%
%TO.N,/DRDYB*%
X172490000Y-116735000D03*
%TO.P,IC1,21,CLK_21*%
%TO.N,unconnected-(IC1-CLK-Pad21)*%
X172490000Y-116235000D03*
D26*
%TO.P,IC1,22,VDDIO_22*%
%TO.N,+3V3*%
X171490000Y-115235000D03*
%TO.P,IC1,23,XTAL1_23*%
%TO.N,/XTAL1*%
X170990000Y-115235000D03*
%TO.P,IC1,24,XTAL2_24*%
%TO.N,/XTAL2*%
X170490000Y-115235000D03*
%TO.P,IC1,25,RSTB_25*%
%TO.N,/RSTB*%
X169990000Y-115235000D03*
%TO.P,IC1,26,CVREF_26*%
%TO.N,/VCREF*%
X169490000Y-115235000D03*
%TO.P,IC1,27,VSS_27*%
%TO.N,GND*%
X168990000Y-115235000D03*
%TO.P,IC1,28,VDD_28*%
%TO.N,+3V3*%
X168490000Y-115235000D03*
D27*
%TO.P,IC1,29,GND_29*%
%TO.N,GND*%
X169990000Y-117735000D03*
%TD*%
D17*
%TO.P,JP1,1,A_1*%
%TO.N,Net-(IC1-IN6)*%
X160700000Y-127980000D03*
%TO.P,JP1,2,B_2*%
%TO.N,/IN6*%
X159400000Y-127980000D03*
%TD*%
D16*
%TO.P,R9,1*%
%TO.N,/LA*%
X158520000Y-115850000D03*
%TO.P,R9,2*%
%TO.N,Net-(IC1-IN2)*%
X159540000Y-115850000D03*
%TD*%
D28*
%TO.P,C3,1*%
%TO.N,GND*%
X165123480Y-115179495D03*
%TO.P,C3,2*%
%TO.N,+3V3*%
X166083480Y-115179495D03*
%TD*%
D16*
%TO.P,R12,1*%
%TO.N,/V1*%
X158960000Y-122160000D03*
%TO.P,R12,2*%
%TO.N,Net-(IC1-IN5)*%
X159980000Y-122160000D03*
%TD*%
D23*
%TO.P,R2,1*%
%TO.N,/DRDYB*%
X173720000Y-115620000D03*
%TO.P,R2,2*%
%TO.N,+3V3*%
X173720000Y-114600000D03*
%TD*%
D14*
%TO.P,J4,1,Pin_1_1*%
%TO.N,/ALARMB*%
X186390000Y-113330000D03*
%TD*%
D28*
%TO.P,C7,1*%
%TO.N,/XTAL1*%
X174200000Y-111230000D03*
%TO.P,C7,2*%
%TO.N,GND*%
X175160000Y-111230000D03*
%TD*%
D22*
%TO.P,R1,1*%
%TO.N,/RSTB*%
X177450000Y-113600000D03*
%TO.P,R1,2*%
%TO.N,+3V3*%
X177450000Y-114620000D03*
%TD*%
D29*
%TO.P,C8,1*%
%TO.N,/XTAL2*%
X168950000Y-112930000D03*
%TO.P,C8,2*%
%TO.N,GND*%
X168950000Y-111970000D03*
%TD*%
D22*
%TO.P,R13,1*%
%TO.N,GND*%
X179900000Y-110830000D03*
%TO.P,R13,2*%
%TO.N,Net-(D1-A)*%
X179900000Y-111850000D03*
%TD*%
D15*
%TO.P,C5,1*%
%TO.N,/RLDIN*%
X170320042Y-121743590D03*
%TO.P,C5,2*%
%TO.N,GND*%
X170320042Y-122703590D03*
%TD*%
D14*
%TO.P,J2,1,Pin_1_1*%
%TO.N,Net-(IC1-SDO)*%
X186420000Y-120570000D03*
D18*
%TO.P,J2,2,Pin_2_2*%
%TO.N,Net-(IC1-SDI)*%
X186420000Y-123110000D03*
%TO.P,J2,3,Pin_3_3*%
%TO.N,Net-(IC1-SCLK)*%
X186420000Y-125650000D03*
%TO.P,J2,4,Pin_4_4*%
%TO.N,Net-(IC1-CSB)*%
X186420000Y-128190000D03*
%TD*%
D30*
%TO.N,/V1*%
X143796958Y-127844099D03*
X157450000Y-122510000D03*
D31*
%TO.N,/DRDYB*%
X176720000Y-112210000D03*
X174750000Y-115940000D03*
D30*
%TO.N,GND*%
X140415498Y-108989075D03*
X152065644Y-105925498D03*
X167730000Y-112090000D03*
X173684542Y-112792985D03*
X144795042Y-113098868D03*
X185024200Y-111496012D03*
X161941930Y-126139814D03*
X175170000Y-110510000D03*
X186200666Y-129544502D03*
X161468880Y-110499023D03*
X168918687Y-114526417D03*
X174625599Y-119518506D03*
X151599593Y-123227873D03*
X177323816Y-116085641D03*
X159832408Y-105925498D03*
X154014502Y-109480000D03*
X169587803Y-123112721D03*
X183132701Y-105925498D03*
X180316953Y-121220264D03*
D31*
X179840000Y-110190000D03*
D30*
X166560000Y-112080000D03*
X140415498Y-121314933D03*
X178433902Y-129544502D03*
X165130000Y-114460000D03*
X175365937Y-105925498D03*
X163670000Y-113710000D03*
X164490000Y-114380000D03*
X154284261Y-118139621D03*
X155949026Y-105925498D03*
X182317284Y-129544502D03*
X163715791Y-105925498D03*
X170667138Y-129544502D03*
X170515016Y-123279441D03*
X148182262Y-105925498D03*
X164691913Y-119046238D03*
X164687896Y-123393848D03*
X175925498Y-111292562D03*
X169075157Y-110567350D03*
X180937855Y-112906364D03*
X183702046Y-116085641D03*
X187016083Y-105925498D03*
X175982978Y-122830314D03*
X168979852Y-111403188D03*
X179249319Y-105925498D03*
X150400879Y-118139057D03*
X157280000Y-118510000D03*
X171929028Y-120201956D03*
X174550520Y-129544502D03*
X144538909Y-127174450D03*
X153650670Y-128628035D03*
X157534052Y-128628035D03*
X146131111Y-116732918D03*
X166783756Y-129544502D03*
X148374545Y-127060712D03*
X144298880Y-105925498D03*
X185450254Y-119393512D03*
X156283102Y-124995498D03*
X149892396Y-112716419D03*
X140415498Y-128729085D03*
X182798173Y-124906578D03*
X171482555Y-105925498D03*
X159209530Y-114119823D03*
X155428521Y-113798377D03*
X140825481Y-114553495D03*
X170530223Y-110354958D03*
X187777505Y-116085641D03*
X144233419Y-121395498D03*
X167599173Y-105925498D03*
%TO.N,+3V3*%
X172008308Y-115236505D03*
X168013195Y-115128087D03*
D31*
%TO.N,/SYNCB*%
X179615651Y-123874349D03*
X180480000Y-123190000D03*
D30*
%TO.N,/RL*%
X143817168Y-115668455D03*
X158630098Y-118000784D03*
%TO.N,Net-(C6-Pad2)*%
X177230048Y-121144103D03*
X179993984Y-119532035D03*
%TO.N,/RLDOUT*%
X168931983Y-120927370D03*
X177845254Y-117813820D03*
%TO.N,/RLDINV*%
X177443053Y-119601975D03*
X169490000Y-121240000D03*
%TO.N,/ALARMB*%
X173784745Y-118402190D03*
D31*
%TO.N,Net-(IC1-CSB)*%
X175880000Y-121820000D03*
X174770000Y-122790000D03*
X174810000Y-121240000D03*
D30*
X174857738Y-118869876D03*
D31*
%TO.N,Net-(IC1-SCLK)*%
X184550000Y-125340000D03*
D30*
X173405593Y-117824075D03*
%TO.N,Net-(IC1-SDI)*%
X173407896Y-117327966D03*
D31*
%TO.N,Net-(IC1-SDO)*%
X177218753Y-115614405D03*
X184300000Y-120520000D03*
X173640000Y-116810000D03*
X183200000Y-119310000D03*
%TD*%
%TO.N,/V1*%
D32*
X157800000Y-122160000D02*
X157450000Y-122510000D01*
X143625901Y-127844099D02*
X143796958Y-127844099D01*
X143510000Y-127960000D02*
X143625901Y-127844099D01*
X142960000Y-127960000D02*
X143510000Y-127960000D01*
X142410000Y-127960000D02*
X142960000Y-127960000D01*
X158960000Y-122160000D02*
X157800000Y-122160000D01*
%TO.N,/LL*%
X158690000Y-116870000D02*
X158510000Y-117050000D01*
X158510000Y-117050000D02*
X147120000Y-117050000D01*
X147120000Y-117050000D02*
X144310000Y-119860000D01*
%TO.N,/IN6*%
X159400000Y-127980000D02*
X159380000Y-127960000D01*
X159380000Y-127960000D02*
X151710000Y-127960000D01*
%TO.N,/DRDYB*%
D33*
X174430000Y-115620000D02*
X173720000Y-115620000D01*
X177464300Y-111465700D02*
X176720000Y-112210000D01*
X185230000Y-110870000D02*
X180969013Y-110870000D01*
X180373313Y-111465700D02*
X177464300Y-111465700D01*
D34*
X172768676Y-116735000D02*
X172490000Y-116735000D01*
D33*
X174750000Y-115940000D02*
X174430000Y-115620000D01*
X186390000Y-109710000D02*
X185230000Y-110870000D01*
D34*
X173004338Y-116499338D02*
X172768676Y-116735000D01*
X173720000Y-115620000D02*
X173004338Y-115620000D01*
X173004338Y-115620000D02*
X173004338Y-116499338D01*
D33*
X180969013Y-110870000D02*
X180373313Y-111465700D01*
%TO.N,GND*%
D34*
X170320000Y-123079393D02*
X170320000Y-122984000D01*
X171640000Y-120235000D02*
X171792743Y-120235000D01*
X175160000Y-110708907D02*
X175160000Y-111230000D01*
X170490000Y-110523490D02*
X170490000Y-110395181D01*
X170490000Y-110395181D02*
X170530223Y-110354958D01*
X168990000Y-115635000D02*
X168990000Y-115764607D01*
X168950000Y-111517140D02*
X168950000Y-111433041D01*
X170515016Y-123279441D02*
X170505243Y-123269669D01*
X171490000Y-120235000D02*
X171640000Y-120235000D01*
X175170000Y-110698907D02*
X175160000Y-110708907D01*
X166562500Y-112188454D02*
X166562500Y-112844000D01*
X170505243Y-123264636D02*
X170320000Y-123079393D01*
X172690000Y-112940000D02*
X173392000Y-112940000D01*
X171895985Y-120235000D02*
X171929028Y-120201956D01*
X170490000Y-111240000D02*
X170490000Y-110638000D01*
X168990000Y-114663140D02*
X168990000Y-114597730D01*
D33*
X164490000Y-114246617D02*
X164520000Y-114216617D01*
D34*
X168990000Y-114835000D02*
X168990000Y-114663140D01*
X171792743Y-120235000D02*
X171895985Y-120235000D01*
X168950000Y-111970000D02*
X168950000Y-111689000D01*
X167730000Y-112345907D02*
X167737000Y-112352907D01*
X173392000Y-112940000D02*
X173525626Y-112940000D01*
X166560000Y-112080000D02*
X166560000Y-112185954D01*
X170320000Y-122984000D02*
X170320000Y-122703500D01*
D33*
X179900000Y-110830000D02*
X179900000Y-110250000D01*
D34*
X167730000Y-112090000D02*
X167730000Y-112345907D01*
X170505243Y-123269669D02*
X170505243Y-123264636D01*
X165130000Y-114460000D02*
X165130000Y-114747990D01*
X168990000Y-115235000D02*
X168990000Y-114835000D01*
X168990000Y-114597730D02*
X168918687Y-114526417D01*
X175170000Y-110510000D02*
X175170000Y-110698907D01*
X170490000Y-110638000D02*
X170490000Y-110523490D01*
X168950000Y-111433041D02*
X168979852Y-111403188D01*
X168950000Y-111689000D02*
X168950000Y-111517140D01*
X173672642Y-112792985D02*
X173684542Y-112792985D01*
X167737000Y-112352907D02*
X167737000Y-112844000D01*
D33*
X164520000Y-114216617D02*
X164520000Y-113640000D01*
D34*
X173525626Y-112940000D02*
X173672642Y-112792985D01*
X165130000Y-114747990D02*
X165123500Y-114754490D01*
X169990000Y-115764607D02*
X169990000Y-115860000D01*
X168990000Y-115764607D02*
X169990000Y-115764607D01*
D33*
X179900000Y-110250000D02*
X179840000Y-110190000D01*
D34*
X166560000Y-112185954D02*
X166562500Y-112188454D01*
X165123500Y-114754490D02*
X165123500Y-115179500D01*
X169990000Y-115860000D02*
X169990000Y-117735000D01*
D33*
X164490000Y-114380000D02*
X164490000Y-114246617D01*
D34*
X168990000Y-115235000D02*
X168990000Y-115635000D01*
%TO.N,+3V3*%
D35*
X168013195Y-115128087D02*
X168120108Y-115235000D01*
X175784047Y-116125953D02*
X174258094Y-114600000D01*
X167737000Y-114183161D02*
X167737000Y-114085000D01*
X167426000Y-113804000D02*
X167737000Y-113804000D01*
X173399000Y-114600000D02*
X173720000Y-114600000D01*
X168110263Y-114556424D02*
X167737000Y-114183161D01*
X182103000Y-123280000D02*
X182103000Y-123062906D01*
X168490000Y-115235000D02*
X168490000Y-114835000D01*
X182103000Y-122263137D02*
X181970228Y-122130365D01*
X173181906Y-114600000D02*
X173399000Y-114600000D01*
X168201240Y-115235000D02*
X168340000Y-115235000D01*
X182103000Y-123600500D02*
X182103000Y-123280000D01*
X177694800Y-120221490D02*
X177600146Y-120126835D01*
X177600146Y-120126835D02*
X177487267Y-120126835D01*
X178330266Y-120694761D02*
X177856995Y-120221490D01*
X166562500Y-114231656D02*
X166083500Y-114710656D01*
X166083500Y-114869000D02*
X166083500Y-115179500D01*
X171490000Y-114617906D02*
X171719867Y-114388038D01*
X168490000Y-114617906D02*
X168428518Y-114556424D01*
X180534624Y-120694761D02*
X178330266Y-120694761D01*
X171490000Y-114835000D02*
X171490000Y-114617906D01*
X172008308Y-115236505D02*
X172006802Y-115235000D01*
X182103000Y-123062906D02*
X182103000Y-122263137D01*
X171857094Y-115235000D02*
X171640000Y-115235000D01*
X171719867Y-114388038D02*
X172969944Y-114388038D01*
X168428518Y-114556424D02*
X168110263Y-114556424D01*
X168340000Y-115235000D02*
X168490000Y-115235000D01*
X171640000Y-115235000D02*
X171490000Y-115235000D01*
X167737000Y-114085000D02*
X167737000Y-113804000D01*
D33*
X182533200Y-115084300D02*
X177914300Y-115084300D01*
X177450000Y-114620000D02*
X175944047Y-116125953D01*
D35*
X177487267Y-120126835D02*
X177120535Y-119760103D01*
X166562500Y-113804000D02*
X166873000Y-113804000D01*
X166873000Y-113804000D02*
X167090094Y-113804000D01*
D33*
X177914300Y-115084300D02*
X177450000Y-114620000D01*
D35*
X174041000Y-114600000D02*
X173720000Y-114600000D01*
D33*
X175944047Y-116125953D02*
X175784047Y-116125953D01*
D35*
X168490000Y-114835000D02*
X168490000Y-114617906D01*
D33*
X183610000Y-111887500D02*
X183610000Y-114007500D01*
X183610000Y-114007500D02*
X183497500Y-114120000D01*
D35*
X172006802Y-115235000D02*
X171857094Y-115235000D01*
X181970228Y-122130365D02*
X180534624Y-120694761D01*
X177120535Y-117462441D02*
X175784047Y-116125953D01*
X177856995Y-120221490D02*
X177694800Y-120221490D01*
X166562500Y-114085000D02*
X166562500Y-114231656D01*
X166083500Y-114710656D02*
X166083500Y-114869000D01*
X166562500Y-113804000D02*
X166562500Y-114085000D01*
X177120535Y-119760103D02*
X177120535Y-117462441D01*
X167090094Y-113804000D02*
X167208906Y-113804000D01*
X174258094Y-114600000D02*
X174041000Y-114600000D01*
X167208906Y-113804000D02*
X167426000Y-113804000D01*
X168120108Y-115235000D02*
X168201240Y-115235000D01*
X171490000Y-115235000D02*
X171490000Y-114835000D01*
D33*
X183497500Y-114120000D02*
X182533200Y-115084300D01*
D35*
X172969944Y-114388038D02*
X173181906Y-114600000D01*
%TO.N,/SYNCB*%
D34*
X177944803Y-122203500D02*
X177261438Y-122203500D01*
X177261438Y-122203500D02*
X175840563Y-120782625D01*
D33*
X181082823Y-123600384D02*
X180890384Y-123600384D01*
X181517123Y-124034684D02*
X181082823Y-123600384D01*
X182487123Y-120832877D02*
X182487123Y-123892388D01*
X186400000Y-116920000D02*
X182487123Y-120832877D01*
D34*
X175840563Y-120782625D02*
X171287625Y-120782625D01*
X171287625Y-120782625D02*
X170990000Y-120485000D01*
D33*
X180890384Y-123600384D02*
X180480000Y-123190000D01*
X182344827Y-124034684D02*
X181517123Y-124034684D01*
X182487123Y-123892388D02*
X182344827Y-124034684D01*
D34*
X179615651Y-123874349D02*
X177944803Y-122203500D01*
X170990000Y-120485000D02*
X170990000Y-120235000D01*
%TO.N,/RL*%
D32*
X142950000Y-115630000D02*
X142400000Y-115630000D01*
X159222210Y-117842210D02*
X159280000Y-117900000D01*
X143500000Y-115630000D02*
X142950000Y-115630000D01*
X143817168Y-115668455D02*
X143778713Y-115630000D01*
X158630098Y-118000784D02*
X158788672Y-117842210D01*
X158788672Y-117842210D02*
X159222210Y-117842210D01*
X143778713Y-115630000D02*
X143500000Y-115630000D01*
%TO.N,Net-(IC1-IN4)*%
X160300000Y-117900000D02*
X160280000Y-117880000D01*
X161878977Y-117820000D02*
X160380000Y-117820000D01*
D36*
X167290000Y-117735000D02*
X167490000Y-117735000D01*
D32*
X161886488Y-117812489D02*
X161878977Y-117820000D01*
X166708281Y-117812489D02*
X161886488Y-117812489D01*
D36*
X166708281Y-117812489D02*
X167012511Y-117812489D01*
X167090000Y-117735000D02*
X167290000Y-117735000D01*
D32*
X160380000Y-117820000D02*
X160300000Y-117900000D01*
D36*
X167012511Y-117812489D02*
X167090000Y-117735000D01*
%TO.N,/ADS_WCT*%
D34*
X167480000Y-122230000D02*
X167490000Y-122220000D01*
X167490000Y-122220000D02*
X167490000Y-119235000D01*
%TO.N,Net-(IC1-IN6)*%
D32*
X160700000Y-126437000D02*
X160700000Y-127230000D01*
X166180000Y-119631448D02*
X166688607Y-119122840D01*
X166180000Y-121480000D02*
X166180000Y-121032102D01*
X164887000Y-122230000D02*
X164859680Y-122257321D01*
X166180000Y-122230000D02*
X165680000Y-122230000D01*
X166688607Y-119122840D02*
X166838590Y-118917081D01*
D36*
X166838590Y-118917081D02*
X167020672Y-118735000D01*
D32*
X165680000Y-122230000D02*
X164887000Y-122230000D01*
X166180000Y-122230000D02*
X166180000Y-121480000D01*
D36*
X167090000Y-118735000D02*
X167290000Y-118735000D01*
D32*
X166180000Y-121032102D02*
X166180000Y-119631448D01*
X164859680Y-122277321D02*
X160700000Y-126437000D01*
X164859680Y-122257321D02*
X164859680Y-122277321D01*
X160700000Y-127230000D02*
X160700000Y-127980000D01*
D36*
X167020672Y-118735000D02*
X167090000Y-118735000D01*
X167290000Y-118735000D02*
X167490000Y-118735000D01*
%TO.N,Net-(J6-Pin_1)*%
D33*
X182695000Y-109977500D02*
X182660000Y-110012500D01*
X182695000Y-107170000D02*
X182695000Y-109977500D01*
%TO.N,Net-(D1-A)*%
X179997500Y-111947500D02*
X179900000Y-111850000D01*
X179997500Y-114120000D02*
X179997500Y-111947500D01*
X181672500Y-111850000D02*
X181710000Y-111887500D01*
X179900000Y-111850000D02*
X181672500Y-111850000D01*
%TO.N,/XTAL1*%
D34*
X172690000Y-111240000D02*
X172700000Y-111230000D01*
X172690000Y-111842000D02*
X172690000Y-111240000D01*
X170990000Y-115235000D02*
X170990000Y-114835000D01*
X172700000Y-111230000D02*
X174200000Y-111230000D01*
X172523446Y-112218647D02*
X172690000Y-112052093D01*
X170990000Y-114624907D02*
X171319663Y-114295244D01*
X171319663Y-112823616D02*
X171924631Y-112218647D01*
X170990000Y-114835000D02*
X170990000Y-114624907D01*
X172690000Y-112052093D02*
X172690000Y-111842000D01*
X171319663Y-114295244D02*
X171319663Y-112823616D01*
X171924631Y-112218647D02*
X172523446Y-112218647D01*
%TO.N,/XTAL2*%
X170490000Y-113752093D02*
X170490000Y-114624907D01*
X170490000Y-114835000D02*
X170490000Y-115235000D01*
X170490000Y-114624907D02*
X170490000Y-114835000D01*
X170490000Y-112940000D02*
X170490000Y-113542000D01*
X170490000Y-112940000D02*
X170480000Y-112930000D01*
X170490000Y-113542000D02*
X170490000Y-113752093D01*
X170480000Y-112930000D02*
X168950000Y-112930000D01*
%TO.N,/RA*%
D32*
X157722865Y-114282865D02*
X158260000Y-114820000D01*
X145463076Y-110536076D02*
X146484448Y-110536076D01*
X158260000Y-114820000D02*
X158890000Y-114820000D01*
X144300000Y-107530000D02*
X144300000Y-109373000D01*
X144300000Y-109373000D02*
X145463076Y-110536076D01*
X146484448Y-110536076D02*
X150231237Y-114282865D01*
X150231237Y-114282865D02*
X157722865Y-114282865D01*
%TO.N,Net-(IC1-IN1)*%
D36*
X167490000Y-116235000D02*
X167090000Y-116235000D01*
D32*
X159910000Y-114820000D02*
X160007181Y-114820000D01*
D36*
X167090000Y-116235000D02*
X166828084Y-116235000D01*
D32*
X161434242Y-116247061D02*
X166816023Y-116247061D01*
D36*
X166828084Y-116235000D02*
X166816023Y-116247061D01*
D32*
X160007181Y-114820000D02*
X161434242Y-116247061D01*
%TO.N,/VCREF*%
D34*
X169490000Y-114835000D02*
X169490000Y-114624907D01*
X169490000Y-115235000D02*
X169490000Y-114835000D01*
X168188042Y-113322949D02*
X166266421Y-113322949D01*
D33*
X165480000Y-113640000D02*
X166003550Y-113640000D01*
D34*
X169490000Y-114624907D02*
X168188042Y-113322949D01*
X166023550Y-113565819D02*
X166023550Y-113620000D01*
X166266421Y-113322949D02*
X166023550Y-113565819D01*
D33*
X166003550Y-113640000D02*
X166023550Y-113620000D01*
%TO.N,Net-(C6-Pad2)*%
D34*
X179471000Y-119280000D02*
X179150000Y-119280000D01*
X177541196Y-121144103D02*
X177230048Y-121144103D01*
X179150000Y-117458000D02*
X179150000Y-119280000D01*
X179019000Y-117327000D02*
X179150000Y-117458000D01*
X178070000Y-119425000D02*
X178215000Y-119280000D01*
X177610000Y-121693500D02*
X177610000Y-121423000D01*
X178215000Y-119280000D02*
X179150000Y-119280000D01*
X179933129Y-119532035D02*
X179681093Y-119280000D01*
X179993984Y-119532035D02*
X179933129Y-119532035D01*
X177610000Y-121423000D02*
X177610000Y-121212907D01*
X179681093Y-119280000D02*
X179471000Y-119280000D01*
X177610000Y-121212907D02*
X177541196Y-121144103D01*
%TO.N,/CMOUT*%
X169819079Y-122306678D02*
X168490000Y-120977598D01*
X176672084Y-122306678D02*
X169819079Y-122306678D01*
X168490000Y-120635000D02*
X168490000Y-120235000D01*
X177289000Y-122713500D02*
X177078907Y-122713500D01*
X177610000Y-122713500D02*
X177289000Y-122713500D01*
X168490000Y-120977598D02*
X168490000Y-120825977D01*
X177078907Y-122713500D02*
X176672084Y-122306678D01*
X168490000Y-120825977D02*
X168490000Y-120635000D01*
%TO.N,/RLDOUT*%
X177848245Y-117824673D02*
X177848245Y-117816811D01*
X178971062Y-116778681D02*
X179019000Y-116730743D01*
X178070000Y-118184000D02*
X178070000Y-118069490D01*
X178459849Y-117046294D02*
X178727462Y-116778681D01*
X168990000Y-120869353D02*
X168990000Y-120825977D01*
X179019000Y-116578000D02*
X179019000Y-116307000D01*
X168990000Y-120825977D02*
X168990000Y-120635000D01*
X177848245Y-117816811D02*
X177845254Y-117813820D01*
X177623959Y-118048959D02*
X177848245Y-117824673D01*
X178070000Y-118465000D02*
X178070000Y-118184000D01*
X178040000Y-118465000D02*
X177623959Y-118048959D01*
X178727462Y-116778681D02*
X178971062Y-116778681D01*
X179019000Y-116730743D02*
X179019000Y-116578000D01*
X168990000Y-120635000D02*
X168990000Y-120235000D01*
X178070000Y-118069490D02*
X178459849Y-117679641D01*
X178070000Y-118465000D02*
X178040000Y-118465000D01*
X168931983Y-120927370D02*
X168990000Y-120869353D01*
X178459849Y-117679641D02*
X178459849Y-117046294D01*
%TO.N,/RLDINV*%
X178829000Y-120300000D02*
X179150000Y-120300000D01*
X177443053Y-119601975D02*
X177872199Y-120031121D01*
X178618907Y-120300000D02*
X178829000Y-120300000D01*
X169490000Y-121240000D02*
X169490000Y-120235000D01*
X178350028Y-120031121D02*
X178618907Y-120300000D01*
X177872199Y-120031121D02*
X178350028Y-120031121D01*
%TO.N,/LA*%
D32*
X152176000Y-116106000D02*
X158264000Y-116106000D01*
X151700000Y-115630000D02*
X152176000Y-116106000D01*
X158264000Y-116106000D02*
X158520000Y-115850000D01*
%TO.N,Net-(IC1-IN3)*%
X160075000Y-117235000D02*
X167490000Y-117235000D01*
X159710000Y-116870000D02*
X160075000Y-117235000D01*
%TO.N,Net-(IC1-IN2)*%
X160891065Y-116735000D02*
X167490000Y-116735000D01*
X159540000Y-115850000D02*
X160006065Y-115850000D01*
X160006065Y-115850000D02*
X160891065Y-116735000D01*
%TO.N,Net-(IC1-IN5)*%
X166767756Y-118378203D02*
X161558259Y-118378203D01*
D36*
X167490000Y-118235000D02*
X167090000Y-118235000D01*
D32*
X161558259Y-118378203D02*
X159980000Y-119956462D01*
D36*
X166768336Y-118235000D02*
X166767756Y-118235580D01*
X166767756Y-118235580D02*
X166767756Y-118378203D01*
X167090000Y-118235000D02*
X166768336Y-118235000D01*
D32*
X159980000Y-119956462D02*
X159980000Y-122160000D01*
%TO.N,/RLDIN*%
D34*
X170340000Y-120235000D02*
X170129907Y-120235000D01*
X169990000Y-120235000D02*
X169990000Y-120635000D01*
X170320000Y-121011330D02*
X170320000Y-121252907D01*
X170129907Y-120235000D02*
X169990000Y-120235000D01*
X169990000Y-120681330D02*
X170320000Y-121011330D01*
X169990000Y-120635000D02*
X169990000Y-120681330D01*
X170320000Y-121252907D02*
X170320000Y-121463000D01*
X170490000Y-120235000D02*
X170340000Y-120235000D01*
X170320000Y-121463000D02*
X170320000Y-121743500D01*
%TO.N,/ALARMB*%
X173784745Y-118550348D02*
X173100093Y-119235000D01*
X172890000Y-119235000D02*
X172490000Y-119235000D01*
X173784745Y-118402190D02*
X173784745Y-118550348D01*
X173100093Y-119235000D02*
X172890000Y-119235000D01*
%TO.N,Net-(IC1-CSB)*%
D33*
X186420000Y-128190000D02*
X180150000Y-128190000D01*
D34*
X172490000Y-118735000D02*
X172890000Y-118735000D01*
X172985393Y-118735000D02*
X173659728Y-118060665D01*
D33*
X175850000Y-123870000D02*
X174770000Y-122790000D01*
D34*
X174117256Y-118060665D02*
X174857738Y-118801146D01*
D33*
X175880000Y-121820000D02*
X175390000Y-121820000D01*
D34*
X173659728Y-118060665D02*
X174117256Y-118060665D01*
D33*
X180150000Y-128190000D02*
X175850000Y-123890000D01*
X175850000Y-123890000D02*
X175850000Y-123870000D01*
D34*
X174857738Y-118801146D02*
X174857738Y-118869876D01*
X172890000Y-118735000D02*
X172985393Y-118735000D01*
D33*
X175390000Y-121820000D02*
X174810000Y-121240000D01*
%TO.N,Net-(IC1-SCLK)*%
D34*
X172490000Y-118235000D02*
X172890000Y-118235000D01*
X184860000Y-125650000D02*
X186420000Y-125650000D01*
X184550000Y-125340000D02*
X184860000Y-125650000D01*
X172985393Y-118235000D02*
X173396318Y-117824075D01*
X172890000Y-118235000D02*
X172985393Y-118235000D01*
X173396318Y-117824075D02*
X173405593Y-117824075D01*
%TO.N,Net-(IC1-SDI)*%
D33*
X186420000Y-123110000D02*
X185250000Y-124280000D01*
D34*
X172890000Y-117735000D02*
X172490000Y-117735000D01*
X173351102Y-117384759D02*
X173335634Y-117384759D01*
D33*
X185250000Y-124280000D02*
X180892673Y-124280000D01*
X173940639Y-117327966D02*
X173407896Y-117327966D01*
D34*
X173407896Y-117327966D02*
X173351102Y-117384759D01*
X172985393Y-117735000D02*
X172890000Y-117735000D01*
D33*
X180892673Y-124280000D02*
X173940639Y-117327966D01*
D34*
X173335634Y-117384759D02*
X172985393Y-117735000D01*
%TO.N,Net-(IC1-SDO)*%
X173243658Y-116731342D02*
X173561342Y-116731342D01*
X173038558Y-116936442D02*
X173243658Y-116731342D01*
D33*
X184350000Y-120570000D02*
X184300000Y-120520000D01*
X179504405Y-115614405D02*
X177218753Y-115614405D01*
D34*
X172490000Y-117235000D02*
X172740000Y-117235000D01*
D33*
X183200000Y-119310000D02*
X179504405Y-115614405D01*
D34*
X173561342Y-116731342D02*
X173640000Y-116810000D01*
X172740000Y-117235000D02*
X173038558Y-116936442D01*
D33*
X186420000Y-120570000D02*
X184350000Y-120570000D01*
%TO.N,/RSTB*%
X176856484Y-113600000D02*
X174740700Y-111484216D01*
D34*
X168394077Y-113143684D02*
X169990000Y-114739607D01*
X169323625Y-112450000D02*
X168643790Y-112450000D01*
X168394077Y-112699713D02*
X168394077Y-113143684D01*
X169990000Y-114835000D02*
X169990000Y-115235000D01*
X169683625Y-112090000D02*
X169323625Y-112450000D01*
X171192000Y-112090000D02*
X169683625Y-112090000D01*
D33*
X174740700Y-111097184D02*
X174169216Y-110525700D01*
D34*
X171615650Y-111666350D02*
X171192000Y-112090000D01*
D33*
X171846648Y-110525700D02*
X171615650Y-110756698D01*
X177450000Y-113600000D02*
X176856484Y-113600000D01*
X174740700Y-111484216D02*
X174740700Y-111097184D01*
X174169216Y-110525700D02*
X171846648Y-110525700D01*
D34*
X169990000Y-114739607D02*
X169990000Y-114835000D01*
X171615650Y-110756698D02*
X171615650Y-111666350D01*
X168643790Y-112450000D02*
X168394077Y-112699713D01*
%TD*%
M02*
