%TF.GenerationSoftware,KiCad,Pcbnew,10.0.1*%
%TF.CreationDate,2026-06-20T21:02:16+02:00*%
%TF.ProjectId,ADS1293CISQ,41445331-3239-4334-9349-53512e6b6963,rev?*%
%TF.SameCoordinates,Original*%
%TF.FileFunction,Copper,L1,Top*%
%TF.FilePolarity,Positive*%
%FSLAX46Y46*%
G04 Gerber Fmt 4.6, Leading zero omitted, Abs format (unit mm)*
G04 Created by KiCad (PCBNEW 10.0.1) date 2026-06-20 21:02:16*
%MOMM*%
%LPD*%
G01*
G04 APERTURE LIST*
G04 Aperture macros list*
%AMRoundRect*
0 Rectangle with rounded corners*
0 $1 Rounding radius*
0 $2 $3 $4 $5 $6 $7 $8 $9 X,Y pos of 4 corners*
0 Add a 4 corners polygon primitive as box body*
4,1,4,$2,$3,$4,$5,$6,$7,$8,$9,$2,$3,0*
0 Add four circle primitives for the rounded corners*
1,1,$1+$1,$2,$3*
1,1,$1+$1,$4,$5*
1,1,$1+$1,$6,$7*
1,1,$1+$1,$8,$9*
0 Add four rect primitives between the rounded corners*
20,1,$1+$1,$2,$3,$4,$5,0*
20,1,$1+$1,$4,$5,$6,$7,0*
20,1,$1+$1,$6,$7,$8,$9,0*
20,1,$1+$1,$8,$9,$2,$3,0*%
G04 Aperture macros list end*
%TA.AperFunction,SMDPad,CuDef*%
%ADD10R,2.200000X2.100000*%
%TD*%
%TA.AperFunction,SMDPad,CuDef*%
%ADD11R,2.700000X2.100000*%
%TD*%
%TA.AperFunction,SMDPad,CuDef*%
%ADD12R,2.000000X2.100000*%
%TD*%
%TA.AperFunction,SMDPad,CuDef*%
%ADD13R,2.600000X2.700000*%
%TD*%
%TA.AperFunction,SMDPad,CuDef*%
%ADD14RoundRect,0.140000X-0.170000X0.140000X-0.170000X-0.140000X0.170000X-0.140000X0.170000X0.140000X0*%
%TD*%
%TA.AperFunction,SMDPad,CuDef*%
%ADD15RoundRect,0.135000X-0.185000X0.135000X-0.185000X-0.135000X0.185000X-0.135000X0.185000X0.135000X0*%
%TD*%
%TA.AperFunction,SMDPad,CuDef*%
%ADD16RoundRect,0.135000X-0.135000X-0.185000X0.135000X-0.185000X0.135000X0.185000X-0.135000X0.185000X0*%
%TD*%
%TA.AperFunction,SMDPad,CuDef*%
%ADD17RoundRect,0.250000X-0.457500X-0.445000X0.457500X-0.445000X0.457500X0.445000X-0.457500X0.445000X0*%
%TD*%
%TA.AperFunction,SMDPad,CuDef*%
%ADD18R,1.000000X1.500000*%
%TD*%
%TA.AperFunction,ComponentPad*%
%ADD19R,1.700000X1.700000*%
%TD*%
%TA.AperFunction,ComponentPad*%
%ADD20C,1.700000*%
%TD*%
%TA.AperFunction,SMDPad,CuDef*%
%ADD21RoundRect,0.150000X0.587500X0.150000X-0.587500X0.150000X-0.587500X-0.150000X0.587500X-0.150000X0*%
%TD*%
%TA.AperFunction,SMDPad,CuDef*%
%ADD22RoundRect,0.140000X0.140000X0.170000X-0.140000X0.170000X-0.140000X-0.170000X0.140000X-0.170000X0*%
%TD*%
%TA.AperFunction,SMDPad,CuDef*%
%ADD23RoundRect,0.243750X-0.456250X0.243750X-0.456250X-0.243750X0.456250X-0.243750X0.456250X0.243750X0*%
%TD*%
%TA.AperFunction,SMDPad,CuDef*%
%ADD24RoundRect,0.250000X-0.250000X-0.475000X0.250000X-0.475000X0.250000X0.475000X-0.250000X0.475000X0*%
%TD*%
%TA.AperFunction,SMDPad,CuDef*%
%ADD25R,0.950000X0.450000*%
%TD*%
%TA.AperFunction,SMDPad,CuDef*%
%ADD26R,3.500000X4.400000*%
%TD*%
%TA.AperFunction,SMDPad,CuDef*%
%ADD27RoundRect,0.135000X0.185000X-0.135000X0.185000X0.135000X-0.185000X0.135000X-0.185000X-0.135000X0*%
%TD*%
%TA.AperFunction,SMDPad,CuDef*%
%ADD28RoundRect,0.250000X-0.400000X-0.600000X0.400000X-0.600000X0.400000X0.600000X-0.400000X0.600000X0*%
%TD*%
%TA.AperFunction,SMDPad,CuDef*%
%ADD29RoundRect,0.250000X2.000000X0.750000X-2.000000X0.750000X-2.000000X-0.750000X2.000000X-0.750000X0*%
%TD*%
%TA.AperFunction,SMDPad,CuDef*%
%ADD30R,0.800000X0.300000*%
%TD*%
%TA.AperFunction,SMDPad,CuDef*%
%ADD31R,0.300000X0.800000*%
%TD*%
%TA.AperFunction,SMDPad,CuDef*%
%ADD32R,3.750000X3.750000*%
%TD*%
%TA.AperFunction,SMDPad,CuDef*%
%ADD33RoundRect,0.140000X-0.140000X-0.170000X0.140000X-0.170000X0.140000X0.170000X-0.140000X0.170000X0*%
%TD*%
%TA.AperFunction,SMDPad,CuDef*%
%ADD34RoundRect,0.135000X0.135000X0.185000X-0.135000X0.185000X-0.135000X-0.185000X0.135000X-0.185000X0*%
%TD*%
%TA.AperFunction,SMDPad,CuDef*%
%ADD35RoundRect,0.140000X0.170000X-0.140000X0.170000X0.140000X-0.170000X0.140000X-0.170000X-0.140000X0*%
%TD*%
%TA.AperFunction,ViaPad*%
%ADD36C,0.406806*%
%TD*%
%TA.AperFunction,ViaPad*%
%ADD37C,0.406400*%
%TD*%
%TA.AperFunction,Conductor*%
%ADD38C,0.365073*%
%TD*%
%TA.AperFunction,Conductor*%
%ADD39C,0.076200*%
%TD*%
%TA.AperFunction,Conductor*%
%ADD40C,0.076276*%
%TD*%
%TA.AperFunction,Conductor*%
%ADD41C,0.080010*%
%TD*%
%TA.AperFunction,Conductor*%
%ADD42C,0.242000*%
%TD*%
G04 APERTURE END LIST*
D10*
%TO.P,J8,1,SLEEVE_1*%
%TO.N,/V1*%
X142410000Y-127960000D03*
%TO.P,J8,2,RING_2*%
%TO.N,/IN6*%
X144310000Y-119860000D03*
D11*
%TO.P,J8,3,TIP_3*%
%TO.N,/LL*%
X151710000Y-127960000D03*
D12*
%TO.P,J8,4,RING_SWITCH_4*%
%TO.N,unconnected-(J8-RING_SWITCH-Pad4)*%
X141610000Y-119860000D03*
D13*
%TO.P,J8,5,TIP_SWITCH_5*%
%TO.N,unconnected-(J8-TIP_SWITCH-Pad5)*%
X155810000Y-123160000D03*
%TD*%
D14*
%TO.P,C2,1*%
%TO.N,GND*%
X166562542Y-112844352D03*
%TO.P,C2,2*%
%TO.N,+3V3*%
X166562542Y-113804352D03*
%TD*%
D15*
%TO.P,R4,1*%
%TO.N,/SYNCB*%
X171430000Y-121690000D03*
%TO.P,R4,2*%
%TO.N,+3V3*%
X171430000Y-122710000D03*
%TD*%
D16*
%TO.P,R11,1*%
%TO.N,/RL*%
X159280000Y-117900000D03*
%TO.P,R11,2*%
%TO.N,Net-(IC1-IN4)*%
X160300000Y-117900000D03*
%TD*%
D17*
%TO.P,C11,1*%
%TO.N,+3V3*%
X180560000Y-115560000D03*
%TO.P,C11,2*%
%TO.N,GND*%
X183265000Y-115560000D03*
%TD*%
D18*
%TO.P,JP2,1,A_1*%
%TO.N,/ADS_WCT*%
X167480000Y-122230000D03*
%TO.P,JP2,2,B_2*%
%TO.N,Net-(IC1-IN6)*%
X166180000Y-122230000D03*
%TD*%
D16*
%TO.P,R14,1*%
%TO.N,+3V3*%
X171710000Y-123700000D03*
%TO.P,R14,2*%
%TO.N,Net-(IC2-WP#{slash}_SIO2)*%
X172730000Y-123700000D03*
%TD*%
D19*
%TO.P,J6,1,Pin_1_1*%
%TO.N,Net-(J6-Pin_1)*%
X182370000Y-107250000D03*
D20*
%TO.P,J6,2,Pin_2_2*%
%TO.N,GND*%
X179830000Y-107250000D03*
%TD*%
D21*
%TO.P,Q1,1,G_1*%
%TO.N,Net-(D1-A)*%
X187075000Y-108830000D03*
%TO.P,Q1,2,S_2*%
%TO.N,Net-(D1-K)*%
X187075000Y-106930000D03*
%TO.P,Q1,3,D_3*%
%TO.N,Net-(J6-Pin_1)*%
X185200000Y-107880000D03*
%TD*%
D16*
%TO.P,R8,1*%
%TO.N,/RA*%
X158890000Y-114820000D03*
%TO.P,R8,2*%
%TO.N,Net-(IC1-IN1)*%
X159910000Y-114820000D03*
%TD*%
D22*
%TO.P,C4,1*%
%TO.N,/VCREF*%
X165480000Y-113640000D03*
%TO.P,C4,2*%
%TO.N,GND*%
X164520000Y-113640000D03*
%TD*%
D14*
%TO.P,C7,1*%
%TO.N,/XTAL1*%
X177500000Y-109030000D03*
%TO.P,C7,2*%
%TO.N,GND*%
X177500000Y-109990000D03*
%TD*%
D15*
%TO.P,R7,1*%
%TO.N,Net-(C6-Pad2)*%
X172510000Y-121693622D03*
%TO.P,R7,2*%
%TO.N,/CMOUT*%
X172510000Y-122713622D03*
%TD*%
D23*
%TO.P,F1,1*%
%TO.N,Net-(F1-Pad1)*%
X178550000Y-113262500D03*
%TO.P,F1,2*%
%TO.N,+3V3*%
X178550000Y-115137500D03*
%TD*%
D15*
%TO.P,R6,1*%
%TO.N,/RLDOUT*%
X174670000Y-119790000D03*
%TO.P,R6,2*%
%TO.N,Net-(C6-Pad2)*%
X174670000Y-120810000D03*
%TD*%
D16*
%TO.P,R3,1*%
%TO.N,/ALARMB*%
X173970000Y-113640000D03*
%TO.P,R3,2*%
%TO.N,+3V3*%
X174990000Y-113640000D03*
%TD*%
D24*
%TO.P,C9,1*%
%TO.N,Net-(D1-K)*%
X180335000Y-113425000D03*
%TO.P,C9,2*%
%TO.N,GND*%
X182235000Y-113425000D03*
%TD*%
D25*
%TO.P,IC2,1,CS#_1*%
%TO.N,Net-(IC2-CS#)*%
X173990000Y-124735000D03*
%TO.P,IC2,2,SO/_SIO1_2*%
%TO.N,Net-(IC2-SO{slash}_SIO1)*%
X173990000Y-126005000D03*
%TO.P,IC2,3,WP#/_SIO2_3*%
%TO.N,Net-(IC2-WP#{slash}_SIO2)*%
X173990000Y-127275000D03*
%TO.P,IC2,4,VSS_4*%
%TO.N,GND*%
X173990000Y-128545000D03*
%TO.P,IC2,5,SI/_SIO0_5*%
%TO.N,Net-(IC2-SI{slash}_SIO0)*%
X181790000Y-128545000D03*
%TO.P,IC2,6,SCLK_6*%
%TO.N,Net-(IC2-SCLK)*%
X181790000Y-127275000D03*
%TO.P,IC2,7,HOLD#/_SIO3_7*%
%TO.N,Net-(IC2-HOLD#{slash}_SIO3)*%
X181790000Y-126005000D03*
%TO.P,IC2,8,VCC_8*%
%TO.N,+3V3*%
X181790000Y-124735000D03*
D26*
%TO.P,IC2,9,EP_9*%
%TO.N,GND*%
X177890000Y-126640000D03*
%TD*%
D14*
%TO.P,C6,1*%
%TO.N,/RLDOUT*%
X173680000Y-119800000D03*
%TO.P,C6,2*%
%TO.N,Net-(C6-Pad2)*%
X173680000Y-120760000D03*
%TD*%
D27*
%TO.P,R5,1*%
%TO.N,/RLDINV*%
X173620000Y-122720000D03*
%TO.P,R5,2*%
%TO.N,Net-(C6-Pad2)*%
X173620000Y-121700000D03*
%TD*%
D10*
%TO.P,J1,1,SLEEVE_1*%
%TO.N,/RL*%
X142400000Y-115630000D03*
%TO.P,J1,2,RING_2*%
%TO.N,/RA*%
X144300000Y-107530000D03*
D11*
%TO.P,J1,3,TIP_3*%
%TO.N,/LA*%
X151700000Y-115630000D03*
D12*
%TO.P,J1,4,RING_SWITCH_4*%
%TO.N,unconnected-(J1-RING_SWITCH-Pad4)*%
X141600000Y-107530000D03*
D13*
%TO.P,J1,5,TIP_SWITCH_5*%
%TO.N,unconnected-(J1-TIP_SWITCH-Pad5)*%
X155800000Y-110830000D03*
%TD*%
D28*
%TO.P,D1,1,K_1*%
%TO.N,Net-(D1-K)*%
X180107500Y-111210000D03*
%TO.P,D1,2,A_2*%
%TO.N,Net-(D1-A)*%
X183607500Y-111210000D03*
%TD*%
D29*
%TO.P,Y2,1,1_1*%
%TO.N,/XTAL1*%
X174427500Y-109020000D03*
%TO.P,Y2,2,2_2*%
%TO.N,/XTAL2*%
X165927500Y-109020000D03*
%TD*%
D15*
%TO.P,FB1,1*%
%TO.N,Net-(D1-K)*%
X178670000Y-111010000D03*
%TO.P,FB1,2*%
%TO.N,Net-(F1-Pad1)*%
X178670000Y-112030000D03*
%TD*%
D14*
%TO.P,C1,1*%
%TO.N,GND*%
X167736761Y-112844352D03*
%TO.P,C1,2*%
%TO.N,+3V3*%
X167736761Y-113804352D03*
%TD*%
D19*
%TO.P,J7,1,Pin_1_1*%
%TO.N,/DRDYB*%
X186410000Y-111835000D03*
D20*
%TO.P,J7,2,Pin_2_2*%
%TO.N,/ALARMB*%
X186410000Y-114375000D03*
%TO.P,J7,3,Pin_3_3*%
%TO.N,/SYNCB*%
X186410000Y-116915000D03*
%TD*%
D16*
%TO.P,R10,1*%
%TO.N,/LL*%
X158690000Y-116870000D03*
%TO.P,R10,2*%
%TO.N,Net-(IC1-IN3)*%
X159710000Y-116870000D03*
%TD*%
D30*
%TO.P,IC1,1,IN1_1*%
%TO.N,Net-(IC1-IN1)*%
X167490000Y-116235000D03*
%TO.P,IC1,2,IN2_2*%
%TO.N,Net-(IC1-IN2)*%
X167490000Y-116735000D03*
%TO.P,IC1,3,IN3_3*%
%TO.N,Net-(IC1-IN3)*%
X167490000Y-117235000D03*
%TO.P,IC1,4,IN4_4*%
%TO.N,Net-(IC1-IN4)*%
X167490000Y-117735000D03*
%TO.P,IC1,5,IN5_5*%
%TO.N,Net-(IC1-IN5)*%
X167490000Y-118235000D03*
%TO.P,IC1,6,IN6_6*%
%TO.N,Net-(IC1-IN6)*%
X167490000Y-118735000D03*
%TO.P,IC1,7,WCT_7*%
%TO.N,/ADS_WCT*%
X167490000Y-119235000D03*
D31*
%TO.P,IC1,8,CMOUT_8*%
%TO.N,/CMOUT*%
X168490000Y-120235000D03*
%TO.P,IC1,9,RLDOUT_9*%
%TO.N,/RLDOUT*%
X168990000Y-120235000D03*
%TO.P,IC1,10,RLDINV_10*%
%TO.N,/RLDINV*%
X169490000Y-120235000D03*
%TO.P,IC1,11,RLDIN_11*%
%TO.N,/RLDIN*%
X169990000Y-120235000D03*
%TO.P,IC1,12,RLDREF_12*%
X170490000Y-120235000D03*
%TO.P,IC1,13,SYNCB_13*%
%TO.N,/SYNCB*%
X170990000Y-120235000D03*
%TO.P,IC1,14,VSSIO_14*%
%TO.N,GND*%
X171490000Y-120235000D03*
D30*
%TO.P,IC1,15,ALARMB_15*%
%TO.N,/ALARMB*%
X172490000Y-119235000D03*
%TO.P,IC1,16,CSB_16*%
%TO.N,Net-(IC1-CSB)*%
X172490000Y-118735000D03*
%TO.P,IC1,17,SCLK_17*%
%TO.N,Net-(IC1-SCLK)*%
X172490000Y-118235000D03*
%TO.P,IC1,18,SDI_18*%
%TO.N,Net-(IC1-SDI)*%
X172490000Y-117735000D03*
%TO.P,IC1,19,SDO_19*%
%TO.N,Net-(IC1-SDO)*%
X172490000Y-117235000D03*
%TO.P,IC1,20,DRDYB_20*%
%TO.N,/DRDYB*%
X172490000Y-116735000D03*
%TO.P,IC1,21,CLK_21*%
%TO.N,unconnected-(IC1-CLK-Pad21)*%
X172490000Y-116235000D03*
D31*
%TO.P,IC1,22,VDDIO_22*%
%TO.N,+3V3*%
X171490000Y-115235000D03*
%TO.P,IC1,23,XTAL1_23*%
%TO.N,/XTAL1*%
X170990000Y-115235000D03*
%TO.P,IC1,24,XTAL2_24*%
%TO.N,/XTAL2*%
X170490000Y-115235000D03*
%TO.P,IC1,25,RSTB_25*%
%TO.N,/RSTB*%
X169990000Y-115235000D03*
%TO.P,IC1,26,CVREF_26*%
%TO.N,/VCREF*%
X169490000Y-115235000D03*
%TO.P,IC1,27,VSS_27*%
%TO.N,GND*%
X168990000Y-115235000D03*
%TO.P,IC1,28,VDD_28*%
%TO.N,+3V3*%
X168490000Y-115235000D03*
D32*
%TO.P,IC1,29,GND_29*%
%TO.N,GND*%
X169990000Y-117735000D03*
%TD*%
D18*
%TO.P,JP1,1,A_1*%
%TO.N,Net-(IC1-IN6)*%
X160700000Y-127980000D03*
%TO.P,JP1,2,B_2*%
%TO.N,/IN6*%
X159400000Y-127980000D03*
%TD*%
D16*
%TO.P,R9,1*%
%TO.N,/LA*%
X158520000Y-115850000D03*
%TO.P,R9,2*%
%TO.N,Net-(IC1-IN2)*%
X159540000Y-115850000D03*
%TD*%
D33*
%TO.P,C3,1*%
%TO.N,GND*%
X165123480Y-115179495D03*
%TO.P,C3,2*%
%TO.N,+3V3*%
X166083480Y-115179495D03*
%TD*%
D16*
%TO.P,R12,1*%
%TO.N,/V1*%
X158960000Y-122160000D03*
%TO.P,R12,2*%
%TO.N,Net-(IC1-IN5)*%
X159980000Y-122160000D03*
%TD*%
D27*
%TO.P,R2,1*%
%TO.N,/DRDYB*%
X173720000Y-115620000D03*
%TO.P,R2,2*%
%TO.N,+3V3*%
X173720000Y-114600000D03*
%TD*%
D19*
%TO.P,J3,1,Pin_1_1*%
%TO.N,Net-(IC2-SCLK)*%
X163520000Y-128170000D03*
D20*
%TO.P,J3,2,Pin_2_2*%
%TO.N,Net-(IC2-SI{slash}_SIO0)*%
X166060000Y-128170000D03*
%TO.P,J3,3,Pin_3_3*%
%TO.N,Net-(IC2-CS#)*%
X168600000Y-128170000D03*
%TO.P,J3,4,Pin_4_4*%
%TO.N,Net-(IC2-SO{slash}_SIO1)*%
X171140000Y-128170000D03*
%TD*%
D16*
%TO.P,R1,1*%
%TO.N,/RSTB*%
X171970000Y-113650000D03*
%TO.P,R1,2*%
%TO.N,+3V3*%
X172990000Y-113650000D03*
%TD*%
D14*
%TO.P,C8,1*%
%TO.N,/XTAL2*%
X162890000Y-109030000D03*
%TO.P,C8,2*%
%TO.N,GND*%
X162890000Y-109990000D03*
%TD*%
D34*
%TO.P,R15,1*%
%TO.N,Net-(IC2-HOLD#{slash}_SIO3)*%
X172740000Y-124710000D03*
%TO.P,R15,2*%
%TO.N,+3V3*%
X171720000Y-124710000D03*
%TD*%
D16*
%TO.P,R13,1*%
%TO.N,GND*%
X182730000Y-109550000D03*
%TO.P,R13,2*%
%TO.N,Net-(D1-A)*%
X183750000Y-109550000D03*
%TD*%
D14*
%TO.P,C5,1*%
%TO.N,/RLDIN*%
X170320042Y-121743590D03*
%TO.P,C5,2*%
%TO.N,GND*%
X170320042Y-122703590D03*
%TD*%
D19*
%TO.P,J2,1,Pin_1_1*%
%TO.N,Net-(IC1-SDO)*%
X186420000Y-120570000D03*
D20*
%TO.P,J2,2,Pin_2_2*%
%TO.N,Net-(IC1-SDI)*%
X186420000Y-123110000D03*
%TO.P,J2,3,Pin_3_3*%
%TO.N,Net-(IC1-SCLK)*%
X186420000Y-125650000D03*
%TO.P,J2,4,Pin_4_4*%
%TO.N,Net-(IC1-CSB)*%
X186420000Y-128190000D03*
%TD*%
D35*
%TO.P,C10,1*%
%TO.N,+3V3*%
X183060000Y-123780000D03*
%TO.P,C10,2*%
%TO.N,GND*%
X183060000Y-122820000D03*
%TD*%
D36*
%TO.N,/V1*%
X143796958Y-127844099D03*
X157810000Y-122160000D03*
D37*
%TO.N,/IN6*%
X157060000Y-127630000D03*
X148610000Y-125220000D03*
D36*
%TO.N,GND*%
X140415498Y-108989075D03*
X152065644Y-105925498D03*
X167730000Y-112090000D03*
X144795042Y-113098868D03*
X185024200Y-111496012D03*
X161941930Y-126139814D03*
X186200666Y-129544502D03*
X161468880Y-110499023D03*
X168918687Y-114526417D03*
X177323816Y-116085641D03*
X159832408Y-105925498D03*
X154014502Y-109480000D03*
X169587803Y-123112721D03*
X183132701Y-105925498D03*
D37*
X177890000Y-124130000D03*
D36*
X180316953Y-121220264D03*
D37*
X162780000Y-110680000D03*
X182010000Y-109550000D03*
D36*
X166560000Y-112080000D03*
X140415498Y-121314933D03*
X165130000Y-114460000D03*
X175365937Y-105925498D03*
X163670000Y-113710000D03*
X164490000Y-114380000D03*
X154010000Y-119080000D03*
X155949026Y-105925498D03*
X182317284Y-129544502D03*
X163715791Y-105925498D03*
X170515016Y-123279441D03*
X148182262Y-105925498D03*
X164691913Y-119046238D03*
X164687896Y-123393848D03*
X175925498Y-111292562D03*
X169075157Y-110567350D03*
X183950000Y-116520000D03*
X187016083Y-105925498D03*
X175982978Y-122830314D03*
X179249319Y-105925498D03*
X150470000Y-119360000D03*
X171929028Y-120201956D03*
D37*
X173980000Y-129110000D03*
D36*
X144538909Y-127174450D03*
D37*
X183170000Y-113420000D03*
D36*
X153650670Y-128628035D03*
D37*
X178480000Y-106960000D03*
D36*
X157534052Y-128628035D03*
X146131111Y-116732918D03*
X166783756Y-129544502D03*
X148374545Y-127060712D03*
X144298880Y-105925498D03*
X185450254Y-119393512D03*
X156283102Y-124995498D03*
X149892396Y-112716419D03*
X140415498Y-128729085D03*
X182798173Y-124906578D03*
X171482555Y-105925498D03*
D37*
X177420000Y-110680000D03*
D36*
X159209530Y-114119823D03*
X155428521Y-113798377D03*
X140825481Y-114553495D03*
D37*
X183050000Y-122160000D03*
D36*
X187777505Y-116085641D03*
X142960000Y-122300000D03*
X167599173Y-105925498D03*
%TO.N,+3V3*%
X172008308Y-115236505D03*
X168013195Y-115128087D03*
D37*
X182030000Y-123780000D03*
X166350000Y-123910000D03*
X178690000Y-116280000D03*
%TO.N,/SYNCB*%
X172400000Y-120990000D03*
X184860000Y-116920000D03*
D36*
%TO.N,/RL*%
X143817168Y-115668455D03*
X158630098Y-118000784D03*
D37*
%TO.N,Net-(D1-K)*%
X180107500Y-109910000D03*
X184940000Y-106950000D03*
D36*
%TO.N,/RLDOUT*%
X168931983Y-120927370D03*
D37*
X174190000Y-119030000D03*
D36*
%TO.N,/ALARMB*%
X173784745Y-118402190D03*
D37*
X173660000Y-112860000D03*
X177270000Y-113060000D03*
%TO.N,Net-(IC2-HOLD#{slash}_SIO3)*%
X180640000Y-126230000D03*
X173500000Y-124017500D03*
D36*
%TO.N,/RLDINV*%
X169490000Y-121240000D03*
D37*
X174470000Y-121760000D03*
%TO.N,/DRDYB*%
X174750000Y-115940000D03*
%TO.N,Net-(IC1-SCLK)*%
X184550000Y-125340000D03*
D36*
X173405593Y-117824075D03*
%TO.N,Net-(IC1-SDI)*%
X173407896Y-117327966D03*
D37*
%TO.N,/RSTB*%
X170050000Y-114110000D03*
X171307538Y-113720000D03*
%TD*%
%TO.N,/V1*%
D38*
X143625901Y-127844099D02*
X143796958Y-127844099D01*
X143510000Y-127960000D02*
X143625901Y-127844099D01*
X142960000Y-127960000D02*
X143510000Y-127960000D01*
X142410000Y-127960000D02*
X142960000Y-127960000D01*
X157810000Y-122160000D02*
X158960000Y-122160000D01*
%TO.N,/IN6*%
X144300000Y-120910000D02*
X144300000Y-119870000D01*
X157060000Y-127630000D02*
X159050000Y-127630000D01*
X159050000Y-127630000D02*
X159400000Y-127980000D01*
D39*
X144300000Y-119870000D02*
X144310000Y-119860000D01*
D38*
X148610000Y-125220000D02*
X144300000Y-120910000D01*
%TO.N,/LL*%
X151710000Y-127960000D02*
X151710000Y-123850000D01*
X151710000Y-123850000D02*
X158690000Y-116870000D01*
%TO.N,GND*%
D39*
X173990000Y-128545000D02*
X175985000Y-128545000D01*
D40*
X170320000Y-123079393D02*
X170320000Y-122984000D01*
D39*
X177500000Y-109990000D02*
X177500000Y-110600000D01*
D40*
X168990000Y-115635000D02*
X168990000Y-115764607D01*
D39*
X182010000Y-109550000D02*
X182730000Y-109550000D01*
X175985000Y-128545000D02*
X177890000Y-126640000D01*
D40*
X171490000Y-120235000D02*
X171490000Y-119235000D01*
X170515016Y-123279441D02*
X170505243Y-123269669D01*
X166562500Y-112188454D02*
X166562500Y-112844000D01*
X170505243Y-123264636D02*
X170320000Y-123079393D01*
D39*
X183060000Y-122170000D02*
X183050000Y-122160000D01*
D40*
X171490000Y-119235000D02*
X169990000Y-117735000D01*
X168990000Y-114663140D02*
X168990000Y-114597730D01*
D39*
X164490000Y-114246617D02*
X164520000Y-114216617D01*
D40*
X168990000Y-114835000D02*
X168990000Y-114663140D01*
X167730000Y-112345907D02*
X167737000Y-112352907D01*
X166560000Y-112080000D02*
X166560000Y-112185954D01*
X170320000Y-122984000D02*
X170320000Y-122703500D01*
X167730000Y-112090000D02*
X167730000Y-112345907D01*
D39*
X183060000Y-122820000D02*
X183060000Y-122170000D01*
D40*
X170505243Y-123269669D02*
X170505243Y-123264636D01*
D39*
X173990000Y-128545000D02*
X173990000Y-129100000D01*
D40*
X165130000Y-114460000D02*
X165130000Y-114747990D01*
X169990000Y-118262928D02*
X169990000Y-117735000D01*
X168990000Y-115235000D02*
X168990000Y-114835000D01*
D39*
X177890000Y-126640000D02*
X177890000Y-124130000D01*
D40*
X168990000Y-114597730D02*
X168918687Y-114526417D01*
D39*
X182235000Y-113425000D02*
X183165000Y-113425000D01*
X177500000Y-110600000D02*
X177420000Y-110680000D01*
X183265000Y-115560000D02*
X183265000Y-115835000D01*
D40*
X171895985Y-120235000D02*
X171490000Y-120235000D01*
D39*
X183265000Y-115835000D02*
X183950000Y-116520000D01*
X183165000Y-113425000D02*
X183170000Y-113420000D01*
D40*
X167737000Y-112352907D02*
X167737000Y-112844000D01*
D39*
X164520000Y-114216617D02*
X164520000Y-113640000D01*
D40*
X165130000Y-114747990D02*
X165123500Y-114754490D01*
X169990000Y-115764607D02*
X169990000Y-115860000D01*
X168990000Y-115764607D02*
X169990000Y-115764607D01*
X166560000Y-112185954D02*
X166562500Y-112188454D01*
X165123500Y-114754490D02*
X165123500Y-115179500D01*
X169990000Y-115860000D02*
X169990000Y-117735000D01*
D39*
X162890000Y-110570000D02*
X162780000Y-110680000D01*
X162890000Y-109990000D02*
X162890000Y-110570000D01*
X164490000Y-114380000D02*
X164490000Y-114246617D01*
D40*
X171929028Y-120201956D02*
X171895985Y-120235000D01*
X168990000Y-115235000D02*
X168990000Y-115635000D01*
D39*
X173990000Y-129100000D02*
X173980000Y-129110000D01*
%TO.N,+3V3*%
D41*
X168013195Y-115128087D02*
X168120108Y-115235000D01*
D39*
X178550000Y-116140000D02*
X178550000Y-115137500D01*
D41*
X167737000Y-114183161D02*
X167737000Y-114085000D01*
X174990000Y-114630000D02*
X173750000Y-114630000D01*
X167426000Y-113804000D02*
X167737000Y-113804000D01*
X173399000Y-114600000D02*
X173720000Y-114600000D01*
X168110263Y-114556424D02*
X167737000Y-114183161D01*
D39*
X174990000Y-113640000D02*
X174990000Y-114630000D01*
D41*
X168490000Y-115235000D02*
X168490000Y-114835000D01*
X173181906Y-114600000D02*
X173399000Y-114600000D01*
X168201240Y-115235000D02*
X168340000Y-115235000D01*
D39*
X171430000Y-122710000D02*
X171430000Y-122979999D01*
D41*
X172990000Y-114330000D02*
X172990000Y-113650000D01*
X166562500Y-114231656D02*
X166083500Y-114710656D01*
D39*
X171710000Y-123700000D02*
X171710000Y-123259999D01*
D41*
X166083500Y-114869000D02*
X166083500Y-115179500D01*
X171490000Y-114617906D02*
X171719867Y-114388038D01*
D39*
X182030000Y-123780000D02*
X181790000Y-124020000D01*
D41*
X168490000Y-114617906D02*
X168428518Y-114556424D01*
X171490000Y-114835000D02*
X171490000Y-114617906D01*
X172008308Y-115236505D02*
X172006802Y-115235000D01*
X171857094Y-115235000D02*
X171640000Y-115235000D01*
D39*
X171710000Y-123259999D02*
X171430000Y-122979999D01*
X178972500Y-115560000D02*
X178550000Y-115137500D01*
D41*
X171719867Y-114388038D02*
X172969944Y-114388038D01*
X168428518Y-114556424D02*
X168110263Y-114556424D01*
X168340000Y-115235000D02*
X168490000Y-115235000D01*
X171640000Y-115235000D02*
X171490000Y-115235000D01*
D39*
X183060000Y-123780000D02*
X182745000Y-123780000D01*
D41*
X167737000Y-114085000D02*
X167737000Y-113804000D01*
X166562500Y-113804000D02*
X166873000Y-113804000D01*
X175560000Y-114630000D02*
X174990000Y-114630000D01*
X172969944Y-114388038D02*
X172969944Y-114350056D01*
X166873000Y-113804000D02*
X167090094Y-113804000D01*
D39*
X178690000Y-116280000D02*
X178550000Y-116140000D01*
X178550000Y-115137500D02*
X176067500Y-115137500D01*
X181790000Y-124020000D02*
X181790000Y-124735000D01*
X171430000Y-122979999D02*
X170499999Y-123910000D01*
D41*
X168490000Y-114835000D02*
X168490000Y-114617906D01*
D39*
X176067500Y-115137500D02*
X175560000Y-114630000D01*
X183060000Y-123780000D02*
X182030000Y-123780000D01*
D41*
X172006802Y-115235000D02*
X171857094Y-115235000D01*
D39*
X180560000Y-115560000D02*
X178972500Y-115560000D01*
D41*
X166562500Y-114085000D02*
X166562500Y-114231656D01*
X172969944Y-114350056D02*
X172990000Y-114330000D01*
D39*
X171710000Y-123700000D02*
X171710000Y-124700000D01*
D41*
X166083500Y-114710656D02*
X166083500Y-114869000D01*
X166562500Y-113804000D02*
X166562500Y-114085000D01*
D39*
X170499999Y-123910000D02*
X166350000Y-123910000D01*
D41*
X167090094Y-113804000D02*
X167208906Y-113804000D01*
X173750000Y-114630000D02*
X173720000Y-114600000D01*
X167208906Y-113804000D02*
X167426000Y-113804000D01*
X168120108Y-115235000D02*
X168201240Y-115235000D01*
X171490000Y-115235000D02*
X171490000Y-114835000D01*
X172969944Y-114388038D02*
X173181906Y-114600000D01*
D39*
X171710000Y-124700000D02*
X171720000Y-124710000D01*
%TO.N,/SYNCB*%
X184860000Y-116920000D02*
X186400000Y-116920000D01*
D40*
X171287625Y-120782625D02*
X170990000Y-120485000D01*
D39*
X172400000Y-120990000D02*
X172130000Y-120990000D01*
X171430000Y-121690000D02*
X171430000Y-120782625D01*
D40*
X170990000Y-120485000D02*
X170990000Y-120235000D01*
X171430000Y-120782625D02*
X171287625Y-120782625D01*
D39*
X172130000Y-120990000D02*
X171430000Y-121690000D01*
%TO.N,/RL*%
D38*
X142950000Y-115630000D02*
X142400000Y-115630000D01*
X159222210Y-117842210D02*
X159280000Y-117900000D01*
X143500000Y-115630000D02*
X142950000Y-115630000D01*
X143817168Y-115668455D02*
X143778713Y-115630000D01*
X158630098Y-118000784D02*
X158788672Y-117842210D01*
X158788672Y-117842210D02*
X159222210Y-117842210D01*
X143778713Y-115630000D02*
X143500000Y-115630000D01*
%TO.N,Net-(IC1-IN4)*%
X160300000Y-117900000D02*
X160280000Y-117880000D01*
X167490000Y-117735000D02*
X160465000Y-117735000D01*
X160465000Y-117735000D02*
X160300000Y-117900000D01*
%TO.N,/ADS_WCT*%
D40*
X167480000Y-122230000D02*
X167490000Y-122220000D01*
X167490000Y-122220000D02*
X167490000Y-119235000D01*
%TO.N,Net-(IC1-IN6)*%
D38*
X166180000Y-119477526D02*
X166922526Y-118735000D01*
X160700000Y-126437000D02*
X160700000Y-127230000D01*
X164887000Y-122230000D02*
X164859680Y-122257321D01*
X166180000Y-122230000D02*
X165680000Y-122230000D01*
X165680000Y-122230000D02*
X164887000Y-122230000D01*
X164859680Y-122277321D02*
X160700000Y-126437000D01*
X164859680Y-122257321D02*
X164859680Y-122277321D01*
X166180000Y-122230000D02*
X166180000Y-119477526D01*
X166922526Y-118735000D02*
X167490000Y-118735000D01*
X160700000Y-127230000D02*
X160700000Y-127980000D01*
D42*
X167290000Y-118735000D02*
X167490000Y-118735000D01*
%TO.N,Net-(IC2-WP#{slash}_SIO2)*%
D39*
X172730000Y-123700000D02*
X173883600Y-123700000D01*
X173883600Y-123700000D02*
X174579300Y-124395700D01*
X174579300Y-126685700D02*
X173990000Y-127275000D01*
X174579300Y-124395700D02*
X174579300Y-126685700D01*
%TO.N,Net-(J6-Pin_1)*%
X182370000Y-107250000D02*
X184570000Y-107250000D01*
X184570000Y-107250000D02*
X185200000Y-107880000D01*
%TO.N,Net-(D1-A)*%
X183750000Y-109550000D02*
X186355000Y-109550000D01*
X186355000Y-109550000D02*
X187075000Y-108830000D01*
X183607500Y-109692500D02*
X183750000Y-109550000D01*
X183607500Y-111210000D02*
X183607500Y-109692500D01*
%TO.N,Net-(D1-K)*%
X180300000Y-111402500D02*
X180107500Y-111210000D01*
X184940000Y-106950000D02*
X185110000Y-106950000D01*
X180300000Y-111770000D02*
X180300000Y-111402500D01*
X179755100Y-111010000D02*
X179955100Y-111210000D01*
X180335000Y-113425000D02*
X180335000Y-111437500D01*
X185110000Y-106950000D02*
X185130000Y-106930000D01*
X185130000Y-106930000D02*
X187075000Y-106930000D01*
X178670000Y-111010000D02*
X179755100Y-111010000D01*
X180107500Y-109910000D02*
X180107500Y-111210000D01*
X180335000Y-111437500D02*
X180107500Y-111210000D01*
%TO.N,/RA*%
D38*
X157722865Y-114282865D02*
X158260000Y-114820000D01*
X158260000Y-114820000D02*
X158890000Y-114820000D01*
X144300000Y-109373000D02*
X149209865Y-114282865D01*
X149209865Y-114282865D02*
X157722865Y-114282865D01*
X144300000Y-107530000D02*
X144300000Y-109373000D01*
%TO.N,Net-(IC1-IN1)*%
X167477939Y-116247061D02*
X161434242Y-116247061D01*
X167490000Y-116235000D02*
X167477939Y-116247061D01*
X161434242Y-116247061D02*
X160007181Y-114820000D01*
X160007181Y-114820000D02*
X159910000Y-114820000D01*
%TO.N,/VCREF*%
D40*
X169490000Y-114835000D02*
X169490000Y-114624907D01*
X169490000Y-115235000D02*
X169490000Y-114835000D01*
X168188042Y-113322949D02*
X166266421Y-113322949D01*
D39*
X165480000Y-113640000D02*
X166003550Y-113640000D01*
D40*
X169490000Y-114624907D02*
X168188042Y-113322949D01*
X166023550Y-113565819D02*
X166023550Y-113620000D01*
X166266421Y-113322949D02*
X166023550Y-113565819D01*
D39*
X166003550Y-113640000D02*
X166023550Y-113620000D01*
%TO.N,/XTAL1*%
X177500000Y-109030000D02*
X174437500Y-109030000D01*
X174437500Y-109030000D02*
X174427500Y-109020000D01*
D40*
X170990000Y-115235000D02*
X170990000Y-112457500D01*
X170990000Y-112457500D02*
X174427500Y-109020000D01*
%TO.N,Net-(C6-Pad2)*%
D39*
X172516378Y-121700000D02*
X172510000Y-121693622D01*
X174670000Y-120810000D02*
X173730000Y-120810000D01*
X173620000Y-121700000D02*
X172516378Y-121700000D01*
X173730000Y-120810000D02*
X173680000Y-120760000D01*
X173620000Y-120820000D02*
X173680000Y-120760000D01*
X173620000Y-121700000D02*
X173620000Y-120820000D01*
%TO.N,/CMOUT*%
D40*
X169819079Y-122306678D02*
X168490000Y-120977598D01*
X168490000Y-120635000D02*
X168490000Y-120235000D01*
D39*
X172510000Y-122713622D02*
X172103056Y-122306678D01*
X172103056Y-122306678D02*
X169819079Y-122306678D01*
D40*
X168490000Y-120977598D02*
X168490000Y-120825977D01*
X168490000Y-120825977D02*
X168490000Y-120635000D01*
%TO.N,Net-(F1-Pad1)*%
D39*
X178670000Y-113142500D02*
X178550000Y-113262500D01*
X178670000Y-112030000D02*
X178670000Y-113142500D01*
%TO.N,/RLDOUT*%
D40*
X174190000Y-119030000D02*
X173680000Y-119540000D01*
X168990000Y-120869353D02*
X168990000Y-120825977D01*
D39*
X174670000Y-119790000D02*
X173690000Y-119790000D01*
D40*
X168990000Y-120825977D02*
X168990000Y-120635000D01*
X173680000Y-119540000D02*
X173680000Y-119800000D01*
X168990000Y-120635000D02*
X168990000Y-120235000D01*
D39*
X173690000Y-119790000D02*
X173680000Y-119800000D01*
D40*
X168931983Y-120927370D02*
X168990000Y-120869353D01*
%TO.N,/ALARMB*%
X173784745Y-118550348D02*
X173100093Y-119235000D01*
X173670000Y-112870000D02*
X173670000Y-113340000D01*
X172890000Y-119235000D02*
X172490000Y-119235000D01*
X174550000Y-113060000D02*
X173970000Y-113640000D01*
X173784745Y-118402190D02*
X173784745Y-118550348D01*
X177270000Y-113060000D02*
X174550000Y-113060000D01*
X173100093Y-119235000D02*
X172890000Y-119235000D01*
X173670000Y-113340000D02*
X173970000Y-113640000D01*
X173660000Y-112860000D02*
X173670000Y-112870000D01*
%TO.N,Net-(IC2-CS#)*%
D39*
X172927704Y-125490000D02*
X171280000Y-125490000D01*
X173682704Y-124735000D02*
X172927704Y-125490000D01*
X171280000Y-125490000D02*
X168600000Y-128170000D01*
X173990000Y-124735000D02*
X173682704Y-124735000D01*
%TO.N,Net-(IC2-SO{slash}_SIO1)*%
X173305000Y-126005000D02*
X171140000Y-128170000D01*
X173990000Y-126005000D02*
X173305000Y-126005000D01*
%TO.N,Net-(IC2-SI{slash}_SIO0)*%
X181790000Y-128545000D02*
X180905000Y-129430000D01*
X180905000Y-129430000D02*
X173660000Y-129430000D01*
X167260000Y-129370000D02*
X166060000Y-128170000D01*
X173600000Y-129370000D02*
X167260000Y-129370000D01*
X173660000Y-129430000D02*
X173600000Y-129370000D01*
%TO.N,Net-(IC2-SCLK)*%
X182379300Y-128884300D02*
X181401395Y-129862205D01*
X181790000Y-127275000D02*
X182379300Y-127864300D01*
X182379300Y-127864300D02*
X182379300Y-128884300D01*
X181401395Y-129862205D02*
X165212205Y-129862205D01*
X165212205Y-129862205D02*
X163520000Y-128170000D01*
%TO.N,Net-(IC2-HOLD#{slash}_SIO3)*%
X173500000Y-124120000D02*
X172910000Y-124710000D01*
X172910000Y-124710000D02*
X172740000Y-124710000D01*
X173500000Y-124017500D02*
X173500000Y-124120000D01*
X180865000Y-126005000D02*
X181790000Y-126005000D01*
X180640000Y-126230000D02*
X180865000Y-126005000D01*
%TO.N,/RLDINV*%
D40*
X174470000Y-121870000D02*
X173620000Y-122720000D01*
X174470000Y-121760000D02*
X174470000Y-121870000D01*
X169490000Y-121240000D02*
X169490000Y-120235000D01*
%TO.N,/LA*%
D38*
X152176000Y-116106000D02*
X158264000Y-116106000D01*
X151700000Y-115630000D02*
X152176000Y-116106000D01*
X158264000Y-116106000D02*
X158520000Y-115850000D01*
%TO.N,/XTAL2*%
D40*
X170490000Y-115235000D02*
X170490000Y-113590000D01*
X170120000Y-113220000D02*
X170120000Y-113212500D01*
X165927500Y-109020000D02*
X162900000Y-109020000D01*
X170490000Y-113590000D02*
X170120000Y-113220000D01*
X162900000Y-109020000D02*
X162890000Y-109030000D01*
X170120000Y-113212500D02*
X165927500Y-109020000D01*
%TO.N,/DRDYB*%
D39*
X174430000Y-115620000D02*
X173720000Y-115620000D01*
D40*
X172768676Y-116735000D02*
X172490000Y-116735000D01*
D39*
X174750000Y-115940000D02*
X174430000Y-115620000D01*
D40*
X173004338Y-116499338D02*
X172768676Y-116735000D01*
X173720000Y-115620000D02*
X173004338Y-115620000D01*
X173004338Y-115620000D02*
X173004338Y-116499338D01*
%TO.N,Net-(IC1-IN3)*%
D38*
X160075000Y-117235000D02*
X167490000Y-117235000D01*
X159710000Y-116870000D02*
X160075000Y-117235000D01*
%TO.N,Net-(IC1-IN2)*%
X160891065Y-116735000D02*
X167490000Y-116735000D01*
X159540000Y-115850000D02*
X160006065Y-115850000D01*
X160006065Y-115850000D02*
X160891065Y-116735000D01*
%TO.N,Net-(IC1-IN5)*%
X162061758Y-118261273D02*
X162069269Y-118253762D01*
X162069269Y-118253762D02*
X167471238Y-118253762D01*
X161675189Y-118261273D02*
X162061758Y-118261273D01*
X167471238Y-118253762D02*
X167490000Y-118235000D01*
X159980000Y-122160000D02*
X159980000Y-119956462D01*
X159980000Y-119956462D02*
X161675189Y-118261273D01*
%TO.N,/RLDIN*%
D40*
X170340000Y-120235000D02*
X170129907Y-120235000D01*
X169990000Y-120235000D02*
X169990000Y-120635000D01*
X170320000Y-121011330D02*
X170320000Y-121252907D01*
X170129907Y-120235000D02*
X169990000Y-120235000D01*
X169990000Y-120681330D02*
X170320000Y-121011330D01*
X169990000Y-120635000D02*
X169990000Y-120681330D01*
X170320000Y-121252907D02*
X170320000Y-121463000D01*
X170490000Y-120235000D02*
X170340000Y-120235000D01*
X170320000Y-121463000D02*
X170320000Y-121743500D01*
%TO.N,Net-(IC1-CSB)*%
X172490000Y-118735000D02*
X172890000Y-118735000D01*
X172985393Y-118735000D02*
X173659728Y-118060665D01*
D39*
X186420000Y-128190000D02*
X184246592Y-128190000D01*
D40*
X174117256Y-118060665D02*
X174857738Y-118801146D01*
X173659728Y-118060665D02*
X174117256Y-118060665D01*
X172890000Y-118735000D02*
X172985393Y-118735000D01*
D39*
X184246592Y-128190000D02*
X174857738Y-118801146D01*
%TO.N,Net-(IC1-SCLK)*%
D40*
X172490000Y-118235000D02*
X172890000Y-118235000D01*
X184860000Y-125650000D02*
X186420000Y-125650000D01*
X184550000Y-125340000D02*
X184860000Y-125650000D01*
X172985393Y-118235000D02*
X173396318Y-117824075D01*
X172890000Y-118235000D02*
X172985393Y-118235000D01*
X173396318Y-117824075D02*
X173405593Y-117824075D01*
%TO.N,Net-(IC1-SDI)*%
X172890000Y-117735000D02*
X172490000Y-117735000D01*
X173351102Y-117384759D02*
X173335634Y-117384759D01*
D39*
X186420000Y-123110000D02*
X186240000Y-123290000D01*
X173940639Y-117327966D02*
X173407896Y-117327966D01*
D40*
X173407896Y-117327966D02*
X173351102Y-117384759D01*
X172985393Y-117735000D02*
X172890000Y-117735000D01*
D39*
X179902673Y-123290000D02*
X173940639Y-117327966D01*
X186240000Y-123290000D02*
X179902673Y-123290000D01*
D40*
X173335634Y-117384759D02*
X172985393Y-117735000D01*
%TO.N,Net-(IC1-SDO)*%
X176101816Y-116731342D02*
X173243658Y-116731342D01*
D39*
X186420000Y-120570000D02*
X184350000Y-120570000D01*
X184350000Y-120570000D02*
X180510000Y-116730000D01*
D40*
X176103158Y-116730000D02*
X176101816Y-116731342D01*
D39*
X180510000Y-116730000D02*
X179560000Y-116730000D01*
D40*
X179560000Y-116730000D02*
X176103158Y-116730000D01*
X173243658Y-116731342D02*
X172740000Y-117235000D01*
X172740000Y-117235000D02*
X172490000Y-117235000D01*
%TO.N,/RSTB*%
X169990000Y-114835000D02*
X169990000Y-115235000D01*
D39*
X171900000Y-113720000D02*
X171970000Y-113650000D01*
X169990000Y-114170000D02*
X169990000Y-114739607D01*
X170050000Y-114110000D02*
X169990000Y-114170000D01*
X171307538Y-113720000D02*
X171900000Y-113720000D01*
D40*
X169990000Y-114739607D02*
X169990000Y-114835000D01*
%TD*%
M02*
