M48
; DRILL file KiCad 10.0.1 date 2026-06-30T19:13:50
; FORMAT={-:-/ absolute / inch / decimal}
; #@! TF.CreationDate,2026-06-30T19:13:50+02:00
; #@! TF.GenerationSoftware,Kicad,Pcbnew,10.0.1
; #@! TF.FileFunction,Plated,1,4,PTH
FMAT,2
INCH
; #@! TA.AperFunction,Plated,PTH,ViaDrill
T1C0.0100
; #@! TA.AperFunction,Plated,PTH,ViaDrill
T2C0.0100
; #@! TA.AperFunction,Plated,PTH,ComponentDrill
T3C0.0394
%
G90
G05
T1
X5.8508Y-4.9299
X6.1835Y-5.0248
X6.4087Y-4.3575
X6.5492Y-4.8783
X6.6949Y-4.4925
X6.7465Y-4.4772
X6.7874Y-4.7634
X6.8016Y-4.9902
X6.837Y-4.4433
X6.8413Y-4.8878
X6.8484Y-4.9374
X6.8496Y-5.0831
X6.8579Y-4.6862
X6.8689Y-4.7937
X6.8799Y-4.5646
X6.9024Y-4.8736
X6.9406Y-4.8571
X6.9583Y-4.5098
X6.972Y-4.4512
X6.9783Y-4.8871
X6.9831Y-4.3398
X6.9913Y-4.3724
X7.0059Y-4.8272
X7.0268Y-4.211
X7.0417Y-4.6783
X7.0496Y-4.4335
X7.0827Y-4.624
X7.1193Y-4.9689
X7.1665Y-4.8732
X7.2067Y-4.8094
X7.2657Y-4.9346
X7.278Y-4.6031
T2
X5.5282Y-4.2909
X5.5282Y-4.7762
X5.5282Y-5.0681
X5.5443Y-4.51
X5.6283Y-4.815
X5.6613Y-5.0332
X5.6621Y-4.5539
X5.6811Y-4.1703
X5.6905Y-5.0069
X5.7006Y-4.4527
X5.7532Y-4.5958
X5.8339Y-4.1703
X5.8415Y-5.0024
X5.9013Y-4.4377
X5.924Y-4.6992
X5.9868Y-4.1703
X6.0492Y-5.0641
X6.0634Y-4.6882
X6.0636Y-4.3102
X6.1397Y-4.1703
X6.1421Y-4.4524
X6.1529Y-4.9211
X6.2021Y-5.0641
X6.213Y-4.8094
X6.2453Y-4.6457
X6.2681Y-4.4929
X6.2926Y-4.1703
X6.357Y-4.3504
X6.3757Y-4.9661
X6.4437Y-4.4768
X6.4455Y-4.1703
X6.476Y-4.5031
X6.4838Y-4.858
X6.4839Y-4.6869
X6.5012Y-4.5063
X6.5575Y-4.4126
X6.5984Y-4.1703
X6.6035Y-4.413
X6.6147Y-4.5326
X6.6503Y-4.5089
X6.6509Y-4.7609
X6.6565Y-4.353
X6.6728Y-4.7732
X6.6767Y-4.847
X6.7132Y-4.8535
X6.7513Y-4.1703
X6.7689Y-4.7324
X6.772Y-4.5369
X6.8354Y-4.6287
X6.8419Y-4.6615
X6.9042Y-4.1703
X6.9262Y-4.3816
X6.9285Y-4.8358
X7.0571Y-4.1703
X7.0991Y-4.7725
X7.1778Y-5.1002
X7.1968Y-4.9176
X7.2099Y-4.1703
X7.2844Y-4.3896
X7.3012Y-4.7005
X7.3307Y-5.1002
X7.3628Y-4.1703
X7.3928Y-4.5703
T3
X7.0799Y-4.2224
X7.1799Y-4.2224
X7.3398Y-4.6469
X7.3398Y-4.7469
X7.3398Y-4.8469
X7.3398Y-4.9469
X7.3398Y-5.0469
X7.3406Y-4.3024
X7.3406Y-4.4024
X7.3406Y-4.5024
M30
