%TF.GenerationSoftware,KiCad,Pcbnew,10.0.1*%
%TF.CreationDate,2026-06-18T22:01:11+02:00*%
%TF.ProjectId,ADS1293CISQ,41445331-3239-4334-9349-53512e6b6963,rev?*%
%TF.SameCoordinates,Original*%
%TF.FileFunction,Soldermask,Bot*%
%TF.FilePolarity,Negative*%
%FSLAX46Y46*%
G04 Gerber Fmt 4.6, Leading zero omitted, Abs format (unit mm)*
G04 Created by KiCad (PCBNEW 10.0.1) date 2026-06-18 22:01:11*
%MOMM*%
%LPD*%
G01*
G04 APERTURE LIST*
G04 APERTURE END LIST*
G36*
X186666742Y-127376601D02*
G01*
X186820687Y-127440367D01*
X186959234Y-127532941D01*
X187077059Y-127650766D01*
X187169633Y-127789313D01*
X187233399Y-127943258D01*
X187265907Y-128106685D01*
X187265907Y-128273315D01*
X187233399Y-128436742D01*
X187169633Y-128590687D01*
X187077059Y-128729234D01*
X186959234Y-128847059D01*
X186820687Y-128939633D01*
X186666742Y-129003399D01*
X186503315Y-129035907D01*
X186336685Y-129035907D01*
X186173258Y-129003399D01*
X186019313Y-128939633D01*
X185880766Y-128847059D01*
X185762941Y-128729234D01*
X185670367Y-128590687D01*
X185606601Y-128436742D01*
X185574093Y-128273315D01*
X185574093Y-128106685D01*
X185606601Y-127943258D01*
X185670367Y-127789313D01*
X185762941Y-127650766D01*
X185880766Y-127532941D01*
X186019313Y-127440367D01*
X186173258Y-127376601D01*
X186336685Y-127344093D01*
X186503315Y-127344093D01*
X186666742Y-127376601D01*
G37*
G36*
X186666742Y-124836601D02*
G01*
X186820687Y-124900367D01*
X186959234Y-124992941D01*
X187077059Y-125110766D01*
X187169633Y-125249313D01*
X187233399Y-125403258D01*
X187265907Y-125566685D01*
X187265907Y-125733315D01*
X187233399Y-125896742D01*
X187169633Y-126050687D01*
X187077059Y-126189234D01*
X186959234Y-126307059D01*
X186820687Y-126399633D01*
X186666742Y-126463399D01*
X186503315Y-126495907D01*
X186336685Y-126495907D01*
X186173258Y-126463399D01*
X186019313Y-126399633D01*
X185880766Y-126307059D01*
X185762941Y-126189234D01*
X185670367Y-126050687D01*
X185606601Y-125896742D01*
X185574093Y-125733315D01*
X185574093Y-125566685D01*
X185606601Y-125403258D01*
X185670367Y-125249313D01*
X185762941Y-125110766D01*
X185880766Y-124992941D01*
X186019313Y-124900367D01*
X186173258Y-124836601D01*
X186336685Y-124804093D01*
X186503315Y-124804093D01*
X186666742Y-124836601D01*
G37*
G36*
X143742228Y-123144448D02*
G01*
X143887117Y-123204463D01*
X144017515Y-123291592D01*
X144128408Y-123402485D01*
X144215537Y-123532883D01*
X144275552Y-123677772D01*
X144306148Y-123831586D01*
X144306148Y-123988414D01*
X144275552Y-124142228D01*
X144215537Y-124287117D01*
X144128408Y-124417515D01*
X144017515Y-124528408D01*
X143887117Y-124615537D01*
X143742228Y-124675552D01*
X143588414Y-124706148D01*
X143431586Y-124706148D01*
X143277772Y-124675552D01*
X143132883Y-124615537D01*
X143002485Y-124528408D01*
X142891592Y-124417515D01*
X142804463Y-124287117D01*
X142744448Y-124142228D01*
X142713852Y-123988414D01*
X142713852Y-123831586D01*
X142744448Y-123677772D01*
X142804463Y-123532883D01*
X142891592Y-123402485D01*
X143002485Y-123291592D01*
X143132883Y-123204463D01*
X143277772Y-123144448D01*
X143431586Y-123113852D01*
X143588414Y-123113852D01*
X143742228Y-123144448D01*
G37*
G36*
X150742228Y-123144448D02*
G01*
X150887117Y-123204463D01*
X151017515Y-123291592D01*
X151128408Y-123402485D01*
X151215537Y-123532883D01*
X151275552Y-123677772D01*
X151306148Y-123831586D01*
X151306148Y-123988414D01*
X151275552Y-124142228D01*
X151215537Y-124287117D01*
X151128408Y-124417515D01*
X151017515Y-124528408D01*
X150887117Y-124615537D01*
X150742228Y-124675552D01*
X150588414Y-124706148D01*
X150431586Y-124706148D01*
X150277772Y-124675552D01*
X150132883Y-124615537D01*
X150002485Y-124528408D01*
X149891592Y-124417515D01*
X149804463Y-124287117D01*
X149744448Y-124142228D01*
X149713852Y-123988414D01*
X149713852Y-123831586D01*
X149744448Y-123677772D01*
X149804463Y-123532883D01*
X149891592Y-123402485D01*
X150002485Y-123291592D01*
X150132883Y-123204463D01*
X150277772Y-123144448D01*
X150431586Y-123113852D01*
X150588414Y-123113852D01*
X150742228Y-123144448D01*
G37*
G36*
X186666742Y-122296601D02*
G01*
X186820687Y-122360367D01*
X186959234Y-122452941D01*
X187077059Y-122570766D01*
X187169633Y-122709313D01*
X187233399Y-122863258D01*
X187265907Y-123026685D01*
X187265907Y-123193315D01*
X187233399Y-123356742D01*
X187169633Y-123510687D01*
X187077059Y-123649234D01*
X186959234Y-123767059D01*
X186820687Y-123859633D01*
X186666742Y-123923399D01*
X186503315Y-123955907D01*
X186336685Y-123955907D01*
X186173258Y-123923399D01*
X186019313Y-123859633D01*
X185880766Y-123767059D01*
X185762941Y-123649234D01*
X185670367Y-123510687D01*
X185606601Y-123356742D01*
X185574093Y-123193315D01*
X185574093Y-123026685D01*
X185606601Y-122863258D01*
X185670367Y-122709313D01*
X185762941Y-122570766D01*
X185880766Y-122452941D01*
X186019313Y-122360367D01*
X186173258Y-122296601D01*
X186336685Y-122264093D01*
X186503315Y-122264093D01*
X186666742Y-122296601D01*
G37*
G36*
X187270000Y-121420000D02*
G01*
X185570000Y-121420000D01*
X185570000Y-119720000D01*
X187270000Y-119720000D01*
X187270000Y-121420000D01*
G37*
G36*
X187250000Y-117770000D02*
G01*
X185550000Y-117770000D01*
X185550000Y-116070000D01*
X187250000Y-116070000D01*
X187250000Y-117770000D01*
G37*
G36*
X170566672Y-116130755D02*
G01*
X170610469Y-116160020D01*
X170639734Y-116203817D01*
X170650010Y-116255479D01*
X170650010Y-116525479D01*
X170639734Y-116577141D01*
X170610469Y-116620938D01*
X170566672Y-116650203D01*
X170515010Y-116660479D01*
X170145010Y-116660479D01*
X170093348Y-116650203D01*
X170049551Y-116620938D01*
X170020286Y-116577141D01*
X170010010Y-116525479D01*
X170010010Y-116255479D01*
X170020286Y-116203817D01*
X170049551Y-116160020D01*
X170093348Y-116130755D01*
X170145010Y-116120479D01*
X170515010Y-116120479D01*
X170566672Y-116130755D01*
G37*
G36*
X170566672Y-115110755D02*
G01*
X170610469Y-115140020D01*
X170639734Y-115183817D01*
X170650010Y-115235479D01*
X170650010Y-115505479D01*
X170639734Y-115557141D01*
X170610469Y-115600938D01*
X170566672Y-115630203D01*
X170515010Y-115640479D01*
X170145010Y-115640479D01*
X170093348Y-115630203D01*
X170049551Y-115600938D01*
X170020286Y-115557141D01*
X170010010Y-115505479D01*
X170010010Y-115235479D01*
X170020286Y-115183817D01*
X170049551Y-115140020D01*
X170093348Y-115110755D01*
X170145010Y-115100479D01*
X170515010Y-115100479D01*
X170566672Y-115110755D01*
G37*
G36*
X187240000Y-114180000D02*
G01*
X185540000Y-114180000D01*
X185540000Y-112480000D01*
X187240000Y-112480000D01*
X187240000Y-114180000D01*
G37*
G36*
X143732228Y-110814448D02*
G01*
X143877117Y-110874463D01*
X144007515Y-110961592D01*
X144118408Y-111072485D01*
X144205537Y-111202883D01*
X144265552Y-111347772D01*
X144296148Y-111501586D01*
X144296148Y-111658414D01*
X144265552Y-111812228D01*
X144205537Y-111957117D01*
X144118408Y-112087515D01*
X144007515Y-112198408D01*
X143877117Y-112285537D01*
X143732228Y-112345552D01*
X143578414Y-112376148D01*
X143421586Y-112376148D01*
X143267772Y-112345552D01*
X143122883Y-112285537D01*
X142992485Y-112198408D01*
X142881592Y-112087515D01*
X142794463Y-111957117D01*
X142734448Y-111812228D01*
X142703852Y-111658414D01*
X142703852Y-111501586D01*
X142734448Y-111347772D01*
X142794463Y-111202883D01*
X142881592Y-111072485D01*
X142992485Y-110961592D01*
X143122883Y-110874463D01*
X143267772Y-110814448D01*
X143421586Y-110783852D01*
X143578414Y-110783852D01*
X143732228Y-110814448D01*
G37*
G36*
X150732228Y-110814448D02*
G01*
X150877117Y-110874463D01*
X151007515Y-110961592D01*
X151118408Y-111072485D01*
X151205537Y-111202883D01*
X151265552Y-111347772D01*
X151296148Y-111501586D01*
X151296148Y-111658414D01*
X151265552Y-111812228D01*
X151205537Y-111957117D01*
X151118408Y-112087515D01*
X151007515Y-112198408D01*
X150877117Y-112285537D01*
X150732228Y-112345552D01*
X150578414Y-112376148D01*
X150421586Y-112376148D01*
X150267772Y-112345552D01*
X150122883Y-112285537D01*
X149992485Y-112198408D01*
X149881592Y-112087515D01*
X149794463Y-111957117D01*
X149734448Y-111812228D01*
X149703852Y-111658414D01*
X149703852Y-111501586D01*
X149734448Y-111347772D01*
X149794463Y-111202883D01*
X149881592Y-111072485D01*
X149992485Y-110961592D01*
X150122883Y-110874463D01*
X150267772Y-110814448D01*
X150421586Y-110783852D01*
X150578414Y-110783852D01*
X150732228Y-110814448D01*
G37*
G36*
X187240000Y-110560000D02*
G01*
X185540000Y-110560000D01*
X185540000Y-108860000D01*
X187240000Y-108860000D01*
X187240000Y-110560000D01*
G37*
G36*
X183545000Y-108020000D02*
G01*
X181845000Y-108020000D01*
X181845000Y-106320000D01*
X183545000Y-106320000D01*
X183545000Y-108020000D01*
G37*
G36*
X180401742Y-106356601D02*
G01*
X180555687Y-106420367D01*
X180694234Y-106512941D01*
X180812059Y-106630766D01*
X180904633Y-106769313D01*
X180968399Y-106923258D01*
X181000907Y-107086685D01*
X181000907Y-107253315D01*
X180968399Y-107416742D01*
X180904633Y-107570687D01*
X180812059Y-107709234D01*
X180694234Y-107827059D01*
X180555687Y-107919633D01*
X180401742Y-107983399D01*
X180238315Y-108015907D01*
X180071685Y-108015907D01*
X179908258Y-107983399D01*
X179754313Y-107919633D01*
X179615766Y-107827059D01*
X179497941Y-107709234D01*
X179405367Y-107570687D01*
X179341601Y-107416742D01*
X179309093Y-107253315D01*
X179309093Y-107086685D01*
X179341601Y-106923258D01*
X179405367Y-106769313D01*
X179497941Y-106630766D01*
X179615766Y-106512941D01*
X179754313Y-106420367D01*
X179908258Y-106356601D01*
X180071685Y-106324093D01*
X180238315Y-106324093D01*
X180401742Y-106356601D01*
G37*
M02*
