%TF.GenerationSoftware,KiCad,Pcbnew,10.0.1*%
%TF.CreationDate,2026-06-05T15:07:20+02:00*%
%TF.ProjectId,HighEffNixiPSU,48696768-4566-4664-9e69-78695053552e,rev?*%
%TF.SameCoordinates,Original*%
%TF.FileFunction,Paste,Top*%
%TF.FilePolarity,Positive*%
%FSLAX46Y46*%
G04 Gerber Fmt 4.6, Leading zero omitted, Abs format (unit mm)*
G04 Created by KiCad (PCBNEW 10.0.1) date 2026-06-05 15:07:20*
%MOMM*%
%LPD*%
G01*
G04 APERTURE LIST*
G04 Aperture macros list*
%AMRoundRect*
0 Rectangle with rounded corners*
0 $1 Rounding radius*
0 $2 $3 $4 $5 $6 $7 $8 $9 X,Y pos of 4 corners*
0 Add a 4 corners polygon primitive as box body*
4,1,4,$2,$3,$4,$5,$6,$7,$8,$9,$2,$3,0*
0 Add four circle primitives for the rounded corners*
1,1,$1+$1,$2,$3*
1,1,$1+$1,$4,$5*
1,1,$1+$1,$6,$7*
1,1,$1+$1,$8,$9*
0 Add four rect primitives between the rounded corners*
20,1,$1+$1,$2,$3,$4,$5,0*
20,1,$1+$1,$4,$5,$6,$7,0*
20,1,$1+$1,$6,$7,$8,$9,0*
20,1,$1+$1,$8,$9,$2,$3,0*%
G04 Aperture macros list end*
%ADD10R,0.900000X1.500000*%
%ADD11R,1.500000X0.900000*%
%ADD12R,0.900000X0.900000*%
%ADD13RoundRect,0.200000X0.275000X-0.200000X0.275000X0.200000X-0.275000X0.200000X-0.275000X-0.200000X0*%
%ADD14RoundRect,0.150000X-0.150000X0.587500X-0.150000X-0.587500X0.150000X-0.587500X0.150000X0.587500X0*%
%ADD15RoundRect,0.250000X0.450000X-0.262500X0.450000X0.262500X-0.450000X0.262500X-0.450000X-0.262500X0*%
%ADD16RoundRect,0.150000X0.150000X-0.587500X0.150000X0.587500X-0.150000X0.587500X-0.150000X-0.587500X0*%
%ADD17RoundRect,0.150000X-0.587500X-0.150000X0.587500X-0.150000X0.587500X0.150000X-0.587500X0.150000X0*%
%ADD18RoundRect,0.225000X0.250000X-0.225000X0.250000X0.225000X-0.250000X0.225000X-0.250000X-0.225000X0*%
%ADD19RoundRect,0.200000X-0.200000X-0.275000X0.200000X-0.275000X0.200000X0.275000X-0.200000X0.275000X0*%
%ADD20RoundRect,0.250000X-0.262500X-0.450000X0.262500X-0.450000X0.262500X0.450000X-0.262500X0.450000X0*%
%ADD21RoundRect,0.200000X-0.275000X0.200000X-0.275000X-0.200000X0.275000X-0.200000X0.275000X0.200000X0*%
%ADD22RoundRect,0.250000X-0.325000X-0.650000X0.325000X-0.650000X0.325000X0.650000X-0.325000X0.650000X0*%
%ADD23RoundRect,0.250000X0.250000X0.475000X-0.250000X0.475000X-0.250000X-0.475000X0.250000X-0.475000X0*%
%ADD24RoundRect,0.250000X-0.475000X0.250000X-0.475000X-0.250000X0.475000X-0.250000X0.475000X0.250000X0*%
%ADD25R,1.803400X4.495800*%
%ADD26RoundRect,0.225000X-0.250000X0.225000X-0.250000X-0.225000X0.250000X-0.225000X0.250000X0.225000X0*%
%ADD27RoundRect,0.250000X-0.625000X0.312500X-0.625000X-0.312500X0.625000X-0.312500X0.625000X0.312500X0*%
%ADD28RoundRect,0.150000X0.587500X0.150000X-0.587500X0.150000X-0.587500X-0.150000X0.587500X-0.150000X0*%
%ADD29R,3.429000X1.257000*%
%ADD30R,9.017000X10.668000*%
%ADD31RoundRect,0.225000X-0.225000X-0.250000X0.225000X-0.250000X0.225000X0.250000X-0.225000X0.250000X0*%
%ADD32RoundRect,0.200000X0.200000X0.275000X-0.200000X0.275000X-0.200000X-0.275000X0.200000X-0.275000X0*%
%ADD33RoundRect,0.250000X0.325000X0.650000X-0.325000X0.650000X-0.325000X-0.650000X0.325000X-0.650000X0*%
%ADD34R,1.400000X3.000000*%
%ADD35R,6.000000X6.500000*%
%ADD36RoundRect,0.125000X-0.687500X-0.125000X0.687500X-0.125000X0.687500X0.125000X-0.687500X0.125000X0*%
%ADD37R,0.990600X0.990600*%
%ADD38R,1.600000X3.200000*%
%ADD39RoundRect,0.150000X-0.575000X0.150000X-0.575000X-0.150000X0.575000X-0.150000X0.575000X0.150000X0*%
%ADD40RoundRect,0.075000X-0.650000X0.075000X-0.650000X-0.075000X0.650000X-0.075000X0.650000X0.075000X0*%
%ADD41RoundRect,0.250000X-0.250000X-0.475000X0.250000X-0.475000X0.250000X0.475000X-0.250000X0.475000X0*%
%ADD42RoundRect,0.250001X-0.799999X2.049999X-0.799999X-2.049999X0.799999X-2.049999X0.799999X2.049999X0*%
%ADD43RoundRect,0.250000X0.350000X-0.450000X0.350000X0.450000X-0.350000X0.450000X-0.350000X-0.450000X0*%
%ADD44RoundRect,0.250000X0.650000X-0.325000X0.650000X0.325000X-0.650000X0.325000X-0.650000X-0.325000X0*%
%ADD45RoundRect,0.250000X-0.450000X0.262500X-0.450000X-0.262500X0.450000X-0.262500X0.450000X0.262500X0*%
%ADD46RoundRect,0.150000X-0.825000X-0.150000X0.825000X-0.150000X0.825000X0.150000X-0.825000X0.150000X0*%
%ADD47RoundRect,0.150000X0.825000X0.150000X-0.825000X0.150000X-0.825000X-0.150000X0.825000X-0.150000X0*%
%ADD48RoundRect,0.250000X-0.312500X-1.075000X0.312500X-1.075000X0.312500X1.075000X-0.312500X1.075000X0*%
%ADD49R,3.000000X1.600000*%
%ADD50R,6.700000X6.700000*%
%ADD51R,5.400000X2.900000*%
%ADD52RoundRect,0.087500X-0.087500X0.250000X-0.087500X-0.250000X0.087500X-0.250000X0.087500X0.250000X0*%
%ADD53RoundRect,0.250000X0.475000X-0.250000X0.475000X0.250000X-0.475000X0.250000X-0.475000X-0.250000X0*%
%ADD54RoundRect,0.150000X-0.150000X0.825000X-0.150000X-0.825000X0.150000X-0.825000X0.150000X0.825000X0*%
%ADD55RoundRect,0.250000X0.262500X0.450000X-0.262500X0.450000X-0.262500X-0.450000X0.262500X-0.450000X0*%
G04 APERTURE END LIST*
D10*
%TO.C,U7*%
X157480000Y-141400000D03*
X158750000Y-141400000D03*
X160020000Y-141400000D03*
X161290000Y-141400000D03*
X162560000Y-141400000D03*
X163830000Y-141400000D03*
X165100000Y-141400000D03*
X166370000Y-141400000D03*
X167640000Y-141400000D03*
X168910000Y-141400000D03*
X170180000Y-141400000D03*
X171450000Y-141400000D03*
X172720000Y-141400000D03*
X173990000Y-141400000D03*
D11*
X175240000Y-138360000D03*
X175240000Y-137090000D03*
X175240000Y-135820000D03*
X175240000Y-134550000D03*
X175240000Y-133280000D03*
X175240000Y-132010000D03*
X175240000Y-130740000D03*
X175240000Y-129470000D03*
X175240000Y-128200000D03*
X175240000Y-126930000D03*
D10*
X173990000Y-123900000D03*
X172720000Y-123900000D03*
X171450000Y-123900000D03*
X170180000Y-123900000D03*
X168910000Y-123900000D03*
X167640000Y-123900000D03*
X166370000Y-123900000D03*
X165100000Y-123900000D03*
X163830000Y-123900000D03*
X162560000Y-123900000D03*
X161290000Y-123900000D03*
X160020000Y-123900000D03*
X158750000Y-123900000D03*
X157480000Y-123900000D03*
D12*
X163800000Y-135550000D03*
X165200000Y-135550000D03*
X166600000Y-135550000D03*
X163800000Y-134150000D03*
X165200000Y-134150000D03*
X166600000Y-134150000D03*
X163800000Y-132750000D03*
X165200000Y-132750000D03*
X166600000Y-132750000D03*
%TD*%
D13*
%TO.C,R38*%
X214500000Y-148700000D03*
X214500000Y-147050000D03*
%TD*%
D14*
%TO.C,Q29*%
X168295820Y-63361769D03*
X166395820Y-63361769D03*
X167345820Y-65236769D03*
%TD*%
D15*
%TO.C,R46*%
X160899618Y-153304933D03*
X160899618Y-151479933D03*
%TD*%
D13*
%TO.C,R16*%
X221000000Y-74925000D03*
X221000000Y-73275000D03*
%TD*%
D15*
%TO.C,Br7*%
X223700000Y-137050000D03*
X223700000Y-135225000D03*
%TD*%
D16*
%TO.C,Q33*%
X177788225Y-62955128D03*
X179688225Y-62955128D03*
X178738225Y-61080128D03*
%TD*%
D17*
%TO.C,Q37*%
X217825000Y-146900000D03*
X217825000Y-148800000D03*
X219700000Y-147850000D03*
%TD*%
D18*
%TO.C,C11*%
X198654301Y-92523683D03*
X198654301Y-90973683D03*
%TD*%
D19*
%TO.C,R32*%
X171617276Y-85653761D03*
X173267276Y-85653761D03*
%TD*%
D20*
%TO.C,C19*%
X193375346Y-96081417D03*
X195200346Y-96081417D03*
%TD*%
D17*
%TO.C,Q38*%
X222975000Y-126100000D03*
X222975000Y-128000000D03*
X224850000Y-127050000D03*
%TD*%
D21*
%TO.C,R21*%
X221000000Y-122125000D03*
X221000000Y-123775000D03*
%TD*%
D13*
%TO.C,R33*%
X163337846Y-76221925D03*
X163337846Y-74571925D03*
%TD*%
D16*
%TO.C,Q28*%
X181205947Y-65236769D03*
X183105947Y-65236769D03*
X182155947Y-63361769D03*
%TD*%
D22*
%TO.C,C4*%
X192673352Y-125162472D03*
X195623352Y-125162472D03*
%TD*%
D15*
%TO.C,Br10*%
X223750000Y-97362500D03*
X223750000Y-95537500D03*
%TD*%
D23*
%TO.C,Cfilt1*%
X179308478Y-102135792D03*
X177408478Y-102135792D03*
%TD*%
D22*
%TO.C,C2*%
X192673352Y-122500558D03*
X195623352Y-122500558D03*
%TD*%
D24*
%TO.C,C79*%
X167765061Y-105029073D03*
X167765061Y-106929073D03*
%TD*%
D13*
%TO.C,R20*%
X221050000Y-114325000D03*
X221050000Y-112675000D03*
%TD*%
D15*
%TO.C,R40*%
X159625000Y-99762500D03*
X159625000Y-97937500D03*
%TD*%
%TO.C,RFilt1*%
X197355314Y-109573488D03*
X197355314Y-107748488D03*
%TD*%
D13*
%TO.C,R24*%
X220900000Y-141700000D03*
X220900000Y-140050000D03*
%TD*%
D25*
%TO.C,L2*%
X191910171Y-92247877D03*
X195212171Y-92247877D03*
%TD*%
D26*
%TO.C,C15*%
X158780884Y-151437159D03*
X158780884Y-152987159D03*
%TD*%
D20*
%TO.C,Rfb1*%
X197172814Y-111672628D03*
X198997814Y-111672628D03*
%TD*%
D17*
%TO.C,Q32*%
X172714270Y-78029659D03*
X172714270Y-79929659D03*
X174589270Y-78979659D03*
%TD*%
D27*
%TO.C,Rfb2*%
X197535314Y-113823683D03*
X197535314Y-116748683D03*
%TD*%
D28*
%TO.C,Q31*%
X172690535Y-83732394D03*
X172690535Y-81832394D03*
X170815535Y-82782394D03*
%TD*%
D14*
%TO.C,Q8*%
X163359111Y-143979738D03*
X161459111Y-143979738D03*
X162409111Y-145854738D03*
%TD*%
D19*
%TO.C,R30*%
X168959048Y-78428566D03*
X170609048Y-78428566D03*
%TD*%
D29*
%TO.C,Q3*%
X216900000Y-100860000D03*
D30*
X206994000Y-98320000D03*
D29*
X216900000Y-95780000D03*
%TD*%
D31*
%TO.C,C10*%
X186477403Y-71203370D03*
X188027403Y-71203370D03*
%TD*%
D14*
%TO.C,Q36*%
X163359111Y-67544777D03*
X161459111Y-67544777D03*
X162409111Y-69419777D03*
%TD*%
D24*
%TO.C,C17*%
X163967592Y-101606613D03*
X163967592Y-103506613D03*
%TD*%
D32*
%TO.C,R29*%
X179722972Y-78428566D03*
X178072972Y-78428566D03*
%TD*%
D13*
%TO.C,R22*%
X221000000Y-127825000D03*
X221000000Y-126175000D03*
%TD*%
D33*
%TO.C,C24*%
X163344871Y-72304464D03*
X160394871Y-72304464D03*
%TD*%
D16*
%TO.C,Q26*%
X173611010Y-65236769D03*
X175511010Y-65236769D03*
X174561010Y-63361769D03*
%TD*%
D34*
%TO.C,Q1*%
X189641137Y-115066183D03*
D35*
X191941137Y-108816183D03*
D34*
X194241137Y-115066183D03*
%TD*%
D29*
%TO.C,Q2*%
X216900000Y-87810000D03*
D30*
X206994000Y-85270000D03*
D29*
X216900000Y-82730000D03*
%TD*%
D15*
%TO.C,R43*%
X170013542Y-145699464D03*
X170013542Y-143874464D03*
%TD*%
D36*
%TO.C,U1*%
X185320915Y-101151339D03*
X185320915Y-101801339D03*
X185320915Y-102451339D03*
X185320915Y-103101339D03*
X189545915Y-103101339D03*
X189545915Y-102451339D03*
X189545915Y-101801339D03*
X189545915Y-101151339D03*
%TD*%
D18*
%TO.C,C12*%
X198654301Y-89101222D03*
X198654301Y-87551222D03*
%TD*%
D37*
%TO.C,SW3*%
X182990056Y-150789593D03*
X173990058Y-150789593D03*
X182990056Y-146289591D03*
X173990058Y-146289591D03*
%TD*%
D21*
%TO.C,R17*%
X220600000Y-95850000D03*
X220600000Y-97500000D03*
%TD*%
D29*
%TO.C,Q6*%
X216850000Y-127980000D03*
D30*
X206944000Y-125440000D03*
D29*
X216850000Y-122900000D03*
%TD*%
%TO.C,Q4*%
X217050000Y-74960000D03*
D30*
X207144000Y-72420000D03*
D29*
X217050000Y-69880000D03*
%TD*%
D38*
%TO.C,C1*%
X184755947Y-96823605D03*
X184755947Y-91823605D03*
%TD*%
D31*
%TO.C,C5*%
X196350820Y-100864698D03*
X197900820Y-100864698D03*
%TD*%
D39*
%TO.C,J6*%
X156785000Y-99600000D03*
X156785000Y-100400000D03*
D40*
X156785000Y-101600000D03*
X156785000Y-102600000D03*
X156785000Y-103100000D03*
X156785000Y-104100000D03*
D39*
X156785000Y-105300000D03*
X156785000Y-106100000D03*
X156785000Y-106100000D03*
X156785000Y-105300000D03*
D40*
X156785000Y-104600000D03*
X156785000Y-103600000D03*
X156785000Y-102100000D03*
X156785000Y-101100000D03*
D39*
X156785000Y-100400000D03*
X156785000Y-99600000D03*
%TD*%
D17*
%TO.C,SS8050*%
X165499080Y-143816964D03*
X165499080Y-145716964D03*
X167374080Y-144766964D03*
%TD*%
D21*
%TO.C,R23*%
X220900000Y-135525000D03*
X220900000Y-137175000D03*
%TD*%
D19*
%TO.C,R27*%
X170098289Y-65499269D03*
X171748289Y-65499269D03*
%TD*%
D41*
%TO.C,Cbyp1*%
X191838858Y-101755519D03*
X193738858Y-101755519D03*
%TD*%
D37*
%TO.C,SW4*%
X171977398Y-152310687D03*
X162977400Y-152310687D03*
X171977398Y-147810685D03*
X162977400Y-147810685D03*
%TD*%
D17*
%TO.C,Q39*%
X222875000Y-140150000D03*
X222875000Y-142050000D03*
X224750000Y-141100000D03*
%TD*%
%TO.C,Q35*%
X170435789Y-61677902D03*
X170435789Y-63577902D03*
X172310789Y-62627902D03*
%TD*%
D13*
%TO.C,R15*%
X221000000Y-71725000D03*
X221000000Y-70075000D03*
%TD*%
%TO.C,Rfbt1*%
X191439111Y-88770948D03*
X191439111Y-87120948D03*
%TD*%
D15*
%TO.C,Br11*%
X223500000Y-84612500D03*
X223500000Y-82787500D03*
%TD*%
D19*
%TO.C,R31*%
X173136263Y-69682277D03*
X174786263Y-69682277D03*
%TD*%
D23*
%TO.C,Ccomp1*%
X183105947Y-101755519D03*
X181205947Y-101755519D03*
%TD*%
D42*
%TO.C,C6*%
X186995187Y-129412863D03*
X186995187Y-138212863D03*
%TD*%
D17*
%TO.C,Q24*%
X222875000Y-73400000D03*
X222875000Y-75300000D03*
X224750000Y-74350000D03*
%TD*%
D43*
%TO.C,Y3*%
X159125000Y-111975000D03*
X159125000Y-109775000D03*
X157425000Y-109775000D03*
X157425000Y-111975000D03*
%TD*%
D13*
%TO.C,R13*%
X220800000Y-84725000D03*
X220800000Y-83075000D03*
%TD*%
D32*
%TO.C,Rffb1*%
X191115377Y-83752394D03*
X189465377Y-83752394D03*
%TD*%
D44*
%TO.C,C26*%
X190719871Y-99628878D03*
X190719871Y-96678878D03*
%TD*%
D24*
%TO.C,C80*%
X158651137Y-143816964D03*
X158651137Y-145716964D03*
%TD*%
D15*
%TO.C,Br8*%
X223850000Y-123662500D03*
X223850000Y-121837500D03*
%TD*%
D14*
%TO.C,Q27*%
X164498352Y-63361769D03*
X162598352Y-63361769D03*
X163548352Y-65236769D03*
%TD*%
D18*
%TO.C,C16*%
X194477086Y-88720948D03*
X194477086Y-87170948D03*
%TD*%
%TO.C,C14*%
X169793542Y-106974073D03*
X169793542Y-105424073D03*
%TD*%
D28*
%TO.C,Q34*%
X225855092Y-79169113D03*
X225855092Y-77269113D03*
X223980092Y-78219113D03*
%TD*%
D32*
%TO.C,R28*%
X168330567Y-60935987D03*
X166680567Y-60935987D03*
%TD*%
D17*
%TO.C,Q25*%
X223162500Y-112750000D03*
X223162500Y-114650000D03*
X225037500Y-113700000D03*
%TD*%
D23*
%TO.C,C23*%
X189561643Y-88065675D03*
X187661643Y-88065675D03*
%TD*%
D18*
%TO.C,C13*%
X196755567Y-88720948D03*
X196755567Y-87170948D03*
%TD*%
D24*
%TO.C,C59*%
X160929618Y-105029073D03*
X160929618Y-106929073D03*
%TD*%
D19*
%TO.C,R36*%
X177693225Y-65499269D03*
X179343225Y-65499269D03*
%TD*%
D29*
%TO.C,Q5*%
X216950000Y-114330000D03*
D30*
X207044000Y-111790000D03*
D29*
X216950000Y-109250000D03*
%TD*%
D31*
%TO.C,C3*%
X192933099Y-99723878D03*
X194483099Y-99723878D03*
%TD*%
D45*
%TO.C,R39*%
X161700000Y-97962500D03*
X161700000Y-99787500D03*
%TD*%
D15*
%TO.C,Rcomp1*%
X172400000Y-108562500D03*
X172400000Y-106737500D03*
%TD*%
%TO.C,Br12*%
X223750000Y-71562500D03*
X223750000Y-69737500D03*
%TD*%
D29*
%TO.C,Q7*%
X216900000Y-141710000D03*
D30*
X206994000Y-139170000D03*
D29*
X216900000Y-136630000D03*
%TD*%
D46*
%TO.C,U5*%
X179325000Y-67492500D03*
X179325000Y-68762500D03*
X179325000Y-70032500D03*
X179325000Y-71302500D03*
X179325000Y-72572500D03*
X179325000Y-73842500D03*
X179325000Y-75112500D03*
X179325000Y-76382500D03*
X184275000Y-76382500D03*
X184275000Y-75112500D03*
X184275000Y-73842500D03*
X184275000Y-72572500D03*
X184275000Y-71302500D03*
X184275000Y-70032500D03*
X184275000Y-68762500D03*
X184275000Y-67492500D03*
%TD*%
D13*
%TO.C,R14*%
X220800000Y-88050000D03*
X220800000Y-86400000D03*
%TD*%
D15*
%TO.C,Br9*%
X224050000Y-110875000D03*
X224050000Y-109050000D03*
%TD*%
D47*
%TO.C,U2*%
X170750000Y-76357500D03*
X170750000Y-75087500D03*
X170750000Y-73817500D03*
X170750000Y-72547500D03*
X170750000Y-71277500D03*
X170750000Y-70007500D03*
X170750000Y-68737500D03*
X170750000Y-67467500D03*
X165800000Y-67467500D03*
X165800000Y-68737500D03*
X165800000Y-70007500D03*
X165800000Y-71277500D03*
X165800000Y-72547500D03*
X165800000Y-73817500D03*
X165800000Y-75087500D03*
X165800000Y-76357500D03*
%TD*%
D45*
%TO.C,R41*%
X163325000Y-105187500D03*
X163325000Y-107012500D03*
%TD*%
D13*
%TO.C,R37*%
X176628985Y-75841652D03*
X176628985Y-74191652D03*
%TD*%
D31*
%TO.C,C8*%
X197110314Y-97061964D03*
X198660314Y-97061964D03*
%TD*%
D26*
%TO.C,C9*%
X171692276Y-111888722D03*
X171692276Y-113438722D03*
%TD*%
D45*
%TO.C,R42*%
X165397400Y-105187500D03*
X165397400Y-107012500D03*
%TD*%
D48*
%TO.C,RSense1*%
X192665852Y-119408644D03*
X195590852Y-119408644D03*
%TD*%
D17*
%TO.C,Q23*%
X222862500Y-99100000D03*
X222862500Y-101000000D03*
X224737500Y-100050000D03*
%TD*%
%TO.C,Q30*%
X173473763Y-71565011D03*
X173473763Y-73465011D03*
X175348763Y-72515011D03*
%TD*%
D49*
%TO.C,D1*%
X179158478Y-120056745D03*
D50*
X187008478Y-122342745D03*
D49*
X179158478Y-124628745D03*
%TD*%
D51*
%TO.C,L1*%
X180400251Y-105966183D03*
X180400251Y-115866183D03*
%TD*%
D52*
%TO.C,U4*%
X198266470Y-93949743D03*
X197766470Y-93949743D03*
X197266470Y-93949743D03*
X197266470Y-95374743D03*
X197766470Y-95374743D03*
X198266470Y-95374743D03*
%TD*%
D24*
%TO.C,Ccomp3*%
X172400000Y-103200000D03*
X172400000Y-105100000D03*
%TD*%
D19*
%TO.C,R34*%
X173136263Y-75386378D03*
X174786263Y-75386378D03*
%TD*%
%TO.C,R35*%
X224781833Y-81090480D03*
X226431833Y-81090480D03*
%TD*%
D13*
%TO.C,R18*%
X220600000Y-100850000D03*
X220600000Y-99200000D03*
%TD*%
D31*
%TO.C,C7*%
X196350820Y-98963331D03*
X197900820Y-98963331D03*
%TD*%
D53*
%TO.C,Ccomp2*%
X174980251Y-103126339D03*
X174980251Y-101226339D03*
%TD*%
D21*
%TO.C,R19*%
X221050000Y-109325000D03*
X221050000Y-110975000D03*
%TD*%
D17*
%TO.C,Q22*%
X222662500Y-86400000D03*
X222662500Y-88300000D03*
X224537500Y-87350000D03*
%TD*%
D13*
%TO.C,R45*%
X158401137Y-149234425D03*
X158401137Y-147584425D03*
%TD*%
D54*
%TO.C,U6*%
X169895000Y-109375000D03*
X168625000Y-109375000D03*
X167355000Y-109375000D03*
X166085000Y-109375000D03*
X164815000Y-109375000D03*
X163545000Y-109375000D03*
X162275000Y-109375000D03*
X161005000Y-109375000D03*
X161005000Y-114325000D03*
X162275000Y-114325000D03*
X163545000Y-114325000D03*
X164815000Y-114325000D03*
X166085000Y-114325000D03*
X167355000Y-114325000D03*
X168625000Y-114325000D03*
X169895000Y-114325000D03*
%TD*%
D15*
%TO.C,R44*%
X160519871Y-149502198D03*
X160519871Y-147677198D03*
%TD*%
D55*
%TO.C,Rfadj1*%
X197478827Y-103306613D03*
X195653827Y-103306613D03*
%TD*%
M02*
