%TF.GenerationSoftware,KiCad,Pcbnew,10.0.1*%
%TF.CreationDate,2026-08-19T13:09:46+02:00*%
%TF.ProjectId,HighEffNixiPSU,48696768-4566-4664-9e69-78695053552e,rev?*%
%TF.SameCoordinates,Original*%
%TF.FileFunction,Copper,L4,Bot*%
%TF.FilePolarity,Positive*%
%FSLAX46Y46*%
G04 Gerber Fmt 4.6, Leading zero omitted, Abs format (unit mm)*
G04 Created by KiCad (PCBNEW 10.0.1) date 2026-08-19 13:09:46*
%MOMM*%
%LPD*%
G01*
G04 APERTURE LIST*
%TA.AperFunction,HeatsinkPad*%
%ADD10C,0.600000*%
%TD*%
%TA.AperFunction,ComponentPad*%
%ADD11R,1.700000X1.700000*%
%TD*%
%TA.AperFunction,ComponentPad*%
%ADD12O,2.100000X1.000000*%
%TD*%
%TA.AperFunction,ComponentPad*%
%ADD13O,1.600000X1.000000*%
%TD*%
%TA.AperFunction,ComponentPad*%
%ADD14C,3.400000*%
%TD*%
%TA.AperFunction,ComponentPad*%
%ADD15C,1.800000*%
%TD*%
%TA.AperFunction,ComponentPad*%
%ADD16C,1.137920*%
%TD*%
%TA.AperFunction,ViaPad*%
%ADD17C,0.304800*%
%TD*%
%TA.AperFunction,ViaPad*%
%ADD18C,0.305105*%
%TD*%
%TA.AperFunction,Conductor*%
%ADD19C,0.127000*%
%TD*%
%TA.AperFunction,Conductor*%
%ADD20C,0.127127*%
%TD*%
%TA.AperFunction,Conductor*%
%ADD21C,0.160693*%
%TD*%
G04 APERTURE END LIST*
D10*
%TO.P,U7,39,GND_39*%
%TO.N,GND*%
X164500000Y-135550000D03*
X165900000Y-135550000D03*
X163800000Y-134850000D03*
X165200000Y-134850000D03*
X166600000Y-134850000D03*
X164500000Y-134175000D03*
X165900000Y-134175000D03*
X163800000Y-133450000D03*
X165200000Y-133450000D03*
X166600000Y-133450000D03*
X164500000Y-132750000D03*
X165900000Y-132750000D03*
%TD*%
D11*
%TO.P,GND1,1,Pin_1_1*%
%TO.N,GND*%
X170650000Y-67070000D03*
%TD*%
%TO.P,VIN2,1,Pin_1_1*%
%TO.N,VCC*%
X222542611Y-117253777D03*
%TD*%
%TO.P,VIN1,1,Pin_1_1*%
%TO.N,+12V*%
X174314763Y-67057683D03*
%TD*%
D12*
%TO.P,J6,SH*%
%TO.N,N/C*%
X155870000Y-98530000D03*
D13*
X151690000Y-98530000D03*
D12*
X155870000Y-107170000D03*
D13*
X151690000Y-107170000D03*
%TD*%
D11*
%TO.P,VIN3,1,Pin_1_1*%
%TO.N,+3V3*%
X170650000Y-70700000D03*
%TD*%
D14*
%TO.P,H2,1,1_1*%
%TO.N,GND*%
X224000000Y-152300000D03*
%TD*%
%TO.P,H1,1,1_1*%
%TO.N,GND*%
X224900000Y-62500000D03*
%TD*%
%TO.P,H3,1,1_1*%
%TO.N,GND*%
X153800000Y-62500000D03*
%TD*%
D15*
%TO.P,J1,1,Pin_1_1*%
%TO.N,GND*%
X155895000Y-89275000D03*
%TO.P,J1,2,Pin_2_2*%
%TO.N,+12V*%
X155895000Y-94355000D03*
%TD*%
D14*
%TO.P,H4,1,1_1*%
%TO.N,GND*%
X153800000Y-152200000D03*
%TD*%
D16*
%TO.P,N5,0,0_0*%
%TO.N,/nixi_driver/DIG-10*%
X229382780Y-102089060D03*
%TO.P,N5,1,1_1*%
%TO.N,/nixi_driver/DIG-1*%
X229382780Y-98604180D03*
%TO.P,N5,2,2_2*%
%TO.N,/nixi_driver/DIG-2*%
X235514340Y-102835820D03*
%TO.P,N5,3,3_3*%
%TO.N,/nixi_driver/DIG-3*%
X232252980Y-96620440D03*
%TO.P,N5,4,4_4*%
%TO.N,/nixi_driver/DIG-4*%
X235514340Y-97857420D03*
%TO.P,N5,5,5_5*%
%TO.N,/nixi_driver/DIG-5*%
X236350000Y-99450000D03*
%TO.P,N5,6,6_6*%
%TO.N,/nixi_driver/DIG-6*%
X236350000Y-101243240D03*
%TO.P,N5,7,7_7*%
%TO.N,/nixi_driver/DIG-7*%
X230574040Y-97257980D03*
%TO.P,N5,8,8_8*%
%TO.N,/nixi_driver/DIG-8*%
X232252980Y-104072800D03*
%TO.P,N5,9,9_9*%
%TO.N,/nixi_driver/DIG-9*%
X230574040Y-103435260D03*
%TO.P,N5,A,A_A*%
%TO.N,Net-(Br10-Pad1)*%
X228950980Y-100346620D03*
%TO.P,N5,LHDP,LHDP_LHDP*%
%TO.N,unconnected-(N5-PadLHDP)*%
X234036060Y-103856900D03*
%TO.P,N5,RHDP,RHDP_RHDP*%
%TO.N,/nixi_driver/RHDP-2*%
X234036060Y-96836340D03*
%TD*%
%TO.P,N4,0,0_0*%
%TO.N,/nixi_driver/DIG-10*%
X229373540Y-70278260D03*
%TO.P,N4,1,1_1*%
%TO.N,/nixi_driver/DIG-1*%
X229373540Y-66793380D03*
%TO.P,N4,2,2_2*%
%TO.N,/nixi_driver/DIG-2*%
X235505100Y-71025020D03*
%TO.P,N4,3,3_3*%
%TO.N,/nixi_driver/DIG-3*%
X232243740Y-64809640D03*
%TO.P,N4,4,4_4*%
%TO.N,/nixi_driver/DIG-4*%
X235505100Y-66046620D03*
%TO.P,N4,5,5_5*%
%TO.N,/nixi_driver/DIG-5*%
X236340760Y-67639200D03*
%TO.P,N4,6,6_6*%
%TO.N,/nixi_driver/DIG-6*%
X236340760Y-69432440D03*
%TO.P,N4,7,7_7*%
%TO.N,/nixi_driver/DIG-7*%
X230564800Y-65447180D03*
%TO.P,N4,8,8_8*%
%TO.N,/nixi_driver/DIG-8*%
X232243740Y-72262000D03*
%TO.P,N4,9,9_9*%
%TO.N,/nixi_driver/DIG-9*%
X230564800Y-71624460D03*
%TO.P,N4,A,A_A*%
%TO.N,Net-(Br12-Pad1)*%
X228941740Y-68535820D03*
%TO.P,N4,LHDP,LHDP_LHDP*%
%TO.N,unconnected-(N4-PadLHDP)*%
X234026820Y-72046100D03*
%TO.P,N4,RHDP,RHDP_RHDP*%
%TO.N,unconnected-(N4-PadRHDP)*%
X234026820Y-65025540D03*
%TD*%
%TO.P,N6,0,0_0*%
%TO.N,/nixi_driver/DIG-10*%
X229301820Y-86199340D03*
%TO.P,N6,1,1_1*%
%TO.N,/nixi_driver/DIG-1*%
X229301820Y-82714460D03*
%TO.P,N6,2,2_2*%
%TO.N,/nixi_driver/DIG-2*%
X235433380Y-86946100D03*
%TO.P,N6,3,3_3*%
%TO.N,/nixi_driver/DIG-3*%
X232172020Y-80730720D03*
%TO.P,N6,4,4_4*%
%TO.N,/nixi_driver/DIG-4*%
X235433380Y-81967700D03*
%TO.P,N6,5,5_5*%
%TO.N,/nixi_driver/DIG-5*%
X236269040Y-83560280D03*
%TO.P,N6,6,6_6*%
%TO.N,/nixi_driver/DIG-6*%
X236269040Y-85353520D03*
%TO.P,N6,7,7_7*%
%TO.N,/nixi_driver/DIG-7*%
X230493080Y-81368260D03*
%TO.P,N6,8,8_8*%
%TO.N,/nixi_driver/DIG-8*%
X232172020Y-88183080D03*
%TO.P,N6,9,9_9*%
%TO.N,/nixi_driver/DIG-9*%
X230493080Y-87545540D03*
%TO.P,N6,A,A_A*%
%TO.N,Net-(Br11-Pad1)*%
X228870020Y-84456900D03*
%TO.P,N6,LHDP,LHDP_LHDP*%
%TO.N,unconnected-(N6-PadLHDP)*%
X233955100Y-87967180D03*
%TO.P,N6,RHDP,RHDP_RHDP*%
%TO.N,unconnected-(N6-PadRHDP)*%
X233955100Y-80946620D03*
%TD*%
%TO.P,N1,0,0_0*%
%TO.N,/nixi_driver/DIG-10*%
X229332780Y-149389060D03*
%TO.P,N1,1,1_1*%
%TO.N,/nixi_driver/DIG-1*%
X229332780Y-145904180D03*
%TO.P,N1,2,2_2*%
%TO.N,/nixi_driver/DIG-2*%
X235464340Y-150135820D03*
%TO.P,N1,3,3_3*%
%TO.N,/nixi_driver/DIG-3*%
X232202980Y-143920440D03*
%TO.P,N1,4,4_4*%
%TO.N,/nixi_driver/DIG-4*%
X235464340Y-145157420D03*
%TO.P,N1,5,5_5*%
%TO.N,/nixi_driver/DIG-5*%
X236300000Y-146750000D03*
%TO.P,N1,6,6_6*%
%TO.N,/nixi_driver/DIG-6*%
X236300000Y-148543240D03*
%TO.P,N1,7,7_7*%
%TO.N,/nixi_driver/DIG-7*%
X230524040Y-144557980D03*
%TO.P,N1,8,8_8*%
%TO.N,/nixi_driver/DIG-8*%
X232202980Y-151372800D03*
%TO.P,N1,9,9_9*%
%TO.N,/nixi_driver/DIG-9*%
X230524040Y-150735260D03*
%TO.P,N1,A,A_A*%
%TO.N,Net-(Br7-Pad1)*%
X228900980Y-147646620D03*
%TO.P,N1,LHDP,LHDP_LHDP*%
%TO.N,unconnected-(N1-PadLHDP)*%
X233986060Y-151156900D03*
%TO.P,N1,RHDP,RHDP_RHDP*%
%TO.N,unconnected-(N1-PadRHDP)*%
X233986060Y-144136340D03*
%TD*%
%TO.P,N3,0,0_0*%
%TO.N,/nixi_driver/DIG-10*%
X229332780Y-117839060D03*
%TO.P,N3,1,1_1*%
%TO.N,/nixi_driver/DIG-1*%
X229332780Y-114354180D03*
%TO.P,N3,2,2_2*%
%TO.N,/nixi_driver/DIG-2*%
X235464340Y-118585820D03*
%TO.P,N3,3,3_3*%
%TO.N,/nixi_driver/DIG-3*%
X232202980Y-112370440D03*
%TO.P,N3,4,4_4*%
%TO.N,/nixi_driver/DIG-4*%
X235464340Y-113607420D03*
%TO.P,N3,5,5_5*%
%TO.N,/nixi_driver/DIG-5*%
X236300000Y-115200000D03*
%TO.P,N3,6,6_6*%
%TO.N,/nixi_driver/DIG-6*%
X236300000Y-116993240D03*
%TO.P,N3,7,7_7*%
%TO.N,/nixi_driver/DIG-7*%
X230524040Y-113007980D03*
%TO.P,N3,8,8_8*%
%TO.N,/nixi_driver/DIG-8*%
X232202980Y-119822800D03*
%TO.P,N3,9,9_9*%
%TO.N,/nixi_driver/DIG-9*%
X230524040Y-119185260D03*
%TO.P,N3,A,A_A*%
%TO.N,Net-(Br9-Pad1)*%
X228900980Y-116096620D03*
%TO.P,N3,LHDP,LHDP_LHDP*%
%TO.N,unconnected-(N3-PadLHDP)*%
X233986060Y-119606900D03*
%TO.P,N3,RHDP,RHDP_RHDP*%
%TO.N,unconnected-(N3-PadRHDP)*%
X233986060Y-112586340D03*
%TD*%
%TO.P,N2,0,0_0*%
%TO.N,/nixi_driver/DIG-10*%
X229332780Y-133589060D03*
%TO.P,N2,1,1_1*%
%TO.N,/nixi_driver/DIG-1*%
X229332780Y-130104180D03*
%TO.P,N2,2,2_2*%
%TO.N,/nixi_driver/DIG-2*%
X235464340Y-134335820D03*
%TO.P,N2,3,3_3*%
%TO.N,/nixi_driver/DIG-3*%
X232202980Y-128120440D03*
%TO.P,N2,4,4_4*%
%TO.N,/nixi_driver/DIG-4*%
X235464340Y-129357420D03*
%TO.P,N2,5,5_5*%
%TO.N,/nixi_driver/DIG-5*%
X236300000Y-130950000D03*
%TO.P,N2,6,6_6*%
%TO.N,/nixi_driver/DIG-6*%
X236300000Y-132743240D03*
%TO.P,N2,7,7_7*%
%TO.N,/nixi_driver/DIG-7*%
X230524040Y-128757980D03*
%TO.P,N2,8,8_8*%
%TO.N,/nixi_driver/DIG-8*%
X232202980Y-135572800D03*
%TO.P,N2,9,9_9*%
%TO.N,/nixi_driver/DIG-9*%
X230524040Y-134935260D03*
%TO.P,N2,A,A_A*%
%TO.N,Net-(Br8-Pad1)*%
X228900980Y-131846620D03*
%TO.P,N2,LHDP,LHDP_LHDP*%
%TO.N,unconnected-(N2-PadLHDP)*%
X233986060Y-135356900D03*
%TO.P,N2,RHDP,RHDP_RHDP*%
%TO.N,/nixi_driver/RHDP-1*%
X233986060Y-128336340D03*
%TD*%
D17*
%TO.N,+3V3*%
X185300000Y-69660000D03*
D18*
%TO.N,Net-(U4-VFB)*%
X183366815Y-63717357D03*
X186943311Y-63558255D03*
X186521655Y-64503710D03*
%TO.N,Net-(U5-QD)*%
X202938903Y-136984954D03*
X210862616Y-92503923D03*
%TO.N,VCC*%
X186415758Y-84483261D03*
X200807553Y-88987619D03*
%TO.N,GND*%
X171162816Y-106125845D03*
X201888608Y-136257074D03*
X209550520Y-66238212D03*
X217946862Y-88399611D03*
X215258185Y-152673720D03*
X192339224Y-94147279D03*
X217790000Y-70990000D03*
X159129038Y-139286798D03*
X219979789Y-109388751D03*
X209646319Y-138106190D03*
X188339013Y-140321942D03*
X237614126Y-100666078D03*
X214908635Y-127482156D03*
X196564551Y-127410911D03*
X223754770Y-59262156D03*
X214092341Y-147321306D03*
X174209782Y-127326119D03*
X228029335Y-72079577D03*
X192722205Y-154612436D03*
X215440877Y-135782406D03*
X202438921Y-73854838D03*
X196670954Y-150045041D03*
X237537150Y-82272972D03*
X161062154Y-105110967D03*
X170627860Y-107788454D03*
X219198761Y-145415691D03*
X188834785Y-102172280D03*
X205681789Y-140014949D03*
X199652546Y-147664003D03*
X157554842Y-147753043D03*
X157808514Y-106085185D03*
X227486211Y-135113626D03*
X181350262Y-77476485D03*
X189754517Y-130456684D03*
X204791208Y-84386140D03*
X237568127Y-119564447D03*
X159130737Y-114991938D03*
X221692611Y-118538170D03*
X214460414Y-125904803D03*
X186870421Y-70233683D03*
X172034819Y-127877137D03*
X184467110Y-61221618D03*
X204526490Y-106286345D03*
X206910907Y-146291677D03*
X176355977Y-65569519D03*
X157826635Y-99500836D03*
X219237971Y-110683950D03*
X213879847Y-92468897D03*
X237615135Y-72834165D03*
X200830294Y-145090204D03*
X174649791Y-119916145D03*
X199660269Y-117118600D03*
X197623841Y-145781291D03*
X210228719Y-131973000D03*
X199461998Y-65036097D03*
X173848933Y-151224050D03*
X237561963Y-147521380D03*
X198390788Y-72427894D03*
X196813614Y-64512328D03*
X190990838Y-64573826D03*
X194032218Y-131371403D03*
X207128612Y-62775372D03*
X237623803Y-110119231D03*
X230185914Y-126777105D03*
X165035743Y-145373385D03*
X179927804Y-135017905D03*
X190206378Y-117118600D03*
X196578853Y-69239827D03*
X184675337Y-150092400D03*
X157113210Y-126865096D03*
X200263213Y-100708542D03*
X218632566Y-144944616D03*
X211127296Y-152665506D03*
X182149875Y-108857190D03*
X225288122Y-155487844D03*
X218488084Y-137079768D03*
X181424685Y-124099524D03*
X162243053Y-116392409D03*
X194211057Y-127293872D03*
X162014905Y-113289080D03*
X210846224Y-77135886D03*
X192339224Y-81023864D03*
X211866558Y-134899363D03*
X201512689Y-64701799D03*
X228040539Y-83295301D03*
X183220332Y-59262156D03*
X184078810Y-64811390D03*
X219004727Y-125282839D03*
X200629921Y-88427934D03*
X209341339Y-154742622D03*
X226968724Y-103033093D03*
X225911152Y-145740393D03*
X210122862Y-84596707D03*
X178082737Y-124717514D03*
X166469421Y-96788147D03*
X159766174Y-78814963D03*
X168222774Y-146028078D03*
X150562156Y-107605516D03*
X178947855Y-134971465D03*
X212339263Y-139454976D03*
X157611167Y-124930213D03*
X215653222Y-76671660D03*
X172112608Y-152848186D03*
X175333738Y-88628046D03*
X207957377Y-124771693D03*
X156614393Y-155487844D03*
X197926429Y-69617184D03*
X182562826Y-127390469D03*
X167256960Y-136419378D03*
X171737247Y-103160169D03*
X150562156Y-80392701D03*
X166052853Y-91211193D03*
X161653983Y-144675809D03*
X156985357Y-140229055D03*
X171247369Y-144530046D03*
X173732121Y-118294258D03*
X178577217Y-130325780D03*
X208042807Y-73027937D03*
X186949418Y-136761042D03*
X164158532Y-110606493D03*
X200466636Y-63703842D03*
X210522543Y-106302927D03*
X193488356Y-134652733D03*
X193738457Y-73418004D03*
X211061701Y-115050560D03*
X194430000Y-65820000D03*
X203592940Y-69334284D03*
X150562156Y-70938809D03*
X173154331Y-90103236D03*
X180455554Y-123877522D03*
X159903346Y-145425752D03*
X170541116Y-78980932D03*
X157242336Y-87223447D03*
X210045555Y-116559519D03*
X216543212Y-74820212D03*
X203503588Y-125256472D03*
X151579443Y-97595607D03*
X167940097Y-59262156D03*
X230590550Y-92235492D03*
X188203060Y-78585249D03*
X171796011Y-137147322D03*
X203972016Y-73090794D03*
X208375828Y-151203078D03*
X211486717Y-92883142D03*
X210865550Y-135737596D03*
X192626562Y-60689597D03*
X237566446Y-138067715D03*
X217298081Y-148086909D03*
X183470533Y-62146298D03*
X193865663Y-63585506D03*
X150562156Y-59262156D03*
%TO.N,Net-(Q12-B)*%
X207309281Y-115256893D03*
X183087345Y-116417960D03*
%TO.N,Net-(Q12-C)*%
X211303688Y-113114089D03*
X213161513Y-116813236D03*
%TO.N,Net-(Q8-C)*%
X175723194Y-144743153D03*
X160002799Y-142430391D03*
%TO.N,/mcu/GPIO6*%
X185218742Y-116238174D03*
X224007040Y-71987830D03*
%TO.N,/mcu/SCLK*%
X204380139Y-141994223D03*
X173052180Y-142430194D03*
%TO.N,Net-(U7-IO12)*%
X185638289Y-141431990D03*
X179548430Y-141204196D03*
%TO.N,/mcu/MOSI*%
X211034212Y-139596035D03*
X176316440Y-137113344D03*
%TO.N,/mcu/CS*%
X176272075Y-128298139D03*
X202447357Y-138637345D03*
X207031136Y-140652490D03*
X213631628Y-139848000D03*
%TO.N,/mcu/GPIO0*%
X178650000Y-143349224D03*
X170246806Y-127013453D03*
%TO.N,/mcu/GPIO2*%
X166569400Y-122869673D03*
X203879295Y-126911250D03*
%TO.N,/mcu/TX_OUT*%
X164277179Y-125217257D03*
X187930596Y-129200500D03*
%TO.N,/mcu/RX_IN*%
X161189385Y-124930693D03*
X186555940Y-128286165D03*
%TO.N,+12V*%
X186026037Y-64706007D03*
%TO.N,Net-(Q13-B)*%
X211976265Y-113702788D03*
X212736238Y-113172285D03*
%TO.N,Net-(U2-QB)*%
X203659095Y-152463660D03*
X210027292Y-146792551D03*
%TO.N,Net-(Br9-Pad1)*%
X217086002Y-116872324D03*
%TO.N,Net-(Q13-C)*%
X215670765Y-114488922D03*
X214324922Y-115929091D03*
%TO.N,Net-(Q30-B)*%
X212150858Y-151322352D03*
X212832055Y-149898917D03*
%TO.N,Net-(Q14-B)*%
X170737275Y-115527249D03*
X187889141Y-113297361D03*
X216736391Y-109691577D03*
X209660478Y-110704317D03*
%TO.N,Net-(Q14-C)*%
X213531058Y-105690847D03*
X215542282Y-106542586D03*
%TO.N,Net-(U4-SW)*%
X183937227Y-65944613D03*
X186798480Y-65852862D03*
%TO.N,Net-(U4-VBST)*%
X191268393Y-62981316D03*
X183545811Y-67651072D03*
%TO.N,Net-(J6-D--PadA7)*%
X185906250Y-123143857D03*
X160068293Y-106078479D03*
%TO.N,Net-(Br12-Pad1)*%
X191054758Y-77373776D03*
%TO.N,Net-(U2-QG)*%
X215447549Y-146054337D03*
X217730691Y-150750788D03*
%TO.N,/nixi_driver/DIG-6*%
X194597868Y-151037089D03*
X236518029Y-122216118D03*
%TO.N,Net-(Q19-B)*%
X185701143Y-75508938D03*
X184695590Y-81759276D03*
%TO.N,Net-(Q10-B)*%
X211707770Y-128287103D03*
X221553343Y-126301483D03*
%TO.N,/nixi_driver/DIG-9*%
X231299900Y-133838371D03*
X217443569Y-125610382D03*
X229983714Y-90610026D03*
X234046128Y-149135632D03*
%TO.N,Net-(U1-FA{slash}SD)*%
X208881600Y-62775091D03*
X202465229Y-67014763D03*
%TO.N,Net-(Q11-C)*%
X219263915Y-128731219D03*
X222639466Y-132077370D03*
%TO.N,Net-(U5-QB)*%
X201897534Y-134285387D03*
X201987950Y-135536890D03*
%TO.N,Net-(U5-QC)*%
X209151739Y-136547505D03*
X203699663Y-136577120D03*
%TO.N,Net-(U2-QH')*%
X218025966Y-138585878D03*
X206981974Y-138222753D03*
%TO.N,Net-(U5-QA)*%
X205682000Y-136221425D03*
X210298449Y-127409654D03*
%TO.N,Net-(Q15-B)*%
X215868343Y-104979818D03*
X215111600Y-105611437D03*
%TO.N,/mcu/UART/DTR*%
X183640076Y-139170214D03*
X182293726Y-141502758D03*
%TO.N,Net-(J6-D+-PadA6)*%
X186511336Y-122773273D03*
X164961320Y-111857141D03*
%TO.N,Net-(Q10-C)*%
X222283380Y-131338600D03*
X222126263Y-129654824D03*
%TO.N,/mcu/UART/RTS*%
X185691140Y-138811881D03*
X186716234Y-142888745D03*
%TO.N,Net-(Q11-B)*%
X220736053Y-133138199D03*
X218010706Y-131599043D03*
%TO.N,/nixi_driver/DIG-8*%
X226245769Y-148786583D03*
X223427725Y-147355441D03*
%TO.N,Net-(U2-QH)*%
X218450776Y-147176383D03*
X216257661Y-145973065D03*
%TO.N,Net-(Q29-B)*%
X207676960Y-151172380D03*
X208603211Y-148082021D03*
%TO.N,/nixi_driver/DIG-4*%
X209183685Y-149297316D03*
%TO.N,Net-(Q9-B)*%
X178880529Y-114604201D03*
X200430343Y-124966799D03*
%TO.N,Net-(U1-COMP)*%
X202283542Y-71229976D03*
X205173565Y-65582392D03*
%TO.N,Net-(Br7-Pad1)*%
X206837230Y-121427317D03*
X226459483Y-145530314D03*
%TO.N,Net-(Q18-B)*%
X188228896Y-80525907D03*
X222705000Y-71230000D03*
%TO.N,Net-(Q7-B)*%
X199077459Y-118737630D03*
X199643580Y-120659332D03*
%TO.N,/nixi_driver/DIG-5*%
X237288736Y-93906175D03*
X214045736Y-152249300D03*
%TO.N,/nixi_driver/DIG-10*%
X231024980Y-148211443D03*
%TO.N,Net-(Br11-Pad1)*%
X219631835Y-79150170D03*
X191463708Y-84876207D03*
%TO.N,/nixi_driver/DIG-1*%
X229311722Y-125549671D03*
X218879869Y-135130272D03*
%TO.N,/nixi_driver/DIG-7*%
X231160024Y-92370234D03*
X230409339Y-142858576D03*
X217617989Y-150313810D03*
%TD*%
%TO.N,+3V3*%
D19*
X184260000Y-70700000D02*
X185300000Y-69660000D01*
X170650000Y-70700000D02*
X184260000Y-70700000D01*
%TO.N,Net-(U4-VFB)*%
D20*
X186943311Y-64082054D02*
X186943311Y-63558255D01*
X183366815Y-63717357D02*
X185537001Y-63717357D01*
X186323354Y-64503710D02*
X186521655Y-64503710D01*
X185537001Y-63717357D02*
X186323354Y-64503710D01*
X186521655Y-64503710D02*
X186943311Y-64082054D01*
%TO.N,Net-(U5-QD)*%
X209254453Y-113813729D02*
X205292597Y-117775586D01*
X210862616Y-92503923D02*
X209254453Y-94112085D01*
X205292597Y-117775586D02*
X205292597Y-126203423D01*
X205292597Y-126203423D02*
X202938903Y-128557117D01*
X209254453Y-94112085D02*
X209254453Y-113813729D01*
X202938903Y-128557117D02*
X202938903Y-136984954D01*
%TO.N,VCC*%
D21*
X200807553Y-88987619D02*
X190920116Y-88987619D01*
X190920116Y-88987619D02*
X186415758Y-84483261D01*
%TO.N,/nixi_driver/DIG-2*%
D20*
X235464340Y-130689202D02*
X235464340Y-133397288D01*
X235505100Y-71963552D02*
X237039194Y-73497646D01*
X236097023Y-86282457D02*
X235635813Y-86743667D01*
X235464340Y-119524352D02*
X235464340Y-126362651D01*
X235514340Y-101897288D02*
X235514340Y-102263254D01*
X237039194Y-85707134D02*
X236463870Y-86282457D01*
X236463870Y-86282457D02*
X236097023Y-86282457D01*
X234798741Y-97109998D02*
X234665653Y-97821417D01*
X237039194Y-73497646D02*
X237039194Y-85707134D01*
X234665653Y-101048601D02*
X235514340Y-101897288D01*
X235464340Y-133763254D02*
X235464340Y-134335820D01*
X236233921Y-129919622D02*
X235464340Y-130689202D01*
X235464340Y-133397288D02*
X235464340Y-133763254D01*
X235433380Y-96475359D02*
X234798741Y-97109998D01*
X234665653Y-97821417D02*
X234665653Y-101048601D01*
X235464340Y-118585820D02*
X235464340Y-119158386D01*
X235464340Y-126362651D02*
X236233921Y-127132232D01*
X236233921Y-127132232D02*
X236233921Y-129919622D01*
X235505100Y-71025020D02*
X235505100Y-71597586D01*
X235464340Y-119158386D02*
X235464340Y-119524352D01*
X235505100Y-71597586D02*
X235505100Y-71963552D01*
X235635813Y-86743667D02*
X235433380Y-86946100D01*
X235433380Y-87518666D02*
X235433380Y-87884632D01*
X235433380Y-86946100D02*
X235433380Y-87518666D01*
X235514340Y-102263254D02*
X235514340Y-102835820D01*
X235433380Y-87884632D02*
X235433380Y-96475359D01*
%TO.N,Net-(Q12-B)*%
X183290028Y-116620643D02*
X183087345Y-116417960D01*
X207309281Y-115256893D02*
X205945530Y-116620643D01*
X205945530Y-116620643D02*
X183290028Y-116620643D01*
%TO.N,Net-(Q12-C)*%
X213161513Y-115496346D02*
X213161513Y-116813236D01*
X211303688Y-113638520D02*
X213161513Y-115496346D01*
X211303688Y-113114089D02*
X211303688Y-113638520D01*
%TO.N,Net-(Q8-C)*%
X160002799Y-142430391D02*
X162447837Y-144875428D01*
X175590919Y-144875428D02*
X175723194Y-144743153D01*
X162447837Y-144875428D02*
X175590919Y-144875428D01*
%TO.N,/mcu/GPIO6*%
X185218742Y-116238174D02*
X185437797Y-116238174D01*
X224007040Y-77668931D02*
X224007040Y-71987830D01*
X185437797Y-116238174D02*
X224007040Y-77668931D01*
%TO.N,/mcu/SCLK*%
X173052180Y-142430194D02*
X174314326Y-143692339D01*
X202682023Y-143692339D02*
X204380139Y-141994223D01*
X174314326Y-143692339D02*
X202682023Y-143692339D01*
%TO.N,Net-(U7-IO12)*%
X185208173Y-141862107D02*
X185638289Y-141431990D01*
X179548430Y-141204196D02*
X180206341Y-141862107D01*
X180206341Y-141862107D02*
X185208173Y-141862107D01*
%TO.N,/mcu/MOSI*%
X187061467Y-137113344D02*
X189544158Y-139596035D01*
X189544158Y-139596035D02*
X211034212Y-139596035D01*
X176316440Y-137113344D02*
X187061467Y-137113344D01*
%TO.N,/mcu/CS*%
X212827138Y-140652490D02*
X213631628Y-139848000D01*
X176272075Y-128298139D02*
X177779177Y-129805241D01*
X183428515Y-129805241D02*
X184935617Y-131312343D01*
X207031136Y-140652490D02*
X212827138Y-140652490D01*
X193599158Y-134326547D02*
X198136559Y-134326547D01*
X184935617Y-131312343D02*
X190584954Y-131312343D01*
X190584954Y-131312343D02*
X193599158Y-134326547D01*
X198136559Y-134326547D02*
X202447357Y-138637345D01*
X177779177Y-129805241D02*
X183428515Y-129805241D01*
%TO.N,/mcu/GPIO0*%
X177457984Y-143339678D02*
X170246806Y-136128500D01*
X178640454Y-143339678D02*
X177457984Y-143339678D01*
X170246806Y-136128500D02*
X170246806Y-127013453D01*
X178650000Y-143349224D02*
X178640454Y-143339678D01*
%TO.N,/mcu/GPIO2*%
X183400306Y-122869673D02*
X166569400Y-122869673D01*
X203879295Y-126911250D02*
X187441883Y-126911250D01*
X187441883Y-126911250D02*
X183400306Y-122869673D01*
%TO.N,/mcu/TX_OUT*%
X178095509Y-129200500D02*
X187930596Y-129200500D01*
X174112267Y-125217257D02*
X178095509Y-129200500D01*
X164277179Y-125217257D02*
X174112267Y-125217257D01*
%TO.N,/mcu/RX_IN*%
X161189385Y-124930693D02*
X162589356Y-123530721D01*
X162589356Y-123530721D02*
X181800496Y-123530721D01*
X181800496Y-123530721D02*
X186555940Y-128286165D01*
%TO.N,+12V*%
D21*
X175164763Y-67057683D02*
X174314763Y-67057683D01*
X177247224Y-65406223D02*
X175595764Y-67057683D01*
X186026037Y-64706007D02*
X185325821Y-65406223D01*
X185325821Y-65406223D02*
X177247224Y-65406223D01*
X175595764Y-67057683D02*
X175164763Y-67057683D01*
%TO.N,/nixi_driver/DIG-3*%
D20*
X232172020Y-80730720D02*
X232172020Y-81303286D01*
X232172020Y-81669252D02*
X232936713Y-82433945D01*
X232202980Y-129058972D02*
X232202980Y-128693006D01*
X232202980Y-128693006D02*
X232202980Y-128120440D01*
X231386069Y-134778144D02*
X232202980Y-133961232D01*
X232252980Y-95681908D02*
X232252980Y-96047874D01*
X232202980Y-142981908D02*
X231386069Y-142164996D01*
X232202980Y-143347874D02*
X232202980Y-142981908D01*
X232936713Y-82433945D02*
X232936713Y-94998175D01*
X232936713Y-94998175D02*
X232252980Y-95681908D01*
X231386069Y-142164996D02*
X231386069Y-134778144D01*
X232252980Y-96047874D02*
X232252980Y-96620440D01*
X232202980Y-143920440D02*
X232202980Y-143347874D01*
X232172020Y-81303286D02*
X232172020Y-81669252D01*
X232202980Y-133961232D02*
X232202980Y-129058972D01*
%TO.N,Net-(Q13-B)*%
X212506768Y-113172285D02*
X212736238Y-113172285D01*
X211976265Y-113702788D02*
X212506768Y-113172285D01*
%TO.N,Net-(U2-QB)*%
X203659095Y-152463660D02*
X209330204Y-146792551D01*
X209330204Y-146792551D02*
X210027292Y-146792551D01*
%TO.N,Net-(Br9-Pad1)*%
X228328414Y-116096620D02*
X228900980Y-116096620D01*
X217861706Y-116096620D02*
X227962448Y-116096620D01*
X217086002Y-116872324D02*
X217861706Y-116096620D01*
X227962448Y-116096620D02*
X228328414Y-116096620D01*
%TO.N,Net-(Q13-C)*%
X214324922Y-115929091D02*
X214324922Y-115834765D01*
X214324922Y-115834765D02*
X215670765Y-114488922D01*
%TO.N,Net-(Q30-B)*%
X212832055Y-149898917D02*
X212150858Y-150580114D01*
X212150858Y-150580114D02*
X212150858Y-151322352D01*
%TO.N,Net-(Q14-B)*%
X215723650Y-110704317D02*
X209660478Y-110704317D01*
X172967162Y-113297361D02*
X170737275Y-115527249D01*
X216736391Y-109691577D02*
X215723650Y-110704317D01*
X187889141Y-113297361D02*
X172967162Y-113297361D01*
%TO.N,Net-(Q14-C)*%
X213531058Y-105690847D02*
X214690543Y-105690847D01*
X214690543Y-105690847D02*
X215542282Y-106542586D01*
%TO.N,Net-(U4-SW)*%
X186706729Y-65944613D02*
X183937227Y-65944613D01*
X186798480Y-65852862D02*
X186706729Y-65944613D01*
%TO.N,Net-(U4-VBST)*%
X191268393Y-62981316D02*
X186598637Y-67651072D01*
X186598637Y-67651072D02*
X183545811Y-67651072D01*
%TO.N,Net-(J6-D--PadA7)*%
X172065653Y-119455207D02*
X182217600Y-119455207D01*
X160068293Y-106078479D02*
X160068293Y-107457846D01*
X160068293Y-107457846D02*
X172065653Y-119455207D01*
X182217600Y-119455207D02*
X185906250Y-123143857D01*
%TO.N,Net-(Br12-Pad1)*%
X208012939Y-67459406D02*
X227865326Y-67459406D01*
X198098570Y-77373776D02*
X208012939Y-67459406D01*
X191054758Y-77373776D02*
X198098570Y-77373776D01*
X228739307Y-68333387D02*
X228941740Y-68535820D01*
X228278097Y-67872177D02*
X228739307Y-68333387D01*
X227865326Y-67459406D02*
X228278097Y-67872177D01*
%TO.N,Net-(U2-QG)*%
X217456557Y-150750788D02*
X215447549Y-148741781D01*
X215447549Y-148741781D02*
X215447549Y-146054337D01*
X217730691Y-150750788D02*
X217456557Y-150750788D01*
%TO.N,/nixi_driver/DIG-6*%
X234632934Y-115326174D02*
X235636357Y-116329597D01*
X236300000Y-133681772D02*
X236300000Y-133315806D01*
X231560420Y-148543240D02*
X235361468Y-148543240D01*
X235636357Y-116329597D02*
X236097567Y-116790807D01*
X236350000Y-101815806D02*
X236350000Y-102181772D01*
X235361468Y-148543240D02*
X235727434Y-148543240D01*
X236502433Y-148340807D02*
X236963643Y-147879597D01*
X194597868Y-151037089D02*
X197805444Y-154244665D01*
X236350000Y-111602054D02*
X234632934Y-113319120D01*
X225858995Y-154244665D02*
X231560420Y-148543240D01*
X236300000Y-117931772D02*
X236300000Y-121998089D01*
X236300000Y-121998089D02*
X236518029Y-122216118D01*
X236350000Y-102181772D02*
X236350000Y-111602054D01*
X236300000Y-133315806D02*
X236300000Y-132743240D01*
X234632934Y-113319120D02*
X234632934Y-115326174D01*
X237064007Y-147779233D02*
X237064007Y-134445779D01*
X236300000Y-117565806D02*
X236300000Y-117931772D01*
X236963643Y-147879597D02*
X237064007Y-147779233D01*
X236300000Y-116993240D02*
X236300000Y-117565806D01*
X197805444Y-154244665D02*
X225858995Y-154244665D01*
X235727434Y-148543240D02*
X236300000Y-148543240D01*
X237064007Y-134445779D02*
X236300000Y-133681772D01*
X236350000Y-101243240D02*
X236350000Y-101815806D01*
X236097567Y-116790807D02*
X236300000Y-116993240D01*
X236300000Y-148543240D02*
X236502433Y-148340807D01*
%TO.N,Net-(Q19-B)*%
X184695590Y-81759276D02*
X185701143Y-80753722D01*
X185701143Y-80753722D02*
X185701143Y-75508938D01*
%TO.N,Net-(Q10-B)*%
X219567723Y-128287103D02*
X221553343Y-126301483D01*
X211707770Y-128287103D02*
X219567723Y-128287103D01*
%TO.N,/nixi_driver/DIG-9*%
X231299900Y-134159400D02*
X231176424Y-134282876D01*
X231096606Y-150735260D02*
X231271501Y-150735260D01*
X230574040Y-98698794D02*
X230574040Y-102496728D01*
X229860397Y-119848903D02*
X230321607Y-119387693D01*
X230564800Y-71624460D02*
X230564800Y-72197026D01*
X228931007Y-83576312D02*
X229142836Y-83576312D01*
X231176424Y-134282876D02*
X230726473Y-134732827D01*
X228520325Y-83165630D02*
X228931007Y-83576312D01*
X217443569Y-125610382D02*
X223205049Y-119848903D01*
X231299900Y-133838371D02*
X231299900Y-134159400D01*
X231271501Y-150735260D02*
X232871128Y-149135632D01*
X229142836Y-83576312D02*
X230493080Y-84926555D01*
X223205049Y-119848903D02*
X229860397Y-119848903D01*
X230493080Y-86972974D02*
X230493080Y-87545540D01*
X230564800Y-72562992D02*
X228520325Y-74607467D01*
X230524040Y-150735260D02*
X231096606Y-150735260D01*
X230574040Y-102862694D02*
X230574040Y-103435260D01*
X229983714Y-90610026D02*
X229716876Y-90876864D01*
X230493080Y-84926555D02*
X230493080Y-86607008D01*
X230493080Y-86607008D02*
X230493080Y-86972974D01*
X228520325Y-74607467D02*
X228520325Y-83165630D01*
X230321607Y-119387693D02*
X230524040Y-119185260D01*
X229716876Y-90876864D02*
X229716876Y-97841630D01*
X229716876Y-97841630D02*
X230574040Y-98698794D01*
X232871128Y-149135632D02*
X234046128Y-149135632D01*
X230564800Y-72197026D02*
X230564800Y-72562992D01*
X230726473Y-134732827D02*
X230524040Y-134935260D01*
X230574040Y-102496728D02*
X230574040Y-102862694D01*
%TO.N,Net-(U1-FA{slash}SD)*%
X208881600Y-62775091D02*
X206798263Y-64858428D01*
X204621564Y-64858428D02*
X202465229Y-67014763D01*
X206798263Y-64858428D02*
X204621564Y-64858428D01*
%TO.N,Net-(Q11-C)*%
X219263915Y-128909415D02*
X219263915Y-128731219D01*
X222431870Y-132077370D02*
X219263915Y-128909415D01*
X222639466Y-132077370D02*
X222431870Y-132077370D01*
%TO.N,Net-(U5-QB)*%
X201987950Y-135536890D02*
X201897534Y-135446474D01*
X201897534Y-135446474D02*
X201897534Y-134285387D01*
%TO.N,Net-(U5-QC)*%
X203699663Y-136577120D02*
X209122124Y-136577120D01*
X209122124Y-136577120D02*
X209151739Y-136547505D01*
%TO.N,Net-(U2-QH')*%
X206981974Y-138222753D02*
X207345099Y-138585878D01*
X207345099Y-138585878D02*
X218025966Y-138585878D01*
%TO.N,Net-(U5-QA)*%
X205682000Y-132026103D02*
X210298449Y-127409654D01*
X205682000Y-136221425D02*
X205682000Y-132026103D01*
%TO.N,Net-(Q15-B)*%
X215868343Y-104979818D02*
X215236724Y-105611437D01*
X215236724Y-105611437D02*
X215111600Y-105611437D01*
%TO.N,/mcu/UART/DTR*%
X182293726Y-141502758D02*
X183640076Y-140156408D01*
X183640076Y-140156408D02*
X183640076Y-139170214D01*
%TO.N,Net-(J6-D+-PadA6)*%
X169486384Y-116382205D02*
X180120268Y-116382205D01*
X164961320Y-111857141D02*
X169486384Y-116382205D01*
X180120268Y-116382205D02*
X186511336Y-122773273D01*
%TO.N,Net-(Q10-C)*%
X222126263Y-129654824D02*
X222283380Y-129811941D01*
X222283380Y-129811941D02*
X222283380Y-131338600D01*
%TO.N,/mcu/UART/RTS*%
X185691140Y-138811881D02*
X186716234Y-139836975D01*
X186716234Y-139836975D02*
X186716234Y-142888745D01*
%TO.N,Net-(Q11-B)*%
X218010706Y-131599043D02*
X219549862Y-133138199D01*
X219549862Y-133138199D02*
X220736053Y-133138199D01*
%TO.N,/nixi_driver/DIG-8*%
X232172020Y-88183080D02*
X232172020Y-88755646D01*
X226245769Y-148786583D02*
X224814627Y-147355441D01*
X232172020Y-92580076D02*
X231464499Y-93287598D01*
X233067854Y-121626207D02*
X233067854Y-133769393D01*
X231464499Y-97615607D02*
X232252980Y-98404089D01*
X233067854Y-133769393D02*
X232202980Y-134634268D01*
X232172020Y-89121612D02*
X232172020Y-92580076D01*
X232202980Y-135000234D02*
X232202980Y-135572800D01*
X232202980Y-119250234D02*
X232202980Y-119822800D01*
X232202980Y-134634268D02*
X232202980Y-135000234D01*
X232252980Y-104645366D02*
X232252980Y-105011332D01*
X232252980Y-105011332D02*
X233018323Y-105776675D01*
X232202980Y-119822800D02*
X232202980Y-120395366D01*
X232172020Y-88755646D02*
X232172020Y-89121612D01*
X232252980Y-104072800D02*
X232252980Y-104645366D01*
X232252980Y-103134268D02*
X232252980Y-103500234D01*
X232202980Y-118884268D02*
X232202980Y-119250234D01*
X232252980Y-98404089D02*
X232252980Y-103134268D01*
X232252980Y-103500234D02*
X232252980Y-104072800D01*
X231464499Y-93287598D02*
X231464499Y-97615607D01*
X233018323Y-105776675D02*
X233018323Y-118068925D01*
X232202980Y-120761332D02*
X233067854Y-121626207D01*
X232202980Y-120395366D02*
X232202980Y-120761332D01*
X224814627Y-147355441D02*
X223427725Y-147355441D01*
X233018323Y-118068925D02*
X232202980Y-118884268D01*
%TO.N,Net-(U2-QH)*%
X218450776Y-147176383D02*
X217247459Y-145973065D01*
X217247459Y-145973065D02*
X216257661Y-145973065D01*
%TO.N,Net-(Q29-B)*%
X207676960Y-151172380D02*
X208603211Y-150246130D01*
X208603211Y-150246130D02*
X208603211Y-148082021D01*
%TO.N,/nixi_driver/DIG-4*%
X233001356Y-146681871D02*
X234525808Y-145157420D01*
X219021546Y-151095982D02*
X223435656Y-146681871D01*
X234891774Y-145157420D02*
X235464340Y-145157420D01*
X212967608Y-149297316D02*
X214766274Y-151095982D01*
X223435656Y-146681871D02*
X233001356Y-146681871D01*
X209183685Y-149297316D02*
X212967608Y-149297316D01*
X235464340Y-144218888D02*
X235464340Y-135595663D01*
X235464340Y-129929986D02*
X235464340Y-129357420D01*
X235464340Y-130232262D02*
X235464340Y-129929986D01*
X235464340Y-135595663D02*
X234690620Y-134821943D01*
X234690620Y-131005981D02*
X235464340Y-130232262D01*
X234690620Y-134821943D02*
X234690620Y-131005981D01*
X235464340Y-144584854D02*
X235464340Y-144218888D01*
X214766274Y-151095982D02*
X219021546Y-151095982D01*
X235464340Y-145157420D02*
X235464340Y-144584854D01*
X234525808Y-145157420D02*
X234891774Y-145157420D01*
%TO.N,Net-(Q9-B)*%
X189243127Y-124966799D02*
X178880529Y-114604201D01*
X200430343Y-124966799D02*
X189243127Y-124966799D01*
%TO.N,Net-(U1-COMP)*%
X202283542Y-71229976D02*
X205173565Y-68339954D01*
X205173565Y-68339954D02*
X205173565Y-65582392D01*
%TO.N,Net-(Br7-Pad1)*%
X211018587Y-125608674D02*
X211018587Y-128096913D01*
X211018587Y-128096913D02*
X226459483Y-143537809D01*
X226459483Y-143537809D02*
X226459483Y-145530314D01*
X206837230Y-121427317D02*
X211018587Y-125608674D01*
%TO.N,Net-(Q18-B)*%
X221825000Y-72110000D02*
X213836323Y-72110000D01*
X213836323Y-72110000D02*
X205420416Y-80525907D01*
X222705000Y-71230000D02*
X221825000Y-72110000D01*
X205420416Y-80525907D02*
X188228896Y-80525907D01*
%TO.N,Net-(Q7-B)*%
X199643580Y-120659332D02*
X199077459Y-120093211D01*
X199077459Y-120093211D02*
X199077459Y-118737630D01*
%TO.N,/nixi_driver/DIG-5*%
X236963643Y-115863643D02*
X237070171Y-115970171D01*
X236552433Y-99652433D02*
X237013643Y-100113643D01*
X234243784Y-147867684D02*
X235361468Y-146750000D01*
X229583717Y-148434160D02*
X230150194Y-147867684D01*
X237288736Y-93906175D02*
X236350000Y-94844911D01*
X236300000Y-130218462D02*
X236300000Y-130377434D01*
X236350000Y-98877434D02*
X236350000Y-99450000D01*
X214045736Y-152249300D02*
X218882258Y-152249300D01*
X236350000Y-98511468D02*
X236350000Y-98877434D01*
X229187888Y-148434160D02*
X229583717Y-148434160D01*
X237116170Y-100216170D02*
X237116170Y-113445298D01*
X236300000Y-130377434D02*
X236300000Y-130950000D01*
X235361468Y-146750000D02*
X235727434Y-146750000D01*
X237070171Y-115970171D02*
X237070171Y-129448291D01*
X237013643Y-100113643D02*
X237116170Y-100216170D01*
X218882258Y-152249300D02*
X221557418Y-149574140D01*
X235727434Y-146750000D02*
X236300000Y-146750000D01*
X236300000Y-114261468D02*
X236300000Y-114627434D01*
X237070171Y-129448291D02*
X236300000Y-130218462D01*
X230150194Y-147867684D02*
X234243784Y-147867684D01*
X221557418Y-149574140D02*
X228047908Y-149574140D01*
X236350000Y-94844911D02*
X236350000Y-98511468D01*
X236350000Y-99450000D02*
X236552433Y-99652433D01*
X236502433Y-115402433D02*
X236963643Y-115863643D01*
X237116170Y-113445298D02*
X236300000Y-114261468D01*
X236300000Y-115200000D02*
X236502433Y-115402433D01*
X236300000Y-114627434D02*
X236300000Y-115200000D01*
X228047908Y-149574140D02*
X229187888Y-148434160D01*
%TO.N,/nixi_driver/DIG-10*%
X229301820Y-87137872D02*
X228540617Y-87899075D01*
X229535213Y-133386627D02*
X229332780Y-133589060D01*
X229906351Y-118412631D02*
X230851085Y-118412631D01*
X229332780Y-149389060D02*
X229535213Y-149186627D01*
X229332780Y-117839060D02*
X229535213Y-118041493D01*
X229301820Y-86199340D02*
X229301820Y-86771906D01*
X229744400Y-100852598D02*
X229382780Y-101214218D01*
X231296763Y-131625077D02*
X229996423Y-132925417D01*
X229996423Y-132925417D02*
X229535213Y-133386627D01*
X231296763Y-118858309D02*
X231296763Y-131625077D01*
X229301820Y-86771906D02*
X229301820Y-87137872D01*
X228540617Y-87899075D02*
X228540617Y-98961150D01*
X229225258Y-99464544D02*
X229744400Y-99983686D01*
X230510397Y-148211443D02*
X231024980Y-148211443D01*
X229535213Y-149186627D02*
X229996423Y-148725417D01*
X229382780Y-101516494D02*
X229382780Y-102089060D01*
X229382780Y-101214218D02*
X229382780Y-101516494D01*
X228540617Y-98961150D02*
X229044011Y-99464544D01*
X229535213Y-118041493D02*
X229906351Y-118412631D01*
X229996423Y-148725417D02*
X230510397Y-148211443D01*
X230851085Y-118412631D02*
X231296763Y-118858309D01*
X229744400Y-99983686D02*
X229744400Y-100852598D01*
X229044011Y-99464544D02*
X229225258Y-99464544D01*
%TO.N,Net-(Br11-Pad1)*%
X194326727Y-82013188D02*
X216768816Y-82013188D01*
X191463708Y-84876207D02*
X194326727Y-82013188D01*
X216768816Y-82013188D02*
X219631835Y-79150170D01*
%TO.N,/nixi_driver/DIG-1*%
X229332780Y-125570729D02*
X229332780Y-129165648D01*
X228045749Y-140994727D02*
X228045749Y-131391211D01*
X229965463Y-83378103D02*
X229504253Y-82916893D01*
X228045749Y-131391211D02*
X228669137Y-130767823D01*
X228760214Y-130104180D02*
X229332780Y-130104180D01*
X229504253Y-82916893D02*
X229301820Y-82714460D01*
X229382780Y-98604180D02*
X229382780Y-98031614D01*
X231295607Y-84708247D02*
X229965463Y-83378103D01*
X229382780Y-90238547D02*
X231295607Y-88325720D01*
X229332780Y-145904180D02*
X229905346Y-145904180D01*
X229382780Y-97665648D02*
X229382780Y-90238547D01*
X231295607Y-88325720D02*
X231295607Y-84708247D01*
X228394248Y-130104180D02*
X228760214Y-130104180D01*
X229311722Y-125549671D02*
X229332780Y-125570729D01*
X218879869Y-135130272D02*
X223368156Y-135130272D01*
X229382780Y-98031614D02*
X229382780Y-97665648D01*
X229130347Y-130306613D02*
X229332780Y-130104180D01*
X231311000Y-144259978D02*
X228045749Y-140994727D01*
X223368156Y-135130272D02*
X228394248Y-130104180D01*
X231311000Y-144864492D02*
X231311000Y-144259978D01*
X230271312Y-145904180D02*
X231311000Y-144864492D01*
X228669137Y-130767823D02*
X229130347Y-130306613D01*
X229332780Y-129165648D02*
X229332780Y-129531614D01*
X229332780Y-129531614D02*
X229332780Y-130104180D01*
X229905346Y-145904180D02*
X230271312Y-145904180D01*
%TO.N,/nixi_driver/DIG-7*%
X230574040Y-97830546D02*
X230574040Y-98196512D01*
X231404500Y-79518308D02*
X230493080Y-80429728D01*
X230564800Y-65447180D02*
X230564800Y-66019746D01*
X230524040Y-112435414D02*
X230524040Y-113007980D01*
X228557105Y-141006342D02*
X228557105Y-133277895D01*
X230493080Y-80429728D02*
X230493080Y-80795694D01*
X230574040Y-96685414D02*
X230574040Y-97257980D01*
X230564800Y-66019746D02*
X230564800Y-66385712D01*
X230524040Y-112069448D02*
X230524040Y-112435414D01*
X221593439Y-146338359D02*
X227805128Y-146338359D01*
X229951474Y-144557980D02*
X230524040Y-144557980D01*
X230524040Y-129696512D02*
X230524040Y-129330546D01*
X230574040Y-92956218D02*
X230574040Y-96319448D01*
X230409339Y-142858576D02*
X228557105Y-141006342D01*
X230524040Y-129330546D02*
X230524040Y-128757980D01*
X231413500Y-99035972D02*
X231413500Y-111179988D01*
X228557105Y-133277895D02*
X230524040Y-131310960D01*
X230574040Y-98196512D02*
X231413500Y-99035972D01*
X231404500Y-67225412D02*
X231404500Y-79518308D01*
X230574040Y-97257980D02*
X230574040Y-97830546D01*
X231413500Y-111179988D02*
X230524040Y-112069448D01*
X217617989Y-150313810D02*
X221593439Y-146338359D01*
X231160024Y-92370234D02*
X230574040Y-92956218D01*
X230524040Y-131310960D02*
X230524040Y-129696512D01*
X230493080Y-80795694D02*
X230493080Y-81368260D01*
X230564800Y-66385712D02*
X231404500Y-67225412D01*
X230574040Y-96319448D02*
X230574040Y-96685414D01*
X229585508Y-144557980D02*
X229951474Y-144557980D01*
X227805128Y-146338359D02*
X229585508Y-144557980D01*
%TD*%
M02*
