%TF.GenerationSoftware,KiCad,Pcbnew,10.0.1*%
%TF.CreationDate,2026-08-19T13:09:46+02:00*%
%TF.ProjectId,HighEffNixiPSU,48696768-4566-4664-9e69-78695053552e,rev?*%
%TF.SameCoordinates,Original*%
%TF.FileFunction,Legend,Top*%
%TF.FilePolarity,Positive*%
%FSLAX46Y46*%
G04 Gerber Fmt 4.6, Leading zero omitted, Abs format (unit mm)*
G04 Created by KiCad (PCBNEW 10.0.1) date 2026-08-19 13:09:46*
%MOMM*%
%LPD*%
G01*
G04 APERTURE LIST*
G04 Aperture macros list*
%AMRoundRect*
0 Rectangle with rounded corners*
0 $1 Rounding radius*
0 $2 $3 $4 $5 $6 $7 $8 $9 X,Y pos of 4 corners*
0 Add a 4 corners polygon primitive as box body*
4,1,4,$2,$3,$4,$5,$6,$7,$8,$9,$2,$3,0*
0 Add four circle primitives for the rounded corners*
1,1,$1+$1,$2,$3*
1,1,$1+$1,$4,$5*
1,1,$1+$1,$6,$7*
1,1,$1+$1,$8,$9*
0 Add four rect primitives between the rounded corners*
20,1,$1+$1,$2,$3,$4,$5,0*
20,1,$1+$1,$4,$5,$6,$7,0*
20,1,$1+$1,$6,$7,$8,$9,0*
20,1,$1+$1,$8,$9,$2,$3,0*%
G04 Aperture macros list end*
%ADD10C,0.150000*%
%ADD11C,0.120000*%
%ADD12C,0.100000*%
%ADD13C,0.000000*%
%ADD14C,0.200000*%
%ADD15C,0.152400*%
%ADD16C,0.050000*%
%ADD17RoundRect,0.200000X0.275000X-0.200000X0.275000X0.200000X-0.275000X0.200000X-0.275000X-0.200000X0*%
%ADD18RoundRect,0.200000X-0.200000X-0.275000X0.200000X-0.275000X0.200000X0.275000X-0.200000X0.275000X0*%
%ADD19R,3.000000X1.600000*%
%ADD20R,6.700000X6.700000*%
%ADD21RoundRect,0.150000X-0.150000X0.587500X-0.150000X-0.587500X0.150000X-0.587500X0.150000X0.587500X0*%
%ADD22RoundRect,0.150000X0.150000X-0.587500X0.150000X0.587500X-0.150000X0.587500X-0.150000X-0.587500X0*%
%ADD23RoundRect,0.250000X0.450000X-0.262500X0.450000X0.262500X-0.450000X0.262500X-0.450000X-0.262500X0*%
%ADD24R,0.900000X1.500000*%
%ADD25R,1.500000X0.900000*%
%ADD26C,0.600000*%
%ADD27R,3.800000X3.800000*%
%ADD28R,5.400000X2.900000*%
%ADD29RoundRect,0.250000X0.650000X-0.325000X0.650000X0.325000X-0.650000X0.325000X-0.650000X-0.325000X0*%
%ADD30RoundRect,0.150000X-0.587500X-0.150000X0.587500X-0.150000X0.587500X0.150000X-0.587500X0.150000X0*%
%ADD31R,1.700000X1.700000*%
%ADD32RoundRect,0.225000X-0.225000X-0.250000X0.225000X-0.250000X0.225000X0.250000X-0.225000X0.250000X0*%
%ADD33RoundRect,0.250000X-0.262500X-0.450000X0.262500X-0.450000X0.262500X0.450000X-0.262500X0.450000X0*%
%ADD34RoundRect,0.250000X0.262500X0.450000X-0.262500X0.450000X-0.262500X-0.450000X0.262500X-0.450000X0*%
%ADD35RoundRect,0.225000X0.225000X0.250000X-0.225000X0.250000X-0.225000X-0.250000X0.225000X-0.250000X0*%
%ADD36R,0.990600X0.990600*%
%ADD37RoundRect,0.087500X0.087500X-0.250000X0.087500X0.250000X-0.087500X0.250000X-0.087500X-0.250000X0*%
%ADD38RoundRect,0.250000X-0.475000X0.250000X-0.475000X-0.250000X0.475000X-0.250000X0.475000X0.250000X0*%
%ADD39RoundRect,0.250000X-0.450000X0.262500X-0.450000X-0.262500X0.450000X-0.262500X0.450000X0.262500X0*%
%ADD40RoundRect,0.200000X-0.275000X0.200000X-0.275000X-0.200000X0.275000X-0.200000X0.275000X0.200000X0*%
%ADD41RoundRect,0.250000X0.475000X-0.250000X0.475000X0.250000X-0.475000X0.250000X-0.475000X-0.250000X0*%
%ADD42RoundRect,0.225000X0.250000X-0.225000X0.250000X0.225000X-0.250000X0.225000X-0.250000X-0.225000X0*%
%ADD43RoundRect,0.150000X-0.825000X-0.150000X0.825000X-0.150000X0.825000X0.150000X-0.825000X0.150000X0*%
%ADD44RoundRect,0.250000X-0.325000X-0.650000X0.325000X-0.650000X0.325000X0.650000X-0.325000X0.650000X0*%
%ADD45C,0.650000*%
%ADD46RoundRect,0.150000X-0.575000X0.150000X-0.575000X-0.150000X0.575000X-0.150000X0.575000X0.150000X0*%
%ADD47RoundRect,0.075000X-0.650000X0.075000X-0.650000X-0.075000X0.650000X-0.075000X0.650000X0.075000X0*%
%ADD48O,2.100000X1.000000*%
%ADD49O,1.600000X1.000000*%
%ADD50RoundRect,0.200000X0.200000X0.275000X-0.200000X0.275000X-0.200000X-0.275000X0.200000X-0.275000X0*%
%ADD51RoundRect,0.150000X-0.150000X0.825000X-0.150000X-0.825000X0.150000X-0.825000X0.150000X0.825000X0*%
%ADD52RoundRect,0.250000X0.325000X0.650000X-0.325000X0.650000X-0.325000X-0.650000X0.325000X-0.650000X0*%
%ADD53RoundRect,0.250000X-0.250000X-0.475000X0.250000X-0.475000X0.250000X0.475000X-0.250000X0.475000X0*%
%ADD54RoundRect,0.125000X0.125000X-0.687500X0.125000X0.687500X-0.125000X0.687500X-0.125000X-0.687500X0*%
%ADD55RoundRect,0.150000X0.587500X0.150000X-0.587500X0.150000X-0.587500X-0.150000X0.587500X-0.150000X0*%
%ADD56C,3.400000*%
%ADD57C,6.000000*%
%ADD58R,4.495800X1.803400*%
%ADD59RoundRect,0.250001X-0.799999X2.049999X-0.799999X-2.049999X0.799999X-2.049999X0.799999X2.049999X0*%
%ADD60RoundRect,0.250000X-0.625000X0.312500X-0.625000X-0.312500X0.625000X-0.312500X0.625000X0.312500X0*%
%ADD61RoundRect,0.250000X0.450000X0.350000X-0.450000X0.350000X-0.450000X-0.350000X0.450000X-0.350000X0*%
%ADD62RoundRect,0.250000X0.312500X1.075000X-0.312500X1.075000X-0.312500X-1.075000X0.312500X-1.075000X0*%
%ADD63RoundRect,0.250000X0.250000X0.475000X-0.250000X0.475000X-0.250000X-0.475000X0.250000X-0.475000X0*%
%ADD64RoundRect,0.225000X-0.250000X0.225000X-0.250000X-0.225000X0.250000X-0.225000X0.250000X0.225000X0*%
%ADD65C,1.800000*%
%ADD66R,1.600000X3.200000*%
%ADD67R,3.000000X1.400000*%
%ADD68R,6.500000X6.000000*%
%ADD69RoundRect,0.150000X0.150000X-0.825000X0.150000X0.825000X-0.150000X0.825000X-0.150000X-0.825000X0*%
%ADD70C,1.137920*%
G04 APERTURE END LIST*
D10*
X188931862Y-70914596D02*
X189169957Y-70914596D01*
X189074719Y-71152691D02*
X189169957Y-70914596D01*
X189169957Y-70914596D02*
X189074719Y-70676501D01*
X189360433Y-71057453D02*
X189169957Y-70914596D01*
X189169957Y-70914596D02*
X189360433Y-70771739D01*
X188931862Y-70914596D02*
X189169957Y-70914596D01*
X189074719Y-71152691D02*
X189169957Y-70914596D01*
X189169957Y-70914596D02*
X189074719Y-70676501D01*
X189360433Y-71057453D02*
X189169957Y-70914596D01*
X189169957Y-70914596D02*
X189360433Y-70771739D01*
%TO.C,Rfbt1*%
D11*
X185283909Y-66824394D02*
X185283909Y-66349878D01*
X186328909Y-66824394D02*
X186328909Y-66349878D01*
%TO.C,R38*%
X211762189Y-90011316D02*
X212236705Y-90011316D01*
X211762189Y-91056316D02*
X212236705Y-91056316D01*
%TO.C,D1*%
D12*
D13*
X193895839Y-90331917D02*
X193895838Y-90331917D01*
X193895838Y-90331917D01*
X193895838Y-90331917D01*
X193895838Y-90331917D01*
X193895838Y-90331917D01*
X193895838Y-90331917D01*
X193895838Y-90331917D01*
X193895838Y-90331916D01*
X193895838Y-90331916D01*
X193895838Y-90331916D01*
X193895838Y-90331916D01*
X193895838Y-90331916D01*
X193895839Y-90331916D01*
X193895839Y-90331916D01*
X193895839Y-90331916D01*
X193895839Y-90331916D01*
X193895839Y-90331916D01*
X193895839Y-90331916D01*
X193895839Y-90331916D01*
X193895839Y-90331916D01*
X193895839Y-90331916D01*
X193895839Y-90331916D01*
X193895839Y-90331916D01*
X193895839Y-90331916D01*
X193895840Y-90331916D01*
X193895840Y-90331916D01*
X193895840Y-90331916D01*
X193895840Y-90331916D01*
X193895840Y-90331916D01*
X193895840Y-90331916D01*
X193895840Y-90331917D01*
X193895840Y-90331917D01*
X193895840Y-90331917D01*
X193895840Y-90331917D01*
X193895840Y-90331917D01*
X193895840Y-90331917D01*
X193895840Y-90331917D01*
X193895839Y-90331917D01*
X193895839Y-90331917D02*
X193895840Y-90331917D01*
X193895840Y-90331917D01*
X193895840Y-90331917D01*
X193895840Y-90331917D01*
X193895840Y-90331917D01*
X193895840Y-90331917D01*
X193895840Y-90331918D01*
X193895840Y-90331918D01*
X193895840Y-90331918D01*
X193895840Y-90331918D01*
X193895840Y-90331918D01*
X193895840Y-90331918D01*
X193895840Y-90331918D01*
X193895839Y-90331918D01*
X193895839Y-90331918D01*
X193895839Y-90331918D01*
X193895839Y-90331918D01*
X193895839Y-90331918D01*
X193895839Y-90331918D01*
X193895839Y-90331918D01*
X193895839Y-90331918D01*
X193895839Y-90331918D01*
X193895839Y-90331918D01*
X193895839Y-90331918D01*
X193895839Y-90331918D01*
X193895838Y-90331918D01*
X193895838Y-90331918D01*
X193895838Y-90331918D01*
X193895838Y-90331918D01*
X193895838Y-90331918D01*
X193895838Y-90331918D01*
X193895838Y-90331917D01*
X193895838Y-90331917D01*
X193895838Y-90331917D01*
X193895838Y-90331917D01*
X193895838Y-90331917D01*
X193895838Y-90331917D01*
X193895839Y-90331917D01*
D12*
D13*
X193995839Y-90331917D02*
X193995838Y-90331917D01*
X193995838Y-90331917D01*
X193995838Y-90331917D01*
X193995838Y-90331917D01*
X193995838Y-90331917D01*
X193995838Y-90331917D01*
X193995838Y-90331917D01*
X193995838Y-90331916D01*
X193995838Y-90331916D01*
X193995838Y-90331916D01*
X193995838Y-90331916D01*
X193995838Y-90331916D01*
X193995839Y-90331916D01*
X193995839Y-90331916D01*
X193995839Y-90331916D01*
X193995839Y-90331916D01*
X193995839Y-90331916D01*
X193995839Y-90331916D01*
X193995839Y-90331916D01*
X193995839Y-90331916D01*
X193995839Y-90331916D01*
X193995839Y-90331916D01*
X193995839Y-90331916D01*
X193995839Y-90331916D01*
X193995840Y-90331916D01*
X193995840Y-90331916D01*
X193995840Y-90331916D01*
X193995840Y-90331916D01*
X193995840Y-90331916D01*
X193995840Y-90331916D01*
X193995840Y-90331917D01*
X193995840Y-90331917D01*
X193995840Y-90331917D01*
X193995840Y-90331917D01*
X193995840Y-90331917D01*
X193995840Y-90331917D01*
X193995840Y-90331917D01*
X193995839Y-90331917D01*
X193995839Y-90331917D02*
X193995840Y-90331917D01*
X193995840Y-90331917D01*
X193995840Y-90331917D01*
X193995840Y-90331917D01*
X193995840Y-90331917D01*
X193995840Y-90331917D01*
X193995840Y-90331918D01*
X193995840Y-90331918D01*
X193995840Y-90331918D01*
X193995840Y-90331918D01*
X193995840Y-90331918D01*
X193995840Y-90331918D01*
X193995840Y-90331918D01*
X193995839Y-90331918D01*
X193995839Y-90331918D01*
X193995839Y-90331918D01*
X193995839Y-90331918D01*
X193995839Y-90331918D01*
X193995839Y-90331918D01*
X193995839Y-90331918D01*
X193995839Y-90331918D01*
X193995839Y-90331918D01*
X193995839Y-90331918D01*
X193995839Y-90331918D01*
X193995839Y-90331918D01*
X193995838Y-90331918D01*
X193995838Y-90331918D01*
X193995838Y-90331918D01*
X193995838Y-90331918D01*
X193995838Y-90331918D01*
X193995838Y-90331918D01*
X193995838Y-90331917D01*
X193995838Y-90331917D01*
X193995838Y-90331917D01*
X193995838Y-90331917D01*
X193995838Y-90331917D01*
X193995838Y-90331917D01*
X193995839Y-90331917D01*
D14*
X199765839Y-89347917D02*
X199765839Y-95887917D01*
X199765839Y-95887917D02*
X200085839Y-95887917D01*
X200085839Y-89347917D02*
X199765839Y-89347917D01*
D12*
X193895839Y-90331917D02*
G75*
G02*
X193995839Y-90331917I50000J0D01*
G01*
X193995839Y-90331917D02*
G75*
G02*
X193895839Y-90331917I-50000J0D01*
G01*
%TO.C,Q27*%
D11*
X199646789Y-147896472D02*
X199696789Y-147896472D01*
X199646789Y-149416472D02*
X199646789Y-147896472D01*
X200646789Y-149416472D02*
X199646789Y-149416472D01*
X200816789Y-147896472D02*
X201596789Y-147896472D01*
X202716789Y-147896472D02*
X202766789Y-147896472D01*
X202766789Y-147896472D02*
X202766789Y-149416472D01*
X202766789Y-149416472D02*
X201766789Y-149416472D01*
X201586789Y-147356472D02*
X201256789Y-147596472D01*
X201256789Y-147116472D01*
X201586789Y-147356472D01*
G36*
X201586789Y-147356472D02*
G01*
X201256789Y-147596472D01*
X201256789Y-147116472D01*
X201586789Y-147356472D01*
G37*
%TO.C,Q12*%
X209140459Y-113291589D02*
X210140459Y-113291589D01*
X209140459Y-114811589D02*
X209140459Y-113291589D01*
X209190459Y-114811589D02*
X209140459Y-114811589D01*
X211090459Y-114811589D02*
X210310459Y-114811589D01*
X211260459Y-113291589D02*
X212260459Y-113291589D01*
X212260459Y-113291589D02*
X212260459Y-114811589D01*
X212260459Y-114811589D02*
X212210459Y-114811589D01*
X210650459Y-115591589D02*
X210320459Y-115351589D01*
X210650459Y-115111589D01*
X210650459Y-115591589D01*
G36*
X210650459Y-115591589D02*
G01*
X210320459Y-115351589D01*
X210650459Y-115111589D01*
X210650459Y-115591589D01*
G37*
%TO.C,Rcomp1*%
X166304067Y-90571426D02*
X166304067Y-90117298D01*
X167774067Y-90571426D02*
X167774067Y-90117298D01*
%TO.C,U7*%
X149870000Y-123530000D02*
X156285000Y-123530000D01*
X149870000Y-141770000D02*
X149870000Y-123530000D01*
X149870000Y-141770000D02*
X156030000Y-141770000D01*
X174830000Y-123530000D02*
X175610000Y-123530000D01*
X174830000Y-141770000D02*
X175610000Y-141770000D01*
X175610000Y-123530000D02*
X175610000Y-124530000D01*
X175610000Y-141770000D02*
X175610000Y-140770000D01*
X156755000Y-142275000D02*
X156255000Y-141775000D01*
X156755000Y-141775000D01*
X156755000Y-142275000D01*
G36*
X156755000Y-142275000D02*
G01*
X156255000Y-141775000D01*
X156755000Y-141775000D01*
X156755000Y-142275000D01*
G37*
%TO.C,L1*%
X191682105Y-74180808D02*
X194632105Y-74180808D01*
X191682105Y-86680808D02*
X191682105Y-74180808D01*
X194632105Y-86680808D02*
X191682105Y-86680808D01*
X201232105Y-74180808D02*
X204182105Y-74180808D01*
X204182105Y-74180808D02*
X204182105Y-86680808D01*
X204182105Y-86680808D02*
X201232105Y-86680808D01*
%TO.C,C4*%
X205063244Y-86252607D02*
X205063244Y-84830103D01*
X206883244Y-86252607D02*
X206883244Y-84830103D01*
%TO.C,R63*%
X171992770Y-102570097D02*
X171992770Y-102095581D01*
X173037770Y-102570097D02*
X173037770Y-102095581D01*
%TO.C,Q28*%
X220423624Y-142763191D02*
X221943624Y-142763191D01*
X220423624Y-142813191D02*
X220423624Y-142763191D01*
X220423624Y-144713191D02*
X220423624Y-143933191D01*
X220423624Y-145883191D02*
X220423624Y-145833191D01*
X221943624Y-142763191D02*
X221943624Y-143763191D01*
X221943624Y-144883191D02*
X221943624Y-145883191D01*
X221943624Y-145883191D02*
X220423624Y-145883191D01*
X220123624Y-144273191D02*
X219643624Y-144273191D01*
X219883624Y-143943191D01*
X220123624Y-144273191D01*
G36*
X220123624Y-144273191D02*
G01*
X219643624Y-144273191D01*
X219883624Y-143943191D01*
X220123624Y-144273191D01*
G37*
%TO.C,GND1*%
X169270000Y-68450000D02*
X169270000Y-67070000D01*
X170650000Y-68450000D02*
X169270000Y-68450000D01*
X171920000Y-65690000D02*
X172030000Y-65690000D01*
X171920000Y-68450000D02*
X171920000Y-65690000D01*
X171920000Y-68450000D02*
X172030000Y-68450000D01*
X172030000Y-68450000D02*
X172030000Y-65690000D01*
%TO.C,C14*%
X192491778Y-133374988D02*
X192772938Y-133374988D01*
X192491778Y-134394988D02*
X192772938Y-134394988D01*
%TO.C,R58*%
X207309225Y-113978300D02*
X207309225Y-113503784D01*
X208354225Y-113978300D02*
X208354225Y-113503784D01*
%TO.C,R55*%
X174926746Y-118531823D02*
X175401262Y-118531823D01*
X174926746Y-119576823D02*
X175401262Y-119576823D01*
%TO.C,Br10*%
X213012928Y-102359903D02*
X213012928Y-101905775D01*
X214482928Y-102359903D02*
X214482928Y-101905775D01*
%TO.C,RFilt1*%
X215010358Y-77029792D02*
X215464486Y-77029792D01*
X215010358Y-78499792D02*
X215464486Y-78499792D01*
%TO.C,R28*%
X202372516Y-152005644D02*
X202372516Y-151531128D01*
X203417516Y-152005644D02*
X203417516Y-151531128D01*
%TO.C,Br9*%
X215464486Y-116197956D02*
X215010358Y-116197956D01*
X215464486Y-117667956D02*
X215010358Y-117667956D01*
%TO.C,C5*%
X198848888Y-69869323D02*
X198567728Y-69869323D01*
X198848888Y-70889323D02*
X198567728Y-70889323D01*
%TO.C,C3*%
X190972791Y-59982214D02*
X191253951Y-59982214D01*
X190972791Y-61002214D02*
X191253951Y-61002214D01*
%TO.C,R69*%
X186319151Y-83926941D02*
X186793667Y-83926941D01*
X186319151Y-84971941D02*
X186793667Y-84971941D01*
%TO.C,R31*%
X211762189Y-148573425D02*
X212236705Y-148573425D01*
X211762189Y-149618425D02*
X212236705Y-149618425D01*
%TO.C,Q36*%
X212937928Y-133065808D02*
X213937928Y-133065808D01*
X212937928Y-134585808D02*
X212937928Y-133065808D01*
X212987928Y-134585808D02*
X212937928Y-134585808D01*
X214887928Y-134585808D02*
X214107928Y-134585808D01*
X215057928Y-133065808D02*
X216057928Y-133065808D01*
X216057928Y-133065808D02*
X216057928Y-134585808D01*
X216057928Y-134585808D02*
X216007928Y-134585808D01*
X214447928Y-135365808D02*
X214117928Y-135125808D01*
X214447928Y-134885808D01*
X214447928Y-135365808D01*
G36*
X214447928Y-135365808D02*
G01*
X214117928Y-135125808D01*
X214447928Y-134885808D01*
X214447928Y-135365808D01*
G37*
%TO.C,C9*%
X160593044Y-143262097D02*
X160874204Y-143262097D01*
X160593044Y-144282097D02*
X160874204Y-144282097D01*
%TO.C,SW4*%
D15*
X180141347Y-135845056D02*
X180141347Y-142093456D01*
X180141347Y-142093456D02*
X186389747Y-142093456D01*
X186389747Y-135845056D02*
X180141347Y-135845056D01*
X186389747Y-142093456D02*
X186389747Y-135845056D01*
X177584447Y-136719255D02*
G75*
G02*
X177178047Y-136719255I-203200J0D01*
G01*
X177178047Y-136719255D02*
G75*
G02*
X177584447Y-136719255I203200J0D01*
G01*
%TO.C,Q14*%
D11*
X216735396Y-107967761D02*
X217735396Y-107967761D01*
X216735396Y-109487761D02*
X216735396Y-107967761D01*
X216785396Y-109487761D02*
X216735396Y-109487761D01*
X218685396Y-109487761D02*
X217905396Y-109487761D01*
X218855396Y-107967761D02*
X219855396Y-107967761D01*
X219855396Y-107967761D02*
X219855396Y-109487761D01*
X219855396Y-109487761D02*
X219805396Y-109487761D01*
X218245396Y-110267761D02*
X217915396Y-110027761D01*
X218245396Y-109787761D01*
X218245396Y-110267761D01*
G36*
X218245396Y-110267761D02*
G01*
X217915396Y-110027761D01*
X218245396Y-109787761D01*
X218245396Y-110267761D01*
G37*
%TO.C,U4*%
X189828370Y-63489970D02*
X189828370Y-62354402D01*
X191698370Y-62354402D02*
X191698370Y-63774402D01*
X189823370Y-63784402D02*
X189633370Y-63924402D01*
X189633370Y-63644402D01*
X189823370Y-63784402D01*
G36*
X189823370Y-63784402D02*
G01*
X189633370Y-63924402D01*
X189633370Y-63644402D01*
X189823370Y-63784402D01*
G37*
%TO.C,C59*%
X177346725Y-126189087D02*
X177346725Y-126711591D01*
X178816725Y-126189087D02*
X178816725Y-126711591D01*
%TO.C,VIN2*%
X221162611Y-118633777D02*
X221162611Y-117253777D01*
X222542611Y-118633777D02*
X221162611Y-118633777D01*
X223812611Y-115873777D02*
X223922611Y-115873777D01*
X223812611Y-118633777D02*
X223812611Y-115873777D01*
X223812611Y-118633777D02*
X223922611Y-118633777D01*
X223922611Y-118633777D02*
X223922611Y-115873777D01*
%TO.C,R41*%
X185171250Y-124709346D02*
X185171250Y-125163474D01*
X186641250Y-124709346D02*
X186641250Y-125163474D01*
%TO.C,R66*%
X173511757Y-81180542D02*
X173511757Y-81655058D01*
X174556757Y-81180542D02*
X174556757Y-81655058D01*
%TO.C,Cbyp1*%
X200891029Y-65107294D02*
X200891029Y-64584790D01*
X202361029Y-65107294D02*
X202361029Y-64584790D01*
%TO.C,C16*%
X182258434Y-67107989D02*
X182258434Y-66826829D01*
X183278434Y-67107989D02*
X183278434Y-66826829D01*
%TO.C,Br12*%
X189088877Y-76881583D02*
X189088877Y-76427455D01*
X190558877Y-76881583D02*
X190558877Y-76427455D01*
%TO.C,R33*%
X218701630Y-152005644D02*
X218701630Y-151531128D01*
X219746630Y-152005644D02*
X219746630Y-151531128D01*
%TO.C,C12*%
X185178002Y-63404675D02*
X184896842Y-63404675D01*
X185178002Y-64424675D02*
X184896842Y-64424675D01*
%TO.C,R40*%
X160706560Y-113536042D02*
X161160688Y-113536042D01*
X160706560Y-115006042D02*
X161160688Y-115006042D01*
%TO.C,Q31*%
X192431599Y-151318933D02*
X193431599Y-151318933D01*
X192431599Y-152838933D02*
X192431599Y-151318933D01*
X192481599Y-152838933D02*
X192431599Y-152838933D01*
X194381599Y-152838933D02*
X193601599Y-152838933D01*
X194551599Y-151318933D02*
X195551599Y-151318933D01*
X195551599Y-151318933D02*
X195551599Y-152838933D01*
X195551599Y-152838933D02*
X195501599Y-152838933D01*
X193941599Y-153618933D02*
X193611599Y-153378933D01*
X193941599Y-153138933D01*
X193941599Y-153618933D01*
G36*
X193941599Y-153618933D02*
G01*
X193611599Y-153378933D01*
X193941599Y-153138933D01*
X193941599Y-153618933D01*
G37*
%TO.C,Rffb1*%
X181866187Y-63021660D02*
X181866187Y-62547144D01*
X182911187Y-63021660D02*
X182911187Y-62547144D01*
%TO.C,VIN1*%
X172934763Y-65787683D02*
X172934763Y-65677683D01*
X175694763Y-65677683D02*
X172934763Y-65677683D01*
X175694763Y-65787683D02*
X172934763Y-65787683D01*
X175694763Y-65787683D02*
X175694763Y-65677683D01*
X175694763Y-67057683D02*
X175694763Y-68437683D01*
X175694763Y-68437683D02*
X174314763Y-68437683D01*
%TO.C,R70*%
X185179910Y-82025573D02*
X185654426Y-82025573D01*
X185179910Y-83070573D02*
X185654426Y-83070573D01*
%TO.C,R52*%
X203787505Y-126897839D02*
X204262021Y-126897839D01*
X203787505Y-127942839D02*
X204262021Y-127942839D01*
%TO.C,C23*%
X192536599Y-67008661D02*
X192536599Y-66486157D01*
X194006599Y-67008661D02*
X194006599Y-66486157D01*
%TO.C,R67*%
X218708766Y-70407805D02*
X218708766Y-69933289D01*
X219753766Y-70407805D02*
X219753766Y-69933289D01*
%TO.C,Q34*%
X214727422Y-124129792D02*
X216247422Y-124129792D01*
X214727422Y-124179792D02*
X214727422Y-124129792D01*
X214727422Y-126079792D02*
X214727422Y-125299792D01*
X214727422Y-127249792D02*
X214727422Y-127199792D01*
X216247422Y-124129792D02*
X216247422Y-125129792D01*
X216247422Y-126249792D02*
X216247422Y-127249792D01*
X216247422Y-127249792D02*
X214727422Y-127249792D01*
X214427422Y-125639792D02*
X213947422Y-125639792D01*
X214187422Y-125309792D01*
X214427422Y-125639792D01*
G36*
X214427422Y-125639792D02*
G01*
X213947422Y-125639792D01*
X214187422Y-125309792D01*
X214427422Y-125639792D01*
G37*
%TO.C,R64*%
X173891504Y-100574487D02*
X173891504Y-101049003D01*
X174936504Y-100574487D02*
X174936504Y-101049003D01*
%TO.C,Rfadj1*%
X207795168Y-61058308D02*
X208249296Y-61058308D01*
X207795168Y-62528308D02*
X208249296Y-62528308D01*
%TO.C,Br8*%
X222886346Y-133162051D02*
X222886346Y-132707923D01*
X224356346Y-133162051D02*
X224356346Y-132707923D01*
%TO.C,U5*%
X201146789Y-135002644D02*
X205266789Y-135002644D01*
X201146789Y-135057644D02*
X201146789Y-135002644D01*
X201146789Y-145122644D02*
X201146789Y-145067644D01*
X205266789Y-135002644D02*
X205266789Y-135057644D01*
X205266789Y-145067644D02*
X205266789Y-145122644D01*
X205266789Y-145122644D02*
X201146789Y-145122644D01*
X200606789Y-135052644D02*
X200366789Y-134722644D01*
X200846789Y-134722644D01*
X200606789Y-135052644D01*
G36*
X200606789Y-135052644D02*
G01*
X200366789Y-134722644D01*
X200846789Y-134722644D01*
X200606789Y-135052644D01*
G37*
%TO.C,Rfb1*%
X209693902Y-77410066D02*
X210148030Y-77410066D01*
X209693902Y-78880066D02*
X210148030Y-78880066D01*
%TO.C,C2*%
X210209461Y-91865730D02*
X211631965Y-91865730D01*
X210209461Y-93685730D02*
X211631965Y-93685730D01*
%TO.C,Q15*%
X215216409Y-102263659D02*
X216216409Y-102263659D01*
X215216409Y-103783659D02*
X215216409Y-102263659D01*
X215266409Y-103783659D02*
X215216409Y-103783659D01*
X217166409Y-103783659D02*
X216386409Y-103783659D01*
X217336409Y-102263659D02*
X218336409Y-102263659D01*
X218336409Y-102263659D02*
X218336409Y-103783659D01*
X218336409Y-103783659D02*
X218286409Y-103783659D01*
X216726409Y-104563659D02*
X216396409Y-104323659D01*
X216726409Y-104083659D01*
X216726409Y-104563659D01*
G36*
X216726409Y-104563659D02*
G01*
X216396409Y-104323659D01*
X216726409Y-104083659D01*
X216726409Y-104563659D01*
G37*
%TO.C,R61*%
X212245934Y-106753105D02*
X212245934Y-106278589D01*
X213290934Y-106753105D02*
X213290934Y-106278589D01*
%TO.C,Q16*%
X173064510Y-85911902D02*
X174064510Y-85911902D01*
X173064510Y-87431902D02*
X173064510Y-85911902D01*
X173114510Y-87431902D02*
X173064510Y-87431902D01*
X175014510Y-87431902D02*
X174234510Y-87431902D01*
X175184510Y-85911902D02*
X176184510Y-85911902D01*
X176184510Y-85911902D02*
X176184510Y-87431902D01*
X176184510Y-87431902D02*
X176134510Y-87431902D01*
X174574510Y-88211902D02*
X174244510Y-87971902D01*
X174574510Y-87731902D01*
X174574510Y-88211902D01*
G36*
X174574510Y-88211902D02*
G01*
X174244510Y-87971902D01*
X174574510Y-87731902D01*
X174574510Y-88211902D01*
G37*
%TO.C,SS8050*%
X178380966Y-145234558D02*
X179380966Y-145234558D01*
X178380966Y-146754558D02*
X178380966Y-145234558D01*
X178430966Y-146754558D02*
X178380966Y-146754558D01*
X180330966Y-146754558D02*
X179550966Y-146754558D01*
X180500966Y-145234558D02*
X181500966Y-145234558D01*
X181500966Y-145234558D02*
X181500966Y-146754558D01*
X181500966Y-146754558D02*
X181450966Y-146754558D01*
X179890966Y-147534558D02*
X179560966Y-147294558D01*
X179890966Y-147054558D01*
X179890966Y-147534558D01*
G36*
X179890966Y-147534558D02*
G01*
X179560966Y-147294558D01*
X179890966Y-147054558D01*
X179890966Y-147534558D01*
G37*
%TO.C,C10*%
X208820892Y-136797448D02*
X209102052Y-136797448D01*
X208820892Y-137817448D02*
X209102052Y-137817448D01*
%TO.C,R42*%
X187477650Y-124709346D02*
X187477650Y-125163474D01*
X188947650Y-124709346D02*
X188947650Y-125163474D01*
%TO.C,Q10*%
X219013877Y-125460339D02*
X219063877Y-125460339D01*
X219013877Y-126980339D02*
X219013877Y-125460339D01*
X220013877Y-126980339D02*
X219013877Y-126980339D01*
X220183877Y-125460339D02*
X220963877Y-125460339D01*
X222083877Y-125460339D02*
X222133877Y-125460339D01*
X222133877Y-125460339D02*
X222133877Y-126980339D01*
X222133877Y-126980339D02*
X221133877Y-126980339D01*
X220953877Y-124920339D02*
X220623877Y-125160339D01*
X220623877Y-124680339D01*
X220953877Y-124920339D01*
G36*
X220953877Y-124920339D02*
G01*
X220623877Y-125160339D01*
X220623877Y-124680339D01*
X220953877Y-124920339D01*
G37*
%TO.C,Q13*%
X213967928Y-112341316D02*
X215487928Y-112341316D01*
X213967928Y-112391316D02*
X213967928Y-112341316D01*
X213967928Y-114291316D02*
X213967928Y-113511316D01*
X213967928Y-115461316D02*
X213967928Y-115411316D01*
X215487928Y-112341316D02*
X215487928Y-113341316D01*
X215487928Y-114461316D02*
X215487928Y-115461316D01*
X215487928Y-115461316D02*
X213967928Y-115461316D01*
X213667928Y-113851316D02*
X213187928Y-113851316D01*
X213427928Y-113521316D01*
X213667928Y-113851316D01*
G36*
X213667928Y-113851316D02*
G01*
X213187928Y-113851316D01*
X213427928Y-113521316D01*
X213667928Y-113851316D01*
G37*
%TO.C,R65*%
X175410491Y-80894511D02*
X175410491Y-80419995D01*
X176455491Y-80894511D02*
X176455491Y-80419995D01*
%TO.C,J6*%
X148840000Y-98150000D02*
X148840000Y-107550000D01*
X150740000Y-98150000D02*
X148840000Y-98150000D01*
X150740000Y-107550000D02*
X148840000Y-107550000D01*
X154640000Y-98150000D02*
X152640000Y-98150000D01*
X154640000Y-107550000D02*
X152640000Y-107550000D01*
%TO.C,C8*%
X197068561Y-65206622D02*
X197068561Y-64925462D01*
X198088561Y-65206622D02*
X198088561Y-64925462D01*
%TO.C,R47*%
X171509024Y-106363073D02*
X171983540Y-106363073D01*
X171509024Y-107408073D02*
X171983540Y-107408073D01*
%TO.C,R56*%
X178818983Y-117771277D02*
X178344467Y-117771277D01*
X178818983Y-118816277D02*
X178344467Y-118816277D01*
%TO.C,C17*%
X178106219Y-130514325D02*
X178106219Y-129991821D01*
X179576219Y-130514325D02*
X179576219Y-129991821D01*
%TO.C,R62*%
X215179910Y-105982800D02*
X215654426Y-105982800D01*
X215179910Y-107027800D02*
X215654426Y-107027800D01*
%TO.C,Q19*%
X185866662Y-74313972D02*
X187386662Y-74313972D01*
X185866662Y-74363972D02*
X185866662Y-74313972D01*
X185866662Y-76263972D02*
X185866662Y-75483972D01*
X185866662Y-77433972D02*
X185866662Y-77383972D01*
X187386662Y-74313972D02*
X187386662Y-75313972D01*
X187386662Y-76433972D02*
X187386662Y-77433972D01*
X187386662Y-77433972D02*
X185866662Y-77433972D01*
X185566662Y-75823972D02*
X185086662Y-75823972D01*
X185326662Y-75493972D01*
X185566662Y-75823972D01*
G36*
X185566662Y-75823972D02*
G01*
X185086662Y-75823972D01*
X185326662Y-75493972D01*
X185566662Y-75823972D01*
G37*
%TO.C,U6*%
X180279700Y-129615534D02*
X180334700Y-129615534D01*
X180279700Y-133735534D02*
X180279700Y-129615534D01*
X180334700Y-133735534D02*
X180279700Y-133735534D01*
X190344700Y-129615534D02*
X190399700Y-129615534D01*
X190399700Y-129615534D02*
X190399700Y-133735534D01*
X190399700Y-133735534D02*
X190344700Y-133735534D01*
X190679700Y-129315534D02*
X190349700Y-129075534D01*
X190679700Y-128835534D01*
X190679700Y-129315534D01*
G36*
X190679700Y-129315534D02*
G01*
X190349700Y-129075534D01*
X190679700Y-128835534D01*
X190679700Y-129315534D01*
G37*
%TO.C,R37*%
X214040670Y-136784948D02*
X214515186Y-136784948D01*
X214040670Y-137829948D02*
X214515186Y-137829948D01*
%TO.C,R50*%
X195916820Y-119682402D02*
X195916820Y-119207886D01*
X196961820Y-119682402D02*
X196961820Y-119207886D01*
%TO.C,Q11*%
X217115143Y-128882800D02*
X218115143Y-128882800D01*
X217115143Y-130402800D02*
X217115143Y-128882800D01*
X217165143Y-130402800D02*
X217115143Y-130402800D01*
X219065143Y-130402800D02*
X218285143Y-130402800D01*
X219235143Y-128882800D02*
X220235143Y-128882800D01*
X220235143Y-128882800D02*
X220235143Y-130402800D01*
X220235143Y-130402800D02*
X220185143Y-130402800D01*
X218625143Y-131182800D02*
X218295143Y-130942800D01*
X218625143Y-130702800D01*
X218625143Y-131182800D01*
G36*
X218625143Y-131182800D02*
G01*
X218295143Y-130942800D01*
X218625143Y-130702800D01*
X218625143Y-131182800D01*
G37*
%TO.C,R53*%
X222489869Y-129179480D02*
X222015353Y-129179480D01*
X222489869Y-130224480D02*
X222015353Y-130224480D01*
%TO.C,Q33*%
X214077168Y-147516198D02*
X214127168Y-147516198D01*
X214077168Y-149036198D02*
X214077168Y-147516198D01*
X215077168Y-149036198D02*
X214077168Y-149036198D01*
X215247168Y-147516198D02*
X216027168Y-147516198D01*
X217147168Y-147516198D02*
X217197168Y-147516198D01*
X217197168Y-147516198D02*
X217197168Y-149036198D01*
X217197168Y-149036198D02*
X216197168Y-149036198D01*
X216017168Y-146976198D02*
X215687168Y-147216198D01*
X215687168Y-146736198D01*
X216017168Y-146976198D01*
G36*
X216017168Y-146976198D02*
G01*
X215687168Y-147216198D01*
X215687168Y-146736198D01*
X216017168Y-146976198D01*
G37*
%TO.C,R43*%
X183871117Y-151943659D02*
X184325245Y-151943659D01*
X183871117Y-153413659D02*
X184325245Y-153413659D01*
%TO.C,R60*%
X164018086Y-119302128D02*
X164018086Y-118827612D01*
X165063086Y-119302128D02*
X165063086Y-118827612D01*
%TO.C,R34*%
X219736872Y-146672058D02*
X220211388Y-146672058D01*
X219736872Y-147717058D02*
X220211388Y-147717058D01*
%TO.C,R32*%
X190600365Y-153526738D02*
X190600365Y-153052222D01*
X191645365Y-153526738D02*
X191645365Y-153052222D01*
%TO.C,Q29*%
X206482232Y-149797839D02*
X207482232Y-149797839D01*
X206482232Y-151317839D02*
X206482232Y-149797839D01*
X206532232Y-151317839D02*
X206482232Y-151317839D01*
X208432232Y-151317839D02*
X207652232Y-151317839D01*
X208602232Y-149797839D02*
X209602232Y-149797839D01*
X209602232Y-149797839D02*
X209602232Y-151317839D01*
X209602232Y-151317839D02*
X209552232Y-151317839D01*
X207992232Y-152097839D02*
X207662232Y-151857839D01*
X207992232Y-151617839D01*
X207992232Y-152097839D01*
G36*
X207992232Y-152097839D02*
G01*
X207662232Y-151857839D01*
X207992232Y-151617839D01*
X207992232Y-152097839D01*
G37*
%TO.C,Q37*%
X215107168Y-89905183D02*
X216627168Y-89905183D01*
X215107168Y-89955183D02*
X215107168Y-89905183D01*
X215107168Y-91855183D02*
X215107168Y-91075183D01*
X215107168Y-93025183D02*
X215107168Y-92975183D01*
X216627168Y-89905183D02*
X216627168Y-90905183D01*
X216627168Y-92025183D02*
X216627168Y-93025183D01*
X216627168Y-93025183D02*
X215107168Y-93025183D01*
X214807168Y-91415183D02*
X214327168Y-91415183D01*
X214567168Y-91085183D01*
X214807168Y-91415183D01*
G36*
X214807168Y-91415183D02*
G01*
X214327168Y-91415183D01*
X214567168Y-91085183D01*
X214807168Y-91415183D01*
G37*
%TO.C,C26*%
X198720572Y-67147956D02*
X197298068Y-67147956D01*
X198720572Y-68967956D02*
X197298068Y-68967956D01*
%TO.C,R30*%
X207205227Y-146672058D02*
X207679743Y-146672058D01*
X207205227Y-147717058D02*
X207679743Y-147717058D01*
%TO.C,Ccomp3*%
X177780980Y-70154870D02*
X178303484Y-70154870D01*
X177780980Y-71624870D02*
X178303484Y-71624870D01*
%TO.C,Q9*%
X200406282Y-123558972D02*
X201406282Y-123558972D01*
X200406282Y-125078972D02*
X200406282Y-123558972D01*
X200456282Y-125078972D02*
X200406282Y-125078972D01*
X202356282Y-125078972D02*
X201576282Y-125078972D01*
X202526282Y-123558972D02*
X203526282Y-123558972D01*
X203526282Y-123558972D02*
X203526282Y-125078972D01*
X203526282Y-125078972D02*
X203476282Y-125078972D01*
X201916282Y-125858972D02*
X201586282Y-125618972D01*
X201916282Y-125378972D01*
X201916282Y-125858972D01*
G36*
X201916282Y-125858972D02*
G01*
X201586282Y-125618972D01*
X201916282Y-125378972D01*
X201916282Y-125858972D01*
G37*
%TO.C,VIN3*%
X169270000Y-69430000D02*
X169270000Y-69320000D01*
X172030000Y-69320000D02*
X169270000Y-69320000D01*
X172030000Y-69430000D02*
X169270000Y-69430000D01*
X172030000Y-69430000D02*
X172030000Y-69320000D01*
X172030000Y-70700000D02*
X172030000Y-72080000D01*
X172030000Y-72080000D02*
X170650000Y-72080000D01*
%TO.C,U1*%
X200856029Y-68600964D02*
X200981029Y-68600964D01*
X200856029Y-71820964D02*
X200856029Y-68600964D01*
X200981029Y-71820964D02*
X200856029Y-71820964D01*
X203951029Y-68600964D02*
X204076029Y-68600964D01*
X204076029Y-68600964D02*
X204076029Y-71820964D01*
X204076029Y-71820964D02*
X203951029Y-71820964D01*
X200976029Y-72370964D02*
X200646029Y-72610964D01*
X200646029Y-72130964D01*
X200976029Y-72370964D01*
G36*
X200976029Y-72370964D02*
G01*
X200646029Y-72610964D01*
X200646029Y-72130964D01*
X200976029Y-72370964D01*
G37*
%TO.C,Br7*%
X204451827Y-118859870D02*
X203997699Y-118859870D01*
X204451827Y-120329870D02*
X203997699Y-120329870D01*
%TO.C,R57*%
X211382442Y-116630456D02*
X211856958Y-116630456D01*
X211382442Y-117675456D02*
X211856958Y-117675456D01*
%TO.C,Q18*%
X185486915Y-78116706D02*
X187006915Y-78116706D01*
X185486915Y-79116706D02*
X185486915Y-78116706D01*
X185486915Y-81236706D02*
X185486915Y-80236706D01*
X187006915Y-78116706D02*
X187006915Y-78166706D01*
X187006915Y-79286706D02*
X187006915Y-80066706D01*
X187006915Y-81186706D02*
X187006915Y-81236706D01*
X187006915Y-81236706D02*
X185486915Y-81236706D01*
X187546915Y-80056706D02*
X187306915Y-79726706D01*
X187786915Y-79726706D01*
X187546915Y-80056706D01*
G36*
X187546915Y-80056706D02*
G01*
X187306915Y-79726706D01*
X187786915Y-79726706D01*
X187546915Y-80056706D01*
G37*
%TO.C,Q7*%
X197748054Y-120897058D02*
X197798054Y-120897058D01*
X197748054Y-122417058D02*
X197748054Y-120897058D01*
X198748054Y-122417058D02*
X197748054Y-122417058D01*
X198918054Y-120897058D02*
X199698054Y-120897058D01*
X200818054Y-120897058D02*
X200868054Y-120897058D01*
X200868054Y-120897058D02*
X200868054Y-122417058D01*
X200868054Y-122417058D02*
X199868054Y-122417058D01*
X199688054Y-120357058D02*
X199358054Y-120597058D01*
X199358054Y-120117058D01*
X199688054Y-120357058D01*
G36*
X199688054Y-120357058D02*
G01*
X199358054Y-120597058D01*
X199358054Y-120117058D01*
X199688054Y-120357058D01*
G37*
%TO.C,C15*%
X211119194Y-136698028D02*
X211119194Y-136416868D01*
X212139194Y-136698028D02*
X212139194Y-136416868D01*
%TO.C,R27*%
X220496366Y-138686316D02*
X220970882Y-138686316D01*
X220496366Y-139731316D02*
X220970882Y-139731316D01*
%TO.C,L2*%
D15*
X187203743Y-67080766D02*
X187203743Y-67915828D01*
X191750343Y-67915828D02*
X191750343Y-67080766D01*
%TO.C,Q30*%
D11*
X211309700Y-150748933D02*
X212829700Y-150748933D01*
X211309700Y-150798933D02*
X211309700Y-150748933D01*
X211309700Y-152698933D02*
X211309700Y-151918933D01*
X211309700Y-153868933D02*
X211309700Y-153818933D01*
X212829700Y-150748933D02*
X212829700Y-151748933D01*
X212829700Y-152868933D02*
X212829700Y-153868933D01*
X212829700Y-153868933D02*
X211309700Y-153868933D01*
X211009700Y-152258933D02*
X210529700Y-152258933D01*
X210769700Y-151928933D01*
X211009700Y-152258933D01*
G36*
X211009700Y-152258933D02*
G01*
X210529700Y-152258933D01*
X210769700Y-151928933D01*
X211009700Y-152258933D01*
G37*
%TO.C,Q35*%
X207512232Y-131354988D02*
X209032232Y-131354988D01*
X207512232Y-132354988D02*
X207512232Y-131354988D01*
X207512232Y-134474988D02*
X207512232Y-133474988D01*
X209032232Y-131354988D02*
X209032232Y-131404988D01*
X209032232Y-132524988D02*
X209032232Y-133304988D01*
X209032232Y-134424988D02*
X209032232Y-134474988D01*
X209032232Y-134474988D02*
X207512232Y-134474988D01*
X209572232Y-133294988D02*
X209332232Y-132964988D01*
X209812232Y-132964988D01*
X209572232Y-133294988D01*
G36*
X209572232Y-133294988D02*
G01*
X209332232Y-132964988D01*
X209812232Y-132964988D01*
X209572232Y-133294988D01*
G37*
%TO.C,Ccomp2*%
X204308751Y-62825654D02*
X204308751Y-62303150D01*
X205778751Y-62825654D02*
X205778751Y-62303150D01*
%TO.C,C13*%
X185178002Y-61503308D02*
X184896842Y-61503308D01*
X185178002Y-62523308D02*
X184896842Y-62523308D01*
%TO.C,Br11*%
X179215459Y-86388419D02*
X179215459Y-85934291D01*
X180685459Y-86388419D02*
X180685459Y-85934291D01*
%TO.C,C6*%
X198507548Y-100272745D02*
X198507548Y-109728308D01*
X198507548Y-109728308D02*
X202457548Y-109728308D01*
X199571985Y-99208308D02*
X198507548Y-100272745D01*
X199571985Y-99208308D02*
X202457548Y-99208308D01*
X207963111Y-99208308D02*
X205077548Y-99208308D01*
X207963111Y-99208308D02*
X209027548Y-100272745D01*
X209027548Y-100272745D02*
X209027548Y-109728308D01*
X209027548Y-109728308D02*
X205077548Y-109728308D01*
%TO.C,Q17*%
X177241725Y-75264245D02*
X178241725Y-75264245D01*
X177241725Y-76784245D02*
X177241725Y-75264245D01*
X177291725Y-76784245D02*
X177241725Y-76784245D01*
X179191725Y-76784245D02*
X178411725Y-76784245D01*
X179361725Y-75264245D02*
X180361725Y-75264245D01*
X180361725Y-75264245D02*
X180361725Y-76784245D01*
X180361725Y-76784245D02*
X180311725Y-76784245D01*
X178751725Y-77564245D02*
X178421725Y-77324245D01*
X178751725Y-77084245D01*
X178751725Y-77564245D01*
G36*
X178751725Y-77564245D02*
G01*
X178421725Y-77324245D01*
X178751725Y-77084245D01*
X178751725Y-77564245D01*
G37*
%TO.C,R36*%
X202268518Y-132982214D02*
X202743034Y-132982214D01*
X202268518Y-134027214D02*
X202743034Y-134027214D01*
%TO.C,R44*%
X185291409Y-146471622D02*
X185291409Y-146017494D01*
X186761409Y-146471622D02*
X186761409Y-146017494D01*
%TO.C,C80*%
X157220143Y-144442212D02*
X157220143Y-144964716D01*
X158690143Y-144442212D02*
X158690143Y-144964716D01*
%TO.C,SW5*%
D15*
X161378700Y-145351892D02*
X161378700Y-151600292D01*
X161378700Y-151600292D02*
X167627100Y-151600292D01*
X167627100Y-145351892D02*
X161378700Y-145351892D01*
X167627100Y-151600292D02*
X167627100Y-145351892D01*
X170590400Y-150726093D02*
G75*
G02*
X170184000Y-150726093I-203200J0D01*
G01*
X170184000Y-150726093D02*
G75*
G02*
X170590400Y-150726093I203200J0D01*
G01*
%TO.C,Q26*%
D11*
X216735396Y-135347448D02*
X217735396Y-135347448D01*
X216735396Y-136867448D02*
X216735396Y-135347448D01*
X216785396Y-136867448D02*
X216735396Y-136867448D01*
X218685396Y-136867448D02*
X217905396Y-136867448D01*
X218855396Y-135347448D02*
X219855396Y-135347448D01*
X219855396Y-135347448D02*
X219855396Y-136867448D01*
X219855396Y-136867448D02*
X219805396Y-136867448D01*
X218245396Y-137647448D02*
X217915396Y-137407448D01*
X218245396Y-137167448D01*
X218245396Y-137647448D01*
G36*
X218245396Y-137647448D02*
G01*
X217915396Y-137407448D01*
X218245396Y-137167448D01*
X218245396Y-137647448D01*
G37*
%TO.C,C24*%
X192741106Y-130653620D02*
X194163610Y-130653620D01*
X192741106Y-132473620D02*
X194163610Y-132473620D01*
%TO.C,R35*%
X211866187Y-125766777D02*
X211866187Y-125292261D01*
X212911187Y-125766777D02*
X212911187Y-125292261D01*
%TO.C,Q32*%
X215486915Y-150748933D02*
X217006915Y-150748933D01*
X215486915Y-150798933D02*
X215486915Y-150748933D01*
X215486915Y-152698933D02*
X215486915Y-151918933D01*
X215486915Y-153868933D02*
X215486915Y-153818933D01*
X217006915Y-150748933D02*
X217006915Y-151748933D01*
X217006915Y-152868933D02*
X217006915Y-153868933D01*
X217006915Y-153868933D02*
X215486915Y-153868933D01*
X215186915Y-152258933D02*
X214706915Y-152258933D01*
X214946915Y-151928933D01*
X215186915Y-152258933D01*
G36*
X215186915Y-152258933D02*
G01*
X214706915Y-152258933D01*
X214946915Y-151928933D01*
X215186915Y-152258933D01*
G37*
%TO.C,R39*%
X164405333Y-109965372D02*
X164405333Y-109511244D01*
X165875333Y-109965372D02*
X165875333Y-109511244D01*
%TO.C,Q8*%
X179031219Y-150748933D02*
X180551219Y-150748933D01*
X179031219Y-150798933D02*
X179031219Y-150748933D01*
X179031219Y-152698933D02*
X179031219Y-151918933D01*
X179031219Y-153868933D02*
X179031219Y-153818933D01*
X180551219Y-150748933D02*
X180551219Y-151748933D01*
X180551219Y-152868933D02*
X180551219Y-153868933D01*
X180551219Y-153868933D02*
X179031219Y-153868933D01*
X178731219Y-152258933D02*
X178251219Y-152258933D01*
X178491219Y-151928933D01*
X178731219Y-152258933D01*
G36*
X178731219Y-152258933D02*
G01*
X178251219Y-152258933D01*
X178491219Y-151928933D01*
X178731219Y-152258933D01*
G37*
%TO.C,Rfb2*%
X207701472Y-81031556D02*
X207701472Y-82485684D01*
X209521472Y-81031556D02*
X209521472Y-82485684D01*
%TO.C,Y3*%
X183540206Y-123929792D02*
X179420206Y-123929792D01*
X183540206Y-127349792D02*
X183540206Y-123929792D01*
%TO.C,RSense1*%
X219599133Y-73498152D02*
X218151659Y-73498152D01*
X219599133Y-76208152D02*
X218151659Y-76208152D01*
%TO.C,C7*%
X198967295Y-65206622D02*
X198967295Y-64925462D01*
X199987295Y-65206622D02*
X199987295Y-64925462D01*
%TO.C,C79*%
X192733863Y-126435339D02*
X192211359Y-126435339D01*
X192733863Y-127905339D02*
X192211359Y-127905339D01*
%TO.C,C19*%
X187190143Y-62357338D02*
X187190143Y-62811466D01*
X188660143Y-62357338D02*
X188660143Y-62811466D01*
%TO.C,C11*%
X192511599Y-63024095D02*
X192511599Y-63305255D01*
X193531599Y-63024095D02*
X193531599Y-63305255D01*
%TO.C,Cfilt1*%
X195012344Y-71675964D02*
X194489840Y-71675964D01*
X195012344Y-73145964D02*
X194489840Y-73145964D01*
%TO.C,R59*%
X163534341Y-115869909D02*
X164008857Y-115869909D01*
X163534341Y-116914909D02*
X164008857Y-116914909D01*
%TO.C,R29*%
X220496366Y-140587683D02*
X220970882Y-140587683D01*
X220496366Y-141632683D02*
X220970882Y-141632683D01*
%TO.C,J1*%
X150395000Y-86715000D02*
X160395000Y-86715000D01*
X150395000Y-96915000D02*
X150395000Y-86715000D01*
X160395000Y-86715000D02*
X160395000Y-96915000D01*
X160395000Y-96915000D02*
X150395000Y-96915000D01*
%TO.C,R54*%
X220980111Y-132611699D02*
X220980111Y-132137183D01*
X222025111Y-132611699D02*
X222025111Y-132137183D01*
%TO.C,C1*%
D14*
X205823244Y-69272605D02*
X205823244Y-74072605D01*
X205823244Y-74072605D02*
X207623244Y-74072605D01*
X207623244Y-67472605D02*
X205823244Y-69272605D01*
D16*
D13*
X209123244Y-65897605D02*
X209123243Y-65897605D01*
X209123243Y-65897605D01*
X209123243Y-65897605D01*
X209123243Y-65897605D01*
X209123243Y-65897605D01*
X209123243Y-65897605D01*
X209123243Y-65897605D01*
X209123243Y-65897604D01*
X209123243Y-65897604D01*
X209123243Y-65897604D01*
X209123243Y-65897604D01*
X209123243Y-65897604D01*
X209123244Y-65897604D01*
X209123244Y-65897604D01*
X209123244Y-65897604D01*
X209123244Y-65897604D01*
X209123244Y-65897604D01*
X209123244Y-65897604D01*
X209123244Y-65897604D01*
X209123244Y-65897604D01*
X209123244Y-65897604D01*
X209123244Y-65897604D01*
X209123244Y-65897604D01*
X209123244Y-65897604D01*
X209123245Y-65897604D01*
X209123245Y-65897604D01*
X209123245Y-65897604D01*
X209123245Y-65897604D01*
X209123245Y-65897604D01*
X209123245Y-65897604D01*
X209123245Y-65897605D01*
X209123245Y-65897605D01*
X209123245Y-65897605D01*
X209123245Y-65897605D01*
X209123245Y-65897605D01*
X209123245Y-65897605D01*
X209123245Y-65897605D01*
X209123244Y-65897605D01*
X209123244Y-65897605D02*
X209123245Y-65897605D01*
X209123245Y-65897605D01*
X209123245Y-65897605D01*
X209123245Y-65897605D01*
X209123245Y-65897605D01*
X209123245Y-65897605D01*
X209123245Y-65897606D01*
X209123245Y-65897606D01*
X209123245Y-65897606D01*
X209123245Y-65897606D01*
X209123245Y-65897606D01*
X209123245Y-65897606D01*
X209123245Y-65897606D01*
X209123244Y-65897606D01*
X209123244Y-65897606D01*
X209123244Y-65897606D01*
X209123244Y-65897606D01*
X209123244Y-65897606D01*
X209123244Y-65897606D01*
X209123244Y-65897606D01*
X209123244Y-65897606D01*
X209123244Y-65897606D01*
X209123244Y-65897606D01*
X209123244Y-65897606D01*
X209123244Y-65897606D01*
X209123243Y-65897606D01*
X209123243Y-65897606D01*
X209123243Y-65897606D01*
X209123243Y-65897606D01*
X209123243Y-65897606D01*
X209123243Y-65897606D01*
X209123243Y-65897605D01*
X209123243Y-65897605D01*
X209123243Y-65897605D01*
X209123243Y-65897605D01*
X209123243Y-65897605D01*
X209123243Y-65897605D01*
X209123244Y-65897605D01*
D16*
D13*
X209123244Y-65947605D02*
X209123243Y-65947605D01*
X209123243Y-65947605D01*
X209123243Y-65947605D01*
X209123243Y-65947605D01*
X209123243Y-65947605D01*
X209123243Y-65947605D01*
X209123243Y-65947605D01*
X209123243Y-65947604D01*
X209123243Y-65947604D01*
X209123243Y-65947604D01*
X209123243Y-65947604D01*
X209123243Y-65947604D01*
X209123244Y-65947604D01*
X209123244Y-65947604D01*
X209123244Y-65947604D01*
X209123244Y-65947604D01*
X209123244Y-65947604D01*
X209123244Y-65947604D01*
X209123244Y-65947604D01*
X209123244Y-65947604D01*
X209123244Y-65947604D01*
X209123244Y-65947604D01*
X209123244Y-65947604D01*
X209123244Y-65947604D01*
X209123245Y-65947604D01*
X209123245Y-65947604D01*
X209123245Y-65947604D01*
X209123245Y-65947604D01*
X209123245Y-65947604D01*
X209123245Y-65947604D01*
X209123245Y-65947605D01*
X209123245Y-65947605D01*
X209123245Y-65947605D01*
X209123245Y-65947605D01*
X209123245Y-65947605D01*
X209123245Y-65947605D01*
X209123245Y-65947605D01*
X209123244Y-65947605D01*
X209123244Y-65947605D02*
X209123245Y-65947605D01*
X209123245Y-65947605D01*
X209123245Y-65947605D01*
X209123245Y-65947605D01*
X209123245Y-65947605D01*
X209123245Y-65947605D01*
X209123245Y-65947606D01*
X209123245Y-65947606D01*
X209123245Y-65947606D01*
X209123245Y-65947606D01*
X209123245Y-65947606D01*
X209123245Y-65947606D01*
X209123245Y-65947606D01*
X209123244Y-65947606D01*
X209123244Y-65947606D01*
X209123244Y-65947606D01*
X209123244Y-65947606D01*
X209123244Y-65947606D01*
X209123244Y-65947606D01*
X209123244Y-65947606D01*
X209123244Y-65947606D01*
X209123244Y-65947606D01*
X209123244Y-65947606D01*
X209123244Y-65947606D01*
X209123244Y-65947606D01*
X209123243Y-65947606D01*
X209123243Y-65947606D01*
X209123243Y-65947606D01*
X209123243Y-65947606D01*
X209123243Y-65947606D01*
X209123243Y-65947606D01*
X209123243Y-65947605D01*
X209123243Y-65947605D01*
X209123243Y-65947605D01*
X209123243Y-65947605D01*
X209123243Y-65947605D01*
X209123243Y-65947605D01*
X209123244Y-65947605D01*
D14*
X210623244Y-67472605D02*
X212423244Y-69272605D01*
X212423244Y-69272605D02*
X212423244Y-74072605D01*
X212423244Y-74072605D02*
X210623244Y-74072605D01*
D13*
X212423244Y-74072605D02*
X212423243Y-74072605D01*
X212423243Y-74072605D01*
X212423243Y-74072605D01*
X212423243Y-74072605D01*
X212423243Y-74072605D01*
X212423243Y-74072605D01*
X212423243Y-74072605D01*
X212423243Y-74072604D01*
X212423243Y-74072604D01*
X212423243Y-74072604D01*
X212423243Y-74072604D01*
X212423243Y-74072604D01*
X212423244Y-74072604D01*
X212423244Y-74072604D01*
X212423244Y-74072604D01*
X212423244Y-74072604D01*
X212423244Y-74072604D01*
X212423244Y-74072604D01*
X212423244Y-74072604D01*
X212423244Y-74072604D01*
X212423244Y-74072604D01*
X212423244Y-74072604D01*
X212423244Y-74072604D01*
X212423244Y-74072604D01*
X212423245Y-74072604D01*
X212423245Y-74072604D01*
X212423245Y-74072604D01*
X212423245Y-74072604D01*
X212423245Y-74072604D01*
X212423245Y-74072604D01*
X212423245Y-74072605D01*
X212423245Y-74072605D01*
X212423245Y-74072605D01*
X212423245Y-74072605D01*
X212423245Y-74072605D01*
X212423245Y-74072605D01*
X212423245Y-74072605D01*
X212423244Y-74072605D01*
X212423244Y-74072605D02*
X212423245Y-74072605D01*
X212423245Y-74072605D01*
X212423245Y-74072605D01*
X212423245Y-74072605D01*
X212423245Y-74072605D01*
X212423245Y-74072605D01*
X212423245Y-74072606D01*
X212423245Y-74072606D01*
X212423245Y-74072606D01*
X212423245Y-74072606D01*
X212423245Y-74072606D01*
X212423245Y-74072606D01*
X212423245Y-74072606D01*
X212423244Y-74072606D01*
X212423244Y-74072606D01*
X212423244Y-74072606D01*
X212423244Y-74072606D01*
X212423244Y-74072606D01*
X212423244Y-74072606D01*
X212423244Y-74072606D01*
X212423244Y-74072606D01*
X212423244Y-74072606D01*
X212423244Y-74072606D01*
X212423244Y-74072606D01*
X212423244Y-74072606D01*
X212423243Y-74072606D01*
X212423243Y-74072606D01*
X212423243Y-74072606D01*
X212423243Y-74072606D01*
X212423243Y-74072606D01*
X212423243Y-74072606D01*
X212423243Y-74072605D01*
X212423243Y-74072605D01*
X212423243Y-74072605D01*
X212423243Y-74072605D01*
X212423243Y-74072605D01*
X212423243Y-74072605D01*
X212423244Y-74072605D01*
D16*
X209123244Y-65897605D02*
G75*
G02*
X209123244Y-65947605I0J-25000D01*
G01*
X209123244Y-65947605D02*
G75*
G02*
X209123244Y-65897605I0J25000D01*
G01*
%TO.C,Ccomp1*%
D11*
X198809813Y-71675964D02*
X198287309Y-71675964D01*
X198809813Y-73145964D02*
X198287309Y-73145964D01*
%TO.C,Q1*%
D14*
X218029700Y-88362448D02*
X218314700Y-88362448D01*
X218314700Y-81822448D02*
X218029700Y-81822448D01*
X218314700Y-88362448D02*
X218314700Y-81822448D01*
D12*
D13*
X222629700Y-87492448D02*
X222629699Y-87492448D01*
X222629699Y-87492448D01*
X222629699Y-87492448D01*
X222629699Y-87492448D01*
X222629699Y-87492448D01*
X222629699Y-87492448D01*
X222629699Y-87492448D01*
X222629699Y-87492447D01*
X222629699Y-87492447D01*
X222629699Y-87492447D01*
X222629699Y-87492447D01*
X222629699Y-87492447D01*
X222629700Y-87492447D01*
X222629700Y-87492447D01*
X222629700Y-87492447D01*
X222629700Y-87492447D01*
X222629700Y-87492447D01*
X222629700Y-87492447D01*
X222629700Y-87492447D01*
X222629700Y-87492447D01*
X222629700Y-87492447D01*
X222629700Y-87492447D01*
X222629700Y-87492447D01*
X222629700Y-87492447D01*
X222629701Y-87492447D01*
X222629701Y-87492447D01*
X222629701Y-87492447D01*
X222629701Y-87492447D01*
X222629701Y-87492447D01*
X222629701Y-87492447D01*
X222629701Y-87492448D01*
X222629701Y-87492448D01*
X222629701Y-87492448D01*
X222629701Y-87492448D01*
X222629701Y-87492448D01*
X222629701Y-87492448D01*
X222629701Y-87492448D01*
X222629700Y-87492448D01*
X222629700Y-87492448D02*
X222629701Y-87492448D01*
X222629701Y-87492448D01*
X222629701Y-87492448D01*
X222629701Y-87492448D01*
X222629701Y-87492448D01*
X222629701Y-87492448D01*
X222629701Y-87492449D01*
X222629701Y-87492449D01*
X222629701Y-87492449D01*
X222629701Y-87492449D01*
X222629701Y-87492449D01*
X222629701Y-87492449D01*
X222629701Y-87492449D01*
X222629700Y-87492449D01*
X222629700Y-87492449D01*
X222629700Y-87492449D01*
X222629700Y-87492449D01*
X222629700Y-87492449D01*
X222629700Y-87492449D01*
X222629700Y-87492449D01*
X222629700Y-87492449D01*
X222629700Y-87492449D01*
X222629700Y-87492449D01*
X222629700Y-87492449D01*
X222629700Y-87492449D01*
X222629699Y-87492449D01*
X222629699Y-87492449D01*
X222629699Y-87492449D01*
X222629699Y-87492449D01*
X222629699Y-87492449D01*
X222629699Y-87492449D01*
X222629699Y-87492448D01*
X222629699Y-87492448D01*
X222629699Y-87492448D01*
X222629699Y-87492448D01*
X222629699Y-87492448D01*
X222629699Y-87492448D01*
X222629700Y-87492448D01*
D12*
D13*
X222729700Y-87492448D02*
X222729699Y-87492448D01*
X222729699Y-87492448D01*
X222729699Y-87492448D01*
X222729699Y-87492448D01*
X222729699Y-87492448D01*
X222729699Y-87492448D01*
X222729699Y-87492448D01*
X222729699Y-87492447D01*
X222729699Y-87492447D01*
X222729699Y-87492447D01*
X222729699Y-87492447D01*
X222729699Y-87492447D01*
X222729700Y-87492447D01*
X222729700Y-87492447D01*
X222729700Y-87492447D01*
X222729700Y-87492447D01*
X222729700Y-87492447D01*
X222729700Y-87492447D01*
X222729700Y-87492447D01*
X222729700Y-87492447D01*
X222729700Y-87492447D01*
X222729700Y-87492447D01*
X222729700Y-87492447D01*
X222729700Y-87492447D01*
X222729701Y-87492447D01*
X222729701Y-87492447D01*
X222729701Y-87492447D01*
X222729701Y-87492447D01*
X222729701Y-87492447D01*
X222729701Y-87492447D01*
X222729701Y-87492448D01*
X222729701Y-87492448D01*
X222729701Y-87492448D01*
X222729701Y-87492448D01*
X222729701Y-87492448D01*
X222729701Y-87492448D01*
X222729701Y-87492448D01*
X222729700Y-87492448D01*
X222729700Y-87492448D02*
X222729701Y-87492448D01*
X222729701Y-87492448D01*
X222729701Y-87492448D01*
X222729701Y-87492448D01*
X222729701Y-87492448D01*
X222729701Y-87492448D01*
X222729701Y-87492449D01*
X222729701Y-87492449D01*
X222729701Y-87492449D01*
X222729701Y-87492449D01*
X222729701Y-87492449D01*
X222729701Y-87492449D01*
X222729701Y-87492449D01*
X222729700Y-87492449D01*
X222729700Y-87492449D01*
X222729700Y-87492449D01*
X222729700Y-87492449D01*
X222729700Y-87492449D01*
X222729700Y-87492449D01*
X222729700Y-87492449D01*
X222729700Y-87492449D01*
X222729700Y-87492449D01*
X222729700Y-87492449D01*
X222729700Y-87492449D01*
X222729700Y-87492449D01*
X222729699Y-87492449D01*
X222729699Y-87492449D01*
X222729699Y-87492449D01*
X222729699Y-87492449D01*
X222729699Y-87492449D01*
X222729699Y-87492449D01*
X222729699Y-87492448D01*
X222729699Y-87492448D01*
X222729699Y-87492448D01*
X222729699Y-87492448D01*
X222729699Y-87492448D01*
X222729699Y-87492448D01*
X222729700Y-87492448D01*
D12*
X222629700Y-87492448D02*
G75*
G02*
X222729700Y-87492448I50000J0D01*
G01*
X222729700Y-87492448D02*
G75*
G02*
X222629700Y-87492448I-50000J0D01*
G01*
%TO.C,U2*%
D11*
X208520966Y-140263191D02*
X208575966Y-140263191D01*
X208520966Y-144383191D02*
X208520966Y-140263191D01*
X208575966Y-144383191D02*
X208520966Y-144383191D01*
X218585966Y-140263191D02*
X218640966Y-140263191D01*
X218640966Y-140263191D02*
X218640966Y-144383191D01*
X218640966Y-144383191D02*
X218585966Y-144383191D01*
X208570966Y-144923191D02*
X208240966Y-145163191D01*
X208240966Y-144683191D01*
X208570966Y-144923191D01*
G36*
X208570966Y-144923191D02*
G01*
X208240966Y-145163191D01*
X208240966Y-144683191D01*
X208570966Y-144923191D01*
G37*
%TO.C,R49*%
X200369784Y-118151550D02*
X200844300Y-118151550D01*
X200369784Y-119196550D02*
X200844300Y-119196550D01*
%TO.C,SW3*%
D15*
X171152776Y-146015731D02*
X171152776Y-152264131D01*
X171152776Y-152264131D02*
X177401176Y-152264131D01*
X177401176Y-146015731D02*
X171152776Y-146015731D01*
X177401176Y-152264131D02*
X177401176Y-146015731D01*
X176730177Y-143255631D02*
G75*
G02*
X176323777Y-143255631I-203200J0D01*
G01*
X176323777Y-143255631D02*
G75*
G02*
X176730177Y-143255631I203200J0D01*
G01*
%TO.C,R48*%
D11*
X173502528Y-111306628D02*
X173028012Y-111306628D01*
X173502528Y-112351628D02*
X173028012Y-112351628D01*
%TO.C,R68*%
X222117258Y-69637500D02*
X221642742Y-69637500D01*
X222117258Y-70682500D02*
X221642742Y-70682500D01*
%TO.C,R51*%
X207309225Y-126052808D02*
X207309225Y-126527324D01*
X208354225Y-126052808D02*
X208354225Y-126527324D01*
%TD*%
%LPC*%
D17*
%TO.C,Rfbt1*%
X185806409Y-67412136D03*
X185806409Y-65762136D03*
%TD*%
D18*
%TO.C,R38*%
X211174447Y-90533816D03*
X212824447Y-90533816D03*
%TD*%
D19*
%TO.C,D1*%
X195930839Y-90331917D03*
D20*
X203780839Y-92617917D03*
D19*
X195930839Y-94903917D03*
%TD*%
D21*
%TO.C,Q27*%
X202156789Y-147718972D03*
X200256789Y-147718972D03*
X201206789Y-149593972D03*
%TD*%
D22*
%TO.C,Q12*%
X209750459Y-114989089D03*
X211650459Y-114989089D03*
X210700459Y-113114089D03*
%TD*%
D23*
%TO.C,Rcomp1*%
X167039067Y-91256862D03*
X167039067Y-89431862D03*
%TD*%
D24*
%TO.C,U7*%
X157480000Y-141400000D03*
X158750000Y-141400000D03*
X160020000Y-141400000D03*
X161290000Y-141400000D03*
X162560000Y-141400000D03*
X163830000Y-141400000D03*
X165100000Y-141400000D03*
X166370000Y-141400000D03*
X167640000Y-141400000D03*
X168910000Y-141400000D03*
X170180000Y-141400000D03*
X171450000Y-141400000D03*
X172720000Y-141400000D03*
X173990000Y-141400000D03*
D25*
X175240000Y-138360000D03*
X175240000Y-137090000D03*
X175240000Y-135820000D03*
X175240000Y-134550000D03*
X175240000Y-133280000D03*
X175240000Y-132010000D03*
X175240000Y-130740000D03*
X175240000Y-129470000D03*
X175240000Y-128200000D03*
X175240000Y-126930000D03*
D24*
X173990000Y-123900000D03*
X172720000Y-123900000D03*
X171450000Y-123900000D03*
X170180000Y-123900000D03*
X168910000Y-123900000D03*
X167640000Y-123900000D03*
X166370000Y-123900000D03*
X165100000Y-123900000D03*
X163830000Y-123900000D03*
X162560000Y-123900000D03*
X161290000Y-123900000D03*
X160020000Y-123900000D03*
X158750000Y-123900000D03*
X157480000Y-123900000D03*
D26*
X164500000Y-135550000D03*
X165900000Y-135550000D03*
X163800000Y-134850000D03*
X165200000Y-134850000D03*
X166600000Y-134850000D03*
X164500000Y-134175000D03*
X165900000Y-134175000D03*
D27*
X165200000Y-134150000D03*
D26*
X163800000Y-133450000D03*
X165200000Y-133450000D03*
X166600000Y-133450000D03*
X164500000Y-132750000D03*
X165900000Y-132750000D03*
%TD*%
D28*
%TO.C,L1*%
X197932105Y-75480808D03*
X197932105Y-85380808D03*
%TD*%
D29*
%TO.C,C4*%
X205973244Y-87016355D03*
X205973244Y-84066355D03*
%TD*%
D17*
%TO.C,R63*%
X172515270Y-103157839D03*
X172515270Y-101507839D03*
%TD*%
D30*
%TO.C,Q28*%
X220246124Y-143373191D03*
X220246124Y-145273191D03*
X222121124Y-144323191D03*
%TD*%
D31*
%TO.C,GND1*%
X170650000Y-67070000D03*
%TD*%
D32*
%TO.C,C14*%
X191857358Y-133884988D03*
X193407358Y-133884988D03*
%TD*%
D17*
%TO.C,R58*%
X207831725Y-114566042D03*
X207831725Y-112916042D03*
%TD*%
D18*
%TO.C,R55*%
X174339004Y-119054323D03*
X175989004Y-119054323D03*
%TD*%
D23*
%TO.C,Br10*%
X213747928Y-103045339D03*
X213747928Y-101220339D03*
%TD*%
D33*
%TO.C,RFilt1*%
X214324922Y-77764792D03*
X216149922Y-77764792D03*
%TD*%
D17*
%TO.C,R28*%
X202895016Y-152593386D03*
X202895016Y-150943386D03*
%TD*%
D34*
%TO.C,Br9*%
X216149922Y-116932956D03*
X214324922Y-116932956D03*
%TD*%
D35*
%TO.C,C5*%
X199483308Y-70379323D03*
X197933308Y-70379323D03*
%TD*%
D32*
%TO.C,C3*%
X190338371Y-60492214D03*
X191888371Y-60492214D03*
%TD*%
D18*
%TO.C,R69*%
X185731409Y-84449441D03*
X187381409Y-84449441D03*
%TD*%
%TO.C,R31*%
X211174447Y-149095925D03*
X212824447Y-149095925D03*
%TD*%
D22*
%TO.C,Q36*%
X213547928Y-134763308D03*
X215447928Y-134763308D03*
X214497928Y-132888308D03*
%TD*%
D32*
%TO.C,C9*%
X159958624Y-143772097D03*
X161508624Y-143772097D03*
%TD*%
D36*
%TO.C,SW4*%
X178765548Y-136719255D03*
X187765546Y-136719255D03*
X178765548Y-141219257D03*
X187765546Y-141219257D03*
%TD*%
D22*
%TO.C,Q14*%
X217345396Y-109665261D03*
X219245396Y-109665261D03*
X218295396Y-107790261D03*
%TD*%
D37*
%TO.C,U4*%
X190263370Y-63776902D03*
X190763370Y-63776902D03*
X191263370Y-63776902D03*
X191263370Y-62351902D03*
X190763370Y-62351902D03*
X190263370Y-62351902D03*
%TD*%
D38*
%TO.C,C59*%
X178081725Y-125500339D03*
X178081725Y-127400339D03*
%TD*%
D31*
%TO.C,VIN2*%
X222542611Y-117253777D03*
%TD*%
D39*
%TO.C,R41*%
X185906250Y-124023910D03*
X185906250Y-125848910D03*
%TD*%
D40*
%TO.C,R66*%
X174034257Y-80592800D03*
X174034257Y-82242800D03*
%TD*%
D41*
%TO.C,Cbyp1*%
X201626029Y-65796042D03*
X201626029Y-63896042D03*
%TD*%
D42*
%TO.C,C16*%
X182768434Y-67742409D03*
X182768434Y-66192409D03*
%TD*%
D23*
%TO.C,Br12*%
X189823877Y-77567019D03*
X189823877Y-75742019D03*
%TD*%
D17*
%TO.C,R33*%
X219224130Y-152593386D03*
X219224130Y-150943386D03*
%TD*%
D35*
%TO.C,C12*%
X185812422Y-63914675D03*
X184262422Y-63914675D03*
%TD*%
D33*
%TO.C,R40*%
X160021124Y-114271042D03*
X161846124Y-114271042D03*
%TD*%
D22*
%TO.C,Q31*%
X193041599Y-153016433D03*
X194941599Y-153016433D03*
X193991599Y-151141433D03*
%TD*%
D17*
%TO.C,Rffb1*%
X182388687Y-63609402D03*
X182388687Y-61959402D03*
%TD*%
D31*
%TO.C,VIN1*%
X174314763Y-67057683D03*
%TD*%
D18*
%TO.C,R70*%
X184592168Y-82548073D03*
X186242168Y-82548073D03*
%TD*%
%TO.C,R52*%
X203199763Y-127420339D03*
X204849763Y-127420339D03*
%TD*%
D41*
%TO.C,C23*%
X193271599Y-67697409D03*
X193271599Y-65797409D03*
%TD*%
D17*
%TO.C,R67*%
X219231266Y-70995547D03*
X219231266Y-69345547D03*
%TD*%
D30*
%TO.C,Q34*%
X214549922Y-124739792D03*
X214549922Y-126639792D03*
X216424922Y-125689792D03*
%TD*%
D40*
%TO.C,R64*%
X174414004Y-99986745D03*
X174414004Y-101636745D03*
%TD*%
D33*
%TO.C,Rfadj1*%
X207109732Y-61793308D03*
X208934732Y-61793308D03*
%TD*%
D23*
%TO.C,Br8*%
X223621346Y-133847487D03*
X223621346Y-132022487D03*
%TD*%
D43*
%TO.C,U5*%
X200731789Y-135617644D03*
X200731789Y-136887644D03*
X200731789Y-138157644D03*
X200731789Y-139427644D03*
X200731789Y-140697644D03*
X200731789Y-141967644D03*
X200731789Y-143237644D03*
X200731789Y-144507644D03*
X205681789Y-144507644D03*
X205681789Y-143237644D03*
X205681789Y-141967644D03*
X205681789Y-140697644D03*
X205681789Y-139427644D03*
X205681789Y-138157644D03*
X205681789Y-136887644D03*
X205681789Y-135617644D03*
%TD*%
D33*
%TO.C,Rfb1*%
X209008466Y-78145066D03*
X210833466Y-78145066D03*
%TD*%
D44*
%TO.C,C2*%
X209445713Y-92775730D03*
X212395713Y-92775730D03*
%TD*%
D22*
%TO.C,Q15*%
X215826409Y-103961159D03*
X217726409Y-103961159D03*
X216776409Y-102086159D03*
%TD*%
D17*
%TO.C,R61*%
X212768434Y-107340847D03*
X212768434Y-105690847D03*
%TD*%
D22*
%TO.C,Q16*%
X173674510Y-87609402D03*
X175574510Y-87609402D03*
X174624510Y-85734402D03*
%TD*%
%TO.C,SS8050*%
X178990966Y-146932058D03*
X180890966Y-146932058D03*
X179940966Y-145057058D03*
%TD*%
D32*
%TO.C,C10*%
X208186472Y-137307448D03*
X209736472Y-137307448D03*
%TD*%
D39*
%TO.C,R42*%
X188212650Y-124023910D03*
X188212650Y-125848910D03*
%TD*%
D21*
%TO.C,Q10*%
X221523877Y-125282839D03*
X219623877Y-125282839D03*
X220573877Y-127157839D03*
%TD*%
D30*
%TO.C,Q13*%
X213790428Y-112951316D03*
X213790428Y-114851316D03*
X215665428Y-113901316D03*
%TD*%
D17*
%TO.C,R65*%
X175932991Y-81482253D03*
X175932991Y-79832253D03*
%TD*%
D45*
%TO.C,J6*%
X155340000Y-99960000D03*
X155340000Y-105740000D03*
D46*
X156785000Y-99600000D03*
X156785000Y-100400000D03*
D47*
X156785000Y-101600000D03*
X156785000Y-102600000D03*
X156785000Y-103100000D03*
X156785000Y-104100000D03*
D46*
X156785000Y-105300000D03*
X156785000Y-106100000D03*
X156785000Y-106100000D03*
X156785000Y-105300000D03*
D47*
X156785000Y-104600000D03*
X156785000Y-103600000D03*
X156785000Y-102100000D03*
X156785000Y-101100000D03*
D46*
X156785000Y-100400000D03*
X156785000Y-99600000D03*
D48*
X155870000Y-98530000D03*
D49*
X151690000Y-98530000D03*
D48*
X155870000Y-107170000D03*
D49*
X151690000Y-107170000D03*
%TD*%
D42*
%TO.C,C8*%
X197578561Y-65841042D03*
X197578561Y-64291042D03*
%TD*%
D18*
%TO.C,R47*%
X170921282Y-106885573D03*
X172571282Y-106885573D03*
%TD*%
D50*
%TO.C,R56*%
X179406725Y-118293777D03*
X177756725Y-118293777D03*
%TD*%
D41*
%TO.C,C17*%
X178841219Y-131203073D03*
X178841219Y-129303073D03*
%TD*%
D18*
%TO.C,R62*%
X214592168Y-106505300D03*
X216242168Y-106505300D03*
%TD*%
D30*
%TO.C,Q19*%
X185689162Y-74923972D03*
X185689162Y-76823972D03*
X187564162Y-75873972D03*
%TD*%
D51*
%TO.C,U6*%
X189784700Y-129200534D03*
X188514700Y-129200534D03*
X187244700Y-129200534D03*
X185974700Y-129200534D03*
X184704700Y-129200534D03*
X183434700Y-129200534D03*
X182164700Y-129200534D03*
X180894700Y-129200534D03*
X180894700Y-134150534D03*
X182164700Y-134150534D03*
X183434700Y-134150534D03*
X184704700Y-134150534D03*
X185974700Y-134150534D03*
X187244700Y-134150534D03*
X188514700Y-134150534D03*
X189784700Y-134150534D03*
%TD*%
D18*
%TO.C,R37*%
X213452928Y-137307448D03*
X215102928Y-137307448D03*
%TD*%
D17*
%TO.C,R50*%
X196439320Y-120270144D03*
X196439320Y-118620144D03*
%TD*%
D22*
%TO.C,Q11*%
X217725143Y-130580300D03*
X219625143Y-130580300D03*
X218675143Y-128705300D03*
%TD*%
D50*
%TO.C,R53*%
X223077611Y-129701980D03*
X221427611Y-129701980D03*
%TD*%
D21*
%TO.C,Q33*%
X216587168Y-147338698D03*
X214687168Y-147338698D03*
X215637168Y-149213698D03*
%TD*%
D33*
%TO.C,R43*%
X183185681Y-152678659D03*
X185010681Y-152678659D03*
%TD*%
D17*
%TO.C,R60*%
X164540586Y-119889870D03*
X164540586Y-118239870D03*
%TD*%
D18*
%TO.C,R34*%
X219149130Y-147194558D03*
X220799130Y-147194558D03*
%TD*%
D17*
%TO.C,R32*%
X191122865Y-154114480D03*
X191122865Y-152464480D03*
%TD*%
D22*
%TO.C,Q29*%
X207092232Y-151495339D03*
X208992232Y-151495339D03*
X208042232Y-149620339D03*
%TD*%
D30*
%TO.C,Q37*%
X214929668Y-90515183D03*
X214929668Y-92415183D03*
X216804668Y-91465183D03*
%TD*%
D52*
%TO.C,C26*%
X199484320Y-68057956D03*
X196534320Y-68057956D03*
%TD*%
D18*
%TO.C,R30*%
X206617485Y-147194558D03*
X208267485Y-147194558D03*
%TD*%
D53*
%TO.C,Ccomp3*%
X177092232Y-70889870D03*
X178992232Y-70889870D03*
%TD*%
D22*
%TO.C,Q9*%
X201016282Y-125256472D03*
X202916282Y-125256472D03*
X201966282Y-123381472D03*
%TD*%
D31*
%TO.C,VIN3*%
X170650000Y-70700000D03*
%TD*%
D54*
%TO.C,U1*%
X201491029Y-72323464D03*
X202141029Y-72323464D03*
X202791029Y-72323464D03*
X203441029Y-72323464D03*
X203441029Y-68098464D03*
X202791029Y-68098464D03*
X202141029Y-68098464D03*
X201491029Y-68098464D03*
%TD*%
D34*
%TO.C,Br7*%
X205137263Y-119594870D03*
X203312263Y-119594870D03*
%TD*%
D18*
%TO.C,R57*%
X210794700Y-117152956D03*
X212444700Y-117152956D03*
%TD*%
D55*
%TO.C,Q18*%
X187184415Y-80626706D03*
X187184415Y-78726706D03*
X185309415Y-79676706D03*
%TD*%
D21*
%TO.C,Q7*%
X200258054Y-120719558D03*
X198358054Y-120719558D03*
X199308054Y-122594558D03*
%TD*%
D42*
%TO.C,C15*%
X211629194Y-137332448D03*
X211629194Y-135782448D03*
%TD*%
D18*
%TO.C,R27*%
X219908624Y-139208816D03*
X221558624Y-139208816D03*
%TD*%
D56*
%TO.C,H2*%
X224000000Y-152300000D03*
D57*
X224000000Y-152300000D03*
%TD*%
D58*
%TO.C,L2*%
X189477043Y-69149297D03*
X189477043Y-65847297D03*
%TD*%
D30*
%TO.C,Q30*%
X211132200Y-151358933D03*
X211132200Y-153258933D03*
X213007200Y-152308933D03*
%TD*%
D55*
%TO.C,Q35*%
X209209732Y-133864988D03*
X209209732Y-131964988D03*
X207334732Y-132914988D03*
%TD*%
D41*
%TO.C,Ccomp2*%
X205043751Y-63514402D03*
X205043751Y-61614402D03*
%TD*%
D35*
%TO.C,C13*%
X185812422Y-62013308D03*
X184262422Y-62013308D03*
%TD*%
D23*
%TO.C,Br11*%
X179950459Y-87073855D03*
X179950459Y-85248855D03*
%TD*%
D59*
%TO.C,C6*%
X203767548Y-100068308D03*
X203767548Y-108868308D03*
%TD*%
D22*
%TO.C,Q17*%
X177851725Y-76961745D03*
X179751725Y-76961745D03*
X178801725Y-75086745D03*
%TD*%
D18*
%TO.C,R36*%
X201680776Y-133504714D03*
X203330776Y-133504714D03*
%TD*%
D56*
%TO.C,H1*%
X224900000Y-62500000D03*
D57*
X224900000Y-62500000D03*
%TD*%
D23*
%TO.C,R44*%
X186026409Y-147157058D03*
X186026409Y-145332058D03*
%TD*%
D38*
%TO.C,C80*%
X157955143Y-143753464D03*
X157955143Y-145653464D03*
%TD*%
D36*
%TO.C,SW5*%
X169002899Y-150726093D03*
X160002901Y-150726093D03*
X169002899Y-146226091D03*
X160002901Y-146226091D03*
%TD*%
D22*
%TO.C,Q26*%
X217345396Y-137044948D03*
X219245396Y-137044948D03*
X218295396Y-135169948D03*
%TD*%
D44*
%TO.C,C24*%
X191977358Y-131563620D03*
X194927358Y-131563620D03*
%TD*%
D17*
%TO.C,R35*%
X212388687Y-126354519D03*
X212388687Y-124704519D03*
%TD*%
D30*
%TO.C,Q32*%
X215309415Y-151358933D03*
X215309415Y-153258933D03*
X217184415Y-152308933D03*
%TD*%
D23*
%TO.C,R39*%
X165140333Y-110650808D03*
X165140333Y-108825808D03*
%TD*%
D30*
%TO.C,Q8*%
X178853719Y-151358933D03*
X178853719Y-153258933D03*
X180728719Y-152308933D03*
%TD*%
D60*
%TO.C,Rfb2*%
X208611472Y-80296120D03*
X208611472Y-83221120D03*
%TD*%
D61*
%TO.C,Y3*%
X182580206Y-124789792D03*
X180380206Y-124789792D03*
X180380206Y-126489792D03*
X182580206Y-126489792D03*
%TD*%
D62*
%TO.C,RSense1*%
X220337896Y-74853152D03*
X217412896Y-74853152D03*
%TD*%
D56*
%TO.C,H3*%
X153800000Y-62500000D03*
D57*
X153800000Y-62500000D03*
%TD*%
D42*
%TO.C,C7*%
X199477295Y-65841042D03*
X199477295Y-64291042D03*
%TD*%
D63*
%TO.C,C79*%
X193422611Y-127170339D03*
X191522611Y-127170339D03*
%TD*%
D39*
%TO.C,C19*%
X187925143Y-61671902D03*
X187925143Y-63496902D03*
%TD*%
D64*
%TO.C,C11*%
X193021599Y-62389675D03*
X193021599Y-63939675D03*
%TD*%
D63*
%TO.C,Cfilt1*%
X195701092Y-72410964D03*
X193801092Y-72410964D03*
%TD*%
D18*
%TO.C,R59*%
X162946599Y-116392409D03*
X164596599Y-116392409D03*
%TD*%
%TO.C,R29*%
X219908624Y-141110183D03*
X221558624Y-141110183D03*
%TD*%
D65*
%TO.C,J1*%
X155895000Y-89275000D03*
X155895000Y-94355000D03*
%TD*%
D17*
%TO.C,R54*%
X221502611Y-133199441D03*
X221502611Y-131549441D03*
%TD*%
D66*
%TO.C,C1*%
X209123244Y-68272605D03*
X209123244Y-73272605D03*
%TD*%
D63*
%TO.C,Ccomp1*%
X199498561Y-72410964D03*
X197598561Y-72410964D03*
%TD*%
D67*
%TO.C,Q1*%
X220639700Y-87392448D03*
D68*
X214389700Y-85092448D03*
D67*
X220639700Y-82792448D03*
%TD*%
D69*
%TO.C,U2*%
X209135966Y-144798191D03*
X210405966Y-144798191D03*
X211675966Y-144798191D03*
X212945966Y-144798191D03*
X214215966Y-144798191D03*
X215485966Y-144798191D03*
X216755966Y-144798191D03*
X218025966Y-144798191D03*
X218025966Y-139848191D03*
X216755966Y-139848191D03*
X215485966Y-139848191D03*
X214215966Y-139848191D03*
X212945966Y-139848191D03*
X211675966Y-139848191D03*
X210405966Y-139848191D03*
X209135966Y-139848191D03*
%TD*%
D56*
%TO.C,H4*%
X153800000Y-152200000D03*
D57*
X153800000Y-152200000D03*
%TD*%
D18*
%TO.C,R49*%
X199782042Y-118674050D03*
X201432042Y-118674050D03*
%TD*%
D36*
%TO.C,SW3*%
X176526977Y-144639932D03*
X176526977Y-153639930D03*
X172026975Y-144639932D03*
X172026975Y-153639930D03*
%TD*%
D50*
%TO.C,R48*%
X174090270Y-111829128D03*
X172440270Y-111829128D03*
%TD*%
%TO.C,R68*%
X222705000Y-70160000D03*
X221055000Y-70160000D03*
%TD*%
D40*
%TO.C,R51*%
X207831725Y-125465066D03*
X207831725Y-127115066D03*
%TD*%
D70*
%TO.C,N5*%
X229382780Y-102089060D03*
X229382780Y-98604180D03*
X235514340Y-102835820D03*
X232252980Y-96620440D03*
X235514340Y-97857420D03*
X236350000Y-99450000D03*
X236350000Y-101243240D03*
X230574040Y-97257980D03*
X232252980Y-104072800D03*
X230574040Y-103435260D03*
X228950980Y-100346620D03*
X234036060Y-103856900D03*
X234036060Y-96836340D03*
%TD*%
%TO.C,N4*%
X229373540Y-70278260D03*
X229373540Y-66793380D03*
X235505100Y-71025020D03*
X232243740Y-64809640D03*
X235505100Y-66046620D03*
X236340760Y-67639200D03*
X236340760Y-69432440D03*
X230564800Y-65447180D03*
X232243740Y-72262000D03*
X230564800Y-71624460D03*
X228941740Y-68535820D03*
X234026820Y-72046100D03*
X234026820Y-65025540D03*
%TD*%
%TO.C,N6*%
X229301820Y-86199340D03*
X229301820Y-82714460D03*
X235433380Y-86946100D03*
X232172020Y-80730720D03*
X235433380Y-81967700D03*
X236269040Y-83560280D03*
X236269040Y-85353520D03*
X230493080Y-81368260D03*
X232172020Y-88183080D03*
X230493080Y-87545540D03*
X228870020Y-84456900D03*
X233955100Y-87967180D03*
X233955100Y-80946620D03*
%TD*%
%TO.C,N1*%
X229332780Y-149389060D03*
X229332780Y-145904180D03*
X235464340Y-150135820D03*
X232202980Y-143920440D03*
X235464340Y-145157420D03*
X236300000Y-146750000D03*
X236300000Y-148543240D03*
X230524040Y-144557980D03*
X232202980Y-151372800D03*
X230524040Y-150735260D03*
X228900980Y-147646620D03*
X233986060Y-151156900D03*
X233986060Y-144136340D03*
%TD*%
%TO.C,N3*%
X229332780Y-117839060D03*
X229332780Y-114354180D03*
X235464340Y-118585820D03*
X232202980Y-112370440D03*
X235464340Y-113607420D03*
X236300000Y-115200000D03*
X236300000Y-116993240D03*
X230524040Y-113007980D03*
X232202980Y-119822800D03*
X230524040Y-119185260D03*
X228900980Y-116096620D03*
X233986060Y-119606900D03*
X233986060Y-112586340D03*
%TD*%
%TO.C,N2*%
X229332780Y-133589060D03*
X229332780Y-130104180D03*
X235464340Y-134335820D03*
X232202980Y-128120440D03*
X235464340Y-129357420D03*
X236300000Y-130950000D03*
X236300000Y-132743240D03*
X230524040Y-128757980D03*
X232202980Y-135572800D03*
X230524040Y-134935260D03*
X228900980Y-131846620D03*
X233986060Y-135356900D03*
X233986060Y-128336340D03*
%TD*%
%LPD*%
M02*
