%TF.GenerationSoftware,KiCad,Pcbnew,10.0.1*%
%TF.CreationDate,2026-09-04T12:16:38+02:00*%
%TF.ProjectId,CH569W,43483536-3957-42e6-9b69-6361645f7063,rev?*%
%TF.SameCoordinates,Original*%
%TF.FileFunction,Copper,L4,Bot*%
%TF.FilePolarity,Positive*%
%FSLAX46Y46*%
G04 Gerber Fmt 4.6, Leading zero omitted, Abs format (unit mm)*
G04 Created by KiCad (PCBNEW 10.0.1) date 2026-09-04 12:16:38*
%MOMM*%
%LPD*%
G01*
G04 APERTURE LIST*
%TA.AperFunction,ComponentPad*%
%ADD10O,2.100000X1.000000*%
%TD*%
%TA.AperFunction,ComponentPad*%
%ADD11O,1.600000X1.000000*%
%TD*%
%TA.AperFunction,ComponentPad*%
%ADD12R,1.700000X1.700000*%
%TD*%
%TA.AperFunction,ComponentPad*%
%ADD13C,1.700000*%
%TD*%
%TA.AperFunction,ViaPad*%
%ADD14C,0.305105*%
%TD*%
%TA.AperFunction,ViaPad*%
%ADD15C,0.406806*%
%TD*%
%TA.AperFunction,Conductor*%
%ADD16C,0.100000*%
%TD*%
%TA.AperFunction,Conductor*%
%ADD17C,0.076276*%
%TD*%
G04 APERTURE END LIST*
D10*
%TO.P,J1,SH,SHIELD_SH*%
%TO.N,GND*%
X105360000Y-110320000D03*
D11*
X101180000Y-110320000D03*
D10*
X105360000Y-118960000D03*
D11*
X101180000Y-118960000D03*
%TD*%
D12*
%TO.P,J3,1,Pin_1_1*%
%TO.N,Net-(J3-Pin_1)*%
X162570000Y-97900000D03*
D13*
%TO.P,J3,2,Pin_2_2*%
%TO.N,Net-(J3-Pin_2)*%
X165110000Y-97900000D03*
%TO.P,J3,3,Pin_3_3*%
%TO.N,Net-(J3-Pin_3)*%
X162570000Y-100440000D03*
%TO.P,J3,4,Pin_4_4*%
%TO.N,Net-(J3-Pin_4)*%
X165110000Y-100440000D03*
%TO.P,J3,5,Pin_5_5*%
%TO.N,Net-(J3-Pin_5)*%
X162570000Y-102980000D03*
%TO.P,J3,6,Pin_6_6*%
%TO.N,Net-(J3-Pin_6)*%
X165110000Y-102980000D03*
%TO.P,J3,7,Pin_7_7*%
%TO.N,Net-(J3-Pin_7)*%
X162570000Y-105520000D03*
%TO.P,J3,8,Pin_8_8*%
%TO.N,Net-(J3-Pin_8)*%
X165110000Y-105520000D03*
%TO.P,J3,9,Pin_9_9*%
%TO.N,Net-(J3-Pin_9)*%
X162570000Y-108060000D03*
%TO.P,J3,10,Pin_10_10*%
%TO.N,Net-(J3-Pin_10)*%
X165110000Y-108060000D03*
%TO.P,J3,11,Pin_11_11*%
%TO.N,Net-(J3-Pin_11)*%
X162570000Y-110600000D03*
%TO.P,J3,12,Pin_12_12*%
%TO.N,Net-(J3-Pin_12)*%
X165110000Y-110600000D03*
%TO.P,J3,13,Pin_13_13*%
%TO.N,Net-(J3-Pin_13)*%
X162570000Y-113140000D03*
%TO.P,J3,14,Pin_14_14*%
%TO.N,Net-(J3-Pin_14)*%
X165110000Y-113140000D03*
%TO.P,J3,15,Pin_15_15*%
%TO.N,Net-(J3-Pin_15)*%
X162570000Y-115680000D03*
%TO.P,J3,16,Pin_16_16*%
%TO.N,Net-(J3-Pin_16)*%
X165110000Y-115680000D03*
%TO.P,J3,17,Pin_17_17*%
%TO.N,Net-(J3-Pin_17)*%
X162570000Y-118220000D03*
%TO.P,J3,18,Pin_18_18*%
%TO.N,Net-(J3-Pin_18)*%
X165110000Y-118220000D03*
%TD*%
D12*
%TO.P,J4,1,Pin_1_1*%
%TO.N,Net-(J4-Pin_1)*%
X117040000Y-97800000D03*
D13*
%TO.P,J4,2,Pin_2_2*%
%TO.N,Net-(J4-Pin_2)*%
X114500000Y-97800000D03*
%TO.P,J4,3,Pin_3_3*%
%TO.N,Net-(J4-Pin_3)*%
X111960000Y-97800000D03*
%TO.P,J4,4,Pin_4_4*%
%TO.N,Net-(J4-Pin_4)*%
X109420000Y-97800000D03*
%TO.P,J4,5,Pin_5_5*%
%TO.N,Net-(J4-Pin_5)*%
X106880000Y-97800000D03*
%TO.P,J4,6,Pin_6_6*%
%TO.N,Net-(J4-Pin_6)*%
X104340000Y-97800000D03*
%TO.P,J4,7,Pin_7_7*%
%TO.N,Net-(J4-Pin_7)*%
X101800000Y-97800000D03*
%TD*%
D12*
%TO.P,J2,1,Pin_1_1*%
%TO.N,Net-(J2-Pin_1)*%
X101830000Y-106455000D03*
D13*
%TO.P,J2,2,Pin_2_2*%
%TO.N,Net-(J2-Pin_2)*%
X101830000Y-103915000D03*
%TD*%
D14*
%TO.N,GND*%
X131241022Y-118289200D03*
X140020000Y-103810000D03*
X112156469Y-117177303D03*
X140500000Y-105680000D03*
X121304712Y-106645728D03*
X130010000Y-108980000D03*
X153277525Y-104392383D03*
X130608000Y-108546434D03*
X139750000Y-101940000D03*
X158750000Y-101900000D03*
X138064315Y-109575805D03*
X156690000Y-101530000D03*
X112567050Y-105188272D03*
X130799974Y-104599975D03*
X143207441Y-101335980D03*
X130401292Y-107700753D03*
X155670000Y-106110000D03*
X154550000Y-110160000D03*
X129041780Y-118277707D03*
X156833293Y-114107846D03*
X108770000Y-109190000D03*
X132523871Y-118278292D03*
X139105940Y-105478083D03*
X158320117Y-109964087D03*
X147520000Y-102010000D03*
D15*
X133446090Y-106159318D03*
D14*
X130398566Y-112388566D03*
X156770000Y-111910000D03*
X131125000Y-110125000D03*
X108977377Y-102707316D03*
X114090521Y-107149936D03*
X145608167Y-109956229D03*
X147409412Y-116131201D03*
X160000041Y-108140000D03*
X132163929Y-104612435D03*
X129465033Y-107466838D03*
X139150780Y-110818336D03*
X113670000Y-108760000D03*
X112217975Y-112638716D03*
X129030000Y-108060000D03*
X113679993Y-102832700D03*
X120496577Y-105502735D03*
%TO.N,+1V2*%
X111059816Y-101985567D03*
X144766040Y-104280086D03*
X107242025Y-101464044D03*
X153350633Y-111524507D03*
%TO.N,+3V3*%
X130050000Y-110050000D03*
X128094908Y-109730933D03*
X126010000Y-109760000D03*
X130830000Y-112250000D03*
X134380000Y-105620000D03*
X133540000Y-108790000D03*
X136520736Y-104529264D03*
X148230000Y-111680000D03*
X131530000Y-108860000D03*
X152330000Y-112263478D03*
%TO.N,Net-(J1-D+-PadA6)*%
X113670399Y-114789875D03*
X149439846Y-100763799D03*
%TO.N,Net-(U1-XI)*%
X158440000Y-103590000D03*
X157660000Y-104390000D03*
%TO.N,Net-(J3-Pin_1)*%
X153510000Y-109130000D03*
%TO.N,Net-(J3-Pin_2)*%
X152361531Y-113584723D03*
%TO.N,Net-(J3-Pin_3)*%
X151858103Y-108580000D03*
%TO.N,Net-(J3-Pin_4)*%
X151556227Y-113230752D03*
%TO.N,Net-(J3-Pin_5)*%
X153876543Y-110759292D03*
%TO.N,Net-(J3-Pin_6)*%
X151275522Y-113632978D03*
%TO.N,Net-(J3-Pin_7)*%
X151883998Y-109260000D03*
X161060000Y-105100000D03*
%TO.N,Net-(J3-Pin_8)*%
X153162778Y-113703450D03*
%TO.N,Net-(J3-Pin_9)*%
X154920129Y-112277497D03*
%TO.N,Net-(J3-Pin_10)*%
X151152113Y-114294113D03*
%TO.N,Net-(J3-Pin_11)*%
X151883998Y-110140000D03*
X160160000Y-109830000D03*
X158710000Y-111060000D03*
X161690000Y-109550000D03*
%TO.N,Net-(J3-Pin_12)*%
X149867239Y-113240499D03*
%TO.N,Net-(J3-Pin_13)*%
X151905454Y-110903127D03*
X157770000Y-112470000D03*
X161380000Y-111300000D03*
%TO.N,Net-(J3-Pin_14)*%
X152090976Y-115033148D03*
%TO.N,Net-(J3-Pin_15)*%
X151782600Y-111565077D03*
%TO.N,Net-(J3-Pin_16)*%
X149100773Y-113220378D03*
%TO.N,Net-(J3-Pin_17)*%
X152948791Y-112048791D03*
%TO.N,Net-(J3-Pin_18)*%
X149925029Y-114353423D03*
%TO.N,Net-(J4-Pin_1)*%
X147746923Y-113281200D03*
%TO.N,Net-(J4-Pin_2)*%
X145028233Y-114450004D03*
%TO.N,Net-(J4-Pin_3)*%
X144970000Y-112170000D03*
X122186084Y-100869317D03*
X147040000Y-111770000D03*
%TO.N,Net-(J4-Pin_4)*%
X140336749Y-115619226D03*
%TO.N,Net-(J4-Pin_5)*%
X142514822Y-115425912D03*
%TO.N,Net-(J4-Pin_6)*%
X129562682Y-102679614D03*
%TO.N,Net-(J4-Pin_7)*%
X137449566Y-107557491D03*
%TO.N,/DAT0*%
X143546396Y-108909612D03*
X137736567Y-113289225D03*
%TO.N,/DAT1*%
X136699237Y-114192707D03*
X143348339Y-108468367D03*
%TO.N,/DAT2*%
X143946409Y-107978857D03*
X135788560Y-114381752D03*
D15*
%TO.N,/DAT3*%
X139724046Y-111335796D03*
D14*
X136977910Y-111445269D03*
D15*
X141987795Y-110033698D03*
D14*
X143761510Y-107438199D03*
%TO.N,/DAT4*%
X135170000Y-109951367D03*
X140191732Y-107293182D03*
%TO.N,/DAT5*%
X135011491Y-111673805D03*
D15*
X141365219Y-113156439D03*
D14*
X145401622Y-107930344D03*
%TO.N,/DAT6*%
X133434325Y-109654275D03*
D15*
X140419717Y-108468347D03*
D14*
X137546758Y-106669117D03*
%TO.N,/DAT7*%
X130066300Y-111926662D03*
X138078060Y-106507494D03*
%TO.N,/RST*%
X134693753Y-106663758D03*
X131550000Y-107020000D03*
X141169625Y-107162661D03*
%TO.N,/CMD*%
X131670000Y-104380000D03*
X130741666Y-106411666D03*
X142349425Y-108371300D03*
X133600201Y-103988303D03*
%TO.N,/CLK*%
X130180000Y-104580000D03*
X131878058Y-103599873D03*
X135425264Y-104571416D03*
X129830000Y-106400000D03*
%TO.N,/D-*%
X151580844Y-103619434D03*
X151789306Y-101697674D03*
%TO.N,/D+*%
X151496765Y-101295020D03*
X152123421Y-103896056D03*
%TO.N,Net-(J2-Pin_2)*%
X153395751Y-106714170D03*
%TO.N,Net-(J2-Pin_1)*%
X153352227Y-106226936D03*
%TD*%
%TO.N,+3V3*%
D16*
X131600000Y-108790000D02*
X131530000Y-108860000D01*
X128065841Y-109760000D02*
X128094908Y-109730933D01*
X126010000Y-109760000D02*
X128065841Y-109760000D01*
X130830000Y-110830000D02*
X130050000Y-110050000D01*
X130830000Y-112250000D02*
X130830000Y-110830000D01*
X133540000Y-108790000D02*
X131600000Y-108790000D01*
%TO.N,Net-(J1-D+-PadA6)*%
D17*
X147939735Y-112708214D02*
X147939735Y-102263910D01*
X148034342Y-112802821D02*
X147939735Y-112708214D01*
X142899384Y-118604853D02*
X148034342Y-113469895D01*
X113670399Y-114789875D02*
X117485377Y-118604853D01*
X117485377Y-118604853D02*
X142899384Y-118604853D01*
X147939735Y-102263910D02*
X149439846Y-100763799D01*
X148034342Y-113469895D02*
X148034342Y-112802821D01*
%TO.N,Net-(U1-XI)*%
D16*
X157660000Y-104370000D02*
X157660000Y-104390000D01*
X158440000Y-103590000D02*
X157660000Y-104370000D01*
%TO.N,Net-(J3-Pin_3)*%
X151858103Y-107266036D02*
X157930778Y-101193361D01*
X157930778Y-101193361D02*
X161816639Y-101193361D01*
X151858103Y-108580000D02*
X151858103Y-107266036D01*
X161816639Y-101193361D02*
X162570000Y-100440000D01*
%TO.N,Net-(J3-Pin_4)*%
X163850000Y-101700000D02*
X163850000Y-103250000D01*
X159682300Y-111112497D02*
X157564045Y-113230752D01*
X162591310Y-104508690D02*
X162120433Y-104508690D01*
X165110000Y-100440000D02*
X163850000Y-101700000D01*
X163850000Y-103250000D02*
X162591310Y-104508690D01*
X162120433Y-104508690D02*
X159682300Y-106946823D01*
X159682300Y-106946823D02*
X159682300Y-111112497D01*
X157564045Y-113230752D02*
X151556227Y-113230752D01*
%TO.N,Net-(J3-Pin_5)*%
X159783211Y-103733361D02*
X153876543Y-109640029D01*
X162570000Y-102980000D02*
X162267575Y-103282425D01*
X161816639Y-103733361D02*
X159783211Y-103733361D01*
X153876543Y-109640029D02*
X153876543Y-110759292D01*
X162267575Y-103282425D02*
X161816639Y-103733361D01*
%TO.N,Net-(J3-Pin_7)*%
X151883998Y-109293998D02*
X153666995Y-111076995D01*
X151883998Y-109260000D02*
X151883998Y-109293998D01*
X155083005Y-111076995D02*
X161060000Y-105100000D01*
X153666995Y-111076995D02*
X155083005Y-111076995D01*
%TO.N,Net-(J3-Pin_9)*%
D17*
X159885875Y-111333585D02*
X157734399Y-113485061D01*
X162570000Y-108060000D02*
X162267575Y-108362425D01*
X150970097Y-113388963D02*
X151399506Y-112959554D01*
X160791452Y-108813361D02*
X159885875Y-109718938D01*
X150970097Y-113720339D02*
X150970097Y-113388963D01*
X151399506Y-112959554D02*
X154238072Y-112959554D01*
X154640498Y-113485061D02*
X154132817Y-113992742D01*
X157734399Y-113485061D02*
X154640498Y-113485061D01*
X162267575Y-108362425D02*
X161816639Y-108813361D01*
X159885875Y-109718938D02*
X159885875Y-111333585D01*
X154238072Y-112959554D02*
X154920129Y-112277497D01*
X161816639Y-108813361D02*
X160791452Y-108813361D01*
X154132817Y-113992742D02*
X151242500Y-113992742D01*
X151242500Y-113992742D02*
X150970097Y-113720339D01*
%TO.N,Net-(J3-Pin_10)*%
D16*
X162428672Y-109301328D02*
X157264973Y-114465027D01*
X163868672Y-109301328D02*
X162428672Y-109301328D01*
X151323027Y-114465027D02*
X151152113Y-114294113D01*
X157264973Y-114465027D02*
X151323027Y-114465027D01*
X165110000Y-108060000D02*
X163868672Y-109301328D01*
%TO.N,Net-(J3-Pin_11)*%
X155215710Y-111229395D02*
X158540605Y-111229395D01*
X153534289Y-111229395D02*
X153583490Y-111278595D01*
X153504821Y-111229395D02*
X153534289Y-111229395D01*
X161410000Y-109830000D02*
X161690000Y-109550000D01*
X155166511Y-111278595D02*
X155215710Y-111229395D01*
X151883998Y-110140000D02*
X152415426Y-110140000D01*
X152415426Y-110140000D02*
X153504821Y-111229395D01*
X153583490Y-111278595D02*
X155166511Y-111278595D01*
X158540605Y-111229395D02*
X158710000Y-111060000D01*
X160160000Y-109830000D02*
X161410000Y-109830000D01*
%TO.N,Net-(J3-Pin_13)*%
X152226826Y-110850000D02*
X153336620Y-111959794D01*
X155051726Y-111959794D02*
X155561932Y-112470000D01*
X151958581Y-110850000D02*
X152226826Y-110850000D01*
X155561932Y-112470000D02*
X157770000Y-112470000D01*
X151905454Y-110903127D02*
X151958581Y-110850000D01*
X153336620Y-111959794D02*
X155051726Y-111959794D01*
%TO.N,Net-(J3-Pin_15)*%
X161504587Y-115680000D02*
X160491214Y-114666627D01*
X150799923Y-112547754D02*
X151782600Y-111565077D01*
X162570000Y-115680000D02*
X161714613Y-115680000D01*
X160491214Y-114666627D02*
X151063916Y-114666627D01*
X151063916Y-114666627D02*
X150799923Y-114402634D01*
X161714613Y-115680000D02*
X161504587Y-115680000D01*
X150799923Y-114402634D02*
X150799923Y-112547754D01*
%TO.N,Net-(J3-Pin_17)*%
X151683860Y-111207279D02*
X150543511Y-112347629D01*
X152686425Y-111786425D02*
X152571942Y-111786425D01*
X154310000Y-118220000D02*
X162570000Y-118220000D01*
X152571942Y-111786425D02*
X151992796Y-111207279D01*
X151992796Y-111207279D02*
X151683860Y-111207279D01*
X150543511Y-114453511D02*
X154310000Y-118220000D01*
X152948791Y-112048791D02*
X152686425Y-111786425D01*
X150543511Y-112347629D02*
X150543511Y-114453511D01*
%TO.N,Net-(J3-Pin_18)*%
D17*
X164807575Y-118522425D02*
X164356639Y-118973361D01*
X154764799Y-119193193D02*
X149925029Y-114353423D01*
X164136807Y-119193193D02*
X154764799Y-119193193D01*
X165110000Y-118220000D02*
X164807575Y-118522425D01*
X164356639Y-118973361D02*
X164136807Y-119193193D01*
%TO.N,Net-(J4-Pin_1)*%
D16*
X136475183Y-107202931D02*
X137775718Y-107202931D01*
X133753948Y-104481696D02*
X136475183Y-107202931D01*
X143853986Y-113281200D02*
X147746923Y-113281200D01*
X126749679Y-97800000D02*
X133431375Y-104481696D01*
X117040000Y-97800000D02*
X117890000Y-97800000D01*
X118100026Y-97800000D02*
X126749679Y-97800000D01*
X117890000Y-97800000D02*
X118100026Y-97800000D01*
X133431375Y-104481696D02*
X133753948Y-104481696D01*
X137775718Y-107202931D02*
X143853986Y-113281200D01*
%TO.N,Net-(J4-Pin_2)*%
X134040561Y-106036241D02*
X134898531Y-106036241D01*
X123467252Y-99692014D02*
X127850555Y-104075317D01*
X143741279Y-114450004D02*
X145028233Y-114450004D01*
X127850555Y-104075317D02*
X132079637Y-104075317D01*
X116392014Y-99692014D02*
X123467252Y-99692014D01*
X134898531Y-106036241D02*
X136581283Y-107718993D01*
X115253361Y-98553361D02*
X116392014Y-99692014D01*
X137010268Y-107718993D02*
X143741279Y-114450004D01*
X136581283Y-107718993D02*
X137010268Y-107718993D01*
X114802425Y-98102425D02*
X115253361Y-98553361D01*
X114500000Y-97800000D02*
X114802425Y-98102425D01*
X132079637Y-104075317D02*
X134040561Y-106036241D01*
%TO.N,Net-(J4-Pin_3)*%
X147040000Y-111770000D02*
X145370000Y-111770000D01*
X145370000Y-111770000D02*
X144970000Y-112170000D01*
%TO.N,Net-(J4-Pin_4)*%
X127239226Y-115619226D02*
X140336749Y-115619226D01*
X109722425Y-98102425D02*
X110173361Y-98553361D01*
X110173361Y-98553361D02*
X127239226Y-115619226D01*
X109420000Y-97800000D02*
X109722425Y-98102425D01*
%TO.N,Net-(J4-Pin_5)*%
X106880000Y-97800000D02*
X107182425Y-98102425D01*
X141932813Y-116007921D02*
X142514822Y-115425912D01*
X107633361Y-98553361D02*
X108603017Y-98553361D01*
X108603017Y-98553361D02*
X126057577Y-116007921D01*
X126057577Y-116007921D02*
X141932813Y-116007921D01*
X107182425Y-98102425D02*
X107633361Y-98553361D01*
%TO.N,/DAT3*%
D17*
X143761510Y-107438199D02*
X141987795Y-109211914D01*
X141987795Y-109211914D02*
X141987795Y-110033698D01*
%TO.N,/DAT5*%
X137006924Y-113669238D02*
X135011491Y-111673805D01*
X141365219Y-113156439D02*
X140852420Y-113669238D01*
X140852420Y-113669238D02*
X137006924Y-113669238D01*
%TO.N,/DAT6*%
X137546758Y-106669117D02*
X139345988Y-108468347D01*
X139345988Y-108468347D02*
X140419717Y-108468347D01*
%TO.N,/RST*%
D16*
X134337511Y-107020000D02*
X134693753Y-106663758D01*
X131550000Y-107020000D02*
X134337511Y-107020000D01*
%TO.N,/CMD*%
X130741666Y-106411666D02*
X130680000Y-106350000D01*
X139389932Y-105937654D02*
X141823578Y-108371300D01*
X133600201Y-103988303D02*
X135549553Y-105937654D01*
X135549553Y-105937654D02*
X139389932Y-105937654D01*
X130680000Y-106350000D02*
X130680000Y-105370000D01*
X141823578Y-108371300D02*
X142349425Y-108371300D01*
X130680000Y-105370000D02*
X131670000Y-104380000D01*
%TO.N,/CLK*%
X129950000Y-104810000D02*
X130180000Y-104580000D01*
X129950000Y-106280000D02*
X129950000Y-104810000D01*
X129830000Y-106400000D02*
X129950000Y-106280000D01*
%TO.N,/D+*%
X151496765Y-101295020D02*
X151397821Y-101393965D01*
X151397821Y-102447411D02*
X152123421Y-103173011D01*
X151397821Y-101393965D02*
X151397821Y-102447411D01*
X152123421Y-103173011D02*
X152123421Y-103896056D01*
%TD*%
M02*
