%TF.GenerationSoftware,KiCad,Pcbnew,10.0.1*%
%TF.CreationDate,2026-09-04T12:16:38+02:00*%
%TF.ProjectId,CH569W,43483536-3957-42e6-9b69-6361645f7063,rev?*%
%TF.SameCoordinates,Original*%
%TF.FileFunction,Copper,L1,Top*%
%TF.FilePolarity,Positive*%
%FSLAX46Y46*%
G04 Gerber Fmt 4.6, Leading zero omitted, Abs format (unit mm)*
G04 Created by KiCad (PCBNEW 10.0.1) date 2026-09-04 12:16:38*
%MOMM*%
%LPD*%
G01*
G04 APERTURE LIST*
G04 Aperture macros list*
%AMRoundRect*
0 Rectangle with rounded corners*
0 $1 Rounding radius*
0 $2 $3 $4 $5 $6 $7 $8 $9 X,Y pos of 4 corners*
0 Add a 4 corners polygon primitive as box body*
4,1,4,$2,$3,$4,$5,$6,$7,$8,$9,$2,$3,0*
0 Add four circle primitives for the rounded corners*
1,1,$1+$1,$2,$3*
1,1,$1+$1,$4,$5*
1,1,$1+$1,$6,$7*
1,1,$1+$1,$8,$9*
0 Add four rect primitives between the rounded corners*
20,1,$1+$1,$2,$3,$4,$5,0*
20,1,$1+$1,$4,$5,$6,$7,0*
20,1,$1+$1,$6,$7,$8,$9,0*
20,1,$1+$1,$8,$9,$2,$3,0*%
G04 Aperture macros list end*
%TA.AperFunction,SMDPad,CuDef*%
%ADD10RoundRect,0.200000X0.200000X0.275000X-0.200000X0.275000X-0.200000X-0.275000X0.200000X-0.275000X0*%
%TD*%
%TA.AperFunction,SMDPad,CuDef*%
%ADD11RoundRect,0.225000X-0.225000X-0.250000X0.225000X-0.250000X0.225000X0.250000X-0.225000X0.250000X0*%
%TD*%
%TA.AperFunction,SMDPad,CuDef*%
%ADD12RoundRect,0.225000X-0.250000X0.225000X-0.250000X-0.225000X0.250000X-0.225000X0.250000X0.225000X0*%
%TD*%
%TA.AperFunction,SMDPad,CuDef*%
%ADD13RoundRect,0.150000X-0.575000X0.150000X-0.575000X-0.150000X0.575000X-0.150000X0.575000X0.150000X0*%
%TD*%
%TA.AperFunction,SMDPad,CuDef*%
%ADD14RoundRect,0.075000X-0.650000X0.075000X-0.650000X-0.075000X0.650000X-0.075000X0.650000X0.075000X0*%
%TD*%
%TA.AperFunction,ComponentPad*%
%ADD15O,2.100000X1.000000*%
%TD*%
%TA.AperFunction,ComponentPad*%
%ADD16O,1.600000X1.000000*%
%TD*%
%TA.AperFunction,ComponentPad*%
%ADD17R,1.700000X1.700000*%
%TD*%
%TA.AperFunction,ComponentPad*%
%ADD18C,1.700000*%
%TD*%
%TA.AperFunction,SMDPad,CuDef*%
%ADD19RoundRect,0.225000X0.250000X-0.225000X0.250000X0.225000X-0.250000X0.225000X-0.250000X-0.225000X0*%
%TD*%
%TA.AperFunction,SMDPad,CuDef*%
%ADD20C,0.250000*%
%TD*%
%TA.AperFunction,SMDPad,CuDef*%
%ADD21RoundRect,0.225000X0.225000X0.250000X-0.225000X0.250000X-0.225000X-0.250000X0.225000X-0.250000X0*%
%TD*%
%TA.AperFunction,SMDPad,CuDef*%
%ADD22RoundRect,0.250000X0.450000X0.350000X-0.450000X0.350000X-0.450000X-0.350000X0.450000X-0.350000X0*%
%TD*%
%TA.AperFunction,SMDPad,CuDef*%
%ADD23RoundRect,0.200000X0.275000X-0.200000X0.275000X0.200000X-0.275000X0.200000X-0.275000X-0.200000X0*%
%TD*%
%TA.AperFunction,SMDPad,CuDef*%
%ADD24RoundRect,0.150000X0.150000X-0.512500X0.150000X0.512500X-0.150000X0.512500X-0.150000X-0.512500X0*%
%TD*%
%TA.AperFunction,SMDPad,CuDef*%
%ADD25RoundRect,0.200000X-0.200000X-0.275000X0.200000X-0.275000X0.200000X0.275000X-0.200000X0.275000X0*%
%TD*%
%TA.AperFunction,SMDPad,CuDef*%
%ADD26R,0.200000X0.900000*%
%TD*%
%TA.AperFunction,SMDPad,CuDef*%
%ADD27R,0.900000X0.200000*%
%TD*%
%TA.AperFunction,SMDPad,CuDef*%
%ADD28R,5.500000X5.500000*%
%TD*%
%TA.AperFunction,ViaPad*%
%ADD29C,0.305105*%
%TD*%
%TA.AperFunction,ViaPad*%
%ADD30C,0.406806*%
%TD*%
%TA.AperFunction,Conductor*%
%ADD31C,0.100000*%
%TD*%
%TA.AperFunction,Conductor*%
%ADD32C,0.076276*%
%TD*%
%TA.AperFunction,Conductor*%
%ADD33C,0.076200*%
%TD*%
%ADD34C,0.000000*%
G04 APERTURE END LIST*
D10*
%TO.P,R2,1*%
%TO.N,GND*%
X112278450Y-116389845D03*
%TO.P,R2,2*%
%TO.N,Net-(J1-CC2)*%
X110628450Y-116389845D03*
%TD*%
D11*
%TO.P,C3,1*%
%TO.N,+1V2*%
X154153606Y-111824213D03*
%TO.P,C3,2*%
%TO.N,GND*%
X155703606Y-111824213D03*
%TD*%
%TO.P,C2,1*%
%TO.N,+3V3*%
X157551380Y-108181170D03*
%TO.P,C2,2*%
%TO.N,GND*%
X159101380Y-108181170D03*
%TD*%
D12*
%TO.P,C21,1*%
%TO.N,+3V3*%
X132741290Y-115964986D03*
%TO.P,C21,2*%
%TO.N,GND*%
X132741290Y-117514986D03*
%TD*%
D13*
%TO.P,J1,A1,GND_A1*%
%TO.N,GND*%
X106275000Y-111390000D03*
%TO.P,J1,A4,VBUS_A4*%
%TO.N,+5V*%
X106275000Y-112190000D03*
D14*
%TO.P,J1,A5,CC1_A5*%
%TO.N,Net-(J1-CC1)*%
X106275000Y-113390000D03*
%TO.P,J1,A6,D+_A6*%
%TO.N,Net-(J1-D+-PadA6)*%
X106275000Y-114390000D03*
%TO.P,J1,A7,D-_A7*%
%TO.N,Net-(J1-D--PadA7)*%
X106275000Y-114890000D03*
%TO.P,J1,A8,SBU1_A8*%
%TO.N,unconnected-(J1-SBU1-PadA8)*%
X106275000Y-115890000D03*
D13*
%TO.P,J1,A9,VBUS_A9*%
%TO.N,+5V*%
X106275000Y-117090000D03*
%TO.P,J1,A12,GND_A12*%
%TO.N,GND*%
X106275000Y-117890000D03*
%TO.P,J1,B1,GND_B1*%
X106275000Y-117890000D03*
%TO.P,J1,B4,VBUS_B4*%
%TO.N,+5V*%
X106275000Y-117090000D03*
D14*
%TO.P,J1,B5,CC2_B5*%
%TO.N,Net-(J1-CC2)*%
X106275000Y-116390000D03*
%TO.P,J1,B6,D+_B6*%
%TO.N,Net-(J1-D+-PadA6)*%
X106275000Y-115390000D03*
%TO.P,J1,B7,D-_B7*%
%TO.N,Net-(J1-D--PadA7)*%
X106275000Y-113890000D03*
%TO.P,J1,B8,SBU2_B8*%
%TO.N,unconnected-(J1-SBU2-PadB8)*%
X106275000Y-112890000D03*
D13*
%TO.P,J1,B9,VBUS_B9*%
%TO.N,+5V*%
X106275000Y-112190000D03*
%TO.P,J1,B12,GND_B12*%
%TO.N,GND*%
X106275000Y-111390000D03*
D15*
%TO.P,J1,SH,SHIELD_SH*%
X105360000Y-110320000D03*
D16*
X101180000Y-110320000D03*
D15*
X105360000Y-118960000D03*
D16*
X101180000Y-118960000D03*
%TD*%
D12*
%TO.P,C6,1*%
%TO.N,Net-(U1-XO)*%
X154550000Y-107775000D03*
%TO.P,C6,2*%
%TO.N,GND*%
X154550000Y-109325000D03*
%TD*%
%TO.P,C5,1*%
%TO.N,GND*%
X158890000Y-102835000D03*
%TO.P,C5,2*%
%TO.N,Net-(U1-XI)*%
X158890000Y-104385000D03*
%TD*%
D17*
%TO.P,J3,1,Pin_1_1*%
%TO.N,Net-(J3-Pin_1)*%
X162570000Y-97900000D03*
D18*
%TO.P,J3,2,Pin_2_2*%
%TO.N,Net-(J3-Pin_2)*%
X165110000Y-97900000D03*
%TO.P,J3,3,Pin_3_3*%
%TO.N,Net-(J3-Pin_3)*%
X162570000Y-100440000D03*
%TO.P,J3,4,Pin_4_4*%
%TO.N,Net-(J3-Pin_4)*%
X165110000Y-100440000D03*
%TO.P,J3,5,Pin_5_5*%
%TO.N,Net-(J3-Pin_5)*%
X162570000Y-102980000D03*
%TO.P,J3,6,Pin_6_6*%
%TO.N,Net-(J3-Pin_6)*%
X165110000Y-102980000D03*
%TO.P,J3,7,Pin_7_7*%
%TO.N,Net-(J3-Pin_7)*%
X162570000Y-105520000D03*
%TO.P,J3,8,Pin_8_8*%
%TO.N,Net-(J3-Pin_8)*%
X165110000Y-105520000D03*
%TO.P,J3,9,Pin_9_9*%
%TO.N,Net-(J3-Pin_9)*%
X162570000Y-108060000D03*
%TO.P,J3,10,Pin_10_10*%
%TO.N,Net-(J3-Pin_10)*%
X165110000Y-108060000D03*
%TO.P,J3,11,Pin_11_11*%
%TO.N,Net-(J3-Pin_11)*%
X162570000Y-110600000D03*
%TO.P,J3,12,Pin_12_12*%
%TO.N,Net-(J3-Pin_12)*%
X165110000Y-110600000D03*
%TO.P,J3,13,Pin_13_13*%
%TO.N,Net-(J3-Pin_13)*%
X162570000Y-113140000D03*
%TO.P,J3,14,Pin_14_14*%
%TO.N,Net-(J3-Pin_14)*%
X165110000Y-113140000D03*
%TO.P,J3,15,Pin_15_15*%
%TO.N,Net-(J3-Pin_15)*%
X162570000Y-115680000D03*
%TO.P,J3,16,Pin_16_16*%
%TO.N,Net-(J3-Pin_16)*%
X165110000Y-115680000D03*
%TO.P,J3,17,Pin_17_17*%
%TO.N,Net-(J3-Pin_17)*%
X162570000Y-118220000D03*
%TO.P,J3,18,Pin_18_18*%
%TO.N,Net-(J3-Pin_18)*%
X165110000Y-118220000D03*
%TD*%
D19*
%TO.P,C23,1*%
%TO.N,GND*%
X146650000Y-116605000D03*
%TO.P,C23,2*%
%TO.N,+3V3*%
X146650000Y-115055000D03*
%TD*%
D11*
%TO.P,C22,1*%
%TO.N,+3V3*%
X136817852Y-105519986D03*
%TO.P,C22,2*%
%TO.N,GND*%
X138367852Y-105519986D03*
%TD*%
D17*
%TO.P,J4,1,Pin_1_1*%
%TO.N,Net-(J4-Pin_1)*%
X117040000Y-97800000D03*
D18*
%TO.P,J4,2,Pin_2_2*%
%TO.N,Net-(J4-Pin_2)*%
X114500000Y-97800000D03*
%TO.P,J4,3,Pin_3_3*%
%TO.N,Net-(J4-Pin_3)*%
X111960000Y-97800000D03*
%TO.P,J4,4,Pin_4_4*%
%TO.N,Net-(J4-Pin_4)*%
X109420000Y-97800000D03*
%TO.P,J4,5,Pin_5_5*%
%TO.N,Net-(J4-Pin_5)*%
X106880000Y-97800000D03*
%TO.P,J4,6,Pin_6_6*%
%TO.N,Net-(J4-Pin_6)*%
X104340000Y-97800000D03*
%TO.P,J4,7,Pin_7_7*%
%TO.N,Net-(J4-Pin_7)*%
X101800000Y-97800000D03*
%TD*%
D20*
%TO.P,U2,A1,NC_A1*%
%TO.N,unconnected-(U2-NC-PadA1)*%
X133020000Y-111520000D03*
%TO.P,U2,A2,NC_A2*%
%TO.N,unconnected-(U2-NC-PadA2)*%
X132520000Y-111520000D03*
%TO.P,U2,A3,DAT0_A3*%
%TO.N,/DAT0*%
X132020000Y-111520000D03*
%TO.P,U2,A4,DAT1_A4*%
%TO.N,/DAT1*%
X131520000Y-111520000D03*
%TO.P,U2,A5,DAT2_A5*%
%TO.N,/DAT2*%
X131020000Y-111520000D03*
%TO.P,U2,A6,VSS_A6*%
%TO.N,GND*%
X130520000Y-111520000D03*
%TO.P,U2,A7,RFU_A7*%
%TO.N,unconnected-(U2-RFU-PadA7)*%
X130020000Y-111520000D03*
%TO.P,U2,A8,NC_A8*%
%TO.N,unconnected-(U2-NC-PadA8)*%
X129520000Y-111520000D03*
%TO.P,U2,A9,NC_A9*%
%TO.N,unconnected-(U2-NC-PadA9)*%
X129020000Y-111520000D03*
%TO.P,U2,A10,NC_A10*%
%TO.N,unconnected-(U2-NC-PadA10)*%
X128520000Y-111520000D03*
%TO.P,U2,A11,NC_A11*%
%TO.N,unconnected-(U2-NC-PadA11)*%
X128020000Y-111520000D03*
%TO.P,U2,A12,NC_A12*%
%TO.N,unconnected-(U2-NC-PadA12)*%
X127520000Y-111520000D03*
%TO.P,U2,A13,NC_A13*%
%TO.N,unconnected-(U2-NC-PadA13)*%
X127020000Y-111520000D03*
%TO.P,U2,A14,NC_A14*%
%TO.N,unconnected-(U2-NC-PadA14)*%
X126520000Y-111520000D03*
%TO.P,U2,B1,NC_B1*%
%TO.N,unconnected-(U2-NC-PadB1)*%
X133020000Y-111020000D03*
%TO.P,U2,B2,DAT3_B2*%
%TO.N,/DAT3*%
X132520000Y-111020000D03*
%TO.P,U2,B3,DAT4_B3*%
%TO.N,/DAT4*%
X132020000Y-111020000D03*
%TO.P,U2,B4,DAT5_B4*%
%TO.N,/DAT5*%
X131520000Y-111020000D03*
%TO.P,U2,B5,DAT6_B5*%
%TO.N,/DAT6*%
X131020000Y-111020000D03*
%TO.P,U2,B6,DAT7_B6*%
%TO.N,/DAT7*%
X130520000Y-111020000D03*
%TO.P,U2,B7,NC_B7*%
%TO.N,unconnected-(U2-NC-PadB7)*%
X130020000Y-111020000D03*
%TO.P,U2,B8,NC_B8*%
%TO.N,unconnected-(U2-NC-PadB8)*%
X129520000Y-111020000D03*
%TO.P,U2,B9,NC_B9*%
%TO.N,unconnected-(U2-NC-PadB9)*%
X129020000Y-111020000D03*
%TO.P,U2,B10,NC_B10*%
%TO.N,unconnected-(U2-NC-PadB10)*%
X128520000Y-111020000D03*
%TO.P,U2,B11,NC_B11*%
%TO.N,unconnected-(U2-NC-PadB11)*%
X128020000Y-111020000D03*
%TO.P,U2,B12,NC_B12*%
%TO.N,unconnected-(U2-NC-PadB12)*%
X127520000Y-111020000D03*
%TO.P,U2,B13,NC_B13*%
%TO.N,unconnected-(U2-NC-PadB13)*%
X127020000Y-111020000D03*
%TO.P,U2,B14,NC_B14*%
%TO.N,unconnected-(U2-NC-PadB14)*%
X126520000Y-111020000D03*
%TO.P,U2,C1,NC_C1*%
%TO.N,unconnected-(U2-NC-PadC1)*%
X133020000Y-110520000D03*
%TO.P,U2,C2,VDDI_C2*%
%TO.N,Net-(U2-VDDI)*%
X132520000Y-110520000D03*
%TO.P,U2,C3,NC_C3*%
%TO.N,unconnected-(U2-NC-PadC3)*%
X132020000Y-110520000D03*
%TO.P,U2,C4,VSS_C4*%
%TO.N,GND*%
X131520000Y-110520000D03*
%TO.P,U2,C5,NC_C5*%
%TO.N,unconnected-(U2-NC-PadC5)*%
X131020000Y-110520000D03*
%TO.P,U2,C6,VDD_C6*%
%TO.N,+3V3*%
X130520000Y-110520000D03*
%TO.P,U2,C7,NC_C7*%
%TO.N,unconnected-(U2-NC-PadC7)*%
X130020000Y-110520000D03*
%TO.P,U2,C8,NC_C8*%
%TO.N,unconnected-(U2-NC-PadC8)*%
X129520000Y-110520000D03*
%TO.P,U2,C9,NC_C9*%
%TO.N,unconnected-(U2-NC-PadC9)*%
X129020000Y-110520000D03*
%TO.P,U2,C10,NC_C10*%
%TO.N,unconnected-(U2-NC-PadC10)*%
X128520000Y-110520000D03*
%TO.P,U2,C11,NC_C11*%
%TO.N,unconnected-(U2-NC-PadC11)*%
X128020000Y-110520000D03*
%TO.P,U2,C12,NC_C12*%
%TO.N,unconnected-(U2-NC-PadC12)*%
X127520000Y-110520000D03*
%TO.P,U2,C13,NC_C13*%
%TO.N,unconnected-(U2-NC-PadC13)*%
X127020000Y-110520000D03*
%TO.P,U2,C14,NC_C14*%
%TO.N,unconnected-(U2-NC-PadC14)*%
X126520000Y-110520000D03*
%TO.P,U2,D1,NC_D1*%
%TO.N,unconnected-(U2-NC-PadD1)*%
X133020000Y-110020000D03*
%TO.P,U2,D2,NC_D2*%
%TO.N,unconnected-(U2-NC-PadD2)*%
X132520000Y-110020000D03*
%TO.P,U2,D3,NC_D3*%
%TO.N,unconnected-(U2-NC-PadD3)*%
X132020000Y-110020000D03*
%TO.P,U2,D4,NC_D4*%
%TO.N,unconnected-(U2-NC-PadD4)*%
X131520000Y-110020000D03*
%TO.P,U2,D12,NC_D12*%
%TO.N,unconnected-(U2-NC-PadD12)*%
X127520000Y-110020000D03*
%TO.P,U2,D13,NC_D13*%
%TO.N,unconnected-(U2-NC-PadD13)*%
X127020000Y-110020000D03*
%TO.P,U2,D14,NC_D14*%
%TO.N,unconnected-(U2-NC-PadD14)*%
X126520000Y-110020000D03*
%TO.P,U2,E1,NC_E1*%
%TO.N,unconnected-(U2-NC-PadE1)*%
X133020000Y-109520000D03*
%TO.P,U2,E2,NC_E2*%
%TO.N,unconnected-(U2-NC-PadE2)*%
X132520000Y-109520000D03*
%TO.P,U2,E3,NC_E3*%
%TO.N,unconnected-(U2-NC-PadE3)*%
X132020000Y-109520000D03*
%TO.P,U2,E5,RFU_E5*%
%TO.N,unconnected-(U2-RFU-PadE5)*%
X131020000Y-109520000D03*
%TO.P,U2,E6,VDDF_E6*%
%TO.N,+3V3*%
X130520000Y-109520000D03*
%TO.P,U2,E7,VSS_E7*%
%TO.N,GND*%
X130020000Y-109520000D03*
%TO.P,U2,E8,RFU_E8*%
%TO.N,unconnected-(U2-RFU-PadE8)*%
X129520000Y-109520000D03*
%TO.P,U2,E9,RFU_E9*%
%TO.N,unconnected-(U2-RFU-PadE9)*%
X129020000Y-109520000D03*
%TO.P,U2,E10,RFU_E10*%
%TO.N,unconnected-(U2-RFU-PadE10)*%
X128520000Y-109520000D03*
%TO.P,U2,E12,NC_E12*%
%TO.N,unconnected-(U2-NC-PadE12)*%
X127520000Y-109520000D03*
%TO.P,U2,E13,NC_E13*%
%TO.N,unconnected-(U2-NC-PadE13)*%
X127020000Y-109520000D03*
%TO.P,U2,E14,NC_E14*%
%TO.N,unconnected-(U2-NC-PadE14)*%
X126520000Y-109520000D03*
%TO.P,U2,F1,NC_F1*%
%TO.N,unconnected-(U2-NC-PadF1)*%
X133020000Y-109020000D03*
%TO.P,U2,F2,NC_F2*%
%TO.N,unconnected-(U2-NC-PadF2)*%
X132520000Y-109020000D03*
%TO.P,U2,F3,NC_F3*%
%TO.N,unconnected-(U2-NC-PadF3)*%
X132020000Y-109020000D03*
%TO.P,U2,F5,VDDF_F5*%
%TO.N,+3V3*%
X131020000Y-109020000D03*
%TO.P,U2,F10,RFU_F10*%
%TO.N,unconnected-(U2-RFU-PadF10)*%
X128520000Y-109020000D03*
%TO.P,U2,F12,NC_F12*%
%TO.N,unconnected-(U2-NC-PadF12)*%
X127520000Y-109020000D03*
%TO.P,U2,F13,NC_F13*%
%TO.N,unconnected-(U2-NC-PadF13)*%
X127020000Y-109020000D03*
%TO.P,U2,F14,NC_F14*%
%TO.N,unconnected-(U2-NC-PadF14)*%
X126520000Y-109020000D03*
%TO.P,U2,G1,NC_G1*%
%TO.N,unconnected-(U2-NC-PadG1)*%
X133020000Y-108520000D03*
%TO.P,U2,G2,NC_G2*%
%TO.N,unconnected-(U2-NC-PadG2)*%
X132520000Y-108520000D03*
%TO.P,U2,G3,RFU_G3*%
%TO.N,unconnected-(U2-RFU-PadG3)*%
X132020000Y-108520000D03*
%TO.P,U2,G5,VSS_G5*%
%TO.N,GND*%
X131020000Y-108520000D03*
%TO.P,U2,G10,RFU_G10*%
%TO.N,unconnected-(U2-RFU-PadG10)*%
X128520000Y-108520000D03*
%TO.P,U2,G12,NC_G12*%
%TO.N,unconnected-(U2-NC-PadG12)*%
X127520000Y-108520000D03*
%TO.P,U2,G13,NC_G13*%
%TO.N,unconnected-(U2-NC-PadG13)*%
X127020000Y-108520000D03*
%TO.P,U2,G14,NC_G14*%
%TO.N,unconnected-(U2-NC-PadG14)*%
X126520000Y-108520000D03*
%TO.P,U2,H1,NC_H1*%
%TO.N,unconnected-(U2-NC-PadH1)*%
X133020000Y-108020000D03*
%TO.P,U2,H2,NC_H2*%
%TO.N,unconnected-(U2-NC-PadH2)*%
X132520000Y-108020000D03*
%TO.P,U2,H3,NC_H3*%
%TO.N,unconnected-(U2-NC-PadH3)*%
X132020000Y-108020000D03*
%TO.P,U2,H5,DataStrobe_H5*%
%TO.N,unconnected-(U2-DataStrobe-PadH5)*%
X131020000Y-108020000D03*
%TO.P,U2,H10,VSS_H10*%
%TO.N,GND*%
X128520000Y-108020000D03*
%TO.P,U2,H12,NC_H12*%
%TO.N,unconnected-(U2-NC-PadH12)*%
X127520000Y-108020000D03*
%TO.P,U2,H13,NC_H13*%
%TO.N,unconnected-(U2-NC-PadH13)*%
X127020000Y-108020000D03*
%TO.P,U2,H14,NC_H14*%
%TO.N,unconnected-(U2-NC-PadH14)*%
X126520000Y-108020000D03*
%TO.P,U2,J1,NC_J1*%
%TO.N,unconnected-(U2-NC-PadJ1)*%
X133020000Y-107520000D03*
%TO.P,U2,J2,NC_J2*%
%TO.N,unconnected-(U2-NC-PadJ2)*%
X132520000Y-107520000D03*
%TO.P,U2,J3,NC_J3*%
%TO.N,unconnected-(U2-NC-PadJ3)*%
X132020000Y-107520000D03*
%TO.P,U2,J5,VSS_J5*%
%TO.N,GND*%
X131020000Y-107520000D03*
%TO.P,U2,J10,VDDF_J10*%
%TO.N,+3V3*%
X128520000Y-107520000D03*
%TO.P,U2,J12,NC_J12*%
%TO.N,unconnected-(U2-NC-PadJ12)*%
X127520000Y-107520000D03*
%TO.P,U2,J13,NC_J13*%
%TO.N,unconnected-(U2-NC-PadJ13)*%
X127020000Y-107520000D03*
%TO.P,U2,J14,NC_J14*%
%TO.N,unconnected-(U2-NC-PadJ14)*%
X126520000Y-107520000D03*
%TO.P,U2,K1,NC_K1*%
%TO.N,unconnected-(U2-NC-PadK1)*%
X133020000Y-107020000D03*
%TO.P,U2,K2,NC_K2*%
%TO.N,unconnected-(U2-NC-PadK2)*%
X132520000Y-107020000D03*
%TO.P,U2,K3,NC_K3*%
%TO.N,unconnected-(U2-NC-PadK3)*%
X132020000Y-107020000D03*
%TO.P,U2,K5,RSTN_K5*%
%TO.N,/RST*%
X131020000Y-107020000D03*
%TO.P,U2,K6,RFU_K6*%
%TO.N,unconnected-(U2-RFU-PadK6)*%
X130520000Y-107020000D03*
%TO.P,U2,K7,RFU_K7*%
%TO.N,unconnected-(U2-RFU-PadK7)*%
X130020000Y-107020000D03*
%TO.P,U2,K8,VSS_K8*%
%TO.N,GND*%
X129520000Y-107020000D03*
%TO.P,U2,K9,VDDF_K9*%
%TO.N,+3V3*%
X129020000Y-107020000D03*
%TO.P,U2,K10,RFU_K10*%
%TO.N,unconnected-(U2-RFU-PadK10)*%
X128520000Y-107020000D03*
%TO.P,U2,K12,NC_K12*%
%TO.N,unconnected-(U2-NC-PadK12)*%
X127520000Y-107020000D03*
%TO.P,U2,K13,NC_K13*%
%TO.N,unconnected-(U2-NC-PadK13)*%
X127020000Y-107020000D03*
%TO.P,U2,K14,NC_K14*%
%TO.N,unconnected-(U2-NC-PadK14)*%
X126520000Y-107020000D03*
%TO.P,U2,L1,NC_L1*%
%TO.N,unconnected-(U2-NC-PadL1)*%
X133020000Y-106520000D03*
%TO.P,U2,L2,NC_L2*%
%TO.N,unconnected-(U2-NC-PadL2)*%
X132520000Y-106520000D03*
%TO.P,U2,L3,NC_L3*%
%TO.N,unconnected-(U2-NC-PadL3)*%
X132020000Y-106520000D03*
%TO.P,U2,L12,NC_L12*%
%TO.N,unconnected-(U2-NC-PadL12)*%
X127520000Y-106520000D03*
%TO.P,U2,L13,NC_L13*%
%TO.N,unconnected-(U2-NC-PadL13)*%
X127020000Y-106520000D03*
%TO.P,U2,L14,NC_L14*%
%TO.N,unconnected-(U2-NC-PadL14)*%
X126520000Y-106520000D03*
%TO.P,U2,M1,NC_M1*%
%TO.N,unconnected-(U2-NC-PadM1)*%
X133020000Y-106020000D03*
%TO.P,U2,M2,NC_M2*%
%TO.N,unconnected-(U2-NC-PadM2)*%
X132520000Y-106020000D03*
%TO.P,U2,M3,NC_M3*%
%TO.N,unconnected-(U2-NC-PadM3)*%
X132020000Y-106020000D03*
%TO.P,U2,M4,VDD_M4*%
%TO.N,+3V3*%
X131520000Y-106020000D03*
%TO.P,U2,M5,CMD_M5*%
%TO.N,/CMD*%
X131020000Y-106020000D03*
%TO.P,U2,M6,CLK_M6*%
%TO.N,/CLK*%
X130520000Y-106020000D03*
%TO.P,U2,M7,NC_M7*%
%TO.N,unconnected-(U2-NC-PadM7)*%
X130020000Y-106020000D03*
%TO.P,U2,M8,NC_M8*%
%TO.N,unconnected-(U2-NC-PadM8)*%
X129520000Y-106020000D03*
%TO.P,U2,M9,NC_M9*%
%TO.N,unconnected-(U2-NC-PadM9)*%
X129020000Y-106020000D03*
%TO.P,U2,M10,NC_M10*%
%TO.N,unconnected-(U2-NC-PadM10)*%
X128520000Y-106020000D03*
%TO.P,U2,M11,NC_M11*%
%TO.N,unconnected-(U2-NC-PadM11)*%
X128020000Y-106020000D03*
%TO.P,U2,M12,NC_M12*%
%TO.N,unconnected-(U2-NC-PadM12)*%
X127520000Y-106020000D03*
%TO.P,U2,M13,NC_M13*%
%TO.N,unconnected-(U2-NC-PadM13)*%
X127020000Y-106020000D03*
%TO.P,U2,M14,NC_M14*%
%TO.N,unconnected-(U2-NC-PadM14)*%
X126520000Y-106020000D03*
%TO.P,U2,N1,NC_N1*%
%TO.N,unconnected-(U2-NC-PadN1)*%
X133020000Y-105520000D03*
%TO.P,U2,N2,VSS_N2*%
%TO.N,GND*%
X132520000Y-105520000D03*
%TO.P,U2,N3,NC_N3*%
%TO.N,unconnected-(U2-NC-PadN3)*%
X132020000Y-105520000D03*
%TO.P,U2,N4,VDD_N4*%
%TO.N,+3V3*%
X131520000Y-105520000D03*
%TO.P,U2,N5,VSS_N5*%
%TO.N,GND*%
X131020000Y-105520000D03*
%TO.P,U2,N6,NC_N6*%
%TO.N,unconnected-(U2-NC-PadN6)*%
X130520000Y-105520000D03*
%TO.P,U2,N7,NC_N7*%
%TO.N,unconnected-(U2-NC-PadN7)*%
X130020000Y-105520000D03*
%TO.P,U2,N8,NC_N8*%
%TO.N,unconnected-(U2-NC-PadN8)*%
X129520000Y-105520000D03*
%TO.P,U2,N9,NC_N9*%
%TO.N,unconnected-(U2-NC-PadN9)*%
X129020000Y-105520000D03*
%TO.P,U2,N10,NC_N10*%
%TO.N,unconnected-(U2-NC-PadN10)*%
X128520000Y-105520000D03*
%TO.P,U2,N11,NC_N11*%
%TO.N,unconnected-(U2-NC-PadN11)*%
X128020000Y-105520000D03*
%TO.P,U2,N12,NC_N12*%
%TO.N,unconnected-(U2-NC-PadN12)*%
X127520000Y-105520000D03*
%TO.P,U2,N13,NC_N13*%
%TO.N,unconnected-(U2-NC-PadN13)*%
X127020000Y-105520000D03*
%TO.P,U2,N14,NC_N14*%
%TO.N,unconnected-(U2-NC-PadN14)*%
X126520000Y-105520000D03*
%TO.P,U2,P1,NC_P1*%
%TO.N,unconnected-(U2-NC-PadP1)*%
X133020000Y-105020000D03*
%TO.P,U2,P2,NC_P2*%
%TO.N,unconnected-(U2-NC-PadP2)*%
X132520000Y-105020000D03*
%TO.P,U2,P3,VDD_P3*%
%TO.N,+3V3*%
X132020000Y-105020000D03*
%TO.P,U2,P4,VSS_P4*%
%TO.N,GND*%
X131520000Y-105020000D03*
%TO.P,U2,P5,VDD_P5*%
%TO.N,+3V3*%
X131020000Y-105020000D03*
%TO.P,U2,P6,VSS_P6*%
%TO.N,GND*%
X130520000Y-105020000D03*
%TO.P,U2,P7,RFU_P7*%
%TO.N,unconnected-(U2-RFU-PadP7)*%
X130020000Y-105020000D03*
%TO.P,U2,P8,NC_P8*%
%TO.N,unconnected-(U2-NC-PadP8)*%
X129520000Y-105020000D03*
%TO.P,U2,P9,NC_P9*%
%TO.N,unconnected-(U2-NC-PadP9)*%
X129020000Y-105020000D03*
%TO.P,U2,P10,RFU_P10*%
%TO.N,unconnected-(U2-RFU-PadP10)*%
X128520000Y-105020000D03*
%TO.P,U2,P11,NC_P11*%
%TO.N,unconnected-(U2-NC-PadP11)*%
X128020000Y-105020000D03*
%TO.P,U2,P12,NC_P12*%
%TO.N,unconnected-(U2-NC-PadP12)*%
X127520000Y-105020000D03*
%TO.P,U2,P13,NC_P13*%
%TO.N,unconnected-(U2-NC-PadP13)*%
X127020000Y-105020000D03*
%TO.P,U2,P14,NC_P14*%
%TO.N,unconnected-(U2-NC-PadP14)*%
X126520000Y-105020000D03*
%TD*%
D19*
%TO.P,C7,1*%
%TO.N,+1V2*%
X143985286Y-103001822D03*
%TO.P,C7,2*%
%TO.N,GND*%
X143985286Y-101451822D03*
%TD*%
D21*
%TO.P,C9,1*%
%TO.N,+3V3*%
X143035000Y-105430000D03*
%TO.P,C9,2*%
%TO.N,GND*%
X141485000Y-105430000D03*
%TD*%
D19*
%TO.P,C4,1*%
%TO.N,+1V2*%
X148167161Y-103001822D03*
%TO.P,C4,2*%
%TO.N,GND*%
X148167161Y-101451822D03*
%TD*%
%TO.P,C13,1*%
%TO.N,+3V3*%
X137150000Y-103465000D03*
%TO.P,C13,2*%
%TO.N,GND*%
X137150000Y-101915000D03*
%TD*%
D22*
%TO.P,Y1,1,1_1*%
%TO.N,Net-(U1-XI)*%
X156698152Y-104391959D03*
%TO.P,Y1,2,G_2*%
%TO.N,GND*%
X154498152Y-104391959D03*
%TO.P,Y1,3,3_3*%
%TO.N,Net-(U1-XO)*%
X154498152Y-106091959D03*
%TO.P,Y1,4,G_4*%
%TO.N,GND*%
X156698152Y-106091959D03*
%TD*%
D19*
%TO.P,C14,1*%
%TO.N,+3V3*%
X138780000Y-103490000D03*
%TO.P,C14,2*%
%TO.N,GND*%
X138780000Y-101940000D03*
%TD*%
D23*
%TO.P,R4,1*%
%TO.N,/D-*%
X152580697Y-101845821D03*
%TO.P,R4,2*%
%TO.N,Net-(J1-D--PadA7)*%
X152580697Y-100195821D03*
%TD*%
D11*
%TO.P,C25,1*%
%TO.N,+3V3*%
X111320000Y-107120000D03*
%TO.P,C25,2*%
%TO.N,GND*%
X112870000Y-107120000D03*
%TD*%
%TO.P,C12,1*%
%TO.N,GND*%
X140935000Y-103810000D03*
%TO.P,C12,2*%
%TO.N,+1V2*%
X142485000Y-103810000D03*
%TD*%
D24*
%TO.P,U4,1,VIN_1*%
%TO.N,+5V*%
X107820000Y-108095000D03*
%TO.P,U4,2,GND_2*%
%TO.N,GND*%
X108770000Y-108095000D03*
%TO.P,U4,3,EN_3*%
%TO.N,+5V*%
X109720000Y-108095000D03*
%TO.P,U4,4,NC_4*%
%TO.N,unconnected-(U4-NC-Pad4)*%
X109720000Y-105820000D03*
%TO.P,U4,5,VOUT_5*%
%TO.N,+3V3*%
X107820000Y-105820000D03*
%TD*%
D11*
%TO.P,C24,1*%
%TO.N,+5V*%
X111185000Y-108750000D03*
%TO.P,C24,2*%
%TO.N,GND*%
X112735000Y-108750000D03*
%TD*%
%TO.P,C27,1*%
%TO.N,+1V2*%
X111305000Y-102800000D03*
%TO.P,C27,2*%
%TO.N,GND*%
X112855000Y-102800000D03*
%TD*%
%TO.P,C20,1*%
%TO.N,+3V3*%
X136817852Y-108784532D03*
%TO.P,C20,2*%
%TO.N,GND*%
X138367852Y-108784532D03*
%TD*%
%TO.P,C10,1*%
%TO.N,+3V3*%
X155199075Y-102456387D03*
%TO.P,C10,2*%
%TO.N,GND*%
X156749075Y-102456387D03*
%TD*%
D21*
%TO.P,C16,1*%
%TO.N,GND*%
X138367852Y-110688850D03*
%TO.P,C16,2*%
%TO.N,Net-(U2-VDDI)*%
X136817852Y-110688850D03*
%TD*%
D23*
%TO.P,R3,1*%
%TO.N,/D+*%
X150765097Y-101845821D03*
%TO.P,R3,2*%
%TO.N,Net-(J1-D+-PadA6)*%
X150765097Y-100195821D03*
%TD*%
D21*
%TO.P,C19,1*%
%TO.N,+3V3*%
X122781915Y-105519986D03*
%TO.P,C19,2*%
%TO.N,GND*%
X121231915Y-105519986D03*
%TD*%
D12*
%TO.P,C17,1*%
%TO.N,+3V3*%
X128913165Y-115964986D03*
%TO.P,C17,2*%
%TO.N,GND*%
X128913165Y-117514986D03*
%TD*%
%TO.P,C18,1*%
%TO.N,+3V3*%
X130827227Y-115964986D03*
%TO.P,C18,2*%
%TO.N,GND*%
X130827227Y-117514986D03*
%TD*%
D11*
%TO.P,C8,1*%
%TO.N,+3V3*%
X157551380Y-110002691D03*
%TO.P,C8,2*%
%TO.N,GND*%
X159101380Y-110002691D03*
%TD*%
D24*
%TO.P,U5,1,IN_1*%
%TO.N,+5V*%
X107830000Y-103685000D03*
%TO.P,U5,2,GND_2*%
%TO.N,GND*%
X108780000Y-103685000D03*
%TO.P,U5,3,EN_3*%
%TO.N,+5V*%
X109730000Y-103685000D03*
%TO.P,U5,4,NC_4*%
%TO.N,unconnected-(U5-NC-Pad4)*%
X109730000Y-101410000D03*
%TO.P,U5,5,OUT_5*%
%TO.N,+1V2*%
X107830000Y-101410000D03*
%TD*%
D11*
%TO.P,C1,1*%
%TO.N,+3V3*%
X154153606Y-113645735D03*
%TO.P,C1,2*%
%TO.N,GND*%
X155703606Y-113645735D03*
%TD*%
D25*
%TO.P,R1,1*%
%TO.N,Net-(J1-CC1)*%
X110628450Y-113397345D03*
%TO.P,R1,2*%
%TO.N,GND*%
X112278450Y-113397345D03*
%TD*%
D26*
%TO.P,U1,1,UD+_1*%
%TO.N,/D+*%
X151838152Y-104581959D03*
%TO.P,U1,2,UD-_2*%
%TO.N,/D-*%
X151438152Y-104581959D03*
%TO.P,U1,3,V33USB_3*%
%TO.N,+3V3*%
X151038152Y-104581959D03*
%TO.P,U1,4,SSTXA_4*%
%TO.N,unconnected-(U1-SSTXA-Pad4)*%
X150638152Y-104581959D03*
%TO.P,U1,5,SSTXB_5*%
%TO.N,unconnected-(U1-SSTXB-Pad5)*%
X150238152Y-104581959D03*
%TO.P,U1,6,V12USB_6*%
%TO.N,+1V2*%
X149838152Y-104581959D03*
%TO.P,U1,7,SSRXA_7*%
%TO.N,unconnected-(U1-SSRXA-Pad7)*%
X149438152Y-104581959D03*
%TO.P,U1,8,SSRXB_8*%
%TO.N,unconnected-(U1-SSRXB-Pad8)*%
X149038152Y-104581959D03*
%TO.P,U1,9,V12CORE_9*%
%TO.N,+1V2*%
X148638152Y-104581959D03*
%TO.P,U1,10,PA19_10*%
%TO.N,unconnected-(U1-PA19-Pad10)*%
X148238152Y-104581959D03*
%TO.P,U1,11,PA18_11*%
%TO.N,unconnected-(U1-PA18-Pad11)*%
X147838152Y-104581959D03*
%TO.P,U1,12,PA8_12*%
%TO.N,unconnected-(U1-PA8-Pad12)*%
X147438152Y-104581959D03*
%TO.P,U1,13,PA7_13*%
%TO.N,unconnected-(U1-PA7-Pad13)*%
X147038152Y-104581959D03*
%TO.P,U1,14,PA6_14*%
%TO.N,unconnected-(U1-PA6-Pad14)*%
X146638152Y-104581959D03*
%TO.P,U1,15,PA5_15*%
%TO.N,unconnected-(U1-PA5-Pad15)*%
X146238152Y-104581959D03*
%TO.P,U1,16,VDDIO_16*%
%TO.N,+3V3*%
X145838152Y-104581959D03*
%TO.P,U1,17,PA4_17*%
%TO.N,unconnected-(U1-PA4-Pad17)*%
X145438152Y-104581959D03*
D27*
%TO.P,U1,18,PA23_18*%
%TO.N,unconnected-(U1-PA23-Pad18)*%
X144688152Y-105331959D03*
%TO.P,U1,19,PA3_19*%
%TO.N,unconnected-(U1-PA3-Pad19)*%
X144688152Y-105731959D03*
%TO.P,U1,20,PA2_20*%
%TO.N,/DAT7*%
X144688152Y-106131959D03*
%TO.P,U1,21,PA1_21*%
%TO.N,/DAT6*%
X144688152Y-106531959D03*
%TO.P,U1,22,PA0_22*%
%TO.N,/DAT5*%
X144688152Y-106931959D03*
%TO.P,U1,23,PB21_23*%
%TO.N,/DAT4*%
X144688152Y-107331959D03*
%TO.P,U1,24,PB20_24*%
%TO.N,/DAT3*%
X144688152Y-107731959D03*
%TO.P,U1,25,PB19_25*%
%TO.N,/DAT2*%
X144688152Y-108131959D03*
%TO.P,U1,26,PB18_26*%
%TO.N,/DAT1*%
X144688152Y-108531959D03*
%TO.P,U1,27,PB17_27*%
%TO.N,/DAT0*%
X144688152Y-108931959D03*
%TO.P,U1,28,PA17_28*%
%TO.N,unconnected-(U1-PA17-Pad28)*%
X144688152Y-109331959D03*
%TO.P,U1,29,PB16_29*%
%TO.N,/CMD*%
X144688152Y-109731959D03*
%TO.P,U1,30,PB15_30*%
%TO.N,/RST*%
X144688152Y-110131959D03*
%TO.P,U1,31,PB14_31*%
%TO.N,/CLK*%
X144688152Y-110531959D03*
%TO.P,U1,32,PB0_32*%
%TO.N,unconnected-(U1-PB0-Pad32)*%
X144688152Y-110931959D03*
%TO.P,U1,33,PB1_33*%
%TO.N,unconnected-(U1-PB1-Pad33)*%
X144688152Y-111331959D03*
%TO.P,U1,34,PB2_34*%
%TO.N,unconnected-(U1-PB2-Pad34)*%
X144688152Y-111731959D03*
D26*
%TO.P,U1,35,PA20_35*%
%TO.N,Net-(J4-Pin_7)*%
X145438152Y-112481959D03*
%TO.P,U1,36,PB3_36*%
%TO.N,Net-(J4-Pin_6)*%
X145838152Y-112481959D03*
%TO.P,U1,37,PB4_37*%
%TO.N,Net-(J4-Pin_5)*%
X146238152Y-112481959D03*
%TO.P,U1,38,PB5_38*%
%TO.N,Net-(J4-Pin_4)*%
X146638152Y-112481959D03*
%TO.P,U1,39,PB6_39*%
%TO.N,Net-(J4-Pin_3)*%
X147038152Y-112481959D03*
%TO.P,U1,40,PA16_40*%
%TO.N,Net-(J4-Pin_2)*%
X147438152Y-112481959D03*
%TO.P,U1,41,PB7_41*%
%TO.N,Net-(J4-Pin_1)*%
X147838152Y-112481959D03*
%TO.P,U1,42,VDDIO_42*%
%TO.N,+3V3*%
X148238152Y-112481959D03*
%TO.P,U1,43,PB8_43*%
%TO.N,Net-(J3-Pin_18)*%
X148638152Y-112481959D03*
%TO.P,U1,44,PB9_44*%
%TO.N,Net-(J3-Pin_16)*%
X149038152Y-112481959D03*
%TO.P,U1,45,PB22_45*%
%TO.N,Net-(J3-Pin_14)*%
X149438152Y-112481959D03*
%TO.P,U1,46,PB10_46*%
%TO.N,Net-(J3-Pin_12)*%
X149838152Y-112481959D03*
%TO.P,U1,47,PB23_47*%
%TO.N,Net-(J3-Pin_10)*%
X150238152Y-112481959D03*
%TO.P,U1,48,PB11_48*%
%TO.N,Net-(J3-Pin_8)*%
X150638152Y-112481959D03*
%TO.P,U1,49,PB24_49*%
%TO.N,Net-(J3-Pin_6)*%
X151038152Y-112481959D03*
%TO.P,U1,50,PB12_50*%
%TO.N,Net-(J3-Pin_4)*%
X151438152Y-112481959D03*
%TO.P,U1,51,PB13_51*%
%TO.N,Net-(J3-Pin_2)*%
X151838152Y-112481959D03*
D27*
%TO.P,U1,52,PA21_52*%
%TO.N,Net-(J3-Pin_17)*%
X152588152Y-111731959D03*
%TO.P,U1,53,PA22_53*%
%TO.N,Net-(J3-Pin_15)*%
X152588152Y-111331959D03*
%TO.P,U1,54,PA9_54*%
%TO.N,Net-(J3-Pin_13)*%
X152588152Y-110931959D03*
%TO.P,U1,55,PA10_55*%
%TO.N,Net-(J3-Pin_11)*%
X152588152Y-110531959D03*
%TO.P,U1,56,PA11_56*%
%TO.N,Net-(J3-Pin_9)*%
X152588152Y-110131959D03*
%TO.P,U1,57,PA12_57*%
%TO.N,Net-(J3-Pin_7)*%
X152588152Y-109731959D03*
%TO.P,U1,58,PA13_58*%
%TO.N,Net-(J3-Pin_5)*%
X152588152Y-109331959D03*
%TO.P,U1,59,PA14_59*%
%TO.N,Net-(J3-Pin_3)*%
X152588152Y-108931959D03*
%TO.P,U1,60,PA15_60*%
%TO.N,Net-(J3-Pin_1)*%
X152588152Y-108531959D03*
%TO.P,U1,61,VDDIO_61*%
%TO.N,+3V3*%
X152588152Y-108131959D03*
%TO.P,U1,62,V33LDO_62*%
X152588152Y-107731959D03*
%TO.P,U1,63,V12CORE_63*%
%TO.N,+1V2*%
X152588152Y-107331959D03*
%TO.P,U1,64,V33GX_64*%
%TO.N,+3V3*%
X152588152Y-106931959D03*
%TO.P,U1,65,GXM_65*%
%TO.N,Net-(J2-Pin_2)*%
X152588152Y-106531959D03*
%TO.P,U1,66,GXP_66*%
%TO.N,Net-(J2-Pin_1)*%
X152588152Y-106131959D03*
%TO.P,U1,67,XO_67*%
%TO.N,Net-(U1-XO)*%
X152588152Y-105731959D03*
%TO.P,U1,68,XI_68*%
%TO.N,Net-(U1-XI)*%
X152588152Y-105331959D03*
D28*
%TO.P,U1,69,GND_69*%
%TO.N,GND*%
X148638152Y-108531959D03*
%TD*%
D11*
%TO.P,C26,1*%
%TO.N,+5V*%
X111220000Y-104400000D03*
%TO.P,C26,2*%
%TO.N,GND*%
X112770000Y-104400000D03*
%TD*%
D17*
%TO.P,J2,1,Pin_1_1*%
%TO.N,Net-(J2-Pin_1)*%
X101830000Y-106455000D03*
D18*
%TO.P,J2,2,Pin_2_2*%
%TO.N,Net-(J2-Pin_2)*%
X101830000Y-103915000D03*
%TD*%
D19*
%TO.P,C11,1*%
%TO.N,GND*%
X148167161Y-115752474D03*
%TO.P,C11,2*%
%TO.N,+3V3*%
X148167161Y-114202474D03*
%TD*%
D21*
%TO.P,C15,1*%
%TO.N,+3V3*%
X122781915Y-107424304D03*
%TO.P,C15,2*%
%TO.N,GND*%
X121231915Y-107424304D03*
%TD*%
D29*
%TO.N,GND*%
X131241022Y-118289200D03*
X140020000Y-103810000D03*
X112156469Y-117177303D03*
X140500000Y-105680000D03*
X121304712Y-106645728D03*
X130010000Y-108980000D03*
X153277525Y-104392383D03*
X130608000Y-108546434D03*
X139750000Y-101940000D03*
X158750000Y-101900000D03*
X138064315Y-109575805D03*
X156690000Y-101530000D03*
X112567050Y-105188272D03*
X130799974Y-104599975D03*
X143207441Y-101335980D03*
X130401292Y-107700753D03*
X155670000Y-106110000D03*
X154550000Y-110160000D03*
X129041780Y-118277707D03*
X156833293Y-114107846D03*
X108770000Y-109190000D03*
X132523871Y-118278292D03*
X139105940Y-105478083D03*
X158320117Y-109964087D03*
X147520000Y-102010000D03*
D30*
X133446090Y-106159318D03*
D29*
X130398566Y-112388566D03*
X156770000Y-111910000D03*
X131125000Y-110125000D03*
X108977377Y-102707316D03*
X114090521Y-107149936D03*
X145608167Y-109956229D03*
X147409412Y-116131201D03*
X160000041Y-108140000D03*
X132163929Y-104612435D03*
X129465033Y-107466838D03*
X139150780Y-110818336D03*
X113670000Y-108760000D03*
X112217975Y-112638716D03*
X129030000Y-108060000D03*
X113679993Y-102832700D03*
X120496577Y-105502735D03*
%TO.N,+1V2*%
X111059816Y-101985567D03*
X144766040Y-104280086D03*
X107242025Y-101464044D03*
X153350633Y-111524507D03*
%TO.N,+3V3*%
X130050000Y-110050000D03*
X128094908Y-109730933D03*
X126010000Y-109760000D03*
X130830000Y-112250000D03*
X134380000Y-105620000D03*
X133540000Y-108790000D03*
X136520736Y-104529264D03*
X148230000Y-111680000D03*
X131530000Y-108860000D03*
X152330000Y-112263478D03*
%TO.N,Net-(J1-D+-PadA6)*%
X113670399Y-114789875D03*
X149439846Y-100763799D03*
%TO.N,Net-(U1-XI)*%
X158440000Y-103590000D03*
X157660000Y-104390000D03*
%TO.N,Net-(J3-Pin_1)*%
X153510000Y-109130000D03*
%TO.N,Net-(J3-Pin_2)*%
X152361531Y-113584723D03*
%TO.N,Net-(J3-Pin_3)*%
X151858103Y-108580000D03*
%TO.N,Net-(J3-Pin_4)*%
X151556227Y-113230752D03*
%TO.N,Net-(J3-Pin_5)*%
X153876543Y-110759292D03*
%TO.N,Net-(J3-Pin_6)*%
X151275522Y-113632978D03*
%TO.N,Net-(J3-Pin_7)*%
X151883998Y-109260000D03*
X161060000Y-105100000D03*
%TO.N,Net-(J3-Pin_8)*%
X153162778Y-113703450D03*
%TO.N,Net-(J3-Pin_9)*%
X154920129Y-112277497D03*
%TO.N,Net-(J3-Pin_10)*%
X151152113Y-114294113D03*
%TO.N,Net-(J3-Pin_11)*%
X151883998Y-110140000D03*
X160160000Y-109830000D03*
X158710000Y-111060000D03*
X161690000Y-109550000D03*
%TO.N,Net-(J3-Pin_12)*%
X149867239Y-113240499D03*
%TO.N,Net-(J3-Pin_13)*%
X151905454Y-110903127D03*
X157770000Y-112470000D03*
X161380000Y-111300000D03*
%TO.N,Net-(J3-Pin_14)*%
X152090976Y-115033148D03*
%TO.N,Net-(J3-Pin_15)*%
X151782600Y-111565077D03*
%TO.N,Net-(J3-Pin_16)*%
X149100773Y-113220378D03*
%TO.N,Net-(J3-Pin_17)*%
X152948791Y-112048791D03*
%TO.N,Net-(J3-Pin_18)*%
X149925029Y-114353423D03*
%TO.N,Net-(J4-Pin_1)*%
X147746923Y-113281200D03*
%TO.N,Net-(J4-Pin_2)*%
X145028233Y-114450004D03*
%TO.N,Net-(J4-Pin_3)*%
X144970000Y-112170000D03*
X122186084Y-100869317D03*
X147040000Y-111770000D03*
%TO.N,Net-(J4-Pin_4)*%
X140336749Y-115619226D03*
%TO.N,Net-(J4-Pin_5)*%
X142514822Y-115425912D03*
%TO.N,Net-(J4-Pin_6)*%
X129562682Y-102679614D03*
%TO.N,Net-(J4-Pin_7)*%
X137449566Y-107557491D03*
%TO.N,/DAT0*%
X143546396Y-108909612D03*
X137736567Y-113289225D03*
%TO.N,/DAT1*%
X136699237Y-114192707D03*
X143348339Y-108468367D03*
%TO.N,/DAT2*%
X143946409Y-107978857D03*
X135788560Y-114381752D03*
D30*
%TO.N,/DAT3*%
X139724046Y-111335796D03*
D29*
X136977910Y-111445269D03*
D30*
X141987795Y-110033698D03*
D29*
X143761510Y-107438199D03*
%TO.N,/DAT4*%
X135170000Y-109951367D03*
X140191732Y-107293182D03*
%TO.N,/DAT5*%
X135011491Y-111673805D03*
D30*
X141365219Y-113156439D03*
D29*
X145401622Y-107930344D03*
%TO.N,/DAT6*%
X133434325Y-109654275D03*
D30*
X140419717Y-108468347D03*
D29*
X137546758Y-106669117D03*
%TO.N,/DAT7*%
X130066300Y-111926662D03*
X138078060Y-106507494D03*
%TO.N,/RST*%
X134693753Y-106663758D03*
X131550000Y-107020000D03*
X141169625Y-107162661D03*
%TO.N,/CMD*%
X131670000Y-104380000D03*
X130741666Y-106411666D03*
X142349425Y-108371300D03*
X133600201Y-103988303D03*
%TO.N,/CLK*%
X130180000Y-104580000D03*
X131878058Y-103599873D03*
X135425264Y-104571416D03*
X129830000Y-106400000D03*
%TO.N,/D-*%
X151580844Y-103619434D03*
X151789306Y-101697674D03*
%TO.N,/D+*%
X151496765Y-101295020D03*
X152123421Y-103896056D03*
%TO.N,Net-(J2-Pin_2)*%
X153395751Y-106714170D03*
%TO.N,Net-(J2-Pin_1)*%
X153352227Y-106226936D03*
%TD*%
%TO.N,GND*%
D31*
X147450000Y-101482528D02*
X147480706Y-101451822D01*
X147450000Y-101940000D02*
X147450000Y-101482528D01*
X113531454Y-107120000D02*
X113321428Y-107120000D01*
X156269525Y-111824213D02*
X155703606Y-111824213D01*
X138914664Y-110688850D02*
X139021294Y-110688850D01*
X155670000Y-106110000D02*
X155768496Y-106110000D01*
D32*
X132770897Y-105770000D02*
X133146000Y-105770000D01*
X132761300Y-105779597D02*
X132770897Y-105770000D01*
D31*
X112278450Y-113397345D02*
X112278450Y-112921075D01*
X132741290Y-117966414D02*
X132741290Y-118138226D01*
X130827227Y-117514986D02*
X131241022Y-117514986D01*
X147409412Y-116131201D02*
X147123799Y-116131201D01*
X113647293Y-102800000D02*
X113679993Y-102832700D01*
X156355312Y-111910000D02*
X156269525Y-111824213D01*
X158890000Y-102040000D02*
X158750000Y-101900000D01*
X112278450Y-112749263D02*
X112278450Y-112699191D01*
X106033000Y-118191000D02*
X105960172Y-118323234D01*
X143508857Y-101451822D02*
X143985286Y-101451822D01*
X138780000Y-101940000D02*
X139750000Y-101940000D01*
X108977377Y-102709677D02*
X108977377Y-102707316D01*
X112567050Y-105174762D02*
X112567050Y-105188272D01*
X141485000Y-105430000D02*
X140750000Y-105430000D01*
X108780000Y-103685000D02*
X108780000Y-103021544D01*
X156770000Y-111910000D02*
X156355312Y-111910000D01*
X138367852Y-109260960D02*
X138367852Y-109394558D01*
X114060585Y-107120000D02*
X113531454Y-107120000D01*
X106154019Y-111239524D02*
X106033038Y-111089048D01*
X148638152Y-109956229D02*
X145608167Y-109956229D01*
X131125000Y-110125000D02*
X131520000Y-110520000D01*
X112278450Y-112699191D02*
X112217975Y-112638716D01*
D32*
X132609000Y-105609000D02*
X132761300Y-105779597D01*
D31*
X112278450Y-112921075D02*
X112278450Y-112749263D01*
D32*
X133146000Y-105770000D02*
X133446090Y-106070090D01*
D33*
X131020000Y-105520000D02*
X130520000Y-105020000D01*
D32*
X132520000Y-105520000D02*
X132564474Y-105564474D01*
D31*
X113321428Y-107120000D02*
X112870000Y-107120000D01*
X112278450Y-116866115D02*
X112278450Y-116389845D01*
X105360000Y-118323234D02*
X105360000Y-118456831D01*
X113660000Y-108750000D02*
X113670000Y-108760000D01*
X130661528Y-104599975D02*
X130520000Y-104741503D01*
D32*
X132608949Y-105608949D02*
X132609000Y-105609000D01*
D31*
X158320117Y-109964087D02*
X158358721Y-110002691D01*
X121231915Y-106718525D02*
X121231915Y-106776064D01*
X132520000Y-105520000D02*
X132564474Y-105564474D01*
X138755000Y-101915000D02*
X138780000Y-101940000D01*
X106033000Y-111089000D02*
X105960172Y-110956766D01*
X143323283Y-101451822D02*
X143413474Y-101451822D01*
X130520000Y-112267132D02*
X130520000Y-111520000D01*
X130722396Y-107520000D02*
X130894208Y-107520000D01*
X113306428Y-102800000D02*
X113516454Y-102800000D01*
X155768496Y-106110000D02*
X155786537Y-106091959D01*
X112770000Y-104400000D02*
X112770000Y-104876428D01*
X147520000Y-102010000D02*
X147450000Y-101940000D01*
X105960172Y-110956766D02*
X105360000Y-110956766D01*
X153277525Y-104392383D02*
X153277949Y-104391959D01*
X156749075Y-101689815D02*
X156749075Y-102456387D01*
X156827172Y-114107846D02*
X156833293Y-114107846D01*
X153277949Y-104391959D02*
X153586537Y-104391959D01*
X121304712Y-106645728D02*
X121231915Y-106718525D01*
X130401292Y-107700753D02*
X130582044Y-107520000D01*
X121231915Y-106947876D02*
X121231915Y-107424304D01*
X112855000Y-102800000D02*
X113306428Y-102800000D01*
X137150000Y-101915000D02*
X138755000Y-101915000D01*
X129520000Y-107145792D02*
X129520000Y-107260283D01*
X130799974Y-104599975D02*
X130661528Y-104599975D01*
X120513828Y-105519986D02*
X120496577Y-105502735D01*
X112770000Y-104876428D02*
X112770000Y-104971812D01*
X131241022Y-117514986D02*
X131241022Y-118289200D01*
X155786537Y-106091959D02*
X156698152Y-106091959D01*
X108780000Y-102907054D02*
X108977377Y-102709677D01*
X130582044Y-107520000D02*
X130722396Y-107520000D01*
X132741290Y-117514986D02*
X132741290Y-117966414D01*
X128560000Y-108060000D02*
X128520000Y-108020000D01*
X112770000Y-104971812D02*
X112567050Y-105174762D01*
X105360000Y-118456831D02*
X105360000Y-118960000D01*
X139064036Y-105519986D02*
X138933771Y-105519986D01*
X130398566Y-112388566D02*
X130520000Y-112267132D01*
X120570461Y-105519986D02*
X120513828Y-105519986D01*
X131520000Y-105020000D02*
X131927565Y-104612435D01*
X130634434Y-108520000D02*
X130608000Y-108546434D01*
X129520000Y-107020000D02*
X129520000Y-107145792D01*
X129520000Y-107260283D02*
X129520000Y-107411871D01*
X158890000Y-102835000D02*
X158890000Y-102040000D01*
X138819280Y-105519986D02*
X138367852Y-105519986D01*
X129030000Y-108060000D02*
X128560000Y-108060000D01*
X153586537Y-104391959D02*
X153796563Y-104391959D01*
X121231915Y-106776064D02*
X121231915Y-106947876D01*
X160000041Y-108140000D02*
X159958871Y-108181170D01*
X132741290Y-118138226D02*
X132601224Y-118278292D01*
D32*
X133446090Y-106070090D02*
X133446090Y-106159318D01*
D31*
X128913165Y-118138226D02*
X128913165Y-117966414D01*
X112735000Y-108750000D02*
X113660000Y-108750000D01*
X156690000Y-101630740D02*
X156749075Y-101689815D01*
X139021294Y-110688850D02*
X139150780Y-110818336D01*
X128913165Y-117966414D02*
X128913165Y-117514986D01*
X112278450Y-116961499D02*
X112278450Y-116866115D01*
X112735000Y-108750000D02*
X112735000Y-108775000D01*
X120780487Y-105519986D02*
X120570461Y-105519986D01*
X113516454Y-102800000D02*
X113647293Y-102800000D01*
X106275000Y-111390000D02*
X106154019Y-111239524D01*
X147123799Y-116131201D02*
X146650000Y-116605000D01*
X112156469Y-117177303D02*
X112278450Y-117055322D01*
X105960172Y-118323234D02*
X105360000Y-118323234D01*
X106154019Y-118040476D02*
X106033038Y-118190952D01*
X156365061Y-113645735D02*
X156827172Y-114107846D01*
X156690000Y-101530000D02*
X156690000Y-101630740D01*
X138186605Y-109575805D02*
X138064315Y-109575805D01*
X140935000Y-103810000D02*
X140020000Y-103810000D01*
X147480706Y-101451822D02*
X148167161Y-101451822D01*
X138367852Y-110688850D02*
X138819280Y-110688850D01*
X147409412Y-116131201D02*
X148167161Y-116131201D01*
X130894208Y-108520000D02*
X130722396Y-108520000D01*
X130010000Y-108980000D02*
X130020000Y-108990000D01*
X129041780Y-118277707D02*
X129041780Y-118266841D01*
X138819280Y-110688850D02*
X138914664Y-110688850D01*
X156155034Y-113645735D02*
X156365061Y-113645735D01*
X121231915Y-105519986D02*
X120780487Y-105519986D01*
X131927565Y-104612435D02*
X132163929Y-104612435D01*
X105360000Y-110956766D02*
X105360000Y-110823169D01*
X140750000Y-105430000D02*
X140500000Y-105680000D01*
X138933771Y-105519986D02*
X138819280Y-105519986D01*
X143207441Y-101335980D02*
X143323283Y-101451822D01*
X132601224Y-118278292D02*
X132523871Y-118278292D01*
X143413474Y-101451822D02*
X143508857Y-101451822D01*
X153796563Y-104391959D02*
X154498152Y-104391959D01*
X130722396Y-108520000D02*
X130634434Y-108520000D01*
X114090521Y-107149936D02*
X114060585Y-107120000D01*
X148167161Y-116131201D02*
X148167161Y-115752474D01*
X139105940Y-105478083D02*
X139064036Y-105519986D01*
X106033038Y-118190952D02*
X106033000Y-118191000D01*
X138367852Y-108784532D02*
X138367852Y-109260960D01*
X108770000Y-108095000D02*
X108770000Y-109190000D01*
X129041780Y-118266841D02*
X128913165Y-118138226D01*
X108780000Y-103021544D02*
X108780000Y-102907054D01*
X130020000Y-108990000D02*
X130020000Y-109520000D01*
X130894208Y-107520000D02*
X131020000Y-107520000D01*
X131020000Y-108520000D02*
X130894208Y-108520000D01*
X154550000Y-109325000D02*
X154550000Y-110160000D01*
X129520000Y-107411871D02*
X129465033Y-107466838D01*
X105360000Y-110823169D02*
X105360000Y-110320000D01*
X112278450Y-117055322D02*
X112278450Y-116961499D01*
X158358721Y-110002691D02*
X159101380Y-110002691D01*
X159958871Y-108181170D02*
X159101380Y-108181170D01*
X106033038Y-111089048D02*
X106033000Y-111089000D01*
X106275000Y-117890000D02*
X106154019Y-118040476D01*
X155703606Y-113645735D02*
X156155034Y-113645735D01*
D32*
X132564474Y-105564474D02*
X132608949Y-105608949D01*
D31*
X148638152Y-108531959D02*
X148638152Y-109956229D01*
X138367852Y-109394558D02*
X138186605Y-109575805D01*
X130520000Y-104741503D02*
X130520000Y-105020000D01*
%TO.N,Net-(J1-CC2)*%
X107000482Y-116390000D02*
X106275000Y-116390000D01*
X110628295Y-116390000D02*
X107000482Y-116390000D01*
X110628450Y-116389845D02*
X110628295Y-116390000D01*
%TO.N,+1V2*%
X141549650Y-101259791D02*
X125737508Y-101259791D01*
X153702178Y-111824213D02*
X154153606Y-111824213D01*
X148170000Y-103740000D02*
X148280000Y-103850000D01*
X149838152Y-105249136D02*
X149882689Y-105293674D01*
X143985286Y-103453250D02*
X143985286Y-103001822D01*
X147690732Y-103001822D02*
X147473555Y-103001822D01*
X107830000Y-101410000D02*
X107529048Y-101410000D01*
X111305000Y-102323572D02*
X111305000Y-102145562D01*
X142485000Y-103808502D02*
X143291680Y-103001822D01*
X144741509Y-103064440D02*
X144678892Y-103001822D01*
X148475451Y-103850000D02*
X148638152Y-104012701D01*
X149838152Y-104581959D02*
X149838152Y-105031959D01*
X148167161Y-103001822D02*
X147690732Y-103001822D01*
X148170000Y-103004661D02*
X148170000Y-103740000D01*
X125737508Y-101259791D02*
X124866493Y-100388776D01*
X143985286Y-103001822D02*
X143508857Y-103001822D01*
X148813674Y-105293674D02*
X149882689Y-105293674D01*
X151920975Y-107331959D02*
X152138152Y-107331959D01*
X151847686Y-105733840D02*
X151847686Y-107258670D01*
X124866493Y-100388776D02*
X114102164Y-100388776D01*
X148638152Y-104581959D02*
X148638152Y-105118152D01*
X111305000Y-102145562D02*
X111145005Y-101985567D01*
X142485000Y-103810000D02*
X142485000Y-103808502D01*
X144678892Y-103001822D02*
X144461714Y-103001822D01*
X148167161Y-103001822D02*
X148170000Y-103004661D01*
X111305000Y-102800000D02*
X111305000Y-102323572D01*
X147473555Y-103001822D02*
X146727985Y-103747392D01*
X107296069Y-101410000D02*
X107242025Y-101464044D01*
X143985286Y-103670427D02*
X143985286Y-103453250D01*
X148638152Y-105118152D02*
X148813674Y-105293674D01*
X145156722Y-103747392D02*
X144741509Y-103332180D01*
X151847686Y-107258670D02*
X151920975Y-107331959D01*
X144594944Y-104280086D02*
X143985286Y-103670427D01*
X143508857Y-103001822D02*
X143291680Y-103001822D01*
X144741509Y-103332180D02*
X144741509Y-103064440D01*
X114102164Y-100388776D02*
X112201034Y-102289906D01*
X143291680Y-103001822D02*
X141549650Y-101259791D01*
X107529048Y-101410000D02*
X107351038Y-101410000D01*
X149838152Y-105031959D02*
X149838152Y-105249136D01*
X148638152Y-104012701D02*
X148638152Y-104581959D01*
X111756428Y-102800000D02*
X111305000Y-102800000D01*
X149882689Y-105293674D02*
X151407520Y-105293674D01*
X111145005Y-101985567D02*
X111059816Y-101985567D01*
X111973605Y-102800000D02*
X111756428Y-102800000D01*
X153350633Y-111650677D02*
X153524169Y-111824213D01*
X112201034Y-102289906D02*
X112201034Y-102572571D01*
X153524169Y-111824213D02*
X153702178Y-111824213D01*
X146727985Y-103747392D02*
X145156722Y-103747392D01*
X107351038Y-101410000D02*
X107296069Y-101410000D01*
X144766040Y-104280086D02*
X144594944Y-104280086D01*
X151407520Y-105293674D02*
X151847686Y-105733840D01*
X153350633Y-111524507D02*
X153350633Y-111650677D01*
X144461714Y-103001822D02*
X143985286Y-103001822D01*
X152138152Y-107331959D02*
X152588152Y-107331959D01*
X148280000Y-103850000D02*
X148475451Y-103850000D01*
X112201034Y-102572571D02*
X111973605Y-102800000D01*
%TO.N,+3V3*%
X144131427Y-105038573D02*
X143740000Y-105430000D01*
X122781915Y-105996414D02*
X122781915Y-105519986D01*
X130278755Y-110278755D02*
X130050000Y-110050000D01*
X129020000Y-107020000D02*
X128975526Y-107064474D01*
X130975526Y-109064474D02*
X130777484Y-109262516D01*
X128762516Y-107277484D02*
X128564474Y-107475526D01*
X154894533Y-113573414D02*
X154894533Y-113321844D01*
X145090000Y-103948992D02*
X145090000Y-104430000D01*
X131303655Y-115964986D02*
X130827227Y-115964986D01*
X131262516Y-105262516D02*
X131277484Y-105277484D01*
X130720972Y-109319028D02*
X130564474Y-109475526D01*
X130350799Y-115964986D02*
X130133621Y-115964986D01*
X111320001Y-107120000D02*
X111988605Y-107120000D01*
X130520000Y-110520000D02*
X130564474Y-110564474D01*
X154894533Y-113321844D02*
X155408614Y-112807763D01*
X128346724Y-107693276D02*
X128094908Y-107945092D01*
X157551380Y-112155974D02*
X156901545Y-112805809D01*
X136817852Y-108784532D02*
X136817852Y-108057852D01*
X128975526Y-107064474D02*
X128777484Y-107262516D01*
X131520000Y-105520000D02*
X131520000Y-105582896D01*
X128520000Y-107520000D02*
X128475526Y-107564474D01*
X152588152Y-108049136D02*
X152588152Y-108131959D01*
X130827227Y-115964986D02*
X130827227Y-112252773D01*
X136520736Y-104529264D02*
X136520736Y-104094264D01*
X133545468Y-108784532D02*
X133540000Y-108790000D01*
X122781915Y-107424304D02*
X123450520Y-107424304D01*
X111030000Y-106830000D02*
X111320000Y-107120000D01*
X136520736Y-104094264D02*
X137150000Y-103465000D01*
X128413975Y-110050000D02*
X128094908Y-109730933D01*
X148167161Y-113751046D02*
X148167161Y-114202474D01*
X152655032Y-112805809D02*
X152655032Y-112588510D01*
X137637838Y-104700000D02*
X136817852Y-105519986D01*
X131520000Y-105862969D02*
X131520000Y-105894208D01*
X154153606Y-113645735D02*
X154605034Y-113645735D01*
X156901545Y-112805809D02*
X152655032Y-112805809D01*
X122781915Y-106947876D02*
X122781915Y-106730698D01*
X131530000Y-106030000D02*
X131530000Y-106430000D01*
X136817852Y-108784532D02*
X133545468Y-108784532D01*
X131564474Y-105475526D02*
X131520000Y-105520000D01*
X112067930Y-107199325D02*
X111988605Y-107120000D01*
X131520000Y-105894208D02*
X131520000Y-106020000D01*
X136817852Y-105519986D02*
X136817852Y-104826380D01*
D34*
X131520000Y-105862969D02*
X131519999Y-105862969D01*
X131519999Y-105862969D01*
X131519999Y-105862969D01*
X131519999Y-105862969D01*
X131519999Y-105862969D01*
X131519999Y-105862969D01*
X131519999Y-105862969D01*
X131519999Y-105862968D01*
X131519999Y-105862968D01*
X131519999Y-105862968D01*
X131519999Y-105862968D01*
X131519999Y-105862968D01*
X131520000Y-105862968D01*
X131520000Y-105862968D01*
X131520000Y-105862968D01*
X131520000Y-105862968D01*
X131520000Y-105862968D01*
X131520000Y-105862968D01*
X131520000Y-105862968D01*
X131520000Y-105862968D01*
X131520000Y-105862968D01*
X131520000Y-105862968D01*
X131520000Y-105862968D01*
X131520000Y-105862968D01*
X131520001Y-105862968D01*
X131520001Y-105862968D01*
X131520001Y-105862968D01*
X131520001Y-105862968D01*
X131520001Y-105862968D01*
X131520001Y-105862968D01*
X131520001Y-105862969D01*
X131520001Y-105862969D01*
X131520001Y-105862969D01*
X131520001Y-105862969D01*
X131520001Y-105862969D01*
X131520001Y-105862969D01*
X131520001Y-105862969D01*
X131520000Y-105862969D01*
X131520000Y-105862969D02*
X131520001Y-105862969D01*
X131520001Y-105862969D01*
X131520001Y-105862969D01*
X131520001Y-105862969D01*
X131520001Y-105862969D01*
X131520001Y-105862969D01*
X131520001Y-105862970D01*
X131520001Y-105862970D01*
X131520001Y-105862970D01*
X131520001Y-105862970D01*
X131520001Y-105862970D01*
X131520001Y-105862970D01*
X131520001Y-105862970D01*
X131520000Y-105862970D01*
X131520000Y-105862970D01*
X131520000Y-105862970D01*
X131520000Y-105862970D01*
X131520000Y-105862970D01*
X131520000Y-105862970D01*
X131520000Y-105862970D01*
X131520000Y-105862970D01*
X131520000Y-105862970D01*
X131520000Y-105862970D01*
X131520000Y-105862970D01*
X131520000Y-105862970D01*
X131519999Y-105862970D01*
X131519999Y-105862970D01*
X131519999Y-105862970D01*
X131519999Y-105862970D01*
X131519999Y-105862970D01*
X131519999Y-105862970D01*
X131519999Y-105862969D01*
X131519999Y-105862969D01*
X131519999Y-105862969D01*
X131519999Y-105862969D01*
X131519999Y-105862969D01*
X131519999Y-105862969D01*
X131520000Y-105862969D01*
D31*
X151038152Y-103710075D02*
X151038152Y-104581959D01*
X122781915Y-106730698D02*
X122781915Y-106213592D01*
X153220359Y-107080359D02*
X153119042Y-107080359D01*
X157551380Y-110002691D02*
X156108689Y-108560000D01*
X155199075Y-102456387D02*
X152291840Y-102456387D01*
X157551380Y-108181170D02*
X158509984Y-107222566D01*
X153138041Y-107731959D02*
X153310000Y-107560000D01*
X145090000Y-104430000D02*
X144481427Y-105038573D01*
X123450520Y-107424304D02*
X125796216Y-109770000D01*
X107820000Y-105820000D02*
X108830000Y-106830000D01*
X126000000Y-109770000D02*
X126010000Y-109760000D01*
X151646086Y-107342175D02*
X151646086Y-105817346D01*
X122781915Y-107424304D02*
X122113310Y-107424304D01*
X147314635Y-115055000D02*
X148167161Y-114202474D01*
X156420000Y-103280000D02*
X155596387Y-102456387D01*
X131777484Y-105262516D02*
X131762516Y-105277484D01*
X131520833Y-115964986D02*
X131303655Y-115964986D01*
X158002808Y-110002691D02*
X157551380Y-110002691D01*
X112578951Y-108050904D02*
X112067930Y-107539883D01*
X129320000Y-106720000D02*
X129020000Y-107020000D01*
X130564474Y-109475526D02*
X130520000Y-109520000D01*
X144481427Y-105038573D02*
X144131427Y-105038573D01*
X148230000Y-111680000D02*
X148230000Y-112473807D01*
X136817852Y-104826380D02*
X136520736Y-104529264D01*
X121733837Y-108050904D02*
X112578951Y-108050904D01*
X131520000Y-105582896D02*
X131520000Y-105862969D01*
X132020000Y-105020000D02*
X131975526Y-105064474D01*
X122781915Y-106213592D02*
X122781915Y-105996414D01*
X131520000Y-106020000D02*
X131530000Y-106030000D01*
X152588152Y-107831959D02*
X152588152Y-108049136D01*
X156487519Y-108181170D02*
X157551380Y-108181170D01*
X129606771Y-115964986D02*
X129389593Y-115964986D01*
X156108689Y-108560000D02*
X156487519Y-108181170D01*
X128094908Y-107945092D02*
X128094908Y-109730933D01*
X152970642Y-108131959D02*
X152588152Y-108131959D01*
X154605034Y-113645735D02*
X154822212Y-113645735D01*
X131240000Y-106720000D02*
X129320000Y-106720000D01*
X132047684Y-115964986D02*
X131520833Y-115964986D01*
X153398683Y-108560000D02*
X152970642Y-108131959D01*
X132264862Y-115964986D02*
X132047684Y-115964986D01*
X130827227Y-112252773D02*
X130830000Y-112250000D01*
X128475526Y-107564474D02*
X128346724Y-107693276D01*
X122020000Y-107517614D02*
X122020000Y-107764741D01*
X152588152Y-107731959D02*
X153138041Y-107731959D01*
X151646086Y-105817346D02*
X151414244Y-105585504D01*
X145838152Y-104581959D02*
X145838152Y-105260000D01*
X130332876Y-109707124D02*
X130332876Y-109767124D01*
X131277484Y-105277484D02*
X131475526Y-105475526D01*
X130520000Y-109520000D02*
X130332876Y-109707124D01*
X155596387Y-102456387D02*
X155199075Y-102456387D01*
X152291840Y-102456387D02*
X151038152Y-103710075D01*
X145838152Y-105260000D02*
X145838152Y-104128759D01*
X108830000Y-106830000D02*
X111030000Y-106830000D01*
X130332876Y-109767124D02*
X130050000Y-110050000D01*
X131475526Y-105475526D02*
X131520000Y-105520000D01*
X152655032Y-112588510D02*
X152330000Y-112263478D01*
X148238152Y-112481959D02*
X148167161Y-112552950D01*
X143740000Y-105430000D02*
X143035000Y-105430000D01*
X111771428Y-107120000D02*
X111320000Y-107120000D01*
X158509984Y-107129571D02*
X158016366Y-106635952D01*
X145838152Y-105260000D02*
X145838152Y-105585504D01*
X136817852Y-108057852D02*
X134380000Y-105620000D01*
X153119042Y-107080359D02*
X152970642Y-106931959D01*
X145658385Y-103948992D02*
X145090000Y-103948992D01*
X148167161Y-112552950D02*
X148167161Y-113751046D01*
X158016366Y-103956366D02*
X157340000Y-103280000D01*
X122113310Y-107424304D02*
X122020000Y-107517614D01*
X152588152Y-107731959D02*
X152588152Y-107831959D01*
X131975526Y-105064474D02*
X131777484Y-105262516D01*
X154822212Y-113645735D02*
X154894533Y-113573414D01*
X151414244Y-105585504D02*
X145838152Y-105585504D01*
X157551380Y-110002691D02*
X157551380Y-112155974D01*
X125796216Y-109770000D02*
X126000000Y-109770000D01*
X130133621Y-115964986D02*
X129606771Y-115964986D01*
X131020000Y-109020000D02*
X130975526Y-109064474D01*
X145838152Y-104128759D02*
X145658385Y-103948992D01*
X131180000Y-108860000D02*
X131020000Y-109020000D01*
X138780000Y-103490000D02*
X137175000Y-103490000D01*
X131064474Y-105064474D02*
X131262516Y-105262516D01*
X130827227Y-115964986D02*
X130350799Y-115964986D01*
X146650000Y-115055000D02*
X147314635Y-115055000D01*
X158016366Y-106635952D02*
X158016366Y-103956366D01*
X131762516Y-105277484D02*
X131564474Y-105475526D01*
X137175000Y-103490000D02*
X137150000Y-103465000D01*
X112067930Y-107539883D02*
X112067930Y-107199325D01*
X131530000Y-106430000D02*
X131240000Y-106720000D01*
X153310000Y-107170000D02*
X153220359Y-107080359D01*
X158509984Y-107222566D02*
X158509984Y-107129571D01*
X143035000Y-105430000D02*
X142305000Y-104700000D01*
X142305000Y-104700000D02*
X137637838Y-104700000D01*
X131530000Y-108860000D02*
X131180000Y-108860000D01*
X153310000Y-107560000D02*
X153310000Y-107170000D01*
X148230000Y-112473807D02*
X148238152Y-112481959D01*
X131020000Y-105020000D02*
X131064474Y-105064474D01*
X152588152Y-107731959D02*
X152035870Y-107731959D01*
X152035870Y-107731959D02*
X151646086Y-107342175D01*
X128777484Y-107262516D02*
X128762516Y-107277484D01*
X130777484Y-109262516D02*
X130720972Y-109319028D01*
X152970642Y-106931959D02*
X152588152Y-106931959D01*
X130050000Y-110050000D02*
X128413975Y-110050000D01*
X128564474Y-107475526D02*
X128520000Y-107520000D01*
X122020000Y-107764741D02*
X121733837Y-108050904D01*
X157551380Y-108181170D02*
X157551380Y-108156169D01*
X132741290Y-115964986D02*
X132264862Y-115964986D01*
X157340000Y-103280000D02*
X156420000Y-103280000D01*
X129389593Y-115964986D02*
X128913165Y-115964986D01*
X111988605Y-107120000D02*
X111771428Y-107120000D01*
X130520000Y-110520000D02*
X130278755Y-110278755D01*
X122781915Y-107424304D02*
X122781915Y-106947876D01*
X156108689Y-108560000D02*
X153398683Y-108560000D01*
%TO.N,+5V*%
X107124161Y-110844161D02*
X107124161Y-108090000D01*
X107129161Y-108095000D02*
X107124161Y-108090000D01*
X106275000Y-117090000D02*
X105549000Y-117090000D01*
X107124161Y-108090000D02*
X107124161Y-105271472D01*
X109344720Y-104432784D02*
X109266745Y-104510758D01*
X106275000Y-112190000D02*
X107001000Y-112039500D01*
X109160000Y-107170000D02*
X108082501Y-107170000D01*
X110445000Y-104400000D02*
X109730000Y-103685000D01*
X105549000Y-112190000D02*
X106275000Y-112190000D01*
X109720000Y-107730000D02*
X109160000Y-107170000D01*
X109730000Y-104047504D02*
X109344720Y-104432784D01*
X105549000Y-117090000D02*
X105304376Y-116962712D01*
X107830000Y-104348456D02*
X107830000Y-103685000D01*
X105304376Y-112317288D02*
X105549000Y-112190000D01*
X111185000Y-108750000D02*
X110375000Y-108750000D01*
X105120000Y-116778336D02*
X105120000Y-112501664D01*
X107001000Y-112039500D02*
X107121079Y-111983420D01*
X107820000Y-107432501D02*
X107820000Y-108095000D01*
X107121079Y-111983420D02*
X107510000Y-111594499D01*
X107830000Y-104047504D02*
X107830000Y-103685000D01*
X107510000Y-111594499D02*
X107510000Y-111230000D01*
X109266745Y-104510758D02*
X108293255Y-104510758D01*
X105120000Y-112501664D02*
X105304376Y-112317288D01*
X105304376Y-116962712D02*
X105120000Y-116778336D01*
X107820000Y-108095000D02*
X107129161Y-108095000D01*
X109720000Y-108095000D02*
X109720000Y-107730000D01*
X107124161Y-105271472D02*
X107830000Y-104565633D01*
X108293255Y-104510758D02*
X108229128Y-104446632D01*
X107830000Y-104565633D02*
X107830000Y-104348456D01*
X108082501Y-107170000D02*
X107820000Y-107432501D01*
X108229128Y-104446632D02*
X107830000Y-104047504D01*
X107510000Y-111230000D02*
X107124161Y-110844161D01*
X109730000Y-103685000D02*
X109730000Y-104047504D01*
X110375000Y-108750000D02*
X109720000Y-108095000D01*
X111220000Y-104400000D02*
X110445000Y-104400000D01*
X106275000Y-112190000D02*
X106637978Y-112190000D01*
%TO.N,Net-(J1-CC1)*%
X106282345Y-113397345D02*
X110227180Y-113397345D01*
X110227180Y-113397345D02*
X110628450Y-113397345D01*
X106275000Y-113390000D02*
X106282345Y-113397345D01*
%TO.N,Net-(J1-D+-PadA6)*%
X105454135Y-115390000D02*
X105394966Y-115330831D01*
X107000482Y-115390000D02*
X107210508Y-115390000D01*
X106275000Y-115390000D02*
X107000482Y-115390000D01*
X150288826Y-100195821D02*
X150765097Y-100195821D01*
X105454135Y-114390000D02*
X105549518Y-114390000D01*
X105394966Y-114449169D02*
X105454135Y-114390000D01*
X150078800Y-100195821D02*
X150288826Y-100195821D01*
X106275000Y-115390000D02*
X105549518Y-115390000D01*
X105394966Y-115330831D02*
X105394966Y-114449169D01*
X113070275Y-115390000D02*
X113670399Y-114789875D01*
X149654148Y-100620474D02*
X150078800Y-100195821D01*
X107210508Y-115390000D02*
X113070275Y-115390000D01*
X149583171Y-100620474D02*
X149654148Y-100620474D01*
X105549518Y-114390000D02*
X106275000Y-114390000D01*
X149439846Y-100763799D02*
X149583171Y-100620474D01*
X105549518Y-115390000D02*
X105454135Y-115390000D01*
%TO.N,Net-(J1-D--PadA7)*%
X152668634Y-118771910D02*
X160517967Y-110922578D01*
X107210508Y-114890000D02*
X107289003Y-114811506D01*
X160517967Y-110922578D02*
X160517967Y-104758136D01*
X114398927Y-114402541D02*
X118768297Y-118771910D01*
X160510000Y-104750169D02*
X160510000Y-102720000D01*
X107289003Y-114402541D02*
X114398927Y-114402541D01*
X107000482Y-114890000D02*
X107210508Y-114890000D01*
X118768297Y-118771910D02*
X152668634Y-118771910D01*
X107210508Y-113890000D02*
X107289003Y-113968494D01*
X157985821Y-100195821D02*
X152580697Y-100195821D01*
X106275000Y-114890000D02*
X107000482Y-114890000D01*
X107000482Y-113890000D02*
X107210508Y-113890000D01*
X106275000Y-113890000D02*
X107000482Y-113890000D01*
X160510000Y-102720000D02*
X157985821Y-100195821D01*
X160517967Y-104758136D02*
X160510000Y-104750169D01*
X107289003Y-113968494D02*
X107289003Y-114402541D01*
X107289003Y-114811506D02*
X107289003Y-114402541D01*
%TO.N,Net-(U1-XO)*%
X154550000Y-107775000D02*
X154550000Y-106143807D01*
X154138152Y-105731959D02*
X153038152Y-105731959D01*
X154498152Y-106091959D02*
X154138152Y-105731959D01*
X153038152Y-105731959D02*
X152588152Y-105731959D01*
X154550000Y-106143807D02*
X154498152Y-106091959D01*
X152238152Y-105731959D02*
X152588152Y-105731959D01*
%TO.N,Net-(U1-XI)*%
X157660000Y-104390000D02*
X157658041Y-104391959D01*
X158890000Y-104385000D02*
X158890000Y-104040000D01*
X158890000Y-104040000D02*
X158440000Y-103590000D01*
X157658041Y-104391959D02*
X156698152Y-104391959D01*
X152588152Y-105331959D02*
X155758152Y-105331959D01*
X155758152Y-105331959D02*
X156698152Y-104391959D01*
%TO.N,Net-(J3-Pin_1)*%
X153041352Y-108531959D02*
X152588152Y-108531959D01*
X153407587Y-108898194D02*
X153041352Y-108531959D01*
X153407587Y-109027587D02*
X153407587Y-108898194D01*
X153510000Y-109130000D02*
X153407587Y-109027587D01*
%TO.N,Net-(J3-Pin_2)*%
X152361531Y-113584723D02*
X152361531Y-113569829D01*
X151838152Y-113046449D02*
X151838152Y-112931959D01*
X152361531Y-113569829D02*
X151838152Y-113046449D01*
X151838152Y-112931959D02*
X151838152Y-112481959D01*
%TO.N,Net-(J3-Pin_3)*%
X151858103Y-108580000D02*
X151858103Y-108861936D01*
X151858103Y-108861936D02*
X151928126Y-108931959D01*
X151928126Y-108931959D02*
X152588152Y-108931959D01*
%TO.N,Net-(J3-Pin_4)*%
X151438152Y-112931959D02*
X151438152Y-112481959D01*
X151438152Y-113103771D02*
X151438152Y-112931959D01*
X151556227Y-113221846D02*
X151438152Y-113103771D01*
X151556227Y-113230752D02*
X151556227Y-113221846D01*
%TO.N,Net-(J3-Pin_5)*%
X153711694Y-110759292D02*
X153876543Y-110759292D01*
X152975945Y-109369752D02*
X153189752Y-109369752D01*
X152938152Y-109331959D02*
X152975945Y-109369752D01*
X153557981Y-109737981D02*
X153557981Y-110605579D01*
X152588152Y-109331959D02*
X152938152Y-109331959D01*
X153557981Y-110605579D02*
X153711694Y-110759292D01*
X153189752Y-109369752D02*
X153557981Y-109737981D01*
%TO.N,Net-(J3-Pin_6)*%
X151038152Y-113395608D02*
X151038152Y-113141985D01*
X151038152Y-112931959D02*
X151038152Y-112481959D01*
X151275522Y-113632978D02*
X151038152Y-113395608D01*
X151038152Y-113141985D02*
X151038152Y-112931959D01*
%TO.N,Net-(J3-Pin_7)*%
X161060000Y-105100000D02*
X162150000Y-105100000D01*
X151828298Y-109472216D02*
X152088041Y-109731959D01*
X151828298Y-109315700D02*
X151828298Y-109472216D01*
X151883998Y-109260000D02*
X151828298Y-109315700D01*
X152088041Y-109731959D02*
X152588152Y-109731959D01*
X162150000Y-105100000D02*
X162570000Y-105520000D01*
%TO.N,Net-(J3-Pin_8)*%
X151122723Y-113954592D02*
X150638152Y-113470021D01*
X153162778Y-113703450D02*
X152911636Y-113954592D01*
X152911636Y-113954592D02*
X151122723Y-113954592D01*
X150638152Y-113470021D02*
X150638152Y-113141985D01*
X150638152Y-112931959D02*
X150638152Y-112481959D01*
X150638152Y-113141985D02*
X150638152Y-112931959D01*
%TO.N,Net-(J3-Pin_9)*%
X154005973Y-111060000D02*
X154002528Y-111063445D01*
X154500000Y-111060000D02*
X154005973Y-111060000D01*
X153747114Y-111060000D02*
X153684598Y-111060000D01*
X154651615Y-111204336D02*
X154644336Y-111204336D01*
X154002528Y-111063445D02*
X153750559Y-111063445D01*
X154920129Y-111472850D02*
X154651615Y-111204336D01*
X153354240Y-110352663D02*
X153133535Y-110131959D01*
X153354240Y-110729642D02*
X153354240Y-110352663D01*
X153750559Y-111063445D02*
X153747114Y-111060000D01*
X154920129Y-112277497D02*
X154920129Y-111472850D01*
X153684598Y-111060000D02*
X153354240Y-110729642D01*
X154644336Y-111204336D02*
X154500000Y-111060000D01*
X153133535Y-110131959D02*
X152588152Y-110131959D01*
%TO.N,Net-(J3-Pin_10)*%
X150238152Y-112931959D02*
X150238152Y-113141985D01*
X150238152Y-113380152D02*
X151152113Y-114294113D01*
X150238152Y-113141985D02*
X150238152Y-113380152D01*
X150238152Y-112481959D02*
X150238152Y-112931959D01*
%TO.N,Net-(J3-Pin_11)*%
X152220257Y-110531959D02*
X152588152Y-110531959D01*
X159120000Y-111060000D02*
X160160000Y-110020000D01*
X158710000Y-111060000D02*
X159120000Y-111060000D01*
X151883998Y-110140000D02*
X151883998Y-110195700D01*
X162570000Y-110430000D02*
X162570000Y-110600000D01*
X161690000Y-109550000D02*
X162570000Y-110430000D01*
X160160000Y-110020000D02*
X160160000Y-109830000D01*
X151883998Y-110195700D02*
X152220257Y-110531959D01*
%TO.N,Net-(J3-Pin_12)*%
X149867239Y-113240499D02*
X149838152Y-113211412D01*
X149838152Y-113211412D02*
X149838152Y-113122878D01*
X149838152Y-112931959D02*
X149838152Y-112481959D01*
X149838152Y-113122878D02*
X149838152Y-112931959D01*
%TO.N,Net-(J3-Pin_13)*%
X151905454Y-110927156D02*
X151910257Y-110931959D01*
X161380000Y-111300000D02*
X161380000Y-111950000D01*
X151905454Y-110903127D02*
X151905454Y-110927156D01*
X151910257Y-110931959D02*
X152588152Y-110931959D01*
X161380000Y-111950000D02*
X162570000Y-113140000D01*
%TO.N,Net-(J3-Pin_14)*%
X149438152Y-113391775D02*
X151079526Y-115033148D01*
X149438152Y-112481959D02*
X149438152Y-112931959D01*
X151079526Y-115033148D02*
X152090976Y-115033148D01*
X149438152Y-113141985D02*
X149438152Y-113391775D01*
X149438152Y-112931959D02*
X149438152Y-113141985D01*
%TO.N,Net-(J3-Pin_15)*%
X151790543Y-111565077D02*
X151782600Y-111565077D01*
X152138152Y-111331959D02*
X152023661Y-111331959D01*
X152023661Y-111331959D02*
X151790543Y-111565077D01*
X152588152Y-111331959D02*
X152138152Y-111331959D01*
%TO.N,Net-(J3-Pin_16)*%
X149100773Y-113220378D02*
X149038152Y-113157757D01*
X149038152Y-113157757D02*
X149038152Y-113103771D01*
X149038152Y-112931959D02*
X149038152Y-112481959D01*
X149038152Y-113103771D02*
X149038152Y-112931959D01*
%TO.N,Net-(J3-Pin_17)*%
X152904984Y-112048791D02*
X152588152Y-111731959D01*
X152948791Y-112048791D02*
X152904984Y-112048791D01*
%TO.N,Net-(J3-Pin_18)*%
X148638152Y-113141985D02*
X148638152Y-112931959D01*
X148842158Y-113556907D02*
X148638152Y-113352901D01*
X149128513Y-113556907D02*
X148842158Y-113556907D01*
X148638152Y-113352901D02*
X148638152Y-113141985D01*
X148638152Y-112931959D02*
X148638152Y-112481959D01*
X149925029Y-114353423D02*
X149128513Y-113556907D01*
%TO.N,Net-(J4-Pin_1)*%
X147838152Y-112931959D02*
X147838152Y-112481959D01*
X147838152Y-113189971D02*
X147838152Y-113122878D01*
X147838152Y-113122878D02*
X147838152Y-112931959D01*
X147746923Y-113281200D02*
X147838152Y-113189971D01*
%TO.N,Net-(J4-Pin_2)*%
X146034598Y-114450004D02*
X145028233Y-114450004D01*
X147438152Y-112931959D02*
X147438152Y-113046449D01*
X147438152Y-113046449D02*
X146034598Y-114450004D01*
X147438152Y-112481959D02*
X147438152Y-112931959D01*
%TO.N,Net-(J4-Pin_3)*%
X138074732Y-107754732D02*
X137753719Y-107433719D01*
X137753719Y-107431507D02*
X137575551Y-107253339D01*
X134910097Y-104985119D02*
X134910097Y-104250080D01*
X134910097Y-104250080D02*
X132997107Y-102337089D01*
X139163676Y-107754732D02*
X138074732Y-107754732D01*
X137753719Y-107433719D02*
X137753719Y-107431507D01*
X137575551Y-107253339D02*
X137178317Y-107253339D01*
X123653856Y-102337089D02*
X122186084Y-100869317D01*
X139228944Y-107820000D02*
X139163676Y-107754732D01*
X143650000Y-112170000D02*
X139300000Y-107820000D01*
X139300000Y-107820000D02*
X139228944Y-107820000D01*
X147038152Y-111771848D02*
X147040000Y-111770000D01*
X144970000Y-112170000D02*
X143650000Y-112170000D01*
X147038152Y-112481959D02*
X147038152Y-111771848D01*
X132997107Y-102337089D02*
X123653856Y-102337089D01*
X137178317Y-107253339D02*
X134910097Y-104985119D01*
%TO.N,Net-(J4-Pin_4)*%
X146638152Y-112481959D02*
X146638152Y-112931959D01*
X146638152Y-112931959D02*
X146638152Y-113141985D01*
X146638152Y-113141985D02*
X145653509Y-114126628D01*
X143127533Y-115775208D02*
X140492732Y-115775208D01*
X140492732Y-115775208D02*
X140336749Y-115619226D01*
X144776113Y-114126628D02*
X143127533Y-115775208D01*
X145653509Y-114126628D02*
X144776113Y-114126628D01*
%TO.N,Net-(J4-Pin_5)*%
X146238152Y-112831959D02*
X146240000Y-112833807D01*
X146238152Y-112481959D02*
X146238152Y-112831959D01*
X146230000Y-113170000D02*
X145692618Y-113707382D01*
X144233352Y-113707382D02*
X142514822Y-115425912D01*
X146240000Y-112833807D02*
X146240000Y-113170000D01*
X146240000Y-113170000D02*
X146230000Y-113170000D01*
X145692618Y-113707382D02*
X144233352Y-113707382D01*
%TO.N,Net-(J4-Pin_6)*%
X138755080Y-108157932D02*
X137852826Y-108157932D01*
X138938318Y-108278318D02*
X138820000Y-108160000D01*
X143958493Y-113190000D02*
X139046811Y-108278318D01*
X134701542Y-104332018D02*
X133049137Y-102679614D01*
X145595005Y-113190000D02*
X143958493Y-113190000D01*
X139046811Y-108278318D02*
X138938318Y-108278318D01*
X145840000Y-112833807D02*
X145840000Y-112945005D01*
X134701542Y-105276673D02*
X134701542Y-104332018D01*
X137852826Y-108157932D02*
X137834895Y-108140000D01*
X145838152Y-112481959D02*
X145838152Y-112831959D01*
X137724232Y-108140000D02*
X137577300Y-107993068D01*
X137251157Y-107826289D02*
X134701542Y-105276673D01*
X137577300Y-107993068D02*
X137251157Y-107826289D01*
X145840000Y-112945005D02*
X145595005Y-113190000D01*
X137834895Y-108140000D02*
X137724232Y-108140000D01*
X138757148Y-108160000D02*
X138755080Y-108157932D01*
X133049137Y-102679614D02*
X129562682Y-102679614D01*
X138820000Y-108160000D02*
X138757148Y-108160000D01*
X145838152Y-112831959D02*
X145840000Y-112833807D01*
%TO.N,Net-(J4-Pin_7)*%
X139080171Y-107956332D02*
X137936332Y-107956332D01*
X145438152Y-112481959D02*
X143605798Y-112481959D01*
X143605798Y-112481959D02*
X139080171Y-107956332D01*
X137936332Y-107956332D02*
X137537491Y-107557491D01*
X137537491Y-107557491D02*
X137449566Y-107557491D01*
%TO.N,/DAT0*%
X137736567Y-113289225D02*
X136571564Y-112124222D01*
X144238152Y-108931959D02*
X144028126Y-108931959D01*
X143568743Y-108931959D02*
X143546396Y-108909612D01*
X136571564Y-112124222D02*
X132488572Y-112124222D01*
X132046052Y-111582896D02*
X132020000Y-111520000D01*
X144688152Y-108931959D02*
X144238152Y-108931959D01*
X132488572Y-112124222D02*
X132115918Y-111751568D01*
X132115918Y-111751568D02*
X132046052Y-111582896D01*
X144028126Y-108931959D02*
X143568743Y-108931959D01*
%TO.N,/DAT1*%
X144238152Y-108531959D02*
X144028126Y-108531959D01*
X132956178Y-112956178D02*
X135462708Y-112956178D01*
X131520000Y-111520000D02*
X131564474Y-111564474D01*
X144028126Y-108531959D02*
X143411931Y-108531959D01*
X131564474Y-111564474D02*
X131757460Y-111757460D01*
X144688152Y-108531959D02*
X144238152Y-108531959D01*
X135462708Y-112956178D02*
X136699237Y-114192707D01*
X143411931Y-108531959D02*
X143348339Y-108468367D01*
X131757460Y-111757460D02*
X132956178Y-112956178D01*
%TO.N,/DAT2*%
X144238152Y-108131959D02*
X144104554Y-108131959D01*
X131020000Y-111520000D02*
X131064474Y-111564474D01*
X131257460Y-111757460D02*
X133881752Y-114381752D01*
X144104554Y-108131959D02*
X143951452Y-107978857D01*
X133881752Y-114381752D02*
X135788560Y-114381752D01*
X144688152Y-108131959D02*
X144238152Y-108131959D01*
X131064474Y-111564474D02*
X131257460Y-111757460D01*
X143951452Y-107978857D02*
X143946409Y-107978857D01*
%TO.N,/DAT3*%
D32*
X133146000Y-111270000D02*
X133233634Y-111357634D01*
D31*
X132520000Y-111020000D02*
X132520000Y-111030000D01*
X143963311Y-107640000D02*
X144246193Y-107640000D01*
D32*
X132761300Y-111279597D02*
X132770897Y-111270000D01*
X132770897Y-111270000D02*
X133146000Y-111270000D01*
X132520000Y-111020000D02*
X132564474Y-111064474D01*
X132608949Y-111108949D02*
X132609000Y-111109000D01*
X139614572Y-111445269D02*
X136977910Y-111445269D01*
D31*
X144246193Y-107640000D02*
X144338152Y-107731959D01*
D32*
X139724046Y-111335796D02*
X139614572Y-111445269D01*
D31*
X143761510Y-107438199D02*
X143963311Y-107640000D01*
D32*
X132564474Y-111064474D02*
X132608949Y-111108949D01*
X132609000Y-111109000D02*
X132761300Y-111279597D01*
X133233634Y-111357634D02*
X136890276Y-111357634D01*
X136890276Y-111357634D02*
X136977910Y-111445269D01*
D31*
X132520000Y-111020000D02*
X132564474Y-111064474D01*
X144338152Y-107731959D02*
X144688152Y-107731959D01*
%TO.N,/DAT4*%
D32*
X132279597Y-110778700D02*
X132270000Y-110769103D01*
D31*
X140503535Y-107293182D02*
X140191732Y-107293182D01*
D32*
X132020000Y-111020000D02*
X132064474Y-110975526D01*
D31*
X144238152Y-107331959D02*
X144123661Y-107331959D01*
D32*
X134856652Y-110264715D02*
X135170000Y-109951367D01*
X132299298Y-110264715D02*
X134856652Y-110264715D01*
D31*
X140966951Y-106829767D02*
X140503535Y-107293182D01*
D32*
X132064474Y-110975526D02*
X132108949Y-110931051D01*
X132109000Y-110931000D02*
X132279597Y-110778700D01*
D31*
X144688152Y-107331959D02*
X144238152Y-107331959D01*
X144123661Y-107331959D02*
X143621469Y-106829767D01*
D32*
X132108949Y-110931051D02*
X132109000Y-110931000D01*
X132270000Y-110769103D02*
X132270000Y-110294013D01*
D31*
X132020000Y-111020000D02*
X132064474Y-110975526D01*
X132020000Y-111020000D02*
X132050000Y-111020000D01*
D32*
X132270000Y-110294013D02*
X132299298Y-110264715D01*
D31*
X143621469Y-106829767D02*
X140966951Y-106829767D01*
%TO.N,/DAT5*%
D32*
X132279105Y-111322913D02*
X132279105Y-111650579D01*
X132226192Y-111270000D02*
X132279105Y-111322913D01*
D31*
X145348178Y-106931959D02*
X145401622Y-106985403D01*
X131520000Y-111020000D02*
X131564474Y-111064474D01*
D32*
X131564474Y-111064474D02*
X131608949Y-111108949D01*
X131609000Y-111109000D02*
X131761300Y-111279597D01*
X131520000Y-111020000D02*
X131564474Y-111064474D01*
X134825296Y-111860000D02*
X135011491Y-111673805D01*
X131770897Y-111270000D02*
X132226192Y-111270000D01*
D31*
X145138152Y-106931959D02*
X145348178Y-106931959D01*
D32*
X131608949Y-111108949D02*
X131609000Y-111109000D01*
X132488526Y-111860000D02*
X134825296Y-111860000D01*
X132279105Y-111650579D02*
X132488526Y-111860000D01*
X131761300Y-111279597D02*
X131770897Y-111270000D01*
D31*
X131520000Y-111020000D02*
X131520000Y-110990000D01*
X144688152Y-106931959D02*
X145138152Y-106931959D01*
X145401622Y-106985403D02*
X145401622Y-107930344D01*
%TO.N,/DAT6*%
X138204045Y-106834120D02*
X137952076Y-106834120D01*
X140718891Y-106669117D02*
X138369048Y-106669117D01*
D32*
X131915456Y-109770000D02*
X133318600Y-109770000D01*
D31*
X144688152Y-106531959D02*
X140856049Y-106531959D01*
D32*
X131064474Y-110975526D02*
X131108949Y-110931051D01*
X131770699Y-109914757D02*
X131915456Y-109770000D01*
D33*
X131020000Y-111020000D02*
X131058591Y-111020000D01*
D32*
X131108949Y-110931051D02*
X131109000Y-110931000D01*
X131020000Y-111020000D02*
X131064474Y-110975526D01*
X133318600Y-109770000D02*
X133434325Y-109654275D01*
X131770699Y-110626516D02*
X131770699Y-109914757D01*
D31*
X137952076Y-106834120D02*
X137787073Y-106669117D01*
D32*
X131261300Y-110760403D02*
X131270897Y-110770000D01*
X131270897Y-110770000D02*
X131627215Y-110770000D01*
D31*
X140856049Y-106531959D02*
X140718891Y-106669117D01*
D32*
X131627215Y-110770000D02*
X131770699Y-110626516D01*
X131109000Y-110931000D02*
X131261300Y-110760403D01*
D31*
X137787073Y-106669117D02*
X137546758Y-106669117D01*
X138369048Y-106669117D02*
X138204045Y-106834120D01*
%TO.N,/DAT7*%
X130520000Y-111020000D02*
X130475526Y-111064474D01*
D32*
X130431000Y-111109000D02*
X130260403Y-111261300D01*
X130431051Y-111108949D02*
X130431000Y-111109000D01*
D31*
X130520000Y-111020000D02*
X130520000Y-111022768D01*
D32*
X130270000Y-111722962D02*
X130066300Y-111926662D01*
D31*
X138100533Y-106507494D02*
X138358027Y-106250000D01*
X144028126Y-106131959D02*
X144688152Y-106131959D01*
D32*
X130270000Y-111270897D02*
X130270000Y-111722962D01*
X130520000Y-111020000D02*
X130475526Y-111064474D01*
D31*
X138078060Y-106507494D02*
X138100533Y-106507494D01*
D32*
X130475526Y-111064474D02*
X130431051Y-111108949D01*
X130260403Y-111261300D02*
X130270000Y-111270897D01*
D31*
X143910085Y-106250000D02*
X144028126Y-106131959D01*
X130520000Y-111020000D02*
X130520000Y-111030000D01*
X138358027Y-106250000D02*
X143910085Y-106250000D01*
%TO.N,Net-(U2-VDDI)*%
X132520000Y-110520000D02*
X132564474Y-110564474D01*
D32*
X132564474Y-110564474D02*
X132608949Y-110608949D01*
D31*
X136156398Y-110688850D02*
X136366424Y-110688850D01*
X136066101Y-110779146D02*
X136156398Y-110688850D01*
X136366424Y-110688850D02*
X136817852Y-110688850D01*
D32*
X132770897Y-110770000D02*
X135986000Y-110770000D01*
X132520000Y-110520000D02*
X132564474Y-110564474D01*
X132608949Y-110608949D02*
X132609000Y-110609000D01*
X135986000Y-110770000D02*
X136030500Y-110814500D01*
X132761300Y-110779597D02*
X132770897Y-110770000D01*
X132609000Y-110609000D02*
X132761300Y-110779597D01*
%TO.N,/RST*%
D31*
X141169625Y-107686334D02*
X143615250Y-110131959D01*
X131020000Y-107020000D02*
X131550000Y-107020000D01*
X144238152Y-110131959D02*
X144688152Y-110131959D01*
X143615250Y-110131959D02*
X144028126Y-110131959D01*
X144028126Y-110131959D02*
X144238152Y-110131959D01*
X141169625Y-107162661D02*
X141169625Y-107686334D01*
%TO.N,/CMD*%
X130741666Y-106411666D02*
X131020000Y-106133332D01*
X132250354Y-103988303D02*
X133600201Y-103988303D01*
X131858657Y-104380000D02*
X132250354Y-103988303D01*
X143710083Y-109731959D02*
X144028126Y-109731959D01*
X131020000Y-106020000D02*
X130975526Y-105975526D01*
X131020000Y-106133332D02*
X131020000Y-106020000D01*
X131670000Y-104380000D02*
X131858657Y-104380000D01*
X144238152Y-109731959D02*
X144688152Y-109731959D01*
X144028126Y-109731959D02*
X144238152Y-109731959D01*
X142349425Y-108371300D02*
X143710083Y-109731959D01*
%TO.N,/CLK*%
X135425264Y-105141226D02*
X135425264Y-104571416D01*
X139541928Y-107776822D02*
X138800826Y-107035720D01*
X129830000Y-106400000D02*
X129900000Y-106470000D01*
X130070000Y-106470000D02*
X130520000Y-106020000D01*
X130520000Y-106020000D02*
X130475526Y-105975526D01*
X130180000Y-104580000D02*
X131160127Y-103599873D01*
X137319758Y-107035720D02*
X135425264Y-105141226D01*
X144688152Y-110531959D02*
X143038783Y-110531959D01*
X129900000Y-106470000D02*
X130070000Y-106470000D01*
X138800826Y-107035720D02*
X137319758Y-107035720D01*
X131160127Y-103599873D02*
X131878058Y-103599873D01*
X143038783Y-110531959D02*
X140283645Y-107776822D01*
X140283645Y-107776822D02*
X139541928Y-107776822D01*
%TO.N,/D-*%
X151438152Y-104581959D02*
X151438152Y-104131959D01*
X151438152Y-103762126D02*
X151580844Y-103619434D01*
X151801994Y-101710362D02*
X151816262Y-101710362D01*
X151438152Y-104131959D02*
X151438152Y-103921933D01*
X151438152Y-103921933D02*
X151438152Y-103762126D01*
X151951722Y-101845821D02*
X152104426Y-101845821D01*
X151816262Y-101710362D02*
X151951722Y-101845821D01*
X151789306Y-101697674D02*
X151801994Y-101710362D01*
X152104426Y-101845821D02*
X152580697Y-101845821D01*
%TO.N,/D+*%
X151349346Y-101336573D02*
X150840098Y-101845821D01*
X152123421Y-103896056D02*
X152123421Y-103946690D01*
X151390899Y-101295020D02*
X151349346Y-101336573D01*
X152046131Y-104023980D02*
X151838152Y-104231959D01*
X150840098Y-101845821D02*
X150765097Y-101845821D01*
X151838152Y-104231959D02*
X151838152Y-104581959D01*
X152123421Y-103946690D02*
X152046131Y-104023980D01*
X151496765Y-101295020D02*
X151390899Y-101295020D01*
%TO.N,Net-(J2-Pin_2)*%
X153209964Y-106531959D02*
X153038152Y-106531959D01*
X153038152Y-106531959D02*
X152588152Y-106531959D01*
X153395751Y-106714170D02*
X153392041Y-106710460D01*
X153388465Y-106710460D02*
X153209964Y-106531959D01*
X153392041Y-106710460D02*
X153388465Y-106710460D01*
%TO.N,Net-(J2-Pin_1)*%
X153257250Y-106131959D02*
X153171750Y-106131959D01*
X153038152Y-106131959D02*
X152588152Y-106131959D01*
X153352227Y-106226936D02*
X153257250Y-106131959D01*
X153171750Y-106131959D02*
X153038152Y-106131959D01*
%TD*%
M02*
