%TF.GenerationSoftware,KiCad,Pcbnew,10.0.1*%
%TF.CreationDate,2026-07-31T22:44:01+02:00*%
%TF.ProjectId,yubi-clone,79756269-2d63-46c6-9f6e-652e6b696361,rev?*%
%TF.SameCoordinates,Original*%
%TF.FileFunction,Copper,L3,Inr*%
%TF.FilePolarity,Positive*%
%FSLAX46Y46*%
G04 Gerber Fmt 4.6, Leading zero omitted, Abs format (unit mm)*
G04 Created by KiCad (PCBNEW 10.0.1) date 2026-07-31 22:44:01*
%MOMM*%
%LPD*%
G01*
G04 APERTURE LIST*
%TA.AperFunction,ComponentPad*%
%ADD10R,1.700000X1.700000*%
%TD*%
%TA.AperFunction,ComponentPad*%
%ADD11C,1.700000*%
%TD*%
%TA.AperFunction,ViaPad*%
%ADD12C,0.250250*%
%TD*%
%TA.AperFunction,ViaPad*%
%ADD13C,0.250000*%
%TD*%
G04 APERTURE END LIST*
D10*
%TO.N,Net-(J2-Pin_1)*%
%TO.C,J2*%
X228280000Y-99840000D03*
D11*
%TO.N,Net-(J2-Pin_2)*%
X228280000Y-102380000D03*
%TO.N,/NRST*%
X228280000Y-104920000D03*
%TO.N,+3V3*%
X228280000Y-107460000D03*
%TO.N,GND*%
X228280000Y-110000000D03*
%TD*%
D12*
%TO.N,GND*%
X209160000Y-103260000D03*
X197903269Y-107795962D03*
X185284824Y-111289179D03*
X191561649Y-106759234D03*
X223632672Y-99036124D03*
X191932771Y-110052996D03*
X184923014Y-100650558D03*
X189400000Y-102240000D03*
X220240000Y-104431747D03*
X216246480Y-106523475D03*
X188487283Y-100810667D03*
X188948095Y-109156377D03*
X198877450Y-99332988D03*
X195921625Y-102580446D03*
X212312865Y-100187689D03*
X217758763Y-98533303D03*
X229596697Y-108927055D03*
X219435858Y-101687235D03*
X190116268Y-111446697D03*
X204521369Y-101493501D03*
X190343351Y-100539737D03*
X222193949Y-105805729D03*
X190911132Y-106110000D03*
X209159896Y-107980108D03*
X223647047Y-98533303D03*
X185950000Y-109470000D03*
X212871677Y-109793359D03*
X212909478Y-105454006D03*
X211889748Y-111446697D03*
X191021268Y-103273378D03*
X225363567Y-100532527D03*
X193018139Y-101420725D03*
X229596697Y-106328617D03*
X183493303Y-105636969D03*
X208329549Y-104939936D03*
X221050000Y-98950000D03*
X226982357Y-104167437D03*
X193887055Y-98533303D03*
X196485493Y-98533303D03*
X186101676Y-110361676D03*
X222548003Y-106704862D03*
X200002649Y-106099333D03*
X210584195Y-100722642D03*
X201469231Y-100316820D03*
X205200640Y-109236382D03*
X229596697Y-101131741D03*
X219030935Y-107149784D03*
X185830000Y-103900000D03*
X189345000Y-110338242D03*
X191288617Y-98533303D03*
X201475186Y-108353777D03*
X224860350Y-108658649D03*
X221349065Y-110968713D03*
X195152910Y-103827594D03*
X198397844Y-110332032D03*
X196396600Y-105694844D03*
X211409025Y-110417323D03*
X213005804Y-101999155D03*
X192869936Y-103449965D03*
X224038458Y-108826730D03*
X215948283Y-102120403D03*
X186091741Y-98533303D03*
X183493303Y-98533303D03*
X229596697Y-103730179D03*
X213458763Y-98533303D03*
X206212662Y-106102504D03*
X193812845Y-108985008D03*
X229596697Y-98533303D03*
X188690179Y-98533303D03*
X183493303Y-108235407D03*
X207691306Y-100316843D03*
X189264309Y-107630000D03*
X216370935Y-111446697D03*
X200007374Y-102120033D03*
X224936033Y-105908883D03*
X197002168Y-108575681D03*
X195006008Y-105391430D03*
X207600338Y-109694176D03*
X207119808Y-101493501D03*
X185480000Y-106490000D03*
X215673865Y-102495946D03*
X197020000Y-102645501D03*
X218961653Y-111446697D03*
X198212921Y-99661434D03*
X224550603Y-105536561D03*
X223911653Y-111446697D03*
X202607742Y-104096314D03*
X227094155Y-107347941D03*
X211162954Y-99671450D03*
X215470646Y-108705694D03*
X203855312Y-106726206D03*
X221888916Y-101356997D03*
X199143986Y-111446697D03*
X196044031Y-111446697D03*
X183493303Y-103038530D03*
X226919463Y-111446697D03*
X218118071Y-104910092D03*
X208816450Y-98533303D03*
%TO.N,VBUS*%
X189377843Y-103740000D03*
D13*
X189522828Y-107000000D03*
D12*
%TO.N,/OSC_IN*%
X211418399Y-107090278D03*
X214540399Y-109128045D03*
%TO.N,/SDA*%
X206411321Y-108365538D03*
X212238654Y-108037336D03*
%TO.N,Net-(R3-Pad1)*%
X213534022Y-101108071D03*
X195465201Y-102491790D03*
%TO.N,/NRST*%
X218571221Y-102312579D03*
X211551095Y-103768358D03*
%TO.N,Net-(R4-Pad1)*%
X219719071Y-100568724D03*
X192818575Y-101001043D03*
%TO.N,Net-(J2-Pin_1)*%
X202190849Y-107235600D03*
%TO.N,Net-(J2-Pin_2)*%
X200437977Y-110725465D03*
D13*
%TO.N,Net-(U4-CC1)*%
X191040000Y-105580000D03*
X189333902Y-105610000D03*
D12*
%TO.N,/D+*%
X189359763Y-104947864D03*
D13*
X191400000Y-104930000D03*
D12*
X187257594Y-105034854D03*
X190297027Y-107100784D03*
%TO.N,/D-*%
X192679129Y-105611737D03*
X187185764Y-104701121D03*
%TO.N,Net-(U4-CC2)*%
X190362070Y-103468116D03*
%TO.N,Net-(U1-PA12)*%
X194498779Y-107679753D03*
X197864297Y-107279993D03*
%TO.N,Net-(U1-PA11)*%
X197849642Y-106758682D03*
X194580091Y-106871175D03*
%TO.N,/PH3-BOOT0*%
X217838098Y-101193457D03*
X207062753Y-106751812D03*
%TO.N,/SCL*%
X195058160Y-100564542D03*
X215918727Y-108830906D03*
X205331206Y-109683240D03*
%TO.N,Net-(U1-PH1)*%
X209253229Y-106148354D03*
X211635826Y-105600000D03*
%TO.N,/PA0*%
X211250602Y-102273807D03*
X214103777Y-102568337D03*
%TO.N,/PA15*%
X201364785Y-109683246D03*
X185850351Y-99480000D03*
%TD*%
%TA.AperFunction,Conductor*%
%TO.N,GND*%
G36*
X229839692Y-98290309D02*
G01*
X229843119Y-98298582D01*
X229843119Y-111681419D01*
X229839692Y-111689692D01*
X229831419Y-111693119D01*
X183258582Y-111693119D01*
X183250309Y-111689692D01*
X183246882Y-111681419D01*
X183246882Y-110682790D01*
X200223452Y-110682790D01*
X200223452Y-110768139D01*
X200253946Y-110841758D01*
X200256111Y-110846984D01*
X200316458Y-110907331D01*
X200366178Y-110927925D01*
X200395302Y-110939989D01*
X200395303Y-110939989D01*
X200395305Y-110939990D01*
X200395307Y-110939990D01*
X200480647Y-110939990D01*
X200480649Y-110939990D01*
X200559496Y-110907331D01*
X200619843Y-110846984D01*
X200652502Y-110768137D01*
X200652502Y-110682793D01*
X200619843Y-110603946D01*
X200559496Y-110543599D01*
X200559494Y-110543598D01*
X200480651Y-110510940D01*
X200480649Y-110510940D01*
X200395305Y-110510940D01*
X200395302Y-110510940D01*
X200316459Y-110543598D01*
X200256110Y-110603947D01*
X200223452Y-110682790D01*
X183246882Y-110682790D01*
X183246882Y-109913781D01*
X227404600Y-109913781D01*
X227404600Y-110086218D01*
X227438241Y-110255345D01*
X227504229Y-110414656D01*
X227504233Y-110414664D01*
X227600031Y-110558034D01*
X227600034Y-110558038D01*
X227629566Y-110587570D01*
X227895015Y-110322121D01*
X227957877Y-110384983D01*
X227692429Y-110650432D01*
X227721961Y-110679965D01*
X227721965Y-110679968D01*
X227865335Y-110775766D01*
X227865343Y-110775770D01*
X228024654Y-110841758D01*
X228193782Y-110875400D01*
X228366218Y-110875400D01*
X228535345Y-110841758D01*
X228694656Y-110775770D01*
X228694664Y-110775766D01*
X228838032Y-110679970D01*
X228867570Y-110650432D01*
X228602122Y-110384984D01*
X228664984Y-110322122D01*
X228930432Y-110587570D01*
X228959970Y-110558032D01*
X229055766Y-110414664D01*
X229055770Y-110414656D01*
X229121758Y-110255345D01*
X229155400Y-110086218D01*
X229155400Y-109913781D01*
X229121758Y-109744654D01*
X229055770Y-109585343D01*
X229055766Y-109585335D01*
X228959968Y-109441965D01*
X228959965Y-109441961D01*
X228930432Y-109412429D01*
X228664983Y-109677877D01*
X228602121Y-109615015D01*
X228867570Y-109349567D01*
X228867570Y-109349566D01*
X228838038Y-109320034D01*
X228838034Y-109320031D01*
X228694664Y-109224233D01*
X228694656Y-109224229D01*
X228535345Y-109158241D01*
X228366218Y-109124600D01*
X228193782Y-109124600D01*
X228024654Y-109158241D01*
X227865343Y-109224229D01*
X227865335Y-109224233D01*
X227721965Y-109320031D01*
X227721961Y-109320034D01*
X227692429Y-109349567D01*
X227957878Y-109615016D01*
X227895016Y-109677878D01*
X227629567Y-109412429D01*
X227600034Y-109441961D01*
X227600031Y-109441965D01*
X227504233Y-109585335D01*
X227504229Y-109585343D01*
X227438241Y-109744654D01*
X227404600Y-109913781D01*
X183246882Y-109913781D01*
X183246882Y-100500435D01*
X186119500Y-100500435D01*
X186119500Y-100579564D01*
X186139977Y-100655987D01*
X186139979Y-100655991D01*
X186179537Y-100724507D01*
X186179539Y-100724510D01*
X186179540Y-100724511D01*
X186235489Y-100780460D01*
X186235490Y-100780461D01*
X186235492Y-100780462D01*
X186304008Y-100820020D01*
X186304012Y-100820022D01*
X186364285Y-100836171D01*
X186380435Y-100840499D01*
X186380436Y-100840500D01*
X186380438Y-100840500D01*
X187017800Y-100840500D01*
X187026073Y-100843927D01*
X187029500Y-100852200D01*
X187029500Y-100979777D01*
X187028927Y-100983392D01*
X187019499Y-101012408D01*
X187019499Y-101012412D01*
X187019500Y-101107602D01*
X187019501Y-101107603D01*
X187028927Y-101136609D01*
X187029500Y-101140225D01*
X187029500Y-101627800D01*
X187026073Y-101636073D01*
X187017800Y-101639500D01*
X186640435Y-101639500D01*
X186564013Y-101659977D01*
X186564012Y-101659978D01*
X186560272Y-101662136D01*
X186557029Y-101663409D01*
X186497028Y-101677105D01*
X186385267Y-101730926D01*
X186385259Y-101730931D01*
X186288274Y-101808274D01*
X186210931Y-101905259D01*
X186210926Y-101905267D01*
X186157105Y-102017028D01*
X186129500Y-102137974D01*
X186129500Y-107769777D01*
X186128927Y-107773393D01*
X186119500Y-107802405D01*
X186119500Y-107914579D01*
X186152925Y-108039325D01*
X186152927Y-108039329D01*
X186217499Y-108151170D01*
X186217501Y-108151173D01*
X186217502Y-108151174D01*
X186308826Y-108242498D01*
X186308827Y-108242499D01*
X186308829Y-108242500D01*
X186420670Y-108307072D01*
X186420674Y-108307074D01*
X186519058Y-108333435D01*
X186545420Y-108340499D01*
X186545422Y-108340500D01*
X186545423Y-108340500D01*
X186570438Y-108340500D01*
X187017800Y-108340500D01*
X187026073Y-108343927D01*
X187029500Y-108352200D01*
X187029500Y-109127800D01*
X187026073Y-109136073D01*
X187017800Y-109139500D01*
X186380435Y-109139500D01*
X186304012Y-109159977D01*
X186304008Y-109159979D01*
X186235492Y-109199537D01*
X186235487Y-109199541D01*
X186179541Y-109255487D01*
X186179537Y-109255492D01*
X186139979Y-109324008D01*
X186139977Y-109324012D01*
X186119500Y-109400435D01*
X186119500Y-109479564D01*
X186139977Y-109555987D01*
X186139979Y-109555991D01*
X186179537Y-109624507D01*
X186179539Y-109624510D01*
X186179540Y-109624511D01*
X186235489Y-109680460D01*
X186235490Y-109680461D01*
X186235492Y-109680462D01*
X186304008Y-109720020D01*
X186304012Y-109720022D01*
X186364285Y-109736171D01*
X186380435Y-109740499D01*
X186380436Y-109740500D01*
X186380438Y-109740500D01*
X187369564Y-109740500D01*
X187369564Y-109740499D01*
X187407775Y-109730260D01*
X187445987Y-109720022D01*
X187445991Y-109720020D01*
X187492803Y-109692993D01*
X187514511Y-109680460D01*
X187554400Y-109640571D01*
X201150260Y-109640571D01*
X201150260Y-109725920D01*
X201182917Y-109804760D01*
X201182919Y-109804765D01*
X201243266Y-109865112D01*
X201292986Y-109885706D01*
X201322110Y-109897770D01*
X201322111Y-109897770D01*
X201322113Y-109897771D01*
X201322115Y-109897771D01*
X201407455Y-109897771D01*
X201407457Y-109897771D01*
X201486304Y-109865112D01*
X201546651Y-109804765D01*
X201579310Y-109725918D01*
X201579310Y-109640574D01*
X201579306Y-109640565D01*
X205116681Y-109640565D01*
X205116681Y-109725914D01*
X205149339Y-109804757D01*
X205149340Y-109804759D01*
X205209687Y-109865106D01*
X205259407Y-109885700D01*
X205288531Y-109897764D01*
X205288532Y-109897764D01*
X205288534Y-109897765D01*
X205288536Y-109897765D01*
X205373876Y-109897765D01*
X205373878Y-109897765D01*
X205452725Y-109865106D01*
X205513072Y-109804759D01*
X205545731Y-109725912D01*
X205545731Y-109640568D01*
X205539080Y-109624512D01*
X205522853Y-109585335D01*
X205513072Y-109561721D01*
X205452725Y-109501374D01*
X205449408Y-109500000D01*
X205373880Y-109468715D01*
X205373878Y-109468715D01*
X205288534Y-109468715D01*
X205288531Y-109468715D01*
X205209688Y-109501373D01*
X205149339Y-109561722D01*
X205116681Y-109640565D01*
X201579306Y-109640565D01*
X201546651Y-109561727D01*
X201486304Y-109501380D01*
X201486290Y-109501374D01*
X201407459Y-109468721D01*
X201407457Y-109468721D01*
X201322113Y-109468721D01*
X201322110Y-109468721D01*
X201243267Y-109501379D01*
X201182918Y-109561728D01*
X201150260Y-109640571D01*
X187554400Y-109640571D01*
X187570460Y-109624511D01*
X187610021Y-109555989D01*
X187630499Y-109479564D01*
X187630500Y-109479564D01*
X187630500Y-109085370D01*
X214325874Y-109085370D01*
X214325874Y-109170719D01*
X214358532Y-109249562D01*
X214358533Y-109249564D01*
X214418880Y-109309911D01*
X214468600Y-109330505D01*
X214497724Y-109342569D01*
X214497725Y-109342569D01*
X214497727Y-109342570D01*
X214497729Y-109342570D01*
X214583069Y-109342570D01*
X214583071Y-109342570D01*
X214661918Y-109309911D01*
X214722265Y-109249564D01*
X214754924Y-109170717D01*
X214754924Y-109085373D01*
X214722265Y-109006526D01*
X214661918Y-108946179D01*
X214661916Y-108946178D01*
X214583073Y-108913520D01*
X214583071Y-108913520D01*
X214497727Y-108913520D01*
X214497724Y-108913520D01*
X214418881Y-108946178D01*
X214358532Y-109006527D01*
X214325874Y-109085370D01*
X187630500Y-109085370D01*
X187630500Y-108788231D01*
X215704202Y-108788231D01*
X215704202Y-108873580D01*
X215720746Y-108913520D01*
X215736861Y-108952425D01*
X215797208Y-109012772D01*
X215846928Y-109033366D01*
X215876052Y-109045430D01*
X215876053Y-109045430D01*
X215876055Y-109045431D01*
X215876057Y-109045431D01*
X215961397Y-109045431D01*
X215961399Y-109045431D01*
X216040246Y-109012772D01*
X216100593Y-108952425D01*
X216133252Y-108873578D01*
X216133252Y-108788234D01*
X216100593Y-108709387D01*
X216040246Y-108649040D01*
X216040244Y-108649039D01*
X215961401Y-108616381D01*
X215961399Y-108616381D01*
X215876055Y-108616381D01*
X215876052Y-108616381D01*
X215797209Y-108649039D01*
X215736860Y-108709388D01*
X215704202Y-108788231D01*
X187630500Y-108788231D01*
X187630500Y-108322863D01*
X206196796Y-108322863D01*
X206196796Y-108408212D01*
X206229454Y-108487055D01*
X206229455Y-108487057D01*
X206289802Y-108547404D01*
X206339522Y-108567998D01*
X206368646Y-108580062D01*
X206368647Y-108580062D01*
X206368649Y-108580063D01*
X206368651Y-108580063D01*
X206453991Y-108580063D01*
X206453993Y-108580063D01*
X206532840Y-108547404D01*
X206593187Y-108487057D01*
X206625846Y-108408210D01*
X206625846Y-108322866D01*
X206619304Y-108307073D01*
X206596435Y-108251861D01*
X206593187Y-108244019D01*
X206532840Y-108183672D01*
X206532838Y-108183671D01*
X206453995Y-108151013D01*
X206453993Y-108151013D01*
X206368649Y-108151013D01*
X206368646Y-108151013D01*
X206289803Y-108183671D01*
X206229454Y-108244020D01*
X206196796Y-108322863D01*
X187630500Y-108322863D01*
X187630500Y-108000436D01*
X187629456Y-107996541D01*
X187629456Y-107996540D01*
X187628953Y-107994661D01*
X212024129Y-107994661D01*
X212024129Y-108080010D01*
X212053540Y-108151013D01*
X212056788Y-108158855D01*
X212117135Y-108219202D01*
X212166855Y-108239796D01*
X212195979Y-108251860D01*
X212195980Y-108251860D01*
X212195982Y-108251861D01*
X212195984Y-108251861D01*
X212281324Y-108251861D01*
X212281326Y-108251861D01*
X212360173Y-108219202D01*
X212420520Y-108158855D01*
X212453179Y-108080008D01*
X212453179Y-107994664D01*
X212420520Y-107915817D01*
X212360173Y-107855470D01*
X212360171Y-107855469D01*
X212281328Y-107822811D01*
X212281326Y-107822811D01*
X212195982Y-107822811D01*
X212195979Y-107822811D01*
X212117136Y-107855469D01*
X212056787Y-107915818D01*
X212024129Y-107994661D01*
X187628953Y-107994661D01*
X187610022Y-107924012D01*
X187610020Y-107924008D01*
X187570462Y-107855492D01*
X187570458Y-107855487D01*
X187514512Y-107799541D01*
X187514507Y-107799537D01*
X187445991Y-107759979D01*
X187445987Y-107759977D01*
X187369565Y-107739500D01*
X187369562Y-107739500D01*
X186742200Y-107739500D01*
X186733927Y-107736073D01*
X186730500Y-107727800D01*
X186730500Y-107637078D01*
X194284254Y-107637078D01*
X194284254Y-107722427D01*
X194316196Y-107799541D01*
X194316913Y-107801272D01*
X194377260Y-107861619D01*
X194426980Y-107882213D01*
X194456104Y-107894277D01*
X194456105Y-107894277D01*
X194456107Y-107894278D01*
X194456109Y-107894278D01*
X194541449Y-107894278D01*
X194541451Y-107894278D01*
X194620298Y-107861619D01*
X194680645Y-107801272D01*
X194713304Y-107722425D01*
X194713304Y-107637081D01*
X194680645Y-107558234D01*
X194620298Y-107497887D01*
X194620296Y-107497886D01*
X194541453Y-107465228D01*
X194541451Y-107465228D01*
X194456107Y-107465228D01*
X194456104Y-107465228D01*
X194377261Y-107497886D01*
X194316912Y-107558235D01*
X194284254Y-107637078D01*
X186730500Y-107637078D01*
X186730500Y-106957350D01*
X189308428Y-106957350D01*
X189308428Y-107042649D01*
X189331409Y-107098127D01*
X189341069Y-107121448D01*
X189401380Y-107181759D01*
X189436371Y-107196253D01*
X189480178Y-107214399D01*
X189480179Y-107214399D01*
X189480181Y-107214400D01*
X189480183Y-107214400D01*
X189565473Y-107214400D01*
X189565475Y-107214400D01*
X189644276Y-107181759D01*
X189704587Y-107121448D01*
X189730822Y-107058112D01*
X189730823Y-107058109D01*
X190082502Y-107058109D01*
X190082502Y-107143458D01*
X190115160Y-107222301D01*
X190115161Y-107222303D01*
X190175508Y-107282650D01*
X190225228Y-107303244D01*
X190254352Y-107315308D01*
X190254353Y-107315308D01*
X190254355Y-107315309D01*
X190254357Y-107315309D01*
X190339697Y-107315309D01*
X190339699Y-107315309D01*
X190418546Y-107282650D01*
X190463878Y-107237318D01*
X197649772Y-107237318D01*
X197649772Y-107322667D01*
X197668333Y-107367477D01*
X197682431Y-107401512D01*
X197742778Y-107461859D01*
X197750912Y-107465228D01*
X197821622Y-107494517D01*
X197821623Y-107494517D01*
X197821625Y-107494518D01*
X197821627Y-107494518D01*
X197906967Y-107494518D01*
X197906969Y-107494518D01*
X197985816Y-107461859D01*
X198046163Y-107401512D01*
X198078822Y-107322665D01*
X198078822Y-107237321D01*
X198072602Y-107222304D01*
X198061812Y-107196253D01*
X198060433Y-107192925D01*
X201976324Y-107192925D01*
X201976324Y-107278274D01*
X202008982Y-107357117D01*
X202008983Y-107357119D01*
X202069330Y-107417466D01*
X202119050Y-107438060D01*
X202148174Y-107450124D01*
X202148175Y-107450124D01*
X202148177Y-107450125D01*
X202148179Y-107450125D01*
X202233519Y-107450125D01*
X202233521Y-107450125D01*
X202312368Y-107417466D01*
X202362357Y-107367477D01*
X227340600Y-107367477D01*
X227340600Y-107552522D01*
X227376701Y-107734013D01*
X227447514Y-107904971D01*
X227447518Y-107904979D01*
X227550320Y-108058831D01*
X227550323Y-108058835D01*
X227681164Y-108189676D01*
X227681168Y-108189679D01*
X227835020Y-108292481D01*
X227835024Y-108292483D01*
X227835027Y-108292485D01*
X228005987Y-108363299D01*
X228187477Y-108399400D01*
X228187478Y-108399400D01*
X228372522Y-108399400D01*
X228372523Y-108399400D01*
X228554013Y-108363299D01*
X228724973Y-108292485D01*
X228878832Y-108189679D01*
X229009679Y-108058832D01*
X229112485Y-107904973D01*
X229183299Y-107734013D01*
X229219400Y-107552523D01*
X229219400Y-107367477D01*
X229183299Y-107185987D01*
X229112485Y-107015027D01*
X229112483Y-107015024D01*
X229112481Y-107015020D01*
X229009679Y-106861168D01*
X229009676Y-106861164D01*
X228878835Y-106730323D01*
X228878831Y-106730320D01*
X228724979Y-106627518D01*
X228724971Y-106627514D01*
X228554013Y-106556701D01*
X228372523Y-106520600D01*
X228187477Y-106520600D01*
X228103587Y-106537287D01*
X228005986Y-106556701D01*
X227835028Y-106627514D01*
X227835020Y-106627518D01*
X227681168Y-106730320D01*
X227681164Y-106730323D01*
X227550323Y-106861164D01*
X227550320Y-106861168D01*
X227447518Y-107015020D01*
X227447514Y-107015028D01*
X227376701Y-107185986D01*
X227340600Y-107367477D01*
X202362357Y-107367477D01*
X202372715Y-107357119D01*
X202405374Y-107278272D01*
X202405374Y-107192928D01*
X202372715Y-107114081D01*
X202312368Y-107053734D01*
X202309348Y-107052483D01*
X202297567Y-107047603D01*
X211203874Y-107047603D01*
X211203874Y-107132952D01*
X211236532Y-107211795D01*
X211236533Y-107211797D01*
X211296880Y-107272144D01*
X211346600Y-107292738D01*
X211375724Y-107304802D01*
X211375725Y-107304802D01*
X211375727Y-107304803D01*
X211375729Y-107304803D01*
X211461069Y-107304803D01*
X211461071Y-107304803D01*
X211539918Y-107272144D01*
X211600265Y-107211797D01*
X211632924Y-107132950D01*
X211632924Y-107047606D01*
X211600265Y-106968759D01*
X211539918Y-106908412D01*
X211539916Y-106908411D01*
X211461073Y-106875753D01*
X211461071Y-106875753D01*
X211375727Y-106875753D01*
X211375724Y-106875753D01*
X211296881Y-106908411D01*
X211236532Y-106968760D01*
X211203874Y-107047603D01*
X202297567Y-107047603D01*
X202233523Y-107021075D01*
X202233521Y-107021075D01*
X202148177Y-107021075D01*
X202148174Y-107021075D01*
X202069331Y-107053733D01*
X202008982Y-107114082D01*
X201976324Y-107192925D01*
X198060433Y-107192925D01*
X198046163Y-107158475D01*
X198046162Y-107158473D01*
X197985817Y-107098128D01*
X197985816Y-107098127D01*
X197985814Y-107098126D01*
X197906971Y-107065468D01*
X197906969Y-107065468D01*
X197821625Y-107065468D01*
X197821622Y-107065468D01*
X197742779Y-107098126D01*
X197682430Y-107158475D01*
X197649772Y-107237318D01*
X190463878Y-107237318D01*
X190478893Y-107222303D01*
X190511552Y-107143456D01*
X190511552Y-107058112D01*
X190509220Y-107052483D01*
X190484455Y-106992694D01*
X190478893Y-106979265D01*
X190418546Y-106918918D01*
X190418544Y-106918917D01*
X190339701Y-106886259D01*
X190339699Y-106886259D01*
X190254355Y-106886259D01*
X190254352Y-106886259D01*
X190175509Y-106918917D01*
X190115160Y-106979266D01*
X190082502Y-107058109D01*
X189730823Y-107058109D01*
X189733154Y-107052483D01*
X189737227Y-107042649D01*
X189737228Y-107042647D01*
X189737228Y-106957353D01*
X189704587Y-106878552D01*
X189654535Y-106828500D01*
X194365566Y-106828500D01*
X194365566Y-106913849D01*
X194392663Y-106979266D01*
X194398225Y-106992694D01*
X194458572Y-107053041D01*
X194488574Y-107065468D01*
X194537416Y-107085699D01*
X194537417Y-107085699D01*
X194537419Y-107085700D01*
X194537421Y-107085700D01*
X194622761Y-107085700D01*
X194622763Y-107085700D01*
X194701610Y-107053041D01*
X194761957Y-106992694D01*
X194794616Y-106913847D01*
X194794616Y-106828503D01*
X194790365Y-106818241D01*
X194761957Y-106749657D01*
X194761956Y-106749655D01*
X194728308Y-106716007D01*
X197635117Y-106716007D01*
X197635117Y-106801356D01*
X197667093Y-106878552D01*
X197667776Y-106880201D01*
X197728123Y-106940548D01*
X197768697Y-106957354D01*
X197806967Y-106973206D01*
X197806968Y-106973206D01*
X197806970Y-106973207D01*
X197806972Y-106973207D01*
X197892312Y-106973207D01*
X197892314Y-106973207D01*
X197971161Y-106940548D01*
X198031508Y-106880201D01*
X198064167Y-106801354D01*
X198064167Y-106716010D01*
X198061321Y-106709140D01*
X198061320Y-106709137D01*
X206848228Y-106709137D01*
X206848228Y-106794486D01*
X206862319Y-106828504D01*
X206880887Y-106873331D01*
X206941234Y-106933678D01*
X206990954Y-106954272D01*
X207020078Y-106966336D01*
X207020079Y-106966336D01*
X207020081Y-106966337D01*
X207020083Y-106966337D01*
X207105423Y-106966337D01*
X207105425Y-106966337D01*
X207184272Y-106933678D01*
X207244619Y-106873331D01*
X207277278Y-106794484D01*
X207277278Y-106709140D01*
X207269063Y-106689308D01*
X207247465Y-106637164D01*
X207244619Y-106630293D01*
X207184272Y-106569946D01*
X207184270Y-106569945D01*
X207105427Y-106537287D01*
X207105425Y-106537287D01*
X207020081Y-106537287D01*
X207020078Y-106537287D01*
X206941235Y-106569945D01*
X206880886Y-106630294D01*
X206848228Y-106709137D01*
X198061320Y-106709137D01*
X198048093Y-106677205D01*
X198031508Y-106637163D01*
X197971161Y-106576816D01*
X197954578Y-106569947D01*
X197892316Y-106544157D01*
X197892314Y-106544157D01*
X197806970Y-106544157D01*
X197806967Y-106544157D01*
X197728124Y-106576815D01*
X197667775Y-106637164D01*
X197635117Y-106716007D01*
X194728308Y-106716007D01*
X194701611Y-106689310D01*
X194701610Y-106689309D01*
X194701608Y-106689308D01*
X194622765Y-106656650D01*
X194622763Y-106656650D01*
X194537419Y-106656650D01*
X194537416Y-106656650D01*
X194458573Y-106689308D01*
X194398224Y-106749657D01*
X194365566Y-106828500D01*
X189654535Y-106828500D01*
X189644276Y-106818241D01*
X189644274Y-106818240D01*
X189565477Y-106785600D01*
X189565475Y-106785600D01*
X189480181Y-106785600D01*
X189480178Y-106785600D01*
X189401381Y-106818240D01*
X189341068Y-106878553D01*
X189308428Y-106957350D01*
X186730500Y-106957350D01*
X186730500Y-106105679D01*
X209038704Y-106105679D01*
X209038704Y-106191028D01*
X209071362Y-106269871D01*
X209071363Y-106269873D01*
X209131710Y-106330220D01*
X209181430Y-106350814D01*
X209210554Y-106362878D01*
X209210555Y-106362878D01*
X209210557Y-106362879D01*
X209210559Y-106362879D01*
X209295899Y-106362879D01*
X209295901Y-106362879D01*
X209374748Y-106330220D01*
X209435095Y-106269873D01*
X209467754Y-106191026D01*
X209467754Y-106105682D01*
X209435095Y-106026835D01*
X209374748Y-105966488D01*
X209374746Y-105966487D01*
X209295903Y-105933829D01*
X209295901Y-105933829D01*
X209210557Y-105933829D01*
X209210554Y-105933829D01*
X209131711Y-105966487D01*
X209071362Y-106026836D01*
X209038704Y-106105679D01*
X186730500Y-106105679D01*
X186730500Y-105567350D01*
X189119502Y-105567350D01*
X189119502Y-105652649D01*
X189152142Y-105731446D01*
X189152143Y-105731448D01*
X189212454Y-105791759D01*
X189262143Y-105812341D01*
X189291252Y-105824399D01*
X189291253Y-105824399D01*
X189291255Y-105824400D01*
X189291257Y-105824400D01*
X189376547Y-105824400D01*
X189376549Y-105824400D01*
X189455350Y-105791759D01*
X189515661Y-105731448D01*
X189548302Y-105652647D01*
X189548302Y-105567353D01*
X189544150Y-105557329D01*
X189537253Y-105540678D01*
X189535874Y-105537350D01*
X190825600Y-105537350D01*
X190825600Y-105622649D01*
X190838756Y-105654409D01*
X190858241Y-105701448D01*
X190918552Y-105761759D01*
X190967091Y-105781865D01*
X190997350Y-105794399D01*
X190997351Y-105794399D01*
X190997353Y-105794400D01*
X190997355Y-105794400D01*
X191082645Y-105794400D01*
X191082647Y-105794400D01*
X191161448Y-105761759D01*
X191221759Y-105701448D01*
X191254400Y-105622647D01*
X191254400Y-105569062D01*
X192464604Y-105569062D01*
X192464604Y-105654411D01*
X192497262Y-105733254D01*
X192497263Y-105733256D01*
X192557610Y-105793603D01*
X192607330Y-105814197D01*
X192636454Y-105826261D01*
X192636455Y-105826261D01*
X192636457Y-105826262D01*
X192636459Y-105826262D01*
X192721799Y-105826262D01*
X192721801Y-105826262D01*
X192800648Y-105793603D01*
X192860995Y-105733256D01*
X192893654Y-105654409D01*
X192893654Y-105569065D01*
X192893653Y-105569062D01*
X192890170Y-105560653D01*
X192888791Y-105557325D01*
X211421301Y-105557325D01*
X211421301Y-105642674D01*
X211445646Y-105701448D01*
X211453960Y-105721519D01*
X211514307Y-105781866D01*
X211564027Y-105802460D01*
X211593151Y-105814524D01*
X211593152Y-105814524D01*
X211593154Y-105814525D01*
X211593156Y-105814525D01*
X211678496Y-105814525D01*
X211678498Y-105814525D01*
X211757345Y-105781866D01*
X211817692Y-105721519D01*
X211850351Y-105642672D01*
X211850351Y-105557328D01*
X211843454Y-105540678D01*
X211822554Y-105490219D01*
X211817692Y-105478481D01*
X211757345Y-105418134D01*
X211757343Y-105418133D01*
X211678500Y-105385475D01*
X211678498Y-105385475D01*
X211593154Y-105385475D01*
X211593151Y-105385475D01*
X211514308Y-105418133D01*
X211453959Y-105478482D01*
X211421301Y-105557325D01*
X192888791Y-105557325D01*
X192860995Y-105490219D01*
X192860994Y-105490217D01*
X192800649Y-105429872D01*
X192800648Y-105429871D01*
X192800646Y-105429870D01*
X192721803Y-105397212D01*
X192721801Y-105397212D01*
X192636457Y-105397212D01*
X192636454Y-105397212D01*
X192557611Y-105429870D01*
X192497262Y-105490219D01*
X192464604Y-105569062D01*
X191254400Y-105569062D01*
X191254400Y-105537353D01*
X191246729Y-105518835D01*
X191234186Y-105488553D01*
X191221759Y-105458552D01*
X191161448Y-105398241D01*
X191158964Y-105397212D01*
X191082649Y-105365600D01*
X191082647Y-105365600D01*
X190997353Y-105365600D01*
X190997350Y-105365600D01*
X190918553Y-105398240D01*
X190858240Y-105458553D01*
X190825600Y-105537350D01*
X189535874Y-105537350D01*
X189527592Y-105517357D01*
X189515661Y-105488552D01*
X189455350Y-105428241D01*
X189455348Y-105428240D01*
X189376551Y-105395600D01*
X189376549Y-105395600D01*
X189291255Y-105395600D01*
X189291252Y-105395600D01*
X189212455Y-105428240D01*
X189152142Y-105488553D01*
X189119502Y-105567350D01*
X186730500Y-105567350D01*
X186730500Y-104658446D01*
X186971239Y-104658446D01*
X186971239Y-104743795D01*
X186998063Y-104808553D01*
X187003898Y-104822640D01*
X187064245Y-104882987D01*
X187077646Y-104888537D01*
X187083978Y-104894869D01*
X187083979Y-104903824D01*
X187081443Y-104907620D01*
X187075727Y-104913336D01*
X187043069Y-104992179D01*
X187043069Y-105077528D01*
X187075727Y-105156371D01*
X187075728Y-105156373D01*
X187136075Y-105216720D01*
X187185795Y-105237314D01*
X187214919Y-105249378D01*
X187214920Y-105249378D01*
X187214922Y-105249379D01*
X187214924Y-105249379D01*
X187300264Y-105249379D01*
X187300266Y-105249379D01*
X187379113Y-105216720D01*
X187439460Y-105156373D01*
X187472119Y-105077526D01*
X187472119Y-104992182D01*
X187471436Y-104990534D01*
X187439460Y-104913336D01*
X187439459Y-104913334D01*
X187431314Y-104905189D01*
X189145238Y-104905189D01*
X189145238Y-104990538D01*
X189177896Y-105069381D01*
X189177897Y-105069383D01*
X189238244Y-105129730D01*
X189273659Y-105144399D01*
X189317088Y-105162388D01*
X189317089Y-105162388D01*
X189317091Y-105162389D01*
X189317093Y-105162389D01*
X189402433Y-105162389D01*
X189402435Y-105162389D01*
X189481282Y-105129730D01*
X189541629Y-105069383D01*
X189574288Y-104990536D01*
X189574288Y-104905192D01*
X189566898Y-104887350D01*
X191185600Y-104887350D01*
X191185600Y-104972649D01*
X191193692Y-104992183D01*
X191218241Y-105051448D01*
X191278552Y-105111759D01*
X191321935Y-105129729D01*
X191357350Y-105144399D01*
X191357351Y-105144399D01*
X191357353Y-105144400D01*
X191357355Y-105144400D01*
X191442645Y-105144400D01*
X191442647Y-105144400D01*
X191521448Y-105111759D01*
X191581759Y-105051448D01*
X191614400Y-104972647D01*
X191614400Y-104887353D01*
X191600166Y-104852989D01*
X191591215Y-104831379D01*
X191589599Y-104827477D01*
X227340600Y-104827477D01*
X227340600Y-105012523D01*
X227369214Y-105156373D01*
X227376701Y-105194013D01*
X227447514Y-105364971D01*
X227447518Y-105364979D01*
X227550320Y-105518831D01*
X227550323Y-105518835D01*
X227681164Y-105649676D01*
X227681168Y-105649679D01*
X227835020Y-105752481D01*
X227835024Y-105752483D01*
X227835027Y-105752485D01*
X228005987Y-105823299D01*
X228187477Y-105859400D01*
X228187478Y-105859400D01*
X228372522Y-105859400D01*
X228372523Y-105859400D01*
X228554013Y-105823299D01*
X228724973Y-105752485D01*
X228878832Y-105649679D01*
X229009679Y-105518832D01*
X229112485Y-105364973D01*
X229183299Y-105194013D01*
X229219400Y-105012523D01*
X229219400Y-104827477D01*
X229183299Y-104645987D01*
X229112485Y-104475027D01*
X229112483Y-104475024D01*
X229112481Y-104475020D01*
X229009679Y-104321168D01*
X229009676Y-104321164D01*
X228878835Y-104190323D01*
X228878831Y-104190320D01*
X228724979Y-104087518D01*
X228724971Y-104087514D01*
X228554013Y-104016701D01*
X228372523Y-103980600D01*
X228187477Y-103980600D01*
X228096732Y-103998650D01*
X228005986Y-104016701D01*
X227835028Y-104087514D01*
X227835020Y-104087518D01*
X227681168Y-104190320D01*
X227681164Y-104190323D01*
X227550323Y-104321164D01*
X227550320Y-104321168D01*
X227447518Y-104475020D01*
X227447514Y-104475028D01*
X227376701Y-104645986D01*
X227356361Y-104748240D01*
X227340600Y-104827477D01*
X191589599Y-104827477D01*
X191587594Y-104822638D01*
X191581759Y-104808552D01*
X191521448Y-104748241D01*
X191510710Y-104743793D01*
X191442649Y-104715600D01*
X191442647Y-104715600D01*
X191357353Y-104715600D01*
X191357350Y-104715600D01*
X191278553Y-104748240D01*
X191218240Y-104808553D01*
X191185600Y-104887350D01*
X189566898Y-104887350D01*
X189541629Y-104826345D01*
X189481282Y-104765998D01*
X189481280Y-104765997D01*
X189402437Y-104733339D01*
X189402435Y-104733339D01*
X189317091Y-104733339D01*
X189317088Y-104733339D01*
X189238245Y-104765997D01*
X189177896Y-104826346D01*
X189145238Y-104905189D01*
X187431314Y-104905189D01*
X187379114Y-104852989D01*
X187379113Y-104852988D01*
X187379111Y-104852987D01*
X187365710Y-104847436D01*
X187359378Y-104841104D01*
X187359378Y-104832150D01*
X187361911Y-104828358D01*
X187367630Y-104822640D01*
X187400289Y-104743793D01*
X187400289Y-104658449D01*
X187367630Y-104579602D01*
X187307283Y-104519255D01*
X187307281Y-104519254D01*
X187228438Y-104486596D01*
X187228436Y-104486596D01*
X187143092Y-104486596D01*
X187143089Y-104486596D01*
X187064246Y-104519254D01*
X187003897Y-104579603D01*
X186971239Y-104658446D01*
X186730500Y-104658446D01*
X186730500Y-103697325D01*
X189163318Y-103697325D01*
X189163318Y-103782674D01*
X189195976Y-103861517D01*
X189195977Y-103861519D01*
X189256324Y-103921866D01*
X189306044Y-103942460D01*
X189335168Y-103954524D01*
X189335169Y-103954524D01*
X189335171Y-103954525D01*
X189335173Y-103954525D01*
X189420513Y-103954525D01*
X189420515Y-103954525D01*
X189499362Y-103921866D01*
X189559709Y-103861519D01*
X189592368Y-103782672D01*
X189592368Y-103725683D01*
X211336570Y-103725683D01*
X211336570Y-103811032D01*
X211357482Y-103861517D01*
X211369229Y-103889877D01*
X211429576Y-103950224D01*
X211439960Y-103954525D01*
X211508420Y-103982882D01*
X211508421Y-103982882D01*
X211508423Y-103982883D01*
X211508425Y-103982883D01*
X211593765Y-103982883D01*
X211593767Y-103982883D01*
X211672614Y-103950224D01*
X211732961Y-103889877D01*
X211765620Y-103811030D01*
X211765620Y-103725686D01*
X211732961Y-103646839D01*
X211672614Y-103586492D01*
X211672612Y-103586491D01*
X211593769Y-103553833D01*
X211593767Y-103553833D01*
X211508423Y-103553833D01*
X211508420Y-103553833D01*
X211429577Y-103586491D01*
X211369228Y-103646840D01*
X211336570Y-103725683D01*
X189592368Y-103725683D01*
X189592368Y-103697328D01*
X189559709Y-103618481D01*
X189499362Y-103558134D01*
X189499360Y-103558133D01*
X189420517Y-103525475D01*
X189420515Y-103525475D01*
X189335171Y-103525475D01*
X189335168Y-103525475D01*
X189256325Y-103558133D01*
X189195976Y-103618482D01*
X189163318Y-103697325D01*
X186730500Y-103697325D01*
X186730500Y-103425441D01*
X190147545Y-103425441D01*
X190147545Y-103510790D01*
X190180203Y-103589633D01*
X190180204Y-103589635D01*
X190240551Y-103649982D01*
X190290271Y-103670576D01*
X190319395Y-103682640D01*
X190319396Y-103682640D01*
X190319398Y-103682641D01*
X190319400Y-103682641D01*
X190404740Y-103682641D01*
X190404742Y-103682641D01*
X190483589Y-103649982D01*
X190543936Y-103589635D01*
X190576595Y-103510788D01*
X190576595Y-103425444D01*
X190543936Y-103346597D01*
X190483589Y-103286250D01*
X190476465Y-103283299D01*
X190404744Y-103253591D01*
X190404742Y-103253591D01*
X190319398Y-103253591D01*
X190319395Y-103253591D01*
X190240552Y-103286249D01*
X190180203Y-103346598D01*
X190147545Y-103425441D01*
X186730500Y-103425441D01*
X186730500Y-102449115D01*
X195250676Y-102449115D01*
X195250676Y-102534464D01*
X195282381Y-102611007D01*
X195283335Y-102613309D01*
X195343682Y-102673656D01*
X195382788Y-102689854D01*
X195422526Y-102706314D01*
X195422527Y-102706314D01*
X195422529Y-102706315D01*
X195422531Y-102706315D01*
X195507871Y-102706315D01*
X195507873Y-102706315D01*
X195586720Y-102673656D01*
X195647067Y-102613309D01*
X195679726Y-102534462D01*
X195679726Y-102525662D01*
X213889252Y-102525662D01*
X213889252Y-102611011D01*
X213915200Y-102673655D01*
X213921911Y-102689856D01*
X213982258Y-102750203D01*
X214031978Y-102770797D01*
X214061102Y-102782861D01*
X214061103Y-102782861D01*
X214061105Y-102782862D01*
X214061107Y-102782862D01*
X214146447Y-102782862D01*
X214146449Y-102782862D01*
X214225296Y-102750203D01*
X214285643Y-102689856D01*
X214318302Y-102611009D01*
X214318302Y-102525665D01*
X214285643Y-102446818D01*
X214225296Y-102386471D01*
X214225294Y-102386470D01*
X214146451Y-102353812D01*
X214146449Y-102353812D01*
X214061105Y-102353812D01*
X214061102Y-102353812D01*
X213982259Y-102386470D01*
X213921910Y-102446819D01*
X213889252Y-102525662D01*
X195679726Y-102525662D01*
X195679726Y-102449118D01*
X195678773Y-102446818D01*
X195657444Y-102395324D01*
X195647067Y-102370271D01*
X195586720Y-102309924D01*
X195586718Y-102309923D01*
X195507875Y-102277265D01*
X195507873Y-102277265D01*
X195422529Y-102277265D01*
X195422526Y-102277265D01*
X195343683Y-102309923D01*
X195283334Y-102370272D01*
X195250676Y-102449115D01*
X186730500Y-102449115D01*
X186730500Y-102258055D01*
X186731558Y-102255500D01*
X186731775Y-102252743D01*
X186733206Y-102251520D01*
X186733927Y-102249782D01*
X186738584Y-102246928D01*
X186756607Y-102241072D01*
X186760222Y-102240500D01*
X187369564Y-102240500D01*
X187369564Y-102240499D01*
X187404521Y-102231132D01*
X211036077Y-102231132D01*
X211036077Y-102316481D01*
X211068735Y-102395324D01*
X211068736Y-102395326D01*
X211129083Y-102455673D01*
X211169761Y-102472522D01*
X211207927Y-102488331D01*
X211207928Y-102488331D01*
X211207930Y-102488332D01*
X211207932Y-102488332D01*
X211293272Y-102488332D01*
X211293274Y-102488332D01*
X211372121Y-102455673D01*
X211432468Y-102395326D01*
X211465127Y-102316479D01*
X211465127Y-102269904D01*
X218356696Y-102269904D01*
X218356696Y-102355253D01*
X218389354Y-102434096D01*
X218389355Y-102434098D01*
X218449702Y-102494445D01*
X218499422Y-102515039D01*
X218528546Y-102527103D01*
X218528547Y-102527103D01*
X218528549Y-102527104D01*
X218528551Y-102527104D01*
X218613891Y-102527104D01*
X218613893Y-102527104D01*
X218692740Y-102494445D01*
X218753087Y-102434098D01*
X218785746Y-102355251D01*
X218785746Y-102287477D01*
X227340600Y-102287477D01*
X227340600Y-102472523D01*
X227368147Y-102611009D01*
X227376701Y-102654013D01*
X227447514Y-102824971D01*
X227447518Y-102824979D01*
X227550320Y-102978831D01*
X227550323Y-102978835D01*
X227681164Y-103109676D01*
X227681168Y-103109679D01*
X227835020Y-103212481D01*
X227835024Y-103212483D01*
X227835027Y-103212485D01*
X228005987Y-103283299D01*
X228187477Y-103319400D01*
X228187478Y-103319400D01*
X228372522Y-103319400D01*
X228372523Y-103319400D01*
X228554013Y-103283299D01*
X228724973Y-103212485D01*
X228878832Y-103109679D01*
X229009679Y-102978832D01*
X229112485Y-102824973D01*
X229183299Y-102654013D01*
X229219400Y-102472523D01*
X229219400Y-102287477D01*
X229183299Y-102105987D01*
X229112485Y-101935027D01*
X229112483Y-101935024D01*
X229112481Y-101935020D01*
X229009679Y-101781168D01*
X229009676Y-101781164D01*
X228878835Y-101650323D01*
X228878831Y-101650320D01*
X228724979Y-101547518D01*
X228724971Y-101547514D01*
X228554013Y-101476701D01*
X228372523Y-101440600D01*
X228187477Y-101440600D01*
X228096732Y-101458650D01*
X228005986Y-101476701D01*
X227835028Y-101547514D01*
X227835020Y-101547518D01*
X227681168Y-101650320D01*
X227681164Y-101650323D01*
X227550323Y-101781164D01*
X227550320Y-101781168D01*
X227447518Y-101935020D01*
X227447514Y-101935028D01*
X227376701Y-102105986D01*
X227358000Y-102200001D01*
X227340600Y-102287477D01*
X218785746Y-102287477D01*
X218785746Y-102269907D01*
X218753087Y-102191060D01*
X218692740Y-102130713D01*
X218692738Y-102130712D01*
X218613895Y-102098054D01*
X218613893Y-102098054D01*
X218528549Y-102098054D01*
X218528546Y-102098054D01*
X218449703Y-102130712D01*
X218389354Y-102191061D01*
X218356696Y-102269904D01*
X211465127Y-102269904D01*
X211465127Y-102231135D01*
X211432468Y-102152288D01*
X211372121Y-102091941D01*
X211372119Y-102091940D01*
X211293276Y-102059282D01*
X211293274Y-102059282D01*
X211207930Y-102059282D01*
X211207927Y-102059282D01*
X211129084Y-102091940D01*
X211068735Y-102152289D01*
X211036077Y-102231132D01*
X187404521Y-102231132D01*
X187407775Y-102230260D01*
X187445987Y-102220022D01*
X187446287Y-102219849D01*
X187446289Y-102219848D01*
X187496153Y-102191059D01*
X187514511Y-102180460D01*
X187570460Y-102124511D01*
X187610021Y-102055989D01*
X187630499Y-101979564D01*
X187630500Y-101979564D01*
X187630500Y-101028982D01*
X187630501Y-101001695D01*
X187630500Y-101001686D01*
X187630500Y-100958368D01*
X192604050Y-100958368D01*
X192604050Y-101043717D01*
X192630512Y-101107602D01*
X192636709Y-101122562D01*
X192697056Y-101182909D01*
X192746776Y-101203503D01*
X192775900Y-101215567D01*
X192775901Y-101215567D01*
X192775903Y-101215568D01*
X192775905Y-101215568D01*
X192861245Y-101215568D01*
X192861247Y-101215568D01*
X192940094Y-101182909D01*
X193000441Y-101122562D01*
X193024120Y-101065396D01*
X213319497Y-101065396D01*
X213319497Y-101150745D01*
X213346348Y-101215568D01*
X213352156Y-101229590D01*
X213412503Y-101289937D01*
X213462223Y-101310531D01*
X213491347Y-101322595D01*
X213491348Y-101322595D01*
X213491350Y-101322596D01*
X213491352Y-101322596D01*
X213576692Y-101322596D01*
X213576694Y-101322596D01*
X213655541Y-101289937D01*
X213715888Y-101229590D01*
X213748531Y-101150782D01*
X217623573Y-101150782D01*
X217623573Y-101236131D01*
X217656231Y-101314974D01*
X217656232Y-101314976D01*
X217716579Y-101375323D01*
X217766299Y-101395917D01*
X217795423Y-101407981D01*
X217795424Y-101407981D01*
X217795426Y-101407982D01*
X217795428Y-101407982D01*
X217880768Y-101407982D01*
X217880770Y-101407982D01*
X217959617Y-101375323D01*
X218019964Y-101314976D01*
X218052623Y-101236129D01*
X218052623Y-101150785D01*
X218052606Y-101150745D01*
X218019964Y-101071939D01*
X218019963Y-101071937D01*
X217959618Y-101011592D01*
X217959617Y-101011591D01*
X217937457Y-101002412D01*
X217880772Y-100978932D01*
X217880770Y-100978932D01*
X217795426Y-100978932D01*
X217795423Y-100978932D01*
X217716580Y-101011590D01*
X217656231Y-101071939D01*
X217623573Y-101150782D01*
X213748531Y-101150782D01*
X213748547Y-101150743D01*
X213748547Y-101065399D01*
X213746215Y-101059770D01*
X213722457Y-101002412D01*
X213715888Y-100986552D01*
X213655541Y-100926205D01*
X213655539Y-100926204D01*
X213576696Y-100893546D01*
X213576694Y-100893546D01*
X213491350Y-100893546D01*
X213491347Y-100893546D01*
X213412504Y-100926204D01*
X213352155Y-100986553D01*
X213319497Y-101065396D01*
X193024120Y-101065396D01*
X193033100Y-101043715D01*
X193033100Y-100958371D01*
X193000441Y-100879524D01*
X192940094Y-100819177D01*
X192940092Y-100819176D01*
X192861249Y-100786518D01*
X192861247Y-100786518D01*
X192775903Y-100786518D01*
X192775900Y-100786518D01*
X192697057Y-100819176D01*
X192636708Y-100879525D01*
X192604050Y-100958368D01*
X187630500Y-100958368D01*
X187630500Y-100521867D01*
X194843635Y-100521867D01*
X194843635Y-100607216D01*
X194876293Y-100686059D01*
X194876294Y-100686061D01*
X194936641Y-100746408D01*
X194956064Y-100754453D01*
X195015485Y-100779066D01*
X195015486Y-100779066D01*
X195015488Y-100779067D01*
X195015490Y-100779067D01*
X195100830Y-100779067D01*
X195100832Y-100779067D01*
X195179679Y-100746408D01*
X195240026Y-100686061D01*
X195272685Y-100607214D01*
X195272685Y-100526049D01*
X219504546Y-100526049D01*
X219504546Y-100611398D01*
X219535472Y-100686059D01*
X219537205Y-100690243D01*
X219597552Y-100750590D01*
X219647272Y-100771184D01*
X219676396Y-100783248D01*
X219676397Y-100783248D01*
X219676399Y-100783249D01*
X219676401Y-100783249D01*
X219761741Y-100783249D01*
X219761743Y-100783249D01*
X219840590Y-100750590D01*
X219900937Y-100690243D01*
X219933596Y-100611396D01*
X219933596Y-100526052D01*
X219922986Y-100500438D01*
X219900937Y-100447206D01*
X219900936Y-100447204D01*
X219840591Y-100386859D01*
X219840590Y-100386858D01*
X219840588Y-100386857D01*
X219761745Y-100354199D01*
X219761743Y-100354199D01*
X219676399Y-100354199D01*
X219676396Y-100354199D01*
X219597553Y-100386857D01*
X219537204Y-100447206D01*
X219504546Y-100526049D01*
X195272685Y-100526049D01*
X195272685Y-100521870D01*
X195263806Y-100500435D01*
X195260620Y-100492743D01*
X195240026Y-100443023D01*
X195179679Y-100382676D01*
X195179677Y-100382675D01*
X195100834Y-100350017D01*
X195100832Y-100350017D01*
X195015488Y-100350017D01*
X195015485Y-100350017D01*
X194936642Y-100382675D01*
X194876293Y-100443024D01*
X194843635Y-100521867D01*
X187630500Y-100521867D01*
X187630500Y-100500435D01*
X187610022Y-100424012D01*
X187610020Y-100424008D01*
X187570462Y-100355492D01*
X187570458Y-100355487D01*
X187514512Y-100299541D01*
X187514507Y-100299537D01*
X187445991Y-100259979D01*
X187445987Y-100259977D01*
X187369565Y-100239500D01*
X187369562Y-100239500D01*
X186380438Y-100239500D01*
X186380435Y-100239500D01*
X186304012Y-100259977D01*
X186304008Y-100259979D01*
X186235492Y-100299537D01*
X186235487Y-100299541D01*
X186179541Y-100355487D01*
X186179537Y-100355492D01*
X186139979Y-100424008D01*
X186139977Y-100424012D01*
X186119500Y-100500435D01*
X183246882Y-100500435D01*
X183246882Y-99437325D01*
X185635826Y-99437325D01*
X185635826Y-99522674D01*
X185668484Y-99601517D01*
X185668485Y-99601519D01*
X185728832Y-99661866D01*
X185778552Y-99682460D01*
X185807676Y-99694524D01*
X185807677Y-99694524D01*
X185807679Y-99694525D01*
X185807681Y-99694525D01*
X185893021Y-99694525D01*
X185893023Y-99694525D01*
X185971870Y-99661866D01*
X186032217Y-99601519D01*
X186064876Y-99522672D01*
X186064876Y-99437328D01*
X186032217Y-99358481D01*
X185971870Y-99298134D01*
X185971868Y-99298133D01*
X185893025Y-99265475D01*
X185893023Y-99265475D01*
X185807679Y-99265475D01*
X185807676Y-99265475D01*
X185728833Y-99298133D01*
X185668484Y-99358482D01*
X185635826Y-99437325D01*
X183246882Y-99437325D01*
X183246882Y-98981196D01*
X227340600Y-98981196D01*
X227340600Y-100698801D01*
X227345785Y-100724878D01*
X227345787Y-100724882D01*
X227362965Y-100750590D01*
X227365547Y-100754453D01*
X227395118Y-100774213D01*
X227421197Y-100779400D01*
X229138802Y-100779399D01*
X229151653Y-100776843D01*
X229164878Y-100774214D01*
X229164878Y-100774213D01*
X229164882Y-100774213D01*
X229194453Y-100754453D01*
X229214213Y-100724882D01*
X229219400Y-100698803D01*
X229219399Y-98981198D01*
X229214213Y-98955118D01*
X229194453Y-98925547D01*
X229164882Y-98905787D01*
X229164881Y-98905786D01*
X229138803Y-98900600D01*
X227421198Y-98900600D01*
X227395121Y-98905785D01*
X227395117Y-98905787D01*
X227365547Y-98925546D01*
X227365546Y-98925547D01*
X227345787Y-98955117D01*
X227345786Y-98955118D01*
X227340600Y-98981196D01*
X183246882Y-98981196D01*
X183246882Y-98298582D01*
X183250309Y-98290309D01*
X183258582Y-98286882D01*
X229831419Y-98286882D01*
X229839692Y-98290309D01*
G37*
%TD.AperFunction*%
%TD*%
M02*
