M48
; DRILL file KiCad 10.0.1 date 2026-07-31T22:44:01
; FORMAT={-:-/ absolute / inch / decimal}
; #@! TF.CreationDate,2026-07-31T22:44:01+02:00
; #@! TF.GenerationSoftware,Kicad,Pcbnew,10.0.1
; #@! TF.FileFunction,Plated,1,4,PTH
FMAT,2
INCH
; #@! TA.AperFunction,Plated,PTH,ViaDrill
T1C0.0059
; #@! TA.AperFunction,Plated,PTH,ViaDrill
T2C0.0059
; #@! TA.AperFunction,Plated,PTH,ComponentDrill
T3C0.0394
%
G90
G05
T1
X7.4541Y-4.1579
X7.4615Y-4.2126
X7.5213Y-4.1567
X7.5354Y-4.1311
T2
X7.2241Y-3.8793
X7.2241Y-4.0566
X7.2241Y-4.1589
X7.2241Y-4.2612
X7.2804Y-3.9626
X7.2947Y-4.3815
X7.3024Y-4.1925
X7.3161Y-4.0906
X7.3169Y-3.9165
X7.3209Y-4.3098
X7.3264Y-3.8793
X7.3268Y-4.3449
X7.3695Y-4.1221
X7.3723Y-4.1352
X7.4208Y-3.9689
X7.4287Y-3.8793
X7.4389Y-4.2975
X7.4514Y-4.2374
X7.4545Y-4.344
X7.4551Y-4.1318
X7.4558Y-4.0843
X7.4567Y-4.0252
X7.4849Y-4.3877
X7.492Y-4.2166
X7.4938Y-3.9583
X7.4946Y-4.0735
X7.5162Y-4.1776
X7.5205Y-4.0659
X7.531Y-3.8793
X7.5418Y-4.2031
X7.5564Y-4.3328
X7.5858Y-4.1579
X7.5913Y-3.9764
X7.5933Y-4.0728
X7.5991Y-3.9929
X7.6304Y-4.2907
X7.6333Y-3.8793
X7.6574Y-4.2394
X7.6606Y-4.2075
X7.6774Y-4.1493
X7.6795Y-3.9592
X7.6832Y-4.0877
X7.6955Y-4.0351
X7.7134Y-4.0386
X7.7183Y-4.3877
X7.7321Y-4.1612
X7.7356Y-3.8793
X7.756Y-4.2746
X7.7567Y-4.0412
X7.7894Y-4.2031
X7.7899Y-4.2236
X7.7915Y-4.2439
X7.8037Y-3.9237
X7.8109Y-4.3438
X7.8298Y-3.9107
X7.8403Y-4.3877
X7.8741Y-4.1771
X7.8743Y-4.0205
X7.8913Y-4.3593
X7.9277Y-4.3182
X7.9319Y-3.9495
X7.9321Y-4.2659
X7.9603Y-4.2219
X7.9767Y-4.0983
X8.0258Y-4.2018
X8.052Y-3.9958
X8.0788Y-4.3006
X8.0839Y-4.3182
X8.1186Y-4.1773
X8.1264Y-4.2664
X8.1521Y-4.2028
X8.1543Y-3.9958
X8.1732Y-4.3187
X8.1768Y-3.9495
X8.202Y-4.1315
X8.2211Y-3.8793
X8.2346Y-4.2512
X8.2346Y-4.0654
X8.2383Y-4.1791
X8.2907Y-3.9655
X8.3135Y-3.9241
X8.317Y-4.0265
X8.3232Y-4.3471
X8.3236Y-4.2162
X8.3288Y-4.0854
X8.3321Y-4.1575
X8.3421Y-4.3877
X8.3559Y-4.2534
X8.3588Y-3.9444
X8.3808Y-4.3226
X8.3823Y-4.1517
X8.3861Y-4.0157
X8.4039Y-3.8793
X8.4069Y-3.9806
X8.4293Y-4.0381
X8.4465Y-4.2964
X8.4831Y-4.2798
X8.4911Y-4.0353
X8.5007Y-4.2847
X8.5019Y-4.0205
X8.5136Y-4.1938
X8.5185Y-4.3877
X8.5732Y-3.8793
X8.5763Y-3.984
X8.5873Y-4.1303
X8.6052Y-4.0281
X8.6205Y-4.3877
X8.6233Y-4.2185
X8.6392Y-4.0034
X8.6504Y-3.9594
X8.6709Y-4.1115
X8.7028Y-3.8957
X8.7145Y-4.3688
X8.7358Y-3.9904
X8.7478Y-4.1656
X8.7617Y-4.201
X8.8044Y-3.8991
X8.805Y-3.8793
X8.8154Y-4.3877
X8.8204Y-4.2845
X8.8406Y-4.155
X8.8528Y-4.2779
X8.8557Y-4.1696
X8.8726Y-3.958
X8.9338Y-4.3877
X8.9363Y-4.1011
X8.9407Y-4.2263
X9.0392Y-3.8793
X9.0392Y-3.9816
X9.0392Y-4.0839
X9.0392Y-4.1862
X9.0392Y-4.2885
T3
X8.9874Y-3.9307
X8.9874Y-4.0307
X8.9874Y-4.1307
X8.9874Y-4.2307
X8.9874Y-4.3307
M30
