%TF.GenerationSoftware,KiCad,Pcbnew,10.0.1*%
%TF.CreationDate,2026-07-31T22:44:01+02:00*%
%TF.ProjectId,yubi-clone,79756269-2d63-46c6-9f6e-652e6b696361,rev?*%
%TF.SameCoordinates,Original*%
%TF.FileFunction,Paste,Top*%
%TF.FilePolarity,Positive*%
%FSLAX46Y46*%
G04 Gerber Fmt 4.6, Leading zero omitted, Abs format (unit mm)*
G04 Created by KiCad (PCBNEW 10.0.1) date 2026-07-31 22:44:01*
%MOMM*%
%LPD*%
G01*
G04 APERTURE LIST*
G04 Aperture macros list*
%AMRoundRect*
0 Rectangle with rounded corners*
0 $1 Rounding radius*
0 $2 $3 $4 $5 $6 $7 $8 $9 X,Y pos of 4 corners*
0 Add a 4 corners polygon primitive as box body*
4,1,4,$2,$3,$4,$5,$6,$7,$8,$9,$2,$3,0*
0 Add four circle primitives for the rounded corners*
1,1,$1+$1,$2,$3*
1,1,$1+$1,$4,$5*
1,1,$1+$1,$6,$7*
1,1,$1+$1,$8,$9*
0 Add four rect primitives between the rounded corners*
20,1,$1+$1,$2,$3,$4,$5,0*
20,1,$1+$1,$4,$5,$6,$7,0*
20,1,$1+$1,$6,$7,$8,$9,0*
20,1,$1+$1,$8,$9,$2,$3,0*%
G04 Aperture macros list end*
%ADD10RoundRect,0.225000X0.250000X-0.225000X0.250000X0.225000X-0.250000X0.225000X-0.250000X-0.225000X0*%
%ADD11RoundRect,0.225000X-0.250000X0.225000X-0.250000X-0.225000X0.250000X-0.225000X0.250000X0.225000X0*%
%ADD12RoundRect,0.218750X-0.218750X-0.256250X0.218750X-0.256250X0.218750X0.256250X-0.218750X0.256250X0*%
%ADD13RoundRect,0.225000X0.225000X0.250000X-0.225000X0.250000X-0.225000X-0.250000X0.225000X-0.250000X0*%
%ADD14RoundRect,0.200000X0.275000X-0.200000X0.275000X0.200000X-0.275000X0.200000X-0.275000X-0.200000X0*%
%ADD15RoundRect,0.200000X0.200000X0.275000X-0.200000X0.275000X-0.200000X-0.275000X0.200000X-0.275000X0*%
%ADD16R,1.200000X0.650000*%
%ADD17RoundRect,0.225000X-0.225000X-0.250000X0.225000X-0.250000X0.225000X0.250000X-0.225000X0.250000X0*%
%ADD18R,1.200000X1.800000*%
%ADD19R,1.400000X0.700000*%
%ADD20R,1.500000X0.300000*%
%ADD21RoundRect,0.150000X0.825000X0.150000X-0.825000X0.150000X-0.825000X-0.150000X0.825000X-0.150000X0*%
%ADD22RoundRect,0.075000X0.700000X0.075000X-0.700000X0.075000X-0.700000X-0.075000X0.700000X-0.075000X0*%
%ADD23RoundRect,0.075000X0.075000X0.700000X-0.075000X0.700000X-0.075000X-0.700000X0.075000X-0.700000X0*%
%ADD24RoundRect,0.200000X-0.200000X-0.275000X0.200000X-0.275000X0.200000X0.275000X-0.200000X0.275000X0*%
%ADD25RoundRect,0.150000X-0.512500X-0.150000X0.512500X-0.150000X0.512500X0.150000X-0.512500X0.150000X0*%
G04 APERTURE END LIST*
D10*
%TO.C,C5*%
X212230000Y-102435000D03*
X212230000Y-100885000D03*
%TD*%
D11*
%TO.C,C7*%
X197020000Y-100420000D03*
X197020000Y-101970000D03*
%TD*%
D12*
%TO.C,D1*%
X186062500Y-111000000D03*
X187637500Y-111000000D03*
%TD*%
D13*
%TO.C,C9*%
X190895000Y-111050000D03*
X189345000Y-111050000D03*
%TD*%
%TO.C,C2*%
X196768372Y-104575495D03*
X195218372Y-104575495D03*
%TD*%
D14*
%TO.C,R10*%
X217373059Y-105378806D03*
X217373059Y-103728806D03*
%TD*%
D15*
%TO.C,R3*%
X194236575Y-102754716D03*
X192586575Y-102754716D03*
%TD*%
D16*
%TO.C,SW2*%
X224550000Y-101110000D03*
X220250000Y-101110000D03*
X224550000Y-98950000D03*
X220250000Y-98950000D03*
%TD*%
D13*
%TO.C,C4*%
X199645000Y-98920000D03*
X198095000Y-98920000D03*
%TD*%
D17*
%TO.C,C8*%
X209590000Y-98920000D03*
X211140000Y-98920000D03*
%TD*%
D11*
%TO.C,C1*%
X215528919Y-103232573D03*
X215528919Y-104782573D03*
%TD*%
D18*
%TO.C,Y1*%
X215430000Y-110910000D03*
X215430000Y-106910000D03*
X213030000Y-106910000D03*
X213030000Y-110910000D03*
%TD*%
D19*
%TO.C,U4*%
X188430000Y-108590000D03*
D20*
X188370000Y-107740000D03*
X188370000Y-107240000D03*
X188370000Y-106740000D03*
X188370000Y-106240000D03*
X188370000Y-105740000D03*
X188370000Y-105240000D03*
X188370000Y-104740000D03*
X188370000Y-104240000D03*
X188370000Y-103740000D03*
X188370000Y-103240000D03*
X188370000Y-102740000D03*
X188370000Y-102240000D03*
%TD*%
D17*
%TO.C,C6*%
X209555000Y-111110000D03*
X211105000Y-111110000D03*
%TD*%
D14*
%TO.C,R16*%
X190264192Y-109384521D03*
X190264192Y-107734521D03*
%TD*%
%TO.C,R15*%
X193399231Y-107199586D03*
X193399231Y-105549586D03*
%TD*%
%TO.C,R13*%
X190264192Y-106107118D03*
X190264192Y-104457118D03*
%TD*%
%TO.C,R14*%
X190264192Y-102829716D03*
X190264192Y-101179716D03*
%TD*%
D16*
%TO.C,SW1*%
X218670000Y-101090000D03*
X214370000Y-101090000D03*
X218670000Y-98930000D03*
X214370000Y-98930000D03*
%TD*%
D21*
%TO.C,U3*%
X222665000Y-111045000D03*
X222665000Y-109775000D03*
X222665000Y-108505000D03*
X222665000Y-107235000D03*
X217715000Y-107235000D03*
X217715000Y-108505000D03*
X217715000Y-109775000D03*
X217715000Y-111045000D03*
%TD*%
D17*
%TO.C,C10*%
X196825000Y-111040000D03*
X198375000Y-111040000D03*
%TD*%
D10*
%TO.C,C11*%
X224760000Y-110915000D03*
X224760000Y-109365000D03*
%TD*%
D22*
%TO.C,U1*%
X210245000Y-108750000D03*
X210245000Y-108250000D03*
X210245000Y-107750000D03*
X210245000Y-107250000D03*
X210245000Y-106750000D03*
X210245000Y-106250000D03*
X210245000Y-105750000D03*
X210245000Y-105250000D03*
X210245000Y-104750000D03*
X210245000Y-104250000D03*
X210245000Y-103750000D03*
X210245000Y-103250000D03*
X210245000Y-102750000D03*
X210245000Y-102250000D03*
X210245000Y-101750000D03*
X210245000Y-101250000D03*
D23*
X208320000Y-99325000D03*
X207820000Y-99325000D03*
X207320000Y-99325000D03*
X206820000Y-99325000D03*
X206320000Y-99325000D03*
X205820000Y-99325000D03*
X205320000Y-99325000D03*
X204820000Y-99325000D03*
X204320000Y-99325000D03*
X203820000Y-99325000D03*
X203320000Y-99325000D03*
X202820000Y-99325000D03*
X202320000Y-99325000D03*
X201820000Y-99325000D03*
X201320000Y-99325000D03*
X200820000Y-99325000D03*
D22*
X198895000Y-101250000D03*
X198895000Y-101750000D03*
X198895000Y-102250000D03*
X198895000Y-102750000D03*
X198895000Y-103250000D03*
X198895000Y-103750000D03*
X198895000Y-104250000D03*
X198895000Y-104750000D03*
X198895000Y-105250000D03*
X198895000Y-105750000D03*
X198895000Y-106250000D03*
X198895000Y-106750000D03*
X198895000Y-107250000D03*
X198895000Y-107750000D03*
X198895000Y-108250000D03*
X198895000Y-108750000D03*
D23*
X200820000Y-110675000D03*
X201320000Y-110675000D03*
X201820000Y-110675000D03*
X202320000Y-110675000D03*
X202820000Y-110675000D03*
X203320000Y-110675000D03*
X203820000Y-110675000D03*
X204320000Y-110675000D03*
X204820000Y-110675000D03*
X205320000Y-110675000D03*
X205820000Y-110675000D03*
X206320000Y-110675000D03*
X206820000Y-110675000D03*
X207320000Y-110675000D03*
X207820000Y-110675000D03*
X208320000Y-110675000D03*
%TD*%
D24*
%TO.C,R11*%
X185175000Y-99460000D03*
X186825000Y-99460000D03*
%TD*%
D10*
%TO.C,C3*%
X196240000Y-107915000D03*
X196240000Y-106365000D03*
%TD*%
D14*
%TO.C,R4*%
X192108333Y-101008936D03*
X192108333Y-99358936D03*
%TD*%
%TO.C,R9*%
X194136888Y-101008936D03*
X194136888Y-99358936D03*
%TD*%
D25*
%TO.C,U2*%
X192812500Y-109190000D03*
X192812500Y-110140000D03*
X192812500Y-111090000D03*
X195087500Y-111090000D03*
X195087500Y-109190000D03*
%TD*%
D15*
%TO.C,R1*%
X213725000Y-105070000D03*
X212075000Y-105070000D03*
%TD*%
D16*
%TO.C,SW4*%
X220240000Y-102820000D03*
X224540000Y-102820000D03*
X220240000Y-104980000D03*
X224540000Y-104980000D03*
%TD*%
M02*
