%TF.GenerationSoftware,KiCad,Pcbnew,10.0.1*%
%TF.CreationDate,2026-07-31T22:44:01+02:00*%
%TF.ProjectId,yubi-clone,79756269-2d63-46c6-9f6e-652e6b696361,rev?*%
%TF.SameCoordinates,Original*%
%TF.FileFunction,Copper,L4,Bot*%
%TF.FilePolarity,Positive*%
%FSLAX46Y46*%
G04 Gerber Fmt 4.6, Leading zero omitted, Abs format (unit mm)*
G04 Created by KiCad (PCBNEW 10.0.1) date 2026-07-31 22:44:01*
%MOMM*%
%LPD*%
G01*
G04 APERTURE LIST*
%TA.AperFunction,ComponentPad*%
%ADD10R,1.700000X1.700000*%
%TD*%
%TA.AperFunction,ComponentPad*%
%ADD11C,1.700000*%
%TD*%
%TA.AperFunction,SMDPad,CuDef*%
%ADD12R,1.400000X0.700000*%
%TD*%
%TA.AperFunction,SMDPad,CuDef*%
%ADD13R,1.500000X0.300000*%
%TD*%
%TA.AperFunction,ViaPad*%
%ADD14C,0.250250*%
%TD*%
%TA.AperFunction,ViaPad*%
%ADD15C,0.250000*%
%TD*%
%TA.AperFunction,Conductor*%
%ADD16C,0.088989*%
%TD*%
%TA.AperFunction,Conductor*%
%ADD17C,0.088900*%
%TD*%
%TA.AperFunction,Conductor*%
%ADD18C,0.156222*%
%TD*%
G04 APERTURE END LIST*
D10*
%TO.P,J2,1,Pin_1_1*%
%TO.N,Net-(J2-Pin_1)*%
X228280000Y-99840000D03*
D11*
%TO.P,J2,2,Pin_2_2*%
%TO.N,Net-(J2-Pin_2)*%
X228280000Y-102380000D03*
%TO.P,J2,3,Pin_3_3*%
%TO.N,/NRST*%
X228280000Y-104920000D03*
%TO.P,J2,4,Pin_4_4*%
%TO.N,+3V3*%
X228280000Y-107460000D03*
%TO.P,J2,5,Pin_5_5*%
%TO.N,GND*%
X228280000Y-110000000D03*
%TD*%
D12*
%TO.P,U4,26,GND_26*%
%TO.N,GND*%
X188430000Y-101390000D03*
D13*
%TO.P,U4,B1,GND_B1*%
X188370000Y-102240000D03*
%TO.P,U4,B2,SSTXp2_B2*%
%TO.N,unconnected-(U4-SSTXp2-PadB2)*%
X188370000Y-102740000D03*
%TO.P,U4,B3,SSTXn2_B3*%
%TO.N,unconnected-(U4-SSTXn2-PadB3)*%
X188370000Y-103240000D03*
%TO.P,U4,B4,VBUS_B4*%
%TO.N,VBUS*%
X188370000Y-103740000D03*
%TO.P,U4,B5,CC2_B5*%
%TO.N,Net-(U4-CC2)*%
X188370000Y-104240000D03*
%TO.P,U4,B6,DP2_B6*%
%TO.N,/D+*%
X188370000Y-104740000D03*
%TO.P,U4,B7,DN2_B7*%
%TO.N,/D-*%
X188370000Y-105240000D03*
%TO.P,U4,B8,SBU2_B8*%
%TO.N,unconnected-(U4-SBU2-PadB8)*%
X188370000Y-105740000D03*
%TO.P,U4,B9,VBUS_B9*%
%TO.N,VBUS*%
X188370000Y-106240000D03*
%TO.P,U4,B10,SSRXn1_B10*%
%TO.N,unconnected-(U4-SSRXn1-PadB10)*%
X188370000Y-106740000D03*
%TO.P,U4,B11,SSRXp1_B11*%
%TO.N,unconnected-(U4-SSRXp1-PadB11)*%
X188370000Y-107240000D03*
%TO.P,U4,B12,GND_B12*%
%TO.N,GND*%
X188370000Y-107740000D03*
%TD*%
D14*
%TO.N,GND*%
X209160000Y-103260000D03*
X197903269Y-107795962D03*
X185284824Y-111289179D03*
X191561649Y-106759234D03*
X223632672Y-99036124D03*
X191932771Y-110052996D03*
X184923014Y-100650558D03*
X189400000Y-102240000D03*
X220240000Y-104431747D03*
X216246480Y-106523475D03*
X188487283Y-100810667D03*
X188948095Y-109156377D03*
X198877450Y-99332988D03*
X195921625Y-102580446D03*
X212312865Y-100187689D03*
X217758763Y-98533303D03*
X229596697Y-108927055D03*
X219435858Y-101687235D03*
X190116268Y-111446697D03*
X204521369Y-101493501D03*
X190343351Y-100539737D03*
X222193949Y-105805729D03*
X190911132Y-106110000D03*
X209159896Y-107980108D03*
X223647047Y-98533303D03*
X185950000Y-109470000D03*
X212871677Y-109793359D03*
X212909478Y-105454006D03*
X211889748Y-111446697D03*
X191021268Y-103273378D03*
X225363567Y-100532527D03*
X193018139Y-101420725D03*
X229596697Y-106328617D03*
X183493303Y-105636969D03*
X208329549Y-104939936D03*
X221050000Y-98950000D03*
X226982357Y-104167437D03*
X193887055Y-98533303D03*
X196485493Y-98533303D03*
X186101676Y-110361676D03*
X222548003Y-106704862D03*
X200002649Y-106099333D03*
X210584195Y-100722642D03*
X201469231Y-100316820D03*
X205200640Y-109236382D03*
X229596697Y-101131741D03*
X219030935Y-107149784D03*
X185830000Y-103900000D03*
X189345000Y-110338242D03*
X191288617Y-98533303D03*
X201475186Y-108353777D03*
X224860350Y-108658649D03*
X221349065Y-110968713D03*
X195152910Y-103827594D03*
X198397844Y-110332032D03*
X196396600Y-105694844D03*
X211409025Y-110417323D03*
X213005804Y-101999155D03*
X192869936Y-103449965D03*
X224038458Y-108826730D03*
X215948283Y-102120403D03*
X186091741Y-98533303D03*
X183493303Y-98533303D03*
X229596697Y-103730179D03*
X213458763Y-98533303D03*
X206212662Y-106102504D03*
X193812845Y-108985008D03*
X229596697Y-98533303D03*
X188690179Y-98533303D03*
X183493303Y-108235407D03*
X207691306Y-100316843D03*
X189264309Y-107630000D03*
X216370935Y-111446697D03*
X200007374Y-102120033D03*
X224936033Y-105908883D03*
X197002168Y-108575681D03*
X195006008Y-105391430D03*
X207600338Y-109694176D03*
X207119808Y-101493501D03*
X185480000Y-106490000D03*
X215673865Y-102495946D03*
X197020000Y-102645501D03*
X218961653Y-111446697D03*
X198212921Y-99661434D03*
X224550603Y-105536561D03*
X223911653Y-111446697D03*
X202607742Y-104096314D03*
X227094155Y-107347941D03*
X211162954Y-99671450D03*
X215470646Y-108705694D03*
X203855312Y-106726206D03*
X221888916Y-101356997D03*
X199143986Y-111446697D03*
X196044031Y-111446697D03*
X183493303Y-103038530D03*
X226919463Y-111446697D03*
X218118071Y-104910092D03*
X208816450Y-98533303D03*
%TO.N,VBUS*%
X189377843Y-103740000D03*
D15*
X189522828Y-107000000D03*
D14*
%TO.N,/OSC_IN*%
X211418399Y-107090278D03*
X214540399Y-109128045D03*
%TO.N,/SDA*%
X206411321Y-108365538D03*
X212238654Y-108037336D03*
%TO.N,Net-(R3-Pad1)*%
X213534022Y-101108071D03*
X195465201Y-102491790D03*
%TO.N,/NRST*%
X218571221Y-102312579D03*
X211551095Y-103768358D03*
%TO.N,Net-(R4-Pad1)*%
X219719071Y-100568724D03*
X192818575Y-101001043D03*
%TO.N,Net-(J2-Pin_1)*%
X202190849Y-107235600D03*
%TO.N,Net-(J2-Pin_2)*%
X200437977Y-110725465D03*
D15*
%TO.N,Net-(U4-CC1)*%
X191040000Y-105580000D03*
X189333902Y-105610000D03*
D14*
%TO.N,/D+*%
X189359763Y-104947864D03*
D15*
X191400000Y-104930000D03*
D14*
X187257594Y-105034854D03*
X190297027Y-107100784D03*
%TO.N,/D-*%
X192679129Y-105611737D03*
X187185764Y-104701121D03*
%TO.N,Net-(U4-CC2)*%
X190362070Y-103468116D03*
%TO.N,Net-(U1-PA12)*%
X194498779Y-107679753D03*
X197864297Y-107279993D03*
%TO.N,Net-(U1-PA11)*%
X197849642Y-106758682D03*
X194580091Y-106871175D03*
%TO.N,/PH3-BOOT0*%
X217838098Y-101193457D03*
X207062753Y-106751812D03*
%TO.N,/SCL*%
X195058160Y-100564542D03*
X215918727Y-108830906D03*
X205331206Y-109683240D03*
%TO.N,Net-(U1-PH1)*%
X209253229Y-106148354D03*
X211635826Y-105600000D03*
%TO.N,/PA0*%
X211250602Y-102273807D03*
X214103777Y-102568337D03*
%TO.N,/PA15*%
X201364785Y-109683246D03*
X185850351Y-99480000D03*
%TD*%
%TO.N,GND*%
D16*
X189154309Y-107740000D02*
X188370000Y-107740000D01*
X188430000Y-101040000D02*
X188430000Y-100917240D01*
X189400000Y-102240000D02*
X188370000Y-102240000D01*
X188430000Y-100917240D02*
X188430000Y-100867950D01*
X188430000Y-101390000D02*
X188430000Y-101040000D01*
X189264309Y-107630000D02*
X189154309Y-107740000D01*
X188430000Y-100867950D02*
X188487283Y-100810667D01*
%TO.N,VBUS*%
D17*
X189522828Y-106792828D02*
X189522828Y-107000000D01*
D16*
X189377843Y-103740000D02*
X188370000Y-103740000D01*
X188370000Y-103740000D02*
X187770000Y-103740000D01*
D17*
X188370000Y-106240000D02*
X188970000Y-106240000D01*
X188970000Y-106240000D02*
X189522828Y-106792828D01*
%TO.N,/OSC_IN*%
D16*
X211418399Y-107090278D02*
X212502632Y-107090278D01*
X212502632Y-107090278D02*
X214540399Y-109128045D01*
%TO.N,/SDA*%
X212238654Y-108037336D02*
X211910453Y-108365538D01*
X211910453Y-108365538D02*
X206411321Y-108365538D01*
%TO.N,Net-(R3-Pad1)*%
X195465201Y-102491790D02*
X196848920Y-101108071D01*
X196848920Y-101108071D02*
X213534022Y-101108071D01*
%TO.N,/NRST*%
X218571221Y-102312579D02*
X217115442Y-103768358D01*
X217115442Y-103768358D02*
X211551095Y-103768358D01*
%TO.N,Net-(R4-Pad1)*%
X218560889Y-99410543D02*
X201170921Y-99410543D01*
X193646441Y-100173177D02*
X192818575Y-101001043D01*
X219719071Y-100568724D02*
X218560889Y-99410543D01*
X200408287Y-100173177D02*
X193646441Y-100173177D01*
X201170921Y-99410543D02*
X200408287Y-100173177D01*
%TO.N,Net-(J2-Pin_1)*%
X228280000Y-99840000D02*
X227430000Y-99840000D01*
X227430000Y-99840000D02*
X227172157Y-99840000D01*
X213768433Y-104049971D02*
X210582803Y-107235600D01*
X219741023Y-104049971D02*
X213768433Y-104049971D01*
X210582803Y-107235600D02*
X202190849Y-107235600D01*
X223950994Y-99840000D02*
X219741023Y-104049971D01*
X227172157Y-99840000D02*
X223950994Y-99840000D01*
%TO.N,Net-(J2-Pin_2)*%
X227977575Y-102682425D02*
X227492827Y-103167173D01*
X201052012Y-110111429D02*
X200437977Y-110725465D01*
X228280000Y-102380000D02*
X227977575Y-102682425D01*
X227492827Y-103167173D02*
X222468467Y-103167173D01*
X215524210Y-110111429D02*
X201052012Y-110111429D01*
X222468467Y-103167173D02*
X215524210Y-110111429D01*
%TO.N,Net-(U4-CC1)*%
X189363902Y-105580000D02*
X191040000Y-105580000D01*
X189333902Y-105610000D02*
X189363902Y-105580000D01*
%TO.N,/D+*%
D18*
X188370000Y-104740000D02*
X187995000Y-104745722D01*
X187995000Y-104745722D02*
X187620000Y-104751445D01*
X189377627Y-104930000D02*
X191400000Y-104930000D01*
X189359763Y-104947864D02*
X189377627Y-104930000D01*
X187620000Y-104751445D02*
X187336590Y-105034854D01*
X189359763Y-104947864D02*
X189364337Y-104952438D01*
X187336590Y-105034854D02*
X187257594Y-105034854D01*
X189364337Y-104952438D02*
X189364337Y-104994878D01*
%TO.N,/D-*%
X187620000Y-105228555D02*
X187458389Y-105390166D01*
X187090398Y-104701121D02*
X187185764Y-104701121D01*
X186922414Y-105201153D02*
X186922414Y-104869105D01*
X186922414Y-104869105D02*
X187090398Y-104701121D01*
X187995000Y-105234278D02*
X187620000Y-105228555D01*
X188370000Y-105240000D02*
X189120000Y-105240000D01*
X188370000Y-105240000D02*
X187995000Y-105234278D01*
X187458389Y-105390166D02*
X187111427Y-105390166D01*
X189508107Y-105240000D02*
X192307392Y-105240000D01*
X187111427Y-105390166D02*
X186922414Y-105201153D01*
X192307392Y-105240000D02*
X192679129Y-105611737D01*
X189120000Y-105240000D02*
X189508107Y-105240000D01*
%TO.N,Net-(U4-CC2)*%
D16*
X190149728Y-103468116D02*
X190362070Y-103468116D01*
X189377843Y-104240000D02*
X190149728Y-103468116D01*
X188370000Y-104240000D02*
X189120000Y-104240000D01*
X189120000Y-104240000D02*
X189377843Y-104240000D01*
%TO.N,Net-(U1-PA12)*%
X194498779Y-107679753D02*
X194898539Y-107279993D01*
X194898539Y-107279993D02*
X197864297Y-107279993D01*
%TO.N,Net-(U1-PA11)*%
X194580091Y-106871175D02*
X194692584Y-106758682D01*
X194692584Y-106758682D02*
X197849642Y-106758682D01*
%TO.N,/PH3-BOOT0*%
X210484905Y-103329660D02*
X207062753Y-106751812D01*
X214193947Y-103329660D02*
X210484905Y-103329660D01*
X216330149Y-101193457D02*
X214193947Y-103329660D01*
X217838098Y-101193457D02*
X216330149Y-101193457D01*
%TO.N,/SCL*%
X215318581Y-109431052D02*
X205583394Y-109431052D01*
X215918727Y-108830906D02*
X215318581Y-109431052D01*
X205583394Y-109431052D02*
X205331206Y-109683240D01*
X205331206Y-109683240D02*
X202259569Y-109683240D01*
X202259569Y-109683240D02*
X195058160Y-102481830D01*
X195058160Y-102481830D02*
X195058160Y-100564542D01*
%TO.N,Net-(U1-PH1)*%
X209639438Y-105762145D02*
X209253229Y-106148354D01*
X211473681Y-105762145D02*
X209639438Y-105762145D01*
X211635826Y-105600000D02*
X211473681Y-105762145D01*
%TO.N,/PA0*%
X211545132Y-102568337D02*
X214103777Y-102568337D01*
X211250602Y-102273807D02*
X211545132Y-102568337D01*
%TO.N,/PA15*%
X186179531Y-99809180D02*
X188102149Y-99809180D01*
X188102149Y-99809180D02*
X193561936Y-105268966D01*
X193561936Y-107123251D02*
X196121931Y-109683246D01*
X196121931Y-109683246D02*
X201364785Y-109683246D01*
X185850351Y-99480000D02*
X186179531Y-99809180D01*
X193561936Y-105268966D02*
X193561936Y-107123251D01*
%TD*%
M02*
