%TF.GenerationSoftware,KiCad,Pcbnew,10.0.1*%
%TF.CreationDate,2026-07-31T22:44:00+02:00*%
%TF.ProjectId,yubi-clone,79756269-2d63-46c6-9f6e-652e6b696361,rev?*%
%TF.SameCoordinates,Original*%
%TF.FileFunction,Copper,L1,Top*%
%TF.FilePolarity,Positive*%
%FSLAX46Y46*%
G04 Gerber Fmt 4.6, Leading zero omitted, Abs format (unit mm)*
G04 Created by KiCad (PCBNEW 10.0.1) date 2026-07-31 22:44:00*
%MOMM*%
%LPD*%
G01*
G04 APERTURE LIST*
G04 Aperture macros list*
%AMRoundRect*
0 Rectangle with rounded corners*
0 $1 Rounding radius*
0 $2 $3 $4 $5 $6 $7 $8 $9 X,Y pos of 4 corners*
0 Add a 4 corners polygon primitive as box body*
4,1,4,$2,$3,$4,$5,$6,$7,$8,$9,$2,$3,0*
0 Add four circle primitives for the rounded corners*
1,1,$1+$1,$2,$3*
1,1,$1+$1,$4,$5*
1,1,$1+$1,$6,$7*
1,1,$1+$1,$8,$9*
0 Add four rect primitives between the rounded corners*
20,1,$1+$1,$2,$3,$4,$5,0*
20,1,$1+$1,$4,$5,$6,$7,0*
20,1,$1+$1,$6,$7,$8,$9,0*
20,1,$1+$1,$8,$9,$2,$3,0*%
G04 Aperture macros list end*
%TA.AperFunction,SMDPad,CuDef*%
%ADD10RoundRect,0.225000X0.250000X-0.225000X0.250000X0.225000X-0.250000X0.225000X-0.250000X-0.225000X0*%
%TD*%
%TA.AperFunction,SMDPad,CuDef*%
%ADD11RoundRect,0.225000X-0.250000X0.225000X-0.250000X-0.225000X0.250000X-0.225000X0.250000X0.225000X0*%
%TD*%
%TA.AperFunction,SMDPad,CuDef*%
%ADD12RoundRect,0.218750X-0.218750X-0.256250X0.218750X-0.256250X0.218750X0.256250X-0.218750X0.256250X0*%
%TD*%
%TA.AperFunction,SMDPad,CuDef*%
%ADD13RoundRect,0.225000X0.225000X0.250000X-0.225000X0.250000X-0.225000X-0.250000X0.225000X-0.250000X0*%
%TD*%
%TA.AperFunction,SMDPad,CuDef*%
%ADD14RoundRect,0.200000X0.275000X-0.200000X0.275000X0.200000X-0.275000X0.200000X-0.275000X-0.200000X0*%
%TD*%
%TA.AperFunction,SMDPad,CuDef*%
%ADD15RoundRect,0.200000X0.200000X0.275000X-0.200000X0.275000X-0.200000X-0.275000X0.200000X-0.275000X0*%
%TD*%
%TA.AperFunction,SMDPad,CuDef*%
%ADD16R,1.200000X0.650000*%
%TD*%
%TA.AperFunction,SMDPad,CuDef*%
%ADD17RoundRect,0.225000X-0.225000X-0.250000X0.225000X-0.250000X0.225000X0.250000X-0.225000X0.250000X0*%
%TD*%
%TA.AperFunction,ComponentPad*%
%ADD18R,1.700000X1.700000*%
%TD*%
%TA.AperFunction,ComponentPad*%
%ADD19C,1.700000*%
%TD*%
%TA.AperFunction,SMDPad,CuDef*%
%ADD20R,1.200000X1.800000*%
%TD*%
%TA.AperFunction,SMDPad,CuDef*%
%ADD21R,1.400000X0.700000*%
%TD*%
%TA.AperFunction,SMDPad,CuDef*%
%ADD22R,1.500000X0.300000*%
%TD*%
%TA.AperFunction,SMDPad,CuDef*%
%ADD23RoundRect,0.150000X0.825000X0.150000X-0.825000X0.150000X-0.825000X-0.150000X0.825000X-0.150000X0*%
%TD*%
%TA.AperFunction,SMDPad,CuDef*%
%ADD24RoundRect,0.075000X0.700000X0.075000X-0.700000X0.075000X-0.700000X-0.075000X0.700000X-0.075000X0*%
%TD*%
%TA.AperFunction,SMDPad,CuDef*%
%ADD25RoundRect,0.075000X0.075000X0.700000X-0.075000X0.700000X-0.075000X-0.700000X0.075000X-0.700000X0*%
%TD*%
%TA.AperFunction,SMDPad,CuDef*%
%ADD26RoundRect,0.200000X-0.200000X-0.275000X0.200000X-0.275000X0.200000X0.275000X-0.200000X0.275000X0*%
%TD*%
%TA.AperFunction,SMDPad,CuDef*%
%ADD27RoundRect,0.150000X-0.512500X-0.150000X0.512500X-0.150000X0.512500X0.150000X-0.512500X0.150000X0*%
%TD*%
%TA.AperFunction,ViaPad*%
%ADD28C,0.250250*%
%TD*%
%TA.AperFunction,ViaPad*%
%ADD29C,0.250000*%
%TD*%
%TA.AperFunction,Conductor*%
%ADD30C,0.088989*%
%TD*%
%TA.AperFunction,Conductor*%
%ADD31C,0.088900*%
%TD*%
%TA.AperFunction,Conductor*%
%ADD32C,0.156222*%
%TD*%
G04 APERTURE END LIST*
D10*
%TO.P,C5,1*%
%TO.N,+3V3*%
X212230000Y-102435000D03*
%TO.P,C5,2*%
%TO.N,GND*%
X212230000Y-100885000D03*
%TD*%
D11*
%TO.P,C7,1*%
%TO.N,+3V3*%
X197020000Y-100420000D03*
%TO.P,C7,2*%
%TO.N,GND*%
X197020000Y-101970000D03*
%TD*%
D12*
%TO.P,D1,1,K_1*%
%TO.N,GND*%
X186062500Y-111000000D03*
%TO.P,D1,2,A_2*%
%TO.N,Net-(D1-A)*%
X187637500Y-111000000D03*
%TD*%
D13*
%TO.P,C9,1*%
%TO.N,VBUS*%
X190895000Y-111050000D03*
%TO.P,C9,2*%
%TO.N,GND*%
X189345000Y-111050000D03*
%TD*%
%TO.P,C2,1*%
%TO.N,/OSC_IN*%
X196768372Y-104575495D03*
%TO.P,C2,2*%
%TO.N,GND*%
X195218372Y-104575495D03*
%TD*%
D14*
%TO.P,R10,1*%
%TO.N,/SDA*%
X217373059Y-105378806D03*
%TO.P,R10,2*%
%TO.N,+3V3*%
X217373059Y-103728806D03*
%TD*%
D15*
%TO.P,R3,1*%
%TO.N,Net-(R3-Pad1)*%
X194236575Y-102754716D03*
%TO.P,R3,2*%
%TO.N,GND*%
X192586575Y-102754716D03*
%TD*%
D16*
%TO.P,SW2,1,1_1*%
%TO.N,/NRST*%
X224550000Y-101110000D03*
%TO.P,SW2,2,2_2*%
%TO.N,Net-(R4-Pad1)*%
X220250000Y-101110000D03*
%TO.P,SW2,3,3_3*%
%TO.N,GND*%
X224550000Y-98950000D03*
%TO.P,SW2,4,4_4*%
X220250000Y-98950000D03*
%TD*%
D13*
%TO.P,C4,1*%
%TO.N,Net-(U1-VCAP)*%
X199645000Y-98920000D03*
%TO.P,C4,2*%
%TO.N,GND*%
X198095000Y-98920000D03*
%TD*%
D17*
%TO.P,C8,1*%
%TO.N,+3V3*%
X209590000Y-98920000D03*
%TO.P,C8,2*%
%TO.N,GND*%
X211140000Y-98920000D03*
%TD*%
D11*
%TO.P,C1,1*%
%TO.N,GND*%
X215528919Y-103232573D03*
%TO.P,C1,2*%
%TO.N,/OSC_OUT*%
X215528919Y-104782573D03*
%TD*%
D18*
%TO.P,J2,1,Pin_1_1*%
%TO.N,Net-(J2-Pin_1)*%
X228280000Y-99840000D03*
D19*
%TO.P,J2,2,Pin_2_2*%
%TO.N,Net-(J2-Pin_2)*%
X228280000Y-102380000D03*
%TO.P,J2,3,Pin_3_3*%
%TO.N,/NRST*%
X228280000Y-104920000D03*
%TO.P,J2,4,Pin_4_4*%
%TO.N,+3V3*%
X228280000Y-107460000D03*
%TO.P,J2,5,Pin_5_5*%
%TO.N,GND*%
X228280000Y-110000000D03*
%TD*%
D20*
%TO.P,Y1,1,XTAL_1_1*%
%TO.N,/OSC_IN*%
X215430000Y-110910000D03*
%TO.P,Y1,2,GND_1_2*%
%TO.N,GND*%
X215430000Y-106910000D03*
%TO.P,Y1,3,XTAL_2_3*%
%TO.N,/OSC_OUT*%
X213030000Y-106910000D03*
%TO.P,Y1,4,GND_2_4*%
%TO.N,GND*%
X213030000Y-110910000D03*
%TD*%
D21*
%TO.P,U4,25,GND_25*%
%TO.N,GND*%
X188430000Y-108590000D03*
D22*
%TO.P,U4,A1,GND_A1*%
X188370000Y-107740000D03*
%TO.P,U4,A2,SSTXP1_A2*%
%TO.N,unconnected-(U4-SSTXP1-PadA2)*%
X188370000Y-107240000D03*
%TO.P,U4,A3,SSTXn1_A3*%
%TO.N,unconnected-(U4-SSTXn1-PadA3)*%
X188370000Y-106740000D03*
%TO.P,U4,A4,VBUS_A4*%
%TO.N,VBUS*%
X188370000Y-106240000D03*
%TO.P,U4,A5,CC1_A5*%
%TO.N,Net-(U4-CC1)*%
X188370000Y-105740000D03*
%TO.P,U4,A6,DP1_A6*%
%TO.N,/D+*%
X188370000Y-105240000D03*
%TO.P,U4,A7,DN1_A7*%
%TO.N,/D-*%
X188370000Y-104740000D03*
%TO.P,U4,A8,SBU1_A8*%
%TO.N,unconnected-(U4-SBU1-PadA8)*%
X188370000Y-104240000D03*
%TO.P,U4,A9,VBUS_A9*%
%TO.N,VBUS*%
X188370000Y-103740000D03*
%TO.P,U4,A10,SSRXn2_A10*%
%TO.N,unconnected-(U4-SSRXn2-PadA10)*%
X188370000Y-103240000D03*
%TO.P,U4,A11,SSRXp2_A11*%
%TO.N,unconnected-(U4-SSRXp2-PadA11)*%
X188370000Y-102740000D03*
%TO.P,U4,A12,GND_A12*%
%TO.N,GND*%
X188370000Y-102240000D03*
%TD*%
D17*
%TO.P,C6,1*%
%TO.N,+3V3*%
X209555000Y-111110000D03*
%TO.P,C6,2*%
%TO.N,GND*%
X211105000Y-111110000D03*
%TD*%
D14*
%TO.P,R16,1*%
%TO.N,Net-(U1-PA12)*%
X190264192Y-109384521D03*
%TO.P,R16,2*%
%TO.N,/D+*%
X190264192Y-107734521D03*
%TD*%
%TO.P,R15,1*%
%TO.N,Net-(U1-PA11)*%
X193399231Y-107199586D03*
%TO.P,R15,2*%
%TO.N,/D-*%
X193399231Y-105549586D03*
%TD*%
%TO.P,R13,1*%
%TO.N,GND*%
X190264192Y-106107118D03*
%TO.P,R13,2*%
%TO.N,Net-(U4-CC1)*%
X190264192Y-104457118D03*
%TD*%
%TO.P,R14,1*%
%TO.N,Net-(U4-CC2)*%
X190264192Y-102829716D03*
%TO.P,R14,2*%
%TO.N,GND*%
X190264192Y-101179716D03*
%TD*%
D16*
%TO.P,SW1,1,1_1*%
%TO.N,/PH3-BOOT0*%
X218670000Y-101090000D03*
%TO.P,SW1,2,2_2*%
%TO.N,Net-(R3-Pad1)*%
X214370000Y-101090000D03*
%TO.P,SW1,3,3_3*%
%TO.N,+3V3*%
X218670000Y-98930000D03*
%TO.P,SW1,4,4_4*%
X214370000Y-98930000D03*
%TD*%
D23*
%TO.P,U3,1,NC_1*%
%TO.N,unconnected-(U3-NC-Pad1)*%
X222665000Y-111045000D03*
%TO.P,U3,2,NC_2*%
%TO.N,unconnected-(U3-NC-Pad2)*%
X222665000Y-109775000D03*
%TO.P,U3,3,NC_3*%
%TO.N,unconnected-(U3-NC-Pad3)*%
X222665000Y-108505000D03*
%TO.P,U3,4,GND_4*%
%TO.N,GND*%
X222665000Y-107235000D03*
%TO.P,U3,5,SDA_5*%
%TO.N,/SDA*%
X217715000Y-107235000D03*
%TO.P,U3,6,SCL_6*%
%TO.N,/SCL*%
X217715000Y-108505000D03*
%TO.P,U3,7,NC_7*%
%TO.N,unconnected-(U3-NC-Pad7)*%
X217715000Y-109775000D03*
%TO.P,U3,8,VCC_8*%
%TO.N,+3V3*%
X217715000Y-111045000D03*
%TD*%
D17*
%TO.P,C10,1*%
%TO.N,+3V3*%
X196825000Y-111040000D03*
%TO.P,C10,2*%
%TO.N,GND*%
X198375000Y-111040000D03*
%TD*%
D10*
%TO.P,C11,1*%
%TO.N,+3V3*%
X224760000Y-110915000D03*
%TO.P,C11,2*%
%TO.N,GND*%
X224760000Y-109365000D03*
%TD*%
D24*
%TO.P,U1,1,VBAT_1*%
%TO.N,+3V3*%
X210245000Y-108750000D03*
%TO.P,U1,2,PC13_2*%
%TO.N,unconnected-(U1-PC13-Pad2)*%
X210245000Y-108250000D03*
%TO.P,U1,3,PC14_3*%
%TO.N,unconnected-(U1-PC14-Pad3)*%
X210245000Y-107750000D03*
%TO.P,U1,4,PC15_4*%
%TO.N,unconnected-(U1-PC15-Pad4)*%
X210245000Y-107250000D03*
%TO.P,U1,5,PH0_5*%
%TO.N,/OSC_IN*%
X210245000Y-106750000D03*
%TO.P,U1,6,PH1_6*%
%TO.N,Net-(U1-PH1)*%
X210245000Y-106250000D03*
%TO.P,U1,7,NRST_7*%
%TO.N,/NRST*%
X210245000Y-105750000D03*
%TO.P,U1,8,PC0_8*%
%TO.N,unconnected-(U1-PC0-Pad8)*%
X210245000Y-105250000D03*
%TO.P,U1,9,PC1_9*%
%TO.N,unconnected-(U1-PC1-Pad9)*%
X210245000Y-104750000D03*
%TO.P,U1,10,PC2_10*%
%TO.N,unconnected-(U1-PC2-Pad10)*%
X210245000Y-104250000D03*
%TO.P,U1,11,PC3_11*%
%TO.N,unconnected-(U1-PC3-Pad11)*%
X210245000Y-103750000D03*
%TO.P,U1,12,VSSA_12*%
%TO.N,GND*%
X210245000Y-103250000D03*
%TO.P,U1,13,VDDA_13*%
%TO.N,+3V3*%
X210245000Y-102750000D03*
%TO.P,U1,14,PA0_14*%
%TO.N,/PA0*%
X210245000Y-102250000D03*
%TO.P,U1,15,PA1_15*%
%TO.N,unconnected-(U1-PA1-Pad15)*%
X210245000Y-101750000D03*
%TO.P,U1,16,PA2_16*%
%TO.N,unconnected-(U1-PA2-Pad16)*%
X210245000Y-101250000D03*
D25*
%TO.P,U1,17,PA3_17*%
%TO.N,unconnected-(U1-PA3-Pad17)*%
X208320000Y-99325000D03*
%TO.P,U1,18,VSS_18*%
%TO.N,GND*%
X207820000Y-99325000D03*
%TO.P,U1,19,VDD_19*%
%TO.N,+3V3*%
X207320000Y-99325000D03*
%TO.P,U1,20,PA4_20*%
%TO.N,unconnected-(U1-PA4-Pad20)*%
X206820000Y-99325000D03*
%TO.P,U1,21,PA5_21*%
%TO.N,unconnected-(U1-PA5-Pad21)*%
X206320000Y-99325000D03*
%TO.P,U1,22,PA6_22*%
%TO.N,unconnected-(U1-PA6-Pad22)*%
X205820000Y-99325000D03*
%TO.P,U1,23,PA7_23*%
%TO.N,unconnected-(U1-PA7-Pad23)*%
X205320000Y-99325000D03*
%TO.P,U1,24,PC4_24*%
%TO.N,unconnected-(U1-PC4-Pad24)*%
X204820000Y-99325000D03*
%TO.P,U1,25,PC5_25*%
%TO.N,unconnected-(U1-PC5-Pad25)*%
X204320000Y-99325000D03*
%TO.P,U1,26,PB0_26*%
%TO.N,unconnected-(U1-PB0-Pad26)*%
X203820000Y-99325000D03*
%TO.P,U1,27,PB1_27*%
%TO.N,unconnected-(U1-PB1-Pad27)*%
X203320000Y-99325000D03*
%TO.P,U1,28,PB2_28*%
%TO.N,unconnected-(U1-PB2-Pad28)*%
X202820000Y-99325000D03*
%TO.P,U1,29,PB10_29*%
%TO.N,unconnected-(U1-PB10-Pad29)*%
X202320000Y-99325000D03*
%TO.P,U1,30,VCAP_30*%
%TO.N,Net-(U1-VCAP)*%
X201820000Y-99325000D03*
%TO.P,U1,31,VSS_31*%
%TO.N,GND*%
X201320000Y-99325000D03*
%TO.P,U1,32,VDD_32*%
%TO.N,+3V3*%
X200820000Y-99325000D03*
D24*
%TO.P,U1,33,PB12_33*%
%TO.N,unconnected-(U1-PB12-Pad33)*%
X198895000Y-101250000D03*
%TO.P,U1,34,PB13_34*%
%TO.N,unconnected-(U1-PB13-Pad34)*%
X198895000Y-101750000D03*
%TO.P,U1,35,PB14_35*%
%TO.N,unconnected-(U1-PB14-Pad35)*%
X198895000Y-102250000D03*
%TO.P,U1,36,PB15_36*%
%TO.N,unconnected-(U1-PB15-Pad36)*%
X198895000Y-102750000D03*
%TO.P,U1,37,PC6_37*%
%TO.N,unconnected-(U1-PC6-Pad37)*%
X198895000Y-103250000D03*
%TO.P,U1,38,PC7_38*%
%TO.N,unconnected-(U1-PC7-Pad38)*%
X198895000Y-103750000D03*
%TO.P,U1,39,PC8_39*%
%TO.N,unconnected-(U1-PC8-Pad39)*%
X198895000Y-104250000D03*
%TO.P,U1,40,PC9_40*%
%TO.N,unconnected-(U1-PC9-Pad40)*%
X198895000Y-104750000D03*
%TO.P,U1,41,PA8_41*%
%TO.N,unconnected-(U1-PA8-Pad41)*%
X198895000Y-105250000D03*
%TO.P,U1,42,PA9_42*%
%TO.N,unconnected-(U1-PA9-Pad42)*%
X198895000Y-105750000D03*
%TO.P,U1,43,PA10_43*%
%TO.N,unconnected-(U1-PA10-Pad43)*%
X198895000Y-106250000D03*
%TO.P,U1,44,PA11_44*%
%TO.N,Net-(U1-PA11)*%
X198895000Y-106750000D03*
%TO.P,U1,45,PA12_45*%
%TO.N,Net-(U1-PA12)*%
X198895000Y-107250000D03*
%TO.P,U1,46,PA13_46*%
%TO.N,Net-(J2-Pin_1)*%
X198895000Y-107750000D03*
%TO.P,U1,47,VSS_47*%
%TO.N,GND*%
X198895000Y-108250000D03*
%TO.P,U1,48,VDDUSB_48*%
%TO.N,+3V3*%
X198895000Y-108750000D03*
D25*
%TO.P,U1,49,PA14_49*%
%TO.N,Net-(J2-Pin_2)*%
X200820000Y-110675000D03*
%TO.P,U1,50,PA15_50*%
%TO.N,/PA15*%
X201320000Y-110675000D03*
%TO.P,U1,51,PC10_51*%
%TO.N,unconnected-(U1-PC10-Pad51)*%
X201820000Y-110675000D03*
%TO.P,U1,52,PC11_52*%
%TO.N,unconnected-(U1-PC11-Pad52)*%
X202320000Y-110675000D03*
%TO.P,U1,53,PC12_53*%
%TO.N,unconnected-(U1-PC12-Pad53)*%
X202820000Y-110675000D03*
%TO.P,U1,54,PD2_54*%
%TO.N,unconnected-(U1-PD2-Pad54)*%
X203320000Y-110675000D03*
%TO.P,U1,55,PB3_55*%
%TO.N,unconnected-(U1-PB3-Pad55)*%
X203820000Y-110675000D03*
%TO.P,U1,56,PB4_56*%
%TO.N,unconnected-(U1-PB4-Pad56)*%
X204320000Y-110675000D03*
%TO.P,U1,57,PB5_57*%
%TO.N,unconnected-(U1-PB5-Pad57)*%
X204820000Y-110675000D03*
%TO.P,U1,58,PB6_58*%
%TO.N,/SCL*%
X205320000Y-110675000D03*
%TO.P,U1,59,PB7_59*%
%TO.N,/SDA*%
X205820000Y-110675000D03*
%TO.P,U1,60,PH3_60*%
%TO.N,/PH3-BOOT0*%
X206320000Y-110675000D03*
%TO.P,U1,61,PB8_61*%
%TO.N,unconnected-(U1-PB8-Pad61)*%
X206820000Y-110675000D03*
%TO.P,U1,62,PB9_62*%
%TO.N,unconnected-(U1-PB9-Pad62)*%
X207320000Y-110675000D03*
%TO.P,U1,63,VSS_63*%
%TO.N,GND*%
X207820000Y-110675000D03*
%TO.P,U1,64,VDD_64*%
%TO.N,+3V3*%
X208320000Y-110675000D03*
%TD*%
D26*
%TO.P,R11,1*%
%TO.N,/PA15*%
X185175000Y-99460000D03*
%TO.P,R11,2*%
%TO.N,Net-(D1-A)*%
X186825000Y-99460000D03*
%TD*%
D10*
%TO.P,C3,1*%
%TO.N,+3V3*%
X196240000Y-107915000D03*
%TO.P,C3,2*%
%TO.N,GND*%
X196240000Y-106365000D03*
%TD*%
D14*
%TO.P,R4,1*%
%TO.N,Net-(R4-Pad1)*%
X192108333Y-101008936D03*
%TO.P,R4,2*%
%TO.N,+3V3*%
X192108333Y-99358936D03*
%TD*%
%TO.P,R9,1*%
%TO.N,+3V3*%
X194136888Y-101008936D03*
%TO.P,R9,2*%
%TO.N,/SCL*%
X194136888Y-99358936D03*
%TD*%
D27*
%TO.P,U2,1,IN_1*%
%TO.N,VBUS*%
X192812500Y-109190000D03*
%TO.P,U2,2,GND_2*%
%TO.N,GND*%
X192812500Y-110140000D03*
%TO.P,U2,3,EN_3*%
%TO.N,VBUS*%
X192812500Y-111090000D03*
%TO.P,U2,4,NC_4*%
%TO.N,unconnected-(U2-NC-Pad4)*%
X195087500Y-111090000D03*
%TO.P,U2,5,OUT_5*%
%TO.N,+3V3*%
X195087500Y-109190000D03*
%TD*%
D15*
%TO.P,R1,1*%
%TO.N,/OSC_OUT*%
X213725000Y-105070000D03*
%TO.P,R1,2*%
%TO.N,Net-(U1-PH1)*%
X212075000Y-105070000D03*
%TD*%
D16*
%TO.P,SW4,1,1_1*%
%TO.N,/PA0*%
X220240000Y-102820000D03*
%TO.P,SW4,2,2_2*%
X224540000Y-102820000D03*
%TO.P,SW4,3,3_3*%
%TO.N,GND*%
X220240000Y-104980000D03*
%TO.P,SW4,4,4_4*%
X224540000Y-104980000D03*
%TD*%
D28*
%TO.N,GND*%
X209160000Y-103260000D03*
X197903269Y-107795962D03*
X185284824Y-111289179D03*
X191561649Y-106759234D03*
X223632672Y-99036124D03*
X191932771Y-110052996D03*
X184923014Y-100650558D03*
X189400000Y-102240000D03*
X220240000Y-104431747D03*
X216246480Y-106523475D03*
X188487283Y-100810667D03*
X188948095Y-109156377D03*
X198877450Y-99332988D03*
X195921625Y-102580446D03*
X212312865Y-100187689D03*
X217758763Y-98533303D03*
X229596697Y-108927055D03*
X219435858Y-101687235D03*
X190116268Y-111446697D03*
X204521369Y-101493501D03*
X190343351Y-100539737D03*
X222193949Y-105805729D03*
X190911132Y-106110000D03*
X209159896Y-107980108D03*
X223647047Y-98533303D03*
X185950000Y-109470000D03*
X212871677Y-109793359D03*
X212909478Y-105454006D03*
X211889748Y-111446697D03*
X191021268Y-103273378D03*
X225363567Y-100532527D03*
X193018139Y-101420725D03*
X229596697Y-106328617D03*
X183493303Y-105636969D03*
X208329549Y-104939936D03*
X221050000Y-98950000D03*
X226982357Y-104167437D03*
X193887055Y-98533303D03*
X196485493Y-98533303D03*
X186101676Y-110361676D03*
X222548003Y-106704862D03*
X200002649Y-106099333D03*
X210584195Y-100722642D03*
X201469231Y-100316820D03*
X205200640Y-109236382D03*
X229596697Y-101131741D03*
X219030935Y-107149784D03*
X185830000Y-103900000D03*
X189345000Y-110338242D03*
X191288617Y-98533303D03*
X201475186Y-108353777D03*
X224860350Y-108658649D03*
X221349065Y-110968713D03*
X195152910Y-103827594D03*
X198397844Y-110332032D03*
X196396600Y-105694844D03*
X211409025Y-110417323D03*
X213005804Y-101999155D03*
X192869936Y-103449965D03*
X224038458Y-108826730D03*
X215948283Y-102120403D03*
X186091741Y-98533303D03*
X183493303Y-98533303D03*
X229596697Y-103730179D03*
X213458763Y-98533303D03*
X206212662Y-106102504D03*
X193812845Y-108985008D03*
X229596697Y-98533303D03*
X188690179Y-98533303D03*
X183493303Y-108235407D03*
X207691306Y-100316843D03*
X189264309Y-107630000D03*
X216370935Y-111446697D03*
X200007374Y-102120033D03*
X224936033Y-105908883D03*
X197002168Y-108575681D03*
X195006008Y-105391430D03*
X207600338Y-109694176D03*
X207119808Y-101493501D03*
X185480000Y-106490000D03*
X215673865Y-102495946D03*
X197020000Y-102645501D03*
X218961653Y-111446697D03*
X198212921Y-99661434D03*
X224550603Y-105536561D03*
X223911653Y-111446697D03*
X202607742Y-104096314D03*
X227094155Y-107347941D03*
X211162954Y-99671450D03*
X215470646Y-108705694D03*
X203855312Y-106726206D03*
X221888916Y-101356997D03*
X199143986Y-111446697D03*
X196044031Y-111446697D03*
X183493303Y-103038530D03*
X226919463Y-111446697D03*
X218118071Y-104910092D03*
X208816450Y-98533303D03*
%TO.N,VBUS*%
X189377843Y-103740000D03*
D29*
X189522828Y-107000000D03*
D28*
%TO.N,/OSC_IN*%
X211418399Y-107090278D03*
X214540399Y-109128045D03*
%TO.N,/SDA*%
X206411321Y-108365538D03*
X212238654Y-108037336D03*
%TO.N,Net-(R3-Pad1)*%
X213534022Y-101108071D03*
X195465201Y-102491790D03*
%TO.N,/NRST*%
X218571221Y-102312579D03*
X211551095Y-103768358D03*
%TO.N,Net-(R4-Pad1)*%
X219719071Y-100568724D03*
X192818575Y-101001043D03*
%TO.N,Net-(J2-Pin_1)*%
X202190849Y-107235600D03*
%TO.N,Net-(J2-Pin_2)*%
X200437977Y-110725465D03*
D29*
%TO.N,Net-(U4-CC1)*%
X191040000Y-105580000D03*
X189333902Y-105610000D03*
D28*
%TO.N,/D+*%
X189359763Y-104947864D03*
D29*
X191400000Y-104930000D03*
D28*
X187257594Y-105034854D03*
X190297027Y-107100784D03*
%TO.N,/D-*%
X192679129Y-105611737D03*
X187185764Y-104701121D03*
%TO.N,Net-(U4-CC2)*%
X190362070Y-103468116D03*
%TO.N,Net-(U1-PA12)*%
X194498779Y-107679753D03*
X197864297Y-107279993D03*
%TO.N,Net-(U1-PA11)*%
X197849642Y-106758682D03*
X194580091Y-106871175D03*
%TO.N,/PH3-BOOT0*%
X217838098Y-101193457D03*
X207062753Y-106751812D03*
%TO.N,/SCL*%
X195058160Y-100564542D03*
X215918727Y-108830906D03*
X205331206Y-109683240D03*
%TO.N,Net-(U1-PH1)*%
X209253229Y-106148354D03*
X211635826Y-105600000D03*
%TO.N,/PA0*%
X211250602Y-102273807D03*
X214103777Y-102568337D03*
%TO.N,/PA15*%
X201364785Y-109683246D03*
X185850351Y-99480000D03*
%TD*%
%TO.N,+3V3*%
D30*
X212270006Y-98930000D02*
X211260006Y-99940000D01*
X207320000Y-100100482D02*
X207320000Y-100358326D01*
X210245000Y-109820812D02*
X209555000Y-110510812D01*
X197225226Y-103724969D02*
X196435172Y-103724969D01*
X217373059Y-100809784D02*
X218670000Y-99512843D01*
X200820000Y-100257013D02*
X200820000Y-100100482D01*
X217373059Y-103728806D02*
X217373059Y-103327537D01*
X211377307Y-104372173D02*
X211377307Y-105853307D01*
X197546004Y-108026010D02*
X197546004Y-104045747D01*
X211862973Y-108097631D02*
X211860000Y-108100604D01*
X196825000Y-110563572D02*
X196825000Y-110395784D01*
X212230000Y-103519480D02*
X211377307Y-104372173D01*
X196825000Y-110395784D02*
X196825000Y-110006201D01*
X200820000Y-100100482D02*
X200820000Y-99325000D01*
X195560000Y-106910884D02*
X195560000Y-107160000D01*
X211860000Y-108464638D02*
X211574638Y-108750000D01*
X195357084Y-108361621D02*
X195798270Y-108361621D01*
X214370000Y-98930000D02*
X212270006Y-98930000D01*
X197101047Y-101210318D02*
X197627957Y-101210318D01*
X196825000Y-111040000D02*
X196825000Y-110563572D01*
X211860000Y-108464638D02*
X212229979Y-108464638D01*
X216481198Y-111045000D02*
X217715000Y-111045000D01*
X194871001Y-101008936D02*
X195696792Y-101008936D01*
X207320000Y-100358326D02*
X207576264Y-100614590D01*
X209555000Y-111110000D02*
X209120000Y-110675000D01*
X210245000Y-109158319D02*
X210245000Y-109820812D01*
X214271624Y-99028376D02*
X214271624Y-99970000D01*
X207098750Y-100579576D02*
X201142563Y-100579576D01*
X193537857Y-101008936D02*
X192236543Y-99707622D01*
X216171708Y-109951836D02*
X216171708Y-110735510D01*
X214970000Y-98930000D02*
X215227843Y-98930000D01*
X228280000Y-107460000D02*
X227977575Y-107762425D01*
X197020000Y-101129272D02*
X197101047Y-101210318D01*
X195557281Y-106908165D02*
X195560000Y-106910884D01*
X196000000Y-104160141D02*
X196000000Y-104933215D01*
X215227843Y-98930000D02*
X217812157Y-98930000D01*
X209555000Y-110633572D02*
X209555000Y-111110000D01*
X211020482Y-102750000D02*
X211915000Y-102750000D01*
X210245000Y-108750000D02*
X210245000Y-108900476D01*
X195798270Y-108361621D02*
X196240000Y-107919891D01*
X209310000Y-99940000D02*
X209301508Y-99931508D01*
X197647672Y-101230033D02*
X197647672Y-103302524D01*
X209590000Y-99396428D02*
X209590000Y-98920000D01*
X208618425Y-100614590D02*
X209590000Y-99643015D01*
X209120000Y-110675000D02*
X208470476Y-110675000D01*
X212229979Y-108464638D02*
X212492326Y-108726985D01*
X196240000Y-107919891D02*
X196240000Y-107915000D01*
X199859254Y-99877426D02*
X198960849Y-99877426D01*
X224283572Y-110915000D02*
X224760000Y-110915000D01*
X212561378Y-102103622D02*
X212230000Y-102435000D01*
X227977575Y-107762425D02*
X227492827Y-108247173D01*
X218948802Y-111045000D02*
X219429126Y-110564676D01*
X196825000Y-110006201D02*
X196008799Y-109190000D01*
X207576264Y-100614590D02*
X208618425Y-100614590D01*
X195560000Y-107160000D02*
X196240000Y-107840000D01*
X212492326Y-108726985D02*
X214946857Y-108726985D01*
X219429126Y-110564676D02*
X223675404Y-110564676D01*
X194136888Y-101008936D02*
X193537857Y-101008936D01*
X211377307Y-105853307D02*
X211862973Y-106338973D01*
X212561378Y-101680246D02*
X212561378Y-102103622D01*
X197546004Y-104045747D02*
X197225226Y-103724969D01*
X218670000Y-99512843D02*
X218670000Y-99255000D01*
X196240000Y-107840000D02*
X196240000Y-107915000D01*
X195750956Y-109190000D02*
X195087500Y-109190000D01*
X210245000Y-108900476D02*
X210245000Y-109158319D01*
X211915000Y-102750000D02*
X212230000Y-102435000D01*
X214946857Y-108726985D02*
X216171708Y-109951836D01*
X194136888Y-101008936D02*
X194613158Y-101008936D01*
X197020000Y-100420000D02*
X197020000Y-100871428D01*
X223675404Y-110564676D02*
X224025728Y-110915000D01*
X224025728Y-110915000D02*
X224283572Y-110915000D01*
X198895000Y-108750000D02*
X198269994Y-108750000D01*
X209590000Y-99643015D02*
X209590000Y-99396428D01*
X208470476Y-110675000D02*
X208320000Y-110675000D01*
X201142563Y-100579576D02*
X200820000Y-100257013D01*
X211260006Y-99940000D02*
X209310000Y-99940000D01*
X227492827Y-108916445D02*
X225494272Y-110915000D01*
X217715000Y-111045000D02*
X218690959Y-111045000D01*
X196000000Y-104933215D02*
X195557281Y-105375934D01*
X211574638Y-108750000D02*
X210245000Y-108750000D01*
X194613158Y-101008936D02*
X194871001Y-101008936D01*
X211860000Y-108100604D02*
X211860000Y-108464638D01*
X216171708Y-110735510D02*
X216481198Y-111045000D01*
X210245000Y-102750000D02*
X211020482Y-102750000D01*
X218670000Y-99255000D02*
X218670000Y-98930000D01*
X197647672Y-103302524D02*
X197225226Y-103724969D01*
X200669524Y-99325000D02*
X200411681Y-99325000D01*
X225494272Y-110915000D02*
X225236428Y-110915000D01*
X227492827Y-108247173D02*
X227492827Y-108916445D01*
X197937195Y-108417201D02*
X197546004Y-108026010D01*
X198960849Y-99877426D02*
X197627957Y-101210318D01*
X198269994Y-108750000D02*
X197937195Y-108417201D01*
X212230000Y-102435000D02*
X212230000Y-103519480D01*
X196008799Y-109190000D02*
X195750956Y-109190000D01*
X214370000Y-98930000D02*
X214271624Y-99028376D01*
X218690959Y-111045000D02*
X218948802Y-111045000D01*
X218070000Y-98930000D02*
X218670000Y-98930000D01*
X212230000Y-102435000D02*
X212205000Y-102435000D01*
X196435172Y-103724969D02*
X196000000Y-104160141D01*
X200820000Y-99325000D02*
X200669524Y-99325000D01*
X196543572Y-100420000D02*
X197020000Y-100420000D01*
X210006428Y-111110000D02*
X209555000Y-111110000D01*
X197020000Y-100871428D02*
X197020000Y-101129272D01*
X211862973Y-106338973D02*
X211862973Y-108097631D01*
X217373059Y-103327537D02*
X217373059Y-103069694D01*
X196285728Y-100420000D02*
X196543572Y-100420000D01*
X209555000Y-110510812D02*
X209555000Y-110633572D01*
X195087500Y-108631205D02*
X195357084Y-108361621D01*
X225236428Y-110915000D02*
X224760000Y-110915000D01*
X195087500Y-109190000D02*
X195087500Y-108631205D01*
X214370000Y-98930000D02*
X214970000Y-98930000D01*
X217812157Y-98930000D02*
X218070000Y-98930000D01*
X217373059Y-103069694D02*
X217373059Y-100809784D01*
X207320000Y-100358326D02*
X207098750Y-100579576D01*
X207320000Y-99325000D02*
X207320000Y-100100482D01*
X195696792Y-101008936D02*
X196285728Y-100420000D01*
X214271624Y-99970000D02*
X212561378Y-101680246D01*
X200411681Y-99325000D02*
X199859254Y-99877426D01*
X197627957Y-101210318D02*
X197647672Y-101230033D01*
X195557281Y-105375934D02*
X195557281Y-106908165D01*
%TO.N,GND*%
X195152910Y-103827594D02*
X195218372Y-103893056D01*
X196335968Y-105694844D02*
X196396600Y-105694844D01*
X224550603Y-105536561D02*
X224540000Y-105525958D01*
X189400000Y-102240000D02*
X188370000Y-102240000D01*
X215528919Y-103232573D02*
X215528919Y-102781145D01*
X224860350Y-108667949D02*
X224860350Y-108658649D01*
X211409025Y-110417323D02*
X211409025Y-111110000D01*
X213030000Y-110010000D02*
X213030000Y-110910000D01*
X198269994Y-108250000D02*
X197984954Y-107964960D01*
X212312865Y-100187689D02*
X212230000Y-100270553D01*
X222665000Y-106934048D02*
X222665000Y-107235000D01*
X198375000Y-110354876D02*
X198397844Y-110332032D01*
X190264192Y-101179716D02*
X190264192Y-100778446D01*
X223950000Y-98950000D02*
X224550000Y-98950000D01*
X211140000Y-99575473D02*
X211140000Y-99648496D01*
X201320000Y-100100482D02*
X201320000Y-100223242D01*
X224760000Y-109365000D02*
X224760000Y-108913572D01*
X198095000Y-98920000D02*
X198095000Y-99396428D01*
X198375000Y-110563572D02*
X198375000Y-110418298D01*
X207574760Y-109719754D02*
X207600338Y-109694176D01*
X191939281Y-110052996D02*
X191932771Y-110052996D01*
X190264192Y-100678200D02*
X190264192Y-100618896D01*
X190908250Y-106107118D02*
X190264192Y-106107118D01*
X187730000Y-102240000D02*
X188370000Y-102240000D01*
X220240000Y-104431747D02*
X220240000Y-104442185D01*
X213030000Y-109887240D02*
X213030000Y-110010000D01*
X196240000Y-106365000D02*
X196240000Y-105913572D01*
X222548003Y-106704862D02*
X222548718Y-106705577D01*
X209160000Y-103260000D02*
X209280473Y-103260000D01*
X197984954Y-107964960D02*
X197903269Y-107883275D01*
X192149044Y-110140000D02*
X192026284Y-110140000D01*
X222548718Y-106705577D02*
X222548718Y-106706263D01*
X190264192Y-100778446D02*
X190264192Y-100678200D01*
X198095000Y-99396428D02*
X198095000Y-99541702D01*
X189345000Y-110573572D02*
X189345000Y-110338242D01*
X195218372Y-104099066D02*
X195218372Y-104575495D01*
X197903269Y-107883275D02*
X197903269Y-107795962D01*
X212230000Y-100333326D02*
X212230000Y-100433572D01*
X222548718Y-106706263D02*
X222665000Y-106822545D01*
X196240000Y-105790812D02*
X196335968Y-105694844D01*
X198212921Y-99659623D02*
X198212921Y-99661434D01*
X189154309Y-107740000D02*
X188370000Y-107740000D01*
X192869936Y-102754716D02*
X192869936Y-103449965D01*
X212230000Y-100433572D02*
X212230000Y-100885000D01*
X195218372Y-103893056D02*
X195218372Y-103942536D01*
X224540000Y-105495302D02*
X224540000Y-105305000D01*
X224540000Y-105305000D02*
X224540000Y-104980000D01*
X189264309Y-107630000D02*
X189154309Y-107740000D01*
X188430000Y-108590000D02*
X188948095Y-108590000D01*
X224760000Y-108913572D02*
X224760000Y-108768298D01*
X211140000Y-99396428D02*
X211140000Y-99575473D01*
X196240000Y-105913572D02*
X196240000Y-105790812D01*
X197020000Y-102421428D02*
X197020000Y-102645501D01*
X198375000Y-110418298D02*
X198375000Y-110354876D01*
X189345000Y-111050000D02*
X189345000Y-110573572D01*
X212936119Y-109793359D02*
X213030000Y-109887240D01*
X215673865Y-102502181D02*
X215673865Y-102495946D01*
X224760000Y-108768298D02*
X224860350Y-108667949D01*
X207737656Y-100316843D02*
X207691306Y-100316843D01*
X220240000Y-104442185D02*
X220240000Y-104655000D01*
X222665000Y-106822545D02*
X222665000Y-106934048D01*
X201413577Y-100316820D02*
X201469231Y-100316820D01*
X223718796Y-98950000D02*
X223782212Y-98950000D01*
X207820000Y-99325000D02*
X207820000Y-100100482D01*
X207820000Y-110675000D02*
X207820000Y-110049994D01*
X201320000Y-99325000D02*
X201320000Y-100100482D01*
X215528919Y-102781145D02*
X215528919Y-102647128D01*
X224540000Y-105525958D02*
X224540000Y-105495302D01*
X207820000Y-100100482D02*
X207820000Y-100234499D01*
X207820000Y-100234499D02*
X207737656Y-100316843D01*
X190911132Y-106110000D02*
X190908250Y-106107118D01*
X220240000Y-104655000D02*
X220240000Y-104980000D01*
X221050000Y-98950000D02*
X220250000Y-98950000D01*
X192586575Y-102754716D02*
X192869936Y-102754716D01*
X186101676Y-110361676D02*
X186062500Y-110400851D01*
X186062500Y-110400851D02*
X186062500Y-111000000D01*
X198895000Y-108250000D02*
X198269994Y-108250000D01*
X192026284Y-110140000D02*
X191939281Y-110052996D01*
X215430000Y-106523475D02*
X215430000Y-106910000D01*
X215528919Y-102647128D02*
X215673865Y-102502181D01*
X223632672Y-99036124D02*
X223718796Y-98950000D01*
X190264192Y-100618896D02*
X190343351Y-100539737D01*
X201320000Y-100223242D02*
X201413577Y-100316820D01*
X198095000Y-99541702D02*
X198212921Y-99659623D01*
X211140000Y-98920000D02*
X211140000Y-99396428D01*
X209290473Y-103250000D02*
X210245000Y-103250000D01*
X212230000Y-100270553D02*
X212230000Y-100333326D01*
X207574760Y-109804754D02*
X207574760Y-109719754D01*
X223782212Y-98950000D02*
X223950000Y-98950000D01*
X209280473Y-103260000D02*
X209290473Y-103250000D01*
X211140000Y-99648496D02*
X211162954Y-99671450D01*
X197020000Y-101970000D02*
X197020000Y-102421428D01*
X195218372Y-103942536D02*
X195218372Y-104099066D01*
X198375000Y-111040000D02*
X198375000Y-110563572D01*
X212871677Y-109793359D02*
X212936119Y-109793359D01*
X211409025Y-111110000D02*
X211105000Y-111110000D01*
X216246480Y-106523475D02*
X215430000Y-106523475D01*
X188948095Y-108590000D02*
X188948095Y-109156377D01*
X207820000Y-110049994D02*
X207574760Y-109804754D01*
X192812500Y-110140000D02*
X192149044Y-110140000D01*
%TO.N,Net-(D1-A)*%
D31*
X186460013Y-99841469D02*
X185026349Y-101275133D01*
X185026349Y-101275133D02*
X185026349Y-109159231D01*
X185827391Y-109960273D02*
X186597773Y-109960273D01*
X186860013Y-99841469D02*
X186460013Y-99841469D01*
X185026349Y-109159231D02*
X185827391Y-109960273D01*
D30*
X187637500Y-111000000D02*
X187637500Y-110523611D01*
D31*
X186597773Y-109960273D02*
X187637500Y-111000000D01*
%TO.N,VBUS*%
D30*
X189377843Y-103740000D02*
X188370000Y-103740000D01*
X189522828Y-106384985D02*
X189522828Y-106167172D01*
X190320812Y-111050000D02*
X189941372Y-110670560D01*
X190895000Y-111050000D02*
X190895000Y-110573572D01*
X190895000Y-111050000D02*
X190935000Y-111090000D01*
X190895000Y-110450812D02*
X190895000Y-110186201D01*
X191891201Y-109190000D02*
X192149044Y-109190000D01*
X190935000Y-111090000D02*
X192149044Y-111090000D01*
X192149044Y-109190000D02*
X192812500Y-109190000D01*
X188370000Y-106240000D02*
X189377843Y-106240000D01*
X189120000Y-106240000D02*
X188370000Y-106240000D01*
X189642844Y-104005001D02*
X189377843Y-103740000D01*
X190895000Y-110186201D02*
X191891201Y-109190000D01*
X190895000Y-111050000D02*
X190443572Y-111050000D01*
X189377843Y-106240000D02*
X189120000Y-106240000D01*
X189941372Y-110670560D02*
X189941372Y-110392791D01*
X189941372Y-110392791D02*
X189522828Y-109974247D01*
X189522828Y-109974247D02*
X189522828Y-106792828D01*
X189522828Y-106792828D02*
X189522828Y-106384985D01*
X189642844Y-106047156D02*
X189642844Y-104005001D01*
X190443572Y-111050000D02*
X190320812Y-111050000D01*
X189522828Y-106167172D02*
X189642844Y-106047156D01*
X192149044Y-111090000D02*
X192812500Y-111090000D01*
X189522828Y-106384985D02*
X189377843Y-106240000D01*
X190895000Y-110573572D02*
X190895000Y-110450812D01*
%TO.N,/OSC_IN*%
X214805888Y-109128045D02*
X214540399Y-109128045D01*
X211020482Y-106750000D02*
X211210784Y-106750000D01*
X204638664Y-106487934D02*
X208949608Y-106487934D01*
X208949608Y-106487934D02*
X209211674Y-106750000D01*
X215430000Y-110910000D02*
X215430000Y-110010000D01*
X209469518Y-106750000D02*
X210245000Y-106750000D01*
X196768372Y-105051923D02*
X196768372Y-105309767D01*
X210245000Y-106750000D02*
X211020482Y-106750000D01*
X196768372Y-104575495D02*
X196768372Y-105051923D01*
X196768372Y-105309767D02*
X197297177Y-105838571D01*
X215430000Y-109752157D02*
X214805888Y-109128045D01*
X197297177Y-108327932D02*
X198073003Y-109103758D01*
X197297177Y-105838571D02*
X197297177Y-108327932D01*
X209211674Y-106750000D02*
X209469518Y-106750000D01*
X211418399Y-106957615D02*
X211418399Y-107090278D01*
X202022840Y-109103758D02*
X204638664Y-106487934D01*
X198073003Y-109103758D02*
X202022840Y-109103758D01*
X215430000Y-110010000D02*
X215430000Y-109752157D01*
X211210784Y-106750000D02*
X211418399Y-106957615D01*
%TO.N,/SDA*%
X205820000Y-110675000D02*
X205820000Y-109899518D01*
X205820000Y-108956859D02*
X206411321Y-108365538D01*
X217715000Y-107235000D02*
X216739041Y-107235000D01*
X216008209Y-108037336D02*
X212238654Y-108037336D01*
X217715000Y-106934048D02*
X217715000Y-107235000D01*
X216458695Y-107302531D02*
X216458695Y-107586850D01*
X217715000Y-105720747D02*
X217715000Y-106934048D01*
X205820000Y-109899518D02*
X205820000Y-109641674D01*
X216458695Y-107586850D02*
X216008209Y-108037336D01*
X217373059Y-105378806D02*
X217715000Y-105720747D01*
X216739041Y-107235000D02*
X216526226Y-107235000D01*
X205820000Y-109641674D02*
X205820000Y-108956859D01*
X216526226Y-107235000D02*
X216458695Y-107302531D01*
%TO.N,Net-(R3-Pad1)*%
X213602212Y-101090000D02*
X213770000Y-101090000D01*
X213534022Y-101108071D02*
X213552093Y-101090000D01*
X213770000Y-101090000D02*
X214370000Y-101090000D01*
X195202276Y-102754716D02*
X195465201Y-102491790D01*
X194895688Y-102754716D02*
X195202276Y-102754716D01*
X194236575Y-102754716D02*
X194637845Y-102754716D01*
X213552093Y-101090000D02*
X213602212Y-101090000D01*
X194637845Y-102754716D02*
X194895688Y-102754716D01*
%TO.N,/NRST*%
X225050000Y-101700000D02*
X225729740Y-102379740D01*
X225739740Y-102379740D02*
X228280000Y-104920000D01*
X211186885Y-105433121D02*
X210870006Y-105750000D01*
X211522274Y-103768358D02*
X211186885Y-104103747D01*
X224550000Y-101110000D02*
X225050000Y-101610000D01*
X225050000Y-101610000D02*
X225050000Y-101700000D01*
X225729740Y-102379740D02*
X225739740Y-102379740D01*
X223692157Y-101110000D02*
X222489578Y-102312579D01*
X210870006Y-105750000D02*
X210245000Y-105750000D01*
X224550000Y-101110000D02*
X223950000Y-101110000D01*
X223950000Y-101110000D02*
X223692157Y-101110000D01*
X211551095Y-103768358D02*
X211522274Y-103768358D01*
X222489578Y-102312579D02*
X218571221Y-102312579D01*
X211186885Y-104103747D02*
X211186885Y-105433121D01*
%TO.N,Net-(R4-Pad1)*%
X220250000Y-101110000D02*
X219719071Y-101110000D01*
X192818575Y-101001043D02*
X192810682Y-101008936D01*
X192584603Y-101008936D02*
X192108333Y-101008936D01*
X192786162Y-101008936D02*
X192584603Y-101008936D01*
X219719071Y-101110000D02*
X219719071Y-100568724D01*
X192810682Y-101008936D02*
X192786162Y-101008936D01*
%TO.N,Net-(U1-VCAP)*%
X200297987Y-98920000D02*
X200340449Y-98877538D01*
X200536597Y-98399034D02*
X201519041Y-98399034D01*
X200096428Y-98920000D02*
X200297987Y-98920000D01*
X200340449Y-98595183D02*
X200536597Y-98399034D01*
X200340449Y-98877538D02*
X200340449Y-98595183D01*
X199645000Y-98920000D02*
X200096428Y-98920000D01*
X201519041Y-98399034D02*
X201820000Y-98699994D01*
X201820000Y-98699994D02*
X201820000Y-99325000D01*
%TO.N,/OSC_OUT*%
X213730246Y-106910000D02*
X213030000Y-106910000D01*
X213725000Y-105804114D02*
X213725000Y-105070000D01*
X215029476Y-105610770D02*
X213730246Y-106910000D01*
X215029476Y-105610524D02*
X215029476Y-105610770D01*
X213068099Y-106461015D02*
X213725000Y-105804114D01*
X215528919Y-104782573D02*
X215528919Y-105111081D01*
X215528919Y-105111081D02*
X215029476Y-105610524D01*
%TO.N,Net-(J2-Pin_1)*%
X198895000Y-107750000D02*
X199670482Y-107750000D01*
X201676450Y-107750000D02*
X202190849Y-107235600D01*
X199928326Y-107750000D02*
X201676450Y-107750000D01*
X199670482Y-107750000D02*
X199928326Y-107750000D01*
%TO.N,Net-(J2-Pin_2)*%
X200535507Y-110675000D02*
X200488441Y-110675000D01*
X200820000Y-110675000D02*
X200669524Y-110675000D01*
X200669524Y-110675000D02*
X200535507Y-110675000D01*
X200488441Y-110675000D02*
X200437977Y-110725465D01*
%TO.N,Net-(U4-CC1)*%
X191040000Y-105580000D02*
X191040000Y-105232926D01*
X188370000Y-105740000D02*
X189203902Y-105740000D01*
X191040000Y-105232926D02*
X190264192Y-104457118D01*
X189203902Y-105740000D02*
X189333902Y-105610000D01*
%TO.N,/D+*%
D32*
X190264192Y-107161570D02*
X190264192Y-107333251D01*
X190264192Y-107333251D02*
X190264192Y-107734521D01*
X187257594Y-105111111D02*
X187386483Y-105240000D01*
X189067627Y-105240000D02*
X188370000Y-105240000D01*
X190522359Y-107100784D02*
X190297027Y-107100784D01*
X187257594Y-105034854D02*
X187257594Y-105111111D01*
X190264192Y-107133619D02*
X190264192Y-107161570D01*
X190297027Y-107100784D02*
X190264192Y-107133619D01*
X187386483Y-105240000D02*
X187620000Y-105240000D01*
X191400000Y-104930000D02*
X191400000Y-106223143D01*
X191400000Y-106223143D02*
X190522359Y-107100784D01*
X187620000Y-105240000D02*
X188370000Y-105240000D01*
X189359763Y-104947864D02*
X189067627Y-105240000D01*
%TO.N,/D-*%
X192689129Y-105611737D02*
X192751280Y-105549586D01*
X192679129Y-105611737D02*
X192689129Y-105611737D01*
X192751280Y-105549586D02*
X192922961Y-105549586D01*
X187224643Y-104740000D02*
X187340106Y-104740000D01*
X187185764Y-104701121D02*
X187224643Y-104740000D01*
X192922961Y-105549586D02*
X193399231Y-105549586D01*
X187620000Y-104740000D02*
X188370000Y-104740000D01*
X187340106Y-104740000D02*
X187620000Y-104740000D01*
%TO.N,Net-(U4-CC2)*%
D30*
X190362070Y-103468116D02*
X190362070Y-103462880D01*
X190264192Y-103365002D02*
X190264192Y-103230985D01*
X190264192Y-103230985D02*
X190264192Y-102829716D01*
X190362070Y-103462880D02*
X190264192Y-103365002D01*
%TO.N,Net-(U1-PA12)*%
X197864297Y-107279993D02*
X197894290Y-107250000D01*
X190998306Y-109384521D02*
X192117055Y-108265772D01*
X197894290Y-107250000D02*
X197985501Y-107250000D01*
X190264192Y-109384521D02*
X190740462Y-109384521D01*
X190740462Y-109384521D02*
X190998306Y-109384521D01*
X198119518Y-107250000D02*
X198895000Y-107250000D01*
X193912760Y-108265772D02*
X194498779Y-107679753D01*
X192117055Y-108265772D02*
X193912760Y-108265772D01*
X197985501Y-107250000D02*
X198119518Y-107250000D01*
%TO.N,Net-(U1-PA11)*%
X193399231Y-107199586D02*
X193875502Y-107199586D01*
X194009518Y-107199586D02*
X194251681Y-107199586D01*
X197858324Y-106750000D02*
X197884188Y-106750000D01*
X197884188Y-106750000D02*
X198119518Y-106750000D01*
X197849642Y-106758682D02*
X197858324Y-106750000D01*
X193875502Y-107199586D02*
X194009518Y-107199586D01*
X194251681Y-107199586D02*
X194580091Y-106871175D01*
X198119518Y-106750000D02*
X198895000Y-106750000D01*
%TO.N,/PH3-BOOT0*%
X217843783Y-101193457D02*
X217838098Y-101193457D01*
X218070000Y-101090000D02*
X217947240Y-101090000D01*
X206320000Y-109720473D02*
X206320000Y-109899518D01*
X206320000Y-109899518D02*
X206320000Y-110675000D01*
X217947240Y-101090000D02*
X217843783Y-101193457D01*
X207062753Y-108977720D02*
X206320000Y-109720473D01*
X218670000Y-101090000D02*
X218070000Y-101090000D01*
X207062753Y-106751812D02*
X207062753Y-108977720D01*
%TO.N,/SCL*%
X194136888Y-99760206D02*
X194136888Y-99358936D01*
X216739041Y-108505000D02*
X216492455Y-108505000D01*
X205320000Y-109694446D02*
X205320000Y-109731730D01*
X194586991Y-100093373D02*
X194212212Y-100093373D01*
X205320000Y-109731730D02*
X205320000Y-109899518D01*
X194212212Y-100093373D02*
X194136888Y-100018049D01*
X216244633Y-108505000D02*
X215918727Y-108830906D01*
X205331206Y-109683240D02*
X205320000Y-109694446D01*
X205320000Y-109899518D02*
X205320000Y-110675000D01*
X194136888Y-100018049D02*
X194136888Y-99760206D01*
X195058160Y-100564542D02*
X194586991Y-100093373D01*
X216492455Y-108505000D02*
X216244633Y-108505000D01*
X217715000Y-108505000D02*
X216739041Y-108505000D01*
%TO.N,Net-(U1-PH1)*%
X209358015Y-106250000D02*
X209256369Y-106148354D01*
X209469518Y-106250000D02*
X209358015Y-106250000D01*
X210245000Y-106250000D02*
X209469518Y-106250000D01*
X212075000Y-105145001D02*
X212075000Y-105070000D01*
X211635826Y-105600000D02*
X211635826Y-105584175D01*
X209256369Y-106148354D02*
X209253229Y-106148354D01*
X211635826Y-105584175D02*
X212075000Y-105145001D01*
%TO.N,/PA0*%
X219640000Y-102820000D02*
X220240000Y-102820000D01*
X220240000Y-102820000D02*
X220840000Y-102820000D01*
X214103777Y-102568337D02*
X214676387Y-103140947D01*
X220840000Y-102820000D02*
X221097843Y-102820000D01*
X221097843Y-102820000D02*
X223682157Y-102820000D01*
X217894323Y-104307834D02*
X219382157Y-102820000D01*
X214676387Y-103140947D02*
X214676387Y-103580633D01*
X223682157Y-102820000D02*
X223940000Y-102820000D01*
X214676387Y-103580633D02*
X215166441Y-104070688D01*
X210245000Y-102250000D02*
X211020482Y-102250000D01*
X215166441Y-104070688D02*
X215955950Y-104070688D01*
X223940000Y-102820000D02*
X224540000Y-102820000D01*
X215955950Y-104070688D02*
X216193096Y-104307834D01*
X211226795Y-102250000D02*
X211250602Y-102273807D01*
X211154499Y-102250000D02*
X211226795Y-102250000D01*
X219382157Y-102820000D02*
X219640000Y-102820000D01*
X216193096Y-104307834D02*
X217894323Y-104307834D01*
X211020482Y-102250000D02*
X211154499Y-102250000D01*
%TO.N,/PA15*%
X201320000Y-110675000D02*
X201320000Y-109899518D01*
X185850351Y-99480000D02*
X185830351Y-99460000D01*
X201320000Y-109899518D02*
X201320000Y-109765501D01*
X185830351Y-99460000D02*
X185175000Y-99460000D01*
X201320000Y-109728031D02*
X201364785Y-109683246D01*
X201320000Y-109765501D02*
X201320000Y-109728031D01*
X185175000Y-99460000D02*
X185175000Y-99806456D01*
X185175000Y-99806456D02*
X185210013Y-99841469D01*
%TD*%
M02*
