%TF.GenerationSoftware,KiCad,Pcbnew,10.0.1*%
%TF.CreationDate,2026-06-04T12:54:54+02:00*%
%TF.ProjectId,ICE40HX1K-TQ144,49434534-3048-4583-914b-2d5451313434,rev?*%
%TF.SameCoordinates,Original*%
%TF.FileFunction,Soldermask,Bot*%
%TF.FilePolarity,Negative*%
%FSLAX46Y46*%
G04 Gerber Fmt 4.6, Leading zero omitted, Abs format (unit mm)*
G04 Created by KiCad (PCBNEW 10.0.1) date 2026-06-04 12:54:54*
%MOMM*%
%LPD*%
G01*
G04 APERTURE LIST*
G04 APERTURE END LIST*
G36*
X75271342Y-113998060D02*
G01*
X75384381Y-114063323D01*
X75476677Y-114155619D01*
X75541940Y-114268658D01*
X75575722Y-114394737D01*
X75580000Y-114460000D01*
X75580000Y-115060000D01*
X75575722Y-115125263D01*
X75541940Y-115251342D01*
X75476677Y-115364381D01*
X75384381Y-115456677D01*
X75271342Y-115521940D01*
X75145263Y-115555722D01*
X75014737Y-115555722D01*
X74888658Y-115521940D01*
X74775619Y-115456677D01*
X74683323Y-115364381D01*
X74618060Y-115251342D01*
X74584278Y-115125263D01*
X74580000Y-115060000D01*
X74580000Y-114460000D01*
X74584278Y-114394737D01*
X74618060Y-114268658D01*
X74683323Y-114155619D01*
X74775619Y-114063323D01*
X74888658Y-113998060D01*
X75014737Y-113964278D01*
X75145263Y-113964278D01*
X75271342Y-113998060D01*
G37*
G36*
X83911342Y-113998060D02*
G01*
X84024381Y-114063323D01*
X84116677Y-114155619D01*
X84181940Y-114268658D01*
X84215722Y-114394737D01*
X84220000Y-114460000D01*
X84220000Y-115060000D01*
X84215722Y-115125263D01*
X84181940Y-115251342D01*
X84116677Y-115364381D01*
X84024381Y-115456677D01*
X83911342Y-115521940D01*
X83785263Y-115555722D01*
X83654737Y-115555722D01*
X83528658Y-115521940D01*
X83415619Y-115456677D01*
X83323323Y-115364381D01*
X83258060Y-115251342D01*
X83224278Y-115125263D01*
X83220000Y-115060000D01*
X83220000Y-114460000D01*
X83224278Y-114394737D01*
X83258060Y-114268658D01*
X83323323Y-114155619D01*
X83415619Y-114063323D01*
X83528658Y-113998060D01*
X83654737Y-113964278D01*
X83785263Y-113964278D01*
X83911342Y-113998060D01*
G37*
G36*
X138725000Y-113545000D02*
G01*
X137025000Y-113545000D01*
X137025000Y-111845000D01*
X138725000Y-111845000D01*
X138725000Y-113545000D01*
G37*
G36*
X60019163Y-110290495D02*
G01*
X60027896Y-110293389D01*
X60034322Y-110294113D01*
X60110063Y-110320615D01*
X60184464Y-110345269D01*
X60189635Y-110348458D01*
X60192777Y-110349558D01*
X60265430Y-110395209D01*
X60332677Y-110436688D01*
X60334765Y-110438776D01*
X60334916Y-110438871D01*
X60453628Y-110557583D01*
X60453722Y-110557733D01*
X60455812Y-110559823D01*
X60497310Y-110627101D01*
X60542941Y-110699722D01*
X60544039Y-110702862D01*
X60547231Y-110708036D01*
X60571895Y-110782471D01*
X60598386Y-110858177D01*
X60599109Y-110864598D01*
X60602005Y-110873337D01*
X60617500Y-111025000D01*
X60617500Y-112525000D01*
X60602005Y-112676663D01*
X60599109Y-112685401D01*
X60598386Y-112691822D01*
X60571902Y-112767509D01*
X60547231Y-112841964D01*
X60544039Y-112847138D01*
X60542941Y-112850277D01*
X60497343Y-112922843D01*
X60455812Y-112990177D01*
X60453720Y-112992268D01*
X60453628Y-112992416D01*
X60334916Y-113111128D01*
X60334768Y-113111220D01*
X60332677Y-113113312D01*
X60265343Y-113154843D01*
X60192777Y-113200441D01*
X60189638Y-113201539D01*
X60184464Y-113204731D01*
X60110009Y-113229402D01*
X60034322Y-113255886D01*
X60027901Y-113256609D01*
X60019163Y-113259505D01*
X59867500Y-113275000D01*
X57867500Y-113275000D01*
X57715837Y-113259505D01*
X57707098Y-113256609D01*
X57700677Y-113255886D01*
X57624971Y-113229395D01*
X57550536Y-113204731D01*
X57545362Y-113201539D01*
X57542222Y-113200441D01*
X57469601Y-113154810D01*
X57402323Y-113113312D01*
X57400233Y-113111222D01*
X57400083Y-113111128D01*
X57281371Y-112992416D01*
X57281276Y-112992265D01*
X57279188Y-112990177D01*
X57237709Y-112922930D01*
X57192058Y-112850277D01*
X57190958Y-112847135D01*
X57187769Y-112841964D01*
X57163115Y-112767563D01*
X57136613Y-112691822D01*
X57135889Y-112685396D01*
X57132995Y-112676663D01*
X57117500Y-112525000D01*
X57117500Y-111025000D01*
X57132995Y-110873337D01*
X57135888Y-110864603D01*
X57136613Y-110858177D01*
X57163121Y-110782417D01*
X57187769Y-110708036D01*
X57190957Y-110702866D01*
X57192058Y-110699722D01*
X57237743Y-110627015D01*
X57279188Y-110559823D01*
X57281274Y-110557736D01*
X57281371Y-110557583D01*
X57400083Y-110438871D01*
X57400236Y-110438774D01*
X57402323Y-110436688D01*
X57469515Y-110395243D01*
X57542222Y-110349558D01*
X57545366Y-110348457D01*
X57550536Y-110345269D01*
X57624917Y-110320621D01*
X57700677Y-110294113D01*
X57707103Y-110293388D01*
X57715837Y-110290495D01*
X57867500Y-110275000D01*
X59867500Y-110275000D01*
X60019163Y-110290495D01*
G37*
G36*
X75271342Y-109568060D02*
G01*
X75384381Y-109633323D01*
X75476677Y-109725619D01*
X75541940Y-109838658D01*
X75575722Y-109964737D01*
X75580000Y-110030000D01*
X75580000Y-111130000D01*
X75575722Y-111195263D01*
X75541940Y-111321342D01*
X75476677Y-111434381D01*
X75384381Y-111526677D01*
X75271342Y-111591940D01*
X75145263Y-111625722D01*
X75014737Y-111625722D01*
X74888658Y-111591940D01*
X74775619Y-111526677D01*
X74683323Y-111434381D01*
X74618060Y-111321342D01*
X74584278Y-111195263D01*
X74580000Y-111130000D01*
X74580000Y-110030000D01*
X74584278Y-109964737D01*
X74618060Y-109838658D01*
X74683323Y-109725619D01*
X74775619Y-109633323D01*
X74888658Y-109568060D01*
X75014737Y-109534278D01*
X75145263Y-109534278D01*
X75271342Y-109568060D01*
G37*
G36*
X83911342Y-109568060D02*
G01*
X84024381Y-109633323D01*
X84116677Y-109725619D01*
X84181940Y-109838658D01*
X84215722Y-109964737D01*
X84220000Y-110030000D01*
X84220000Y-111130000D01*
X84215722Y-111195263D01*
X84181940Y-111321342D01*
X84116677Y-111434381D01*
X84024381Y-111526677D01*
X83911342Y-111591940D01*
X83785263Y-111625722D01*
X83654737Y-111625722D01*
X83528658Y-111591940D01*
X83415619Y-111526677D01*
X83323323Y-111434381D01*
X83258060Y-111321342D01*
X83224278Y-111195263D01*
X83220000Y-111130000D01*
X83220000Y-110030000D01*
X83224278Y-109964737D01*
X83258060Y-109838658D01*
X83323323Y-109725619D01*
X83415619Y-109633323D01*
X83528658Y-109568060D01*
X83654737Y-109534278D01*
X83785263Y-109534278D01*
X83911342Y-109568060D01*
G37*
G36*
X76634372Y-110809739D02*
G01*
X76707847Y-110852160D01*
X76767840Y-110912153D01*
X76810261Y-110985628D01*
X76832220Y-111067579D01*
X76832220Y-111152421D01*
X76810261Y-111234372D01*
X76767840Y-111307847D01*
X76707847Y-111367840D01*
X76634372Y-111410261D01*
X76552421Y-111432220D01*
X76467579Y-111432220D01*
X76385628Y-111410261D01*
X76312153Y-111367840D01*
X76252160Y-111307847D01*
X76209739Y-111234372D01*
X76187780Y-111152421D01*
X76187780Y-111067579D01*
X76209739Y-110985628D01*
X76252160Y-110912153D01*
X76312153Y-110852160D01*
X76385628Y-110809739D01*
X76467579Y-110787780D01*
X76552421Y-110787780D01*
X76634372Y-110809739D01*
G37*
G36*
X82414372Y-110809739D02*
G01*
X82487847Y-110852160D01*
X82547840Y-110912153D01*
X82590261Y-110985628D01*
X82612220Y-111067579D01*
X82612220Y-111152421D01*
X82590261Y-111234372D01*
X82547840Y-111307847D01*
X82487847Y-111367840D01*
X82414372Y-111410261D01*
X82332421Y-111432220D01*
X82247579Y-111432220D01*
X82165628Y-111410261D01*
X82092153Y-111367840D01*
X82032160Y-111307847D01*
X81989739Y-111234372D01*
X81967780Y-111152421D01*
X81967780Y-111067579D01*
X81989739Y-110985628D01*
X82032160Y-110912153D01*
X82092153Y-110852160D01*
X82165628Y-110809739D01*
X82247579Y-110787780D01*
X82332421Y-110787780D01*
X82414372Y-110809739D01*
G37*
G36*
X138121742Y-109341601D02*
G01*
X138275687Y-109405367D01*
X138414234Y-109497941D01*
X138532059Y-109615766D01*
X138624633Y-109754313D01*
X138688399Y-109908258D01*
X138720907Y-110071685D01*
X138720907Y-110238315D01*
X138688399Y-110401742D01*
X138624633Y-110555687D01*
X138532059Y-110694234D01*
X138414234Y-110812059D01*
X138275687Y-110904633D01*
X138121742Y-110968399D01*
X137958315Y-111000907D01*
X137791685Y-111000907D01*
X137628258Y-110968399D01*
X137474313Y-110904633D01*
X137335766Y-110812059D01*
X137217941Y-110694234D01*
X137125367Y-110555687D01*
X137061601Y-110401742D01*
X137029093Y-110238315D01*
X137029093Y-110071685D01*
X137061601Y-109908258D01*
X137125367Y-109754313D01*
X137217941Y-109615766D01*
X137335766Y-109497941D01*
X137474313Y-109405367D01*
X137628258Y-109341601D01*
X137791685Y-109309093D01*
X137958315Y-109309093D01*
X138121742Y-109341601D01*
G37*
G36*
X64560625Y-107033010D02*
G01*
X64569099Y-107035117D01*
X64578701Y-107035873D01*
X64663422Y-107058574D01*
X64744241Y-107078673D01*
X64751070Y-107082060D01*
X64755974Y-107083374D01*
X64838370Y-107125357D01*
X64913747Y-107162741D01*
X64917222Y-107165534D01*
X64918907Y-107166393D01*
X65002136Y-107233790D01*
X65061218Y-107281282D01*
X65108734Y-107340395D01*
X65176106Y-107423592D01*
X65176963Y-107425275D01*
X65179759Y-107428753D01*
X65217160Y-107504165D01*
X65259125Y-107586525D01*
X65260438Y-107591426D01*
X65263827Y-107598259D01*
X65283936Y-107679123D01*
X65306626Y-107763799D01*
X65307381Y-107773395D01*
X65309490Y-107781875D01*
X65317500Y-107900000D01*
X65317500Y-109650000D01*
X65309490Y-109768125D01*
X65307381Y-109776604D01*
X65306626Y-109786201D01*
X65283938Y-109870870D01*
X65263827Y-109951741D01*
X65260437Y-109958574D01*
X65259125Y-109963474D01*
X65217179Y-110045796D01*
X65179759Y-110121247D01*
X65176962Y-110124725D01*
X65176106Y-110126407D01*
X65108844Y-110209468D01*
X65061218Y-110268718D01*
X65001968Y-110316344D01*
X64918907Y-110383606D01*
X64917225Y-110384462D01*
X64913747Y-110387259D01*
X64838296Y-110424679D01*
X64755974Y-110466625D01*
X64751074Y-110467937D01*
X64744241Y-110471327D01*
X64663362Y-110491440D01*
X64578700Y-110514126D01*
X64569105Y-110514881D01*
X64560625Y-110516990D01*
X64442500Y-110525000D01*
X62692500Y-110525000D01*
X62574375Y-110516990D01*
X62565895Y-110514881D01*
X62556298Y-110514126D01*
X62471615Y-110491435D01*
X62390759Y-110471327D01*
X62383926Y-110467938D01*
X62379025Y-110466625D01*
X62296665Y-110424660D01*
X62221253Y-110387259D01*
X62217775Y-110384463D01*
X62216092Y-110383606D01*
X62132895Y-110316234D01*
X62073782Y-110268718D01*
X62026290Y-110209636D01*
X61958893Y-110126407D01*
X61958034Y-110124722D01*
X61955241Y-110121247D01*
X61917857Y-110045870D01*
X61875874Y-109963474D01*
X61874560Y-109958570D01*
X61871173Y-109951741D01*
X61851072Y-109870914D01*
X61828373Y-109786200D01*
X61827617Y-109776599D01*
X61825510Y-109768125D01*
X61817500Y-109650000D01*
X61817500Y-107900000D01*
X61825510Y-107781875D01*
X61827617Y-107773401D01*
X61828373Y-107763798D01*
X61851077Y-107679064D01*
X61871173Y-107598259D01*
X61874559Y-107591430D01*
X61875874Y-107586525D01*
X61917875Y-107504092D01*
X61955241Y-107428753D01*
X61958033Y-107425279D01*
X61958893Y-107423592D01*
X62026400Y-107340227D01*
X62073782Y-107281282D01*
X62132727Y-107233900D01*
X62216092Y-107166393D01*
X62217779Y-107165533D01*
X62221253Y-107162741D01*
X62296592Y-107125375D01*
X62379025Y-107083374D01*
X62383930Y-107082059D01*
X62390759Y-107078673D01*
X62471571Y-107058575D01*
X62556299Y-107035873D01*
X62565901Y-107035117D01*
X62574375Y-107033010D01*
X62692500Y-107025000D01*
X64442500Y-107025000D01*
X64560625Y-107033010D01*
G37*
G36*
X138121742Y-106801601D02*
G01*
X138275687Y-106865367D01*
X138414234Y-106957941D01*
X138532059Y-107075766D01*
X138624633Y-107214313D01*
X138688399Y-107368258D01*
X138720907Y-107531685D01*
X138720907Y-107698315D01*
X138688399Y-107861742D01*
X138624633Y-108015687D01*
X138532059Y-108154234D01*
X138414234Y-108272059D01*
X138275687Y-108364633D01*
X138121742Y-108428399D01*
X137958315Y-108460907D01*
X137791685Y-108460907D01*
X137628258Y-108428399D01*
X137474313Y-108364633D01*
X137335766Y-108272059D01*
X137217941Y-108154234D01*
X137125367Y-108015687D01*
X137061601Y-107861742D01*
X137029093Y-107698315D01*
X137029093Y-107531685D01*
X137061601Y-107368258D01*
X137125367Y-107214313D01*
X137217941Y-107075766D01*
X137335766Y-106957941D01*
X137474313Y-106865367D01*
X137628258Y-106801601D01*
X137791685Y-106769093D01*
X137958315Y-106769093D01*
X138121742Y-106801601D01*
G37*
G36*
X60617500Y-107525000D02*
G01*
X57117500Y-107525000D01*
X57117500Y-104025000D01*
X60617500Y-104025000D01*
X60617500Y-107525000D01*
G37*
G36*
X138121742Y-104261601D02*
G01*
X138275687Y-104325367D01*
X138414234Y-104417941D01*
X138532059Y-104535766D01*
X138624633Y-104674313D01*
X138688399Y-104828258D01*
X138720907Y-104991685D01*
X138720907Y-105158315D01*
X138688399Y-105321742D01*
X138624633Y-105475687D01*
X138532059Y-105614234D01*
X138414234Y-105732059D01*
X138275687Y-105824633D01*
X138121742Y-105888399D01*
X137958315Y-105920907D01*
X137791685Y-105920907D01*
X137628258Y-105888399D01*
X137474313Y-105824633D01*
X137335766Y-105732059D01*
X137217941Y-105614234D01*
X137125367Y-105475687D01*
X137061601Y-105321742D01*
X137029093Y-105158315D01*
X137029093Y-104991685D01*
X137061601Y-104828258D01*
X137125367Y-104674313D01*
X137217941Y-104535766D01*
X137335766Y-104417941D01*
X137474313Y-104325367D01*
X137628258Y-104261601D01*
X137791685Y-104229093D01*
X137958315Y-104229093D01*
X138121742Y-104261601D01*
G37*
G36*
X52446742Y-102551601D02*
G01*
X52600687Y-102615367D01*
X52739234Y-102707941D01*
X52857059Y-102825766D01*
X52949633Y-102964313D01*
X53013399Y-103118258D01*
X53045907Y-103281685D01*
X53045907Y-103448315D01*
X53013399Y-103611742D01*
X52949633Y-103765687D01*
X52857059Y-103904234D01*
X52739234Y-104022059D01*
X52600687Y-104114633D01*
X52446742Y-104178399D01*
X52283315Y-104210907D01*
X52116685Y-104210907D01*
X51953258Y-104178399D01*
X51799313Y-104114633D01*
X51660766Y-104022059D01*
X51542941Y-103904234D01*
X51450367Y-103765687D01*
X51386601Y-103611742D01*
X51354093Y-103448315D01*
X51354093Y-103281685D01*
X51386601Y-103118258D01*
X51450367Y-102964313D01*
X51542941Y-102825766D01*
X51660766Y-102707941D01*
X51799313Y-102615367D01*
X51953258Y-102551601D01*
X52116685Y-102519093D01*
X52283315Y-102519093D01*
X52446742Y-102551601D01*
G37*
G36*
X138121742Y-101721601D02*
G01*
X138275687Y-101785367D01*
X138414234Y-101877941D01*
X138532059Y-101995766D01*
X138624633Y-102134313D01*
X138688399Y-102288258D01*
X138720907Y-102451685D01*
X138720907Y-102618315D01*
X138688399Y-102781742D01*
X138624633Y-102935687D01*
X138532059Y-103074234D01*
X138414234Y-103192059D01*
X138275687Y-103284633D01*
X138121742Y-103348399D01*
X137958315Y-103380907D01*
X137791685Y-103380907D01*
X137628258Y-103348399D01*
X137474313Y-103284633D01*
X137335766Y-103192059D01*
X137217941Y-103074234D01*
X137125367Y-102935687D01*
X137061601Y-102781742D01*
X137029093Y-102618315D01*
X137029093Y-102451685D01*
X137061601Y-102288258D01*
X137125367Y-102134313D01*
X137217941Y-101995766D01*
X137335766Y-101877941D01*
X137474313Y-101785367D01*
X137628258Y-101721601D01*
X137791685Y-101689093D01*
X137958315Y-101689093D01*
X138121742Y-101721601D01*
G37*
G36*
X52446742Y-100011601D02*
G01*
X52600687Y-100075367D01*
X52739234Y-100167941D01*
X52857059Y-100285766D01*
X52949633Y-100424313D01*
X53013399Y-100578258D01*
X53045907Y-100741685D01*
X53045907Y-100908315D01*
X53013399Y-101071742D01*
X52949633Y-101225687D01*
X52857059Y-101364234D01*
X52739234Y-101482059D01*
X52600687Y-101574633D01*
X52446742Y-101638399D01*
X52283315Y-101670907D01*
X52116685Y-101670907D01*
X51953258Y-101638399D01*
X51799313Y-101574633D01*
X51660766Y-101482059D01*
X51542941Y-101364234D01*
X51450367Y-101225687D01*
X51386601Y-101071742D01*
X51354093Y-100908315D01*
X51354093Y-100741685D01*
X51386601Y-100578258D01*
X51450367Y-100424313D01*
X51542941Y-100285766D01*
X51660766Y-100167941D01*
X51799313Y-100075367D01*
X51953258Y-100011601D01*
X52116685Y-99979093D01*
X52283315Y-99979093D01*
X52446742Y-100011601D01*
G37*
G36*
X138121742Y-99181601D02*
G01*
X138275687Y-99245367D01*
X138414234Y-99337941D01*
X138532059Y-99455766D01*
X138624633Y-99594313D01*
X138688399Y-99748258D01*
X138720907Y-99911685D01*
X138720907Y-100078315D01*
X138688399Y-100241742D01*
X138624633Y-100395687D01*
X138532059Y-100534234D01*
X138414234Y-100652059D01*
X138275687Y-100744633D01*
X138121742Y-100808399D01*
X137958315Y-100840907D01*
X137791685Y-100840907D01*
X137628258Y-100808399D01*
X137474313Y-100744633D01*
X137335766Y-100652059D01*
X137217941Y-100534234D01*
X137125367Y-100395687D01*
X137061601Y-100241742D01*
X137029093Y-100078315D01*
X137029093Y-99911685D01*
X137061601Y-99748258D01*
X137125367Y-99594313D01*
X137217941Y-99455766D01*
X137335766Y-99337941D01*
X137474313Y-99245367D01*
X137628258Y-99181601D01*
X137791685Y-99149093D01*
X137958315Y-99149093D01*
X138121742Y-99181601D01*
G37*
G36*
X52446742Y-97471601D02*
G01*
X52600687Y-97535367D01*
X52739234Y-97627941D01*
X52857059Y-97745766D01*
X52949633Y-97884313D01*
X53013399Y-98038258D01*
X53045907Y-98201685D01*
X53045907Y-98368315D01*
X53013399Y-98531742D01*
X52949633Y-98685687D01*
X52857059Y-98824234D01*
X52739234Y-98942059D01*
X52600687Y-99034633D01*
X52446742Y-99098399D01*
X52283315Y-99130907D01*
X52116685Y-99130907D01*
X51953258Y-99098399D01*
X51799313Y-99034633D01*
X51660766Y-98942059D01*
X51542941Y-98824234D01*
X51450367Y-98685687D01*
X51386601Y-98531742D01*
X51354093Y-98368315D01*
X51354093Y-98201685D01*
X51386601Y-98038258D01*
X51450367Y-97884313D01*
X51542941Y-97745766D01*
X51660766Y-97627941D01*
X51799313Y-97535367D01*
X51953258Y-97471601D01*
X52116685Y-97439093D01*
X52283315Y-97439093D01*
X52446742Y-97471601D01*
G37*
G36*
X138121742Y-96641601D02*
G01*
X138275687Y-96705367D01*
X138414234Y-96797941D01*
X138532059Y-96915766D01*
X138624633Y-97054313D01*
X138688399Y-97208258D01*
X138720907Y-97371685D01*
X138720907Y-97538315D01*
X138688399Y-97701742D01*
X138624633Y-97855687D01*
X138532059Y-97994234D01*
X138414234Y-98112059D01*
X138275687Y-98204633D01*
X138121742Y-98268399D01*
X137958315Y-98300907D01*
X137791685Y-98300907D01*
X137628258Y-98268399D01*
X137474313Y-98204633D01*
X137335766Y-98112059D01*
X137217941Y-97994234D01*
X137125367Y-97855687D01*
X137061601Y-97701742D01*
X137029093Y-97538315D01*
X137029093Y-97371685D01*
X137061601Y-97208258D01*
X137125367Y-97054313D01*
X137217941Y-96915766D01*
X137335766Y-96797941D01*
X137474313Y-96705367D01*
X137628258Y-96641601D01*
X137791685Y-96609093D01*
X137958315Y-96609093D01*
X138121742Y-96641601D01*
G37*
G36*
X52446742Y-94931601D02*
G01*
X52600687Y-94995367D01*
X52739234Y-95087941D01*
X52857059Y-95205766D01*
X52949633Y-95344313D01*
X53013399Y-95498258D01*
X53045907Y-95661685D01*
X53045907Y-95828315D01*
X53013399Y-95991742D01*
X52949633Y-96145687D01*
X52857059Y-96284234D01*
X52739234Y-96402059D01*
X52600687Y-96494633D01*
X52446742Y-96558399D01*
X52283315Y-96590907D01*
X52116685Y-96590907D01*
X51953258Y-96558399D01*
X51799313Y-96494633D01*
X51660766Y-96402059D01*
X51542941Y-96284234D01*
X51450367Y-96145687D01*
X51386601Y-95991742D01*
X51354093Y-95828315D01*
X51354093Y-95661685D01*
X51386601Y-95498258D01*
X51450367Y-95344313D01*
X51542941Y-95205766D01*
X51660766Y-95087941D01*
X51799313Y-94995367D01*
X51953258Y-94931601D01*
X52116685Y-94899093D01*
X52283315Y-94899093D01*
X52446742Y-94931601D01*
G37*
G36*
X138121742Y-94101601D02*
G01*
X138275687Y-94165367D01*
X138414234Y-94257941D01*
X138532059Y-94375766D01*
X138624633Y-94514313D01*
X138688399Y-94668258D01*
X138720907Y-94831685D01*
X138720907Y-94998315D01*
X138688399Y-95161742D01*
X138624633Y-95315687D01*
X138532059Y-95454234D01*
X138414234Y-95572059D01*
X138275687Y-95664633D01*
X138121742Y-95728399D01*
X137958315Y-95760907D01*
X137791685Y-95760907D01*
X137628258Y-95728399D01*
X137474313Y-95664633D01*
X137335766Y-95572059D01*
X137217941Y-95454234D01*
X137125367Y-95315687D01*
X137061601Y-95161742D01*
X137029093Y-94998315D01*
X137029093Y-94831685D01*
X137061601Y-94668258D01*
X137125367Y-94514313D01*
X137217941Y-94375766D01*
X137335766Y-94257941D01*
X137474313Y-94165367D01*
X137628258Y-94101601D01*
X137791685Y-94069093D01*
X137958315Y-94069093D01*
X138121742Y-94101601D01*
G37*
G36*
X52446742Y-92391601D02*
G01*
X52600687Y-92455367D01*
X52739234Y-92547941D01*
X52857059Y-92665766D01*
X52949633Y-92804313D01*
X53013399Y-92958258D01*
X53045907Y-93121685D01*
X53045907Y-93288315D01*
X53013399Y-93451742D01*
X52949633Y-93605687D01*
X52857059Y-93744234D01*
X52739234Y-93862059D01*
X52600687Y-93954633D01*
X52446742Y-94018399D01*
X52283315Y-94050907D01*
X52116685Y-94050907D01*
X51953258Y-94018399D01*
X51799313Y-93954633D01*
X51660766Y-93862059D01*
X51542941Y-93744234D01*
X51450367Y-93605687D01*
X51386601Y-93451742D01*
X51354093Y-93288315D01*
X51354093Y-93121685D01*
X51386601Y-92958258D01*
X51450367Y-92804313D01*
X51542941Y-92665766D01*
X51660766Y-92547941D01*
X51799313Y-92455367D01*
X51953258Y-92391601D01*
X52116685Y-92359093D01*
X52283315Y-92359093D01*
X52446742Y-92391601D01*
G37*
G36*
X138121742Y-91561601D02*
G01*
X138275687Y-91625367D01*
X138414234Y-91717941D01*
X138532059Y-91835766D01*
X138624633Y-91974313D01*
X138688399Y-92128258D01*
X138720907Y-92291685D01*
X138720907Y-92458315D01*
X138688399Y-92621742D01*
X138624633Y-92775687D01*
X138532059Y-92914234D01*
X138414234Y-93032059D01*
X138275687Y-93124633D01*
X138121742Y-93188399D01*
X137958315Y-93220907D01*
X137791685Y-93220907D01*
X137628258Y-93188399D01*
X137474313Y-93124633D01*
X137335766Y-93032059D01*
X137217941Y-92914234D01*
X137125367Y-92775687D01*
X137061601Y-92621742D01*
X137029093Y-92458315D01*
X137029093Y-92291685D01*
X137061601Y-92128258D01*
X137125367Y-91974313D01*
X137217941Y-91835766D01*
X137335766Y-91717941D01*
X137474313Y-91625367D01*
X137628258Y-91561601D01*
X137791685Y-91529093D01*
X137958315Y-91529093D01*
X138121742Y-91561601D01*
G37*
G36*
X52446742Y-89851601D02*
G01*
X52600687Y-89915367D01*
X52739234Y-90007941D01*
X52857059Y-90125766D01*
X52949633Y-90264313D01*
X53013399Y-90418258D01*
X53045907Y-90581685D01*
X53045907Y-90748315D01*
X53013399Y-90911742D01*
X52949633Y-91065687D01*
X52857059Y-91204234D01*
X52739234Y-91322059D01*
X52600687Y-91414633D01*
X52446742Y-91478399D01*
X52283315Y-91510907D01*
X52116685Y-91510907D01*
X51953258Y-91478399D01*
X51799313Y-91414633D01*
X51660766Y-91322059D01*
X51542941Y-91204234D01*
X51450367Y-91065687D01*
X51386601Y-90911742D01*
X51354093Y-90748315D01*
X51354093Y-90581685D01*
X51386601Y-90418258D01*
X51450367Y-90264313D01*
X51542941Y-90125766D01*
X51660766Y-90007941D01*
X51799313Y-89915367D01*
X51953258Y-89851601D01*
X52116685Y-89819093D01*
X52283315Y-89819093D01*
X52446742Y-89851601D01*
G37*
G36*
X138121742Y-89021601D02*
G01*
X138275687Y-89085367D01*
X138414234Y-89177941D01*
X138532059Y-89295766D01*
X138624633Y-89434313D01*
X138688399Y-89588258D01*
X138720907Y-89751685D01*
X138720907Y-89918315D01*
X138688399Y-90081742D01*
X138624633Y-90235687D01*
X138532059Y-90374234D01*
X138414234Y-90492059D01*
X138275687Y-90584633D01*
X138121742Y-90648399D01*
X137958315Y-90680907D01*
X137791685Y-90680907D01*
X137628258Y-90648399D01*
X137474313Y-90584633D01*
X137335766Y-90492059D01*
X137217941Y-90374234D01*
X137125367Y-90235687D01*
X137061601Y-90081742D01*
X137029093Y-89918315D01*
X137029093Y-89751685D01*
X137061601Y-89588258D01*
X137125367Y-89434313D01*
X137217941Y-89295766D01*
X137335766Y-89177941D01*
X137474313Y-89085367D01*
X137628258Y-89021601D01*
X137791685Y-88989093D01*
X137958315Y-88989093D01*
X138121742Y-89021601D01*
G37*
G36*
X52446742Y-87311601D02*
G01*
X52600687Y-87375367D01*
X52739234Y-87467941D01*
X52857059Y-87585766D01*
X52949633Y-87724313D01*
X53013399Y-87878258D01*
X53045907Y-88041685D01*
X53045907Y-88208315D01*
X53013399Y-88371742D01*
X52949633Y-88525687D01*
X52857059Y-88664234D01*
X52739234Y-88782059D01*
X52600687Y-88874633D01*
X52446742Y-88938399D01*
X52283315Y-88970907D01*
X52116685Y-88970907D01*
X51953258Y-88938399D01*
X51799313Y-88874633D01*
X51660766Y-88782059D01*
X51542941Y-88664234D01*
X51450367Y-88525687D01*
X51386601Y-88371742D01*
X51354093Y-88208315D01*
X51354093Y-88041685D01*
X51386601Y-87878258D01*
X51450367Y-87724313D01*
X51542941Y-87585766D01*
X51660766Y-87467941D01*
X51799313Y-87375367D01*
X51953258Y-87311601D01*
X52116685Y-87279093D01*
X52283315Y-87279093D01*
X52446742Y-87311601D01*
G37*
G36*
X138121742Y-86481601D02*
G01*
X138275687Y-86545367D01*
X138414234Y-86637941D01*
X138532059Y-86755766D01*
X138624633Y-86894313D01*
X138688399Y-87048258D01*
X138720907Y-87211685D01*
X138720907Y-87378315D01*
X138688399Y-87541742D01*
X138624633Y-87695687D01*
X138532059Y-87834234D01*
X138414234Y-87952059D01*
X138275687Y-88044633D01*
X138121742Y-88108399D01*
X137958315Y-88140907D01*
X137791685Y-88140907D01*
X137628258Y-88108399D01*
X137474313Y-88044633D01*
X137335766Y-87952059D01*
X137217941Y-87834234D01*
X137125367Y-87695687D01*
X137061601Y-87541742D01*
X137029093Y-87378315D01*
X137029093Y-87211685D01*
X137061601Y-87048258D01*
X137125367Y-86894313D01*
X137217941Y-86755766D01*
X137335766Y-86637941D01*
X137474313Y-86545367D01*
X137628258Y-86481601D01*
X137791685Y-86449093D01*
X137958315Y-86449093D01*
X138121742Y-86481601D01*
G37*
G36*
X52446742Y-84771601D02*
G01*
X52600687Y-84835367D01*
X52739234Y-84927941D01*
X52857059Y-85045766D01*
X52949633Y-85184313D01*
X53013399Y-85338258D01*
X53045907Y-85501685D01*
X53045907Y-85668315D01*
X53013399Y-85831742D01*
X52949633Y-85985687D01*
X52857059Y-86124234D01*
X52739234Y-86242059D01*
X52600687Y-86334633D01*
X52446742Y-86398399D01*
X52283315Y-86430907D01*
X52116685Y-86430907D01*
X51953258Y-86398399D01*
X51799313Y-86334633D01*
X51660766Y-86242059D01*
X51542941Y-86124234D01*
X51450367Y-85985687D01*
X51386601Y-85831742D01*
X51354093Y-85668315D01*
X51354093Y-85501685D01*
X51386601Y-85338258D01*
X51450367Y-85184313D01*
X51542941Y-85045766D01*
X51660766Y-84927941D01*
X51799313Y-84835367D01*
X51953258Y-84771601D01*
X52116685Y-84739093D01*
X52283315Y-84739093D01*
X52446742Y-84771601D01*
G37*
G36*
X138121742Y-83941601D02*
G01*
X138275687Y-84005367D01*
X138414234Y-84097941D01*
X138532059Y-84215766D01*
X138624633Y-84354313D01*
X138688399Y-84508258D01*
X138720907Y-84671685D01*
X138720907Y-84838315D01*
X138688399Y-85001742D01*
X138624633Y-85155687D01*
X138532059Y-85294234D01*
X138414234Y-85412059D01*
X138275687Y-85504633D01*
X138121742Y-85568399D01*
X137958315Y-85600907D01*
X137791685Y-85600907D01*
X137628258Y-85568399D01*
X137474313Y-85504633D01*
X137335766Y-85412059D01*
X137217941Y-85294234D01*
X137125367Y-85155687D01*
X137061601Y-85001742D01*
X137029093Y-84838315D01*
X137029093Y-84671685D01*
X137061601Y-84508258D01*
X137125367Y-84354313D01*
X137217941Y-84215766D01*
X137335766Y-84097941D01*
X137474313Y-84005367D01*
X137628258Y-83941601D01*
X137791685Y-83909093D01*
X137958315Y-83909093D01*
X138121742Y-83941601D01*
G37*
G36*
X52446742Y-82231601D02*
G01*
X52600687Y-82295367D01*
X52739234Y-82387941D01*
X52857059Y-82505766D01*
X52949633Y-82644313D01*
X53013399Y-82798258D01*
X53045907Y-82961685D01*
X53045907Y-83128315D01*
X53013399Y-83291742D01*
X52949633Y-83445687D01*
X52857059Y-83584234D01*
X52739234Y-83702059D01*
X52600687Y-83794633D01*
X52446742Y-83858399D01*
X52283315Y-83890907D01*
X52116685Y-83890907D01*
X51953258Y-83858399D01*
X51799313Y-83794633D01*
X51660766Y-83702059D01*
X51542941Y-83584234D01*
X51450367Y-83445687D01*
X51386601Y-83291742D01*
X51354093Y-83128315D01*
X51354093Y-82961685D01*
X51386601Y-82798258D01*
X51450367Y-82644313D01*
X51542941Y-82505766D01*
X51660766Y-82387941D01*
X51799313Y-82295367D01*
X51953258Y-82231601D01*
X52116685Y-82199093D01*
X52283315Y-82199093D01*
X52446742Y-82231601D01*
G37*
G36*
X138121742Y-81401601D02*
G01*
X138275687Y-81465367D01*
X138414234Y-81557941D01*
X138532059Y-81675766D01*
X138624633Y-81814313D01*
X138688399Y-81968258D01*
X138720907Y-82131685D01*
X138720907Y-82298315D01*
X138688399Y-82461742D01*
X138624633Y-82615687D01*
X138532059Y-82754234D01*
X138414234Y-82872059D01*
X138275687Y-82964633D01*
X138121742Y-83028399D01*
X137958315Y-83060907D01*
X137791685Y-83060907D01*
X137628258Y-83028399D01*
X137474313Y-82964633D01*
X137335766Y-82872059D01*
X137217941Y-82754234D01*
X137125367Y-82615687D01*
X137061601Y-82461742D01*
X137029093Y-82298315D01*
X137029093Y-82131685D01*
X137061601Y-81968258D01*
X137125367Y-81814313D01*
X137217941Y-81675766D01*
X137335766Y-81557941D01*
X137474313Y-81465367D01*
X137628258Y-81401601D01*
X137791685Y-81369093D01*
X137958315Y-81369093D01*
X138121742Y-81401601D01*
G37*
G36*
X52446742Y-79691601D02*
G01*
X52600687Y-79755367D01*
X52739234Y-79847941D01*
X52857059Y-79965766D01*
X52949633Y-80104313D01*
X53013399Y-80258258D01*
X53045907Y-80421685D01*
X53045907Y-80588315D01*
X53013399Y-80751742D01*
X52949633Y-80905687D01*
X52857059Y-81044234D01*
X52739234Y-81162059D01*
X52600687Y-81254633D01*
X52446742Y-81318399D01*
X52283315Y-81350907D01*
X52116685Y-81350907D01*
X51953258Y-81318399D01*
X51799313Y-81254633D01*
X51660766Y-81162059D01*
X51542941Y-81044234D01*
X51450367Y-80905687D01*
X51386601Y-80751742D01*
X51354093Y-80588315D01*
X51354093Y-80421685D01*
X51386601Y-80258258D01*
X51450367Y-80104313D01*
X51542941Y-79965766D01*
X51660766Y-79847941D01*
X51799313Y-79755367D01*
X51953258Y-79691601D01*
X52116685Y-79659093D01*
X52283315Y-79659093D01*
X52446742Y-79691601D01*
G37*
G36*
X138121742Y-78861601D02*
G01*
X138275687Y-78925367D01*
X138414234Y-79017941D01*
X138532059Y-79135766D01*
X138624633Y-79274313D01*
X138688399Y-79428258D01*
X138720907Y-79591685D01*
X138720907Y-79758315D01*
X138688399Y-79921742D01*
X138624633Y-80075687D01*
X138532059Y-80214234D01*
X138414234Y-80332059D01*
X138275687Y-80424633D01*
X138121742Y-80488399D01*
X137958315Y-80520907D01*
X137791685Y-80520907D01*
X137628258Y-80488399D01*
X137474313Y-80424633D01*
X137335766Y-80332059D01*
X137217941Y-80214234D01*
X137125367Y-80075687D01*
X137061601Y-79921742D01*
X137029093Y-79758315D01*
X137029093Y-79591685D01*
X137061601Y-79428258D01*
X137125367Y-79274313D01*
X137217941Y-79135766D01*
X137335766Y-79017941D01*
X137474313Y-78925367D01*
X137628258Y-78861601D01*
X137791685Y-78829093D01*
X137958315Y-78829093D01*
X138121742Y-78861601D01*
G37*
G36*
X52446742Y-77151601D02*
G01*
X52600687Y-77215367D01*
X52739234Y-77307941D01*
X52857059Y-77425766D01*
X52949633Y-77564313D01*
X53013399Y-77718258D01*
X53045907Y-77881685D01*
X53045907Y-78048315D01*
X53013399Y-78211742D01*
X52949633Y-78365687D01*
X52857059Y-78504234D01*
X52739234Y-78622059D01*
X52600687Y-78714633D01*
X52446742Y-78778399D01*
X52283315Y-78810907D01*
X52116685Y-78810907D01*
X51953258Y-78778399D01*
X51799313Y-78714633D01*
X51660766Y-78622059D01*
X51542941Y-78504234D01*
X51450367Y-78365687D01*
X51386601Y-78211742D01*
X51354093Y-78048315D01*
X51354093Y-77881685D01*
X51386601Y-77718258D01*
X51450367Y-77564313D01*
X51542941Y-77425766D01*
X51660766Y-77307941D01*
X51799313Y-77215367D01*
X51953258Y-77151601D01*
X52116685Y-77119093D01*
X52283315Y-77119093D01*
X52446742Y-77151601D01*
G37*
G36*
X138121742Y-76321601D02*
G01*
X138275687Y-76385367D01*
X138414234Y-76477941D01*
X138532059Y-76595766D01*
X138624633Y-76734313D01*
X138688399Y-76888258D01*
X138720907Y-77051685D01*
X138720907Y-77218315D01*
X138688399Y-77381742D01*
X138624633Y-77535687D01*
X138532059Y-77674234D01*
X138414234Y-77792059D01*
X138275687Y-77884633D01*
X138121742Y-77948399D01*
X137958315Y-77980907D01*
X137791685Y-77980907D01*
X137628258Y-77948399D01*
X137474313Y-77884633D01*
X137335766Y-77792059D01*
X137217941Y-77674234D01*
X137125367Y-77535687D01*
X137061601Y-77381742D01*
X137029093Y-77218315D01*
X137029093Y-77051685D01*
X137061601Y-76888258D01*
X137125367Y-76734313D01*
X137217941Y-76595766D01*
X137335766Y-76477941D01*
X137474313Y-76385367D01*
X137628258Y-76321601D01*
X137791685Y-76289093D01*
X137958315Y-76289093D01*
X138121742Y-76321601D01*
G37*
G36*
X53050000Y-76275000D02*
G01*
X51350000Y-76275000D01*
X51350000Y-74575000D01*
X53050000Y-74575000D01*
X53050000Y-76275000D01*
G37*
G36*
X138121742Y-73781601D02*
G01*
X138275687Y-73845367D01*
X138414234Y-73937941D01*
X138532059Y-74055766D01*
X138624633Y-74194313D01*
X138688399Y-74348258D01*
X138720907Y-74511685D01*
X138720907Y-74678315D01*
X138688399Y-74841742D01*
X138624633Y-74995687D01*
X138532059Y-75134234D01*
X138414234Y-75252059D01*
X138275687Y-75344633D01*
X138121742Y-75408399D01*
X137958315Y-75440907D01*
X137791685Y-75440907D01*
X137628258Y-75408399D01*
X137474313Y-75344633D01*
X137335766Y-75252059D01*
X137217941Y-75134234D01*
X137125367Y-74995687D01*
X137061601Y-74841742D01*
X137029093Y-74678315D01*
X137029093Y-74511685D01*
X137061601Y-74348258D01*
X137125367Y-74194313D01*
X137217941Y-74055766D01*
X137335766Y-73937941D01*
X137474313Y-73845367D01*
X137628258Y-73781601D01*
X137791685Y-73749093D01*
X137958315Y-73749093D01*
X138121742Y-73781601D01*
G37*
G36*
X138121742Y-71241601D02*
G01*
X138275687Y-71305367D01*
X138414234Y-71397941D01*
X138532059Y-71515766D01*
X138624633Y-71654313D01*
X138688399Y-71808258D01*
X138720907Y-71971685D01*
X138720907Y-72138315D01*
X138688399Y-72301742D01*
X138624633Y-72455687D01*
X138532059Y-72594234D01*
X138414234Y-72712059D01*
X138275687Y-72804633D01*
X138121742Y-72868399D01*
X137958315Y-72900907D01*
X137791685Y-72900907D01*
X137628258Y-72868399D01*
X137474313Y-72804633D01*
X137335766Y-72712059D01*
X137217941Y-72594234D01*
X137125367Y-72455687D01*
X137061601Y-72301742D01*
X137029093Y-72138315D01*
X137029093Y-71971685D01*
X137061601Y-71808258D01*
X137125367Y-71654313D01*
X137217941Y-71515766D01*
X137335766Y-71397941D01*
X137474313Y-71305367D01*
X137628258Y-71241601D01*
X137791685Y-71209093D01*
X137958315Y-71209093D01*
X138121742Y-71241601D01*
G37*
G36*
X53050000Y-72590000D02*
G01*
X51350000Y-72590000D01*
X51350000Y-70890000D01*
X53050000Y-70890000D01*
X53050000Y-72590000D01*
G37*
G36*
X138121742Y-68701601D02*
G01*
X138275687Y-68765367D01*
X138414234Y-68857941D01*
X138532059Y-68975766D01*
X138624633Y-69114313D01*
X138688399Y-69268258D01*
X138720907Y-69431685D01*
X138720907Y-69598315D01*
X138688399Y-69761742D01*
X138624633Y-69915687D01*
X138532059Y-70054234D01*
X138414234Y-70172059D01*
X138275687Y-70264633D01*
X138121742Y-70328399D01*
X137958315Y-70360907D01*
X137791685Y-70360907D01*
X137628258Y-70328399D01*
X137474313Y-70264633D01*
X137335766Y-70172059D01*
X137217941Y-70054234D01*
X137125367Y-69915687D01*
X137061601Y-69761742D01*
X137029093Y-69598315D01*
X137029093Y-69431685D01*
X137061601Y-69268258D01*
X137125367Y-69114313D01*
X137217941Y-68975766D01*
X137335766Y-68857941D01*
X137474313Y-68765367D01*
X137628258Y-68701601D01*
X137791685Y-68669093D01*
X137958315Y-68669093D01*
X138121742Y-68701601D01*
G37*
G36*
X52446742Y-68386601D02*
G01*
X52600687Y-68450367D01*
X52739234Y-68542941D01*
X52857059Y-68660766D01*
X52949633Y-68799313D01*
X53013399Y-68953258D01*
X53045907Y-69116685D01*
X53045907Y-69283315D01*
X53013399Y-69446742D01*
X52949633Y-69600687D01*
X52857059Y-69739234D01*
X52739234Y-69857059D01*
X52600687Y-69949633D01*
X52446742Y-70013399D01*
X52283315Y-70045907D01*
X52116685Y-70045907D01*
X51953258Y-70013399D01*
X51799313Y-69949633D01*
X51660766Y-69857059D01*
X51542941Y-69739234D01*
X51450367Y-69600687D01*
X51386601Y-69446742D01*
X51354093Y-69283315D01*
X51354093Y-69116685D01*
X51386601Y-68953258D01*
X51450367Y-68799313D01*
X51542941Y-68660766D01*
X51660766Y-68542941D01*
X51799313Y-68450367D01*
X51953258Y-68386601D01*
X52116685Y-68354093D01*
X52283315Y-68354093D01*
X52446742Y-68386601D01*
G37*
G36*
X138121742Y-66161601D02*
G01*
X138275687Y-66225367D01*
X138414234Y-66317941D01*
X138532059Y-66435766D01*
X138624633Y-66574313D01*
X138688399Y-66728258D01*
X138720907Y-66891685D01*
X138720907Y-67058315D01*
X138688399Y-67221742D01*
X138624633Y-67375687D01*
X138532059Y-67514234D01*
X138414234Y-67632059D01*
X138275687Y-67724633D01*
X138121742Y-67788399D01*
X137958315Y-67820907D01*
X137791685Y-67820907D01*
X137628258Y-67788399D01*
X137474313Y-67724633D01*
X137335766Y-67632059D01*
X137217941Y-67514234D01*
X137125367Y-67375687D01*
X137061601Y-67221742D01*
X137029093Y-67058315D01*
X137029093Y-66891685D01*
X137061601Y-66728258D01*
X137125367Y-66574313D01*
X137217941Y-66435766D01*
X137335766Y-66317941D01*
X137474313Y-66225367D01*
X137628258Y-66161601D01*
X137791685Y-66129093D01*
X137958315Y-66129093D01*
X138121742Y-66161601D01*
G37*
G36*
X52446742Y-65846601D02*
G01*
X52600687Y-65910367D01*
X52739234Y-66002941D01*
X52857059Y-66120766D01*
X52949633Y-66259313D01*
X53013399Y-66413258D01*
X53045907Y-66576685D01*
X53045907Y-66743315D01*
X53013399Y-66906742D01*
X52949633Y-67060687D01*
X52857059Y-67199234D01*
X52739234Y-67317059D01*
X52600687Y-67409633D01*
X52446742Y-67473399D01*
X52283315Y-67505907D01*
X52116685Y-67505907D01*
X51953258Y-67473399D01*
X51799313Y-67409633D01*
X51660766Y-67317059D01*
X51542941Y-67199234D01*
X51450367Y-67060687D01*
X51386601Y-66906742D01*
X51354093Y-66743315D01*
X51354093Y-66576685D01*
X51386601Y-66413258D01*
X51450367Y-66259313D01*
X51542941Y-66120766D01*
X51660766Y-66002941D01*
X51799313Y-65910367D01*
X51953258Y-65846601D01*
X52116685Y-65814093D01*
X52283315Y-65814093D01*
X52446742Y-65846601D01*
G37*
G36*
X138121742Y-63621601D02*
G01*
X138275687Y-63685367D01*
X138414234Y-63777941D01*
X138532059Y-63895766D01*
X138624633Y-64034313D01*
X138688399Y-64188258D01*
X138720907Y-64351685D01*
X138720907Y-64518315D01*
X138688399Y-64681742D01*
X138624633Y-64835687D01*
X138532059Y-64974234D01*
X138414234Y-65092059D01*
X138275687Y-65184633D01*
X138121742Y-65248399D01*
X137958315Y-65280907D01*
X137791685Y-65280907D01*
X137628258Y-65248399D01*
X137474313Y-65184633D01*
X137335766Y-65092059D01*
X137217941Y-64974234D01*
X137125367Y-64835687D01*
X137061601Y-64681742D01*
X137029093Y-64518315D01*
X137029093Y-64351685D01*
X137061601Y-64188258D01*
X137125367Y-64034313D01*
X137217941Y-63895766D01*
X137335766Y-63777941D01*
X137474313Y-63685367D01*
X137628258Y-63621601D01*
X137791685Y-63589093D01*
X137958315Y-63589093D01*
X138121742Y-63621601D01*
G37*
G36*
X52446742Y-63306601D02*
G01*
X52600687Y-63370367D01*
X52739234Y-63462941D01*
X52857059Y-63580766D01*
X52949633Y-63719313D01*
X53013399Y-63873258D01*
X53045907Y-64036685D01*
X53045907Y-64203315D01*
X53013399Y-64366742D01*
X52949633Y-64520687D01*
X52857059Y-64659234D01*
X52739234Y-64777059D01*
X52600687Y-64869633D01*
X52446742Y-64933399D01*
X52283315Y-64965907D01*
X52116685Y-64965907D01*
X51953258Y-64933399D01*
X51799313Y-64869633D01*
X51660766Y-64777059D01*
X51542941Y-64659234D01*
X51450367Y-64520687D01*
X51386601Y-64366742D01*
X51354093Y-64203315D01*
X51354093Y-64036685D01*
X51386601Y-63873258D01*
X51450367Y-63719313D01*
X51542941Y-63580766D01*
X51660766Y-63462941D01*
X51799313Y-63370367D01*
X51953258Y-63306601D01*
X52116685Y-63274093D01*
X52283315Y-63274093D01*
X52446742Y-63306601D01*
G37*
G36*
X138121742Y-61081601D02*
G01*
X138275687Y-61145367D01*
X138414234Y-61237941D01*
X138532059Y-61355766D01*
X138624633Y-61494313D01*
X138688399Y-61648258D01*
X138720907Y-61811685D01*
X138720907Y-61978315D01*
X138688399Y-62141742D01*
X138624633Y-62295687D01*
X138532059Y-62434234D01*
X138414234Y-62552059D01*
X138275687Y-62644633D01*
X138121742Y-62708399D01*
X137958315Y-62740907D01*
X137791685Y-62740907D01*
X137628258Y-62708399D01*
X137474313Y-62644633D01*
X137335766Y-62552059D01*
X137217941Y-62434234D01*
X137125367Y-62295687D01*
X137061601Y-62141742D01*
X137029093Y-61978315D01*
X137029093Y-61811685D01*
X137061601Y-61648258D01*
X137125367Y-61494313D01*
X137217941Y-61355766D01*
X137335766Y-61237941D01*
X137474313Y-61145367D01*
X137628258Y-61081601D01*
X137791685Y-61049093D01*
X137958315Y-61049093D01*
X138121742Y-61081601D01*
G37*
G36*
X52446742Y-60766601D02*
G01*
X52600687Y-60830367D01*
X52739234Y-60922941D01*
X52857059Y-61040766D01*
X52949633Y-61179313D01*
X53013399Y-61333258D01*
X53045907Y-61496685D01*
X53045907Y-61663315D01*
X53013399Y-61826742D01*
X52949633Y-61980687D01*
X52857059Y-62119234D01*
X52739234Y-62237059D01*
X52600687Y-62329633D01*
X52446742Y-62393399D01*
X52283315Y-62425907D01*
X52116685Y-62425907D01*
X51953258Y-62393399D01*
X51799313Y-62329633D01*
X51660766Y-62237059D01*
X51542941Y-62119234D01*
X51450367Y-61980687D01*
X51386601Y-61826742D01*
X51354093Y-61663315D01*
X51354093Y-61496685D01*
X51386601Y-61333258D01*
X51450367Y-61179313D01*
X51542941Y-61040766D01*
X51660766Y-60922941D01*
X51799313Y-60830367D01*
X51953258Y-60766601D01*
X52116685Y-60734093D01*
X52283315Y-60734093D01*
X52446742Y-60766601D01*
G37*
G36*
X138121742Y-58541601D02*
G01*
X138275687Y-58605367D01*
X138414234Y-58697941D01*
X138532059Y-58815766D01*
X138624633Y-58954313D01*
X138688399Y-59108258D01*
X138720907Y-59271685D01*
X138720907Y-59438315D01*
X138688399Y-59601742D01*
X138624633Y-59755687D01*
X138532059Y-59894234D01*
X138414234Y-60012059D01*
X138275687Y-60104633D01*
X138121742Y-60168399D01*
X137958315Y-60200907D01*
X137791685Y-60200907D01*
X137628258Y-60168399D01*
X137474313Y-60104633D01*
X137335766Y-60012059D01*
X137217941Y-59894234D01*
X137125367Y-59755687D01*
X137061601Y-59601742D01*
X137029093Y-59438315D01*
X137029093Y-59271685D01*
X137061601Y-59108258D01*
X137125367Y-58954313D01*
X137217941Y-58815766D01*
X137335766Y-58697941D01*
X137474313Y-58605367D01*
X137628258Y-58541601D01*
X137791685Y-58509093D01*
X137958315Y-58509093D01*
X138121742Y-58541601D01*
G37*
G36*
X52446742Y-58226601D02*
G01*
X52600687Y-58290367D01*
X52739234Y-58382941D01*
X52857059Y-58500766D01*
X52949633Y-58639313D01*
X53013399Y-58793258D01*
X53045907Y-58956685D01*
X53045907Y-59123315D01*
X53013399Y-59286742D01*
X52949633Y-59440687D01*
X52857059Y-59579234D01*
X52739234Y-59697059D01*
X52600687Y-59789633D01*
X52446742Y-59853399D01*
X52283315Y-59885907D01*
X52116685Y-59885907D01*
X51953258Y-59853399D01*
X51799313Y-59789633D01*
X51660766Y-59697059D01*
X51542941Y-59579234D01*
X51450367Y-59440687D01*
X51386601Y-59286742D01*
X51354093Y-59123315D01*
X51354093Y-58956685D01*
X51386601Y-58793258D01*
X51450367Y-58639313D01*
X51542941Y-58500766D01*
X51660766Y-58382941D01*
X51799313Y-58290367D01*
X51953258Y-58226601D01*
X52116685Y-58194093D01*
X52283315Y-58194093D01*
X52446742Y-58226601D01*
G37*
G36*
X138121742Y-56001601D02*
G01*
X138275687Y-56065367D01*
X138414234Y-56157941D01*
X138532059Y-56275766D01*
X138624633Y-56414313D01*
X138688399Y-56568258D01*
X138720907Y-56731685D01*
X138720907Y-56898315D01*
X138688399Y-57061742D01*
X138624633Y-57215687D01*
X138532059Y-57354234D01*
X138414234Y-57472059D01*
X138275687Y-57564633D01*
X138121742Y-57628399D01*
X137958315Y-57660907D01*
X137791685Y-57660907D01*
X137628258Y-57628399D01*
X137474313Y-57564633D01*
X137335766Y-57472059D01*
X137217941Y-57354234D01*
X137125367Y-57215687D01*
X137061601Y-57061742D01*
X137029093Y-56898315D01*
X137029093Y-56731685D01*
X137061601Y-56568258D01*
X137125367Y-56414313D01*
X137217941Y-56275766D01*
X137335766Y-56157941D01*
X137474313Y-56065367D01*
X137628258Y-56001601D01*
X137791685Y-55969093D01*
X137958315Y-55969093D01*
X138121742Y-56001601D01*
G37*
G36*
X92900000Y-57650000D02*
G01*
X91300000Y-57650000D01*
X91300000Y-56050000D01*
X92900000Y-56050000D01*
X92900000Y-57650000D01*
G37*
G36*
X83172228Y-56084448D02*
G01*
X83317117Y-56144463D01*
X83447515Y-56231592D01*
X83558408Y-56342485D01*
X83645537Y-56472883D01*
X83705552Y-56617772D01*
X83736148Y-56771586D01*
X83736148Y-56928414D01*
X83705552Y-57082228D01*
X83645537Y-57227117D01*
X83558408Y-57357515D01*
X83447515Y-57468408D01*
X83317117Y-57555537D01*
X83172228Y-57615552D01*
X83018414Y-57646148D01*
X82861586Y-57646148D01*
X82707772Y-57615552D01*
X82562883Y-57555537D01*
X82432485Y-57468408D01*
X82321592Y-57357515D01*
X82234463Y-57227117D01*
X82174448Y-57082228D01*
X82143852Y-56928414D01*
X82143852Y-56771586D01*
X82174448Y-56617772D01*
X82234463Y-56472883D01*
X82321592Y-56342485D01*
X82432485Y-56231592D01*
X82562883Y-56144463D01*
X82707772Y-56084448D01*
X82861586Y-56053852D01*
X83018414Y-56053852D01*
X83172228Y-56084448D01*
G37*
G36*
X85462228Y-56084448D02*
G01*
X85607117Y-56144463D01*
X85737515Y-56231592D01*
X85848408Y-56342485D01*
X85935537Y-56472883D01*
X85995552Y-56617772D01*
X86026148Y-56771586D01*
X86026148Y-56928414D01*
X85995552Y-57082228D01*
X85935537Y-57227117D01*
X85848408Y-57357515D01*
X85737515Y-57468408D01*
X85607117Y-57555537D01*
X85462228Y-57615552D01*
X85308414Y-57646148D01*
X85151586Y-57646148D01*
X84997772Y-57615552D01*
X84852883Y-57555537D01*
X84722485Y-57468408D01*
X84611592Y-57357515D01*
X84524463Y-57227117D01*
X84464448Y-57082228D01*
X84433852Y-56928414D01*
X84433852Y-56771586D01*
X84464448Y-56617772D01*
X84524463Y-56472883D01*
X84611592Y-56342485D01*
X84722485Y-56231592D01*
X84852883Y-56144463D01*
X84997772Y-56084448D01*
X85151586Y-56053852D01*
X85308414Y-56053852D01*
X85462228Y-56084448D01*
G37*
G36*
X87752228Y-56084448D02*
G01*
X87897117Y-56144463D01*
X88027515Y-56231592D01*
X88138408Y-56342485D01*
X88225537Y-56472883D01*
X88285552Y-56617772D01*
X88316148Y-56771586D01*
X88316148Y-56928414D01*
X88285552Y-57082228D01*
X88225537Y-57227117D01*
X88138408Y-57357515D01*
X88027515Y-57468408D01*
X87897117Y-57555537D01*
X87752228Y-57615552D01*
X87598414Y-57646148D01*
X87441586Y-57646148D01*
X87287772Y-57615552D01*
X87142883Y-57555537D01*
X87012485Y-57468408D01*
X86901592Y-57357515D01*
X86814463Y-57227117D01*
X86754448Y-57082228D01*
X86723852Y-56928414D01*
X86723852Y-56771586D01*
X86754448Y-56617772D01*
X86814463Y-56472883D01*
X86901592Y-56342485D01*
X87012485Y-56231592D01*
X87142883Y-56144463D01*
X87287772Y-56084448D01*
X87441586Y-56053852D01*
X87598414Y-56053852D01*
X87752228Y-56084448D01*
G37*
G36*
X90042228Y-56084448D02*
G01*
X90187117Y-56144463D01*
X90317515Y-56231592D01*
X90428408Y-56342485D01*
X90515537Y-56472883D01*
X90575552Y-56617772D01*
X90606148Y-56771586D01*
X90606148Y-56928414D01*
X90575552Y-57082228D01*
X90515537Y-57227117D01*
X90428408Y-57357515D01*
X90317515Y-57468408D01*
X90187117Y-57555537D01*
X90042228Y-57615552D01*
X89888414Y-57646148D01*
X89731586Y-57646148D01*
X89577772Y-57615552D01*
X89432883Y-57555537D01*
X89302485Y-57468408D01*
X89191592Y-57357515D01*
X89104463Y-57227117D01*
X89044448Y-57082228D01*
X89013852Y-56928414D01*
X89013852Y-56771586D01*
X89044448Y-56617772D01*
X89104463Y-56472883D01*
X89191592Y-56342485D01*
X89302485Y-56231592D01*
X89432883Y-56144463D01*
X89577772Y-56084448D01*
X89731586Y-56053852D01*
X89888414Y-56053852D01*
X90042228Y-56084448D01*
G37*
G36*
X52446742Y-55686601D02*
G01*
X52600687Y-55750367D01*
X52739234Y-55842941D01*
X52857059Y-55960766D01*
X52949633Y-56099313D01*
X53013399Y-56253258D01*
X53045907Y-56416685D01*
X53045907Y-56583315D01*
X53013399Y-56746742D01*
X52949633Y-56900687D01*
X52857059Y-57039234D01*
X52739234Y-57157059D01*
X52600687Y-57249633D01*
X52446742Y-57313399D01*
X52283315Y-57345907D01*
X52116685Y-57345907D01*
X51953258Y-57313399D01*
X51799313Y-57249633D01*
X51660766Y-57157059D01*
X51542941Y-57039234D01*
X51450367Y-56900687D01*
X51386601Y-56746742D01*
X51354093Y-56583315D01*
X51354093Y-56416685D01*
X51386601Y-56253258D01*
X51450367Y-56099313D01*
X51542941Y-55960766D01*
X51660766Y-55842941D01*
X51799313Y-55750367D01*
X51953258Y-55686601D01*
X52116685Y-55654093D01*
X52283315Y-55654093D01*
X52446742Y-55686601D01*
G37*
G36*
X75675181Y-52998429D02*
G01*
X75927879Y-53066140D01*
X76169577Y-53166255D01*
X76396140Y-53297061D01*
X76603692Y-53456320D01*
X76788680Y-53641308D01*
X76947939Y-53848860D01*
X77078745Y-54075423D01*
X77178860Y-54317121D01*
X77246571Y-54569819D01*
X77280718Y-54829194D01*
X77280718Y-55090806D01*
X77246571Y-55350181D01*
X77178860Y-55602879D01*
X77078745Y-55844577D01*
X76947939Y-56071140D01*
X76788680Y-56278692D01*
X76603692Y-56463680D01*
X76396140Y-56622939D01*
X76169577Y-56753745D01*
X75927879Y-56853860D01*
X75675181Y-56921571D01*
X75415806Y-56955718D01*
X75154194Y-56955718D01*
X74894819Y-56921571D01*
X74642121Y-56853860D01*
X74400423Y-56753745D01*
X74173860Y-56622939D01*
X73966308Y-56463680D01*
X73781320Y-56278692D01*
X73622061Y-56071140D01*
X73491255Y-55844577D01*
X73391140Y-55602879D01*
X73323429Y-55350181D01*
X73289282Y-55090806D01*
X73289282Y-54829194D01*
X73323429Y-54569819D01*
X73391140Y-54317121D01*
X73491255Y-54075423D01*
X73622061Y-53848860D01*
X73781320Y-53641308D01*
X73966308Y-53456320D01*
X74173860Y-53297061D01*
X74400423Y-53166255D01*
X74642121Y-53066140D01*
X74894819Y-52998429D01*
X75154194Y-52964282D01*
X75415806Y-52964282D01*
X75675181Y-52998429D01*
G37*
G36*
X100675181Y-52998429D02*
G01*
X100927879Y-53066140D01*
X101169577Y-53166255D01*
X101396140Y-53297061D01*
X101603692Y-53456320D01*
X101788680Y-53641308D01*
X101947939Y-53848860D01*
X102078745Y-54075423D01*
X102178860Y-54317121D01*
X102246571Y-54569819D01*
X102280718Y-54829194D01*
X102280718Y-55090806D01*
X102246571Y-55350181D01*
X102178860Y-55602879D01*
X102078745Y-55844577D01*
X101947939Y-56071140D01*
X101788680Y-56278692D01*
X101603692Y-56463680D01*
X101396140Y-56622939D01*
X101169577Y-56753745D01*
X100927879Y-56853860D01*
X100675181Y-56921571D01*
X100415806Y-56955718D01*
X100154194Y-56955718D01*
X99894819Y-56921571D01*
X99642121Y-56853860D01*
X99400423Y-56753745D01*
X99173860Y-56622939D01*
X98966308Y-56463680D01*
X98781320Y-56278692D01*
X98622061Y-56071140D01*
X98491255Y-55844577D01*
X98391140Y-55602879D01*
X98323429Y-55350181D01*
X98289282Y-55090806D01*
X98289282Y-54829194D01*
X98323429Y-54569819D01*
X98391140Y-54317121D01*
X98491255Y-54075423D01*
X98622061Y-53848860D01*
X98781320Y-53641308D01*
X98966308Y-53456320D01*
X99173860Y-53297061D01*
X99400423Y-53166255D01*
X99642121Y-53066140D01*
X99894819Y-52998429D01*
X100154194Y-52964282D01*
X100415806Y-52964282D01*
X100675181Y-52998429D01*
G37*
G36*
X84317228Y-54184448D02*
G01*
X84462117Y-54244463D01*
X84592515Y-54331592D01*
X84703408Y-54442485D01*
X84790537Y-54572883D01*
X84850552Y-54717772D01*
X84881148Y-54871586D01*
X84881148Y-55028414D01*
X84850552Y-55182228D01*
X84790537Y-55327117D01*
X84703408Y-55457515D01*
X84592515Y-55568408D01*
X84462117Y-55655537D01*
X84317228Y-55715552D01*
X84163414Y-55746148D01*
X84006586Y-55746148D01*
X83852772Y-55715552D01*
X83707883Y-55655537D01*
X83577485Y-55568408D01*
X83466592Y-55457515D01*
X83379463Y-55327117D01*
X83319448Y-55182228D01*
X83288852Y-55028414D01*
X83288852Y-54871586D01*
X83319448Y-54717772D01*
X83379463Y-54572883D01*
X83466592Y-54442485D01*
X83577485Y-54331592D01*
X83707883Y-54244463D01*
X83852772Y-54184448D01*
X84006586Y-54153852D01*
X84163414Y-54153852D01*
X84317228Y-54184448D01*
G37*
G36*
X86607228Y-54184448D02*
G01*
X86752117Y-54244463D01*
X86882515Y-54331592D01*
X86993408Y-54442485D01*
X87080537Y-54572883D01*
X87140552Y-54717772D01*
X87171148Y-54871586D01*
X87171148Y-55028414D01*
X87140552Y-55182228D01*
X87080537Y-55327117D01*
X86993408Y-55457515D01*
X86882515Y-55568408D01*
X86752117Y-55655537D01*
X86607228Y-55715552D01*
X86453414Y-55746148D01*
X86296586Y-55746148D01*
X86142772Y-55715552D01*
X85997883Y-55655537D01*
X85867485Y-55568408D01*
X85756592Y-55457515D01*
X85669463Y-55327117D01*
X85609448Y-55182228D01*
X85578852Y-55028414D01*
X85578852Y-54871586D01*
X85609448Y-54717772D01*
X85669463Y-54572883D01*
X85756592Y-54442485D01*
X85867485Y-54331592D01*
X85997883Y-54244463D01*
X86142772Y-54184448D01*
X86296586Y-54153852D01*
X86453414Y-54153852D01*
X86607228Y-54184448D01*
G37*
G36*
X88897228Y-54184448D02*
G01*
X89042117Y-54244463D01*
X89172515Y-54331592D01*
X89283408Y-54442485D01*
X89370537Y-54572883D01*
X89430552Y-54717772D01*
X89461148Y-54871586D01*
X89461148Y-55028414D01*
X89430552Y-55182228D01*
X89370537Y-55327117D01*
X89283408Y-55457515D01*
X89172515Y-55568408D01*
X89042117Y-55655537D01*
X88897228Y-55715552D01*
X88743414Y-55746148D01*
X88586586Y-55746148D01*
X88432772Y-55715552D01*
X88287883Y-55655537D01*
X88157485Y-55568408D01*
X88046592Y-55457515D01*
X87959463Y-55327117D01*
X87899448Y-55182228D01*
X87868852Y-55028414D01*
X87868852Y-54871586D01*
X87899448Y-54717772D01*
X87959463Y-54572883D01*
X88046592Y-54442485D01*
X88157485Y-54331592D01*
X88287883Y-54244463D01*
X88432772Y-54184448D01*
X88586586Y-54153852D01*
X88743414Y-54153852D01*
X88897228Y-54184448D01*
G37*
G36*
X91187228Y-54184448D02*
G01*
X91332117Y-54244463D01*
X91462515Y-54331592D01*
X91573408Y-54442485D01*
X91660537Y-54572883D01*
X91720552Y-54717772D01*
X91751148Y-54871586D01*
X91751148Y-55028414D01*
X91720552Y-55182228D01*
X91660537Y-55327117D01*
X91573408Y-55457515D01*
X91462515Y-55568408D01*
X91332117Y-55655537D01*
X91187228Y-55715552D01*
X91033414Y-55746148D01*
X90876586Y-55746148D01*
X90722772Y-55715552D01*
X90577883Y-55655537D01*
X90447485Y-55568408D01*
X90336592Y-55457515D01*
X90249463Y-55327117D01*
X90189448Y-55182228D01*
X90158852Y-55028414D01*
X90158852Y-54871586D01*
X90189448Y-54717772D01*
X90249463Y-54572883D01*
X90336592Y-54442485D01*
X90447485Y-54331592D01*
X90577883Y-54244463D01*
X90722772Y-54184448D01*
X90876586Y-54153852D01*
X91033414Y-54153852D01*
X91187228Y-54184448D01*
G37*
G36*
X93477228Y-54184448D02*
G01*
X93622117Y-54244463D01*
X93752515Y-54331592D01*
X93863408Y-54442485D01*
X93950537Y-54572883D01*
X94010552Y-54717772D01*
X94041148Y-54871586D01*
X94041148Y-55028414D01*
X94010552Y-55182228D01*
X93950537Y-55327117D01*
X93863408Y-55457515D01*
X93752515Y-55568408D01*
X93622117Y-55655537D01*
X93477228Y-55715552D01*
X93323414Y-55746148D01*
X93166586Y-55746148D01*
X93012772Y-55715552D01*
X92867883Y-55655537D01*
X92737485Y-55568408D01*
X92626592Y-55457515D01*
X92539463Y-55327117D01*
X92479448Y-55182228D01*
X92448852Y-55028414D01*
X92448852Y-54871586D01*
X92479448Y-54717772D01*
X92539463Y-54572883D01*
X92626592Y-54442485D01*
X92737485Y-54331592D01*
X92867883Y-54244463D01*
X93012772Y-54184448D01*
X93166586Y-54153852D01*
X93323414Y-54153852D01*
X93477228Y-54184448D01*
G37*
G36*
X138121742Y-53461601D02*
G01*
X138275687Y-53525367D01*
X138414234Y-53617941D01*
X138532059Y-53735766D01*
X138624633Y-53874313D01*
X138688399Y-54028258D01*
X138720907Y-54191685D01*
X138720907Y-54358315D01*
X138688399Y-54521742D01*
X138624633Y-54675687D01*
X138532059Y-54814234D01*
X138414234Y-54932059D01*
X138275687Y-55024633D01*
X138121742Y-55088399D01*
X137958315Y-55120907D01*
X137791685Y-55120907D01*
X137628258Y-55088399D01*
X137474313Y-55024633D01*
X137335766Y-54932059D01*
X137217941Y-54814234D01*
X137125367Y-54675687D01*
X137061601Y-54521742D01*
X137029093Y-54358315D01*
X137029093Y-54191685D01*
X137061601Y-54028258D01*
X137125367Y-53874313D01*
X137217941Y-53735766D01*
X137335766Y-53617941D01*
X137474313Y-53525367D01*
X137628258Y-53461601D01*
X137791685Y-53429093D01*
X137958315Y-53429093D01*
X138121742Y-53461601D01*
G37*
G36*
X52446742Y-53146601D02*
G01*
X52600687Y-53210367D01*
X52739234Y-53302941D01*
X52857059Y-53420766D01*
X52949633Y-53559313D01*
X53013399Y-53713258D01*
X53045907Y-53876685D01*
X53045907Y-54043315D01*
X53013399Y-54206742D01*
X52949633Y-54360687D01*
X52857059Y-54499234D01*
X52739234Y-54617059D01*
X52600687Y-54709633D01*
X52446742Y-54773399D01*
X52283315Y-54805907D01*
X52116685Y-54805907D01*
X51953258Y-54773399D01*
X51799313Y-54709633D01*
X51660766Y-54617059D01*
X51542941Y-54499234D01*
X51450367Y-54360687D01*
X51386601Y-54206742D01*
X51354093Y-54043315D01*
X51354093Y-53876685D01*
X51386601Y-53713258D01*
X51450367Y-53559313D01*
X51542941Y-53420766D01*
X51660766Y-53302941D01*
X51799313Y-53210367D01*
X51953258Y-53146601D01*
X52116685Y-53114093D01*
X52283315Y-53114093D01*
X52446742Y-53146601D01*
G37*
G36*
X83172228Y-52284448D02*
G01*
X83317117Y-52344463D01*
X83447515Y-52431592D01*
X83558408Y-52542485D01*
X83645537Y-52672883D01*
X83705552Y-52817772D01*
X83736148Y-52971586D01*
X83736148Y-53128414D01*
X83705552Y-53282228D01*
X83645537Y-53427117D01*
X83558408Y-53557515D01*
X83447515Y-53668408D01*
X83317117Y-53755537D01*
X83172228Y-53815552D01*
X83018414Y-53846148D01*
X82861586Y-53846148D01*
X82707772Y-53815552D01*
X82562883Y-53755537D01*
X82432485Y-53668408D01*
X82321592Y-53557515D01*
X82234463Y-53427117D01*
X82174448Y-53282228D01*
X82143852Y-53128414D01*
X82143852Y-52971586D01*
X82174448Y-52817772D01*
X82234463Y-52672883D01*
X82321592Y-52542485D01*
X82432485Y-52431592D01*
X82562883Y-52344463D01*
X82707772Y-52284448D01*
X82861586Y-52253852D01*
X83018414Y-52253852D01*
X83172228Y-52284448D01*
G37*
G36*
X85462228Y-52284448D02*
G01*
X85607117Y-52344463D01*
X85737515Y-52431592D01*
X85848408Y-52542485D01*
X85935537Y-52672883D01*
X85995552Y-52817772D01*
X86026148Y-52971586D01*
X86026148Y-53128414D01*
X85995552Y-53282228D01*
X85935537Y-53427117D01*
X85848408Y-53557515D01*
X85737515Y-53668408D01*
X85607117Y-53755537D01*
X85462228Y-53815552D01*
X85308414Y-53846148D01*
X85151586Y-53846148D01*
X84997772Y-53815552D01*
X84852883Y-53755537D01*
X84722485Y-53668408D01*
X84611592Y-53557515D01*
X84524463Y-53427117D01*
X84464448Y-53282228D01*
X84433852Y-53128414D01*
X84433852Y-52971586D01*
X84464448Y-52817772D01*
X84524463Y-52672883D01*
X84611592Y-52542485D01*
X84722485Y-52431592D01*
X84852883Y-52344463D01*
X84997772Y-52284448D01*
X85151586Y-52253852D01*
X85308414Y-52253852D01*
X85462228Y-52284448D01*
G37*
G36*
X87752228Y-52284448D02*
G01*
X87897117Y-52344463D01*
X88027515Y-52431592D01*
X88138408Y-52542485D01*
X88225537Y-52672883D01*
X88285552Y-52817772D01*
X88316148Y-52971586D01*
X88316148Y-53128414D01*
X88285552Y-53282228D01*
X88225537Y-53427117D01*
X88138408Y-53557515D01*
X88027515Y-53668408D01*
X87897117Y-53755537D01*
X87752228Y-53815552D01*
X87598414Y-53846148D01*
X87441586Y-53846148D01*
X87287772Y-53815552D01*
X87142883Y-53755537D01*
X87012485Y-53668408D01*
X86901592Y-53557515D01*
X86814463Y-53427117D01*
X86754448Y-53282228D01*
X86723852Y-53128414D01*
X86723852Y-52971586D01*
X86754448Y-52817772D01*
X86814463Y-52672883D01*
X86901592Y-52542485D01*
X87012485Y-52431592D01*
X87142883Y-52344463D01*
X87287772Y-52284448D01*
X87441586Y-52253852D01*
X87598414Y-52253852D01*
X87752228Y-52284448D01*
G37*
G36*
X90042228Y-52284448D02*
G01*
X90187117Y-52344463D01*
X90317515Y-52431592D01*
X90428408Y-52542485D01*
X90515537Y-52672883D01*
X90575552Y-52817772D01*
X90606148Y-52971586D01*
X90606148Y-53128414D01*
X90575552Y-53282228D01*
X90515537Y-53427117D01*
X90428408Y-53557515D01*
X90317515Y-53668408D01*
X90187117Y-53755537D01*
X90042228Y-53815552D01*
X89888414Y-53846148D01*
X89731586Y-53846148D01*
X89577772Y-53815552D01*
X89432883Y-53755537D01*
X89302485Y-53668408D01*
X89191592Y-53557515D01*
X89104463Y-53427117D01*
X89044448Y-53282228D01*
X89013852Y-53128414D01*
X89013852Y-52971586D01*
X89044448Y-52817772D01*
X89104463Y-52672883D01*
X89191592Y-52542485D01*
X89302485Y-52431592D01*
X89432883Y-52344463D01*
X89577772Y-52284448D01*
X89731586Y-52253852D01*
X89888414Y-52253852D01*
X90042228Y-52284448D01*
G37*
G36*
X92332228Y-52284448D02*
G01*
X92477117Y-52344463D01*
X92607515Y-52431592D01*
X92718408Y-52542485D01*
X92805537Y-52672883D01*
X92865552Y-52817772D01*
X92896148Y-52971586D01*
X92896148Y-53128414D01*
X92865552Y-53282228D01*
X92805537Y-53427117D01*
X92718408Y-53557515D01*
X92607515Y-53668408D01*
X92477117Y-53755537D01*
X92332228Y-53815552D01*
X92178414Y-53846148D01*
X92021586Y-53846148D01*
X91867772Y-53815552D01*
X91722883Y-53755537D01*
X91592485Y-53668408D01*
X91481592Y-53557515D01*
X91394463Y-53427117D01*
X91334448Y-53282228D01*
X91303852Y-53128414D01*
X91303852Y-52971586D01*
X91334448Y-52817772D01*
X91394463Y-52672883D01*
X91481592Y-52542485D01*
X91592485Y-52431592D01*
X91722883Y-52344463D01*
X91867772Y-52284448D01*
X92021586Y-52253852D01*
X92178414Y-52253852D01*
X92332228Y-52284448D01*
G37*
G36*
X134770000Y-52745000D02*
G01*
X133070000Y-52745000D01*
X133070000Y-51045000D01*
X134770000Y-51045000D01*
X134770000Y-52745000D01*
G37*
G36*
X118926742Y-51081601D02*
G01*
X119080687Y-51145367D01*
X119219234Y-51237941D01*
X119337059Y-51355766D01*
X119429633Y-51494313D01*
X119493399Y-51648258D01*
X119525907Y-51811685D01*
X119525907Y-51978315D01*
X119493399Y-52141742D01*
X119429633Y-52295687D01*
X119337059Y-52434234D01*
X119219234Y-52552059D01*
X119080687Y-52644633D01*
X118926742Y-52708399D01*
X118763315Y-52740907D01*
X118596685Y-52740907D01*
X118433258Y-52708399D01*
X118279313Y-52644633D01*
X118140766Y-52552059D01*
X118022941Y-52434234D01*
X117930367Y-52295687D01*
X117866601Y-52141742D01*
X117834093Y-51978315D01*
X117834093Y-51811685D01*
X117866601Y-51648258D01*
X117930367Y-51494313D01*
X118022941Y-51355766D01*
X118140766Y-51237941D01*
X118279313Y-51145367D01*
X118433258Y-51081601D01*
X118596685Y-51049093D01*
X118763315Y-51049093D01*
X118926742Y-51081601D01*
G37*
G36*
X121466742Y-51081601D02*
G01*
X121620687Y-51145367D01*
X121759234Y-51237941D01*
X121877059Y-51355766D01*
X121969633Y-51494313D01*
X122033399Y-51648258D01*
X122065907Y-51811685D01*
X122065907Y-51978315D01*
X122033399Y-52141742D01*
X121969633Y-52295687D01*
X121877059Y-52434234D01*
X121759234Y-52552059D01*
X121620687Y-52644633D01*
X121466742Y-52708399D01*
X121303315Y-52740907D01*
X121136685Y-52740907D01*
X120973258Y-52708399D01*
X120819313Y-52644633D01*
X120680766Y-52552059D01*
X120562941Y-52434234D01*
X120470367Y-52295687D01*
X120406601Y-52141742D01*
X120374093Y-51978315D01*
X120374093Y-51811685D01*
X120406601Y-51648258D01*
X120470367Y-51494313D01*
X120562941Y-51355766D01*
X120680766Y-51237941D01*
X120819313Y-51145367D01*
X120973258Y-51081601D01*
X121136685Y-51049093D01*
X121303315Y-51049093D01*
X121466742Y-51081601D01*
G37*
G36*
X124006742Y-51081601D02*
G01*
X124160687Y-51145367D01*
X124299234Y-51237941D01*
X124417059Y-51355766D01*
X124509633Y-51494313D01*
X124573399Y-51648258D01*
X124605907Y-51811685D01*
X124605907Y-51978315D01*
X124573399Y-52141742D01*
X124509633Y-52295687D01*
X124417059Y-52434234D01*
X124299234Y-52552059D01*
X124160687Y-52644633D01*
X124006742Y-52708399D01*
X123843315Y-52740907D01*
X123676685Y-52740907D01*
X123513258Y-52708399D01*
X123359313Y-52644633D01*
X123220766Y-52552059D01*
X123102941Y-52434234D01*
X123010367Y-52295687D01*
X122946601Y-52141742D01*
X122914093Y-51978315D01*
X122914093Y-51811685D01*
X122946601Y-51648258D01*
X123010367Y-51494313D01*
X123102941Y-51355766D01*
X123220766Y-51237941D01*
X123359313Y-51145367D01*
X123513258Y-51081601D01*
X123676685Y-51049093D01*
X123843315Y-51049093D01*
X124006742Y-51081601D01*
G37*
G36*
X126546742Y-51081601D02*
G01*
X126700687Y-51145367D01*
X126839234Y-51237941D01*
X126957059Y-51355766D01*
X127049633Y-51494313D01*
X127113399Y-51648258D01*
X127145907Y-51811685D01*
X127145907Y-51978315D01*
X127113399Y-52141742D01*
X127049633Y-52295687D01*
X126957059Y-52434234D01*
X126839234Y-52552059D01*
X126700687Y-52644633D01*
X126546742Y-52708399D01*
X126383315Y-52740907D01*
X126216685Y-52740907D01*
X126053258Y-52708399D01*
X125899313Y-52644633D01*
X125760766Y-52552059D01*
X125642941Y-52434234D01*
X125550367Y-52295687D01*
X125486601Y-52141742D01*
X125454093Y-51978315D01*
X125454093Y-51811685D01*
X125486601Y-51648258D01*
X125550367Y-51494313D01*
X125642941Y-51355766D01*
X125760766Y-51237941D01*
X125899313Y-51145367D01*
X126053258Y-51081601D01*
X126216685Y-51049093D01*
X126383315Y-51049093D01*
X126546742Y-51081601D01*
G37*
G36*
X129086742Y-51081601D02*
G01*
X129240687Y-51145367D01*
X129379234Y-51237941D01*
X129497059Y-51355766D01*
X129589633Y-51494313D01*
X129653399Y-51648258D01*
X129685907Y-51811685D01*
X129685907Y-51978315D01*
X129653399Y-52141742D01*
X129589633Y-52295687D01*
X129497059Y-52434234D01*
X129379234Y-52552059D01*
X129240687Y-52644633D01*
X129086742Y-52708399D01*
X128923315Y-52740907D01*
X128756685Y-52740907D01*
X128593258Y-52708399D01*
X128439313Y-52644633D01*
X128300766Y-52552059D01*
X128182941Y-52434234D01*
X128090367Y-52295687D01*
X128026601Y-52141742D01*
X127994093Y-51978315D01*
X127994093Y-51811685D01*
X128026601Y-51648258D01*
X128090367Y-51494313D01*
X128182941Y-51355766D01*
X128300766Y-51237941D01*
X128439313Y-51145367D01*
X128593258Y-51081601D01*
X128756685Y-51049093D01*
X128923315Y-51049093D01*
X129086742Y-51081601D01*
G37*
G36*
X131626742Y-51081601D02*
G01*
X131780687Y-51145367D01*
X131919234Y-51237941D01*
X132037059Y-51355766D01*
X132129633Y-51494313D01*
X132193399Y-51648258D01*
X132225907Y-51811685D01*
X132225907Y-51978315D01*
X132193399Y-52141742D01*
X132129633Y-52295687D01*
X132037059Y-52434234D01*
X131919234Y-52552059D01*
X131780687Y-52644633D01*
X131626742Y-52708399D01*
X131463315Y-52740907D01*
X131296685Y-52740907D01*
X131133258Y-52708399D01*
X130979313Y-52644633D01*
X130840766Y-52552059D01*
X130722941Y-52434234D01*
X130630367Y-52295687D01*
X130566601Y-52141742D01*
X130534093Y-51978315D01*
X130534093Y-51811685D01*
X130566601Y-51648258D01*
X130630367Y-51494313D01*
X130722941Y-51355766D01*
X130840766Y-51237941D01*
X130979313Y-51145367D01*
X131133258Y-51081601D01*
X131296685Y-51049093D01*
X131463315Y-51049093D01*
X131626742Y-51081601D01*
G37*
G36*
X138121742Y-50921601D02*
G01*
X138275687Y-50985367D01*
X138414234Y-51077941D01*
X138532059Y-51195766D01*
X138624633Y-51334313D01*
X138688399Y-51488258D01*
X138720907Y-51651685D01*
X138720907Y-51818315D01*
X138688399Y-51981742D01*
X138624633Y-52135687D01*
X138532059Y-52274234D01*
X138414234Y-52392059D01*
X138275687Y-52484633D01*
X138121742Y-52548399D01*
X137958315Y-52580907D01*
X137791685Y-52580907D01*
X137628258Y-52548399D01*
X137474313Y-52484633D01*
X137335766Y-52392059D01*
X137217941Y-52274234D01*
X137125367Y-52135687D01*
X137061601Y-51981742D01*
X137029093Y-51818315D01*
X137029093Y-51651685D01*
X137061601Y-51488258D01*
X137125367Y-51334313D01*
X137217941Y-51195766D01*
X137335766Y-51077941D01*
X137474313Y-50985367D01*
X137628258Y-50921601D01*
X137791685Y-50889093D01*
X137958315Y-50889093D01*
X138121742Y-50921601D01*
G37*
G36*
X52446742Y-50606601D02*
G01*
X52600687Y-50670367D01*
X52739234Y-50762941D01*
X52857059Y-50880766D01*
X52949633Y-51019313D01*
X53013399Y-51173258D01*
X53045907Y-51336685D01*
X53045907Y-51503315D01*
X53013399Y-51666742D01*
X52949633Y-51820687D01*
X52857059Y-51959234D01*
X52739234Y-52077059D01*
X52600687Y-52169633D01*
X52446742Y-52233399D01*
X52283315Y-52265907D01*
X52116685Y-52265907D01*
X51953258Y-52233399D01*
X51799313Y-52169633D01*
X51660766Y-52077059D01*
X51542941Y-51959234D01*
X51450367Y-51820687D01*
X51386601Y-51666742D01*
X51354093Y-51503315D01*
X51354093Y-51336685D01*
X51386601Y-51173258D01*
X51450367Y-51019313D01*
X51542941Y-50880766D01*
X51660766Y-50762941D01*
X51799313Y-50670367D01*
X51953258Y-50606601D01*
X52116685Y-50574093D01*
X52283315Y-50574093D01*
X52446742Y-50606601D01*
G37*
M02*
