M48
; DRILL file KiCad 10.0.1 date 2026-09-15T15:20:51
; FORMAT={-:-/ absolute / inch / decimal}
; #@! TF.CreationDate,2026-09-15T15:20:51+02:00
; #@! TF.GenerationSoftware,Kicad,Pcbnew,10.0.1
; #@! TF.FileFunction,Plated,1,2,PTH
FMAT,2
INCH
; #@! TA.AperFunction,Plated,PTH,ComponentDrill
T1C0.0315
; #@! TA.AperFunction,Plated,PTH,ComponentDrill
T2C0.0394
; #@! TA.AperFunction,Plated,PTH,ComponentDrill
T3C0.0472
%
G90
G05
T1
X6.7783Y-5.9819
X6.7783Y-6.1035
X6.7795Y-5.7213
X6.7815Y-5.8453
X6.8291Y-5.5449
X6.9079Y-5.5449
X7.1783Y-5.9819
X7.1783Y-6.1035
X7.1795Y-5.7213
X7.1815Y-5.8453
X7.4354Y-5.4685
X7.4354Y-5.8685
X7.726Y-6.2154
X7.7264Y-6.1114
X8.0067Y-5.6173
X8.0067Y-6.0173
X8.026Y-6.2154
X8.0264Y-6.1114
X8.5646Y-5.9142
X8.5646Y-6.0366
X8.9646Y-5.9142
X8.9646Y-6.0366
T2
X7.1118Y-5.514
X7.2016Y-5.514
X7.2913Y-5.514
X7.8102Y-5.514
X7.9Y-5.514
X7.9898Y-5.514
X8.5661Y-5.5128
X8.6559Y-5.5128
X8.7457Y-5.5128
X9.2201Y-5.9212
X9.2201Y-6.2164
T3
X6.5354Y-5.9839
X6.5354Y-6.1839
X6.537Y-5.5453
X6.537Y-5.7453
X9.2201Y-5.5417
X9.2201Y-5.7417
M30
