%TF.GenerationSoftware,KiCad,Pcbnew,10.0.1*%
%TF.CreationDate,2026-08-19T13:09:46+02:00*%
%TF.ProjectId,HighEffNixiPSU,48696768-4566-4664-9e69-78695053552e,rev?*%
%TF.SameCoordinates,Original*%
%TF.FileFunction,Copper,L1,Top*%
%TF.FilePolarity,Positive*%
%FSLAX46Y46*%
G04 Gerber Fmt 4.6, Leading zero omitted, Abs format (unit mm)*
G04 Created by KiCad (PCBNEW 10.0.1) date 2026-08-19 13:09:46*
%MOMM*%
%LPD*%
G01*
G04 APERTURE LIST*
G04 Aperture macros list*
%AMRoundRect*
0 Rectangle with rounded corners*
0 $1 Rounding radius*
0 $2 $3 $4 $5 $6 $7 $8 $9 X,Y pos of 4 corners*
0 Add a 4 corners polygon primitive as box body*
4,1,4,$2,$3,$4,$5,$6,$7,$8,$9,$2,$3,0*
0 Add four circle primitives for the rounded corners*
1,1,$1+$1,$2,$3*
1,1,$1+$1,$4,$5*
1,1,$1+$1,$6,$7*
1,1,$1+$1,$8,$9*
0 Add four rect primitives between the rounded corners*
20,1,$1+$1,$2,$3,$4,$5,0*
20,1,$1+$1,$4,$5,$6,$7,0*
20,1,$1+$1,$6,$7,$8,$9,0*
20,1,$1+$1,$8,$9,$2,$3,0*%
G04 Aperture macros list end*
%TA.AperFunction,SMDPad,CuDef*%
%ADD10RoundRect,0.200000X0.275000X-0.200000X0.275000X0.200000X-0.275000X0.200000X-0.275000X-0.200000X0*%
%TD*%
%TA.AperFunction,SMDPad,CuDef*%
%ADD11RoundRect,0.200000X-0.200000X-0.275000X0.200000X-0.275000X0.200000X0.275000X-0.200000X0.275000X0*%
%TD*%
%TA.AperFunction,SMDPad,CuDef*%
%ADD12R,3.000000X1.600000*%
%TD*%
%TA.AperFunction,SMDPad,CuDef*%
%ADD13R,6.700000X6.700000*%
%TD*%
%TA.AperFunction,SMDPad,CuDef*%
%ADD14RoundRect,0.150000X-0.150000X0.587500X-0.150000X-0.587500X0.150000X-0.587500X0.150000X0.587500X0*%
%TD*%
%TA.AperFunction,SMDPad,CuDef*%
%ADD15RoundRect,0.150000X0.150000X-0.587500X0.150000X0.587500X-0.150000X0.587500X-0.150000X-0.587500X0*%
%TD*%
%TA.AperFunction,SMDPad,CuDef*%
%ADD16RoundRect,0.250000X0.450000X-0.262500X0.450000X0.262500X-0.450000X0.262500X-0.450000X-0.262500X0*%
%TD*%
%TA.AperFunction,SMDPad,CuDef*%
%ADD17R,0.900000X1.500000*%
%TD*%
%TA.AperFunction,SMDPad,CuDef*%
%ADD18R,1.500000X0.900000*%
%TD*%
%TA.AperFunction,SMDPad,CuDef*%
%ADD19R,0.900000X0.900000*%
%TD*%
%TA.AperFunction,HeatsinkPad*%
%ADD20C,0.600000*%
%TD*%
%TA.AperFunction,HeatsinkPad*%
%ADD21R,3.800000X3.800000*%
%TD*%
%TA.AperFunction,SMDPad,CuDef*%
%ADD22R,5.400000X2.900000*%
%TD*%
%TA.AperFunction,SMDPad,CuDef*%
%ADD23RoundRect,0.250000X0.650000X-0.325000X0.650000X0.325000X-0.650000X0.325000X-0.650000X-0.325000X0*%
%TD*%
%TA.AperFunction,SMDPad,CuDef*%
%ADD24RoundRect,0.150000X-0.587500X-0.150000X0.587500X-0.150000X0.587500X0.150000X-0.587500X0.150000X0*%
%TD*%
%TA.AperFunction,ComponentPad*%
%ADD25R,1.700000X1.700000*%
%TD*%
%TA.AperFunction,SMDPad,CuDef*%
%ADD26RoundRect,0.225000X-0.225000X-0.250000X0.225000X-0.250000X0.225000X0.250000X-0.225000X0.250000X0*%
%TD*%
%TA.AperFunction,SMDPad,CuDef*%
%ADD27RoundRect,0.250000X-0.262500X-0.450000X0.262500X-0.450000X0.262500X0.450000X-0.262500X0.450000X0*%
%TD*%
%TA.AperFunction,SMDPad,CuDef*%
%ADD28RoundRect,0.250000X0.262500X0.450000X-0.262500X0.450000X-0.262500X-0.450000X0.262500X-0.450000X0*%
%TD*%
%TA.AperFunction,SMDPad,CuDef*%
%ADD29RoundRect,0.225000X0.225000X0.250000X-0.225000X0.250000X-0.225000X-0.250000X0.225000X-0.250000X0*%
%TD*%
%TA.AperFunction,SMDPad,CuDef*%
%ADD30R,0.990600X0.990600*%
%TD*%
%TA.AperFunction,SMDPad,CuDef*%
%ADD31RoundRect,0.087500X0.087500X-0.250000X0.087500X0.250000X-0.087500X0.250000X-0.087500X-0.250000X0*%
%TD*%
%TA.AperFunction,SMDPad,CuDef*%
%ADD32RoundRect,0.250000X-0.475000X0.250000X-0.475000X-0.250000X0.475000X-0.250000X0.475000X0.250000X0*%
%TD*%
%TA.AperFunction,SMDPad,CuDef*%
%ADD33RoundRect,0.250000X-0.450000X0.262500X-0.450000X-0.262500X0.450000X-0.262500X0.450000X0.262500X0*%
%TD*%
%TA.AperFunction,SMDPad,CuDef*%
%ADD34RoundRect,0.200000X-0.275000X0.200000X-0.275000X-0.200000X0.275000X-0.200000X0.275000X0.200000X0*%
%TD*%
%TA.AperFunction,SMDPad,CuDef*%
%ADD35RoundRect,0.250000X0.475000X-0.250000X0.475000X0.250000X-0.475000X0.250000X-0.475000X-0.250000X0*%
%TD*%
%TA.AperFunction,SMDPad,CuDef*%
%ADD36RoundRect,0.225000X0.250000X-0.225000X0.250000X0.225000X-0.250000X0.225000X-0.250000X-0.225000X0*%
%TD*%
%TA.AperFunction,SMDPad,CuDef*%
%ADD37RoundRect,0.150000X-0.825000X-0.150000X0.825000X-0.150000X0.825000X0.150000X-0.825000X0.150000X0*%
%TD*%
%TA.AperFunction,SMDPad,CuDef*%
%ADD38RoundRect,0.250000X-0.325000X-0.650000X0.325000X-0.650000X0.325000X0.650000X-0.325000X0.650000X0*%
%TD*%
%TA.AperFunction,SMDPad,CuDef*%
%ADD39RoundRect,0.150000X-0.575000X0.150000X-0.575000X-0.150000X0.575000X-0.150000X0.575000X0.150000X0*%
%TD*%
%TA.AperFunction,SMDPad,CuDef*%
%ADD40RoundRect,0.075000X-0.650000X0.075000X-0.650000X-0.075000X0.650000X-0.075000X0.650000X0.075000X0*%
%TD*%
%TA.AperFunction,ComponentPad*%
%ADD41O,2.100000X1.000000*%
%TD*%
%TA.AperFunction,ComponentPad*%
%ADD42O,1.600000X1.000000*%
%TD*%
%TA.AperFunction,SMDPad,CuDef*%
%ADD43RoundRect,0.200000X0.200000X0.275000X-0.200000X0.275000X-0.200000X-0.275000X0.200000X-0.275000X0*%
%TD*%
%TA.AperFunction,SMDPad,CuDef*%
%ADD44RoundRect,0.150000X-0.150000X0.825000X-0.150000X-0.825000X0.150000X-0.825000X0.150000X0.825000X0*%
%TD*%
%TA.AperFunction,SMDPad,CuDef*%
%ADD45RoundRect,0.250000X0.325000X0.650000X-0.325000X0.650000X-0.325000X-0.650000X0.325000X-0.650000X0*%
%TD*%
%TA.AperFunction,SMDPad,CuDef*%
%ADD46RoundRect,0.250000X-0.250000X-0.475000X0.250000X-0.475000X0.250000X0.475000X-0.250000X0.475000X0*%
%TD*%
%TA.AperFunction,SMDPad,CuDef*%
%ADD47RoundRect,0.125000X0.125000X-0.687500X0.125000X0.687500X-0.125000X0.687500X-0.125000X-0.687500X0*%
%TD*%
%TA.AperFunction,SMDPad,CuDef*%
%ADD48RoundRect,0.150000X0.587500X0.150000X-0.587500X0.150000X-0.587500X-0.150000X0.587500X-0.150000X0*%
%TD*%
%TA.AperFunction,ComponentPad*%
%ADD49C,3.400000*%
%TD*%
%TA.AperFunction,ConnectorPad*%
%ADD50C,6.000000*%
%TD*%
%TA.AperFunction,SMDPad,CuDef*%
%ADD51R,4.495800X1.803400*%
%TD*%
%TA.AperFunction,SMDPad,CuDef*%
%ADD52RoundRect,0.250001X-0.799999X2.049999X-0.799999X-2.049999X0.799999X-2.049999X0.799999X2.049999X0*%
%TD*%
%TA.AperFunction,SMDPad,CuDef*%
%ADD53RoundRect,0.250000X-0.625000X0.312500X-0.625000X-0.312500X0.625000X-0.312500X0.625000X0.312500X0*%
%TD*%
%TA.AperFunction,SMDPad,CuDef*%
%ADD54RoundRect,0.250000X0.450000X0.350000X-0.450000X0.350000X-0.450000X-0.350000X0.450000X-0.350000X0*%
%TD*%
%TA.AperFunction,SMDPad,CuDef*%
%ADD55RoundRect,0.250000X0.312500X1.075000X-0.312500X1.075000X-0.312500X-1.075000X0.312500X-1.075000X0*%
%TD*%
%TA.AperFunction,SMDPad,CuDef*%
%ADD56RoundRect,0.250000X0.250000X0.475000X-0.250000X0.475000X-0.250000X-0.475000X0.250000X-0.475000X0*%
%TD*%
%TA.AperFunction,SMDPad,CuDef*%
%ADD57RoundRect,0.225000X-0.250000X0.225000X-0.250000X-0.225000X0.250000X-0.225000X0.250000X0.225000X0*%
%TD*%
%TA.AperFunction,ComponentPad*%
%ADD58C,1.800000*%
%TD*%
%TA.AperFunction,SMDPad,CuDef*%
%ADD59R,1.600000X3.200000*%
%TD*%
%TA.AperFunction,SMDPad,CuDef*%
%ADD60R,3.000000X1.400000*%
%TD*%
%TA.AperFunction,SMDPad,CuDef*%
%ADD61R,6.500000X6.000000*%
%TD*%
%TA.AperFunction,SMDPad,CuDef*%
%ADD62RoundRect,0.150000X0.150000X-0.825000X0.150000X0.825000X-0.150000X0.825000X-0.150000X-0.825000X0*%
%TD*%
%TA.AperFunction,ComponentPad*%
%ADD63C,1.137920*%
%TD*%
%TA.AperFunction,ViaPad*%
%ADD64C,0.304800*%
%TD*%
%TA.AperFunction,ViaPad*%
%ADD65C,0.305105*%
%TD*%
%TA.AperFunction,Conductor*%
%ADD66C,0.160693*%
%TD*%
%TA.AperFunction,Conductor*%
%ADD67C,0.127000*%
%TD*%
%TA.AperFunction,Conductor*%
%ADD68C,0.127127*%
%TD*%
%TA.AperFunction,Conductor*%
%ADD69C,0.176611*%
%TD*%
G04 APERTURE END LIST*
D10*
%TO.P,Rfbt1,1*%
%TO.N,+3V3*%
X185806409Y-67412136D03*
%TO.P,Rfbt1,2*%
%TO.N,Net-(U4-VFB)*%
X185806409Y-65762136D03*
%TD*%
D11*
%TO.P,R38,1*%
%TO.N,Net-(U5-QD)*%
X211174447Y-90533816D03*
%TO.P,R38,2*%
%TO.N,Net-(Q37-B)*%
X212824447Y-90533816D03*
%TD*%
D12*
%TO.P,D1,1,NC_1*%
%TO.N,unconnected-(D1-NC-Pad1)*%
X195930839Y-90331917D03*
D13*
%TO.P,D1,2,K_2*%
%TO.N,VCC*%
X203780839Y-92617917D03*
D12*
%TO.P,D1,3,A_3*%
%TO.N,Net-(D1-A)*%
X195930839Y-94903917D03*
%TD*%
D14*
%TO.P,Q27,1,B_1*%
%TO.N,Net-(Q27-B)*%
X202156789Y-147718972D03*
%TO.P,Q27,2,E_2*%
%TO.N,GND*%
X200256789Y-147718972D03*
%TO.P,Q27,3,C_3*%
%TO.N,/nixi_driver/DIG-2*%
X201206789Y-149593972D03*
%TD*%
D15*
%TO.P,Q12,1,B_1*%
%TO.N,Net-(Q12-B)*%
X209750459Y-114989089D03*
%TO.P,Q12,2,E_2*%
%TO.N,GND*%
X211650459Y-114989089D03*
%TO.P,Q12,3,C_3*%
%TO.N,Net-(Q12-C)*%
X210700459Y-113114089D03*
%TD*%
D16*
%TO.P,Rcomp1,1*%
%TO.N,GND*%
X167039067Y-91256862D03*
%TO.P,Rcomp1,2*%
%TO.N,Net-(Ccomp3-Pad2)*%
X167039067Y-89431862D03*
%TD*%
D17*
%TO.P,U7,1,GND_1*%
%TO.N,GND*%
X157480000Y-141400000D03*
%TO.P,U7,2,VDD_2*%
%TO.N,+3V3*%
X158750000Y-141400000D03*
%TO.P,U7,3,EN_3*%
%TO.N,Net-(Q8-C)*%
X160020000Y-141400000D03*
%TO.P,U7,4,SENSOR_VP_4*%
%TO.N,unconnected-(U7-SENSOR_VP-Pad4)*%
X161290000Y-141400000D03*
%TO.P,U7,5,SENSOR_VN_5*%
%TO.N,unconnected-(U7-SENSOR_VN-Pad5)*%
X162560000Y-141400000D03*
%TO.P,U7,6,IO34_6*%
%TO.N,unconnected-(U7-IO34-Pad6)*%
X163830000Y-141400000D03*
%TO.P,U7,7,IO35_7*%
%TO.N,unconnected-(U7-IO35-Pad7)*%
X165100000Y-141400000D03*
%TO.P,U7,8,IO32_8*%
%TO.N,unconnected-(U7-IO32-Pad8)*%
X166370000Y-141400000D03*
%TO.P,U7,9,IO33_9*%
%TO.N,unconnected-(U7-IO33-Pad9)*%
X167640000Y-141400000D03*
%TO.P,U7,10,IO25_10*%
%TO.N,/mcu/GPIO6*%
X168910000Y-141400000D03*
%TO.P,U7,11,IO26_11*%
%TO.N,unconnected-(U7-IO26-Pad11)*%
X170180000Y-141400000D03*
%TO.P,U7,12,IO27_12*%
%TO.N,unconnected-(U7-IO27-Pad12)*%
X171450000Y-141400000D03*
%TO.P,U7,13,IO14_13*%
%TO.N,/mcu/SCLK*%
X172720000Y-141400000D03*
%TO.P,U7,14,IO12_14*%
%TO.N,Net-(U7-IO12)*%
X173990000Y-141400000D03*
D18*
%TO.P,U7,15,GND_15*%
%TO.N,GND*%
X175240000Y-138360000D03*
%TO.P,U7,16,IO13_16*%
%TO.N,/mcu/MOSI*%
X175240000Y-137090000D03*
%TO.P,U7,17,NC_17*%
%TO.N,unconnected-(U7-NC-Pad17)*%
X175240000Y-135820000D03*
%TO.P,U7,18,NC_18*%
%TO.N,unconnected-(U7-NC-Pad18)*%
X175240000Y-134550000D03*
%TO.P,U7,19,NC_19*%
%TO.N,unconnected-(U7-NC-Pad19)*%
X175240000Y-133280000D03*
%TO.P,U7,20,NC_20*%
%TO.N,unconnected-(U7-NC-Pad20)*%
X175240000Y-132010000D03*
%TO.P,U7,21,NC_21*%
%TO.N,unconnected-(U7-NC-Pad21)*%
X175240000Y-130740000D03*
%TO.P,U7,22,NC_22*%
%TO.N,unconnected-(U7-NC-Pad22)*%
X175240000Y-129470000D03*
%TO.P,U7,23,IO15_23*%
%TO.N,/mcu/CS*%
X175240000Y-128200000D03*
%TO.P,U7,24,IO2_24*%
%TO.N,GND*%
X175240000Y-126930000D03*
D17*
%TO.P,U7,25,IO0_25*%
%TO.N,/mcu/GPIO0*%
X173990000Y-123900000D03*
%TO.P,U7,26,IO4_26*%
%TO.N,unconnected-(U7-IO4-Pad26)*%
X172720000Y-123900000D03*
%TO.P,U7,27,NC_27*%
%TO.N,unconnected-(U7-NC-Pad27)*%
X171450000Y-123900000D03*
%TO.P,U7,28,IO17_28*%
%TO.N,unconnected-(U7-IO17-Pad28)*%
X170180000Y-123900000D03*
%TO.P,U7,29,IO5_29*%
%TO.N,unconnected-(U7-IO5-Pad29)*%
X168910000Y-123900000D03*
%TO.P,U7,30,IO18_30*%
%TO.N,/mcu/GPIO1*%
X167640000Y-123900000D03*
%TO.P,U7,31,IO19_31*%
%TO.N,/mcu/GPIO2*%
X166370000Y-123900000D03*
%TO.P,U7,32,NC_32*%
%TO.N,unconnected-(U7-NC-Pad32)*%
X165100000Y-123900000D03*
%TO.P,U7,33,IO21_33*%
%TO.N,/mcu/GPIO3*%
X163830000Y-123900000D03*
%TO.P,U7,34,RXD0/IO3_34*%
%TO.N,/mcu/TX_OUT*%
X162560000Y-123900000D03*
%TO.P,U7,35,TXD0/IO1_35*%
%TO.N,/mcu/RX_IN*%
X161290000Y-123900000D03*
%TO.P,U7,36,IO22_36*%
%TO.N,/mcu/GPIO4*%
X160020000Y-123900000D03*
%TO.P,U7,37,IO23_37*%
%TO.N,/mcu/GPIO5*%
X158750000Y-123900000D03*
%TO.P,U7,38,GND_38*%
%TO.N,GND*%
X157480000Y-123900000D03*
D19*
%TO.P,U7,39,GND_39*%
X163800000Y-135550000D03*
D20*
X164500000Y-135550000D03*
D19*
X165200000Y-135550000D03*
D20*
X165900000Y-135550000D03*
D19*
X166600000Y-135550000D03*
D20*
X163800000Y-134850000D03*
X165200000Y-134850000D03*
X166600000Y-134850000D03*
X164500000Y-134175000D03*
X165900000Y-134175000D03*
D19*
X163800000Y-134150000D03*
X165200000Y-134150000D03*
D21*
X165200000Y-134150000D03*
D19*
X166600000Y-134150000D03*
D20*
X163800000Y-133450000D03*
X165200000Y-133450000D03*
X166600000Y-133450000D03*
D19*
X163800000Y-132750000D03*
D20*
X164500000Y-132750000D03*
D19*
X165200000Y-132750000D03*
D20*
X165900000Y-132750000D03*
D19*
X166600000Y-132750000D03*
%TD*%
D22*
%TO.P,L1,1,1_1*%
%TO.N,+12V*%
X197932105Y-75480808D03*
%TO.P,L1,2,2_2*%
%TO.N,Net-(D1-A)*%
X197932105Y-85380808D03*
%TD*%
D23*
%TO.P,C4,1*%
%TO.N,VCC*%
X205973244Y-87016355D03*
%TO.P,C4,2*%
%TO.N,GND*%
X205973244Y-84066355D03*
%TD*%
D10*
%TO.P,R63,1*%
%TO.N,GND*%
X172515270Y-103157839D03*
%TO.P,R63,2*%
%TO.N,/mcu/GPIO5*%
X172515270Y-101507839D03*
%TD*%
D24*
%TO.P,Q28,1,B_1*%
%TO.N,Net-(Q28-B)*%
X220246124Y-143373191D03*
%TO.P,Q28,2,E_2*%
%TO.N,GND*%
X220246124Y-145273191D03*
%TO.P,Q28,3,C_3*%
%TO.N,/nixi_driver/DIG-3*%
X222121124Y-144323191D03*
%TD*%
D25*
%TO.P,GND1,1,Pin_1_1*%
%TO.N,GND*%
X170650000Y-67070000D03*
%TD*%
D26*
%TO.P,C14,1*%
%TO.N,+3V3*%
X191857358Y-133884988D03*
%TO.P,C14,2*%
%TO.N,GND*%
X193407358Y-133884988D03*
%TD*%
D10*
%TO.P,R58,1*%
%TO.N,Net-(Q13-B)*%
X207831725Y-114566042D03*
%TO.P,R58,2*%
%TO.N,Net-(Q12-C)*%
X207831725Y-112916042D03*
%TD*%
D11*
%TO.P,R55,1*%
%TO.N,GND*%
X174339004Y-119054323D03*
%TO.P,R55,2*%
%TO.N,/mcu/GPIO3*%
X175989004Y-119054323D03*
%TD*%
D16*
%TO.P,Br10,1*%
%TO.N,Net-(Br10-Pad1)*%
X213747928Y-103045339D03*
%TO.P,Br10,2*%
%TO.N,Net-(Q15-C)*%
X213747928Y-101220339D03*
%TD*%
D27*
%TO.P,RFilt1,1*%
%TO.N,Net-(U1-I_{SEN})*%
X214324922Y-77764792D03*
%TO.P,RFilt1,2*%
%TO.N,Net-(Q1-S)*%
X216149922Y-77764792D03*
%TD*%
D10*
%TO.P,R28,1*%
%TO.N,Net-(U2-QB)*%
X202895016Y-152593386D03*
%TO.P,R28,2*%
%TO.N,Net-(Q27-B)*%
X202895016Y-150943386D03*
%TD*%
D28*
%TO.P,Br9,1*%
%TO.N,Net-(Br9-Pad1)*%
X216149922Y-116932956D03*
%TO.P,Br9,2*%
%TO.N,Net-(Q13-C)*%
X214324922Y-116932956D03*
%TD*%
D29*
%TO.P,C5,1*%
%TO.N,+12V*%
X199483308Y-70379323D03*
%TO.P,C5,2*%
%TO.N,GND*%
X197933308Y-70379323D03*
%TD*%
D26*
%TO.P,C3,1*%
%TO.N,+12V*%
X190338371Y-60492214D03*
%TO.P,C3,2*%
%TO.N,GND*%
X191888371Y-60492214D03*
%TD*%
D11*
%TO.P,R69,1*%
%TO.N,VCC*%
X185731409Y-84449441D03*
%TO.P,R69,2*%
%TO.N,Net-(Q18-C)*%
X187381409Y-84449441D03*
%TD*%
%TO.P,R31,1*%
%TO.N,Net-(U2-QE)*%
X211174447Y-149095925D03*
%TO.P,R31,2*%
%TO.N,Net-(Q30-B)*%
X212824447Y-149095925D03*
%TD*%
D15*
%TO.P,Q36,1,B_1*%
%TO.N,Net-(Q36-B)*%
X213547928Y-134763308D03*
%TO.P,Q36,2,E_2*%
%TO.N,GND*%
X215447928Y-134763308D03*
%TO.P,Q36,3,C_3*%
%TO.N,/nixi_driver/RHDP-1*%
X214497928Y-132888308D03*
%TD*%
D26*
%TO.P,C9,1*%
%TO.N,+3V3*%
X159958624Y-143772097D03*
%TO.P,C9,2*%
%TO.N,GND*%
X161508624Y-143772097D03*
%TD*%
D30*
%TO.P,SW4,A,A_A*%
%TO.N,GND*%
X178765548Y-136719255D03*
%TO.P,SW4,B,B_B*%
X187765546Y-136719255D03*
%TO.P,SW4,C,C_C*%
%TO.N,Net-(U7-IO12)*%
X178765548Y-141219257D03*
%TO.P,SW4,D,D_D*%
X187765546Y-141219257D03*
%TD*%
D15*
%TO.P,Q14,1,B_1*%
%TO.N,Net-(Q14-B)*%
X217345396Y-109665261D03*
%TO.P,Q14,2,E_2*%
%TO.N,GND*%
X219245396Y-109665261D03*
%TO.P,Q14,3,C_3*%
%TO.N,Net-(Q14-C)*%
X218295396Y-107790261D03*
%TD*%
D31*
%TO.P,U4,1,VIN_1*%
%TO.N,+12V*%
X190263370Y-63776902D03*
%TO.P,U4,2,SW_2*%
%TO.N,Net-(U4-SW)*%
X190763370Y-63776902D03*
%TO.P,U4,3,GND_3*%
%TO.N,GND*%
X191263370Y-63776902D03*
%TO.P,U4,4,VBST_4*%
%TO.N,Net-(U4-VBST)*%
X191263370Y-62351902D03*
%TO.P,U4,5,EN_5*%
%TO.N,+12V*%
X190763370Y-62351902D03*
%TO.P,U4,6,VFB_6*%
%TO.N,Net-(U4-VFB)*%
X190263370Y-62351902D03*
%TD*%
D32*
%TO.P,C59,1*%
%TO.N,GND*%
X178081725Y-125500339D03*
%TO.P,C59,2*%
%TO.N,Net-(U6-XO)*%
X178081725Y-127400339D03*
%TD*%
D25*
%TO.P,VIN2,1,Pin_1_1*%
%TO.N,VCC*%
X222542611Y-117253777D03*
%TD*%
D33*
%TO.P,R41,1*%
%TO.N,Net-(J6-D--PadA7)*%
X185906250Y-124023910D03*
%TO.P,R41,2*%
%TO.N,D-*%
X185906250Y-125848910D03*
%TD*%
D34*
%TO.P,R66,1*%
%TO.N,Net-(Q17-B)*%
X174034257Y-80592800D03*
%TO.P,R66,2*%
%TO.N,Net-(Q16-C)*%
X174034257Y-82242800D03*
%TD*%
D35*
%TO.P,Cbyp1,1*%
%TO.N,+12V*%
X201626029Y-65796042D03*
%TO.P,Cbyp1,2*%
%TO.N,GND*%
X201626029Y-63896042D03*
%TD*%
D36*
%TO.P,C16,1*%
%TO.N,Net-(U4-VBST)*%
X182768434Y-67742409D03*
%TO.P,C16,2*%
%TO.N,Net-(U4-SW)*%
X182768434Y-66192409D03*
%TD*%
D16*
%TO.P,Br12,1*%
%TO.N,Net-(Br12-Pad1)*%
X189823877Y-77567019D03*
%TO.P,Br12,2*%
%TO.N,Net-(Q19-C)*%
X189823877Y-75742019D03*
%TD*%
D10*
%TO.P,R33,1*%
%TO.N,Net-(U2-QG)*%
X219224130Y-152593386D03*
%TO.P,R33,2*%
%TO.N,Net-(Q32-B)*%
X219224130Y-150943386D03*
%TD*%
D29*
%TO.P,C12,1*%
%TO.N,+12V*%
X185812422Y-63914675D03*
%TO.P,C12,2*%
%TO.N,GND*%
X184262422Y-63914675D03*
%TD*%
D27*
%TO.P,R40,1*%
%TO.N,Net-(J6-CC2)*%
X160021124Y-114271042D03*
%TO.P,R40,2*%
%TO.N,GND*%
X161846124Y-114271042D03*
%TD*%
D15*
%TO.P,Q31,1,B_1*%
%TO.N,Net-(Q31-B)*%
X193041599Y-153016433D03*
%TO.P,Q31,2,E_2*%
%TO.N,GND*%
X194941599Y-153016433D03*
%TO.P,Q31,3,C_3*%
%TO.N,/nixi_driver/DIG-6*%
X193991599Y-151141433D03*
%TD*%
D10*
%TO.P,Rffb1,1*%
%TO.N,Net-(U4-VFB)*%
X182388687Y-63609402D03*
%TO.P,Rffb1,2*%
%TO.N,GND*%
X182388687Y-61959402D03*
%TD*%
D25*
%TO.P,VIN1,1,Pin_1_1*%
%TO.N,+12V*%
X174314763Y-67057683D03*
%TD*%
D11*
%TO.P,R70,1*%
%TO.N,Net-(Q19-B)*%
X184592168Y-82548073D03*
%TO.P,R70,2*%
%TO.N,Net-(Q18-C)*%
X186242168Y-82548073D03*
%TD*%
%TO.P,R52,1*%
%TO.N,Net-(Q10-B)*%
X203199763Y-127420339D03*
%TO.P,R52,2*%
%TO.N,/mcu/GPIO2*%
X204849763Y-127420339D03*
%TD*%
D35*
%TO.P,C23,1*%
%TO.N,+3V3*%
X193271599Y-67697409D03*
%TO.P,C23,2*%
%TO.N,GND*%
X193271599Y-65797409D03*
%TD*%
D10*
%TO.P,R67,1*%
%TO.N,GND*%
X219231266Y-70995547D03*
%TO.P,R67,2*%
%TO.N,/mcu/GPIO6*%
X219231266Y-69345547D03*
%TD*%
D24*
%TO.P,Q34,1,B_1*%
%TO.N,Net-(Q34-B)*%
X214549922Y-124739792D03*
%TO.P,Q34,2,E_2*%
%TO.N,GND*%
X214549922Y-126639792D03*
%TO.P,Q34,3,C_3*%
%TO.N,/nixi_driver/DIG-9*%
X216424922Y-125689792D03*
%TD*%
D34*
%TO.P,R64,1*%
%TO.N,Net-(Q16-B)*%
X174414004Y-99986745D03*
%TO.P,R64,2*%
%TO.N,/mcu/GPIO5*%
X174414004Y-101636745D03*
%TD*%
D27*
%TO.P,Rfadj1,1*%
%TO.N,GND*%
X207109732Y-61793308D03*
%TO.P,Rfadj1,2*%
%TO.N,Net-(U1-FA{slash}SD)*%
X208934732Y-61793308D03*
%TD*%
D16*
%TO.P,Br8,1*%
%TO.N,Net-(Br8-Pad1)*%
X223621346Y-133847487D03*
%TO.P,Br8,2*%
%TO.N,Net-(Q11-C)*%
X223621346Y-132022487D03*
%TD*%
D37*
%TO.P,U5,1,QB_1*%
%TO.N,Net-(U5-QB)*%
X200731789Y-135617644D03*
%TO.P,U5,2,QC_2*%
%TO.N,Net-(U5-QC)*%
X200731789Y-136887644D03*
%TO.P,U5,3,QD_3*%
%TO.N,Net-(U5-QD)*%
X200731789Y-138157644D03*
%TO.P,U5,4,QE_4*%
%TO.N,unconnected-(U5-QE-Pad4)*%
X200731789Y-139427644D03*
%TO.P,U5,5,QF_5*%
%TO.N,unconnected-(U5-QF-Pad5)*%
X200731789Y-140697644D03*
%TO.P,U5,6,QG_6*%
%TO.N,unconnected-(U5-QG-Pad6)*%
X200731789Y-141967644D03*
%TO.P,U5,7,QH_7*%
%TO.N,unconnected-(U5-QH-Pad7)*%
X200731789Y-143237644D03*
%TO.P,U5,8,GND_8*%
%TO.N,GND*%
X200731789Y-144507644D03*
%TO.P,U5,9,QH'_9*%
%TO.N,unconnected-(U5-QH'-Pad9)*%
X205681789Y-144507644D03*
%TO.P,U5,10,~{SRCLR}_10*%
%TO.N,+3V3*%
X205681789Y-143237644D03*
%TO.P,U5,11,SRCLK_11*%
%TO.N,/mcu/SCLK*%
X205681789Y-141967644D03*
%TO.P,U5,12,RCLK_12*%
%TO.N,/mcu/CS*%
X205681789Y-140697644D03*
%TO.P,U5,13,~{OE}_13*%
%TO.N,GND*%
X205681789Y-139427644D03*
%TO.P,U5,14,SER_14*%
%TO.N,Net-(U2-QH')*%
X205681789Y-138157644D03*
%TO.P,U5,15,QA_15*%
%TO.N,Net-(U5-QA)*%
X205681789Y-136887644D03*
%TO.P,U5,16,VCC_16*%
%TO.N,+3V3*%
X205681789Y-135617644D03*
%TD*%
D27*
%TO.P,Rfb1,1*%
%TO.N,Net-(U1-FB)*%
X209008466Y-78145066D03*
%TO.P,Rfb1,2*%
%TO.N,GND*%
X210833466Y-78145066D03*
%TD*%
D38*
%TO.P,C2,1*%
%TO.N,VCC*%
X209445713Y-92775730D03*
%TO.P,C2,2*%
%TO.N,GND*%
X212395713Y-92775730D03*
%TD*%
D15*
%TO.P,Q15,1,B_1*%
%TO.N,Net-(Q15-B)*%
X215826409Y-103961159D03*
%TO.P,Q15,2,E_2*%
%TO.N,VCC*%
X217726409Y-103961159D03*
%TO.P,Q15,3,C_3*%
%TO.N,Net-(Q15-C)*%
X216776409Y-102086159D03*
%TD*%
D10*
%TO.P,R61,1*%
%TO.N,VCC*%
X212768434Y-107340847D03*
%TO.P,R61,2*%
%TO.N,Net-(Q14-C)*%
X212768434Y-105690847D03*
%TD*%
D15*
%TO.P,Q16,1,B_1*%
%TO.N,Net-(Q16-B)*%
X173674510Y-87609402D03*
%TO.P,Q16,2,E_2*%
%TO.N,GND*%
X175574510Y-87609402D03*
%TO.P,Q16,3,C_3*%
%TO.N,Net-(Q16-C)*%
X174624510Y-85734402D03*
%TD*%
%TO.P,SS8050,1,C_1*%
%TO.N,/mcu/GPIO0*%
X178990966Y-146932058D03*
%TO.P,SS8050,2,B_2*%
%TO.N,Net-(SS8050-B)*%
X180890966Y-146932058D03*
%TO.P,SS8050,3,E_3*%
%TO.N,/mcu/UART/DTR*%
X179940966Y-145057058D03*
%TD*%
D26*
%TO.P,C10,1*%
%TO.N,+3V3*%
X208186472Y-137307448D03*
%TO.P,C10,2*%
%TO.N,GND*%
X209736472Y-137307448D03*
%TD*%
D33*
%TO.P,R42,1*%
%TO.N,Net-(J6-D+-PadA6)*%
X188212650Y-124023910D03*
%TO.P,R42,2*%
%TO.N,D+*%
X188212650Y-125848910D03*
%TD*%
D14*
%TO.P,Q10,1,B_1*%
%TO.N,Net-(Q10-B)*%
X221523877Y-125282839D03*
%TO.P,Q10,2,E_2*%
%TO.N,GND*%
X219623877Y-125282839D03*
%TO.P,Q10,3,C_3*%
%TO.N,Net-(Q10-C)*%
X220573877Y-127157839D03*
%TD*%
D24*
%TO.P,Q13,1,B_1*%
%TO.N,Net-(Q13-B)*%
X213790428Y-112951316D03*
%TO.P,Q13,2,E_2*%
%TO.N,VCC*%
X213790428Y-114851316D03*
%TO.P,Q13,3,C_3*%
%TO.N,Net-(Q13-C)*%
X215665428Y-113901316D03*
%TD*%
D10*
%TO.P,R65,1*%
%TO.N,VCC*%
X175932991Y-81482253D03*
%TO.P,R65,2*%
%TO.N,Net-(Q16-C)*%
X175932991Y-79832253D03*
%TD*%
D39*
%TO.P,J6,A1,GND_A1*%
%TO.N,GND*%
X156785000Y-99600000D03*
%TO.P,J6,A4,VBUS_A4*%
%TO.N,unconnected-(J6-VBUS-PadA4)_3*%
X156785000Y-100400000D03*
D40*
%TO.P,J6,A5,CC1_A5*%
%TO.N,Net-(J6-CC1)*%
X156785000Y-101600000D03*
%TO.P,J6,A6,D+_A6*%
%TO.N,Net-(J6-D+-PadA6)*%
X156785000Y-102600000D03*
%TO.P,J6,A7,D-_A7*%
%TO.N,Net-(J6-D--PadA7)*%
X156785000Y-103100000D03*
%TO.P,J6,A8,SBU1_A8*%
%TO.N,unconnected-(J6-SBU1-PadA8)*%
X156785000Y-104100000D03*
D39*
%TO.P,J6,A9,VBUS_A9*%
%TO.N,unconnected-(J6-VBUS-PadA4)*%
X156785000Y-105300000D03*
%TO.P,J6,A12,GND_A12*%
%TO.N,GND*%
X156785000Y-106100000D03*
%TO.P,J6,B1,GND_B1*%
X156785000Y-106100000D03*
%TO.P,J6,B4,VBUS_B4*%
%TO.N,unconnected-(J6-VBUS-PadA4)_2*%
X156785000Y-105300000D03*
D40*
%TO.P,J6,B5,CC2_B5*%
%TO.N,Net-(J6-CC2)*%
X156785000Y-104600000D03*
%TO.P,J6,B6,D+_B6*%
%TO.N,Net-(J6-D+-PadA6)*%
X156785000Y-103600000D03*
%TO.P,J6,B7,D-_B7*%
%TO.N,Net-(J6-D--PadA7)*%
X156785000Y-102100000D03*
%TO.P,J6,B8,SBU2_B8*%
%TO.N,unconnected-(J6-SBU2-PadB8)*%
X156785000Y-101100000D03*
D39*
%TO.P,J6,B9,VBUS_B9*%
%TO.N,unconnected-(J6-VBUS-PadA4)_1*%
X156785000Y-100400000D03*
%TO.P,J6,B12,GND_B12*%
%TO.N,GND*%
X156785000Y-99600000D03*
D41*
%TO.P,J6,SH*%
%TO.N,N/C*%
X155870000Y-98530000D03*
D42*
X151690000Y-98530000D03*
D41*
X155870000Y-107170000D03*
D42*
X151690000Y-107170000D03*
%TD*%
D36*
%TO.P,C8,1*%
%TO.N,+12V*%
X197578561Y-65841042D03*
%TO.P,C8,2*%
%TO.N,GND*%
X197578561Y-64291042D03*
%TD*%
D11*
%TO.P,R47,1*%
%TO.N,GND*%
X170921282Y-106885573D03*
%TO.P,R47,2*%
%TO.N,/mcu/GPIO1*%
X172571282Y-106885573D03*
%TD*%
D43*
%TO.P,R56,1*%
%TO.N,Net-(Q12-B)*%
X179406725Y-118293777D03*
%TO.P,R56,2*%
%TO.N,/mcu/GPIO3*%
X177756725Y-118293777D03*
%TD*%
D35*
%TO.P,C17,1*%
%TO.N,GND*%
X178841219Y-131203073D03*
%TO.P,C17,2*%
%TO.N,Net-(U6-XI)*%
X178841219Y-129303073D03*
%TD*%
D11*
%TO.P,R62,1*%
%TO.N,Net-(Q15-B)*%
X214592168Y-106505300D03*
%TO.P,R62,2*%
%TO.N,Net-(Q14-C)*%
X216242168Y-106505300D03*
%TD*%
D24*
%TO.P,Q19,1,B_1*%
%TO.N,Net-(Q19-B)*%
X185689162Y-74923972D03*
%TO.P,Q19,2,E_2*%
%TO.N,VCC*%
X185689162Y-76823972D03*
%TO.P,Q19,3,C_3*%
%TO.N,Net-(Q19-C)*%
X187564162Y-75873972D03*
%TD*%
D44*
%TO.P,U6,1,GND_1*%
%TO.N,GND*%
X189784700Y-129200534D03*
%TO.P,U6,2,TXD_2*%
%TO.N,/mcu/TX_OUT*%
X188514700Y-129200534D03*
%TO.P,U6,3,RXD_3*%
%TO.N,/mcu/RX_IN*%
X187244700Y-129200534D03*
%TO.P,U6,4,V3_4*%
%TO.N,+3V3*%
X185974700Y-129200534D03*
%TO.P,U6,5,UD+_5*%
%TO.N,D+*%
X184704700Y-129200534D03*
%TO.P,U6,6,UD-_6*%
%TO.N,D-*%
X183434700Y-129200534D03*
%TO.P,U6,7,XI_7*%
%TO.N,Net-(U6-XI)*%
X182164700Y-129200534D03*
%TO.P,U6,8,XO_8*%
%TO.N,Net-(U6-XO)*%
X180894700Y-129200534D03*
%TO.P,U6,9,~{CTS}_9*%
%TO.N,unconnected-(U6-~{CTS}-Pad9)*%
X180894700Y-134150534D03*
%TO.P,U6,10,~{DSR}_10*%
%TO.N,unconnected-(U6-~{DSR}-Pad10)*%
X182164700Y-134150534D03*
%TO.P,U6,11,~{RI}_11*%
%TO.N,unconnected-(U6-~{RI}-Pad11)*%
X183434700Y-134150534D03*
%TO.P,U6,12,~{DCD}_12*%
%TO.N,unconnected-(U6-~{DCD}-Pad12)*%
X184704700Y-134150534D03*
%TO.P,U6,13,~{DTR}_13*%
%TO.N,/mcu/UART/DTR*%
X185974700Y-134150534D03*
%TO.P,U6,14,~{RTS}_14*%
%TO.N,/mcu/UART/RTS*%
X187244700Y-134150534D03*
%TO.P,U6,15,R232_15*%
%TO.N,unconnected-(U6-R232-Pad15)*%
X188514700Y-134150534D03*
%TO.P,U6,16,VCC_16*%
%TO.N,+3V3*%
X189784700Y-134150534D03*
%TD*%
D11*
%TO.P,R37,1*%
%TO.N,Net-(U5-QC)*%
X213452928Y-137307448D03*
%TO.P,R37,2*%
%TO.N,Net-(Q36-B)*%
X215102928Y-137307448D03*
%TD*%
D10*
%TO.P,R50,1*%
%TO.N,VCC*%
X196439320Y-120270144D03*
%TO.P,R50,2*%
%TO.N,Net-(Q9-C)*%
X196439320Y-118620144D03*
%TD*%
D15*
%TO.P,Q11,1,B_1*%
%TO.N,Net-(Q11-B)*%
X217725143Y-130580300D03*
%TO.P,Q11,2,E_2*%
%TO.N,VCC*%
X219625143Y-130580300D03*
%TO.P,Q11,3,C_3*%
%TO.N,Net-(Q11-C)*%
X218675143Y-128705300D03*
%TD*%
D43*
%TO.P,R53,1*%
%TO.N,VCC*%
X223077611Y-129701980D03*
%TO.P,R53,2*%
%TO.N,Net-(Q10-C)*%
X221427611Y-129701980D03*
%TD*%
D14*
%TO.P,Q33,1,B_1*%
%TO.N,Net-(Q33-B)*%
X216587168Y-147338698D03*
%TO.P,Q33,2,E_2*%
%TO.N,GND*%
X214687168Y-147338698D03*
%TO.P,Q33,3,C_3*%
%TO.N,/nixi_driver/DIG-8*%
X215637168Y-149213698D03*
%TD*%
D27*
%TO.P,R43,1*%
%TO.N,/mcu/UART/DTR*%
X183185681Y-152678659D03*
%TO.P,R43,2*%
%TO.N,Net-(Q8-B)*%
X185010681Y-152678659D03*
%TD*%
D10*
%TO.P,R60,1*%
%TO.N,Net-(Q14-B)*%
X164540586Y-119889870D03*
%TO.P,R60,2*%
%TO.N,/mcu/GPIO4*%
X164540586Y-118239870D03*
%TD*%
D11*
%TO.P,R34,1*%
%TO.N,Net-(U2-QH)*%
X219149130Y-147194558D03*
%TO.P,R34,2*%
%TO.N,Net-(Q33-B)*%
X220799130Y-147194558D03*
%TD*%
D10*
%TO.P,R32,1*%
%TO.N,Net-(U2-QF)*%
X191122865Y-154114480D03*
%TO.P,R32,2*%
%TO.N,Net-(Q31-B)*%
X191122865Y-152464480D03*
%TD*%
D15*
%TO.P,Q29,1,B_1*%
%TO.N,Net-(Q29-B)*%
X207092232Y-151495339D03*
%TO.P,Q29,2,E_2*%
%TO.N,GND*%
X208992232Y-151495339D03*
%TO.P,Q29,3,C_3*%
%TO.N,/nixi_driver/DIG-4*%
X208042232Y-149620339D03*
%TD*%
D24*
%TO.P,Q37,1,B_1*%
%TO.N,Net-(Q37-B)*%
X214929668Y-90515183D03*
%TO.P,Q37,2,E_2*%
%TO.N,GND*%
X214929668Y-92415183D03*
%TO.P,Q37,3,C_3*%
%TO.N,/nixi_driver/RHDP-2*%
X216804668Y-91465183D03*
%TD*%
D45*
%TO.P,C26,1*%
%TO.N,+12V*%
X199484320Y-68057956D03*
%TO.P,C26,2*%
%TO.N,GND*%
X196534320Y-68057956D03*
%TD*%
D11*
%TO.P,R30,1*%
%TO.N,Net-(U2-QD)*%
X206617485Y-147194558D03*
%TO.P,R30,2*%
%TO.N,Net-(Q29-B)*%
X208267485Y-147194558D03*
%TD*%
D46*
%TO.P,Ccomp3,1*%
%TO.N,Net-(Ccomp2-Pad2)*%
X177092232Y-70889870D03*
%TO.P,Ccomp3,2*%
%TO.N,Net-(Ccomp3-Pad2)*%
X178992232Y-70889870D03*
%TD*%
D15*
%TO.P,Q9,1,B_1*%
%TO.N,Net-(Q9-B)*%
X201016282Y-125256472D03*
%TO.P,Q9,2,E_2*%
%TO.N,GND*%
X202916282Y-125256472D03*
%TO.P,Q9,3,C_3*%
%TO.N,Net-(Q9-C)*%
X201966282Y-123381472D03*
%TD*%
D25*
%TO.P,VIN3,1,Pin_1_1*%
%TO.N,+3V3*%
X170650000Y-70700000D03*
%TD*%
D47*
%TO.P,U1,1,I_{SEN}_1*%
%TO.N,Net-(U1-I_{SEN})*%
X201491029Y-72323464D03*
%TO.P,U1,2,COMP_2*%
%TO.N,Net-(U1-COMP)*%
X202141029Y-72323464D03*
%TO.P,U1,3,FB_3*%
%TO.N,Net-(U1-FB)*%
X202791029Y-72323464D03*
%TO.P,U1,4,AGND_4*%
%TO.N,GND*%
X203441029Y-72323464D03*
%TO.P,U1,5,PGND_5*%
X203441029Y-68098464D03*
%TO.P,U1,6,DR_6*%
%TO.N,Net-(Q1-G)*%
X202791029Y-68098464D03*
%TO.P,U1,7,FA/SD_7*%
%TO.N,Net-(U1-FA{slash}SD)*%
X202141029Y-68098464D03*
%TO.P,U1,8,V_{IN}_8*%
%TO.N,+12V*%
X201491029Y-68098464D03*
%TD*%
D28*
%TO.P,Br7,1*%
%TO.N,Net-(Br7-Pad1)*%
X205137263Y-119594870D03*
%TO.P,Br7,2*%
%TO.N,Net-(Q7-C)*%
X203312263Y-119594870D03*
%TD*%
D11*
%TO.P,R57,1*%
%TO.N,VCC*%
X210794700Y-117152956D03*
%TO.P,R57,2*%
%TO.N,Net-(Q12-C)*%
X212444700Y-117152956D03*
%TD*%
D48*
%TO.P,Q18,1,B_1*%
%TO.N,Net-(Q18-B)*%
X187184415Y-80626706D03*
%TO.P,Q18,2,E_2*%
%TO.N,GND*%
X187184415Y-78726706D03*
%TO.P,Q18,3,C_3*%
%TO.N,Net-(Q18-C)*%
X185309415Y-79676706D03*
%TD*%
D14*
%TO.P,Q7,1,B_1*%
%TO.N,Net-(Q7-B)*%
X200258054Y-120719558D03*
%TO.P,Q7,2,E_2*%
%TO.N,VCC*%
X198358054Y-120719558D03*
%TO.P,Q7,3,C_3*%
%TO.N,Net-(Q7-C)*%
X199308054Y-122594558D03*
%TD*%
D36*
%TO.P,C15,1*%
%TO.N,+3V3*%
X211629194Y-137332448D03*
%TO.P,C15,2*%
%TO.N,GND*%
X211629194Y-135782448D03*
%TD*%
D11*
%TO.P,R27,1*%
%TO.N,Net-(U2-QA)*%
X219908624Y-139208816D03*
%TO.P,R27,2*%
%TO.N,Net-(Q26-B)*%
X221558624Y-139208816D03*
%TD*%
D49*
%TO.P,H2,1,1_1*%
%TO.N,GND*%
X224000000Y-152300000D03*
D50*
X224000000Y-152300000D03*
%TD*%
D51*
%TO.P,L2,1,1_1*%
%TO.N,+3V3*%
X189477043Y-69149297D03*
%TO.P,L2,2,2_2*%
%TO.N,Net-(U4-SW)*%
X189477043Y-65847297D03*
%TD*%
D24*
%TO.P,Q30,1,B_1*%
%TO.N,Net-(Q30-B)*%
X211132200Y-151358933D03*
%TO.P,Q30,2,E_2*%
%TO.N,GND*%
X211132200Y-153258933D03*
%TO.P,Q30,3,C_3*%
%TO.N,/nixi_driver/DIG-5*%
X213007200Y-152308933D03*
%TD*%
D48*
%TO.P,Q35,1,B_1*%
%TO.N,Net-(Q35-B)*%
X209209732Y-133864988D03*
%TO.P,Q35,2,E_2*%
%TO.N,GND*%
X209209732Y-131964988D03*
%TO.P,Q35,3,C_3*%
%TO.N,/nixi_driver/DIG-10*%
X207334732Y-132914988D03*
%TD*%
D35*
%TO.P,Ccomp2,1*%
%TO.N,Net-(U1-COMP)*%
X205043751Y-63514402D03*
%TO.P,Ccomp2,2*%
%TO.N,Net-(Ccomp2-Pad2)*%
X205043751Y-61614402D03*
%TD*%
D29*
%TO.P,C13,1*%
%TO.N,+12V*%
X185812422Y-62013308D03*
%TO.P,C13,2*%
%TO.N,GND*%
X184262422Y-62013308D03*
%TD*%
D16*
%TO.P,Br11,1*%
%TO.N,Net-(Br11-Pad1)*%
X179950459Y-87073855D03*
%TO.P,Br11,2*%
%TO.N,Net-(Q17-C)*%
X179950459Y-85248855D03*
%TD*%
D52*
%TO.P,C6,1*%
%TO.N,VCC*%
X203767548Y-100068308D03*
%TO.P,C6,2*%
%TO.N,GND*%
X203767548Y-108868308D03*
%TD*%
D15*
%TO.P,Q17,1,B_1*%
%TO.N,Net-(Q17-B)*%
X177851725Y-76961745D03*
%TO.P,Q17,2,E_2*%
%TO.N,VCC*%
X179751725Y-76961745D03*
%TO.P,Q17,3,C_3*%
%TO.N,Net-(Q17-C)*%
X178801725Y-75086745D03*
%TD*%
D11*
%TO.P,R36,1*%
%TO.N,Net-(U5-QB)*%
X201680776Y-133504714D03*
%TO.P,R36,2*%
%TO.N,Net-(Q35-B)*%
X203330776Y-133504714D03*
%TD*%
D49*
%TO.P,H1,1,1_1*%
%TO.N,GND*%
X224900000Y-62500000D03*
D50*
X224900000Y-62500000D03*
%TD*%
D16*
%TO.P,R44,1*%
%TO.N,/mcu/UART/RTS*%
X186026409Y-147157058D03*
%TO.P,R44,2*%
%TO.N,Net-(SS8050-B)*%
X186026409Y-145332058D03*
%TD*%
D32*
%TO.P,C80,1*%
%TO.N,+3V3*%
X157955143Y-143753464D03*
%TO.P,C80,2*%
%TO.N,GND*%
X157955143Y-145653464D03*
%TD*%
D30*
%TO.P,SW5,A,A_A*%
%TO.N,/mcu/GPIO0*%
X169002899Y-150726093D03*
%TO.P,SW5,B,B_B*%
X160002901Y-150726093D03*
%TO.P,SW5,C,C_C*%
%TO.N,GND*%
X169002899Y-146226091D03*
%TO.P,SW5,D,D_D*%
X160002901Y-146226091D03*
%TD*%
D15*
%TO.P,Q26,1,B_1*%
%TO.N,Net-(Q26-B)*%
X217345396Y-137044948D03*
%TO.P,Q26,2,E_2*%
%TO.N,GND*%
X219245396Y-137044948D03*
%TO.P,Q26,3,C_3*%
%TO.N,/nixi_driver/DIG-1*%
X218295396Y-135169948D03*
%TD*%
D38*
%TO.P,C24,1*%
%TO.N,+3V3*%
X191977358Y-131563620D03*
%TO.P,C24,2*%
%TO.N,GND*%
X194927358Y-131563620D03*
%TD*%
D10*
%TO.P,R35,1*%
%TO.N,Net-(U5-QA)*%
X212388687Y-126354519D03*
%TO.P,R35,2*%
%TO.N,Net-(Q34-B)*%
X212388687Y-124704519D03*
%TD*%
D24*
%TO.P,Q32,1,B_1*%
%TO.N,Net-(Q32-B)*%
X215309415Y-151358933D03*
%TO.P,Q32,2,E_2*%
%TO.N,GND*%
X215309415Y-153258933D03*
%TO.P,Q32,3,C_3*%
%TO.N,/nixi_driver/DIG-7*%
X217184415Y-152308933D03*
%TD*%
D16*
%TO.P,R39,1*%
%TO.N,GND*%
X165140333Y-110650808D03*
%TO.P,R39,2*%
%TO.N,Net-(J6-CC1)*%
X165140333Y-108825808D03*
%TD*%
D24*
%TO.P,Q8,1,C_1*%
%TO.N,Net-(Q8-C)*%
X178853719Y-151358933D03*
%TO.P,Q8,2,B_2*%
%TO.N,Net-(Q8-B)*%
X178853719Y-153258933D03*
%TO.P,Q8,3,E_3*%
%TO.N,/mcu/UART/RTS*%
X180728719Y-152308933D03*
%TD*%
D53*
%TO.P,Rfb2,1*%
%TO.N,Net-(U1-FB)*%
X208611472Y-80296120D03*
%TO.P,Rfb2,2*%
%TO.N,VCC*%
X208611472Y-83221120D03*
%TD*%
D54*
%TO.P,Y3,1,1_1*%
%TO.N,Net-(U6-XI)*%
X182580206Y-124789792D03*
%TO.P,Y3,2,G_2*%
%TO.N,GND*%
X180380206Y-124789792D03*
%TO.P,Y3,3,3_3*%
%TO.N,Net-(U6-XO)*%
X180380206Y-126489792D03*
%TO.P,Y3,4,G_4*%
%TO.N,GND*%
X182580206Y-126489792D03*
%TD*%
D55*
%TO.P,RSense1,1*%
%TO.N,Net-(Q1-S)*%
X220337896Y-74853152D03*
%TO.P,RSense1,2*%
%TO.N,GND*%
X217412896Y-74853152D03*
%TD*%
D49*
%TO.P,H3,1,1_1*%
%TO.N,GND*%
X153800000Y-62500000D03*
D50*
X153800000Y-62500000D03*
%TD*%
D36*
%TO.P,C7,1*%
%TO.N,+12V*%
X199477295Y-65841042D03*
%TO.P,C7,2*%
%TO.N,GND*%
X199477295Y-64291042D03*
%TD*%
D56*
%TO.P,C79,1*%
%TO.N,GND*%
X193422611Y-127170339D03*
%TO.P,C79,2*%
%TO.N,+3V3*%
X191522611Y-127170339D03*
%TD*%
D33*
%TO.P,C19,1*%
%TO.N,+3V3*%
X187925143Y-61671902D03*
%TO.P,C19,2*%
%TO.N,Net-(U4-VFB)*%
X187925143Y-63496902D03*
%TD*%
D57*
%TO.P,C11,1*%
%TO.N,+12V*%
X193021599Y-62389675D03*
%TO.P,C11,2*%
%TO.N,GND*%
X193021599Y-63939675D03*
%TD*%
D56*
%TO.P,Cfilt1,1*%
%TO.N,Net-(U1-I_{SEN})*%
X195701092Y-72410964D03*
%TO.P,Cfilt1,2*%
%TO.N,GND*%
X193801092Y-72410964D03*
%TD*%
D11*
%TO.P,R59,1*%
%TO.N,GND*%
X162946599Y-116392409D03*
%TO.P,R59,2*%
%TO.N,/mcu/GPIO4*%
X164596599Y-116392409D03*
%TD*%
%TO.P,R29,1*%
%TO.N,Net-(U2-QC)*%
X219908624Y-141110183D03*
%TO.P,R29,2*%
%TO.N,Net-(Q28-B)*%
X221558624Y-141110183D03*
%TD*%
D58*
%TO.P,J1,1,Pin_1_1*%
%TO.N,GND*%
X155895000Y-89275000D03*
%TO.P,J1,2,Pin_2_2*%
%TO.N,+12V*%
X155895000Y-94355000D03*
%TD*%
D10*
%TO.P,R54,1*%
%TO.N,Net-(Q11-B)*%
X221502611Y-133199441D03*
%TO.P,R54,2*%
%TO.N,Net-(Q10-C)*%
X221502611Y-131549441D03*
%TD*%
D59*
%TO.P,C1,1,+_1*%
%TO.N,+12V*%
X209123244Y-68272605D03*
%TO.P,C1,2,-_2*%
%TO.N,GND*%
X209123244Y-73272605D03*
%TD*%
D56*
%TO.P,Ccomp1,1*%
%TO.N,Net-(U1-COMP)*%
X199498561Y-72410964D03*
%TO.P,Ccomp1,2*%
%TO.N,GND*%
X197598561Y-72410964D03*
%TD*%
D60*
%TO.P,Q1,1,G_1*%
%TO.N,Net-(Q1-G)*%
X220639700Y-87392448D03*
D61*
%TO.P,Q1,2,D_2*%
%TO.N,Net-(D1-A)*%
X214389700Y-85092448D03*
D60*
%TO.P,Q1,3,S_3*%
%TO.N,Net-(Q1-S)*%
X220639700Y-82792448D03*
%TD*%
D62*
%TO.P,U2,1,QB_1*%
%TO.N,Net-(U2-QB)*%
X209135966Y-144798191D03*
%TO.P,U2,2,QC_2*%
%TO.N,Net-(U2-QC)*%
X210405966Y-144798191D03*
%TO.P,U2,3,QD_3*%
%TO.N,Net-(U2-QD)*%
X211675966Y-144798191D03*
%TO.P,U2,4,QE_4*%
%TO.N,Net-(U2-QE)*%
X212945966Y-144798191D03*
%TO.P,U2,5,QF_5*%
%TO.N,Net-(U2-QF)*%
X214215966Y-144798191D03*
%TO.P,U2,6,QG_6*%
%TO.N,Net-(U2-QG)*%
X215485966Y-144798191D03*
%TO.P,U2,7,QH_7*%
%TO.N,Net-(U2-QH)*%
X216755966Y-144798191D03*
%TO.P,U2,8,GND_8*%
%TO.N,GND*%
X218025966Y-144798191D03*
%TO.P,U2,9,QH'_9*%
%TO.N,Net-(U2-QH')*%
X218025966Y-139848191D03*
%TO.P,U2,10,~{SRCLR}_10*%
%TO.N,+3V3*%
X216755966Y-139848191D03*
%TO.P,U2,11,SRCLK_11*%
%TO.N,/mcu/SCLK*%
X215485966Y-139848191D03*
%TO.P,U2,12,RCLK_12*%
%TO.N,/mcu/CS*%
X214215966Y-139848191D03*
%TO.P,U2,13,~{OE}_13*%
%TO.N,GND*%
X212945966Y-139848191D03*
%TO.P,U2,14,SER_14*%
%TO.N,/mcu/MOSI*%
X211675966Y-139848191D03*
%TO.P,U2,15,QA_15*%
%TO.N,Net-(U2-QA)*%
X210405966Y-139848191D03*
%TO.P,U2,16,VCC_16*%
%TO.N,+3V3*%
X209135966Y-139848191D03*
%TD*%
D49*
%TO.P,H4,1,1_1*%
%TO.N,GND*%
X153800000Y-152200000D03*
D50*
X153800000Y-152200000D03*
%TD*%
D11*
%TO.P,R49,1*%
%TO.N,Net-(Q7-B)*%
X199782042Y-118674050D03*
%TO.P,R49,2*%
%TO.N,Net-(Q9-C)*%
X201432042Y-118674050D03*
%TD*%
D30*
%TO.P,SW3,A,A_A*%
%TO.N,Net-(Q8-C)*%
X176526977Y-144639932D03*
%TO.P,SW3,B,B_B*%
X176526977Y-153639930D03*
%TO.P,SW3,C,C_C*%
%TO.N,GND*%
X172026975Y-144639932D03*
%TO.P,SW3,D,D_D*%
X172026975Y-153639930D03*
%TD*%
D43*
%TO.P,R48,1*%
%TO.N,Net-(Q9-B)*%
X174090270Y-111829128D03*
%TO.P,R48,2*%
%TO.N,/mcu/GPIO1*%
X172440270Y-111829128D03*
%TD*%
%TO.P,R68,1*%
%TO.N,Net-(Q18-B)*%
X222705000Y-70160000D03*
%TO.P,R68,2*%
%TO.N,/mcu/GPIO6*%
X221055000Y-70160000D03*
%TD*%
D34*
%TO.P,R51,1*%
%TO.N,GND*%
X207831725Y-125465066D03*
%TO.P,R51,2*%
%TO.N,/mcu/GPIO2*%
X207831725Y-127115066D03*
%TD*%
D63*
%TO.P,N5,0,0_0*%
%TO.N,/nixi_driver/DIG-10*%
X229382780Y-102089060D03*
%TO.P,N5,1,1_1*%
%TO.N,/nixi_driver/DIG-1*%
X229382780Y-98604180D03*
%TO.P,N5,2,2_2*%
%TO.N,/nixi_driver/DIG-2*%
X235514340Y-102835820D03*
%TO.P,N5,3,3_3*%
%TO.N,/nixi_driver/DIG-3*%
X232252980Y-96620440D03*
%TO.P,N5,4,4_4*%
%TO.N,/nixi_driver/DIG-4*%
X235514340Y-97857420D03*
%TO.P,N5,5,5_5*%
%TO.N,/nixi_driver/DIG-5*%
X236350000Y-99450000D03*
%TO.P,N5,6,6_6*%
%TO.N,/nixi_driver/DIG-6*%
X236350000Y-101243240D03*
%TO.P,N5,7,7_7*%
%TO.N,/nixi_driver/DIG-7*%
X230574040Y-97257980D03*
%TO.P,N5,8,8_8*%
%TO.N,/nixi_driver/DIG-8*%
X232252980Y-104072800D03*
%TO.P,N5,9,9_9*%
%TO.N,/nixi_driver/DIG-9*%
X230574040Y-103435260D03*
%TO.P,N5,A,A_A*%
%TO.N,Net-(Br10-Pad1)*%
X228950980Y-100346620D03*
%TO.P,N5,LHDP,LHDP_LHDP*%
%TO.N,unconnected-(N5-PadLHDP)*%
X234036060Y-103856900D03*
%TO.P,N5,RHDP,RHDP_RHDP*%
%TO.N,/nixi_driver/RHDP-2*%
X234036060Y-96836340D03*
%TD*%
%TO.P,N4,0,0_0*%
%TO.N,/nixi_driver/DIG-10*%
X229373540Y-70278260D03*
%TO.P,N4,1,1_1*%
%TO.N,/nixi_driver/DIG-1*%
X229373540Y-66793380D03*
%TO.P,N4,2,2_2*%
%TO.N,/nixi_driver/DIG-2*%
X235505100Y-71025020D03*
%TO.P,N4,3,3_3*%
%TO.N,/nixi_driver/DIG-3*%
X232243740Y-64809640D03*
%TO.P,N4,4,4_4*%
%TO.N,/nixi_driver/DIG-4*%
X235505100Y-66046620D03*
%TO.P,N4,5,5_5*%
%TO.N,/nixi_driver/DIG-5*%
X236340760Y-67639200D03*
%TO.P,N4,6,6_6*%
%TO.N,/nixi_driver/DIG-6*%
X236340760Y-69432440D03*
%TO.P,N4,7,7_7*%
%TO.N,/nixi_driver/DIG-7*%
X230564800Y-65447180D03*
%TO.P,N4,8,8_8*%
%TO.N,/nixi_driver/DIG-8*%
X232243740Y-72262000D03*
%TO.P,N4,9,9_9*%
%TO.N,/nixi_driver/DIG-9*%
X230564800Y-71624460D03*
%TO.P,N4,A,A_A*%
%TO.N,Net-(Br12-Pad1)*%
X228941740Y-68535820D03*
%TO.P,N4,LHDP,LHDP_LHDP*%
%TO.N,unconnected-(N4-PadLHDP)*%
X234026820Y-72046100D03*
%TO.P,N4,RHDP,RHDP_RHDP*%
%TO.N,unconnected-(N4-PadRHDP)*%
X234026820Y-65025540D03*
%TD*%
%TO.P,N6,0,0_0*%
%TO.N,/nixi_driver/DIG-10*%
X229301820Y-86199340D03*
%TO.P,N6,1,1_1*%
%TO.N,/nixi_driver/DIG-1*%
X229301820Y-82714460D03*
%TO.P,N6,2,2_2*%
%TO.N,/nixi_driver/DIG-2*%
X235433380Y-86946100D03*
%TO.P,N6,3,3_3*%
%TO.N,/nixi_driver/DIG-3*%
X232172020Y-80730720D03*
%TO.P,N6,4,4_4*%
%TO.N,/nixi_driver/DIG-4*%
X235433380Y-81967700D03*
%TO.P,N6,5,5_5*%
%TO.N,/nixi_driver/DIG-5*%
X236269040Y-83560280D03*
%TO.P,N6,6,6_6*%
%TO.N,/nixi_driver/DIG-6*%
X236269040Y-85353520D03*
%TO.P,N6,7,7_7*%
%TO.N,/nixi_driver/DIG-7*%
X230493080Y-81368260D03*
%TO.P,N6,8,8_8*%
%TO.N,/nixi_driver/DIG-8*%
X232172020Y-88183080D03*
%TO.P,N6,9,9_9*%
%TO.N,/nixi_driver/DIG-9*%
X230493080Y-87545540D03*
%TO.P,N6,A,A_A*%
%TO.N,Net-(Br11-Pad1)*%
X228870020Y-84456900D03*
%TO.P,N6,LHDP,LHDP_LHDP*%
%TO.N,unconnected-(N6-PadLHDP)*%
X233955100Y-87967180D03*
%TO.P,N6,RHDP,RHDP_RHDP*%
%TO.N,unconnected-(N6-PadRHDP)*%
X233955100Y-80946620D03*
%TD*%
%TO.P,N1,0,0_0*%
%TO.N,/nixi_driver/DIG-10*%
X229332780Y-149389060D03*
%TO.P,N1,1,1_1*%
%TO.N,/nixi_driver/DIG-1*%
X229332780Y-145904180D03*
%TO.P,N1,2,2_2*%
%TO.N,/nixi_driver/DIG-2*%
X235464340Y-150135820D03*
%TO.P,N1,3,3_3*%
%TO.N,/nixi_driver/DIG-3*%
X232202980Y-143920440D03*
%TO.P,N1,4,4_4*%
%TO.N,/nixi_driver/DIG-4*%
X235464340Y-145157420D03*
%TO.P,N1,5,5_5*%
%TO.N,/nixi_driver/DIG-5*%
X236300000Y-146750000D03*
%TO.P,N1,6,6_6*%
%TO.N,/nixi_driver/DIG-6*%
X236300000Y-148543240D03*
%TO.P,N1,7,7_7*%
%TO.N,/nixi_driver/DIG-7*%
X230524040Y-144557980D03*
%TO.P,N1,8,8_8*%
%TO.N,/nixi_driver/DIG-8*%
X232202980Y-151372800D03*
%TO.P,N1,9,9_9*%
%TO.N,/nixi_driver/DIG-9*%
X230524040Y-150735260D03*
%TO.P,N1,A,A_A*%
%TO.N,Net-(Br7-Pad1)*%
X228900980Y-147646620D03*
%TO.P,N1,LHDP,LHDP_LHDP*%
%TO.N,unconnected-(N1-PadLHDP)*%
X233986060Y-151156900D03*
%TO.P,N1,RHDP,RHDP_RHDP*%
%TO.N,unconnected-(N1-PadRHDP)*%
X233986060Y-144136340D03*
%TD*%
%TO.P,N3,0,0_0*%
%TO.N,/nixi_driver/DIG-10*%
X229332780Y-117839060D03*
%TO.P,N3,1,1_1*%
%TO.N,/nixi_driver/DIG-1*%
X229332780Y-114354180D03*
%TO.P,N3,2,2_2*%
%TO.N,/nixi_driver/DIG-2*%
X235464340Y-118585820D03*
%TO.P,N3,3,3_3*%
%TO.N,/nixi_driver/DIG-3*%
X232202980Y-112370440D03*
%TO.P,N3,4,4_4*%
%TO.N,/nixi_driver/DIG-4*%
X235464340Y-113607420D03*
%TO.P,N3,5,5_5*%
%TO.N,/nixi_driver/DIG-5*%
X236300000Y-115200000D03*
%TO.P,N3,6,6_6*%
%TO.N,/nixi_driver/DIG-6*%
X236300000Y-116993240D03*
%TO.P,N3,7,7_7*%
%TO.N,/nixi_driver/DIG-7*%
X230524040Y-113007980D03*
%TO.P,N3,8,8_8*%
%TO.N,/nixi_driver/DIG-8*%
X232202980Y-119822800D03*
%TO.P,N3,9,9_9*%
%TO.N,/nixi_driver/DIG-9*%
X230524040Y-119185260D03*
%TO.P,N3,A,A_A*%
%TO.N,Net-(Br9-Pad1)*%
X228900980Y-116096620D03*
%TO.P,N3,LHDP,LHDP_LHDP*%
%TO.N,unconnected-(N3-PadLHDP)*%
X233986060Y-119606900D03*
%TO.P,N3,RHDP,RHDP_RHDP*%
%TO.N,unconnected-(N3-PadRHDP)*%
X233986060Y-112586340D03*
%TD*%
%TO.P,N2,0,0_0*%
%TO.N,/nixi_driver/DIG-10*%
X229332780Y-133589060D03*
%TO.P,N2,1,1_1*%
%TO.N,/nixi_driver/DIG-1*%
X229332780Y-130104180D03*
%TO.P,N2,2,2_2*%
%TO.N,/nixi_driver/DIG-2*%
X235464340Y-134335820D03*
%TO.P,N2,3,3_3*%
%TO.N,/nixi_driver/DIG-3*%
X232202980Y-128120440D03*
%TO.P,N2,4,4_4*%
%TO.N,/nixi_driver/DIG-4*%
X235464340Y-129357420D03*
%TO.P,N2,5,5_5*%
%TO.N,/nixi_driver/DIG-5*%
X236300000Y-130950000D03*
%TO.P,N2,6,6_6*%
%TO.N,/nixi_driver/DIG-6*%
X236300000Y-132743240D03*
%TO.P,N2,7,7_7*%
%TO.N,/nixi_driver/DIG-7*%
X230524040Y-128757980D03*
%TO.P,N2,8,8_8*%
%TO.N,/nixi_driver/DIG-8*%
X232202980Y-135572800D03*
%TO.P,N2,9,9_9*%
%TO.N,/nixi_driver/DIG-9*%
X230524040Y-134935260D03*
%TO.P,N2,A,A_A*%
%TO.N,Net-(Br8-Pad1)*%
X228900980Y-131846620D03*
%TO.P,N2,LHDP,LHDP_LHDP*%
%TO.N,unconnected-(N2-PadLHDP)*%
X233986060Y-135356900D03*
%TO.P,N2,RHDP,RHDP_RHDP*%
%TO.N,/nixi_driver/RHDP-1*%
X233986060Y-128336340D03*
%TD*%
D64*
%TO.N,+3V3*%
X185300000Y-69660000D03*
D65*
%TO.N,Net-(U4-VFB)*%
X183366815Y-63717357D03*
X186943311Y-63558255D03*
X186521655Y-64503710D03*
%TO.N,Net-(U5-QD)*%
X202938903Y-136984954D03*
X210862616Y-92503923D03*
%TO.N,VCC*%
X186415758Y-84483261D03*
X200807553Y-88987619D03*
%TO.N,GND*%
X171162816Y-106125845D03*
X201888608Y-136257074D03*
X209550520Y-66238212D03*
X217946862Y-88399611D03*
X215258185Y-152673720D03*
X192339224Y-94147279D03*
X217790000Y-70990000D03*
X159129038Y-139286798D03*
X219979789Y-109388751D03*
X209646319Y-138106190D03*
X188339013Y-140321942D03*
X237614126Y-100666078D03*
X214908635Y-127482156D03*
X196564551Y-127410911D03*
X223754770Y-59262156D03*
X214092341Y-147321306D03*
X174209782Y-127326119D03*
X228029335Y-72079577D03*
X192722205Y-154612436D03*
X215440877Y-135782406D03*
X202438921Y-73854838D03*
X196670954Y-150045041D03*
X237537150Y-82272972D03*
X161062154Y-105110967D03*
X170627860Y-107788454D03*
X219198761Y-145415691D03*
X188834785Y-102172280D03*
X205681789Y-140014949D03*
X199652546Y-147664003D03*
X157554842Y-147753043D03*
X157808514Y-106085185D03*
X227486211Y-135113626D03*
X181350262Y-77476485D03*
X189754517Y-130456684D03*
X204791208Y-84386140D03*
X237568127Y-119564447D03*
X159130737Y-114991938D03*
X221692611Y-118538170D03*
X214460414Y-125904803D03*
X186870421Y-70233683D03*
X172034819Y-127877137D03*
X184467110Y-61221618D03*
X204526490Y-106286345D03*
X206910907Y-146291677D03*
X176355977Y-65569519D03*
X157826635Y-99500836D03*
X219237971Y-110683950D03*
X213879847Y-92468897D03*
X237615135Y-72834165D03*
X200830294Y-145090204D03*
X174649791Y-119916145D03*
X199660269Y-117118600D03*
X197623841Y-145781291D03*
X210228719Y-131973000D03*
X199461998Y-65036097D03*
X173848933Y-151224050D03*
X237561963Y-147521380D03*
X198390788Y-72427894D03*
X196813614Y-64512328D03*
X190990838Y-64573826D03*
X194032218Y-131371403D03*
X207128612Y-62775372D03*
X237623803Y-110119231D03*
X230185914Y-126777105D03*
X165035743Y-145373385D03*
X179927804Y-135017905D03*
X190206378Y-117118600D03*
X196578853Y-69239827D03*
X184675337Y-150092400D03*
X157113210Y-126865096D03*
X200263213Y-100708542D03*
X218632566Y-144944616D03*
X211127296Y-152665506D03*
X182149875Y-108857190D03*
X225288122Y-155487844D03*
X218488084Y-137079768D03*
X181424685Y-124099524D03*
X162243053Y-116392409D03*
X194211057Y-127293872D03*
X162014905Y-113289080D03*
X210846224Y-77135886D03*
X192339224Y-81023864D03*
X211866558Y-134899363D03*
X201512689Y-64701799D03*
X228040539Y-83295301D03*
X183220332Y-59262156D03*
X184078810Y-64811390D03*
X219004727Y-125282839D03*
X200629921Y-88427934D03*
X209341339Y-154742622D03*
X226968724Y-103033093D03*
X225911152Y-145740393D03*
X210122862Y-84596707D03*
X178082737Y-124717514D03*
X166469421Y-96788147D03*
X159766174Y-78814963D03*
X168222774Y-146028078D03*
X150562156Y-107605516D03*
X178947855Y-134971465D03*
X212339263Y-139454976D03*
X157611167Y-124930213D03*
X215653222Y-76671660D03*
X172112608Y-152848186D03*
X175333738Y-88628046D03*
X207957377Y-124771693D03*
X156614393Y-155487844D03*
X197926429Y-69617184D03*
X182562826Y-127390469D03*
X167256960Y-136419378D03*
X171737247Y-103160169D03*
X150562156Y-80392701D03*
X166052853Y-91211193D03*
X161653983Y-144675809D03*
X156985357Y-140229055D03*
X171247369Y-144530046D03*
X173732121Y-118294258D03*
X178577217Y-130325780D03*
X208042807Y-73027937D03*
X186949418Y-136761042D03*
X164158532Y-110606493D03*
X200466636Y-63703842D03*
X210522543Y-106302927D03*
X193488356Y-134652733D03*
X193738457Y-73418004D03*
X211061701Y-115050560D03*
X194430000Y-65820000D03*
X203592940Y-69334284D03*
X150562156Y-70938809D03*
X173154331Y-90103236D03*
X180455554Y-123877522D03*
X159903346Y-145425752D03*
X170541116Y-78980932D03*
X157242336Y-87223447D03*
X210045555Y-116559519D03*
X216543212Y-74820212D03*
X203503588Y-125256472D03*
X151579443Y-97595607D03*
X167940097Y-59262156D03*
X230590550Y-92235492D03*
X188203060Y-78585249D03*
X171796011Y-137147322D03*
X203972016Y-73090794D03*
X208375828Y-151203078D03*
X211486717Y-92883142D03*
X210865550Y-135737596D03*
X192626562Y-60689597D03*
X237566446Y-138067715D03*
X217298081Y-148086909D03*
X183470533Y-62146298D03*
X193865663Y-63585506D03*
X150562156Y-59262156D03*
%TO.N,Net-(Q12-B)*%
X207309281Y-115256893D03*
X183087345Y-116417960D03*
%TO.N,Net-(Q12-C)*%
X211303688Y-113114089D03*
X213161513Y-116813236D03*
%TO.N,Net-(Q8-C)*%
X175723194Y-144743153D03*
X160002799Y-142430391D03*
%TO.N,/mcu/GPIO6*%
X185218742Y-116238174D03*
X224007040Y-71987830D03*
%TO.N,/mcu/SCLK*%
X204380139Y-141994223D03*
X173052180Y-142430194D03*
%TO.N,Net-(U7-IO12)*%
X185638289Y-141431990D03*
X179548430Y-141204196D03*
%TO.N,/mcu/MOSI*%
X211034212Y-139596035D03*
X176316440Y-137113344D03*
%TO.N,/mcu/CS*%
X176272075Y-128298139D03*
X202447357Y-138637345D03*
X207031136Y-140652490D03*
X213631628Y-139848000D03*
%TO.N,/mcu/GPIO0*%
X178650000Y-143349224D03*
X170246806Y-127013453D03*
%TO.N,/mcu/GPIO2*%
X166569400Y-122869673D03*
X203879295Y-126911250D03*
%TO.N,/mcu/TX_OUT*%
X164277179Y-125217257D03*
X187930596Y-129200500D03*
%TO.N,/mcu/RX_IN*%
X161189385Y-124930693D03*
X186555940Y-128286165D03*
%TO.N,+12V*%
X186026037Y-64706007D03*
%TO.N,Net-(Q13-B)*%
X211976265Y-113702788D03*
X212736238Y-113172285D03*
%TO.N,Net-(U2-QB)*%
X203659095Y-152463660D03*
X210027292Y-146792551D03*
%TO.N,Net-(Br9-Pad1)*%
X217086002Y-116872324D03*
%TO.N,Net-(Q13-C)*%
X215670765Y-114488922D03*
X214324922Y-115929091D03*
%TO.N,Net-(Q30-B)*%
X212150858Y-151322352D03*
X212832055Y-149898917D03*
%TO.N,Net-(Q14-B)*%
X170737275Y-115527249D03*
X187889141Y-113297361D03*
X216736391Y-109691577D03*
X209660478Y-110704317D03*
%TO.N,Net-(Q14-C)*%
X213531058Y-105690847D03*
X215542282Y-106542586D03*
%TO.N,Net-(U4-SW)*%
X183937227Y-65944613D03*
X186798480Y-65852862D03*
%TO.N,Net-(U4-VBST)*%
X191268393Y-62981316D03*
X183545811Y-67651072D03*
%TO.N,Net-(J6-D--PadA7)*%
X185906250Y-123143857D03*
X160068293Y-106078479D03*
%TO.N,Net-(Br12-Pad1)*%
X191054758Y-77373776D03*
%TO.N,Net-(U2-QG)*%
X215447549Y-146054337D03*
X217730691Y-150750788D03*
%TO.N,/nixi_driver/DIG-6*%
X194597868Y-151037089D03*
X236518029Y-122216118D03*
%TO.N,Net-(Q19-B)*%
X185701143Y-75508938D03*
X184695590Y-81759276D03*
%TO.N,Net-(Q10-B)*%
X211707770Y-128287103D03*
X221553343Y-126301483D03*
%TO.N,/nixi_driver/DIG-9*%
X231299900Y-133838371D03*
X217443569Y-125610382D03*
X229983714Y-90610026D03*
X234046128Y-149135632D03*
%TO.N,Net-(U1-FA{slash}SD)*%
X208881600Y-62775091D03*
X202465229Y-67014763D03*
%TO.N,Net-(Q11-C)*%
X219263915Y-128731219D03*
X222639466Y-132077370D03*
%TO.N,Net-(U5-QB)*%
X201897534Y-134285387D03*
X201987950Y-135536890D03*
%TO.N,Net-(U5-QC)*%
X209151739Y-136547505D03*
X203699663Y-136577120D03*
%TO.N,Net-(U2-QH')*%
X218025966Y-138585878D03*
X206981974Y-138222753D03*
%TO.N,Net-(U5-QA)*%
X205682000Y-136221425D03*
X210298449Y-127409654D03*
%TO.N,Net-(Q15-B)*%
X215868343Y-104979818D03*
X215111600Y-105611437D03*
%TO.N,/mcu/UART/DTR*%
X183640076Y-139170214D03*
X182293726Y-141502758D03*
%TO.N,Net-(J6-D+-PadA6)*%
X186511336Y-122773273D03*
X164961320Y-111857141D03*
%TO.N,Net-(Q10-C)*%
X222283380Y-131338600D03*
X222126263Y-129654824D03*
%TO.N,/mcu/UART/RTS*%
X185691140Y-138811881D03*
X186716234Y-142888745D03*
%TO.N,Net-(Q11-B)*%
X220736053Y-133138199D03*
X218010706Y-131599043D03*
%TO.N,/nixi_driver/DIG-8*%
X226245769Y-148786583D03*
X223427725Y-147355441D03*
%TO.N,Net-(U2-QH)*%
X218450776Y-147176383D03*
X216257661Y-145973065D03*
%TO.N,Net-(Q29-B)*%
X207676960Y-151172380D03*
X208603211Y-148082021D03*
%TO.N,/nixi_driver/DIG-4*%
X209183685Y-149297316D03*
%TO.N,Net-(Q9-B)*%
X178880529Y-114604201D03*
X200430343Y-124966799D03*
%TO.N,Net-(U1-COMP)*%
X202283542Y-71229976D03*
X205173565Y-65582392D03*
%TO.N,Net-(Br7-Pad1)*%
X206837230Y-121427317D03*
X226459483Y-145530314D03*
%TO.N,Net-(Q18-B)*%
X188228896Y-80525907D03*
X222705000Y-71230000D03*
%TO.N,Net-(Q7-B)*%
X199077459Y-118737630D03*
X199643580Y-120659332D03*
%TO.N,/nixi_driver/DIG-5*%
X237288736Y-93906175D03*
X214045736Y-152249300D03*
%TO.N,/nixi_driver/DIG-10*%
X231024980Y-148211443D03*
%TO.N,Net-(Br11-Pad1)*%
X219631835Y-79150170D03*
X191463708Y-84876207D03*
%TO.N,/nixi_driver/DIG-1*%
X229311722Y-125549671D03*
X218879869Y-135130272D03*
%TO.N,/nixi_driver/DIG-7*%
X231160024Y-92370234D03*
X230409339Y-142858576D03*
X217617989Y-150313810D03*
%TD*%
%TO.N,+3V3*%
D66*
X206657748Y-135617644D02*
X207088749Y-135617644D01*
X204274829Y-135617644D02*
X203680232Y-135023047D01*
X191824485Y-101185515D02*
X191824485Y-72829440D01*
X208263998Y-137970566D02*
X208774939Y-137970566D01*
X160561907Y-143143814D02*
X160862309Y-142843412D01*
X185037500Y-61537000D02*
X185365254Y-61209246D01*
X205681789Y-143237644D02*
X206657748Y-143237644D01*
X187150000Y-115580000D02*
X187150000Y-105860000D01*
X205681789Y-135617644D02*
X204705830Y-135617644D01*
X189477043Y-69149297D02*
X192710703Y-69149297D01*
X185974700Y-130176493D02*
X185974700Y-129200534D01*
X204705830Y-135617644D02*
X204274829Y-135617644D01*
X185974700Y-130543870D02*
X185974700Y-130176493D01*
X191824485Y-72829440D02*
X189477043Y-70481998D01*
X191591811Y-134150534D02*
X190085652Y-134150534D01*
X189784700Y-134150534D02*
X189784700Y-133174575D01*
X208186472Y-136831020D02*
X208186472Y-137307448D01*
X189784700Y-132743574D02*
X187983523Y-130942398D01*
X191522611Y-119952611D02*
X187150000Y-115580000D01*
D67*
X185810703Y-69149297D02*
X186798142Y-69149297D01*
D66*
X159939991Y-143753464D02*
X158681732Y-143753464D01*
X192970417Y-135023047D02*
X192613550Y-134666180D01*
X203680232Y-135023047D02*
X192970417Y-135023047D01*
X209135966Y-138441231D02*
X209135966Y-138872232D01*
X212105622Y-137332448D02*
X211629194Y-137332448D01*
X159349116Y-142765984D02*
X159859940Y-142765984D01*
X207088749Y-135617644D02*
X207404097Y-135617644D01*
X189784700Y-133174575D02*
X189784700Y-132743574D01*
X189784700Y-135126493D02*
X189784700Y-134150534D01*
X158750000Y-142150000D02*
X158750000Y-142166868D01*
X177293699Y-142843412D02*
X177902101Y-142235010D01*
X208774939Y-137970566D02*
X209135966Y-138331593D01*
X189127088Y-136659465D02*
X189127088Y-136215106D01*
X207404097Y-135617644D02*
X208186472Y-136400019D01*
X209135966Y-139173184D02*
X209135966Y-139848191D01*
X180875741Y-142235010D02*
X182581410Y-140529341D01*
X187983523Y-130942398D02*
X186373228Y-130942398D01*
X207098800Y-143227593D02*
X207098800Y-143220235D01*
X209135966Y-138872232D02*
X209135966Y-139848191D01*
X159958624Y-142864667D02*
X159958624Y-143295668D01*
X185806409Y-66687988D02*
X185539434Y-66687988D01*
X186373228Y-130942398D02*
X185974700Y-130543870D01*
X190085652Y-134150534D02*
X189784700Y-134150534D01*
X208186472Y-136400019D02*
X208186472Y-136831020D01*
X159958624Y-143295668D02*
X159958624Y-143772097D01*
X186798142Y-69149297D02*
X189477043Y-69149297D01*
X158750000Y-141400000D02*
X158750000Y-142150000D01*
X193271599Y-68588401D02*
X193271599Y-67697409D01*
X213189381Y-138219473D02*
X212302356Y-137332448D01*
X216755966Y-139848191D02*
X216755966Y-138872232D01*
X185806409Y-67412136D02*
X185806409Y-67010866D01*
X208186472Y-137783877D02*
X208186472Y-137893040D01*
X187150000Y-105860000D02*
X191824485Y-101185515D01*
X185806409Y-67412136D02*
X185806409Y-67488179D01*
X186389120Y-68070890D02*
X186389120Y-68740275D01*
X208186472Y-137307448D02*
X208186472Y-137783877D01*
X159859940Y-142765984D02*
X159958624Y-142864667D01*
X192613550Y-134666180D02*
X191857358Y-133909988D01*
X209135966Y-140824150D02*
X209135966Y-139848191D01*
X185037500Y-66186054D02*
X185037500Y-61537000D01*
X187223554Y-61671902D02*
X187925143Y-61671902D01*
X185257212Y-140529341D02*
X189127088Y-136659465D01*
X191977358Y-132465211D02*
X191977358Y-131563620D01*
X192710703Y-69149297D02*
X193271599Y-68588401D01*
X191522611Y-127896928D02*
X191522611Y-127170339D01*
X206657748Y-143237644D02*
X207088749Y-143237644D01*
X159958624Y-143772097D02*
X159939991Y-143753464D01*
X159958624Y-143747097D02*
X160561907Y-143143814D01*
X159958624Y-143772097D02*
X159958624Y-143747097D01*
X191857358Y-133884987D02*
X191977358Y-133764987D01*
X209741682Y-138567468D02*
X209135966Y-139173184D01*
X185806409Y-67010866D02*
X185806409Y-66687988D01*
X186389120Y-68740275D02*
X186798142Y-69149297D01*
X189784700Y-135557494D02*
X189784700Y-135126493D01*
X207098800Y-143220235D02*
X209135966Y-141183069D01*
X211629194Y-137332448D02*
X211152765Y-137332448D01*
X158750000Y-142166868D02*
X159349116Y-142765984D01*
X209135966Y-141183069D02*
X209135966Y-140824150D01*
X185365254Y-61209246D02*
X186329897Y-61209246D01*
X186329897Y-61209246D02*
X186792553Y-61671902D01*
X208186472Y-137893040D02*
X208263998Y-137970566D01*
X207088749Y-143237644D02*
X207098800Y-143227593D01*
X186792553Y-61671902D02*
X187223554Y-61671902D01*
X212302356Y-137332448D02*
X212105622Y-137332448D01*
X216534208Y-138219473D02*
X213189381Y-138219473D01*
X185539434Y-66687988D02*
X185037500Y-66186054D01*
X191857358Y-133884987D02*
X191591811Y-134150534D01*
X205681789Y-135617644D02*
X206657748Y-135617644D01*
X191857358Y-133909988D02*
X191857358Y-133884987D01*
X216755966Y-138441231D02*
X216534208Y-138219473D01*
X210976701Y-137332448D02*
X209741682Y-138567468D01*
X189477043Y-70481998D02*
X189477043Y-69149297D01*
X211152765Y-137332448D02*
X210976701Y-137332448D01*
X182581410Y-140529341D02*
X185257212Y-140529341D01*
X209135966Y-138331593D02*
X209135966Y-138441231D01*
X185806409Y-67488179D02*
X186389120Y-68070890D01*
X191522611Y-127170339D02*
X191522611Y-119952611D01*
X158681732Y-143753464D02*
X157955143Y-143753464D01*
X160862309Y-142843412D02*
X177293699Y-142843412D01*
X189127088Y-136215106D02*
X189784700Y-135557494D01*
X177902101Y-142235010D02*
X180875741Y-142235010D01*
X191522611Y-131108873D02*
X191522611Y-127896928D01*
D67*
X185300000Y-69660000D02*
X185810703Y-69149297D01*
D66*
X216755966Y-138872232D02*
X216755966Y-138441231D01*
X191977358Y-133764987D02*
X191977358Y-132465211D01*
X191977358Y-131563620D02*
X191522611Y-131108873D01*
%TO.N,Net-(U4-VFB)*%
D68*
X182864958Y-63609402D02*
X182388687Y-63609402D01*
X189935466Y-62679806D02*
X188069179Y-62679806D01*
X183366815Y-63717357D02*
X183258859Y-63609402D01*
X187223554Y-63496902D02*
X187925143Y-63496902D01*
X188069179Y-62679806D02*
X187925143Y-62823842D01*
X190263370Y-62351902D02*
X190263498Y-62182873D01*
X190263498Y-62182873D02*
X190263626Y-62013845D01*
X183258859Y-63609402D02*
X183167233Y-63609402D01*
X183167233Y-63609402D02*
X182864958Y-63609402D01*
X187064582Y-63496902D02*
X187223554Y-63496902D01*
X186943311Y-63558255D02*
X187004664Y-63496902D01*
X187925143Y-62823842D02*
X187925143Y-63496902D01*
X186518938Y-65124607D02*
X186521655Y-65121890D01*
X185806409Y-65762136D02*
X185881410Y-65762136D01*
X185881410Y-65762136D02*
X186518938Y-65124607D01*
X186521655Y-65121890D02*
X186521655Y-64503710D01*
X190263370Y-62351902D02*
X189935466Y-62679806D01*
X187004664Y-63496902D02*
X187064582Y-63496902D01*
%TO.N,Net-(U5-QD)*%
X202938903Y-137292455D02*
X202938903Y-136984954D01*
X211174447Y-90533816D02*
X211174447Y-91010086D01*
X211174447Y-91328284D02*
X211174447Y-92192092D01*
X211174447Y-91010086D02*
X211174447Y-91328284D01*
X200731789Y-138157644D02*
X201707748Y-138157644D01*
X202073714Y-138157644D02*
X202938903Y-137292455D01*
X211174447Y-92192092D02*
X210862616Y-92503923D01*
X201707748Y-138157644D02*
X202073714Y-138157644D01*
%TO.N,Net-(Q37-B)*%
X212843080Y-90515183D02*
X214191212Y-90515183D01*
X212824447Y-90533816D02*
X212843080Y-90515183D01*
X214191212Y-90515183D02*
X214929668Y-90515183D01*
%TO.N,VCC*%
D66*
X180052677Y-76961745D02*
X179751725Y-76961745D01*
X203938652Y-92775730D02*
X208869125Y-92775730D01*
X179751725Y-78131203D02*
X179751725Y-77700202D01*
X198358054Y-120282053D02*
X198358054Y-120719558D01*
X213790428Y-114209465D02*
X213673590Y-114092627D01*
X179751725Y-77700202D02*
X179751725Y-76961745D01*
X212768434Y-108173118D02*
X212768434Y-107742116D01*
X214673609Y-105249912D02*
X215413947Y-105249912D01*
X204856899Y-87016355D02*
X205071653Y-87016355D01*
X208611472Y-83785208D02*
X208611472Y-83221120D01*
X183899295Y-80445849D02*
X182066372Y-80445849D01*
X198963770Y-119676337D02*
X198358054Y-120282053D01*
X213790428Y-115152268D02*
X213790428Y-115421084D01*
X210794700Y-117152956D02*
X210393430Y-117152956D01*
X213790428Y-114851316D02*
X214528884Y-114851316D01*
X203767548Y-92631208D02*
X203767548Y-97766703D01*
X223077611Y-129225709D02*
X223077611Y-129701980D01*
X200299544Y-119407744D02*
X199232363Y-119407744D01*
X203780839Y-89267917D02*
X203780839Y-88999101D01*
X210393430Y-117152956D02*
X209962429Y-117152956D01*
X212768434Y-107340847D02*
X212768434Y-106939577D01*
X197698183Y-120719558D02*
X198057102Y-120719558D01*
X222542611Y-117253777D02*
X223077611Y-117788777D01*
X197369189Y-120719558D02*
X197698183Y-120719558D01*
X213790428Y-115421084D02*
X213599282Y-115612230D01*
X212292164Y-107340847D02*
X212768434Y-107340847D01*
X186132678Y-84449441D02*
X185731409Y-84449441D01*
X213673590Y-114092627D02*
X213068790Y-114092627D01*
X179751725Y-77459431D02*
X179751725Y-78374650D01*
X219926095Y-130580300D02*
X220357096Y-130580300D01*
X198057102Y-120719558D02*
X198358054Y-120719558D01*
X221692611Y-117253777D02*
X222542611Y-117253777D01*
X185551389Y-76961745D02*
X180052677Y-76961745D01*
X216878181Y-104077434D02*
X216994456Y-103961159D01*
X212359457Y-108582094D02*
X212768434Y-108173118D01*
X186381937Y-84449441D02*
X186347433Y-84449441D01*
X204819141Y-100068308D02*
X205015875Y-100068308D01*
X222497628Y-129922169D02*
X222497628Y-129701980D01*
X203780839Y-88999101D02*
X200811728Y-88999101D01*
X203780839Y-88092414D02*
X204856899Y-87016355D01*
X203767548Y-97766703D02*
X203767548Y-100068308D01*
X205015875Y-100068308D02*
X212288414Y-107340847D01*
X205071653Y-87016355D02*
X205973244Y-87016355D01*
X215531738Y-105367703D02*
X216142649Y-105367703D01*
X200498002Y-119209287D02*
X200299544Y-119407744D01*
X213599282Y-115612230D02*
X212393193Y-115612230D01*
X208869125Y-92775730D02*
X209445713Y-92775730D01*
X216142649Y-105367703D02*
X216878181Y-104632171D01*
X209962429Y-117152956D02*
X201317855Y-117152956D01*
X214528884Y-114851316D02*
X214959885Y-114851316D01*
X215413947Y-105249912D02*
X215531738Y-105367703D01*
X216994456Y-103961159D02*
X217425457Y-103961159D01*
X200498002Y-117972810D02*
X200498002Y-119209287D01*
X222676342Y-129701980D02*
X223077611Y-129701980D01*
X205973244Y-86008766D02*
X207181385Y-84800625D01*
X185731409Y-83973170D02*
X185731409Y-83650292D01*
X203780839Y-92617917D02*
X203938652Y-92775730D01*
X213790428Y-114550363D02*
X213790428Y-114209465D01*
X217425457Y-103961159D02*
X217726409Y-103961159D01*
X205973244Y-87016355D02*
X205973244Y-86439767D01*
X185541603Y-82088157D02*
X183899295Y-80445849D01*
X203767548Y-100068308D02*
X204819141Y-100068308D01*
X212393193Y-115612230D02*
X211660224Y-116345199D01*
X213790428Y-114851316D02*
X213790428Y-114550363D01*
X211660224Y-116345199D02*
X211660224Y-117011580D01*
X203780839Y-92617917D02*
X203767548Y-92631208D01*
X176644122Y-81482253D02*
X175932991Y-81482253D01*
X200811728Y-88999101D02*
X200807553Y-88994926D01*
X186347433Y-84449441D02*
X186132678Y-84449441D01*
X221261610Y-117253777D02*
X221692611Y-117253777D01*
X196919775Y-120270144D02*
X197369189Y-120719558D01*
X220357096Y-130580300D02*
X220474604Y-130462792D01*
X200807553Y-88994926D02*
X200807553Y-88987619D01*
X212934232Y-106450901D02*
X213472620Y-106450901D01*
X196915591Y-120270144D02*
X196919775Y-120270144D01*
X208027056Y-84800625D02*
X208611472Y-84216209D01*
X213790428Y-114851316D02*
X213790428Y-115152268D01*
X212768434Y-107742116D02*
X212768434Y-107340847D01*
X208611472Y-84216209D02*
X208611472Y-83785208D01*
X185541603Y-83460486D02*
X185541603Y-82088157D01*
X221957005Y-130462792D02*
X222497628Y-129922169D01*
X218859149Y-114851316D02*
X221261610Y-117253777D01*
X211195970Y-117152956D02*
X210794700Y-117152956D01*
X211660224Y-117011580D02*
X211518848Y-117152956D01*
X186415758Y-84483261D02*
X186381937Y-84449441D01*
X213068790Y-114092627D02*
X212359457Y-113383294D01*
X203780839Y-88999101D02*
X203780839Y-88092414D01*
X205973244Y-86439767D02*
X205973244Y-86008766D01*
X212288414Y-107340847D02*
X212292164Y-107340847D01*
X182066372Y-80445849D02*
X179751725Y-78131203D01*
X222497628Y-129701980D02*
X222676342Y-129701980D01*
X199232363Y-119407744D02*
X198963770Y-119676337D01*
X213472620Y-106450901D02*
X214673609Y-105249912D01*
X211518848Y-117152956D02*
X211195970Y-117152956D01*
X212768434Y-106616699D02*
X212934232Y-106450901D01*
X212768434Y-106939577D02*
X212768434Y-106616699D01*
X185689162Y-76823972D02*
X185551389Y-76961745D01*
X216878181Y-104632171D02*
X216878181Y-104077434D01*
X203780839Y-92617917D02*
X203780839Y-89267917D01*
X185731409Y-84449441D02*
X185731409Y-83973170D01*
X214959885Y-114851316D02*
X218859149Y-114851316D01*
X223077611Y-117788777D02*
X223077611Y-129225709D01*
X201317855Y-117152956D02*
X200498002Y-117972810D01*
X196439320Y-120270144D02*
X196915591Y-120270144D01*
X219625143Y-130580300D02*
X219926095Y-130580300D01*
X220474604Y-130462792D02*
X221957005Y-130462792D01*
X207181385Y-84800625D02*
X208027056Y-84800625D01*
X179751725Y-78374650D02*
X176644122Y-81482253D01*
X212359457Y-113383294D02*
X212359457Y-108582094D01*
X185731409Y-83650292D02*
X185541603Y-83460486D01*
%TO.N,Net-(D1-A)*%
D68*
X197932105Y-85380808D02*
X200632105Y-85380808D01*
X197932105Y-87196774D02*
X197932105Y-86830808D01*
X200998071Y-85380808D02*
X203983409Y-82395470D01*
X195930839Y-94903917D02*
X195930839Y-94103917D01*
X195930839Y-93737951D02*
X197932105Y-91736685D01*
X210773734Y-85092448D02*
X211139700Y-85092448D01*
X197932105Y-91736685D02*
X197932105Y-87196774D01*
X197932105Y-86830808D02*
X197932105Y-85380808D01*
X203983409Y-82395470D02*
X210333328Y-82395470D01*
X200632105Y-85380808D02*
X200998071Y-85380808D01*
X210333328Y-82395470D02*
X210620818Y-82682960D01*
X195930839Y-94103917D02*
X195930839Y-93737951D01*
X210620818Y-82682960D02*
X210620818Y-84939533D01*
X211139700Y-85092448D02*
X214389700Y-85092448D01*
X210620818Y-84939533D02*
X210773734Y-85092448D01*
%TO.N,Net-(Q27-B)*%
X202156789Y-147718972D02*
X202156789Y-148457428D01*
X202895016Y-150335376D02*
X202895016Y-150542116D01*
X202156789Y-148457428D02*
X202156789Y-148823395D01*
X202156789Y-148823395D02*
X202156789Y-149597148D01*
X202895016Y-150542116D02*
X202895016Y-150943386D01*
X202156789Y-149597148D02*
X202895016Y-150335376D01*
%TO.N,GND*%
X201512689Y-64701787D02*
X201626029Y-64588447D01*
X215309415Y-152957981D02*
X215309415Y-153258933D01*
X193656999Y-63939675D02*
X193865663Y-63731012D01*
X205973244Y-84386140D02*
X204791208Y-84386140D01*
X172026975Y-152933819D02*
X172112608Y-152848186D01*
X209123244Y-73027937D02*
X208042807Y-73027937D01*
X214163553Y-147338698D02*
X214109733Y-147338698D01*
X204526490Y-108868308D02*
X203767548Y-108868308D01*
X172026975Y-153001580D02*
X172026975Y-152933819D01*
X219322925Y-125282839D02*
X219004727Y-125282839D01*
X198390788Y-72427894D02*
X198373858Y-72410964D01*
X186949418Y-136761042D02*
X186991205Y-136719255D01*
X193865663Y-63731012D02*
X193865663Y-63585506D01*
X215447928Y-135501764D02*
X215447928Y-134763308D01*
X171737247Y-103160169D02*
X171739576Y-103157839D01*
X193924198Y-127170339D02*
X194083171Y-127170339D01*
X209948188Y-131964987D02*
X210186774Y-131964987D01*
X216673914Y-74853152D02*
X216848809Y-74853152D01*
X175240000Y-138360000D02*
X174490000Y-138360000D01*
X178841219Y-131203073D02*
X178841219Y-130701487D01*
X196534320Y-69150365D02*
X196534320Y-69195294D01*
X166052853Y-91211193D02*
X166098522Y-91256862D01*
X178765548Y-135857989D02*
X179605632Y-135017905D01*
X174339004Y-119721411D02*
X174533737Y-119916145D01*
X207831725Y-125063796D02*
X207831725Y-124904824D01*
X157480000Y-140284034D02*
X158477235Y-139286798D01*
X210186774Y-131964987D02*
X210220706Y-131964987D01*
X157955143Y-146155051D02*
X157955143Y-146521017D01*
X169002899Y-146226091D02*
X168507599Y-146226091D01*
X193738457Y-73418004D02*
X193801092Y-73355369D01*
X161846124Y-113569453D02*
X161846124Y-113394558D01*
X203441029Y-68911763D02*
X203441029Y-69070735D01*
X184262422Y-64613766D02*
X184262422Y-64391103D01*
X219237971Y-110683950D02*
X219245396Y-110676525D01*
X218632566Y-144944616D02*
X218632315Y-144944616D01*
X187922872Y-78726706D02*
X188113689Y-78726706D01*
X212339263Y-139454976D02*
X212945966Y-139454976D01*
X214549922Y-126639792D02*
X214549922Y-126940744D01*
X209736472Y-138016037D02*
X209646319Y-138106190D01*
X184262422Y-61346062D02*
X184262422Y-61536879D01*
X210946025Y-135782448D02*
X210910403Y-135782448D01*
X194144030Y-131563620D02*
X194032218Y-131451808D01*
X194206703Y-127293872D02*
X194211057Y-127293872D01*
X156785000Y-106100000D02*
X157147978Y-106100000D01*
X193407358Y-134361416D02*
X193407358Y-134504466D01*
X168222774Y-146100239D02*
X168222774Y-146028078D01*
X171262817Y-144530046D02*
X171372703Y-144639932D01*
X157955143Y-147352741D02*
X157554842Y-147753043D01*
X174339004Y-119054323D02*
X174339004Y-119530594D01*
X180380206Y-124013310D02*
X180380206Y-124188204D01*
X191007590Y-64557074D02*
X191007590Y-64545634D01*
X197933308Y-69624063D02*
X197926429Y-69617184D01*
X218485890Y-144798191D02*
X218326918Y-144798191D01*
X211132200Y-152670410D02*
X211132200Y-152687550D01*
X194941599Y-152007546D02*
X194941599Y-152277976D01*
X174533737Y-119916145D02*
X174649791Y-119916145D01*
X157147978Y-99600000D02*
X157510956Y-99600000D01*
X184089686Y-64800514D02*
X184089686Y-64786502D01*
X193498027Y-63939675D02*
X193656999Y-63939675D01*
X172026975Y-153639930D02*
X172026975Y-153144630D01*
X170921282Y-106266254D02*
X171061690Y-106125845D01*
X193407358Y-133884987D02*
X193407358Y-134361416D01*
X196670954Y-150045041D02*
X196670954Y-150278191D01*
X168348626Y-146226091D02*
X168222774Y-146100239D01*
X207109732Y-62756491D02*
X207128612Y-62775372D01*
X201626029Y-64397629D02*
X201626029Y-63896042D01*
X193801092Y-73355369D02*
X193801092Y-73296525D01*
X211123172Y-114989089D02*
X211061701Y-115050560D01*
X218522904Y-137044948D02*
X218488084Y-137079768D01*
X157955143Y-146521017D02*
X157955143Y-147352741D01*
X166146661Y-91256862D02*
X166337478Y-91256862D01*
X161846124Y-114271042D02*
X161846124Y-113569453D01*
X211127296Y-152665506D02*
X211132200Y-152670410D01*
X191007590Y-64545634D02*
X191263370Y-64289853D01*
X162545329Y-116392409D02*
X162243053Y-116392409D01*
X189784700Y-130176493D02*
X189784700Y-130335466D01*
X211132200Y-152687550D02*
X211132200Y-152957981D01*
X178081725Y-124728322D02*
X178081725Y-124998752D01*
X215309415Y-152767163D02*
X215309415Y-152957981D01*
X184078810Y-64811390D02*
X184089686Y-64800514D01*
X207831725Y-125465066D02*
X207831725Y-125063796D01*
X157510956Y-99600000D02*
X157511000Y-99600000D01*
X218626246Y-137044948D02*
X218522904Y-137044948D01*
X215440877Y-135782406D02*
X215447928Y-135775355D01*
X207109732Y-62494897D02*
X207109732Y-62701637D01*
X211349507Y-114989089D02*
X211174612Y-114989089D01*
X194927358Y-131563620D02*
X194350771Y-131563620D01*
X219507668Y-145273191D02*
X219348695Y-145273191D01*
X175333738Y-87609402D02*
X175333738Y-88628046D01*
X194350771Y-131563620D02*
X194144030Y-131563620D01*
X198100148Y-72410964D02*
X197598561Y-72410964D01*
X219348695Y-145273191D02*
X219206195Y-145415691D01*
X175574510Y-87609402D02*
X175333738Y-87609402D01*
X178081725Y-124998752D02*
X178081725Y-125500339D01*
X203441029Y-73090794D02*
X203972016Y-73090794D01*
X207109732Y-62701637D02*
X207109732Y-62756491D01*
X161951602Y-113289080D02*
X162014905Y-113289080D01*
X207831725Y-124904824D02*
X207957377Y-124779172D01*
X197102132Y-64291042D02*
X196943160Y-64291042D01*
X180455554Y-123877522D02*
X180380206Y-123952870D01*
X201626029Y-64588447D02*
X201626029Y-64397629D01*
X214386216Y-147338698D02*
X214163553Y-147338698D01*
X157480000Y-124650000D02*
X157480000Y-124793050D01*
X196534320Y-69195294D02*
X196578853Y-69239827D01*
X161508624Y-144248525D02*
X161508624Y-143772097D01*
X216848809Y-74853152D02*
X217412896Y-74853152D01*
X214908635Y-127474353D02*
X214908635Y-127482156D01*
X199477295Y-64742470D02*
X199477295Y-64291042D01*
X164247927Y-110650808D02*
X164438744Y-110650808D01*
X162946599Y-116392409D02*
X162545329Y-116392409D01*
X209736472Y-137942849D02*
X209736472Y-138016037D01*
X194157409Y-65797409D02*
X193271599Y-65797409D01*
X198373858Y-72410964D02*
X198322810Y-72410964D01*
X208548230Y-151495339D02*
X208375828Y-151322937D01*
X201512689Y-64701799D02*
X201512689Y-64701787D01*
X180380206Y-124188204D02*
X180380206Y-124789792D01*
X213933560Y-92415183D02*
X213879847Y-92468897D01*
X212395713Y-92775730D02*
X211819125Y-92775730D01*
X200830294Y-145081996D02*
X200731789Y-144983491D01*
X219245396Y-110642303D02*
X219245396Y-110403717D01*
X184262422Y-64391103D02*
X184262422Y-63914675D01*
X166098522Y-91256862D02*
X166146661Y-91256862D01*
X171739576Y-103157839D02*
X171752646Y-103157839D01*
X214549922Y-126940744D02*
X214549922Y-127115639D01*
X156785000Y-99600000D02*
X157147978Y-99600000D01*
X192498771Y-60492214D02*
X192339799Y-60492214D01*
X179605632Y-135017905D02*
X179927804Y-135017905D01*
X166337478Y-91256862D02*
X167039067Y-91256862D01*
X193407358Y-134504466D02*
X193407358Y-134571736D01*
X157480000Y-124793050D02*
X157611167Y-124924216D01*
X219245396Y-110676525D02*
X219245396Y-110642303D01*
X214687168Y-147338698D02*
X214386216Y-147338698D01*
X218326918Y-144798191D02*
X218025966Y-144798191D01*
X214109733Y-147338698D02*
X214092341Y-147321306D01*
X192626562Y-60620005D02*
X192498771Y-60492214D01*
X171372703Y-144639932D02*
X171531675Y-144639932D01*
X199707515Y-147718972D02*
X199749096Y-147718972D01*
X157147978Y-106100000D02*
X157510956Y-106100000D01*
X183135388Y-61959402D02*
X183283636Y-61959402D01*
X219245396Y-137044948D02*
X218944444Y-137044948D01*
X173008689Y-138360000D02*
X171796011Y-137147322D01*
X160002901Y-145730791D02*
X160002901Y-146226091D01*
X203441029Y-69182373D02*
X203592940Y-69334284D01*
X186991205Y-136719255D02*
X187111274Y-136719255D01*
X184262422Y-61536879D02*
X184262422Y-62013308D01*
X157480000Y-141400000D02*
X157480000Y-140650000D01*
X172038999Y-103157839D02*
X172515270Y-103157839D01*
X182864958Y-61959402D02*
X183135388Y-61959402D01*
X200830294Y-145090204D02*
X200830294Y-145081996D01*
X220246124Y-145273191D02*
X219507668Y-145273191D01*
X219245396Y-110403717D02*
X219245396Y-109665261D01*
X157955143Y-145653464D02*
X157955143Y-146155051D01*
X182580206Y-127373089D02*
X182562826Y-127390469D01*
X210833466Y-77148645D02*
X210846224Y-77135886D01*
X194180000Y-65820000D02*
X194157409Y-65797409D01*
X203441029Y-72323464D02*
X203441029Y-73090794D01*
X211152765Y-135782448D02*
X210946025Y-135782448D01*
X192339799Y-60492214D02*
X191888371Y-60492214D01*
X161508624Y-144530450D02*
X161508624Y-144423420D01*
X214549922Y-127115639D02*
X214908635Y-127474353D01*
D67*
X217795547Y-70995547D02*
X219231266Y-70995547D01*
D68*
X219623877Y-125282839D02*
X219322925Y-125282839D01*
X197933308Y-69648387D02*
X197933308Y-69624063D01*
X184089686Y-64786502D02*
X184262422Y-64613766D01*
X194941599Y-152277976D02*
X194941599Y-153016433D01*
X159903346Y-145425752D02*
X159903346Y-145440420D01*
X196534320Y-68057956D02*
X196534320Y-68959547D01*
X191263370Y-64289853D02*
X191263370Y-64114959D01*
X194430000Y-65820000D02*
X194180000Y-65820000D01*
X157511000Y-99600000D02*
X157826635Y-99500836D01*
X171752646Y-103157839D02*
X172038999Y-103157839D01*
X190990838Y-64573826D02*
X191007590Y-64557074D01*
X203217234Y-125256472D02*
X203503588Y-125256472D01*
X216576152Y-74853152D02*
X216673914Y-74853152D01*
X178081725Y-124718525D02*
X178081725Y-124728322D01*
X204526490Y-106286345D02*
X204526490Y-108868308D01*
X183283636Y-61959402D02*
X183470533Y-62146298D01*
X193422611Y-127170339D02*
X193924198Y-127170339D01*
X219206195Y-145415691D02*
X219198761Y-145415691D01*
X188113689Y-78726706D02*
X188203060Y-78637335D01*
X157784574Y-106085185D02*
X157808514Y-106085185D01*
X196813614Y-64420588D02*
X196813614Y-64512328D01*
X157774176Y-106074788D02*
X157784574Y-106085185D01*
X199955836Y-147718972D02*
X200256789Y-147718972D01*
X218632315Y-144944616D02*
X218485890Y-144798191D01*
X208992232Y-151495339D02*
X208691279Y-151495339D01*
X175240000Y-126930000D02*
X175240000Y-127326119D01*
X184386866Y-61221618D02*
X184262422Y-61346062D01*
X211676075Y-92775730D02*
X211594130Y-92775730D01*
X211650459Y-114989089D02*
X211349507Y-114989089D01*
X189784700Y-130335466D02*
X189784700Y-130426501D01*
X216543212Y-74820212D02*
X216576152Y-74853152D01*
X210833466Y-78145066D02*
X210833466Y-77443477D01*
X207957377Y-124779172D02*
X207957377Y-124771693D01*
X196670954Y-150278191D02*
X194941599Y-152007546D01*
X158477235Y-139286798D02*
X159129038Y-139286798D01*
X196943160Y-64291042D02*
X196813614Y-64420588D01*
X208691279Y-151495339D02*
X208548230Y-151495339D01*
X187184415Y-78726706D02*
X187922872Y-78726706D01*
X178841219Y-130701487D02*
X178841219Y-130478824D01*
X203441029Y-69070735D02*
X203441029Y-69182373D01*
X205973244Y-84066355D02*
X205973244Y-84386140D01*
X215258185Y-152673720D02*
X215309415Y-152724950D01*
X171247369Y-144530046D02*
X171262817Y-144530046D01*
X218944444Y-137044948D02*
X218626246Y-137044948D01*
X211132200Y-152957981D02*
X211132200Y-153258933D01*
X174490000Y-138360000D02*
X174124034Y-138360000D01*
X178765548Y-136719255D02*
X178765548Y-136223955D01*
X161846124Y-113394558D02*
X161951602Y-113289080D01*
X178765548Y-136223955D02*
X178765548Y-135857989D01*
X168507599Y-146226091D02*
X168348626Y-146226091D01*
X198322810Y-72410964D02*
X198100148Y-72410964D01*
X205681789Y-140014949D02*
X205681789Y-139728596D01*
X175240000Y-127326119D02*
X174209782Y-127326119D01*
X210833466Y-77188969D02*
X210833466Y-77148645D01*
X199461998Y-65036097D02*
X199477295Y-65020800D01*
X172026975Y-153144630D02*
X172026975Y-153001580D01*
X161653983Y-144675809D02*
X161508624Y-144530450D01*
X197578561Y-64291042D02*
X197102132Y-64291042D01*
X194032218Y-131451808D02*
X194032218Y-131371403D01*
X193021599Y-63939675D02*
X193498027Y-63939675D01*
X213984472Y-92415183D02*
X213933560Y-92415183D01*
X161508624Y-144423420D02*
X161508624Y-144248525D01*
X199652546Y-147664003D02*
X199707515Y-147718972D01*
X192626562Y-60689597D02*
X192626562Y-60620005D01*
D67*
X217790000Y-70990000D02*
X217795547Y-70995547D01*
D68*
X182580206Y-126489792D02*
X182580206Y-127091380D01*
X215447928Y-135775355D02*
X215447928Y-135740350D01*
X157510956Y-106100000D02*
X157511000Y-106100000D01*
X159903346Y-145440420D02*
X160002901Y-145539974D01*
X182580206Y-127314043D02*
X182580206Y-127373089D01*
X157611167Y-124924216D02*
X157611167Y-124930213D01*
X178082737Y-124717514D02*
X178081725Y-124718525D01*
X187270246Y-136719255D02*
X187765546Y-136719255D01*
X178688175Y-130325780D02*
X178577217Y-130325780D01*
X189784700Y-129200534D02*
X189784700Y-130176493D01*
X194083171Y-127170339D02*
X194206703Y-127293872D01*
X174124034Y-138360000D02*
X173008689Y-138360000D01*
X196534320Y-68959547D02*
X196534320Y-69150365D01*
X171531675Y-144639932D02*
X172026975Y-144639932D01*
X178841219Y-130478824D02*
X178688175Y-130325780D01*
X170921282Y-106409303D02*
X170921282Y-106266254D01*
X184467110Y-61221618D02*
X184386866Y-61221618D01*
X189784700Y-130426501D02*
X189754517Y-130456684D01*
X210910403Y-135782448D02*
X210865550Y-135737596D01*
X182388687Y-61959402D02*
X182864958Y-61959402D01*
X211174612Y-114989089D02*
X211123172Y-114989089D01*
X174339004Y-119530594D02*
X174339004Y-119721411D01*
X208375828Y-151322937D02*
X208375828Y-151203078D01*
X209123244Y-73272605D02*
X209123244Y-73027937D01*
X157511000Y-106100000D02*
X157774176Y-106074788D01*
X210833466Y-77443477D02*
X210833466Y-77188969D01*
X164438744Y-110650808D02*
X165140333Y-110650808D01*
X200731789Y-144808596D02*
X200731789Y-144507644D01*
X209209732Y-131964987D02*
X209948188Y-131964987D01*
X199477295Y-65020800D02*
X199477295Y-64965133D01*
X157480000Y-140650000D02*
X157480000Y-140284034D01*
X203441029Y-68098464D02*
X203441029Y-68911763D01*
X197933308Y-69902895D02*
X197933308Y-69648387D01*
X193801092Y-73137553D02*
X193801092Y-72410964D01*
X191263370Y-64114959D02*
X191263370Y-63776902D01*
X215309415Y-152724950D02*
X215309415Y-152767163D01*
X211819125Y-92775730D02*
X211676075Y-92775730D01*
X200731789Y-144983491D02*
X200731789Y-144808596D01*
X157480000Y-123900000D02*
X157480000Y-124650000D01*
X164202847Y-110650808D02*
X164247927Y-110650808D01*
X160002901Y-145539974D02*
X160002901Y-145730791D01*
X164158532Y-110606493D02*
X164202847Y-110650808D01*
X212945966Y-139454976D02*
X212945966Y-139848191D01*
X193801092Y-73296525D02*
X193801092Y-73137553D01*
X197933308Y-70379323D02*
X197933308Y-69902895D01*
X209736472Y-137307448D02*
X209736472Y-137783877D01*
X207109732Y-61793308D02*
X207109732Y-62494897D01*
X214929668Y-92415183D02*
X214191212Y-92415183D01*
X199749096Y-147718972D02*
X199955836Y-147718972D01*
X210220706Y-131964987D02*
X210228719Y-131973000D01*
X170921282Y-106885573D02*
X170921282Y-106409303D01*
X182580206Y-127091380D02*
X182580206Y-127314043D01*
X209736472Y-137783877D02*
X209736472Y-137942849D01*
X205681789Y-139728596D02*
X205681789Y-139427644D01*
X202916282Y-125256472D02*
X203217234Y-125256472D01*
X193407358Y-134571736D02*
X193488356Y-134652733D01*
X214191212Y-92415183D02*
X213984472Y-92415183D01*
X211594130Y-92775730D02*
X211486717Y-92883142D01*
X171061690Y-106125845D02*
X171162816Y-106125845D01*
X215447928Y-135740350D02*
X215447928Y-135501764D01*
X199477295Y-64965133D02*
X199477295Y-64742470D01*
X180380206Y-123952870D02*
X180380206Y-124013310D01*
X187111274Y-136719255D02*
X187270246Y-136719255D01*
X188203060Y-78637335D02*
X188203060Y-78585249D01*
X211629194Y-135782448D02*
X211152765Y-135782448D01*
%TO.N,/nixi_driver/DIG-2*%
X233140508Y-146321709D02*
X235464340Y-143997877D01*
X216005797Y-150552203D02*
X218150945Y-148407054D01*
X205485528Y-151577923D02*
X206511249Y-150552203D01*
X201206789Y-150332428D02*
X201206789Y-150491401D01*
X235464340Y-134908386D02*
X235464340Y-134335820D01*
X236462406Y-117922177D02*
X236127983Y-117922177D01*
X237125846Y-117258738D02*
X236462406Y-117922177D01*
X235261907Y-149933387D02*
X235464340Y-150135820D01*
X235464340Y-143997877D02*
X235464340Y-135274352D01*
X233140508Y-148753405D02*
X233870539Y-149483436D01*
X227870846Y-148578769D02*
X233140508Y-148578769D01*
X201206789Y-150491401D02*
X202293311Y-151577923D01*
X237125846Y-105385858D02*
X237125846Y-117258738D01*
X233870539Y-149483436D02*
X234811956Y-149483436D01*
X233140508Y-148578769D02*
X233140508Y-146321709D01*
X235464340Y-135274352D02*
X235464340Y-134908386D01*
X236127983Y-117922177D02*
X235666773Y-118383387D01*
X206511249Y-150552203D02*
X216005797Y-150552203D01*
X235666773Y-118383387D02*
X235464340Y-118585820D01*
X235514340Y-103408386D02*
X235514340Y-103774352D01*
X202293311Y-151577923D02*
X205485528Y-151577923D01*
X235514340Y-103774352D02*
X237125846Y-105385858D01*
X201206789Y-149593972D02*
X201206789Y-150332428D01*
X218150945Y-148407054D02*
X227699131Y-148407054D01*
X227699131Y-148407054D02*
X227870846Y-148578769D01*
X233140508Y-148578769D02*
X233140508Y-148753405D01*
X235514340Y-102835820D02*
X235514340Y-103408386D01*
X234811956Y-149483436D02*
X235261907Y-149933387D01*
%TO.N,Net-(Q12-B)*%
X179406725Y-118293777D02*
X179807995Y-118293777D01*
X180173961Y-118293777D02*
X182049778Y-116417960D01*
X182049778Y-116417960D02*
X183087345Y-116417960D01*
X208815737Y-115256893D02*
X207309281Y-115256893D01*
X209449507Y-114989089D02*
X209083541Y-114989089D01*
X209083541Y-114989089D02*
X208815737Y-115256893D01*
X179807995Y-118293777D02*
X180173961Y-118293777D01*
X209750459Y-114989089D02*
X209449507Y-114989089D01*
%TO.N,Net-(Q12-C)*%
X210502413Y-112916042D02*
X208307996Y-112916042D01*
X210700459Y-113114089D02*
X210502413Y-112916042D01*
X213161513Y-116813236D02*
X212444700Y-116813236D01*
X212444700Y-116813236D02*
X212444700Y-117152956D01*
X211001412Y-113114089D02*
X211303688Y-113114089D01*
X210700459Y-113114089D02*
X211001412Y-113114089D01*
X208307996Y-112916042D02*
X207831725Y-112916042D01*
%TO.N,Net-(Ccomp3-Pad2)*%
X178992232Y-71616459D02*
X178992232Y-70889870D01*
X167039067Y-83935590D02*
X178992232Y-71982426D01*
X167039067Y-88551809D02*
X167039067Y-83935590D01*
X167039067Y-89431862D02*
X167039067Y-88917775D01*
X167039067Y-88917775D02*
X167039067Y-88551809D01*
X178992232Y-71982426D02*
X178992232Y-71616459D01*
%TO.N,Net-(Q8-C)*%
X176526977Y-153144630D02*
X176526977Y-153639930D01*
X175737638Y-144743153D02*
X175840859Y-144639932D01*
X177022277Y-144639932D02*
X177388243Y-144639932D01*
X176031677Y-144639932D02*
X176526977Y-144639932D01*
X178853719Y-151057981D02*
X178853719Y-151358933D01*
X178252706Y-143775469D02*
X178252706Y-143142638D01*
X160020000Y-142413190D02*
X160002799Y-142430391D01*
X179325312Y-143435956D02*
X179325312Y-145751677D01*
X178430910Y-142964435D02*
X178853791Y-142964435D01*
X177388243Y-144639932D02*
X178252706Y-143775469D01*
X160020000Y-141400000D02*
X160020000Y-142150000D01*
X178252706Y-143142638D02*
X178430910Y-142964435D01*
X179325312Y-145751677D02*
X179570611Y-145996976D01*
X176526977Y-152778663D02*
X176526977Y-153144630D01*
X178115262Y-151358933D02*
X177749296Y-151358933D01*
X178853719Y-151358933D02*
X178115262Y-151358933D01*
X177479627Y-151826013D02*
X176526977Y-152778663D01*
X175723194Y-144743153D02*
X175737638Y-144743153D01*
X177749296Y-151358933D02*
X177479627Y-151628602D01*
X160020000Y-142356740D02*
X160020000Y-142413190D01*
X179570611Y-145996976D02*
X179570611Y-149975122D01*
X178853719Y-150692014D02*
X178853719Y-151057981D01*
X177479627Y-151628602D02*
X177479627Y-151826013D01*
X176526977Y-144639932D02*
X177022277Y-144639932D01*
X179570611Y-149975122D02*
X178853719Y-150692014D01*
X175840859Y-144639932D02*
X176031677Y-144639932D01*
X178853791Y-142964435D02*
X179325312Y-143435956D01*
X160020000Y-142150000D02*
X160020000Y-142356740D01*
%TO.N,/mcu/GPIO6*%
X221055000Y-71630239D02*
X221055000Y-70160000D01*
X224007040Y-71987830D02*
X223979210Y-71960000D01*
X220045719Y-70160000D02*
X219231266Y-69345547D01*
X184403613Y-116238174D02*
X185218742Y-116238174D01*
X168910000Y-141400000D02*
X168910000Y-140650000D01*
X168910000Y-140650000D02*
X168910000Y-140284034D01*
X221384761Y-71960000D02*
X221055000Y-71630239D01*
X223979210Y-71960000D02*
X221384761Y-71960000D01*
X168910000Y-140284034D02*
X168910000Y-131731787D01*
X221055000Y-70160000D02*
X220045719Y-70160000D01*
X168910000Y-131731787D02*
X184403613Y-116238174D01*
%TO.N,/mcu/SCLK*%
X204705830Y-141967644D02*
X205681789Y-141967644D01*
X213521925Y-142342913D02*
X209181131Y-142342913D01*
X209181131Y-142342913D02*
X207651044Y-143873000D01*
X204570901Y-142403524D02*
X205006782Y-141967644D01*
X207651044Y-143873000D02*
X204726409Y-143873000D01*
X204380139Y-141994223D02*
X204406719Y-141967644D01*
X204483167Y-141967644D02*
X204705830Y-141967644D01*
X204726409Y-143873000D02*
X204399442Y-143546033D01*
X204399442Y-142574983D02*
X204570901Y-142403524D01*
X173052180Y-141400000D02*
X173052180Y-142430194D01*
X214737893Y-141126945D02*
X213521925Y-142342913D01*
X214819047Y-139848191D02*
X214737893Y-139929345D01*
X172720000Y-141400000D02*
X173052180Y-141400000D01*
X204406719Y-141967644D02*
X204483167Y-141967644D01*
X205006782Y-141967644D02*
X205681789Y-141967644D01*
X204399442Y-143546033D02*
X204399442Y-142574983D01*
X214737893Y-139929345D02*
X214737893Y-141126945D01*
X215485966Y-139848191D02*
X215185014Y-139848191D01*
X215185014Y-139848191D02*
X214819047Y-139848191D01*
%TO.N,Net-(U7-IO12)*%
X187270246Y-141219257D02*
X186904280Y-141219257D01*
X186904280Y-141219257D02*
X185851022Y-141219257D01*
X178765548Y-141219257D02*
X178584805Y-141400000D01*
X178584805Y-141400000D02*
X174440000Y-141400000D01*
X179548430Y-141204196D02*
X179533369Y-141219257D01*
X179533369Y-141219257D02*
X179483511Y-141219257D01*
X185851022Y-141219257D02*
X185638289Y-141431990D01*
X179260848Y-141219257D02*
X178765548Y-141219257D01*
X179483511Y-141219257D02*
X179260848Y-141219257D01*
X174440000Y-141400000D02*
X173990000Y-141400000D01*
X187765546Y-141219257D02*
X187270246Y-141219257D01*
%TO.N,/mcu/MOSI*%
X211184196Y-139848191D02*
X211375014Y-139848191D01*
X175240000Y-137090000D02*
X175990000Y-137090000D01*
X175990000Y-137090000D02*
X176228585Y-137090000D01*
X176228585Y-137090000D02*
X176293096Y-137090000D01*
X176293096Y-137090000D02*
X176316440Y-137113344D01*
X211375014Y-139848191D02*
X211675966Y-139848191D01*
X211034212Y-139596035D02*
X211034212Y-139698207D01*
X211034212Y-139698207D02*
X211184196Y-139848191D01*
%TO.N,/mcu/CS*%
X176164895Y-128200000D02*
X176263034Y-128298139D01*
X204705830Y-140697644D02*
X204515012Y-140697644D01*
X206657748Y-140697644D02*
X206848565Y-140697644D01*
X202454714Y-138637345D02*
X202447357Y-138637345D01*
X206848565Y-140697644D02*
X206985983Y-140697644D01*
X213915014Y-139848191D02*
X214215966Y-139848191D01*
X206985983Y-140697644D02*
X207031136Y-140652490D01*
X205681789Y-140697644D02*
X206657748Y-140697644D01*
X175990000Y-128200000D02*
X176164895Y-128200000D01*
X213644583Y-139848191D02*
X213915014Y-139848191D01*
X175240000Y-128200000D02*
X175990000Y-128200000D01*
X204515012Y-140697644D02*
X202454714Y-138637345D01*
X176263034Y-128298139D02*
X176272075Y-128298139D01*
X213631628Y-139848000D02*
X213631818Y-139848191D01*
X213631818Y-139848191D02*
X213644583Y-139848191D01*
X205681789Y-140697644D02*
X204705830Y-140697644D01*
%TO.N,/mcu/GPIO0*%
X178990966Y-146932058D02*
X178690014Y-146932058D01*
X173990000Y-123900000D02*
X173990000Y-124650000D01*
X171817364Y-127013453D02*
X170246806Y-127013453D01*
X178690014Y-146932058D02*
X178324047Y-146932058D01*
X178324047Y-146932058D02*
X174530012Y-150726093D01*
X174530012Y-150726093D02*
X169864165Y-150726093D01*
X169864165Y-150726093D02*
X169498199Y-150726093D01*
X160498201Y-150726093D02*
X160002901Y-150726093D01*
X173990000Y-124650000D02*
X173990000Y-124840818D01*
X173990000Y-124840818D02*
X171817364Y-127013453D01*
X178650000Y-143363745D02*
X178990966Y-143704711D01*
X178650000Y-143349224D02*
X178650000Y-143363745D01*
X169002899Y-150726093D02*
X168507599Y-150726093D01*
X178990966Y-143704711D02*
X178990966Y-146932058D01*
X168141632Y-150726093D02*
X160864167Y-150726093D01*
X169498199Y-150726093D02*
X169002899Y-150726093D01*
X168507599Y-150726093D02*
X168141632Y-150726093D01*
X160864167Y-150726093D02*
X160498201Y-150726093D01*
%TO.N,/mcu/GPIO1*%
X172440270Y-111352858D02*
X172440270Y-111829128D01*
X172440270Y-107016586D02*
X172440270Y-111352858D01*
X172440270Y-117983764D02*
X167640000Y-122784034D01*
X172440270Y-112305398D02*
X172440270Y-112671365D01*
X172571282Y-106885573D02*
X172440270Y-107016586D01*
X167640000Y-122784034D02*
X167640000Y-123150000D01*
X172440270Y-112671365D02*
X172440270Y-117983764D01*
X167640000Y-123150000D02*
X167640000Y-123900000D01*
X172440270Y-111829128D02*
X172440270Y-112305398D01*
%TO.N,/mcu/GPIO2*%
X166370000Y-123900000D02*
X166370000Y-123150000D01*
X204849763Y-127420339D02*
X205155037Y-127115066D01*
X204448494Y-127420339D02*
X204849763Y-127420339D01*
X205155037Y-127115066D02*
X207355455Y-127115066D01*
X207355455Y-127115066D02*
X207831725Y-127115066D01*
X204257676Y-127271232D02*
X204257676Y-127420339D01*
X204257676Y-127420339D02*
X204448494Y-127420339D01*
X204035593Y-127067548D02*
X204053992Y-127067548D01*
X166370000Y-123150000D02*
X166370000Y-122991028D01*
X204053992Y-127067548D02*
X204257676Y-127271232D01*
X166491355Y-122869673D02*
X166569400Y-122869673D01*
X203879295Y-126911250D02*
X204035593Y-127067548D01*
X166370000Y-122991028D02*
X166491355Y-122869673D01*
%TO.N,/mcu/GPIO3*%
X175989004Y-119054323D02*
X176390273Y-119054323D01*
X176404091Y-119054323D02*
X177164638Y-118293777D01*
X177164638Y-118293777D02*
X177355456Y-118293777D01*
X163830000Y-123900000D02*
X163830000Y-124200000D01*
X171979840Y-127382494D02*
X175989004Y-123373330D01*
X163830000Y-124200000D02*
X164538777Y-124908777D01*
X176390273Y-119054323D02*
X176404091Y-119054323D01*
X167012494Y-127382494D02*
X171979840Y-127382494D01*
X175989004Y-123373330D02*
X175989004Y-119896560D01*
X164538777Y-124908777D02*
X167012494Y-127382494D01*
X177355456Y-118293777D02*
X177756725Y-118293777D01*
X175989004Y-119896560D02*
X175989004Y-119530594D01*
X175989004Y-119530594D02*
X175989004Y-119054323D01*
%TO.N,/mcu/TX_OUT*%
X187930596Y-129200500D02*
X187930631Y-129200534D01*
X187930631Y-129200534D02*
X187943317Y-129200534D01*
X163223741Y-124863741D02*
X163577257Y-125217257D01*
X162560000Y-124200000D02*
X163223741Y-124863741D01*
X162560000Y-123900000D02*
X162560000Y-124200000D01*
X188213748Y-129200534D02*
X188514700Y-129200534D01*
X187943317Y-129200534D02*
X188213748Y-129200534D01*
X163577257Y-125217257D02*
X164277179Y-125217257D01*
%TO.N,/mcu/RX_IN*%
X161189385Y-124925510D02*
X161189385Y-124930693D01*
X186555940Y-128286165D02*
X187244700Y-128286165D01*
X187244700Y-128286165D02*
X187244700Y-129200534D01*
X161290000Y-124824895D02*
X161189385Y-124925510D01*
X161290000Y-123900000D02*
X161290000Y-124650000D01*
X161290000Y-124650000D02*
X161290000Y-124824895D01*
%TO.N,/mcu/GPIO4*%
X164540586Y-118991184D02*
X164480786Y-119050984D01*
X164596599Y-116868680D02*
X164596599Y-116392409D01*
X164596599Y-118183858D02*
X164596599Y-116868680D01*
X164480786Y-119050984D02*
X163753050Y-119050984D01*
X164540586Y-118239870D02*
X164596599Y-118183858D01*
X160020000Y-122784034D02*
X160020000Y-123150000D01*
X163753050Y-119050984D02*
X160020000Y-122784034D01*
X160020000Y-123150000D02*
X160020000Y-123900000D01*
X164540586Y-118641140D02*
X164540586Y-118991184D01*
X164540586Y-118239870D02*
X164540586Y-118641140D01*
%TO.N,/mcu/GPIO5*%
X173937734Y-101636745D02*
X174414004Y-101636745D01*
X158750000Y-122784034D02*
X163771500Y-117762534D01*
X172515270Y-101507839D02*
X172644176Y-101636745D01*
X172515270Y-101909109D02*
X172515270Y-101507839D01*
X163771500Y-115357927D02*
X171538974Y-107590453D01*
X172515270Y-102259152D02*
X172515270Y-101909109D01*
X163771500Y-117762534D02*
X163771500Y-115357927D01*
X171538974Y-107590453D02*
X171538974Y-104654213D01*
X172644176Y-101636745D02*
X173937734Y-101636745D01*
X171538974Y-104654213D02*
X171386971Y-104502211D01*
X171919254Y-102355544D02*
X172418878Y-102355544D01*
X171386971Y-102887828D02*
X171919254Y-102355544D01*
X158750000Y-123150000D02*
X158750000Y-122784034D01*
X171386971Y-104502211D02*
X171386971Y-102887828D01*
X158750000Y-123900000D02*
X158750000Y-123150000D01*
X172418878Y-102355544D02*
X172515270Y-102259152D01*
%TO.N,+12V*%
D66*
X185812422Y-63914675D02*
X185812422Y-64391103D01*
X189211491Y-64222224D02*
X189656814Y-63776902D01*
X202352618Y-65796042D02*
X202783619Y-65796042D01*
X199483308Y-69902895D02*
X199483308Y-70379323D01*
X199934736Y-70379323D02*
X200365737Y-70379323D01*
X186263850Y-63914675D02*
X186622769Y-63914675D01*
X189656814Y-63776902D02*
X190087815Y-63776902D01*
X190263370Y-63422734D02*
X190763370Y-62922734D01*
X194949602Y-71603106D02*
X198494752Y-68057956D01*
X198569865Y-65841042D02*
X199000866Y-65841042D01*
X185812422Y-63007245D02*
X185812422Y-62920737D01*
X190763370Y-62013845D02*
X190763370Y-61835131D01*
X200448925Y-70294766D02*
X201491029Y-69252662D01*
X199477295Y-66561287D02*
X199477295Y-66292470D01*
X197578561Y-65841042D02*
X198054989Y-65841042D01*
X200467122Y-67002243D02*
X200106389Y-66641509D01*
X186622769Y-63914675D02*
X186930318Y-64222224D01*
X201626029Y-65796042D02*
X202352618Y-65796042D01*
X208323244Y-68272605D02*
X209123244Y-68272605D01*
X198054989Y-65841042D02*
X198485990Y-65841042D01*
X195044861Y-73401039D02*
X194949602Y-73305780D01*
X202783619Y-65796042D02*
X205260182Y-68272605D01*
X193929028Y-62389675D02*
X193498027Y-62389675D01*
X185812422Y-62489736D02*
X185812422Y-62013308D01*
X201491029Y-68098464D02*
X201626029Y-67963464D01*
X196671131Y-65841042D02*
X196138075Y-65307986D01*
X185948611Y-64706007D02*
X186026037Y-64706007D01*
X185812422Y-63914675D02*
X185812422Y-63438247D01*
X205260182Y-68272605D02*
X207892243Y-68272605D01*
X199484320Y-68057956D02*
X199483308Y-68058969D01*
X201626029Y-66297629D02*
X201626029Y-65796042D01*
X190263370Y-63776902D02*
X190263370Y-63438845D01*
X190763370Y-61835131D02*
X190895320Y-61703181D01*
X194949602Y-73305780D02*
X194949602Y-71603106D01*
X156215215Y-94034785D02*
X155895000Y-94355000D01*
X197932105Y-73599807D02*
X197733337Y-73401039D01*
X199557517Y-66641509D02*
X199477295Y-66561287D01*
X190763370Y-61835131D02*
X190763370Y-61693370D01*
X190763370Y-62689959D02*
X190763370Y-62351902D01*
X156840193Y-93409807D02*
X156215215Y-94034785D01*
X198485990Y-65841042D02*
X198569865Y-65841042D01*
X174314763Y-75935237D02*
X156840193Y-93409807D01*
X174314763Y-67907683D02*
X174314763Y-68338684D01*
X190087815Y-63776902D02*
X190263370Y-63776902D01*
X196138075Y-65307986D02*
X196138075Y-64598721D01*
X192366456Y-62389675D02*
X192545170Y-62389675D01*
X201491029Y-68098464D02*
X201240236Y-68098464D01*
X199483308Y-68058969D02*
X199483308Y-69902895D01*
X198907733Y-68057956D02*
X199484320Y-68057956D01*
X190263370Y-63614400D02*
X190263370Y-63776902D01*
X190763370Y-62351902D02*
X190763370Y-62013845D01*
X193498027Y-62389675D02*
X193021599Y-62389675D01*
X186930318Y-64222224D02*
X189211491Y-64222224D01*
X190763370Y-61693370D02*
X190338371Y-61268371D01*
X201491029Y-68911763D02*
X201491029Y-68098464D01*
X197733337Y-73401039D02*
X195044861Y-73401039D01*
X191679963Y-61703181D02*
X192366456Y-62389675D01*
X200448925Y-70296135D02*
X200448925Y-70294766D01*
X200809235Y-68098464D02*
X200467122Y-67756352D01*
X190763370Y-62922734D02*
X190763370Y-62689959D01*
X199000866Y-65841042D02*
X199477295Y-65841042D01*
X190263370Y-63438845D02*
X190263370Y-63422734D01*
X197932105Y-74030808D02*
X197932105Y-73599807D01*
X185812422Y-64391103D02*
X185812422Y-64569817D01*
X185812422Y-62920737D02*
X185812422Y-62489736D01*
X200106389Y-66641509D02*
X199557517Y-66641509D01*
X199483308Y-70379323D02*
X199934736Y-70379323D01*
X201626029Y-67963464D02*
X201626029Y-66297629D01*
X192545170Y-62389675D02*
X193021599Y-62389675D01*
X200365737Y-70379323D02*
X200448925Y-70296135D01*
X185812422Y-64569817D02*
X185948611Y-64706007D01*
X201491029Y-69252662D02*
X201491029Y-68911763D01*
X185812422Y-63914675D02*
X186263850Y-63914675D01*
X198494752Y-68057956D02*
X198907733Y-68057956D01*
X196138075Y-64598721D02*
X193929028Y-62389675D01*
X190338371Y-61268371D02*
X190338371Y-60492214D01*
X174314763Y-68338684D02*
X174314763Y-75935237D01*
X201240236Y-68098464D02*
X200809235Y-68098464D01*
X207892243Y-68272605D02*
X208323244Y-68272605D01*
X190895320Y-61703181D02*
X191679963Y-61703181D01*
X174314763Y-67057683D02*
X174314763Y-67907683D01*
X199477295Y-66292470D02*
X199477295Y-65841042D01*
X185812422Y-63438247D02*
X185812422Y-63007245D01*
X197932105Y-75480808D02*
X197932105Y-74030808D01*
X197578561Y-65841042D02*
X197102132Y-65841042D01*
X197102132Y-65841042D02*
X196671131Y-65841042D01*
X200467122Y-67756352D02*
X200467122Y-67002243D01*
%TO.N,Net-(Q28-B)*%
D68*
X220246124Y-143072238D02*
X220246124Y-143057925D01*
X220246124Y-143373191D02*
X220246124Y-143072238D01*
X220246124Y-143057925D02*
X221558624Y-141745425D01*
X221558624Y-141745425D02*
X221558624Y-141586453D01*
X221558624Y-141586453D02*
X221558624Y-141110183D01*
%TO.N,/nixi_driver/DIG-3*%
X232202980Y-112370440D02*
X232202980Y-112943006D01*
X229968582Y-145326665D02*
X230883709Y-145326665D01*
X232202980Y-127547874D02*
X232202980Y-128120440D01*
X231539337Y-144671036D02*
X231539337Y-144584083D01*
X231413500Y-98398452D02*
X231413500Y-110642428D01*
X223225547Y-144323191D02*
X228965108Y-144323191D01*
X232172020Y-79792188D02*
X232172020Y-80158154D01*
X232243740Y-64809640D02*
X232243740Y-65382206D01*
X228965108Y-144323191D02*
X229968582Y-145326665D01*
X222859581Y-144323191D02*
X223225547Y-144323191D01*
X230883709Y-145326665D02*
X231539337Y-144671036D01*
X232202980Y-112943006D02*
X232202980Y-113308972D01*
X231413500Y-110642428D02*
X232202980Y-111431908D01*
X222121124Y-144323191D02*
X222859581Y-144323191D01*
X233022174Y-78942033D02*
X232172020Y-79792188D01*
X232202980Y-111431908D02*
X232202980Y-111797874D01*
X232202980Y-111797874D02*
X232202980Y-112370440D01*
X232000547Y-144122873D02*
X232202980Y-143920440D01*
X233022174Y-66526607D02*
X233022174Y-78942033D01*
X232252980Y-96620440D02*
X232252980Y-97193006D01*
X232252980Y-97193006D02*
X232252980Y-97558972D01*
X232977205Y-126407683D02*
X232202980Y-127181908D01*
X232202980Y-127181908D02*
X232202980Y-127547874D01*
X232172020Y-80158154D02*
X232172020Y-80730720D01*
X232252980Y-97558972D02*
X231413500Y-98398452D01*
X232243740Y-65748172D02*
X233022174Y-66526607D01*
X232243740Y-65382206D02*
X232243740Y-65748172D01*
X231539337Y-144584083D02*
X232000547Y-144122873D01*
X232202980Y-113308972D02*
X232977205Y-114083197D01*
X232977205Y-114083197D02*
X232977205Y-126407683D01*
%TO.N,Net-(Q13-B)*%
X211627053Y-114052000D02*
X211976265Y-113702788D01*
X213051971Y-112951316D02*
X213790428Y-112951316D01*
X212736238Y-113172285D02*
X212736238Y-113092154D01*
X208307996Y-114566042D02*
X208514736Y-114566042D01*
X208514736Y-114566042D02*
X209028778Y-114052000D01*
X212736238Y-113092154D02*
X212877076Y-112951316D01*
X212877076Y-112951316D02*
X213051971Y-112951316D01*
X207831725Y-114566042D02*
X208307996Y-114566042D01*
X209028778Y-114052000D02*
X211627053Y-114052000D01*
%TO.N,Net-(Br10-Pad1)*%
X228748547Y-100549053D02*
X228950980Y-100346620D01*
X228287337Y-101010263D02*
X228748547Y-100549053D01*
X213747928Y-103045339D02*
X214449517Y-103045339D01*
X214449517Y-103045339D02*
X214815483Y-103045339D01*
X214815483Y-103045339D02*
X214836822Y-103024000D01*
X214836822Y-103024000D02*
X226273600Y-103024000D01*
X226273600Y-103024000D02*
X228287337Y-101010263D01*
%TO.N,Net-(Q15-C)*%
X216109490Y-102086159D02*
X216475457Y-102086159D01*
X215475666Y-102086159D02*
X216109490Y-102086159D01*
X214609846Y-101220339D02*
X215475666Y-102086159D01*
X214449517Y-101220339D02*
X214609846Y-101220339D01*
X213747928Y-101220339D02*
X214449517Y-101220339D01*
X216475457Y-102086159D02*
X216776409Y-102086159D01*
%TO.N,Net-(U1-I_{SEN})*%
X201491029Y-71510165D02*
X201491029Y-72323464D01*
X201491029Y-71255657D02*
X201491029Y-71510165D01*
X196919094Y-71479556D02*
X196519150Y-71879499D01*
X203352248Y-70872172D02*
X201874514Y-70872172D01*
X211964751Y-76284676D02*
X208764751Y-76284676D01*
X201240236Y-72323464D02*
X200922037Y-72323464D01*
X196441265Y-72410964D02*
X196202679Y-72410964D01*
X196519150Y-71879499D02*
X196519150Y-72333078D01*
X208764751Y-76284676D02*
X203352248Y-70872172D01*
X201491029Y-72323464D02*
X201240236Y-72323464D01*
X213444868Y-77764792D02*
X211964751Y-76284676D01*
X196202679Y-72410964D02*
X195701092Y-72410964D01*
X200078129Y-71479556D02*
X196919094Y-71479556D01*
X201874514Y-70872172D02*
X201491029Y-71255657D01*
X213810834Y-77764792D02*
X213444868Y-77764792D01*
X200922037Y-72323464D02*
X200078129Y-71479556D01*
X196519150Y-72333078D02*
X196441265Y-72410964D01*
X214324922Y-77764792D02*
X213810834Y-77764792D01*
%TO.N,Net-(Q1-S)*%
X217510768Y-78597550D02*
X220639700Y-81726482D01*
X216149922Y-77764792D02*
X216664009Y-77764792D01*
X216431428Y-76415731D02*
X218020412Y-76415731D01*
X220639700Y-81726482D02*
X220639700Y-82092448D01*
X218020412Y-76415731D02*
X219582991Y-74853152D01*
X217029975Y-77764792D02*
X217510768Y-78245585D01*
X216149922Y-77764792D02*
X216149922Y-77063203D01*
X217510768Y-78245585D02*
X217510768Y-78597550D01*
X216664009Y-77764792D02*
X217029975Y-77764792D01*
X220639700Y-82092448D02*
X220639700Y-82792448D01*
X216149922Y-77063203D02*
X216149922Y-76697237D01*
X216149922Y-76697237D02*
X216431428Y-76415731D01*
X219773809Y-74853152D02*
X220337896Y-74853152D01*
X219582991Y-74853152D02*
X219773809Y-74853152D01*
%TO.N,Net-(U2-QB)*%
X210027292Y-146792551D02*
X209788401Y-146792551D01*
X209135966Y-145774150D02*
X209135966Y-144798191D01*
X203371287Y-152593386D02*
X203514336Y-152593386D01*
X202895016Y-152593386D02*
X203371287Y-152593386D01*
X209788401Y-146792551D02*
X209135966Y-146140116D01*
X209135966Y-146140116D02*
X209135966Y-145774150D01*
X203514336Y-152593386D02*
X203644062Y-152463660D01*
X203644062Y-152463660D02*
X203659095Y-152463660D01*
%TO.N,Net-(Br9-Pad1)*%
X216149922Y-116932956D02*
X216664009Y-116932956D01*
X217025370Y-116932956D02*
X217086002Y-116872324D01*
X216854826Y-116932956D02*
X217025370Y-116932956D01*
X216664009Y-116932956D02*
X216854826Y-116932956D01*
%TO.N,Net-(Q13-C)*%
X214324922Y-116231367D02*
X214324922Y-115929091D01*
X215665428Y-114456776D02*
X215665428Y-114202268D01*
X215665428Y-114483585D02*
X215665428Y-114456776D01*
X215670765Y-114488922D02*
X215665428Y-114483585D01*
X215665428Y-114202268D02*
X215665428Y-113901316D01*
X214324922Y-116932956D02*
X214324922Y-116231367D01*
%TO.N,Net-(Q18-C)*%
X186242168Y-83024344D02*
X186242168Y-82548073D01*
X185309415Y-81026447D02*
X185309415Y-80343625D01*
X186242168Y-83310697D02*
X186242168Y-83024344D01*
X186806891Y-83875419D02*
X186242168Y-83310697D01*
X187288390Y-83875419D02*
X186806891Y-83875419D01*
X187381409Y-83968438D02*
X187288390Y-83875419D01*
X186242168Y-82548073D02*
X186242168Y-82071803D01*
X185309415Y-80343625D02*
X185309415Y-79977658D01*
X186242168Y-82071803D02*
X186242168Y-81959201D01*
X187381409Y-84449441D02*
X187381409Y-83973170D01*
X185309415Y-79977658D02*
X185309415Y-79676706D01*
X187381409Y-83973170D02*
X187381409Y-83968438D01*
X186242168Y-81959201D02*
X185309415Y-81026447D01*
%TO.N,Net-(U2-QE)*%
X211174447Y-148619655D02*
X211174447Y-149095925D01*
X211778564Y-147307517D02*
X211778564Y-147649571D01*
X212945966Y-146140116D02*
X211778564Y-147307517D01*
X211174447Y-148253688D02*
X211174447Y-148619655D01*
X211778564Y-147649571D02*
X211174447Y-148253688D01*
X212945966Y-144798191D02*
X212945966Y-145774150D01*
X212945966Y-145774150D02*
X212945966Y-146140116D01*
%TO.N,Net-(Q30-B)*%
X212150858Y-151322352D02*
X212114278Y-151358933D01*
X212824447Y-149858549D02*
X212824447Y-149891309D01*
X212824447Y-149572195D02*
X212824447Y-149858549D01*
X212824447Y-149891309D02*
X212832055Y-149898917D01*
X211870657Y-151358933D02*
X211132200Y-151358933D01*
X212824447Y-149095925D02*
X212824447Y-149572195D01*
X212114278Y-151358933D02*
X212013706Y-151358933D01*
X212013706Y-151358933D02*
X211870657Y-151358933D01*
%TO.N,Net-(Q36-B)*%
X214318742Y-136338247D02*
X213547928Y-135567432D01*
X215102928Y-136831178D02*
X215102928Y-136465212D01*
X215102928Y-136465212D02*
X214975963Y-136338247D01*
X213547928Y-135567432D02*
X213547928Y-135501764D01*
X215102928Y-137307448D02*
X215102928Y-136831178D01*
X214975963Y-136338247D02*
X214318742Y-136338247D01*
X213547928Y-135501764D02*
X213547928Y-134763308D01*
%TO.N,/nixi_driver/RHDP-1*%
X229583593Y-129246069D02*
X229870597Y-129533073D01*
X232789327Y-129533073D02*
X233378712Y-128943688D01*
X233783627Y-128538773D02*
X233986060Y-128336340D01*
X214497928Y-132888308D02*
X214798880Y-132888308D01*
X226061991Y-129246069D02*
X229583593Y-129246069D01*
X229870597Y-129533073D02*
X232789327Y-129533073D01*
X224483360Y-130824701D02*
X226061991Y-129246069D01*
X233378712Y-128943688D02*
X233783627Y-128538773D01*
X218869606Y-132888308D02*
X220933214Y-130824701D01*
X220933214Y-130824701D02*
X224483360Y-130824701D01*
X215164846Y-132888308D02*
X218869606Y-132888308D01*
X214798880Y-132888308D02*
X215164846Y-132888308D01*
%TO.N,Net-(Q14-B)*%
X166558279Y-118714414D02*
X165382823Y-119889870D01*
X216837704Y-109665261D02*
X216762706Y-109665261D01*
X209660478Y-110704317D02*
X207346309Y-110704317D01*
X217345396Y-109665261D02*
X217044444Y-109665261D01*
X170737275Y-115527249D02*
X167550109Y-118714414D01*
X207346309Y-110704317D02*
X204753265Y-113297361D01*
X167550109Y-118714414D02*
X166558279Y-118714414D01*
X204753265Y-113297361D02*
X187889141Y-113297361D01*
X165382823Y-119889870D02*
X165016856Y-119889870D01*
X165016856Y-119889870D02*
X164540586Y-119889870D01*
X217044444Y-109665261D02*
X216837704Y-109665261D01*
X216762706Y-109665261D02*
X216736391Y-109691577D01*
%TO.N,Net-(Q14-C)*%
X217628478Y-107790261D02*
X216943997Y-107105780D01*
X216834255Y-106505300D02*
X216643438Y-106505300D01*
X216943997Y-106615041D02*
X216834255Y-106505300D01*
X216943997Y-107105780D02*
X216943997Y-106615041D01*
X215840899Y-106505300D02*
X216242168Y-106505300D01*
X213244704Y-105690847D02*
X213531058Y-105690847D01*
X216643438Y-106505300D02*
X216242168Y-106505300D01*
X215542282Y-106542586D02*
X215579568Y-106505300D01*
X215681927Y-106505300D02*
X215840899Y-106505300D01*
X217994444Y-107790261D02*
X217628478Y-107790261D01*
X215579568Y-106505300D02*
X215681927Y-106505300D01*
X212768434Y-105690847D02*
X213244704Y-105690847D01*
X218295396Y-107790261D02*
X217994444Y-107790261D01*
%TO.N,Net-(U4-SW)*%
X187229143Y-65847297D02*
X186863177Y-65847297D01*
X190763370Y-64273931D02*
X190532878Y-64504423D01*
X183689431Y-66192409D02*
X183499371Y-66192409D01*
X190532878Y-64504423D02*
X189552250Y-64504423D01*
X190763370Y-64114959D02*
X190763370Y-64273931D01*
X183499371Y-66192409D02*
X183244863Y-66192409D01*
X183937227Y-65944613D02*
X183689431Y-66192409D01*
X189552250Y-64504423D02*
X189477043Y-64579630D01*
X189477043Y-64579630D02*
X189477043Y-64945597D01*
X186804045Y-65847297D02*
X186798480Y-65852862D01*
X186863177Y-65847297D02*
X186804045Y-65847297D01*
X183244863Y-66192409D02*
X182768434Y-66192409D01*
X190763370Y-63776902D02*
X190763370Y-64114959D01*
X189477043Y-65847297D02*
X187229143Y-65847297D01*
X189477043Y-64945597D02*
X189477043Y-65847297D01*
%TO.N,Net-(U4-VBST)*%
X191263370Y-62351902D02*
X191263370Y-62689959D01*
X191263370Y-62960389D02*
X191263370Y-62976293D01*
X191263370Y-62976293D02*
X191268393Y-62981316D01*
X191263370Y-62689959D02*
X191263370Y-62960389D01*
X183451603Y-67742409D02*
X183244863Y-67742409D01*
X183244863Y-67742409D02*
X182768434Y-67742409D01*
X183542940Y-67651072D02*
X183451603Y-67742409D01*
X183545811Y-67651072D02*
X183542940Y-67651072D01*
%TO.N,Net-(U6-XO)*%
X180227781Y-129200534D02*
X180080293Y-129053046D01*
X180080293Y-128306351D02*
X179174281Y-127400339D01*
X180894700Y-129200534D02*
X180593748Y-129200534D01*
X180593748Y-129200534D02*
X180227781Y-129200534D01*
X178081725Y-127400339D02*
X178081725Y-126898752D01*
X178124719Y-126489792D02*
X179312651Y-126489792D01*
X179312651Y-126489792D02*
X179678617Y-126489792D01*
X180080293Y-129053046D02*
X180080293Y-128306351D01*
X178081725Y-126898752D02*
X178081725Y-126532786D01*
X178808314Y-127400339D02*
X178081725Y-127400339D01*
X178081725Y-126532786D02*
X178124719Y-126489792D01*
X179174281Y-127400339D02*
X178808314Y-127400339D01*
X179678617Y-126489792D02*
X180380206Y-126489792D01*
%TO.N,Net-(J6-D--PadA7)*%
X157653531Y-103100000D02*
X157876448Y-103100000D01*
X157753526Y-102104459D02*
X157753526Y-102429862D01*
X157876448Y-103100000D02*
X160068293Y-105291844D01*
X160068293Y-105291844D02*
X160068293Y-106078479D01*
X157659933Y-103088913D02*
X157653531Y-103100000D01*
X157510482Y-102100000D02*
X157749067Y-102100000D01*
X156785000Y-102100000D02*
X157510482Y-102100000D01*
X185906250Y-123509823D02*
X185906250Y-124023910D01*
X157510482Y-103100000D02*
X157653531Y-103100000D01*
X185906250Y-123143857D02*
X185906250Y-123509823D01*
X157749067Y-102100000D02*
X157753526Y-102104459D01*
X157664545Y-103088854D02*
X157659933Y-103088913D01*
X157753526Y-102429862D02*
X157664545Y-103088854D01*
X156785000Y-103100000D02*
X157510482Y-103100000D01*
%TO.N,D-*%
D69*
X185720146Y-127127019D02*
X186484168Y-126362997D01*
X183585176Y-128969583D02*
X183735652Y-128738632D01*
X184075184Y-128193600D02*
X184108780Y-128143321D01*
X185079689Y-127172412D02*
X185129968Y-127138816D01*
X186558554Y-126288611D02*
X185906250Y-125848910D01*
X186484168Y-126362997D02*
X186558554Y-126288611D01*
X184108780Y-128143321D02*
X185079689Y-127172412D01*
X184063387Y-128252909D02*
X184075184Y-128193600D01*
X183899286Y-128574998D02*
X184057257Y-128574998D01*
X185189276Y-127127019D02*
X185720146Y-127127019D01*
X184057257Y-128574998D02*
X184063387Y-128553416D01*
X183735652Y-128738632D02*
X183899286Y-128574998D01*
X185129968Y-127138816D02*
X185189276Y-127127019D01*
X183434700Y-129200534D02*
X183585176Y-128969583D01*
X184063387Y-128553416D02*
X184063387Y-128252909D01*
%TO.N,Net-(Q17-B)*%
D68*
X177550773Y-76961745D02*
X177851725Y-76961745D01*
X177184807Y-76961745D02*
X177550773Y-76961745D01*
X174034257Y-80592800D02*
X174034257Y-80191530D01*
X174034257Y-80191530D02*
X174034257Y-80032558D01*
X174034257Y-80032558D02*
X177105070Y-76961745D01*
X177105070Y-76961745D02*
X177184807Y-76961745D01*
%TO.N,Net-(Q16-C)*%
X174034257Y-82242800D02*
X174034257Y-82644070D01*
X174034257Y-81841530D02*
X174034257Y-81491487D01*
X174537296Y-81420926D02*
X174886320Y-81071902D01*
X174886320Y-80803924D02*
X175197944Y-80492300D01*
X175197944Y-80492300D02*
X175857990Y-79832253D01*
X174104818Y-81420926D02*
X174537296Y-81420926D01*
X175857990Y-79832253D02*
X175932991Y-79832253D01*
X174034257Y-81491487D02*
X174104818Y-81420926D01*
X174624510Y-83240294D02*
X174624510Y-84852895D01*
X174886320Y-81071902D02*
X174886320Y-80803924D01*
X174034257Y-82242800D02*
X174034257Y-81841530D01*
X174624510Y-84995945D02*
X174624510Y-85734402D01*
X174034257Y-82644070D02*
X174034257Y-82650041D01*
X174624510Y-84852895D02*
X174624510Y-84995945D01*
X174034257Y-82650041D02*
X174624510Y-83240294D01*
%TO.N,Net-(Br12-Pad1)*%
X190716284Y-77567019D02*
X190525466Y-77567019D01*
X190525466Y-77567019D02*
X189823877Y-77567019D01*
X191054758Y-77373776D02*
X190861515Y-77567019D01*
X190861515Y-77567019D02*
X190716284Y-77567019D01*
%TO.N,Net-(Q19-C)*%
X188302619Y-75873972D02*
X187564162Y-75873972D01*
X189691924Y-75873972D02*
X188302619Y-75873972D01*
X189823877Y-75742019D02*
X189691924Y-75873972D01*
%TO.N,Net-(U2-QG)*%
X218748257Y-151768354D02*
X219150411Y-151768354D01*
X215485966Y-145980890D02*
X215485966Y-145774150D01*
X215485966Y-146015921D02*
X215485966Y-145980890D01*
X215447549Y-146054337D02*
X215485966Y-146015921D01*
X219224130Y-152192116D02*
X219224130Y-152593386D01*
X219150411Y-151768354D02*
X219224130Y-151842073D01*
X219224130Y-151842073D02*
X219224130Y-152192116D01*
X215485966Y-145774150D02*
X215485966Y-144798191D01*
X217730691Y-150750788D02*
X218748257Y-151768354D01*
%TO.N,Net-(Q32-B)*%
X218295094Y-150856587D02*
X218295094Y-150378059D01*
X218747860Y-150943386D02*
X218381894Y-150943386D01*
X216538165Y-150796177D02*
X216538165Y-151234606D01*
X216538165Y-151234606D02*
X216413838Y-151358933D01*
X216413838Y-151358933D02*
X216047872Y-151358933D01*
X218381894Y-150943386D02*
X218295094Y-150856587D01*
X216047872Y-151358933D02*
X215309415Y-151358933D01*
X217832965Y-149915930D02*
X217418412Y-149915930D01*
X218295094Y-150378059D02*
X217832965Y-149915930D01*
X219224130Y-150943386D02*
X218747860Y-150943386D01*
X217418412Y-149915930D02*
X216538165Y-150796177D01*
%TO.N,Net-(J6-CC2)*%
X158003290Y-104726842D02*
X157876448Y-104600000D01*
X160021124Y-114271042D02*
X160021124Y-113569453D01*
X157510482Y-104600000D02*
X156785000Y-104600000D01*
X160021124Y-107460984D02*
X158003290Y-105443150D01*
X160021124Y-113569453D02*
X160021124Y-113203487D01*
X160021124Y-113203487D02*
X160021124Y-107460984D01*
X157876448Y-104600000D02*
X157510482Y-104600000D01*
X158003290Y-105443150D02*
X158003290Y-104726842D01*
%TO.N,Net-(Q31-B)*%
X192178087Y-152464480D02*
X191774030Y-152464480D01*
X193041599Y-153016433D02*
X192740647Y-153016433D01*
X192730041Y-153016433D02*
X192178087Y-152464480D01*
X191774030Y-152464480D02*
X191599135Y-152464480D01*
X191599135Y-152464480D02*
X191122865Y-152464480D01*
X192740647Y-153016433D02*
X192730041Y-153016433D01*
%TO.N,/nixi_driver/DIG-6*%
X236552433Y-101040807D02*
X237013643Y-100579597D01*
X236518029Y-129388973D02*
X235504075Y-130402927D01*
X193991599Y-151141433D02*
X194292551Y-151141433D01*
X235748947Y-132192187D02*
X236097567Y-132540807D01*
X235969368Y-82669691D02*
X235500675Y-83254896D01*
X235500675Y-83254896D02*
X235500675Y-84585155D01*
X236097567Y-132540807D02*
X236300000Y-132743240D01*
X194587712Y-151037089D02*
X194597868Y-151037089D01*
X236751041Y-98619974D02*
X236751041Y-86774053D01*
X236350000Y-101243240D02*
X236552433Y-101040807D01*
X235706728Y-84791208D02*
X236066607Y-85151087D01*
X235500675Y-84585155D02*
X235706728Y-84791208D01*
X235504075Y-130402927D02*
X235504075Y-131947315D01*
X237114500Y-100478740D02*
X237114500Y-98983434D01*
X236340760Y-69432440D02*
X236340760Y-70005006D01*
X236340760Y-70370972D02*
X236340760Y-82109237D01*
X236340760Y-70005006D02*
X236340760Y-70370972D01*
X237013643Y-100579597D02*
X237114500Y-100478740D01*
X236269040Y-85926086D02*
X236269040Y-85353520D01*
X237114500Y-98983434D02*
X236751041Y-98619974D01*
X236269040Y-86292052D02*
X236269040Y-85926086D01*
X236201305Y-82248692D02*
X235969368Y-82669691D01*
X236751041Y-86774053D02*
X236269040Y-86292052D01*
X236340760Y-82109237D02*
X236201305Y-82248692D01*
X194292551Y-151141433D02*
X194483368Y-151141433D01*
X194483368Y-151141433D02*
X194587712Y-151037089D01*
X236518029Y-122216118D02*
X236518029Y-129388973D01*
X236066607Y-85151087D02*
X236269040Y-85353520D01*
X235504075Y-131947315D02*
X235748947Y-132192187D01*
%TO.N,Net-(Q19-B)*%
X185689162Y-75496956D02*
X185689162Y-75463509D01*
X184592168Y-82548073D02*
X184592168Y-82071803D01*
X184592168Y-82071803D02*
X184592168Y-81865063D01*
X184592168Y-81865063D02*
X184695590Y-81761642D01*
X185701143Y-75508938D02*
X185689162Y-75496956D01*
X185689162Y-75224924D02*
X185689162Y-74923972D01*
X184695590Y-81761642D02*
X184695590Y-81759276D01*
X185689162Y-75463509D02*
X185689162Y-75224924D01*
%TO.N,Net-(Q10-B)*%
X204000154Y-127747254D02*
X204540003Y-128287103D01*
X221523877Y-126272018D02*
X221523877Y-126180268D01*
X221523877Y-126021296D02*
X221523877Y-125282839D01*
X204000154Y-127469416D02*
X204000154Y-127747254D01*
X204540003Y-128287103D02*
X211707770Y-128287103D01*
X203951077Y-127420339D02*
X204000154Y-127469416D01*
X221553343Y-126301483D02*
X221523877Y-126272018D01*
X203199763Y-127420339D02*
X203601033Y-127420339D01*
X221523877Y-126180268D02*
X221523877Y-126021296D01*
X203601033Y-127420339D02*
X203951077Y-127420339D01*
%TO.N,Net-(Q34-B)*%
X212864958Y-124704519D02*
X212388687Y-124704519D01*
X214549922Y-124739792D02*
X214514648Y-124704519D01*
X214514648Y-124704519D02*
X212864958Y-124704519D01*
%TO.N,/nixi_driver/DIG-9*%
X216424922Y-125689792D02*
X217163378Y-125689792D01*
X234799753Y-128539330D02*
X234702423Y-129068766D01*
X234046128Y-147750815D02*
X236229754Y-145567189D01*
X230524040Y-119185260D02*
X230524040Y-119757826D01*
X234702423Y-129068766D02*
X234268730Y-129502458D01*
X231325981Y-118383319D02*
X231187683Y-118521617D01*
X230493080Y-87545540D02*
X230493080Y-88118106D01*
X230574040Y-104007826D02*
X230574040Y-104373792D01*
X231317010Y-128461711D02*
X231754592Y-128899292D01*
X231754592Y-128899292D02*
X232532158Y-128899292D01*
X234770197Y-132427197D02*
X234268730Y-132427197D01*
X236229754Y-145567189D02*
X236229754Y-133886754D01*
X217163378Y-125689792D02*
X217354196Y-125689792D01*
X230493080Y-90100660D02*
X229983714Y-90610026D01*
X234046128Y-149135632D02*
X234046128Y-147750815D01*
X230574040Y-103435260D02*
X230574040Y-104007826D01*
X232532158Y-128899292D02*
X233049996Y-128381454D01*
X230493080Y-88118106D02*
X230493080Y-88484072D01*
X233049996Y-128184095D02*
X233745729Y-127488362D01*
X231317010Y-120916763D02*
X231317010Y-128461711D01*
X217433606Y-125610382D02*
X217443569Y-125610382D01*
X217354196Y-125689792D02*
X217433606Y-125610382D01*
X231187683Y-118521617D02*
X230726473Y-118982827D01*
X230493080Y-88484072D02*
X230493080Y-90100660D01*
X234799753Y-127983617D02*
X234799753Y-128539330D01*
X231299900Y-133838371D02*
X232711074Y-132427197D01*
X230524040Y-120123792D02*
X231317010Y-120916763D01*
X234304498Y-127488362D02*
X234799753Y-127983617D01*
X230574040Y-104373792D02*
X230574040Y-111604465D01*
X230574040Y-111604465D02*
X231325981Y-112356406D01*
X230726473Y-118982827D02*
X230524040Y-119185260D01*
X232711074Y-132427197D02*
X234268730Y-132427197D01*
X231325981Y-112356406D02*
X231325981Y-118383319D01*
X233049996Y-128381454D02*
X233049996Y-128184095D01*
X234268730Y-129502458D02*
X234268730Y-132427197D01*
X233745729Y-127488362D02*
X234304498Y-127488362D01*
X230524040Y-119757826D02*
X230524040Y-120123792D01*
X236229754Y-133886754D02*
X234770197Y-132427197D01*
%TO.N,Net-(Q16-B)*%
X173674510Y-87609402D02*
X173674510Y-88347858D01*
X173674510Y-98480016D02*
X174414004Y-99219509D01*
X174414004Y-99219509D02*
X174414004Y-99585476D01*
X173674510Y-88713824D02*
X173674510Y-98480016D01*
X173674510Y-88347858D02*
X173674510Y-88713824D01*
X174414004Y-99585476D02*
X174414004Y-99986745D01*
%TO.N,Net-(U1-FA{slash}SD)*%
X208934732Y-62669792D02*
X208934732Y-62721959D01*
X208934732Y-62494897D02*
X208934732Y-62669792D01*
X202449335Y-67030657D02*
X202141029Y-67030657D01*
X202465229Y-67014763D02*
X202449335Y-67030657D01*
X202141029Y-67285165D02*
X202141029Y-68098464D01*
X202141029Y-67030657D02*
X202141029Y-67285165D01*
X208934732Y-62721959D02*
X208881600Y-62775091D01*
X208934732Y-61793308D02*
X208934732Y-62494897D01*
%TO.N,Net-(Br8-Pad1)*%
X228328414Y-131846620D02*
X228900980Y-131846620D01*
X224322934Y-133847487D02*
X224496844Y-133847487D01*
X223621346Y-133847487D02*
X224322934Y-133847487D01*
X224496844Y-133847487D02*
X226497711Y-131846620D01*
X227962448Y-131846620D02*
X228328414Y-131846620D01*
X226497711Y-131846620D02*
X227962448Y-131846620D01*
%TO.N,Net-(Q11-C)*%
X219237996Y-128705300D02*
X219166913Y-128705300D01*
X222919757Y-132022487D02*
X222744862Y-132022487D01*
X219166913Y-128705300D02*
X218976095Y-128705300D01*
X218976095Y-128705300D02*
X218675143Y-128705300D01*
X219263915Y-128731219D02*
X219237996Y-128705300D01*
X222694349Y-132022487D02*
X222639466Y-132077370D01*
X223621346Y-132022487D02*
X222919757Y-132022487D01*
X222744862Y-132022487D02*
X222694349Y-132022487D01*
%TO.N,Net-(U5-QB)*%
X200731789Y-135617644D02*
X201707748Y-135617644D01*
X201979318Y-135536890D02*
X201987950Y-135536890D01*
X201707748Y-135617644D02*
X201898565Y-135617644D01*
X201680776Y-133980984D02*
X201680776Y-133504714D01*
X201897534Y-134285387D02*
X201810284Y-134285387D01*
X201680776Y-134155879D02*
X201680776Y-133980984D01*
X201898565Y-135617644D02*
X201979318Y-135536890D01*
X201810284Y-134285387D02*
X201680776Y-134155879D01*
%TO.N,Net-(U5-QC)*%
X201707748Y-136887644D02*
X201962256Y-136887644D01*
X212053129Y-136547505D02*
X212813073Y-137307448D01*
X209151739Y-136547505D02*
X212053129Y-136547505D01*
X212813073Y-137307448D02*
X213051658Y-137307448D01*
X200731789Y-136887644D02*
X201707748Y-136887644D01*
X213051658Y-137307448D02*
X213452928Y-137307448D01*
X202272779Y-136577120D02*
X203699663Y-136577120D01*
X201962256Y-136887644D02*
X202272779Y-136577120D01*
%TO.N,Net-(U2-QH')*%
X206657748Y-138157644D02*
X206864488Y-138157644D01*
X205681789Y-138157644D02*
X206657748Y-138157644D01*
X206916865Y-138157644D02*
X206981974Y-138222753D01*
X218025966Y-138585878D02*
X218025966Y-138872232D01*
X218025966Y-138872232D02*
X218025966Y-139848191D01*
X206864488Y-138157644D02*
X206916865Y-138157644D01*
%TO.N,Net-(U5-QA)*%
X205681789Y-136887644D02*
X205681789Y-136586692D01*
X212388687Y-126354519D02*
X211912417Y-126354519D01*
X211912417Y-126354519D02*
X211546451Y-126354519D01*
X205681789Y-136586692D02*
X205681789Y-136236648D01*
X211546451Y-126354519D02*
X210491316Y-127409654D01*
X205681789Y-136236648D02*
X205682000Y-136236436D01*
X205682000Y-136236436D02*
X205682000Y-136221425D01*
X210491316Y-127409654D02*
X210298449Y-127409654D01*
%TO.N,Net-(U1-FB)*%
X208128412Y-78145066D02*
X208494379Y-78145066D01*
X209008466Y-78145066D02*
X208611472Y-78542059D01*
X208494379Y-78145066D02*
X209008466Y-78145066D01*
X202791029Y-73136763D02*
X202791029Y-73502730D01*
X208611472Y-79732033D02*
X208611472Y-80296120D01*
X202791029Y-73502730D02*
X207433365Y-78145066D01*
X208611472Y-78542059D02*
X208611472Y-79732033D01*
X207433365Y-78145066D02*
X208128412Y-78145066D01*
X202791029Y-72323464D02*
X202791029Y-73136763D01*
%TO.N,Net-(Q15-B)*%
X215826409Y-104906356D02*
X215826409Y-104937884D01*
X215111600Y-105910867D02*
X215105848Y-105916619D01*
X215826409Y-103961159D02*
X215826409Y-104699616D01*
X214592168Y-106430299D02*
X214592168Y-106505300D01*
X215111600Y-105611437D02*
X215111600Y-105910867D01*
X215105848Y-105916619D02*
X214592168Y-106430299D01*
X215826409Y-104699616D02*
X215826409Y-104906356D01*
X215826409Y-104937884D02*
X215868343Y-104979818D01*
%TO.N,Net-(SS8050-B)*%
X184958854Y-145332058D02*
X185324820Y-145332058D01*
X180890966Y-146932058D02*
X181191918Y-146932058D01*
X181557884Y-146932058D02*
X183358854Y-146932058D01*
X185324820Y-145332058D02*
X186026409Y-145332058D01*
X183358854Y-146932058D02*
X184958854Y-145332058D01*
X181191918Y-146932058D02*
X181557884Y-146932058D01*
%TO.N,/mcu/UART/DTR*%
X179940966Y-148366389D02*
X183185681Y-151611104D01*
X185974700Y-135126493D02*
X185974700Y-134150534D01*
X179940966Y-145057058D02*
X179940966Y-145795514D01*
X182161143Y-141732457D02*
X179940966Y-143952635D01*
X179940966Y-143952635D02*
X179940966Y-144318601D01*
X179940966Y-146161481D02*
X179940966Y-148366389D01*
X183185681Y-151611104D02*
X183185681Y-151977070D01*
X183185681Y-151977070D02*
X183185681Y-152678659D01*
X179940966Y-145795514D02*
X179940966Y-146161481D01*
X185974700Y-135492460D02*
X185974700Y-135126493D01*
X179940966Y-144318601D02*
X179940966Y-145057058D01*
X182293726Y-141502758D02*
X182161143Y-141635341D01*
X183640076Y-137827083D02*
X185974700Y-135492460D01*
X183640076Y-139170214D02*
X183640076Y-137827083D01*
X182161143Y-141635341D02*
X182161143Y-141732457D01*
%TO.N,Net-(J6-D+-PadA6)*%
X157860526Y-103600000D02*
X157510482Y-103600000D01*
X160882833Y-107567476D02*
X158602001Y-105286644D01*
X164566713Y-111653727D02*
X160882833Y-107969847D01*
X156059518Y-102600000D02*
X156785000Y-102600000D01*
X187511061Y-124023910D02*
X188212650Y-124023910D01*
X187138858Y-123400795D02*
X187138858Y-123922137D01*
X157510482Y-103600000D02*
X156785000Y-103600000D01*
X187240631Y-124023910D02*
X187511061Y-124023910D01*
X155720805Y-103404336D02*
X155720805Y-102668283D01*
X158602001Y-104341475D02*
X157860526Y-103600000D01*
X156785000Y-103600000D02*
X156059518Y-103600000D01*
X164757906Y-111653727D02*
X164566713Y-111653727D01*
X164961320Y-111857141D02*
X164757906Y-111653727D01*
X156059518Y-103600000D02*
X155916469Y-103600000D01*
X186511336Y-122773273D02*
X187138858Y-123400795D01*
X155720805Y-102668283D02*
X155789088Y-102600000D01*
X187138858Y-123922137D02*
X187240631Y-124023910D01*
X155789088Y-102600000D02*
X156059518Y-102600000D01*
X160882833Y-107969847D02*
X160882833Y-107567476D01*
X158602001Y-105286644D02*
X158602001Y-104341475D01*
X155916469Y-103600000D02*
X155720805Y-103404336D01*
%TO.N,D+*%
D69*
X186874806Y-126290866D02*
X187381893Y-126290866D01*
X187511061Y-126161697D02*
X187861856Y-126005304D01*
X184554224Y-128969122D02*
X184403748Y-128737710D01*
X184367451Y-128617341D02*
X184373348Y-128574998D01*
X187381893Y-126290866D02*
X187511061Y-126161697D01*
X186822796Y-126462719D02*
X186856391Y-126412440D01*
X184403748Y-128737710D02*
X184348854Y-128682817D01*
X184373348Y-128317104D02*
X185253471Y-127436980D01*
X184704700Y-129200534D02*
X184554224Y-128969122D01*
X185843649Y-127425183D02*
X185893928Y-127391587D01*
X185253471Y-127436980D02*
X185784340Y-127436980D01*
X185784340Y-127436980D02*
X185843649Y-127425183D01*
X185893928Y-127391587D02*
X186822796Y-126462719D01*
X186868189Y-126353132D02*
X186868189Y-126313272D01*
X184373348Y-128574998D02*
X184373348Y-128317104D01*
X186856391Y-126412440D02*
X186868189Y-126353132D01*
X186868189Y-126313272D02*
X186874806Y-126290866D01*
X184348854Y-128682817D02*
X184367451Y-128617341D01*
X187861856Y-126005304D02*
X188212650Y-125848910D01*
%TO.N,Net-(Q10-C)*%
D68*
X221427611Y-129701980D02*
X221828881Y-129701980D01*
X222035621Y-129701980D02*
X222079108Y-129701980D01*
X222079108Y-129701980D02*
X222126263Y-129654824D01*
X221828881Y-129701980D02*
X222035621Y-129701980D01*
X220573877Y-128006009D02*
X221427611Y-128859743D01*
X220573877Y-127896296D02*
X220573877Y-128006009D01*
X221427611Y-129225709D02*
X221427611Y-129701980D01*
X222283380Y-131419838D02*
X222153777Y-131549441D01*
X222153777Y-131549441D02*
X221978882Y-131549441D01*
X222283380Y-131338600D02*
X222283380Y-131419838D01*
X221427611Y-128859743D02*
X221427611Y-129225709D01*
X221978882Y-131549441D02*
X221502611Y-131549441D01*
X220573877Y-127157839D02*
X220573877Y-127896296D01*
%TO.N,Net-(J6-CC1)*%
X164438744Y-108825808D02*
X165140333Y-108825808D01*
X157876448Y-101600000D02*
X158430540Y-102154092D01*
X157510482Y-101600000D02*
X157876448Y-101600000D01*
X158430540Y-102154092D02*
X158430540Y-103183570D01*
X164072778Y-108825808D02*
X164438744Y-108825808D01*
X158430540Y-103183570D02*
X164072778Y-108825808D01*
X156785000Y-101600000D02*
X157510482Y-101600000D01*
%TO.N,Net-(U6-XI)*%
X182164700Y-128224575D02*
X182164700Y-127970067D01*
X181777466Y-125492532D02*
X182480205Y-124789792D01*
X181661115Y-125608883D02*
X181777466Y-125492532D01*
X179854161Y-129303073D02*
X179567808Y-129303073D01*
X181497781Y-129200534D02*
X181421045Y-129277270D01*
X181421045Y-129277270D02*
X181421045Y-130253736D01*
X182164700Y-127970067D02*
X181661115Y-127466482D01*
X182164700Y-129200534D02*
X181863748Y-129200534D01*
X181863748Y-129200534D02*
X181497781Y-129200534D01*
X182164700Y-129200534D02*
X182164700Y-128224575D01*
X180544949Y-130405506D02*
X179946154Y-129806711D01*
X181661115Y-127466482D02*
X181661115Y-125608883D01*
X181421045Y-130253736D02*
X181269275Y-130405506D01*
X179567808Y-129303073D02*
X178841219Y-129303073D01*
X179946154Y-129395067D02*
X179854161Y-129303073D01*
X181269275Y-130405506D02*
X180544949Y-130405506D01*
X182480205Y-124789792D02*
X182580206Y-124789792D01*
X179946154Y-129806711D02*
X179946154Y-129395067D01*
%TO.N,/mcu/UART/RTS*%
X184105205Y-153288054D02*
X183754503Y-153638757D01*
X185691140Y-137046020D02*
X185691140Y-138811881D01*
X186945379Y-143117891D02*
X186945379Y-146019448D01*
X186026409Y-146642971D02*
X186026409Y-147157058D01*
X186026409Y-147671145D02*
X186026409Y-148037111D01*
X187244700Y-135492460D02*
X185691140Y-137046020D01*
X186716234Y-142888745D02*
X186945379Y-143117891D01*
X186945379Y-146019448D02*
X186557401Y-146407427D01*
X186026409Y-146483999D02*
X186026409Y-146642971D01*
X184105205Y-149958315D02*
X184105205Y-153288054D01*
X181927576Y-152932239D02*
X181927576Y-152419289D01*
X187244700Y-135126493D02*
X187244700Y-135492460D01*
X186557401Y-146407427D02*
X186102981Y-146407427D01*
X181817219Y-152308933D02*
X181467176Y-152308933D01*
X182634094Y-153638757D02*
X181927576Y-152932239D01*
X187244700Y-134150534D02*
X187244700Y-135126493D01*
X181927576Y-152419289D02*
X181817219Y-152308933D01*
X186026409Y-148037111D02*
X184105205Y-149958315D01*
X186026409Y-147157058D02*
X186026409Y-147671145D01*
X183754503Y-153638757D02*
X182634094Y-153638757D01*
X186102981Y-146407427D02*
X186026409Y-146483999D01*
X181467176Y-152308933D02*
X180728719Y-152308933D01*
%TO.N,Net-(Q9-C)*%
X201966282Y-122277049D02*
X201432042Y-121742808D01*
X196439320Y-119371457D02*
X196141035Y-119669742D01*
X201299364Y-123381472D02*
X201665330Y-123381472D01*
X201966282Y-122643015D02*
X201966282Y-122277049D01*
X195847565Y-119669742D02*
X195769069Y-119748239D01*
X196141035Y-119669742D02*
X195847565Y-119669742D01*
X201665330Y-123381472D02*
X201966282Y-123381472D01*
X195769069Y-119748239D02*
X195769069Y-120752416D01*
X201148209Y-123532627D02*
X201299364Y-123381472D01*
X196439320Y-118620144D02*
X196439320Y-119021413D01*
X201432042Y-119150320D02*
X201432042Y-118674050D01*
X201966282Y-123381472D02*
X201966282Y-122643015D01*
X195769069Y-120752416D02*
X198549279Y-123532627D01*
X201432042Y-119516287D02*
X201432042Y-119150320D01*
X198549279Y-123532627D02*
X201148209Y-123532627D01*
X196439320Y-119021413D02*
X196439320Y-119371457D01*
X201432042Y-121742808D02*
X201432042Y-119516287D01*
%TO.N,Net-(Q11-B)*%
X220736053Y-133138199D02*
X220797295Y-133199441D01*
X220797295Y-133199441D02*
X220851446Y-133199441D01*
X221026341Y-133199441D02*
X221502611Y-133199441D01*
X218010706Y-130580300D02*
X218010706Y-131599043D01*
X220851446Y-133199441D02*
X221026341Y-133199441D01*
X217725143Y-130580300D02*
X218010706Y-130580300D01*
%TO.N,Net-(Q33-B)*%
X217822175Y-147906787D02*
X217254087Y-147338698D01*
X219612643Y-147906787D02*
X217822175Y-147906787D01*
X217254087Y-147338698D02*
X216888121Y-147338698D01*
X220047817Y-147194558D02*
X219757701Y-147484674D01*
X220397861Y-147194558D02*
X220047817Y-147194558D01*
X219757701Y-147761729D02*
X219612643Y-147906787D01*
X220799130Y-147194558D02*
X220397861Y-147194558D01*
X219757701Y-147484674D02*
X219757701Y-147761729D01*
X216888121Y-147338698D02*
X216587168Y-147338698D01*
%TO.N,/nixi_driver/DIG-8*%
X232243740Y-72834566D02*
X232243740Y-73200532D01*
X232243740Y-73200532D02*
X231332500Y-74111772D01*
X215637168Y-149213698D02*
X215637168Y-148475242D01*
X232000547Y-151170367D02*
X231539337Y-150709157D01*
X232172020Y-87244548D02*
X232172020Y-87610514D01*
X215637168Y-148475242D02*
X215637168Y-148109276D01*
X220991924Y-144108515D02*
X228863996Y-136236443D01*
X231539337Y-150709157D02*
X231539337Y-150540186D01*
X215637168Y-148109276D02*
X215637168Y-146974133D01*
X232000547Y-135775233D02*
X232202980Y-135572800D01*
X230256060Y-149949200D02*
X229600951Y-150189893D01*
X232172020Y-87610514D02*
X232172020Y-88183080D01*
X215637168Y-146974133D02*
X216227636Y-146383665D01*
X218591203Y-145506587D02*
X219606378Y-144491412D01*
X220991924Y-144705527D02*
X220991924Y-144491412D01*
X220991924Y-144491412D02*
X220991924Y-144108515D01*
X218591203Y-145800682D02*
X218591203Y-145506587D01*
X227649079Y-150189893D02*
X226245769Y-148786583D01*
X228863996Y-136236443D02*
X231539337Y-136236443D01*
X222209824Y-145923427D02*
X220991924Y-144705527D01*
X222209824Y-146137541D02*
X222209824Y-145923427D01*
X231332500Y-83494201D02*
X232172020Y-84333721D01*
X216227636Y-146383665D02*
X218008220Y-146383665D01*
X231539337Y-150540186D02*
X230948352Y-149949200D01*
X232172020Y-84333721D02*
X232172020Y-87244548D01*
X232202980Y-151372800D02*
X232000547Y-151170367D01*
X223427725Y-147355441D02*
X222209824Y-146137541D01*
X219606378Y-144491412D02*
X220991924Y-144491412D01*
X230948352Y-149949200D02*
X230256060Y-149949200D01*
X229600951Y-150189893D02*
X227649079Y-150189893D01*
X231539337Y-136236443D02*
X232000547Y-135775233D01*
X232243740Y-72262000D02*
X232243740Y-72834566D01*
X218008220Y-146383665D02*
X218591203Y-145800682D01*
X231332500Y-74111772D02*
X231332500Y-83494201D01*
%TO.N,Net-(Q8-B)*%
X185010681Y-152866161D02*
X184237817Y-153639026D01*
X180714166Y-154014957D02*
X179958142Y-153258933D01*
X185010681Y-152678659D02*
X185010681Y-152866161D01*
X184237817Y-153639026D02*
X183861885Y-154014957D01*
X179592176Y-153258933D02*
X178853719Y-153258933D01*
X179958142Y-153258933D02*
X179592176Y-153258933D01*
X183861885Y-154014957D02*
X180714166Y-154014957D01*
%TO.N,Net-(U2-QH)*%
X218525198Y-147194558D02*
X218468951Y-147194558D01*
X216257661Y-145973065D02*
X216257661Y-145971502D01*
X216755966Y-145473197D02*
X216755966Y-144798191D01*
X218747861Y-147194558D02*
X218525198Y-147194558D01*
X216263790Y-145965373D02*
X216755966Y-145473197D01*
X219149130Y-147194558D02*
X218747861Y-147194558D01*
X218468951Y-147194558D02*
X218450776Y-147176383D01*
X216257661Y-145971502D02*
X216263790Y-145965373D01*
%TO.N,Net-(U2-QF)*%
X214215966Y-143456265D02*
X214215966Y-143822232D01*
X196124249Y-150331938D02*
X196124249Y-150069620D01*
X196124249Y-150069620D02*
X199523313Y-146670556D01*
X194242593Y-153219982D02*
X194242593Y-152213594D01*
X214215966Y-143822232D02*
X214215966Y-144798191D01*
X205398816Y-146670556D02*
X208831145Y-143238227D01*
X191122865Y-154114480D02*
X191599135Y-154114480D01*
X193348095Y-154114480D02*
X194242593Y-153219982D01*
X199523313Y-146670556D02*
X205398816Y-146670556D01*
X191965101Y-154114480D02*
X193348095Y-154114480D01*
X191599135Y-154114480D02*
X191965101Y-154114480D01*
X213997928Y-143238227D02*
X214215966Y-143456265D01*
X208831145Y-143238227D02*
X213997928Y-143238227D01*
X194242593Y-152213594D02*
X196124249Y-150331938D01*
%TO.N,Net-(Q29-B)*%
X208267485Y-147670828D02*
X208267485Y-147194558D01*
X207092232Y-151172380D02*
X207676960Y-151172380D01*
X207092232Y-151495339D02*
X207092232Y-151172380D01*
X208603211Y-148082021D02*
X208471937Y-148082021D01*
X208267485Y-147877568D02*
X208267485Y-147670828D01*
X208471937Y-148082021D02*
X208267485Y-147877568D01*
%TO.N,/nixi_driver/DIG-4*%
X208860662Y-149620339D02*
X209183685Y-149297316D01*
X235433380Y-82540266D02*
X235433380Y-82858464D01*
X235433380Y-82858464D02*
X234565880Y-83725965D01*
X235514340Y-88276840D02*
X235514340Y-96918888D01*
X234659293Y-67830959D02*
X234659293Y-71443318D01*
X235464340Y-119998388D02*
X235464340Y-128418888D01*
X235433380Y-72217404D02*
X235433380Y-81029168D01*
X235514340Y-97857420D02*
X235514340Y-98429986D01*
X235464340Y-113034854D02*
X235464340Y-113607420D01*
X235505100Y-66619186D02*
X235505100Y-66985152D01*
X235464340Y-114179986D02*
X235464340Y-114545952D01*
X234857517Y-112062065D02*
X235464340Y-112668888D01*
X235433380Y-81967700D02*
X235433380Y-82540266D01*
X235514340Y-98429986D02*
X235514340Y-98795952D01*
X235464340Y-113607420D02*
X235464340Y-114179986D01*
X235433380Y-81029168D02*
X235433380Y-81395134D01*
X234659293Y-71443318D02*
X235433380Y-72217404D01*
X235464340Y-128418888D02*
X235464340Y-128784854D01*
X235514340Y-98795952D02*
X234668323Y-99641969D01*
X235514340Y-97284854D02*
X235514340Y-97857420D01*
X234668323Y-103251512D02*
X234857517Y-103440706D01*
X234857517Y-103440706D02*
X234857517Y-112062065D01*
X208343184Y-149620339D02*
X208613614Y-149620339D01*
X234593246Y-119127293D02*
X235464340Y-119998388D01*
X235464340Y-128784854D02*
X235464340Y-129357420D01*
X235505100Y-66046620D02*
X235505100Y-66619186D01*
X235464340Y-112668888D02*
X235464340Y-113034854D01*
X235505100Y-66985152D02*
X234659293Y-67830959D01*
X235514340Y-96918888D02*
X235514340Y-97284854D01*
X208042232Y-149620339D02*
X208343184Y-149620339D01*
X235464340Y-114545952D02*
X234593246Y-115417047D01*
X234565880Y-87328380D02*
X235514340Y-88276840D01*
X234668323Y-99641969D02*
X234668323Y-103251512D01*
X234565880Y-83725965D02*
X234565880Y-87328380D01*
X235433380Y-81395134D02*
X235433380Y-81967700D01*
X234593246Y-115417047D02*
X234593246Y-119127293D01*
X208613614Y-149620339D02*
X208860662Y-149620339D01*
%TO.N,/nixi_driver/RHDP-2*%
X216804668Y-91465183D02*
X217543125Y-91465183D01*
X228664903Y-91465183D02*
X233372417Y-96172697D01*
X233372417Y-96172697D02*
X233833627Y-96633907D01*
X233833627Y-96633907D02*
X234036060Y-96836340D01*
X217909091Y-91465183D02*
X228664903Y-91465183D01*
X217543125Y-91465183D02*
X217909091Y-91465183D01*
%TO.N,Net-(U2-QD)*%
X211675966Y-146140116D02*
X211675966Y-145774150D01*
X207018754Y-147194558D02*
X207368798Y-147194558D01*
X210659774Y-147156308D02*
X211675966Y-146140116D01*
X207654801Y-146908555D02*
X207654801Y-146648928D01*
X207859089Y-146444640D02*
X208668296Y-146444640D01*
X208668296Y-146444640D02*
X209379964Y-147156308D01*
X206617485Y-147194558D02*
X207018754Y-147194558D01*
X207368798Y-147194558D02*
X207654801Y-146908555D01*
X211675966Y-145774150D02*
X211675966Y-144798191D01*
X207654801Y-146648928D02*
X207859089Y-146444640D01*
X209379964Y-147156308D02*
X210659774Y-147156308D01*
%TO.N,Net-(Ccomp2-Pad2)*%
X204317161Y-61614402D02*
X205043751Y-61614402D01*
X177092232Y-66094473D02*
X183727802Y-59458903D01*
X177092232Y-69797315D02*
X177092232Y-66094473D01*
X183727802Y-59458903D02*
X201795696Y-59458903D01*
X177092232Y-70889870D02*
X177092232Y-70163281D01*
X177092232Y-70163281D02*
X177092232Y-69797315D01*
X201795696Y-59458903D02*
X203951195Y-61614402D01*
X203951195Y-61614402D02*
X204317161Y-61614402D01*
%TO.N,Net-(Q9-B)*%
X174491539Y-111829128D02*
X174090270Y-111829128D01*
X201016282Y-124966799D02*
X200430343Y-124966799D01*
X176105456Y-111829128D02*
X174857506Y-111829128D01*
X201016282Y-125256472D02*
X201016282Y-124966799D01*
X178880529Y-114604201D02*
X176105456Y-111829128D01*
X174857506Y-111829128D02*
X174491539Y-111829128D01*
%TO.N,Net-(U1-COMP)*%
X202141029Y-73136763D02*
X202141029Y-73359426D01*
X202230400Y-71229976D02*
X202283542Y-71229976D01*
X202141029Y-72323464D02*
X202141029Y-73136763D01*
X202141029Y-73359426D02*
X202126729Y-73373726D01*
X200238733Y-72410964D02*
X200000148Y-72410964D01*
X202141029Y-71319347D02*
X202230400Y-71229976D01*
X202126729Y-73373726D02*
X201201495Y-73373726D01*
X200000148Y-72410964D02*
X199498561Y-72410964D01*
X205043751Y-64381955D02*
X205043751Y-64015988D01*
X205043751Y-64015988D02*
X205043751Y-63514402D01*
X201201495Y-73373726D02*
X200238733Y-72410964D01*
X205043751Y-65452578D02*
X205043751Y-64381955D01*
X205173565Y-65582392D02*
X205043751Y-65452578D01*
X202141029Y-71510165D02*
X202141029Y-71319347D01*
X202141029Y-72323464D02*
X202141029Y-71510165D01*
%TO.N,Net-(Q1-G)*%
X205228837Y-71715537D02*
X205228837Y-72052788D01*
X202791029Y-69277730D02*
X205228837Y-71715537D01*
X202791029Y-68098464D02*
X202791029Y-68911763D01*
X218936526Y-84623308D02*
X220639700Y-86326482D01*
X213133752Y-75070266D02*
X215421385Y-77357899D01*
X220639700Y-86692448D02*
X220639700Y-87392448D01*
X220639700Y-86326482D02*
X220639700Y-86692448D01*
X202791029Y-68911763D02*
X202791029Y-69277730D01*
X205228837Y-72052788D02*
X208246314Y-75070266D01*
X208246314Y-75070266D02*
X213133752Y-75070266D01*
X215421385Y-78534627D02*
X218936526Y-82049768D01*
X218936526Y-82049768D02*
X218936526Y-84623308D01*
X215421385Y-77357899D02*
X215421385Y-78534627D01*
%TO.N,Net-(Br7-Pad1)*%
X228698547Y-147444187D02*
X228900980Y-147646620D01*
X205137263Y-120296459D02*
X205137263Y-120439509D01*
X205137263Y-119594870D02*
X205137263Y-120296459D01*
X226459483Y-145530314D02*
X226784674Y-145530314D01*
X205137263Y-120439509D02*
X206125072Y-121427317D01*
X228237337Y-146982977D02*
X228698547Y-147444187D01*
X226784674Y-145530314D02*
X228237337Y-146982977D01*
X206125072Y-121427317D02*
X206837230Y-121427317D01*
%TO.N,Net-(Q7-C)*%
X199792490Y-119744090D02*
X199259505Y-120277075D01*
X199308054Y-121856101D02*
X199308054Y-122594558D01*
X203312263Y-118893281D02*
X203312263Y-118527315D01*
X203312263Y-118527315D02*
X202788610Y-118003661D01*
X203312263Y-119594870D02*
X203312263Y-118893281D01*
X200476782Y-119744090D02*
X199792490Y-119744090D01*
X199308054Y-121490135D02*
X199308054Y-121856101D01*
X200826911Y-118106276D02*
X200826911Y-119393961D01*
X199259505Y-121441586D02*
X199308054Y-121490135D01*
X199259505Y-120277075D02*
X199259505Y-121441586D01*
X202788610Y-118003661D02*
X200929526Y-118003661D01*
X200929526Y-118003661D02*
X200826911Y-118106276D01*
X200826911Y-119393961D02*
X200476782Y-119744090D01*
%TO.N,Net-(Q18-B)*%
X222705000Y-71230000D02*
X222705000Y-70160000D01*
X187922872Y-80626706D02*
X187184415Y-80626706D01*
X188214488Y-80525907D02*
X188113689Y-80626706D01*
X188113689Y-80626706D02*
X187922872Y-80626706D01*
X188228896Y-80525907D02*
X188214488Y-80525907D01*
%TO.N,Net-(Q7-B)*%
X199141038Y-118674050D02*
X199189955Y-118674050D01*
X199703805Y-120719558D02*
X199643580Y-120659332D01*
X199380772Y-118674050D02*
X199782042Y-118674050D01*
X200258054Y-120719558D02*
X199957102Y-120719558D01*
X199189955Y-118674050D02*
X199380772Y-118674050D01*
X199750362Y-120719558D02*
X199703805Y-120719558D01*
X199957102Y-120719558D02*
X199750362Y-120719558D01*
X199077459Y-118737630D02*
X199141038Y-118674050D01*
%TO.N,Net-(U2-QA)*%
X216425571Y-141065902D02*
X216139544Y-140779875D01*
X212933116Y-138564890D02*
X212580073Y-138211846D01*
X210405966Y-138569956D02*
X210405966Y-138872232D01*
X210405966Y-138872232D02*
X210405966Y-139848191D01*
X219277294Y-140167190D02*
X218378581Y-141065902D01*
X219908624Y-139685086D02*
X219908624Y-140051052D01*
X218378581Y-141065902D02*
X216425571Y-141065902D01*
X216139544Y-138920569D02*
X215783865Y-138564890D01*
X219908624Y-140051052D02*
X219792487Y-140167190D01*
X215783865Y-138564890D02*
X212933116Y-138564890D01*
X219792487Y-140167190D02*
X219277294Y-140167190D01*
X210764075Y-138211846D02*
X210405966Y-138569956D01*
X212580073Y-138211846D02*
X210764075Y-138211846D01*
X219908624Y-139208816D02*
X219908624Y-139685086D01*
X216139544Y-140779875D02*
X216139544Y-138920569D01*
%TO.N,Net-(Q26-B)*%
X217646348Y-137044948D02*
X217345396Y-137044948D01*
X220404009Y-138538813D02*
X219426566Y-138538813D01*
X219426566Y-138538813D02*
X217932702Y-137044948D01*
X220504835Y-138639638D02*
X220404009Y-138538813D01*
X221157355Y-139208816D02*
X220807311Y-139208816D01*
X220807311Y-139208816D02*
X220504835Y-138906339D01*
X221558624Y-139208816D02*
X221157355Y-139208816D01*
X220504835Y-138906339D02*
X220504835Y-138639638D01*
X217932702Y-137044948D02*
X217646348Y-137044948D01*
%TO.N,/nixi_driver/DIG-5*%
X236502433Y-131152433D02*
X236300000Y-130950000D01*
X236932683Y-84223923D02*
X237288736Y-84579976D01*
X237117178Y-81821377D02*
X236269040Y-82669516D01*
X237068490Y-145090746D02*
X237068490Y-131718490D01*
X236340760Y-67639200D02*
X236543193Y-67841633D01*
X237288736Y-84579976D02*
X237288736Y-93906175D01*
X236543193Y-67841633D02*
X237004403Y-68302843D01*
X213007200Y-152308933D02*
X213745657Y-152308933D01*
X213986104Y-152308933D02*
X214045736Y-152249300D01*
X236269040Y-83560280D02*
X236471473Y-83762713D01*
X237117178Y-68415618D02*
X237117178Y-81821377D01*
X236300000Y-146750000D02*
X236300000Y-146177434D01*
X237004403Y-68302843D02*
X237117178Y-68415618D01*
X237068490Y-131718490D02*
X236963643Y-131613643D01*
X236471473Y-83762713D02*
X236932683Y-84223923D01*
X236300000Y-146177434D02*
X236300000Y-145859236D01*
X236300000Y-145859236D02*
X237068490Y-145090746D01*
X236269040Y-82669516D02*
X236269040Y-82987714D01*
X213936474Y-152308933D02*
X213986104Y-152308933D01*
X236963643Y-131613643D02*
X236502433Y-131152433D01*
X213745657Y-152308933D02*
X213936474Y-152308933D01*
X236269040Y-82987714D02*
X236269040Y-83560280D01*
%TO.N,Net-(Q35-B)*%
X208471275Y-133864987D02*
X203691049Y-133864987D01*
X209209732Y-133864987D02*
X208471275Y-133864987D01*
X203691049Y-133864987D02*
X203330776Y-133504714D01*
%TO.N,/nixi_driver/DIG-10*%
X208439155Y-132914987D02*
X213111987Y-132914987D01*
X228566380Y-103843992D02*
X228566380Y-114815539D01*
X213111987Y-132914987D02*
X214018301Y-133821301D01*
X229704311Y-84197874D02*
X229704311Y-84922008D01*
X229373540Y-70850826D02*
X229373540Y-71216792D01*
X229382780Y-103027592D02*
X228566380Y-103843992D01*
X229382780Y-102089060D02*
X229382780Y-102661626D01*
X219042454Y-133821301D02*
X219856749Y-134635595D01*
X229097124Y-115191035D02*
X229711514Y-115805424D01*
X208073188Y-132914987D02*
X208439155Y-132914987D01*
X229382780Y-102661626D02*
X229382780Y-103027592D01*
X231699201Y-134710422D02*
X231127068Y-134138288D01*
X228527292Y-72063040D02*
X228527292Y-83020855D01*
X229332780Y-117266494D02*
X229332780Y-117839060D01*
X219856749Y-134635595D02*
X227347712Y-134635595D01*
X214018301Y-133821301D02*
X219042454Y-133821301D01*
X229301820Y-85626774D02*
X229301820Y-86199340D01*
X207334732Y-132914987D02*
X208073188Y-132914987D01*
X229332780Y-116964218D02*
X229332780Y-117266494D01*
X228394248Y-133589060D02*
X228760214Y-133589060D01*
X229704311Y-84922008D02*
X229301820Y-85324498D01*
X229373540Y-71216792D02*
X228527292Y-72063040D01*
X232850536Y-144638538D02*
X233094500Y-144394574D01*
X228527292Y-83020855D02*
X229704311Y-84197874D01*
X230725005Y-134138288D02*
X230175776Y-133589060D01*
X228566380Y-114815539D02*
X228941875Y-115191035D01*
X229301820Y-85324498D02*
X229301820Y-85626774D01*
X229373540Y-70278260D02*
X229373540Y-70850826D01*
X229711514Y-116585484D02*
X229332780Y-116964218D01*
X230175776Y-133589060D02*
X229905346Y-133589060D01*
X233094500Y-144394574D02*
X233094500Y-135259495D01*
X229905346Y-133589060D02*
X229332780Y-133589060D01*
X232545427Y-134710422D02*
X231699201Y-134710422D01*
X231024980Y-148211443D02*
X232850536Y-146385888D01*
X233094500Y-135259495D02*
X232545427Y-134710422D01*
X231127068Y-134138288D02*
X230725005Y-134138288D01*
X228941875Y-115191035D02*
X229097124Y-115191035D01*
X228760214Y-133589060D02*
X229332780Y-133589060D01*
X229711514Y-115805424D02*
X229711514Y-116585484D01*
X232850536Y-146385888D02*
X232850536Y-144638538D01*
X227347712Y-134635595D02*
X228394248Y-133589060D01*
%TO.N,Net-(Br11-Pad1)*%
X228667587Y-84254467D02*
X228870020Y-84456900D01*
X219631835Y-79150170D02*
X224274922Y-83793257D01*
X189266060Y-87073855D02*
X191463708Y-84876207D01*
X228206377Y-83793257D02*
X228667587Y-84254467D01*
X181018015Y-87073855D02*
X189266060Y-87073855D01*
X180652048Y-87073855D02*
X181018015Y-87073855D01*
X179950459Y-87073855D02*
X180652048Y-87073855D01*
X224274922Y-83793257D02*
X228206377Y-83793257D01*
%TO.N,Net-(Q17-C)*%
X175425637Y-80806335D02*
X176167321Y-80806335D01*
X175173106Y-81991220D02*
X175173106Y-81058867D01*
X179950459Y-85248855D02*
X179248871Y-85248855D01*
X175278652Y-82096766D02*
X175173106Y-81991220D01*
X178801725Y-78171930D02*
X178801725Y-76191168D01*
X179248871Y-85248855D02*
X178882904Y-85248855D01*
X178801725Y-75825202D02*
X178801725Y-75086745D01*
X178882904Y-85248855D02*
X175730816Y-82096766D01*
X175730816Y-82096766D02*
X175278652Y-82096766D01*
X178801725Y-76191168D02*
X178801725Y-75825202D01*
X175173106Y-81058867D02*
X175425637Y-80806335D01*
X176167321Y-80806335D02*
X178801725Y-78171930D01*
%TO.N,/nixi_driver/DIG-1*%
X229311722Y-125549671D02*
X229311722Y-118945470D01*
X229812694Y-102921354D02*
X229812694Y-103148180D01*
X230150485Y-115171885D02*
X229861315Y-114882715D01*
X229332780Y-113781614D02*
X229332780Y-114354180D01*
X229301820Y-81775928D02*
X229301820Y-74343893D01*
X231395613Y-68815453D02*
X230037183Y-67457023D01*
X229301820Y-82141894D02*
X229301820Y-81775928D01*
X229332780Y-113415648D02*
X229332780Y-113781614D01*
X230150485Y-118106706D02*
X230150485Y-115171885D01*
X229382780Y-98604180D02*
X229382780Y-99176746D01*
X229861315Y-114882715D02*
X229535213Y-114556613D01*
X229382780Y-99479022D02*
X230240578Y-100336820D01*
X231395613Y-72250100D02*
X231395613Y-68815453D01*
X218596348Y-135169948D02*
X218803088Y-135169948D01*
X229311722Y-118945470D02*
X230150485Y-118106706D01*
X230240578Y-102493471D02*
X229812694Y-102921354D01*
X229575973Y-66995813D02*
X229373540Y-66793380D01*
X218803088Y-135169948D02*
X218840192Y-135169948D01*
X229301820Y-82714460D02*
X229301820Y-82141894D01*
X230240578Y-100336820D02*
X230240578Y-102493471D01*
X229535213Y-114556613D02*
X229332780Y-114354180D01*
X229332780Y-103628094D02*
X229332780Y-113415648D01*
X229812694Y-103148180D02*
X229332780Y-103628094D01*
X229301820Y-74343893D02*
X231395613Y-72250100D01*
X218840192Y-135169948D02*
X218879869Y-135130272D01*
X230037183Y-67457023D02*
X229575973Y-66995813D01*
X229382780Y-99176746D02*
X229382780Y-99479022D01*
X218295396Y-135169948D02*
X218596348Y-135169948D01*
%TO.N,/nixi_driver/DIG-7*%
X230524040Y-113946512D02*
X230524040Y-118099769D01*
X230493080Y-82306792D02*
X230493080Y-83928841D01*
X230524040Y-118099769D02*
X229687957Y-118935851D01*
X217548778Y-150313810D02*
X217617989Y-150313810D01*
X229687957Y-126983365D02*
X230524040Y-127819448D01*
X217184415Y-152308933D02*
X217184415Y-152007981D01*
X217184415Y-151642014D02*
X217184415Y-150678173D01*
X230524040Y-143619448D02*
X230524040Y-142973277D01*
X230493080Y-83928841D02*
X231332500Y-84768261D01*
X231332500Y-92197758D02*
X231160024Y-92370234D01*
X230524040Y-113580546D02*
X230524040Y-113946512D01*
X230524040Y-144557980D02*
X230524040Y-143985414D01*
X230493080Y-81940826D02*
X230493080Y-82306792D01*
X230493080Y-81368260D02*
X230493080Y-81940826D01*
X217184415Y-150678173D02*
X217548778Y-150313810D01*
X230524040Y-143985414D02*
X230524040Y-143619448D01*
X217184415Y-152007981D02*
X217184415Y-151642014D01*
X230524040Y-113007980D02*
X230524040Y-113580546D01*
X229687957Y-118935851D02*
X229687957Y-126983365D01*
X230524040Y-127819448D02*
X230524040Y-128185414D01*
X230524040Y-142973277D02*
X230409339Y-142858576D01*
X230524040Y-128185414D02*
X230524040Y-128757980D01*
X231332500Y-84768261D02*
X231332500Y-92197758D01*
%TO.N,Net-(U2-QC)*%
X214851000Y-143857681D02*
X214851000Y-145774000D01*
X213581387Y-145731903D02*
X213581387Y-143844553D01*
X210405966Y-144123184D02*
X210405966Y-144798191D01*
X214851000Y-145774000D02*
X214596046Y-146028954D01*
X219908624Y-141110183D02*
X219507355Y-141110183D01*
X214596046Y-146028954D02*
X213878439Y-146028954D01*
X219507355Y-141110183D02*
X219332460Y-141110183D01*
X213581387Y-143844553D02*
X213242874Y-143506040D01*
X211023109Y-143506040D02*
X210841846Y-143687303D01*
X215210537Y-143498144D02*
X214851000Y-143857681D01*
X213242874Y-143506040D02*
X211023109Y-143506040D01*
X210841846Y-143687303D02*
X210405966Y-144123184D01*
X219332460Y-141110183D02*
X216944498Y-143498144D01*
X216944498Y-143498144D02*
X215210537Y-143498144D01*
X213878439Y-146028954D02*
X213581387Y-145731903D01*
%TD*%
M02*
