M48
; DRILL file KiCad 10.0.1 date 2026-05-31T20:59:10
; FORMAT={-:-/ absolute / inch / decimal}
; #@! TF.CreationDate,2026-05-31T20:59:10+02:00
; #@! TF.GenerationSoftware,Kicad,Pcbnew,10.0.1
; #@! TF.FileFunction,Plated,1,2,PTH
FMAT,2
INCH
; #@! TA.AperFunction,Plated,PTH,ViaDrill
T1C0.0059
; #@! TA.AperFunction,Plated,PTH,ViaDrill
T2C0.0059
; #@! TA.AperFunction,Plated,PTH,ComponentDrill
T3C0.0079
; #@! TA.AperFunction,Plated,PTH,ComponentDrill
T4C0.0236
; #@! TA.AperFunction,Plated,PTH,ComponentDrill
T5C0.0394
; #@! TA.AperFunction,Plated,PTH,ComponentDrill
T6C0.1260
%
G90
G05
T1
X2.5059Y-3.0433
X2.5768Y-2.8543
X2.6496Y-2.9252
X2.7283Y-3.0827
X2.7323Y-3.0492
X2.9272Y-3.0768
X2.9665Y-3.1909
X3.0394Y-4.7677
X3.2638Y-5.6024
X3.2756Y-3.4035
X3.315Y-3.5276
X3.3268Y-5.6201
X3.3346Y-3.7441
X3.3701Y-3.0571
X3.376Y-3.5177
X3.3917Y-3.4114
X3.3996Y-3.0886
X3.4055Y-2.9567
X3.435Y-3.3996
X3.4646Y-3.5217
X3.4941Y-3.5315
X3.5217Y-2.8661
X3.5886Y-3.4724
X3.5945Y-2.8091
X3.6142Y-3.0709
X3.6201Y-2.7008
X3.6673Y-5.6398
X3.7126Y-2.5315
X3.7165Y-2.8642
X3.7343Y-2.8346
X3.7362Y-2.5236
X3.7618Y-3.6811
X3.7657Y-2.4724
X3.7717Y-4.6772
X3.8031Y-3.0571
X3.811Y-2.815
X3.8327Y-4.9941
X3.8701Y-2.7992
X3.8799Y-3.0984
X3.8878Y-2.8445
X3.9134Y-2.8307
X3.9705Y-2.8228
X3.998Y-5.4035
X4.0728Y-3.3878
X4.0787Y-2.8287
X4.0846Y-2.9606
X4.2756Y-5.0531
T2
X2.0021Y-1.9726
X2.0021Y-2.4813
X2.0021Y-2.8479
X2.0021Y-3.2146
X2.0021Y-3.5812
X2.0021Y-3.9478
X2.0021Y-4.3144
X2.0021Y-5.7808
X2.1067Y-5.3036
X2.1583Y-5.1469
X2.1754Y-5.2315
X2.183Y-5.3278
X2.2187Y-4.9501
X2.2633Y-5.3314
X2.2798Y-4.8176
X2.3039Y-4.4789
X2.3311Y-5.1494
X2.3341Y-5.2058
X2.336Y-5.6165
X2.3687Y-1.9726
X2.3878Y-5.3271
X2.399Y-5.5824
X2.4058Y-4.1538
X2.4112Y-5.2721
X2.4149Y-3.209
X2.4248Y-5.5086
X2.4397Y-2.3693
X2.4411Y-3.5618
X2.4848Y-3.201
X2.4967Y-5.1486
X2.5244Y-4.0366
X2.5262Y-5.1523
X2.5371Y-3.1717
X2.5475Y-4.756
X2.5897Y-2.7066
X2.5996Y-5.1401
X2.6208Y-5.1608
X2.6307Y-3.2057
X2.6308Y-3.382
X2.6308Y-3.3504
X2.6308Y-3.0045
X2.6318Y-2.9101
X2.6318Y-3.2543
X2.6319Y-3.1723
X2.664Y-3.6096
X2.6664Y-3.1162
X2.6695Y-3.4054
X2.6721Y-2.9764
X2.6753Y-5.5662
X2.6843Y-3.0938
X2.6883Y-3.4158
X2.6947Y-5.0192
X2.6952Y-3.4988
X2.699Y-3.626
X2.7097Y-5.08
X2.7282Y-3.5679
X2.7353Y-1.9726
X2.743Y-3.6615
X2.7534Y-2.8263
X2.7597Y-3.3819
X2.7607Y-3.2033
X2.7665Y-3.2851
X2.7749Y-5.5706
X2.7752Y-3.028
X2.7753Y-3.5483
X2.7768Y-3.355
X2.7902Y-3.2588
X2.7919Y-2.9284
X2.7988Y-3.516
X2.8046Y-3.9319
X2.8157Y-3.1815
X2.8181Y-3.1566
X2.8188Y-3.0641
X2.819Y-2.877
X2.8272Y-3.0253
X2.8285Y-5.4132
X2.8288Y-3.2373
X2.8362Y-4.4619
X2.8367Y-3.5277
X2.8383Y-2.9053
X2.8384Y-3.326
X2.86Y-3.2073
X2.8601Y-5.7754
X2.873Y-5.7483
X2.8734Y-5.4034
X2.8813Y-2.9978
X2.8921Y-3.0573
X2.9102Y-3.0329
X2.9232Y-5.5866
X2.9291Y-3.2502
X2.945Y-3.1877
X2.951Y-3.0062
X3.0024Y-3.1962
X3.006Y-3.2856
X3.0826Y-3.2454
X3.0835Y-3.6323
X3.0835Y-3.3526
X3.0835Y-3.5737
X3.0835Y-3.6023
X3.0835Y-2.8778
X3.0838Y-3.4416
X3.0852Y-3.1585
X3.0857Y-3.2989
X3.086Y-2.9434
X3.0905Y-3.2616
X3.0928Y-3.1886
X3.0955Y-4.2027
X3.0966Y-3.2057
X3.1001Y-2.9845
X3.1005Y-3.4311
X3.1007Y-3.1501
X3.1019Y-1.9726
X3.1063Y-3.4447
X3.1084Y-3.0194
X3.11Y-2.9451
X3.1121Y-2.9588
X3.1126Y-3.2421
X3.1136Y-3.4015
X3.1181Y-2.7648
X3.1192Y-2.9057
X3.1193Y-3.2986
X3.1236Y-3.5902
X3.1306Y-2.9801
X3.1306Y-3.1683
X3.1324Y-3.137
X3.133Y-3.1927
X3.1334Y-3.3496
X3.1339Y-3.3005
X3.1342Y-3.2519
X3.1342Y-3.2819
X3.1367Y-3.5687
X3.1406Y-2.5201
X3.1473Y-3.5538
X3.1566Y-2.5676
X3.1729Y-2.5042
X3.186Y-5.0308
X3.1873Y-2.5544
X3.1907Y-2.426
X3.1948Y-2.8104
X3.2093Y-2.5765
X3.2103Y-3.4862
X3.2105Y-2.9301
X3.2107Y-3.2933
X3.2187Y-3.2065
X3.2191Y-2.9092
X3.2227Y-2.8788
X3.2237Y-3.5605
X3.2272Y-2.893
X3.2273Y-3.1662
X3.2276Y-2.8512
X3.231Y-2.9772
X3.2325Y-3.2765
X3.2367Y-3.2021
X3.2428Y-3.2396
X3.2474Y-3.2629
X3.2494Y-3.3051
X3.2524Y-2.6952
X3.253Y-3.175
X3.2562Y-5.7997
X3.2613Y-3.223
X3.2644Y-3.1644
X3.2649Y-5.0195
X3.2652Y-2.7978
X3.2737Y-3.5359
X3.277Y-3.9113
X3.28Y-3.6369
X3.2806Y-3.1544
X3.2817Y-2.9455
X3.2873Y-2.7984
X3.2873Y-5.298
X3.29Y-3.5127
X3.291Y-5.6004
X3.2913Y-2.9589
X3.295Y-3.1484
X3.2983Y-3.5376
X3.3046Y-2.5334
X3.3063Y-3.9181
X3.3105Y-2.7212
X3.3112Y-3.2422
X3.3131Y-3.1421
X3.3141Y-2.9091
X3.315Y-3.5079
X3.3228Y-2.8267
X3.3263Y-2.6581
X3.3278Y-2.8962
X3.3285Y-3.4831
X3.3314Y-5.5985
X3.3315Y-2.7977
X3.3335Y-4.802
X3.3373Y-3.1366
X3.3438Y-4.2552
X3.3443Y-2.8684
X3.3527Y-5.626
X3.3534Y-3.5412
X3.3562Y-4.7344
X3.361Y-4.1961
X3.3647Y-2.8898
X3.3688Y-2.4413
X3.3747Y-2.9111
X3.3758Y-5.5591
X3.3774Y-3.0123
X3.3783Y-2.6686
X3.3915Y-2.7213
X3.3917Y-3.2638
X3.3964Y-3.495
X3.3997Y-2.4927
X3.4074Y-2.5868
X3.4121Y-3.268
X3.415Y-3.1979
X3.4207Y-2.591
X3.4213Y-2.9743
X3.4223Y-3.4861
X3.4249Y-3.0394
X3.4271Y-2.8608
X3.433Y-3.5597
X3.4335Y-2.7044
X3.4434Y-2.5964
X3.4498Y-2.7016
X3.4571Y-3.3369
X3.4572Y-3.376
X3.4597Y-3.4016
X3.4611Y-2.5551
X3.4612Y-2.5869
X3.4654Y-4.2246
X3.4665Y-3.637
X3.4686Y-1.9726
X3.4687Y-2.7974
X3.469Y-3.4641
X3.4704Y-5.1375
X3.4742Y-2.6038
X3.4752Y-5.1214
X3.4815Y-4.6081
X3.4853Y-2.7213
X3.4866Y-5.0643
X3.4888Y-2.6008
X3.494Y-3.2854
X3.4942Y-2.5782
X3.4947Y-2.5301
X3.498Y-3.487
X3.5029Y-2.7153
X3.5044Y-3.2598
X3.5056Y-3.4605
X3.5209Y-2.7085
X3.5236Y-2.5813
X3.5303Y-3.1101
X3.5313Y-2.4522
X3.5435Y-2.6991
X3.5494Y-3.0807
X3.5505Y-2.6329
X3.5513Y-2.3068
X3.5544Y-2.7203
X3.5555Y-3.6883
X3.5588Y-2.6477
X3.5604Y-2.7993
X3.5696Y-4.6912
X3.575Y-2.6489
X3.5757Y-2.8324
X3.589Y-2.5744
X3.5912Y-2.8922
X3.595Y-5.4425
X3.5972Y-2.4273
X3.6011Y-2.8331
X3.6018Y-5.4601
X3.6096Y-5.6593
X3.6106Y-3.2444
X3.6112Y-4.4519
X3.6165Y-2.8243
X3.6166Y-2.5419
X3.6193Y-2.463
X3.6261Y-4.6636
X3.6398Y-5.6009
X3.6501Y-2.8323
X3.6528Y-2.7972
X3.6584Y-3.2338
X3.6595Y-2.897
X3.6622Y-2.4352
X3.6626Y-3.0857
X3.6665Y-3.1596
X3.6734Y-2.4435
X3.6756Y-2.6417
X3.682Y-2.7004
X3.682Y-2.9312
X3.6836Y-5.3761
X3.6855Y-2.549
X3.6882Y-5.8778
X3.6907Y-2.3775
X3.6964Y-4.936
X3.6972Y-4.6799
X3.6996Y-4.5239
X3.7015Y-3.6371
X3.7032Y-4.9184
X3.7049Y-3.4974
X3.7096Y-2.6397
X3.7106Y-3.7064
X3.7177Y-2.493
X3.7197Y-2.883
X3.7333Y-2.9137
X3.7384Y-3.3349
X3.7403Y-3.637
X3.7403Y-3.0719
X3.741Y-2.6233
X3.7469Y-2.4977
X3.7509Y-2.9069
X3.7623Y-2.6561
X3.7638Y-2.8752
X3.7706Y-2.8362
X3.7739Y-2.456
X3.7746Y-2.6441
X3.784Y-5.1673
X3.7871Y-2.8219
X3.7887Y-2.695
X3.7925Y-5.4349
X3.7937Y-5.3869
X3.7963Y-2.6191
X3.8Y-2.7078
X3.8131Y-2.8374
X3.8208Y-2.7986
X3.8284Y-3.1758
X3.8306Y-4.1206
X3.8318Y-4.7913
X3.8352Y-1.9726
X3.8428Y-2.5438
X3.8442Y-4.6801
X3.8541Y-5.0624
X3.8543Y-2.798
X3.8675Y-2.5169
X3.8829Y-3.637
X3.8858Y-2.8282
X3.8895Y-2.7985
X3.8899Y-2.578
X3.9236Y-3.6369
X3.9243Y-2.8078
X3.9295Y-5.2911
X3.9516Y-3.6054
X3.9524Y-2.7601
X3.9528Y-2.7329
X3.9563Y-2.7806
X3.9691Y-2.8565
X3.9704Y-2.779
X3.9737Y-3.1352
X3.9737Y-2.8785
X3.9872Y-2.7381
X3.9884Y-2.723
X3.9923Y-5.5357
X3.9929Y-2.6988
X4.0056Y-2.7779
X4.0057Y-2.5745
X4.0107Y-2.6533
X4.0181Y-5.1883
X4.0316Y-5.335
X4.0318Y-3.8303
X4.0378Y-5.6892
X4.0499Y-3.4098
X4.0499Y-3.4635
X4.0499Y-3.3882
X4.05Y-2.9854
X4.0502Y-3.1183
X4.0506Y-3.3291
X4.0507Y-3.0899
X4.0509Y-3.3689
X4.0515Y-2.9639
X4.0518Y-3.309
X4.0534Y-2.9263
X4.0547Y-2.8503
X4.0548Y-5.8778
X4.06Y-2.869
X4.0618Y-5.7609
X4.0639Y-2.7072
X4.0644Y-2.9058
X4.067Y-2.6392
X4.0698Y-5.1755
X4.0765Y-2.3428
X4.0838Y-3.4953
X4.0843Y-3.1199
X4.0903Y-2.6452
X4.096Y-3.4272
X4.0962Y-3.003
X4.0986Y-2.8107
X4.0998Y-3.1242
X4.0998Y-2.737
X4.104Y-2.932
X4.1048Y-4.7326
X4.1171Y-2.7526
X4.1232Y-2.655
X4.1287Y-2.9833
X4.1295Y-5.4854
X4.1338Y-2.6459
X4.1439Y-4.2777
X4.1504Y-2.6913
X4.1575Y-5.7992
X4.1585Y-5.2417
X4.1731Y-3.4143
X4.1801Y-5.3653
X4.1917Y-2.9453
X4.2018Y-1.9726
X4.2285Y-3.1385
X4.2309Y-3.0959
X4.2358Y-4.0716
X4.2539Y-5.1322
X4.2622Y-5.6997
X4.2688Y-2.2702
X4.2993Y-5.7443
X4.3201Y-5.0089
X4.3262Y-3.357
X4.3323Y-5.1302
X4.3475Y-5.0087
X4.37Y-3.9038
X4.4007Y-3.409
X4.409Y-5.0874
X4.4214Y-5.8778
X4.4233Y-5.2141
X4.4237Y-5.736
X4.4515Y-4.9252
X4.4774Y-5.1762
X4.481Y-5.6083
X4.51Y-5.1645
X4.5137Y-4.3925
X4.5213Y-4.8908
X4.5425Y-5.6418
X4.5449Y-2.6896
X4.5489Y-5.1922
X4.5629Y-5.3142
X4.5684Y-1.9726
X4.5975Y-3.0959
X4.6131Y-2.9424
X4.6378Y-4.8727
X4.6535Y-5.0874
X4.6742Y-4.8368
X4.6906Y-3.7514
X4.7081Y-5.1645
X4.7507Y-5.7285
X4.7565Y-5.7764
X4.7574Y-5.1646
X4.7644Y-3.4159
X4.796Y-2.2798
X4.8621Y-5.7764
X4.877Y-2.3367
X4.9142Y-2.8195
X4.9171Y-4.3509
X4.935Y-1.9726
X4.9522Y-5.8535
X5.0475Y-4.6708
X5.0475Y-5.0374
X5.0475Y-5.4041
X5.0475Y-5.7707
X5.2951Y-2.3457
X5.2951Y-2.7123
X5.2951Y-3.0789
X5.2951Y-3.4455
X5.2951Y-3.8121
X5.2951Y-4.1787
T3
X4.6512Y-5.3839
X4.6512Y-5.439
X4.6787Y-5.3563
X4.6787Y-5.4104
X4.6787Y-5.4665
X4.7063Y-5.3839
X4.7063Y-5.439
X4.7339Y-5.3563
X4.7339Y-5.4104
X4.7339Y-5.4665
X4.7614Y-5.3839
X4.7614Y-5.439
T5
X2.063Y-4.622
X2.063Y-4.722
X2.063Y-4.822
X2.063Y-4.922
X2.063Y-5.022
X2.063Y-5.122
X2.063Y-5.222
X2.063Y-5.322
X2.063Y-5.422
X2.063Y-5.522
X2.063Y-5.622
X2.063Y-5.722
X3.2654Y-2.0886
X3.2654Y-2.2382
X3.3104Y-2.1634
X3.3555Y-2.0886
X3.3555Y-2.2382
X3.4006Y-2.1634
X3.4457Y-2.0886
X3.4457Y-2.2382
X3.4907Y-2.1634
X3.5358Y-2.0886
X3.5358Y-2.2382
X3.5809Y-2.1634
X3.626Y-2.0886
X3.626Y-2.2382
X3.6711Y-2.1634
X4.2555Y-2.0413
X4.2866Y-4.4429
X4.3555Y-2.0413
X4.3866Y-4.4429
X4.4555Y-2.0413
X4.4866Y-4.4429
X4.5555Y-2.0413
X4.5866Y-4.4429
X4.6555Y-2.0413
X4.6866Y-4.4429
X4.7555Y-2.0413
X4.7866Y-4.4429
X4.8555Y-2.0413
X4.8866Y-4.4429
X4.9555Y-2.0413
X4.9866Y-4.4429
X5.0555Y-2.0413
X5.0866Y-4.4429
X5.2343Y-2.0354
X5.2343Y-2.1354
X5.2343Y-2.2354
X5.2343Y-2.3354
X5.2343Y-2.4354
X5.2343Y-2.5354
X5.2343Y-2.6354
X5.2343Y-2.7354
X5.2343Y-2.8354
X5.2343Y-2.9354
X5.2343Y-3.0354
X5.2343Y-3.1354
X5.2343Y-3.2354
X5.2343Y-3.3354
X5.2343Y-3.4354
X5.2343Y-3.5354
X5.2343Y-3.6354
X5.2343Y-3.7354
X5.2343Y-3.8354
X5.2343Y-3.9354
X5.2343Y-4.0354
X5.2343Y-4.1354
X5.2343Y-4.2354
X5.2343Y-4.3354
X5.2343Y-4.4354
T6
X2.964Y-2.1638
X3.9482Y-2.1638
T4
G00X3.1106Y-5.678
M15
G01X3.1106Y-5.7213
M16
G05
G00X3.1106Y-5.8524
M15
G01X3.1106Y-5.876
M16
G05
G00X3.4508Y-5.678
M15
G01X3.4508Y-5.7213
M16
G05
G00X3.4508Y-5.8524
M15
G01X3.4508Y-5.876
M16
G05
M30
