%TF.GenerationSoftware,KiCad,Pcbnew,10.0.1*%
%TF.CreationDate,2026-05-31T20:59:10+02:00*%
%TF.ProjectId,XC6SLX16-FTG256,58433653-4c58-4313-962d-465447323536,rev?*%
%TF.SameCoordinates,Original*%
%TF.FileFunction,Soldermask,Top*%
%TF.FilePolarity,Negative*%
%FSLAX46Y46*%
G04 Gerber Fmt 4.6, Leading zero omitted, Abs format (unit mm)*
G04 Created by KiCad (PCBNEW 10.0.1) date 2026-05-31 20:59:10*
%MOMM*%
%LPD*%
G01*
G04 APERTURE LIST*
G04 Aperture macros list*
%AMRoundRect*
0 Rectangle with rounded corners*
0 $1 Rounding radius*
0 $2 $3 $4 $5 $6 $7 $8 $9 X,Y pos of 4 corners*
0 Add a 4 corners polygon primitive as box body*
4,1,4,$2,$3,$4,$5,$6,$7,$8,$9,$2,$3,0*
0 Add four circle primitives for the rounded corners*
1,1,$1+$1,$2,$3*
1,1,$1+$1,$4,$5*
1,1,$1+$1,$6,$7*
1,1,$1+$1,$8,$9*
0 Add four rect primitives between the rounded corners*
20,1,$1+$1,$2,$3,$4,$5,0*
20,1,$1+$1,$4,$5,$6,$7,0*
20,1,$1+$1,$6,$7,$8,$9,0*
20,1,$1+$1,$8,$9,$2,$3,0*%
G04 Aperture macros list end*
%ADD10RoundRect,0.150000X-0.825000X-0.150000X0.825000X-0.150000X0.825000X0.150000X-0.825000X0.150000X0*%
%ADD11RoundRect,0.200000X-0.200000X-0.275000X0.200000X-0.275000X0.200000X0.275000X-0.200000X0.275000X0*%
%ADD12RoundRect,0.150000X-0.512500X-0.150000X0.512500X-0.150000X0.512500X0.150000X-0.512500X0.150000X0*%
%ADD13RoundRect,0.375000X0.625000X0.375000X-0.625000X0.375000X-0.625000X-0.375000X0.625000X-0.375000X0*%
%ADD14RoundRect,0.500000X0.500000X1.400000X-0.500000X1.400000X-0.500000X-1.400000X0.500000X-1.400000X0*%
%ADD15RoundRect,0.225000X-0.225000X-0.250000X0.225000X-0.250000X0.225000X0.250000X-0.225000X0.250000X0*%
%ADD16R,1.510000X0.458000*%
%ADD17RoundRect,0.200000X0.200000X0.275000X-0.200000X0.275000X-0.200000X-0.275000X0.200000X-0.275000X0*%
%ADD18RoundRect,0.250000X0.350000X-0.450000X0.350000X0.450000X-0.350000X0.450000X-0.350000X-0.450000X0*%
%ADD19RoundRect,0.250000X-0.250000X-0.475000X0.250000X-0.475000X0.250000X0.475000X-0.250000X0.475000X0*%
%ADD20RoundRect,0.225000X0.225000X0.250000X-0.225000X0.250000X-0.225000X-0.250000X0.225000X-0.250000X0*%
%ADD21RoundRect,0.225000X-0.250000X0.225000X-0.250000X-0.225000X0.250000X-0.225000X0.250000X0.225000X0*%
%ADD22RoundRect,0.250000X0.250000X0.475000X-0.250000X0.475000X-0.250000X-0.475000X0.250000X-0.475000X0*%
%ADD23R,1.600000X1.600000*%
%ADD24C,1.600000*%
%ADD25C,4.000000*%
%ADD26RoundRect,0.250000X-0.350000X0.450000X-0.350000X-0.450000X0.350000X-0.450000X0.350000X0.450000X0*%
%ADD27RoundRect,0.150000X-0.587500X-0.150000X0.587500X-0.150000X0.587500X0.150000X-0.587500X0.150000X0*%
%ADD28RoundRect,0.225000X0.250000X-0.225000X0.250000X0.225000X-0.250000X0.225000X-0.250000X-0.225000X0*%
%ADD29RoundRect,0.075000X0.662500X0.075000X-0.662500X0.075000X-0.662500X-0.075000X0.662500X-0.075000X0*%
%ADD30RoundRect,0.075000X0.075000X0.662500X-0.075000X0.662500X-0.075000X-0.662500X0.075000X-0.662500X0*%
%ADD31R,0.990600X0.990600*%
%ADD32RoundRect,0.250000X-0.262500X-0.450000X0.262500X-0.450000X0.262500X0.450000X-0.262500X0.450000X0*%
%ADD33RoundRect,0.200000X-0.275000X0.200000X-0.275000X-0.200000X0.275000X-0.200000X0.275000X0.200000X0*%
%ADD34R,1.700000X1.700000*%
%ADD35C,1.700000*%
%ADD36RoundRect,0.150000X0.587500X0.150000X-0.587500X0.150000X-0.587500X-0.150000X0.587500X-0.150000X0*%
%ADD37RoundRect,0.150000X-0.150000X-0.575000X0.150000X-0.575000X0.150000X0.575000X-0.150000X0.575000X0*%
%ADD38RoundRect,0.075000X-0.075000X-0.650000X0.075000X-0.650000X0.075000X0.650000X-0.075000X0.650000X0*%
%ADD39O,1.000000X2.100000*%
%ADD40O,1.000000X1.600000*%
%ADD41RoundRect,0.250000X-0.450000X0.262500X-0.450000X-0.262500X0.450000X-0.262500X0.450000X0.262500X0*%
%ADD42RoundRect,0.250000X0.450000X-0.262500X0.450000X0.262500X-0.450000X0.262500X-0.450000X-0.262500X0*%
%ADD43RoundRect,0.162500X-0.650000X-0.162500X0.650000X-0.162500X0.650000X0.162500X-0.650000X0.162500X0*%
%ADD44RoundRect,0.200000X0.275000X-0.200000X0.275000X0.200000X-0.275000X0.200000X-0.275000X-0.200000X0*%
%ADD45RoundRect,0.250000X0.475000X-0.250000X0.475000X0.250000X-0.475000X0.250000X-0.475000X-0.250000X0*%
%ADD46R,0.900000X1.500000*%
%ADD47R,1.500000X0.900000*%
%ADD48C,0.600000*%
%ADD49R,3.800000X3.800000*%
G04 APERTURE END LIST*
D10*
%TO.C,U6*%
X95125000Y-135455000D03*
X95125000Y-136725000D03*
X95125000Y-137995000D03*
X95125000Y-139265000D03*
X95125000Y-140535000D03*
X95125000Y-141805000D03*
X95125000Y-143075000D03*
X95125000Y-144345000D03*
X100075000Y-144345000D03*
X100075000Y-143075000D03*
X100075000Y-141805000D03*
X100075000Y-140535000D03*
X100075000Y-139265000D03*
X100075000Y-137995000D03*
X100075000Y-136725000D03*
X100075000Y-135455000D03*
%TD*%
D11*
%TO.C,R23*%
X92820371Y-127103175D03*
X94470371Y-127103175D03*
%TD*%
D12*
%TO.C,U4*%
X65112500Y-129800000D03*
X65112500Y-130750000D03*
X65112500Y-131700000D03*
X67387500Y-131700000D03*
X67387500Y-129800000D03*
%TD*%
D13*
%TO.C,U3*%
X69250000Y-141450000D03*
X69250000Y-139150000D03*
D14*
X62950000Y-139150000D03*
D13*
X69250000Y-136850000D03*
%TD*%
D15*
%TO.C,C5*%
X79201016Y-69509034D03*
X80751016Y-69509034D03*
%TD*%
%TO.C,C1*%
X71389956Y-136506300D03*
X72939956Y-136506300D03*
%TD*%
D16*
%TO.C,U7*%
X65836661Y-73162238D03*
X65836661Y-73962238D03*
X65836661Y-74762238D03*
X65836661Y-75562238D03*
X65836661Y-76362238D03*
X65836661Y-77162238D03*
X65836661Y-77962238D03*
X65836661Y-78762238D03*
X65836661Y-79562238D03*
X65836661Y-80362238D03*
X65836661Y-81162238D03*
X65836661Y-81962238D03*
X65836661Y-82762238D03*
X65836661Y-83562238D03*
X65836661Y-84362238D03*
X65836661Y-85162238D03*
X65836661Y-85962238D03*
X65836661Y-86762238D03*
X65836661Y-87562238D03*
X65836661Y-88362238D03*
X65836661Y-89162238D03*
X65836661Y-89962238D03*
X65836661Y-90762238D03*
X65836661Y-91562238D03*
X65836661Y-92362238D03*
X65836661Y-93162238D03*
X65836661Y-93962238D03*
X77336661Y-93962238D03*
X77336661Y-93162238D03*
X77336661Y-92362238D03*
X77336661Y-91562238D03*
X77336661Y-90762238D03*
X77336661Y-89962238D03*
X77336661Y-89162238D03*
X77336661Y-88362238D03*
X77336661Y-87562238D03*
X77336661Y-86762238D03*
X77336661Y-85962238D03*
X77336661Y-85162238D03*
X77336661Y-84362238D03*
X77336661Y-83562238D03*
X77336661Y-82762238D03*
X77336661Y-81962238D03*
X77336661Y-81162238D03*
X77336661Y-80362238D03*
X77336661Y-79562238D03*
X77336661Y-78762238D03*
X77336661Y-77962238D03*
X77336661Y-77162238D03*
X77336661Y-76362238D03*
X77336661Y-75562238D03*
X77336661Y-74762238D03*
X77336661Y-73962238D03*
X77336661Y-73162238D03*
%TD*%
D17*
%TO.C,R12*%
X82753781Y-60889503D03*
X81103781Y-60889503D03*
%TD*%
D15*
%TO.C,C22*%
X72171062Y-68333644D03*
X73721062Y-68333644D03*
%TD*%
D18*
%TO.C,Y1*%
X77190486Y-68448574D03*
X77190486Y-66248574D03*
X75490486Y-66248574D03*
X75490486Y-68448574D03*
%TD*%
D19*
%TO.C,C79*%
X90572053Y-138215284D03*
X92472053Y-138215284D03*
%TD*%
D15*
%TO.C,C10*%
X103805854Y-72643409D03*
X105355854Y-72643409D03*
%TD*%
D20*
%TO.C,C11*%
X98325900Y-116916456D03*
X96775900Y-116916456D03*
%TD*%
D21*
%TO.C,C19*%
X70243297Y-69551222D03*
X70243297Y-71101222D03*
%TD*%
D15*
%TO.C,C9*%
X103024748Y-70684425D03*
X104574748Y-70684425D03*
%TD*%
D22*
%TO.C,C59*%
X97158688Y-146834816D03*
X95258688Y-146834816D03*
%TD*%
D20*
%TO.C,C12*%
X98325900Y-118875441D03*
X96775900Y-118875441D03*
%TD*%
D17*
%TO.C,R15*%
X90174288Y-60497706D03*
X88524288Y-60497706D03*
%TD*%
D11*
%TO.C,R10*%
X101412536Y-63240284D03*
X103062536Y-63240284D03*
%TD*%
D23*
%TO.C,J1*%
X92100000Y-56850000D03*
D24*
X89810000Y-56850000D03*
X87520000Y-56850000D03*
X85230000Y-56850000D03*
X82940000Y-56850000D03*
X93245000Y-54950000D03*
X90955000Y-54950000D03*
X88665000Y-54950000D03*
X86375000Y-54950000D03*
X84085000Y-54950000D03*
X92100000Y-53050000D03*
X89810000Y-53050000D03*
X87520000Y-53050000D03*
X85230000Y-53050000D03*
X82940000Y-53050000D03*
D25*
X100285000Y-54960000D03*
X75285000Y-54960000D03*
%TD*%
D26*
%TO.C,Y3*%
X91150000Y-144950000D03*
X91150000Y-147150000D03*
X92850000Y-147150000D03*
X92850000Y-144950000D03*
%TD*%
D27*
%TO.C,Q2*%
X82612940Y-66021847D03*
X82612940Y-67921847D03*
X84487940Y-66971847D03*
%TD*%
D28*
%TO.C,C21*%
X92650000Y-94825000D03*
X92650000Y-93275000D03*
%TD*%
%TO.C,C20*%
X94250000Y-94825000D03*
X94250000Y-93275000D03*
%TD*%
%TO.C,C7*%
X92895371Y-67966847D03*
X92895371Y-66416847D03*
%TD*%
D11*
%TO.C,R25*%
X82275440Y-127494972D03*
X83925440Y-127494972D03*
%TD*%
D29*
%TO.C,U1*%
X101900000Y-89500000D03*
X101900000Y-89000000D03*
X101900000Y-88500000D03*
X101900000Y-88000000D03*
X101900000Y-87500000D03*
X101900000Y-87000000D03*
X101900000Y-86500000D03*
X101900000Y-86000000D03*
X101900000Y-85500000D03*
X101900000Y-85000000D03*
X101900000Y-84500000D03*
X101900000Y-84000000D03*
X101900000Y-83500000D03*
X101900000Y-83000000D03*
X101900000Y-82500000D03*
X101900000Y-82000000D03*
X101900000Y-81500000D03*
X101900000Y-81000000D03*
X101900000Y-80500000D03*
X101900000Y-80000000D03*
X101900000Y-79500000D03*
X101900000Y-79000000D03*
X101900000Y-78500000D03*
X101900000Y-78000000D03*
X101900000Y-77500000D03*
X101900000Y-77000000D03*
X101900000Y-76500000D03*
X101900000Y-76000000D03*
X101900000Y-75500000D03*
X101900000Y-75000000D03*
X101900000Y-74500000D03*
X101900000Y-74000000D03*
X101900000Y-73500000D03*
X101900000Y-73000000D03*
X101900000Y-72500000D03*
X101900000Y-72000000D03*
D30*
X99987500Y-70087500D03*
X99487500Y-70087500D03*
X98987500Y-70087500D03*
X98487500Y-70087500D03*
X97987500Y-70087500D03*
X97487500Y-70087500D03*
X96987500Y-70087500D03*
X96487500Y-70087500D03*
X95987500Y-70087500D03*
X95487500Y-70087500D03*
X94987500Y-70087500D03*
X94487500Y-70087500D03*
X93987500Y-70087500D03*
X93487500Y-70087500D03*
X92987500Y-70087500D03*
X92487500Y-70087500D03*
X91987500Y-70087500D03*
X91487500Y-70087500D03*
X90987500Y-70087500D03*
X90487500Y-70087500D03*
X89987500Y-70087500D03*
X89487500Y-70087500D03*
X88987500Y-70087500D03*
X88487500Y-70087500D03*
X87987500Y-70087500D03*
X87487500Y-70087500D03*
X86987500Y-70087500D03*
X86487500Y-70087500D03*
X85987500Y-70087500D03*
X85487500Y-70087500D03*
X84987500Y-70087500D03*
X84487500Y-70087500D03*
X83987500Y-70087500D03*
X83487500Y-70087500D03*
X82987500Y-70087500D03*
X82487500Y-70087500D03*
D29*
X80575000Y-72000000D03*
X80575000Y-72500000D03*
X80575000Y-73000000D03*
X80575000Y-73500000D03*
X80575000Y-74000000D03*
X80575000Y-74500000D03*
X80575000Y-75000000D03*
X80575000Y-75500000D03*
X80575000Y-76000000D03*
X80575000Y-76500000D03*
X80575000Y-77000000D03*
X80575000Y-77500000D03*
X80575000Y-78000000D03*
X80575000Y-78500000D03*
X80575000Y-79000000D03*
X80575000Y-79500000D03*
X80575000Y-80000000D03*
X80575000Y-80500000D03*
X80575000Y-81000000D03*
X80575000Y-81500000D03*
X80575000Y-82000000D03*
X80575000Y-82500000D03*
X80575000Y-83000000D03*
X80575000Y-83500000D03*
X80575000Y-84000000D03*
X80575000Y-84500000D03*
X80575000Y-85000000D03*
X80575000Y-85500000D03*
X80575000Y-86000000D03*
X80575000Y-86500000D03*
X80575000Y-87000000D03*
X80575000Y-87500000D03*
X80575000Y-88000000D03*
X80575000Y-88500000D03*
X80575000Y-89000000D03*
X80575000Y-89500000D03*
D30*
X82487500Y-91412500D03*
X82987500Y-91412500D03*
X83487500Y-91412500D03*
X83987500Y-91412500D03*
X84487500Y-91412500D03*
X84987500Y-91412500D03*
X85487500Y-91412500D03*
X85987500Y-91412500D03*
X86487500Y-91412500D03*
X86987500Y-91412500D03*
X87487500Y-91412500D03*
X87987500Y-91412500D03*
X88487500Y-91412500D03*
X88987500Y-91412500D03*
X89487500Y-91412500D03*
X89987500Y-91412500D03*
X90487500Y-91412500D03*
X90987500Y-91412500D03*
X91487500Y-91412500D03*
X91987500Y-91412500D03*
X92487500Y-91412500D03*
X92987500Y-91412500D03*
X93487500Y-91412500D03*
X93987500Y-91412500D03*
X94487500Y-91412500D03*
X94987500Y-91412500D03*
X95487500Y-91412500D03*
X95987500Y-91412500D03*
X96487500Y-91412500D03*
X96987500Y-91412500D03*
X97487500Y-91412500D03*
X97987500Y-91412500D03*
X98487500Y-91412500D03*
X98987500Y-91412500D03*
X99487500Y-91412500D03*
X99987500Y-91412500D03*
%TD*%
D31*
%TO.C,SW2*%
X126506850Y-117469101D03*
X126506850Y-126469099D03*
X122006848Y-117469101D03*
X122006848Y-126469099D03*
%TD*%
D21*
%TO.C,C2*%
X60850000Y-138225000D03*
X60850000Y-139775000D03*
%TD*%
D32*
%TO.C,R20*%
X89650000Y-140550000D03*
X91475000Y-140550000D03*
%TD*%
D15*
%TO.C,C26*%
X62380000Y-93955000D03*
X63930000Y-93955000D03*
%TD*%
D21*
%TO.C,C25*%
X70243297Y-66416847D03*
X70243297Y-67966847D03*
%TD*%
D33*
%TO.C,R3*%
X94457582Y-60489894D03*
X94457582Y-62139894D03*
%TD*%
D34*
%TO.C,J3*%
X128410000Y-51850000D03*
D35*
X125870000Y-51850000D03*
X123330000Y-51850000D03*
X120790000Y-51850000D03*
X118250000Y-51850000D03*
X115710000Y-51850000D03*
X113170000Y-51850000D03*
X110630000Y-51850000D03*
X108090000Y-51850000D03*
%TD*%
D36*
%TO.C,SS8050*%
X96985635Y-132176534D03*
X96985635Y-130276534D03*
X95110635Y-131226534D03*
%TD*%
D37*
%TO.C,J6*%
X80080000Y-143855000D03*
X80880000Y-143855000D03*
D38*
X82080000Y-143855000D03*
X83080000Y-143855000D03*
X83580000Y-143855000D03*
X84580000Y-143855000D03*
D37*
X85780000Y-143855000D03*
X86580000Y-143855000D03*
X86580000Y-143855000D03*
X85780000Y-143855000D03*
D38*
X85080000Y-143855000D03*
X84080000Y-143855000D03*
X82580000Y-143855000D03*
X81580000Y-143855000D03*
D37*
X80880000Y-143855000D03*
X80080000Y-143855000D03*
D39*
X79010000Y-144770000D03*
D40*
X79010000Y-148950000D03*
D39*
X87650000Y-144770000D03*
D40*
X87650000Y-148950000D03*
%TD*%
D11*
%TO.C,R6*%
X99459771Y-67550050D03*
X101109771Y-67550050D03*
%TD*%
D15*
%TO.C,C24*%
X62407237Y-74602394D03*
X63957237Y-74602394D03*
%TD*%
D41*
%TO.C,R17*%
X82050000Y-136900000D03*
X82050000Y-138725000D03*
%TD*%
D42*
%TO.C,R22*%
X111861914Y-125498488D03*
X111861914Y-123673488D03*
%TD*%
D43*
%TO.C,U2*%
X87362500Y-117045000D03*
X87362500Y-118315000D03*
X87362500Y-119585000D03*
X87362500Y-120855000D03*
X94537500Y-120855000D03*
X94537500Y-119585000D03*
X94537500Y-118315000D03*
X94537500Y-117045000D03*
%TD*%
D32*
%TO.C,R24*%
X114803838Y-120614425D03*
X116628838Y-120614425D03*
%TD*%
D11*
%TO.C,R5*%
X97116453Y-62848488D03*
X98766453Y-62848488D03*
%TD*%
D42*
%TO.C,R21*%
X105613066Y-129808253D03*
X105613066Y-127983253D03*
%TD*%
D20*
%TO.C,C14*%
X106200000Y-86000000D03*
X104650000Y-86000000D03*
%TD*%
D11*
%TO.C,R4*%
X86180970Y-64023878D03*
X87830970Y-64023878D03*
%TD*%
%TO.C,R11*%
X87352629Y-66766456D03*
X89002629Y-66766456D03*
%TD*%
D33*
%TO.C,R16*%
X97191453Y-65583253D03*
X97191453Y-67233253D03*
%TD*%
D44*
%TO.C,R1*%
X108150000Y-70775000D03*
X108150000Y-69125000D03*
%TD*%
D36*
%TO.C,Q1*%
X117684944Y-125124191D03*
X117684944Y-123224191D03*
X115809944Y-124174191D03*
%TD*%
D32*
%TO.C,R19*%
X89625000Y-142550000D03*
X91450000Y-142550000D03*
%TD*%
D15*
%TO.C,C23*%
X62407237Y-81262941D03*
X63957237Y-81262941D03*
%TD*%
D28*
%TO.C,C8*%
X90942606Y-67966847D03*
X90942606Y-66416847D03*
%TD*%
D21*
%TO.C,C6*%
X80397675Y-66025050D03*
X80397675Y-67575050D03*
%TD*%
D15*
%TO.C,C16*%
X62407237Y-72643409D03*
X63957237Y-72643409D03*
%TD*%
D34*
%TO.C,J5*%
X132950000Y-112660000D03*
D35*
X132950000Y-110120000D03*
X132950000Y-107580000D03*
X132950000Y-105040000D03*
X132950000Y-102500000D03*
X132950000Y-99960000D03*
X132950000Y-97420000D03*
X132950000Y-94880000D03*
X132950000Y-92340000D03*
X132950000Y-89800000D03*
X132950000Y-87260000D03*
X132950000Y-84720000D03*
X132950000Y-82180000D03*
X132950000Y-79640000D03*
X132950000Y-77100000D03*
X132950000Y-74560000D03*
X132950000Y-72020000D03*
X132950000Y-69480000D03*
X132950000Y-66940000D03*
X132950000Y-64400000D03*
X132950000Y-61860000D03*
X132950000Y-59320000D03*
X132950000Y-56780000D03*
X132950000Y-54240000D03*
X132950000Y-51700000D03*
%TD*%
D22*
%TO.C,C80*%
X119810762Y-128028566D03*
X117910762Y-128028566D03*
%TD*%
D42*
%TO.C,R18*%
X86450000Y-138675000D03*
X86450000Y-136850000D03*
%TD*%
D44*
%TO.C,R8*%
X94848135Y-67625050D03*
X94848135Y-65975050D03*
%TD*%
D45*
%TO.C,C15*%
X99350000Y-147850000D03*
X99350000Y-145950000D03*
%TD*%
D20*
%TO.C,C13*%
X107250000Y-87600000D03*
X105700000Y-87600000D03*
%TD*%
D33*
%TO.C,R14*%
X89380394Y-63232472D03*
X89380394Y-64882472D03*
%TD*%
D34*
%TO.C,J7*%
X52400000Y-117400000D03*
D35*
X52400000Y-119940000D03*
X52400000Y-122480000D03*
X52400000Y-125020000D03*
X52400000Y-127560000D03*
X52400000Y-130100000D03*
X52400000Y-132640000D03*
X52400000Y-135180000D03*
X52400000Y-137720000D03*
X52400000Y-140260000D03*
X52400000Y-142800000D03*
X52400000Y-145340000D03*
%TD*%
D21*
%TO.C,C17*%
X67899979Y-69551222D03*
X67899979Y-71101222D03*
%TD*%
D28*
%TO.C,C4*%
X68290532Y-128303566D03*
X68290532Y-126753566D03*
%TD*%
D46*
%TO.C,U5*%
X127260000Y-130200000D03*
X125990000Y-130200000D03*
X124720000Y-130200000D03*
X123450000Y-130200000D03*
X122180000Y-130200000D03*
X120910000Y-130200000D03*
X119640000Y-130200000D03*
X118370000Y-130200000D03*
X117100000Y-130200000D03*
X115830000Y-130200000D03*
X114560000Y-130200000D03*
X113290000Y-130200000D03*
X112020000Y-130200000D03*
X110750000Y-130200000D03*
D47*
X109500000Y-133240000D03*
X109500000Y-134510000D03*
X109500000Y-135780000D03*
X109500000Y-137050000D03*
X109500000Y-138320000D03*
X109500000Y-139590000D03*
X109500000Y-140860000D03*
X109500000Y-142130000D03*
X109500000Y-143400000D03*
X109500000Y-144670000D03*
D46*
X110750000Y-147700000D03*
X112020000Y-147700000D03*
X113290000Y-147700000D03*
X114560000Y-147700000D03*
X115830000Y-147700000D03*
X117100000Y-147700000D03*
X118370000Y-147700000D03*
X119640000Y-147700000D03*
X120910000Y-147700000D03*
X122180000Y-147700000D03*
X123450000Y-147700000D03*
X124720000Y-147700000D03*
X125990000Y-147700000D03*
X127260000Y-147700000D03*
D48*
X120240000Y-136050000D03*
X118840000Y-136050000D03*
X120940000Y-136750000D03*
X119540000Y-136750000D03*
X118140000Y-136750000D03*
X120240000Y-137425000D03*
X118840000Y-137425000D03*
D49*
X119540000Y-137450000D03*
D48*
X120940000Y-138150000D03*
X119540000Y-138150000D03*
X118140000Y-138150000D03*
X120240000Y-138850000D03*
X118840000Y-138850000D03*
%TD*%
D34*
%TO.C,J2*%
X108880000Y-112850000D03*
D35*
X111420000Y-112850000D03*
X113960000Y-112850000D03*
X116500000Y-112850000D03*
X119040000Y-112850000D03*
X121580000Y-112850000D03*
X124120000Y-112850000D03*
X126660000Y-112850000D03*
X129200000Y-112850000D03*
%TD*%
D28*
%TO.C,C3*%
X63350000Y-131625000D03*
X63350000Y-130075000D03*
%TD*%
D44*
%TO.C,R7*%
X92114265Y-63315284D03*
X92114265Y-61665284D03*
%TD*%
%TO.C,R13*%
X81959887Y-64098878D03*
X81959887Y-62448878D03*
%TD*%
D11*
%TO.C,R9*%
X99459771Y-65591066D03*
X101109771Y-65591066D03*
%TD*%
%TO.C,R2*%
X85399864Y-61281300D03*
X87049864Y-61281300D03*
%TD*%
D21*
%TO.C,C18*%
X65947214Y-69551222D03*
X65947214Y-71101222D03*
%TD*%
M02*
